<?xml version="1.0" encoding="UTF-8" standalone="no"?>
<svg
   xmlns:dc="http://purl.org/dc/elements/1.1/"
   xmlns:cc="http://creativecommons.org/ns#"
   xmlns:rdf="http://www.w3.org/1999/02/22-rdf-syntax-ns#"
   xmlns:svg="http://www.w3.org/2000/svg"
   xmlns="http://www.w3.org/2000/svg"
   xmlns:xlink="http://www.w3.org/1999/xlink"
   xmlns:sodipodi="http://sodipodi.sourceforge.net/DTD/sodipodi-0.dtd"
   xmlns:inkscape="http://www.inkscape.org/namespaces/inkscape"
   width="177.17"
   height="177.17"
   shape-rendering="geometricPrecision"
   image-rendering="optimizeQuality"
   fill-rule="evenodd"
   clip-rule="evenodd"
   viewBox="0 0 50 50"
   version="1.1"
   id="svg4798"
   sodipodi:docname="bCaptain.svg"
   inkscape:version="0.92.4 (5da689c313, 2019-01-14)">
  <metadata
     id="metadata4802">
    <rdf:RDF>
      <cc:Work
         rdf:about="">
        <dc:format>image/svg+xml</dc:format>
        <dc:type
           rdf:resource="http://purl.org/dc/dcmitype/StillImage" />
        <dc:title></dc:title>
      </cc:Work>
    </rdf:RDF>
  </metadata>
  <sodipodi:namedview
     pagecolor="#ffffff"
     bordercolor="#666666"
     borderopacity="1"
     objecttolerance="10"
     gridtolerance="10"
     guidetolerance="10"
     inkscape:pageopacity="0"
     inkscape:pageshadow="2"
     inkscape:window-width="1920"
     inkscape:window-height="1017"
     id="namedview4800"
     showgrid="false"
     inkscape:zoom="1.8838088"
     inkscape:cx="2.924289"
     inkscape:cy="73.544656"
     inkscape:window-x="-8"
     inkscape:window-y="-8"
     inkscape:window-maximized="1"
     inkscape:current-layer="svg4798"
     inkscape:snap-nodes="false" />
  <defs
     id="defs4788">
    <linearGradient
       inkscape:collect="always"
       id="linearGradient6661">
      <stop
         style="stop-color:#ffffff;stop-opacity:1;"
         offset="0"
         id="stop6657" />
      <stop
         style="stop-color:#b3b3b3;stop-opacity:1"
         offset="1"
         id="stop6659" />
    </linearGradient>
    <linearGradient
       id="0"
       x1="21.376"
       x2="77.64"
       gradientUnits="userSpaceOnUse">
      <stop
         stop-color="#fff"
         id="stop4783" />
      <stop
         offset="1"
         stop-color="#fff"
         stop-opacity="0"
         id="stop4785" />
    </linearGradient>
    <linearGradient
       gradientTransform="translate(50.708427,-1.9548155)"
       id="0-3"
       x1="21.129999"
       y1="37.220001"
       x2="77.760002"
       y2="37.469002"
       gradientUnits="userSpaceOnUse">
      <stop
         stop-color="#fff"
         id="stop5461" />
      <stop
         offset="1"
         stop-color="#fff"
         stop-opacity="0"
         id="stop5463" />
    </linearGradient>
    <linearGradient
       gradientTransform="translate(-54.458725,-1.3555716)"
       id="0-2"
       x1="21.375999"
       x2="77.639999"
       gradientUnits="userSpaceOnUse">
      <stop
         stop-color="#fff"
         id="stop6058" />
      <stop
         offset="1"
         stop-color="#fff"
         stop-opacity="0"
         id="stop6060" />
    </linearGradient>
    <linearGradient
       inkscape:collect="always"
       xlink:href="#linearGradient6661"
       id="linearGradient6663"
       x1="18.65144"
       y1="35.580711"
       x2="30.711206"
       y2="35.580711"
       gradientUnits="userSpaceOnUse" />
    <linearGradient
       inkscape:collect="always"
       xlink:href="#linearGradient6661"
       id="linearGradient6689"
       x1="60.948723"
       y1="78.781807"
       x2="158.5957"
       y2="78.781807"
       gradientUnits="userSpaceOnUse" />
    <linearGradient
       inkscape:collect="always"
       xlink:href="#linearGradient6661"
       id="linearGradient6699"
       x1="22.510593"
       y1="9.7722454"
       x2="40.413136"
       y2="9.7722454"
       gradientUnits="userSpaceOnUse"
       gradientTransform="matrix(0.80477768,0,0,0.80477768,4.7633367,2.0233687)" />
  </defs>
  <g
     id="g5409"
     transform="translate(-47.90079,-3.8062559)"
     style="fill:#1f1a17;fill-opacity:1;stroke:#1f1a17;stroke-opacity:1">
    <path
       sodipodi:nodetypes="cssssccc"
       inkscape:connector-curvature="0"
       id="path4760"
       d="m 59.323542,36.845189 c -4.923955,-4.423162 -7.488294,-6.501829 -7.488294,-10.697558 0,-9.536991 12.337066,-10.822594 21.466437,-10.554927 5.225494,0.153208 11.124384,0.559374 15.29758,2.774372 2.841632,1.508247 5.367066,3.823463 5.367066,7.531995 0,4.979028 -4.86475,7.93099 -8.255477,11.017435 -9.050136,-4.451366 -17.738141,-4.590077 -26.387312,-0.07133 z"
       style="fill:#1f1a17;fill-opacity:1;stroke:#1f1a17;stroke-width:1.69328892;stroke-linecap:butt;stroke-linejoin:miter;stroke-miterlimit:4;stroke-dasharray:none;stroke-opacity:1" />
    <path
       sodipodi:nodetypes="cccccc"
       inkscape:connector-curvature="0"
       id="path5347"
       d="m 59.323542,36.845189 v 4.984114 c 8.612444,4.713783 17.405516,4.682783 26.375269,0 l 0.01211,-4.912797 v 0 C 76.184699,32.072204 67.50711,32.82843 59.323542,36.845182 Z"
       style="fill:#1f1a17;fill-opacity:1;stroke:#1f1a17;stroke-width:1.69328892;stroke-linecap:butt;stroke-linejoin:miter;stroke-miterlimit:4;stroke-dasharray:none;stroke-opacity:1" />
    <path
       sodipodi:nodetypes="cscc"
       inkscape:connector-curvature="0"
       id="path5355"
       d="m 69.58961,15.521388 c 0.403124,-1.901498 1.356191,-3.235945 3.280585,-3.244926 1.682343,-0.0078 3.026638,1.263387 3.423218,3.351902 z"
       style="fill:#1f1a17;fill-opacity:1;stroke:#1f1a17;stroke-width:1.69328892;stroke-linecap:butt;stroke-linejoin:miter;stroke-miterlimit:4;stroke-dasharray:none;stroke-opacity:1" />
  </g>
  <path
     style="fill:url(#linearGradient6663);fill-opacity:1;stroke:none;stroke-width:0.28221482px;stroke-linecap:butt;stroke-linejoin:miter;stroke-opacity:1"
     d="m 12.584104,33.44591 v 4.269606 c 8.669742,-3.392157 16.447722,-2.994618 24.119531,0 v -4.269604 c -8.355558,-3.453444 -16.162906,-2.929477 -24.119531,-2e-6 z"
     id="path6655"
     inkscape:connector-curvature="0"
     sodipodi:nodetypes="ccccc" />
  <path
     style="fill:url(#linearGradient6689);fill-opacity:1;stroke:none;stroke-width:5.62171268;stroke-linecap:butt;stroke-linejoin:miter;stroke-miterlimit:4;stroke-dasharray:none;stroke-opacity:1"
     d="m 84.195312,44.183594 c -29.474134,-0.147359 -65.474609,5.458728 -65.474609,35.142578 0,13.92981 16.609637,27.467058 25.525391,29.942628 31.618673,-10.126718 53.794367,-10.648878 86.013676,-0.42578 10.19552,-3.08065 28.33593,-13.810713 28.33593,-30.341067 0,-12.312308 -8.38415,-19.998486 -17.81836,-25.005859 -13.85498,-7.353781 -33.43849,-8.702286 -50.787106,-9.210938 -1.894342,-0.05554 -3.829979,-0.09174 -5.794922,-0.101562 z M 85.140625,49.125 c 1.715579,0.0077 3.404096,0.03636 5.052734,0.08008 15.098431,0.400365 32.141281,1.461793 44.199221,7.25 8.21056,3.941335 17.19726,10.365548 17.19726,20.056641 0,13.011145 -10.58694,20.615966 -21.97656,24.434709 -27.4386,-10.447343 -57.508073,-10.478966 -83.937499,0.002 C 33.507626,94.876954 28.182685,88.431096 27.417969,76.787109 25.886821,53.472995 59.406933,49.009016 85.140625,49.125 Z"
     transform="scale(0.28221482)"
     id="path4760-0"
     inkscape:connector-curvature="0"
     sodipodi:nodetypes="ssccssssssssccss" />
  <path
     style="fill:url(#linearGradient6699);fill-opacity:1;stroke:none;stroke-width:0.22712019px;stroke-linecap:butt;stroke-linejoin:miter;stroke-opacity:1"
     d="M 22.879359,10.804311 H 27.12064 C 26.929918,9.4663681 25.755381,9.0834285 24.96803,9.0919606 c -0.810419,0.00878 -1.851236,0.4336451 -2.088671,1.7123504 z"
     id="path6691"
     inkscape:connector-curvature="0"
     sodipodi:nodetypes="ccsc" />
</svg>
