<?xml version="1.0" encoding="UTF-8" standalone="no"?>
<svg
   xmlns:dc="http://purl.org/dc/elements/1.1/"
   xmlns:cc="http://creativecommons.org/ns#"
   xmlns:rdf="http://www.w3.org/1999/02/22-rdf-syntax-ns#"
   xmlns:svg="http://www.w3.org/2000/svg"
   xmlns="http://www.w3.org/2000/svg"
   xmlns:xlink="http://www.w3.org/1999/xlink"
   xmlns:sodipodi="http://sodipodi.sourceforge.net/DTD/sodipodi-0.dtd"
   xmlns:inkscape="http://www.inkscape.org/namespaces/inkscape"
   width="177.17"
   height="177.17"
   shape-rendering="geometricPrecision"
   image-rendering="optimizeQuality"
   fill-rule="evenodd"
   clip-rule="evenodd"
   viewBox="0 0 50 50"
   version="1.1"
   id="svg1190"
   sodipodi:docname="wGeneral.svg"
   inkscape:version="0.92.4 (5da689c313, 2019-01-14)"
   inkscape:export-filename="D:\Pictures\Chess Variants\Chess\pieces\WhitePrince.png"
   inkscape:export-xdpi="198.53"
   inkscape:export-ydpi="198.53">
  <metadata
     id="metadata1194">
    <rdf:RDF>
      <cc:Work
         rdf:about="">
        <dc:format>image/svg+xml</dc:format>
        <dc:type
           rdf:resource="http://purl.org/dc/dcmitype/StillImage" />
        <dc:title></dc:title>
      </cc:Work>
    </rdf:RDF>
  </metadata>
  <sodipodi:namedview
     pagecolor="#ffffff"
     bordercolor="#666666"
     borderopacity="1"
     objecttolerance="10"
     gridtolerance="10"
     guidetolerance="10"
     inkscape:pageopacity="0"
     inkscape:pageshadow="2"
     inkscape:window-width="1920"
     inkscape:window-height="1017"
     id="namedview1192"
     showgrid="false"
     inkscape:zoom="0.84611751"
     inkscape:cx="-288.75788"
     inkscape:cy="-45.51543"
     inkscape:window-x="1912"
     inkscape:window-y="-8"
     inkscape:window-maximized="1"
     inkscape:current-layer="svg1190" />
  <defs
     id="defs1184">
    <linearGradient
       id="0"
       x1="21.405"
       x2="77.64"
       gradientUnits="userSpaceOnUse"
       gradientTransform="matrix(0.80688625,0,0,0.80688625,-0.84624244,8.9715975)">
      <stop
         stop-color="#fff"
         id="stop1179" />
      <stop
         offset="1"
         stop-color="#fff"
         stop-opacity="0"
         id="stop1181" />
    </linearGradient>
    <linearGradient
       id="0-0"
       x1="21.253"
       y1="37.220001"
       x2="77.639999"
       y2="37.349998"
       gradientUnits="userSpaceOnUse">
      <stop
         stop-color="#fff"
         id="stop1423" />
      <stop
         offset="1"
         stop-color="#fff"
         stop-opacity="0"
         id="stop1425" />
    </linearGradient>
    <linearGradient
       inkscape:collect="always"
       xlink:href="#linearGradient5385"
       id="linearGradient5387"
       x1="62.930347"
       y1="26.730312"
       x2="91.34343"
       y2="26.730312"
       gradientUnits="userSpaceOnUse" />
    <linearGradient
       inkscape:collect="always"
       id="linearGradient5385">
      <stop
         style="stop-color:#ffffff;stop-opacity:1;"
         offset="0"
         id="stop5381" />
      <stop
         style="stop-color:#999999;stop-opacity:1"
         offset="1"
         id="stop5383" />
    </linearGradient>
    <linearGradient
       inkscape:collect="always"
       xlink:href="#linearGradient5385"
       id="linearGradient5395"
       x1="58.476898"
       y1="39.452381"
       x2="89.779778"
       y2="39.452381"
       gradientUnits="userSpaceOnUse" />
    <linearGradient
       inkscape:collect="always"
       xlink:href="#linearGradient5385"
       id="linearGradient5403"
       x1="62.955688"
       y1="13.960634"
       x2="88.305"
       y2="13.960634"
       gradientUnits="userSpaceOnUse" />
  </defs>
  <g
     id="g5409"
     transform="matrix(0.69176037,0,0,0.69176037,-15.974339,-10.520553)">
    <g
       id="g8639"
       transform="translate(1.3510638,1.6278938)">
      <g
         id="g8645"
         transform="rotate(37.851734,61.490295,27.611213)">
        <path
           sodipodi:nodetypes="cssssccc"
           inkscape:connector-curvature="0"
           id="path4760"
           d="m 59.323542,36.845189 c -4.923955,-4.423162 -7.488294,-6.501829 -7.488294,-10.697558 0,-9.536991 12.337066,-10.822594 21.466437,-10.554927 5.225494,0.153208 11.124384,0.559374 15.29758,2.774372 2.841632,1.508247 5.367066,3.823463 5.367066,7.531995 0,4.979028 -4.86475,7.93099 -8.255477,11.017435 -9.050136,-4.451366 -17.738141,-4.590077 -26.387312,-0.07133 z"
           style="fill:url(#linearGradient5387);fill-opacity:1;stroke:#1f1a17;stroke-width:2.44779706;stroke-linecap:butt;stroke-linejoin:miter;stroke-miterlimit:4;stroke-dasharray:none;stroke-opacity:1" />
        <path
           sodipodi:nodetypes="cccccc"
           inkscape:connector-curvature="0"
           id="path5347"
           d="m 59.323542,36.845189 v 4.984114 c 8.612444,4.713783 17.405516,4.682783 26.375269,0 l 0.01211,-4.912797 v 0 C 76.184699,32.072204 67.50711,32.82843 59.323542,36.845182 Z"
           style="fill:url(#linearGradient5395);fill-opacity:1;stroke:#1f1a17;stroke-width:2.44779706;stroke-linecap:butt;stroke-linejoin:miter;stroke-miterlimit:4;stroke-dasharray:none;stroke-opacity:1" />
        <path
           sodipodi:nodetypes="ccc"
           inkscape:connector-curvature="0"
           id="path5353"
           d="m 59.323542,41.829303 c 8.60722,-4.521092 17.387757,-4.795999 26.375269,0 v 0"
           style="fill:none;stroke:#1f1a17;stroke-width:2.44779706;stroke-linecap:butt;stroke-linejoin:miter;stroke-miterlimit:4;stroke-dasharray:none;stroke-opacity:1" />
        <path
           sodipodi:nodetypes="cscc"
           inkscape:connector-curvature="0"
           id="path5355"
           d="m 69.664515,15.521388 c 0.403124,-1.901498 1.356191,-3.235945 3.280585,-3.244926 1.682343,-0.0078 3.026638,1.263387 3.423218,3.351902 z"
           style="fill:url(#linearGradient5403);fill-opacity:1;stroke:#1f1a17;stroke-width:1.69328892;stroke-linecap:butt;stroke-linejoin:miter;stroke-miterlimit:4;stroke-dasharray:none;stroke-opacity:1" />
      </g>
    </g>
  </g>
  <path
     d="m 20.278041,16.552295 c 2.097098,0.136364 4.034432,0.67617 5.827333,1.629909 1.783219,0.942445 3.30662,2.158423 4.563748,3.641478 0.88112,1.038463 1.708179,2.295593 2.486825,3.764125 0.785907,1.462079 1.407208,3.019368 1.871975,4.658962 0.532544,1.913127 0.874665,3.914205 1.011029,6.018565 0.143626,2.097097 0.212211,4.0425 0.212211,5.833788 v 4.3588 c 0,0 -1.038463,0 -3.115388,0 -2.069664,0 -4.761436,0 -8.076932,0 H 11.634675 c -0.122647,0 -0.177514,-0.327597 -0.171059,-0.97714 0.0064,-0.655998 0.0476,-1.182089 0.129907,-1.584724 0.04761,-0.321142 0.177516,-0.772191 0.37601,-1.359604 0.204949,-0.587413 0.532545,-1.29828 1.004573,-2.138248 0.211404,-0.430071 0.717322,-1.05218 1.516946,-1.871978 0.806079,-0.819795 1.721896,-1.775955 2.766814,-2.85557 0.601129,-0.614847 1.065896,-1.387037 1.407209,-2.323025 0.341312,-0.928726 0.484938,-1.775957 0.430071,-2.541692 -0.4922,0.403443 -1.032008,0.73104 -1.621842,0.983595 -2.828137,1.011028 -4.881662,2.479561 -6.141211,4.399144 -0.09602,0.122646 -0.396182,0.662453 -0.9021,1.629911 -0.266272,0.505917 -0.4986551,0.853684 -0.6834311,1.038462 -0.252556,0.252556 -0.6221098,0.396181 -1.0997868,0.423615 -0.744757,0.03389 -1.3257145,-0.32114 -1.7420678,-1.086069 C 6.3447281,38.358397 5.8460724,38.426982 5.401478,38.399548 4.6567221,38.119558 4.1169151,37.818591 3.7796367,37.497449 3.096204,36.814016 2.6588716,36.137846 2.4474674,35.454412 2.2425183,34.770981 2.1400437,34.039941 2.1400437,33.254841 c 0,-1.120765 0.6898878,-2.603015 2.0833804,-4.447558 1.6299103,-2.118076 2.4932786,-3.73669 2.5957532,-4.841317 0,-0.478484 0.047607,-1.01829 0.1436257,-1.621841 0.082302,-0.417161 0.2461003,-0.814956 0.4986558,-1.202261 0.1775146,-0.266272 0.293707,-0.451049 0.3485752,-0.546262 0.061324,-0.102474 0.1710601,-0.252555 0.3348581,-0.451049 0.116191,-0.163798 0.218665,-0.287252 0.300968,-0.368748 0.07504,-0.08876 0.177516,-0.204949 0.300969,-0.355029 0.143626,-0.171061 0.327596,-0.368747 0.5599788,-0.601131 -0.7100598,-1.947017 -0.9973108,-3.955356 -0.8609478,-6.018565 2.6506209,0.942443 4.8816619,2.428728 6.6810189,4.461275 0.443787,-1.509684 1.311997,-2.732924 2.603014,-3.66165 1.065898,0.744756 1.913128,1.735613 2.541693,2.958045"
     id="path1186"
     inkscape:connector-curvature="0"
     style="fill:#1f1a17;stroke-width:0.80688632" />
  <path
     d="m 33.830503,45.033768 c -0.01372,0 0,-0.362292 0.03389,-1.08607 0.04115,-0.731039 0.06133,-1.516946 0.06133,-2.356915 0.01372,-1.667027 0.01372,-3.388922 0,-5.171334 -0.01372,-1.783219 -0.252556,-3.559175 -0.717323,-5.335939 -0.457504,-1.708178 -0.95616,-3.162994 -1.503229,-4.372516 -0.546261,-1.209523 -1.140937,-2.247986 -1.783218,-3.129106 -0.95616,-1.441099 -2.268158,-2.664338 -3.921468,-3.66165 -1.65331,-1.004573 -3.38166,-1.659766 -5.18505,-1.967189 0.122646,0.655999 0.177514,1.29828 0.163797,1.926845 -0.02743,0.478483 -0.252556,0.717322 -0.683433,0.717322 -0.4922,0 -0.710867,-0.238839 -0.662454,-0.717322 0.04115,-1.76224 -0.587413,-3.272731 -1.87843,-4.522598 -1.011029,1.065897 -1.564553,2.302047 -1.639594,3.716519 -0.02743,0.471221 -0.266272,0.67617 -0.723777,0.622109 -0.423615,-0.01372 -0.635019,-0.259817 -0.635019,-0.737494 0,0 -0.397517,0.053 -0.363628,-0.110796 -0.182221,0.05921 3.235324,5.695448 3.074625,5.819021 -0.19342,0.148736 -0.520667,0.616721 -0.727194,0.768864 -0.143546,0.105746 -3.530354,-5.9889 -3.695233,-5.900817 -0.382464,0.266273 -0.673726,0.202373 -0.912565,-0.193808 -0.238838,-0.402636 -0.136363,-0.717322 0.321142,-0.942444 0.573696,-0.293706 1.004574,-0.512373 1.29828,-0.662454 -1.147392,-1.174825 -2.452935,-2.118075 -3.9214681,-2.841851 0.157343,1.858258 0.6697151,3.60678 1.5234011,5.267352 0.225121,0.341313 0.17106,0.648736 -0.163797,0.915816 -0.376009,0.293707 -0.689889,0.252556 -0.942443,-0.136363 -0.08876,-0.136365 -0.225123,-0.376009 -0.3961821,-0.723777 -0.279989,0.279989 -0.471222,0.4922 -0.559979,0.621302 -0.09521,0.122646 -0.2598168,0.389726 -0.4922008,0.799625 -0.232383,0.416353 -0.402636,0.758472 -0.512372,1.024744 -0.116193,0.334859 -0.17106,0.601131 -0.150081,0.814956 0.02017,0.204948 0.04115,0.430071 0.05487,0.689887 -0.08979,0.575369 -0.260454,1.124789 -0.5097747,1.651427 -0.091231,0.192707 4.7961616,4.467495 4.6839746,4.654256 -0.164724,0.268266 -0.465175,0.533822 -0.663695,0.84967 -0.118457,0.188466 -4.927475,-3.951489 -5.0584502,-3.746081 -0.214004,0.335622 -0.6304684,0.97212 -0.8791689,1.352971 -0.6285645,0.95616 -1.107048,1.680745 -1.441099,2.158421 -0.3348578,0.484939 -0.5874132,1.093332 -0.7584731,1.844543 -0.1226468,0.451048 -0.1226468,1.004573 0,1.646854 0.1161916,0.648736 0.3824641,1.154654 0.7786453,1.516946 0.6148473,0.621303 1.2095225,0.908554 1.7832187,0.860948 0.184777,0 0.4373323,-0.07504 0.7512111,-0.225121 0.3138788,-0.143626 0.5535239,-0.423616 0.7310385,-0.839969 5.0446896,-5.398958 10.2645496,-12.332884 15.7997796,-17.232991 0.572128,0.212181 0.681587,0.262641 1.104573,0.464577 -0.982818,1.07315 -1.561703,2.068009 -4.716328,5.272038 -0.572869,0.58184 -2.737535,3.167322 -3.317059,3.750116 -3.919538,3.941654 -6.7004461,7.610901 -7.4578099,8.25326 -0.435342,0.412197 -0.613531,0.462878 -0.812025,0.756584 -0.259818,0.348575 -0.3687468,0.4922 -0.341313,0.437332 0.211404,0.764929 0.567241,0.894838 1.058635,0.402637 0.143626,-0.143626 0.3138788,-0.423616 0.4986548,-0.819796 0.191233,-0.402637 0.48494,-0.942444 0.8811201,-1.621842 0.471222,-0.792362 0.969878,-1.428189 1.503229,-1.926844 0.532546,-0.492201 1.004574,-0.894838 1.420927,-1.195806 0.238839,-0.177514 0.532546,-0.376009 0.88112,-0.60113 0.348576,-0.232384 0.814955,-0.464767 1.400755,-0.703605 0.464767,-0.184777 0.983595,-0.416354 1.550835,-0.689888 0.567241,-0.273535 1.072352,-0.621302 1.509685,-1.05218 0.614848,-0.60113 1.086068,-1.338624 1.420927,-2.220551 0.177515,-0.492201 0.238838,-1.099785 0.197686,-1.82437 -0.116191,-0.451049 0.109737,-0.676171 0.683434,-0.676171 0.43007,0 0.669715,0.218667 0.724584,0.662454 0,1.50323 -0.430071,2.875743 -1.284564,4.119155 0.27999,0.853686 0.355031,1.789673 0.218667,2.800702 -0.116192,0.814955 -0.403444,1.687199 -0.847231,2.616732 -0.45105,0.922271 -1.352341,1.95428 -2.711945,3.087954 -2.766813,2.295592 -4.074775,4.658962 -3.921467,7.084462 h 3.409094 6.414747 10.951058 M 6.6868479,32.867535 C 6.2971218,33.106374 6.0655455,33.427515 5.983243,33.830958 5.99696,34.26829 5.7920111,34.507128 5.3683957,34.54828 4.8971741,34.60315 4.657529,34.404654 4.6438118,33.947149 4.6986798,33.06603 5.0875993,32.36888 5.8259002,31.850052 c 0.3485749,-0.27999 0.6697156,-0.259817 0.9634223,0.07504 0.2937067,0.362292 0.2598174,0.67617 -0.1024746,0.942443 m 5.9435241,-9.543853 c 0.17106,0.266272 0.238839,0.546262 0.198495,0.839969 -0.129909,0.853685 -0.608392,1.209522 -1.420927,1.079613 -0.238838,-0.04115 -0.43007,-0.122645 -0.580958,-0.238837 -0.0476,0.06132 -0.129909,0.211404 -0.238839,0.437332 -0.143626,0.430071 -0.423616,0.573696 -0.8399681,0.443787 -0.409899,-0.163797 -0.5736958,-0.464766 -0.478483,-0.902098 0.601129,-1.537119 1.6871991,-2.589299 3.2598201,-3.162995 0.457505,-0.136364 0.758472,0 0.902099,0.396181 0.163798,0.430071 0.04115,0.724584 -0.362292,0.88112 -0.07504,0.04115 -0.150081,0.0823 -0.218667,0.109737 -0.06859,0.03389 -0.136364,0.07504 -0.218666,0.116191"
     id="path1188"
     style="fill:url(#0);stroke-width:0.80688632"
     inkscape:connector-curvature="0"
     sodipodi:nodetypes="ccccccccccsccccccssccccccccccccccscssccccccccccssccccccccccscccscccccccccccccccccccccccccccc" />
</svg>
