<svg clip-rule="evenodd" fill-rule="evenodd" height="50mm" image-rendering="optimizeQuality" shape-rendering="geometricPrecision" text-rendering="geometricPrecision" viewBox="0 0 50 50" width="50mm" xmlns="http://www.w3.org/2000/svg"><g transform="matrix(.96825791 0 0 .96825791 330.54075 -133.914)"><g transform="translate(.201144 -51.448672)"><g transform="matrix(1.084117 0 0 1.084117 27.965887 -17.438385)"><path d="m-327.43212 207.28694-4.3739 4.42164c.0915 2.78308.24097 3.56955 1.5674 5.27488 4.1359-2.68691 1.20222 2.64429 4.67029-.077.20054-2.24145 3.17306-2.68139 5.12089-3.63471 7.94975 2.3048.66824 2.52746-3.24438 8.93733-1.12218 1.76912-1.05026 3.88601-1.29949 5.91276l19.55756-.13002v-1.23454l-.71474-1.49442c-1.2489-3.63277.32554-8.49484.15828-14.92228-1.80786-6.26199-4.28669-9.71933-10.41992-9.40673.17372-1.85927-.0103-7.37521-4.35439-1.2228-.6845 4.78941-5.91326.91212-6.66762 7.57584z" fill="#575452" stroke="#000" stroke-width="1.227104"/><path d="m-321.42982 206.20344c-.40342.63291-2.37309.32339-2.3825-.008-.0413-1.33683 2.88117-1.54992 2.90076-1.29477"/></g><path d="m-325.49479 229.18739c-1.32253 0-2.38723.80903-2.38723 1.81396.001 1.80313-.00028 3.70465 0 5.35334h28.19343c-.0001-1.97368 0-3.49579 0-5.35334 0-1.00493-1.06472-1.81396-2.38723-1.81396z" fill="#575452" stroke="#000" stroke-linecap="square" stroke-width="1.193501"/><path d="m-329.26454 213.05813c.5563.10473 1.40256-1.13834 1.22498-1.3147-.71394-.71263-2.33937.78481-2.20915.92726"/><path d="m-327.68389 216.9422c.40748-.6395.7247-1.31777 1.62551-1.74538" fill="none" stroke="#000" stroke-width="1.286158"/></g><g fill="#464342" fill-rule="evenodd"><path d="m-315.46752 149.74946c12.84569 9.7014 8.31786 13.64505 2.77812 27.41745l9.07851.00005-.74413-1.88515c-.99535-3.76758.22946-10.75707.17104-15.87639-1.95249-8.16122-6.21828-10.61512-11.40047-9.72607z"/><path d="m-316.49321 145.35365c.42725 1.52104.74171 2.83382.91206 4.31473.46215-1.65516-.0641-5.26851-.91206-4.31473z"/></g></g></svg>