<svg clip-rule="evenodd" fill-rule="evenodd" height="50mm" image-rendering="optimizeQuality" shape-rendering="geometricPrecision" text-rendering="geometricPrecision" viewBox="0 0 50 50" width="50mm" xmlns="http://www.w3.org/2000/svg"><g transform="translate(389.57381 -191.41846)"><path d="m-1380.1725 765.42337c-11.2114 16.16979-22.3378 32.40541-33.5165 48.60047-.3327 2.00947 1.9328 3.48991 2.6526 5.2747 3.2926 4.96599 6.3158 10.19335 9.7766 14.99616 1.8373.49098 3.7135-1.2901 5.5706-1.72972 8.3859-3.39133 17.9936-4.50763 26.8242-2.45722 4.2882.78488 8.322 2.59008 12.2154 4.38832 1.914-.59311 2.4592-3.37681 3.7958-4.84795 3.2674-5.29687 6.9133-10.40082 9.7422-15.94745-.5495-2.45084-2.7819-4.33603-3.9935-6.55313-9.499-13.82371-19.0677-27.59901-28.6093-41.39341-1.2095-.75525-3.122-.6857-4.4581-.33077z" fill="#f9f9f9" stroke="#000" stroke-linecap="square" stroke-width="1.603518" transform="scale(.26458333)"/><path d="m-1379.835 848.96043c-7.2107-.0415-14.3683 1.91641-20.727 5.26015-1.0875.72671-.1231 1.95015.4968 2.62094 4.3308 5.51802 9.3743 11.01218 16.1361 13.45641 2.811 1.00274 5.8835 1.30809 8.7915.53897 6.565-1.59402 11.6081-6.56805 15.7578-11.63636 1.0536-1.45484 2.4025-2.77204 3.1584-4.39315-.068-1.34787-1.8408-1.38682-2.8147-1.90685-6.6489-2.46747-13.6717-4.09418-20.7989-3.94011z" fill="#f9f9f9" transform="scale(.26458333)"/><path d="m-362.50768 225.11117-2.59586 5.12156c2.78285.12676 4.61595-1.86956 6.10377-4.2095-1.158-.33791-2.23866-.90787-3.50791-.91206z" fill="#e6e6e6" fill-rule="evenodd"/><g transform="translate(-.529167 -1.058333)"><path d="m-1378.6367 739.87109c-7.17 0-13.0469 5.86318-13.0469 13.03321.0001 5.00542 2.8686 9.3673 7.0371 11.54882l-34.5664 50.0293 14.0234 21.84766c-.528.31232-1.0596.60785-1.5839.93554l-1.2266.75196.3809 18.49414 2.1132-.0449c8.8395 12.62006 17.9056 19.14492 27.3184 18.94726 9.6743-.20308 18.4631-7.42805 26.5957-19.78711l2.7949-.11718-.6875-15.98829-.092-1.5039-1.0293-.69922c-.4875-.333-.9738-.64752-1.4609-.96094l14.6152-22.85156-34.3105-49.55664c3.687-2.30836 6.1581-6.39658 6.1582-11.04492 0-7.17003-5.8632-13.03321-13.0332-13.03321zm0 5.06641c4.4324 0 7.9687 3.53441 7.9687 7.9668 0 4.43238-3.5363 7.96875-7.9687 7.96875s-7.9805-3.53637-7.9805-7.96875c0-4.43239 3.5481-7.9668 7.9805-7.9668zm2.5117 20.75-.4004.27734 32.9922 47.64649-12.9043 20.18555c-7.8296-4.13237-15.5768-5.83081-23.1367-5.58008v-.002c-7.2652.24086-14.3532 2.28508-21.1718 5.67383l-12.3887-19.30078 33.6523-48.69336c.2804.0182.5591.043.8438.043.859 0 1.698-.0895 2.5117-.25zm-1.7285 67.53516c7.5263.0756 15.2599 2.45447 23.3574 7.75l.4043 9.40039c-8.3657-3.50664-16.7458-5.48863-25.0195-5.52344-7.9902-.0344-15.8806 1.75125-23.5606 5.71875l-.1972-9.62305c8.2231-4.93618 16.4858-7.80837 25.0156-7.72265zm-1.1856 16.58203c7.1661.0449 14.4811 1.76682 21.9961 4.82812-7.2885 10.4902-14.4623 15.57421-21.25 15.7168-6.6781.14024-14.0699-4.44074-22.0234-15.31055 6.9872-3.63307 14.0583-5.27959 21.2773-5.23437z" style="clip-rule:nonzero;fill:#333;fill-rule:nonzero;image-rendering:auto;shape-rendering:auto;text-rendering:auto" transform="matrix(.26458333587 0 0 .26458333587 .52917102641 1.05833279404)"/><path d="m-168.83594 209.69336v.68945 2.81055h-4.12109v1.70898h4.12109v6.01954h1.80274v-6.01954h4.1875v-1.70898h-4.1875v-3.5z" style="clip-rule:nonzero;fill:#333;fill-rule:nonzero;image-rendering:auto;shape-rendering:auto;text-rendering:auto" transform="matrix(.7900311373 0 0 .7900311373 -231.38824078334 43.53835306147)"/><path d="m-638.29156 765.26062c-2.10127-.77836-3.83321-2.34631-4.9348-4.46752-.86844-1.67227-.97906-2.21688-.83734-4.12246.56545-7.60294 9.38571-10.826 14.63636-5.34835 4.01722 4.19089 2.66477 11.04415-2.68408 13.60099-1.69631.81086-4.49014.96336-6.18014.33734z" fill="#fff" transform="matrix(.24007057083 0 0 .24007057083 -211.64949 18.498658)"/><path d="m-375.75413 230.41326c-1.32253 0-2.38723.80903-2.38723 1.81396.004 1.79401-.00042 3.73591 0 5.35334h28.19343c-.0001-1.97368 0-3.49579 0-5.35334 0-1.00493-1.06472-1.81396-2.38724-1.81396z" fill="#f9f9f9" stroke="#333" stroke-linecap="square" stroke-width="1.193501"/></g><path d="m-1379.1167 832.48044c-8.5686.19119-16.8309 3.45411-24.0457 7.83484-.7694 2.60468-.2116 5.66414-.4792 8.43896-.8065 2.54104 1.7333 2.99571 3.3134 1.54437 10.986-5.22874 23.9019-5.5678 35.6165-2.69311 3.5889.79293 6.905 2.43526 10.4666 3.2238 1.7989-.84544.4916-3.32502.7743-4.86479-.488-2.20385.8191-5.65693-2.0055-6.54495-7.0941-4.35389-15.232-7.21896-23.6404-6.93912z" fill="#f9f9f9" stroke="#333" stroke-linecap="square" stroke-width="1.603518" transform="scale(.26458333)"/><path d="m-1378.8812 744.38764c-6.0289-.0385-10.3182 7.46035-7.1056 12.5981 1.9115 3.56033 6.4345 5.65362 10.2344 3.7931 3.5059-1.26935 6.0548-4.8712 5.3813-8.66275.1226-4.28153-4.4467-7.84941-8.5101-7.72845z" fill="#f9f9f9" transform="scale(.26458333)"/><g fill="#e6e6e6" fill-rule="evenodd"><path d="m-364.1945 202.66289 7.17176 12.62848-3.29936 4.64513 1.45095.69624 3.43575-5.42924z"/><path d="m-360.91697 221.19011-1.09917 2.68567 3.81992 1.12447.0166-2.51354c-.96509-.45975-1.99188-.95417-2.73735-1.2966z"/></g></g></svg>