<svg clip-rule="evenodd" fill-rule="evenodd" height="50mm" image-rendering="optimizeQuality" shape-rendering="geometricPrecision" text-rendering="geometricPrecision" viewBox="0 0 50 50" width="50mm" xmlns="http://www.w3.org/2000/svg"><g transform="translate(-.376861)"><path d="m34.169949 24.595458 1.219127 13.552325-7.314759.292496-.554146-11.602349z" fill="#f9f9f9" fill-rule="evenodd" stroke="#333" stroke-width="1.666868"/><path d="m42.162794 20.557727c-11.179427 7.137162-20.003016 12.675945-15.231661-2.899729-5.053088-8.7950966 7.049827-14.0191151 16.959459-6.444935 4.830616 2.928972 1.060392 6.673168-1.727798 9.344664z" fill="#f9f9f9" stroke="#333" stroke-linecap="square" stroke-width="1.505073"/><path d="m29.659261 9.1984406c5.366545.074972 17.835542 1.2223084 13.669629 7.8038634-3.56831 5.577861-9.262884 5.729739-11.487368 8.750823.302395-.246316 8.455662-2.109561 12.363776-8.303597 6.227826-7.7587388-12.444471-10.911707-14.546037-8.2510894z" fill="#e6e6e6" fill-rule="evenodd"/><g fill="#f9f9f9" stroke="#333"><path d="m15.956637 25.283936-1.080495 13.653521 6.482969.294681.491133-11.688986z" fill-rule="evenodd" stroke-width="1.575084"/><path d="m8.5909277 20.745449c11.1794303 7.137162 21.5047903 12.488223 16.7334353-3.087451 5.053088-8.7950966-8.551598-13.8313933-18.4612333-6.257212-4.830616 2.92897-1.060391 6.673166 1.727798 9.344663z" stroke-linecap="square" stroke-width="1.505073"/><path d="m13.829066 38.18298c-1.280539 0-2.311435.783343-2.311435 1.756367.000969 1.74588-.00027 3.587026 0 5.18337h27.29828c-.000095-1.911015 0-3.384798 0-5.18337 0-.973024-1.030913-1.756367-2.311433-1.756367z" stroke-linecap="square" stroke-width="1.155607"/><path d="m21.998203 29.621336-4.579498-8.628045c-.991657-20.74640203 18.880002-13.8866678 14.734041.862806-1.052944 2.927754-1.777966 4.395296-3.384848 7.035172-4.165959 9.533968.0212 8.91104-.744429 13.336304-4.274127.982558-2.856574 1.664036-4.165241.907479-2.947774-1.704143-1.474131-8.469512-1.860025-13.513716z" fill-rule="evenodd" stroke-width="1.505073"/><path d="m19.432567 24.512833c-4.552265 6.036155-1.547312 8.853449-1.076399 14.05505 2.745616-13.616501 3.801882-9.147783 3.532072-9.596904z" fill-rule="evenodd" stroke-width="1.003382"/></g><ellipse cx="28.254948" cy="-8.38975" fill="#333" rx="1.129841" ry=".927333" transform="matrix(.49236096 .87039111 -.87039111 .49236096 0 0)"/><path d="m31.01158 24.734795c4.552264 6.036154 1.547313 8.189753 1.076399 13.391354-2.745616-13.616501-3.536403-8.948674-3.266593-9.397795z" fill="#f9f9f9" fill-rule="evenodd" stroke="#333" stroke-width="1.003382"/><path d="m22.993747 27.497508c.08849-.02211.176987-.04425.265477-.06637.02214-.02211.03839-.05238.06637-.06637.01978-.01.05074.01564.06637 0 .01565-.01563-.01565-.05074 0-.06637.03318-.03318.165924.03318.199108 0 .01565-.01563-.01565-.05074 0-.06637s.04425 0 .06637 0h.464587.597326c.0347 0 .248026-.0087.265478 0 .02798.01399.03838.05238.06637.06637.02632.01316.185542-.01356.199108 0 .01565.01564-.01565.05072 0 .06637.03318.03318.165924-.03318.19911 0 .01565.01564-.01565.05072 0 .06637.03318.03318.165924-.03318.199107 0 .01565.01564-.01564.05072 0 .06637.03129.03129.101457-.03129.132741 0 .01565.01564-.01565.05072 0 .06637.03318.03318.165923-.03318.199107 0 .01565.01564-.01564.05072 0 .06637.03129.03129.101457-.03129.13274 0 .01565.01564-.01565.05073 0 .06637.0021.0021.183012 0 .199109 0h.796434.06637c.02213 0 .05074-.01563.06637 0 .01565.01564-.01564.05072 0 .06637.01565.01563.04425 0 .06637 0h.06638" fill="none" stroke="#000" stroke-width=".265478"/><path d="m23.325595 28.957639c-.05967-.339799.243672-.08864.331847-.132739.02798-.01399.03838-.05238.06637-.06636.01978-.01.04425 0 .06637 0 .05698 0 .359385.01293.398216 0 .02968-.01.03603-.05878.06637-.06637.06438-.01608.132739 0 .199107 0h.13274c.02213 0 .04538.007.06637 0 .04693-.01564.08474-.05438.132739-.06637.06438-.01608.132738 0 .199108 0h.398218c.0161 0 .196973-.0021.199107 0 .01565.01563-.01564.05072 0 .06637.176986 0-.02212-.02211.06638.06637.03129.03129.09316-.01977.132739 0 .02798.01399.03838.05238.06637.06636.03957.01977.101457-.03129.132738 0 .01565.01563-.01565.05073 0 .06637.01356.01356.172795-.01316.19911 0 .02798.01399.03838.05238.06637.06637.01978.01.04658-.01.06637 0 .02798.01399.03838.05238.06637.06637.08849.04425.06637-.06637.06637.06637" fill="none" stroke="#000" stroke-width=".265478"/><path d="m23.30775 30.466268c-.05967-.339799.243673-.08865.331849-.132739.02798-.01399.03838-.05238.06637-.06636.01978-.01.04425 0 .06637 0 .05698 0 .359384.01293.398216 0 .02968-.01.03603-.05879.06637-.06637.06438-.01608.132738 0 .199108 0h.13274c.02212 0 .04538.007.06637 0 .04693-.01563.08474-.05438.132739-.06637.06438-.01608.132739 0 .199109 0h.398218c.01609 0 .196972-.0021.199107 0 .01565.01563-.01565.05072 0 .06637.176986 0-.02211-.02211.06637.06637.03129.03129.09316-.01977.132741 0 .02798.01399.03838.05238.06637.06636.03957.01977.101456-.03129.132737 0 .01565.01563-.01565.05072 0 .06637.01356.01356.172794-.01316.19911 0 .02798.01399.03838.05237.06637.06637.01978.01.04658-.01.06637 0 .02798.01399.03838.05238.06637.06637.08849.04425.06637-.06637.06637.06637" fill="none" stroke="#000" stroke-width=".265478"/><path d="m26.21224 31.977835c.05724-.258843-.233667-.06753-.318222-.10111-.02685-.0106-.03681-.03989-.06364-.05055-.01897-.0075-.04244 0-.06364 0-.05465 0-.34463.0099-.381866 0-.02847-.0075-.03455-.04478-.06364-.05056-.06173-.01222-.127288 0-.190932 0-.04244 0-.08485 0-.12729 0-.02121 0-.04351.0054-.06364 0-.045-.01186-.08126-.04141-.127288-.05056-.06175-.01222-.127289 0-.190934 0-.127288 0-.254577 0-.381865 0-.01544 0-.188888-.0016-.190934 0-.01501.01186.01501.03864 0 .05056-.16972 0 .02121-.01685-.06364.05056-.03.02383-.08935-.01506-.127289 0-.02685.01061-.03682.03989-.06364.05055-.03795.01506-.09729-.02382-.127288 0-.01501.01186.01499.03863 0 .05056-.013.0104-.165698-.01-.190933 0-.02685.01061-.03681.03989-.06364.05056-.01897.0075-.04466-.0075-.06364 0-.02685.0106-.03682.03989-.06364.05056-.08486.03371-.06364-.05056-.06364.05056" fill="none" stroke="#000" stroke-width=".226899"/><path d="m25.476379 33.320189c.03999-.180861-.163268-.04718-.222348-.07065-.01875-.0075-.02573-.02787-.04447-.03531-.01326-.0053-.02965 0-.04447 0-.03817 0-.240801.0068-.266817 0-.01989-.0053-.02414-.03129-.04447-.03532-.04314-.0085-.08894 0-.133409 0-.02965 0-.0593 0-.08894 0-.01482 0-.0304.0038-.04447 0-.03145-.0084-.05679-.02894-.08895-.03532-.04315-.0085-.08893 0-.133409 0-.08895 0-.177879 0-.266818 0-.01073 0-.13198-.0012-.133408 0-.0105.0084.0105.027 0 .03532-.118585 0 .01482-.01173-.04447.03532-.02096.01664-.06243-.0105-.08895 0-.01875.0075-.02573.02788-.04447.03531-.02652.0105-.06797-.01664-.08895 0-.0105.0084.0105.027 0 .03532-.0091.0072-.115779-.007-.13341 0-.01875.0075-.02573.02787-.04447.03532-.01326.0053-.0312-.0053-.04447 0-.01875.0075-.02573.02787-.04447.03532-.0593.02355-.04447-.03532-.04447.03532" fill="none" stroke="#000" stroke-width=".158539"/><path d="m31.70881 20.708113-2.041471-1.525237c-3.067184-1.700616-3.681749-6.809743-2.593941-9.9135758 4.438503 2.4301888 5.373914 6.6179328 4.635412 11.4388128z" fill="#e6e6e6" fill-rule="evenodd"/><ellipse cx="3.479368" cy="35.455078" fill="#333" rx="1.129841" ry=".927333" transform="matrix(-.49236096 .87039111 .87039111 .49236096 0 0)"/><path d="m25.469825 34.599028c.03999-.18086-.163268-.04718-.222348-.07065-.01875-.0075-.02573-.02787-.04447-.03531-.01326-.0053-.02965 0-.04447 0-.03818 0-.240801.0068-.266817 0-.01989-.0053-.02414-.03129-.04447-.03532-.04314-.0085-.08894 0-.133409 0-.02965 0-.0593 0-.08893 0-.01482 0-.0304.0038-.04447 0-.03145-.0084-.05679-.02894-.08895-.03532-.04315-.0085-.08893 0-.133409 0-.08894 0-.177879 0-.266818 0-.01073 0-.131979-.0012-.133409 0-.0105.0084.0105.027 0 .03532-.118585 0 .01482-.01173-.04447.03532-.02096.01664-.06243-.0105-.08893 0-.01875.0075-.02573.02787-.04447.03531-.02652.0105-.06797-.01664-.08894 0-.0105.0084.0105.027 0 .03532-.0091.0072-.115778-.007-.133408 0-.01875.0075-.02573.02787-.04447.03532-.01326.0053-.0312-.0053-.04447 0-.01875.0075-.02573.02787-.04447.03532-.0593.02355-.04447-.03532-.04447.03532" fill="none" stroke="#000" stroke-width=".158539"/><path d="m23.265898 35.866147c-.03997-.18086.163268-.04718.222349-.07065.01875-.0075.02573-.02787.04447-.03531.01326-.0053.02965 0 .04447 0 .03819 0 .240801.0068.266817 0 .01989-.0053.02414-.03129.04447-.03532.04314-.0085.08894 0 .13341 0h.08894c.01482 0 .0304.0038.04447 0 .03145-.0084.05679-.02894.08894-.03532.04315-.0085.08893 0 .133409 0h.266818c.01073 0 .131981-.0012.13341 0 .0105.0084-.0105.027 0 .03532.118584 0-.01482-.01173.04447.03532.02096.01664.06243-.0105.08893 0 .01875.0075.02573.02787.04447.03531.02652.0105.06797-.01664.08894 0 .0105.0084-.0105.027 0 .03532.0091.0072.115778-.007.13341 0 .01875.0075.02573.02787.04447.03532.01326.0053.0312-.0053.04447 0 .01875.0075.02573.02787.04447.03532.0593.02355.04447-.03532.04447.03532" fill="none" stroke="#000" stroke-width=".158539"/></g></svg>