<svg clip-rule="evenodd" fill-rule="evenodd" height="50mm" image-rendering="optimizeQuality" shape-rendering="geometricPrecision" text-rendering="geometricPrecision" viewBox="0 0 50 50" width="50mm" xmlns="http://www.w3.org/2000/svg"><g transform="translate(50.880184 5.816157)"><g stroke="#333"><path d="m-35.176391 32.366823c-1.28054 0-2.311435.783343-2.311435 1.756366.000968 1.745881-.00027 3.587027 0 5.183371h27.29828c-.000095-1.911016 0-3.384798 0-5.183371 0-.973023-1.030914-1.756366-2.311434-1.756366z" fill="#f9f9f9" stroke-linecap="square" stroke-width="1.155607"/><path d="m-31.454005 7.2897686c-7.532415-.6535165-11.783348 4.1640054-9.333371 9.2338224-.04519-4.1657 3.05949-2.981412 5.396849-3.100407 8.103196 4.921918 2.81377 14.777449-1.30169 18.035645l3.746048.404401-.444446 2.763406 4.41281-4.083814 2.285724 3.167805 3.301602-2.628606 1.333338 2.359008 1.714291-2.426409c1.10789.912346 1.75024 2.118718 2.227359 3.173252l1.582185-2.90365c1.043471.730662 1.590483 1.839738 2.412704 2.763406v-3.707007l3.746049 2.359005c.485389-15.204434-.953723-25.259699-11.809573-28.5776638-2.297687-.054118-4.654781-.3100445-6.666693.6066001z" style="clip-rule:evenodd;fill:#f9f9f9;fill-rule:evenodd;stroke-width:1.361866;image-rendering:optimizeQuality;shape-rendering:geometricPrecision"/><path clip-rule="evenodd" d="m-25.86668 15.782189-9.523847-2.359005" fill="none" image-rendering="optimizeQuality" shape-rendering="geometricPrecision" stroke-width="1.361866"/></g><path clip-rule="evenodd" d="m-25.297485-.25115826a2.1528742 1.8742189 0 0 1 -2.884813.56415712 2.1528742 1.8742189 0 0 1 -.81119-2.47523546l1.910579.8638157z" fill="#333" fill-rule="evenodd" image-rendering="optimizeQuality" shape-rendering="geometricPrecision" transform="matrix(.93879477 -.34447696 .27622495 .96109301 0 0)"/><path d="m-35.219891 9.7623201c1.398841-.6571952.481549-1.0013147 3.244553-1.2429878-2.034009 1.1886493-.508775.922548-3.244553 1.2429878z" fill="#333" fill-rule="evenodd"/><path d="m-31.08401 7.6090825c5.039229.8578322 5.619706-1.0395166 8.79014 2.1563395" fill="none" stroke="#333" stroke-width=".75"/></g><path d="m22.754166 10.973957c9.658652 2.007952 16.424201 12.916027 17.065625 26.359116 2.501651-13.041368-3.386626-30.5346403-17.065625-26.359116z" fill="#e6e6e6" fill-rule="evenodd"/></svg>