<svg clip-rule="evenodd" fill-rule="evenodd" height="50mm" image-rendering="optimizeQuality" shape-rendering="geometricPrecision" text-rendering="geometricPrecision" viewBox="0 0 50 50" width="50mm" xmlns="http://www.w3.org/2000/svg"><g transform="translate(-242.39216 -394.37502)"><path d="m1427.2517 805.13139c-3.6353 3.26106-7.006 6.83602-10.4668 10.29004-.4652.64492-1.3842 1.08058-1.515 1.90444.9083.9455 2.201 1.53484 3.0715 2.57359 2.9163 2.62866 4.4087 6.69084 3.8535 10.57973-.7597 4.67796-4.4923 8.3548-8.6462 10.27546-2.7509 1.34029-5.8236 1.80935-8.863 1.67144-2.6364.15381-5.2635-.32799-7.6799-1.39048-6.7697-2.3216-11.7433-10.30093-8.3757-17.16382.4014-.75157 1.1282-1.76658.048-2.32466-4.2385-4.17744-8.3565-8.48902-12.7075-12.54564-1.1968-.14669-.58 1.4977-.752 2.19106-.1537 25.63101-.07 51.26274-.092 76.89406.4538.97375 1.9099.26339 2.778.47993h101.4699c.9737-.45377.2633-1.90985.4799-2.77802-.038-25.4528.096-50.90714-.1285-76.3589-.3252-1.03938-1.2484-.0325-1.6383.40497-4.1604 4.04296-8.2309 8.17713-12.3405 12.2715-.3531.81744.7068 1.46227.8082 2.28629 1.4721 3.77171.9361 8.27822-1.6596 11.43637-3.5525 4.66923-9.5469 6.86315-15.2329 6.6954-5.7688-.0773-11.8456-2.48719-15.1309-7.46985-2.1967-3.2913-2.5119-7.81549-.7337-11.33305 1.2085-2.5764 3.3107-4.62651 5.6993-6.12572.5973-.94771-1.0231-1.51026-1.4407-2.22975-3.4382-3.38987-6.8283-6.83078-10.3215-10.16361-.1608-.0123-.3213-.16263-.483-.0708z" fill="#f9f9f9" transform="matrix(.2787940742 0 0 .2787940742 -130.71617699398 182.29214189501)"/><path d="m-246.30825 296.65271c-.84638 8.25264-3.20449 14.21416-6.87831 16.62112 4.9535.12015 6.46124-.0728 7.22183.00036.1833-6.27735-.0224-10.53474-.0354-16.92984-.0906.0397-.29315.28038-.30816.30872z" fill="#e6e6e6" fill-rule="evenodd" transform="matrix(1.29852738297 0 0 1.29852738297 601.15162480131 23.10150888866)"/><path d="m-168.92383 208.01758v.68945 2.8125h-4.11914v1.70899h4.11914v6.01757h1.80469v-6.01757h4.18555v-1.70899h-4.18555v-3.50195z" style="clip-rule:nonzero;fill:#333;fill-rule:nonzero;image-rendering:auto;shape-rendering:auto;text-rendering:auto" transform="matrix(.48184525788 0 0 .48184525788 348.15672401565 307.69160757116)"/><path d="m1430.4961 792.33789c-.792.00049-1.5848.29918-2.1875.89844l-18.8711 18.86328c-.7616.76159-1.0726 1.87129-.8184 2.92383.2473 1.04061 1.0271 1.87829 2.0547 2.21094 5.0273 1.63539 8.2793 5.18096 8.2793 9.06835 0 5.38776-6.3783 9.93555-13.9297 9.93555-7.6844 0-13.9296-4.45347-13.9296-9.93555 0-2.37513 1.2241-4.2059 2.2578-5.33984 1.116-1.22431 1.0624-3.1096-.1075-4.2793l-22.4785-22.41211c-.8857-.86486-2.2112-1.12491-3.375-.65625-1.1518.47166-1.9043 1.61133-1.9043 2.85352v97.00391 5.66992h130.0137v-.83203-101.8418c0-1.24219-.7534-2.36398-1.9082-2.85352-1.1439-.4776-2.4687-.2235-3.3633.65625l-22.5039 22.38868c-1.1797 1.16969-1.2224 3.06495-.1036 4.27734 1.0467 1.13395 2.2872 2.98608 2.2872 5.36719 0 5.38776-6.3783 9.93359-13.9297 9.93359-7.6845 0-13.9336-4.45152-13.9336-9.93359 0-3.88741 3.2482-7.43492 8.2734-9.07031 1.0278-.32073 1.8083-1.16937 2.0625-2.20899.2473-1.05252-.062-2.16028-.8242-2.92187l-18.8731-18.86719c-.6026-.59926-1.3955-.89795-2.1875-.89844zm-.01 7.48242 13.5078 13.50391c-5.0669 2.98977-8.1503 7.75142-8.1503 12.99023 0 8.89089 9.0279 16.1211 20.123 16.1211 11.0943-.00001 20.123-7.21829 20.1231-16.1211 0-2.51514-.7146-4.95581-2.0938-7.16015l15.3125-15.23633v89.55469h-117.6367v-89.54297l15.293 15.2539c-1.3573 2.1984-2.0665 4.63349-2.0665 7.13672 0 8.89088 9.0259 16.1211 20.1211 16.1211 11.0953 0 20.1231-7.2183 20.1231-16.1211 0-5.2398-3.0911-10.01833-8.1641-12.99023z" fill="#333" stroke-width=".992951" transform="matrix(.24662893067 0 0 .24662893067 -85.54684841473 209.54042146904)"/><path d="m253.04767 430.56433c-1.62013 0-2.92444.99109-2.92444 2.22216.002 2.20889-.00034 4.53829 0 6.55801h34.53785c-.00014-2.15125-.00088-4.50781 0-6.55801 0-1.23107-1.30431-2.22216-2.92444-2.22216z" fill="#f9f9f9" stroke="#333" stroke-linecap="square" stroke-width="1.462077"/></g></svg>