<?xml version="1.0" encoding="UTF-8" standalone="no"?>
<svg
   xmlns:dc="http://purl.org/dc/elements/1.1/"
   xmlns:cc="http://creativecommons.org/ns#"
   xmlns:rdf="http://www.w3.org/1999/02/22-rdf-syntax-ns#"
   xmlns:svg="http://www.w3.org/2000/svg"
   xmlns="http://www.w3.org/2000/svg"
   xmlns:sodipodi="http://sodipodi.sourceforge.net/DTD/sodipodi-0.dtd"
   xmlns:inkscape="http://www.inkscape.org/namespaces/inkscape"
   width="50mm"
   height="50mm"
   clip-rule="evenodd"
   fill-rule="evenodd"
   image-rendering="optimizeQuality"
   shape-rendering="geometricPrecision"
   text-rendering="geometricPrecision"
   version="1.1"
   viewBox="0 0 50 50"
   id="svg9033"
   sodipodi:docname="wN.svg"
   inkscape:version="0.92.4 5da689c313, 2019-01-14"
   inkscape:export-filename="/home/spcmd/Projects/chess-pieces/wN.png"
   inkscape:export-xdpi="101.6"
   inkscape:export-ydpi="101.6">
  <defs
     id="defs9037">
    <linearGradient
       gradientUnits="userSpaceOnUse"
       x2="77.64"
       x1="21.405"
       id="0">
      <stop
         id="stop12852"
         stop-color="#fff" />
      <stop
         id="stop12854"
         stop-opacity="0"
         stop-color="#fff"
         offset="1" />
    </linearGradient>
    <clipPath
       id="clipPath5191"
       clipPathUnits="userSpaceOnUse">
      <rect
         clip-path="none"
         y="4.0289068"
         x="7.2068729"
         height="15.671"
         width="35.162529"
         id="rect5193"
         style="opacity:1;fill:#d40000;fill-opacity:1;stroke:#000000;stroke-width:0.2045171;stroke-linecap:square;stroke-linejoin:miter;stroke-miterlimit:4;stroke-dasharray:none;stroke-opacity:1;paint-order:normal" />
    </clipPath>
    <linearGradient
       gradientUnits="userSpaceOnUse"
       x2="77.639999"
       x1="21.375999"
       id="0-2">
      <stop
         id="stop4571"
         stop-color="#fff" />
      <stop
         id="stop4573"
         stop-opacity="0"
         stop-color="#fff"
         offset="1" />
    </linearGradient>
  </defs>
  <sodipodi:namedview
     pagecolor="#ffffff"
     bordercolor="#666666"
     borderopacity="1"
     objecttolerance="10"
     gridtolerance="10"
     guidetolerance="10"
     inkscape:pageopacity="0"
     inkscape:pageshadow="2"
     inkscape:window-width="1362"
     inkscape:window-height="720"
     id="namedview9035"
     showgrid="false"
     inkscape:zoom="0.99999999"
     inkscape:cx="13.452752"
     inkscape:cy="-15.667859"
     inkscape:window-x="0"
     inkscape:window-y="46"
     inkscape:window-maximized="0"
     inkscape:current-layer="svg9033"
     showguides="true"
     inkscape:guide-bbox="true"
     inkscape:snap-global="true"
     inkscape:snap-bbox="true"
     inkscape:bbox-paths="true"
     inkscape:bbox-nodes="true"
     inkscape:snap-bbox-edge-midpoints="true">
    <sodipodi:guide
       position="5.6885416,4.2994791"
       orientation="0,1"
       id="guide12842"
       inkscape:locked="false" />
  </sodipodi:namedview>
  <metadata
     id="metadata9021">
    <rdf:RDF>
      <cc:Work
         rdf:about="">
        <dc:format>image/svg+xml</dc:format>
        <dc:type
           rdf:resource="http://purl.org/dc/dcmitype/StillImage" />
        <dc:title />
      </cc:Work>
    </rdf:RDF>
  </metadata>
  <g
     id="g1888"
     transform="matrix(0.96824974,0,0,0.96824974,330.00834,-183.36535)">
    <g
       transform="translate(0.74835468,-0.37417734)"
       id="g10989">
      <g
         id="g10477"
         transform="matrix(1.084117,0,0,1.084117,27.965887,-17.438385)">
        <path
           style="display:inline;fill:#f9f9f9;fill-opacity:1;stroke:#333333;stroke-width:1.22710395;stroke-linecap:butt;stroke-linejoin:miter;stroke-miterlimit:4;stroke-dasharray:none;stroke-opacity:1"
           d="m -327.43212,207.28694 -4.3739,4.42164 c 0.0915,2.78308 0.24097,3.56955 1.5674,5.27488 4.1359,-2.68691 1.20222,2.64429 4.67029,-0.077 0.20054,-2.24145 3.17306,-2.68139 5.12089,-3.63471 7.94975,2.3048 0.66824,2.52746 -3.24438,8.93733 -1.12218,1.76912 -1.05026,3.88601 -1.29949,5.91276 l 19.55756,-0.13002 v -1.23454 l -0.71474,-1.49442 c -1.2489,-3.63277 0.32554,-8.49484 0.15828,-14.92228 -1.80786,-6.26199 -4.28669,-9.71933 -10.41992,-9.40673 0.17372,-1.85927 -0.0103,-7.37521 -4.35439,-1.2228 -0.6845,4.78941 -5.91326,0.91212 -6.66762,7.57584 z"
           id="path4658-8-3"
           inkscape:connector-curvature="0"
           sodipodi:nodetypes="ccccccccccccccc" />
        <path
           sodipodi:nodetypes="ccc"
           inkscape:connector-curvature="0"
           id="path10451"
           d="m -321.42982,206.20344 c -0.40342,0.63291 -2.37309,0.32339 -2.3825,-0.008 -0.0413,-1.33683 2.88117,-1.54992 2.90076,-1.29477"
           style="opacity:1;fill:#333333;fill-opacity:1;stroke:none;stroke-width:1.40096557;stroke-linecap:square;stroke-linejoin:miter;stroke-miterlimit:4;stroke-dasharray:none;stroke-dashoffset:0;stroke-opacity:1;paint-order:fill markers stroke" />
      </g>
      <path
         sodipodi:nodetypes="sccccss"
         style="opacity:1;fill:#f9f9f9;fill-opacity:1;stroke:#333333;stroke-width:1.19350111;stroke-linecap:square;stroke-linejoin:miter;stroke-miterlimit:4;stroke-dasharray:none;stroke-dashoffset:0;stroke-opacity:1;paint-order:fill markers stroke"
         d="m -325.49479,229.18739 c -1.32253,0 -2.38723,0.80903 -2.38723,1.81396 0.001,1.80313 -2.8e-4,3.70465 0,5.35334 h 28.19343 c -1e-4,-1.97368 0,-3.49579 0,-5.35334 0,-1.00493 -1.06472,-1.81396 -2.38723,-1.81396 z"
         id="rect4661-3-4-1-5-6-1"
         inkscape:connector-curvature="0" />
      <path
         sodipodi:nodetypes="ccc"
         inkscape:connector-curvature="0"
         id="path10451-9"
         d="m -329.26454,213.05813 c 0.5563,0.10473 1.40256,-1.13834 1.22498,-1.3147 -0.71394,-0.71263 -2.33937,0.78481 -2.20915,0.92726"
         style="opacity:1;fill:#333333;fill-opacity:1;stroke:none;stroke-width:1.05663764;stroke-linecap:square;stroke-linejoin:miter;stroke-miterlimit:4;stroke-dasharray:none;stroke-dashoffset:0;stroke-opacity:1;paint-order:fill markers stroke" />
      <path
         style="fill:none;fill-rule:evenodd;stroke:#333333;stroke-width:1.28615761;stroke-linecap:butt;stroke-linejoin:miter;stroke-opacity:1"
         d="m -327.68389,216.9422 c 0.40748,-0.6395 0.7247,-1.31777 1.62551,-1.74538"
         id="path10981"
         inkscape:connector-curvature="0"
         sodipodi:nodetypes="cc" />
    </g>
    <path
       sodipodi:nodetypes="ccccccc"
       inkscape:connector-curvature="0"
       id="path11633"
       d="m -314.92031,200.82395 c 12.84569,9.7014 8.31787,13.64505 2.77813,27.41745 l 9.07851,5e-5 -0.74413,-1.88516 c -0.99535,-3.76757 0.22946,-10.75706 0.17104,-15.87638 -1.95249,-8.16122 -6.21829,-10.61512 -11.40048,-9.72607 z"
       style="fill:#e6e6e6;fill-opacity:1;fill-rule:evenodd;stroke:none;stroke-width:0.26458332px;stroke-linecap:butt;stroke-linejoin:miter;stroke-opacity:1" />
    <path
       sodipodi:nodetypes="ccc"
       inkscape:connector-curvature="0"
       id="path1448"
       d="m -315.94599,196.42814 c 0.42725,1.52104 0.7417,2.83382 0.91205,4.31473 0.46215,-1.65516 -0.0641,-5.26851 -0.91205,-4.31473 z"
       style="fill:#e6e6e6;fill-opacity:1;fill-rule:evenodd;stroke:none;stroke-width:0.26458332px;stroke-linecap:butt;stroke-linejoin:miter;stroke-opacity:1" />
  </g>
</svg>
