<svg clip-rule="evenodd" fill-rule="evenodd" height="50mm" image-rendering="optimizeQuality" shape-rendering="geometricPrecision" text-rendering="geometricPrecision" viewBox="0 0 50 50" width="50mm" xmlns="http://www.w3.org/2000/svg"><g transform="translate(188.21338 -191.95943)"><path d="m-321.47685 347.16187c-3.41142.007-6.17197 2.83988-6.16753 6.32882.004 2.3271.89135 4.46594 2.89751 5.56398l-3.86753 2.6056.14045 1.99822 4.16162-.0187c-.0332 3.63226-1.3183 7.51324-6.91371 10.77079-1.17765 1.05234-3.5325.8346-3.56355 1.86271v4.72289c0 .455.36635.82079.82134.82079h24.86702c.45503 0 .82133-.36579.82133-.82079v-4.72289c-.36493-.92636-2.41658-1.28367-3.56301-1.86271-5.60833-3.26511-6.88674-7.15651-6.91422-10.79602l4.50397-.0203.0159-2.05036-3.99591-2.53042c1.97515-1.10852 2.94606-3.22686 2.94905-5.53106v-.0165c-.009-3.48916-2.78056-6.31095-6.19218-6.30412z" fill="#f9f9f9" stroke="#333" stroke-linecap="square" stroke-width="1.5" transform="translate(158.32136 -144.90702)"/><g fill="#e6e6e6" fill-rule="evenodd"><path d="m-160.12594 203.94818c1.92796 4.39887.78887 7.45592-1.24597 10.12107 4.44496-.29723 5.17126-8.18356 1.24597-10.12107z"/><path d="m-161.37296 214.06543c-1.04082 14.20906.3672 14.85429 10.67303 22.08399l-.0468-4.77076c-9.59143-3.89256-10.11962-8.50361-10.14956-13.37683l4.11595.14031.23386-1.12253z"/></g></g></svg>