<?xml version="1.0" encoding="UTF-8" standalone="no"?>
<svg
   xmlns:dc="http://purl.org/dc/elements/1.1/"
   xmlns:cc="http://creativecommons.org/ns#"
   xmlns:rdf="http://www.w3.org/1999/02/22-rdf-syntax-ns#"
   xmlns:svg="http://www.w3.org/2000/svg"
   xmlns="http://www.w3.org/2000/svg"
   xmlns:sodipodi="http://sodipodi.sourceforge.net/DTD/sodipodi-0.dtd"
   xmlns:inkscape="http://www.inkscape.org/namespaces/inkscape"
   width="50mm"
   height="50mm"
   clip-rule="evenodd"
   fill-rule="evenodd"
   image-rendering="optimizeQuality"
   shape-rendering="geometricPrecision"
   text-rendering="geometricPrecision"
   version="1.1"
   viewBox="0 0 50 50"
   id="svg9033"
   sodipodi:docname="wQ.svg"
   inkscape:version="0.92.4 5da689c313, 2019-01-14"
   inkscape:export-filename="/home/spcmd/Projects/chess-pieces/wQ.png"
   inkscape:export-xdpi="101.6"
   inkscape:export-ydpi="101.6">
  <defs
     id="defs9037" />
  <sodipodi:namedview
     pagecolor="#ffffff"
     bordercolor="#666666"
     borderopacity="1"
     objecttolerance="10"
     gridtolerance="10"
     guidetolerance="10"
     inkscape:pageopacity="0"
     inkscape:pageshadow="2"
     inkscape:window-width="1362"
     inkscape:window-height="720"
     id="namedview9035"
     showgrid="false"
     inkscape:zoom="1"
     inkscape:cx="0.34231051"
     inkscape:cy="-57.369676"
     inkscape:window-x="0"
     inkscape:window-y="46"
     inkscape:window-maximized="0"
     inkscape:current-layer="svg9033"
     showguides="true"
     inkscape:guide-bbox="true"
     inkscape:snap-global="true"
     inkscape:snap-bbox="true"
     inkscape:bbox-paths="true"
     inkscape:bbox-nodes="true"
     inkscape:snap-bbox-edge-midpoints="true">
    <sodipodi:guide
       position="5.6885416,4.2994791"
       orientation="0,1"
       id="guide12842"
       inkscape:locked="false" />
  </sodipodi:namedview>
  <metadata
     id="metadata9021">
    <rdf:RDF>
      <cc:Work
         rdf:about="">
        <dc:format>image/svg+xml</dc:format>
        <dc:type
           rdf:resource="http://purl.org/dc/dcmitype/StillImage" />
        <dc:title></dc:title>
      </cc:Work>
    </rdf:RDF>
  </metadata>
  <g
     id="g1902"
     transform="translate(289.1865,-189.73627)">
    <g
       transform="translate(-146.67752,-1.368312)"
       id="g8759">
      <path
         style="fill:#f9f9f9;fill-opacity:1;fill-rule:evenodd;stroke:#333333;stroke-width:1.20000005;stroke-linecap:butt;stroke-linejoin:miter;stroke-miterlimit:4;stroke-dasharray:none;stroke-opacity:1"
         d="m -128.5875,228.34061 -7.06631,-18.12395 10.90277,10.38489 -0.98085,-20.83593 9.05064,20.83593 8.97589,-20.83593 c 0,0 -1.56756,20.37292 -1.56756,20.90208 0,0.52917 10.951993,-10.45104 10.951993,-10.45104 l -6.344483,18.12395 z"
         id="path8215"
         inkscape:connector-curvature="0"
         sodipodi:nodetypes="ccccccsccc" />
      <path
         sodipodi:nodetypes="sccccss"
         style="opacity:1;fill:#f9f9f9;fill-opacity:1;stroke:#333333;stroke-width:1.31536531;stroke-linecap:square;stroke-linejoin:miter;stroke-miterlimit:4;stroke-dasharray:none;stroke-dashoffset:0;stroke-opacity:1;paint-order:fill markers stroke"
         d="m -129.19335,228.24829 c -1.45756,0 -2.63098,0.89164 -2.63098,1.99918 0.002,1.98724 -3.1e-4,4.0829 0,5.89995 h 31.07216 c -1.3e-4,-1.93539 -8.8e-4,-4.05548 0,-5.89995 0,-1.10754 -1.17343,-1.99918 -2.63099,-1.99918 z"
         id="rect4661-3-4-1-5"
         inkscape:connector-curvature="0" />
    </g>
    <path
       d="m -269.66469,199.34715 a 2.8415058,2.8415058 0 0 1 -2.83965,2.84151 2.8415058,2.8415058 0 0 1 -2.84336,-2.83779 2.8415058,2.8415058 0 0 1 2.83593,-2.84522 2.8415058,2.8415058 0 0 1 2.84707,2.83406"
       sodipodi:open="true"
       sodipodi:end="6.2805673"
       sodipodi:start="0"
       sodipodi:ry="2.8415058"
       sodipodi:rx="2.8415058"
       sodipodi:cy="199.34715"
       sodipodi:cx="-272.5062"
       sodipodi:type="arc"
       id="path11115"
       style="opacity:1;fill:#f9f9f9;fill-opacity:1;stroke:#333333;stroke-width:1;stroke-linecap:square;stroke-linejoin:miter;stroke-miterlimit:4;stroke-dasharray:none;stroke-dashoffset:0;stroke-opacity:1;paint-order:fill markers stroke" />
    <path
       d="m -279.46959,209.16577 a 2.8415058,2.8415058 0 0 1 -2.83965,2.84151 2.8415058,2.8415058 0 0 1 -2.84336,-2.83779 2.8415058,2.8415058 0 0 1 2.83592,-2.84522 2.8415058,2.8415058 0 0 1 2.84708,2.83406"
       sodipodi:open="true"
       sodipodi:end="6.2805673"
       sodipodi:start="0"
       sodipodi:ry="2.8415058"
       sodipodi:rx="2.8415058"
       sodipodi:cy="209.16577"
       sodipodi:cx="-282.3111"
       sodipodi:type="arc"
       id="path11115-1"
       style="opacity:1;fill:#f9f9f9;fill-opacity:1;stroke:#333333;stroke-width:1;stroke-linecap:square;stroke-linejoin:miter;stroke-miterlimit:4;stroke-dasharray:none;stroke-dashoffset:0;stroke-opacity:1;paint-order:fill markers stroke" />
    <path
       d="m -243.2217,209.16577 a 2.8415058,2.8415058 0 0 1 -2.83964,2.84151 2.8415058,2.8415058 0 0 1 -2.84337,-2.83779 2.8415058,2.8415058 0 0 1 2.83593,-2.84522 2.8415058,2.8415058 0 0 1 2.84707,2.83406"
       sodipodi:open="true"
       sodipodi:end="6.2805673"
       sodipodi:start="0"
       sodipodi:ry="2.8415058"
       sodipodi:rx="2.8415058"
       sodipodi:cy="209.16577"
       sodipodi:cx="-246.0632"
       sodipodi:type="arc"
       id="path11115-1-3"
       style="opacity:1;fill:#f9f9f9;fill-opacity:1;stroke:#333333;stroke-width:1;stroke-linecap:square;stroke-linejoin:miter;stroke-miterlimit:4;stroke-dasharray:none;stroke-dashoffset:0;stroke-opacity:1;paint-order:fill markers stroke" />
    <path
       sodipodi:nodetypes="ccc"
       inkscape:connector-curvature="0"
       id="path11635"
       d="m -244.56453,207.3744 -2.29231,4.00466 c 3.09951,0.93068 3.99776,-2.9463 2.29231,-4.00466 z"
       style="fill:#e6e6e6;fill-opacity:1;fill-rule:evenodd;stroke:none;stroke-width:0.26458332px;stroke-linecap:butt;stroke-linejoin:miter;stroke-opacity:1" />
    <path
       sodipodi:nodetypes="ccccc"
       inkscape:connector-curvature="0"
       id="path11637"
       d="m -247.36061,212.25065 -8.07806,13.96061 3.73239,0.0265 4.82936,-13.84231 z"
       style="fill:#e6e6e6;fill-opacity:1;fill-rule:evenodd;stroke:none;stroke-width:0.26458332px;stroke-linecap:butt;stroke-linejoin:miter;stroke-opacity:1" />
    <path
       d="m -251.69328,199.34715 a 2.8415058,2.8415058 0 0 1 -2.83965,2.84151 2.8415058,2.8415058 0 0 1 -2.84336,-2.83779 2.8415058,2.8415058 0 0 1 2.83592,-2.84522 2.8415058,2.8415058 0 0 1 2.84708,2.83406"
       sodipodi:open="true"
       sodipodi:end="6.2805673"
       sodipodi:start="0"
       sodipodi:ry="2.8415058"
       sodipodi:rx="2.8415058"
       sodipodi:cy="199.34715"
       sodipodi:cx="-254.53479"
       sodipodi:type="arc"
       id="path11115-3"
       style="opacity:1;fill:#f9f9f9;fill-opacity:1;stroke:#333333;stroke-width:1;stroke-linecap:square;stroke-linejoin:miter;stroke-miterlimit:4;stroke-dasharray:none;stroke-dashoffset:0;stroke-opacity:1;paint-order:fill markers stroke" />
    <path
       sodipodi:nodetypes="ccc"
       inkscape:connector-curvature="0"
       id="path11635-6"
       d="m -253.04292,197.55951 -2.29231,4.00466 c 3.09951,0.93068 3.99776,-2.9463 2.29231,-4.00466 z"
       style="fill:#e6e6e6;fill-opacity:1;fill-rule:evenodd;stroke:none;stroke-width:0.26458332px;stroke-linecap:butt;stroke-linejoin:miter;stroke-opacity:1" />
    <path
       sodipodi:nodetypes="ccc"
       inkscape:connector-curvature="0"
       id="path11635-6-7"
       d="m -271.02374,197.55951 c 0.24922,2.16705 -0.76975,3.24205 -2.09387,4.05427 3.09951,0.93068 3.79932,-2.99591 2.09387,-4.05427 z"
       style="fill:#e6e6e6;fill-opacity:1;fill-rule:evenodd;stroke:none;stroke-width:0.26458332px;stroke-linecap:butt;stroke-linejoin:miter;stroke-opacity:1" />
    <path
       sodipodi:nodetypes="ccc"
       inkscape:connector-curvature="0"
       id="path11635-6-7-5"
       d="m -280.88157,207.34464 c 1.0308,2.99205 -0.47853,3.54945 -2.09387,4.05427 3.09951,0.93068 3.79932,-2.99591 2.09387,-4.05427 z"
       style="fill:#e6e6e6;fill-opacity:1;fill-rule:evenodd;stroke:none;stroke-width:0.26458332px;stroke-linecap:butt;stroke-linejoin:miter;stroke-opacity:1" />
  </g>
</svg>
