<svg clip-rule="evenodd" fill-rule="evenodd" height="50mm" image-rendering="optimizeQuality" shape-rendering="geometricPrecision" text-rendering="geometricPrecision" viewBox="0 0 50 50" width="50mm" xmlns="http://www.w3.org/2000/svg"><g transform="translate(439.52826 -189.82406)"><g fill="#f9f9f9" stroke="#333" transform="translate(1.661328 -1.259748)"><g fill-rule="evenodd" stroke-width="1.5" transform="matrix(.92207613 0 0 .92207613 -169.49641 16.041654)"><path d="m-276.96394 210.6118 1.53269 2.31683v10.64948l-4.89846 6.25647 25.83563.35812-4.79759-6.61459v-10.64948l1.92154-2.31683z"/><path d="m-273.71515 210.66764h-5.18962l-2.7016-10.41156h5.89519l2.03805 6.88303h3.74842l-.33076-6.88303h6.22025l-.32329 6.88303h3.48383l2.36086-6.75074 6.05611-.13229-2.89437 10.54462-5.67745-.13306z"/></g><path d="m-429.09469 228.22752c-1.45756 0-2.63098.89164-2.63098 1.99918.002 1.98724-.00031 4.0829 0 5.89995h31.07216c-.00011-2.17531 0-3.85269 0-5.89995 0-1.10754-1.17343-1.99918-2.63099-1.99918z" stroke-linecap="square" stroke-width="1.315365"/></g><g fill="#e6e6e6" fill-rule="evenodd"><path d="m-401.57512 200.18963-6.05072 8.18146 3.81356.0249z"/><path d="m-408.33271 209.73483-5.62434 16.47549 10.21972.0701-3.83532-5.42557.18709-10.21972.71325-.88867z"/></g></g></svg>