<svg height="92" width="92" xmlns="http://www.w3.org/2000/svg"><g><g transform="matrix(1.4064425 0 0 1.4064425 -409.68878 -612.16728)"><g><path d="m340.85 459.453v13.959l-.032.03-9.839 9.84h-13.916-.041l-9.87-9.87v-13.959l9.87-9.867h13.957z" fill="#fff"/><path d="m330.979 486.311v-2.986-.043l9.839-9.84.002.004v3.093l.02.019-9.751 9.753z" fill="#bcbab8"/><path d="m330.979 486.311v.035h-.029-13.883-.004v-.075-2.946-.043h13.916v.043z" fill="#cecac8"/><path d="m307.152 476.427v-3.015l9.87 9.87h.041v.043 2.946h-.066z" fill="#e2e1e0"/></g><g fill="none"><path d="m317.063 483.282h-.041l-9.87-9.87v-13.959l9.87-9.867h13.957l9.871 9.867v13.959l-.032.03-9.839 9.84z"/><path d="m307.152 473.412v3.015.078"/><path d="m317.063 483.325v2.946.075.068"/><path d="m330.979 483.325v2.986.035.068"/><path d="m340.82001 473.44601v3.09299"/><path d="m307.123 476.396.029.031 9.845 9.844"/><path d="m331.089 486.311 9.751-9.753.035-.037"/><path d="m317.06699 486.34601h13.88302"/></g></g><g fill="#0d00b4" stroke="#0d00b4" stroke-linejoin="round" stroke-width="1.312941" transform="matrix(.61182750135 0 0 .74469766297 60.22616656421 -7.95380484403)"><path d="m-22.715841 41.496901c-6.709808 7.383569-10.663816 12.802391-14.029253 18.972935 9.833495-1.692893 19.278926-2.323037 27.646001 0-2.69856-4.464975-7.002481-10.253202-13.616748-18.972935z"/><path d="m-26.817667 60.896469c1.31085 8.861829-3.645845 14.386908-11.545204 19.081976-5.236973 2.010186-7.708873 4.499726-7.614698 9.332185 12.369865 3.211336 31.696805 2.290793 45.67493078-.116941-.002369-3.821858-2.08387088-9.351048-7.28998228-9.958106-10.3223275-4.971535-10.9033515-10.063579-11.0201045-18.30082-3.173543-.438952-5.925438-.207767-8.204942-.03829z"/></g></g></svg>