<?xml version="1.0" encoding="UTF-8" standalone="no"?>
<svg
   xmlns:dc="http://purl.org/dc/elements/1.1/"
   xmlns:cc="http://creativecommons.org/ns#"
   xmlns:rdf="http://www.w3.org/1999/02/22-rdf-syntax-ns#"
   xmlns:svg="http://www.w3.org/2000/svg"
   xmlns="http://www.w3.org/2000/svg"
   xmlns:sodipodi="http://sodipodi.sourceforge.net/DTD/sodipodi-0.dtd"
   xmlns:inkscape="http://www.inkscape.org/namespaces/inkscape"
   width="92"
   height="92"
   id="svg2"
   version="1.1"
   inkscape:version="0.92.4 (5da689c313, 2019-01-14)"
   sodipodi:docname="blue_horse.svg">
  <metadata
     id="metadata12">
    <rdf:RDF>
      <cc:Work
         rdf:about="">
        <dc:format>image/svg+xml</dc:format>
        <dc:type
           rdf:resource="http://purl.org/dc/dcmitype/StillImage" />
        <dc:title />
      </cc:Work>
    </rdf:RDF>
  </metadata>
  <defs
     id="defs10">
    <filter
       height="1.5"
       width="1.5"
       y="0"
       x="0"
       id="f1"
       color-interpolation-filters="sRGB">
      <feOffset
         id="feOffset3039"
         dy="0"
         dx="1"
         in="SourceAlpha"
         result="offOut" />
      <feGaussianBlur
         id="feGaussianBlur3041"
         stdDeviation="1"
         in="offOut"
         result="blurOut" />
      <!--
      <feBlend in="SourceGraphic" in2="blurOut" mode="normal" />
-->
    </filter>
    <linearGradient
       y2="1"
       x2="0"
       y1="0"
       x1="0"
       id="grad1">
      <stop
         id="stop3034"
         style="stop-color:rgb(255,255,255);stop-opacity:0.6"
         offset="20%" />
      <stop
         id="stop3036"
         style="stop-color:rgb(220,0,0);stop-opacity:0.5"
         offset="50%" />
    </linearGradient>
    <linearGradient
       y2="1"
       x2="0"
       y1="0"
       x1="0"
       id="grad0">
      <stop
         id="stop3029"
         style="stop-color:rgb(0,0,0);stop-opacity:0.3"
         offset="20%" />
      <stop
         id="stop3031"
         style="stop-color:rgb(0,0,0);stop-opacity:0.6"
         offset="100%" />
    </linearGradient>
    <inkscape:path-effect
       effect="mirror_symmetry"
       start_point="274.21267,350.55066"
       end_point="273.50284,477.30227"
       center_point="273.85776,413.92646"
       id="path-effect4557-0-4"
       is_visible="true"
       mode="free"
       discard_orig_path="false"
       fuse_paths="true"
       oposite_fuse="false" />
    <filter
       style="color-interpolation-filters:sRGB;"
       inkscape:label="Drop Shadow"
       id="filter18479">
      <feFlood
         flood-opacity="1"
         flood-color="rgb(91,93,90)"
         result="flood"
         id="feFlood18469" />
      <feComposite
         in="flood"
         in2="SourceGraphic"
         operator="in"
         result="composite1"
         id="feComposite18471" />
      <feGaussianBlur
         in="composite1"
         stdDeviation="0"
         result="blur"
         id="feGaussianBlur18473" />
      <feOffset
         dx="0"
         dy="4"
         result="offset"
         id="feOffset18475" />
      <feComposite
         in="SourceGraphic"
         in2="offset"
         operator="over"
         result="composite2"
         id="feComposite18477" />
    </filter>
    <linearGradient
       y2="1"
       x2="0"
       y1="0"
       x1="0"
       id="linearGradient11421">
      <stop
         id="stop11417"
         style="stop-color:#c83737;stop-opacity:1"
         offset="20%" />
      <stop
         id="stop11419"
         style="stop-color:#de8787;stop-opacity:1"
         offset="100%" />
    </linearGradient>
    <linearGradient
       id="linearGradient5398"
       x1="0"
       y1="0"
       x2="0"
       y2="1">
      <stop
         offset="20%"
         style="stop-color:#c83737;stop-opacity:1"
         id="stop5394" />
      <stop
         offset="100%"
         style="stop-color:#cf8080;stop-opacity:1"
         id="stop5396" />
    </linearGradient>
  </defs>
  <sodipodi:namedview
     pagecolor="#ffffff"
     bordercolor="#666666"
     borderopacity="1"
     objecttolerance="10"
     gridtolerance="10"
     guidetolerance="10"
     inkscape:pageopacity="0"
     inkscape:pageshadow="2"
     inkscape:window-width="1920"
     inkscape:window-height="1017"
     id="namedview8"
     showgrid="false"
     inkscape:zoom="5.6568542"
     inkscape:cx="13.444007"
     inkscape:cy="36.140783"
     inkscape:window-x="1912"
     inkscape:window-y="-8"
     inkscape:window-maximized="1"
     inkscape:current-layer="layer1"
     fit-margin-top="0"
     fit-margin-left="0"
     fit-margin-right="0"
     fit-margin-bottom="0"
     inkscape:pagecheckerboard="false"
     showguides="false" />
  <g
     inkscape:groupmode="layer"
     id="layer1"
     inkscape:label="Background"
     style="display:inline">
    <g
       transform="matrix(1.4064574,0,0,1.4064574,-612.22334,-4.5642535)"
       id="g2170"
       style="stroke:none">
      <g
         id="XMLID_19_"
         style="stroke:none">
        <g
           id="g2144"
           style="stroke:none">
          <polygon
             style="fill:#ffffff;stroke:none"
             points="458.395,57.16 458.338,57.16 444.674,43.496 444.674,24.167 458.338,10.501 477.666,10.501 491.332,24.167 491.332,43.496 491.287,43.539 477.666,57.16 "
             id="polygon2136" />
          <polygon
             style="fill:#bcbab8;stroke:none"
             points="491.291,43.542 491.291,47.825 491.32,47.854 477.818,61.352 477.666,61.352 477.666,57.218 477.666,57.16 491.287,43.539 "
             id="polygon2138" />
          <polygon
             style="fill:#cecac8;stroke:none"
             points="458.395,61.402 458.395,61.303 458.395,57.218 458.395,57.16 477.666,57.16 477.666,57.218 477.666,61.352 477.666,61.402 477.627,61.402 458.402,61.402 "
             id="polygon2140" />
          <polygon
             style="fill:#e2e1e0;stroke:none"
             points="458.395,57.218 458.395,61.303 458.307,61.303 444.674,47.67 444.674,43.496 458.338,57.16 458.395,57.16 "
             id="polygon2142" />
        </g>
        <g
           id="g2162"
           style="stroke:none">
          <polygon
             style="fill:none;stroke:none;stroke-width:0.25"
             points="458.338,10.501 477.666,10.501 491.332,24.167 491.332,43.496 491.287,43.539 477.666,57.16 458.395,57.16 458.338,57.16 444.674,43.496 444.674,24.167 "
             id="polygon2146" />
          <polyline
             style="fill:none;stroke:none;stroke-width:0.25"
             points="444.674,43.496 444.674,47.67 444.674,47.776    "
             id="polyline2148" />
          <polyline
             style="fill:none;stroke:none;stroke-width:0.25"
             points="458.395,57.218 458.395,61.303 458.395,61.402      458.395,61.499    "
             id="polyline2150" />
          <polyline
             style="fill:none;stroke:none;stroke-width:0.25"
             points="477.666,57.218 477.666,61.352 477.666,61.402      477.666,61.499    "
             id="polyline2152" />
          <line
             style="fill:none;stroke:none;stroke-width:0.25;stroke-miterlimit:4;stroke-dasharray:none"
             x1="491.29099"
             y1="43.542"
             x2="491.29099"
             y2="47.825001"
             id="line2154" />
          <polyline
             style="fill:none;stroke:none;stroke-width:0.25;stroke-miterlimit:4;stroke-dasharray:none"
             points="444.633,47.629 444.674,47.67 458.307,61.303    "
             id="polyline2156" />
          <polyline
             style="fill:none;stroke:none;stroke-width:0.25;stroke-miterlimit:4;stroke-dasharray:none"
             points="477.818,61.352 491.32,47.854 491.367,47.805    "
             id="polyline2158" />
          <line
             style="fill:none;stroke:none;stroke-width:0.25;stroke-miterlimit:4;stroke-dasharray:none"
             x1="458.40201"
             y1="61.402"
             x2="477.62701"
             y2="61.402"
             id="line2160" />
        </g>
      </g>
    </g>
    <g
       transform="matrix(1.5343938,0,0,1.5343938,74.359347,-44.600686)"
       id="g4496"
       style="display:inline">
      <path
         style="fill:#0d00b4;fill-opacity:1;stroke:none;stroke-width:0.19975252;stroke-linecap:butt;stroke-linejoin:miter;stroke-miterlimit:4;stroke-dasharray:none;stroke-opacity:1"
         d="m -20.363965,43.589358 c -0.0276,-1.46313 -0.713126,-2.145608 -1.299776,-3.329198 -0.571744,1.388345 -1.389781,2.98152 -1.051241,4.192856 -0.64554,-0.302018 -1.29108,0.196403 -1.93662,0.50794 -4.172427,6.925057 -3.872501,6.543133 -7.74648,9.703329 -0.41274,1.0845 -0.66256,1.961621 0.0587,3.579812 0.36665,0.484202 2.0734,1.323734 3.37442,1.496479 0.37959,0.533363 0.0389,0.715844 0.0293,0.850939 0.57883,0.586855 0.84987,0.352113 1.46713,0.528169 1.64825,-1.771306 3.2607,-3.327849 4.75353,-4.166667 1.95618,-0.980405 3.91236,-0.564172 5.86854,-0.704225 1.456321,0.21705 2.389217,-0.81096 2.481038,-0.822807 -0.7034,1.107585 -1.211128,2.439303 -3.126578,3.698394 -1.18159,-0.284668 -1.84361,-0.179659 -2.4061,0 -4.23123,3.229653 -5.76905,8.997115 -5.75117,11.326292 5.708582,2.230783 11.7045,1.157214 17.7229999,-0.176057 -1.599,-1.233028 -1.55432,-2.671516 -1.9953,-4.049296 -0.3933899,-3.368319 0.386688,-3.431093 0.88028,-6.57277 0.34933,-6.266657 -0.432697,-11.619231 -5.5252069,-14.931742 -0.91599,-0.402395 -2.781791,-0.345578 -3.748111,-0.295054 0.0658,-1.508632 -0.62168,-2.655508 -0.98402,-4.021428 -0.008,-0.0078 -1.465491,2.090218 -1.163721,2.744109 -0.07401,0.08009 0.206841,0.429509 0.09838,0.440925 z"
         id="path4426"
         inkscape:connector-curvature="0"
         sodipodi:nodetypes="cccccccccccccccccccccccc" />
      <path
         style="fill:#0d00b4;fill-opacity:1;stroke:none;stroke-width:0.09243207;stroke-linecap:butt;stroke-linejoin:miter;stroke-miterlimit:4;stroke-dasharray:none;stroke-dashoffset:0;stroke-opacity:1"
         d="m -19.406506,41.091703 c 14.3383277,-1.44366 14.6623349,12.941854 12.9102306,22.786351 -0.3727255,2.094222 0.5431423,3.922119 0.4131333,5.516454 -4.3778739,-1.27574 -3.261783,-4.989674 -2.1272975,-9.89572 0.1816486,-7.188013 -0.4354701,-13.936194 -8.2870824,-15.80692 -0.538977,-0.05014 -1.697034,0.233285 -2.238074,0.223765 -1.184158,0.0502 -0.854474,-2.06219 -0.67091,-2.823934 z"
         id="path4428"
         inkscape:connector-curvature="0"
         sodipodi:nodetypes="cscccccc" />
      <ellipse
         style="opacity:0.92299996;fill:#ffffff;fill-opacity:1;stroke:#ffffff;stroke-width:0.09785748;stroke-linecap:square;stroke-linejoin:miter;stroke-miterlimit:4;stroke-dasharray:none;stroke-dashoffset:0;stroke-opacity:1;paint-order:normal"
         id="path4461"
         cx="-22.465561"
         cy="49.837406"
         rx="0.96838528"
         ry="1.0133952" />
      <path
         style="fill:#ececec;stroke:#ececec;stroke-width:1px;stroke-linecap:butt;stroke-linejoin:miter;stroke-opacity:1"
         d="m -24.006062,50.908416 c 1.03577,-0.831732 -0.63174,-2.617565 3.11033,-2.494132"
         id="path4463"
         inkscape:connector-curvature="0"
         sodipodi:nodetypes="cc" />
      <path
         style="fill:none;stroke:#ffffff;stroke-width:0.93052417;stroke-linecap:butt;stroke-linejoin:miter;stroke-miterlimit:4;stroke-dasharray:none;stroke-opacity:1"
         d="m -29.234621,60.161919 c 0.95231,-0.642849 1.758922,-1.427453 2.394037,-2.268554"
         id="path4489"
         inkscape:connector-curvature="0"
         sodipodi:nodetypes="cc" />
    </g>
  </g>
  <g
     inkscape:groupmode="layer"
     id="layer2"
     inkscape:label="Symbol"
     style="display:inline" />
</svg>
