<svg height="92" width="92" xmlns="http://www.w3.org/2000/svg"><g transform="matrix(1.407849 0 0 1.407849 -410.14448 -612.82547)"><g><g><path d="m340.85 473.412-.032.03-9.839 9.84h-13.916-.041l-9.87-9.87v-13.959l9.87-9.867h13.957l9.871 9.867z" fill="#fff"/><path d="m330.979 483.325v-.043l9.839-9.84.002.004v3.093l.02.019-9.751 9.753h-.11z" fill="#bcbab8"/><path d="m330.979 486.346h-.029-13.883-.004v-.075-2.946-.043h13.916v.043 2.986z" fill="#cecac8"/><path d="m307.152 473.412 9.87 9.87h.041v.043 2.946h-.066l-9.845-9.844z" fill="#e2e1e0"/></g><g fill="none"><path d="m317.022 483.282-9.87-9.87v-13.959l9.87-9.867h13.957l9.871 9.867v13.959l-.032.03-9.839 9.84h-13.916z"/><path d="m307.152 473.412v3.015.078"/><path d="m317.063 483.325v2.946.075.068"/><path d="m330.979 483.325v2.986.035.068"/><path d="m340.82001 473.44601v3.09299"/><path d="m307.123 476.396.029.031 9.845 9.844"/><path d="m331.089 486.311 9.751-9.753.035-.037"/><path d="m317.06699 486.34601h13.88302"/></g></g><g><path d="m336.809 473.63c.016.061-.005.086-.021.102.007-.034.011-.065.021-.102z"/><path d="m336.627 473.688c.014.022.104.068.154.041-.372 1.23-2.755 1.234-4.089 1.153-1.615-.095-3.816.004-4.828-.658-.091.058-.127.154-.123.302-.104-.149-.095-.041-.235-.117-.268.412-.06 2.989-.177 3.935-.055.399-.229.658 0 .948-.051-.032-.104-.055-.182-.055.218.733-1.148 1.241-1.906 1.069-.318-.065-.699-.436-.835-.595-.576-.653-.839-1.837-.896-2.922-.045-.821.164-1.901-.299-2.323-.681.127-1.339.131-2.029.172-1.896.138-3.771.898-5.722.663-1.583-.188-2.627-1.842-3.281-3.158-.604-1.231-.529-2.866 1.438-2.505-.318.082.095.172-.241.179 1.511.396 3.249 1.646 5.786 1.729.259-.041-.05.118.118.123.172-.195.188-.045.595 0-.173-.101-.068-.154.118-.187-.041.116-.177.045-.063.187.129.026.114-.086.123-.187.939.116 2.562.157 3.521-.174-.021-.209-.213-.227-.241-.422-.131-2.01-2.523-1.771-3.04-3.394-.64.024-.908.564-1.312.894-.646.521-1.375.77-2.146 1.008-.146.057-.291.19-.477.188-.729-.023-1.076-.84-.896-1.313.077-.198.536-.615.835-.835.985-.732 2.491-1.521 3.041-2.623.408-.824.245-1.873-.477-2.387-.572-.402-1.407-.322-1.854-.658-.479-.361-.815-1.094-1.135-1.666-.413-.758-.885-1.343-.953-2.326.386-.485.876-.872 1.854-.775-.146.086-.146.091-.184.182.72.352 1.896 1.131 2.979 1.248.104.016.213-.111.3-.118.045 0 .141.118.181.118.229.02.404-.164.654-.177.953-.06 2.056.254 3.158-.236-.663-.227-.585-1.039-1.071-1.729-.463-.658-1.343-1.104-.953-1.97.313-.704 1.521-1.125 2.741-1.019-.149.109-.041.104-.118.241.875.194 2.115.902 2.864 1.61.112.499.208 1.457.117 2.206-.057.406-.296.958.354.951-.063-.075.077-.11.063-.177.549-.148 1.068-.322 1.604-.477.463-.434.817-.974 1.788-.896-.182.063.063.304.063.291.382.417 1.181.74 1.482 1.438.141.299.068.667.24 1.134-.229.309-.045.844.063.595-.25 1.82-3.354 1.774-4.771.953-.146.227-.327.041-.479.24-.021.726.741.749 1.189.953 1.063.477 2.093 1.302 1.851 3.155-.21.032-.087.291-.237.236.295 1.194 2.367 1.089 2.146 2.986.02.054.135.204.174.157-.073.546-.897.81-1.427.854-1.563.136-2.448-1.32-3.335-1.91-.259.022-.418.143-.418.422-.077-.182-.149-.209-.299-.059-.312.926-.418 3.267 1.012 3.335.25.018.082-.236.188-.236 1.639-.281 3.313.072 4.771-.304.667-.172 1.039-.663 1.965-.531.045.258-.114-.05-.114.118.909.569 1.454 1.491 1.313 3.105zm-9.181-8.286c.521-1.406-.102-3.153-1.075-3.875-1.498-1.104-4.424-.393-5.482.234.15 1.146 1.271.908 1.547 1.971.159.6-.152 1.085-.177 1.67-.018.521.831 1.021 1.193 1.37.35.346.712.992 1.188 1.069.236.041.892-.286 1.141-.477.454-.342 1.471-1.439 1.665-1.962z" fill="#006838"/><path d="m332.992 468.814c.004.041 0 .063-.005.082.005-.026.005-.053.005-.082z"/></g></g></svg>