<svg height="92" width="92" xmlns="http://www.w3.org/2000/svg"><g transform="matrix(1.4064848 0 0 1.4064848 -814.7694 -915.96669)"><g><g><path d="m635.329 672.167v19.328l-.044.043-13.62 13.621h-19.273-.056l-13.661-13.664v-19.328l13.661-13.666h19.329z" fill="#fff"/><path d="m621.665 709.354v-4.136-.059l13.62-13.621.003.004v4.283l.029.029-13.498 13.5z" fill="#bcbab8"/><path d="m621.665 709.354v.047h-.038-19.227-.008v-.099-4.084-.059h19.273v.059z" fill="#cecac8"/><path d="m588.675 695.669v-4.174l13.661 13.664h.056v.059 4.084h-.085z" fill="#e2e1e0"/></g><g fill="none"><path d="m602.392 705.159h-.056l-13.661-13.664v-19.328l13.661-13.666h19.329l13.664 13.666v19.328l-.044.043-13.62 13.621z"/><path d="m588.675 691.495v4.174.105"/><path d="m602.392 705.218v4.084.099.098"/><path d="m621.665 705.218v4.136.047.098"/><path d="m635.28802 691.54199v4.28302"/><path d="m588.634 695.628.041.041 13.632 13.633"/><path d="m621.819 709.354 13.498-13.5.05-.05"/><path d="m602.40002 709.401h19.22699"/></g></g><g><path d="m612.797 677.05c.063-.014.182-.172.164-.178 1.281.422 3.272 1.34 5.083 2.723.579.445 1.155.996 1.723 1.543 1.303 1.25 2.261 2.135 2.187 4.357.021.063.172.182.236.162-.428 1.732-3.313 1.65-5.772 1.65-.599 0-1.156-.213-1.638-.092-.451.119-.466.691-.729.363-.833.869.05 2.348 1.182 2.359.152-.313 1.001-.439 1.816-.361-.067.084-.168.135-.271.182 1.107.289 2.448.473 4.174.906 1.44.365 4.25 1.277 5.354 2.361.721.695.981 1.866.544 3.268.094.107.158-.192.365.09-.451 2.031-3.77 2.091-6.27 2.271-1.936.139-5.576-.047-5.266-1.814.258-1.434 3.442-1.03 4.271-2.088-.789-1.729-4.07-2.02-5.723-1.361-.212 1.422.035 3.48-.271 4.539.129.008.257.016.271-.092-.215 2.297-3.744 2.189-6.263 1.545-1.022-.264-1.819-.787-2.724-1.09-2.633-.885-6.09-.945-7.533-2.904-.938-1.266-.188-2.557.813-3.354 2.474-1.967 7.265-2.916 11.527-3.086-.105-.681-.461-1.113-.814-1.545-1.728-.063-3.98.676-5.813.908-2.157.275-4.292-2.414-4.535-3.992-.234-1.527.369-1.727 1.087-2.449.896-.902 2.44-2.854 2.997-3.996.133-.271-.035-.508.271-.727.174-.121 1.812-2.506.355-2.904-1.384-.383-3.899 1.482-5.172.361-.402-.357-.83-.943-1.354-1.541-.395-.434-1.039-1.199-1.001-1.814.112-1.785 3.097-1.338 5.081-1.271-.018.104-.163.074-.271.088.01.176.3.064.271.271.424-.102.608.133.454-.271 1.8.258 3.342.248 5.72.271.419-.229.229-.631.357-1.09.188-.631.74-1.311.729-1.904-.026-1.193-2.063-2.137-1.091-3.541.841-1.215 3.204-1.725 5.176-1.449-.04.178-.263-.148-.185.271.273.336.729.25 1.088.455.971.547 1.464 1.713 1.636 2.357-.134.313-.216.389-.188 1.18 1.556 1.051 3.753 1.936 5.537 2.449 2.006 1.096 5.543 1.389 5.536 5.176.229.043.218.279.257.217-.563 1.273-2.678 1.646-4.702 1.506-3.115-.209-6.892-1.463-10.072-1.723-1.243-.104-1.905-.109-2.538.725-1.484 1.963-2.4 5.104-4.084 6.715-.229.109-.521.152-.64.367-.077.832.265 1.248 1.089 1.18 1.132-.598 3.276-.17 4.723-.455.034-.43-.22-.568-.362-.816.313-1.488-.461-3.072-.089-4.627.65-.801 1.867-.988 3.27-.818.018.248-.521-.053-.545.158-.033-.018-.044-.012-.004.023 0-.012 0-.018.004-.023.13.053.572.34.572.379zm1.979 5.994c.986-.119 2.011.291 2.448-.271-.95-.717-1.841-1.488-2.724-2.271-.504.242-.527.629-.909.455-.873 1.311.619 3.008 1.452 2.271-.103-.049-.201-.102-.267-.184zm-1.182-12.434c.915-.152 2.44.229 2.635-.455-.581-.841-1.354-1.488-1.997-2.271-.921.355-1.264 1.756-2.269 1.727-.243 1.56.837 1.132 1.631.999zm-2.903 24.869c0-1.179-.321-2.03-1.092-2.45-1.282.119-3.927.113-4.266.543-.007-.057-.014-.104-.092-.088-.04.432-.04.381 0 .814 1.104 1.008 2.842 1.395 4.538 1.814.03-.311.273-.15 0-.365.471.078.718-.07.912-.268z" fill="#006838"/><path d="m622.217 685.495c.026.104.01.148-.029.162.009-.053.022-.107.029-.162z"/></g></g></svg>