<svg height="92" width="92" xmlns="http://www.w3.org/2000/svg"><g transform="matrix(1.4065116 0 0 1.4065116 -713.51565 -713.44666)"><g><g><path d="m563.328 528.166v19.328l-.043.044-13.621 13.621h-19.273-.055l-13.662-13.665v-19.328l13.662-13.665h19.328z" fill="#fff"/><path d="m549.664 565.352v-4.135-.058l13.621-13.621.002.003v4.283l.029.03-13.498 13.498z" fill="#bcbab8"/><path d="m549.664 565.352v.048h-.037-19.227-.009v-.098-4.085-.058h19.273v.058z" fill="#cecac8"/><path d="m516.674 551.669v-4.175l13.662 13.665h.055v.058 4.085h-.084z" fill="#e2e1e0"/></g><g fill="none"><path d="m530.391 561.159h-.055l-13.662-13.665v-19.328l13.662-13.665h19.328l13.664 13.665v19.328l-.043.044-13.621 13.621z"/><path d="m516.674 547.494v4.175.104"/><path d="m530.391 561.217v4.085.098.098"/><path d="m549.664 561.217v4.135.048.098"/><path d="m563.28699 547.54102v4.28295"/><path d="m516.633 551.628.041.041 13.633 13.633"/><path d="m549.818 565.352 13.498-13.498.051-.05"/><path d="m530.40002 565.40002h19.22699"/></g></g><g><path d="m536.594 551.442c.023-.035.063-.063.113-.071-.031.028-.072.052-.113.071z"/><path d="m532.311 538.926c-.129.157-.313-.362-.451-.465-1.738.337-2.389 1.764-3.664 2.563-.135.552-.021 1.025.273 1.374.213-.029.354.016.459.09 1.082-1.172 2.605-2.384 3.383-3.562zm4.673 12.72c2.939-.443 9.385 1.196 10.988-1.739.262-3.994-2.021-5.943-4.672-7.784-1.461-1.014-3.723-2.736-5.035-2.748-2.047-.018-3.613 2.741-5.129 3.57.078.413.318.654.73.73.289-.013.271-.337.547-.363.945.022 1.975-.188 2.656 0 .15.041-.041.175.092.184.746.049 1.781-.097 3.021 0 1.711 1.08 5.846 1.182 5.219 5.037.123.225.275-.165.365.091-1.602 3.587-7.389.817-11.08.732-1.402-.033-3.465.885-3.297-1.009.463-.817 2.055-.998 3.297-.731-.105.016-.26-.018-.273.093.689.128.787.147.824-.093.594.016 1.188.021 1.281-.457-.131-1.188-2.354-1.105-3.756-1.466-.43-.109-.729-.407-1.008-.365-.834.126-.865 1.133-1.373 1.557.188-.188-.037-.183-.188-.272-.189.685-.854 1.284-.549 2.473.363 1.417 3.197 2.01 4.482 2.105-.055.239.396.188.822.183.619-.006 1.209.265 1.623.071-.023.032-.047.071-.063.11.295.081.188-.237.363-.274.006.128-.041.203-.094.274.213-.099.739-.351 1.01-.094-.275.041-.769-.12-.803.185zm11.631-26.097c-.199.165-.42.16-.643.091.354.32.666.208.729.092.221-.267.166.133.276.186.319.148.813-.029 1.28.091.018.004.1.242.188.274.814.309 1.869.008 2.381.55 2.301.22 5.422 1.51 6.131 3.662.268.787-.006 1.641.369 2.563-1.438 3.141-6.271 2.443-10.531 2.106-2.104-.167-4.096-.375-5.311-.824-1.089.226-1.23 1.398-2.291 1.646-.148.942.531 1.058.916 1.467 4.861 1.641 11.609 5.191 12.09 10.714.131 1.536-.34 2.754-.369 4.028.125-.089.119-.312.275-.365-1.09 4.688-8.146 4.345-14.01 4.028-4.668-.249-10.529-.688-13.37-2.564-2.28-1.508-2.468-5.114-.55-7.6.396-.275.316-.354.729-.824-.936-1.525-2.063-3.574-.729-5.584 1.693-2.564 5.979-4.232 9.979-3.848-.645-1.193-3.164.232-4.396-.643-.85-.602-.854-2.135.555-2.381 1.092-.19 2.303.222 3.385.093 1.778-.211 2.836-1.389 5.129-1.188.063.287-.01.373.092.458.398-.326 1.23.936 1.93 1.188 1.922-1.161 5.506-.661 7.143-2.104-.205-.348-.533-.564-.822-.825-3.311-.57-6.813-1.051-9.979-1.189-1.023-.046-2.512.066-3.482.366-1.104.343-2.32 1.335-3.568 1.923-2.133 1-4.383 2.035-6.771 2.656-.535.139-1.013.423-1.646.09-1.381-1.376.648-2.298 1.646-2.929 3.123-1.979 6.901-5.313 9.063-8.061-.146-.362.289-.684.271-1.188-.021-.792-.869-1.479-.641-2.291.215-.769 1.268-1.044 2.563-.824-.061.095-.209.097-.184.276 2.195.89 3.895 1.89 5.313 3.662v1.009c.027.044.308.168.277-.073.174 1.037-1.338 1.278-1.561 1.72-.041.348.188.417.357.548.48-.068.59-.222.732-.455 2.363.021 5.712-.115 6.229.455-.094-.353.289-.139.826-.182z" fill="#006838"/></g></g></svg>