<svg height="450" viewBox="0 0 450 450.00001" width="450" xmlns="http://www.w3.org/2000/svg" xmlns:xlink="http://www.w3.org/1999/xlink"><linearGradient id="a"><stop offset="0"/><stop offset="1" stop-color="#4c4c4c"/></linearGradient><linearGradient id="b" gradientTransform="matrix(3.0016229 0 0 2.9997808 -400.94892 -1409.0708)" gradientUnits="userSpaceOnUse" x1="205" x2="275" xlink:href="#a" y1="743.27069" y2="743.27069"/><linearGradient id="c" gradientTransform="matrix(.82653393 0 0 .82602669 29.977892 407.76525)" gradientUnits="userSpaceOnUse" x1="205" x2="275" xlink:href="#a" y1="743.27069" y2="743.27069"/><linearGradient id="d" gradientTransform="matrix(0 -1.5225624 1.521628 0 -618.99427 1165.5608)" gradientUnits="userSpaceOnUse" x1="205" x2="275" xlink:href="#a" y1="743.27069" y2="743.27069"/><g stroke="#e5e5e5" transform="translate(25 -627.36218)"><path d="m199.99707 682.92144c-46.45372 0-88.50853 18.8206-118.951045 49.24447-30.44252 30.42383-49.268819 72.4528-49.268819 118.87804.000871.43962.02401.87866.03002 1.31828-.003.43956-.02702.87864-.03002 1.31826 0 46.42517 18.826299 88.46005 49.268819 118.88389 30.442515 30.42382 72.497325 49.23852 118.951045 49.23852 46.45371 0 88.50852-18.8147 118.95104-49.23852 30.44249-30.42384 49.27467-72.45872 49.27467-118.88389-.00018-.44049-.027-.87813-.03-1.31826.003-.44016.03-.87782.03-1.31828 0-46.42521-18.83218-88.45421-49.27467-118.87804-30.44252-30.42387-72.49733-49.24447-118.95104-49.24447z" fill="url(#b)" stroke-linecap="round" stroke-width="15"/><g stroke-width="20"><path d="m199.99999 822.55423v59.61587" fill="url(#c)" stop-color="#fff"/><path d="m145.09064 852.36217h109.8187" fill="url(#d)" stop-color="#fff"/></g></g></svg>