<svg height="450" viewBox="0 0 450 450.00001" width="450" xmlns="http://www.w3.org/2000/svg" xmlns:xlink="http://www.w3.org/1999/xlink"><linearGradient id="a"><stop offset="0"/><stop offset="1" stop-color="#4c4c4c"/></linearGradient><linearGradient id="b" gradientTransform="matrix(3.0016229 0 0 2.9997808 -400.94892 -1409.0708)" gradientUnits="userSpaceOnUse" x1="205" x2="275" xlink:href="#a" y1="743.27069" y2="743.27069"/><linearGradient id="c" gradientTransform="matrix(.4542594 0 0 .45476164 109.05363 341.99974)" gradientUnits="userSpaceOnUse" x1="205" x2="275" xlink:href="#a" y1="743.27069" y2="743.27069"/><linearGradient id="d" gradientTransform="matrix(.36750357 .26700698 -.26730219 .3679099 423.83546 393.92573)" gradientUnits="userSpaceOnUse" x1="205" x2="275" xlink:href="#a" y1="743.27069" y2="743.27069"/><linearGradient id="e" gradientTransform="matrix(.14037387 .43202636 -.43250402 .14052908 653.11974 613.8818)" gradientUnits="userSpaceOnUse" x1="205" x2="275" xlink:href="#a" y1="743.27069" y2="743.27069"/><linearGradient id="f" gradientTransform="matrix(-.14037387 .43202636 -.43250402 -.14052908 709.32769 926.59995)" gradientUnits="userSpaceOnUse" x1="205" x2="275" xlink:href="#a" y1="743.27069" y2="743.27069"/><linearGradient id="g" gradientTransform="matrix(-.36750357 .26700698 -.26730219 -.3679099 570.98976 1212.6325)" gradientUnits="userSpaceOnUse" x1="205" x2="275" xlink:href="#a" y1="743.27069" y2="743.27069"/><linearGradient id="h" gradientTransform="matrix(-.4542594 0 0 -.45476164 290.94636 1362.7246)" gradientUnits="userSpaceOnUse" x1="205" x2="275" xlink:href="#a" y1="743.27069" y2="743.27069"/><linearGradient id="i" gradientTransform="matrix(-.36750357 -.26700698 .26730219 -.3679099 -23.835469 1319.5464)" gradientUnits="userSpaceOnUse" x1="205" x2="275" xlink:href="#a" y1="743.27069" y2="743.27069"/><linearGradient id="j" gradientTransform="matrix(-.14037387 -.43202636 .43250402 -.14052908 -253.11977 1099.5903)" gradientUnits="userSpaceOnUse" x1="205" x2="275" xlink:href="#a" y1="743.27069" y2="743.27069"/><linearGradient id="k" gradientTransform="matrix(.14037387 -.43202636 .43250402 .14052908 -309.32771 786.87207)" gradientUnits="userSpaceOnUse" x1="205" x2="275" xlink:href="#a" y1="743.27069" y2="743.27069"/><linearGradient id="l" gradientTransform="matrix(.36750357 -.26700698 .26730219 .3679099 -170.98978 500.83959)" gradientUnits="userSpaceOnUse" x1="205" x2="275" xlink:href="#a" y1="743.27069" y2="743.27069"/><linearGradient id="m" gradientTransform="matrix(.4542594 0 0 .45476164 109.05363 509.5328)" gradientUnits="userSpaceOnUse" x1="205" x2="275" xlink:href="#a" y1="743.27069" y2="743.27069"/><g stroke="#e5e5e5" stroke-linecap="round" stroke-width="15" transform="translate(25 -627.36218)"><path d="m199.99707 682.92144c-46.45372 0-88.50853 18.8206-118.951045 49.24447-30.44252 30.42383-49.268819 72.4528-49.268819 118.87804.000871.43962.02401.87866.03002 1.31828-.003.43956-.02702.87864-.03002 1.31826 0 46.42517 18.826299 88.46005 49.268819 118.88389 30.442515 30.42382 72.497325 49.23852 118.951045 49.23852 46.45371 0 88.50852-18.8147 118.95104-49.23852 30.44249-30.42384 49.27467-72.45872 49.27467-118.88389-.00018-.44049-.027-.87813-.03-1.31826.003-.44016.03-.87782.03-1.31828 0-46.42521-18.83218-88.45421-49.27467-118.87804-30.44252-30.42387-72.49733-49.24447-118.95104-49.24447z" fill="url(#b)"/><path d="m199.99954 659.14219c-7.03021 0-13.39468 2.85317-18.0018 7.46538-4.60711 4.6122-7.45623 10.98372-7.45623 18.0217.00013.0666.004.13321.005.19985-.00047.0666-.004.1332-.005.19985 0 7.03797 2.84913 13.41039 7.45623 18.02259 4.60712 4.6122 10.97159 7.46448 18.0018 7.46448 7.03022 0 13.3947-2.85228 18.00182-7.46448 4.6071-4.6122 7.45712-10.98462 7.45712-18.02259-.00002-.0668-.004-.13312-.005-.19985.00046-.0667.005-.13307.005-.19985 0-7.03798-2.85002-13.4095-7.45712-18.0217-4.60712-4.61221-10.9716-7.46538-18.00182-7.46538z" fill="url(#c)"/><path d="m199.99954 826.67524c-7.03021 0-13.39468 2.85317-18.0018 7.46538-4.60711 4.6122-7.45623 10.98372-7.45623 18.0217.00013.0666.004.13321.005.19985-.00047.0666-.004.1332-.005.19985 0 7.03797 2.84913 13.41039 7.45623 18.02259 4.60712 4.6122 10.97159 7.46448 18.0018 7.46448 7.03022 0 13.3947-2.85228 18.00182-7.46448 4.6071-4.6122 7.45712-10.98462 7.45712-18.02259-.00002-.0668-.004-.13312-.005-.19985.00046-.0667.005-.13307.005-.19985 0-7.03797-2.85002-13.4095-7.45712-18.0217-4.60712-4.61221-10.9716-7.46538-18.00182-7.46538z" fill="url(#m)"/><path d="m311.00059 703.95603c-5.68755-4.13226-12.51357-5.56494-18.95179-4.54157-6.43822 1.02335-12.48831 4.50334-16.62513 10.19719-.039.054-.0751.11012-.11342.16462-.0395.0536-.0815.10541-.1215.15874-4.13683 5.69384-5.57744 12.52391-4.56119 18.96325s4.48868 12.48783 10.17624 16.62009c5.68756 4.13225 12.51307 5.56566 18.95128 4.5423 6.43822-1.02336 12.48953-4.50356 16.62635-10.19739.0392-.0541.075-.11005.11343-.16462.0396-.0537.0823-.10472.12151-.15875 4.13682-5.69384 5.57619-12.52371 4.55996-18.96304-1.01625-6.43935-4.48818-12.48857-10.17574-16.62082z" fill="url(#d)"/><path d="m379.60318 798.37892c-2.17245-6.68613-6.85271-11.85743-12.66286-14.8138-5.81014-2.95637-12.75024-3.69715-19.44376-1.52229-.0633.0207-.12545.045-.18852.0665-.0635.0201-.12792.0374-.19162.057-6.6935 2.17485-11.87361 6.85372-14.83639 12.66059s-3.70873 12.74126-1.53627 19.42738c2.17245 6.68613 6.85187 11.85772 12.66199 14.81409 5.81014 2.95637 12.75137 3.69771 19.44488 1.52286.0635-.0207.12537-.0449.18854-.0665.0636-.0202.1281-.0364.19161-.057 6.69352-2.17485 11.87249-6.85429 14.83528-12.66115 2.96279-5.80687 3.70959-12.74154 1.53713-19.42767z" fill="url(#e)"/><path d="m379.60347 915.09225c2.17246-6.68612 1.42567-13.62078-1.53713-19.42766-2.96279-5.80687-8.14204-10.48546-14.83555-12.66031-.0634-.0205-.12793-.0374-.19162-.057-.0632-.021-.12545-.045-.18852-.0665-6.69351-2.17485-13.63447-1.43435-19.44461 1.52202-5.81013 2.95638-10.48955 8.12795-12.662 14.81408s-1.42651 13.62052 1.53628 19.42739c2.96279 5.80686 8.14261 10.48658 14.83612 12.66143.0635.0206.12784.0373.19162.057.0633.021.125.0459.18851.0665 6.69352 2.17486 13.6339 1.43324 19.44403-1.52313 5.81016-2.95637 10.49041-8.12768 12.66287-14.81381z" fill="url(#f)"/><path d="m311.0013 1009.5155c5.68756-4.1322 9.15949-10.18145 10.17573-16.62085 1.01624-6.4393-.42384-13.2687-4.56067-18.9625-.0393-.054-.0815-.1054-.1215-.1588-.0388-.054-.0751-.1101-.11343-.1646-4.13682-5.6938-10.18743-9.1745-16.62563-10.1979-6.43822-1.0233-13.26373.4101-18.95128 4.5423-5.68756 4.1323-9.16002 10.1808-10.17626 16.6201-1.01623 6.4393.42366 13.2699 4.56048 18.96385.0393.054.0815.1053.1215.1587.0388.054.0742.1106.11343.1646 4.13683 5.6939 10.18763 9.1733 16.62583 10.1967 6.43822 1.0234 13.26426-.4093 18.9518-4.5416z" fill="url(#g)"/><path d="m200.00043 1045.5822c7.03022 0 13.39469-2.8532 18.00181-7.4654 4.60711-4.6123 7.45624-10.9837 7.45624-18.0218-.00014-.067-.004-.1332-.005-.1998.00046-.067.004-.1332.005-.1999 0-7.038-2.84913-13.4104-7.45624-18.0226-4.60712-4.61215-10.97159-7.46445-18.00181-7.46445-7.0302 0-13.3947 2.8523-18.00181 7.46445-4.6071 4.6122-7.45712 10.9846-7.45712 18.0226.00002.067.004.1331.005.1999-.00046.067-.005.133-.005.1998 0 7.0381 2.85002 13.4095 7.45712 18.0218 4.60711 4.6122 10.9716 7.4654 18.00181 7.4654z" fill="url(#h)"/><path d="m88.999391 1009.516c5.68756 4.1322 12.513579 5.565 18.951799 4.5415 6.43822-1.0233 12.4883-4.5033 16.62512-10.1972.039-.054.0751-.1101.11342-.1646.0395-.054.0815-.1054.12152-.1587 4.13681-5.69385 5.57743-12.52385 4.56118-18.96325-1.01624-6.4393-4.48869-12.4878-10.17625-16.6201-5.68756-4.1322-12.51306-5.5656-18.95128-4.5423-6.438204 1.0234-12.489533 4.5036-16.626348 10.1974-.03925.054-.07501.1101-.113424.1646-.03958.054-.08226.1048-.121514.1588-4.136821 5.6938-5.576192 12.5237-4.559953 18.963 1.016242 6.4394 4.488171 12.48855 10.17573 16.62085z" fill="url(#i)"/><path d="m20.396788 915.0931c2.172454 6.68612 6.852712 11.85743 12.66286 14.8138 5.810138 2.95637 12.750243 3.69715 19.44376 1.52229.0633-.0207.125454-.045.188524-.0665.06348-.0201.127916-.0374.191613-.057 6.693508-2.17486 11.87361-6.85373 14.836397-12.6606 2.962788-5.80687 3.708735-12.74125 1.53628-19.42738-2.172454-6.68612-6.851869-11.85771-12.662007-14.81408-5.810135-2.95637-12.751371-3.69771-19.444879-1.52286-.06352.0207-.125368.0449-.188523.0665-.06358.0202-.128102.0364-.191614.057-6.693517 2.17486-11.872488 6.8543-14.835278 12.66116-2.962797 5.80687-3.709588 12.74154-1.537133 19.42767z" fill="url(#j)"/><path d="m20.396515 798.37977c-2.172454 6.68613-1.425661 13.62079 1.537136 19.42766 2.962788 5.80687 8.142034 10.48546 14.835551 12.66032.06338.0204.127926.0374.191613.057.0632.021.125445.045.188524.0665 6.693507 2.17485 13.634468 1.43436 19.444606-1.52202 5.810139-2.95637 10.48955-8.12795 12.662005-14.81408 2.172454-6.68612 1.42651-13.62052-1.536277-19.42739-2.962791-5.80686-8.142618-10.48657-14.836125-12.66143-.06354-.0206-.127841-.0373-.191614-.057-.06329-.0211-.125012-.0459-.188523-.0665-6.693517-2.17485-13.633897-1.43323-19.444032 1.52313-5.810148 2.95637-10.49041 8.12768-12.662864 14.81381z" fill="url(#k)"/><path d="m88.998666 703.95655c-5.687559 4.13225-9.15948 10.18146-10.175722 16.62081-1.016247 6.43934.423844 13.26869 4.560665 18.96253.03925.0538.08154.10542.121514.15874.03877.0541.07506.11012.113424.16462 4.136815 5.69384 10.187424 9.17456 16.625633 10.19792 6.43822 1.02336 13.26372-.41005 18.95128-4.5423 5.68756-4.13226 9.16001-10.18075 10.17626-16.62009 1.01624-6.43934-.42366-13.26993-4.56048-18.96377-.0393-.054-.0815-.10534-.12151-.15874-.0388-.0542-.0742-.1106-.11343-.16462-4.13682-5.69385-10.18762-9.17332-16.62582-10.19668-6.43822-1.02336-13.264254.40933-18.951814 4.54158z" fill="url(#l)"/></g></svg>