<svg height="450" viewBox="0 0 450 450.00001" width="450" xmlns="http://www.w3.org/2000/svg" xmlns:xlink="http://www.w3.org/1999/xlink"><linearGradient id="a" gradientUnits="userSpaceOnUse" x1="204.791995" x2="274.791995" y1="841.766785" y2="841.766785"><stop offset="0" stop-color="#fff"/><stop offset="1" stop-color="#b3b3b3"/></linearGradient><path d="m199.99902 795.8778c-15.4762 0-29.48689 6.27399-39.62891 16.41602-10.14202 10.14202-16.41406 24.1527-16.41406 39.62891.00029.14655.008.29291.01.43946-.001.14653-.009.2929-.01.43945 0 15.47619 6.27204 29.48884 16.41406 39.63086s24.15271 16.41405 39.62891 16.41405 29.48689-6.27203 39.62891-16.41405c10.14201-10.14202 16.41601-24.15467 16.41601-39.63086-.00006-.14684-.009-.29273-.01-.43945.001-.14673.01-.29263.01-.43946 0-15.4762-6.274-29.48689-16.41601-39.62891-10.14202-10.14203-24.15271-16.41602-39.62891-16.41602z" fill="url(#a)" stroke="#1a1a1a" stroke-linecap="round" stroke-width="15" transform="translate(25 -627.36218)"/></svg>