<svg height="92" width="92" xmlns="http://www.w3.org/2000/svg"><g transform="matrix(1.4064842 0 0 1.4064842 -713.50483 -915.96489)"><g><g><path d="m563.333 691.494-.047.043-13.62 13.621h-19.27-.056l-13.664-13.664v-19.328l13.664-13.666h19.326l13.667 13.666z" fill="#fff"/><path d="m549.666 705.217v-.059l13.62-13.621.006.006v4.281l.026.026-13.501 13.502h-.151z" fill="#bcbab8"/><path d="m549.666 709.4h-.038-19.224-.008v-.099-4.084-.059h19.27v.059 4.135z" fill="#cecac8"/><path d="m516.676 695.672v-.002-4.176l13.664 13.664h.056v.059 4.084h-.088z" fill="#e2e1e0"/></g><g fill="none"><path d="m530.34 705.158-13.664-13.664v-19.328l13.664-13.666h19.326l13.667 13.666v19.328l-.047.043-13.62 13.621h-19.27z"/><path d="m516.67603 695.672v.10101"/><path d="m516.67603 691.49402v4.17596"/><path d="m530.396 705.217v4.084.099.1"/><path d="m549.666 705.217v4.135.048.1"/><path d="m563.29199 691.54303v4.28094"/><path d="m516.632 695.629.044.041v.002l13.632 13.629"/><path d="m549.817 709.352 13.501-13.502.05-.047"/><path d="m530.40399 709.40002h19.224"/></g></g><g><path d="m533.09 673.061c-3.591.209-5.646-.803-7.286-2.723-.401-.479-.76-1.189-.694-1.93.476-.545 1.01-1.037 2.188-.877-.053.088-.198.094-.173.258.815.133 1.55.785 2.458.531.017-.35-.134.025-.264-.176 4.646-.172 9.18-.059 13.604-.266 3.977-.184 7.333-.834 11.238-.879-.155.475.729.248.262.529 2.021.424 3.779 2.512 3.954 5.354-.042.359.219-.066.354.176-1.514 2.854-6.384.918-9.048 1.668-.429.121-.665.572-1.057.354-.354 1.014.411 2.172.439 3.072.01.322-.193.416-.181.699.03.498.255.648.181.969-.427.391-.657.021-.877.611.32.975 2.095 1.42 3.066 2.373.229.218.396.596.614.875 1.084 1.369 2.03 3.535 2.104 6.324-.198.447-.358 1.394-.269 1.844-.342.178-.507 1.025-.262 1.404-.349.065-.071.258-.265.703-1.124 2.578-3.99 4.629-7.813 5.004-2.953.287-5.843-.746-7.813-1.93-1.152.197-2.327.4-4.04.521-2.33.17-5.33.207-5.183-1.754.896-1.504 3.824-.975 5.974-1.229-1.171-.568-2.182-2.084-2.367-3.6-.493-3.887 3.16-6.188 6.845-6.23.245.08.367.273.438.521 2.686.254 5.271 3.777 4.216 7.375.054.039.178.115.234.08-.145.672-.807 1.682-1.469 1.676-.055.553.064.936.614.879.026-.1.466-.285.087-.266 2.022-.461 3.534-1.439 4.563-2.896.293-1.316.932-2.73.701-4.477-.244-1.903-1.73-2.75-3.071-3.514-.899.272-1.83.949-3.071.879-1.011-.061-3.1-.99-3.249-1.934-.153-.979.589-1.701 1.318-2.104 1.229-.688 2.979-.189 3.688-1.145-.063-.314-.313-.441-.267-.877-2.541.4-6.017.875-8.688 1.314-2.075.342-4.673-1.205-5.005-3.424-.195-1.299.54-1.779 1.667-2.021.224.162.253.531.702.613.297.055-.063-.117.438 0 .559.133.463.162.968-.174h.352c.038.246-.479-.07-.438.174.098.172.394.186.438.178.117-.014.054-.154.063-.229h.003c.071.02.421-.027.47-.037h.002c.001 0 .002 0 .003-.002h.001c.835-.096 2.103.094 3.327.002 2.236-.16 4.938-.906 7.458-1.227 1.643-.215 3.424-.18 4.216-1.23-.188-.369-.351-.764-.61-1.053-4.763-1.063-10.633.947-15.788 1.244zm5.97 19.138c.529-1.385-.078-3.75-1.489-3.865-1.154-.086-1.12 1.199-1.938 1.143-.833 1.854.644 3.857 1.938 4.125.368-.436 1.2-.657 1.489-1.403z" fill="#0d00b4"/><path d="m534.029 675.379c-.021-.006-.021-.018.024-.037-.021.006-.021.021-.022.037-.002 0-.002 0-.002 0z"/><path d="m543.713 692.555c.021.098.005.145-.021.162.007-.059.016-.113.021-.162z"/></g></g></svg>