<svg height="92" width="92" xmlns="http://www.w3.org/2000/svg"><g transform="matrix(1.4065123 0 0 1.4065123 -814.78676 -4.566228)"><g><g><path d="m621.664 57.159h-19.27-.056l-13.664-13.664v-19.329l13.664-13.664h19.326l13.668 13.664v19.329l-.044.044z" fill="#fff"/><path d="m635.288 43.539.003.003v4.283l.029.029-13.501 13.498h-.155v-4.134-.059z" fill="#bcbab8"/><path d="m602.402 61.401h-.008v-.098-4.085-.059h19.27v.059 4.134.049h-.038z" fill="#cecac8"/><path d="m602.394 57.159v.059 4.085h-.087l-13.633-13.633v-4.175l13.664 13.664z" fill="#e2e1e0"/></g><g fill="none"><path d="m588.674 24.166 13.664-13.664h19.326l13.668 13.664v19.329l-.044.044-13.624 13.62h-19.27-.056l-13.664-13.664z"/><path d="m588.674 43.495v4.175.105"/><path d="m602.394 57.218v4.085.098.097"/><path d="m621.664 57.218v4.134.049.097"/><path d="m635.29102 43.542v4.283001"/><path d="m588.633 47.629.041.041 13.633 13.633"/><path d="m621.819 61.352 13.501-13.498.046-.049"/><path d="m602.40198 61.401001h19.224"/></g></g><path d="m623.921 35.243c-.073.172-.021.392-.092.563-.168.425-.146.726-.289 1.152-1.039 3.089-6.326 2.496-9.038 1.44-.08.309-.201.567-.578.574-.04.747.004 1.405.483 1.641.457.104.465-.237.769-.289 3 .092 8.01-.369 11.06-.289.865.021 2.405.835 2.889 1.438.666.854.289 2.206.768 3.077-1.942 3.487-8.446 1.087-11.921.578-1.736-.257-3.352-.772-4.135.384.165 2.595-.34 6.114-.289 7.113-.309 1.516-1.698 2.813-3.271 2.503-1.128-.224-1.78-2.062-1.927-3.562-.22-2.345.45-4.982.099-6.729-1.827.088-4.286.654-6.82.863-1.127.095-2.565.329-3.655.099-1.248-.267-6.506-4.116-3.268-5.771.87.187 2.422-.045 2.688.577 2.604-.174 8.104.843 12.021.188-.139-.729-.217-1.515-.289-2.305-.991.289-1.661.717-2.499.958-.896.257-2.77.846-3.651.096-.389-.32-.938-1.527-1.443-2.396-1.185-2.057-3.254-5.764-3.938-7.601-.594-1.588.269-2.678 1.147-3.461 1.021-.897 2.813-2.254 3.851-.867 2.021-.582 4.786-.919 7.313-.674.089-.706-.363-1.335-.675-1.921-1.813.271-3.974.021-6.06.289-1.24.157-2.371.859-3.462 0-.771-.611-2.021-2.188-1.925-2.888.137-1.014 1.845-1.376 2.888-1.062.479.146.313.421.769.578 1.449-.184 5.313.357 8.271 0-.225-1.646-2.256-2.302-1.825-3.938.374-1.438 3.325-2.381 5.863-2.117 1.021.899 2.271 1.569 2.597 3.173-.164 1.064-1.854 1.771-1.063 2.887 3.274-.313 7.104-.08 9.715-1.058.61.878 2.215 1.969 2.688 2.979-1.74 2.35-4.933 1.489-7.885 1.252-1.729-.14-3.271-.029-4.813-.479-.063.311-.315.443-.569.572-.06.692-.021 1.297.385 1.539.521.104.506-.327.959-.287 3.188-.059 6.327.98 9.521-.099.4 1.052 2.3 1.983 3.175 3.175-2.331 1.979-3.364 5.854-4.428 7.784.056.15.104.009.104-.096.25.227-.215.484-.215.417zm-4.131-.011c-.092-.834-.165-1.16-.479-1.826-1.973.088-5.046-.979-5.771.674-.048.882.229 1.434.867 1.632 1.243-.71 3.989.08 5.383-.48zm.194-5.865c-.076-.791-.457-1.273-.867-1.731-1.299-.059-3.212.008-4.142-.095-.278.293-1.098.886-1.146 1.73.121.035.197.125.188.284 1.653-.364 4.397.464 5.967-.188zm-10 6.154c-.373-.655-.188-1.866-.867-2.219-1.017.209-2.558.117-3.461-.095.065.566-.242.188-.392.578.022 1.196.396 2.038 1.252 2.403.547-.832 2.765.01 3.468-.667zm0-5.96c-.229-.573-.688-.922-.771-1.636-2.097.117-3.388.604-5.576.479-.604.557-.3 1.444.285 1.83 1.711-.538 4.002-.49 6.062-.673z" fill="#dd1f26"/></g></svg>