<?xml version="1.0" encoding="UTF-8" standalone="no"?>
<svg
   xmlns:dc="http://purl.org/dc/elements/1.1/"
   xmlns:cc="http://creativecommons.org/ns#"
   xmlns:rdf="http://www.w3.org/1999/02/22-rdf-syntax-ns#"
   xmlns:svg="http://www.w3.org/2000/svg"
   xmlns="http://www.w3.org/2000/svg"
   xmlns:sodipodi="http://sodipodi.sourceforge.net/DTD/sodipodi-0.dtd"
   xmlns:inkscape="http://www.inkscape.org/namespaces/inkscape"
   width="92"
   height="92"
   id="svg2"
   version="1.1"
   inkscape:version="0.92.4 (5da689c313, 2019-01-14)"
   sodipodi:docname="red_chariot.svg">
  <metadata
     id="metadata12">
    <rdf:RDF>
      <cc:Work
         rdf:about="">
        <dc:format>image/svg+xml</dc:format>
        <dc:type
           rdf:resource="http://purl.org/dc/dcmitype/StillImage" />
        <dc:title />
      </cc:Work>
    </rdf:RDF>
  </metadata>
  <defs
     id="defs10">
    <filter
       height="1.5"
       width="1.5"
       y="0"
       x="0"
       id="f1"
       color-interpolation-filters="sRGB">
      <feOffset
         id="feOffset3039"
         dy="0"
         dx="1"
         in="SourceAlpha"
         result="offOut" />
      <feGaussianBlur
         id="feGaussianBlur3041"
         stdDeviation="1"
         in="offOut"
         result="blurOut" />
      <!--
      <feBlend in="SourceGraphic" in2="blurOut" mode="normal" />
-->
    </filter>
    <linearGradient
       y2="1"
       x2="0"
       y1="0"
       x1="0"
       id="grad1">
      <stop
         id="stop3034"
         style="stop-color:rgb(255,255,255);stop-opacity:0.6"
         offset="20%" />
      <stop
         id="stop3036"
         style="stop-color:rgb(220,0,0);stop-opacity:0.5"
         offset="50%" />
    </linearGradient>
    <linearGradient
       y2="1"
       x2="0"
       y1="0"
       x1="0"
       id="grad0">
      <stop
         id="stop3029"
         style="stop-color:rgb(0,0,0);stop-opacity:0.3"
         offset="20%" />
      <stop
         id="stop3031"
         style="stop-color:rgb(0,0,0);stop-opacity:0.6"
         offset="100%" />
    </linearGradient>
    <inkscape:path-effect
       effect="mirror_symmetry"
       start_point="274.21267,350.55066"
       end_point="273.50284,477.30227"
       center_point="273.85776,413.92646"
       id="path-effect4557-0-4"
       is_visible="true"
       mode="free"
       discard_orig_path="false"
       fuse_paths="true"
       oposite_fuse="false" />
    <filter
       style="color-interpolation-filters:sRGB;"
       inkscape:label="Drop Shadow"
       id="filter18479">
      <feFlood
         flood-opacity="1"
         flood-color="rgb(91,93,90)"
         result="flood"
         id="feFlood18469" />
      <feComposite
         in="flood"
         in2="SourceGraphic"
         operator="in"
         result="composite1"
         id="feComposite18471" />
      <feGaussianBlur
         in="composite1"
         stdDeviation="0"
         result="blur"
         id="feGaussianBlur18473" />
      <feOffset
         dx="0"
         dy="4"
         result="offset"
         id="feOffset18475" />
      <feComposite
         in="SourceGraphic"
         in2="offset"
         operator="over"
         result="composite2"
         id="feComposite18477" />
    </filter>
    <filter
       style="color-interpolation-filters:sRGB"
       inkscape:label="Drop Shadow"
       id="filter18479-1">
      <feFlood
         flood-opacity="1"
         flood-color="rgb(91,93,90)"
         result="flood"
         id="feFlood18469-6" />
      <feComposite
         in="flood"
         in2="SourceGraphic"
         operator="in"
         result="composite1"
         id="feComposite18471-2" />
      <feGaussianBlur
         in="composite1"
         stdDeviation="0"
         result="blur"
         id="feGaussianBlur18473-4" />
      <feOffset
         dx="0"
         dy="4"
         result="offset"
         id="feOffset18475-8" />
      <feComposite
         in="SourceGraphic"
         in2="offset"
         operator="over"
         result="composite2"
         id="feComposite18477-8" />
    </filter>
  </defs>
  <sodipodi:namedview
     pagecolor="#ffffff"
     bordercolor="#666666"
     borderopacity="1"
     objecttolerance="10"
     gridtolerance="10"
     guidetolerance="10"
     inkscape:pageopacity="0"
     inkscape:pageshadow="2"
     inkscape:window-width="1920"
     inkscape:window-height="1017"
     id="namedview8"
     showgrid="false"
     inkscape:zoom="5.2444445"
     inkscape:cx="10.148391"
     inkscape:cy="38.831495"
     inkscape:window-x="1912"
     inkscape:window-y="-8"
     inkscape:window-maximized="1"
     inkscape:current-layer="layer1"
     fit-margin-top="0"
     fit-margin-left="0"
     fit-margin-right="0"
     fit-margin-bottom="0"
     inkscape:pagecheckerboard="false"
     showguides="false" />
  <g
     inkscape:groupmode="layer"
     id="layer1"
     inkscape:label="Background"
     style="display:inline">
    <g
       transform="matrix(1.4065123,0,0,1.4065123,-814.78676,-4.5662276)"
       id="g2314"
       style="stroke:none">
      <g
         id="XMLID_27_"
         style="stroke:none">
        <g
           id="g2288"
           style="stroke:none">
          <polygon
             style="fill:#ffffff;stroke:none"
             points="621.664,57.159 602.394,57.159 602.338,57.159 588.674,43.495 588.674,24.166 602.338,10.502 621.664,10.502 635.332,24.166 635.332,43.495 635.288,43.539 "
             id="polygon2280" />
          <polygon
             style="fill:#bcbab8;stroke:none"
             points="635.288,43.539 635.291,43.542 635.291,47.825 635.32,47.854 621.819,61.352 621.664,61.352 621.664,57.218 621.664,57.159 "
             id="polygon2282" />
          <polygon
             style="fill:#cecac8;stroke:none"
             points="602.402,61.401 602.394,61.401 602.394,61.303 602.394,57.218 602.394,57.159 621.664,57.159 621.664,57.218 621.664,61.352 621.664,61.401 621.626,61.401 "
             id="polygon2284" />
          <polygon
             style="fill:#e2e1e0;stroke:none"
             points="602.394,57.159 602.394,57.218 602.394,61.303 602.307,61.303 588.674,47.67 588.674,43.495 602.338,57.159 "
             id="polygon2286" />
        </g>
        <g
           id="g2306"
           style="stroke:none">
          <polygon
             style="fill:none;stroke:none;stroke-width:0.25"
             points="588.674,24.166 602.338,10.502 621.664,10.502 635.332,24.166 635.332,43.495 635.288,43.539 621.664,57.159 602.394,57.159 602.338,57.159 588.674,43.495 "
             id="polygon2290" />
          <polyline
             style="fill:none;stroke:none;stroke-width:0.25"
             points="588.674,43.495 588.674,47.67 588.674,47.775    "
             id="polyline2292" />
          <polyline
             style="fill:none;stroke:none;stroke-width:0.25"
             points="602.394,57.218 602.394,61.303 602.394,61.401      602.394,61.498    "
             id="polyline2294" />
          <polyline
             style="fill:none;stroke:none;stroke-width:0.25"
             points="621.664,57.218 621.664,61.352 621.664,61.401      621.664,61.498    "
             id="polyline2296" />
          <line
             style="fill:none;stroke:none;stroke-width:0.25;stroke-miterlimit:4;stroke-dasharray:none"
             x1="635.29102"
             y1="43.542"
             x2="635.29102"
             y2="47.825001"
             id="line2298" />
          <polyline
             style="fill:none;stroke:none;stroke-width:0.25;stroke-miterlimit:4;stroke-dasharray:none"
             points="588.633,47.629 588.674,47.67 602.307,61.303    "
             id="polyline2300" />
          <polyline
             style="fill:none;stroke:none;stroke-width:0.25;stroke-miterlimit:4;stroke-dasharray:none"
             points="621.819,61.352 635.32,47.854 635.366,47.805    "
             id="polyline2302" />
          <line
             style="fill:none;stroke:none;stroke-width:0.25;stroke-miterlimit:4;stroke-dasharray:none"
             x1="602.40198"
             y1="61.401001"
             x2="621.62598"
             y2="61.401001"
             id="line2304" />
        </g>
      </g>
      <g
         id="XMLID_13_"
         style="stroke:none">
        <g
           id="g2311"
           style="stroke:none">
          <path
             inkscape:connector-curvature="0"
             style="fill:#dd1f26;stroke:none"
             d="m 623.921,35.243 c -0.073,0.172 -0.021,0.392 -0.092,0.563 -0.168,0.425 -0.146,0.726 -0.289,1.152 -1.039,3.089 -6.326,2.496 -9.038,1.44 -0.08,0.309 -0.201,0.567 -0.578,0.574 -0.04,0.747 0.004,1.405 0.483,1.641 0.457,0.104 0.465,-0.237 0.769,-0.289 3,0.092 8.01,-0.369 11.06,-0.289 0.865,0.021 2.405,0.835 2.889,1.438 0.666,0.854 0.289,2.206 0.768,3.077 -1.942,3.487 -8.446,1.087 -11.921,0.578 -1.736,-0.257 -3.352,-0.772 -4.135,0.384 0.165,2.595 -0.34,6.114 -0.289,7.113 -0.309,1.516 -1.698,2.813 -3.271,2.503 -1.128,-0.224 -1.78,-2.062 -1.927,-3.562 -0.22,-2.345 0.45,-4.982 0.099,-6.729 -1.827,0.088 -4.286,0.654 -6.82,0.863 -1.127,0.095 -2.565,0.329 -3.655,0.099 -1.248,-0.267 -6.506,-4.116 -3.268,-5.771 0.87,0.187 2.422,-0.045 2.688,0.577 2.604,-0.174 8.104,0.843 12.021,0.188 -0.139,-0.729 -0.217,-1.515 -0.289,-2.305 -0.991,0.289 -1.661,0.717 -2.499,0.958 -0.896,0.257 -2.77,0.846 -3.651,0.096 -0.389,-0.32 -0.938,-1.527 -1.443,-2.396 -1.185,-2.057 -3.254,-5.764 -3.938,-7.601 -0.594,-1.588 0.269,-2.678 1.147,-3.461 1.021,-0.897 2.813,-2.254 3.851,-0.867 2.021,-0.582 4.786,-0.919 7.313,-0.674 0.089,-0.706 -0.363,-1.335 -0.675,-1.921 -1.813,0.271 -3.974,0.021 -6.06,0.289 -1.24,0.157 -2.371,0.859 -3.462,0 -0.771,-0.611 -2.021,-2.188 -1.925,-2.888 0.137,-1.014 1.845,-1.376 2.888,-1.062 0.479,0.146 0.313,0.421 0.769,0.578 1.449,-0.184 5.313,0.357 8.271,0 -0.225,-1.646 -2.256,-2.302 -1.825,-3.938 0.374,-1.438 3.325,-2.381 5.863,-2.117 1.021,0.899 2.271,1.569 2.597,3.173 -0.164,1.064 -1.854,1.771 -1.063,2.887 3.274,-0.313 7.104,-0.08 9.715,-1.058 0.61,0.878 2.215,1.969 2.688,2.979 -1.74,2.35 -4.933,1.489 -7.885,1.252 -1.729,-0.14 -3.271,-0.029 -4.813,-0.479 -0.063,0.311 -0.315,0.443 -0.569,0.572 -0.06,0.692 -0.021,1.297 0.385,1.539 0.521,0.104 0.506,-0.327 0.959,-0.287 3.188,-0.059 6.327,0.98 9.521,-0.099 0.4,1.052 2.3,1.983 3.175,3.175 -2.331,1.979 -3.364,5.854 -4.428,7.784 0.056,0.15 0.104,0.009 0.104,-0.096 0.25,0.227 -0.215,0.484 -0.215,0.417 z m -4.131,-0.011 c -0.092,-0.834 -0.165,-1.16 -0.479,-1.826 -1.973,0.088 -5.046,-0.979 -5.771,0.674 -0.048,0.882 0.229,1.434 0.867,1.632 1.243,-0.71 3.989,0.08 5.383,-0.48 z m 0.194,-5.865 c -0.076,-0.791 -0.457,-1.273 -0.867,-1.731 -1.299,-0.059 -3.212,0.008 -4.142,-0.095 -0.278,0.293 -1.098,0.886 -1.146,1.73 0.121,0.035 0.197,0.125 0.188,0.284 1.653,-0.364 4.397,0.464 5.967,-0.188 z m -10,6.154 c -0.373,-0.655 -0.188,-1.866 -0.867,-2.219 -1.017,0.209 -2.558,0.117 -3.461,-0.095 0.065,0.566 -0.242,0.188 -0.392,0.578 0.022,1.196 0.396,2.038 1.252,2.403 0.547,-0.832 2.765,0.01 3.468,-0.667 z m 0,-5.96 c -0.229,-0.573 -0.688,-0.922 -0.771,-1.636 -2.097,0.117 -3.388,0.604 -5.576,0.479 -0.604,0.557 -0.3,1.444 0.285,1.83 1.711,-0.538 4.002,-0.49 6.062,-0.673 z"
             id="path2309" />
        </g>
      </g>
    </g>
  </g>
  <g
     inkscape:groupmode="layer"
     id="layer2"
     inkscape:label="Symbol"
     style="display:inline" />
</svg>
