<?xml version="1.0" encoding="UTF-8" standalone="no"?>
<svg
   xmlns:dc="http://purl.org/dc/elements/1.1/"
   xmlns:cc="http://creativecommons.org/ns#"
   xmlns:rdf="http://www.w3.org/1999/02/22-rdf-syntax-ns#"
   xmlns:svg="http://www.w3.org/2000/svg"
   xmlns="http://www.w3.org/2000/svg"
   xmlns:sodipodi="http://sodipodi.sourceforge.net/DTD/sodipodi-0.dtd"
   xmlns:inkscape="http://www.inkscape.org/namespaces/inkscape"
   width="92"
   height="92"
   id="svg2"
   version="1.1"
   inkscape:version="0.92.4 (5da689c313, 2019-01-14)"
   sodipodi:docname="red_cannon.svg">
  <metadata
     id="metadata12">
    <rdf:RDF>
      <cc:Work
         rdf:about="">
        <dc:format>image/svg+xml</dc:format>
        <dc:type
           rdf:resource="http://purl.org/dc/dcmitype/StillImage" />
        <dc:title />
      </cc:Work>
    </rdf:RDF>
  </metadata>
  <defs
     id="defs10">
    <filter
       height="1.5"
       width="1.5"
       y="0"
       x="0"
       id="f1"
       color-interpolation-filters="sRGB">
      <feOffset
         id="feOffset3039"
         dy="0"
         dx="1"
         in="SourceAlpha"
         result="offOut" />
      <feGaussianBlur
         id="feGaussianBlur3041"
         stdDeviation="1"
         in="offOut"
         result="blurOut" />
      <!--
      <feBlend in="SourceGraphic" in2="blurOut" mode="normal" />
-->
    </filter>
    <linearGradient
       y2="1"
       x2="0"
       y1="0"
       x1="0"
       id="grad1">
      <stop
         id="stop3034"
         style="stop-color:rgb(255,255,255);stop-opacity:0.6"
         offset="20%" />
      <stop
         id="stop3036"
         style="stop-color:rgb(220,0,0);stop-opacity:0.5"
         offset="50%" />
    </linearGradient>
    <linearGradient
       y2="1"
       x2="0"
       y1="0"
       x1="0"
       id="grad0">
      <stop
         id="stop3029"
         style="stop-color:rgb(0,0,0);stop-opacity:0.3"
         offset="20%" />
      <stop
         id="stop3031"
         style="stop-color:rgb(0,0,0);stop-opacity:0.6"
         offset="100%" />
    </linearGradient>
    <inkscape:path-effect
       effect="mirror_symmetry"
       start_point="274.21267,350.55066"
       end_point="273.50284,477.30227"
       center_point="273.85776,413.92646"
       id="path-effect4557-0-4"
       is_visible="true"
       mode="free"
       discard_orig_path="false"
       fuse_paths="true"
       oposite_fuse="false" />
    <filter
       style="color-interpolation-filters:sRGB;"
       inkscape:label="Drop Shadow"
       id="filter18479">
      <feFlood
         flood-opacity="1"
         flood-color="rgb(91,93,90)"
         result="flood"
         id="feFlood18469" />
      <feComposite
         in="flood"
         in2="SourceGraphic"
         operator="in"
         result="composite1"
         id="feComposite18471" />
      <feGaussianBlur
         in="composite1"
         stdDeviation="0"
         result="blur"
         id="feGaussianBlur18473" />
      <feOffset
         dx="0"
         dy="4"
         result="offset"
         id="feOffset18475" />
      <feComposite
         in="SourceGraphic"
         in2="offset"
         operator="over"
         result="composite2"
         id="feComposite18477" />
    </filter>
    <filter
       style="color-interpolation-filters:sRGB"
       inkscape:label="Drop Shadow"
       id="filter18479-1">
      <feFlood
         flood-opacity="1"
         flood-color="rgb(91,93,90)"
         result="flood"
         id="feFlood18469-6" />
      <feComposite
         in="flood"
         in2="SourceGraphic"
         operator="in"
         result="composite1"
         id="feComposite18471-2" />
      <feGaussianBlur
         in="composite1"
         stdDeviation="0"
         result="blur"
         id="feGaussianBlur18473-4" />
      <feOffset
         dx="0"
         dy="4"
         result="offset"
         id="feOffset18475-8" />
      <feComposite
         in="SourceGraphic"
         in2="offset"
         operator="over"
         result="composite2"
         id="feComposite18477-8" />
    </filter>
  </defs>
  <sodipodi:namedview
     pagecolor="#ffffff"
     bordercolor="#666666"
     borderopacity="1"
     objecttolerance="10"
     gridtolerance="10"
     guidetolerance="10"
     inkscape:pageopacity="0"
     inkscape:pageshadow="2"
     inkscape:window-width="1920"
     inkscape:window-height="1017"
     id="namedview8"
     showgrid="false"
     inkscape:zoom="3.7083823"
     inkscape:cx="6.721401"
     inkscape:cy="49.506194"
     inkscape:window-x="1912"
     inkscape:window-y="-8"
     inkscape:window-maximized="1"
     inkscape:current-layer="layer1"
     fit-margin-top="0"
     fit-margin-left="0"
     fit-margin-right="0"
     fit-margin-bottom="0"
     inkscape:pagecheckerboard="false"
     showguides="false" />
  <g
     inkscape:groupmode="layer"
     id="layer1"
     inkscape:label="Background"
     style="display:inline">
    <g
       transform="matrix(1.4034885,0,0,1.4064848,-711.88437,-207.09835)"
       id="g2242"
       style="stroke:none">
      <g
         id="XMLID_24_"
         style="stroke:none">
        <g
           id="g2216"
           style="stroke:none">
          <polygon
             style="fill:#ffffff;stroke:none"
             points="563.288,187.538 549.664,201.159 530.394,201.159 530.338,201.159 516.674,187.494 516.674,168.166 530.338,154.501 549.664,154.501 563.331,168.166 563.331,187.494 "
             id="polygon2208" />
          <polygon
             style="fill:#bcbab8;stroke:none"
             points="549.664,201.159 563.288,187.538 563.291,187.541 563.291,191.824 563.319,191.854 549.818,205.352 549.664,205.352 549.664,201.218 "
             id="polygon2210" />
          <polygon
             style="fill:#cecac8;stroke:none"
             points="549.626,205.401 530.402,205.401 530.394,205.401 530.394,205.302 530.394,201.218 530.394,201.159 549.664,201.159 549.664,201.218 549.664,205.352 549.664,205.401 "
             id="polygon2212" />
          <polygon
             style="fill:#e2e1e0;stroke:none"
             points="530.338,201.159 530.394,201.159 530.394,201.218 530.394,205.302 530.306,205.302 516.674,191.67 516.674,187.494 "
             id="polygon2214" />
        </g>
        <g
           id="g2234"
           style="stroke:none">
          <polygon
             style="fill:none;stroke:none;stroke-width:0.25"
             points="516.674,187.494 516.674,168.166 530.338,154.501 549.664,154.501 563.331,168.166 563.331,187.494 563.288,187.538 549.664,201.159 530.394,201.159 530.338,201.159 "
             id="polygon2218" />
          <polyline
             style="fill:none;stroke:none;stroke-width:0.25"
             points="516.674,187.494 516.674,191.67 516.674,191.774    "
             id="polyline2220" />
          <polyline
             style="fill:none;stroke:none;stroke-width:0.25"
             points="530.394,201.218 530.394,205.302 530.394,205.401      530.394,205.498    "
             id="polyline2222" />
          <polyline
             style="fill:none;stroke:none;stroke-width:0.25"
             points="549.664,201.218 549.664,205.352 549.664,205.401      549.664,205.498    "
             id="polyline2224" />
          <line
             style="fill:none;stroke:none;stroke-width:0.25;stroke-miterlimit:4;stroke-dasharray:none"
             x1="563.29102"
             y1="187.541"
             x2="563.29102"
             y2="191.82401"
             id="line2226" />
          <polyline
             style="fill:none;stroke:none;stroke-width:0.25;stroke-miterlimit:4;stroke-dasharray:none"
             points="516.633,191.629 516.674,191.67 530.306,205.302    "
             id="polyline2228" />
          <polyline
             style="fill:none;stroke:none;stroke-width:0.25;stroke-miterlimit:4;stroke-dasharray:none"
             points="549.818,205.352 563.319,191.854 563.366,191.805    "
             id="polyline2230" />
          <line
             style="fill:none;stroke:none;stroke-width:0.25;stroke-miterlimit:4;stroke-dasharray:none"
             x1="530.40198"
             y1="205.401"
             x2="549.62598"
             y2="205.401"
             id="line2232" />
        </g>
      </g>
      <g
         id="XMLID_23_"
         style="stroke:none">
        <g
           id="g2239"
           style="stroke:none">
          <path
             inkscape:connector-curvature="0"
             style="fill:#dd1f26;stroke:none"
             d="m 555.781,168.321 c 0.255,0.604 0.315,1.624 0.673,2.122 -2.604,3.213 -8.544,-1.41 -11.377,1.544 0.877,1.396 2.687,1.876 3.762,3.085 0.131,0.479 0.229,0.989 0.574,1.254 -0.855,1.057 -2.313,2.311 -3.273,3.663 -0.294,0.411 -0.798,0.922 -0.868,1.254 -0.214,0.979 0.125,2.479 0.577,3.276 -0.729,0.822 -1.813,1.479 -3.085,1.35 -0.696,-0.07 -1.334,-0.729 -2.122,-0.963 -2.249,-0.664 -4.855,-0.688 -7.134,-0.578 -0.048,0.339 -0.428,0.342 -0.577,0.578 -0.677,2.563 2.095,4.17 3.276,3.953 1.554,0.214 8.396,0.593 11.854,-0.482 1.146,-0.524 0.932,-2.521 1.063,-4.525 0.163,-2.433 0.686,-4.368 2.601,-5.111 0.063,0.65 0.688,1.254 0.867,1.831 0.438,1.354 0.319,3.13 0.677,4.726 0.319,1.43 0.977,2.795 1.261,4.053 0.197,0.916 -0.038,2.056 0.479,2.799 -0.794,1.938 -3.015,2.813 -5.396,2.981 -5.761,0.423 -11.303,-0.099 -16.396,-0.575 -0.626,-0.06 -2.055,-0.609 -2.795,-1.155 -2.854,-2.104 -3.762,-6.151 -3.567,-10.411 0.063,-1.438 0.103,-3.061 -0.188,-4.339 -0.121,-0.523 -0.498,-1.065 -0.386,-1.544 0.182,-0.785 1.272,-1.097 2.401,-1.155 0.316,0.629 1.256,0.725 2.119,1.541 0.545,0.514 0.979,1.72 1.937,1.831 0.198,0.021 0.514,-0.242 0.967,-0.287 1.479,-0.156 4.336,0.643 5.686,0.287 0.771,-0.201 1.13,-1.261 1.354,-1.639 -0.243,-0.771 -0.989,-0.479 -1.736,-0.479 -1.64,-0.003 -4.55,0.076 -5.688,-0.194 -1.563,-0.367 -4.039,-2.041 -4.729,-3.375 -1.589,-3.09 2.485,-2.563 4.729,-2.313 3.181,0.36 7.016,0.294 10.021,-0.191 0.899,-1.292 2.173,-2.203 3.476,-3.085 -1.427,-0.979 -3.718,-0.763 -5.977,-0.866 -2.304,-0.105 -4.713,-0.222 -6.755,-0.479 -1.831,1.299 -3.784,2.664 -5.979,3.759 -2.087,1.043 -4.565,2.16 -7.322,1.931 -1.244,-1.479 0.523,-2.177 1.641,-2.799 2.013,-1.126 5.148,-2.964 6.074,-4.917 0.259,-0.552 0.486,-1.378 0.479,-2.021 -0.02,-1.104 -0.836,-1.727 -0.387,-2.896 0.259,-0.68 1.117,-0.907 1.445,-0.866 0.271,0.033 1.479,0.976 1.83,1.256 0.678,0.547 1.357,1.317 1.642,1.731 0.425,0.643 0.469,1.608 1.158,1.832 0.479,0.156 0.6,-0.16 1.06,-0.188 4.635,-0.354 10.518,0.396 15.621,0.097 1.402,1.489 3.543,2.622 4.433,4.699 z"
             id="path2237" />
        </g>
      </g>
    </g>
  </g>
  <g
     inkscape:groupmode="layer"
     id="layer2"
     inkscape:label="Symbol"
     style="display:inline" />
</svg>
