<?xml version="1.0" encoding="UTF-8" standalone="no"?>
<svg
   xmlns:dc="http://purl.org/dc/elements/1.1/"
   xmlns:cc="http://creativecommons.org/ns#"
   xmlns:rdf="http://www.w3.org/1999/02/22-rdf-syntax-ns#"
   xmlns:svg="http://www.w3.org/2000/svg"
   xmlns="http://www.w3.org/2000/svg"
   xmlns:sodipodi="http://sodipodi.sourceforge.net/DTD/sodipodi-0.dtd"
   xmlns:inkscape="http://www.inkscape.org/namespaces/inkscape"
   width="92"
   height="92"
   id="svg2"
   version="1.1"
   inkscape:version="0.92.4 (5da689c313, 2019-01-14)"
   sodipodi:docname="red_horse.svg">
  <metadata
     id="metadata12">
    <rdf:RDF>
      <cc:Work
         rdf:about="">
        <dc:format>image/svg+xml</dc:format>
        <dc:type
           rdf:resource="http://purl.org/dc/dcmitype/StillImage" />
        <dc:title />
      </cc:Work>
    </rdf:RDF>
  </metadata>
  <defs
     id="defs10">
    <filter
       height="1.5"
       width="1.5"
       y="0"
       x="0"
       id="f1"
       color-interpolation-filters="sRGB">
      <feOffset
         id="feOffset3039"
         dy="0"
         dx="1"
         in="SourceAlpha"
         result="offOut" />
      <feGaussianBlur
         id="feGaussianBlur3041"
         stdDeviation="1"
         in="offOut"
         result="blurOut" />
      <!--
      <feBlend in="SourceGraphic" in2="blurOut" mode="normal" />
-->
    </filter>
    <linearGradient
       y2="1"
       x2="0"
       y1="0"
       x1="0"
       id="grad1">
      <stop
         id="stop3034"
         style="stop-color:rgb(255,255,255);stop-opacity:0.6"
         offset="20%" />
      <stop
         id="stop3036"
         style="stop-color:rgb(220,0,0);stop-opacity:0.5"
         offset="50%" />
    </linearGradient>
    <linearGradient
       y2="1"
       x2="0"
       y1="0"
       x1="0"
       id="grad0">
      <stop
         id="stop3029"
         style="stop-color:rgb(0,0,0);stop-opacity:0.3"
         offset="20%" />
      <stop
         id="stop3031"
         style="stop-color:rgb(0,0,0);stop-opacity:0.6"
         offset="100%" />
    </linearGradient>
    <inkscape:path-effect
       effect="mirror_symmetry"
       start_point="274.21267,350.55066"
       end_point="273.50284,477.30227"
       center_point="273.85776,413.92646"
       id="path-effect4557-0-4"
       is_visible="true"
       mode="free"
       discard_orig_path="false"
       fuse_paths="true"
       oposite_fuse="false" />
    <filter
       style="color-interpolation-filters:sRGB;"
       inkscape:label="Drop Shadow"
       id="filter18479">
      <feFlood
         flood-opacity="1"
         flood-color="rgb(91,93,90)"
         result="flood"
         id="feFlood18469" />
      <feComposite
         in="flood"
         in2="SourceGraphic"
         operator="in"
         result="composite1"
         id="feComposite18471" />
      <feGaussianBlur
         in="composite1"
         stdDeviation="0"
         result="blur"
         id="feGaussianBlur18473" />
      <feOffset
         dx="0"
         dy="4"
         result="offset"
         id="feOffset18475" />
      <feComposite
         in="SourceGraphic"
         in2="offset"
         operator="over"
         result="composite2"
         id="feComposite18477" />
    </filter>
    <filter
       style="color-interpolation-filters:sRGB"
       inkscape:label="Drop Shadow"
       id="filter18479-1">
      <feFlood
         flood-opacity="1"
         flood-color="rgb(91,93,90)"
         result="flood"
         id="feFlood18469-6" />
      <feComposite
         in="flood"
         in2="SourceGraphic"
         operator="in"
         result="composite1"
         id="feComposite18471-2" />
      <feGaussianBlur
         in="composite1"
         stdDeviation="0"
         result="blur"
         id="feGaussianBlur18473-4" />
      <feOffset
         dx="0"
         dy="4"
         result="offset"
         id="feOffset18475-8" />
      <feComposite
         in="SourceGraphic"
         in2="offset"
         operator="over"
         result="composite2"
         id="feComposite18477-8" />
    </filter>
  </defs>
  <sodipodi:namedview
     pagecolor="#ffffff"
     bordercolor="#666666"
     borderopacity="1"
     objecttolerance="10"
     gridtolerance="10"
     guidetolerance="10"
     inkscape:pageopacity="0"
     inkscape:pageshadow="2"
     inkscape:window-width="1920"
     inkscape:window-height="1017"
     id="namedview8"
     showgrid="false"
     inkscape:zoom="5.2444445"
     inkscape:cx="20.006463"
     inkscape:cy="43.106637"
     inkscape:window-x="1912"
     inkscape:window-y="-8"
     inkscape:window-maximized="1"
     inkscape:current-layer="layer1"
     fit-margin-top="0"
     fit-margin-left="0"
     fit-margin-right="0"
     fit-margin-bottom="0"
     inkscape:pagecheckerboard="false"
     showguides="false" />
  <g
     inkscape:groupmode="layer"
     id="layer1"
     inkscape:label="Background"
     style="display:inline">
    <g
       transform="matrix(1.4064848,0,0,1.4064848,-713.50385,-4.5659418)"
       id="g2386"
       style="stroke:none">
      <g
         id="XMLID_32_"
         style="stroke:none">
        <g
           id="g2360"
           style="stroke:none">
          <polygon
             style="fill:#ffffff;stroke:none"
             points="549.664,57.159 530.395,57.159 530.339,57.159 516.674,43.495 516.674,24.166 530.339,10.502 549.664,10.502 563.332,24.166 563.332,43.495 563.288,43.539 "
             id="polygon2352" />
          <polygon
             style="fill:#bcbab8;stroke:none"
             points="563.288,43.539 563.292,43.542 563.292,47.825 563.32,47.854 549.819,61.353 549.664,61.353 549.664,57.218 549.664,57.159 "
             id="polygon2354" />
          <polygon
             style="fill:#cecac8;stroke:none"
             points="530.403,61.402 530.395,61.402 530.395,61.303 530.395,57.218 530.395,57.159 549.664,57.159 549.664,57.218 549.664,61.353 549.664,61.402 549.626,61.402 "
             id="polygon2356" />
          <polygon
             style="fill:#e2e1e0;stroke:none"
             points="530.395,57.159 530.395,57.218 530.395,61.303 530.307,61.303 516.674,47.67 516.674,43.495 530.339,57.159 "
             id="polygon2358" />
        </g>
        <g
           id="g2378"
           style="stroke:none">
          <polygon
             style="fill:none;stroke:none;stroke-width:0.25"
             points="516.674,24.166 530.339,10.502 549.664,10.502 563.332,24.166 563.332,43.495 563.288,43.539 549.664,57.159 530.395,57.159 530.339,57.159 516.674,43.495 "
             id="polygon2362" />
          <polyline
             style="fill:none;stroke:none;stroke-width:0.25"
             points="516.674,43.495 516.674,47.67 516.674,47.775    "
             id="polyline2364" />
          <polyline
             style="fill:none;stroke:none;stroke-width:0.25"
             points="530.395,57.218 530.395,61.303 530.395,61.402      530.395,61.498    "
             id="polyline2366" />
          <polyline
             style="fill:none;stroke:none;stroke-width:0.25"
             points="549.664,57.218 549.664,61.353 549.664,61.402      549.664,61.498    "
             id="polyline2368" />
          <line
             style="fill:none;stroke:none;stroke-width:0.25;stroke-miterlimit:4;stroke-dasharray:none"
             x1="563.29199"
             y1="43.542"
             x2="563.29199"
             y2="47.825001"
             id="line2370" />
          <polyline
             style="fill:none;stroke:none;stroke-width:0.25;stroke-miterlimit:4;stroke-dasharray:none"
             points="516.633,47.63 516.674,47.67 530.307,61.303    "
             id="polyline2372" />
          <polyline
             style="fill:none;stroke:none;stroke-width:0.25;stroke-miterlimit:4;stroke-dasharray:none"
             points="549.819,61.353 563.32,47.854 563.367,47.805    "
             id="polyline2374" />
          <line
             style="fill:none;stroke:none;stroke-width:0.25;stroke-miterlimit:4;stroke-dasharray:none"
             x1="530.40302"
             y1="61.402"
             x2="549.62598"
             y2="61.402"
             id="line2376" />
        </g>
      </g>
      <g
         id="XMLID_31_"
         style="stroke:none">
        <g
           id="g2383"
           style="stroke:none">
          <path
             inkscape:connector-curvature="0"
             style="fill:#dd1f26;stroke:none"
             d="m 557.479,41.8 c -0.346,0.586 -1.029,0.831 -1.777,1.015 -3.209,4.44 -6.248,9.056 -11.345,11.604 -1.839,-0.438 -1.804,-3.608 -2.539,-5.333 -0.276,-0.646 -0.751,-1.104 -0.512,-1.778 1.531,-1.819 2.372,1.636 4.229,0.597 0.479,-0.271 0.479,-0.764 0.766,-1.188 0.311,-0.451 0.879,-0.844 1.271,-1.354 0.355,-0.472 0.688,-0.979 1.02,-1.523 0.587,-0.986 1.338,-2.102 1.604,-3.133 0.858,-3.273 -2.968,-2.755 -5.842,-2.88 -0.77,-0.032 -1.591,-0.332 -2.117,0.254 0.694,1.618 2.686,1.683 3.813,2.878 0.813,0.863 0.999,1.927 1.438,3.303 -0.515,1.398 -2.233,1.868 -3.3,0.677 -1.479,-1.648 -1.521,-5.856 -4.065,-6.687 -0.817,-0.271 -2.741,-0.493 -3.642,0.339 0.481,1.646 2.462,1.717 3.726,2.539 1.306,0.847 1.554,2.49 2.116,3.809 -0.342,0.905 -2.204,1.446 -3.132,0.852 -0.989,-0.643 -1.297,-2.081 -1.779,-3.391 -0.705,-1.913 -2.104,-3.062 -3.132,-3.896 -0.712,0.258 -1.813,-0.313 -2.2,0.341 0.854,2.446 4.313,2.291 4.146,5.755 0.057,0.343 0.021,0.106 0.344,0.255 -0.29,0.891 -1.021,1.478 -2.033,1.44 -3.275,-0.104 -2.713,-6.013 -4.742,-7.621 -0.758,-0.17 -1.396,-0.467 -1.771,-1.015 -0.582,0.29 -1.002,0.748 -1.439,1.186 0.661,1.192 2.043,1.534 2.71,2.794 0.438,0.831 0.493,2.33 0.682,3.389 0.099,0.019 0.049,0.084 0,0.084 -0.188,2.104 -2.854,1.521 -3.813,0.257 -0.732,-0.978 -1.331,-5.007 -0.845,-6.772 0.273,-1.016 1.544,-1.973 2.367,-2.626 1.031,-0.816 2.043,-1.467 3.05,-1.945 -0.473,-1.422 0.125,-3.726 0.254,-6.604 0.094,-2.063 0.688,-6.182 -0.084,-7.875 -0.335,-0.738 -1.411,-1.279 -1.271,-2.117 0.188,-1.104 3.322,-1.604 4.485,-1.354 -0.052,0.146 0.9,1.093 1.521,1.186 0.165,0.023 0.49,-0.135 0.763,-0.17 1.911,-0.248 5.53,-0.168 7.875,-0.593 1.302,-0.235 2.623,-0.864 4.399,-0.597 0.317,0.551 0.953,0.701 1.354,1.188 0.751,0.911 0.877,2.245 1.522,3.303 -1.55,1.021 -4.815,0.583 -6.438,0.17 -0.823,0.284 -1.251,2.18 -0.342,2.707 2.531,-0.897 5.101,0.045 5.42,2.455 -0.438,1.876 -4.038,1.698 -5.249,0.765 -0.468,0.321 -1.146,1.052 -1.018,1.861 0.063,0.409 0.271,0.646 0.679,0.851 1.621,-0.491 4.642,-1.19 5.249,0.763 0.107,0.348 0.339,1.604 0.255,1.859 -0.164,0.491 -1.094,0.789 -1.944,0.851 -1.42,0.1 -2.533,0.125 -3.643,0 -0.813,0.199 -1.038,1.44 -0.171,1.777 2.58,-0.548 6.293,-0.188 9.061,-0.084 0.454,0.528 1.396,0.605 1.862,1.521 0.225,0.434 0.229,1.121 0.422,1.691 0.47,1.364 1.205,3.127 1.782,4.22 z M 540.714,23.005 c 0.097,-0.699 -0.077,-1.834 -0.682,-2.117 -1.082,-0.332 -2.874,-0.303 -3.896,-0.426 -0.861,0.329 -1.07,2.404 -0.254,2.965 1.271,-0.488 3.395,-0.113 4.832,-0.422 z m 0,5.755 c -0.412,-0.545 -0.077,-1.84 -0.765,-2.114 -1.425,-0.024 -3.629,0.169 -4.484,-0.425 -0.354,0.313 -0.392,0.479 -0.769,0.676 -0.129,1.286 -0.063,2.593 -0.167,3.979 -0.069,0.961 -0.557,3.38 0.338,3.642 0.123,0.038 0.607,-0.289 0.937,-0.339 1.101,-0.161 3.313,0.155 4.313,-0.338 -0.099,-0.468 -0.479,-0.645 -0.677,-1.015 -1.896,-0.021 -3.896,-0.971 -3.559,-2.71 0.374,-1.869 3.186,-0.667 4.833,-1.356 z"
             id="path2381" />
        </g>
      </g>
    </g>
  </g>
  <g
     inkscape:groupmode="layer"
     id="layer2"
     inkscape:label="Symbol"
     style="display:inline" />
</svg>
