<svg height="92" width="92" xmlns="http://www.w3.org/2000/svg"><g transform="matrix(1.1618787 0 0 1.1618787 -330.45006 -79.410282)"><g><g><path d="m309.854 139.159h-.083l-20.121-20.122v-28.464l20.121-20.122h28.461l20.125 20.122v28.464l-.064.065-20.061 20.057z" fill="#fff"/><path d="m358.342 125.456-19.883 19.878h-.227v-6.089-.086l20.061-20.057.006.003v6.308z" fill="#bcbab8"/><path d="m309.854 145.406v-.145-6.016-.086h28.378v.086 6.089.072h-.056-28.309z" fill="#cecac8"/><path d="m289.65 125.186v-6.149l20.121 20.122h.083v.086 6.016h-.129z" fill="#e2e1e0"/></g><g><g fill="none"><path d="m309.771 70.451h28.461l20.125 20.122v28.464l-.064.065-20.061 20.057h-28.378-.083l-20.121-20.122v-28.464z"/><path d="m289.65 119.037v6.149.154"/><path d="m309.854 139.245v6.016.145.143"/><path d="m338.232 139.245v6.089.072.143"/></g><path d="m358.29901 119.105v6.308"/><path d="m289.59 125.125.06.061 20.075 20.075" fill="none"/><path d="m338.459 145.334 19.883-19.878.068-.073"/><path d="m309.867 145.40601h28.30899"/></g></g><path d="m347.723 115.105c1.318 1.096 1.391 2.867 2.201 4.653-1.125 1.417-3.23 1.949-5.639 1.595-1.627-.237-2.998-1.021-4.658-1.595-2.652-.919-5.563-1.311-8.205-1.837-.088 1.986 2.352 1.496 3.68 1.837 1.592.41 3.592 1.563 4.773 2.574 1.684 1.431 2.605 3.637 2.695 6.369.209.2.047.771.488.731-1.395 3.437-6.275 2.891-7.848.247-1.156-1.958-1.229-4.979-2.443-6.979-.545-.9-1.146-1.277-1.6-2.084-1.055-.537-1.68-1.507-2.938-1.838-.279-.293-.475-.672-.736-.979-1.273 1.291-2.053 2.835-3.188 4.163-3.271 3.838-7.795 6.725-13.725 8.09-.813.765-2.678.364-2.33-1.352.262-1.287 3.111-2.021 4.289-2.816 2.547-1.721 5.723-4.71 7.477-6.854-.127-.284-.252-.563-.488-.736-1.871.063-3.912 1.119-5.518 0-1.271-.891-2.336-2.998-2.447-5.146.652-.65 1.322-1.285 2.814-1.104.275.1.229.275.486.611 2.903.088 5.313 1.296 8.332.247-.268-.313-.713-.438-.979-.737-3.455.229-5.729-1.674-6.369-4.657 1.723-2.021 5.691-.047 8.574-.729.179-.541-.691-.993-.979-1.472-1.723.235-3.363.169-4.896.24-.566.028-1.135.284-1.717.121-2.375-.662-.861-4.956-1.477-7.227-1.313 1.217-1.623 2.681-1.712 3.674-.095.22-.226.019-.368 0 .084.28-.066 1.781-.615 1.595.242.48.043 1.296-.365 1.104.066 1.067-.074 1.031-.73 1.963.043.173.215.009.242-.121-.131.713-.189.521-.609 1.711-.063.188-.051.441-.121.615-.094.21-.729 2.047-1.104 3.796-.271 1.259-.979 2.9-.857 4.047.117 1.059 1.576 2.336 1.963 3.917.229.918 0 1.911.121 2.82.113.835.332 1.446-.486 2.205-.811.732-3.258 1.801-4.41 1.717-3.776-.285-1.292-7.987-3.434-10.17-.658-.672-2.387-.545-2.326-1.965.055-1.322 3.291-2.152 4.289-3.063 1.124-1.021 1.512-1.985 2.449-2.938.438-2.771 3.313-4.857 2.939-7.23-1.154 1.665-1.574 3.104-3.683 4.043-1.073.484-3.313 1.37-3.671.247-.373-1.175.671-1.865.615-3.063-.033-.574-.289-1.428-.615-1.837-.96-1.223-4.733-.435-4.532-2.323.141-1.347 3.602-2.063 5.271-2.205 1.034-.099 2.321.014 3.185.119-.023.133-.239.084-.248.246 1.022.399 1.069.553 2.333 1.225.381.521.729 1.077 1.354 1.348.84-.178 1.301-.74 1.959-1.101-1.939-1.912-5.064-3.345-6.738-5.52-.354-.463-.709-1.082-.736-1.591-.08-1.637 1.482-2.271 1.475-3.801-.02-1.38-.972-2.312-1.844-3.308-.754-.87-1.711-1.396-1.59-3.063 2.021-2.219 4.349-.41 6.617.732 1.355.681 2.752 1.396 3.674 2.448 1.345 1.521 1.195 3.319 1.97 4.899-.457 2.773-4.993 1.465-6.983 2.695.367 1.007 1.287 1.637 2.205 2.326.844.635 2.448 2.154 3.307 1.717 1.152-.596 2.306-2.476 4.779-1.838.172.407.502-.032.487.367 2.062-.018 4.024.702 6.128.239-.242-.731-.443-1.516-.611-2.326-1.244.153-2.322.97-3.553.857-1.548-.131-2.798-2.21-2.574-3.553.225-1.361 1.686-1.188 3.307-1.353-.309-.672-.719-1.236-1.102-1.837-1.543.126-3.076.605-4.168-.247-.695-.541-2.158-2.808-2.326-3.675-.551-2.896 3.412-2.634 5.879-2.205.189-.76-.727-.802-.729-1.595-.016-1.716 3.805-2.131 4.648-1.59.494.74 1.408.756 1.963 1.469.605.783.338 2.047 1.229 2.695.898-.364 2.092-.438 3.432-.368-1.754-2.146-.182-5.628 3.188-4.411.625.886 1.801 1.063 2.447 1.963.635.867.316 2.154 1.23 2.938.746-.12 1.941-.409 2.813-.12.025.009.072.345.119.366.275.121 1.521.431 2.086.733.535.289 1.359 1.045 1.475 1.229.314.521-.007 1.322.729 1.59-.582 2.735-6.492 2.814-8.332 1.104-.271.828-1.023.622-.979 1.35.115 1.558 2.813 1.443 3.922 2.938.555.751.055 1.315.854 1.479-.721 1.753-3.979 2.131-5.883 1.469-.441-.153-.801-.639-1.227-.856-1.098-.563-2.363-.729-3.063-1.349-.354.135-.725.256-.854.609.293.729 1.027 1.013 1.957 1.104.646.058-.283-.331.127-.367.387.021.535.278.979.246-.813.305.342 1.408.734 1.958 2.172-.546 5.563-.303 7.838-.367.904 1.003 1.906 2.163 2.82 3.313.252.313.438.854.854.854-.686 1.921-1.049 2.938-1.596 4.163-.063.144-.605 1.024-.367 1.717-.73 3.43-5.539 1.84-7.35.367-1.463.043-2.316-.104-3.801-.246-.32.679-.361.306-.734.856-.094.787.063 1.328.488 1.595 2.01-.666 5.581-.354 7.965-.247-.295 1.063.922 2.434 1.348 3.558-1.553 2.634-7.354 1.128-10.291.979-.438.514-1.594.782-1.1 1.842 2.395-.479 8.607-.438 12.493-.612 2.411-.106 3.267.029 4.896.979.561.328 1.279.72 1.606.99zm-11.397-13.968c.104-.602-.209-1.604-.488-2.206-1.334.229-2.928.103-4.291 0v.368c-.871-.084-.904 1.907-.246 2.448 1.445-.433 3.724-.032 5.025-.61zm-6.125-12.617c-.227-.756-.617-1.348-.859-2.085-2.02-.681-3.762.243-2.813 2.327 1.084.228 2.416-.239 3.672-.242zm-5.023 12.864c-.418-.644-.65-1.474-1.104-2.085-.984.126-1.479-.237-2.326-.247.502.551-.76.271-.369.616-.189.14.037 2.303 1.104 2.326.275-.447 2.011-.195 2.695-.61z" fill="#dd1f26"/></g></svg>