<svg clip-rule="evenodd" fill-rule="evenodd" height="50mm" image-rendering="optimizeQuality" shape-rendering="geometricPrecision" text-rendering="geometricPrecision" viewBox="0 0 50 50" width="50mm" xmlns="http://www.w3.org/2000/svg" xmlns:xlink="http://www.w3.org/1999/xlink"><linearGradient id="a" gradientTransform="matrix(1.0155 0 0 1.0103 -.38852 .48153)" gradientUnits="userSpaceOnUse" x1="9.2407" x2="40.761" y1="27.266" y2="27.266"><stop offset="0" stop-color="#737373"/><stop offset="1" stop-color="#303030"/></linearGradient><linearGradient id="b" gradientTransform="matrix(1.0113 0 0 1.0008 536.22 433.79)" gradientUnits="userSpaceOnUse" x1="-505.97" x2="-484.22" xlink:href="#a" y1="-408.5" y2="-408.5"/><linearGradient id="c" gradientTransform="matrix(1.0113 0 0 1.0008 536.22 433.79)" gradientUnits="userSpaceOnUse" x1="-520.15" x2="-490.84" xlink:href="#a" y1="-394.44" y2="-394.44"/><linearGradient id="d" gradientTransform="matrix(1.0113 0 0 1.0008 536.22 433.79)" gradientUnits="userSpaceOnUse" x1="-526.74" x2="-504.98" xlink:href="#a" y1="-408.5" y2="-408.5"/><filter id="e" color-interpolation-filters="sRGB" height="1.0667" width="1.1695" x="-.084759" y="-.033375"><feGaussianBlur stdDeviation=".39181543"/></filter><linearGradient id="f" gradientTransform="matrix(1.0113 0 0 1.0008 536.22 433.79)" gradientUnits="userSpaceOnUse" x1="-510.08" x2="-500.85" xlink:href="#a" y1="-412.72" y2="-412.72"/><filter id="g" color-interpolation-filters="sRGB" height="1.0625" width="1.2046" x="-.10232" y="-.031241"><feGaussianBlur stdDeviation=".17214082"/></filter><filter id="h" color-interpolation-filters="sRGB" height="1.0815" width="1.1165" x="-.058271" y="-.040744"><feGaussianBlur stdDeviation=".25776142"/></filter><filter id="i" color-interpolation-filters="sRGB" height="1.1884" width="1.2532" x="-.12658" y="-.094177"><feGaussianBlur stdDeviation=".50845108"/></filter><filter id="j" color-interpolation-filters="sRGB" height="1.1537" width="1.3631" x="-.18153" y="-.076866"><feGaussianBlur stdDeviation=".27092836"/></filter><filter id="k" color-interpolation-filters="sRGB" height="1.2207" width="1.2115" x="-.10576" y="-.11034"><feGaussianBlur stdDeviation=".390798"/></filter><filter id="l" color-interpolation-filters="sRGB" height="1.3307" width="1.4577" x="-.22885" y="-.16537"><feGaussianBlur stdDeviation=".3422248"/></filter><filter id="m" color-interpolation-filters="sRGB" height="1.3329" width="1.4536" x="-.22678" y="-.16647"><feGaussianBlur stdDeviation=".3047012"/></filter><g clip-rule="evenodd" image-rendering="optimizeQuality" shape-rendering="geometricPrecision"><path d="m29.132 18.792c6.3868-5.7409 17.544-2.6063 16.851 6.8125-.67884 6.1704-7.0132 8.3474-7.0132 8.3474s-3.827-2.2278-13.94-2.2279l-.01375-3.9929z" fill="url(#b)" fill-rule="evenodd" stroke="#000"/><path d="m37.942 38.831 1.3044 5.2758s-3.7788 2.2279-14.247 2.2281c-10.468-.0002-14.247-2.2281-14.247-2.2281l1.3039-5.2758-.99653-4.8785s3.6452-2.228 13.941-2.2281c10.295-.00009 13.939 2.2281 13.939 2.2281z" fill="url(#c)" fill-rule="evenodd" stroke="#000"/><path d="m10.754 44.106s3.779-2.2282 14.248-2.2282c10.469-.00008 14.248 2.2282 14.248 2.2282" fill="none" stroke="#000"/><path d="m12.058 38.831s3.3937-2.2281 12.978-2.2282c9.5837-.00009 12.977 2.2282 12.977 2.2282" fill="none" stroke="#000"/><g fill-rule="evenodd"><path d="m20.9 18.792c-6.3868-5.7409-17.544-2.6063-16.851 6.8125.67883 6.1705 7.0132 8.3474 7.0132 8.3474s3.827-2.2278 13.94-2.2279l.01375-3.9929z" fill="url(#d)" stroke="#000"/><path d="m21.65 9.9111h6.7327m-3.3665-3.5825v7.9811" fill="#59917a" stroke="#000" stroke-linecap="round" stroke-linejoin="round"/><path d="m-494.08-417.53c-.55524.004-1.1328.0512-1.7317.14551 9.0875-.22351 13.443 11.958 1.3939 16.485l-1.272 4.9584 1.5258 5.4821 2.9613 1.1046-1.4892-5.4685.9866-5.2069s6.2729-1.7817 6.9341-7.821c.50626-4.6237-2.5471-9.7267-9.3088-9.6791z" filter="url(#e)" opacity=".2" transform="matrix(1.0113 0 0 1.0008 536.22 433.79)" visibility="hidden"/><path d="m20.9 18.792 4.1296 8.6534 4.1296-8.6534s.70326-4.7675-4.1296-4.7675c-4.8328 0-4.1296 4.7675-4.1296 4.7675z" fill="url(#f)" stroke="#000" stroke-linejoin="round"/><path d="m-505.48-419.2c4.7574.97002.86734 10.52.0159 13.186.024.0251 3.0784-5.4037 4.0203-8.9129.0891-4.5046-3.8674-4.3926-4.0362-4.2734z" filter="url(#g)" opacity=".2" transform="matrix(1.0113 0 0 1.0008 536.22 433.79)"/><path d="m-505.49-402.26-.00091-.0753c.00091.0753.0156-3.3953.0156-3.3953s-2.6809-6.8956-4.0516-8.9141c-1.3335-1.9637-3.7782-2.9295-6.5648-2.7843 3.9722 1.7651 8.9372 10.029 10.602 15.169z" filter="url(#h)" opacity=".2" transform="matrix(1.0113 0 0 1.0008 536.22 433.79)" visibility="hidden"/><path d="m6.3143 29.527c-1.1962-1.6473-2.0112-3.8501-1.4457-6.6355 1.4365-7.0745 9.457-6.2963 9.457-6.2963-11.595 3.4679-7.8719 12.962-8.0113 12.932z" fill="#fff" filter="url(#i)" opacity=".3"/><path d="m23.57 23.025-2.1135-4.4024s-.69055-4.1199 3.5402-4.056c-4.213 1.331-1.4267 8.4585-1.4267 8.4585z" fill="#fff" filter="url(#j)" opacity=".25"/><path d="m27.026 24.959 2.7521-5.9287s2.4466-2.2236 6.1164-2.5715c-3.9475 1.0321-6.3301 4.8747-8.8685 8.5003z" fill="#fff" filter="url(#k)" opacity=".2"/><path d="m25.318 41.924c-10.311.0001-14.564 2.1827-14.564 2.1827s4.2529 2.1825 14.564 2.1825h.02124c-15.441-1.99 7.3148-3.803 8.2842-3.8107-2.1733-.31642-4.9171-.55383-8.3052-.55373z" opacity=".15"/><path d="m25 46.296c-9.241.00008-13.744-2.2088-13.744-2.2088s4.503-2.2087 13.744-2.2088c9.241-.00008 13.744 2.2088 13.744 2.2088s-4.503 2.2087-13.744 2.2088z" opacity=".2"/><path d="m12.528 39.169c.85014-.44972 1.7288-.64286 2.5934-.96191-.58786.84096-.6344 2.7239-.35723 4.0623 0 0-.89201.12423-3.2318.90429z" fill="#fff" filter="url(#l)" opacity=".1"/><path d="m12.464 38.021s.30061-.28776 2.4162-.87683c-1.591-1.6012-1.4002-3.4462-1.5747-3.516-.5665.1679-1.1118.38893-1.65.6274z" fill="#fff" filter="url(#m)" opacity=".15"/></g></g></svg>