<svg clip-rule="evenodd" fill-rule="evenodd" height="50mm" image-rendering="optimizeQuality" shape-rendering="geometricPrecision" text-rendering="geometricPrecision" viewBox="0 0 50 50" width="50mm" xmlns="http://www.w3.org/2000/svg" xmlns:xlink="http://www.w3.org/1999/xlink"><linearGradient id="a" gradientTransform="matrix(.98131 0 0 .97235 -747.13 -34.817)" gradientUnits="userSpaceOnUse" x1="779.03" x2="794.63" xlink:href="#b" y1="54.449" y2="54.449"/><linearGradient id="b" gradientTransform="matrix(1.0155 0 0 1.0103 -.38852 .48153)" gradientUnits="userSpaceOnUse" x1="9.2407" x2="40.761" y1="27.266" y2="27.266"><stop offset="0" stop-color="#737373"/><stop offset="1" stop-color="#303030"/></linearGradient><linearGradient id="c" gradientTransform="matrix(.98131 0 0 .97235 -747.13 -34.817)" gradientUnits="userSpaceOnUse" x1="777.73" x2="795.93" xlink:href="#b" y1="63.423" y2="63.423"/><linearGradient id="d" gradientTransform="matrix(.98131 0 0 .97235 -747.13 -34.817)" gradientUnits="userSpaceOnUse" x1="772.83" x2="800.83" xlink:href="#b" y1="74.581" y2="74.581"/><filter id="e" color-interpolation-filters="sRGB" height="1.328" width="1.463" x="-.23151" y="-.16401"><feGaussianBlur stdDeviation=".66899586"/></filter><filter id="f" color-interpolation-filters="sRGB" height="1.2953" width="1.5489" x="-.27447" y="-.14764"><feGaussianBlur stdDeviation=".4936171"/></filter><filter id="g" color-interpolation-filters="sRGB" height="1.5936" width="1.6065" x="-.30327" y="-.2968"><feGaussianBlur stdDeviation=".39250041"/></filter><filter id="h" color-interpolation-filters="sRGB" height="1.0934" width="1.0987" x="-.049358" y="-.046705"><feGaussianBlur stdDeviation=".34409574"/></filter><filter id="i" color-interpolation-filters="sRGB" height="1.0702" width="1.1509" x="-.075434" y="-.035115"><feGaussianBlur stdDeviation=".26894903"/></filter><g clip-rule="evenodd" fill-rule="evenodd" image-rendering="optimizeQuality" shape-rendering="geometricPrecision"><g stroke="#000"><ellipse cx="25" cy="18.126" fill="url(#a)" rx="7.1609" ry="6.8341" stroke-linejoin="round"/><path d="m25 24.598c-5.2281.04446-7.9849-.02766-8.3941 4.5079h16.788c-.40921-4.5356-3.1654-4.4634-8.3936-4.5079z" fill="url(#c)"/><path d="m20.484 29.106c.49572 6.7875-9.3033 7.9958-8.7059 17.19h26.444c.59733-9.1945-9.2017-10.403-8.706-17.19h-4.5158z" fill="url(#d)"/></g><path d="m19.884 21.629c-.52784.22541-4.585-7.6283 4.8675-9.7724.71694-.11844 1.2513.64112.0079 1.0395 0 0-7.7396 3.3468-4.8755 8.7329z" fill="#fff" filter="url(#e)" opacity=".25"/><path d="m12.504 45.701c-.3242-1.2396-.20367-3.9732 3.5127-8.0081-.36972 2.4372-3.0643 5.3931-.9002 8.0242z" fill="#fff" filter="url(#f)" opacity=".2"/><path d="m17.282 28.557s-.0256-2.9052 3.1061-3.1417c-1.0786 1.2115-1.4623 1.9057-.93287 3.1739z" fill="#fff" filter="url(#g)" opacity=".2"/><path d="m275.09-101.12c.22763 6.0374 18.734 9.3143 16.553 17.682 1.2865-7.878-9.2816-10.089-8.8753-17.682z" filter="url(#h)" opacity=".15" transform="matrix(.98092 0 0 .9722 -247.86 127.42)" visibility="hidden"/><path d="m278.37-118.34c4.9751.66261 6.5956 10.501 1.9202 13.454 0 0 3.4083.51166 3.9665 2.6881.16937.66034.46812 2.1809.46812 2.1809l2.2021.00077s-.19634-1.5405-.46912-2.1651c-.88868-2.0348-4.6857-2.7708-4.6857-2.7708 1.871-1.1791 3.8981-4.2529 3.8981-6.3581.38818-4.551-5.5087-7.5475-7.3001-7.0296z" filter="url(#i)" opacity=".2" transform="matrix(.98092 0 0 .9722 -248.05 126.34)" visibility="hidden"/></g></svg>