<svg clip-rule="evenodd" fill-rule="evenodd" height="50mm" image-rendering="optimizeQuality" shape-rendering="geometricPrecision" text-rendering="geometricPrecision" viewBox="0 0 50 50" width="50mm" xmlns="http://www.w3.org/2000/svg" xmlns:xlink="http://www.w3.org/1999/xlink"><linearGradient id="a" gradientTransform="matrix(.99988 0 0 .97754 30.455 272.6)" gradientUnits="userSpaceOnUse" x1="-25.017" x2="14.084" xlink:href="#b" y1="-249.82" y2="-249.82"/><linearGradient id="b" gradientTransform="matrix(1.0155 0 0 1.0103 -.38852 .48153)" gradientUnits="userSpaceOnUse" x1="9.2407" x2="40.761" y1="27.266" y2="27.266"><stop offset="0" stop-color="#737373"/><stop offset="1" stop-color="#303030"/></linearGradient><linearGradient id="c" gradientTransform="matrix(.99988 0 0 .97754 29.927 272.6)" gradientUnits="userSpaceOnUse" x1="-27.911" x2="-21.13" xlink:href="#b" y1="-264.3" y2="-264.3"/><filter id="d" color-interpolation-filters="sRGB" height="1.0637" width="1.1901" x="-.09505" y="-.031869"><feGaussianBlur stdDeviation=".3875947"/></filter><linearGradient id="e" gradientTransform="matrix(.99988 0 0 .97754 30.455 272.6)" gradientUnits="userSpaceOnUse" x1="-18.928" x2="-12.147" xlink:href="#b" y1="-267.53" y2="-267.53"/><linearGradient id="f" gradientTransform="matrix(.99988 0 0 .97754 30.455 272.6)" gradientUnits="userSpaceOnUse" x1="-8.8575" x2="-2.076" xlink:href="#b" y1="-268.55" y2="-268.55"/><linearGradient id="g" gradientTransform="matrix(.99988 0 0 .97754 30.455 272.6)" gradientUnits="userSpaceOnUse" x1="1.2139" x2="7.9954" xlink:href="#b" y1="-267.53" y2="-267.53"/><linearGradient id="h" gradientTransform="matrix(.99988 0 0 .97754 30.983 272.6)" gradientUnits="userSpaceOnUse" x1="10.196" x2="16.978" xlink:href="#b" y1="-264.3" y2="-264.3"/><filter id="i" color-interpolation-filters="sRGB" height="1.0624" width="1.2076" x="-.10378" y="-.03122"><feGaussianBlur stdDeviation=".21647519"/></filter><filter id="j" color-interpolation-filters="sRGB" height="1.0545" width="1.4035" x="-.20177" y="-.02724"><feGaussianBlur stdDeviation=".196799"/></filter><filter id="k" color-interpolation-filters="sRGB" height="1.0562" width="1.3273" x="-.16364" y="-.028125"><feGaussianBlur stdDeviation=".20639"/></filter><filter id="l" color-interpolation-filters="sRGB" height="1.0677" width="1.1649" x="-.082464" y="-.033852"><feGaussianBlur stdDeviation=".23297225"/></filter><filter id="m" color-interpolation-filters="sRGB" height="1.0785" width="1.1236" x="-.06179" y="-.039242"><feGaussianBlur stdDeviation=".23735024"/></filter><filter id="n" color-interpolation-filters="sRGB" height="1.1608" width="1.3289" x="-.16445" y="-.080401"><feGaussianBlur stdDeviation=".13971698"/></filter><filter id="o" color-interpolation-filters="sRGB" height="1.1608" width="1.3289" x="-.16444" y="-.080403"><feGaussianBlur stdDeviation=".13972055"/></filter><filter id="p" color-interpolation-filters="sRGB" height="1.1608" width="1.3291" x="-.16454" y="-.080379"><feGaussianBlur stdDeviation=".13967945"/></filter><filter id="q" color-interpolation-filters="sRGB" height="1.1607" width="1.3291" x="-.16457" y="-.080373"><feGaussianBlur stdDeviation=".13966757"/></filter><filter id="r" color-interpolation-filters="sRGB" height="1.1607" width="1.3291" x="-.16456" y="-.080374"><feGaussianBlur stdDeviation=".13966936"/></filter><filter id="s" color-interpolation-filters="sRGB" height="1.3321" width="1.455" x="-.22752" y="-.16607"><feGaussianBlur stdDeviation=".3378988"/></filter><filter id="t" color-interpolation-filters="sRGB" height="1.3817" width="1.3863" x="-.19317" y="-.19085"><feGaussianBlur stdDeviation=".3996748"/></filter><g clip-rule="evenodd" image-rendering="optimizeQuality" shape-rendering="geometricPrecision"><path d="m37.159 38.874 3.1708-4.8088 4.2382-19.826-9.6531 14.798.14408-17.439-6.9029 16.413-3.167-17.929-3.1671 17.927-6.9023-16.413.14406 17.439-9.6533-14.798 4.2385 19.826 3.3597 4.8088-1.4087 5.3851s4.3961 2.0388 13.4 2.0389c9.004.000078 13.389-2.0379 13.389-2.0379z" fill="url(#a)" fill-rule="evenodd" stroke="#000" stroke-linecap="round" stroke-width="1.0011"/><path d="m9.7471 34.064c1.3472.18025 1.6447-.35453 2.0557-1.9064 0 0 2.488 1.3437 3.7626 1.0622 1.3642-.30126 2.4735-2.1717 2.4735-2.1717s2.113 1.5587 3.3808 1.4539c1.4742-.12184 3.5031-1.9805 3.5031-1.9805s2.0289 1.8587 3.5031 1.9805c1.2679.10484 3.381-1.4539 3.381-1.4539s1.1093 1.8704 2.4736 2.1717c1.2747.28149 3.7625-1.0622 3.7625-1.0622.41102 1.5519.8395 2.0882 2.1868 1.9079" fill="none" stroke="#000" stroke-linecap="round" stroke-width="1.0011"/><ellipse cx="5.4101" cy="14.238" rx="2.8943" ry="2.7991" style="stroke-linejoin:round;fill-rule:evenodd;stroke-linecap:round;stroke-width:1.0011;stroke:#000;fill:url(#c)"/><path d="m13.559-262.78c-1.1912 4.7255-4.7011 13.531-6.0487 18.221l-3.738 4.8185 1.08 4.9896 3.0789 1.1604-1.2264-5.5098 2.9614-4.677z" fill-rule="evenodd" filter="url(#d)" opacity=".2" stroke-width="1.0033" transform="matrix(.99988 0 0 .97754 30.455 272.6)" visibility="hidden"/><path d="m24.496 41.69c-4.8354 0-9.6709.85651-12.894 2.5695 3.2265 1.7145 8.068 1.747 12.908 1.7453-11.917-1.8771 1.9614-3.6923 6.7393-3.7262-2.1345-.39098-4.4426-.58856-6.7527-.58856z" fill-rule="evenodd" opacity=".15" stroke-width="1.0022"/><path d="m11.601 44.26s4.3875-2.1363 13.392-2.1364c9.004-.000078 13.392 2.1364 13.392 2.1364" fill="none" stroke="#000" stroke-width="1.0011"/><path d="m12.857 38.874s3.6657-2.0405 12.151-2.0406c8.485-.000078 12.151 2.0406 12.151 2.0406" fill="none" stroke="#000" stroke-width="1.0011"/><g fill-rule="evenodd"><ellipse cx="14.92" cy="11.08" fill="url(#e)" rx="2.8943" ry="2.7991" stroke="#000" stroke-linecap="round" stroke-linejoin="round" stroke-width="1.0022"/><ellipse cx="24.989" cy="10.082" fill="url(#f)" rx="2.8943" ry="2.7991" stroke="#000" stroke-linecap="round" stroke-linejoin="round" stroke-width="1.0022"/><ellipse cx="35.059" cy="11.082" fill="url(#g)" rx="2.8943" ry="2.7991" stroke="#000" stroke-linecap="round" stroke-linejoin="round" stroke-width="1.0022"/><ellipse cx="44.568" cy="14.239" fill="url(#h)" rx="2.8943" ry="2.7991" stroke="#000" stroke-linecap="round" stroke-linejoin="round" stroke-width="1.0022"/><path d="m6.3859 16.873 3.7331 16.641s.79387.0566 1.2733-2.2945z" fill="#fff" filter="url(#i)" opacity=".3"/><path d="m15.522 14.499 2.3409 15.169c-.62608 1.0875-1.4722 2.0001-2.1635 2.17z" fill="#fff" filter="url(#j)" opacity=".25"/><path d="m21.986 31.027 3.027-17.612-.13887 15.757c-1.0664.91347-2.1492 1.8581-2.8881 1.8546z" fill="#fff" filter="url(#k)" opacity=".2"/><path d="m34.459 14.605-6.7803 16.182c.01606-.09179.46711 1.394 3.8307-1.2439z" fill="#fff" filter="url(#l)" opacity=".15"/><path d="m33.921 31.807 9.219-14.326-5.5984 13.346s-3.1529 1.7343-3.6206.97992z" fill="#fff" filter="url(#m)" opacity=".1"/><path d="m4.1843 16.16s-3.0175-2.6915.93416-4.1706c.087867.01398-1.833 2.156-.93416 4.1706z" fill="#fff" filter="url(#n)" opacity=".25"/><path d="m13.831 13.031s-3.0175-2.6915.93416-4.1706c.08942.0000196-1.7961 2.0542-.93416 4.1706z" fill="#fff" filter="url(#o)" opacity=".2"/><path d="m23.849 12.006s-3.0175-2.6915.93416-4.1706c.05841.0008505-1.9273 2.0906-.93416 4.1706z" fill="#fff" filter="url(#p)" opacity=".2"/><path d="m33.935 12.992s-3.0175-2.6915.93416-4.1706c.04418-.00293-1.9188 2.0931-.93416 4.1706z" fill="#fff" filter="url(#q)" opacity=".15"/><path d="m43.431 16.15s-3.0175-2.6915.93416-4.1706c.0462.01808-1.8825 2.1903-.93416 4.1706z" fill="#fff" filter="url(#r)" opacity=".1"/><path d="m24.993 46.396c-9.004.000078-13.392-2.1364-13.392-2.1364s4.3875-2.1363 13.392-2.1364c9.004-.000078 13.392 2.1364 13.392 2.1364s-4.3875 2.1363-13.392 2.1364z" opacity=".2"/><path d="m6.7713 12.412c.080498.02624 2.3142 1.7507-.14779 3.8639-.073915-.12415 1.1622-2.0011.14779-3.8639z" opacity=".2" stroke-width="1.0011"/><path d="m16.336 9.2456c.0805.026236 2.3142 1.7507-.14779 3.8639-.07392-.12415 1.1622-2.0011.14779-3.8639z" opacity=".2" stroke-width="1.0011"/><path d="m26.425 8.2762c.0805.026236 2.3142 1.7507-.14779 3.8639-.07392-.12415 1.1622-2.0011.14779-3.8639z" opacity=".2" stroke-width="1.0011"/><path d="m36.515 9.2684c.0805.026236 2.3142 1.7507-.14779 3.8639-.07391-.12415 1.1622-2.0011.14779-3.8639z" opacity=".2" stroke-width="1.0011"/><path d="m46.059 12.565c.0805.02624 2.3142 1.7507-.14779 3.8639-.07392-.12415 1.1622-2.0011.14779-3.8639z" opacity=".2" stroke-width="1.0011"/><path d="m13.514 39.223c.84826-.44972 1.6999-.65957 2.571-.87839-.58656.84096-.61633 2.6404-.33978 3.9788 0 0-.89003.12423-3.2246.90429z" fill="#fff" filter="url(#s)" opacity=".1" stroke-width="1.0011"/><path d="m13.146 38.084c.10983-.01598.33011-.2893 2.5915-.95137-2.0146-1.585-3.5509-4.0747-3.5509-4.0747-.32821.91454-.77279 1.5142-1.4149 1.5796z" fill="#fff" filter="url(#t)" opacity=".15" stroke-width="1.0011"/></g></g></svg>