<svg clip-rule="evenodd" fill-rule="evenodd" height="50mm" image-rendering="optimizeQuality" shape-rendering="geometricPrecision" text-rendering="geometricPrecision" viewBox="0 0 50 50" width="50mm" xmlns="http://www.w3.org/2000/svg" xmlns:xlink="http://www.w3.org/1999/xlink"><linearGradient id="a" gradientTransform="matrix(.98495 0 0 .98605 .37559 .64119)" gradientUnits="userSpaceOnUse" x1="9.2407" x2="40.761" y1="27.266" y2="27.266"><stop offset="0" stop-color="#ece9df"/><stop offset="1" stop-color="#f4e0c8"/></linearGradient><linearGradient id="b" gradientTransform="matrix(1.0739 0 0 1.0269 -2.2596 -.38035)" gradientUnits="userSpaceOnUse" x1="14.558" x2="35.921" xlink:href="#a" y1="25.93" y2="25.93"/><linearGradient id="c" gradientTransform="matrix(.83475 0 0 .90883 3.7518 1.0937)" gradientUnits="userSpaceOnUse" x1="21.347" x2="29.141" xlink:href="#a" y1="10.312" y2="10.312"/><filter id="d" color-interpolation-filters="sRGB" height="1.0004" width="1.0004" x="-.000214" y="-.000193"><feGaussianBlur stdDeviation=".00030868449"/></filter><filter id="e" color-interpolation-filters="sRGB" height="1.068" width="1.1619" x="-.080938" y="-.034006"><feGaussianBlur stdDeviation=".40686194"/></filter><linearGradient id="f" gradientTransform="matrix(1.0856 0 0 .94062 -2.7162 2.9415)" gradientUnits="userSpaceOnUse" x1="5.6115" x2="25.919" xlink:href="#a" y1="42.295" y2="42.295"/><linearGradient id="g" gradientTransform="matrix(1.0856 0 0 .94062 -2.7162 2.9415)" gradientUnits="userSpaceOnUse" x1="24.848" x2="45.155" xlink:href="#a" y1="42.295" y2="42.295"/><g clip-rule="evenodd" image-rendering="optimizeQuality" shape-rendering="geometricPrecision"><path d="m31.016 32.267 4.7259-5.9432-10.19-12.975h-.70082v-.01043h-.711l-10.19 12.975 4.7259 5.9431-1.5428 4.867c-.03112.38564 3.0951 2.0336 7.7132 2.0336 4.6178 0 7.7451-1.6481 7.7135-2.0336z" fill="url(#b)" fill-rule="evenodd" stroke="#000" stroke-linecap="round"/><path d="m24.826 7.6979c-1.5498 0-2.8068 1.239-2.8068 2.7674s1.2571 2.7672 2.8068 2.7672 2.8052-1.2394 2.8052-2.7672c0-1.5281-1.2555-2.7672-2.8052-2.7674z" style="stroke-linejoin:round;fill-rule:evenodd;stroke-linecap:round;stroke-width:.99998;stroke:#000;fill:url(#c)"/><path d="m22.096 24.66h5.5m-2.75-2.7499v5.5" fill="none" stroke="#000" stroke-linecap="round" stroke-linejoin="round"/><path d="m-549.75-422.16c3.4115 1.813.50125 4.9315-1.5259 5.2058.46165.19695.97797.31078 1.5259.31078 5.5278-1.76 1.3181-5.645 0-5.5166zm-.68784 5.5183c3.0916 4.115 5.8477 8.459 8.7241 12.709l-4.8064 5.1992 1.0894 4.4227 3.0008.86255-1.3539-4.6689 4.5724-5.8156-9.8594-12.698h-.67839v-.0107z" fill-rule="evenodd" filter="url(#e)" opacity=".15" transform="matrix(1.0334 0 0 1.0218 592.95 439.08)"/><path d="m26.073 35.618c-3.0872.01216-6.3973.50415-8.3688 1.7676 2.1814 1.5015 5.7983 1.8266 8.885 1.7697-7.1397-1.444 2.03-2.9656 4.8441-3.0007-1.5224-.36742-3.7096-.54321-5.3603-.53645z" fill-rule="evenodd" opacity=".15"/><path d="m17.134 37.123s1.9246-1.5659 7.7139-1.5659 7.7129 1.5659 7.7129 1.5659" fill="none" stroke="#000" stroke-width=".99998"/><path d="m18.676 32.256s1.863-1.0214 6.1752-1.0215c4.3122-.000061 6.1751 1.0215 6.1751 1.0215" fill="none" stroke="#000" stroke-width=".99998"/><g fill-rule="evenodd"><path d="m18.872 31.579s.0025.008 0 0l-4.1708-5.2588 9.7353-12.431-8.0753 12.385z" fill="#fff" opacity=".8"/><path d="m25 39.156c-5.6169.000061-7.2958-1.7704-7.2958-1.7704s1.6787-1.7703 7.2958-1.7704c5.6169-.000061 7.2958 1.7704 7.2958 1.7704s-1.6787 1.7703-7.2958 1.7704z" opacity=".15"/><path d="m22.488 39.156c-5.1931 6.2585-11.79-2.9152-18.533 3.4873l1.9679 3.6528c4.398-5.6719 18.915 5.2133 18.915-7.1401z" fill="url(#f)" stroke="#000" stroke-linecap="round" stroke-linejoin="round"/><path d="m27.188 39.156c5.1931 6.2585 11.79-2.9152 18.532 3.4873l-1.9679 3.6528c-4.398-5.6719-18.915 5.2133-18.915-7.1401z" fill="url(#g)" stroke="#000" stroke-linecap="round" stroke-linejoin="round"/><path d="m4.6722 42.735 1.4034 2.59-.34576-2.3335c3.1201-2.3871 5.9576-1.6194 8.0407-1.5984 0 0-5.852-1.9547-9.0983 1.3419z" fill="#fff"/><path d="m45.08 42.769-.4897.88855c-1.9053-2.3245-3.739-2.7553-5.3188-2.7602 0 0 3.0172-.71713 5.8085 1.8717z" fill="#fff"/><path d="m23.672 12.366c-.25001.06632-2.6033-2.4202.41766-3.9752-.08906-.0091-1.7573 2.1419-.41766 3.9752z" fill="#fff"/><path d="m603.76-67.566 1.0507-3.3086s.36875-.25609 1.4535-.4337c0 0-.74558 2.2238.50763 3.042-2.1537.33608-2.5358.55399-3.0118.70026z" fill="#fff" filter="url(#d)" opacity=".7" transform="matrix(1.0007 0 0 .98931 -586.04 102.79)"/></g></g></svg>