<svg clip-rule="evenodd" fill-rule="evenodd" height="50mm" image-rendering="optimizeQuality" shape-rendering="geometricPrecision" text-rendering="geometricPrecision" viewBox="0 0 50 50" width="50mm" xmlns="http://www.w3.org/2000/svg" xmlns:xlink="http://www.w3.org/1999/xlink"><linearGradient id="a" gradientTransform="matrix(.98495 0 0 .98605 .37559 .64119)" gradientUnits="userSpaceOnUse" x1="9.2407" x2="40.761" y1="27.266" y2="27.266"><stop offset="0" stop-color="#ece9df"/><stop offset="1" stop-color="#f4e0c8"/></linearGradient><linearGradient id="b" gradientTransform="matrix(.99995 0 0 .99606 740.69 393.31)" gradientUnits="userSpaceOnUse" x1="-736.5" x2="-696.5" xlink:href="#a" y1="-367.96" y2="-367.96"/><linearGradient id="c" gradientTransform="matrix(1.1045 0 0 1.0827 130.81 -314.94)" gradientUnits="userSpaceOnUse" x1="-116.32" x2="-77.199" xlink:href="#a" y1="299.9" y2="299.9"/><filter id="d" color-interpolation-filters="sRGB" height="1.0768" width="1.1277" x="-.063849" y="-.038425"><feGaussianBlur stdDeviation=".56999549"/></filter><filter id="e" color-interpolation-filters="sRGB" height="1.8339" width="1.469" x="-.23449" y="-.41695"><feGaussianBlur stdDeviation=".29904924"/></filter><filter id="f" color-interpolation-filters="sRGB" height="1.1975" width="1.2383" x="-.11914" y="-.098732"><feGaussianBlur stdDeviation=".46679525"/></filter><filter id="g" color-interpolation-filters="sRGB" height="1.1036" width="1.0894" x="-.044722" y="-.051812"><feGaussianBlur stdDeviation=".073036278"/></filter><filter id="h" color-interpolation-filters="sRGB" height="1.8226" width="1.6414" x="-.32068" y="-.41131"><feGaussianBlur stdDeviation="1.0129772"/></filter><filter id="i" color-interpolation-filters="sRGB" height="1.1394" width="1.4789" x="-.23947" y="-.069723"><feGaussianBlur stdDeviation=".27949598"/></filter><g clip-rule="evenodd" image-rendering="optimizeQuality" shape-rendering="geometricPrecision"><path d="m10.393 35.883c2.8869 2.407 4.1574-.70163 5.1782-3.0531 1.3976-3.9525 7.1276-1.8258 8.7327-6.795 2.8307 11.085-9.8645 8.3935-9.2638 20.261h28.386c1.9127-22.103-5.002-37.421-25.957-35.288-2.0835-2.1762-4.9922-3.5581-4.9922-3.5581-1.1294 2.0848-1.0123 4.7165.66682 5.722.43908.40095-3.527 2.0784-2.9954 7.8917 0 0-3.1925 5.3173-5.055 8.8118-1.3565 2.7316 1.0741 6.2645 4.5356 6.589" fill="url(#b)" fill-rule="evenodd" stroke="#000" stroke-dashoffset="1.852" stroke-linecap="round"/><path d="m16.859 17.328c-.0177.000996-.0353.003-.0529.006-2.9426.47858-3.352 3.258-3.352 3.258-.0599.29614.13177.58478.42873.64568.29788.06086.58888-.13039.64995-.42722 0 0 .17221-2.0231 2.4515-2.3938.30002-.04901.50335-.33111.45418-.63006-.046-.27865-.2967-.47699-.57947-.45842z" fill-rule="evenodd"/><path d="m16.7 19.572a1.1175 1.2045 69.395 0 1 -.94316 1.3664 1.1175 1.2045 69.395 0 1 -1.4008-.82495 1.1175 1.2045 69.395 0 1 .94316-1.3664 1.1175 1.2045 69.395 0 1 1.4008.82496z" fill-rule="evenodd"/><path d="m8.4188 29.95c-.14397.000996-.28172.05877-.38371.15996-.43847.43626-.66902.84933-.77915 1.1724-.11013.32303-.093995.61642-.093995.61642.028099.30081.29508.52234.59709.49549.30351-.02709.71483-.24787.68676-.55022 0 0-.013699-.000996.041098-.1619.054797-.16069.18302-.42084.51291-.74907.21538-.21429.027799-.60878-.18756-.82307-.10438-.10365-.24613-.16127-.39349-.15996z" fill-rule="evenodd"/><path d="m-718.42-382.86c17.099.6447 19.298 14.991 17.595 34.473h3.5261c1.7534-20.341-3.9138-34.957-21.011-35.602z" fill-rule="evenodd" filter="url(#d)" opacity=".15" transform="matrix(.99995 0 0 .99606 740.69 393.31)"/><path d="m17.454 12.38s.65237-4.1428 3.9004-4.8479c0 0 2.0788 1.0847 1.6635 5.9689" fill="url(#c)" fill-rule="evenodd" stroke="#000" stroke-linecap="round"/><path d="m12.206 33.765c-.3065.52617-1.4519 1.7466-2.5755 2.7012" fill="none" stroke="#000" stroke-linecap="round"/><g fill-rule="evenodd"><path d="m5.4273 30.42 4.1942-7.324 1.172-1.8919s-.79698-4.4145 2.7191-7.3808c-.0005.000996.55469-.61422.003-1.106-.55243-.49212-1.936-2.1287-.7527-4.3361-.077-.022013.27413 4.8058 4.3533 4.8639-3.9191 1.2493-6.111 4.9892-5.151 8.5822-.73559 1.1727-1.4576 2.0798-2.3743 3.2079-.82019 1.0093-1.7963 2.1954-3.0776 3.9069-.33953.45355-.7005.944-1.0857 1.4778z" fill="#fff" opacity=".8"/><path d="m15.757 45.676c-.74366-9.4346 10.084-8.7948 9.4383-17.61 1.1035 10.971-7.8835 9.1291-9.4383 17.61z" fill="#fff" opacity=".7"/><path d="m-733.97-364.25c-.0148.57251 1.587-1.8871 3.0607-.43886-.59811-1.4295-2.2181-1.9017-3.0607.43886z" fill="#fff" filter="url(#e)" transform="matrix(.99995 0 0 .99606 740.69 393.31)"/><path d="m18.027 12.578s.58013-3.6995 3.2487-4.4593c-1.5535 1.9713-1.745 5.1538-3.2487 4.4593z" fill="#fff" opacity=".8"/><path d="m-716.03-369.64c.40451-1.1844.32557-3.0516-.0308-3.6122-2.9586 8.6713-8.2447 5.492-9.101 11.347 1.6394-3.7075 7.8131-2.4199 9.1318-7.7344z" filter="url(#f)" opacity=".15" transform="matrix(.99995 0 0 .99606 740.69 393.31)"/><path d="m-723.87-377.47c-3.2168.61547-3.405 3.2769-3.405 3.2769s-.49877.21082-.49048-.32798c-.23069-.68798 1.2151-3.4747 3.8955-2.9489z" fill="#fff" filter="url(#g)" opacity=".8" transform="matrix(.99995 0 0 .99606 740.69 393.31)"/><path d="m-723.63-356.13c-6.5319-.82682-7.5812 5.8397-7.5812 5.8397 1.1097-2.0653 4.2941-4.784 7.5812-5.8397z" fill="#fff" filter="url(#h)" transform="matrix(.76507 0 0 .92137 575.69 349.88)"/></g><path d="m24.304 26.035s.39863-.9089.7437-3.4869" fill="none" stroke="#000" stroke-linecap="round" stroke-linejoin="round"/><path d="m23.987 32.169c.36428-.026 5.3704-6.2152 1.061-9.6208l-.51019 4.5568c.10743 1.6818.43691 3.3589-.55079 5.0641z" fill-rule="evenodd" filter="url(#i)" opacity=".15"/></g></svg>