<svg height="100" viewBox="-6 -6 112 112" width="100" xmlns="http://www.w3.org/2000/svg"><circle cx="50" cy="50" fill="#fda" r="48.5" stroke="#000" stroke-width="3"/><circle cx="50" cy="50" fill="none" r="43.5" stroke="#000" stroke-width="3"/><path d="m29.9 4.4c-.3.6 1.6 4.5 3.2 7l.8 1.1-3.8.4c-2 .3-6.1.6-9 .7-5.4.3-6.4.6-6.4 1.8 0 .3.3.9.7 1.3.6.5 1.4.6 4.8.8 2.3 0 6.3-.1 9-.3 9.3-.8 22.4-2.2 24.1-2.5 3-.7 3.5-2.6 1-3.8-2.2-1.2-3.9-1.3-6.9-.5-1.5.4-4 .9-5.6 1l-2.8.2v-1.8c0-1.5-.1-1.9-1.2-3-.8-.8-2.2-1.6-3.6-2.1-2.8-1-4-1.1-4.3-.3m13.7 12.3c-.1.1-.2.7-.2 1.3 0 2.3-1.6 6.2-5.1 12.8-.4.7-.7 1.3-.7 1.3 0 .1-1.1-.1-2.4-.5-1.9-.4-2.4-.5-2.8-.1-.6.5-.6.5-1.2-.9-.6-1.6-2.2-3-4.2-3.6l-1.8-.6 1.6-1.6c2.1-2 2.8-3.3 2.2-4.1-1-1.2-1.9-1.8-3.7-2.4-2.2-.7-2.7-.4-3 1.8-.3 2.9-3.2 7.7-7.6 12.4-1.5 1.7-1.7 3-.5 3.1 1 .2 4.9-2.3 7.2-4.5l2-2.1.9 1.6c1.1 1.8 3 3.6 4.2 3.9 1 .3 2.2-.3 2.5-1.2.6-1.9 1.2 0 1.2 3.8v2.4l-2.5.2c-1.4.1-5 .4-8 .7s-7.7.7-10.5.8c-4.5.2-5.1.3-5.2.9-.2.9 1.5 2.6 3.3 3.3 1.8.6 3.4.5 10.3-.7 2.8-.5 6.8-1 8.8-1.1l3.8-.3v11.5c-.1 12.1 0 13.2 1.5 13.6.3.2.9.1 1.2-.2 1.7-1.4 2.4-5.4 2.9-16.1.3-4.9.5-9 .6-9.1.1 0 5.7-.2 12.5-.3 6.7-.1 12.5-.3 12.9-.5.7-.3 1-1.2.8-2-.3-.8-3.3-2.2-5.5-2.7-1.4-.3-2.7-.3-6.2.3-2.4.3-6.7.7-9.4.9-5.7.2-5.6.3-4.4-2.7.4-1.1.5-1.6.2-2.1s-.1-.7 1.2-1.7c.9-.7 2.3-1.9 3.1-2.7l1.5-1.6 2 2.4c4.2 4.8 7.6 5.3 8.1 1.3.3-2.4-2-4.3-6.3-5.5-1.2-.3-2.1-.6-2.2-.6-.1-.1.7-1.4 1.8-2.8 1-1.4 1.9-2.7 1.9-2.9 0-.5-1.9-2-3.4-2.7-1.6-.7-2.9-.8-3.4-.4" transform="translate(15 14)"/></svg>