<?xml version="1.0" encoding="UTF-8" standalone="no"?>
<svg
   width="100"
   height="100"
   version="1.1"
   id="svg665"
   sodipodi:docname="black_king.svg"
   viewBox="-6 -6 112 112"
   inkscape:version="1.2.2 (b0a8486541, 2022-12-01)"
   xmlns:inkscape="http://www.inkscape.org/namespaces/inkscape"
   xmlns:sodipodi="http://sodipodi.sourceforge.net/DTD/sodipodi-0.dtd"
   xmlns="http://www.w3.org/2000/svg"
   xmlns:svg="http://www.w3.org/2000/svg"
   xmlns:rdf="http://www.w3.org/1999/02/22-rdf-syntax-ns#"
   xmlns:cc="http://creativecommons.org/ns#"
   xmlns:dc="http://purl.org/dc/elements/1.1/">
  <defs
     id="defs669" />
  <sodipodi:namedview
     id="namedview667"
     pagecolor="#ffffff"
     bordercolor="#666666"
     borderopacity="1.0"
     inkscape:showpageshadow="2"
     inkscape:pageopacity="0.0"
     inkscape:pagecheckerboard="0"
     inkscape:deskcolor="#d1d1d1"
     showgrid="false"
     inkscape:zoom="2.36"
     inkscape:cx="50.211864"
     inkscape:cy="50"
     inkscape:window-width="1920"
     inkscape:window-height="1022"
     inkscape:window-x="0"
     inkscape:window-y="0"
     inkscape:window-maximized="1"
     inkscape:current-layer="svg665" />
  <title
     id="title657">將</title>
  <!-- 此字型為全字庫正楷體，中華民國國家發展委員會，CNS11643中文標準交換碼全字庫網站，https://www.cns11643.gov.tw/。 -->
  <circle
     r="48.5"
     cx="50"
     cy="50"
     stroke-width="3"
     stroke="#000000"
     fill="#ffddaa"
     id="circle659" />
  <circle
     r="43.5"
     cx="50"
     cy="50"
     stroke-width="3"
     stroke="#000000"
     fill="none"
     id="circle661" />
  <path
     transform="translate(15,14)"
     fill="#000000"
     d="m 43.5,7.6 c -0.4,0.4 -1,1.6 -1.3,2.7 -0.4,1.2 -1.1,2.8 -1.6,3.5 -1,1.5 -5.3,5.7 -6.8,6.7 -0.6,0.4 -0.9,0.9 -0.8,1.3 0.1,1.2 1.7,1.2 4,-0.1 1.1,-0.6 2.2,-1.1 2.4,-1.1 0.6,0 6.1,5.2 6.1,5.8 0,0.9 -7.9,6.5 -11.8,8.3 -2.2,1 -2.6,1.6 -1.7,2.4 1.1,0.9 6.3,-0.9 11.5,-3.8 1.7,-1 3.2,-1.8 3.4,-1.8 0.4,0 1.6,3.6 1.3,4.3 -0.1,0.3 -2.2,0.6 -7.6,1.2 -4.2,0.5 -8.3,0.9 -9.3,0.9 -0.9,0.1 -2,0.2 -2.3,0.4 -0.5,0.2 -0.5,-0.4 -0.4,-6.7 0.2,-10.6 0.6,-16.5 1.3,-18.2 0.7,-1.8 0.4,-2.6 -1.5,-3.6 -2,-1 -3.8,-1.4 -4.8,-1 -1,0.3 -1,0.6 -0.2,4.1 0.4,1.9 0.5,6.1 0.2,9.9 -0.3,3.1 -0.1,2.9 -4.1,3.3 l -2.4,0.2 0.3,-2.4 c 0.1,-1.3 0.5,-3.2 0.8,-4.3 0.8,-2.4 0.5,-2.9 -2.1,-4.3 -3.3,-1.7 -4.6,-1.1 -3.9,1.9 0.5,1.9 0.4,3.9 -0.7,8.4 -0.8,3.4 -0.7,4.3 0.7,5.9 1.2,1.3 2.1,1.3 3.5,0.2 0.6,-0.5 2.5,-1.4 4.4,-2.1 l 3.4,-1.1 -0.1,4.3 -0.1,4.4 -4.9,0.8 c -3.1,0.5 -5.2,0.6 -5.5,0.5 -0.3,-0.2 -1.3,-0.4 -2.1,-0.4 -2.9,0 -3.2,1.5 -0.8,3.8 0.9,0.8 1.9,1.5 2.3,1.5 0.7,0 0.7,0.1 0.5,1.3 -0.3,1.7 -2.6,6.6 -4,8.6 -0.6,0.9 -1.9,2.5 -2.9,3.5 -2.8,2.9 -1.6,4 2.2,2 3.4,-1.8 6.6,-5.6 9.5,-11 2.4,-4.5 2.7,-5.4 2,-6 -0.3,-0.3 0.2,-0.6 1.5,-1.1 1,-0.4 1.9,-0.7 2,-0.6 0.3,0.2 -0.3,9.7 -0.9,12.8 -0.3,1.7 -0.5,3.7 -0.5,4.5 0,1.9 1.5,5.1 2.6,5.7 0.8,0.3 1,0.3 1.9,-0.6 1.9,-1.8 2.1,-3.2 2.1,-13.6 0,-5.1 0.1,-9.4 0.2,-9.4 0.1,0 0.8,0.4 1.7,0.9 2.4,1.5 3.7,1.7 6.3,1.1 1.2,-0.3 3.8,-0.7 5.8,-0.9 2.1,-0.2 4.3,-0.4 5,-0.5 l 1.3,-0.2 v 5.7 c 0,5.7 -0.4,10.6 -0.9,11.2 -0.2,0.1 -1.5,0 -3,-0.3 -2.9,-0.6 -3.8,-0.5 -3.8,0.4 0,0.8 7,8.2 7.8,8.2 1.3,0 3.7,-2.8 4.6,-5.1 0.8,-2.3 0.9,-4.4 0.6,-14.2 l -0.1,-5.7 6,-0.1 c 5.5,-0.1 6,-0.2 6.4,-0.8 0.5,-1.1 -0.5,-2.6 -2.4,-3.5 -1.8,-0.9 -2.9,-1 -7.2,-0.5 -1.5,0.1 -2.7,0.2 -2.7,0.1 0,-0.1 0.2,-1 0.4,-2.1 0.4,-2.2 0,-2.8 -2.6,-3.6 L 50,29 52.7,26.1 c 1.5,-1.5 3.6,-3.9 4.7,-5.2 1,-1.3 2.5,-2.7 3.2,-3.2 1.5,-1 2,-2.3 1.3,-3.2 -0.8,-1.1 -4.6,-3.3 -5.4,-3.3 -0.5,0 -1.8,0.4 -3,0.9 -2.1,0.9 -5.2,1.5 -5.2,1.1 0,-0.2 0.4,-0.7 1,-1.1 0.9,-0.8 0.9,-0.9 0.4,-1.8 C 49.3,9.6 48.3,8.9 46.7,8.2 44.3,7.1 44.1,7.1 43.5,7.6 m 9.3,10.3 c -0.4,0.7 -1.4,2 -2.2,3 l -1.3,1.9 -1.5,-1.4 c -1.3,-1.1 -2.9,-2 -4.8,-2.6 -0.4,-0.1 -0.7,-0.4 -0.7,-0.5 0,-0.6 1.4,-0.8 4.6,-0.8 1.6,-0.1 3.4,-0.2 4,-0.4 0.6,-0.1 1.4,-0.2 1.9,-0.3 h 0.8 l -0.8,1.1 M 39,25.4 c -1.5,0.4 -3.7,0.8 -4.8,0.8 -2.5,0.1 -3.8,0.5 -3.8,1.4 0,0.8 3.4,3.9 4.2,3.9 0.4,0 1.4,-0.5 2.4,-1.1 0.9,-0.6 2.9,-1.8 4.4,-2.8 2,-1.2 2.7,-1.9 2.6,-2.3 -0.1,-0.9 -1.7,-0.9 -5,0.1 m -5.3,17.5 c -0.8,0.4 -0.5,1.5 1.5,4.7 2.2,3.5 3.3,4.6 4.7,4.5 1.7,0 2.8,-1.5 2.8,-3.8 0,-1.3 -0.2,-1.7 -1.4,-2.8 -1.7,-1.7 -6.2,-3.2 -7.6,-2.6"
     id="path663" />
  <metadata
     id="metadata17836">
    <rdf:RDF>
      <cc:Work
         rdf:about="">
        <dc:title>將</dc:title>
      </cc:Work>
    </rdf:RDF>
  </metadata>
</svg>
