<?xml version="1.0" encoding="UTF-8"?>
<svg width="100" height="100"
	xmlns="http://www.w3.org/2000/svg">
	<title>卒</title>
	<!-- 此字型為全字庫正楷體，中華民國國家發展委員會，CNS11643中文標準交換碼全字庫網站，https://www.cns11643.gov.tw/。 -->
	<circle r="48.5" cx="50" cy="50" stroke-width="3" stroke="#000" fill="#fda"/>
	<circle r="43.5" cx="50" cy="50" stroke-width="3" stroke="#000" fill="none"/>
	<path transform="translate(15,14)" fill="#000" d="M29.9 4.4 C29.6 5.0,31.5 8.9,33.1 11.4 L33.9 12.5 30.1 12.9 C28.1 13.2,24.0 13.5,21.1 13.6 C15.7 13.9,14.7 14.2,14.7 15.4 C14.7 15.7,15.0 16.3,15.4 16.7 C16.0 17.2,16.8 17.3,20.2 17.5 C22.5 17.5,26.5 17.4,29.2 17.2 C38.5 16.4,51.6 15.0,53.3 14.7 C56.3 14.0,56.8 12.1,54.3 10.9 C52.1 9.7,50.4 9.6,47.4 10.4 C45.9 10.8,43.4 11.3,41.8 11.4 L39.0 11.6 39.0 9.8 C39.0 8.3,38.9 7.9,37.8 6.8 C37.0 6.0,35.6 5.2,34.2 4.7 C31.4 3.7,30.2 3.6,29.9 4.4 M43.6 16.7 C43.5 16.8,43.4 17.4,43.4 18.0 C43.4 20.3,41.8 24.2,38.3 30.8 C37.9 31.5,37.6 32.1,37.6 32.1 C37.6 32.2,36.5 32.0,35.2 31.6 C33.3 31.2,32.8 31.1,32.4 31.5 C31.8 32.0,31.8 32.0,31.2 30.6 C30.6 29.0,29.0 27.6,27.0 27.0 L25.2 26.4 26.8 24.8 C28.9 22.8,29.6 21.5,29.0 20.7 C28.0 19.5,27.1 18.9,25.3 18.3 C23.1 17.6,22.6 17.9,22.3 20.1 C22.0 23.0,19.1 27.8,14.7 32.5 C13.2 34.2,13.0 35.5,14.2 35.6 C15.2 35.8,19.1 33.3,21.4 31.1 L23.4 29.0 24.3 30.6 C25.4 32.4,27.3 34.2,28.5 34.5 C29.5 34.8,30.7 34.2,31.0 33.3 C31.6 31.4,32.2 33.3,32.2 37.1 L32.2 39.5 29.7 39.7 C28.3 39.8,24.7 40.1,21.7 40.4 C18.7 40.7,14.0 41.1,11.2 41.2 C6.7 41.4,6.1 41.5,6.0 42.1 C5.8 43.0,7.5 44.7,9.3 45.4 C11.1 46.0,12.7 45.9,19.6 44.7 C22.4 44.2,26.4 43.7,28.4 43.6 L32.2 43.3 32.2 54.8 C32.1 66.9,32.2 68.0,33.7 68.4 C34.0 68.6,34.6 68.5,34.9 68.2 C36.6 66.8,37.3 62.8,37.8 52.1 C38.1 47.2,38.3 43.1,38.4 43.0 C38.5 43.0,44.1 42.8,50.9 42.7 C57.6 42.6,63.4 42.4,63.8 42.2 C64.5 41.9,64.8 41.0,64.6 40.2 C64.3 39.4,61.3 38.0,59.1 37.5 C57.7 37.2,56.4 37.2,52.9 37.8 C50.5 38.1,46.2 38.5,43.5 38.7 C37.8 38.9,37.9 39.0,39.1 36.0 C39.5 34.9,39.6 34.4,39.3 33.9 C39.0 33.4,39.2 33.2,40.5 32.2 C41.4 31.5,42.8 30.3,43.6 29.5 L45.1 27.9 47.1 30.3 C51.3 35.1,54.7 35.6,55.2 31.6 C55.5 29.2,53.2 27.3,48.9 26.1 C47.7 25.8,46.8 25.5,46.7 25.5 C46.6 25.4,47.4 24.1,48.5 22.7 C49.5 21.3,50.4 20.0,50.4 19.8 C50.4 19.3,48.5 17.8,47.0 17.1 C45.4 16.4,44.1 16.3,43.6 16.7 "/>
</svg>
