<svg height="100" viewBox="-6 -6 112 112" width="100" xmlns="http://www.w3.org/2000/svg"><circle cx="50" cy="50" fill="#fda" r="48.5" stroke="#000" stroke-width="3"/><circle cx="50" cy="50" fill="none" r="43.5" stroke="#000" stroke-width="3"/><path d="m45.3 7.7c-5.6 1.7-19.7 3.2-21.9 2.5-1.6-.6-3.6-.5-4.2.1-.3.5-.3.9.3 2.1 1.1 2.2 1.3 5.1.8 11.6-.5 7-.9 9.7-1.8 11.4-.7 1.5-.5 2.4.9 4.4 1.3 1.6 2 1.7 4.5.7 2.9-1.2 6.2-1.9 11.8-2.5 5.8-.7 16.6-1.3 17.7-1 1.3.3 1.4 1.4.7 7-1 8.1-2.5 13-4.2 13.4-.4 0-2-.4-3.6-.9-2.6-.9-2.9-1-3.4-.5s-.4.8 1.4 3.3c1.1 1.6 2.4 3.6 2.9 4.6.8 1.5 1.1 1.7 2.1 1.8 2.4.3 6.4-3.4 8.1-7.4 1.2-2.8 1.7-5.4 2.5-11.9.5-5.1.8-6.6 1.5-8 1.5-2.9 1.3-3.3-3.1-5.4l-2.7-1.3-3.7.6c-2.1.3-6 .7-8.8.8l-5 .3v-1.8c0-2.2-.4-2 6.1-2.7 4.9-.6 6.3-1 6.5-2.2.2-1.6-3.7-2.8-7.3-2.2-1.3.2-2.9.3-3.6.3-1.3 0-1.3 0-1.3-1.3 0-.8.1-1.5.3-1.6.1-.1 2.2-.4 4.6-.7 5.3-.7 6.5-1.1 6.9-2 .5-1.8-3.5-3.1-7.6-2.5-1.3.3-2.8.4-3.3.4-.8 0-.8 0-.5-1.4.2-.9.4-1.8.5-2.2 0-.6.7-.8 5.5-1.5 5.8-.8 6.9-1.1 6.9-2.2 0-1.8-3.6-2.9-6.5-2.1m-13 6.9c.2.3.2 1.3.2 2.2v1.7l-2.1.2c-1.2.1-2.8.2-3.5.2-1.3 0-1.3-.1-1.3-1.1 0-.7.1-1.8.2-2.5l.2-1.3h3.1c2.4 0 3.1.1 3.2.6m.2 9.8v1.7l-2.8.3c-4.9.4-4.9.4-4.8-.9 0-2.6 0-2.6 4-2.7l3.6-.1zm0 8.1v2.1l-2.1.4c-1.2.2-3.2.4-4.3.6-2.1.2-2.1.2-1.8-.6.1-.5.2-1.6.2-2.5v-1.7l3.1-.1c1.6-.1 3.5-.1 4-.2.9 0 .9 0 .9 2m7.1 8.9c-.4.5-.4.7.1 1.5 1.1 1.7 5.2 6.2 6.3 6.8 1.3.9 2.7.4 3.5-1.2 1.4-3 .2-5-4-6.3-4-1.3-5.4-1.4-5.9-.8m-27.5 1c-.3.5-.6 1.4-.7 2-.2.7-1 2.6-1.8 4.2-1.3 2.3-1.5 3.2-1.5 4.7 0 2.6.9 4.1 2.6 4.1 1 0 1.4-.2 2.2-1.4 2.5-3.4 3.5-10.3 1.9-13-.8-1.4-2-1.7-2.7-.6m17.6 1.1c0 1.1 3.1 5.7 4.6 7 1.4 1.2 1.9 1.2 3.2-.1 1-1 1.1-1.2.9-2.8-.1-1.2-.4-2.1-1-2.6-1-1.2-4.1-2.3-6.1-2.3-1.4 0-1.6.1-1.6.8m-10 .1c-.7.3-.5 1.1 1.2 4.2 2.1 3.9 4 5.5 5.6 4.4 1.2-.8 1.5-3.6.6-5.3-.8-1.6-6-3.9-7.4-3.3" transform="translate(15 14)"/></svg>