<svg height="100" viewBox="-6 -6 112 112" width="100" xmlns="http://www.w3.org/2000/svg"><circle cx="50" cy="50" fill="#fda" r="48.5" stroke="#000" stroke-width="3"/><circle cx="50" cy="50" fill="none" r="43.5" stroke="#000" stroke-width="3"/><path d="m38.9 7.1c-.1.2-.4 1.2-.5 2.2-.3 2.3-1.4 5.7-2.9 8.7-1.2 2.4-5.2 8.6-7.5 11.6-1.2 1.5-1.1 2.6.1 2.6 1.1 0 4.8-2.9 7.5-5.8 2.4-2.6 2.4-2.6 3.6-2.2.9.3 1.6.2 3.9-.3 1.6-.4 4.7-.9 6.8-1 5.1-.3 4.9-.6 4.4 6.2-.4 5.5-.8 7.4-1.7 9.1-.6 1.2-1.2 1.2-3.1.2-1.4-.7-2.6-.7-2.6.2 0 .2.8 2.1 1.9 4.1 1.7 3.6 1.9 3.7 3.1 3.8 2.5.2 6.1-3.7 6.8-7.5.3-1.1.7-4.6 1-7.7.4-3.8.8-6 1.2-7.1.4-.8.7-1.7.7-2 0-.7-2.7-3-4.4-3.7-1.2-.5-1.7-.6-2.4-.3-1.4.5-14.2 2.5-14.6 2.2-.2-.1-.1-.5.3-.9s1.3-1.8 2-3.1c.8-1.2 1.8-2.8 2.4-3.4.5-.7.9-1.5.9-1.9 0-.9-1.7-2.7-3.5-3.6-1.9-.9-2.8-1.1-3.4-.4m-14.8 12.3c-1.6.6-8.9 2.1-11.6 2.5-1.7.2-2.5.8-2.1 1.7.2.7 1.9 1.6 3.1 1.6.5 0 1.2.2 1.6.4.6.3.6.4.1 2.1-1.5 4.9-6 11.8-10.3 15.7-2.8 2.5-3.3 3.3-2.3 3.7 1.4.5 6.4-1.9 9-4.3 1.2-1.1 1.2-1.1 1.7 3.7.4 4.1 1 5.4 2.5 5.6.6.1 1.1-.2 1.5-.7.4-.6 1.1-.8 4.9-1.2 5.3-.6 6.3-1.1 4.9-2.6-.4-.5-.3-1 .7-4 .6-2 1.6-4.2 2.1-5.1l1.1-1.5-1.2-1c-.6-.5-2-1.2-3.1-1.5-1.9-.6-2-.6-3.6.1-1.6.9-4.6 1.8-5.7 1.8-.4 0-.2-.6 1.1-2.8 2.5-4.2 2.8-4.6 3.6-5.6.7-.9.7-1 .2-2-.8-1.4-.8-1.5.2-1.5 1.5 0 8.7-2 9-2.5.6-.8.4-1.3-.7-2.1-1.4-.9-4.5-1.2-6.7-.5m17.2 10.3c-1.7.8-2.3.9-5.7.9-3.7-.1-3.8 0-4 .8-.1.4 0 1.3.2 2 .3.7.4 4.3.3 10.6-.1 9.2-.1 9.4.8 11.2 1.6 3.6 5.6 6 11.4 6.9 7.7 1.3 19.3-.8 22.5-4.1 1.7-1.8 1.8-2.5.7-5-.5-1.1-1.2-3.3-1.4-4.9-.4-2.9-.7-3.7-1.7-3.6-1.1 0-1.4.6-1.9 3.6-.7 4-1.1 4.9-2.5 6.1-2.1 1.9-4.4 2.3-11.7 2.3-6.2 0-6.5 0-8.2-.9-1-.4-2.1-1.3-2.5-2-1-1.4-1.4-5-1-7.5l.3-1.8 4.3-.4c3.3-.2 4.4-.5 4.9-.9.5-.6.5-.7 0-1.3-.5-.5-.6-.9-.3-1.3.2-.4.7-1.7 1.1-3 .4-1.2 1.2-2.8 1.7-3.5 1.9-2.4 1.8-2.6-1.5-4.2-2.6-1.2-3.3-1.2-5.8 0m.1 7.6-.6 2.8-1.9.3c-1 .2-1.9.2-2 .1-.3-.3.6-5.6.9-6 .2-.2 1.1-.5 2.2-.7 2.2-.5 2.3-.5 1.4 3.5m-18.3 2c0 .4-.3 2.1-.6 3.8-.6 3.4-.7 3.4-3.5 3.4h-1.5l-.1-3.5-.1-3.5 1.2-.2c.7-.1 1.9-.3 2.7-.4.7-.2 1.5-.3 1.6-.4.2 0 .3.3.3.8" transform="translate(15 14)"/></svg>