<?xml version="1.0" encoding="UTF-8"?>
<svg width="100" height="100"
	xmlns="http://www.w3.org/2000/svg">
	<title>車</title>
	<!-- 此字型為全字庫正楷體，中華民國國家發展委員會，CNS11643中文標準交換碼全字庫網站，https://www.cns11643.gov.tw/。 -->
	<circle r="48.5" cx="50" cy="50" stroke-width="3" stroke="#000" fill="#fda"/>
	<circle r="43.5" cx="50" cy="50" stroke-width="3" stroke="#000" fill="none"/>
	<path transform="translate(15,14)" fill="#000" d="M31.2 2.6 C30.7 3.2,30.8 3.9,31.5 7.5 C31.7 8.6,31.8 10.1,31.8 10.8 L31.7 12.0 29.0 12.5 C27.6 12.7,24.8 13.1,22.8 13.3 C20.7 13.5,19.0 13.8,18.9 14.1 C18.4 14.8,19.3 16.1,20.7 16.6 C22.2 17.2,26.9 17.3,29.8 16.8 C30.8 16.7,31.6 16.7,31.7 16.8 C31.8 17.0,31.7 18.0,31.6 19.2 L31.4 21.3 29.4 21.5 C28.4 21.7,25.3 21.8,22.5 21.9 C19.8 21.9,17.4 22.1,17.2 22.2 C16.7 22.5,16.7 23.7,17.2 24.0 C18.1 24.6,18.9 27.2,19.6 32.2 C20.4 38.7,20.9 40.6,21.6 41.4 C22.3 42.2,23.5 42.2,24.3 41.3 C24.8 40.8,25.5 40.6,28.0 40.5 L31.2 40.4 31.1 42.7 L31.0 45.0 24.5 45.6 C20.9 45.9,15.3 46.3,11.9 46.6 C5.0 47.0,4.3 47.2,5.4 48.8 C6.2 50.1,8.8 51.7,10.5 52.0 C11.4 52.1,12.6 52.0,14.2 51.5 C17.0 50.6,23.7 49.5,28.1 49.1 L31.1 48.9 31.1 56.5 C31.1 64.6,31.5 67.3,32.6 67.9 C33.6 68.5,34.8 67.0,35.3 64.7 C35.8 62.4,36.3 57.4,36.6 52.5 L36.8 48.7 38.3 48.5 C39.1 48.3,45.1 48.2,51.8 48.1 C64.5 47.9,65.5 47.8,65.5 46.3 C65.5 45.3,63.4 43.5,61.0 42.5 C58.8 41.6,58.7 41.5,56.9 42.1 C54.1 43.0,38.6 44.5,37.3 44.0 C36.9 43.8,36.8 43.3,36.8 42.0 C36.7 41.1,36.9 40.2,37.1 40.0 C37.4 39.9,38.8 39.7,40.3 39.5 C43.0 39.2,43.1 39.3,44.1 40.3 C45.3 41.5,46.2 41.6,47.5 40.4 C48.7 39.5,49.3 37.8,51.5 30.3 C52.1 28.2,53.0 25.8,53.5 25.0 C54.9 22.9,55.0 22.5,54.2 21.3 C53.4 20.1,49.0 17.8,47.4 17.8 C46.8 17.8,45.4 18.2,44.2 18.6 C43.1 19.0,41.1 19.4,39.8 19.5 L37.4 19.7 37.4 17.6 L37.4 15.5 40.0 15.2 C45.5 14.7,50.1 13.7,50.9 13.0 C51.8 12.1,51.4 11.3,49.6 10.4 C47.9 9.6,45.4 9.5,41.6 10.3 C37.5 11.1,37.7 11.1,38.0 9.2 C38.1 8.3,38.4 7.2,38.6 6.8 C39.2 5.4,38.5 4.4,35.9 3.2 C33.5 2.0,31.8 1.8,31.2 2.6 M46.0 24.8 C45.9 25.9,45.7 26.8,45.7 26.9 C45.6 26.9,44.9 26.8,44.1 26.6 C42.9 26.3,42.2 26.3,40.2 26.8 C38.9 27.1,37.6 27.2,37.4 27.1 C37.0 26.8,37.0 23.9,37.5 23.6 C37.9 23.3,41.8 22.8,44.2 22.8 L46.3 22.8 46.0 24.8 M31.5 26.4 C31.5 27.5,31.4 28.4,31.2 28.5 C31.1 28.6,29.5 28.7,27.7 28.7 L24.4 28.9 24.1 27.2 C23.9 26.2,23.9 25.4,24.0 25.2 C24.2 25.1,26.8 24.8,30.5 24.6 C31.5 24.5,31.5 24.5,31.5 26.4 M45.0 30.9 C45.0 31.2,44.6 32.3,44.3 33.5 L43.7 35.7 40.7 35.7 C39.1 35.7,37.7 35.7,37.5 35.7 C37.4 35.7,37.3 34.8,37.3 33.7 L37.3 31.7 40.6 31.1 C45.0 30.4,45.3 30.4,45.0 30.9 M31.5 34.1 C31.5 36.7,31.5 36.8,28.0 36.8 L24.8 36.8 24.8 35.4 C24.8 34.6,24.8 33.8,24.6 33.5 C24.4 32.9,24.6 32.9,30.2 32.6 L31.5 32.5 31.5 34.1 "/>
</svg>
