<?xml version="1.0" encoding="UTF-8"?>
<svg width="100" height="100"
	xmlns="http://www.w3.org/2000/svg">
	<title>將</title>
	<!-- 此字型為全字庫正楷體，中華民國國家發展委員會，CNS11643中文標準交換碼全字庫網站，https://www.cns11643.gov.tw/。 -->
	<circle r="48.5" cx="50" cy="50" stroke-width="3" stroke="#000" fill="#fda"/>
	<circle r="43.5" cx="50" cy="50" stroke-width="3" stroke="#000" fill="none"/>
	<path transform="translate(15,14)" fill="#000" d="M43.5 7.6 C43.1 8.0,42.5 9.2,42.2 10.3 C41.8 11.5,41.1 13.1,40.6 13.8 C39.6 15.3,35.3 19.5,33.8 20.5 C33.2 20.9,32.9 21.4,33.0 21.8 C33.1 23.0,34.7 23.0,37.0 21.7 C38.1 21.1,39.2 20.6,39.4 20.6 C40.0 20.6,45.5 25.8,45.5 26.4 C45.5 27.3,37.6 32.9,33.7 34.7 C31.5 35.7,31.1 36.3,32.0 37.1 C33.1 38.0,38.3 36.2,43.5 33.3 C45.2 32.3,46.7 31.5,46.9 31.5 C47.3 31.5,48.5 35.1,48.2 35.8 C48.1 36.1,46.0 36.4,40.6 37.0 C36.4 37.5,32.3 37.9,31.3 37.9 C30.4 38.0,29.3 38.1,29.0 38.3 C28.5 38.5,28.5 37.9,28.6 31.6 C28.8 21.0,29.2 15.1,29.9 13.4 C30.6 11.6,30.3 10.8,28.4 9.8 C26.4 8.8,24.6 8.4,23.6 8.8 C22.6 9.1,22.6 9.4,23.4 12.9 C23.8 14.8,23.9 19.0,23.6 22.8 C23.3 25.9,23.5 25.7,19.5 26.1 L17.1 26.3 17.4 23.9 C17.5 22.6,17.9 20.7,18.2 19.6 C19.0 17.2,18.7 16.7,16.1 15.3 C12.8 13.6,11.5 14.2,12.2 17.2 C12.7 19.1,12.6 21.1,11.5 25.6 C10.7 29.0,10.8 29.9,12.2 31.5 C13.4 32.8,14.3 32.8,15.7 31.7 C16.3 31.2,18.2 30.3,20.1 29.6 L23.5 28.5 23.4 32.8 L23.3 37.2 18.4 38.0 C15.3 38.5,13.2 38.6,12.9 38.5 C12.6 38.3,11.6 38.1,10.8 38.1 C7.9 38.1,7.6 39.6,10.0 41.9 C10.9 42.7,11.9 43.4,12.3 43.4 C13.0 43.4,13.0 43.5,12.8 44.7 C12.5 46.4,10.2 51.3,8.8 53.3 C8.2 54.2,6.9 55.8,5.9 56.8 C3.1 59.7,4.3 60.8,8.1 58.8 C11.5 57.0,14.7 53.2,17.6 47.8 C20.0 43.3,20.3 42.4,19.6 41.8 C19.3 41.5,19.8 41.2,21.1 40.7 C22.1 40.3,23.0 40.0,23.1 40.1 C23.4 40.3,22.8 49.8,22.2 52.9 C21.9 54.6,21.7 56.6,21.7 57.4 C21.7 59.3,23.2 62.5,24.3 63.1 C25.1 63.4,25.3 63.4,26.2 62.5 C28.1 60.7,28.3 59.3,28.3 48.9 C28.3 43.8,28.4 39.5,28.5 39.5 C28.6 39.5,29.3 39.9,30.2 40.4 C32.6 41.9,33.9 42.1,36.5 41.5 C37.7 41.2,40.3 40.8,42.3 40.6 C44.4 40.4,46.6 40.2,47.3 40.1 L48.6 39.9 48.6 45.6 C48.6 51.3,48.2 56.2,47.7 56.8 C47.5 56.9,46.2 56.8,44.7 56.5 C41.8 55.9,40.9 56.0,40.9 56.9 C40.9 57.7,47.9 65.1,48.7 65.1 C50.0 65.1,52.4 62.3,53.3 60.0 C54.1 57.7,54.2 55.6,53.9 45.8 L53.8 40.1 59.8 40.0 C65.3 39.9,65.8 39.8,66.2 39.2 C66.7 38.1,65.7 36.6,63.8 35.7 C62.0 34.8,60.9 34.7,56.6 35.2 C55.1 35.3,53.9 35.4,53.9 35.3 C53.9 35.2,54.1 34.3,54.3 33.2 C54.7 31.0,54.3 30.4,51.7 29.6 L50.0 29.0 52.7 26.1 C54.2 24.6,56.3 22.2,57.4 20.9 C58.4 19.6,59.9 18.2,60.6 17.7 C62.1 16.7,62.6 15.4,61.9 14.5 C61.1 13.4,57.3 11.2,56.5 11.2 C56.0 11.2,54.7 11.6,53.5 12.1 C51.4 13.0,48.3 13.6,48.3 13.2 C48.3 13.0,48.7 12.5,49.3 12.1 C50.2 11.3,50.2 11.2,49.7 10.3 C49.3 9.6,48.3 8.9,46.7 8.2 C44.3 7.1,44.1 7.1,43.5 7.6 M52.8 17.9 C52.4 18.6,51.4 19.9,50.6 20.9 L49.3 22.8 47.8 21.4 C46.5 20.3,44.9 19.4,43.0 18.8 C42.6 18.7,42.3 18.4,42.3 18.3 C42.3 17.7,43.7 17.5,46.9 17.5 C48.5 17.4,50.3 17.3,50.9 17.1 C51.5 17.0,52.3 16.9,52.8 16.8 L53.6 16.8 52.8 17.9 M39.0 25.4 C37.5 25.8,35.3 26.2,34.2 26.2 C31.7 26.3,30.4 26.7,30.4 27.6 C30.4 28.4,33.8 31.5,34.6 31.5 C35.0 31.5,36.0 31.0,37.0 30.4 C37.9 29.8,39.9 28.6,41.4 27.6 C43.4 26.4,44.1 25.7,44.0 25.3 C43.9 24.4,42.3 24.4,39.0 25.4 M33.7 42.9 C32.9 43.3,33.2 44.4,35.2 47.6 C37.4 51.1,38.5 52.2,39.9 52.1 C41.6 52.1,42.7 50.6,42.7 48.3 C42.7 47.0,42.5 46.6,41.3 45.5 C39.6 43.8,35.1 42.3,33.7 42.9 "/>
</svg>
