<?xml version="1.0" encoding="UTF-8"?>
<svg width="100" height="100"
	xmlns="http://www.w3.org/2000/svg">
	<title>象</title>
	<!-- 此字型為全字庫正楷體，中華民國國家發展委員會，CNS11643中文標準交換碼全字庫網站，https://www.cns11643.gov.tw/。 -->
	<circle r="48.5" cx="50" cy="50" stroke-width="3" stroke="#000" fill="#fda"/>
	<circle r="43.5" cx="50" cy="50" stroke-width="3" stroke="#000" fill="none"/>
	<path transform="translate(15,14)" fill="#000" d="M26.2 3.5 C25.9 3.7,25.4 4.6,25.0 5.5 C24.4 7.5,20.0 12.9,17.2 15.1 C15.4 16.6,14.9 17.7,15.9 18.1 C16.8 18.4,19.8 17.2,22.6 15.2 C25.2 13.5,25.5 13.4,27.0 13.5 C27.9 13.6,29.4 13.6,30.4 13.3 C31.5 13.1,32.4 13.0,32.5 13.1 C32.6 13.2,31.5 14.5,30.0 16.0 L27.4 18.7 20.6 18.8 C16.9 18.9,13.8 19.0,13.6 19.1 C13.1 19.4,13.3 20.2,14.1 21.1 C15.1 22.2,15.2 22.3,15.9 26.2 C16.2 27.8,16.7 29.5,17.0 30.1 C17.7 31.6,18.9 32.0,19.8 31.1 C20.2 30.8,21.3 30.4,22.4 30.2 L24.3 30.0 21.4 32.6 C19.9 34.0,16.7 36.3,14.5 37.7 C10.4 40.1,9.5 41.1,10.7 41.5 C12.1 42.1,19.2 39.2,23.3 36.6 C25.9 34.8,26.0 34.8,26.6 35.5 C27.6 36.7,19.2 43.4,12.4 46.9 C10.3 48.0,8.6 49.1,8.6 49.3 C8.6 50.9,11.1 50.6,16.5 48.7 C20.9 47.1,28.3 42.0,29.7 39.7 C30.0 39.1,30.1 39.1,30.4 39.5 C31.3 40.8,30.8 41.7,27.7 44.8 C23.4 48.9,19.3 51.8,13.0 54.9 C10.1 56.3,7.7 57.7,7.7 57.9 C7.7 58.2,7.9 58.6,8.2 58.8 C8.7 59.2,9.3 59.2,11.5 58.6 C17.8 57.2,24.2 54.1,28.9 50.3 C30.5 49.0,32.0 48.0,32.0 47.9 C32.4 47.9,32.2 51.8,31.7 53.7 C30.9 56.5,30.1 57.9,29.1 58.0 C28.6 58.1,27.2 57.8,25.8 57.4 C23.6 56.7,23.4 56.6,22.8 57.2 C22.3 57.7,22.4 57.9,24.4 59.9 C25.5 61.1,27.1 63.0,28.0 64.1 C29.6 66.4,30.3 66.7,31.7 66.1 C36.0 64.5,38.7 56.3,37.8 47.8 C37.6 46.1,37.5 44.6,37.5 44.6 C37.6 44.5,38.9 45.9,40.3 47.7 C47.0 55.7,49.6 58.2,51.6 58.6 C54.0 59.1,62.4 57.1,63.1 55.9 C63.6 54.9,63.1 54.6,59.8 53.9 C56.4 53.1,50.7 50.4,47.9 48.2 C46.8 47.4,44.4 45.3,42.6 43.5 L39.3 40.3 43.3 38.3 C45.5 37.2,47.9 36.2,48.6 36.1 C50.0 35.9,50.6 35.0,50.0 33.9 C48.6 31.1,46.0 29.2,44.6 29.8 C44.2 29.9,43.7 30.5,43.5 31.1 C43.0 32.3,40.0 36.0,38.3 37.3 C37.1 38.2,37.1 38.2,35.6 37.7 C34.8 37.4,33.7 36.6,33.2 35.9 C32.6 35.2,31.5 34.2,30.6 33.7 L28.9 32.8 30.0 32.3 C31.1 31.9,31.7 30.9,31.3 30.0 C31.1 29.6,31.5 29.4,33.5 29.2 C34.8 29.1,36.6 29.0,37.5 28.9 C39.0 28.8,39.2 28.8,39.8 29.7 C40.6 30.8,42.3 30.9,43.4 29.9 C43.8 29.5,44.9 27.7,45.9 25.9 C46.8 24.1,48.0 22.0,48.6 21.2 C49.5 20.1,49.6 19.8,49.3 19.0 C48.8 18.1,45.3 15.8,43.8 15.5 C43.3 15.4,41.5 15.7,39.9 16.2 C38.3 16.7,36.2 17.2,35.2 17.3 L33.5 17.6 34.7 16.5 C36.8 14.8,40.0 12.4,41.2 11.8 C42.7 11.0,42.9 10.4,42.2 9.3 C41.6 8.3,39.0 7.0,37.7 7.0 C37.2 7.0,35.3 7.6,33.5 8.3 C31.6 9.0,30.0 9.4,29.8 9.3 C29.7 9.1,29.9 8.8,30.2 8.6 C32.0 7.6,32.3 7.1,32.1 6.2 C31.9 5.5,31.3 5.0,29.7 4.2 C27.4 3.1,27.1 3.0,26.2 3.5 M41.6 21.0 C41.6 21.5,41.4 22.7,41.0 23.6 L40.3 25.4 36.6 25.5 L32.9 25.6 32.9 23.3 C32.9 21.7,33.0 21.0,33.3 21.0 C33.6 21.0,35.0 20.7,36.6 20.5 C40.6 19.8,41.5 19.9,41.6 21.0 M28.0 24.1 L28.0 26.6 24.4 26.6 L20.7 26.6 20.5 24.6 C20.4 23.5,20.4 22.5,20.5 22.4 C20.7 22.2,24.1 21.9,26.7 21.8 L28.0 21.7 28.0 24.1 "/>
</svg>
