<?xml version="1.0" encoding="UTF-8" standalone="no"?>
<svg
   width="100"
   height="100"
   version="1.1"
   id="svg534"
   sodipodi:docname="black_horse.svg"
   viewBox="-6 -6 112 112"
   inkscape:version="1.2.2 (b0a8486541, 2022-12-01)"
   xmlns:inkscape="http://www.inkscape.org/namespaces/inkscape"
   xmlns:sodipodi="http://sodipodi.sourceforge.net/DTD/sodipodi-0.dtd"
   xmlns="http://www.w3.org/2000/svg"
   xmlns:svg="http://www.w3.org/2000/svg"
   xmlns:rdf="http://www.w3.org/1999/02/22-rdf-syntax-ns#"
   xmlns:cc="http://creativecommons.org/ns#"
   xmlns:dc="http://purl.org/dc/elements/1.1/">
  <defs
     id="defs538" />
  <sodipodi:namedview
     id="namedview536"
     pagecolor="#ffffff"
     bordercolor="#666666"
     borderopacity="1.0"
     inkscape:showpageshadow="2"
     inkscape:pageopacity="0.0"
     inkscape:pagecheckerboard="0"
     inkscape:deskcolor="#d1d1d1"
     showgrid="false"
     inkscape:zoom="2.36"
     inkscape:cx="50.211864"
     inkscape:cy="50"
     inkscape:window-width="1920"
     inkscape:window-height="1022"
     inkscape:window-x="0"
     inkscape:window-y="0"
     inkscape:window-maximized="1"
     inkscape:current-layer="svg534" />
  <title
     id="title526">馬</title>
  <!-- 此字型為全字庫正楷體，中華民國國家發展委員會，CNS11643中文標準交換碼全字庫網站，https://www.cns11643.gov.tw/。 -->
  <circle
     r="48.5"
     cx="50"
     cy="50"
     stroke-width="3"
     stroke="#000000"
     fill="#ffddaa"
     id="circle528" />
  <circle
     r="43.5"
     cx="50"
     cy="50"
     stroke-width="3"
     stroke="#000000"
     fill="none"
     id="circle530" />
  <path
     transform="translate(15,14)"
     fill="#000000"
     d="m 45.3,7.7 c -5.6,1.7 -19.7,3.2 -21.9,2.5 -1.6,-0.6 -3.6,-0.5 -4.2,0.1 -0.3,0.5 -0.3,0.9 0.3,2.1 1.1,2.2 1.3,5.1 0.8,11.6 -0.5,7 -0.9,9.7 -1.8,11.4 -0.7,1.5 -0.5,2.4 0.9,4.4 1.3,1.6 2,1.7 4.5,0.7 2.9,-1.2 6.2,-1.9 11.8,-2.5 5.8,-0.7 16.6,-1.3 17.7,-1 1.3,0.3 1.4,1.4 0.7,7 -1,8.1 -2.5,13 -4.2,13.4 -0.4,0 -2,-0.4 -3.6,-0.9 -2.6,-0.9 -2.9,-1 -3.4,-0.5 -0.5,0.5 -0.4,0.8 1.4,3.3 1.1,1.6 2.4,3.6 2.9,4.6 0.8,1.5 1.1,1.7 2.1,1.8 2.4,0.3 6.4,-3.4 8.1,-7.4 1.2,-2.8 1.7,-5.4 2.5,-11.9 0.5,-5.1 0.8,-6.6 1.5,-8 1.5,-2.9 1.3,-3.3 -3.1,-5.4 l -2.7,-1.3 -3.7,0.6 c -2.1,0.3 -6,0.7 -8.8,0.8 l -5,0.3 v -1.8 c 0,-2.2 -0.4,-2 6.1,-2.7 4.9,-0.6 6.3,-1 6.5,-2.2 0.2,-1.6 -3.7,-2.8 -7.3,-2.2 -1.3,0.2 -2.9,0.3 -3.6,0.3 -1.3,0 -1.3,0 -1.3,-1.3 0,-0.8 0.1,-1.5 0.3,-1.6 0.1,-0.1 2.2,-0.4 4.6,-0.7 5.3,-0.7 6.5,-1.1 6.9,-2 0.5,-1.8 -3.5,-3.1 -7.6,-2.5 -1.3,0.3 -2.8,0.4 -3.3,0.4 -0.8,0 -0.8,0 -0.5,-1.4 0.2,-0.9 0.4,-1.8 0.5,-2.2 0,-0.6 0.7,-0.8 5.5,-1.5 5.8,-0.8 6.9,-1.1 6.9,-2.2 0,-1.8 -3.6,-2.9 -6.5,-2.1 m -13,6.9 c 0.2,0.3 0.2,1.3 0.2,2.2 v 1.7 l -2.1,0.2 c -1.2,0.1 -2.8,0.2 -3.5,0.2 -1.3,0 -1.3,-0.1 -1.3,-1.1 0,-0.7 0.1,-1.8 0.2,-2.5 L 26,14 h 3.1 c 2.4,0 3.1,0.1 3.2,0.6 m 0.2,9.8 v 1.7 l -2.8,0.3 c -4.9,0.4 -4.9,0.4 -4.8,-0.9 0,-2.6 0,-2.6 4,-2.7 l 3.6,-0.1 v 1.7 m 0,8.1 v 2.1 L 30.4,35 c -1.2,0.2 -3.2,0.4 -4.3,0.6 -2.1,0.2 -2.1,0.2 -1.8,-0.6 0.1,-0.5 0.2,-1.6 0.2,-2.5 v -1.7 l 3.1,-0.1 c 1.6,-0.1 3.5,-0.1 4,-0.2 0.9,0 0.9,0 0.9,2 m 7.1,8.9 c -0.4,0.5 -0.4,0.7 0.1,1.5 1.1,1.7 5.2,6.2 6.3,6.8 1.3,0.9 2.7,0.4 3.5,-1.2 1.4,-3 0.2,-5 -4,-6.3 -4,-1.3 -5.4,-1.4 -5.9,-0.8 m -27.5,1 c -0.3,0.5 -0.6,1.4 -0.7,2 -0.2,0.7 -1,2.6 -1.8,4.2 -1.3,2.3 -1.5,3.2 -1.5,4.7 0,2.6 0.9,4.1 2.6,4.1 1,0 1.4,-0.2 2.2,-1.4 2.5,-3.4 3.5,-10.3 1.9,-13 -0.8,-1.4 -2,-1.7 -2.7,-0.6 m 17.6,1.1 c 0,1.1 3.1,5.7 4.6,7 1.4,1.2 1.9,1.2 3.2,-0.1 1,-1 1.1,-1.2 0.9,-2.8 -0.1,-1.2 -0.4,-2.1 -1,-2.6 -1,-1.2 -4.1,-2.3 -6.1,-2.3 -1.4,0 -1.6,0.1 -1.6,0.8 m -10,0.1 c -0.7,0.3 -0.5,1.1 1.2,4.2 2.1,3.9 4,5.5 5.6,4.4 1.2,-0.8 1.5,-3.6 0.6,-5.3 -0.8,-1.6 -6,-3.9 -7.4,-3.3"
     id="path532" />
  <metadata
     id="metadata18935">
    <rdf:RDF>
      <cc:Work
         rdf:about="">
        <dc:title>馬</dc:title>
      </cc:Work>
    </rdf:RDF>
  </metadata>
</svg>
