<svg height="100" viewBox="-6 -6 112 112" width="100" xmlns="http://www.w3.org/2000/svg"><circle cx="50" cy="50" fill="#fda" r="48.5" stroke="#000" stroke-width="3"/><circle cx="50" cy="50" fill="none" r="43.5" stroke="#c00" stroke-width="3"/><path d="m41.1 4.8c-.6.6-.6.7.3 3.1.4 1.1.6 3.2.6 8.6l.1 7.1-4.7.1c-5.8 0-6 .1-4.8 3.2 1 2.8.8 6.7-.6 10.7-.9 2.7-.9 2.8-.4 4.7.9 3.1 2.6 4.3 3.9 2.9 1-1.2 2.3-6.7 2.7-12.1l.5-5.2 1.2-.3c2.3-.6 2.1-2 2.2 18.6.1 20.1.1 20.7 1.8 20.9 2.1.3 3.3-3.8 3.7-13.4.2-3.8.5-11.5.6-17.1l.3-10.2 2.9-.3c1.6-.2 3-.2 3.1 0 .3.3.3 9.5 0 12.6-.2 2.3.2 2.2-3.7 1.7-1.6-.2-1.8-.2-1.8.4 0 .3.9 1.6 2 2.8s2.5 2.8 3.1 3.4c1.3 1.6 1.9 1.6 3.4.3 2.4-2.1 3.2-5.3 3.6-14.4.1-3.2.4-5.7.8-6.7.5-1.6.5-1.7-.2-2.5-.5-.5-1.7-1.3-2.9-1.8l-2.1-1-2.4.5c-1.3.4-3.1.7-4.1.7l-1.7.1.1-5.4c0-3 .3-6.5.5-7.8.4-2.4.4-2.4-.5-3.1-1.9-1.5-6.4-2.2-7.5-1.1m-23 1.2c-.3.3-.6 1.3-.8 2.2-.2 1.9-2.5 8.1-3.7 9.9-.6 1.1-.7 1.2-2.2 1-1.7-.3-3 .2-3 1.1 0 .2.3 1.1.7 1.8.3.7.7 1.8.8 2.5.4 1.9-.4 16.3-1 19.6-1 5.5-1 6.4-.2 8.2 1 2.3 2 3.4 3.3 3.4.8 0 1-.2 1.4-1.6l.4-1.5 2.3-.3c1.2-.1 4.3-.4 6.7-.7 2.5-.2 4.7-.6 5-.8.7-.6.7-1.4 0-2-.6-.4-.6-.6.2-3.1.4-1.6 1.1-3.6 1.6-4.5 1.2-2.3 1-3-1.1-4.2-2.7-1.4-3.9-1.5-6.1-.4-2.5 1.2-7.4 2.5-7.7 1.9-.2-.4-.1-3.9.2-4.1.1-.1 2.4-.4 5.3-.7 2.8-.3 5.6-.6 6-.7 1.2-.4 1.7-1.3 1.1-2.3-.3-.7-.3-1.2.7-3.6.6-1.5 1.5-3.2 1.9-3.7.5-.6.9-1.3.9-1.7 0-.9-1.9-2.3-4-3-1.5-.5-1.6-.5-4.6.5-3.5 1.2-6.5 1.7-6.5 1.2 0-.2.6-.8 1.3-1.3 1.6-1.2 7.8-9.1 7.8-9.9 0-.9-1.2-2-3.1-2.9-1.8-.8-2.8-.9-3.6-.3m5 17.4c0 .8-1.1 5.5-1.3 5.7s-1.7.5-3.5.8l-3.3.4v-3.1-3.1h1.2c.6 0 2-.2 3.1-.5 2.4-.5 3.8-.6 3.8-.2m-.4 18.7c0 2.9-.4 5.2-1 5.5-.9.5-7 1.2-7.3.9-.2-.2-.2-1.7-.1-3.3l.2-3 3.1-.6c1.7-.3 3.2-.7 3.3-.8s.6-.2 1-.2c.8 0 .8.2.8 1.5" fill="#c00" transform="translate(15 14)"/></svg>