<?xml version="1.0" encoding="UTF-8" standalone="no"?>
<svg
   width="100"
   height="100"
   version="1.1"
   id="svg1189"
   sodipodi:docname="red_chariot.svg"
   viewBox="-6 -6 112 112"
   inkscape:version="1.2.2 (b0a8486541, 2022-12-01)"
   xmlns:inkscape="http://www.inkscape.org/namespaces/inkscape"
   xmlns:sodipodi="http://sodipodi.sourceforge.net/DTD/sodipodi-0.dtd"
   xmlns="http://www.w3.org/2000/svg"
   xmlns:svg="http://www.w3.org/2000/svg"
   xmlns:rdf="http://www.w3.org/1999/02/22-rdf-syntax-ns#"
   xmlns:cc="http://creativecommons.org/ns#"
   xmlns:dc="http://purl.org/dc/elements/1.1/">
  <defs
     id="defs1193" />
  <sodipodi:namedview
     id="namedview1191"
     pagecolor="#ffffff"
     bordercolor="#666666"
     borderopacity="1.0"
     inkscape:showpageshadow="2"
     inkscape:pageopacity="0.0"
     inkscape:pagecheckerboard="0"
     inkscape:deskcolor="#d1d1d1"
     showgrid="false"
     inkscape:zoom="2.36"
     inkscape:cx="50.211864"
     inkscape:cy="50"
     inkscape:window-width="1920"
     inkscape:window-height="1022"
     inkscape:window-x="0"
     inkscape:window-y="0"
     inkscape:window-maximized="1"
     inkscape:current-layer="svg1189" />
  <title
     id="title1181">俥</title>
  <!-- 此字型為全字庫正楷體，中華民國國家發展委員會，CNS11643中文標準交換碼全字庫網站，https://www.cns11643.gov.tw/。 -->
  <circle
     r="48.5"
     cx="50"
     cy="50"
     stroke-width="3"
     stroke="#000000"
     fill="#ffddaa"
     id="circle1183" />
  <circle
     r="43.5"
     cx="50"
     cy="50"
     stroke-width="3"
     stroke="#cc0000"
     fill="none"
     id="circle1185" />
  <path
     transform="translate(15,14)"
     fill="#cc0000"
     d="m 39.1,3.7 c -1.2,0.7 -1.2,1.8 -0.1,2.9 1.3,1.2 1.6,2.5 1.5,5.3 l -0.1,2.6 -1.2,0.3 c -0.7,0.1 -3.2,0.3 -5.5,0.5 -4.8,0.2 -5.5,0.5 -4.5,2.1 1,1.4 3.1,2.2 6.1,2.2 1.5,0 3.3,-0.2 4,-0.3 L 40.6,19 v 1.7 c 0,1.5 -0.1,1.7 -1,1.8 -2.6,0.6 -6.2,0.9 -9.4,0.9 -4.7,0.1 -4.8,0.2 -2.9,4.8 0.7,1.9 1.6,4.7 1.9,6.1 0.4,1.4 0.8,3.2 1,4 0.6,2.4 3.2,4.3 4,2.9 0.3,-0.5 3.6,-1.3 5.4,-1.3 1,0 1,0 1,2.2 v 2.3 l -1.1,0.2 C 38.8,44.7 35,45 31,45.4 c -4.2,0.3 -7.5,0.8 -7.8,1 -0.6,0.4 -0.6,0.5 0,1.4 0.7,1.2 3.1,2.6 4.6,2.6 0.6,0 2.4,-0.2 4,-0.5 1.7,-0.3 4.3,-0.7 5.9,-0.8 l 2.8,-0.2 0.1,6 c 0,3.3 0.2,6.7 0.4,7.7 0.6,2.8 2.1,3.7 3.4,2 0.9,-1.1 1.1,-3.1 1.4,-10.3 L 46,48.5 h 9.9 c 8.4,0 10,-0.1 10.3,-0.6 0.9,-1.5 -0.2,-3 -3.7,-4.8 l -1.8,-0.9 -5.9,0.6 c -3.3,0.3 -6.7,0.6 -7.5,0.6 h -1.5 l 0.1,-2 0.1,-2 3,-0.1 c 2.8,-0.1 3.1,-0.1 3.8,0.8 1.2,1.2 2.9,1.2 3.8,-0.1 0.9,-1.2 1.2,-2.4 2.3,-7.3 0.5,-2.8 1,-4.2 1.8,-5.4 0.6,-0.9 1.2,-1.9 1.4,-2.3 0.3,-0.8 -1.9,-2.8 -4.6,-4.1 l -2.2,-1 -2.4,0.6 c -1.3,0.3 -3.4,0.6 -4.6,0.6 L 46,21.2 45.9,19.9 c -0.1,-1.6 0.2,-1.8 4.7,-2.4 1.7,-0.2 3.9,-0.5 4.8,-0.7 3,-0.7 3.6,-2.7 1.2,-4 -2,-1 -4.2,-1.1 -7.3,-0.3 -1.4,0.4 -2.7,0.6 -2.9,0.5 -0.3,-0.2 0.1,-2.6 0.7,-4.1 C 47.4,8.2 47.6,7.5 47.6,7.2 47.6,6.4 45.6,4.8 43.5,4 41.1,3 40.4,3 39.1,3.7 M 20.7,7.2 c -0.4,0.4 -0.4,0.8 0,2.2 0.4,1.7 0.4,1.9 -0.6,4.1 C 18,18.5 13,25.9 7,32.9 c -3.1,3.6 -3.4,4.6 -1.6,4.8 1.3,0.2 3.9,-1.6 7.1,-4.8 1.4,-1.4 2.6,-2.5 2.7,-2.4 1.4,1.4 1.1,12.3 -0.5,20.2 -0.7,3 -0.7,3.8 -0.4,5.2 1.4,5.7 4.3,6.9 5.8,2.5 0.6,-1.6 0.7,-3.6 0.9,-13.8 0.2,-6.5 0.4,-12.3 0.5,-12.8 0.3,-1.1 -0.5,-2.7 -2.1,-4.1 -0.4,-0.5 -0.9,-1 -0.9,-1.1 0,-0.2 0.7,-1 1.4,-1.9 0.8,-0.9 2.6,-3.2 4,-5.2 1.4,-2 3.1,-4.2 3.8,-5.1 1.9,-2 1.8,-3.1 -0.3,-5.1 -0.9,-0.9 -2.1,-1.8 -2.7,-2.1 -1.5,-0.7 -3.5,-0.7 -4,0 m 32.7,18.5 c 0.7,1.5 0.3,1.8 -3.4,2.2 -2,0.2 -3.7,0.3 -3.9,0.2 -0.1,-0.1 -0.3,-0.8 -0.3,-1.5 0,-1.3 0.1,-1.4 1.5,-1.6 4.3,-0.5 5.7,-0.4 6.1,0.7 m -12.8,1.9 c 0,2 0.2,1.9 -4.2,2.5 -1.4,0.1 -2.7,0.2 -2.9,0 -0.1,-0.1 -0.3,-0.8 -0.4,-1.5 -0.2,-1.1 -0.2,-1.3 0.6,-1.5 1,-0.2 5.8,-1.1 6.5,-1.2 0.3,0 0.4,0.6 0.4,1.7 m 12.1,5.7 c -0.1,0.8 -0.3,1.5 -0.3,1.6 -0.1,0 -5.5,0.2 -6.1,0.1 -0.3,0 -0.5,-0.4 -0.4,-1.3 l 0.1,-1.3 2.6,-0.2 c 1.5,-0.1 3,-0.3 3.5,-0.3 0.8,0 0.8,0 0.6,1.4 m -12.2,1.3 -0.1,1.6 -2.7,0.1 c -1.6,0.1 -2.9,0 -3.1,-0.1 C 34.5,36 34.3,35.5 34.2,35 34,34.1 34,34 36.5,33.5 c 4.2,-0.9 4.2,-0.9 4,1.1"
     id="path1187" />
  <metadata
     id="metadata13336">
    <rdf:RDF>
      <cc:Work
         rdf:about="">
        <dc:title>俥</dc:title>
      </cc:Work>
    </rdf:RDF>
  </metadata>
</svg>
