<svg height="100" viewBox="-6 -6 112 112" width="100" xmlns="http://www.w3.org/2000/svg"><circle cx="50" cy="50" fill="#fda" r="48.5" stroke="#000" stroke-width="3"/><circle cx="50" cy="50" fill="none" r="43.5" stroke="#c00" stroke-width="3"/><path d="m39.9 6.9c-2.2 2.2-9.5 6.4-13.6 7.6-1.5.4-1.8.4-3.1-.1-1.9-.9-3.5-1.1-4.5-.7-1 .3-1 .9-.3 3s4.3 24.8 3.9 25.1c-.3.3-6.2.9-11.4 1.1-5.9.2-6.6.5-6.2 1.8.3.8 3.7 2.9 5.3 3.1.6.1 2.3 0 3.7-.3 10.1-2.3 24.5-3.4 45-3.5 6.4-.1 7.1-.3 7.1-1.8 0-1.1-1.3-2-4.4-3-2.2-.7-2.6-.8-5-.4-3.2.5-11.5 1.2-11.9 1-.4-.1 1.9-8 2.6-9.2.8-1.1.3-2.3-1.2-3.2-.6-.3-1.1-.7-1.1-.8s2-.4 4.4-.6c2.4-.3 4.7-.6 5.1-.8 1.8-1-.5-3.1-4.1-3.9-1.5-.3-2.1-.2-4 .4-1.3.3-4 1-6.1 1.4s-6 1.1-8.6 1.6c-2.5.5-4.8.8-4.9.8-.3 0-.4-.8-.9-4.7l-.2-1.8 2-.6c4.8-1.4 14.9-4.1 17.3-4.6 2.9-.6 3.8-1.2 3.8-2.5 0-1-1.8-2.9-4.3-4.3-2.2-1.3-3.3-1.3-4.4-.1m-.2 21.8c.3 1.3-.4 11.2-.8 11.6-.1.1-2.6.4-5.5.5l-5.3.2-.6-4.6c-.3-2.6-.6-5.2-.7-5.8l-.2-1.1 6-1c3.4-.6 6.2-1.1 6.4-1 .2 0 .5.6.7 1.2m-15.3 19c-.3.4-.6 1.3-.8 2-.3 1.6-6.6 7.9-11.5 11.4-3.2 2.4-4 3.4-2.8 3.9 1.6.6 11.1-4.4 17-8.8 1.8-1.4 3.9-2.9 4.8-3.3 2.5-1.3 1.9-2.7-2.1-4.9-2.3-1.3-3.9-1.4-4.6-.3m14.2 1c-.3.3-.5.6-.5.7 0 .2 1.4 1.8 3.1 3.6 1.7 1.7 4.2 4.6 5.7 6.3 4 4.8 6.8 6.2 8.4 4.1.7-.8.7-1.2.6-2.9-.1-1.1-.4-2.5-.8-3.1-1.5-2.9-5.8-5.8-12.2-8-3.4-1.2-3.7-1.3-4.3-.7" fill="#c00" transform="translate(15 14)"/></svg>