<?xml version="1.0" encoding="UTF-8" standalone="no"?>
<svg
   width="100"
   height="100"
   version="1.1"
   id="svg1582"
   sodipodi:docname="red_king.svg"
   viewBox="-6 -6 112 112"
   inkscape:version="1.2.2 (b0a8486541, 2022-12-01)"
   xmlns:inkscape="http://www.inkscape.org/namespaces/inkscape"
   xmlns:sodipodi="http://sodipodi.sourceforge.net/DTD/sodipodi-0.dtd"
   xmlns="http://www.w3.org/2000/svg"
   xmlns:svg="http://www.w3.org/2000/svg"
   xmlns:rdf="http://www.w3.org/1999/02/22-rdf-syntax-ns#"
   xmlns:cc="http://creativecommons.org/ns#"
   xmlns:dc="http://purl.org/dc/elements/1.1/">
  <defs
     id="defs1586" />
  <sodipodi:namedview
     id="namedview1584"
     pagecolor="#ffffff"
     bordercolor="#666666"
     borderopacity="1.0"
     inkscape:showpageshadow="2"
     inkscape:pageopacity="0.0"
     inkscape:pagecheckerboard="0"
     inkscape:deskcolor="#d1d1d1"
     showgrid="false"
     inkscape:zoom="2.36"
     inkscape:cx="50.211864"
     inkscape:cy="50"
     inkscape:window-width="1920"
     inkscape:window-height="1022"
     inkscape:window-x="0"
     inkscape:window-y="0"
     inkscape:window-maximized="1"
     inkscape:current-layer="svg1582" />
  <title
     id="title1574">帥</title>
  <!-- 此字型為全字庫正楷體，中華民國國家發展委員會，CNS11643中文標準交換碼全字庫網站，https://www.cns11643.gov.tw/。 -->
  <circle
     r="48.5"
     cx="50"
     cy="50"
     stroke-width="3"
     stroke="#000000"
     fill="#ffddaa"
     id="circle1576" />
  <circle
     r="43.5"
     cx="50"
     cy="50"
     stroke-width="3"
     stroke="#cc0000"
     fill="none"
     id="circle1578" />
  <path
     transform="translate(15,14)"
     fill="#cc0000"
     d="m 41.1,4.8 c -0.6,0.6 -0.6,0.7 0.3,3.1 0.4,1.1 0.6,3.2 0.6,8.6 l 0.1,7.1 -4.7,0.1 c -5.8,0 -6,0.1 -4.8,3.2 1,2.8 0.8,6.7 -0.6,10.7 -0.9,2.7 -0.9,2.8 -0.4,4.7 0.9,3.1 2.6,4.3 3.9,2.9 1,-1.2 2.3,-6.7 2.7,-12.1 l 0.5,-5.2 1.2,-0.3 c 2.3,-0.6 2.1,-2 2.2,18.6 0.1,20.1 0.1,20.7 1.8,20.9 2.1,0.3 3.3,-3.8 3.7,-13.4 0.2,-3.8 0.5,-11.5 0.6,-17.1 l 0.3,-10.2 2.9,-0.3 c 1.6,-0.2 3,-0.2 3.1,0 0.3,0.3 0.3,9.5 0,12.6 -0.2,2.3 0.2,2.2 -3.7,1.7 -1.6,-0.2 -1.8,-0.2 -1.8,0.4 0,0.3 0.9,1.6 2,2.8 1.1,1.2 2.5,2.8 3.1,3.4 1.3,1.6 1.9,1.6 3.4,0.3 2.4,-2.1 3.2,-5.3 3.6,-14.4 0.1,-3.2 0.4,-5.7 0.8,-6.7 0.5,-1.6 0.5,-1.7 -0.2,-2.5 -0.5,-0.5 -1.7,-1.3 -2.9,-1.8 l -2.1,-1 -2.4,0.5 c -1.3,0.4 -3.1,0.7 -4.1,0.7 l -1.7,0.1 0.1,-5.4 c 0,-3 0.3,-6.5 0.5,-7.8 C 49.5,6.6 49.5,6.6 48.6,5.9 46.7,4.4 42.2,3.7 41.1,4.8 M 18.1,6 c -0.3,0.3 -0.6,1.3 -0.8,2.2 -0.2,1.9 -2.5,8.1 -3.7,9.9 -0.6,1.1 -0.7,1.2 -2.2,1 -1.7,-0.3 -3,0.2 -3,1.1 0,0.2 0.3,1.1 0.7,1.8 0.3,0.7 0.7,1.8 0.8,2.5 0.4,1.9 -0.4,16.3 -1,19.6 -1,5.5 -1,6.4 -0.2,8.2 1,2.3 2,3.4 3.3,3.4 0.8,0 1,-0.2 1.4,-1.6 l 0.4,-1.5 2.3,-0.3 c 1.2,-0.1 4.3,-0.4 6.7,-0.7 2.5,-0.2 4.7,-0.6 5,-0.8 0.7,-0.6 0.7,-1.4 0,-2 -0.6,-0.4 -0.6,-0.6 0.2,-3.1 0.4,-1.6 1.1,-3.6 1.6,-4.5 1.2,-2.3 1,-3 -1.1,-4.2 -2.7,-1.4 -3.9,-1.5 -6.1,-0.4 -2.5,1.2 -7.4,2.5 -7.7,1.9 -0.2,-0.4 -0.1,-3.9 0.2,-4.1 0.1,-0.1 2.4,-0.4 5.3,-0.7 2.8,-0.3 5.6,-0.6 6,-0.7 1.2,-0.4 1.7,-1.3 1.1,-2.3 C 27,30 27,29.5 28,27.1 c 0.6,-1.5 1.5,-3.2 1.9,-3.7 0.5,-0.6 0.9,-1.3 0.9,-1.7 0,-0.9 -1.9,-2.3 -4,-3 -1.5,-0.5 -1.6,-0.5 -4.6,0.5 -3.5,1.2 -6.5,1.7 -6.5,1.2 0,-0.2 0.6,-0.8 1.3,-1.3 1.6,-1.2 7.8,-9.1 7.8,-9.9 0,-0.9 -1.2,-2 -3.1,-2.9 C 19.9,5.5 18.9,5.4 18.1,6 m 5,17.4 c 0,0.8 -1.1,5.5 -1.3,5.7 -0.2,0.2 -1.7,0.5 -3.5,0.8 L 15,30.3 v -3.1 -3.1 h 1.2 c 0.6,0 2,-0.2 3.1,-0.5 2.4,-0.5 3.8,-0.6 3.8,-0.2 m -0.4,18.7 c 0,2.9 -0.4,5.2 -1,5.5 -0.9,0.5 -7,1.2 -7.3,0.9 -0.2,-0.2 -0.2,-1.7 -0.1,-3.3 l 0.2,-3 3.1,-0.6 c 1.7,-0.3 3.2,-0.7 3.3,-0.8 0.1,-0.1 0.6,-0.2 1,-0.2 0.8,0 0.8,0.2 0.8,1.5"
     id="path1580" />
  <metadata
     id="metadata10039">
    <rdf:RDF>
      <cc:Work
         rdf:about="">
        <dc:title>帥</dc:title>
      </cc:Work>
    </rdf:RDF>
  </metadata>
</svg>
