<?xml version="1.0" encoding="UTF-8" standalone="no"?>
<svg
   width="100"
   height="100"
   version="1.1"
   id="svg1451"
   sodipodi:docname="red_horse.svg"
   viewBox="-6 -6 112 112"
   inkscape:version="1.2.2 (b0a8486541, 2022-12-01)"
   xmlns:inkscape="http://www.inkscape.org/namespaces/inkscape"
   xmlns:sodipodi="http://sodipodi.sourceforge.net/DTD/sodipodi-0.dtd"
   xmlns="http://www.w3.org/2000/svg"
   xmlns:svg="http://www.w3.org/2000/svg"
   xmlns:rdf="http://www.w3.org/1999/02/22-rdf-syntax-ns#"
   xmlns:cc="http://creativecommons.org/ns#"
   xmlns:dc="http://purl.org/dc/elements/1.1/">
  <defs
     id="defs1455" />
  <sodipodi:namedview
     id="namedview1453"
     pagecolor="#ffffff"
     bordercolor="#666666"
     borderopacity="1.0"
     inkscape:showpageshadow="2"
     inkscape:pageopacity="0.0"
     inkscape:pagecheckerboard="0"
     inkscape:deskcolor="#d1d1d1"
     showgrid="false"
     inkscape:zoom="2.36"
     inkscape:cx="50.211864"
     inkscape:cy="50"
     inkscape:window-width="1920"
     inkscape:window-height="1022"
     inkscape:window-x="0"
     inkscape:window-y="0"
     inkscape:window-maximized="1"
     inkscape:current-layer="svg1451" />
  <title
     id="title1443">傌</title>
  <!-- 此字型為全字庫正楷體，中華民國國家發展委員會，CNS11643中文標準交換碼全字庫網站，https://www.cns11643.gov.tw/。 -->
  <circle
     r="48.5"
     cx="50"
     cy="50"
     stroke-width="3"
     stroke="#000000"
     fill="#ffddaa"
     id="circle1445" />
  <circle
     r="43.5"
     cx="50"
     cy="50"
     stroke-width="3"
     stroke="#cc0000"
     fill="none"
     id="circle1447" />
  <path
     transform="translate(15,14)"
     fill="#cc0000"
     d="m 22.6,8.9 c -0.3,0.4 -0.6,1.2 -0.6,2.2 0,2.3 -0.7,4.7 -2.2,7.7 -3,6 -7.4,12.1 -12,16.9 -3.1,3.2 -3.5,4.3 -1.8,4.5 1.2,0.1 4.7,-2.3 8.4,-5.9 1.7,-1.6 3.2,-2.9 3.3,-2.8 0.6,0.6 -0.5,15.6 -1.5,20.3 -0.9,3.9 -0.8,5.8 0.4,8.2 1,2 1.2,2.1 2.3,2.1 1.1,0 1.3,-0.1 2,-1.6 0.8,-1.6 0.9,-2.2 1.2,-12.6 0.1,-6 0.5,-12.6 0.7,-14.6 l 0.4,-3.7 -1.3,-1.2 -1.3,-1.1 1.6,-2.4 c 0.8,-1.3 2.4,-4 3.5,-6 1.1,-2 2.4,-4.1 3,-4.7 0.6,-0.6 1,-1.4 1,-1.7 0,-0.8 -1.9,-2.9 -3.1,-3.6 -1.3,-0.7 -3.3,-0.6 -4,0 M 49,10.5 c -6.2,1.3 -12.1,1.7 -14.6,1.1 -3.1,-0.8 -3.8,-0.1 -2.7,2.6 0.5,1.2 0.6,2.5 0.4,9.1 -0.2,8 -0.6,11.3 -1.5,13.6 -0.6,1.3 -0.6,1.3 0.3,3.2 1.1,2.2 1.7,2.5 3.2,1.9 4,-1.6 7,-2.2 15.8,-3 7.4,-0.6 7.3,-0.6 8,0.1 0.6,0.5 0.6,1 0.4,3.5 -0.6,7.6 -1.9,12.7 -3.7,14.3 -1.4,1.1 -2,1.1 -4.2,0 -1.9,-1 -3.3,-1.2 -3.6,-0.4 -0.1,0.2 0.7,1.8 1.7,3.4 1,1.6 1.9,3.1 1.9,3.3 0,0.3 0.4,0.9 0.9,1.5 1.2,1.4 2.6,1.4 4.9,0 2,-1.2 3.3,-2.7 4.4,-4.6 1.1,-2.1 2.3,-7.5 3.1,-13.2 0.4,-3.7 0.8,-5.4 1.4,-6.3 1.5,-2.5 0.8,-3.5 -3.6,-5.8 l -1.9,-1 -3.8,0.6 c -2.1,0.3 -4.6,0.6 -5.6,0.7 l -1.7,0.1 -0.1,-1.7 c -0.1,-1 0,-1.9 0.1,-2 0.2,-0.2 1.8,-0.5 3.6,-0.7 4.4,-0.5 5.8,-1 5.9,-2 0.3,-1.5 -3.9,-2.5 -7.9,-1.8 l -1.5,0.3 0.1,-2.2 0.1,-2.2 4,-0.5 c 4.6,-0.7 5.7,-1.1 5.6,-2.2 -0.2,-1.1 -3.1,-2.1 -5.1,-1.9 -0.8,0.2 -2.2,0.4 -3.1,0.5 l -1.6,0.2 0.2,-1 c 0.5,-3.1 0.7,-3.5 1.6,-3.6 2.8,-0.3 8.3,-1.2 8.8,-1.5 0.4,-0.2 0.6,-0.7 0.6,-1.2 0,-0.7 -0.3,-1 -1.4,-1.6 -2,-0.8 -3.2,-0.8 -9.4,0.4 m -6,5.3 c 0.2,0.3 0.4,1.2 0.4,2.2 v 1.8 l -2.2,0.4 c -1.3,0.3 -2.7,0.4 -3.2,0.4 -1,0 -1,0 -0.7,-1.6 0.4,-3 0.5,-3.2 1.7,-3.3 2.3,-0.3 3.6,-0.3 4,0.1 m 0.4,10.1 c 0,2.3 0.1,2.2 -3.7,2.6 -3.1,0.4 -3.2,0.3 -3,-2.1 l 0.2,-2.1 2.3,-0.2 c 4.7,-0.4 4.2,-0.6 4.2,1.8 m 0,7 c 0,0.5 -0.1,1.4 -0.2,2 -0.2,1.1 -0.3,1.1 -3.5,1.7 -1.8,0.3 -3.4,0.5 -3.5,0.5 0,-0.1 0,-1.2 0.1,-2.6 0.1,-1.5 0.3,-2.3 0.6,-2.2 0.2,0.1 1.4,0 2.6,-0.1 4,-0.4 3.9,-0.5 3.9,0.7 m 3.5,8.9 c -0.3,0.4 0,1.3 1.5,4.3 2.1,4.3 3.2,5.4 4.6,4.7 1.2,-0.5 2.1,-2.6 1.8,-4.2 -0.2,-1.6 -2,-3.4 -4.2,-4.5 -2,-0.9 -3.1,-1 -3.7,-0.3 m -18.8,2 c -0.2,0.3 -0.6,1.3 -0.9,2.4 -0.4,1.1 -1.2,2.9 -1.9,4.1 -1.4,2.6 -1.5,4.4 -0.4,6.1 1.2,1.7 2.4,1.7 3.9,0 1.5,-1.8 2,-3.3 2.2,-7.1 0.3,-3.7 -0.3,-5.7 -1.6,-5.8 -0.5,-0.1 -1.1,0.1 -1.3,0.3 m 11.3,-0.2 c -0.4,0.5 -0.2,1.5 1.5,4.9 2.4,4.9 3.9,5.8 5.6,3.3 1.5,-2.2 0.7,-4.8 -2,-6.7 -1.9,-1.4 -4.4,-2.1 -5.1,-1.5 m -6.7,1.8 c -0.3,0.8 1.6,6.7 2.5,8.1 1.8,2.4 4.3,0.9 4.3,-2.5 0,-1.5 -0.1,-2.1 -1,-3.2 -2.1,-2.5 -5.3,-3.8 -5.8,-2.4"
     id="path1449" />
  <metadata
     id="metadata11138">
    <rdf:RDF>
      <cc:Work
         rdf:about="">
        <dc:title>傌</dc:title>
      </cc:Work>
    </rdf:RDF>
  </metadata>
</svg>
