<?xml version="1.0" encoding="UTF-8" standalone="no"?>
<!-- Created with Inkscape (http://www.inkscape.org/) -->

<svg
   xmlns:dc="http://purl.org/dc/elements/1.1/"
   xmlns:cc="http://creativecommons.org/ns#"
   xmlns:rdf="http://www.w3.org/1999/02/22-rdf-syntax-ns#"
   xmlns:svg="http://www.w3.org/2000/svg"
   xmlns="http://www.w3.org/2000/svg"
   xmlns:sodipodi="http://sodipodi.sourceforge.net/DTD/sodipodi-0.dtd"
   xmlns:inkscape="http://www.inkscape.org/namespaces/inkscape"
   width="353"
   height="353"
   viewBox="0 0 93.397917 93.397917"
   version="1.1"
   id="svg8022"
   sodipodi:docname="bR.svg"
   inkscape:version="0.92.4 5da689c313, 2019-01-14">
  <defs
     id="defs8016" />
  <sodipodi:namedview
     id="base"
     pagecolor="#ffffff"
     bordercolor="#666666"
     borderopacity="1.0"
     inkscape:pageopacity="0.0"
     inkscape:pageshadow="2"
     inkscape:zoom="0.49497475"
     inkscape:cx="841.45759"
     inkscape:cy="683.91352"
     inkscape:document-units="mm"
     inkscape:current-layer="layer1"
     showgrid="false"
     units="px"
     inkscape:window-width="1362"
     inkscape:window-height="720"
     inkscape:window-x="0"
     inkscape:window-y="46"
     inkscape:window-maximized="0"
     showguides="true"
     inkscape:guide-bbox="true"
     inkscape:snap-global="false" />
  <metadata
     id="metadata8019">
    <rdf:RDF>
      <cc:Work
         rdf:about="">
        <dc:format>image/svg+xml</dc:format>
        <dc:type
           rdf:resource="http://purl.org/dc/dcmitype/StillImage" />
        <dc:title />
      </cc:Work>
    </rdf:RDF>
  </metadata>
  <g
     inkscape:label="Layer 1"
     inkscape:groupmode="layer"
     id="layer1"
     transform="translate(0,-203.60208)">
    <path
       inkscape:connector-curvature="0"
       style="display:inline;opacity:1;fill:#646464;fill-opacity:1;stroke:#000000;stroke-width:1.5875;stroke-linecap:square;stroke-linejoin:miter;stroke-miterlimit:4;stroke-dasharray:none;stroke-opacity:1;paint-order:normal"
       d="m 46.699698,254.95245 -1.664657,0.082 -1.649739,0.24478 -1.616926,0.40572 -1.570686,0.56084 -1.506543,0.71302 -1.43047,0.85766 -1.337989,0.99345 -1.236562,1.1187 -1.11872,1.23507 -0.993423,1.3395 -0.857687,1.43047 -0.712998,1.50654 -0.560855,1.57068 -0.405721,1.61691 -0.24463,1.64827 -0.08203,1.66613 0.08203,1.66466 0.24463,1.64974 0.405721,1.61695 0.560855,1.56917 0.712998,1.50804 0.857687,1.42899 0.993423,1.33948 1.11872,1.23505 1.236562,1.12023 1.337989,0.99341 1.43047,0.85619 1.506543,0.71301 1.570686,0.56235 1.616926,0.40422 1.649739,0.24449 1.664657,0.082 1.664657,-0.082 1.649739,-0.24449 1.616926,-0.40422 1.570685,-0.56235 1.506544,-0.71301 1.43047,-0.85619 1.337989,-0.99341 1.236559,-1.12023 1.118723,-1.23505 0.993422,-1.33948 0.857686,-1.42899 0.712998,-1.50804 0.560854,-1.56917 0.405722,-1.61695 0.244629,-1.64974 0.08057,-1.66466 -0.08057,-1.66613 -0.244629,-1.64827 -0.405722,-1.61691 -0.560854,-1.57068 -0.712998,-1.50654 -0.857686,-1.43047 -0.993422,-1.3395 -1.118723,-1.23507 -1.236559,-1.1187 -1.337989,-0.99345 -1.43047,-0.85766 -1.506544,-0.71302 -1.570685,-0.56084 -1.616926,-0.40572 -1.649739,-0.24478 z m 1.725813,4.89252 1.156009,0.21937 1.181372,0.34754 1.141097,0.46241 1.091869,0.57128 1.029226,0.67573 0.959116,0.77266 0.01789,0.0174 -6.537805,5.56527 z m -3.581399,0.006 -0.0388,8.62755 -6.53333,-5.5608 0.801005,-0.66825 1.018782,-0.69358 1.081431,-0.58922 1.133637,-0.48179 1.175402,-0.36692 1.205237,-0.25055 z m 12.301455,5.57865 0.199888,0.29238 0.589192,1.08142 0.481797,1.13513 0.36694,1.1754 0.250605,1.20525 0.04328,0.40423 -8.024957,-0.026 z m -21.018529,0.002 6.091811,5.26546 -8.032417,0.026 0.0179,-0.19252 0.229705,-1.21119 0.347548,-1.18138 0.462406,-1.14108 0.571294,-1.09189 z m -1.93464,8.3785 8.026451,0.026 -6.094792,5.26842 -0.199889,-0.29385 -0.589196,-1.08141 -0.480303,-1.13514 -0.36843,-1.17539 -0.250604,-1.20526 z m 24.890794,0 -0.0179,0.19253 -0.229705,1.21119 -0.34755,1.18138 -0.462401,1.14111 -0.571294,1.09187 -0.311751,0.47433 -6.090318,-5.26545 z m -14.277863,2.24484 0.0388,8.63203 -1.154521,-0.21937 -1.182861,-0.34756 -1.141093,-0.46241 -1.091873,-0.5713 -1.029223,-0.67569 -0.959114,-0.77268 -0.01789,-0.0174 z m 3.658963,0 6.533331,5.56078 -0.801006,0.66823 -1.017288,0.69363 -1.08143,0.58918 -1.133637,0.48182 -1.176895,0.36693 -1.205236,0.25054 -0.15662,0.0174 z"
       id="path2858" />
    <path
       style="display:inline;fill:#646464;stroke:#000000;stroke-width:1.58749998;stroke-linecap:butt;stroke-linejoin:miter;stroke-miterlimit:4;stroke-dasharray:none;stroke-opacity:1"
       d="m 31.249977,260.50003 -0.129287,-30.89938 0.826621,-2.88108 c 0.434195,-1.0461 1.513865,-5.82991 5.766972,-8.62541 l 1.422149,-1.6807 c 2.370441,-2.79751 5.106383,-9.20756 7.640925,-8.88713 3.003429,0.39356 5.356977,5.44973 7.858585,9.11581 l 1.695543,1.71061 c 3.502685,3.58491 3.548422,4.79615 4.458196,7.56362 l 1.295036,3.87819 -0.193943,30.57618 c -10.073272,-9.63136 -20.40229,-8.85406 -30.64081,0.12932 z"
       id="path2861"
       inkscape:connector-curvature="0"
       sodipodi:nodetypes="ccccccccccccc" />
    <path
       style="fill:none;stroke:#000000;stroke-width:1.5875;stroke-linecap:butt;stroke-linejoin:miter;stroke-opacity:1;stroke-miterlimit:4;stroke-dasharray:none"
       d="m 38.942502,216.67203 15.126476,0.0646"
       id="path2864"
       inkscape:connector-curvature="0"
       sodipodi:nodetypes="cc" />
    <path
       style="fill:none;stroke:#000000;stroke-width:1.5875;stroke-linecap:butt;stroke-linejoin:miter;stroke-opacity:1;stroke-miterlimit:4;stroke-dasharray:none"
       d="m 31.056048,230.69956 30.964026,-0.25862"
       id="path2874"
       inkscape:connector-curvature="0"
       sodipodi:nodetypes="cc" />
    <path
       style="fill:none;stroke:#000000;stroke-width:1.78844988;stroke-linecap:butt;stroke-linejoin:miter;stroke-miterlimit:4;stroke-dasharray:none;stroke-opacity:1"
       d="m 34.709543,221.14215 24.325638,0.0511"
       id="path2864-5"
       inkscape:connector-curvature="0"
       sodipodi:nodetypes="cc" />
    <path
       style="fill:none;stroke:#000000;stroke-width:1.95422649;stroke-linecap:butt;stroke-linejoin:miter;stroke-miterlimit:4;stroke-dasharray:none;stroke-opacity:1"
       d="m 31.94441,226.29881 29.142227,-0.16574"
       id="path2864-5-3"
       inkscape:connector-curvature="0"
       sodipodi:nodetypes="cc" />
    <path
       style="fill:none;fill-rule:evenodd;stroke:#000000;stroke-width:0.5;stroke-linecap:butt;stroke-linejoin:miter;stroke-opacity:1"
       d="m 31.120691,229.60065 3.490714,-2.42482 2.071338,2.6727 3.608139,-2.60588 3.073598,2.47224 2.939965,-2.53906 2.739512,2.6727 3.541321,-2.73952 2.472245,2.53907 2.004521,-2.80633 2.672694,2.53906 1.351899,-3.24774 0.99808,3.66149"
       id="path2911"
       inkscape:connector-curvature="0" />
    <path
       style="fill:none;fill-rule:evenodd;stroke:#000000;stroke-width:0.5;stroke-linecap:butt;stroke-linejoin:miter;stroke-opacity:1"
       d="m 33.1112,224.74816 3.013785,-2.3767 1.788335,2.61966 3.115167,-2.55417 2.653658,2.42317 2.538284,-2.48866 2.365219,2.61966 3.057477,-2.68516 2.134468,2.48869 1.730648,-2.75065 2.307529,2.48867 0.833106,-2.71555 1.997609,3.38838"
       id="path2911-5"
       inkscape:connector-curvature="0"
       sodipodi:nodetypes="ccccccccccccc" />
    <path
       style="fill:none;fill-rule:evenodd;stroke:#000000;stroke-width:0.5;stroke-linecap:butt;stroke-linejoin:miter;stroke-opacity:1"
       d="m 35.812802,220.12212 2.396809,-2.3654 1.422232,2.60719 2.477435,-2.54201 2.110407,2.41165 2.018651,-2.47683 1.881017,2.60719 2.431557,-2.67238 1.697503,2.47685 1.376353,-2.73756 1.835137,2.47683 0.395284,-1.96765 1.855932,2.63728"
       id="path2911-5-6"
       inkscape:connector-curvature="0"
       sodipodi:nodetypes="ccccccccccccc" />
    <g
       id="g3004"
       style="fill:none;stroke:#000000;stroke-width:0.75">
      <path
         inkscape:connector-curvature="0"
         id="path2986"
         d="m 34.395833,231.04315 0.188989,26.45834"
         style="fill:none;fill-rule:evenodd;stroke:#000000;stroke-width:0.75;stroke-linecap:butt;stroke-linejoin:miter;stroke-opacity:1" />
      <path
         inkscape:connector-curvature="0"
         id="path2988"
         d="m 39.309524,230.66517 0.38,23.70534"
         style="fill:none;fill-rule:evenodd;stroke:#000000;stroke-width:0.75;stroke-linecap:butt;stroke-linejoin:miter;stroke-opacity:1" />
      <path
         inkscape:connector-curvature="0"
         id="path2990"
         d="m 44.767645,230.9176 0.400905,21.91611"
         style="fill:none;fill-rule:evenodd;stroke:#000000;stroke-width:0.75;stroke-linecap:butt;stroke-linejoin:miter;stroke-opacity:1" />
      <path
         inkscape:connector-curvature="0"
         id="path2992"
         d="m 50.714393,230.65034 0.400905,22.85154"
         style="fill:none;fill-rule:evenodd;stroke:#000000;stroke-width:0.75;stroke-linecap:butt;stroke-linejoin:miter;stroke-opacity:1" />
      <path
         inkscape:connector-curvature="0"
         id="path2994"
         d="m 55.191157,230.65034 0.400904,24.38834"
         style="fill:none;fill-rule:evenodd;stroke:#000000;stroke-width:0.75;stroke-linecap:butt;stroke-linejoin:miter;stroke-opacity:1" />
      <path
         inkscape:connector-curvature="0"
         id="path2996"
         d="m 58.799295,230.85079 0.467723,26.5265"
         style="fill:none;fill-rule:evenodd;stroke:#000000;stroke-width:0.75;stroke-linecap:butt;stroke-linejoin:miter;stroke-opacity:1" />
    </g>
  </g>
</svg>
