<svg height="353" viewBox="0 0 93.397917 93.397917" width="353" xmlns="http://www.w3.org/2000/svg"><g stroke="#000" transform="translate(0 -203.60208)"><path d="m11.84554 269.18848 60.57646.0711c1.51518 2.73983 2.77624 6.39168 3.02557 8.68194l-65.28352-.0935c.83191-6.40934 1.37387-6.77161 1.68149-8.65946z" fill="#e3434b" fill-rule="evenodd" stroke-width="1.84"/><rect fill="#e3434b" height="8.494295" ry=".093544" stroke-linecap="square" stroke-width="1.843136" width="65.379601" x="10.173513" y="277.52014"/><g transform="matrix(.93576125 0 0 .93576125 5.292788 17.671895)"><path d="m53.320269 253.22125 3.422393 8.94816-4.741414 11.79794 7.11877.20783 4.115951-21.32811z" fill="#e3434b" fill-rule="evenodd" stroke-width="2.137297"/><path d="m7.1385222 206.92611.2635498 4.51497c.6665402 1.90292 1.8426033.0536-.7766968 5.54747-1.1325598 4.46693-1.9676504 12.74004-1.4133504 14.00224.5139103 1.1702 3.1265164 2.07096 4.5154868 1.5565.5720494-.21189 1.1708014-1.07652 1.3301514-1.92133.15934-.84475 1.165442-2.52318 2.235522-3.72949l1.945618-2.19315 1.212846 4.5961c2.19705 8.32502 2.260853 9.07759.968933 11.40809-1.29954 2.34422-1.094649 4.32543.780831 7.54786 1.06377 1.82771 1.061297 1.86683-.208773 2.84634-.70831.54624-2.679751 1.56958-4.380611 2.27428-1.81075.75022-3.524725 1.92823-4.1356649 2.8422-1.0151703 1.51861-1.0125901 1.63502.0894 4.29638 1.7329599 4.18494 3.9828839 6.78389 7.4992839 8.66201 1.76047.94026 3.519562 1.70308 3.909322 1.69808.96493-.0157.823498-1.42368-.346232-3.44475-.76972-1.33032-1.234773-1.59924-2.237073-1.29656-2.31988.70066-6.11492-4.20706-5.52421-7.14375.19169-.95304.802959-1.40107 2.360579-1.73064 2.03809-.43121 5.619401-1.66195 7.464661-2.56522 1.40344-.68695 2.176674 1.99522 3.021004 10.47688.481108 4.83299.611119 7.20154.111104 8.81755h2.9962c.07559-.67859.156901-1.3807.242361-2.05672.237882-1.88337.216395-4.82594-.04858-6.53863-.323961-2.09398-.231931-4.12951.28112-6.2146.419661-1.70537.727596-3.84822.684197-4.76198-.06904-1.45538.08115-1.62299 1.212329-1.35083 6.800939 1.63626 16.23111 1.87915 20.238039.52142 1.29512-.43902 2.553581-.46158 4.042132-.0734 1.976218.51541 2.227565.80645 2.937804 3.39721.427202 1.55842 1.351815 3.68508 2.054656 4.72632.70275 1.04117 1.0614 1.98072.796851 2.08825-2.859153 1.15962-5.410917 6.51323-6.240962 10.26294h5.352126c1.452004-3.58802 3.020526-8.41854 7.872905-11.00088 2.05323-.45666 4.382063-4.29356 2.784843-5.66219-1.30723-1.27496-2.717483-.5078-4.108794-1.50327-.0072-.15207 1.168542-1.6995 2.61276-3.43855 3.20857-3.86334 4.897284-7.66335 5.079794-11.43237.130489-2.69396.179157-2.77428.917257-1.51464.428789.7318 2.522958 3.15864 3.161049 6.03529 2.045319 7.53756 3.093211 12.18744 7.334951 13.87926 4.102359 1.63622 4.590841 1.27999 2.4722-1.79318-1.238448-1.79641-2.091124-3.94301-2.599325-6.54223-1.356799-6.93962-2.593181-9.81864-5.26066-12.24887-1.603179-1.46061-3.347505-2.42909-5.025017-2.78949-1.413089-.30364-3.253028-1.08442-4.045746-1.78594-7.293351-6.43568-22.872499 2.33958-33.490979-5.2374-1.988349-1.04197-2.890943-2.11173-5.036902-5.97225-4.573389-8.22735-10.763866-12.28005-18.218526-11.9264-2.88446.13684-1.738299-.0882-3.312459-2.37608z" fill="#e3434b" stroke-width="2.137297"/><g fill-rule="evenodd"><path d="m14.032501 215.55124c-1.397568.87109-4.0969303-.0558-2.567269 3.22155 1.676536-.5004 2.80366-.63411 2.567269-3.22155z" stroke-width=".177645"/><path d="m6.8791717 228.66513c.625824-1.22667.581892-3.78081 2.299223-1.75048-.441528 1.56005-.852252 2.40251-2.299223 1.75048z" stroke-width=".134256"/></g></g></g></svg>