<svg height="353" viewBox="0 0 93.397917 93.397917" width="353" xmlns="http://www.w3.org/2000/svg"><g transform="translate(.697349 -203.60208)"><g stroke="#000" transform="matrix(.95775528 0 0 .95775528 -.766416 12.282629)"><path d="m36.809127 220.7245c-1.154936 1.73004-6.686783 2.92172-1.896778 5.07323-.850656 4.46078-1.589463 8.92859 1.670981 13.64632-5.903745 1.36941-7.712284 1.48434-10.165128 3.20272-1.423467 14.4697-4.210754 29.91848-1.531732 39.54651-1.659493 1.72154-1.664061 4.0638.276186 6.04247 15.50653-.0116 29.345974.67161 45.258017-.0548 2.373175-2.22799.2757-4.45594-1.113986-6.68393 3.028983-4.31951.433272-25.14627-.974739-38.01478-1.245713-1.38774-6.616206-2.54634-11.000618-3.7597 2.263889-3.70822 3.569729-8.58788 1.935782-13.85521 4.365271-.84604-.638682-2.90198-1.890081-4.56898-6.575566-8.2355-11.511873-10.5649-20.567904-.57387z" fill="#e3434b" stroke-width="2.116667"/><g fill="none"><path d="m34.912345 225.79773c9.364922 2.34037 15.632226 1.60326 24.507705.0697" stroke-width="2.116667"/><path d="m38.243166 231.00797 6.847416 1.04453c-1.645744 8.32603 5.181949 5.08301 4.642315.23211l6.499243-.92846" stroke-width="1.322917"/><path d="m29.366358 282.17648 40.134564.17477" stroke-width="1.5875"/><path d="m36.583325 239.44405c9.73126 7.37938 15.402976 4.25174 20.748001.27838" stroke-width="2.116667"/><path d="m44.351997 240.16933c2.302085.0456 5.221935.17159 6.509438.0188" stroke-width="1.271371"/></g></g><ellipse cx="99.970177" cy="228.32545" rx="2.829663" ry="1.095311" transform="matrix(.98697594 .16086793 -.26335876 .96469796 0 0)"/><ellipse cx="13.735511" cy="242.99503" rx="2.829663" ry="1.095311" transform="matrix(-.98697594 .16086793 .26335877 .96469796 0 0)"/><g stroke="#000"><path d="m21.958748 271.40027c9.41076.67746 14.026044.6272 12.843647 10.77209 1.997152 1.10376-9.166634.10359-11.6525.31073" fill="none" stroke-width="1.644196"/><path d="m30.86644 262.28542-.414311-3.93596h3.521644l.517886 4.03953z" fill="#e3434b" fill-rule="evenodd" stroke-width="1.09613"/><path d="m22.165906 265.1856c2.254068 2.33096 4.151119 5.21729 8.079067 4.94444 11.540809-10.68743 6.691459-7.08117-.849442-8.05179 3.153245-7.87907 4.663201-11.44466 8.480812-17.899" fill="none" stroke-width="1.644196"/><path d="m40.276404 246.44107c-2.018223 1.97289-4.517427 9.65561-1.962773 23.01115" fill="none" stroke-width="1.09613"/><path d="m28.339379 259.32197-1.825361-28.68361 9.098599 27.76659c-2.403053.66218-2.442353.60328-7.273238.91702z" fill="#e3434b" fill-rule="evenodd" stroke-width="1.644196"/><path d="m65.873044 271.11897c-8.558883 2.49142-14.415163 2.21823-13.28309 10.99181-1.997151 1.10376 10.118761.32331 12.604628.53045" fill="none" stroke-width="1.644196"/><path d="m48.88794 246.68073c2.989246 3.48885 8.011723 14.29507 1.926305 22.75587" fill="none" stroke-width="1.09613"/><circle cx="59.24675" cy="263.11407" fill="#e3434b" r="11.041648" stroke-linecap="square" stroke-width="1.644196"/><path d="m56.979626 252.4197c2.147734-1.38924-3.173997-4.64485-5.661237-8.47965" fill="none" stroke-width="1.644196"/><path d="m34.838002 273.17344c5.850786-3.80654 14.062894-2.41697 17.358013 1.02537" fill="none" stroke-width="1.644196"/></g></g></svg>