<svg clip-rule="evenodd" fill-rule="evenodd" height="177.17" image-rendering="optimizeQuality" shape-rendering="geometricPrecision" viewBox="0 0 50 50" width="177.17" xmlns="http://www.w3.org/2000/svg"><g fill="#1f1a17" transform="matrix(1.0975945 0 0 1.0975945 -107.62233 17.126787)"><path d="m119.66608 20.578823c.12511.773672.40427 1.44388 1.3 1.7 11.23011-.424319 16.82956-5.233235 20.30001-11.7l.2-2.099999c-2.10707-8.89280401-8.15113-13.4502442-16.2-15.8-4.40015-.5317426-7.59668 1.3815851-10.20001 4.5-2.59354 2.64077835-4.39616 5.9439949-5.3 10-.9084 3.60641-5.79067 1.6990508-4.9-.6 2.76583-4.0566968 11.00069-10.7605086 4.9-12.3-8.75831-2.0518262-7.05798 4.7061225-5.2 6.20000004 1.23982-.5457366 2.00197-1.22280981 2.4-2.00000004-.25951-.4357328-.98217-.8162564 0-1.4.5387.045976.81918.2856122 1 .6 0 1 .50403 1.1455069-3.6 4-7.640521 5.2325602-3.73403 16.328533 2.94302 17.405035 2.93812.458135 3.4042 1.08673 5.28907.933469.49515-.04026 1.25166.522864 1.96791.561495.84449-.337075 4.5865-.641651 3.83596-.600198.37015.007.83701-.226033 1.09094-.03707.11828.08802.12726.435864.1731.637268z"/><path d="m109.56608 17.578823c-1.32838 4.066443-4.04985 6.321863-6.6 8.8-.20576.304421.14574.397532 1 .3 3.90473-1.863513 6.85963-4.360243 8.1-8-.78642-.41302-1.31194-1.08384-2.5-1.1z"/></g><path d="m4.0247606 23.62697c-1.986256 7.368498 1.057632 11.0838 5.868048 12.903996l.5487974-.878075c-7.2882454-3.578938-5.9729494-9.854218-6.0951664-11.560446-.01974-.275544-.191814-.46064-.321679-.465475z" fill="#fff"/><path d="m17.809955 22.804124c-.364-.186-.542-.279-.542-.279-.499-.195-.652-.559-.474-1.092.195-.491.576-.66 1.143-.491 1.947.711 3.294 2.02 4.04 3.92.118.542-.076.914-.592999 1.118-.516001.161-.864001-.017-1.041001-.55-.136-.279-.229-.466-.296-.542-.186.144-.423.245-.72.296-1.01.161-1.6-.279-1.761-1.338-.051-.364.034-.711.246-1.041" fill="#fff"/><g fill="none" stroke="#fff" stroke-linecap="round" stroke-width="1.693289"><path d="m23.957174 37.994894c1.685093-4.055951 3.211547-7.886878 2.745577-11.865722-.231228-1.974417-.717054-2.683108-.260272-4.364942.581458-2.14088 2.007917-4.065109 3.569312-5.667531"/><path d="m16.385198 37.825755c1.083355-1.225885.839641-.906731 1.571239-2.468245"/></g></svg>