<svg clip-rule="evenodd" fill-rule="evenodd" height="177.17" image-rendering="optimizeQuality" shape-rendering="geometricPrecision" viewBox="0 0 50 50" width="177.17" xmlns="http://www.w3.org/2000/svg" xmlns:xlink="http://www.w3.org/1999/xlink"><linearGradient id="a" gradientUnits="userSpaceOnUse" x1="33.047436" x2="10.661182" y1="36.638081" y2="36.638081"><stop offset="0" stop-color="#fff"/><stop offset="1" stop-color="#b3b3b3"/></linearGradient><linearGradient id="b" gradientUnits="userSpaceOnUse" x1="45.505043" x2="13.12594" y1="36.579117" y2="36.579117"><stop offset="0" stop-color="#fff"/><stop offset="1" stop-color="#dcdbdb"/></linearGradient><linearGradient id="c" gradientUnits="userSpaceOnUse" x1="-45.221378" x2="1.975686" y1="42.657791" y2="42.657791"><stop offset="0" stop-color="#fff"/><stop offset="1" stop-color="#999"/></linearGradient><linearGradient id="d" gradientUnits="userSpaceOnUse" x1="-32.828068" x2="4.454249" y1="22.581646" y2="22.581646"><stop offset="0" stop-color="#fff"/><stop offset="1" stop-color="#808080"/></linearGradient><g stroke="#1f1a17" stroke-width="1.693289" transform="translate(46.280393 -.154725)"><g transform="translate(6.837589 .16677)"><path d="m-15.111118 25.382503-23.572909-20.2078682-7.839044 7.3744712c1.383182 1.383182 19.441596 22.23155 19.441596 22.23155 9.603942 12.91719 22.2009169-.03773 11.970357-9.398153z" fill="url(#d)"/><circle cx="30.376812" cy="36.579117" fill="url(#a)" r="9.012213" stroke-linecap="square" transform="scale(-1 1)"/><circle cx="30.376812" cy="36.579117" fill="url(#b)" r="6.077011" stroke-linecap="square" transform="scale(-1 1)"/><path d="m-13.229247 42.08907c1.541352.249483 2.693732.650171 3.558326.912721.8503997.258241.9383658 2.438057.2804914 2.436609l-4.9835694-.01383c-2.767788-2.318844-4.282727-4.896205-7.351617-5.734844.34763-.942182.534417-2.462789.798662-3.440177 3.092652.411829 5.97325 3.966293 7.697707 5.839521z" fill="url(#c)"/></g><path d="m-7.1933961 26.533018c.097703-4.101531 4.5495142-4.710701 4.481132-9.66981" fill="none"/></g></svg>