<svg height="92" width="92" xmlns="http://www.w3.org/2000/svg"><g><circle cx="46" cy="45.999999" fill="#e6e6e6" r="40.79224" stroke="#333" stroke-linecap="round" stroke-miterlimit="10" stroke-width="3"/><path d="m27.388271 65.498829c-1.09799-.37012-1.44773-.96043-1.28014-2.16087.29411-2.10746 2.18048-4.30751 4.04117-4.71336.55748-.12161 1.7826-.003 3.09935.30128 2.50646.57825 7.34401.50517 8.45928-.12778.64356-.36526.67865-.50778.85151-3.45568.26842-4.57796.0384-10.91273-.4083-11.24137-.47618-.35041-5.9414-.33888-9.56213.0202-4.38414.43477-6.15187.80463-9.36339 1.95904-3.17318 1.14063-3.98219 1.14136-4.62302.005-.84655-1.50214.83228-4.54714 3.27219-5.93504 1.57436-.89558.89116-.85354 12.29353-.75658 4.40517.0375 8.13048-.0188 8.27824-.125.18358-.13193.21219-1.52078.09-4.38405-.21755-5.10565-.09-6.0046 1.06511-7.49082.76999-.99084 1.0461-1.15508 1.94008-1.15413 1.42355.00084 2.60831.90367 3.18522 2.42548.35752.94311.51227 2.33846.64952 5.85493.11135 2.85316.29007 4.72278.46787 4.89432.1687.16284 5.09617.31468 11.92093.36735 6.398251.0494 11.712091.18159 11.808441.29379.24135.28101-.52097 2.78613-1.19682 3.93285-1.3293 2.25556-4.59579 3.46047-7.5849 2.79787-10.433451-2.31268-14.228241-2.82081-15.115031-2.02392-.78262.70328-1.25637 8.80438-.67248 11.50005.52491 2.42396.80648 2.5309 9.30542 3.53491 4.38829.51839 8.315571 1.41559 8.617571 1.9687.34844.638.22535 1.87113-.23504 2.35559-.25174.26479-1.36955.62114-2.58475.824-1.789381.29869-2.887361.27721-6.680331-.13071-7.07781-.76118-16.13382-.65848-22.42183.25426-5.34538.77591-6.36983.83114-7.6175.41056z" fill="#333" stroke-width=".271903"/></g></svg>