<?xml version="1.0" encoding="UTF-8" standalone="no"?>
<svg
   width="92"
   height="92"
   id="svg2"
   version="1.1"
   inkscape:version="1.3 (0e150ed6c4, 2023-07-21)"
   sodipodi:docname="BC.svg"
   xmlns:inkscape="http://www.inkscape.org/namespaces/inkscape"
   xmlns:sodipodi="http://sodipodi.sourceforge.net/DTD/sodipodi-0.dtd"
   xmlns="http://www.w3.org/2000/svg"
   xmlns:svg="http://www.w3.org/2000/svg"
   xmlns:rdf="http://www.w3.org/1999/02/22-rdf-syntax-ns#"
   xmlns:cc="http://creativecommons.org/ns#"
   xmlns:dc="http://purl.org/dc/elements/1.1/">
  <metadata
     id="metadata12">
    <rdf:RDF>
      <cc:Work
         rdf:about="">
        <dc:format>image/svg+xml</dc:format>
        <dc:type
           rdf:resource="http://purl.org/dc/dcmitype/StillImage" />
      </cc:Work>
    </rdf:RDF>
  </metadata>
  <defs
     id="defs10" />
  <sodipodi:namedview
     pagecolor="#ffffff"
     bordercolor="#666666"
     borderopacity="1"
     objecttolerance="10"
     gridtolerance="10"
     guidetolerance="10"
     inkscape:pageopacity="0"
     inkscape:pageshadow="2"
     inkscape:window-width="1916"
     inkscape:window-height="2022"
     id="namedview8"
     showgrid="false"
     inkscape:zoom="2.6222222"
     inkscape:cx="-83.51695"
     inkscape:cy="-35.65678"
     inkscape:window-x="5750"
     inkscape:window-y="0"
     inkscape:window-maximized="0"
     inkscape:current-layer="layer2"
     fit-margin-top="0"
     fit-margin-left="0"
     fit-margin-right="0"
     fit-margin-bottom="0"
     inkscape:pagecheckerboard="false"
     inkscape:snap-nodes="false"
     inkscape:document-rotation="0"
     showguides="false"
     inkscape:showpageshadow="2"
     inkscape:deskcolor="#d1d1d1" />
  <g
     inkscape:groupmode="layer"
     id="layer1"
     inkscape:label="Background"
     style="display:inline" />
  <g
     inkscape:groupmode="layer"
     id="layer2"
     inkscape:label="Symbol"
     style="display:inline">
    <g
       id="g62"
       transform="translate(0.6186409,-2.3347435)"
       style="display:inline">
      <circle
         style="color:#000000;display:inline;overflow:visible;visibility:visible;fill:#e6e6e6;fill-opacity:1;fill-rule:nonzero;stroke:#333333;stroke-width:3;stroke-linecap:round;stroke-linejoin:miter;stroke-miterlimit:10;stroke-dasharray:none;stroke-dashoffset:0;stroke-opacity:1;marker:none;enable-background:accumulate"
         id="circle62"
         cx="45.381359"
         cy="48.334743"
         r="40.79224" />
    </g>
    <g
       id="g110"
       transform="matrix(0.84224259,0,0,0.84224259,124.06349,-221.97734)"
       style="display:inline;fill:#333333;fill-opacity:1">
      <path
         style="fill:#333333;fill-opacity:1;stroke-width:0.321299"
         d="m -98.82378,327.18046 c 0,3.09399 -0.13265,5.52229 -0.32412,5.9327 -0.17827,0.38212 -0.76239,0.90485 -1.29805,1.16159 -0.83697,0.40116 -1.2027,0.38975 -2.60072,-0.0812 -1.90665,-0.6423 -4.20427,-0.26999 -5.65699,0.91668 -1.11991,0.9148 -2.82925,0.92235 -3.61935,0.0159 -0.54333,-0.62332 -0.6004,-1.15116 -0.60456,-5.59214 -0.005,-4.76712 -0.29924,-6.75531 -0.77668,-5.23836 -1.4529,4.6163 -2.37535,6.53101 -4.26002,8.84241 -1.78988,2.19515 -4.45738,2.99003 -6.34906,1.89196 -0.84041,-0.48784 -2.10943,-2.48075 -2.10777,-3.31006 6e-4,-0.33315 0.80204,-1.0218 2.02489,-1.74011 2.74889,-1.61472 5.15385,-4.46887 6.52883,-7.74828 1.07873,-2.57286 2.69009,-9.094 2.88995,-11.69564 l 0.10456,-1.36134 -1.43253,0.0974 c -0.78791,0.0536 -1.86057,0.23821 -2.38373,0.41034 -0.70846,0.23306 -1.12754,0.18038 -1.64228,-0.20652 -1.07145,-0.80538 -0.90724,-2.19163 0.43383,-3.66277 1.39649,-1.53191 2.87633,-2.09845 4.77178,-1.82685 0.79907,0.11449 4.85477,0.23792 9.01265,0.27423 5.32839,0.0465 7.66393,0.18554 7.91258,0.47098 0.4949,0.56805 0.13334,1.90251 -0.80802,2.98244 -0.79271,0.90935 -0.82118,0.91423 -5.35762,0.91423 h -4.56069 l -0.38854,0.94636 c -0.2137,0.52049 -0.56701,2.2865 -0.78516,3.92441 -0.21814,1.63794 -0.47606,3.34141 -0.57316,3.78544 -0.15819,0.7233 0.009,0.89193 1.6056,1.61919 1.90974,0.86993 2.93576,0.87564 6.07623,0.034 1.54811,-0.41494 1.9082,-0.61008 2.92954,0.25769 l 0.565701,0.48065 c 0.38279,0.27547 0.676329,5.07905 0.673329,7.50471 z m -5.73164,2.7576 1.01796,-0.71195 -0.18046,-2.93359 c -0.0993,-1.61346 -0.34956,-3.16728 -0.55619,-3.45294 -0.47378,-0.65485 -2.61088,-0.4355 -3.69481,0.37926 -0.7014,0.52719 -0.75429,0.75949 -0.75429,3.31207 0,2.28629 0.10028,2.86015 0.59996,3.43339 0.77986,0.89463 2.26673,0.88368 3.56783,-0.0262 z"
         id="path105"
         sodipodi:nodetypes="cssssscssssssscssssssssscssssssccccsssssscc" />
      <path
         style="fill:#333333;fill-opacity:1;stroke-width:0.321299"
         d="m -76.98327,342.02646 c -7.65803,-1.5474 -10.97598,-3.01005 -13.77795,-6.07372 -3.37872,-3.69425 -4.16278,-6.54717 -4.16278,-15.14709 0,-3.67675 -0.11288,-5.94998 -0.29547,-5.94998 -0.16251,0 -0.96232,0.47066 -1.77734,1.04597 -1.73521,1.22483 -4.87251,2.73946 -5.67429,2.73946 -0.74046,0 -1.6133,-1.13809 -1.38841,-1.81039 0.0981,-0.29334 0.94509,-1.11313 1.88213,-1.8217 4.62676,-3.49873 7.97152,-9.296 8.92389,-15.4672 0.59989,-3.88711 1.10834,-5.25469 2.11731,-5.69475 1.0091,-0.44012 1.69409,-0.18173 2.99684,1.13043 1.379,1.38898 1.91486,2.64967 1.91486,4.5051 0,2.59232 -0.43036,2.52723 11.57457,1.75068 2.95797,-0.19136 3.45474,-0.13917 4.49975,0.47266 2.43177,1.42374 3.12543,3.17664 3.12248,7.89066 -0.003,3.94753 -0.81295,8.31224 -2.01333,10.84231 -1.02912,2.16909 -4.07228,5.43514 -6.15162,6.6022 -3.39156,1.90356 -7.28208,2.01676 -7.28208,0.21191 0,-0.68086 0.39168,-1.05491 2.22945,-2.12924 3.69705,-2.16119 5.54178,-4.80801 6.45769,-9.26554 0.57146,-2.78118 0.59165,-6.86404 0.0414,-8.37475 -0.60244,-1.65405 -1.55362,-1.88061 -8.22881,-1.95996 l -5.79994,-0.0689 -1.31686,2.37765 c -0.72429,1.30773 -1.32039,2.51543 -1.32468,2.68377 -0.0106,0.41622 6.31464,0.0252 8.4632,-0.52331 1.60441,-0.40951 1.77771,-0.39075 2.54986,0.27584 0.92668,0.8 0.90523,0.48259 0.46819,6.92764 -0.24748,3.64962 -0.37814,4.33753 -0.94767,4.98991 -0.56601,0.64834 -0.90624,0.73501 -2.37618,0.60537 -2.85871,-0.2521 -6.76308,-0.20948 -7.68199,0.0839 l -0.86672,0.2767 0.15861,2.6545 c 0.39488,6.60891 1.87613,7.38034 14.17411,7.38193 6.31435,6.7e-4 7.07772,-0.0642 8.99948,-0.76769 2.817002,-1.03104 4.796552,-2.37362 6.588352,-4.46839 0.81876,-0.95719 1.61535,-1.74034 1.77022,-1.74034 0.41076,0 0.003,6.3741 -0.54055,8.44679 -1.81477,6.92204 -7.521472,9.34879 -17.325742,7.36769 z m -6.82134,-23.25536 c 0.81513,-0.93509 1.0758,-3.16888 0.47699,-4.0875 -0.38621,-0.59251 -0.79817,-0.68828 -2.96088,-0.68828 -1.91824,0 -2.70797,0.14714 -3.34013,0.6223 -1.09701,0.82457 -1.41593,1.87086 -0.96417,3.16316 0.52696,1.50735 1.4711,1.9364 3.9907,1.81353 1.72208,-0.084 2.30181,-0.25458 2.79749,-0.82321 z"
         id="path106" />
    </g>
  </g>
</svg>
