<svg height="92" width="92" xmlns="http://www.w3.org/2000/svg"><g><circle cx="46" cy="45.999999" fill="#e6e6e6" r="40.79224" stroke="#333" stroke-linecap="round" stroke-miterlimit="10" stroke-width="3"/><g fill="#333" stroke-width=".321299" transform="matrix(.84224259 0 0 .84224259 124.06349 -221.97734)"><path d="m-98.82378 327.18046c0 3.09399-.13265 5.52229-.32412 5.9327-.17827.38212-.76239.90485-1.29805 1.16159-.83697.40116-1.2027.38975-2.60072-.0812-1.90665-.6423-4.20427-.26999-5.65699.91668-1.11991.9148-2.82925.92235-3.61935.0159-.54333-.62332-.6004-1.15116-.60456-5.59214-.005-4.76712-.29924-6.75531-.77668-5.23836-1.4529 4.6163-2.37535 6.53101-4.26002 8.84241-1.78988 2.19515-4.45738 2.99003-6.34906 1.89196-.84041-.48784-2.10943-2.48075-2.10777-3.31006.0006-.33315.80204-1.0218 2.02489-1.74011 2.74889-1.61472 5.15385-4.46887 6.52883-7.74828 1.07873-2.57286 2.69009-9.094 2.88995-11.69564l.10456-1.36134-1.43253.0974c-.78791.0536-1.86057.23821-2.38373.41034-.70846.23306-1.12754.18038-1.64228-.20652-1.07145-.80538-.90724-2.19163.43383-3.66277 1.39649-1.53191 2.87633-2.09845 4.77178-1.82685.79907.11449 4.85477.23792 9.01265.27423 5.32839.0465 7.66393.18554 7.91258.47098.4949.56805.13334 1.90251-.80802 2.98244-.79271.90935-.82118.91423-5.35762.91423h-4.56069l-.38854.94636c-.2137.52049-.56701 2.2865-.78516 3.92441-.21814 1.63794-.47606 3.34141-.57316 3.78544-.15819.7233.009.89193 1.6056 1.61919 1.90974.86993 2.93576.87564 6.07623.034 1.54811-.41494 1.9082-.61008 2.92954.25769l.565701.48065c.38279.27547.676329 5.07905.673329 7.50471zm-5.73164 2.7576 1.01796-.71195-.18046-2.93359c-.0993-1.61346-.34956-3.16728-.55619-3.45294-.47378-.65485-2.61088-.4355-3.69481.37926-.7014.52719-.75429.75949-.75429 3.31207 0 2.28629.10028 2.86015.59996 3.43339.77986.89463 2.26673.88368 3.56783-.0262z"/><path d="m-76.98327 342.02646c-7.65803-1.5474-10.97598-3.01005-13.77795-6.07372-3.37872-3.69425-4.16278-6.54717-4.16278-15.14709 0-3.67675-.11288-5.94998-.29547-5.94998-.16251 0-.96232.47066-1.77734 1.04597-1.73521 1.22483-4.87251 2.73946-5.67429 2.73946-.74046 0-1.6133-1.13809-1.38841-1.81039.0981-.29334.94509-1.11313 1.88213-1.8217 4.62676-3.49873 7.97152-9.296 8.92389-15.4672.59989-3.88711 1.10834-5.25469 2.11731-5.69475 1.0091-.44012 1.69409-.18173 2.99684 1.13043 1.379 1.38898 1.91486 2.64967 1.91486 4.5051 0 2.59232-.43036 2.52723 11.57457 1.75068 2.95797-.19136 3.45474-.13917 4.49975.47266 2.43177 1.42374 3.12543 3.17664 3.12248 7.89066-.003 3.94753-.81295 8.31224-2.01333 10.84231-1.02912 2.16909-4.07228 5.43514-6.15162 6.6022-3.39156 1.90356-7.28208 2.01676-7.28208.21191 0-.68086.39168-1.05491 2.22945-2.12924 3.69705-2.16119 5.54178-4.80801 6.45769-9.26554.57146-2.78118.59165-6.86404.0414-8.37475-.60244-1.65405-1.55362-1.88061-8.22881-1.95996l-5.79994-.0689-1.31686 2.37765c-.72429 1.30773-1.32039 2.51543-1.32468 2.68377-.0106.41622 6.31464.0252 8.4632-.52331 1.60441-.40951 1.77771-.39075 2.54986.27584.92668.8.90523.48259.46819 6.92764-.24748 3.64962-.37814 4.33753-.94767 4.98991-.56601.64834-.90624.73501-2.37618.60537-2.85871-.2521-6.76308-.20948-7.68199.0839l-.86672.2767.15861 2.6545c.39488 6.60891 1.87613 7.38034 14.17411 7.38193 6.31435.00067 7.07772-.0642 8.99948-.76769 2.817002-1.03104 4.796552-2.37362 6.588352-4.46839.81876-.95719 1.61535-1.74034 1.77022-1.74034.41076 0 .003 6.3741-.54055 8.44679-1.81477 6.92204-7.521472 9.34879-17.325742 7.36769zm-6.82134-23.25536c.81513-.93509 1.0758-3.16888.47699-4.0875-.38621-.59251-.79817-.68828-2.96088-.68828-1.91824 0-2.70797.14714-3.34013.6223-1.09701.82457-1.41593 1.87086-.96417 3.16316.52696 1.50735 1.4711 1.9364 3.9907 1.81353 1.72208-.084 2.30181-.25458 2.79749-.82321z"/></g></g></svg>