<svg height="92" width="92" xmlns="http://www.w3.org/2000/svg"><g><circle cx="46" cy="45.999999" fill="#e6e6e6" r="40.79224" stroke="#333" stroke-linecap="round" stroke-miterlimit="10" stroke-width="3"/><g fill="#333" stroke-width=".271903" transform="translate(193.8973 29.846706)"><path d="m-137.55799 29.240558c-3.66149-1.50747-6.30419-3.77121-6.30419-5.40008 0-2.19422 1.86028-2.84027 3.68161-1.27859.54091.46378 2.03435 2.01397 3.31883 3.44489 3.36605 3.75001 3.13738 4.81214-.69625 3.23378z"/><path d="m-146.36014 31.931928c-1.26396-.42019-3.27868-2.016-4.49974-3.56411-.82875-1.05082-1.07169-1.5885-1.07169-2.37237 0-1.5137.40355-2.4771 1.12579-2.68787 1.20337-.35114 1.85482.0849 2.56119 1.71436.36592.84383 1.21479 2.46172 1.88657 3.59531 1.19102 2.00994 1.61784 3.36561 1.10891 3.52248-.13867.0428-.63871-.0508-1.11103-.2078z"/><path d="m-161.67402 33.302028c-.15323-.4641 2.69225-7.4491 3.34238-8.205.21118-.24561.64437-.44654.96245-.44654.77272 0 1.90731 1.07122 1.90731 1.80085 0 .86977-1.39604 3.07394-3.36242 5.30882-1.71129 1.94503-2.56431 2.4066-2.84972 1.54187z"/><path d="m-175.26084 34.797498c-.45846-.38971-.43996-.45068.42247-1.39262.49609-.54178 1.50001-1.51279 2.23106-2.15779.73104-.64501 2.45184-2.45757 3.82392-4.02795 1.37217-1.57036 2.7758-2.9372 3.11927-3.03743 1.35073-.39414 2.79563 1.73991 2.36375 3.49095-.27894 1.13071-.80608 1.79085-2.49948 3.13017-1.88819 1.49343-4.14655 2.78729-6.40077 3.66708-2.18181.85155-2.41464.87647-3.06022.32759z"/><path d="m-136.67443 36.232918c-2.85711-.73914-5.47109-2.39902-6.27749-3.98618l-.47667-.93824 1.61187.26247c2.40857.39219 5.39049.25331 6.6596-.31019 3.36838-1.49562 5.32252-8.72275 2.72988-10.09615-.4261-.22575-4.79719-.32551-14.26262-.32551h-13.6481l-1.70796.91529c-2.01482 1.0797-2.90466 1.01269-4.29918-.32378-1.25788-1.20544-1.33617-1.88891-.56153-4.90324.56487-2.19801.68168-3.31249.79244-7.5602797.083-3.16749.0111-6.17772-.19521-8.26439025-.29421-2.96903995-.28511-3.35336995.0951-4.02846995.5667-1.00548 1.44975-1.20776 3.15194-.72196 1.14714.3274 5.02406.40612 19.99882.40612 10.2167 0 18.65799.0951 18.75831.21149.30009.34784-.42742 2.87163995-1.09292 3.79114995-1.31078 1.81112025-2.36062 2.00903025-6.73747 1.27010025-1.38694-.2341502-4.46374-.5138902-6.8372-.6216602l-4.31556-.19593005-.17578 1.36306025c-.0971.74967-.1055 1.49535-.0192 1.65708.0981.18353 2.45477.29405 6.27131.29405 6.82556 0 7.34582.12187 6.77195 1.58626-.16617.42403-.59723.90143-.958 1.06089-.37442.1655-2.892.26201-5.86604.22488-6.02929-.0752-6.42039.0336-6.2961 1.75325.0718.98509.15627 1.08904 1.08605 1.3278897.55476.14251 3.27817.19419 6.05194.11489 2.77387-.0794 5.32707-.0537 5.67388.057.47596.15203.64942.42745.70829 1.12461.14271 1.69287-.42712 1.86448-6.68155 2.01223-3.0252.0715-5.69875.20243-5.94119.29104-.24233.0887-.50822.51511-.59076.9478-.083.4327-.19854.99765-.2577 1.25548-.091.39506.25619.49877 2.20567.65966 3.62284.29897 8.94435.22446 11.21364-.15701 2.49301-.41907 3.88956-.067 4.57701 1.154.65225 1.15826.63031 7.77003-.0333 10.04164-.93211 3.19048-2.1902 5.57647-3.636 6.89587-2.28516 2.08527-4.34611 2.56809-7.49016 1.75475zm-12.53302-19.93367c.27975-.30409-.38423-1.71179-.9749-2.06697-.77159-.46388-5.40059-.59193-8.6198-.23845l-1.70218.18689v1.10591c0 .60825.14189 1.18068.31525 1.27207.30129.15882 10.82557-.0898 10.98163-.25945zm-.98946-5.90474c.73954-.17197.78809-.26275.78809-1.4751097 0-.78103-.12805-1.34898-.32375-1.43628-.17801-.0793-2.70278-.0424-5.61067.0825l-5.28712.22689-.0769 1.2385-.0769 1.2384997 3.98585.0888c2.19222.0488 4.39718.1182 4.89994.15411.50278.0359 1.26872-.0172 1.7021-.11795zm.63193-6.2103197c.0688-.13019.20399-.92179.29957-1.75908l.17366-1.52238025h-5.30997c-5.98276 0-6.10261.0404-6.10261 2.06038025v1.13895l1.82821.10124c3.91757.2168 8.99138.20621 9.11114-.019z"/></g></g></svg>