<?xml version="1.0" encoding="UTF-8" standalone="no"?>
<svg
   width="92"
   height="92"
   id="svg2"
   version="1.1"
   inkscape:version="1.3 (0e150ed6c4, 2023-07-21)"
   sodipodi:docname="BH.svg"
   xmlns:inkscape="http://www.inkscape.org/namespaces/inkscape"
   xmlns:sodipodi="http://sodipodi.sourceforge.net/DTD/sodipodi-0.dtd"
   xmlns="http://www.w3.org/2000/svg"
   xmlns:svg="http://www.w3.org/2000/svg"
   xmlns:rdf="http://www.w3.org/1999/02/22-rdf-syntax-ns#"
   xmlns:cc="http://creativecommons.org/ns#"
   xmlns:dc="http://purl.org/dc/elements/1.1/">
  <metadata
     id="metadata12">
    <rdf:RDF>
      <cc:Work
         rdf:about="">
        <dc:format>image/svg+xml</dc:format>
        <dc:type
           rdf:resource="http://purl.org/dc/dcmitype/StillImage" />
      </cc:Work>
    </rdf:RDF>
  </metadata>
  <defs
     id="defs10" />
  <sodipodi:namedview
     pagecolor="#ffffff"
     bordercolor="#666666"
     borderopacity="1"
     objecttolerance="10"
     gridtolerance="10"
     guidetolerance="10"
     inkscape:pageopacity="0"
     inkscape:pageshadow="2"
     inkscape:window-width="1916"
     inkscape:window-height="2022"
     id="namedview8"
     showgrid="false"
     inkscape:zoom="1.8541911"
     inkscape:cx="-18.876156"
     inkscape:cy="86.021338"
     inkscape:window-x="5750"
     inkscape:window-y="0"
     inkscape:window-maximized="0"
     inkscape:current-layer="layer2"
     fit-margin-top="0"
     fit-margin-left="0"
     fit-margin-right="0"
     fit-margin-bottom="0"
     inkscape:pagecheckerboard="false"
     inkscape:snap-nodes="false"
     inkscape:document-rotation="0"
     showguides="false"
     inkscape:showpageshadow="2"
     inkscape:deskcolor="#d1d1d1" />
  <g
     inkscape:groupmode="layer"
     id="layer1"
     inkscape:label="Background"
     style="display:inline" />
  <g
     inkscape:groupmode="layer"
     id="layer2"
     inkscape:label="Symbol"
     style="display:inline">
    <g
       id="g62"
       transform="translate(0.6186409,-2.3347435)"
       style="display:inline">
      <circle
         style="color:#000000;display:inline;overflow:visible;visibility:visible;fill:#e6e6e6;fill-opacity:1;fill-rule:nonzero;stroke:#333333;stroke-width:3;stroke-linecap:round;stroke-linejoin:miter;stroke-miterlimit:10;stroke-dasharray:none;stroke-dashoffset:0;stroke-opacity:1;marker:none;enable-background:accumulate"
         id="circle62"
         cx="45.381359"
         cy="48.334743"
         r="40.79224" />
    </g>
    <g
       id="g121"
       style="display:inline"
       transform="translate(193.8973,29.846706)">
      <path
         style="fill:#333333;fill-opacity:1;stroke-width:0.271903"
         d="m -137.55799,29.240558 c -3.66149,-1.50747 -6.30419,-3.77121 -6.30419,-5.40008 0,-2.19422 1.86028,-2.84027 3.68161,-1.27859 0.54091,0.46378 2.03435,2.01397 3.31883,3.44489 3.36605,3.75001 3.13738,4.81214 -0.69625,3.23378 z"
         id="path56" />
      <path
         style="fill:#333333;fill-opacity:1;stroke-width:0.271903"
         d="m -146.36014,31.931928 c -1.26396,-0.42019 -3.27868,-2.016 -4.49974,-3.56411 -0.82875,-1.05082 -1.07169,-1.5885 -1.07169,-2.37237 0,-1.5137 0.40355,-2.4771 1.12579,-2.68787 1.20337,-0.35114 1.85482,0.0849 2.56119,1.71436 0.36592,0.84383 1.21479,2.46172 1.88657,3.59531 1.19102,2.00994 1.61784,3.36561 1.10891,3.52248 -0.13867,0.0428 -0.63871,-0.0508 -1.11103,-0.2078 z"
         id="path55" />
      <path
         style="fill:#333333;fill-opacity:1;stroke-width:0.271903"
         d="m -161.67402,33.302028 c -0.15323,-0.4641 2.69225,-7.4491 3.34238,-8.205 0.21118,-0.24561 0.64437,-0.44654 0.96245,-0.44654 0.77272,0 1.90731,1.07122 1.90731,1.80085 0,0.86977 -1.39604,3.07394 -3.36242,5.30882 -1.71129,1.94503 -2.56431,2.4066 -2.84972,1.54187 z"
         id="path54" />
      <path
         style="fill:#333333;fill-opacity:1;stroke-width:0.271903"
         d="m -175.26084,34.797498 c -0.45846,-0.38971 -0.43996,-0.45068 0.42247,-1.39262 0.49609,-0.54178 1.50001,-1.51279 2.23106,-2.15779 0.73104,-0.64501 2.45184,-2.45757 3.82392,-4.02795 1.37217,-1.57036 2.7758,-2.9372 3.11927,-3.03743 1.35073,-0.39414 2.79563,1.73991 2.36375,3.49095 -0.27894,1.13071 -0.80608,1.79085 -2.49948,3.13017 -1.88819,1.49343 -4.14655,2.78729 -6.40077,3.66708 -2.18181,0.85155 -2.41464,0.87647 -3.06022,0.32759 z"
         id="path52" />
      <path
         style="fill:#333333;fill-opacity:1;stroke-width:0.271903"
         d="m -136.67443,36.232918 c -2.85711,-0.73914 -5.47109,-2.39902 -6.27749,-3.98618 l -0.47667,-0.93824 1.61187,0.26247 c 2.40857,0.39219 5.39049,0.25331 6.6596,-0.31019 3.36838,-1.49562 5.32252,-8.72275 2.72988,-10.09615 -0.4261,-0.22575 -4.79719,-0.32551 -14.26262,-0.32551 h -13.6481 l -1.70796,0.91529 c -2.01482,1.0797 -2.90466,1.01269 -4.29918,-0.32378 -1.25788,-1.20544 -1.33617,-1.88891 -0.56153,-4.90324 0.56487,-2.19801 0.68168,-3.31249 0.79244,-7.5602797 0.083,-3.16749 0.0111,-6.17772 -0.19521,-8.26439025 -0.29421,-2.96903995 -0.28511,-3.35336995 0.0951,-4.02846995 0.5667,-1.00548 1.44975,-1.20776 3.15194,-0.72196 1.14714,0.3274 5.02406,0.40612 19.99882,0.40612 10.2167,0 18.65799,0.0951 18.75831,0.21149 0.30009,0.34784 -0.42742,2.87163995 -1.09292,3.79114995 -1.31078,1.81112025 -2.36062,2.00903025 -6.73747,1.27010025 -1.38694,-0.2341502 -4.46374,-0.5138902 -6.8372,-0.6216602 l -4.31556,-0.19593005 -0.17578,1.36306025 c -0.0971,0.74967 -0.1055,1.49535 -0.0192,1.65708 0.0981,0.18353 2.45477,0.29405 6.27131,0.29405 6.82556,0 7.34582,0.12187 6.77195,1.58626 -0.16617,0.42403 -0.59723,0.90143 -0.958,1.06089 -0.37442,0.1655 -2.892,0.26201 -5.86604,0.22488 -6.02929,-0.0752 -6.42039,0.0336 -6.2961,1.75325 0.0718,0.98509 0.15627,1.08904 1.08605,1.3278897 0.55476,0.14251 3.27817,0.19419 6.05194,0.11489 2.77387,-0.0794 5.32707,-0.0537 5.67388,0.057 0.47596,0.15203 0.64942,0.42745 0.70829,1.12461 0.14271,1.69287 -0.42712,1.86448 -6.68155,2.01223 -3.0252,0.0715 -5.69875,0.20243 -5.94119,0.29104 -0.24233,0.0887 -0.50822,0.51511 -0.59076,0.9478 -0.083,0.4327 -0.19854,0.99765 -0.2577,1.25548 -0.091,0.39506 0.25619,0.49877 2.20567,0.65966 3.62284,0.29897 8.94435,0.22446 11.21364,-0.15701 2.49301,-0.41907 3.88956,-0.067 4.57701,1.154 0.65225,1.15826 0.63031,7.77003 -0.0333,10.04164 -0.93211,3.19048 -2.1902,5.57647 -3.636,6.89587 -2.28516,2.08527 -4.34611,2.56809 -7.49016,1.75475 z m -12.53302,-19.93367 c 0.27975,-0.30409 -0.38423,-1.71179 -0.9749,-2.06697 -0.77159,-0.46388 -5.40059,-0.59193 -8.6198,-0.23845 l -1.70218,0.18689 v 1.10591 c 0,0.60825 0.14189,1.18068 0.31525,1.27207 0.30129,0.15882 10.82557,-0.0898 10.98163,-0.25945 z m -0.98946,-5.90474 c 0.73954,-0.17197 0.78809,-0.26275 0.78809,-1.4751097 0,-0.78103 -0.12805,-1.34898 -0.32375,-1.43628 -0.17801,-0.0793 -2.70278,-0.0424 -5.61067,0.0825 l -5.28712,0.22689 -0.0769,1.2385 -0.0769,1.2384997 3.98585,0.0888 c 2.19222,0.0488 4.39718,0.1182 4.89994,0.15411 0.50278,0.0359 1.26872,-0.0172 1.7021,-0.11795 z m 0.63193,-6.2103197 c 0.0688,-0.13019 0.20399,-0.92179 0.29957,-1.75908 l 0.17366,-1.52238025 h -5.30997 c -5.98276,0 -6.10261,0.0404 -6.10261,2.06038025 v 1.13895 l 1.82821,0.10124 c 3.91757,0.2168 8.99138,0.20621 9.11114,-0.019 z"
         id="path49" />
    </g>
  </g>
</svg>
