<svg height="92" width="92" xmlns="http://www.w3.org/2000/svg"><g><circle cx="46" cy="45.999999" fill="#e6e6e6" r="40.79224" stroke="#333" stroke-linecap="round" stroke-miterlimit="10" stroke-width="3"/><path d="m34.309185 67.309481c-1.01869-.48329-1.07492-1.03206-.91179-8.90171l.15586-7.51773h-1.17474-1.17485l-.0101 1.24602c-.0212 5.26907-2.36993 11.88598-4.84767 13.65665-1.73729 1.24149-3.99495.96405-5.92754-.72839-1.0019-.87745-1.04114-1.47351-.12602-1.9132 2.55693-1.22851 3.35837-1.75454 4.213-2.7651 1.41951-1.67849 2.17766-3.80782 2.3407-6.57346.1679-2.848-.0445-3.04022-2.31237-2.09459-2.88574 1.20311-3.39752.57489-1.791-2.19852 1.06198-1.83339 2.00653-2.28729 4.2571-2.04567 5.36581.57608 5.427.57676 6.09594.0671.59683-.45461.64204-.63689.57316-2.31029l-.0749-1.81673-3.27817-.0786c-2.40987-.0578-3.6455.0445-4.6651.38621-2.39319.80208-2.62116.81429-3.12463.16746-.66662-.85637-.34388-1.97597 1.00129-3.47457 1.05287-1.17289 1.17464-1.23087 2.23115-1.0625l1.11751.17807.0809-4.69804c.0941-5.481288.25326-5.930538 2.09817-5.930538 1.83215 0 2.00369.46979 2.09815 5.74472.0759 4.231188.11459 4.539798.62343 4.954228.29857.24308.91461.44197 1.36924.44197h.82642v-6.376708c0-7.31584.0981-7.79023 1.57172-7.93318 1.28247-.1244 2.58667.65866 3.07012 1.84332.33882.83004.39779 2.50293.39779 11.284818v10.31032l.77817-.64422c.42793-.35433 1.28469-.86776 1.90366-1.14097l1.1256-.49676-1.04913-.40257c-1.15664-.44383-1.65101-1.29506-1.40747-2.4235.13714-.63516.36926-.75382 2.11242-1.07973 2.11131-.39472 5.38836-1.43369 6.98193-2.21356 1.25738-.61538.83896-1.00286-1.11498-1.03251-.76279-.0118-1.78411-.18165-2.26949-.37797-.82884-.33519-.87991-.43058-.83744-1.56526l.0455-1.20832-.92776.13877c-1.21672.18199-3.32327-.86943-3.32327-1.65872 0-.399868.38069-.717188 1.384-1.153658 3.50857-1.52623 7.77467-4.5179 10.67184-7.48388 2.21255-2.26511 3.16196-2.43056 4.65023-.81044.77141.83963.88104 1.71077.32325 2.56811-.58186.8945-.45796 1.2957.55941 1.81052.75006.37955 1.65698.46375 4.38454.4071 3.70316-.0769 4.9661.24174 5.49274 1.3858.41821.90863.32557 2.0658-.2394 2.988278-.59986.97936-3.317 2.78622-6.17058 4.10333-1.10951.51214-3.54933 1.75891-5.42163 2.77063-1.87232 1.01171-4.99291 2.52917-6.9346 3.37211-1.9417.84294-3.58715 1.59834-3.65644 1.67866-.0698.0804 2.14338.0513 4.91725-.0646 3.57562-.14933 5.40899-.35043 6.29954-.691l1.25616-.48036.0202-1.65343c.0253-2.06875.55455-3.08839 1.73567-3.34601 2.02251-.44112 3.92698 1.26605 3.92698 3.52012 0 .75105.1497 1.40539.37028 1.61818.36472.352 6.61226 1.12705 9.59035 1.18979 2.39925.0505 2.49554.15222 1.79919 1.89987-.96044 2.41002-2.8902 3.94752-4.96125 3.9528-.35228.00084-1.75095-.40191-3.10815-.89514-1.3572-.49324-2.62864-.85605-2.82546-.80627-.28754.0727-.37958 1.10826-.46787 5.26096-.12107 5.6959-.34186 7.11328-1.31797 8.46207-2.96392 4.09519-11.61315 3.16689-17.14614-1.84021-1.09111-.98742-1.35316-1.38594-1.29581-1.97068.1062-1.08206 1.13955-1.08884 3.3438-.022 2.57261 1.24518 5.79657 2.10426 7.0584 1.88083 1.24847-.22109 1.82548-.5404 2.71097-1.50027.92017-.99747 1.53076-4.23369 1.5613-8.27451l.0233-3.07841-4.73368-.0798c-4.51723-.0762-4.71527-.056-4.32902.43976.22261.28578.71972 1.12149 1.10476 1.85717.60675 1.15941 1.39847 1.93688 3.45415 3.39229.44866.31768.44279.36521-.13532 1.09092-.88124 1.10624-2.022 1.46833-3.35079 1.06356-3.44464-1.04934-5.03254-4.45471-3.20544-6.87416.43045-.56999.65549-1.03634.49994-1.03634-1.47373 0-7.22296 1.94999-9.13036 3.09681l-.72589.43643-.0101 2.99758c-.0101 4.22585-.42034 8.67999-.87577 9.48819-.69069 1.22565-2.76539 2.07793-3.82939 1.57314zm20.25439-28.89359c3.25005-1.58171 5.51337-3.25421 5.51337-4.074188 0-.75944-1.22966-1.56085-2.96827-1.93453-1.85421-.39852-3.93497.005-6.42839 1.24477-1.62967.81067-1.96313 1.092418-2.02544 1.711098-.083.82342.53837 1.63152 1.96577 2.55716.59916.38853.87618.77412.86263 1.20063-.0111.34556.0606.6283.1603.6283.0991 0 1.41324-.59996 2.92003-1.33324zm-1.29521-1.49649c-1.77613-.27302-1.89122-.35645-1.89122-1.37097 0-.53047.1513-1.205108.33629-1.499168.29118-.46297.4517-.48984 1.19781-.2005 1.6146.62625 3.54628 2.088228 3.45971 2.618468-.084.51387-1.4274.70967-3.10259.45217z" fill="#333" stroke-width=".271903"/></g></svg>