<?xml version="1.0" encoding="UTF-8" standalone="no"?>
<svg
   width="92"
   height="92"
   id="svg2"
   version="1.1"
   inkscape:version="1.3 (0e150ed6c4, 2023-07-21)"
   sodipodi:docname="BK.svg"
   xmlns:inkscape="http://www.inkscape.org/namespaces/inkscape"
   xmlns:sodipodi="http://sodipodi.sourceforge.net/DTD/sodipodi-0.dtd"
   xmlns="http://www.w3.org/2000/svg"
   xmlns:svg="http://www.w3.org/2000/svg"
   xmlns:rdf="http://www.w3.org/1999/02/22-rdf-syntax-ns#"
   xmlns:cc="http://creativecommons.org/ns#"
   xmlns:dc="http://purl.org/dc/elements/1.1/">
  <metadata
     id="metadata12">
    <rdf:RDF>
      <cc:Work
         rdf:about="">
        <dc:format>image/svg+xml</dc:format>
        <dc:type
           rdf:resource="http://purl.org/dc/dcmitype/StillImage" />
      </cc:Work>
    </rdf:RDF>
  </metadata>
  <defs
     id="defs10" />
  <sodipodi:namedview
     pagecolor="#ffffff"
     bordercolor="#666666"
     borderopacity="1"
     objecttolerance="10"
     gridtolerance="10"
     guidetolerance="10"
     inkscape:pageopacity="0"
     inkscape:pageshadow="2"
     inkscape:window-width="1916"
     inkscape:window-height="2022"
     id="namedview8"
     showgrid="false"
     inkscape:zoom="2.6222222"
     inkscape:cx="-83.51695"
     inkscape:cy="-35.65678"
     inkscape:window-x="5750"
     inkscape:window-y="0"
     inkscape:window-maximized="0"
     inkscape:current-layer="layer2"
     fit-margin-top="0"
     fit-margin-left="0"
     fit-margin-right="0"
     fit-margin-bottom="0"
     inkscape:pagecheckerboard="false"
     inkscape:snap-nodes="false"
     inkscape:document-rotation="0"
     showguides="false"
     inkscape:showpageshadow="2"
     inkscape:deskcolor="#d1d1d1" />
  <g
     inkscape:groupmode="layer"
     id="layer1"
     inkscape:label="Background"
     style="display:inline" />
  <g
     inkscape:groupmode="layer"
     id="layer2"
     inkscape:label="Symbol"
     style="display:inline">
    <g
       id="g62"
       transform="translate(0.6186409,-2.3347435)"
       style="display:inline">
      <circle
         style="color:#000000;display:inline;overflow:visible;visibility:visible;fill:#e6e6e6;fill-opacity:1;fill-rule:nonzero;stroke:#333333;stroke-width:3;stroke-linecap:round;stroke-linejoin:miter;stroke-miterlimit:10;stroke-dasharray:none;stroke-dashoffset:0;stroke-opacity:1;marker:none;enable-background:accumulate"
         id="circle62"
         cx="45.381359"
         cy="48.334743"
         r="40.79224" />
    </g>
    <path
       style="display:inline;fill:#333333;fill-opacity:1;stroke-width:0.271903"
       d="m 34.309185,67.309481 c -1.01869,-0.48329 -1.07492,-1.03206 -0.91179,-8.90171 l 0.15586,-7.51773 h -1.17474 -1.17485 l -0.0101,1.24602 c -0.0212,5.26907 -2.36993,11.88598 -4.84767,13.65665 -1.73729,1.24149 -3.99495,0.96405 -5.92754,-0.72839 -1.0019,-0.87745 -1.04114,-1.47351 -0.12602,-1.9132 2.55693,-1.22851 3.35837,-1.75454 4.213,-2.7651 1.41951,-1.67849 2.17766,-3.80782 2.3407,-6.57346 0.1679,-2.848 -0.0445,-3.04022 -2.31237,-2.09459 -2.88574,1.20311 -3.39752,0.57489 -1.791,-2.19852 1.06198,-1.83339 2.00653,-2.28729 4.2571,-2.04567 5.36581,0.57608 5.427,0.57676 6.09594,0.0671 0.59683,-0.45461 0.64204,-0.63689 0.57316,-2.31029 l -0.0749,-1.81673 -3.27817,-0.0786 c -2.40987,-0.0578 -3.6455,0.0445 -4.6651,0.38621 -2.39319,0.80208 -2.62116,0.81429 -3.12463,0.16746 -0.66662,-0.85637 -0.34388,-1.97597 1.00129,-3.47457 1.05287,-1.17289 1.17464,-1.23087 2.23115,-1.0625 l 1.11751,0.17807 0.0809,-4.69804 c 0.0941,-5.481288 0.25326,-5.930538 2.09817,-5.930538 1.83215,0 2.00369,0.46979 2.09815,5.74472 0.0759,4.231188 0.11459,4.539798 0.62343,4.954228 0.29857,0.24308 0.91461,0.44197 1.36924,0.44197 h 0.82642 v -6.376708 c 0,-7.31584 0.0981,-7.79023 1.57172,-7.93318 1.28247,-0.1244 2.58667,0.65866 3.07012,1.84332 0.33882,0.83004 0.39779,2.50293 0.39779,11.284818 v 10.31032 l 0.77817,-0.64422 c 0.42793,-0.35433 1.28469,-0.86776 1.90366,-1.14097 l 1.1256,-0.49676 -1.04913,-0.40257 c -1.15664,-0.44383 -1.65101,-1.29506 -1.40747,-2.4235 0.13714,-0.63516 0.36926,-0.75382 2.11242,-1.07973 2.11131,-0.39472 5.38836,-1.43369 6.98193,-2.21356 1.25738,-0.61538 0.83896,-1.00286 -1.11498,-1.03251 -0.76279,-0.0118 -1.78411,-0.18165 -2.26949,-0.37797 -0.82884,-0.33519 -0.87991,-0.43058 -0.83744,-1.56526 l 0.0455,-1.20832 -0.92776,0.13877 c -1.21672,0.18199 -3.32327,-0.86943 -3.32327,-1.65872 0,-0.399868 0.38069,-0.717188 1.384,-1.153658 3.50857,-1.52623 7.77467,-4.5179 10.67184,-7.48388 2.21255,-2.26511 3.16196,-2.43056 4.65023,-0.81044 0.77141,0.83963 0.88104,1.71077 0.32325,2.56811 -0.58186,0.8945 -0.45796,1.2957 0.55941,1.81052 0.75006,0.37955 1.65698,0.46375 4.38454,0.4071 3.70316,-0.0769 4.9661,0.24174 5.49274,1.3858 0.41821,0.90863 0.32557,2.0658 -0.2394,2.988278 -0.59986,0.97936 -3.317,2.78622 -6.17058,4.10333 -1.10951,0.51214 -3.54933,1.75891 -5.42163,2.77063 -1.87232,1.01171 -4.99291,2.52917 -6.9346,3.37211 -1.9417,0.84294 -3.58715,1.59834 -3.65644,1.67866 -0.0698,0.0804 2.14338,0.0513 4.91725,-0.0646 3.57562,-0.14933 5.40899,-0.35043 6.29954,-0.691 l 1.25616,-0.48036 0.0202,-1.65343 c 0.0253,-2.06875 0.55455,-3.08839 1.73567,-3.34601 2.02251,-0.44112 3.92698,1.26605 3.92698,3.52012 0,0.75105 0.1497,1.40539 0.37028,1.61818 0.36472,0.352 6.61226,1.12705 9.59035,1.18979 2.39925,0.0505 2.49554,0.15222 1.79919,1.89987 -0.96044,2.41002 -2.8902,3.94752 -4.96125,3.9528 -0.35228,8.4e-4 -1.75095,-0.40191 -3.10815,-0.89514 -1.3572,-0.49324 -2.62864,-0.85605 -2.82546,-0.80627 -0.28754,0.0727 -0.37958,1.10826 -0.46787,5.26096 -0.12107,5.6959 -0.34186,7.11328 -1.31797,8.46207 -2.96392,4.09519 -11.61315,3.16689 -17.14614,-1.84021 -1.09111,-0.98742 -1.35316,-1.38594 -1.29581,-1.97068 0.1062,-1.08206 1.13955,-1.08884 3.3438,-0.022 2.57261,1.24518 5.79657,2.10426 7.0584,1.88083 1.24847,-0.22109 1.82548,-0.5404 2.71097,-1.50027 0.92017,-0.99747 1.53076,-4.23369 1.5613,-8.27451 l 0.0233,-3.07841 -4.73368,-0.0798 c -4.51723,-0.0762 -4.71527,-0.056 -4.32902,0.43976 0.22261,0.28578 0.71972,1.12149 1.10476,1.85717 0.60675,1.15941 1.39847,1.93688 3.45415,3.39229 0.44866,0.31768 0.44279,0.36521 -0.13532,1.09092 -0.88124,1.10624 -2.022,1.46833 -3.35079,1.06356 -3.44464,-1.04934 -5.03254,-4.45471 -3.20544,-6.87416 0.43045,-0.56999 0.65549,-1.03634 0.49994,-1.03634 -1.47373,0 -7.22296,1.94999 -9.13036,3.09681 l -0.72589,0.43643 -0.0101,2.99758 c -0.0101,4.22585 -0.42034,8.67999 -0.87577,9.48819 -0.69069,1.22565 -2.76539,2.07793 -3.82939,1.57314 z m 20.25439,-28.89359 c 3.25005,-1.58171 5.51337,-3.25421 5.51337,-4.074188 0,-0.75944 -1.22966,-1.56085 -2.96827,-1.93453 -1.85421,-0.39852 -3.93497,0.005 -6.42839,1.24477 -1.62967,0.81067 -1.96313,1.092418 -2.02544,1.711098 -0.083,0.82342 0.53837,1.63152 1.96577,2.55716 0.59916,0.38853 0.87618,0.77412 0.86263,1.20063 -0.0111,0.34556 0.0606,0.6283 0.1603,0.6283 0.0991,0 1.41324,-0.59996 2.92003,-1.33324 z m -1.29521,-1.49649 c -1.77613,-0.27302 -1.89122,-0.35645 -1.89122,-1.37097 0,-0.53047 0.1513,-1.205108 0.33629,-1.499168 0.29118,-0.46297 0.4517,-0.48984 1.19781,-0.2005 1.6146,0.62625 3.54628,2.088228 3.45971,2.618468 -0.084,0.51387 -1.4274,0.70967 -3.10259,0.45217 z"
       id="path58" />
  </g>
</svg>
