<?xml version="1.0" encoding="UTF-8" standalone="no"?>
<svg
   width="92"
   height="92"
   id="svg2"
   version="1.1"
   inkscape:version="1.3 (0e150ed6c4, 2023-07-21)"
   sodipodi:docname="RC.svg"
   xmlns:inkscape="http://www.inkscape.org/namespaces/inkscape"
   xmlns:sodipodi="http://sodipodi.sourceforge.net/DTD/sodipodi-0.dtd"
   xmlns="http://www.w3.org/2000/svg"
   xmlns:svg="http://www.w3.org/2000/svg"
   xmlns:rdf="http://www.w3.org/1999/02/22-rdf-syntax-ns#"
   xmlns:cc="http://creativecommons.org/ns#"
   xmlns:dc="http://purl.org/dc/elements/1.1/">
  <metadata
     id="metadata12">
    <rdf:RDF>
      <cc:Work
         rdf:about="">
        <dc:format>image/svg+xml</dc:format>
        <dc:type
           rdf:resource="http://purl.org/dc/dcmitype/StillImage" />
      </cc:Work>
    </rdf:RDF>
  </metadata>
  <defs
     id="defs10" />
  <sodipodi:namedview
     pagecolor="#ffffff"
     bordercolor="#666666"
     borderopacity="1"
     objecttolerance="10"
     gridtolerance="10"
     guidetolerance="10"
     inkscape:pageopacity="0"
     inkscape:pageshadow="2"
     inkscape:window-width="1916"
     inkscape:window-height="2022"
     id="namedview8"
     showgrid="false"
     inkscape:zoom="5.2444444"
     inkscape:cx="21.737288"
     inkscape:cy="30.413136"
     inkscape:window-x="5750"
     inkscape:window-y="0"
     inkscape:window-maximized="0"
     inkscape:current-layer="layer2"
     fit-margin-top="0"
     fit-margin-left="0"
     fit-margin-right="0"
     fit-margin-bottom="0"
     inkscape:pagecheckerboard="false"
     inkscape:snap-nodes="false"
     inkscape:document-rotation="0"
     showguides="false"
     inkscape:showpageshadow="2"
     inkscape:deskcolor="#d1d1d1" />
  <g
     inkscape:groupmode="layer"
     id="layer1"
     inkscape:label="Background"
     style="display:inline" />
  <g
     inkscape:groupmode="layer"
     id="layer2"
     inkscape:label="Symbol"
     style="display:inline">
    <g
       id="g24262"
       transform="translate(0.6186409,-2.3347435)"
       style="display:inline;">
      <circle
         style="color:#000000;display:inline;overflow:visible;visibility:visible;fill:#ffe6d5;fill-opacity:1;fill-rule:nonzero;stroke:#df4a4a;stroke-width:3;stroke-linecap:round;stroke-linejoin:miter;stroke-miterlimit:10;stroke-dasharray:none;stroke-dashoffset:0;stroke-opacity:1;marker:none;enable-background:accumulate"
         id="circle4376-8-9"
         cx="45.381359"
         cy="48.334743"
         r="40.79224" />
    </g>
    <g
       id="g111"
       transform="matrix(0.84224259,0,0,0.84224259,196.46972,-225.6526)"
       style="display:inline;fill:#df4a4a;fill-opacity:1">
      <path
         style="fill:#df4a4a;fill-opacity:1;stroke-width:0.321299"
         d="m -191.26683,318.75067 c -0.0863,-0.25773 0.053,-1.50622 0.30941,-2.77441 0.25637,-1.26818 0.46614,-2.88803 0.46614,-3.59969 0,-2.17783 0.83928,-4.48306 1.72503,-4.73808 1.54476,-0.44477 2.59576,1.22372 2.30906,3.66575 -0.27307,2.32603 -1.5755,5.36515 -2.87758,6.71463 -1.25167,1.29725 -1.68768,1.46238 -1.93206,0.7318 z"
         id="path107" />
      <path
         style="fill:#df4a4a;fill-opacity:1;stroke-width:0.321299"
         d="m -203.2253,324.29523 c -0.0803,-0.42589 -0.36119,-2.15331 -0.62405,-3.83872 -0.26283,-1.68544 -0.80538,-4.24061 -1.20565,-5.67817 -0.99146,-3.56083 -0.97811,-5.34059 0.0459,-6.1102 0.70267,-0.52817 0.9035,-0.53763 1.99771,-0.094 1.56156,0.63315 2.23951,1.72038 2.64192,4.23694 0.50389,3.151 -0.28706,10.3401 -1.30134,11.82825 -0.48242,0.70781 -1.39391,0.50601 -1.55438,-0.34411 z"
         id="path108" />
      <path
         style="fill:#df4a4a;fill-opacity:1;stroke-width:0.321299"
         d="m -209.62663,343.28879 c -1.28716,-0.75395 -2.16345,-2.11587 -2.16345,-3.36241 0,-0.86161 0.50157,-1.29478 1.81217,-1.56504 3.29279,-0.67898 8.59547,-5.169 10.34735,-8.76156 2.56843,-5.2671 3.11485,-13.5917 1.32256,-20.14908 -0.32849,-1.20181 -0.57673,-3.11133 -0.57894,-4.45332 -0.004,-2.1407 0.0741,-2.43871 0.87301,-3.35527 1.28591,-1.47516 2.24683,-1.3399 3.81445,0.53692 2.07676,2.48642 2.33968,4.06512 1.9412,11.65598 -0.18029,3.43452 -0.34652,7.66799 -0.36942,9.40771 -0.0403,3.06464 -0.012,3.20597 0.90851,4.53934 1.11895,1.62066 4.79035,5.57241 6.3845,6.87196 2.1429,1.74687 2.69259,4.58249 0.98371,5.0745 -0.93751,0.26995 -2.98223,-1.10416 -6.83486,-4.59318 -1.51522,-1.37223 -2.95752,-2.48808 -3.20508,-2.4797 -0.24757,0.009 -1.39507,1.49716 -2.55001,3.30838 -3.41665,5.35824 -6.06922,7.56067 -9.50796,7.8946 -1.56215,0.1517 -2.11529,0.0526 -3.17774,-0.56983 z"
         id="path109" />
      <path
         style="fill:#df4a4a;fill-opacity:1;stroke-width:0.321299"
         d="m -163.55107,346.39006 c -7.65803,-1.54739 -10.97598,-3.01004 -13.77795,-6.07369 -3.37872,-3.69427 -4.16278,-6.5472 -4.16278,-15.14711 0,-3.67673 -0.11288,-5.94998 -0.29547,-5.94998 -0.16251,0 -0.96232,0.47069 -1.77734,1.04598 -1.73521,1.22482 -4.87251,2.73946 -5.67429,2.73946 -0.74046,0 -1.6133,-1.1381 -1.38841,-1.81039 0.0981,-0.29334 0.94509,-1.11312 1.88213,-1.82171 4.62676,-3.49872 7.97152,-9.29601 8.92389,-15.46717 0.59989,-3.88715 1.10834,-5.25471 2.11731,-5.69476 1.0091,-0.44015 1.69409,-0.18176 2.99684,1.13041 1.379,1.38898 1.91486,2.64967 1.91486,4.50511 0,2.59232 -0.43036,2.52722 11.57457,1.75068 2.95797,-0.19138 3.45474,-0.13916 4.49975,0.47266 2.43177,1.42375 3.12543,3.17665 3.12248,7.89065 -0.003,3.94753 -0.81295,8.31223 -2.01333,10.84231 -1.02912,2.16908 -4.07228,5.43514 -6.15162,6.6022 -3.39156,1.90355 -7.28208,2.01676 -7.28208,0.2119 0,-0.68085 0.39168,-1.05491 2.22945,-2.12921 3.69705,-2.16119 5.54178,-4.80803 6.45769,-9.26556 0.57146,-2.78118 0.59165,-6.86404 0.0414,-8.37476 -0.60244,-1.65404 -1.55362,-1.88059 -8.22881,-1.95996 l -5.79994,-0.0688 -1.31686,2.37766 c -0.72429,1.30772 -1.32039,2.51542 -1.32468,2.68378 -0.0106,0.4162 6.31464,0.0252 8.4632,-0.52333 1.60441,-0.40952 1.77771,-0.39076 2.54986,0.27585 0.92668,0.8 0.90523,0.48258 0.46819,6.92763 -0.24748,3.64963 -0.37814,4.33756 -0.94767,4.9899 -0.56601,0.64835 -0.90624,0.73505 -2.37618,0.60538 -2.85871,-0.25208 -6.76308,-0.20948 -7.68199,0.0839 l -0.86672,0.27668 0.15861,2.6545 c 0.39488,6.6089 1.87613,7.38033 14.17411,7.38193 6.31435,6.8e-4 7.07772,-0.0642 8.99948,-0.76768 2.817,-1.03104 4.79655,-2.37361 6.58835,-4.46841 0.81876,-0.95719 1.61535,-1.74034 1.77022,-1.74034 0.41076,0 0.003,6.3741 -0.54055,8.4468 -1.81477,6.92204 -7.52147,9.3488 -17.32574,7.36771 z m -6.82134,-23.25533 c 0.81513,-0.93511 1.0758,-3.16889 0.47699,-4.08752 -0.38621,-0.5925 -0.79817,-0.68827 -2.96088,-0.68827 -1.91824,0 -2.70797,0.14713 -3.34013,0.6223 -1.09701,0.82456 -1.41593,1.87085 -0.96417,3.16317 0.52696,1.50733 1.4711,1.93639 3.9907,1.8135 1.72208,-0.084 2.30181,-0.25457 2.79749,-0.82318 z"
         id="path110" />
    </g>
  </g>
</svg>
