<svg height="92" width="92" xmlns="http://www.w3.org/2000/svg"><g><circle cx="46" cy="45.999999" fill="#ffe6d5" r="40.79224" stroke="#df4a4a" stroke-linecap="round" stroke-miterlimit="10" stroke-width="3"/><g fill="#df4a4a" stroke-width=".271903" transform="translate(267.97651 31.161913)"><path d="m-217.93403 33.453338c-.44987-.12417-1.00644-.40751-1.23685-.62965-1.02535-.98864-1.09726-1.84964-1.09726-13.13749 0-9.49822-.0607-11.2083297-.48487-13.7551097-.59774-3.58478-.38849-5.06840025.83744-5.93754025.91168-.64631 2.59668-.72871 3.31083-.16187.7.55563 12.05757 1.25512005 13.05916.80425.3904-.17575 1.31786-.31955 2.06104-.31955 1.10031 0 1.50153.14708 2.16107.79228005l.80983.7922902-.18731 2.79919c-.10296 1.53955-.26013 7.8126097-.34924 13.9401197-.15292 10.52522-.19095 11.20573-.68815 12.31364-1.01171 2.25438-2.89162 3.06517-4.4873 1.93536-1.04277-.73824-4.94153-1.32896-7.40683-1.12224-1.43235.12012-2.40562.40493-3.64986 1.06795-.93312.49729-1.72737.89065-1.7651.87415-.0374-.0164-.43672-.13161-.8866-.25578zm12.46233-6.04763c.62606-.54205.72093-.83286.78687-2.4122.12967-3.10843.31971-3.0067-5.4453-2.91452l-4.96852.0795-.0729 2.57014c-.0577 2.0228 0 2.60462.28997 2.73204.98106.43775 3.08913.66299 5.75347.61476 2.55532-.0462 3.03867-.13478 3.65643-.66967zm1.28924-11.46087c.0658-2.15543.0212-2.43469-.4347-2.71815-.32698-.2035-2.28254-.28763-5.49466-.2364l-4.98683.0795-.20866 2.01532c-.11479 1.10843-.14037 2.33136-.0567 2.71764l.15161.7023 5.47868-.079 5.47858-.079zm0-8.4722897c.0526-1.25496-.0303-1.88663-.27713-2.12479-.41386-.39932-9.14704-1.09497-10.13326-.80717-.65954.19244-.66115.2005-.48567 2.30888.0971 1.16368.3019 2.21423.45574 2.33456.15373.12033 2.54914.18631 5.32292.14659l5.04336-.0722z"/><path d="m-233.12877 35.498228c-.48183-.56031-.50428-.97728-.50428-9.38183 0-4.85639-.0991-8.79546-.2215-8.79546-.12187 0-.70879.73437-1.30441 1.63196-2.54065 3.82872-6.46176 7.20926-8.81297 7.5979-2.22924.36847-4.77696-1.42022-5.31169-3.72917-.14221-.61408-.19723-1.23199-.12218-1.37315.0749-.14115 1.07309-.603 2.2178-1.02631 4.88772-1.80744 11.28303-6.38044 12.79205-9.14699.96103-1.7618097 1.18911-2.9661497.67501-3.5638397-.42166-.49031-1.57122-.29874-6.95129 1.15837-1.16696.31607-2.40077.49328-2.74171.39379-.55284-.16133-.60401-.29474-.47293-1.23351.24415-1.74988 1.30087-3.28072 2.82435-4.09162 1.25535-.66819 1.47169-.6984 2.81858-.39357.80235.1816 2.13962.2881 2.97181.23667l1.51295-.0935-.092-3.98715025c-.10114-4.37234995.0263-4.96609995 1.22188-5.68481995 1.08028-.64951 2.23237-.54979 3.16094.2736 1.30047 1.1533 1.72253 2.54268 1.69694 5.58700995-.0334 3.92725025-.0101 3.95795025 3.08266 3.95795025 2.88513 0 3.22223.1832 2.88635 1.56887-.38606 1.59259-1.0193 1.94875-3.47388 1.95381-2.6876.006-2.93317.15581-2.69489 1.64919.42753 2.6803597 2.06681 4.8600497 6.00107 7.9793397.65873.52234 1.19771 1.06356 1.19771 1.20273 0 .13918-.34904.5946-.77575 1.01206-1.29722 1.26904-2.36648 1.06513-4.47557-.85349-.97489-.88688-1.83752-1.6125-1.91701-1.6125-.0799 0-.14625 3.92498-.14838 8.72217 0 4.79719-.0961 8.89114-.20875 9.09766-.28127.51536-2.65059 1.53018-3.57258 1.53018-.41761 0-.97874-.26153-1.25819-.58635z"/></g></g></svg>