<?xml version="1.0" encoding="UTF-8" standalone="no"?>
<svg
   width="92"
   height="92"
   id="svg2"
   version="1.1"
   inkscape:version="1.3 (0e150ed6c4, 2023-07-21)"
   sodipodi:docname="RH.svg"
   xmlns:inkscape="http://www.inkscape.org/namespaces/inkscape"
   xmlns:sodipodi="http://sodipodi.sourceforge.net/DTD/sodipodi-0.dtd"
   xmlns="http://www.w3.org/2000/svg"
   xmlns:svg="http://www.w3.org/2000/svg"
   xmlns:rdf="http://www.w3.org/1999/02/22-rdf-syntax-ns#"
   xmlns:cc="http://creativecommons.org/ns#"
   xmlns:dc="http://purl.org/dc/elements/1.1/">
  <metadata
     id="metadata12">
    <rdf:RDF>
      <cc:Work
         rdf:about="">
        <dc:format>image/svg+xml</dc:format>
        <dc:type
           rdf:resource="http://purl.org/dc/dcmitype/StillImage" />
      </cc:Work>
    </rdf:RDF>
  </metadata>
  <defs
     id="defs10" />
  <sodipodi:namedview
     pagecolor="#ffffff"
     bordercolor="#666666"
     borderopacity="1"
     objecttolerance="10"
     gridtolerance="10"
     guidetolerance="10"
     inkscape:pageopacity="0"
     inkscape:pageshadow="2"
     inkscape:window-width="1916"
     inkscape:window-height="2022"
     id="namedview8"
     showgrid="false"
     inkscape:zoom="1.8541911"
     inkscape:cx="133.75105"
     inkscape:cy="-36.404015"
     inkscape:window-x="1910"
     inkscape:window-y="0"
     inkscape:window-maximized="0"
     inkscape:current-layer="layer2"
     fit-margin-top="0"
     fit-margin-left="0"
     fit-margin-right="0"
     fit-margin-bottom="0"
     inkscape:pagecheckerboard="false"
     inkscape:snap-nodes="false"
     inkscape:document-rotation="0"
     showguides="false"
     inkscape:showpageshadow="2"
     inkscape:deskcolor="#d1d1d1" />
  <g
     inkscape:groupmode="layer"
     id="layer1"
     inkscape:label="Background"
     style="display:inline" />
  <g
     inkscape:groupmode="layer"
     id="layer2"
     inkscape:label="Symbol"
     style="display:inline">
    <g
       id="g24262"
       transform="translate(0.6186409,-2.3347435)"
       style="display:inline;">
      <circle
         style="color:#000000;display:inline;overflow:visible;visibility:visible;fill:#ffe6d5;fill-opacity:1;fill-rule:nonzero;stroke:#df4a4a;stroke-width:3;stroke-linecap:round;stroke-linejoin:miter;stroke-miterlimit:10;stroke-dasharray:none;stroke-dashoffset:0;stroke-opacity:1;marker:none;enable-background:accumulate"
         id="circle4376-8-9"
         cx="45.381359"
         cy="48.334743"
         r="40.79224" />
    </g>
    <path
       style="display:inline;fill:#df4a4a;fill-opacity:1;stroke-width:0.322832"
       d="m 60.650559,61.538581 c -4.34731,-1.78984 -7.485,-4.47759 -7.485,-6.41155 0,-2.605216 2.20872,-3.372266 4.3712,-1.51808 0.64222,0.55064 2.41539,2.3912 3.94046,4.09014 3.99654,4.45241 3.72503,5.71348 -0.82666,3.83949 z"
       id="path56" />
    <path
       style="display:inline;fill:#df4a4a;fill-opacity:1;stroke-width:0.322832"
       d="m 50.199709,64.734061 c -1.5007,-0.4989 -3.89279,-2.39362 -5.34257,-4.2317 -0.98398,-1.24764 -1.27242,-1.88603 -1.27242,-2.81673 0,-1.79721 0.47914,-2.94107 1.33666,-3.19132 1.42877,-0.41691 2.20223,0.1008 3.04091,2.03547 0.43446,1.00189 1.44233,2.92281 2.23994,4.26873 1.41411,2.38642 1.92087,3.99602 1.31661,4.18227 -0.16464,0.0508 -0.75834,-0.0603 -1.31913,-0.24672 z"
       id="path55" />
    <path
       style="display:inline;fill:#df4a4a;fill-opacity:1;stroke-width:0.322832"
       d="m 32.017439,66.360781 c -0.18193,-0.55102 3.19653,-8.84436 3.96844,-9.74185 0.25073,-0.29161 0.76506,-0.53018 1.14272,-0.53018 0.91745,0 2.26456,1.27187 2.26456,2.13816 0,1.03269 -1.65753,3.64972 -3.99222,6.3032 -2.03183,2.30935 -3.04463,2.85737 -3.3835,1.83067 z"
       id="path54" />
    <path
       style="display:inline;fill:#df4a4a;fill-opacity:1;stroke-width:0.322832"
       d="m 15.885729,68.136361 c -0.54434,-0.4627 -0.52237,-0.53509 0.5016,-1.65346 0.58901,-0.64326 1.78097,-1.79615 2.64895,-2.56196 0.86797,-0.76582 2.91109,-2.91789 4.54016,-4.78241 1.62919,-1.8645 3.29573,-3.48736 3.70353,-3.60636 1.60373,-0.46796 3.31927,2.0658 2.8065,4.14484 -0.33119,1.34249 -0.95707,2.12628 -2.96765,3.71646 -2.24186,1.77317 -4.92323,3.30937 -7.59968,4.35394 -2.59047,1.01105 -2.86691,1.04064 -3.63341,0.38895 z"
       id="path52" />
    <path
       style="display:inline;fill:#df4a4a;fill-opacity:1;stroke-width:0.322832"
       d="m 61.699619,69.840651 c -3.39227,-0.87759 -6.49586,-2.84837 -7.4533,-4.73282 l -0.56596,-1.11398 1.91379,0.31163 c 2.8597,0.46567 6.40016,0.30076 7.90698,-0.36829 3.9993,-1.77575 6.31946,-10.35657 3.24121,-11.987215 -0.50592,-0.268035 -5.69574,-0.386485 -16.93411,-0.386485 h -16.20447 l -2.02788,1.086729 c -2.3922,1.281941 -3.44871,1.202371 -5.10444,-0.384419 -1.49349,-1.431231 -1.58644,-2.242721 -0.66671,-5.82165 0.67068,-2.609715 0.80937,-3.932939 0.94087,-8.976367 0.0985,-3.760779 0.0132,-7.33485 -0.23177,-9.812362 -0.34932,-3.525163 -0.33852,-3.981484 0.11288,-4.783033 0.67284,-1.193813 1.7213,-1.433981 3.74232,-0.857186 1.362,0.388719 5.96509,0.482192 23.74472,0.482192 12.13036,0 22.15275,0.112951 22.27187,0.251099 0.35629,0.412985 -0.50748,3.409519 -1.29763,4.50126 -1.5563,2.150351 -2.80278,2.385324 -7.99945,1.507992 -1.64672,-0.278004 -5.29982,-0.610149 -8.11785,-0.738094 l -5.12389,-0.232628 -0.20871,1.618358 c -0.11528,0.890094 -0.12525,1.775454 -0.0228,1.967468 0.11648,0.217899 2.91457,0.349124 7.44597,0.349124 8.10404,0 8.72175,0.144698 8.04039,1.883377 -0.1973,0.503455 -0.7091,1.070282 -1.13744,1.259601 -0.44455,0.196495 -3.4337,0.311092 -6.96479,0.267001 -7.15862,-0.08935 -7.62298,0.03993 -7.4754,2.081647 0.0853,1.169604 0.18553,1.293024 1.28947,1.576612 0.65867,0.169199 3.89219,0.230573 7.18551,0.136405 3.29344,-0.09424 6.32486,-0.06367 6.73663,0.06771 0.56512,0.18051 0.77107,0.507518 0.84096,1.33526 0.16944,2.009952 -0.50712,2.213708 -7.93304,2.389136 -3.59185,0.08488 -6.76617,0.240348 -7.05402,0.345549 -0.28772,0.105266 -0.60342,0.611601 -0.70141,1.125332 -0.0985,0.513745 -0.23573,1.184516 -0.30598,1.490638 -0.10807,0.469054 0.30418,0.592195 2.61881,0.783217 4.30143,0.354975 10.61969,0.266514 13.31403,-0.186415 2.95997,-0.497563 4.6181,-0.07958 5.43432,1.37015 0.77442,1.375216 0.74837,9.225407 -0.0396,11.922507 -1.1067,3.78807 -2.60044,6.62098 -4.31705,8.18751 -2.71319,2.47585 -5.16016,3.04911 -8.89311,2.08342 z M 46.819079,46.173269 c 0.33215,-0.361033 -0.4562,-2.032404 -1.1575,-2.454114 -0.91612,-0.550771 -6.41216,-0.702812 -10.23434,-0.283127 l -2.02102,0.221905 v 1.313046 c 0,0.722178 0.16847,1.401829 0.3743,1.510338 0.35773,0.188579 12.85327,-0.106672 13.03856,-0.308048 z m -1.17479,-7.010732 c 0.87806,-0.204174 0.9357,-0.311969 0.9357,-1.751409 0,-0.927315 -0.15203,-1.601647 -0.38439,-1.705297 -0.21135,-0.09424 -3.20902,-0.05026 -6.66158,0.09801 l -6.27743,0.26939 -0.0913,1.470477 -0.0913,1.470474 4.73242,0.105405 c 2.60284,0.05795 5.2208,0.140342 5.81774,0.182981 0.59695,0.04259 1.50635,-0.02038 2.02091,-0.140035 z m 0.75029,-7.373548 c 0.0817,-0.154582 0.24221,-1.094449 0.35569,-2.08857 l 0.20619,-1.807524 h -6.30457 c -7.10337,0 -7.24567,0.04803 -7.24567,2.446295 v 1.352277 l 2.17065,0.12021 c 4.65136,0.257409 10.67553,0.244831 10.81771,-0.02261 z"
       id="path49" />
  </g>
</svg>
