<svg height="92" width="92" xmlns="http://www.w3.org/2000/svg"><g><circle cx="46" cy="45.999999" fill="#ffe6d5" r="40.79224" stroke="#df4a4a" stroke-linecap="round" stroke-miterlimit="10" stroke-width="3"/><g fill="#df4a4a" stroke-width=".271903"><path d="m23.62502 62.453378c-.80871-1.03896-.97377-2.59985-.77827-7.35823.10286-2.50267.20046-8.33274.21694-12.9557l.0303-8.40538.61403-.75986c.89226-1.10418 2.28335-1.47124 3.44232-.90826 1.8624.90476 2.28082.49674 3.08528-3.00911.59087-2.57467 1.07726-3.2859 2.24715-3.2859 1.03223 0 2.33795 1.33976 2.33543 2.3962 0 .81018-.63708 1.99846-1.51134 2.8278-1.2672 1.20208.5327 1.55821 3.65642.72342 1.44924-.3873 2.55411.028 3.05182 1.14706.34276.77049.39374 1.68758.30908 5.55611-.09 4.08945-.16152 4.72691-.61352 5.4307-.73346 1.14217-1.63038 1.31547-4.25063.82135-2.60892-.49196-6.25442-.56828-6.93449-.14517-1.04812.65221-1.15927 3.17122-.17518 3.97259.82673.67324 4.62334.57063 6.94815-.18779 1.67064-.54503 2.05902-.57715 3.2455-.26842 1.05904.27554 1.39888.50655 1.58568 1.07798.3372 1.03109.27672 6.89578-.0971 9.3672-.61018 4.03976-1.60996 4.67454-5.72384 3.63398-3.10967-.78658-5.39737-.70321-6.92459.25236-1.29803.81209-3.1575.85022-3.75929.0772zm10.31188-5.0113c1.34295-.36176 1.98215-1.29448 1.79697-2.6218-.26955-1.93102-.80386-2.22317-4.06575-2.22317-3.29697 0-3.60687.1739-3.83514 2.15234-.20774 1.80094.35065 2.62297 1.87676 2.76268 2.33331.21363 3.22932.19877 4.22716-.0701zm.11692-16.99689c1.36722-.30672 2.12962-1.24648 1.90002-2.34207-.30412-1.45094-.90489-1.8261-3.1847-1.98847-3.57623-.2547-4.90521.55306-4.71436 2.86531.0586.7144.26094 1.10148.71263 1.3658.71851.42034 3.61315.47478 5.28641.0995z"/><path d="m54.8572 66.564238c-1.3129-.93085-1.38865-1.7385-1.10273-11.74918.14078-4.92863.2217-10.67627.17983-12.77251l-.0759-3.81137-.97803-.0932c-1.07674-.10266-2.42474.41637-2.42869.93505-.0334 4.43594-1.12316 14.39323-1.91408 17.48978-.96357 3.77238-4.00274 5.48759-6.68306 3.77174-1.66316-1.06467-1.61391-1.71202.28157-3.70639 2.05315-2.16021 2.63663-3.30361 3.43716-6.73561.86789-3.72145.98541-9.57864.25831-12.87579-.42722-1.93694-.43156-2.16205-.0587-3.00088.56458-1.26938 1.30198-1.38302 3.46285-.53369 2.76529 1.08683 3.56743 1.19395 4.23496.56552.55405-.52161.55829-.57745.25649-3.36571-.16891-1.55942-.23222-3.18178-.14079-3.60523.2833-1.31248 1.24929-2.18533 2.41847-2.18533.87709 0 1.21399.19683 2.21063 1.29169l1.17586 1.29169.10013 3.12622c.0951 2.99961.1245 3.13728.71709 3.39923.88397.39074 2.49361.32967 4.24122-.16092 2.07581-.58276 2.97232-.54784 3.73027.14531 1.04033.95148 1.28619 2.27742.8254 4.45085-.79416 3.74522-.92189 5.95659-.58712 10.16292.4877 6.12708.42904 9.34699-.19308 10.59531-.6036 1.21123-2.13355 2.19026-3.01893 1.93189-.91917-.2682-1.07199-1.47664-1.24596-9.84781-.085-4.11188-.22433-8.51029-.30878-9.77426-.19712-2.95152-.56345-3.41893-2.68013-3.41893h-1.49191l.09 13.65598.089 13.65598-.82349.85654c-.6651.69169-1.05328.85631-2.01734.85543-.717-.00059-1.49992-.21808-1.96001-.54429z"/></g></g></svg>