<?xml version="1.0" encoding="UTF-8" standalone="no"?>
<svg
   width="92"
   height="92"
   id="svg2"
   version="1.1"
   inkscape:version="1.3 (0e150ed6c4, 2023-07-21)"
   sodipodi:docname="RR.svg"
   xmlns:inkscape="http://www.inkscape.org/namespaces/inkscape"
   xmlns:sodipodi="http://sodipodi.sourceforge.net/DTD/sodipodi-0.dtd"
   xmlns="http://www.w3.org/2000/svg"
   xmlns:svg="http://www.w3.org/2000/svg"
   xmlns:rdf="http://www.w3.org/1999/02/22-rdf-syntax-ns#"
   xmlns:cc="http://creativecommons.org/ns#"
   xmlns:dc="http://purl.org/dc/elements/1.1/">
  <metadata
     id="metadata12">
    <rdf:RDF>
      <cc:Work
         rdf:about="">
        <dc:format>image/svg+xml</dc:format>
        <dc:type
           rdf:resource="http://purl.org/dc/dcmitype/StillImage" />
      </cc:Work>
    </rdf:RDF>
  </metadata>
  <defs
     id="defs10" />
  <sodipodi:namedview
     pagecolor="#ffffff"
     bordercolor="#666666"
     borderopacity="1"
     objecttolerance="10"
     gridtolerance="10"
     guidetolerance="10"
     inkscape:pageopacity="0"
     inkscape:pageshadow="2"
     inkscape:window-width="1916"
     inkscape:window-height="2022"
     id="namedview8"
     showgrid="false"
     inkscape:zoom="1.3111111"
     inkscape:cx="-28.983051"
     inkscape:cy="33.177966"
     inkscape:window-x="1910"
     inkscape:window-y="0"
     inkscape:window-maximized="0"
     inkscape:current-layer="layer2"
     fit-margin-top="0"
     fit-margin-left="0"
     fit-margin-right="0"
     fit-margin-bottom="0"
     inkscape:pagecheckerboard="false"
     inkscape:snap-nodes="false"
     inkscape:document-rotation="0"
     showguides="false"
     inkscape:showpageshadow="2"
     inkscape:deskcolor="#d1d1d1" />
  <g
     inkscape:groupmode="layer"
     id="layer1"
     inkscape:label="Background"
     style="display:inline" />
  <g
     inkscape:groupmode="layer"
     id="layer2"
     inkscape:label="Symbol"
     style="display:inline">
    <g
       id="g24262"
       transform="translate(0.6186409,-2.3347435)"
       style="display:inline;">
      <circle
         style="color:#000000;display:inline;overflow:visible;visibility:visible;fill:#ffe6d5;fill-opacity:1;fill-rule:nonzero;stroke:#df4a4a;stroke-width:3;stroke-linecap:round;stroke-linejoin:miter;stroke-miterlimit:10;stroke-dasharray:none;stroke-dashoffset:0;stroke-opacity:1;marker:none;enable-background:accumulate"
         id="circle4376-8-9"
         cx="45.381359"
         cy="48.334743"
         r="40.79224" />
    </g>
    <path
       style="display:inline;fill:#df4a4a;fill-opacity:1;stroke-width:0.3295"
       d="m 43.029218,71.365342 c -0.40652,-0.75145 -0.51207,-2.15553 -0.59279,-7.88706 -0.054,-3.83507 -0.10399,-7.09524 -0.11107,-7.24483 -0.0197,-0.417 -1.70827,-0.32902 -8.54589,0.4453 -6.94499,0.78647 -10.119909,1.38103 -14.820379,2.77532 -1.72898,0.51291 -3.59318,1.06514 -4.14245,1.22719 -0.80012,0.23603 -1.1133,0.15591 -1.57467,-0.40288 -0.54098,-0.65513 -0.54758,-0.77994 -0.10927,-2.05392 0.63897,-1.85538 2.11625,-3.65742 3.73019,-4.54996 1.48148,-0.81934 1.14717,-0.79316 14.670629,-1.14871 10.58415,-0.27827 10.97243,-0.32768 11.144548,-1.41837 0.07229,-0.45791 0.02366,-1.18485 -0.107718,-1.61547 -0.22165,-0.72573 -0.44223,-0.78252 -3.01829,-0.77736 -1.90262,0.005 -3.53446,0.25355 -5.17421,0.7919 -3.75625,1.23313 -5.40177,0.90005 -6.61283,-1.33848 -0.5997,-1.10841 -1.31637,-6.71242 -1.31925,-10.31433 0,-2.24858 0.10327,-2.83191 0.63129,-3.51297 0.63332,-0.81644 0.63584,-0.81662 8.05,-0.60201 l 7.41641,0.21469 0.210083,-1.15858 c 0.147068,-0.81091 0.0634,-1.42974 -0.278773,-2.06221 -0.47527,-0.87859 -0.56113,-0.89787 -3.09528,-0.69557 -1.43357,0.11445 -5.23426,0.35109 -8.44592,0.52586 -4.78442,0.26037 -6.12528,0.45423 -7.421359,1.07292 -2.76171,1.31847 -3.89855,0.80697 -3.52773,-1.58725 0.26047,-1.68101 1.39527,-3.24832 2.86943,-3.9627 1.10622,-0.5361 1.425159,-0.53547 3.968199,0.007 3.58549,0.7659 12.8182,0.89455 14.18104,0.19761 0.85681,-0.4382 0.95384,-0.66076 1.13564,-2.60817 0.30293,-3.24211 0.798975,-3.76578 3.719304,-3.92639 2.227632,-0.12247 2.461761,-0.0664 3.138282,0.75302 0.483593,0.58572 0.800209,1.49419 0.935268,2.6838 0.112279,0.98911 0.312881,2.01128 0.445634,2.27147 0.190023,0.3724 2.421917,0.48448 10.485763,0.5266 l 10.244357,0.0535 0.582158,0.87079 c 0.717639,1.07348 0.616623,1.51354 -0.507574,2.2115 -0.730811,0.45374 -2.311943,0.52763 -9.534896,0.44556 -10.604994,-0.12063 -11.251339,0.0608 -11.251339,3.15685 v 1.11171 h 2.759908 c 1.517967,0 4.525297,-0.26629 6.682955,-0.59175 3.678232,-0.55482 3.990272,-0.55308 5.001349,0.0281 2.132477,1.22561 2.501846,3.98564 1.30077,9.72019 -0.841698,4.01879 -1.404967,5.48154 -2.42128,6.28807 -0.676882,0.53719 -1.064996,0.53528 -4.859037,-0.0239 -2.267848,-0.33422 -5.133826,-0.5546 -6.368862,-0.48975 l -2.2455,0.11797 -0.09295,1.36049 c -0.07805,1.14208 0.01801,1.41109 0.598803,1.67582 0.380488,0.17342 4.868415,0.41942 9.973193,0.54666 5.10479,0.12725 11.336071,0.33116 13.847295,0.45321 5.147308,0.25011 5.141828,0.24598 3.978618,3.00754 -1.25532,2.98021 -3.81098,5.08097 -6.19973,5.09622 -0.686404,0.005 -2.774726,-0.57372 -4.64071,-1.28466 -6.181578,-2.35517 -9.140706,-3.10563 -13.096297,-3.32129 -3.369734,-0.18373 -3.75296,-0.14078 -4.116769,0.46185 -0.287867,0.47679 -0.401131,2.03244 -0.401131,5.50856 0,5.24637 -0.1756,6.05014 -1.694852,7.75835 -2.022118,2.27366 -4.496524,2.83195 -5.372747,1.21228 z m -0.81933,-25.41448 c 0.770707,-0.25041 1.072744,-1.33538 0.592946,-2.13006 -0.292986,-0.48534 -1.058746,-0.55548 -5.132986,-0.47013 l -4.78862,0.10041 v 0.89585 c 0,1.43873 1.05074,1.81307 5.08979,1.81351 1.97612,2.2e-4 3.88354,-0.0941 4.23887,-0.2095 z m 18.079216,-0.50546 c 0.159581,-0.29917 0.255697,-0.8703 0.213595,-1.26918 -0.07217,-0.68358 -0.33458,-0.73122 -4.567567,-0.82919 -5.45587,-0.12624 -5.838315,-0.0399 -5.838315,1.3196 0,0.56129 0.100991,1.14464 0.224546,1.29635 0.123507,0.15171 2.351463,0.21971 4.951069,0.15111 3.791676,-0.10004 4.783924,-0.23233 5.016672,-0.66869 z m -17.204263,-6.01038 c 0.110358,-0.71294 0.07265,-1.45142 -0.08394,-1.64108 -0.163832,-0.19842 -2.367843,-0.30239 -5.191033,-0.24488 l -4.90642,0.0999 -0.43543,0.94036 c -0.23945,0.51719 -0.34969,1.21071 -0.24497,1.54115 0.16715,0.52762 0.82798,0.6008 5.42566,0.6008 h 5.235302 z m 18.205674,0.48038 c 0.240662,-0.46255 0.240566,-0.80664 -3e-4,-1.26918 -0.294676,-0.56581 -0.911083,-0.63459 -5.687093,-0.63459 h -5.356584 l -0.09847,0.84227 c -0.220476,1.88477 -0.168227,1.90175 5.523585,1.79515 4.65709,-0.0872 5.328232,-0.17486 5.618981,-0.73365 z"
       id="path63" />
  </g>
</svg>
