<?xml version="1.0" encoding="utf-8"?>
<!-- Generator: Adobe Illustrator 24.0.2, SVG Export Plug-In . SVG Version: 6.00 Build 0)  -->
<svg version="1.1" xmlns="http://www.w3.org/2000/svg" xmlns:xlink="http://www.w3.org/1999/xlink" x="0px" y="0px"
	 viewBox="0 0 60 60" style="enable-background:new 0 0 60 60;" xml:space="preserve">
<style type="text/css">
	.st0{filter:url(#a);}
	.st1{fill:#CEBD6A;}
	.st2{fill:#CEBD6A;fill-opacity:0.9882;stroke:#FF0000;stroke-width:0.8848;stroke-opacity:0.9922;}
	.st3{fill:#FF0000;fill-opacity:0.9922;stroke:#FF0000;stroke-width:3.681388e-02;stroke-opacity:0.9922;}
	.st4{opacity:0.98;fill:#FF0000;fill-opacity:0.9922;enable-background:new    ;}
	.st5{opacity:0.98;fill:#FF0000;enable-background:new    ;}
	.st6{fill:#FF0000;stroke:#CEBD6A;stroke-width:0.3844;stroke-linecap:square;stroke-linejoin:bevel;stroke-opacity:0.9882;}
	.st7{fill:#CEBD6A;fill-opacity:0.9882;stroke:#CEBD6A;stroke-width:0.3971;stroke-linecap:square;stroke-opacity:0.9882;}
	.st8{fill:#FF0000;stroke:#FF0000;stroke-width:0.4252;stroke-linecap:square;}
</style>
<filter  id="a">
	<feGaussianBlur  in="SourceAlpha" result="blur" stdDeviation="2"></feGaussianBlur>
	<feOffset  dx="2" dy="2" result="offsetBlur"></feOffset>
	<feBlend  in="SourceGraphic" in2="offsetBlur" mode="normal"></feBlend>
</filter>
<g id="Capa_2">
	<g transform="matrix(1.05 0 0 1.05 41.426 -1.78)" class="st0">
		<path class="st1" d="M-11,6.2l-12.8,3.6l-7.1,44.4H9.1C6.8,39.4,5,23.7,2.3,10.1L-11,6.2z"/>
	</g>
	<g transform="matrix(1.05 0 0 1.05 41.426 -1.78)" class="st0">
	</g>
</g>
<g id="Capa_1">
	<g id="Capa_6">
		<path class="st2" d="M25,31.5c-4.2,5.1-8.5,10.3-12.5,15.8c0.7,1.4,1.8,2.4,3.3,2.1c1.2-0.1,1.7-1.1,1.9-1.9
			c0.1-0.6-0.9-1.4-0.9-1.4l2-1.4c4.2-2.5,9.1-5.1,11.7-7.3l9.8-11.1c-0.4-0.8-1.3-1.5-2-2.4l-5.8,6c0,0,0.2,0.9,0.1,1.1
			c-0.1,0.2-3.2,3-3.2,3s-1.1,1.1-1.2,0.9C28.1,35,25,31.5,25,31.5L25,31.5z"/>
		<path class="st3" d="M25.3,31.7c3.4-3.5,6.5-7.6,10.5-10.3c0,0,1.1-0.6,1.4-1.1s0.6-1.8,0.6-1.8s1.3-1.8,1.4-1.9
			c0.8-0.6,4.8,3.9,4.2,4.4l-1.7,1.7c0,0-1.1,0.5-1.5,0.9c-0.4,0.5-0.8,1.4-0.8,1.4l-1.2-1.2l-5.8,5.8v1.5l-4.2,4L25.3,31.7z"/>
		<path class="st4" d="M24.1,31.2l1.2-0.9c0.2-0.2,0.6-0.1,0.7,0l5.7,6.4c0.2,0.2,0.1,0.6,0,0.7l-1.2,0.9c-0.2,0.2-0.6,0.1-0.7,0
			l-5.7-6.4C23.9,31.8,23.9,31.4,24.1,31.2z"/>
		<path class="st5" d="M36.1,11.9l-4.4,2.5l-0.8-2.9l-0.8,2.9l-4.4-2.5l2.5,4.4L25.5,17l3,0.8L26,22.2l4.4-2.5l0.8,3l0.8-3l4.4,2.5
			l-2.5-4.4l2.9-0.8l-2.9-0.8L36.1,11.9z M33.3,14.8l-1.1,1.9l1.3,0.4l-1.3,0.4l1.1,1.9l-1.9-1.1l-0.4,1.2l-0.4-1.2l-1.9,1.1
			l1.1-1.9L28.6,17l1.3-0.4l-1.1-1.9l1.9,1.1l0.4-1.3l0.4,1.3L33.3,14.8z"/>
		<g>
			<circle class="st6" cx="26.8" cy="44.3" r="5.7"/>
			<circle class="st7" cx="26.8" cy="44.3" r="3.8"/>
			<path class="st8" d="M24.2,41.3l-0.5,0.5l5.7,5.5l0.4-0.4L24.2,41.3z"/>
			<path class="st8" d="M29.9,41.6l-0.4-0.4L24,46.9l0.4,0.4L29.9,41.6z"/>
			<path class="st8" d="M22.9,44v0.6h7.9V44H22.9z"/>
			<path class="st8" d="M27.1,40.3h-0.6v7.9h0.6V40.3z"/>
		</g>
	</g>
</g>
</svg>
