<?xml version="1.0" encoding="utf-8"?>
<!-- Generator: Adobe Illustrator 24.0.2, SVG Export Plug-In . SVG Version: 6.00 Build 0)  -->
<svg version="1.1" xmlns="http://www.w3.org/2000/svg" xmlns:xlink="http://www.w3.org/1999/xlink" x="0px" y="0px"
	 viewBox="0 0 60 60" style="enable-background:new 0 0 60 60;" xml:space="preserve">
<style type="text/css">
	.st0{filter:url(#a);}
	.st1{fill:#CEBD6A;}
	.st2{fill:#CEBD6A;fill-opacity:0.9882;stroke:#FF0000;stroke-width:0.7498;stroke-opacity:0.9922;}
	.st3{fill:#FF0000;fill-opacity:0.9922;stroke:#FF0000;stroke-width:3.119820e-02;stroke-opacity:0.9922;}
	.st4{opacity:0.98;fill:#FF0000;fill-opacity:0.9922;enable-background:new    ;}
	.st5{opacity:0.98;fill:#FF0000;enable-background:new    ;}
	.st6{fill:#FF0000;stroke:#CEBD6A;stroke-width:0.3258;stroke-linecap:square;stroke-linejoin:bevel;stroke-opacity:0.9882;}
	.st7{fill:#CEBD6A;fill-opacity:0.9882;stroke:#CEBD6A;stroke-width:0.3365;stroke-linecap:square;stroke-opacity:0.9882;}
	.st8{fill:#FF0000;stroke:#FF0000;stroke-width:0.3603;stroke-linecap:square;}
</style>
<filter  id="a">
	<feGaussianBlur  in="SourceAlpha" result="blur" stdDeviation="2"></feGaussianBlur>
	<feOffset  dx="2" dy="2" result="offsetBlur"></feOffset>
	<feBlend  in="SourceGraphic" in2="offsetBlur" mode="normal"></feBlend>
</filter>
<g id="Capa_1">
	<g transform="matrix(.88521 0 0 .88521 39.633 3.208)" class="st0">
		<path class="st1" d="M-11,6.2l-12.8,3.6l-7.1,44.5H9.1L2.3,10.1C-2.1,8.8-6.5,7.5-11,6.2z"/>
	</g>
</g>
<g id="Capa_6">
	<path class="st2" d="M25.8,31.3c-3.6,4.3-7.2,8.7-10.6,13.4c0.6,1.2,1.5,2,2.8,1.8c1-0.1,1.4-0.9,1.6-1.6c0.1-0.5-0.8-1.2-0.8-1.2
		l1.7-1.2c3.6-2.1,7.7-4.3,9.9-6.2l8.3-9.4c-0.3-0.7-1.1-1.3-1.7-2L32.1,30c0,0,0.2,0.8,0.1,0.9c-0.1,0.2-2.7,2.5-2.7,2.5
		s-0.9,0.9-1,0.8C28.4,34.2,25.8,31.3,25.8,31.3L25.8,31.3z"/>
	<path class="st3" d="M26,31.4c2.9-3,5.5-6.4,8.9-8.7c0,0,0.9-0.5,1.2-0.9c0.3-0.4,0.5-1.5,0.5-1.5s1.1-1.5,1.2-1.6
		c0.7-0.5,4.1,3.3,3.6,3.7L40,23.8c0,0-0.9,0.4-1.3,0.8c-0.3,0.4-0.7,1.2-0.7,1.2l-1-1l-4.9,4.9L32.1,31l-3.6,3.4L26,31.4z"/>
	<path class="st4" d="M25,31l1-0.8c0.2-0.2,0.5-0.1,0.6,0l4.8,5.4c0.2,0.2,0.1,0.5,0,0.6l-1,0.8c-0.2,0.2-0.5,0.1-0.6,0L25,31.6
		C24.8,31.5,24.8,31.2,25,31z"/>
	<path class="st5" d="M35.2,14.7l-3.7,2.1l-0.7-2.5l-0.7,2.5l-3.7-2.1l2.1,3.7L26.2,19l2.5,0.7l-2.1,3.7l3.7-2.1l0.7,2.5l0.7-2.5
		l3.7,2.1l-2.1-3.7l2.5-0.7l-2.5-0.7L35.2,14.7z M32.8,17.1l-0.9,1.6l1.1,0.3l-1.1,0.3l0.9,1.6L31.2,20L30.9,21L30.6,20L29,20.9
		l0.9-1.6L28.8,19l1.1-0.3L29,17.1l1.6,0.9l0.3-1.1l0.3,1.1L32.8,17.1z"/>
	<g>
		<circle class="st6" cx="27.3" cy="42.1" r="4.8"/>
		<circle class="st7" cx="27.3" cy="42.1" r="3.2"/>
		<path class="st8" d="M25.1,39.6L24.7,40l4.8,4.7l0.3-0.3L25.1,39.6z"/>
		<path class="st8" d="M29.9,39.8l-0.3-0.3l-4.7,4.8l0.3,0.3L29.9,39.8z"/>
		<path class="st8" d="M24,41.9l0,0.5l6.7,0l0-0.5L24,41.9z"/>
		<path class="st8" d="M27.5,38.7l-0.5,0l0,6.7l0.5,0L27.5,38.7z"/>
	</g>
</g>
</svg>
