<?xml version="1.0" encoding="utf-8"?>
<!-- Generator: Adobe Illustrator 24.0.2, SVG Export Plug-In . SVG Version: 6.00 Build 0)  -->
<svg version="1.1" xmlns="http://www.w3.org/2000/svg" xmlns:xlink="http://www.w3.org/1999/xlink" x="0px" y="0px"
	 viewBox="0 0 60 60" style="enable-background:new 0 0 60 60;" xml:space="preserve">
<style type="text/css">
	.st0{filter:url(#a);}
	.st1{fill:#CEBD6A;}
	.st2{fill:#CEBD6A;fill-opacity:0.9882;stroke:#000000;stroke-width:0.7498;stroke-opacity:0.9922;}
	.st3{fill-opacity:0.9922;stroke:#000000;stroke-width:3.119820e-02;stroke-opacity:0.9922;}
	.st4{opacity:0.98;fill-opacity:0.9922;enable-background:new    ;}
</style>
<filter  id="a">
	<feGaussianBlur  in="SourceAlpha" result="blur" stdDeviation="2"></feGaussianBlur>
	<feOffset  dx="2" dy="2" result="offsetBlur"></feOffset>
	<feBlend  in="SourceGraphic" in2="offsetBlur" mode="normal"></feBlend>
</filter>
<g id="Capa_1">
	<g transform="matrix(.88521 0 0 .88521 39.633 3.208)" class="st0">
		<path class="st1" d="M-11,6.2l-12.8,3.6l-7.1,44.5H9.1L2.3,10.1C-2.1,8.8-6.5,7.5-11,6.2z"/>
	</g>
</g>
<g id="Capa_6">
	<path class="st2" d="M25.8,31.3c-3.6,4.3-7.2,8.7-10.6,13.4c0.6,1.2,1.5,2,2.8,1.8c1-0.1,1.4-0.9,1.6-1.6c0.1-0.5-0.8-1.2-0.8-1.2
		l1.7-1.2c3.6-2.1,7.7-4.3,9.9-6.2l8.3-9.4c-0.3-0.7-1.1-1.3-1.7-2L32.1,30c0,0,0.2,0.8,0.1,0.9c-0.1,0.2-2.7,2.5-2.7,2.5
		s-0.9,0.9-1,0.8C28.4,34.2,25.8,31.3,25.8,31.3L25.8,31.3z"/>
	<path class="st3" d="M26,31.4c2.9-3,5.5-6.4,8.9-8.7c0,0,0.9-0.5,1.2-0.9c0.3-0.4,0.5-1.5,0.5-1.5s1.1-1.5,1.2-1.6
		c0.7-0.5,4.1,3.3,3.6,3.7L40,23.8c0,0-0.9,0.4-1.3,0.8c-0.3,0.4-0.7,1.2-0.7,1.2l-1-1l-4.9,4.9L32.1,31l-3.6,3.4L26,31.4z"/>
	<path class="st4" d="M25,31l1-0.8c0.2-0.2,0.5-0.1,0.6,0l4.8,5.4c0.2,0.2,0.1,0.5,0,0.6l-1,0.8c-0.2,0.2-0.5,0.1-0.6,0L25,31.6
		C24.8,31.5,24.8,31.2,25,31z"/>
</g>
</svg>
