<svg viewBox="0 0 60 60" xmlns="http://www.w3.org/2000/svg" xmlns:xlink="http://www.w3.org/1999/xlink"><filter id="a"><feGaussianBlur in="SourceAlpha" result="blur" stdDeviation="2"/><feOffset dx="2" dy="2" result="offsetBlur"/><feBlend in="SourceGraphic" in2="offsetBlur"/></filter><g filter="url(#a)" transform="matrix(.86914 0 0 .86914 -81.778 -17.218)"><path d="m141.865 74.375 6.837-44.334h-40.19l6.535 44.638 13.138 3.935z" fill="#feec99"/></g><g stroke="#000" stroke-linejoin="round" stroke-width="1.313" transform="matrix(-.44607 0 0 -.54295 19.527 65.03)"><path d="m-23.356 37.944c-2.134 9.081-4.332 14.438-13.39 20.588 8.914 3.135 18.701 2.896 26.78 0-9.058-6.15-11.255-11.507-13.39-20.588z"/><path d="m-26.818 58.55c-.101 8.756-.37 15.837-11.545 21.428-5.232 2.786-6.963 4.476-7.615 9.333 6.785 1.493 14.837 2.21 22.883 2.179 8.046.031 16.097-.686 22.882-2.18-.651-4.856-2.382-6.546-7.615-9.332-11.174-5.591-11.443-12.672-11.545-21.428-1.24.02-2.481.02-3.722.02s-2.482 0-3.723-.02z"/></g>
  <g id="shoshogi-overlay">
    <rect x="13.800" y="16.200" width="32.400" height="26.400" rx="2.400" fill="#f9f5e6" opacity="0.86"/>
    <text x="30.000" y="33.000" text-anchor="middle" dominant-baseline="middle" font-family="Noto Serif CJK JP, Yu Mincho, Hiragino Mincho ProN, serif" font-size="12.000" font-weight="700" fill="#111111">太子</text>
  </g>
</svg>