<?xml version="1.0" encoding="utf-8"?>
<!-- Generator: Adobe Illustrator 24.0.2, SVG Export Plug-In . SVG Version: 6.00 Build 0)  -->
<svg version="1.1" xmlns="http://www.w3.org/2000/svg" xmlns:xlink="http://www.w3.org/1999/xlink" x="0px" y="0px"
	 viewBox="0 0 60 60" style="enable-background:new 0 0 60 60;" xml:space="preserve">
<style type="text/css">
	.st0{filter:url(#a);}
	.st1{fill:#FEEC99;}
	.st2{fill:#FF0000;fill-opacity:0.9922;stroke:#FF0000;stroke-width:3.0035;stroke-miterlimit:10;stroke-opacity:0.9922;}
	.st3{fill:#FF0000;fill-opacity:0.9922;stroke:#FF0000;stroke-width:3.4028;stroke-miterlimit:10;stroke-opacity:0.9922;}
	.st4{fill:#FF0000;fill-opacity:0.9922;stroke:#FF0000;stroke-width:0.466;stroke-linecap:square;stroke-opacity:0.9922;}
	.st5{fill:#FF0004;}
	.st6{fill:#FF0404;stroke:#FEEC99;stroke-width:0.4543;stroke-linecap:square;stroke-linejoin:bevel;stroke-opacity:0.9922;}
	.st7{fill:#FEEC99;fill-opacity:0.9922;stroke:#FEEC99;stroke-width:0.4692;stroke-linecap:square;stroke-opacity:0.9922;}
	.st8{fill:#FF0404;stroke:#FF0404;stroke-width:0.5024;stroke-linecap:square;}
</style>
<filter  id="a">
	<feGaussianBlur  in="SourceAlpha" result="blur" stdDeviation="2"></feGaussianBlur>
	<feOffset  dx="2" dy="2" result="offsetBlur"></feOffset>
	<feBlend  in="SourceGraphic" in2="offsetBlur" mode="normal"></feBlend>
</filter>
<g id="Capa_2">
	<g transform="matrix(1.05 0 0 1.05 41.426 -1.78)" class="st0">
		<path class="st1" d="M-10.8,54.3L2,50.7L9.1,6.2h-39.9c2.3,14.9,4.1,30.5,6.8,44.2L-10.8,54.3z"/>
	</g>
</g>
<g id="Capa_1">
	<g id="Capa_3">
		<g transform="translate(-51.197797 -77.440226)">
			<g transform="matrix(.22182004 -.04193896 .0351199 .18575317 -192.77363 97.834614)">
				<path class="st2" d="M1135.5,342.7l102.7-39.6c0,0,9.1-10.1,3.3-24.3l-0.1-0.4l-0.1-0.4c-5.5-14.2-18.6-13.9-18.6-13.9
					c-42,31.9-72.7,42.2-96.4,55.7c0.2,4.6,2.1,8.5,3.2,12.6C1131,336.1,1132.8,339.6,1135.5,342.7L1135.5,342.7z"/>
				
					<ellipse transform="matrix(-1 2.184072e-06 -2.184072e-06 -1 2483.0515 554.7915)" class="st3" cx="1241.5" cy="277.4" rx="4.1" ry="4.1"/>
			</g>
			<path class="st4" d="M77.9,101.6l-1.2-4l10.5-1.1c4.5-6.3,5.3-6.4,10.7-5.9c-5.1,1.5-7.1,7.8-10,12.2L77.9,101.6z"/>
		</g>
		<g transform="translate(-51.197797 -77.440226)">
			<g transform="matrix(.22182004 -.04193896 .0351199 .18575317 -192.77363 97.834614)">
				<path class="st2" d="M1135.5,342.7l102.7-39.6c0,0,9.1-10.1,3.3-24.3l-0.1-0.4l-0.1-0.4c-5.5-14.2-18.6-13.9-18.6-13.9
					c-42,31.9-72.7,42.2-96.4,55.7c0.2,4.6,2.1,8.5,3.2,12.6C1131,336.1,1132.8,339.6,1135.5,342.7L1135.5,342.7z"/>
				
					<ellipse transform="matrix(-1 2.184072e-06 -2.184072e-06 -1 2483.0515 554.7915)" class="st3" cx="1241.5" cy="277.4" rx="4.1" ry="4.1"/>
			</g>
			<path class="st4" d="M77.9,101.6l-1.2-4l10.5-1.1c4.5-6.3,5.3-6.4,10.7-5.9c-5.1,1.5-7.1,7.8-10,12.2L77.9,101.6z"/>
		</g>
		<path class="st5" d="M19.8,46.4l5.3-3.1l0.9,3.5l0.9-3.5l5.3,3.1l-3.1-5.3l3.5-0.9l-3.5-0.9l3.1-5.3L27,37.1l-0.9-3.5l-0.9,3.5
			L19.8,34l3.1,5.3l-3.5,0.9l3.5,0.9L19.8,46.4z M23.4,43l1.3-2.2l-1.5-0.5l1.5-0.5l-1.3-2.2l2.2,1.3l0.5-1.5l0.5,1.5l2.2-1.3
			l-1.3,2.2l1.5,0.5l-1.5,0.4l1.3,2.4l-2.2-1.3l-0.5,1.5l-0.5-1.5L23.4,43z"/>
		<g>
			<circle class="st6" cx="29.2" cy="19" r="6.7"/>
			<circle class="st7" cx="29.2" cy="19" r="4.4"/>
			<path class="st8" d="M32.4,22.5l0.5-0.5l-6.7-6.5l-0.6,0.4L32.4,22.5z"/>
			<path class="st8" d="M25.5,22.1l0.5,0.5l6.5-6.7L32,15.4L25.5,22.1z"/>
			<path class="st8" d="M33.9,19.1v-0.7h-9.4v0.7H33.9z"/>
			<path class="st8" d="M28.9,23.7h0.7v-9.4h-0.7V23.7z"/>
		</g>
	</g>
</g>
</svg>
