<svg height="60" width="60" xmlns="http://www.w3.org/2000/svg" xmlns:xlink="http://www.w3.org/1999/xlink"><filter id="a"><feGaussianBlur in="SourceAlpha" result="blur" stdDeviation="2"/><feOffset dx="2" dy="2" result="offsetBlur"/><feBlend in="SourceGraphic" in2="offsetBlur"/></filter><g><g fill="#fecb00" filter="url(#a)" transform="matrix(1.03094 0 0 1.03094 -102.587 -25.906)"><path d="m-37.3-31.01-13.408 4.26-6.837 44.558h40.19l-6.535-44.862-13.138-3.935a.885.885 0 0 0 -.271-.021z" fill="#fdeb98" transform="matrix(-1 0 0 -1 91.156 47.626)"/></g><path d="m41.364 42.419v8.086h5.242l.837 2.478h-6.079v9.13h10.066l.836 2.869h-24.302l.836-2.87h9.952v-9.13h-6.237l.836-2.477h5.401v-8.086h-7.136l-.836-2.87h18.597l-.836 2.87z" opacity=".99" stroke="#000" stroke-linejoin="round" stroke-width=".453165" transform="matrix(-1.19582 0 0 -1.07583 77.97 84.194)"/></g></svg>