<?xml version="1.0" encoding="utf-8"?>
<!-- Generator: Adobe Illustrator 24.0.2, SVG Export Plug-In . SVG Version: 6.00 Build 0)  -->
<svg version="1.1" xmlns="http://www.w3.org/2000/svg" xmlns:xlink="http://www.w3.org/1999/xlink" x="0px" y="0px"
	 viewBox="0 0 60 60" style="enable-background:new 0 0 60 60;" xml:space="preserve">
<style type="text/css">
	.st0{filter:url(#a);}
	.st1{fill:#FEEC99;}
	.st2{fill:#FEEC99;fill-opacity:0.9882;stroke:#000000;stroke-width:0.7498;stroke-opacity:0.9922;}
	.st3{fill-opacity:0.9922;stroke:#000000;stroke-width:3.119820e-02;stroke-opacity:0.9922;}
	.st4{opacity:0.98;fill-opacity:0.9922;enable-background:new    ;}
</style>
<filter  id="a">
	<feGaussianBlur  in="SourceAlpha" result="blur" stdDeviation="2"></feGaussianBlur>
	<feOffset  dx="2" dy="2" result="offsetBlur"></feOffset>
	<feBlend  in="SourceGraphic" in2="offsetBlur" mode="normal"></feBlend>
</filter>
<g id="Capa_1">
	<g transform="matrix(.88521 0 0 .88521 39.633 3.208)" class="st0">
		<path class="st1" d="M-10.8,54.3L2,50.7L9.1,6.2h-39.9l6.8,44.2C-19.6,51.7-15.2,53-10.8,54.3z"/>
	</g>
</g>
<g id="Capa_6">
	<path class="st2" d="M34.2,28.7c3.6-4.3,7.2-8.7,10.6-13.4c-0.6-1.2-1.5-2-2.8-1.8c-1,0.1-1.4,0.9-1.6,1.6
		c-0.1,0.5,0.8,1.2,0.8,1.2l-1.7,1.2c-3.6,2.1-7.7,4.3-9.9,6.2l-8.3,9.4c0.3,0.7,1.1,1.3,1.7,2l4.9-5.2c0,0-0.2-0.8-0.1-0.9
		c0.1-0.2,2.7-2.5,2.7-2.5s0.9-0.9,1-0.8C31.6,25.8,34.2,28.7,34.2,28.7L34.2,28.7z"/>
	<path class="st3" d="M34,28.6c-2.9,3-5.5,6.4-8.9,8.7c0,0-0.9,0.5-1.2,0.9c-0.3,0.4-0.5,1.5-0.5,1.5s-1.1,1.5-1.2,1.6
		c-0.7,0.5-4.1-3.3-3.6-3.7l1.4-1.2c0,0,0.9-0.4,1.3-0.8c0.3-0.4,0.7-1.2,0.7-1.2l1,1l4.9-4.9l0.1-1.2l3.6-3.4L34,28.6z"/>
	<path class="st4" d="M35,29l-1,0.8c-0.2,0.2-0.5,0.1-0.6,0l-4.8-5.4c-0.2-0.2-0.1-0.5,0-0.6l1-0.8c0.2-0.2,0.5-0.1,0.6,0l4.8,5.4
		C35.2,28.5,35.2,28.8,35,29z"/>
</g>
</svg>
