<svg viewBox="0 0 60 60" xmlns="http://www.w3.org/2000/svg" xmlns:xlink="http://www.w3.org/1999/xlink"><filter id="a"><feGaussianBlur in="SourceAlpha" result="blur" stdDeviation="2"/><feOffset dx="2" dy="2" result="offsetBlur"/><feBlend in="SourceGraphic" in2="offsetBlur"/></filter><g transform="translate(-229.898 -144.882)"><g fill="#ececec" filter="url(#a)" transform="matrix(.96924 0 0 .96924 135.246 122.322)"><path d="m128.456 78.635 13.41-4.26 6.836-44.558h-40.19l6.535 44.862c4.112 1.808 9.249 2.961 13.138 3.935.09.017.18.032.271.021z" fill="#fdeb98"/></g><g stroke="#000"><g stroke="#f00"><path d="m282.83 136.555c.204-5.885-.282-11.142-3.009-13.33 2.021-.873 3.212-2.979 4.365-4.578 1.154 1.6 2.344 3.705 4.365 4.579-2.727 2.187-3.213 7.444-3.009 13.33a4.466 4.466 0 0 1 -1.356.232 4.436 4.436 0 0 1 -1.356-.233z" fill="#f00" transform="matrix(-.78388 0 0 -.7906 482.467 285.377)"/><path d="m97.159 111.627c-2.764 121.39 19.614 224.192 177.984 219.075 158.37 5.117 180.748-97.685 177.985-219.075-11.066 132.287-51.513 167.404-177.985 175.038-126.471-7.634-166.92-42.75-177.984-175.038z" fill="#fdeb98" stroke-width="10.736" transform="matrix(-.06092 0 0 -.07196 276.369 197.927)"/><path d="m166.796 305.119-54.464 95.975-8.754-6.962-40.051 58.52-7.822-6.797-35.583 44.11c14.216 20.561 41.843 41.307 69.675 47.014 13.293-25.846 76.279-177.737 95.178-219.282m195.235-12.578 54.464 95.975 8.754-6.962 40.05 58.52 7.823-6.797 35.583 44.11c-14.216 20.561-41.844 41.307-69.676 47.014-13.292-25.846-76.278-177.737-95.178-219.282" fill="#f00" stroke-width="13.427" transform="matrix(-.06092 0 0 -.07196 276.369 197.927)"/><path d="m269.113 164.722c-6.55-2.666-12.882-2.75-18.975 0l3.58 10.157c3.579-1.422 8.173-1.719 11.76.081z" fill="#f00" stroke-width=".876"/></g><path d="m265.725 172.588c-3.8-1.939-8.391-1.992-12.096.028" fill="none" stroke="#fdeb98" stroke-width=".889"/></g><path d="m269.466 170.2c-.2-.099-.26-.172-.34-.228l-1.99-1.586m-17.181 1.798c1.405-.672 1.713-.898 2.57-1.346m19.808-2.416-3.835-2.399m-21.485 2.4 3.835-2.4m17.952.087-4.026 10.761m-10.378.037-3.778-10.904" fill="none" stroke="#fdeb98" stroke-width=".889"/><g stroke="#f00"><path d="m265.497 179.14c-5.22 4.652-7.145 4.265-12.108-.076 2.547-1.04 2.738-.919 5.955-1.495 2.972.605 2.459.107 6.153 1.57z" fill="#f00" stroke-width=".889"/><ellipse cx="-259.707" cy="-181.329" fill="#fdeb98" rx="3.799" ry="3.899" stroke-linecap="square" stroke-width=".626" transform="scale(-1)"/><path d="m263.988 162.742 1.353-4.636.561.13.906-2.804c-4.531-1.904-10.403-1.798-14.143 0l.905 2.803.56-.13 1.337 4.571" fill="#f00" stroke-width=".976"/></g><path d="m264.625 162.37c-2.789-.67-7.103-.663-9.797-.064m10.777-3.246c-2.937-.647-9.038-.573-11.733.026" fill="none" stroke="#fdeb98" stroke-width=".889"/></g></svg>