<svg viewBox="0 0 60 60" xmlns="http://www.w3.org/2000/svg" xmlns:xlink="http://www.w3.org/1999/xlink"><filter id="a"><feGaussianBlur in="SourceAlpha" result="blur" stdDeviation="2"/><feOffset dx="2" dy="2" result="offsetBlur"/><feBlend in="SourceGraphic" in2="offsetBlur"/></filter><g filter="url(#a)" transform="matrix(.9389 0 0 .9389 -90.59 -20.912)"><path d="m128.456 78.635 13.41-4.26 6.836-44.558h-40.527l6.872 44.862 13.138 3.935c.094.026.193.015.271.021z" fill="#feec99"/></g><path d="m372.14 1666.57v-346.55h15v346.55z" fill="#f00" stroke="#f00" stroke-width="4.938" transform="matrix(.07554 0 0 -.05517 1.274 111.562)"/><g stroke="#f00" stroke-width="4.938" transform="matrix(.0533 0 0 -.03892 9.718 89.363)"><path d="m373.444 1325.142-13.45-8.57 2.65-111.341 16.688-28.568 17.542 27.755 2.373 111.247-13.382 9.224z" fill="#fdeb98" stroke-width="7.713"/><path d="m379.551 1181.017v105.099l16.535 13.127m-16.535-13.127-16.317 14.496" fill="none" stroke-width="4.516"/></g><path d="m29.95 37.02a8.864 8.864 0 0 1 -8.865-8.865 8.864 8.864 0 0 1 8.865-8.865 8.864 8.864 0 0 1 8.864 8.865 8.864 8.864 0 0 1 -8.864 8.864zm0-1.933a6.931 6.931 0 0 0 6.93-6.932 6.931 6.931 0 0 0 -6.93-6.93 6.931 6.931 0 0 0 -6.932 6.93 6.931 6.931 0 0 0 6.932 6.932z" fill="#f00"/><g stroke="#f00" stroke-width="4.938"><path d="m372.14 1666.57v-346.55h15v346.55z" fill="#f00" transform="matrix(.07554 0 0 .05517 1.274 -55.313)"/><g transform="matrix(.0533 0 0 .03892 9.72 -33.115)"><path d="m373.444 1325.142-13.45-8.57 2.65-111.341 16.688-28.568 17.542 27.755 2.373 111.247-13.382 9.224z" fill="#fdeb98" stroke-width="7.713"/><path d="m379.551 1181.017v105.099l16.535 13.127m-16.535-13.127-16.317 14.496" fill="none" stroke-width="4.516"/></g><path d="m372.14 1666.57v-346.55h15v346.55z" fill="#f00" transform="matrix(.05341 -.05341 -.039 -.039 68.376 107.412)"/><path d="m372.14 1666.57v-346.55h15v346.55z" fill="#f00" transform="matrix(-.05341 -.05341 .039 -.039 -8.766 107.412)"/><path d="m372.14 1666.57v-346.55h15v346.55z" fill="#f00" transform="matrix(0 .07554 .05517 0 -52.905 -.52)"/><g transform="matrix(0 .0533 .03892 0 -31.316 7.923)"><path d="m373.444 1325.142-13.45-8.57 2.65-111.341 16.688-28.568 17.542 27.755 2.373 111.247-13.382 9.224z" fill="#fdeb98" stroke-width="7.713"/><path d="m379.551 1181.017v105.099l16.535 13.127m-16.535-13.127-16.317 14.496" fill="none" stroke-width="4.516"/></g><path d="m372.14 1666.57v-346.55h15v346.55z" fill="#f00" transform="matrix(0 .07554 -.05517 0 112.845 -.52)"/><g transform="matrix(0 .0533 -.03892 0 91.316 7.923)"><path d="m373.444 1325.142-13.45-8.57 2.65-111.341 16.688-28.568 17.542 27.755 2.373 111.247-13.382 9.224z" fill="#fdeb98" stroke-width="7.713"/><path d="m379.551 1181.017v105.099l16.535 13.127m-16.535-13.127-16.317 14.496" fill="none" stroke-width="4.516"/></g><g transform="matrix(-.03768501 .03767843 -.02752526 -.02753007 87.579857 57.445713)"><path d="m373.444 1325.142-13.45-8.57 2.65-111.341 16.688-28.568 17.542 27.755 2.373 111.247-13.382 9.224z" fill="#fdeb98" stroke-width="7.713"/><path d="m379.551 1181.017v105.099l16.535 13.127m-16.535-13.127-16.317 14.496" fill="none" stroke-width="4.516"/></g><g transform="matrix(.03769 .03768 .02753 -.02753 -27.984 57.433)"><path d="m373.444 1325.142-13.45-8.57 2.65-111.341 16.688-28.568 17.542 27.755 2.373 111.247-13.382 9.224z" fill="#fdeb98" stroke-width="7.713"/><path d="m379.551 1181.017v105.099l16.535 13.127m-16.535-13.127-16.317 14.496" fill="none" stroke-width="4.516"/></g></g></svg>