<svg height="60" width="60" xmlns="http://www.w3.org/2000/svg" xmlns:xlink="http://www.w3.org/1999/xlink"><filter id="a"><feGaussianBlur in="SourceAlpha" result="blur" stdDeviation="2"/><feOffset dx="2" dy="2" result="offsetBlur"/><feBlend in="SourceGraphic" in2="offsetBlur"/></filter><g><g fill="#fecb00" filter="url(#a)" transform="matrix(1.03094 0 0 1.03094 -102.587 -25.906)"><path d="m-37.3-31.01-13.408 4.26-6.837 44.558h40.19l-6.535-44.862-13.138-3.935a.885.885 0 0 0 -.271-.021z" fill="#fdeb98" transform="matrix(-1 0 0 -1 91.156 47.626)"/></g><path d="m6.35 51.378a.764.687 0 0 1 .733.88l-.966 2.981a.764.687 0 0 1 -.733.496h-7.482v7.03h5.476a.764.687 0 0 1 .724.466l.966 2.576a.764.687 0 0 1 -.725.908h-6.441v8.113h10.733a.764.687 0 0 1 .733.496l.968 2.982a.764.687 0 0 1 -.733.878h-28.076a.764.687 0 0 1 -.733-.878l.966-2.982a.764.687 0 0 1 .733-.496h10.864v-8.113h-6.259a.764.687 0 0 1 -.722-.908l.966-2.576a.764.687 0 0 1 .724-.467h5.291v-7.03h-7.527a.764.687 0 0 1 -.733-.495l-.966-2.982a.764.687 0 0 1 .733-.879zm-1.018 1.375h-19.45l.521 1.607h7.72a.764.687 0 0 1 .762.686v8.404a.764.687 0 0 1 -.763.689h-5.508l-.45 1.201h5.958a.764.687 0 0 1 .763.686v9.49a.764.687 0 0 1 -.763.686h-11.056l-.521 1.608h26.038l-.521-1.608h-10.923a.764.687 0 0 1 -.765-.686v-9.49a.764.687 0 0 1 .765-.686h6.141l-.452-1.201h-5.69a.764.687 0 0 1 -.765-.689v-8.404a.764.687 0 0 1 .765-.686h7.672z" opacity=".99" transform="matrix(1 0 0 -1 34.435 93.267)"/></g></svg>