<svg clip-rule="evenodd" fill-rule="evenodd" height="177.17" image-rendering="optimizeQuality" shape-rendering="geometricPrecision" viewBox="0 0 50 50" width="177.17" xmlns="http://www.w3.org/2000/svg" xmlns:xlink="http://www.w3.org/1999/xlink"><linearGradient id="a"><stop offset="0" stop-color="#fff"/><stop offset="1" stop-color="#b3b3b3"/></linearGradient><linearGradient id="b"><stop offset="0" stop-color="#fff"/><stop offset="1" stop-color="#e6e6e6"/></linearGradient><linearGradient id="c" gradientUnits="userSpaceOnUse" x1="1.793643" x2="12.63324" xlink:href="#a" y1="74.318817" y2="73.869385"/><linearGradient id="d" gradientUnits="userSpaceOnUse" x1="1.263982" x2="12.63324" xlink:href="#a" y1="73.895088" y2="73.869385"/><linearGradient id="e" gradientUnits="userSpaceOnUse" x1="-2.619062" x2="1.907533" xlink:href="#a" y1="90.638878" y2="90.638878"/><linearGradient id="f" gradientUnits="userSpaceOnUse" x1="-1.583916" x2=".810332" y1="87.221397" y2="87.274361"><stop offset="0" stop-color="#fff"/><stop offset="1" stop-color="#ccc"/></linearGradient><linearGradient id="g" gradientUnits="userSpaceOnUse" x1="-2.455736" x2="1.805086" xlink:href="#b" y1="74.665129" y2="74.665129"/><linearGradient id="h" gradientUnits="userSpaceOnUse" x1="-2.508196" x2="1.752626" xlink:href="#b" y1="74.568955" y2="74.568955"/><linearGradient id="i" gradientUnits="userSpaceOnUse" x1="-2.455736" x2="1.805086" xlink:href="#b" y1="74.568955" y2="74.568955"/><g fill="url(#c)" transform="translate(25.211864 -48.303673)"><path d="m.5859365 56.17703c.7960066-1.020015-.3788487-2.345177-1.3068235-2.345578-.7032446.06761-2.4032857 1.12243-1.3068233 2.479612-1.5679946 6.247019-4.6143343 11.207329-10.9907077 13.269271.772685 5.835682 4.7398273 9.845965 7.5058526 14.542581-.402536.380608-1.2797124.749544-1.8262037 1.189546.084992.995123.2798869 1.916985 1.2900669 2.295318l-1.8094413 2.479607s-1.3033945-.221657-1.7187392.177365c-.26616.255694-.1577336 1.095956-.1577336 1.095956l-2.6806577 2.546622h23.120695l-2.2785577-2.479606s.06342-.993607-.268067-1.273321c-.4442301-.374822-1.7424273-.06704-1.7424273-.06704l-1.8094474-2.747666c.7128332-.34693 1.4409757-.672792 1.4576084-1.976998-.529628-.512006-1.1706496-.799362-1.6586569-1.172787 2.4587172-4.724947 6.4543829-8.785262 6.8356849-14.408548-5.1812397-3.053521-9.3828802-6.997612-10.6556275-13.604334z" fill="#1f1a17" stroke="#1f1a17" stroke-width="1.693289"/><path d="m-3.7555256 87.274357h6.2078065" fill="url(#c)" stroke="url(#f)" stroke-width=".563051"/><path d="m-5.7970285 90.638876h10.1410015" fill="url(#d)" stroke="url(#e)" stroke-width=".563051"/><g stroke-width="1.693289"><circle cx="-5.252363" cy="72.549019" fill="url(#g)" r=".699949" stroke="url(#g)" stroke-linecap="square"/><circle cx="3.754255" cy="72.461586" fill="url(#g)" r=".699949" stroke="url(#g)" stroke-linecap="square"/><circle cx="-.810248" cy="68.83271" fill="url(#h)" r=".699949" stroke="url(#h)" stroke-linecap="square"/><circle cx="-.810233" cy="80.305206" fill="url(#h)" r=".699949" stroke="url(#h)" stroke-linecap="square"/><path d="m-4.3429314 72.103065h7.2577571v.80447h-7.2752471z" fill="url(#i)" stroke="url(#i)"/><path d="m-.5134593 69.856275v9.75254h-.5935622v-9.77604z" fill="url(#i)" stroke="url(#i)"/></g></g></svg>