<?xml version="1.0" encoding="UTF-8" standalone="no"?>
<svg
   xmlns:dc="http://purl.org/dc/elements/1.1/"
   xmlns:cc="http://creativecommons.org/ns#"
   xmlns:rdf="http://www.w3.org/1999/02/22-rdf-syntax-ns#"
   xmlns:svg="http://www.w3.org/2000/svg"
   xmlns="http://www.w3.org/2000/svg"
   xmlns:xlink="http://www.w3.org/1999/xlink"
   xmlns:sodipodi="http://sodipodi.sourceforge.net/DTD/sodipodi-0.dtd"
   xmlns:inkscape="http://www.inkscape.org/namespaces/inkscape"
   inkscape:version="1.0 (4035a4fb49, 2020-05-01)"
   sodipodi:docname="wA.svg"
   id="svg8363"
   version="1.1"
   viewBox="0 0 50 50"
   clip-rule="evenodd"
   fill-rule="evenodd"
   image-rendering="optimizeQuality"
   shape-rendering="geometricPrecision"
   height="177.17"
   width="177.17">
  <metadata
     id="metadata8367">
    <rdf:RDF>
      <cc:Work
         rdf:about="">
        <dc:format>image/svg+xml</dc:format>
        <dc:type
           rdf:resource="http://purl.org/dc/dcmitype/StillImage" />
        <dc:title />
      </cc:Work>
    </rdf:RDF>
  </metadata>
  <sodipodi:namedview
     inkscape:document-rotation="0"
     inkscape:snap-nodes="false"
     inkscape:current-layer="svg8363"
     inkscape:window-maximized="0"
     inkscape:window-y="0"
     inkscape:window-x="392"
     inkscape:cy="91.647045"
     inkscape:cx="117.53941"
     inkscape:zoom="1.3344412"
     showgrid="false"
     id="namedview8365"
     inkscape:window-height="729"
     inkscape:window-width="958"
     inkscape:pageshadow="2"
     inkscape:pageopacity="0"
     guidetolerance="10"
     gridtolerance="10"
     objecttolerance="10"
     borderopacity="1"
     bordercolor="#666666"
     pagecolor="#ffffff" />
  <defs
     id="defs8357">
    <linearGradient
       gradientTransform="matrix(0.87296594,0,0,0.87296594,1.7413394,-3.9521812)"
       gradientUnits="userSpaceOnUse"
       x2="77.64"
       x1="21.405"
       id="0">
      <stop
         id="stop8352"
         stop-color="#fff" />
      <stop
         id="stop8354"
         stop-opacity="0"
         stop-color="#fff"
         offset="1" />
    </linearGradient>
    <linearGradient
       gradientUnits="userSpaceOnUse"
       y2="37.469002"
       x2="77.639999"
       y1="37.591999"
       x1="21.129999"
       id="0-6">
      <stop
         id="stop8929"
         stop-color="#fff" />
      <stop
         id="stop8931"
         stop-opacity="0"
         stop-color="#fff"
         offset="1" />
    </linearGradient>
    <clipPath
       id="clipPath3240"
       clipPathUnits="userSpaceOnUse">
      <rect
         y="31.673729"
         x="2.8601696"
         height="22.457626"
         width="45.868641"
         id="rect3242"
         style="opacity:1;fill:#d40000;fill-opacity:1;stroke:#000000;stroke-width:0.19755037;stroke-linecap:square;stroke-linejoin:miter;stroke-miterlimit:4;stroke-dasharray:none;stroke-opacity:1;paint-order:normal" />
    </clipPath>
    <linearGradient
       y2="37.469002"
       x2="77.639999"
       y1="37.591999"
       x1="21.129999"
       gradientUnits="userSpaceOnUse"
       id="linearGradient3296"
       xlink:href="#0-6"
       inkscape:collect="always" />
  </defs>
  <g
     transform="translate(-0.05072935,-1.2129162)"
     id="g3334">
    <g
       transform="translate(-0.39827065,1.190593)"
       id="g3234"
       clip-path="url(#clipPath3240)">
      <path
         style="fill:#1f1a17"
         inkscape:connector-curvature="0"
         id="path2100"
         d="m 25.447,42.01 c -0.229,0.94 -0.517,1.592 -0.847,1.956 -0.33,0.364 -0.762,0.745 -1.312,1.143 -0.593,0.415 -1.295,0.762 -2.108,1.05 -0.813,0.288 -1.71,0.364 -2.701,0.212 l -6.968,-0.965 c -0.288,-0.034 -0.533,-0.034 -0.762,0 -0.22,0.034 -0.432,0.051 -0.635,0.051 -0.347,0 -0.787,0.076 -1.321,0.237 -0.542,0.152 -0.957,0.381 -1.253,0.677 L 5.135,42.425 c 0.296,-0.33 0.559,-0.559 0.787,-0.694 0.237,-0.127 0.508,-0.271 0.821,-0.415 0.957,-0.449 1.981,-0.72 3.073,-0.821 0.466,-0.034 0.923,-0.042 1.363,-0.025 0.449,0.017 0.914,0 1.397,-0.051 0.889,0.152 1.786,0.288 2.684,0.406 0.906,0.127 1.812,0.254 2.718,0.389 0.991,0 1.66,-0.102 2.01,-0.296 0.186,-0.102 0.474,-0.288 0.872,-0.55 0.398,-0.262 0.796,-0.652 1.194,-1.168 -0.881,-0.093 -1.77,-0.262 -2.684,-0.508 -0.906,-0.237 -1.71,-0.491 -2.404,-0.754 l 2.582,-6.401 c -1.295,-0.745 -2.193,-1.338 -2.709,-1.795 -0.508,-0.457 -0.914,-0.982 -1.211,-1.575 -0.432,-0.762 -0.711,-1.499 -0.83,-2.21 -0.127,-0.711 -0.178,-1.346 -0.161,-1.913 0.017,-0.991 0.245,-2.083 0.703,-3.285 0.457,-1.194 1.312,-2.269 2.565,-3.209 1.041,-0.796 2.066,-1.617 3.057,-2.455 0.991,-0.847 1.973,-1.829 2.946,-2.955 -1.219,-0.627 -1.829,-1.626 -1.829,-2.997 0,-0.931 0.322,-1.719 0.974,-2.388 0.652,-0.66 1.456,-0.991 2.396,-0.991 0.923,0 1.719,0.33 2.379,0.991 0.66,0.669 0.991,1.456 0.991,2.388 0,1.355 -0.61,2.354 -1.829,2.997 0.957,1.126 1.93,2.108 2.913,2.955 0.982,0.838 2.02,1.66 3.09,2.455 1.236,0.94 2.083,2.02 2.523,3.209 0.449,1.202 0.694,2.294 0.72,3.285 0,0.567 -0.051,1.202 -0.169,1.913 -0.118,0.711 -0.381,1.448 -0.796,2.21 -0.33,0.593 -0.745,1.118 -1.253,1.575 -0.5,0.457 -1.389,1.05 -2.667,1.795 l 2.582,6.401 c -0.728,0.263 -1.549,0.517 -2.455,0.754 -0.914,0.246 -1.787,0.415 -2.633,0.508 0.381,0.517 0.77,0.906 1.168,1.168 0.398,0.263 0.694,0.449 0.898,0.55 0.347,0.195 1.016,0.296 2.01,0.296 0.889,-0.136 1.786,-0.263 2.692,-0.389 0.898,-0.118 1.803,-0.254 2.718,-0.406 0.44,0.051 0.889,0.068 1.346,0.051 0.457,-0.017 0.923,-0.008 1.405,0.025 1.058,0.102 2.083,0.373 3.073,0.821 0.296,0.144 0.567,0.288 0.804,0.415 0.245,0.135 0.508,0.364 0.804,0.694 l -2.43,3.946 c -0.296,-0.296 -0.711,-0.525 -1.253,-0.677 -0.533,-0.161 -0.965,-0.237 -1.295,-0.237 -0.22,0 -0.44,-0.017 -0.66,-0.051 -0.22,-0.034 -0.474,-0.034 -0.754,0 l -6.951,0.965 c -0.991,0.152 -1.913,0.085 -2.76,-0.195 -0.855,-0.279 -1.558,-0.652 -2.1,-1.118 -0.542,-0.449 -0.982,-0.83 -1.304,-1.151 -0.322,-0.322 -0.593,-0.957 -0.804,-1.897" />
      <path
         style="fill:url(#linearGradient3296)"
         inkscape:connector-curvature="0"
         id="path2102"
         d="m 26.32,39.2 c 0,1.092 0.245,2.024 0.753,2.794 0.5,0.77 1.041,1.372 1.626,1.795 0.906,0.669 2.235,0.999 3.988,0.999 0.432,0 1.279,-0.093 2.532,-0.279 1.025,-0.161 1.854,-0.279 2.481,-0.356 0.627,-0.076 1.05,-0.135 1.27,-0.186 0.627,-0.085 1.287,-0.068 1.981,0.051 0.262,0.068 0.559,0.127 0.88,0.186 0.322,0.059 0.593,0.186 0.804,0.381 l 1.194,-1.93 c -0.677,-0.347 -1.397,-0.593 -2.159,-0.72 -1.253,-0.22 -2.354,-0.263 -3.302,-0.152 -0.279,0.034 -0.643,0.118 -1.101,0.245 -0.457,0.136 -1.067,0.263 -1.846,0.373 -1.676,0.271 -2.557,0.398 -2.659,0.398 -0.644,0 -1.202,-0.076 -1.685,-0.246 C 30.594,42.384 30.171,42.206 29.79,42.011 28.909,41.613 28.02,40.673 27.106,39.2 h -0.787 m -1.761,0 h -0.796 c -0.931,1.49 -1.812,2.43 -2.659,2.811 -0.398,0.195 -0.83,0.373 -1.312,0.542 -0.483,0.169 -1.033,0.246 -1.66,0.246 -0.119,0 -0.999,-0.127 -2.659,-0.398 -0.787,-0.11 -1.422,-0.237 -1.88,-0.373 -0.466,-0.127 -0.83,-0.212 -1.092,-0.245 -0.948,-0.11 -2.04,-0.068 -3.302,0.152 -0.762,0.127 -1.473,0.373 -2.134,0.72 l 1.194,1.93 c 0.195,-0.195 0.457,-0.322 0.779,-0.381 0.322,-0.059 0.618,-0.118 0.88,-0.186 0.694,-0.119 1.355,-0.136 1.981,-0.051 0.22,0.051 0.643,0.11 1.27,0.186 0.627,0.076 1.465,0.195 2.506,0.356 1.236,0.186 2.083,0.279 2.532,0.279 1.736,0 3.065,-0.33 3.988,-0.999 0.567,-0.423 1.101,-1.025 1.6,-1.795 0.508,-0.77 0.762,-1.702 0.762,-2.794 m 0.889,-9.347 c 1.6,0 3.141,0.127 4.614,0.373 1.617,-0.576 2.794,-1.482 3.522,-2.701 0.627,-1.058 0.94,-2.227 0.94,-3.497 0,-0.762 -0.186,-1.6 -0.567,-2.523 -0.381,-0.914 -0.999,-1.744 -1.863,-2.489 -0.974,-0.813 -2.04,-1.702 -3.2,-2.667 -1.151,-0.965 -2.303,-2.1 -3.446,-3.387 -1.16,1.287 -2.311,2.422 -3.471,3.387 -1.16,0.965 -2.218,1.854 -3.175,2.667 -0.881,0.745 -1.499,1.575 -1.871,2.489 -0.372,0.923 -0.559,1.761 -0.559,2.523 0,1.27 0.305,2.438 0.914,3.497 0.711,1.219 1.897,2.125 3.548,2.701 1.456,-0.246 2.997,-0.373 4.614,-0.373 m 0,4.513 c 1.939,0 3.793,0.195 5.579,0.576 l -1.185,-3.057 c -1.456,-0.229 -2.921,-0.347 -4.394,-0.347 -1.507,0 -2.98,0.119 -4.411,0.347 l -1.194,3.057 c 1.77,-0.381 3.641,-0.576 5.605,-0.576 m 0,-23.537 c 1.126,0 1.685,-0.559 1.685,-1.685 0,-1.126 -0.559,-1.693 -1.685,-1.693 -1.126,0 -1.685,0.567 -1.685,1.693 0,1.126 0.559,1.685 1.685,1.685 m 0,27.01 c 1.126,0 2.218,-0.093 3.285,-0.279 1.067,-0.195 2.1,-0.423 3.09,-0.686 -1.939,-0.508 -4.064,-0.77 -6.375,-0.77 -2.345,0 -4.47,0.263 -6.375,0.77 0.957,0.263 1.973,0.491 3.048,0.686 1.075,0.186 2.184,0.279 3.327,0.279 M 24.556,23.505 22.49,23.48 c -0.559,0 -0.838,-0.279 -0.838,-0.847 0,-0.559 0.279,-0.838 0.838,-0.838 h 2.066 v -2.134 c 0,-0.576 0.296,-0.872 0.889,-0.872 0.576,0 0.872,0.296 0.872,0.872 v 2.134 h 2.134 c 0.542,0 0.813,0.279 0.813,0.838 0,0.567 -0.271,0.847 -0.813,0.847 h -2.134 v 2.032 c 0,0.601 -0.296,0.898 -0.872,0.898 -0.593,0 -0.889,-0.296 -0.889,-0.898 v -2.01" />
    </g>
    <g
       id="g9596"
       transform="matrix(0.8038434,0,0,0.8038434,5.6273257,6.7500418)">
      <path
         style="fill:#1f1a17;stroke-width:0.87296593"
         inkscape:connector-curvature="0"
         id="path8359"
         d="m 24.595588,4.249334 c 2.268838,0.1475313 4.36483,0.7315455 6.30456,1.7633913 1.929254,1.019624 3.577414,2.335184 4.937496,3.939695 0.953278,1.1235077 1.848068,2.4835887 2.69048,4.0723867 0.85027,1.581814 1.522453,3.266638 2.025282,5.040505 0.576156,2.069803 0.946295,4.234758 1.093826,6.511453 0.155388,2.268838 0.22959,4.37356 0.22959,6.311543 v 4.715763 c 0,0 -1.123507,0 -3.370521,0 -2.239159,0 -5.151373,0 -8.73839,0 H 15.244376 c -0.132691,0 -0.192053,-0.354424 -0.185069,-1.057162 0.0069,-0.709721 0.05151,-1.278895 0.140549,-1.714504 0.05151,-0.347442 0.192051,-0.835429 0.406801,-1.470948 0.221734,-0.635519 0.576158,-1.404602 1.086843,-2.31336 0.228717,-0.465291 0.776067,-1.138348 1.641176,-2.025282 0.872093,-0.886933 1.86291,-1.921398 2.9934,-3.089426 0.650359,-0.6652 1.153188,-1.500629 1.522453,-2.513269 0.369264,-1.004783 0.524653,-1.921398 0.465291,-2.749843 -0.532509,0.436483 -1.116524,0.790908 -1.754661,1.064146 -3.059746,1.093826 -5.281445,2.682624 -6.644145,4.75941 -0.103877,0.132691 -0.428626,0.716705 -0.975975,1.763392 -0.28808,0.547349 -0.539493,0.923598 -0.739403,1.123507 -0.273239,0.273238 -0.673057,0.428626 -1.189852,0.458307 -0.805748,0.03666 -1.434283,-0.347441 -1.884734,-1.175012 C 9.521212,27.841239 8.9817191,27.91544 8.5007149,27.885761 7.6949673,27.582841 7.110953,27.257225 6.7460533,26.909784 6.006651,26.170382 5.5335036,25.438836 5.3047864,24.699434 c -0.2217333,-0.739402 -0.3326,-1.530309 -0.3326,-2.379705 0,-1.21255 0.7463859,-2.816188 2.2539981,-4.811788 1.7633912,-2.291536 2.6974649,-4.042706 2.8083315,-5.237797 0,-0.517668 0.05151,-1.101682 0.155388,-1.754661 0.08904,-0.451323 0.266255,-0.8816957 0.539493,-1.3007187 0.192052,-0.288079 0.31776,-0.487988 0.377121,-0.590998 0.06635,-0.110862 0.185069,-0.273238 0.362281,-0.487988 0.125707,-0.177212 0.236573,-0.310776 0.325616,-0.398945 0.08118,-0.09603 0.192052,-0.221734 0.325616,-0.384106 0.155388,-0.185068 0.354425,-0.398944 0.605838,-0.650359 -0.768209,-2.1064668 -1.078985,-4.279279 -0.931454,-6.51145305 2.867693,1.01962425 5.281444,2.62762765 7.228159,4.82662885 0.480131,-1.6333193 1.419442,-2.9567357 2.816188,-3.9615196 1.153187,0.8057476 2.069802,1.8777498 2.749842,3.2002932" />
      <path
         inkscape:connector-curvature="0"
         style="fill:url(#0);stroke-width:0.87296593"
         id="path8361"
         d="m 39.257924,35.063286 c -0.01484,0 0,-0.391962 0.03666,-1.175012 0.04452,-0.790908 0.06635,-1.641176 0.06635,-2.549934 0.01485,-1.803548 0.01485,-3.666457 0,-5.594839 -0.01484,-1.929254 -0.273238,-3.850652 -0.776066,-5.772923 -0.494971,-1.848069 -1.034464,-3.422027 -1.626335,-4.730603 -0.590999,-1.308576 -1.234374,-2.432083 -1.929255,-3.385362 -1.034466,-1.559117 -2.453908,-2.8825327 -4.242616,-3.9615187 -1.788706,-1.086843 -3.6586,-1.795691 -5.609679,-2.128291 0.132691,0.709721 0.192053,1.404602 0.177213,2.084642 -0.02968,0.517669 -0.273238,0.776067 -0.739403,0.776067 -0.532509,0 -0.769083,-0.258398 -0.716705,-0.776067 0.04452,-1.906557 -0.635519,-3.5407496 -2.032264,-4.8929738 -1.093827,1.153188 -1.692682,2.4905718 -1.773867,4.0208808 -0.02968,0.509812 -0.288079,0.731546 -0.78305,0.673058 -0.458308,-0.01485 -0.687024,-0.281096 -0.687024,-0.797892 0,0 0.01484,-0.05937 0.03666,-0.177212 -0.590998,0.192052 -1.21255,0.458308 -1.86291,0.805748 -0.413785,0.288078 -0.754242,0.213876 -1.01264,-0.21475 -0.258398,-0.435609 -0.147532,-0.776067 0.34744,-1.019624 0.620679,-0.31776 1.086843,-0.554334 1.404602,-0.716705 C 16.293678,4.2589367 14.881219,3.2384394 13.29242,2.455389 c 0.17023,2.0104406 0.724562,3.9021573 1.648161,5.6987213 0.243558,0.369265 0.185068,0.701865 -0.177213,0.990817 -0.406802,0.31776 -0.746386,0.273238 -1.019624,-0.147531 -0.09603,-0.147531 -0.243558,-0.406802 -0.428626,-0.783051 -0.302919,0.30292 -0.509813,0.532509 -0.605838,0.672184 -0.103014,0.13269 -0.281096,0.421642 -0.532509,0.86511 -0.251415,0.4504497 -0.435611,0.8205867 -0.554334,1.1086657 -0.125707,0.362281 -0.185069,0.65036 -0.162372,0.881695 0.02182,0.221734 0.04452,0.465291 0.05936,0.746387 -0.132691,0.850268 -0.428626,1.64816 -0.881695,2.402401 -0.458307,0.746386 -1.0344648,1.663001 -1.7441861,2.749844 -0.6800405,1.034464 -1.1977093,1.818388 -1.5591173,2.335184 -0.3622807,0.524652 -0.6355191,1.182868 -0.8205879,1.995599 -0.1326909,0.487989 -0.1326909,1.086843 0,1.781725 0.125707,0.701863 0.4137858,1.249213 0.8424121,1.641175 0.6652001,0.672184 1.308576,0.98296 1.9292547,0.931455 0.1999092,0 0.4731476,-0.08118 0.8127315,-0.243557 0.339584,-0.155389 0.598855,-0.458308 0.790907,-0.908758 0.369265,-0.820589 0.68004,-1.234374 0.931454,-1.234374 0.354424,0 0.554333,0.206893 0.584014,0.605838 0,0.08904 -0.118722,0.451324 -0.34744,1.086843 -0.132691,0.288079 -0.302919,0.590998 -0.517669,0.908757 -0.281094,0.377122 -0.398945,0.532509 -0.369264,0.473149 0.228717,0.827571 0.613695,0.968118 1.145331,0.435609 0.155388,-0.155388 0.339583,-0.458307 0.539493,-0.886933 0.206893,-0.435611 0.524652,-1.019624 0.953279,-1.754661 0.509812,-0.857254 1.049305,-1.545151 1.626336,-2.084644 0.576156,-0.532509 1.086842,-0.968119 1.537292,-1.293736 0.258398,-0.192051 0.576158,-0.406801 0.95328,-0.650359 0.377121,-0.251415 0.881694,-0.502828 1.515468,-0.761227 0.502828,-0.199909 1.064146,-0.45045 1.677841,-0.746385 0.613694,-0.295936 1.160171,-0.672183 1.633319,-1.138348 0.6652,-0.650359 1.175012,-1.448251 1.537293,-2.402403 0.192053,-0.532509 0.258398,-1.189852 0.213876,-1.973775 -0.125706,-0.487988 0.118724,-0.731545 0.739403,-0.731545 0.46529,0 0.724561,0.236573 0.783923,0.716705 0,1.626336 -0.46529,3.11125 -1.389761,4.45649 0.302919,0.923599 0.384104,1.936239 0.236573,3.030066 -0.125707,0.881695 -0.436482,1.825372 -0.916615,2.831028 -0.487987,0.9978 -1.46309,2.114323 -2.934038,3.340841 -2.9934,2.483588 -4.408477,5.040506 -4.242614,7.664641 0,0 1.226517,0 3.688281,0 2.460891,0 4.775123,0 6.940079,0 h 11.8479 M 9.8913495,21.900705 c -0.4216425,0.258398 -0.6721837,0.605839 -0.7612262,1.042322 0.01484,0.473148 -0.2068929,0.731545 -0.6652001,0.776067 -0.5098121,0.05937 -0.769083,-0.155388 -0.7839234,-0.65036 0.059362,-0.953279 0.4801312,-1.707522 1.2788951,-2.268839 0.3771213,-0.302919 0.7245617,-0.281095 1.0423211,0.08118 0.31776,0.391962 0.281095,0.731546 -0.1108661,1.019624 M 16.321616,11.575263 c 0.18507,0.288079 0.258398,0.590998 0.21475,0.908757 -0.140548,0.923599 -0.658216,1.308577 -1.537293,1.168028 -0.258398,-0.04452 -0.465291,-0.13269 -0.628535,-0.258397 -0.05151,0.06635 -0.140548,0.228717 -0.258399,0.473147 -0.155387,0.465292 -0.458306,0.620679 -0.908757,0.480132 -0.443467,-0.177212 -0.620679,-0.502829 -0.517669,-0.975976 0.650359,-1.663001 1.825372,-2.801348 3.526783,-3.4220267 0.494971,-0.147531 0.820587,0 0.975975,0.4286267 0.177212,0.46529 0.04452,0.783923 -0.391962,0.953278 -0.08118,0.04452 -0.16237,0.08904 -0.236573,0.118724 -0.0742,0.03666 -0.147531,0.08118 -0.236574,0.125707" />
    </g>
  </g>
</svg>
