<?xml version="1.0" encoding="UTF-8" standalone="no"?>
<svg
   xmlns:dc="http://purl.org/dc/elements/1.1/"
   xmlns:cc="http://creativecommons.org/ns#"
   xmlns:rdf="http://www.w3.org/1999/02/22-rdf-syntax-ns#"
   xmlns:svg="http://www.w3.org/2000/svg"
   xmlns="http://www.w3.org/2000/svg"
   xmlns:sodipodi="http://sodipodi.sourceforge.net/DTD/sodipodi-0.dtd"
   xmlns:inkscape="http://www.inkscape.org/namespaces/inkscape"
   inkscape:version="1.0 (4035a4fb49, 2020-05-01)"
   sodipodi:docname="wC.svg"
   id="svg7104"
   version="1.1"
   viewBox="0 0 50 50"
   clip-rule="evenodd"
   fill-rule="evenodd"
   image-rendering="optimizeQuality"
   shape-rendering="geometricPrecision"
   height="177.17"
   width="177.17">
  <metadata
     id="metadata7108">
    <rdf:RDF>
      <cc:Work
         rdf:about="">
        <dc:format>image/svg+xml</dc:format>
        <dc:type
           rdf:resource="http://purl.org/dc/dcmitype/StillImage" />
        <dc:title />
      </cc:Work>
    </rdf:RDF>
  </metadata>
  <sodipodi:namedview
     inkscape:document-rotation="0"
     inkscape:current-layer="svg7104"
     inkscape:window-maximized="0"
     inkscape:window-y="0"
     inkscape:window-x="392"
     inkscape:cy="-24.205855"
     inkscape:cx="21.258813"
     inkscape:zoom="1.3344412"
     inkscape:object-nodes="false"
     showgrid="false"
     id="namedview7106"
     inkscape:window-height="729"
     inkscape:window-width="958"
     inkscape:pageshadow="2"
     inkscape:pageopacity="0"
     guidetolerance="10"
     gridtolerance="10"
     objecttolerance="10"
     borderopacity="1"
     bordercolor="#666666"
     pagecolor="#ffffff" />
  <defs
     id="defs7098">
    <linearGradient
       gradientTransform="matrix(0.84732229,0,0,0.84860456,3.1918211,-2.021577)"
       gradientUnits="userSpaceOnUse"
       x2="77.64"
       x1="21.405"
       id="0">
      <stop
         id="stop7093"
         stop-color="#fff" />
      <stop
         id="stop7095"
         stop-opacity="0"
         stop-color="#fff"
         offset="1" />
    </linearGradient>
    <clipPath
       id="clipPath5191"
       clipPathUnits="userSpaceOnUse">
      <rect
         clip-path="none"
         y="4.0289068"
         x="7.2068729"
         height="15.671"
         width="35.162529"
         id="rect5193"
         style="opacity:1;fill:#d40000;fill-opacity:1;stroke:#000000;stroke-width:0.2045171;stroke-linecap:square;stroke-linejoin:miter;stroke-miterlimit:4;stroke-dasharray:none;stroke-opacity:1;paint-order:normal" />
    </clipPath>
    <linearGradient
       gradientUnits="userSpaceOnUse"
       x2="77.639999"
       x1="21.375999"
       id="0-3">
      <stop
         id="stop4571"
         stop-color="#fff" />
      <stop
         id="stop4573"
         stop-opacity="0"
         stop-color="#fff"
         offset="1" />
    </linearGradient>
  </defs>
  <g
     transform="translate(-0.87917368,0.46043793)"
     id="g6081">
    <g
       transform="matrix(1,0,0,-1,1.7787623,51.814864)"
       id="g5169"
       clip-path="url(#clipPath5191)">
      <path
         style="fill:#1f1a17"
         inkscape:connector-curvature="0"
         id="path4578"
         d="m 28.408,9.22 h 4.216 V 5.825 h 6.796 v 9.295 l -5.5,4.243 V 31.22 l 4.22,4.221 v 5.08 h 3.789 V 46.45 H 8.07 v -5.929 h 3.794 v -5.08 L 16.11,31.22 V 19.363 L 10.602,15.12 V 5.825 h 6.774 V 9.22 h 4.242 V 5.825 h 6.79 z" />
      <path
         style="fill:url(#0-3)"
         inkscape:connector-curvature="0"
         id="path4580"
         d="m 33.07,17.678 3.15,-2.557 H 13.8 l 3.175,2.557 h 16.1 m 7.197,24.528 H 9.758 v 2.557 h 30.514 v -2.557 m -3.844,-5.05 H 13.602 v 3.37 h 22.826 v -3.37 M 32.212,19.368 H 17.819 V 31.23 H 32.212 V 19.368 m 5.503,-5.927 V 7.514 H 34.32 v 3.395 H 26.675 V 7.514 h -3.344 v 3.395 h -7.62 V 7.514 h -3.395 v 5.927 h 25.4 m -1.913,22 -2.548,-2.532 H 16.804 l -2.599,2.532 h 21.598" />
    </g>
    <g
       id="g6073"
       transform="matrix(0.82803796,0,0,0.82803796,2.8109585,3.6603795)">
      <path
         style="fill:#1f1a17;stroke-width:0.84796321"
         inkscape:connector-curvature="0"
         id="path7100"
         d="m 25.374719,5.9510631 c 2.202191,0.1434142 4.236612,0.7111307 6.119359,1.7141817 1.872583,0.9911706 3.472331,2.2700166 4.792455,3.8297502 0.925283,1.092156 1.793784,2.414282 2.611451,3.958741 0.825292,1.537673 1.477732,3.175478 1.965784,4.899844 0.559237,2.012041 0.918503,4.116581 1.061698,6.329744 0.150822,2.20552 0.222849,4.251505 0.222849,6.13541 v 4.584163 c 0,0 -1.090507,0 -3.271514,0 -2.173379,0 -5.000051,0 -8.481698,0 H 16.298201 c -0.128787,0 -0.186411,-0.344538 -0.179631,-1.02766 0.0067,-0.68992 0.04998,-1.243206 0.136421,-1.666661 0.04998,-0.337746 0.186413,-0.812115 0.394853,-1.4299 0.215219,-0.617784 0.559227,-1.365407 1.054914,-2.248804 0.221999,-0.452306 0.753273,-1.106577 1.592968,-1.968759 0.846475,-0.862181 1.808187,-1.86778 2.905469,-3.003212 0.631255,-0.646641 1.119308,-1.458753 1.477729,-2.443132 0.358413,-0.976746 0.509238,-1.86778 0.451624,-2.673105 -0.51687,0.424301 -1.083731,0.768835 -1.703123,1.03445 -2.969864,1.063301 -5.1263,2.607761 -6.448966,4.626592 -0.100833,0.128986 -0.416035,0.696703 -0.947308,1.714179 -0.279615,0.532074 -0.523642,0.897826 -0.717682,1.092156 -0.265214,0.265612 -0.653287,0.416665 -1.1549,0.445517 -0.78208,0.03563 -1.392153,-0.337747 -1.829372,-1.142223 C 10.743158,28.8846 10.219513,28.956734 9.7526382,28.927883 8.9705596,28.633414 8.4037006,28.316885 8.0495199,27.979141 7.3318384,27.26037 6.8725892,26.549242 6.6505907,25.830474 6.4353711,25.111706 6.3277613,24.34287 6.3277613,23.517178 c 0,-1.17871 0.7244604,-2.737601 2.1877863,-4.677509 1.7115914,-2.227589 2.6182284,-3.929888 2.7258334,-5.091626 0,-0.503225 0.04998,-1.07094 0.150826,-1.705696 0.08644,-0.43873 0.25843,-0.85709 0.523649,-1.264421 0.186403,-0.28004 0.308422,-0.47437 0.366036,-0.574505 0.06439,-0.107775 0.179633,-0.2656116 0.351641,-0.4743706 0.122019,-0.1722657 0.229622,-0.3021035 0.316055,-0.3878117 0.07879,-0.093344 0.186411,-0.2155462 0.316044,-0.3733862 0.150826,-0.179904 0.344017,-0.3878128 0.588044,-0.63221 -0.74564,-2.0476834 -1.047291,-4.1598602 -0.904088,-6.3297421 2.783451,0.9911701 5.126297,2.5542998 7.015823,4.6919347 0.466028,-1.5877391 1.377749,-2.8742237 2.733462,-3.8509676 1.119318,0.783262 2.009004,1.8253485 2.669067,3.1109844" />
      <path
         inkscape:connector-curvature="0"
         style="fill:url(#0);stroke-width:0.84796321"
         id="path7102"
         d="m 39.606345,35.905106 c -0.01441,0 0,-0.381024 0.03556,-1.142219 0.04324,-0.768838 0.06439,-1.595377 0.06439,-2.478775 0.01441,-1.753215 0.01441,-3.564138 0,-5.438708 -0.0144,-1.875416 -0.265206,-3.743195 -0.753268,-5.611822 -0.480422,-1.796497 -1.004068,-3.32653 -1.578553,-4.598587 -0.573635,-1.272058 -1.198111,-2.364213 -1.872582,-3.29089 -1.004075,-1.515608 -2.381822,-2.80209 -4.117984,-3.8509666 -1.736166,-1.056513 -3.551127,-1.7455801 -5.444892,-2.0688973 0.128788,0.6899162 0.186412,1.3654047 0.172004,2.0264678 -0.02882,0.5032225 -0.265216,0.7544081 -0.717683,0.7544081 -0.516869,0 -0.746493,-0.2511856 -0.695649,-0.7544081 C 24.74092,7.5973557 24.080842,6.0087682 22.725122,4.6942797 21.663426,5.8152864 21.082168,7.1153482 21.003364,8.6029529 20.974546,9.0985377 20.72375,9.3140837 20.24332,9.2572277 19.798478,9.2428037 19.576478,8.9839763 19.576478,8.4816023 c 0,0 0.01441,-0.057706 0.03556,-0.1722674 C 19.038426,8.4960278 18.435135,8.7548527 17.80388,9.0925977 17.402255,9.3726371 17.071796,9.3005055 16.82099,8.8838405 16.570184,8.4603867 16.677798,8.1294309 17.158228,7.89267 17.760678,7.5837784 18.213145,7.3538065 18.521571,7.195966 17.31668,5.9603977 15.945712,4.968379 14.403586,4.2071807 c 0.16523,1.9543364 0.703275,3.7932624 1.599741,5.5396907 0.236402,0.3589586 0.179632,0.6822776 -0.172001,0.9631676 -0.394852,0.308889 -0.724465,0.265612 -0.989675,-0.143418 -0.09321,-0.14341 -0.236405,-0.395449 -0.416037,-0.7611946 -0.294018,0.2944646 -0.494834,0.5176456 -0.588044,0.6534266 -0.09998,0.128984 -0.272834,0.409874 -0.516861,0.840966 -0.244027,0.43788 -0.422815,0.797688 -0.538053,1.077727 -0.122009,0.352171 -0.179633,0.63221 -0.157601,0.85709 0.02115,0.215545 0.04324,0.452306 0.05765,0.725554 -0.128797,0.826544 -0.416035,1.602169 -0.855796,2.335364 -0.444842,0.725555 -1.004077,1.616588 -1.69295,2.673102 -0.660064,1.005596 -1.1625265,1.767644 -1.5133177,2.270017 -0.3516389,0.510015 -0.6168506,1.149861 -0.7964832,1.939912 -0.1287933,0.474371 -0.1287933,1.056515 0,1.732002 0.1220144,0.682277 0.401631,1.214354 0.8176658,1.595378 0.6456598,0.653425 1.2701365,0.955526 1.8725831,0.905459 0.194036,0 0.459248,-0.07891 0.788853,-0.236761 0.329613,-0.151053 0.581264,-0.445517 0.767676,-0.883397 0.358421,-0.797689 0.660062,-1.199928 0.904096,-1.199928 0.344011,0 0.538047,0.201119 0.566854,0.588933 0,0.08657 -0.115229,0.438727 -0.337229,1.056511 -0.128797,0.280042 -0.294026,0.574508 -0.502466,0.883397 -0.272834,0.366598 -0.387227,0.517652 -0.358415,0.459946 0.221994,0.804475 0.595663,0.941103 1.111688,0.423451 0.150823,-0.151047 0.329605,-0.445517 0.523642,-0.862181 0.200815,-0.423455 0.509245,-0.991167 0.925281,-1.705693 0.494834,-0.833331 1.018475,-1.502031 1.578555,-2.02647 0.559236,-0.517647 1.054915,-0.941099 1.492134,-1.257631 0.250807,-0.186694 0.559237,-0.395449 0.925282,-0.63221 0.366041,-0.244396 0.855796,-0.488796 1.47095,-0.739983 0.488054,-0.194333 1.032888,-0.43788 1.628555,-0.725557 0.595668,-0.287678 1.126089,-0.653427 1.585336,-1.106579 0.645658,-0.632211 1.140501,-1.407838 1.492134,-2.335362 0.186413,-0.517648 0.250806,-1.156648 0.207596,-1.918695 -0.122015,-0.474368 0.115237,-0.711129 0.717685,-0.711129 0.451623,0 0.703274,0.229972 0.760893,0.696702 0,1.580953 -0.451624,3.024426 -1.348937,4.332127 0.294018,0.897826 0.372824,1.882206 0.229623,2.945507 -0.122016,0.857091 -0.423659,1.774433 -0.889686,2.752026 -0.473659,0.969952 -1.420116,2.055321 -2.847853,3.247607 -2.90547,2.414282 -4.27898,4.899847 -4.117986,7.45075 0,0 1.190487,0 3.579941,0 2.388599,0 4.634849,0 6.736211,0 H 39.604656 M 11.102422,23.109848 c -0.409256,0.251187 -0.652438,0.58893 -0.738864,1.013231 0.0144,0.459949 -0.200816,0.711135 -0.6456599,0.754411 -0.4948364,0.05772 -0.746491,-0.151052 -0.7608953,-0.632209 0.057616,-0.926675 0.4660271,-1.659871 1.2413272,-2.205524 0.366043,-0.294466 0.703277,-0.273252 1.011703,0.07891 0.30842,0.381023 0.272833,0.711128 -0.107611,0.99117 m 6.241373,-10.037288 c 0.179633,0.28004 0.250806,0.574503 0.208445,0.883396 -0.136417,0.897826 -0.638884,1.27206 -1.492138,1.135433 -0.250806,-0.0433 -0.451623,-0.128984 -0.610072,-0.251186 -0.04998,0.06449 -0.136412,0.222334 -0.250807,0.459942 -0.150821,0.452306 -0.444842,0.603359 -0.882061,0.466732 -0.430439,-0.172263 -0.602449,-0.488794 -0.502458,-0.948736 0.631256,-1.616594 1.771748,-2.723172 3.423183,-3.326531 0.48043,-0.143417 0.796476,0 0.9473,0.416665 0.17201,0.452306 0.04324,0.762048 -0.380447,0.926674 -0.07879,0.0433 -0.157597,0.08657 -0.229624,0.115412 -0.07202,0.03562 -0.143192,0.07891 -0.229623,0.122199" />
    </g>
  </g>
</svg>
