<svg clip-rule="evenodd" fill-rule="evenodd" height="177.17" image-rendering="optimizeQuality" shape-rendering="geometricPrecision" viewBox="0 0 50 50" width="177.17" xmlns="http://www.w3.org/2000/svg" xmlns:xlink="http://www.w3.org/1999/xlink"><linearGradient id="a" gradientUnits="userSpaceOnUse" x1="55.605984" x2="7.337133" y1="79.224815" y2="79.224815"><stop offset="0"/><stop offset="1" stop-color="#fff"/></linearGradient><linearGradient id="b" gradientUnits="userSpaceOnUse" x1="56.654655" x2="19.172184" y1="81.544678" y2="81.544678"><stop offset="0" stop-color="#808080"/><stop offset="1" stop-color="#fff"/></linearGradient><linearGradient id="c" gradientUnits="userSpaceOnUse" x1="55.605984" x2="16.175968" y1="79.224815" y2="81.394867"><stop offset="0"/><stop offset="1" stop-opacity="0"/></linearGradient><g stroke-width="1.693289" transform="translate(7.790159 -55.675985)"><g fill="url(#a)" stroke="#1f1a17"><path d="m28.586653 64.693268c-2.190022 11.377898-5.329501 22.416647 3.20091 33.487116l1.346119.370763v2.728213h-31.7592521v-2.798168l1.441492-.262169c8.4954061-10.196383 5.459067-21.932182 3.14052-33.525755l5.5366371.0597.03498 12.539318 2.81916-.01749v-12.521822l6.082018-.05297-.03498 12.486848 2.817159.05297v-12.451895z" fill="url(#b)"/><circle cx="17.358978" cy="63.014393" fill="url(#c)" r="1.504017" stroke-linecap="square"/></g><g fill="#1a1a1a" stroke="#1a1a1a" transform="translate(-.183607)"><g stroke-linecap="square"><circle cx="12.934354" cy="87.472137" r=".699949"/><circle cx="21.940971" cy="87.384705" r=".699949"/><circle cx="17.376469" cy="83.755836" r=".699949"/><circle cx="17.376484" cy="95.228325" r=".699949"/></g><path d="m13.843785 87.026179h7.257757v.804477h-7.275247z"/><path d="m17.673257 84.779395v9.752541h-.593562v-9.776045z"/></g></g></svg>