<svg clip-rule="evenodd" fill-rule="evenodd" height="177.17" image-rendering="optimizeQuality" shape-rendering="geometricPrecision" viewBox="0 0 50 50" width="177.17" xmlns="http://www.w3.org/2000/svg" xmlns:xlink="http://www.w3.org/1999/xlink"><linearGradient id="a" gradientUnits="userSpaceOnUse" x1="85.857118" x2="113.390207" y1="4.633762" y2="4.633762"><stop offset="0" stop-color="#fff"/><stop offset="1" stop-color="#1f1a17"/></linearGradient><g transform="translate(-63.191733 19.375185)"><path d="m98.668606 26.453846c-.425324-1.517509-.998357-4.602989-.667976-6.314589.609101 1.007785 1.140244 2.046361 1.543127 2.826717.499703-2.40019 1.078143-4.464335 1.459253-6.538101.73589.416313 2.29773 1.005907 2.97959 1.229496-.23655-1.116665-.19782-1.504139-.40248-2.081584-.19572-.572435-.4187-1.184901-.49553-1.361035-.10296-.552174-.62366-2.500041-1.28881-3.897708 1.10598.379757 3.52946 1.673257 3.52946 1.423108 0-.156116-.4677-1.396678-.89315-2.36908-.41653-.951976-1.17677-2.732383-1.35036-3.162406-.43177-1.069591-.28535-1.361036.68378-1.361036.85913 0 3.48255-.354093 3.47599-.469168-.002-.05019-.72889-.667696-1.6134-1.372233-.88451-.704535-1.74821-1.411159-1.91932-1.570274-.30146-.280324-.34439-.271628-1.38364.280213-1.28393.68177-1.57618.728465-1.3096.209239.23234-.45255 1.12199-1.401066 1.31411-1.401066.0792 0 .57163-.304477.57163-.304477 7.25948-1.045932.81537-.701644 1.22305-1.052466-.17613-.05869-1.07682-.244635-2.00152-.413234-4.589428-.836771-8.34585-.310674-10.866983-.187759 2.998914-1.140866 8.479229-1.316911 12.067893-.745675 2.22979.354934 2.40214.445236 2.88219.359686-.17613-.04799-1.92545-.979039-2.44337-1.121844-1.73231-.477652-2.33337-1.239825-3.00228-1.892888-.808932-.789769-.879152-.916079-.879152-1.581346 0-.601544.09097-.81947.541452-1.297121.29779-.315758.48762-.607372.42184-.648031-.0658-.04066-.61568.03585-1.221973.170026-2.739965.606352-4.876025 1.155717-5.543559 1.518633-.346864.188579-.602633.194056-.602633.01291 0-.17943 1.518321-.854511 3.042316-1.35269 2.039573-.6667182 3.306408-.9546362 5.684329-1.2919032l1.44109-.204389-1.52116-.115588c-2.692099-.204566-4.271432-.8458798-5.085003-2.0648528-1.058921-1.586538-.778059-2.632052-.973299-3.292084-.506793.588332-.595978.593356-1.160877 1.253335-1.087738 1.270815-1.783772 1.934848-2.644423 2.522872-.848771.579891-1.02468.494217-1.02468-.499044 0-1.061165-.943693-2.671445-1.273762-3.30385-.43465 1.12647-.418328 1.103161-.735354 1.841401-.113466.264201-.333087.804612-.488056 1.200913-.484499 1.239023-1.611125 3.1906839-2.706785 4.789253-.132615-2.4399343-.112101-4.79196-1.209707-7.030958-.457313-.905872-2.40409-2.888108-2.40409-2.888108.04892 4.133931 1.476272 9.076471-1.197687 12.938114 0 0-3.764508 3.488705-6.036768 5.141767-1.888528 1.373894-2.04156 1.524047-2.04156 2.003213 0 .487376-.04726.530101-.799353.722859-.603247.154608-.928868.360795-1.327285.840438l-.527941.635569-.419275-.329801c-.230602-.18139-.496601-.329799-.591121-.329799-.271141 0-.376839.693421-.314608 2.063901.08226 1.81144.293864 2.018271 1.898006 1.85516.660498-.06717 1.717386-.132393 2.348629-.144961 1.132906-.02255 1.157982-.03245 1.942592-.766362.911289-.852401 1.694059-1.124752 3.029488-1.054057l.903676.04784-1.270033.547523c-2.179898.977903-4.298693 2.040874-6.472894 3.04373.000817.268978.855458.91659 1.666667 1.263457.668447.285821 2.655526.45179 2.655526.2218 0-.09564-.07327-.219154-.162728-.27447-.281665-.174075.0016-.39869.502945-.39869.691913 0 1.170966-.28304.943324-.557338-.102133-.123062-.116-.253225-.03246-.304846.241779-.149427 4.195883-.575903 5.353963-.577459l1.08082-.0015v1.001455c0 2.093182-1.722996 5.308127-4.011453 7.485-.589274.560542-1.90328 2.434932-2.316177 3.303947-.783948 1.649985-1.037968 2.662927-1.037968 4.138963v1.033444z" fill="url(#a)" stroke="#000" stroke-linecap="square" stroke-width="1.69329"/><path d="m82.224318-1.857272c-1.209331.839924-3.137576 1.903211-3.497956 3.273729 1.881679.267238 2.3296-.281158 3.587648-.762374 1.005154-.384481.604256-1.87997-.08969-2.511355z"/><path d="m80.6631 26.245183c0-2.51344 3.262096-7.192946 4.347779-7.984101 2.138582-1.558421 2.687715-8.695555 2.687715-8.695555s.869724 6.65115-.513828 8.656029c-2.68328 3.888291-3.522499 5.65565-3.291009 8.028422z"/><path d="m89.907018 5.934826c-2.026665 2.70465-3.613448 2.012405-7.280059 2.761869l.339843 1.658203c3.519354-.719364 5.750958-.01103 8.293732-3.404447.24147-1.566406-.446094-1.48589-1.353516-1.015625z"/><path d="m81.157988-4.135591c1.65621-1.360797 3.791399-3.370631 4.851193-5.7257848" fill="none" stroke="#000" stroke-width="1.69329"/></g></svg>