<?xml version="1.0" encoding="UTF-8" standalone="no"?>
<svg
   xmlns:dc="http://purl.org/dc/elements/1.1/"
   xmlns:cc="http://creativecommons.org/ns#"
   xmlns:rdf="http://www.w3.org/1999/02/22-rdf-syntax-ns#"
   xmlns:svg="http://www.w3.org/2000/svg"
   xmlns="http://www.w3.org/2000/svg"
   xmlns:xlink="http://www.w3.org/1999/xlink"
   xmlns:sodipodi="http://sodipodi.sourceforge.net/DTD/sodipodi-0.dtd"
   xmlns:inkscape="http://www.inkscape.org/namespaces/inkscape"
   width="177.17"
   height="177.17"
   shape-rendering="geometricPrecision"
   image-rendering="optimizeQuality"
   fill-rule="evenodd"
   clip-rule="evenodd"
   viewBox="0 0 50 50"
   version="1.1"
   id="svg12863"
   sodipodi:docname="WhiteElephant.svg"
   inkscape:version="0.92.4 (5da689c313, 2019-01-14)">
  <metadata
     id="metadata12867">
    <rdf:RDF>
      <cc:Work
         rdf:about="">
        <dc:format>image/svg+xml</dc:format>
        <dc:type
           rdf:resource="http://purl.org/dc/dcmitype/StillImage" />
        <dc:title></dc:title>
      </cc:Work>
    </rdf:RDF>
  </metadata>
  <sodipodi:namedview
     pagecolor="#ffffff"
     bordercolor="#666666"
     borderopacity="1"
     objecttolerance="10"
     gridtolerance="10"
     guidetolerance="10"
     inkscape:pageopacity="0"
     inkscape:pageshadow="2"
     inkscape:window-width="958"
     inkscape:window-height="1008"
     id="namedview12865"
     showgrid="false"
     showguides="false"
     inkscape:zoom="0.86475527"
     inkscape:cx="141.66009"
     inkscape:cy="47.180942"
     inkscape:window-x="953"
     inkscape:window-y="0"
     inkscape:window-maximized="0"
     inkscape:current-layer="g13475" />
  <defs
     id="defs12857">
    <linearGradient
       inkscape:collect="always"
       id="linearGradient18986">
      <stop
         style="stop-color:#ffffff;stop-opacity:1"
         offset="0"
         id="stop18982" />
      <stop
         style="stop-color:#999999;stop-opacity:1"
         offset="1"
         id="stop18984" />
    </linearGradient>
    <linearGradient
       inkscape:collect="always"
       id="linearGradient18978">
      <stop
         style="stop-color:#ffffff;stop-opacity:1"
         offset="0"
         id="stop18974" />
      <stop
         style="stop-color:#808080;stop-opacity:1"
         offset="1"
         id="stop18976" />
    </linearGradient>
    <linearGradient
       id="0"
       x1="21.405"
       x2="77.64"
       gradientUnits="userSpaceOnUse">
      <stop
         stop-color="#fff"
         id="stop12852" />
      <stop
         offset="1"
         stop-color="#fff"
         stop-opacity="0"
         id="stop12854" />
    </linearGradient>
    <linearGradient
       gradientTransform="matrix(0.18388585,0,0,0.14372393,52.70999,-34.229473)"
       inkscape:collect="always"
       xlink:href="#linearGradient15233"
       id="linearGradient15235"
       x1="233.09853"
       y1="541.73389"
       x2="313.64203"
       y2="543.00366"
       gradientUnits="userSpaceOnUse" />
    <linearGradient
       inkscape:collect="always"
       id="linearGradient15233">
      <stop
         style="stop-color:#ffffff;stop-opacity:1;"
         offset="0"
         id="stop15229" />
      <stop
         style="stop-color:#808080;stop-opacity:1"
         offset="1"
         id="stop15231" />
    </linearGradient>
    <linearGradient
       inkscape:collect="always"
       xlink:href="#linearGradient18978"
       id="linearGradient18980"
       x1="88.441452"
       y1="51.042274"
       x2="107.47359"
       y2="49.662495"
       gradientUnits="userSpaceOnUse" />
    <linearGradient
       inkscape:collect="always"
       xlink:href="#linearGradient18986"
       id="linearGradient18988"
       x1="84.44696"
       y1="64.241241"
       x2="103.93494"
       y2="63.71056"
       gradientUnits="userSpaceOnUse" />
  </defs>
  <g
     id="g13475"
     transform="matrix(1.087113,0,0,1.087113,-73.92342,-28.092572)">
    <path
       sodipodi:nodetypes="cccccccccccccccccccc"
       inkscape:connector-curvature="0"
       id="path13430"
       d="m 41.051989,36.049061 -6.217144,0.149811 c -6.203086,2.383935 -6.962587,5.934352 -4.793947,10.112228 -0.05331,-4.629564 3.609449,-3.313402 6.366959,-3.445648 9.559786,5.46999 4.25599,14.805717 -0.599244,18.426723 l 4.419419,0.449433 -0.524338,3.07112 4.269605,-2.92131 2.696594,3.520551 3.895081,-2.92131 1.573012,2.621691 2.022444,-2.696597 c 1.307039,1.013938 2.064854,2.354644 2.627738,3.526604 l 1.86659,-3.226981 c 1.23104,0.812023 1.87638,2.044599 2.8464,3.07112 v -4.119794 l 4.41942,2.621688 c 0.57264,-16.897498 -1.12516,-28.07245 -13.932403,-31.759881 -2.710707,-0.06014 -5.491501,-0.344569 -7.865064,0.674147 z"
       style="fill:#000003;fill-opacity:1;stroke:#000000;stroke-width:1.69328892;stroke-linecap:butt;stroke-linejoin:miter;stroke-miterlimit:4;stroke-dasharray:none;stroke-opacity:1" />
    <g
       id="g14651"
       style="fill:none;stroke:#000000;stroke-width:0.7612282;stroke-miterlimit:4;stroke-dasharray:none"
       transform="matrix(2.0461691,0,0,2.0461691,-218.53911,-54.389098)">
      <path
         sodipodi:nodetypes="ccccccccccccc"
         inkscape:connector-curvature="0"
         id="path14615"
         d="m 120.24389,77.923887 c 0.0479,0.545851 0.15355,1.053185 0.56807,1.354615 -0.33502,-0.07694 -0.67003,0.01765 -1.00504,0.393276 0.11119,1.214355 0.65111,1.948528 1.79159,2.010077 1.12197,0.65771 2.13527,-3.803616 1.6605,-4.369732 0.11955,0.304122 3.21893,-0.441785 3.10251,-1.310919 0.46315,1.880189 1.35117,2.538873 2.27225,3.102509 3.50676,-2.392772 6.24243,-5.475458 4.28234,-12.759613 -1.49599,-0.96774 -3.12477,-1.691862 -5.2642,-1.656634 -1.48973,0.0038 -2.87502,-0.0658 -4.61139,0.258321 0,0 -1.17983,0.327729 -1.48571,0.458822 -0.30588,0.131091 -1.70419,0.327727 -1.70419,0.327727 -3.19682,3.268794 -1.66023,7.93381 -0.21849,10.57475"
         style="fill:none;stroke:#000000;stroke-width:0.7612282;stroke-linecap:butt;stroke-linejoin:miter;stroke-miterlimit:4;stroke-dasharray:none;stroke-opacity:1" />
      <path
         sodipodi:nodetypes="ccsc"
         inkscape:connector-curvature="0"
         id="path14617"
         d="m 122.14449,74.366031 c -1.14761,2.020968 -2.93375,2.217566 -4.6348,2.657284 -0.53246,1.382509 5.808,1.106881 6.39602,-0.278089 0.31279,-0.736699 -1.2079,-2.804586 -1.76122,-2.379195 z"
         style="fill:none;stroke:#000000;stroke-width:0.7612282;stroke-linecap:butt;stroke-linejoin:miter;stroke-miterlimit:4;stroke-dasharray:none;stroke-opacity:1" />
      <ellipse
         inkscape:transform-center-x="-5.3673877e-06"
         inkscape:transform-center-y="0.12073699"
         transform="matrix(0.87751021,0.47955795,-0.28792047,0.95765432,0,0)"
         ry="0.65587068"
         rx="0.28856283"
         cy="4.31072"
         cx="141.44829"
         id="path14625"
         style="opacity:1;fill:none;fill-opacity:1;stroke:#000000;stroke-width:0.76957488;stroke-linecap:square;stroke-linejoin:bevel;stroke-miterlimit:4;stroke-dasharray:none;stroke-opacity:0.98431373;paint-order:normal" />
    </g>
    <g
       transform="matrix(2.0461691,0,0,2.0461691,-118.31839,-94.977592)"
       style="fill:none;stroke:#000000;stroke-width:0.7612282;stroke-miterlimit:4;stroke-dasharray:none"
       id="g14659">
      <path
         style="fill:none;stroke:#000000;stroke-width:0.7612282;stroke-linecap:butt;stroke-linejoin:miter;stroke-miterlimit:4;stroke-dasharray:none;stroke-opacity:1"
         d="m 120.24389,77.923887 c 0.0479,0.545851 0.15355,1.053185 0.56807,1.354615 -0.33502,-0.07694 -0.67003,0.01765 -1.00504,0.393276 0.11119,1.214355 0.65111,1.948528 1.79159,2.010077 1.12197,0.65771 2.13527,-3.803616 1.6605,-4.369732 0.11955,0.304122 3.21893,-0.441785 3.10251,-1.310919 0.46315,1.880189 1.35117,2.538873 2.27225,3.102509 3.50676,-2.392772 6.24243,-5.475458 4.28234,-12.759613 -1.49599,-0.96774 -3.12477,-1.691862 -5.2642,-1.656634 -1.48973,0.0038 -2.87502,-0.0658 -4.61139,0.258321 0,0 -1.17983,0.327729 -1.48571,0.458822 -0.30588,0.131091 -1.70419,0.327727 -1.70419,0.327727 -3.19682,3.268794 -1.66023,7.93381 -0.21849,10.57475"
         id="path14653"
         inkscape:connector-curvature="0"
         sodipodi:nodetypes="ccccccccccccc" />
      <path
         style="fill:none;stroke:#000000;stroke-width:0.7612282;stroke-linecap:butt;stroke-linejoin:miter;stroke-miterlimit:4;stroke-dasharray:none;stroke-opacity:1"
         d="m 122.14449,74.366031 c -1.14761,2.020968 -2.93375,2.217566 -4.6348,2.657284 -0.53246,1.382509 5.808,1.106881 6.39602,-0.278089 0.31279,-0.736699 -1.2079,-2.804586 -1.76122,-2.379195 z"
         id="path14655"
         inkscape:connector-curvature="0"
         sodipodi:nodetypes="ccsc" />
      <ellipse
         style="opacity:1;fill:none;fill-opacity:1;stroke:#000000;stroke-width:0.76957488;stroke-linecap:square;stroke-linejoin:bevel;stroke-miterlimit:4;stroke-dasharray:none;stroke-opacity:0.98431373;paint-order:normal"
         id="ellipse14657"
         cx="141.44829"
         cy="4.31072"
         rx="0.28856283"
         ry="0.65587068"
         transform="matrix(0.87751021,0.47955795,-0.28792047,0.95765432,0,0)"
         inkscape:transform-center-y="0.12073699"
         inkscape:transform-center-x="-5.3673877e-06" />
    </g>
    <g
       id="g18994"
       transform="translate(-0.34686579,-0.75050212)">
      <path
         sodipodi:nodetypes="ccccccccccccccccccsccccscc"
         inkscape:connector-curvature="0"
         id="path15217"
         d="m 101.65188,69.860643 c -8.735986,0.0568 -14.117214,0.14808 -22.788666,0.19069 0.03444,-1.96153 0.626084,-3.92305 1.717131,-5.88458 -3.660327,-5.97534 -2.711629,-9.46976 0.660435,-11.8724 1.643358,-2.511672 3.09135,-5.155635 5.415568,-8.465541 2.408402,-1.729975 5.368613,-3.27511 7.000615,-5.265155 0.999651,-2.012102 0.536145,-3.261803 -1.452958,-3.716578 -4.929266,0.392414 -2.586788,4.337045 -3.038003,6.916968 -8.157022,5.9081 -11.375898,-0.892949 -11.09531,-3.303627 0.866167,-0.425478 1.436706,0.424041 2.322856,0.892644 0.745737,-0.450725 1.324113,-0.600373 2.036018,-0.582929 1.279361,0.765191 1.000634,1.249092 1.395919,2.187032 -1.172713,-6.738948 0.45135,-11.146721 9.567302,-11.684957 5.781167,0.546187 8.561033,3.546411 9.238073,8.665756 -0.79017,0.516192 -1.6238,0.995882 -1.70912,1.658075 0.11979,2.1649 -1.042871,4.455102 -1.849206,6.710489 l 0.839225,0.503666 -0.18681,1.287886 c -0.14937,0.350239 -1.013511,-0.404227 -1.282174,-0.07299 -0.332596,0.410032 -0.694933,2.575766 -0.625068,2.875556 1.065533,-2.767772 3.769493,-4.330296 6.274133,-6.039443 1.13193,-1.312743 2.68829,-2.395172 2.72894,-1.721383 -0.38292,1.952979 -1.15417,5.034143 -2.68652,8.156665 0.12703,2.952026 0.73992,5.567583 0.22174,8.431036 -0.73303,4.050686 -2.87676,5.20466 -2.70412,10.13313 z"
         style="fill:url(#linearGradient18980);fill-opacity:1;stroke:#000000;stroke-width:1.29800129;stroke-linecap:butt;stroke-linejoin:miter;stroke-miterlimit:4;stroke-dasharray:none;stroke-opacity:1" />
      <path
         sodipodi:nodetypes="cccc"
         inkscape:connector-curvature="0"
         id="path15219"
         d="m 95.673807,48.092246 c 1.042408,4.232607 2.16064,4.761207 3.672297,5.142667 6.828586,-9.427033 6.556516,-15.721988 4.453476,-17.881256 -2.08345,3.65474 -4.072731,9.989388 -8.125773,12.738589 z"
         style="fill:url(#linearGradient15235);fill-opacity:1;stroke:#000000;stroke-width:1.29800129;stroke-linecap:butt;stroke-linejoin:miter;stroke-miterlimit:4;stroke-dasharray:none;stroke-opacity:1" />
      <ellipse
         ry="1.4328499"
         rx="0.7429592"
         cy="49.458702"
         cx="87.397079"
         id="path15267"
         style="opacity:1;fill:#000000;fill-opacity:1;stroke:#000000;stroke-width:1.29800141;stroke-linecap:square;stroke-linejoin:bevel;stroke-miterlimit:4;stroke-dasharray:none;stroke-opacity:0.98431373;paint-order:normal" />
      <path
         sodipodi:nodetypes="cccc"
         inkscape:connector-curvature="0"
         id="path18972"
         d="m 80.758294,56.749733 c -1.780779,3.16306 -4.348115,6.291688 -4.821424,12.443248 5.742335,-2.051055 13.154089,1.099485 17.23671,-0.135008 -2.50154,-4.0381 -1.208197,-3.908699 -2.189333,-8.984699"
         style="fill:url(#linearGradient18988);fill-opacity:1;stroke:#000000;stroke-width:1.29800129;stroke-linecap:butt;stroke-linejoin:miter;stroke-miterlimit:4;stroke-dasharray:none;stroke-opacity:1" />
    </g>
  </g>
</svg>
