<svg clip-rule="evenodd" fill-rule="evenodd" height="177.17" image-rendering="optimizeQuality" shape-rendering="geometricPrecision" viewBox="0 0 50 50" width="177.17" xmlns="http://www.w3.org/2000/svg" xmlns:xlink="http://www.w3.org/1999/xlink"><linearGradient id="a"><stop offset="0" stop-color="#fff"/><stop offset="1" stop-color="#808080"/></linearGradient><linearGradient id="b" gradientTransform="matrix(.18388585 0 0 .14372393 52.70999 -34.229473)" gradientUnits="userSpaceOnUse" x1="263.8862" x2="226.60266" xlink:href="#a" y1="556.02753" y2="613.10144"/><linearGradient id="c" gradientUnits="userSpaceOnUse" x1="99.346107" x2="78.265686" xlink:href="#a" y1="53.234913" y2="53.234913"/><linearGradient id="d" gradientUnits="userSpaceOnUse" x1="103.51731" x2="80.967453" y1="65.571739" y2="65.571739"><stop offset="0" stop-color="#fff"/><stop offset="1" stop-color="#999"/></linearGradient><g stroke="#1f1a17" stroke-width="1.424543" transform="matrix(-.99155091878 0 0 .95559809158 115.57238182451 -21.3329947323)"><path d="m101.65188 69.860643c-8.735986.0568-14.117214.14808-22.788666.19069.03444-1.96153.626084-3.92305 1.717131-5.88458-3.660327-5.97534-2.711629-9.46976.660435-11.8724 1.643358-2.511672 3.09135-5.155635 5.415568-8.465541 2.408402-1.729975 5.368613-3.27511 7.000615-5.265155.999651-2.012102.536145-3.261803-1.452958-3.716578-4.929266.392414-2.586788 4.337045-3.038003 6.916968-8.157022 5.9081-11.375898-.892949-11.09531-3.303627.866167-.425478 1.436706.424041 2.322856.892644.745737-.450725 1.324113-.600373 2.036018-.582929 1.279361.765191 1.000634 1.249092 1.395919 2.187032-1.172713-6.738948.45135-11.146721 9.567302-11.684957 5.781167.546187 8.561033 3.546411 9.238073 8.665756-.79017.516192-1.6238.995882-1.70912 1.658075.11979 2.1649-1.042871 4.455102-1.849206 6.710489l.839225.503666-.18681 1.287886c-.14937.350239-1.013511-.404227-1.282174-.07299-.332596.410032-.549328 2.109829-.479463 2.409619 1.065533-2.767772 3.623888-3.864359 6.128528-5.573506 1.13193-1.312743 2.68829-2.395172 2.72894-1.721383-.38292 1.952979-1.15417 5.034143-2.68652 8.156665.12703 2.952026.73992 5.567583.22174 8.431036-.73303 4.050686-2.87676 5.20466-2.70412 10.13313z" fill="url(#c)" stroke-width="1.739546"/><path d="m95.673807 48.092246c1.042408 4.232607 2.16064 4.761207 3.672297 5.142667 6.828586-9.427033 6.556516-15.721988 4.453476-17.881256-2.08345 3.65474-4.072731 9.989388-8.125773 12.738589z" fill="url(#b)" stroke-width="1.739546"/><ellipse cx="87.397079" cy="49.458702" fill="#1f1a17" rx=".742959" ry="1.43285" stroke-linecap="square" stroke-linejoin="bevel" stroke-width="1.424543"/><path d="m80.758294 56.749733c-1.780779 3.16306-4.348115 6.291688-4.821424 12.443248 5.742335-2.051055 13.154089 1.099485 17.23671-.135008-2.50154-4.0381-1.208197-3.908699-2.189333-8.984699" fill="url(#d)" stroke-width="1.739546"/></g></svg>