<svg clip-rule="evenodd" fill-rule="evenodd" height="177.17" image-rendering="optimizeQuality" shape-rendering="geometricPrecision" viewBox="0 0 50 50" width="177.17" xmlns="http://www.w3.org/2000/svg" xmlns:xlink="http://www.w3.org/1999/xlink"><linearGradient id="a"><stop offset="0" stop-color="#fff"/><stop offset="1" stop-color="#201b18"/></linearGradient><linearGradient id="b" gradientUnits="userSpaceOnUse" x1="21.166111" x2="63.498337" xlink:href="#a" y1="8.466445" y2="8.466445"/><linearGradient id="c" gradientUnits="userSpaceOnUse" x1="21.166111" x2="63.498337" xlink:href="#a" y1="43.743299" y2="43.743299"/><linearGradient id="d" gradientUnits="userSpaceOnUse" x1="21.166111" x2="63.498337" xlink:href="#a" y1="26.810409" y2="26.810409"/><linearGradient id="e" gradientUnits="userSpaceOnUse" x1="21.166111" x2="63.498337" xlink:href="#a" y1="39.510076" y2="39.510076"/><linearGradient id="f" gradientUnits="userSpaceOnUse" x1="21.166111" x2="63.498337" xlink:href="#a" y1="15.521816" y2="15.521816"/><linearGradient id="g" gradientUnits="userSpaceOnUse" x1="21.166111" x2="63.498337" xlink:href="#a" y1="12.699667" y2="12.699667"/><g stroke="#201b18" stroke-width="1.69329"><path d="m24.663645 4.797652-3.497533 7.055371h2.822148 1.411074 2.822148z" fill="url(#b)"/><path d="m12.699667 45.718802h23.98826v-4.233222h-23.98826z" fill="url(#c)"/><path d="m19.755038 37.252357-4.233223 4.233223h18.343964l-4.233222-4.233223z" fill="url(#e)"/><path d="m19.755037 11.853023h9.877519l1.411074 2.822148h-12.699667z" fill="url(#g)"/><path d="m16.932889 14.675171h15.521815l1.411074 2.822148h-18.343963z" fill="url(#f)"/><path d="m14.110741 17.49732c-4.7599906 6.123599-4.8955304 12.568482 5.644296 19.755037h9.877519c10.099092-6.926421 10.756872-13.460596 5.644297-19.755037z" fill="url(#d)"/></g></svg>