<svg height="92" width="92" xmlns="http://www.w3.org/2000/svg"><g><path d="m49.617324 14.291946-4.853869 5.393188c4.658595 6.197068 15.985717 11.953681 18.056692 21.564714 2.684137 12.456612-3.82868 29.184296 5.160786 38.936001 1.096252 1.189206 0 0 5.465995.331807l2.359216-3.272157-1.435767-7.853124-.214051-42.156779-14.022287-12.134671z" fill="#fff"/><g transform="matrix(2.417992 0 0 2.417992 92.612591 -89.405798)"><path d="m-20.363965 43.589358c-.0276-1.46313-.713126-2.145608-1.299776-3.329198-.571744 1.388345-1.389781 2.98152-1.051241 4.192856-.64554-.302018-1.29108.196403-1.93662.50794-4.172427 6.925057-3.872501 6.543133-7.74648 9.703329-.41274 1.0845-.66256 1.961621.0587 3.579812.36665.484202 2.0734 1.323734 3.37442 1.496479.37959.533363.0389.715844.0293.850939.57883.586855.84987.352113 1.46713.528169 1.64825-1.771306 3.2607-3.327849 4.75353-4.166667 1.95618-.980405 3.91236-.564172 5.86854-.704225 1.456321.21705 2.389217-.81096 2.481038-.822807-.7034 1.107585-1.211128 2.439303-3.126578 3.698394-1.18159-.284668-1.84361-.179659-2.4061 0-4.23123 3.229653-5.76905 8.997115-5.75117 11.326292 5.708582 2.230783 11.7045 1.157214 17.7229999-.176057-1.599-1.233028-1.55432-2.671516-1.9953-4.049296-.3933899-3.368319.386688-3.431093.88028-6.57277.34933-6.266657-.432697-11.619231-5.5252069-14.931742-.91599-.402395-2.781791-.345578-3.748111-.295054.0658-1.508632-.62168-2.655508-.98402-4.021428-.008-.0078-1.465491 2.090218-1.163721 2.744109-.07401.08009.206841.429509.09838.440925z" fill="#1f1a17"/><path d="m-19.406506 41.091703c14.3383277-1.44366 14.6623349 12.941854 12.9102306 22.786351-.3727255 2.094222.5431423 3.922119.4131333 5.516454-4.3778739-1.27574-3.261783-4.989674-2.1272975-9.89572.1816486-7.188013-.4354701-13.936194-8.2870824-15.80692-.538977-.05014-1.697034.233285-2.238074.223765-1.184158.0502-.854474-2.06219-.67091-2.823934z" fill="#1f1a17"/><ellipse cx="-22.465561" cy="49.837406" fill="#fff" opacity=".923" rx=".968385" ry="1.013395" stroke="#fff" stroke-linecap="square" stroke-width=".097858"/><path d="m-24.006062 50.908416c1.03577-.831732-.63174-2.617565 3.11033-2.494132" fill="#ececec" stroke="#ececec"/><path d="m-29.234621 60.161919c.95231-.642849 1.758922-1.427453 2.394037-2.268554" fill="none" stroke="#fff" stroke-width=".930524"/></g><g fill="#fff"><path d="m36.551289 65.929909c-1.559727 3.111048-3.965748 9.43002-4.44938 13.348138h3.134792c-.724164.584915-.60944-5.688687 1.314588-13.348138z"/><path d="m15.214491 47.424535c-.282564 1.591452.05255 2.679078.910101 3.741523 1.258045.810614 2.504799 1.637033 3.994329 2.123567 0 0 .832008-.593904.648619-.619001-1.61466-.220965-4.39975-1.459989-5.553049-5.246089z"/><path d="m18.816045 47.369054c-.54398.290237-1.034246.634187-1.108316 1.394333.321128.465741.83486.642573 1.537341.536281.471206-.446433.983232-.852045 1.179821-1.573093 0 0-.929556-1.787606-.929556-1.573094 0 .214514.03574 1.179821.03574 1.179821z"/></g></g></svg>