<svg height="92" width="92" xmlns="http://www.w3.org/2000/svg"><g><g fill="#1f1a17"><path d="m13.989199 15.641367c18.11983 1.243935 24.352831 1.167951 31.186054 1.144068l-.172626 27.473524 1.73583-.05165.344799-27.421875c19.173975.132015 28.15541-.279246 33.950003-1.144068-24.298764-7.7778667-47.998604-7.9258167-67.04406-.000004z"/><path d="m52.066973 31.961959a25.142193 25.142193 0 0 1 25.140945 25.140942 25.142193 25.142193 0 0 1 -25.140945 25.144745 25.142193 25.142193 0 0 1 -25.144746-25.144745 25.142193 25.142193 0 0 1 25.144746-25.140942zm0 3.773043a21.370863 21.370863 0 0 0 -21.371703 21.367899 21.370863 21.370863 0 0 0 21.371703 21.371702 21.370863 21.370863 0 0 0 21.3717-21.371702 21.370863 21.370863 0 0 0 -21.3717-21.367899z"/><path d="m22.51145 51.100989c-1.650538-2.374982-3.078892-6.180273-4.532881-8.94833l-6.171257-.114285c-.858054 1.295204-1.202214 2.590407-.342856 3.885611l4.571313.342849c1.018516 3.410431 2.445126 6.004725 3.885619 8.571202l6.762978.252456c.162473-1.737886-.03502-1.205235.541247-3.917838-1.852524.07685-2.887973.03323-4.714163-.07167z"/><path d="m74.015891 18.547501c.05875 8.826014.398876 17.684535.172583 25.435004-7.196429-8.740187-9.000798-10.315785-21.165498-12.601314.399072-3.028659 7.686747-12.240528 12.144723-13.238178z"/><path d="m74.005261 55.007649c-.32796-2.844621-2.458503-8.300285-5.595101-12.694698-3.479685-4.875083-12.180807-6.95925-15.787014-6.881316-1.608361 3.770563-3.559302 8.714265-15.220197 9.946441 0 .946734-.09625 4.580949-.107955 6.002793-1.510629.100935-3.912225.177087-5.541376.07058-.297558 1.029926-.539078 3.076329-.491663 3.62771 13.777197.278992 29.126375.03756 42.743306-.0715z"/></g><path d="m39.64727 46.075555-1.358581.07151v4.719281l.929556-.858051z" fill="#fff"/><path d="m53.30458 35.778945c-.269264 1.573093-1.364562 3.146187-2.574153 4.71928 1.396176-1.252179 2.444164-2.430136 3.662577-4.748898z" fill="#fff"/><path d="m54.103393 30.954949c.424327-1.841922 3.447576-4.922893 4.778517-6.402169-.723648 1.681011-3.513653 4.851361-3.353513 6.709131z" fill="#fff"/><path d="m52.947058 54.630039 9.78022-17.236115" fill="none" stroke="#fff" stroke-width=".3"/><path d="m51.621689 54.727567-.202243-18.412159" stroke="#fff" stroke-width=".3"/><path d="m205.65854 46.250197-7.41812-7.953301 2.39221 10.609472-2.44764-10.596824-3.23301 10.384179 3.17869-10.400935-7.99196 7.376453 7.9533-7.418125-10.60947 2.392212 10.59682-2.447634-10.38418-3.233019 10.40094 3.178699-7.37646-7.991966 7.41813 7.953301-2.39221-10.609472 2.44763 10.596824 3.23302-10.384179-3.1787 10.400935 7.99197-7.376453-7.9533 7.418125 10.60947-2.392213-10.59683 2.447634 10.38418 3.233019-10.40093-3.178698z" fill="#1f1a17" stroke="#1f1a17" stroke-linecap="square" stroke-width=".5" transform="matrix(-1.9812984 .48346445 .48346445 1.9812984 426.59025 -114.38414)"/><path d="m54.235861 55.281292 17.089662-10.263909" fill="none" stroke="#fff" stroke-width=".3"/><path d="m50.512739 55.329313-6.439666-11.171469v.101115" fill="none" stroke="#fff" stroke-width=".3"/><path d="m47.865157 55.281292-11.325693-6.26958" fill="none" stroke="#fff" stroke-width=".3"/><path d="m20.865512 13.821165-5.308918 1.516834 6.219019.202245-3.842646-.353928z" fill="#fff"/><path d="m16.778182 46.333188c.786061 2.391097 1.598469 4.799757 3.503707 7.936971h1.215572c-1.028298-.05788-2.969856-4.453745-4.719279-7.936971z" fill="#fff"/><path d="m-48.574148 34.656781c-.95339 2.288135-1.295646 14.38162-1.295646 14.38162l10.543528 2.207363 8.485169-4.290254 4.385593 2.097457 15.06356-42.0444918-18.591102 4.2902548z" fill="#fff"/></g></svg>