<?xml version="1.0" encoding="UTF-8" standalone="no"?>
<svg
   width="177.17"
   height="177.17"
   shape-rendering="geometricPrecision"
   image-rendering="optimizeQuality"
   fill-rule="evenodd"
   clip-rule="evenodd"
   viewBox="0 0 50 50"
   version="1.1"
   id="svg1163"
   sodipodi:docname="bL.svg"
   inkscape:version="1.2.2 (b0a8486541, 2022-12-01)"
   xmlns:inkscape="http://www.inkscape.org/namespaces/inkscape"
   xmlns:sodipodi="http://sodipodi.sourceforge.net/DTD/sodipodi-0.dtd"
   xmlns:xlink="http://www.w3.org/1999/xlink"
   xmlns="http://www.w3.org/2000/svg"
   xmlns:svg="http://www.w3.org/2000/svg"
   xmlns:rdf="http://www.w3.org/1999/02/22-rdf-syntax-ns#"
   xmlns:cc="http://creativecommons.org/ns#"
   xmlns:dc="http://purl.org/dc/elements/1.1/">
  <metadata
     id="metadata1167">
    <rdf:RDF>
      <cc:Work
         rdf:about="">
        <dc:format>image/svg+xml</dc:format>
        <dc:type
           rdf:resource="http://purl.org/dc/dcmitype/StillImage" />
      </cc:Work>
    </rdf:RDF>
  </metadata>
  <sodipodi:namedview
     pagecolor="#ffffff"
     bordercolor="#666666"
     borderopacity="1"
     objecttolerance="10"
     gridtolerance="10"
     guidetolerance="10"
     inkscape:pageopacity="0"
     inkscape:pageshadow="2"
     inkscape:window-width="3840"
     inkscape:window-height="2036"
     id="namedview1165"
     showgrid="false"
     inkscape:zoom="1.7261595"
     inkscape:cx="-229.70067"
     inkscape:cy="339.19229"
     inkscape:window-x="3828"
     inkscape:window-y="-12"
     inkscape:window-maximized="1"
     inkscape:current-layer="svg1163"
     inkscape:showpageshadow="2"
     inkscape:pagecheckerboard="0"
     inkscape:deskcolor="#d1d1d1" />
  <defs
     id="defs1157">
    <linearGradient
       id="linearGradient6441"
       inkscape:collect="always">
      <stop
         id="stop6437"
         offset="0"
         style="stop-color:#ffd42a;stop-opacity:1" />
      <stop
         id="stop6439"
         offset="1"
         style="stop-color:#806600;stop-opacity:1" />
    </linearGradient>
    <linearGradient
       inkscape:collect="always"
       xlink:href="#linearGradient6441"
       id="linearGradient6427"
       x1="54.37993"
       y1="27.899749"
       x2="92.036465"
       y2="27.899749"
       gradientUnits="userSpaceOnUse"
       gradientTransform="matrix(0.87446347,0,0,1.0645027,-38.025884,-8.5072976)" />
    <linearGradient
       inkscape:collect="always"
       xlink:href="#linearGradient6441"
       id="linearGradient6435"
       x1="10.49754"
       y1="18.40962"
       x2="45.079731"
       y2="18.40962"
       gradientUnits="userSpaceOnUse" />
  </defs>
  <path
     sodipodi:nodetypes="ccccc"
     id="path3973"
     d="m 27.662958,38.197427 12.08761,0.627774 C 33.179675,33.097456 25.711114,16.636708 26.025297,2.4498969 25.76734,16.665436 19.098237,33.206539 12.361928,38.788102 l 12.040926,-0.639157"
     style="fill:url(#linearGradient6427);fill-opacity:1;stroke:#1f1a17;stroke-width:1.80251;stroke-linecap:butt;stroke-linejoin:miter;stroke-miterlimit:4;stroke-dasharray:none;stroke-opacity:1"
     inkscape:connector-curvature="0" />
  <path
     id="path10325"
     d="m 24.402873,38.148912 -0.0091,8.737181 c 0.800218,-0.03892 2.474914,-0.01348 3.210687,0.004 L 27.663,38.197382 c -1.05461,-0.09638 -2.128838,-0.143722 -3.260085,-0.04852 z"
     style="fill:#1f1a17;fill-opacity:1;stroke:#1f1a17;stroke-width:1.75654;stroke-linecap:square;stroke-linejoin:miter;stroke-miterlimit:4;stroke-dasharray:none;stroke-opacity:1"
     inkscape:connector-curvature="0"
     sodipodi:nodetypes="ccccc" />
  <path
     style="color:#000000;fill:url(#linearGradient6435);stroke-width:1.80251;stroke-linecap:square;-inkscape-stroke:none;paint-order:markers fill stroke"
     d="M 26.025297,3.3747524 C 22.079635,9.011651 15.019756,13.407269 16.093167,20.95623 19.579066,32.277372 34.070023,30.953274 42.78623,33.207337 l -3.433417,-2.439104 3.956282,-0.139806 C 37.958313,26.760195 25.468994,30.180937 20.535525,19.649065 18.399613,13.309671 24.076279,8.737338 26.025297,3.3747524 Z"
     id="path3014" />
  <path
     style="color:#000000;fill:#1f1a17;stroke-linecap:square;-inkscape-stroke:none;paint-order:markers fill stroke"
     d="m 25.184926,2.428253 c -1.891129,2.7017273 -4.528081,5.6331451 -6.720082,8.468231 -2.192001,2.835087 -3.842577,6.116242 -3.263672,10.1875 l 0.0098,0.07031 0.02148,0.06641 c 1.849215,6.005689 6.729899,8.730395 12.015625,10.132813 5.938574,1.005515 12.499961,2.841294 18.043178,2.688632 l -1.982631,-1.569496 -1.265625,-0.898437 3.921875,-0.138672 -2.126953,-1.53711 C 40.790475,27.695375 36.255369,27.677629 31.955078,26.755859 27.66897,25.83713 23.708962,24.237533 21.378906,19.308594 20.437055,16.454211 21.204415,14.069261 22.542969,11.570313 23.890042,9.0554589 25.830675,6.5496537 26.873047,3.6816406 Z m -4.245473,8.333466 c -1.433358,2.687406 -2.41829,5.731479 -1.257812,9.175781 l 0.01563,0.04687 0.02148,0.04687 c 2.60656,5.564433 7.341999,7.520398 11.857422,8.488281 2.605022,0.558388 4.490401,0.259846 10.465905,1.769859 l -3.850129,0.07617 2.363281,1.677735 C 36.857842,31.448909 31.381142,30.585631 27.708984,29.611328 22.721286,28.287984 18.635816,26.018177 16.984375,20.753906 16.521704,17.314952 17.850464,14.6387 19.890625,12 c 0.313862,-0.405942 0.707048,-0.837099 1.048828,-1.238281 z"
     id="path3016"
     sodipodi:nodetypes="cscccccccccscsccccccscccscsc" />
</svg>
