<svg clip-rule="evenodd" fill-rule="evenodd" height="177.17" image-rendering="optimizeQuality" shape-rendering="geometricPrecision" viewBox="0 0 50 50" width="177.17" xmlns="http://www.w3.org/2000/svg" xmlns:xlink="http://www.w3.org/1999/xlink"><linearGradient id="a" gradientUnits="userSpaceOnUse" x1="12.2995" x2="37.700501" y1="26.6915" y2="26.6915"><stop offset="0" stop-color="#ffd42a"/><stop offset="1" stop-color="#806600"/></linearGradient><g stroke="#000"><path d="m19.442507 7.8408318c-.867131.686147-2.566101 2.1814842-2.221891 5.1013632.367994 3.121627.646105 4.226759.581517 6.897176-.112019 1.056746-.168667 1.996786-.168667 2.447883 0 1.721999.205607 3.105748 1.738606 4.152747 1.108999.412 1.66789 1.046045 1.66789 1.879044 0 1.078999-.06689 1.118039-1.66789 1.739039-2.243998.963999-3.516328 2.47199-4.938327 4.515988s-2.13425 4.318034-2.13425 6.831032c0 1.194999.177744 2.324115.524744 3.403114h12.175475.000551 12.175475c.347-1.153999.524743-2.291115.524743-3.403114 0-2.512998-.710968-4.787034-2.141966-6.831032-1.430999-2.043998-2.712925-3.551989-4.955923-4.515988-1.583998-.62-1.642578-.65904-1.642578-1.739039 0-.848999.558935-1.475044 1.667934-1.879044 1.531998-1.046999 1.738563-2.430748 1.738563-4.152747 0-.550469-.08516-1.824623-.253553-3.155073-.0028-2.187318.257505-3.357273.591439-6.189986.34421-2.919879-1.354209-4.4152162-2.22134-5.1013632-.01517 2.9561932-.82351 3.1706642-1.164136 6.0698232-.426764-.180572-.881201-.300805-1.363671-.359383-2.282199-.433267-3.178698-.406505-5.909975 0-.510938.06118-.989158.189907-1.435327.384187-.338894-2.923004-1.152231-3.129946-1.167443-6.0946272z" fill="url(#a)" stroke-width="1.69329"/><g stroke-width=".282215" transform="translate(.008914 -.112358)"><path d="m17.640217 18.539741c2.257346.468128 3.520743 1.270983 5.205923 4.494322 0 0-.429497-4.021575-2.434425-5.093565-.831625-.444651-2.808951-.337074-2.808951-.337074"/><path d="m32.341956 18.539741c-2.257346.468128-3.520743 1.270983-5.205923 4.494322 0 0 .429497-4.021575 2.434425-5.093565.831625-.444651 2.808951-.337074 2.808951-.337074"/></g><path d="m21.182708 28.539609c0 .149811-.449432 2.92131-.711601 3.520553-.188097.429935 1.310844 2.471878 1.310844 2.471878s2.127298.529661 3.212632.529661 3.212633-.529661 3.212633-.529661 1.498941-2.041943 1.310844-2.471878c-.262169-.599243-.711601-3.370742-.711601-3.520553" fill="none" stroke-width="1.41107"/></g></svg>