<svg clip-rule="evenodd" fill-rule="evenodd" height="177.17" image-rendering="optimizeQuality" shape-rendering="geometricPrecision" viewBox="0 0 50 50" width="177.17" xmlns="http://www.w3.org/2000/svg" xmlns:xlink="http://www.w3.org/1999/xlink"><linearGradient id="a"><stop offset="0" stop-color="#fdd229"/><stop offset="1" stop-color="#967907"/></linearGradient><linearGradient id="b" gradientUnits="userSpaceOnUse" x1="11.014235" x2="37.443962" xlink:href="#a" y1="41.091171" y2="41.091171"/><linearGradient id="c" gradientUnits="userSpaceOnUse" x1="13.671831" x2="34.795879" xlink:href="#a" y1="23.272196" y2="23.272196"/><g stroke-width="1.35655" transform="matrix(1.3295304 0 0 1.1718967 -7.213322 -8.0427)"><g stroke="#1f1a17" stroke-width="1.35655"><g transform="translate(.008287)"><path d="m33.903645 9.4298282-.110647 10.6117488-2.951233-3.265045" fill="#a3840b"/><path d="m14.54749 9.4298282.110647 10.6117488 2.951233-3.265045" fill="#f3c926"/></g><path d="m17.887314 36.853101c.486942-5.566566 2.119579-13.941705.981795-17.574077l-3.992611-9.4579289c3.12344-.4647356 6.800919-.4581709 9.357363-.4581709 2.55643 0 6.233909-.00655 9.357348.4581709l-3.992611 9.4579289c-1.137783 3.632372.494854 12.007511.981796 17.574077l-6.346533.327267z" fill="url(#c)"/><path d="m36.597317 44.903799c0-4.753107-2.076517-7.626581-3.501729-8.574321-.565137 0-7.543886.818162-8.866482.818162-1.322613 0-8.312668-.818162-8.866498-.818162-1.425212.94774-3.501729 3.821214-3.501729 8.574321 0 .218946 10.335651.949064 12.368227.949064 2.03256 0 12.368211-.730118 12.368211-.949064z" fill="url(#b)"/><ellipse cx="24.233854" cy="17.919075" fill="#cba719" opacity=".98" rx="2.485549" ry="4.104046" stroke-linecap="round" stroke-linejoin="round"/></g><ellipse cx="24.233854" cy="24.004627" fill="#1f1a17" opacity=".98" rx="3.351604" ry="1.38969"/><path d="m21.344137 36.90013 2.844592-4.926977 2.941084 4.926999" fill="none" stroke="#1f1a17" stroke-width=".90437"/></g></svg>