<?xml version="1.0" encoding="UTF-8" standalone="no"?>
<svg
   xmlns:dc="http://purl.org/dc/elements/1.1/"
   xmlns:cc="http://creativecommons.org/ns#"
   xmlns:rdf="http://www.w3.org/1999/02/22-rdf-syntax-ns#"
   xmlns:svg="http://www.w3.org/2000/svg"
   xmlns="http://www.w3.org/2000/svg"
   xmlns:xlink="http://www.w3.org/1999/xlink"
   xmlns:sodipodi="http://sodipodi.sourceforge.net/DTD/sodipodi-0.dtd"
   xmlns:inkscape="http://www.inkscape.org/namespaces/inkscape"
   inkscape:version="1.0.1 (3bc2e813f5, 2020-09-07)"
   sodipodi:docname="wF.svg"
   id="svg12863"
   version="1.1"
   viewBox="0 0 50 50"
   clip-rule="evenodd"
   fill-rule="evenodd"
   image-rendering="optimizeQuality"
   shape-rendering="geometricPrecision"
   height="177.17"
   width="177.17">
  <metadata
     id="metadata12867">
    <rdf:RDF>
      <cc:Work
         rdf:about="">
        <dc:format>image/svg+xml</dc:format>
        <dc:type
           rdf:resource="http://purl.org/dc/dcmitype/StillImage" />
        <dc:title></dc:title>
      </cc:Work>
    </rdf:RDF>
  </metadata>
  <sodipodi:namedview
     inkscape:document-rotation="0"
     inkscape:current-layer="svg12863"
     inkscape:window-maximized="1"
     inkscape:window-y="-12"
     inkscape:window-x="3828"
     inkscape:cy="47.972149"
     inkscape:cx="3.4705893"
     inkscape:zoom="4.8917946"
     showguides="false"
     showgrid="false"
     id="namedview12865"
     inkscape:window-height="2050"
     inkscape:window-width="3840"
     inkscape:pageshadow="2"
     inkscape:pageopacity="0"
     guidetolerance="10"
     gridtolerance="10"
     objecttolerance="10"
     borderopacity="1"
     bordercolor="#666666"
     pagecolor="#ffffff" />
  <defs
     id="defs12857">
    <linearGradient
       inkscape:collect="always"
       id="linearGradient5063">
      <stop
         id="stop5059"
         offset="0"
         style="stop-color:#acaaa9;stop-opacity:1" />
      <stop
         id="stop5061"
         offset="1"
         style="stop-color:#ffffff;stop-opacity:1" />
    </linearGradient>
    <linearGradient
       inkscape:collect="always"
       id="linearGradient5057">
      <stop
         id="stop5053"
         offset="0"
         style="stop-color:#aba9a8;stop-opacity:1" />
      <stop
         id="stop5055"
         offset="1"
         style="stop-color:#ffffff;stop-opacity:1" />
    </linearGradient>
    <linearGradient
       gradientUnits="userSpaceOnUse"
       x2="77.64"
       x1="21.405"
       id="0">
      <stop
         id="stop12852"
         stop-color="#fff" />
      <stop
         id="stop12854"
         stop-opacity="0"
         stop-color="#fff"
         offset="1" />
    </linearGradient>
    <linearGradient
       gradientUnits="userSpaceOnUse"
       y2="50.986557"
       x2="76.485931"
       y1="50.986557"
       x1="108.87874"
       id="linearGradient13468"
       xlink:href="#linearGradient5063"
       inkscape:collect="always" />
    <clipPath
       id="clipPath5191"
       clipPathUnits="userSpaceOnUse">
      <rect
         clip-path="none"
         y="4.0289068"
         x="7.2068729"
         height="15.671"
         width="35.162529"
         id="rect5193"
         style="opacity:1;fill:#d40000;fill-opacity:1;stroke:#000000;stroke-width:0.2045171;stroke-linecap:square;stroke-linejoin:miter;stroke-miterlimit:4;stroke-dasharray:none;stroke-opacity:1;paint-order:normal" />
    </clipPath>
    <linearGradient
       gradientUnits="userSpaceOnUse"
       x2="77.639999"
       x1="21.375999"
       id="0-2">
      <stop
         id="stop4571"
         stop-color="#fff" />
      <stop
         id="stop4573"
         stop-opacity="0"
         stop-color="#fff"
         offset="1" />
    </linearGradient>
    <linearGradient
       id="0-1"
       x1="21.253"
       y1="37.220001"
       x2="77.639999"
       y2="37.349998"
       gradientUnits="userSpaceOnUse"
       xlink:href="#linearGradient9464">
      <stop
         stop-color="#fff"
         id="stop7734"
         style="stop-color:#f3c926;stop-opacity:1" />
      <stop
         offset="1"
         stop-color="#fff"
         stop-opacity="0"
         id="stop7736" />
    </linearGradient>
    <linearGradient
       inkscape:collect="always"
       id="linearGradient9464">
      <stop
         id="stop9462"
         offset="0"
         style="stop-color:#806600;stop-opacity:1" />
      <stop
         id="stop9460"
         offset="1"
         style="stop-color:#ffd42a;stop-opacity:1" />
    </linearGradient>
    <linearGradient
       inkscape:collect="always"
       xlink:href="#linearGradient5057"
       id="linearGradient4312"
       gradientUnits="userSpaceOnUse"
       x1="46.827538"
       y1="30.582041"
       x2="15.044764"
       y2="30.582041" />
    <linearGradient
       id="0-6"
       x1="21.405001"
       x2="77.639999"
       gradientUnits="userSpaceOnUse"
       gradientTransform="translate(-45.398691,6.7749784)">
      <stop
         stop-color="#fff"
         id="stop3197" />
      <stop
         offset="1"
         stop-color="#fff"
         stop-opacity="0"
         id="stop3199" />
    </linearGradient>
  </defs>
  <g
     id="g4280"
     transform="matrix(0.95,0,0,0.95,-3.2231024,5.1122633)">
    <g
       id="g4271">
      <g
         transform="matrix(1.0539134,0,0,1.1187798,-70.902198,-28.281003)"
         id="g13475">
        <path
           style="fill:url(#linearGradient13468);fill-opacity:1;stroke:#1f1a17;stroke-width:1.64146905;stroke-linecap:butt;stroke-linejoin:miter;stroke-miterlimit:4;stroke-dasharray:none;stroke-opacity:1"
           d="m 83.48437,34.510421 -2.807689,1.29893 c -5.036406,2.493839 -4.688633,6.478605 -2.656466,10.643625 2.890994,-2.910018 2.894969,-2.7871 4.179768,-2.209127 10.093294,4.540519 3.837991,15.425587 -1.017247,19.046593 l 28.254024,0.04272 C 110.0094,46.435659 108.3116,35.260707 95.504357,31.573276 92.79365,31.513132 90.012856,31.228707 87.639293,32.247423 Z"
           id="path13430"
           inkscape:connector-curvature="0"
           sodipodi:nodetypes="cccsccccc" />
        <path
           style="fill:none;stroke:#1f1a17;stroke-width:1.64146905;stroke-linecap:butt;stroke-linejoin:miter;stroke-miterlimit:4;stroke-dasharray:none;stroke-opacity:1"
           d="m 86.401473,41.991253 c -3.845439,-1.767948 -6.703035,-0.478315 -8.381258,4.461723"
           id="path13432"
           inkscape:connector-curvature="0"
           sodipodi:nodetypes="cc" />
        <path
           style="fill:none;stroke:#1f1a17;stroke-width:1.36789087;stroke-linecap:butt;stroke-linejoin:miter;stroke-miterlimit:4;stroke-dasharray:none;stroke-opacity:1"
           d="m 82.329668,35.294603 c -0.02515,1.008854 1.264647,1.659363 1.886432,1.834634"
           id="path13434"
           inkscape:connector-curvature="0"
           sodipodi:nodetypes="cc" />
      </g>
      <path
         style="fill:url(#linearGradient4312);fill-opacity:1;stroke:#1f1a17;stroke-width:1.78240942;stroke-linecap:butt;stroke-linejoin:miter;stroke-miterlimit:4;stroke-dasharray:none;stroke-opacity:1"
         d="m 33.789337,42.534975 c -0.318763,-0.159305 -9.486991,-7.01742 -9.341584,-13.573779 0.09201,-4.145333 3.022365,-9.139035 7.009836,-10.275804 3.406805,-0.971228 5.468221,1.913867 8.085239,4.301499 6.287228,5.736117 11.412662,19.667566 11.412662,19.667566 z"
         id="path888"
         sodipodi:nodetypes="cssscc" />
    </g>
    <path
       style="fill:#000000;stroke-width:1.09394"
       d="m 23.052843,12.885226 c -0.37531,0.243111 -0.560777,0.360877 -0.560777,0.360877 -0.457671,0.366086 -0.886208,0.311934 -1.293801,-0.148233 -0.358499,-0.453304 -0.310219,-0.906689 0.160023,-1.351416 1.738535,-1.455652 3.715422,-2.0157873 5.923483,-1.683287 0.578021,0.184668 0.824333,0.571931 0.734819,1.173305 -0.129709,0.576911 -0.488689,0.809238 -1.090453,0.685392 -0.338707,-0.02376 -0.566734,-0.03794 -0.675382,-0.01604 0.03469,0.254977 7.41e-4,0.534749 -0.113394,0.844016 -0.399911,1.044916 -1.139469,1.3632 -2.230806,0.936489 -0.372741,-0.15078 -0.654989,-0.421107 -0.851664,-0.802453"
       id="path3879"
       inkscape:connector-curvature="0" />
  </g>
  <path
     fill="url(#0)"
     d="m -2.4226917,51.46798 c -0.01699,0 0,-0.449001 0.042,-1.346001 0.051,-0.906 0.076,-1.879999 0.076,-2.920999 0.01699,-2.066002 0.01699,-4.2 0,-6.409 -0.01699,-2.210001 -0.313001,-4.411001 -0.889002,-6.613001 -0.566997,-2.117 -1.185,-3.92 -1.862998,-5.419 -0.677,-1.499 -1.414001,-2.786 -2.209999,-3.878 -1.185001,-1.786 -2.8110013,-3.302 -4.8600023,-4.538 -2.049,-1.245 -4.191,-2.057001 -6.426,-2.438001 0.152,0.813001 0.22,1.609 0.203,2.388001 -0.034,0.593 -0.313,0.888999 -0.847,0.888999 -0.61,0 -0.881,-0.295999 -0.821,-0.888999 0.051,-2.184001 -0.728,-4.056001 -2.328,-5.605 -1.252998,1.320999 -1.938998,2.852999 -2.031998,4.605999 -0.034,0.584001 -0.33,0.838 -0.897,0.771 -0.525,-0.017 -0.787,-0.321999 -0.787,-0.914 0,0 0.017,-0.068 0.042,-0.202999 -0.677,0.22 -1.389,0.525 -2.134,0.922999 -0.474,0.330001 -0.864,0.245001 -1.16,-0.246 -0.296,-0.499 -0.169,-0.889 0.398,-1.168 0.711,-0.363999 1.245,-0.635 1.609,-0.821 -1.422,-1.456 -3.04,-2.625 -4.86,-3.522 0.195,2.303 0.83,4.47 1.888,6.528 0.279,0.423 0.212,0.804001 -0.203,1.135001 -0.466,0.364 -0.855,0.313 -1.168,-0.169 -0.11,-0.169001 -0.278999,-0.466001 -0.490999,-0.897 -0.347001,0.347 -0.584001,0.61 -0.694001,0.77 -0.118,0.152 -0.322,0.483 -0.61,0.991 -0.288,0.516 -0.498999,0.94 -0.635,1.27 -0.143999,0.415 -0.212,0.745 -0.186,1.01 0.025,0.254 0.051,0.533 0.068,0.855 -0.152,0.974 -0.490999,1.888 -1.01,2.752 -0.525,0.855 -1.185,1.905 -1.998,3.15 -0.779,1.185 -1.372,2.083 -1.786,2.675 -0.415,0.601 -0.728,1.355 -0.94,2.286 -0.152,0.559 -0.152,1.245 0,2.041 0.144,0.804 0.474,1.431 0.965,1.880001 0.762,0.77 1.499,1.126 2.21,1.067 0.229,0 0.542,-0.093 0.931,-0.279 0.389,-0.178001 0.686,-0.525001 0.906,-1.041 0.423,-0.940001 0.779,-1.414001 1.067,-1.414001 0.406,0 0.635,0.237 0.669001,0.694 0,0.102 -0.136001,0.517001 -0.398001,1.244999 -0.151999,0.33 -0.346999,0.677 -0.593,1.041001 -0.322,0.432 -0.457,0.610001 -0.423,0.541999 0.262,0.948002 0.703,1.109002 1.312,0.499001 0.178,-0.177999 0.389,-0.524999 0.618,-1.015999 0.237001,-0.499001 0.601,-1.168 1.092,-2.010001 0.584,-0.982 1.202,-1.77 1.863,-2.388 0.66,-0.61 1.245,-1.109 1.761,-1.482 0.296,-0.22 0.66,-0.466 1.092,-0.745 0.432,-0.288 1.01,-0.576 1.736,-0.872 0.576,-0.229 1.219,-0.516 1.922,-0.855 0.703,-0.339 1.329,-0.77 1.871,-1.304 0.762,-0.745 1.346,-1.659 1.761,-2.752 0.22,-0.61 0.296,-1.363 0.245,-2.261 -0.144,-0.559 0.136,-0.838 0.847,-0.838 0.533,0 0.83,0.271 0.898,0.821 0,1.863 -0.533,3.564 -1.592,5.105 0.347,1.058 0.44,2.218 0.271,3.471 -0.144,1.01 -0.5,2.091 -1.05,3.243 -0.559,1.143001 -1.676,2.421999 -3.361,3.827 -3.429,2.844999 -5.05,5.773999 -4.86,8.779999 0,0 1.405,0 4.225,0 2.819,0 5.47,0 7.95,0 H -2.4246897 M -36.062691,36.389979 c -0.483,0.296 -0.77,0.694 -0.872,1.194 0.017,0.542 -0.237,0.838 -0.762,0.889 -0.584,0.068 -0.881,-0.178 -0.898,-0.745 0.068,-1.092 0.55,-1.956 1.465,-2.599 0.432,-0.347 0.83,-0.322 1.194,0.093 0.364,0.449 0.322001,0.838 -0.127,1.168 m 7.366,-11.828 c 0.212,0.33 0.296,0.677 0.246,1.041 -0.161,1.058 -0.754,1.499 -1.761,1.338 -0.296,-0.051 -0.533,-0.152 -0.72,-0.296 -0.059,0.076 -0.161,0.262 -0.296,0.542 -0.178,0.533 -0.525,0.711 -1.040999,0.55 -0.508001,-0.203 -0.711001,-0.576 -0.593001,-1.118 0.745,-1.905 2.091,-3.209 4.04,-3.92 0.567,-0.169 0.94,0 1.118,0.491 0.203,0.533 0.051,0.898 -0.449,1.092 -0.093,0.051 -0.186,0.102 -0.271,0.136 -0.085,0.042 -0.169,0.093 -0.271,0.144"
     id="path3206"
     style="fill:url(#0-6);stroke-width:1" />
</svg>
