<svg clip-rule="evenodd" fill-rule="evenodd" height="177.17" image-rendering="optimizeQuality" shape-rendering="geometricPrecision" viewBox="0 0 50 50" width="177.17" xmlns="http://www.w3.org/2000/svg" xmlns:xlink="http://www.w3.org/1999/xlink"><linearGradient id="a" gradientTransform="translate(-91.535601 53.38202)" gradientUnits="userSpaceOnUse" x1="21.129999" x2="77.760002" y1="37.220001" y2="37.469002"><stop offset="0" stop-color="#a8a6a5"/><stop offset="1" stop-color="#fff"/></linearGradient><linearGradient id="b" gradientTransform="matrix(1.227182 0 0 1 6.239682 0)" gradientUnits="userSpaceOnUse" x1="-26.933693" x2="-2.040822" xlink:href="#a" y1="21.96928" y2="21.96928"/><linearGradient id="c" gradientTransform="matrix(1.227182 0 0 1 6.239682 0)" gradientUnits="userSpaceOnUse" x1="-28.773029" x2="-8.917194" xlink:href="#a" y1="38.406345" y2="38.406345"/><g transform="matrix(-.96182046 0 0 .96182046 8.253766 .667519)"><g stroke="#1f1a17" stroke-width="1.760504"><path d="m-31.592124 6.3457679c-1.458538.1022853-5.016639.5371741-5.761496 5.9565311-1.199278 8.725573 4.610808 17.002034 4.781394 19.877106.139634 2.353402-1.928348 3.32362-3.085272 4.592079 1.560799.348934 3.647075-.262081 4.682444-1.732724 3.351425-4.760378-2.196524-17.962753 2.93099-22.368193 3.181729-2.142439 5.851793 1.826897 8.039693 3.517832 1.19366-.906392 1.937638-1.364382 4.181322-2.476553.111803-1.388371-.367275-4.2808097-.805516-5.6691807-1.090544-2.4425791-1.643949-5.736564-6.951213-6.4245228-3.332662-.4319993-6.254338 1.1989283-8.012346 4.7276254z" fill="#1f1a17"/><path d="m-15.823049 13.711846c-8.997651 4.748722-10.294025 10.611865-9.891404 15.850565 3.314919-1.802247 7.136138-3.309793 12.210443-4.087981 3.849297-.421056 7.6985789.138342 11.5478747 1.774029 1.4513528.08704 2.66609372-.02612 4.1174608-.347092.5935041-.385658.5320641-.462791.5206033-.848449l-2.17704341-1.118409c-.47615336-.347733-1.43388875-.703171-2.00434209-1.675206-2.2895973-3.901262-6.8801946-9.825204-14.3235923-9.547457z" fill="url(#b)"/><path d="m-5.862521 28.66832c-6.453398-1.095624-11.717056-1.134415-19.142026 3.323739-.607376 5.658152.503341 12.783015-2.46102 16.429054 8.149139 2.316799 10.952144-5.291775 13.177184-9.468747-.366601 1.801082.03781 6.276083-.888673 7.894674 4.88054-2.125081 6.5576477-3.338155 9.434731-5.714874z" fill="url(#c)"/></g><path d="m-23.280969 20.567084c1.960068-.03261 2.474093-.223384 4.338377 1.196086 1.120815-1.850733 2.040864-3.279017 5.087595-3.8089 2.413606.143974 4.5851943.659885 6.2322653 2.25651.4650694-.372054.5230481-.621188 1.7555839-1.785889.4002731.347093 1.1222808 1.061443 1.3356333 1.408535-1.2872137 1.279277-1.4176759 1.630791-2.4933347 2.902828-2.1180703-1.10937-2.8238985-2.32558-6.5631338-3.046883-2.515982.882429-3.36337 2.798476-4.731566 4.550953-2.430959-1.320888-4.274488-2.621436-6.080721-1.5812.239846-.730923.753728-1.497291 1.119301-2.09204z" fill="#1f1a17"/></g></svg>