<svg clip-rule="evenodd" fill-rule="evenodd" height="177.17" image-rendering="optimizeQuality" shape-rendering="geometricPrecision" viewBox="0 0 50 50" width="177.17" xmlns="http://www.w3.org/2000/svg" xmlns:xlink="http://www.w3.org/1999/xlink"><linearGradient id="a" gradientUnits="userSpaceOnUse" x1="10.028425" x2="39.971549" y1="19.383459" y2="19.383459"><stop offset="0" stop-color="#f9f9f9"/><stop offset="1" stop-color="#ccc"/></linearGradient><linearGradient id="b" gradientUnits="userSpaceOnUse" x1="293.16513" x2="338.07141" y1="92.385574" y2="92.385574"><stop offset="0" stop-color="#ffd42a"/><stop offset="1" stop-color="#806600"/></linearGradient><linearGradient id="c" gradientUnits="userSpaceOnUse" x1="293.16513" x2="338.07141" y1="92.385574" y2="92.385574"><stop offset="0" stop-color="#f9f9f9"/><stop offset="1" stop-color="#e6e6e6"/></linearGradient><g stroke="#1f1a17"><g fill="url(#b)" stroke-width="1.563152" transform="matrix(1.0832527 0 0 1.0832527 -316.89434 -75.076923)"><path d="m303.60166 106.86928c7.66719 2.10131 16.51137 1.72857 23.51399-.35626l-4.92817-18.880256c-4.60008.196956-9.92512.484373-13.3113.03659z" fill="#1f1a17" stroke-width="1.563152"/><path d="m275.14129 184.72989c-31.24732 1.17794-103.11612 38.83736-112.63041 62.19185-42.3113 103.86038-85.58046 199.79956-199.829859 294.42238 11.908253 16.00162 83.420666 6.52866 141.407899 62.88268 17.88418-18.602 69.1607-234.69942 84.21766-286.09297.25562-.8725 75.10128 17.56897 85.99865 15.88871 10.87787 1.8022 85.92538-15.79984 86.17121-14.92454 14.48042 51.55897 63.33345 268.21712 81.00817 287.01826 58.61475-55.70104 130.01658-45.42774 142.10331-61.29498-113.18247-95.89647-155.37441-192.31424-196.51983-296.64199-9.25213-23.45958-80.69463-61.92156-111.9268-63.4494z" fill="url(#c)" stroke-width="20.987764" transform="matrix(.06852995 0 0 .08094496 296.89962 61.263195)"/><path d="m313.70114 76.659247c.72602-1.679766 1.16307-2.973341 2.14455-2.989719 1.017-.01697 1.58408 1.476492 2.11082 3.021922-.83846.823049-3.69262.786403-4.25537-.0322z" fill="#d8d8d8" stroke-width="1.563152"/></g><rect fill="url(#a)" height="14.235797" ry="5.804887" stroke-linecap="square" stroke-width="1.693289" width="27.918745" x="11.040617" y="12.265562"/></g></svg>