<svg xmlns="http://www.w3.org/2000/svg" viewBox="0 -0.5 49 49" shape-rendering="crispEdges">
<metadata>Made with Pixels to Svg https://codepen.io/shshaw/pen/XbxvNj</metadata>
<path stroke="#000000" d="M24 3h2M23 4h4M22 5h6M21 6h3M26 6h3M20 7h3M27 7h3M12 8h10M28 8h10M12 9h9M29 9h9M12 10h2M36 10h2M12 11h2M36 11h2M12 12h2M36 12h2M12 13h2M25 13h1M36 13h2M12 14h2M24 14h2M36 14h2M12 15h2M23 15h4M36 15h2M11 16h3M22 16h2M26 16h1M36 16h3M10 17h3M20 17h3M26 17h3M37 17h3M9 18h3M19 18h2M28 18h2M38 18h3M8 19h3M17 19h3M29 19h3M39 19h3M7 20h3M17 20h1M21 20h2M30 20h3M40 20h3M7 21h3M15 21h3M20 21h3M31 21h3M40 21h3M8 22h3M13 22h3M32 22h3M39 22h3M9 23h6M33 23h2M38 23h3M10 24h3M33 24h3M37 24h3M9 25h3M34 25h5M9 26h1M12 26h1M28 26h1M34 26h4M9 27h1M12 27h1M27 27h1M34 27h4M9 28h1M11 28h1M27 28h1M35 28h3M9 29h4M25 29h2M35 29h3M9 30h1M12 30h2M16 30h10M35 30h3M11 31h3M15 31h3M21 31h2M35 31h3M11 32h12M35 32h3M12 33h10M35 33h3M14 34h1M18 34h3M35 34h2M17 35h3M35 35h2M16 36h2M35 36h2M15 37h2M34 37h3M14 38h2M34 38h3M13 39h3M34 39h3M12 40h3M34 40h4M12 41h2M35 41h3M11 42h2M35 42h4M11 43h28M11 44h28" />
<path stroke="#5984bd" d="M24 6h2M23 7h4M22 8h6M21 9h8M14 10h22M14 11h22M14 12h22M14 13h11M26 13h10M14 14h10M26 14h10M14 15h9M27 15h9M14 16h8M24 16h2M27 16h9M13 17h7M23 17h3M29 17h8M12 18h7M21 18h7M30 18h8M11 19h6M20 19h9M32 19h7M10 20h7M18 20h3M23 20h7M33 20h7M10 21h5M18 21h2M23 21h8M34 21h6M11 22h2M16 22h16M35 22h4M15 23h18M35 23h3M13 24h20M36 24h1M12 25h22M10 26h2M13 26h15M29 26h5M10 27h2M13 27h14M28 27h6M10 28h1M12 28h15M28 28h7M13 29h12M27 29h8M14 30h2M26 30h9M14 31h1M18 31h3M23 31h12M23 32h12M22 33h13M21 34h14M20 35h15M18 36h17M17 37h17M16 38h18M16 39h18M15 40h19M14 41h21M13 42h22" />
</svg>