<svg viewBox="0 0 2048 2048" xmlns="http://www.w3.org/2000/svg"><g stroke="#000"><path d="m225.62711 919.86443s91.65129-53.76337 138.84746-78.10169c48.30356-24.90938 100.52919-42.12783 147.52542-69.42373 56.55777-32.84935 103.13457-81.47339 160.54237-112.81355 37.01125-20.20524 75.82248-39.36756 117.15254-47.72881 57.41755-11.61583 119.56435 14.48153 175.7288-2.1695 40.2015-11.91851 106.3051-67.25423 106.3051-67.25423l117.1525-34.71187 182.2373-26.03389 117.1526-8.67797-13.017 86.77966-43.3898 91.11864-52.0678 56.40678-65.0848 47.72881-15.1864 43.38983 158.3729-121.49152 91.1186 47.72881 91.1187 47.72881c56.4068 36.88136 72.5556 43.9801 102.9285 65.67502 67.583 55.07123 89.3849 93.69681 107.9483 137.88496 30.0159 127.77631 9.5227 479.31941 3.286 843.18771l-458.2361-2.3237s-73.3856-37.0287-162.2119-119.9123c-27.938-26.0688-93.5343-69.4081-127.4097-87.088-69.697-36.3754-105.4253-37.4695-160.54242-43.3898-28.79704-3.0932-61.10631-2.302-89.84778 1.2709-29.27409 3.6391-57.42963 7.0271-83.71154 20.424-22.79725 11.6206-42.13623 30.8286-56.40677 52.0678-19.5478 29.0935-24.94915 62.9152-24.94915 62.9152l11.9322 88.9492-92.20339-55.322c-26.39548-19.1638-50.62147-42.6667-75.9322-73.7627-20.97175-22.0565-32.18079-39.774-46.64407-66.1695-12.29378-27.8419-29.75664-42.0251-28.20339-119.3221l2.16949-49.8983 28.20339-65.0847 21.69492 41.2204c23.40893 30.1051 60.74576 31.096 95.45762 43.3898 40.49718 1.4463 80.99435 9.4011 128-6.5085 32.54237-25.3107 43.38983-52.791 45.55932-78.1017.72316-38.3277-7.60386-58.664-15.18644-80.2712-9.77335-24.763-33.7255-52.331-51.16917-74.0259-32.54237-33.9887-63.81388-48.1888-115.88167-49.6351-43.38983-1.4463-60.74577-.3509-91.11865 8.678l-67.25423 34.7118-54.23729 91.1187-47.72881-86.7797-60.74576-47.7288-34.71187-86.7797v-73.76267l-13.01694-26.0339-8.67797-26.0339z" fill="#5984bd" stroke-width="75"/><g><path d="m644.33897 849.35596s20.01855-24.78067 30.37288-36.88135c11.32309-13.23283 20.65139-28.77352 34.71186-39.05085 11.5001-8.40586 25.62243-12.6032 39.05085-17.35593 14.46959-5.12123 29.42073-8.93587 44.47457-11.93221 13.59192-2.70535 27.36686-5.0492 41.22034-5.42372 14.13819-.38222 31.31435-5.64735 42.30509 3.25423 4.97904 4.03261 5.42372 18.44068 5.42372 18.44068s-12.22563 13.59815-20.61016 15.18644c-11.03036 2.08949-21.41103-7.21928-32.54238-8.67797-6.4533-.84566-13.06291-.77215-19.52542 0-12.19111 1.45662-24.48741 3.89813-35.79661 8.67797-10.62652 4.4913-20.33303 11.16738-29.28813 18.44068-11.71106 9.51168-22.74007 20.22876-31.45763 32.54237-2.33588 3.29945-5.42373 10.84746-5.42373 10.84746z"/><path d="m698.13922 848.73563 110.42055-10.66134c37.31379-6.84876 62.69538-20.20601 85.90748-36.81749 13.23316-13.54335 25.38159-23.83247 42.95374-27.61312 25.87789-4.92742 20.29815-10.9396 35.32858-20.20601l11.65035-22.00328-44.12886.86671-33.92749 4.33897-34.08768-.0432-38.08642 2.11499-17.67619 7.69089-30.71317 6.32237s50.17023 5.51533 57.95406 25.07139c2.88034 7.23655-3.77321 15.89417-9.20437 21.47687-10.2107 10.4956-25.8914 14.09856-39.88562 18.40875-11.89057 3.66227-24.58706 3.85272-36.81749 6.13625-29.77218 5.55872-113.48772 25.53758-113.48772 25.53758z"/><path d="m1392.8135 961.08477s36.0929-33.91699 49.8983-54.23729c13.0868-19.26268 24.1747-40.46757 30.3729-62.91524 5.4108-19.59586 6.1971-40.43135 5.4238-60.74577-1.0877-28.57173-22.8275-57.38173-14.1017-84.61017 1.8726-5.84352 13.0169-13.01695 13.0169-13.01695l67.2542 35.79661s2.6476 10.04504 3.2543 15.18644c1.7801 15.08609 2.5276 30.43726 1.0847 45.55932-1.6168 16.9443-3.7373 34.43322-10.8474 49.89831-7.0083 15.24368-19.0242 27.77871-30.3729 40.13559-13.1621 14.33132-28.1471 26.95601-43.3899 39.05085-22.7868 18.08088-71.5932 49.8983-71.5932 49.8983z"/><path d="m1448.1547 1092.2793s41.9369-26.1999 61.3624-41.4197c22.7985-17.8625 44.8676-36.9373 64.4306-58.29435 16.0266-17.49632 32.4833-35.46844 42.9538-56.76029 10.2914-20.92778 15.3132-44.38376 18.4087-67.49874 2.8507-21.28684-1.6288-43.0156.0001-64.43061.8065-10.60391 4.8253-31.5366 4.8253-31.5366l39.6624 22.33223 63.2661 43.34279s.2907 19.40506-1.9036 28.75812c-3.0368 12.94375-9.4084 24.91911-15.3406 36.8175-7.6697 15.38346-15.6716 30.80718-26.0791 44.4878-14.6695 19.28301-32.0021 36.658-50.624 52.15815-19.8388 16.513-41.6728 30.7741-64.4306 42.9537-23.4441 12.5469-48.5646 21.8196-73.635 30.6812-20.5963 7.2801-62.8965 18.4088-62.8965 18.4088z"/><path d="m1560.1412 1236.4811s55.7952-27.0622 81.3053-44.4878c17.0839-11.6699 32.2166-26.002 47.5559-39.8856 22.2523-20.1406 47.9055-37.842 64.4307-62.8966 13.2805-20.1352 19.5914-44.267 26.079-67.4987 6.2862-22.51048 10.6072-45.72044 12.2724-69.03277 1.0936-15.31013-15.8064-40.37428-1.534-46.02186 28.553-11.29842 60.7619 69.24122 60.7619 69.24122l17.4753 87.23311s-9.6201 7.7571-13.8066 12.2725c-9.1786 9.8998-16.0043 21.7601-24.5449 32.2153-13.7555 16.8389-26.1953 35.2367-42.9538 49.09-18.7241 15.4782-40.7711 26.786-62.8966 36.8175-26.5093 12.0191-54.6673 20.2959-82.8393 27.6131-26.6942 6.9334-81.3053 15.3406-81.3053 15.3406z"/></g><path d="m242.98304 1071.7288 86.77966-54.2372 52.0678-84.61022 32.54237-26.0339-73.76271-6.50847-93.28813 21.69492-26.0339 23.8644z"/></g></svg>