<svg xmlns="http://www.w3.org/2000/svg" viewBox="0 -0.5 50 50" shape-rendering="crispEdges">
<metadata>Made with Pixels to Svg https://codepen.io/shshaw/pen/XbxvNj</metadata>
<path stroke="#000000" d="M24 3h4M23 4h6M23 5h2M27 5h2M23 6h2M27 6h2M23 7h6M24 8h4M23 9h6M22 10h2M28 10h2M20 11h3M29 11h3M19 12h3M30 12h3M18 13h2M26 13h2M32 13h2M17 14h2M25 14h3M33 14h2M16 15h2M24 15h4M34 15h2M15 16h3M23 16h3M27 16h2M34 16h3M15 17h2M22 17h3M27 17h3M35 17h2M14 18h2M20 18h4M28 18h4M36 18h2M14 19h2M19 19h3M30 19h3M36 19h2M14 20h2M17 20h3M31 20h3M36 20h2M14 21h5M22 21h1M33 21h5M14 22h4M21 22h3M34 22h4M14 23h3M20 23h5M34 23h4M12 24h3M35 24h3M11 25h3M36 25h3M9 26h3M36 26h3M8 27h3M37 27h3M7 28h2M11 28h1M30 28h1M37 28h3M7 29h2M10 29h2M29 29h2M37 29h3M7 30h2M29 30h1M38 30h2M7 31h4M28 31h2M38 31h2M7 32h5M18 32h1M27 32h2M38 32h3M7 33h2M11 33h2M16 33h7M24 33h4M38 33h3M7 34h1M11 34h2M15 34h10M38 34h3M9 35h3M14 35h3M22 35h2M38 35h3M10 36h6M21 36h2M38 36h3M12 37h3M20 37h3M38 37h3M13 38h1M18 38h4M38 38h3M17 39h4M38 39h3M16 40h3M38 40h3M15 41h3M38 41h2M13 42h2M38 42h3M13 43h2M38 43h3M13 44h28M13 45h29" />
<path stroke="#5984bd" d="M25 5h2M25 6h2M24 10h4M23 11h6M22 12h8M20 13h6M28 13h4M19 14h6M28 14h5M18 15h6M28 15h6M18 16h5M26 16h1M29 16h5M17 17h5M25 17h2M30 17h5M16 18h4M24 18h4M32 18h4M16 19h3M22 19h8M33 19h3M16 20h1M20 20h11M34 20h2M19 21h3M23 21h10M18 22h3M24 22h10M17 23h3M25 23h9M15 24h20M14 25h22M12 26h24M11 27h26M9 28h2M12 28h18M31 28h6M9 29h1M12 29h17M31 29h6M9 30h20M30 30h8M11 31h17M30 31h8M12 32h6M19 32h8M29 32h9M13 33h3M23 33h1M28 33h10M13 34h2M25 34h13M12 35h2M24 35h14M23 36h15M23 37h15M22 38h16M21 39h17M19 40h19M18 41h20M15 42h23M15 43h23" />
</svg>