<svg viewBox="0 0 2048 2048" xmlns="http://www.w3.org/2000/svg"><path d="m489.71094 386.54199 21.33991 295.44106 135.98305 109.16949-47.83051 689.37296-154.66102 126.6778-39.84745 215.1865h625.81358 601.9491l-15.983-215.1865-154.661-126.6778-54.339-693.71194 120.7969-83.13583 38.6953-317.13574h-223.916l-4.3399 151.33984h-202.0839v-151.33984h-212.23638l-8.67968 151.33984h-206.42188v-151.33984z" fill="#5984bd"/><path d="m1024 547h-381l5 74h752l5-74zm0 661h-332l5 74h654l5-74zm0-1003h-641l29 264 159 118 50 659-149 107-17 341h289v-147h137v147h286v-147h137v147h289l-17-341-149-107 50-659 159-118 29-264zm0 74h557l-15 149-161 119-54 735 152 109 13 230h-138v-148h-285v148h-138v-148h-285v148h-138l13-230 152-109-54-735-161-119-15-149z" transform="matrix(1 0 0 -1 0 2048)"/></svg>