<svg xmlns="http://www.w3.org/2000/svg" viewBox="0 -0.5 50 50" shape-rendering="crispEdges">
<metadata>Made with Pixels to Svg https://codepen.io/shshaw/pen/XbxvNj</metadata>
<path stroke="#000000" d="M28 10h8M25 11h11M23 12h6M35 12h1M22 13h4M35 13h1M20 14h4M35 14h1M19 15h4M35 15h1M19 16h2M35 16h1M18 17h3M35 17h1M17 18h3M35 18h1M17 19h2M35 19h1M16 20h3M35 20h1M16 21h2M35 21h1M16 22h2M35 22h1M15 23h3M35 23h1M12 24h1M15 24h2M35 24h1M11 25h2M15 25h2M35 25h1M9 26h33M9 27h33M11 28h2M15 28h2M35 28h1M12 29h1M15 29h2M35 29h1M15 30h3M35 30h1M16 31h2M35 31h1M16 32h2M35 32h1M16 33h3M35 33h1M17 34h2M35 34h1M17 35h3M35 35h1M18 36h3M35 36h1M19 37h2M35 37h1M19 38h4M35 38h1M20 39h4M35 39h1M22 40h4M35 40h1M23 41h6M35 41h1M25 42h11M28 43h8" />
<path stroke="#ffffff" d="M29 12h6M26 13h9M24 14h11M23 15h12M21 16h14M21 17h14M20 18h15M19 19h16M19 20h16M18 21h17M18 22h17M18 23h17M17 24h18M17 25h18M17 28h18M17 29h18M18 30h17M18 31h17M18 32h17M19 33h16M19 34h16M20 35h15M21 36h14M21 37h14M23 38h12M24 39h11M26 40h9M29 41h6" />
</svg>