<?xml version="1.0" encoding="UTF-8" standalone="no"?>
<svg
   viewBox="0 -0.5 50 50"
   shape-rendering="crispEdges"
   version="1.1"
   id="svg10"
   sodipodi:docname="wamazon.svg"
   inkscape:version="1.2.1 (9c6d41e410, 2022-07-14)"
   xmlns:inkscape="http://www.inkscape.org/namespaces/inkscape"
   xmlns:sodipodi="http://sodipodi.sourceforge.net/DTD/sodipodi-0.dtd"
   xmlns="http://www.w3.org/2000/svg"
   xmlns:svg="http://www.w3.org/2000/svg">
  <defs
     id="defs14" />
  <sodipodi:namedview
     id="namedview12"
     pagecolor="#505050"
     bordercolor="#eeeeee"
     borderopacity="1"
     inkscape:showpageshadow="0"
     inkscape:pageopacity="0"
     inkscape:pagecheckerboard="0"
     inkscape:deskcolor="#505050"
     showgrid="false"
     inkscape:zoom="16.58"
     inkscape:cx="25"
     inkscape:cy="24.969843"
     inkscape:window-width="1920"
     inkscape:window-height="1009"
     inkscape:window-x="-8"
     inkscape:window-y="-8"
     inkscape:window-maximized="1"
     inkscape:current-layer="svg10" />
  <metadata
     id="metadata2">Made with Pixels to Svg https://codepen.io/shshaw/pen/XbxvNj</metadata>
  <path
     stroke="#000000"
     d="M17 2h4M31 2h4M17 3h1M20 3h2M30 3h2M34 3h1M16 4h2M21 4h1M30 4h1M34 4h2M16 5h2M21 5h1M30 5h1M34 5h2M17 6h5M30 6h5M18 7h4M30 7h4M18 8h4M30 8h4M18 9h1M21 9h2M29 9h2M33 9h1M17 10h2M21 10h2M29 10h2M33 10h2M7 11h3M17 11h2M22 11h1M29 11h1M33 11h2M42 11h3M6 12h2M9 12h2M17 12h2M22 12h2M28 12h2M33 12h2M41 12h2M44 12h2M5 13h2M10 13h2M17 13h2M23 13h1M28 13h1M33 13h2M40 13h2M45 13h2M5 14h2M10 14h2M17 14h1M23 14h2M27 14h2M34 14h1M40 14h2M45 14h2M6 15h5M16 15h2M34 15h2M41 15h5M7 16h5M16 16h2M34 16h2M40 16h5M9 17h5M16 17h2M34 17h2M38 17h5M10 18h5M16 18h2M34 18h2M37 18h5M10 19h2M14 19h3M35 19h3M40 19h2M11 20h2M15 20h2M35 20h2M39 20h2M12 21h1M16 21h1M35 21h1M39 21h1M12 22h2M38 22h2M12 23h2M38 23h2M13 24h2M37 24h2M13 44h1M16 44h22M40 44h1M15 45h23M40 45h2"
     id="path4" />
  <path
     stroke="#ffffff"
     d="M18 3h2M32 3h2M18 4h3M31 4h3M18 5h3M31 5h3M19 9h2M31 9h2M19 10h2M31 10h2M19 11h3M30 11h3M8 12h1M19 12h3M30 12h3M43 12h1M7 13h3M19 13h4M29 13h4M42 13h3M7 14h3M18 14h5M29 14h5M42 14h3M18 15h6M28 15h6M18 16h5M26 16h1M29 16h5M18 17h4M25 17h2M30 17h4M18 18h2M23 18h5M32 18h2M12 19h2M17 19h2M22 19h8M33 19h2M38 19h2M13 20h2M20 20h11M34 20h1M37 20h2M13 21h3M19 21h3M23 21h10M36 21h3M14 22h1M18 22h3M24 22h10M37 22h1M17 23h3M25 23h9M37 23h1M15 24h20M14 25h22M12 26h24M11 27h26M9 28h2M12 28h18M31 28h6M9 29h1M12 29h17M31 29h6M9 30h20M30 30h8M11 31h17M30 31h8M12 32h15M29 32h9M13 33h3M23 33h1M28 33h10M13 34h2M25 34h13M12 35h2M24 35h14M23 36h15M23 37h15M22 38h16M21 39h17M19 40h19M18 41h20M17 42h21M16 43h22"
     id="path6" />
  <path
     stroke="#333333"
     d="M26 13h2M25 14h2M24 15h4M23 16h3M27 16h2M22 17h3M27 17h3M20 18h3M28 18h4M19 19h3M30 19h3M17 20h3M31 20h3M17 21h2M22 21h1M33 21h2M15 22h3M21 22h3M34 22h3M14 23h3M20 23h5M34 23h3M12 24h1M35 24h2M11 25h3M36 25h3M9 26h3M36 26h3M8 27h3M37 27h3M7 28h2M11 28h1M30 28h1M37 28h3M7 29h2M10 29h2M29 29h2M37 29h3M7 30h2M29 30h1M38 30h2M7 31h4M28 31h2M38 31h2M7 32h5M27 32h2M38 32h3M7 33h2M11 33h2M16 33h7M24 33h4M38 33h3M7 34h1M11 34h2M15 34h10M38 34h3M9 35h3M14 35h3M22 35h2M38 35h3M10 36h6M21 36h2M38 36h3M12 37h3M20 37h3M38 37h3M13 38h1M18 38h4M38 38h3M17 39h4M38 39h3M16 40h3M38 40h3M15 41h3M38 41h2M15 42h2M38 42h2M14 43h2M38 43h2M14 44h2M38 44h2M13 45h2M38 45h2"
     id="path8"
     style="stroke:#000000;stroke-opacity:1" />
</svg>
