<svg xmlns="http://www.w3.org/2000/svg" viewBox="0 -0.5 49 49" shape-rendering="crispEdges">
<metadata>Made with Pixels to Svg https://codepen.io/shshaw/pen/XbxvNj</metadata>
<path stroke="#000000" d="M24 7h2M24 8h2M21 9h8M21 10h8M24 11h2M24 12h2M24 13h2M24 14h2M12 15h5M23 15h4M33 15h5M10 16h9M22 16h2M26 16h2M31 16h9M8 17h3M17 17h3M21 17h2M27 17h2M30 17h3M39 17h3M7 18h3M19 18h3M28 18h3M40 18h3M7 19h2M20 19h2M28 19h2M41 19h2M6 20h2M21 20h2M27 20h2M42 20h2M6 21h2M21 21h2M27 21h2M42 21h2M5 22h2M22 22h2M26 22h2M43 22h2M5 23h2M22 23h2M26 23h2M43 23h2M5 24h2M23 24h4M43 24h2M5 25h2M23 25h4M43 25h2M6 26h1M23 26h4M43 26h1M6 27h2M24 27h2M42 27h2M6 28h2M24 28h2M42 28h2M7 29h2M24 29h2M41 29h2M7 30h3M24 30h2M40 30h3M8 31h2M24 31h2M40 31h2M9 32h2M24 32h2M39 32h2M10 33h2M18 33h14M38 33h2M11 34h2M15 34h20M37 34h2M12 35h6M32 35h6M13 36h2M35 36h2M13 37h2M23 37h4M35 37h2M13 38h3M22 38h6M34 38h3M12 39h5M24 39h2M33 39h5M12 40h3M35 40h3M12 41h2M36 41h2M12 42h2M36 42h2M12 43h26M12 44h26" />
<path stroke="#ffffff" d="M24 16h2M11 17h6M23 17h4M33 17h6M10 18h9M22 18h6M31 18h9M9 19h11M22 19h6M30 19h11M8 20h13M23 20h4M29 20h13M8 21h13M23 21h4M29 21h13M7 22h15M24 22h2M28 22h15M7 23h15M24 23h2M28 23h15M7 24h16M27 24h16M7 25h16M27 25h16M7 26h16M27 26h16M8 27h16M26 27h16M8 28h16M26 28h16M9 29h15M26 29h15M10 30h14M26 30h14M10 31h14M26 31h14M11 32h13M26 32h13M12 33h6M32 33h6M13 34h2M35 34h2M18 35h14M15 36h20M15 37h8M27 37h8M16 38h6M28 38h6M17 39h7M26 39h7M15 40h20M14 41h22M14 42h22" />
</svg>