<svg viewBox="0 0 2048 2048" xmlns="http://www.w3.org/2000/svg"><path d="m651.93783 614.48776-159.5425-124.25903-12.2725-285.33556h211.7006l3.0682 144.20184h205.5643v-144.20184h217.83677v144.20184h211.7006v-144.20184h208.6324l-15.3406 282.26744-168.7468 127.32715z" fill="#f9f9f9" opacity=".978" stroke="#000" stroke-width="75"/><path d="m651.93783 614.48776-17.0953 174.46957c-17.247 54.14328-3.9501 155.7213-26.961 169.0165 90.02925 190.40587 239.41495 353.50037 379.10503 358.82677 198.18504-2.4773 454.08014-174.1018 436.05714-361.65519-16.2674-33.60549-11.9933-117.4065-30.5261-174.86605l-37.9793-165.7916z" fill="#f9f9f9" opacity=".978" stroke="#000" stroke-linejoin="round" stroke-width="75"/><g><path d="m700 1419.6673c4 26 74.29921 41.9637 147.29921 87.6304s149.67992 83.5652 223.67989 133.5652l70.4811 91.0796 89.6402-160.7028c207.7631-140.4249 343.3215-249.9535 403.6548-413.6202 60.3333-163.66673 85.1608-306.76289 56.4941-545.42956-12-85.33333-23.0599-182.49814-8.0599-254.83147s-17.715-14.26117 5.6183-68.92784l-1101.47489 9.9348c-6 118.66667-1.5336 103.64953 30.4664 185.98286s86.64016 105.2028 176.64016 181.2028c52 10.66667 112.59278 64.13773 137.25945 100.8044s23.92047 84.8696 35.92047 104.8696c-157.33333 28-313.27047 24.42923-336.5189-50.0652l-52.82008-82.1304-121.60236 71.326 73.66103 78.6884-95.5189 89.73931-71.12126-46.26091-15.17992 200.96381 351.4811 286.1812c336.3483-388.6776 40.31542-347.0515 0 0z" fill="#f9f9f9" stroke-width="1.00626" transform="matrix(.96484282 0 0 -.9149873 -51.185537 2107.8886404)"/><path d="m1004 910.66709c20.6667-11.33333 38.6667-25.33333 54-42 14 10 26.1667 14.5 36.5 13.5s21.5-.5 33.5 1.5c52 7.33333 94.8333 35.66667 128.5 85.00006 33.6667 49.33345 51.1667 104.33345 52.5 165.00015l-19 67c-36.6667-159.3333-99.3333-245.00021-188-257.00021-14-2-29-3.83333-45-5.5s-33.6667-10.83333-53-27.5zm-258 449.00021-46 60c4 26 42.5 61.8333 115.5 107.5s146.5 93.5 220.5 143.5l115 145.2567 96-208.2567c228-114.6667 372.5446-253.6827 432.5-417.5 69.3275-189.4249 80.6638-351.51538 47.5-578.47378-12-85.33333-15.4201-104.87882-10.2886-178.6865 6.0058-86.38326 8.4258-112.68915 27.262-174.38079l-1196.9734-.4594c-6 118.66667-1.78257 176.19881 39 254.20858 45.49126 87.01665 107.30965 118.57068 184.58996 182.98008 56.76988 22.25727 88.74337 37.64493 113.41004 74.3116s43 65 55 85c-157.33333 28-254.66667 8-292-60l-56-102-217 121 115 82-51 50-122-86-12 297.00021 396 263c8-12 15.66667-22.3333 23-31s15-18.3333 23-29l-366-241 4-125.00003 64 41.00003 138-144.00021-78-65 47-28 38.5 45 108.5 73c36 12 91 21 165 27s137.6667-18.66667 191-74c-37.3333-42-62.69203-89.27774-91-132.5-24.92329-38.05433-87.89961-72.69888-150-104.63368-56.56345-47.69927-96.0502-59.8138-140-123.158-42.19936-60.82132-52-92.20858-48-176.20858l991.2602-2.34165c-9.842 79.30005-10.1144 121.88357-8.1144 189.55023 2 67.66667 6.1667 82.79168 12.5 147.79168s17.4368 133.36973 15.2186 205c-2.5818 83.3749-17.9791 160.15091-44.6458 256.81761-34 84-84.8853 157.6826-140.2186 229.6826s-142.6667 134.6667-262 188l-59 124.2567-49-60.2567c-66-41.3333-135.33333-85-208-131s-116.33333-86-131-120zm292-30-212 2 116 100c20 16.6667 46.66667 3.8333 80-38.5 33.3333-42.3333 38.6667-63.5 16-63.5zm-536-195 37-31-46-55-57 26 33 56z" stroke-width="1.00626" transform="matrix(.96484282 0 0 -.9149873 -51.185537 2107.8886404)"/><ellipse cx="639.83136" cy="836.27295" rx="32.590546" ry="30.464285"/><ellipse cx="921.59351" cy="1297.7096" rx="60.135441" ry="23.81056"/></g></svg>