<svg viewBox="0 0 2048 2048" xmlns="http://www.w3.org/2000/svg"><path d="m706.50847 1434.6271c4 26 59.85594 70.5113 132.85594 116.178s144.3305 89.161 218.33049 139.161l86.7966 106.2712 85.1526-169.2712c228-114.6667 369.9972-292.8841 430.3305-456.5508s41.4548-271.54524 12.7881-510.21191c-12-85.33333-1.822-192.37006 13.178-264.70339s8.1328-88.10452 31.4661-142.77119l-1129.18646-10.84745c-6 118.66667 9.16949 188.79378 41.16949 271.12711s66.9661 120.27967 156.9661 196.27967c52 10.66667 118.53672 60.36722 143.20339 97.03389s56.01695 88.86441 68.01695 108.86441c-157.33333 28-362.0508 24.42704-378.77966-51.32203l-51.66102-62.94916-108.52542 64.59322 69.44068 71.15255-90.05085 91.22038-87.28814-49.11869-7.66101 203.71189 378.64406 260.8305c336.34829-388.6776 25.12898-355.7295-15.18644-8.678z" fill="#f9f9f9" transform="matrix(1 0 0 -1 0 2048)"/><path d="m1004 956q31-17 54-42 21 15 36.5 13.5t33.5 1.5q78 11 128.5 85t52.5 165l-19 67q-55-239-188-257-21-3-45-5.5t-53-27.5zm-258 449-46 60q6 39 115.5 107.5t220.5 143.5l115 154 96-217q342-172 432.5-417.5t47.5-603.5q-18-128 4.5-236.5t57.5-190.5h-1242q-9 178 39 301.5t183 237.5q78 16 115 71t55 85q-236 42-292-60l-56-102-217 121 115 82-51 50-122-86-12 297 396 263q12-18 23-31t23-29l-366-241 4-125 64 41 138-144-78-65 47-28 38.5 45t108.5 73q54 18 165 27t191-74q-56-63-91-132.5t-152-102.5q-92-79-146-176.5t-48-223.5h1019q-35 133-32 234.5t12.5 199 9 205-40.5 252.5q-51 126-134 234t-262 188l-59 133-49-69q-99-62-208-131t-131-120zm292-30-212 2 116 100q30 25 80-38.5t16-63.5zm-536-195 37-31-46-55-57 26 33 56z" transform="matrix(1 0 0 -1 0 2048)"/><ellipse cx="720.81354" cy="609.62708" rx="25.491526" ry="32.542374"/><ellipse cx="1022.9152" cy="1109.1525" rx="29.288136" ry="22.237289"/></svg>