<svg xmlns="http://www.w3.org/2000/svg" viewBox="0 -0.5 49 49" shape-rendering="crispEdges">
<metadata>Made with Pixels to Svg https://codepen.io/shshaw/pen/XbxvNj</metadata>
<path stroke="#000000" d="M26 7h2M25 8h3M24 9h4M23 10h3M27 10h2M22 11h3M27 11h3M20 12h3M28 12h4M19 13h3M30 13h3M17 14h3M31 14h3M16 15h3M22 15h1M33 15h3M15 16h3M21 16h3M34 16h3M14 17h3M20 17h5M34 17h3M12 18h3M35 18h3M11 19h3M36 19h3M9 20h3M36 20h3M8 21h3M37 21h3M7 22h2M11 22h1M30 22h1M37 22h3M7 23h2M10 23h2M29 23h2M37 23h3M7 24h2M29 24h1M38 24h2M7 25h4M28 25h2M38 25h2M7 26h5M27 26h2M38 26h3M7 27h2M11 27h2M16 27h7M24 27h4M38 27h3M7 28h1M11 28h2M15 28h10M38 28h3M9 29h3M14 29h3M22 29h2M38 29h3M10 30h6M21 30h2M38 30h3M12 31h3M20 31h3M38 31h3M13 32h1M18 32h4M38 32h3M17 33h4M38 33h3M16 34h3M38 34h3M15 35h3M38 35h2M15 36h2M38 36h2M14 37h2M38 37h2M14 38h2M38 38h2M13 39h2M38 39h2M13 40h2M38 40h3M13 41h2M38 41h3M13 42h2M38 42h3M13 43h28M13 44h29" />
<path stroke="#ffffff" d="M26 10h1M25 11h2M23 12h5M22 13h8M20 14h11M19 15h3M23 15h10M18 16h3M24 16h10M17 17h3M25 17h9M15 18h20M14 19h22M12 20h24M11 21h26M9 22h2M12 22h18M31 22h6M9 23h1M12 23h17M31 23h6M9 24h20M30 24h8M11 25h17M30 25h8M12 26h15M29 26h9M13 27h3M23 27h1M28 27h10M13 28h2M25 28h13M12 29h2M24 29h14M23 30h15M23 31h15M22 32h16M21 33h17M19 34h19M18 35h20M17 36h21M16 37h22M16 38h22M15 39h23M15 40h23M15 41h23M15 42h23" />
</svg>