<?xml version="1.0" encoding="UTF-8" standalone="no"?>
<svg
   xmlns:dc="http://purl.org/dc/elements/1.1/"
   xmlns:cc="http://creativecommons.org/ns#"
   xmlns:rdf="http://www.w3.org/1999/02/22-rdf-syntax-ns#"
   xmlns:svg="http://www.w3.org/2000/svg"
   xmlns="http://www.w3.org/2000/svg"
   xmlns:sodipodi="http://sodipodi.sourceforge.net/DTD/sodipodi-0.dtd"
   xmlns:inkscape="http://www.inkscape.org/namespaces/inkscape"
   width="177.17"
   height="177.17"
   shape-rendering="geometricPrecision"
   image-rendering="optimizeQuality"
   fill-rule="evenodd"
   clip-rule="evenodd"
   viewBox="0 0 50 50"
   version="1.1"
   id="svg1519"
   sodipodi:docname="wD.svg"
   inkscape:version="1.0.1 (3bc2e813f5, 2020-09-07)">
  <metadata
     id="metadata1523">
    <rdf:RDF>
      <cc:Work
         rdf:about="">
        <dc:format>image/svg+xml</dc:format>
        <dc:type
           rdf:resource="http://purl.org/dc/dcmitype/StillImage" />
        <dc:title></dc:title>
      </cc:Work>
    </rdf:RDF>
  </metadata>
  <sodipodi:namedview
     pagecolor="#ffffff"
     bordercolor="#666666"
     borderopacity="1"
     objecttolerance="10"
     gridtolerance="10"
     guidetolerance="10"
     inkscape:pageopacity="0"
     inkscape:pageshadow="2"
     inkscape:window-width="1676"
     inkscape:window-height="1767"
     id="namedview1521"
     showgrid="false"
     inkscape:zoom="0.50288117"
     inkscape:cx="-80.186482"
     inkscape:cy="802.81337"
     inkscape:window-x="8380"
     inkscape:window-y="1097"
     inkscape:window-maximized="0"
     inkscape:current-layer="svg1519"
     inkscape:document-rotation="0" />
  <defs
     id="defs1513">
    <linearGradient
       id="0"
       x1="21.405"
       x2="77.64"
       gradientUnits="userSpaceOnUse">
      <stop
         stop-color="#fff"
         id="stop1508" />
      <stop
         offset="1"
         stop-color="#fff"
         stop-opacity="0"
         id="stop1510" />
    </linearGradient>
  </defs>
  <g
     id="g4479"
     style="opacity:0.99;stroke:#000000;stroke-width:1.00157;stroke-miterlimit:4;stroke-dasharray:none"
     transform="matrix(1.4649611,0,0,1.4649611,-79.809876,-85.425679)">
    <g
       id="g4408"
       style="stroke:#000000;stroke-width:1.00157;stroke-miterlimit:4;stroke-dasharray:none">
      <g
         style="opacity:1;stroke:#000000;stroke-width:1.67347;stroke-miterlimit:4;stroke-dasharray:none"
         transform="matrix(0.5985,0,0,0.5985,-0.89497712,-1.5691449)"
         id="g2585">
        <g
           transform="matrix(1.1490749,0,0,1.1490749,4.8774524,-52.324711)"
           id="g5991-8-6"
           style="stroke:#000000;stroke-width:1.45637;stroke-miterlimit:4;stroke-dasharray:none">
          <g
             id="g5959-6-1"
             style="stroke:#000000;stroke-width:1.45637;stroke-miterlimit:4;stroke-dasharray:none">
            <path
               sodipodi:nodetypes="ccccc"
               inkscape:connector-curvature="0"
               id="path5925-18-5"
               d="m 76.814514,188.49725 c -0.382792,-1.61452 0.982033,-3.33321 3.033308,-3.87609 -1.474925,-0.98619 -1.96609,-1.96962 -1.96609,-1.96962 0.66148,-0.0209 2.351743,-0.41657 2.953798,-1.42262 -0.278994,-0.0915 -1.725339,-0.57385 -1.940887,-1.46547"
               style="display:inline;fill:none;stroke:#000000;stroke-width:1.09228;stroke-linecap:butt;stroke-linejoin:miter;stroke-miterlimit:4;stroke-dasharray:none;stroke-opacity:1"
               transform="matrix(1.3333333,0,0,-1.3333333,0,396.85067)" />
            <g
               id="g5957-11-8"
               style="stroke:#000000;stroke-width:1.45637;stroke-miterlimit:4;stroke-dasharray:none">
              <g
                 id="g5949-4-4"
                 style="stroke:#000000;stroke-width:1.45637;stroke-miterlimit:4;stroke-dasharray:none">
                <path
                   sodipodi:nodetypes="cc"
                   inkscape:connector-curvature="0"
                   id="path5927-1-6"
                   d="m 106.85537,157.38289 c 7.55631,-2.27747 12.29422,1.14184 14.61505,5.6409"
                   style="fill:none;stroke:#000000;stroke-width:1.45637;stroke-linecap:butt;stroke-linejoin:miter;stroke-miterlimit:4;stroke-dasharray:none;stroke-opacity:1" />
                <path
                   sodipodi:nodetypes="cc"
                   inkscape:connector-curvature="0"
                   id="path5929-1-8"
                   d="m 109.36814,159.69053 c 8.1436,0.28405 5.92715,9.6573 3.89734,14.71761"
                   style="fill:none;stroke:#000000;stroke-width:1.45637;stroke-linecap:butt;stroke-linejoin:miter;stroke-miterlimit:4;stroke-dasharray:none;stroke-opacity:1" />
                <path
                   sodipodi:nodetypes="cc"
                   inkscape:connector-curvature="0"
                   id="path5931-3-9"
                   d="m 113.77829,156.87008 c 3.37122,1.83329 6.18854,4.36711 4.97425,11.99972"
                   style="fill:none;stroke:#000000;stroke-width:1.45637;stroke-linecap:butt;stroke-linejoin:miter;stroke-miterlimit:4;stroke-dasharray:none;stroke-opacity:1" />
                <g
                   style="stroke:#000000;stroke-width:1.45637;stroke-miterlimit:4;stroke-dasharray:none"
                   id="g5947-9-3" />
              </g>
              <path
                 style="fill:none;stroke:#000000;stroke-width:1.45637;stroke-linecap:butt;stroke-linejoin:miter;stroke-miterlimit:4;stroke-dasharray:none;stroke-opacity:1"
                 d="m 93.112096,152.2548 c 2.016656,-2.72178 3.802894,-5.72006 7.128044,-6.87164"
                 id="path5951-3-7"
                 inkscape:connector-curvature="0"
                 sodipodi:nodetypes="cc" />
              <path
                 style="fill:none;stroke:#000000;stroke-width:1.45637;stroke-linecap:butt;stroke-linejoin:miter;stroke-miterlimit:4;stroke-dasharray:none;stroke-opacity:1"
                 d="m 96.650476,155.22909 c 2.546951,-0.30884 5.093904,-0.47217 7.640854,-0.10256"
                 id="path5953-9-6"
                 inkscape:connector-curvature="0"
                 sodipodi:nodetypes="cc" />
              <path
                 style="fill:none;stroke:#000000;stroke-width:1.45637;stroke-linecap:butt;stroke-linejoin:miter;stroke-miterlimit:4;stroke-dasharray:none;stroke-opacity:1"
                 d="m 96.137669,153.12657 c 1.402563,-1.75471 4.191461,-2.26173 6.922921,-2.82044"
                 id="path5955-1-3"
                 inkscape:connector-curvature="0"
                 sodipodi:nodetypes="cc" />
            </g>
          </g>
          <path
             sodipodi:nodetypes="ccccccccccccccccccccccccccccccccccccccccsccc"
             inkscape:connector-curvature="0"
             id="path5965-8-5"
             d="m 99.938985,158.29805 c -5.049569,1.29768 -6.422852,9.83907 -10.660754,13.34408 -0.735784,-0.3683 -0.827866,-1.19226 -0.797743,-2.90089 l -2.828362,-1.52297 3.141086,-0.97405 -1.473076,-1.20161 3.326708,-0.70193 -1.078522,-2.19895 2.773805,0.0153 0.1996,-2.77114 1.377919,-0.72522 V 156.485 l -0.725219,-1.08783 -1.160357,0.14505 0.07252,1.0153 -1.446453,0.58816 -0.120426,2.16833 c -0.905393,-0.44815 -0.794251,0.62859 -1.877598,0.22422 l -0.07784,1.16103 -2.103139,-0.0725 -0.466397,3.5456 c -0.474479,-0.38678 -1.050909,0.26037 -2.294759,-0.12642 -0.385357,2.27236 -0.384308,3.29323 -0.38856,5.56559 l -3.408538,-4.78647 c 0.270013,-0.65709 1.00717,-0.59849 1.522962,-2.10313 -0.04517,-1.04998 -0.08546,-2.09753 -0.507653,-3.33602 2.560131,-1.26401 4.783339,-3.53879 6.962125,-5.94682 l 0.07252,-5.00402 c 0.912496,-2.4981 1.545022,-3.85079 2.330563,-5.13578 0.05745,1.85848 0.453866,2.31327 0.927478,3.36262 1.622506,-1.8574 2.693961,-5.69799 6.465887,-8.6382 -1.436602,2.57898 -3.634626,4.75711 -2.030611,7.30756 5.712439,-7.08218 9.984249,-10.62666 17.036729,-8.13713 -6.95992,0.57064 -12.10611,4.59635 -10.90437,8.94829 4.37307,-4.88595 9.73578,-3.75434 11.45621,-2.9151 -5.42728,0.56055 -7.6467,2.64073 -6.49866,5.71537 6.14453,-1.76511 10.84868,-1.49675 13.70668,1.37792 -3.44196,-0.37601 -8.44829,-1.44309 -8.58036,0.57138 15.77569,6.08756 12.77743,18.13932 -2.33407,26.83997 l -18.589263,0.0318 c 5.93239,-6.92697 8.052804,-5.76983 12.991043,-8.09481 5.40946,-2.54682 8.74343,-12.41169 0.80866,-12.52149 -0.67413,1.41992 -1.05907,3.56566 -0.68601,6.29969 -1.65605,-4.87067 -4.461577,-6.29292 -8.049948,-5.36664"
             style="fill:#fae4ed;fill-opacity:1;stroke:#1f1a17;stroke-width:1.909;stroke-linecap:butt;stroke-linejoin:miter;stroke-miterlimit:4;stroke-dasharray:none;stroke-opacity:1" />
          <g
             style="stroke:#000000;stroke-width:1.45637;stroke-miterlimit:4;stroke-dasharray:none"
             id="g5985-8-9">
            <path
               transform="matrix(1.3333333,0,0,-1.3333333,0,396.85067)"
               style="display:inline;fill:none;stroke:#000000;stroke-width:1.09228;stroke-linecap:butt;stroke-linejoin:miter;stroke-miterlimit:4;stroke-dasharray:none;stroke-opacity:0.992157"
               d="m 76.814514,188.49725 c -0.382792,-1.61452 0.982033,-3.33321 3.033308,-3.87609 -1.474925,-0.98619 -1.96609,-1.96962 -1.96609,-1.96962 0.66148,-0.0209 2.351743,-0.41657 2.953798,-1.42262 -0.278994,-0.0915 -1.725339,-0.57385 -1.940887,-1.46547"
               id="path5967-73-9"
               inkscape:connector-curvature="0"
               sodipodi:nodetypes="ccccc" />
            <g
               style="stroke:#000000;stroke-width:1.45637;stroke-miterlimit:4;stroke-dasharray:none"
               id="g5983-9-3">
              <g
                 style="stroke:#000000;stroke-width:1.45637;stroke-miterlimit:4;stroke-dasharray:none"
                 id="g5977-0-6">
                <path
                   style="fill:none;stroke:#000000;stroke-width:1.45637;stroke-linecap:butt;stroke-linejoin:miter;stroke-miterlimit:4;stroke-dasharray:none;stroke-opacity:0.992157"
                   d="m 106.85537,157.38289 c 7.55631,-2.27747 12.29422,1.14184 14.61505,5.6409"
                   id="path5969-4-8"
                   inkscape:connector-curvature="0"
                   sodipodi:nodetypes="cc" />
                <path
                   style="fill:none;stroke:#000000;stroke-width:1.45637;stroke-linecap:butt;stroke-linejoin:miter;stroke-miterlimit:4;stroke-dasharray:none;stroke-opacity:0.992157"
                   d="m 109.36814,159.69053 c 8.1436,0.28405 5.92715,9.6573 3.89734,14.71761"
                   id="path5971-9-3"
                   inkscape:connector-curvature="0"
                   sodipodi:nodetypes="cc" />
                <g
                   id="g5975-81-9"
                   style="stroke:#000000;stroke-width:1.45637;stroke-miterlimit:4;stroke-dasharray:none">
                  <path
                     sodipodi:nodetypes="cc"
                     inkscape:connector-curvature="0"
                     id="path5973-7-4"
                     d="m 109.62454,160.92127 c 8.39582,10.39706 -4.39843,7.25768 -8.83774,17.36196"
                     style="fill:none;stroke:#000000;stroke-width:1.45637;stroke-linecap:butt;stroke-linejoin:miter;stroke-miterlimit:4;stroke-dasharray:none;stroke-opacity:0.992157" />
                </g>
              </g>
            </g>
          </g>
          <path
             inkscape:connector-curvature="0"
             id="path5987-5-8"
             d="m 92.892698,148.0356 -2.988834,2.60941 -0.278513,4.40375 c 1.122405,-0.62704 3.056771,-2.18229 3.486745,-2.79396 0.147642,-0.91332 -0.04814,-3.62478 -0.219398,-4.2192 z"
             style="fill:#000000;fill-opacity:0.992157;stroke:none;stroke-width:1.45625;stroke-linecap:butt;stroke-linejoin:miter;stroke-miterlimit:4;stroke-dasharray:none;stroke-opacity:0.992157"
             sodipodi:nodetypes="ccccc" />
        </g>
        <path
           sodipodi:nodetypes="cc"
           inkscape:connector-curvature="0"
           id="path9570-8-0"
           d="m 121.08075,143.70635 c 1.13217,1.46215 1.96546,2.68318 3.75317,2.67036"
           style="display:inline;fill:none;stroke:#000000;stroke-width:1.67347;stroke-linecap:butt;stroke-linejoin:miter;stroke-miterlimit:4;stroke-dasharray:none;stroke-opacity:0.992157" />
      </g>
    </g>
  </g>
</svg>
