<?xml version="1.0" encoding="UTF-8" standalone="no"?>
<svg
   xmlns:dc="http://purl.org/dc/elements/1.1/"
   xmlns:cc="http://creativecommons.org/ns#"
   xmlns:rdf="http://www.w3.org/1999/02/22-rdf-syntax-ns#"
   xmlns:svg="http://www.w3.org/2000/svg"
   xmlns="http://www.w3.org/2000/svg"
   xmlns:sodipodi="http://sodipodi.sourceforge.net/DTD/sodipodi-0.dtd"
   xmlns:inkscape="http://www.inkscape.org/namespaces/inkscape"
   width="177.17"
   height="177.17"
   shape-rendering="geometricPrecision"
   image-rendering="optimizeQuality"
   fill-rule="evenodd"
   clip-rule="evenodd"
   viewBox="0 0 50 50"
   version="1.1"
   id="svg1519"
   sodipodi:docname="wH.svg"
   inkscape:version="1.0.1 (3bc2e813f5, 2020-09-07)">
  <metadata
     id="metadata1523">
    <rdf:RDF>
      <cc:Work
         rdf:about="">
        <dc:format>image/svg+xml</dc:format>
        <dc:type
           rdf:resource="http://purl.org/dc/dcmitype/StillImage" />
        <dc:title></dc:title>
      </cc:Work>
    </rdf:RDF>
  </metadata>
  <sodipodi:namedview
     pagecolor="#ffffff"
     bordercolor="#666666"
     borderopacity="1"
     objecttolerance="10"
     gridtolerance="10"
     guidetolerance="10"
     inkscape:pageopacity="0"
     inkscape:pageshadow="2"
     inkscape:window-width="1676"
     inkscape:window-height="1767"
     id="namedview1521"
     showgrid="false"
     inkscape:zoom="4.0230493"
     inkscape:cx="70.316171"
     inkscape:cy="117.65721"
     inkscape:window-x="8380"
     inkscape:window-y="1097"
     inkscape:window-maximized="0"
     inkscape:current-layer="svg1519"
     inkscape:document-rotation="0" />
  <defs
     id="defs1513">
    <linearGradient
       id="0"
       x1="21.405"
       x2="77.64"
       gradientUnits="userSpaceOnUse">
      <stop
         stop-color="#fff"
         id="stop1508" />
      <stop
         offset="1"
         stop-color="#fff"
         stop-opacity="0"
         id="stop1510" />
    </linearGradient>
  </defs>
  <path
     fill="#1f1a17"
     d="m 26.18,9.395 c 2.599,0.169 5,0.838 7.222,2.02 2.21,1.168 4.098,2.675 5.656,4.513 1.092,1.287 2.117,2.845 3.082,4.665 0.974,1.812 1.744,3.742 2.32,5.774 0.66,2.371 1.084,4.851 1.253,7.459 0.178,2.599 0.263,5.01 0.263,7.23 v 5.402 H 42.115 32.105 19.080698 c -0.152,0 -0.22,-0.406 -0.212,-1.211 0.008,-0.813 0.059,-1.465 0.161,-1.964 0.059,-0.398 0.22,-0.957 0.466,-1.685 0.254,-0.728 0.66,-1.609 1.245,-2.65 0.262,-0.533 0.889,-1.304 1.88,-2.32 2.853845,-3.875496 2.485682,-5.62775 2.093302,-9.568 -0.61,0.5 -1.279,0.906 -2.01,1.219 -3.505,1.253 -6.05,3.073 -7.611,5.452 -0.119,0.152 -0.491,0.821 -1.118,2.02 -0.33,0.627 -0.618,1.058 -0.847,1.287 -0.313,0.313 -0.771,0.491 -1.363,0.525 C 8.9930723,37.860447 7.6506161,37.133654 5.733,35.353 4.886,34.506 4.344,33.668 4.082,32.821 3.828,31.974 3.701,31.068 3.701,30.095 c 0,-1.389 0.855,-3.226 2.582,-5.512 2.02,-2.625 3.09,-4.631 3.217,-6 0,-0.593 0.059,-1.262 0.178,-2.01 0.102,-0.517 0.305,-1.01 0.618,-1.49 0.22,-0.33 0.364,-0.559 0.432,-0.677 0.076,-0.127 0.212,-0.313 0.415,-0.559 0.144,-0.203 0.271,-0.356 0.373,-0.457 0.093,-0.11 0.22,-0.254 0.373,-0.44 0.178,-0.212 0.406,-0.457 0.694,-0.745 -0.88,-2.413 -1.236,-4.902 -1.067,-7.459 3.285,1.168 6.05,3.01 8.28,5.529 0.55,-1.871 1.626,-3.387 3.226,-4.538 1.321,0.923 2.371,2.151 3.15,3.666"
     id="path1515"
     sodipodi:nodetypes="ccccccscccscccccccccscccsccccccccccccc" />
  <path
     fill="url(#0)"
     d="m 42.976,44.693 c -0.017,0 0,-0.449 0.042,-1.346 0.051,-0.906 0.076,-1.88 0.076,-2.921 0.017,-2.066 0.017,-4.2 0,-6.409 -0.017,-2.21 -0.313,-4.411 -0.889,-6.613 -0.567,-2.117 -1.185,-3.92 -1.863,-5.419 -0.677,-1.499 -1.414,-2.786 -2.21,-3.878 -1.185,-1.786 -2.811,-3.302 -4.86,-4.538 -2.049,-1.245 -4.191,-2.057 -6.426,-2.438 0.152,0.813 0.22,1.609 0.203,2.388 -0.034,0.593 -0.313,0.889 -0.847,0.889 -0.61,0 -0.881,-0.296 -0.821,-0.889 0.051,-2.184 -0.728,-4.056 -2.328,-5.605 -1.253,1.321 -1.939,2.853 -2.032,4.606 -0.034,0.584 -0.33,0.838 -0.897,0.771 -0.525,-0.017 -0.787,-0.322 -0.787,-0.914 0,0 0.017,-0.068 0.042,-0.203 -0.677,0.22 -1.389,0.525 -2.134,0.923 -0.474,0.33 -0.864,0.245 -1.16,-0.246 -0.296,-0.499 -0.169,-0.889 0.398,-1.168 0.711,-0.364 1.245,-0.635 1.609,-0.821 -1.422,-1.456 -3.04,-2.625 -4.86,-3.522 0.195,2.303 0.83,4.47 1.888,6.528 0.279,0.423 0.212,0.804 -0.203,1.135 -0.466,0.364 -0.855,0.313 -1.168,-0.169 -0.11,-0.169 -0.279,-0.466 -0.491,-0.897 -0.347,0.347 -0.584,0.61 -0.694,0.77 -0.118,0.152 -0.322,0.483 -0.61,0.991 -0.288,0.516 -0.499,0.94 -0.635,1.27 -0.144,0.415 -0.212,0.745 -0.186,1.01 0.025,0.254 0.051,0.533 0.068,0.855 -0.152,0.974 -0.491,1.888 -1.01,2.752 -0.525,0.855 -1.185,1.905 -1.998,3.15 -0.779,1.185 -1.372,2.083 -1.786,2.675 -0.415,0.601 -0.728,1.355 -0.94,2.286 -0.152,0.559 -0.152,1.245 0,2.041 0.144,0.804 0.4389253,1.658986 0.9299253,2.107986 0.4064646,0.574552 0.8276424,0.994501 1.8943273,1.680808 1.6414673,0.924892 3.7273714,0.917247 4.4397474,-0.570794 0.237,-0.499 0.601,-1.168 1.092,-2.01 0.584,-0.982 1.202,-1.77 1.863,-2.388 0.66,-0.61 1.245,-1.109 1.761,-1.482 0.296,-0.22 0.66,-0.466 1.092,-0.745 0.432,-0.288 1.01,-0.576 1.736,-0.872 0.576,-0.229 1.219,-0.516 1.922,-0.855 0.703,-0.339 1.329,-0.77 1.871,-1.304 0.762,-0.745 1.346,-1.659 1.761,-2.752 0.22,-0.61 0.296,-1.363 0.245,-2.261 -0.144,-0.559 0.136,-0.838 0.847,-0.838 0.533,0 0.83,0.271 0.898,0.821 0,1.863 -1.915124,4.195268 -1.416626,5.806495 1.253552,3.759057 1.419945,6.987377 -0.544323,9.690695 -2.592687,3.474631 -4.628192,6.005603 -4.562381,8.92881 h 4.225 3.88133 13.572 M 9.336,29.615 c -0.483,0.296 -0.77,0.694 -0.872,1.194 0.017,0.542 -0.237,0.838 -0.762,0.889 -0.584,0.068 -0.881,-0.178 -0.898,-0.745 0.068,-1.092 0.55,-1.956 1.465,-2.599 0.432,-0.347 0.83,-0.322 1.194,0.093 0.364,0.449 0.322,0.838 -0.127,1.168 m 7.366,-11.828 c 0.212,0.33 0.296,0.677 0.246,1.041 -0.161,1.058 -0.754,1.499 -1.761,1.338 -0.296,-0.051 -0.533,-0.152 -0.72,-0.296 -0.059,0.076 -0.161,0.262 -0.296,0.542 -0.178,0.533 -0.525,0.711 -1.041,0.55 -0.508,-0.203 -0.711,-0.576 -0.593,-1.118 0.745,-1.905 2.091,-3.209 4.04,-3.92 0.567,-0.169 0.94,0 1.118,0.491 0.203,0.533 0.051,0.898 -0.449,1.092 -0.093,0.051 -0.186,0.102 -0.271,0.136 -0.085,0.042 -0.169,0.093 -0.271,0.144"
     id="path1517"
     style="fill:#fae4ed;fill-opacity:1"
     sodipodi:nodetypes="cccsccccccscccccccccccccccccccccccccccccccccscccscccccccccccccccccccccccccc" />
  <path
     style="fill:#fae4ed;fill-opacity:1;stroke:none;stroke-width:0.282215px;stroke-linecap:butt;stroke-linejoin:miter;stroke-opacity:1"
     d="m 17.113095,14.980159 c 0,0 -4.017857,0.248016 -4.960318,3.373016 -0.94246,3.124999 -0.496031,4.06746 -0.496031,4.06746 l 6.200396,0.446428 c 0,0 2.641004,-4.994359 1.450528,-6.284042 -1.190476,-1.289682 -2.194575,-1.602862 -2.194575,-1.602862 z"
     id="path11989"
     sodipodi:nodetypes="csccsc" />
  <path
     style="fill:#fae4ed;stroke:none;stroke-width:0.282215px;stroke-linecap:butt;stroke-linejoin:miter;stroke-opacity:1;fill-opacity:1"
     d="m 8.2776387,26.570073 -1.6835876,2.314933 -0.070149,3.226875 2.4552319,0.350748 1.753738,-4.349268 z"
     id="path11997" />
  <path
     style="fill:none;stroke:#000000;stroke-width:1.69329;stroke-linecap:butt;stroke-linejoin:miter;stroke-miterlimit:4;stroke-dasharray:none;stroke-opacity:1"
     d="m 14.171,20.412 5.681303,-1.62852"
     id="path11999"
     sodipodi:nodetypes="cc" />
</svg>
