<?xml version="1.0" encoding="UTF-8" standalone="no"?>
<svg
   xmlns:dc="http://purl.org/dc/elements/1.1/"
   xmlns:cc="http://creativecommons.org/ns#"
   xmlns:rdf="http://www.w3.org/1999/02/22-rdf-syntax-ns#"
   xmlns:svg="http://www.w3.org/2000/svg"
   xmlns="http://www.w3.org/2000/svg"
   xmlns:sodipodi="http://sodipodi.sourceforge.net/DTD/sodipodi-0.dtd"
   xmlns:inkscape="http://www.inkscape.org/namespaces/inkscape"
   width="177.17"
   height="177.17"
   shape-rendering="geometricPrecision"
   image-rendering="optimizeQuality"
   fill-rule="evenodd"
   clip-rule="evenodd"
   viewBox="0 0 50 50"
   version="1.1"
   id="svg909"
   sodipodi:docname="wK.svg"
   inkscape:version="1.0.1 (3bc2e813f5, 2020-09-07)">
  <metadata
     id="metadata913">
    <rdf:RDF>
      <cc:Work
         rdf:about="">
        <dc:format>image/svg+xml</dc:format>
        <dc:type
           rdf:resource="http://purl.org/dc/dcmitype/StillImage" />
        <dc:title></dc:title>
      </cc:Work>
    </rdf:RDF>
  </metadata>
  <sodipodi:namedview
     pagecolor="#ffffff"
     bordercolor="#666666"
     borderopacity="1"
     objecttolerance="10"
     gridtolerance="10"
     guidetolerance="10"
     inkscape:pageopacity="0"
     inkscape:pageshadow="2"
     inkscape:window-width="1662"
     inkscape:window-height="1767"
     id="namedview911"
     showgrid="false"
     inkscape:zoom="4.0230492"
     inkscape:cx="100.32402"
     inkscape:cy="120.43362"
     inkscape:window-x="1703"
     inkscape:window-y="182"
     inkscape:window-maximized="0"
     inkscape:current-layer="svg909"
     inkscape:document-rotation="0" />
  <defs
     id="defs903">
    <linearGradient
       id="0"
       x1="21.376"
       x2="77.64"
       gradientUnits="userSpaceOnUse">
      <stop
         stop-color="#fff"
         id="stop898" />
      <stop
         offset="1"
         stop-color="#fff"
         stop-opacity="0"
         id="stop900" />
    </linearGradient>
  </defs>
  <g
     id="g17084"
     transform="translate(40.444642,-0.63800887)">
    <path
       style="fill:#fae4ed;fill-opacity:1;stroke:#1f1a17;stroke-width:1.41107;stroke-linecap:butt;stroke-linejoin:miter;stroke-miterlimit:4;stroke-dasharray:none;stroke-opacity:1"
       d="m -15.50127,4.6463282 c -6.391728,3.5636501 -12.513606,7.9763598 -16.204233,12.2546088 5.433139,2.85946 10.923053,6.455192 16.488406,8.256936 5.912894,-2.226341 10.7241605,-6.285775 15.05551798,-9.434679 C -4.3487956,11.67809 -9.3474258,7.6954807 -15.50127,4.6463282 Z"
       id="path17064"
       sodipodi:nodetypes="ccccc" />
    <path
       style="fill:#ffffff;stroke:#1f1a17;stroke-width:1.12886;stroke-linecap:butt;stroke-linejoin:miter;stroke-miterlimit:4;stroke-dasharray:none;stroke-opacity:1"
       d="m -20.711,20.199543 5.404642,-5.897357 5.4202589,5.673973 -5.4127859,2.933302 z"
       id="path17066"
       sodipodi:nodetypes="ccccc" />
    <path
       style="fill:none;stroke:#ffffff;stroke-width:0.744524;stroke-linecap:butt;stroke-linejoin:miter;stroke-miterlimit:4;stroke-dasharray:none;stroke-opacity:1"
       d="m -29.960843,16.64633 c 5.023904,2.568463 9.811454,5.364493 14.580541,7.295912 5.5038551,-2.230723 9.6502188,-5.185395 13.4741018,-8.320719"
       id="path17068"
       sodipodi:nodetypes="ccc" />
    <path
       style="fill:#fae4ed;fill-opacity:1;stroke:#1f1a17;stroke-width:1.41107;stroke-linecap:butt;stroke-linejoin:miter;stroke-miterlimit:4;stroke-dasharray:none;stroke-opacity:1"
       d="m -26.693033,20.124904 c 0,0 0.260889,9.524264 -1.424239,14.322494 -0.717251,2.0423 -3.516225,5.459404 -3.516225,5.459404 0,0 3.237126,1.768592 4.626613,2.961027 0.779476,0.668935 1.143897,1.803674 2.035709,2.313311 1.281519,0.732336 4.349016,1.758112 4.349016,0.83279 0,-0.925323 0.427812,-22.783476 0.427812,-22.783476 z"
       id="path17070"
       sodipodi:nodetypes="cscssscc" />
    <path
       style="fill:#fae4ed;fill-opacity:1;stroke:#1f1a17;stroke-width:1.41107;stroke-linecap:butt;stroke-linejoin:miter;stroke-miterlimit:4;stroke-dasharray:none;stroke-opacity:1"
       d="m -4.0252261,18.824915 c 0,0 -0.3600949,10.627964 1.3250321,15.426192 0.717252,2.0423 3.51622598,5.459404 3.51622598,5.459404 0,0 -3.23712598,1.768592 -4.62661198,2.961027 -0.779476,0.668935 -1.143898,1.803674 -2.03571,2.313311 -1.281519,0.732335 -4.349016,1.758112 -4.349016,0.832789 0,-0.925322 -0.01646,-22.986725 -0.01646,-22.986725 z"
       id="path17072"
       sodipodi:nodetypes="cscssscc" />
    <path
       style="fill:#1f1a17;fill-opacity:1;stroke:none;stroke-width:0.186131px;stroke-linecap:butt;stroke-linejoin:miter;stroke-opacity:1"
       d="m -20.903319,23.136232 6.132651,1.72402 4.459696,-1.536833 -0.01523,15.333054 c 0,0 -3.279089,1.431747 -5.021768,1.45582 -1.797091,0.0248 -5.218057,-1.357675 -5.218057,-1.357675 z"
       id="path17076"
       sodipodi:nodetypes="ccccscc" />
  </g>
</svg>
