<?xml version="1.0" encoding="UTF-8" standalone="no"?>
<svg
   height="92"
   width="92"
   version="1.1"
   id="svg36"
   sodipodi:docname="banner.svg"
   inkscape:version="1.2.2 (b0a8486541, 2022-12-01)"
   xmlns:inkscape="http://www.inkscape.org/namespaces/inkscape"
   xmlns:sodipodi="http://sodipodi.sourceforge.net/DTD/sodipodi-0.dtd"
   xmlns="http://www.w3.org/2000/svg"
   xmlns:svg="http://www.w3.org/2000/svg">
  <defs
     id="defs40" />
  <sodipodi:namedview
     id="namedview38"
     pagecolor="#ffffff"
     bordercolor="#666666"
     borderopacity="1.0"
     inkscape:showpageshadow="2"
     inkscape:pageopacity="0.0"
     inkscape:pagecheckerboard="0"
     inkscape:deskcolor="#d1d1d1"
     showgrid="false"
     inkscape:zoom="11.681314"
     inkscape:cx="75.205581"
     inkscape:cy="46.912531"
     inkscape:window-width="2494"
     inkscape:window-height="1371"
     inkscape:window-x="0"
     inkscape:window-y="0"
     inkscape:window-maximized="1"
     inkscape:current-layer="svg36" />
  <circle
     style="fill:#ffff00;stroke-width:2;stroke-linecap:round;fill-opacity:1"
     id="path1300"
     cx="46.184669"
     cy="45.792622"
     r="44.838753" />
  <path
     d="m 78.835384,57.539022 c -0.376558,-3.266149 -2.822811,-9.530247 -6.424197,-14.575836 -3.995314,-5.597485 -13.985791,-7.99049 -18.126375,-7.901008 -1.846693,4.329296 -4.086729,10.005568 -17.475565,11.420331 0,1.087024 -0.110519,5.259766 -0.123952,6.892303 -1.734478,0.115892 -4.491949,0.203328 -6.362513,0.08103 -0.34165,1.182541 -0.618959,3.532187 -0.564518,4.165278 15.818738,0.320326 33.442397,0.04306 49.07712,-0.08215 z"
     id="path16"
     style="fill:#888888;stroke:#888888;stroke-width:1.72227;fill-opacity:1" />
  <path
     d="m 35.060041,36.655763 c -1.472409,-0.545886 -1.879948,0.619351 -2.591663,1.295832 0.134353,0.833292 -0.280806,1.211274 1.295832,3.239577 1.371076,0.478708 3.070882,0.106386 4.75138,-0.215974 1.821311,0.313188 2.815819,1.039769 3.887492,1.727774 -0.135636,-1.477578 -0.974595,-2.649684 -2.159718,-3.671519 z"
     stroke-width="2.15972"
     id="path2"
     style="fill:#888888;stroke:#888888" />
  <path
     d="m 35.923929,34.064102 c -1.775548,0.216514 -2.901518,0.94097 -3.67152,1.943746 0.69031,-0.02118 1.414529,-0.05935 2.375688,-0.215972 1.75369,-1.549018 2.824025,-0.609816 4.103463,-0.431942 -0.740975,-0.496907 -1.655076,-0.936117 -2.807631,-1.295832 z"
     stroke-width="2.16312"
     id="path4"
     style="fill:#888888;stroke:#888888" />
  <path
     d="m 59.392131,61.886803 c -0.187807,-1.76694 0.878783,-5.984272 6.50198,-6.211714 3.012536,-5.62038 7.873664,-5.470603 11.262362,0 3.265966,0.294079 5.857883,1.446035 5.747287,6.037557"
     stroke-width="1.03336"
     id="path6"
     style="fill:#888888;stroke:#888888" />
  <path
     d="M 41.490058,82.422705 53.950561,60.211963 54.397917,85.675298 54.083679,60.209967 67.202743,82.038194 54.19795,60.141695 76.473508,72.485951 54.262765,60.025436 79.726097,59.578086 54.260777,59.892334 76.089002,46.773249 54.192497,59.778066 66.536765,37.502491 54.076239,59.713238 53.628883,34.249903 53.943143,59.715229 40.824057,37.887008 53.828873,59.783501 31.553292,47.439251 53.764035,59.899766 28.300703,60.347114 53.766045,60.032859 31.93782,73.151945 53.834303,60.147136 Z"
     stroke-linecap="square"
     stroke-width="1.17082"
     id="path22"
     style="fill:#888888;stroke:#888888" />
  <path
     d="m 9.925984,12.339337 c 20.804876,1.428264 27.961499,1.341021 35.807287,1.313599 l -0.198206,31.544623 1.993049,-0.0593 0.395893,-31.48532 C 69.939231,13.804518 80.251558,13.332316 86.904809,12.339342 59.005391,3.40893 31.793647,3.239057 9.925984,12.339337 Z"
     id="path8"
     style="fill:#888888;stroke:#888888;stroke-width:1.72227" />
  <path
     d="M 53.646224,31.078357 A 28.867829,28.867829 0 0 1 82.512619,59.944746 28.867829,28.867829 0 0 1 53.646224,88.81552 28.867829,28.867829 0 0 1 24.775464,59.944746 28.867829,28.867829 0 0 1 53.646224,31.078357 Z m 0,4.332143 A 24.537653,24.537653 0 0 0 29.107606,59.944746 24.537653,24.537653 0 0 0 53.646224,84.483364 24.537653,24.537653 0 0 0 78.184838,59.944746 24.537653,24.537653 0 0 0 53.646224,35.4105 Z"
     stroke-linecap="square"
     stroke-width="0.223594"
     id="path10"
     style="fill:#888888;stroke:#888888" />
  <path
     d="m 19.711085,53.053458 c -1.89512,-2.726912 -3.535131,-7.096082 -5.204576,-10.274316 l -7.0857291,-0.13122 c -0.9852027,1.48713 -1.3803612,2.97426 -0.3936619,4.46139 l 5.248702,0.393653 c 1.169443,3.915798 2.807451,6.894521 4.461401,9.841302 l 7.765135,0.289876 c 0.186548,-1.995409 -0.04021,-1.38383 0.62145,-4.4984 -2.127038,0.08823 -3.315922,0.03815 -5.412721,-0.08229 z"
     stroke-width="2.23594"
     id="path12"
     style="fill:#888888;stroke:#888888" />
  <path
     d="m 78.84759,15.67611 c 0.06746,10.133875 0.457981,20.305075 0.198156,29.204028 -8.262814,-10.03533 -10.33456,-11.844404 -24.301857,-14.468609 0.458208,-3.477454 8.825789,-14.054361 13.94436,-15.199846 z"
     stroke-width="2.23594"
     id="path14"
     style="fill:#888888;stroke:#888888" />
  <path
     d="M 54.656722,57.105457 65.886201,37.315245"
     stroke-width="0.344455"
     id="path18"
     style="fill:#888888;stroke:#888888" />
</svg>
