<?xml version="1.0" encoding="UTF-8" standalone="no"?>
<svg
   enable-background="new 0 0 620 620"
   height="620"
   viewBox="0 0 620 620"
   width="620"
   version="1.1"
   id="svg18"
   sodipodi:docname="dragon_chess_dragon.svg"
   inkscape:version="1.2.2 (b0a8486541, 2022-12-01)"
   xmlns:inkscape="http://www.inkscape.org/namespaces/inkscape"
   xmlns:sodipodi="http://sodipodi.sourceforge.net/DTD/sodipodi-0.dtd"
   xmlns="http://www.w3.org/2000/svg"
   xmlns:svg="http://www.w3.org/2000/svg">
  <defs
     id="defs22" />
  <sodipodi:namedview
     id="namedview20"
     pagecolor="#ffffff"
     bordercolor="#666666"
     borderopacity="1.0"
     inkscape:showpageshadow="2"
     inkscape:pageopacity="0.0"
     inkscape:pagecheckerboard="0"
     inkscape:deskcolor="#d1d1d1"
     showgrid="false"
     inkscape:zoom="0.90643288"
     inkscape:cx="744.1257"
     inkscape:cy="431.36123"
     inkscape:window-width="2494"
     inkscape:window-height="1371"
     inkscape:window-x="0"
     inkscape:window-y="0"
     inkscape:window-maximized="1"
     inkscape:current-layer="svg18" />
  <path
     d="m 443.2,41.6 c -2.4,4.8 -6.7,11.6 -9.6,15.3 -7.1,8.8 -24.3,25.3 -33.6,32.2 -7.3,5.4 -34.5,22.9 -35.6,22.9 -0.3,0 -2,1.1 -3.7,2.4 -1.8,1.4 -5.8,3.8 -9,5.5 -7.5,3.9 -10.2,5.9 -9.4,6.7 0.7,0.7 13.8,-2.7 19.2,-5.1 1.7,-0.7 5,-1.8 7.5,-2.5 4.7,-1.4 21.3,-7.8 29,-11.2 15.4,-6.9 26.7,-13.2 31.3,-17.6 5.1,-4.9 11.4,-15.8 14.9,-25.7 4,-11.3 7.1,-27.1 5.8,-29.6 -0.6,-1 -1.4,-1.9 -1.8,-1.9 -0.4,0 -2.7,3.9 -5,8.6 z"
     id="path2"
     style="stroke-width:0.1;fill:#888888;fill-opacity:1" />
  <path
     d="M 514.8,60.8 C 502.1,71.2 492.1,78.2 482,84 c -4.1,2.3 -8.8,5 -10.5,6 -11.9,6.7 -27.7,15 -28.9,15 -0.3,0 -4.7,2 -9.8,4.4 -27.3,12.9 -70.6,27.6 -93.3,31.6 -29.1,5.2 -47.2,11.6 -60.8,21.4 -3.4,2.4 -12.5,10.9 -20.2,18.8 -10.6,10.8 -16,15.5 -21.8,19 -7.4,4.3 -8.3,4.6 -19.4,5.8 -9.2,1 -13.3,1 -19.8,0.1 -6.9,-1.1 -9,-1 -13.3,0.2 -6.9,2.1 -8.9,3.2 -15,8.8 -9.8,9 -15.7,17.7 -21.2,31.4 -1.8,4.4 -3.8,9.3 -4.5,11 -3.3,8 -5.7,16.4 -5.2,17.9 1.2,2.9 8.4,2.4 53.2,-3.9 20.4,-2.9 49.2,-6.1 81.2,-9 9.4,-0.9 14.7,3 13.6,9.9 -0.8,5.4 -5.7,14.7 -10.1,19 -3.4,3.4 -17.4,13.6 -18.7,13.6 -0.3,0 -3.4,1.3 -6.8,2.9 -3.4,1.6 -11.6,5 -18.2,7.5 -6.6,2.6 -17.4,6.9 -24,9.6 -6.6,2.6 -14.9,6 -18.5,7.3 -16,6.3 -21,9.3 -21,12.6 0,0.9 1.2,3.4 2.8,5.6 1.5,2.1 5.2,8.9 8.2,14.9 4,8.1 6,11.2 7.5,11.4 1.4,0.2 4.8,-2.4 10.5,-8 10,-9.7 19.2,-15.2 35.5,-21.5 35,-13.3 78.8,-17.4 104.4,-9.7 17.2,5.2 24.1,12.8 24.1,26.4 0,8.7 -2.4,21 -5.3,27.3 -5.3,11.7 -19,20.7 -38.3,25.2 -6,1.5 -14.5,3.7 -18.9,4.9 -4.4,1.3 -12.1,3.1 -17.2,4 -27.3,4.8 -52.9,17.8 -68.6,34.6 -9.5,10.3 -15.5,19.3 -21.8,32.5 -4.7,10 -5.9,13.4 -9.9,29 -4.5,17.7 -8.8,56 -6.6,58.3 1,0.9 375.3,0.9 378.9,-0.1 L 557,579 v -19.5 c 0,-21.6 0.5,-20.5 -7.1,-18.1 -20.1,6.3 -30.9,8.5 -47.4,9.5 -19.3,1.3 -29.3,0.1 -41.1,-5 -5.5,-2.3 -11.5,-5.2 -13.4,-6.4 -1.9,-1.2 -6.1,-3.6 -9.2,-5.4 l -5.7,-3.2 -2.6,2.8 c -1.4,1.5 -4,5.5 -5.6,8.8 -3.9,7.8 -8.1,12 -13.4,13.5 -6.6,1.8 -8.4,-0.5 -4.6,-5.8 2.8,-4 9.7,-19 11.4,-24.7 1.1,-4 1.2,-5.7 0.2,-8.5 -0.6,-1.9 -1.9,-3.6 -2.7,-3.8 -2.4,-0.5 -8.5,5.4 -14.5,14 -3,4.2 -8.6,10.6 -12.4,14.2 -5.7,5.3 -7.8,6.6 -11.4,7.2 -7.5,1.1 -8.1,-0.6 -3.5,-9.5 2.9,-5.9 5.7,-14.6 8.7,-27.1 1.1,-4.5 1.6,-11.7 1.6,-23.5 0.1,-17 0.1,-17 -3.5,-27 -2,-5.5 -4.5,-12.2 -5.7,-14.8 -4.5,-10.2 -2.3,-9.5 18.2,6 5,3.8 18.4,10.7 24.7,12.7 16.7,5.3 31.6,6.4 45,3.2 12.7,-3.1 13,-3.1 13,-0.9 0,5.8 -13,16.6 -28.5,23.8 -8.9,4.1 -14.5,7.9 -14.5,9.9 0,1.7 4,5.2 6.7,5.8 1.2,0.3 6.1,-0.2 11,-1.2 4.8,-1 12.9,-2 17.8,-2.2 l 9,-0.3 0.3,2.6 c 0.2,1.4 -0.3,3.1 -1.1,3.8 -0.8,0.6 -6.2,1.8 -12,2.6 -6.1,0.7 -11.6,2 -13.1,3 l -2.6,1.7 2.1,2.9 c 4.5,6.3 20.3,11.9 33.5,11.9 8.2,0 27.6,-2.8 37.6,-5.4 5,-1.4 22.2,-8.9 31.6,-13.9 l 3.2,-1.8 v -45.2 c 0,-48.8 -1,-73.6 -3.6,-91.7 -2,-14.1 -3.1,-17.3 -9.4,-27.6 -2.8,-4.5 -5,-8.4 -5,-8.8 0,-1.2 4.8,-0.6 11,1.4 8.2,2.6 13.4,2.6 16.1,-0.1 1.7,-1.7 1.9,-2.8 1.4,-6.7 -0.4,-2.6 -1.1,-6.1 -1.6,-7.7 -4.4,-15.1 -7.2,-21 -17,-35.6 -7.4,-11.1 -14.2,-19.2 -24.6,-29.4 -4.6,-4.5 -8.3,-8.9 -8.3,-9.8 0,-2.4 8.6,-3.2 14,-1.3 5.8,2 14.9,2.1 15.6,0.2 1.1,-2.8 -3.5,-10.2 -10.9,-17.7 -11.8,-11.7 -25.6,-21.4 -44.4,-31 -9.2,-4.7 -16.9,-9.2 -17.1,-10 -0.4,-2.3 10.5,-3.8 23.4,-3.2 9.5,0.5 11.3,0.3 12.7,-1.2 1.6,-1.6 1.6,-1.8 0,-4.6 -4.1,-7 -26.9,-18.7 -49.8,-25.5 -4.6,-1.4 -8.7,-1.8 -17.3,-1.6 -13.6,0.4 -14.1,-0.5 -3.6,-5.8 3.8,-1.9 8.1,-4.2 9.4,-5.1 1.4,-0.9 5.9,-3.5 10,-5.9 26.5,-15.5 44.8,-34.9 63.7,-67.4 6.4,-11 8.2,-16.8 5.3,-17.2 -0.8,-0.2 -6.3,3.6 -12.2,8.4 z M 321.6,177.4 c 0.9,2.2 -3.2,9.2 -7.3,12.5 -26.3,21.1 -29.1,22.6 -35.9,18.7 -5.5,-3.1 -6.5,-8.4 -2.8,-15.8 3,-5.9 24,-13.8 44.7,-16.7 0.4,-0.1 1,0.5 1.3,1.3 z"
     id="path4"
     style="stroke-width:0.1;fill:#888888;fill-opacity:1" />
  <path
     d="m 256.5,274.1 c -2.2,0.4 -6.4,0.8 -9.3,0.8 -9.2,0.1 -32.4,4.6 -44.5,8.5 -12.8,4.2 -28.6,13.3 -50.2,28.9 -25.7,18.6 -33.3,23.1 -46.6,27.6 -12.2,4 -17.5,4.7 -26.2,3.1 -14.1,-2.4 -19,-4.5 -24.9,-10.8 -3.9,-4.1 -6,-7.3 -7.3,-11.2 -2,-6.2 -4.1,-10 -5.5,-10 -0.6,0 -1,3.6 -1,8.4 0,7.5 0.3,9 3.5,15.4 10,20 36.5,27.4 65,18.2 10.1,-3.2 22.9,-8.8 27.5,-12.1 1.4,-0.9 7.9,-5.2 14.5,-9.5 6.6,-4.2 15.6,-10.1 20,-12.9 22.2,-14.5 32.7,-18.1 66,-22.5 10.3,-1.4 19.8,-3.6 23.5,-5.5 4.3,-2.2 7.9,-6.6 9.1,-10.8 0.9,-3.6 0.8,-4.3 -0.7,-5.4 -2,-1.4 -6.7,-1.5 -12.9,-0.2 z"
     id="path6"
     style="stroke-width:0.1;fill:#888888;fill-opacity:1" />
</svg>
