<?xml version="1.0" encoding="UTF-8" standalone="no"?>
<svg
   height="45"
   width="45"
   version="1.1"
   id="svg14"
   sodipodi:docname="dragon.svg"
   inkscape:version="1.2.2 (b0a8486541, 2022-12-01)"
   xmlns:inkscape="http://www.inkscape.org/namespaces/inkscape"
   xmlns:sodipodi="http://sodipodi.sourceforge.net/DTD/sodipodi-0.dtd"
   xmlns="http://www.w3.org/2000/svg"
   xmlns:svg="http://www.w3.org/2000/svg">
  <defs
     id="defs18" />
  <sodipodi:namedview
     id="namedview16"
     pagecolor="#ffffff"
     bordercolor="#666666"
     borderopacity="1.0"
     inkscape:showpageshadow="2"
     inkscape:pageopacity="0.0"
     inkscape:pagecheckerboard="0"
     inkscape:deskcolor="#d1d1d1"
     showgrid="false"
     inkscape:zoom="22.822222"
     inkscape:cx="21.010224"
     inkscape:cy="22.478092"
     inkscape:window-width="2494"
     inkscape:window-height="1371"
     inkscape:window-x="0"
     inkscape:window-y="0"
     inkscape:window-maximized="1"
     inkscape:current-layer="svg14" />
  <path
     d="m 16.906808,14.782552 c 1.870262,-1.904675 4.451748,-3.5838 7.06902,-4.347402 C 39.4786,5.912137 42.544607,14.881662 41.626584,20.71034 40.822579,25.815099 30.517138,33.635564 34.067693,39 l -16.052995,-1.52e-4 c -1.114382,-7.6863 7.431465,-13.349509 11.915371,-16.55142 4.233107,-4.673165 -3.312484,-8.033668 -8.075738,-3.914518 z"
     id="path2"
     style="fill:#888888;fill-rule:evenodd;stroke:#888888;stroke-width:1.5;stroke-linecap:round;stroke-linejoin:round" />
  <path
     d="m 29.218189,23.967598 c -0.628005,0.120395 -7.981902,-3.612747 -8.230532,-3.103616 -1.404899,2.876869 -1.70753,4.443371 -7.639014,10.321679 -0.224038,0.222026 -4.845723,-2.712578 -4.2117194,-2.362274 l 1.5559934,0.859705 c 3.111769,-3.358094 5.968447,-6.668358 6.00413,-9.449686 -4.11065,1.057978 -7.7951281,3.104243 -9.7669488,4.774773 -0.2749238,0.232922 -0.5165586,0.458534 -0.7214109,0.673144 -0.1766278,0.185112 1.1386665,1.271079 1.0189522,1.437421 C 6.4784278,26.4192 3.1726142,25.033079 3.2253829,24.325203 3.3290822,22.934134 7.5890578,20.41512 8.5632174,18.949036 8.8618592,18.499589 9.3319223,16.034191 9.4741711,15.462678 11.127443,9.8481822 22.577146,5.0027879 26.144789,4.5602958 c 0.177661,-0.022036 -6.414034,7.7049322 -6.24947,7.6780082 0.255106,-0.04174 1.228475,-0.193807 2.387616,-0.384839 2.059935,-0.339488 8.78988,1.21684 9.034623,1.031827 -3.115896,0.859281 -6.493011,1.282878 -8.630319,3.774323 4.799308,1.434303 5.329727,4.499262 6.53095,7.307983 z"
     id="path4"
     style="fill:#888888;fill-rule:evenodd;stroke:#888888;stroke-width:1.5;stroke-linecap:round;stroke-linejoin:round" />
  <path
     d="m 21.409507,39.167626 c 0.466577,-3.680871 1.786401,-6.43255 6.070698,-9.707547 2.721338,-2.080241 5.151511,-6.094539 5.879187,-8.567222 2.298346,-7.809909 -7.628492,-5.052413 -8.243087,-4.19931"
     stroke-linecap="butt"
     stroke-linejoin="miter"
     stroke-width="1.5"
     id="path10"
     style="fill:#888888;fill-rule:evenodd;stroke:#888888" />
</svg>
