<svg height="45" width="45" xmlns="http://www.w3.org/2000/svg"><g style="stroke-linejoin:round;stroke-linecap:round;stroke-width:1.5;fill-rule:evenodd;fill:#888;stroke:#888" transform="translate(.225074)"><path d="m16.681734 14.782552c1.870262-1.904675 4.451748-3.5838 7.06902-4.347402 15.502772-4.523013 18.568779 4.446512 17.650756 10.27519-.804005 5.104759-11.109446 12.925224-7.558891 18.28966l-16.052995-.000152c-1.114382-7.6863 7.431465-13.349509 11.915371-16.55142 4.233107-4.673165-3.312484-8.033668-8.075738-3.914518z"/><g transform="matrix(.8660254 .5 -.5 .8660254 12.062572 -3.219934)"><path d="m28.256047 15.079822c-.483671.418268-8.718904.86222-8.679658 1.427456.221756 3.193891.742921 4.701837-1.454741 12.758343-.08301.304299-5.552808.0737-4.828593.06007l1.777382-.03347c1.015825-4.464079 1.834648-8.759191.474887-11.185733-3.030939 2.971561-5.198658 6.585917-6.0710396 9.018549-.1216302.339178-.2180861.655381-.2881883.943665-.060408.248626 1.6216539.531454 1.6011489.735367-.9986083-.231217-4.5545873.221274-4.8628262-.418149-.6057285-1.256551 1.8240116-5.568069 1.934617-7.324814.0339076-.538554-.791705-2.908683-.9542703-3.474752-1.375472-5.688932 6.1175645-15.610018 8.9859875-17.7770487.142841-.1079141-1.70225 9.8796834-1.573196 9.7740849.20006-.1636975.966988-.7820791 1.875317-1.527088 1.614212-1.3239723 8.220679-3.3411256 8.340126-3.6237234-2.268804 2.3021069-4.981673 4.3575106-5.586913 7.5838192 4.873474-1.157511 6.86531 1.231612 9.30996 3.063424z"/><path d="m10.828449 15.264105c1.00278-1.745764 1.87649-1.241312.866.5-1.00278 1.745764-1.8764896 1.241312-.866-.5z"/></g><path d="m21.184433 39.167626c.466577-3.680871 1.786401-6.43255 6.070698-9.707547 2.721338-2.080241 5.151511-6.094539 5.879187-8.567222 2.298346-7.809909-7.628492-5.052413-8.243087-4.19931" stroke-linecap="butt" stroke-linejoin="miter" stroke-width="1.5"/></g></svg>