<?xml version="1.0" encoding="UTF-8" standalone="no"?>
<svg
   height="45"
   width="45"
   version="1.1"
   id="svg14"
   sodipodi:docname="falcon.svg"
   inkscape:version="1.2.2 (b0a8486541, 2022-12-01)"
   xmlns:inkscape="http://www.inkscape.org/namespaces/inkscape"
   xmlns:sodipodi="http://sodipodi.sourceforge.net/DTD/sodipodi-0.dtd"
   xmlns="http://www.w3.org/2000/svg"
   xmlns:svg="http://www.w3.org/2000/svg">
  <defs
     id="defs18" />
  <sodipodi:namedview
     id="namedview16"
     pagecolor="#ffffff"
     bordercolor="#666666"
     borderopacity="1.0"
     inkscape:showpageshadow="2"
     inkscape:pageopacity="0.0"
     inkscape:pagecheckerboard="0"
     inkscape:deskcolor="#d1d1d1"
     showgrid="false"
     inkscape:zoom="22.822222"
     inkscape:cx="22.5"
     inkscape:cy="22.478092"
     inkscape:window-width="2494"
     inkscape:window-height="1371"
     inkscape:window-x="0"
     inkscape:window-y="0"
     inkscape:window-maximized="1"
     inkscape:current-layer="svg14" />
  <path
     d="m 4.9630169,18.992789 c -0.5706766,1.57804 1.2814122,5.032539 2.5784067,5.712663 2.2805839,-4.217112 2.5429074,-3.541107 4.7121814,-3.05532 2.621087,0.586965 2.545309,3.449539 1.990485,6.526885 -0.510371,3.191753 -2.822092,8.704278 -4.8982178,10.671075 l 22.7821148,-0.0074 c 0.113962,-6.423279 0.283405,-13.08979 -1.569872,-19.209138 -1.197059,-4.047758 -3.936602,-7.191921 -7.194294,-8.785128 -1.444484,-0.70644 -2.953317,-0.714635 -4.453489,-0.665781 -5.140077,0.518221 -13.6617252,3.791762 -13.9473151,8.812118 z"
     stroke-linejoin="round"
     id="path2"
     style="fill:#888888;stroke:#888888;stroke-width:1.5" />
  <path
     d="m 25.546053,38.893501 c -0.263943,-0.131972 -7.858748,-5.813017 -7.738288,-11.244109 0.07616,-3.433868 2.503641,-7.5705 5.806748,-8.512165 2.822093,-0.804535 4.529692,1.585392 6.697556,3.563232 5.208148,4.751629 9.453917,16.29202 9.453917,16.29202 z"
     stroke="#888888"
     stroke-width="1.5"
     id="path10"
     style="fill:#888888" />
</svg>
