<?xml version="1.0" encoding="UTF-8" standalone="no"?>
<svg
   xmlns:dc="http://purl.org/dc/elements/1.1/"
   xmlns:cc="http://creativecommons.org/ns#"
   xmlns:rdf="http://www.w3.org/1999/02/22-rdf-syntax-ns#"
   xmlns:svg="http://www.w3.org/2000/svg"
   xmlns="http://www.w3.org/2000/svg"
   xmlns:sodipodi="http://sodipodi.sourceforge.net/DTD/sodipodi-0.dtd"
   xmlns:inkscape="http://www.inkscape.org/namespaces/inkscape"
   width="45"
   height="45"
   version="1.1"
   id="svg2101"
   sodipodi:docname="falcon.svg"
   inkscape:version="0.92.5 (2060ec1f9f, 2020-04-08)">
  <metadata
     id="metadata2107">
    <rdf:RDF>
      <cc:Work
         rdf:about="">
        <dc:format>image/svg+xml</dc:format>
        <dc:type
           rdf:resource="http://purl.org/dc/dcmitype/StillImage" />
        <dc:title></dc:title>
      </cc:Work>
    </rdf:RDF>
  </metadata>
  <defs
     id="defs2105">
    <linearGradient
       gradientUnits="userSpaceOnUse"
       x2="77.639999"
       x1="21.405001"
       id="0"
       gradientTransform="matrix(0.88961068,0,0,0.88961068,-49.158807,-0.35826517)">
      <stop
         id="stop3316"
         stop-color="#fff" />
      <stop
         id="stop3318"
         stop-opacity="0"
         stop-color="#fff"
         offset="1" />
    </linearGradient>
  </defs>
  <sodipodi:namedview
     inkscape:document-rotation="0"
     pagecolor="#ffffff"
     bordercolor="#666666"
     borderopacity="1"
     objecttolerance="10"
     gridtolerance="10"
     guidetolerance="10"
     inkscape:pageopacity="0"
     inkscape:pageshadow="2"
     inkscape:window-width="1848"
     inkscape:window-height="1016"
     id="namedview2103"
     showgrid="false"
     inkscape:zoom="9.6444444"
     inkscape:cx="-25.292617"
     inkscape:cy="35.768569"
     inkscape:window-x="72"
     inkscape:window-y="27"
     inkscape:window-maximized="1"
     inkscape:current-layer="svg2101" />
  <g
     style="fill:#888888;fill-opacity:1;stroke:#888888;stroke-width:1.8442;stroke-miterlimit:4;stroke-dasharray:none;stroke-opacity:1"
     id="g13475"
     transform="matrix(0.73466667,0,0,0.90048402,-48.271553,-18.189777)">
    <path
       sodipodi:nodetypes="ccsccccsccc"
       d="m 72.460848,41.291756 c -0.776783,1.752435 1.744209,5.588704 3.509628,6.343991 3.104243,-4.683161 3.461308,-3.932448 6.41404,-3.392975 3.567723,0.651833 3.464576,3.830761 2.709372,7.248196 -0.694698,3.544486 -3.841324,9.666222 -6.667266,11.850377 l 31.010138,-0.0082 c 0.15512,-7.13314 0.38576,-14.536393 -2.13685,-21.332014 -1.62939,-4.495092 -5.35835,-7.986728 -9.792595,-9.756007 -1.966177,-0.784511 -4.019942,-0.793612 -6.061919,-0.739359 -6.996475,0.575492 -18.595814,4.210804 -18.984548,9.785979 z"
       style="fill:#888888;fill-opacity:1;stroke:#888888;stroke-width:1.8442;stroke-linecap:butt;stroke-linejoin:round;stroke-miterlimit:4;stroke-dasharray:none;stroke-opacity:1"
       id="path13430" />
    <path
       sodipodi:nodetypes="cc"
       d="m 83.889852,41.116913 c -5.084257,-1.18504 -11.221022,1.750261 -7.919376,6.518834"
       style="fill:#888888;fill-opacity:1;stroke:#888888;stroke-width:1.8442;stroke-linecap:butt;stroke-linejoin:miter;stroke-miterlimit:4;stroke-dasharray:none;stroke-opacity:1"
       id="path13432" />
  </g>
  <path
     d="m 16.308982,15.838499 c -3.852354,0.01302 -3.852327,-2.939609 2.3e-5,-2.926573 3.852354,-0.01302 3.852329,2.93961 -2.3e-5,2.926573 z"
     fill="#000000"
     id="path5875"
     sodipodi:nodetypes="ccc"
     style="stroke-width:2.36645;fill:#888888;fill-opacity:1" />
  <path
     style="fill:#888888;fill-opacity:1;stroke:#888888;stroke-width:1.5;stroke-linecap:butt;stroke-linejoin:miter;stroke-miterlimit:4;stroke-dasharray:none;stroke-opacity:1"
     d="m 25.546053,38.893501 c -0.263943,-0.131972 -7.858748,-5.813017 -7.738288,-11.244109 0.07616,-3.433868 2.503641,-7.5705 5.806748,-8.512165 2.822093,-0.804535 4.529692,1.585392 6.697556,3.563232 5.208148,4.751629 9.453917,16.29202 9.453917,16.29202 z"
     id="path888"
     sodipodi:nodetypes="cssscc" />
</svg>
