<?xml version="1.0" encoding="UTF-8" standalone="no"?>
<svg
   width="177.17"
   height="177.17"
   shape-rendering="geometricPrecision"
   image-rendering="optimizeQuality"
   fill-rule="evenodd"
   clip-rule="evenodd"
   viewBox="0 0 50 50"
   version="1.1"
   id="svg15290"
   sodipodi:docname="ferz.svg"
   inkscape:version="1.2.2 (b0a8486541, 2022-12-01)"
   inkscape:export-filename="D:\Pictures\Chess Variants\Chess\pieces\Shogun\wD.png"
   inkscape:export-xdpi="108.37049"
   inkscape:export-ydpi="108.37049"
   xmlns:inkscape="http://www.inkscape.org/namespaces/inkscape"
   xmlns:sodipodi="http://sodipodi.sourceforge.net/DTD/sodipodi-0.dtd"
   xmlns="http://www.w3.org/2000/svg"
   xmlns:svg="http://www.w3.org/2000/svg"
   xmlns:rdf="http://www.w3.org/1999/02/22-rdf-syntax-ns#"
   xmlns:cc="http://creativecommons.org/ns#"
   xmlns:dc="http://purl.org/dc/elements/1.1/">
  <metadata
     id="metadata15294">
    <rdf:RDF>
      <cc:Work
         rdf:about="">
        <dc:format>image/svg+xml</dc:format>
        <dc:type
           rdf:resource="http://purl.org/dc/dcmitype/StillImage" />
      </cc:Work>
    </rdf:RDF>
  </metadata>
  <sodipodi:namedview
     pagecolor="#ffffff"
     bordercolor="#666666"
     borderopacity="1"
     objecttolerance="10"
     gridtolerance="10"
     guidetolerance="10"
     inkscape:pageopacity="0"
     inkscape:pageshadow="2"
     inkscape:window-width="2494"
     inkscape:window-height="1371"
     id="namedview15292"
     showgrid="false"
     inkscape:zoom="10.151632"
     inkscape:cx="84.56768"
     inkscape:cy="72.796174"
     inkscape:window-x="0"
     inkscape:window-y="0"
     inkscape:window-maximized="1"
     inkscape:current-layer="svg15290"
     inkscape:showpageshadow="2"
     inkscape:pagecheckerboard="0"
     inkscape:deskcolor="#d1d1d1" />
  <defs
     id="defs15282">
    <linearGradient
       id="0"
       x1="21.253"
       y1="37.22"
       x2="77.64"
       y2="37.35"
       gradientUnits="userSpaceOnUse">
      <stop
         stop-color="#fff"
         id="stop15277" />
      <stop
         offset="1"
         stop-color="#fff"
         stop-opacity="0"
         id="stop15279" />
    </linearGradient>
    <linearGradient
       gradientTransform="translate(0.12393216,-0.27128804)"
       id="0-1"
       x1="21.253"
       y1="37.220001"
       x2="77.760002"
       y2="37.360001"
       gradientUnits="userSpaceOnUse">
      <stop
         stop-color="#fff"
         id="stop16502" />
      <stop
         offset="1"
         stop-color="#fff"
         stop-opacity="0"
         id="stop16504" />
    </linearGradient>
  </defs>
  <g
     id="g1238"
     style="fill:#888888;fill-opacity:1;stroke:#888888;stroke-opacity:1">
    <g
       id="g15288"
       transform="translate(0,4.1946909)"
       style="stroke:#888888;stroke-width:0.076;fill:#888888;fill-opacity:1;stroke-opacity:1">
      <path
         d="m 44.541,14.723 c -0.94,0 -1.744,-0.33 -2.405,-0.982 -0.66,-0.652 -0.991,-1.448 -0.991,-2.396 0,-0.923 0.33,-1.719 0.991,-2.388 0.66,-0.677 1.465,-1.01 2.405,-1.01 0.931,0 1.727,0.33 2.388,1.01 0.66,0.669 0.991,1.465 0.991,2.388 0,0.948 -0.33,1.744 -0.991,2.396 -0.66,0.652 -1.456,0.982 -2.388,0.982 z m -4.31,25.025299 c -0.813,0.711 -2.633,1.304 -5.461,1.786 -2.828,0.474 -6.087,0.72 -9.77,0.72 -3.751,0 -7.05,-0.254 -9.898,-0.745 -2.845,-0.499 -4.64,-1.118 -5.385,-1.863 L 11.058284,34.892785 8.4424527,30.275905 6.297,14.775 7.508,14.301 15.101492,27.186085 c 1.19031,-0.566072 1.257078,-0.777346 2.482201,-2.007822 L 20.955237,26.966085 24.103,10.779 h 1.719 l 3.18898,16.205108 c 1.575611,-0.258062 2.459179,-1.341488 3.48627,-1.828063 0.644572,0.762385 1.438955,1.937322 2.083527,2.323778 L 42.416,14.276 l 1.16,0.542 -2.057,15.359 -2.604378,3.993731 1.317378,5.580568 z M 5.399,14.725 c -0.94,0 -1.736,-0.33 -2.388,-0.982 -0.652,-0.652 -0.982,-1.448 -0.982,-2.396 0,-0.923 0.33,-1.719 0.982,-2.388 0.652,-0.677 1.448,-1.01 2.388,-1.01 0.948,0 1.744,0.33 2.413,1.01 0.66,0.669 0.991,1.465 0.991,2.388 0,0.948 -0.33,1.744 -0.991,2.396 -0.669,0.652 -1.465,0.982 -2.413,0.982 z m 19.55,-3.971 c -0.94,0 -1.744,-0.33 -2.396,-0.991 -0.652,-0.66 -0.974,-1.465 -0.974,-2.405 0,-0.931 0.322,-1.727 0.974,-2.388 0.652,-0.66 1.456,-0.991 2.396,-0.991 0.923,0 1.727,0.33 2.396,0.991 0.669,0.66 0.999,1.456 0.999,2.388 0,0.94 -0.33,1.744 -0.999,2.405 -0.669,0.66 -1.473,0.991 -2.396,0.991 z"
         id="path15284"
         inkscape:connector-curvature="0"
         style="fill:#888888;fill-opacity:1;stroke:#888888;stroke-opacity:1"
         sodipodi:nodetypes="scscscscsccsccccccccccccccccccccssscscscsscscscscs" />
    </g>
  </g>
</svg>
