<svg height="45" width="45" xmlns="http://www.w3.org/2000/svg"><g fill="#888" stroke="none" stroke-opacity="0" stroke-width="1.777402" transform="matrix(.8162963 0 0 1.0005378 -51.776083 -25.464346)"><path d="m84.568171 35.093828c-2.072381.04994-4.198734-.295631-6.217144.149811-2.799614.617846-5.775233 2.851469-5.890179 6.048117-.04973 1.428887.4488 2.811305 1.096232 4.064111-.255186-1.756138.966474-3.637155 2.867885-3.505849 1.612524.123717 3.466373-.369343 4.747018.853914 2.857269 1.860976 4.677109 5.369601 3.921905 8.787036-.694698 3.544486-2.943151 6.661819-5.769093 8.845974l4.419419.449433-.524338 3.07112 4.269605-2.92131 2.316829 3.401302 2.882373-3.040559 2.965485 2.860189 2.022444-2.696597c1.286932.562474 2.074558 3.169457 2.786378 3.25234.56932-.984239 1.13863-1.968478 1.70795-2.952717 1.12977.457015 2.29496 2.993716 2.8464 2.754279l.94941-3.743329 3.47001 2.562064c.15512-7.13314.38576-14.536393-2.13685-21.332014-1.62939-4.495092-5.35835-7.986728-9.792595-9.756007-1.966177-.784511-4.019942-.793612-6.061919-.739359-1.629862.0433-3.53967.176519-4.658165 1.531362z"/><path d="m91.159846 44.531907-11.552278-2.621688"/><path d="m93.593182 36.859118c-.05549 1.660747-2.186911 2.278321-3.544275 1.833349-.751913-.207072-1.513266-.836851-1.480846-1.680341 1.678467.01426 3.350465-.03682 5.025121-.153008z"/></g></svg>