<?xml version="1.0" encoding="UTF-8" standalone="no"?>
<svg
   height="45"
   width="45"
   version="1.1"
   id="svg12"
   sodipodi:docname="jaguar.svg"
   inkscape:version="1.2.2 (b0a8486541, 2022-12-01)"
   xmlns:inkscape="http://www.inkscape.org/namespaces/inkscape"
   xmlns:sodipodi="http://sodipodi.sourceforge.net/DTD/sodipodi-0.dtd"
   xmlns="http://www.w3.org/2000/svg"
   xmlns:svg="http://www.w3.org/2000/svg">
  <defs
     id="defs16" />
  <sodipodi:namedview
     id="namedview14"
     pagecolor="#ffffff"
     bordercolor="#666666"
     borderopacity="1.0"
     inkscape:showpageshadow="2"
     inkscape:pageopacity="0.0"
     inkscape:pagecheckerboard="0"
     inkscape:deskcolor="#d1d1d1"
     showgrid="false"
     inkscape:zoom="22.822222"
     inkscape:cx="22.5"
     inkscape:cy="22.478092"
     inkscape:window-width="2494"
     inkscape:window-height="1371"
     inkscape:window-x="0"
     inkscape:window-y="0"
     inkscape:window-maximized="1"
     inkscape:current-layer="svg12" />
  <path
     d="m 24.666775,17.086522 c 0.396694,0.23802 7.560391,-6.663495 6.0613,-7.8000437 -1.141296,-0.8652852 -16.475542,3.4362597 -16.772512,5.6815177 -3.019343,1.362854 -2.948441,4.242631 -3.724346,6.353298 l -6.4263241,4.235532 c -0.1049224,1.420482 0.4944353,2.036062 1.752634,1.898686 1.6457649,4.121542 3.2592886,3.697396 5.2579011,4.819743 -1.0300139,-1.461007 -1.6009392,-3.040263 -0.639519,-3.724347 2.560201,-1.82167 6.287395,-2.458671 7.353298,0.456484 0.696356,1.90447 -1.559839,5.949048 -4.011802,5.458655 l -2.555924,-0.511185 c 0,0 1.472989,2.981573 2.84803,3.724347 1.181054,0.637985 2.75845,0.760456 4.016454,0.292106 0.158234,-1.59215 1.99725,-3.408859 3.724345,-3.724347 4.597743,-0.839871 12.779618,5.769087 12.779618,5.769087 0,0 3.288231,-2.93878 5.423739,-6.911895 2.224317,-4.13833 0.07299,-16.863125 -2.137544,-16.310503 l -7.448691,-1.898687 -3.538559,1.423701"
     stroke-linecap="round"
     stroke-width="1.5"
     id="path2"
     style="fill:#888888;stroke:#888888" />
</svg>
