<svg height="92" width="92" xmlns="http://www.w3.org/2000/svg"><g fill="#888" stroke="#888"><path d="m33.185401 25.455348c-1.62043-.600764-2.068937.681615-2.8522 1.426102.147859.917061-.309036 1.333042 1.426101 3.56525 1.508909.526832 3.379596.11708 5.229034-.237685 2.004407.344672 3.098892 1.144296 4.2783 1.901465-.149272-1.626117-1.07257-2.916055-2.376834-4.040614z" stroke-width="2.376833"/><path d="m34.136136 22.603148c-1.954042.23828-3.193206 1.035565-4.040617 2.139151.759707-.02331 1.556731-.06531 2.614516-.237683 1.929988-1.704742 3.107923-.671122 4.515983-.475367-.815466-.54686-1.821461-1.030223-3.089882-1.426101z" stroke-width="2.380576"/><path d="m5.736891 24.21104c-1.4253404 2.154639-2.147337 4.403449-2.7317796 6.669797-.2035641 2.526263-.9599463 4.980004-.5163961 7.592217 11.1949967 2.501437 24.8377447 4.034218 41.6034537 7.781431 2.478626-1.105646 5.26167-1.696782 8.045542-1.714752 6.130822-.03958 12.453175 2.548012 15.279041 8.017947 2.708846.863293 5.459428 1.769595 8.301769 2.779082 0 0 7.059063-1.517781 9.902205-8.199278.33353.127556.692052.201142 1.056445.216808 1.587901.06525 2.91908-.960503 2.97224-2.29028.05381-1.328628-1.188562-2.458054-2.775141-2.522855-.04991-.0024-.09984-.0036-.149797-.004.830718-7.660851-5.585756-11.38823-5.585756-11.38823zm46.132767 22.674159c-5.603753.03617-11.154383 2.643144-12.913864 7.706532-2.530175 7.281274-8.585897 19.14727-7.588273 21.842406h42.00159c.553476-3.145585-5.511215-14.56113-8.266291-21.842406-1.970629-5.208089-7.62941-7.742708-13.233162-7.706532z" stroke-miterlimit="10" stroke-width="1.887053"/></g></svg>