<?xml version="1.0" encoding="UTF-8" standalone="no"?>
<svg
   clip-rule="evenodd"
   fill-rule="evenodd"
   height="177.17"
   image-rendering="optimizeQuality"
   shape-rendering="geometricPrecision"
   viewBox="0 0 50 50"
   width="177.17"
   version="1.1"
   id="svg175"
   sodipodi:docname="khetun.svg"
   inkscape:version="1.2.2 (b0a8486541, 2022-12-01)"
   xmlns:inkscape="http://www.inkscape.org/namespaces/inkscape"
   xmlns:sodipodi="http://sodipodi.sourceforge.net/DTD/sodipodi-0.dtd"
   xmlns:xlink="http://www.w3.org/1999/xlink"
   xmlns="http://www.w3.org/2000/svg"
   xmlns:svg="http://www.w3.org/2000/svg">
  <defs
     id="defs179" />
  <sodipodi:namedview
     id="namedview177"
     pagecolor="#ffffff"
     bordercolor="#666666"
     borderopacity="1.0"
     inkscape:showpageshadow="2"
     inkscape:pageopacity="0.0"
     inkscape:pagecheckerboard="0"
     inkscape:deskcolor="#d1d1d1"
     showgrid="false"
     inkscape:zoom="5.7966925"
     inkscape:cx="86.859877"
     inkscape:cy="88.498743"
     inkscape:window-width="2494"
     inkscape:window-height="1371"
     inkscape:window-x="0"
     inkscape:window-y="0"
     inkscape:window-maximized="1"
     inkscape:current-layer="svg175" />
  <linearGradient
     id="a">
    <stop
       offset="0"
       stop-color="#fdd229"
       id="stop148" />
    <stop
       offset="1"
       stop-color="#967907"
       id="stop150" />
  </linearGradient>
  <linearGradient
     id="b"
     gradientUnits="userSpaceOnUse"
     x1="11.014235"
     x2="37.443962"
     xlink:href="#a"
     y1="41.091171"
     y2="41.091171"
     gradientTransform="matrix(1.3295304,0,0,1.1718967,-7.213322,-8.0427)" />
  <linearGradient
     id="c"
     gradientUnits="userSpaceOnUse"
     x1="13.671831"
     x2="34.795879"
     xlink:href="#a"
     y1="23.272196"
     y2="23.272196"
     gradientTransform="matrix(1.3295304,0,0,1.1718967,-7.213322,-8.0427)" />
  <g
     transform="matrix(1.3295304,0,0,1.1718967,-7.2023042,-8.0427)"
     id="g159"
     style="stroke:#888888;stroke-width:1.35655;fill:#888888;fill-opacity:1;stroke-opacity:1">
    <path
       d="M 33.903645,9.4298282 33.792998,20.041577 30.841765,16.776532"
       fill="#a3840b"
       id="path155"
       style="fill:#888888;fill-opacity:1;stroke:#888888;stroke-opacity:1" />
    <path
       d="M 14.54749,9.4298282 14.658137,20.041577 17.60937,16.776532"
       fill="#f3c926"
       id="path157"
       style="fill:#888888;fill-opacity:1;stroke:#888888;stroke-opacity:1" />
  </g>
  <path
     d="M 16.568406,35.145327 C 17.21581,28.621887 19.38645,18.807089 17.873732,14.550325 L 12.565434,3.4666089 C 16.718143,2.9219868 21.607463,2.92968 25.006333,2.92968 c 3.398851,0 8.288171,-0.00768 12.440879,0.5369289 L 32.138914,14.550325 c -1.512717,4.256764 0.657923,14.071562 1.305327,20.595002 l -8.437908,0.383524 z"
     fill="url(#c)"
     id="path161"
     style="fill:#888888;stroke:#888888;stroke-width:1.69328;fill-opacity:1;stroke-opacity:1" />
  <path
     d="m 41.443924,44.579914 c 0,-5.570151 -2.760793,-8.937565 -4.655656,-10.048219 -0.751366,0 -10.029825,0.958802 -11.788257,0.958802 -1.758454,0 -11.051945,-0.958802 -11.788279,-0.958802 -1.894862,1.110654 -4.6556548,4.478068 -4.6556548,10.048219 0,0.256582 13.7415618,1.112205 16.4439338,1.112205 2.70235,0 16.443913,-0.855623 16.443913,-1.112205 z"
     fill="url(#b)"
     id="path163"
     style="fill:#888888;stroke:#888888;stroke-width:1.69328;fill-opacity:1;stroke-opacity:1" />
</svg>
