<?xml version="1.0" encoding="UTF-8" standalone="no"?>
<svg
   clip-rule="evenodd"
   fill-rule="evenodd"
   height="177.17"
   image-rendering="optimizeQuality"
   shape-rendering="geometricPrecision"
   viewBox="0 0 50 50"
   width="177.17"
   version="1.1"
   id="svg1456"
   sodipodi:docname="lieutenant.svg"
   inkscape:version="1.2.2 (b0a8486541, 2022-12-01)"
   xmlns:inkscape="http://www.inkscape.org/namespaces/inkscape"
   xmlns:sodipodi="http://sodipodi.sourceforge.net/DTD/sodipodi-0.dtd"
   xmlns="http://www.w3.org/2000/svg"
   xmlns:svg="http://www.w3.org/2000/svg">
  <defs
     id="defs1460" />
  <sodipodi:namedview
     id="namedview1458"
     pagecolor="#ffffff"
     bordercolor="#666666"
     borderopacity="1.0"
     inkscape:showpageshadow="2"
     inkscape:pageopacity="0.0"
     inkscape:pagecheckerboard="0"
     inkscape:deskcolor="#d1d1d1"
     showgrid="false"
     inkscape:zoom="5.7966925"
     inkscape:cx="54.082565"
     inkscape:cy="88.498743"
     inkscape:window-width="2494"
     inkscape:window-height="1371"
     inkscape:window-x="0"
     inkscape:window-y="0"
     inkscape:window-maximized="1"
     inkscape:current-layer="svg1456" />
  <path
     d="m 9.3043152,44.96557 c 0,0 3.6780098,-2.580937 3.7390408,-3.027803 0.06103,-0.446876 -1.509714,-1.866585 -1.509714,-1.866585 2.561069,-1.736867 5.173934,-2.050398 8.114907,-7.233068 l 3.890405,3.320539 1.12761,-1.697047 -2.430101,-2.735474 18.274722,-19.396452 c 0.675057,-1.017994 0.829509,-3.1444772 1.166928,-4.9007383 -1.755621,0.3407343 -3.881809,0.4992015 -4.898525,1.1761794 l -19.361915,18.3113109 -2.740057,-2.424933 -1.694915,1.130814 3.327879,3.884128 c -5.177109,2.950753 -5.485706,5.564205 -7.2177336,8.128549 0,0 -1.422673,-1.56806 -1.8694331,-1.506188 -0.4467502,0.06188 -3.020737,3.744752 -3.020737,3.744752 l 2.5508191,2.546007 z"
     fill="#1f1a17"
     id="path1444"
     style="stroke-width:0.939873;fill:#888888;fill-opacity:1" />
  <path
     d="M 39.542676,9.568414 20.094084,29.053763"
     fill="none"
     stroke="#ffffff"
     stroke-width="0.795738"
     id="path1446" />
  <path
     d="m 40.695685,44.96557 c 0,0 -3.67801,-2.580937 -3.739041,-3.027803 -0.06103,-0.446876 1.509714,-1.866585 1.509714,-1.866585 -2.561069,-1.736867 -5.173934,-2.050398 -8.114907,-7.233068 l -3.890405,3.320539 -1.12761,-1.697047 2.430101,-2.735474 L 9.488815,12.32968 C 8.813758,11.311686 8.6593061,9.1852028 8.3218871,7.4289417 10.077508,7.769676 12.203696,7.9281432 13.220412,8.6051211 l 19.361915,18.3113109 2.740057,-2.424933 1.694915,1.130814 -3.327879,3.884128 c 5.177109,2.950753 5.485706,5.564205 7.217734,8.128549 0,0 1.422673,-1.56806 1.869433,-1.506188 0.44675,0.06188 3.020737,3.744752 3.020737,3.744752 l -2.550819,2.546007 z"
     fill="#1f1a17"
     id="path1450"
     style="stroke-width:0.939873;fill:#888888;fill-opacity:1" />
  <path
     d="M 10.457324,9.568414 29.905916,29.053763"
     fill="none"
     stroke="#ffffff"
     stroke-width="0.795738"
     id="path1452" />
</svg>
