<?xml version="1.0" encoding="UTF-8" standalone="no"?>
<svg
   clip-rule="evenodd"
   fill-rule="evenodd"
   height="177.17"
   image-rendering="optimizeQuality"
   shape-rendering="geometricPrecision"
   viewBox="0 0 50 50"
   width="177.17"
   version="1.1"
   id="svg1456"
   sodipodi:docname="lieutenant.svg"
   inkscape:version="1.2.2 (b0a8486541, 2022-12-01)"
   xmlns:inkscape="http://www.inkscape.org/namespaces/inkscape"
   xmlns:sodipodi="http://sodipodi.sourceforge.net/DTD/sodipodi-0.dtd"
   xmlns="http://www.w3.org/2000/svg"
   xmlns:svg="http://www.w3.org/2000/svg">
  <defs
     id="defs1460" />
  <sodipodi:namedview
     id="namedview1458"
     pagecolor="#ffffff"
     bordercolor="#666666"
     borderopacity="1.0"
     inkscape:showpageshadow="2"
     inkscape:pageopacity="0.0"
     inkscape:pagecheckerboard="0"
     inkscape:deskcolor="#d1d1d1"
     showgrid="false"
     inkscape:zoom="2.8983463"
     inkscape:cx="-40.367848"
     inkscape:cy="100.74711"
     inkscape:window-width="2494"
     inkscape:window-height="1371"
     inkscape:window-x="0"
     inkscape:window-y="0"
     inkscape:window-maximized="1"
     inkscape:current-layer="svg1456"
     showguides="false" />
  <path
     id="path1444"
     style="stroke-width:0.939873;fill:#888888;fill-opacity:1"
     d="M 41.677948 7.4290848 C 39.922331 7.7698183 37.796141 7.9283707 36.779427 8.6053474 L 23.03358 21.605419 L 25.000265 23.575962 L 39.261484 9.2871828 L 39.82426 9.8494076 L 25.561387 24.138187 L 27.528623 26.109281 L 40.511056 12.329811 C 41.186113 11.311819 41.340531 9.1853423 41.677948 7.4290848 z M 22.455922 22.151659 L 17.417946 26.916239 L 14.677376 24.491506 L 12.982433 25.622571 L 16.310584 29.506332 C 11.133485 32.457079 10.824633 35.070552 9.0926089 37.63489 C 9.0926089 37.63489 7.670246 36.067138 7.2234869 36.12901 C 6.7767375 36.19089 4.2029063 39.873317 4.2029063 39.873317 L 6.7533126 42.419313 L 9.30427 44.96531 C 9.30427 44.96531 12.982585 42.384428 13.043616 41.937564 C 13.104646 41.490688 11.533877 40.071198 11.533877 40.071198 C 14.094942 38.334335 16.707689 38.020999 19.648656 32.838341 L 23.539031 36.158774 L 24.666788 34.461627 L 22.236544 31.726017 L 26.983485 26.687491 L 25.000265 24.700412 L 20.375139 29.333806 L 19.812363 28.773235 L 24.438591 24.138187 L 22.455922 22.151659 z " />
  <path
     id="path1450"
     style="stroke-width:0.939873;fill:#888888;fill-opacity:1"
     d="M 8.3220301 7.4290848 C 8.6594488 9.1853441 8.813866 11.311818 9.4889223 12.329811 L 27.763435 31.726017 L 25.33319 34.461627 L 26.460947 36.158774 L 30.351322 32.838341 C 33.292293 38.021005 35.905035 38.334333 38.466101 40.071198 C 38.466101 40.071198 36.895883 41.490688 36.956913 41.937564 C 37.017944 42.384429 40.695708 44.96531 40.695708 44.96531 L 43.246666 42.419313 L 45.797072 39.873317 C 45.797072 39.873317 43.223241 36.19089 42.776492 36.12901 C 42.329732 36.067138 40.90737 37.63489 40.90737 37.63489 C 39.175343 35.070549 38.866499 32.457082 33.689395 29.506332 L 37.017545 25.622571 L 35.322603 24.491506 L 32.582583 26.916239 L 13.220552 8.6053474 C 12.203837 7.9283701 10.077649 7.7698187 8.3220301 7.4290848 z M 10.738495 9.2871828 L 30.187616 28.773235 L 29.62484 29.333806 L 10.175719 9.8494076 L 10.738495 9.2871828 z " />
</svg>
