<?xml version="1.0" encoding="UTF-8" standalone="no"?>
<svg
   xmlns:dc="http://purl.org/dc/elements/1.1/"
   xmlns:cc="http://creativecommons.org/ns#"
   xmlns:rdf="http://www.w3.org/1999/02/22-rdf-syntax-ns#"
   xmlns:svg="http://www.w3.org/2000/svg"
   xmlns="http://www.w3.org/2000/svg"
   xmlns:sodipodi="http://sodipodi.sourceforge.net/DTD/sodipodi-0.dtd"
   xmlns:inkscape="http://www.inkscape.org/namespaces/inkscape"
   width="177.17"
   height="177.17"
   shape-rendering="geometricPrecision"
   image-rendering="optimizeQuality"
   fill-rule="evenodd"
   clip-rule="evenodd"
   viewBox="0 0 50 50"
   version="1.1"
   id="svg27599"
   sodipodi:docname="makruk-promoted-pawn.svg"
   inkscape:version="0.92.5 (2060ec1f9f, 2020-04-08)">
  <metadata
     id="metadata27603">
    <rdf:RDF>
      <cc:Work
         rdf:about="">
        <dc:format>image/svg+xml</dc:format>
        <dc:type
           rdf:resource="http://purl.org/dc/dcmitype/StillImage" />
        <dc:title></dc:title>
      </cc:Work>
    </rdf:RDF>
  </metadata>
  <sodipodi:namedview
     pagecolor="#ffffff"
     bordercolor="#666666"
     borderopacity="1"
     objecttolerance="10"
     gridtolerance="10"
     guidetolerance="10"
     inkscape:pageopacity="0"
     inkscape:pageshadow="2"
     inkscape:window-width="1848"
     inkscape:window-height="1016"
     id="namedview27601"
     showgrid="false"
     showguides="false"
     inkscape:zoom="3.7676176"
     inkscape:cx="70.320353"
     inkscape:cy="105.78586"
     inkscape:window-x="72"
     inkscape:window-y="27"
     inkscape:window-maximized="1"
     inkscape:current-layer="svg27599" />
  <defs
     id="defs27593">
    <linearGradient
       id="0"
       gradientUnits="userSpaceOnUse"
       x1="21.13"
       y1="37.35"
       x2="77.76"
       y2="37.469"
       gradientTransform="matrix(1,0,0,0.97324,0,1.2430173)">
      <stop
         stop-color="#fff"
         id="stop27588" />
      <stop
         offset="1"
         stop-color="#fff"
         stop-opacity="0"
         id="stop27590" />
    </linearGradient>
    <linearGradient
       id="0-4"
       x1="21.253"
       y1="37.220001"
       x2="77.639999"
       y2="37.349998"
       gradientUnits="userSpaceOnUse">
      <stop
         stop-color="#fff"
         id="stop15277" />
      <stop
         offset="1"
         stop-color="#fff"
         stop-opacity="0"
         id="stop15279" />
    </linearGradient>
    <linearGradient
       id="0-4-7"
       x1="21.253"
       y1="37.220001"
       x2="77.639999"
       y2="37.349998"
       gradientUnits="userSpaceOnUse">
      <stop
         stop-color="#fff"
         id="stop15277-5" />
      <stop
         offset="1"
         stop-color="#fff"
         stop-opacity="0"
         id="stop15279-3" />
    </linearGradient>
    <linearGradient
       id="0-1"
       gradientUnits="userSpaceOnUse"
       x1="21.129999"
       y1="37.349998"
       x2="77.760002"
       y2="37.469002"
       gradientTransform="matrix(0.99999999,0,0,0.97323999,41.755788,2.6332667)">
      <stop
         stop-color="#fff"
         id="stop27588-8" />
      <stop
         offset="1"
         stop-color="#fff"
         stop-opacity="0"
         id="stop27590-9" />
    </linearGradient>
    <linearGradient
       gradientTransform="matrix(0.56086365,0,0,0.56086365,82.381854,11.602577)"
       id="0-1-1"
       x1="21.253"
       y1="37.220001"
       x2="77.760002"
       y2="37.360001"
       gradientUnits="userSpaceOnUse">
      <stop
         stop-color="#fff"
         id="stop16502" />
      <stop
         offset="1"
         stop-color="#fff"
         stop-opacity="0"
         id="stop16504" />
    </linearGradient>
  </defs>
  <path
     d="M 25,46.45002 H 11.606 c -0.66,-1.607 -0.991,-3.288 -0.991,-5.04 0,-2.975 0.864,-5.644 2.599,-8.02 1.736,-2.365 3.971,-4.054 6.697,-5.068 -1.168,-0.527 -2.125,-1.327 -2.862,-2.398 -0.737,-1.071 -1.101,-2.283 -1.101,-3.634 0,-1.689 0.576,-3.156 1.736,-4.392 1.152,-1.244 2.574,-1.961 4.267,-2.151 h 6.086 c 1.693,0.19 3.116,0.906 4.267,2.151 1.16,1.236 1.736,2.703 1.736,4.392 0,1.351 -0.373,2.563 -1.126,3.634 -0.753,1.071 -1.71,1.87 -2.862,2.398 2.726,1.014 4.961,2.703 6.697,5.068 1.736,2.373 2.599,5.04 2.599,8.02 0,1.739 -0.322,3.42 -0.965,5.04 H 24.989"
     id="path27595"
     inkscape:connector-curvature="0"
     style="fill:#888888;stroke:#888888;stroke-opacity:1;fill-opacity:1"
     sodipodi:nodetypes="ccsccssccccssccscc" />
  <path
     d="m 25,44.80802 h 12.175 c 0.347,-1.154 0.525,-2.291 0.525,-3.403 0,-2.513 -0.711,-4.787 -2.142,-6.831 -1.431,-2.044 -3.277,-3.552 -5.52,-4.516 -1.584,-0.62 -1.643,-0.659 -1.643,-1.739 0,-0.849 0.559,-1.475 1.668,-1.879 1.532,-1.047 2.303,-2.431 2.303,-4.153 0,-1.244 -0.432,-2.324 -1.287,-3.263 -0.864,-0.931 -1.905,-1.467 -3.124,-1.615 h -5.91 c -1.236,0.148 -2.286,0.684 -3.133,1.615 -0.855,0.939 -1.279,2.02 -1.279,3.263 0,1.722 0.77,3.106 2.303,4.153 1.109,0.412 1.668,1.046 1.668,1.879 0,1.079 -0.067,1.118 -1.668,1.739 -2.244,0.964 -4.081,2.472 -5.503,4.516 -1.422,2.044 -2.134,4.318 -2.134,6.831 0,1.195 0.178,2.324 0.525,3.403 h 12.175"
     id="path27597"
     inkscape:connector-curvature="0"
     style="fill:#888888;stroke:#888888;stroke-opacity:1;fill-opacity:1"
     sodipodi:nodetypes="ccsscscsccccscscsscc" />
  <g
     id="g15288"
     transform="matrix(0.57322627,0,0,0.57322627,10.683461,-0.54827384)"
     style="stroke:#888888;stroke-width:0.88007396;stroke-miterlimit:4;stroke-dasharray:none;stroke-opacity:1;fill:#888888;fill-opacity:1">
    <path
       d="m 44.541,14.723 c -0.94,0 -1.744,-0.33 -2.405,-0.982 -0.66,-0.652 -0.991,-1.448 -0.991,-2.396 0,-0.923 0.33,-1.719 0.991,-2.388 0.66,-0.677 1.465,-1.01 2.405,-1.01 0.931,0 1.727,0.33 2.388,1.01 0.66,0.669 0.991,1.465 0.991,2.388 0,0.948 -0.33,1.744 -0.991,2.396 -0.66,0.652 -1.456,0.982 -2.388,0.982 z m -4.31,25.025299 C 32.699536,36.308325 15.127058,37.459097 9.717,39.646299 L 11.058284,34.892785 8.4424527,30.275905 6.297,14.775 7.508,14.301 15.101492,27.186085 c 1.19031,-0.566072 1.257078,-0.777346 2.482201,-2.007822 L 20.955237,26.966085 24.103,10.779 h 1.719 l 3.204493,16.121895 c 1.789358,-0.214964 2.443666,-1.258275 3.470757,-1.74485 0.644572,0.762385 1.463556,1.875269 2.108128,2.261725 L 42.416,14.276 l 1.16,0.542 -2.057,15.359 -2.604378,3.993731 1.317378,5.580568 z M 5.399,14.725 c -0.94,0 -1.736,-0.33 -2.388,-0.982 -0.652,-0.652 -0.982,-1.448 -0.982,-2.396 0,-0.923 0.33,-1.719 0.982,-2.388 0.652,-0.677 1.448,-1.01 2.388,-1.01 0.948,0 1.744,0.33 2.413,1.01 0.66,0.669 0.991,1.465 0.991,2.388 0,0.948 -0.33,1.744 -0.991,2.396 -0.669,0.652 -1.465,0.982 -2.413,0.982 z m 19.55,-3.971 c -0.94,0 -1.744,-0.33 -2.396,-0.991 -0.652,-0.66 -0.974,-1.465 -0.974,-2.405 0,-0.931 0.322,-1.727 0.974,-2.388 0.652,-0.66 1.456,-0.991 2.396,-0.991 0.923,0 1.727,0.33 2.396,0.991 0.669,0.66 0.999,1.456 0.999,2.388 0,0.94 -0.33,1.744 -0.999,2.405 -0.669,0.66 -1.473,0.991 -2.396,0.991 z"
       id="path15284"
       inkscape:connector-curvature="0"
       style="fill:#888888;stroke-width:0.88007396;stroke-miterlimit:4;stroke-dasharray:none;stroke:#888888;stroke-opacity:1;fill-opacity:1"
       sodipodi:nodetypes="scscscscsccccccccccccccccccccssscscscsscscscscs" />
    <path
       d="m 38.22,38.732941 c -3.02,-1.253 -7.417,-1.88 -13.166,-1.88 -5.876,0 -10.312,0.643 -13.327,1.93 9.605828,-2.464381 16.305807,-2.090476 26.492,-0.051 z M 24.953,9.01 c 1.109,0 1.66,-0.559 1.66,-1.659 0,-1.092 -0.55,-1.643 -1.66,-1.643 -1.092,0 -1.634,0.55 -1.634,1.643 0,1.101 0.542,1.659 1.634,1.659 z m 13.242,23.487 1.617,-2.853 c -0.796,0.322 -1.609,0.474 -2.43,0.474 -2.218,0 -3.988,-0.897 -5.309,-2.701 -0.991,0.821 -2.1,1.236 -3.327,1.236 -1.583,0 -2.853,-0.618 -3.793,-1.863 -1.058,1.16 -2.32,1.744 -3.793,1.744 -1.194,0 -2.286,-0.406 -3.277,-1.219 -1.389,1.77 -3.183,2.65 -5.385,2.65 -0.838,0 -1.676,-0.152 -2.506,-0.466 l 1.736,2.972 c 3.209,-0.923 7.62,-1.389 13.225,-1.389 5.706,0 10.118,0.474 13.242,1.414 z M 27.085,26.57 24.977,14.437 22.869,26.426 c 0.051,-0.034 0.161,-0.119 0.347,-0.254 0.381,-0.745 0.957,-1.118 1.736,-1.118 0.847,0 1.389,0.372 1.634,1.118 0.102,0.102 0.271,0.237 0.5,0.398 z m -13.368,1.516 -5.334,-9.203 1.363,8.382 c 0.94,0.66 1.863,0.991 2.752,0.991 0.347,0 0.754,-0.059 1.219,-0.169 z m 22.394,0.119 c 0.381,0.119 0.804,0.178 1.27,0.178 1.01,0 1.947,-0.313 2.828,-0.94 l 1.363,-8.585 z M 37.857662,37.223928 36.856,33.651941 c -8.142764,-1.270858 -15.89594,-1.669692 -23.783,0 l -1.091828,3.918815 c 3.073,-0.931 8.003821,-1.838159 13.380821,-1.838159 5.241,0 9.320669,0.577331 12.495669,1.491331 z M 5.405,12.982 c 1.109,0 1.668,-0.55 1.668,-1.643 0,-1.109 -0.559,-1.659 -1.668,-1.659 -1.084,0 -1.634,0.55 -1.634,1.659 0,1.092 0.55,1.643 1.634,1.643 z m 39.14,0 c 1.092,0 1.642,-0.55 1.642,-1.643 0,-1.109 -0.55,-1.659 -1.642,-1.659 -1.101,0 -1.66,0.55 -1.66,1.659 0,1.092 0.559,1.643 1.66,1.643 z"
       id="path15286"
       inkscape:connector-curvature="0"
       style="fill:#888888;stroke-width:0.88007396;stroke-miterlimit:4;stroke-dasharray:none;stroke:#888888;stroke-opacity:1;fill-opacity:1"
       sodipodi:nodetypes="cscccsssssccscscscsccsccccccsccccccscccscccccccscssssssssss" />
  </g>
</svg>
