<?xml version="1.0" encoding="UTF-8" standalone="no"?>
<svg
   clip-rule="evenodd"
   fill-rule="evenodd"
   height="177.17"
   image-rendering="optimizeQuality"
   shape-rendering="geometricPrecision"
   viewBox="0 0 50 50"
   width="177.17"
   version="1.1"
   id="svg14"
   sodipodi:docname="makruk-promoted-pawn.svg"
   inkscape:version="1.2.2 (b0a8486541, 2022-12-01)"
   xmlns:inkscape="http://www.inkscape.org/namespaces/inkscape"
   xmlns:sodipodi="http://sodipodi.sourceforge.net/DTD/sodipodi-0.dtd"
   xmlns="http://www.w3.org/2000/svg"
   xmlns:svg="http://www.w3.org/2000/svg">
  <defs
     id="defs18" />
  <sodipodi:namedview
     id="namedview16"
     pagecolor="#ffffff"
     bordercolor="#666666"
     borderopacity="1.0"
     inkscape:showpageshadow="2"
     inkscape:pageopacity="0.0"
     inkscape:pagecheckerboard="0"
     inkscape:deskcolor="#d1d1d1"
     showgrid="false"
     inkscape:zoom="5.7966925"
     inkscape:cx="88.584999"
     inkscape:cy="88.498743"
     inkscape:window-width="2494"
     inkscape:window-height="1371"
     inkscape:window-x="0"
     inkscape:window-y="0"
     inkscape:window-maximized="1"
     inkscape:current-layer="svg14" />
  <path
     d="M 25,46.45002 H 11.606 c -0.66,-1.607 -0.991,-3.288 -0.991,-5.04 0,-2.975 0.864,-5.644 2.599,-8.02 1.736,-2.365 3.971,-4.054 6.697,-5.068 -1.168,-0.527 -2.125,-1.327 -2.862,-2.398 -0.737,-1.071 -1.101,-2.283 -1.101,-3.634 0,-1.689 0.576,-3.156 1.736,-4.392 1.152,-1.244 2.574,-1.961 4.267,-2.151 h 6.086 c 1.693,0.19 3.116,0.906 4.267,2.151 1.16,1.236 1.736,2.703 1.736,4.392 0,1.351 -0.373,2.563 -1.126,3.634 -0.753,1.071 -1.71,1.87 -2.862,2.398 2.726,1.014 4.961,2.703 6.697,5.068 1.736,2.373 2.599,5.04 2.599,8.02 0,1.739 -0.322,3.42 -0.965,5.04 H 24.989"
     id="path2"
     style="fill:#888888;stroke:#888888" />
  <g
     stroke-width="0.880074"
     transform="matrix(0.57322627,0,0,0.57322627,10.683461,-0.548274)"
     id="g10"
     style="fill:#888888;stroke:#888888">
    <path
       d="m 44.541,14.723 c -0.94,0 -1.744,-0.33 -2.405,-0.982 -0.66,-0.652 -0.991,-1.448 -0.991,-2.396 0,-0.923 0.33,-1.719 0.991,-2.388 0.66,-0.677 1.465,-1.01 2.405,-1.01 0.931,0 1.727,0.33 2.388,1.01 0.66,0.669 0.991,1.465 0.991,2.388 0,0.948 -0.33,1.744 -0.991,2.396 -0.66,0.652 -1.456,0.982 -2.388,0.982 z m -4.31,25.025299 C 32.699536,36.308325 15.127058,37.459097 9.717,39.646299 L 11.058284,34.892785 8.4424527,30.275905 6.297,14.775 7.508,14.301 15.101492,27.186085 c 1.19031,-0.566072 1.257078,-0.777346 2.482201,-2.007822 L 20.955237,26.966085 24.103,10.779 h 1.719 l 3.204493,16.121895 c 1.789358,-0.214964 2.443666,-1.258275 3.470757,-1.74485 0.644572,0.762385 1.463556,1.875269 2.108128,2.261725 L 42.416,14.276 l 1.16,0.542 -2.057,15.359 -2.604378,3.993731 1.317378,5.580568 z M 5.399,14.725 c -0.94,0 -1.736,-0.33 -2.388,-0.982 -0.652,-0.652 -0.982,-1.448 -0.982,-2.396 0,-0.923 0.33,-1.719 0.982,-2.388 0.652,-0.677 1.448,-1.01 2.388,-1.01 0.948,0 1.744,0.33 2.413,1.01 0.66,0.669 0.991,1.465 0.991,2.388 0,0.948 -0.33,1.744 -0.991,2.396 -0.669,0.652 -1.465,0.982 -2.413,0.982 z m 19.55,-3.971 c -0.94,0 -1.744,-0.33 -2.396,-0.991 -0.652,-0.66 -0.974,-1.465 -0.974,-2.405 0,-0.931 0.322,-1.727 0.974,-2.388 0.652,-0.66 1.456,-0.991 2.396,-0.991 0.923,0 1.727,0.33 2.396,0.991 0.669,0.66 0.999,1.456 0.999,2.388 0,0.94 -0.33,1.744 -0.999,2.405 -0.669,0.66 -1.473,0.991 -2.396,0.991 z"
       id="path6" />
    <path
       d="m 38.22,38.732941 c -3.02,-1.253 -7.417,-1.88 -13.166,-1.88 -5.876,0 -10.312,0.643 -13.327,1.93 9.605828,-2.464381 16.305807,-2.090476 26.492,-0.051 z M 24.953,9.01 c 1.109,0 1.66,-0.559 1.66,-1.659 0,-1.092 -0.55,-1.643 -1.66,-1.643 -1.092,0 -1.634,0.55 -1.634,1.643 0,1.101 0.542,1.659 1.634,1.659 z m 13.242,23.487 1.617,-2.853 c -0.796,0.322 -1.609,0.474 -2.43,0.474 -2.218,0 -3.988,-0.897 -5.309,-2.701 -0.991,0.821 -2.1,1.236 -3.327,1.236 -1.583,0 -2.853,-0.618 -3.793,-1.863 -1.058,1.16 -2.32,1.744 -3.793,1.744 -1.194,0 -2.286,-0.406 -3.277,-1.219 -1.389,1.77 -3.183,2.65 -5.385,2.65 -0.838,0 -1.676,-0.152 -2.506,-0.466 l 1.736,2.972 c 3.209,-0.923 7.62,-1.389 13.225,-1.389 5.706,0 10.118,0.474 13.242,1.414 z M 27.085,26.57 24.977,14.437 22.869,26.426 c 0.051,-0.034 0.161,-0.119 0.347,-0.254 0.381,-0.745 0.957,-1.118 1.736,-1.118 0.847,0 1.389,0.372 1.634,1.118 0.102,0.102 0.271,0.237 0.5,0.398 z m -13.368,1.516 -5.334,-9.203 1.363,8.382 c 0.94,0.66 1.863,0.991 2.752,0.991 0.347,0 0.754,-0.059 1.219,-0.169 z m 22.394,0.119 c 0.381,0.119 0.804,0.178 1.27,0.178 1.01,0 1.947,-0.313 2.828,-0.94 l 1.363,-8.585 z M 37.857662,37.223928 36.856,33.651941 c -8.142764,-1.270858 -15.89594,-1.669692 -23.783,0 l -1.091828,3.918815 c 3.073,-0.931 8.003821,-1.838159 13.380821,-1.838159 5.241,0 9.320669,0.577331 12.495669,1.491331 z M 5.405,12.982 c 1.109,0 1.668,-0.55 1.668,-1.643 0,-1.109 -0.559,-1.659 -1.668,-1.659 -1.084,0 -1.634,0.55 -1.634,1.659 0,1.092 0.55,1.643 1.634,1.643 z m 39.14,0 c 1.092,0 1.642,-0.55 1.642,-1.643 0,-1.109 -0.55,-1.659 -1.642,-1.659 -1.101,0 -1.66,0.55 -1.66,1.659 0,1.092 0.559,1.643 1.66,1.643 z"
       id="path8" />
  </g>
</svg>
