<svg clip-rule="evenodd" fill-rule="evenodd" height="177.17" image-rendering="optimizeQuality" shape-rendering="geometricPrecision" viewBox="0 0 50 50" width="177.17" xmlns="http://www.w3.org/2000/svg"><g fill="#888" stroke="#888"><path d="m25 46.45002h-13.394c-.66-1.607-.991-3.288-.991-5.04 0-2.975.864-5.644 2.599-8.02 1.736-2.365 3.971-4.054 6.697-5.068-1.168-.527-2.125-1.327-2.862-2.398s-1.101-2.283-1.101-3.634c0-1.689.576-3.156 1.736-4.392 1.152-1.244 2.574-1.961 4.267-2.151h6.086c1.693.19 3.116.906 4.267 2.151 1.16 1.236 1.736 2.703 1.736 4.392 0 1.351-.373 2.563-1.126 3.634s-1.71 1.87-2.862 2.398c2.726 1.014 4.961 2.703 6.697 5.068 1.736 2.373 2.599 5.04 2.599 8.02 0 1.739-.322 3.42-.965 5.04h-13.394"/><path d="m25 44.80802h12.175c.347-1.154.525-2.291.525-3.403 0-2.513-.711-4.787-2.142-6.831s-3.277-3.552-5.52-4.516c-1.584-.62-1.643-.659-1.643-1.739 0-.849.559-1.475 1.668-1.879 1.532-1.047 2.303-2.431 2.303-4.153 0-1.244-.432-2.324-1.287-3.263-.864-.931-1.905-1.467-3.124-1.615h-5.91c-1.236.148-2.286.684-3.133 1.615-.855.939-1.279 2.02-1.279 3.263 0 1.722.77 3.106 2.303 4.153 1.109.412 1.668 1.046 1.668 1.879 0 1.079-.067 1.118-1.668 1.739-2.244.964-4.081 2.472-5.503 4.516s-2.134 4.318-2.134 6.831c0 1.195.178 2.324.525 3.403h12.175"/><g stroke-width=".880074" transform="matrix(.57322627 0 0 .57322627 10.683461 -.548274)"><path d="m44.541 14.723c-.94 0-1.744-.33-2.405-.982-.66-.652-.991-1.448-.991-2.396 0-.923.33-1.719.991-2.388.66-.677 1.465-1.01 2.405-1.01.931 0 1.727.33 2.388 1.01.66.669.991 1.465.991 2.388 0 .948-.33 1.744-.991 2.396-.66.652-1.456.982-2.388.982zm-4.31 25.025299c-7.531464-3.439974-25.103942-2.289202-30.514-.102l1.341284-4.753514-2.6158313-4.61688-2.1454527-15.500905 1.211-.474 7.593492 12.885085c1.19031-.566072 1.257078-.777346 2.482201-2.007822l3.371544 1.787822 3.147763-16.187085h1.719l3.204493 16.121895c1.789358-.214964 2.443666-1.258275 3.470757-1.74485.644572.762385 1.463556 1.875269 2.108128 2.261725l7.810622-13.14177 1.16.542-2.057 15.359-2.604378 3.993731 1.317378 5.580568zm-34.832-25.023299c-.94 0-1.736-.33-2.388-.982s-.982-1.448-.982-2.396c0-.923.33-1.719.982-2.388.652-.677 1.448-1.01 2.388-1.01.948 0 1.744.33 2.413 1.01.66.669.991 1.465.991 2.388 0 .948-.33 1.744-.991 2.396-.669.652-1.465.982-2.413.982zm19.55-3.971c-.94 0-1.744-.33-2.396-.991-.652-.66-.974-1.465-.974-2.405 0-.931.322-1.727.974-2.388.652-.66 1.456-.991 2.396-.991.923 0 1.727.33 2.396.991.669.66.999 1.456.999 2.388 0 .94-.33 1.744-.999 2.405-.669.66-1.473.991-2.396.991z"/><path d="m38.22 38.732941c-3.02-1.253-7.417-1.88-13.166-1.88-5.876 0-10.312.643-13.327 1.93 9.605828-2.464381 16.305807-2.090476 26.492-.051zm-13.267-29.722941c1.109 0 1.66-.559 1.66-1.659 0-1.092-.55-1.643-1.66-1.643-1.092 0-1.634.55-1.634 1.643 0 1.101.542 1.659 1.634 1.659zm13.242 23.487 1.617-2.853c-.796.322-1.609.474-2.43.474-2.218 0-3.988-.897-5.309-2.701-.991.821-2.1 1.236-3.327 1.236-1.583 0-2.853-.618-3.793-1.863-1.058 1.16-2.32 1.744-3.793 1.744-1.194 0-2.286-.406-3.277-1.219-1.389 1.77-3.183 2.65-5.385 2.65-.838 0-1.676-.152-2.506-.466l1.736 2.972c3.209-.923 7.62-1.389 13.225-1.389 5.706 0 10.118.474 13.242 1.414zm-11.11-5.927-2.108-12.133-2.108 11.989c.051-.034.161-.119.347-.254.381-.745.957-1.118 1.736-1.118.847 0 1.389.372 1.634 1.118.102.102.271.237.5.398zm-13.368 1.516-5.334-9.203 1.363 8.382c.94.66 1.863.991 2.752.991.347 0 .754-.059 1.219-.169zm22.394.119c.381.119.804.178 1.27.178 1.01 0 1.947-.313 2.828-.94l1.363-8.585zm1.746662 9.018928-1.001662-3.571987c-8.142764-1.270858-15.89594-1.669692-23.783 0l-1.091828 3.918815c3.073-.931 8.003821-1.838159 13.380821-1.838159 5.241 0 9.320669.577331 12.495669 1.491331zm-32.452662-24.241928c1.109 0 1.668-.55 1.668-1.643 0-1.109-.559-1.659-1.668-1.659-1.084 0-1.634.55-1.634 1.659 0 1.092.55 1.643 1.634 1.643zm39.14 0c1.092 0 1.642-.55 1.642-1.643 0-1.109-.55-1.659-1.642-1.659-1.101 0-1.66.55-1.66 1.659 0 1.092.559 1.643 1.66 1.643z"/></g></g></svg>