<?xml version="1.0" encoding="UTF-8" standalone="no"?>
<svg
   height="45"
   width="45"
   version="1.1"
   id="svg8"
   sodipodi:docname="offering.svg"
   inkscape:version="1.2.2 (b0a8486541, 2022-12-01)"
   xmlns:inkscape="http://www.inkscape.org/namespaces/inkscape"
   xmlns:sodipodi="http://sodipodi.sourceforge.net/DTD/sodipodi-0.dtd"
   xmlns="http://www.w3.org/2000/svg"
   xmlns:svg="http://www.w3.org/2000/svg">
  <defs
     id="defs12" />
  <sodipodi:namedview
     id="namedview10"
     pagecolor="#ffffff"
     bordercolor="#666666"
     borderopacity="1.0"
     inkscape:showpageshadow="2"
     inkscape:pageopacity="0.0"
     inkscape:pagecheckerboard="0"
     inkscape:deskcolor="#d1d1d1"
     showgrid="false"
     inkscape:zoom="22.822222"
     inkscape:cx="21.010224"
     inkscape:cy="22.478092"
     inkscape:window-width="2494"
     inkscape:window-height="1371"
     inkscape:window-x="0"
     inkscape:window-y="0"
     inkscape:window-maximized="1"
     inkscape:current-layer="svg8" />
  <path
     d="M 35.682384,27.808475 C 35.886621,24.676401 34.13185,17.62241 30.532635,14.809791 26.899234,11.97046 23.446579,12.120436 18.87452,13.630697 l -0.89365,-2.552512 -2.306816,4.545774 C 6.469728,21.13027 4.4007133,29.664217 3.8076276,35.551669 5.2578374,34.493047 6.6463804,34.506084 8.8313733,34.080917 7.6506008,34.836461 6.1608755,36.37191 5.3366104,37.572137 9.9508192,39.559322 19.277747,26.776096 18.591499,26.886628 c -0.60336,0.09719 1.363267,1.143407 2.21085,1.682131 0.559997,0.355935 0.358904,-3.668438 0.47162,-3.640304 2.328071,-1.755802 2.794824,-3.646488 6.952038,-3.944551 1.743417,-0.125 4.792766,5.120078 5.369984,7.304325 -4.746552,2.142188 -5.463728,5.680749 -5.687533,9.833051 1.739825,-2.397006 2.849445,-6.234434 7.246138,-6.455379 3.500365,-0.175902 4.498821,2.771919 6.526883,4.962737 -1.104676,-4.358866 -2.909794,-7.603616 -5.999095,-8.820163 z"
     stroke-width="1.7293"
     id="path2"
     style="fill:#888888;stroke:#888888" />
</svg>
