<?xml version="1.0" encoding="UTF-8" standalone="no"?>
<svg
   height="45"
   width="45"
   version="1.1"
   id="svg14"
   sodipodi:docname="quetzal.svg"
   inkscape:version="1.2.2 (b0a8486541, 2022-12-01)"
   xmlns:inkscape="http://www.inkscape.org/namespaces/inkscape"
   xmlns:sodipodi="http://sodipodi.sourceforge.net/DTD/sodipodi-0.dtd"
   xmlns="http://www.w3.org/2000/svg"
   xmlns:svg="http://www.w3.org/2000/svg">
  <defs
     id="defs18" />
  <sodipodi:namedview
     id="namedview16"
     pagecolor="#ffffff"
     bordercolor="#666666"
     borderopacity="1.0"
     inkscape:showpageshadow="2"
     inkscape:pageopacity="0.0"
     inkscape:pagecheckerboard="0"
     inkscape:deskcolor="#d1d1d1"
     showgrid="false"
     inkscape:zoom="22.822222"
     inkscape:cx="22.5"
     inkscape:cy="22.478092"
     inkscape:window-width="2494"
     inkscape:window-height="1371"
     inkscape:window-x="0"
     inkscape:window-y="0"
     inkscape:window-maximized="1"
     inkscape:current-layer="svg14" />
  <path
     d="m 13.681032,20.250379 c -2.637193,0.958661 -4.9463328,2.286379 -6.1176638,4.894133 2.5251928,-1.401205 4.9009138,-1.307679 7.2433138,-0.880944 -1.941339,0.04999 -3.882677,-0.568772 -5.8240158,0.832002 1.4803128,1.481586 4.7928048,0.990066 7.3411958,1.321416 -0.85813,-2.055097 1.401752,-4.050232 -2.64283,-6.166607 z"
     stroke-width="1.5"
     id="path2"
     style="fill:#888888;stroke:#888888" />
  <path
     d="m 15.720303,23.343364 c 0,0 -0.675427,-0.810864 -1.645907,-0.955811 0.867251,-0.5612 0.529364,-0.853395 1.456688,-0.727501 l -2.790999,-1.983905 2.459863,-0.841655 c -0.554249,-1.13457 -1.234737,-1.290403 -2.356176,-2.184698 l 2.829226,-0.761099 c 0.233923,-1.080393 -0.876149,-1.188293 -1.766517,-1.670651 1.372953,-0.449519 2.270281,0.337587 3.327584,0.708758 0.308609,-1.242446 -0.394265,-2.484891 -0.709575,-3.727336 l 2.270641,2.945798 c 0.547548,-1.120366 0.391033,-2.432469 0.06334,-3.791187 l 1.374831,2.509904 0.217508,-3.2877092 1.04071,2.9457972 c 0.5813,-0.966687 0.750348,-2.307603 0.898797,-3.6672162 0.215483,1.2290962 0.13964,2.6264802 0.993406,3.4868622 l 1.60837,-3.0059162 v 3.2463892 c 0.896475,-1.136552 1.241475,-2.50672 1.797593,-3.7874532 l 0.04731,4.3285182 c 0.897143,-0.808527 1.544256,-2.061907 2.128727,-3.4267442 l 0.141915,3.6672172 2.507168,-2.765442 c -0.321742,1.333972 -0.573514,2.653125 -0.520356,3.907689 0.828451,-0.994202 1.711083,-1.299812 2.601779,-1.502957 l -1.419151,2.344613 c 1.080603,-0.805163 2.072566,-0.934444 3.027523,-0.781537 l -1.702981,3.126152 c 1.09622,-0.02085 2.342912,-0.424163 3.027522,0.601183 -0.973727,0.641099 -1.953993,1.248962 -2.743692,2.82556 1.219911,-0.73603 2.177808,-0.806091 2.956566,-0.420828 l -2.127082,1.815491 c 0.880837,0.135627 1.850532,0.09057 2.434564,0.829714 l -2.932914,2.224382 c 1.920562,-1.040408 2.684889,0.74863 3.759791,1.21283 l -4.469366,0.41036 c 0.273117,-0.13016 3.920517,1.75371 3.027522,1.86367 -0.659182,0.0812 -3.547878,0.0601 -3.547878,0.0601 l 0.347108,2.50026 c 0.577141,4.1572 4.356413,6.203 4.838888,9.38503 l -24.678304,-1.1e-4 c -1.458441,-3.56094 1.671147,-7.12187 5.300786,-10.68282 l -2.235543,-0.41488 1.742725,-1.06925 -2.268728,-0.3531 0.978656,-2.07436 -1.728253,-0.21519 0.99429,-1.581454 -1.471596,-0.345284 z"
     stroke-width="1.5"
     id="path4"
     style="fill:#888888;stroke:#888888" />
</svg>
