<svg height="45" width="45" xmlns="http://www.w3.org/2000/svg"><g fill="#888" stroke="#888" stroke-width="1.71269" transform="matrix(-.93059603 0 0 .82426373 107.95501876715 -18.68535857789)"><path d="m101.65188 69.984104c-7.596359.04704-15.192211-.03373-22.788666 0-.407434-2.293947 1.640029-4.102933 1.387412-6.370313-1.553146-2.634395-2.902062-6.104098-1.231324-9.002221 1.369979-1.77944 3.187972-3.21883 4.111174-5.317826 1.267461-1.955067 2.319079-4.120361 3.968968-5.779934 2.325479-1.658117 5.816613-3.126415 7.572264-5.452466 1.381209-2.338369-2.622393-4.303351-4.541253-2.675588-1.858144 1.316512-.862707 3.65864-.909312 5.49918-.173025 1.876889-2.418033 2.218945-3.823908 2.890475-2.157766.753994-4.851158.253015-6.15218-1.762833-3.813352-6.463385 4.158344-2.209515 4.181006-2.135035.749138 1.850255-.184202-1.799774.058-2.475522-.05418-2.653669 1.128813-5.511731 3.664054-6.657606 3.840034-1.940866 8.915579-2.069085 12.355162.786529 1.782143 1.43286 2.800193 3.700114 3.009673 5.939219-.44144 1.377249-2.04976 1.959851-1.76222 3.74243-.0362 1.812221-1.284979 3.301292-1.53838 5.006176 1.06759.526794.770142 2.52415-.534362 1.723488-1.033925.466526-.799449 3.517615-.120644 1.317432 1.542516-2.465743 4.598256-3.253787 6.459706-5.383122.68527-.975151 2.46793-1.14194 1.54131.488483-.55567 2.388198-2.23621 5.482277-3.31546 7.686195.29034 3.969055 1.09527 8.258233-.94364 11.927193-.9366 2.078003-.85678 3.687813-.64738 6.005666z" stroke-linejoin="round"/><path d="m95.673807 48.092246c1.042408 4.232607 2.16064 4.761207 3.672297 5.142667 6.828586-9.427033 6.556516-15.721988 4.453476-17.881256-2.08345 3.65474-4.072731 9.989388-8.125773 12.738589z"/><ellipse cx="87.973793" cy="49.458702" rx=".742959" ry="1.507651" stroke-linecap="square" stroke-linejoin="bevel"/><g stroke-linejoin="round"><path d="m78.959153 66.914544c4.959605-.318503 10.069473 1.427149 13.637713.348192-1.780648-4.486909-.91984-3.759096-1.900976-8.835096"/><path d="m80.758294 56.749733c-1.780779 3.16306-4.16618 4.276938-3.929568 10.445883.03095.807024 1.415473-.235158 2.130427-.281072"/></g></g></svg>