<svg height="45" width="45" xmlns="http://www.w3.org/2000/svg"><path d="m25.013672 6.0878906c-2.639012-.0678733-5.24438.9319978-7.544922 3.4121094-2.532513 2.771231-4.682214 6.064622-5.652344 9.871094-.601322 1.37252-.463638 3.585605-2.0917966 4.058594-7.6999946-1.584784 2.1034056-7.711461 3.4023436-12.251954.818457-2.6155724-1.629279-4.6366061-3.8320311-4.5742184-2.4094525-.3323474-4.4594457 1.8046888-4.9179688 4.2558594-1.3777878 6.711963 4.1723896 3.73019 3.9472657-.048828 2.4698782-.161729.3432081 3.175103-.9199219 3.617187-7.06548694 4.488402-5.4380484 14.417437-.1347657 18.931641.2238282.146446.458587.28011.6953126.410156-1.3690778 1.098519-2.822399 2.062741-3.96875 3.275391-.2019688.325279.1419485.424527.9804687.320312 1.5850201-.823444 3.641544-1.626168 5.6035155-2.550781 3.805251 1.035056 8.210053.369981 10.683594-2.181641 1.369278-2.291257.550267-5.283436 1.591797-7.734374.858328-2.319179 2.402018-4.22531 3.888672-6.089844 1.011602-.271172-1.217547 1.811204-1.646485 2.330078-1.267538 1.516656-2.347177 3.52853-2.505859 5.660156-.157935 3.618901-1.045428 7.604989-3.560547 10.271484 7.09933 1.453118 16.760489-1.729415 20.185547-6.761718 1.209713-1.817974 2.408786-3.738155 3.101562-5.851563-1.170549-8.34512-9.387653-18.1655204-17.304687-18.3691404z" fill="#888" stroke="#888" stroke-linejoin="round" stroke-width="1.870819"/><path d="m20.165999 34.279533c1.28486-1.199093 2.112255-4.998305 2.436019-8.110047.240362-2.310149 2.951303-5.883236 4.87388-8.093313" fill="none" stroke="#ececec" stroke-width="1.870821"/></svg>