<?xml version="1.0" encoding="UTF-8" standalone="no"?>
<svg
   xmlns:dc="http://purl.org/dc/elements/1.1/"
   xmlns:cc="http://creativecommons.org/ns#"
   xmlns:rdf="http://www.w3.org/1999/02/22-rdf-syntax-ns#"
   xmlns:svg="http://www.w3.org/2000/svg"
   xmlns="http://www.w3.org/2000/svg"
   xmlns:sodipodi="http://sodipodi.sourceforge.net/DTD/sodipodi-0.dtd"
   xmlns:inkscape="http://www.inkscape.org/namespaces/inkscape"
   width="45"
   height="45"
   version="1.1"
   id="svg4060"
   sodipodi:docname="shako-elephant.svg"
   inkscape:version="0.92.5 (2060ec1f9f, 2020-04-08)">
  <metadata
     id="metadata4066">
    <rdf:RDF>
      <cc:Work
         rdf:about="">
        <dc:format>image/svg+xml</dc:format>
        <dc:type
           rdf:resource="http://purl.org/dc/dcmitype/StillImage" />
        <dc:title />
      </cc:Work>
    </rdf:RDF>
  </metadata>
  <defs
     id="defs4064" />
  <sodipodi:namedview
     inkscape:document-rotation="0"
     pagecolor="#ffffff"
     bordercolor="#666666"
     borderopacity="1"
     objecttolerance="10"
     gridtolerance="10"
     guidetolerance="10"
     inkscape:pageopacity="0"
     inkscape:pageshadow="2"
     inkscape:window-width="1848"
     inkscape:window-height="1016"
     id="namedview4062"
     showgrid="false"
     inkscape:zoom="6.819652"
     inkscape:cx="-3.4792851"
     inkscape:cy="14.791416"
     inkscape:window-x="72"
     inkscape:window-y="27"
     inkscape:window-maximized="1"
     inkscape:current-layer="svg4060" />
  <path
     style="fill:#888888;fill-opacity:1;stroke:#888888;stroke-width:1.87081921;stroke-linecap:butt;stroke-linejoin:round;stroke-miterlimit:4;stroke-dasharray:none;stroke-opacity:1"
     d="M 25.013672 6.0878906 C 22.37466 6.0200173 19.769292 7.0198884 17.46875 9.5 C 14.936237 12.271231 12.786536 15.564622 11.816406 19.371094 C 11.215084 20.743614 11.352768 22.956699 9.7246094 23.429688 C 2.0246148 21.844904 11.828015 15.718227 13.126953 11.177734 C 13.94541 8.5621616 11.497674 6.5411279 9.2949219 6.6035156 C 6.8854694 6.2711682 4.8354762 8.4082044 4.3769531 10.859375 C 2.9991653 17.571338 8.5493427 14.589565 8.3242188 10.810547 C 10.794097 10.648818 8.6674269 13.98565 7.4042969 14.427734 C 0.33880996 18.916136 1.9662485 28.845171 7.2695312 33.359375 C 7.4933594 33.505821 7.7281182 33.639485 7.9648438 33.769531 C 6.595766 34.86805 5.1424448 35.832272 3.9960938 37.044922 C 3.794125 37.370201 4.1380423 37.469449 4.9765625 37.365234 C 6.5615826 36.54179 8.6181065 35.739066 10.580078 34.814453 C 14.385329 35.849509 18.790131 35.184434 21.263672 32.632812 C 22.63295 30.341555 21.813939 27.349376 22.855469 24.898438 C 23.713797 22.579259 25.257487 20.673128 26.744141 18.808594 C 27.755743 18.537422 25.526594 20.619798 25.097656 21.138672 C 23.830118 22.655328 22.750479 24.667202 22.591797 26.798828 C 22.433862 30.417729 21.546369 34.403817 19.03125 37.070312 C 26.13058 38.52343 35.791739 35.340897 39.216797 30.308594 C 40.42651 28.49062 41.625583 26.570439 42.318359 24.457031 C 41.14781 16.111911 32.930706 6.2915106 25.013672 6.0878906 z "
     id="path3392" />
  <path
     style="fill:none;stroke:#ececec;stroke-width:1.87082112;stroke-linecap:butt;stroke-linejoin:miter;stroke-miterlimit:4;stroke-dasharray:none;stroke-opacity:1"
     d="m 20.165999,34.279533 c 1.28486,-1.199093 2.112255,-4.998305 2.436019,-8.110047 0.240362,-2.310149 2.951303,-5.883236 4.87388,-8.093313"
     id="path4675"
     sodipodi:nodetypes="csc"
     inkscape:connector-curvature="0" />
</svg>
