<svg height="45" width="45" xmlns="http://www.w3.org/2000/svg"><g fill="#888" stroke="#888" transform="matrix(1.1514001 0 0 1.1514001 -52.559324 -7.692078)"><path d="m69.726382 27.584634c1.265677-3.740973 7.315329-3.893965 11.62946-5.348597-5.391069-3.639667-11.862825-6.537216-16.166229-6.581508-4.303404.04429-10.77516 2.941841-16.166229 6.581508 4.314131 1.454632 10.363783 1.607624 11.62946 5.348597" stroke-width="1.302762"/><g stroke-width="1.820366" transform="matrix(.71565912 0 0 .71565912 2.952829 7.145478)"><path d="m82.142858 36.607143-8.392857 7.232143c3.453582 3.316315 7.554904 5.267857 13.214286 5.267857s9.760704-1.951542 13.214283-5.267857l-8.392854-7.232143"/><ellipse cx="86.964287" cy="31.25" rx="7.142857" ry="9.285714" stroke-linecap="square"/></g><path d="m66.010362 30.029457 2.146574-7.197337-2.967323-3.282996-2.967323 3.282996 2.146574 7.197337h.820749z" stroke-width="1.302762"/><g stroke-width=".868508"><path d="m57.745536 17.544643c3.689995.997786 4.403762 3.535 4.6875 6.294643"/><path d="m72.729106 17.544643c-3.689995.997786-4.403762 3.535-4.6875 6.294643"/><path d="m57.29459 37.045049c5.053552 3.20185 10.28905 3.856466 15.846768 0"/></g></g></svg>