<?xml version="1.0" encoding="UTF-8" standalone="no"?>
<svg
   clip-rule="evenodd"
   fill-rule="evenodd"
   height="177.17"
   image-rendering="optimizeQuality"
   shape-rendering="geometricPrecision"
   viewBox="0 0 50 50"
   width="177.17"
   version="1.1"
   id="svg636"
   sodipodi:docname="spartanking.svg"
   inkscape:version="1.2.2 (b0a8486541, 2022-12-01)"
   xmlns:inkscape="http://www.inkscape.org/namespaces/inkscape"
   xmlns:sodipodi="http://sodipodi.sourceforge.net/DTD/sodipodi-0.dtd"
   xmlns:xlink="http://www.w3.org/1999/xlink"
   xmlns="http://www.w3.org/2000/svg"
   xmlns:svg="http://www.w3.org/2000/svg">
  <defs
     id="defs640" />
  <sodipodi:namedview
     id="namedview638"
     pagecolor="#ffffff"
     bordercolor="#666666"
     borderopacity="1.0"
     inkscape:showpageshadow="2"
     inkscape:pageopacity="0.0"
     inkscape:pagecheckerboard="0"
     inkscape:deskcolor="#d1d1d1"
     showgrid="false"
     inkscape:zoom="6.5925383"
     inkscape:cx="62.57074"
     inkscape:cy="88.584999"
     inkscape:window-width="2494"
     inkscape:window-height="1371"
     inkscape:window-x="0"
     inkscape:window-y="0"
     inkscape:window-maximized="1"
     inkscape:current-layer="svg636" />
  <linearGradient
     id="a">
    <stop
       offset="0"
       stop-color="#fff"
       id="stop613" />
    <stop
       offset="1"
       stop-color="#fff"
       stop-opacity="0"
       id="stop615" />
  </linearGradient>
  <linearGradient
     id="b"
     gradientUnits="userSpaceOnUse"
     x1="112.72591"
     x2="123.52026"
     xlink:href="#a"
     y1="29.209066"
     y2="29.209066"
     gradientTransform="translate(-85.67966,-8.290216)" />
  <linearGradient
     id="c"
     gradientUnits="userSpaceOnUse"
     x1="111.36903"
     x2="143.87444"
     xlink:href="#a"
     y1="24.461191"
     y2="24.461191"
     gradientTransform="translate(-85.67966,-8.290216)" />
  <path
     id="path622"
     d="M 24.991446 14.422721 A 14.203283 12.269219 0 0 0 10.821175 26.147865 L 14.632177 26.147865 C 14.260727 27.24736 14.023615 28.983604 14.017037 30.69913 C 14.013637 31.594703 14.039361 32.396036 14.073811 32.48006 C 14.108261 32.56408 14.335713 32.739698 14.579813 32.87031 C 15.051573 33.122736 15.550131 33.670721 15.840961 34.256029 C 16.06925 34.715459 16.151002 36.177538 16.002462 37.145424 C 15.913763 37.723319 15.62278 40.726615 15.6067 41.232027 C 15.6047 41.304427 16.131468 41.705496 16.803357 42.142611 C 17.463517 42.572089 18.025438 42.941571 18.052378 42.964451 C 18.079278 42.987321 18.409618 43.201722 18.786578 43.440137 C 19.163528 43.678552 19.538874 43.91651 19.619994 43.96929 C 19.701093 44.02207 20.279273 44.396136 20.904843 44.800501 C 22.485741 45.822371 22.854047 46.063697 23.142167 46.265593 C 23.374397 46.428312 23.644272 46.493626 23.745732 46.411661 C 23.790532 46.375441 23.651017 45.29195 23.403987 43.754873 C 23.196767 42.465464 22.833744 40.176419 22.512144 38.134278 C 22.426444 37.59006 22.293169 36.717604 22.216149 36.195154 C 22.13915 35.672704 22.030595 35.031525 21.975275 34.7703 C 21.919975 34.509074 21.874705 34.148569 21.874405 33.969405 C 21.874035 33.762756 21.801241 33.568955 21.675421 33.439701 C 21.480202 33.239202 21.314995 33.167093 19.566527 32.513683 C 18.092589 31.962868 17.470928 31.705746 17.386528 31.613021 C 17.342128 31.564271 17.205847 31.221881 17.083367 30.851813 C 16.960877 30.481744 16.819755 30.096907 16.770285 29.9969 C 16.720885 29.896891 16.680991 29.706437 16.680991 29.573027 C 16.680991 29.338151 16.691766 29.331942 17.027696 29.382863 C 17.218516 29.411783 18.067336 29.487727 18.913905 29.55153 C 23.323451 29.883858 23.313817 29.882801 23.380837 30.023909 C 23.433037 30.133802 23.332157 31.296421 23.151537 32.672429 C 22.968747 34.065632 22.979831 34.119535 23.602971 34.883296 C 24.74467 36.282628 24.86517 36.420474 24.9705 36.448706 C 25.09454 36.481956 26.82824 34.382905 26.91679 34.092323 C 26.94909 33.986288 26.929094 33.507416 26.872694 33.028505 C 26.588714 30.618609 26.549375 30.050919 26.657175 29.963828 C 26.767574 29.874628 27.516164 29.809591 33.043939 29.405462 C 33.258328 29.389782 33.287172 29.416979 33.274892 29.62484 C 33.267892 29.755451 33.129585 30.254391 32.968975 30.733305 L 32.676839 31.603651 L 31.394194 32.117921 C 30.688925 32.400915 29.736774 32.771523 29.278134 32.940864 C 28.819505 33.110203 28.380007 33.306141 28.301407 33.376313 C 28.214507 33.453883 28.119398 33.813906 28.058878 34.295164 C 28.004178 34.730487 27.867799 35.638831 27.756269 36.313662 C 27.644739 36.988492 27.511935 37.843581 27.460825 38.213651 C 27.409725 38.58372 27.29907 39.278652 27.21499 39.757565 C 27.13089 40.236477 27.000738 41.074697 26.925058 41.620623 C 26.849358 42.16655 26.760569 42.701325 26.728279 42.808461 C 26.695979 42.915596 26.628663 43.323349 26.578353 43.715187 C 26.528053 44.107023 26.420272 44.851299 26.339132 45.36934 C 26.192992 46.302341 26.200644 46.445836 26.395354 46.445836 C 26.637394 46.445836 34.143866 41.546177 34.277526 41.300927 C 34.391986 41.090934 34.321141 39.686704 34.119331 38.174516 C 34.061231 37.739142 33.970954 37.062126 33.918694 36.670289 C 33.717224 35.159451 34.135652 33.81162 35.005111 33.173471 C 35.232171 33.006816 35.545277 32.775028 35.700727 32.658649 L 35.983493 32.446988 L 35.983493 30.930083 C 35.983493 29.143748 35.742428 27.342187 35.347958 26.147865 L 39.179355 26.147865 A 14.203283 12.269219 0 0 0 24.991446 14.422721 z M 24.999714 17.198017 L 25.047668 17.201324 C 27.588826 17.391203 29.540562 17.938286 31.043631 18.970128 C 32.546699 20.001971 33.553075 21.505299 34.240044 23.440366 L 34.665571 24.639779 L 24.999714 21.677075 L 16.549805 24.267168 L 15.334407 24.639779 L 15.759383 23.440366 C 16.446362 21.505299 17.453289 20.001971 18.956348 18.970128 C 20.459426 17.938286 22.411153 17.391203 24.95231 17.201324 L 24.999714 17.198017 z M 24.421504 18.53964 C 22.343446 18.757061 20.817844 19.245544 19.680626 20.026229 C 18.778777 20.645342 18.139884 21.544559 17.591574 22.609156 L 24.414338 20.519002 C 24.407338 20.465492 24.403314 20.410292 24.403314 20.353642 L 24.403314 18.751852 C 24.403314 18.678304 24.409304 18.60764 24.421504 18.53964 z M 25.577923 18.53964 C 25.589923 18.607644 25.596664 18.678302 25.596664 18.751852 L 25.596664 20.353642 C 25.596664 20.410291 25.59264 20.465492 25.58564 20.519002 L 32.407853 22.609156 C 31.859543 21.54456 31.221202 20.645342 30.319353 20.026229 C 29.182104 19.24552 27.656071 18.75705 25.577923 18.53964 z "
     style="fill:#888888;fill-opacity:1" />
  <path
     id="path620"
     d="M 24.999714 4.8874978 A 22.565231 22.565231 0 0 0 2.4346541 27.452557 A 22.565231 22.565231 0 0 0 2.4737893 28.558817 L 10.984881 26.133534 L 24.976012 26.133534 L 25.023415 26.133534 L 39.014546 26.133534 L 47.525638 28.558817 A 22.565231 22.565231 0 0 0 47.565324 27.452557 A 22.565231 22.565231 0 0 0 24.999714 4.8874978 z M 24.989241 6.5069258 C 26.691497 6.5069258 27.880878 6.588136 29.232936 7.045449 L 26.656623 12.688092 L 26.564022 12.886524 C 25.893922 12.830094 25.635679 12.810565 24.989241 12.795025 C 24.342811 12.810565 24.084558 12.830094 23.41446 12.886524 L 23.321858 12.688092 L 20.746097 7.045449 C 22.098143 6.588137 23.286995 6.5069258 24.989241 6.5069258 z M 16.752096 8.7651956 L 20.139225 13.748602 C 19.242717 14.044095 18.369138 14.483594 17.51606 14.833366 L 13.041412 10.96118 C 13.832506 10.306009 15.099668 9.4120902 16.752096 8.7651956 z M 33.265521 8.7651956 C 34.917959 9.4120902 36.185127 10.306009 36.976205 10.96118 L 32.501557 14.833366 C 31.648479 14.483594 30.775451 14.044095 29.878943 13.748602 L 33.265521 8.7651956 z M 9.7722395 13.873174 L 14.616744 16.834225 C 13.926582 17.478205 13.31994 18.164426 12.69195 18.839493 L 7.3524679 17.233294 C 7.7961979 16.306912 8.5429789 15.152996 9.7722395 13.873174 z M 40.245929 13.873174 C 41.475185 15.152996 42.221419 16.306912 42.665149 17.233294 L 37.325667 18.839493 C 36.697677 18.164426 36.091594 17.478205 35.401424 16.834225 L 40.245929 13.873174 z M 24.999714 17.198017 L 25.047668 17.201324 C 27.588826 17.391203 29.540562 17.938286 31.043631 18.970128 C 32.546699 20.001971 33.553075 21.505299 34.240044 23.440366 L 34.665571 24.639779 L 24.999714 21.677075 L 16.549805 24.267168 L 15.334407 24.639779 L 15.759383 23.440366 C 16.446362 21.505299 17.453289 20.001971 18.956348 18.970128 C 20.459426 17.938286 22.411153 17.391203 24.95231 17.201324 L 24.999714 17.198017 z M 24.421504 18.53964 C 22.343446 18.757061 20.817844 19.245544 19.680626 20.026229 C 18.778777 20.645342 18.139884 21.544559 17.591574 22.609156 L 24.414338 20.519002 C 24.407338 20.465492 24.403314 20.410292 24.403314 20.353642 L 24.403314 18.751852 C 24.403314 18.678304 24.409304 18.60764 24.421504 18.53964 z M 25.577923 18.53964 C 25.589923 18.607644 25.596664 18.678302 25.596664 18.751852 L 25.596664 20.353642 C 25.596664 20.410291 25.59264 20.465492 25.58564 20.519002 L 32.407853 22.609156 C 31.859543 21.54456 31.221202 20.645342 30.319353 20.026229 C 29.182104 19.24552 27.656071 18.75705 25.577923 18.53964 z M 10.885665 21.802198 C 10.151569 24.31849 10.328502 23.965301 10.202727 24.565367 L 4.7348151 25.835334 C 4.8230439 24.648456 4.8873239 23.805739 5.4034217 21.824246 L 10.885665 21.802198 z M 39.131952 21.802198 L 44.614746 21.824246 C 45.130846 23.805739 45.195153 24.648456 45.283353 25.835334 L 39.815441 24.565367 C 39.689661 23.965301 39.86605 24.31849 39.131952 21.802198 z "
     style="fill:#888888;fill-opacity:1" />
  <g
     fill="#1f1a17"
     transform="translate(-85.774587,-8.169974)"
     id="g632"
     style="fill:#888888;fill-opacity:1">
    <path
       d="m 91.147208,35.505471 -0.299334,0.997781 c -0.578423,1.928074 1.775644,4.441856 1.9112,5.763614 0.362633,3.535901 2.219102,4.988785 2.840633,5.467849 0,0 0.183216,0.131898 0.126784,-0.843624 -0.08274,-1.430287 -1.193078,-6.421921 -1.889976,-8.029373 -0.512163,-1.181346 2.349484,-4.453805 2.349484,-4.453805 z"
       id="path628"
       style="fill:#888888;fill-opacity:1" />
    <path
       d="m 130.40197,35.505471 0.29933,0.997781 c 0.57842,1.928074 -1.77564,4.441856 -1.9112,5.763614 -0.36263,3.535901 -2.2191,4.988785 -2.84063,5.467849 0,0 -0.18322,0.131898 -0.12679,-0.843624 0.0827,-1.430287 1.19308,-6.421921 1.88998,-8.029373 0.51216,-1.181346 -2.34949,-4.453805 -2.34949,-4.453805 z"
       id="path630"
       style="fill:#888888;fill-opacity:1" />
  </g>
</svg>
