<?xml version="1.0" encoding="UTF-8" standalone="no"?>
<svg
   height="45"
   width="45"
   version="1.1"
   id="svg24"
   sodipodi:docname="synochess-rook.svg"
   inkscape:version="1.2.2 (b0a8486541, 2022-12-01)"
   xmlns:inkscape="http://www.inkscape.org/namespaces/inkscape"
   xmlns:sodipodi="http://sodipodi.sourceforge.net/DTD/sodipodi-0.dtd"
   xmlns="http://www.w3.org/2000/svg"
   xmlns:svg="http://www.w3.org/2000/svg">
  <defs
     id="defs28" />
  <sodipodi:namedview
     id="namedview26"
     pagecolor="#ffffff"
     bordercolor="#666666"
     borderopacity="1.0"
     inkscape:showpageshadow="2"
     inkscape:pageopacity="0.0"
     inkscape:pagecheckerboard="0"
     inkscape:deskcolor="#d1d1d1"
     showgrid="false"
     inkscape:zoom="22.822222"
     inkscape:cx="22.5"
     inkscape:cy="22.478092"
     inkscape:window-width="2494"
     inkscape:window-height="1371"
     inkscape:window-x="0"
     inkscape:window-y="0"
     inkscape:window-maximized="1"
     inkscape:current-layer="svg24" />
  <path
     d="m 32.874189,14.826605 h 1.730589 c 1.699067,0 3.066908,0.944051 3.066908,2.116707 v 10.926739 c 0,1.172655 -1.367841,2.116706 -3.066908,2.116706 H 10.39523 c -1.6990663,0 -4.0038137,-0.04076 -3.9706649,-1.212948 0.075313,-2.663176 1.8722649,-8.074802 4.4811319,-9.119223 8.131771,-3.255434 18.185472,-1.363577 21.968492,-4.827981 z"
     stroke-linecap="round"
     stroke-linejoin="round"
     stroke-width="1.5"
     id="path2"
     style="fill:#888888;stroke:#888888" />
  <circle
     cx="22.5"
     cy="29.169834"
     r="12.330165"
     stroke-linecap="round"
     stroke-linejoin="round"
     stroke-width="2.96184"
     id="circle4"
     style="fill:#888888;stroke:#888888" />
  <path
     d="M 21.833123,16.807355 23.857447,6.331938"
     stroke-width="1.66847"
     id="path18"
     style="fill:#888888;stroke:#888888" />
  <path
     d="M 6.8415734,5.5472001 C 15.749441,7.5668398 22.258074,8.7297666 40.310675,10.74183 40.865459,8.94958 29.884011,4.8135852 24.002703,4.0071422 18.378188,3.2359105 7.0819481,4.1049459 6.8415734,5.5472001 Z"
     stroke-linejoin="round"
     stroke-width="1.5"
     id="path20"
     style="fill:#888888;stroke:#888888" />
</svg>
