<svg height="45" width="45" xmlns="http://www.w3.org/2000/svg"><g fill="#888" stroke="#888"><g stroke-width="1.5" transform="matrix(1.1935417 -.32995497 .31980853 1.2314087 -11.534457 2.062972)"><path d="m32.410718 25.289882-16.923187-15.5443789-5.9897591 5.6347829c1.0568801 1.056879 14.8551881 16.986973 14.8551881 16.986973 7.338306 9.869936 15.874858.07486 8.057758-7.077377z" stroke-linejoin="round"/><path d="m15.503388 10.71209-1.063935 1.078926 14.984375 13.615234c1.590774 1.445393 2.598231 2.55975 3.166016 3.566406.567785 1.006657.739126 1.904253.646484 3.134766l1.496094.113281c.10878-1.444874-.132361-2.736966-.835938-3.984375-.703576-1.247409-1.825832-2.45023-3.464843-3.939453z"/></g><path d="m17.011973 39.82547h22.55802l-4.439129-12.104198c-2.116789-5.771861-12.152161-5.611496-14.04214 0z" stroke-linejoin="round" stroke-width="1.88264"/></g></svg>