<?xml version="1.0" encoding="UTF-8" standalone="no"?>
<svg
   xmlns:dc="http://purl.org/dc/elements/1.1/"
   xmlns:cc="http://creativecommons.org/ns#"
   xmlns:rdf="http://www.w3.org/1999/02/22-rdf-syntax-ns#"
   xmlns:svg="http://www.w3.org/2000/svg"
   xmlns="http://www.w3.org/2000/svg"
   xmlns:sodipodi="http://sodipodi.sourceforge.net/DTD/sodipodi-0.dtd"
   xmlns:inkscape="http://www.inkscape.org/namespaces/inkscape"
   width="45"
   height="45"
   version="1.1"
   id="svg2101"
   sodipodi:docname="vulture.svg"
   inkscape:version="0.92.5 (2060ec1f9f, 2020-04-08)">
  <metadata
     id="metadata2107">
    <rdf:RDF>
      <cc:Work
         rdf:about="">
        <dc:format>image/svg+xml</dc:format>
        <dc:type
           rdf:resource="http://purl.org/dc/dcmitype/StillImage" />
        <dc:title></dc:title>
      </cc:Work>
    </rdf:RDF>
  </metadata>
  <defs
     id="defs2105">
    <linearGradient
       gradientUnits="userSpaceOnUse"
       x2="77.639999"
       x1="21.405001"
       id="0"
       gradientTransform="matrix(0.88961068,0,0,0.88961068,-49.158807,-0.35826517)">
      <stop
         id="stop3316"
         stop-color="#fff" />
      <stop
         id="stop3318"
         stop-opacity="0"
         stop-color="#fff"
         offset="1" />
    </linearGradient>
  </defs>
  <sodipodi:namedview
     inkscape:document-rotation="0"
     pagecolor="#ffffff"
     bordercolor="#666666"
     borderopacity="1"
     objecttolerance="10"
     gridtolerance="10"
     guidetolerance="10"
     inkscape:pageopacity="0"
     inkscape:pageshadow="2"
     inkscape:window-width="1848"
     inkscape:window-height="1016"
     id="namedview2103"
     showgrid="false"
     inkscape:zoom="13.639304"
     inkscape:cx="32.06209"
     inkscape:cy="30.817293"
     inkscape:window-x="72"
     inkscape:window-y="27"
     inkscape:window-maximized="1"
     inkscape:current-layer="svg2101" />
  <g
     style="fill:#888888;fill-opacity:1;stroke:#888888;stroke-width:1.8442;stroke-miterlimit:4;stroke-dasharray:none;stroke-opacity:1"
     id="g13475"
     transform="matrix(0.73466667,0,0,0.90048402,-42.827324,-18.189777)">
    <path
       sodipodi:nodetypes="ccscsccccsssc"
       d="m 70.035274,44.038386 c -0.776783,1.752435 0.756269,2.882784 2.521688,3.638071 -0.460869,-0.943188 -0.58636,-2.096712 0.182034,-2.096489 3.992575,0.0012 4.838657,-1.290017 6.021389,-2.09324 3.373409,-0.284963 4.837743,0.702448 6.468345,1.000304 3.567758,0.651708 3.464576,3.830761 2.709372,7.248196 -5.86098,3.488589 -7.989552,7.362033 -7.116352,11.809667 l 28.57973,-0.21175 c -3.18819,-7.410485 6.22815,-20.5325 -2.10157,-21.332014 -1.62939,-4.495092 -5.35835,-7.986728 -9.792595,-9.756007 -1.966177,-0.784511 -7.632607,-1.800098 -10.295947,-1.660523 -3.482823,0.18252 -7.817452,3.471906 -14.391257,8.326803 -2.263037,1.671301 -2.459646,3.292629 -2.784837,5.126982 z"
       style="fill:#888888;fill-opacity:1;stroke:#888888;stroke-width:1.8442;stroke-linecap:butt;stroke-linejoin:round;stroke-miterlimit:4;stroke-dasharray:none;stroke-opacity:1"
       id="path13430" />
  </g>
  <path
     d="m 20.612658,16.149559 c -1.571662,-0.177038 -2.946813,-3.015068 2.3e-5,-2.926573 2.478191,0.139665 2.744017,3.062756 -2.3e-5,2.926573 z"
     fill="#000000"
     id="path5875"
     sodipodi:nodetypes="ccc"
     style="stroke-width:2.36645;fill:#888888;fill-opacity:1;stroke:#888888;stroke-opacity:1" />
  <path
     style="fill:#888888;stroke:#888888;stroke-width:1.5;stroke-linecap:butt;stroke-linejoin:miter;stroke-opacity:1;stroke-miterlimit:4;stroke-dasharray:none;fill-opacity:1"
     d="m 11.392286,16.222872 c 3.113175,1.091465 3.384738,3.162796 3.739193,5.205544"
     id="path7835"
     sodipodi:nodetypes="cc" />
  <path
     style="fill:#888888;stroke:#888888;stroke-width:1.5;stroke-linecap:butt;stroke-linejoin:miter;stroke-miterlimit:4;stroke-dasharray:none;stroke-opacity:1;fill-opacity:1"
     d="m 36.287482,19.709335 c -5.2102,-0.215825 -10.614694,2.898538 -14.847807,9.054811"
     id="path7837"
     sodipodi:nodetypes="cc" />
  <path
     style="fill:#888888;stroke:#888888;stroke-width:1.4;stroke-linecap:butt;stroke-linejoin:miter;stroke-miterlimit:4;stroke-dasharray:none;stroke-opacity:1;fill-opacity:1"
     d="m 10.200066,23.010301 c 1.070683,-1.883 0.876637,-3.059004 3.931644,-4.346707"
     id="path7839"
     sodipodi:nodetypes="cc" />
  <path
     d="m 20.820475,17.014909 c -2.738358,-0.308459 -5.134329,-5.253251 4e-5,-5.099063 4.317832,0.243342 4.78099,5.336339 -4e-5,5.099063 z"
     fill="#000000"
     id="path7874"
     sodipodi:nodetypes="ccc"
     style="fill:#888888;stroke:#888888;stroke-width:1;stroke-miterlimit:4;stroke-dasharray:none;fill-opacity:1;stroke-opacity:1" />
  <path
     style="fill:#888888;stroke:#888888;stroke-width:1.5;stroke-linecap:butt;stroke-linejoin:miter;stroke-miterlimit:4;stroke-dasharray:none;stroke-opacity:1;fill-opacity:1"
     d="m 30.354158,11.672803 c -2.799997,2.567388 -3.742884,7.112478 -10.49081,10.34613"
     id="path10902"
     sodipodi:nodetypes="cc" />
  <path
     style="fill:#888888;stroke:#888888;stroke-width:1.5;stroke-linecap:butt;stroke-linejoin:miter;stroke-miterlimit:4;stroke-dasharray:none;stroke-opacity:1;fill-opacity:1"
     d="m 14.544939,13.840052 c 2.96654,1.568029 3.494714,5.508957 3.849169,7.551705"
     id="path10904"
     sodipodi:nodetypes="cc" />
</svg>
