<svg height="45" width="45" xmlns="http://www.w3.org/2000/svg"><g fill="#888" stroke="#888" stroke-width="1.5" transform="translate(-.56066)"><g fill-rule="evenodd" stroke-linecap="round" stroke-linejoin="round"><path d="m22 10c2.988512.28462 6.133921.468341 7.825806 2.49647l5.267407 6.314248 2.906787 20.189282h-20.8125l1.127159-7.028594 4.335008-6.008954c1.18167-1.637967.835871-4.442303.350333-7.962452"/><path d="m24 18-6.453204 8.425476c-2.920313 3.07584-3.681205 4.938422-4.221621 4.680163l-3.4135633-2.077911-1.7902914-2.497398 2.7775627-6.610547 1.101117-5.919783 2-3.5.169643-3 1.959602-.1675936.370755 2.6675936h2l1.651786-2.8660714 1.653408.4140071.194806 2.4520643"/><path d="m16.167741 15.578817c-1.741339 1.010444-2.245744.136763-.499979-.866012 1.74134-1.010443 2.245747-.136763.499979.866012z"/><path d="m11.779029 25.68252c0 .666666-1 .666666-1 0s1-.666666 1 0z"/></g><path d="m28.637825 16.450564c.53033.441942 3.093592 5.038136 3.093592 5.038136l1.414213 12.551145"/></g></svg>