<svg height="92" width="92" xmlns="http://www.w3.org/2000/svg"><g fill="#888" stroke="#888"><g transform="matrix(-.73788753312 0 0 .61791056068 907.24752991129 -152.87118068146)"><g stroke-miterlimit="10" transform="matrix(.91849155 -.04088349 .02866942 .91849155 95.269582 54.832886)"><path d="m1213.6335 288.03625-92.5944 36.18456s-8.0242 8.93392-2.8931 21.42532l.063.30499.063.30498c4.9395 12.5585 16.4998 12.34665 16.4998 12.34665 37.098-28.13428 66.1489-38.4485 87.024-50.31774-.192-4.06467-1.8458-7.47907-2.8249-11.1936-1.3824-3.19489-2.9322-6.31529-5.3374-9.05516z" stroke-width="2.653304"/><ellipse cx="1017.132" cy="677.90155" rx="3.753881" ry="3.661743" stroke-width="3.006102" transform="matrix(.95110508 -.30886749 .22204229 .97503704 0 0)"/></g><g stroke-linecap="square"><path d="m1188.053 314.76933-.1997 22.82133-37.6537 4.53206c-16.1431 26.71247-25.0217 28.93186-41.2475 19.47896 18.33-6.79184 27.9258-27.84095 38.5459-46.51534z" stroke-width="1.831596"/><ellipse cx="-1207.3654" cy="214.17735" rx="27.158773" ry="32.340363" stroke-linejoin="bevel" stroke-width="1.993242" transform="matrix(-.99442868 -.10541155 -.07412913 .99724865 0 0)"/><ellipse cx="1184.762" cy="340.7244" rx="17.729818" ry="21.17234" stroke-width="2.057922"/><path d="m-684.76074 1132.5303h2.920022v41.437584h-2.920022z" stroke-width="2.221077" transform="matrix(-.62961158 .77691007 .65434208 .75619868 0 0)"/><path d="m-1155.4326-703.56848h2.902706v41.684681h-2.902706z" stroke-width="2.221074" transform="matrix(-.65516628 -.75548471 -.62877406 .77758805 0 0)"/><path d="m343.79016 1165.2843h3.156975v37.732437h-3.156975z" stroke-width="2.20377" transform="matrix(.0023305 .99999728 .99999448 -.00332335 0 0)"/><path d="m-1184.9684 323.77573h2.643678v45.058598h-2.643678z" stroke-width="2.203771" transform="matrix(-.99998924 .00463819 .00325253 .99999471 0 0)"/></g></g><g stroke-width="1.68198"><path d="m7.0608629 15.924855 1.5835927-2.099732 61.9897714 22.87554c3.063078 3.647133 2.6523 6.136314 2.627188 8.754052-.79333-.44863-2.541445-6.986495-4.370064-7.606126-25.91489-8.781322-42.442142-16.820351-58.234704-21.353136-1.2435753-.356931-2.3683961-.235533-3.5957841-.570598z"/><path d="m54.389374 43.57195h5.372002l4.008958 6.093614c-1.710488-1.17596-3.957575-3.653295-4.890927-4.570209-3.688088-.767933-6.470447-.138242-9.781855-1.844122z"/></g></g></svg>