<?xml version="1.0" encoding="UTF-8" standalone="no"?>
<!-- Created with Inkscape (http://www.inkscape.org/) -->

<svg
   width="30mm"
   height="30mm"
   viewBox="0 0 30 30"
   version="1.1"
   id="svg1"
   xmlns="http://www.w3.org/2000/svg"
   xmlns:svg="http://www.w3.org/2000/svg">
  <defs
     id="defs1">
    <clipPath
       clipPathUnits="userSpaceOnUse"
       id="clipPath182-4-0-0-0-5-6-4-0-2-99-4">
      <path
         d="M 0,2834.646 H 2834.646 V 0 H 0 Z"
         transform="translate(-91.9855,-311.81193)"
         id="path182-0-3-0-8-1-8-6-2-1-2-8" />
    </clipPath>
    <clipPath
       clipPathUnits="userSpaceOnUse"
       id="clipPath22-35-2-8">
      <path
         d="M 0,1133.858 H 1700.787 V 0 H 0 Z"
         transform="translate(-91.638902,-117.83643)"
         id="path22-8-0-2" />
    </clipPath>
    <clipPath
       clipPathUnits="userSpaceOnUse"
       id="clipPath24-18-4-4">
      <path
         d="M 0,1133.858 H 1700.787 V 0 H 0 Z"
         transform="translate(-91.705405,-120.07653)"
         id="path24-11-5-5" />
    </clipPath>
  </defs>
  <g
     id="layer1"
     transform="translate(-40)">
    <path
       id="path75-0-7"
       d="m 0,0 c 0,-19.491 -15.801,-35.292 -35.293,-35.292 -19.491,0 -35.292,15.801 -35.292,35.292 0,19.491 15.801,35.292 35.292,35.292 C -15.801,35.292 0,19.491 0,0"
       style="font-variation-settings:normal;vector-effect:none;fill:#f9d08f;fill-opacity:1;fill-rule:nonzero;stroke:#4d3608;stroke-width:1.58026;stroke-linecap:butt;stroke-linejoin:miter;stroke-miterlimit:10;stroke-dasharray:none;stroke-dashoffset:0;stroke-opacity:1;-inkscape-stroke:none;stop-color:#000000"
       transform="matrix(0.37968369,0,0,-0.37968364,68.399986,14.999988)"
       clip-path="url(#clipPath182-4-0-0-0-5-6-4-0-2-99-4)" />
    <path
       style="baseline-shift:baseline;display:inline;overflow:visible;opacity:1;vector-effect:none;fill:#d20000;fill-opacity:0.992157;stroke-miterlimit:10;enable-background:accumulate;stop-color:#000000;stop-opacity:1"
       d="M 55,3.5 C 48.66057,3.5 43.5,8.6605695 43.5,15 43.5,21.33943 48.66057,26.5 55,26.5 61.33943,26.5 66.5,21.33943 66.5,15 66.5,8.6605695 61.33943,3.5 55,3.5 Z m 0,2 c 5.25855,0 9.5,4.2414497 9.5,9.5 0,5.25855 -4.24145,9.5 -9.5,9.5 -5.25855,0 -9.5,-4.24145 -9.5,-9.5 0,-5.2585503 4.24145,-9.5 9.5,-9.5 z"
       id="ellipse91-2-1" />
    <g
       id="path300-1"
       style="opacity:1">
      <path
         style="baseline-shift:baseline;display:inline;overflow:visible;vector-effect:none;fill:#d20000;fill-opacity:0.992157;stroke-miterlimit:10;enable-background:accumulate;stop-color:#000000;stop-opacity:1"
         d="m 50.291646,17.157008 c -1.34866,0.0357 -4.04164,2.01385 -4.04164,0.21424 0,-3.06168 2.31334,-4.1288 4.69451,-4.29293 h 8.11098 c 2.38115,0.16413 4.69451,1.23125 4.69451,4.29293 0,1.79961 -2.69301,-0.1785 -4.04165,-0.21424 -3.13777,-0.0831 -6.27894,-0.0831 -9.41671,0 z"
         id="path88" />
      <path
         style="baseline-shift:baseline;display:inline;overflow:visible;vector-effect:none;fill:#f9d08f;stroke-miterlimit:10;enable-background:accumulate;stop-color:#000000;stop-opacity:1"
         d="m 50.927734,12.828125 c -1.222125,0.08424 -2.442778,0.398306 -3.375,1.111328 C 46.620513,14.652475 46,15.777289 46,17.371094 c 0,0.256127 0.04675,0.471994 0.158203,0.644531 0.111456,0.172537 0.289685,0.284742 0.474609,0.330078 0.36985,0.09067 0.773217,-0.01439 1.208985,-0.15625 0.871536,-0.28372 1.900402,-0.768469 2.457031,-0.783203 3.133356,-0.08298 6.268988,-0.08298 9.402344,0 0.556625,0.01475 1.585489,0.499488 2.457031,0.783203 0.435771,0.141858 0.839134,0.246926 1.208984,0.15625 0.184926,-0.04534 0.363153,-0.15754 0.47461,-0.330078 C 63.953254,17.843087 64,17.627221 64,17.371094 c 0,-1.593806 -0.620511,-2.718619 -1.552734,-3.431641 -0.932224,-0.713022 -2.152885,-1.027089 -3.375,-1.111328 h -0.0078 -8.128906 z m 0.0332,0.5 h 8.078125 c 1.159035,0.07989 2.285725,0.380822 3.105469,1.007813 0.819744,0.62699 1.355469,1.567281 1.355469,3.035156 0,0.193775 -0.03704,0.309445 -0.07813,0.373047 -0.04109,0.0636 -0.08521,0.09351 -0.173828,0.115234 -0.177234,0.04345 -0.529486,-0.01234 -0.935547,-0.144531 -0.812122,-0.264372 -1.805641,-0.787605 -2.597656,-0.808594 -3.142184,-0.08322 -6.287504,-0.08322 -9.429688,0 -0.792031,0.02097 -1.785537,0.544216 -2.597656,0.808594 -0.406059,0.132188 -0.758317,0.187981 -0.935547,0.144531 -0.08861,-0.02172 -0.132744,-0.05163 -0.173828,-0.115234 C 46.537041,17.680541 46.5,17.564869 46.5,17.371094 c 0,-1.467875 0.535728,-2.408166 1.355469,-3.035156 0.819741,-0.626991 1.946424,-0.927922 3.105468,-1.007813 z"
         id="path89" />
    </g>
    <g
       id="path301-5"
       style="opacity:1">
      <path
         style="baseline-shift:baseline;display:inline;overflow:visible;vector-effect:none;fill:#d20000;fill-opacity:0.992157;stroke-miterlimit:10;enable-background:accumulate;stop-color:#000000;stop-opacity:1"
         d="m 58.853506,13.875728 c 0,0 0.54125,-5.7496104 -3.8535,-5.7496104 -4.39474,0 -3.8535,5.7496104 -3.8535,5.7496104"
         id="path90" />
      <path
         style="baseline-shift:baseline;display:inline;overflow:visible;vector-effect:none;fill:#f9d08f;stroke-miterlimit:10;enable-background:accumulate;stop-color:#000000;stop-opacity:1"
         d="m 55,7.8769531 c -1.153197,0 -2.017818,0.3861338 -2.628906,0.9667969 -0.611088,0.5806631 -0.970391,1.34093 -1.185547,2.087891 -0.430312,1.493921 -0.287109,2.966796 -0.28711,2.966797 l 0.496094,-0.04687 c 0,0 -0.126268,-1.400366 0.271485,-2.78125 0.198876,-0.690443 0.527331,-1.367846 1.050781,-1.8652349 0.52345,-0.4973889 1.23903,-0.828125 2.283203,-0.828125 1.044175,0 1.759752,0.3307362 2.283203,0.828125 0.523451,0.4973889 0.851906,1.1747919 1.050781,1.8652349 0.397752,1.380884 0.271485,2.781249 0.271485,2.78125 l 0.496093,0.04687 c 0,0 0.143202,-1.472876 -0.287109,-2.966797 C 58.599298,10.18468 58.239995,9.4244131 57.628906,8.84375 57.017818,8.2630869 56.1532,7.8769531 55,7.8769531 Z"
         id="path91" />
    </g>
    <g
       id="path302-2"
       clip-path="url(#clipPath22-35-2-8)"
       style="opacity:1"
       transform="matrix(-0.72475803,0,0,0.71944127,50.375326,19.843228)">
      <path
         style="baseline-shift:baseline;display:inline;overflow:visible;vector-effect:none;fill:#d20000;fill-opacity:0.992157;stroke-miterlimit:10;enable-background:accumulate;stop-color:#000000;stop-opacity:1"
         d="m -6.3810425,0.04256467 c -3.3937984,0.001917 -6.6123725,-1.16280657 -6.6123725,-1.16280657 v -4.4210042 c 0,0 0.488287,-2.7520376 1.449145,-3.6227176 1.330425,-1.2055623 3.3737832,-1.4731683 5.1632275,-1.4807583 1.8440522,-0.0078 4.0560696,0.140845 5.333358,1.4807583 1.27777404,1.340423 1.2532695,5.4303745 1.2532695,5.4303745 l 4.3e-7,2.6118473 c 0,0 -3.19282953,1.16238953 -6.58662793,1.16430657 z"
         id="path92" />
      <path
         style="baseline-shift:baseline;display:inline;overflow:visible;vector-effect:none;fill:#f9d08f;stroke-miterlimit:10;enable-background:accumulate;stop-color:#000000;stop-opacity:1"
         d="m -6.3828125,-10.990234 c -1.8228424,0.0077 -3.9522885,0.263426 -5.3945315,1.5703121 -0.593303,0.537621 -0.934704,1.4740446 -1.183594,2.2929688 -0.248889,0.8189242 -0.373046,1.5253906 -0.373046,1.5253906 l -0.0059,0.029297 v 4.69531247 l 0.228516,0.0820313 c 0,0 3.2573345,1.18555556 6.7304686,1.18359375 3.4727291,-0.001962 6.70507815,-1.18554688 6.70507815,-1.18554688 l 0.22851562,-0.0820313 v -2.85351564 -0.00195 c 1.133e-5,-0.00179 0.006442,-1.0407377 -0.15039062,-2.2558594 -0.15696794,-1.2161691 -0.4382257,-2.613805 -1.19921875,-3.4121094 -1.4062078,-1.4751534 -3.7221096,-1.5957744 -5.5859375,-1.5878904 z m 0.00391,0.691406 c 1.8242765,-0.0077 3.9317091,0.168374 5.0800781,1.3730467 0.51678097,0.5421187 0.86344855,1.8595251 1.01367185,3.0234376 0.1502233,1.1639124 0.14453125,2.1660156 0.14453125,2.1660156 v 0.00195 2.3515625 c -0.33136522,0.1162444 -3.1152716,1.07831294 -6.2402344,1.08007812 -3.125656,0.001766 -5.9332973,-0.96222012 -6.2656243,-1.07812502 v -4.1230468 c 0.0038,-0.021254 0.116011,-0.6596899 0.347656,-1.421875 0.235468,-0.7747646 0.618773,-1.6493629 0.986328,-1.9824219 1.218607,-1.1042388 3.1775473,-1.3831768 4.9335935,-1.3906248 z"
         id="path93" />
    </g>
    <g
       id="path303-7"
       clip-path="url(#clipPath24-18-4-4)"
       style="opacity:1"
       transform="matrix(-0.72475803,0,0,0.71944127,50.326946,18.239768)">
      <path
         style="baseline-shift:baseline;display:inline;overflow:visible;vector-effect:none;fill:#d20000;fill-opacity:0.992157;stroke-miterlimit:10;enable-background:accumulate;stop-color:#000000;stop-opacity:1"
         d="m 0.13916836,-0.60305231 c 0,0 -3.19336076,1.16550565 -6.58715916,1.16550565 -3.3937985,0 -6.6124542,-1.16250565 -6.6124542,-1.16250565"
         id="path94" />
      <path
         style="baseline-shift:baseline;display:inline;overflow:visible;vector-effect:none;fill:#f9d08f;stroke-miterlimit:10;enable-background:accumulate;stop-color:#000000;stop-opacity:1"
         d="m 0.01953125,-0.92773438 c 0,0 -3.15226375,1.14453126 -6.46679685,1.14453126 -3.3147373,0 -6.4960934,-1.14257813 -6.4960934,-1.14257813 l -0.234375,0.65039062 c 0,0 3.2576086,1.18359376 6.7304684,1.18359376 3.4730637,0 6.7050781,-1.18554688 6.7050781,-1.18554688 z"
         id="path95" />
    </g>
    <g
       id="path304-6"
       style="opacity:1">
      <path
         style="baseline-shift:baseline;display:inline;overflow:visible;vector-effect:none;fill:#d20000;fill-opacity:0.992157;stroke-miterlimit:10;enable-background:accumulate;stop-color:#000000;stop-opacity:1"
         d="m 59.783056,16.668048 c 0,0 -2.32339,0.6554 -4.78305,0.6554 -2.45966,0 -4.78308,-0.65644 -4.78308,-0.65644"
         id="path96" />
      <path
         style="baseline-shift:baseline;display:inline;overflow:visible;vector-effect:none;fill:#f9d08f;stroke-miterlimit:10;enable-background:accumulate;stop-color:#000000;stop-opacity:1"
         d="m 50.285156,16.425781 -0.136719,0.482422 c 0,0 2.347423,0.666016 4.851563,0.666016 2.50407,0 4.851562,-0.666016 4.851562,-0.666016 l -0.136718,-0.480469 c 0,0 -2.299594,0.646485 -4.714844,0.646485 -2.41518,0 -4.714844,-0.648438 -4.714844,-0.648438 z"
         id="path97" />
    </g>
    <g
       id="path305-1"
       style="opacity:1">
      <path
         style="baseline-shift:baseline;display:inline;overflow:visible;vector-effect:none;stroke-miterlimit:10;enable-background:accumulate;stop-color:#000000;stop-opacity:1"
         d="m 55.000006,8.1261176 -0.0125,4.0588004"
         id="path98" />
      <path
         style="baseline-shift:baseline;display:inline;overflow:visible;vector-effect:none;fill:#f9d08f;stroke-miterlimit:10;enable-background:accumulate;stop-color:#000000;stop-opacity:1"
         d="m 54.75,8.125 -0.01172,4.058594 0.5,0.002 L 55.25,8.1269531 Z"
         id="path99" />
    </g>
  </g>
</svg>
