<svg height="50" viewBox="0 0 13.229166 13.229167" width="50" xmlns="http://www.w3.org/2000/svg"><path d="m10.633729 284.69506-.190502 1.36209h-1.1382518c-.024125 0-.046364.0184-.050192.0414l-.1571646.95911c-.00376.023.01252.0414.036638.0414h1.1635294l-.212117 1.51596h1.186977l.212118-1.51596h1.193571c.02411 0 .04673-.0184.05055-.0414l.156798-.95911c.0038-.023-.01252-.0414-.03664-.0414h-1.218849l.190503-1.36209zm-8.6663952 1.49142-.5191192 2.45345h3.1319335l-1.7669108 1.37308-.3432706 2.00137h1.9760968c.5091168.79593.1870567 1.71053-.6949677 1.68338-.3966348-.0122-.7852615-.072-.9462841-.93785l-2.46187774.66968c.34530457 1.75053 1.41588014 2.64616 3.27407724 2.64616 3.2926598 0 5.7819911-3.79632 2.4369658-6.13785l1.7416324-1.37345.3516973-2.37797z" fill="#6f787d" fill-opacity=".968627" opacity=".99" transform="translate(0 -283.77082)"/></svg>