<svg height="50" viewBox="0 0 13.229166 13.229167" width="50" xmlns="http://www.w3.org/2000/svg"><g fill="#70787d" fill-opacity=".984314" transform="translate(0 -283.77082)"><path d="m10.605373 289.58693c-.8508688 0-1.7076599.065-1.8492206.19439-.2831377.25898-.5765288 3.40349-.3417172 3.66246s3.3793228.25897 3.6624598 0c.283136-.25897.576527-3.40348.341717-3.66246-.117407-.12948-.96237-.19439-1.813239-.19439zm-.938416.39759a.44136045.48450643 46.335493 0 1 .419218.46268.44136045.48450643 46.335493 0 1 -.5055295.46239.44136045.48450643 46.335493 0 1 -.4192463-.46239.44136045.48450643 46.335493 0 1 .5055578-.46268zm1.822872 0a.44136045.48450643 46.335493 0 1 .419219.46268.44136045.48450643 46.335493 0 1 -.505531.46239.44136045.48450643 46.335493 0 1 -.419245-.46239.44136045.48450643 46.335493 0 1 .505557-.46268zm-1.9525325 1.17283a.44136045.48450643 46.335493 0 1 .4192224.46267.44136045.48450643 46.335493 0 1 -.5055339.4624.44136045.48450643 46.335493 0 1 -.4192445-.4624.44136045.48450643 46.335493 0 1 .505556-.46267zm1.8228735 0a.44136045.48450643 46.335493 0 1 .419511.46267.44136045.48450643 46.335493 0 1 -.505823.4624.44136045.48450643 46.335493 0 1 -.419246-.4624.44136045.48450643 46.335493 0 1 .505558-.46267zm-1.9255569 1.17283a.44136045.48450643 46.335493 0 1 .4192182.46268.44136045.48450643 46.335493 0 1 -.5055297.46239.44136045.48450643 46.335493 0 1 -.419248-.46239.44136045.48450643 46.335493 0 1 .5055595-.46268zm1.8228729 0a.44136045.48450643 46.335493 0 1 .419217.46268.44136045.48450643 46.335493 0 1 -.505529.46239.44136045.48450643 46.335493 0 1 -.419247-.46239.44136045.48450643 46.335493 0 1 .505559-.46268z"/><path d="m10.633727 284.69506-.190502 1.36209h-1.1382514c-.02412 0-.04636.0184-.05019.0414l-.157165.95911c-.0038.023.01252.0414.03664.0414h1.1635294l-.212117 1.51596h1.186977l.212118-1.51596h1.193571c.02411 0 .04673-.0184.05055-.0414l.156798-.95911c.0038-.023-.01252-.0414-.03664-.0414h-1.218849l.190503-1.36209zm-8.666395 1.49142-.5191192 2.45345h3.1319335l-1.7669108 1.37308-.3432706 2.00137h1.9760968c.5091168.79593.1870567 1.71053-.6949677 1.68338-.3966348-.0122-.7852615-.072-.9462841-.93785l-2.4618777.66968c.3453045 1.75053 1.4158801 2.64616 3.2740772 2.64616 3.2926602 0 5.7819912-3.79632 2.4369658-6.13785l1.7416324-1.37345.351697-2.37797z"/></g></svg>