<svg xmlns="http://www.w3.org/2000/svg" viewBox="0 0 512 512" fill="currentColor">
  <path d="M403.0 493.0Q384 474 384.0 448.0Q384 422 403.0 403.0Q422 384 448.0 384.0Q474 384 493.0 403.0Q512 422 512.0 448.0Q512 474 493.0 493.0Q474 512 448.0 512.0Q422 512 403.0 493.0ZM425.0 425.0Q416 434 416.0 448.0Q416 462 425.0 471.0Q434 480 448.0 480.0Q462 480 471.0 471.0Q480 462 480.0 448.0Q480 434 471.0 425.0Q462 416 448.0 416.0Q434 416 425.0 425.0ZM19.0 109.0Q0 90 0.0 64.0Q0 38 19.0 19.0Q38 0 64.0 0.0Q90 0 109.0 19.0Q128 38 128.0 64.0Q128 90 109.0 109.0Q90 128 64.0 128.0Q38 128 19.0 109.0ZM41.0 41.0Q32 50 32.0 64.0Q32 78 41.0 87.0Q50 96 64.0 96.0Q78 96 87.0 87.0Q96 78 96.0 64.0Q96 50 87.0 41.0Q78 32 64.0 32.0Q50 32 41.0 41.0ZM448 128Q474 128 493.0 109.0Q512 90 512.0 64.0Q512 38 493.0 19.0Q474 0 448.0 0.0Q422 0 403.0 19.0Q384 38 384 64Q384 82 393 96L342 148Q299 128 256 128Q215 128 177.0 143.5Q139 159 111.0 184.5Q83 210 72.0 221.5Q61 233 52 245L51 246L44 255L51 265L55 270Q59 275 67.0 284.0Q75 293 85.0 303.5Q95 314 110.0 326.0Q125 338 141 348L96 393Q82 384 64 384Q38 384 19.0 403.0Q0 422 0.0 448.0Q0 474 19.0 493.0Q38 512 64.0 512.0Q90 512 109.0 493.0Q128 474 128 448Q128 430 119 416L171 364Q213 384 256 384Q374 383 460 266L461 265L468 256L461 247L460 245Q458 243 455.5 240.0Q453 237 449.5 232.5Q446 228 441.5 223.0Q437 218 431.5 212.5Q426 207 419.0 200.5Q412 194 405.0 188.0Q398 182 389.0 175.5Q380 169 371 164L416 119Q429 128 448 128ZM422 249Q424 252 428 256Q424 260 422 263Q341 353 256 352Q193 352 128 299Q111 285 90 262Q89 261 87.0 258.5Q85 256 84 255L90 249Q169 159 256 160Q318 160 384 212Q406 231 422 249ZM301.0 211.0Q320 230 320.0 256.0Q320 282 301.0 301.0Q282 320 256.0 320.0Q230 320 211.0 301.0Q192 282 192.0 256.0Q192 230 211.0 211.0Q230 192 256.0 192.0Q282 192 301.0 211.0Z"/>
</svg>
