<?xml version="1.0" encoding="UTF-8" standalone="no"?>
<svg
   width="50"
   height="50"
   viewBox="0 0 13.229166 13.229167"
   version="1.1"
   id="svg1579"
   sodipodi:docname="Alice.svg"
   inkscape:version="1.3 (0e150ed6c4, 2023-07-21)"
   xml:space="preserve"
   xmlns:inkscape="http://www.inkscape.org/namespaces/inkscape"
   xmlns:sodipodi="http://sodipodi.sourceforge.net/DTD/sodipodi-0.dtd"
   xmlns="http://www.w3.org/2000/svg"
   xmlns:svg="http://www.w3.org/2000/svg"
   xmlns:rdf="http://www.w3.org/1999/02/22-rdf-syntax-ns#"
   xmlns:cc="http://creativecommons.org/ns#"
   xmlns:dc="http://purl.org/dc/elements/1.1/"><defs
     id="defs1573" /><sodipodi:namedview
     id="base"
     pagecolor="#ffffff"
     bordercolor="#666666"
     borderopacity="1.0"
     inkscape:pageopacity="0.0"
     inkscape:pageshadow="2"
     inkscape:zoom="11.2"
     inkscape:cx="64.6875"
     inkscape:cy="55.133929"
     inkscape:document-units="px"
     inkscape:current-layer="layer1"
     showgrid="false"
     units="px"
     showguides="true"
     inkscape:window-width="3840"
     inkscape:window-height="2036"
     inkscape:window-x="3828"
     inkscape:window-y="-12"
     inkscape:window-maximized="1"
     inkscape:lockguides="true"
     inkscape:document-rotation="0"
     inkscape:showpageshadow="2"
     inkscape:pagecheckerboard="0"
     inkscape:deskcolor="#d1d1d1" /><metadata
     id="metadata1576"><rdf:RDF><cc:Work
         rdf:about=""><dc:format>image/svg+xml</dc:format><dc:type
           rdf:resource="http://purl.org/dc/dcmitype/StillImage" /></cc:Work></rdf:RDF></metadata><g
     inkscape:label="Layer 1"
     inkscape:groupmode="layer"
     id="layer1"
     transform="translate(0,-283.77082)"
     style="opacity:0.98999999"><path
       style="fill:#90c0d5;fill-opacity:0.992157;stroke-width:0.106842"
       d="m 6.3600352,296.72229 c -0.1434652,-0.0398 -0.2925986,-0.11193 -0.3925058,-0.18979 -0.051467,-0.0401 -0.1156097,-0.0526 -0.2711055,-0.0526 -0.3423262,0 -0.6330036,-0.18371 -0.7847019,-0.49596 -0.033859,-0.0697 -0.084664,-0.12861 -0.1182498,-0.13713 -0.1034837,-0.0262 -0.673418,-0.36489 -0.8928086,-0.53048 -1.4066202,-1.06169 -2.1889265,-2.96898 -2.0065644,-4.89206 0.1115139,-1.17592 0.5517183,-2.20079 1.3121649,-3.0549 0.1993511,-0.2239 0.2421767,-0.28838 0.2425199,-0.36516 6.191e-4,-0.15375 0.080044,-0.44326 0.1579431,-0.57618 0.088242,-0.15057 0.2950525,-0.33956 0.4494144,-0.4107 0.071083,-0.0328 0.1790211,-0.0523 0.2906404,-0.0527 0.1435336,-5.4e-4 0.1807786,-0.0101 0.1943233,-0.05 0.1023622,-0.3022 0.3108829,-0.56462 0.5327061,-0.6704 0.062189,-0.0296 0.2013373,-0.0611 0.309213,-0.0699 l 0.1961367,-0.0159 0.033074,-0.13005 c 0.093435,-0.3674 0.3423621,-0.69709 0.6315669,-0.83643 0.2252069,-0.10856 0.5160974,-0.10856 0.7413054,0 0.2892048,0.13934 0.5381321,0.46903 0.6315657,0.83643 l 0.033074,0.13005 0.1961379,0.0159 c 0.1078689,0.008 0.2470206,0.0401 0.3092118,0.0699 0.2218243,0.10576 0.4303417,0.3682 0.5327061,0.6704 0.013548,0.04 0.050794,0.0496 0.1943244,0.05 0.1116148,4.2e-4 0.21956,0.02 0.2906393,0.0527 0.154362,0.0711 0.3611706,0.26013 0.4494156,0.4107 0.07789,0.13292 0.157254,0.42243 0.157943,0.57618 3.41e-4,0.0768 0.04317,0.14126 0.2425209,0.36516 0.483633,0.54321 0.896692,1.2725 1.098853,1.94011 0.474367,1.56656 0.23476,3.3675 -0.630548,4.73933 -0.282142,0.44728 -0.7460889,0.95306 -1.1627066,1.26752 -0.2193895,0.16559 -0.7893226,0.50424 -0.8928086,0.53048 -0.033579,0.008 -0.084395,0.0675 -0.1182498,0.13713 -0.090541,0.18637 -0.2187479,0.31494 -0.4086546,0.40984 -0.1442391,0.072 -0.2055924,0.0861 -0.3760473,0.0861 -0.1554947,0 -0.2196384,0.0124 -0.2711044,0.0526 -0.2520339,0.19642 -0.6076424,0.2713 -0.9013412,0.1898 z m 1.0132801,-2.17247 c 0.8555681,-0.23462 1.5466782,-0.82351 1.9846564,-1.69114 0.1253457,-0.24831 0.2973154,-0.78656 0.3513094,-1.09957 0.1369532,-0.79396 0.05826,-1.67081 -0.213074,-2.37442 -0.5469282,-1.41823 -1.8119618,-2.25059 -3.1879586,-2.09759 -0.3344508,0.0372 -0.5153875,0.082 -0.7962728,0.19709 -1.3008441,0.53311 -2.1215012,1.98115 -2.0542845,3.62473 0.032939,0.80538 0.2365658,1.50836 0.6040131,2.08523 0.4406722,0.69183 1.1006755,1.18501 1.8177636,1.3583 0.1321557,0.032 0.2657245,0.0644 0.2968212,0.0722 0.0311,0.008 0.2537094,0.0101 0.4946996,0.006 0.3654062,-0.007 0.4820286,-0.0203 0.7023266,-0.0806 z m -2.2037274,-4.16174 c -0.092268,-0.0501 -0.1508718,-0.18548 -0.1252359,-0.28921 0.026906,-0.1089 1.1317857,-1.21212 1.2409264,-1.2391 0.1782708,-0.0441 0.360994,0.13972 0.316227,0.31809 -0.020367,0.0812 -0.9292438,1.02406 -1.1291063,1.17137 -0.1219464,0.0899 -0.1923292,0.0989 -0.3028112,0.0389 z m -0.577628,-1.10121 c -0.051669,-0.0516 -0.069389,-0.0997 -0.069389,-0.18825 0,-0.11381 0.013627,-0.13251 0.3205785,-0.43945 0.3069419,-0.30694 0.3256344,-0.32057 0.4394486,-0.32057 0.088511,0 0.1365879,0.0178 0.1882569,0.0694 0.051669,0.0516 0.069378,0.0997 0.069378,0.18825 0,0.11382 -0.013627,0.13251 -0.3205786,0.43945 -0.3069429,0.30695 -0.3256344,0.32058 -0.4394474,0.32058 -0.088511,0 -0.1365891,-0.0178 -0.188258,-0.0694 z"
       id="path1" /></g></svg>
