<?xml version="1.0" encoding="UTF-8" standalone="no"?>
<svg
   width="50"
   height="50"
   viewBox="0 0 13.229166 13.229167"
   version="1.1"
   id="svg1579"
   sodipodi:docname="antichess.svg"
   inkscape:version="1.3 (0e150ed6c4, 2023-07-21)"
   xmlns:inkscape="http://www.inkscape.org/namespaces/inkscape"
   xmlns:sodipodi="http://sodipodi.sourceforge.net/DTD/sodipodi-0.dtd"
   xmlns="http://www.w3.org/2000/svg"
   xmlns:svg="http://www.w3.org/2000/svg"
   xmlns:rdf="http://www.w3.org/1999/02/22-rdf-syntax-ns#"
   xmlns:cc="http://creativecommons.org/ns#"
   xmlns:dc="http://purl.org/dc/elements/1.1/">
  <defs
     id="defs1573">
    <inkscape:path-effect
       effect="mirror_symmetry"
       start_point="-15.691712,-45.362002"
       end_point="-15.691712,4.437998"
       center_point="-15.691712,-20.462002"
       id="path-effect7365"
       is_visible="true"
       mode="free"
       discard_orig_path="false"
       fuse_paths="true"
       oposite_fuse="false" />
    <inkscape:path-effect
       effect="mirror_symmetry"
       start_point="275.14301,98.12006"
       end_point="275.14301,350.07326"
       center_point="275.14301,224.09666"
       id="path-effect4547-0"
       is_visible="true"
       mode="free"
       discard_orig_path="false"
       fuse_paths="true"
       oposite_fuse="false" />
    <inkscape:path-effect
       effect="mirror_symmetry"
       start_point="274.67636,240.21573"
       end_point="274.67636,418.88419"
       center_point="274.67636,329.54996"
       id="path-effect4551-7"
       is_visible="true"
       mode="free"
       discard_orig_path="false"
       fuse_paths="false"
       oposite_fuse="false" />
    <inkscape:path-effect
       effect="mirror_symmetry"
       start_point="273.50283,331.92091"
       end_point="273.50283,477.30227"
       center_point="273.50283,404.61159"
       id="path-effect4557-0"
       is_visible="true"
       mode="free"
       discard_orig_path="false"
       fuse_paths="false"
       oposite_fuse="false" />
    <inkscape:path-effect
       effect="mirror_symmetry"
       start_point="315.71788,90.192596"
       end_point="315.71788,96.192596"
       center_point="315.71788,93.192596"
       id="path-effect4669"
       is_visible="true"
       mode="free"
       discard_orig_path="false"
       fuse_paths="false"
       oposite_fuse="false" />
    <inkscape:path-effect
       oposite_fuse="false"
       fuse_paths="false"
       discard_orig_path="false"
       mode="free"
       is_visible="true"
       id="path-effect4802"
       center_point="316.91112,93.060013"
       end_point="316.91112,96.060013"
       start_point="316.91112,90.060013"
       effect="mirror_symmetry" />
    <linearGradient
       gradientTransform="matrix(0.27867357,0,0,0.27867357,-0.3072497,283.2508)"
       id="0"
       x1="21.253"
       y1="37.591999"
       x2="77.639999"
       y2="37.469002"
       gradientUnits="userSpaceOnUse">
      <stop
         stop-color="#fff"
         id="stop15223" />
      <stop
         offset="1"
         stop-color="#fff"
         stop-opacity="0"
         id="stop15225" />
    </linearGradient>
  </defs>
  <sodipodi:namedview
     id="base"
     pagecolor="#ffffff"
     bordercolor="#666666"
     borderopacity="1.0"
     inkscape:pageopacity="0.0"
     inkscape:pageshadow="2"
     inkscape:zoom="5.6"
     inkscape:cx="-18.660714"
     inkscape:cy="57.053571"
     inkscape:document-units="px"
     inkscape:current-layer="layer1"
     showgrid="false"
     units="px"
     showguides="true"
     inkscape:window-width="1916"
     inkscape:window-height="2022"
     inkscape:window-x="1910"
     inkscape:window-y="0"
     inkscape:window-maximized="0"
     inkscape:lockguides="true"
     inkscape:document-rotation="0"
     inkscape:showpageshadow="2"
     inkscape:pagecheckerboard="0"
     inkscape:deskcolor="#d1d1d1" />
  <metadata
     id="metadata1576">
    <rdf:RDF>
      <cc:Work
         rdf:about="">
        <dc:format>image/svg+xml</dc:format>
        <dc:type
           rdf:resource="http://purl.org/dc/dcmitype/StillImage" />
      </cc:Work>
    </rdf:RDF>
  </metadata>
  <g
     inkscape:label="Layer 1"
     inkscape:groupmode="layer"
     id="layer1"
     transform="translate(0,-283.77082)"
     style="opacity:0.98999999">
    <path
       d="m 5.6494185,283.91473 q -2.6805691,0.11535 -3.026449,1.09528 -0.05764,0.17294 -0.05764,0.48999 -0.028828,0.83588 -0.2017639,1.47001 -0.2017639,0.77822 -1.124109,2.07527 -0.63411322,0.92234 -0.63411322,1.70057 0,0.95118 0.63411322,1.58527 0.5476422,0.54766 1.3258729,0.7206 0.6052885,0.0576 1.0088164,-0.0289 0.6917597,-0.11535 1.2970481,-0.60529 l 0.1441242,-0.0866 v 0.23059 q 0,0.69176 0.2017622,1.06646 0.086468,0.17293 0.2882335,0.37469 0.1729407,0.17297 0.4035262,0.34589 l 0.1729407,0.11535 v 0.25941 0.23058 l -0.4035262,0.23058 -0.374703,0.25943 -0.028828,0.34586 v 0.37472 h 0.3747047 0.374703 l 0.1152961,0.34586 0.115296,0.37471 h 0.6629364 l 0.1441242,-0.37471 0.115296,-0.34586 h 0.3747027 0.3458799 v -0.37472 -0.34586 l -0.4035262,-0.2594 -0.374703,-0.23058 v -0.23058 -0.25941 l 0.1441077,-0.11535 q 0.5476438,-0.40353 0.6917597,-0.66293 0.2305872,-0.40353 0.2305872,-1.06647 v -0.11535 l 0.057639,-0.17295 v 0.0289 q 0.2017643,0.20177 0.6052906,0.37469 0.634111,0.34589 1.2970484,0.34589 0.835878,0 1.441168,-0.43235 0.403526,-0.23058 0.662933,-0.69176 0.60529,-0.92235 0.230588,-1.90234 -0.201765,-0.57647 -0.778229,-1.38352 -0.374702,-0.49 -0.547644,-0.83586 -0.432349,-0.8647 -0.518818,-2.30588 -0.02882,-0.60529 -0.25941,-0.83586 -0.345881,-0.37473 -1.152934,-0.54765 -1.2682265,-0.34588 -3.574091,-0.23058 z m -0.2594103,1.6141 1.2105785,0.11534 1.2105804,-0.11534 q 1.2682252,-0.0865 1.4988121,-0.0576 0.1729394,0.0576 0.2017643,0.18734 0.028824,0.12978 -0.1152962,0.245 -0.4899965,0.37472 -3.0264476,0.31706 -2.1041021,-0.0576 -2.5652764,-0.31706 -0.1441241,-0.0865 -0.1441241,-0.20177 0.028828,-0.20176 0.3170566,-0.23057 0.1152961,-0.0289 1.4123426,0.0576 z m -0.5764669,2.24821 q 0.8358772,0.0576 1.5276353,0.2306 l 0.230587,0.0289 0.374703,-0.0576 q 0.9511699,-0.17295 1.9599864,-0.23058 0.6341131,-0.0576 1.066463,0.14406 0.34588,0.17294 1.03764,1.03765 0.489995,0.74939 0.749406,1.35469 0.05764,0.23059 0.05764,0.51883 0,0.48999 -0.172939,0.77822 -0.374704,0.7494 -1.527636,0.80705 -0.05764,0 -0.2017633,-0.0148 -0.1441236,-0.0148 -0.1729408,-0.0148 -0.8358755,-0.17293 -1.642928,-0.97998 -0.4035277,-0.40354 -0.6341133,-0.86471 -0.3458799,-0.69175 -0.3458799,-1.58528 0,-0.34589 -0.3747029,-0.43236 -0.374703,-0.0576 -0.6052902,0.11536 -0.086468,0.14405 -0.086468,0.34586 0,1.03765 -0.5764668,1.96 -0.6917597,0.97999 -1.700576,1.35469 -0.7205829,0.25941 -1.4411657,0 -0.5476438,-0.17294 -0.8070525,-0.66294 -0.144124,-0.34588 -0.1729406,-0.63411 -0.028828,-0.43237 0.086468,-0.7494 0.3170567,-0.95118 1.3546962,-2.01764 0.3747031,-0.34588 0.6629365,-0.40353 0.4035262,-0.11534 1.3546961,-0.0289 z m -1.0664626,0.51883 q -0.2594104,0.0289 -0.5764671,0.28824 -0.7205828,0.51883 -1.1817553,1.44117 -0.1729407,0.31704 -0.201764,0.69175 0,0.51881 0.2882335,0.80705 0.201764,0.20176 0.6052901,0.31706 0.4611726,0.11534 0.8935236,0 0.6629349,-0.20177 1.1529323,-0.72058 0.7494059,-0.83588 0.8358756,-2.10411 0.028828,-0.31705 0,-0.40352 -0.1441078,-0.23059 -0.5764655,-0.31706 -0.4899973,-0.0576 -1.2394032,0 z m 4.4964377,0 q -0.4899958,0.0865 -0.6341133,0.34589 -0.028828,0.0865 -0.028828,0.34587 0.086468,0.77823 0.374703,1.41234 0.201764,0.43236 0.6052898,0.77823 0.4899964,0.49 1.0376393,0.66294 0.1441079,0.0289 0.4611728,0.0289 0.461173,0 0.77823,-0.14404 0.317056,-0.20176 0.403527,-0.40352 0.144108,-0.23059 0.144108,-0.63413 0,-0.92234 -1.325873,-2.01763 -0.4035257,-0.34588 -0.6917593,-0.3747 -0.6629368,-0.0576 -1.1241093,0 z"
       id="path125"
       style="fill:#90c0d5;fill-opacity:0.992157;stroke-width:0.0288234" />
  </g>
</svg>
