<?xml version="1.0" encoding="UTF-8" standalone="no"?>
<svg
   width="50"
   height="50"
   viewBox="0 0 13.229166 13.229167"
   version="1.1"
   id="svg1579"
   sodipodi:docname="Antichess960.svg"
   inkscape:version="1.3 (0e150ed6c4, 2023-07-21)"
   xmlns:inkscape="http://www.inkscape.org/namespaces/inkscape"
   xmlns:sodipodi="http://sodipodi.sourceforge.net/DTD/sodipodi-0.dtd"
   xmlns="http://www.w3.org/2000/svg"
   xmlns:svg="http://www.w3.org/2000/svg"
   xmlns:rdf="http://www.w3.org/1999/02/22-rdf-syntax-ns#"
   xmlns:cc="http://creativecommons.org/ns#"
   xmlns:dc="http://purl.org/dc/elements/1.1/">
  <defs
     id="defs1573" />
  <sodipodi:namedview
     id="base"
     pagecolor="#ffffff"
     bordercolor="#666666"
     borderopacity="1.0"
     inkscape:pageopacity="0.0"
     inkscape:pageshadow="2"
     inkscape:zoom="5.6"
     inkscape:cx="-18.482143"
     inkscape:cy="56.875"
     inkscape:document-units="px"
     inkscape:current-layer="layer1"
     showgrid="false"
     units="px"
     showguides="true"
     inkscape:window-width="1916"
     inkscape:window-height="2022"
     inkscape:window-x="1900"
     inkscape:window-y="0"
     inkscape:window-maximized="0"
     inkscape:lockguides="true"
     inkscape:document-rotation="0"
     inkscape:showpageshadow="2"
     inkscape:pagecheckerboard="0"
     inkscape:deskcolor="#d1d1d1" />
  <metadata
     id="metadata1576">
    <rdf:RDF>
      <cc:Work
         rdf:about="">
        <dc:format>image/svg+xml</dc:format>
        <dc:type
           rdf:resource="http://purl.org/dc/dcmitype/StillImage" />
      </cc:Work>
    </rdf:RDF>
  </metadata>
  <g
     inkscape:label="Layer 1"
     inkscape:groupmode="layer"
     id="layer1"
     transform="translate(0,-283.77082)"
     style="opacity:0.98999999">
    <path
       style="opacity:1;fill:#90bfd5;fill-opacity:1;stroke:none;stroke-width:0.158195;stroke-linecap:round;stroke-linejoin:round;stroke-miterlimit:4;stroke-dasharray:none;stroke-opacity:1;paint-order:normal"
       d="m 10.89029,284.11681 c -0.896626,0 -1.7931026,0.0684 -1.9295535,0.20485 -0.2729009,0.2729 -0.2729009,3.58652 0,3.85941 0.2729019,0.2729 3.5865135,0.2729 3.8594135,0 0.272901,-0.27289 0.272901,-3.58651 0,-3.85941 -0.13645,-0.13646 -1.033236,-0.20485 -1.92986,-0.20485 z m -0.9497921,0.41898 a 0.48729854,0.48729854 0 0 1 0.4872551,0.48755 0.48729854,0.48729854 0 0 1 -0.4872551,0.48725 0.48729854,0.48729854 0 0 1 -0.487254,-0.48725 0.48729854,0.48729854 0 0 1 0.487254,-0.48755 z m 1.9209021,0 a 0.48729854,0.48729854 0 0 1 0.487253,0.48755 0.48729854,0.48729854 0 0 1 -0.487253,0.48725 0.48729854,0.48729854 0 0 1 -0.487256,-0.48725 0.48729854,0.48729854 0 0 1 0.487256,-0.48755 z m -1.9422219,1.2359 a 0.48729854,0.48729854 0 0 1 0.4872559,0.48755 0.48729854,0.48729854 0 0 1 -0.4872559,0.48725 0.48729854,0.48729854 0 0 1 -0.4872529,-0.48725 0.48729854,0.48729854 0 0 1 0.4872529,-0.48755 z m 1.9209009,0 a 0.48729854,0.48729854 0 0 1 0.487563,0.48755 0.48729854,0.48729854 0 0 1 -0.487563,0.48725 0.48729854,0.48729854 0 0 1 -0.487253,-0.48725 0.48729854,0.48729854 0 0 1 0.487253,-0.48755 z m -1.9137926,1.23589 a 0.48729854,0.48729854 0 0 1 0.4872526,0.48756 0.48729854,0.48729854 0 0 1 -0.4872526,0.48727 0.48729854,0.48729854 0 0 1 -0.487256,-0.48727 0.48729854,0.48729854 0 0 1 0.487256,-0.48756 z m 1.9209006,0 a 0.48729854,0.48729854 0 0 1 0.487253,0.48756 0.48729854,0.48729854 0 0 1 -0.487253,0.48727 0.48729854,0.48729854 0 0 1 -0.487254,-0.48727 0.48729854,0.48729854 0 0 1 0.487254,-0.48756 z"
       id="path839"
       inkscape:connector-curvature="0" />
    <path
       d="m 4.2576616,286.51539 q -2.1501018,0.0926 -2.4275342,0.87852 -0.046234,0.13874 -0.046234,0.39304 -0.023123,0.67046 -0.1618362,1.17909 -0.1618362,0.62423 -0.90165508,1.66461 -0.50862637,0.73981 -0.50862637,1.36403 0,0.76294 0.50862637,1.27156 0.43926728,0.43928 1.06349128,0.57798 0.4855057,0.0463 0.8091781,-0.0231 0.554865,-0.0926 1.0403707,-0.48551 l 0.1156028,-0.0694 v 0.18496 q 0,0.55486 0.1618349,0.85542 0.069356,0.1387 0.2311939,0.30054 0.1387169,0.13872 0.323671,0.27744 l 0.1387169,0.0926 v 0.20808 0.18495 l -0.323671,0.18495 -0.3005518,0.20808 -0.023123,0.27743 v 0.30056 h 0.3005537 0.3005517 l 0.092479,0.27742 0.09248,0.30055 h 0.5317456 l 0.115603,-0.30055 0.092479,-0.27742 h 0.3005519 0.2774325 v -0.30056 -0.27743 L 5.737322,295.55516 5.4367702,295.37021 v -0.18495 -0.20808 l 0.1155898,-0.0926 q 0.4392685,-0.32367 0.5548649,-0.53174 0.1849554,-0.32368 0.1849554,-0.85542 v -0.0925 l 0.046233,-0.13873 v 0.0231 q 0.1618361,0.16184 0.4855071,0.30056 0.5086251,0.27744 1.0403708,0.27744 0.6704623,0 1.1559695,-0.3468 0.323671,-0.18495 0.5317434,-0.55486 0.4855079,-0.73983 0.1849555,-1.52589 -0.1618363,-0.46238 -0.6242218,-1.10972 -0.3005518,-0.39303 -0.4392686,-0.67045 -0.3467901,-0.69359 -0.416148,-1.84956 -0.023123,-0.48551 -0.2080746,-0.67046 -0.2774324,-0.30056 -0.9247744,-0.43927 -1.0172528,-0.27743 -2.8668017,-0.18495 z m -0.2080747,1.29468 0.9710129,0.0926 0.9710144,-0.0926 q 1.0172514,-0.0694 1.2022068,-0.0463 0.1387155,0.0463 0.1618362,0.15028 0.023123,0.10415 -0.092479,0.19652 -0.3930288,0.30055 -2.427533,0.25431 -1.687714,-0.0462 -2.0576248,-0.25431 -0.1156029,-0.0694 -0.1156029,-0.16183 0.023123,-0.16184 0.2543131,-0.18497 0.09248,-0.0231 1.1328492,0.0463 z m -0.4623878,1.80331 q 0.6704625,0.0463 1.2253262,0.18496 l 0.1849553,0.0231 0.3005517,-0.0462 q 0.7629396,-0.13872 1.5721178,-0.18495 0.5086264,-0.0463 0.8554166,0.11555 0.2774325,0.13872 0.8322971,0.8323 0.3930288,0.6011 0.6011035,1.08661 0.046233,0.18495 0.046233,0.41615 0,0.39303 -0.1387156,0.62422 -0.3005517,0.6011 -1.2253274,0.64735 -0.046232,0 -0.1618348,-0.0119 -0.1156029,-0.0119 -0.1387169,-0.0119 -0.6704612,-0.13871 -1.3178031,-0.78606 -0.3236723,-0.32367 -0.5086264,-0.69357 -0.2774325,-0.55486 -0.2774325,-1.27157 0,-0.27744 -0.3005516,-0.34679 -0.3005518,-0.0463 -0.4855071,0.0925 -0.069357,0.11554 -0.069357,0.27741 0,0.83232 -0.4623878,1.57214 -0.554865,0.78605 -1.364043,1.0866 -0.5779842,0.20807 -1.1559684,0 -0.4392686,-0.13871 -0.64734191,-0.53174 -0.11560285,-0.27743 -0.13871688,-0.50863 -0.023123,-0.3468 0.0693565,-0.6011 0.25431309,-0.76294 1.08661039,-1.61836 0.3005517,-0.27742 0.5317458,-0.32367 0.3236709,-0.0926 1.0866104,-0.0231 z m -0.8554166,0.41615 q -0.2080747,0.0231 -0.4623879,0.23119 -0.5779842,0.41615 -0.9478937,1.15598 -0.1387168,0.25431 -0.1618361,0.55486 0,0.41613 0.2311939,0.64734 0.1618361,0.16183 0.4855072,0.2543 0.3699095,0.0926 0.716701,0 0.5317444,-0.16183 0.9247744,-0.57797 0.6011034,-0.67046 0.6704613,-1.68772 0.023123,-0.25431 0,-0.32366 -0.1155899,-0.18497 -0.4623866,-0.25432 -0.3930302,-0.0463 -0.9941335,0 z m 3.6066219,0 q -0.3930288,0.0694 -0.5086263,0.27744 -0.023123,0.0694 -0.023123,0.27742 0.069356,0.62423 0.3005517,1.13285 0.1618361,0.3468 0.4855071,0.62423 0.3930288,0.39303 0.8322974,0.53173 0.1155897,0.0231 0.3699095,0.0231 0.3699095,0 0.6242227,-0.11556 0.2543131,-0.16181 0.3236721,-0.32365 0.1155898,-0.18497 0.1155898,-0.50865 0,-0.73982 -1.0634912,-1.61835 -0.323671,-0.27743 -0.5548649,-0.30055 -0.5317456,-0.0463 -0.9016551,0 z"
       id="path125"
       style="fill:#90bfd5;fill-opacity:1;stroke-width:0.0231193" />
  </g>
</svg>
