<svg height="50" viewBox="0 0 13.229166 13.229167" width="50" xmlns="http://www.w3.org/2000/svg"><path d="m4.076619 296.0099c-.01303-.001-.06176-.005-.108286-.009-.304695-.0257-.637831-.10151-.939234-.21379-.603711-.2249-1.132377-.60283-1.54673-1.10572-.03527-.0428-.06295-.0798-.06151-.0822.0014-.003.02703-.0181.05688-.0351l.05426-.0307.103165.10527c.423967.43264.942977.68554 1.55487.75764.117944.0139.390792.0158.50759.004.331292-.0347.615994-.11726.906894-.2629.484652-.24264.871305-.62504 1.120728-1.1084.14607-.28307.233273-.57315.270697-.90048.01392-.12176.0159-.3882.0038-.5042-.03186-.30406-.109446-.58874-.228591-.83878-.02383-.05-.041-.093-.03814-.0956.0079-.007.312498-.1823.317059-.1823.0022 0 .02124.0175.04232.0389.141066.14322.320606.21826.522237.21826.20163 0 .38117-.075.522236-.21826.02108-.0214.03985-.0389.04169-.0389.0043 0 .310639.176.318091.18275.0031.003-.0066.0293-.02146.0588-.124253.24712-.213613.56534-.245749.87511-.01208.11645-.01006.38275.0038.5042.03742.32733.124627.61741.270697.90048.306265.59351.826774 1.03888 1.463954 1.2526.15728.0528.378018.0992.563668.1187.116798.0122.389646.0103.507589-.004.313389-.0369.585984-.1161.856578-.24877.260654-.12779.485304-.29153.698529-.50911l.103401-.10552.05748.034.05748.034-.05598.0685c-.360039.44074-.806014.78575-1.315681 1.01782-.362077.16486-.731361.26562-1.139507.3109-.133375.0148-.473555.0204-.619544.0102-.47283-.0329-.930961-.15567-1.353288-.36257-.22157-.10855-.431822-.23875-.620951-.38454l-.09306-.0717-.09306.0717c-.439042.33843-.958266.5742-1.508751.68508-.124104.025-.323242.052-.452237.0614-.08575.006-.425844.008-.483902.003zm1.252054-1.95553c-.447649-.19002-.872458-.50041-1.192556-.87136-.462654-.53615-.738126-1.19988-.79101-1.90589-.01418-.18926-.000026-.58887.02501-.7069l.0042-.0197.132902.004c.148694.005.271021.0176.39881.0421.09655.0185.279283.0681.295872.0802.0093.007.0099.0141.0039.0517-.02364.15006-.02544.40308-.0042.58525.100104.85702.64551 1.59965 1.427138 1.94319.04896.0215.09038.0401.09204.0414.0042.003-.02395.12566-.04841.211-.02589.0903-.07148.2121-.117478.31383-.04546.10052-.136375.26222-.147098.26161-.0044-.00025-.04009-.014-.07918-.0306zm2.450051-.0281c-.07383-.12554-.14818-.29137-.199797-.44561-.02564-.0766-.06067-.20954-.06761-.25655l-.004-.0271.08998-.0389c.390117-.16858.74651-.45983 1.000055-.81726.232366-.32758.382801-.72169.430125-1.12685.02128-.18217.01948-.43519-.0042-.58524-.0059-.0376-.0054-.0449.0039-.0518.01659-.0121.199324-.0616.295872-.0802.127789-.0245.250115-.0374.39881-.0421l.132902-.004.0042.0197c.02505.11804.03919.51764.02501.70691-.01573.20995-.05897.45516-.115274.65372-.249136.87855-.856091 1.61668-1.668641 2.02928-.09967.0506-.267061.12534-.280763.12534-.0032 0-.02147-.0267-.04062-.0592zm-6.85548001-.28763c-.137584-.35019-.21526-.67384-.252173-1.05071-.01147-.11715-.01139-.51431.000128-.62941.04742-.47374.161266-.88043.35995901-1.2859.134748-.27498.282713-.5032.480727-.74145.09007-.10838.337632-.35595.446012-.44602.293108-.24359.614358-.43812.954644-.57806.102632-.0422.104869-.0435.103366-.0626-.000837-.0107-.0076-.0682-.01507-.12777-.03755-.30039-.03744-.5995.000341-.90351.05006-.40283.172401-.80656.355078-1.17178.08029-.16053.124696-.23677.230045-.39498.142666-.21426.275734-.37707.453363-.5547.17508-.17508.338666-.30916.549231-.45019.346297-.23193.72889-.40289 1.129758-.50483.113571-.0289.292567-.0648.369712-.0742l.03892-.005v.0675.0675l-.05922.0117c-.142358.0281-.357567.10018-.51605.17271-.399853.183-.757906.47889-1.01351.83756-.250424.35139-.409399.76767-.459465 1.20311-.016.13914-.016.41582 0 .55497.09737.8469.589957 1.57153 1.344386 1.97773.295452.15907.642424.25789 1.016871.2896l.05245.005-.000077.18724-.000076.18722-.06052.0146c-.1981.0479-.379677.19601-.470422.38357-.07773.16067-.09561.33515-.05175.50529.0072.0279.01413.0551.01541.0604.0016.006-.05192.0412-.159109.10364-.08879.0517-.162197.0931-.163123.0919-.000941-.001-.02036-.0301-.04318-.0643-.104106-.156-.292337-.36461-.44864-.4972-.582165-.49385-1.354167-.70185-2.103954-.56686-.677852.12204-1.281116.51669-1.66498 1.0892-.35304501.52655-.49607701 1.15802-.40542601 1.78991.01619.11289.04545.24454.08145.3665.01445.049.02627.0905.02627.0924 0 .004-.10395602.0656-.11074002.0656-.0026 0-.0073-.007-.01063-.0152zm11.31372501-.0156c-.02885-.0168-.05245-.0323-.05245-.0344 0-.002.01183-.0439.02628-.0928.16378-.55488.1414-1.12971-.06459-1.65902-.234873-.60352-.689915-1.0956-1.271263-1.37473-.909402-.43664-1.987496-.29782-2.757053.355-.157576.13367-.353104.35098-.452505.50291-.02146.0328-.04054.0595-.0424.0594-.0019-.0001-.07495-.0421-.162429-.0935-.105815-.062-.158265-.0965-.156715-.10289.0013-.005.0082-.0325.01541-.0604.07587-.29436-.03771-.60421-.286079-.78043-.06243-.0443-.164173-.091-.236097-.10843l-.06052-.0146-.000077-.18723-.000077-.18723.05245-.005c.639622-.0542 1.186687-.30283 1.623005-.73771.311621-.3106.528085-.67462.650004-1.09309.07097-.24358.100043-.4511.100043-.71401 0-.20205-.01059-.31459-.04648-.49405-.15176-.75893-.621546-1.39064-1.309707-1.76116-.181186-.0976-.45803-.19876-.644638-.23566l-.05922-.0117v-.0675-.0675l.03892.005c.147499.0179.413551.0802.59388.13892.224369.0731.481348.18621.683554.30086.69153.39209 1.248057 1.02148 1.557015 1.76085.243294.58223.331369 1.22729.253079 1.85353-.0074.0596-.01423.11706-.01507.12777-.0015.0191.000732.0204.103365.0626.340287.13994.661537.33446.954645.57806.10838.0901.355939.33763.446012.44601.198014.23826.345979.46648.480727.74146.199236.40658.311641.80822.359882 1.28589.01161.11491.01174.51172.000204.62941-.02044.20866-.05913.42975-.107188.6125-.04345.16519-.140329.44659-.155377.45128-.0033.001-.02968-.0119-.05853-.0286zm-7.244999-4.69087c-.121232-.12128-.217793-.23844-.301233-.36549-.05165-.0786-.113297-.18415-.113297-.19389 0-.005.140669-.10987.214422-.15913.644436-.43043 1.428067-.6204 2.194594-.53202.518706.0598 1.019171.24334 1.450817.53208.07913.0529.214421.15303.214421.15864 0 .01-.06053.11363-.113404.19431-.09635.14702-.25308.33094-.367964.4318l-.04343.0381-.06753-.0502c-.297971-.22166-.672192-.38127-1.03534-.44157-.158805-.0264-.22129-.0311-.409455-.0311-.112037 0-.214401.004-.257179.009-.475728.059-.858819.21405-1.236552.50041l-.02172.0165z" opacity=".99" stroke-width=".025579" transform="translate(0 -283.77082)"/></svg>