<?xml version="1.0" encoding="UTF-8" standalone="no"?>
<svg
   width="50"
   height="50"
   viewBox="0 0 13.229166 13.229167"
   version="1.1"
   id="svg1579"
   sodipodi:docname="ataxx.svg"
   inkscape:version="1.3 (0e150ed6c4, 2023-07-21)"
   xml:space="preserve"
   xmlns:inkscape="http://www.inkscape.org/namespaces/inkscape"
   xmlns:sodipodi="http://sodipodi.sourceforge.net/DTD/sodipodi-0.dtd"
   xmlns="http://www.w3.org/2000/svg"
   xmlns:svg="http://www.w3.org/2000/svg"
   xmlns:rdf="http://www.w3.org/1999/02/22-rdf-syntax-ns#"
   xmlns:cc="http://creativecommons.org/ns#"
   xmlns:dc="http://purl.org/dc/elements/1.1/"><defs
     id="defs1573"><inkscape:path-effect
       effect="mirror_symmetry"
       start_point="-15.691712,-45.362002"
       end_point="-15.691712,4.437998"
       center_point="-15.691712,-20.462002"
       id="path-effect7365"
       is_visible="true"
       mode="free"
       discard_orig_path="false"
       fuse_paths="true"
       oposite_fuse="false" /><inkscape:path-effect
       effect="mirror_symmetry"
       start_point="275.14301,98.12006"
       end_point="275.14301,350.07326"
       center_point="275.14301,224.09666"
       id="path-effect4547-0"
       is_visible="true"
       mode="free"
       discard_orig_path="false"
       fuse_paths="true"
       oposite_fuse="false" /><inkscape:path-effect
       effect="mirror_symmetry"
       start_point="274.67636,240.21573"
       end_point="274.67636,418.88419"
       center_point="274.67636,329.54996"
       id="path-effect4551-7"
       is_visible="true"
       mode="free"
       discard_orig_path="false"
       fuse_paths="false"
       oposite_fuse="false" /><inkscape:path-effect
       effect="mirror_symmetry"
       start_point="273.50283,331.92091"
       end_point="273.50283,477.30227"
       center_point="273.50283,404.61159"
       id="path-effect4557-0"
       is_visible="true"
       mode="free"
       discard_orig_path="false"
       fuse_paths="false"
       oposite_fuse="false" /><inkscape:path-effect
       effect="mirror_symmetry"
       start_point="315.71788,90.192596"
       end_point="315.71788,96.192596"
       center_point="315.71788,93.192596"
       id="path-effect4669"
       is_visible="true"
       mode="free"
       discard_orig_path="false"
       fuse_paths="false"
       oposite_fuse="false" /><inkscape:path-effect
       oposite_fuse="false"
       fuse_paths="false"
       discard_orig_path="false"
       mode="free"
       is_visible="true"
       id="path-effect4802"
       center_point="316.91112,93.060013"
       end_point="316.91112,96.060013"
       start_point="316.91112,90.060013"
       effect="mirror_symmetry" /><linearGradient
       gradientTransform="matrix(0.27867357,0,0,0.27867357,-0.3072497,283.2508)"
       id="0"
       x1="21.253"
       y1="37.591999"
       x2="77.639999"
       y2="37.469002"
       gradientUnits="userSpaceOnUse"><stop
         stop-color="#fff"
         id="stop15223" /><stop
         offset="1"
         stop-color="#fff"
         stop-opacity="0"
         id="stop15225" /></linearGradient></defs><sodipodi:namedview
     id="base"
     pagecolor="#ffffff"
     bordercolor="#666666"
     borderopacity="1.0"
     inkscape:pageopacity="0.0"
     inkscape:pageshadow="2"
     inkscape:zoom="5.6"
     inkscape:cx="63.125"
     inkscape:cy="38.125"
     inkscape:document-units="px"
     inkscape:current-layer="layer1"
     showgrid="false"
     units="px"
     showguides="true"
     inkscape:window-width="3840"
     inkscape:window-height="2036"
     inkscape:window-x="-12"
     inkscape:window-y="-12"
     inkscape:window-maximized="1"
     inkscape:lockguides="true"
     inkscape:document-rotation="0"
     inkscape:showpageshadow="2"
     inkscape:pagecheckerboard="0"
     inkscape:deskcolor="#d1d1d1" /><metadata
     id="metadata1576"><rdf:RDF><cc:Work
         rdf:about=""><dc:format>image/svg+xml</dc:format><dc:type
           rdf:resource="http://purl.org/dc/dcmitype/StillImage" /></cc:Work></rdf:RDF></metadata><g
     inkscape:label="Layer 1"
     inkscape:groupmode="layer"
     id="layer1"
     transform="translate(0,-283.77082)"
     style="opacity:0.98999999"><path
       style="fill:#000000;stroke-width:0.0255793"
       d="m 4.076619,296.0099 c -0.01303,-0.001 -0.06176,-0.005 -0.108286,-0.009 -0.304695,-0.0257 -0.637831,-0.10151 -0.939234,-0.21379 -0.603711,-0.2249 -1.132377,-0.60283 -1.54673,-1.10572 -0.03527,-0.0428 -0.06295,-0.0798 -0.06151,-0.0822 0.0014,-0.003 0.02703,-0.0181 0.05688,-0.0351 l 0.05426,-0.0307 0.103165,0.10527 c 0.423967,0.43264 0.942977,0.68554 1.55487,0.75764 0.117944,0.0139 0.390792,0.0158 0.50759,0.004 0.331292,-0.0347 0.615994,-0.11726 0.906894,-0.2629 0.484652,-0.24264 0.871305,-0.62504 1.120728,-1.1084 0.14607,-0.28307 0.233273,-0.57315 0.270697,-0.90048 0.01392,-0.12176 0.0159,-0.3882 0.0038,-0.5042 -0.03186,-0.30406 -0.109446,-0.58874 -0.228591,-0.83878 -0.02383,-0.05 -0.041,-0.093 -0.03814,-0.0956 0.0079,-0.007 0.312498,-0.1823 0.317059,-0.1823 0.0022,0 0.02124,0.0175 0.04232,0.0389 0.141066,0.14322 0.320606,0.21826 0.522237,0.21826 0.20163,0 0.38117,-0.075 0.522236,-0.21826 0.02108,-0.0214 0.03985,-0.0389 0.04169,-0.0389 0.0043,0 0.310639,0.176 0.318091,0.18275 0.0031,0.003 -0.0066,0.0293 -0.02146,0.0588 -0.124253,0.24712 -0.213613,0.56534 -0.245749,0.87511 -0.01208,0.11645 -0.01006,0.38275 0.0038,0.5042 0.03742,0.32733 0.124627,0.61741 0.270697,0.90048 0.306265,0.59351 0.826774,1.03888 1.463954,1.2526 0.15728,0.0528 0.378018,0.0992 0.563668,0.1187 0.116798,0.0122 0.389646,0.0103 0.507589,-0.004 0.313389,-0.0369 0.585984,-0.1161 0.856578,-0.24877 0.260654,-0.12779 0.485304,-0.29153 0.698529,-0.50911 l 0.103401,-0.10552 0.05748,0.034 0.05748,0.034 -0.05598,0.0685 c -0.360039,0.44074 -0.806014,0.78575 -1.315681,1.01782 -0.362077,0.16486 -0.731361,0.26562 -1.139507,0.3109 -0.133375,0.0148 -0.473555,0.0204 -0.619544,0.0102 -0.47283,-0.0329 -0.930961,-0.15567 -1.353288,-0.36257 -0.22157,-0.10855 -0.431822,-0.23875 -0.620951,-0.38454 l -0.09306,-0.0717 -0.09306,0.0717 c -0.439042,0.33843 -0.958266,0.5742 -1.508751,0.68508 -0.124104,0.025 -0.323242,0.052 -0.452237,0.0614 -0.08575,0.006 -0.425844,0.008 -0.483902,0.003 z m 1.252054,-1.95553 c -0.447649,-0.19002 -0.872458,-0.50041 -1.192556,-0.87136 -0.462654,-0.53615 -0.738126,-1.19988 -0.79101,-1.90589 -0.01418,-0.18926 -2.6e-5,-0.58887 0.02501,-0.7069 l 0.0042,-0.0197 0.132902,0.004 c 0.148694,0.005 0.271021,0.0176 0.39881,0.0421 0.09655,0.0185 0.279283,0.0681 0.295872,0.0802 0.0093,0.007 0.0099,0.0141 0.0039,0.0517 -0.02364,0.15006 -0.02544,0.40308 -0.0042,0.58525 0.100104,0.85702 0.64551,1.59965 1.427138,1.94319 0.04896,0.0215 0.09038,0.0401 0.09204,0.0414 0.0042,0.003 -0.02395,0.12566 -0.04841,0.211 -0.02589,0.0903 -0.07148,0.2121 -0.117478,0.31383 -0.04546,0.10052 -0.136375,0.26222 -0.147098,0.26161 -0.0044,-2.5e-4 -0.04009,-0.014 -0.07918,-0.0306 z m 2.450051,-0.0281 c -0.07383,-0.12554 -0.14818,-0.29137 -0.199797,-0.44561 -0.02564,-0.0766 -0.06067,-0.20954 -0.06761,-0.25655 l -0.004,-0.0271 0.08998,-0.0389 c 0.390117,-0.16858 0.74651,-0.45983 1.000055,-0.81726 0.232366,-0.32758 0.382801,-0.72169 0.430125,-1.12685 0.02128,-0.18217 0.01948,-0.43519 -0.0042,-0.58524 -0.0059,-0.0376 -0.0054,-0.0449 0.0039,-0.0518 0.01659,-0.0121 0.199324,-0.0616 0.295872,-0.0802 0.127789,-0.0245 0.250115,-0.0374 0.39881,-0.0421 l 0.132902,-0.004 0.0042,0.0197 c 0.02505,0.11804 0.03919,0.51764 0.02501,0.70691 -0.01573,0.20995 -0.05897,0.45516 -0.115274,0.65372 -0.249136,0.87855 -0.856091,1.61668 -1.668641,2.02928 -0.09967,0.0506 -0.267061,0.12534 -0.280763,0.12534 -0.0032,0 -0.02147,-0.0267 -0.04062,-0.0592 z m -6.85548001,-0.28763 c -0.137584,-0.35019 -0.21526,-0.67384 -0.252173,-1.05071 -0.01147,-0.11715 -0.01139,-0.51431 1.28e-4,-0.62941 0.04742,-0.47374 0.161266,-0.88043 0.35995901,-1.2859 0.134748,-0.27498 0.282713,-0.5032 0.480727,-0.74145 0.09007,-0.10838 0.337632,-0.35595 0.446012,-0.44602 0.293108,-0.24359 0.614358,-0.43812 0.954644,-0.57806 0.102632,-0.0422 0.104869,-0.0435 0.103366,-0.0626 -8.37e-4,-0.0107 -0.0076,-0.0682 -0.01507,-0.12777 -0.03755,-0.30039 -0.03744,-0.5995 3.41e-4,-0.90351 0.05006,-0.40283 0.172401,-0.80656 0.355078,-1.17178 0.08029,-0.16053 0.124696,-0.23677 0.230045,-0.39498 0.142666,-0.21426 0.275734,-0.37707 0.453363,-0.5547 0.17508,-0.17508 0.338666,-0.30916 0.549231,-0.45019 0.346297,-0.23193 0.72889,-0.40289 1.129758,-0.50483 0.113571,-0.0289 0.292567,-0.0648 0.369712,-0.0742 l 0.03892,-0.005 v 0.0675 0.0675 l -0.05922,0.0117 c -0.142358,0.0281 -0.357567,0.10018 -0.51605,0.17271 -0.399853,0.183 -0.757906,0.47889 -1.01351,0.83756 -0.250424,0.35139 -0.409399,0.76767 -0.459465,1.20311 -0.016,0.13914 -0.016,0.41582 0,0.55497 0.09737,0.8469 0.589957,1.57153 1.344386,1.97773 0.295452,0.15907 0.642424,0.25789 1.016871,0.2896 l 0.05245,0.005 -7.7e-5,0.18724 -7.6e-5,0.18722 -0.06052,0.0146 c -0.1981,0.0479 -0.379677,0.19601 -0.470422,0.38357 -0.07773,0.16067 -0.09561,0.33515 -0.05175,0.50529 0.0072,0.0279 0.01413,0.0551 0.01541,0.0604 0.0016,0.006 -0.05192,0.0412 -0.159109,0.10364 -0.08879,0.0517 -0.162197,0.0931 -0.163123,0.0919 -9.41e-4,-10e-4 -0.02036,-0.0301 -0.04318,-0.0643 -0.104106,-0.156 -0.292337,-0.36461 -0.44864,-0.4972 -0.582165,-0.49385 -1.354167,-0.70185 -2.103954,-0.56686 -0.677852,0.12204 -1.281116,0.51669 -1.66498,1.0892 -0.35304501,0.52655 -0.49607701,1.15802 -0.40542601,1.78991 0.01619,0.11289 0.04545,0.24454 0.08145,0.3665 0.01445,0.049 0.02627,0.0905 0.02627,0.0924 0,0.004 -0.10395602,0.0656 -0.11074002,0.0656 -0.0026,0 -0.0073,-0.007 -0.01063,-0.0152 z m 11.31372501,-0.0156 c -0.02885,-0.0168 -0.05245,-0.0323 -0.05245,-0.0344 0,-0.002 0.01183,-0.0439 0.02628,-0.0928 0.16378,-0.55488 0.1414,-1.12971 -0.06459,-1.65902 -0.234873,-0.60352 -0.689915,-1.0956 -1.271263,-1.37473 -0.909402,-0.43664 -1.987496,-0.29782 -2.757053,0.355 -0.157576,0.13367 -0.353104,0.35098 -0.452505,0.50291 -0.02146,0.0328 -0.04054,0.0595 -0.0424,0.0594 -0.0019,-10e-5 -0.07495,-0.0421 -0.162429,-0.0935 -0.105815,-0.062 -0.158265,-0.0965 -0.156715,-0.10289 0.0013,-0.005 0.0082,-0.0325 0.01541,-0.0604 0.07587,-0.29436 -0.03771,-0.60421 -0.286079,-0.78043 -0.06243,-0.0443 -0.164173,-0.091 -0.236097,-0.10843 l -0.06052,-0.0146 -7.7e-5,-0.18723 -7.7e-5,-0.18723 0.05245,-0.005 c 0.639622,-0.0542 1.186687,-0.30283 1.623005,-0.73771 0.311621,-0.3106 0.528085,-0.67462 0.650004,-1.09309 0.07097,-0.24358 0.100043,-0.4511 0.100043,-0.71401 0,-0.20205 -0.01059,-0.31459 -0.04648,-0.49405 -0.15176,-0.75893 -0.621546,-1.39064 -1.309707,-1.76116 -0.181186,-0.0976 -0.45803,-0.19876 -0.644638,-0.23566 l -0.05922,-0.0117 v -0.0675 -0.0675 l 0.03892,0.005 c 0.147499,0.0179 0.413551,0.0802 0.59388,0.13892 0.224369,0.0731 0.481348,0.18621 0.683554,0.30086 0.69153,0.39209 1.248057,1.02148 1.557015,1.76085 0.243294,0.58223 0.331369,1.22729 0.253079,1.85353 -0.0074,0.0596 -0.01423,0.11706 -0.01507,0.12777 -0.0015,0.0191 7.32e-4,0.0204 0.103365,0.0626 0.340287,0.13994 0.661537,0.33446 0.954645,0.57806 0.10838,0.0901 0.355939,0.33763 0.446012,0.44601 0.198014,0.23826 0.345979,0.46648 0.480727,0.74146 0.199236,0.40658 0.311641,0.80822 0.359882,1.28589 0.01161,0.11491 0.01174,0.51172 2.04e-4,0.62941 -0.02044,0.20866 -0.05913,0.42975 -0.107188,0.6125 -0.04345,0.16519 -0.140329,0.44659 -0.155377,0.45128 -0.0033,0.001 -0.02968,-0.0119 -0.05853,-0.0286 z M 4.99197,289.03217 c -0.121232,-0.12128 -0.217793,-0.23844 -0.301233,-0.36549 -0.05165,-0.0786 -0.113297,-0.18415 -0.113297,-0.19389 0,-0.005 0.140669,-0.10987 0.214422,-0.15913 0.644436,-0.43043 1.428067,-0.6204 2.194594,-0.53202 0.518706,0.0598 1.019171,0.24334 1.450817,0.53208 0.07913,0.0529 0.214421,0.15303 0.214421,0.15864 0,0.01 -0.06053,0.11363 -0.113404,0.19431 -0.09635,0.14702 -0.25308,0.33094 -0.367964,0.4318 l -0.04343,0.0381 -0.06753,-0.0502 c -0.297971,-0.22166 -0.672192,-0.38127 -1.03534,-0.44157 -0.158805,-0.0264 -0.22129,-0.0311 -0.409455,-0.0311 -0.112037,0 -0.214401,0.004 -0.257179,0.009 -0.475728,0.059 -0.858819,0.21405 -1.236552,0.50041 l -0.02172,0.0165 z"
       id="path1" /></g></svg>
