<?xml version="1.0" encoding="UTF-8" standalone="no"?>
<svg
   xmlns:dc="http://purl.org/dc/elements/1.1/"
   xmlns:cc="http://creativecommons.org/ns#"
   xmlns:rdf="http://www.w3.org/1999/02/22-rdf-syntax-ns#"
   xmlns:svg="http://www.w3.org/2000/svg"
   xmlns="http://www.w3.org/2000/svg"
   xmlns:sodipodi="http://sodipodi.sourceforge.net/DTD/sodipodi-0.dtd"
   xmlns:inkscape="http://www.inkscape.org/namespaces/inkscape"
   width="50"
   height="50"
   viewBox="0 0 13.229166 13.229167"
   version="1.1"
   id="svg1579"
   sodipodi:docname="cambodian.svg"
   inkscape:version="0.92.3 (2405546, 2018-03-11)">
  <metadata
     id="metadata11">
    <rdf:RDF>
      <cc:Work
         rdf:about="">
        <dc:format>image/svg+xml</dc:format>
        <dc:type
           rdf:resource="http://purl.org/dc/dcmitype/StillImage" />
        <dc:title></dc:title>
      </cc:Work>
    </rdf:RDF>
  </metadata>
  <defs
     id="defs9" />
  <sodipodi:namedview
     pagecolor="#ffffff"
     bordercolor="#666666"
     borderopacity="1"
     objecttolerance="10"
     gridtolerance="10"
     guidetolerance="10"
     inkscape:pageopacity="0"
     inkscape:pageshadow="2"
     inkscape:window-width="1543"
     inkscape:window-height="871"
     id="namedview7"
     showgrid="true"
     showguides="true"
     inkscape:zoom="9.44"
     inkscape:cx="10.927686"
     inkscape:cy="33.557989"
     inkscape:window-x="57"
     inkscape:window-y="0"
     inkscape:window-maximized="1"
     inkscape:current-layer="layer1">
    <inkscape:grid
       type="xygrid"
       id="grid1555" />
  </sodipodi:namedview>
  <g
     id="layer1"
     transform="matrix(1.1402565,0,0,1.0982072,-0.92572669,-312.27409)"
     style="opacity:0.98999999">
    <path
       style="display:inline;fill:#000000;fill-opacity:1;fill-rule:evenodd;stroke:none;stroke-width:0.18467683px;stroke-linecap:butt;stroke-linejoin:miter;stroke-opacity:1"
       d="M 25.167969 1 L 19.933594 4.6113281 C 20.496416 5.1353131 21.062179 5.6596089 21.625 6.1835938 C 22.364307 6.6818858 22.772008 7.2441704 22.123047 8.0117188 C 21.962678 8.9733125 21.012601 9.286852 20.140625 9.4570312 C 17.632455 10.221799 15.235769 11.317208 12.888672 12.458984 C 10.958885 13.185607 9.6103803 14.756691 8.0078125 15.958984 C 7.2750402 16.812493 6.5869894 17.766945 6.0488281 18.748047 C 5.6826668 20.048214 4.9133635 21.265555 5 22.654297 C 4.9187864 24.49941 5.8507399 26.153046 6.3828125 27.880859 C 6.9960584 29.401552 8.1800281 30.652506 9.0292969 32.0625 C 11.077564 34.720943 13.559468 37.042012 15.994141 39.373047 C 17.623323 40.694673 19.512365 41.713888 21.244141 42.916016 C 17.406637 42.972046 13.567972 43.027949 9.7304688 43.083984 C 9.7013922 45.099981 9.6716661 47.116816 9.6425781 49.132812 L 40.640625 49.132812 L 40.693359 43.25 C 36.797712 43.166152 32.901508 43.083844 29.005859 43 C 29.854472 42.37204 30.702168 41.745148 31.550781 41.117188 C 33.319129 39.700594 35.343696 38.551902 36.914062 36.925781 C 38.442298 35.201786 40.316901 33.736398 41.535156 31.78125 C 42.624872 30.366732 43.325095 28.753658 44 27.128906 C 44.841093 25.646938 45.081693 23.994185 45.009766 22.335938 C 44.945517 20.854634 44.766303 19.35799 43.878906 18.109375 C 43.29958 16.782976 42.165651 15.871401 41.115234 14.896484 C 40.266293 13.944147 39.20077 13.272514 38.033203 12.734375 C 35.176458 11.046698 31.961728 10.086112 28.896484 8.8203125 C 28.26585 8.4344629 28.195855 7.4856147 27.785156 6.8789062 L 30.402344 4.8632812 C 28.658023 3.5752762 26.91229 2.2880051 25.167969 1 z M 25.179688 10.791016 C 28.617187 10.791016 31.592448 12.099612 34.105469 14.716797 C 36.63151 17.320977 37.894531 20.576194 37.894531 24.482422 C 37.894531 28.505866 36.625 31.845696 34.085938 34.501953 C 31.546875 37.158183 28.473958 38.486328 24.867188 38.486328 C 21.221354 38.486328 18.154948 37.190756 15.667969 34.599609 C 13.19401 32.008491 11.957031 28.655609 11.957031 24.541016 C 11.957031 20.335273 13.389323 16.904276 16.253906 14.248047 C 18.740886 11.943354 21.716146 10.791016 25.179688 10.791016 z M 24.808594 12.216797 C 22.438802 12.216797 20.53776 13.095692 19.105469 14.853516 C 17.321615 17.04102 16.429688 20.244142 16.429688 24.462891 C 16.429688 28.785794 17.354167 32.112628 19.203125 34.443359 C 20.622396 36.214188 22.497396 37.099609 24.828125 37.099609 C 27.315104 37.099609 29.365886 36.129575 30.980469 34.189453 C 32.608073 32.249386 33.421875 29.18947 33.421875 25.009766 C 33.421875 20.478525 32.529948 17.099623 30.746094 14.873047 C 29.313802 13.102218 27.334636 12.216797 24.808594 12.216797 z "
       transform="matrix(0.23203843,0,0,0.24092296,0.81185829,284.34897)"
       id="path4601-7" />
    <path
       style="display:inline;opacity:1;fill:none;fill-rule:evenodd;stroke:#000000;stroke-width:0.0436648px;stroke-linecap:butt;stroke-linejoin:miter;stroke-opacity:1"
       d=""
       id="path7867"
       inkscape:connector-curvature="0" />
    <path
       style="display:inline;opacity:1;fill:none;fill-rule:evenodd;stroke:#000000;stroke-width:0.0436648px;stroke-linecap:butt;stroke-linejoin:miter;stroke-opacity:1"
       d=""
       id="path7969"
       inkscape:connector-curvature="0" />
  </g>
</svg>
