<?xml version="1.0" encoding="UTF-8" standalone="no"?>
<svg
   xmlns:dc="http://purl.org/dc/elements/1.1/"
   xmlns:cc="http://creativecommons.org/ns#"
   xmlns:rdf="http://www.w3.org/1999/02/22-rdf-syntax-ns#"
   xmlns:svg="http://www.w3.org/2000/svg"
   xmlns="http://www.w3.org/2000/svg"
   xmlns:sodipodi="http://sodipodi.sourceforge.net/DTD/sodipodi-0.dtd"
   xmlns:inkscape="http://www.inkscape.org/namespaces/inkscape"
   width="50"
   height="50"
   viewBox="0 0 13.229166 13.229167"
   version="1.1"
   id="svg1579"
   sodipodi:docname="cambodian.svg"
   inkscape:version="1.0.1 (3bc2e813f5, 2020-09-07)">
  <defs
     id="defs1573">
    <inkscape:path-effect
       effect="mirror_symmetry"
       start_point="-15.691712,-45.362002"
       end_point="-15.691712,4.437998"
       center_point="-15.691712,-20.462002"
       id="path-effect7365"
       is_visible="true"
       mode="free"
       discard_orig_path="false"
       fuse_paths="true"
       oposite_fuse="false" />
    <inkscape:path-effect
       effect="mirror_symmetry"
       start_point="275.14301,98.12006"
       end_point="275.14301,350.07326"
       center_point="275.14301,224.09666"
       id="path-effect4547-0"
       is_visible="true"
       mode="free"
       discard_orig_path="false"
       fuse_paths="true"
       oposite_fuse="false" />
    <inkscape:path-effect
       effect="mirror_symmetry"
       start_point="274.67636,240.21573"
       end_point="274.67636,418.88419"
       center_point="274.67636,329.54996"
       id="path-effect4551-7"
       is_visible="true"
       mode="free"
       discard_orig_path="false"
       fuse_paths="false"
       oposite_fuse="false" />
    <inkscape:path-effect
       effect="mirror_symmetry"
       start_point="273.50283,331.92091"
       end_point="273.50283,477.30227"
       center_point="273.50283,404.61159"
       id="path-effect4557-0"
       is_visible="true"
       mode="free"
       discard_orig_path="false"
       fuse_paths="false"
       oposite_fuse="false" />
    <inkscape:path-effect
       effect="mirror_symmetry"
       start_point="315.71788,90.192596"
       end_point="315.71788,96.192596"
       center_point="315.71788,93.192596"
       id="path-effect4669"
       is_visible="true"
       mode="free"
       discard_orig_path="false"
       fuse_paths="false"
       oposite_fuse="false" />
    <inkscape:path-effect
       oposite_fuse="false"
       fuse_paths="false"
       discard_orig_path="false"
       mode="free"
       is_visible="true"
       id="path-effect4802"
       center_point="316.91112,93.060013"
       end_point="316.91112,96.060013"
       start_point="316.91112,90.060013"
       effect="mirror_symmetry" />
    <linearGradient
       gradientTransform="matrix(0.27867357,0,0,0.27867357,-0.3072497,283.2508)"
       id="0"
       x1="21.253"
       y1="37.591999"
       x2="77.639999"
       y2="37.469002"
       gradientUnits="userSpaceOnUse">
      <stop
         stop-color="#fff"
         id="stop15223" />
      <stop
         offset="1"
         stop-color="#fff"
         stop-opacity="0"
         id="stop15225" />
    </linearGradient>
  </defs>
  <sodipodi:namedview
     id="base"
     pagecolor="#ffffff"
     bordercolor="#666666"
     borderopacity="1.0"
     inkscape:pageopacity="0.0"
     inkscape:pageshadow="2"
     inkscape:zoom="5.6"
     inkscape:cx="29.825921"
     inkscape:cy="12.2226"
     inkscape:document-units="px"
     inkscape:current-layer="layer1"
     showgrid="false"
     units="px"
     showguides="true"
     inkscape:window-width="3840"
     inkscape:window-height="2050"
     inkscape:window-x="-12"
     inkscape:window-y="-12"
     inkscape:window-maximized="1"
     inkscape:lockguides="true"
     inkscape:guide-bbox="true"
     inkscape:document-rotation="0">
    <sodipodi:guide
       position="16.57071,-2.271791"
       orientation="0,1"
       id="guide2711"
       inkscape:locked="true" />
  </sodipodi:namedview>
  <metadata
     id="metadata1576">
    <rdf:RDF>
      <cc:Work
         rdf:about="">
        <dc:format>image/svg+xml</dc:format>
        <dc:type
           rdf:resource="http://purl.org/dc/dcmitype/StillImage" />
        <dc:title></dc:title>
      </cc:Work>
    </rdf:RDF>
  </metadata>
  <g
     inkscape:label="Layer 1"
     inkscape:groupmode="layer"
     id="layer1"
     transform="translate(0,-283.77082)"
     style="opacity:0.98999999">
    <path
       style="display:inline;fill:#98812d;fill-opacity:1;fill-rule:evenodd;stroke:#d4aa00;stroke-width:0.16503231px;stroke-linecap:butt;stroke-linejoin:miter;stroke-opacity:1"
       d="m 25.140625,3.0957031 -4.589844,3.2890625 c 0.493593,0.4771276 0.98883,0.9545131 1.482422,1.4316406 0.648369,0.4537323 1.006636,0.9651523 0.4375,1.6640626 -0.140643,0.8756032 -0.973562,1.1614452 -1.738281,1.3164062 -2.199654,0.696378 -4.302934,1.692749 -6.361328,2.732422 -1.692415,0.661644 -2.873852,2.092722 -4.279297,3.1875 -0.6426381,0.777184 -1.246785,1.645695 -1.7187501,2.539062 -0.3211219,1.1839 -0.9959017,2.29404 -0.9199219,3.558594 -0.071224,1.680114 0.7462652,3.184509 1.2128906,4.757813 0.537814,1.384705 1.5755074,2.524688 2.3203124,3.808593 1.796321,2.420712 3.974178,4.533668 6.109375,6.65625 1.428786,1.20344 3.084756,2.131936 4.603516,3.226563 -3.365474,0.05102 -6.732183,0.10132 -10.097657,0.152344 -0.0255,1.835716 -0.05066,3.672096 -0.07617,5.507812 h 27.185547 l 0.04492,-5.355469 c -3.416466,-0.07635 -6.833533,-0.152169 -10.25,-0.228515 0.74423,-0.571805 1.488192,-1.143039 2.232422,-1.714844 1.550833,-1.289915 3.32592,-2.335701 4.703125,-3.816406 1.340256,-1.569827 2.98433,-2.903285 4.052735,-4.683594 0.955676,-1.288025 1.57022,-2.75687 2.162109,-4.236328 0.737635,-1.349443 0.947846,-2.855275 0.884766,-4.365234 C 42.48467,21.1746 42.329024,19.812739 41.550781,18.675781 41.042714,17.467995 40.048164,16.637735 39.126953,15.75 38.382435,14.882825 37.447779,14.271266 36.423828,13.78125 33.918475,12.244494 31.098361,11.369402 28.410156,10.216797 27.857092,9.865452 27.795728,9.0016723 27.435547,8.4492188 L 29.730469,6.6132812 C 28.200707,5.440456 26.670387,4.2685283 25.140625,3.0957031 Z M 24.830078,15.25 c 1.623264,0 3.143663,0.429674 4.558594,1.289062 1.423611,0.850697 2.53342,2.043625 3.332031,3.580079 0.807292,1.527785 1.210938,3.251534 1.210938,5.169921 0,1.918413 -0.403646,3.650167 -1.210938,5.195313 -0.807292,1.545121 -1.917101,2.751084 -3.332031,3.619141 -1.40625,0.859389 -2.900608,1.289062 -4.480469,1.289062 -1.545139,0 -2.993489,-0.421643 -4.347656,-1.263672 C 19.20638,33.27821 18.115668,32.067269 17.291016,30.496094 16.475043,28.916226 16.068359,27.168387 16.068359,25.25 c 0,-1.892359 0.393664,-3.598095 1.183594,-5.117188 0.798611,-1.527785 1.889323,-2.722642 3.269531,-3.582031 C 21.901693,15.682725 23.337023,15.25 24.830078,15.25 Z m 0.208984,1.001953 c -1.692708,0 -3.064887,0.703139 -4.115234,2.109375 -1.050347,1.406262 -1.574219,3.697929 -1.574219,6.875 0,3.446199 0.536893,5.829005 1.613282,7.148438 1.076388,1.319433 2.409505,1.978515 3.998047,1.978515 1.111111,0 2.087673,-0.299483 2.929687,-0.898437 0.842014,-0.598955 1.511068,-1.54949 2.005859,-2.851563 0.503473,-1.302097 0.753907,-3.010859 0.753907,-5.128906 0,-2.309039 -0.234376,-4.110917 -0.703125,-5.404297 -0.46875,-1.302098 -1.135851,-2.265617 -2.003907,-2.890625 -0.868055,-0.624983 -1.836588,-0.9375 -2.904297,-0.9375 z"
       id="path4601-7"
       transform="matrix(0.26458333,0,0,0.26458333,0,283.77082)"
       inkscape:connector-curvature="0"
       inkscape:label="path4601-7" />
  </g>
</svg>
