<svg height="50" viewBox="0 0 13.229166 13.229167" width="50" xmlns="http://www.w3.org/2000/svg"><path d="m25.140625 3.0957031-4.589844 3.2890625c.493593.4771276.98883.9545131 1.482422 1.4316406.648369.4537323 1.006636.9651523.4375 1.6640626-.140643.8756032-.973562 1.1614452-1.738281 1.3164062-2.199654.696378-4.302934 1.692749-6.361328 2.732422-1.692415.661644-2.873852 2.092722-4.279297 3.1875-.6426381.777184-1.246785 1.645695-1.7187501 2.539062-.3211219 1.1839-.9959017 2.29404-.9199219 3.558594-.071224 1.680114.7462652 3.184509 1.2128906 4.757813.537814 1.384705 1.5755074 2.524688 2.3203124 3.808593 1.796321 2.420712 3.974178 4.533668 6.109375 6.65625 1.428786 1.20344 3.084756 2.131936 4.603516 3.226563-3.365474.05102-6.732183.10132-10.097657.152344-.0255 1.835716-.05066 3.672096-.07617 5.507812h27.185547l.04492-5.355469c-3.416466-.07635-6.833533-.152169-10.25-.228515.74423-.571805 1.488192-1.143039 2.232422-1.714844 1.550833-1.289915 3.32592-2.335701 4.703125-3.816406 1.340256-1.569827 2.98433-2.903285 4.052735-4.683594.955676-1.288025 1.57022-2.75687 2.162109-4.236328.737635-1.349443.947846-2.855275.884766-4.365234-.056346-1.348838-.211992-2.710699-.990235-3.847657-.508067-1.207786-1.502617-2.038046-2.423828-2.925781-.744518-.867175-1.679174-1.478734-2.703125-1.96875-2.505353-1.536756-5.325467-2.411848-8.013672-3.564453-.553064-.351345-.614428-1.2151247-.974609-1.7675782l2.294922-1.8359376c-1.529762-1.1728252-3.060082-2.3447529-4.589844-3.5175781zm-.310547 12.1542969c1.623264 0 3.143663.429674 4.558594 1.289062 1.423611.850697 2.53342 2.043625 3.332031 3.580079.807292 1.527785 1.210938 3.251534 1.210938 5.169921 0 1.918413-.403646 3.650167-1.210938 5.195313-.807292 1.545121-1.917101 2.751084-3.332031 3.619141-1.40625.859389-2.900608 1.289062-4.480469 1.289062-1.545139 0-2.993489-.421643-4.347656-1.263672-1.354167-.850696-2.444879-2.061637-3.269531-3.632812-.815973-1.579868-1.222657-3.327707-1.222657-5.246094 0-1.892359.393664-3.598095 1.183594-5.117188.798611-1.527785 1.889323-2.722642 3.269531-3.582031 1.380209-.868056 2.815539-1.300781 4.308594-1.300781zm.208984 1.001953c-1.692708 0-3.064887.703139-4.115234 2.109375-1.050347 1.406262-1.574219 3.697929-1.574219 6.875 0 3.446199.536893 5.829005 1.613282 7.148438 1.076388 1.319433 2.409505 1.978515 3.998047 1.978515 1.111111 0 2.087673-.299483 2.929687-.898437.842014-.598955 1.511068-1.54949 2.005859-2.851563.503473-1.302097.753907-3.010859.753907-5.128906 0-2.309039-.234376-4.110917-.703125-5.404297-.46875-1.302098-1.135851-2.265617-2.003907-2.890625-.868055-.624983-1.836588-.9375-2.904297-.9375z" fill="#98812d" fill-rule="evenodd" opacity=".99" stroke="#d4aa00" stroke-width=".165032" transform="scale(.26458333)"/></svg>