<svg height="50" viewBox="0 0 13.229166 13.229167" width="50" xmlns="http://www.w3.org/2000/svg"><path d="m25 1.7617187-15.7265625 5.4960938-4.3085938 40.9804685h40.0703123l-4.308594-40.9804685zm11.925781 13.6347653c.039659-.011338.449855.261182.732422.486328.533419.425046 1.331689 1.29848 1.568359 1.716797.053065.093733.213423.359734.357422.591797.447333.72102.565973.94007.722657 1.335938.097625.246425.205516.628158.189453.669922-.00567.011338-.167564.138635-.359375.277343-1.087146.786557-2.256848 1.575586-4.447266 2.998047-2.789472 1.811413-4.08344 2.667095-5.302734 3.507813-.342119.235842-.636654.432889-.654297.4375-.01697.003099-.124963-.027416-.240235-.076172-.674431-.268724-1.479709-.456376-2.21875-.519531-.512552-.043843-1.222275-.023298-1.748046.050781-2.510003.355653-4.687034 1.910335-5.845704 4.175781-.341699.668107-.610204 1.465925-.732421 2.179688-.085928.501807-.10882.796349-.109375 1.345703-.000887.539791.01431.758183.089843 1.248047l.041016.271484-.146484.142578c-.209231.202583-.238558.223163-.353516.238281l-.103516.011719-.357422.474609c-1.776079 2.356042-2.847163 3.497079-3.980468 4.238282-.940962.615382-1.934703.905757-3.302735.966797-.488525.022677-.531536.02216-1.1484371-.001954-.7189641-.026456-2.5165844-.168667-2.5527344-.201171-.0231685-.022678-.0737741-.485588-.0546875-.501954.0074079-.007559.1000943-.042597.2050781-.078125 2.1351732-.730015 3.9485089-2.274459 5.7148439-4.86914.264672-.388762.674457-1.022784.666015-1.03125-.003706-.003062-.042695.006366-.085937.021484-.265844.093732-.691708.096632-.957031.007813-.598412-.203717-.910353-.755014-.759766-1.34375.068753-.268724.228439-.528162.443359-.722657l.121094-.109375-.0625-.138671c-.256546-.563338-.382044-1.151559-.384765-1.796875-.001887-.551131.067729-.985626.248046-1.533204.175654-.533479.530373-1.199314.695313-1.304687.04213-.026457 1.071704-.592893 2.287109-1.255859 2.051695-1.119193 6.580853-3.592432 17.435547-9.521485 2.397665-1.30968 4.37378-2.384287 4.390625-2.388672zm-10.515625 11.894532c.741194-.020971 1.491168.071538 2.228516.283203 2.496255.716597 4.425534 2.714114 5.060547 5.240234.152798.607521.203125 1.046029.203125 1.767578 0 .613795-.017169.818539-.103516 1.296875-.167161.918236-.498896 1.78029-.986328 2.5625-1.407769 2.259286-3.936005 3.57142-6.605469 3.429688-.47423-.026457-1.160515-.146133-1.638672-.28711-1.871326-.552642-3.422075-1.804838-4.363281-3.52539-.38076-.696-.676678-1.578579-.796875-2.375-.123333-.817398-.101957-1.744581.058594-2.53711.231435-1.142474.747354-2.238971 1.484375-3.154297.196656-.244157.703889-.764364.9375-.960937 1.304365-1.0976 2.890858-1.694099 4.521484-1.740234zm.851563 2.115234v1.871094c0 1.028862.004111 1.871093.007812 1.871093.003707 0 .580756-.593257 1.28125-1.318359v-.003906c.700513-.725102 1.275822-1.324914 1.279297-1.333985.018822-.046866-.631572-.464042-.970703-.623046-.486808-.228284-1.047318-.399053-1.480469-.451172zm-1.328125.013672c-.019162-.018898-.434518.059426-.689453.130859-.670163.187087-1.352118.53366-1.865235.949219l-.058594.044922 1.3125 1.271484 1.314454 1.269531.005859-.175781c.003706-.097134.003706-.920283 0-1.828125-.003707-.907879-.011783-1.654928-.019531-1.662109zm4.824218 2.017578c-.009562 0-.487885.490449-1.066406 1.089844-.578505.599432-1.146603 1.185897-1.261719 1.304687l-.208984.216797h1.783203 1.783203l-.013672-.125c-.053465-.495042-.231202-1.105502-.470703-1.613281-.144302-.306142-.498986-.873047-.544922-.873047zm-8.332031.056641-.11914.177734c-.338094.504377-.577837 1.049827-.728516 1.662109-.052694.214299-.121094.611812-.121094.703125 0 .030237.153938.033203 1.8125.033203h1.8125l-.128906-.128906c-.071781-.070299-.569593-.549443-1.105469-1.066406-.535875-.517001-1.076115-1.038909-1.199219-1.160156zm7.845703 3.863281c-.809339.001436-1.579673.008066-1.710937.015625l-.238281.009765 1.199218 1.160157c.659226.638097 1.204978 1.160307 1.212891 1.160156.007357-.000225.069832-.078357.136719-.173828.325144-.465248.573955-.982189.730468-1.519531.05816-.199559.140625-.568257.140625-.626954 0-.026456-.226548-.02539-1.470703-.02539zm-5.15039.017578-1.806641.007812-1.806641.007813.00586.080078c.009562.103937.128482.567226.197265.767578.147704.429808.355145.844998.625 1.242188.131641.193511.31709.43164.335938.43164.003707 0 .493237-.505144 1.087891-1.121093v-.003907c.594653-.615949 1.143871-1.185461 1.220703-1.265625zm2.171875.832031-.00586 1.296875c-.003706.713272.000405 1.498283.007813 1.744141.011414.395338.017391.447417.046875.447265.018822-.000264.163683-.027665.324219-.060546.689408-.139843 1.372706-.437125 1.951171-.847657l.195313-.136718-.246094-.240235c-.134853-.131149-.701772-.680269-1.259765-1.220703zm-1.31836.164063-.125.130859c-.068568.073323-.589161.614918-1.158203 1.203125-.56902.588207-1.037803 1.077471-1.041015 1.085938-.009563.026456.365335.25703.613281.382812.268932.136441.664038.292794.9375.369141.243855.068409.622566.148501.710937.15039l.064453.001953v-1.662109z" fill="#8d6c46" transform="scale(.26458333)"/></svg>