<?xml version="1.0" encoding="UTF-8" standalone="no"?>
<svg
   width="50"
   height="50"
   viewBox="0 0 13.229166 13.229167"
   version="1.1"
   id="svg1579"
   inkscape:version="1.3 (0e150ed6c4, 2023-07-21)"
   sodipodi:docname="CannonShogi.svg"
   xmlns:inkscape="http://www.inkscape.org/namespaces/inkscape"
   xmlns:sodipodi="http://sodipodi.sourceforge.net/DTD/sodipodi-0.dtd"
   xmlns="http://www.w3.org/2000/svg"
   xmlns:svg="http://www.w3.org/2000/svg"
   xmlns:rdf="http://www.w3.org/1999/02/22-rdf-syntax-ns#"
   xmlns:cc="http://creativecommons.org/ns#"
   xmlns:dc="http://purl.org/dc/elements/1.1/">
  <defs
     id="defs1573">
    <inkscape:path-effect
       effect="mirror_symmetry"
       start_point="-15.691712,-45.362002"
       end_point="-15.691712,4.437998"
       center_point="-15.691712,-20.462002"
       id="path-effect7365"
       is_visible="true"
       mode="free"
       discard_orig_path="false"
       fuse_paths="true"
       oposite_fuse="false" />
  </defs>
  <sodipodi:namedview
     id="base"
     pagecolor="#ffffff"
     bordercolor="#666666"
     borderopacity="1.0"
     inkscape:pageopacity="0.0"
     inkscape:pageshadow="2"
     inkscape:zoom="5.6"
     inkscape:cx="24.375"
     inkscape:cy="4.375"
     inkscape:document-units="px"
     inkscape:current-layer="layer1"
     showgrid="false"
     units="px"
     showguides="true"
     inkscape:window-width="3840"
     inkscape:window-height="2036"
     inkscape:window-x="-12"
     inkscape:window-y="-12"
     inkscape:window-maximized="1"
     inkscape:document-rotation="0"
     inkscape:showpageshadow="2"
     inkscape:pagecheckerboard="0"
     inkscape:deskcolor="#d1d1d1" />
  <metadata
     id="metadata1576">
    <rdf:RDF>
      <cc:Work
         rdf:about="">
        <dc:format>image/svg+xml</dc:format>
        <dc:type
           rdf:resource="http://purl.org/dc/dcmitype/StillImage" />
      </cc:Work>
    </rdf:RDF>
  </metadata>
  <g
     inkscape:label="Layer 1"
     inkscape:groupmode="layer"
     id="layer1"
     transform="translate(0,-283.77082)">
    <path
       id="path3112"
       style="fill:#8d6c46;fill-opacity:1;fill-rule:nonzero;stroke:none;stroke-width:0.934067;stroke-opacity:0.487437"
       d="M 25 1.7617187 L 9.2734375 7.2578125 L 4.9648437 48.238281 L 45.035156 48.238281 L 40.726562 7.2578125 L 25 1.7617187 z M 36.925781 15.396484 C 36.96544 15.385146 37.375636 15.657666 37.658203 15.882812 C 38.191622 16.307858 38.989892 17.181292 39.226562 17.599609 C 39.279627 17.693342 39.439985 17.959343 39.583984 18.191406 C 40.031317 18.912426 40.149957 19.131476 40.306641 19.527344 C 40.404266 19.773769 40.512157 20.155502 40.496094 20.197266 C 40.490424 20.208604 40.32853 20.335901 40.136719 20.474609 C 39.049573 21.261166 37.879871 22.050195 35.689453 23.472656 C 32.899981 25.284069 31.606013 26.139751 30.386719 26.980469 C 30.0446 27.216311 29.750065 27.413358 29.732422 27.417969 C 29.715452 27.421068 29.607459 27.390553 29.492187 27.341797 C 28.817756 27.073073 28.012478 26.885421 27.273437 26.822266 C 26.760885 26.778423 26.051162 26.798968 25.525391 26.873047 C 23.015388 27.2287 20.838357 28.783382 19.679687 31.048828 C 19.337988 31.716935 19.069483 32.514753 18.947266 33.228516 C 18.861338 33.730323 18.838446 34.024865 18.837891 34.574219 C 18.837004 35.11401 18.852201 35.332402 18.927734 35.822266 L 18.96875 36.09375 L 18.822266 36.236328 C 18.613035 36.438911 18.583708 36.459491 18.46875 36.474609 L 18.365234 36.486328 L 18.007812 36.960937 C 16.231733 39.316979 15.160649 40.458016 14.027344 41.199219 C 13.086382 41.814601 12.092641 42.104976 10.724609 42.166016 C 10.236084 42.188693 10.193073 42.188176 9.5761719 42.164062 C 8.8572078 42.137606 7.0595875 41.995395 7.0234375 41.962891 C 7.000269 41.940213 6.9496634 41.477303 6.96875 41.460937 C 6.9761579 41.453378 7.0688443 41.41834 7.1738281 41.382812 C 9.3090013 40.652797 11.122337 39.108353 12.888672 36.513672 C 13.153344 36.12491 13.563129 35.490888 13.554687 35.482422 C 13.550981 35.47936 13.511992 35.488788 13.46875 35.503906 C 13.202906 35.597638 12.777042 35.600538 12.511719 35.511719 C 11.913307 35.308002 11.601366 34.756705 11.751953 34.167969 C 11.820706 33.899245 11.980392 33.639807 12.195312 33.445312 L 12.316406 33.335937 L 12.253906 33.197266 C 11.99736 32.633928 11.871862 32.045707 11.869141 31.400391 C 11.867254 30.84926 11.93687 30.414765 12.117187 29.867187 C 12.292841 29.333708 12.64756 28.667873 12.8125 28.5625 C 12.85463 28.536043 13.884204 27.969607 15.099609 27.306641 C 17.151304 26.187448 21.680462 23.714209 32.535156 17.785156 C 34.932821 16.475476 36.908936 15.400869 36.925781 15.396484 z M 26.410156 27.291016 C 27.15135 27.270045 27.901324 27.362554 28.638672 27.574219 C 31.134927 28.290816 33.064206 30.288333 33.699219 32.814453 C 33.852017 33.421974 33.902344 33.860482 33.902344 34.582031 C 33.902344 35.195826 33.885175 35.40057 33.798828 35.878906 C 33.631667 36.797142 33.299932 37.659196 32.8125 38.441406 C 31.404731 40.700692 28.876495 42.012826 26.207031 41.871094 C 25.732801 41.844637 25.046516 41.724961 24.568359 41.583984 C 22.697033 41.031342 21.146284 39.779146 20.205078 38.058594 C 19.824318 37.362594 19.5284 36.480015 19.408203 35.683594 C 19.28487 34.866196 19.306246 33.939013 19.466797 33.146484 C 19.698232 32.00401 20.214151 30.907513 20.951172 29.992187 C 21.147828 29.74803 21.655061 29.227823 21.888672 29.03125 C 23.193037 27.93365 24.77953 27.337151 26.410156 27.291016 z M 27.261719 29.40625 L 27.261719 31.277344 C 27.261719 32.306206 27.26583 33.148437 27.269531 33.148437 C 27.273238 33.148437 27.850287 32.55518 28.550781 31.830078 L 28.550781 31.826172 C 29.251294 31.10107 29.826603 30.501258 29.830078 30.492187 C 29.8489 30.445321 29.198506 30.028145 28.859375 29.869141 C 28.372567 29.640857 27.812057 29.470088 27.378906 29.417969 L 27.261719 29.40625 z M 25.933594 29.419922 C 25.914432 29.401024 25.499076 29.479348 25.244141 29.550781 C 24.573978 29.737868 23.892023 30.084441 23.378906 30.5 L 23.320312 30.544922 L 24.632812 31.816406 L 25.947266 33.085937 L 25.953125 32.910156 C 25.956831 32.813022 25.956831 31.989873 25.953125 31.082031 C 25.949418 30.174152 25.941342 29.427103 25.933594 29.419922 z M 30.757812 31.4375 C 30.74825 31.4375 30.269927 31.927949 29.691406 32.527344 C 29.112901 33.126776 28.544803 33.713241 28.429687 33.832031 L 28.220703 34.048828 L 30.003906 34.048828 L 31.787109 34.048828 L 31.773437 33.923828 C 31.719972 33.428786 31.542235 32.818326 31.302734 32.310547 C 31.158432 32.004405 30.803748 31.4375 30.757812 31.4375 z M 22.425781 31.494141 L 22.306641 31.671875 C 21.968547 32.176252 21.728804 32.721702 21.578125 33.333984 C 21.525431 33.548283 21.457031 33.945796 21.457031 34.037109 C 21.457031 34.067346 21.610969 34.070312 23.269531 34.070312 L 25.082031 34.070312 L 24.953125 33.941406 C 24.881344 33.871107 24.383532 33.391963 23.847656 32.875 C 23.311781 32.357999 22.771541 31.836091 22.648437 31.714844 L 22.425781 31.494141 z M 30.271484 35.357422 C 29.462145 35.358858 28.691811 35.365488 28.560547 35.373047 L 28.322266 35.382812 L 29.521484 36.542969 C 30.18071 37.181066 30.726462 37.703276 30.734375 37.703125 C 30.741732 37.7029 30.804207 37.624768 30.871094 37.529297 C 31.196238 37.064049 31.445049 36.547108 31.601562 36.009766 C 31.659722 35.810207 31.742187 35.441509 31.742187 35.382812 C 31.742187 35.356356 31.515639 35.357422 30.271484 35.357422 z M 25.121094 35.375 L 23.314453 35.382812 L 21.507812 35.390625 L 21.513672 35.470703 C 21.523234 35.57464 21.642154 36.037929 21.710937 36.238281 C 21.858641 36.668089 22.066082 37.083279 22.335937 37.480469 C 22.467578 37.67398 22.653027 37.912109 22.671875 37.912109 C 22.675582 37.912109 23.165112 37.406965 23.759766 36.791016 L 23.759766 36.787109 C 24.354419 36.17116 24.903637 35.601648 24.980469 35.521484 L 25.121094 35.375 z M 27.292969 36.207031 L 27.287109 37.503906 C 27.283403 38.217178 27.287514 39.002189 27.294922 39.248047 C 27.306336 39.643385 27.312313 39.695464 27.341797 39.695312 C 27.360619 39.695048 27.50548 39.667647 27.666016 39.634766 C 28.355424 39.494923 29.038722 39.197641 29.617187 38.787109 L 29.8125 38.650391 L 29.566406 38.410156 C 29.431553 38.279007 28.864634 37.729887 28.306641 37.189453 L 27.292969 36.207031 z M 25.974609 36.371094 L 25.849609 36.501953 C 25.781041 36.575276 25.260448 37.116871 24.691406 37.705078 C 24.122386 38.293285 23.653603 38.782549 23.650391 38.791016 C 23.640828 38.817472 24.015726 39.048046 24.263672 39.173828 C 24.532604 39.310269 24.92771 39.466622 25.201172 39.542969 C 25.445027 39.611378 25.823738 39.69147 25.912109 39.693359 L 25.976562 39.695312 L 25.976562 38.033203 L 25.974609 36.371094 z "
       transform="matrix(0.26458333,0,0,0.26458333,0,283.77082)" />
  </g>
</svg>
