<?xml version="1.0" encoding="UTF-8" standalone="no"?>
<!-- Created with Inkscape (http://www.inkscape.org/) -->

<svg
   xmlns:dc="http://purl.org/dc/elements/1.1/"
   xmlns:cc="http://creativecommons.org/ns#"
   xmlns:rdf="http://www.w3.org/1999/02/22-rdf-syntax-ns#"
   xmlns:svg="http://www.w3.org/2000/svg"
   xmlns="http://www.w3.org/2000/svg"
   xmlns:sodipodi="http://sodipodi.sourceforge.net/DTD/sodipodi-0.dtd"
   xmlns:inkscape="http://www.inkscape.org/namespaces/inkscape"
   width="50"
   height="50"
   viewBox="0 0 13.229166 13.229167"
   version="1.1"
   id="svg1579"
   sodipodi:docname="Capahouse960.svg"
   inkscape:version="0.92.4 (5da689c313, 2019-01-14)">
  <defs
     id="defs1573">
    <inkscape:path-effect
       effect="mirror_symmetry"
       start_point="-15.691712,-45.362002"
       end_point="-15.691712,4.437998"
       center_point="-15.691712,-20.462002"
       id="path-effect7365"
       is_visible="true"
       mode="free"
       discard_orig_path="false"
       fuse_paths="true"
       oposite_fuse="false" />
    <inkscape:path-effect
       effect="mirror_symmetry"
       start_point="275.14301,98.12006"
       end_point="275.14301,350.07326"
       center_point="275.14301,224.09666"
       id="path-effect4547-0"
       is_visible="true"
       mode="free"
       discard_orig_path="false"
       fuse_paths="true"
       oposite_fuse="false" />
    <inkscape:path-effect
       effect="mirror_symmetry"
       start_point="274.67636,240.21573"
       end_point="274.67636,418.88419"
       center_point="274.67636,329.54996"
       id="path-effect4551-7"
       is_visible="true"
       mode="free"
       discard_orig_path="false"
       fuse_paths="false"
       oposite_fuse="false" />
    <inkscape:path-effect
       effect="mirror_symmetry"
       start_point="273.50283,331.92091"
       end_point="273.50283,477.30227"
       center_point="273.50283,404.61159"
       id="path-effect4557-0"
       is_visible="true"
       mode="free"
       discard_orig_path="false"
       fuse_paths="false"
       oposite_fuse="false" />
    <inkscape:path-effect
       effect="mirror_symmetry"
       start_point="315.71788,90.192596"
       end_point="315.71788,96.192596"
       center_point="315.71788,93.192596"
       id="path-effect4669"
       is_visible="true"
       mode="free"
       discard_orig_path="false"
       fuse_paths="false"
       oposite_fuse="false" />
    <inkscape:path-effect
       oposite_fuse="false"
       fuse_paths="false"
       discard_orig_path="false"
       mode="free"
       is_visible="true"
       id="path-effect4802"
       center_point="316.91112,93.060013"
       end_point="316.91112,96.060013"
       start_point="316.91112,90.060013"
       effect="mirror_symmetry" />
  </defs>
  <sodipodi:namedview
     id="base"
     pagecolor="#ffffff"
     bordercolor="#666666"
     borderopacity="1.0"
     inkscape:pageopacity="0.0"
     inkscape:pageshadow="2"
     inkscape:zoom="1.4"
     inkscape:cx="-329.51858"
     inkscape:cy="167.76942"
     inkscape:document-units="px"
     inkscape:current-layer="layer1"
     showgrid="false"
     units="px"
     showguides="true"
     inkscape:window-width="1920"
     inkscape:window-height="1017"
     inkscape:window-x="1912"
     inkscape:window-y="-8"
     inkscape:window-maximized="1"
     inkscape:lockguides="true" />
  <metadata
     id="metadata1576">
    <rdf:RDF>
      <cc:Work
         rdf:about="">
        <dc:format>image/svg+xml</dc:format>
        <dc:type
           rdf:resource="http://purl.org/dc/dcmitype/StillImage" />
        <dc:title />
      </cc:Work>
    </rdf:RDF>
  </metadata>
  <g
     inkscape:label="Layer 1"
     inkscape:groupmode="layer"
     id="layer1"
     transform="translate(0,-283.77082)"
     style="opacity:0.98999999">
    <path
       style="opacity:1;fill:#88aa00;fill-opacity:1;stroke:none;stroke-width:0.76448935;stroke-linecap:square;stroke-linejoin:miter;stroke-miterlimit:10;stroke-dasharray:none;stroke-opacity:1;paint-order:normal"
       d="m 5.226587,286.45769 c -1.5474066,1.2062 -6.603939,6.07546 -4.64194705,6.07546 H 1.9498397 v 4.3716 h 6.6908619 v -4.3716 h 1.4878494 c 2.030911,0 -3.2680559,-4.86926 -4.901964,-6.07546 z m -0.241285,2.04355 c 0.1731307,0 0.1734933,0.5196 0.1734933,0.5196 1.81788,0.17313 2.8566583,1.38529 2.7700935,5.02104 H 3.9470187 c 0,-1.46417 1.5277874,-1.17132 1.4249637,-3.21341 -0.2831031,0.4413 -0.9360639,0.92465 -1.2523625,1.13552 -0.5193941,0.34625 -0.4876705,0.75245 -0.8652361,0.69307 -0.1803545,-0.16344 0.2447092,-0.52649 0,-0.51958 -0.1731314,0 0.032517,0.21308 -0.173047,0.34609 -0.1731316,0 -0.6931822,0.17348 -0.6926351,-0.69219 0,-0.34627 1.0387295,-2.0779 1.0387293,-2.0779 4e-7,0 0.3263347,-0.32903 0.3460946,-0.60566 -0.1257013,-0.17216 -0.086078,-0.34647 -0.086078,-0.51959 0.1731314,-0.17314 0.5191418,0.43261 0.5191418,0.43261 h 0.3460939 c 0,0 0.1351403,-0.34505 0.4326187,-0.5196 z m -0.8821839,1.22963 -0.2033751,0.13916 -0.2122951,0.12621 c 0.043687,0.0744 0.1260794,0.11783 0.2149711,0.11327 0.088911,-0.004 0.1701127,-0.0567 0.211849,-0.13558 0.04167,-0.0787 0.037397,-0.1719 -0.011155,-0.24307 z m -0.5909474,4.34938 h 4.0951535 v 0.47856 h -0.059764 l 0.6136931,0.61324 v 1.13105 H 7.2563244 v -0.45225 H 6.125273 v 0.45225 H 4.994222 v -0.45225 H 3.8636172 v 0.45225 h -0.90493 v -1.13105 l 0.6132472,-0.61324 h -0.059765 z"
       id="rect7553"
       inkscape:connector-curvature="0"
       sodipodi:nodetypes="csccccsccccccccccccccccccccccccccccccccccccccccccc" />
    <path
       style="fill:none;fill-opacity:0.75;fill-rule:evenodd;stroke:none;stroke-width:0.20060207;stroke-linecap:round;stroke-linejoin:miter;stroke-miterlimit:4;stroke-dasharray:none;stroke-opacity:1"
       d="m 9.4654426,292.98623 c 0.2006026,-4.01204 -1.103311,-5.51656 -2.4072253,-5.71715"
       id="path8049"
       sodipodi:nodetypes="cc"
       inkscape:connector-curvature="0" />
    <path
       inkscape:connector-curvature="0"
       style="display:inline;fill:none;fill-opacity:0.75;fill-rule:evenodd;stroke:none;stroke-width:0.39312035;stroke-linecap:butt;stroke-linejoin:miter;stroke-miterlimit:4;stroke-dasharray:none;stroke-opacity:1"
       d="M 8.9870183,293.03239 H 5.0558154"
       id="path4590"
       sodipodi:nodetypes="cc" />
    <path
       style="opacity:1;fill:#c83737;fill-opacity:1;stroke:none;stroke-width:0.19277427;stroke-linecap:round;stroke-linejoin:round;stroke-miterlimit:4;stroke-dasharray:none;stroke-opacity:1;paint-order:normal"
       d="m 10.590367,283.87523 c -1.0926122,0 -2.1850432,0.0834 -2.3513202,0.24962 -0.332552,0.33256 -0.332552,4.37047 0,4.70302 0.332553,0.33255 4.3704632,0.33255 4.7030152,0 0.332553,-0.33255 0.332553,-4.37046 0,-4.70302 -0.166276,-0.16627 -1.259083,-0.24962 -2.351695,-0.24962 z m -1.1573992,0.51055 a 0.5938136,0.5938136 0 0 1 0.5937602,0.59413 0.5938136,0.5938136 0 0 1 -0.5937602,0.59376 0.5938136,0.5938136 0 0 1 -0.59376,-0.59376 0.5938136,0.5938136 0 0 1 0.59376,-0.59413 z m 2.3407772,0 a 0.5938136,0.5938136 0 0 1 0.593759,0.59413 0.5938136,0.5938136 0 0 1 -0.593759,0.59376 0.5938136,0.5938136 0 0 1 -0.593761,-0.59376 0.5938136,0.5938136 0 0 1 0.593761,-0.59413 z m -2.3667572,1.50605 a 0.5938136,0.5938136 0 0 1 0.5937612,0.59413 0.5938136,0.5938136 0 0 1 -0.5937612,0.59376 0.5938136,0.5938136 0 0 1 -0.593759,-0.59376 0.5938136,0.5938136 0 0 1 0.593759,-0.59413 z m 2.3407772,0 a 0.5938136,0.5938136 0 0 1 0.594136,0.59413 0.5938136,0.5938136 0 0 1 -0.594136,0.59376 0.5938136,0.5938136 0 0 1 -0.593759,-0.59376 0.5938136,0.5938136 0 0 1 0.593759,-0.59413 z m -2.3321162,1.50604 a 0.5938136,0.5938136 0 0 1 0.5937592,0.59414 0.5938136,0.5938136 0 0 1 -0.5937592,0.59377 0.5938136,0.5938136 0 0 1 -0.593761,-0.59377 0.5938136,0.5938136 0 0 1 0.593761,-0.59414 z m 2.3407762,0 a 0.5938136,0.5938136 0 0 1 0.59376,0.59414 0.5938136,0.5938136 0 0 1 -0.59376,0.59377 0.5938136,0.5938136 0 0 1 -0.59376,-0.59377 0.5938136,0.5938136 0 0 1 0.59376,-0.59414 z"
       id="path839"
       inkscape:connector-curvature="0" />
  </g>
</svg>
