<svg height="50" viewBox="0 0 13.229166 13.229167" width="50" xmlns="http://www.w3.org/2000/svg"><g fill="#8a0" fill-rule="evenodd" opacity=".99" transform="translate(-.051408 -283.990624)"><path d="m11.146027 294.8412-1.03775-1.03776h-5.8805836l-1.03775 1.03776"/><g transform="matrix(.34591669 0 0 .34591669 -.61514 282.68907)"><path d="m11 35.130223v5h4v-2h5v2h5v-2h5v2h4v-5"/><path d="m31.552703 32.417761v-2.114939h-18.105406v2.114939"/><path d="m11 35.130223h23"/></g><path d="m6.4222406 285.43425c2.7801106.26478 4.3687434 2.11819 4.2363584 7.6784h-6.089765c0-2.38295 2.6477231-1.72101 2.118179-5.56021"/><path d="m6.1573063 284.63963c-.4549369.26691-.6620285.7946-.6620285.7946h-.5294588s-.5290032-.92681-.7937755-.66203c0 .26476-.060491.53133.1317465.79461-.030219.42306-.5294582.92634-.5294582.92634s-1.5883756 2.64803-1.5883756 3.17757c-.0008368 1.32387.7941446 1.05892 1.0589169 1.05892.3143724-.20342.0003684-.52946.2651408-.52946.3742371-.01-.2758189.54464 0 .7946.5774163.0908.5289173-.53021 1.3232343-1.05974.647915-.43195 2.2204523-1.61214 2.1186571-2.38297l-.5294583-2.11784s-.0003689-.7946-.2651407-.7946zm-1.3495836 1.87988a.36154525.37761394 55.58039 0 1 .017292.37217.36154525.37761394 55.58039 0 1 -.3244269.20751.36154525.37761394 55.58039 0 1 -.3285442-.17375l.3244269-.19267z"/><path d="m10.393826 293.11265c.264773-5.29544-1.4562475-7.28124-3.1772689-7.546"/><path d="m9.7623593 293.17358h-5.1887493"/></g></svg>