<?xml version="1.0" encoding="UTF-8" standalone="no"?>
<svg
   xmlns:dc="http://purl.org/dc/elements/1.1/"
   xmlns:cc="http://creativecommons.org/ns#"
   xmlns:rdf="http://www.w3.org/1999/02/22-rdf-syntax-ns#"
   xmlns:svg="http://www.w3.org/2000/svg"
   xmlns="http://www.w3.org/2000/svg"
   xmlns:sodipodi="http://sodipodi.sourceforge.net/DTD/sodipodi-0.dtd"
   xmlns:inkscape="http://www.inkscape.org/namespaces/inkscape"
   width="50"
   height="50"
   viewBox="0 0 13.229166 13.229167"
   version="1.1"
   id="svg1579"
   sodipodi:docname="Caparandom.svg"
   inkscape:version="1.0.1 (3bc2e813f5, 2020-09-07)">
  <defs
     id="defs1573">
    <inkscape:path-effect
       effect="mirror_symmetry"
       start_point="-15.691712,-45.362002"
       end_point="-15.691712,4.437998"
       center_point="-15.691712,-20.462002"
       id="path-effect7365"
       is_visible="true"
       mode="free"
       discard_orig_path="false"
       fuse_paths="true"
       oposite_fuse="false" />
    <inkscape:path-effect
       effect="mirror_symmetry"
       start_point="275.14301,98.12006"
       end_point="275.14301,350.07326"
       center_point="275.14301,224.09666"
       id="path-effect4547-0"
       is_visible="true"
       mode="free"
       discard_orig_path="false"
       fuse_paths="true"
       oposite_fuse="false" />
    <inkscape:path-effect
       effect="mirror_symmetry"
       start_point="274.67636,240.21573"
       end_point="274.67636,418.88419"
       center_point="274.67636,329.54996"
       id="path-effect4551-7"
       is_visible="true"
       mode="free"
       discard_orig_path="false"
       fuse_paths="false"
       oposite_fuse="false" />
    <inkscape:path-effect
       effect="mirror_symmetry"
       start_point="273.50283,331.92091"
       end_point="273.50283,477.30227"
       center_point="273.50283,404.61159"
       id="path-effect4557-0"
       is_visible="true"
       mode="free"
       discard_orig_path="false"
       fuse_paths="false"
       oposite_fuse="false" />
    <inkscape:path-effect
       effect="mirror_symmetry"
       start_point="315.71788,90.192596"
       end_point="315.71788,96.192596"
       center_point="315.71788,93.192596"
       id="path-effect4669"
       is_visible="true"
       mode="free"
       discard_orig_path="false"
       fuse_paths="false"
       oposite_fuse="false" />
    <inkscape:path-effect
       oposite_fuse="false"
       fuse_paths="false"
       discard_orig_path="false"
       mode="free"
       is_visible="true"
       id="path-effect4802"
       center_point="316.91112,93.060013"
       end_point="316.91112,96.060013"
       start_point="316.91112,90.060013"
       effect="mirror_symmetry" />
    <linearGradient
       gradientTransform="matrix(0.27867357,0,0,0.27867357,-0.3072497,283.2508)"
       id="0"
       x1="21.253"
       y1="37.591999"
       x2="77.639999"
       y2="37.469002"
       gradientUnits="userSpaceOnUse">
      <stop
         stop-color="#fff"
         id="stop15223" />
      <stop
         offset="1"
         stop-color="#fff"
         stop-opacity="0"
         id="stop15225" />
    </linearGradient>
  </defs>
  <sodipodi:namedview
     id="base"
     pagecolor="#ffffff"
     bordercolor="#666666"
     borderopacity="1.0"
     inkscape:pageopacity="0.0"
     inkscape:pageshadow="2"
     inkscape:zoom="7.9195959"
     inkscape:cx="27.993638"
     inkscape:cy="12.234566"
     inkscape:document-units="px"
     inkscape:current-layer="layer1"
     showgrid="false"
     units="px"
     showguides="true"
     inkscape:window-width="3840"
     inkscape:window-height="2050"
     inkscape:window-x="-12"
     inkscape:window-y="-12"
     inkscape:window-maximized="1"
     inkscape:lockguides="true"
     inkscape:document-rotation="0" />
  <metadata
     id="metadata1576">
    <rdf:RDF>
      <cc:Work
         rdf:about="">
        <dc:format>image/svg+xml</dc:format>
        <dc:type
           rdf:resource="http://purl.org/dc/dcmitype/StillImage" />
        <dc:title></dc:title>
      </cc:Work>
    </rdf:RDF>
  </metadata>
  <g
     inkscape:label="Layer 1"
     inkscape:groupmode="layer"
     id="layer1"
     transform="translate(0,-283.77082)"
     style="opacity:0.98999999">
    <path
       style="fill:#5e894f;fill-opacity:1;fill-rule:evenodd;stroke:none;stroke-width:0.49455529;stroke-linecap:round;stroke-linejoin:round;stroke-miterlimit:4;stroke-dasharray:none;stroke-opacity:1"
       d="m 4.0015085,285.41917 c -0.4336139,0.2544 -0.6306632,0.75731 -0.6306632,0.75731 H 2.8658121 c 0,0 -0.5039308,-0.88355 -0.7562932,-0.63117 0,0.25234 -0.057597,0.50635 0.1256302,0.7573 -0.028802,0.40322 -0.5050331,0.88293 -0.5050331,0.88293 0,0 -1.51359177,2.52397 -1.51359177,3.02869 -7.9759e-4,1.26182 0.75669872,1.00956 1.00906107,1.00956 0.2996378,-0.19388 4.054e-4,-0.50453 0.2527679,-0.50453 0.3566966,-0.0102 -0.2628913,0.51905 0,0.7573 0.5503527,0.0866 0.5042391,-0.50537 1.2613264,-1.01007 0.461123,-0.30743 1.4131052,-1.01247 1.8256569,-1.6558 0.1503441,2.97754 -2.0779222,2.55007 -2.0779222,4.6845 h 5.8046141 c 0.096313,-4.04518 -0.7641664,-6.03078 -2.354811,-6.8569 -0.2999176,-0.1782 -0.6130685,-0.28752 -0.9261452,-0.33568 l 5.025e-4,10e-4 c -0.2418711,-0.0575 -0.4921867,-0.10238 -0.7572983,-0.12763 0,0 -4.06e-4,-0.7573 -0.2527679,-0.7573 z m -1.2864524,1.79149 a 0.34459959,0.35991515 55.58039 0 1 0.016584,0.35478 0.34459959,0.35991515 55.58039 0 1 -0.3090502,0.198 0.34459959,0.35991515 55.58039 0 1 -0.3130702,-0.16584 l 0.3090501,-0.18342 z m -0.7346849,6.34031 v 0.69749 h 0.086936 l -0.8939839,0.89398 v 1.64877 H 2.491937 v -0.6598 h 1.6487696 v 0.6598 h 1.6482672 v -0.6598 h 1.6487699 v 0.6598 h 1.3186138 v -1.64877 l -0.8939841,-0.89398 h 0.087438 v -0.69749 z"
       id="path3127"
       inkscape:connector-curvature="0" />
    <path
       style="opacity:1;fill:#5e894f;fill-opacity:1;stroke:none;stroke-width:0.19277427;stroke-linecap:round;stroke-linejoin:round;stroke-miterlimit:4;stroke-dasharray:none;stroke-opacity:1;paint-order:normal"
       d="m 10.547471,283.86995 c -1.0926118,0 -2.1850428,0.0834 -2.3513198,0.24962 -0.332552,0.33256 -0.332552,4.37047 0,4.70302 0.332553,0.33255 4.3704628,0.33255 4.7030148,0 0.332553,-0.33255 0.332553,-4.37046 0,-4.70302 -0.166276,-0.16627 -1.259083,-0.24962 -2.351695,-0.24962 z m -1.1573988,0.51055 a 0.59381359,0.59381359 0 0 1 0.59376,0.59413 0.59381359,0.59381359 0 0 1 -0.59376,0.59376 0.59381359,0.59381359 0 0 1 -0.59376,-0.59376 0.59381359,0.59381359 0 0 1 0.59376,-0.59413 z m 2.3407768,0 a 0.59381359,0.59381359 0 0 1 0.593759,0.59413 0.59381359,0.59381359 0 0 1 -0.593759,0.59376 0.59381359,0.59381359 0 0 1 -0.593761,-0.59376 0.59381359,0.59381359 0 0 1 0.593761,-0.59413 z m -2.3667568,1.50605 a 0.59381359,0.59381359 0 0 1 0.593761,0.59413 0.59381359,0.59381359 0 0 1 -0.593761,0.59376 0.59381359,0.59381359 0 0 1 -0.593759,-0.59376 0.59381359,0.59381359 0 0 1 0.593759,-0.59413 z m 2.3407768,0 a 0.59381359,0.59381359 0 0 1 0.594136,0.59413 0.59381359,0.59381359 0 0 1 -0.594136,0.59376 0.59381359,0.59381359 0 0 1 -0.593759,-0.59376 0.59381359,0.59381359 0 0 1 0.593759,-0.59413 z m -2.3321158,1.50604 a 0.59381359,0.59381359 0 0 1 0.593759,0.59414 0.59381359,0.59381359 0 0 1 -0.593759,0.59377 0.59381359,0.59381359 0 0 1 -0.593761,-0.59377 0.59381359,0.59381359 0 0 1 0.593761,-0.59414 z m 2.3407758,0 a 0.59381359,0.59381359 0 0 1 0.59376,0.59414 0.59381359,0.59381359 0 0 1 -0.59376,0.59377 0.59381359,0.59381359 0 0 1 -0.59376,-0.59377 0.59381359,0.59381359 0 0 1 0.59376,-0.59414 z"
       id="path839"
       inkscape:connector-curvature="0" />
  </g>
</svg>
