<svg height="50" viewBox="0 0 13.229166 13.229167" width="50" xmlns="http://www.w3.org/2000/svg"><g fill="#8a0" opacity=".99" transform="translate(0 -283.77082)"><path d="m4.0015085 285.41917c-.4336139.2544-.6306632.75731-.6306632.75731h-.5050332s-.5039308-.88355-.7562932-.63117c0 .25234-.057597.50635.1256302.7573-.028802.40322-.5050331.88293-.5050331.88293s-1.51359177 2.52397-1.51359177 3.02869c-.00079759 1.26182.75669872 1.00956 1.00906107 1.00956.2996378-.19388.0004054-.50453.2527679-.50453.3566966-.0102-.2628913.51905 0 .7573.5503527.0866.5042391-.50537 1.2613264-1.01007.461123-.30743 1.4131052-1.01247 1.8256569-1.6558.1503441 2.97754-2.0779222 2.55007-2.0779222 4.6845h5.8046141c.096313-4.04518-.7641664-6.03078-2.354811-6.8569-.2999176-.1782-.6130685-.28752-.9261452-.33568l.0005025.001c-.2418711-.0575-.4921867-.10238-.7572983-.12763 0 0-.000406-.7573-.2527679-.7573zm-1.2864524 1.79149a.34459959.35991515 55.58039 0 1 .016584.35478.34459959.35991515 55.58039 0 1 -.3090502.198.34459959.35991515 55.58039 0 1 -.3130702-.16584l.3090501-.18342zm-.7346849 6.34031v.69749h.086936l-.8939839.89398v1.64877h1.3186137v-.6598h1.6487696v.6598h1.6482672v-.6598h1.6487699v.6598h1.3186138v-1.64877l-.8939841-.89398h.087438v-.69749z" fill-rule="evenodd"/><path d="m10.547471 283.86995c-1.0926118 0-2.1850428.0834-2.3513198.24962-.332552.33256-.332552 4.37047 0 4.70302.332553.33255 4.3704628.33255 4.7030148 0 .332553-.33255.332553-4.37046 0-4.70302-.166276-.16627-1.259083-.24962-2.351695-.24962zm-1.1573988.51055a.59381359.59381359 0 0 1 .59376.59413.59381359.59381359 0 0 1 -.59376.59376.59381359.59381359 0 0 1 -.59376-.59376.59381359.59381359 0 0 1 .59376-.59413zm2.3407768 0a.59381359.59381359 0 0 1 .593759.59413.59381359.59381359 0 0 1 -.593759.59376.59381359.59381359 0 0 1 -.593761-.59376.59381359.59381359 0 0 1 .593761-.59413zm-2.3667568 1.50605a.59381359.59381359 0 0 1 .593761.59413.59381359.59381359 0 0 1 -.593761.59376.59381359.59381359 0 0 1 -.593759-.59376.59381359.59381359 0 0 1 .593759-.59413zm2.3407768 0a.59381359.59381359 0 0 1 .594136.59413.59381359.59381359 0 0 1 -.594136.59376.59381359.59381359 0 0 1 -.593759-.59376.59381359.59381359 0 0 1 .593759-.59413zm-2.3321158 1.50604a.59381359.59381359 0 0 1 .593759.59414.59381359.59381359 0 0 1 -.593759.59377.59381359.59381359 0 0 1 -.593761-.59377.59381359.59381359 0 0 1 .593761-.59414zm2.3407758 0a.59381359.59381359 0 0 1 .59376.59414.59381359.59381359 0 0 1 -.59376.59377.59381359.59381359 0 0 1 -.59376-.59377.59381359.59381359 0 0 1 .59376-.59414z" opacity="1"/></g></svg>