<svg height="50" viewBox="0 0 13.229166 13.229167" width="50" xmlns="http://www.w3.org/2000/svg"><g fill="#5e894f" opacity=".99" transform="translate(0 -283.77082)"><path d="m5.2035772 286.50494c-1.5404084 1.20075-6.5740726 5.75305-4.62095377 5.75305h1.35902557v4.64676h6.6606024v-4.64676h1.4811206c2.021726 0-3.2532761-4.5523-4.8797948-5.75305zm-.3108639 2.03431c.1723477 0 .1727087.51725.1727087.51725 1.8096586.17234 2.843739 1.37902 2.7575657 4.99833h-3.9638621c0-1.45755 1.520878-1.16603 1.4185193-3.19888-.2818227.43931-.9318305.92047-1.2466987 1.13038-.5170451.34468-.4854649.74905-.861323.68994-.1795388-.1627.2436025-.52411 0-.51723-.1723484 0 .03237.21211-.1722644.34452-.1723486 0-.6900473.1727-.6895027-.68905 0-.34471 1.0340319-2.06851 1.0340317-2.06851.0000004 0 .3248589-.32754.3445294-.60292-.1251328-.17138-.085688-.3449-.085688-.51724.1723483-.17236.5167939.43066.5167939.43066h.3445287s.1345292-.3435.4306615-.51725zm-.8781942 1.22406-.2024553.13853-.211335.12564c.04349.074.1255091.1173.2139989.11276.088509-.004.1693434-.0565.2108909-.13497.041481-.0784.037228-.17112-.011104-.24197zm-.5882749 4.32971h4.0766332v.4764h-.0594934l.6109177.61047v1.12593h-.9008367v-.45021h-1.1259362v.45021h-1.1259358v-.45021h-1.1254917v.45021h-.9008374v-1.12593l.6104738-.61047h-.059494z" opacity="1"/><path d="m8.9870183 293.03239h-3.9312029" fill-rule="evenodd"/><path d="m10.590367 283.87523c-1.0926122 0-2.1850432.0834-2.3513202.24962-.332552.33256-.332552 4.37047 0 4.70302.332553.33255 4.3704632.33255 4.7030152 0 .332553-.33255.332553-4.37046 0-4.70302-.166276-.16627-1.259083-.24962-2.351695-.24962zm-1.1573992.51055a.5938136.5938136 0 0 1 .5937602.59413.5938136.5938136 0 0 1 -.5937602.59376.5938136.5938136 0 0 1 -.59376-.59376.5938136.5938136 0 0 1 .59376-.59413zm2.3407772 0a.5938136.5938136 0 0 1 .593759.59413.5938136.5938136 0 0 1 -.593759.59376.5938136.5938136 0 0 1 -.593761-.59376.5938136.5938136 0 0 1 .593761-.59413zm-2.3667572 1.50605a.5938136.5938136 0 0 1 .5937612.59413.5938136.5938136 0 0 1 -.5937612.59376.5938136.5938136 0 0 1 -.593759-.59376.5938136.5938136 0 0 1 .593759-.59413zm2.3407772 0a.5938136.5938136 0 0 1 .594136.59413.5938136.5938136 0 0 1 -.594136.59376.5938136.5938136 0 0 1 -.593759-.59376.5938136.5938136 0 0 1 .593759-.59413zm-2.3321162 1.50604a.5938136.5938136 0 0 1 .5937592.59414.5938136.5938136 0 0 1 -.5937592.59377.5938136.5938136 0 0 1 -.593761-.59377.5938136.5938136 0 0 1 .593761-.59414zm2.3407762 0a.5938136.5938136 0 0 1 .59376.59414.5938136.5938136 0 0 1 -.59376.59377.5938136.5938136 0 0 1 -.59376-.59377.5938136.5938136 0 0 1 .59376-.59414z" opacity="1"/></g></svg>