<?xml version="1.0" encoding="UTF-8" standalone="no"?>
<!-- Created with Inkscape (http://www.inkscape.org/) -->

<svg
   xmlns:dc="http://purl.org/dc/elements/1.1/"
   xmlns:cc="http://creativecommons.org/ns#"
   xmlns:rdf="http://www.w3.org/1999/02/22-rdf-syntax-ns#"
   xmlns:svg="http://www.w3.org/2000/svg"
   xmlns="http://www.w3.org/2000/svg"
   xmlns:sodipodi="http://sodipodi.sourceforge.net/DTD/sodipodi-0.dtd"
   xmlns:inkscape="http://www.inkscape.org/namespaces/inkscape"
   width="50"
   height="50"
   viewBox="0 0 13.229166 13.229167"
   version="1.1"
   id="svg1579"
   sodipodi:docname="Capahouse960.svg"
   inkscape:version="0.92.4 (5da689c313, 2019-01-14)">
  <defs
     id="defs1573">
    <inkscape:path-effect
       effect="mirror_symmetry"
       start_point="-15.691712,-45.362002"
       end_point="-15.691712,4.437998"
       center_point="-15.691712,-20.462002"
       id="path-effect7365"
       is_visible="true"
       mode="free"
       discard_orig_path="false"
       fuse_paths="true"
       oposite_fuse="false" />
    <inkscape:path-effect
       effect="mirror_symmetry"
       start_point="275.14301,98.12006"
       end_point="275.14301,350.07326"
       center_point="275.14301,224.09666"
       id="path-effect4547-0"
       is_visible="true"
       mode="free"
       discard_orig_path="false"
       fuse_paths="true"
       oposite_fuse="false" />
    <inkscape:path-effect
       effect="mirror_symmetry"
       start_point="274.67636,240.21573"
       end_point="274.67636,418.88419"
       center_point="274.67636,329.54996"
       id="path-effect4551-7"
       is_visible="true"
       mode="free"
       discard_orig_path="false"
       fuse_paths="false"
       oposite_fuse="false" />
    <inkscape:path-effect
       effect="mirror_symmetry"
       start_point="273.50283,331.92091"
       end_point="273.50283,477.30227"
       center_point="273.50283,404.61159"
       id="path-effect4557-0"
       is_visible="true"
       mode="free"
       discard_orig_path="false"
       fuse_paths="false"
       oposite_fuse="false" />
    <inkscape:path-effect
       effect="mirror_symmetry"
       start_point="315.71788,90.192596"
       end_point="315.71788,96.192596"
       center_point="315.71788,93.192596"
       id="path-effect4669"
       is_visible="true"
       mode="free"
       discard_orig_path="false"
       fuse_paths="false"
       oposite_fuse="false" />
    <inkscape:path-effect
       oposite_fuse="false"
       fuse_paths="false"
       discard_orig_path="false"
       mode="free"
       is_visible="true"
       id="path-effect4802"
       center_point="316.91112,93.060013"
       end_point="316.91112,96.060013"
       start_point="316.91112,90.060013"
       effect="mirror_symmetry" />
  </defs>
  <sodipodi:namedview
     id="base"
     pagecolor="#ffffff"
     bordercolor="#666666"
     borderopacity="1.0"
     inkscape:pageopacity="0.0"
     inkscape:pageshadow="2"
     inkscape:zoom="5.6"
     inkscape:cx="-2.8687909"
     inkscape:cy="30.302752"
     inkscape:document-units="px"
     inkscape:current-layer="layer1"
     showgrid="false"
     units="px"
     showguides="true"
     inkscape:window-width="1920"
     inkscape:window-height="1017"
     inkscape:window-x="1912"
     inkscape:window-y="-8"
     inkscape:window-maximized="1"
     inkscape:lockguides="true" />
  <metadata
     id="metadata1576">
    <rdf:RDF>
      <cc:Work
         rdf:about="">
        <dc:format>image/svg+xml</dc:format>
        <dc:type
           rdf:resource="http://purl.org/dc/dcmitype/StillImage" />
        <dc:title />
      </cc:Work>
    </rdf:RDF>
  </metadata>
  <g
     inkscape:label="Layer 1"
     inkscape:groupmode="layer"
     id="layer1"
     transform="translate(0,-283.77082)"
     style="opacity:0.98999999">
    <path
       style="opacity:1;fill:#88aa00;fill-opacity:1;stroke:none;stroke-width:0.76103193;stroke-linecap:square;stroke-linejoin:miter;stroke-miterlimit:10;stroke-dasharray:none;stroke-opacity:1;paint-order:normal"
       d="m 5.2035772,286.50494 c -1.5404084,1.20075 -6.5740726,5.75305 -4.62095377,5.75305 H 1.941649 v 4.64676 h 6.6606024 v -4.64676 h 1.4811206 c 2.021726,0 -3.2532761,-4.5523 -4.8797948,-5.75305 z m -0.3108639,2.03431 c 0.1723477,0 0.1727087,0.51725 0.1727087,0.51725 1.8096586,0.17234 2.843739,1.37902 2.7575657,4.99833 H 3.8591256 c 0,-1.45755 1.520878,-1.16603 1.4185193,-3.19888 -0.2818227,0.43931 -0.9318305,0.92047 -1.2466987,1.13038 -0.5170451,0.34468 -0.4854649,0.74905 -0.861323,0.68994 -0.1795388,-0.1627 0.2436025,-0.52411 0,-0.51723 -0.1723484,0 0.03237,0.21211 -0.1722644,0.34452 -0.1723486,0 -0.6900473,0.1727 -0.6895027,-0.68905 0,-0.34471 1.0340319,-2.06851 1.0340317,-2.06851 4e-7,0 0.3248589,-0.32754 0.3445294,-0.60292 -0.1251328,-0.17138 -0.085688,-0.3449 -0.085688,-0.51724 0.1723483,-0.17236 0.5167939,0.43066 0.5167939,0.43066 h 0.3445287 c 0,0 0.1345292,-0.3435 0.4306615,-0.51725 z m -0.8781942,1.22406 -0.2024553,0.13853 -0.211335,0.12564 c 0.04349,0.074 0.1255091,0.1173 0.2139989,0.11276 0.088509,-0.004 0.1693434,-0.0565 0.2108909,-0.13497 0.041481,-0.0784 0.037228,-0.17112 -0.011104,-0.24197 z m -0.5882749,4.32971 h 4.0766332 v 0.4764 H 7.443384 l 0.6109177,0.61047 v 1.12593 H 7.153465 v -0.45021 H 6.0275288 v 0.45021 H 4.901593 v -0.45021 H 3.7761013 v 0.45021 H 2.8752639 v -1.12593 l 0.6104738,-0.61047 h -0.059494 z"
       id="rect7553"
       inkscape:connector-curvature="0"
       sodipodi:nodetypes="csccccsccccccccccccccccccccccccccccccccccccccccccc" />
    <path
       style="fill:none;fill-opacity:0.75;fill-rule:evenodd;stroke:none;stroke-width:0.20060207;stroke-linecap:round;stroke-linejoin:miter;stroke-miterlimit:4;stroke-dasharray:none;stroke-opacity:1"
       d="m 9.4654426,292.98623 c 0.2006026,-4.01204 -1.103311,-5.51656 -2.4072253,-5.71715"
       id="path8049"
       sodipodi:nodetypes="cc"
       inkscape:connector-curvature="0" />
    <path
       inkscape:connector-curvature="0"
       style="display:inline;fill:none;fill-opacity:0.75;fill-rule:evenodd;stroke:none;stroke-width:0.39312035;stroke-linecap:butt;stroke-linejoin:miter;stroke-miterlimit:4;stroke-dasharray:none;stroke-opacity:1"
       d="M 8.9870183,293.03239 H 5.0558154"
       id="path4590"
       sodipodi:nodetypes="cc" />
    <path
       style="opacity:1;fill:#88aa00;fill-opacity:0.99215686;stroke:none;stroke-width:0.19277427;stroke-linecap:round;stroke-linejoin:round;stroke-miterlimit:4;stroke-dasharray:none;stroke-opacity:1;paint-order:normal"
       d="m 10.590367,283.87523 c -1.0926122,0 -2.1850432,0.0834 -2.3513202,0.24962 -0.332552,0.33256 -0.332552,4.37047 0,4.70302 0.332553,0.33255 4.3704632,0.33255 4.7030152,0 0.332553,-0.33255 0.332553,-4.37046 0,-4.70302 -0.166276,-0.16627 -1.259083,-0.24962 -2.351695,-0.24962 z m -1.1573992,0.51055 a 0.5938136,0.5938136 0 0 1 0.5937602,0.59413 0.5938136,0.5938136 0 0 1 -0.5937602,0.59376 0.5938136,0.5938136 0 0 1 -0.59376,-0.59376 0.5938136,0.5938136 0 0 1 0.59376,-0.59413 z m 2.3407772,0 a 0.5938136,0.5938136 0 0 1 0.593759,0.59413 0.5938136,0.5938136 0 0 1 -0.593759,0.59376 0.5938136,0.5938136 0 0 1 -0.593761,-0.59376 0.5938136,0.5938136 0 0 1 0.593761,-0.59413 z m -2.3667572,1.50605 a 0.5938136,0.5938136 0 0 1 0.5937612,0.59413 0.5938136,0.5938136 0 0 1 -0.5937612,0.59376 0.5938136,0.5938136 0 0 1 -0.593759,-0.59376 0.5938136,0.5938136 0 0 1 0.593759,-0.59413 z m 2.3407772,0 a 0.5938136,0.5938136 0 0 1 0.594136,0.59413 0.5938136,0.5938136 0 0 1 -0.594136,0.59376 0.5938136,0.5938136 0 0 1 -0.593759,-0.59376 0.5938136,0.5938136 0 0 1 0.593759,-0.59413 z m -2.3321162,1.50604 a 0.5938136,0.5938136 0 0 1 0.5937592,0.59414 0.5938136,0.5938136 0 0 1 -0.5937592,0.59377 0.5938136,0.5938136 0 0 1 -0.593761,-0.59377 0.5938136,0.5938136 0 0 1 0.593761,-0.59414 z m 2.3407762,0 a 0.5938136,0.5938136 0 0 1 0.59376,0.59414 0.5938136,0.5938136 0 0 1 -0.59376,0.59377 0.5938136,0.5938136 0 0 1 -0.59376,-0.59377 0.5938136,0.5938136 0 0 1 0.59376,-0.59414 z"
       id="path839"
       inkscape:connector-curvature="0" />
  </g>
</svg>
