<svg
   xmlns="http://www.w3.org/2000/svg"
   width="50"
   height="50"
   viewBox="0 0 13.229166 13.229167"
   version="1.1"
   id="svg1579">
  <g
     id="layer1"
     transform="translate(0,-283.77082)"
     style="opacity:0.98999999;fill:#000000;fill-opacity:1;stroke:none;stroke-width:0.02645833;stroke-miterlimit:4;stroke-dasharray:none;stroke-opacity:1">
    <g
       id="g20889"
       transform="translate(-0.05140821,-0.2198037)"
       style="fill:#000000;fill-opacity:1;stroke:none;stroke-width:0.02645833;stroke-miterlimit:4;stroke-dasharray:none;stroke-opacity:1">
      <path
         style="fill:#000000;fill-opacity:1;fill-rule:evenodd;stroke:none;stroke-width:0.09999999;stroke-miterlimit:4;stroke-dasharray:none;stroke-opacity:1"
         d="m 23.078125,2.453125 c -1.719447,1.0087937 -2.501953,3.0039062 -2.501953,3.0039062 h -2.001953 c 0,0 -1.999286,-3.5046495 -3,-2.5039062 0,1.0006677 -0.22852,2.0088322 0.498047,3.0039062 -0.114214,1.598967 -2.001954,3.5019532 -2.001954,3.5019532 0,0 -6.0019526,10.0083546 -6.0019526,12.0097656 -0.00316,5.003603 3.0012386,4.001953 4.0019526,4.001953 1.18818,-0.768831 0.0012,-2.001953 1.001954,-2.001953 1.414439,-0.03779 -1.042466,2.059176 0,3.003906 2.18236,0.343181 1.997857,-2.004486 5,-4.005859 1.734118,-1.156097 5.212086,-3.729249 6.96289,-6.167969 C 26.852766,30.436523 17,26.058045 17,35 h -2 l -0.01367,2.912109 -3.125,3.097657 v 6.537109 h 5.230469 v -2.615234 h 6.537109 v 2.615234 h 6.53711 v -2.615234 h 6.537109 v 2.615234 h 5.228516 V 41.009766 L 39,38 v -3 h 1 C 40.500353,13.985033 34.507505,7.0007433 24,6 24,6 24.078837,2.453125 23.078125,2.453125 Z m -5.101563,7.1054688 c 0.281583,0.4115905 0.305731,0.9503252 0.06445,1.4062502 -0.241376,0.456756 -0.709968,0.756406 -1.22461,0.783203 -0.513931,0.02646 -0.990329,-0.225573 -1.242187,-0.65625 l 1.226562,-0.728516 z"
         transform="matrix(0.26458333,0,0,0.26458333,0.05140821,283.99062)"
         id="path3127"
         inkscape:connector-curvature="0" />
      <g
         transform="matrix(0.34591669,0,0,0.34591669,-0.61514007,282.68907)"
         id="g3476"
         style="fill:#000000;fill-opacity:1;stroke:none;stroke-width:0.07648759;stroke-miterlimit:4;stroke-dasharray:none;stroke-opacity:1" />
    </g>
  </g>
</svg>
