<?xml version="1.0" encoding="UTF-8" standalone="no"?>
<svg
   xmlns:dc="http://purl.org/dc/elements/1.1/"
   xmlns:cc="http://creativecommons.org/ns#"
   xmlns:rdf="http://www.w3.org/1999/02/22-rdf-syntax-ns#"
   xmlns:svg="http://www.w3.org/2000/svg"
   xmlns="http://www.w3.org/2000/svg"
   xmlns:sodipodi="http://sodipodi.sourceforge.net/DTD/sodipodi-0.dtd"
   xmlns:inkscape="http://www.inkscape.org/namespaces/inkscape"
   inkscape:export-ydpi="365.56299"
   inkscape:export-xdpi="365.56299"
   inkscape:export-filename="D:\Pictures\Chess Variants\Favicons\Grand.png"
   inkscape:version="1.0.1 (3bc2e813f5, 2020-09-07)"
   sodipodi:docname="Chak.svg"
   id="svg1579"
   version="1.1"
   viewBox="0 0 13.229166 13.229167"
   height="50"
   width="50">
  <defs
     id="defs1573">
    <inkscape:path-effect
       oposite_fuse="false"
       fuse_paths="true"
       discard_orig_path="false"
       mode="free"
       is_visible="true"
       id="path-effect7365"
       center_point="-15.691712,-20.462002"
       end_point="-15.691712,4.437998"
       start_point="-15.691712,-45.362002"
       effect="mirror_symmetry" />
    <inkscape:path-effect
       oposite_fuse="false"
       fuse_paths="true"
       discard_orig_path="false"
       mode="free"
       is_visible="true"
       id="path-effect4547-0"
       center_point="275.14301,224.09666"
       end_point="275.14301,350.07326"
       start_point="275.14301,98.12006"
       effect="mirror_symmetry" />
    <inkscape:path-effect
       oposite_fuse="false"
       fuse_paths="false"
       discard_orig_path="false"
       mode="free"
       is_visible="true"
       id="path-effect4551-7"
       center_point="274.67636,329.54996"
       end_point="274.67636,418.88419"
       start_point="274.67636,240.21573"
       effect="mirror_symmetry" />
    <inkscape:path-effect
       oposite_fuse="false"
       fuse_paths="false"
       discard_orig_path="false"
       mode="free"
       is_visible="true"
       id="path-effect4557-0"
       center_point="273.50283,404.61159"
       end_point="273.50283,477.30227"
       start_point="273.50283,331.92091"
       effect="mirror_symmetry" />
    <inkscape:path-effect
       oposite_fuse="false"
       fuse_paths="false"
       discard_orig_path="false"
       mode="free"
       is_visible="true"
       id="path-effect4669"
       center_point="315.71788,93.192596"
       end_point="315.71788,96.192596"
       start_point="315.71788,90.192596"
       effect="mirror_symmetry" />
    <inkscape:path-effect
       effect="mirror_symmetry"
       start_point="316.91112,90.060013"
       end_point="316.91112,96.060013"
       center_point="316.91112,93.060013"
       id="path-effect4802"
       is_visible="true"
       mode="free"
       discard_orig_path="false"
       fuse_paths="false"
       oposite_fuse="false" />
    <linearGradient
       gradientUnits="userSpaceOnUse"
       y2="37.469002"
       x2="77.639999"
       y1="37.591999"
       x1="21.253"
       id="0"
       gradientTransform="matrix(0.27867357,0,0,0.27867357,-0.3072497,283.2508)">
      <stop
         id="stop15223"
         stop-color="#fff" />
      <stop
         id="stop15225"
         stop-opacity="0"
         stop-color="#fff"
         offset="1" />
    </linearGradient>
    <inkscape:path-effect
       effect="mirror_symmetry"
       start_point="-103.61098,-3.3341899"
       end_point="-103.61098,147.39645"
       center_point="-103.61098,72.03113"
       id="path-effect4256"
       is_visible="true"
       lpeversion="1"
       mode="free"
       discard_orig_path="false"
       fuse_paths="true"
       oposite_fuse="false"
       split_items="false" />
  </defs>
  <sodipodi:namedview
     inkscape:document-rotation="0"
     inkscape:lockguides="true"
     inkscape:window-maximized="1"
     inkscape:window-y="-12"
     inkscape:window-x="-12"
     inkscape:window-height="2050"
     inkscape:window-width="3840"
     showguides="true"
     units="px"
     showgrid="false"
     inkscape:current-layer="layer1"
     inkscape:document-units="px"
     inkscape:cy="24.384033"
     inkscape:cx="27.349409"
     inkscape:zoom="3.959798"
     inkscape:pageshadow="2"
     inkscape:pageopacity="0.0"
     borderopacity="1.0"
     bordercolor="#666666"
     pagecolor="#ffffff"
     id="base" />
  <metadata
     id="metadata1576">
    <rdf:RDF>
      <cc:Work
         rdf:about="">
        <dc:format>image/svg+xml</dc:format>
        <dc:type
           rdf:resource="http://purl.org/dc/dcmitype/StillImage" />
        <dc:title></dc:title>
      </cc:Work>
    </rdf:RDF>
  </metadata>
  <g
     style="opacity:0.98999999"
     transform="translate(0,-283.77082)"
     id="layer1"
     inkscape:groupmode="layer"
     inkscape:label="Layer 1">
    <path
       id="path1542"
       style="fill:#9d67ad;fill-opacity:0.99215698;stroke-width:0.0236728"
       d="m 5.5177669,284.32243 c -0.409167,0.005 -0.739639,0.0153 -0.924678,0.0316 -0.214785,0.0192 -0.545044,0.0409 -0.733826,0.0496 -0.537685,0.0243 -0.850035,0.10988 -1.362151,0.37431 -0.597095,0.30833 -1.192474,0.81216 -1.45825,1.2338 -0.11208295,0.17774 -0.30504895,0.58066 -0.37968095,0.79296 -0.100058,0.28484 -0.159158,0.94273 -0.163969,1.83458 -0.0017,0.31249 0.005,0.64825 0.0121,0.74591 0.03007,0.33102 0.110418,0.97705 0.146497,1.1814 0.01924,0.11183 0.04534,0.26169 0.05713,0.3333 0.04354,0.26273 0.123734,0.51678 0.261409,0.82724 0.23835795,0.53784 0.47153095,0.85742 0.81581395,1.11755 0.167403,0.12653 0.628147,0.3403 0.942149,0.43747 0.507666,0.15705 0.574187,0.17391 0.926694,0.23453 0.195302,0.0337 0.419162,0.0776 0.497282,0.0981 0.305437,0.0796 0.719559,0.0966 2.460206,0.0995 1.028155,0.001 1.787611,-0.008 1.917228,-0.0215 h 0.0013 c 0.42979,-0.0487 0.981668,-0.1529 1.386346,-0.26275 0.09765,-0.0265 0.2362211,-0.0623 0.3077781,-0.0793 0.657774,-0.15778 1.284983,-0.47355 1.499914,-0.75533 0.03415,-0.0447 0.0759,-0.0953 0.09273,-0.11288 0.135892,-0.14022 0.45258,-0.74454 0.57053,-1.08865 0.124344,-0.36269 0.249519,-1.14289 0.320544,-1.99719 0.04979,-0.59999 0.01645,-1.69975 -0.06652,-2.24851 -0.0469,-0.30743 -0.173881,-0.78807 -0.251331,-0.94821 -0.138056,-0.28597 -0.560452,-0.76768 -0.85949,-0.98112 -0.08202,-0.0586 -0.209506,-0.15109 -0.283585,-0.20497 -0.135414,-0.0986 -0.623697,-0.38706 -0.655205,-0.38706 -0.0097,0 -0.05051,-0.0145 -0.09139,-0.0316 -0.29428,-0.12484 -0.442259,-0.1542 -0.9623121,-0.1922 -0.8579,-0.0628 -2.795783,-0.0956 -4.023286,-0.0807 z m 1.252617,0.93745 c 1.616756,-0.002 2.238742,0.0643 2.934638,0.31247 0.5904551,0.2107 0.9807891,0.46615 1.2485851,0.81784 0.07817,0.10273 0.260001,0.40645 0.31181,0.5208 0.07986,0.17631 0.172292,0.49314 0.207651,0.71031 0.06085,0.37405 0.05496,1.37837 -0.0121,1.87018 -0.164755,1.2289 -0.425526,1.85953 -0.924004,2.23174 -0.04762,0.0356 -0.104891,0.0808 -0.127011,0.10077 -0.0861,0.0775 -0.402808,0.23639 -0.7183711,0.36087 -0.436931,0.17221 -1.175288,0.36602 -1.819787,0.47779 -0.258155,0.0447 -1.360549,0.0662 -1.917227,0.0369 h -0.0021 c -0.784801,-0.0415 -1.663787,-0.2117 -2.152429,-0.41597 -0.03896,-0.0167 -0.118948,-0.0454 -0.177408,-0.0651 -0.229939,-0.077 -0.707832,-0.32411 -0.887718,-0.45897 -0.379947,-0.28485 -0.61598,-0.65936 -0.784899,-1.24523 -0.08779,-0.30481 -0.09987,-0.37146 -0.172033,-0.97574 -0.105347,-0.88242 -0.1021,-1.38563 0.0121,-2.02342 0.05003,-0.27642 0.08256,-0.38206 0.19152,-0.61555 0.275375,-0.59098 0.739702,-1.02578 1.331911,-1.24791 0.873956,-0.32776 1.415057,-0.38933 3.45679,-0.39178 z m 0.689475,0.3024 c -0.315503,-0.004 -0.683367,-0.004 -1.125606,6.7e-4 -0.754945,0.008 -1.416017,0.0218 -1.468329,0.0336 -0.0522,0.0117 -0.174607,0.0276 -0.272164,0.0363 -0.216465,0.0192 -0.731573,0.11521 -0.962978,0.17942 -0.213341,0.0594 -0.481111,0.18245 -0.635045,0.29232 -0.166198,0.1186 -0.519509,0.47522 -0.618242,0.62363 -0.319486,0.48034 -0.419211,1.0892 -0.364229,2.23037 0.02718,0.56559 0.06711,0.89011 0.15322,1.2432 0.162832,0.66779 0.426556,1.13432 0.758019,1.34133 0.297957,0.18616 0.728008,0.38128 1.08932,0.49459 0.130121,0.0408 0.247052,0.0775 0.260065,0.0819 0.05576,0.0191 0.152224,0.009 0.153216,-0.0148 -5.19e-4,-0.015 -0.06414,-0.0962 -0.142464,-0.18279 -0.145034,-0.15994 -0.323824,-0.48481 -0.373635,-0.67872 -0.04306,-0.16764 -0.05647,-0.4451 -0.03023,-0.63236 0.02885,-0.20756 0.142453,-0.55559 0.21437,-0.65654 0.0267,-0.0374 0.04857,-0.077 0.04905,-0.0881 0.0024,-0.0731 0.27155,-0.29088 0.488549,-0.39649 0.2854,-0.13877 0.898456,-0.30811 1.293606,-0.3575 0.126269,-0.0168 0.141422,-0.0245 0.202273,-0.11496 0.103185,-0.15296 0.347423,-0.58635 0.382371,-0.67805 0.01684,-0.0455 0.03988,-0.0937 0.04973,-0.10685 0.0097,-0.0117 0.04128,-0.0874 0.06988,-0.16531 0.02863,-0.0779 0.07056,-0.18459 0.09341,-0.23654 0.02165,-0.052 0.05282,-0.13196 0.06652,-0.17742 0.12675,-0.42123 0.143396,-0.4548 0.201602,-0.40656 0.01924,0.0167 0.04327,0.075 0.05242,0.12965 0.0445,0.2661 0.26407,0.88144 0.432098,1.21163 0.07191,0.14142 0.204664,0.33198 0.320546,0.46031 0.07864,0.0869 0.09915,0.096 0.304419,0.13306 0.244751,0.0442 0.657676,0.17437 0.823206,0.25939 0.233063,0.11977 0.566845,0.45893 0.673347,0.68411 0.123382,0.26099 0.175597,0.61214 0.12701,0.85412 -0.05556,0.27685 -0.122134,0.48221 -0.219075,0.67333 -0.08754,0.1727 -0.132674,0.30514 -0.108869,0.31988 0.04835,0.0297 0.6365841,-0.22442 0.8346281,-0.36086 0.258008,-0.17776 0.617933,-0.64632 0.685446,-0.89242 0.01443,-0.0519 0.04684,-0.15905 0.07257,-0.23721 0.05484,-0.16741 0.07426,-0.26553 0.137761,-0.71569 0.02621,-0.18543 0.06422,-0.41969 0.08467,-0.52082 0.05051,-0.25142 0.07367,-1.24042 0.03495,-1.49117 -0.03391,-0.21983 -0.125802,-0.51236 -0.218403,-0.69552 -0.03704,-0.0731 -0.06721,-0.14157 -0.06721,-0.1512 0,-0.0337 -0.210931,-0.30841 -0.348098,-0.45359 -0.341059,-0.36104 -0.6394031,-0.53104 -1.1551751,-0.65791 -0.579146,-0.1425 -1.052035,-0.20062 -1.998541,-0.21369 z m 1.355433,1.48311 c 0.113304,-0.008 0.230318,0.0285 0.346753,0.10816 0.383847,0.26267 0.298733,0.75621 -0.158593,0.9193 -0.116893,0.0416 -0.207462,0.0403 -0.338688,-0.005 v 6.8e-4 c -0.13325,-0.0456 -0.300683,-0.20561 -0.331299,-0.31585 -0.05773,-0.2078 -0.0013,-0.40561 0.15792,-0.55374 0.101134,-0.0942 0.210596,-0.14563 0.323907,-0.15321 z m -3.73903,0.11899 c 0.156096,-0.008 0.175983,-0.002 0.280225,0.0672 0.202759,0.1354 0.273102,0.30219 0.225793,0.53761 -0.06037,0.30097 -0.44206,0.47658 -0.741218,0.34071 -0.126036,-0.0572 -0.215622,-0.1676 -0.258724,-0.31853 -0.05917,-0.20733 0.02518,-0.41098 0.229155,-0.5524 0.07913,-0.0548 0.126854,-0.0679 0.264769,-0.0746 z m 3.814295,0.0955 c -0.111718,-0.0109 -0.230277,0.0248 -0.305765,0.1095 -0.06543,0.0736 -0.07877,0.26329 -0.02418,0.34676 0.101264,0.15464 0.312281,0.2005 0.461668,0.10012 0.137097,-0.0923 0.196796,-0.26927 0.133057,-0.39514 -0.04858,-0.096 -0.153057,-0.15119 -0.264768,-0.16127 z m -3.85327,0.11354 c -0.0857,5e-4 -0.166357,0.0365 -0.228484,0.10685 -0.09813,0.11183 -0.110041,0.1751 -0.05375,0.2856 0.102458,0.20084 0.249783,0.25262 0.465698,0.16331 v 6.6e-4 c 0.117375,-0.0486 0.162044,-0.11717 0.163968,-0.25199 0.0015,-0.11132 -0.0051,-0.1264 -0.09072,-0.20027 -0.08068,-0.0697 -0.171016,-0.10468 -0.256705,-0.10414 z m 1.922601,0.55777 c -0.01443,-0.0144 -0.04544,0.0307 -0.08198,0.11287 -0.03296,0.0744 -0.05914,0.13981 -0.05914,0.14583 0,0.0471 -0.232111,0.5098 -0.329282,0.65655 -0.06662,0.10055 -0.120964,0.19307 -0.120964,0.2063 0,0.0167 0.185441,0.0249 0.5329,0.0249 0.387645,0 0.532896,-0.008 0.532896,-0.0276 0,-0.0144 -0.04156,-0.0817 -0.09206,-0.14785 -0.123148,-0.16162 -0.257641,-0.47536 -0.314501,-0.73584 -0.0255,-0.11718 -0.05584,-0.22316 -0.06787,-0.2352 z m 0.03428,1.41724 c -0.362494,-0.001 -0.754199,0.004 -0.917287,0.0148 -0.17149,0.0117 -0.370548,0.0376 -0.442176,0.0558 -0.07168,0.0192 -0.215131,0.0553 -0.319204,0.0827 -0.298869,0.0782 -0.602645,0.24101 -0.791621,0.42472 -0.181834,0.17678 -0.238169,0.27361 -0.297695,0.51206 -0.06902,0.27599 -0.0094,0.75587 0.124995,1.01943 0.143348,0.27974 0.468937,0.67495 0.623619,0.75667 0.106552,0.0564 0.54207,0.13522 0.897125,0.16263 0.05868,0.005 0.473463,0.005 0.922661,0.002 0.604114,-0.005 0.878579,-0.0166 1.053702,-0.0436 v -6.7e-4 c 0.130122,-0.0216 0.396756,-0.0691 0.592035,-0.10751 l 0.354817,-0.0698 0.118949,-0.12965 c 0.336823,-0.36772 0.56294,-1.07577 0.487871,-1.52814 -0.03222,-0.19386 -0.182381,-0.4598 -0.358176,-0.63437 -0.239078,-0.23763 -0.637024,-0.41433 -1.031527,-0.45831 -0.122186,-0.0144 -0.245818,-0.0314 -0.275521,-0.039 -0.04666,-0.0117 -0.380072,-0.0191 -0.742562,-0.0202 z m -0.151874,1.20962 c 0.282805,7.1e-4 0.400217,0.0429 0.504677,0.18211 0.07769,0.1036 0.09444,0.16849 0.07593,0.29231 -0.03344,0.2232 -0.246654,0.36317 -0.57725,0.37768 -0.112563,0.005 -0.225954,0.005 -0.252004,-0.002 v -6.9e-4 c -0.151044,-0.037 -0.265564,-0.11209 -0.318529,-0.20899 -0.121939,-0.22319 -0.04042,-0.45787 0.202273,-0.58128 0.102458,-0.0521 0.145759,-0.0593 0.364899,-0.0585 z m 0.0061,0.18344 c -0.05748,2.4e-4 -0.118077,0.008 -0.179424,0.0263 -0.144073,0.0419 -0.205635,0.10989 -0.205635,0.22848 0,0.0934 0.112238,0.20493 0.219746,0.21841 0.177985,0.0217 0.304395,0.0145 0.38237,-0.0215 v -6.8e-4 c 0.09645,-0.0459 0.135111,-0.134 0.114917,-0.25871 -0.0193,-0.11938 -0.159551,-0.19288 -0.331969,-0.1922 z m -4.642874,2.86006 c -0.08982,0.004 -0.1809,0.0232 -0.292993,0.0585 -0.244538,0.0764 -0.401095,0.15913 -0.465701,0.24661 -0.166438,0.22513 -0.279577,0.58132 -0.301728,0.94754 -0.01443,0.22584 -0.01,0.26282 0.04502,0.42068 0.09549,0.2738 0.291284,0.49667 0.638405,0.72912 0.159224,0.10675 0.416134,0.22243 0.494594,0.22243 0.02165,0 0.04677,0.009 0.05375,0.0215 0.02165,0.036 0.752574,0.15791 0.984484,0.16465 0.04547,0.001 0.146954,-0.0117 0.225122,-0.0289 l 6.71e-4,-6.8e-4 c 0.231623,-0.0518 0.462448,-0.17461 0.6001,-0.31987 0.244056,-0.25753 0.324453,-0.5888 0.349443,-1.44078 0.01924,-0.65611 0.03517,-0.61312 -0.229154,-0.62563 l -0.151872,-0.008 -0.01479,0.41395 c -0.0072,0.22776 -0.02652,0.48878 -0.04167,0.57994 -0.02741,0.16403 -0.158231,0.47886 -0.2352,0.56583 -0.220797,0.2493 -0.878386,0.38062 -1.286215,0.2567 -0.23234,-0.0708 -0.314346,-0.11652 -0.462338,-0.25535 -0.1561,-0.14649 -0.221619,-0.28895 -0.220416,-0.48385 0.0025,-0.40575 0.171727,-0.67168 0.467713,-0.73517 0.270033,-0.058 0.513395,0.1091 0.399172,0.27418 -0.08923,0.12886 -0.04754,0.24316 0.07729,0.21235 0.08129,-0.0192 0.210438,-0.14609 0.252671,-0.24595 0.0445,-0.10588 0.04292,-0.35522 -0.0047,-0.51543 -0.03102,-0.10675 -0.05859,-0.14514 -0.157922,-0.22378 -0.139501,-0.11041 -0.228459,-0.15033 -0.437473,-0.19891 -0.108115,-0.025 -0.196454,-0.0364 -0.286272,-0.0322 z m 8.7084981,0.004 c -0.255266,0.0144 -0.4201,0.0774 -0.608164,0.22984 -0.134454,0.10897 -0.147883,0.12887 -0.173378,0.25199 -0.03415,0.165 -0.03571,0.37783 -0.0027,0.46302 0.01443,0.0351 0.06392,0.10729 0.111548,0.15993 0.07577,0.0838 0.09911,0.0961 0.188834,0.0961 0.130119,0 0.14748,-0.0301 0.07124,-0.12094 -0.142388,-0.16932 -0.0094,-0.37668 0.24192,-0.37631 0.169806,2.7e-4 0.271894,0.0455 0.396484,0.17606 0.143107,0.1501 0.187783,0.28954 0.183456,0.56986 -0.0048,0.24214 -0.03979,0.32349 -0.217057,0.49258 -0.227053,0.2167 -0.427699,0.28343 -0.854792,0.28493 -0.3381471,0.001 -0.5016441,-0.031 -0.6820831,-0.13238 -0.165237,-0.0931 -0.227575,-0.15761 -0.31315,-0.32728 -0.115204,-0.22824 -0.147475,-0.41073 -0.162627,-0.9213 l -0.01411,-0.46168 h -0.153916 c -0.265777,6.3e-4 -0.246762,-0.0508 -0.229155,0.61221 0.02838,1.07268 0.168667,1.44508 0.62698,1.66321 0.290815,0.13853 0.371072,0.14652 0.8803251,0.0908 0.17582,-0.0192 0.389148,-0.0494 0.473764,-0.0672 0.185442,-0.0393 0.485289,-0.14799 0.571877,-0.20764 0.03463,-0.0241 0.07203,-0.0436 0.08332,-0.0436 0.01197,0 0.0948,-0.059 0.185472,-0.13103 0.373364,-0.2963 0.55575,-0.60913 0.55575,-0.95358 0,-0.42479 -0.134221,-0.86404 -0.329283,-1.0779 -0.07913,-0.0865 -0.147989,-0.12184 -0.41261,-0.20966 -0.192897,-0.064 -0.238895,-0.0703 -0.417986,-0.0598 z m -7.4746981,0.27754 c -0.03776,-10e-6 -0.0374,0.015 0.0047,0.15657 0.06302,0.20782 0.03363,0.51786 -0.06787,0.71434 -0.05172,0.10002 -0.270701,0.28563 -0.369603,0.31317 -0.188806,0.0527 -0.418495,0.008 -0.471745,-0.0914 -0.03607,-0.0677 -0.03195,-0.20343 0.0093,-0.30307 0.04811,-0.11496 0.04703,-0.11925 -0.04098,-0.13306 -0.109443,-0.0168 -0.177882,0.0359 -0.247297,0.19218 -0.07938,0.17872 -0.09732,0.37202 -0.04368,0.47579 0.08128,0.15729 0.289341,0.28685 0.545667,0.34002 0.180391,0.0374 0.29063,0.0329 0.473091,-0.0215 l 0.0013,6.7e-4 c 0.179913,-0.0525 0.394196,-0.18069 0.440836,-0.26409 0.0635,-0.11353 0.134786,-0.37637 0.178082,-0.65722 0.04258,-0.27472 0.02942,-0.39435 -0.05645,-0.52551 -0.03752,-0.0572 -0.289369,-0.1969 -0.355488,-0.1969 z m 6.37328,0.004 c -0.01924,-0.0192 -0.189876,0.0415 -0.273504,0.0968 -0.0445,0.0297 -0.106063,0.10447 -0.137089,0.16665 -0.05436,0.10963 -0.05511,0.12029 -0.0289,0.36692 0.03777,0.35718 0.125646,0.66828 0.223777,0.79296 0.01684,0.0241 0.08476,0.0693 0.148513,0.10349 0.2788581,0.15056 0.5421141,0.1844 0.8205181,0.10479 0.324364,-0.0928 0.513653,-0.30772 0.478465,-0.5423 -0.02405,-0.16091 -0.103088,-0.35378 -0.161282,-0.39447 -0.02814,-0.0192 -0.09607,-0.0356 -0.15187,-0.0356 -0.12194,0 -0.128753,0.0304 -0.03831,0.16732 0.05796,0.0873 0.06025,0.10219 0.03426,0.18884 -0.06518,0.21719 -0.417427,0.25498 -0.665286,0.0719 -0.1789451,-0.13228 -0.2479061,-0.24849 -0.2983661,-0.50535 -0.03969,-0.2025 -0.03991,-0.21057 0.0093,-0.38909 0.02766,-0.10023 0.04567,-0.18684 0.03965,-0.19286 z m -1.685381,0.19019 c -0.09187,-0.005 -0.219081,0.001 -0.282244,0.0117 l -0.114917,0.0189 -0.01479,0.26007 c -0.01924,0.31159 -0.06315,0.47852 -0.180769,0.66931 -0.109429,0.17748 -0.187956,0.24298 -0.383712,0.31987 -0.433828,0.17029 -0.703856,0.17338 -1.05908,0.0117 -0.217187,-0.0983 -0.302249,-0.16973 -0.39581,-0.32929 -0.122667,-0.20925 -0.187186,-0.4669 -0.172033,-0.68881 0.01684,-0.2618 0.01475,-0.26565 -0.314497,-0.26678 l -0.266115,-0.001 -0.03292,0.11899 c -0.04762,0.17173 -0.065,0.72929 -0.03495,1.11216 0.03703,0.47239 0.08714,0.61732 0.274851,0.79028 0.271764,0.25052 0.80808,0.36564 1.610122,0.3454 0.195301,-0.005 0.419161,-0.0212 0.497281,-0.0356 l -0.0013,0.002 c 0.385313,-0.0738 0.674688,-0.16498 0.674688,-0.21236 0,-0.009 0.02566,-0.0245 0.05645,-0.0323 0.08539,-0.0216 0.216162,-0.18195 0.273504,-0.33532 0.07697,-0.20565 0.104608,-0.4682 0.104836,-0.99323 1.9e-4,-0.34423 -0.0097,-0.51227 -0.03562,-0.61556 l -0.03562,-0.14178 z m -0.967015,0.0249 c -0.09295,0.0117 -0.12835,0.0666 -0.12835,0.18077 0,0.14118 -0.0378,0.253 -0.113565,0.33801 -0.183513,0.20611 -0.499686,0.17791 -0.652514,-0.0578 -0.05123,-0.079 -0.0625,-0.12484 -0.0625,-0.24528 0,-0.17799 -0.02399,-0.19758 -0.232513,-0.19758 -0.17005,0 -0.177933,0.0117 -0.157247,0.2473 0.01924,0.21889 0.09394,0.44885 0.177407,0.54365 0.07191,0.0818 0.2709,0.19927 0.388419,0.22982 0.03992,0.009 0.168444,0.0148 0.285603,0.0117 0.189528,-0.008 0.228446,-0.0169 0.354817,-0.086 0.187365,-0.10359 0.220278,-0.13377 0.283583,-0.26007 0.08346,-0.16669 0.153123,-0.58895 0.108871,-0.66058 -0.0097,-0.0144 -0.07201,-0.0337 -0.139107,-0.0416 -0.04444,-0.005 -0.08191,-0.007 -0.112901,-0.002 z m -0.376993,0.0182 c -0.08586,0 -0.09539,0.0147 -0.112225,0.16597 -0.0048,0.0411 -0.02154,0.0592 -0.05375,0.0592 -0.03847,0 -0.04951,-0.0189 -0.05913,-0.1061 -0.01197,-0.1036 -0.01442,-0.10685 -0.09475,-0.10685 -0.0825,0 -0.08284,5.4e-4 -0.09006,0.11691 -0.0097,0.16474 0.0094,0.221 0.09677,0.27417 0.10463,0.0638 0.232543,0.0613 0.295679,-0.008 0.06779,-0.0724 0.100135,-0.16613 0.100135,-0.29097 0,-0.10415 -8.82e-4,-0.1048 -0.08265,-0.1048 z" />
  </g>
</svg>
