<?xml version="1.0" encoding="UTF-8" standalone="no"?>
<svg
   xmlns:dc="http://purl.org/dc/elements/1.1/"
   xmlns:cc="http://creativecommons.org/ns#"
   xmlns:rdf="http://www.w3.org/1999/02/22-rdf-syntax-ns#"
   xmlns:svg="http://www.w3.org/2000/svg"
   xmlns="http://www.w3.org/2000/svg"
   xmlns:sodipodi="http://sodipodi.sourceforge.net/DTD/sodipodi-0.dtd"
   xmlns:inkscape="http://www.inkscape.org/namespaces/inkscape"
   inkscape:export-ydpi="365.56299"
   inkscape:export-xdpi="365.56299"
   inkscape:export-filename="D:\Pictures\Chess Variants\Favicons\Grand.png"
   inkscape:version="1.0.1 (3bc2e813f5, 2020-09-07)"
   sodipodi:docname="Chennis.svg"
   id="svg1579"
   version="1.1"
   viewBox="0 0 13.229166 13.229167"
   height="50"
   width="50">
  <defs
     id="defs1573">
    <inkscape:path-effect
       oposite_fuse="false"
       fuse_paths="true"
       discard_orig_path="false"
       mode="free"
       is_visible="true"
       id="path-effect7365"
       center_point="-15.691712,-20.462002"
       end_point="-15.691712,4.437998"
       start_point="-15.691712,-45.362002"
       effect="mirror_symmetry" />
    <inkscape:path-effect
       oposite_fuse="false"
       fuse_paths="true"
       discard_orig_path="false"
       mode="free"
       is_visible="true"
       id="path-effect4547-0"
       center_point="275.14301,224.09666"
       end_point="275.14301,350.07326"
       start_point="275.14301,98.12006"
       effect="mirror_symmetry" />
    <inkscape:path-effect
       oposite_fuse="false"
       fuse_paths="false"
       discard_orig_path="false"
       mode="free"
       is_visible="true"
       id="path-effect4551-7"
       center_point="274.67636,329.54996"
       end_point="274.67636,418.88419"
       start_point="274.67636,240.21573"
       effect="mirror_symmetry" />
    <inkscape:path-effect
       oposite_fuse="false"
       fuse_paths="false"
       discard_orig_path="false"
       mode="free"
       is_visible="true"
       id="path-effect4557-0"
       center_point="273.50283,404.61159"
       end_point="273.50283,477.30227"
       start_point="273.50283,331.92091"
       effect="mirror_symmetry" />
    <inkscape:path-effect
       oposite_fuse="false"
       fuse_paths="false"
       discard_orig_path="false"
       mode="free"
       is_visible="true"
       id="path-effect4669"
       center_point="315.71788,93.192596"
       end_point="315.71788,96.192596"
       start_point="315.71788,90.192596"
       effect="mirror_symmetry" />
    <inkscape:path-effect
       effect="mirror_symmetry"
       start_point="316.91112,90.060013"
       end_point="316.91112,96.060013"
       center_point="316.91112,93.060013"
       id="path-effect4802"
       is_visible="true"
       mode="free"
       discard_orig_path="false"
       fuse_paths="false"
       oposite_fuse="false" />
    <linearGradient
       gradientUnits="userSpaceOnUse"
       y2="37.469002"
       x2="77.639999"
       y1="37.591999"
       x1="21.253"
       id="0"
       gradientTransform="matrix(0.27867357,0,0,0.27867357,-0.3072497,283.2508)">
      <stop
         id="stop15223"
         stop-color="#fff" />
      <stop
         id="stop15225"
         stop-opacity="0"
         stop-color="#fff"
         offset="1" />
    </linearGradient>
    <inkscape:path-effect
       effect="mirror_symmetry"
       start_point="-103.61098,-3.3341899"
       end_point="-103.61098,147.39645"
       center_point="-103.61098,72.03113"
       id="path-effect4256"
       is_visible="true"
       lpeversion="1"
       mode="free"
       discard_orig_path="false"
       fuse_paths="true"
       oposite_fuse="false"
       split_items="false" />
  </defs>
  <sodipodi:namedview
     inkscape:document-rotation="0"
     inkscape:lockguides="true"
     inkscape:window-maximized="1"
     inkscape:window-y="-12"
     inkscape:window-x="-12"
     inkscape:window-height="2050"
     inkscape:window-width="3840"
     showguides="true"
     units="px"
     showgrid="false"
     inkscape:current-layer="layer1"
     inkscape:document-units="px"
     inkscape:cy="24.384033"
     inkscape:cx="27.349409"
     inkscape:zoom="3.959798"
     inkscape:pageshadow="2"
     inkscape:pageopacity="0.0"
     borderopacity="1.0"
     bordercolor="#666666"
     pagecolor="#ffffff"
     id="base" />
  <metadata
     id="metadata1576">
    <rdf:RDF>
      <cc:Work
         rdf:about="">
        <dc:format>image/svg+xml</dc:format>
        <dc:type
           rdf:resource="http://purl.org/dc/dcmitype/StillImage" />
        <dc:title></dc:title>
      </cc:Work>
    </rdf:RDF>
  </metadata>
  <g
     style="opacity:0.98999999"
     transform="translate(0,-283.77082)"
     id="layer1"
     inkscape:groupmode="layer"
     inkscape:label="Layer 1">
    <g
       id="g2963"
       transform="matrix(0.28253929,0,0,0.28253929,0.8318516,284.60281)"
       style="fill:#9d67ae;fill-opacity:0.984314">
      <g
         id="g2961"
         style="fill:#9d67ae;fill-opacity:0.984314">
        <g
           id="g2959"
           style="fill:#9d67ae;fill-opacity:0.984314">
          <path
             style="fill:#9d67ae;fill-opacity:0.984314"
             d="M 18.546,0.079 C 13.967,0.506 9.497,2.477 5.984,5.988 c -3.513,3.51 -5.482,7.98 -5.908,12.565 5.028,0.583 10.374,3.153 14.763,7.542 4.391,4.39 6.964,9.74 7.542,14.764 4.592,-0.426 9.051,-2.396 12.567,-5.905 3.512,-3.509 5.479,-7.981 5.903,-12.565 C 35.835,21.807 30.48,19.237 26.091,14.847 21.705,10.458 19.132,5.107 18.546,0.079 Z"
             id="path2953" />
          <path
             style="fill:#9d67ae;fill-opacity:0.984314"
             d="M 40.933,19.85 C 40.784,14.815 38.792,9.827 34.954,5.984 31.114,2.141 26.12,0.156 21.085,0 c 0.566,4.397 2.901,9.122 6.815,13.037 3.914,3.915 8.633,6.246 13.033,6.813 z"
             id="path2955" />
          <path
             style="fill:#9d67ae;fill-opacity:0.984314"
             d="m 0.001,21.09 c 0.148,5.033 2.141,10.022 5.983,13.863 3.839,3.839 8.827,5.834 13.861,5.98 C 19.279,36.542 16.947,31.82 13.031,27.905 9.119,23.992 4.395,21.66 0.001,21.09 Z"
             id="path2957" />
        </g>
      </g>
    </g>
    <g
       id="g2965"
       transform="matrix(0.26458333,0,0,0.26458333,28.32755,284.83634)" />
    <g
       id="g2967"
       transform="matrix(0.26458333,0,0,0.26458333,28.32755,284.83634)" />
    <g
       id="g2969"
       transform="matrix(0.26458333,0,0,0.26458333,28.32755,284.83634)" />
    <g
       id="g2971"
       transform="matrix(0.26458333,0,0,0.26458333,28.32755,284.83634)" />
    <g
       id="g2973"
       transform="matrix(0.26458333,0,0,0.26458333,28.32755,284.83634)" />
    <g
       id="g2975"
       transform="matrix(0.26458333,0,0,0.26458333,28.32755,284.83634)" />
    <g
       id="g2977"
       transform="matrix(0.26458333,0,0,0.26458333,28.32755,284.83634)" />
    <g
       id="g2979"
       transform="matrix(0.26458333,0,0,0.26458333,28.32755,284.83634)" />
    <g
       id="g2981"
       transform="matrix(0.26458333,0,0,0.26458333,28.32755,284.83634)" />
    <g
       id="g2983"
       transform="matrix(0.26458333,0,0,0.26458333,28.32755,284.83634)" />
    <g
       id="g2985"
       transform="matrix(0.26458333,0,0,0.26458333,28.32755,284.83634)" />
    <g
       id="g2987"
       transform="matrix(0.26458333,0,0,0.26458333,28.32755,284.83634)" />
    <g
       id="g2989"
       transform="matrix(0.26458333,0,0,0.26458333,28.32755,284.83634)" />
    <g
       id="g2991"
       transform="matrix(0.26458333,0,0,0.26458333,28.32755,284.83634)" />
    <g
       id="g2993"
       transform="matrix(0.26458333,0,0,0.26458333,28.32755,284.83634)" />
  </g>
</svg>
