<svg height="50" viewBox="0 0 13.229166 13.229167" width="50" xmlns="http://www.w3.org/2000/svg"><g fill="#9d67ae" fill-opacity=".984314" opacity=".99" transform="matrix(.28253929 0 0 .28253929 .831852 .83199)"><path d="m18.546.079c-4.579.427-9.049 2.398-12.562 5.909-3.513 3.51-5.482 7.98-5.908 12.565 5.028.583 10.374 3.153 14.763 7.542 4.391 4.39 6.964 9.74 7.542 14.764 4.592-.426 9.051-2.396 12.567-5.905 3.512-3.509 5.479-7.981 5.903-12.565-5.016-.582-10.371-3.152-14.76-7.542-4.386-4.389-6.959-9.74-7.545-14.768z"/><path d="m40.933 19.85c-.149-5.035-2.141-10.023-5.979-13.866-3.84-3.843-8.834-5.828-13.869-5.984.566 4.397 2.901 9.122 6.815 13.037s8.633 6.246 13.033 6.813z"/><path d="m.001 21.09c.148 5.033 2.141 10.022 5.983 13.863 3.839 3.839 8.827 5.834 13.861 5.98-.566-4.391-2.898-9.113-6.814-13.028-3.912-3.913-8.636-6.245-13.03-6.815z"/></g></svg>