<svg height="50" viewBox="0 0 13.229166 13.229167" width="50" xmlns="http://www.w3.org/2000/svg"><path d="m10.96875 3.0332031c-.178002 2.6931402.196182 5.3139254 1.123047 7.8554689-.303339.303307-.543008.561786-.730469.785156-.161155.195855-.294639.347237-.392578.462891-.10741.106356-.242847.268878-.394531.482422-.213827.258859-.355497.454095-.435547.58789-.07163.124309-.2233441.365174-.4550782.712891-.3296561.505625-.5448956 1.025796-.6523438 1.570312-.1253367.787843-.1875 1.492621-.1875 2.117188-.1337632 1.44189-1.2591452 3.553559-3.3867188 6.318359-1.8189696 2.407748-2.7207031 4.343661-2.7207031 5.806641 0 1.024781.1348333 1.979012.4023438 2.871094.2759524.892157.8461763 1.773933 1.7382812 2.666015.4402632.419188 1.1450322.812254 2.1171875 1.177735.5803438.0359 1.2319315-.05403 1.9628906-.267578.5434791.998513 1.3012858 1.462189 2.2734378 1.417968.62353-.03583 1.105874-.222781 1.435547-.552734.241196-.24121.545016-.695072.892578-1.355469.66039-1.262853 1.052397-1.966701 1.177734-2.126953 1.644131-2.505676 4.323969-4.422414 8.015625-5.742188.76993-.32965 1.474702-.758516 2.117188-1.285156.07162.999534-.116973 2.106038-.5625 3.31836-.445527 1.22177-1.051263 2.228705-1.835938 3.03125-1.363964 1.409272-2.559126 2.65838-3.611328 3.728515-1.043775 1.07006-1.704518 1.881986-1.980469 2.44336-.616153 1.096441-1.04302 2.024225-1.310547 2.791015-.259122.766753-.430063 1.356203-.492187 1.775391-.107448.525581-.161418 1.212032-.169922 2.068359-.0085.847862.06451 1.275391.224609 1.275391h17.523438 10.542969 4.066406v-5.689453c0-2.338243-.08988-4.877836-.277344-7.615235-.178001-2.746885-.625167-5.358183-1.320312-7.855468-.606675-2.140196-1.417494-4.173521-2.44336-6.082032-1.01639-1.9169-2.095934-3.558535-3.246094-4.914062-1.640965-1.935874-3.629336-3.52367-5.957031-4.753906-2.340329-1.244939-4.870014-1.9489377-7.607422-2.1269535l-.0078.00781c-.820498-1.5956763-1.927022-2.8891933-3.318371-3.8613256-1.685207 1.2122835-2.817195 2.8106421-3.396485 4.78125-2.348757-2.653115-5.260762-4.5940203-8.720703-5.8242188zm16.146484 6.7246094c4.710154.9963965 9.112443 3.2978925 11.886719 7.3476565 2.051736 2.960693 3.404328 6.304741 4.289063 9.791015.606648 2.319232.917783 4.637146.935546 6.964844.02003 3.274545.05787 6.555659-.08008 9.828125-.04422.944731-.06269 1.417969-.04492 1.417969h-3.691406c-.37917-6.037266.484268-11.727246-.855468-18.208984-.824701-4.902879-3.113228-9.876366-7.580079-12.566407-1.497728-.856252-3.09409-1.569727-4.779297-2.140625-.04527-.812031.05263-1.626816-.08008-2.4335935zm-7.447265.1855469c-.11585.7309986-.134734 1.4085986-.05469 2.0332026-.40129.08961-.74744.215065-1.050781.384766-.303337.160139-.642336.339377-1.007812.535156-.525574.36567-.936611.275265-1.230469-.259765-.293858-.525619-.160381-.9368.392578-1.230469.926863-.767811 1.907398-1.257662 2.951172-1.4628906zm-4.029297 4.7968746c.374432-.000793.638931.196149.792969.583985.187479.561373.02753.945162-.498047 1.15039 0 0-.18888.09719-.572266.292969l-.002.002c.223272.347566.313476.712459.259766 1.095703-.169574 1.115604-.791684 1.577904-1.855469 1.408204-.312818-.05329-.561893-.15861-.757813-.310547-.07054.08005-.169274.276643-.3125.570312-.186427.564208-.552224.749779-1.095703.580078-.544528-.214904-.749286-.606912-.625-1.177734.785728-2.001184 2.205172-3.380031 4.25586-4.128906.149299-.0445.285345-.06614.410156-.06641zm11.609375 3.775391c.588769 0 .916659.285946.988281.865234.01791 1.962218-.579005 3.744482-1.800781 5.34961-.294911.544667-.722431.678063-1.275391.419922-.580345-.240152-.740182-.623789-.472656-1.150391.481338-.490847.926835-1.230656 1.328125-2.220703.2496-.624567.338871-1.418176.285156-2.380859-.16852-.589002.144687-.882813.947266-.882813zm-18.9746095 9.677734c.2296092.01787.4486062.127395.6582031.328125.4009231.490419.3476366.901244-.1503906 1.257813h-.00195c-.52468.259128-.8560151.668301-.99805 1.220703.017908.597203-.2855784.918987-.9101562.972656-.6603841.03477-1.0075891-.241678-1.0253907-.8125.071621-1.133291.6393362-2.050963 1.703125-2.746094.2538335-.164881.4950002-.238575.7246094-.220703zm2.7695315 3.484375c.472904 0 .73346.251062.759765.732422 0 .143244-.143641.579586-.4375 1.310547-.160618.310622-.27562.542926-.33789.703125 0 0-.002.002-.002.002-.321072.560034-.750064.667315-1.3105472.337891-.6066932-.329688-.6779889-.739697-.2050782-1.230469.1337537-.09789.2408666-.22199.3125-.365234.4729144-.990085.8731414-1.490235 1.2207034-1.490235z" fill="#70787d" fill-opacity=".992157" opacity=".99" stroke-width="1.053254" transform="scale(.26458333)"/></svg>