<?xml version="1.0" encoding="UTF-8" standalone="no"?>
<!-- Created with Inkscape (http://www.inkscape.org/) -->

<svg
   xmlns:dc="http://purl.org/dc/elements/1.1/"
   xmlns:cc="http://creativecommons.org/ns#"
   xmlns:rdf="http://www.w3.org/1999/02/22-rdf-syntax-ns#"
   xmlns:svg="http://www.w3.org/2000/svg"
   xmlns="http://www.w3.org/2000/svg"
   xmlns:sodipodi="http://sodipodi.sourceforge.net/DTD/sodipodi-0.dtd"
   xmlns:inkscape="http://www.inkscape.org/namespaces/inkscape"
   width="50"
   height="50"
   viewBox="0 0 13.229166 13.229167"
   version="1.1"
   id="svg1579"
   sodipodi:docname="StandardChess.svg"
   inkscape:version="0.92.4 (5da689c313, 2019-01-14)">
  <defs
     id="defs1573">
    <inkscape:path-effect
       effect="mirror_symmetry"
       start_point="-15.691712,-45.362002"
       end_point="-15.691712,4.437998"
       center_point="-15.691712,-20.462002"
       id="path-effect7365"
       is_visible="true"
       mode="free"
       discard_orig_path="false"
       fuse_paths="true"
       oposite_fuse="false" />
    <inkscape:path-effect
       effect="mirror_symmetry"
       start_point="275.14301,98.12006"
       end_point="275.14301,350.07326"
       center_point="275.14301,224.09666"
       id="path-effect4547-0"
       is_visible="true"
       mode="free"
       discard_orig_path="false"
       fuse_paths="true"
       oposite_fuse="false" />
    <inkscape:path-effect
       effect="mirror_symmetry"
       start_point="274.67636,240.21573"
       end_point="274.67636,418.88419"
       center_point="274.67636,329.54996"
       id="path-effect4551-7"
       is_visible="true"
       mode="free"
       discard_orig_path="false"
       fuse_paths="false"
       oposite_fuse="false" />
    <inkscape:path-effect
       effect="mirror_symmetry"
       start_point="273.50283,331.92091"
       end_point="273.50283,477.30227"
       center_point="273.50283,404.61159"
       id="path-effect4557-0"
       is_visible="true"
       mode="free"
       discard_orig_path="false"
       fuse_paths="false"
       oposite_fuse="false" />
    <inkscape:path-effect
       effect="mirror_symmetry"
       start_point="315.71788,90.192596"
       end_point="315.71788,96.192596"
       center_point="315.71788,93.192596"
       id="path-effect4669"
       is_visible="true"
       mode="free"
       discard_orig_path="false"
       fuse_paths="false"
       oposite_fuse="false" />
    <inkscape:path-effect
       oposite_fuse="false"
       fuse_paths="false"
       discard_orig_path="false"
       mode="free"
       is_visible="true"
       id="path-effect4802"
       center_point="316.91112,93.060013"
       end_point="316.91112,96.060013"
       start_point="316.91112,90.060013"
       effect="mirror_symmetry" />
    <linearGradient
       gradientTransform="matrix(0.27867357,0,0,0.27867357,-0.3072497,283.2508)"
       id="0"
       x1="21.253"
       y1="37.591999"
       x2="77.639999"
       y2="37.469002"
       gradientUnits="userSpaceOnUse">
      <stop
         stop-color="#fff"
         id="stop15223" />
      <stop
         offset="1"
         stop-color="#fff"
         stop-opacity="0"
         id="stop15225" />
    </linearGradient>
  </defs>
  <sodipodi:namedview
     id="base"
     pagecolor="#ffffff"
     bordercolor="#666666"
     borderopacity="1.0"
     inkscape:pageopacity="0.0"
     inkscape:pageshadow="2"
     inkscape:zoom="11.2"
     inkscape:cx="10.946941"
     inkscape:cy="21.584023"
     inkscape:document-units="px"
     inkscape:current-layer="layer1"
     showgrid="false"
     units="px"
     showguides="true"
     inkscape:window-width="1920"
     inkscape:window-height="1017"
     inkscape:window-x="-8"
     inkscape:window-y="-8"
     inkscape:window-maximized="1"
     inkscape:lockguides="true" />
  <metadata
     id="metadata1576">
    <rdf:RDF>
      <cc:Work
         rdf:about="">
        <dc:format>image/svg+xml</dc:format>
        <dc:type
           rdf:resource="http://purl.org/dc/dcmitype/StillImage" />
        <dc:title></dc:title>
      </cc:Work>
    </rdf:RDF>
  </metadata>
  <g
     inkscape:label="Layer 1"
     inkscape:groupmode="layer"
     id="layer1"
     transform="translate(0,-283.77082)"
     style="opacity:0.98999999">
    <path
       style="fill:#88aa00;stroke-width:1.05325437"
       d="m 10.96875,3.0332031 c -0.178002,2.6931402 0.196182,5.3139254 1.123047,7.8554689 -0.303339,0.303307 -0.543008,0.561786 -0.730469,0.785156 -0.161155,0.195855 -0.294639,0.347237 -0.392578,0.462891 -0.10741,0.106356 -0.242847,0.268878 -0.394531,0.482422 -0.213827,0.258859 -0.355497,0.454095 -0.435547,0.58789 -0.07163,0.124309 -0.2233441,0.365174 -0.4550782,0.712891 -0.3296561,0.505625 -0.5448956,1.025796 -0.6523438,1.570312 -0.1253367,0.787843 -0.1875,1.492621 -0.1875,2.117188 -0.1337632,1.44189 -1.2591452,3.553559 -3.3867188,6.318359 -1.8189696,2.407748 -2.7207031,4.343661 -2.7207031,5.806641 0,1.024781 0.1348333,1.979012 0.4023438,2.871094 0.2759524,0.892157 0.8461763,1.773933 1.7382812,2.666015 0.4402632,0.419188 1.1450322,0.812254 2.1171875,1.177735 0.5803438,0.0359 1.2319315,-0.05403 1.9628906,-0.267578 0.5434791,0.998513 1.3012858,1.462189 2.2734378,1.417968 0.62353,-0.03583 1.105874,-0.222781 1.435547,-0.552734 0.241196,-0.24121 0.545016,-0.695072 0.892578,-1.355469 0.66039,-1.262853 1.052397,-1.966701 1.177734,-2.126953 1.644131,-2.505676 4.323969,-4.422414 8.015625,-5.742188 0.76993,-0.32965 1.474702,-0.758516 2.117188,-1.285156 0.07162,0.999534 -0.116973,2.106038 -0.5625,3.31836 -0.445527,1.22177 -1.051263,2.228705 -1.835938,3.03125 -1.363964,1.409272 -2.559126,2.65838 -3.611328,3.728515 -1.043775,1.07006 -1.704518,1.881986 -1.980469,2.44336 -0.616153,1.096441 -1.04302,2.024225 -1.310547,2.791015 -0.259122,0.766753 -0.430063,1.356203 -0.492187,1.775391 -0.107448,0.525581 -0.161418,1.212032 -0.169922,2.068359 -0.0085,0.847862 0.06451,1.275391 0.224609,1.275391 h 17.523438 10.542969 4.066406 v -5.689453 c 0,-2.338243 -0.08988,-4.877836 -0.277344,-7.615235 -0.178001,-2.746885 -0.625167,-5.358183 -1.320312,-7.855468 -0.606675,-2.140196 -1.417494,-4.173521 -2.44336,-6.082032 -1.01639,-1.9169 -2.095934,-3.558535 -3.246094,-4.914062 -1.640965,-1.935874 -3.629336,-3.52367 -5.957031,-4.753906 C 31.679202,8.811702 29.149517,8.1077033 26.412109,7.9296875 l -0.0078,0.00781 C 25.583811,6.3418212 24.477287,5.0483042 23.085938,4.0761719 21.400731,5.2884554 20.268743,6.886814 19.689453,8.8574219 17.340696,6.2043069 14.428691,4.2634016 10.96875,3.0332031 Z m 16.146484,6.7246094 c 4.710154,0.9963965 9.112443,3.2978925 11.886719,7.3476565 2.051736,2.960693 3.404328,6.304741 4.289063,9.791015 0.606648,2.319232 0.917783,4.637146 0.935546,6.964844 0.02003,3.274545 0.05787,6.555659 -0.08008,9.828125 -0.04422,0.944731 -0.06269,1.417969 -0.04492,1.417969 h -3.691406 c -0.37917,-6.037266 0.484268,-11.727246 -0.855468,-18.208984 -0.824701,-4.902879 -3.113228,-9.876366 -7.580079,-12.566407 -1.497728,-0.856252 -3.09409,-1.569727 -4.779297,-2.140625 -0.04527,-0.812031 0.05263,-1.626816 -0.08008,-2.4335935 z m -7.447265,0.1855469 c -0.11585,0.7309986 -0.134734,1.4085986 -0.05469,2.0332026 -0.40129,0.08961 -0.74744,0.215065 -1.050781,0.384766 -0.303337,0.160139 -0.642336,0.339377 -1.007812,0.535156 -0.525574,0.36567 -0.936611,0.275265 -1.230469,-0.259765 -0.293858,-0.525619 -0.160381,-0.9368 0.392578,-1.230469 0.926863,-0.767811 1.907398,-1.257662 2.951172,-1.4628906 z m -4.029297,4.7968746 c 0.374432,-7.93e-4 0.638931,0.196149 0.792969,0.583985 0.187479,0.561373 0.02753,0.945162 -0.498047,1.15039 0,0 -0.18888,0.09719 -0.572266,0.292969 l -0.002,0.002 c 0.223272,0.347566 0.313476,0.712459 0.259766,1.095703 -0.169574,1.115604 -0.791684,1.577904 -1.855469,1.408204 -0.312818,-0.05329 -0.561893,-0.15861 -0.757813,-0.310547 -0.07054,0.08005 -0.169274,0.276643 -0.3125,0.570312 -0.186427,0.564208 -0.552224,0.749779 -1.095703,0.580078 -0.544528,-0.214904 -0.749286,-0.606912 -0.625,-1.177734 0.785728,-2.001184 2.205172,-3.380031 4.25586,-4.128906 0.149299,-0.0445 0.285345,-0.06614 0.410156,-0.06641 z m 11.609375,3.775391 c 0.588769,0 0.916659,0.285946 0.988281,0.865234 0.01791,1.962218 -0.579005,3.744482 -1.800781,5.34961 -0.294911,0.544667 -0.722431,0.678063 -1.275391,0.419922 C 24.579811,24.910239 24.419974,24.526602 24.6875,24 c 0.481338,-0.490847 0.926835,-1.230656 1.328125,-2.220703 0.2496,-0.624567 0.338871,-1.418176 0.285156,-2.380859 -0.16852,-0.589002 0.144687,-0.882813 0.947266,-0.882813 z M 8.2734375,28.193359 c 0.2296092,0.01787 0.4486062,0.127395 0.6582031,0.328125 0.4009231,0.490419 0.3476366,0.901244 -0.1503906,1.257813 0,0 -0.00195,0 -0.00195,0 C 8.25462,30.038425 7.9232849,30.447598 7.78125,31 c 0.017908,0.597203 -0.2855784,0.918987 -0.9101562,0.972656 -0.6603841,0.03477 -1.0075891,-0.241678 -1.0253907,-0.8125 0.071621,-1.133291 0.6393362,-2.050963 1.703125,-2.746094 0.2538335,-0.164881 0.4950002,-0.238575 0.7246094,-0.220703 z m 2.7695315,3.484375 c 0.472904,0 0.73346,0.251062 0.759765,0.732422 0,0.143244 -0.143641,0.579586 -0.4375,1.310547 -0.160618,0.310622 -0.27562,0.542926 -0.33789,0.703125 0,0 -0.002,0.002 -0.002,0.002 -0.321072,0.560034 -0.750064,0.667315 -1.3105472,0.337891 -0.6066932,-0.329688 -0.6779889,-0.739697 -0.2050782,-1.230469 0.1337537,-0.09789 0.2408666,-0.22199 0.3125,-0.365234 0.4729144,-0.990085 0.8731414,-1.490235 1.2207034,-1.490235 z"
       id="path15230"
       inkscape:connector-curvature="0"
       transform="matrix(0.26458333,0,0,0.26458333,0,283.77082)" />
  </g>
</svg>
