<svg height="50" viewBox="0 0 13.229166 13.229167" width="50" xmlns="http://www.w3.org/2000/svg"><g fill="#5e894f" opacity=".99" transform="translate(0 -283.77082)"><path d="m24.699219 1.6171875c-6.77644 5.2822678-28.920127 25.8842915-20.3281252 25.8842915h5.9785152v19.865709h29.300782v-19.865709h6.515625c8.893814 0-14.311548-20.6020237-21.466797-25.8842915zm-1.056641 8.9492185c.758178 0 .759766 2.275391.759766 2.275391 7.960903.758173 12.509946 6.066492 12.130859 21.988281h-17.4375c0-6.411929 6.690523-5.129516 6.240235-14.072266-1.239772 1.932541-4.099233 4.049222-5.484376 4.972657-2.274543 1.516346-2.135618 3.295187-3.789062 3.035156-.789813-.715767 1.071636-2.305627 0-2.275391-.758181 0 .142398.933125-.757812 1.515625-.758182 0-3.0356.759692-3.033204-3.03125 0-1.516346 4.548829-9.099609 4.548828-9.099609.000002 0 1.429093-1.440892 1.515626-2.652344-.550474-.753902-.376954-1.517255-.376954-2.27539.758181-.758211 2.273438 1.894531 2.273438 1.894531h1.515625s.59181-1.511095 1.894531-2.275391zm-3.863281 5.384766-.890625.609375-.929688.552734c.1913.325889.552117.516029.941407.496094.389367-.02066.744964-.248243.927734-.59375.182486-.344946.163778-.752775-.04883-1.064453zm-2.587891 19.046875h17.933594v2.095703h-.261719l2.6875 2.685547v4.953125h-3.96289v-1.980469h-4.953125v1.980469h-4.953125v-1.980469h-4.951172v1.980469h-3.962891v-4.953125l2.685547-2.685547h-.261719z" opacity="1" transform="matrix(.26458333 0 0 .26458333 0 283.77082)"/><path d="m8.9870183 293.03239h-3.9312029" fill-rule="evenodd"/></g></svg>