<svg height="50" viewBox="0 0 13.229166 13.229167" width="50" xmlns="http://www.w3.org/2000/svg"><path d="m24.699219 1.6171875c-6.77644 5.2822678-28.920127 23.2957765-20.3281252 23.2957765h5.9785152v22.454224h29.300782v-22.454224c1.892132.464568 6.515625 0 6.515625 0 8.893814 0-14.311548-18.0135087-21.466797-23.2957765zm.404297 18.6015625c4.951704 0 9.902689.377297 10.65625 1.130859 1.507127 1.507163 1.507127 19.807367 0 21.314453-1.507122 1.507125-19.805374 1.507125-21.3125 0-1.507122-1.507086-1.507122-19.80729 0-21.314453.753565-.753335 5.704545-1.130859 10.65625-1.130859zm-5.246094 2.314453c-1.48648-.000138-2.691544 1.204926-2.691406 2.691406-.000138 1.48648 1.204926 2.691545 2.691406 2.691407 1.48648.000138 2.691544-1.204927 2.691406-2.691407.000138-1.48648-1.204926-2.691544-2.691406-2.691406zm10.609375 0c-1.48648-.000138-2.691544 1.204926-2.691406 2.691406-.000138 1.48648 1.204926 2.691545 2.691406 2.691407 1.485717-.00094 2.689592-1.205689 2.689453-2.691407.000138-1.485717-1.203736-2.690466-2.689453-2.691406zm-10.726563 6.824219c-1.487243-.000138-2.692623 1.206117-2.691406 2.693359-.000138 1.48648 1.204926 2.691545 2.691406 2.691407 1.48648.000138 2.691545-1.204927 2.691407-2.691407.0012-1.487243-1.204164-2.693498-2.691407-2.693359zm10.607422 0c-1.48648.00094-2.69067 1.206879-2.689453 2.693359-.000139 1.485718 1.203736 2.690467 2.689453 2.691407 1.487243.0012 2.693499-1.204163 2.69336-2.691407.0012-1.488006-1.205354-2.694578-2.69336-2.693359zm-10.568359 6.826172c-1.487243-.000138-2.692623 1.206117-2.691406 2.693359.00094 1.485717 1.205689 2.689591 2.691406 2.689453 1.485717.000138 2.690466-1.203736 2.691406-2.689453.0012-1.487242-1.204163-2.693497-2.691406-2.693359zm10.607422 0c-1.48648.00094-2.69067 1.206879-2.689453 2.693359.00094 1.484954 1.204499 2.688513 2.689453 2.689453 1.485717.000138 2.690466-1.203736 2.691406-2.689453.0012-1.487242-1.204163-2.693497-2.691406-2.693359z" fill="#70787d" fill-opacity=".992157" opacity=".99" transform="scale(.26458333)"/></svg>