<?xml version="1.0" encoding="UTF-8" standalone="no"?>
<!-- Created with Inkscape (http://www.inkscape.org/) -->

<svg
   xmlns:dc="http://purl.org/dc/elements/1.1/"
   xmlns:cc="http://creativecommons.org/ns#"
   xmlns:rdf="http://www.w3.org/1999/02/22-rdf-syntax-ns#"
   xmlns:svg="http://www.w3.org/2000/svg"
   xmlns="http://www.w3.org/2000/svg"
   xmlns:sodipodi="http://sodipodi.sourceforge.net/DTD/sodipodi-0.dtd"
   xmlns:inkscape="http://www.inkscape.org/namespaces/inkscape"
   width="50"
   height="50"
   viewBox="0 0 13.229166 13.229167"
   version="1.1"
   id="svg1579"
   sodipodi:docname="Crazyhouse960.svg"
   inkscape:version="0.92.4 (5da689c313, 2019-01-14)">
  <defs
     id="defs1573">
    <inkscape:path-effect
       effect="mirror_symmetry"
       start_point="-15.691712,-45.362002"
       end_point="-15.691712,4.437998"
       center_point="-15.691712,-20.462002"
       id="path-effect7365"
       is_visible="true"
       mode="free"
       discard_orig_path="false"
       fuse_paths="true"
       oposite_fuse="false" />
    <inkscape:path-effect
       effect="mirror_symmetry"
       start_point="275.14301,98.12006"
       end_point="275.14301,350.07326"
       center_point="275.14301,224.09666"
       id="path-effect4547-0"
       is_visible="true"
       mode="free"
       discard_orig_path="false"
       fuse_paths="true"
       oposite_fuse="false" />
    <inkscape:path-effect
       effect="mirror_symmetry"
       start_point="274.67636,240.21573"
       end_point="274.67636,418.88419"
       center_point="274.67636,329.54996"
       id="path-effect4551-7"
       is_visible="true"
       mode="free"
       discard_orig_path="false"
       fuse_paths="false"
       oposite_fuse="false" />
    <inkscape:path-effect
       effect="mirror_symmetry"
       start_point="273.50283,331.92091"
       end_point="273.50283,477.30227"
       center_point="273.50283,404.61159"
       id="path-effect4557-0"
       is_visible="true"
       mode="free"
       discard_orig_path="false"
       fuse_paths="false"
       oposite_fuse="false" />
    <inkscape:path-effect
       effect="mirror_symmetry"
       start_point="315.71788,90.192596"
       end_point="315.71788,96.192596"
       center_point="315.71788,93.192596"
       id="path-effect4669"
       is_visible="true"
       mode="free"
       discard_orig_path="false"
       fuse_paths="false"
       oposite_fuse="false" />
    <inkscape:path-effect
       oposite_fuse="false"
       fuse_paths="false"
       discard_orig_path="false"
       mode="free"
       is_visible="true"
       id="path-effect4802"
       center_point="316.91112,93.060013"
       end_point="316.91112,96.060013"
       start_point="316.91112,90.060013"
       effect="mirror_symmetry" />
  </defs>
  <sodipodi:namedview
     id="base"
     pagecolor="#ffffff"
     bordercolor="#666666"
     borderopacity="1.0"
     inkscape:pageopacity="0.0"
     inkscape:pageshadow="2"
     inkscape:zoom="0.98994949"
     inkscape:cx="-407.41968"
     inkscape:cy="123.28076"
     inkscape:document-units="px"
     inkscape:current-layer="layer1"
     showgrid="false"
     units="px"
     showguides="true"
     inkscape:window-width="1920"
     inkscape:window-height="1017"
     inkscape:window-x="1912"
     inkscape:window-y="-8"
     inkscape:window-maximized="1"
     inkscape:lockguides="true" />
  <metadata
     id="metadata1576">
    <rdf:RDF>
      <cc:Work
         rdf:about="">
        <dc:format>image/svg+xml</dc:format>
        <dc:type
           rdf:resource="http://purl.org/dc/dcmitype/StillImage" />
        <dc:title />
      </cc:Work>
    </rdf:RDF>
  </metadata>
  <g
     inkscape:label="Layer 1"
     inkscape:groupmode="layer"
     id="layer1"
     transform="translate(0,-283.77082)"
     style="opacity:0.98999999">
    <path
       style="opacity:1;fill:#88aa00;fill-opacity:1;stroke:none;stroke-width:3.34786987;stroke-linecap:square;stroke-linejoin:miter;stroke-miterlimit:10;stroke-dasharray:none;stroke-opacity:1;paint-order:normal"
       d="M 24.699219,1.6171875 C 17.922779,6.8994553 -4.220908,24.912964 4.3710938,24.912964 H 10.349609 V 47.367188 H 39.650391 V 24.912964 c 1.892132,0.464568 6.515625,0 6.515625,0 8.893814,0 -14.311548,-18.0135087 -21.466797,-23.2957765 z M 25.103516,20.21875 c 4.951704,0 9.902689,0.377297 10.65625,1.130859 1.507127,1.507163 1.507127,19.807367 0,21.314453 -1.507122,1.507125 -19.805374,1.507125 -21.3125,0 -1.507122,-1.507086 -1.507122,-19.80729 0,-21.314453 0.753565,-0.753335 5.704545,-1.130859 10.65625,-1.130859 z m -5.246094,2.314453 c -1.48648,-1.38e-4 -2.691544,1.204926 -2.691406,2.691406 -1.38e-4,1.48648 1.204926,2.691545 2.691406,2.691407 1.48648,1.38e-4 2.691544,-1.204927 2.691406,-2.691407 1.38e-4,-1.48648 -1.204926,-2.691544 -2.691406,-2.691406 z m 10.609375,0 c -1.48648,-1.38e-4 -2.691544,1.204926 -2.691406,2.691406 -1.38e-4,1.48648 1.204926,2.691545 2.691406,2.691407 1.485717,-9.4e-4 2.689592,-1.205689 2.689453,-2.691407 1.38e-4,-1.485717 -1.203736,-2.690466 -2.689453,-2.691406 z m -10.726563,6.824219 c -1.487243,-1.38e-4 -2.692623,1.206117 -2.691406,2.693359 -1.38e-4,1.48648 1.204926,2.691545 2.691406,2.691407 1.48648,1.38e-4 2.691545,-1.204927 2.691407,-2.691407 0.0012,-1.487243 -1.204164,-2.693498 -2.691407,-2.693359 z m 10.607422,0 c -1.48648,9.4e-4 -2.69067,1.206879 -2.689453,2.693359 -1.39e-4,1.485718 1.203736,2.690467 2.689453,2.691407 1.487243,0.0012 2.693499,-1.204163 2.69336,-2.691407 0.0012,-1.488006 -1.205354,-2.694578 -2.69336,-2.693359 z m -10.568359,6.826172 c -1.487243,-1.38e-4 -2.692623,1.206117 -2.691406,2.693359 9.4e-4,1.485717 1.205689,2.689591 2.691406,2.689453 1.485717,1.38e-4 2.690466,-1.203736 2.691406,-2.689453 0.0012,-1.487242 -1.204163,-2.693497 -2.691406,-2.693359 z m 10.607422,0 c -1.48648,9.4e-4 -2.69067,1.206879 -2.689453,2.693359 9.4e-4,1.484954 1.204499,2.688513 2.689453,2.689453 1.485717,1.38e-4 2.690466,-1.203736 2.691406,-2.689453 0.0012,-1.487242 -1.204163,-2.693497 -2.691406,-2.693359 z"
       transform="matrix(0.26458333,0,0,0.26458333,0,283.77082)"
       id="rect7553"
       inkscape:connector-curvature="0"
       sodipodi:nodetypes="csccccscsccccscccccccccccccccccccccccccccccc" />
  </g>
</svg>
