<svg height="540.9375" viewBox="0 0 547.5 540.9375" width="547.5" xmlns="http://www.w3.org/2000/svg"><path d="m6.3054891 539.73097c-5.1707865-1.1451-5.65947407-2.15007-5.76878288-11.8634l-.06795622-6.03869 10.360237-5.47788 10.360236-5.47787 37.686639-37.72911 37.686638-37.72911-.0047-5.59809c-.0047-5.42428-.281372-6.0492-8.916511-20.12932-4.901498-7.99219-9.302223-16.00781-9.77939-17.8125-1.269624-4.80183-3.798404-32.23432-3.039984-32.97808.355757-.34888 3.64356-.92464 7.30623-1.27946 6.454258-.62526 6.677678-.57685 7.252823 1.57183.326384 1.21933.599186 9.4943.606227 18.38883.01528 19.30673.290991 19.92188 8.928914 19.92188 4.634948 0 6.876098-.86028 21.796878-8.36684l16.63075-8.36685 41.74013-42.02378c22.95708-23.11308 47.10943-47.54441 53.67188-54.29184l11.93174-12.26807.0257-5.07568.0257-5.07569-115.068237-114.84375-115.068278-114.84375-3.908349-13.125c-5.6484606-18.9686343-5.6877556-19.21760426-3.0341373-19.2240765 1.2011253-.00292958 8.3010513 1.754764 15.7776143 3.9059857l13.59375 3.9113122 51.09375 50.6940176c28.10156 27.88171 79.99219 79.463131 115.3125 114.625371 68.90748 68.5991 66.37217 66.38146 73.82197 64.57248 1.74736-.42431 23.3814-21.33379 66.80303-64.56568 35.32031-35.16599 87.21094-86.750461 115.3125-114.632171l51.09375-50.6940176 13.59375-3.9113122c7.47656-2.1512217 14.57648-3.90891527 15.77762-3.9059857 2.65361.00647224 2.61432.2554422-3.03414 19.2240765l-3.90835 13.125-115.06828 114.84375-115.06827 114.84375.0257 5.00322.0257 5.00323 53.99492 54.52802 53.99491 54.52803 16.08322 8.15344c14.53137 7.36673 16.60333 8.15823 21.47383 8.20312 8.89139.0819 9.13805-.45356 9.15342-19.87219.007-8.89453.27984-17.1695.60623-18.38883.57514-2.14868.79857-2.19709 7.25282-1.57183 3.66268.35482 6.95176.93058 7.30908 1.27946.5862.57234-1.33339 24.49925-2.54257 31.6922-.41207 2.45123-6.08202 12.47898-17.15971 30.34838-1.49212 2.40693-2.03507 4.77292-2.03764 8.87932l-.004 5.59809 37.68664 37.72911 37.68663 37.72911 10.36024 5.47787 10.36024 5.47788-.068 6.03869c-.11633 10.33789-.35097 10.70788-7.66581 12.0881-3.50309.66098-7.20388 1.0467-8.22399.85716-1.28532-.23883-3.55791-3.65448-7.40237-11.1256l-5.54732-10.78098-35.70238-35.91119c-19.6363-19.75115-37.09891-36.78175-38.80578-37.84578-2.43956-1.52075-4.14416-1.83895-7.96875-1.48752-4.10327.37704-6.84771 1.69406-17.52159 8.40838-16.98713 10.68561-17.16184 10.7634-26.76578 11.91773-4.61475.55465-11.95261 1.47144-16.30635 2.03731-7.14347.92845-8.03162.87054-9.10216-.59351-1.77203-2.4234-2.55332-9.27108-1.32059-11.57445 1.02132-1.90836 1.70745-1.98222 18.41423-1.98222 17.17458 0 17.37709-.0237 19.65451-2.30114 1.82045-1.82044 2.30114-3.26601 2.30114-6.92011 0-3.82883-1.12256-6.89086-6.56212-17.89957-3.60917-7.30431-7.97289-15.47542-9.69716-18.158-1.8381-2.85969-25.31055-26.74046-56.73919-57.72624l-53.60416-52.84879-5.08549.42172-5.0855.42174-25.12881 24.4678c-13.82085 13.45729-38.0349 37.47135-53.809 53.36457l-28.68019 28.89677-8.25774 16.35952c-4.54176 8.99774-8.5764 17.77242-8.96587 19.49929-.89747 3.97925.53982 9.30292 2.84461 10.53641 1.00188.53618 9.03316.95477 18.47461.96288 9.18625.007 17.28182.38148 17.99019.83018 1.57775.99941 1.10161 12.60968-.58635 14.29764-.82152.82152-4.2246.79812-14.01824-.0964-20.55704-1.87765-20.38929-1.82249-37.52615-12.3389-14.05479-8.62503-15.87361-9.4857-20.04567-9.4857-3.52404 0-5.29422.56195-7.6312 2.42253-1.67355 1.33239-18.915232 18.1506-38.314847 37.37379l-35.272027 34.95128-5.509224 10.78125-5.509222 10.78125-3.75.12669c-2.0625.0697-5.7640924-.31934-8.2257609-.86447z"/></svg>