<svg xmlns="http://www.w3.org/2000/svg" viewBox="-3 29 521 458" fill="currentColor">
  <path d="M79 176Q78 177 73 187Q72 192 72 200Q72 206 71 206L70 207Q68 208 66.0 210.0Q64 212 62 214Q57 218 53 222Q44 229 38 220L2 181Q-3 175 3 169Q4 168 13 162L23 154Q26 151 37 151Q46 151 56 143Q62 137 65 124Q66 113 70 109L72 108Q73 106 75 105Q81 99 88 94Q102 82 109 78Q177 32 204 29Q271 29 280 30Q285 30 276 34Q214 61 198 73Q157 102 179 131Q194 151 199 156Q204 159 198 163L196 165Q193 167 188.5 171.5Q184 176 178 181Q166 192 159 199Q151 202 150 201Q128 176 113 170Q99 164 79 176ZM226 189 435 433Q445 444 434 453L410 474Q399 481 390 472L178 230Q175 227 178 220L215 188Q222 185 226 189ZM509 86Q518 139 501 171Q475 216 422 203Q393 197 371 219L329 259L294 219L329 183Q340 172 345 156Q348 141 348 123Q348 101 350 93Q358 64 422 36Q428 33 431 37Q435 42 432 45Q426 52 409 86Q402 90 403 104Q403 117 423 131Q452 152 472 120Q474 117 486 99Q495 84 497 82Q499 77 504 77Q509 79 509 86ZM70 436 200 309 239 353 113 477Q103 487 93 479L70 456Q58 447 70 436Z"/>
</svg>
