<svg height="293" preserveAspectRatio="xMidYMid" viewBox="0 0 256 293" width="256" xmlns="http://www.w3.org/2000/svg"><path d="m226.011429 0h-196.0228576c-16.5302857 0-29.9885714 13.4582857-29.9885714 30.1348571v197.7782859c0 16.676571 13.4582857 30.134857 29.9885714 30.134857h165.8879996l-7.753142-27.062857 18.724571 17.408 17.700571 16.384 31.451429 27.794286v-262.4365719c0-16.6765714-13.458286-30.1348571-29.988571-30.1348571zm-56.466286 191.049143s-5.266286-6.290286-9.654857-11.849143c19.163428-5.412571 26.477714-17.408 26.477714-17.408-5.997714 3.949714-11.702857 6.729143-16.822857 8.630857-7.314286 3.072-14.336 5.12-21.211429 6.290286-14.043428 2.633143-26.916571 1.901714-37.888-.146286-8.338285-1.609143-15.5062854-3.949714-21.5039997-6.290286-3.3645714-1.316571-7.0217143-2.925714-10.6788572-4.973714-.4388571-.292571-.8777142-.438857-1.3165714-.731428-.2925714-.146286-.4388571-.292572-.5851428-.438858-2.6331429-1.462857-4.096-2.486857-4.096-2.486857s7.0217142 11.702857 25.6 17.261715c-4.3885715 5.558857-9.8011429 12.141714-9.8011429 12.141714-32.3291429-1.024-44.6171429-22.235429-44.6171429-22.235429 0-47.104 21.0651429-85.2845711 21.0651429-85.2845711 21.0651429-15.7988572 41.106286-15.36 41.106286-15.36l1.462857 1.7554285c-26.3314287 7.6068572-38.473143 19.1634286-38.473143 19.1634286s3.2182857-1.7554286 8.6308571-4.2422857c15.6525715-6.8754286 28.0868569-8.7771429 33.2068569-9.216.877715-.1462857 1.609143-.2925714 2.486857-.2925714 8.923429-1.1702858 19.017143-1.4628572 29.549715-.2925715 13.897143 1.6091429 28.818285 5.7051429 44.032 14.0434286 0 0-11.556572-10.9714286-36.425143-18.5782857l2.048-2.3405714s20.041143-.4388572 41.106286 15.36c0 0 21.065142 38.1805711 21.065142 85.2845711 0 0-12.434285 21.211429-44.763428 22.235429zm-68.022857-68.315429c-8.338286 0-14.9211431 7.314286-14.9211431 16.237715 0 8.923428 6.7291428 16.237714 14.9211431 16.237714 8.338285 0 14.921143-7.314286 14.921143-16.237714.146285-8.923429-6.582858-16.237715-14.921143-16.237715m53.394285 0c-8.338285 0-14.921142 7.314286-14.921142 16.237715 0 8.923428 6.729142 16.237714 14.921142 16.237714 8.338286 0 14.921143-7.314286 14.921143-16.237714 0-8.923429-6.582857-16.237715-14.921143-16.237715" fill="#7289da"/></svg>