<?xml version="1.0" encoding="UTF-8" standalone="no"?>
<svg
   xmlns:dc="http://purl.org/dc/elements/1.1/"
   xmlns:cc="http://creativecommons.org/ns#"
   xmlns:rdf="http://www.w3.org/1999/02/22-rdf-syntax-ns#"
   xmlns:svg="http://www.w3.org/2000/svg"
   xmlns="http://www.w3.org/2000/svg"
   xmlns:sodipodi="http://sodipodi.sourceforge.net/DTD/sodipodi-0.dtd"
   xmlns:inkscape="http://www.inkscape.org/namespaces/inkscape"
   sodipodi:docname="Dobutsu.svg"
   inkscape:version="1.0.1 (3bc2e813f5, 2020-09-07)"
   id="svg1579"
   version="1.1"
   viewBox="0 0 13.229166 13.229167"
   height="50"
   width="50">
  <defs
     id="defs1573">
    <inkscape:path-effect
       oposite_fuse="false"
       fuse_paths="true"
       discard_orig_path="false"
       mode="free"
       is_visible="true"
       id="path-effect7365"
       center_point="-15.691712,-20.462002"
       end_point="-15.691712,4.437998"
       start_point="-15.691712,-45.362002"
       effect="mirror_symmetry" />
  </defs>
  <sodipodi:namedview
     inkscape:document-rotation="0"
     inkscape:window-maximized="1"
     inkscape:window-y="-12"
     inkscape:window-x="-12"
     inkscape:window-height="2050"
     inkscape:window-width="3840"
     showguides="true"
     units="px"
     showgrid="false"
     inkscape:current-layer="layer1"
     inkscape:document-units="px"
     inkscape:cy="25.089693"
     inkscape:cx="13.838378"
     inkscape:zoom="11.2"
     inkscape:pageshadow="2"
     inkscape:pageopacity="0.0"
     borderopacity="1.0"
     bordercolor="#666666"
     pagecolor="#ffffff"
     id="base" />
  <metadata
     id="metadata1576">
    <rdf:RDF>
      <cc:Work
         rdf:about="">
        <dc:format>image/svg+xml</dc:format>
        <dc:type
           rdf:resource="http://purl.org/dc/dcmitype/StillImage" />
        <dc:title></dc:title>
      </cc:Work>
    </rdf:RDF>
  </metadata>
  <g
     transform="translate(0,-283.77082)"
     id="layer1"
     inkscape:groupmode="layer"
     inkscape:label="Layer 1">
    <g
       transform="matrix(1.039065,0,0,1.039065,5.8855937,-14.91908)"
       id="g1573"
       style="fill:#8d6c46;fill-opacity:1">
      <path
         d="m 3.3085979,288.26978 c -0.02779,0.004 -0.044287,0.0102 -0.061444,0.0169 -0.034312,0.0133 -0.066562,0.03 -0.1053324,0.052 -0.07754,0.0439 -0.176901,0.10833 -0.2957404,0.18973 -0.2376795,0.1628 -0.5518915,0.39418 -0.8885722,0.65833 -0.3323198,0.26072 -0.6527228,0.49797 -0.8987004,0.66845 -0.1229881,0.0852 -0.2273271,0.15378 -0.3031678,0.19919 -0.03792,0.0227 -0.069065,0.0393 -0.088452,0.0486 0.00209,-0.002 -0.051538,-0.0122 -0.1168106,-0.0452 -0.071205,-0.036 -0.1538878,-0.0879 -0.2241688,-0.14314 -0.2200521,-0.17309 -0.7626681,-0.52624 -1.2761407,-0.84671 -0.2567366,-0.16024 -0.5034066,-0.31085 -0.6947881,-0.42201 -0.095691,-0.0556 -0.1780998,-0.10051 -0.2417236,-0.13369 -0.031813,-0.0166 -0.058965,-0.0304 -0.083726,-0.0412 -0.02476,-0.0108 -0.02503,-0.0256 -0.1012809,-0.0256 -0.071545,0 -0.1175888,0.046 -0.1357165,0.0716 -0.018129,0.0255 -0.024461,0.0433 -0.029709,0.0594 -0.010499,0.0322 -0.014555,0.0599 -0.018907,0.0932 -0.0087,0.0665 -0.013589,0.15106 -0.016203,0.25455 -0.00522,0.20698 -9.79e-5,0.48608 0.016203,0.79404 0.017002,0.32156 0.024963,0.56716 0.01688,0.74003 -0.00808,0.17287 -0.041279,0.26822 -0.055367,0.28697 -0.00704,0.009 -0.00331,0.006 -0.01148,0.008 -0.00817,0.002 -0.031629,0.004 -0.073598,-0.004 -0.083938,-0.0169 -0.2276491,-0.075 -0.4159277,-0.16475 -0.2444269,-0.11654 -0.6360865,-0.2282 -1.031716,-0.31465 -0.3956297,-0.0865 -0.7790455,-0.14611 -1.0269894,-0.13369 -0.031621,0.001 -0.067904,0.006 -0.108033,0.0283 -0.040129,0.022 -0.079839,0.0683 -0.094529,0.11546 -0.029381,0.0944 0.00156,0.15382 0.030384,0.21336 0.057643,0.11908 0.1635686,0.2602 0.3349025,0.4713 0.3494324,0.43053 0.6412294,0.84239 0.852111,1.19646 0.2108815,0.35407 0.3385981,0.65626 0.3673124,0.83321 0.038681,0.23836 -0.043506,0.58553 -0.2356472,0.94731 -0.1921412,0.36178 -0.4883402,0.73737 -0.8480597,1.04792 l -0.8149747,0.70355 0.8514358,0.26535 c 0.3308832,0.10349 0.7074709,0.2594 0.9952547,0.40175 0.1438925,0.0712 0.2656586,0.13965 0.345706,0.19311 0.028687,0.0192 0.043797,0.0322 0.059418,0.0452 -0.00443,0.0151 -0.00788,0.0264 -0.014179,0.0466 -0.02175,0.0698 -0.05406,0.16789 -0.093854,0.28494 -0.079586,0.2341 -0.190066,0.54639 -0.3112701,0.87912 -0.12185,0.3345 -0.2324639,0.64814 -0.313296,0.88452 -0.040416,0.11819 -0.073298,0.21674 -0.096555,0.29034 -0.011629,0.0368 -0.020817,0.0664 -0.027684,0.0912 -0.00686,0.0247 -0.013851,0.021 -0.014854,0.081 -2.477e-4,0.0151 -0.00214,0.0339 0.0027,0.0655 0.00482,0.0316 0.023185,0.0894 0.074948,0.12694 0.051764,0.0375 0.1056993,0.0387 0.1417938,0.0351 0.036095,-0.003 0.06546,-0.0122 0.09993,-0.0236 0.1378833,-0.0457 0.3607759,-0.15019 0.8190262,-0.36191 0.4508223,-0.20829 1.1220673,-0.46098 1.4584469,-0.55097 0.737412,-0.19728 2.8676436,-0.23171 3.9715662,-0.0473 0.4000114,0.0668 0.8742371,0.18729 1.2768159,0.31532 0.4025794,0.12804 0.7498742,0.28189 0.8305046,0.34571 0.04973,0.0394 0.09353,0.0698 0.160025,0.0851 0.03325,0.008 0.07948,0.0151 0.138417,-0.0162 0.05893,-0.0313 0.09453,-0.1112 0.09453,-0.16002 0,-0.0735 -0.01555,-0.10817 -0.03579,-0.17961 -0.02023,-0.0714 -0.04842,-0.16075 -0.08237,-0.26265 -0.06791,-0.2038 -0.159027,-0.45907 -0.255228,-0.7164 -0.096202,-0.25733 -0.1978519,-0.51633 -0.2849382,-0.7272 -0.087086,-0.21087 -0.149099,-0.35942 -0.2093139,-0.45171 -0.036904,-0.0566 -0.065804,-0.12024 -0.078999,-0.1661 -0.00401,-0.0139 -0.00582,-0.0175 -0.00743,-0.0202 0.010147,-0.007 0.019849,-0.014 0.036461,-0.0243 0.052012,-0.0324 0.1280073,-0.0755 0.2174166,-0.12424 0.1788192,-0.0974 0.4146355,-0.2184 0.6535995,-0.33557 0.238966,-0.11718 0.481605,-0.23112 0.671831,-0.31465 0.09511,-0.0418 0.17714,-0.0758 0.237673,-0.0986 0.03027,-0.0114 0.05531,-0.0202 0.07157,-0.025 0.01626,-0.005 0.03053,-0.003 0.0047,-0.003 0.04497,0 0.09672,-0.009 0.145845,-0.0425 0.04913,-0.0339 0.08242,-0.0931 0.09183,-0.14382 0.01882,-0.10149 -0.01191,-0.17662 -0.05199,-0.26671 -0.08017,-0.18019 -0.236824,-0.41489 -0.476696,-0.7326 -0.249599,-0.33059 -0.498276,-0.73967 -0.682634,-1.10194 -0.09218,-0.18113 -0.168277,-0.35015 -0.220117,-0.49087 -0.04939,-0.13407 -0.07249,-0.24238 -0.07495,-0.29102 6.88e-4,-0.002 1.6e-4,-0.002 0.0013,-0.005 0.0075,-0.0162 0.022,-0.0428 0.04254,-0.075 0.04107,-0.0644 0.105188,-0.15235 0.185007,-0.25253 0.159638,-0.20034 0.383415,-0.45301 0.629293,-0.70491 l 1.166757,-1.19512 H 5.479307 c -0.518604,0 -1.1104831,0.0498 -1.3949763,0.13504 -0.1086565,0.0326 -0.2174471,0.0536 -0.2964159,0.0608 -0.023289,0.002 -0.035529,10e-4 -0.051991,10e-4 -7.408e-4,-0.003 -5.821e-4,-0.004 -0.00135,-0.007 -0.011429,-0.0529 -0.024543,-0.13148 -0.037136,-0.22553 -0.025181,-0.18809 -0.049108,-0.44102 -0.065495,-0.70829 -0.016771,-0.27354 -0.040275,-0.52983 -0.06482,-0.72585 -0.012272,-0.098 -0.024893,-0.18089 -0.037812,-0.24577 -0.00646,-0.0324 -0.012862,-0.0595 -0.020931,-0.0858 -0.00807,-0.0263 -0.00109,-0.0463 -0.054691,-0.0999 -0.059632,-0.0596 -0.1173795,-0.0509 -0.1451698,-0.0473 z m -2.605623,3.17415 a 2.8365521,2.9623334 0 0 1 2.8365439,2.96213 2.8365521,2.9623334 0 0 1 -2.8365439,2.96213 2.8365521,2.9623334 0 0 1 -2.8365442,-2.96213 2.8365521,2.9623334 0 0 1 2.8365442,-2.96213 z"
         style="color:#000000;font-style:normal;font-variant:normal;font-weight:normal;font-stretch:normal;font-size:medium;line-height:normal;font-family:sans-serif;font-variant-ligatures:normal;font-variant-position:normal;font-variant-caps:normal;font-variant-numeric:normal;font-variant-alternates:normal;font-variant-east-asian:normal;font-feature-settings:normal;font-variation-settings:normal;text-indent:0;text-align:start;text-decoration:none;text-decoration-line:none;text-decoration-style:solid;text-decoration-color:#000000;letter-spacing:normal;word-spacing:normal;text-transform:none;writing-mode:lr-tb;direction:ltr;text-orientation:mixed;dominant-baseline:auto;baseline-shift:baseline;text-anchor:start;white-space:normal;shape-padding:0;shape-margin:0;inline-size:0;clip-rule:nonzero;display:inline;overflow:visible;visibility:visible;isolation:auto;mix-blend-mode:normal;color-interpolation:sRGB;color-interpolation-filters:linearRGB;solid-color:#000000;solid-opacity:1;vector-effect:none;fill:#8d6c46;fill-opacity:1;fill-rule:nonzero;stroke:none;stroke-width:0.314172;stroke-linecap:butt;stroke-linejoin:miter;stroke-miterlimit:4;stroke-dasharray:none;stroke-dashoffset:0;stroke-opacity:1;color-rendering:auto;image-rendering:auto;shape-rendering:auto;text-rendering:auto;enable-background:accumulate;stop-color:#000000"
         id="path1522" />
      <path
         d="m -0.2531179,293.42701 a 0.34585653,0.34585653 0 0 0 -0.3457061,0.34638 0.34585653,0.34585653 0 0 0 0.3457061,0.34571 0.34585653,0.34585653 0 0 0 0.3457057,-0.34571 0.34585653,0.34585653 0 0 0 -0.3457057,-0.34638 z m 1.8061781,0.0128 a 0.34585653,0.34585653 0 0 0 -0.3457059,0.34638 0.34585653,0.34585653 0 0 0 0.3457059,0.3457 0.34585653,0.34585653 0 0 0 0.3457057,-0.3457 0.34585653,0.34585653 0 0 0 -0.3457057,-0.34638 z m -0.721796,1.16946 -0.3828423,0.0202 c 0.012316,0.23411 0.00164,0.3851 -0.065495,0.48075 -0.067141,0.0957 -0.2246437,0.19544 -0.6245664,0.25388 l 0.055367,0.37947 c 0.1021585,-0.0149 0.192845,-0.0343 0.2781855,-0.056 0.3100335,0.23186 0.6917301,0.29156 1.0080834,0.13369 0.137709,0.061 0.2883956,0.0919 0.4463119,0.0763 l -0.037136,-0.38081 c -0.1424329,0.0141 -0.2558645,-0.0226 -0.3774406,-0.11547 -0.1057515,-0.0808 -0.2119442,-0.21626 -0.313296,-0.38351 0.022564,-0.13398 0.020016,-0.27189 0.01283,-0.4085 z m -0.2106644,0.80282 c 0.081992,0.1094 0.1697032,0.20821 0.2700827,0.28628 -0.1824162,0.0496 -0.382275,0.0183 -0.5691997,-0.0878 0.1241036,-0.0522 0.2216208,-0.11887 0.299117,-0.19851 z"
         style="opacity:1;fill:#8d6c46;fill-opacity:1;stroke:none;stroke-width:0.608962;stroke-linecap:square;stroke-linejoin:miter;stroke-miterlimit:4;stroke-dasharray:none;stroke-opacity:1;paint-order:fill markers stroke"
         id="path5835" />
    </g>
  </g>
</svg>
