<svg height="50" viewBox="0 0 13.229166 13.229167" width="50" xmlns="http://www.w3.org/2000/svg"><g fill="#8d6c46" transform="matrix(1.039065 0 0 1.039065 5.885594 -298.6899)"><path d="m3.3085979 288.26978c-.02779.004-.044287.0102-.061444.0169-.034312.0133-.066562.03-.1053324.052-.07754.0439-.176901.10833-.2957404.18973-.2376795.1628-.5518915.39418-.8885722.65833-.3323198.26072-.6527228.49797-.8987004.66845-.1229881.0852-.2273271.15378-.3031678.19919-.03792.0227-.069065.0393-.088452.0486.00209-.002-.051538-.0122-.1168106-.0452-.071205-.036-.1538878-.0879-.2241688-.14314-.2200521-.17309-.7626681-.52624-1.2761407-.84671-.2567366-.16024-.5034066-.31085-.6947881-.42201-.095691-.0556-.1780998-.10051-.2417236-.13369-.031813-.0166-.058965-.0304-.083726-.0412-.02476-.0108-.02503-.0256-.1012809-.0256-.071545 0-.1175888.046-.1357165.0716-.018129.0255-.024461.0433-.029709.0594-.010499.0322-.014555.0599-.018907.0932-.0087.0665-.013589.15106-.016203.25455-.00522.20698-.0000979.48608.016203.79404.017002.32156.024963.56716.01688.74003-.00808.17287-.041279.26822-.055367.28697-.00704.009-.00331.006-.01148.008s-.031629.004-.073598-.004c-.083938-.0169-.2276491-.075-.4159277-.16475-.2444269-.11654-.6360865-.2282-1.031716-.31465-.3956297-.0865-.7790455-.14611-1.0269894-.13369-.031621.001-.067904.006-.108033.0283-.040129.022-.079839.0683-.094529.11546-.029381.0944.00156.15382.030384.21336.057643.11908.1635686.2602.3349025.4713.3494324.43053.6412294.84239.852111 1.19646.2108815.35407.3385981.65626.3673124.83321.038681.23836-.043506.58553-.2356472.94731s-.4883402.73737-.8480597 1.04792l-.8149747.70355.8514358.26535c.3308832.10349.7074709.2594.9952547.40175.1438925.0712.2656586.13965.345706.19311.028687.0192.043797.0322.059418.0452-.00443.0151-.00788.0264-.014179.0466-.02175.0698-.05406.16789-.093854.28494-.079586.2341-.190066.54639-.3112701.87912-.12185.3345-.2324639.64814-.313296.88452-.040416.11819-.073298.21674-.096555.29034-.011629.0368-.020817.0664-.027684.0912-.00686.0247-.013851.021-.014854.081-.0002477.0151-.00214.0339.0027.0655.00482.0316.023185.0894.074948.12694.051764.0375.1056993.0387.1417938.0351.036095-.003.06546-.0122.09993-.0236.1378833-.0457.3607759-.15019.8190262-.36191.4508223-.20829 1.1220673-.46098 1.4584469-.55097.737412-.19728 2.8676436-.23171 3.9715662-.0473.4000114.0668.8742371.18729 1.2768159.31532.4025794.12804.7498742.28189.8305046.34571.04973.0394.09353.0698.160025.0851.03325.008.07948.0151.138417-.0162.05893-.0313.09453-.1112.09453-.16002 0-.0735-.01555-.10817-.03579-.17961-.02023-.0714-.04842-.16075-.08237-.26265-.06791-.2038-.159027-.45907-.255228-.7164-.096202-.25733-.1978519-.51633-.2849382-.7272-.087086-.21087-.149099-.35942-.2093139-.45171-.036904-.0566-.065804-.12024-.078999-.1661-.00401-.0139-.00582-.0175-.00743-.0202.010147-.007.019849-.014.036461-.0243.052012-.0324.1280073-.0755.2174166-.12424.1788192-.0974.4146355-.2184.6535995-.33557.238966-.11718.481605-.23112.671831-.31465.09511-.0418.17714-.0758.237673-.0986.03027-.0114.05531-.0202.07157-.025.01626-.005.03053-.003.0047-.003.04497 0 .09672-.009.145845-.0425.04913-.0339.08242-.0931.09183-.14382.01882-.10149-.01191-.17662-.05199-.26671-.08017-.18019-.236824-.41489-.476696-.7326-.249599-.33059-.498276-.73967-.682634-1.10194-.09218-.18113-.168277-.35015-.220117-.49087-.04939-.13407-.07249-.24238-.07495-.29102.000688-.002.00016-.002.0013-.005.0075-.0162.022-.0428.04254-.075.04107-.0644.105188-.15235.185007-.25253.159638-.20034.383415-.45301.629293-.70491l1.166757-1.19512h-1.2943717c-.518604 0-1.1104831.0498-1.3949763.13504-.1086565.0326-.2174471.0536-.2964159.0608-.023289.002-.035529.001-.051991.001-.0007408-.003-.0005821-.004-.00135-.007-.011429-.0529-.024543-.13148-.037136-.22553-.025181-.18809-.049108-.44102-.065495-.70829-.016771-.27354-.040275-.52983-.06482-.72585-.012272-.098-.024893-.18089-.037812-.24577-.00646-.0324-.012862-.0595-.020931-.0858-.00807-.0263-.00109-.0463-.054691-.0999-.059632-.0596-.1173795-.0509-.1451698-.0473zm-2.605623 3.17415a2.8365521 2.9623334 0 0 1 2.8365439 2.96213 2.8365521 2.9623334 0 0 1 -2.8365439 2.96213 2.8365521 2.9623334 0 0 1 -2.8365442-2.96213 2.8365521 2.9623334 0 0 1 2.8365442-2.96213z"/><path d="m-.2531179 293.42701a.34585653.34585653 0 0 0 -.3457061.34638.34585653.34585653 0 0 0 .3457061.34571.34585653.34585653 0 0 0 .3457057-.34571.34585653.34585653 0 0 0 -.3457057-.34638zm1.8061781.0128a.34585653.34585653 0 0 0 -.3457059.34638.34585653.34585653 0 0 0 .3457059.3457.34585653.34585653 0 0 0 .3457057-.3457.34585653.34585653 0 0 0 -.3457057-.34638zm-.721796 1.16946-.3828423.0202c.012316.23411.00164.3851-.065495.48075-.067141.0957-.2246437.19544-.6245664.25388l.055367.37947c.1021585-.0149.192845-.0343.2781855-.056.3100335.23186.6917301.29156 1.0080834.13369.137709.061.2883956.0919.4463119.0763l-.037136-.38081c-.1424329.0141-.2558645-.0226-.3774406-.11547-.1057515-.0808-.2119442-.21626-.313296-.38351.022564-.13398.020016-.27189.01283-.4085zm-.2106644.80282c.081992.1094.1697032.20821.2700827.28628-.1824162.0496-.382275.0183-.5691997-.0878.1241036-.0522.2216208-.11887.299117-.19851z"/></g></svg>