<?xml version="1.0" encoding="UTF-8"?>
<!-- Created with Inkscape (http://www.inkscape.org/) -->
<svg width="811.2" height="620.8" version="1.1" viewBox="0 0 811.2 620.8" xmlns="http://www.w3.org/2000/svg" xmlns:cc="http://creativecommons.org/ns#" xmlns:dc="http://purl.org/dc/elements/1.1/" xmlns:rdf="http://www.w3.org/1999/02/22-rdf-syntax-ns#"><metadata><rdf:RDF><cc:Work rdf:about=""><dc:format>image/svg+xml</dc:format><dc:type rdf:resource="http://purl.org/dc/dcmitype/StillImage"/><dc:title/></cc:Work></rdf:RDF></metadata><path d="m278.34 559.92-.57358-1.4338-.42822-13.2-.4282-13.2 1.7802-16 3.798-15.2 2.16-6 2.16-6 7.6789-14.4 3.8438-5.6 6.8199-9.1782 9.9656-10.658 17.6-13.141 24-14.339 28-16.588 10.4-6.631 14.4-9.2456 7.7655-7.4191 6.0189-8.0398 8.6156-2.727 12-7.0653 12.231-10.471 7.7694-10.492 4.5659-8.4052 4.5762-13.03.76967-5.085.76968-5.085 1.0269-11.2-2.4677-16.41-6.6655-13.99-12.611-12.63-.92569.92569 4.9848 15.482 2.3773 13.632-.012 18.59-1.6112 10.4-2.5054 6.8-2.5054 6.8-7.9284 12-9.0375 9.3288-8.8 6.6861-4.6013 2.9539-.68711-1.0844-.68711-1.0844-.0122-.61787-.0122-.61788-6.594-7.1537-5.006-3.0432-12.8-3.4761-16-.86729-14.4 1.7387-24.8 3.9513-19.2 4.0442-18.4 4.1646-16.8 3.8917-18.4 4.0585-9.6 1.4949-1.8531.0322 5.8531 11.405v13.795l-.67376 2.4-.67374 2.4-4.4351-13.167-6.4455-8.537-16.014-8.4192-9.3254-9.7086-4.6591 10.014-.40257 5.6264-.40256 5.6264-2.4752-4.6356-.32802-7.2-.32803-7.2 1.7475-5.2 1.7475-5.2 6.264-11.39 6.3384-7.0103.0876 7.2.96476 3.6h1.1093l6.8374-10.325 8.9464-8.8753h1.2056l.99285 4.4365.99285 4.4365 1.307.80776 5.1639-6.0808 9.1662-9.364 2.0419.68062 2.3659 9.0834 1.6842-.0202 7.7594-8.8471 8.7956-6.4977.6745.68248.67449.6825.24799 4 .248 4 4-.24599 18.4-5.0061 18.4-.94179 13.6 1.8118 4.2036.93107 2.419-13.126-2.177-10.405-3.9325-6.7103-7.4257-6.8447-10.687-5.0082-8.8-.0296-7.2405 3.4508-8.7595 6.0095-9.6919 9.7143-5.8016 7.1732-1.0468-1.0468-.4473-4.9328-.44728-4.9328-4.3623 7.0086-8.3759 7.5307h-1.9733l.62548-3.8.62549-3.8.0477-1 .0473-1-1.2.0476-2.7569 4.8135-2.7569 4.8135-7.6176 7.1254h-2.4686v-9.5056l-1.6-.98885v1.8792l-7.3532 11.061-6.2468 3.1869-.11196-.21626-.11195-.21626-.88805-7.4728-.88804-7.4728-6.4 10.092-10.42 10.854h-1.98v-13.333l-.93429-.93429-8.9379 3.0751-6.5278 3.8498-2.1145 2.2714-2.1146 2.2714-4.8204 9.6-.93752-4-.71568-3.2-.71567-3.2-2.5254-9.2-2.5254-9.2-6.5129-19.2-7.7454-15.6h4.007l5.1205 2.618 6.0046 5.382h1.5509l3.5566-8.4 6.2352-11.956 4.9243-6.4442 7.3284-7.7005 9.0139-5.5022 5.3861-1.0419-5.8088 5.4447-4.1912 8.3468v8.8532h.44762l11.952-11.704 14.4-9.6165 14.4-8.033 16.8-8.0406 12-5.104 8.8-3.669 7.424-2.6984 7.2246-4.7854 2.1253-2.7864 2.1253-2.7864 3.9-8.5186.52023-7.329.52024-7.3291-3.5198-.0946-3.5198-.0947-4.8-1.0422 12.8-3.7921 13.6-5.4541 11.943-6.5521 8.0566-5.6177 4-3.0826 5.6041-5.0699 11.398-9.109 16.598-11.012 20.8-11.388 16.8-7.4071 3.2-1.4385 11.2-4.177 15.2-4.4971 16-3.2796 11.2-1.0893-.81381.87749-13.586 5.5366-16.503 7.5249-15.497 8.0454-12.644 8.8949-23.756 22.275v1.3016l22.8-9.2551 14.4-4.8566 16-4.7603 10.4-2.626 16-3.2291 21.6-3.1641 15.456-3.8712 14.144-4.9847 12-5.7529 15.714-10.185 16.035-15.56 8.8022-11.695 8.3139-16.318 1.6238-4.8 2.7111 11.796-.0173 6.1019-.0173 6.1019-1.5288 6.913-1.5288 6.913-5.5378 10.974-9.5813 12.8-14.235 13.6-3.1538 2.4282-8 5.4043-12.996 6.8688-12.604 4.7435-15.019 4.1975-11.381 1.5175-30.4 4.1834-14.439 4.6162-1.5807 1.1949-1.5807 1.1949 3.5065.0508 34.094-4.2468 69.6-.23384 12.8-2.0524 13.6-3.1439 13.215-4.6983 6.0956-3.1098 8.2892-6.5522v2.6048l-4.0862 8.1354-5.4044 7.297-10.109 9.8087-8.7063 5.8785-11.578 5.5687-11.716 4.0183-19.2 3.773-10.4 1.0278-43.2 1.4274-5.6 1.5424-4.7774 1.0805 2.7131 1.5183 19.664 3.8782 13.6 1.6536 19.2 1.757 14.493 2.9684 12.459 5.6777 11.183 7.4346 11.464 11.477 8.5448 12.38 7.684 16.329 1.6972 5.5218 1.6972 5.5218-.22778.22778-.22778.22777-9.5676-8.7727-10.4-8.5072-10.4-7.181-12.8-7.2026-12.8-4.8603-11.704-1.9375-.65864.65864 13.07 9.5036 16.262 16 8.0247 10.4 6.5727 10.774 5.4049 10.826 4.9104 13.6 1.6802 7.2783 1.6802 7.2783.77277 6.7217.77278 6.7217-.00049 9.2-5e-4 9.2-.81555 7.2-.81556 7.2-3.9801 18.941-1.654 5.3296-1.654 5.3296-2.293 6.4-2.293 6.4-4.8142 12.653-1.8225 1.7474.49943-4 .49942-4 .45648-20.082.45647-20.082-2.0462-11.137-2.0462-11.137-2.0903-5.5807-2.0903-5.5807-1.4838-1.52-.154.72-1.296 39.2-4.0448 25.6-4.1993 16.8-3.9572 11.2-4.3106 10.4-3.1302 5.6-3.1302 5.6-4.8449 6.4-9.7329 10.134-6.8 4.7426v-1.4757l2.5263-7.0012 4.5331-15.2 4.0535-16 .8851-4.8 1.5283-18.4-.57713-2.7079-.57714-2.7079-3.8237 11.016-4.7266 9.6-10.52 16-21.701 21.602-16.8 11.117-5.6 3.5479-15.216 7.1936-8.7837 3.4323-13.6 4.9065-9.6 2.7902-19.2 5.8604-16.8 4.8868-9.6 2.8949-16.8 5.133-20.8 7.2786-11.717 5.3565h-.51059l-13.373 7.5171-13.562 9.6829-15.761 15.114-9.688 12.086-1.1922.46763-.57358-1.4338zm102.38-339.74 4-1.0864 9.3169-4.1698-1.0113-1.6364h-2.8898l-3.8158-2.9609-10.095-4.5004-12.305-.1387-5.6 3.2514-2 3.8518-2 3.8518-4.4 2.2961v1.4764l5.2.85001 4.8.69075 16.8-.6894z" stroke-width=".8"/></svg>