<?xml version="1.0" encoding="UTF-8" standalone="no"?>
<!-- Created with Inkscape (http://www.inkscape.org/) -->

<svg
   xmlns:dc="http://purl.org/dc/elements/1.1/"
   xmlns:cc="http://creativecommons.org/ns#"
   xmlns:rdf="http://www.w3.org/1999/02/22-rdf-syntax-ns#"
   xmlns:svg="http://www.w3.org/2000/svg"
   xmlns="http://www.w3.org/2000/svg"
   xmlns:sodipodi="http://sodipodi.sourceforge.net/DTD/sodipodi-0.dtd"
   xmlns:inkscape="http://www.inkscape.org/namespaces/inkscape"
   width="620.79999"
   height="620.79999"
   version="1.1"
   viewBox="0 0 620.79998 620.8"
   id="svg6"
   sodipodi:docname="dragon.svg"
   inkscape:version="0.92.3 (2405546, 2018-03-11)">
  <defs
     id="defs10" />
  <sodipodi:namedview
     pagecolor="#ffffff"
     bordercolor="#666666"
     borderopacity="1"
     objecttolerance="10"
     gridtolerance="10"
     guidetolerance="10"
     inkscape:pageopacity="0"
     inkscape:pageshadow="2"
     inkscape:window-width="1263"
     inkscape:window-height="769"
     id="namedview8"
     showgrid="false"
     inkscape:zoom="0.38015465"
     inkscape:cx="74.155945"
     inkscape:cy="310.39999"
     inkscape:window-x="57"
     inkscape:window-y="0"
     inkscape:window-maximized="0"
     inkscape:current-layer="svg6" />
  <metadata
     id="metadata2">
    <rdf:RDF>
      <cc:Work
         rdf:about="">
        <dc:format>image/svg+xml</dc:format>
        <dc:type
           rdf:resource="http://purl.org/dc/dcmitype/StillImage" />
        <dc:title></dc:title>
      </cc:Work>
    </rdf:RDF>
  </metadata>
  <path
     d="m 190.34,565.92 -0.57358,-1.4338 -0.42822,-13.2 -0.4282,-13.2 1.7802,-16 3.798,-15.2 2.16,-6 2.16,-6 7.6789,-14.4 3.8438,-5.6 6.8199,-9.1782 9.9656,-10.658 17.6,-13.141 24,-14.339 28,-16.588 10.4,-6.631 14.4,-9.2456 7.7655,-7.4191 6.0189,-8.0398 8.6156,-2.727 12,-7.0653 12.231,-10.471 7.7694,-10.492 4.5659,-8.4052 4.5762,-13.03 0.76967,-5.085 0.76968,-5.085 1.0269,-11.2 -2.4677,-16.41 -6.6655,-13.99 -12.611,-12.63 -0.92569,0.92569 4.9848,15.482 2.3773,13.632 -0.012,18.59 -1.6112,10.4 -2.5054,6.8 -2.5054,6.8 -7.9284,12 -9.0375,9.3288 -8.8,6.6861 -4.6013,2.9539 -0.68711,-1.0844 -0.68711,-1.0844 -0.0122,-0.61787 -0.0122,-0.61788 -6.594,-7.1537 -5.006,-3.0432 -12.8,-3.4761 -16,-0.86729 -14.4,1.7387 -24.8,3.9513 -19.2,4.0442 -18.4,4.1646 -16.8,3.8917 -18.4,4.0585 -9.6,1.4949 -1.8531,0.0322 5.8531,11.405 v 13.795 l -0.67376,2.4 -0.67374,2.4 -4.4351,-13.167 -6.4455,-8.537 -16.014,-8.4192 -9.3254,-9.7086 -4.6591,10.014 -0.40257,5.6264 -0.40256,5.6264 -2.4752,-4.6356 -0.32802,-7.2 -0.32803,-7.2 1.7475,-5.2 1.7475,-5.2 6.264,-11.39 6.3384,-7.0103 0.0876,7.2 0.96476,3.6 h 1.1093 l 6.8374,-10.325 8.9464,-8.8753 h 1.2056 l 0.99285,4.4365 0.99285,4.4365 1.307,0.80776 5.1639,-6.0808 9.1662,-9.364 2.0419,0.68062 2.3659,9.0834 1.6842,-0.0202 7.7594,-8.8471 8.7956,-6.4977 0.6745,0.68248 0.67449,0.6825 0.24799,4 0.248,4 4,-0.24599 18.4,-5.0061 18.4,-0.94179 13.6,1.8118 4.2036,0.93107 2.419,-13.126 -2.177,-10.405 -3.9325,-6.7103 -7.4257,-6.8447 -10.687,-5.0082 -8.8,-0.0296 -7.2405,3.4508 -8.7595,6.0095 -9.6919,9.7143 -5.8016,7.1732 -1.0468,-1.0468 -0.4473,-4.9328 -0.44728,-4.9328 -4.3623,7.0086 -8.3759,7.5307 h -1.9733 l 0.62548,-3.8 0.62549,-3.8 0.0477,-1 0.0473,-1 -1.2,0.0476 -2.7569,4.8135 -2.7569,4.8135 -7.6176,7.1254 h -2.4686 v -9.5056 l -1.6,-0.98885 v 1.8792 l -7.3532,11.061 -6.2468,3.1869 -0.11196,-0.21626 -0.11195,-0.21626 -0.88805,-7.4728 -0.88804,-7.4728 -6.4,10.092 -10.42,10.854 h -1.98 v -13.333 l -0.93429,-0.93429 -8.9379,3.0751 -6.5278,3.8498 -2.1145,2.2714 -2.1146,2.2714 -4.8204,9.6 -0.93752,-4 -0.71568,-3.2 -0.71567,-3.2 -2.5254,-9.2 -2.5254,-9.2 -6.5129,-19.2 -7.7454,-15.6 h 4.007 l 5.1205,2.618 6.0046,5.382 h 1.5509 l 3.5566,-8.4 6.2352,-11.956 4.9243,-6.4442 7.3284,-7.7005 9.0139,-5.5022 5.3861,-1.0419 -5.8088,5.4447 -4.1912,8.3468 v 8.8532 h 0.44762 l 11.952,-11.704 14.4,-9.6165 14.4,-8.033 16.8,-8.0406 12,-5.104 8.8,-3.669 7.424,-2.6984 7.2246,-4.7854 2.1253,-2.7864 2.1253,-2.7864 3.9,-8.5186 0.52023,-7.329 0.52024,-7.3291 -3.5198,-0.0946 -3.5198,-0.0947 -4.8,-1.0422 12.8,-3.7921 13.6,-5.4541 11.943,-6.5521 8.0566,-5.6177 4,-3.0826 5.6041,-5.0699 11.398,-9.109 16.598,-11.012 20.8,-11.388 16.8,-7.4071 3.2,-1.4385 11.2,-4.177 15.2,-4.497096 16,-3.2796 11.2,-1.0893 -0.81381,0.87749 -13.586,5.536596 -16.503,7.5249 -15.497,8.0454 -12.644,8.8949 -23.756,22.275 v 1.3016 l 22.8,-9.2551 14.4,-4.8566 16,-4.7603 10.4,-2.626 16,-3.2291 21.6,-3.1641 15.456,-3.8712 14.144,-4.9847 12,-5.7529 15.714,-10.184996 16.035,-15.56 8.8022,-11.695 8.3139,-16.318 1.6238,-4.8 2.7111,11.796 -0.0173,6.1019 -0.0173,6.1019 -1.5288,6.913 -1.5288,6.913 -5.5378,10.974 -9.5813,12.799996 -14.235,13.6 -3.1538,2.4282 -8,5.4043 -12.996,6.8688 -12.604,4.7435 -15.019,4.1975 -11.381,1.5175 -30.4,4.1834 -14.439,4.6162 -1.5807,1.1949 -1.5807,1.1949 3.5065,0.0508 34.094,-4.2468 69.6,-0.23384 12.8,-2.0524 13.6,-3.1439 13.215,-4.6983 6.0956,-3.1098 8.2892,-6.5522 v 2.6048 l -4.0862,8.1354 -5.4044,7.297 -10.109,9.8087 -8.7063,5.8785 -11.578,5.5687 -11.716,4.0183 -19.2,3.773 -10.4,1.0278 -43.2,1.4274 -5.6,1.5424 -4.7774,1.0805 2.7131,1.5183 19.664,3.8782 13.6,1.6536 19.2,1.757 14.493,2.9684 12.459,5.6777 11.183,7.4346 11.464,11.477 8.5448,12.38 7.684,16.329 1.6972,5.5218 1.6972,5.5218 -0.22778,0.22778 -0.22778,0.22777 -9.5676,-8.7727 -10.4,-8.5072 -10.4,-7.181 -12.8,-7.2026 -12.8,-4.8603 -11.704,-1.9375 -0.65864,0.65864 13.07,9.5036 16.262,16 8.0247,10.4 6.5727,10.774 5.4049,10.826 4.9104,13.6 1.6802,7.2783 1.6802,7.2783 0.77277,6.7217 0.77278,6.7217 -4.9e-4,9.2 -5e-4,9.2 -0.81555,7.2 -0.81556,7.2 -3.9801,18.941 -1.654,5.3296 -1.654,5.3296 -2.293,6.4 -2.293,6.4 -4.8142,12.653 -1.8225,1.7474 0.49943,-4 0.49942,-4 0.45648,-20.082 0.45647,-20.082 -2.0462,-11.137 -2.0462,-11.137 -2.0903,-5.5807 -2.0903,-5.5807 -1.4838,-1.52 -0.154,0.72 -1.296,39.2 -4.0448,25.6 -4.1993,16.8 -3.9572,11.2 -4.3106,10.4 -3.1302,5.6 -3.1302,5.6 -4.8449,6.4 -9.7329,10.134 -6.8,4.7426 v -1.4757 l 2.5263,-7.0012 4.5331,-15.2 4.0535,-16 0.8851,-4.8 1.5283,-18.4 -0.57713,-2.7079 -0.57714,-2.7079 -3.8237,11.016 -4.7266,9.6 -10.52,16 -21.701,21.602 -16.8,11.117 -5.6,3.5479 -15.216,7.1936 -8.7837,3.4323 -13.6,4.9065 -9.6,2.7902 -19.2,5.8604 -16.8,4.8868 -9.6,2.8949 -16.8,5.133 -20.8,7.2786 -11.717,5.3565 h -0.51059 l -13.373,7.5171 -13.562,9.6829 -15.761,15.114 -9.688,12.086 -1.1922,0.46763 -0.57358,-1.4338 z m 102.38,-339.74 4,-1.0864 9.3169,-4.1698 -1.0113,-1.6364 h -2.8898 l -3.8158,-2.9609 -10.095,-4.5004 -12.305,-0.1387 -5.6,3.2514 -2,3.8518 -2,3.8518 -4.4,2.2961 v 1.4764 l 5.2,0.85001 4.8,0.69075 16.8,-0.6894 z"
     id="path4"
     inkscape:connector-curvature="0"
     style="stroke-width:0.80000001" />
  <path
     style="opacity:1;fill:#008000;fill-opacity:1;stroke:none;stroke-width:2.63050842;stroke-miterlimit:4;stroke-dasharray:2.63050842, 2.63050842;stroke-dashoffset:0;stroke-opacity:0.22222224"
     d="m 190.95052,544.22302 c 0,-33.88318 11.55133,-62.27292 34.34511,-84.41015 6.7036,-6.51051 29.8319,-22.45457 51.39621,-35.43124 21.5643,-12.97669 43.94274,-27.91566 49.72986,-33.19778 5.78712,-5.28208 15.40872,-12.07532 21.38134,-15.09606 38.48188,-19.46282 53.34778,-77.35768 27.3381,-106.46755 -8.795,-9.84333 -12.40464,-8.23125 -8.2507,3.68479 1.61406,4.63008 2.93465,17.47911 2.93465,28.55338 0,24.28031 -7.91593,42.88356 -23.49934,55.22585 l -9.93331,7.86732 -5.99497,-6.38135 c -3.67899,-3.91611 -11.30516,-7.48374 -19.74053,-9.23492 -16.4283,-3.41048 -30.73648,-1.53859 -95.50826,12.4951 -42.31692,9.16853 -45.39135,10.2296 -43.81509,15.12145 0.93237,2.89356 2.22472,8.8122 2.87189,13.15254 l 1.17667,7.89152 -3.86282,-8.3986 c -2.2959,-4.99179 -8.01282,-10.5158 -14.09349,-13.61794 -5.62686,-2.87059 -11.77607,-7.08138 -13.66491,-9.35729 -5.10993,-6.1571 -7.62684,-5.08638 -10.36914,4.41112 l -2.46848,8.54916 -0.17948,-7.89153 c -0.0987,-4.34034 2.16711,-13.06308 5.03514,-19.38385 4.36216,-9.61361 5.84805,-10.96661 9.08943,-8.2765 3.18247,2.64122 5.11504,1.74187 10.81608,-5.03345 6.09014,-7.23771 7.31528,-7.73777 9.99129,-4.0781 2.70618,3.70091 3.76133,3.41395 9.35989,-2.54544 7.25673,-7.72441 10.65384,-8.52103 10.65384,-2.4983 0,3.08119 2.6579,1.8846 9.86005,-4.43896 8.43107,-7.40259 9.99085,-7.97804 10.7626,-3.97064 0.76686,3.98198 2.34942,4.35275 10.52639,2.46607 5.29312,-1.22126 18.70786,-2.21497 29.81054,-2.20821 l 20.18669,0.0132 1.53258,-7.66287 c 3.49394,-17.47059 -17.25029,-38.89329 -33.6701,-34.77218 -3.97736,0.99825 -12.48838,6.66057 -18.91338,12.58292 -8.13263,7.4964 -11.68181,9.46733 -11.68181,6.48714 0,-5.98856 -1.91898,-5.37591 -9.24983,2.95311 -5.64585,6.41459 -6.37638,6.64929 -6.45009,2.07225 -0.0688,-4.27015 -1.42767,-3.58864 -7.86775,3.94576 -7.58454,8.87335 -7.78737,8.94095 -7.89152,2.63051 -0.10417,-6.31044 -0.30699,-6.24283 -7.89153,2.63051 l -7.78462,9.10741 -0.1069,-7.2339 c -0.0588,-3.97864 -0.86926,-7.2339 -1.80102,-7.2339 -0.93176,0 -5.6174,4.43899 -10.41253,9.86441 l -8.71843,9.86441 -0.10951,-7.41117 c -0.0948,-6.4174 -0.90311,-7.18344 -6.02813,-5.71289 -3.25526,0.93404 -8.97939,4.95783 -12.72029,8.94176 l -6.80164,7.2435 -4.58149,-17.31365 c -2.51982,-9.52251 -6.790825,-22.3445 -9.491122,-28.49331 -4.888805,-11.13225 -3.54741,-14.74478 2.686066,-7.2339 4.753586,5.72772 6.847886,4.92442 10.566406,-4.0529 4.26014,-10.28487 17.67219,-28.82846 20.85081,-28.82846 1.35699,0 1.74058,4.36318 0.86043,9.78695 l -1.58821,9.78696 11.61799,-9.96557 c 11.11144,-9.53105 49.4179,-30.12686 72.50895,-38.98508 12.34501,-4.73581 18.87133,-13.04882 21.11922,-26.90096 1.30858,-8.06386 0.79791,-9.49436 -3.40837,-9.54744 -2.72116,-0.0344 1.59154,-2.75287 9.58379,-6.04118 13.82945,-5.68994 18.67613,-8.79802 52.54661,-33.6971 16.89756,-12.42184 45.32846,-27.27141 65.51689,-34.21972 24.39707,-8.396812 26.65018,-5.576776 5.06067,6.33405 -19.72752,10.88358 -49.30203,34.59807 -46.56317,37.33693 0.75848,0.75849 11.04707,-2.14933 22.86353,-6.4618 22.90418,-8.35899 40.89575,-13.00743 76.75597,-19.83128 40.13412,-7.63712 72.11897,-28.432323 87.18494,-56.68398 l 6.19811,-11.622639 0.86586,10.522034 c 1.34127,16.299309 -3.74284,28.657463 -18.37692,44.669475 -21.94954,24.0163 -41.32355,33.13241 -84.05479,39.55054 -23.85161,3.58246 -41.21046,8.14473 -38.87355,10.21678 0.56235,0.49861 27.65635,0.0168 60.2089,-1.07063 49.02128,-1.63761 62.10364,-2.91715 76.17184,-7.45012 9.34196,-3.01011 17.54715,-4.91117 18.23374,-4.22458 2.89208,2.89208 -17.21584,19.63555 -30.91279,25.74048 -16.2279,7.233 -46.13752,12.23361 -73.54754,12.29647 -17.05541,0.0391 -27.39578,2.89921 -22.16643,6.13113 1.39543,0.86242 17.20621,3.47142 35.13507,5.79778 46.54111,6.03894 61.73014,15.14356 77.63919,46.53855 3.63408,7.17151 6.16597,13.48055 5.62642,14.02009 -0.53954,0.53954 -5.27709,-2.56024 -10.5279,-6.8884 -13.7891,-11.36614 -38.12311,-23.5513 -47.03244,-23.5513 -7.38746,0 -6.98129,0.6532 10.88873,17.51088 14.0319,13.23697 20.94448,22.38593 28.322,37.48474 9.67191,19.79449 9.75961,20.26918 9.76482,52.85523 0.005,27.85761 -0.98463,35.8956 -6.47382,52.61017 l -6.47912,19.72881 -1.73958,-30.25085 c -0.95677,-16.63796 -3.26941,-33.80203 -5.13923,-38.14237 l -3.39967,-7.89152 -1.99684,11.83728 c -1.09827,6.51051 -2.10512,17.75594 -2.23749,24.98983 -0.36117,19.739 -7.00188,47.5576 -15.64355,65.53239 -7.96079,16.55855 -19.83122,32.81404 -22.23098,30.44332 -0.7533,-0.7442 0.91618,-9.59654 3.70999,-19.67186 2.79381,-10.07535 5.03642,-24.26305 4.98358,-31.52828 l -0.096,-13.20947 -6.93581,14.4678 c -10.24264,21.36573 -39.44444,49.44014 -63.89578,61.42895 -10.85085,5.32031 -43.39103,16.83972 -72.31151,25.59869 -61.63233,18.66622 -78.38513,26.78899 -100.64447,48.79853 l -16.44068,16.25618 z M 298.40883,225.44029 c 4.55623,-1.58831 8.28406,-3.73652 8.28406,-4.77381 0,-3.06067 -18.02985,-10.75191 -25.20468,-10.75191 -6.19405,0 -19.51396,11.03545 -19.51396,16.16717 0,3.23654 26.65641,2.76724 36.43458,-0.64145 z"
     id="path817"
     inkscape:connector-curvature="0" />
</svg>
