<?xml version="1.0" encoding="UTF-8" standalone="no"?>
<svg
   width="50"
   height="50"
   viewBox="0 0 13.229166 13.229167"
   version="1.1"
   id="svg1579"
   sodipodi:docname="FogOfWar.svg"
   inkscape:version="1.3 (0e150ed6c4, 2023-07-21)"
   xml:space="preserve"
   xmlns:inkscape="http://www.inkscape.org/namespaces/inkscape"
   xmlns:sodipodi="http://sodipodi.sourceforge.net/DTD/sodipodi-0.dtd"
   xmlns="http://www.w3.org/2000/svg"
   xmlns:svg="http://www.w3.org/2000/svg"
   xmlns:rdf="http://www.w3.org/1999/02/22-rdf-syntax-ns#"
   xmlns:cc="http://creativecommons.org/ns#"
   xmlns:dc="http://purl.org/dc/elements/1.1/"><defs
     id="defs1573" /><sodipodi:namedview
     id="base"
     pagecolor="#ffffff"
     bordercolor="#666666"
     borderopacity="1.0"
     inkscape:pageopacity="0.0"
     inkscape:pageshadow="2"
     inkscape:zoom="7.919596"
     inkscape:cx="79.360109"
     inkscape:cy="71.278889"
     inkscape:document-units="px"
     inkscape:current-layer="layer1"
     showgrid="false"
     units="px"
     showguides="true"
     inkscape:window-width="3840"
     inkscape:window-height="2036"
     inkscape:window-y="-12"
     inkscape:window-maximized="1"
     inkscape:lockguides="true"
     inkscape:document-rotation="0"
     inkscape:showpageshadow="2"
     inkscape:pagecheckerboard="0"
     inkscape:deskcolor="#d1d1d1" /><metadata
     id="metadata1576"><rdf:RDF><cc:Work
         rdf:about=""><dc:format>image/svg+xml</dc:format><dc:type
           rdf:resource="http://purl.org/dc/dcmitype/StillImage" /></cc:Work></rdf:RDF></metadata><g
     inkscape:label="Layer 1"
     inkscape:groupmode="layer"
     id="layer1"
     transform="translate(0,-283.77082)"
     style="opacity:0.98999999"><path
       style="fill:#90c1d5;fill-opacity:0.984314;stroke-width:0.0432794"
       d="m 7.783963,287.71606 c -1.2948563,-0.1395 -2.4089846,-1.24864 -3.7306167,-1.18375 -0.5207411,-0.009 -0.9554929,0.40265 -1.2888916,0.85846 -0.3306985,0.36349 -0.8954425,-0.0759 -0.7930192,-0.6003 0.1115151,-0.45144 0.4652965,-0.7395 0.7580858,-1.00983 0.8690457,-0.70986 1.9920909,-0.57528 2.930809,-0.17181 0.7612927,0.29613 1.4848879,0.80134 2.2924146,0.87049 0.5154665,0.0657 0.9798081,-0.31065 1.2968824,-0.78326 0.2605097,-0.42794 0.8875307,-0.17201 0.8769987,0.37032 0.0014,0.4885 -0.3966759,0.77353 -0.6514928,1.07504 -0.4817019,0.46256 -1.0899632,0.63932 -1.6911702,0.57464 z"
       id="path3" /><path
       style="fill:#90c1d5;fill-opacity:0.984314;stroke-width:0.0432794"
       d="m 10.370488,291.57431 c -1.3142844,-0.1348 -2.4464643,-1.26406 -3.7872314,-1.19094 -0.5066825,0.0158 -0.9362017,0.40275 -1.2563878,0.8603 -0.308927,0.34485 -0.8605459,-0.0154 -0.8051847,-0.52676 0.057101,-0.47344 0.4357387,-0.75802 0.7139586,-1.03832 0.8491592,-0.73237 1.9698421,-0.63286 2.9065442,-0.24217 0.7885576,0.29629 1.5326113,0.82721 2.3662311,0.90039 0.491753,0.0617 0.941558,-0.27655 1.254164,-0.72152 0.134971,-0.21801 0.3416,-0.32275 0.557566,-0.26506 0.39244,0.108 0.501456,0.7905 0.195181,1.09909 -0.475051,0.69061 -1.179115,1.17484 -1.925649,1.12849 -0.07306,8.6e-4 -0.14625,0.003 -0.219192,-0.003 z"
       id="path1" /><path
       style="fill:#90c1d5;fill-opacity:0.984314;stroke-width:0.0432794"
       d="m 6.4717471,295.35992 c -1.3142842,-0.1348 -2.4464642,-1.26406 -3.7872313,-1.19094 -0.5066831,0.0158 -0.936201,0.40275 -1.2563878,0.8603 -0.308927,0.34485 -0.86054579,-0.0154 -0.80518459,-0.52676 0.0571,-0.47344 0.43573869,-0.75802 0.71395859,-1.03832 0.8506699,-0.73511 1.9725735,-0.63077 2.9107462,-0.24111 0.7827685,0.29467 1.5209573,0.82295 2.3484803,0.89836 0.4959885,0.067 0.9538734,-0.26859 1.2677124,-0.72055 0.1349707,-0.21802 0.3415996,-0.32275 0.5575662,-0.26507 0.3924401,0.10802 0.5014555,0.79051 0.1951811,1.0991 -0.4750502,0.69061 -1.1791152,1.17484 -1.9256487,1.12848 -0.073055,8.6e-4 -0.1462506,0.003 -0.2191924,-0.003 z"
       id="path2" /></g></svg>
