<svg height="50" viewBox="0 0 13.229166 13.229167" width="50" xmlns="http://www.w3.org/2000/svg"><path d="m8.6808608 285.30855c-.1585561.11895-.277473.31711-.396389.47566-.3567509.51531-.6738601 1.10988-1.1495269 1.50629-.2774731.23783-.6342232.31709-.9513332.35674-.515307 0-1.0306108-.0793-1.4666378-.35674-.4756671-.35676-.8324171-.87207-1.2684451-1.3081 0-.0793-.118909 0-.158555.0398-.317112.47566-.554944.99097-.792778 1.50628-.436028.87205-.832416 1.78374-1.030611 2.73507-.03964.35676-.07929.67386-.03964 1.03062.158556.0793.356751.0396.515305.0793h1.545916c.198196.0398.39639 0 .554946.11896.07928.0793-.03963.15855-.07929.15855-.436029.11895-.872055.0793-1.308084.11895-.356749.0398-.713499 0-1.070249.0793-.158555.0396-.118924.27747-.118924.3964.03963.15855.03963.3171.03963.47567.07928.11896.237833.0793.35675.0793.475666.0397.911694 0 1.387362.0793.118909.0396.237832.0792.277471.23784-.03963.11895-.198193.0793-.31711.11895-.35675.0395-.7135 0-1.07025 0-.07928.0395-.198195.0395-.198195.11896-.03963.27747.198195.47566.356751.63421.594583.55495 1.387361.9117 2.180137 1.14954.713499.23782 1.4666381.31709 2.1801389.31709 1.0702491.0398 2.1801381-.11894 3.0918322-.71349.5945831-.35675 1.1495271-.83241 1.5062781-1.46664.118909-.27745.277472-.5153.317111-.79277-.03963-.0793-.158556-.0397-.198195-.0397-.475667-.0397-.951332 0-1.4270001-.0793-.07928-.0398-.2378331-.0398-.2774711-.15856.03963-.11895.198193-.11895.2774711-.15855.5945841-.0793 1.1891671-.0397 1.7837501-.0793.07928-.0397.03963-.15854.07928-.27747 0-.27748.03963-.55494-.07928-.8324-.03963-.0793-.158555-.0397-.237833-.0397-.594584-.0398-1.189167.0397-1.7837502-.0398-.03963 0-.158554-.11895-.03963-.15855.3963892-.15856.8324172-.15856 1.2684452-.15856.237833-.0397.515305 0 .753139-.0397.03963-.0793 0-.1982-.03963-.27747-.35675-1.26844-.990972-2.4576-1.7441121-3.48823-.3567501-.55493-.753138-.99095-1.2288051-1.34771zm-.6342229 4.3999c.3171118 0 .5945838.35676.515307.67388-.03963.27746-.3567502.47566-.673862.43603-.2774712-.0397-.4756671-.35676-.436028-.63425.07929-.27745.3171118-.51528.594583-.47566zm-2.972916.0398c.3567499 0 .6342229.35675.554944.67386-.07928.35675-.554944.55495-.872054.31711-.158555-.15856-.2774712-.35675-.1981951-.59458.03963-.23783.2378339-.43603.5153051-.39639zm1.7441108 1.78375c.158555.0793.158555.31711.1981952.47566.03963.23784.07929.47568.31711.55495.1981959.11895.4756668.15857.594583.3171 0 .0793-.118909.11897-.198193.11897-.277473 0-.5153062-.19822-.7531402-.31712-.198193-.0793-.4360259-.0793-.634221.0396-.1981949.11895-.4756669.23783-.7135008.0793-.03963-.0398-.1189231-.0793-.03963-.11896.2378329-.19819.594583-.19819.7927779-.47566.2378332-.15856.2378332-.47568.436027-.67387z" fill="#8d6c46" opacity=".99" transform="translate(0 -283.77082)"/></svg>