<?xml version="1.0" encoding="UTF-8" standalone="no"?>
<svg
   xmlns:dc="http://purl.org/dc/elements/1.1/"
   xmlns:cc="http://creativecommons.org/ns#"
   xmlns:rdf="http://www.w3.org/1999/02/22-rdf-syntax-ns#"
   xmlns:svg="http://www.w3.org/2000/svg"
   xmlns="http://www.w3.org/2000/svg"
   xmlns:sodipodi="http://sodipodi.sourceforge.net/DTD/sodipodi-0.dtd"
   xmlns:inkscape="http://www.inkscape.org/namespaces/inkscape"
   width="50"
   height="50"
   viewBox="0 0 13.229166 13.229167"
   version="1.1"
   id="svg1579"
   inkscape:version="1.0.1 (3bc2e813f5, 2020-09-07)"
   sodipodi:docname="Gorogoro.svg">
  <defs
     id="defs1573">
    <inkscape:path-effect
       effect="mirror_symmetry"
       start_point="-15.691712,-45.362002"
       end_point="-15.691712,4.437998"
       center_point="-15.691712,-20.462002"
       id="path-effect7365"
       is_visible="true"
       mode="free"
       discard_orig_path="false"
       fuse_paths="true"
       oposite_fuse="false" />
  </defs>
  <sodipodi:namedview
     id="base"
     pagecolor="#ffffff"
     bordercolor="#666666"
     borderopacity="1.0"
     inkscape:pageopacity="0.0"
     inkscape:pageshadow="2"
     inkscape:zoom="1.979899"
     inkscape:cx="166.63282"
     inkscape:cy="92.517835"
     inkscape:document-units="px"
     inkscape:current-layer="layer1"
     showgrid="false"
     units="px"
     showguides="true"
     inkscape:window-width="3360"
     inkscape:window-height="1780"
     inkscape:window-x="6708"
     inkscape:window-y="1085"
     inkscape:window-maximized="1"
     inkscape:document-rotation="0" />
  <metadata
     id="metadata1576">
    <rdf:RDF>
      <cc:Work
         rdf:about="">
        <dc:format>image/svg+xml</dc:format>
        <dc:type
           rdf:resource="http://purl.org/dc/dcmitype/StillImage" />
        <dc:title></dc:title>
      </cc:Work>
    </rdf:RDF>
  </metadata>
  <g
     inkscape:label="Layer 1"
     inkscape:groupmode="layer"
     id="layer1"
     transform="translate(0,-283.77082)">
    <path
       class="st4"
       d="m 8.6808609,285.30855 c -0.158556,0.11895 -0.277473,0.31711 -0.396389,0.47566 -0.356751,0.51531 -0.67386,1.10988 -1.149527,1.50629 -0.277473,0.23783 -0.634223,0.31709 -0.951333,0.35674 -0.515307,0 -1.030611,-0.0793 -1.466638,-0.35674 -0.475667,-0.35676 -0.832417,-0.87207 -1.268445,-1.3081 0,-0.0793 -0.118909,0 -0.158555,0.0398 -0.317112,0.47566 -0.554944,0.99097 -0.792778,1.50628 -0.436028,0.87205 -0.832416,1.78374 -1.030611,2.73507 -0.03964,0.35676 -0.07929,0.67386 -0.03964,1.03062 0.158556,0.0793 0.356751,0.0396 0.515305,0.0793 0.515305,0 1.030613,0 1.545916,0 0.198196,0.0398 0.39639,0 0.554946,0.11896 0.07928,0.0793 -0.03963,0.15855 -0.07929,0.15855 -0.436029,0.11895 -0.872055,0.0793 -1.308084,0.11895 -0.356749,0.0398 -0.713499,0 -1.070249,0.0793 -0.158555,0.0396 -0.118924,0.27747 -0.118924,0.3964 0.03963,0.15855 0.03963,0.3171 0.03963,0.47567 0.07928,0.11896 0.237833,0.0793 0.35675,0.0793 0.475666,0.0397 0.911694,0 1.387362,0.0793 0.118909,0.0396 0.237832,0.0792 0.277471,0.23784 -0.03963,0.11895 -0.198193,0.0793 -0.31711,0.11895 -0.35675,0.0395 -0.7135,0 -1.07025,0 -0.07928,0.0395 -0.198195,0.0395 -0.198195,0.11896 -0.03963,0.27747 0.198195,0.47566 0.356751,0.63421 0.594583,0.55495 1.387361,0.9117 2.180137,1.14954 0.713499,0.23782 1.466638,0.31709 2.180139,0.31709 1.070249,0.0398 2.180138,-0.11894 3.091832,-0.71349 0.5945831,-0.35675 1.1495271,-0.83241 1.5062781,-1.46664 0.118909,-0.27745 0.277472,-0.5153 0.317111,-0.79277 -0.03963,-0.0793 -0.158556,-0.0397 -0.198195,-0.0397 -0.475667,-0.0397 -0.951332,0 -1.4270001,-0.0793 -0.07928,-0.0398 -0.237833,-0.0398 -0.277471,-0.15856 0.03963,-0.11895 0.198193,-0.11895 0.277471,-0.15855 0.5945841,-0.0793 1.1891671,-0.0397 1.7837501,-0.0793 0.07928,-0.0397 0.03963,-0.15854 0.07928,-0.27747 0,-0.27748 0.03963,-0.55494 -0.07928,-0.8324 -0.03963,-0.0793 -0.158555,-0.0397 -0.237833,-0.0397 -0.594584,-0.0398 -1.189167,0.0397 -1.7837501,-0.0398 -0.03963,0 -0.158554,-0.11895 -0.03963,-0.15855 0.3963891,-0.15856 0.8324171,-0.15856 1.2684451,-0.15856 0.237833,-0.0397 0.515305,0 0.753139,-0.0397 0.03963,-0.0793 0,-0.1982 -0.03963,-0.27747 -0.35675,-1.26844 -0.990972,-2.4576 -1.7441121,-3.48823 -0.35675,-0.55493 -0.753138,-0.99095 -1.228805,-1.34771 z m -0.634223,4.3999 c 0.317112,0 0.594584,0.35676 0.515307,0.67388 -0.03963,0.27746 -0.35675,0.47566 -0.673862,0.43603 -0.277471,-0.0397 -0.475667,-0.35676 -0.436028,-0.63425 0.07929,-0.27745 0.317112,-0.51528 0.594583,-0.47566 z m -2.972916,0.0398 c 0.35675,0 0.634223,0.35675 0.554944,0.67386 -0.07928,0.35675 -0.554944,0.55495 -0.872054,0.31711 -0.158555,-0.15856 -0.277471,-0.35675 -0.198195,-0.59458 0.03963,-0.23783 0.237834,-0.43603 0.515305,-0.39639 z m 1.744111,1.78375 c 0.158555,0.0793 0.158555,0.31711 0.198195,0.47566 0.03963,0.23784 0.07929,0.47568 0.31711,0.55495 0.198196,0.11895 0.475667,0.15857 0.594583,0.3171 0,0.0793 -0.118909,0.11897 -0.198193,0.11897 -0.277473,0 -0.515306,-0.19822 -0.75314,-0.31712 -0.198193,-0.0793 -0.436026,-0.0793 -0.634221,0.0396 -0.198195,0.11895 -0.475667,0.23783 -0.713501,0.0793 -0.03963,-0.0398 -0.118923,-0.0793 -0.03963,-0.11896 0.237833,-0.19819 0.594583,-0.19819 0.792778,-0.47566 0.237833,-0.15856 0.237833,-0.47568 0.436027,-0.67387 z"
       id="path912"
       style="fill:#3771c8;fill-opacity:1;stroke-width:0.396389" />
  </g>
</svg>
