<svg height="50" viewBox="0 0 13.229166 13.229167" width="50" xmlns="http://www.w3.org/2000/svg"><path d="m24.789062 2.5585938-5.488281 5.3320312-7.578125-1.0546875-1.30664 7.5390625-6.7500004 3.601562 3.375 6.867188-3.3457031 6.882812 6.7675785 3.570313 1.33789 7.535156 7.574219-1.089843 5.511719 5.308593 5.488281-5.332031 7.578125 1.054688 1.306641-7.539063 6.751953-3.601563-3.376953-6.867187 3.345703-6.880859-6.767578-3.572266-1.337891-7.5332031-7.574219 1.0878906zm.048829 6.1757812a16.071429 16.071429 0 0 1 16.072265 16.070313 16.071429 16.071429 0 0 1 -16.072265 16.072265 16.071429 16.071429 0 0 1 -16.072266-16.072265 16.071429 16.071429 0 0 1 16.072266-16.070313z" fill="#8a0" opacity=".99" transform="scale(.26458333)"/></svg>