<svg height="50" viewBox="0 0 13.229166 13.229167" width="50" xmlns="http://www.w3.org/2000/svg"><path d="m25.03125 1.6171875c-7.155249 5.2822678-29.7102205 24.6386715-20.8164062 24.6386715h5.7578124v21.111329h30.0585938v-21.111329h5.978516c8.588171-.256516-14.202076-19.3564037-20.978516-24.6386715zm-.017578 15.4667965 3.283203 3.16211 4.509766-.648438.796875 4.486328 4.03125 2.128907-1.992188 4.097656 2.011719 4.089844-4.021485 2.144531-.779296 4.490234-4.513672-.626953-3.267578 3.173828-3.283204-3.160156-4.511718.648437-.796875-4.488281-4.029297-2.125 1.992187-4.099609-2.009765-4.089844 4.019531-2.146484.779297-4.490235 4.511719.628907zm.029297 3.677735a9.5718891 9.5718891 0 0 0 -9.572266 9.572265 9.5718891 9.5718891 0 0 0 9.572266 9.572266 9.5718891 9.5718891 0 0 0 9.572265-9.572266 9.5718891 9.5718891 0 0 0 -9.572265-9.572265z" fill="#5e894f" opacity=".99" transform="scale(.26458333)"/></svg>