<svg height="50" viewBox="0 0 13.229166 13.229167" width="50" xmlns="http://www.w3.org/2000/svg"><path d="m5.3544444 289.48001c-.119876-.0839-.244369-.16321-.372818-.23815.03486-.0716.07021-.14516.106145-.2214.511926-1.08536.986884-2.35357 1.092979-2.81288.247366-1.07097-.422733-2.14364-1.493777-2.39101-.1478792-.0342-.2992704-.0515-.449926-.0515-.9327693 0-1.7309736.63544-1.9410747 1.54522-.109878.47569-.2398983 1.85227-.2520089 3.07419-.1651235-.01-.331647-.0162-.4993746-.0162s-.3342513.006-.4993747.0162c-.012131-1.22192-.14218067-2.59853-.25200877-3.07419-.2101758-.90978-1.0083799-1.54522-1.94114833-1.54522-.1506802 0-.3020478.0173-.4499019.0515-1.0710192.24738-1.7410939 1.31999-1.4937769 2.39102.1060946.45931.5810526 1.72747 1.0929796 2.81287.035961.0762.071313.14985.1061442.2214-.1284489.0749-.2529672.15427-.3728182.23815-1.078388.75493-1.6722878 1.77595-1.6722878 2.87515 0 1.09919.5938998 2.12028 1.6722878 2.87514 1.024322.71703 2.37734323 1.1119 3.8098802 1.1119 1.4325369 0 2.7855586-.39487 3.80988-1.11186 1.078389-.75493 1.672288-1.77595 1.672288-2.87515 0-1.09919-.593899-2.12025-1.672288-2.87514zm-5.96950647 2.75748c-.2752471 0-.49836743-.22309-.49836743-.49836 0-.27528.22314523-.49837.49836743-.49837.2752471 0 .4983676.22309.4983676.49837 0 .27527-.2231453.49836-.4983676.49836zm2.15960237 1.94504s-.66449877-.33227-.66449877-.6645c0-.1835.14873857-.33227.33226167-.33227h.3322612.3322617c.1834976 0 .3322611.14874.3322611.33227-.0000487.33226-.6645469.6645-.6645469.6645zm2.1596263-1.94504c-.2752469 0-.4983683-.22309-.4983683-.49836 0-.27528.2231453-.49837.4983683-.49837.2752464 0 .4983677.22309.4983677.49837.000024.27527-.2230965.49836-.4983677.49836z" fill="#5e894f" stroke-width=".024565" transform="translate(5.070019 -283.43905)"/></svg>