<?xml version="1.0" encoding="UTF-8" standalone="no"?>
<svg
   width="50"
   height="50"
   viewBox="0 0 13.229166 13.229167"
   version="1.1"
   id="svg1579"
   sodipodi:docname="horde.svg"
   inkscape:version="1.3 (0e150ed6c4, 2023-07-21)"
   xmlns:inkscape="http://www.inkscape.org/namespaces/inkscape"
   xmlns:sodipodi="http://sodipodi.sourceforge.net/DTD/sodipodi-0.dtd"
   xmlns="http://www.w3.org/2000/svg"
   xmlns:svg="http://www.w3.org/2000/svg"
   xmlns:rdf="http://www.w3.org/1999/02/22-rdf-syntax-ns#"
   xmlns:cc="http://creativecommons.org/ns#"
   xmlns:dc="http://purl.org/dc/elements/1.1/">
  <defs
     id="defs1573">
    <inkscape:path-effect
       effect="mirror_symmetry"
       start_point="-15.691712,-45.362002"
       end_point="-15.691712,4.437998"
       center_point="-15.691712,-20.462002"
       id="path-effect7365"
       is_visible="true"
       mode="free"
       discard_orig_path="false"
       fuse_paths="true"
       oposite_fuse="false" />
    <inkscape:path-effect
       effect="mirror_symmetry"
       start_point="275.14301,98.12006"
       end_point="275.14301,350.07326"
       center_point="275.14301,224.09666"
       id="path-effect4547-0"
       is_visible="true"
       mode="free"
       discard_orig_path="false"
       fuse_paths="true"
       oposite_fuse="false" />
    <inkscape:path-effect
       effect="mirror_symmetry"
       start_point="274.67636,240.21573"
       end_point="274.67636,418.88419"
       center_point="274.67636,329.54996"
       id="path-effect4551-7"
       is_visible="true"
       mode="free"
       discard_orig_path="false"
       fuse_paths="false"
       oposite_fuse="false" />
    <inkscape:path-effect
       effect="mirror_symmetry"
       start_point="273.50283,331.92091"
       end_point="273.50283,477.30227"
       center_point="273.50283,404.61159"
       id="path-effect4557-0"
       is_visible="true"
       mode="free"
       discard_orig_path="false"
       fuse_paths="false"
       oposite_fuse="false" />
    <inkscape:path-effect
       effect="mirror_symmetry"
       start_point="315.71788,90.192596"
       end_point="315.71788,96.192596"
       center_point="315.71788,93.192596"
       id="path-effect4669"
       is_visible="true"
       mode="free"
       discard_orig_path="false"
       fuse_paths="false"
       oposite_fuse="false" />
    <inkscape:path-effect
       oposite_fuse="false"
       fuse_paths="false"
       discard_orig_path="false"
       mode="free"
       is_visible="true"
       id="path-effect4802"
       center_point="316.91112,93.060013"
       end_point="316.91112,96.060013"
       start_point="316.91112,90.060013"
       effect="mirror_symmetry" />
    <linearGradient
       gradientTransform="matrix(0.27867357,0,0,0.27867357,-0.3072497,283.2508)"
       id="0"
       x1="21.253"
       y1="37.591999"
       x2="77.639999"
       y2="37.469002"
       gradientUnits="userSpaceOnUse">
      <stop
         stop-color="#fff"
         id="stop15223" />
      <stop
         offset="1"
         stop-color="#fff"
         stop-opacity="0"
         id="stop15225" />
    </linearGradient>
  </defs>
  <sodipodi:namedview
     id="base"
     pagecolor="#ffffff"
     bordercolor="#666666"
     borderopacity="1.0"
     inkscape:pageopacity="0.0"
     inkscape:pageshadow="2"
     inkscape:zoom="5.6"
     inkscape:cx="-37.232143"
     inkscape:cy="100.625"
     inkscape:document-units="px"
     inkscape:current-layer="layer1"
     showgrid="false"
     units="px"
     showguides="true"
     inkscape:window-width="1916"
     inkscape:window-height="2022"
     inkscape:window-x="1907"
     inkscape:window-y="0"
     inkscape:window-maximized="0"
     inkscape:lockguides="true"
     inkscape:document-rotation="0"
     inkscape:showpageshadow="2"
     inkscape:pagecheckerboard="0"
     inkscape:deskcolor="#d1d1d1" />
  <metadata
     id="metadata1576">
    <rdf:RDF>
      <cc:Work
         rdf:about="">
        <dc:format>image/svg+xml</dc:format>
        <dc:type
           rdf:resource="http://purl.org/dc/dcmitype/StillImage" />
      </cc:Work>
    </rdf:RDF>
  </metadata>
  <g
     inkscape:label="Layer 1"
     inkscape:groupmode="layer"
     id="layer1"
     transform="translate(0,-283.77082)"
     style="opacity:0.98999999">
    <path
       d="m 4.0243008,286.23015 q 0,0.26981 -0.2698205,0.26981 H 1.7038394 q -0.2698205,0 -0.2698205,-0.26981 v -2.05064 q 0,-0.26982 0.2698205,-0.26982 h 2.0506409 q 0.2698205,0 0.2698205,0.26982 z m 3.9663692,0 q 0,0.26981 -0.2698212,0.26981 H 5.6702081 q -0.2698206,0 -0.2698206,-0.26981 v -2.05064 q 0,-0.26982 0.2698206,-0.26982 h 2.0506407 q 0.2698212,0 0.2698212,0.26982 z m 3.804478,0 q 0,0.26981 -0.269821,0.26981 H 9.4746862 q -0.2698211,0 -0.2698211,-0.26981 v -2.05064 q 0,-0.26982 0.2698211,-0.26982 h 2.0506408 q 0.269821,0 0.269821,0.26982 z m -7.7708472,3.45371 q 0,0.26983 -0.2698205,0.26983 H 1.7038394 q -0.2698205,0 -0.2698205,-0.26983 v -2.05065 q 0,-0.26982 0.2698205,-0.26982 h 2.0506409 q 0.2698205,0 0.2698205,0.26982 z m 3.9663692,0 q 0,0.26983 -0.2698212,0.26983 H 5.6702081 q -0.2698206,0 -0.2698206,-0.26983 v -2.05065 q 0,-0.26982 0.2698206,-0.26982 h 2.0506407 q 0.2698212,0 0.2698212,0.26982 z m 3.804478,0 q 0,0.26983 -0.269821,0.26983 H 9.4746862 q -0.2698211,0 -0.2698211,-0.26983 v -2.05065 q 0,-0.26982 0.2698211,-0.26982 h 2.0506408 q 0.269821,0 0.269821,0.26982 z m -7.7708472,3.4537 q 0,0.26982 -0.2698205,0.26982 H 1.7038394 q -0.2698205,0 -0.2698205,-0.26982 v -2.05063 q 0,-0.26982 0.2698205,-0.26982 h 2.0506409 q 0.2698205,0 0.2698205,0.26982 z m 3.9663692,0 q 0,0.26982 -0.2698212,0.26982 H 5.6702081 q -0.2698206,0 -0.2698206,-0.26982 v -2.05063 q 0,-0.26982 0.2698206,-0.26982 h 2.0506407 q 0.2698212,0 0.2698212,0.26982 z m 0,3.45372 q 0,0.26983 -0.2698212,0.26983 H 5.6702081 q -0.2698206,0 -0.2698206,-0.26983 v -2.05065 q 0,-0.26981 0.2698206,-0.26981 h 2.0506407 q 0.2698212,0 0.2698212,0.26981 z m 3.804478,-3.45372 q 0,0.26982 -0.269821,0.26982 H 9.4746862 q -0.2698211,0 -0.2698211,-0.26982 v -2.05063 q 0,-0.26982 0.2698211,-0.26982 h 2.0506408 q 0.269821,0 0.269821,0.26982 z"
       id="path125-5"
       style="fill:#90c0d5;fill-opacity:0.992157;stroke-width:0.026982" />
  </g>
</svg>
