<svg height="480" width="384" xmlns="http://www.w3.org/2000/svg"><defs><font horiz-adv-x="512" horiz-origin-x="0" horiz-origin-y="0" vert-adv-y="1024" vert-origin-x="512" vert-origin-y="768"><font-face ascent="480" bbox="-27 -32 717 512.545" descent="-32" panose-1="2 0 5 9 0 0 0 0 0 0" underline-position="0" underline-thickness="0" unicode-range="U+E000-E079" units-per-em="512"/><missing-glyph d="M17 0v341h136v-341h-136zM34 17h102v307h-102v-307z"/><glyph d="M17 0v341h136v-341h-136zM34 17h102v307h-102v-307z" glyph-name=".notdef"/><glyph glyph-name=".null" horiz-adv-x="0"/><glyph glyph-name="nonmarkingreturn"/><glyph d="M79 336q-1-1-6-11-1-5-1-13 0-6-1-6l-1-1q-2-1-4-3l-4-4q-5-4-9-8-9-7-15 2l-36 39q-5 6 1 12 1 1 10 7l10 8q3 3 14 3 9 0 19 8 6 6 9 19 1 11 5 15l2 1q1 2 3 3 6 6 13 11 14 12 21 16 68 46 95 49 67 0 76-1 5 0-4-4-62-27-78-39-41-29-19-58 15-20 20-25 5-3-1-7l-2-2q-3-2-7.5-6.5t-10.5-9.5q-12-11-19-18-8-3-9-2-22 25-37 31-14 6-34-6zM226 323l209-244q10-11-1-20l-24-21q-11-7-20 2l-212 242q-3 3 0 10l37 32q7 3 11-1zM509 426q9-53-8-85-26-45-79-32-29 6-51-16l-42-40-35 40 35 36q11 11 16 27 3 15 3 33 0 22 2 30 8 29 72 57 6 3 9-1 4-5 1-8-6-7-23-41-7-4-6-18 0-13 20-27 29-21 49 11l14 21q9 15 11 17 2 5 7 5 5-2 5-9zM70 76l130 127 39-44-126-124q-10-10-20-2l-23 23q-12 9 0 20z" glyph-name="tools" unicode="&#xe000;"/><glyph d="M329 256q0-30-21-52-22-21-52-21t-52 21q-21 22-21 52t21 52q22 21 52 21t52-21q21-22 21-52zM366 256q0 44-32 78-34 32-78 32t-78-32q-32-34-32-78t32-78q34-32 78-32t78 32q32 34 32 78zM402 256q0-61-43-103-42-43-103-43t-103 43q-43 42-43 103t43 103q42 43 103 43t103-43q43-42 43-103zM439 256q0 36-15 71-13 34-39 58-24 26-58 39-35 15-71 15t-71-15q-34-13-58-39-26-24-39-58-15-35-15-71t15-71q13-34 39-58 24-26 58-39 35-15 71-15t71 15q34 13 58 39 26 24 39 58 15 34 15 71zM475 256q0-62-29-110-30-50-80-80-48-29-110-29t-110 29q-50 30-80 80-29 48-29 110t29 110q30 50 80 80 48 29 110 29t110-29q50-30 80-80 29-48 29-110z" glyph-name="bullseye" unicode="&#xe001;"/><glyph d="M384 64q0 26 19 45t45 19 45-19 19-45-19-45-45-19-45 19-19 45zM416 64q0-14 9-23t23-9 23 9 9 23-9 23-23 9-23-9-9-23zM0 448q0 26 19 45t45 19 45-19 19-45-19-45-45-19-45 19-19 45zM32 448q0-14 9-23t23-9 23 9 9 23-9 23-23 9-23-9-9-23zM448 384q26 0 45 19t19 45-19 45-45 19-45-19-19-45q0-18 9-32l-51-52q-43 20-86 20-41 0-79-15.5t-66-41-39-37-20-23.5l-1-1-7-9 7-10 4-5q4-5 12-14t18-19.5 25-22.5 31-22l-45-45q-14 9-32 9-26 0-45-19t-19-45 19-45 45-19 45 19 19 45q0 18-9 32l52 52q42-20 85-20 118 1 204 118l1 1 7 9-7 9-1 2q-2 2-4.5 5t-6 7.5-8 9.5-10 10.5-12.5 12-14 12.5-16 12.5-18 11.5l45 45q13-9 32-9zM422 263q2-3 6-7-4-4-6-7-81-90-166-89-63 0-128 53-17 14-38 37-1 1-3 3.5t-3 3.5l6 6q79 90 166 89 62 0 128-52 22-19 38-37zM320 256q0-26-19-45t-45-19-45 19-19 45 19 45 45 19 45-19 19-45z" glyph-name="agent" unicode="&#xe002;"/><glyph d="M244 476q-18-2-33-7v-58h-24v49q-13-6-30-19v-1-240q42-36 99-36t99 36v240 1q-11 9-30 19v-49h-24v58q-15 5-33 7v-65h-24v65zM110 283v-123q8-8 28-22 36-24 78-31v14h80v-14q41 7 78 31 20 14 28 22v123h-28v-109q-52-42-118-42t-118 42v109h-28zM296 107q-17-4-40-4t-40 4v-41h-48v-30h176v30h-48v41z" glyph-name="mic" unicode="&#xe003;"/><glyph d="M137 222v-103h-69v103h69zM239 358v-239h-68v239h68zM341 290v-171h-68v171h68zM444 393v-274h-69v274h69zM478 94v324q0 3-3 6-1 3-6 3h-426q-5 0-6-3-3-3-3-6v-324q0-3 3-6 1-3 6-3h426q5 0 6 3 3 3 3 6zM512 418v-324q0-18-13-30-12-13-30-13h-426q-18 0-30 13-13 12-13 30v324q0 18 13 30 12 13 30 13h426q18 0 30-13 13-12 13-30z" glyph-name="bar-chart" unicode="&#xe004;"/><glyph d="M253 492q97 0 167-67 69-67 72-165 0-99-68-167-67-70-165-73-99 0-167 68-70 68-72 165-2 98 67 167 69 71 166 72zM280 414q-22 0-34-13-12-12-12-25 0-15 8-23 10-8 25-8 20 0 31 11 12 12 12 28 0 30-30 30zM218 110q17 0 43 13 29 14 54 40l-9 12q-24-18-37-18-6 0-2 19l22 82q13 49-11 49-16 0-46-15-34-17-59-38l8-13q28 17 38 17 6 0 0-17l-18-78q-13-53 17-53z" glyph-name="info-circle" unicode="&#xe005;"/><glyph d="M478 230v222q0 4-3 6-1 3-6 3h-426q-5 0-6-3-3-2-3-6v-222q0-3 3-6 2-2 6-2h426q4 0 6 2 3 3 3 6zM512 452v-290q0-18-13-30-13-13-30-13h-145q0-8 5-20 3-11 8-19 4-8 4-12 0-7-5-12t-12-5h-136q-7 0-12 5t-5 12q0 5 4 12 5 8 8 19 5 12 5 20h-145q-17 0-30 13-13 12-13 30v290q0 18 13 30 12 13 30 13h426q18 0 30-13 13-12 13-30z" glyph-name="screen-desktop" unicode="&#xe006;"/><glyph d="M279 110q0 9-7 16t-16 7-16-7-7-16q0-10 7-16 6-7 16-7t16 7q7 6 7 16zM338 155v202q0 2-2 6-3 3-7 3h-146q-4 0-7-3-2-4-2-6v-202q0-2 2-6 3-3 7-3h146q4 0 7 3 2 4 2 6zM283 398q0 4-4 4h-46q-4 0-4-4 0-5 4-5h46q4 0 4 5zM366 402v-292q0-15-11-26t-26-11h-146q-15 0-26 11t-11 26v292q0 15 11 26t26 11h146q15 0 26-11t11-26z" glyph-name="phone-mobile" unicode="&#xe007;"/><glyph d="M238 219v-109q0-15-11-26t-26-11h-146q-15 0-26 11t-11 26v109q0 15 11 26t26 11h146q15 0 26-11t11-26zM238 439v-110q0-13-11-26-10-10-26-10h-146q-16 0-26 10-11 13-11 26v110q0 13 11 26 10 10 26 10h146q16 0 26-10 11-13 11-26zM494 219v-109q0-15-11-26t-26-11h-146q-15 0-26 11t-11 26v109q0 15 11 26t26 11h146q15 0 26-11t11-26zM494 439v-110q0-13-11-26-10-10-26-10h-146q-16 0-26 10-11 13-11 26v110q0 13 11 26 10 10 26 10h146q16 0 26-10 11-13 11-26z" glyph-name="multiboard" unicode="&#xe008;"/><glyph d="M475 342q0 23-6 41-7 18-15 28-8 8-24 17-14 6-27 9-16 2-28 2-11 0-32-7-20-9-31-19-9-6-25-20-4-4-9.5-10t-7.5-8q-4-6-14-6t-14 6q-2 2-7.5 8t-9.5 10q-16 14-25 20-11 10-31 19-21 7-32 7-12 0-28-2-13-3-27-9-16-9-24-17-8-10-15-28-6-18-6-41 0-49 53-102l166-160 166 160q53 53 53 102zM512 342q0-62-65-129l-178-171q-5-5-13-5t-13 5l-178 172q-1 0-3.5 2.5l-4.5 4.5q-5 6-16 19-10 12-19 28-8 13-15 34-7 20-7 40 0 62 36 98 35 35 101 35 17 0 36-6t34-16q14-9 27-20 12-9 22-19 10 10 22 19 13 11 27 20 15 10 34 16t36 6q66 0 101-35 36-36 36-98z" glyph-name="heart-outline" unicode="&#xe009;"/><glyph d="M238 226v55q-51-4-110-33v-53q61 28 110 31zM238 346v56q-50-3-110-36v-54q60 31 110 34zM475 213v53q-67-33-109-20v64q-8 2-11 4l-1 1q-2 1-4.5 2t-4.5 2l-4 2t-3.5 2-2.5 1h-1l-4 2-4 2q-8 4-10 4-1 1-9 4-2 1-5.5 2.5t-4.5 1.5q-2 0-10 2t-11 2q-4 1-12 1-4 1-12 1-9 0-14-1v-63h5q29 0 55-9 23-7 57-23 3-2 11-4v-54q13-5 26-5 33 0 83 26zM475 335v54q-49-26-87-26-13 0-22 3v-56q42-12 109 25zM91 439q0-12-5-18-4-8-13-14v-361q0-3-2-7-2-2-7-2h-18q-5 0-7 2t-2 7v361q-8 6-14 14-5 8-5 18 0 15 11 26 10 10 26 10t26-10 10-26zM512 421v-218q0-11-10-17-4-2-5-2-61-33-105-33-26 0-45 10l-8 4q-17 8-29 13-8 4-26 9-20 4-32 4-26 0-68-13-37-12-65-29-5-3-9-3t-9 3q-10 4-10 16v212q0 9 9 15 14 8 23 12 1 1 32 15 24 10 44 14 23 6 44 6 31 0 60-9 30-10 60-25 12-5 25-5 34 0 89 32 6 3 8 5 9 5 18-1t9-15z" glyph-name="flag-racing-kings" unicode="&#xe00a;"/><glyph d="M389 140v232q0 6-5 12-6 5-12 5h-33q-7 0-11-5-6-5-6-12v-82h-132v82q0 7-6 12-4 5-11 5h-33q-6 0-12-5-5-6-5-12v-232q0-6 5-12 6-5 12-5h33q7 0 11 5 6 5 6 12v82h132v-82q0-7 6-12 4-5 11-5h33q6 0 12 5 5 6 5 12zM455 381v-250q0-31-21.5-52.5t-52.5-21.5h-250q-31 0-52.5 21.5t-21.5 52.5v250q0 31 21.5 52.5t52.5 21.5h250q31 0 52.5-21.5t21.5-52.5z" glyph-name="crazyhouse" unicode="&#xe00b;"/><glyph d="M500 409l-80 64q-8 7-20 7h-288q-12 0-20-7l-80-64q-18-14-10-35l32-96q5-15 20-20 6-2 10-2 9 0 16 4v-196q0-14 9-23t23-9h288q14 0 23 9t9 23v196q7-4 16-4 4 0 10 2 15 5 20 20l32 96q8 21-10 35zM316 448q-15-32-60-32t-60 32h120zM448 288l-48 32v-256h-288v256l-48-32-32 96 80 64h67q7-21 28-34.5t49-13.5 49 13.5 28 34.5h67l80-64z" glyph-name="tshirt" unicode="&#xe00c;"/><glyph d="M256 37q-8 0-13 5l-178 172q-1 0-3.5 2.5l-4.5 4.5q-5 6-16 19-10 12-19 28-8 13-15 34-7 20-7 40 0 62 36 98 35 35 101 35 17 0 36-6t34-16q14-9 27-20 12-9 22-19 10 10 22 19 13 11 27 20 15 10 34 16t36 6q66 0 101-35 36-36 36-98t-65-129l-178-171q-5-5-13-5z" glyph-name="heart" unicode="&#xe00d;"/><glyph d="M153 317q6 6 6 14.5t-6 14.5q-15 17-15 38 0 23 15 38 6 6 6 15t-6 15-14 6-14-6q-28-30-28-68 0-39 28-67 14-16 28 0zM75 495q-7 7-15 7-9 0-15-7-45-45-45-111 0-64 45-111 14-14 30 0 6 6 6 15t-6 15q-33 35-33 81 0 48 33 81 14 16 0 30zM257 332q21 0 36 15t15 37-15 37-36 15q-22 0-37-15t-15-37 15-37 37-15zM467 495q-6 6-14.5 6t-14.5-6q-7-6-7-15t7-15q32-34 32-81t-32-81q-16-16 0-30 7-7 14-7 8 0 15 7 45 45 45 111 0 64-45 111zM257 291q-21 0-39 9l-100-268h47l28 32h127l27-32h48l-100 268q-18-9-38-9zM256 275l33-115h-64zM193 96l32 32h64l31-32h-127zM359 451q-6-6-6-14.5t6-14.5q15-16 15-38 0-23-15-38-6-6-6-15t6-15 14-6 14 6q28 30 28 68 0 39-28 67-14 16-28 0z" glyph-name="radio-tower" unicode="&#xe00e;"/><glyph d="M261 27q0 5-5 5-17 0-29 12t-12 29q0 5-5 5-4 0-4-5 0-21 14-35 15-15 36-15 5 0 5 4zM70 110h372q-76 85-76 237 0 13-7 30-8 18-20 30-12 14-35 23-21 9-48 9t-48-9q-23-9-35-23-12-12-20-30-7-17-7-30 0-152-76-237zM494 110q0-15-11-26t-26-11h-128q0-29-21-52-22-21-52-21t-52 21q-21 22-21 52h-128q-15 0-26 11t-11 26q13 10 26 25 11 13 25 34 12 21 21 45 7 19 14 59 6 35 6 74 0 43 33 81 33 37 88 45-2 4-2 12 0 12 8 19 8 8 19 8t19-8q8-7 8-19 0-8-2-12 55-8 88-45 33-38 33-81 0-39 6-74 7-40 14-59 9-24 21-45 14-21 25-34 13-15 26-25z" glyph-name="bell-outline" unicode="&#xe00f;"/><glyph d="M406 235q0-46-20-80-19-35-54-58-33-20-76-20t-76 20q-35 23-54 58-20 34-20 80 0 45 20 79 18 34 54 58 35 21 76 21 42 0 76-21 36-24 54-58 20-34 20-79z" glyph-name="disc" unicode="&#xe010;"/><glyph d="M1 508q0-1 .5-3t1-5 .5-5q2-35 21-72 13-27 35-47 24-24 57-43t104-49q68-28 100-47 41-24 41-28l-5 3q-6 2-11 4-34 10-112 24-101 18-144 36-28 12-43 21-8 5-8 4 2-5 4-11 28-73 110-96 31-8 108-17 78-7 108-16l9-3h-18q-25 0-70-7-55-6-82-7-39-2-82 8l-9 4q-1-1 8.5-13.5t16.5-19.5q23-23 57-34 10-2 34-2 31 0 83 12 62 12 68 12 4 1 15 1l6 1-9-3q-26-11-50-25-60-34-103-37l-13-2 10-8q21-16 37-22 3-1 22-5 19-1 36 7t53 35q29 21 39 24 14 5 26-1 16-9 16-27v-4-3-2q-1-2-2 0l-1 3q-5 10-15.5 13.5t-19.5-2.5q-18-9-11-29 1-3 7-11 14-14 33-13.5t32 15.5q25 24 7 54-10 14-20 18l-12 6q-14 11-15 15 16-5 32.5 2t23.5 23q10 22-3 42-11 20-37 22-13 0-21-5-13-11-6-24 8-19 27-12 11 5 12 12 1 2 2-5-3-18-17-26-14-6-29 0-8 5-14 15-3 12-3 20-6 31-15 48-15 32-49 60-36 29-129 77-90 47-132 74.5t-76 63.5l-15 15q-1 0-1-3z" glyph-name="wings" unicode="&#xe011;"/><glyph d="M256 370q-33 0-62-16-29-17-46-46-16-29-16-62t16-62q17-29 46-46 29-16 62-16t62 16q29 17 46 46 16 29 16 62t-16 62q-17 29-46 46-29 16-62 16zM431 246q0-50-23-88-24-40-64-64-38-23-88-23t-88 23q-40 24-64 64-23 38-23 88t23 88q24 40 64 64 38 23 88 23t88-23q40-24 64-64 23-38 23-88z" glyph-name="disc-outline" unicode="&#xe012;"/><glyph d="M493 455q19-4 19-23 0-192-136-328t-328-136q-19 0-23 19l-24 104q-5 19 14 27l112 48q16 7 28-7l49-60q59 27 104.5 73t72.5 104l-60 50q-14 11-7 28l48 112q8 18 27 13z" glyph-name="handset" unicode="&#xe013;"/><glyph d="M86 463l-15-35-27 27-15-16 27-26-34-14 38-38 43 6 49-49q5 5 11 9 3 3 7 5l-52 50 6 43zM271 387q-23 0-27-20 21-33 21-64-14 11-29 17-13 5-25 4-20 0-37-12-28-20-34-62-6-44 11-81.5t50-49.5q10-4 23.5-3t16.5 6l8 14 8-14q4-8 17-12 12-4 22-4 14 1 27 7l-39 38q-9 9-8 21 2 11 10 18 9 8 19 9 2 1 5 0 10 0 16-7l42-40q20 29 25 65t-13 61.5-47 30.5h-1q-7 1-17 1-17-2-33-10 4 41-11 87zM309 181h-1-1q-4-1-8-4.5t-4-6.5q-1-3 2-6l82-80 6-6-5-6q-4-5-13-11-12-8-30-17 78-46 157-54-1 69-55 151-6-11-14-21.5t-12-15.5l-5-5-7-6-6 6-82 80v0q-2 2-4 2z" glyph-name="arrow-thru-apple" unicode="&#xe014;"/><glyph d="M293 119v54q0 4-3 7t-7 3h-54q-4 0-7-3t-3-7v-54q0-4 3-7 4-2 7-2h54q3 0 7 2 3 3 3 7zM292 226l5 131q0 3-3 6t-7 3h-62q-4 0-7-3t-3-6l5-131q0-2 3-5 2-2 6-2h53q3 0 7 2 3 3 3 5zM288 493l219-402q11-18 0-36-3-6-13-14-8-4-19-4h-438q-11 0-19 4-10 8-13 14-11 18 0 36l219 402q3 6 13 14 10 5 19 5t19-5q10-8 13-14z" glyph-name="caution-triangle" unicode="&#xe015;"/><glyph d="M202 136q7 7 17 7 11 0 19-7 15-16 0-36l-22-20q-29-29-68-29t-68 29-29 67q0 40 29 69l76 76q36 35 73 39 38 4 66-22 8-8 8-18 0-9-8-19-18-16-36 0-25 26-68-17l-75-75q-14-14-14-33t14-31q14-14 32-14t32 14zM432 430q29-29 29-68t-29-68l-81-81q-37-37-77-37-31 0-57 26-7 7-7 17 0 11 7 19 9 7 18 7t18-7q26-26 62 12l81 80q15 14 15 32 0 20-15 32-12 13-28 16-17 3-31-11l-26-25q-7-7-18-7t-18 7q-17 16 0 36l26 25q26 28 65 26 38-2 66-31z" glyph-name="link" unicode="&#xe016;"/><glyph d="M353 59l-4 1h-11-13q-26 2-67 1-86-3-97 2l-3 1v6q0 9 7 15 19 16 112 18h10l-8 2q-44 9-61 39-15 27 5 49 12 12 39 12 14 0 18-1l7-1q0 2-1 4-11 19-42 21-35 3-50-27-5-13-5-29 0-14 1-20l2-9-11-18q-37-58-49-63-3-1-22-2-24 0-31 4-2 1-2 7 0 11 5 16 6 7 26 10 12 2 14.5 5t3.5 16q3 29 6 40 6 25-3 48-7 18-7 27-2 11 2 21l1 3-4 1q-23 3-28 5-27 6-30 22-8 32 25 75 20 26 46 35 21 5 44 0 1-1 1.5 0t2.5 4q7 16 40 39 38 25 72 25 15 0 18-9 2-8-5.5-14t-30.5-16q-12-5-12-6 2 1 5 2 42 14 65-2 11-8 6-17-5-5-29-11-34-11-52-21-12-6-26-14l-11-6 1-8q4-15 17-20 9-3 45-6 44-3 60-10 9-5 17-12 43-39 55-87 3-22 2-31v-6h6q17-3 23-18 3-6 3-13 0-5-2-13-7-14-21-17-17-5-38 10l-3 2-1-2q-1-2-1.5-10t.5-13l3-12q3-10 1-16-1-2-10-7-3-1-13-1.5t-13 .5zM135 309q10 5 9.5 16.5t-10.5 16.5q-7 4-14 0-8-4-9-11-1-6 0-11 2-8 9.5-11.5t14.5.5z" glyph-name="rabbit" unicode="&#xe017;"/><glyph d="M384 219q39 0 65-26t26-65-26-65-65-26-65 26-26 65v10l-103 51q-26-24-62-24-39 0-65 26t-26 65 26 65 65 26q36 0 62-24l103 51v10q0 39 26 65t65 26 65-26 26-65-26-65-65-26q-36 0-62 24l-103-51v-10-10l103-51q26 24 62 24z" glyph-name="node-branching" unicode="&#xe018;"/><glyph d="M256 337q-34 0-57.5-23.5t-23.5-57.5 23.5-57.5 57.5-23.5 57.5 23.5 23.5 57.5-23.5 57.5-57.5 23.5zM418 209l-14-35 26-51 3-7-36-36-59 28-35-14-18-55-2-7h-51l-22 62-36 14-51-26-7-3-36 36 28 59-14 35-55 18-7 2v51l62 22 14 36-26 51-3 7 36 36 59-28 35 14 18 55 2 7h51l22-62 36-14 51 26 7 3 36-36-28-59 14-35 55-18 7-2v-51z" glyph-name="gear" unicode="&#xe019;"/><glyph d="M475 256q0-47-17-85-20-44-47-70-26-27-70-47-38-17-85-17-52 0-93 20-43 20-76 59-2 4-2 6 0 3 3 6l39 39q3 3 7 3 1 0 7-3 19-28 51-42 30-15 64-15 29 0 57 11 28 12 46 32 20 18 32 46 11 28 11 57t-11 57q-12 28-32 46-18 20-46 32-28 11-57 11-30 0-54-10-27-11-45-29l39-39q9-9 4-20-6-11-17-11h-128q-8 0-13 5t-5 13v128q0 11 11 17 11 5 20-4l37-37q29 28 70 45 39 15 81 15 47 0 85-17 44-20 70-47 27-26 47-70 17-38 17-85z" glyph-name="reload" unicode="&#xe01a;"/><glyph d="M459 405q-1 17-12.5 28.5t-28.5 12.5h-298q-17-1-28.5-12.5t-12.5-28.5v-298q1-17 12.5-28.5t28.5-12.5h298q17 1 28.5 12.5t12.5 28.5v298zM174.5 124q-16.5 0-28 11.5t-11.5 28 11.5 28 28 11.5 27.5-11.5 11-28-11-28-27.5-11.5zM174.5 217q-16.5 0-28 11.5t-11.5 27.5 11.5 27.5 28 11.5 27.5-11.5 11-27.5-11-27.5-27.5-11.5zM174.5 312q-16.5 0-28 11t-11.5 27.5 11.5 28 28 11.5 27.5-11.5 11-28-11-27.5-27.5-11zM363.5 122q-16.5 0-27.5 11.5t-11 28 11 27.5 27.5 11 28-11 11.5-27.5-11.5-28-28-11.5zM363.5 217q-16.5 0-27.5 11.5t-11 27.5 11 27.5 27.5 11.5 28-11.5 11.5-27.5-11.5-27.5-28-11.5zM363.5 312q-16.5 0-27.5 11t-11 27.5 11 28 27.5 11.5 28-11.5 11.5-28-11.5-27.5-28-11z" glyph-name="die-six" unicode="&#xe01b;"/><glyph d="M473 392q8 3 11 0 4-4 0-10-50-74-84-109-34-38-56-46-23-8-37-1-13 5-31 19-16 13-32 20-17 9-48-2-33-11-71-44l46-180h-51l-94 369 47 17q46 34 78 44 30 10 50 2 19-9 32-27 22-24 32-36 17-19 41-32t66-10q46 3 101 26z" glyph-name="flag-king-hill" unicode="&#xe01c;"/><glyph d="M217 489q31-83-16-132-9-9-50.5-42.5t-61.5-60.5q-18-25-24-58.5t1-69 41-65.5 91-43q-53 27-57.5 90t48.5 113q-14-46 6-73t53-15q31 10 51-6.5t19-44.5q-2-41-35-56 49 8 84 37.5t49 63.5 14 70q0 28-11.5 53t-22.5 38-15.5 35.5 10.5 45.5q-64-6-58-85 2-24-17.5-37.5t-39.5-2.5q-15 9-15.5 25t13.5 29q21 21 28 51.5t-13 70-72 69.5z" glyph-name="flame-blitz" unicode="&#xe01d;"/><glyph d="M107 6q-3-10-14-4-8 4-8 17 3 54 26 116-51 79-27 162 8-22 17-40 6-13 22-41 12-18 17-15 3 1 0 42-5 41-6 85-2 46 13 81 10 22 41 48 28 25 53 36-13-26-17-49-5-25-2-40t11-16q5 0 43 62 36 61 54 62 24 1 58-15 36-17 42-33 6-12 0-41-6-28-20-42-23-23-75-32t-58-12q-8-5 6-18 27-24 90-10-30-42-70-58-38-17-67-20-26-1-28-5-2-12 25-27 26-16 52-8-14-27-32-43-19-15-28-17-11-5-39-6-6 0-43-4z" glyph-name="feather" unicode="&#xe01e;"/><glyph d="M177 221h-58q5-68 48-113l38 66zM167 364q-43-45-48-113h58l28 47zM335 221l-28-47 38-66q43 45 48 113h-58zM280 160h-48l-42-72q31-20 66-20t66 20zM256 404q-35 0-66-20l42-72h48l42 72q-31 20-66 20zM345 364l-38-66 28-47h58q-5 68-48 113zM282 282h-52l-27-46 27-46h52l27 46zM453 390q-48 30-101 9 13-12 25-25 14-17 28-46h107q-19 38-59 62zM382 104q-4-4-5-6-21-25-49-41l40-57q29 52 14 104zM135 98q-1 2-5 6-15-52 14-104l40 57q-28 16-49 41zM59 390q-40-24-59-62h107q14 28 28 46 12 13 25 25-53 21-101-9zM256 512q-20 0-34-14t-14-34v-38q24 8 48 8t48-8v38q0 20-14 34t-34 14z" glyph-name="turtle" unicode="&#xe01f;"/><glyph d="M376 460q15-68 51-226.5t55-241.5l-16-4q-7 30-20.5 90t-20.5 90q-5 1-16.5 2.5t-17.5 2.5l-6 29q6-1 17-3t17-3q-5 21-14.5 62.5t-13.5 62.5l-8 34q-4 0-15.5 2t-18.5 3l-7 29q6-1 17-2.5t17-2.5q-2 11-7.5 35.5t-8.5 36.5zM391 173l8-34q-29 5-33 5h-1l-7 33q11-1 33-4zM358 177q-18 1-33-2l-7 31q12 3 33 0zM325 175l7-31q-8-2-29-14l-8 33q16 9 30 12zM295 163q-12-7-29-18l-6 29q20 13 29 18zM266 145l8-33q-22-15-28-20l-8 33q4 3 13.5 9.5t14.5 10.5zM238 125q-19-13-28-19l-7 30q11 6 29 18zM210 106l7-32q-16-9-30-12l-7 31q12 2 30 13zM180 93q-12-3-33-1l-7 30q19-1 33 2zM147 92l8-33-34 4-8 34q25-4 34-5zM113 97q-5 1-16.5 3t-17.5 2l-6 29 18-3t16-2zM107 126l-8 33q22-3 34-4l7-33q-11 0-33 4zM99 159q-6 2-18 3.5t-16 2.5l-6 29q6-1 17-3t17-3zM93 188l-8 34q22-4 34-5l7-33q-12 1-33 4zM85 222l-18 3t-16 2l-6 29q6-1 17-2.5t17-2.5zM79 251l-8 33q22-3 34-4l7-33q-12 0-33 4zM71 284q-2 1-34 6l-7 28q6-1 17.5-2.5t16.5-2.5zM64 313l-7 34q3-1 15-2.5t19-2.5l7-33q-12 1-34 4zM98 309q18-1 32 2l8-31q-13-3-33 0zM130 311l-7 31q12 3 30 14l8-33q-17-9-31-12zM123 342zM161 323q11 6 28 18l7-28q-18-12-29-19zM189 341l-7 34q20 14 28 19l8-33q-5-3-9.5-6t-10-7-9.5-7zM218 361q18 12 28 19l7-30q-10-5-29-18zM246 380l-7 33q13 7 30 12l7-32q-12-2-30-13zM276 393q12 3 33 1l6-30q-18 1-32-2zM309 394l-8 33 34-4 7-34q-22 4-33 5zM315 364q12 0 34-4l8-33q-21 3-34 5zM357 327l18-3t16-3l6-28q-6 1-18 2.5t-16 2.5zM363 298l8-34q-23 4-34 5l-8 33q12-1 34-4zM371 264q6-1 17-2.5t17-2.5l6-29q-6 1-17 3t-17 2zM377 235l8-33q-26 4-34 4l-7 33q11 0 33-4zM344 239q-18 2-33-2l-7 31q12 3 33 1zM311 237l7-31q-11-2-29-14l-8 33q16 9 30 12zM281 225q-9-5-29-18l-6 29q15 11 28 19zM252 207l8-33-28-20-8 34q5 3 14 9.5t14 9.5zM224 188q-20-14-28-19l-7 29q10 6 29 19zM196 169l7-33q-16-9-30-12l-7 31q11 3 30 14zM166 155q-12-2-33 0l-7 29q18-1 33 2zM159 186l-7 32q11 2 29 13l8-33q-15-8-30-12zM152 218q-12-3-33-1l-7 30q18-2 33 2zM145 249l-7 31q11 2 29 14l8-33q-17-9-30-12zM175 261q10 5 28 18l7-29q-21-14-29-19zM203 279l-7 33q2 2 12 9t16 11l8-34q-25-17-29-19zM232 298q20 14 28 19l7-29q-10-6-29-18zM260 317l-7 33q16 9 30 12l7-31q-12-3-30-14zM290 331q12 3 33 0l6-29q-17 1-32-2zM297 300l7-32q-11-2-30-13l-7 33q16 9 30 12zM238 270l8-34q-24-16-28-20l-8 34q5 4 14.5 10t13.5 10z" glyph-name="flag-chessboard" unicode="&#xe020;"/><glyph d="M459 437v54l-9-3t-21-9-28-14.5-26.5-19-20-24-4.5-28.5 16-33l-25-25q-56 49-128 49-79 0-135.5-56t-56.5-136q0-72 49-128l-46-46q-8-8 0-15 4-3 8-3t8 3l45 46q56-49 128-49t128 49h1l45-46q3-3 8-3 4 0 7 3 8 7 0 15l-45 46h-1q49 54 49 128t-49 128l25 25q20-17 40-17 25 0 48 27t33 55l10 27h-53zM437 437v-6l-21-21v39q3 2 10 5.5l11 5.5v-23zM371 405q4 13 24 30v-47l-14-13q-10 12-10 30zM384 192q0-70-50-120.5t-121-50.5q-70 0-120 50t-50 121 50 121 120 50q63 0 113-43l-30-30q-35 30-83 30-53 0-90.5-37.5t-37.5-90.5 37.5-90.5 90.5-37.5 90.5 37.5 37.5 90.5q0 47-30 83l30 30q43-48 43-113zM256 192q0-18-12.5-30.5t-30.5-12.5q-17 0-29.5 12.5t-12.5 30.5 12.5 30.5 29.5 12.5q10 0 22-6l-16-16h-6q-8 0-14.5-6t-6.5-15 6.5-15 14.5-6q9 0 15.5 6t6.5 15q0 1-1 3v2l16 17q6-10 6-22zM250 244q-15 12-37 12-26 0-45-19t-19-45 19-45 45-19q27 0 45.5 19t18.5 45q0 22-12 37l31 30q24-29 24-67 0-44-31.5-75.5t-75.5-31.5-75 31.5-31 75.5 31 75.5 75 31.5q38 0 68-24zM421 349q-11 0-25 11l56 56h29q-30-67-60-67z" glyph-name="archery-target" unicode="&#xe021;"/><glyph d="M71 348q-7 3-7 7.5t7 7.5l169 82q6 3 16 3t16-3l169-82q7-3 7-7.5t-7-7.5l-169-82q-6-3-16-3t-16 3zM441 264q7-3 7-8t-7-8l-169-81q-8-4-16-4t-16 4l-169 81q-7 3-7 8t7 8q27 13 33 16 6 4 13 0l123-60q6-3 16-3t16 3q121 59 125 61 5 2 9 0zM441 164q7-3 7-7.5t-7-7.5l-169-82q-6-3-16-3t-16 3l-169 82q-7 3-7 7.5t7 7.5q27 14 33 17 5 3 13-1l123-59q6-3 16-3t16 3q121 58 125 60 5 2 9 0z" glyph-name="three-check-stack" unicode="&#xe022;"/><glyph d="M389 330q50 0 87-35 36-35 36-85t-36-85q-37-35-87-35h-97v97h54l-90 118-89-118h53v-97h-127q-38 0-65 27-28 25-28 63t27 65q28 26 66 26 8 0 10-1 0 1-.5 8t-.5 12q0 54 40 94 40 39 97 39 46 0 82-27 34-25 48-68 18 2 20 2z" glyph-name="upload-cloud" unicode="&#xe023;"/><glyph d="M201 101v-6q1-3 1-8-1-2-1-6-1-5-3-6-4-2-6-2h-91q-33 0-59 24-24 24-24 58v202q0 34 24 58 25 24 59 24h91q4 0 6-3 3-3 3-6v-6q1-3 1-8-1-2-1-6-1-4-3-6-4-2-6-2h-91q-20 0-33-13t-13-32v-202q0-19 13-32t33-13h89q1 0 3-1h3q0-1 3-2 2-2 2-3v-3zM466 256q0-6-5-13l-156-155q-5-6-12-6-9 0-13 6-6 4-6 13v82h-128q-6 0-13 5-5 7-5 13v110q0 6 5 13 7 5 13 5h128v82q0 8 6 13 4 6 13 6 7 0 12-6l156-155q5-7 5-13z" glyph-name="external-arrow" unicode="&#xe024;"/><glyph d="M480 384h-177l70 70q11 11 0 22-12 12-23 0l-92-92h-19l-93 92q-11 13-22 0-11-11 0-22l70-70h-162q-14 0-23-9t-9-23v-288q0-14 9-23t23-9h448q14 0 23 9t9 23v288q0 14-9 23t-23 9zM352 96h-288v224h288v-224zM448 192h-32v32h32v-32zM448 256h-32v32h32v-32z" glyph-name="analog-tv" unicode="&#xe025;"/><glyph d="M120 176q23 0 39.5-16.5t16.5-39.5-16.5-39.5-39.5-16.5-39.5 16.5-16.5 39.5 16.5 39.5 39.5 16.5zM64 320q105 0 180.5-75.5t75.5-180.5h-80q0 80-48 128t-128 48v80zM64 448q159 0 271.5-112.5t112.5-271.5h-80q0 128-88 216t-216 88v80z" glyph-name="rss-feed" unicode="&#xe026;"/><glyph d="M457 119v137h-201v201h-137q-27 0-45-19-19-18-19-45v-137h201v-201h137q27 0 45 19 19 18 19 45zM475 393v-274q0-34-24-58t-58-24h-274q-34 0-58 24t-24 58v274q0 34 24 58t58 24h274q34 0 58-24t24-58z" glyph-name="study-board" unicode="&#xe027;"/><glyph d="M256 458v1l-172-100v-118q1-73 51-126.5t121-61.5q72 7 121 61t51 127v118zM256 105v142h-121v82l121 70v-152h121v-6q-1-52-36-90.5t-85-45.5z" glyph-name="shield" unicode="&#xe028;"/><glyph d="M121 264l-85-68 35-7 75 63q64 1 122.5 15.5t84.5 28.5l26 14-51 44q90 7 113-4 57 30 71 156-39 6-73 6.5t-63-4.5-52.5-11.5-45-21-37-25.5-32-32-26.5-34.5-23-39-19.5-39.5-19.5-41zM159 279l-2 1q18 19 41.5 40t69 58.5 101.5 66.5 108 40q-81-28-318-206zM190 131h-32q0 13-9.5 22.5t-22.5 9.5h-32q-14 0-23-9.5t-9-22.5h-32q-14 0-23-9.5t-9-22.5v-64q0-13 9.5-22.5t22.5-9.5h160q13 0 22.5 9.5t9.5 22.5v64q0 13-9.5 22.5t-22.5 9.5z" glyph-name="ink-quill" unicode="&#xe029;"/><glyph d="M160 256q0 96 96 96t96-96-96-96-96 96zM512 272v-32h-65q-6-71-55-120t-120-55v-65h-32v65q-71 6-120 55t-55 120h-65v32h65q2 22 7 39t15 35 21 32q12 14 26 26 14 11 32 21t35 15 39 7v65h32v-65q71-6 120-55t55-120h65zM256 113q59 0 101 42t42 101-42 101-101 42-101-42-42-101 42-101 101-42z" glyph-name="target" unicode="&#xe02a;"/><glyph d="M430 102q0 7-4.5 11.5t-10.5 4.5h-318q-6 0-10.5-4.5t-4.5-11.5v-19q0-7 4.5-11.5t10.5-4.5h318q6 0 10.5 4.5t4.5 11.5v19zM126 315q-4 4-11 4-15 0-17-16v-150h1q0-6 4.5-10.5t11.5-4.5v0h282v1q14 0 16 14h1v2 145 3q0 7-5 12t-12 5q-6 0-10-4h-1v-1l-1-1-36-35-81 81q-5 5-12 5t-12-5l-82-81-34 35h-1zM374 272h-1 1zM145 373q0-13-9-22t-22-9-22 9-9 22 9 22 22 9 22-9 9-22zM427 373q0-13-9-22t-22-9-22 9-9 22 9 22 22 9 22-9 9-22zM289 414q0-13-9-22t-22-9-22 9-9 22 9 22 22 9 22-9 9-22z" glyph-name="crown" unicode="&#xe02b;"/><glyph d="M17 222q-22 6-16 29 5 22 27 16l50-12-26-41zM472 216q6 6 16 6 11-2 16-8 17-17-1-33l-128-115q-7-6-16-6-6 0-14 5l-146 112-28 8 26 40 18-4q7-2 8-4l135-104zM221 328l-178-280q-6-12-20-12-5 0-12 5-9 5-10 14-1 10 3 17l191 300q4 8 14 11 9 3 19-3l125-80 115 166q6 8 15 10 9 1 17-5 19-12 6-31l-128-185q-13-18-32-6z" glyph-name="line-graph" unicode="&#xe02c;"/><glyph d="M256 422l-234-87 234-117 111 56-104 32q-4-2-7-2-16 0-16 16t16 16l-3-9 19-5q11 0 19.5-8.5t8.5-19.5q0-12-8.5-20t-19.5-8l27-9 156 8v-12q-7-5-7-13t7-13q-7-28-7-115 12-8 16-8t16 8q0 87-7 115 7 5 7 13t-7 13v26l-59 18 76 38zM120 263l-13-79q34-4 86-36 27-18 44-33 8-6 19-19 11 13 19 19 17 15 44 33 52 32 87 36l-14 79h-6l-130-65-130 65h-6z" glyph-name="graduate-cap" unicode="&#xe02d;"/><glyph d="M203 207l-17-164 102 125 97-44 100 345zM485 469l-512-210 121-24 92-192-66 192z" glyph-name="paper-airplane" unicode="&#xe02e;"/><glyph d="M498 14q-14-14-34-14t-34 14l-85 85q-57-36-121-36-93 0-158.5 66t-65.5 159 65.5 158.5 158.5 65.5 159-65.5 66-158.5q0-64-36-121l85-85q14-14 14-34t-14-34zM224 448q-66 0-113-47t-47-113q0-67 47-114t113-47q67 0 114 47t47 114q0 66-47 113t-114 47zM256 191h-64v65h-64v64h64v64h64v-64h65v-64h-65v-65z" glyph-name="zoom-in" unicode="&#xe02f;"/><glyph d="M96 128h320v256h-320v-256zM160 320h192v-128h-192v128zM64 416h96v32h-128v-128h32v96zM64 192h-32v-128h128v32h-96v96zM352 448v-32h96v-96h32v128h-128zM448 96h-96v-32h128v128h-32v-96z" glyph-name="expand" unicode="&#xe030;"/><glyph d="M256 320q-26 0-45-19t-19-45 19-45 45-19 45 19 19 45-19 45-45 19zM453 312q-9 3-19 11-6-12-30-49-29 37-61 69-40 39-69 61 87 62 145 62 23 0 35-12 12-11 12-38h3q9 0 18-3 2 36-18 56-18 18-50 18-66 0-163-70-97 70-163 70-9 0-13-1 8-7 13-20 58 0 145-62-29-22-69-61-39-40-61-69-29 42-44 76-10 22-15 45h-6q-6 0-16 2 4-24 18-56 18-41 50-85-32-44-50-85-41-91-2-128 18-18 50-18 48 0 116 39t134 105q39 40 61 69 43-61 56.5-111.5t-6.5-68.5q-12-12-35-12-28 0-71 19-4-11-12-18 49-22 83-22 32 0 50 18 27 29 12.5 86.5t-64.5 126.5q20 27 36 56zM93 46q-23 0-35 12-27 26 6 104 15 34 44 76 29-37 61-69t69-61q-87-62-145-62zM328 184q-29-29-72-63-36 29-72 63-34 36-63 72 29 36 63 72 36 34 72 63 36-29 72-63 36-36 63-72-29-36-63-72zM469 384q-8 0-14.5-6.5t-6.5-14.5q0-9 6.5-15.5t14.5-6.5q9 0 15.5 6.5t6.5 15.5q0 8-6.5 14.5t-15.5 6.5zM299 107q-9 0-15.5-6.5t-6.5-15.5q0-8 6.5-14.5t15.5-6.5q8 0 14.5 6.5t6.5 14.5q0 9-6.5 15.5t-14.5 6.5zM43 427q8 0 14.5 6t6.5 15-6.5 15-14.5 6q-9 0-15.5-6t-6.5-15 6.5-15 15.5-6z" glyph-name="atom" unicode="&#xe031;"/><glyph d="M73 137v-55q0-3-3-6-2-3-6-3h-55q-3 0-6 3t-3 6v55q0 4 3 7 4 2 6 2h55q4 0 6-2 3-3 3-7zM73 247v-55q0-4-3-6-2-3-6-3h-55q-3 0-6 3-3 2-3 6v55q0 3 3 6t6 3h55q4 0 6-3 3-3 3-6zM73 357v-55q0-4-3-7-1-2-6-2h-55q-4 0-6 2-3 3-3 7v55q0 3 3 6t6 3h55q4 0 6-3 3-3 3-6zM512 137v-55q0-3-3-6t-6-3h-384q-4 0-7 3-2 4-2 6v55q0 3 2 7 4 2 7 2h384q2 0 6-2 3-3 3-7zM73 466v-55q0-3-3-6-2-3-6-3h-55q-3 0-6 3t-3 6v55q0 4 3 7 2 2 6 2h55q5 0 6-2 3-3 3-7zM512 247v-55q0-4-3-6-3-3-6-3h-384q-4 0-7 3-2 2-2 6v55q0 2 2 6 3 3 7 3h384q3 0 6-3t3-6zM512 357v-55q0-4-3-7-2-2-6-2h-384q-5 0-7 2-2 4-2 7v55q0 2 2 6 3 3 7 3h384q3 0 6-3t3-6zM512 466v-55q0-3-3-6t-6-3h-384q-4 0-7 3-2 4-2 6v55q0 3 2 7 2 2 7 2h384q4 0 6-2 3-3 3-7z" glyph-name="list" unicode="&#xe032;"/><glyph d="M223 464q-93-4-105-38-2-6-2-17-1-29-7-51-7-27-39-72-22-32-22-59 0-33 22-55 19-19 46-25 21-2 35 1 24 4 45 21l5 3v-8q0-24 7-37 3-6 10-13 6-6 14-12l6-4v-9-8l-14-8-13-9-1-12v-13h13 13l4-12 4-13h23l5 13 4 12h13 12v13 12l-14 9-13 8v8 9l5 4q19 14 24 23 8 14 8 37v4l2 6v-1q7-7 21-13 22-12 45-12 29 0 50 15 14 8 23 24 21 32 8 66-7 20-27 48-13 17-19 29-15 30-18 80-1 21-9 29-12 13-40 19-44 12-124 8zM214 408l42-4 42 4q44 3 52 2 6-2 7-6.5t-4-8.5q-17-13-105-11-73 2-89 11-5 3-5 7 1 7 11 8 4 1 49-2zM194 330q29-2 53-8l8-1 13 2q33 6 68 8 22 2 37-5 12-6 36-36 17-26 26-47 2-8 2-18 0-17-6-27-13-26-53-28-2 0-7 .5t-6 .5q-29 6-57 34-14 14-22 30-12 24-12 55 0 12-13 15-13 2-21-4-3-5-3-12 0-36-20-68-24-34-59-47-25-9-50 0-19 6-28 23-5 12-6 22-1 15 3 26 11 33 47 70 13 12 23 14 14 4 47 1zM157 312q-9-1-20-10-25-18-41-50-6-11-7-24 0-18 10-28 7-7 21-11 16-4 31 0 23 7 40 25 26 29 29 73 1 11 0 14-5 8-20 11-17 2-43 0zM313 312q-17-3-22-12-1-3-1-12 3-27 13-49 7-15 21-27 17-17 36-23 5-1 16-1 16 0 27 5 11 7 14 14 5 8 5 22 0 32-46 70-14 12-24 13-23 2-39 0z" glyph-name="antichess" unicode="&#xe033;"/><glyph d="M416 32h-22q40 26 63 68.5t23 91.5q0 67-41 118.5t-104 67.5l36 68q7 16-7 23l-86 41q-5 3-13 1-6-3-9-9l-102-194q-6-13-2-26t16-18l-14-29 57-28 14 29q12-6 25-1t19 18l35 65q47-5 79.5-41t32.5-85q0-53-37.5-90.5t-90.5-37.5q-61 0-96 32v16q0 16 16 16h80v32h-256v-32h80q16 0 16-16v-80q-45 0-55-8-9-7-9-24h416q0 15-8.5 22.5t-18 8.5-29.5 1h-8zM304 469q-8-4-10-10l-74-139-28 14q0 1 1 3t1 3l70 130q3 6 9 9 8 2 13-1z" glyph-name="microscope" unicode="&#xe034;"/><glyph d="M319 160l96 128 97-128h-64v-32q0-40-28-68t-68-28h-192q-40 0-68 28t-28 68v32h64v-32q0-14 9-23t23-9h192q14 0 23 9t9 23v32h-65zM193 352l-96-128-97 128h64v32q0 40 28 68t68 28h192q40 0 68-28t28-68v-32h-64v32q0 14-9 23t-23 9h-192q-14 0-23-9t-9-23v-32h65z" glyph-name="chasing-arrows" unicode="&#xe035;"/><glyph d="M410 64h-340q-6 0-6-6v-52q0-6 6-6h340q6 0 6 6v52q0 6-6 6zM480 400q0 20-14 34t-34 14-34-14-14-34q0-24 20-39l-84-169-56 167q24 14 24 41 0 20-14 34t-34 14-34-14-14-34q0-27 24-41l-56-167-84 169q20 15 20 39 0 20-14 34t-34 14-34-14-14-34q0-16 10-29t25-17l29-258h352l29 258q15 4 25 17t10 29z" glyph-name="crown-elite" unicode="&#xe036;"/><glyph d="M456 428q5-13-4-20l-141-141v-212q0-12-11-17-3-1-7-1-9 0-13 5l-73 73q-6 6-6 13v139l-141 141q-9 7-4 20 6 11 17 11h366q11 0 17-11z" glyph-name="funnel" unicode="&#xe037;"/><glyph d="M477 350q0-12-8-19l-206-207-39-39q-10-8-20-8-11 0-19 8l-142 142q-8 8-8 20t8 19l38 39q10 8 20 8 11 0 19-8l84-84 188 188q8 8 19 8 10 0 20-8l38-39q8-8 8-20z" glyph-name="checkmark" unicode="&#xe038;"/><glyph d="M375 256q0-7-6-13l-155-155q-6-6-13-6t-13 6q-5 5-5 13v82h-128q-6 0-13 5-5 5-5 13v110q0 8 5 13 7 5 13 5h128v82q0 8 5 13 6 6 13 6t13-6l155-155q6-6 6-13zM475 357v-202q0-34-24-58t-58-24h-91q-4 0-7 3-2 2-2 6l-1 2v4 8q0 1 .5 3t.5 3q0 4 3 6 2 2 6 2h91q19 0 32 13 14 14 14 32v202q0 18-14 32-13 13-32 13h-89q-1 0-3 1h-4q0 1-2 2-2 2-2 3v3l-1 2v4 8q0 1 .5 3t.5 3q0 5 3 6 2 2 6 2h91q34 0 58-24t24-58z" glyph-name="internal-arrow" unicode="&#xe039;"/><glyph d="M450 247l-379-211q-6-3-11-1-5 3-5 11v420q0 8 5 11 5 2 11-1l379-211q7-4 7-9t-7-9z" glyph-name="play-triangle" unicode="&#xe03a;"/><glyph d="M405 257q0-15-10-26l-186-186q-10-10-26-10t-26 10l-22 22q-10 10-10 26 0 15 10 25l139 139-139 139q-10 10-10 26t10 26l22 21q11 11 26 11t26-11l186-186q10-10 10-26z" glyph-name="greater-than" unicode="&#xe03b;"/><glyph d="M303 46l-186 186q-10 10-10 25 0 16 10 26l186 186q11 11 26 11t26-11l22-21q10-10 10-26t-10-26l-139-139 139-138q10-11 10-26 0-16-10-26l-22-21q-11-11-26-11t-26 11z" glyph-name="less-than" unicode="&#xe03c;"/><glyph d="M475 256q0-62-29-110-30-50-80-80-48-29-110-29t-110 29q-50 30-80 80-29 48-29 110t29 110q30 50 80 80 48 29 110 29t110-29q50-30 80-80 29-48 29-110z" glyph-name="disc-big" unicode="&#xe03d;"/><glyph d="M256 411q-41 0-78-20-36-21-57-57-20-37-20-78t20-78q21-36 57-57 37-20 78-20t78 20q36 21 57 57 20 37 20 78t-20 78q-21 36-57 57-37 20-78 20zM475 256q0-62-29-110-30-50-80-80-48-29-110-29t-110 29q-50 30-80 80-29 48-29 110t29 110q30 50 80 80 48 29 110 29t110-29q50-30 80-80 29-48 29-110z" glyph-name="disc-big-outline" unicode="&#xe03e;"/><glyph d="M426 152q0-11-8-19l-39-39q-8-8-20-8-11 0-19 8l-84 84-84-84q-8-8-19-8-12 0-20 8l-39 39q-8 8-8 19 0 10 8 20l84 84-84 84q-8 8-8 19 0 10 8 20l39 38q7 8 20 8 12 0 19-8l84-84 84 84q7 8 19 8 13 0 20-8l39-38q8-10 8-20 0-11-8-19l-84-84 84-84q8-10 8-20z" glyph-name="x" unicode="&#xe03f;"/><glyph d="M448 384l-96-96-160 160-128-128 160-160-96-96h320v320z" glyph-name="arrow-down-right" unicode="&#xe040;"/><glyph d="M448 128l-96 96-160-160-128 128 160 160-96 96h320v-320z" glyph-name="arrow-up-right" unicode="&#xe041;"/><glyph d="M402 238v36q0 8-5 13-6 6-13 6h-91v91q0 7-6 13-5 5-13 5h-36q-8 0-13-5-6-6-6-13v-91h-91q-7 0-13-6-5-5-5-13v-36q0-8 5-13 6-6 13-6h91v-91q0-7 6-13 5-5 13-5h36q8 0 13 5 6 6 6 13v91h91q7 0 13 6 5 5 5 13zM475 393v-274q0-34-24-58t-58-24h-274q-34 0-58 24t-24 58v274q0 34 24 58t58 24h274q34 0 58-24t24-58z" glyph-name="plus-button" unicode="&#xe042;"/><glyph d="M293 219h91q7 0 13 6 5 5 5 13v36q0 8-5 13-6 6-13 6l-172-1-84 1q-7 0-13-6-5-5-5-13v-36q0-8 5-13 6-6 13-6h165zM475 393v-274q0-34-24-58t-58-24h-274q-34 0-58 24t-24 58v274q0 34 24 58t58 24h274q34 0 58-24t24-58z" glyph-name="minus-button" unicode="&#xe043;"/><glyph d="M384 320q-23-1-78-32l-4 5q4 87 18 123-3-2-11.5-8.5t-23.5-18-27-20.5q-12 29-13.5 71t11.5 72q-102-73-163-168.5t-61-167.5v-11q0-24 .5-37t4.5-36 14.5-36.5 27-28 45.5-21 68-6.5q63 0 101.5 15t52 39 18 58.5 1.5 67.5 1 72.5 18 67.5zM211 50q-111-3-110 76 1 39 22 71l1 1-2-4t-2.5-7-.5-14.5 5.5-19.5 17-22 31.5-22q-8 10-9 22t1.5 21 11.5 22 14.5 19 17.5 18l13 13q0-26 6-55t12-45l6-15q4 3 11.5 9t25.5 33 30 63q19-82-3-121.5t-99-42.5z" glyph-name="fire" unicode="&#xe044;"/><glyph d="M32 352l224-224 224 224h-448z" glyph-name="down-triangle" unicode="&#xe045;"/><glyph d="M480 160l-224 224-224-224h448z" glyph-name="up-triangle" unicode="&#xe046;"/><glyph d="M199 351q8 1 24 1 138-1 236-88-91 54-239 54-17 0-28-1 5 29 7 34zM464 261q-100 92-243 92-22 0-23-1t-8-36q12 1 30 1 152 0 244-57v1zM140 246q0 49 10.5 88.5t23.5 41.5q21 3 52 3 24 0 48-2.5t56-11.5 61.5-22.5 61.5-38.5 58-58q-32-41-72-69t-80.5-41-72-18-61.5-5l-51 3q-13 2-23.5 41.5t-10.5 88.5zM45 347l85 18-21-37-74 4zM133 366q-8-1-40-7.5t-49-10.5q-6-9-10-17l75-4zM106 246q0-6 2-19l-107 13v12l107 13q-2-13-2-19zM0 253v-14l109-13q-2 14-2 20.5t2 19.5zM109 164l21-37-85 18-10 15zM133 126l-24 39-75-4 10-17zM226 380l-52-3q-14-2-24.5-42t-10.5-89 10.5-89 24.5-42q21-3 51-3 19 0 39 2t45.5 6.5 51 14.5 51.5 24.5 52 36.5 48 50q-32 41-72 69.5t-80 41.5-71.5 18-62.5 5zM132 127l-88 17-9 17 74 4zM108 266q-2-13-2-20l2-20-108 13v14zM132 365l-23-38-74 4 9 17zM226 380q31 0 62.5-5.5t71.5-18.5 80-41 72-69q-37-47-85.5-77.5t-91-41-80-14-59.5-.5l-22 3q-6 1-12.5 12t-11.5 29-8 41.5-3 47.5q0 49 11 88.5t24 41.5zM223 352l-25-1-7-34q7 0 18.5.5t45.5-1 66-6.5 72-17.5 71-31.5q-100 91-241 91z" glyph-name="bullet" unicode="&#xe047;"/><glyph d="M281 240l96-104q26 20 35 41h31q-9-42-40-65l53-63q21-1 22-23-1-13-12-20-10-6-25-6-25 1-26 28l-54 58q-35-19-66-22l-14 23q34 4 58 22l-84 100-83-100q24-18 57-22l-13-23q-32 3-67 22l-53-58q-2-25-22-28-16 0-27 5-12 5-14 17 0 26 22 27l53 63q-33 25-40 65h31q9-21 35-41l95 104-185 221-11 51 222-243 223 243-11-51z" glyph-name="swords" unicode="&#xe048;"/><glyph d="M13 40q-7-5-9-3-4 1-4 9v420q0 8 4 9 2 2 9-3l203-203 3-6v203q0 7 4 9t9-3l203-203q3-3 4-6v194q0 6 5 13 5 5 13 5h37q8 0 13-5 5-7 5-13v-402q0-6-5-13-5-5-13-5h-37q-8 0-13 5-5 7-5 13v194q-2-4-4-6l-203-203q-5-5-9-3t-4 9v203l-3-6z" glyph-name="jump-last" unicode="&#xe049;"/><glyph d="M499 472q7 5 9 3 4-1 4-9v-420q0-8-4-9-2-2-9 3l-203 203-3 6v-203q0-7-4-9t-9 3l-203 203q-2 2-4 6v-194q0-6-5-13-5-5-13-5h-37q-8 0-13 5-5 7-5 13v402q0 6 5 13 5 5 13 5h37q8 0 13-5 5-7 5-13v-194q1 3 4 6l203 203q5 5 9 3t4-9v-203l3 6z" glyph-name="jump-first" unicode="&#xe04a;"/><glyph d="M123 40q-7-5-10-3-3 1-3 9v420q0 8 3 9 3 2 10-3l202-203q3-3 4-6v194q0 7 6 13 4 5 12 5h37q8 0 13-5 5-7 5-13v-402q0-6-5-13-5-5-13-5h-37q-8 0-12 5-6 6-6 13v194q-2-4-4-6z" glyph-name="jump-next" unicode="&#xe04b;"/><glyph d="M389 472q7 5 10 3 3-1 3-9v-420q0-8-3-9-3-2-10 3l-202 203q-2 2-4 6v-194q0-7-6-13-4-5-12-5h-37q-8 0-13 5-5 7-5 13v402q0 6 5 13 5 5 13 5h37q8 0 12-5 6-6 6-13v-194q1 3 4 6z" glyph-name="jump-prev" unicode="&#xe04c;"/><glyph d="M475 457v-402q0-8-5-13t-13-5h-146q-8 0-13 5t-5 13v402q0 8 5 13t13 5h146q8 0 13-5t5-13zM219 457v-402q0-8-5-13t-13-5h-146q-8 0-13 5t-5 13v402q0 8 5 13t13 5h146q8 0 13-5t5-13z" glyph-name="pause" unicode="&#xe04d;"/><glyph d="M484 396q0-14-10.5-24.5t-25.5-10.5h-384q-15 0-25.5 10.5t-10.5 24.5 10.5 24.5 25.5 10.5h384q15 0 25.5-10.5t10.5-24.5zM484 256q0-14-10.5-24.5t-25.5-10.5h-384q-15 0-25.5 10.5t-10.5 24.5 10.5 24.5 25.5 10.5h384q15 0 25.5-10.5t10.5-24.5zM484 116q0-14-10.5-24.5t-25.5-10.5h-384q-15 0-25.5 10.5t-10.5 24.5 10.5 24.5 25.5 10.5h384q15 0 25.5-10.5t10.5-24.5z" glyph-name="hamburger" unicode="&#xe04e;"/><glyph d="M235 139q75 0 128 53t53 128-53 128-128 53-128.5-53-53.5-128 53.5-128 128.5-53zM235 480q66 0 113-47t47-113-47-113-113-47-113 47-47 113 47 113 113 47zM401 154q67 67 68.5 161t-61.5 163l8 8q8 8 0 15t-15 0l-31-30q-8-7 0-15 4-3 8-3 5 0 8 3l7 7q56-63 54.5-148t-61.5-146q-61-60-146.5-62t-147.5 55l7 7q7 7 0 15t-15 0l-30-30q-8-8 0-15 3-3 7-3 5 0 8 3l8 8q57-53 136-61v-23q-62-6-112-44l-26-19h319l-25 19q-52 38-113 44v23q83 8 145 68zM145 21q42 22 90 22 46 0 90-22h-180z" glyph-name="globe" unicode="&#xe04f;"/><glyph d="M487 375q11-16 5-36l-79-259q-5-18-22-31-17-12-35-12h-263q-22 0-43 15-20 16-28 37-7 19-1 37 0 3 1 7 1 5 1 11 0 4-1 6v4l-1 2 3 6q2 4 4 6 1 1 2.5 3.5t2.5 3.5q6 8 13 26 6 14 9 26v9q-1 5 0 8 0 2 4 8 5 5 5 7 6 8 12 26 7 19 7 26v9q-2 6 0 8 2 4 6 8 6 6 6 7 5 6 13 24 7 19 7 28v7q-1 3-1 7 0 3 3 6l2 3 3 3q4 5 5 6 3 7 4 9 1 1 2.5 4.5t2.5 5.5q2 6 4 10 3 6 6 9 3 4 7 7 5 3 11 3 8 0 13-1v-1q7 2 14 2h218q22 0 32-16 12-15 6-37l-79-259q-11-36-20-43-10-10-37-10h-248q-8 0-11-5t0-12q6-20 41-20h264q6 0 16 5 7 4 10 11l85 282q2 5 2 17 12-5 17-13zM183 375q-1-4 0-7 2-2 6-2h174q1 0 7 2 4 4 5 7l6 18q0 5-1 7-2 2-6 2h-173q-2 0-8-2-4-4-4-7zM159 302q-1-4 0-7 2-2 6-2h174q5 0 7 2 3 2 5 7l6 18q2 3-1 6-2 3-5 3h-174q-4 0-7-3-2-1-5-6z" glyph-name="book" unicode="&#xe050;"/><glyph d="M352 384h-96v-320h96v320zM480 288h-96v-224h96v224zM32 32v64h32v32h-32v64h32v32h-32v64h32v32h-32v64h32v32h-32v64h32v32h-64v-512h512v32h-480zM224 224h-96v-160h96v160z" glyph-name="bar-graph" unicode="&#xe051;"/><glyph d="M160 426q0-10-10-10h-76q-10 0-10 10v76q0 10 10 10h76q10 0 10-10v-76zM307 426q0-10-10-10h-76q-10 0-10 10v76q0 10 10 10h76q10 0 10-10v-76zM448 426q0-10-10-10h-76q-10 0-10 10v76q0 10 10 10h76q10 0 10-10v-76zM160 298q0-10-10-10h-76q-10 0-10 10v76q0 10 10 10h76q10 0 10-10v-76zM307 298q0-10-10-10h-76q-10 0-10 10v76q0 10 10 10h76q10 0 10-10v-76zM448 298q0-10-10-10h-76q-10 0-10 10v76q0 10 10 10h76q10 0 10-10v-76zM160 170q0-10-10-10h-76q-10 0-10 10v76q0 10 10 10h76q10 0 10-10v-76zM307 170q0-10-10-10h-76q-10 0-10 10v76q0 10 10 10h76q10 0 10-10v-76zM307 42q0-10-10-10h-76q-10 0-10 10v76q0 10 10 10h76q10 0 10-10v-76zM448 170q0-10-10-10h-76q-10 0-10 10v76q0 10 10 10h76q10 0 10-10v-76z" glyph-name="keypad" unicode="&#xe052;"/><glyph d="M228 359q4 0 14 2 4 0 5 3 2 4 2 6l-24 135q-2 9-10 7-32-5-50-31.5t-12-57.5q4-28 25.5-46t49.5-18zM210 493l20-116-2-1q-22 0-38 14t-20 36 7.5 41 32.5 26zM364 361q10-2 14-2 28 0 49.5 18t25.5 46q6 31-12 57.5t-50 31.5q-4 0-6-2-2-1-4-5l-23-135q-2-9 6-9zM396 493q21-7 33-26t8-41q-5-22-22-36t-39-13zM495 119h-94l6 33q10-6 16-7 14-3 26 5.5t14 22.5l14 90q5 23-10 44-14 20-38 25l-67 12q-5 0-7-2-3-2-3-5l-31-177q-2-9 6-9 9-2 7-10l-3-22h-57l-2 22q-2 8 7 10 3 0 5 3 2 2 2 6l-31 177q-2 9-10 7l-68-12q-24-5-38-25t-10-44l15-89q3-14 14-22 12-9 26-6 7 1 15 7l6-34h-43v9q0 9-8 9-9 0-9-9v-9h-128q-15 0-15-34t15-34h128v-25q0-9 9-9 8 0 8 9v25h56l4-23q2-12 12-20t22-8h6q14 3 22 14.5t6 25.5l-2 11h31l-2-11q-3-13 5-26 8-11 22-14h6q13 0 22.5 8t11.5 20l4 23h73q17 0 30 21t13 39q0 8-9 8zM211 184v1l-10 58q-2 9-10 7-3 0-5.5-3t-1.5-6l10-58v-1q2-7-2-12.5t-11-6.5-13 3q-5 3-7 11l-15 89q-3 17 7 31.5t27 17.5l59 11 29-162q-16-8-13-26l2-19h-35zM94 102h17v-34h-17v34zM77 68h-17v34h17v-34zM20 102h23v-34h-23q-2 5-2 17t2 17zM128 68v34h17v-34h-17zM273 37q2-16-14-20-7-1-12.5 3t-7.5 11l-3 20h34zM162 68v34h166l-6-34h-160zM367 31q-4-17-20-14-7 2-11 7-3 6-3 13l18 101q3 18-12 26l28 162 59-11q18-3 27-17 10-15 7-32l-14-91q-4-16-20-13-6 0-11 7-3 4-3 12v1l11 59q0 8-7 10-8 2-10-7l-11-61v-1zM461 68h-70l7 34h87q-2-12-9.5-23t-14.5-11z" glyph-name="berserk" unicode="&#xe053;"/><glyph d="M177 279h160v60q0 34-23.5 57.5t-56.5 23-57-23-23-57.5v-60zM438 249v-181q0-13-9-21.5t-22-8.5h-300q-13 0-21.5 9t-9.5 21v181q0 12 9 21t22 9h9v60q0 58 41.5 99.5t99 41.5 99.5-41.5 41-99.5v-60h10q13 0 21.5-8.5t9.5-21.5z" glyph-name="padlock" unicode="&#xe054;"/><glyph d="M475 213v176q-49-26-87-26-24 0-41 10-28 13-53 21-21 8-51 8-49 0-115-36v-171q72 32 124 32 11 0 29-2 10-1 28-7 6-2 13-5t9-4l6-3t8.5-4 9.5-5l8-4q12-6 29-6 33 0 83 26zM91 439q0-12-5-18-4-8-13-14v-361q0-3-2-7-2-2-7-2h-18q-5 0-7 2t-2 7v361q-8 6-14 14-5 8-5 18 0 15 11 26 10 10 26 10t26-10 10-26zM512 421v-218q0-11-10-17-4-2-5-2-61-33-105-33-26 0-45 10l-8 4q-17 8-29 13-8 4-26 9-20 4-32 4-26 0-68-13-37-12-65-29-5-3-9-3t-9 3q-10 4-10 16v212q0 9 9 15 14 8 23 12 1 1 32 15 24 10 44 14 23 6 44 6 31 0 60-9 30-10 60-25 12-5 25-5 34 0 89 32 6 3 8 5 9 5 18-1t9-15z" glyph-name="flag-outline" unicode="&#xe055;"/><glyph d="M256 402q-60 0-109-20-50-19-81-53-29-35-29-73 0-34 20-61 22-30 58-50l24-14-7-28q-8-26-20-49 45 18 78 49l13 11 16-2q13-2 37-2 60 0 109 20 50 19 81 53 29 35 29 73t-29 73q-31 34-81 53-49 20-109 20zM512 256q0-51-34-92-34-42-93-66-59-25-129-25-13 0-41 2-57-49-132-69-12-3-32-6h-2q-3 0-8 3-2 2-4 8-1 1 0 4v2q0 1 2 3l1 3 2 2 3 3 1 2q2 1 4 3.5t3 4.5l10 10q1 1 4 5t5 7q5 7 9 14 3 4 8 17 2 4 4.5 11.5l3.5 10.5q-46 26-71 63-26 38-26 80 0 51 34 92 34 42 93 66 59 25 129 25t129-25q59-24 93-66 34-41 34-92z" glyph-name="bubble-speech" unicode="&#xe056;"/><glyph d="M201 402q-43 0-82-15-36-13-60-40-22-25-22-54 0-23 15-46 16-23 42-37l28-16-10-24q3 2 9 5.5t9 5.5l12 9 15-3q20-4 44-4 45 0 82 15 38 15 60 40 23 26 23 55 0 28-23 54-24 27-60 40-38 15-82 15zM201 439q53 0 101-20 47-20 73-53 27-33 27-73 0-39-27-74-26-33-73-53-48-20-101-20-22 0-50 5-35-25-80-37-2 0-6.5-1l-9-2t-8.5-1h-1q-4 0-6 2-3 3-3 6v2 2 1l1 2 1 1 1 2q1 0 1 1l2 2q3 3 6 7l8 8q2 4 6 8 2 2 4.5 6t2.5 5q4 8 6 13-34 20-56 51-20 31-20 64 0 40 27 73 28 34 73 53 48 20 101 20zM436 105q2-5 6-13 2-5 7-11 4-4 6-8 1-1 2-2.5t2.5-3 3.5-2.5q1-1 2.5-3t2.5-3 1-2q1 0 2-1l1-1q0-1 .5-1t.5-1l1-1 1-2v-1q1-2 0-2v-2q0-4-4-6-2-4-6-2-18 2-24 4-45 12-80 37-28-5-50-5-77 0-135 38 11-1 25-1 48 0 88 13 43 12 76 36 36 27 55 61 19 36 19 73 0 23-7 43 38-21 59-51t21-66q0-33-20-64-21-29-56-50z" glyph-name="bubble-convo" unicode="&#xe057;"/><glyph d="M512 309v-227q0-19-13-32t-33-13h-420q-20 0-33 13t-13 32v227q10-11 29-25 116-79 142-98l10-7.5t9.5-7 6.5-4.5q15-8 27-14 21-7 32-7t32 7q12 6 27 14 3 2 6.5 4.5t9.5 7l10 7.5q92 64 142 98 19 14 29 25zM512 393q0-21-14-43-12-18-35-35-98-69-134-93l-2-2q-2-1-4.5-3t-5.5-4-15-11q-6-3-15-9l-16-8q-12-2-15-2t-15 2l-4 2t-3.5 1.5-4 2-4.5 2.5q-9 6-15 9-12 9-15 11t-5.5 4-4.5 3l-2 2q-10 6-35.5 24t-39.5 28q-14 9-28 19l-21 15t-10 7q-18 12-33 33-16 20-16 39 0 22 12 37t34 15h420q18 0 32-14t14-32z" glyph-name="envelope" unicode="&#xe058;"/><glyph d="M158 256q-43-1-71-34h-35q-23 0-37 11-15 11-15 31 0 94 33 94 3 0 12-5 8-6 26-12 17-5 31-5 18 0 36 6-1-7-1-18 0-36 21-68zM444 86q0-32-20-50-19-19-51-19h-234q-32 0-51 19-20 18-20 50 0 5 .5 14.5t.5 13.5q2 18 4 29 4 20 7 29 2 5 11 26 7 11 17 21 9 9 23 15 15 5 30 5 2 0 11-6 12-8 19-13 19-10 29-12 18-6 36-6t36 6q10 2 29 12 7 5 19 13 9 6 11 6 15 0 30-5 14-6 23-15 10-10 17-21 9-21 11-26 3-9 7-29 2-11 4-29 0-4 .5-13.5t.5-14.5zM171 427q0-27-20-49-22-20-49-20-28 0-48 20-20 22-20 49 0 28 20 48t48 20q27 0 49-20 20-20 20-48zM358 324q0-42-30-72t-72-30-72 30-30 72q0 43 30 73t72 30 72-30 30-73zM512 264q0-20-15-31-14-11-37-11h-35q-28 33-71 34 21 32 21 68 0 11-1 18 18-6 36-6 14 0 31 5 18 6 26 12 9 5 12 5 33 0 33-94zM478 427q0-27-20-49-20-20-48-20-27 0-49 20-20 22-20 49 0 28 20 48 22 20 49 20 28 0 48-20t20-48z" glyph-name="group" unicode="&#xe059;"/><glyph d="M149 260q-21 47-21 106h-73v-28q0-22 27-46 28-25 67-32zM457 338v28h-73q0-59-21-106 39 7 67 32 27 24 27 46zM494 375v-37q0-20-12-41-13-21-32-37-21-16-50-28-28-10-61-12-12-16-27-27-12-11-15-21-4-9-4-26t8-26q9-10 28-10 20 0 38-13 17-14 17-33v-18q0-4-3-7-1-2-6-2h-238q-5 0-6 2-3 3-3 7v18q0 19 17 33 18 13 38 13 19 0 28 10 8 9 8 26t-4 26q-3 10-15 21-15 11-27 27-33 2-61 12-29 12-50 28-19 16-32 37-12 21-12 41v37q0 11 8 19t20 8h82v28q0 19 13 32t33 13h164q20 0 33-13t13-32v-28h82q12 0 20-8t8-19z" glyph-name="trophy" unicode="&#xe05a;"/><glyph d="M110 128q0 7-6 13-5 5-13 5-7 0-12-5-6-6-6-13t6-13q5-5 12-5 8 0 13 5 6 6 6 13zM439 293q0 14-11 25-13 11-26 11h-100q0 17 13 46 14 27 14 46 0 27-9 41-9 13-37 13-7-7-10-24-5-17-9-36-7-21-17-31-9-9-22-26l-1-2q-1-1-2.5-3t-3.5-4q-6-8-9-11-4-6-10-12-8-10-11-13-7-7-11-10-2-2-11-8-4-2-11-2h-9v-183h9q1 0 4-.5t5-.5 5-.5 5-1.5q6-2 11-3 6-3 10-3l10-4q6-3 8-3 60-21 98-21h34q55 0 55 48 0 10-1 16 8 4 13 15 5 9 5 21 0 11-5 20 15 13 15 34 0 5-2 15-3 9-8 14 9 0 16 13 6 13 6 24zM475 293q0-27-14-47 3-9 3-19 0-22-11-42 1-4 1-12 0-28-17-51 0-40-24-62-24-23-65-23h-37q-27 0-54 6-20 5-62 19-35 11-40 11h-82q-15 0-26 11-10 10-10 26v183q0 15 10 25 10 11 26 11h78q11 8 40 44 15 20 30 37 7 7 10 24t9 37q6 18 18 30 11 11 25 11 25 0 44-9 18-9 29-29 10-22 10-53 0-25-14-55h50q28 0 52-22 21-21 21-51z" glyph-name="thumbs-up" unicode="&#xe05b;"/><glyph d="M512 192q0-48-36-129-2-2-3-7l-4-8q0-1-1-2.5t-2-2.5-1-2q-3-4-8-4-3 0-7 2-2 4-2 8t1 7v7q2 26 2 35 0 25-5 52-4 21-14 39-9 17-23 29-15 13-30 20-17 8-38 12-23 5-44 6-30 2-50 2h-64v-73q0-7-6-13-4-5-12-5-9 0-13 5l-147 146q-5 7-5 13t5 13l147 146q4 6 13 6 7 0 12-6 6-4 6-13v-73h64q204 0 250-115 15-38 15-95z" glyph-name="back" unicode="&#xe05c;"/><glyph d="M256 475q62 0 110-29 50-30 80-80 29-48 29-110t-29-110q-30-50-80-80-48-29-110-29t-110 29q-50 30-80 80-29 48-29 110t29 110q30 50 80 80 48 29 110 29zM293 119v54q0 4-3 7t-6 3h-55q-4 0-7-3t-3-7v-54q0-5 3-6 3-3 7-3h55q2 0 6 2 3 3 3 7zM292 217l5 178q0 3-3 5-2 2-7 2h-62q-5 0-7-2-3-2-3-5l5-178q0-2 3-5 2-2 6-2h53q3 0 7 2 3 3 3 5z" glyph-name="caution-circle" unicode="&#xe05d;"/><glyph d="M411 257q0 47-24 84l-216-215q38-25 85-25 32 0 60 12 28 11 50 33 21 21 33 50t12 61zM126 171l216 216q-40 26-86 26-42 0-78-21t-57-57q-20-37-20-78 0-46 25-86zM475 257q0-48-17-86-20-44-47-70-26-27-70-47-38-17-85-17t-85 17q-44 20-70 47-27 26-47 70-17 38-17 86 0 47 17 85 18 42 47 71 30 30 70 46 41 18 85 18t85-18q41-16 70-46 29-29 47-71 17-38 17-85z" glyph-name="not-allowed" unicode="&#xe05e;"/><glyph d="M256 101v310q-41 0-78-20-36-21-57-57-20-37-20-78t20-78q21-36 57-57 37-20 78-20zM475 256q0-62-29-110-30-50-80-80-48-29-110-29t-110 29q-50 30-80 80-29 48-29 110t29 110q30 50 80 80 48 29 110 29t110-29q50-30 80-80 29-48 29-110z" glyph-name="random-color" unicode="&#xe05f;"/><glyph d="M140 73l26 26-67 67-26-26v-30h37v-37h30zM290 338q0 7-7 7-2 0-4-2l-155-155q-2-2-2-5 0-6 6-6 4 0 5 2l155 154q2 4 2 5zM274 393l119-119-238-237h-118v118zM469 366q0-16-10-26l-48-47-118 118 47 48q10 10 26 10 15 0 26-10l67-67q10-11 10-26z" glyph-name="pencil" unicode="&#xe060;"/><glyph d="M238 256q0 30-22 52-21 21-51 21-31 0-52-21-22-24-22-52t22-52q21-21 52-21 30 0 51 21 22 22 22 52zM457 110q0 15-11 25-10 11-25 11-16 0-26-11-11-11-11-25 0-15 11-26t26-11q14 0 25 11 11 10 11 26zM457 402q0 16-11 26-11 11-25 11-15 0-26-11t-11-26q0-13 11-26 10-10 26-10 15 0 25 10 11 11 11 26zM347 282v-53q0-4-2-5-1-3-4-3l-44-7q-6-14-10-22 22-28 26-33 2-4 2-6 0-3-2-5-2-3-23-26-19-17-23-17-2 0-6 2l-33 26q-14-6-22-9-3-31-6-44-3-7-9-7h-53q-2 0-6 2 0 1-1 2.5t-2 2.5l-6 44q-9 3-22 9l-33-26q-4-2-6-2-3 0-6 3-41 38-41 45 0 2 2 6 3 5 12 15 3 4 8 10t5 7q-9 20-10 24l-43 7q-3 0-5 2t-2 6v53q0 4 2 5 2 3 4 3l45 7q3 9 9 22-22 28-26 33-2 4-2 6 0 3 2 5 2 3 23 26 19 17 23 17 2 0 6-2l33-26q6 3 22 9 3 30 6 44 3 7 9 7h53q2 0 6-2 3-3 3-5l6-44q9-3 22-9l33 26q4 2 6 2 3 0 6-3 41-37 41-45 0-4-2-6-3-5-12-15-2-4-4.5-7l-5-6t-3.5-4q7-15 10-24l44-6 2-2t2-1q2-2 2-6zM530 130v-40q0-4-42-9l-2.5-5t-3-5.5-3.5-4.5q15-33 15-39l-1-2-36-21q-2 0-13 14-4 4-8.5 10.5t-6.5 8.5h-8-9q-2-2-7-8.5t-8-10.5q-11-14-13-14-12 7-35 21-2 0-2 2 0 6 15 39l-9 15q-42 5-42 9v40q0 4 42 9 6 10 9 14-15 33-15 40l2 2q4 2 10 6 3 2 8.5 5t7.5 4l9 5q2 0 13-13l6-8t5.5-7.5 3.5-4.5q4 1 9 1 4 0 8-1 9 12 26 32l2 1q1 0 36-20 0-1 .5-1t.5-1q0-7-15-40 3-4 9-14 42-5 42-9zM530 422v-40q0-4-42-9-8-12-9-14 15-33 15-40 0-1-.5-1t-.5-1q-5-3-9.5-5.5t-8-4.5-6.5-3.5l-5-2.5t-3.5-2-2.5-1l-1-1q-3 0-13 13l-6 8t-5.5 7.5-3.5 4.5q-4-1-8-1-5 0-9 1-1-1-3.5-4.5t-5.5-7.5l-6-8q-10-13-13-13-12 7-35 20l-2 2q0 7 15 40-3 4-9 14-42 5-42 9v40q0 4 42 9 5 9 9 15-15 33-15 39 0 2 2 2 0 1 10 6 2 2 16 10l9 4q3 0 13-13 3-4 8-10.5t7-8.5h9 8q15 19 26 32h2q3 0 36-20 1-1 1-2 0-6-15-39 5-6 9-15 42-5 42-9z" glyph-name="cogs" unicode="&#xe061;"/><glyph d="M224 450h-128l-64-64v-128l256-256 192 192zM64 274v96l48 48h96l224-224-144-144zM256 322l-96-96 128-128 96 96zM208 226l48 48 80-80-48-48zM192 338q0 20-14 34t-34 14-34-14-14-34 14-34 34-14 34 14 14 34zM144 322q-16 0-16 16t16 16 16-16-16-16z" glyph-name="tag" unicode="&#xe062;"/><glyph d="M293 357v-128q0-4-3-7t-7-3h-91q-4 0-7 3-2 4-2 7v18q0 4 2 6 3 3 7 3h64v101q0 3 3 6 1 3 6 3h18q4 0 7-3t3-6zM411 256q0 41-20 78-21 36-57 57-37 20-78 20t-78-20q-36-21-57-57-20-37-20-78t20-78q21-36 57-57 37-20 78-20t78 20q36 21 57 57 20 37 20 78zM475 256q0-62-29-110-30-50-80-80-48-29-110-29t-110 29q-50 30-80 80-29 48-29 110t29 110q30 50 80 80 48 29 110 29t110-29q50-30 80-80 29-48 29-110z" glyph-name="clock" unicode="&#xe063;"/><glyph d="M201 302v-165q0-4-2-6-3-3-7-3h-18q-4 0-7 3-2 1-2 6v165q0 5 2 6 3 3 7 3h18q4 0 7-3 2-2 2-6zM274 302v-165q0-4-2-6-3-3-7-3h-18q-4 0-7 3-2 2-2 6v165q0 4 2 6 3 3 7 3h18q4 0 7-3 2-2 2-6zM347 302v-165q0-5-2-6-3-3-7-3h-18q-4 0-7 3-2 2-2 6v165q0 4 2 6 3 3 7 3h18q4 0 7-3 2-1 2-6zM384 95v271h-256v-271q0-4 2-12 2-5 4-7l3-3h238l3 3q2 2 4 7 2 8 2 12zM192 402h128l-14 34q-1 1-5 3h-90q-4-2-5-3zM457 393v-18q0-3-2-7-4-2-7-2h-27v-271q0-24-14-41-13-17-32-17h-238q-19 0-32 16-14 17-14 41v272h-27q-3 0-7 2-2 4-2 7v18q0 3 2 7 4 2 7 2h88l20 48q5 11 16 18 10 7 22 7h92q12 0 22-7 11-7 16-18l20-48h88q3 0 7-2 2-4 2-7z" glyph-name="trash" unicode="&#xe064;"/><glyph d="M457 111q0-34-21-55-20-19-55-19h-250q-35 0-55 19-21 21-21 55 0 20 1 29 2 20 4 31 4 22 7 31 3 10 13 28 8 14 17 23 10 10 25 16 15 5 32 5 2 0 12-6l21-14q11-7 31-13t38-6 38 6 31 13l21 14q10 6 12 6 17 0 32-5 15-6 25-16 9-9 17-23 10-18 13-28 3-9 7-31 2-11 4-31 1-9 1-29zM366 366q0-44-32-78-34-32-78-32t-78 32q-32 34-32 78 0 45 32 77t78 32 78-32 32-77z" glyph-name="user" unicode="&#xe065;"/><glyph d="M343 225l88 85-121 18-54 109-54-109-121-18 88-85-21-120 108 57 108-57zM494 327q0-6-8-14l-103-101 24-143v-5q0-15-11-15-4 0-12 4l-128 67-128-67q-8-4-12-4-6 0-9 5-3 3-3 10 0 3 1 5l24 143-104 101q-7 11-7 14 0 11 16 13l144 21 64 130q6 12 14 12t14-12l64-130 144-21q16-2 16-13z" glyph-name="star-outline" unicode="&#xe066;"/><glyph d="M494 327q0-6-8-14l-103-101 24-143v-5q0-7-3-10-3-5-8-5-4 0-12 4l-128 67-128-67q-8-4-12-4-6 0-9 5-3 3-3 10 0 3 1 5l24 143-104 101q-7 11-7 14 0 11 16 13l144 21 64 130q6 12 14 12t14-12l64-130 144-21q16-2 16-13z" glyph-name="star" unicode="&#xe067;"/><glyph d="M402 311q0-6-5-13l-128-128q-5-5-13-5t-13 5l-128 128q-5 7-5 13t5 13q7 5 13 5h256q6 0 13-5 5-7 5-13z" glyph-name="more-triangle" unicode="&#xe068;"/><glyph d="M0 281l-2-19q37-74 104.5-117t140.5-48.5 146 26.5 121 99l2 19q-49 98-146 140.5t-199.5 16-166.5-116.5zM251 136q-48 4-79.5 40.5t-27.5 84.5 40.5 79 84.5 27 79.5-40.5 27.5-84.5-40.5-79-84.5-27zM260 310q-24 0-41-17t-17-41q0-25 17-42t41-17 41 17 17 42q0 24-17 41t-41 17z" glyph-name="eye" unicode="&#xe069;"/><glyph d="M475 256q0-47-17-85-20-44-47-70-26-27-70-47-38-17-85-17t-85 17q-44 20-70 47-27 26-47 70-17 38-17 85 0 53 23 98 22 46 64 77 13 10 28 7 15-2 23-14 10-12 7-27-1-15-14-24-29-23-43-52-15-30-15-65 0-29 11-57 12-28 32-46 18-20 46-32 28-11 57-11t57 11q28 12 46 32 20 18 32 46 11 28 11 57 0 35-15 65-14 29-43 52-13 9-14 24-3 15 7 27 8 13 24 14 14 3 27-7 42-31 64-77 23-45 23-98zM293 475v-182q0-15-11-26-13-11-26-11t-26 11q-11 11-11 26v182q0 15 11 26 13 11 26 11t26-11q11-11 11-26z" glyph-name="power" unicode="&#xe06a;"/><glyph d="M384 128q0 6-5 13-7 5-13 5-8 0-13-5-6-6-6-13t6-13q5-5 13-5 6 0 13 5 5 7 5 13zM457 128q0 6-5 13-7 5-13 5t-13-5q-5-5-5-13t5-13q7-5 13-5t13 5q5 7 5 13zM494 192v-91q0-12-8-20-10-8-20-8h-420q-10 0-20 8-8 8-8 20v91q0 11 8 19t20 8h133l38-38q16-16 39-16t39 16l39 38h132q12 0 20-8t8-19zM401 355q5-13-4-20l-128-128q-6-6-13-6t-13 6l-128 128q-9 7-4 20 5 11 17 11h73v128q0 7 6 13 5 5 12 5h74q7 0 12-5 6-6 6-13v-128h73q12 0 17-11z" glyph-name="download" unicode="&#xe06b;"/><glyph d="M364 298q0 60-41.5 101.5t-101.5 41.5q-59 0-100-42-43-42-43-101 0-58 42.5-100.5t100.5-42.5q59 0 102 43 41 41 41 100zM492 63q0-15-10-25t-25-10q-14 0-24 10l-104 104q-47-33-108-34-39 0-73 16-35 15-61 40-27 27-40 60-15 38-15 74 0 38 15 73 16 37 40 62 28 27 61 40 34 14 73 14 42 0 75-14 34-15 60-40 26-27 40-62 15-35 15-73 0-59-33-108l104-104q10-10 10-23z" glyph-name="search" unicode="&#xe06c;"/><glyph d="M512 329q0-6-5-13l-147-146q-4-5-13-5-8 0-12 5-6 6-6 13v73h-64q-20 0-50-2-21-1-44-6-21-4-38-12-15-7-30-20-14-12-23-29-10-18-14-39-5-27-5-52 0-9 2-35v-7q1-3 1-7t-2-8q-4-2-7-2-5 0-8 4l-1 3q-2 2-3 4l-4 8q-1 5-3 7-36 81-36 129 0 58 15 95 46 115 250 115h64v73q0 9 6 13 5 6 12 6 9 0 13-6l147-146q5-7 5-13z" glyph-name="forward" unicode="&#xe06d;"/><glyph d="M299 398q6-2 15-6t35-16q26-13 52-29 25-16 56-44 32-27 56-58-39-49-92-87-54-39-87-52l-35-14v40l-177-2 47 68-168 47 168 47-47 68 177-2v40zM333 340v-25l-126 1 29-42-126-29 126-29-29-42 126 1v-25q2 1 7.5 3.5t20.5 10.5 29.5 18 33 27 33.5 36q-23 31-54.5 54.5t-50.5 31.5zM302 294q69 0 109-49-22-28-54.5-40t-53.5-10l-21 2q-5 1-9 15.5t-4 32.5 4 32.5 9 15.5zM301 284h-9l-4-18h6.5 17.5t24-1 28.5-4.5 28.5-9.5q-38 33-92 33z" glyph-name="ultra-bullet" unicode="&#xe06e;"/><glyph d="M27 3zM486 454zM264 439v0q63 0 94-11 21-7 29-17 12-14 8-30v-1q-3-7-6-15 30-12 41-25 11-15-1-28-13-14-52-23 0-25 7-81 46-9 47-25 0-16-43-21 1-12 1-22 16-12 26.5-25.5t14-26.5.5-23q-3-25-65-35l-10-20h-20q22 34 31 69-21 21-93 27 37-47 48-96h-17q-12 48-54 98-63 3-112-6 46 18 96 24-11 12-28 29-67 2-64 18 2 9 27 19l-18 18q-34 7-50 18t-15 22.5 15 24.5q-27 45-30 93v0q-1 19 14 33 14 14 40 22 49 16 139 16zM264 423q-46 0-82-5 39-3 83-15-52 0-96.5-12.5t-64.5-36.5q26 11 69.5 6.5t94.5-21.5q-57 6-105.5-10t-47.5-44q37 22 94 29.5t120-7.5q-39 1-77.5-3t-73.5-18-39-36q17-22 48-52 48 13 111 15 39 1 68-3v1q-11 14-51 20t-85 2q37 15 74 19-56 15-123 12 32 11 64 16t64.5 2 51.5-17q-2 33 2 61-11 25-63.5 37t-107.5 13q50 11 96 9t85-14l6 14q1 8-4 14-7 8-23 13-31 10-88 11zM311 198q-31-1-61-6.5t-43-14.5q32-32 48-50 46 3 87-6-39 26-83 33 20 2 49-2t56-15q-16 17-34 31 22-6 42-17-1 16-3 39-21 8-58 8z" glyph-name="storm" unicode="&#xe06f;"/><glyph d="M384 448q26 0 45-19t19-45v-320q0-27-18.5-45.5t-45.5-18.5h-256q-27 0-45.5 18.5t-18.5 45.5v320q0 27 18.5 45.5t45.5 18.5h50q5 28 27 46t51 18 50.5-18 27.5-46h50zM256 464q-10 0-17-7t-7-17 7-17 17-7 17 7 7 17-7 17-17 7zM400 64v320q0 7-4.5 11.5t-11.5 4.5h-18q2-9 2-16v-16q0-7-4.5-11.5t-11.5-4.5h-192q-7 0-11.5 4.5t-4.5 11.5v16q0 7 2 16h-18q-7 0-11.5-4.5t-4.5-11.5v-320q0-7 4.5-11.5t11.5-4.5h256q7 0 11.5 4.5t4.5 11.5z" glyph-name="clipboard" unicode="&#xe070;"/><glyph d="M383 178q0 8-6 15l-63 63 63 63q6 6 6 14t-6 15l-29 29q-5 6-15 6-9 0-14-6l-63-63-63 63q-5 6-14 6-10 0-15-6l-29-29q-6-7-6-15t6-14l63-63-63-63q-6-7-6-15t6-14l29-29q6-6 15-6 8 0 14 6l63 63 63-63q6-6 14-6 9 0 15 6l29 29q6 6 6 14zM475 256q0-62-29-110-30-50-80-80-48-29-110-29t-110 29q-50 30-80 80-29 48-29 110t29 110q30 50 80 80 48 29 110 29t110-29q50-30 80-80 29-48 29-110z" glyph-name="cancel" unicode="&#xe071;"/><glyph d="M281 367q0 23 20 43.5t45 20.5v49h-49q-38-44-70-16l-18 16h-49v-49q25 0 45-20t20-43v-255q0-23-20-43.5t-45-20.5v-49h49q38 44 70 16l18-16h49v49q-25 0-45 20t-20 43q0 258 0 253v2z" glyph-name="ibeam" unicode="&#xe072;"/><glyph d="M717 150q0 43-17 80t-35 53.5-28 16.5q-13 0-17-12.5t6-20.5q54-40 53.5-117t-53.5-117q-11-7-7-20t17-13q11 0 29.5 17.5t35 54.5 16.5 78zM627 150q0 35-17.5 60t-31.5 25q-13 0-17.5-13t6.5-20q23-18 23-52t-23-51q-11-8-7-20.5t18-12.5 31.5 25.5 17.5 58.5zM349-32h-235q41 39 37 114-3 60-25 92-22 31-43 77-22 46-22 95 1 39 46 97t115 66q171 19 214-71 20-41 24-62 8-42 4-50l-13-29q-1-1 3-4 2-2 7-11t10-17q4-7 10-17t10-18 6-14 1-10q0-5-10-10t-19-7l-9-2q-14-4 4-26 6-8-14-31-3-4 2-19 3-10 2-13-8-16-19-17-30-6-31-6-36 4-64-5-27-81 9-102z" glyph-name="voice" horiz-adv-x="768" unicode="&#xe073;"/><glyph d="M499 393q1-3 3.5-9.5t6.5-25.5 4.5-38-6-46-21.5-51q-29-48-80-64.5t-95-3.5q-29 8-54 33-25-25-54-33-44-13-95 3.5t-80 64.5q-15 24-21.5 50.5t-5.5 47 4 37.5 7 26l3 9q2-1 4.5-3t11-7.5 19-9.5 27-7 35.5-3q22 0 39-2t37.5-7 37.5-17 31-30q14 18 31.5 30t37.5 17 37 7 39 2q30 0 54 7.5t33 14.5zM143 235q21-5 40.5 4.5t19.5 19.5q0 16-36 30-15 6-41.5 3.5t-27.5-11.5q-3-12 10.5-26.5t34.5-19.5zM371 235q21 5 34.5 19.5t10.5 26.5q-1 9-27.5 11.5t-41.5-3.5q-36-14-36-30 0-10 19.5-19.5t40.5-4.5z" glyph-name="mask" unicode="&#xe074;"/><glyph d="M222 110v262h64v-262h-64zM123 272h263v-64h-263v64zM112 145q-6 0-9 3l-85 84q-3 4-3 9t3 8l85 85q3 3 9 3t8-3q3-8 3-9v-169q0-6-3-8-4-3-8-3zM398 337q5 0 8-3l85-85q3-3 3-7v-1-1q0-4-3-8l-85-84q-4-5-8-3h-1q-6 0-8 3-3 4-3 8v169 1q0 5 3 8 5 3 9 3zM158 384q0 5 4 9l84 84q3 3 9 3 5 0 8-3l85-84q3-4 3-9 0-6-3-9-5-3-9-3h-169q-6 0-8 3-4 5-4 9zM351 98q0-5-3-9l-85-84q-3-4-8-4t-9 4l-84 84q-4 4-4 9 0 6 4 8 4 4 8 4h169q6 0 9-4t3-8z" glyph-name="move" unicode="&#xe075;"/><glyph d="M57 0l312 510h53l-311-510h-54zM99 401q0 19 1 34l2 30q-8-7-16.5-14.5t-17.5-13.5l-39-28-25 35 93 66h52v-306h-50v197zM307 0v38l82 80q29 28 43.5 45.5t20 31.5 5.5 30q0 23-13 34t-35 11q-21 0-38.5-8t-36.5-22l-25 33q21 17 45.5 28t55.5 11q46 0 72-22.5t26-61.5q0-35-21-63t-61-66l-58-55h139v-44h-201z" glyph-name="one-half" unicode="&#xe076;"/><glyph d="M362 346q-12 12-27.5 5.5t-15.5-23.5q0-10 8-17l140-140q12-12 27.5-5.5t15.5 22.5q0 11-8 18zM502 311q12 11 5.5 26.5t-22.5 15.5q-11 0-18-7l-140-140q-12-12-5.5-27.5t22.5-15.5q11 0 18 8zM279 51v415q0 21-20 28t-34-9l-100-127h-95q-12 0-21-9t-9-21v-139q0-12 9-21t21-9h95l100-127q14-17 34-9.5t20 28.5z" glyph-name="mute" unicode="&#xe077;"/><glyph d="M192 318q0 27 19 46.5t46 19.5 46-19.5 19-46.5-19-46-46-19-46 19-19 46zM307 242q1 0 14-9 12-7 16-10t14-11 14-14q10-12 10-13 8-13 9-16 2-11 2-23l-31-25-54-24-45-6-46 6-43 18-39 31q0 20 2 23 3 8 8 16 2 4 10 13 8 7 15 14 10 8 13 11 4 3 16 10l14 9q37-16 51-15 33 2 50 15zM255 452q-53 0-99-27-44-26-70-70-27-46-27-99 0-54 27-99 26-45 70-71 46-26 99-26 54 0 99 26t71 71 26 99q0 53-26 99-26 44-71 70-45 27-99 27zM256 480q61 0 113-30t81-81q31-52 31-113t-31-113q-29-52-81-81-52-31-113-31t-113 31q-51 29-81 81t-30 113 30 113q30 51 81 81 52 30 113 30z" glyph-name="account-circle" unicode="&#xe078;"/><glyph d="M235 361q-2-6-2-9 0-29 83.5-88.5t100.5-92.5q30 8 34 43l-113 189q-2 4 9 38-14-4-51-26-2-1-14 0-19 4-38 4-84 0-133-56.5t-49-119.5q0-75 58-132t140-57q40 0 73.5 15t50.5 30 19 15q-28-74-146-88-92 0-161.5 61t-69.5 155q0 90 65.5 157.5t203.5 58.5q14 10 37 18t39.5 9 18.5-9q0-1-13-59l106-191q11-21-10-52t-67-42q-5-1-14 12-29 39-76 75-101 79-101 128 0 20 8 23 12 3 12-9z" glyph-name="logo" unicode="&#xe079;"/></font>
</defs>
</svg>
