<svg height="50" viewBox="0 0 13.229166 13.229167" width="50" xmlns="http://www.w3.org/2000/svg"><path d="m15.679688 2.3828125-13.5742192 13.5761715v19.201172l13.5742192 13.574219h.05469 19.144531l13.533203-13.529297.04297-.04492v-19.201174l-13.576176-13.5761715zm15.226562 4.2382813c.244262.011515.510742.065343.794922.1679687.421632.597706 1.214591.7170682 1.65039 1.3242187.428379.5848884.213483 1.4515732.830079 1.9804688.50326-.08095 1.308223-.2750409 1.896484-.08008.01687.0061.04837.231927.08008.246094.185518.08163 1.027048.292361 1.408203.496093.360918.194963.915886.703997.994141.828125.211828.351473-.0043.89147.492187 1.072266-.392624 1.845063-4.379808 1.89968-5.621093.746094-.18282.558578-.68984.419039-.660157.910156.07758 1.051045 1.89834.973877 2.646485 1.982422.374409.506633.03716.885457.576172.996094-.486395 1.182594-2.68429 1.43878-3.96875.992187-.297504-.103215-.540741-.431734-.828125-.578125-.740724-.379806-1.594178-.491897-2.066407-.910156-.238812.09107-.489147.173971-.576171.412109.197661.491792.692923.682751 1.320312.744141.435799.03913-.190653-.223761.08594-.248047.261074.01417.360628.187603.660156.166016-.54846.205756.231646.949276.496094 1.320312 1.465256-.368338 3.752367-.202918 5.287109-.246094.609849.676636 1.285748 1.458572 1.902344 2.234375.170002.211154.295533.576172.576171.576172-.462783 1.295929-.707159 1.982195-1.076171 2.808594-.0425.09714-.408605.690697-.248047 1.158203-.492467 2.313918-3.737263 1.24175-4.958985.248047-.986957.02901-1.562654-.07022-2.564453-.166016-.215876.458062-.24251.205136-.49414.576172-.06341.53092.04142.896051.328125 1.076172 1.355969-.449291 3.764772-.238199 5.373047-.166016-.199011.717113.622771 1.642128.910156 2.400391-1.047672 1.776927-4.960072.760674-6.941406.660156-.29548.346751-1.075446.527099-.742188 1.242188 1.615695-.323139 5.806193-.294727 8.427734-.412109 1.626489-.07151 2.203792.01928 3.302735.660156.378457.221272.861433.485823 1.082031.667968.889138.739375.939893 1.933816 1.486328 3.138672-.758938.955925-2.179548 1.314985-3.804687 1.076172-1.097594-.159883-2.022723-.688944-3.142579-1.076172-1.78907-.619968-3.752832-.883435-5.535156-1.238281-.05937 1.339779 1.586538 1.008239 2.482422 1.238281 1.073982.276591 2.423987 1.054296 3.220703 1.736328 1.136046.96537 1.757645 2.453836 1.81836 4.296876.140993.134922.03062.521125.328125.49414-.941084 2.318641-4.233758 1.949689-5.294922.166016-.779851-1.32089-.827506-3.359761-1.646485-4.708985-.367663-.60715-.773804-.861838-1.080078-1.40625-.711715-.362266-1.13376-1.014984-1.982422-1.238281-.188216-.197661-.32002-.455003-.496093-.662109-.858781.870924-1.384707 1.912709-2.150391 2.808593-2.206655 2.58916-5.259318 4.53814-9.259766 5.458985-.548459.516078-1.80703.245524-1.572265-.912109.176748-.868226 2.099838-1.364075 2.894531-1.900391 1.718236-1.161007 3.8597-3.176679 5.042969-4.623047-.08568-.19159-.168917-.381339-.328125-.498047-1.262199.0425-2.63923.754891-3.722657 0-.857431-.601079-1.575508-2.021637-1.65039-3.470703.439847-.438498.891917-.866245 1.898437-.744141.185519.06746.15475.18544.328125.41211 1.958398.05937 3.582488.873683 5.619141.166015-.180796-.211153-.48071-.296338-.660156-.498046-2.330784.154486-3.865124-1.128259-4.296875-3.140626 1.162356-1.36339 3.84025-.0321 5.785156-.492187.120756-.364965-.465868-.669048-.660156-.992187-1.162356.158533-2.268555.114211-3.302735.162109-.38183.01889-.765579.19004-1.158203.08008-1.602203-.446593-.582486-3.342957-.998047-4.875-.885765.821002-1.094256 1.808626-1.154297 2.478516-.06409.148414-.152252.01282-.248046 0 .05667.188891-.0437 1.201649-.414063 1.076171.163256.323814.02915.873667-.246094.744141.04453.719811-.0516.695481-.49414 1.324219.02901.116708.145848.0076.164062-.08008-.08837.480998-.126819.351509-.410156 1.154297-.0425.126827-.03481.29668-.08203.414062-.06341.141669-.491161 1.380651-.744141 2.560547-.18282.849336-.660428 1.956689-.578125 2.730469.07893.714414 1.063144 1.576017 1.324219 2.642578.154486.619293-.0015 1.289122.08008 1.902344.07623.5633.223707.976251-.328125 1.488281-.54711.493816-2.197457 1.21487-2.974609 1.158203-2.547334-.192264-.871388-5.388651-2.316407-6.861328-.443894-.453339-1.6095103-.368223-1.568359-1.326172.037104-.891837 2.219316-1.451835 2.892578-2.066406.758264-.688779 1.020233-1.339517 1.652344-1.982422.29548-1.869349 2.234727-3.2761 1.982422-4.876953-.778502 1.123228-1.061619 2.095055-2.484375 2.728515-.723859.326512-2.235052.923605-2.476563.166016-.25163-.792669.453794-1.258221.416016-2.066406-.02226-.387227-.196092-.962365-.416016-1.238281-.647627-.825051-3.1922373-.294693-3.0566404-1.56836.09512-.908702 2.4287604-1.390533 3.5546874-1.486328.697549-.06679 1.565573.0092 2.148438.08008-.01552.08972-.159944.05673-.166016.166016.689453.26917.72151.372833 1.574219.826172.257027.351472.490477.725383.912109.908203.566674-.120081.878371-.498653 1.322266-.742188-1.308072-1.289857-3.415622-2.257329-4.544922-3.724609-.238813-.312345-.479832-.728888-.498047-1.072266-.05397-1.104339 1.000816-1.532297.996094-2.564453-.01349-.930964-.655879-1.560508-1.244141-2.232422-.508657-.586912-1.153894-.939875-1.072266-2.0644529 1.363391-1.4969634 2.932872-.2782191 4.462891.4921879.914099.45941 1.856524.942652 2.478516 1.652343.907353 1.026085.807254 2.238801 1.330078 3.304688-.308298 1.870698-3.36846.988587-4.710938 1.818359.247583.679334.867035 1.103552 1.486329 1.56836.569372.428378 1.65293 1.453008 2.232421 1.158203.777153-.402069 1.554342-1.670637 3.222657-1.240235.116033.274567.340197-.02112.330078.248047 1.391049-.01214 2.713429.474455 4.132812.16211-.163256-.493142-.298774-1.023877-.412109-1.570313-.839217.103216-1.566037.654356-2.396485.578125-1.044298-.08837-1.887441-1.490481-1.736328-2.396484.151788-.918147 1.136923-.800799 2.230469-.91211-.208455-.453339-.485764-.834792-.744141-1.240234-1.040925.085-2.07387.408754-2.810546-.166016-.468863-.364965-1.456985-1.893627-1.57032-2.478515-.371711-1.9536758 2.30253-1.7776899 3.966797-1.4882815.127502-.5127049-.490838-.5412048-.492188-1.0761719-.010793-1.1576337 2.568022-1.4372306 3.136719-1.0722656.333258.4992127.949809.5092362 1.324219.9902344.40814.528221.227046 1.3812109.828125 1.8183596.605801-.2455589 1.412427-.2952699 2.316406-.2480471-1.03536-1.2667522-.354366-3.2231798 1.355469-3.1425781zm-2.986328 6.3984372c-.875404.0474-1.415702.662379-.935547 1.716797.731279.153812 1.62925-.162039 2.476563-.164062-.153137-.510007-.414869-.909062-.578126-1.40625-.340678-.114853-.671089-.162285-.96289-.146485zm2.449219 8.576172v.25c-.587587-.05667-.609911 1.285426-.166016 1.650391.974814-.292107 2.512955-.02218 3.390625-.41211.07016-.406116-.141861-1.082165-.330078-1.488281-.899932.154486-1.975036.06949-2.894531 0zm-6.609375.08203c.338655.371711-.513774.183275-.25.416016-.127502.09445.02628 1.552843.746093 1.568359.185519-.301551 1.354972-.130192 1.816407-.410156-.281988-.43445-.437867-.994062-.744141-1.40625-.663818.085-.996963-.161223-1.568359-.167969z" fill="#ae4f4f" transform="matrix(.26458332549 0 0 .26458332549 -.07415639078 -.14779003851)"/></svg>