<?xml version="1.0" encoding="UTF-8" standalone="no"?>
<svg
   width="50"
   height="50"
   viewBox="0 0 13.229166 13.229167"
   version="1.1"
   id="svg1579"
   inkscape:version="1.3 (0e150ed6c4, 2023-07-21)"
   sodipodi:docname="khans.svg"
   xml:space="preserve"
   xmlns:inkscape="http://www.inkscape.org/namespaces/inkscape"
   xmlns:sodipodi="http://sodipodi.sourceforge.net/DTD/sodipodi-0.dtd"
   xmlns="http://www.w3.org/2000/svg"
   xmlns:svg="http://www.w3.org/2000/svg"
   xmlns:rdf="http://www.w3.org/1999/02/22-rdf-syntax-ns#"
   xmlns:cc="http://creativecommons.org/ns#"
   xmlns:dc="http://purl.org/dc/elements/1.1/"><defs
     id="defs1573" /><sodipodi:namedview
     id="base"
     pagecolor="#ffffff"
     bordercolor="#666666"
     borderopacity="1.0"
     inkscape:pageopacity="0.0"
     inkscape:pageshadow="2"
     inkscape:zoom="3.959798"
     inkscape:cx="-66.543799"
     inkscape:cy="15.531095"
     inkscape:document-units="px"
     inkscape:current-layer="layer1"
     showgrid="false"
     units="px"
     showguides="true"
     inkscape:window-width="3840"
     inkscape:window-height="2036"
     inkscape:window-x="3828"
     inkscape:window-y="-12"
     inkscape:window-maximized="1"
     inkscape:document-rotation="0"
     inkscape:showpageshadow="2"
     inkscape:pagecheckerboard="0"
     inkscape:deskcolor="#d1d1d1" /><metadata
     id="metadata1576"><rdf:RDF><cc:Work
         rdf:about=""><dc:format>image/svg+xml</dc:format><dc:type
           rdf:resource="http://purl.org/dc/dcmitype/StillImage" /></cc:Work></rdf:RDF></metadata><g
     inkscape:label="Layer 1"
     inkscape:groupmode="layer"
     id="layer1"
     transform="translate(0,-283.77082)"><path
       style="fill:#676cad;fill-opacity:1;stroke-width:0.0685291"
       d="m 6.2277125,296.38581 c -0.4258099,-0.0394 -0.9114228,-0.1712 -1.2964141,-0.35182 -0.9629962,-0.45177 -1.7067919,-1.25877 -2.0713628,-2.24734 -0.1239674,-0.33615 -0.1744916,-0.55798 -0.2312624,-1.01537 -0.034189,-0.27543 -0.034189,-0.48648 4.88e-5,-0.76084 0.014895,-0.1193 0.027787,-0.22944 0.028677,-0.24478 8.892e-4,-0.0154 0.015872,0.0252 0.033256,0.09 0.1367052,0.50985 0.3770907,1.02317 0.6665555,1.42332 0.3594359,0.49691 0.869106,0.92658 1.4491027,1.22168 0.3862718,0.19653 0.7297553,0.305 1.2763537,0.40307 0.1580504,0.0284 0.6935428,0.0392 0.8975202,0.0183 0.6515682,-0.067 1.31045,-0.29596 1.8312973,-0.63643 0.4472707,-0.29237 0.8623166,-0.69765 1.1514482,-1.12434 0.2719624,-0.40136 0.4868134,-0.89416 0.5968814,-1.36907 0.0126,-0.0543 0.01262,-0.0543 0.02428,-0.009 0.0064,0.0249 0.02088,0.17245 0.03213,0.32784 0.03506,0.4842 -0.02425,1.0269 -0.157394,1.44 -0.11727,0.36384 -0.225932,0.61258 -0.387276,0.88652 -0.4032892,0.68471 -1.0234062,1.24715 -1.7549354,1.59171 -0.6340421,0.29865 -1.3657404,0.42357 -2.0888978,0.35662 z m 0.072528,-2.00315 c -0.6053122,-0.0767 -1.1732914,-0.31937 -1.6044009,-0.68522 -0.3353385,-0.28457 -0.5948374,-0.6178 -0.7847744,-1.00775 -0.094966,-0.19497 -0.2200675,-0.58048 -0.2618286,-0.80686 -0.0313,-0.16963 -0.0309,-0.82849 4.446e-4,-0.99725 0.069597,-0.37287 0.2731481,-0.88027 0.4655348,-1.16042 0.5383734,-0.78399 1.3345162,-1.25426 2.2636072,-1.33708 0.7362643,-0.0656 1.4943983,0.16804 2.1254482,0.65509 0.1068905,0.0825 0.3945503,0.3733 0.4862976,0.49161 0.2075743,0.26767 0.431483,0.70888 0.5106794,1.00631 0.095389,0.35823 0.1217041,0.54535 0.121131,0.86125 -4.447e-4,0.25334 -0.00791,0.3339 -0.048672,0.52582 -0.090752,0.42744 -0.2014477,0.71645 -0.3999121,1.04413 -0.2023591,0.33412 -0.5473277,0.69452 -0.8680345,0.9069 -0.3236544,0.21434 -0.7876464,0.40674 -1.1357138,0.47094 -0.1494251,0.0275 -0.7361753,0.0495 -0.8699551,0.0326 z m 0.1925287,-6.26202 c -0.038724,-0.0293 -0.081842,-0.0696 -0.095855,-0.0896 -0.030588,-0.0436 -0.1060368,-0.0651 -0.3233211,-0.0921 -0.2150568,-0.0267 -0.3243791,-0.0585 -0.4743734,-0.13812 -0.2479749,-0.13161 -0.3725558,-0.30599 -0.4415575,-0.61805 -0.085799,-0.38804 -0.022764,-0.706 0.1863001,-0.93966 0.1219846,-0.13634 0.130103,-0.15882 0.1309299,-0.36253 8.891e-4,-0.18038 0.00133,-0.18287 0.066779,-0.27198 0.036323,-0.0495 0.097429,-0.1185 0.1357937,-0.1534 0.038369,-0.0349 0.096109,-0.0961 0.1283112,-0.13599 0.076742,-0.095 0.095028,-0.0688 0.094962,0.13599 -4.45e-5,0.1387 -0.00565,0.1641 -0.056197,0.25384 -0.084047,0.14929 -0.077761,0.24324 0.026587,0.39766 0.1275198,0.18867 0.1433964,0.22874 0.1324015,0.33425 -0.03708,0.35589 -0.039391,0.32231 0.028232,0.41094 0.071162,0.0933 0.1342865,0.13153 0.1782885,0.10799 0.016583,-0.009 0.048782,-0.0791 0.072149,-0.15748 0.040948,-0.1373 0.041348,-0.14546 0.014094,-0.27819 -0.015472,-0.0752 -0.053885,-0.20117 -0.085417,-0.27991 -0.1046719,-0.2614 -0.094237,-0.34246 0.06845,-0.53143 0.1299961,-0.15101 0.152355,-0.20388 0.1423738,-0.33665 -0.00462,-0.0613 -0.031122,-0.1726 -0.058936,-0.24739 -0.066294,-0.17833 -0.071541,-0.36742 -0.013694,-0.49349 0.038013,-0.0829 0.193885,-0.26804 0.2256116,-0.26804 0.00862,0 0.015739,0.0142 0.015828,0.0317 2.757e-4,0.0485 0.077698,0.20424 0.1551649,0.31206 0.098368,0.13693 0.1222825,0.26388 0.088511,0.46987 -0.051018,0.31117 -0.037613,0.38606 0.110874,0.61875 0.130263,0.20415 0.1411734,0.3408 0.05281,0.66167 -0.070265,0.25515 -0.055806,0.37223 0.056904,0.46089 0.064969,0.0511 0.1234651,0.0478 0.1685785,-0.01 0.064987,-0.0826 0.075297,-0.15893 0.044731,-0.33113 -0.032812,-0.18486 -0.023919,-0.27804 0.038235,-0.40069 0.1128081,-0.22263 0.1148755,-0.37495 0.00787,-0.58055 -0.067988,-0.13064 -0.063555,-0.15786 0.045394,-0.27871 0.077494,-0.086 0.1191969,-0.0971 0.1191969,-0.0318 0,0.0176 0.033567,0.0762 0.074537,0.13038 0.1225003,0.16182 0.1302762,0.19204 0.1161203,0.45126 -0.014405,0.264 -0.00587,0.29741 0.1071749,0.41824 0.1240163,0.13259 0.241955,0.32426 0.2726189,0.44306 0.015338,0.0594 0.027787,0.18183 0.027699,0.27198 -4.135e-4,0.29843 -0.069282,0.45427 -0.2763625,0.62516 -0.178364,0.1472 -0.3836486,0.24837 -0.5756129,0.28371 -0.1967216,0.0362 -0.2784655,0.0727 -0.3960085,0.17718 -0.084616,0.0752 -0.1039072,0.0841 -0.1802759,0.0836 -0.066067,-4.1e-4 -0.1015285,-0.0127 -0.1558985,-0.0538 z"
       id="path3" /><path
       style="fill:#000000"
       id="path2" /><path
       style="fill:#000000"
       id="path1" /></g></svg>
