<svg height="50" viewBox="0 0 13.229166 13.229167" width="50" xmlns="http://www.w3.org/2000/svg"><path d="m6.2277125 296.38581c-.4258099-.0394-.9114228-.1712-1.2964141-.35182-.9629962-.45177-1.7067919-1.25877-2.0713628-2.24734-.1239674-.33615-.1744916-.55798-.2312624-1.01537-.034189-.27543-.034189-.48648.0000488-.76084.014895-.1193.027787-.22944.028677-.24478.0008892-.0154.015872.0252.033256.09.1367052.50985.3770907 1.02317.6665555 1.42332.3594359.49691.869106.92658 1.4491027 1.22168.3862718.19653.7297553.305 1.2763537.40307.1580504.0284.6935428.0392.8975202.0183.6515682-.067 1.31045-.29596 1.8312973-.63643.4472707-.29237.8623166-.69765 1.1514482-1.12434.2719624-.40136.4868134-.89416.5968814-1.36907.0126-.0543.01262-.0543.02428-.009.0064.0249.02088.17245.03213.32784.03506.4842-.02425 1.0269-.157394 1.44-.11727.36384-.225932.61258-.387276.88652-.4032892.68471-1.0234062 1.24715-1.7549354 1.59171-.6340421.29865-1.3657404.42357-2.0888978.35662zm.072528-2.00315c-.6053122-.0767-1.1732914-.31937-1.6044009-.68522-.3353385-.28457-.5948374-.6178-.7847744-1.00775-.094966-.19497-.2200675-.58048-.2618286-.80686-.0313-.16963-.0309-.82849.0004446-.99725.069597-.37287.2731481-.88027.4655348-1.16042.5383734-.78399 1.3345162-1.25426 2.2636072-1.33708.7362643-.0656 1.4943983.16804 2.1254482.65509.1068905.0825.3945503.3733.4862976.49161.2075743.26767.431483.70888.5106794 1.00631.095389.35823.1217041.54535.121131.86125-.0004447.25334-.00791.3339-.048672.52582-.090752.42744-.2014477.71645-.3999121 1.04413-.2023591.33412-.5473277.69452-.8680345.9069-.3236544.21434-.7876464.40674-1.1357138.47094-.1494251.0275-.7361753.0495-.8699551.0326zm.1925287-6.26202c-.038724-.0293-.081842-.0696-.095855-.0896-.030588-.0436-.1060368-.0651-.3233211-.0921-.2150568-.0267-.3243791-.0585-.4743734-.13812-.2479749-.13161-.3725558-.30599-.4415575-.61805-.085799-.38804-.022764-.706.1863001-.93966.1219846-.13634.130103-.15882.1309299-.36253.0008891-.18038.00133-.18287.066779-.27198.036323-.0495.097429-.1185.1357937-.1534.038369-.0349.096109-.0961.1283112-.13599.076742-.095.095028-.0688.094962.13599-.0000445.1387-.00565.1641-.056197.25384-.084047.14929-.077761.24324.026587.39766.1275198.18867.1433964.22874.1324015.33425-.03708.35589-.039391.32231.028232.41094.071162.0933.1342865.13153.1782885.10799.016583-.009.048782-.0791.072149-.15748.040948-.1373.041348-.14546.014094-.27819-.015472-.0752-.053885-.20117-.085417-.27991-.1046719-.2614-.094237-.34246.06845-.53143.1299961-.15101.152355-.20388.1423738-.33665-.00462-.0613-.031122-.1726-.058936-.24739-.066294-.17833-.071541-.36742-.013694-.49349.038013-.0829.193885-.26804.2256116-.26804.00862 0 .015739.0142.015828.0317.0002757.0485.077698.20424.1551649.31206.098368.13693.1222825.26388.088511.46987-.051018.31117-.037613.38606.110874.61875.130263.20415.1411734.3408.05281.66167-.070265.25515-.055806.37223.056904.46089.064969.0511.1234651.0478.1685785-.01.064987-.0826.075297-.15893.044731-.33113-.032812-.18486-.023919-.27804.038235-.40069.1128081-.22263.1148755-.37495.00787-.58055-.067988-.13064-.063555-.15786.045394-.27871.077494-.086.1191969-.0971.1191969-.0318 0 .0176.033567.0762.074537.13038.1225003.16182.1302762.19204.1161203.45126-.014405.264-.00587.29741.1071749.41824.1240163.13259.241955.32426.2726189.44306.015338.0594.027787.18183.027699.27198-.0004135.29843-.069282.45427-.2763625.62516-.178364.1472-.3836486.24837-.5756129.28371-.1967216.0362-.2784655.0727-.3960085.17718-.084616.0752-.1039072.0841-.1802759.0836-.066067-.00041-.1015285-.0127-.1558985-.0538z" fill="#676cad" stroke-width=".068529" transform="translate(0 -283.77082)"/></svg>