<svg enable-background="new 0 0 512 512" viewBox="0 0 512 512" xmlns="http://www.w3.org/2000/svg"><path d="m58.404981 60.881092c-10.710815 2.869954-18.102499 9.424539-16.577835 15.114659l109.439424 408.433499c1.52466 5.69012 11.20334 7.67072 21.91416 4.80076 10.71081-2.86995 18.1025-9.42454 16.57783-15.11465l-109.439423-408.433507c-1.524663-5.690121-11.203341-7.670716-21.914156-4.800761zm134.614579-38.543104c-38.49198 10.313899-112.700423 43.343865-112.700423 43.343865l61.794553 229.386227s38.3084-50.32442 75.37787-60.25716c37.06946-9.93273 61.31461-7.04765 101.47065 2.70149 68.09724 16.53275 161.63744-155.500648 150.50053-166.637545-1.86221 13.035549-114.79447 50.357905-146.60447 38.120945-33.06921-12.721366-91.34671-96.97172-129.83871-86.657822z" fill="#70787d" fill-opacity=".984314" stroke-width=".866301" transform="matrix(1.0601262 0 0 1.0601262 -15.392308 -15.392307)"/></svg>