<svg height="50" viewBox="0 0 13.229166 13.229167" width="50" xmlns="http://www.w3.org/2000/svg"><path d="m25 1.7617188-15.7265625 5.4960937-4.3085937 40.9804685h40.0703122l-4.308594-40.9804685zm-1.375 12.5117192h2.521484c.763889.152692.800781.459562.113282.917968v2.291016h11.458984v2.177734h-25.322266v-2.177734h11.228516zm-7.447266 7.5625h17.53125v8.9375h-2.292968v-.6875h-4.925782v8.480468c0 1.222224-.611762 1.832032-1.833984 1.832032h-2.978516l-.458984-2.519532h2.521484c.305556 0 .457032-.153422.457032-.458984v-7.333984h-5.728516v1.03125h-2.291016zm2.291016 2.177734v3.896484h12.947266v-3.896484zm.6875 7.791016 2.0625 1.949218c.229165.381934-.000001.533403-.6875.457032-1.756944 2.062488-4.048611 3.820095-6.875 5.271484l-1.375-2.634766c2.902778-1.374992 5.194444-3.056852 6.875-5.042968zm11.458984 0c1.604167 2.138885 3.895834 3.743044 6.875 4.8125l-1.490234 2.521484c-3.131944-1.145827-5.613932-3.054903-7.447266-5.728516z" fill="#8d6c46" transform="scale(.26458333)"/></svg>