<?xml version="1.0" encoding="UTF-8" standalone="no"?>
<svg
   xmlns:dc="http://purl.org/dc/elements/1.1/"
   xmlns:cc="http://creativecommons.org/ns#"
   xmlns:rdf="http://www.w3.org/1999/02/22-rdf-syntax-ns#"
   xmlns:svg="http://www.w3.org/2000/svg"
   xmlns="http://www.w3.org/2000/svg"
   xmlns:sodipodi="http://sodipodi.sourceforge.net/DTD/sodipodi-0.dtd"
   xmlns:inkscape="http://www.inkscape.org/namespaces/inkscape"
   width="50"
   height="50"
   viewBox="0 0 13.229166 13.229167"
   version="1.1"
   id="svg1579"
   inkscape:version="1.0.1 (3bc2e813f5, 2020-09-07)"
   sodipodi:docname="makpong.svg">
  <defs
     id="defs1573">
    <inkscape:path-effect
       effect="mirror_symmetry"
       start_point="-15.691712,-45.362002"
       end_point="-15.691712,4.437998"
       center_point="-15.691712,-20.462002"
       id="path-effect7365"
       is_visible="true"
       mode="free"
       discard_orig_path="false"
       fuse_paths="true"
       oposite_fuse="false" />
  </defs>
  <sodipodi:namedview
     id="base"
     pagecolor="#ffffff"
     bordercolor="#666666"
     borderopacity="1.0"
     inkscape:pageopacity="0.0"
     inkscape:pageshadow="2"
     inkscape:zoom="7.9195959"
     inkscape:cx="-7.447324"
     inkscape:cy="38.142259"
     inkscape:document-units="px"
     inkscape:current-layer="layer1"
     showgrid="false"
     units="px"
     showguides="true"
     inkscape:window-width="3840"
     inkscape:window-height="2050"
     inkscape:window-x="-12"
     inkscape:window-y="-12"
     inkscape:window-maximized="1"
     inkscape:document-rotation="0" />
  <metadata
     id="metadata1576">
    <rdf:RDF>
      <cc:Work
         rdf:about="">
        <dc:format>image/svg+xml</dc:format>
        <dc:type
           rdf:resource="http://purl.org/dc/dcmitype/StillImage" />
        <dc:title></dc:title>
      </cc:Work>
    </rdf:RDF>
  </metadata>
  <g
     inkscape:label="Layer 1"
     inkscape:groupmode="layer"
     id="layer1"
     transform="translate(0,-283.77082)">
    <path
       inkscape:connector-curvature="0"
       style="display:inline;opacity:0.98999999;fill:#98812d;fill-opacity:1;fill-rule:evenodd;stroke:none;stroke-width:0.0436648px;stroke-linecap:butt;stroke-linejoin:miter;stroke-opacity:1"
       d="m 6.6519612,284.6003 -1.2143962,0.87023 c 0.1305965,0.12624 0.2616279,0.25255 0.3922241,0.37879 0.1715477,0.12005 0.2663391,0.25537 0.1157552,0.44029 -0.037212,0.23167 -0.2575882,0.3073 -0.4599201,0.3483 -0.5819918,0.18425 -1.1384846,0.44787 -1.6831013,0.72295 -0.4477848,0.17506 -0.7603734,0.5537 -1.1322306,0.84336 -0.1700314,0.20563 -0.3298786,0.43542 -0.4547527,0.67179 -0.084963,0.31324 -0.263499,0.60697 -0.243396,0.94155 -0.018845,0.44453 0.1974494,0.84256 0.3209107,1.25883 0.1422966,0.36637 0.416853,0.66799 0.6139159,1.00769 0.4752766,0.64048 1.0515013,1.19954 1.6164388,1.76114 0.3780329,0.31841 0.816175,0.56407 1.2180135,0.85369 -0.8904483,0.0135 -1.7812233,0.0268 -2.6716716,0.0403 -0.00675,0.4857 -0.013404,0.97158 -0.020153,1.45728 H 10.24244 l 0.01188,-1.41697 c -0.9039398,-0.0202 -1.8080385,-0.0403 -2.7119787,-0.0605 0.1969109,-0.15129 0.3937508,-0.30243 0.5906617,-0.45372 0.4103245,-0.34129 0.879983,-0.61799 1.2443684,-1.00976 0.3546094,-0.41535 0.7896036,-0.76816 1.0722866,-1.2392 0.252856,-0.34079 0.415454,-0.72942 0.572058,-1.12086 0.195166,-0.35704 0.250784,-0.75546 0.234094,-1.15497 -0.01491,-0.35688 -0.05609,-0.71721 -0.262,-1.01803 -0.134426,-0.31956 -0.397567,-0.53923 -0.641304,-0.77411 -0.196987,-0.22944 -0.4442817,-0.39125 -0.7152021,-0.5209 -0.6628746,-0.4066 -1.4090298,-0.63813 -2.120284,-0.94309 -0.1463315,-0.093 -0.1625674,-0.32151 -0.2578653,-0.46768 l 0.6071981,-0.48575 c -0.4047495,-0.31031 -0.8096467,-0.62039 -1.2143962,-0.9307 z m 1.6944702,3.55224 -5.291e-4,0.002 0.00982,0.0822 c 0.1137971,0.96245 0.2043602,1.91734 0.1948202,2.87889 v 0.0124 l -0.00414,0.0119 c 0,0 -0.096051,0.25859 -0.365869,0.62477 -0.2687838,0.36476 -0.712715,0.84125 -1.4118002,1.29449 -0.00308,0.003 -0.00308,0.004 -0.00775,0.008 -0.00582,0.005 -0.012835,0.0111 -0.026872,0.0171 -0.00664,0.003 -0.020595,-0.001 -0.031523,-5.3e-4 -0.00787,0.001 -0.014237,0.007 -0.021188,0.006 -0.00775,-0.001 -0.00818,-0.004 -0.013435,-0.007 -0.00646,-0.004 -0.013131,-0.006 -0.017052,-0.009 -0.0013,-10e-4 -0.00233,-0.002 -0.00362,-0.003 -9.789e-4,-0.001 -0.00433,-0.002 -0.00517,-0.003 -0.00119,-0.001 -6.35e-5,-7.4e-4 -0.00103,-0.002 -0.6974267,-0.45123 -1.140803,-0.92688 -1.4092114,-1.29175 -0.2698351,-0.36681 -0.3658693,-0.62683 -0.3658693,-0.62683 l -0.00412,-0.0114 v -0.0119 c -0.014285,-0.96201 0.081059,-1.91719 0.1948201,-2.87941 l 0.00982,-0.0822 0.079582,0.0217 c 0.4272209,0.11807 1.0007235,0.21514 1.5254883,0.22014 0.5425236,-7e-5 1.0367129,-0.0745 1.5952515,-0.22945 z"
       id="path4601-7" />
  </g>
</svg>
