<svg height="50" viewBox="0 0 13.229166 13.229167" width="50" xmlns="http://www.w3.org/2000/svg"><path d="m33.535156 2.2988281-1.208984.5527344.65625 2.6796875-.730469 5.455078c-2.690048.544517-4.453208.860559-5.462891.990234l.140626-3.9433589-.169922-.1542969c-.453063-.4118551-1.096068-.7607091-1.919922-1.0859374-.0027-.0012473-.005129.0012472-.007813 0-.800768-.3635906-1.433319-.5742188-1.992187-.5742188-.404384 0-.805457.1183256-1.078125.40625-.27267.2876221-.376953.6866582-.376953 1.0996094v.2128906l.103515.1328125c.766032 1.0312063 1.266872 2.6950245 1.595703 4.7031255-2.93788.347338-4.775329.63416-5.648437.966796l-.199219.082032-.279297.693359.125.212891c.545608.923338 1.545731 1.404296 2.753907 1.404296.519144 0 1.282118-.12826 2.419921-.376953.560408-.122456.997032-.221155 1.306641-.28125.042599-.007559.026755-.008066.066406-.015625.050619.283843.10626.595982.185547 1.335938.10681.961398.249762 1.925698.427735 2.886719.179493.969259.376293 1.71268.613281 2.265625l.132812.302734h.332031c.293723 0 .549154-.030079.796876-.169922.23077-.131905.382748-.430633.40625-.701172.005782.018898.015966.030372.021484.050782v.007812c.017461.060472.059611.098613.074219.162109l.214843 2.222657-9.072265 1.742187c-.65007-.24189-1.250909-.414062-1.779297-.414062-.246418 0-.480816.033983-.701172.162109-.220354.128504-.393977.384674-.429688.634766l-.021484.148437.066406.140625c.746928 1.595717 1.115235 3.149988 1.115235 4.6875 0 .057449-.033976.415925-.103516.9375-.069551.521613-.178018 1.242108-.318359 2.154297-.282822 1.804838-.427735 3.286359-.427735 4.451172 0 1.038538.107968 1.837868.376953 2.451172.268986.613266.817791 1.05664 1.447266 1.05664h.212891l.820312-.886718.029297-.050782c.448418-.778847.649613-2.123064.81836-4.28125.164632-2.105537.240179-4.998281.24414-8.570312l.074219-.074219c1.701513-.58919 4.368361-.988291 7.683594-1.240234v.892578c0 1.821808-.032201 3.306806-.101563 4.451172-.043619.719697-.102494.967411-.15625 1.351562l-.162109-.8125-.007813-.148437-.140625-.132813c-1.307995-1.30628-3.358664-2.521013-6.169922-3.695312l-.310547-.125-.435546.435547v.205078c0 .483099.231103.934546.589843 1.373047l.015625.023437 1.261719 1.166016c-.105339 1.178608-.755801 2.620272-2.177734 4.339843l-.109375.140626v1.0625l.597656-.125c.771401-.16252 1.543491-.578925 2.324219-1.210938l.015625-.015625 1.96289-1.824219c.662303.614551 1.260399 1.159963 1.675782 1.402344l.222656.132812.228516-.103515c.193583-.086173.183986-.347323.308593-.515625-.012623.047622-.031218.09924-.042969.146484-.079838.31937-.125.645827-.125.96875 0 1.061821.247929 2.189429.722657 3.394532v.015624l.007812.00586c.261876.598564.545024 1.070403.892578 1.417969.347554.347716.791289.568359 1.25586.568359h.175781l.132812-.111328c.771916-.627213 1.033204-1.769955 1.033204-3.34375v-11.876953c4.564546-.510501 7.76584-.804688 9.042968-.804688.310942 0 .442084.073031.488282.119141l.021484.015625.015625.015625c.000998.000869.220779.369253.353516 1.033203.129259.613909.223116 1.562875.257812 2.8125v.007813.005859c.06943 1.249587.103516 2.987602.103516 5.197265 0 2.61464-.190108 4.412447-.494141 5.263672h-.007812v.007813c-.134476.403464-.318652.660855-.539063.826172-.220422.165165-.493467.257812-.884765.257812-.125481 0-.615857-.053383-1.328126-.154297h-.023437c-.730718-.138708-1.21418-.214843-1.550781-.214843-.307261 0-.573873.156287-.773438.355468l-.214844.220703.095704.289063c.077529.232441.154753.294776.28125.457031.126493.162142.296674.36285.515625.613282.437899.500447 1.070019 1.185096 1.898437 2.066406.848022.901039 1.521484 1.586935 2.03711 2.066406.257801.239622.477542.43444.664062.576172s.30773.246419.560547.302734l.207031.044922.177734-.11914c.160026-.106583.283486-.192427.376954-.257813.081524-.057071.122192-.082108.199218-.154297 1.059073-.929839 1.639218-2.847566 2.066407-5.83789.424497-2.971427.706396-6.113846.847656-9.433594.070223-1.650293.140057-2.947784.201172-3.890625.060056-.926854.128093-1.52817.162109-1.697266.066406-.139842.151812-.336776.339844-.775391.10885-.253984.190208-.471089.25-.65039.059754-.17915.103516-.306514.103516-.501953v-.207031l-.148438-.148438c-.240378-.240378-.516387-.45669-.826172-.650391l-.021484-.005859-3.240235-1.59375h-.111328c-.302173 0-.542832.011225-.759765.066406l-5.056641.833985h-.015625c-.066259.003099-.120387.002333-.228516.013671-.146566.015119-.345944.030248-.597656.058594-.503422.052914-1.223865.138692-2.15625.244141l.007813-.005859c-.913652.088062-1.608055.153423-2.089844.197265-.07601.007559-.110566.008066-.175781.015625l.058593-.441406c.16266-.691314.090269-1.362253-.302734-1.853516l-.052734-.052734-.640625-.449219c.635034-.116409 1.28779-.254863 1.880859-.318359.982156-.105071 1.701989-.178497 2.148437-.212891.544589-.038929 1.008891-.154959 1.388672-.392578l.236328-.146484v-.40625l-.230468-.685547-.810547-.671875 1.195312-4.083985.560547-.101562 2.857422-.15625c2.465424-.070299 4.04648-.167746 4.871094-.324219.440852-.080126.815536-.212787 1.107422-.464844.291893-.252094.464844-.641454.464844-1.027343v-.169922l-.101563-.138672c-.459606-.58492-1.145434-1.011902-2.007813-1.3144532-.847562-.3314646-1.603146-.5097657-2.289062-.5097657h-.421875l-3.955078.7460939c.147738-.4341167.353987-1.0315875.626953-1.8164064v-.0078125c.298492-.8254488.527428-1.4725947.679688-1.9472656.076391-.2381102.128759-.4343796.169921-.5917969.041159-.1572283.072266-.2490494.072266-.4199218v-.1699219l-.095703-.1328125c-1.048486-1.3881449-2.437357-2.2760218-4.095703-2.6152344zm-22.513672 3.9179688v.0019531c-.434957 0-.843902.1198163-1.1816402.3613281l.5449222.2792969c-.087691.0378855-.178574.0698068-.25586.125 0 .0006307-.000001.0013223 0 .0019531h-.5019529v.9667969l.3320313-.2363281c.1485736.4323401.2151686.8693704.5820316 1.2851562l.015625.0234375 1.970703 1.8593754-.007813-.015625c.696913.696945 1.290521 1.225208 1.800781 1.59375.510262.368504.916134.613281 1.396485.613281.299429 0 .607885-.1125.833984-.310547.226099-.197669.371085-.458991.478516-.759766l.015625-.03125.177734-.767578v-.265625c0-1.2083903-.309865-2.2063279-.990234-2.8867185-.460488-.4604598-1.227974-.7784895-2.414063-1.1738281-1.177462-.4272-2.085097-.6640625-2.796875-.6640625zm20.587891 7.7597651-.554687 3.09375-4.044922.94336-.125-3.277344c1.886008-.378406 3.432927-.614783 4.724609-.759766zm-25.5410156 1.63086c-.5279615 0-1.0258728.053134-1.4921875.169922l-.3828125.095703v.392578c0 .371906.0611973.767368.1757812 1.1875l.03125.103516.0664063.082031c2.0605209 2.486816 3.6224246 3.951983 4.9824219 4.376953l.0214843.007813.0292969.007812c.772257.16252 1.518774-.007553 1.927734-.568359l.066407-.087891.191406-.996094v-.36914c0-.985588-.340267-1.850509-1.003906-2.472657l-.029297-.023437-.560547-.398438-.015625-.007812c-1.4313855-.896958-2.474876-1.410803-3.3222658-1.5h-.0292968-.2871094zm7.6171876 8.474609-.560547.074219c-.431382.054047-.814474.334093-1.048828.708984l-.013672.023438-4.8867188 10.15039-.015625.066407c.0170079-.08504-.0185573.039091-.1328124.191406-.1142438.152315-.2925733.365484-.53125.621094-.5067795.543042-.811635.856922-.953125 1.28125l-.0507813.15039.0449219.148438c.3315326 1.178759.8642796 2.315945 1.59375 3.410156v.005859l.0078125.015626c.7825421 1.080642 1.6235319 1.734374 2.5683593 1.734374.3652078 0 .7594308-.186729.9531248-.509765l.072266-.117188v-.140625c0-1.174715.488248-4.175056 1.470703-8.80664.492758-2.340586.857932-4.18932 1.105469-5.550782.247536-1.361461.376953-2.19161.376953-2.671874zm18.427734 3.382813.292969.455078h-.996094v.326172l.244141.109375c.142813.601512.380447 1.187077 1.009765 1.816406v.007813h.007813c.36607.348472.642598.628388.826172.820312.027893.030236.03711.041083.060547.066406-.27936.816-1.193448 2.036698-2.982422 3.59375l-.169922.15625v.988282h.501953c1.455522 0 3.017093-1.11302 4.6875-2.730469.293477.306897.687828.731283 1.373047 1.505859v.007813h.007812c.857518.92897 1.573499 1.598656 2.191407 2.023437l.148437.103516.175782-.015625c.369033-.030236.716284-.2861.878906-.611328.162633-.325418.214843-.704546.214844-1.152344 0-1.475528-.94264-2.838567-2.621094-4.082031-1.621384-1.261036-3.571505-2.39098-5.851563-3.388672z" fill="#ae4f4f" transform="scale(.26458333)"/></svg>