<?xml version="1.0" encoding="UTF-8" standalone="no"?>
<!-- Created with Inkscape (http://www.inkscape.org/) -->

<svg
   xmlns:dc="http://purl.org/dc/elements/1.1/"
   xmlns:cc="http://creativecommons.org/ns#"
   xmlns:rdf="http://www.w3.org/1999/02/22-rdf-syntax-ns#"
   xmlns:svg="http://www.w3.org/2000/svg"
   xmlns="http://www.w3.org/2000/svg"
   xmlns:sodipodi="http://sodipodi.sourceforge.net/DTD/sodipodi-0.dtd"
   xmlns:inkscape="http://www.inkscape.org/namespaces/inkscape"
   width="50"
   height="50"
   viewBox="0 0 13.229166 13.229167"
   version="1.1"
   id="svg1579"
   inkscape:version="0.92.4 (5da689c313, 2019-01-14)"
   sodipodi:docname="Minishogi.svg">
  <defs
     id="defs1573">
    <inkscape:path-effect
       effect="mirror_symmetry"
       start_point="-15.691712,-45.362002"
       end_point="-15.691712,4.437998"
       center_point="-15.691712,-20.462002"
       id="path-effect7365"
       is_visible="true"
       mode="free"
       discard_orig_path="false"
       fuse_paths="true"
       oposite_fuse="false" />
  </defs>
  <sodipodi:namedview
     id="base"
     pagecolor="#ffffff"
     bordercolor="#666666"
     borderopacity="1.0"
     inkscape:pageopacity="0.0"
     inkscape:pageshadow="2"
     inkscape:zoom="7.9195959"
     inkscape:cx="13.576476"
     inkscape:cy="38.142259"
     inkscape:document-units="px"
     inkscape:current-layer="layer1"
     showgrid="false"
     units="px"
     showguides="true"
     inkscape:window-width="1920"
     inkscape:window-height="1017"
     inkscape:window-x="1912"
     inkscape:window-y="-8"
     inkscape:window-maximized="1" />
  <metadata
     id="metadata1576">
    <rdf:RDF>
      <cc:Work
         rdf:about="">
        <dc:format>image/svg+xml</dc:format>
        <dc:type
           rdf:resource="http://purl.org/dc/dcmitype/StillImage" />
        <dc:title></dc:title>
      </cc:Work>
    </rdf:RDF>
  </metadata>
  <g
     inkscape:label="Layer 1"
     inkscape:groupmode="layer"
     id="layer1"
     transform="translate(0,-283.77082)">
    <path
       style="fill:#3771c8;fill-opacity:1;fill-rule:nonzero;stroke:none;stroke-width:0.93406713;stroke-opacity:0.48743723"
       d="M 25 1.7617188 L 9.2734375 7.2578125 L 4.9648438 48.238281 L 45.035156 48.238281 L 40.726562 7.2578125 L 25 1.7617188 z M 18.5 11.919922 L 33.6875 11.919922 L 33.6875 15.503906 L 21.5 15.503906 L 19.853516 23.710938 C 21.686849 22.43316 23.611111 21.794922 25.625 21.794922 C 28.291667 21.794922 30.541667 22.719184 32.375 24.566406 C 34.208333 26.413629 35.125 28.788628 35.125 31.691406 C 35.125 34.455295 34.320096 36.843533 32.708984 38.857422 C 30.750651 41.329644 28.076389 42.566406 24.6875 42.566406 C 21.909722 42.566406 19.638889 41.787977 17.875 40.232422 C 16.125 38.676866 15.125 36.614366 14.875 34.044922 L 18.8125 33.710938 C 19.104167 35.627604 19.778429 37.0727 20.833984 38.044922 C 21.903429 39.003255 23.1875 39.482422 24.6875 39.482422 C 26.493056 39.482422 28.021484 38.802517 29.271484 37.441406 C 30.521484 36.080295 31.146484 34.273438 31.146484 32.023438 C 31.146484 29.884549 30.542318 28.197049 29.333984 26.960938 C 28.13954 25.724826 26.569444 25.107422 24.625 25.107422 C 23.416667 25.107422 22.325738 25.385851 21.353516 25.941406 C 20.381293 26.483073 19.618056 27.191406 19.0625 28.066406 L 15.541016 27.607422 L 18.5 11.919922 z "
       transform="matrix(0.26458333,0,0,0.26458333,0,283.77082)"
       id="path3112" />
  </g>
</svg>
