<svg height="50" viewBox="0 0 13.229166 13.229167" width="50" xmlns="http://www.w3.org/2000/svg"><path d="m5.6149557 284.71352.088073-.009q1.26825.0705 2.2018228.66936l-.09688.92476v7.9706q0 1.49724-.9511874 1.78788l-.1937604.009q-1.3387083-.13211-1.3387083-.9688v-.0969q0-.0529.5724739-.57248v-8.71041q0-.29945-.2818333-1.00403zm-2.9680571 4.18346.09688-.009q1.6205416.43155 1.6205416 1.24183v.18495q0 1.31228-3.91924466 3.47888 2.19301556-2.76549 2.39558326-4.53576-.1937604.009-.1937604-.17614zm6.8873017-.0704q3.2498907 1.14494 3.2498907 3.12658-.22899 1.58532-.572474 1.59412-1.065682.044-1.532469-2.06971 0-.62532-1.2418279-2.55411.09688 0 .09688-.0969z" fill="#ae4f4f" transform="translate(0 -283.77082)"/></svg>