<svg height="50" viewBox="0 0 13.229166 13.229167" width="50" xmlns="http://www.w3.org/2000/svg"><path d="m25 1.7617188-15.7265625 5.4960937-4.3085937 40.9804685h40.0703122l-4.308594-40.9804685zm-6.5 10.1582032h15.1875v3.583984h-12.1875l-1.646484 8.207032c1.833333-1.277778 3.757595-1.916016 5.771484-1.916016 2.666667 0 4.916667.924262 6.75 2.771484 1.833333 1.847223 2.75 4.222222 2.75 7.125 0 2.763889-.804904 5.152127-2.416016 7.166016-1.958333 2.472222-4.632595 3.708984-8.021484 3.708984-2.777778 0-5.048611-.778429-6.8125-2.333984-1.75-1.555556-2.75-3.618056-3-6.1875l3.9375-.333984c.291667 1.916666.965929 3.361762 2.021484 4.333984 1.069445.958333 2.353516 1.4375 3.853516 1.4375 1.805556 0 3.333984-.679905 4.583984-2.041016s1.875-3.167968 1.875-5.417968c0-2.138889-.604166-3.826389-1.8125-5.0625-1.194444-1.236112-2.76454-1.853516-4.708984-1.853516-1.208333 0-2.299262.278429-3.271484.833984-.972223.541667-1.73546 1.25-2.291016 2.125l-3.521484-.458984z" fill="#3771c8" transform="scale(.26458333)"/></svg>