<svg height="50" viewBox="0 0 13.229166 13.229167" width="50" xmlns="http://www.w3.org/2000/svg"><path d="m6.6802343 285.11545c-.2822125.005-.407811.3769-.6165691.85989.00688.01.016546.0188.02571.028-.5778678.24227-1.2828127.72208-1.5568023 1.11331h-.082179c-.8536277 0-1.541193.68757-1.541193 1.54119v.69691c0 .36317.1255615.69532.3342235.95814-.6305403 1.30738-1.4596572 2.57616-2.74632584 3.83485.23465138.37243 1.64363264.15198 2.78626744 1.46361.2453452-.30143.8022129-2.80317 1.2225788-4.71586h4.2425272c.4027463 1.92125.9399444 4.45385 1.1835553 4.75993 1.1550007-1.29643 2.5618727-1.05711 2.8000407-1.42642-1.293294-1.29428-2.114942-2.59295-2.7362259-3.92896.2026749-.26082.3241229-.58792.3241229-.94529v-.69691c0-.85362-.6871058-1.54119-1.5407335-1.54119h-.037646c-.2800924-.38549-.9469421-.85159-1.5053833-1.09816.016636-.0116.037649-.0209.05096-.034-.1514575-.44436-.3145021-.87351-.6069278-.86907zm-1.653151 6.32829-.79375 3.21407c2.2046054.60421 2.7489835.59946 4.7624999 0l-.79375-3.21407z" fill="#676cad" transform="translate(0 -283.77082)"/></svg>