<?xml version="1.0" encoding="UTF-8" standalone="no"?>
<svg
   width="50"
   height="50"
   viewBox="0 0 13.229166 13.229167"
   version="1.1"
   id="svg1579"
   sodipodi:docname="Racingkings960.svg"
   inkscape:version="1.3 (0e150ed6c4, 2023-07-21)"
   xmlns:inkscape="http://www.inkscape.org/namespaces/inkscape"
   xmlns:sodipodi="http://sodipodi.sourceforge.net/DTD/sodipodi-0.dtd"
   xmlns="http://www.w3.org/2000/svg"
   xmlns:svg="http://www.w3.org/2000/svg"
   xmlns:rdf="http://www.w3.org/1999/02/22-rdf-syntax-ns#"
   xmlns:cc="http://creativecommons.org/ns#"
   xmlns:dc="http://purl.org/dc/elements/1.1/">
  <defs
     id="defs1573" />
  <sodipodi:namedview
     id="base"
     pagecolor="#ffffff"
     bordercolor="#666666"
     borderopacity="1.0"
     inkscape:pageopacity="0.0"
     inkscape:pageshadow="2"
     inkscape:zoom="5.6"
     inkscape:cx="-5.9821429"
     inkscape:cy="38.125"
     inkscape:document-units="px"
     inkscape:current-layer="layer1"
     showgrid="false"
     units="px"
     showguides="true"
     inkscape:window-width="1916"
     inkscape:window-height="2022"
     inkscape:window-x="1907"
     inkscape:window-y="0"
     inkscape:window-maximized="1"
     inkscape:lockguides="true"
     inkscape:document-rotation="0"
     inkscape:showpageshadow="2"
     inkscape:pagecheckerboard="0"
     inkscape:deskcolor="#d1d1d1" />
  <metadata
     id="metadata1576">
    <rdf:RDF>
      <cc:Work
         rdf:about="">
        <dc:format>image/svg+xml</dc:format>
        <dc:type
           rdf:resource="http://purl.org/dc/dcmitype/StillImage" />
      </cc:Work>
    </rdf:RDF>
  </metadata>
  <g
     inkscape:label="Layer 1"
     inkscape:groupmode="layer"
     id="layer1"
     transform="translate(0,-283.77082)"
     style="opacity:0.98999999">
    <path
       id="path1"
       style="fill:#90c1d5;fill-opacity:0.984314;stroke-width:0.0266823"
       d="M 1.0113078 284.54183 C 0.72669863 284.54183 0.49569235 284.63111 0.31781005 284.809 C 0.12214064 285.00467 0.024287923 285.23568 0.024287923 285.5025 C 0.024287923 285.68039 0.0686734 285.84027 0.15761312 285.98257 C 0.26434281 286.12488 0.38892813 286.24946 0.53123372 286.35619 L 0.53123372 295.98868 C 0.53123372 296.07756 0.54888372 296.13963 0.58446044 296.17523 C 0.62003674 296.21083 0.68207224 296.22897 0.77101236 296.22897 L 1.2516032 296.22897 C 1.340543 296.22897 1.4025781 296.21083 1.4381551 296.17523 C 1.4737321 296.10404 1.4913818 296.04198 1.4913818 295.98868 L 1.4913818 286.35619 C 1.651475 286.24946 1.7674946 286.12488 1.8386474 285.98257 C 1.9275877 285.87584 1.9719726 285.71596 1.9719726 285.5025 C 1.9719722 285.21789 1.8826853 284.98688 1.7048055 284.809 C 1.5269232 284.63107 1.2959194 284.54183 1.0113078 284.54183 z M 12.724805 285.49578 C 12.644758 285.49133 12.564556 285.51127 12.484509 285.55572 C 12.448933 285.59123 12.377815 285.63617 12.271085 285.68957 C 11.292738 286.25879 10.50135 286.54326 9.8965534 286.54326 C 9.6653079 286.54326 9.4428698 286.49884 9.2294107 286.40994 C 8.6957662 286.14311 8.1621189 285.92067 7.6284748 285.74279 C 7.1126173 285.58265 6.5789701 285.5025 6.027539 285.5025 C 5.6539873 285.5025 5.2625785 285.55596 4.8534505 285.66269 C 4.4976882 285.73384 4.1062795 285.85843 3.6793619 286.03631 C 3.1279212 286.28533 2.8434473 286.41849 2.8256673 286.43629 C 2.6655745 286.50744 2.4607865 286.61437 2.2117513 286.75668 C 2.051658 286.86341 1.9719726 286.99657 1.9719726 287.15666 L 1.9719726 292.81368 C 1.9719726 293.02713 2.0607407 293.16933 2.238623 293.24053 C 2.3275627 293.29383 2.4077656 293.32062 2.4789184 293.32062 C 2.5500715 293.32062 2.630274 293.29383 2.7192138 293.24053 C 3.2172844 292.93813 3.795314 292.67987 4.4534749 292.46641 C 5.2005778 292.23517 5.805343 292.11966 6.2678344 292.11966 C 6.4812906 292.11966 6.7657645 292.15553 7.121529 292.22663 C 7.4417149 292.31557 7.673238 292.39531 7.8155435 292.46641 C 8.0290025 292.55535 8.286741 292.67137 8.5891397 292.81368 L 8.8025634 292.92013 C 9.1405383 293.09805 9.5405122 293.1873 10.003007 293.1873 C 10.785683 293.1873 11.719824 292.89374 12.804903 292.30673 C 12.822691 292.30673 12.867078 292.28859 12.938228 292.25299 C 13.11611 292.14626 13.204879 291.99546 13.204879 291.79979 L 13.204879 285.98309 L 13.204879 285.98257 C 13.204702 285.82272 13.125016 285.68921 12.9651 285.5826 C 12.885053 285.52925 12.80485 285.50023 12.724805 285.49578 z M 5.1138997 286.98613 C 6.0967256 286.9836 7.0210277 287.20012 7.1618367 287.36078 C 7.429853 287.66656 7.1476692 290.72845 6.8791666 290.93576 C 6.7529747 291.03319 5.9082461 290.96509 5.1144164 290.96315 C 4.3341243 290.96123 3.497626 291.03618 3.3904907 290.95643 C 3.1298457 290.76241 2.7607929 287.71869 3.0339233 287.39902 C 3.1860185 287.22101 4.1233369 286.98867 5.1138997 286.98613 z M 6.0890339 287.42124 C 5.8277926 287.42183 5.6226645 287.60678 5.6177449 287.84189 C 5.6123822 288.09238 5.8325617 288.30556 6.1040201 288.33075 C 6.3757042 288.35592 6.6110796 288.18491 6.6264688 287.93491 C 6.6419742 287.68498 6.4279471 287.44963 6.1422607 287.42331 C 6.1243914 287.42167 6.10645 287.4212 6.0890339 287.42124 z M 4.1553019 287.42589 C 4.1376481 287.42606 4.1196883 287.42712 4.1015584 287.42899 C 3.8112489 287.45899 3.595022 287.69914 3.6132161 287.94834 C 3.631267 288.19727 3.8711796 288.36242 4.1434163 288.33437 C 4.415892 288.30624 4.6367361 288.09338 4.6312418 287.84292 C 4.6262065 287.60819 4.4201083 287.42341 4.1553019 287.42589 z M 8.888863 287.72148 C 9.2286496 287.72378 9.738566 287.75213 10.226249 287.75094 C 11.02008 287.74899 11.864807 287.68141 11.990999 287.77884 C 12.259502 287.98615 12.541686 291.04804 12.273669 291.35382 C 12.13286 291.51448 11.208042 291.731 10.225216 291.72847 C 9.2346518 291.72593 8.2978513 291.49359 8.1457559 291.31558 C 7.8726252 290.99591 8.2416781 287.95219 8.5023233 287.75817 C 8.5424991 287.72827 8.6849911 287.7201 8.888863 287.72148 z M 9.3043415 288.08063 C 9.082778 288.07938 8.8945855 288.24209 8.8774942 288.47544 C 8.8591255 288.72462 9.0478881 288.96153 9.3064086 288.98859 C 9.5646982 289.01558 9.7747213 288.8209 9.7802815 288.57053 C 9.7859617 288.32008 9.5894628 288.10839 9.3487832 288.08322 C 9.3337557 288.08165 9.3191124 288.08072 9.3043415 288.08063 z M 11.151257 288.08218 C 11.136136 288.08211 11.120664 288.08281 11.105265 288.08425 C 10.859106 288.10726 10.660795 288.31951 10.666015 288.57001 C 10.671122 288.82079 10.88237 289.01579 11.142989 288.99169 C 11.403388 288.96756 11.598629 288.73521 11.583272 288.48526 C 11.568983 288.25085 11.378078 288.08328 11.151257 288.08218 z M 6.0213378 288.56949 C 5.7717179 288.57135 5.5764658 288.75762 5.5717529 288.99272 C 5.5666212 289.24322 5.7759589 289.45575 6.0347737 289.47952 C 6.2939233 289.50342 6.5198079 289.3302 6.5350015 289.08006 C 6.5503013 288.82999 6.3451867 288.59679 6.0719807 288.57208 C 6.0548997 288.57052 6.0379792 288.56937 6.0213378 288.56949 z M 4.1842407 288.57621 C 4.1675472 288.57632 4.1502176 288.57751 4.133081 288.57931 C 3.8586665 288.60829 3.6567594 288.84691 3.6752278 289.09608 C 3.6935652 289.34497 3.9201762 289.51117 4.1764892 289.48417 C 4.4330422 289.45709 4.6416484 289.24471 4.6358927 288.99427 C 4.6306016 288.75956 4.434642 288.57459 4.1842407 288.57621 z M 9.2402627 289.22733 C 9.0041169 289.22427 8.803735 289.38519 8.7865437 289.61853 C 8.7680752 289.86769 8.9704988 290.10631 9.2449136 290.13529 C 9.5190994 290.1642 9.7415647 289.97069 9.7472085 289.72033 C 9.7529643 289.46989 9.5443584 289.25699 9.2878051 289.22992 C 9.2717855 289.22823 9.2560058 289.22754 9.2402627 289.22733 z M 11.194665 289.23302 C 11.178772 289.233 11.162286 289.23359 11.14609 289.23509 C 10.887275 289.25885 10.677937 289.47138 10.683069 289.72188 C 10.688096 289.97266 10.910518 290.16736 11.183813 290.14252 C 11.45702 290.11781 11.661617 289.88461 11.646317 289.63454 C 11.632073 289.40003 11.433062 289.23323 11.194665 289.23302 z M 5.9830973 289.72084 C 5.7451254 289.72331 5.5594873 289.90948 5.5546996 290.14459 C 5.5494795 290.39509 5.74779 290.60734 5.9939493 290.63035 C 6.2403367 290.65334 6.4567144 290.47938 6.4719563 290.22934 C 6.4873134 289.97939 6.2920717 289.74704 6.0316731 289.72291 C 6.0153844 289.72141 5.998962 289.72068 5.9830973 289.72084 z M 4.242635 289.72343 C 4.2269044 289.72342 4.210719 289.72433 4.194576 289.72601 C 3.9360557 289.75307 3.7472929 289.98998 3.7656616 290.23916 C 3.7838923 290.48807 3.9970263 290.65648 4.2374674 290.63138 C 4.4781467 290.60621 4.6746458 290.39452 4.6689656 290.14407 C 4.663753 289.90935 4.4785963 289.72349 4.242635 289.72343 z M 9.204606 290.37714 C 8.9538665 290.37305 8.7419714 290.53237 8.7250487 290.76574 C 8.7068546 291.01495 8.9225644 291.25561 9.2128742 291.28561 C 9.5029537 291.31553 9.7377035 291.12206 9.7430744 290.87168 C 9.7485688 290.62122 9.5277249 290.40836 9.2552489 290.38024 C 9.2382341 290.37848 9.221322 290.37741 9.204606 290.37714 z M 11.265979 290.38127 C 11.249328 290.38134 11.232316 290.38228 11.215336 290.38385 C 10.943877 290.40905 10.723698 290.6217 10.729061 290.8722 C 10.734308 291.12298 10.967668 291.31759 11.253577 291.29129 C 11.539263 291.26497 11.75329 291.02962 11.737785 290.77969 C 11.723357 290.54532 11.515744 290.38025 11.265979 290.38127 z " />
  </g>
</svg>
