<svg height="438" width="494" xmlns="http://www.w3.org/2000/svg"><path d="m238 286v-55q-51 4-110 33v53q61-28 110-31zm0-120v-56q-50 3-110 36v54q60-31 110-34zm237 133v-53q-67 33-109 20v-64q-8-2-11-4l-1-1q-2-1-4.5-2-2.5-1-4.5-2l-4-2q0 0-3.5-2-3.5-2-2.5-1h-1l-4-2-4-2q-8-4-10-4-1-1-9-4-2-1-5.5-2.5-3.5-1.5-4.5-1.5-2 0-10-2-8-2-11-2-4-1-12-1-4-1-12-1-9 0-14 1v63h5q29 0 55 9 23 7 57 23 3 2 11 4v54q13 5 26 5 33 0 83-26zm0-122v-54q-49 26-87 26-13 0-22-3v56q42 12 109-25zm-384-104q0 12-5 18-4 8-13 14v361q0 3-2 7-2 2-7 2h-18q-5 0-7-2-2-2-2-7v-361q-8-6-14-14-5-8-5-18 0-15 11-26 10-10 26-10 16 0 26 10 10 10 10 26zm421 18v218q0 11-10 17-4 2-5 2-61 33-105 33-26 0-45-10l-8-4q-17-8-29-13-8-4-26-9-20-4-32-4-26 0-68 13-37 12-65 29-5 3-9 3-4 0-9-3-10-4-10-16v-212q0-9 9-15 14-8 23-12 1-1 32-15 24-10 44-14 23-6 44-6 31 0 60 9 30 10 60 25 12 5 25 5 34 0 89-32 6-3 8-5 9-5 18 1 9 6 9 15z" transform="translate(-18 -37)"/></svg>