<svg height="50" viewBox="0 0 13.229166 13.229167" width="50" xmlns="http://www.w3.org/2000/svg"><g fill="#5e894f" transform="translate(0 -283.77082)"><path d="m10.825179 292.66676q0 1.47588-1.2250759 2.42121-1.2154297.94534-3.3279623.94534-1.1961372 0-2.199349-.27974-.9935656-.28939-1.6688043-.62701v-2.03536h.096463q.8585178.6463 1.909961 1.03215 1.0514432.3762 2.01607.3762 1.1961371 0 1.8713759-.38585.6752387-.38585.6752387-1.21543 0-.63665-.3665582-.96463-.3665581-.32797-1.408355-.55948-.3858507-.0868-1.0128581-.20257-.6173612-.11576-1.1286134-.2508-1.4180013-.37621-2.0160699-1.09968-.5884223-.73312-.5884223-1.79421 0-.66559.2700955-1.25401.2797417-.58842.8392253-1.05144.540191-.45338 1.36977-.71383.8392253-.27009 1.8713759-.27009.9646268 0 1.9485461.24115.9935655.23151 1.649511.56913v1.9389h-.09646q-.6945312-.51125-1.6880968-.85851-.9935656-.35692-1.9485461-.35692-.9935655 0-1.6784505.38585-.684885.37621-.684885 1.12862 0 .66559.4147895 1.00321.4051432.33762 1.3118924.54984.5016059.11575 1.118967.23151.6270074.11575 1.0417969.21222 1.2636611.28938 1.9485456.99356.684885.71382.684885 1.89067z" transform="matrix(.87870128 0 0 .87870128 -1.669151 36.617168)"/><path d="m8.9364851 293.0278h-3.931203" fill-rule="evenodd" opacity=".99"/><path d="m10.539834 283.87064c-1.0926129 0-2.1850439.0834-2.3513209.24962-.332552.33256-.332552 4.37047 0 4.70302.332553.33255 4.3704639.33255 4.7030159 0 .332553-.33255.332553-4.37046 0-4.70302-.166276-.16627-1.259083-.24962-2.351695-.24962zm-1.1573999.51055a.5938136.5938136 0 0 1 .593761.59413.5938136.5938136 0 0 1 -.593761.59376.5938136.5938136 0 0 1 -.59376-.59376.5938136.5938136 0 0 1 .59376-.59413zm2.3407779 0a.5938136.5938136 0 0 1 .593759.59413.5938136.5938136 0 0 1 -.593759.59376.5938136.5938136 0 0 1 -.593761-.59376.5938136.5938136 0 0 1 .593761-.59413zm-2.3667579 1.50605a.5938136.5938136 0 0 1 .593762.59413.5938136.5938136 0 0 1 -.593762.59376.5938136.5938136 0 0 1 -.593759-.59376.5938136.5938136 0 0 1 .593759-.59413zm2.3407779 0a.5938136.5938136 0 0 1 .594136.59413.5938136.5938136 0 0 1 -.594136.59376.5938136.5938136 0 0 1 -.593759-.59376.5938136.5938136 0 0 1 .593759-.59413zm-2.3321169 1.50604a.5938136.5938136 0 0 1 .59376.59414.5938136.5938136 0 0 1 -.59376.59377.5938136.5938136 0 0 1 -.593761-.59377.5938136.5938136 0 0 1 .593761-.59414zm2.3407769 0a.5938136.5938136 0 0 1 .59376.59414.5938136.5938136 0 0 1 -.59376.59377.5938136.5938136 0 0 1 -.59376-.59377.5938136.5938136 0 0 1 .59376-.59414z"/></g></svg>