<svg height="50" viewBox="0 0 13.229166 13.229167" width="50" xmlns="http://www.w3.org/2000/svg"><path d="m13.412109 4.0605469-8.1953121 7.6542971c.5706699.624617 8.2646991 9.413376 14.0410151 16.007812a9.3535995 9.3535995 0 0 0 -6.578124 8.931641 9.3535995 9.3535995 0 0 0 9.353515 9.353515 9.3535995 9.3535995 0 0 0 8.882813-6.457031c2.96417 1.356548 4.85393 3.876551 7.726562 6.283203l5.171875.015625c.682813.001512.591599-2.261328-.291015-2.529297-.897344-.272466-2.093622-.688367-3.69336-.947265-1.711275-1.858911-.345378-.370183-2.398437-2.541016 4.725918-2.044187 6.709741-9.067222.445312-14.798828zm.054688 1.2636719 25.332031 22.7246092c1.291083 1.858507 1.065896 1.906684 1.25586 3.001953l-27.75-24.6874998zm8.566406 25.0234372a6.3072108 6.3072108 0 0 1 6.308594 6.306641 6.3072108 6.3072108 0 0 1 -6.308594 6.306641 6.3072108 6.3072108 0 0 1 -6.306641-6.306641 6.3072108 6.3072108 0 0 1 6.306641-6.306641z" fill="#8a0" transform="scale(.26458333)"/></svg>