<?xml version="1.0" encoding="UTF-8" standalone="no"?>
<svg
   xmlns:dc="http://purl.org/dc/elements/1.1/"
   xmlns:cc="http://creativecommons.org/ns#"
   xmlns:rdf="http://www.w3.org/1999/02/22-rdf-syntax-ns#"
   xmlns:svg="http://www.w3.org/2000/svg"
   xmlns="http://www.w3.org/2000/svg"
   xmlns:sodipodi="http://sodipodi.sourceforge.net/DTD/sodipodi-0.dtd"
   xmlns:inkscape="http://www.inkscape.org/namespaces/inkscape"
   width="50"
   height="50"
   viewBox="0 0 13.229166 13.229167"
   version="1.1"
   id="svg1579"
   inkscape:version="1.0.1 (3bc2e813f5, 2020-09-07)"
   sodipodi:docname="shinobi.svg">
  <defs
     id="defs1573">
    <inkscape:path-effect
       effect="mirror_symmetry"
       start_point="-15.691712,-45.362002"
       end_point="-15.691712,4.437998"
       center_point="-15.691712,-20.462002"
       id="path-effect7365"
       is_visible="true"
       mode="free"
       discard_orig_path="false"
       fuse_paths="true"
       oposite_fuse="false" />
    <inkscape:path-effect
       effect="mirror_symmetry"
       start_point="274.21267,350.55066"
       end_point="273.50284,477.30227"
       center_point="273.85776,413.92646"
       id="path-effect4557-0-4"
       is_visible="true"
       mode="free"
       discard_orig_path="false"
       fuse_paths="true"
       oposite_fuse="false" />
  </defs>
  <sodipodi:namedview
     id="base"
     pagecolor="#ffffff"
     bordercolor="#666666"
     borderopacity="1.0"
     inkscape:pageopacity="0.0"
     inkscape:pageshadow="2"
     inkscape:zoom="5.6"
     inkscape:cx="158.15786"
     inkscape:cy="-58.452972"
     inkscape:document-units="px"
     inkscape:current-layer="layer1"
     showgrid="false"
     units="px"
     showguides="true"
     inkscape:window-width="3840"
     inkscape:window-height="2050"
     inkscape:window-x="-12"
     inkscape:window-y="-12"
     inkscape:window-maximized="1"
     inkscape:document-rotation="0" />
  <metadata
     id="metadata1576">
    <rdf:RDF>
      <cc:Work
         rdf:about="">
        <dc:format>image/svg+xml</dc:format>
        <dc:type
           rdf:resource="http://purl.org/dc/dcmitype/StillImage" />
        <dc:title></dc:title>
      </cc:Work>
    </rdf:RDF>
  </metadata>
  <g
     inkscape:label="Layer 1"
     inkscape:groupmode="layer"
     id="layer1"
     transform="translate(0,-283.77082)">
    <path
       id="path5326"
       style="fill:#676cad;fill-opacity:1;stroke:none;stroke-width:0.447987;stroke-linecap:butt;stroke-linejoin:miter;stroke-miterlimit:4;stroke-dasharray:none;stroke-opacity:1"
       d="m 1.0490906,285.01352 c -0.054778,0.003 -0.12355227,0.0127 -0.17814526,0.0454 -0.17176055,0.10272 -0.35468214,0.26658 -0.47169963,0.48544 -0.049805,0.0931 -0.0389277,0.25279 -0.0389277,0.25279 l 2.16935819,2.20005 -0.3324772,0.34484 c 0,0 -0.036389,0.15525 0.02244,0.24043 0.056673,0.0821 0.2225692,0.0953 0.2225692,0.0953 l 0.2921779,-0.29219 0.4694087,0.42637 0.2509642,-0.27707 -0.4556709,-0.414 0.3998,-0.40025 0.3453008,0.30912 0.2491305,-0.27706 -0.3297316,-0.29677 0.3388902,-0.33888 c 0,0 -0.00418,-0.15447 -0.059076,-0.22669 -0.068371,-0.0899 -0.2266911,-0.0408 -0.2266911,-0.0408 l -0.4135381,0.38557 -2.1583684,-2.2179 c 0,0 -0.040935,-0.006 -0.095713,-0.004 z m 0.022439,0.76022 0.4346057,0.005 -0.00503,0.43095 -0.4295691,-0.006 z m 0.5834438,0.60313 h 0.4300239 v 0.43598 l -0.4300239,-0.006 z m 5.2321981,0.55871 c -0.7935551,0.004 -1.7092229,0.0736 -2.3039989,0.59901 -1.0193178,0.90034 -1.7085992,2.44705 -1.5062325,3.79191 0.2816429,1.87171 1.66743,4.30148 3.556062,4.42665 1.8011937,0.11937 3.4763339,-1.98745 3.9192279,-3.73742 0.116593,-0.46069 0.130994,-0.94426 0.06503,-1.42471 l 0.04809,0.17586 c 0.309081,0.0152 0.407892,0.47431 0.45338,1.11559 0.319777,0.44151 0.588916,0.47752 0.861883,0.54451 -2e-6,0 -0.196172,-0.64632 -0.217989,-0.68052 -0.02315,-0.0363 0.100517,-0.74374 0.118152,-0.74374 -0.03747,0.007 -0.08496,-0.20364 -0.159828,-0.30454 0.209065,0.12909 1.169628,0.0912 1.148565,-0.12182 0,0 -0.376858,-0.21007 -0.544056,-0.34484 -0.244209,-0.19686 -0.189489,-0.3395 -0.571535,-0.62604 -0.249833,-0.18734 -0.514158,-0.15291 -0.725866,-0.0998 -0.188252,0.0472 -0.520783,0.32441 -0.570163,0.36591 -0.264608,-0.86685 -0.773696,-1.67951 -1.4137231,-2.27606 -0.5515153,-0.51404 -1.403075,-0.66414 -2.1569944,-0.65992 z m -4.6258601,0.0573 0.4295666,0.002 v 0.43461 l -0.4295666,-0.006 z m 2.554963,3.38616 c 0.6366978,-0.005 1.3000369,0.31318 1.9499944,0.31966 0.8455337,0.009 1.7026693,-0.40423 2.527485,-0.21799 0.1402229,0.0316 0.3004005,0.0933 0.3718643,0.21799 0.1424366,0.24861 0.1176414,0.59834 0,0.85959 -0.1430445,0.31767 -0.442402,0.61801 -0.7826544,0.69289 -1.2881044,0.28335 -2.9269964,0.28476 -4.2846791,-0.1154 -0.2407597,-0.071 -0.4328986,-0.29874 -0.53902,-0.5262 -0.1196741,-0.25651 -0.1743984,-0.58609 -0.064115,-0.84676 0.065067,-0.15381 0.225303,-0.27219 0.3851451,-0.32058 0.1435719,-0.0434 0.2890477,-0.062 0.4359797,-0.0632 z" />
  </g>
</svg>
