<svg height="50" viewBox="0 0 13.229166 13.229167" width="50" xmlns="http://www.w3.org/2000/svg"><path d="m1.0490906 285.01352c-.054778.003-.12355227.0127-.17814526.0454-.17176055.10272-.35468214.26658-.47169963.48544-.049805.0931-.0389277.25279-.0389277.25279l2.16935819 2.20005-.3324772.34484s-.036389.15525.02244.24043c.056673.0821.2225692.0953.2225692.0953l.2921779-.29219.4694087.42637.2509642-.27707-.4556709-.414.3998-.40025.3453008.30912.2491305-.27706-.3297316-.29677.3388902-.33888s-.00418-.15447-.059076-.22669c-.068371-.0899-.2266911-.0408-.2266911-.0408l-.4135381.38557-2.1583684-2.2179s-.040935-.006-.095713-.004zm.022439.76022.4346057.005-.00503.43095-.4295691-.006zm.5834438.60313h.4300239v.43598l-.4300239-.006zm5.2321981.55871c-.7935551.004-1.7092229.0736-2.3039989.59901-1.0193178.90034-1.7085992 2.44705-1.5062325 3.79191.2816429 1.87171 1.66743 4.30148 3.556062 4.42665 1.8011937.11937 3.4763339-1.98745 3.9192279-3.73742.116593-.46069.130994-.94426.06503-1.42471l.04809.17586c.309081.0152.407892.47431.45338 1.11559.319777.44151.588916.47752.861883.54451-.000002 0-.196172-.64632-.217989-.68052-.02315-.0363.100517-.74374.118152-.74374-.03747.007-.08496-.20364-.159828-.30454.209065.12909 1.169628.0912 1.148565-.12182 0 0-.376858-.21007-.544056-.34484-.244209-.19686-.189489-.3395-.571535-.62604-.249833-.18734-.514158-.15291-.725866-.0998-.188252.0472-.520783.32441-.570163.36591-.264608-.86685-.773696-1.67951-1.4137231-2.27606-.5515153-.51404-1.403075-.66414-2.1569944-.65992zm-4.6258601.0573.4295666.002v.43461l-.4295666-.006zm2.554963 3.38616c.6366978-.005 1.3000369.31318 1.9499944.31966.8455337.009 1.7026693-.40423 2.527485-.21799.1402229.0316.3004005.0933.3718643.21799.1424366.24861.1176414.59834 0 .85959-.1430445.31767-.442402.61801-.7826544.69289-1.2881044.28335-2.9269964.28476-4.2846791-.1154-.2407597-.071-.4328986-.29874-.53902-.5262-.1196741-.25651-.1743984-.58609-.064115-.84676.065067-.15381.225303-.27219.3851451-.32058.1435719-.0434.2890477-.062.4359797-.0632z" fill="#676cad" transform="translate(0 -283.77082)"/></svg>