<svg height="50" viewBox="0 0 13.229166 13.229167" width="50" xmlns="http://www.w3.org/2000/svg"><path d="m6.6053975 285.26992c-.568759.003-.854133.42268-.977806 1.02356-2.529085.068-5.32646706.70826-5.32646706 3.30131 0 1.31145.76847596 1.96122 2.24421006 3.34376v1.47241c2.581192 1.45803 5.216593 1.44845 7.9048715 0l.0035-1.4501h.000169c1.016218-.96473 2.474167-1.88727 2.474167-3.44355 0-1.15916-.756879-1.88297-1.608531-2.3544-1.017561-.56326-2.3766465-.75013-3.6916705-.82682-.122679-.66452-.522554-1.06868-1.02241-1.06617zm-.00032.27884c.235973-.004.587936.16616.645097.76008h-1.271197c.07116-.56762.383213-.75617.6261-.76008zm-.367896 1.14219c.166198.00096.329916.004.490142.009 1.467366.043 3.123598.15708 4.2954685.77907.797957.42353 1.507098 1.07364 1.507098 2.11503 0 1.39815-1.534173 2.30577-2.396522 2.56634-2.7251465-.86468-4.6007935-.82051-7.2751385.036-.754105-.20939-2.15896806-1.35445-2.15896806-2.53265 0-2.51069 3.04496406-2.98486 5.53792006-2.9724zm.07996.41795c-2.176586-.01-5.011757.36775-4.882251 2.33969.06468.98486.515071 1.53012 1.544268 2.04366 2.235433-.8865 4.778744-.88382 7.0995335-.00017.963348-.32299 1.858638-.96629 1.858638-2.06679 0-.81969-.75994-1.36305-1.454399-1.69642-1.0198755-.48957-2.4613795-.57935-3.7384225-.6132-.139443-.004-.28226-.006-.427367-.007zm.336838 5.23775c1.06008.009 2.133934.21352 3.24184.65799v1.17224c-2.170119-.82221-4.37026-.93136-6.822663 0v-1.17224c1.195665-.4273 2.37939-.6682 3.580814-.65799z" fill="#8a0" opacity=".99" transform="translate(0 -283.77082)"/></svg>