<?xml version="1.0" encoding="UTF-8" standalone="no"?>
<svg
   xmlns:dc="http://purl.org/dc/elements/1.1/"
   xmlns:cc="http://creativecommons.org/ns#"
   xmlns:rdf="http://www.w3.org/1999/02/22-rdf-syntax-ns#"
   xmlns:svg="http://www.w3.org/2000/svg"
   xmlns="http://www.w3.org/2000/svg"
   xmlns:sodipodi="http://sodipodi.sourceforge.net/DTD/sodipodi-0.dtd"
   xmlns:inkscape="http://www.inkscape.org/namespaces/inkscape"
   width="50"
   height="50"
   viewBox="0 0 13.229166 13.229167"
   version="1.1"
   id="svg1579"
   sodipodi:docname="sittuyin.svg"
   inkscape:version="0.92.3 (2405546, 2018-03-11)">
  <metadata
     id="metadata1619">
    <rdf:RDF>
      <cc:Work
         rdf:about="">
        <dc:format>image/svg+xml</dc:format>
        <dc:type
           rdf:resource="http://purl.org/dc/dcmitype/StillImage" />
      </cc:Work>
    </rdf:RDF>
  </metadata>
  <defs
     id="defs1617" />
  <sodipodi:namedview
     pagecolor="#ffffff"
     bordercolor="#666666"
     borderopacity="1"
     objecttolerance="10"
     gridtolerance="10"
     guidetolerance="10"
     inkscape:pageopacity="0"
     inkscape:pageshadow="2"
     inkscape:window-width="1539"
     inkscape:window-height="855"
     id="namedview1615"
     showgrid="true"
     showguides="false"
     inkscape:zoom="9.44"
     inkscape:cx="-2.1186441"
     inkscape:cy="25"
     inkscape:window-x="57"
     inkscape:window-y="0"
     inkscape:window-maximized="0"
     inkscape:current-layer="svg1579">
    <inkscape:grid
       type="xygrid"
       id="grid2164" />
  </sodipodi:namedview>
  <g
     id="layer1"
     transform="matrix(1.1402345,0,0,1.0982072,-0.92548442,-312.27409)"
     style="opacity:0.98999999">
    <path
       style="display:inline;fill:#000000;fill-opacity:1;fill-rule:evenodd;stroke:none;stroke-width:0.16503231px;stroke-linecap:butt;stroke-linejoin:miter;stroke-opacity:1"
       d="m 25.140625,3.0957031 -4.589844,3.2890625 c 0.493593,0.4771276 0.98883,0.9545131 1.482422,1.4316406 0.648369,0.4537323 1.006636,0.9651523 0.4375,1.6640626 -0.140643,0.8756032 -0.973562,1.1614452 -1.738281,1.3164062 -2.199654,0.696378 -4.302934,1.692749 -6.361328,2.732422 -1.692415,0.661644 -2.873852,2.092722 -4.279297,3.1875 -0.6426381,0.777184 -1.246785,1.645695 -1.7187501,2.539062 -0.3211219,1.1839 -0.9959017,2.29404 -0.9199219,3.558594 -0.071224,1.680114 0.7462652,3.184509 1.2128906,4.757813 0.537814,1.384705 1.5755074,2.524688 2.3203124,3.808593 1.796321,2.420712 3.974178,4.533668 6.109375,6.65625 1.428786,1.20344 3.084756,2.131936 4.603516,3.226563 -3.365474,0.05102 -6.732183,0.10132 -10.097657,0.152344 -0.0255,1.835716 -0.05066,3.672096 -0.07617,5.507812 h 27.185547 l 0.04492,-5.355469 c -3.416467,-0.07635 -6.833533,-0.152169 -10.25,-0.228515 0.74423,-0.571805 1.488192,-1.143039 2.232422,-1.714844 1.550833,-1.289915 3.32592,-2.335701 4.703125,-3.816406 1.340256,-1.569827 2.98433,-2.903285 4.052735,-4.683594 0.955676,-1.288025 1.57022,-2.75687 2.162109,-4.236328 0.737635,-1.349443 0.947846,-2.855275 0.884766,-4.365234 C 42.48467,21.1746 42.329024,19.812739 41.550781,18.675781 41.042714,17.467995 40.048164,16.637735 39.126953,15.75 38.382435,14.882825 37.447779,14.271266 36.423828,13.78125 33.918475,12.244494 31.098361,11.369402 28.410156,10.216797 27.857092,9.865452 27.795728,9.0016723 27.435547,8.4492188 L 29.730469,6.6132812 C 28.200707,5.440456 26.670387,4.2685283 25.140625,3.0957031 Z M 24.921875,15.4375 c 1.362847,0 2.612847,0.130208 3.75,0.390625 1.137153,0.260417 2.144748,0.580946 3.021484,0.962891 v 3.046875 h -0.183593 c -0.737848,-0.625 -1.709419,-1.140842 -2.916016,-1.548829 -1.197917,-0.416666 -2.426866,-0.625 -3.685547,-0.625 -1.380208,0 -2.490017,0.286459 -3.332031,0.859376 -0.833333,0.572916 -1.25,1.310112 -1.25,2.21289 0,0.807292 0.208333,1.440321 0.625,1.900391 0.416667,0.460069 1.148871,0.811632 2.199219,1.054687 0.555555,0.121528 1.346788,0.269749 2.371093,0.44336 1.024306,0.173611 1.89171,0.350911 2.603516,0.533203 1.440972,0.381944 2.526693,0.959852 3.255859,1.732422 0.729167,0.772569 1.09375,1.853298 1.09375,3.242187 0,0.755208 -0.179253,1.502387 -0.535156,2.240234 -0.347222,0.737848 -0.837022,1.362848 -1.470703,1.875 -0.694444,0.555556 -1.506727,0.988282 -2.435547,1.300782 -0.920139,0.3125 -2.029948,0.46875 -3.332031,0.46875 -1.39757,0 -2.657552,-0.130209 -3.777344,-0.390625 -1.111111,-0.260417 -2.243924,-0.646051 -3.398437,-1.158203 V 30.75 h 0.183593 c 0.980903,0.815972 2.113716,1.44401 3.398438,1.886719 1.284722,0.442708 2.490668,0.664062 3.61914,0.664062 1.597223,0 2.839193,-0.299479 3.72461,-0.898437 0.894097,-0.598959 1.339844,-1.396268 1.339844,-2.394532 0,-0.859374 -0.211372,-1.494357 -0.636719,-1.902343 -0.416667,-0.407986 -1.054688,-0.723525 -1.914063,-0.949219 -0.651041,-0.173611 -1.359158,-0.31684 -2.123046,-0.429688 -0.755209,-0.112847 -1.557509,-0.256076 -2.408204,-0.429687 -1.71875,-0.364583 -2.994791,-0.986545 -3.828125,-1.863281 -0.824652,-0.885417 -1.238281,-2.034288 -1.238281,-3.449219 0,-1.623264 0.687066,-2.951389 2.058594,-3.984375 1.371528,-1.041667 3.111328,-1.5625 5.220703,-1.5625 z"
       id="path4601-7"
       transform="matrix(0.26458333,0,0,0.26458333,0,283.77082)"
       inkscape:connector-curvature="0" />
    <path
       style="display:inline;opacity:1;fill:none;fill-rule:evenodd;stroke:#000000;stroke-width:0.0436648px;stroke-linecap:butt;stroke-linejoin:miter;stroke-opacity:1"
       d=""
       id="path7867"
       inkscape:connector-curvature="0" />
    <path
       style="display:inline;opacity:1;fill:none;fill-rule:evenodd;stroke:#000000;stroke-width:0.0436648px;stroke-linecap:butt;stroke-linejoin:miter;stroke-opacity:1"
       d=""
       id="path7969"
       inkscape:connector-curvature="0" />
  </g>
</svg>
