<svg height="50" viewBox="0 0 13.229166 13.229167" width="50" xmlns="http://www.w3.org/2000/svg"><path d="m25 1.7617188-15.7265625 5.4960937-4.3085937 40.9804685h40.0703122l-4.308594-40.9804685zm-7.677734 12.3359372c1.003439.010497 2.000757.388266 2.841796.972656 4.038006 2.805771 3.427553 7.293677 5.658204 9.636719.931649-2.155162 16.040439-.341639 15.439453 1.027344-1.921728.304932-12.217026 3.155728-9.792969 8.328125 1.436621 3.329877 9.050021 7.499487 8.355469 7.787109-.592528.245443-.795169.835669-5.341797-1.921875-6.658534-2.122015-10.228542 1.765338-16.28711-1.755859-1.953127-1.056151-2.81008-2.929538-3.75-4.740234-1.622955-4.46041-2.019689-8.921168-2.326171-13.38086-.847745-.562847-1.29067-1.375491-3.1523441-1.308593.9143206-.676271 1.9179171-1.27405 3.3320311-1.513672 0 0 2.400187-2.598605 4.023438-3.013672.330728-.084539.66552-.120687 1-.117188z" fill="#8d6c46" transform="scale(.26458333)"/></svg>