<?xml version="1.0" encoding="UTF-8" standalone="no"?>
<svg
   xmlns:dc="http://purl.org/dc/elements/1.1/"
   xmlns:cc="http://creativecommons.org/ns#"
   xmlns:rdf="http://www.w3.org/1999/02/22-rdf-syntax-ns#"
   xmlns:svg="http://www.w3.org/2000/svg"
   xmlns="http://www.w3.org/2000/svg"
   xmlns:sodipodi="http://sodipodi.sourceforge.net/DTD/sodipodi-0.dtd"
   xmlns:inkscape="http://www.inkscape.org/namespaces/inkscape"
   inkscape:version="1.0.1 (3bc2e813f5, 2020-09-07)"
   sodipodi:docname="Xiangqi.svg"
   id="svg1579"
   version="1.1"
   viewBox="0 0 13.229166 13.229167"
   height="50"
   width="50">
  <defs
     id="defs1573">
    <inkscape:path-effect
       oposite_fuse="false"
       fuse_paths="true"
       discard_orig_path="false"
       mode="free"
       is_visible="true"
       id="path-effect7365"
       center_point="-15.691712,-20.462002"
       end_point="-15.691712,4.437998"
       start_point="-15.691712,-45.362002"
       effect="mirror_symmetry" />
    <inkscape:path-effect
       oposite_fuse="false"
       fuse_paths="true"
       discard_orig_path="false"
       mode="free"
       is_visible="true"
       id="path-effect4547-0"
       center_point="275.14301,224.09666"
       end_point="275.14301,350.07326"
       start_point="275.14301,98.12006"
       effect="mirror_symmetry" />
    <inkscape:path-effect
       oposite_fuse="false"
       fuse_paths="false"
       discard_orig_path="false"
       mode="free"
       is_visible="true"
       id="path-effect4551-7"
       center_point="274.67636,329.54996"
       end_point="274.67636,418.88419"
       start_point="274.67636,240.21573"
       effect="mirror_symmetry" />
    <inkscape:path-effect
       oposite_fuse="false"
       fuse_paths="false"
       discard_orig_path="false"
       mode="free"
       is_visible="true"
       id="path-effect4557-0"
       center_point="273.50283,404.61159"
       end_point="273.50283,477.30227"
       start_point="273.50283,331.92091"
       effect="mirror_symmetry" />
    <inkscape:path-effect
       oposite_fuse="false"
       fuse_paths="false"
       discard_orig_path="false"
       mode="free"
       is_visible="true"
       id="path-effect4669"
       center_point="315.71788,93.192596"
       end_point="315.71788,96.192596"
       start_point="315.71788,90.192596"
       effect="mirror_symmetry" />
    <inkscape:path-effect
       effect="mirror_symmetry"
       start_point="316.91112,90.060013"
       end_point="316.91112,96.060013"
       center_point="316.91112,93.060013"
       id="path-effect4802"
       is_visible="true"
       mode="free"
       discard_orig_path="false"
       fuse_paths="false"
       oposite_fuse="false" />
  </defs>
  <sodipodi:namedview
     inkscape:document-rotation="0"
     inkscape:window-maximized="1"
     inkscape:window-y="-12"
     inkscape:window-x="-12"
     inkscape:window-height="2050"
     inkscape:window-width="3840"
     showguides="true"
     units="px"
     showgrid="false"
     inkscape:current-layer="layer1"
     inkscape:document-units="px"
     inkscape:cy="13.52159"
     inkscape:cx="22.899111"
     inkscape:zoom="16"
     inkscape:pageshadow="2"
     inkscape:pageopacity="0.0"
     borderopacity="1.0"
     bordercolor="#666666"
     pagecolor="#ffffff"
     id="base" />
  <metadata
     id="metadata1576">
    <rdf:RDF>
      <cc:Work
         rdf:about="">
        <dc:format>image/svg+xml</dc:format>
        <dc:type
           rdf:resource="http://purl.org/dc/dcmitype/StillImage" />
        <dc:title></dc:title>
      </cc:Work>
    </rdf:RDF>
  </metadata>
  <g
     transform="translate(0,-283.77082)"
     id="layer1"
     inkscape:groupmode="layer"
     inkscape:label="Layer 1">
    <path
       transform="matrix(0.26458333,0,0,0.26458333,0,283.77082)"
       d="M 21.548828 1.5078125 C 21.293204 1.5078125 21.042273 1.5619541 20.818359 1.6738281 L 20.789062 1.6894531 L 20.763672 1.7070312 C 20.557574 1.8446061 20.390931 2.0264009 20.152344 2.3046875 C 19.918758 2.5771914 19.669521 2.8869475 19.402344 3.2304688 L 19.390625 3.2460938 L 19.380859 3.2617188 C 19.18107 3.5614353 18.751319 4.1051692 18.115234 4.8535156 L 18.109375 4.8613281 L 18.105469 4.8691406 C 17.510561 5.6128005 16.838606 6.3971563 16.091797 7.21875 C 14.314595 9.1440792 11.076989 12.08422 6.4082031 16 L 6.3925781 16.013672 L 6.3769531 16.029297 C 6.4202136 15.98621 6.3416157 16.05949 6.25 16.132812 C 6.1583956 16.205757 6.0265618 16.307926 5.8574219 16.439453 C 5.5030836 16.714981 5.1862453 16.993412 4.90625 17.273438 L 4.8925781 17.289062 L 4.8808594 17.304688 C 4.6169954 17.612719 4.4199219 17.919227 4.4199219 18.308594 L 4.4199219 18.808594 L 5.1464844 18.808594 C 6.0336805 18.808594 7.0088771 18.466539 8.109375 17.837891 L 8.1328125 17.822266 L 10.763672 15.908203 C 11.124658 16.442931 11.433594 16.985427 11.433594 17.685547 C 11.433594 18.08561 11.312332 18.844387 11.052734 19.882812 L 11.050781 19.890625 L 11.048828 19.898438 C 10.935079 20.410261 10.850705 20.814838 10.792969 21.115234 C 10.735229 21.415707 10.699219 21.562991 10.699219 21.761719 C 10.699219 22.210764 10.851749 22.652609 11.121094 23.056641 L 11.136719 23.078125 L 12.970703 25.28125 L 14.144531 25.462891 L 14.535156 25.072266 L 14.767578 24.138672 C 15.956357 23.939869 16.945753 23.855211 17.957031 23.757812 C 14.569908 26.817945 10.882286 29.503636 6.7792969 31.671875 C 6.4006677 31.852826 6.0913083 32.042558 5.8496094 32.271484 C 5.6032409 32.505059 5.4165962 32.798905 5.3828125 33.136719 L 5.3242188 33.730469 L 5.9199219 33.683594 C 8.9914801 33.440948 13.903436 30.722594 20.873047 25.728516 L 21.78125 26.572266 C 18.881462 28.878949 16.081927 30.904113 13.425781 32.533203 C 10.60079 34.26589 8.5651059 35.46928 7.3378906 36.138672 C 6.0642881 36.795629 5.2562402 37.332994 4.9628906 38.095703 L 4.7363281 38.6875 L 6.3300781 38.900391 L 6.4433594 38.861328 C 11.531084 37.07879 17.204028 33.920309 23.433594 29.5 C 23.643339 29.871906 23.845866 30.294843 24.035156 30.808594 C 18.511287 35.388965 11.777137 39.395551 3.7636719 42.792969 L 3.7597656 42.794922 L 3.7558594 42.796875 C 3.3971361 42.956371 3.1123088 43.108298 2.8847656 43.275391 C 2.6572226 43.442446 2.444739 43.626513 2.3886719 43.962891 L 2.2929688 44.544922 L 2.8828125 44.544922 C 5.3361227 44.544922 8.7775569 43.455495 13.332031 41.330078 L 13.333984 41.330078 C 17.651076 39.296428 21.44451 37.003154 24.798828 34.492188 C 25.105752 35.565687 25.347656 36.745551 25.347656 38.275391 C 25.347656 40.101621 25.114119 41.442304 24.71875 42.257812 C 24.337219 43.044748 23.886405 43.33671 23.197266 43.357422 C 23.110847 43.323406 22.941139 43.25079 22.630859 43.099609 C 22.272031 42.924995 21.781294 42.679136 21.167969 42.363281 C 19.907999 41.675899 19.083842 41.278849 18.464844 41.175781 L 17.998047 41.099609 L 17.722656 42.339844 L 17.916016 42.533203 C 17.875405 42.492762 18.022993 42.650682 18.210938 42.857422 C 18.398882 43.064162 18.671186 43.365927 19.029297 43.761719 L 19.033203 43.763672 L 19.037109 43.767578 C 19.756134 44.524466 20.401528 45.1867 20.970703 45.755859 C 21.588456 46.373623 22.261123 46.971656 22.992188 47.548828 C 23.739012 48.138434 24.27035 48.503906 24.886719 48.503906 C 25.224733 48.503906 25.486867 48.344215 25.740234 48.136719 C 25.992389 47.930357 26.244902 47.652037 26.521484 47.296875 C 27.118223 46.570034 27.63202 45.474415 28.130859 43.978516 C 28.130859 43.978516 28.132812 43.976562 28.132812 43.976562 C 28.679553 42.411574 28.951172 40.697772 28.951172 38.841797 C 28.951172 36.526269 28.582063 34.139556 27.853516 31.685547 L 27.835938 31.625 C 27.862205 31.609882 27.930067 31.590973 27.984375 31.566406 L 29.71875 33.351562 L 37.464844 42.455078 L 37.470703 42.462891 C 38.038549 43.082355 38.960573 43.302734 40.158203 43.302734 L 40.705078 43.302734 L 45.160156 42.626953 C 46.076306 42.585378 46.868695 42.300779 47.457031 41.757812 L 47.617188 41.609375 L 47.617188 41.390625 C 47.617188 41.0962 47.455321 40.852539 47.271484 40.683594 C 47.087686 40.514649 46.863361 40.386153 46.589844 40.259766 L 46.490234 40.212891 L 46.380859 40.212891 C 46.020444 40.212891 45.760142 40.16772 45.804688 40.183594 L 45.75 40.164062 L 45.691406 40.15625 C 42.466505 39.859557 40.023179 39.115385 38.353516 37.980469 L 38.351562 37.978516 C 38.350463 37.977798 38.348639 37.977394 38.347656 37.976562 C 36.71358 36.827813 34.054179 34.046816 30.544922 29.800781 L 30.923828 29.539062 L 35.667969 26.828125 L 35.677734 26.820312 C 36.319238 26.407928 36.699219 25.735015 36.699219 24.986328 L 36.699219 24.917969 L 36.681641 24.851562 C 36.294818 23.458996 35.938998 22.552501 35.328125 22.052734 L 35.189453 21.939453 L 35.011719 21.939453 C 34.338294 21.939453 33.771555 22.385979 33.166016 23.072266 C 32.617304 23.694111 31.737069 24.593453 30.535156 25.757812 C 29.446018 26.811809 28.181454 27.752556 26.783203 28.609375 C 26.101292 26.962446 24.885862 25.307067 23.132812 23.626953 L 23.433594 23.132812 L 37.451172 21.394531 L 38.283203 20.841797 L 38.283203 20.574219 C 38.283203 20.331573 38.225224 20.204969 38.144531 19.962891 L 38.119141 19.886719 L 37.355469 18.867188 C 37.569942 17.287345 37.801037 16.075999 38.027344 15.427734 C 38.288774 14.745832 38.740638 14.22689 39.445312 13.824219 L 39.697266 13.681641 L 39.697266 13.390625 C 39.697266 12.508748 39.058554 11.767111 38.052734 11.160156 C 37.5662 10.836629 37.11302 10.622151 36.662109 10.548828 C 36.208609 10.475127 35.741771 10.571624 35.386719 10.84375 L 35.332031 10.884766 L 34.234375 12.349609 L 27.392578 13.050781 C 28.431438 11.683915 29.782102 10.360374 31.667969 9.1132812 L 31.892578 8.9648438 L 31.892578 8.6953125 C 31.892578 8.2645975 31.710465 7.8620344 31.421875 7.3984375 C 31.133285 6.9348406 30.720128 6.4127901 30.179688 5.8144531 L 30.085938 5.7109375 L 29.953125 5.671875 C 29.481983 5.5305207 28.985978 5.548868 28.564453 5.7597656 L 28.519531 5.7832031 L 27.224609 6.8066406 C 26.808296 6.8867666 24.255874 7.242763 21.517578 7.6210938 L 22.853516 6.4589844 L 22.865234 6.4472656 C 23.164002 6.1486829 23.238281 5.7448002 23.238281 5.3007812 C 23.238281 4.5719371 22.980124 3.7455431 22.509766 2.765625 L 22.505859 2.7578125 L 21.849609 1.5214844 L 21.548828 1.5078125 z M 25.414062 10.064453 C 25.155418 10.437492 25.050426 10.582729 24.53125 11.339844 L 24.529297 11.341797 L 24.529297 11.34375 C 23.706453 12.560115 23.107887 13.307119 22.761719 13.640625 L 14.460938 14.744141 C 14.313763 14.272607 14.202609 13.852659 14.181641 13.585938 C 14.802052 13.056161 15.859741 12.25672 17.445312 11.140625 L 25.414062 10.064453 z M 34.326172 15.373047 L 33.9375 18.642578 L 25.830078 19.681641 L 26.445312 18.669922 C 26.954623 17.992021 27.253906 17.3247 27.253906 16.65625 C 27.253906 16.540219 27.171869 16.453293 27.152344 16.341797 L 34.326172 15.373047 z M 22.837891 16.720703 C 22.374129 18.186706 21.881053 19.480943 21.335938 20.255859 L 14.865234 20.806641 L 14.865234 17.935547 L 22.837891 16.720703 z "
       style="color:#000000;font-style:normal;font-variant:normal;font-weight:normal;font-stretch:normal;font-size:15.3249px;line-height:1.25;font-family:'cwTeX Q Fangsong';-inkscape-font-specification:'cwTeX Q Fangsong';font-variant-ligatures:normal;font-variant-position:normal;font-variant-caps:normal;font-variant-numeric:normal;font-variant-alternates:normal;font-variant-east-asian:normal;font-feature-settings:normal;font-variation-settings:normal;text-indent:0;text-align:start;text-decoration:none;text-decoration-line:none;text-decoration-style:solid;text-decoration-color:#000000;letter-spacing:0px;word-spacing:0px;text-transform:none;writing-mode:lr-tb;direction:ltr;text-orientation:mixed;dominant-baseline:auto;baseline-shift:baseline;text-anchor:start;white-space:normal;shape-padding:0;shape-margin:0;inline-size:0;clip-rule:nonzero;display:inline;overflow:visible;visibility:visible;isolation:auto;mix-blend-mode:normal;color-interpolation:sRGB;color-interpolation-filters:linearRGB;solid-color:#000000;solid-opacity:1;vector-effect:none;fill:#ae4f4f;fill-opacity:1;fill-rule:nonzero;stroke:none;stroke-width:0.999999;stroke-linecap:butt;stroke-linejoin:miter;stroke-miterlimit:4;stroke-dasharray:none;stroke-dashoffset:0;stroke-opacity:1;color-rendering:auto;image-rendering:auto;shape-rendering:auto;text-rendering:auto;enable-background:accumulate;stop-color:#000000"
       id="path2719" />
  </g>
</svg>
