<?xml version="1.0" encoding="UTF-8" standalone="no"?>
<svg
   width="50"
   height="50"
   viewBox="0 0 13.229166 13.229167"
   version="1.1"
   id="svg1579"
   inkscape:version="1.3 (0e150ed6c4, 2023-07-21)"
   sodipodi:docname="YokaiShogi.svg"
   xmlns:inkscape="http://www.inkscape.org/namespaces/inkscape"
   xmlns:sodipodi="http://sodipodi.sourceforge.net/DTD/sodipodi-0.dtd"
   xmlns="http://www.w3.org/2000/svg"
   xmlns:svg="http://www.w3.org/2000/svg"
   xmlns:rdf="http://www.w3.org/1999/02/22-rdf-syntax-ns#"
   xmlns:cc="http://creativecommons.org/ns#"
   xmlns:dc="http://purl.org/dc/elements/1.1/">
  <defs
     id="defs1573">
    <inkscape:path-effect
       effect="mirror_symmetry"
       start_point="-15.691712,-45.362002"
       end_point="-15.691712,4.437998"
       center_point="-15.691712,-20.462002"
       id="path-effect7365"
       is_visible="true"
       mode="free"
       discard_orig_path="false"
       fuse_paths="true"
       oposite_fuse="false" />
    <filter
       id="1FU_svg__a"
       x="-0.13599486"
       y="-0.11066395"
       width="1.3218818"
       height="1.2630402">
      <feGaussianBlur
         in="SourceAlpha"
         result="blur"
         stdDeviation="2"
         id="feGaussianBlur1" />
      <feOffset
         dx="2"
         dy="2"
         result="offsetBlur"
         id="feOffset1" />
      <feBlend
         in="SourceGraphic"
         in2="offsetBlur"
         id="feBlend1"
         mode="normal" />
    </filter>
  </defs>
  <sodipodi:namedview
     id="base"
     pagecolor="#ffffff"
     bordercolor="#666666"
     borderopacity="1.0"
     inkscape:pageopacity="0.0"
     inkscape:pageshadow="2"
     inkscape:zoom="2.8"
     inkscape:cx="-196.42857"
     inkscape:cy="193.21429"
     inkscape:document-units="px"
     inkscape:current-layer="layer1"
     showgrid="false"
     units="px"
     showguides="true"
     inkscape:window-width="3840"
     inkscape:window-height="2054"
     inkscape:window-x="-11"
     inkscape:window-y="-11"
     inkscape:window-maximized="1"
     inkscape:document-rotation="0"
     inkscape:showpageshadow="2"
     inkscape:pagecheckerboard="0"
     inkscape:deskcolor="#d1d1d1" />
  <metadata
     id="metadata1576">
    <rdf:RDF>
      <cc:Work
         rdf:about="">
        <dc:format>image/svg+xml</dc:format>
        <dc:type
           rdf:resource="http://purl.org/dc/dcmitype/StillImage" />
      </cc:Work>
    </rdf:RDF>
  </metadata>
  <g
     inkscape:label="Layer 1"
     inkscape:groupmode="layer"
     id="layer1"
     transform="translate(0,-283.77082)">
    <path
       id="path3112"
       style="fill:#8d6c46;fill-opacity:1;fill-rule:nonzero;stroke:none;stroke-width:0.174321;stroke-opacity:0.487437"
       d="m 1.7022217,284.40127 c -0.04852,0.76286 -0.3739832,1.57646 0.095601,2.24379 l 0.6289021,0.38964 c -0.3009318,0.57882 -0.4391874,1.19036 -0.2687174,1.86346 0.2444798,0.71881 0.9266283,1.15888 1.4939656,1.67224 l -0.5343343,5.81412 H 10.111527 L 9.73739,292.31293 c 0.2248065,-0.0589 0.449572,-0.14196 0.674377,-0.26975 0.31245,-0.46858 0.611827,-0.97188 0.830957,-1.6893 0.251892,0.009 0.503618,0.0773 0.75551,-0.0579 0.554845,-0.89667 0.61808,-1.17588 0.74104,-1.84278 -0.190504,0.23139 -0.905689,1.42543 -0.984953,1.16582 -0.03449,-0.11296 0.359141,-1.29643 0.181384,-1.80196 -0.175039,0.73688 -0.765456,1.53394 -0.967899,1.37873 0.03547,-0.0213 -0.534846,-0.98479 -0.9890871,-1.24385 0.4613221,0.81561 0.3812211,1.08734 0.3984251,1.35496 -0.273845,0.0541 -0.334917,0.20187 -0.764811,-0.0868 0.039663,0.4933 0.44353,0.85851 1.016992,0.94361 0,0 -0.473984,1.57038 -0.6320025,1.58233 -0.035898,0.003 -0.154811,0.0209 -0.3079916,0.046 l -0.3296956,-3.58532 -2.7450521,-1.09657 -2.745052,1.09657 -0.1550293,1.68827 c -0.3265148,-0.32021 -0.9508544,-0.93107 -1.0469645,-1.0082 -0.1236109,-0.0992 0.4578532,-1.78646 0.4578532,-1.78646 0.3616707,0.46073 1.0148822,0.26555 1.6164388,0.18655 -0.080242,-0.0482 -1.1784492,-0.44656 -1.008724,-0.62683 0.7734691,-0.82151 1.6261326,-0.85532 1.6081706,-0.86972 -0.4387936,-0.35215 -1.9447833,-0.0535 -1.9683553,0.27647 -0.1462538,0.0418 -0.1715204,-1.40491 -0.083716,-1.5167 0.058373,-0.0743 -0.8829266,1.33704 -0.9394776,1.44074 -0.1350317,0.24761 -0.6876396,-1.54137 -0.6475054,-1.58957 z m 4.8663695,4.98781 c 0.9300596,1.5e-4 1.6839843,0.75408 1.6841349,1.68414 1.311e-4,0.93026 -0.7538762,1.6845 -1.6841349,1.68465 -0.9304604,1.3e-4 -1.6847827,-0.75419 -1.6846516,-1.68465 1.506e-4,-0.93026 0.7543903,-1.68427 1.6846516,-1.68414 z m 0.3782715,0.9603 c -0.4705183,-2e-5 -0.8519524,0.41474 -0.8519229,0.92637 -2.95e-5,0.51163 0.3814046,0.92639 0.8519229,0.92637 0.4705183,2e-5 0.8519229,-0.41474 0.8519229,-0.92637 0,-0.51163 -0.3814046,-0.92639 -0.8519229,-0.92637 z m 2.0892781,3.10664 -0.543636,1.53582 -0.3307292,-0.29559 0.1777669,0.53382 -0.8097696,0.45268 -0.2418457,-0.82113 -0.3426148,0.9095 -0.9332763,-0.31884 c 0,0 2.217e-4,-0.90936 -0.047026,-0.88574 -0.047247,0.0236 -0.3896403,0.66146 -0.3896403,0.66146 0,0 -0.3563413,-0.12827 -0.5198649,-0.36638 -0.1750318,-0.25482 -0.3188437,-1.11001 -0.3188436,-1.11001 0,0 0.8766671,0.24081 1.6272909,0.32814 0.048017,0.006 0.041162,0.77525 0.08785,0.7798 0.043798,0.004 0.1412391,-0.75817 0.1834513,-0.75551 0.00721,4.6e-4 0.014543,9.4e-4 0.021704,10e-4 0.1167644,0.007 0.226485,0.007 0.3240113,5.2e-4 0.753502,-0.0527 2.0551716,-0.64957 2.0551716,-0.64957 z"
       sodipodi:nodetypes="ccccccccccccsccccccccccccsccccccscccccccccscccccccccccccccccccc" />
  </g>
</svg>
