<?xml version="1.0" encoding="UTF-8" standalone="no"?>
<svg
   width="50"
   height="50"
   viewBox="0 0 13.229166 13.229167"
   version="1.1"
   id="svg1579"
   inkscape:version="1.3 (0e150ed6c4, 2023-07-21)"
   sodipodi:docname="YokaiShogi.svg"
   xmlns:inkscape="http://www.inkscape.org/namespaces/inkscape"
   xmlns:sodipodi="http://sodipodi.sourceforge.net/DTD/sodipodi-0.dtd"
   xmlns="http://www.w3.org/2000/svg"
   xmlns:svg="http://www.w3.org/2000/svg"
   xmlns:rdf="http://www.w3.org/1999/02/22-rdf-syntax-ns#"
   xmlns:cc="http://creativecommons.org/ns#"
   xmlns:dc="http://purl.org/dc/elements/1.1/">
  <defs
     id="defs1573">
    <inkscape:path-effect
       effect="mirror_symmetry"
       start_point="-15.691712,-45.362002"
       end_point="-15.691712,4.437998"
       center_point="-15.691712,-20.462002"
       id="path-effect7365"
       is_visible="true"
       mode="free"
       discard_orig_path="false"
       fuse_paths="true"
       oposite_fuse="false" />
    <filter
       id="1FU_svg__a"
       x="-0.13599486"
       y="-0.11066395"
       width="1.3218818"
       height="1.2630402">
      <feGaussianBlur
         in="SourceAlpha"
         result="blur"
         stdDeviation="2"
         id="feGaussianBlur1" />
      <feOffset
         dx="2"
         dy="2"
         result="offsetBlur"
         id="feOffset1" />
      <feBlend
         in="SourceGraphic"
         in2="offsetBlur"
         id="feBlend1"
         mode="normal" />
    </filter>
  </defs>
  <sodipodi:namedview
     id="base"
     pagecolor="#ffffff"
     bordercolor="#666666"
     borderopacity="1.0"
     inkscape:pageopacity="0.0"
     inkscape:pageshadow="2"
     inkscape:zoom="5.6"
     inkscape:cx="-52.142857"
     inkscape:cy="118.57143"
     inkscape:document-units="px"
     inkscape:current-layer="layer1"
     showgrid="false"
     units="px"
     showguides="true"
     inkscape:window-width="3840"
     inkscape:window-height="2054"
     inkscape:window-x="-11"
     inkscape:window-y="-11"
     inkscape:window-maximized="1"
     inkscape:document-rotation="0"
     inkscape:showpageshadow="2"
     inkscape:pagecheckerboard="0"
     inkscape:deskcolor="#d1d1d1" />
  <metadata
     id="metadata1576">
    <rdf:RDF>
      <cc:Work
         rdf:about="">
        <dc:format>image/svg+xml</dc:format>
        <dc:type
           rdf:resource="http://purl.org/dc/dcmitype/StillImage" />
      </cc:Work>
    </rdf:RDF>
  </metadata>
  <g
     inkscape:label="Layer 1"
     inkscape:groupmode="layer"
     id="layer1"
     transform="translate(0,-283.77082)">
    <path
       id="path3112"
       style="fill:#8d6c46;fill-opacity:1;fill-rule:nonzero;stroke:none;stroke-width:0.174321;stroke-opacity:0.487437"
       d="m 1.7022217,284.40127 c -0.04852,0.76286 -0.373984,1.57646 0.095601,2.24379 l 0.6289021,0.38964 c -0.3009321,0.57882 -0.4391876,1.19036 -0.2687174,1.86346 0.2444801,0.71882 0.9266277,1.15887 1.4939656,1.67224 l -0.5343343,5.81412 H 10.111527 L 9.73739,292.31293 c 0.2248067,-0.0589 0.449571,-0.14196 0.674377,-0.26975 0.31245,-0.46858 0.611826,-0.97188 0.830957,-1.6893 0.251892,0.009 0.503785,0.0774 0.755677,-0.0578 0.554846,-0.89667 0.617931,-1.17578 0.740891,-1.84268 -0.190504,0.23139 -0.905707,1.42521 -0.984971,1.1656 -0.03449,-0.11296 0.359141,-1.29643 0.181384,-1.80196 -0.17504,0.73688 -0.765359,1.53416 -0.967802,1.37895 0.03547,-0.0213 -0.534943,-0.98501 -0.9891841,-1.24407 0.4613221,0.81561 0.3812211,1.08734 0.3984251,1.35496 -0.273846,0.0541 -0.334917,0.20189 -0.764811,-0.0868 0.039663,0.4933 0.443529,0.85847 1.016992,0.94357 0,0 -0.473984,1.57042 -0.6320025,1.58237 -0.035898,0.003 -0.1548109,0.0209 -0.3079916,0.046 l -0.3296956,-3.58532 -2.7450521,-1.09657 -2.745052,1.09657 -0.1550293,1.68827 c -0.3265151,-0.32021 -0.9508543,-0.93107 -1.0469645,-1.0082 -0.123611,-0.0992 0.4578532,-1.78646 0.4578532,-1.78646 0.3616711,0.46073 1.0148816,0.26555 1.6164388,0.18655 -0.080242,-0.0482 -1.1784494,-0.44656 -1.008724,-0.62683 0.7734699,-0.82151 1.6261326,-0.85532 1.6081706,-0.86972 -0.438794,-0.35216 -1.9447833,-0.0535 -1.9683553,0.27647 -0.1462539,0.0418 -0.1715207,-1.40491 -0.083716,-1.5167 0.058373,-0.0743 -0.8829266,1.33704 -0.9394776,1.44074 -0.1350319,0.24761 -0.6876396,-1.54137 -0.6475056,-1.58957 z m 4.8663695,4.98781 c 0.9300605,1.5e-4 1.6839843,0.75408 1.6841349,1.68414 1.311e-4,0.93026 -0.7538753,1.6845 -1.6841349,1.68465 -0.9304614,1.3e-4 -1.6847827,-0.75419 -1.6846516,-1.68465 1.506e-4,-0.93026 0.7543893,-1.68427 1.6846516,-1.68414 z m 0.4609538,0.57051 c -0.6336102,-3e-5 -1.1472565,0.5585 -1.1472168,1.24747 -3.97e-5,0.68897 0.5136066,1.2475 1.1472168,1.24747 0.6336102,3e-5 1.1472565,-0.5585 1.1472168,-1.24747 3.97e-5,-0.68897 -0.5136066,-1.2475 -1.1472168,-1.24747 z"
       sodipodi:nodetypes="ccccccccccccsccccccccccccccccccsscccccccccccc" />
    <path
       style="fill:#ffffff;stroke:none;stroke-width:0.264583px;stroke-linecap:butt;stroke-linejoin:miter;stroke-opacity:1"
       d="m 4.7365142,293.75175 c 0,0 0.8768707,0.24062 1.6274952,0.32795 0.048017,0.006 0.040921,0.77506 0.087609,0.77961 0.043798,0.004 0.1415406,-0.75773 0.1837529,-0.75507 0.00721,4.6e-4 0.014402,9.1e-4 0.021563,0.001 0.1167645,0.007 0.2262873,0.007 0.3238136,4.9e-4 0.7535028,-0.0527 2.0552456,-0.64965 2.0552456,-0.64965 l -0.5433407,1.53553 -0.3307292,-0.2953 0.17754,0.53389 -0.809469,0.45239 -0.242141,-0.82091 -0.342541,0.90951 -0.9331288,-0.31892 c 0,0 3e-7,-0.9095 -0.047247,-0.88588 -0.047247,0.0236 -0.389788,0.66145 -0.389788,0.66145 0,0 -0.3561933,-0.12805 -0.5197171,-0.36616 -0.175032,-0.25482 -0.3189174,-1.11031 -0.3189173,-1.11031 z"
       id="path3"
       sodipodi:nodetypes="csssssccccccccccscc" />
  </g>
</svg>
