<?xml version="1.0" encoding="UTF-8" standalone="no"?>
<svg
   xmlns:dc="http://purl.org/dc/elements/1.1/"
   xmlns:cc="http://creativecommons.org/ns#"
   xmlns:rdf="http://www.w3.org/1999/02/22-rdf-syntax-ns#"
   xmlns:svg="http://www.w3.org/2000/svg"
   xmlns="http://www.w3.org/2000/svg"
   xmlns:sodipodi="http://sodipodi.sourceforge.net/DTD/sodipodi-0.dtd"
   xmlns:inkscape="http://www.inkscape.org/namespaces/inkscape"
   width="52.157"
   height="60"
   version="1.1"
   id="svg1717"
   sodipodi:docname="0KA.svg"
   inkscape:version="0.92.4 (5da689c313, 2019-01-14)">
  <metadata
     id="metadata1723">
    <rdf:RDF>
      <cc:Work
         rdf:about="">
        <dc:format>image/svg+xml</dc:format>
        <dc:type
           rdf:resource="http://purl.org/dc/dcmitype/StillImage" />
        <dc:title></dc:title>
      </cc:Work>
    </rdf:RDF>
  </metadata>
  <defs
     id="defs1721">
    <filter
       style="color-interpolation-filters:sRGB"
       inkscape:label="Drop Shadow"
       id="filter1552">
      <feFlood
         flood-opacity="0.498039"
         flood-color="rgb(0,0,0)"
         result="flood"
         id="feFlood1542" />
      <feComposite
         in="flood"
         in2="SourceGraphic"
         operator="in"
         result="composite1"
         id="feComposite1544" />
      <feGaussianBlur
         in="composite1"
         stdDeviation="2.5"
         result="blur"
         id="feGaussianBlur1546" />
      <feOffset
         dx="4.57967e-15"
         dy="4.41314e-15"
         result="offset"
         id="feOffset1548" />
      <feComposite
         in="SourceGraphic"
         in2="offset"
         operator="over"
         result="composite2"
         id="feComposite1550" />
    </filter>
    <filter
       style="color-interpolation-filters:sRGB"
       inkscape:label="Drop Shadow"
       id="filter1540">
      <feFlood
         flood-opacity="0.498039"
         flood-color="rgb(0,0,0)"
         result="flood"
         id="feFlood1530" />
      <feComposite
         in="flood"
         in2="SourceGraphic"
         operator="in"
         result="composite1"
         id="feComposite1532" />
      <feGaussianBlur
         in="composite1"
         stdDeviation="2.5"
         result="blur"
         id="feGaussianBlur1534" />
      <feOffset
         dx="4.57967e-15"
         dy="4.41314e-15"
         result="offset"
         id="feOffset1536" />
      <feComposite
         in="SourceGraphic"
         in2="offset"
         operator="over"
         result="composite2"
         id="feComposite1538" />
    </filter>
    <filter
       id="drop-shadow-9">
      <feGaussianBlur
         in="SourceAlpha"
         result="blur"
         stdDeviation="2"
         id="feGaussianBlur5056" />
      <feOffset
         result="offsetBlur"
         dx="2"
         dy="2"
         id="feOffset5058" />
      <feBlend
         in="SourceGraphic"
         in2="offsetBlur"
         mode="normal"
         id="feBlend5060" />
    </filter>
    <filter
       id="drop-shadow-2">
      <feGaussianBlur
         in="SourceAlpha"
         result="blur"
         stdDeviation="2"
         id="feGaussianBlur6807" />
      <feOffset
         result="offsetBlur"
         dx="2"
         dy="2"
         id="feOffset6809" />
      <feBlend
         in="SourceGraphic"
         in2="offsetBlur"
         mode="normal"
         id="feBlend6811" />
    </filter>
    <filter
       id="drop-shadow-2-8">
      <feGaussianBlur
         in="SourceAlpha"
         result="blur"
         stdDeviation="2"
         id="feGaussianBlur6807-2" />
      <feOffset
         result="offsetBlur"
         dx="2"
         dy="2"
         id="feOffset6809-8" />
      <feBlend
         in="SourceGraphic"
         in2="offsetBlur"
         mode="normal"
         id="feBlend6811-0" />
    </filter>
    <filter
       id="drop-shadow-6">
      <feGaussianBlur
         in="SourceAlpha"
         result="blur"
         stdDeviation="2"
         id="feGaussianBlur5056-9" />
      <feOffset
         result="offsetBlur"
         dx="2"
         dy="2"
         id="feOffset5058-0" />
      <feBlend
         in="SourceGraphic"
         in2="offsetBlur"
         mode="normal"
         id="feBlend5060-9" />
    </filter>
  </defs>
  <sodipodi:namedview
     pagecolor="#ffffff"
     bordercolor="#666666"
     borderopacity="1"
     objecttolerance="10"
     gridtolerance="10"
     guidetolerance="10"
     inkscape:pageopacity="0"
     inkscape:pageshadow="2"
     inkscape:window-width="1920"
     inkscape:window-height="1017"
     id="namedview1719"
     showgrid="false"
     inkscape:zoom="1"
     inkscape:cx="-15.537517"
     inkscape:cy="26.96274"
     inkscape:window-x="1912"
     inkscape:window-y="-8"
     inkscape:window-maximized="1"
     inkscape:current-layer="layer3"
     inkscape:snap-nodes="false" />
  <!--
Created by Hari Seldon and modified by orangain, licensed under Creative Commons Attribution-Share Alike 3.0 Unported.
See: https://creativecommons.org/licenses/by-sa/3.0/deed.en

Original file is available at: https://commons.wikimedia.org/wiki/File:Shogi_gyokusho(svg).svg
-->
  <filter
     id="drop-shadow">
    <feGaussianBlur
       in="SourceAlpha"
       result="blur"
       stdDeviation="2"
       id="feGaussianBlur1692" />
    <feOffset
       result="offsetBlur"
       dx="2"
       dy="2"
       id="feOffset1694" />
    <feBlend
       in="SourceGraphic"
       in2="offsetBlur"
       mode="normal"
       id="feBlend1696" />
  </filter>
  <g
     inkscape:groupmode="layer"
     id="layer3"
     inkscape:label="Koma">
    <g
       transform="matrix(1.3333333,0,0,-1.3333333,-70.30806,375.85074)"
       style="display:inline"
       id="g9438">
      <g
         style="fill:#ffd5e5;fill-opacity:1;filter:url(#drop-shadow-6)"
         id="g5765"
         transform="matrix(0.75000002,0,0,-0.75000002,80.451421,282.09707)">
        <path
           style="fill:#feec99;fill-opacity:1"
           inkscape:connector-curvature="0"
           id="path5763"
           d="m -10.959999,6.2374999 c -4.319,1 -8.69,2.088 -12.838,3.608 -1.492,6.3310001 -2.103,12.8800001 -3.191,19.3050001 -1.285,8.332 -2.439,16.689 -3.86,24.997 4.847,0.346 10,0.05 14.963,0.148 H 9.0850008 c -0.585,-5.657 -1.718,-11.523 -2.502,-17.26 -1.462,-8.96 -2.486,-18.012 -4.288,-26.903 -0.885,-1.0930001 -2.79899998,-0.9570001 -4.037,-1.5640001 -3.053,-0.81 -6.099,-1.875 -9.2179998,-2.332 z" />
      </g>
    </g>
    <g
       aria-label="銀"
       style="font-style:normal;font-variant:normal;font-weight:normal;font-stretch:normal;font-size:26.66666603px;line-height:1.25;font-family:KaiTi;-inkscape-font-specification:KaiTi;letter-spacing:0px;word-spacing:0px;opacity:0.25;fill:#ff0000;fill-opacity:1;stroke:#ff0000;stroke-width:0.5;stroke-miterlimit:4;stroke-dasharray:none;stroke-opacity:1"
       id="text883-7"
       transform="matrix(0.72865261,0,0,0.72865261,7.1336488,-4.6058252)">
      <path
         d="m 33.825458,31.442181 q 0,-0.57552 0.06771,-0.744791 0.101562,-0.203125 0.338541,-0.203125 0.609375,0 1.929688,1.151041 l 0.40625,0.338542 q 0,0.135417 -0.03385,0.236979 0,0.06771 -0.101563,0.169271 -0.101562,0.101563 -0.236979,0.203125 -0.135416,0.101563 -0.440104,0.270834 -0.270833,0.16927 -0.609375,0.372395 -0.304688,0.203125 -0.880208,0.575521 -0.575521,0.372396 -1.184896,0.778646 -0.880209,0.609375 -1.692709,0.981771 1.929688,1.557292 2.877605,2.132813 0.947916,0.541666 1.963541,0.880208 l 3.960938,1.151042 q 0.270833,0.135416 0.40625,0.16927 v 0.23698 q -1.591146,0.609375 -4.197917,0.98177 -2.268229,-0.778645 -4.705729,-3.41927 L 29.187442,34.929161 28.408797,34.184369 Q 28.27338,34.082807 27.630151,33.608848 l -0.270834,7.95573 -0.06771,0.06771 0.135417,0.169271 3.080729,-1.861979 q 0.304687,-0.169271 0.914063,-0.372396 l 0.101562,0.135416 -0.203125,0.40625 q -0.169271,0.304688 -1.828125,1.86198 -1.625,1.557291 -1.997396,1.997396 l -1.320313,1.760416 q -0.304687,0.304688 -0.778645,0.304688 -0.947917,-0.846354 -0.947917,-2.132813 1.489583,-1.591146 1.625,-5.145833 l 0.101562,-2.84375 q 0.23698,-3.013021 0.23698,-4.70573 0,-5.213542 -1.388021,-8.125 v -0.135417 q 0,-0.473958 0.372396,-0.473958 0.338541,0 0.98177,0.372396 0.64323,0.338541 0.880209,0.575521 3.486979,-1.184896 4.841146,-1.929688 0.846354,0 1.861979,0.609375 1.049479,0.609375 1.049479,1.151042 0,0.236979 -0.135416,0.473958 -0.135417,0.203125 -0.338542,0.473959 -0.169271,0.236979 -0.440104,1.184895 -0.236979,0.947917 -0.440104,2.4375 -0.372396,2.979167 -1.591146,3.690105 -0.473959,0 -0.914063,-0.473959 -0.40625,-0.507812 -0.440104,-0.507812 l -0.169271,0.06771 q -0.507812,0.203125 -1.523437,0.473959 -1.015625,0.236979 -1.388021,0.372395 v 1.388021 q 0.914062,0 2.674479,1.760417 l 0.710937,0.710938 2.132813,-2.67448 q 0.338542,-0.473958 0.677083,-1.184896 z m -2.03125,-8.497396 -3.994791,1.45573 q -0.169271,0.507812 -0.270834,2.4375 v 0.236979 l 1.455729,-0.677084 q 0.23698,-0.135416 0.677084,-0.135416 1.083333,0 1.286458,0.507812 l -0.236979,0.270834 -3.080729,0.947916 v 2.471355 l 2.03125,-0.8125 q 0.338541,-0.06771 0.507812,-0.06771 0.507813,0 0.846354,0.236979 l 0.372396,-0.541666 0.778646,-4.536459 q 0.03385,-0.40625 0.03385,-1.015625 0,-0.778646 -0.40625,-0.778646 z m -7.244792,11.984376 q 0,0.03385 -0.304687,0.203125 -0.304688,0.169271 -1.184896,0.744791 -0.846354,0.541667 -1.895833,1.354167 h -0.270834 v -0.236979 l 1.320313,-1.794271 q 0.473958,-0.778646 0.473958,-1.523437 0.135417,-0.135417 0.338542,-0.135417 0.40625,0 0.947917,0.507812 0.57552,0.473959 0.57552,0.880209 z m -2.369791,-3.757813 q 1.421875,0 1.421875,0.710938 v 0.03385 l -0.304688,0.236979 -2.911458,0.880208 q -0.169271,0.270834 -0.40625,5.552084 0.846354,-0.169271 4.164062,-1.184896 l 0.372396,0.06771 q -0.135416,0.609375 -1.523437,1.184896 l -6.093751,2.471354 q -0.270833,0.06771 -2.302083,1.354167 l -0.473958,-0.06771 -1.86198,-1.286459 -0.06771,-0.609375 q 0.236979,-0.270833 0.947917,-0.270833 0.880208,0 0.981771,-0.03385 l 4.502604,-1.21875 0.203125,-5.518229 q -1.828125,0.203125 -2.572917,0.203125 -1.286458,0 -1.286458,-0.609375 0.338542,-0.23698 3.791667,-0.914063 0,-1.557292 -0.203125,-2.302083 -1.760417,0 -2.539063,-0.304688 l -2.234375,2.606771 Q 12.80202,33.13489 11.854103,33.54114 l -0.372395,-0.06771 0.101562,-0.304688 q 5.315104,-6.330729 7.177084,-10.427084 l 0.575521,-1.320312 q 0.101562,-0.236979 0.101562,-0.507813 0,-0.101562 -0.169271,-0.744791 -0.169271,-0.677084 -0.169271,-0.947917 0.101563,-0.135417 0.40625,-0.135417 0.64323,0 1.523438,0.609375 0.880208,0.575521 0.880208,1.083334 0,0.16927 -0.03385,0.236979 l -0.778646,1.151041 v 0.06771 l 1.794271,0.507812 q 1.117188,0.40625 1.252604,1.21875 v 0.203125 l -0.03385,0.507813 -0.203125,0.338542 -0.541666,-0.03385 -2.065105,-1.591146 q -0.473958,-0.338541 -0.710937,-0.440104 -1.625,2.945313 -3.994792,5.92448 0.541667,-0.101563 2.539063,-0.778646 2.03125,-0.677084 2.640625,-0.677084 0.914062,0 1.354166,0.575521 0,0.372396 -0.40625,0.507813 l -2.911458,0.914062 -0.06771,0.03385 q 0.744791,0.236979 0.744791,1.591145 v 0.101563 0.40625 q 0.609375,-0.372396 1.692709,-0.372396 z m -4.908855,5.958334 q 0,1.117187 -0.338541,1.252604 -0.981771,-0.236979 -1.963542,-2.065104 L 14.765562,35.97864 q 0,-0.440104 0.203125,-0.507813 1.828125,0.8125 2.302083,1.658855 z"
         style="font-style:normal;font-variant:normal;font-weight:normal;font-stretch:normal;font-size:34.66666794px;font-family:'cwTeX Q Kai';-inkscape-font-specification:'cwTeX Q Kai';fill:#ff0000;stroke:#ff0000;stroke-width:0.5;stroke-miterlimit:4;stroke-dasharray:none;stroke-opacity:1"
         id="path2146"
         inkscape:connector-curvature="0" />
    </g>
  </g>
  <g
     inkscape:groupmode="layer"
     id="layer2"
     inkscape:label="Rook"
     style="display:inline">
    <g
       transform="matrix(0.66116678,0,0,0.66116678,8.4842672,20.502982)"
       aria-label="角"
       style="font-style:normal;font-variant:normal;font-weight:normal;font-stretch:normal;font-size:26.66666603px;line-height:1.25;font-family:KaiTi;-inkscape-font-specification:KaiTi;letter-spacing:0px;word-spacing:0px;opacity:1;fill:#000000;fill-opacity:1;stroke:#000000;stroke-width:0.75623882;stroke-miterlimit:4;stroke-dasharray:none"
       id="text6451">
      <path
         inkscape:connector-curvature="0"
         d="m 23.867525,18.750001 q 1.166667,0 3.354167,-0.4375 2.333333,-0.4375 3.062499,-0.729167 0.875,-0.4375 1.895834,-0.145833 1.020833,0.291667 2.1875,1.166667 1.3125,0.729166 -0.729167,1.3125 -2.041667,0.583333 -7,5.541666 3.645833,-0.729167 4.375,-1.166667 0.875,-0.4375 1.895833,-0.145833 1.020834,0.291667 2.479167,1.166667 1.458333,0.875 0.875,1.604166 -0.4375,0.729167 -0.583333,3.0625 0,2.333333 0.291666,7.145833 0.4375,4.666667 0.291667,6.5625 -0.145833,1.75 -1.604167,2.916667 -1.458333,1.3125 -1.895833,0 -0.4375,-1.3125 -2.041667,-2.770834 -1.604166,-1.458333 0.145834,-0.875 1.895833,0.4375 2.479166,0.291667 0.729167,-0.291667 0.583334,-4.520833 -0.145834,-4.229167 -0.4375,-7.583333 -0.145834,-3.354167 -0.4375,-4.229167 -0.291667,-1.020833 -1.3125,-1.020833 -0.875,-0.145833 -5.979167,0.729167 1.3125,0.875 1.020834,1.604166 -0.145834,0.583334 -0.145834,2.333333 l 2.333333,-0.583333 q 1.166667,-0.291666 1.75,0.291667 0.729167,0.583333 -0.583333,1.020833 -1.3125,0.4375 -3.5,0.875 V 35.8125 q 1.75,-0.291666 2.770833,-0.4375 1.166667,-0.291666 2.041667,0.291667 0.875,0.583333 -0.583333,1.020833 -1.458334,0.291667 -4.229167,0.875 0.145834,2.770833 -0.145833,5.395833 -0.145833,2.479167 -0.729167,2.625 -0.583333,0.145834 -0.729166,-2.041666 0,-2.333334 -0.145834,-5.6875 -1.604166,0.291667 -2.479166,0.4375 -0.875,0.145833 -2.041667,-0.583333 -1.166667,-0.729167 0,-0.875 1.3125,-0.145834 4.520833,-0.729167 v -3.5 q -2.916666,0.4375 -3.791666,-0.145833 -0.875,-0.583334 0.145833,-0.729167 1.020833,-0.291667 3.645833,-0.875 0,-3.208333 -0.729166,-3.9375 l -4.375,0.583334 q -0.291667,5.833333 -0.729167,8.895833 -0.4375,2.916666 -1.3125,5.541666 -0.875,2.479167 -3.645833,3.791667 -2.625,1.458333 -0.583333,-0.583334 2.041666,-1.895833 2.916666,-4.958333 0.875,-3.0625 1.020834,-7.4375 0.291666,-4.374999 -0.291667,-5.395833 -0.583333,-1.166666 0.291667,-1.020833 0.875,0.145833 1.749999,0.145833 0.875,0 5.6875,-0.729166 2.333334,-2.916667 3.645834,-4.375 1.312499,-1.458333 0.874999,-1.75 -0.4375,-0.4375 -1.458333,-0.145833 -0.875,0.145833 -2.1875,0.4375 -1.166666,0.145833 -2.625,-0.4375 -3.645833,3.937499 -6.708333,5.541666 -3.0625,1.458333 -0.875,-0.291667 2.1875,-1.75 3.9375,-3.791666 1.75,-2.1875 2.1875,-3.208333 0.583333,-1.166667 0.4375,-2.1875 0,-1.020834 1.166667,-0.583334 1.166666,0.4375 1.895833,1.020834 0.875,0.583333 0.145833,1.166666 -0.583333,0.583334 -1.458333,1.604167 z"
         style="font-size:37.33333206px;fill:#000000;stroke:#000000;stroke-width:0.75623882;stroke-miterlimit:4;stroke-dasharray:none;stroke-opacity:1"
         id="path6471" />
    </g>
  </g>
  <g
     inkscape:groupmode="layer"
     id="layer1"
     inkscape:label="Pawn"
     style="display:inline" />
</svg>
