<?xml version="1.0" encoding="UTF-8" standalone="no"?>
<svg
   xmlns:dc="http://purl.org/dc/elements/1.1/"
   xmlns:cc="http://creativecommons.org/ns#"
   xmlns:rdf="http://www.w3.org/1999/02/22-rdf-syntax-ns#"
   xmlns:svg="http://www.w3.org/2000/svg"
   xmlns="http://www.w3.org/2000/svg"
   xmlns:sodipodi="http://sodipodi.sourceforge.net/DTD/sodipodi-0.dtd"
   xmlns:inkscape="http://www.inkscape.org/namespaces/inkscape"
   width="52.157"
   height="60"
   version="1.1"
   id="svg1717"
   sodipodi:docname="0TO.svg"
   inkscape:version="0.92.4 (5da689c313, 2019-01-14)">
  <metadata
     id="metadata1723">
    <rdf:RDF>
      <cc:Work
         rdf:about="">
        <dc:format>image/svg+xml</dc:format>
        <dc:type
           rdf:resource="http://purl.org/dc/dcmitype/StillImage" />
        <dc:title />
      </cc:Work>
    </rdf:RDF>
  </metadata>
  <defs
     id="defs1721">
    <filter
       style="color-interpolation-filters:sRGB"
       inkscape:label="Drop Shadow"
       id="filter1552">
      <feFlood
         flood-opacity="0.498039"
         flood-color="rgb(0,0,0)"
         result="flood"
         id="feFlood1542" />
      <feComposite
         in="flood"
         in2="SourceGraphic"
         operator="in"
         result="composite1"
         id="feComposite1544" />
      <feGaussianBlur
         in="composite1"
         stdDeviation="2.5"
         result="blur"
         id="feGaussianBlur1546" />
      <feOffset
         dx="4.57967e-15"
         dy="4.41314e-15"
         result="offset"
         id="feOffset1548" />
      <feComposite
         in="SourceGraphic"
         in2="offset"
         operator="over"
         result="composite2"
         id="feComposite1550" />
    </filter>
    <filter
       style="color-interpolation-filters:sRGB"
       inkscape:label="Drop Shadow"
       id="filter1540">
      <feFlood
         flood-opacity="0.498039"
         flood-color="rgb(0,0,0)"
         result="flood"
         id="feFlood1530" />
      <feComposite
         in="flood"
         in2="SourceGraphic"
         operator="in"
         result="composite1"
         id="feComposite1532" />
      <feGaussianBlur
         in="composite1"
         stdDeviation="2.5"
         result="blur"
         id="feGaussianBlur1534" />
      <feOffset
         dx="4.57967e-15"
         dy="4.41314e-15"
         result="offset"
         id="feOffset1536" />
      <feComposite
         in="SourceGraphic"
         in2="offset"
         operator="over"
         result="composite2"
         id="feComposite1538" />
    </filter>
    <filter
       id="drop-shadow-9">
      <feGaussianBlur
         in="SourceAlpha"
         result="blur"
         stdDeviation="2"
         id="feGaussianBlur5056" />
      <feOffset
         result="offsetBlur"
         dx="2"
         dy="2"
         id="feOffset5058" />
      <feBlend
         in="SourceGraphic"
         in2="offsetBlur"
         mode="normal"
         id="feBlend5060" />
    </filter>
    <filter
       id="drop-shadow-2">
      <feGaussianBlur
         in="SourceAlpha"
         result="blur"
         stdDeviation="2"
         id="feGaussianBlur6807" />
      <feOffset
         result="offsetBlur"
         dx="2"
         dy="2"
         id="feOffset6809" />
      <feBlend
         in="SourceGraphic"
         in2="offsetBlur"
         mode="normal"
         id="feBlend6811" />
    </filter>
    <filter
       id="drop-shadow-2-8">
      <feGaussianBlur
         in="SourceAlpha"
         result="blur"
         stdDeviation="2"
         id="feGaussianBlur6807-2" />
      <feOffset
         result="offsetBlur"
         dx="2"
         dy="2"
         id="feOffset6809-8" />
      <feBlend
         in="SourceGraphic"
         in2="offsetBlur"
         mode="normal"
         id="feBlend6811-0" />
    </filter>
    <filter
       id="drop-shadow-6">
      <feGaussianBlur
         in="SourceAlpha"
         result="blur"
         stdDeviation="2"
         id="feGaussianBlur5056-9" />
      <feOffset
         result="offsetBlur"
         dx="2"
         dy="2"
         id="feOffset5058-0" />
      <feBlend
         in="SourceGraphic"
         in2="offsetBlur"
         mode="normal"
         id="feBlend5060-9" />
    </filter>
  </defs>
  <sodipodi:namedview
     pagecolor="#ffffff"
     bordercolor="#666666"
     borderopacity="1"
     objecttolerance="10"
     gridtolerance="10"
     guidetolerance="10"
     inkscape:pageopacity="0"
     inkscape:pageshadow="2"
     inkscape:window-width="1920"
     inkscape:window-height="1017"
     id="namedview1719"
     showgrid="false"
     inkscape:zoom="7.8666666"
     inkscape:cx="-15.537517"
     inkscape:cy="26.96274"
     inkscape:window-x="1912"
     inkscape:window-y="-8"
     inkscape:window-maximized="1"
     inkscape:current-layer="layer2"
     inkscape:snap-nodes="false" />
  <!--
Created by Hari Seldon and modified by orangain, licensed under Creative Commons Attribution-Share Alike 3.0 Unported.
See: https://creativecommons.org/licenses/by-sa/3.0/deed.en

Original file is available at: https://commons.wikimedia.org/wiki/File:Shogi_gyokusho(svg).svg
-->
  <filter
     id="drop-shadow">
    <feGaussianBlur
       in="SourceAlpha"
       result="blur"
       stdDeviation="2"
       id="feGaussianBlur1692" />
    <feOffset
       result="offsetBlur"
       dx="2"
       dy="2"
       id="feOffset1694" />
    <feBlend
       in="SourceGraphic"
       in2="offsetBlur"
       mode="normal"
       id="feBlend1696" />
  </filter>
  <g
     inkscape:groupmode="layer"
     id="layer3"
     inkscape:label="Koma">
    <g
       transform="matrix(1.3333333,0,0,-1.3333333,-70.30806,375.85074)"
       style="display:inline"
       id="g9438">
      <g
         style="fill:#ffd5e5;fill-opacity:1;filter:url(#drop-shadow-6)"
         id="g5765"
         transform="matrix(0.75000002,0,0,-0.75000002,80.451421,282.09707)">
        <path
           style="fill:#feec99;fill-opacity:1"
           inkscape:connector-curvature="0"
           id="path5763"
           d="m -10.959999,6.2374999 c -4.319,1 -8.69,2.088 -12.838,3.608 -1.492,6.3310001 -2.103,12.8800001 -3.191,19.3050001 -1.285,8.332 -2.439,16.689 -3.86,24.997 4.847,0.346 10,0.05 14.963,0.148 H 9.0850008 c -0.585,-5.657 -1.718,-11.523 -2.502,-17.26 -1.462,-8.96 -2.486,-18.012 -4.288,-26.903 -0.885,-1.0930001 -2.79899998,-0.9570001 -4.037,-1.5640001 -3.053,-0.81 -6.099,-1.875 -9.2179998,-2.332 z" />
      </g>
    </g>
    <g
       aria-label="と"
       style="font-style:normal;font-variant:normal;font-weight:normal;font-stretch:normal;font-size:26.66666603px;line-height:1.25;font-family:KaiTi;-inkscape-font-specification:KaiTi;letter-spacing:0px;word-spacing:0px;opacity:1;fill:#000000;fill-opacity:1;stroke:#000000;stroke-width:0.45750472;stroke-miterlimit:4;stroke-dasharray:none;stroke-opacity:1"
       id="text33100"
       transform="matrix(1.0928849,0,0,1.0928849,31.164035,26.388885)">
      <path
         d="m 0.64971757,9.6844091 q 0.57291663,0 0.93749993,0.2864584 0.3645834,0.2864585 0.3645834,0.7031245 0,0.416667 -0.46875,0.651042 -0.46875,0.234375 -2.2395833,0.755208 l -0.3645833,0.104167 q -2.0833333,0.703125 -3.6979166,1.536458 -1.6145833,0.833334 -2.5260416,1.588542 -0.9114583,0.755208 -1.484375,1.5625 -0.5729166,0.78125 -0.7552083,1.354167 -0.1822916,0.546875 -0.1822916,1.041666 0,2.578125 5.2343748,2.578125 0.7291667,0 1.1197917,-0.02604 -0.390625,0.02604 -0.625,0.02604 0.15625,-0.07813 0.3385416,0 0.1822917,0.07813 1.2239583,-0.05208 1.0677084,-0.130208 2.39583332,-0.546875 0.83333331,-0.234375 1.35416668,-0.234375 0.9114583,0 1.4583333,0.859375 0,0.520833 -0.46875,0.833333 -0.46875,0.3125 -1.84895833,0.494792 -1.3802083,0.208333 -3.93229157,0.234375 h -2.3958333 q -0.5208333,0 -1.2499999,-0.208334 -0.7291667,-0.182291 -1.6145833,-0.598958 -0.859375,-0.442708 -1.4583335,-1.302083 -0.572916,-0.885417 -0.572916,-2.057292 0,-1.796875 1.1718745,-3.203125 1.1979166,-1.40625 3.4114582,-3.020833 -1.4322916,-1.09375 -1.4322916,-3.4114582 v -0.078125 l 0.1302083,-2.9166666 q -0.026042,-0.859375 -0.3125,-1.3802083 -0.2604166,-0.546875 -0.5729166,-0.703125 -0.3125,-0.1822916 -0.703125,-0.3645833 -0.390625,-0.1822917 -0.546875,-0.3645833 -0.026042,-0.2604167 0.2864583,-0.390625 0.3125,-0.1302083 0.4947917,-0.1302083 2.2656249,0.3645833 2.9166666,1.7968749 -0.3645833,2.1354166 -0.3645833,4.0624999 0,3.0208332 1.1979166,3.0208332 0.2083333,0 2.5520833,-1.015625 2.36979159,-1.041667 3.22916657,-1.4843749 z"
         style="font-style:normal;font-variant:normal;font-weight:normal;font-stretch:normal;font-family:'cwTeX Q Kai';-inkscape-font-specification:'cwTeX Q Kai';fill:#000000;stroke-width:0.45750472;stroke-miterlimit:4;stroke-dasharray:none;stroke:#000000;stroke-opacity:1"
         id="path33102"
         inkscape:connector-curvature="0" />
    </g>
  </g>
  <g
     inkscape:groupmode="layer"
     id="layer2"
     inkscape:label="Rook"
     style="display:inline">
    <g
       transform="matrix(0.67885261,0,0,0.67885261,7.8571457,-4.782549)"
       aria-label="香"
       style="font-style:normal;font-variant:normal;font-weight:normal;font-stretch:normal;font-size:26.66666603px;line-height:1.25;font-family:KaiTi;-inkscape-font-specification:KaiTi;letter-spacing:0px;word-spacing:0px;fill:#ff0000;fill-opacity:1;stroke:#ff0000;stroke-width:0.73653692;stroke-miterlimit:4;stroke-dasharray:none;opacity:0.25"
       id="text2778-5">
      <path
         inkscape:connector-curvature="0"
         d="m 33.416421,25.459874 q 0.778646,0 1.523437,0.440104 0.778646,0.40625 1.117188,0.981771 0,0.236979 -0.473958,0.40625 l -6.33073,0.236979 q -0.880208,0.06771 -1.997396,0.270833 3.48698,2.708334 5.450521,3.588542 1.963542,0.880209 7.684896,2.606771 0.203125,0.101563 0.304688,0.203125 0.101562,0.101563 0.135417,0.101563 -0.135417,0.203125 -2.065105,0.57552 -1.895833,0.338542 -2.776041,0.338542 -1.151042,0 -2.843751,-1.21875 -1.658854,-1.21875 -3.791666,-3.25 -2.098959,-2.065104 -2.776042,-2.606771 -0.06771,0.541667 -0.06771,1.658854 0,1.184896 0.03385,1.963542 0,2.809896 -0.643229,2.809896 -0.473959,0 -0.710938,-0.846354 l -0.236979,-0.744792 q 0.236979,-1.388021 0.236979,-4.367188 -4.299479,5.789063 -9.546875,7.820313 -1.388021,0.507813 -2.132813,0.507813 -0.440104,0 -0.643229,-0.203125 0.06771,-0.03385 0.744792,-0.440105 0.710937,-0.40625 0.98177,-0.541666 0.270834,-0.169271 1.015625,-0.609375 0.778646,-0.473959 1.184896,-0.744792 0.440105,-0.304687 1.184896,-0.8125 0.744792,-0.507812 1.21875,-0.880208 0.473959,-0.40625 1.117188,-0.981771 0.677083,-0.575521 1.151042,-1.083334 0.473958,-0.507812 0.98177,-1.117187 0.507813,-0.609375 0.880209,-1.21875 -1.861979,0.169271 -3.48698,0.643229 -1.591145,0.440104 -1.929687,0.440104 h -0.101563 q -1.083333,0 -1.794271,-0.880208 0,-0.236979 0.406251,-0.304688 l 8.700521,-1.21875 q 0,-2.505208 -0.575521,-3.588541 -0.507813,0.06771 -2.369792,0.541666 l -0.8125,0.169271 -1.151042,0.169271 v -0.372396 q 3.013021,-1.117188 4.671875,-1.963542 1.692709,-0.846354 2.166667,-1.320312 0.473959,-0.507813 0.507813,-1.015625 l 0.101562,-0.135417 q 0.880209,0 2.03125,0.744792 1.184896,0.710937 1.184896,1.049479 0,0.304687 -0.440104,0.40625 -0.40625,0.06771 -1.726563,0.372396 -1.320312,0.270833 -2.809895,0.947916 1.049479,0.541667 1.184895,0.744792 l 0.203125,0.40625 0.03385,0.236979 q -0.609375,1.117188 -0.64323,2.26823 1.997396,-0.304688 4.401042,-0.744792 l 2.065104,-0.440104 h 0.169271 z M 20.281004,35.649978 q 0.236979,0 0.710937,0.236979 0.507813,0.23698 0.643229,0.372396 4.604167,-0.507812 7.651042,-1.929687 1.963542,0.575521 2.911459,1.861979 -0.03385,0.135417 -0.372396,0.710938 -0.304688,0.541666 -0.304688,0.846354 l 0.304688,5.315104 q 0,3.690104 -1.557292,4.841146 l -0.473958,-0.06771 -1.895834,-2.911459 q -3.486979,0.03385 -6.026041,0.541667 -0.203125,0.778646 -0.677084,1.151042 -0.473958,-0.203125 -0.778646,-0.880209 -0.304687,-0.643229 -0.304687,-1.286458 0,-0.135417 0.338541,-1.184896 0.338542,-1.083333 0.338542,-2.572917 0,-3.182291 -0.914062,-4.773437 0.101562,-0.270834 0.40625,-0.270834 z m 9.377604,3.927084 q 0,-1.929688 -0.101562,-2.640625 -0.06771,-0.710938 -0.304688,-0.880209 -0.203125,-0.203125 -0.8125,-0.203125 -0.372396,0.03385 -2.505208,0.575521 -2.132813,0.507813 -3.622396,0.778646 l -0.101563,0.236979 v 2.809896 l 3.182292,-0.914062 q 0.575521,-0.169271 0.981771,-0.169271 0.947917,0 1.591146,0.677083 0,0.372396 -0.135417,0.507813 l -5.28125,0.744791 q -0.270833,0 -0.40625,0.03385 0,2.505209 -0.03385,3.216146 l 4.130208,-0.846354 q 0.744792,-0.06771 0.981771,-0.06771 1.015625,0 1.726563,0.914062 0.710937,-0.06771 0.710937,-4.773437 z"
         style="font-style:normal;font-variant:normal;font-weight:normal;font-stretch:normal;font-size:34.66666794px;font-family:'cwTeX Q Kai';-inkscape-font-specification:'cwTeX Q Kai';stroke:#ff0000;stroke-width:0.73653692;stroke-miterlimit:4;stroke-dasharray:none;stroke-opacity:1;fill:#ff0000"
         id="path3442" />
    </g>
  </g>
  <g
     inkscape:groupmode="layer"
     id="layer1"
     inkscape:label="Pawn"
     style="display:inline" />
</svg>
