<?xml version="1.0" encoding="UTF-8" standalone="no"?>
<svg
   xmlns:dc="http://purl.org/dc/elements/1.1/"
   xmlns:cc="http://creativecommons.org/ns#"
   xmlns:rdf="http://www.w3.org/1999/02/22-rdf-syntax-ns#"
   xmlns:svg="http://www.w3.org/2000/svg"
   xmlns="http://www.w3.org/2000/svg"
   xmlns:sodipodi="http://sodipodi.sourceforge.net/DTD/sodipodi-0.dtd"
   xmlns:inkscape="http://www.inkscape.org/namespaces/inkscape"
   width="52.157"
   height="60"
   version="1.1"
   id="svg1717"
   sodipodi:docname="1TO.svg"
   inkscape:version="0.92.4 (5da689c313, 2019-01-14)">
  <metadata
     id="metadata1723">
    <rdf:RDF>
      <cc:Work
         rdf:about="">
        <dc:format>image/svg+xml</dc:format>
        <dc:type
           rdf:resource="http://purl.org/dc/dcmitype/StillImage" />
        <dc:title></dc:title>
      </cc:Work>
    </rdf:RDF>
  </metadata>
  <defs
     id="defs1721">
    <filter
       style="color-interpolation-filters:sRGB"
       inkscape:label="Drop Shadow"
       id="filter1552">
      <feFlood
         flood-opacity="0.498039"
         flood-color="rgb(0,0,0)"
         result="flood"
         id="feFlood1542" />
      <feComposite
         in="flood"
         in2="SourceGraphic"
         operator="in"
         result="composite1"
         id="feComposite1544" />
      <feGaussianBlur
         in="composite1"
         stdDeviation="2.5"
         result="blur"
         id="feGaussianBlur1546" />
      <feOffset
         dx="4.57967e-15"
         dy="4.41314e-15"
         result="offset"
         id="feOffset1548" />
      <feComposite
         in="SourceGraphic"
         in2="offset"
         operator="over"
         result="composite2"
         id="feComposite1550" />
    </filter>
    <filter
       style="color-interpolation-filters:sRGB"
       inkscape:label="Drop Shadow"
       id="filter1540">
      <feFlood
         flood-opacity="0.498039"
         flood-color="rgb(0,0,0)"
         result="flood"
         id="feFlood1530" />
      <feComposite
         in="flood"
         in2="SourceGraphic"
         operator="in"
         result="composite1"
         id="feComposite1532" />
      <feGaussianBlur
         in="composite1"
         stdDeviation="2.5"
         result="blur"
         id="feGaussianBlur1534" />
      <feOffset
         dx="4.57967e-15"
         dy="4.41314e-15"
         result="offset"
         id="feOffset1536" />
      <feComposite
         in="SourceGraphic"
         in2="offset"
         operator="over"
         result="composite2"
         id="feComposite1538" />
    </filter>
    <filter
       id="drop-shadow-9">
      <feGaussianBlur
         in="SourceAlpha"
         result="blur"
         stdDeviation="2"
         id="feGaussianBlur5056" />
      <feOffset
         result="offsetBlur"
         dx="2"
         dy="2"
         id="feOffset5058" />
      <feBlend
         in="SourceGraphic"
         in2="offsetBlur"
         mode="normal"
         id="feBlend5060" />
    </filter>
    <filter
       id="drop-shadow-2">
      <feGaussianBlur
         in="SourceAlpha"
         result="blur"
         stdDeviation="2"
         id="feGaussianBlur6807" />
      <feOffset
         result="offsetBlur"
         dx="2"
         dy="2"
         id="feOffset6809" />
      <feBlend
         in="SourceGraphic"
         in2="offsetBlur"
         mode="normal"
         id="feBlend6811" />
    </filter>
    <filter
       id="drop-shadow-2-8">
      <feGaussianBlur
         in="SourceAlpha"
         result="blur"
         stdDeviation="2"
         id="feGaussianBlur6807-2" />
      <feOffset
         result="offsetBlur"
         dx="2"
         dy="2"
         id="feOffset6809-8" />
      <feBlend
         in="SourceGraphic"
         in2="offsetBlur"
         mode="normal"
         id="feBlend6811-0" />
    </filter>
    <filter
       id="drop-shadow-6">
      <feGaussianBlur
         in="SourceAlpha"
         result="blur"
         stdDeviation="2"
         id="feGaussianBlur5056-9" />
      <feOffset
         result="offsetBlur"
         dx="2"
         dy="2"
         id="feOffset5058-0" />
      <feBlend
         in="SourceGraphic"
         in2="offsetBlur"
         mode="normal"
         id="feBlend5060-9" />
    </filter>
    <filter
       id="drop-shadow-27">
      <feGaussianBlur
         in="SourceAlpha"
         result="blur"
         stdDeviation="2"
         id="feGaussianBlur5056-5" />
      <feOffset
         result="offsetBlur"
         dx="2"
         dy="2"
         id="feOffset5058-6" />
      <feBlend
         in="SourceGraphic"
         in2="offsetBlur"
         mode="normal"
         id="feBlend5060-96" />
    </filter>
    <filter
       id="drop-shadow-2-88">
      <feGaussianBlur
         in="SourceAlpha"
         result="blur"
         stdDeviation="2"
         id="feGaussianBlur6807-1" />
      <feOffset
         result="offsetBlur"
         dx="2"
         dy="2"
         id="feOffset6809-5" />
      <feBlend
         in="SourceGraphic"
         in2="offsetBlur"
         mode="normal"
         id="feBlend6811-7" />
    </filter>
    <inkscape:path-effect
       effect="mirror_symmetry"
       start_point="284.18608,120.29265"
       end_point="284.18608,137.98161"
       center_point="284.18608,129.13713"
       id="path-effect4724-5-9"
       is_visible="true"
       mode="free"
       discard_orig_path="false"
       fuse_paths="true"
       oposite_fuse="false" />
    <inkscape:path-effect
       effect="mirror_symmetry"
       start_point="275.14301,98.12006"
       end_point="275.14301,350.07326"
       center_point="275.14301,224.09666"
       id="path-effect4547-0-6-8"
       is_visible="true"
       mode="free"
       discard_orig_path="false"
       fuse_paths="true"
       oposite_fuse="false" />
    <inkscape:path-effect
       effect="mirror_symmetry"
       start_point="273.50283,331.92091"
       end_point="273.50283,477.30227"
       center_point="273.50283,404.61159"
       id="path-effect4557-0-4-2"
       is_visible="true"
       mode="free"
       discard_orig_path="false"
       fuse_paths="false"
       oposite_fuse="false" />
    <inkscape:path-effect
       effect="mirror_symmetry"
       start_point="317.75072,94.839412"
       end_point="317.75072,96.970714"
       center_point="317.75072,95.905063"
       id="path-effect4680-1-5"
       is_visible="true"
       mode="free"
       discard_orig_path="false"
       fuse_paths="false"
       oposite_fuse="false" />
    <inkscape:path-effect
       effect="mirror_symmetry"
       start_point="284.18608,120.29265"
       end_point="284.18608,137.98161"
       center_point="284.18608,129.13713"
       id="path-effect4724-5"
       is_visible="true"
       mode="free"
       discard_orig_path="false"
       fuse_paths="true"
       oposite_fuse="false" />
    <inkscape:path-effect
       effect="mirror_symmetry"
       start_point="275.14301,98.12006"
       end_point="275.14301,350.07326"
       center_point="275.14301,224.09666"
       id="path-effect4547-0-6"
       is_visible="true"
       mode="free"
       discard_orig_path="false"
       fuse_paths="true"
       oposite_fuse="false" />
    <inkscape:path-effect
       effect="mirror_symmetry"
       start_point="273.50283,331.92091"
       end_point="273.50283,477.30227"
       center_point="273.50283,404.61159"
       id="path-effect4557-0-4"
       is_visible="true"
       mode="free"
       discard_orig_path="false"
       fuse_paths="false"
       oposite_fuse="false" />
    <inkscape:path-effect
       effect="mirror_symmetry"
       start_point="317.75072,94.839412"
       end_point="317.75072,96.970714"
       center_point="317.75072,95.905063"
       id="path-effect4680-1"
       is_visible="true"
       mode="free"
       discard_orig_path="false"
       fuse_paths="false"
       oposite_fuse="false" />
    <inkscape:path-effect
       effect="mirror_symmetry"
       start_point="275.14301,98.12006"
       end_point="275.14301,350.07326"
       center_point="275.14301,224.09666"
       id="path-effect4547-0-2"
       is_visible="true"
       mode="free"
       discard_orig_path="false"
       fuse_paths="true"
       oposite_fuse="false" />
    <inkscape:path-effect
       effect="mirror_symmetry"
       start_point="274.67636,240.21573"
       end_point="274.67636,418.88419"
       center_point="274.67636,329.54996"
       id="path-effect4551-7-2"
       is_visible="true"
       mode="free"
       discard_orig_path="false"
       fuse_paths="false"
       oposite_fuse="false" />
    <inkscape:path-effect
       effect="mirror_symmetry"
       start_point="273.50283,331.92091"
       end_point="273.50283,477.30227"
       center_point="273.50283,404.61159"
       id="path-effect4557-0-7"
       is_visible="true"
       mode="free"
       discard_orig_path="false"
       fuse_paths="false"
       oposite_fuse="false" />
    <inkscape:path-effect
       effect="mirror_symmetry"
       start_point="315.71788,90.192596"
       end_point="315.71788,96.192596"
       center_point="315.71788,93.192596"
       id="path-effect4669-0"
       is_visible="true"
       mode="free"
       discard_orig_path="false"
       fuse_paths="false"
       oposite_fuse="false" />
    <inkscape:path-effect
       oposite_fuse="false"
       fuse_paths="false"
       discard_orig_path="false"
       mode="free"
       is_visible="true"
       id="path-effect4802-2"
       center_point="316.91112,93.060013"
       end_point="316.91112,96.060013"
       start_point="316.91112,90.060013"
       effect="mirror_symmetry" />
    <inkscape:path-effect
       effect="mirror_symmetry"
       start_point="275.14301,98.12006"
       end_point="275.14301,350.07326"
       center_point="275.14301,224.09666"
       id="path-effect4547-0-2-8"
       is_visible="true"
       mode="free"
       discard_orig_path="false"
       fuse_paths="true"
       oposite_fuse="false" />
    <inkscape:path-effect
       effect="mirror_symmetry"
       start_point="274.67636,240.21573"
       end_point="274.67636,418.88419"
       center_point="274.67636,329.54996"
       id="path-effect4551-7-2-8"
       is_visible="true"
       mode="free"
       discard_orig_path="false"
       fuse_paths="false"
       oposite_fuse="false" />
    <inkscape:path-effect
       effect="mirror_symmetry"
       start_point="273.50283,331.92091"
       end_point="273.50283,477.30227"
       center_point="273.50283,404.61159"
       id="path-effect4557-0-7-7"
       is_visible="true"
       mode="free"
       discard_orig_path="false"
       fuse_paths="false"
       oposite_fuse="false" />
    <inkscape:path-effect
       effect="mirror_symmetry"
       start_point="315.71788,90.192596"
       end_point="315.71788,96.192596"
       center_point="315.71788,93.192596"
       id="path-effect4669-0-4"
       is_visible="true"
       mode="free"
       discard_orig_path="false"
       fuse_paths="false"
       oposite_fuse="false" />
    <inkscape:path-effect
       oposite_fuse="false"
       fuse_paths="false"
       discard_orig_path="false"
       mode="free"
       is_visible="true"
       id="path-effect4802-2-5"
       center_point="316.91112,93.060013"
       end_point="316.91112,96.060013"
       start_point="316.91112,90.060013"
       effect="mirror_symmetry" />
  </defs>
  <sodipodi:namedview
     pagecolor="#ffffff"
     bordercolor="#666666"
     borderopacity="1"
     objecttolerance="10"
     gridtolerance="10"
     guidetolerance="10"
     inkscape:pageopacity="0"
     inkscape:pageshadow="2"
     inkscape:window-width="1920"
     inkscape:window-height="1017"
     id="namedview1719"
     showgrid="false"
     inkscape:zoom="11.125147"
     inkscape:cx="27.508558"
     inkscape:cy="26.910532"
     inkscape:window-x="1912"
     inkscape:window-y="-8"
     inkscape:window-maximized="1"
     inkscape:current-layer="g8876" />
  <!--
Created by Hari Seldon and modified by orangain, licensed under Creative Commons Attribution-Share Alike 3.0 Unported.
See: https://creativecommons.org/licenses/by-sa/3.0/deed.en

Original file is available at: https://commons.wikimedia.org/wiki/File:Shogi_gyokusho(svg).svg
-->
  <filter
     id="drop-shadow">
    <feGaussianBlur
       in="SourceAlpha"
       result="blur"
       stdDeviation="2"
       id="feGaussianBlur1692" />
    <feOffset
       result="offsetBlur"
       dx="2"
       dy="2"
       id="feOffset1694" />
    <feBlend
       in="SourceGraphic"
       in2="offsetBlur"
       mode="normal"
       id="feBlend1696" />
  </filter>
  <g
     style="display:inline"
     id="g8876"
     transform="matrix(1,0,0,-1,-95.640972,81.118732)">
    <g
       id="g7764"
       transform="matrix(0.98185054,0,0,-0.98185054,-4.3605036,104.33768)"
       style="fill:#feec99;fill-opacity:1;filter:url(#drop-shadow-2-88)">
      <g
         style="fill:#feec99;fill-opacity:1"
         id="g7762"
         transform="rotate(180,45.578499,23.8125)">
        <path
           sodipodi:nodetypes="ccccccccccccc"
           id="path7760"
           d="m -37.299339,-31.009999 c -4.096,1.034 -8.171,2.152 -12.207999,3.395 -0.467,0.163 -1.13,0.263 -1.201,0.865 -0.709,3.416 -1.178,6.885 -1.737,10.331 -1.73,11.2549998 -3.378,22.5279998 -5.1,33.78 0.155,0.682 1.013,0.424 1.51,0.48 12.893999,0.025 25.787999,0.03 38.679999,-0.033 0.672,-0.156 0.28,-0.952 0.279,-1.409 -2.011,-13.1200002 -3.876,-26.2630002 -5.998,-39.366 -0.277,-1.356 -0.348,-2.782 -0.816,-4.087 -0.347,-0.497 -1.073,-0.468 -1.588,-0.704 -3.832,-1.137 -7.673,-2.267 -11.55,-3.231 -0.09,-0.017 -0.18,-0.032 -0.271,-0.021 z"
           inkscape:connector-curvature="0"
           style="fill:#feec99;fill-opacity:1" />
      </g>
    </g>
    <g
       id="g6547"
       transform="rotate(180,138.7023,50.909441)">
      <g
         transform="matrix(1.0928849,0,0,-1.0928849,161.10271,54.249402)"
         id="text33100-0"
         style="font-style:normal;font-variant:normal;font-weight:normal;font-stretch:normal;font-size:26.66666603px;line-height:1.25;font-family:KaiTi;-inkscape-font-specification:KaiTi;letter-spacing:0px;word-spacing:0px;display:inline;opacity:0.25;fill:#ff0000;fill-opacity:1;stroke:#ff0000;stroke-width:0.73653692;stroke-miterlimit:4;stroke-dasharray:none"
         aria-label="と">
        <path
           inkscape:connector-curvature="0"
           id="path33102-1"
           style="font-style:normal;font-variant:normal;font-weight:normal;font-stretch:normal;font-size:34.66666794px;font-family:'cwTeX Q Kai';-inkscape-font-specification:'cwTeX Q Kai';fill:#ff0000;stroke:#ff0000;stroke-width:0.73653692;stroke-miterlimit:4;stroke-dasharray:none;stroke-opacity:1"
           d="m 0.64971757,9.6844091 q 0.57291663,0 0.93749993,0.2864584 0.3645834,0.2864585 0.3645834,0.7031245 0,0.416667 -0.46875,0.651042 -0.46875,0.234375 -2.2395833,0.755208 l -0.3645833,0.104167 q -2.0833333,0.703125 -3.6979166,1.536458 -1.6145833,0.833334 -2.5260416,1.588542 -0.9114583,0.755208 -1.484375,1.5625 -0.5729166,0.78125 -0.7552083,1.354167 -0.1822916,0.546875 -0.1822916,1.041666 0,2.578125 5.2343748,2.578125 0.7291667,0 1.1197917,-0.02604 -0.390625,0.02604 -0.625,0.02604 0.15625,-0.07813 0.3385416,0 0.1822917,0.07813 1.2239583,-0.05208 1.0677084,-0.130208 2.39583332,-0.546875 0.83333331,-0.234375 1.35416668,-0.234375 0.9114583,0 1.4583333,0.859375 0,0.520833 -0.46875,0.833333 -0.46875,0.3125 -1.84895833,0.494792 -1.3802083,0.208333 -3.93229157,0.234375 h -2.3958333 q -0.5208333,0 -1.2499999,-0.208334 -0.7291667,-0.182291 -1.6145833,-0.598958 -0.859375,-0.442708 -1.4583335,-1.302083 -0.572916,-0.885417 -0.572916,-2.057292 0,-1.796875 1.1718745,-3.203125 1.1979166,-1.40625 3.4114582,-3.020833 -1.4322916,-1.09375 -1.4322916,-3.4114582 v -0.078125 l 0.1302083,-2.9166666 q -0.026042,-0.859375 -0.3125,-1.3802083 -0.2604166,-0.546875 -0.5729166,-0.703125 -0.3125,-0.1822916 -0.703125,-0.3645833 -0.390625,-0.1822917 -0.546875,-0.3645833 -0.026042,-0.2604167 0.2864583,-0.390625 0.3125,-0.1302083 0.4947917,-0.1302083 2.2656249,0.3645833 2.9166666,1.7968749 -0.3645833,2.1354166 -0.3645833,4.0624999 0,3.0208332 1.1979166,3.0208332 0.2083333,0 2.5520833,-1.015625 2.36979159,-1.041667 3.22916657,-1.4843749 z" />
      </g>
      <g
         id="text2778-5-8"
         style="font-style:normal;font-variant:normal;font-weight:normal;font-stretch:normal;font-size:26.66666603px;line-height:1.25;font-family:KaiTi;-inkscape-font-specification:KaiTi;letter-spacing:0px;word-spacing:0px;opacity:1;fill:#000000;fill-opacity:1;stroke:#000000;stroke-width:0.45750472;stroke-miterlimit:4;stroke-dasharray:none;stroke-opacity:1"
         aria-label="香"
         transform="matrix(0.67885261,0,0,-0.67885261,137.79582,85.420836)">
        <path
           id="path3442-0"
           style="font-style:normal;font-variant:normal;font-weight:normal;font-stretch:normal;font-family:'cwTeX Q Kai';-inkscape-font-specification:'cwTeX Q Kai';fill:#000000;stroke:#000000;stroke-width:0.45750472;stroke-miterlimit:4;stroke-dasharray:none;stroke-opacity:1"
           d="m 33.416421,25.459874 q 0.778646,0 1.523437,0.440104 0.778646,0.40625 1.117188,0.981771 0,0.236979 -0.473958,0.40625 l -6.33073,0.236979 q -0.880208,0.06771 -1.997396,0.270833 3.48698,2.708334 5.450521,3.588542 1.963542,0.880209 7.684896,2.606771 0.203125,0.101563 0.304688,0.203125 0.101562,0.101563 0.135417,0.101563 -0.135417,0.203125 -2.065105,0.57552 -1.895833,0.338542 -2.776041,0.338542 -1.151042,0 -2.843751,-1.21875 -1.658854,-1.21875 -3.791666,-3.25 -2.098959,-2.065104 -2.776042,-2.606771 -0.06771,0.541667 -0.06771,1.658854 0,1.184896 0.03385,1.963542 0,2.809896 -0.643229,2.809896 -0.473959,0 -0.710938,-0.846354 l -0.236979,-0.744792 q 0.236979,-1.388021 0.236979,-4.367188 -4.299479,5.789063 -9.546875,7.820313 -1.388021,0.507813 -2.132813,0.507813 -0.440104,0 -0.643229,-0.203125 0.06771,-0.03385 0.744792,-0.440105 0.710937,-0.40625 0.98177,-0.541666 0.270834,-0.169271 1.015625,-0.609375 0.778646,-0.473959 1.184896,-0.744792 0.440105,-0.304687 1.184896,-0.8125 0.744792,-0.507812 1.21875,-0.880208 0.473959,-0.40625 1.117188,-0.981771 0.677083,-0.575521 1.151042,-1.083334 0.473958,-0.507812 0.98177,-1.117187 0.507813,-0.609375 0.880209,-1.21875 -1.861979,0.169271 -3.48698,0.643229 -1.591145,0.440104 -1.929687,0.440104 h -0.101563 q -1.083333,0 -1.794271,-0.880208 0,-0.236979 0.406251,-0.304688 l 8.700521,-1.21875 q 0,-2.505208 -0.575521,-3.588541 -0.507813,0.06771 -2.369792,0.541666 l -0.8125,0.169271 -1.151042,0.169271 v -0.372396 q 3.013021,-1.117188 4.671875,-1.963542 1.692709,-0.846354 2.166667,-1.320312 0.473959,-0.507813 0.507813,-1.015625 l 0.101562,-0.135417 q 0.880209,0 2.03125,0.744792 1.184896,0.710937 1.184896,1.049479 0,0.304687 -0.440104,0.40625 -0.40625,0.06771 -1.726563,0.372396 -1.320312,0.270833 -2.809895,0.947916 1.049479,0.541667 1.184895,0.744792 l 0.203125,0.40625 0.03385,0.236979 q -0.609375,1.117188 -0.64323,2.26823 1.997396,-0.304688 4.401042,-0.744792 l 2.065104,-0.440104 h 0.169271 z M 20.281004,35.649978 q 0.236979,0 0.710937,0.236979 0.507813,0.23698 0.643229,0.372396 4.604167,-0.507812 7.651042,-1.929687 1.963542,0.575521 2.911459,1.861979 -0.03385,0.135417 -0.372396,0.710938 -0.304688,0.541666 -0.304688,0.846354 l 0.304688,5.315104 q 0,3.690104 -1.557292,4.841146 l -0.473958,-0.06771 -1.895834,-2.911459 q -3.486979,0.03385 -6.026041,0.541667 -0.203125,0.778646 -0.677084,1.151042 -0.473958,-0.203125 -0.778646,-0.880209 -0.304687,-0.643229 -0.304687,-1.286458 0,-0.135417 0.338541,-1.184896 0.338542,-1.083333 0.338542,-2.572917 0,-3.182291 -0.914062,-4.773437 0.101562,-0.270834 0.40625,-0.270834 z m 9.377604,3.927084 q 0,-1.929688 -0.101562,-2.640625 -0.06771,-0.710938 -0.304688,-0.880209 -0.203125,-0.203125 -0.8125,-0.203125 -0.372396,0.03385 -2.505208,0.575521 -2.132813,0.507813 -3.622396,0.778646 l -0.101563,0.236979 v 2.809896 l 3.182292,-0.914062 q 0.575521,-0.169271 0.981771,-0.169271 0.947917,0 1.591146,0.677083 0,0.372396 -0.135417,0.507813 l -5.28125,0.744791 q -0.270833,0 -0.40625,0.03385 0,2.505209 -0.03385,3.216146 l 4.130208,-0.846354 q 0.744792,-0.06771 0.981771,-0.06771 1.015625,0 1.726563,0.914062 0.710937,-0.06771 0.710937,-4.773437 z"
           inkscape:connector-curvature="0" />
      </g>
    </g>
  </g>
</svg>
