<?xml version="1.0" encoding="UTF-8" standalone="no"?>
<!-- Created with Inkscape (http://www.inkscape.org/) -->

<svg
   width="30mm"
   height="30mm"
   viewBox="0 0 30 30"
   version="1.1"
   id="svg1"
   xmlns="http://www.w3.org/2000/svg"
   xmlns:svg="http://www.w3.org/2000/svg">
  <defs
     id="defs1">
    <clipPath
       clipPathUnits="userSpaceOnUse"
       id="clipPath182-4-0-4-0-4-2-8-8">
      <path
         d="M 0,2834.646 H 2834.646 V 0 H 0 Z"
         transform="translate(-91.9855,-311.81193)"
         id="path182-0-3-8-6-1-1-6-8" />
    </clipPath>
  </defs>
  <g
     id="layer1"
     transform="translate(-360)">
    <path
       id="path1160"
       d="m 0,0 c 0,-19.491 -15.801,-35.292 -35.293,-35.292 -19.491,0 -35.292,15.801 -35.292,35.292 0,19.491 15.801,35.292 35.292,35.292 C -15.801,35.292 0,19.491 0,0"
       style="font-variation-settings:normal;vector-effect:none;fill:#f9d08f;fill-opacity:1;fill-rule:nonzero;stroke:#4d3608;stroke-width:1.58026;stroke-linecap:butt;stroke-linejoin:miter;stroke-miterlimit:10;stroke-dasharray:none;stroke-dashoffset:0;stroke-opacity:1;-inkscape-stroke:none;stop-color:#000000"
       transform="matrix(0.37968369,0,0,-0.37968364,388.39999,14.999904)"
       clip-path="url(#clipPath182-4-0-4-0-4-2-8-8)" />
    <path
       d="m 370.23206,15.633803 v -1.047308 h 9.31553 v 2.866317 h -8.32335 l -0.22048,0.826822 h 9.15016 q -0.0551,1.543402 -0.22048,2.315103 -0.16537,0.38585 -0.4961,0.551215 -0.55121,0.275607 -1.98437,0.440971 -0.22049,-0.716579 -0.60634,-1.267794 h 1.37804 q 0.16537,0 0.22049,-0.05512 0.0551,-0.05512 0.16536,-0.385851 l 0.0551,-0.661457 h -7.82725 l -0.16536,0.661457 -1.2678,-0.330728 0.71658,-3.031682 h 8.10286 v -0.881944 z m 7.717,-4.023868 q 0.60634,-0.606337 1.10243,-1.267795 h -2.09461 q 0.49609,0.71658 0.99218,1.267795 z M 374.9725,9.2397108 h 4.74045 l 0.16537,-0.055121 0.82682,0.8268222 q -1.04731,1.433158 -1.10243,1.48828 -0.0551,0.110243 -0.33073,0.38585 -0.27561,0.275608 -0.44097,0.496093 1.32291,0.826823 2.75607,1.10243 -0.60633,0.551215 -0.93706,1.157551 -0.7717,-0.220486 -1.37804,-0.661457 -0.66146,-0.385851 -1.37804,-0.937066 -0.66146,0.496094 -1.26779,0.71658 -0.60634,0.275607 -1.5434,0.551214 -0.27561,-0.661457 -0.66146,-1.102429 1.21267,-0.275608 1.5434,-0.440972 0.60634,-0.220486 1.04731,-0.496094 -0.93707,-1.267794 -1.37804,-1.929252 h -0.66146 z m -3.69314,1.3780372 -0.38585,0.881944 1.43316,0.496093 q 0.44097,-1.047308 0.55122,-1.378037 z m 2.09462,1.819009 0.99219,0.496093 -0.66146,1.047309 -1.10243,-0.661458 q -1.10243,0.716579 -1.65364,0.937065 -1.15756,0.38585 -1.98438,0.551215 -0.22048,-0.496094 -0.55121,-0.992187 1.15755,-0.220486 1.87413,-0.496093 0.71658,-0.220486 1.21267,-0.496094 l -0.99219,-0.440972 -0.22048,0.385851 -1.10243,-0.496094 0.71658,-1.653644 h -1.15755 V 9.6255612 h 1.5434 q 0.0551,-0.110243 0.49609,-1.2126727 l 1.26779,0.3858504 -0.33072,0.8268223 h 2.59071 q -0.22049,1.0473078 -0.44098,1.5434018 -0.22048,0.606336 -0.49609,1.267794 z"
       id="text1162"
       style="font-size:14.1111px;font-family:Osaka;-inkscape-font-specification:'Osaka, Normal';text-align:center;text-anchor:middle;fill:#d20000;stroke-width:0.352777"
       aria-label="弩" />
    <path
       style="baseline-shift:baseline;display:inline;overflow:visible;opacity:1;vector-effect:none;fill:#d20000;stroke-miterlimit:10;enable-background:accumulate;stop-color:#000000;stop-opacity:1"
       d="m 375,3.5 c -6.33943,0 -11.5,5.1605695 -11.5,11.5 0,6.33943 5.16057,11.5 11.5,11.5 6.33943,0 11.5,-5.16057 11.5,-11.5 0,-6.3394305 -5.16057,-11.5 -11.5,-11.5 z m 0,2 c 5.25855,0 9.5,4.2414497 9.5,9.5 0,5.25855 -4.24145,9.5 -9.5,9.5 -5.25855,0 -9.5,-4.24145 -9.5,-9.5 0,-5.2585503 4.24145,-9.5 9.5,-9.5 z"
       id="ellipse1166" />
  </g>
</svg>
