<svg height="92" width="92" xmlns="http://www.w3.org/2000/svg" xmlns:xlink="http://www.w3.org/1999/xlink"><radialGradient id="a" cx="-638.67987" cy="63.566608" gradientTransform="matrix(1.0751961 .02369973 -.02469788 1.1204806 875.45216 -171.12662)" gradientUnits="userSpaceOnUse" r="57.869461"><stop offset="0" stop-color="#f8d7a6"/><stop offset=".76315546" stop-color="#fac886"/><stop offset=".89982331" stop-color="#dfa35b"/><stop offset="1" stop-color="#a17e53"/></radialGradient><filter id="b" color-interpolation-filters="sRGB" height="1.402433" width="1.414727" x="-.207363" y="-.201217"><feTurbulence baseFrequency=".1 .015" numOctaves="2" result="result0" seed="57" type="turbulence"/><feComposite in="result0" in2="result0" operator="over" result="result1"/><feComposite in="SourceGraphic" in2="result1" k1="1" k2="0" k3="0" k4="0" operator="arithmetic" result="fbSourceGraphic"/><feGaussianBlur in="fbSourceGraphic" result="result8" stdDeviation="9.9999995"/><feComposite in="result8" in2="result8" operator="xor" result="result6"/><feDisplacementMap in="result1" in2="result6" result="result4" scale="100" xChannelSelector="A" yChannelSelector="A"/><feComposite in="SourceGraphic" in2="result4" k1="1" k2="0" k3="0" k4="0" operator="arithmetic" result="result2"/><feComposite in="SourceGraphic" in2="result2" operator="out"/></filter><filter id="c" color-interpolation-filters="sRGB" height="1.329215" width="1.203339" x="-.101669" y="-.164608"><feGaussianBlur stdDeviation="1.2730718"/></filter><filter id="d" color-interpolation-filters="sRGB" height="1.211246" width="1.211246" x="-.105623" y="-.105623"><feGaussianBlur stdDeviation="3.0476689"/></filter><filter id="e" color-interpolation-filters="sRGB" height="1.098093" width="1.10109" x="-.031104" y="-.030182"><feFlood flood-opacity=".498039" result="flood"/><feComposite in="flood" in2="SourceGraphic" operator="in" result="composite1"/><feGaussianBlur in="composite1" result="blur" stdDeviation="1.5"/><feOffset dx="4.5" dy="4.5" result="offset"/><feComposite in="SourceGraphic" in2="offset" operator="over" result="composite2"/></filter><filter id="f" color-interpolation-filters="sRGB" height="1.025913" width="1.021562" x="-.010781" y="-.012957"><feGaussianBlur stdDeviation=".18423594"/></filter><g><g transform="matrix(.68586115 0 0 .68586115 -231.77377 9.230463)"><g filter="url(#e)" transform="translate(216.73288 159.42387)"><ellipse cx="188.26712" cy="-105.81311" fill="url(#a)" rx="57.869461" ry="59.637218"/><ellipse cx="188.26712" cy="-116.5965" rx="42.80352" ry="42.449966" style="opacity:.825726;fill:#fecb8b;stroke:#3b332c;stroke-width:3;stroke-linecap:round;stroke-linejoin:round"/></g><g filter="url(#b)" opacity=".288382" transform="translate(56.926756 154.47412)"><ellipse cx="348.07324" cy="-100.86336" fill="#fecb8b" opacity="1" rx="57.869461" ry="59.637218"/></g><path d="m363.1022 76.23295s7.02475 11.74977 12.9047 14.84925c4.48776 2.36562 17.14735 3.7123 17.14735 3.7123-11.1995-3.41404-23.09518-10.90487-30.05205-18.56155z" fill="#f7ce8d" filter="url(#c)"/><circle cx="-402.375" cy="-180.875" fill="#efd49c" filter="url(#d)" opacity=".321577" r="34.625" transform="matrix(1.1102782 0 0 1.1102782 850.68122 243.85686)"/></g><g fill="#85391b" filter="url(#f)" transform="matrix(1.0723788 0 0 1.0723788 -45.181615 .87567)"><path d="m49.193359 25.318359c-4.233871.06198-7.450226 2.188991-10.132812 5.402344-3.054284 3.109914-5.17778 7.000787-6.242188 11.777344-1.055716 1.941697-1.93648 2.285634-2.826171 2.708984-2.696563-.754535-3.577666-1.916029-2.94336-3.416015.415228-2.130358 4.107318-3.946126 6.476563-5.888672 1.881461-3.118857 2.762763-6.116979-.707032-8.595703-10.314229-2.416335-8.311098 5.541515-6.123047 7.300781 1.460077-.642687 2.357432-1.44021 2.826172-2.355469-.305612-.513141-1.156653-.960991 0-1.648437.634401.05414.964792.336792 1.177735.707031 0 1.17765.592879 1.349342-4.240235 4.710937-2.847512 1.36672-3.053329 3.519073-4.121093 5.416016-1.964512 10.289657 2.295702 13.37563 7.654297 15.191406 1.018526-.849319 1.318365-2.050431 1.765624-3.179687 1.52592.331617 2.96197.455327 5.064454 2.121093.510311-.47106 1.020938-.943002 1.53125-1.414062l1.294922.589844-1.058594.58789c-.729802 1.014552-1.686498 1.894653-2.945313 2.591797l2.826172.351563c1.280106-.475287 2.27683-1.197675 3.179688-2.001953l1.53125-.470703c1.429491-3.499436 2.817039-7.009736 3.416015-10.716797-.09492-1.159322-.120301-2.084157-.824218-5.298829l.824218-2.708984 4.945313-5.535156-3.767578 5.888672-.707032 2.472656c-.111288 1.801403.184355 3.332165.707032 4.710938l-.236329 2.472656c-1.293013 3.648053-2.779626 7.144857-3.0625 11.1875.147338.911115.476394 1.700333 1.53125 2.001953 13.225148-.4997 19.819273-6.161754 23.90625-13.777344l.236329-2.472656c-2.481393-10.472616-9.599369-15.840231-19.078125-18.607422-.64773-.07828-1.274068-.11237-1.878907-.103516zm-9.074218 10.865235c.628465.196146 1.127209.436078 1.53125.707031-.348826-.0485-.668839-.201753-1.021485-.236328-.352646-.03457-.736716.04838-1.214844.470703-.524101.0854-.920462.105646-1.296874.117188.209933-.273398.469878-.507589.796874-.689454.326998-.181864.720994-.31011 1.205079-.36914zm-.470703 1.412109 2.826171 1.296875c.323112.278593.600298.576109.804688.90625.20439.330142.336069.692856.373047 1.095703-.584362-.375156-1.126016-.772584-2.119141-.943359-.916342.175776-1.844177.380171-2.591797.11914-.429854-.552996-.586456-.882333-.646484-1.128906-.06003-.246572-.02197-.411483-.05859-.638672.194042-.184434.346356-.435769.550781-.603515.204426-.167747.459891-.252346.861329-.103516zm-7.066407 17.150391c-1.564367 4.788849-4.768298 7.444901-7.771484 10.363281-.242314.358502.171714.468374 1.177734.353516 4.598408-2.194568 8.07834-5.135513 9.539063-9.421875-.926128-.486394-1.546193-1.275891-2.945313-1.294922z" fill="#3b332c" transform="matrix(.8491483 0 0 .8491483 45.966239 -2.427324)"/></g></g></svg>