<svg height="92" width="92" xmlns="http://www.w3.org/2000/svg" xmlns:xlink="http://www.w3.org/1999/xlink"><radialGradient id="a" cx="-638.67987" cy="63.566608" gradientTransform="matrix(1.0751961 .02369973 -.02469788 1.1204806 875.45216 -171.12662)" gradientUnits="userSpaceOnUse" r="57.869461"><stop offset="0" stop-color="#f8d7a6"/><stop offset=".76315546" stop-color="#fac886"/><stop offset=".89982331" stop-color="#dfa35b"/><stop offset="1" stop-color="#a17e53"/></radialGradient><filter id="b" color-interpolation-filters="sRGB" height="1.402433" width="1.414727" x="-.207363" y="-.201217"><feTurbulence baseFrequency=".1 .015" numOctaves="2" result="result0" seed="57" type="turbulence"/><feComposite in="result0" in2="result0" operator="over" result="result1"/><feComposite in="SourceGraphic" in2="result1" k1="1" k2="0" k3="0" k4="0" operator="arithmetic" result="fbSourceGraphic"/><feGaussianBlur in="fbSourceGraphic" result="result8" stdDeviation="9.9999995"/><feComposite in="result8" in2="result8" operator="xor" result="result6"/><feDisplacementMap in="result1" in2="result6" result="result4" scale="100" xChannelSelector="A" yChannelSelector="A"/><feComposite in="SourceGraphic" in2="result4" k1="1" k2="0" k3="0" k4="0" operator="arithmetic" result="result2"/><feComposite in="SourceGraphic" in2="result2" operator="out"/></filter><filter id="c" color-interpolation-filters="sRGB" height="1.329215" width="1.203339" x="-.101669" y="-.164608"><feGaussianBlur stdDeviation="1.2730718"/></filter><filter id="d" color-interpolation-filters="sRGB" height="1.211246" width="1.211246" x="-.105623" y="-.105623"><feGaussianBlur stdDeviation="3.0476689"/></filter><filter id="e" color-interpolation-filters="sRGB" height="1.098093" width="1.10109" x="-.031104" y="-.030182"><feFlood flood-opacity=".498039" result="flood"/><feComposite in="flood" in2="SourceGraphic" operator="in" result="composite1"/><feGaussianBlur in="composite1" result="blur" stdDeviation="1.5"/><feOffset dx="4.5" dy="4.5" result="offset"/><feComposite in="SourceGraphic" in2="offset" operator="over" result="composite2"/></filter><filter id="f" color-interpolation-filters="sRGB" height="1.022969" width="1.030529" x="-.015264" y="-.011485"><feGaussianBlur stdDeviation=".21257301"/></filter><g><g transform="matrix(.68586115 0 0 .68586115 -231.77377 9.230463)"><g filter="url(#e)" transform="translate(216.73288 159.42387)"><ellipse cx="188.26712" cy="-105.81311" fill="url(#a)" rx="57.869461" ry="59.637218"/><ellipse cx="188.26712" cy="-116.5965" rx="42.80352" ry="42.449966" style="opacity:.825726;fill:#fecb8b;stroke:#85391b;stroke-width:3;stroke-linecap:round;stroke-linejoin:round"/></g><g filter="url(#b)" opacity=".288382" transform="translate(56.926756 154.47412)"><ellipse cx="348.07324" cy="-100.86336" fill="#fecb8b" opacity="1" rx="57.869461" ry="59.637218"/></g><path d="m363.1022 76.23295s7.02475 11.74977 12.9047 14.84925c4.48776 2.36562 17.14735 3.7123 17.14735 3.7123-11.1995-3.41404-23.09518-10.90487-30.05205-18.56155z" fill="#f7ce8d" filter="url(#c)"/><circle cx="-402.375" cy="-180.875" fill="#efd49c" filter="url(#d)" opacity=".321577" r="34.625" transform="matrix(1.1102782 0 0 1.1102782 850.68122 243.85686)"/></g><g fill="#85391b" filter="url(#f)" transform="matrix(.92942525 0 0 .92942525 3.250016 -4.489079)"><path d="m46.328125 22.949219c-4.105245 5.498526-6.524917 9.533716-8.583984 14.128906 6.016402-1.260693 11.794856-1.72996 16.914062 0-1.651053-3.325056-4.283288-7.635341-8.330078-14.128906zm-.205078 14.291015c-.837962.01796-1.607356.09315-2.304688.15625.802014 6.599384-2.231408 10.712579-7.064453 14.208985-3.204124 1.496981-4.715822 3.350498-4.658203 6.949219 7.568224 2.391474 19.393111 1.707096 27.945313-.08594-.0014-2.846129-1.275696-6.963941-4.460938-7.416016-6.315484-3.70229-6.670755-7.494652-6.742187-13.628906-.970831-.163443-1.876882-.20155-2.714844-.183594z" fill="#85391b" transform="matrix(1.19593840085 0 0 1.19593838713 -9.09781949371 -5.40668135572)"/></g></g></svg>