<?xml version="1.0" encoding="UTF-8" standalone="no"?>
<svg
   width="92"
   height="92"
   id="svg2"
   version="1.1"
   inkscape:version="1.2 (dc2aedaf03, 2022-05-15)"
   sodipodi:docname="red_horse.svg"
   inkscape:export-filename="D:\Pictures\Chess Variants\Xiangqi\pieces\Internationalized\Wood\Red Cannon.png"
   inkscape:export-xdpi="365.15302"
   inkscape:export-ydpi="365.15302"
   xml:space="preserve"
   xmlns:inkscape="http://www.inkscape.org/namespaces/inkscape"
   xmlns:sodipodi="http://sodipodi.sourceforge.net/DTD/sodipodi-0.dtd"
   xmlns:xlink="http://www.w3.org/1999/xlink"
   xmlns="http://www.w3.org/2000/svg"
   xmlns:svg="http://www.w3.org/2000/svg"
   xmlns:rdf="http://www.w3.org/1999/02/22-rdf-syntax-ns#"
   xmlns:cc="http://creativecommons.org/ns#"
   xmlns:dc="http://purl.org/dc/elements/1.1/"><metadata
     id="metadata12"><rdf:RDF><cc:Work
         rdf:about=""><dc:format>image/svg+xml</dc:format><dc:type
           rdf:resource="http://purl.org/dc/dcmitype/StillImage" /></cc:Work></rdf:RDF></metadata><defs
     id="defs10"><radialGradient
       inkscape:collect="always"
       xlink:href="#linearGradient22489"
       id="radialGradient22491"
       cx="-638.67987"
       cy="63.566608"
       fx="-638.67987"
       fy="63.566608"
       r="57.869461"
       gradientTransform="matrix(1.0751961,0.02369973,-0.02469788,1.1204806,875.45216,-171.12662)"
       gradientUnits="userSpaceOnUse" /><linearGradient
       inkscape:collect="always"
       id="linearGradient22489"><stop
         style="stop-color:#f8d7a6;stop-opacity:1"
         offset="0"
         id="stop22485" /><stop
         style="stop-color:#fac886;stop-opacity:1"
         offset="0.76315546"
         id="stop40210" /><stop
         style="stop-color:#dfa35b;stop-opacity:1"
         offset="0.89982331"
         id="stop26749" /><stop
         style="stop-color:#a17e53;stop-opacity:1"
         offset="1"
         id="stop22487" /></linearGradient><filter
       inkscape:label="Tiger Fur"
       inkscape:menu="Overlays"
       inkscape:menu-tooltip="Tiger fur pattern with folds and bevel around the edges"
       height="1.4024332"
       y="-0.20121661"
       width="1.4147265"
       x="-0.20736324"
       style="color-interpolation-filters:sRGB"
       id="filter77257"><feTurbulence
         type="turbulence"
         result="result0"
         seed="57"
         numOctaves="2"
         baseFrequency="0.1 0.015"
         id="feTurbulence77241" /><feComposite
         result="result1"
         operator="over"
         in2="result0"
         in="result0"
         id="feComposite77243" /><feComposite
         result="fbSourceGraphic"
         in="SourceGraphic"
         operator="arithmetic"
         in2="result1"
         k1="1"
         id="feComposite77245"
         k2="0"
         k3="0"
         k4="0" /><feGaussianBlur
         stdDeviation="9.9999995"
         result="result8"
         in="fbSourceGraphic"
         id="feGaussianBlur77247" /><feComposite
         in2="result8"
         result="result6"
         operator="xor"
         in="result8"
         id="feComposite77249" /><feDisplacementMap
         xChannelSelector="A"
         yChannelSelector="A"
         scale="100"
         result="result4"
         in="result1"
         in2="result6"
         id="feDisplacementMap77251" /><feComposite
         in2="result4"
         result="result2"
         operator="arithmetic"
         k1="1"
         in="SourceGraphic"
         id="feComposite77253"
         k2="0"
         k3="0"
         k4="0" /><feComposite
         operator="out"
         in="SourceGraphic"
         in2="result2"
         id="feComposite77255" /></filter><filter
       inkscape:collect="always"
       style="color-interpolation-filters:sRGB"
       id="filter82197"
       x="-0.10166934"
       y="-0.1646076"
       width="1.2033387"
       height="1.3292152"><feGaussianBlur
         inkscape:collect="always"
         stdDeviation="1.2730718"
         id="feGaussianBlur82199" /></filter><filter
       inkscape:collect="always"
       style="color-interpolation-filters:sRGB"
       id="filter87124"
       x="-0.10562318"
       y="-0.10562318"
       width="1.2112464"
       height="1.2112464"><feGaussianBlur
         inkscape:collect="always"
         stdDeviation="3.0476689"
         id="feGaussianBlur87126" /></filter><filter
       style="color-interpolation-filters:sRGB;"
       inkscape:label="Drop Shadow"
       id="filter156792"
       x="-0.031104489"
       y="-0.030182494"
       width="1.1010896"
       height="1.0980931"><feFlood
         flood-opacity="0.498039"
         flood-color="rgb(0,0,0)"
         result="flood"
         id="feFlood156782" /><feComposite
         in="flood"
         in2="SourceGraphic"
         operator="in"
         result="composite1"
         id="feComposite156784" /><feGaussianBlur
         in="composite1"
         stdDeviation="1.5"
         result="blur"
         id="feGaussianBlur156786" /><feOffset
         dx="4.5"
         dy="4.5"
         result="offset"
         id="feOffset156788" /><feComposite
         in="SourceGraphic"
         in2="offset"
         operator="over"
         result="composite2"
         id="feComposite156790" /></filter><filter
       inkscape:collect="always"
       style="color-interpolation-filters:sRGB"
       id="filter72274"
       x="-0.012551732"
       y="-0.010780827"
       width="1.0251035"
       height="1.0215617"><feGaussianBlur
         inkscape:collect="always"
         stdDeviation="0.14140148"
         id="feGaussianBlur72276" /></filter></defs><sodipodi:namedview
     pagecolor="#ffffff"
     bordercolor="#666666"
     borderopacity="1"
     objecttolerance="10"
     gridtolerance="10"
     guidetolerance="10"
     inkscape:pageopacity="0"
     inkscape:pageshadow="2"
     inkscape:window-width="3840"
     inkscape:window-height="2050"
     id="namedview8"
     showgrid="false"
     inkscape:zoom="2.8284271"
     inkscape:cx="-194.80792"
     inkscape:cy="33.410796"
     inkscape:window-x="3828"
     inkscape:window-y="-12"
     inkscape:window-maximized="1"
     inkscape:current-layer="layer2"
     fit-margin-top="0"
     fit-margin-left="0"
     fit-margin-right="0"
     fit-margin-bottom="0"
     inkscape:pagecheckerboard="false"
     showguides="false"
     inkscape:showpageshadow="2"
     inkscape:deskcolor="#d1d1d1" /><g
     inkscape:groupmode="layer"
     id="layer1"
     inkscape:label="Background"
     style="display:inline" /><g
     inkscape:groupmode="layer"
     id="layer2"
     inkscape:label="Symbol"
     style="display:inline"><g
       id="g156600"
       transform="matrix(0.68586115,0,0,0.68586115,-231.77377,9.2304632)"><g
         id="g38345"
         transform="translate(216.73288,159.42387)"
         style="display:inline;filter:url(#filter156792)"><ellipse
           style="opacity:1;fill:url(#radialGradient22491);fill-opacity:1;stroke:none;stroke-width:1.94393;stroke-linecap:round;stroke-linejoin:round;paint-order:stroke fill markers"
           id="path1193"
           cx="188.26712"
           cy="-105.81311"
           rx="57.869461"
           ry="59.637218" /><ellipse
           style="opacity:0.825726;fill:#fecb8b;fill-opacity:1;stroke:#85391b;stroke-width:3;stroke-linecap:round;stroke-linejoin:round;stroke-dasharray:none;stroke-opacity:1;paint-order:markers fill stroke"
           id="path1750"
           cx="188.26712"
           cy="-116.5965"
           rx="42.80352"
           ry="42.449966" /></g><g
         id="g55586"
         transform="translate(56.926756,154.47412)"
         style="display:inline;opacity:0.288382;mix-blend-mode:multiply;filter:url(#filter77257)"><ellipse
           style="opacity:1;fill:#fecb8b;fill-opacity:1;stroke:none;stroke-width:1.94393;stroke-linecap:round;stroke-linejoin:round;paint-order:stroke fill markers"
           id="ellipse55582"
           cx="348.07324"
           cy="-100.86336"
           rx="57.869461"
           ry="59.637218" /></g><path
         style="display:inline;mix-blend-mode:normal;fill:#f7ce8d;fill-opacity:1;stroke:none;stroke-width:1px;stroke-linecap:butt;stroke-linejoin:miter;stroke-opacity:1;filter:url(#filter82197)"
         d="m 363.1022,76.23295 c 0,0 7.02475,11.74977 12.9047,14.84925 4.48776,2.36562 17.14735,3.7123 17.14735,3.7123 -11.1995,-3.41404 -23.09518,-10.90487 -30.05205,-18.56155 z"
         id="path78765"
         sodipodi:nodetypes="cscc" /><circle
         style="display:inline;opacity:0.321577;mix-blend-mode:normal;fill:#efd49c;fill-opacity:1;stroke:none;stroke-width:3;stroke-linecap:round;stroke-linejoin:round;stroke-dasharray:none;stroke-opacity:1;paint-order:markers fill stroke;filter:url(#filter87124)"
         id="path84638"
         cx="-402.375"
         cy="-180.875"
         r="34.625"
         transform="matrix(1.1102782,0,0,1.1102782,850.68122,243.85686)" /></g><g
       style="display:inline;fill:#85391b;fill-opacity:1;filter:url(#filter72274)"
       id="g72352"
       transform="matrix(1.3972323,0,0,1.3972323,71.435986,-39.630312)"><path
         transform="matrix(0.65172318,0,0,0.65172318,-48.46171,29.067301)"
         d="m 41.119141,17.173828 c -0.877281,2.130268 -2.132735,4.574927 -1.613282,6.433594 -0.990512,-0.463415 -1.982143,0.301276 -2.972656,0.779297 -6.402146,10.625764 -5.940556,10.039686 -11.884765,14.888672 -0.633307,1.66405 -1.016854,3.011198 0.08984,5.49414 0.511466,0.675447 2.711738,1.721091 4.609375,2.119141 1.268614,-0.901305 2.396319,-1.944402 3.259766,-3.087891 l 1.138672,0.859375 c -0.976014,1.292563 -2.233494,2.47668 -3.675782,3.482422 -0.0463,0.07584 -0.105397,0.172548 -0.109374,0.228516 0.888153,0.900466 1.302879,0.540407 2.25,0.810547 2.529064,-2.717881 5.004332,-5.107454 7.294921,-6.394532 3.001551,-1.504327 6.002356,-0.865181 9.003907,-1.080078 2.23457,0.33304 3.665751,-1.24354 3.80664,-1.261719 -1.079292,1.699473 -1.85782,3.741887 -4.796875,5.673829 -1.813024,-0.436793 -2.828325,-0.275668 -3.691406,0 -6.492373,4.955559 -8.851654,13.805031 -8.824219,17.378906 8.759213,3.422899 17.958611,1.776231 27.19336,-0.269531 -2.453496,-1.891951 -2.38391,-4.098834 -3.060547,-6.212891 -0.603615,-5.168328 0.592245,-5.265368 1.349609,-10.085937 0.53601,-9.615521 -0.664599,-17.82746 -8.478516,-22.910157 -1.405489,-0.617432 -4.267283,-0.530648 -5.75,-0.453125 0.01245,-0.285336 0.0059,-0.561893 -0.01367,-0.832031 0.905188,-0.102804 2.143381,-0.356078 2.800781,-0.294922 12.047465,2.870431 12.995517,13.224664 12.716797,24.253906 -1.740748,7.527807 -3.453711,13.226107 3.263672,15.183594 0.199485,-2.446338 -1.206674,-5.249528 -0.634766,-8.462891 2.667826,-14.989634 2.18794,-36.828817 -19.318359,-34.998046 -0.11342,-0.336583 -0.231037,-0.670215 -0.324219,-1.021485 -0.01031,-0.01005 -1.571839,2.249 -1.802735,3.570313 -0.335114,-1.416464 -1.123396,-2.373137 -1.826171,-3.791016 z m 0.169921,11.740234 c 0.317042,-0.0099 0.659579,-0.0084 1.033204,0.0039 l -0.02539,0.767578 -0.02539,0.767578 c -0.344101,-0.01135 -0.652555,-0.01183 -0.929687,-0.002 l -0.402344,0.322266 a 1.4858844,1.5549473 0 0 1 0.0332,0.03711 1.4858844,1.5549473 0 0 1 0.06836,0.08008 1.4858844,1.5549473 0 0 1 0.06055,0.08398 1.4858844,1.5549473 0 0 1 0.05664,0.08789 1.4858844,1.5549473 0 0 1 0.04883,0.09375 1.4858844,1.5549473 0 0 1 0.04297,0.09375 1.4858844,1.5549473 0 0 1 0.03906,0.09961 1.4858844,1.5549473 0 0 1 0.0293,0.101563 1.4858844,1.5549473 0 0 1 0.02539,0.101562 1.4858844,1.5549473 0 0 1 0.01758,0.105469 1.4858844,1.5549473 0 0 1 0.0098,0.105469 1.4858844,1.5549473 0 0 1 0.0039,0.105469 1.4858844,1.5549473 0 0 1 0,0.0039 1.4858844,1.5549473 0 0 1 -0.0039,0.105469 1.4858844,1.5549473 0 0 1 -0.0098,0.105468 1.4858844,1.5549473 0 0 1 -0.01758,0.105469 1.4858844,1.5549473 0 0 1 -0.02539,0.101563 1.4858844,1.5549473 0 0 1 -0.0293,0.101562 1.4858844,1.5549473 0 0 1 -0.03906,0.09961 1.4858844,1.5549473 0 0 1 -0.04297,0.0957 1.4858844,1.5549473 0 0 1 -0.05078,0.0918 1.4858844,1.5549473 0 0 1 -0.05469,0.08789 1.4858844,1.5549473 0 0 1 -0.06055,0.08398 1.4858844,1.5549473 0 0 1 -0.06836,0.08008 1.4858844,1.5549473 0 0 1 -0.07031,0.07617 1.4858844,1.5549473 0 0 1 -0.07617,0.06836 1.4858844,1.5549473 0 0 1 -0.08203,0.06445 1.4858844,1.5549473 0 0 1 -0.08398,0.05859 1.4858844,1.5549473 0 0 1 -0.08789,0.05078 1.4858844,1.5549473 0 0 1 -0.0918,0.04492 1.4858844,1.5549473 0 0 1 -0.0957,0.03906 1.4858844,1.5549473 0 0 1 -0.0957,0.0332 1.4858844,1.5549473 0 0 1 -0.09766,0.02344 1.4858844,1.5549473 0 0 1 -0.101562,0.01953 1.4858844,1.5549473 0 0 1 -0.09961,0.0098 1.4858844,1.5549473 0 0 1 -0.101562,0.0039 1.4858844,1.5549473 0 0 1 -0.02734,0 1.4858844,1.5549473 0 0 1 -0.101562,-0.0059 1.4858844,1.5549473 0 0 1 -0.101563,-0.01367 1.4858844,1.5549473 0 0 1 -0.09961,-0.01953 1.4858844,1.5549473 0 0 1 -0.09766,-0.02734 1.4858844,1.5549473 0 0 1 -0.0957,-0.0332 1.4858844,1.5549473 0 0 1 -0.09375,-0.04102 1.4858844,1.5549473 0 0 1 -0.08984,-0.04687 1.4858844,1.5549473 0 0 1 -0.08789,-0.05273 1.4858844,1.5549473 0 0 1 -0.08398,-0.06055 1.4858844,1.5549473 0 0 1 -0.07813,-0.06641 1.4858844,1.5549473 0 0 1 -0.07617,-0.07031 1.4858844,1.5549473 0 0 1 -0.07031,-0.07617 c -0.126513,0.414961 -0.354721,0.858666 -0.78125,1.201172 l -0.478515,-0.597656 -0.480469,-0.59961 c 0.214448,-0.172205 0.273778,-0.337567 0.333984,-0.693359 0.0602,-0.355792 0.05778,-0.853556 0.248047,-1.417969 0.19027,-0.564413 0.663692,-1.164464 1.425781,-1.486328 0.571567,-0.241397 1.28521,-0.372609 2.236328,-0.402344 z"
         style="fill:#85391b;fill-opacity:1;stroke:none;stroke-width:0.306499;stroke-linecap:butt;stroke-linejoin:miter;stroke-miterlimit:4;stroke-dasharray:none;stroke-opacity:1"
         id="path72348" /><g
         style="opacity:1;fill:#85391b;fill-opacity:1"
         id="g72350" /></g></g></svg>
