<svg height="92" width="92" xmlns="http://www.w3.org/2000/svg" xmlns:xlink="http://www.w3.org/1999/xlink"><radialGradient id="a" cx="-638.67987" cy="63.566608" gradientTransform="matrix(1.0751961 .02369973 -.02469788 1.1204806 875.45216 -171.12662)" gradientUnits="userSpaceOnUse" r="57.869461"><stop offset="0" stop-color="#f8d7a6"/><stop offset=".76315546" stop-color="#fac886"/><stop offset=".89982331" stop-color="#dfa35b"/><stop offset="1" stop-color="#a17e53"/></radialGradient><filter id="b" color-interpolation-filters="sRGB" height="1.402433" width="1.414727" x="-.207363" y="-.201217"><feTurbulence baseFrequency=".1 .015" numOctaves="2" result="result0" seed="57" type="turbulence"/><feComposite in="result0" in2="result0" operator="over" result="result1"/><feComposite in="SourceGraphic" in2="result1" k1="1" k2="0" k3="0" k4="0" operator="arithmetic" result="fbSourceGraphic"/><feGaussianBlur in="fbSourceGraphic" result="result8" stdDeviation="9.9999995"/><feComposite in="result8" in2="result8" operator="xor" result="result6"/><feDisplacementMap in="result1" in2="result6" result="result4" scale="100" xChannelSelector="A" yChannelSelector="A"/><feComposite in="SourceGraphic" in2="result4" k1="1" k2="0" k3="0" k4="0" operator="arithmetic" result="result2"/><feComposite in="SourceGraphic" in2="result2" operator="out"/></filter><filter id="c" color-interpolation-filters="sRGB" height="1.329215" width="1.203339" x="-.101669" y="-.164608"><feGaussianBlur stdDeviation="1.2730718"/></filter><filter id="d" color-interpolation-filters="sRGB" height="1.211246" width="1.211246" x="-.105623" y="-.105623"><feGaussianBlur stdDeviation="3.0476689"/></filter><filter id="e" color-interpolation-filters="sRGB" height="1.098093" width="1.10109" x="-.031104" y="-.030182"><feFlood flood-opacity=".498039" result="flood"/><feComposite in="flood" in2="SourceGraphic" operator="in" result="composite1"/><feGaussianBlur in="composite1" result="blur" stdDeviation="1.5"/><feOffset dx="4.5" dy="4.5" result="offset"/><feComposite in="SourceGraphic" in2="offset" operator="over" result="composite2"/></filter><filter id="f" color-interpolation-filters="sRGB" height="1.025913" width="1.021562" x="-.010781" y="-.012957"><feGaussianBlur stdDeviation=".18423594"/></filter><filter id="g" color-interpolation-filters="sRGB" height="1.028996" width="1.021179" x="-.01059" y="-.014498"><feGaussianBlur stdDeviation=".19757072"/></filter><g><g transform="matrix(.68586115 0 0 .68586115 -231.77377 9.230463)"><g filter="url(#e)" transform="translate(216.73288 159.42387)"><ellipse cx="188.26712" cy="-105.81311" fill="url(#a)" rx="57.869461" ry="59.637218"/><ellipse cx="188.26712" cy="-116.5965" rx="42.80352" ry="42.449966" style="opacity:.825726;fill:#fecb8b;stroke:#85391b;stroke-width:3;stroke-linecap:round;stroke-linejoin:round"/></g><g filter="url(#b)" opacity=".288382" transform="translate(56.926756 154.47412)"><ellipse cx="348.07324" cy="-100.86336" fill="#fecb8b" opacity="1" rx="57.869461" ry="59.637218"/></g><path d="m363.1022 76.23295s7.02475 11.74977 12.9047 14.84925c4.48776 2.36562 17.14735 3.7123 17.14735 3.7123-11.1995-3.41404-23.09518-10.90487-30.05205-18.56155z" fill="#f7ce8d" filter="url(#c)"/><circle cx="-402.375" cy="-180.875" fill="#efd49c" filter="url(#d)" opacity=".321577" r="34.625" transform="matrix(1.1102782 0 0 1.1102782 850.68122 243.85686)"/></g><g fill="#85391b" filter="url(#f)" transform="matrix(1.0723788 0 0 1.0723788 -45.181615 .87567)"><path d="m176.25175 182.9375c-.87278.77256-1.44949 1.66833-1.96884 2.58777-.38372 1.07718-1.00162 2.05738-1.11336 3.24759 3.73422 1.95183 8.22581 3.83928 13.48305 6.40272.41022-.086.99869-.14166 1.42639-.17963.26596-.0235.53159-.0374.79856-.0409 1.39774-.0192 2.7411.23285 3.9768.70785 1.23569.47501 2.36363 1.17388 3.33296 2.04887.96934.87499 1.77925 1.92631 2.3779 3.1071.59866 1.18078.98615 2.49015 1.10981 3.88253.0335.37731.0662.7125.0605 1.08313l2.47394.26678c6.15871 8.534 9.5462 9.24306 15.73646 6.22309-4.68623-1.45407-7.86803-4.9645-10.68187-8.91046.39726-.29548.77556-.66609 1.12225-1.10802.13129.0945.27979.16811.43752.21698.68331.21323 1.38206-.0772 1.56156-.64916.17947-.57286-.22991-1.21083-.91417-1.4246-.0219-.006-.0437-.0124-.0658-.0178 1.25638-3.24147-1.10269-5.6166-1.10269-5.6166zm12.63647 12.71473c-.2496.004-.50011.0154-.74877.0373-1.37588.12213-2.66112.51645-3.80783 1.12582s-2.15486 1.43451-2.97549 2.41524c-.82062.98074-1.45381 2.11808-1.85145 3.35432s-.55976 2.57068-.43752 3.94656c.12213 1.37589.51644 2.66113 1.12581 3.80784s1.43451 2.15486 2.41525 2.97548 2.11807 1.45382 3.35431 1.85145c1.23625.39765 2.57069.55977 3.94656.43752 1.3759-.12213 2.66114-.51644 3.80784-1.12581 1.14671-.60937 2.15487-1.4345 2.97549-2.41524.82062-.98075 1.45381-2.11807 1.85145-3.35431.39764-1.23625.55977-2.57069.43752-3.94657-.11575-1.30336-.47781-2.52953-1.03688-3.63354-.55908-1.10401-1.31577-2.08521-2.22139-2.90257-.90562-.81735-1.95884-1.47033-3.11421-1.91369-1.15538-.44338-2.41233-.67778-3.72069-.65984zm-.72386 2.89723-.0213 5.15596-3.53928-3.66555c.50185-.39874 1.05597-.73558 1.65403-.98887.5978-.25316 1.23914-.42045 1.90659-.50154zm1.77675.009c.64608.084 1.26777.24697 1.8479.49266.63957.27087 1.23234.63268 1.76074 1.0689l-3.62821 3.51438zm-6.57879 2.75495 3.49838 3.62287-4.9141-.0142c.0702-.73231.24896-1.43341.52467-2.08444.23188-.5475.53639-1.05632.89105-1.5242zm11.40039.10494c.32044.43926.59816.91248.81279 1.41926.28035.66198.45892 1.37607.52644 2.1218l-4.98522-.0125zm-12.75741 5.28224 4.73267.0125-3.3383 3.22981c-.37198-.48059-.69013-1.00511-.93018-1.57222-.22281-.52638-.37389-1.08814-.46419-1.67003zm9.0545.0231 4.97634.0142c-.0913.56848-.24082 1.11758-.45886 1.6327-.28574.67504-.67768 1.29299-1.14715 1.84256zm-2.93279 1.11514-.0196 4.81271c-.64777-.0839-1.27027-.24825-1.85145-.49443-.57932-.24539-1.11539-.57067-1.60424-.9533zm1.77675.249 3.21203 3.32585c-.41251.29158-.85419.544-1.32501.74343-.59725.25298-1.2376.42037-1.90481.50154z" fill="#85391b" filter="url(#g)" transform="matrix(.93250631 0 0 .93250631 -96.34232 -150.31933)"/></g></g></svg>