<?xml version="1.0" encoding="UTF-8" standalone="no"?>
<svg
   width="92"
   height="92"
   id="svg2"
   version="1.1"
   inkscape:version="1.2 (dc2aedaf03, 2022-05-15)"
   sodipodi:docname="red_cannon.svg"
   inkscape:export-filename="D:\Pictures\Chess Variants\Xiangqi\pieces\Internationalized\Wood\Red Cannon.png"
   inkscape:export-xdpi="365.15302"
   inkscape:export-ydpi="365.15302"
   xml:space="preserve"
   xmlns:inkscape="http://www.inkscape.org/namespaces/inkscape"
   xmlns:sodipodi="http://sodipodi.sourceforge.net/DTD/sodipodi-0.dtd"
   xmlns:xlink="http://www.w3.org/1999/xlink"
   xmlns="http://www.w3.org/2000/svg"
   xmlns:svg="http://www.w3.org/2000/svg"
   xmlns:rdf="http://www.w3.org/1999/02/22-rdf-syntax-ns#"
   xmlns:cc="http://creativecommons.org/ns#"
   xmlns:dc="http://purl.org/dc/elements/1.1/"><metadata
     id="metadata12"><rdf:RDF><cc:Work
         rdf:about=""><dc:format>image/svg+xml</dc:format><dc:type
           rdf:resource="http://purl.org/dc/dcmitype/StillImage" /></cc:Work></rdf:RDF></metadata><defs
     id="defs10"><radialGradient
       inkscape:collect="always"
       xlink:href="#linearGradient22489"
       id="radialGradient22491"
       cx="-638.67987"
       cy="63.566608"
       fx="-638.67987"
       fy="63.566608"
       r="57.869461"
       gradientTransform="matrix(1.0751961,0.02369973,-0.02469788,1.1204806,875.45216,-171.12662)"
       gradientUnits="userSpaceOnUse" /><linearGradient
       inkscape:collect="always"
       id="linearGradient22489"><stop
         style="stop-color:#f8d7a6;stop-opacity:1"
         offset="0"
         id="stop22485" /><stop
         style="stop-color:#fac886;stop-opacity:1"
         offset="0.76315546"
         id="stop40210" /><stop
         style="stop-color:#dfa35b;stop-opacity:1"
         offset="0.89982331"
         id="stop26749" /><stop
         style="stop-color:#a17e53;stop-opacity:1"
         offset="1"
         id="stop22487" /></linearGradient><filter
       inkscape:label="Tiger Fur"
       inkscape:menu="Overlays"
       inkscape:menu-tooltip="Tiger fur pattern with folds and bevel around the edges"
       height="1.4024332"
       y="-0.20121661"
       width="1.4147265"
       x="-0.20736324"
       style="color-interpolation-filters:sRGB"
       id="filter77257"><feTurbulence
         type="turbulence"
         result="result0"
         seed="57"
         numOctaves="2"
         baseFrequency="0.1 0.015"
         id="feTurbulence77241" /><feComposite
         result="result1"
         operator="over"
         in2="result0"
         in="result0"
         id="feComposite77243" /><feComposite
         result="fbSourceGraphic"
         in="SourceGraphic"
         operator="arithmetic"
         in2="result1"
         k1="1"
         id="feComposite77245"
         k2="0"
         k3="0"
         k4="0" /><feGaussianBlur
         stdDeviation="9.9999995"
         result="result8"
         in="fbSourceGraphic"
         id="feGaussianBlur77247" /><feComposite
         in2="result8"
         result="result6"
         operator="xor"
         in="result8"
         id="feComposite77249" /><feDisplacementMap
         xChannelSelector="A"
         yChannelSelector="A"
         scale="100"
         result="result4"
         in="result1"
         in2="result6"
         id="feDisplacementMap77251" /><feComposite
         in2="result4"
         result="result2"
         operator="arithmetic"
         k1="1"
         in="SourceGraphic"
         id="feComposite77253"
         k2="0"
         k3="0"
         k4="0" /><feComposite
         operator="out"
         in="SourceGraphic"
         in2="result2"
         id="feComposite77255" /></filter><filter
       inkscape:collect="always"
       style="color-interpolation-filters:sRGB"
       id="filter82197"
       x="-0.10166934"
       y="-0.1646076"
       width="1.2033387"
       height="1.3292152"><feGaussianBlur
         inkscape:collect="always"
         stdDeviation="1.2730718"
         id="feGaussianBlur82199" /></filter><filter
       inkscape:collect="always"
       style="color-interpolation-filters:sRGB"
       id="filter87124"
       x="-0.10562318"
       y="-0.10562318"
       width="1.2112464"
       height="1.2112464"><feGaussianBlur
         inkscape:collect="always"
         stdDeviation="3.0476689"
         id="feGaussianBlur87126" /></filter><filter
       style="color-interpolation-filters:sRGB;"
       inkscape:label="Drop Shadow"
       id="filter156792"
       x="-0.031104489"
       y="-0.030182494"
       width="1.1010896"
       height="1.0980931"><feFlood
         flood-opacity="0.498039"
         flood-color="rgb(0,0,0)"
         result="flood"
         id="feFlood156782" /><feComposite
         in="flood"
         in2="SourceGraphic"
         operator="in"
         result="composite1"
         id="feComposite156784" /><feGaussianBlur
         in="composite1"
         stdDeviation="1.5"
         result="blur"
         id="feGaussianBlur156786" /><feOffset
         dx="4.5"
         dy="4.5"
         result="offset"
         id="feOffset156788" /><feComposite
         in="SourceGraphic"
         in2="offset"
         operator="over"
         result="composite2"
         id="feComposite156790" /></filter><filter
       inkscape:collect="always"
       style="color-interpolation-filters:sRGB"
       id="filter72250"
       x="-0.010780919"
       y="-0.012956541"
       width="1.0215618"
       height="1.0259131"><feGaussianBlur
         inkscape:collect="always"
         stdDeviation="0.18423594"
         id="feGaussianBlur72252" /></filter><filter
       inkscape:collect="always"
       style="color-interpolation-filters:sRGB"
       id="filter72266"
       x="-0.010589732"
       y="-0.014497866"
       width="1.0211795"
       height="1.0289957"><feGaussianBlur
         inkscape:collect="always"
         stdDeviation="0.19757072"
         id="feGaussianBlur72268" /></filter></defs><sodipodi:namedview
     pagecolor="#ffffff"
     bordercolor="#666666"
     borderopacity="1"
     objecttolerance="10"
     gridtolerance="10"
     guidetolerance="10"
     inkscape:pageopacity="0"
     inkscape:pageshadow="2"
     inkscape:window-width="3840"
     inkscape:window-height="2050"
     id="namedview8"
     showgrid="false"
     inkscape:zoom="2.8284271"
     inkscape:cx="-171.4734"
     inkscape:cy="27.753941"
     inkscape:window-x="3828"
     inkscape:window-y="-12"
     inkscape:window-maximized="1"
     inkscape:current-layer="g72282"
     fit-margin-top="0"
     fit-margin-left="0"
     fit-margin-right="0"
     fit-margin-bottom="0"
     inkscape:pagecheckerboard="false"
     showguides="false"
     inkscape:showpageshadow="2"
     inkscape:deskcolor="#d1d1d1" /><g
     inkscape:groupmode="layer"
     id="layer1"
     inkscape:label="Background"
     style="display:inline" /><g
     inkscape:groupmode="layer"
     id="layer2"
     inkscape:label="Symbol"
     style="display:inline"><g
       id="g156600"
       transform="matrix(0.68586115,0,0,0.68586115,-231.77377,9.2304632)"><g
         id="g38345"
         transform="translate(216.73288,159.42387)"
         style="display:inline;filter:url(#filter156792)"><ellipse
           style="opacity:1;fill:url(#radialGradient22491);fill-opacity:1;stroke:none;stroke-width:1.94393;stroke-linecap:round;stroke-linejoin:round;paint-order:stroke fill markers"
           id="path1193"
           cx="188.26712"
           cy="-105.81311"
           rx="57.869461"
           ry="59.637218" /><ellipse
           style="opacity:0.825726;fill:#fecb8b;fill-opacity:1;stroke:#85391b;stroke-width:3;stroke-linecap:round;stroke-linejoin:round;stroke-dasharray:none;stroke-opacity:1;paint-order:markers fill stroke"
           id="path1750"
           cx="188.26712"
           cy="-116.5965"
           rx="42.80352"
           ry="42.449966" /></g><g
         id="g55586"
         transform="translate(56.926756,154.47412)"
         style="display:inline;opacity:0.288382;mix-blend-mode:multiply;filter:url(#filter77257)"><ellipse
           style="opacity:1;fill:#fecb8b;fill-opacity:1;stroke:none;stroke-width:1.94393;stroke-linecap:round;stroke-linejoin:round;paint-order:stroke fill markers"
           id="ellipse55582"
           cx="348.07324"
           cy="-100.86336"
           rx="57.869461"
           ry="59.637218" /></g><path
         style="display:inline;mix-blend-mode:normal;fill:#f7ce8d;fill-opacity:1;stroke:none;stroke-width:1px;stroke-linecap:butt;stroke-linejoin:miter;stroke-opacity:1;filter:url(#filter82197)"
         d="m 363.1022,76.23295 c 0,0 7.02475,11.74977 12.9047,14.84925 4.48776,2.36562 17.14735,3.7123 17.14735,3.7123 -11.1995,-3.41404 -23.09518,-10.90487 -30.05205,-18.56155 z"
         id="path78765"
         sodipodi:nodetypes="cscc" /><circle
         style="display:inline;opacity:0.321577;mix-blend-mode:normal;fill:#efd49c;fill-opacity:1;stroke:none;stroke-width:3;stroke-linecap:round;stroke-linejoin:round;stroke-dasharray:none;stroke-opacity:1;paint-order:markers fill stroke;filter:url(#filter87124)"
         id="path84638"
         cx="-402.375"
         cy="-180.875"
         r="34.625"
         transform="matrix(1.1102782,0,0,1.1102782,850.68122,243.85686)" /></g><g
       transform="matrix(1.0723788,0,0,1.0723788,-45.181615,0.87566993)"
       id="g72282"
       style="display:inline;fill:#85391b;fill-opacity:1;filter:url(#filter72250)"><path
         d="m 176.25175,182.9375 c -0.87278,0.77256 -1.44949,1.66833 -1.96884,2.58777 -0.38372,1.07718 -1.00162,2.05738 -1.11336,3.24759 3.73422,1.95183 8.22581,3.83928 13.48305,6.40272 0.41022,-0.086 0.99869,-0.14166 1.42639,-0.17963 0.26596,-0.0235 0.53159,-0.0374 0.79856,-0.0409 1.39774,-0.0192 2.7411,0.23285 3.9768,0.70785 1.23569,0.47501 2.36363,1.17388 3.33296,2.04887 0.96934,0.87499 1.77925,1.92631 2.3779,3.1071 0.59866,1.18078 0.98615,2.49015 1.10981,3.88253 0.0335,0.37731 0.0662,0.7125 0.0605,1.08313 l 2.47394,0.26678 c 6.15871,8.534 9.5462,9.24306 15.73646,6.22309 -4.68623,-1.45407 -7.86803,-4.9645 -10.68187,-8.91046 0.39726,-0.29548 0.77556,-0.66609 1.12225,-1.10802 0.13129,0.0945 0.27979,0.16811 0.43752,0.21698 0.68331,0.21323 1.38206,-0.0772 1.56156,-0.64916 0.17947,-0.57286 -0.22991,-1.21083 -0.91417,-1.4246 -0.0219,-0.006 -0.0437,-0.0124 -0.0658,-0.0178 1.25638,-3.24147 -1.10269,-5.6166 -1.10269,-5.6166 z m 12.63647,12.71473 c -0.2496,0.004 -0.50011,0.0154 -0.74877,0.0373 -1.37588,0.12213 -2.66112,0.51645 -3.80783,1.12582 -1.14671,0.60937 -2.15486,1.43451 -2.97549,2.41524 -0.82062,0.98074 -1.45381,2.11808 -1.85145,3.35432 -0.39764,1.23624 -0.55976,2.57068 -0.43752,3.94656 0.12213,1.37589 0.51644,2.66113 1.12581,3.80784 0.60937,1.14671 1.43451,2.15486 2.41525,2.97548 0.98074,0.82062 2.11807,1.45382 3.35431,1.85145 1.23625,0.39765 2.57069,0.55977 3.94656,0.43752 1.3759,-0.12213 2.66114,-0.51644 3.80784,-1.12581 1.14671,-0.60937 2.15487,-1.4345 2.97549,-2.41524 0.82062,-0.98075 1.45381,-2.11807 1.85145,-3.35431 0.39764,-1.23625 0.55977,-2.57069 0.43752,-3.94657 -0.11575,-1.30336 -0.47781,-2.52953 -1.03688,-3.63354 -0.55908,-1.10401 -1.31577,-2.08521 -2.22139,-2.90257 -0.90562,-0.81735 -1.95884,-1.47033 -3.11421,-1.91369 -1.15538,-0.44338 -2.41233,-0.67778 -3.72069,-0.65984 z m -0.72386,2.89723 -0.0213,5.15596 -3.53928,-3.66555 c 0.50185,-0.39874 1.05597,-0.73558 1.65403,-0.98887 0.5978,-0.25316 1.23914,-0.42045 1.90659,-0.50154 z m 1.77675,0.009 c 0.64608,0.084 1.26777,0.24697 1.8479,0.49266 0.63957,0.27087 1.23234,0.63268 1.76074,1.0689 l -3.62821,3.51438 z m -6.57879,2.75495 3.49838,3.62287 -4.9141,-0.0142 c 0.0702,-0.73231 0.24896,-1.43341 0.52467,-2.08444 0.23188,-0.5475 0.53639,-1.05632 0.89105,-1.5242 z m 11.40039,0.10494 c 0.32044,0.43926 0.59816,0.91248 0.81279,1.41926 0.28035,0.66198 0.45892,1.37607 0.52644,2.1218 l -4.98522,-0.0125 z m -12.75741,5.28224 4.73267,0.0125 -3.3383,3.22981 c -0.37198,-0.48059 -0.69013,-1.00511 -0.93018,-1.57222 -0.22281,-0.52638 -0.37389,-1.08814 -0.46419,-1.67003 z m 9.0545,0.0231 4.97634,0.0142 c -0.0913,0.56848 -0.24082,1.11758 -0.45886,1.6327 -0.28574,0.67504 -0.67768,1.29299 -1.14715,1.84256 z m -2.93279,1.11514 -0.0196,4.81271 c -0.64777,-0.0839 -1.27027,-0.24825 -1.85145,-0.49443 -0.57932,-0.24539 -1.11539,-0.57067 -1.60424,-0.9533 z m 1.77675,0.249 3.21203,3.32585 c -0.41251,0.29158 -0.85419,0.544 -1.32501,0.74343 -0.59725,0.25298 -1.2376,0.42037 -1.90481,0.50154 z"
         style="display:inline;fill:#85391b;fill-opacity:1;stroke:none;stroke-width:0.851402;stroke-miterlimit:10;stroke-opacity:1;filter:url(#filter72266)"
         id="path72338"
         transform="matrix(0.93250631,0,0,0.93250631,-96.34232,-150.31933)" /></g></g></svg>
