<?xml version="1.0" encoding="UTF-8" standalone="no"?>
<svg
   width="498.898"
   height="544.252"
   viewBox="0 0 1320 1440"
   version="1.1"
   id="svg7566"
   sodipodi:docname="0_COPPER.svg"
   inkscape:version="1.2 (dc2aedaf03, 2022-05-15)"
   xmlns:inkscape="http://www.inkscape.org/namespaces/inkscape"
   xmlns:sodipodi="http://sodipodi.sourceforge.net/DTD/sodipodi-0.dtd"
   xmlns:xlink="http://www.w3.org/1999/xlink"
   xmlns="http://www.w3.org/2000/svg"
   xmlns:svg="http://www.w3.org/2000/svg">
  <sodipodi:namedview
     id="namedview7568"
     pagecolor="#ffffff"
     bordercolor="#666666"
     borderopacity="1.0"
     inkscape:showpageshadow="2"
     inkscape:pageopacity="0.0"
     inkscape:pagecheckerboard="0"
     inkscape:deskcolor="#d1d1d1"
     showgrid="false"
     inkscape:zoom="0.97506968"
     inkscape:cx="1.5383516"
     inkscape:cy="320.48992"
     inkscape:window-width="1916"
     inkscape:window-height="2022"
     inkscape:window-x="3830"
     inkscape:window-y="0"
     inkscape:window-maximized="0"
     inkscape:current-layer="svg7566" />
  <style
     id="style7473"><![CDATA[.B{color-interpolation-filters:sRGB}]]></style>
  <defs
     id="defs7520">
    <linearGradient
       id="A"
       x1="-1430.769"
       y1="-77.47"
       x2="-1409.955"
       y2="-77.47"
       spreadMethod="reflect"
       gradientUnits="userSpaceOnUse">
      <stop
         offset="0"
         stop-color="#ffd285"
         id="stop7475" />
      <stop
         offset=".232"
         stop-color="#ffcd79"
         id="stop7477" />
      <stop
         offset=".616"
         stop-color="#ffca73"
         id="stop7479" />
      <stop
         offset=".808"
         stop-color="#ffd386"
         id="stop7481" />
      <stop
         offset="1"
         stop-color="#ffc86e"
         id="stop7483" />
    </linearGradient>
    <linearGradient
       id="B"
       x1="-1215.571"
       y1="-296.329"
       x2="-1215.572"
       y2="165.415"
       gradientUnits="userSpaceOnUse">
      <stop
         offset=".601"
         stop-color="#fff"
         id="stop7486" />
      <stop
         offset="1"
         id="stop7488" />
    </linearGradient>
    <filter
       id="C"
       x="-0.011867782"
       y="-0.01125585"
       width="1.0237356"
       height="1.0225117"
       class="B">
      <feGaussianBlur
         stdDeviation="2.441"
         id="feGaussianBlur7491" />
    </filter>
    <path
       id="E"
       d="M-1215.571-296.329l-149.881 40.669-79.82 472.51 6.639 36.814 10.024 8.338h426.077l10.024-8.338 6.639-36.814-79.82-472.51z" />
    <filter
       inkscape:label="Combined Lighting"
       inkscape:menu="Bevels"
       inkscape:menu-tooltip="Basic specular bevel to use for building textures"
       style="color-interpolation-filters:sRGB;"
       id="filter2247"
       x="-0.045474541"
       y="-0.046606036"
       width="1.0909491"
       height="1.0932121">
      <feGaussianBlur
         stdDeviation="6"
         in="SourceGraphic"
         result="result0"
         id="feGaussianBlur2229" />
      <feDiffuseLighting
         lighting-color="rgb(255,255,255)"
         diffuseConstant="1"
         surfaceScale="4"
         result="result5"
         id="feDiffuseLighting2233">
        <feDistantLight
           elevation="45"
           azimuth="235"
           id="feDistantLight2231" />
      </feDiffuseLighting>
      <feComposite
         k1="1.4"
         in2="SourceGraphic"
         in="result5"
         result="fbSourceGraphic"
         operator="arithmetic"
         id="feComposite2235" />
      <feGaussianBlur
         result="result0"
         in="fbSourceGraphic"
         stdDeviation="6"
         id="feGaussianBlur2237" />
      <feSpecularLighting
         specularExponent="25"
         specularConstant="1"
         surfaceScale="4"
         lighting-color="rgb(255,255,255)"
         result="result1"
         in="result0"
         id="feSpecularLighting2241">
        <feDistantLight
           azimuth="280"
           elevation="45"
           id="feDistantLight2239" />
      </feSpecularLighting>
      <feComposite
         k3="1"
         k2="1"
         operator="arithmetic"
         in="fbSourceGraphic"
         in2="result1"
         result="result4"
         id="feComposite2243" />
      <feComposite
         operator="in"
         result="result2"
         in2="SourceGraphic"
         in="result4"
         id="feComposite2245" />
    </filter>
  </defs>
  <path
     style="mix-blend-mode:multiply"
     d="M-2728.669 264.709l28.198 35.189h455.354l10.087-9.413-98.043-493.462-31.462-17.601z"
     transform="matrix(-2.0051 0 0 2.0051 -4364.0778 816.66224)"
     opacity=".5"
     filter="url(#C)"
     id="path7522" />
  <use
     xlink:href="#E"
     fill="url(#A)"
     transform="matrix(2.0051 0 0 2.0051 3097.3821 831.9343)"
     id="use7524" />
  <use
     xlink:href="#E"
     x="315.666"
     y="-40.204"
     opacity=".25"
     fill="url(#B)"
     transform="matrix(2.0051 0 0 2.0051 2464.4309 912.54909)"
     style="mix-blend-mode:overlay"
     id="use7526" />
  <path
     d="M1099.874 1261.697l-.043 21.064 20.75-16.013-20.707-5.052z"
     opacity=".8"
     fill="#fff"
     id="path7528" />
  <path
     d="M1120.582 1266.748l-20.75 16.013-12.661 74.524 20.099-16.719 13.312-73.818z"
     opacity=".6"
     id="path7530" />
  <g
     fill="#fff"
     id="g7538">
    <path
       d="M359.469 319.303l17.664 13.248L660 254.157v-16.402z"
       opacity=".3"
       id="path7532" />
    <path
       d="M960.531 319.303l-17.664 13.248L660 254.157v-16.402z"
       opacity=".3"
       id="path7534" />
    <path
       d="M960.531 319.303l-17.664 13.248 157.007 929.146 20.707 5.052z"
       opacity=".3"
       id="path7536" />
  </g>
  <path
     d="M359.469 319.303l17.664 13.248-157.007 929.146-20.707 5.052z"
     opacity=".4"
     id="path7540" />
  <path
     d="M199.419 1266.748l20.75 16.013 12.661 74.524-20.099-16.719-13.312-73.818z"
     opacity=".9"
     id="path7542" />
  <path
     d="M220.126 1261.697l.043 21.064-20.75-16.013 20.707-5.052z"
     opacity=".6"
     id="path7544" />
  <path
     d="M220.126 1261.697h879.749l-.043 21.064H220.169l-.043-21.064z"
     opacity=".2"
     id="path7546" />
  <path
     d="M1099.831 1282.761l-12.661 74.524H232.829l-12.661-74.524h879.663z"
     opacity=".7"
     id="path7548" />
  <path
     id="path12943-5"
     style="color:#000000;fill:#000000;fill-opacity:0.992157;stroke-width:21.1329;paint-order:stroke fill markers;filter:url(#filter2247)"
     d="m 659.77526,487.95759 c -47.5133,1.9304 -119.6944,44.56301 -136.1265,68.41005 l -34.134,127.27299 c 0.4572,5.68198 0.9906,11.35888 2.032,17.45487 52.6565,-13.03273 113.8476,-9.73835 168.3008,-14.85899 54.2999,0.4826 114.7074,7.30758 168.2384,15.27555 1.016,-6.18489 1.6256,-11.79321 2.032,-17.52091 v -0.0203 l -34.2095,-127.60091 c -16.4338,-23.84805 -88.6066,-66.48295 -136.1264,-68.40928 z m -210.793,82.77425 -0.02,0.10338 c -0.6096,0.22504 -1.2192,0.4318 -1.9304,0.6604 -1.016,0.30479 -2.1336,0.60959 -3.2436,0.86359 -0.381,0.0912 -0.762,0.18034 -1.2192,0.2794 -27.6941,4.56184 -56.4391,8.0645 -80.1347,24.60751 -0.5842,0.4318 -1.2192,0.8636 -1.7272,1.2954 -2.634,2.0574 -5.2756,4.17322 -7.8105,6.4897 l -0.4064,0.4064 c -0.4064,0.4064 -0.8382,0.762 -1.2192,1.2192 -0.2794,0.2794 -0.5334,0.5334 -0.8128,0.762 v 0.0213 c -0.2794,0.2794 -0.5588,0.5842 -0.8382,0.8128 v 0.0216 c -0.254,0.27939 -0.5334,0.53339 -0.8128,0.81279 v 0.0206 c -0.254,0.3048 -0.5334,0.5842 -0.8128,0.8636 -0.5334,0.5842 -1.016,1.1176 -1.524,1.7526 v 0.004 c -0.254,0.3048 -0.5334,0.6096 -0.7874,0.9144 v 0.0203 c -0.635,0.762 -1.3208,1.524 -1.9304,2.3368 -0.126,0.16154 -0.2456,0.3302 -0.381,0.4826 0.4064,0.762 0.7874,1.6002 1.2192,2.4384 v 0.0206 c 0.1966,0.4064 0.4064,0.8128 0.6096,1.2192 v 0.0201 c 0.1956,0.4064 0.4064,0.8128 0.6096,1.2192 v 0.0213 c 0.1936,0.4318 0.381,0.8128 0.5842,1.2192 l 0.254,0.6096 c 0.1054,0.23292 0.2057,0.4826 0.3048,0.6858 l 0.02,0.0206 c 0.3302,0.7366 0.635,1.524 0.9652,2.2098 l 0.1653,0.4064 v 0.0201 c 0.1877,0.4318 0.381,0.8636 0.5842,1.2954 v 0.0211 c 0.1867,0.4318 0.381,0.9144 0.5588,1.2954 v 0.0203 c 0.381,0.9144 0.7366,1.8288 1.1176,2.82702 v 0.0213 c 0.1826,0.4826 0.381,0.9398 0.5588,1.4478 v 0.0206 c 0.1816,0.4826 0.381,0.9398 0.5588,1.4478 v 0.0203 c 0.3556,0.9398 0.7366,1.9304 1.1176,2.95656 v 0.0216 c 0.3556,0.9906 0.7112,2.0574 1.1176,3.04292 v 0.0206 c 8.0798,23.42387 14.0335,47.76824 20.2794,71.73442 v 0.021 c 0.3048,1.1176 0.6096,2.3368 0.9144,3.4341 0.126,0.4826 0.2456,0.9398 0.381,1.4478 5.339,19.0728 9.8298,38.4827 18.288,56.4629 v 0.02 c 0.08,0.1643 0.1661,0.3302 0.2474,0.4826 0.029,0.06 0.053,0.1262 0.082,0.1857 l 0.1651,0.3302 0.021,0.02 c 0.2355,0.4826 0.5334,0.9906 0.762,1.4224 0.084,0.1598 0.1621,0.3302 0.2474,0.4826 l 0.02,0.04 c 0.078,0.1433 0.1705,0.3048 0.2474,0.4318 v 0.02 c 0.082,0.1483 0.1664,0.2794 0.2487,0.4318 0.049,0.087 0.094,0.1828 0.144,0.2793 l 0.1034,0.186 0.02,0.02 0.062,0.1036 c 5.3873,9.9238 11.6662,11.1328 23.7134,13.2512 l 12.7305,2.2098 c 0,-0.762 0.025,-1.6002 0.062,-2.3368 0.2794,-5.2781 1.8288,-10.9042 3.9598,-15.8648 4.3638,-9.9416 12.3952,-21.0211 19.812,-31.701 9.9416,-14.3561 20.8458,-28.2191 26.9118,-35.7271 -0.017,-0.083 -0.045,-0.1654 -0.062,-0.2482 -0.045,-0.2128 -0.08,-0.4318 -0.1237,-0.6604 -0.017,-0.085 -0.045,-0.1625 -0.062,-0.2476 -7.267,-40.44747 -13.269,-85.61754 -27.209,-121.01953 -0.2311,-0.5842 -0.4572,-1.1176 -0.7112,-1.7526 -0.01,-0.019 -0.013,-0.0412 -0.021,-0.0617 -0.2365,-0.5842 -0.4826,-1.1176 -0.7112,-1.7526 -0.01,-0.019 -0.012,-0.0417 -0.02,-0.0615 -0.2426,-0.5842 -0.508,-1.1176 -0.7366,-1.7526 -0.01,-0.0201 -0.012,-0.0424 -0.02,-0.062 l -0.762,-1.8288 -0.02,-0.0417 -0.762,-1.8288 -0.02,-0.0216 c -0.1511,-0.3556 -0.3048,-0.6858 -0.4572,-1.1176 -0.1165,-0.2794 -0.2321,-0.5842 -0.3556,-0.8128 -0.5334,-1.2192 -1.1176,-2.5146 -1.7272,-3.86842 z m 421.6276,0.0412 -0.02,0.0622 v 0.0201 c -0.2794,0.6604 -0.5588,1.2954 -0.8382,1.9304 -0.2794,0.6604 -0.5588,1.2954 -0.8382,1.9304 -0.5334,1.2192 -1.1176,2.5146 -1.6256,3.73888 l -0.021,0.0206 -0.762,1.8288 -0.02,0.0414 c -0.6858,1.6002 -1.3208,3.12928 -1.9304,4.77012 l -0.2474,0.6096 c -0.011,0.0252 -0.01,0.0577 -0.021,0.0828 -0.2281,0.5842 -0.4572,1.1176 -0.6858,1.6002 -0.011,0.0287 -0.031,0.0539 -0.042,0.082 -0.2223,0.5842 -0.4572,1.1176 -0.6604,1.6002 -0.011,0.0287 -0.03,0.0549 -0.042,0.0836 -0.2169,0.5334 -0.4318,1.1176 -0.635,1.6002 l -0.041,0.10363 c -21.4859,40.87214 -17.2923,73.59977 -24.4704,113.09117 l -0.041,0.20701 c -0.041,0.21898 -0.081,0.43178 -0.1237,0.66038 l -0.041,0.206 c -0.044,0.22 -0.08,0.4318 -0.1247,0.6604 l -0.041,0.206 c -0.045,0.2251 -0.099,0.4318 -0.1451,0.6858 -0.012,0.063 -0.028,0.1219 -0.041,0.1857 l -0.1451,0.7112 -0.041,0.1854 c 6.0858,7.5083 16.9697,21.3944 26.973,35.8097 7.4016,10.6807 15.4686,21.7576 19.812,31.7009 2.1336,4.9632 3.6576,10.5995 3.9599,15.8776 0.035,0.6858 0.06,1.524 0.062,2.3368 l 24.6406,-4.3663 c 0.4826,-0.1013 0.9906,-0.2794 1.4224,-0.4318 0.097,-0.038 0.2118,-0.082 0.3048,-0.1239 0.2794,-0.1217 0.5842,-0.2495 0.8636,-0.4318 0.2794,-0.1527 0.5588,-0.3302 0.8382,-0.4826 0.095,-0.06 0.1948,-0.1217 0.2794,-0.1857 0.2794,-0.1908 0.5588,-0.381 0.8382,-0.6096 0.1877,-0.1461 0.381,-0.3302 0.5588,-0.4826 0.1856,-0.1582 0.381,-0.3302 0.5588,-0.4826 0.092,-0.086 0.1765,-0.14 0.254,-0.2276 7.0535,-7.6911 11.0363,-17.9146 14.4703,-27.5806 v -0.021 c 0.1552,-0.4318 0.3302,-0.8636 0.4826,-1.2954 v -0.021 c 0.1542,-0.4318 0.3302,-0.8636 0.4826,-1.2954 v -0.021 c 5.3645,-16.4008 9.8476,-33.3794 14.1656,-50.0967 v -0.021 c 6.3653,-22.95398 11.3995,-45.8348 19.558,-67.90002 0.7112,-2.0574 1.4224,-3.95732 2.2352,-5.88264 0.3556,-0.9398 0.7366,-1.9304 1.1176,-2.82702 0.381,-0.9144 0.762,-1.8288 1.1176,-2.73812 0.381,-0.9144 0.7366,-1.8288 1.1176,-2.65176 0.5842,-1.29539 1.2192,-2.65175 1.8288,-3.86841 0.3048,-0.6096 0.5842,-1.2192 0.889,-1.8288 l 0.3048,-0.6096 c 0.066,-0.13081 0.1196,-0.2794 0.1854,-0.4064 0.1331,-0.24943 0.2794,-0.5334 0.4064,-0.762 -0.508,-0.6604 -1.016,-1.2954 -1.524,-1.9304 -0.1288,-0.15824 -0.2433,-0.3302 -0.381,-0.4826 -0.254,-0.3302 -0.5334,-0.6096 -0.7874,-0.9144 -0.1277,-0.15113 -0.254,-0.3048 -0.381,-0.4318 -1.6256,-1.8288 -3.142,-3.56362 -4.8717,-5.17398 -0.2794,-0.2794 -0.5588,-0.5334 -0.8382,-0.762 -1.4224,-1.2954 -2.8423,-2.65176 -4.257,-3.86842 -0.2794,-0.24333 -0.5588,-0.4826 -0.8382,-0.7366 -17.399,-14.92503 -43.6639,-21.68651 -63.7169,-25.25267 -0.5588,-0.0942 -1.1176,-0.17856 -1.6256,-0.27939 -0.5588,-0.0922 -1.1176,-0.17857 -1.7272,-0.2794 -0.5334,-0.0859 -1.1176,-0.18415 -1.6256,-0.2794 h -0.02 c -1.1176,-0.17044 -2.1336,-0.3302 -3.142,-0.4826 -2.1336,-0.3302 -4.0615,-0.6604 -5.9868,-0.9398 -0.9652,-0.15774 -1.9304,-0.3302 -2.8423,-0.4826 -4.257,-0.7366 -8.0136,-1.6002 -11.0362,-2.65176 -0.1573,-0.0546 -0.3048,-0.10871 -0.4572,-0.16561 z m -213.2489,137.36459 c -52.2511,0.3302 -148.7248,11.0541 -156.0415,11.8899 -2.4384,2.9565 -16.8504,17.1703 -29.7211,35.7052 -6.9977,10.1422 -12.6085,20.2895 -15.8547,27.6929 -1.2192,2.827 -1.7271,4.6685 -2.0319,5.9868 10.9448,0 22.0522,2.6517 33.6778,3.9573 20.6426,1.524 45.7085,2.9565 71.3216,3.9547 51.2262,2.0574 101.0427,2.0574 101.0427,2.0574 0,0 49.8163,0.012 101.043,-2.0574 25.6131,-0.9906 50.6783,-2.4384 71.3213,-3.9547 9.9416,-0.8128 22.3266,-4.6685 33.6779,-3.9573 -0.2794,-1.2954 -0.7366,-3.1293 -1.9304,-5.9868 -3.2487,-7.4041 -8.8265,-17.5514 -15.8547,-27.6929 -12.8727,-18.5343 -27.2768,-32.7662 -29.7213,-35.7052 -7.4041,-0.8128 -106.8775,-11.8898 -158.4974,-11.8898 -0.4064,0 -0.8128,0 -1.2192,0 -0.4064,0 -0.8382,0 -1.2192,0 z m 235.3108,95.3019 -12.5679,2.5146 c -5.4788,3.6525 -10.2768,4.4653 -18.1991,5.2781 -7.4015,0.9906 -17.1729,1.2192 -27.733,2.0574 -21.1302,1.6002 -47.5444,2.9566 -73.3094,3.9573 -51.5107,2.0574 -101.0429,3.9548 -101.0429,3.9548 0,0 -49.5326,-1.9304 -101.0427,-3.9548 -25.7551,-0.9906 -52.1802,-2.3368 -73.3097,-3.9573 -10.569,-0.8128 -20.3378,-0.9907 -27.7328,-2.0574 -6.6954,-1.2954 -13.2994,-0.9906 -18.8467,-5.174 l -12.192,-2.3368 c -41.4173,64.7355 -61.3606,122.8486 -62.5577,163.44851 48.8633,-23.19791 85.6648,-37.24001 122.9596,-45.50621 -13.2588,-28.7665 -24.6812,-59.5341 -33.272,-91.1728 v -2.0573 c -0.1054,-0.6096 0,-4.4654 0,-5.9868 0,-1.524 -0.2372,-2.0574 0,-3.9573 l 19.812,2.0574 v 2.0573 2.0574 c 8.824,32.3271 21.0592,63.7342 35.2707,92.8669 41.3766,-6.6954 86.2429,-7.4041 150.8612,-6.2916 64.1698,-0.9906 108.8575,-0.381 149.9948,6.1849 13.744,-29.1015 25.5928,-60.4773 34.3576,-92.7653 0.3048,-2.6873 1.7018,-4.0284 2.032,-4.1148 l 23.9445,-2.5527 c -7.8638,32.5892 -25.2501,76.2053 -38.1459,103.569 37.482,8.2169 74.395,22.2986 123.4963,45.60641 -1.2192,-40.66541 -21.1811,-98.89251 -62.74,-163.76011 z m -60.7618,118.1511 c -7.3076,-1.6002 -14.6787,-3.0429 -22.1437,-4.1732 -16.251,34.40961 -35.1587,65.64071 -54.7975,91.48737 -18.1279,23.8481 -36.6697,44.4198 -53.4885,57.4538 -16.8301,13.0327 -31.862,17.8333 -41.6103,17.8333 -9.7384,0 -24.7828,-4.7701 -41.6103,-17.8333 -16.83,-13.0327 -35.3717,-33.6052 -53.4888,-57.4538 -19.6189,-25.81496 -39.0944,-57.01886 -55.8619,-91.38577 -7.3025,1.2192 -14.5872,2.5146 -21.8085,4.1732 17.5184,38.01791 38.2321,72.54901 59.8485,101.00227 18.989,24.9834 38.6075,44.8358 57.455,59.4319 18.8468,14.5999 37.8061,23.7769 55.4769,23.7769 17.6708,0 36.6293,-9.1287 55.4769,-23.7769 18.8468,-14.5999 36.4876,-34.449 55.4769,-59.4319 21.6357,-28.47536 43.01,-63.04406 61.0859,-101.10417 z"
     sodipodi:nodetypes="ccccccsccccccccccccsccccccccccccccccccccccccccccccccccccccccccccccccscccccccsccccccccccssccscscscccccccccccccccccccccccsccccccssssccccccccccccccscccccccccccccccsscccccscccccccccccccsccccccccccccccccsscccccccccccccccccsccccccccccccccccccsccccccscccc" />
</svg>
