<?xml version="1.0" encoding="UTF-8" standalone="no"?>
<svg
   width="498.898"
   height="544.252"
   viewBox="0 0 1320 1440"
   version="1.1"
   id="svg18291"
   sodipodi:docname="0_ELEPHANT.svg"
   inkscape:version="1.2 (dc2aedaf03, 2022-05-15)"
   xmlns:inkscape="http://www.inkscape.org/namespaces/inkscape"
   xmlns:sodipodi="http://sodipodi.sourceforge.net/DTD/sodipodi-0.dtd"
   xmlns="http://www.w3.org/2000/svg"
   xmlns:svg="http://www.w3.org/2000/svg">
  <sodipodi:namedview
     id="namedview18293"
     pagecolor="#ffffff"
     bordercolor="#666666"
     borderopacity="1.0"
     inkscape:showpageshadow="2"
     inkscape:pageopacity="0.0"
     inkscape:pagecheckerboard="0"
     inkscape:deskcolor="#d1d1d1"
     showgrid="false"
     inkscape:zoom="1.3789568"
     inkscape:cx="260.70432"
     inkscape:cy="246.5632"
     inkscape:window-width="1916"
     inkscape:window-height="2022"
     inkscape:window-x="-10"
     inkscape:window-y="0"
     inkscape:window-maximized="0"
     inkscape:current-layer="svg18291" />
  <style
     id="style18192"><![CDATA[.B{color-interpolation-filters:sRGB}.C{fill-opacity:.98}]]></style>
  <defs
     id="defs18229">
    <linearGradient
       id="A"
       x1="236.943"
       y1="670.458"
       x2="278.677"
       y2="670.458"
       spreadMethod="reflect"
       gradientUnits="userSpaceOnUse">
      <stop
         offset="0"
         stop-color="#ffd285"
         id="stop18194" />
      <stop
         offset=".232"
         stop-color="#ffcd79"
         id="stop18196" />
      <stop
         offset=".616"
         stop-color="#ffca73"
         id="stop18198" />
      <stop
         offset=".808"
         stop-color="#ffd386"
         id="stop18200" />
      <stop
         offset="1"
         stop-color="#ffc86e"
         id="stop18202" />
    </linearGradient>
    <linearGradient
       id="B"
       x1="660"
       y1="115.844"
       x2="670.254"
       y2="1157.469"
       gradientUnits="userSpaceOnUse">
      <stop
         offset=".604"
         stop-color="#fff"
         id="stop18205" />
      <stop
         offset="1"
         id="stop18207" />
    </linearGradient>
    <filter
       id="C"
       x="-0.010152573"
       y="-0.010558682"
       width="1.0203051"
       height="1.0211174"
       class="B">
      <feGaussianBlur
         stdDeviation="2.441"
         id="feGaussianBlur18210" />
    </filter>
    <filter
       inkscape:label="Combined Lighting"
       inkscape:menu="Bevels"
       inkscape:menu-tooltip="Basic specular bevel to use for building textures"
       style="color-interpolation-filters:sRGB;"
       id="filter20785"
       x="-0.039517025"
       y="-0.033875891"
       width="1.079034"
       height="1.0677518">
      <feGaussianBlur
         stdDeviation="6"
         in="SourceGraphic"
         result="result0"
         id="feGaussianBlur20767" />
      <feDiffuseLighting
         lighting-color="rgb(255,255,255)"
         diffuseConstant="1"
         surfaceScale="4"
         result="result5"
         id="feDiffuseLighting20771">
        <feDistantLight
           elevation="45"
           azimuth="235"
           id="feDistantLight20769" />
      </feDiffuseLighting>
      <feComposite
         k1="1.4"
         in2="SourceGraphic"
         in="result5"
         result="fbSourceGraphic"
         operator="arithmetic"
         id="feComposite20773" />
      <feGaussianBlur
         result="result0"
         in="fbSourceGraphic"
         stdDeviation="6"
         id="feGaussianBlur20775" />
      <feSpecularLighting
         specularExponent="25"
         specularConstant="1"
         surfaceScale="4"
         lighting-color="rgb(255,255,255)"
         result="result1"
         in="result0"
         id="feSpecularLighting20779">
        <feDistantLight
           azimuth="280"
           elevation="45"
           id="feDistantLight20777" />
      </feSpecularLighting>
      <feComposite
         k3="1"
         k2="1"
         operator="arithmetic"
         in="fbSourceGraphic"
         in2="result1"
         result="result4"
         id="feComposite20781" />
      <feComposite
         operator="in"
         result="result2"
         in2="SourceGraphic"
         in="result4"
         id="feComposite20783" />
    </filter>
  </defs>
  <path
     style="mix-blend-mode:multiply"
     d="M-2765.718 268.206l28.198 35.189h538.751l10.087-9.413-86.673-527.828-31.462-17.601z"
     transform="matrix(-2.0051 0 0 2.0051 -4355.6821 800.27119)"
     opacity=".5"
     filter="url(#C)"
     id="path18231" />
  <path
     d="M660 115.844L254.043 268.378l-139.111 999.236 13.312 73.804 20.099 16.718H1169.89l20.099-16.718 13.312-73.804-137.282-999.246z"
     fill="url(#A)"
     id="path18233" />
  <path
     d="M660 115.844L253.994 268.369l-137.243 999.246 11.442 73.812 20.099 16.719h1021.563l20.134-16.728 15.13-73.802-139.1-999.248z"
     opacity=".25"
     fill="url(#B)"
     style="mix-blend-mode:overlay"
     id="path18235" />
  <path
     d="M1182.559 1262.571l-.043 21.064 20.75-16.013-20.707-5.052z"
     opacity=".8"
     fill="#fff"
     id="path18237" />
  <path
     d="M1203.266 1267.622l-20.75 16.013-12.661 74.512 20.099-16.719 13.312-73.805z"
     opacity=".6"
     id="path18239" />
  <g
     fill="#fff"
     id="g18247">
    <path
       d="M254.044 268.378l17.664 13.248 388.293-149.381v-16.402z"
       opacity=".3"
       id="path18241" />
    <path
       d="M1066.019 268.368l-17.664 13.248L660 132.246v-16.402z"
       opacity=".3"
       id="path18243" />
    <path
       d="M1064.146 251.267l-17.664 13.248 138.452 996.966 20.707 5.052z"
       opacity=".3"
       id="path18245" />
  </g>
  <path
     d="M253.994 268.369l17.664 13.248-136.07 980.953-20.707 5.052z"
     opacity=".4"
     id="path18249" />
  <path
     d="M114.881 1267.622l20.75 16.013 12.661 74.512-20.099-16.719-13.312-73.805z"
     opacity=".9"
     id="path18251" />
  <path
     d="M135.588 1262.571l.043 21.064-20.75-16.013 20.707-5.052z"
     opacity=".6"
     id="path18253" />
  <path
     d="M135.588 1262.571h1046.971l-.043 21.064H135.631z"
     opacity=".2"
     id="path18255" />
  <path
     d="M1182.516 1283.635l-12.661 74.512H148.292l-12.661-74.512z"
     opacity=".7"
     id="path18257" />
  <path
     id="path5349"
     style="fill:#000000;fill-opacity:0.992157;stroke:none;stroke-width:18.613px;stroke-linecap:butt;stroke-linejoin:miter;stroke-opacity:1;filter:url(#filter20785)"
     d="m 577.9449,276.2112 a 26.150759,24.282854 0 0 0 -26.15,24.29458 26.150759,24.282854 0 0 0 26.15,24.29459 26.150759,24.282854 0 0 0 26.1511,-24.29459 26.150759,24.282854 0 0 0 -26.1511,-24.29458 z m 76.8093,63.52075 a 23.348902,26.150759 0 0 0 -22.6618,26.15089 23.348902,26.150759 0 0 0 23.3629,26.15005 23.348902,26.150759 0 0 0 23.34,-26.15005 23.348902,26.150759 0 0 0 -23.34,-26.15089 23.348902,26.150759 0 0 0 -0.7112,0 z m -72.1537,42.94882 a 25.216809,26.150759 0 0 0 -25.2171,26.17134 25.216809,26.150759 0 0 0 25.2171,26.15002 25.216809,26.150759 0 0 0 25.2171,-26.15002 25.216809,26.150759 0 0 0 -25.2171,-26.17134 z m 126.8813,78.34088 c -64.0684,0.89154 -112.7213,36.16255 -153.2765,89.46869 -46.0832,51.48971 -78.1276,115.88429 -94.1958,194.96469 -15.9233,32.1458 -29.2339,37.8368 -42.6547,44.8455 -40.6878,-12.4869 -53.9854,-31.689 -44.4091,-56.5321 6.289,-35.2704 61.9681,-65.3258 97.7155,-97.49245 28.3934,-51.63226 41.721,-101.29637 -10.6299,-142.33831 -155.6267,-40.00737 -125.4307,91.77122 -92.4105,120.8963 22.032,-10.64158 35.5638,-23.84856 42.6344,-39.0027 -4.5593,-8.52017 -17.4574,-15.90624 0,-27.2873 9.5352,0.89662 14.5567,5.58012 17.7724,11.67561 0,19.49678 8.9281,22.3365 -63.9572,77.98589 -42.9697,22.63036 -46.0733,58.28656 -62.1817,89.69186 -29.6403,170.3538 34.6413,221.4493 115.4884,251.51147 15.367,-14.05837 19.8933,-33.95137 26.6484,-52.64637 23.0251,5.4801 44.6936,7.5057 76.4232,35.1083 7.7115,-7.8074 15.3873,-15.5999 23.0988,-23.4022 l 27.0134,-21.5242 c 7.2009,18.3911 -7.5057,26.6575 -15.0648,38.2023 -11.0159,16.79717 -33.819,34.15417 -52.8091,45.68817 l 42.6347,5.8842 c 19.3141,-7.9121 34.3575,-19.8303 47.98,-33.1392 l 23.0988,-7.80997 c 21.5671,-57.931 42.4929,-116.0485 51.5305,-177.423 -1.4224,-19.1917 -1.8288,-34.5096 -12.4282,-87.734 l 12.4282,-44.84558 74.6282,-91.64961 -56.8564,97.49249 -10.6502,40.9512 c -1.7272,29.8227 2.7331,55.162 10.6502,77.9858 l -3.5509,40.9404 c -19.5072,60.3964 -41.9138,118.2945 -46.1853,185.22367 2.2098,15.0835 7.2009,28.1492 23.0988,33.1392 199.5486,-8.3188 299.0384,-102.04997 360.7059,-228.13287 l 3.5636,-40.9204 C 987.8869,597.41761 880.4819,508.55047 737.4617,462.73686 c -8.5217,-1.11252 -16.8605,-1.73228 -24.9149,-1.73228 -1.016,-0.003 -2.032,-0.0143 -3.0378,0 z M 541.1815,680.60773 c 3.3528,0 6.6954,1.3258 10.3556,5.3703 l 31.3646,40.576 c 5.1765,13.116 7.0003,25.9787 2.032,38.3845 -5.682,-9.9408 -10.5918,-19.9121 -23.7566,-29.9845 -14.6583,-4.3645 -29.6705,-8.5202 -38.5965,-17.9954 -4.1555,-22.8036 0.6858,-24.102 3.0378,-31.3447 4.9632,-1.4173 9.84,-4.6609 14.8819,-4.9652 0.2202,-0.012 0.4572,-0.02 0.6858,-0.021 z m -82.7131,267.6291 c -23.6042,79.28407 -71.9706,123.24547 -117.2839,171.56157 -3.6576,5.9865 2.54,7.7051 17.7724,5.8844 69.3839,-36.3355 121.8861,-85.0156 143.9267,-155.97967 -13.9776,-8.0145 -23.2994,-21.13 -44.4098,-21.4442 z" />
</svg>
