<?xml version="1.0" encoding="UTF-8" standalone="no"?>
<svg
   width="498.898"
   height="544.252"
   viewBox="0 0 1320 1440"
   version="1.1"
   id="svg18291"
   sodipodi:docname="0_FALCON.svg"
   inkscape:version="1.2 (dc2aedaf03, 2022-05-15)"
   xmlns:inkscape="http://www.inkscape.org/namespaces/inkscape"
   xmlns:sodipodi="http://sodipodi.sourceforge.net/DTD/sodipodi-0.dtd"
   xmlns="http://www.w3.org/2000/svg"
   xmlns:svg="http://www.w3.org/2000/svg">
  <sodipodi:namedview
     id="namedview18293"
     pagecolor="#ffffff"
     bordercolor="#666666"
     borderopacity="1.0"
     inkscape:showpageshadow="2"
     inkscape:pageopacity="0.0"
     inkscape:pagecheckerboard="0"
     inkscape:deskcolor="#d1d1d1"
     showgrid="false"
     inkscape:zoom="1.3789568"
     inkscape:cx="117.48011"
     inkscape:cy="187.46055"
     inkscape:window-width="1941"
     inkscape:window-height="1732"
     inkscape:window-x="221"
     inkscape:window-y="187"
     inkscape:window-maximized="0"
     inkscape:current-layer="svg18291" />
  <style
     id="style18192"><![CDATA[.B{color-interpolation-filters:sRGB}.C{fill-opacity:.98}]]></style>
  <defs
     id="defs18229">
    <linearGradient
       id="A"
       x1="236.943"
       y1="670.458"
       x2="278.677"
       y2="670.458"
       spreadMethod="reflect"
       gradientUnits="userSpaceOnUse">
      <stop
         offset="0"
         stop-color="#ffd285"
         id="stop18194" />
      <stop
         offset=".232"
         stop-color="#ffcd79"
         id="stop18196" />
      <stop
         offset=".616"
         stop-color="#ffca73"
         id="stop18198" />
      <stop
         offset=".808"
         stop-color="#ffd386"
         id="stop18200" />
      <stop
         offset="1"
         stop-color="#ffc86e"
         id="stop18202" />
    </linearGradient>
    <linearGradient
       id="B"
       x1="660"
       y1="115.844"
       x2="670.254"
       y2="1157.469"
       gradientUnits="userSpaceOnUse">
      <stop
         offset=".604"
         stop-color="#fff"
         id="stop18205" />
      <stop
         offset="1"
         id="stop18207" />
    </linearGradient>
    <filter
       id="C"
       x="-0.010152573"
       y="-0.010558682"
       width="1.0203051"
       height="1.0211174"
       class="B">
      <feGaussianBlur
         stdDeviation="2.441"
         id="feGaussianBlur18210" />
    </filter>
    <filter
       inkscape:label="Combined Lighting"
       inkscape:menu="Bevels"
       inkscape:menu-tooltip="Basic specular bevel to use for building textures"
       style="color-interpolation-filters:sRGB;"
       id="filter25046"
       x="-0.033950576"
       y="-0.035665337"
       width="1.0679012"
       height="1.0713307">
      <feGaussianBlur
         stdDeviation="6"
         in="SourceGraphic"
         result="result0"
         id="feGaussianBlur25028" />
      <feDiffuseLighting
         lighting-color="rgb(255,255,255)"
         diffuseConstant="1"
         surfaceScale="4"
         result="result5"
         id="feDiffuseLighting25032">
        <feDistantLight
           elevation="45"
           azimuth="235"
           id="feDistantLight25030" />
      </feDiffuseLighting>
      <feComposite
         k1="1.4"
         in2="SourceGraphic"
         in="result5"
         result="fbSourceGraphic"
         operator="arithmetic"
         id="feComposite25034" />
      <feGaussianBlur
         result="result0"
         in="fbSourceGraphic"
         stdDeviation="6"
         id="feGaussianBlur25036" />
      <feSpecularLighting
         specularExponent="25"
         specularConstant="1"
         surfaceScale="4"
         lighting-color="rgb(255,255,255)"
         result="result1"
         in="result0"
         id="feSpecularLighting25040">
        <feDistantLight
           azimuth="280"
           elevation="45"
           id="feDistantLight25038" />
      </feSpecularLighting>
      <feComposite
         k3="1"
         k2="1"
         operator="arithmetic"
         in="fbSourceGraphic"
         in2="result1"
         result="result4"
         id="feComposite25042" />
      <feComposite
         operator="in"
         result="result2"
         in2="SourceGraphic"
         in="result4"
         id="feComposite25044" />
    </filter>
  </defs>
  <path
     style="mix-blend-mode:multiply"
     d="M-2765.718 268.206l28.198 35.189h538.751l10.087-9.413-86.673-527.828-31.462-17.601z"
     transform="matrix(-2.0051 0 0 2.0051 -4355.6821 800.27119)"
     opacity=".5"
     filter="url(#C)"
     id="path18231" />
  <path
     d="M660 115.844L254.043 268.378l-139.111 999.236 13.312 73.804 20.099 16.718H1169.89l20.099-16.718 13.312-73.804-137.282-999.246z"
     fill="url(#A)"
     id="path18233" />
  <path
     d="M660 115.844L253.994 268.369l-137.243 999.246 11.442 73.812 20.099 16.719h1021.563l20.134-16.728 15.13-73.802-139.1-999.248z"
     opacity=".25"
     fill="url(#B)"
     style="mix-blend-mode:overlay"
     id="path18235" />
  <path
     d="M1182.559 1262.571l-.043 21.064 20.75-16.013-20.707-5.052z"
     opacity=".8"
     fill="#fff"
     id="path18237" />
  <path
     d="M1203.266 1267.622l-20.75 16.013-12.661 74.512 20.099-16.719 13.312-73.805z"
     opacity=".6"
     id="path18239" />
  <g
     fill="#fff"
     id="g18247">
    <path
       d="M254.044 268.378l17.664 13.248 388.293-149.381v-16.402z"
       opacity=".3"
       id="path18241" />
    <path
       d="M1066.019 268.368l-17.664 13.248L660 132.246v-16.402z"
       opacity=".3"
       id="path18243" />
    <path
       d="M1064.146 251.267l-17.664 13.248 138.452 996.966 20.707 5.052z"
       opacity=".3"
       id="path18245" />
  </g>
  <path
     d="M253.994 268.369l17.664 13.248-136.07 980.953-20.707 5.052z"
     opacity=".4"
     id="path18249" />
  <path
     d="M114.881 1267.622l20.75 16.013 12.661 74.512-20.099-16.719-13.312-73.805z"
     opacity=".9"
     id="path18251" />
  <path
     d="M135.588 1262.571l.043 21.064-20.75-16.013 20.707-5.052z"
     opacity=".6"
     id="path18253" />
  <path
     d="M135.588 1262.571h1046.971l-.043 21.064H135.631z"
     opacity=".2"
     id="path18255" />
  <path
     d="M1182.516 1283.635l-12.661 74.512H148.292l-12.661-74.512z"
     opacity=".7"
     id="path18257" />
  <path
     style="fill:#9b0000;fill-opacity:1;stroke-width:0.664108;filter:url(#filter25046)"
     d="m 451.14795,1183.5427 c 1.1684,-14.7827 1.7526,-24.4728 2.286,-43.9973 0.8128,-28.1191 0.9906,-46.3784 0.5334,-46.8706 -0.2105,-0.2118 -1.524,1.2954 -2.827,3.4773 -5.56,8.7122 -12.286,16.9824 -20.4927,25.1409 -9.685,9.685 -10.6731,10.4521 -19.6469,16.8783 -28.7581,20.4596 -67.0372,31.975 -111.5697,33.5533 -10.2362,0.381 -33.2575,-0.5334 -34.5747,-1.2954 -0.3302,-0.1986 2.6086,-3.0429 6.5329,-6.4439 8.8265,-7.5134 26.6583,-25.3975 36.0139,-36.0441 3.8252,-4.3485 7.5133,-8.4913 8.1635,-9.365 0.6604,-0.7366 3.4773,-4.1301 6.2078,-7.62 2.827,-3.4773 6.096,-7.62 7.5133,-9.365 2.3876,-2.9566 7.4041,-9.5809 9.2583,-12.3672 0.5842,-0.762 4.13,-6.0783 8.0543,-11.6383 8.0569,-11.712 12.6416,-18.89 20.4724,-32.4404 9.1465,-15.8166 24.0335,-45.95898 23.1623,-46.82708 -0.1651,-0.1644 -1.7526,2.15898 -3.6094,5.13838 -16.3042,27.2364 -34.2618,44.4312 -82.3163,78.8532 -23.9242,17.1374 -39.0392,29.9799 -48.6343,41.305 -14.351,16.9418 -22.7584,33.9011 -26.9756,54.4047 l -1.524,7.2873 -0.9398,-9.2634 c -1.4478,-13.1623 -1.1684,-51.1624 0.2494,-63.6328 3.1725,-26.5714 8.4913,-48.0141 17.5032,-70.0672 10.5638,-25.9234 25.5018,-49.49768 47.3379,-74.71578 5.0165,-5.7912 32.6797,-33.0748 40.531,-39.9656 4.5746,-4.0437 14.8768,-12.7584 22.9108,-19.4234 8.0569,-6.6599 15.2553,-12.6746 16.0528,-13.3553 7.2924,-6.0808 24.6101,-18.4505 35.4226,-25.2323 16.129,-10.1245 41.0002,-23.1699 57.4337,-30.17498 1.0922,-0.4826 4.13,-1.7526 6.6421,-2.95656 13.1902,-5.76833 33.9969,-13.35023 53.7959,-19.62403 10.9195,-3.47726 36.1094,-10.12443 36.5788,-9.58595 0.1275,0.12725 -3.3909,3.25881 -7.8385,6.85545 -12.1894,10.0203 -32.084,29.64057 -45.3577,44.82237 -3.2614,3.6957 -14.4298,17.8257 -18.4887,23.3553 -5.4432,7.5133 -17.6987,25.8541 -17.6987,26.6712 0,0.4064 3.0429,-2.286 6.858,-6.0096 3.6932,-3.6932 8.2753,-7.8384 10.1244,-9.365 8.603,-6.8732 37.4465,-29.2722 50.6453,-36.546 2.159,-1.1684 4.9962,-2.827 6.2967,-3.4773 29.8927,-16.27627 34.9346,-24.44491 74.7623,-41.17258 20.9144,-8.44295 15.2095,-6.42112 40.546,-15.69973 14.8057,-5.65912 63.0628,-24.43733 63.4538,-23.98775 -31.2131,31.82771 -54.116,46.22087 -73.2851,69.67856 37.9054,-24.70915 88.8486,-42.01746 119.7343,-58.01057 0.3302,0 -1.0922,1.524 -3.043,3.60934 -1.9558,1.9558 -5.3543,5.21716 -7.2872,7.51332 -8.4912,9.15161 -28.9448,34.63136 -28.2928,35.28338 0.1857,0.18389 2.3876,-1.1684 4.9225,-3.26136 7.9553,-6.31698 16.0376,-11.48842 31.5057,-20.12441 10.0253,-5.65912 38.6351,-20.10156 48.0649,-24.35859 2.9565,-1.2954 7.2923,-3.26136 9.6901,-4.3561 2.3876,-1.0922 4.704,-2.0828 4.9225,-2.0828 0.2794,0 -3.4773,2.73812 -8.3871,6.096 -16.83,11.43507 -24.8768,18.06701 -38.496,31.7317 -11.2242,11.26997 -16.8935,18.87981 -22.037,29.66209 l -2.827,6.0096 c -4.7549,16.6066 -4.3866,24.7727 -1.016,39.1696 4.9225,24.6075 9.6799,41.8264 20.0736,73.0491 6.2966,18.9535 10.2336,30.1534 16.5811,47.15258 2.6086,7.0916 5.6464,15.1942 6.6599,17.9298 1.8796,5.1384 8.9255,23.241 9.9085,25.5844 0.3302,0.7366 3.1725,7.8384 6.2967,15.941 3.1724,8.0569 8.7122,21.7805 12.4028,30.5491 3.6093,8.7122 6.731,16.317 6.9469,16.7666 0.9906,2.6085 -6.9469,-1.2954 -13.5661,-6.6599 -9.5809,-7.7292 -21.3665,-21.5189 -33.0401,-38.8224 -2.5146,-3.6931 -4.9225,-6.5125 -5.1384,-6.2966 -0.6858,0.6858 0.8636,9.1465 2.827,14.7421 3.6932,10.8966 13.589,28.0584 23.5433,40.609 1.8796,2.286 2.7381,3.9141 2.159,3.6957 -3.1725,-1.2192 -27.6408,-18.1889 -30.3276,-21.0413 -0.1852,-0.1903 -2.9566,-2.5146 -6.0757,-5.1385 -13.0734,-10.9982 -29.1755,-29.7319 -36.4139,-42.3915 -1.524,-2.827 -4.2596,-8.2804 -6.0097,-12.3012 -1.7526,-4.0437 -3.2613,-7.5134 -3.6093,-7.62 -0.2172,-0.2165 -0.4064,1.0922 -0.4064,3.0429 0,4.5593 -1.651,15.5905 -3.2614,21.689 -5.3543,19.746 -19.8933,43.3482 -37.7746,61.0486 l -6.0096,6.0097 2.286,-6.2256 c 5.8597,-15.532 8.9255,-34.0748 8.9255,-54.4052 0.015,-11.2243 -1.0922,-26.5844 -1.9558,-27.5623 -0.2794,-0.3048 -1.1684,1.4478 -1.9558,3.9141 -6.731,20.955 -25.5712,42.8305 -55.1357,64.0964 -8.8214,6.2967 -13.7744,9.5809 -26.4107,17.0891 -10.7797,6.444 -24.6583,13.6551 -25.2019,13.109 -0.1793,-0.1784 0.4318,-1.2954 1.2954,-2.5146 3.6094,-4.7778 7.62,-13.9802 10.0254,-22.7889 2.6086,-9.6901 3.4773,-17.4803 3.3909,-31.21 -0.062,-11.4986 -1.4478,-26.3454 -2.6086,-28.2191 -0.6096,-0.9398 -1.651,-0.1852 -1.651,1.1684 0,0.6096 -1.651,4.3484 -3.6093,8.387 -6.8758,14.0691 -16.0934,26.0932 -33.5839,43.5051 -15.6895,15.6236 -13.9217,14.0335 -37.0486,33.2578 -3.8253,3.1724 -22.0802,16.9595 -30.4142,22.959 -11.6282,8.3871 -38.179,26.1366 -39.0746,26.1366 -0.2299,0 -0.2794,-1.651 -0.1024,-3.8252 z m -223.9174,-165.9206 c 0,-0.2113 0.8636,-3.0429 1.9558,-6.2966 2.0828,-6.0782 2.827,-8.9256 5.9868,-21.10988 2.3876,-9.365 7.1857,-30.0144 9.685,-41.5006 0.6096,-2.827 1.2954,-6.2255 1.7526,-7.62 0.3556,-1.4478 1.1684,-5.6464 1.9558,-9.3649 0.7366,-3.6094 2.5146,-12.4664 4.0437,-19.5936 1.524,-7.0942 2.9566,-14.285 3.2588,-15.9461 0.3048,-1.651 2.286,-11.5062 4.3561,-21.905 2.0828,-10.4521 4.8921,-24.8894 6.4262,-32.214 1.4478,-7.29234 2.9566,-14.77772 3.2614,-16.60652 0.381,-1.7526 1.8796,-9.36498 3.2588,-16.60651 2.827,-14.53642 2.6086,-13.58138 5.1257,-25.89758 0.9398,-4.68884 2.3876,-12.06245 3.2588,-16.26869 1.8796,-9.36498 5.1257,-25.13329 7.9528,-38.17898 1.1684,-5.76834 7.9527,-32.6052 9.0398,-35.86148 0.3556,-1.0922 2.159,-7.19328 4.0437,-13.61185 5.4432,-18.54708 14.4196,-44.68062 19.1541,-55.45148 0.3302,-0.7366 1.0414,-2.3876 1.6002,-3.60934 0.5842,-1.1684 1.7526,-4.13004 2.7381,-6.31698 0.9398,-2.286 2.3876,-5.56006 3.1725,-7.29233 2.5146,-5.76834 14.1097,-28.36671 17.0002,-33.12718 1.524,-2.5146 2.7381,-4.69138 2.7381,-4.78282 0,-0.762 11.0719,-17.78507 16.825,-25.83229 30.5013,-42.62195 67.648,-73.10422 110.6812,-90.83214 4.8997,-2.0828 11.8034,-4.57454 15.2756,-5.88264 -39.0396,-2.5146 -66.6684,-16.47443 -75.5315,-20.65781 -1.6002,-3.25882 -7.7292,-32.71417 -12.794,-45.11673 -0.4826,-1.4478 51.4658,14.25447 53.305,15.23237 3.4772,1.7526 36.6227,25.90621 42.3047,26.89732 18.1686,3.25882 27.1277,3.69316 72.0574,4.04368 20.823,0.13462 41.2959,0.5842 45.4884,0.9398 4.2596,0.4064 11.2242,1.0414 15.6032,1.2954 47.8907,4.13004 93.8161,14.29003 133.1541,29.55365 55.8741,21.69413 101.428,54.62394 128.5984,92.96726 3.6931,5.21716 11.9329,14.63547 11.2903,14.63547 -0.2358,0 -5.4306,-3.04292 -6.6599,-3.91414 -2.3876,-1.75259 -7.9553,-4.46531 -12.5984,-5.98677 -3.2614,-1.0922 -11.7602,-1.4478 -11.7602,-0.5334 0,0.3048 1.0922,2.60858 2.5146,5.12572 2.0828,3.82523 2.5146,5.33399 2.7381,9.68501 0.3556,5.88772 -0.6096,8.49122 -4.2596,12.35964 l -2.159,2.28599 -5.212,-3.69315 c -2.8271,-2.0828 -9.9086,-6.6421 -15.8141,-10.2362 -18.5166,-11.40459 -19.3167,-11.73733 -14.6558,-6.20776 5.6464,6.75894 11.6383,17.1577 13.4239,23.25115 1.2954,4.46532 0.8636,9.91362 -1.0922,12.66444 -1.8796,2.60858 -6.2255,5.0165 -11.0439,6.42619 -3.1724,0.8128 -6.444,0.9398 -16.5252,0.6858 -6.9469,-0.1905 -14.5644,-0.6604 -16.9367,-0.93979 -2.3876,-0.3556 -4.4882,-0.5334 -4.5593,-0.381 -0.154,0.15341 3.2613,3.69315 7.7292,7.83843 4.3485,4.13004 10.0254,10.12444 12.5857,13.11402 7.9553,9.47419 10.2336,13.82775 10.2336,19.48179 0,3.04292 -0.2794,3.82524 -1.9558,5.56006 -4.13,4.13003 -16.1899,5.12571 -32.562,2.82701 -9.1465,-1.2954 -19.5123,-3.26135 -27.1061,-5.01649 -4.3485,-1.0922 -4.9962,-1.0414 -4.2596,0.1021 0.4318,0.6096 8.603,5.65912 9.1466,5.65912 0.1455,0 1.8796,0.6858 3.8252,1.524 5.7912,2.60858 7.1628,3.17246 14.4602,5.56006 3.8253,1.1684 8.0569,2.0828 14.2596,3.60934 6.8783,1.6002 10.7848,3.04292 9.9085,3.17246 -10.668,3.04291 -58.2917,12.17167 -85.3117,14.62531 -3.8252,0.3556 -8.0569,0.762 -9.2634,0.9398 -3.6093,0.5334 -18.3007,1.524 -38.1917,2.73812 -25.88,1.4478 -85.235,3.82524 -101.3731,2.3876 -5.2121,-0.4826 -4.7777,0.6858 1.2954,3.17246 4.9225,2.08279 42.2394,13.66773 49.5922,16.33727 7.8385,2.82702 34.3921,5.33654 48.528,9.91361 7.62,2.5146 14.6939,4.69138 15.6032,5.0165 0.9398,0.3302 4.3485,1.2954 7.62,2.3876 3.2588,0.9398 9.9085,2.95656 14.6126,4.3561 4.7777,1.4478 10.1244,3.04292 11.8694,3.60934 1.7526,0.5334 3.6932,0.9398 4.13,0.9398 0.5334,0 0.9398,0.2479 0.9398,0.5842 0,0.3048 -1.7526,0.8636 -3.8252,1.2954 -2.0828,0.4318 -11.5875,2.60857 -21.0845,4.78281 -24.0894,5.65912 -30.623,7.07644 -34.2054,7.72922 -1.2954,0.24232 -3.2614,0.8128 -4.3485,1.2954 -1.7526,0.762 -1.0922,0.8636 6.0096,0.8636 10.7849,0.0353 22.3419,1.4478 30.1968,3.69316 6.8783,1.9558 8.5979,2.60858 8.5979,3.04292 0,0.2794 -2.159,0.8128 -4.7777,1.2954 -4.4882,0.7366 -7.4041,1.2954 -16.4287,3.26135 -9.2634,2.0828 -37.2311,9.4742 -57.785,15.25524 -5.3543,1.4478 -11.1557,3.17246 -12.9921,3.60934 -1.8796,0.5334 -10.1245,2.95656 -18.2575,5.21715 -21.7983,6.4262 -25.9888,7.61746 -28.0147,8.27532 -3.3909,1.0922 -1.8796,-0.4826 4.7041,-4.69138 8.5979,-5.65911 25.5323,-14.71167 38.1485,-20.36317 4.9962,-2.286 4.5593,-2.82702 -2.286,-2.3876 -18.8976,1.0922 -52.7835,5.88264 -68.6049,9.58596 -1.4478,0.3556 -6.0782,1.2954 -10.2336,2.3876 -38.9527,8.82395 -84.1233,26.29737 -119.8705,46.11977 -23.8582,13.2207 -50.9437,31.09237 -67.821,44.70297 -12.0319,9.685 -18.6766,15.2756 -25.8107,21.6459 -14.2418,12.7076 -34.5313,33.3011 -44.9097,45.5391 -1.1684,1.4478 -2.3876,2.827 -2.6086,3.0429 -0.2286,0.1839 -3.6931,4.3485 -7.6149,9.365 -9.685,12.1488 -17.879,23.688 -20.9194,29.5798 -4.4653,8.5979 -24.4932,38.51778 -24.4932,36.57878 z M 709.14225,623.647 c 10.6782,-3.47726 22.4485,-12.42567 30.623,-23.21559 3.6932,-4.89204 4.5593,-5.65912 6.8758,-5.65912 2.6086,0 10.9322,-3.17245 15.3162,-5.76833 4.2596,-2.60858 9.2634,-7.84352 10.9423,-11.44778 0.6096,-1.2954 1.1684,-2.73812 1.4478,-3.04292 0.381,-0.6858 0.4826,-0.7366 -5.3543,3.17246 -5.6464,3.82524 -10.0254,5.33654 -17.3507,6.4262 -7.6124,1.0922 -11.3894,0.5334 -33.336,-4.69138 -10.1244,-2.5146 -15.1994,-3.60934 -19.2659,-4.3561 -33.5183,-6.75893 -46.8996,-8.49121 -65.7461,-8.49121 -13.9878,-0.0356 -22.6415,0.8128 -26.2364,2.73812 l -1.651,0.81279 1.651,0.3556 c 0.9398,0.19203 4.7041,0.5334 8.2804,0.7366 10.0254,0.6096 23.6906,2.60858 32.9402,4.69138 l 4.3485,1.0414 0.4064,6.75894 c 0.6604,11.62049 4.2596,19.41575 12.319,27.14929 6.9469,6.64209 17.3101,11.76019 27.9885,13.82013 4.0437,0.7366 11.7373,0.24943 15.7074,-1.0414 z m 287.88883,242.86582 c 0,-0.2794 0.6096,-1.651 1.4478,-3.1725 2.60862,-5.1384 9.03742,-11.7551 10.02542,-19.7764 0.9397,-7.4041 0.9397,-8.7122 0,-15.57274 -0.2794,-20.74671 -6.2966,-53.13119 -13.81502,-58.7837 -18.78083,-14.03857 -41.47853,-25.05963 -74.14923,-35.99204 -7.0942,-2.3876 -14.5009,-4.69138 -16.4922,-5.21716 -1.9558,-0.5334 -6.5126,-1.60019 -9.9086,-2.73811 -20.7187,-5.65912 -54.68,-12.63396 -75.3793,-15.64894 -2.159,-0.3302 -7.0942,-1.0922 -10.96,-1.6002 -15.8827,-2.3876 -44.3665,-5.77087 -64.7545,-7.61745 -4.0437,-0.381 -4.7778,-1.1684 -8.8214,-1.524 -4.0437,-0.381 -11.3996,-0.8636 -16.4084,-1.0922 -4.9962,-0.23622 -8.9256,-0.6604 -8.8214,-0.9144 0.1661,-0.2794 2.7381,-0.6858 5.7911,-0.9144 3.043,-0.23521 8.5979,-0.7112 12.4537,-1.0922 3.8252,-0.3556 6.4439,-0.8128 12.8244,-1.4478 6.444,-0.5842 14.76,-1.2954 18.5852,-1.6002 3.8252,-0.381 11.7449,-1.0922 17.592,-1.6002 5.8598,-0.5842 13.0099,-1.2954 15.9411,-1.6002 2.9565,-0.3556 9.1465,-1.0922 13.9471,-1.6002 8.608,-1.0414 10.1244,-1.1684 22.2504,-3.3909 26.0713,-4.57453 37.5356,-11.44777 36.3616,-21.84653 -0.762,-6.85545 -8.0569,-17.39391 -21.1557,-30.73144 l -7.9578,-8.05688 h 3.2614 c 7.62,0 16.5913,-2.95656 23.8074,-7.83844 7.7292,-5.21715 20.4775,-14.14525 25.1028,-25.00121 0.9906,-2.38759 2.0828,-4.89457 2.3876,-5.65911 1.1684,-2.82702 3.9141,-11.83894 3.9141,-13.04544 0,-0.6858 0.4318,-1.4478 0.9398,-1.6002 0.9906,-0.381 15.1105,6.31444 26.8278,13.19022 22.1462,12.77365 38.0616,24.42717 46.9788,34.40098 2.3876,2.73812 5.8648,5.56006 9.4742,7.72922 21.73475,13.28419 45.37925,34.03141 61.15725,53.69811 14.8082,18.45818 25.6151,38.75683 30.3969,57.08445 3.2614,12.62125 3.6932,16.41093 3.6932,31.20973 0,14.75485 -0.4826,18.76297 -3.6932,30.96233 -5.1384,19.58847 -34.2181,47.62095 -58.7037,61.86475 -5.3542,4.2595 -14.21632,7.9552 -14.21632,6.8707 z m -11.16073,-75.11743 c -0.5842,-0.17298 -1.8796,-0.6858 -2.9566,-1.0922 -26.9755,-10.34796 -50.468,-15.93342 -68.7283,-20.03805 -20.828,-5.65912 -48.6582,-10.2362 -67.3239,-13.02512 -16.2052,-2.5146 -29.4363,-3.91414 -43.5343,-5.0165 -11.3462,-0.8128 -39.4002,-0.8636 -45.7777,-0.0521 -2.5146,0.3302 -4.7777,0.4826 -4.9225,0.3556 -0.4826,-0.4318 6.8783,-4.69137 12.1895,-7.07643 7.5133,-3.39344 21.5823,-7.95274 32.8752,-10.77976 10.9651,-2.82702 11.5824,-2.95656 11.2191,-3.26136 -0.147,-0.14046 -5.4305,-0.6096 -11.8846,-1.0414 -11.4351,-0.7366 -25.0495,-2.159 -32.875,-3.3909 -12.1589,-1.95579 -29.1363,-5.01649 -35.8617,-6.64209 -14.5847,-3.47726 -17.5895,-2.82702 -28.5102,-6.096 -20.2184,-5.98678 -22.5654,-6.75894 -22.2098,-7.29234 0.1789,-0.3048 1.8796,-0.4064 3.8253,-0.23063 1.8796,0.16129 10.3403,0.6096 18.7553,0.9144 34.0967,1.4478 51.5102,0.22657 89.5256,4.69138 22.3418,2.73812 57.9803,8.7122 77.121,13.30705 12.3012,2.95656 14.6888,3.47726 25.8975,6.6421 10.7849,2.95656 30.8404,9.36498 35.5356,11.27252 1.0922,0.4318 2.6086,1.0922 3.2614,1.2954 9.0373,3.60933 7.6124,2.15899 22.7635,12.32915 13.7058,9.26338 24.1452,19.16429 30.0146,28.51885 3.0429,4.78282 3.3909,6.20776 1.651,5.65912 z"
     id="path51227-9"
     sodipodi:nodetypes="ccscccssccccccccscsccccccccccccccccccssccccccccccsccccscscccccccccccccccccccscscccccscccsccscscsccsccccsccccsscccccccccscccsccccccccccccsscscsccccccccsccscsccccscccccscccccccscssccccccscccccccccccccccccsccccsccccccccccscccsccccccccccccsccccsscsccccccccscccsccccsssccccccccccccccccccsccccccccccc" />
</svg>
