<?xml version="1.0" encoding="UTF-8" standalone="no"?>
<svg
   width="498.898"
   height="544.252"
   viewBox="0 0 1320 1440"
   version="1.1"
   id="svg18291"
   sodipodi:docname="0_FALCON.svg"
   inkscape:version="1.2 (dc2aedaf03, 2022-05-15)"
   xmlns:inkscape="http://www.inkscape.org/namespaces/inkscape"
   xmlns:sodipodi="http://sodipodi.sourceforge.net/DTD/sodipodi-0.dtd"
   xmlns="http://www.w3.org/2000/svg"
   xmlns:svg="http://www.w3.org/2000/svg">
  <sodipodi:namedview
     id="namedview18293"
     pagecolor="#ffffff"
     bordercolor="#666666"
     borderopacity="1.0"
     inkscape:showpageshadow="2"
     inkscape:pageopacity="0.0"
     inkscape:pagecheckerboard="0"
     inkscape:deskcolor="#d1d1d1"
     showgrid="false"
     inkscape:zoom="1.3789568"
     inkscape:cx="34.446329"
     inkscape:cy="188.54833"
     inkscape:window-width="3840"
     inkscape:window-height="2036"
     inkscape:window-x="3828"
     inkscape:window-y="-12"
     inkscape:window-maximized="1"
     inkscape:current-layer="svg18291" />
  <style
     id="style18192"><![CDATA[.B{color-interpolation-filters:sRGB}.C{fill-opacity:.98}]]></style>
  <defs
     id="defs18229">
    <linearGradient
       id="A"
       x1="236.943"
       y1="670.458"
       x2="278.677"
       y2="670.458"
       spreadMethod="reflect"
       gradientUnits="userSpaceOnUse">
      <stop
         offset="0"
         stop-color="#ffd285"
         id="stop18194" />
      <stop
         offset=".232"
         stop-color="#ffcd79"
         id="stop18196" />
      <stop
         offset=".616"
         stop-color="#ffca73"
         id="stop18198" />
      <stop
         offset=".808"
         stop-color="#ffd386"
         id="stop18200" />
      <stop
         offset="1"
         stop-color="#ffc86e"
         id="stop18202" />
    </linearGradient>
    <linearGradient
       id="B"
       x1="660"
       y1="115.844"
       x2="670.254"
       y2="1157.469"
       gradientUnits="userSpaceOnUse">
      <stop
         offset=".604"
         stop-color="#fff"
         id="stop18205" />
      <stop
         offset="1"
         id="stop18207" />
    </linearGradient>
    <filter
       id="C"
       x="-0.010152573"
       y="-0.010558682"
       width="1.0203051"
       height="1.0211174"
       class="B">
      <feGaussianBlur
         stdDeviation="2.441"
         id="feGaussianBlur18210" />
    </filter>
    <filter
       inkscape:label="Combined Lighting"
       inkscape:menu="Bevels"
       inkscape:menu-tooltip="Basic specular bevel to use for building textures"
       style="color-interpolation-filters:sRGB;"
       id="filter1922"
       x="-0.035973705"
       y="-0.036083285"
       width="1.0719474"
       height="1.0721666">
      <feGaussianBlur
         stdDeviation="6"
         in="SourceGraphic"
         result="result0"
         id="feGaussianBlur1904" />
      <feDiffuseLighting
         lighting-color="rgb(255,255,255)"
         diffuseConstant="1"
         surfaceScale="4"
         result="result5"
         id="feDiffuseLighting1908">
        <feDistantLight
           elevation="45"
           azimuth="235"
           id="feDistantLight1906" />
      </feDiffuseLighting>
      <feComposite
         k1="1.4"
         in2="SourceGraphic"
         in="result5"
         result="fbSourceGraphic"
         operator="arithmetic"
         id="feComposite1910" />
      <feGaussianBlur
         result="result0"
         in="fbSourceGraphic"
         stdDeviation="6"
         id="feGaussianBlur1912" />
      <feSpecularLighting
         specularExponent="25"
         specularConstant="1"
         surfaceScale="4"
         lighting-color="rgb(255,255,255)"
         result="result1"
         in="result0"
         id="feSpecularLighting1916">
        <feDistantLight
           azimuth="280"
           elevation="45"
           id="feDistantLight1914" />
      </feSpecularLighting>
      <feComposite
         k3="1"
         k2="1"
         operator="arithmetic"
         in="fbSourceGraphic"
         in2="result1"
         result="result4"
         id="feComposite1918" />
      <feComposite
         operator="in"
         result="result2"
         in2="SourceGraphic"
         in="result4"
         id="feComposite1920" />
    </filter>
  </defs>
  <path
     style="mix-blend-mode:multiply"
     d="M-2765.718 268.206l28.198 35.189h538.751l10.087-9.413-86.673-527.828-31.462-17.601z"
     transform="matrix(-2.0051 0 0 2.0051 -4355.6821 800.27119)"
     opacity=".5"
     filter="url(#C)"
     id="path18231" />
  <path
     d="M660 115.844L254.043 268.378l-139.111 999.236 13.312 73.804 20.099 16.718H1169.89l20.099-16.718 13.312-73.804-137.282-999.246z"
     fill="url(#A)"
     id="path18233" />
  <path
     d="M660 115.844L253.994 268.369l-137.243 999.246 11.442 73.812 20.099 16.719h1021.563l20.134-16.728 15.13-73.802-139.1-999.248z"
     opacity=".25"
     fill="url(#B)"
     style="mix-blend-mode:overlay"
     id="path18235" />
  <path
     d="M1182.559 1262.571l-.043 21.064 20.75-16.013-20.707-5.052z"
     opacity=".8"
     fill="#fff"
     id="path18237" />
  <path
     d="M1203.266 1267.622l-20.75 16.013-12.661 74.512 20.099-16.719 13.312-73.805z"
     opacity=".6"
     id="path18239" />
  <g
     fill="#fff"
     id="g18247">
    <path
       d="M254.044 268.378l17.664 13.248 388.293-149.381v-16.402z"
       opacity=".3"
       id="path18241" />
    <path
       d="M1066.019 268.368l-17.664 13.248L660 132.246v-16.402z"
       opacity=".3"
       id="path18243" />
    <path
       d="M1064.146 251.267l-17.664 13.248 138.452 996.966 20.707 5.052z"
       opacity=".3"
       id="path18245" />
  </g>
  <path
     d="M253.994 268.369l17.664 13.248-136.07 980.953-20.707 5.052z"
     opacity=".4"
     id="path18249" />
  <path
     d="M114.881 1267.622l20.75 16.013 12.661 74.512-20.099-16.719-13.312-73.805z"
     opacity=".9"
     id="path18251" />
  <path
     d="M135.588 1262.571l.043 21.064-20.75-16.013 20.707-5.052z"
     opacity=".6"
     id="path18253" />
  <path
     d="M135.588 1262.571h1046.971l-.043 21.064H135.631z"
     opacity=".2"
     id="path18255" />
  <path
     d="M1182.516 1283.635l-12.661 74.512H148.292l-12.661-74.512z"
     opacity=".7"
     id="path18257" />
  <path
     style="fill:#9b0000;fill-opacity:1;stroke-width:0.664108;filter:url(#filter1922)"
     d="m 475.00163,1165.434 c 1.1684,-14.7828 1.7526,-24.4728 2.286,-43.9973 0.8128,-28.1191 0.9906,-46.3784 0.5334,-46.8706 -0.2106,-0.2118 -1.524,1.2954 -2.827,3.4772 -5.5601,8.7122 -12.286,16.9825 -20.4927,25.141 -32.4516,33.0865 -91.1956,48.6638 -131.21659,50.4316 -10.2362,0.381 -33.2575,-0.5334 -34.5747,-1.2954 -0.3302,-0.1986 2.6085,-3.0429 6.5328,-6.4439 8.8265,-7.5134 26.6583,-25.3975 36.0139,-36.0442 3.8253,-4.3484 7.5133,-8.4912 8.1636,-9.3649 19.37759,-22.6441 38.57849,-51.1106 51.50609,-73.4309 9.1465,-15.8166 37.1297,-36.60469 36.2585,-37.47286 -0.1651,-0.16434 -1.7526,2.15899 -3.6094,5.13841 -16.3042,27.23645 -47.358,35.07685 -95.41249,69.49895 -23.9243,17.1374 -39.0393,29.9799 -48.6344,41.305 -14.35097,16.9418 -22.75837,33.9011 -26.97553,54.4047 l -1.524,7.2873 -0.9398,-9.2634 c -1.44779,-13.1623 -1.16839,-51.1624 0.24943,-63.6328 3.17246,-26.5715 8.49122,-48.0141 17.50314,-70.0672 52.93406,-108.0655 183.79685,-195.48464 279.89285,-227.78733 10.9195,-3.47726 58.3263,-21.58238 58.7957,-21.0439 0.1275,0.12726 -3.3909,3.25882 -7.8385,6.85546 -12.1894,10.0203 -32.084,29.64052 -45.3577,44.82235 -3.2614,3.69569 -14.4298,17.82571 -18.4887,23.35529 -5.4432,7.51331 -17.6987,25.85414 -17.6987,26.67125 0,0.4064 3.0429,-2.28599 6.858,-6.00963 3.6931,-3.69316 8.2753,-7.83844 10.1244,-9.36498 40.8427,-37.45457 116.9334,-70.88578 150.2674,-83.09784 14.8056,-5.65912 63.0628,-24.43733 63.4537,-23.98775 -31.213,31.82771 -54.1159,46.22087 -73.285,69.67852 37.9054,-24.70911 88.8486,-42.01742 119.7342,-58.01053 0.3302,0 -1.0922,1.524 -3.0429,3.60934 -1.9558,1.9558 -5.3543,5.21716 -7.2872,7.51332 -8.4913,9.15161 -28.9449,34.63136 -28.2928,35.28338 0.1856,0.18389 2.3876,-1.1684 4.9225,-3.26136 7.9553,-6.31698 16.0375,-11.48842 31.5056,-20.12441 10.0254,-5.65912 30.45,-14.95552 39.8798,-19.21256 2.9565,-1.2954 7.2923,-3.26135 9.6901,-4.35609 2.3876,-1.0922 4.7041,-2.0828 4.9225,-2.0828 0.2794,0 -3.4773,2.73812 -8.3871,6.09599 -16.83,11.43508 -16.6903,12.92098 -30.3108,26.58668 -11.2243,11.26998 -16.8935,18.87981 -22.037,29.66211 l -2.8271,6.00964 c -4.7548,16.60651 -4.3865,24.7726 -1.016,39.16957 10.2566,53.74841 33.2364,119.48536 53.2232,163.71538 0.3302,0.7366 3.1724,7.8385 6.2966,15.9411 3.1725,8.0568 8.7122,21.7804 12.4029,30.549 3.6093,8.7122 6.731,16.317 6.9469,16.7666 0.9906,2.6085 -6.9469,-1.2954 -13.5662,-6.6599 -9.5809,-7.7292 -21.3665,-21.5189 -33.04,-38.8224 -2.5146,-3.6931 -4.9226,-6.5125 -5.1385,-6.2966 -0.6858,0.6858 0.8636,9.1465 2.8271,14.7421 3.6931,10.8966 13.589,28.0584 23.5432,40.609 1.8796,2.286 2.7381,3.9142 2.159,3.6957 -3.1724,-1.2192 -27.6408,-18.1889 -30.3276,-21.0413 -0.1851,-0.1903 -2.9565,-2.5146 -6.0756,-5.1385 -13.0734,-10.9982 -29.1755,-29.7319 -36.414,-42.3915 -1.524,-2.827 -4.2596,-8.2804 -6.0096,-12.3012 -1.7526,-4.0437 -3.2614,-7.5134 -3.6094,-7.62 -0.2171,-0.2165 -0.4064,1.0922 -0.4064,3.0429 0,4.5593 -1.651,15.5905 -3.2613,21.689 -5.3543,19.746 -19.8933,43.3482 -37.7746,61.0487 l -6.0097,6.0096 2.286,-6.2255 c 5.8598,-15.5321 8.9256,-34.0749 8.9256,-54.4053 0.015,-11.2243 -1.0922,-26.5844 -1.9558,-27.5623 -0.2794,-0.3048 -1.1684,1.4478 -1.9558,3.9142 -6.731,20.9549 -25.5712,42.8304 -55.1358,64.0963 -8.8214,6.2967 -13.7744,9.5809 -26.4106,17.0891 -10.7798,6.444 -24.6583,13.6551 -25.2019,13.109 -0.1793,-0.1783 0.4318,-1.2954 1.2954,-2.5146 3.6094,-4.7778 7.62,-13.9802 10.0254,-22.7889 2.6086,-9.6901 3.4772,-17.4803 3.3909,-31.21 -0.062,-11.4986 -1.4478,-26.3454 -2.6086,-28.2191 -0.6096,-0.9398 -1.651,-0.1852 -1.651,1.1684 0,0.6096 -1.651,4.3485 -3.6093,8.3871 -6.8758,14.069 -16.0935,26.0931 -33.5839,43.5051 -26.6662,25.5216 -35.0451,32.7918 -67.4629,56.2167 -11.6281,8.3871 -38.1789,26.1366 -39.0746,26.1366 -0.2298,0 -0.2794,-1.651 -0.1023,-3.8252 z M 264.18047,1008.8677 c 0,-0.2113 0.8636,-3.0429 1.9558,-6.2966 2.08279,-6.07825 2.82701,-8.92559 5.98677,-21.10996 12.5247,-49.58205 22.1031,-102.96216 31.4782,-148.14417 11.3081,-55.36359 19.2659,-106.25704 35.941,-163.0316 5.44319,-18.54708 14.41959,-44.68062 19.15409,-55.45148 0.3302,-0.7366 1.0414,-2.3876 1.6002,-3.60934 0.5842,-1.1684 1.7526,-4.13004 2.7381,-6.31698 0.9398,-2.286 2.3876,-5.56006 3.1725,-7.29233 2.5146,-5.76834 14.1097,-28.36671 17.0002,-33.12718 1.524,-2.5146 2.7381,-4.69138 2.7381,-4.78282 0,-0.762 11.0719,-17.78507 16.825,-25.83229 30.5013,-42.62195 67.648,-73.10422 110.6812,-90.83214 4.8997,-2.0828 11.8034,-4.57454 15.2756,-5.88264 -39.0396,-2.5146 -66.6684,-16.47443 -75.5315,-20.65781 -1.6002,-3.25882 -7.7292,-32.71417 -12.794,-45.11673 -0.4826,-1.4478 51.4658,14.25447 53.305,15.23237 3.4772,1.7526 36.6227,25.90621 42.3047,26.89732 18.1686,3.25882 27.1277,3.69316 72.0574,4.04368 20.823,0.13462 41.2959,0.5842 45.4884,0.9398 4.2596,0.4064 11.2242,1.0414 15.6032,1.2954 47.8907,4.13004 93.8161,14.29003 133.1541,29.55365 55.8741,21.69413 101.428,54.62394 128.5984,92.96726 3.6931,5.21716 11.9329,14.63547 11.2903,14.63547 -0.2358,0 -5.4306,-3.04292 -6.6599,-3.91414 -2.3876,-1.75259 -7.9553,-4.46531 -12.5984,-5.98677 -3.2614,-1.0922 -11.7602,-1.4478 -11.7602,-0.5334 0,0.3048 1.0922,2.60858 2.5146,5.12572 2.0828,3.82523 2.5146,5.33399 2.7381,9.68501 0.3556,5.88772 -0.6096,8.49122 -4.2596,12.35964 l -2.159,2.28599 -5.212,-3.69315 c -2.8271,-2.0828 -9.9086,-6.6421 -15.8141,-10.2362 -18.5166,-11.40459 -19.3167,-11.73733 -14.6558,-6.20776 5.6464,6.75894 11.6383,17.1577 13.4239,23.25115 1.2954,4.46532 0.8636,9.91362 -1.0922,12.66444 -1.8796,2.60858 -6.2255,5.0165 -11.0439,6.42619 -3.1724,0.8128 -6.444,0.9398 -16.5252,0.6858 -6.9469,-0.1905 -14.5644,-0.6604 -16.9367,-0.93979 -2.3876,-0.3556 -4.4882,-0.5334 -4.5593,-0.381 -0.154,0.15341 3.2613,3.69315 7.7292,7.83843 4.3485,4.13004 10.0254,10.12444 12.5857,13.11402 7.9553,9.47419 10.2336,13.82775 10.2336,19.48179 0,3.04292 -0.2794,3.82524 -1.9558,5.56006 -4.13,4.13003 -16.1899,5.12571 -32.562,2.82701 -9.1465,-1.2954 -19.5123,-3.26135 -27.1061,-5.01649 -4.3485,-1.0922 -4.9962,-1.0414 -4.2596,0.1021 0.4318,0.6096 8.603,5.65912 9.1466,5.65912 0.1455,0 1.8796,0.6858 3.8252,1.524 5.7912,2.60858 7.1628,3.17246 14.4602,5.56006 3.8253,1.1684 8.0569,2.0828 14.2596,3.60934 6.8783,1.6002 10.7848,3.04292 9.9085,3.17246 -10.668,3.04291 -58.2917,12.17167 -85.3117,14.62531 -3.8252,0.3556 -8.0569,0.762 -9.2634,0.9398 -3.6093,0.5334 -18.3007,1.524 -38.1917,2.73812 -25.88,1.4478 -85.235,3.82524 -101.3731,2.3876 -5.2121,-0.4826 -4.7777,0.6858 1.2954,3.17246 4.9225,2.08279 42.2394,13.66773 49.5922,16.33727 7.8385,2.82702 34.3921,5.33654 48.528,9.91361 7.62,2.5146 14.6939,4.69138 15.6032,5.0165 0.9398,0.3302 4.3485,1.2954 7.62,2.3876 3.2588,0.9398 9.9085,2.95656 14.6126,4.3561 4.7777,1.4478 10.1244,3.04292 11.8694,3.60934 1.7526,0.5334 3.6932,0.9398 4.13,0.9398 0.5334,0 0.9398,0.2479 0.9398,0.5842 0,0.3048 -1.7526,0.8636 -3.8252,1.2954 -2.0828,0.4318 -11.5875,2.60857 -21.0845,4.78281 -24.0894,5.65912 -30.623,7.07644 -34.2054,7.72922 -1.2954,0.24232 -3.2614,0.8128 -4.3485,1.2954 -1.7526,0.762 -1.0922,0.8636 6.0096,0.8636 10.7849,0.0353 22.3419,1.4478 30.1968,3.69316 6.8783,1.9558 8.5979,2.60858 8.5979,3.04292 0,0.2794 -2.159,0.8128 -4.7777,1.2954 -4.4882,0.7366 -7.4041,1.2954 -16.4287,3.26135 -68.01,10.04824 -102.6386,37.5168 -164.9915,67.20304 -3.3909,1.0922 -1.8796,-0.4826 4.7041,-4.69138 8.5979,-5.65911 46.1121,-47.91987 58.7283,-53.57137 4.9962,-2.286 4.5593,-2.82702 -2.286,-2.3876 -20.8712,2.159 -34.2184,5.842 -51.4769,10.3378 -101.3706,40.56327 -237.09139,100.97512 -289.55479,199.99545 -4.4653,8.5979 -24.4932,38.51778 -24.4932,36.57878 z M 746.09213,614.89256 c 10.6782,-3.47726 22.4485,-12.42567 30.623,-23.21559 3.6932,-4.89204 4.5593,-5.65912 6.8758,-5.65912 2.6086,0 10.9322,-3.17245 15.3162,-5.76833 4.2596,-2.60858 9.2634,-7.84352 10.9423,-11.44778 0.6096,-1.2954 1.1684,-2.73812 1.4478,-3.04292 0.381,-0.6858 0.4826,-0.7366 -5.3543,3.17246 -5.6464,3.82524 -10.0254,5.33654 -17.3507,6.4262 -7.6124,1.0922 -11.3894,0.5334 -33.336,-4.69138 -10.1244,-2.5146 -15.1994,-3.60934 -19.2659,-4.3561 -33.5183,-6.75893 -46.8996,-8.49121 -65.7461,-8.49121 -13.9878,-0.0356 -22.6415,0.8128 -26.2364,2.73812 l -1.651,0.81279 1.651,0.3556 c 0.9398,0.19203 4.7041,0.5334 8.2804,0.7366 10.0254,0.6096 23.6906,2.60858 32.9402,4.69138 l 4.3485,1.0414 0.4064,6.75894 c 0.6604,11.62049 4.2596,19.41575 12.319,27.14929 6.9469,6.64209 17.3101,11.76019 27.9885,13.82013 4.0437,0.7366 11.7373,0.24943 15.7074,-1.0414 z m 227.0851,231.17267 c 0,-0.2794 0.6096,-1.651 1.4478,-3.17246 12.0421,-64.74559 30.21557,-78.29166 -17.1349,-118.43177 -7.0942,-2.3876 -14.5008,-4.69138 -16.4922,-5.21716 -1.9558,-0.5334 -6.5125,-1.60019 -9.9085,-2.73811 -49.8142,-13.02512 -101.5733,-20.30984 -151.0939,-24.86659 -4.0436,-0.381 -4.7777,-1.1684 -8.8214,-1.524 -4.0437,-0.381 -11.3995,-0.8636 -16.4084,-1.0922 -4.9962,-0.23622 -8.9255,-0.6604 -8.8214,-0.9144 0.1661,-0.2794 2.7381,-0.6858 5.7912,-0.9144 3.0429,-0.23521 8.5979,-0.7112 12.4536,-1.0922 3.8253,-0.3556 6.444,-0.8128 12.8245,-1.4478 6.4439,-0.5842 14.7599,-1.2954 18.5851,-1.6002 30.24,-5.93852 104.9391,-7.3787 106.0922,-30.03803 -0.762,-6.85545 -8.0568,-17.39391 -21.1556,-30.73144 l -7.9578,-8.05688 h 3.2613 c 7.62,0 16.5913,-2.95656 23.8074,-7.83844 7.7293,-5.21715 20.4775,-14.14525 25.1029,-25.00121 0.9906,-2.38759 2.0827,-4.89457 2.3875,-5.65911 1.1684,-2.82702 3.9142,-11.83894 3.9142,-13.04544 0,-0.6858 0.4318,-1.4478 0.9398,-1.6002 65.02605,29.73602 116.44507,127.15057 117.72447,185.61957 0,14.75485 -0.4826,18.76297 -3.6932,30.96233 -5.1384,19.58847 -34.2181,47.62091 -58.70377,61.86472 -5.3543,4.25958 -14.2164,7.95528 -14.2164,6.8707 z m -1.3462,-77.92361 c -0.5842,-0.17298 -1.8796,-0.6858 -2.9566,-1.0922 -57.9374,-20.37079 -70.1075,-18.94585 -128.605,-23.58135 -11.3461,-0.8128 -39.4002,-0.8636 -45.7776,-0.0521 -2.5146,0.3302 -4.7777,0.4826 -4.9225,0.3556 -0.4826,-0.4318 6.8783,-4.69138 12.1894,-7.07644 7.5134,-3.39344 21.5824,-7.95274 32.8753,-10.77975 10.9651,-2.82702 11.5823,-2.95656 11.2191,-3.26136 -0.147,-0.14046 -5.4305,-0.6096 -11.8846,-1.0414 -11.4351,-0.7366 -25.0495,-2.159 -32.875,-3.3909 -12.159,-1.9558 -29.1363,-5.0165 -35.8617,-6.6421 -14.5847,-3.47726 -17.5895,-2.82702 -28.5102,-6.096 -20.2184,-5.98677 -22.5654,-6.75893 -22.2098,-7.29233 0.1788,-0.3048 1.8796,-0.4064 3.8253,-0.23063 1.8796,0.16129 10.3403,0.6096 18.7553,0.9144 34.0967,1.44779 50.8488,3.53313 88.8642,7.99845 66.4136,10.58672 112.8031,9.74852 144.2734,55.55841 3.0429,4.78282 3.3909,6.20776 1.651,5.65912 z"
     id="path51227"
     sodipodi:nodetypes="ccscccsccccscscccccccccccsscccccccsccccscsccccccccccccccccscscccccscccsccscscccsccccccccscccsccccccccccccsscscsccccccccsccscsccccscccccscccccccscssccccccsccccccccccccsccccccccccscccsccccccccccccsscsccccscccsccccccccccccccccccscccccc" />
</svg>
