<?xml version="1.0" encoding="UTF-8" standalone="no"?>
<svg
   width="498.898"
   height="544.252"
   viewBox="0 0 1320 1440"
   version="1.1"
   id="svg18291"
   sodipodi:docname="0_HORSE.svg"
   inkscape:version="1.2 (dc2aedaf03, 2022-05-15)"
   xmlns:inkscape="http://www.inkscape.org/namespaces/inkscape"
   xmlns:sodipodi="http://sodipodi.sourceforge.net/DTD/sodipodi-0.dtd"
   xmlns="http://www.w3.org/2000/svg"
   xmlns:svg="http://www.w3.org/2000/svg">
  <sodipodi:namedview
     id="namedview18293"
     pagecolor="#ffffff"
     bordercolor="#666666"
     borderopacity="1.0"
     inkscape:showpageshadow="2"
     inkscape:pageopacity="0.0"
     inkscape:pagecheckerboard="0"
     inkscape:deskcolor="#d1d1d1"
     showgrid="false"
     inkscape:zoom="1.3789568"
     inkscape:cx="-127.27012"
     inkscape:cy="181.29647"
     inkscape:window-width="3840"
     inkscape:window-height="2036"
     inkscape:window-x="-12"
     inkscape:window-y="-12"
     inkscape:window-maximized="1"
     inkscape:current-layer="svg18291" />
  <style
     id="style18192"><![CDATA[.B{color-interpolation-filters:sRGB}.C{fill-opacity:.98}]]></style>
  <defs
     id="defs18229">
    <linearGradient
       id="A"
       x1="236.943"
       y1="670.458"
       x2="278.677"
       y2="670.458"
       spreadMethod="reflect"
       gradientUnits="userSpaceOnUse">
      <stop
         offset="0"
         stop-color="#ffd285"
         id="stop18194" />
      <stop
         offset=".232"
         stop-color="#ffcd79"
         id="stop18196" />
      <stop
         offset=".616"
         stop-color="#ffca73"
         id="stop18198" />
      <stop
         offset=".808"
         stop-color="#ffd386"
         id="stop18200" />
      <stop
         offset="1"
         stop-color="#ffc86e"
         id="stop18202" />
    </linearGradient>
    <linearGradient
       id="B"
       x1="660"
       y1="115.844"
       x2="670.254"
       y2="1157.469"
       gradientUnits="userSpaceOnUse">
      <stop
         offset=".604"
         stop-color="#fff"
         id="stop18205" />
      <stop
         offset="1"
         id="stop18207" />
    </linearGradient>
    <filter
       id="C"
       x="-0.010152573"
       y="-0.010558682"
       width="1.0203051"
       height="1.0211174"
       class="B">
      <feGaussianBlur
         stdDeviation="2.441"
         id="feGaussianBlur18210" />
    </filter>
    <filter
       inkscape:label="Combined Lighting"
       inkscape:menu="Bevels"
       inkscape:menu-tooltip="Basic specular bevel to use for building textures"
       style="color-interpolation-filters:sRGB;"
       id="filter22401"
       x="-0.034764606"
       y="-0.029154235"
       width="1.0695292"
       height="1.0583085">
      <feGaussianBlur
         stdDeviation="6"
         in="SourceGraphic"
         result="result0"
         id="feGaussianBlur22383" />
      <feDiffuseLighting
         lighting-color="rgb(255,255,255)"
         diffuseConstant="1"
         surfaceScale="4"
         result="result5"
         id="feDiffuseLighting22387">
        <feDistantLight
           elevation="45"
           azimuth="235"
           id="feDistantLight22385" />
      </feDiffuseLighting>
      <feComposite
         k1="1.4"
         in2="SourceGraphic"
         in="result5"
         result="fbSourceGraphic"
         operator="arithmetic"
         id="feComposite22389" />
      <feGaussianBlur
         result="result0"
         in="fbSourceGraphic"
         stdDeviation="6"
         id="feGaussianBlur22391" />
      <feSpecularLighting
         specularExponent="25"
         specularConstant="1"
         surfaceScale="4"
         lighting-color="rgb(255,255,255)"
         result="result1"
         in="result0"
         id="feSpecularLighting22395">
        <feDistantLight
           azimuth="280"
           elevation="45"
           id="feDistantLight22393" />
      </feSpecularLighting>
      <feComposite
         k3="1"
         k2="1"
         operator="arithmetic"
         in="fbSourceGraphic"
         in2="result1"
         result="result4"
         id="feComposite22397" />
      <feComposite
         operator="in"
         result="result2"
         in2="SourceGraphic"
         in="result4"
         id="feComposite22399" />
    </filter>
  </defs>
  <path
     style="mix-blend-mode:multiply"
     d="M-2765.718 268.206l28.198 35.189h538.751l10.087-9.413-86.673-527.828-31.462-17.601z"
     transform="matrix(-2.0051 0 0 2.0051 -4355.6821 800.27119)"
     opacity=".5"
     filter="url(#C)"
     id="path18231" />
  <path
     d="M660 115.844L254.043 268.378l-139.111 999.236 13.312 73.804 20.099 16.718H1169.89l20.099-16.718 13.312-73.804-137.282-999.246z"
     fill="url(#A)"
     id="path18233" />
  <path
     d="M660 115.844L253.994 268.369l-137.243 999.246 11.442 73.812 20.099 16.719h1021.563l20.134-16.728 15.13-73.802-139.1-999.248z"
     opacity=".25"
     fill="url(#B)"
     style="mix-blend-mode:overlay"
     id="path18235" />
  <path
     d="M1182.559 1262.571l-.043 21.064 20.75-16.013-20.707-5.052z"
     opacity=".8"
     fill="#fff"
     id="path18237" />
  <path
     d="M1203.266 1267.622l-20.75 16.013-12.661 74.512 20.099-16.719 13.312-73.805z"
     opacity=".6"
     id="path18239" />
  <g
     fill="#fff"
     id="g18247">
    <path
       d="M254.044 268.378l17.664 13.248 388.293-149.381v-16.402z"
       opacity=".3"
       id="path18241" />
    <path
       d="M1066.019 268.368l-17.664 13.248L660 132.246v-16.402z"
       opacity=".3"
       id="path18243" />
    <path
       d="M1064.146 251.267l-17.664 13.248 138.452 996.966 20.707 5.052z"
       opacity=".3"
       id="path18245" />
  </g>
  <path
     d="M253.994 268.369l17.664 13.248-136.07 980.953-20.707 5.052z"
     opacity=".4"
     id="path18249" />
  <path
     d="M114.881 1267.622l20.75 16.013 12.661 74.512-20.099-16.719-13.312-73.805z"
     opacity=".9"
     id="path18251" />
  <path
     d="M135.588 1262.571l.043 21.064-20.75-16.013 20.707-5.052z"
     opacity=".6"
     id="path18253" />
  <path
     d="M135.588 1262.571h1046.971l-.043 21.064H135.631z"
     opacity=".2"
     id="path18255" />
  <path
     d="M1182.516 1283.635l-12.661 74.512H148.292l-12.661-74.512z"
     opacity=".7"
     id="path18257" />
  <path
     id="path13156"
     style="color:#000000;font-style:normal;font-variant:normal;font-weight:normal;font-stretch:normal;font-size:medium;line-height:normal;font-family:sans-serif;font-variant-ligatures:normal;font-variant-position:normal;font-variant-caps:normal;font-variant-numeric:normal;font-variant-alternates:normal;font-variant-east-asian:normal;font-feature-settings:normal;font-variation-settings:normal;text-indent:0;text-align:start;text-decoration:none;text-decoration-line:none;text-decoration-style:solid;text-decoration-color:#000000;letter-spacing:normal;word-spacing:normal;text-transform:none;writing-mode:lr-tb;direction:ltr;text-orientation:mixed;dominant-baseline:auto;baseline-shift:baseline;text-anchor:start;white-space:normal;shape-padding:0;shape-margin:0;inline-size:0;clip-rule:nonzero;display:inline;overflow:visible;visibility:visible;isolation:auto;mix-blend-mode:normal;color-interpolation:sRGB;color-interpolation-filters:linearRGB;solid-color:#000000;solid-opacity:1;fill:#020202;fill-opacity:1;fill-rule:nonzero;stroke:none;stroke-width:30.9382;stroke-linecap:butt;stroke-linejoin:round;stroke-miterlimit:4;stroke-dasharray:none;stroke-dashoffset:0;stroke-opacity:1;color-rendering:auto;image-rendering:auto;shape-rendering:auto;text-rendering:auto;enable-background:accumulate;stop-color:#000000;filter:url(#filter22401)"
     d="m 559.21282,222.7172 -20.2895,28.97504 c -11.0261,16.13661 -17.2491,23.55595 -23.1826,31.86377 -5.9867,8.31596 -10.9296,17.32026 -17.3735,33.33114 l -2.9566,5.7785 4.3663,5.77087 c 20.4114,22.84729 54.0354,42.06594 88.3718,59.39178 34.3271,17.32279 69.0715,33.07155 91.2658,43.47031 36.9661,23.84805 64.8466,53.18097 91.8186,84.16006 2.1082,29.64052 14.5669,50.93638 45.8008,80.98203 l -15.936,17.37359 c -37.5546,-36.12183 -54.0346,-68.12048 -53.5782,-110.06577 h 2.7381 c -8.9255,-13.41882 -17.9857,-26.07741 -27.3885,-36.21988 -16.3322,-17.62759 -32.9458,-22.60853 -46.3588,-24.61767 -13.3985,-2.0574 -23.3807,-2.86766 -43.465,-13.04289 -0.063,-0.032 -5.682,-1.4478 -5.7734,-1.4478 h -0.01 c -0.254,0.0386 -7.1933,1.4478 -7.1933,1.4478 l -30.4271,13.04289 26.0759,13.0175 c 0.4318,0.7112 0.6604,1.4478 1.4478,2.95656 2.2098,4.25957 5.5803,10.73911 8.7223,18.84171 3.2588,8.52169 6.2916,18.53437 8.6208,28.83533 -100.7382,10.4775 -208.4496,81.32798 -266.4901,121.82191 -12.4358,9.73835 -4.0488,29.62096 11.5697,27.5125 37.9478,-5.50417 67.6016,-12.16913 98.3602,-23.37053 l 0.3556,-0.14452 0.01,0.0155 c 12.5755,-4.46024 27.036,-6.86561 41.3824,-8.47089 18.8671,-2.1082 37.0645,-2.5146 49.754,-2.5146 18.603,-17.76222 41.1523,-31.25621 68.1665,-39.212 6.3906,-11.31315 6.4872,-19.55291 4.257,-30.62857 -2.4384,-11.9507 -8.4201,-25.15107 -7.1983,-42.01819 l 23.1826,1.4478 c -0.7366,10.14221 4.2595,21.68651 7.1983,36.21988 2.3368,11.23695 -2.1082,25.05962 -7.1983,39.10887 2.827,2.4384 7.7114,6.18235 15.9359,11.59509 9.9416,6.59384 22.7101,14.67103 34.7731,21.73477 12.0599,7.0993 24.1249,13.90396 33.3159,18.84171 4.5593,2.4384 8.7198,4.3688 11.59,5.7785 1.4478,0.6858 2.1082,1.0922 2.827,1.397 l -5.7683,23.19781 h -1.4478 c -0.6096,-0.24054 -2.2098,-1.2192 -2.827,-1.4478 -1.2192,-0.5842 -1.2954,-0.6604 -2.9617,-1.4478 -3.2588,-1.6002 -8.3134,-4.65836 -13.0225,-7.19836 -9.5327,-5.07237 -21.0058,-11.62049 -33.3314,-18.84171 -12.3241,-7.19835 -25.7262,-14.78279 -36.2252,-21.73477 -7.0993,-4.66852 -12.5857,-8.70457 -17.1679,-12.84223 -44.2884,13.29689 -72.3481,44.03316 -92.9091,86.73893 -21.4325,44.49011 -33.69,101.92304 -40.5762,162.23303 -6.9037,60.31427 -9.6342,123.11047 -14.4653,179.6323 -4.8692,56.5183 -11.3513,106.6162 -28.9697,141.9654 -2.9566,5.7912 -5.5829,9.8298 -6.7945,15.4609 21.5544,2.2606 43.6069,4.9962 66.1665,7.7191 97.9997,11.8897 203.9159,22.5222 308.5547,-11.6053 8.0112,-3.1292 11.971,-12.2682 8.7274,-20.2565 -32.8968,-67.4753 -46.7453,-143.7842 -150.6369,-236.12003 -10.2946,-29.65324 -8.9255,-57.87491 -7.1983,-88.36658 0.4064,-7.19836 -0.762,-15.01901 -2.2098,-22.95397 -13.5001,-20.39873 -26.2017,-51.31331 -37.796,-101.079 l 8.1179,-13.58646 14.4017,7.4041 c 11.2903,48.45708 26.922,80.11664 36.365,93.94262 12.9844,16.25853 15.3009,13.11656 21.7296,13.0429 19.1948,-0.4318 34.6065,-8.5217 52.1465,-14.48562 12.4866,60.12279 26.1711,112.37211 28.9491,172.38721 -0.381,2.9565 0.1471,6.0071 1.4478,8.7325 l 39.1086,57.92923 c 3.8684,5.4991 10.9296,7.9147 17.3736,5.7938 l 28.97,-8.7122 c 8.6207,-2.5146 13.2994,-11.8694 10.1447,-20.2895 l -0.8128,-2.0574 36.4061,-18.6411 c 3.8684,6.0096 11.3004,8.5141 18.0137,6.1493 9.5326,-3.4772 20.3454,-6.58623 31.8584,-11.60273 11.52408,-4.9961 23.90148,-12.3672 31.86388,-26.0604 0.8636,-1.8288 1.2954,-3.7846 1.4478,-5.7937 0.053,-0.3302 0.762,-2.286 7.1983,-7.239 6.4897,-4.8463 18.0391,-11.8008 36.1943,-20.2844 10.3047,-4.9962 11.8694,-18.9865 2.9565,-26.0861 l -18.8163,-13.01745 c -48.5028,-70.65388 -86.60468,-125.43277 -95.65308,-209.94564 -0.053,-0.4826 0.043,-0.9398 0,-1.4478 l 11.5747,-68.08365 c 0.5334,-4.17322 -0.762,-8.12292 -3.1318,-11.26998 -1.9304,-11.99133 -9.6367,-22.72029 -18.5318,-33.63619 -11.2344,-13.81251 -25.6494,-27.69488 -40.5608,-41.99736 -14.9047,-14.30273 -29.1005,-29.80917 -40.5556,-43.45989 -10.8864,-12.98701 -16.9596,-24.18079 -18.8366,-33.33139 l 57.95,-82.57384 -105.7455,34.77843 c -20.2488,-3.86842 -63.5213,-19.02205 -107.1925,-40.57648 -44.896,-22.16149 -90.9002,-50.64225 -114.4579,-73.88171 -1.6002,-1.6002 -6.9012,-9.93394 -10.1397,-17.37867 -3.2588,-7.4041 -4.3663,-15.68704 -4.3663,-15.93088 z m -15.8546,61.01966 c 3.8633,8.86714 9.1947,17.91207 15.8546,24.46273 27.5316,27.16681 74.0806,53.98692 120.2354,76.77045 46.1544,22.78379 89.9602,40.62551 115.8844,44.90693 h 2.9566 l 43.465,-13.0429 -23.1826,33.33114 v 4.3561 c 2.5146,17.07133 13.4036,32.68699 26.0914,47.82132 12.6898,15.13331 28.5328,29.15817 43.4444,43.46522 14.0513,13.48232 27.5968,26.8582 37.2742,38.40072 l -63.3397,-32.62349 c -33.101,-13.70329 -36.4873,-21.09215 -49.2579,-30.42182 -2.1082,-1.524 -4.6609,-3.04292 -7.4067,-4.3561 -32.7047,-38.20057 -66.0984,-76.33357 -114.2306,-107.15087 h -1.4478 c -23.0987,-10.82547 -56.4809,-25.17647 -89.8136,-41.99228 -30.5008,-15.38985 -58.297,-34.09542 -75.3285,-50.71006 3.4341,-7.4041 6.5964,-15.31365 10.1448,-20.28189 2.032,-2.80416 5.8191,-9.22274 8.6563,-12.93367 z m 306.224,353.36312 h 15.936 l 4.5567,7.24408 c 5.5829,8.80364 6.7005,16.30171 8.9306,23.61183 2.2098,7.3152 5.5804,16.54809 15.395,32.76802 l 8.2169,13.45691 -13.5611,7.97814 c -8.1178,4.77012 -19.5351,5.43052 -27.6933,1.8288 -8.1179,-3.60934 -13.6373,-9.17702 -19.3574,-15.49145 l -0.1808,-0.21209 -0.2068,-0.20651 c -4.0436,-4.83361 -7.5082,-8.86967 -10.3759,-13.72107 -2.9565,-4.84632 -5.2781,-11.34364 -4.8691,-18.12289 0.9144,-13.55344 8.5191,-21.20899 18.5521,-33.45509 z m -298.8809,5.32384 c -9.0297,0.3302 -18.8163,0.9144 -28.7269,2.0066 -12.9413,1.4732 -25.7914,3.93446 -35.7497,7.2136 l 0.031,0.0775 c -77.9412,21.97861 -128.653,28.84829 -173.2851,104.14351 -5.8877,10.17269 1.2954,22.89555 13.0226,23.17749 l 21.4147,0.889 0.1549,-0.031 c 22.3317,-6.34746 17.0536,-4.61772 44.9174,-16.05025 l 0.062,0.14452 c 30.9079,-13.16735 58.4314,-17.15769 112.8148,-22.94889 5.8826,-21.45537 13.0886,-41.81574 22.0649,-60.45095 6.5964,-13.7541 14.379,-26.53715 23.2741,-38.1579 z m -50.7202,119.95628 c -48.4721,5.21207 -72.5587,9.10589 -99.6272,20.64003 l 0.067,0.16535 c -27.8119,11.41222 -22.9387,10.46226 -45.0413,16.74367 l -0.7112,0.381 c -22.5755,13.65504 -46.4868,33.77361 -72.1197,65.69631 -16.3322,12.56538 -2.2352,29.62045 18.8163,24.64561 62.9346,-5.95121 120.2024,-30.27882 183.3168,-31.97223 0.2495,-2.4384 0.4318,-4.77012 0.7112,-7.19836 3.4341,-30.37077 8.0137,-60.48474 14.5873,-89.09021 z m 380.8032,67.31378 70.9983,84.01559 -3.3477,17.5793 -64.6989,27.3007 54.0073,28.2308 -0.4318,2.2606 c -0.5334,2.9565 -0.2218,5.8597 0.9144,8.6182 l -53.2061,-22.9972 -14.346,-34.9178 c -4.6685,-29.5575 0.9906,-46.92169 7.1984,-66.63665 3.3477,-10.8204 1.2192,-28.88081 2.827,-43.4444 z m -398.1512,49.68161 -0.052,0.0104 c -20.9042,0.5842 -44.6431,1.7526 -99.3894,19.38273 -13.2741,6.46175 -27.6052,13.48995 -34.0081,19.26595 -37.9483,34.9702 -73.4189,76.4814 -86.8992,97.06373 -7.7038,12.0498 3.65,27.1897 17.3736,23.1724 49.786,-13.086 70.9574,-11.9634 85.4626,-7.239 10.4369,1.4986 8.0366,3.4138 19.4157,-2.4892 31.21,-8.8214 53.8699,-20.546 87.9534,-16.9849 3.1318,-41.87853 5.8902,-87.03283 10.1447,-132.1834 z m -22.1386,152.05811 -0.036,0.015 v 0.021 c -21.2623,-0.095 -38.3077,7.234 -63.1281,14.732 -75.8855,44.8153 -127.5277,105.6769 -142.3375,126.7983 -0.6604,0.9398 -5.2781,5.0673 -5.7734,5.7937 -7.7114,12.0498 3.65,27.195 17.3736,23.1775 49.0751,-18.3692 106.8151,-18.3819 169.7674,-12.8219 1.8288,-10.7035 5.5804,-19.1821 8.4176,-24.8412 14.4653,-29.0057 21.3131,-76.1491 26.0914,-131.8318 0.01,-0.1323 0,-0.2794 0.021,-0.4318 -3.6526,-0.4064 -7.0968,-0.6096 -10.3963,-0.6096 z"
     sodipodi:nodetypes="ccccccsccccccccssscccccccccccscccccccccccccccccccccccccccccscccccccccccccccccccccccscccccccccsccccccscccccssccccccsccccccccccccccccsccccccccccccccccccccccccccccccccccccccccccccccccccsccccccccccss" />
</svg>
