<?xml version="1.0" encoding="UTF-8" standalone="no"?>
<svg
   width="498.898"
   height="544.252"
   viewBox="0 0 1320 1440"
   version="1.1"
   id="svg18291"
   sodipodi:docname="0_KING_WHITE.svg"
   inkscape:version="1.2 (dc2aedaf03, 2022-05-15)"
   xmlns:inkscape="http://www.inkscape.org/namespaces/inkscape"
   xmlns:sodipodi="http://sodipodi.sourceforge.net/DTD/sodipodi-0.dtd"
   xmlns="http://www.w3.org/2000/svg"
   xmlns:svg="http://www.w3.org/2000/svg">
  <sodipodi:namedview
     id="namedview18293"
     pagecolor="#ffffff"
     bordercolor="#666666"
     borderopacity="1.0"
     inkscape:showpageshadow="2"
     inkscape:pageopacity="0.0"
     inkscape:pagecheckerboard="0"
     inkscape:deskcolor="#d1d1d1"
     showgrid="false"
     inkscape:zoom="1.3789568"
     inkscape:cx="-105.51455"
     inkscape:cy="219.36873"
     inkscape:window-width="3840"
     inkscape:window-height="2036"
     inkscape:window-x="-12"
     inkscape:window-y="-12"
     inkscape:window-maximized="1"
     inkscape:current-layer="svg18291" />
  <style
     id="style18192"><![CDATA[.B{color-interpolation-filters:sRGB}.C{fill-opacity:.98}]]></style>
  <defs
     id="defs18229">
    <linearGradient
       id="A"
       x1="236.943"
       y1="670.458"
       x2="278.677"
       y2="670.458"
       spreadMethod="reflect"
       gradientUnits="userSpaceOnUse">
      <stop
         offset="0"
         stop-color="#ffd285"
         id="stop18194" />
      <stop
         offset=".232"
         stop-color="#ffcd79"
         id="stop18196" />
      <stop
         offset=".616"
         stop-color="#ffca73"
         id="stop18198" />
      <stop
         offset=".808"
         stop-color="#ffd386"
         id="stop18200" />
      <stop
         offset="1"
         stop-color="#ffc86e"
         id="stop18202" />
    </linearGradient>
    <linearGradient
       id="B"
       x1="660"
       y1="115.844"
       x2="670.254"
       y2="1157.469"
       gradientUnits="userSpaceOnUse">
      <stop
         offset=".604"
         stop-color="#fff"
         id="stop18205" />
      <stop
         offset="1"
         id="stop18207" />
    </linearGradient>
    <filter
       id="C"
       x="-0.010152573"
       y="-0.010558682"
       width="1.0203051"
       height="1.0211174"
       class="B">
      <feGaussianBlur
         stdDeviation="2.441"
         id="feGaussianBlur18210" />
    </filter>
    <filter
       inkscape:label="Combined Lighting"
       inkscape:menu="Bevels"
       inkscape:menu-tooltip="Basic specular bevel to use for building textures"
       style="color-interpolation-filters:sRGB;"
       id="filter19251"
       x="-0.039434255"
       y="-0.041982841"
       width="1.0788685"
       height="1.0839657">
      <feGaussianBlur
         stdDeviation="6"
         in="SourceGraphic"
         result="result0"
         id="feGaussianBlur19233" />
      <feDiffuseLighting
         lighting-color="rgb(255,255,255)"
         diffuseConstant="1"
         surfaceScale="4"
         result="result5"
         id="feDiffuseLighting19237">
        <feDistantLight
           elevation="45"
           azimuth="235"
           id="feDistantLight19235" />
      </feDiffuseLighting>
      <feComposite
         k1="1.4"
         in2="SourceGraphic"
         in="result5"
         result="fbSourceGraphic"
         operator="arithmetic"
         id="feComposite19239" />
      <feGaussianBlur
         result="result0"
         in="fbSourceGraphic"
         stdDeviation="6"
         id="feGaussianBlur19241" />
      <feSpecularLighting
         specularExponent="25"
         specularConstant="1"
         surfaceScale="4"
         lighting-color="rgb(255,255,255)"
         result="result1"
         in="result0"
         id="feSpecularLighting19245">
        <feDistantLight
           azimuth="280"
           elevation="45"
           id="feDistantLight19243" />
      </feSpecularLighting>
      <feComposite
         k3="1"
         k2="1"
         operator="arithmetic"
         in="fbSourceGraphic"
         in2="result1"
         result="result4"
         id="feComposite19247" />
      <feComposite
         operator="in"
         result="result2"
         in2="SourceGraphic"
         in="result4"
         id="feComposite19249" />
    </filter>
  </defs>
  <path
     style="mix-blend-mode:multiply"
     d="M-2765.718 268.206l28.198 35.189h538.751l10.087-9.413-86.673-527.828-31.462-17.601z"
     transform="matrix(-2.0051 0 0 2.0051 -4355.6821 800.27119)"
     opacity=".5"
     filter="url(#C)"
     id="path18231" />
  <path
     d="M660 115.844L254.043 268.378l-139.111 999.236 13.312 73.804 20.099 16.718H1169.89l20.099-16.718 13.312-73.804-137.282-999.246z"
     fill="url(#A)"
     id="path18233" />
  <path
     d="M660 115.844L253.994 268.369l-137.243 999.246 11.442 73.812 20.099 16.719h1021.563l20.134-16.728 15.13-73.802-139.1-999.248z"
     opacity=".25"
     fill="url(#B)"
     style="mix-blend-mode:overlay"
     id="path18235" />
  <path
     d="M1182.559 1262.571l-.043 21.064 20.75-16.013-20.707-5.052z"
     opacity=".8"
     fill="#fff"
     id="path18237" />
  <path
     d="M1203.266 1267.622l-20.75 16.013-12.661 74.512 20.099-16.719 13.312-73.805z"
     opacity=".6"
     id="path18239" />
  <g
     fill="#fff"
     id="g18247">
    <path
       d="M254.044 268.378l17.664 13.248 388.293-149.381v-16.402z"
       opacity=".3"
       id="path18241" />
    <path
       d="M1066.019 268.368l-17.664 13.248L660 132.246v-16.402z"
       opacity=".3"
       id="path18243" />
    <path
       d="M1064.146 251.267l-17.664 13.248 138.452 996.966 20.707 5.052z"
       opacity=".3"
       id="path18245" />
  </g>
  <path
     d="M253.994 268.369l17.664 13.248-136.07 980.953-20.707 5.052z"
     opacity=".4"
     id="path18249" />
  <path
     d="M114.881 1267.622l20.75 16.013 12.661 74.512-20.099-16.719-13.312-73.805z"
     opacity=".9"
     id="path18251" />
  <path
     d="M135.588 1262.571l.043 21.064-20.75-16.013 20.707-5.052z"
     opacity=".6"
     id="path18253" />
  <path
     d="M135.588 1262.571h1046.971l-.043 21.064H135.631z"
     opacity=".2"
     id="path18255" />
  <path
     d="M1182.516 1283.635l-12.661 74.512H148.292l-12.661-74.512z"
     opacity=".7"
     id="path18257" />
  <path
     id="path4473"
     style="color:#000000;font-style:normal;font-variant:normal;font-weight:normal;font-stretch:normal;font-size:medium;line-height:1.25;font-family:MingLiU_HKSCS-ExtB;-inkscape-font-specification:MingLiU_HKSCS-ExtB;font-variant-ligatures:normal;font-variant-position:normal;font-variant-caps:normal;font-variant-numeric:normal;font-variant-alternates:normal;font-variant-east-asian:normal;font-feature-settings:normal;font-variation-settings:normal;text-indent:0;text-align:start;text-decoration:none;text-decoration-line:none;text-decoration-style:solid;text-decoration-color:#000000;letter-spacing:0px;word-spacing:0px;text-transform:none;writing-mode:lr-tb;direction:ltr;text-orientation:mixed;dominant-baseline:auto;baseline-shift:baseline;text-anchor:start;white-space:normal;shape-padding:0;shape-margin:0;inline-size:0;clip-rule:nonzero;display:inline;overflow:visible;visibility:visible;opacity:0.99;isolation:auto;mix-blend-mode:normal;color-interpolation:sRGB;color-interpolation-filters:linearRGB;solid-color:#000000;solid-opacity:1;vector-effect:none;fill:#000000;fill-opacity:1;fill-rule:nonzero;stroke:none;stroke-width:35.749;stroke-linecap:butt;stroke-linejoin:round;stroke-miterlimit:4;stroke-dasharray:none;stroke-dashoffset:0;stroke-opacity:1;filter:url(#filter19251);color-rendering:auto;image-rendering:auto;shape-rendering:auto;text-rendering:auto;enable-background:accumulate;stop-color:#000000"
     d="m 394.90067,429.28765 c -12.5578,0.003 -21.6002,10.8458 -18.0925,21.69414 l 23.8125,73.57102 c 2.3368,7.2441 9.7104,12.22 18.0924,12.22 h 184.5879 v 173.4248 h -135.0884 c -8.0797,-0.01 -15.2679,4.6177 -17.8688,11.4985 l -23.8303,63.5607 c -4.125,10.9957 4.9657,22.3876 17.8689,22.3825 h 158.9188 V 1007.792 h -264.79 c -8.3795,0 -15.7506,4.9794 -18.0925,12.2215 l -23.8861,73.5712 c -3.5077,10.8441 5.5296,21.6876 18.0924,21.6975 h 692.62193 c 12.5577,0 21.6001,-10.8441 18.0899,-21.6975 l -23.8303,-73.5713 c -2.33683,-7.2433 -9.70793,-12.2191 -18.09243,-12.2214 H 715.41087 V 807.63981 h 154.4053 c 12.8778,-0.027 21.9329,-11.4046 17.813,-22.3825 l -23.8303,-63.5607 c -2.6035,-6.8783 -9.7891,-11.5087 -17.8689,-11.4935 h -130.5178 v -173.4273 h 185.6836 c 8.3794,0 15.7505,-4.9784 18.0924,-12.2199 l 23.8302,-73.57108 c 3.5078,-10.84579 -5.5295,-21.68905 -18.0924,-21.69413 z m 25.0926,33.91406 h 479.8205 l -12.8524,39.657 h -190.4199 c -10.3886,0.016 -18.8061,7.587 -18.8163,16.9367 v 207.3224 c -0.013,9.3649 8.4099,16.9595 18.8163,16.9773 h 135.8684 l 11.1252,29.6448 h -146.9943 c -10.3886,0.016 -18.8062,7.587 -18.8163,16.9368 v 234.10599 c 0.01,9.3429 8.4251,16.9235 18.8163,16.939 h 272.7397 l 12.8702,39.6556 h -642.3604 l 12.8524,-39.6556 h 269.4708 c 10.4114,0.012 18.862,-7.5781 18.8722,-16.939 V 790.67671 c -0.01,-9.365 -8.4608,-16.9495 -18.8722,-16.9368 h -151.5262 l 11.1455,-29.6448 h 140.3817 c 10.4267,0.012 18.8849,-7.5946 18.8722,-16.9773 v -207.3219 c -0.01,-9.3649 -8.4608,-16.9494 -18.8722,-16.9367 h -189.25 z"
     sodipodi:nodetypes="cccccccccccccccccccccccccccccccccccccccccccccccccccccccccccccc" />
</svg>
