<?xml version="1.0" encoding="UTF-8" standalone="no"?>
<svg
   width="498.898"
   height="544.252"
   viewBox="0 0 1320 1440"
   version="1.1"
   id="svg13202"
   sodipodi:docname="0_LANCE.svg"
   inkscape:version="1.2 (dc2aedaf03, 2022-05-15)"
   xmlns:inkscape="http://www.inkscape.org/namespaces/inkscape"
   xmlns:sodipodi="http://sodipodi.sourceforge.net/DTD/sodipodi-0.dtd"
   xmlns="http://www.w3.org/2000/svg"
   xmlns:svg="http://www.w3.org/2000/svg">
  <sodipodi:namedview
     id="namedview13204"
     pagecolor="#ffffff"
     bordercolor="#666666"
     borderopacity="1.0"
     inkscape:showpageshadow="2"
     inkscape:pageopacity="0.0"
     inkscape:pagecheckerboard="0"
     inkscape:deskcolor="#d1d1d1"
     showgrid="false"
     inkscape:zoom="0.97506969"
     inkscape:cx="161.01413"
     inkscape:cy="22.049706"
     inkscape:window-width="1941"
     inkscape:window-height="1732"
     inkscape:window-x="15"
     inkscape:window-y="170"
     inkscape:window-maximized="0"
     inkscape:current-layer="svg13202" />
  <style
     id="style13110"><![CDATA[.B{color-interpolation-filters:sRGB}.C{filter:url(#H)}]]></style>
  <defs
     id="defs13154">
    <linearGradient
       id="A"
       x1="-1430.769"
       y1="-77.47"
       x2="-1409.955"
       y2="-77.47"
       spreadMethod="reflect"
       gradientUnits="userSpaceOnUse">
      <stop
         offset="0"
         stop-color="#ffd285"
         id="stop13112" />
      <stop
         offset=".232"
         stop-color="#ffcd79"
         id="stop13114" />
      <stop
         offset=".616"
         stop-color="#ffca73"
         id="stop13116" />
      <stop
         offset=".808"
         stop-color="#ffd386"
         id="stop13118" />
      <stop
         offset="1"
         stop-color="#ffc86e"
         id="stop13120" />
    </linearGradient>
    <linearGradient
       id="B"
       x1="-899.903"
       y1="-319.311"
       x2="-899.906"
       y2="125.211"
       gradientUnits="userSpaceOnUse">
      <stop
         offset=".598"
         stop-color="#fff"
         id="stop13123" />
      <stop
         offset="1"
         id="stop13125" />
    </linearGradient>
    <filter
       id="C"
       x="-0.011867782"
       y="-0.011476842"
       width="1.0237356"
       height="1.0229537"
       class="B">
      <feGaussianBlur
         stdDeviation="2.441"
         id="feGaussianBlur13128" />
    </filter>
    <filter
       x="-.054"
       y="-.12"
       width="1.107"
       height="1.24"
       class="B"
       id="filter13133">
      <feGaussianBlur
         stdDeviation=".344"
         id="feGaussianBlur13131" />
    </filter>
    <clipPath
       id="E">
      <path
         d="M843.243 641.647c-12.52-33.386-50.838-47.802-77.774-61.84-27.316-14.037-54.252-40.215-78.533-61.84 48.182-4.553 72.842.379 116.851-1.138-9.485-19.349-38.697-27.316-58.046-28.454-1.138 2.276-2.656 3.794-3.794 6.829-25.798-6.829-48.941 8.346-67.151-1.518 1.897-7.588 2.656-15.934 3.794-24.281-4.173-5.691-8.346-11.002-11.382-17.452 10.243-6.07 46.664-6.07 65.634-20.107 1.518-29.213-39.456-26.178-65.634-24.281-.379 7.967 6.45 8.346 9.105 13.278-14.417 7.208-30.351 10.243-48.561 17.452-9.485 3.794-31.868 11.002-27.316 14.796-6.829-3.794-25.419 4.173-26.557 8.346 5.691-3.035 12.14-1.138 9.105 3.794 15.555 9.485 35.283 3.794 56.528-2.656 5.311 10.243 2.656 21.625 5.311 35.283-37.939 6.07-94.846 12.14-124.818 7.967 1.518 19.728 21.246 29.213 40.594 34.903 14.037-11.002 43.629-13.278 64.495-13.278-44.767 46.664-89.914 92.191-148.34 124.818 21.625 3.794 33.386 3.794 47.044-2.656 16.693-7.588 34.524-20.866 48.941-32.248 22.004 17.072 9.105 67.91 20.866 99.778-3.035-.379-4.932 0-6.45 1.138 4.173 7.208 25.798 21.246 31.489 20.107 3.035-.379 7.208-6.829 10.243-7.967 21.625-7.967 52.355-2.656 77.395-4.173 3.794 4.553 9.105 7.588 13.658 11.002 5.311-1.138 7.967-1.897 12.899 0 19.349-24.281 10.243-77.395 31.489-99.399 21.625 15.934 54.252 19.349 78.912 3.794zm-116.851-48.182c-5.311 2.276-15.175 3.414-15.934 6.45-6.829-4.173-26.178-3.035-38.318-1.138.379-24.66-.379-40.594 2.656-62.219 21.625 14.037 36.421 36.042 51.596 56.908zm-78.912 6.45c-15.934 1.138-40.594 3.794-60.322 5.311 10.623-22.004 40.974-38.697 55.011-57.667h4.173c2.276 14.796 1.518 39.456 1.138 52.355zm69.428 17.452c5.691 27.316-.759 61.84-6.45 88.776-26.557-2.656-56.528 3.035-90.673 3.035-3.794-13.658-2.276-12.14-3.794-29.592 28.833-10.623 66.013-4.932 95.605-14.037-8.726-7.208-19.728-11.382-29.971-17.072-22.384 5.311-42.112 6.07-68.289 7.967-3.414-7.588 2.276-20.487-3.794-29.592 34.145-8.726 68.669-10.243 107.366-9.485z"
         fill="#000"
         stroke-width="18.823"
         id="path13135" />
    </clipPath>
    <filter
       id="F"
       x="-0.045976304"
       y="-0.050211892"
       width="1.0919526"
       height="1.1004238"
       class="B">
      <feGaussianBlur
         stdDeviation="6.733"
         id="feGaussianBlur13138" />
    </filter>
    <filter
       id="G"
       x="-0.08728958"
       y="-0.016549063"
       width="1.1745792"
       height="1.0330981"
       class="B">
      <feGaussianBlur
         stdDeviation="2.919"
         id="feGaussianBlur13141" />
    </filter>
    <filter
       id="H"
       x="-0.22714969"
       y="-0.37521164"
       width="1.4542994"
       height="1.7504233"
       class="B">
      <feGaussianBlur
         stdDeviation="1.338"
         id="feGaussianBlur13144" />
    </filter>
    <filter
       id="I"
       x="-0.33271038"
       y="-0.50103013"
       width="1.6654208"
       height="2.0020603"
       class="B">
      <feGaussianBlur
         stdDeviation="1.338"
         id="feGaussianBlur13147" />
    </filter>
    <clipPath
       id="J">
      <path
         d="M656.249 788.52a11.1 11.1 0 0 0-11.121 11.126v11.436l-23.663 42.276c-2.128 3.803-2.128 9.928 0 13.73h23.663v333.369a11.1 11.1 0 0 0 11.121 11.126h7.498c6.162 0 11.126-4.964 11.126-11.126V867.089h23.657c2.128-3.803 2.128-9.928 0-13.73l-23.657-42.271v-11.441c0-6.162-4.964-11.126-11.126-11.126h-3.747z"
         fill="#000"
         fill-opacity="1"
         stroke-width="16.454"
         id="path13150" />
    </clipPath>
    <path
       id="K"
       d="M575.315 663.409c4.312 1.091 9.314-1.943 7.505-4.553s-10.434-4.796-12.936-3.277 1.12 6.739 5.431 7.83z" />
    <filter
       inkscape:label="Combined Lighting"
       inkscape:menu="Bevels"
       inkscape:menu-tooltip="Basic specular bevel to use for building textures"
       style="color-interpolation-filters:sRGB;"
       id="filter13363"
       x="-0.063311383"
       y="-0.032451472"
       width="1.1266228"
       height="1.0649029">
      <feGaussianBlur
         stdDeviation="6"
         in="SourceGraphic"
         result="result0"
         id="feGaussianBlur13345" />
      <feDiffuseLighting
         lighting-color="rgb(255,255,255)"
         diffuseConstant="1"
         surfaceScale="4"
         result="result5"
         id="feDiffuseLighting13349">
        <feDistantLight
           elevation="45"
           azimuth="235"
           id="feDistantLight13347" />
      </feDiffuseLighting>
      <feComposite
         k1="1.4"
         in2="SourceGraphic"
         in="result5"
         result="fbSourceGraphic"
         operator="arithmetic"
         id="feComposite13351" />
      <feGaussianBlur
         result="result0"
         in="fbSourceGraphic"
         stdDeviation="6"
         id="feGaussianBlur13353" />
      <feSpecularLighting
         specularExponent="25"
         specularConstant="1"
         surfaceScale="4"
         lighting-color="rgb(255,255,255)"
         result="result1"
         in="result0"
         id="feSpecularLighting13357">
        <feDistantLight
           azimuth="280"
           elevation="45"
           id="feDistantLight13355" />
      </feSpecularLighting>
      <feComposite
         k3="1"
         k2="1"
         operator="arithmetic"
         in="fbSourceGraphic"
         in2="result1"
         result="result4"
         id="feComposite13359" />
      <feComposite
         operator="in"
         result="result2"
         in2="SourceGraphic"
         in="result4"
         id="feComposite13361" />
    </filter>
  </defs>
  <path
     style="mix-blend-mode:multiply"
     d="M-2728.669 265.144l28.198 35.189h455.354l10.087-9.413-101.985-483.44-31.462-17.601z"
     transform="matrix(-2.0051 0 0 2.0051 -4364.0778 816.66224)"
     opacity=".5"
     filter="url(#C)"
     id="path13156" />
  <path
     d="M-1215.568-283.246l-145.942 38.045-83.762 462.487 6.639 36.814 10.024 8.338h426.077l10.024-8.338 6.639-36.814-83.759-462.487z"
     fill="url(#A)"
     transform="matrix(2.0051 0 0 2.0051 3097.3821 831.9343)"
     id="path13158" />
  <path
     d="M-899.903-323.401l-145.942 37.996-83.762 462.487 6.639 36.814 10.024 8.338h426.077l10.024-8.338 6.639-36.814-83.759-462.487z"
     opacity=".25"
     fill="url(#B)"
     transform="matrix(2.0051 0 0 2.0051 2464.4309 912.5491)"
     style="mix-blend-mode:overlay"
     id="path13160" />
  <path
     d="M1099.875 1262.57l-.043 21.064 20.75-16.013-20.707-5.052z"
     opacity=".8"
     fill="#fff"
     id="path13162" />
  <path
     d="M1120.582 1267.622l-20.75 16.013-12.661 74.524 20.099-16.719 13.312-73.818z"
     opacity=".6"
     id="path13164" />
  <g
     fill="#fff"
     id="g13172">
    <path
       d="M367.372 340.273l17.664 13.248 274.969-73.032v-16.402z"
       opacity=".3"
       id="path13166" />
    <path
       d="M952.633 340.273l-17.664 13.248-274.964-73.032v-16.402z"
       opacity=".3"
       id="path13168" />
    <path
       d="M952.633 340.273l-17.664 13.248 164.905 909.049 20.707 5.052z"
       opacity=".3"
       id="path13170" />
  </g>
  <path
     d="M367.372 340.273l17.664 13.248-164.91 909.049-20.707 5.052z"
     opacity=".4"
     id="path13174" />
  <path
     d="M199.418 1267.622l20.75 16.013 12.661 74.524-20.099-16.719-13.312-73.818z"
     opacity=".9"
     id="path13176" />
  <path
     d="M220.126 1262.57l.043 21.064-20.75-16.013 20.707-5.052z"
     opacity=".6"
     id="path13178" />
  <path
     d="M220.126 1262.57h879.749l-.043 21.064H220.168l-.043-21.064z"
     opacity=".2"
     id="path13180" />
  <path
     d="M1099.832 1283.634l-12.661 74.524H232.829l-12.661-74.524h879.663z"
     opacity=".7"
     id="path13182" />
  <path
     id="path3087-3-58"
     style="fill:#1a1a1a;fill-opacity:1;stroke:none;stroke-width:12.5029;stroke-linecap:butt;stroke-linejoin:miter;stroke-miterlimit:4;stroke-dasharray:none;stroke-opacity:1;filter:url(#filter13363)"
     d="m 659.85333,343.67171 -54.0156,67.34863 -7.0993,220.49121 42.31,22.02687 h 1.016 v 133.76955 c -118.271,9.15924 -209.4722,105.62255 -209.4813,221.56873 0,122.7558 101.828,222.2699 227.4381,222.274 125.6171,0.01 227.4533,-99.5111 227.4564,-222.274 0,-1.27 -0.013,-2.5629 -0.038,-3.8431 -1.1176,-65.0689 -31.4356,-126.37508 -82.8446,-167.74124 -1.016,-0.7874 -2.032,-1.6256 -3.0379,-2.413 -35.4134,-27.51657 -78.4232,-44.07609 -123.5178,-47.57469 V 653.5341 h 1.2192 l 42.1068,-22.04719 -6.3906,-220.50975 z m -14.13,77.00647 h 28.768 v 185.12681 h -28.768 z M 642.06573,835.936 V 966.47371 L 547.61813,874.18 c 26.9722,-21.50617 59.818,-34.80484 94.4488,-38.244 z m 35.9598,0.0371 c 34.611,3.4417 67.4161,16.73605 94.3784,38.22546 l -94.3769,92.25705 z m -155.8356,63.05827 95.3216,93.12949 h -134.5115 c 3.3427,-34.14257 17.0104,-66.54536 39.1856,-93.12949 z m 275.6559,0.0185 c 22.1336,26.53638 35.7564,58.87012 39.1549,92.94409 l 0.018,0.1669 h -134.4335 z m -314.6568,128.25393 h 132.563 l -93.5364,91.4215 c -21.8085,-26.1305 -35.3611,-57.8937 -39.0236,-91.4215 z m 221.1417,0 h 132.5244 c -3.655,33.5194 -17.2135,65.2752 -39.0027,91.4019 z m -62.2627,23.998 v 130.4825 c -3.4519,-0.3556 -6.8987,-0.762 -10.3455,-1.3208 -1.1176,-0.1816 -2.3368,-0.381 -3.4518,-0.5842 -29.5892,-5.2756 -57.3435,-17.7521 -80.6437,-36.3357 z m 35.9597,0 94.3783,92.2573 c -26.9621,21.4833 -59.7672,34.7629 -94.3783,38.2115 z"
     sodipodi:nodetypes="cccccccsscscccccccccccccccccccccccccscccccccccccccsscccccc" />
</svg>
