<?xml version="1.0" encoding="UTF-8" standalone="no"?>
<svg
   width="498.898"
   height="544.252"
   viewBox="0 0 1320 1440"
   version="1.1"
   id="svg1424"
   sodipodi:docname="0_PAWN.svg"
   inkscape:version="1.2 (dc2aedaf03, 2022-05-15)"
   xmlns:inkscape="http://www.inkscape.org/namespaces/inkscape"
   xmlns:sodipodi="http://sodipodi.sourceforge.net/DTD/sodipodi-0.dtd"
   xmlns="http://www.w3.org/2000/svg"
   xmlns:svg="http://www.w3.org/2000/svg">
  <sodipodi:namedview
     id="namedview1426"
     pagecolor="#ffffff"
     bordercolor="#666666"
     borderopacity="1.0"
     inkscape:showpageshadow="2"
     inkscape:pageopacity="0.0"
     inkscape:pagecheckerboard="0"
     inkscape:deskcolor="#d1d1d1"
     showgrid="false"
     inkscape:zoom="0.97506968"
     inkscape:cx="-384.07512"
     inkscape:cy="162.0397"
     inkscape:window-width="3840"
     inkscape:window-height="2036"
     inkscape:window-x="-12"
     inkscape:window-y="-12"
     inkscape:window-maximized="1"
     inkscape:current-layer="svg1424" />
  <style
     id="style1334"><![CDATA[.B{color-interpolation-filters:sRGB}]]></style>
  <defs
     id="defs1376">
    <linearGradient
       id="A"
       x1="228.547"
       y1="805.755"
       x2="270.281"
       y2="805.755"
       spreadMethod="reflect"
       gradientUnits="userSpaceOnUse">
      <stop
         offset="0"
         stop-color="#ffd285"
         id="stop1336" />
      <stop
         offset=".232"
         stop-color="#ffcd79"
         id="stop1338" />
      <stop
         offset=".616"
         stop-color="#ffca73"
         id="stop1340" />
      <stop
         offset=".808"
         stop-color="#ffd386"
         id="stop1342" />
      <stop
         offset="1"
         stop-color="#ffc86e"
         id="stop1344" />
    </linearGradient>
    <linearGradient
       id="B"
       x1="660.031"
       y1="318.746"
       x2="660.029"
       y2="1292.766"
       gradientUnits="userSpaceOnUse">
      <stop
         offset=".596"
         stop-color="#fff"
         id="stop1347" />
      <stop
         offset="1"
         id="stop1349" />
    </linearGradient>
    <filter
       id="C"
       x="-0.012394769"
       y="-0.012013239"
       width="1.0247895"
       height="1.0240265"
       class="B">
      <feGaussianBlur
         stdDeviation="2.441"
         id="feGaussianBlur1352" />
    </filter>
    <filter
       inkscape:label="Combined Lighting"
       inkscape:menu="Bevels"
       inkscape:menu-tooltip="Basic specular bevel to use for building textures"
       style="color-interpolation-filters:sRGB;"
       id="filter1585"
       x="-0.058302265"
       y="-0.041123139"
       width="1.1166045"
       height="1.0822463">
      <feGaussianBlur
         stdDeviation="6"
         in="SourceGraphic"
         result="result0"
         id="feGaussianBlur1567" />
      <feDiffuseLighting
         lighting-color="rgb(255,255,255)"
         diffuseConstant="1"
         surfaceScale="4"
         result="result5"
         id="feDiffuseLighting1571">
        <feDistantLight
           elevation="45"
           azimuth="235"
           id="feDistantLight1569" />
      </feDiffuseLighting>
      <feComposite
         k1="1.4"
         in2="SourceGraphic"
         in="result5"
         result="fbSourceGraphic"
         operator="arithmetic"
         id="feComposite1573" />
      <feGaussianBlur
         result="result0"
         in="fbSourceGraphic"
         stdDeviation="6"
         id="feGaussianBlur1575" />
      <feSpecularLighting
         specularExponent="25"
         specularConstant="1"
         surfaceScale="4"
         lighting-color="rgb(255,255,255)"
         result="result1"
         in="result0"
         id="feSpecularLighting1579">
        <feDistantLight
           azimuth="300"
           elevation="45"
           id="feDistantLight1577" />
      </feSpecularLighting>
      <feComposite
         k3="1"
         k2="1"
         operator="arithmetic"
         in="fbSourceGraphic"
         in2="result1"
         result="result4"
         id="feComposite1581" />
      <feComposite
         operator="in"
         result="result2"
         in2="SourceGraphic"
         in="result4"
         id="feComposite1583" />
    </filter>
  </defs>
  <path
     style="mix-blend-mode:multiply"
     d="M-2713.437 205.288l23.119 34.853h436.247l13.285-11.264-98.703-458.797-31.462-17.601z"
     transform="matrix(-2.0051 0 0 2.0051 -4364.0778 945.81849)"
     opacity=".5"
     filter="url(#C)"
     id="path1378" />
  <path
     d="M660.043 318.747l-287.664 75.701-142.368 882.306 13.312 80.689 20.099 16.718h793.244l20.099-16.718 13.312-80.689-142.368-882.306z"
     fill="url(#A)"
     id="path1380" />
  <path
     d="M660.031 318.746l-287.664 75.701L230 1283.627l13.312 73.816 20.099 16.718h793.244l20.099-16.718 13.312-73.816-142.37-889.18z"
     fill="url(#B)"
     opacity=".25"
     style="mix-blend-mode:overlay"
     id="path1382" />
  <path
     d="M1069.332 1271.707l-.043 21.064 20.75-16.013-20.707-5.052z"
     opacity=".8"
     fill="#fff"
     id="path1384" />
  <path
     d="M1090.039 1276.759l-20.75 16.013-12.661 81.397 20.099-16.719 13.312-80.69z"
     opacity=".6"
     id="path1386" />
  <g
     fill="#fff"
     id="g1394">
    <path
       d="M372.331 394.437l17.664 13.248L660 335.137v-16.402z"
       opacity=".3"
       id="path1388" />
    <path
       d="M947.669 394.437l-17.664 13.248L660 335.137v-16.402z"
       opacity=".3"
       id="path1390" />
    <path
       d="M947.669 394.437l-17.664 13.248 139.327 864.022 20.707 5.052z"
       opacity=".3"
       id="path1392" />
  </g>
  <path
     d="M372.331 394.437l17.664 13.248-139.327 864.022-20.707 5.052z"
     opacity=".4"
     id="path1396" />
  <path
     d="M229.96 1276.759l20.75 16.013 12.661 81.397-20.099-16.719-13.312-80.69z"
     opacity=".9"
     id="path1398" />
  <path
     d="M250.668 1271.707l.043 21.064-20.75-16.013 20.707-5.052z"
     opacity=".6"
     id="path1400" />
  <path
     d="M250.668 1271.707h818.665l-.043 21.064H250.71l-.043-21.064z"
     opacity=".2"
     id="path1402" />
  <path
     d="M1069.289 1292.771l-12.661 81.397H263.371l-12.661-81.397z"
     opacity=".7"
     id="path1404" />
  <path
     id="path4055"
     style="color:#000000;font-style:normal;font-variant:normal;font-weight:normal;font-stretch:normal;font-size:medium;line-height:normal;font-family:sans-serif;font-variant-ligatures:normal;font-variant-position:normal;font-variant-caps:normal;font-variant-numeric:normal;font-variant-alternates:normal;font-variant-east-asian:normal;font-feature-settings:normal;font-variation-settings:normal;text-indent:0;text-align:start;text-decoration:none;text-decoration-line:none;text-decoration-style:solid;text-decoration-color:#000000;letter-spacing:normal;word-spacing:normal;text-transform:none;writing-mode:lr-tb;direction:ltr;text-orientation:mixed;dominant-baseline:auto;baseline-shift:baseline;text-anchor:start;white-space:normal;shape-padding:0;shape-margin:0;inline-size:0;clip-rule:nonzero;display:inline;overflow:visible;visibility:visible;opacity:0.99;isolation:auto;mix-blend-mode:normal;color-interpolation:sRGB;color-interpolation-filters:linearRGB;solid-color:#000000;solid-opacity:1;fill:#000000;fill-opacity:1;fill-rule:nonzero;stroke:none;stroke-width:16.8587;stroke-linecap:butt;stroke-linejoin:round;stroke-miterlimit:4;stroke-dasharray:none;stroke-dashoffset:0;stroke-opacity:1;paint-order:stroke fill markers;color-rendering:auto;image-rendering:auto;shape-rendering:auto;text-rendering:auto;enable-background:accumulate;stop-color:#000000;filter:url(#filter1585)"
     d="m 659.71087,447.06591 c -3.4518,0.18613 -6.289,3.12141 -7.0993,7.17982 -22.2148,115.0333 -43.4052,179.27238 -136.9105,256.54725 -5.174,4.2865 -4.1605,13.88719 1.7272,16.44802 31.1414,13.33702 63.2676,21.87244 95.413,26.12785 -1.1176,41.55817 -4.1605,79.3296 -15.7657,113.3011 -14.7295,43.2466 -42.848,81.63459 -100.1603,116.54119 -0.063,0.0335 -0.1247,0.068 -0.1857,0.10353 -27.6215,17.90063 -46.7121,32.57553 -60.0313,51.69673 -13.3198,19.1211 -20.0838,42.2363 -23.5839,74.0894 -0.5334,4.7697 2.032,9.2309 5.8852,10.3163 71.7064,19.212 156.3945,28.362 241.0276,27.9668 84.6099,0.3937 169.2581,-8.7234 240.9458,-27.9668 3.8506,-1.0135 6.4922,-5.4791 5.9868,-10.3163 -3.551,-31.8512 -10.287,-54.9681 -23.6043,-74.0894 -13.3172,-19.1211 -32.4086,-33.796 -60.03,-51.69691 -0.055,-0.0349 -0.1105,-0.0692 -0.1654,-0.10254 -57.3021,-34.907 -85.4516,-73.29418 -100.1806,-116.54114 -11.5646,-33.94798 -14.6786,-71.69269 -15.7632,-113.21857 33.2211,-4.32994 65.438,-13.12291 95.4737,-26.23131 5.8852,-2.56082 6.9037,-12.14551 1.7272,-16.42795 -93.587,-77.26948 -114.8008,-141.51451 -137.0126,-256.54741 -0.8382,-4.32993 -4.0615,-7.33094 -7.7089,-7.17956 z"
     sodipodi:nodetypes="scccccccssccccsscsccccss" />
</svg>
