<?xml version="1.0" encoding="UTF-8" standalone="no"?>
<svg
   width="498.898"
   height="544.252"
   viewBox="0 0 1320 1440"
   version="1.1"
   id="svg6405"
   sodipodi:docname="0_PROMOTEDKIRIN.svg"
   inkscape:version="1.2 (dc2aedaf03, 2022-05-15)"
   xmlns:inkscape="http://www.inkscape.org/namespaces/inkscape"
   xmlns:sodipodi="http://sodipodi.sourceforge.net/DTD/sodipodi-0.dtd"
   xmlns="http://www.w3.org/2000/svg"
   xmlns:svg="http://www.w3.org/2000/svg">
  <sodipodi:namedview
     id="namedview6407"
     pagecolor="#ffffff"
     bordercolor="#666666"
     borderopacity="1.0"
     inkscape:showpageshadow="2"
     inkscape:pageopacity="0.0"
     inkscape:pagecheckerboard="0"
     inkscape:deskcolor="#d1d1d1"
     showgrid="false"
     inkscape:zoom="1.3789568"
     inkscape:cx="449.25265"
     inkscape:cy="190.36129"
     inkscape:window-width="3840"
     inkscape:window-height="2036"
     inkscape:window-x="-12"
     inkscape:window-y="-12"
     inkscape:window-maximized="1"
     inkscape:current-layer="svg6405" />
  <style
     id="style6293"><![CDATA[.B{color-interpolation-filters:sRGB}]]></style>
  <defs
     id="defs6351">
    <linearGradient
       id="A"
       x1="228.547"
       y1="660.584"
       x2="270.281"
       y2="660.584"
       spreadMethod="reflect"
       gradientUnits="userSpaceOnUse">
      <stop
         offset="0"
         stop-color="#ffd285"
         id="stop6295" />
      <stop
         offset=".232"
         stop-color="#ffcd79"
         id="stop6297" />
      <stop
         offset=".616"
         stop-color="#ffca73"
         id="stop6299" />
      <stop
         offset=".808"
         stop-color="#ffd386"
         id="stop6301" />
      <stop
         offset="1"
         stop-color="#ffc86e"
         id="stop6303" />
    </linearGradient>
    <linearGradient
       id="B"
       x1="660.031"
       y1="176.665"
       x2="660.029"
       y2="1147.595"
       gradientUnits="userSpaceOnUse">
      <stop
         offset=".6"
         stop-color="#fff"
         id="stop6306" />
      <stop
         offset="1"
         id="stop6308" />
    </linearGradient>
    <filter
       id="D"
       x="-0.01052904"
       y="-0.011053209"
       width="1.0210581"
       height="1.0221064"
       class="B">
      <feGaussianBlur
         stdDeviation="2.441"
         id="feGaussianBlur6315" />
    </filter>
    <filter
       inkscape:label="Combined Lighting"
       inkscape:menu="Bevels"
       inkscape:menu-tooltip="Basic specular bevel to use for building textures"
       style="color-interpolation-filters:sRGB;"
       id="filter12502"
       x="-0.041735848"
       y="-0.033287948"
       width="1.0834717"
       height="1.0665759">
      <feGaussianBlur
         stdDeviation="6"
         in="SourceGraphic"
         result="result0"
         id="feGaussianBlur12484" />
      <feDiffuseLighting
         lighting-color="rgb(255,255,255)"
         diffuseConstant="1"
         surfaceScale="4"
         result="result5"
         id="feDiffuseLighting12488">
        <feDistantLight
           elevation="45"
           azimuth="235"
           id="feDistantLight12486" />
      </feDiffuseLighting>
      <feComposite
         k1="1.4"
         in2="SourceGraphic"
         in="result5"
         result="fbSourceGraphic"
         operator="arithmetic"
         id="feComposite12490" />
      <feGaussianBlur
         result="result0"
         in="fbSourceGraphic"
         stdDeviation="6"
         id="feGaussianBlur12492" />
      <feSpecularLighting
         specularExponent="25"
         specularConstant="1"
         surfaceScale="4"
         lighting-color="rgb(255,255,255)"
         result="result1"
         in="result0"
         id="feSpecularLighting12496">
        <feDistantLight
           azimuth="280"
           elevation="45"
           id="feDistantLight12494" />
      </feSpecularLighting>
      <feComposite
         k3="1"
         k2="1"
         operator="arithmetic"
         in="fbSourceGraphic"
         in2="result1"
         result="result4"
         id="feComposite12498" />
      <feComposite
         operator="in"
         result="result2"
         in2="SourceGraphic"
         in="result4"
         id="feComposite12500" />
    </filter>
  </defs>
  <path
     style="mix-blend-mode:multiply"
     d="M-2758.546 269.702l24.453 34.897h517.576l14.375-11.25-104.69-501.167-31.462-17.601z"
     transform="matrix(-2.0051 0 0 2.0051 -4364.0776 800.64872)"
     opacity=".5"
     filter="url(#D)"
     id="path6353" />
  <path
     d="M660.043 176.664L306.898 293.591 139.681 1267.61l13.3 73.818 20.099 16.718h973.903l20.099-16.718 13.324-73.818-167.217-974.019z"
     fill="url(#A)"
     id="path6355" />
  <path
     d="M660.031 176.665L306.887 293.593 139.67 1267.612l13.312 73.816 20.099 16.718h973.903l20.099-16.718 13.312-73.816-167.217-974.019z"
     opacity=".25"
     fill="url(#B)"
     style="mix-blend-mode:overlay"
     id="path6357" />
  <path
     d="M1159.664 1262.568l-.043 21.064 20.75-16.013-20.707-5.052z"
     opacity=".8"
     fill="#fff"
     id="path6359" />
  <path
     d="M1180.371 1267.619l-20.75 16.013-12.637 74.514 20.099-16.718 13.288-73.808z"
     opacity=".6"
     id="path6361" />
  <g
     fill="#fff"
     id="g6369">
    <path
       d="M306.85 293.583l17.664 13.248L660 193.055v-16.402z"
       opacity=".3"
       id="path6363" />
    <path
       d="M1013.15 293.583l-17.664 13.248L660 193.055v-16.402z"
       opacity=".3"
       id="path6365" />
    <path
       d="M1013.15 293.583l-17.664 13.248 164.177 955.737 20.707 5.052z"
       opacity=".3"
       id="path6367" />
  </g>
  <path
     d="M306.85 293.583l17.664 13.248-164.177 955.737-20.707 5.052z"
     opacity=".4"
     id="path6371" />
  <path
     d="M139.629 1267.619l20.75 16.013 12.702 74.514-20.099-16.718-13.353-73.808z"
     opacity=".9"
     id="path6373" />
  <path
     d="M160.337 1262.568l.043 21.064-20.75-16.013 20.707-5.052z"
     opacity=".6"
     id="path6375" />
  <path
     d="M160.337 1262.568h999.327l-.043 21.064H160.379l-.043-21.064z"
     opacity=".2"
     id="path6377" />
  <path
     d="M1159.621 1283.632l-12.637 74.514H173.081l-12.702-74.514h999.241z"
     opacity=".7"
     id="path6379" />
  <path
     style="fill:#9b0000;fill-opacity:1;stroke-width:5.29343;filter:url(#filter12502)"
     d="m 623.60532,1165.8086 c -45.9311,-46.1685 -62.4256,-78.7338 -65.9546,-130.2399 -3.9599,-57.75607 6.289,-88.89087 48.9038,-148.20727 37.5928,-52.35647 44.1861,-65.77529 49.4104,-100.48437 l 3.4417,-23.01493 24.8513,21.89225 c 14.4145,12.69491 31.0195,34.57904 39.5602,52.13246 13.1877,27.11039 14.7295,36.00069 14.8514,85.82629 0.123,48.5859 -1.524,58.5808 -12.5069,79.41007 -7.0003,13.0963 -20.5105,31.2667 -30.1171,40.3657 -30.3194,28.719 -39.2462,48.4342 -39.2661,86.7196 -0.011,18.9459 2.2098,42.1655 4.9632,51.611 3.142,10.762 3.0378,17.1679 -0.098,17.1679 -2.733,0 -19.8628,-14.9251 -38.009,-33.1531 z m 186.0943,-58.154 c -35.767,-45.148 -42.3812,-65.8764 -47.7071,-149.53917 -6.6954,-104.94161 -20.3174,-145.81476 -62.0905,-186.07349 -13.307,-12.83461 -15.9563,-19.95423 -17.7825,-47.80405 -2.032,-30.7317 -1.524,-32.41826 7.8105,-27.39287 5.4788,2.95656 28.1289,22.42565 50.3029,43.30876 l 40.311,37.97019 -23.5254,-33.96614 c -12.9337,-18.68169 -36.7205,-44.88711 -52.8597,-58.22642 -26.3035,-21.75001 -38.5158,-40.16983 -57.1307,-86.08031 -2.9489,-7.09168 26.8306,-4.92252 57.7083,4.13004 52.069,15.29841 95.839,41.89144 114.5766,69.61832 21.2191,31.39692 35.818,64.3717 46.3163,104.6797 15.0571,57.78472 7.3076,147.86677 -16.637,194.59867 -11.1887,21.80595 -14.6177,37.05747 -16.3322,72.60397 -1.1176,24.7447 0.1684,55.1215 3.043,67.4905 2.827,12.3775 3.1318,22.4943 0.5842,22.4943 -2.5146,0 -14.5136,-12.507 -26.6192,-27.8016 z m -301.3943,-34.401 c -67.8111,-76.32082 -62.8815,-170.89297 12.3343,-236.69315 28.6263,-25.04185 112.3207,-70.76919 118.401,-64.6897 1.9304,1.8796 -0.7112,17.63775 -5.8852,34.85742 -6.6954,22.16149 -17.5488,40.56556 -37.136,63.01026 -55.2128,63.3074 -68.4309,98.9733 -65.3265,176.22977 1.1176,28.8363 1.6256,52.4291 1.016,52.4291 -0.5842,0 -11.1176,-11.3233 -23.401,-25.146 z m 462.896,-159.19297 c -53.0522,-34.2966 -71.2502,-61.5119 -84.2647,-126.07537 -10.2235,-50.69939 -37.0875,-109.71398 -63.0133,-138.41216 -17.0129,-18.82393 -58.9562,-43.64251 -98.2837,-58.17537 l -13.1979,-4.84632 16.9088,-8.71982 c 23.3934,-12.10309 30.7157,-11.14805 72.9539,9.42848 20.3479,9.94664 37.7441,17.32787 38.6483,16.42109 2.4384,-2.4638 -61.0554,-44.07711 -73.0862,-47.89879 -9.8399,-3.12928 -9.9415,-4.25958 -2.2097,-19.11857 4.9656,-9.5377 7.5056,-25.65831 6.5912,-40.67427 -1.6256,-24.62783 -1.8288,-24.88437 -21.6153,-26.51912 -28.3721,-2.28599 -72.1126,11.71702 -99.5012,31.97529 -18.481,13.67535 -27.6012,16.98243 -43.2633,15.67687 -10.9245,-0.8636 -19.8526,-3.78206 -19.8526,-6.36777 0,-6.9469 40.8797,-33.87927 85.4415,-56.31559 67.9328,-34.21429 110.9106,-30.51453 159.4184,13.71599 40.322,36.76166 67.5986,48.96966 117.7437,52.72606 l 42.3393,3.17246 -19.68,11.63828 c -16.5861,9.83233 -54.533,24.27985 -82.7534,31.58412 -4.5593,1.1684 3.5636,13.41119 22.0548,33.39235 44.6022,48.18022 61.705,103.05893 61.8871,198.64646 0.099,50.17793 9.2304,94.9167 23.8201,117.2466 4.86918,7.3254 7.71148,14.351 6.48968,15.5677 -1.2192,1.1684 -16.33218,-6.9469 -33.58788,-18.0721 z m -559.0177,-17.8638 c -18.8366,-10.9144 -38.0194,-38.97425 -32.6125,-47.71032 1.4224,-2.286 13.7642,-4.25958 27.4182,-4.34848 13.6652,-0.0635 35.2197,-4.84632 47.9093,-10.58163 12.6898,-5.7912 24.0106,-10.4648 25.1485,-10.4648 1.1176,0 2.032,6.9469 2.032,15.3797 0,9.83741 -6.6955,23.39343 -18.5242,37.55693 -10.1854,12.1945 -18.5242,24.3332 -18.5242,26.9669 0,7.8054 -11.9177,5.2832 -32.8661,-6.731 z m -52.5553,-77.03664 c -7.3051,-8.71981 -16.604,-23.84805 -20.6528,-33.69232 -4.0614,-9.83234 -12.0396,-21.73477 -17.752,-26.39745 -10.1422,-8.21689 -9.7384,-9.23543 15.3492,-35.9834 14.1503,-15.12315 40.6062,-39.56582 58.7738,-54.31813 30.2087,-24.51353 32.561,-27.88005 27.4086,-39.19168 -8.0137,-17.60727 2.949,-41.17414 34.7622,-75.06408 14.3738,-15.28571 27.7642,-27.80155 29.7424,-27.80155 2.032,0 2.6339,7.02055 1.3208,15.51177 l -2.3114,15.52447 30.9788,-12.74571 c 22.6212,-9.32942 40.9809,-12.72794 68.0351,-12.72286 37.0558,0.0152 37.0558,0.0152 22.4994,9.02462 -8.0137,4.92252 -14.5568,10.9093 -14.5568,13.18513 0,2.286 6.5913,2.286 14.5568,0.097 22.2554,-6.22554 65.9353,-4.13004 80.7247,3.99796 12.86,7.02056 12.2758,7.4041 -21.1785,15.94103 -18.9281,4.8514 -43.9324,13.7287 -55.5783,19.79421 -18.3083,9.5377 -19.7408,11.47572 -10.5918,14.39418 37.5224,11.94307 57.5968,40.53076 62.3852,88.8898 l 2.4384,25.22473 -23.0581,-21.26233 c -27.895,-25.70606 -34.3575,-27.26232 -16.9189,-4.04368 20.0456,26.67126 21.087,33.97934 7.0993,50.21451 -11.463,13.32483 -16.0071,14.68373 -51.1452,15.31619 -34.8539,0.6096 -39.6316,1.9558 -49.6232,14.56436 -13.3502,16.74113 -22.9159,17.27707 -51.1553,2.95655 l -21.5468,-10.99565 8.5217,12.17167 c 4.6685,6.65988 8.5217,15.00378 8.5217,18.46326 0,9.94663 -42.0871,27.69284 -74.4461,31.47515 -28.0581,3.34772 -30.0767,2.69494 -42.7368,-12.34693 z m 123.7947,-167.61834 c 19.3929,-0.4064 23.6245,-2.95655 36.5882,-21.61793 8.1178,-11.64589 14.7497,-22.95905 14.8412,-25.14599 0.3302,-7.16279 -42.432,-4.13003 -58.7332,4.34848 -8.9255,4.70408 -19.3751,16.28648 -23.5635,26.29306 -10.1423,24.21126 -9.84,32.1795 0.7112,23.41624 4.5593,-3.78205 18.0873,-7.02055 30.1472,-7.32535 z m -72.5078,-121.3647 c -9.332,-12.22501 -13.5001,-24.32303 -13.5001,-39.09185 0,-19.46401 3.0378,-24.25191 33.8706,-53.08725 21.8313,-20.41905 42.8676,-34.75734 59.1688,-40.31334 34.7327,-11.82623 43.7911,-11.03121 26.7695,2.286 -21.7398,17.08911 -16.4515,21.31821 11.1989,8.92556 18.8468,-8.42518 38.0088,-11.62304 76.4948,-12.7508 61.2077,-1.8288 79.4675,-8.52169 115.652,-42.32628 26.4043,-24.69387 26.8709,-24.88945 23.2309,-9.5377 -13.0251,54.71589 -32.1257,75.91523 -94.9465,105.41605 -29.9036,14.04111 -55.3552,30.38423 -68.3498,43.88178 -11.3919,11.82624 -26.8813,22.74569 -34.4073,24.27985 -7.5057,1.524 -17.8613,4.34848 -22.9566,6.36778 -14.4652,5.57276 -11.5442,-11.16076 6.6955,-38.12665 l 15.9182,-23.58897 -14.5974,8.62075 c -8.0137,4.77774 -33.6474,23.91155 -56.9366,42.59147 -23.2893,18.67915 -44.0139,33.98772 -46.053,34.04436 -2.032,0.0427 -9.7384,-7.88161 -17.2034,-17.62505 z m 256.4616,5.13842 c -24.4576,-6.731 -24.4576,-6.731 -12.7609,-19.97963 13.1343,-14.78534 45.9917,-28.9278 77.6005,-33.40124 l 25.146,-3.56362 v 20.48255 c 0,11.26998 -3.4417,25.10535 -7.7115,30.75786 -7.305,9.83234 -7.8079,9.42848 -11.2496,-6.94689 -2.3114,-11.02614 -6.6954,-17.20088 -12.3038,-17.20088 -11.4731,0 -32.0852,14.6431 -36.6295,25.9974 -3.0379,7.4803 -6.5913,8.11276 -22.1158,3.82524 z"
     id="path51530" />
</svg>
