<?xml version="1.0" encoding="UTF-8" standalone="no"?>
<svg
   width="498.898"
   height="544.252"
   viewBox="0 0 1320 1440"
   version="1.1"
   id="svg4069"
   sodipodi:docname="0_PROMOTEDGOBETWEEN.svg"
   inkscape:version="1.2 (dc2aedaf03, 2022-05-15)"
   xmlns:inkscape="http://www.inkscape.org/namespaces/inkscape"
   xmlns:sodipodi="http://sodipodi.sourceforge.net/DTD/sodipodi-0.dtd"
   xmlns:xlink="http://www.w3.org/1999/xlink"
   xmlns="http://www.w3.org/2000/svg"
   xmlns:svg="http://www.w3.org/2000/svg">
  <sodipodi:namedview
     id="namedview4071"
     pagecolor="#ffffff"
     bordercolor="#666666"
     borderopacity="1.0"
     inkscape:showpageshadow="2"
     inkscape:pageopacity="0.0"
     inkscape:pagecheckerboard="0"
     inkscape:deskcolor="#d1d1d1"
     showgrid="false"
     inkscape:zoom="0.97506969"
     inkscape:cx="192.80673"
     inkscape:cy="-127.68318"
     inkscape:window-width="1941"
     inkscape:window-height="1732"
     inkscape:window-x="4153"
     inkscape:window-y="288"
     inkscape:window-maximized="0"
     inkscape:current-layer="svg4069" />
  <style
     id="style3976"><![CDATA[.B{color-interpolation-filters:sRGB}]]></style>
  <defs
     id="defs4023">
    <linearGradient
       id="A"
       x1="-1430.769"
       y1="-77.47"
       x2="-1409.955"
       y2="-77.47"
       spreadMethod="reflect"
       gradientUnits="userSpaceOnUse">
      <stop
         offset="0"
         stop-color="#ffd285"
         id="stop3978" />
      <stop
         offset=".232"
         stop-color="#ffcd79"
         id="stop3980" />
      <stop
         offset=".616"
         stop-color="#ffca73"
         id="stop3982" />
      <stop
         offset=".808"
         stop-color="#ffd386"
         id="stop3984" />
      <stop
         offset="1"
         stop-color="#ffc86e"
         id="stop3986" />
    </linearGradient>
    <linearGradient
       id="B"
       x1="-1215.571"
       y1="-296.329"
       x2="-1215.572"
       y2="165.415"
       gradientUnits="userSpaceOnUse">
      <stop
         offset=".6"
         stop-color="#fff"
         id="stop3989" />
      <stop
         offset="1"
         id="stop3991" />
    </linearGradient>
    <filter
       id="C"
       x="-0.011867782"
       y="-0.01125585"
       width="1.0237356"
       height="1.0225117"
       class="B">
      <feGaussianBlur
         stdDeviation="2.441"
         id="feGaussianBlur3994" />
    </filter>
    <path
       id="E"
       d="M-1215.571-296.329l-149.881 40.669-79.82 472.51 6.639 36.814 10.024 8.338h426.077l10.024-8.338 6.639-36.814-79.82-472.51z" />
    <filter
       inkscape:label="Combined Lighting"
       inkscape:menu="Bevels"
       inkscape:menu-tooltip="Basic specular bevel to use for building textures"
       style="color-interpolation-filters:sRGB;"
       id="filter7317"
       x="-0.044579363"
       y="-0.038215582"
       width="1.0891587"
       height="1.0764312">
      <feGaussianBlur
         stdDeviation="6"
         in="SourceGraphic"
         result="result0"
         id="feGaussianBlur7299" />
      <feDiffuseLighting
         lighting-color="rgb(255,255,255)"
         diffuseConstant="1"
         surfaceScale="4"
         result="result5"
         id="feDiffuseLighting7303">
        <feDistantLight
           elevation="45"
           azimuth="235"
           id="feDistantLight7301" />
      </feDiffuseLighting>
      <feComposite
         k1="1.4"
         in2="SourceGraphic"
         in="result5"
         result="fbSourceGraphic"
         operator="arithmetic"
         id="feComposite7305" />
      <feGaussianBlur
         result="result0"
         in="fbSourceGraphic"
         stdDeviation="6"
         id="feGaussianBlur7307" />
      <feSpecularLighting
         specularExponent="25"
         specularConstant="1"
         surfaceScale="4"
         lighting-color="rgb(255,255,255)"
         result="result1"
         in="result0"
         id="feSpecularLighting7311">
        <feDistantLight
           azimuth="280"
           elevation="45"
           id="feDistantLight7309" />
      </feSpecularLighting>
      <feComposite
         k3="1"
         k2="1"
         operator="arithmetic"
         in="fbSourceGraphic"
         in2="result1"
         result="result4"
         id="feComposite7313" />
      <feComposite
         operator="in"
         result="result2"
         in2="SourceGraphic"
         in="result4"
         id="feComposite7315" />
    </filter>
  </defs>
  <path
     style="mix-blend-mode:multiply"
     d="M-2728.669 264.709l28.198 35.189h455.354l10.087-9.413-98.043-493.462-31.462-17.601z"
     transform="matrix(-2.0051 0 0 2.0051 -4364.0778 816.66224)"
     opacity=".5"
     filter="url(#C)"
     id="path4025" />
  <use
     xlink:href="#E"
     fill="url(#A)"
     transform="matrix(2.0051 0 0 2.0051 3097.3821 831.9343)"
     id="use4027" />
  <use
     xlink:href="#E"
     x="315.666"
     y="-40.204"
     opacity=".25"
     fill="url(#B)"
     transform="matrix(2.0051 0 0 2.0051 2464.4309 912.54909)"
     style="mix-blend-mode:overlay"
     id="use4029" />
  <path
     d="M1099.874 1261.697l-.043 21.064 20.75-16.013-20.707-5.052z"
     opacity=".8"
     fill="#fff"
     id="path4031" />
  <path
     d="M1120.582 1266.748l-20.75 16.013-12.661 74.524 20.099-16.719 13.312-73.818z"
     opacity=".6"
     id="path4033" />
  <g
     fill="#fff"
     id="g4041">
    <path
       d="M359.469 319.303l17.664 13.248L660 254.157v-16.402z"
       opacity=".3"
       id="path4035" />
    <path
       d="M960.531 319.303l-17.664 13.248L660 254.157v-16.402z"
       opacity=".3"
       id="path4037" />
    <path
       d="M960.531 319.303l-17.664 13.248 157.007 929.146 20.707 5.052z"
       opacity=".3"
       id="path4039" />
  </g>
  <path
     d="M359.469 319.303l17.664 13.248-157.007 929.146-20.707 5.052z"
     opacity=".4"
     id="path4043" />
  <path
     d="M199.419 1266.748l20.75 16.013 12.661 74.524-20.099-16.719-13.312-73.818z"
     opacity=".9"
     id="path4045" />
  <path
     d="M220.126 1261.697l.043 21.064-20.75-16.013 20.707-5.052z"
     opacity=".6"
     id="path4047" />
  <path
     d="M220.126 1261.697h879.749l-.043 21.064H220.169l-.043-21.064z"
     opacity=".2"
     id="path4049" />
  <path
     d="M1099.831 1282.761l-12.661 74.524H232.829l-12.661-74.524h879.663z"
     opacity=".7"
     id="path4051" />
  <path
     id="path5349"
     style="fill:#990000;fill-opacity:1;stroke:none;stroke-width:16.4993px;stroke-linecap:butt;stroke-linejoin:miter;stroke-opacity:1;filter:url(#filter7317)"
     d="m 586.46638,461.0227 a 23.181128,21.525339 0 0 0 -23.1804,21.53573 23.181128,21.525339 0 0 0 23.1804,21.53575 23.181128,21.525339 0 0 0 23.1815,-21.53575 23.181128,21.525339 0 0 0 -23.1815,-21.53573 z m 68.087,56.30745 a 20.697445,23.181128 0 0 0 -20.0884,23.18125 20.697445,23.181128 0 0 0 20.7099,23.1805 20.697445,23.181128 0 0 0 20.6896,-23.1805 20.697445,23.181128 0 0 0 -20.6896,-23.18125 20.697445,23.181128 0 0 0 -0.6304,0 z m -63.96,38.07164 a 22.353236,23.181128 0 0 0 -22.3535,23.19937 22.353236,23.181128 0 0 0 22.3535,23.18047 22.353236,23.181128 0 0 0 22.3534,-23.18047 22.353236,23.181128 0 0 0 -22.3534,-23.19937 z m 112.4728,69.44462 c -56.7929,0.79035 -99.9208,32.05604 -135.8707,79.3088 -40.85,45.64263 -69.2555,102.7247 -83.4991,172.82487 -14.115,28.49539 -25.9141,33.54013 -37.8109,39.75293 -36.0673,-11.06891 -47.8549,-28.09045 -39.3661,-50.11242 5.5749,-31.26516 54.9312,-57.90752 86.6192,-86.42143 25.1691,-45.76895 36.9832,-89.79329 -9.4228,-126.17463 -137.9541,-35.46415 -111.1871,81.34992 -81.9166,107.16754 19.5301,-9.43307 31.5253,-21.14031 37.7929,-34.57363 -4.0415,-7.55257 -15.4749,-14.09992 0,-24.1886 8.4524,0.79487 12.9037,4.94652 15.7542,10.34983 0,17.28269 7.9143,19.79992 -56.6943,69.12988 -38.0901,20.06053 -40.8413,51.66768 -55.1205,79.50665 -26.2744,151.0087 30.7075,196.3019 102.3738,222.9503 13.6219,-12.462 17.6342,-30.096 23.6223,-46.668 20.4104,4.8578 39.6182,6.6534 67.7447,31.1215 6.8358,-6.9208 13.6399,-13.8284 20.4757,-20.7447 l 23.9458,-19.08 c 6.3832,16.3027 -6.6533,23.6303 -13.354,33.8641 -9.765,14.8898 -29.9786,30.2758 -46.8122,40.5 l 37.7931,5.216 c 17.1209,-7.0136 30.456,-17.5784 42.5315,-29.376 l 20.4758,-6.9231 c 19.118,-51.3525 37.6675,-102.8702 45.6788,-157.27513 -1.2609,-17.01232 -1.6212,-30.59075 -11.0169,-77.77109 l 11.0169,-39.75302 66.1535,-81.24204 -50.3999,86.42143 -9.4408,36.30086 c -1.531,26.43609 2.4228,48.89791 9.4408,69.12988 l -3.1476,36.29129 c -17.292,53.5379 -37.1542,104.86112 -40.9406,164.19002 1.9588,13.3706 6.3832,24.9526 20.4757,29.376 176.8883,-7.3742 265.0802,-90.4615 319.7449,-202.22656 l 3.159,-36.27356 c -33.1955,-153.69085 -128.4039,-232.46646 -255.183,-273.07755 -7.554,-0.98617 -14.9458,-1.53549 -22.0856,-1.53549 -0.9006,0 -1.8013,-0.0124 -2.6928,0 z m -149.1884,194.65031 c 2.9721,0 5.9351,1.17525 9.1797,4.76046 l 27.8028,35.96827 c 4.5887,11.62657 6.2054,23.0286 1.8013,34.02562 -5.0368,-8.81194 -9.389,-17.65091 -21.0588,-26.57951 -12.9938,-3.86888 -26.3012,-7.55266 -34.2136,-15.95188 -3.6836,-20.21406 0.6079,-21.36502 2.6928,-27.78525 4.3996,-1.25636 8.7226,-4.13162 13.192,-4.40136 0.1952,-0.0106 0.4053,-0.0177 0.6079,-0.0186 z m -73.3203,237.23758 c -20.9238,70.2808 -63.7978,109.25 -103.9654,152.0794 -3.2423,5.3067 2.2516,6.8301 15.7542,5.2162 61.5048,-32.2093 108.0449,-75.3614 127.5827,-138.267 -12.3904,-7.1044 -20.6536,-18.7305 -39.3668,-19.009 z" />
</svg>
