<?xml version="1.0" encoding="UTF-8" standalone="no"?>
<svg
   width="498.898"
   height="544.252"
   viewBox="0 0 1320 1440"
   version="1.1"
   id="svg6405"
   sodipodi:docname="0_PROMOTEDPHOENIX.svg"
   inkscape:version="1.2 (dc2aedaf03, 2022-05-15)"
   xmlns:inkscape="http://www.inkscape.org/namespaces/inkscape"
   xmlns:sodipodi="http://sodipodi.sourceforge.net/DTD/sodipodi-0.dtd"
   xmlns="http://www.w3.org/2000/svg"
   xmlns:svg="http://www.w3.org/2000/svg">
  <sodipodi:namedview
     id="namedview6407"
     pagecolor="#ffffff"
     bordercolor="#666666"
     borderopacity="1.0"
     inkscape:showpageshadow="2"
     inkscape:pageopacity="0.0"
     inkscape:pagecheckerboard="0"
     inkscape:deskcolor="#d1d1d1"
     showgrid="false"
     inkscape:zoom="1.9501394"
     inkscape:cx="303.31166"
     inkscape:cy="365.6149"
     inkscape:window-width="3840"
     inkscape:window-height="2036"
     inkscape:window-x="-12"
     inkscape:window-y="-12"
     inkscape:window-maximized="1"
     inkscape:current-layer="svg6405" />
  <style
     id="style6293"><![CDATA[.B{color-interpolation-filters:sRGB}]]></style>
  <defs
     id="defs6351">
    <linearGradient
       id="A"
       x1="228.547"
       y1="660.584"
       x2="270.281"
       y2="660.584"
       spreadMethod="reflect"
       gradientUnits="userSpaceOnUse">
      <stop
         offset="0"
         stop-color="#ffd285"
         id="stop6295" />
      <stop
         offset=".232"
         stop-color="#ffcd79"
         id="stop6297" />
      <stop
         offset=".616"
         stop-color="#ffca73"
         id="stop6299" />
      <stop
         offset=".808"
         stop-color="#ffd386"
         id="stop6301" />
      <stop
         offset="1"
         stop-color="#ffc86e"
         id="stop6303" />
    </linearGradient>
    <linearGradient
       id="B"
       x1="660.031"
       y1="176.665"
       x2="660.029"
       y2="1147.595"
       gradientUnits="userSpaceOnUse">
      <stop
         offset=".6"
         stop-color="#fff"
         id="stop6306" />
      <stop
         offset="1"
         id="stop6308" />
    </linearGradient>
    <filter
       id="D"
       x="-0.01052904"
       y="-0.011053209"
       width="1.0210581"
       height="1.0221064"
       class="B">
      <feGaussianBlur
         stdDeviation="2.441"
         id="feGaussianBlur6315" />
    </filter>
    <filter
       inkscape:label="Combined Lighting"
       inkscape:menu="Bevels"
       inkscape:menu-tooltip="Basic specular bevel to use for building textures"
       style="color-interpolation-filters:sRGB;"
       id="filter13360"
       x="-0.036894546"
       y="-0.036894535"
       width="1.0737891"
       height="1.0737891">
      <feGaussianBlur
         stdDeviation="6"
         in="SourceGraphic"
         result="result0"
         id="feGaussianBlur13342" />
      <feDiffuseLighting
         lighting-color="rgb(255,255,255)"
         diffuseConstant="1"
         surfaceScale="4"
         result="result5"
         id="feDiffuseLighting13346">
        <feDistantLight
           elevation="45"
           azimuth="235"
           id="feDistantLight13344" />
      </feDiffuseLighting>
      <feComposite
         k1="1.4"
         in2="SourceGraphic"
         in="result5"
         result="fbSourceGraphic"
         operator="arithmetic"
         id="feComposite13348" />
      <feGaussianBlur
         result="result0"
         in="fbSourceGraphic"
         stdDeviation="6"
         id="feGaussianBlur13350" />
      <feSpecularLighting
         specularExponent="25"
         specularConstant="1"
         surfaceScale="4"
         lighting-color="rgb(255,255,255)"
         result="result1"
         in="result0"
         id="feSpecularLighting13354">
        <feDistantLight
           azimuth="280"
           elevation="45"
           id="feDistantLight13352" />
      </feSpecularLighting>
      <feComposite
         k3="1"
         k2="1"
         operator="arithmetic"
         in="fbSourceGraphic"
         in2="result1"
         result="result4"
         id="feComposite13356" />
      <feComposite
         operator="in"
         result="result2"
         in2="SourceGraphic"
         in="result4"
         id="feComposite13358" />
    </filter>
  </defs>
  <path
     style="mix-blend-mode:multiply"
     d="M-2758.546 269.702l24.453 34.897h517.576l14.375-11.25-104.69-501.167-31.462-17.601z"
     transform="matrix(-2.0051 0 0 2.0051 -4364.0776 800.64872)"
     opacity=".5"
     filter="url(#D)"
     id="path6353" />
  <path
     d="M660.043 176.664L306.898 293.591 139.681 1267.61l13.3 73.818 20.099 16.718h973.903l20.099-16.718 13.324-73.818-167.217-974.019z"
     fill="url(#A)"
     id="path6355" />
  <path
     d="M660.031 176.665L306.887 293.593 139.67 1267.612l13.312 73.816 20.099 16.718h973.903l20.099-16.718 13.312-73.816-167.217-974.019z"
     opacity=".25"
     fill="url(#B)"
     style="mix-blend-mode:overlay"
     id="path6357" />
  <path
     d="M1159.664 1262.568l-.043 21.064 20.75-16.013-20.707-5.052z"
     opacity=".8"
     fill="#fff"
     id="path6359" />
  <path
     d="M1180.371 1267.619l-20.75 16.013-12.637 74.514 20.099-16.718 13.288-73.808z"
     opacity=".6"
     id="path6361" />
  <g
     fill="#fff"
     id="g6369">
    <path
       d="M306.85 293.583l17.664 13.248L660 193.055v-16.402z"
       opacity=".3"
       id="path6363" />
    <path
       d="M1013.15 293.583l-17.664 13.248L660 193.055v-16.402z"
       opacity=".3"
       id="path6365" />
    <path
       d="M1013.15 293.583l-17.664 13.248 164.177 955.737 20.707 5.052z"
       opacity=".3"
       id="path6367" />
  </g>
  <path
     d="M306.85 293.583l17.664 13.248-164.177 955.737-20.707 5.052z"
     opacity=".4"
     id="path6371" />
  <path
     d="M139.629 1267.619l20.75 16.013 12.702 74.514-20.099-16.718-13.353-73.808z"
     opacity=".9"
     id="path6373" />
  <path
     d="M160.337 1262.568l.043 21.064-20.75-16.013 20.707-5.052z"
     opacity=".6"
     id="path6375" />
  <path
     d="M160.337 1262.568h999.327l-.043 21.064H160.379l-.043-21.064z"
     opacity=".2"
     id="path6377" />
  <path
     d="M1159.621 1283.632l-12.637 74.514H173.081l-12.702-74.514h999.241z"
     opacity=".7"
     id="path6379" />
  <path
     id="path27925"
     style="fill:#9b0000;fill-opacity:1;stroke:none;stroke-width:18.0747;stroke-linecap:round;stroke-linejoin:round;stroke-dasharray:none;paint-order:stroke fill markers;filter:url(#filter13360)"
     d="m 659.9741,377.10378 -51.42309,191.89006 c 0,0 33.0226,-3.98272 50.6222,-3.99034 17.6581,-0.0102 52.3999,3.99034 52.3999,3.99034 z M 935.98311,491.35522 763.9367,590.68239 c 6e-4,-5.1e-4 26.16941,20.53589 38.61791,32.97477 12.4918,12.47901 34.22529,39.87366 34.22529,39.87366 z m -551.9042,0.0259 99.1981,172.17535 c 0,0 21.73989,-27.39414 34.2306,-39.87341 12.4485,-12.43838 38.6171,-32.97503 38.6176,-32.97478 z m 275.9831,97.53926 a 178.48763,178.48763 0 0 0 -178.485,178.48526 178.48763,178.48763 0 0 0 178.485,178.4849 178.48763,178.48763 0 0 0 178.4903,-178.4849 178.48763,178.48763 0 0 0 -178.4903,-178.48526 z m -82.3412,73.77833 c 0.046,-0.003 0.094,0.002 0.1397,0 0.1,-0.002 0.2007,0.01 0.3048,0.0155 l 163.2716,-0.0155 c 3.0785,-0.10414 5.2858,2.94894 4.2367,5.83946 l -7.4117,22.80411 c -0.7112,1.7018 -2.413,2.75082 -4.2316,2.64668 h -58.849 v 55.14388 h 41.8838 c 1.9812,-0.0348 3.716,1.2446 4.2367,3.15722 l 7.4041,19.62658 c 1.0668,2.9159 -1.143,5.936 -4.2316,5.8242 h -49.2991 v 63.0814 h 84.2995 c 1.9812,-0.034 3.716,1.27 4.2367,3.1775 l 6.8784,22.8041 c 0.5842,2.54 -1.143,4.9835 -3.7008,5.2858 h -213.1189 c -2.7838,0 -4.8463,-2.5807 -4.2316,-5.2858 l 7.4092,-22.8041 c 0.4572,-1.7272 1.9304,-2.9794 3.7058,-3.1775 h 83.2404 v -63.0814 h -50.3743 c -3.0887,0.1128 -5.2959,-2.9489 -4.2367,-5.8394 l 7.4117,-19.61138 c 0.508,-1.8796 2.286,-3.19786 4.2519,-3.17246 h 42.9278 v -55.12839 h -58.3014 c -1.8288,0.11278 -3.5483,-0.9652 -4.2519,-2.66192 l -7.4092,-22.78887 c -0.9906,-2.75082 0.9398,-5.6642 3.8075,-5.83946 z m -116.1323,53.22161 -191.8901,51.42302 191.8901,51.5991 c 0,0 -4.0005,-34.7429 -3.9904,-52.3999 0.01,-17.59969 3.9904,-50.62222 3.9904,-50.62222 z m 396.823,0 c 0,0 3.9827,33.02507 3.9903,50.62222 0.01,17.658 -3.9903,52.3999 -3.9903,52.3999 l 191.89009,-51.5991 z m -375.0672,155.35982 -99.3325,172.04626 172.1754,-99.20316 c 0,0 -27.3942,-21.7348 -39.8734,-34.2252 -12.4384,-12.4486 -32.97,-38.6174 -32.9695,-38.6179 z m 353.3736,0.026 c 5e-4,5e-4 -20.5308,26.1694 -32.9697,38.6179 -12.479,12.4917 -39.8734,34.2252 -39.8734,34.2252 l 172.1702,99.20316 z m -228.1669,94.5111 51.4231,191.88996 51.599,-191.88996 c 0,0 -34.7428,4.0005 -52.3999,3.9903 -17.5996,-0.01 -50.6222,-3.9903 -50.6222,-3.9903 z" />
</svg>
