<?xml version="1.0" encoding="UTF-8" standalone="no"?>
<svg
   width="498.898"
   height="544.252"
   viewBox="0 0 1320 1440"
   version="1.1"
   id="svg1424"
   sodipodi:docname="0_PROMOTEDPAWN.svg"
   inkscape:version="1.2 (dc2aedaf03, 2022-05-15)"
   xmlns:inkscape="http://www.inkscape.org/namespaces/inkscape"
   xmlns:sodipodi="http://sodipodi.sourceforge.net/DTD/sodipodi-0.dtd"
   xmlns="http://www.w3.org/2000/svg"
   xmlns:svg="http://www.w3.org/2000/svg">
  <sodipodi:namedview
     id="namedview1426"
     pagecolor="#ffffff"
     bordercolor="#666666"
     borderopacity="1.0"
     inkscape:showpageshadow="2"
     inkscape:pageopacity="0.0"
     inkscape:pagecheckerboard="0"
     inkscape:deskcolor="#d1d1d1"
     showgrid="false"
     inkscape:zoom="1.3789568"
     inkscape:cx="761.80777"
     inkscape:cy="164.61719"
     inkscape:window-width="3840"
     inkscape:window-height="2036"
     inkscape:window-x="3828"
     inkscape:window-y="-12"
     inkscape:window-maximized="1"
     inkscape:current-layer="svg1424" />
  <style
     id="style1334"><![CDATA[.B{color-interpolation-filters:sRGB}]]></style>
  <defs
     id="defs1376">
    <linearGradient
       id="A"
       x1="228.547"
       y1="805.755"
       x2="270.281"
       y2="805.755"
       spreadMethod="reflect"
       gradientUnits="userSpaceOnUse">
      <stop
         offset="0"
         stop-color="#ffd285"
         id="stop1336" />
      <stop
         offset=".232"
         stop-color="#ffcd79"
         id="stop1338" />
      <stop
         offset=".616"
         stop-color="#ffca73"
         id="stop1340" />
      <stop
         offset=".808"
         stop-color="#ffd386"
         id="stop1342" />
      <stop
         offset="1"
         stop-color="#ffc86e"
         id="stop1344" />
    </linearGradient>
    <linearGradient
       id="B"
       x1="660.031"
       y1="318.746"
       x2="660.029"
       y2="1292.766"
       gradientUnits="userSpaceOnUse">
      <stop
         offset=".596"
         stop-color="#fff"
         id="stop1347" />
      <stop
         offset="1"
         id="stop1349" />
    </linearGradient>
    <filter
       id="C"
       x="-0.012394769"
       y="-0.012013239"
       width="1.0247895"
       height="1.0240265"
       class="B">
      <feGaussianBlur
         stdDeviation="2.441"
         id="feGaussianBlur1352" />
    </filter>
    <filter
       inkscape:label="Combined Lighting"
       inkscape:menu="Bevels"
       inkscape:menu-tooltip="Basic specular bevel to use for building textures"
       style="color-interpolation-filters:sRGB;"
       id="filter1585"
       x="-0.058302265"
       y="-0.041123139"
       width="1.1166045"
       height="1.0822463">
      <feGaussianBlur
         stdDeviation="6"
         in="SourceGraphic"
         result="result0"
         id="feGaussianBlur1567" />
      <feDiffuseLighting
         lighting-color="rgb(255,255,255)"
         diffuseConstant="1"
         surfaceScale="4"
         result="result5"
         id="feDiffuseLighting1571">
        <feDistantLight
           elevation="45"
           azimuth="235"
           id="feDistantLight1569" />
      </feDiffuseLighting>
      <feComposite
         k1="1.4"
         in2="SourceGraphic"
         in="result5"
         result="fbSourceGraphic"
         operator="arithmetic"
         id="feComposite1573" />
      <feGaussianBlur
         result="result0"
         in="fbSourceGraphic"
         stdDeviation="6"
         id="feGaussianBlur1575" />
      <feSpecularLighting
         specularExponent="25"
         specularConstant="1"
         surfaceScale="4"
         lighting-color="rgb(255,255,255)"
         result="result1"
         in="result0"
         id="feSpecularLighting1579">
        <feDistantLight
           azimuth="235"
           elevation="45"
           id="feDistantLight1577" />
      </feSpecularLighting>
      <feComposite
         k3="1"
         k2="1"
         operator="arithmetic"
         in="fbSourceGraphic"
         in2="result1"
         result="result4"
         id="feComposite1581" />
      <feComposite
         operator="in"
         result="result2"
         in2="SourceGraphic"
         in="result4"
         id="feComposite1583" />
    </filter>
    <filter
       inkscape:label="Combined Lighting"
       inkscape:menu="Bevels"
       inkscape:menu-tooltip="Basic specular bevel to use for building textures"
       style="color-interpolation-filters:sRGB;"
       id="filter14431"
       x="-0.058158457"
       y="-0.039389184"
       width="1.1163169"
       height="1.0787784">
      <feGaussianBlur
         stdDeviation="6"
         in="SourceGraphic"
         result="result0"
         id="feGaussianBlur14413" />
      <feDiffuseLighting
         lighting-color="rgb(255,255,255)"
         diffuseConstant="1"
         surfaceScale="4"
         result="result5"
         id="feDiffuseLighting14417">
        <feDistantLight
           elevation="45"
           azimuth="235"
           id="feDistantLight14415" />
      </feDiffuseLighting>
      <feComposite
         k1="1.4"
         in2="SourceGraphic"
         in="result5"
         result="fbSourceGraphic"
         operator="arithmetic"
         id="feComposite14419" />
      <feGaussianBlur
         result="result0"
         in="fbSourceGraphic"
         stdDeviation="6"
         id="feGaussianBlur14421" />
      <feSpecularLighting
         specularExponent="25"
         specularConstant="1"
         surfaceScale="4"
         lighting-color="rgb(255,255,255)"
         result="result1"
         in="result0"
         id="feSpecularLighting14425">
        <feDistantLight
           azimuth="279"
           elevation="45"
           id="feDistantLight14423" />
      </feSpecularLighting>
      <feComposite
         k3="1"
         k2="1"
         operator="arithmetic"
         in="fbSourceGraphic"
         in2="result1"
         result="result4"
         id="feComposite14427" />
      <feComposite
         operator="in"
         result="result2"
         in2="SourceGraphic"
         in="result4"
         id="feComposite14429" />
    </filter>
  </defs>
  <path
     style="mix-blend-mode:multiply"
     d="M-2713.437 205.288l23.119 34.853h436.247l13.285-11.264-98.703-458.797-31.462-17.601z"
     transform="matrix(-2.0051 0 0 2.0051 -4364.0778 945.81849)"
     opacity=".5"
     filter="url(#C)"
     id="path1378" />
  <path
     d="M660.043 318.747l-287.664 75.701-142.368 882.306 13.312 80.689 20.099 16.718h793.244l20.099-16.718 13.312-80.689-142.368-882.306z"
     fill="url(#A)"
     id="path1380" />
  <path
     d="M660.031 318.746l-287.664 75.701L230 1283.627l13.312 73.816 20.099 16.718h793.244l20.099-16.718 13.312-73.816-142.37-889.18z"
     fill="url(#B)"
     opacity=".25"
     style="mix-blend-mode:overlay"
     id="path1382" />
  <path
     d="M1069.332 1271.707l-.043 21.064 20.75-16.013-20.707-5.052z"
     opacity=".8"
     fill="#fff"
     id="path1384" />
  <path
     d="M1090.039 1276.759l-20.75 16.013-12.661 81.397 20.099-16.719 13.312-80.69z"
     opacity=".6"
     id="path1386" />
  <g
     fill="#fff"
     id="g1394">
    <path
       d="M372.331 394.437l17.664 13.248L660 335.137v-16.402z"
       opacity=".3"
       id="path1388" />
    <path
       d="M947.669 394.437l-17.664 13.248L660 335.137v-16.402z"
       opacity=".3"
       id="path1390" />
    <path
       d="M947.669 394.437l-17.664 13.248 139.327 864.022 20.707 5.052z"
       opacity=".3"
       id="path1392" />
  </g>
  <path
     d="M372.331 394.437l17.664 13.248-139.327 864.022-20.707 5.052z"
     opacity=".4"
     id="path1396" />
  <path
     d="M229.96 1276.759l20.75 16.013 12.661 81.397-20.099-16.719-13.312-80.69z"
     opacity=".9"
     id="path1398" />
  <path
     d="M250.668 1271.707l.043 21.064-20.75-16.013 20.707-5.052z"
     opacity=".6"
     id="path1400" />
  <path
     d="M250.668 1271.707h818.665l-.043 21.064H250.71l-.043-21.064z"
     opacity=".2"
     id="path1402" />
  <path
     d="M1069.289 1292.771l-12.661 81.397H263.371l-12.661-81.397z"
     opacity=".7"
     id="path1404" />
  <path
     id="path1085"
     style="color:#000000;font-style:normal;font-variant:normal;font-weight:normal;font-stretch:normal;font-size:medium;line-height:normal;font-family:sans-serif;font-variant-ligatures:normal;font-variant-position:normal;font-variant-caps:normal;font-variant-numeric:normal;font-variant-alternates:normal;font-variant-east-asian:normal;font-feature-settings:normal;font-variation-settings:normal;text-indent:0;text-align:start;text-decoration:none;text-decoration-line:none;text-decoration-style:solid;text-decoration-color:#000000;letter-spacing:normal;word-spacing:normal;text-transform:none;writing-mode:lr-tb;direction:ltr;text-orientation:mixed;dominant-baseline:auto;baseline-shift:baseline;text-anchor:start;white-space:normal;shape-padding:0;shape-margin:0;inline-size:0;clip-rule:nonzero;display:inline;overflow:visible;visibility:visible;isolation:auto;mix-blend-mode:normal;color-interpolation:sRGB;color-interpolation-filters:linearRGB;solid-color:#000000;solid-opacity:1;vector-effect:none;fill:#9b0000;fill-opacity:1;fill-rule:nonzero;stroke:none;stroke-width:15.1922;stroke-linecap:butt;stroke-linejoin:round;stroke-miterlimit:4;stroke-dasharray:none;stroke-dashoffset:0;stroke-opacity:1;paint-order:stroke fill markers;color-rendering:auto;image-rendering:auto;shape-rendering:auto;text-rendering:auto;enable-background:accumulate;stop-color:#000000;filter:url(#filter14431)"
     d="m 473.45899,464.70196 c -1.50839,0.16317 -3.04359,0.60034 -4.61734,1.40328 l -9.23477,4.70789 7.12221,8.40488 c 35.05647,41.4081 42.36652,79.47611 43.97093,112.89988 0.8023,16.71191 0.0318,32.20346 0.37699,46.35504 0.34987,14.15165 1.76375,27.40812 8.29924,38.40291 10.91778,22.11498 23.97699,38.19145 38.91592,49.59928 -12.13746,9.64115 -25.8438,20.49472 -43.53326,35.11334 a 7.5968503,7.5968503 0 0 0 1.82584,12.79591 c 30.24598,13.20044 62.73097,22.06029 96.22589,26.40668 -1.04748,42.49801 -4.10682,81.33559 -16.02508,116.34028 -14.96713,43.9595 -43.40849,82.62694 -100.81311,117.59277 a 7.5968503,7.5968503 0 0 0 -0.21191,0.1208 c -27.70532,17.9558 -46.88265,32.7882 -60.05636,51.6968 -13.17333,18.9086 -19.73781,41.3375 -23.22271,72.9729 a 7.5968503,7.5968503 0 0 0 5.59822,8.1937 c 71.99859,19.292 156.98205,28.4601 241.91538,28.0665 84.96077,0.4001 169.98357,-8.7682 242.00587,-28.0665 a 7.5968503,7.5968503 0 0 0 5.58316,-8.1937 c -3.4849,-31.6354 -10.09473,-54.0643 -23.26807,-72.9729 -13.17341,-18.9086 -32.30569,-33.741 -60.01109,-51.6968 a 7.5968503,7.5968503 0 0 0 -0.21191,-0.1208 c -57.40462,-34.96583 -85.84606,-73.63327 -100.81319,-117.59277 -11.92521,-35.02502 -14.9794,-73.88862 -16.02509,-116.41574 32.42133,-4.26035 64.81162,-12.84838 96.19577,-26.28595 a 7.5968503,7.5968503 0 0 0 1.85614,-12.82614 c -17.83164,-14.73657 -31.55944,-25.51798 -43.66916,-35.02277 14.99601,-11.41346 28.10096,-27.52299 39.05173,-49.70489 l 0.31681,-0.60332 c 6.24049,-10.87722 7.63862,-23.90037 7.98234,-37.79931 0.35008,-14.15157 -0.42488,-29.64312 0.377,-46.35503 1.60439,-33.42378 8.9144,-71.49178 43.97094,-112.89987 l 7.12222,-8.40488 -9.23477,-4.70789 c -6.29518,-3.21311 -12.0164,-0.62959 -17.57932,2.29357 -5.56291,2.92323 -11.3776,7.08729 -17.35301,11.30206 -11.38155,8.02807 -23.5563,15.47733 -30.57137,16.1609 -14.01747,-8.73158 -27.94205,-7.81191 -38.49339,-1.88624 -11.12435,6.2475 -18.83916,16.94625 -22.24201,27.4931 l -4.93425,15.28574 13.26371,-4.67778 c 2.92772,-1.03286 5.36514,-0.58255 8.40488,1.58447 3.03973,2.16663 6.39236,6.33233 9.29512,12.16217 5.80596,11.6596 9.6858,29.65856 8.90287,48.48265 -0.78302,18.82402 -6.03953,38.37086 -17.76039,54.33739 -7.03578,9.58436 -16.49445,17.96281 -28.95686,24.18853 8.03002,-10.60542 12.8412,-23.65474 12.8412,-37.82943 0,-35.4518 -29.76032,-64.11544 -66.00163,-64.11544 -36.24122,0 -66.01668,28.66364 -66.01668,64.11544 0,14.17469 4.81126,27.22401 12.8412,37.82943 -12.46232,-6.22572 -21.92108,-14.60417 -28.95677,-24.18853 -11.72109,-15.96653 -16.99259,-35.51337 -17.77554,-54.33739 -0.78302,-18.82409 3.11227,-36.82305 8.91794,-48.48265 2.90284,-5.82984 6.25546,-9.99554 9.2952,-12.16217 3.03965,-2.16664 5.47707,-2.61721 8.40486,-1.58447 l 13.26365,4.67778 -4.93426,-15.28574 c -3.40279,-10.54685 -11.11734,-21.2456 -22.242,-27.4931 -10.55126,-5.92564 -24.47586,-6.84532 -38.49339,1.88624 -7.01514,-0.68384 -19.18998,-8.133 -30.57138,-16.1609 -5.97532,-4.21469 -11.79003,-8.37883 -17.35295,-11.30206 -4.17217,-2.19236 -8.43653,-4.18741 -12.96195,-3.6969 z m 20.00879,26.55758 c 1.11783,0.78068 2.15163,1.48042 3.30456,2.29357 5.98096,4.21869 12.23888,8.91239 18.72612,12.53942 0.004,0.002 0.008,-0.002 0.0155,0 6.48351,3.62351 13.19272,6.1874 20.05403,6.1565 h 1.85593 l 1.59951,-1.13161 c 11.27672,-7.88961 20.33272,-6.85599 27.94583,-2.58027 1.86186,1.04558 3.60719,2.34666 5.22097,3.80252 1.61372,1.45584 3.09606,3.06669 4.40613,4.72302 -0.004,0.002 -0.008,-0.002 -0.0154,0 -1.84406,0.72008 -3.64127,1.61181 -5.29646,2.79159 -1.41261,1.0068 -2.75967,2.15952 -4.04392,3.42533 -1.28547,1.26915 -2.51965,2.66355 -3.68192,4.16468 -2.32439,3.00227 -4.40333,6.43724 -6.27723,10.20052 -7.49546,15.05325 -11.68211,35.62593 -10.77394,57.46094 0.90826,21.835 7.08717,45.03339 21.09518,64.11544 0.17377,0.23797 0.38081,0.4573 0.5586,0.6938 1.8358,2.45109 3.80012,4.82061 5.90001,7.10723 0.63976,0.69846 1.34268,1.35539 2.00681,2.03711 1.76693,1.80825 3.60951,3.56694 5.55296,5.25118 0.80018,0.69528 1.62918,1.36387 2.45958,2.03711 2.07187,1.67411 4.22728,3.28658 6.48855,4.81351 0.72305,0.48973 1.42956,0.98984 2.17289,1.46368 3.01007,1.91463 6.15727,3.71866 9.49129,5.35679 0.0699,0.0318 0.12503,0.0869 0.19708,0.12079 9.21228,4.50147 19.65298,7.91443 31.44664,9.91389 8.1802,2.56251 17.49571,3.15097 25.99923,3.39511 h 0.16529 0.1653 c 8.50629,-0.24497 17.8171,-0.83048 25.99923,-3.39511 11.59702,-1.96719 21.90763,-5.28116 31.00898,-9.67246 0.18648,-0.0911 0.34224,-0.21191 0.52851,-0.30197 3.22607,-1.58087 6.2835,-3.3041 9.20463,-5.14556 0.90317,-0.56941 1.75125,-1.18756 2.62556,-1.78049 2.09878,-1.42278 4.13155,-2.90074 6.06601,-4.45147 0.98307,-0.78832 1.94091,-1.59486 2.88212,-2.41432 1.88602,-1.64169 3.68262,-3.34142 5.40208,-5.10021 0.66519,-0.68066 1.3662,-1.33971 2.00681,-2.03712 2.33135,-2.53686 4.5401,-5.15545 6.5489,-7.89187 14.00795,-19.08205 20.187,-42.28044 21.09518,-64.11545 0.22717,-5.45867 0.13986,-10.83587 -0.24116,-16.07028 -0.38165,-5.23449 -1.05681,-10.33315 -1.99198,-15.21032 -1.87013,-9.75419 -4.79289,-18.65367 -8.5406,-26.18034 -3.74774,-7.52658 -8.35536,-13.75414 -14.01825,-17.79052 -1.65886,-1.18247 -3.44797,-2.07081 -5.29638,-2.79157 2.62007,-3.31276 5.88804,-6.43424 9.61204,-8.52554 7.61304,-4.27572 16.66904,-5.30936 27.94576,2.58027 l 1.59951,1.13161 h 1.85593 c 1.7165,0.008 3.41962,-0.14622 5.11536,-0.43738 11.87007,-2.0475 23.21322,-10.87559 33.6798,-18.25833 1.1528,-0.81311 2.18704,-1.51305 3.30467,-2.29357 -8.60791,13.48075 -14.89936,26.77901 -19.48064,39.68548 -3.05419,8.60427 -5.35439,17.03974 -7.06188,25.22968 -2.56128,12.28484 -3.8029,24.02819 -4.33073,35.02277 -0.85613,17.8317 -0.0699,33.74161 -0.39246,46.80777 -0.32296,13.06617 -1.80359,22.84115 -5.82452,29.60565 l -0.18013,0.28672 -0.15046,0.30219 c -1.61562,3.3014 -3.27699,6.38988 -4.96447,9.3706 -0.59569,1.05384 -1.20621,2.03245 -1.8108,3.04807 -1.03031,1.72687 -2.06572,3.43631 -3.12348,5.05502 -0.86757,1.33145 -1.75464,2.61674 -2.64071,3.87798 -0.81883,1.16128 -1.63935,2.29211 -2.47465,3.3952 -1.02883,1.36408 -2.06933,2.7202 -3.12357,3.99866 -0.57004,0.6883 -1.15747,1.32785 -1.73535,1.99177 -4.56458,5.27027 -9.37183,9.8146 -14.44068,13.70125 -0.0233,0.0154 -0.0381,0.0318 -0.0615,0.0466 -0.006,0.004 -0.008,0.008 -0.0154,0.0155 -1.85847,1.42193 -3.7577,2.75544 -5.68877,4.01381 -3.5959,2.34325 -7.27549,4.50285 -11.13611,6.33759 -20.50261,9.74399 -45.16982,12.60377 -74.42156,12.46393 -1.03074,-0.005 -2.07716,-0.0381 -3.12355,-0.10595 l -0.37699,-0.0318 -0.39246,0.0318 c -1.04621,0.0699 -2.0778,0.10172 -3.10842,0.10595 -29.25173,0.13987 -53.93408,-2.71994 -74.43668,-12.46393 -3.94382,-1.87437 -7.70964,-4.08265 -11.37746,-6.48847 -0.006,-0.004 -0.008,-0.008 -0.0155,-0.0155 -1.87776,-1.23227 -3.7288,-2.53532 -5.53781,-3.92326 -0.13774,-0.10596 -0.26955,-0.22484 -0.40708,-0.33228 -4.8883,-3.79461 -9.52549,-8.20191 -13.94266,-13.29385 -0.62663,-0.71923 -1.2683,-1.40964 -1.88624,-2.15784 -1.03032,-1.25261 -2.0422,-2.58877 -3.04815,-3.92324 -0.85358,-1.12822 -1.69848,-2.28152 -2.535,-3.4706 -0.8307,-1.18502 -1.66055,-2.38993 -2.47467,-3.63657 -1.14645,-1.74997 -2.26569,-3.58524 -3.38005,-5.46241 -0.54843,-0.92584 -1.10385,-1.81905 -1.64487,-2.77649 -1.68576,-2.97854 -3.35023,-6.07198 -4.96447,-9.37061 l -0.15046,-0.30197 -0.18013,-0.28672 c -3.01579,-5.07342 -4.60051,-11.83754 -5.34172,-20.41617 -0.24878,-2.85948 -0.40178,-5.92293 -0.48295,-9.1895 -0.32295,-13.06617 0.46346,-28.97608 -0.39246,-46.80778 -1.40731,-29.31887 -7.9189,-63.9892 -30.87314,-99.93793 z m 166.55823,94.32464 c 23.53838,0 43.07488,15.11693 49.16168,35.68673 0.43103,1.45669 0.8093,2.92802 1.10152,4.43635 0.28821,1.48741 0.51686,2.99585 0.66372,4.52687 0.002,0.0233 0.0154,0.0381 0.0154,0.0615 0.0551,0.61264 0.0551,1.23735 0.0911,1.85614 0.0466,0.89533 0.13562,1.77858 0.13562,2.68589 0,0.0233 0,0.0466 0,0.0763 6e-5,0.0318 0,0.0615 0,0.0911 0,0.0826 -0.0154,0.15893 -0.0154,0.24115 -0.0233,2.37578 -0.26277,4.70118 -0.61878,6.9864 -0.0932,0.60649 -0.17165,1.2115 -0.28672,1.81079 -0.42192,2.15977 -0.98645,4.27178 -1.69,6.32252 -0.22103,0.64506 -0.47744,1.26851 -0.7239,1.90128 -0.73555,1.87839 -1.54632,3.71652 -2.50487,5.47754 -0.35304,0.65057 -0.75017,1.26808 -1.13182,1.90128 -0.85994,1.42172 -1.79215,2.79296 -2.79151,4.11941 -0.33291,0.44353 -0.58784,0.94047 -0.93559,1.37319 -0.0154,-0.0318 -0.0381,-0.0699 -0.0615,-0.10596 -9.32331,11.57177 -23.86674,19.05811 -40.40978,19.05811 -16.60799,0 -31.20127,-7.5443 -40.51537,-19.19386 -0.0155,0.0318 -0.0318,0.0615 -0.0466,0.0911 -0.28438,-0.35686 -0.49524,-0.76713 -0.76945,-1.13183 -1.15662,-1.52874 -2.2286,-3.11321 -3.19895,-4.76831 -0.25027,-0.42721 -0.50223,-0.84765 -0.73936,-1.28249 -0.99302,-1.81864 -1.84089,-3.71466 -2.59542,-5.65856 -0.2365,-0.60882 -0.4821,-1.20599 -0.6938,-1.82583 -0.70779,-2.06975 -1.26915,-4.20255 -1.69001,-6.38285 -0.10383,-0.54547 -0.18648,-1.09368 -0.27188,-1.64487 -0.36237,-2.30893 -0.5995,-4.66038 -0.61878,-7.06196 -3.9e-4,-0.0763 -0.0154,-0.14834 -0.0154,-0.22633 0,-0.0318 -7e-5,-0.0615 0,-0.0911 -7e-5,-0.0233 0,-0.0466 0,-0.0763 0,-0.90719 0.0848,-1.79045 0.13562,-2.68588 0.0381,-0.63744 0.0466,-1.28568 0.10596,-1.91633 0.14622,-1.52619 0.37699,-3.02899 0.66371,-4.51183 0.28672,-1.4819 0.65057,-2.92863 1.07143,-4.36084 0.008,-0.0318 0.006,-0.0615 0.0154,-0.0911 6.08199,-20.57167 25.6219,-35.68674 49.16168,-35.68674 z" />
</svg>
