<?xml version="1.0" encoding="UTF-8" standalone="no"?>
<svg
   width="498.898"
   height="544.252"
   viewBox="0 0 1320 1440"
   version="1.1"
   id="svg8048"
   sodipodi:docname="0_PROMOTEDCOPPER.svg"
   inkscape:version="1.2 (dc2aedaf03, 2022-05-15)"
   xmlns:inkscape="http://www.inkscape.org/namespaces/inkscape"
   xmlns:sodipodi="http://sodipodi.sourceforge.net/DTD/sodipodi-0.dtd"
   xmlns:xlink="http://www.w3.org/1999/xlink"
   xmlns="http://www.w3.org/2000/svg"
   xmlns:svg="http://www.w3.org/2000/svg">
  <sodipodi:namedview
     id="namedview8050"
     pagecolor="#ffffff"
     bordercolor="#666666"
     borderopacity="1.0"
     inkscape:showpageshadow="2"
     inkscape:pageopacity="0.0"
     inkscape:pagecheckerboard="0"
     inkscape:deskcolor="#d1d1d1"
     showgrid="false"
     inkscape:zoom="0.97506968"
     inkscape:cx="-537.91028"
     inkscape:cy="192.29395"
     inkscape:window-width="3840"
     inkscape:window-height="2036"
     inkscape:window-x="3828"
     inkscape:window-y="-12"
     inkscape:window-maximized="1"
     inkscape:current-layer="svg8048" />
  <style
     id="style7955"><![CDATA[.B{color-interpolation-filters:sRGB}]]></style>
  <defs
     id="defs8002">
    <linearGradient
       id="A"
       x1="-1430.769"
       y1="-77.47"
       x2="-1409.955"
       y2="-77.47"
       spreadMethod="reflect"
       gradientUnits="userSpaceOnUse">
      <stop
         offset="0"
         stop-color="#ffd285"
         id="stop7957" />
      <stop
         offset=".232"
         stop-color="#ffcd79"
         id="stop7959" />
      <stop
         offset=".616"
         stop-color="#ffca73"
         id="stop7961" />
      <stop
         offset=".808"
         stop-color="#ffd386"
         id="stop7963" />
      <stop
         offset="1"
         stop-color="#ffc86e"
         id="stop7965" />
    </linearGradient>
    <linearGradient
       id="B"
       x1="-1215.571"
       y1="-296.329"
       x2="-1215.572"
       y2="165.415"
       gradientUnits="userSpaceOnUse">
      <stop
         offset=".6"
         stop-color="#fff"
         id="stop7968" />
      <stop
         offset="1"
         id="stop7970" />
    </linearGradient>
    <filter
       id="C"
       x="-0.011867782"
       y="-0.01125585"
       width="1.0237356"
       height="1.0225117"
       class="B">
      <feGaussianBlur
         stdDeviation="2.441"
         id="feGaussianBlur7973" />
    </filter>
    <path
       id="E"
       d="M-1215.571-296.329l-149.881 40.669-79.82 472.51 6.639 36.814 10.024 8.338h426.077l10.024-8.338 6.639-36.814-79.82-472.51z" />
    <filter
       inkscape:label="Combined Lighting"
       inkscape:menu="Bevels"
       inkscape:menu-tooltip="Basic specular bevel to use for building textures"
       style="color-interpolation-filters:sRGB;"
       id="filter7371"
       x="-0.044811471"
       y="-0.042479365"
       width="1.0896229"
       height="1.0849587">
      <feGaussianBlur
         stdDeviation="6"
         in="SourceGraphic"
         result="result0"
         id="feGaussianBlur7353" />
      <feDiffuseLighting
         lighting-color="rgb(255,255,255)"
         diffuseConstant="1"
         surfaceScale="4"
         result="result5"
         id="feDiffuseLighting7357">
        <feDistantLight
           elevation="45"
           azimuth="235"
           id="feDistantLight7355" />
      </feDiffuseLighting>
      <feComposite
         k1="1.4"
         in2="SourceGraphic"
         in="result5"
         result="fbSourceGraphic"
         operator="arithmetic"
         id="feComposite7359" />
      <feGaussianBlur
         result="result0"
         in="fbSourceGraphic"
         stdDeviation="6"
         id="feGaussianBlur7361" />
      <feSpecularLighting
         specularExponent="25"
         specularConstant="1"
         surfaceScale="4"
         lighting-color="rgb(255,255,255)"
         result="result1"
         in="result0"
         id="feSpecularLighting7365">
        <feDistantLight
           azimuth="280"
           elevation="45"
           id="feDistantLight7363" />
      </feSpecularLighting>
      <feComposite
         k3="1"
         k2="1"
         operator="arithmetic"
         in="fbSourceGraphic"
         in2="result1"
         result="result4"
         id="feComposite7367" />
      <feComposite
         operator="in"
         result="result2"
         in2="SourceGraphic"
         in="result4"
         id="feComposite7369" />
    </filter>
  </defs>
  <path
     style="mix-blend-mode:multiply"
     d="M-2728.669 264.709l28.198 35.189h455.354l10.087-9.413-98.043-493.462-31.462-17.601z"
     transform="matrix(-2.0051 0 0 2.0051 -4364.0778 816.66224)"
     opacity=".5"
     filter="url(#C)"
     id="path8004" />
  <use
     xlink:href="#E"
     fill="url(#A)"
     transform="matrix(2.0051 0 0 2.0051 3097.3821 831.9343)"
     id="use8006" />
  <use
     xlink:href="#E"
     x="315.666"
     y="-40.204"
     opacity=".25"
     fill="url(#B)"
     transform="matrix(2.0051 0 0 2.0051 2464.4309 912.54909)"
     style="mix-blend-mode:overlay"
     id="use8008" />
  <path
     d="M1099.874 1261.697l-.043 21.064 20.75-16.013-20.707-5.052z"
     opacity=".8"
     fill="#fff"
     id="path8010" />
  <path
     d="M1120.582 1266.748l-20.75 16.013-12.661 74.524 20.099-16.719 13.312-73.818z"
     opacity=".6"
     id="path8012" />
  <g
     fill="#fff"
     id="g8020">
    <path
       d="M359.469 319.303l17.664 13.248L660 254.157v-16.402z"
       opacity=".3"
       id="path8014" />
    <path
       d="M960.531 319.303l-17.664 13.248L660 254.157v-16.402z"
       opacity=".3"
       id="path8016" />
    <path
       d="M960.531 319.303l-17.664 13.248 157.007 929.146 20.707 5.052z"
       opacity=".3"
       id="path8018" />
  </g>
  <path
     d="M359.469 319.303l17.664 13.248-157.007 929.146-20.707 5.052z"
     opacity=".4"
     id="path8022" />
  <path
     d="M199.419 1266.748l20.75 16.013 12.661 74.524-20.099-16.719-13.312-73.818z"
     opacity=".9"
     id="path8024" />
  <path
     d="M220.126 1261.697l.043 21.064-20.75-16.013 20.707-5.052z"
     opacity=".6"
     id="path8026" />
  <path
     d="M220.126 1261.697h879.749l-.043 21.064H220.169l-.043-21.064z"
     opacity=".2"
     id="path8028" />
  <path
     d="M1099.831 1282.761l-12.661 74.524H232.829l-12.661-74.524h879.663z"
     opacity=".7"
     id="path8030" />
  <path
     style="fill:#9b0000;fill-opacity:1;stroke-width:0.915476;filter:url(#filter7371)"
     d="m 825.02946,1144.2509 c -9.52503,-24.7386 -25.93084,-66.4708 -26.52189,-67.4643 -0.54455,-0.9048 -71.87754,-11.6427 -77.34035,-11.6427 -1.82959,0 -8.17675,1.6962 -14.01205,3.6302 -17.17891,5.8751 -21.04078,6.2086 -48.41695,6.2086 -27.25315,-0.025 -32.95097,-0.8199 -49.01716,-6.774 -4.43677,-1.6964 -9.83644,-3.048 -12.05599,-3.048 -4.52391,-0.013 -65.75324,8.9173 -75.1305,10.9502 l -2.79025,0.5937 -18.48591,47.389 c -10.16111,26.0591 -18.7211,47.3893 -18.99776,47.3989 -0.87117,0.013 -1.82959,-16.4858 -1.65539,-30.2396 0.30496,-37.2174 10.65764,-82.3114 22.90362,-99.7117 5.92021,-8.3575 16.17921,-15.1513 30.73226,-20.2914 3.56344,-1.244 6.69564,-2.601 6.95913,-2.9516 0.7406,-0.8481 -7.13343,-11.9143 -8.00245,-11.3572 -0.34849,0.2703 -11.12598,2.0357 -23.94713,3.8226 -12.81182,1.7811 -23.74725,3.6274 -24.29515,3.7263 -1.98212,0.7633 -7.91756,14.5208 -23.79993,55.2018 -3.82927,9.7116 -8.43818,21.264 -10.30047,25.5501 -3.1365,7.2238 -3.39578,7.563 -3.90978,5.3096 -0.87118,-4.0655 -0.80589,-26.0052 0.10003,-41.7226 1.21976,-21.476 5.56724,-42.4436 12.66592,-61.45756 7.82817,-20.95575 18.22447,-29.0729 47.50364,-37.03364 6.78494,-1.78114 8.52309,-2.60109 8.4381,-4.06555 -0.0374,-0.96131 -0.12264,-3.29106 -0.19989,-5.30971 -0.20801,-5.30959 -2.43952,-7.45277 -9.46628,-9.59581 -18.03925,-5.30959 -42.64095,-18.2471 -55.75838,-29.53758 -11.86433,-10.27426 -21.91205,-24.27773 -26.6097,-37.21744 -2.69432,-7.34231 -6.08796,-25.32671 -9.55118,-50.59508 -5.92012,-42.8842 -7.21834,-51.3641 -8.00246,-52.67325 -0.47916,-0.76345 -1.82959,-1.69639 -3.04496,-2.03575 -3.74428,-1.10256 -19.53792,-11.91414 -26.64435,-18.05495 -7.82826,-6.77418 -21.3916,-23.78865 -26.68816,-33.60279 -9.41173,-17.44427 -13.03178,-40.90981 -9.89967,-64.26878 3.99693,-30.07979 17.9196,-63.29752 41.38878,-99.05717 13.70055,-20.87658 46.40774,-61.46898 47.92966,-59.48125 0.20801,0.26806 -0.0439,28.10589 -0.5664,61.84095 -0.50093,33.73809 -0.80589,74.96142 -0.65336,91.60478 l 0.26134,30.23934 13.99674,-25.55001 c 7.74111,-14.0487 17.9805,-32.8237 22.84281,-41.70818 14.00328,-25.60664 21.49388,-38.59182 22.25157,-38.59182 1.21976,0 14.00337,17.30012 18.70158,25.26172 5.04679,8.46776 9.97804,20.86529 12.47425,31.04777 7.39468,30.30712 2.43952,67.80341 -12.96864,97.52178 -8.00255,15.50468 -23.3386,32.03467 -35.96043,38.85286 -7.30772,4.06566 -17.70178,7.56296 -21.73785,7.56296 -6.69565,0 -6.6085,-0.45235 -2.69442,29.77523 3.90979,30.452 6.69565,47.12773 8.86504,52.61614 6.09002,15.69418 23.66907,29.90061 49.64324,40.08224 14.19728,5.52454 12.82929,6.3246 19.55548,-11.06886 7.04628,-18.21319 10.55966,-24.43316 22.34684,-39.14322 15.981,-19.94085 28.67111,-30.61205 48.04323,-40.4211 4.34982,-2.2901 7.82817,-4.30584 7.82817,-4.86003 0,-1.95075 -28.16608,-73.86638 -28.89687,-73.86638 -0.41387,0 -2.79025,-0.96132 -5.21884,-2.2901 -5.56733,-2.79908 -13.36066,-11.77861 -16.33603,-19.12951 -1.89498,-4.74122 -2.17809,-6.3245 -2.17809,-15.72522 0,-9.59578 0.21381,-11.06594 2.52872,-17.20966 4.09053,-11.06595 9.35074,-16.66397 19.16327,-20.36773 21.16286,-8.0124 42.16254,21.14524 34.98596,48.52999 l -1.74254,6.77416 15.94402,41.46146 15.94401,41.46157 h 23.73604 23.73912 l 16.13783,-40.77438 16.13783,-40.75959 -1.56825,-6.32474 c -2.17818,-8.69097 -2.09103,-19.33283 0.15402,-27.02029 3.56345,-12.32964 14.04904,-22.87256 24.15626,-24.354 9.12414,-1.35715 20.33726,4.74135 26.26139,14.03173 4.52401,7.22361 6.17502,14.44164 5.65448,26.11549 -0.63169,17.19839 -7.04628,27.8006 -20.73815,34.43995 l -4.43901,2.03562 -14.04027,36.47241 c -7.7412,20.05094 -13.86606,36.65113 -13.65693,36.8787 0.20885,0.23121 3.82909,2.29011 8.00237,4.30597 15.88526,8.134 32.82048,21.41937 45.35507,35.63526 11.23049,12.74803 22.29463,32.86697 27.7665,50.49383 1.48111,4.74134 3.1365,8.6911 3.74419,9.03603 1.56834,0.76345 19.22426,-5.97399 29.23639,-11.06874 20.91011,-10.83984 32.67253,-23.29398 36.0388,-38.42244 3.82918,-17.13887 11.30681,-72.25183 10.28955,-75.68402 -0.37026,-1.24405 -1.56825,-1.69639 -4.43687,-1.69639 -8.1746,0 -26.06282,-8.01252 -35.15912,-15.67453 -5.48019,-4.74134 -20.2589,-23.74342 -24.37361,-31.5702 -5.92021,-11.17894 -11.55068,-29.35865 -14.14479,-45.60361 -4.87259,-30.57809 0.69698,-59.82036 16.32726,-85.43985 4.8725,-8.01264 15.57815,-21.99345 16.81314,-21.99345 0.8495,0.0121 10.8819,17.81745 35.88982,63.87341 12.34358,22.7398 22.79714,41.05494 23.22568,40.71631 0.78412,-0.65032 0.50101,-47.97471 -0.78413,-143.57871 l -0.52268,-39.50634 1.80782,1.24405 c 6.4386,4.40477 39.34436,47.01666 51.25287,66.27869 24.81784,40.1306 38.03966,78.02165 37.98661,108.86902 -0.0252,16.27091 -5.2188,36.119 -13.18642,50.62877 -4.94881,9.03591 -16.5517,23.11297 -24.73938,30.08962 -7.82826,6.66384 -25.75711,18.47056 -28.08706,18.47056 -0.84951,0 -1.80793,1.04607 -2.27401,2.45973 -0.41378,1.35703 -2.79669,17.45275 -5.21884,35.72679 -7.13119,53.04533 -9.1786,62.48594 -16.51892,76.4979 -12.42195,23.74342 -38.02167,42.88408 -74.65228,55.80098 -5.74162,2.03562 -10.62065,4.30599 -11.50715,5.52445 -1.98212,2.45972 -2.78586,9.82482 -1.3069,11.36008 0.58816,0.65033 5.39303,2.34672 10.73386,3.82246 30.42823,8.6911 39.61383,18.23318 48.85202,50.67415 3.90969,13.9215 6.78485,29.8666 7.74326,43.2903 0.95842,14.2269 1.04547,46.0925 0.0925,46.8814 -0.95841,0.7634 -3.46761,-5.075 -18.93891,-44.2733 -13.18646,-33.3747 -16.41449,-40.8611 -18.26809,-42.3948 -0.56631,-0.4806 -11.87955,-2.6011 -25.14793,-4.7413 l -24.10414,-3.8227 -4.17767,5.4199 c -2.34378,2.9516 -3.90978,5.6462 -3.64844,6.0957 0.32673,0.424 3.64844,1.7811 7.39477,3.0477 8.69953,2.9517 20.01493,9.2566 25.38275,14.032 16.68461,14.9279 30.64576,77.2085 27.56633,123.0445 -0.50092,7.4527 -1.04546,13.718 -1.11085,13.947 -0.14617,0.2108 -5.21884,-12.4654 -11.24795,-28.1596 z"
     id="path4100-7" />
</svg>
