<?xml version="1.0" encoding="UTF-8" standalone="no"?>
<svg
   width="498.898"
   height="544.252"
   viewBox="0 0 1320 1440"
   version="1.1"
   id="svg3289"
   sodipodi:docname="0_PROMOTEDGOLD.svg"
   inkscape:version="1.2 (dc2aedaf03, 2022-05-15)"
   xmlns:inkscape="http://www.inkscape.org/namespaces/inkscape"
   xmlns:sodipodi="http://sodipodi.sourceforge.net/DTD/sodipodi-0.dtd"
   xmlns="http://www.w3.org/2000/svg"
   xmlns:svg="http://www.w3.org/2000/svg">
  <sodipodi:namedview
     id="namedview3291"
     pagecolor="#ffffff"
     bordercolor="#666666"
     borderopacity="1.0"
     inkscape:showpageshadow="2"
     inkscape:pageopacity="0.0"
     inkscape:pagecheckerboard="0"
     inkscape:deskcolor="#d1d1d1"
     showgrid="false"
     inkscape:zoom="1.3789568"
     inkscape:cx="403.56595"
     inkscape:cy="399.94002"
     inkscape:window-width="3840"
     inkscape:window-height="2036"
     inkscape:window-x="-12"
     inkscape:window-y="-12"
     inkscape:window-maximized="1"
     inkscape:current-layer="svg3289" />
  <style
     id="style3196"><![CDATA[.B{color-interpolation-filters:sRGB}]]></style>
  <defs
     id="defs3241">
    <linearGradient
       id="A"
       x1="-1430.769"
       y1="-77.47"
       x2="-1409.955"
       y2="-77.47"
       spreadMethod="reflect"
       gradientUnits="userSpaceOnUse">
      <stop
         offset="0"
         stop-color="#ffd285"
         id="stop3198" />
      <stop
         offset=".232"
         stop-color="#ffcd79"
         id="stop3200" />
      <stop
         offset=".616"
         stop-color="#ffca73"
         id="stop3202" />
      <stop
         offset=".808"
         stop-color="#ffd386"
         id="stop3204" />
      <stop
         offset="1"
         stop-color="#ffc86e"
         id="stop3206" />
    </linearGradient>
    <linearGradient
       id="B"
       x1="-899.905"
       y1="-344.262"
       x2="-899.906"
       y2="125.211"
       gradientUnits="userSpaceOnUse">
      <stop
         offset=".597"
         stop-color="#fff"
         id="stop3209" />
      <stop
         offset="1"
         id="stop3211" />
    </linearGradient>
    <filter
       id="C"
       x="-0.01110353"
       y="-0.011243256"
       width="1.0222071"
       height="1.0224865"
       class="B">
      <feGaussianBlur
         stdDeviation="2.441"
         id="feGaussianBlur3214" />
    </filter>
    <filter
       inkscape:label="Combined Lighting"
       inkscape:menu="Bevels"
       inkscape:menu-tooltip="Basic specular bevel to use for building textures"
       style="color-interpolation-filters:sRGB;"
       id="filter4105"
       x="-0.046972459"
       y="-0.039215222"
       width="1.0939449"
       height="1.0784304">
      <feGaussianBlur
         stdDeviation="6"
         in="SourceGraphic"
         result="result0"
         id="feGaussianBlur4087" />
      <feDiffuseLighting
         lighting-color="rgb(255,255,255)"
         diffuseConstant="1"
         surfaceScale="4"
         result="result5"
         id="feDiffuseLighting4091">
        <feDistantLight
           elevation="45"
           azimuth="235"
           id="feDistantLight4089" />
      </feDiffuseLighting>
      <feComposite
         k1="1.4"
         in2="SourceGraphic"
         in="result5"
         result="fbSourceGraphic"
         operator="arithmetic"
         id="feComposite4093" />
      <feGaussianBlur
         result="result0"
         in="fbSourceGraphic"
         stdDeviation="6"
         id="feGaussianBlur4095" />
      <feSpecularLighting
         specularExponent="25"
         specularConstant="1"
         surfaceScale="4"
         lighting-color="rgb(255,255,255)"
         result="result1"
         in="result0"
         id="feSpecularLighting4099">
        <feDistantLight
           azimuth="280"
           elevation="45"
           id="feDistantLight4097" />
      </feSpecularLighting>
      <feComposite
         k3="1"
         k2="1"
         operator="arithmetic"
         in="fbSourceGraphic"
         in2="result1"
         result="result4"
         id="feComposite4101" />
      <feComposite
         operator="in"
         result="result2"
         in2="SourceGraphic"
         in="result4"
         id="feComposite4103" />
    </filter>
  </defs>
  <path
     style="mix-blend-mode:multiply"
     d="M-2745.657 265.144l28.198 35.189h489.331l10.087-9.413-110.95-494.045-31.462-17.601z"
     transform="matrix(-2.0051 0 0 2.0051 -4364.0778 816.66224)"
     opacity=".5"
     filter="url(#C)"
     id="path3243" />
  <path
     d="M-1215.57-304.058l-153.963 48.25-92.727 473.093 6.639 36.814 10.024 8.338h460.053l10.024-8.338 6.639-36.814-92.727-473.093z"
     fill="url(#A)"
     transform="matrix(2.0051 0 0 2.0051 3097.3821 831.9343)"
     id="path3245" />
  <path
     d="M-899.905-344.262l-153.963 48.25-92.727 473.093 6.639 36.814 10.024 8.338h460.054l10.024-8.338 6.639-36.814-92.727-473.093z"
     opacity=".25"
     fill="url(#B)"
     transform="matrix(2.0051 0 0 2.0051 2464.4309 912.54909)"
     style="mix-blend-mode:overlay"
     id="path3247" />
  <path
     d="M1133.938 1262.57l-.043 21.064 20.75-16.013-20.707-5.052z"
     opacity=".8"
     fill="#fff"
     id="path3249" />
  <path
     d="M1154.645 1267.622l-20.75 16.013-12.661 74.524 20.099-16.719 13.312-73.818z"
     opacity=".6"
     id="path3251" />
  <g
     fill="#fff"
     id="g3259">
    <path
       d="M351.284 319.007l17.664 13.248L660 238.66v-16.402z"
       opacity=".3"
       id="path3253" />
    <path
       d="M968.716 319.007l-17.664 13.248L660 238.66v-16.402z"
       opacity=".3"
       id="path3255" />
    <path
       d="M968.716 319.007l-17.664 13.248 182.886 930.315 20.707 5.052z"
       opacity=".3"
       id="path3257" />
  </g>
  <path
     d="M351.284 319.007l17.664 13.248-182.886 930.315-20.707 5.052z"
     opacity=".4"
     id="path3261" />
  <path
     d="M165.355 1267.622l20.75 16.013 12.661 74.524-20.099-16.719-13.312-73.818z"
     opacity=".9"
     id="path3263" />
  <path
     d="M186.062 1262.57l.043 21.064-20.75-16.013 20.707-5.052z"
     opacity=".6"
     id="path3265" />
  <path
     d="M186.062 1262.57h947.876l-.043 21.064H186.105l-.043-21.064z"
     opacity=".2"
     id="path3267" />
  <path
     d="M1133.895 1283.634l-12.661 74.524H198.765l-12.66-74.524h947.791z"
     opacity=".7"
     id="path3269" />
  <path
     id="path15015"
     style="opacity:0.99;fill:#9b0000;fill-opacity:1;stroke:none;stroke-width:15.3843px;stroke-linecap:butt;stroke-linejoin:round;stroke-opacity:1;filter:url(#filter4105)"
     d="m 965.48995,477.17971 v 0.0188 c -206.9283,22.71267 -403.4285,22.71267 -610.9523,0.381 -1.4224,-0.14808 -1.1176,2.0574 -0.8128,3.26136 11.3716,45.99456 15.4077,51.67603 47.2196,85.53243 l 517.9526,-0.14783 c 33.088,-32.46626 35.931,-39.02657 47.4527,-85.29189 0.3302,-1.2954 0.5334,-3.91414 -0.8128,-3.78206 z m -565.2046,112.68756 v 393.67496 h 32.7449 c 11.9075,-114.56063 109.1092,-204.29443 226.7503,-204.29443 117.6372,0 214.8153,89.7338 226.7142,204.29443 h 32.7446 V 589.86727 Z m 259.4967,213.06223 c -112.8412,-0.015 -204.3254,91.4539 -204.3322,204.2946 -0.014,112.855 91.4768,204.3457 204.3322,204.3313 112.84,-0.01 204.3091,-91.487 204.2949,-204.3313 -0.01,-112.8262 -91.4671,-204.2883 -204.2949,-204.2946 z m -18.9992,71.3188 v 87.18733 l -61.6137,-61.66433 c 18.067,-13.5509 39.2567,-22.3266 61.6137,-25.5194 z m 37.9695,0 c 22.357,3.1725 43.547,11.9736 61.6135,25.5194 l -61.6135,61.66433 z m -126.3955,52.4002 61.644,61.64273 h -87.1666 c 3.1419,-22.3621 11.9608,-43.5701 25.5226,-61.64273 z m 214.8809,0 c 13.561,18.08233 22.3367,39.27883 25.5219,61.64273 h -87.1867 z m -364.7182,79.9574 c -13.1166,0.066 -25.908,0.1862 -25.908,0.1862 l -19.3929,33.3575 v 37.6878 h 87.1357 c -10.4978,-18.1661 -15.5194,-47.4574 -13.9471,-71.0446 -1.3208,-0.2794 -14.76,-0.2494 -27.8758,-0.1874 z m 514.4793,0 c -13.1165,-0.065 -26.5671,-0.075 -27.8755,0.1862 h -0.018 c 1.524,23.5915 -3.4341,52.8708 -13.97,71.0443 h 87.1463 v -37.6875 l -19.3776,-33.3578 c 0,0 -12.7915,-0.1199 -25.9063,-0.1862 z m -390.1636,19.5529 h 87.1661 l -61.6137,61.6511 c -13.5713,-18.0721 -22.3571,-39.279 -25.5623,-61.6501 z m 178.7557,0 h 87.1662 c -3.2487,22.3799 -12.0015,43.5849 -25.5728,61.6501 z m -64.8091,26.8755 v 87.1306 c -22.3367,-3.2614 -43.5066,-11.9786 -61.5528,-25.5191 z m 37.9684,0 61.6135,61.6138 c -18.067,13.5534 -39.2564,22.3265 -61.6135,25.5191 z"
     sodipodi:nodetypes="ccscccscccccscccccccccccccccccccccccccscccccssccccccscccccccccccccccc" />
</svg>
