<?xml version="1.0" encoding="UTF-8" standalone="no"?>
<svg
   width="498.898"
   height="544.252"
   viewBox="0 0 1320 1440"
   version="1.1"
   id="svg18291"
   sodipodi:docname="0_PRINCE.svg"
   inkscape:version="1.2 (dc2aedaf03, 2022-05-15)"
   xmlns:inkscape="http://www.inkscape.org/namespaces/inkscape"
   xmlns:sodipodi="http://sodipodi.sourceforge.net/DTD/sodipodi-0.dtd"
   xmlns="http://www.w3.org/2000/svg"
   xmlns:svg="http://www.w3.org/2000/svg">
  <sodipodi:namedview
     id="namedview18293"
     pagecolor="#ffffff"
     bordercolor="#666666"
     borderopacity="1.0"
     inkscape:showpageshadow="2"
     inkscape:pageopacity="0.0"
     inkscape:pagecheckerboard="0"
     inkscape:deskcolor="#d1d1d1"
     showgrid="false"
     inkscape:zoom="0.6894784"
     inkscape:cx="218.28095"
     inkscape:cy="-103.70158"
     inkscape:window-width="1916"
     inkscape:window-height="2022"
     inkscape:window-x="3830"
     inkscape:window-y="0"
     inkscape:window-maximized="0"
     inkscape:current-layer="svg18291" />
  <style
     id="style18192"><![CDATA[.B{color-interpolation-filters:sRGB}.C{fill-opacity:.98}]]></style>
  <defs
     id="defs18229">
    <linearGradient
       id="A"
       x1="236.943"
       y1="670.458"
       x2="278.677"
       y2="670.458"
       spreadMethod="reflect"
       gradientUnits="userSpaceOnUse">
      <stop
         offset="0"
         stop-color="#ffd285"
         id="stop18194" />
      <stop
         offset=".232"
         stop-color="#ffcd79"
         id="stop18196" />
      <stop
         offset=".616"
         stop-color="#ffca73"
         id="stop18198" />
      <stop
         offset=".808"
         stop-color="#ffd386"
         id="stop18200" />
      <stop
         offset="1"
         stop-color="#ffc86e"
         id="stop18202" />
    </linearGradient>
    <linearGradient
       id="B"
       x1="660"
       y1="115.844"
       x2="670.254"
       y2="1157.469"
       gradientUnits="userSpaceOnUse">
      <stop
         offset=".604"
         stop-color="#fff"
         id="stop18205" />
      <stop
         offset="1"
         id="stop18207" />
    </linearGradient>
    <filter
       id="C"
       x="-0.010152573"
       y="-0.010558682"
       width="1.0203051"
       height="1.0211174"
       class="B">
      <feGaussianBlur
         stdDeviation="2.441"
         id="feGaussianBlur18210" />
    </filter>
    <filter
       inkscape:label="Combined Lighting"
       inkscape:menu="Bevels"
       inkscape:menu-tooltip="Basic specular bevel to use for building textures"
       style="color-interpolation-filters:sRGB;"
       id="filter21593"
       x="-0.047710744"
       y="-0.041741845"
       width="1.0954215"
       height="1.0834837">
      <feGaussianBlur
         stdDeviation="6"
         in="SourceGraphic"
         result="result0"
         id="feGaussianBlur21575" />
      <feDiffuseLighting
         lighting-color="rgb(255,255,255)"
         diffuseConstant="1"
         surfaceScale="4"
         result="result5"
         id="feDiffuseLighting21579">
        <feDistantLight
           elevation="45"
           azimuth="235"
           id="feDistantLight21577" />
      </feDiffuseLighting>
      <feComposite
         k1="1.4"
         in2="SourceGraphic"
         in="result5"
         result="fbSourceGraphic"
         operator="arithmetic"
         id="feComposite21581" />
      <feGaussianBlur
         result="result0"
         in="fbSourceGraphic"
         stdDeviation="6"
         id="feGaussianBlur21583" />
      <feSpecularLighting
         specularExponent="25"
         specularConstant="1"
         surfaceScale="4"
         lighting-color="rgb(255,255,255)"
         result="result1"
         in="result0"
         id="feSpecularLighting21587">
        <feDistantLight
           azimuth="280"
           elevation="45"
           id="feDistantLight21585" />
      </feSpecularLighting>
      <feComposite
         k3="1"
         k2="1"
         operator="arithmetic"
         in="fbSourceGraphic"
         in2="result1"
         result="result4"
         id="feComposite21589" />
      <feComposite
         operator="in"
         result="result2"
         in2="SourceGraphic"
         in="result4"
         id="feComposite21591" />
    </filter>
  </defs>
  <path
     style="mix-blend-mode:multiply"
     d="M-2765.718 268.206l28.198 35.189h538.751l10.087-9.413-86.673-527.828-31.462-17.601z"
     transform="matrix(-2.0051 0 0 2.0051 -4355.6821 800.27119)"
     opacity=".5"
     filter="url(#C)"
     id="path18231" />
  <path
     d="M660 115.844L254.043 268.378l-139.111 999.236 13.312 73.804 20.099 16.718H1169.89l20.099-16.718 13.312-73.804-137.282-999.246z"
     fill="url(#A)"
     id="path18233" />
  <path
     d="M660 115.844L253.994 268.369l-137.243 999.246 11.442 73.812 20.099 16.719h1021.563l20.134-16.728 15.13-73.802-139.1-999.248z"
     opacity=".25"
     fill="url(#B)"
     style="mix-blend-mode:overlay"
     id="path18235" />
  <path
     d="M1182.559 1262.571l-.043 21.064 20.75-16.013-20.707-5.052z"
     opacity=".8"
     fill="#fff"
     id="path18237" />
  <path
     d="M1203.266 1267.622l-20.75 16.013-12.661 74.512 20.099-16.719 13.312-73.805z"
     opacity=".6"
     id="path18239" />
  <g
     fill="#fff"
     id="g18247">
    <path
       d="M254.044 268.378l17.664 13.248 388.293-149.381v-16.402z"
       opacity=".3"
       id="path18241" />
    <path
       d="M1066.019 268.368l-17.664 13.248L660 132.246v-16.402z"
       opacity=".3"
       id="path18243" />
    <path
       d="M1064.146 251.267l-17.664 13.248 138.452 996.966 20.707 5.052z"
       opacity=".3"
       id="path18245" />
  </g>
  <path
     d="M253.994 268.369l17.664 13.248-136.07 980.953-20.707 5.052z"
     opacity=".4"
     id="path18249" />
  <path
     d="M114.881 1267.622l20.75 16.013 12.661 74.512-20.099-16.719-13.312-73.805z"
     opacity=".9"
     id="path18251" />
  <path
     d="M135.588 1262.571l.043 21.064-20.75-16.013 20.707-5.052z"
     opacity=".6"
     id="path18253" />
  <path
     d="M135.588 1262.571h1046.971l-.043 21.064H135.631z"
     opacity=".2"
     id="path18255" />
  <path
     d="M1182.516 1283.635l-12.661 74.512H148.292l-12.661-74.512z"
     opacity=".7"
     id="path18257" />
  <path
     id="path53892"
     style="color:#000000;font-style:normal;font-variant:normal;font-weight:normal;font-stretch:normal;font-size:29.072px;line-height:1.25;font-family:MingLiU_HKSCS-ExtB;-inkscape-font-specification:MingLiU_HKSCS-ExtB;font-variant-ligatures:normal;font-variant-position:normal;font-variant-caps:normal;font-variant-numeric:normal;font-variant-alternates:normal;font-variant-east-asian:normal;font-feature-settings:normal;font-variation-settings:normal;text-indent:0;text-align:start;text-decoration:none;text-decoration-line:none;text-decoration-style:solid;text-decoration-color:#000000;letter-spacing:0px;word-spacing:0px;text-transform:none;writing-mode:lr-tb;direction:ltr;text-orientation:mixed;dominant-baseline:auto;baseline-shift:baseline;text-anchor:start;white-space:normal;shape-padding:0;shape-margin:0;inline-size:0;clip-rule:nonzero;display:inline;overflow:visible;visibility:visible;opacity:0.99;isolation:auto;mix-blend-mode:normal;color-interpolation:sRGB;color-interpolation-filters:linearRGB;solid-color:#000000;solid-opacity:1;vector-effect:none;fill:#9b0000;fill-opacity:1;fill-rule:nonzero;stroke:none;stroke-width:12.4272;stroke-linecap:butt;stroke-linejoin:round;stroke-miterlimit:4;stroke-dasharray:none;stroke-dashoffset:0;stroke-opacity:1;filter:url(#filter21593);color-rendering:auto;image-rendering:auto;shape-rendering:auto;text-rendering:auto;enable-background:accumulate;stop-color:#000000"
     d="m 494.00074,442.65708 c -9.7612,0.29972 -16.3677,10.04214 -13.0022,19.24252 l 24.4627,75.13533 c 2.3368,5.58038 7.9426,9.12952 13.9853,8.72362 h 198.1653 l -97.0795,74.60305 v 107.14749 h -222.0741 c -6.5075,-0.0883 -12.2428,4.25628 -13.9853,10.47851 l -24.4627,64.65712 c -3.523,9.53592 3.8253,19.60828 13.9853,19.2217 h 246.535 v 207.95278 l -76.5832,-0.8992 c -5.8471,0.6477 -13.7414,-0.4242 -21.115,0.3988 l 24.6964,32.7311 c 24.6964,31.6531 39.6524,48.3393 74.9681,70.5623 29.8841,-0.5994 59.395,-12.4968 101.7978,-35.0946 l -0.6604,-67.6872 V 821.89329 h 224.2669 c 10.16,0.37338 17.4574,-9.63574 13.97,-19.2217 l -24.4526,-70.72804 c -1.7526,-6.28929 -43.1264,-4.50901 -49.6288,-4.42951 H 723.64034 V 620.50468 l 93.1173,-74.72545 c 45.1178,-34.81264 64.867,-42.13932 68.6351,-83.86927 3.4773,-9.53541 -3.8252,-19.59812 -13.9674,-19.22271 l -376.436,0.0192 c -0.3302,-0.0182 -0.6604,-0.0243 -0.9906,-0.0192 z"
     sodipodi:nodetypes="cccccccccccccccccccccccccccccccc" />
</svg>
