<?xml version="1.0" encoding="UTF-8" standalone="no"?>
<svg
   width="498.898"
   height="544.252"
   viewBox="0 0 1320 1440"
   version="1.1"
   id="svg6405"
   sodipodi:docname="0_ROOK.svg"
   inkscape:version="1.2 (dc2aedaf03, 2022-05-15)"
   xmlns:inkscape="http://www.inkscape.org/namespaces/inkscape"
   xmlns:sodipodi="http://sodipodi.sourceforge.net/DTD/sodipodi-0.dtd"
   xmlns="http://www.w3.org/2000/svg"
   xmlns:svg="http://www.w3.org/2000/svg">
  <sodipodi:namedview
     id="namedview6407"
     pagecolor="#ffffff"
     bordercolor="#666666"
     borderopacity="1.0"
     inkscape:showpageshadow="2"
     inkscape:pageopacity="0.0"
     inkscape:pagecheckerboard="0"
     inkscape:deskcolor="#d1d1d1"
     showgrid="false"
     inkscape:zoom="1.3789568"
     inkscape:cx="-25.018913"
     inkscape:cy="319.08179"
     inkscape:window-width="3840"
     inkscape:window-height="2036"
     inkscape:window-x="-12"
     inkscape:window-y="-12"
     inkscape:window-maximized="1"
     inkscape:current-layer="svg6405" />
  <style
     id="style6293"><![CDATA[.B{color-interpolation-filters:sRGB}]]></style>
  <defs
     id="defs6351">
    <linearGradient
       id="A"
       x1="228.547"
       y1="660.584"
       x2="270.281"
       y2="660.584"
       spreadMethod="reflect"
       gradientUnits="userSpaceOnUse">
      <stop
         offset="0"
         stop-color="#ffd285"
         id="stop6295" />
      <stop
         offset=".232"
         stop-color="#ffcd79"
         id="stop6297" />
      <stop
         offset=".616"
         stop-color="#ffca73"
         id="stop6299" />
      <stop
         offset=".808"
         stop-color="#ffd386"
         id="stop6301" />
      <stop
         offset="1"
         stop-color="#ffc86e"
         id="stop6303" />
    </linearGradient>
    <linearGradient
       id="B"
       x1="660.031"
       y1="176.665"
       x2="660.029"
       y2="1147.595"
       gradientUnits="userSpaceOnUse">
      <stop
         offset=".6"
         stop-color="#fff"
         id="stop6306" />
      <stop
         offset="1"
         id="stop6308" />
    </linearGradient>
    <filter
       id="D"
       x="-0.01052904"
       y="-0.011053209"
       width="1.0210581"
       height="1.0221064"
       class="B">
      <feGaussianBlur
         stdDeviation="2.441"
         id="feGaussianBlur6315" />
    </filter>
    <filter
       inkscape:label="Combined Lighting"
       inkscape:menu="Bevels"
       inkscape:menu-tooltip="Basic specular bevel to use for building textures"
       style="color-interpolation-filters:sRGB;"
       id="filter6649"
       x="-0.046972459"
       y="-0.039215222"
       width="1.0939449"
       height="1.0784304">
      <feGaussianBlur
         stdDeviation="6"
         in="SourceGraphic"
         result="result0"
         id="feGaussianBlur6631" />
      <feDiffuseLighting
         lighting-color="rgb(255,255,255)"
         diffuseConstant="1"
         surfaceScale="4"
         result="result5"
         id="feDiffuseLighting6635">
        <feDistantLight
           elevation="45"
           azimuth="235"
           id="feDistantLight6633" />
      </feDiffuseLighting>
      <feComposite
         k1="1.4"
         in2="SourceGraphic"
         in="result5"
         result="fbSourceGraphic"
         operator="arithmetic"
         id="feComposite6637" />
      <feGaussianBlur
         result="result0"
         in="fbSourceGraphic"
         stdDeviation="6"
         id="feGaussianBlur6639" />
      <feSpecularLighting
         specularExponent="25"
         specularConstant="1"
         surfaceScale="4"
         lighting-color="rgb(255,255,255)"
         result="result1"
         in="result0"
         id="feSpecularLighting6643">
        <feDistantLight
           azimuth="280"
           elevation="45"
           id="feDistantLight6641" />
      </feSpecularLighting>
      <feComposite
         k3="1"
         k2="1"
         operator="arithmetic"
         in="fbSourceGraphic"
         in2="result1"
         result="result4"
         id="feComposite6645" />
      <feComposite
         operator="in"
         result="result2"
         in2="SourceGraphic"
         in="result4"
         id="feComposite6647" />
    </filter>
  </defs>
  <path
     style="mix-blend-mode:multiply"
     d="M-2758.546 269.702l24.453 34.897h517.576l14.375-11.25-104.69-501.167-31.462-17.601z"
     transform="matrix(-2.0051 0 0 2.0051 -4364.0776 800.64872)"
     opacity=".5"
     filter="url(#D)"
     id="path6353" />
  <path
     d="M660.043 176.664L306.898 293.591 139.681 1267.61l13.3 73.818 20.099 16.718h973.903l20.099-16.718 13.324-73.818-167.217-974.019z"
     fill="url(#A)"
     id="path6355" />
  <path
     d="M660.031 176.665L306.887 293.593 139.67 1267.612l13.312 73.816 20.099 16.718h973.903l20.099-16.718 13.312-73.816-167.217-974.019z"
     opacity=".25"
     fill="url(#B)"
     style="mix-blend-mode:overlay"
     id="path6357" />
  <path
     d="M1159.664 1262.568l-.043 21.064 20.75-16.013-20.707-5.052z"
     opacity=".8"
     fill="#fff"
     id="path6359" />
  <path
     d="M1180.371 1267.619l-20.75 16.013-12.637 74.514 20.099-16.718 13.288-73.808z"
     opacity=".6"
     id="path6361" />
  <g
     fill="#fff"
     id="g6369">
    <path
       d="M306.85 293.583l17.664 13.248L660 193.055v-16.402z"
       opacity=".3"
       id="path6363" />
    <path
       d="M1013.15 293.583l-17.664 13.248L660 193.055v-16.402z"
       opacity=".3"
       id="path6365" />
    <path
       d="M1013.15 293.583l-17.664 13.248 164.177 955.737 20.707 5.052z"
       opacity=".3"
       id="path6367" />
  </g>
  <path
     d="M306.85 293.583l17.664 13.248-164.177 955.737-20.707 5.052z"
     opacity=".4"
     id="path6371" />
  <path
     d="M139.629 1267.619l20.75 16.013 12.702 74.514-20.099-16.718-13.353-73.808z"
     opacity=".9"
     id="path6373" />
  <path
     d="M160.337 1262.568l.043 21.064-20.75-16.013 20.707-5.052z"
     opacity=".6"
     id="path6375" />
  <path
     d="M160.337 1262.568h999.327l-.043 21.064H160.379l-.043-21.064z"
     opacity=".2"
     id="path6377" />
  <path
     d="M1159.621 1283.632l-12.637 74.514H173.081l-12.702-74.514h999.241z"
     opacity=".7"
     id="path6379" />
  <path
     id="path15015"
     style="opacity:0.99;fill:#000000;fill-opacity:1;stroke:none;stroke-width:15.3843px;stroke-linecap:butt;stroke-linejoin:round;stroke-opacity:1;filter:url(#filter6649)"
     d="m 965.49107,456.91922 v 0.0188 c -206.9283,22.71267 -403.4285,22.71267 -610.9523,0.381 -1.4224,-0.14808 -1.1176,2.0574 -0.8128,3.26136 11.3716,45.99456 15.4077,51.67603 47.2196,85.53243 l 517.9526,-0.14783 c 33.088,-32.46626 35.931,-39.02657 47.4527,-85.29189 0.3302,-1.2954 0.5334,-3.91414 -0.8128,-3.78206 z m -565.2046,112.68756 v 393.67493 h 32.7449 c 11.9075,-114.56055 109.1092,-204.29439 226.7503,-204.29439 117.6372,0 214.8153,89.73384 226.7142,204.29439 h 32.7446 V 569.60678 Z M 659.78317,782.669 c -112.8412,-0.0147 -204.3254,91.45393 -204.3322,204.29465 -0.014,112.85495 91.4768,204.34565 204.3322,204.33125 112.84,-0.01 204.3091,-91.487 204.2949,-204.33125 -0.01,-112.82625 -91.4671,-204.2883 -204.2949,-204.29465 z m -18.9992,71.31885 v 87.18724 l -61.6137,-61.66432 c 18.067,-13.55089 39.2567,-22.32659 61.6137,-25.51937 z m 37.9695,0 c 22.357,3.17246 43.547,11.97355 61.6135,25.51937 l -61.6135,61.66431 z m -126.3955,52.40017 61.644,61.64273 h -87.1666 c 3.1419,-22.36215 11.9608,-43.57013 25.5226,-61.64273 z m 214.8809,0 c 13.561,18.08226 22.3367,39.2788 25.5219,61.64273 h -87.1867 z m -364.7182,79.95739 c -13.1166,0.0663 -25.908,0.18618 -25.908,0.18618 l -19.3929,33.35751 v 37.6878 h 87.1357 c -10.4978,-18.1661 -15.5194,-47.4574 -13.9471,-71.04454 -1.3208,-0.2794 -14.76,-0.24943 -27.8758,-0.18746 z m 514.4793,0 c -13.1165,-0.0653 -26.5671,-0.0752 -27.8755,0.18618 h -0.018 c 1.524,23.59151 -3.4341,52.87081 -13.97,71.04431 h 87.1463 v -37.6875 l -19.3776,-33.35782 c 0,0 -12.7915,-0.11989 -25.9063,-0.18618 z m -390.1636,19.55289 h 87.1661 l -61.6137,61.6511 c -13.5713,-18.0721 -22.3571,-39.279 -25.5623,-61.6501 z m 178.7557,0 h 87.1662 c -3.2487,22.3799 -12.0015,43.5849 -25.5728,61.6501 z m -64.8091,26.8755 v 87.1306 c -22.3367,-3.2614 -43.5066,-11.9786 -61.5528,-25.5191 z m 37.9684,0 61.6135,61.6138 c -18.067,13.5534 -39.2564,22.3265 -61.6135,25.5191 z"
     sodipodi:nodetypes="ccscccscccccscccccccccccccccccccccccccscccccssccccccscccccccccccccccc" />
</svg>
