<?xml version="1.0" encoding="UTF-8" standalone="no"?>
<svg
   width="498.898"
   height="544.252"
   viewBox="0 0 1320 1440"
   version="1.1"
   id="svg7566"
   sodipodi:docname="0_TIGER.svg"
   inkscape:version="1.2 (dc2aedaf03, 2022-05-15)"
   xmlns:inkscape="http://www.inkscape.org/namespaces/inkscape"
   xmlns:sodipodi="http://sodipodi.sourceforge.net/DTD/sodipodi-0.dtd"
   xmlns:xlink="http://www.w3.org/1999/xlink"
   xmlns="http://www.w3.org/2000/svg"
   xmlns:svg="http://www.w3.org/2000/svg">
  <sodipodi:namedview
     id="namedview7568"
     pagecolor="#ffffff"
     bordercolor="#666666"
     borderopacity="1.0"
     inkscape:showpageshadow="2"
     inkscape:pageopacity="0.0"
     inkscape:pagecheckerboard="0"
     inkscape:deskcolor="#d1d1d1"
     showgrid="false"
     inkscape:zoom="1.9501394"
     inkscape:cx="402.79173"
     inkscape:cy="193.57591"
     inkscape:window-width="3840"
     inkscape:window-height="2036"
     inkscape:window-x="-12"
     inkscape:window-y="-12"
     inkscape:window-maximized="1"
     inkscape:current-layer="svg7566" />
  <style
     id="style7473"><![CDATA[.B{color-interpolation-filters:sRGB}]]></style>
  <defs
     id="defs7520">
    <linearGradient
       id="A"
       x1="-1430.769"
       y1="-77.47"
       x2="-1409.955"
       y2="-77.47"
       spreadMethod="reflect"
       gradientUnits="userSpaceOnUse">
      <stop
         offset="0"
         stop-color="#ffd285"
         id="stop7475" />
      <stop
         offset=".232"
         stop-color="#ffcd79"
         id="stop7477" />
      <stop
         offset=".616"
         stop-color="#ffca73"
         id="stop7479" />
      <stop
         offset=".808"
         stop-color="#ffd386"
         id="stop7481" />
      <stop
         offset="1"
         stop-color="#ffc86e"
         id="stop7483" />
    </linearGradient>
    <linearGradient
       id="B"
       x1="-1215.571"
       y1="-296.329"
       x2="-1215.572"
       y2="165.415"
       gradientUnits="userSpaceOnUse">
      <stop
         offset=".601"
         stop-color="#fff"
         id="stop7486" />
      <stop
         offset="1"
         id="stop7488" />
    </linearGradient>
    <filter
       id="C"
       x="-0.011867782"
       y="-0.01125585"
       width="1.0237356"
       height="1.0225117"
       class="B">
      <feGaussianBlur
         stdDeviation="2.441"
         id="feGaussianBlur7491" />
    </filter>
    <path
       id="E"
       d="M-1215.571-296.329l-149.881 40.669-79.82 472.51 6.639 36.814 10.024 8.338h426.077l10.024-8.338 6.639-36.814-79.82-472.51z" />
    <filter
       inkscape:label="Combined Lighting"
       inkscape:menu="Bevels"
       inkscape:menu-tooltip="Basic specular bevel to use for building textures"
       style="color-interpolation-filters:sRGB;"
       id="filter7912"
       x="-0.04013929"
       y="-0.041746899"
       width="1.0802786"
       height="1.0834938">
      <feGaussianBlur
         stdDeviation="6"
         in="SourceGraphic"
         result="result0"
         id="feGaussianBlur7894" />
      <feDiffuseLighting
         lighting-color="rgb(255,255,255)"
         diffuseConstant="1"
         surfaceScale="4"
         result="result5"
         id="feDiffuseLighting7898">
        <feDistantLight
           elevation="45"
           azimuth="235"
           id="feDistantLight7896" />
      </feDiffuseLighting>
      <feComposite
         k1="1.4"
         in2="SourceGraphic"
         in="result5"
         result="fbSourceGraphic"
         operator="arithmetic"
         id="feComposite7900" />
      <feGaussianBlur
         result="result0"
         in="fbSourceGraphic"
         stdDeviation="6"
         id="feGaussianBlur7902" />
      <feSpecularLighting
         specularExponent="25"
         specularConstant="1"
         surfaceScale="4"
         lighting-color="rgb(255,255,255)"
         result="result1"
         in="result0"
         id="feSpecularLighting7906">
        <feDistantLight
           azimuth="280"
           elevation="45"
           id="feDistantLight7904" />
      </feSpecularLighting>
      <feComposite
         k3="1"
         k2="1"
         operator="arithmetic"
         in="fbSourceGraphic"
         in2="result1"
         result="result4"
         id="feComposite7908" />
      <feComposite
         operator="in"
         result="result2"
         in2="SourceGraphic"
         in="result4"
         id="feComposite7910" />
    </filter>
  </defs>
  <path
     style="mix-blend-mode:multiply"
     d="M-2728.669 264.709l28.198 35.189h455.354l10.087-9.413-98.043-493.462-31.462-17.601z"
     transform="matrix(-2.0051 0 0 2.0051 -4364.0778 816.66224)"
     opacity=".5"
     filter="url(#C)"
     id="path7522" />
  <use
     xlink:href="#E"
     fill="url(#A)"
     transform="matrix(2.0051 0 0 2.0051 3097.3821 831.9343)"
     id="use7524" />
  <use
     xlink:href="#E"
     x="315.666"
     y="-40.204"
     opacity=".25"
     fill="url(#B)"
     transform="matrix(2.0051 0 0 2.0051 2464.4309 912.54909)"
     style="mix-blend-mode:overlay"
     id="use7526" />
  <path
     d="M1099.874 1261.697l-.043 21.064 20.75-16.013-20.707-5.052z"
     opacity=".8"
     fill="#fff"
     id="path7528" />
  <path
     d="M1120.582 1266.748l-20.75 16.013-12.661 74.524 20.099-16.719 13.312-73.818z"
     opacity=".6"
     id="path7530" />
  <g
     fill="#fff"
     id="g7538">
    <path
       d="M359.469 319.303l17.664 13.248L660 254.157v-16.402z"
       opacity=".3"
       id="path7532" />
    <path
       d="M960.531 319.303l-17.664 13.248L660 254.157v-16.402z"
       opacity=".3"
       id="path7534" />
    <path
       d="M960.531 319.303l-17.664 13.248 157.007 929.146 20.707 5.052z"
       opacity=".3"
       id="path7536" />
  </g>
  <path
     d="M359.469 319.303l17.664 13.248-157.007 929.146-20.707 5.052z"
     opacity=".4"
     id="path7540" />
  <path
     d="M199.419 1266.748l20.75 16.013 12.661 74.524-20.099-16.719-13.312-73.818z"
     opacity=".9"
     id="path7542" />
  <path
     d="M220.126 1261.697l.043 21.064-20.75-16.013 20.707-5.052z"
     opacity=".6"
     id="path7544" />
  <path
     d="M220.126 1261.697h879.749l-.043 21.064H220.169l-.043-21.064z"
     opacity=".2"
     id="path7546" />
  <path
     d="M1099.831 1282.761l-12.661 74.524H232.829l-12.661-74.524h879.663z"
     opacity=".7"
     id="path7548" />
  <path
     style="fill:#000000;stroke-width:1.71118;filter:url(#filter7912)"
     d="m 569.15633,1139.2495 c -8.7223,-3.1318 -14.13,-8.5217 -17.559,-17.4066 -5.2756,-13.716 0.7112,-34.4183 13.2893,-46.1851 5.2756,-4.9632 6.8986,-5.4788 21.1099,-6.2916 8.5217,-0.5334 20.795,-2.5146 27.3782,-4.5593 13.8658,-4.1732 32.0037,-14.4475 39.2465,-22.0624 2.7356,-2.9566 5.682,-5.367 6.5938,-5.367 0.8636,0 5.174,3.2613 9.5352,7.0993 16.2611,14.4653 46.246,25.3415 70.0128,25.3974 9.8399,0.027 11.1277,0.4826 15.8851,5.5829 22.2149,23.9294 18.8062,57.4853 -6.5938,64.5249 -10.348,2.9566 -170.6608,2.2098 -178.9262,-0.6858 z m -62.7197,-30.81 c -3.3528,-1.2192 -8.5217,-3.2613 -11.6967,-4.3662 -9.1287,-3.3477 -35.879,-18.382 -49.8467,-27.8973 -7.0993,-4.8692 -22.1335,-17.9654 -33.4137,-29.1318 l -20.5206,-20.3479 -7.2009,8.2169 c -8.2169,9.3345 -17.3965,26.1193 -21.8897,39.9351 l -3.0379,9.3345 -3.1419,-6.0858 c -1.7272,-3.3478 -5.174,-12.1946 -7.7089,-19.558 -7.6073,-22.3901 -7.6073,-64.10927 0.013,-86.18237 2.032,-5.8827 2.032,-6.9038 -0.1583,-6.9038 -4.1605,0 -21.6662,19.0297 -27.023,29.3667 l -4.9708,9.63427 -2.4384,-6.18487 c -1.6256,-4.1733 -2.4384,-13.9065 -2.54,-29.3667 -0.1966,-26.6495 2.2352,-37.431 12.8219,-58.2356 3.6576,-7.0993 6.5939,-13.5357 6.5939,-14.3027 0,-4.5593 -17.4473,5.2781 -25.1765,14.2214 l -3.7567,4.4653 -0.062,-13.9573 c -0.1359,-31.00141 12.1843,-67.58807 30.594,-90.87884 3.8557,-4.86918 6.9977,-9.23036 6.9977,-9.6393 0,-1.8288 -8.824,-0.8636 -14.8615,1.6002 -3.4519,1.524 -6.5939,2.2098 -6.9977,1.7526 -1.3208,-1.2954 7.9121,-26.0106 14.6075,-39.43094 8.6208,-17.19325 20.2565,-34.14444 32.2976,-47.00674 5.7836,-6.1849 12.6086,-15.42034 15.2044,-20.59432 2.634,-5.17397 8.7249,-15.96897 13.6043,-23.98013 10.3759,-17.05355 12.9235,-23.60674 12.8727,-33.17924 -0.052,-9.63929 -4.8717,-19.34717 -16.3119,-32.86631 -26.1607,-30.83585 -29.5691,-66.99984 -10.0431,-106.53772 9.4335,-19.17191 23.5534,-34.29659 39.2366,-42.12613 9.1287,-4.5593 11.9685,-5.17398 25.6535,-5.17398 22.5094,0.009 27.4795,3.04292 63.2363,38.94428 33.2011,33.32275 39.115,37.13529 57.4347,37.15713 6.0858,0.01 19.4361,-1.8288 29.5488,-4.04368 42.1676,-9.53261 88.5457,-9.53261 130.6294,-0.0317 10.1955,2.3368 23.6042,4.17322 29.7926,4.17322 17.5387,0 24.1021,-4.17322 56.0654,-36.07052 15.1638,-15.11553 30.35,-29.35375 33.748,-31.65779 10.1651,-6.90371 27.6113,-10.95501 38.6176,-9.02969 20.7036,3.73888 37.7345,16.00707 51.47,37.07458 25.9484,39.74413 23.6449,85.8982 -5.9867,119.7828 -9.332,10.73403 -14.8616,22.14625 -14.8412,30.91864 0.017,8.01116 3.3528,16.55571 12.1615,31.07943 4.7701,7.91209 10.9956,18.85949 13.7541,24.31541 2.7355,5.47877 7.4015,12.44599 10.2768,15.38985 23.0861,23.98775 38.9527,49.99912 49.4307,81.0092 l 4.77007,13.99794 -7.09927,-3.26136 c -6.5938,-3.04292 -16.5227,-4.46532 -16.5227,-2.3368 0,0.4826 3.142,4.86918 6.9977,9.63929 8.4201,10.62228 22.59067,39.4091 26.41517,53.54978 1.524,5.58292 3.2487,19.3929 3.7567,30.54474 l 0.9906,20.2666 -8.0137,-7.7038 c -7.6099,-7.3076 -18.84677,-13.0251 -21.21157,-10.734 -0.6095,0.6096 0.254,3.2588 1.9304,5.6819 5.0724,7.7013 11.03627,21.7069 14.24177,33.1707 3.7465,13.246 4.1555,51.1858 0.7366,62.9528 l -2.2352,7.60727 -5.98677,-11.45277 c -5.7759,-10.9551 -22.0217,-28.6581 -26.2928,-28.6581 -1.3208,0 -1.6256,1.6002 -0.9398,4.7701 0.5842,2.5146 2.2352,9.6393 3.551,15.8242 3.4442,15.13327 3.3528,46.68157 -0.1552,62.12077 -1.524,6.7945 -5.174,17.5895 -8.0137,24.0106 l -5.174,11.6941 -3.6576,-9.9415 c -2.032,-5.4788 -5.8852,-14.4247 -8.6208,-19.8501 -5.2755,-10.3048 -19.0601,-27.4409 -21.4553,-26.5671 -0.762,0.2794 -5.3696,5.1739 -10.3353,10.8254 -24.2646,27.8669 -63.5815,54.8064 -99.9573,68.4909 l -10.2667,3.8684 -0.6858,-6.1849 c -0.381,-3.3477 -0.762,-8.4201 -0.8636,-10.8255 -0.095,-2.4384 -0.6604,-4.1732 -1.2192,-3.8684 -0.5842,0.381 -3.2487,-2.9566 -5.9842,-7.1984 -2.7356,-4.1732 -8.6233,-10.6197 -13.2283,-13.9293 l -8.3185,-6.0859 9.1287,-4.4653 c 13.4112,-6.3906 30.7256,-23.5839 37.0649,-36.4878 7.8105,-15.969 11.3005,-35.78757 10.1423,-57.69807 -1.1176,-21.2014 -4.2571,-33.5054 -13.0556,-52.4231 -6.9977,-15.0342 -23.1496,-40.07018 -25.8257,-40.07018 -2.2352,0 -2.4384,-0.8636 4.3637,19.55799 8.6233,25.78449 12.1412,51.95669 9.8399,72.84309 -3.4518,30.5013 -14.0385,47.71657 -36.0413,58.55077 -10.5384,5.2781 -12.6492,5.5778 -27.6923,5.4762 -18.1991,-0.1064 -29.7315,-3.3477 -45.7185,-13.0962 -9.7383,-5.8827 -31.04,-24.40437 -29.6097,-25.72357 0.4826,-0.4318 10.4165,-8.2169 22.0929,-17.305 11.6865,-9.1288 22.3774,-18.1458 23.7667,-20.1245 5.8852,-8.42 1.524,-23.0276 -8.4201,-28.1188 -6.0858,-3.1318 -19.9237,-3.1318 -25.5018,0.088 -6.0858,3.4341 -34.0528,3.3477 -42.4015,-0.1296 -19.0093,-8.0111 -36.3047,1.2192 -36.3047,19.4869 0,8.0112 2.4384,10.8255 27.3782,29.8536 9.8399,7.6073 18.6943,14.4018 19.5884,15.1943 4.3637,3.8684 -26.5056,27.60167 -45.8094,35.15737 -10.4063,4.0437 -14.7802,4.7701 -28.545,4.7701 -14.0284,0 -17.5895,-0.6096 -25.9684,-4.5593 -21.778,-10.1955 -33.8602,-28.60597 -37.3393,-56.87687 -1.016,-8.4201 -1.4224,-20.701 -0.7874,-27.3799 1.3208,-14.7066 7.8105,-43.1609 12.6492,-55.47608 3.8557,-9.94156 4.2647,-12.31392 2.032,-12.31392 -2.634,0 -19.0906,25.3187 -25.8671,39.8264 -8.7223,18.641 -11.8465,31.0924 -13.0962,51.723 -2.7432,45.65767 15.621,80.77547 50.5973,96.71147 l 5.8852,2.827 -8.4201,6.1849 c -10.3455,7.6073 -18.9992,21.4934 -20.7849,33.3227 l -1.3208,8.8265 z m -54.6445,-93.3729 c 5.2756,-2.9565 3.9599,-7.9121 -7.6073,-30.74487 -12.192,-23.7896 -21.3436,-49.0153 -27.0532,-74.5776 -3.3427,-14.8286 -3.7567,-22.03199 -3.8558,-57.18024 -0.055,-43.57825 1.3208,-55.29425 11.209,-93.80038 2.7356,-10.73404 4.9708,-21.15057 4.9708,-23.35021 0,-3.65252 -2.8397,-6.08584 -6.8986,-6.08584 -4.2647,0 -24.7218,37.96587 -33.2621,61.60361 -21.12,58.45858 -18.7756,124.24936 6.0859,170.81566 11.8694,22.2377 31.0499,43.80147 45.9514,51.68207 7.3025,3.8685 6.4922,3.7389 10.4673,1.6002 z m 434.5245,-7.7038 c 50.2732,-38.95257 70.4088,-114.67907 51.1259,-192.28447 -6.5939,-26.41472 -29.4478,-76.64675 -38.2329,-83.94036 -3.3528,-2.73812 -9.5351,-0.6096 -9.5351,3.34772 0,1.7526 2.634,14.21384 5.8851,27.68421 8.4201,34.96614 11.3411,57.65722 11.3716,89.45826 0.061,52.96097 -11.0261,96.65077 -35.5036,139.90617 -8.0137,14.15027 -9.2329,20.68577 -4.4653,23.44167 4.1554,2.4384 8.4201,0.7366 19.2532,-7.6073 z M 475.29223,893.28823 c 2.7432,-2.73815 2.634,-9.63932 -0.381,-25.3289 -6.289,-33.17061 -5.0724,-57.87032 4.4653,-89.40796 2.9388,-9.53261 5.3772,-20.62479 5.4788,-24.38653 0.1603,-6.1849 -0.254,-6.90372 -4.3637,-7.30758 -3.5509,-0.40639 -5.7836,0.9906 -10.5893,6.90372 -15.9766,19.49957 -26.1409,44.21681 -27.9768,68.04505 -2.7356,35.9006 20.0355,84.8428 33.3329,71.5342 z m 381.9765,-1.82883 c 5.8851,-6.29157 15.2374,-27.01466 17.9146,-39.79594 6.9037,-32.89705 -1.524,-66.97037 -23.2512,-94.30736 -6.3906,-8.01116 -9.8399,-10.94486 -12.8829,-10.94486 -2.3368,0 -4.6685,1.2192 -5.1739,2.4384 -0.5334,1.4478 1.8288,12.31391 5.1739,24.38399 10.0432,35.52265 11.6358,54.91909 6.9977,84.2952 -4.6685,29.46678 -4.8717,32.28821 -2.54,35.0489 3.142,3.7389 9.6368,3.2589 13.7541,-1.21917 z m -267.9994,-94.60581 c 2.8397,-2.95656 2.634,-12.446 -0.8128,-34.38778 -3.8557,-25.14599 -17.1526,-39.78298 -38.5465,-42.59603 -9.0272,-1.2192 -35.3004,1.8288 -40.5755,4.55929 -4.2646,2.2098 -2.8397,9.94156 4.7701,26.50616 10.1956,22.09291 18.6335,28.60572 54.7871,42.27828 18.6944,7.0993 17.1526,6.90372 20.3784,3.65252 z m 154.643,-1.4478 c 5.3772,-2.2098 12.8626,-4.96316 16.6345,-6.1849 26.8302,-8.5217 43.4152,-26.13227 50.9221,-54.17767 1.8288,-6.90371 1.7272,-7.91209 -0.9398,-9.94409 -3.1445,-2.2098 -24.4576,-5.98678 -34.3265,-5.98678 -17.0612,0 -33.7998,10.62227 -40.1696,25.38983 -6.4923,15.08505 -9.9416,50.48578 -5.2756,53.46774 3.142,2.0574 1.9304,2.1082 13.147,-2.4384 z m -168.836,-115.79855 c 44.9374,-8.62076 115.159,-8.82396 165.4611,-0.6096 16.4948,2.82702 17.8232,2.82702 20.5004,0.0264 3.9598,-3.95731 1.7272,-7.09929 -11.5342,-14.99361 -26.0497,-15.75561 -54.2191,-22.87523 -89.9149,-22.74823 -35.4325,0.13157 -61.2077,6.39064 -87.3183,21.37155 -14.1097,8.01116 -17.7622,12.19454 -14.4145,16.22805 2.4384,2.95656 4.9708,3.04292 17.2135,0.6858 z m -13.4722,-64.02779 c 64.4942,-19.65197 130.5979,-19.62911 196.0915,0.0919 18.1686,5.47878 23.3807,5.17398 23.3807,-1.7526 0,-4.04368 -1.9304,-6.39063 -11.6052,-13.84553 -21.9304,-16.71573 -48.4571,-28.61436 -76.4134,-34.29659 -21.6179,-4.36372 -60.6193,-2.95656 -81.3942,3.34772 -29.6502,8.72489 -71.2912,33.25341 -73.8777,43.55768 -1.1176,4.5593 3.5484,9.53261 7.5057,8.01115 1.2192,-0.4826 8.5217,-2.73812 16.3119,-5.17397 z"
     id="path4451" />
</svg>
