<?xml version="1.0" encoding="UTF-8" standalone="no"?>
<svg
   width="498.898"
   height="544.252"
   viewBox="0 0 1320 1440"
   version="1.1"
   id="svg53641"
   sodipodi:docname="1_BOAR.svg"
   inkscape:version="1.2 (dc2aedaf03, 2022-05-15)"
   xmlns:inkscape="http://www.inkscape.org/namespaces/inkscape"
   xmlns:sodipodi="http://sodipodi.sourceforge.net/DTD/sodipodi-0.dtd"
   xmlns="http://www.w3.org/2000/svg"
   xmlns:svg="http://www.w3.org/2000/svg">
  <sodipodi:namedview
     id="namedview53643"
     pagecolor="#ffffff"
     bordercolor="#666666"
     borderopacity="1.0"
     inkscape:showpageshadow="2"
     inkscape:pageopacity="0.0"
     inkscape:pagecheckerboard="0"
     inkscape:deskcolor="#d1d1d1"
     showgrid="false"
     inkscape:zoom="0.97506968"
     inkscape:cx="-9.7428934"
     inkscape:cy="43.586628"
     inkscape:window-width="1916"
     inkscape:window-height="2022"
     inkscape:window-x="1910"
     inkscape:window-y="0"
     inkscape:window-maximized="0"
     inkscape:current-layer="svg53641" />
  <style
     id="style53550"><![CDATA[.B{color-interpolation-filters:sRGB}]]></style>
  <defs
     id="defs53599">
    <linearGradient
       id="A"
       x1="-1430.769"
       y1="-77.47"
       x2="-1409.955"
       y2="-77.47"
       spreadMethod="reflect"
       gradientUnits="userSpaceOnUse">
      <stop
         offset="0"
         stop-color="#ffd285"
         id="stop53552" />
      <stop
         offset=".232"
         stop-color="#ffcd79"
         id="stop53554" />
      <stop
         offset=".616"
         stop-color="#ffca73"
         id="stop53556" />
      <stop
         offset=".808"
         stop-color="#ffd386"
         id="stop53558" />
      <stop
         offset="1"
         stop-color="#ffc86e"
         id="stop53560" />
    </linearGradient>
    <filter
       id="B"
       x="-0.013119982"
       y="-0.01088309"
       width="1.02624"
       height="1.0217662"
       class="B">
      <feGaussianBlur
         stdDeviation="2.441"
         id="feGaussianBlur53563" />
    </filter>
    <linearGradient
       id="C"
       x1="-905.02"
       y1="-384.47"
       x2="-904.556"
       y2="184.159"
       gradientUnits="userSpaceOnUse">
      <stop
         offset="0"
         id="stop53566" />
      <stop
         offset=".603"
         stop-color="#fff"
         id="stop53568" />
    </linearGradient>
    <filter
       inkscape:label="Combined Lighting"
       inkscape:menu="Bevels"
       inkscape:menu-tooltip="Basic specular bevel to use for building textures"
       style="color-interpolation-filters:sRGB;"
       id="filter55330"
       x="-0.041286309"
       y="-0.044260148"
       width="1.0825726"
       height="1.0885203">
      <feGaussianBlur
         stdDeviation="6"
         in="SourceGraphic"
         result="result0"
         id="feGaussianBlur55312" />
      <feDiffuseLighting
         lighting-color="rgb(255,255,255)"
         diffuseConstant="1"
         surfaceScale="4"
         result="result5"
         id="feDiffuseLighting55316">
        <feDistantLight
           elevation="45"
           azimuth="235"
           id="feDistantLight55314" />
      </feDiffuseLighting>
      <feComposite
         k1="1.4"
         in2="SourceGraphic"
         in="result5"
         result="fbSourceGraphic"
         operator="arithmetic"
         id="feComposite55318" />
      <feGaussianBlur
         result="result0"
         in="fbSourceGraphic"
         stdDeviation="6"
         id="feGaussianBlur55320" />
      <feSpecularLighting
         specularExponent="25"
         specularConstant="1"
         surfaceScale="4"
         lighting-color="rgb(255,255,255)"
         result="result1"
         in="result0"
         id="feSpecularLighting55324">
        <feDistantLight
           azimuth="280"
           elevation="45"
           id="feDistantLight55322" />
      </feSpecularLighting>
      <feComposite
         k3="1"
         k2="1"
         operator="arithmetic"
         in="fbSourceGraphic"
         in2="result1"
         result="result4"
         id="feComposite55326" />
      <feComposite
         operator="in"
         result="result2"
         in2="SourceGraphic"
         in="result4"
         id="feComposite55328" />
    </filter>
  </defs>
  <path
     style="mix-blend-mode:multiply"
     d="M-2659.569 204.596l26.181 28.949 150.416 46.096 171.017-51.398 98.911-437.515-45.894-49.39z"
     transform="matrix(-2.0051 0 0 2.0051 -4364.0778 706.82307)"
     opacity=".5"
     filter="url(#B)"
     id="path53601" />
  <path
     d="M-1220.686-340.838l-153.963 49.823-8.809 28.459-94.245 482.361 10.349 7.986h493.336l10.348-7.986-94.244-482.361-8.809-28.459z"
     fill="url(#A)"
     transform="matrix(-2.0051 0 0 -2.0051 -1787.6392 533.54186)"
     id="path53603" />
  <path
     d="M-905.02-384.47l-153.963 49.823-8.809 26.778-94.245 484.042 10.349 7.986h493.336l10.349-7.986-94.244-482.219-8.809-28.601z"
     opacity=".25"
     fill="url(#C)"
     transform="matrix(-2.0051 0 0 -2.0051 -1154.6881 446.05465)"
     style="mix-blend-mode:overlay"
     id="path53605" />
  <path
     d="M165.355 97.854l.043-21.064-20.75 16.013 20.707 5.052zm821.025 961.863l-17.664-13.248L660 1143.218v16.402z"
     opacity=".4"
     id="path53607" />
  <path
     d="M333.62 1059.717l17.664-13.248L660 1143.218v16.402z"
     opacity=".6"
     id="path53609" />
  <path
     d="M333.62 1059.717l17.664-13.248L165.355 97.854l-20.707-5.052z"
     opacity=".6"
     id="path53611" />
  <g
     fill="#fff"
     id="g53619">
    <path
       d="M986.38 1059.717l-17.664-13.248 185.93-948.615 20.707-5.052z"
       opacity=".3"
       id="path53613" />
    <path
       d="M1154.646 97.854l-.043-21.064 20.75 16.013-20.707 5.052z"
       opacity=".8"
       id="path53615" />
    <path
       d="M1154.646 97.854H165.355l.043-21.064h989.205l.043 21.064z"
       opacity=".3"
       id="path53617" />
  </g>
  <path
     d="M351.283 1117.065l-17.663-57.348L660 1159.62l326.38-99.903-17.663 57.348L660 1216.968l-308.717-99.903z"
     opacity=".7"
     id="path53621" />
  <path
     style="fill:#9b0000;fill-opacity:1;stroke-width:2.8876;filter:url(#filter55330)"
     d="m 672.92922,192.2863 c 17.9553,2.6517 28.3322,7.5082 42.909,20.3809 11.7856,10.3378 29.862,36.8834 29.862,43.8419 0,8.2169 12.3241,6.5939 22.5882,-2.7381 4.0437,-3.8684 8.0112,-6.3906 8.7249,-5.682 0.6604,0.6604 -0.3048,7.3076 -2.1082,14.6889 -1.8288,7.4041 -3.0429,13.716 -2.5146,14.0081 0.4826,0.3048 16.7767,-0.7366 36.2313,-2.2098 36.2659,-2.7382 78.6148,-0.1961 104.2634,6.4897 30.9276,8.0111 64.5048,31.2102 78.7667,54.2891 17.33798,28.0495 22.01158,68.2176 11.62298,99.7242 -5.47878,16.6853 -28.87118,59.8993 -32.37968,59.8993 -1.1176,0 1.7526,-11.1481 6.2916,-24.6786 11.3182,-33.6967 10.8255,-44.42 -3.4341,-74.9427 -15.2374,-32.5402 -47.1383,-46.7022 -86.4153,-38.3746 l -18.7681,3.9573 v 12.8626 c 0,11.0261 0.8128,12.8219 5.7735,12.5298 3.1318,-0.1826 8.2169,-1.4478 11.2826,-2.6518 5.0724,-2.1082 5.3696,-1.2954 3.6526,10.9144 -0.9906,7.3076 -4.4654,17.9325 -7.7039,23.6779 -8.2169,14.6685 -7.6073,18.9281 2.8271,18.9281 9.8374,0 9.6342,-0.9144 5.6819,21.8516 -3.7388,21.5468 -6.0858,27.7409 -23.9496,63.3377 -7.9121,15.8851 -18.7376,37.5224 -23.9801,48.0918 -11.3513,22.893 -21.5646,58.7329 -17.8131,62.4855 1.4478,1.4478 8.7249,2.1082 16.1875,1.2954 14.356,-1.4478 41.8744,5.0749 51.3895,12.1488 4.3662,3.2614 4.7701,4.8692 1.9304,7.808 -2.0574,2.1082 -3.6525,6.1849 -3.6525,9.1287 0,4.8692 1.4478,5.3696 12.7584,3.5637 12.5984,-1.8288 12.8727,-1.7526 21.6458,11.0261 17.1425,24.9148 20.7569,39.3265 23.2715,92.7653 1.1176,23.8277 3.0429,46.2351 4.2596,49.8061 3.5636,10.2159 -2.4384,7.9121 -17.3685,-6.9037 -15.649,-15.428 -34.1531,-52.4739 -37.3266,-74.7199 -3.4341,-24.0335 -9.7383,-31.9926 -29.8927,-37.6746 -5.3696,-1.524 -6.3907,-3.3477 -5.0724,-8.7249 2.7381,-11.0261 -8.4201,-20.5105 -35.5834,-30.2099 -28.3926,-10.1423 -26.2625,-9.7384 -26.2625,-4.3663 0,2.4384 9.3345,8.8265 22.3748,15.1638 20.5004,9.9415 22.3977,11.6103 22.5654,19.6672 0.2494,11.8288 2.1082,14.2621 16.4338,21.1912 14.9936,7.3076 17.305,10.795 23.6372,36.4355 5.9868,24.0818 15.3467,41.144 33.0881,60.1127 14.6888,15.7022 26.5755,22.9768 33.3227,20.3987 3.0429,-1.1176 4.4653,-0.076 4.4653,3.3477 0,4.4653 -2.0574,4.7701 -16.6065,3.0429 -36.4965,-4.2595 -65.7319,-18.6944 -103.8793,-51.197 -7.6073,-6.4897 -16.4033,-13.8988 -19.5885,-16.515 -3.2588,-2.6518 -13.0785,-10.9144 -21.9735,-18.4709 -8.9256,-7.5082 -17.4371,-13.7236 -18.9789,-13.7236 -1.524,0 -4.1732,2.9565 -5.7709,6.4897 -14.0208,30.4099 -21.2801,42.6044 -31.5579,53.0321 -16.1062,16.3322 -60.3362,37.2181 -91.0913,42.9783 l -10.4292,1.9304 8.316,-16.4719 c 12.5882,-24.9555 7.0993,-27.8015 -22.1234,-11.4935 -9.9416,5.5829 -18.7249,10.1422 -19.5148,10.1422 -0.762,0 -0.014,-3.8684 1.7526,-8.5217 4.0436,-10.6806 0.5334,-15.3771 -15.2451,-20.1015 -17.9781,-5.367 -30.684,-18.2982 -36.0007,-36.6006 -4.9632,-17.1018 -8.9256,-19.1719 -19.5453,-10.3378 -3.5636,3.0429 -15.6134,13.1089 -26.7279,22.479 -64.5863,54.4116 -100.3228,72.792 -135.7167,69.7994 l -11.5545,-0.9398 13.716,-6.6954 c 25.9934,-12.7762 49.0416,-46.3421 56.8211,-82.7281 4.3662,-20.3377 8.4201,-25.6324 26.9712,-35.0357 11.938,-6.0858 13.3833,-7.7114 10.8433,-12.4688 -5.682,-10.569 1.4478,-17.8258 26.4147,-27.1539 13.4188,-4.9632 22.0726,-11.999 18.8442,-15.2171 -2.3368,-2.3368 -32.8269,7.1983 -46.1436,14.4018 -10.8255,5.7759 -15.8013,15.1155 -12.606,23.4314 1.1176,3.043 -1.6002,5.2782 -9.7384,7.7039 -16.5328,4.9631 -22.5806,13.0962 -27.6016,37.1787 -2.4384,11.6332 -8.4201,29.4495 -13.2969,39.5701 -9.2304,19.0907 -32.0668,47.1185 -35.6055,43.6496 -1.1176,-1.1176 -0.9144,-3.7388 0.4318,-5.7734 7.1984,-11.3817 9.6342,-26.8711 9.6342,-63.4801 0.036,-32.1663 0.9906,-41.8003 5.4788,-52.1594 7.6073,-17.7622 13.1547,-22.6187 23.462,-20.5486 4.6583,0.9398 10.4978,0.9144 12.9794,-0.042 4.0436,-1.524 4.0436,-2.4384 -0.3302,-9.1287 -4.5593,-7.0003 -4.5593,-7.5083 0.6096,-11.3818 10.0431,-7.4041 42.7565,-16.6548 64.17,-18.1584 13.6423,-0.9398 21.6992,-2.7382 22.6288,-5.2782 2.2098,-5.7759 -6.7945,-33.7095 -17.3456,-53.8533 -5.2781,-9.9441 -15.6616,-29.784 -23.2105,-44.075 -17.5209,-33.2009 -27.8061,-64.3227 -27.8061,-84.1124 0,-14.4322 0.4826,-15.5117 6.9037,-15.5117 10.4698,0 10.7721,-6.0859 1.2954,-25.9365 -9.0297,-18.928 -9.1288,-28.2712 -0.2794,-24.4983 2.7381,1.1176 8.6207,2.7382 12.9743,3.4341 7.4041,1.2954 7.9121,0.7366 7.9121,-8.7249 0,-5.5829 -1.8288,-11.623 -4.0437,-13.4899 -9.2354,-7.7038 -35.2615,-14.6304 -54.7972,-14.6304 -32.4619,0 -51.4088,15.0419 -63.3384,50.3138 -6.6954,19.7815 -5.9868,38.0789 2.3368,64.3422 9.3345,29.1016 9.1288,30.5143 -2.0574,15.1156 -5.0749,-7.0993 -10.0432,-13.49 -10.9474,-14.2799 -2.1082,-1.8288 -15.4381,-29.8622 -20.62482,-43.3133 -2.4384,-6.3907 -3.8684,-21.7881 -3.7389,-41.8653 0.1308,-27.1452 1.1176,-33.7794 6.9038,-45.5661 15.28572,-31.4751 44.83582,-53.8228 84.81252,-64.1697 19.7816,-5.0724 98.4562,-5.8827 115.4016,-1.2954 14.4856,4.0437 17.0942,1.8288 12.0599,-10.2159 -7.3076,-17.4066 -5.4788,-20.2667 6.5938,-10.3378 14.8286,12.225 21.143,11.4935 28.1798,-3.1318 7.9121,-16.4033 28.767,-38.992 46.6816,-50.4556 17.3558,-11.148 38.7007,-15.2857 61.056,-11.9684 z m -32.8272,15.7251 c -17.0103,5.682 -35.34,17.7419 -45.5457,29.8712 -15.5296,18.4632 -16.4262,47.4019 -1.8288,57.8294 10.0432,7.0993 14.9504,7.0993 36.2658,0 20.5893,-6.9037 33.1011,-7.1983 55.0609,-1.524 22.4078,5.7734 33.4228,5.4788 42.2391,-1.4478 10.4293,-8.2169 12.3114,-20.0939 5.583,-35.1876 -9.4336,-21.1277 -31.671,-41.4264 -54.6448,-49.8566 -14.5974,-5.3696 -20.3073,-5.3696 -37.1439,0.3556 z m 55.7525,47.0761 c 13.2156,5.0749 20.2362,10.447 17.305,13.4112 -3.1293,3.1318 -15.8775,-1.4478 -24.3459,-8.7249 -10.447,-8.9256 -8.2169,-10.447 7.0993,-4.6685 z m -62.77,-2.9566 c 0,3.8685 -15.9461,17.0028 -21.6585,17.9477 -10.6503,1.7526 -5.8827,-5.8827 7.9121,-12.9566 7.5082,-3.8684 13.7159,-6.0858 13.7159,-4.9631 z m 92.2579,252.8872 c -8.9256,4.5593 -11.6231,12.9261 -4.2596,12.9261 2.3368,0 10.4699,5.8826 18.0467,13.2765 19.751,19.05 26.8188,24.2621 32.927,24.2621 5.7734,0 7.5082,-7.4041 2.1082,-9.3345 -2.4384,-0.8128 -2.4384,-2.6517 0,-7.3076 7.5082,-14.1198 1.7526,-26.354 -16.4567,-34.4269 -10.8102,-4.7701 -22.4281,-4.6609 -32.3707,0.5334 z m -168.4068,1.524 c -15.1028,7.0993 -20.5638,16.698 -15.6286,27.5191 2.6518,5.776 2.5146,8.7249 -0.2494,13.2664 -4.6584,7.5083 -2.827,9.1288 7.7114,6.9037 5.0724,-1.1176 14.5466,-8.2168 23.3934,-17.7037 8.2169,-8.7249 18.0848,-17.0511 22.0116,-18.542 9.2304,-3.5637 9.0297,-7.3076 -0.8128,-12.4994 -11.3512,-5.8877 -22.0548,-5.6819 -36.4487,1.1176 z"
     id="path32064" />
</svg>
