<?xml version="1.0" encoding="UTF-8" standalone="no"?>
<svg
   width="498.898"
   height="544.252"
   viewBox="0 0 1320 1440"
   version="1.1"
   id="svg73892"
   sodipodi:docname="1_EAGLE.svg"
   inkscape:version="1.2 (dc2aedaf03, 2022-05-15)"
   xmlns:inkscape="http://www.inkscape.org/namespaces/inkscape"
   xmlns:sodipodi="http://sodipodi.sourceforge.net/DTD/sodipodi-0.dtd"
   xmlns="http://www.w3.org/2000/svg"
   xmlns:svg="http://www.w3.org/2000/svg">
  <sodipodi:namedview
     id="namedview73894"
     pagecolor="#ffffff"
     bordercolor="#666666"
     borderopacity="1.0"
     inkscape:showpageshadow="2"
     inkscape:pageopacity="0.0"
     inkscape:pagecheckerboard="0"
     inkscape:deskcolor="#d1d1d1"
     showgrid="false"
     inkscape:zoom="0.68947839"
     inkscape:cx="-25.381506"
     inkscape:cy="512.70642"
     inkscape:window-width="1916"
     inkscape:window-height="2022"
     inkscape:window-x="5750"
     inkscape:window-y="0"
     inkscape:window-maximized="0"
     inkscape:current-layer="svg73892" />
  <style
     id="style73796"><![CDATA[.B{color-interpolation-filters:sRGB}.C{fill-opacity:.98}]]></style>
  <defs
     id="defs73842">
    <linearGradient
       id="A"
       x1="-1430.769"
       y1="-77.47"
       x2="-1409.955"
       y2="-77.47"
       spreadMethod="reflect"
       gradientUnits="userSpaceOnUse">
      <stop
         offset="0"
         stop-color="#ffd285"
         id="stop73798" />
      <stop
         offset=".232"
         stop-color="#ffcd79"
         id="stop73800" />
      <stop
         offset=".616"
         stop-color="#ffca73"
         id="stop73802" />
      <stop
         offset=".808"
         stop-color="#ffd386"
         id="stop73804" />
      <stop
         offset="1"
         stop-color="#ffc86e"
         id="stop73806" />
    </linearGradient>
    <filter
       id="B"
       x="-0.011663823"
       y="-0.0099550202"
       width="1.0233276"
       height="1.01991"
       class="B">
      <feGaussianBlur
         stdDeviation="2.441"
         id="feGaussianBlur73809" />
    </filter>
    <linearGradient
       id="C"
       x1="-904.556"
       y1="-406.052"
       x2="-904.556"
       y2="184.159"
       gradientUnits="userSpaceOnUse">
      <stop
         offset="0"
         id="stop73812" />
      <stop
         offset=".604"
         stop-color="#fff"
         id="stop73814" />
    </linearGradient>
    <filter
       inkscape:label="Combined Lighting"
       inkscape:menu="Bevels"
       inkscape:menu-tooltip="Basic specular bevel to use for building textures"
       style="color-interpolation-filters:sRGB;"
       id="filter2464"
       x="-0.037993602"
       y="-0.030009861"
       width="1.0759872"
       height="1.0600197">
      <feGaussianBlur
         stdDeviation="6"
         in="SourceGraphic"
         result="result0"
         id="feGaussianBlur2446" />
      <feDiffuseLighting
         lighting-color="rgb(255,255,255)"
         diffuseConstant="1"
         surfaceScale="4"
         result="result5"
         id="feDiffuseLighting2450">
        <feDistantLight
           elevation="45"
           azimuth="235"
           id="feDistantLight2448" />
      </feDiffuseLighting>
      <feComposite
         k1="1.4"
         in2="SourceGraphic"
         in="result5"
         result="fbSourceGraphic"
         operator="arithmetic"
         id="feComposite2452" />
      <feGaussianBlur
         result="result0"
         in="fbSourceGraphic"
         stdDeviation="6"
         id="feGaussianBlur2454" />
      <feSpecularLighting
         specularExponent="25"
         specularConstant="1"
         surfaceScale="4"
         lighting-color="rgb(255,255,255)"
         result="result1"
         in="result0"
         id="feSpecularLighting2458">
        <feDistantLight
           azimuth="280"
           elevation="45"
           id="feDistantLight2456" />
      </feSpecularLighting>
      <feComposite
         k3="1"
         k2="1"
         operator="arithmetic"
         in="fbSourceGraphic"
         in2="result1"
         result="result4"
         id="feComposite2460" />
      <feComposite
         operator="in"
         result="result2"
         in2="SourceGraphic"
         in="result4"
         id="feComposite2462" />
    </filter>
    <filter
       inkscape:label="Combined Lighting"
       inkscape:menu="Bevels"
       inkscape:menu-tooltip="Basic specular bevel to use for building textures"
       style="color-interpolation-filters:sRGB;"
       id="filter2484"
       x="-0.052737401"
       y="-0.046551398"
       width="1.1054748"
       height="1.0931028">
      <feGaussianBlur
         stdDeviation="6"
         in="SourceGraphic"
         result="result0"
         id="feGaussianBlur2466" />
      <feDiffuseLighting
         lighting-color="rgb(255,255,255)"
         diffuseConstant="1"
         surfaceScale="4"
         result="result5"
         id="feDiffuseLighting2470">
        <feDistantLight
           elevation="45"
           azimuth="235"
           id="feDistantLight2468" />
      </feDiffuseLighting>
      <feComposite
         k1="1.4"
         in2="SourceGraphic"
         in="result5"
         result="fbSourceGraphic"
         operator="arithmetic"
         id="feComposite2472" />
      <feGaussianBlur
         result="result0"
         in="fbSourceGraphic"
         stdDeviation="6"
         id="feGaussianBlur2474" />
      <feSpecularLighting
         specularExponent="25"
         specularConstant="1"
         surfaceScale="4"
         lighting-color="rgb(255,255,255)"
         result="result1"
         in="result0"
         id="feSpecularLighting2478">
        <feDistantLight
           azimuth="235"
           elevation="45"
           id="feDistantLight2476" />
      </feSpecularLighting>
      <feComposite
         k3="1"
         k2="1"
         operator="arithmetic"
         in="fbSourceGraphic"
         in2="result1"
         result="result4"
         id="feComposite2480" />
      <feComposite
         operator="in"
         result="result2"
         in2="SourceGraphic"
         in="result4"
         id="feComposite2482" />
    </filter>
    <filter
       id="C-0"
       x="-0.010152573"
       y="-0.010558682"
       width="1.0203051"
       height="1.0211174"
       class="B">
      <feGaussianBlur
         stdDeviation="2.441"
         id="feGaussianBlur18210" />
    </filter>
    <linearGradient
       id="A-5"
       x1="236.94299"
       y1="670.45801"
       x2="278.677"
       y2="670.45801"
       spreadMethod="reflect"
       gradientUnits="userSpaceOnUse"
       gradientTransform="rotate(180,-75.889954,680.3964)">
      <stop
         offset="0"
         stop-color="#ffd285"
         id="stop18194" />
      <stop
         offset=".232"
         stop-color="#ffcd79"
         id="stop18196" />
      <stop
         offset=".616"
         stop-color="#ffca73"
         id="stop18198" />
      <stop
         offset=".808"
         stop-color="#ffd386"
         id="stop18200" />
      <stop
         offset="1"
         stop-color="#ffc86e"
         id="stop18202" />
    </linearGradient>
    <linearGradient
       id="B-7"
       x1="660"
       y1="115.844"
       x2="670.25403"
       y2="1157.469"
       gradientUnits="userSpaceOnUse"
       gradientTransform="rotate(180,-75.889954,680.3964)">
      <stop
         offset=".604"
         stop-color="#fff"
         id="stop18205" />
      <stop
         offset="1"
         id="stop18207" />
    </linearGradient>
    <filter
       inkscape:label="Combined Lighting"
       inkscape:menu="Bevels"
       inkscape:menu-tooltip="Basic specular bevel to use for building textures"
       style="color-interpolation-filters:sRGB"
       id="filter26662"
       x="-0.040485346"
       y="-0.032057836"
       width="1.0809707"
       height="1.0641157">
      <feGaussianBlur
         stdDeviation="6"
         in="SourceGraphic"
         result="result0"
         id="feGaussianBlur26644" />
      <feDiffuseLighting
         lighting-color="#ffffff"
         diffuseConstant="1"
         surfaceScale="4"
         result="result5"
         id="feDiffuseLighting26648">
        <feDistantLight
           elevation="45"
           azimuth="235"
           id="feDistantLight26646" />
      </feDiffuseLighting>
      <feComposite
         k1="1.4"
         in2="SourceGraphic"
         in="result5"
         result="fbSourceGraphic"
         operator="arithmetic"
         id="feComposite26650"
         k2="0"
         k3="0"
         k4="0" />
      <feGaussianBlur
         result="result0"
         in="fbSourceGraphic"
         stdDeviation="6"
         id="feGaussianBlur26652" />
      <feSpecularLighting
         specularExponent="25"
         specularConstant="1"
         surfaceScale="4"
         lighting-color="#ffffff"
         result="result1"
         in="result0"
         id="feSpecularLighting26656">
        <feDistantLight
           azimuth="280"
           elevation="45"
           id="feDistantLight26654" />
      </feSpecularLighting>
      <feComposite
         k3="1"
         k2="1"
         operator="arithmetic"
         in="fbSourceGraphic"
         in2="result1"
         result="result4"
         id="feComposite26658"
         k1="0"
         k4="0" />
      <feComposite
         operator="in"
         result="result2"
         in2="SourceGraphic"
         in="result4"
         id="feComposite26660" />
    </filter>
    <filter
       inkscape:label="Combined Lighting"
       inkscape:menu="Bevels"
       inkscape:menu-tooltip="Basic specular bevel to use for building textures"
       style="color-interpolation-filters:sRGB;"
       id="filter3083"
       x="-0.040485345"
       y="-0.032057836"
       width="1.0809707"
       height="1.0641157">
      <feGaussianBlur
         stdDeviation="6"
         in="SourceGraphic"
         result="result0"
         id="feGaussianBlur3065" />
      <feDiffuseLighting
         lighting-color="rgb(255,255,255)"
         diffuseConstant="1"
         surfaceScale="4"
         result="result5"
         id="feDiffuseLighting3069">
        <feDistantLight
           elevation="45"
           azimuth="235"
           id="feDistantLight3067" />
      </feDiffuseLighting>
      <feComposite
         k1="1.4"
         in2="SourceGraphic"
         in="result5"
         result="fbSourceGraphic"
         operator="arithmetic"
         id="feComposite3071" />
      <feGaussianBlur
         result="result0"
         in="fbSourceGraphic"
         stdDeviation="6"
         id="feGaussianBlur3073" />
      <feSpecularLighting
         specularExponent="25"
         specularConstant="1"
         surfaceScale="4"
         lighting-color="rgb(255,255,255)"
         result="result1"
         in="result0"
         id="feSpecularLighting3077">
        <feDistantLight
           azimuth="280"
           elevation="45"
           id="feDistantLight3075" />
      </feSpecularLighting>
      <feComposite
         k3="1"
         k2="1"
         operator="arithmetic"
         in="fbSourceGraphic"
         in2="result1"
         result="result4"
         id="feComposite3079" />
      <feComposite
         operator="in"
         result="result2"
         in2="SourceGraphic"
         in="result4"
         id="feComposite3081" />
    </filter>
  </defs>
  <path
     style="mix-blend-mode:multiply"
     d="M-2699.281 228.709l26.181 28.949 190.592 72.165 210.264-77.468 75.234-461.629-45.894-49.39z"
     transform="matrix(-2.0051 0 0 2.0051 -4364.0778 706.82307)"
     opacity=".5"
     filter="url(#B)"
     id="path73844" />
  <path
     d="M-1220.221-390.88l-194.139 75.893-8.809 28.459-70.567 506.333 10.349 7.986h525.404l10.348-7.986-70.567-506.333-8.809-28.459z"
     fill="url(#A)"
     transform="matrix(-2.0051 0 0 -2.0051 -1787.6392 533.54186)"
     id="path73846" />
  <path
     d="M-904.556-434.511l-194.139 75.893-8.809 31.887-70.567 502.905 10.349 7.986h525.404l10.349-7.986-70.567-502.905-8.809-31.887z"
     opacity=".25"
     fill="url(#C)"
     transform="matrix(-2.0051 0 0 -2.0051 -1154.6881 446.05464)"
     style="mix-blend-mode:overlay;filter:url(#filter2484)"
     id="path73848" />
  <path
     d="M133.204 97.854l.043-21.064-20.75 16.013 20.707 5.052zm932.803 1010.214l-17.664-13.248-389.274 149.021v16.402z"
     opacity=".4"
     id="path73850" />
  <path
     d="M253.993 1108.068l17.664-13.248 387.412 149.021v16.402z"
     opacity=".6"
     id="path73852" />
  <path
     d="M253.993 1108.068l17.664-13.248L133.204 97.854l-20.707-5.052z"
     opacity=".6"
     id="path73854" />
  <g
     fill="#fff"
     id="g73862">
    <path
       d="M1066.007 1108.068l-17.664-13.248 138.453-996.966 20.707-5.052z"
       opacity=".3"
       id="path73856" />
    <path
       d="M1186.796 97.854l-.043-21.064 20.75 16.013-20.707 5.052z"
       opacity=".8"
       id="path73858" />
    <path
       d="M1186.796 97.854H133.204l.043-21.064h1053.506l.043 21.064z"
       opacity=".3"
       id="path73860" />
  </g>
  <path
     d="M271.655 1165.416l-17.663-57.348 405.076 152.176 406.938-152.176-17.663 57.348-389.275 152.176-387.413-152.176z"
     opacity=".7"
     id="path73864" />
  <path
     style="fill:#9b0000;fill-opacity:1;stroke-width:0.678073;filter:url(#filter3083)"
     d="m 665.79277,170.0703 c 2.9566,2.159 6.8707,5.0673 8.8214,6.5888 1.9558,1.524 4.6305,3.782 6.0757,4.7777 27.0972,21.0464 52.2122,48.4489 68.388,74.5779 6.0096,9.6444 16.8071,30.4709 19.05,36.6138 0.6858,1.8796 1.4478,3.7821 1.7526,4.0437 0.6858,0.9398 7.4041,19.0856 7.4041,19.9543 0,1.0922 1.0922,0.762 1.6002,-0.3556 0.2273,-0.6096 0.6096,-4.4882 0.8636,-8.7199 0.762,-14.4678 -2.5146,-35.8269 -7.6073,-48.8319 -0.4318,-1.0922 -0.2794,-1.0922 1.0922,-0.762 4.2595,1.397 13.6118,6.2255 19.8323,10.2768 8.5166,5.5727 18.928,15.8953 24.4221,24.2113 5.1739,7.8028 11.0896,20.2945 14.6888,30.9404 1.524,4.7041 2.9565,8.6207 3.1318,8.8315 0.1432,0.1567 2.7381,-0.9398 5.8877,-2.4637 14.6583,-7.1628 26.0281,-10.6121 43.1914,-12.6593 3.7389,-0.4318 6.7945,-0.6604 6.7945,-0.4318 0,0.208 -0.6096,2.0574 -1.2954,3.9979 -5.4762,14.3509 -8.4201,34.4662 -9.1287,61.8236 -1.2192,45.3582 -2.4384,57.0178 -8.4201,79.6805 -0.9906,3.782 -7.0003,18.0822 -9.6343,23.1876 -1.4478,2.6975 -4.1732,7.3254 -5.9867,10.1829 -3.1293,4.8463 -3.8685,6.2966 -2.9566,6.2966 1.1176,0 8.7249,-6.6598 13.3375,-11.4858 10.7036,-11.3767 16.0884,-21.59 27.9451,-52.9572 5.2781,-13.9802 10.0432,-23.5153 15.621,-31.5494 3.9548,-5.5727 4.2596,-5.8648 10.1727,-8.8315 8.9256,-4.2596 21.971,-8.2119 21.1379,-6.2256 -9.3345,21.4503 -12.347,42.2303 -10.6985,72.9541 0.4826,8.8291 1.1176,17.4168 1.4478,19.0856 0.3302,1.6002 0.9144,9.6444 1.4478,17.7546 1.1176,20.9143 -0.1049,39.309 -4.0437,58.1903 -1.8288,8.6208 -7.1983,21.6891 -11.7754,28.4798 -3.4341,5.1384 -9.1288,11.2903 -12.8727,14.0106 -1.9304,1.4478 -3.6526,2.6086 -3.8685,2.9566 -0.8636,0.9398 -10.5003,5.5727 -14.0284,6.731 -5.2781,1.6002 -11.0667,2.9565 -11.4198,2.6085 -0.156,-0.1557 0.065,-2.2606 0.4826,-4.4881 1.4478,-7.7191 -1.2954,-18.7376 -6.3906,-25.367 -4.5593,-5.9334 -10.9551,-9.5377 -21.0668,-11.651 -7.4041,-1.524 -17.0713,-1.397 -34.562,0.6096 -17.4447,1.8796 -24.3688,2.159 -32.4315,0.6858 -10.1473,-1.8288 -15.1765,-3.782 -23.1978,-8.829 -2.5146,-1.6002 -4.7803,-2.6086 -4.9962,-2.286 -0.2212,0.3556 -0.2154,0.9398 0.01,1.397 0.4318,0.762 2.0828,9.0246 3.1293,15.2755 0.3556,2.2606 1.0922,7.1628 1.6002,10.8509 2.286,14.9123 1.9558,13.8709 5.7912,15.2273 11.4529,4.0437 19.4767,3.6932 42.3829,-1.8796 20.2667,-4.9225 20.7036,-5.0648 29.1536,-5.0648 l 8.1179,-0.041 1.2954,2.4638 c 1.1176,2.2606 1.2192,2.6086 0.4318,4.4882 -1.1176,2.5146 -3.6525,3.8253 -10.2337,4.8463 -2.827,0.4318 -6.1849,1.0922 -7.5082,1.4478 -11.717,3.0429 -39.8655,9.6444 -46.1137,10.8433 -4.2596,0.762 -11.8973,1.6002 -16.9189,1.8796 l -9.1237,0.4318 -2.0574,7.8816 c -1.0922,4.3485 -2.2606,7.7191 -2.4638,7.4041 -0.2342,-0.2794 -0.762,-4.7041 -1.2192,-9.6444 -0.4318,-5.0647 -1.0922,-10.8331 -1.4478,-12.8752 -2.2606,-13.49 -3.1318,-18.1585 -4.8514,-25.0851 -4.9962,-19.4233 -10.8102,-32.4319 -22.6314,-50.1713 -10.5384,-15.8293 -25.5061,-33.2663 -51.7705,-60.3544 l -9.5377,-9.8324 -9.5377,9.8324 c -17.0078,17.5641 -32.6575,34.879 -41.1437,45.5897 -24.6024,30.9623 -35.5488,59.4931 -39.5612,102.9179 -0.762,8.8291 -1.2954,11.3767 -1.8288,9.5377 -0.1496,-0.5842 -1.0922,-4.13 -2.0828,-8.1127 l -1.8288,-7.1628 -9.1237,-0.4318 c -11.8694,-0.5842 -22.1742,-2.4638 -48.4266,-9.0247 -14.2621,-3.5636 -16.797,-4.13 -22.7101,-5.1384 -8.1128,-1.4478 -11.3411,-4.2595 -9.5326,-8.8316 1.2192,-2.9133 2.5146,-3.3908 8.2169,-3.3477 6.6599,0.01 11.4224,0.762 27.4884,4.7778 17.1119,4.13 23.5356,5.4305 30.1449,5.4305 8.8214,0.021 18.5928,-2.9134 19.1287,-5.6464 0.6096,-3.1725 1.7526,-9.8324 2.7382,-16.7894 1.2954,-8.8316 3.4772,-20.3327 4.0436,-21.8923 0.6858,-1.8288 -0.8636,-1.4478 -4.6304,1.0922 -7.0917,4.7041 -13.7744,7.1628 -23.0047,8.8291 -7.9121,1.4478 -16.2738,1.1684 -33.3446,-0.6858 -8.2169,-0.8636 -17.8639,-1.6002 -21.4656,-1.6002 -9.2303,-0.012 -19.0652,1.9558 -25.1358,5.1384 -3.0429,1.6002 -8.316,6.731 -10.254,9.9415 -3.9979,6.7285 -6.0096,17.0485 -4.5593,23.4722 0.4318,2.0574 0.6604,3.782 0.4318,3.9979 -0.381,0.381 -6.0096,-0.8636 -11.3639,-2.6085 -15.8953,-4.9226 -30.0274,-18.288 -36.7442,-34.523 -0.6858,-1.6002 -1.524,-3.782 -1.8288,-4.4881 -6.3677,-15.0876 -9.7434,-44.0335 -8.1127,-70.6387 0.4826,-7.719 1.0922,-16.0934 1.4478,-18.5216 1.524,-11.0313 2.2606,-33.8054 1.4478,-45.2423 -1.4478,-19.8221 -4.0437,-31.4401 -10.6909,-46.8053 -0.8636,-1.8796 12.1819,1.8796 21.143,6.2256 6.5862,3.1292 7.6073,4.13 13.815,14.163 4.8463,7.7191 11.1887,22.3368 17.1526,39.4177 0.762,2.2606 1.6002,4.3485 1.9558,4.7041 0.2794,0.381 0.7366,1.4478 0.9906,2.286 0.8636,2.9566 5.0648,11.4859 8.2169,16.8554 4.1301,7.0943 7.7064,11.7552 13.269,17.526 4.3485,4.4882 11.7373,10.2769 12.3545,9.6419 0.1504,-0.1499 -1.0922,-2.4638 -2.827,-4.9225 -7.5031,-11.2903 -14.2798,-26.3889 -17.5285,-38.8526 -4.8463,-18.6386 -6.3678,-34.084 -7.4041,-75.8357 -0.6604,-25.4237 -3.1293,-43.1351 -8.2169,-58.5597 -1.2954,-3.9979 -2.286,-7.0917 -2.286,-7.1628 0,-0.2291 13.6652,1.6002 17.9654,2.4638 11.3005,2.159 20.7924,5.4305 32.7053,11.3462 2.7381,1.4477 5.0648,2.4637 5.1384,2.2605 0.1425,-0.1621 1.524,-4.0436 3.1293,-8.8289 3.6093,-10.6604 9.5377,-23.1318 14.6837,-30.9187 5.4991,-8.316 15.8725,-18.5623 24.4272,-24.2113 6.1519,-4.0436 15.5676,-8.9255 19.8272,-10.3073 1.4478,-0.4318 1.524,-0.3556 1.0922,0.762 -3.1293,7.7191 -6.0096,20.7518 -7.239,33.1269 -1.0922,10.6782 -0.3302,25.4628 1.2954,25.428 0.2421,-0.01 1.8288,-3.7821 3.4773,-8.316 3.2613,-9.1338 3.4772,-9.6444 9.5326,-23.0149 18.8163,-41.4914 48.1302,-77.0702 89.5703,-108.7033 9.0246,-6.9469 14.9453,-11.1735 15.4279,-11.1735 0.3302,0 2.9566,1.7526 5.8598,3.8252 z m 297.0232,370.9736 c 7.0002,11.3538 10.8255,20.9042 13.5712,33.7185 1.4478,6.731 1.6002,27.1407 0.3048,32.9009 -2.5146,10.8737 -3.0429,12.9692 -4.5593,17.6327 -2.0574,6.2255 -10.6401,24.0182 -12.4079,25.767 -0.1895,0.1905 -1.4478,2.159 -2.827,4.13 -5.682,8.73 -18.0772,22.0752 -28.1884,30.4363 -2.3368,1.8796 -4.2596,3.7821 -4.2596,3.998 0,1.6002 13.1851,-4.1301 20.9575,-9.2355 5.583,-3.6931 16.2916,-12.7685 19.7206,-16.7411 l 1.7526,-1.8796 0.5842,5.0673 c 0.3048,2.6975 0.4318,10.4292 0.2471,16.9647 -0.381,14.3459 -0.9906,17.5717 -8.5217,43.3956 -5.7759,19.7739 -7.4041,26.4452 -6.2915,26.4452 2.3368,0 19.2125,-15.1105 23.7972,-21.3589 1.4478,-1.8796 2.827,-3.8252 3.3477,-4.4881 0.4318,-0.5843 1.524,-2.1591 2.3368,-3.3478 0.8636,-1.1684 1.8288,-2.286 2.2098,-2.2606 0.9144,0.1118 2.827,8.5167 3.7389,16.9723 1.524,13.5433 -1.6002,29.3146 -8.8265,43.5488 -2.5146,4.9225 -9.4336,16.0477 -12.3012,19.751 -0.9906,1.4478 -1.9304,2.6975 -1.9304,3.1725 0,0.3556 2.2098,0.9906 4.8692,1.4478 11.7678,2.0574 18.928,4.3485 27.2973,9.0246 7.30763,4.0437 19.22533,13.782 18.14583,14.7193 -0.2794,0.2494 -3.4341,0.762 -7.0003,1.1684 -23.47213,2.6975 -46.92523,14.5669 -70.38763,35.4271 -12.6924,11.2776 -23.2893,21.6027 -23.015,22.4257 0.1235,0.381 2.2098,1.4478 4.6584,2.2606 17.1348,5.9334 31.323,17.5514 41.6219,33.8661 l 1.2192,1.8795 -2.6517,-0.4318 c -11.1379,-1.7525 -18.5115,-2.0574 -28.4147,-0.762 -15.8649,1.8289 -27.906,5.4306 -44.2273,12.9693 -3.8684,1.8288 -7.0002,3.6931 -7.0002,4.0437 0,0.4318 1.1176,1.6002 2.5146,2.4638 7.0002,4.704 16.0884,15.5778 21.049,25.2806 3.1293,6.0782 5.8826,13.1394 5.3695,13.6652 -0.1889,0.1884 -0.9906,7e-4 -1.8288,-0.4318 -0.762,-0.4318 -3.3477,-1.4478 -5.6819,-2.2606 -20.3658,-6.5863 -36.9834,-7.4803 -60.6496,-3.3909 -9.8374,1.7526 -34.1054,8.0111 -35.2184,9.0246 -0.6096,0.6096 0.3556,1.6002 5.367,5.6464 10.7036,8.7198 24.445,15.9156 38.6484,20.2184 l 3.9573,1.0922 -3.5636,2.286 c -14.9708,9.6444 -32.8445,14.0995 -49.2277,12.4358 -12.9337,-1.397 -22.4485,-3.6931 -37.8397,-9.1338 -3.782,-1.4478 -13.9242,-5.5728 -18.9102,-7.8054 -2.2606,-0.9906 -5.5728,-2.4638 -7.3076,-3.3478 -1.8288,-0.762 -3.5636,-1.4477 -3.998,-1.1684 -0.3556,0.1182 0.4318,2.4638 1.8288,4.9226 4.4882,8.7198 11.2903,18.1076 18.7909,25.8452 5.1384,5.3543 7.0942,7.7064 6.5126,8.1128 -0.4826,0.3048 -6.0757,0.5334 -12.4028,0.5334 -9.8425,0 -12.4638,-0.2289 -17.6378,-1.524 -6.3678,-1.6002 -14.1427,-4.5593 -19.3243,-7.4041 -3.8252,-2.2606 -13.4112,-8.415 -15.5549,-10.254 -0.9398,-0.762 -1.8288,-1.0922 -2.0828,-0.8636 -0.2419,0.3048 -2.0574,2.9566 -4.0437,5.9334 -6.0782,9.1237 -15.1867,19.1288 -24.9301,27.4018 l -4.2596,3.6093 -6.5887,-5.7175 c -9.5377,-8.316 -16.4161,-16.0172 -22.5502,-25.2323 -2.0574,-2.9566 -3.8252,-5.6465 -4.0436,-5.9335 -0.2411,-0.3048 -2.2606,0.8636 -4.3485,2.5146 -9.6342,7.4041 -21.021,13.0785 -32.6403,16.0249 -5.1384,1.2954 -7.7089,1.524 -18.0644,1.524 -6.5863,-0.012 -12.2327,-0.234 -12.4994,-0.4826 -0.2494,-0.2495 2.6086,-3.6094 6.2967,-7.4041 6.2966,-6.5126 12.1488,-13.716 15.6896,-19.5631 3.1292,-5.1384 6.1518,-11.7907 5.5727,-11.9863 -0.3556,-0.1158 -2.0828,0.4826 -3.9979,1.1685 -1.8288,0.7619 -5.1385,2.4638 -7.4041,3.3908 -20.8153,9.5377 -37.7137,14.7193 -54.1157,16.6777 -8.1128,0.9398 -10.4598,0.9906 -16.2687,0.3048 -13.5433,-1.6002 -25.0927,-5.6464 -35.4879,-12.4206 l -3.5636,-2.286 4.0005,-1.0922 c 14.2215,-4.2596 27.6537,-11.3411 38.5483,-20.1651 5.2832,-4.13 6.0757,-5.2806 5.4991,-5.7912 -0.4064,-0.4064 -12.3241,-3.9979 -16.703,-4.9225 -1.2954,-0.3048 -4.3485,-0.9906 -6.8047,-1.6002 -15.2755,-3.9979 -33.6966,-5.6413 -45.64,-4.4882 -12.1716,1.1684 -26.9234,4.7041 -32.3664,7.6429 -0.762,0.4318 -1.6002,0.6096 -1.8288,0.4064 -0.4318,-0.4318 2.7381,-8.829 5.1384,-13.5763 4.5593,-8.829 13.6373,-19.8018 20.7569,-24.9301 1.6002,-1.0922 3.0429,-2.5146 3.0429,-2.9565 0,-0.762 -0.4826,-1.0922 -9.1237,-5.0648 -16.2204,-7.4041 -30.1579,-11.0846 -47.8045,-12.5425 -4.5593,-0.381 -13.8456,0.2421 -22.2758,1.4478 l -2.9566,0.4318 1.2192,-1.8796 c 10.5512,-16.6777 24.1097,-27.6972 41.6088,-33.8663 2.4638,-0.762 4.4881,-1.8796 4.5593,-2.2606 0.1295,-0.381 -2.9566,-3.7821 -6.8047,-7.4041 -25.0266,-24.0589 -41.9349,-36.2748 -60.5571,-43.7152 -5.5728,-2.2606 -7.808,-2.9565 -16.2688,-5.1384 -1.52398,-0.4064 -5.79118,-0.9906 -9.53768,-1.524 -3.7821,-0.4318 -7.0206,-0.9906 -7.3076,-1.397 -0.5334,-0.4826 2.5146,-3.3477 9.9466,-9.3294 3.8253,-3.1725 14.80578,-8.9256 20.10928,-10.6325 2.0574,-0.6604 4.3485,-1.4477 5.1384,-1.7526 0.762,-0.3048 4.4882,-0.9905 8.316,-1.7526 3.782,-0.6604 6.8758,-1.5239 6.8758,-1.8796 0,-0.3556 -0.8636,-1.7526 -1.9558,-3.1724 -5.5728,-7.1628 -12.9769,-20.1854 -16.0681,-28.3842 -3.2613,-8.6208 -5.7175,-20.9906 -5.5727,-28.3406 0.058,-5.6464 2.6085,-20.7416 3.9979,-23.3045 0.381,-0.6858 0.7366,-0.5842 1.6002,0.6858 7.9121,11.3995 15.654,19.7282 24.0945,26.1148 5.7912,4.3484 6.8757,4.9225 6.8757,3.3909 0,-0.762 -5.8597,-25.3619 -7.4041,-31.0576 -1.0922,-4.2596 -3.5636,-15.7658 -4.7777,-22.7406 -1.4478,-8.1128 -2.827,-36.2618 -1.8288,-36.2618 0.1163,0 2.7381,2.4638 5.8598,5.5727 3.1293,3.043 8.1127,7.3254 11.1125,9.5377 8.0111,5.9335 24.8894,13.8583 24.737,11.6027 -0.021,-0.3302 -2.0574,-2.2605 -4.4882,-3.9979 -5.8597,-4.4882 -17.4853,-16.2941 -22.8422,-23.1369 -10.9118,-13.9471 -19.4335,-31.071 -23.0809,-46.3712 -2.4638,-10.0482 -2.7382,-13.5661 -2.7382,-24.4043 0.062,-15.2121 2.0828,-24.7802 8.2169,-37.9659 3.1293,-6.9469 9.0348,-16.9646 9.8425,-16.9646 0.5842,0 0.5842,0.099 2.2606,9.8323 4.0437,23.9192 13.4417,47.3994 24.3027,61.0202 11.049,13.8455 23.9497,22.6542 40.4353,27.606 14.1503,4.13 22.7305,5.1384 57.2932,5.9334 29.4142,0.6858 30.9055,0.762 41.7045,2.4638 15.4686,2.4638 25.6497,8.1127 30.132,16.637 1.6002,3.1293 1.9558,4.7777 2.4638,12.4206 0.7366,11.4122 1.6002,17.7114 3.3478,24.4043 4.4881,17.3101 13.1267,31.514 26.3016,43.0479 2.286,2.159 4.6305,4.0437 5.0648,4.4882 0.4826,0.4318 3.4773,2.4638 6.5888,4.3484 14.9885,9.4285 30.4185,14.3714 50.6557,16.2992 18.9026,1.8288 41.7045,-2.4638 58.8271,-10.762 22.0548,-10.7975 37.9181,-28.1452 45.5247,-49.8164 3.3477,-9.4285 4.2595,-15.1232 6.0096,-36.24 0.9398,-12.0853 14.0995,-21.2496 36.3268,-25.3619 5.8649,-1.0922 12.286,-1.4478 36.9529,-1.8796 35.827,-0.762 45.3133,-1.8288 60.3458,-6.6599 17.5387,-5.5727 33.2011,-18.1254 43.497,-34.6834 8.5217,-13.6652 15.4965,-33.4185 18.8773,-53.2183 1.6002,-9.7333 1.7526,-9.8323 2.2098,-9.8323 0.2794,0 1.7526,2.159 3.3477,4.5593 z m -10.8865,76.959 c -3.2588,6.0782 -9.3345,14.1325 -14.9936,19.7916 -10.2031,10.2337 -23.3324,17.7775 -38.9745,22.3723 -2.0574,0.6096 -4.6583,1.4478 -5.7709,1.6002 -2.2098,0.6604 -9.9415,2.2606 -16.2737,3.3478 -4.1732,0.762 -17.1552,2.4638 -24.4043,3.1292 -27.0932,2.6975 -39.6139,5.4991 -50.4457,10.7341 -6.5125,3.1292 -13.5864,9.5377 -16.4516,14.7929 -2.0574,3.7821 -4.9961,12.0422 -5.5727,15.8598 -1.2954,8.0111 -6.5126,20.6349 -11.4706,28.0365 -2.8271,4.13 -2.9566,4.8463 -1.2192,4.8463 0.6858,0 4.4881,0.3302 8.3159,0.6858 24.4551,2.4638 40.8785,13.4239 50.04,33.3662 2.1082,4.7041 4.7701,13.1089 4.7701,15.3289 0,0.762 0.4318,1.4478 0.9398,1.4478 0.6604,0 1.1176,-1.6002 1.7526,-5.5728 0.4318,-3.0429 1.1176,-8.2169 1.524,-11.3182 l 0.762,-5.6464 2.0574,4.417 c 9.1288,19.3548 14.2342,35.1226 17.3863,54.2021 0.9144,5.5727 1.4478,12.2326 1.524,19.5529 0.1763,12.3469 -0.1105,11.6383 5.4788,13.3909 14.9581,4.704 33.0274,3.6931 49.502,-2.9566 6.2916,-2.4638 14.859,-7.4041 18.4201,-10.6045 5.7734,-5.2832 24.0182,-17.9552 29.5709,-20.7416 5.2782,-2.6086 -2.7381,-2.286 -16.4566,0.762 -24.671,5.4991 -25.7236,5.5727 -36.6182,5.5727 -8.3159,0.032 -11.6332,-0.2408 -15.7657,-1.397 -2.9566,-0.6857 -5.2782,-1.524 -5.2782,-1.8288 0,-0.2468 2.0574,-0.6604 4.5593,-0.8636 27.3756,-2.6085 54.056,-22.5882 70.6516,-52.8345 1.524,-2.6949 2.5146,-5.2832 2.3368,-5.4991 -0.2207,-0.2212 -5.367,2.9566 -11.5341,7.1628 -18.7757,12.8042 -23.5331,15.5905 -36.5486,21.5545 -3.6525,1.6002 -12.3647,3.8252 -18.707,4.704 -7.1984,0.8636 -18.0366,0.8636 -18.5928,0.032 -0.2276,-0.381 -0.098,-0.6858 0.3048,-0.6858 0.8636,0 11.9202,-5.4305 16.8605,-8.1127 13.2664,-7.4803 24.5592,-19.0856 30.8272,-31.5707 4.8692,-9.6444 5.682,-12.0853 14.0386,-38.9656 3.1292,-9.9416 5.8826,-17.973 6.7944,-19.8323 1.4478,-2.6086 0.3302,-4.2596 -1.4477,-2.2606 -1.2192,1.4478 -9.3345,6.6599 -14.3333,9.1338 -5.9867,3.0429 -16.7894,6.3678 -24.9529,7.7191 -6.1849,0.9906 -11.0668,1.0922 -36.5399,0.9906 -29.5885,-0.1298 -37.9395,0.3556 -47.2801,2.6086 -1.6002,0.4318 -3.1293,0.5842 -3.4341,0.381 -0.6604,-0.6604 11.3005,-12.1793 16.0376,-15.5093 8.316,-5.7912 22.2453,-13.086 46.7832,-24.356 38.5874,-17.714 57.9923,-32.6403 68.2574,-52.4797 2.6518,-5.0648 6.2916,-15.4254 6.2916,-17.6759 0,-1.8796 -1.1176,-0.9398 -2.9566,2.5146 z m -583.9988,5.0647 c 10.5385,27.2799 26.0495,43.1958 56.3301,57.7558 3.9979,1.8796 7.5031,3.3909 7.9121,3.3909 0.381,0 1.2192,0.3048 1.8288,0.6604 0.6604,0.381 7.4041,3.1724 15.0749,6.2255 23.8937,9.4285 36.4053,16.322 45.0903,24.8412 4.5593,4.4882 8.9255,9.7333 8.0111,9.7333 -0.3302,0 -2.827,-0.5334 -5.7175,-1.0922 -5.5728,-1.1684 -18.3185,-1.4478 -56.6196,-0.8636 -22.1107,0.3302 -25.7886,-0.048 -37.2136,-3.7821 -9.0246,-2.9565 -20.4596,-9.3294 -25.9758,-14.5669 -2.286,-2.2606 -3.6093,-1.7526 -2.286,0.8636 1.2192,2.6086 4.0437,10.6452 9.2304,26.206 5.5728,16.9367 8.2169,23.8988 11.6459,30.6534 8.9255,17.681 21.7068,29.7234 41.4873,39.2268 3.0429,1.4478 5.8598,2.6085 6.2967,2.6085 0.4064,0 0.5334,0.3048 0.3302,0.6858 -0.5842,0.8636 -11.3995,0.8636 -18.5928,-0.033 -6.5862,-0.762 -13.6652,-2.6085 -18.702,-4.704 -10.1473,-4.1301 -21.1506,-10.7646 -38.3179,-22.6543 -5.0648,-3.3934 -9.4285,-6.2255 -9.6343,-5.9334 -0.6096,0.3556 2.8271,6.9469 6.5888,12.7584 9.3396,14.4551 23.7414,28.4449 36.8744,35.8704 8.8189,4.9225 20.1625,8.7198 29.1016,9.6443 2.7381,0.2495 4.8463,0.6858 4.8463,0.8636 0,0.2477 -2.286,0.9906 -5.2832,1.8288 -4.1301,0.9906 -7.5032,1.397 -15.7633,1.397 -10.7441,-0.036 -13.0428,-0.381 -35.2617,-5.4991 -2.4638,-0.5842 -7.6073,-1.4478 -11.4529,-2.159 -7.239,-1.0922 -9.8425,-0.6858 -6.3678,1.0922 6.2967,3.1319 27.5626,18.255 30.6924,21.6891 2.286,2.5146 13.208,8.4252 20.0075,10.6908 16.3373,5.6465 37.3182,5.7912 50.0769,0.4826 l 2.4638,-0.9905 0.01,-9.3295 c 0.015,-24.1706 6.3678,-50.7212 17.5082,-73.3523 l 3.1293,-6.3678 0.762,5.4991 c 0.4318,2.9565 1.2192,8.0213 1.6002,11.3182 0.5842,4.13 0.9906,5.9335 1.7526,5.9335 0.5334,0 0.9398,-0.6605 0.9398,-1.4479 0,-2.2606 2.6086,-10.5917 4.7777,-15.3212 5.5728,-12.2022 13.998,-21.0439 25.4323,-26.8105 7.5031,-3.782 14.2494,-5.5727 25.8976,-6.731 4.8514,-0.4826 8.3159,-1.0922 8.3159,-1.524 -0.001,-0.4064 -0.9398,-2.159 -2.0574,-3.782 -4.4882,-6.6599 -8.415,-15.7125 -10.9271,-25.0622 -6.5125,-24.5059 -19.8754,-37.6049 -43.2871,-42.3131 -7.3127,-1.4478 -15.3086,-2.4638 -32.2098,-3.5636 -19.055,-1.397 -27.467,-2.4638 -38.8312,-5.1384 -24.3205,-5.6464 -44.3372,-20.4191 -58.8414,-42.9915 -3.4772,-5.4991 -3.782,-3.6932 -0.762,4.13 z m 393.3018,144.9001 c -4.3485,0.381 -5.7912,0.762 -11.6916,3.7821 -4.3485,2.2606 -9.6342,7.6428 -12.2504,12.9692 -2.5146,5.0673 -4.4882,11.43 -3.6093,12.2123 0.3556,0.3556 3.8252,1.1684 7.7088,1.9558 33.9575,7.0206 35.3617,8.8316 61.5701,24.3205 4.0437,2.5146 7.808,4.7777 8.4201,4.9225 0.8636,0.3556 1.1176,-0.4826 1.524,-5.1384 0.4826,-5.7912 -0.4318,-17.5743 -1.7526,-22.385 -5.3695,-20.3886 -17.4675,-31.1927 -36.975,-32.9448 -2.9565,-0.2794 -6.0757,-0.4064 -7.0917,-0.3048 -0.9398,0.1031 -3.5636,0.3556 -5.8648,0.5334 z m -223.9242,1.0922 c -14.3663,4.4171 -23.6551,14.1097 -27.8709,29.2537 -1.2954,4.7777 -2.7382,18.3413 -2.4638,22.5882 0.097,1.0922 0.2217,3.3477 0.2794,4.9225 l 0.1033,2.9566 2.827,-1.6002 c 43.7078,-23.8887 40.1744,-21.4478 76.0481,-30.2885 0.381,-0.381 0.1311,-2.2606 -0.5842,-4.3485 -3.8252,-12.1793 -10.4876,-19.7053 -20.4597,-23.1241 -6.1518,-2.2606 -21.3487,-2.286 -27.9709,-0.2403 z m 115.9626,49.088 c -5.3543,1.4478 -8.1128,2.9566 -11.3462,6.2256 -4.13,4.13 -5.0622,6.731 -5.7175,16.5811 -0.3302,4.704 -0.9398,10.9067 -1.2954,13.8684 -0.762,5.5727 -3.6094,17.4625 -4.6304,19.1947 -0.3302,0.5842 -0.7366,-2.6085 -0.9398,-7.719 -0.9906,-21.8592 -8.9256,-34.5313 -24.3205,-39.3873 -4.5593,-1.4478 -19.8577,-1.6002 -26.6583,-0.2794 -18.0645,3.6094 -31.4059,8.8291 -45.6405,18.2245 -6.5126,4.2596 -21.1506,15.1994 -26.5842,19.8095 -7.239,6.2255 -18.7248,14.8234 -25.4322,19.2024 -12.065,7.8816 -22.667,12.573 -34.9141,15.4254 -2.0574,0.4826 -6.0096,1.6002 -8.8214,2.4638 -2.827,0.762 -6.8783,2.159 -9.1237,2.6086 -3.4772,0.9398 -13.1419,3.8252 -16.5506,4.8463 -1.9558,0.5842 0.5334,1.6002 8.5166,3.782 27.6408,7.0917 27.2626,7.0206 38.6004,9.1339 7.6073,1.4478 22.7177,3.0429 29.1538,3.0429 13.3325,-0.01 37.318,-4.7041 47.9781,-9.2355 8.6207,-3.782 -2.9566,5.5728 -15.0876,12.1514 -2.4638,1.397 -6.6599,3.3477 -9.5377,4.5593 -2.827,1.0922 -5.7175,2.4638 -6.3678,2.6975 -0.7366,0.3556 -6.5887,2.6086 -12.8803,5.0647 -15.3162,5.8598 -15.6896,6.0808 -25.085,10.7976 -9.6343,4.7777 -10.3124,5.9334 -3.7821,6.2966 17.2237,0.6858 41.0568,6.2256 75.602,17.333 5.2832,1.6002 10.79,3.3934 12.3775,4.0005 1.6002,0.4318 2.827,0.9906 2.827,1.397 0,0.2794 -1.0922,1.524 -2.5146,2.6086 -1.4478,1.1684 -6.0757,5.4991 -10.3353,9.4284 -4.2596,3.998 -9.1237,8.4252 -10.8432,9.9416 -1.7526,1.4478 -3.4773,2.9565 -3.8253,3.3909 -0.4826,0.4318 -1.6002,1.4478 -2.6085,2.2606 -2.9566,2.286 -1.4478,2.6086 4.9961,1.397 10.8077,-2.4638 25.2146,-7.4041 38.4833,-13.4671 2.2606,-0.9906 5.5728,-2.5146 7.5032,-3.3934 13.56969,-6.0631 25.3652,-12.0523 39.375,-18.3998 2.2606,-0.9906 6.0808,-2.9134 8.4176,-4.0437 5.0622,-2.4638 6.5125,-2.6085 5.4991,-0.8636 -0.381,0.6604 -1.9558,3.998 -3.4773,7.1628 -1.524,3.3478 -3.782,8.2169 -4.9962,10.856 -2.52584,5.2501 -4.97547,10.7955 -7.3456,15.9156 -1.0922,2.4638 -2.9566,6.5126 -4.0437,8.9256 -1.0922,2.4638 -1.9558,4.8463 -1.8288,5.2832 0.3556,1.0922 7.0205,-3.998 19.7231,-14.7168 3.1293,-2.6085 6.0782,-4.9225 6.5125,-4.9225 0.381,0 3.2614,4.4882 6.2967,10.0482 7.4041,13.4112 19.4462,30.0056 21.689,30.0056 12.99709,-11.9883 17.88309,-26.7388 28.0518,-39.9471 8.70758,5.4789 15.91535,14.4396 25.4711,19.6951 1.2954,0 0.9906,-0.762 -5.1384,-14.2417 -2.6086,-5.5728 -9.8324,-21.3817 -12.4994,-27.1107 -1.0922,-2.4638 -2.4638,-5.2832 -2.9565,-6.3678 -0.5334,-1.0922 -0.8636,-2.159 -0.762,-2.2606 0.1039,-0.1036 2.4638,0.8636 5.2832,2.2606 2.7381,1.397 6.8758,3.2614 9.1237,4.2596 14.75241,7.5864 27.06277,11.9094 40.3961,18.9103 19.05,8.829 34.3009,14.2291 49.6641,17.4218 1.4478,0.2794 2.286,-0.8636 1.2954,-1.6002 -1.8288,-1.0922 -12.7051,-10.8635 -22.1742,-19.8551 -2.6086,-2.4638 -5.7912,-5.4306 -7.0206,-6.2967 -1.2192,-0.9398 -2.2606,-2.159 -2.2606,-2.4638 0,-0.2794 1.2954,-0.8636 2.8271,-1.397 5.4991,-1.6002 20.5181,-6.2966 21.8694,-7.0205 2.0574,-0.8636 22.1564,-6.5863 29.832,-8.5167 10.6731,-2.6085 29.3362,-5.6464 34.6834,-5.6464 4.9632,0 7.0003,-0.4064 7.0003,-1.4478 0,-0.3048 -4.1733,-2.6086 -9.3345,-5.2832 -10.1727,-5.0647 -9.7384,-4.8463 -21.524,-9.3294 -27.0929,-10.3759 -38.9003,-16.3195 -48.376,-24.2976 -3.4773,-2.9566 -3.043,-3.0429 3.0429,-0.762 14.2087,5.0647 32.988,8.5217 46.661,8.5217 8.2169,-0.01 24.4983,-1.8796 34.2445,-4.0437 4.1733,-0.8636 23.2385,-5.5728 31.1925,-7.6429 3.5636,-0.8636 7.3076,-1.8796 8.316,-2.159 1.9304,-0.4826 2.6517,-2.4638 0.8128,-2.4638 -0.5842,0 -3.3478,-0.762 -6.2916,-1.6002 -2.827,-0.8636 -7.0003,-2.2606 -9.3345,-2.6974 -2.2098,-0.6604 -5.8877,-1.7526 -8.1179,-2.4638 -2.2098,-0.6858 -7.3075,-2.159 -11.1887,-3.043 -8.42,-2.2606 -18.6461,-6.2255 -25.3593,-10.0482 -9.4336,-5.4305 -15.2375,-9.5377 -36.0007,-26.1495 -29.071,-23.2563 -44.4401,-31.1882 -69.8403,-36.1313 -6.2967,-1.1684 -21.3715,-1.0922 -25.7673,0.03 -5.7912,1.6002 -10.9651,4.7041 -14.7777,8.8291 -6.5887,7.1628 -9.7434,16.3804 -10.4394,30.8013 -0.4826,10.0482 -0.9906,9.9415 -3.6093,-0.6096 -1.9558,-7.7191 -2.6086,-12.6721 -3.3477,-24.1808 -0.5334,-8.316 -0.762,-9.6419 -2.5146,-12.7915 -4.8464,-8.829 -16.9418,-13.4645 -27.9799,-10.5283 z m 69.4009,-136.4873 c 5.2832,2.9565 7.0205,7.4803 5.7912,15.7937 -1.2192,9.1338 -5.5017,17.6022 -11.2776,22.6974 -7.7165,6.731 -17.3507,7.3254 -20.8915,1.4478 -1.9558,-3.2588 -0.9906,-7.4041 2.4638,-11.0947 2.9566,-3.1725 8.6207,-12.5755 10.3759,-17.3558 0.9906,-2.6975 2.286,-6.0782 2.827,-7.3254 1.7526,-3.9979 7.239,-5.9334 10.7112,-4.0436 z m -117.8595,0.5334 c 2.5146,1.524 2.9565,2.286 4.9962,8.1127 0.762,2.4638 2.286,5.9335 3.3477,8.1128 1.8288,3.6093 7.7063,12.1793 8.9255,12.9768 0.8636,0.5842 2.6086,5.2832 2.6086,6.731 0,0.762 -0.5334,2.286 -1.0922,3.3478 -4.5593,7.719 -17.5844,4.3484 -25.5625,-6.6599 -4.9962,-6.9469 -8.4151,-20.5994 -6.5126,-26.3975 2.0574,-6.3678 8.316,-9.3294 13.3172,-6.2966 z"
     id="path50947"
     sodipodi:nodetypes="cccsccscccccccccsscccsssccccccccscccccccccccccccccccccccccccscccsccccccccccccccccscccccccccccccccccccccccsccscsccccccsccscccsccccccsccsccccscscccccccscccccsccccccsccsscccccccccccccccccccccccccccccccccccccccccccccccccsccccccccccccccscsccscccsscsccscscccscccccccccccccssccccccccccccccccccsccsscccccscccccccscccccccsccccsccccccsssccccscccscccsccccsccccccccscccccccccsccccsscccscccccccccccscccccscccccsccccccccccsccccccccscccccccccccccccsccccccccccsscccccsccccccssccccccsscccssccccccccsccccccccccscccccccccccccccccsccccc" />
</svg>
