<?xml version="1.0" encoding="UTF-8" standalone="no"?>
<svg
   width="498.898"
   height="544.252"
   viewBox="0 0 1320 1440"
   version="1.1"
   id="svg73892"
   sodipodi:docname="1_ELEPHANT.svg"
   inkscape:version="1.2 (dc2aedaf03, 2022-05-15)"
   xmlns:inkscape="http://www.inkscape.org/namespaces/inkscape"
   xmlns:sodipodi="http://sodipodi.sourceforge.net/DTD/sodipodi-0.dtd"
   xmlns="http://www.w3.org/2000/svg"
   xmlns:svg="http://www.w3.org/2000/svg">
  <sodipodi:namedview
     id="namedview73894"
     pagecolor="#ffffff"
     bordercolor="#666666"
     borderopacity="1.0"
     inkscape:showpageshadow="2"
     inkscape:pageopacity="0.0"
     inkscape:pagecheckerboard="0"
     inkscape:deskcolor="#d1d1d1"
     showgrid="false"
     inkscape:zoom="0.48753485"
     inkscape:cx="186.65333"
     inkscape:cy="257.4175"
     inkscape:window-width="1941"
     inkscape:window-height="1732"
     inkscape:window-x="1827"
     inkscape:window-y="234"
     inkscape:window-maximized="0"
     inkscape:current-layer="svg73892" />
  <style
     id="style73796"><![CDATA[.B{color-interpolation-filters:sRGB}.C{fill-opacity:.98}]]></style>
  <defs
     id="defs73842">
    <linearGradient
       id="A"
       x1="-1430.769"
       y1="-77.47"
       x2="-1409.955"
       y2="-77.47"
       spreadMethod="reflect"
       gradientUnits="userSpaceOnUse">
      <stop
         offset="0"
         stop-color="#ffd285"
         id="stop73798" />
      <stop
         offset=".232"
         stop-color="#ffcd79"
         id="stop73800" />
      <stop
         offset=".616"
         stop-color="#ffca73"
         id="stop73802" />
      <stop
         offset=".808"
         stop-color="#ffd386"
         id="stop73804" />
      <stop
         offset="1"
         stop-color="#ffc86e"
         id="stop73806" />
    </linearGradient>
    <filter
       id="B"
       x="-0.011663823"
       y="-0.0099550202"
       width="1.0233276"
       height="1.01991"
       class="B">
      <feGaussianBlur
         stdDeviation="2.441"
         id="feGaussianBlur73809" />
    </filter>
    <linearGradient
       id="C"
       x1="-904.556"
       y1="-406.052"
       x2="-904.556"
       y2="184.159"
       gradientUnits="userSpaceOnUse">
      <stop
         offset="0"
         id="stop73812" />
      <stop
         offset=".604"
         stop-color="#fff"
         id="stop73814" />
    </linearGradient>
    <filter
       inkscape:label="Combined Lighting"
       inkscape:menu="Bevels"
       inkscape:menu-tooltip="Basic specular bevel to use for building textures"
       style="color-interpolation-filters:sRGB;"
       id="filter1524"
       x="-0.039517023"
       y="-0.033875892"
       width="1.079034"
       height="1.0677518">
      <feGaussianBlur
         stdDeviation="6"
         in="SourceGraphic"
         result="result0"
         id="feGaussianBlur1506" />
      <feDiffuseLighting
         lighting-color="rgb(255,255,255)"
         diffuseConstant="1"
         surfaceScale="4"
         result="result5"
         id="feDiffuseLighting1510">
        <feDistantLight
           elevation="45"
           azimuth="235"
           id="feDistantLight1508" />
      </feDiffuseLighting>
      <feComposite
         k1="1.4"
         in2="SourceGraphic"
         in="result5"
         result="fbSourceGraphic"
         operator="arithmetic"
         id="feComposite1512" />
      <feGaussianBlur
         result="result0"
         in="fbSourceGraphic"
         stdDeviation="6"
         id="feGaussianBlur1514" />
      <feSpecularLighting
         specularExponent="25"
         specularConstant="1"
         surfaceScale="4"
         lighting-color="rgb(255,255,255)"
         result="result1"
         in="result0"
         id="feSpecularLighting1518">
        <feDistantLight
           azimuth="280"
           elevation="45"
           id="feDistantLight1516" />
      </feSpecularLighting>
      <feComposite
         k3="1"
         k2="1"
         operator="arithmetic"
         in="fbSourceGraphic"
         in2="result1"
         result="result4"
         id="feComposite1520" />
      <feComposite
         operator="in"
         result="result2"
         in2="SourceGraphic"
         in="result4"
         id="feComposite1522" />
    </filter>
  </defs>
  <path
     style="mix-blend-mode:multiply"
     d="M-2699.281 228.709l26.181 28.949 190.592 72.165 210.264-77.468 75.234-461.629-45.894-49.39z"
     transform="matrix(-2.0051 0 0 2.0051 -4364.0778 706.82307)"
     opacity=".5"
     filter="url(#B)"
     id="path73844" />
  <path
     d="M-1220.221-390.88l-194.139 75.893-8.809 28.459-70.567 506.333 10.349 7.986h525.404l10.348-7.986-70.567-506.333-8.809-28.459z"
     fill="url(#A)"
     transform="matrix(-2.0051 0 0 -2.0051 -1787.6392 533.54186)"
     id="path73846" />
  <path
     d="M-904.556-434.511l-194.139 75.893-8.809 31.887-70.567 502.905 10.349 7.986h525.404l10.349-7.986-70.567-502.905-8.809-31.887z"
     opacity=".25"
     fill="url(#C)"
     transform="matrix(-2.0051 0 0 -2.0051 -1154.6881 446.05464)"
     style="mix-blend-mode:overlay"
     id="path73848" />
  <path
     d="M133.204 97.854l.043-21.064-20.75 16.013 20.707 5.052zm932.803 1010.214l-17.664-13.248-389.274 149.021v16.402z"
     opacity=".4"
     id="path73850" />
  <path
     d="M253.993 1108.068l17.664-13.248 387.412 149.021v16.402z"
     opacity=".6"
     id="path73852" />
  <path
     d="M253.993 1108.068l17.664-13.248L133.204 97.854l-20.707-5.052z"
     opacity=".6"
     id="path73854" />
  <g
     fill="#fff"
     id="g73862">
    <path
       d="M1066.007 1108.068l-17.664-13.248 138.453-996.966 20.707-5.052z"
       opacity=".3"
       id="path73856" />
    <path
       d="M1186.796 97.854l-.043-21.064 20.75 16.013-20.707 5.052z"
       opacity=".8"
       id="path73858" />
    <path
       d="M1186.796 97.854H133.204l.043-21.064h1053.506l.043 21.064z"
       opacity=".3"
       id="path73860" />
  </g>
  <path
     d="M271.655 1165.416l-17.663-57.348 405.076 152.176 406.938-152.176-17.663 57.348-389.275 152.176-387.413-152.176z"
     opacity=".7"
     id="path73864" />
  <path
     id="path5349"
     style="fill:#000000;fill-opacity:0.992157;stroke:none;stroke-width:18.613px;stroke-linecap:butt;stroke-linejoin:miter;stroke-opacity:1;filter:url(#filter1524)"
     d="m 742.95757,1083.8132 a 26.150759,24.282854 0 0 0 26.15,-24.2946 26.150759,24.282854 0 0 0 -26.15,-24.2945 26.150759,24.282854 0 0 0 -26.1511,24.2945 26.150759,24.282854 0 0 0 26.1511,24.2946 z m -76.8093,-63.5207 a 23.348902,26.150759 0 0 0 22.6618,-26.15091 23.348902,26.150759 0 0 0 -23.3629,-26.15005 23.348902,26.150759 0 0 0 -23.34,26.15005 23.348902,26.150759 0 0 0 23.34,26.15091 23.348902,26.150759 0 0 0 0.7112,0 z m 72.1537,-42.94884 a 25.216809,26.150759 0 0 0 25.2171,-26.17134 25.216809,26.150759 0 0 0 -25.2171,-26.15002 25.216809,26.150759 0 0 0 -25.2171,26.15002 25.216809,26.150759 0 0 0 25.2171,26.17134 z m -126.8813,-78.3409 c 64.0684,-0.8915 112.7213,-36.1625 153.2765,-89.4687 46.0832,-51.4897 78.1276,-115.8843 94.1958,-194.9647 15.9233,-32.1458 29.2339,-37.8368 42.6547,-44.8455 40.6878,12.4869 53.9854,31.689 44.4091,56.5321 -6.289,35.2704 -61.9681,65.3258 -97.7155,97.4925 -28.3934,51.6322 -41.721,101.2964 10.6299,142.3383 155.62673,40.0074 125.4307,-91.7712 92.4105,-120.8963 -22.032,10.6416 -35.5638,23.8486 -42.6344,39.0027 4.5593,8.5202 17.4574,15.9062 0,27.2873 -9.5352,-0.8966 -14.5567,-5.5801 -17.7724,-11.6756 0,-19.4968 -8.9281,-22.3365 63.9572,-77.9859 42.9697,-22.6304 46.07333,-58.2866 62.18173,-89.6919 29.6403,-170.3538 -34.64133,-221.4493 -115.48843,-251.5114 -15.367,14.0583 -19.8933,33.9513 -26.6484,52.6463 -23.0251,-5.4801 -44.6936,-7.5057 -76.4232,-35.1083 -7.7115,7.8074 -15.3873,15.5999 -23.0988,23.4022 l -27.0134,21.5242 c -7.2009,-18.3911 7.5057,-26.6575 15.0648,-38.2023 11.0159,-16.7971 33.819,-34.1541 52.8091,-45.6881 l -42.6347,-5.8842 c -19.3141,7.9121 -34.3575,19.8303 -47.98,33.1392 l -23.0988,7.8099 c -21.5671,57.931 -42.4929,116.0485 -51.5305,177.423 1.4224,19.1917 1.8288,34.5096 12.4282,87.734 l -12.4282,44.8456 -74.6282,91.6496 56.8564,-97.4925 10.6502,-40.9512 c 1.7272,-29.8227 -2.7331,-55.162 -10.6502,-77.9858 l 3.5509,-40.9404 c 19.5072,-60.3964 41.9138,-118.2945 46.1853,-185.2236 -2.2098,-15.0835 -7.2009,-28.1492 -23.0988,-33.1392 -199.5486,8.3188 -299.0384,102.0499 -360.7059,228.1328 l -3.5636,40.9204 c 37.448,173.3796 144.853,262.2467 287.8732,308.0603 8.5217,1.1125 16.8605,1.7323 24.9149,1.7323 1.016,0 2.032,0.014 3.0378,0 z m 168.3003,-219.5861 c -3.3528,0 -6.6954,-1.3258 -10.3556,-5.3703 l -31.3646,-40.576 c -5.1765,-13.116 -7.0003,-25.9787 -2.032,-38.3845 5.682,9.9408 10.5918,19.9121 23.7566,29.9845 14.6583,4.3645 29.6705,8.5202 38.5965,17.9954 4.1555,22.8036 -0.6858,24.102 -3.0378,31.3447 -4.9632,1.4173 -9.84,4.6609 -14.8819,4.9652 -0.2202,0.012 -0.4572,0.02 -0.6858,0.021 z m 82.7131,-267.6291 c 23.6042,-79.284 71.9706,-123.24544 117.2839,-171.56154 3.6576,-5.9865 -2.54,-7.7051 -17.7724,-5.8844 -69.3839,36.3355 -121.8861,85.01564 -143.9267,155.97964 13.9776,8.0145 23.2994,21.13 44.4098,21.4442 z" />
</svg>
