<?xml version="1.0" encoding="UTF-8" standalone="no"?>
<svg
   width="498.898"
   height="544.252"
   viewBox="0 0 1320 1440"
   version="1.1"
   id="svg73892"
   sodipodi:docname="1_FALCON.svg"
   inkscape:version="1.2 (dc2aedaf03, 2022-05-15)"
   xmlns:inkscape="http://www.inkscape.org/namespaces/inkscape"
   xmlns:sodipodi="http://sodipodi.sourceforge.net/DTD/sodipodi-0.dtd"
   xmlns="http://www.w3.org/2000/svg"
   xmlns:svg="http://www.w3.org/2000/svg">
  <sodipodi:namedview
     id="namedview73894"
     pagecolor="#ffffff"
     bordercolor="#666666"
     borderopacity="1.0"
     inkscape:showpageshadow="2"
     inkscape:pageopacity="0.0"
     inkscape:pagecheckerboard="0"
     inkscape:deskcolor="#d1d1d1"
     showgrid="false"
     inkscape:zoom="0.6894784"
     inkscape:cx="166.06757"
     inkscape:cy="129.80827"
     inkscape:window-width="1916"
     inkscape:window-height="2022"
     inkscape:window-x="5740"
     inkscape:window-y="0"
     inkscape:window-maximized="0"
     inkscape:current-layer="svg73892" />
  <style
     id="style73796"><![CDATA[.B{color-interpolation-filters:sRGB}.C{fill-opacity:.98}]]></style>
  <defs
     id="defs73842">
    <linearGradient
       id="A"
       x1="-1430.769"
       y1="-77.47"
       x2="-1409.955"
       y2="-77.47"
       spreadMethod="reflect"
       gradientUnits="userSpaceOnUse">
      <stop
         offset="0"
         stop-color="#ffd285"
         id="stop73798" />
      <stop
         offset=".232"
         stop-color="#ffcd79"
         id="stop73800" />
      <stop
         offset=".616"
         stop-color="#ffca73"
         id="stop73802" />
      <stop
         offset=".808"
         stop-color="#ffd386"
         id="stop73804" />
      <stop
         offset="1"
         stop-color="#ffc86e"
         id="stop73806" />
    </linearGradient>
    <filter
       id="B"
       x="-0.011663823"
       y="-0.0099550202"
       width="1.0233276"
       height="1.01991"
       class="B">
      <feGaussianBlur
         stdDeviation="2.441"
         id="feGaussianBlur73809" />
    </filter>
    <linearGradient
       id="C"
       x1="-904.556"
       y1="-406.052"
       x2="-904.556"
       y2="184.159"
       gradientUnits="userSpaceOnUse">
      <stop
         offset="0"
         id="stop73812" />
      <stop
         offset=".604"
         stop-color="#fff"
         id="stop73814" />
    </linearGradient>
    <filter
       inkscape:label="Combined Lighting"
       inkscape:menu="Bevels"
       inkscape:menu-tooltip="Basic specular bevel to use for building textures"
       style="color-interpolation-filters:sRGB;"
       id="filter2484"
       x="-0.052737401"
       y="-0.046551398"
       width="1.1054748"
       height="1.0931028">
      <feGaussianBlur
         stdDeviation="6"
         in="SourceGraphic"
         result="result0"
         id="feGaussianBlur2466" />
      <feDiffuseLighting
         lighting-color="rgb(255,255,255)"
         diffuseConstant="1"
         surfaceScale="4"
         result="result5"
         id="feDiffuseLighting2470">
        <feDistantLight
           elevation="45"
           azimuth="235"
           id="feDistantLight2468" />
      </feDiffuseLighting>
      <feComposite
         k1="1.4"
         in2="SourceGraphic"
         in="result5"
         result="fbSourceGraphic"
         operator="arithmetic"
         id="feComposite2472" />
      <feGaussianBlur
         result="result0"
         in="fbSourceGraphic"
         stdDeviation="6"
         id="feGaussianBlur2474" />
      <feSpecularLighting
         specularExponent="25"
         specularConstant="1"
         surfaceScale="4"
         lighting-color="rgb(255,255,255)"
         result="result1"
         in="result0"
         id="feSpecularLighting2478">
        <feDistantLight
           azimuth="235"
           elevation="45"
           id="feDistantLight2476" />
      </feSpecularLighting>
      <feComposite
         k3="1"
         k2="1"
         operator="arithmetic"
         in="fbSourceGraphic"
         in2="result1"
         result="result4"
         id="feComposite2480" />
      <feComposite
         operator="in"
         result="result2"
         in2="SourceGraphic"
         in="result4"
         id="feComposite2482" />
    </filter>
    <filter
       inkscape:label="Combined Lighting"
       inkscape:menu="Bevels"
       inkscape:menu-tooltip="Basic specular bevel to use for building textures"
       style="color-interpolation-filters:sRGB;"
       id="filter2462"
       x="-0.035973705"
       y="-0.036083286"
       width="1.0719474"
       height="1.0721666">
      <feGaussianBlur
         stdDeviation="6"
         in="SourceGraphic"
         result="result0"
         id="feGaussianBlur2444" />
      <feDiffuseLighting
         lighting-color="rgb(255,255,255)"
         diffuseConstant="1"
         surfaceScale="4"
         result="result5"
         id="feDiffuseLighting2448">
        <feDistantLight
           elevation="45"
           azimuth="235"
           id="feDistantLight2446" />
      </feDiffuseLighting>
      <feComposite
         k1="1.4"
         in2="SourceGraphic"
         in="result5"
         result="fbSourceGraphic"
         operator="arithmetic"
         id="feComposite2450" />
      <feGaussianBlur
         result="result0"
         in="fbSourceGraphic"
         stdDeviation="6"
         id="feGaussianBlur2452" />
      <feSpecularLighting
         specularExponent="25"
         specularConstant="1"
         surfaceScale="4"
         lighting-color="rgb(255,255,255)"
         result="result1"
         in="result0"
         id="feSpecularLighting2456">
        <feDistantLight
           azimuth="280"
           elevation="45"
           id="feDistantLight2454" />
      </feSpecularLighting>
      <feComposite
         k3="1"
         k2="1"
         operator="arithmetic"
         in="fbSourceGraphic"
         in2="result1"
         result="result4"
         id="feComposite2458" />
      <feComposite
         operator="in"
         result="result2"
         in2="SourceGraphic"
         in="result4"
         id="feComposite2460" />
    </filter>
  </defs>
  <path
     style="mix-blend-mode:multiply"
     d="M-2699.281 228.709l26.181 28.949 190.592 72.165 210.264-77.468 75.234-461.629-45.894-49.39z"
     transform="matrix(-2.0051 0 0 2.0051 -4364.0778 706.82307)"
     opacity=".5"
     filter="url(#B)"
     id="path73844" />
  <path
     d="M-1220.221-390.88l-194.139 75.893-8.809 28.459-70.567 506.333 10.349 7.986h525.404l10.348-7.986-70.567-506.333-8.809-28.459z"
     fill="url(#A)"
     transform="matrix(-2.0051 0 0 -2.0051 -1787.6392 533.54186)"
     id="path73846" />
  <path
     d="M-904.556-434.511l-194.139 75.893-8.809 31.887-70.567 502.905 10.349 7.986h525.404l10.349-7.986-70.567-502.905-8.809-31.887z"
     opacity=".25"
     fill="url(#C)"
     transform="matrix(-2.0051 0 0 -2.0051 -1154.6881 446.05464)"
     style="mix-blend-mode:overlay;filter:url(#filter2484)"
     id="path73848" />
  <path
     d="M133.204 97.854l.043-21.064-20.75 16.013 20.707 5.052zm932.803 1010.214l-17.664-13.248-389.274 149.021v16.402z"
     opacity=".4"
     id="path73850" />
  <path
     d="M253.993 1108.068l17.664-13.248 387.412 149.021v16.402z"
     opacity=".6"
     id="path73852" />
  <path
     d="M253.993 1108.068l17.664-13.248L133.204 97.854l-20.707-5.052z"
     opacity=".6"
     id="path73854" />
  <g
     fill="#fff"
     id="g73862">
    <path
       d="M1066.007 1108.068l-17.664-13.248 138.453-996.966 20.707-5.052z"
       opacity=".3"
       id="path73856" />
    <path
       d="M1186.796 97.854l-.043-21.064 20.75 16.013-20.707 5.052z"
       opacity=".8"
       id="path73858" />
    <path
       d="M1186.796 97.854H133.204l.043-21.064h1053.506l.043 21.064z"
       opacity=".3"
       id="path73860" />
  </g>
  <path
     d="M271.655 1165.416l-17.663-57.348 405.076 152.176 406.938-152.176-17.663 57.348-389.275 152.176-387.413-152.176z"
     opacity=".7"
     id="path73864" />
  <path
     style="fill:#9b0000;fill-opacity:1;stroke-width:0.664108;filter:url(#filter2462)"
     d="m 834.38859,193.3455 c -1.1684,14.7828 -1.7526,24.4728 -2.286,43.9973 -0.8128,28.1191 -0.9906,46.3784 -0.5334,46.8706 0.2106,0.2118 1.524,-1.2954 2.827,-3.4772 5.5601,-8.7122 12.286,-16.9825 20.4927,-25.141 32.4516,-33.0865 91.1956,-48.6638 131.21659,-50.4316 10.2362,-0.381 33.25752,0.5334 34.57472,1.2954 0.3302,0.1986 -2.6085,3.0429 -6.5328,6.4439 -8.8265,7.5134 -26.65832,25.3975 -36.01392,36.0442 -3.8253,4.3484 -7.5133,8.4912 -8.1636,9.3649 -19.37759,22.6441 -38.57849,51.1106 -51.50609,73.4309 -9.1465,15.8166 -37.1297,36.6047 -36.2585,37.4728 0.1651,0.1644 1.7526,-2.1589 3.6094,-5.1384 16.3042,-27.2364 47.358,-35.0768 95.41249,-69.4989 23.92432,-17.1374 39.03932,-29.9799 48.63442,-41.305 14.351,-16.9418 22.7584,-33.9011 26.9755,-54.4047 l 1.524,-7.2873 0.9398,9.2634 c 1.4478,13.1623 1.1684,51.1624 -0.2494,63.6328 -3.1725,26.5715 -8.4912,48.0141 -17.5032,70.0672 -52.93402,108.0655 -183.79681,195.4846 -279.89281,227.7873 -10.9195,3.4773 -58.3263,21.5824 -58.7957,21.0439 -0.1275,-0.1272 3.3909,-3.2588 7.8385,-6.8554 12.1894,-10.0203 32.084,-29.6406 45.3577,-44.8224 3.2614,-3.6957 14.4298,-17.8257 18.4887,-23.3553 5.4432,-7.5133 17.6987,-25.8541 17.6987,-26.6712 0,-0.4064 -3.0429,2.286 -6.858,6.0096 -3.6931,3.6932 -8.2753,7.8384 -10.1244,9.365 -40.8427,37.4545 -116.9334,70.8858 -150.2674,83.0978 -14.8056,5.6591 -63.0628,24.4373 -63.4537,23.9878 31.213,-31.8277 54.1159,-46.2209 73.285,-69.6786 -37.9054,24.7092 -88.8486,42.0175 -119.7342,58.0106 -0.3302,0 1.0922,-1.524 3.0429,-3.6094 1.9558,-1.9558 5.3543,-5.2171 7.2872,-7.5133 8.4913,-9.1516 28.9449,-34.6313 28.2928,-35.2834 -0.1856,-0.1839 -2.3876,1.1684 -4.9225,3.2614 -7.9553,6.317 -16.0375,11.4884 -31.5056,20.1244 -10.0254,5.6591 -30.45,14.9555 -39.8798,19.2126 -2.9565,1.2954 -7.2923,3.2613 -9.6901,4.3561 -2.3876,1.0922 -4.7041,2.0828 -4.9225,2.0828 -0.2794,0 3.4773,-2.7382 8.3871,-6.096 16.83,-11.4351 16.6903,-12.921 30.3108,-26.5867 11.2243,-11.27 16.8935,-18.8798 22.037,-29.6621 l 2.8271,-6.0097 c 4.7548,-16.6065 4.3865,-24.7726 1.016,-39.1695 -10.2566,-53.7484 -33.2364,-119.4854 -53.2232,-163.7154 -0.3302,-0.7366 -3.1724,-7.8385 -6.2966,-15.9411 -3.1725,-8.0568 -8.7122,-21.7804 -12.4029,-30.549 -3.6093,-8.7122 -6.731,-16.317 -6.9469,-16.7666 -0.9906,-2.6085 6.9469,1.2954 13.5662,6.6599 9.5809,7.7292 21.3665,21.5189 33.04,38.8224 2.5146,3.6931 4.9226,6.5125 5.1385,6.2966 0.6858,-0.6858 -0.8636,-9.1465 -2.8271,-14.7421 -3.6931,-10.8966 -13.589,-28.0584 -23.5432,-40.609 -1.8796,-2.286 -2.7381,-3.9142 -2.159,-3.6957 3.1724,1.2192 27.6408,18.1889 30.3276,21.0413 0.1851,0.1903 2.9565,2.5146 6.0756,5.1385 13.0734,10.9982 29.1755,29.7319 36.414,42.3915 1.524,2.827 4.2596,8.2804 6.0096,12.3012 1.7526,4.0437 3.2614,7.5134 3.6094,7.62 0.2171,0.2165 0.4064,-1.0922 0.4064,-3.0429 0,-4.5593 1.651,-15.5905 3.2613,-21.689 5.3543,-19.746 19.8933,-43.3482 37.7746,-61.0487 l 6.0097,-6.0096 -2.286,6.2255 c -5.8598,15.5321 -8.9256,34.0749 -8.9256,54.4053 -0.015,11.2243 1.0922,26.5844 1.9558,27.5623 0.2794,0.3048 1.1684,-1.4478 1.9558,-3.9142 6.731,-20.9549 25.5712,-42.8304 55.1358,-64.0963 8.8214,-6.2967 13.7744,-9.5809 26.4106,-17.0891 10.7798,-6.444 24.6583,-13.6551 25.2019,-13.109 0.1793,0.1783 -0.4318,1.2954 -1.2954,2.5146 -3.6094,4.7778 -7.62,13.9802 -10.0254,22.7889 -2.6086,9.6901 -3.4772,17.4803 -3.3909,31.21 0.062,11.4986 1.4478,26.3454 2.6086,28.2191 0.6096,0.9398 1.651,0.1852 1.651,-1.1684 0,-0.6096 1.651,-4.3485 3.6093,-8.3871 6.8758,-14.069 16.0935,-26.0931 33.5839,-43.5051 26.6662,-25.5216 35.0451,-32.7918 67.4629,-56.2167 11.6281,-8.3871 38.1789,-26.1366 39.0746,-26.1366 0.2298,0 0.2794,1.651 0.1023,3.8252 z m 210.82121,156.5663 c 0,0.2113 -0.8636,3.0429 -1.9558,6.2966 -2.0828,6.0782 -2.8271,8.9256 -5.9868,21.1099 -12.5247,49.5821 -22.1031,102.9622 -31.4782,148.1442 -11.30812,55.3636 -19.26592,106.2571 -35.94102,163.0316 -5.44319,18.5471 -14.41959,44.6806 -19.15409,55.4515 -0.3302,0.7366 -1.0414,2.3876 -1.6002,3.6093 -0.5842,1.1684 -1.7526,4.1301 -2.7381,6.317 -0.9398,2.28602 -2.3876,5.56008 -3.1725,7.29235 -2.5146,5.76834 -14.1097,28.36671 -17.0002,33.12718 -1.524,2.5146 -2.7381,4.69138 -2.7381,4.78282 0,0.762 -11.0719,17.78507 -16.825,25.83229 -30.5013,42.62195 -67.648,73.10422 -110.6812,90.83214 -4.8997,2.0828 -11.8034,4.57454 -15.2756,5.88264 39.0396,2.5146 66.6684,16.47443 75.5315,20.65781 1.6002,3.25882 7.7292,32.71417 12.794,45.11673 0.4826,1.4478 -51.4658,-14.25447 -53.305,-15.23237 -3.4772,-1.7526 -36.6227,-25.90621 -42.3047,-26.89732 -18.1686,-3.25882 -27.1277,-3.69316 -72.0574,-4.04368 -20.823,-0.13462 -41.2959,-0.5842 -45.4884,-0.9398 -4.2596,-0.4064 -11.2242,-1.0414 -15.6032,-1.2954 -47.8907,-4.13004 -93.8161,-14.29003 -133.1541,-29.55365 -55.8741,-21.69413 -101.428,-54.62394 -128.5984,-92.96726 -3.6931,-5.21716 -11.9329,-14.63547 -11.2903,-14.63547 0.2358,0 5.4306,3.04292 6.6599,3.91414 2.3876,1.75259 7.9553,4.46531 12.5984,5.98677 3.2614,1.0922 11.7602,1.4478 11.7602,0.5334 0,-0.3048 -1.0922,-2.60858 -2.5146,-5.12572 -2.0828,-3.82523 -2.5146,-5.33399 -2.7381,-9.68501 -0.3556,-5.88772 0.6096,-8.49122 4.2596,-12.35964 l 2.159,-2.28599 5.212,3.69315 c 2.8271,2.0828 9.9086,6.6421 15.8141,10.2362 18.5166,11.40459 19.3167,11.73733 14.6558,6.20776 -5.6464,-6.75894 -11.6383,-17.1577 -13.4239,-23.25115 -1.2954,-4.46532 -0.8636,-9.91362 1.0922,-12.66444 1.8796,-2.60858 6.2255,-5.0165 11.0439,-6.42619 3.1724,-0.8128 6.444,-0.9398 16.5252,-0.6858 6.9469,0.1905 14.5644,0.6604 16.9367,0.93979 2.3876,0.3556 4.4882,0.5334 4.5593,0.381 0.154,-0.15341 -3.2613,-3.69315 -7.7292,-7.83848 -4.3485,-4.13 -10.0254,-10.1244 -12.5857,-13.114 -7.9553,-9.4742 -10.2336,-13.8277 -10.2336,-19.4818 0,-3.0429 0.2794,-3.8252 1.9558,-5.56 4.13,-4.1301 16.1899,-5.1257 32.562,-2.827 9.1465,1.2954 19.5123,3.2613 27.1061,5.0165 4.3485,1.0922 4.9962,1.0414 4.2596,-0.1021 -0.4318,-0.6096 -8.603,-5.6592 -9.1466,-5.6592 -0.1455,0 -1.8796,-0.6858 -3.8252,-1.524 -5.7912,-2.6085 -7.1628,-3.1724 -14.4602,-5.56 -3.8253,-1.1684 -8.0569,-2.0828 -14.2596,-3.6094 -6.8783,-1.6002 -10.7848,-3.0429 -9.9085,-3.1724 10.668,-3.0429 58.2917,-12.1717 85.3117,-14.6253 3.8252,-0.3556 8.0569,-0.762 9.2634,-0.9398 3.6093,-0.5334 18.3007,-1.524 38.1917,-2.7382 25.88,-1.4478 85.235,-3.8252 101.3731,-2.3876 5.2121,0.4826 4.7777,-0.6858 -1.2954,-3.1724 -4.9225,-2.0828 -42.2394,-13.6677 -49.5922,-16.3373 -7.8385,-2.827 -34.3921,-5.3365 -48.528,-9.9136 -7.62,-2.5146 -14.6939,-4.6914 -15.6032,-5.0165 -0.9398,-0.3302 -4.3485,-1.2954 -7.62,-2.3876 -3.2588,-0.9398 -9.9085,-2.9566 -14.6126,-4.3561 -4.7777,-1.4478 -10.1244,-3.0429 -11.8694,-3.6093 -1.7526,-0.5334 -3.6932,-0.9398 -4.13,-0.9398 -0.5334,0 -0.9398,-0.2479 -0.9398,-0.5842 0,-0.3048 1.7526,-0.8636 3.8252,-1.2954 2.0828,-0.4318 11.5875,-2.6086 21.0845,-4.7828 24.0894,-5.6592 30.623,-7.0765 34.2054,-7.7293 1.2954,-0.2423 3.2614,-0.8128 4.3485,-1.2954 1.7526,-0.762 1.0922,-0.8636 -6.0096,-0.8636 -10.7849,-0.035 -22.3419,-1.4478 -30.1968,-3.6931 -6.8783,-1.9558 -8.5979,-2.6086 -8.5979,-3.0429 0,-0.2794 2.159,-0.8128 4.7777,-1.2954 4.4882,-0.7366 7.4041,-1.2954 16.4287,-3.2614 68.01,-10.0482 102.6386,-37.5168 164.9915,-67.203 3.3909,-1.0922 1.8796,0.4826 -4.7041,4.6913 -8.5979,5.6592 -46.1121,47.9199 -58.7283,53.5714 -4.9962,2.286 -4.5593,2.827 2.286,2.3876 20.8712,-2.159 34.2184,-5.842 51.4769,-10.3378 101.3706,-40.5633 237.09139,-100.9751 289.55481,-199.9954 4.4653,-8.5979 24.4932,-38.5178 24.4932,-36.5788 z M 563.29809,743.8869 c -10.6782,3.4773 -22.4485,12.4257 -30.623,23.21562 -3.6932,4.89204 -4.5593,5.65912 -6.8758,5.65912 -2.6086,0 -10.9322,3.17245 -15.3162,5.76833 -4.2596,2.60858 -9.2634,7.84352 -10.9423,11.44778 -0.6096,1.2954 -1.1684,2.73812 -1.4478,3.04292 -0.381,0.6858 -0.4826,0.7366 5.3543,-3.17246 5.6464,-3.82524 10.0254,-5.33654 17.3507,-6.4262 7.6124,-1.0922 11.3894,-0.5334 33.336,4.69138 10.1244,2.5146 15.1994,3.60934 19.2659,4.3561 33.5183,6.75893 46.8996,8.49121 65.7461,8.49121 13.9878,0.0356 22.6415,-0.8128 26.2364,-2.73812 l 1.651,-0.81279 -1.651,-0.3556 c -0.9398,-0.19203 -4.7041,-0.5334 -8.2804,-0.7366 -10.0254,-0.6096 -23.6906,-2.60858 -32.9402,-4.69138 l -4.3485,-1.0414 -0.4064,-6.75894 c -0.6604,-11.62049 -4.2596,-19.41575 -12.319,-27.14929 -6.9469,-6.64208 -17.3101,-11.76018 -27.9885,-13.82008 -4.0437,-0.7366 -11.7373,-0.2495 -15.7074,1.0414 z M 336.21299,512.7143 c 0,0.2794 -0.6096,1.651 -1.4478,3.1724 -12.0421,64.7456 -30.21557,78.2917 17.1349,118.4318 7.0942,2.3876 14.5008,4.6914 16.4922,5.2171 1.9558,0.5334 6.5125,1.6002 9.9085,2.7382 49.8142,13.0251 101.5733,20.3098 151.0939,24.8666 4.0436,0.3809 4.7777,1.1684 8.8214,1.5239 4.0437,0.381 11.3995,0.8637 16.4084,1.0922 4.9962,0.2363 8.9255,0.6604 8.8214,0.9145 -0.1661,0.2793 -2.7381,0.6857 -5.7912,0.9143 -3.0429,0.2353 -8.5979,0.7112 -12.4536,1.0923 -3.8253,0.3556 -6.444,0.8127 -12.8245,1.4478 -6.4439,0.5841 -14.7599,1.2954 -18.5851,1.6002 -30.24,5.9385 -104.9391,7.3786 -106.0922,30.038 0.762,6.8554 8.0568,17.3939 21.1556,30.7314 l 7.9578,8.0569 h -3.2613 c -7.62,0 -16.5913,2.9566 -23.8074,7.8384 -7.7293,5.21719 -20.4775,14.14529 -25.1029,25.00125 -0.9906,2.38759 -2.0827,4.89457 -2.3875,5.65911 -1.1684,2.82702 -3.9142,11.83894 -3.9142,13.04544 0,0.6858 -0.4318,1.4478 -0.9398,1.6002 -65.02605,-29.73602 -116.44507,-127.1506 -117.72447,-185.6196 0,-14.7548 0.4826,-18.7629 3.6932,-30.9623 5.1384,-19.5885 34.2181,-47.6209 58.70377,-61.8647 5.3543,-4.2596 14.2164,-7.9553 14.2164,-6.8707 z m 1.3462,77.9236 c 0.5842,0.1729 1.8796,0.6858 2.9566,1.0922 57.9374,20.3708 70.1075,18.9458 128.605,23.5813 11.3461,0.8128 39.4002,0.8636 45.7776,0.052 2.5146,-0.3302 4.7777,-0.4826 4.9225,-0.3556 0.4826,0.4318 -6.8783,4.6914 -12.1894,7.0765 -7.5134,3.3934 -21.5824,7.9527 -32.8753,10.7797 -10.9651,2.827 -11.5823,2.9566 -11.2191,3.2614 0.147,0.1404 5.4305,0.6096 11.8846,1.0414 11.4351,0.7366 25.0495,2.159 32.875,3.3909 12.159,1.9558 29.1363,5.0165 35.8617,6.6421 14.5847,3.4772 17.5895,2.827 28.5102,6.096 20.2184,5.9867 22.5654,6.7589 22.2098,7.2923 -0.1788,0.3048 -1.8796,0.4064 -3.8253,0.2306 -1.8796,-0.1613 -10.3403,-0.6096 -18.7553,-0.9144 -34.0967,-1.4478 -50.8488,-3.5331 -88.8642,-7.9984 -66.4136,-10.5867 -112.8031,-9.7485 -144.2734,-55.5584 -3.0429,-4.7829 -3.3909,-6.2078 -1.651,-5.6591 z"
     id="path51227"
     sodipodi:nodetypes="ccscccsccccscscccccccccccsscccccccsccccscsccccccccccccccccscscccccscccsccscscccsccccccccscccsccccccccccccsscscsccccccccsccscsccccscccccscccccccscssccccccsccccccccccccsccccccccccscccsccccccccccccsscsccccscccsccccccccccccccccccscccccc" />
</svg>
