<?xml version="1.0" encoding="UTF-8" standalone="no"?>
<svg
   width="498.898"
   height="544.252"
   viewBox="0 0 1320 1440"
   version="1.1"
   id="svg33652"
   sodipodi:docname="1_GOBETWEEN.svg"
   inkscape:version="1.2 (dc2aedaf03, 2022-05-15)"
   xmlns:inkscape="http://www.inkscape.org/namespaces/inkscape"
   xmlns:sodipodi="http://sodipodi.sourceforge.net/DTD/sodipodi-0.dtd"
   xmlns="http://www.w3.org/2000/svg"
   xmlns:svg="http://www.w3.org/2000/svg">
  <sodipodi:namedview
     id="namedview33654"
     pagecolor="#ffffff"
     bordercolor="#666666"
     borderopacity="1.0"
     inkscape:showpageshadow="2"
     inkscape:pageopacity="0.0"
     inkscape:pagecheckerboard="0"
     inkscape:deskcolor="#d1d1d1"
     showgrid="false"
     inkscape:zoom="1.3789568"
     inkscape:cx="141.77384"
     inkscape:cy="71.430811"
     inkscape:window-width="3840"
     inkscape:window-height="2036"
     inkscape:window-x="3828"
     inkscape:window-y="-12"
     inkscape:window-maximized="1"
     inkscape:current-layer="svg33652" />
  <style
     id="style33539"><![CDATA[.B{color-interpolation-filters:sRGB}]]></style>
  <defs
     id="defs33600">
    <linearGradient
       id="A"
       x1="-1430.769"
       y1="-77.47"
       x2="-1409.955"
       y2="-77.47"
       spreadMethod="reflect"
       gradientUnits="userSpaceOnUse">
      <stop
         offset="0"
         stop-color="#ffd285"
         id="stop33541" />
      <stop
         offset=".232"
         stop-color="#ffcd79"
         id="stop33543" />
      <stop
         offset=".616"
         stop-color="#ffca73"
         id="stop33545" />
      <stop
         offset=".808"
         stop-color="#ffd386"
         id="stop33547" />
      <stop
         offset="1"
         stop-color="#ffc86e"
         id="stop33549" />
    </linearGradient>
    <filter
       id="B"
       x="-0.013769729"
       y="-0.011050687"
       width="1.0275395"
       height="1.0221014"
       class="B">
      <feGaussianBlur
         stdDeviation="2.441"
         id="feGaussianBlur33552" />
    </filter>
    <linearGradient
       id="C"
       x1="-905.021"
       y1="-376.306"
       x2="-904.556"
       y2="184.159"
       gradientUnits="userSpaceOnUse">
      <stop
         offset="0"
         id="stop33555" />
      <stop
         offset=".602"
         stop-color="#fff"
         id="stop33557" />
    </linearGradient>
    <filter
       inkscape:label="Combined Lighting"
       inkscape:menu="Bevels"
       inkscape:menu-tooltip="Basic specular bevel to use for building textures"
       style="color-interpolation-filters:sRGB;"
       id="filter35008"
       x="-0.087808977"
       y="-0.03906917"
       width="1.175618"
       height="1.0781383">
      <feGaussianBlur
         stdDeviation="6"
         in="SourceGraphic"
         result="result0"
         id="feGaussianBlur34990" />
      <feDiffuseLighting
         lighting-color="rgb(255,255,255)"
         diffuseConstant="1"
         surfaceScale="4"
         result="result5"
         id="feDiffuseLighting34994">
        <feDistantLight
           elevation="45"
           azimuth="235"
           id="feDistantLight34992" />
      </feDiffuseLighting>
      <feComposite
         k1="1.4"
         in2="SourceGraphic"
         in="result5"
         result="fbSourceGraphic"
         operator="arithmetic"
         id="feComposite34996" />
      <feGaussianBlur
         result="result0"
         in="fbSourceGraphic"
         stdDeviation="6"
         id="feGaussianBlur34998" />
      <feSpecularLighting
         specularExponent="25"
         specularConstant="1"
         surfaceScale="4"
         lighting-color="rgb(255,255,255)"
         result="result1"
         in="result0"
         id="feSpecularLighting35002">
        <feDistantLight
           azimuth="279"
           elevation="45"
           id="feDistantLight35000" />
      </feSpecularLighting>
      <feComposite
         k3="1"
         k2="1"
         operator="arithmetic"
         in="fbSourceGraphic"
         in2="result1"
         result="result4"
         id="feComposite35004" />
      <feComposite
         operator="in"
         result="result2"
         in2="SourceGraphic"
         in="result4"
         id="feComposite35006" />
    </filter>
  </defs>
  <path
     style="mix-blend-mode:multiply"
     d="M-2655.488 204.013l26.181 28.949 146.334 38.515 166.935-43.817 86.005-436.932-45.894-49.39z"
     transform="matrix(-2.0051 0 0 2.0051 -4364.0778 706.82307)"
     opacity=".5"
     filter="url(#B)"
     id="path33602" />
  <path
     d="M-1220.686-332.674l-149.881 42.384-8.809 28.459-81.338 481.636 10.349 7.986h459.359l10.348-7.986-81.338-481.636-8.809-28.459z"
     fill="url(#A)"
     transform="matrix(-2.0051 0 0 -2.0051 -1787.6392 533.54186)"
     id="path33604" />
  <path
     d="M-905.021-376.306l-149.881 44.065-8.809 26.778-81.358 481.64 10.349 7.986 459.383-.004 10.349-7.986-81.343-481.636-8.809-28.601z"
     opacity=".25"
     fill="url(#C)"
     transform="matrix(-2.0051 0 0 -2.0051 -1154.6881 446.05465)"
     style="mix-blend-mode:overlay"
     id="path33606" />
  <path
     d="M199.419 97.854l.043-21.064-20.75 16.013 20.707 5.052zm778.776 960.694l-17.664-13.248L660 1126.847v16.402z"
     opacity=".4"
     id="path33608" />
  <path
     d="M341.805 1058.548l17.664-13.248L660 1126.847v16.402z"
     opacity=".6"
     id="path33610" />
  <path
     d="M341.805 1058.548l17.664-13.248-160.05-947.446-20.707-5.052z"
     opacity=".6"
     id="path33612" />
  <g
     fill="#fff"
     id="g33620">
    <path
       d="M978.195 1058.548l-17.664-13.248 160.05-947.446 20.707-5.052z"
       opacity=".3"
       id="path33614" />
    <path
       d="M1120.582 97.854l-.043-21.064 20.75 16.013-20.707 5.052z"
       opacity=".8"
       id="path33616" />
    <path
       d="M1120.582 97.854H199.419l.043-21.064h921.077l.043 21.064z"
       opacity=".3"
       id="path33618" />
  </g>
  <path
     d="M359.468 1115.896l-17.663-57.348L660 1143.25l318.195-84.702-17.663 57.348L660 1200.598l-300.532-84.702z"
     opacity=".7"
     id="path33622" />
  <path
     id="path28997"
     style="color:#000000;font-style:normal;font-variant:normal;font-weight:normal;font-stretch:normal;font-size:medium;line-height:normal;font-family:sans-serif;font-variant-ligatures:normal;font-variant-position:normal;font-variant-caps:normal;font-variant-numeric:normal;font-variant-alternates:normal;font-variant-east-asian:normal;font-feature-settings:normal;font-variation-settings:normal;text-indent:0;text-align:start;text-decoration:none;text-decoration-line:none;text-decoration-style:solid;text-decoration-color:#000000;letter-spacing:normal;word-spacing:normal;text-transform:none;writing-mode:lr-tb;direction:ltr;text-orientation:mixed;dominant-baseline:auto;baseline-shift:baseline;text-anchor:start;white-space:normal;shape-padding:0;shape-margin:0;inline-size:0;clip-rule:nonzero;display:inline;overflow:visible;visibility:visible;opacity:0.99;isolation:auto;mix-blend-mode:normal;color-interpolation:sRGB;color-interpolation-filters:linearRGB;solid-color:#000000;solid-opacity:1;fill:#000000;fill-opacity:1;fill-rule:nonzero;stroke:none;stroke-width:17.0305;stroke-linecap:butt;stroke-linejoin:round;stroke-miterlimit:4;stroke-dasharray:none;stroke-dashoffset:0;stroke-opacity:1;paint-order:stroke fill markers;color-rendering:auto;image-rendering:auto;shape-rendering:auto;text-rendering:auto;enable-background:accumulate;stop-color:#000000;filter:url(#filter35008)"
     d="m 660.3948,950.90401 c 3.81,-0.1804 6.9596,-2.8778 7.8486,-6.6015 24.6634,-105.7188 48.1991,-164.7542 152.0266,-235.77207 5.7404,-3.93954 4.6228,-12.76095 -2.032,-15.11553 -34.5796,-12.25804 -44.8107,-5.21716 -77.6884,-24.01061 -66.327,-37.9199 -49.5986,-146.81626 0,-174.14588 33.0631,-18.21687 43.1088,-11.75512 77.6884,-24.01061 6.5278,-2.3622 7.6708,-11.176 2.032,-15.11554 C 716.4425,385.11441 692.9119,326.079 668.2434,220.36018 c -1.016,-3.72364 -4.0386,-6.42112 -7.8486,-6.60146 h -0.023 c -4.0386,-0.12776 -7.62,2.6289 -8.5344,6.60146 -24.6634,105.71856 -48.2219,164.75931 -152.1383,235.77209 -5.7404,3.93446 -4.6228,12.74826 2.032,15.1003 33.3501,12.04721 43.246,6.33984 77.7341,24.10713 58.5063,30.14064 57.8078,144.41951 0,173.98357 -34.5211,17.65299 -44.384,12.05992 -77.7341,24.10713 -6.5278,2.3622 -7.6708,11.16584 -2.032,15.1003 103.9164,71.01281 127.4749,130.05351 152.1383,235.77211 1.016,3.9725 4.4958,6.731 8.5344,6.6014 z"
     sodipodi:nodetypes="scccsscccsscccsscccss" />
</svg>
