<?xml version="1.0" encoding="UTF-8" standalone="no"?>
<svg
   width="498.898"
   height="544.252"
   viewBox="0 0 1320 1440"
   version="1.1"
   id="svg65050"
   sodipodi:docname="1_KIRIN.svg"
   inkscape:version="1.2 (dc2aedaf03, 2022-05-15)"
   xmlns:inkscape="http://www.inkscape.org/namespaces/inkscape"
   xmlns:sodipodi="http://sodipodi.sourceforge.net/DTD/sodipodi-0.dtd"
   xmlns="http://www.w3.org/2000/svg"
   xmlns:svg="http://www.w3.org/2000/svg">
  <sodipodi:namedview
     id="namedview65052"
     pagecolor="#ffffff"
     bordercolor="#666666"
     borderopacity="1.0"
     inkscape:showpageshadow="2"
     inkscape:pageopacity="0.0"
     inkscape:pagecheckerboard="0"
     inkscape:deskcolor="#d1d1d1"
     showgrid="false"
     inkscape:zoom="0.48753484"
     inkscape:cx="-58.45736"
     inkscape:cy="-323.05383"
     inkscape:window-width="1916"
     inkscape:window-height="2022"
     inkscape:window-x="1910"
     inkscape:window-y="0"
     inkscape:window-maximized="0"
     inkscape:current-layer="svg65050" />
  <style
     id="style64934"><![CDATA[.B{color-interpolation-filters:sRGB}]]></style>
  <defs
     id="defs64998">
    <linearGradient
       id="A"
       x1="-1430.769"
       y1="-77.47"
       x2="-1409.955"
       y2="-77.47"
       spreadMethod="reflect"
       gradientUnits="userSpaceOnUse">
      <stop
         offset="0"
         stop-color="#ffd285"
         id="stop64936" />
      <stop
         offset=".232"
         stop-color="#ffcd79"
         id="stop64938" />
      <stop
         offset=".616"
         stop-color="#ffca73"
         id="stop64940" />
      <stop
         offset=".808"
         stop-color="#ffd386"
         id="stop64942" />
      <stop
         offset="1"
         stop-color="#ffc86e"
         id="stop64944" />
    </linearGradient>
    <filter
       id="B"
       x="-0.012166599"
       y="-0.010441906"
       width="1.0243332"
       height="1.0208838"
       class="B">
      <feGaussianBlur
         stdDeviation="2.441"
         id="feGaussianBlur64947" />
    </filter>
    <linearGradient
       id="C"
       x1="-904.556"
       y1="-406.052"
       x2="-904.556"
       y2="184.159"
       gradientUnits="userSpaceOnUse">
      <stop
         offset="0"
         id="stop64950" />
      <stop
         offset=".596"
         stop-color="#fff"
         id="stop64952" />
    </linearGradient>
    <filter
       inkscape:label="Combined Lighting"
       inkscape:menu="Bevels"
       inkscape:menu-tooltip="Basic specular bevel to use for building textures"
       style="color-interpolation-filters:sRGB;"
       id="filter71458"
       x="-0.049820535"
       y="-0.031279817"
       width="1.0996411"
       height="1.0625596">
      <feGaussianBlur
         stdDeviation="6"
         in="SourceGraphic"
         result="result0"
         id="feGaussianBlur71440" />
      <feDiffuseLighting
         lighting-color="rgb(255,255,255)"
         diffuseConstant="1"
         surfaceScale="4"
         result="result5"
         id="feDiffuseLighting71444">
        <feDistantLight
           elevation="45"
           azimuth="235"
           id="feDistantLight71442" />
      </feDiffuseLighting>
      <feComposite
         k1="1.4"
         in2="SourceGraphic"
         in="result5"
         result="fbSourceGraphic"
         operator="arithmetic"
         id="feComposite71446" />
      <feGaussianBlur
         result="result0"
         in="fbSourceGraphic"
         stdDeviation="6"
         id="feGaussianBlur71448" />
      <feSpecularLighting
         specularExponent="25"
         specularConstant="1"
         surfaceScale="4"
         lighting-color="rgb(255,255,255)"
         result="result1"
         in="result0"
         id="feSpecularLighting71452">
        <feDistantLight
           azimuth="280"
           elevation="45"
           id="feDistantLight71450" />
      </feSpecularLighting>
      <feComposite
         k3="1"
         k2="1"
         operator="arithmetic"
         in="fbSourceGraphic"
         in2="result1"
         result="result4"
         id="feComposite71454" />
      <feComposite
         operator="in"
         result="result2"
         in2="SourceGraphic"
         in="result4"
         id="feComposite71456" />
    </filter>
  </defs>
  <path
     style="mix-blend-mode:multiply"
     d="M-2681.73 217.274l26.181 28.949 172.576 56.161 193.177-61.463 89.581-450.194-45.894-49.39z"
     transform="matrix(-2.0051 0 0 2.0051 -4364.0778 706.82307)"
     opacity=".5"
     filter="url(#B)"
     id="path65000" />
  <path
     d="M-1220.686-363.581l-176.123 60.03-8.809 28.459-84.914 494.898 10.349 7.986h518.995l10.348-7.986-84.914-495.039-8.809-28.459z"
     fill="url(#A)"
     transform="matrix(-2.0051 0 0 -2.0051 -1787.6392 533.54186)"
     id="path65002" />
  <path
     d="M-905.02-407.213l-176.123 59.888-8.809 26.778-84.914 496.72 10.349 7.986h518.995l10.349-7.986-84.914-494.898-8.809-28.601z"
     opacity=".25"
     fill="url(#C)"
     transform="matrix(-2.0051 0 0 -2.0051 -1154.6881 446.05465)"
     style="mix-blend-mode:overlay"
     id="path65004" />
  <path
     d="M139.629 97.854l.043-21.064-20.75 16.013 20.707 5.052zm891.185 987.285l-17.664-13.248L660 1188.821v16.402z"
     opacity=".4"
     id="path65006" />
  <path
     d="M289.186 1085.139l17.664-13.248L660 1188.821v16.402z"
     opacity=".6"
     id="path65008" />
  <path
     d="M289.186 1085.139l17.664-13.248L139.629 97.854l-20.707-5.052z"
     opacity=".6"
     id="path65010" />
  <g
     fill="#fff"
     id="g65018">
    <path
       d="M1030.814 1085.139l-17.664-13.248 167.221-974.037 20.707-5.052z"
       opacity=".3"
       id="path65012" />
    <path
       d="M1180.371 97.854l-.043-21.064 20.75 16.013-20.707 5.052z"
       opacity=".8"
       id="path65014" />
    <path
       d="M1180.371 97.854H139.629l.043-21.064h1040.656l.043 21.064z"
       opacity=".3"
       id="path65016" />
  </g>
  <path
     d="M306.849 1142.487l-17.663-57.348L660 1205.223l370.814-120.084-17.663 57.348L660 1262.571l-353.151-120.084z"
     opacity=".7"
     id="path65020" />
  <path
     id="path4640-7"
     style="fill:#000000;fill-opacity:1;stroke:none;stroke-width:11.181;stroke-dasharray:none;filter:url(#filter71458)"
     d="m 883.46011,1063.6639 1.6753,-0.1076 v -0.018 c -3.7873,-3.6969 -8.7185,-8.3703 -16.7648,-15.5082 -10.0015,-8.8729 -21.738,-19.2735 -31.4574,-30.1747 -9.7193,-10.9119 -17.2055,-22.1367 -19.2667,-32.7088 -1.0581,-5.2774 -0.8377,-10.5725 2.1162,-15.1004 2.9011,-4.4596 8.0131,-7.9206 15.1004,-10.4733 v -0.4189 c 0.2645,-0.1071 0.7715,-0.087 1.6753,-0.4188 l 0.4189,-0.4189 h 0.8377 c 11.6549,0.5291 22.8514,6.6994 31.453,12.5764 8.6282,5.8418 15.0961,12.2457 15.927,13.0018 0.7496,0.6613 2.9034,1.5872 5.9014,2.1383 2.9958,0.529 6.426,0.5731 10.4732,0.4188 11.9283,-0.529 26.9853,-6.0269 33.1392,-11.2977 1.4991,-1.3227 2.5506,-2.5329 2.9011,-3.3243 0.3306,-0.8157 0.3967,-0.9479 0,-1.6313 -0.7716,-1.3888 -4.9313,-4.2722 -14.254,-6.2165 h -0.4188 c -34.7832,-12.098 -62.0556,-37.256 -82.6037,-52.4067 l -0.8378,1.2566 -2.9009,-3.3243 c -6.8668,-7.1314 -18.5681,-13.1517 -30.1971,-18.859 -11.6395,-5.7183 -23.4535,-11.4433 -31.861,-18.8634 l -15.0057,-14.2804 -0.022,0.018 c -16.6655,-14.9615 -39.2092,-22.5856 -61.8967,-30.9506 5.6346,18.9141 11.1281,37.6777 22.3528,55.0214 l -0.2645,0.1794 c 0.1153,0.1774 0.2204,0.3747 0.3307,0.5291 1.3226,0.3527 25.6336,6.8403 47.3699,18.8634 11.1544,6.1547 21.2706,13.7512 26.8514,23.048 5.5463,9.2962 5.6345,20.7086 -3.3463,31.8567 -13.4604,16.5928 -16.7097,30.6423 -13.8307,43.1988 2.901,12.5654 12.4308,24.1667 24.7391,33.5655 24.6061,18.8127 61.5664,29.508 79.2444,30.6098 z m -446.5438,-0.1076 2.4667,-0.4189 c 17.6686,-1.014 54.6336,-11.7915 79.2401,-30.6097 12.2985,-9.402 21.4492,-20.9907 24.3263,-33.5474 2.9011,-12.5499 0.044,-26.5977 -13.4184,-43.1989 -9.0315,-11.1435 -8.928,-22.5565 -3.3463,-31.861 5.5465,-9.2962 15.6801,-16.9081 26.8334,-23.0437 21.7357,-11.9679 46.0982,-18.5085 47.3745,-18.8634 1.2344,-1.7856 2.6452,-4.0804 4.5786,-6.9506 0.016,-0.026 0.037,-0.05 0.054,-0.076 8.7163,-15.5215 13.5462,-32.0365 18.5041,-48.6617 -20.336,7.3958 -41.6217,14.2583 -57.8736,26.2952 -0.017,0.013 -0.036,0.022 -0.054,0.036 l -19.7209,18.7642 c -8.3637,7.3915 -20.6666,13.1649 -32.2959,18.8766 -11.6395,5.7161 -22.8511,11.6813 -29.7622,18.8634 h -0.4188 l -2.9056,3.3243 -0.4187,-1.2565 c -20.5476,15.1489 -47.8199,40.3146 -82.6037,52.4066 h -0.4189 c -9.3137,1.962 -13.478,4.9005 -14.254,6.2165 -0.3968,0.6614 -0.3307,0.8157 0,1.6313 0.3307,0.8157 0.97,1.984 2.5616,3.3177 6.1614,5.2752 21.1869,10.8106 33.1168,11.3286 4.0519,0.1292 7.9273,0.062 10.912,-0.4188 2.9894,-0.5071 5.1056,-1.3888 5.8088,-2.1383 0.8377,-0.7495 7.3099,-7.041 15.9447,-13.0018 8.6282,-5.8418 19.7981,-12.0407 31.4529,-12.5808 h 0.4189 l 0.8377,0.4189 c 0.8817,0.3747 1.4108,0.3527 1.6754,0.4188 v 0.4189 c 7.0432,2.5659 11.7783,6.0269 14.6838,10.4688 2.9099,4.4596 3.5248,9.8186 2.5571,15.1005 -2.028,10.5703 -9.9839,21.7975 -19.7033,32.7086 -9.7194,10.912 -21.0215,21.2971 -31.0224,30.1748 -7.8346,6.9528 -12.9533,11.3507 -16.7824,15.1004 0.3086,0.022 0.507,0.4189 0.8376,0.4189 0.156,0 0.2866,9e-4 0.4189,0 v 0.1032 z m -42.5935,-172.1951 v -0.022 c 27.151,-1.8737 105.1791,-38.3313 124.1792,-59.9771 -7.3076,-4.7131 -21.0943,-21.4624 -27.8022,-22.1423 -38.5429,17.64 -79.5408,46.5651 -111.7828,78.1863 4.755,2.9429 10.6519,3.4675 15.4068,3.9547 z m 532.897,-0.6393 v -0.013 c 36.6494,-12.3008 -97.2875,-71.7556 -101.7367,-77.9977 -5.0197,11.2911 -31.871,19.6482 -15.2945,30.8205 14.0423,15.7397 81.2173,40.78 100.3418,46.7286 5.5463,0.1726 11.4146,-0.051 16.6876,0.463 z m -554.4338,-10.5086 c 0,0 0,-0.01 -0.01,-0.01 l -0.01,0.01 z m -0.01,-0.01 c 13.7094,-24.9002 77.7975,-68.8153 109.4864,-80.1056 -12.3074,-17.9706 -28.8347,-40.3598 -36.0186,-62.6592 -5.3699,20.6622 -7.8324,34.9007 -18.8016,45.4774 -27.9228,8.8133 -65.2748,58.876 -54.6669,97.2874 z m 575.8042,-3.9459 v -0.036 c 6.2496,-83.9429 -58.5334,-73.687 -69.0098,-92.9952 -5.5464,-5.7801 -10.4931,-25.654 -14.3928,-34.3055 -8.0109,20.5299 -17.4504,34.8793 -29.4662,51.9761 25.5399,14.5052 92.696,48.5274 105.6206,71.7367 1.4108,0.8156 5.6367,3.4698 7.2217,3.5844 z m -284.8793,-4.2744 v -0.018 c 9.3314,-0.03 18.7357,-0.5952 28.1027,-1.8738 -10.6872,-20.5343 -18.7157,-42.4859 -21.8151,-62.6054 l -1.7636,-13.769 13.7602,3.4676 c 33.8048,8.26 64.7858,23.3856 89.3043,44.7868 0,0 0.014,0 0.018,0 17.8714,-11.3198 34.1737,-26.0753 47.8723,-44.688 16.9918,-22.5554 28.7176,-44.4422 36.3774,-67.3863 -0.2204,0.215 -0.4629,0.463 -0.6833,0.6613 -17.6951,17.1793 -37.9469,26.7331 -52.4111,23.896 -12.3427,-2.566 -38.4264,-11.2184 -59.5377,-17.6091 0.4188,30.3091 7.3937,55.0751 20.5453,75.0692 l 5.9013,9.2255 c -45.7615,-20.6093 -88.4574,-58.6169 -110.2624,-94.7847 -34.9338,45.3645 -63.9959,75.9222 -110.6929,94.749 l 6.2518,-9.2256 c 13.1451,-19.992 20.1133,-44.7419 20.5453,-75.051 -21.1824,6.4259 -47.1245,15.0321 -59.5376,17.6068 -14.4656,2.8305 -34.7156,-6.7015 -52.4111,-23.9091 -1.6754,-1.5872 -3.3397,-3.2802 -4.9291,-5.0239 9.3931,39.0453 30.6357,64.8831 61.6858,94.731 9.102,8.6282 18.8391,15.9932 29.0355,22.2318 24.615,-21.6829 55.8162,-36.9094 89.8963,-45.3158 l 13.7601,-3.472 -1.7636,13.7645 c -3.0796,19.9921 -11.0223,41.8246 -21.6212,62.2644 10.0369,1.3227 20.1244,1.984 30.1434,2.1824 1.3226,0.02 2.7269,0.04 4.1399,0.036 z m 77.2712,-82.7651 0.059,-0.076 c -0.046,-0.024 -0.093,-0.048 -0.1391,-0.072 z m -0.081,-0.1481 c -11.0398,-20.2324 -13.2817,-35.9886 -12.7637,-65.3278 v -4.5874 l 4.2303,1.2565 c 22.1943,6.6332 59.489,18.3344 71.8758,20.9047 10.1339,1.9841 24.569,-2.3433 41.2526,-18.5768 15.7772,-15.3142 32.6901,-35.1767 35.4802,-61.7219 -24.2632,11.8092 -74.3586,46.2681 -120.3309,15.9227 -12.5631,-10.4689 -26.3744,-25.0623 -35.5928,-41.4991 -40.8314,-38.9388 -29.8641,-87.0445 -18.2174,-127.7628 6.955,-26.7019 18.6473,-51.4675 28.5153,-76.1769 8.8288,-37.1042 16.2203,-42.0117 8.2799,-54.5369 -15.6714,-18.4886 -21.35,-28.4231 -44.6701,-21.76 -19.5005,0.5291 -49.7533,37.8467 -17.7701,45.1769 13.7867,8.5378 31.817,10.5372 18.3388,28.5332 -10.9693,6.9527 -29.6334,-5.8418 -42.2931,-6.6332 -14.6154,-0.2866 -23.9981,9.1793 -36.5522,6.6949 -13.7955,-6.8404 1.6753,-22.5984 18.7554,-28.4391 20.9003,-3.8952 14.8645,-25.1506 1.3227,-35.6284 -13.6809,-14.1568 -41.5878,-11.2999 -54.8285,-2.9054 -27.9166,37.6738 -5.725,48.4165 -4.2303,58.5107 5.9872,25.3133 19.5974,46.9089 26.6316,71.934 14.8954,45.754 36.3856,108.6331 -14.9572,145.6756 -8.1873,12.3603 -26.0231,32.2259 -35.6284,38.7589 -45.9643,30.3318 -96.0832,-4.1465 -120.3445,-15.9204 2.8172,26.5322 16.4694,44.3849 32.2377,59.6991 16.6832,16.2026 32.3574,22.5997 42.4903,20.6049 12.3955,-2.566 49.2651,-15.5215 71.4677,-22.1017 l 4.2301,-1.2565 v 4.583 c 0.5292,29.4039 0.3748,42.7146 -9.0094,63.601 29.8238,-25.2455 57.7759,-47.6962 78.7197,-84.6669 l 2.901,-5.4626 2.9011,5.4626 c 25.3976,36.769 44.8006,71.0542 77.5627,87.6493 z M 516.04271,672.6989 c 0.1812,-9e-4 0.3747,-0.015 0.5511,-0.018 0.3748,0 0.7715,-0.01 1.1463,-0.018 6.6905,-21.8152 35.0835,-69.445 56.3356,-67.4894 8.3637,4.5852 30.804,19.9193 28.0309,-16.9676 4.4904,-56.2186 -18.0281,-107.881 -38.3104,-156.296 -45.6825,133.0069 -60.7559,96.6584 -83.7161,136.0374 -13.4779,23.793 -32.8278,16.11 -27.2191,85.8464 24.7038,14.3994 40.1533,19.0398 63.193,18.8943 z m 287.7049,-0.013 h 0.01 c 23.4882,-0.4189 46.2029,-11.2206 63.5113,-20.0031 8.54,-51.3384 -19.0001,-79.5032 -33.0676,-93.8879 -8.9786,-13.3787 -49.0375,-16.9521 -76.8046,-132.0592 -13.7602,39.2525 -33.2615,76.441 -38.5616,119.4474 -1.3227,20.2081 -9.7547,76.5601 18.5591,60.0087 25.8564,-4.0827 51.5143,38.9921 65.7582,66.4983 h 0.054 c 0.1849,0 0.3747,0 0.5512,0 z m 66.7047,-82.6216 -0.01,-0.013 c 0,0 -0.01,0.01 -0.01,0.013 z m -0.01,-0.013 c 18.7465,-36.0977 21.7335,-78.4841 21.7424,-122.0804 -14.5869,-72.1992 -55.0479,-126.4169 -102.768,-175.5766 18.7003,32.4068 25.6376,64.8167 25.0303,97.2202 -23.6025,-101.0436 -89.3067,-173.9765 -154.5064,-246.6721 v 0.2065 l -0.018,-0.2065 c -65.2006,72.6926 -130.9029,145.6285 -154.5064,246.6721 -0.6172,-32.407 6.3443,-64.8173 25.0393,-97.2202 -47.7162,49.1586 -88.1856,103.3747 -102.777,175.5766 0,43.6056 2.9915,86.0012 21.7557,122.0938 9.2961,-25.0078 16.6919,-36.8163 43.024,-63.9508 31.3586,-24.453 38.0908,-51.7616 47.1323,-79.9487 7.0432,-21.8614 7.4819,-28.3649 14.966,-60.8159 0.8817,-19.5291 18.9714,-40.8423 36.0948,-51.967 13.3897,-30.9805 42.6829,-41.9584 69.279,-43.5039 l 0.013,-0.013 v 0.013 c 26.6047,1.5872 56.4173,12.5167 69.808,43.5039 17.1242,11.1302 34.3441,32.4451 35.2159,51.967 7.4841,32.4558 7.9184,38.9624 14.9616,60.8159 9.0316,28.1847 16.1321,55.4926 47.4911,79.9487 26.3271,27.1234 33.7247,38.9329 43.0195,63.9374 z M 659.53331,379.743 c 10.5857,-24.781 35.8644,-38.807 58.995,-34.2154 -14.1569,-27.6908 -45.682,-32.4186 -70.5528,-29.3586 -14.6573,-0.095 -41.1304,18.7311 -47.5136,29.7621 21.1978,-1.984 49.0863,10.8701 59.0714,33.8119 z" />
</svg>
