<?xml version="1.0" encoding="UTF-8" standalone="no"?>
<svg
   width="498.898"
   height="544.252"
   viewBox="0 0 1320 1440"
   version="1.1"
   id="svg53641"
   sodipodi:docname="1_LEOPARD.svg"
   inkscape:version="1.2 (dc2aedaf03, 2022-05-15)"
   xmlns:inkscape="http://www.inkscape.org/namespaces/inkscape"
   xmlns:sodipodi="http://sodipodi.sourceforge.net/DTD/sodipodi-0.dtd"
   xmlns="http://www.w3.org/2000/svg"
   xmlns:svg="http://www.w3.org/2000/svg">
  <sodipodi:namedview
     id="namedview53643"
     pagecolor="#ffffff"
     bordercolor="#666666"
     borderopacity="1.0"
     inkscape:showpageshadow="2"
     inkscape:pageopacity="0.0"
     inkscape:pagecheckerboard="0"
     inkscape:deskcolor="#d1d1d1"
     showgrid="false"
     inkscape:zoom="0.34473919"
     inkscape:cx="410.45522"
     inkscape:cy="-29.007436"
     inkscape:window-width="1916"
     inkscape:window-height="2022"
     inkscape:window-x="1900"
     inkscape:window-y="0"
     inkscape:window-maximized="0"
     inkscape:current-layer="svg53641" />
  <style
     id="style53550"><![CDATA[.B{color-interpolation-filters:sRGB}]]></style>
  <defs
     id="defs53599">
    <linearGradient
       id="A"
       x1="-1430.769"
       y1="-77.47"
       x2="-1409.955"
       y2="-77.47"
       spreadMethod="reflect"
       gradientUnits="userSpaceOnUse">
      <stop
         offset="0"
         stop-color="#ffd285"
         id="stop53552" />
      <stop
         offset=".232"
         stop-color="#ffcd79"
         id="stop53554" />
      <stop
         offset=".616"
         stop-color="#ffca73"
         id="stop53556" />
      <stop
         offset=".808"
         stop-color="#ffd386"
         id="stop53558" />
      <stop
         offset="1"
         stop-color="#ffc86e"
         id="stop53560" />
    </linearGradient>
    <filter
       id="B"
       x="-0.013119982"
       y="-0.01088309"
       width="1.02624"
       height="1.0217662"
       class="B">
      <feGaussianBlur
         stdDeviation="2.441"
         id="feGaussianBlur53563" />
    </filter>
    <linearGradient
       id="C"
       x1="-905.02"
       y1="-384.47"
       x2="-904.556"
       y2="184.159"
       gradientUnits="userSpaceOnUse">
      <stop
         offset="0"
         id="stop53566" />
      <stop
         offset=".603"
         stop-color="#fff"
         id="stop53568" />
    </linearGradient>
    <filter
       inkscape:label="Combined Lighting"
       inkscape:menu="Bevels"
       inkscape:menu-tooltip="Basic specular bevel to use for building textures"
       style="color-interpolation-filters:sRGB;"
       id="filter5809"
       x="-0.043989355"
       y="-0.042548285"
       width="1.0879787"
       height="1.0850966">
      <feGaussianBlur
         stdDeviation="6"
         in="SourceGraphic"
         result="result0"
         id="feGaussianBlur5791" />
      <feDiffuseLighting
         lighting-color="rgb(255,255,255)"
         diffuseConstant="1"
         surfaceScale="4"
         result="result5"
         id="feDiffuseLighting5795">
        <feDistantLight
           elevation="45"
           azimuth="235"
           id="feDistantLight5793" />
      </feDiffuseLighting>
      <feComposite
         k1="1.4"
         in2="SourceGraphic"
         in="result5"
         result="fbSourceGraphic"
         operator="arithmetic"
         id="feComposite5797" />
      <feGaussianBlur
         result="result0"
         in="fbSourceGraphic"
         stdDeviation="6"
         id="feGaussianBlur5799" />
      <feSpecularLighting
         specularExponent="25"
         specularConstant="1"
         surfaceScale="4"
         lighting-color="rgb(255,255,255)"
         result="result1"
         in="result0"
         id="feSpecularLighting5803">
        <feDistantLight
           azimuth="280"
           elevation="45"
           id="feDistantLight5801" />
      </feSpecularLighting>
      <feComposite
         k3="1"
         k2="1"
         operator="arithmetic"
         in="fbSourceGraphic"
         in2="result1"
         result="result4"
         id="feComposite5805" />
      <feComposite
         operator="in"
         result="result2"
         in2="SourceGraphic"
         in="result4"
         id="feComposite5807" />
    </filter>
  </defs>
  <path
     style="mix-blend-mode:multiply"
     d="M-2659.569 204.596l26.181 28.949 150.416 46.096 171.017-51.398 98.911-437.515-45.894-49.39z"
     transform="matrix(-2.0051 0 0 2.0051 -4364.0778 706.82307)"
     opacity=".5"
     filter="url(#B)"
     id="path53601" />
  <path
     d="M-1220.686-340.838l-153.963 49.823-8.809 28.459-94.245 482.361 10.349 7.986h493.336l10.348-7.986-94.244-482.361-8.809-28.459z"
     fill="url(#A)"
     transform="matrix(-2.0051 0 0 -2.0051 -1787.6392 533.54186)"
     id="path53603" />
  <path
     d="M-905.02-384.47l-153.963 49.823-8.809 26.778-94.245 484.042 10.349 7.986h493.336l10.349-7.986-94.244-482.219-8.809-28.601z"
     opacity=".25"
     fill="url(#C)"
     transform="matrix(-2.0051 0 0 -2.0051 -1154.6881 446.05465)"
     style="mix-blend-mode:overlay"
     id="path53605" />
  <path
     d="M165.355 97.854l.043-21.064-20.75 16.013 20.707 5.052zm821.025 961.863l-17.664-13.248L660 1143.218v16.402z"
     opacity=".4"
     id="path53607" />
  <path
     d="M333.62 1059.717l17.664-13.248L660 1143.218v16.402z"
     opacity=".6"
     id="path53609" />
  <path
     d="M333.62 1059.717l17.664-13.248L165.355 97.854l-20.707-5.052z"
     opacity=".6"
     id="path53611" />
  <g
     fill="#fff"
     id="g53619">
    <path
       d="M986.38 1059.717l-17.664-13.248 185.93-948.615 20.707-5.052z"
       opacity=".3"
       id="path53613" />
    <path
       d="M1154.646 97.854l-.043-21.064 20.75 16.013-20.707 5.052z"
       opacity=".8"
       id="path53615" />
    <path
       d="M1154.646 97.854H165.355l.043-21.064h989.205l.043 21.064z"
       opacity=".3"
       id="path53617" />
  </g>
  <path
     d="M351.283 1117.065l-17.663-57.348L660 1159.62l326.38-99.903-17.663 57.348L660 1216.968l-308.717-99.903z"
     opacity=".7"
     id="path53621" />
  <path
     id="path4640-0"
     style="fill:#000000;stroke-width:0.522023;filter:url(#filter5809)"
     d="m 950.83146,840.79214 c 6.797,0.0112 7.7089,-0.2192 10.165,-1.1176 1.8288,-0.6604 3.2436,-1.4478 3.142,-1.6002 -0.1826,-0.5842 -1.4224,-1.2192 -6.6954,-3.73888 -6.3907,-3.04292 -20.8763,-11.43507 -20.8763,-12.13357 0,-0.13818 0.254,-0.0925 0.5842,0.11125 0.381,0.23419 0.4572,0.13995 0.2202,-0.23521 -0.2039,-0.3556 -0.5842,-0.4826 -0.8382,-0.3302 -0.6858,0.4318 -4.6685,-2.43839 -4.3637,-3.04291 0.1875,-0.3302 0.076,-0.4064 -0.2794,-0.1712 -13.41711,-9.20895 -26.1398,-20.26441 -36.9824,-32.50462 -4.1605,-4.65836 -4.7701,-5.68198 -4.3637,-6.1849 0.2027,-0.2192 0.1085,-0.24968 -0.2375,-0.064 -0.7112,0.40639 -2.9387,-2.4384 -2.3368,-3.04292 0.204,-0.23419 0.1095,-0.2794 -0.2029,-0.0866 -0.762,0.4318 -4.0615,-3.65252 -3.5484,-4.36626 0.2192,-0.3556 0.14,-0.4318 -0.2039,-0.24942 -0.6858,0.4318 -2.3368,-1.7526 -1.8288,-2.4384 0.1727,-0.2794 0.062,-0.3556 -0.2363,-0.17272 -0.3048,0.1877 -1.3208,-0.8128 -2.2352,-2.3368 l -1.7272,-2.73812 -1.9304,1.8288 c -1.016,0.9906 -2.1336,1.6002 -2.3368,1.524 -0.2423,-0.2192 -0.2794,-0.12497 -0.098,0.20396 0.1918,0.3556 -0.508,1.2954 -1.6256,2.2098 -1.1176,0.8636 -2.7355,2.4384 -3.7566,3.43408 -7.73155,3.69223 -10.20305,10.53384 -17.8595,13.60931 -0.3556,-0.23571 -0.4826,-0.15646 -0.254,0.17221 0.1877,0.3302 -0.4826,1.1176 -1.524,1.6002 -0.9906,0.6604 -1.8288,1.2192 -1.8288,1.2954 0,0.24943 6.3906,6.4897 6.6954,6.4897 18.06191,17.12966 42.62861,33.14257 65.8594,41.33264 7.16621,1.82555 14.75065,2.30718 22.3672,2.397 3.8557,0.0434 6.797,0.0762 9.0271,0.0805 z m -583.072,-4.17322 c 6.9977,-10e-4 11.3716,-0.6604 18.928,-2.65176 9.7384,-2.5146 23.1496,-8.42009 32.8559,-14.46529 15.78253,-11.39477 26.95249,-19.72205 40.0563,-29.96869 0.254,0 3.9599,-3.65252 3.9599,-3.86842 0,-0.0787 -1.8288,-1.52399 -3.9599,-3.12927 -2.3368,-1.7526 -3.7566,-3.26136 -3.5509,-3.56362 0.204,-0.3302 0.126,-0.4318 -0.1714,-0.24968 -0.6858,0.4318 -2.8423,-1.4478 -2.3368,-2.0574 0.2192,-0.23445 0.1249,-0.2794 -0.1885,-0.0953 -0.762,0.4318 -14.4246,-12.07262 -13.9776,-12.80414 0.1885,-0.3302 0.1105,-0.4318 -0.1715,-0.24943 -0.2794,0.17247 -1.6256,-0.8128 -2.9464,-2.20979 l -2.4384,-2.65176 -1.4224,1.6002 c -0.7874,0.9144 -3.1419,3.95477 -5.2755,6.79449 -2.1336,2.73812 -4.0615,4.96316 -4.2571,4.77012 -0.254,-0.17272 -0.4318,-0.10033 -0.3556,0.13386 0.1966,0.6096 -1.4224,2.82702 -1.8288,2.5146 -0.1897,-0.13513 -0.2303,-0.10262 -0.089,0.0861 -20.53069,22.67055 -41.04867,40.93793 -67.0845,54.01591 l -7.0992,3.56362 2.1336,0.8636 c 4.9656,2.1082 10.8026,3.26136 17.7723,3.26136 0.4826,0.005 0.9652,0.006 1.4224,0.006 z m 290.8664,-4.66852 c 9.332,0.001 18.6538,-0.17246 24.031,-0.5334 25.0443,-1.6002 50.567,-5.47877 70.1143,-10.67307 12.199,-2.54062 24.93032,-7.48901 35.8222,-11.72464 8.9255,-3.43408 23.7464,-10.71117 32.8863,-15.96897 2.8398,-1.6002 5.682,-3.26136 6.2891,-3.56362 5.48437,-3.2324 10.365,-6.76784 15.4228,-10.37843 11.0262,-8.7249 15.1562,-12.12088 16.6751,-13.7033 0.9906,-0.9906 1.9304,-1.9304 2.1336,-1.9304 0.1725,0 3.6576,-3.34772 7.8105,-7.50823 6.69201,-5.54751 9.85673,-9.74295 15.0541,-16.12646 1.2192,-1.6002 2.54,-2.82702 2.8397,-2.65176 0.3048,0.18771 0.4318,0.1298 0.254,-0.1369 8.23533,-11.21172 14.23355,-20.2711 20.285,-30.60496 16.05623,-28.08494 26.02629,-59.06849 31.6789,-89.30306 4.7701,-26.01035 6.4922,-52.3857 5.6819,-87.56163 -0.6096,-25.65831 -2.1336,-44.91658 -4.7701,-62.38822 -3.99894,-24.46615 -10.37749,-51.17528 -22.0878,-71.58606 -1.016,-1.8288 -1.7272,-3.56362 -1.524,-3.82523 0.1877,-0.3302 0.1552,-0.4318 -0.08,-0.21997 -4.12949,-4.16138 -6.99459,-9.8227 -11.1531,-14.64563 -0.381,-0.381 -0.508,-0.9398 -0.3302,-1.2192 -0.80428,-0.34046 -2.12866,-2.40279 -2.553,-3.26339 0.2192,-0.20447 0.1115,-0.3048 -0.2334,-0.20447 -11.00655,-10.9163 -20.39709,-19.9181 -33.6931,-28.4167 -0.8382,-0.5334 -1.8288,-1.0922 -2.1336,-1.4478 -0.8636,-0.7366 -12.9845,-8.8189 -13.2283,-8.8189 -9.34761,-6.1197 -19.9335,-12.6066 -29.6647,-19.3268 -0.2794,-0.2187 -1.2192,-0.9906 -2.1336,-1.7526 -0.9144,-0.7366 -1.8288,-1.2954 -2.1336,-1.2954 -0.2794,0 -1.1176,-0.5842 -1.8288,-1.2192 -0.7112,-0.6858 -1.7272,-1.4478 -2.2352,-1.6002 -0.508,-0.188 -0.7112,-0.6096 -0.508,-0.9398 0.2345,-0.381 0.1562,-0.4826 -0.2037,-0.2494 -0.762,0.4826 -12.7101,-8.5217 -12.2733,-9.2279 0.1878,-0.3048 0.077,-0.381 -0.2364,-0.1874 -0.3048,0.1874 -1.3208,-0.3302 -2.3368,-1.0922 -0.9398,-0.762 -2.8397,-2.286 -4.1605,-3.3477 l -2.4384,-1.9558 -1.4224,4.2595 c -1.7272,5.0648 -4.567,11.6028 -6.6955,15.2324 -2.54,4.2596 -17.1424,33.4749 -19.8628,39.67 -2.1577,4.8121 -4.4724,10.0432 -6.2915,14.61254 -1.016,2.60858 -2.2352,5.49909 -2.634,6.29665 -1.2192,2.60858 -5.8852,16.08836 -8.3185,23.94203 -4.0615,13.13688 -7.0993,25.94076 -8.6208,36.54856 -0.3302,2.28599 -0.8382,5.57275 -1.1176,7.30757 -1.3208,8.11276 -1.1176,31.19246 0.381,40.97857 0.8636,5.71753 4.4653,19.24811 5.7836,21.47569 0.1016,0.1717 1.7272,-0.23521 3.5509,-0.9398 4.6685,-1.6002 12.7407,-3.60934 17.6708,-4.34848 12.7203,-1.7526 28.9301,0.3556 40.6364,5.2832 8.52446,3.42501 14.68858,6.92035 21.8338,11.72971 11.1684,8.51662 20.7747,17.90699 29.9954,28.46653 0,0.23419 0.1725,0.6096 0.381,0.8636 0.9652,0.9398 0.3302,3.82524 -1.1176,5.35432 -11.1684,9.32942 -19.1109,12.05991 -28.2913,14.78533 -3.9598,1.0922 -14.7091,1.7526 -20.0558,1.0922 -8.7224,-0.9398 -9.2304,-1.0922 -13.8049,-2.2606 -8.1153,-2.0574 -21.0083,-7.70889 -24.0411,-10.50289 -0.5842,-0.5334 -1.016,-0.8636 -1.016,-0.6604 0,0.4318 -8.0137,-5.7912 -11.3208,-8.81888 -1.524,-1.4478 -2.6339,-2.73812 -2.4384,-3.04292 0.1949,-0.3302 0.1169,-0.4318 -0.1491,-0.24942 -6.34332,-5.77738 -9.12539,-10.37631 -12.9214,-15.13963 -0.8636,-1.2954 -2.1336,-3.26136 -2.7356,-4.34848 -4.1605,-6.29665 -9.7384,-21.43759 -11.9177,-32.13606 -2.1336,-10.33526 -2.634,-15.94612 -2.54,-28.67532 0.058,-19.45385 2.7356,-36.50512 9.5352,-60.30338 3.2435,-11.26998 8.7223,-27.07563 12.2529,-35.21834 0.381,-0.8636 1.3208,-3.2614 2.2352,-5.2832 7.00271,-16.9374 16.92392,-36.6008 24.9365,-50.3783 0.2202,0.2184 0.3302,0.1542 0.2519,-0.128 -0.2794,-0.9398 0.6604,-2.827 1.2192,-2.5146 0.3302,0.2027 0.4318,0.1084 0.204,-0.2352 0.24142,-2.4575 1.71305,-4.7595 2.6416,-7.0815 2.8397,-6.2967 4.6685,-15.5805 4.8717,-24.5594 0.1257,-4.6304 0.034,-5.5727 -0.635,-5.5727 -2.1336,0 -30.6143,-2.7381 -40.5247,-3.8253 -12.446,-1.4478 -13.7236,-1.9558 -14.8005,-5.1384 -0.8128,-2.5146 0.3556,-5.1384 2.8397,-6.3678 1.7272,-0.8635 2.4384,-0.7619 13.9878,0.5334 6.6954,0.7366 17.5691,1.8288 24.1731,2.4638 6.5939,0.6096 12.2936,1.0922 12.6391,1.2954 0.9144,0.3302 1.3208,-0.6096 0.7112,-1.6002 -0.2794,-0.5334 -1.016,-2.6085 -1.6256,-4.5592 -0.635,-2.0574 -1.4224,-4.0005 -1.6256,-4.3485 -0.2794,-0.3556 -0.381,-0.6604 -0.1877,-0.6604 0.4572,0 -2.54,-5.8649 -5.0724,-9.8425 l -2.1336,-3.2614 -3.4519,0.3048 c -8.5217,0.7366 -19.9009,1.4478 -21.9303,1.2192 -1.8288,-0.1044 -2.54,-0.4826 -3.7567,-1.8288 -2.4384,-2.7381 -1.8288,-6.6599 1.2192,-8.3159 1.3208,-0.6858 10.315,-1.6002 15.6921,-1.7526 1.2192,-0.016 1.4224,-0.1418 0.8636,-0.762 -0.3556,-0.4318 -1.8288,-1.524 -3.3426,-2.4638 -1.524,-0.9398 -3.2436,-2.0828 -3.9599,-2.7382 -0.7874,-0.6858 -1.1176,-0.762 -0.8636,-0.3048 0.3556,0.6858 0.3048,0.6858 -0.3048,0 -0.381,-0.4318 -0.9144,-0.8636 -1.2192,-0.9398 -0.2794,-0.071 -3.2435,-1.0922 -6.6954,-2.2606 -3.3426,-1.0922 -7.7089,-2.286 -9.6368,-2.5146 -14.2722,-1.8288 -31.1825,1.0922 -42.2285,7.3076 -1.524,0.8636 -2.8397,1.2954 -3.0378,1.0922 -0.1694,-0.1719 -0.3048,-0.045 -0.3048,0.2794 0,0.3302 -1.2192,1.2954 -2.7356,2.2606 -4.2646,2.6086 -13.0657,12.3774 -16.383,18.2118 -2.7432,4.7778 -4.8717,9.7435 -4.8717,11.1735 0,0.4064 2.54,1.8288 5.682,3.1292 9.7383,4.2596 26.6888,14.092 26.6888,15.5601 0,0.3302 0.1562,0.4064 0.3302,0.2352 0.4318,-0.4318 6.289,4.3485 6.0858,4.9936 -0.079,0.2794 0.032,0.381 0.254,0.2352 0.8636,-0.5334 8.7224,8.316 8.1153,9.1237 -0.1887,0.3302 -0.1097,0.4318 0.1877,0.2347 0.6858,-0.4318 3.4519,4.7804 4.5669,8.5167 1.524,5.0647 0.9144,13.18 -1.2192,17.78 -1.2192,2.6086 -1.9304,3.6068 -2.4384,3.2613 -0.2415,-0.2194 -0.2415,-0.08 -0.022,0.3302 0.2794,0.4826 -0.5334,1.6002 -2.54,3.5637 -1.6256,1.524 -3.142,2.7381 -3.3427,2.7381 -0.1978,-0.063 -1.3208,0.4318 -2.54,1.0922 -1.2192,0.6604 -4.2646,1.6002 -6.797,2.286 -4.5669,1.0922 -5.0724,1.0922 -38.7797,1.0922 -31.2938,0 -34.5501,-0.079 -38.3738,-0.9398 -4.8717,-1.0922 -11.3512,-3.8253 -10.8635,-4.6355 0.1724,-0.3048 0.08,-0.381 -0.2332,-0.1875 -0.3048,0.1875 -1.6256,-0.7366 -2.9464,-2.0574 -1.3208,-1.2954 -2.2352,-2.6085 -2.032,-2.9565 0.1877,-0.3048 0.1095,-0.4064 -0.1725,-0.2347 -0.635,0.4064 -3.142,-4.7778 -3.8557,-8.0112 -0.7874,-3.5636 -0.635,-9.6342 0.3048,-12.9032 2.634,-9.0247 10.3149,-17.8435 23.18,-26.4757 6.0859,-4.0437 19.6799,-11.3183 25.9685,-13.8379 0.9144,-0.381 1.7272,-0.8636 1.7272,-1.0922 0,-0.762 -3.142,-8.316 -3.9599,-9.6444 -0.4572,-0.6858 -0.6604,-1.524 -0.4318,-1.9558 0.2352,-0.4064 0.156,-0.4826 -0.2192,-0.2494 -0.3302,0.2034 -0.5842,0.1447 -0.5842,-0.1217 0,-0.2794 -1.016,-2.0574 -2.3368,-3.8253 -1.3208,-1.8288 -2.1336,-3.5636 -1.9304,-3.782 0.203,-0.2045 0.1257,-0.3048 -0.1562,-0.2045 -0.7366,0.2362 -7.0993,-6.5862 -6.6954,-7.0917 0.2037,-0.2352 0.1247,-0.2794 -0.204,-0.096 -0.3302,0.1885 -1.2192,-0.2494 -2.032,-0.9398 -0.762,-0.7366 -1.524,-1.2954 -1.6256,-1.2954 -0.1278,0 -1.3208,-0.762 -2.7432,-1.7526 -5.8852,-4.13 -14.9835,-7.8079 -23.8887,-9.5326 -3.4518,-0.6858 -7.2009,-0.9398 -14.0995,-0.9398 -8.5217,0.017 -9.84,0.1423 -14.3536,1.4478 -7.2009,2.0574 -10.3149,3.2614 -15.052,6.0757 -2.3368,1.4478 -4.3637,2.4638 -4.5669,2.0828 -0.1989,-0.1872 -0.2159,-0.061 -0.028,0.2794 0.1875,0.3302 -0.014,0.7366 -0.4318,0.8636 -0.4318,0.1717 -0.7874,0.6096 -0.7874,0.9398 0,0.5334 1.9304,0.6858 8.0137,0.8636 8.9256,0.1725 11.1074,0.6096 13.1064,2.4638 3.3426,3.1293 0.4572,9.1237 -4.4653,9.1237 -3.2436,0 -25.5829,-1.524 -26.3741,-1.8288 -0.6096,-0.2197 -3.2512,2.0828 -3.2512,2.9565 0,0.2032 -0.3048,0.6858 -0.6604,1.0922 -2.1336,2.1082 -9.332,19.9111 -8.3185,20.4597 0.7112,0.4064 32.785,-2.6086 50.0494,-4.6304 1.7272,-0.2037 3.3426,-0.079 4.2647,0.3302 1.6256,0.6858 3.6576,3.3477 3.6576,4.9962 0,1.6002 -1.524,4.0005 -3.142,4.7777 -2.2352,1.0922 -23.5534,3.6094 -48.4469,5.5728 l -8.0137,0.6604 0.092,6.0096 c 0.047,3.7821 0.508,8.0112 1.2192,11.2192 0.5842,2.8271 1.1176,5.5728 1.2192,6.0097 1.59025,5.3021 4.20628,10.4048 6.4465,14.7879 2.032,3.8252 3.5509,7.0942 3.3426,7.0942 -0.2189,0 -0.1409,0.1882 0.1562,0.4064 5.35466,8.0632 8.84752,16.4989 13.5685,25.8877 0.4318,0.8636 0.635,1.7526 0.4826,1.9558 -0.1563,0.2494 -0.078,0.4826 0.1887,0.4826 3.51383,6.639 6.51977,13.2657 9.0348,20.3783 0.078,0.4318 0.3048,0.9398 0.4826,1.0922 1.016,0.8636 8.9255,22.80666 11.9379,33.41421 7.5057,26.00628 10.1423,42.23078 10.1423,62.90231 0.025,19.22525 -2.54,33.39235 -8.824,48.72327 -3.3528,8.11276 -9.5352,18.76805 -10.3962,17.97303 -0.2365,-0.20345 -0.2794,-0.14147 -0.1146,0.17196 0.508,0.8636 -2.9387,5.4991 -8.7223,11.65098 -4.3637,4.63041 -12.761,11.63827 -13.4417,11.21155 -0.3048,-0.1872 -0.4318,-0.12878 -0.2487,0.15342 0.4572,0.7366 -7.7089,5.71753 -14.1097,8.51661 -10.6298,4.77774 -20.7949,6.8707 -32.501,7.02056 -8.1153,0.0302 -14.638,-0.762 -16.5964,-2.1082 -11.9989,-5.57276 -16.322,-7.02056 -22.7838,-13.06321 -1.8288,-2.286 -3.7465,-3.12928 -3.5509,-6.07822 0.078,-1.0922 3.1445,-4.99364 3.8507,-4.77774 0.2794,0.0785 0.3556,-0.10998 0.1724,-0.4064 -0.1856,-0.3048 2.9464,-3.78206 6.9037,-7.70889 8.7224,-8.71982 12.1133,-11.67384 12.8321,-11.21664 0.3048,0.18821 0.4064,0.10668 0.2362,-0.1712 -0.2794,-0.4318 1.016,-1.6002 6.6955,-5.71753 2.7356,-1.9558 10.7213,-6.58622 14.8513,-8.62076 7.9121,-3.82524 18.7249,-7.09168 27.51,-8.31596 7.6073,-0.9906 19.972,-0.3556 27.9568,1.524 3.6576,0.8636 7.7089,2.0574 9.0271,2.60858 1.3208,0.5842 2.634,0.9398 2.8397,0.762 0.6096,-0.381 3.3528,-8.92555 4.567,-14.59991 1.7272,-7.70636 2.2352,-11.94308 2.54,-24.27477 0.4064,-16.08835 -1.1176,-29.67963 -5.2756,-48.02884 -3.9599,-17.32279 -12.4054,-41.68722 -20.8763,-60.27441 -1.016,-2.2606 -1.7272,-4.3484 -1.524,-4.6304 0.1928,-0.3302 0.1494,-0.4318 -0.086,-0.2045 -0.3302,0.3048 -2.032,-2.6085 -2.3368,-4.0436 -3.56525,-7.3476 -6.56316,-13.1321 -10.1447,-21.0134 -0.015,-0.3556 -0.1877,-0.6604 -0.381,-0.6604 -0.1938,0 -1.2192,-1.6002 -2.2352,-3.5637 -1.016,-1.9558 -3.142,-6.0096 -4.8717,-9.0246 -3.1446,-5.8598 -5.9868,-12.3825 -7.3025,-17.0027 -0.4572,-1.524 -1.016,-2.827 -1.3208,-2.827 -0.3048,0 -2.1336,1.2954 -4.0615,3.0429 -4.3637,3.6093 -16.0782,12.6593 -16.5354,12.6593 -0.1847,0 -1.016,0.6096 -2.032,1.2954 -2.4384,2.0574 -2.3368,1.8288 -7.8105,5.7176 -2.8397,2.0574 -5.4788,3.5636 -5.8852,3.5636 -0.4064,0 -0.6096,0.1079 -0.4826,0.2352 0.2794,0.2794 -4.6685,3.782 -5.3695,3.782 -0.2794,0 -0.5588,0.2043 -0.6604,0.4318 -0.2474,0.6604 -13.6144,9.1237 -14.3942,9.1237 -0.3556,0 -0.5334,0.1258 -0.381,0.2794 0.141,0.141 -0.2009,0.5334 -0.7366,0.8636 -19.94572,13.465 -38.18016,23.9467 -51.8106,41.89725 -1.2192,1.2954 -2.8423,3.26136 -3.4443,4.13003 -0.635,0.9398 -1.4224,1.524 -1.7272,1.2954 -0.3048,-0.18821 -0.4318,-0.10998 -0.2332,0.18746 0.1817,0.3048 -0.5842,1.8288 -1.7272,3.34771 -11.3106,15.60322 -20.0939,36.50055 -25.9575,61.79411 -2.7355,11.76782 -5.8851,34.64026 -7.2009,51.41593 -3.1419,40.99152 -2.3368,77.70212 2.2352,108.84429 0.762,5.13842 1.4224,9.93647 1.4224,10.70355 0.032,0.7366 0.1674,1.4478 0.3048,1.6002 0.156,0.14428 0.8382,3.04292 1.524,6.51256 5.776,28.90163 17.2136,59.94931 30.5331,82.6823 3.22062,7.01764 8.36752,12.8988 11.9431,19.55799 -0.1725,0.18771 -0.077,0.3302 0.2362,0.3302 0.3048,0 1.8288,1.6002 3.3528,3.73888 3.4442,4.65836 7.9121,10.23365 10.7518,13.36801 0.635,0.7366 1.016,1.524 0.8382,1.8288 -0.1712,0.2794 -0.093,0.381 0.2042,0.20295 0.7112,-0.4318 4.4653,3.73888 3.9599,4.46532 -0.1969,0.3556 -0.1646,0.4318 0.07,0.2352 0.2291,-0.20396 3.8507,2.95656 8.0137,7.00024 4.1555,4.04368 9.84,9.23035 12.5883,11.54175 2.7355,2.2098 4.8717,4.36626 4.8717,4.66852 -0.063,0.24943 0.045,0.4064 0.254,0.3302 0.8128,-0.2794 4.257,2.3368 3.9598,2.95656 -0.1846,0.3302 -0.1552,0.4318 0.08,0.21895 11.88609,6.62774 20.61441,13.93863 32.6161,20.21077 14.54319,8.18058 30.45614,14.09843 48.0835,19.73906 24.478,7.6073 53.2345,12.57554 83.5243,14.43227 5.4788,0.3556 14.9225,0.5334 24.2646,0.5334 z m 315.8022,-2.1082 c 0.6604,-0.12776 2.54,-4.25957 3.4518,-7.50823 1.9304,-7.0993 1.8288,-19.41576 -0.3048,-29.6014 -0.381,-1.9304 -0.8128,-4.04368 -0.9652,-4.77012 -0.4826,-2.65176 -2.54,-9.73836 -5.174,-17.40661 -5.64154,-25.83809 -19.46665,-43.77652 -29.2633,-65.12608 0.1847,-0.3302 0.1552,-0.4318 -0.08,-0.21997 -0.4318,0.4064 -9.8399,-15.54225 -9.8399,-16.67763 -0.015,-0.3556 -0.1844,-0.5334 -0.381,-0.4064 -0.2027,0.12547 -0.508,-0.14097 -0.6858,-0.5842 l -0.01,0.01 c -0.254,-0.6604 -0.4318,-0.6858 -1.016,-0.12776 -0.4064,0.381 -0.635,0.8636 -0.508,1.1176 0.1257,0.20294 -0.064,0.9144 -0.4318,1.6002 -0.3556,0.6604 -0.6858,1.2954 -0.7112,1.4478 -5.19545,8.24854 -8.4524,18.94596 -14.5593,26.17977 -0.2794,-0.17196 -0.3302,-0.0485 -0.13,0.2794 0.381,0.6604 -3.142,6.39063 -3.9599,6.39063 -0.254,0 -0.3556,0.18796 -0.2189,0.4318 0.3556,0.5842 -3.8557,6.69544 -4.4653,6.4897 -0.2794,-0.0785 -0.381,0.0782 -0.204,0.3556 0.381,0.6096 -9.332,13.63471 -13.4925,18.14575 -0.3048,0.3302 -1.524,1.6002 -2.54,3.04292 -1.1176,1.2954 -2.2352,2.2098 -2.4384,2.1082 -0.9144,-0.5842 -0.1572,2.73812 0.9144,4.17322 0.635,0.762 0.9906,1.7526 0.8128,2.0574 -0.1928,0.3302 -0.1582,0.4318 0.06,0.2352 0.2179,-0.18796 1.6256,1.2192 3.0378,3.12928 26.10464,26.44963 49.96682,53.13541 81.0775,64.62339 1.1176,0.4318 2.032,0.8128 2.1336,0.8128 0.01,0 0.021,0.002 0.032,0 z m -636.4499,-5.98677 c 0.5334,-0.002 0.9144,-0.14402 0.9144,-0.3302 0,-0.21921 1.1176,-0.762 2.4384,-1.2954 26.87159,-9.30754 42.39613,-27.45078 60.2795,-41.78527 0.2495,0.15672 0.381,0.0782 0.3048,-0.1872 -0.223,-0.7366 8.0137,-9.53262 8.6208,-9.12876 0.2794,0.17247 0.3556,0.0615 0.1552,-0.24942 5.61535,-6.37229 7.90959,-10.22003 12.6337,-16.95781 1.7272,-2.4384 2.4384,-3.86842 2.1336,-4.25958 -0.2794,-0.3302 -0.3302,-0.762 -0.1046,-0.9906 0.2192,-0.23418 0.1087,-0.2794 -0.2373,-0.0698 -0.5588,0.3302 -2.032,-1.52399 -1.8288,-2.20979 0.048,-0.14809 -0.1084,-0.2794 -0.3556,-0.2794 -1.016,0 -8.8265,-10.287 -8.5217,-11.28268 0.078,-0.3048 -0.062,-0.4064 -0.3302,-0.24943 -0.5842,0.3556 -9.0271,-12.25549 -14.0589,-20.96769 -5.5804,-9.63929 -11.1683,-20.95753 -10.7518,-21.68143 0.2047,-0.3556 0.1735,-0.4826 -0.061,-0.24943 -0.4064,0.381 -5.174,-9.73835 -5.776,-12.42313 h 0.01 c -0.4572,-1.7526 -1.1176,-1.6002 -2.2352,0.6858 -13.29347,21.33196 -25.10854,45.0575 -33.6453,64.78064 -5.90804,10.77852 -9.70258,23.14518 -12.6264,35.44162 -0.015,0.5334 -0.5334,3.65252 -1.1176,6.90372 -1.4224,7.30757 -1.6256,25.01391 -0.381,29.61003 1.1176,4.04368 2.9464,7.19836 4.3637,7.30758 0.08,0.006 0.1603,0.006 0.2363,0.006 z m 214.7338,-44.55158 c -10.0431,0.0297 -23.3299,-2.82702 -32.501,-7.0993 -2.1336,-0.9398 -3.9599,-1.7526 -4.0615,-1.7526 -0.8128,0 -7.5057,-4.46532 -8.7249,-5.77342 -4.0614,-4.5593 -6.5938,-11.63319 -5.682,-15.87753 0.635,-2.73812 1.9304,-5.77342 3.2462,-7.6073 1.524,-2.0574 5.0723,-4.66852 5.6819,-4.25958 0.2794,0.18771 0.381,0.0935 0.1885,-0.20396 -0.4572,-0.7366 5.7836,-3.56362 10.9042,-4.86918 l 0.01,-0.006 c 3.2461,-0.8636 5.8851,-1.1176 12.7508,-1.2192 9.7383,-0.15595 9.7383,-0.15595 17.1424,1.6002 12.639,3.04292 20.5105,9.53262 23.3324,19.22526 2.3368,7.91209 -0.2423,16.88845 -6.4922,22.58059 -0.762,0.6858 -3.142,2.10819 -5.2756,3.25881 -3.4518,1.6002 -4.4653,1.9304 -8.7223,2.1082 -0.635,0.0282 -1.3208,0.0427 -1.9304,0.0442 z m 171.2221,-0.5334 c -3.655,0.015 -7.3025,-0.2347 -7.8105,-0.6604 -0.381,-0.3302 -0.8382,-0.4318 -0.9906,-0.2794 -0.4572,0.4826 -8.0137,-1.7526 -10.7619,-3.13182 -4.6686,-2.3368 -9.5352,-7.9121 -8.7224,-9.94156 0.1877,-0.5334 0.095,-0.7112 -0.2794,-0.4318 -0.4318,0.2794 -0.508,-0.762 -0.3556,-3.73888 0.1814,-3.04292 0.5842,-4.77011 1.6256,-6.69543 1.7272,-3.26136 4.9708,-7.19836 5.7836,-6.69544 0.3302,0.20244 0.4064,0.0953 0.1877,-0.24943 -0.508,-0.8128 4.8717,-4.17322 9.3319,-5.77342 l 0.016,0.006 c 2.9464,-0.9906 4.8718,-1.2954 9.6368,-1.4478 3.3426,-0.0729 6.5938,-0.0287 7.3025,0.0983 7.3025,1.2954 15.3695,4.17322 19.8425,7.0993 4.8717,3.25881 8.4201,8.42009 8.3185,12.33423 -0.037,2.1082 -1.2192,4.96316 -3.0379,7.30758 -3.8557,4.86917 -15.621,10.65021 -24.224,11.90751 -1.4223,0.20346 -3.655,0.3302 -5.7835,0.3302 z m -80.1364,-16.67764 c -7.19497,0.3597 -15.37755,-1.81665 -19.066,-6.04494 0.2039,-0.3302 0.1127,-0.4318 -0.2159,-0.2192 -0.7366,0.4318 -2.8397,-2.3368 -4.4653,-5.98678 -1.8288,-3.95732 -2.4384,-8.62076 -1.8288,-12.63903 0.5842,-3.65252 3.4518,-9.94156 4.2646,-9.43356 0.3302,0.18872 0.381,0.08 0.156,-0.3048 -0.5842,-0.9398 2.9489,-4.04368 6.8986,-5.88264 3.0378,-1.524 4.0615,-1.7526 8.7224,-1.8288 3.5483,-0.12573 5.3771,0 5.6819,0.4064 0.204,0.3302 0.5588,0.4826 0.8128,0.3302 1.3208,-0.762 8.4201,3.25882 11.1075,6.29158 2.032,2.3368 4.0614,5.47878 3.7566,5.98678 -0.1712,0.2794 -0.093,0.5334 0.1725,0.5334 0.5588,0 2.54,5.98677 2.9464,9.12875 0.5842,3.86842 -2.7356,14.1605 -4.1605,12.88034 -0.2312,-0.21946 -0.254,-0.10846 -0.057,0.24943 0.7366,1.29539 -5.4788,5.47623 -9.2303,6.29157 -1.1176,0.23419 -3.2462,0.3556 -5.5804,0.3556 z m -117.8166,-64.33233 c -2.9388,0.0305 -6.0858,-0.4826 -9.5352,-1.524 -8.5217,-2.65176 -17.8638,-8.92555 -23.4619,-15.80133 -6.8987,-8.4201 -9.5352,-13.84553 -11.2802,-22.19705 -1.2192,-6.15188 -0.8382,-10.56132 1.4224,-14.93011 2.032,-4.04368 3.9599,-5.71754 8.3185,-7.02056 l -0.042,-0.0158 c -1.7272,-0.6604 3.8557,-0.9398 4.5669,-0.9398 2.032,0.0513 6.4922,1.2954 9.1287,2.60858 4.2647,2.0828 14.6787,10.6807 14.1402,11.62304 -0.1836,0.3302 -0.1521,0.4318 0.083,0.21945 0.5842,-0.5334 1.9304,0.6604 1.524,1.2954 -0.1887,0.3048 -0.1097,0.4064 0.1875,0.21844 0.6604,-0.4064 2.9388,1.9558 2.3368,2.4638 -0.219,0.21996 -0.047,0.3302 0.381,0.21996 0.4318,-0.0945 0.7366,0.12345 0.6604,0.4826 -0.062,0.3556 0.049,0.6096 0.254,0.5842 0.762,-0.21894 2.7356,1.2192 2.7356,2.0574 0,0.4318 0.2029,0.6858 0.4572,0.5334 0.2456,-0.15062 1.6256,0.6096 3.1445,1.6002 1.4224,1.0922 3.6576,2.60858 4.7701,3.34772 1.7272,1.2192 7.6073,8.92556 7.5057,9.74344 -0.016,0.14097 0.2192,0.8636 0.508,1.60019 0.3048,0.7366 0.5842,3.43408 0.5842,5.98678 0.032,4.04368 -0.142,5.07492 -1.3208,7.6073 -1.9304,3.86842 -3.2487,5.36702 -6.797,7.50824 -3.0379,1.82879 -6.3907,2.73811 -10.2032,2.73811 z m 304.4328,20.13711 c -0.5588,0.004 -1.1176,0.002 -1.7272,0 -8.5217,-0.0315 -9.0271,-0.0907 -14.0995,-1.7526 -5.0724,-1.60019 -14.8819,-6.90371 -14.8819,-7.91209 0,-0.2794 -0.3048,-0.5334 -0.6604,-0.5334 -0.9398,0 -4.1605,-3.34772 -3.6576,-3.86842 0.2345,-0.23419 0.141,-0.3302 -0.1877,-0.23419 -4.03113,-3.64569 -6.81152,-7.03682 -9.387,-14.81073 -1.524,-4.86918 -1.7272,-10.04316 -0.508,-13.54836 1.016,-2.82701 4.2646,-7.80795 5.2755,-7.80795 0.381,0 0.7112,-0.20396 0.7112,-0.4318 0,-0.8636 5.9868,-3.60934 9.9416,-4.77774 2.1336,-0.5842 6.0858,-1.2954 8.824,-1.6002 l -0.01,0.0358 c 5.7836,-0.6096 10.6705,-0.5842 16.129,0.0437 3.8557,0.4318 10.7112,2.0828 13.1064,3.26136 0.7112,0.3302 1.6256,0.6604 2.032,0.7366 1.2192,0.23444 7.6073,4.34848 9.3319,5.85978 2.54,2.286 5.3772,6.29666 5.0724,6.90372 -0.1877,0.3048 -0.1097,0.4064 0.1725,0.2352 0.3048,-0.17221 0.9398,0.5842 1.4224,1.6002 6.3906,13.15465 1.6256,29.90137 -9.84,35.3009 -5.0724,2.3368 -8.7249,3.12928 -17.0815,3.12928 z m -209.5666,-58.30745 c -0.508,-0.002 -0.9906,-0.0193 -1.524,-0.0574 -3.7567,-0.2794 -10.4572,-2.60858 -10.9246,-3.82524 -0.1572,-0.4064 -0.5588,-0.6858 -0.9144,-0.6858 -1.1176,0 -6.1874,-6.08076 -5.682,-7.0231 0.1857,-0.3302 0.1563,-0.4318 -0.079,-0.21869 -0.5334,0.4826 -3.2486,-3.78206 -4.7701,-7.4041 -2.1336,-5.13842 -2.54,-8.82141 -1.6256,-13.09623 1.6256,-7.02056 6.2891,-13.06322 12.4968,-16.13916 l 0.01,-0.0132 c 2.634,-1.2954 4.1605,-1.6002 7.2009,-1.8288 3.8557,-0.18796 4.7701,-0.0632 7.2009,0.9398 0.7112,0.3048 1.6256,0.6096 1.9304,0.6858 1.2192,0.24942 5.2756,2.82701 6.5939,4.25957 2.9463,3.04292 4.1605,4.63042 6.0858,8.71982 3.5484,7.239 5.174,16.49221 3.5484,20.45969 -0.3302,0.8636 -0.6858,1.9558 -0.8128,2.5146 -0.3302,1.7526 -3.2436,5.86486 -5.5804,7.71906 -4.0615,3.34772 -8.5217,5.06476 -13.3604,4.99618 z m 105.2219,3.04292 c -7.2008,0.0239 -12.1411,-0.7366 -18.7756,-2.82702 -4.4653,-1.4478 -13.0861,-5.4991 -14.4145,-6.80466 -0.4064,-0.4064 -0.9652,-0.7366 -1.2192,-0.7366 -0.2794,0 -0.3556,-0.2794 -0.143,-0.6096 0.2344,-0.381 0.1402,-0.4318 -0.2362,-0.21971 -0.762,0.4826 -6.9977,-5.71753 -9.332,-9.32941 -3.6576,-5.4991 -5.0724,-12.30376 -3.7567,-17.58441 0.381,-1.524 0.7112,-2.95656 0.7112,-3.04292 0.016,-0.1425 0.6604,-1.2954 1.4224,-2.73812 1.7272,-2.95656 7.4041,-11.01598 8.5217,-7.31266 v 0.0102 c 1.1176,3.47726 8.8239,-1.7526 12.7305,-0.6858 1.6256,0.4318 4.4653,1.7526 6.4922,2.82702 6.6954,3.78206 10.955,5.71754 13.7871,6.15188 5.682,1.0922 11.0871,0.4318 16.2408,-2.0574 1.524,-0.7366 3.1445,-1.2954 3.5483,-1.2954 0.381,0.0323 0.5588,-0.0787 0.381,-0.2352 -0.4572,-0.4318 2.9388,-2.73812 3.5484,-2.286 0.3048,0.17119 0.381,0.0612 0.1725,-0.2794 -0.4572,-0.7366 3.0378,-2.60858 5.7836,-3.04292 3.5483,-0.5842 11.8567,3.34772 10.7823,5.13842 -0.1877,0.2794 -0.077,0.3556 0.2362,0.17399 0.7366,-0.4826 2.9464,2.60857 2.4384,3.47725 -0.2139,0.3556 -0.1793,0.4826 0.055,0.2794 0.2345,-0.21971 0.889,0.6096 1.4224,1.8288 4.2647,9.32942 2.9464,19.51736 -3.655,27.83636 -1.9304,2.4638 -8.3185,7.239 -9.1288,6.65988 -0.381,-0.24943 -0.4572,-0.15266 -0.1724,0.3302 0.3048,0.5334 0.1867,0.6096 -0.4826,0.3556 -0.4826,-0.18898 -0.762,-0.13335 -0.6096,0.11811 0.3556,0.5842 -6.3907,3.34771 -6.9977,2.95656 -0.2794,-0.17196 -0.4826,-0.0777 -0.4826,0.18922 0,1.0922 -7.6073,2.286 -15.6617,2.5146 -1.1176,0.0348 -2.2352,0.0544 -3.2486,0.0569 z m 170.645,-155.58992 c -2.9387,0.0602 -6.4922,-0.9398 -12.3037,-3.26136 -4.2647,-1.6002 -10.226,-5.85977 -12.9235,-9.23035 -5.2756,-6.36778 -6.7971,-12.51204 -5.0724,-20.19807 1.6256,-7.4041 4.9708,-12.18184 10.6502,-14.90472 l -0.01,-0.003 c 4.3637,-2.0828 12.1336,-1.7526 17.5387,0.8636 5.2756,2.4638 10.9347,10.30732 13.9167,19.09318 1.524,4.34847 1.7272,5.71753 1.7272,10.70355 0.031,5.13842 -0.1108,6.00964 -1.3208,8.62076 -1.8288,3.78206 -4.0615,6.00963 -7.7089,7.30757 -1.524,0.5842 -2.9388,0.8636 -4.4653,0.9398 z m -459.8914,-17.37613 c -1.016,0.0102 -2.1336,-0.0955 -3.142,-0.3302 -3.1445,-0.7366 -5.4787,-1.8288 -6.4922,-3.04292 -0.381,-0.4318 -0.5334,-0.5334 -0.3302,-0.12751 0.2494,0.5334 -0.032,0.4318 -0.9652,-0.15646 -1.7272,-1.0922 -4.1554,-4.84632 -3.8506,-5.7912 0.1409,-0.4064 -0.015,-0.762 -0.3556,-0.9398 -1.016,-0.3556 -0.762,-7.50316 0.4064,-10.69085 1.1176,-3.04292 5.2755,-8.71982 6.0858,-8.2169 0.2794,0.17323 0.508,0.0785 0.508,-0.21768 0,-0.8636 4.3637,-3.25882 7.4015,-4.0005 l 0.013,-0.003 c 3.8506,-1.0922 6.4922,-0.9398 9.9416,0.53339 3.9598,1.6002 6.3906,3.56362 5.6819,4.63042 -0.1722,0.2794 -0.045,0.3556 0.254,0.13691 0.7366,-0.4318 3.0379,4.34848 3.551,7.4041 0.4064,2.51459 -0.4064,6.65987 -1.9304,9.73327 -3.2487,6.51256 -10.3048,10.93724 -16.7869,10.99566 z m 397.2185,-16.97989 c -2.4384,-1.2192 -4.4653,-2.4638 -4.4653,-2.60858 0,-0.2192 -0.4826,-0.5334 -1.1176,-0.7112 -0.7112,-0.1872 -0.9652,-0.5334 -0.7112,-0.9398 -2.3368,-0.9906 -6.5939,-5.85978 -8.3185,-7.80796 0.2494,-0.4064 0.1714,-0.4826 -0.22,-0.24968 -0.4064,0.24968 -1.2192,-0.8636 -2.3368,-3.25882 -1.524,-3.12928 -1.7272,-4.04368 -1.6256,-8.01116 0.041,-7.09167 2.8397,-12.04975 8.6208,-15.09013 l -0.012,-0.004 c 3.7566,-1.9558 6.9977,-2.60858 10.3454,-2.0574 2.8397,0.5334 7.9121,3.04292 7.5057,3.78206 -0.1725,0.3048 -0.065,0.381 0.254,0.17221 0.3302,-0.18745 1.016,0.063 1.6256,0.6096 0.5588,0.5334 1.4224,1.2192 1.9304,1.524 1.1176,0.6858 3.6576,3.99796 5.9868,7.91209 3.2486,5.4991 4.4653,12.60602 3.048,17.58442 -0.3302,1.0922 -0.635,2.26059 -0.635,2.51459 -0.032,0.2347 -0.3556,0.6096 -0.7366,0.8636 -0.381,0.2347 -0.6858,0.6096 -0.6604,0.762 -3.08188,8.38397 -12.56626,8.08246 -18.4777,5.01416 z m -344.2778,-15.42034 c -1.1176,0.001 -2.3368,-0.0699 -3.4442,-0.2192 -3.9599,-0.5334 -9.2329,-2.4638 -8.7224,-3.12928 0.1562,-0.23596 -0.046,-0.3302 -0.4826,-0.15773 -0.7366,0.2794 -4.0615,-3.25882 -4.3637,-4.63042 -0.078,-0.3556 -0.3556,-1.524 -0.635,-2.60858 -0.381,-1.524 -0.3048,-2.73812 0.2494,-4.84632 0.9144,-3.56362 3.3528,-8.01115 3.9599,-7.60729 0.2794,0.18745 0.3556,0.0777 0.1724,-0.23495 -0.508,-0.762 4.7702,-6.80466 8.7224,-9.94156 4.4653,-3.56362 10.0431,-6.51256 14.9225,-7.80796 l 0.022,-0.0122 c 9.0272,-2.5146 16.3627,-0.0129 19.9009,6.80466 1.016,2.0574 1.2192,3.13182 1.2192,7.30758 0.012,4.77773 -0.088,5.13841 -1.9304,9.02461 -2.2352,4.5593 -9.7383,12.7381 -11.1175,12.19454 -0.4572,-0.17221 -0.6604,-0.094 -0.508,0.15646 0.381,0.6096 -4.8718,3.34772 -8.6208,4.48818 -3.3426,0.9906 -6.3906,1.524 -9.4336,1.524 z m 340.2082,-42.99075 c -1.7272,0.0117 -3.655,-0.381 -5.7836,-1.0922 -6.6954,-2.5146 -13.5229,-6.65988 -15.8546,-9.63929 -2.9388,-3.60934 -3.5484,-5.71754 -3.5484,-10.81278 0.016,-4.04368 0.205,-5.06476 1.4224,-7.4041 1.6256,-3.12927 4.3637,-5.71753 7.7089,-7.09421 l -0.01,-0.003 c 2.3368,-0.9906 7.6073,-1.6002 9.7383,-1.0922 13.33,3.34772 21.4859,13.78711 19.05,24.32049 -0.635,2.73812 -4.0614,9.32941 -4.7701,9.32941 -0.2182,0 -1.2192,0.6858 -2.2352,1.6002 -1.524,1.2954 -3.4518,2.0574 -5.682,2.0574 z m -338.8539,-14.67611 c -1.3208,-0.0145 -2.634,-0.15799 -3.9598,-0.4318 -1.2192,-0.24943 -4.1555,-2.0828 -4.1555,-2.60858 0,-0.21946 -0.3048,-0.4064 -0.6858,-0.4064 -1.524,0 -4.7701,-5.86486 -5.5803,-10.3505 -0.6604,-3.34771 -0.3048,-6.15187 1.4224,-11.04391 2.7355,-7.80796 11.087,-14.87173 19.9821,-16.94173 l 0.01,-0.01 c 5.174,-1.2192 8.9256,-0.9398 12.7915,0.762 0.2794,0.126 0.4572,0.4064 0.381,0.6095 -0.063,0.203 0.1844,0.2495 0.5842,0.1047 1.2192,-0.4318 5.1739,3.9979 6.289,6.8783 1.3208,3.82524 0.9906,11.21156 -0.762,15.43049 -0.3302,0.762 -0.8128,1.4478 -1.1176,1.4478 -0.254,0 -0.3556,0.2187 -0.1727,0.5334 0.4318,0.7366 -2.3368,4.77774 -3.0379,4.34848 -0.3048,-0.1872 -0.381,-0.0765 -0.1724,0.2794 0.4826,0.762 -3.0379,4.25958 -6.5939,6.51256 -5.1739,3.25882 -10.3555,4.99364 -15.2044,4.84632 z M 874.32966,273.7476 c 35.1892,-0.051 70.4291,-1.6002 100.8197,-4.6305 7.6073,-0.7366 8.7224,-1.2192 10.9245,-4.4881 2.54,-3.7821 1.016,-10.1473 -2.9464,-12.4867 l 0.01,-0.01 c -2.1336,-1.2954 -4.4653,-1.2954 -19.6494,0.1729 -44.25933,3.521 -87.12327,4.8505 -133.3815,3.043 -23.5635,-1.0922 -34.6717,-1.7526 -36.4063,-2.0828 -0.9144,-0.2495 -1.8288,-0.2495 -1.9304,-0.025 -0.1409,0.219 0.077,2.0828 0.508,4.3485 0.4318,2.0828 0.9144,6.1519 1.1176,8.9255 l 0.3556,4.9937 2.1336,0.01 c 1.2192,0.015 8.5217,0.3556 16.2408,0.762 20.0152,1.0922 41.1134,1.6002 62.2223,1.6002 z m -355.8022,-2.1048 5.5803,-0.3556 0.3556,-5.0622 c 0.204,-2.7381 0.7112,-6.8047 1.1176,-8.9256 0.4318,-2.0828 0.762,-3.9979 0.762,-3.9979 v 0 c 0,-0.047 -0.762,5e-4 -1.7272,0.1235 -2.634,0.3556 -18.6436,1.2192 -33.9514,1.8288 -17.4269,0.6858 -56.6943,0.8636 -79.3549,0.3556 -17.2644,-0.2794 -31.9626,-1.6002 -47.3413,-2.7381 -6.1874,-0.4826 -12.6289,-0.9906 -14.3535,-1.2192 l -0.032,0.01 c -6.3906,-0.8636 -9.84,-0.6604 -11.7475,0.6604 -2.8423,1.9558 -3.8506,3.7821 -4.1554,7.4041 -0.087,2.5146 -0.044,3.8253 1.1176,5.7912 2.032,3.0429 5.4787,2.9566 8.3185,3.3477 6.0858,0.762 27.7025,2.5146 31.8818,2.6086 v 0.012 l 24.1325,1.4478 -0.013,-0.086 c 4.0615,0.4064 10.9043,0.5842 22.855,0.8636 31.35468,0.5247 66.55636,-0.3046 96.5553,-2.0687 z m 140.3776,-35.2265 c 0.1986,0 0.9906,-1.0922 1.7272,-2.4638 3.0378,-5.3543 3.8557,-6.6598 4.4653,-6.5125 0.3556,0.077 0.4826,-0.062 0.3302,-0.3302 -0.1572,-0.2794 0.2017,-1.0922 0.8382,-1.9558 1.4224,-1.9558 2.3368,-2.827 1.7272,-1.8288 -0.2794,0.5334 -0.2192,0.6096 0.1874,0.3556 0.3302,-0.2037 0.4826,-0.6096 0.3048,-0.8636 -0.3048,-0.4826 8.3185,-9.3294 9.1288,-9.3294 0.2233,0 1.1176,-0.6096 1.9304,-1.2954 2.032,-1.7526 8.5217,-5.5728 12.7406,-7.5032 8.2169,-3.7821 19.9847,-6.5126 30.2692,-7.0942 4.3637,-0.2794 6.5938,-0.1265 14.9631,0.9906 1.3208,0.1882 2.3368,0.08 2.54,-0.2352 0.1725,-0.3048 0.049,-0.5842 -0.2794,-0.5842 -0.3302,0 -0.4826,-0.3556 -0.3048,-0.8636 0.1776,-0.4318 0.1138,-0.6858 -0.1206,-0.5842 -0.2352,0.147 -0.9398,-0.6096 -1.524,-1.6002 -1.78506,-2.6178 -4.09185,-5.089 -5.4839,-7.62 0.1877,-0.3048 0.08,-0.381 -0.2331,-0.1872 -3.30362,-1.5959 -6.32528,-4.586 -9.2355,-6.5888 -12.9641,-8.7198 -30.0667,-14.2798 -49.5935,-16.2636 l 0.022,0.01 c -1.1176,-0.1164 -7.8105,-0.1438 -14.8819,-0.06 -13.7998,-0.7157 -22.97961,2.8462 -34.7543,4.069 -0.3048,-0.1729 -0.3556,-0.1051 -0.1399,0.1306 -7.89789,3.1099 -16.78487,6.8281 -24.6863,11.6129 -2.8397,1.8288 -6.4922,4.6304 -9.9415,8.0111 -2.1336,2.0574 -8.0137,9.7435 -7.7089,10.1473 0.1247,0.1242 2.4384,0 5.174,-0.3048 7.9121,-0.8636 17.7419,0.2042 28.2707,3.0429 2.8397,0.7366 4.9707,1.6002 4.7701,1.8288 -0.1573,0.2352 0.093,0.3048 0.5588,0.1209 2.032,-0.762 22.2758,10.9297 21.3842,12.3825 -0.1724,0.2794 -0.094,0.4318 0.1725,0.3556 0.5842,-0.1882 4.3637,3.2614 7.5057,6.6599 2.54,2.827 7.2009,9.6342 8.9255,13.0963 0.3302,0.6604 0.762,1.0922 0.9398,1.0922 z m 126.8109,-2.5146 c 2.2352,-0.016 6.5939,-0.4064 15.1664,-1.0922 52.058,-4.5593 93.4755,-10.4521 121.8905,-17.2821 7.0993,-1.7526 10.226,-2.827 12.1005,-4.4882 1.4224,-1.2954 2.7356,-4.4882 2.7356,-6.6599 0,-3.2613 -2.634,-7.0205 -5.7836,-8.1127 -1.524,-0.5842 -5.4788,-0.3556 -8.1153,0.4318 -46.01156,11.0678 -92.01678,15.9868 -137.9453,19.6519 -8.1153,0.6604 -14.7498,1.2954 -14.7498,1.524 0,0.172 0.9652,1.2954 2.1336,2.6086 3.2436,3.5636 7.4041,8.9256 7.4041,9.7435 0,0.3556 0.2017,0.5334 0.4318,0.4064 0.4318,-0.2794 0.6604,0.6096 0.4572,1.6002 -0.063,0.2794 0.077,0.3302 0.3048,0.1112 0.2342,-0.2352 0.6858,0.11 1.016,0.7366 0.381,0.6858 0.5588,1.0922 2.8397,0.9906 z m -253.1332,-0.3302 c 2.032,-0.011 2.54,-0.2494 2.54,-0.6858 0,-1.0922 5.5804,-8.7198 9.5352,-12.9336 1.3208,-1.524 2.4384,-2.7382 2.4384,-2.8271 0,-0.1092 -1.7272,-0.2794 -3.7567,-0.3556 -11.1887,-0.4318 -48.2547,-4.0436 -73.2183,-7.239 -25.6941,-3.2613 -37.7751,-5.1384 -62.3851,-10.2336 -2.2352,-0.4318 -8.7224,-2.2606 -11.4834,-3.1318 v -0.01 c -2.1336,-0.6858 -6.1874,-0.5842 -7.7063,0.2347 -1.6256,0.8636 -3.8507,3.1292 -4.7701,4.8463 -1.524,3.0429 0.3048,8.9255 3.3528,10.6908 5.6819,3.2614 38.09,9.6343 72.2652,14.2317 8.9256,1.2192 38.4856,4.5593 45.6778,5.2806 16.383,1.524 24.0106,2.0828 27.429,2.0828 z"
     sodipodi:nodetypes="ccccsccccccccccccscccccccccccsccccccsccccccccccccccccccccscsccccccccscccccccccccccccccccccccccccccccccccsccccccccccccccscsccccscscscccscccccccccccscccscccccccccccccsccscscccccscccccccsccccccccscscccsscccccsccccccsccccscsccccscccccccccsccccccccccccccccccccccccccccccccccccccccscsccsssccscccccccccccccccccccccsccccscccccccccccccccccccccccccscccccccsccsccccccccccsccccccccscccccccscccccccsccccscscccccccccccccsccsscssccccccccsccccsccccccccccccccccscccccccccscccccccccccccsscccccssccccccccccccccccccccsccccscssccccccccccccscssccsccccccccssscsscssccccccscccccccsccscccccccccccccccccsccccccccccccccssccccccscccccccccccccscsccccscccccccccccccccccccccccccccccccsccccccscccccccccccccccccccccccscssccccccccscsccscssscccccccccccccccccscccccscscccccscccccccsccccccccccccccsc" />
</svg>
