<?xml version="1.0" encoding="UTF-8" standalone="no"?>
<svg
   width="498.898"
   height="544.252"
   viewBox="0 0 1320 1440"
   version="1.1"
   id="svg73892"
   sodipodi:docname="1_LION.svg"
   inkscape:version="1.2 (dc2aedaf03, 2022-05-15)"
   xmlns:inkscape="http://www.inkscape.org/namespaces/inkscape"
   xmlns:sodipodi="http://sodipodi.sourceforge.net/DTD/sodipodi-0.dtd"
   xmlns="http://www.w3.org/2000/svg"
   xmlns:svg="http://www.w3.org/2000/svg">
  <sodipodi:namedview
     id="namedview73894"
     pagecolor="#ffffff"
     bordercolor="#666666"
     borderopacity="1.0"
     inkscape:showpageshadow="2"
     inkscape:pageopacity="0.0"
     inkscape:pagecheckerboard="0"
     inkscape:deskcolor="#d1d1d1"
     showgrid="false"
     inkscape:zoom="0.68947839"
     inkscape:cx="-13.778532"
     inkscape:cy="427.13449"
     inkscape:window-width="1916"
     inkscape:window-height="2022"
     inkscape:window-x="5750"
     inkscape:window-y="0"
     inkscape:window-maximized="0"
     inkscape:current-layer="svg73892" />
  <style
     id="style73796"><![CDATA[.B{color-interpolation-filters:sRGB}.C{fill-opacity:.98}]]></style>
  <defs
     id="defs73842">
    <linearGradient
       id="A"
       x1="-1430.769"
       y1="-77.47"
       x2="-1409.955"
       y2="-77.47"
       spreadMethod="reflect"
       gradientUnits="userSpaceOnUse">
      <stop
         offset="0"
         stop-color="#ffd285"
         id="stop73798" />
      <stop
         offset=".232"
         stop-color="#ffcd79"
         id="stop73800" />
      <stop
         offset=".616"
         stop-color="#ffca73"
         id="stop73802" />
      <stop
         offset=".808"
         stop-color="#ffd386"
         id="stop73804" />
      <stop
         offset="1"
         stop-color="#ffc86e"
         id="stop73806" />
    </linearGradient>
    <filter
       id="B"
       x="-0.011663823"
       y="-0.0099550202"
       width="1.0233276"
       height="1.01991"
       class="B">
      <feGaussianBlur
         stdDeviation="2.441"
         id="feGaussianBlur73809" />
    </filter>
    <linearGradient
       id="C"
       x1="-904.556"
       y1="-406.052"
       x2="-904.556"
       y2="184.159"
       gradientUnits="userSpaceOnUse">
      <stop
         offset="0"
         id="stop73812" />
      <stop
         offset=".604"
         stop-color="#fff"
         id="stop73814" />
    </linearGradient>
    <filter
       inkscape:label="Combined Lighting"
       inkscape:menu="Bevels"
       inkscape:menu-tooltip="Basic specular bevel to use for building textures"
       style="color-interpolation-filters:sRGB;"
       id="filter2484"
       x="-0.052737401"
       y="-0.046551398"
       width="1.1054748"
       height="1.0931028">
      <feGaussianBlur
         stdDeviation="6"
         in="SourceGraphic"
         result="result0"
         id="feGaussianBlur2466" />
      <feDiffuseLighting
         lighting-color="rgb(255,255,255)"
         diffuseConstant="1"
         surfaceScale="4"
         result="result5"
         id="feDiffuseLighting2470">
        <feDistantLight
           elevation="45"
           azimuth="235"
           id="feDistantLight2468" />
      </feDiffuseLighting>
      <feComposite
         k1="1.4"
         in2="SourceGraphic"
         in="result5"
         result="fbSourceGraphic"
         operator="arithmetic"
         id="feComposite2472" />
      <feGaussianBlur
         result="result0"
         in="fbSourceGraphic"
         stdDeviation="6"
         id="feGaussianBlur2474" />
      <feSpecularLighting
         specularExponent="25"
         specularConstant="1"
         surfaceScale="4"
         lighting-color="rgb(255,255,255)"
         result="result1"
         in="result0"
         id="feSpecularLighting2478">
        <feDistantLight
           azimuth="235"
           elevation="45"
           id="feDistantLight2476" />
      </feSpecularLighting>
      <feComposite
         k3="1"
         k2="1"
         operator="arithmetic"
         in="fbSourceGraphic"
         in2="result1"
         result="result4"
         id="feComposite2480" />
      <feComposite
         operator="in"
         result="result2"
         in2="SourceGraphic"
         in="result4"
         id="feComposite2482" />
    </filter>
    <filter
       inkscape:label="Combined Lighting"
       inkscape:menu="Bevels"
       inkscape:menu-tooltip="Basic specular bevel to use for building textures"
       style="color-interpolation-filters:sRGB;"
       id="filter4504"
       x="-0.041735846"
       y="-0.033287951"
       width="1.0834717"
       height="1.0665759">
      <feGaussianBlur
         stdDeviation="6"
         in="SourceGraphic"
         result="result0"
         id="feGaussianBlur4486" />
      <feDiffuseLighting
         lighting-color="rgb(255,255,255)"
         diffuseConstant="1"
         surfaceScale="4"
         result="result5"
         id="feDiffuseLighting4490">
        <feDistantLight
           elevation="45"
           azimuth="235"
           id="feDistantLight4488" />
      </feDiffuseLighting>
      <feComposite
         k1="1.4"
         in2="SourceGraphic"
         in="result5"
         result="fbSourceGraphic"
         operator="arithmetic"
         id="feComposite4492" />
      <feGaussianBlur
         result="result0"
         in="fbSourceGraphic"
         stdDeviation="6"
         id="feGaussianBlur4494" />
      <feSpecularLighting
         specularExponent="25"
         specularConstant="1"
         surfaceScale="4"
         lighting-color="rgb(255,255,255)"
         result="result1"
         in="result0"
         id="feSpecularLighting4498">
        <feDistantLight
           azimuth="280"
           elevation="45"
           id="feDistantLight4496" />
      </feSpecularLighting>
      <feComposite
         k3="1"
         k2="1"
         operator="arithmetic"
         in="fbSourceGraphic"
         in2="result1"
         result="result4"
         id="feComposite4500" />
      <feComposite
         operator="in"
         result="result2"
         in2="SourceGraphic"
         in="result4"
         id="feComposite4502" />
    </filter>
  </defs>
  <path
     style="mix-blend-mode:multiply"
     d="M-2699.281 228.709l26.181 28.949 190.592 72.165 210.264-77.468 75.234-461.629-45.894-49.39z"
     transform="matrix(-2.0051 0 0 2.0051 -4364.0778 706.82307)"
     opacity=".5"
     filter="url(#B)"
     id="path73844" />
  <path
     d="M-1220.221-390.88l-194.139 75.893-8.809 28.459-70.567 506.333 10.349 7.986h525.404l10.348-7.986-70.567-506.333-8.809-28.459z"
     fill="url(#A)"
     transform="matrix(-2.0051 0 0 -2.0051 -1787.6392 533.54186)"
     id="path73846" />
  <path
     d="M-904.556-434.511l-194.139 75.893-8.809 31.887-70.567 502.905 10.349 7.986h525.404l10.349-7.986-70.567-502.905-8.809-31.887z"
     opacity=".25"
     fill="url(#C)"
     transform="matrix(-2.0051 0 0 -2.0051 -1154.6881 446.05464)"
     style="mix-blend-mode:overlay;filter:url(#filter2484)"
     id="path73848" />
  <path
     d="M133.204 97.854l.043-21.064-20.75 16.013 20.707 5.052zm932.803 1010.214l-17.664-13.248-389.274 149.021v16.402z"
     opacity=".4"
     id="path73850" />
  <path
     d="M253.993 1108.068l17.664-13.248 387.412 149.021v16.402z"
     opacity=".6"
     id="path73852" />
  <path
     d="M253.993 1108.068l17.664-13.248L133.204 97.854l-20.707-5.052z"
     opacity=".6"
     id="path73854" />
  <g
     fill="#fff"
     id="g73862">
    <path
       d="M1066.007 1108.068l-17.664-13.248 138.453-996.966 20.707-5.052z"
       opacity=".3"
       id="path73856" />
    <path
       d="M1186.796 97.854l-.043-21.064 20.75 16.013-20.707 5.052z"
       opacity=".8"
       id="path73858" />
    <path
       d="M1186.796 97.854H133.204l.043-21.064h1053.506l.043 21.064z"
       opacity=".3"
       id="path73860" />
  </g>
  <path
     d="M271.655 1165.416l-17.663-57.348 405.076 152.176 406.938-152.176-17.663 57.348-389.275 152.176-387.413-152.176z"
     opacity=".7"
     id="path73864" />
  <path
     style="fill:#020202;fill-opacity:1;stroke-width:5.29343;filter:url(#filter4504)"
     d="m 696.39467,218.9456 c 45.9311,46.1685 62.4256,78.7338 65.9546,130.2399 3.9599,57.756 -6.289,88.8908 -48.9038,148.2072 -37.5928,52.3565 -44.1861,65.7753 -49.4104,100.4844 l -3.4417,23.0149 -24.8513,-21.8922 c -14.4145,-12.695 -31.0195,-34.5791 -39.5602,-52.1325 -13.1877,-27.1104 -14.7295,-36.0007 -14.8514,-85.8263 -0.123,-48.5859 1.524,-58.5808 12.5069,-79.41 7.0003,-13.0963 20.5105,-31.2667 30.1171,-40.3657 30.3194,-28.719 39.2462,-48.4342 39.2661,-86.7196 0.011,-18.9459 -2.2098,-42.1655 -4.9632,-51.611 -3.142,-10.762 -3.0378,-17.1679 0.098,-17.1679 2.733,0 19.8628,14.9251 38.009,33.1531 z m -186.0943,58.154 c 35.767,45.148 42.3812,65.8764 47.7071,149.5391 6.6954,104.9416 20.3174,145.8148 62.0905,186.0735 13.307,12.8346 15.9563,19.9542 17.7825,47.804 2.032,30.7317 1.524,32.4183 -7.8105,27.3929 -5.4788,-2.9566 -28.1289,-22.4257 -50.3029,-43.3088 l -40.311,-37.9701 23.5254,33.9661 c 12.9337,18.6817 36.7205,44.8871 52.8597,58.2264 26.3035,21.75 38.5158,40.1698 57.1307,86.0803 2.9489,7.0917 -26.8306,4.9225 -57.7083,-4.13 -52.069,-15.2985 -95.839,-41.8915 -114.5766,-69.6184 -21.2191,-31.3969 -35.818,-64.3717 -46.3163,-104.6796 -15.0571,-57.7848 -7.3076,-147.8668 16.637,-194.5987 11.1887,-21.8059 14.6177,-37.0574 16.3322,-72.6039 1.1176,-24.7447 -0.1684,-55.1215 -3.043,-67.4905 -2.827,-12.3775 -3.1318,-22.4943 -0.5842,-22.4943 2.5146,0 14.5136,12.507 26.6192,27.8016 z m 301.3943,34.401 c 67.8111,76.3208 62.8815,170.8929 -12.3343,236.6931 -28.6263,25.0418 -112.3207,70.7692 -118.401,64.6897 -1.9304,-1.8796 0.7112,-17.6378 5.8852,-34.8574 6.6954,-22.1615 17.5488,-40.5656 37.136,-63.0103 55.2128,-63.3074 68.4309,-98.9733 65.3265,-176.2297 -1.1176,-28.8363 -1.6256,-52.4291 -1.016,-52.4291 0.5842,0 11.1176,11.3233 23.401,25.146 z m -462.896,159.1929 c 53.0522,34.2966 71.2502,61.5119 84.2647,126.0754 10.2235,50.6993 37.0875,109.7139 63.0133,138.4121 17.0129,18.8239 58.9562,43.6425 98.2837,58.1754 l 13.1979,4.8463 -16.9088,8.7198 c -23.3934,12.1031 -30.7157,11.1481 -72.9539,-9.4285 -20.3479,-9.9466 -37.7441,-17.3278 -38.6483,-16.4211 -2.4384,2.4638 61.0554,44.0772 73.0862,47.8988 9.8399,3.1293 9.9415,4.2596 2.2097,19.1186 -4.9656,9.5377 -7.5056,25.6583 -6.5912,40.6743 1.6256,24.6278 1.8288,24.8843 21.6153,26.5191 28.3721,2.286 72.1126,-11.717 99.5012,-31.9753 18.481,-13.6754 27.6012,-16.9824 43.2633,-15.6769 10.9245,0.8636 19.8526,3.7821 19.8526,6.3678 0,6.9469 -40.8797,33.8793 -85.4415,56.3156 -67.9328,34.2143 -110.9106,30.5145 -159.4184,-13.716 -40.322,-36.7617 -67.5986,-48.9697 -117.7437,-52.7261 l -42.3393,-3.1724 19.68,-11.6383 c 16.5861,-9.8323 54.533,-24.2799 82.7534,-31.5841 4.5593,-1.1684 -3.5636,-13.4112 -22.0548,-33.3924 -44.6022,-48.1802 -61.705,-103.0589 -61.8871,-198.6464 -0.099,-50.1779 -9.2304,-94.9167 -23.8201,-117.2466 -4.8692,-7.3254 -7.7115,-14.351 -6.4897,-15.5677 1.2192,-1.1684 16.3322,6.9469 33.5879,18.0721 z m 559.0177,17.8638 c 18.8366,10.9144 38.0194,38.9742 32.6125,47.7103 -1.4224,2.286 -13.7642,4.2596 -27.4182,4.3485 -13.6652,0.063 -35.2197,4.8463 -47.9093,10.5816 -12.6898,5.7912 -24.0106,10.4648 -25.1485,10.4648 -1.1176,0 -2.032,-6.9469 -2.032,-15.3797 0,-9.8374 6.6955,-23.3934 18.5242,-37.5569 10.1854,-12.1945 18.5242,-24.3332 18.5242,-26.9669 0,-7.8054 11.9177,-5.2832 32.8661,6.731 z m 52.5553,77.0366 c 7.3051,8.7199 16.604,23.8481 20.6528,33.6924 4.0614,9.8323 12.0396,21.7347 17.752,26.3974 10.14223,8.2169 9.73843,9.2354 -15.3492,35.9834 -14.1503,15.1231 -40.6062,39.5658 -58.7738,54.3181 -30.2087,24.5135 -32.561,27.8801 -27.4086,39.1917 8.0137,17.6073 -2.949,41.1741 -34.7622,75.0641 -14.3738,15.2857 -27.7642,27.8015 -29.7424,27.8015 -2.032,0 -2.6339,-7.0205 -1.3208,-15.5118 l 2.3114,-15.5244 -30.9788,12.7457 c -22.6212,9.3294 -40.9809,12.7279 -68.0351,12.7228 -37.0558,-0.015 -37.0558,-0.015 -22.4994,-9.0246 8.0137,-4.9225 14.5568,-10.9093 14.5568,-13.1851 0,-2.286 -6.5913,-2.286 -14.5568,-0.097 -22.2554,6.2255 -65.9353,4.13 -80.7247,-3.998 -12.86,-7.0205 -12.2758,-7.4041 21.1785,-15.941 18.9281,-4.8514 43.9324,-13.7287 55.5783,-19.7942 18.3083,-9.5377 19.7408,-11.4757 10.5918,-14.3942 -37.5224,-11.943 -57.5968,-40.5307 -62.3852,-88.8898 l -2.4384,-25.2247 23.0581,21.2623 c 27.895,25.7061 34.3575,27.2623 16.9189,4.0437 -20.0456,-26.6713 -21.087,-33.9793 -7.0993,-50.2145 11.463,-13.3248 16.0071,-14.6837 51.1452,-15.3162 34.8539,-0.6096 39.6316,-1.9558 49.6232,-14.5644 13.3502,-16.7411 22.9159,-17.277 51.1553,-2.9565 l 21.5468,10.9956 -8.5217,-12.1716 c -4.6685,-6.6599 -8.5217,-15.0038 -8.5217,-18.4633 0,-9.9466 42.0871,-27.6928 74.4461,-31.4751 28.0581,-3.3478 30.0767,-2.695 42.7368,12.3469 z m -123.7947,167.6183 c -19.3929,0.4064 -23.6245,2.9566 -36.5882,21.618 -8.1178,11.6459 -14.7497,22.959 -14.8412,25.146 -0.3302,7.1628 42.432,4.13 58.7332,-4.3485 8.9255,-4.7041 19.3751,-16.2865 23.5635,-26.2931 10.1423,-24.2112 9.84,-32.1795 -0.7112,-23.4162 -4.5593,3.782 -18.0873,7.0205 -30.1472,7.3253 z m 72.5078,121.3648 c 9.332,12.225 13.5001,24.323 13.5001,39.0918 0,19.464 -3.0378,24.2519 -33.8706,53.0872 -21.8313,20.4191 -42.8676,34.7574 -59.1688,40.3134 -34.7327,11.8262 -43.7911,11.0312 -26.7695,-2.286 21.7398,-17.0891 16.4515,-21.3182 -11.1989,-8.9256 -18.8468,8.4252 -38.0088,11.6231 -76.4948,12.7508 -61.2077,1.8288 -79.4675,8.5217 -115.652,42.3263 -26.4043,24.6939 -26.8709,24.8895 -23.2309,9.5377 13.0251,-54.7159 32.1257,-75.9152 94.9465,-105.416 29.9036,-14.0412 55.3552,-30.3843 68.3498,-43.8818 11.3919,-11.8263 26.8813,-22.7457 34.4073,-24.2799 7.5057,-1.524 17.8613,-4.3485 22.9566,-6.3678 14.4652,-5.5727 11.5442,11.1608 -6.6955,38.1267 l -15.9182,23.589 14.5974,-8.6208 c 8.0137,-4.7777 33.6474,-23.9115 56.9366,-42.5915 23.2893,-18.6791 44.0139,-33.9877 46.053,-34.0443 2.032,-0.043 9.7384,7.8816 17.2034,17.625 z m -256.4616,-5.1385 c 24.4576,6.731 24.4576,6.731 12.7609,19.9797 -13.1343,14.7853 -45.9917,28.9278 -77.6005,33.4012 l -25.146,3.5636 v -20.4825 c 0,-11.27 3.4417,-25.1054 7.7115,-30.7579 7.305,-9.8323 7.8079,-9.4285 11.2496,6.9469 2.3114,11.0261 6.6954,17.2009 12.3038,17.2009 11.4731,0 32.0852,-14.6431 36.6295,-25.9974 3.0379,-7.4803 6.5913,-8.1128 22.1158,-3.8253 z"
     id="path51530" />
</svg>
