<?xml version="1.0" encoding="UTF-8" standalone="no"?>
<svg
   width="498.898"
   height="544.252"
   viewBox="0 0 1320 1440"
   version="1.1"
   id="svg53641"
   sodipodi:docname="1_OX.svg"
   inkscape:version="1.2 (dc2aedaf03, 2022-05-15)"
   xmlns:inkscape="http://www.inkscape.org/namespaces/inkscape"
   xmlns:sodipodi="http://sodipodi.sourceforge.net/DTD/sodipodi-0.dtd"
   xmlns="http://www.w3.org/2000/svg"
   xmlns:svg="http://www.w3.org/2000/svg">
  <sodipodi:namedview
     id="namedview53643"
     pagecolor="#ffffff"
     bordercolor="#666666"
     borderopacity="1.0"
     inkscape:showpageshadow="2"
     inkscape:pageopacity="0.0"
     inkscape:pagecheckerboard="0"
     inkscape:deskcolor="#d1d1d1"
     showgrid="false"
     inkscape:zoom="1.3789568"
     inkscape:cx="-19.942612"
     inkscape:cy="149.75089"
     inkscape:window-width="1916"
     inkscape:window-height="2022"
     inkscape:window-x="1910"
     inkscape:window-y="0"
     inkscape:window-maximized="0"
     inkscape:current-layer="svg53641" />
  <style
     id="style53550"><![CDATA[.B{color-interpolation-filters:sRGB}]]></style>
  <defs
     id="defs53599">
    <linearGradient
       id="A"
       x1="-1430.769"
       y1="-77.47"
       x2="-1409.955"
       y2="-77.47"
       spreadMethod="reflect"
       gradientUnits="userSpaceOnUse">
      <stop
         offset="0"
         stop-color="#ffd285"
         id="stop53552" />
      <stop
         offset=".232"
         stop-color="#ffcd79"
         id="stop53554" />
      <stop
         offset=".616"
         stop-color="#ffca73"
         id="stop53556" />
      <stop
         offset=".808"
         stop-color="#ffd386"
         id="stop53558" />
      <stop
         offset="1"
         stop-color="#ffc86e"
         id="stop53560" />
    </linearGradient>
    <filter
       id="B"
       x="-0.013119982"
       y="-0.01088309"
       width="1.02624"
       height="1.0217662"
       class="B">
      <feGaussianBlur
         stdDeviation="2.441"
         id="feGaussianBlur53563" />
    </filter>
    <linearGradient
       id="C"
       x1="-905.02"
       y1="-384.47"
       x2="-904.556"
       y2="184.159"
       gradientUnits="userSpaceOnUse">
      <stop
         offset="0"
         id="stop53566" />
      <stop
         offset=".603"
         stop-color="#fff"
         id="stop53568" />
    </linearGradient>
    <filter
       inkscape:label="Combined Lighting"
       inkscape:menu="Bevels"
       inkscape:menu-tooltip="Basic specular bevel to use for building textures"
       style="color-interpolation-filters:sRGB;"
       id="filter57078"
       x="-0.046518084"
       y="-0.043112758"
       width="1.0930362"
       height="1.0862255">
      <feGaussianBlur
         stdDeviation="6"
         in="SourceGraphic"
         result="result0"
         id="feGaussianBlur57060" />
      <feDiffuseLighting
         lighting-color="rgb(255,255,255)"
         diffuseConstant="1"
         surfaceScale="4"
         result="result5"
         id="feDiffuseLighting57064">
        <feDistantLight
           elevation="45"
           azimuth="235"
           id="feDistantLight57062" />
      </feDiffuseLighting>
      <feComposite
         k1="1.4"
         in2="SourceGraphic"
         in="result5"
         result="fbSourceGraphic"
         operator="arithmetic"
         id="feComposite57066" />
      <feGaussianBlur
         result="result0"
         in="fbSourceGraphic"
         stdDeviation="6"
         id="feGaussianBlur57068" />
      <feSpecularLighting
         specularExponent="25"
         specularConstant="1"
         surfaceScale="4"
         lighting-color="rgb(255,255,255)"
         result="result1"
         in="result0"
         id="feSpecularLighting57072">
        <feDistantLight
           azimuth="280"
           elevation="45"
           id="feDistantLight57070" />
      </feSpecularLighting>
      <feComposite
         k3="1"
         k2="1"
         operator="arithmetic"
         in="fbSourceGraphic"
         in2="result1"
         result="result4"
         id="feComposite57074" />
      <feComposite
         operator="in"
         result="result2"
         in2="SourceGraphic"
         in="result4"
         id="feComposite57076" />
    </filter>
  </defs>
  <path
     style="mix-blend-mode:multiply"
     d="M-2659.569 204.596l26.181 28.949 150.416 46.096 171.017-51.398 98.911-437.515-45.894-49.39z"
     transform="matrix(-2.0051 0 0 2.0051 -4364.0778 706.82307)"
     opacity=".5"
     filter="url(#B)"
     id="path53601" />
  <path
     d="M-1220.686-340.838l-153.963 49.823-8.809 28.459-94.245 482.361 10.349 7.986h493.336l10.348-7.986-94.244-482.361-8.809-28.459z"
     fill="url(#A)"
     transform="matrix(-2.0051 0 0 -2.0051 -1787.6392 533.54186)"
     id="path53603" />
  <path
     d="M-905.02-384.47l-153.963 49.823-8.809 26.778-94.245 484.042 10.349 7.986h493.336l10.349-7.986-94.244-482.219-8.809-28.601z"
     opacity=".25"
     fill="url(#C)"
     transform="matrix(-2.0051 0 0 -2.0051 -1154.6881 446.05465)"
     style="mix-blend-mode:overlay"
     id="path53605" />
  <path
     d="M165.355 97.854l.043-21.064-20.75 16.013 20.707 5.052zm821.025 961.863l-17.664-13.248L660 1143.218v16.402z"
     opacity=".4"
     id="path53607" />
  <path
     d="M333.62 1059.717l17.664-13.248L660 1143.218v16.402z"
     opacity=".6"
     id="path53609" />
  <path
     d="M333.62 1059.717l17.664-13.248L165.355 97.854l-20.707-5.052z"
     opacity=".6"
     id="path53611" />
  <g
     fill="#fff"
     id="g53619">
    <path
       d="M986.38 1059.717l-17.664-13.248 185.93-948.615 20.707-5.052z"
       opacity=".3"
       id="path53613" />
    <path
       d="M1154.646 97.854l-.043-21.064 20.75 16.013-20.707 5.052z"
       opacity=".8"
       id="path53615" />
    <path
       d="M1154.646 97.854H165.355l.043-21.064h989.205l.043 21.064z"
       opacity=".3"
       id="path53617" />
  </g>
  <path
     d="M351.283 1117.065l-17.663-57.348L660 1159.62l326.38-99.903-17.663 57.348L660 1216.968l-308.717-99.903z"
     opacity=".7"
     id="path53621" />
  <path
     id="path31682"
     style="fill:#9b0000;fill-opacity:1;stroke-width:1.83205;filter:url(#filter57078)"
     d="m 575.08207,850.82 c 0.018,0 0.028,-0.016 0.042,-0.02 0.8128,-0.2794 -7.1984,-6.1849 -17.8537,-13.0861 -56.9884,-36.9748 -97.1676,-74.4555 -110.0823,-102.6513 -18.4403,-40.3003 6.6955,-69.7184 79.4362,-92.8468 l 13.3071,-4.2596 7.7038,8.6208 7.7114,8.6207 26.5755,1.7526 c 34.29656,2.3368 125.26436,2.3368 159.38546,-0.021 l 26.5582,-1.7526 7.7038,-8.7249 7.7038,-8.7249 18.6563,6.0859 c 70.4055,23.0708 93.9294,54.0829 72.3029,95.2464 -15.2857,29.0926 -51.9064,62.8106 -107.811,99.207 -9.7384,6.2916 -17.3863,11.8973 -16.9596,12.3241 0.4318,0.4064 12.5069,-2.6518 26.8711,-6.7945 115.8623,-33.5664 179.8759,-79.2437 188.7522,-134.7018 3.8684,-24.3382 -5.367,-55.0003 -25.2578,-83.1697 -4.6685,-6.5938 -17.8943,-21.6586 -29.3667,-33.3532 l -20.8864,-21.2725 16.1595,-4.0437 c 19.1948,-4.7701 61.3097,-18.3185 63.4398,-20.2438 4.0436,-3.7389 -27.6624,-43.7205 -53.722,-52.8497 -16.5964,-5.8827 -40.5874,15.8546 -62.6184,22.1462 l -15.9156,4.5593 1.7526,-4.4653 c 0.9398,-2.5146 2.5146,-6.1849 3.5636,-8.0112 1.524,-2.7381 -0.013,-5.9867 -8.0111,-17.1348 -28.719,-40.0263 -50.6486,-104.2814 -50.6486,-148.468 v -17.5209 l 10.0431,-11.8897 10.0432,-11.8669 -8.0112,-23.4036 c -4.4653,-12.8727 -9.8374,-28.1492 -12.0116,-33.8315 -4.2596,-11.3715 -1.7526,-9.7383 -31.2405,-20.4114 -12.0294,-4.3663 -14.3332,-6.5938 -22.4206,-21.2801 -3.8684,-7.0993 -14.6075,-12.1336 -36.053,-16.797 l 0.022,0.062 c -28.4754,-6.0858 -68.8563,-2.827 -93.80006,7.9121 -7.0002,2.9566 -9.2304,5.2781 -12.6898,12.6695 -5.583,11.9812 -7.3076,13.1978 -25.5933,19.6875 -8.5217,3.043 -16.9418,6.0859 -18.6157,6.7945 -3.1292,1.2192 -8.0111,12.9261 -20.0152,48.3761 l -7.0993,20.8686 9.9416,10.6909 c 11.6561,12.5679 12.9642,17.2237 11.2903,39.835 -3.2614,44.5214 -24.1097,102.7417 -49.3296,137.8798 l -10.0431,13.9903 3.434,7.7038 c 1.9304,4.2596 3.4341,8.0112 3.4341,8.2169 0,0.2027 -7.1983,-1.524 -16.0375,-4.0437 -22.5501,-6.2916 -46.4084,-28.1101 -62.7601,-22.1234 -16.7284,6.0859 -41.8526,40.6179 -49.3598,46.9044 l -6.2916,5.3696 10.9144,4.1732 c 12.9032,4.8742 65.8434,20.2463 69.6473,20.2463 1.4478,0 -5.4788,8.0112 -15.4204,17.8537 -59.6353,59.0069 -73.3302,112.8486 -40.5569,159.5304 26.5669,37.8135 83.9203,69.4243 173.5421,95.6358 13.5509,3.8685 25.3492,7.0003 26.5148,6.7945 z m 224.37406,-325.7356 -35.7355,-18.2372 c -33.5879,-0.9398 -39.1439,-20.4114 -50.4451,-36.1312 34.5618,-4.6685 45.9008,3.5636 60.011,10.2641 19.7815,10.2642 18.9205,28.5059 26.1803,44.1163 z m -278.98576,0 c 7.3075,-15.6134 6.3906,-33.862 26.18,-44.1162 14.1097,-6.6954 25.4495,-14.9225 60.01146,-10.2641 -11.30036,15.7353 -16.85026,35.1182 -50.44536,36.1312 z m 180.17096,-86.6084 -9.9416,9.7384 c -0.039,-24.0411 5.7734,-47.8688 14.2037,-70.8241 -12.4257,5.3671 -25.1054,8.824 -43.9128,9.4336 h -1.9304 c -18.8087,-0.5842 -31.497,-3.9548 -43.9127,-9.3345 8.4201,22.9464 14.2341,46.7629 14.2036,70.7834 l -9.9415,-9.7383 c 0.042,-25.9451 -8.0112,-42.4129 -18.31086,-67.7913 -14.8107,-7.7038 -20.2971,-18.2067 -45.4957,-31.4145 l -5.5829,-7.9121 c 26.8234,14.0513 42.8696,25.0444 57.25226,32.5402 l 3.2589,1.6002 c 14.577,7.0993 28.5363,10.7112 50.4761,11.3893 20.4876,-0.8636 34.4398,-4.5592 48.4977,-11.3893 l 3.2614,-1.6002 c 14.3713,-7.5082 30.4231,-18.5115 57.231,-32.562 l -5.367,7.9121 c -25.207,13.208 -30.797,23.6778 -45.606,31.4142 -10.2641,25.3898 -18.3515,41.8655 -18.3108,67.8212 z m 11.9685,-118.7711 h -0.02 l 0.02,-0.041 c -0.9398,-13.147 0.2336,-29.4363 -14.2037,-39.5834 -0.1318,-4.7701 -0.762,-9.5326 1.524,-14.8589 0.5842,-0.4064 1.1176,-0.8128 1.7526,-1.2192 l 0.1854,-0.124 0.1859,-0.1234 0.2271,-0.1453 c 0.063,-0.04 0.1646,-0.1054 0.2276,-0.144 0.076,-0.045 0.1915,-0.1207 0.2794,-0.1657 0.089,-0.05 0.2179,-0.1163 0.3048,-0.1651 0.143,-0.075 0.3302,-0.159 0.4826,-0.226 2.1082,-0.9398 4.6583,-0.9906 8.1153,1.524 18.6334,16.1696 8.0111,38.2745 0.9144,55.2229 z m -105.2726,0 h -0.021 v -0.041 c -7.09926,-16.952 -17.73166,-39.066 0.9144,-55.2231 3.5637,-2.6518 6.0859,-2.5146 8.2169,-1.524 0.1331,0.062 0.3048,0.1379 0.4318,0.2062 0.091,0.048 0.22,0.1146 0.3048,0.1651 0.077,0.045 0.1928,0.1199 0.2794,0.1656 0.063,0.038 0.1646,0.1042 0.2276,0.144 l 0.2266,0.1438 0.1864,0.1237 0.1857,0.1234 c 0.5842,0.4064 1.1176,0.8128 1.7526,1.2192 2.3368,5.2782 1.7526,10.0432 1.6002,14.859 -14.4323,10.1422 -13.2613,26.4366 -14.2037,39.5829 z"
     sodipodi:nodetypes="ccccccccccccccscccscccccccccccsccccccccccccccccccccscccccsccccccccccccccccccccccccccccccccccccccccccccccsssccccccccsssscccccccc" />
</svg>
