<?xml version="1.0" encoding="UTF-8" standalone="no"?>
<svg
   width="498.898"
   height="544.252"
   viewBox="0 0 1320 1440"
   version="1.1"
   id="svg65050"
   sodipodi:docname="1_PHOENIX.svg"
   inkscape:version="1.2 (dc2aedaf03, 2022-05-15)"
   xmlns:inkscape="http://www.inkscape.org/namespaces/inkscape"
   xmlns:sodipodi="http://sodipodi.sourceforge.net/DTD/sodipodi-0.dtd"
   xmlns="http://www.w3.org/2000/svg"
   xmlns:svg="http://www.w3.org/2000/svg">
  <sodipodi:namedview
     id="namedview65052"
     pagecolor="#ffffff"
     bordercolor="#666666"
     borderopacity="1.0"
     inkscape:showpageshadow="2"
     inkscape:pageopacity="0.0"
     inkscape:pagecheckerboard="0"
     inkscape:deskcolor="#d1d1d1"
     showgrid="false"
     inkscape:zoom="1.9501394"
     inkscape:cx="279.7236"
     inkscape:cy="137.68247"
     inkscape:window-width="1916"
     inkscape:window-height="2022"
     inkscape:window-x="1910"
     inkscape:window-y="0"
     inkscape:window-maximized="0"
     inkscape:current-layer="svg65050" />
  <style
     id="style64934"><![CDATA[.B{color-interpolation-filters:sRGB}]]></style>
  <defs
     id="defs64998">
    <linearGradient
       id="A"
       x1="-1430.769"
       y1="-77.47"
       x2="-1409.955"
       y2="-77.47"
       spreadMethod="reflect"
       gradientUnits="userSpaceOnUse">
      <stop
         offset="0"
         stop-color="#ffd285"
         id="stop64936" />
      <stop
         offset=".232"
         stop-color="#ffcd79"
         id="stop64938" />
      <stop
         offset=".616"
         stop-color="#ffca73"
         id="stop64940" />
      <stop
         offset=".808"
         stop-color="#ffd386"
         id="stop64942" />
      <stop
         offset="1"
         stop-color="#ffc86e"
         id="stop64944" />
    </linearGradient>
    <filter
       id="B"
       x="-0.012166599"
       y="-0.010441906"
       width="1.0243332"
       height="1.0208838"
       class="B">
      <feGaussianBlur
         stdDeviation="2.441"
         id="feGaussianBlur64947" />
    </filter>
    <linearGradient
       id="C"
       x1="-904.556"
       y1="-406.052"
       x2="-904.556"
       y2="184.159"
       gradientUnits="userSpaceOnUse">
      <stop
         offset="0"
         id="stop64950" />
      <stop
         offset=".596"
         stop-color="#fff"
         id="stop64952" />
    </linearGradient>
    <filter
       inkscape:label="Combined Lighting"
       inkscape:menu="Bevels"
       inkscape:menu-tooltip="Basic specular bevel to use for building textures"
       style="color-interpolation-filters:sRGB;"
       id="filter72461"
       x="-0.041728949"
       y="-0.04041508"
       width="1.0834579"
       height="1.0808302">
      <feGaussianBlur
         stdDeviation="6"
         in="SourceGraphic"
         result="result0"
         id="feGaussianBlur72443" />
      <feDiffuseLighting
         lighting-color="rgb(255,255,255)"
         diffuseConstant="1"
         surfaceScale="4"
         result="result5"
         id="feDiffuseLighting72447">
        <feDistantLight
           elevation="45"
           azimuth="235"
           id="feDistantLight72445" />
      </feDiffuseLighting>
      <feComposite
         k1="1.4"
         in2="SourceGraphic"
         in="result5"
         result="fbSourceGraphic"
         operator="arithmetic"
         id="feComposite72449" />
      <feGaussianBlur
         result="result0"
         in="fbSourceGraphic"
         stdDeviation="6"
         id="feGaussianBlur72451" />
      <feSpecularLighting
         specularExponent="25"
         specularConstant="1"
         surfaceScale="4"
         lighting-color="rgb(255,255,255)"
         result="result1"
         in="result0"
         id="feSpecularLighting72455">
        <feDistantLight
           azimuth="280"
           elevation="45"
           id="feDistantLight72453" />
      </feSpecularLighting>
      <feComposite
         k3="1"
         k2="1"
         operator="arithmetic"
         in="fbSourceGraphic"
         in2="result1"
         result="result4"
         id="feComposite72457" />
      <feComposite
         operator="in"
         result="result2"
         in2="SourceGraphic"
         in="result4"
         id="feComposite72459" />
    </filter>
  </defs>
  <path
     style="mix-blend-mode:multiply"
     d="M-2681.73 217.274l26.181 28.949 172.576 56.161 193.177-61.463 89.581-450.194-45.894-49.39z"
     transform="matrix(-2.0051 0 0 2.0051 -4364.0778 706.82307)"
     opacity=".5"
     filter="url(#B)"
     id="path65000" />
  <path
     d="M-1220.686-363.581l-176.123 60.03-8.809 28.459-84.914 494.898 10.349 7.986h518.995l10.348-7.986-84.914-495.039-8.809-28.459z"
     fill="url(#A)"
     transform="matrix(-2.0051 0 0 -2.0051 -1787.6392 533.54186)"
     id="path65002" />
  <path
     d="M-905.02-407.213l-176.123 59.888-8.809 26.778-84.914 496.72 10.349 7.986h518.995l10.349-7.986-84.914-494.898-8.809-28.601z"
     opacity=".25"
     fill="url(#C)"
     transform="matrix(-2.0051 0 0 -2.0051 -1154.6881 446.05465)"
     style="mix-blend-mode:overlay"
     id="path65004" />
  <path
     d="M139.629 97.854l.043-21.064-20.75 16.013 20.707 5.052zm891.185 987.285l-17.664-13.248L660 1188.821v16.402z"
     opacity=".4"
     id="path65006" />
  <path
     d="M289.186 1085.139l17.664-13.248L660 1188.821v16.402z"
     opacity=".6"
     id="path65008" />
  <path
     d="M289.186 1085.139l17.664-13.248L139.629 97.854l-20.707-5.052z"
     opacity=".6"
     id="path65010" />
  <g
     fill="#fff"
     id="g65018">
    <path
       d="M1030.814 1085.139l-17.664-13.248 167.221-974.037 20.707-5.052z"
       opacity=".3"
       id="path65012" />
    <path
       d="M1180.371 97.854l-.043-21.064 20.75 16.013-20.707 5.052z"
       opacity=".8"
       id="path65014" />
    <path
       d="M1180.371 97.854H139.629l.043-21.064h1040.656l.043 21.064z"
       opacity=".3"
       id="path65016" />
  </g>
  <path
     d="M306.849 1142.487l-17.663-57.348L660 1205.223l370.814-120.084-17.663 57.348L660 1262.571l-353.151-120.084z"
     opacity=".7"
     id="path65020" />
  <path
     id="path25429"
     style="fill:#000000;stroke:none;stroke-width:3.16255px;stroke-linecap:butt;stroke-linejoin:miter;stroke-opacity:1;filter:url(#filter72461)"
     d="m 599.8708,905.1917 c 41.8787,-0.1691 86.9035,-11.1785 134.958,-38.9277 h -0.015 c -37.6793,8.6131 -58.1675,25.2526 -115.7292,24.5922 -37.36111,-0.4318 -94.82371,-21.7449 -123.25881,-47.3613 -22.4358,-20.2057 -60.5889,-108.0498 -92.2215,-105.1821 -72.9615,6.5811 -50.2239,64.3384 -24.2113,71.0034 -8.2677,-8.1001 -10.8813,-22.385 -5.0596,-34.9489 5.9156,-12.6974 19.7231,-18.0137 28.5564,-10.3352 11.3843,9.8577 61.1901,129.4589 172.6872,140.0481 7.9756,0.762 16.07311,1.143 24.29251,1.1176 z m 22.418,-25.4299 c 12.0904,-0.056 24.4678,-1.7018 37.0622,-5.1105 -44.6334,-10.0203 -85.31761,-2.7051 -147.91331,-104.1072 -26.0472,-42.2135 -36.2562,-197.8166 -118.6078,-183.1774 -104.64805,18.6055 -83.06085,95.6076 -54.2292,130.824 2.6162,-35.337 30.8828,-69.4581 49.201,-70.4454 50.5838,-2.7 71.9976,131.5903 114.7064,175.7413 33.3489,34.4741 74.5433,56.484 119.78071,56.2752 z m 51.9245,-24.7574 c 27.8579,-0.069 59.442,-5.1562 94.8313,-15.6794 C 552.44109,798.6469 617.4702,675.4984 514.45549,619.5297 c -9.1415,146.5742 42.0712,235.7658 159.75781,235.4739 z m 193.1819,-35.8945 c 50.2262,-0.098 73.4443,-3.1979 107.6057,-5.0902 19.431,-8.6055 24.2291,-14.2011 30.0498,-25.2958 l -0.011,0.01 c -37.5599,6.1773 -79.8918,0.4318 -123.7337,-9.0957 40.3479,4.4145 89.2967,12.9286 111.6055,0.2794 l -28.9855,-2.286 c -33.15,-19.9898 -65.0178,-44.6984 -107.1302,-51.785 l -44.2712,39.9303 19.7663,52.9684 c 13.0911,0.2794 24.6786,0.3809 35.1038,0.3555 z m -91.0229,-1.5494 0.01,-0.01 c 13.2308,0 27.3471,-0.6604 42.483,-1.9304 -6.2433,-15.6438 -11.5773,-23.495 -19.7612,-54.5549 l 45.0669,-41.9044 c -27.8526,-57.4217 -74.221,-93.2443 -152.5901,-91.7203 -21.3462,-48.103 26.0896,-216.5801 60.8698,-362.8978 5.4,-22.672 -3.8024,-46.6277 -19.7663,-71.949 2.286,71.2645 -24.4907,141.1442 -66.4093,210.3076 32.2316,-75.728 19.8374,-140.7556 0,-203.9876 -4.3866,66.6915 0.5588,133.7681 -52.1726,198.4428 9.6774,-90.9894 -15.8267,-132.3012 -41.11371,-173.9325 5.7658,58.7852 22.45361,115.9949 0.7874,178.6866 -21.369,-98.3622 -53.8403,-114.6469 -85.4057,-137.5729 20.8077,49.5881 45.5511,98.0558 37.9565,155.7527 -50.8731,-92.7008 -76.6013,-91.7212 -105.146,-101.1979 h -0.015 c 23.9801,37.5138 70.1763,86.7311 115.2331,288.9124 38.3949,14.0818 72.36381,86.219 97.44121,136.4566 37.7558,56.0852 80.4748,72.9165 142.5338,73.0964 z m -39.8684,-37.4807 c -0.4064,5e-4 -0.8128,0 -1.2192,-0.01 h -0.01 c -7.3838,0 -14.7294,-0.8382 -19.7917,-3.1217 -14.859,-6.7513 -32.9592,-36.2559 -32.9592,-36.2559 0,0 36.3087,-6.7564 51.6402,1.0922 13.5001,6.9189 27.466,36.2562 27.466,36.2562 0,0 -12.38,2.032 -25.1206,2.032 z" />
</svg>
