<?xml version="1.0" encoding="UTF-8" standalone="no"?>
<svg
   width="498.898"
   height="544.252"
   viewBox="0 0 1320 1440"
   version="1.1"
   id="svg65050"
   sodipodi:docname="1_PROMOTEDROOK.svg"
   inkscape:version="1.2 (dc2aedaf03, 2022-05-15)"
   xmlns:inkscape="http://www.inkscape.org/namespaces/inkscape"
   xmlns:sodipodi="http://sodipodi.sourceforge.net/DTD/sodipodi-0.dtd"
   xmlns="http://www.w3.org/2000/svg"
   xmlns:svg="http://www.w3.org/2000/svg">
  <sodipodi:namedview
     id="namedview65052"
     pagecolor="#ffffff"
     bordercolor="#666666"
     borderopacity="1.0"
     inkscape:showpageshadow="2"
     inkscape:pageopacity="0.0"
     inkscape:pagecheckerboard="0"
     inkscape:deskcolor="#d1d1d1"
     showgrid="false"
     inkscape:zoom="0.48753484"
     inkscape:cx="329.20724"
     inkscape:cy="-171.26981"
     inkscape:window-width="1916"
     inkscape:window-height="2022"
     inkscape:window-x="1910"
     inkscape:window-y="0"
     inkscape:window-maximized="0"
     inkscape:current-layer="svg65050" />
  <style
     id="style64934"><![CDATA[.B{color-interpolation-filters:sRGB}]]></style>
  <defs
     id="defs64998">
    <linearGradient
       id="A"
       x1="-1430.769"
       y1="-77.47"
       x2="-1409.955"
       y2="-77.47"
       spreadMethod="reflect"
       gradientUnits="userSpaceOnUse">
      <stop
         offset="0"
         stop-color="#ffd285"
         id="stop64936" />
      <stop
         offset=".232"
         stop-color="#ffcd79"
         id="stop64938" />
      <stop
         offset=".616"
         stop-color="#ffca73"
         id="stop64940" />
      <stop
         offset=".808"
         stop-color="#ffd386"
         id="stop64942" />
      <stop
         offset="1"
         stop-color="#ffc86e"
         id="stop64944" />
    </linearGradient>
    <filter
       id="B"
       x="-0.012166599"
       y="-0.010441906"
       width="1.0243332"
       height="1.0208838"
       class="B">
      <feGaussianBlur
         stdDeviation="2.441"
         id="feGaussianBlur64947" />
    </filter>
    <linearGradient
       id="C"
       x1="-904.556"
       y1="-406.052"
       x2="-904.556"
       y2="184.159"
       gradientUnits="userSpaceOnUse">
      <stop
         offset="0"
         id="stop64950" />
      <stop
         offset=".596"
         stop-color="#fff"
         id="stop64952" />
    </linearGradient>
    <filter
       inkscape:label="Combined Lighting"
       inkscape:menu="Bevels"
       inkscape:menu-tooltip="Basic specular bevel to use for building textures"
       style="color-interpolation-filters:sRGB;"
       id="filter69761"
       x="-0.046972459"
       y="-0.039215222"
       width="1.0939449"
       height="1.0784304">
      <feGaussianBlur
         stdDeviation="6"
         in="SourceGraphic"
         result="result0"
         id="feGaussianBlur69743" />
      <feDiffuseLighting
         lighting-color="rgb(255,255,255)"
         diffuseConstant="1"
         surfaceScale="4"
         result="result5"
         id="feDiffuseLighting69747">
        <feDistantLight
           elevation="45"
           azimuth="235"
           id="feDistantLight69745" />
      </feDiffuseLighting>
      <feComposite
         k1="1.4"
         in2="SourceGraphic"
         in="result5"
         result="fbSourceGraphic"
         operator="arithmetic"
         id="feComposite69749" />
      <feGaussianBlur
         result="result0"
         in="fbSourceGraphic"
         stdDeviation="6"
         id="feGaussianBlur69751" />
      <feSpecularLighting
         specularExponent="25"
         specularConstant="1"
         surfaceScale="4"
         lighting-color="rgb(255,255,255)"
         result="result1"
         in="result0"
         id="feSpecularLighting69755">
        <feDistantLight
           azimuth="280"
           elevation="45"
           id="feDistantLight69753" />
      </feSpecularLighting>
      <feComposite
         k3="1"
         k2="1"
         operator="arithmetic"
         in="fbSourceGraphic"
         in2="result1"
         result="result4"
         id="feComposite69757" />
      <feComposite
         operator="in"
         result="result2"
         in2="SourceGraphic"
         in="result4"
         id="feComposite69759" />
    </filter>
    <filter
       inkscape:label="Combined Lighting"
       inkscape:menu="Bevels"
       inkscape:menu-tooltip="Basic specular bevel to use for building textures"
       style="color-interpolation-filters:sRGB"
       id="filter11694"
       x="-0.037993605"
       y="-0.030009861"
       width="1.0759872"
       height="1.0600197">
      <feGaussianBlur
         stdDeviation="6"
         in="SourceGraphic"
         result="result0"
         id="feGaussianBlur11676" />
      <feDiffuseLighting
         lighting-color="#ffffff"
         diffuseConstant="1"
         surfaceScale="4"
         result="result5"
         id="feDiffuseLighting11680">
        <feDistantLight
           elevation="45"
           azimuth="235"
           id="feDistantLight11678" />
      </feDiffuseLighting>
      <feComposite
         k1="1.4"
         in2="SourceGraphic"
         in="result5"
         result="fbSourceGraphic"
         operator="arithmetic"
         id="feComposite11682"
         k2="0"
         k3="0"
         k4="0" />
      <feGaussianBlur
         result="result0"
         in="fbSourceGraphic"
         stdDeviation="6"
         id="feGaussianBlur11684" />
      <feSpecularLighting
         specularExponent="25"
         specularConstant="1"
         surfaceScale="4"
         lighting-color="#ffffff"
         result="result1"
         in="result0"
         id="feSpecularLighting11688">
        <feDistantLight
           azimuth="280"
           elevation="45"
           id="feDistantLight11686" />
      </feSpecularLighting>
      <feComposite
         k3="1"
         k2="1"
         operator="arithmetic"
         in="fbSourceGraphic"
         in2="result1"
         result="result4"
         id="feComposite11690"
         k1="0"
         k4="0" />
      <feComposite
         operator="in"
         result="result2"
         in2="SourceGraphic"
         in="result4"
         id="feComposite11692" />
    </filter>
    <linearGradient
       id="B-4"
       x1="660.03101"
       y1="176.66499"
       x2="660.02899"
       y2="1147.595"
       gradientUnits="userSpaceOnUse"
       gradientTransform="rotate(180,-36.584539,680.79554)">
      <stop
         offset=".6"
         stop-color="#fff"
         id="stop6306" />
      <stop
         offset="1"
         id="stop6308" />
    </linearGradient>
    <linearGradient
       id="A-0"
       x1="228.547"
       y1="660.58398"
       x2="270.28101"
       y2="660.58398"
       spreadMethod="reflect"
       gradientUnits="userSpaceOnUse"
       gradientTransform="rotate(180,-36.584539,680.79554)">
      <stop
         offset="0"
         stop-color="#ffd285"
         id="stop6295" />
      <stop
         offset=".232"
         stop-color="#ffcd79"
         id="stop6297" />
      <stop
         offset=".616"
         stop-color="#ffca73"
         id="stop6299" />
      <stop
         offset=".808"
         stop-color="#ffd386"
         id="stop6301" />
      <stop
         offset="1"
         stop-color="#ffc86e"
         id="stop6303" />
    </linearGradient>
    <filter
       id="D"
       x="-0.01052904"
       y="-0.011053209"
       width="1.0210581"
       height="1.0221064"
       class="B">
      <feGaussianBlur
         stdDeviation="2.441"
         id="feGaussianBlur6315" />
    </filter>
    <filter
       inkscape:label="Combined Lighting"
       inkscape:menu="Bevels"
       inkscape:menu-tooltip="Basic specular bevel to use for building textures"
       style="color-interpolation-filters:sRGB;"
       id="filter70231"
       x="-0.037993608"
       y="-0.030009861"
       width="1.0759872"
       height="1.0600197">
      <feGaussianBlur
         stdDeviation="6"
         in="SourceGraphic"
         result="result0"
         id="feGaussianBlur70213" />
      <feDiffuseLighting
         lighting-color="rgb(255,255,255)"
         diffuseConstant="1"
         surfaceScale="4"
         result="result5"
         id="feDiffuseLighting70217">
        <feDistantLight
           elevation="45"
           azimuth="235"
           id="feDistantLight70215" />
      </feDiffuseLighting>
      <feComposite
         k1="1.4"
         in2="SourceGraphic"
         in="result5"
         result="fbSourceGraphic"
         operator="arithmetic"
         id="feComposite70219" />
      <feGaussianBlur
         result="result0"
         in="fbSourceGraphic"
         stdDeviation="6"
         id="feGaussianBlur70221" />
      <feSpecularLighting
         specularExponent="25"
         specularConstant="1"
         surfaceScale="4"
         lighting-color="rgb(255,255,255)"
         result="result1"
         in="result0"
         id="feSpecularLighting70225">
        <feDistantLight
           azimuth="280"
           elevation="45"
           id="feDistantLight70223" />
      </feSpecularLighting>
      <feComposite
         k3="1"
         k2="1"
         operator="arithmetic"
         in="fbSourceGraphic"
         in2="result1"
         result="result4"
         id="feComposite70227" />
      <feComposite
         operator="in"
         result="result2"
         in2="SourceGraphic"
         in="result4"
         id="feComposite70229" />
    </filter>
  </defs>
  <path
     style="mix-blend-mode:multiply"
     d="M-2681.73 217.274l26.181 28.949 172.576 56.161 193.177-61.463 89.581-450.194-45.894-49.39z"
     transform="matrix(-2.0051 0 0 2.0051 -4364.0778 706.82307)"
     opacity=".5"
     filter="url(#B)"
     id="path65000" />
  <path
     d="M-1220.686-363.581l-176.123 60.03-8.809 28.459-84.914 494.898 10.349 7.986h518.995l10.348-7.986-84.914-495.039-8.809-28.459z"
     fill="url(#A)"
     transform="matrix(-2.0051 0 0 -2.0051 -1787.6392 533.54186)"
     id="path65002" />
  <path
     d="M-905.02-407.213l-176.123 59.888-8.809 26.778-84.914 496.72 10.349 7.986h518.995l10.349-7.986-84.914-494.898-8.809-28.601z"
     opacity=".25"
     fill="url(#C)"
     transform="matrix(-2.0051 0 0 -2.0051 -1154.6881 446.05465)"
     style="mix-blend-mode:overlay"
     id="path65004" />
  <path
     d="M139.629 97.854l.043-21.064-20.75 16.013 20.707 5.052zm891.185 987.285l-17.664-13.248L660 1188.821v16.402z"
     opacity=".4"
     id="path65006" />
  <path
     d="M289.186 1085.139l17.664-13.248L660 1188.821v16.402z"
     opacity=".6"
     id="path65008" />
  <path
     d="M289.186 1085.139l17.664-13.248L139.629 97.854l-20.707-5.052z"
     opacity=".6"
     id="path65010" />
  <g
     fill="#fff"
     id="g65018">
    <path
       d="M1030.814 1085.139l-17.664-13.248 167.221-974.037 20.707-5.052z"
       opacity=".3"
       id="path65012" />
    <path
       d="M1180.371 97.854l-.043-21.064 20.75 16.013-20.707 5.052z"
       opacity=".8"
       id="path65014" />
    <path
       d="M1180.371 97.854H139.629l.043-21.064h1040.656l.043 21.064z"
       opacity=".3"
       id="path65016" />
  </g>
  <path
     d="M306.849 1142.487l-17.663-57.348L660 1205.223l370.814-120.084-17.663 57.348L660 1262.571l-353.151-120.084z"
     opacity=".7"
     id="path65020" />
  <path
     id="path3940"
     style="fill:#9b0000;fill-opacity:1;stroke:none;stroke-width:24.688px;stroke-linecap:butt;stroke-linejoin:miter;stroke-opacity:1;filter:url(#filter70231)"
     d="m 901.12895,1059.4036 c 2.5146,0.1479 4.7701,0.1263 6.6954,-0.096 2.0574,-0.2225 3.7389,-0.6604 4.9632,-1.2954 -12.4181,-15.1409 -110.1654,-84.669 -56.704,-103.8608 0.6604,-0.2222 0.9906,-0.4826 1.7526,-0.7366 21.3716,0.9398 43.2046,22.6314 45.5661,24.7803 3.1318,2.9565 10.673,3.8252 19.243,3.5636 25.7538,-1.0922 61.5935,-21.4935 22.4206,-29.7536 -35.6964,-12.4206 -64.7271,-18.768 -86.0199,-34.0443 l -0.097,0.1933 c -15.1943,-15.7633 -46.864,-44.4028 -62.678,-58.3494 l -26.4236,-25.2146 c -8.0112,-6.9469 -22.1107,-18.2549 -36.9832,-26.6191 -7.6073,-4.2596 -15.2857,-7.6429 -21.811,-9.3295 -6.4897,-1.7526 -11.0083,-1.7526 -14.6481,-0.5334 0.025,0.074 0.044,0.1776 -0.097,0.8636 -0.3556,1.7526 -0.1033,5.0673 1.1176,9.2355 2.4384,8.2169 8.2169,19.3675 14.7193,30.136 6.4897,10.762 13.5814,21.1938 18.6919,28.6886 2.5146,3.782 4.5593,6.6598 5.8826,8.7198 0,0 105.0336,27.5755 71.1185,69.3869 -56.2374,69.3435 55.5076,111.8931 93.3439,114.226 z m -483.8724,0 v -0.05 c 37.8354,-2.286 149.5854,-44.8873 93.3541,-114.2288 -33.9097,-41.8132 71.1185,-69.3798 71.1185,-69.3798 1.2954,-2.159 3.3477,-5.0648 5.8877,-8.7198 5.0724,-7.4803 12.2326,-17.9121 18.6944,-28.6885 6.4897,-10.7595 12.2733,-21.9228 14.699,-30.1361 1.2192,-4.0437 1.4478,-7.4854 1.1176,-9.2355 -0.14,-0.6858 -0.1212,-0.762 -0.096,-0.8636 -3.6525,-1.1684 -8.2169,-1.0922 -14.6659,0.5334 -6.4897,1.7527 -14.2418,5.0673 -21.811,9.3295 -14.8819,8.3159 -28.9623,19.7383 -36.9832,26.6192 l -26.4236,25.2145 c -15.8013,13.9395 -47.4835,42.5915 -62.6889,58.3428 l -0.096,-0.1928 c -21.3132,15.2857 -50.3238,21.6332 -86.0194,34.0446 -39.1655,8.2169 -3.3477,28.6621 22.4206,29.7536 8.5217,0.3556 16.0477,-0.6096 19.243,-3.5637 2.3368,-2.159 24.1935,-23.7896 45.5656,-24.7802 0.6096,0.2347 0.9906,0.5334 1.7526,0.7366 53.4583,19.1948 -44.2979,88.7062 -56.7037,103.8613 1.2192,0.6604 2.9565,1.0922 4.9631,1.2954 1.9304,0.2223 4.1732,0.2449 6.6955,0.097 z m 492.6003,-196.8257 c 17.6098,-38.9832 25.0444,-60.1152 -24.6888,-117.5558 32.8056,7.8817 68.4309,73.8373 83.4131,87.3686 25.7233,-65.073 -6.4897,-93.6269 -46.2465,-114.3728 38.7918,-8.316 61.9386,10.287 100.87035,22.098 -21.6585,-39.6268 -48.45675,-100.1603 -114.03595,-71.9927 24.356,-33.4749 66.7971,-48.8607 103.09185,-70.3999 -37.30915,-7.0206 -76.19025,-25.5758 -108.00955,7.0942 16.5151,-30.1754 43.4258,-55.932 69.8202,-81.8718 -10.955,1.4478 -21.6357,3.3477 -32.1576,5.5728 -16.8808,18.6512 -36.466,31.036 -55.8414,39.8307 -0.1971,10.3403 -3.0429,21.0845 -5.7734,30.5189 -1.6002,5.6464 -2.1082,6.5125 -3.4341,10.1371 4.7701,1.1684 8.7249,1.524 14.2723,4.9225 4.6685,2.9566 9.2278,7.6429 11.5113,13.9751 2.3368,6.3678 2.2098,13.7465 0.05,21.8059 l -11.9685,43.8376 c -3.5636,13.0556 -14.859,19.3827 -26.18,25.4627 -8.9256,4.7803 -17.9476,8.2169 -26.1323,11.5646 1.2192,9.9416 2.5146,19.9034 3.4341,29.8971 z m -500.0742,0 68.1362,-102.1283 c 0.9144,-9.9416 2.1082,-19.9314 3.3477,-29.8056 -8.2169,-3.3477 -17.183,-6.731 -26.1322,-11.5646 -11.3208,-6.0808 -22.6289,-12.3902 -26.1798,-25.4628 l -11.9685,-43.831 c -2.2098,-8.0213 -2.3368,-15.4304 0,-21.816 2.3368,-6.3678 6.9037,-11.0261 11.5646,-13.9751 5.4788,-3.3909 9.4336,-3.782 14.2215,-4.9225 -1.2954,-3.6932 -1.8288,-4.4882 -3.4341,-10.1371 -2.827,-9.4285 -5.5829,-20.1956 -5.7734,-30.5273 -19.3649,-8.8315 -38.9527,-21.1632 -55.8419,-39.8223 -10.5511,-2.2606 -21.2318,-4.1301 -32.2056,-5.5728 26.3931,25.941 53.3565,51.6981 69.8708,81.8718 -31.8232,-32.7055 -70.7537,-14.196 -108.0567,-7.0917 36.2966,21.5468 78.7877,36.9268 103.139,70.3999 -65.5803,-28.1711 -92.36,32.3665 -114.0363,71.9927 38.9308,-11.7983 62.0298,-30.371 100.8196,-22.0878 -39.7832,20.7365 -71.9708,49.295 -46.246,114.3754 14.9809,-13.5331 50.658,-79.5215 83.4636,-87.3686 -49.7357,57.4446 -42.3087,78.5822 -24.6888,117.5544 z m 215.2471,-7.8817 c 6.1849,-0.1684 12.3952,-0.4064 13.0556,-0.4826 0.1382,-0.017 0.3302,0.05 0.4826,0.05 l 21.2623,-3.6931 21.2116,3.6931 c 0.1605,0.012 0.381,-0.074 0.5334,-0.05 0.6096,0.083 6.1849,0.3048 11.656,0.4318 -0.8636,-1.4478 -1.524,-2.2859 -2.4384,-3.782 -7.0002,-11.6053 -13.4823,-23.1546 -17.2034,-35.827 -1.9304,-6.5125 -3.2588,-10.7848 -1.6002,-20.0075 -0.064,0.4064 -0.2342,0.6604 -0.3048,1.0922 0.1608,-1.8796 0.3302,-2.159 0.3556,-2.2606 -0.1001,0.4826 0.038,0.7112 -0.048,1.0922 4.0437,-24.3738 25.767,-25.5278 45.1807,-20.4115 h 0.096 c 9.7384,2.5146 18.7249,6.6599 27.6322,11.712 17.4167,9.7333 32.2968,21.971 40.9394,29.3626 l 0.5334,0.4318 26.1803,25.0266 c 0.4826,0.4064 1.2954,1.1684 1.8288,1.6002 0.076,-0.1925 0.762,-1.6002 0.762,-1.7526 v -0.05 c 12.2326,-32.3098 7.8079,-73.5192 2.4384,-115.5321 l -0.9906,-7.8028 7.3076,-3.043 c 9.3344,-3.8252 21.4248,-8.5166 31.1533,-13.7414 9.7383,-5.1384 15.8013,-11.7805 16.1163,-12.827 l 11.9685,-43.8309 c 1.4478,-5.1385 0.9906,-7.8817 0.4826,-9.5377 -0.5842,-1.524 -1.4478,-2.4638 -3.3478,-3.7821 -3.1292,-1.9558 -8.9255,-3.3934 -14.9123,-5.0648 -9.6342,0.099 -20.5714,0.6096 -31.9753,-0.4318 -13.9395,-1.397 -28.9014,-5.4305 -39.6829,-17.559 l -1.1176,-1.1684 -0.6096,-1.524 c -4.2596,-9.9415 -6.9037,-20.64 -9.3345,-30.9534 h 16.444 c 7.7114,0.2225 91.3454,1.8288 141.4256,-63.9808 18.9077,-24.8844 37.0355,-43.2651 57.8195,-52.7398 9.02965,-4.13 13.10885,-7.8054 20.69335,-8.829 4.6685,-0.6096 12.987,2.286 19.9542,4.2596 l -6.4897,-16.8732 c -22.6314,-7.7191 -41.01335,-3.998 -58.53955,7.4803 -18.1991,11.8465 -35.0357,31.7012 -51.3992,53.0369 -21.3309,28.0538 -55.6897,41.0352 -84.3869,47.3557 -24.3839,5.4306 -38.8307,4.9226 -44.5007,4.9226 l -18.2296,0.6858 c -1.2192,-2.6975 -2.4384,-5.1385 -3.7389,-7.1628 -2.3368,-3.5637 -4.7701,-5.1385 -7.6073,-6.2967 -37.4617,8.4252 -76.343,13.7185 -103.284,15.941 l -0.8128,0.097 -0.8636,-0.097 c -26.941,-2.2606 -65.7829,-7.4803 -103.2367,-15.941 -2.827,1.0922 -5.174,2.6975 -7.6073,6.2967 -1.2954,1.8796 -2.5146,4.3484 -3.7389,7.1628 l -18.2803,-0.6858 c -5.682,-0.025 -20.1244,0.3556 -44.5016,-4.9226 -28.6885,-6.2966 -63.0547,-19.2938 -84.3765,-47.3557 -16.3499,-21.3309 -33.2097,-41.2046 -51.3994,-53.0369 -17.5209,-11.3894 -35.8876,-15.2324 -58.5396,-7.4803 l -6.4897,16.8732 c 7.0003,-1.8796 15.2857,-4.8464 19.9492,-4.2596 7.6073,0.9398 11.6154,4.7041 20.6933,8.829 20.7696,9.4869 38.8745,27.906 57.7931,52.7873 50.0909,65.8477 133.6959,64.2046 141.4386,63.9803 h 16.4922 c -2.4384,10.3124 -5.0724,21.0337 -9.3345,30.9534 l -0.6604,1.524 -1.1176,1.1684 c -10.8559,12.2327 -26.2628,16.7132 -40.9394,18.5623 -13.5814,1.7526 -26.941,1.397 -37.7574,1.524 -3.1318,0.9398 -5.9867,1.8288 -7.9121,3.043 -1.9303,1.1684 -2.7381,2.2606 -3.3477,3.782 -0.5842,1.524 -0.9398,4.2596 0.4826,9.5377 l 11.9609,43.8455 c 0.2794,0.9906 6.3906,7.6428 16.1595,12.8244 9.7383,5.1384 21.8109,9.9416 31.1536,13.7414 l 7.1983,3.0429 -0.9398,7.8029 c -5.3695,42.0131 -9.8374,83.2604 2.4384,115.5778 8e-4,0 0.381,0.762 0.381,0.8636 0.2258,-0.2027 0.6604,-0.5842 0.8636,-0.762 l 26.18,-25.0266 0.5334,-0.4318 c 8.6208,-7.4041 23.5153,-19.5859 40.9392,-29.3624 8.9256,-4.9225 17.9477,-9.2354 27.6322,-11.7119 h 0.05 c 19.4336,-5.1384 41.1828,-4.0005 45.2311,20.447 -0.089,-0.4826 0.01,-0.6858 -0.096,-1.1684 0.01,0.045 0.1776,0.3048 0.3556,2.2606 -0.053,-0.381 -0.1806,-0.6604 -0.242,-0.9906 1.6002,9.2354 0.212,13.5357 -1.7526,19.9542 -3.7389,12.6822 -10.2464,24.2113 -17.2009,35.827 -0.8636,1.4478 -1.524,2.286 -2.4384,3.782 z m 137.0373,-86.7902 c -16.7539,-2.4638 -23.5153,-25.0063 -75.2676,-62.2577 13.2487,-21.7627 32.0144,-31.0621 65.0929,-25.7017 31.0276,11.1608 61.2388,29.958 42.187,68.9094 -7.1983,11.844 -15.2857,17.3761 -24.0106,18.8443 -2.9565,0.4826 -7.9121,-2.159 -8.0111,0.1922 z m -204.4938,0 c -2.4384,0.3556 -4.9632,0.3048 -7.9121,-0.1933 -8.7249,-1.524 -16.83,-7.0205 -24.0106,-18.8671 -19.05,-38.9395 11.1607,-57.7484 42.1871,-68.9086 33.0794,-5.4306 51.8045,3.9979 65.0425,25.7017 -51.7543,37.2354 -58.4995,59.8693 -75.2675,62.2577 z m 151.9364,-153.4769 c -16.3043,-3.5636 -23.4417,-26.9669 -34.7142,-41.4134 l 20.6934,15.2857 25.706,2.9134 c -1.7526,11.115 9.0297,20.0076 -11.656,23.34 z m -99.3285,0 c -20.734,-3.3477 -10.0431,-12.2021 -11.7094,-23.3426 l 25.7061,-2.9134 20.6934,-15.2857 c -11.2827,14.4552 -18.3718,37.8618 -34.6708,41.4134 z m -146.343,-6.9469 c 6.3906,-0.098 12.7508,-0.3048 18.6918,-0.9906 11.8288,-1.524 21.0973,-5.1384 27.1973,-11.4224 0.8128,-2.1589 1.524,-4.9225 2.2098,-7.4803 -12.799,-0.5842 -32.6837,-3.0429 -56.6127,-10.7111 0.762,5.1384 1.8288,10.7111 3.434,16.2052 2.4384,8.1127 3.9574,11.9862 4.9632,14.5034 z m 392.5949,-1.7526 c 1.1176,-3.0429 2.2098,-5.6464 4.3663,-12.7685 1.6002,-5.5728 2.3368,-10.856 3.1293,-16.1164 -23.7897,7.4803 -43.5272,10.0483 -56.2671,10.6173 0.7366,2.5145 1.4478,5.2831 2.2098,7.4802 6.0858,6.2967 14.2951,9.3295 25.2679,10.3556 6.5938,0.6096 13.8862,0.5842 21.2623,0.4318 z m -65.1441,-68.9381 c 6.2916,-0.074 21.8516,-0.5334 43.9224,-5.4305 5.3696,-1.1684 11.0262,-2.9566 16.637,-4.7041 -2.7381,-4.7777 -5.4788,-9.6444 -8.8265,-13.9395 0.1656,0.2212 -7.1983,-4.8514 -13.6931,-7.7191 -6.4897,-2.9133 -12.3469,-4.7777 -12.3469,-4.7777 l -5.8878,-1.8796 -0.9144,-6.2255 c -13.6931,-89.9965 -32.0967,-123.0363 -54.8276,-190.3175 -2.6518,-4.1301 -5.9868,-7.8029 -9.6342,-11.2345 l -14.1732,-189.8377 -20.0559,142.6311 -26.8625,-126.6687 -24.831,124.0657 -24.6888,-123.7767 -27.0538,128.5024 -20.0456,-145.6662 -14.0285,190.8502 c -3.5636,3.3909 -6.9037,7.0206 -9.5326,11.0947 -22.7304,67.2953 -41.1307,100.3429 -54.8276,190.3661 l -0.9398,6.2255 -5.8877,1.8796 c 0,0 -5.8827,1.8796 -12.3952,4.7777 -6.4897,2.9134 -13.8176,7.8817 -13.6551,7.7191 -3.3477,4.3485 -6.0858,9.2354 -8.8265,13.9751 5.5829,1.7526 11.1989,3.3477 16.5862,4.5593 22.1158,4.8514 37.766,5.4305 43.9748,5.4305 0.9398,-1.8288 1.6002,-3.8253 2.827,-5.5728 4.4653,-6.6598 10.9042,-12.6288 19.4361,-15.2857 -0.9398,-97.4313 0.6096,-87.3986 25.024,-179.4201 l 0.9906,-3.8278 3.3477,-2.159 c 21.9406,-14.1275 50.6679,-21.0464 79.4664,-21.021 28.7973,0.012 57.8404,7.0205 80.0956,22.8066 l 3.0429,2.159 0.9144,3.5636 c 24.3231,92.43 27.2448,82.235 25.0927,177.761 l 0.2428,0.049 c 8.6208,2.6086 15.1943,8.6208 19.6672,15.3797 1.1176,1.7526 1.8288,3.6932 2.827,5.5728 z m -131.4447,-4.9225 c 22.8244,-1.8796 54.3303,-5.9334 85.9284,-12.3469 l -14.4551,-77.3882 -20.0558,38.7659 -26.8626,-29.6974 -24.831,28.2105 -24.6888,-28.0581 -27.054,30.7665 -20.0457,-40.5003 -14.3129,77.7702 c 31.7708,6.3678 63.47,10.5741 86.4052,12.4689 z m -0.3048,-130.286 24.6888,-23.7667 23.3934,22.5069 10.4978,-55.7943 c -16.5963,-9.1339 -37.2181,-14.5644 -58.6813,-14.5644 -21.3132,-0.01 -41.8742,5.2832 -58.4398,13.5636 l 10.6731,56.6127 23.1978,-22.3265 z"
     sodipodi:nodetypes="ccccccccccccccccccccsccccccccccccccccccsccccccccccccccccccsccccccccccccccccccccccccccccccccccccccccccccccccccccccccccccccccccccccccccccccccccccccccccccccccccccccccccccccsccccccccccccccccccccccccccccccccccccccccccccccccccccccccccccccccccccccccccccccccccccccccccccccccccccccccccccccccccccccc" />
</svg>
