<?xml version="1.0" encoding="UTF-8" standalone="no"?>
<svg
   width="498.898"
   height="544.252"
   viewBox="0 0 1320 1440"
   version="1.1"
   id="svg33652"
   sodipodi:docname="1_PROMOTEDCOPPER.svg"
   inkscape:version="1.2 (dc2aedaf03, 2022-05-15)"
   xmlns:inkscape="http://www.inkscape.org/namespaces/inkscape"
   xmlns:sodipodi="http://sodipodi.sourceforge.net/DTD/sodipodi-0.dtd"
   xmlns="http://www.w3.org/2000/svg"
   xmlns:svg="http://www.w3.org/2000/svg">
  <sodipodi:namedview
     id="namedview33654"
     pagecolor="#ffffff"
     bordercolor="#666666"
     borderopacity="1.0"
     inkscape:showpageshadow="2"
     inkscape:pageopacity="0.0"
     inkscape:pagecheckerboard="0"
     inkscape:deskcolor="#d1d1d1"
     showgrid="false"
     inkscape:zoom="2.7579136"
     inkscape:cx="226.43929"
     inkscape:cy="398.67094"
     inkscape:window-width="1916"
     inkscape:window-height="2022"
     inkscape:window-x="1910"
     inkscape:window-y="0"
     inkscape:window-maximized="0"
     inkscape:current-layer="svg33652" />
  <style
     id="style33539"><![CDATA[.B{color-interpolation-filters:sRGB}]]></style>
  <defs
     id="defs33600">
    <linearGradient
       id="A"
       x1="-1430.769"
       y1="-77.47"
       x2="-1409.955"
       y2="-77.47"
       spreadMethod="reflect"
       gradientUnits="userSpaceOnUse">
      <stop
         offset="0"
         stop-color="#ffd285"
         id="stop33541" />
      <stop
         offset=".232"
         stop-color="#ffcd79"
         id="stop33543" />
      <stop
         offset=".616"
         stop-color="#ffca73"
         id="stop33545" />
      <stop
         offset=".808"
         stop-color="#ffd386"
         id="stop33547" />
      <stop
         offset="1"
         stop-color="#ffc86e"
         id="stop33549" />
    </linearGradient>
    <filter
       id="B"
       x="-0.013769729"
       y="-0.011050687"
       width="1.0275395"
       height="1.0221014"
       class="B">
      <feGaussianBlur
         stdDeviation="2.441"
         id="feGaussianBlur33552" />
    </filter>
    <linearGradient
       id="C"
       x1="-905.021"
       y1="-376.306"
       x2="-904.556"
       y2="184.159"
       gradientUnits="userSpaceOnUse">
      <stop
         offset="0"
         id="stop33555" />
      <stop
         offset=".602"
         stop-color="#fff"
         id="stop33557" />
    </linearGradient>
    <filter
       inkscape:label="Combined Lighting"
       inkscape:menu="Bevels"
       inkscape:menu-tooltip="Basic specular bevel to use for building textures"
       style="color-interpolation-filters:sRGB;"
       id="filter39724"
       x="-0.044579364"
       y="-0.038215583"
       width="1.0891587"
       height="1.0764312">
      <feGaussianBlur
         stdDeviation="6"
         in="SourceGraphic"
         result="result0"
         id="feGaussianBlur39706" />
      <feDiffuseLighting
         lighting-color="rgb(255,255,255)"
         diffuseConstant="1"
         surfaceScale="4"
         result="result5"
         id="feDiffuseLighting39710">
        <feDistantLight
           elevation="45"
           azimuth="235"
           id="feDistantLight39708" />
      </feDiffuseLighting>
      <feComposite
         k1="1.4"
         in2="SourceGraphic"
         in="result5"
         result="fbSourceGraphic"
         operator="arithmetic"
         id="feComposite39712" />
      <feGaussianBlur
         result="result0"
         in="fbSourceGraphic"
         stdDeviation="6"
         id="feGaussianBlur39714" />
      <feSpecularLighting
         specularExponent="25"
         specularConstant="1"
         surfaceScale="4"
         lighting-color="rgb(255,255,255)"
         result="result1"
         in="result0"
         id="feSpecularLighting39718">
        <feDistantLight
           azimuth="280"
           elevation="45"
           id="feDistantLight39716" />
      </feSpecularLighting>
      <feComposite
         k3="1"
         k2="1"
         operator="arithmetic"
         in="fbSourceGraphic"
         in2="result1"
         result="result4"
         id="feComposite39720" />
      <feComposite
         operator="in"
         result="result2"
         in2="SourceGraphic"
         in="result4"
         id="feComposite39722" />
    </filter>
    <filter
       id="C-9"
       x="-0.011867782"
       y="-0.01125585"
       width="1.0237356"
       height="1.0225117"
       class="B">
      <feGaussianBlur
         stdDeviation="2.441"
         id="feGaussianBlur7491" />
    </filter>
    <linearGradient
       id="B-1"
       x1="-1215.571"
       y1="-296.32901"
       x2="-1215.572"
       y2="165.41499"
       gradientUnits="userSpaceOnUse"
       gradientTransform="matrix(-2.0051,0,0,-2.0051,-2796.999,526.57866)">
      <stop
         offset=".601"
         stop-color="#fff"
         id="stop7486" />
      <stop
         offset="1"
         id="stop7488" />
    </linearGradient>
    <filter
       inkscape:label="Combined Lighting"
       inkscape:menu="Bevels"
       inkscape:menu-tooltip="Basic specular bevel to use for building textures"
       style="color-interpolation-filters:sRGB"
       id="filter2247"
       x="-0.045474541"
       y="-0.046606036"
       width="1.0909491"
       height="1.0932121">
      <feGaussianBlur
         stdDeviation="6"
         in="SourceGraphic"
         result="result0"
         id="feGaussianBlur2229" />
      <feDiffuseLighting
         lighting-color="#ffffff"
         diffuseConstant="1"
         surfaceScale="4"
         result="result5"
         id="feDiffuseLighting2233">
        <feDistantLight
           elevation="45"
           azimuth="235"
           id="feDistantLight2231" />
      </feDiffuseLighting>
      <feComposite
         k1="1.4"
         in2="SourceGraphic"
         in="result5"
         result="fbSourceGraphic"
         operator="arithmetic"
         id="feComposite2235"
         k2="0"
         k3="0"
         k4="0" />
      <feGaussianBlur
         result="result0"
         in="fbSourceGraphic"
         stdDeviation="6"
         id="feGaussianBlur2237" />
      <feSpecularLighting
         specularExponent="25"
         specularConstant="1"
         surfaceScale="4"
         lighting-color="#ffffff"
         result="result1"
         in="result0"
         id="feSpecularLighting2241">
        <feDistantLight
           azimuth="280"
           elevation="45"
           id="feDistantLight2239" />
      </feSpecularLighting>
      <feComposite
         k3="1"
         k2="1"
         operator="arithmetic"
         in="fbSourceGraphic"
         in2="result1"
         result="result4"
         id="feComposite2243"
         k1="0"
         k4="0" />
      <feComposite
         operator="in"
         result="result2"
         in2="SourceGraphic"
         in="result4"
         id="feComposite2245" />
    </filter>
    <filter
       inkscape:label="Combined Lighting"
       inkscape:menu="Bevels"
       inkscape:menu-tooltip="Basic specular bevel to use for building textures"
       style="color-interpolation-filters:sRGB;"
       id="filter40965"
       x="-0.045474541"
       y="-0.046606036"
       width="1.0909491"
       height="1.0932121">
      <feGaussianBlur
         stdDeviation="6"
         in="SourceGraphic"
         result="result0"
         id="feGaussianBlur40947" />
      <feDiffuseLighting
         lighting-color="rgb(255,255,255)"
         diffuseConstant="1"
         surfaceScale="4"
         result="result5"
         id="feDiffuseLighting40951">
        <feDistantLight
           elevation="45"
           azimuth="235"
           id="feDistantLight40949" />
      </feDiffuseLighting>
      <feComposite
         k1="1.4"
         in2="SourceGraphic"
         in="result5"
         result="fbSourceGraphic"
         operator="arithmetic"
         id="feComposite40953" />
      <feGaussianBlur
         result="result0"
         in="fbSourceGraphic"
         stdDeviation="6"
         id="feGaussianBlur40955" />
      <feSpecularLighting
         specularExponent="25"
         specularConstant="1"
         surfaceScale="4"
         lighting-color="rgb(255,255,255)"
         result="result1"
         in="result0"
         id="feSpecularLighting40959">
        <feDistantLight
           azimuth="280"
           elevation="45"
           id="feDistantLight40957" />
      </feSpecularLighting>
      <feComposite
         k3="1"
         k2="1"
         operator="arithmetic"
         in="fbSourceGraphic"
         in2="result1"
         result="result4"
         id="feComposite40961" />
      <feComposite
         operator="in"
         result="result2"
         in2="SourceGraphic"
         in="result4"
         id="feComposite40963" />
    </filter>
    <filter
       id="C-1"
       x="-0.011867782"
       y="-0.01125585"
       width="1.0237356"
       height="1.0225117"
       class="B">
      <feGaussianBlur
         stdDeviation="2.441"
         id="feGaussianBlur7973" />
    </filter>
    <linearGradient
       id="B-8"
       x1="-1215.571"
       y1="-296.32901"
       x2="-1215.572"
       y2="165.41499"
       gradientUnits="userSpaceOnUse"
       gradientTransform="matrix(-2.0051,0,0,-2.0051,-2670.9586,532.25494)">
      <stop
         offset=".6"
         stop-color="#fff"
         id="stop7968" />
      <stop
         offset="1"
         id="stop7970" />
    </linearGradient>
    <filter
       inkscape:label="Combined Lighting"
       inkscape:menu="Bevels"
       inkscape:menu-tooltip="Basic specular bevel to use for building textures"
       style="color-interpolation-filters:sRGB"
       id="filter10230"
       x="-0.044592161"
       y="-0.054869297"
       width="1.0891843"
       height="1.1097386">
      <feGaussianBlur
         stdDeviation="6"
         in="SourceGraphic"
         result="result0"
         id="feGaussianBlur10212" />
      <feDiffuseLighting
         lighting-color="#ffffff"
         diffuseConstant="1"
         surfaceScale="4"
         result="result5"
         id="feDiffuseLighting10216">
        <feDistantLight
           elevation="45"
           azimuth="235"
           id="feDistantLight10214" />
      </feDiffuseLighting>
      <feComposite
         k1="1.4"
         in2="SourceGraphic"
         in="result5"
         result="fbSourceGraphic"
         operator="arithmetic"
         id="feComposite10218"
         k2="0"
         k3="0"
         k4="0" />
      <feGaussianBlur
         result="result0"
         in="fbSourceGraphic"
         stdDeviation="6"
         id="feGaussianBlur10220" />
      <feSpecularLighting
         specularExponent="25"
         specularConstant="1"
         surfaceScale="4"
         lighting-color="#ffffff"
         result="result1"
         in="result0"
         id="feSpecularLighting10224">
        <feDistantLight
           azimuth="235"
           elevation="45"
           id="feDistantLight10222" />
      </feSpecularLighting>
      <feComposite
         k3="1"
         k2="1"
         operator="arithmetic"
         in="fbSourceGraphic"
         in2="result1"
         result="result4"
         id="feComposite10226"
         k1="0"
         k4="0" />
      <feComposite
         operator="in"
         result="result2"
         in2="SourceGraphic"
         in="result4"
         id="feComposite10228" />
    </filter>
    <filter
       inkscape:label="Combined Lighting"
       inkscape:menu="Bevels"
       inkscape:menu-tooltip="Basic specular bevel to use for building textures"
       style="color-interpolation-filters:sRGB;"
       id="filter41496"
       x="-0.044592161"
       y="-0.054869297"
       width="1.0891843"
       height="1.1097386">
      <feGaussianBlur
         stdDeviation="6"
         in="SourceGraphic"
         result="result0"
         id="feGaussianBlur41478" />
      <feDiffuseLighting
         lighting-color="rgb(255,255,255)"
         diffuseConstant="1"
         surfaceScale="4"
         result="result5"
         id="feDiffuseLighting41482">
        <feDistantLight
           elevation="45"
           azimuth="235"
           id="feDistantLight41480" />
      </feDiffuseLighting>
      <feComposite
         k1="1.4"
         in2="SourceGraphic"
         in="result5"
         result="fbSourceGraphic"
         operator="arithmetic"
         id="feComposite41484" />
      <feGaussianBlur
         result="result0"
         in="fbSourceGraphic"
         stdDeviation="6"
         id="feGaussianBlur41486" />
      <feSpecularLighting
         specularExponent="25"
         specularConstant="1"
         surfaceScale="4"
         lighting-color="rgb(255,255,255)"
         result="result1"
         in="result0"
         id="feSpecularLighting41490">
        <feDistantLight
           azimuth="280"
           elevation="45"
           id="feDistantLight41488" />
      </feSpecularLighting>
      <feComposite
         k3="1"
         k2="1"
         operator="arithmetic"
         in="fbSourceGraphic"
         in2="result1"
         result="result4"
         id="feComposite41492" />
      <feComposite
         operator="in"
         result="result2"
         in2="SourceGraphic"
         in="result4"
         id="feComposite41494" />
    </filter>
  </defs>
  <path
     style="mix-blend-mode:multiply"
     d="M-2655.488 204.013l26.181 28.949 146.334 38.515 166.935-43.817 86.005-436.932-45.894-49.39z"
     transform="matrix(-2.0051 0 0 2.0051 -4364.0778 706.82307)"
     opacity=".5"
     filter="url(#B)"
     id="path33602" />
  <path
     d="M-1220.686-332.674l-149.881 42.384-8.809 28.459-81.338 481.636 10.349 7.986h459.359l10.348-7.986-81.338-481.636-8.809-28.459z"
     fill="url(#A)"
     transform="matrix(-2.0051 0 0 -2.0051 -1787.6392 533.54186)"
     id="path33604" />
  <path
     d="M-905.021-376.306l-149.881 44.065-8.809 26.778-81.358 481.64 10.349 7.986 459.383-.004 10.349-7.986-81.343-481.636-8.809-28.601z"
     opacity=".25"
     fill="url(#C)"
     style="mix-blend-mode:overlay"
     id="path33606"
     transform="matrix(-2.0051 0 0 -2.0051 -1154.6881 446.05465)" />
  <path
     d="M199.419 97.854l.043-21.064-20.75 16.013 20.707 5.052zm778.776 960.694l-17.664-13.248L660 1126.847v16.402z"
     opacity=".4"
     id="path33608" />
  <path
     d="M341.805 1058.548l17.664-13.248L660 1126.847v16.402z"
     opacity=".6"
     id="path33610" />
  <path
     d="M341.805 1058.548l17.664-13.248-160.05-947.446-20.707-5.052z"
     opacity=".6"
     id="path33612" />
  <g
     fill="#fff"
     id="g33620">
    <path
       d="M978.195 1058.548l-17.664-13.248 160.05-947.446 20.707-5.052z"
       opacity=".3"
       id="path33614" />
    <path
       d="M1120.582 97.854l-.043-21.064 20.75 16.013-20.707 5.052z"
       opacity=".8"
       id="path33616" />
    <path
       d="M1120.582 97.854H199.419l.043-21.064h921.077l.043 21.064z"
       opacity=".3"
       id="path33618" />
  </g>
  <path
     d="M359.468 1115.896l-17.663-57.348L660 1143.25l318.195-84.702-17.663 57.348L660 1200.598l-300.532-84.702z"
     opacity=".7"
     id="path33622" />
  <path
     style="fill:#9b0000;fill-opacity:1;stroke-width:0.80749;filter:url(#filter41496)"
     d="m 494.1761,239.99634 c 9.5718,19.1525 26.0582,51.4613 26.6523,52.2305 0.5471,0.7004 72.2309,9.0137 77.7206,9.0137 1.8386,0 8.2171,-1.3133 14.081,-2.8105 17.2634,-4.5484 21.1443,-4.8067 48.6551,-4.8067 27.3871,0.02 33.1129,0.6348 49.2582,5.2444 4.4586,1.3134 9.8848,2.3597 12.1153,2.3597 4.5462,0.01 66.0765,-6.9037 75.5,-8.4775 l 2.804,-0.4597 18.5767,-36.6882 c 10.2111,-20.1747 18.8132,-36.6885 19.0912,-36.6959 0.8755,-0.01 1.8386,12.7632 1.6635,23.4113 -0.3064,28.8134 -10.71,63.725 -23.0162,77.1961 -5.9492,6.4702 -16.2588,11.7301 -30.8834,15.7094 -3.5809,0.9631 -6.7285,2.0138 -6.9933,2.2851 -0.7443,0.6567 7.1684,9.2239 8.0418,8.7927 0.3502,-0.2093 11.1806,-1.576 24.0648,-2.9594 12.8749,-1.379 23.8641,-2.8083 24.4147,-2.8849 1.9919,-0.591 7.9565,-11.2419 23.917,-42.7369 3.8481,-7.5187 8.4796,-16.4624 10.3511,-19.7807 3.1519,-5.5925 3.4125,-5.8552 3.929,-4.1106 0.8755,3.1475 0.8099,20.1331 -0.1005,32.3013 -1.2257,16.6266 -5.5946,32.8595 -12.7282,47.58 -7.8667,16.22379 -18.3141,22.50796 -47.7373,28.67113 -6.8183,1.37897 -8.565,2.01374 -8.4796,3.14756 0.037,0.7442 0.1232,2.54786 0.2009,4.11065 0.209,4.11065 2.4515,5.76987 9.5128,7.429 18.128,4.11065 42.8507,14.12681 56.0327,22.86783 11.9226,7.95425 22.0197,18.79562 26.7405,28.81341 2.7075,5.68439 6.1179,19.60774 9.5982,39.17032 5.9492,33.2006 7.2537,39.76561 8.0418,40.7792 0.4815,0.591 1.8386,1.31331 3.0599,1.57598 3.7627,0.85365 19.6341,9.22386 26.7754,13.97807 7.8668,5.24446 21.4968,18.41696 26.8194,26.01496 9.458,13.50522 13.0959,31.67202 9.9484,49.75634 -4.0166,23.2876 -18.0077,49.00445 -41.5924,76.68927 -13.7679,16.16249 -46.6359,47.58873 -48.1653,46.04996 -0.2091,-0.2075 0.044,-21.75938 0.5691,-47.87678 0.5034,-26.1198 0.8099,-58.03456 0.6567,-70.91966 l -0.2628,-23.41108 -14.0654,19.7806 c -7.7793,10.87644 -18.069,25.41189 -22.9553,32.29019 -14.0721,19.82443 -21.5995,29.8774 -22.3609,29.8774 -1.2259,0 -14.0722,-13.39359 -18.7936,-19.55741 -5.0716,-6.5556 -10.0272,-16.15375 -12.5357,-24.0369 -7.431,-23.46357 -2.4514,-52.49285 13.0325,-75.50054 8.042,-12.00362 23.4533,-24.801 36.1374,-30.07959 7.3435,-3.14765 17.7888,-5.85518 21.8447,-5.85518 6.7286,0 6.641,0.35022 2.7076,-23.05173 -3.929,-23.57568 -6.7286,-36.48596 -8.9086,-40.735 -6.12,-12.1503 -23.7854,-23.14885 -49.8874,-31.03131 -14.2671,-4.27706 -12.8924,-4.89648 -19.6516,8.56936 -7.081,14.10052 -10.6116,18.916 -22.4568,30.30442 -16.0595,15.43797 -28.8121,23.6996 -48.2795,31.29363 -4.3711,1.77296 -7.8667,3.3336 -7.8667,3.76259 0,1.5103 28.3047,57.18681 29.0391,57.18681 0.4158,0 2.8039,0.74421 5.2445,1.77297 5.5947,2.16696 13.4264,9.11882 16.4163,14.80984 1.9043,3.67063 2.1889,4.8964 2.1889,12.17433 0,7.429 -0.215,8.56721 -2.5413,13.32357 -4.1106,8.56722 -9.3967,12.90114 -19.2575,15.76853 -21.2668,6.20317 -42.3698,-16.37046 -35.1579,-37.57149 l 1.751,-5.24446 -16.0224,-32.0991 -16.0224,-32.09929 h -23.8529 -23.8557 l -16.2173,31.56724 -16.2172,31.55577 1.576,4.89648 c 2.1889,6.72849 2.1013,14.96736 -0.1547,20.9189 -3.5811,9.54555 -14.1182,17.70774 -24.2751,18.85473 -9.1691,1.05065 -20.4373,-3.67073 -26.3905,-10.86327 -4.5463,-5.59252 -6.2055,-11.18064 -5.6823,-20.21846 0.6347,-13.31478 7.0809,-21.52298 20.84,-26.66308 l 4.4609,-1.57597 14.1094,-28.23664 c 7.7791,-15.52329 13.9341,-28.37496 13.724,-28.55118 -0.2099,-0.17899 -3.8479,-1.77298 -8.0417,-3.33362 -15.9634,-6.29734 -32.982,-16.58271 -45.5781,-27.58851 -11.2858,-9.86949 -22.4043,-25.44543 -27.903,-39.09198 -1.4884,-3.67073 -3.152,-6.72858 -3.7627,-6.99563 -1.576,-0.59099 -19.3188,4.62503 -29.3801,8.56937 -21.013,8.39209 -32.8333,18.03399 -36.2161,29.74635 -3.8481,13.26875 -11.3623,55.93675 -10.3402,58.59397 0.3722,0.96309 1.576,1.31331 4.4588,1.31331 8.2147,0 26.1909,6.20324 35.332,12.13504 5.5071,3.67072 20.3585,18.38197 24.4935,24.4414 5.9493,8.65467 11.6074,22.72926 14.2143,35.30594 4.8965,23.67332 -0.7004,46.31244 -16.4076,66.14692 -4.8965,6.20321 -15.6547,17.02709 -16.8958,17.02709 -0.8536,-0.004 -10.9355,-13.79415 -36.0664,-49.45033 -12.4042,-17.60492 -22.9092,-31.7843 -23.3399,-31.52216 -0.7879,0.50344 -0.5034,37.14158 0.788,111.15743 l 0.5254,30.58549 -1.8168,-0.9631 c -6.4702,-3.41023 -39.5379,-36.39996 -51.505,-51.31239 -24.9399,-31.06879 -38.2268,-60.40376 -38.1734,-84.28553 0.025,-12.59685 5.2445,-27.96303 13.2513,-39.19642 4.9731,-6.99555 16.633,-17.89389 24.861,-23.2951 7.8667,-5.15914 25.8838,-14.29976 28.2253,-14.29976 0.8536,0 1.8167,-0.80987 2.2851,-1.9043 0.4158,-1.05065 2.8105,-13.51178 5.2445,-27.65944 7.1663,-41.06721 9.2238,-48.37608 16.6003,-59.22401 12.4829,-18.38197 38.2086,-33.2005 75.0194,-43.20073 5.7698,-1.57597 10.6729,-3.3336 11.5637,-4.27696 1.9918,-1.90431 2.7996,-7.60627 1.3132,-8.79489 -0.5909,-0.50344 -5.4195,-1.81675 -10.7865,-2.95925 -30.578,-6.72857 -39.8087,-14.11596 -49.0923,-39.23152 -3.929,-10.7779 -6.8183,-23.1226 -7.7814,-33.5151 -0.9631,-11.0143 -1.0506,-35.6844 -0.093,-36.2952 0.9631,-0.591 3.4847,3.929 19.0321,34.2761 13.2513,25.8384 16.4952,31.6344 18.3579,32.8218 0.569,0.3721 11.938,2.0137 25.2715,3.6707 l 24.2229,2.9593 4.1981,-4.196 c 2.3553,-2.2851 3.929,-4.3712 3.6663,-4.7191 -0.3282,-0.3284 -3.6663,-1.379 -7.4311,-2.3596 -8.7422,-2.2852 -20.1133,-7.1664 -25.5075,-10.8634 -16.7667,-11.5571 -30.7966,-59.7743 -27.702,-95.2602 0.5035,-5.7698 1.0506,-10.6203 1.1164,-10.7976 0.1469,-0.1632 5.2445,9.6507 11.3032,21.8009 z"
     id="path4100" />
</svg>
