<?xml version="1.0" encoding="UTF-8" standalone="no"?>
<svg
   width="498.898"
   height="544.252"
   viewBox="0 0 1320 1440"
   version="1.1"
   id="svg73892"
   sodipodi:docname="1_PRINCE.svg"
   inkscape:version="1.2 (dc2aedaf03, 2022-05-15)"
   xmlns:inkscape="http://www.inkscape.org/namespaces/inkscape"
   xmlns:sodipodi="http://sodipodi.sourceforge.net/DTD/sodipodi-0.dtd"
   xmlns="http://www.w3.org/2000/svg"
   xmlns:svg="http://www.w3.org/2000/svg">
  <sodipodi:namedview
     id="namedview73894"
     pagecolor="#ffffff"
     bordercolor="#666666"
     borderopacity="1.0"
     inkscape:showpageshadow="2"
     inkscape:pageopacity="0.0"
     inkscape:pagecheckerboard="0"
     inkscape:deskcolor="#d1d1d1"
     showgrid="false"
     inkscape:zoom="0.48753485"
     inkscape:cx="-11.281245"
     inkscape:cy="-220.49706"
     inkscape:window-width="1916"
     inkscape:window-height="2022"
     inkscape:window-x="5750"
     inkscape:window-y="0"
     inkscape:window-maximized="0"
     inkscape:current-layer="svg73892" />
  <style
     id="style73796"><![CDATA[.B{color-interpolation-filters:sRGB}.C{fill-opacity:.98}]]></style>
  <defs
     id="defs73842">
    <linearGradient
       id="A"
       x1="-1430.769"
       y1="-77.47"
       x2="-1409.955"
       y2="-77.47"
       spreadMethod="reflect"
       gradientUnits="userSpaceOnUse">
      <stop
         offset="0"
         stop-color="#ffd285"
         id="stop73798" />
      <stop
         offset=".232"
         stop-color="#ffcd79"
         id="stop73800" />
      <stop
         offset=".616"
         stop-color="#ffca73"
         id="stop73802" />
      <stop
         offset=".808"
         stop-color="#ffd386"
         id="stop73804" />
      <stop
         offset="1"
         stop-color="#ffc86e"
         id="stop73806" />
    </linearGradient>
    <filter
       id="B"
       x="-0.011663823"
       y="-0.0099550202"
       width="1.0233276"
       height="1.01991"
       class="B">
      <feGaussianBlur
         stdDeviation="2.441"
         id="feGaussianBlur73809" />
    </filter>
    <linearGradient
       id="C"
       x1="-904.556"
       y1="-406.052"
       x2="-904.556"
       y2="184.159"
       gradientUnits="userSpaceOnUse">
      <stop
         offset="0"
         id="stop73812" />
      <stop
         offset=".604"
         stop-color="#fff"
         id="stop73814" />
    </linearGradient>
    <filter
       inkscape:label="Combined Lighting"
       inkscape:menu="Bevels"
       inkscape:menu-tooltip="Basic specular bevel to use for building textures"
       style="color-interpolation-filters:sRGB;"
       id="filter2191"
       x="-0.047710744"
       y="-0.041741847"
       width="1.0954215"
       height="1.0834837">
      <feGaussianBlur
         stdDeviation="6"
         in="SourceGraphic"
         result="result0"
         id="feGaussianBlur2173" />
      <feDiffuseLighting
         lighting-color="rgb(255,255,255)"
         diffuseConstant="1"
         surfaceScale="4"
         result="result5"
         id="feDiffuseLighting2177">
        <feDistantLight
           elevation="45"
           azimuth="235"
           id="feDistantLight2175" />
      </feDiffuseLighting>
      <feComposite
         k1="1.4"
         in2="SourceGraphic"
         in="result5"
         result="fbSourceGraphic"
         operator="arithmetic"
         id="feComposite2179" />
      <feGaussianBlur
         result="result0"
         in="fbSourceGraphic"
         stdDeviation="6"
         id="feGaussianBlur2181" />
      <feSpecularLighting
         specularExponent="25"
         specularConstant="1"
         surfaceScale="4"
         lighting-color="rgb(255,255,255)"
         result="result1"
         in="result0"
         id="feSpecularLighting2185">
        <feDistantLight
           azimuth="280"
           elevation="45"
           id="feDistantLight2183" />
      </feSpecularLighting>
      <feComposite
         k3="1"
         k2="1"
         operator="arithmetic"
         in="fbSourceGraphic"
         in2="result1"
         result="result4"
         id="feComposite2187" />
      <feComposite
         operator="in"
         result="result2"
         in2="SourceGraphic"
         in="result4"
         id="feComposite2189" />
    </filter>
  </defs>
  <path
     style="mix-blend-mode:multiply"
     d="M-2699.281 228.709l26.181 28.949 190.592 72.165 210.264-77.468 75.234-461.629-45.894-49.39z"
     transform="matrix(-2.0051 0 0 2.0051 -4364.0778 706.82307)"
     opacity=".5"
     filter="url(#B)"
     id="path73844" />
  <path
     d="M-1220.221-390.88l-194.139 75.893-8.809 28.459-70.567 506.333 10.349 7.986h525.404l10.348-7.986-70.567-506.333-8.809-28.459z"
     fill="url(#A)"
     transform="matrix(-2.0051 0 0 -2.0051 -1787.6392 533.54186)"
     id="path73846" />
  <path
     d="M-904.556-434.511l-194.139 75.893-8.809 31.887-70.567 502.905 10.349 7.986h525.404l10.349-7.986-70.567-502.905-8.809-31.887z"
     opacity=".25"
     fill="url(#C)"
     transform="matrix(-2.0051 0 0 -2.0051 -1154.6881 446.05464)"
     style="mix-blend-mode:overlay"
     id="path73848" />
  <path
     d="M133.204 97.854l.043-21.064-20.75 16.013 20.707 5.052zm932.803 1010.214l-17.664-13.248-389.274 149.021v16.402z"
     opacity=".4"
     id="path73850" />
  <path
     d="M253.993 1108.068l17.664-13.248 387.412 149.021v16.402z"
     opacity=".6"
     id="path73852" />
  <path
     d="M253.993 1108.068l17.664-13.248L133.204 97.854l-20.707-5.052z"
     opacity=".6"
     id="path73854" />
  <g
     fill="#fff"
     id="g73862">
    <path
       d="M1066.007 1108.068l-17.664-13.248 138.453-996.966 20.707-5.052z"
       opacity=".3"
       id="path73856" />
    <path
       d="M1186.796 97.854l-.043-21.064 20.75 16.013-20.707 5.052z"
       opacity=".8"
       id="path73858" />
    <path
       d="M1186.796 97.854H133.204l.043-21.064h1053.506l.043 21.064z"
       opacity=".3"
       id="path73860" />
  </g>
  <path
     d="M271.655 1165.416l-17.663-57.348 405.076 152.176 406.938-152.176-17.663 57.348-389.275 152.176-387.413-152.176z"
     opacity=".7"
     id="path73864" />
  <path
     id="path53892"
     style="color:#000000;font-style:normal;font-variant:normal;font-weight:normal;font-stretch:normal;font-size:29.072px;line-height:1.25;font-family:MingLiU_HKSCS-ExtB;-inkscape-font-specification:MingLiU_HKSCS-ExtB;font-variant-ligatures:normal;font-variant-position:normal;font-variant-caps:normal;font-variant-numeric:normal;font-variant-alternates:normal;font-variant-east-asian:normal;font-feature-settings:normal;font-variation-settings:normal;text-indent:0;text-align:start;text-decoration:none;text-decoration-line:none;text-decoration-style:solid;text-decoration-color:#000000;letter-spacing:0px;word-spacing:0px;text-transform:none;writing-mode:lr-tb;direction:ltr;text-orientation:mixed;dominant-baseline:auto;baseline-shift:baseline;text-anchor:start;white-space:normal;shape-padding:0;shape-margin:0;inline-size:0;clip-rule:nonzero;display:inline;overflow:visible;visibility:visible;opacity:0.99;isolation:auto;mix-blend-mode:normal;color-interpolation:sRGB;color-interpolation-filters:linearRGB;solid-color:#000000;solid-opacity:1;vector-effect:none;fill:#9b0000;fill-opacity:1;fill-rule:nonzero;stroke:none;stroke-width:12.4272;stroke-linecap:butt;stroke-linejoin:round;stroke-miterlimit:4;stroke-dasharray:none;stroke-dashoffset:0;stroke-opacity:1;color-rendering:auto;image-rendering:auto;shape-rendering:auto;text-rendering:auto;enable-background:accumulate;stop-color:#000000;filter:url(#filter2191)"
     d="m 826.90174,918.3938 c 9.7612,-0.2997 16.3677,-10.0421 13.0022,-19.2425 l -24.4627,-75.1353 c -2.3368,-5.5804 -7.9426,-9.1295 -13.9853,-8.7237 h -198.1653 l 97.0795,-74.603 V 633.5418 h 222.0741 c 6.5075,0.088 12.2428,-4.2563 13.9853,-10.4785 l 24.4627,-64.6571 c 3.523,-9.5359 -3.8253,-19.6083 -13.9853,-19.2217 h -246.535 V 331.2317 l 76.5832,0.8992 c 5.8471,-0.6477 13.7414,0.4242 21.115,-0.3988 l -24.6964,-32.7311 c -24.6964,-31.6531 -39.6524,-48.3393 -74.9681,-70.5623 -29.8841,0.5994 -59.395,12.4968 -101.7978,35.0946 l 0.6604,67.6872 v 207.9371 h -224.2669 c -10.16,-0.3734 -17.4574,9.6358 -13.97,19.2217 l 24.4526,70.7281 c 1.7526,6.2892 43.1264,4.509 49.6288,4.4295 h 164.1494 v 107.0093 l -93.1173,74.7255 c -45.1178,34.8126 -64.867,42.1393 -68.6351,83.8692 -3.4773,9.5355 3.8252,19.5982 13.9674,19.2228 l 376.436,-0.019 c 0.3302,0.018 0.6604,0.024 0.9906,0.019 z"
     sodipodi:nodetypes="cccccccccccccccccccccccccccccccc" />
</svg>
