<?xml version="1.0" encoding="UTF-8" standalone="no"?>
<svg
   width="498.898"
   height="544.252"
   viewBox="0 0 1320 1440"
   version="1.1"
   id="svg73892"
   sodipodi:docname="1_QUEEN.svg"
   inkscape:version="1.2 (dc2aedaf03, 2022-05-15)"
   xmlns:inkscape="http://www.inkscape.org/namespaces/inkscape"
   xmlns:sodipodi="http://sodipodi.sourceforge.net/DTD/sodipodi-0.dtd"
   xmlns="http://www.w3.org/2000/svg"
   xmlns:svg="http://www.w3.org/2000/svg">
  <sodipodi:namedview
     id="namedview73894"
     pagecolor="#ffffff"
     bordercolor="#666666"
     borderopacity="1.0"
     inkscape:showpageshadow="2"
     inkscape:pageopacity="0.0"
     inkscape:pagecheckerboard="0"
     inkscape:deskcolor="#d1d1d1"
     showgrid="false"
     inkscape:zoom="0.48753485"
     inkscape:cx="138.45164"
     inkscape:cy="993.77512"
     inkscape:window-width="1916"
     inkscape:window-height="2022"
     inkscape:window-x="5740"
     inkscape:window-y="0"
     inkscape:window-maximized="0"
     inkscape:current-layer="svg73892" />
  <style
     id="style73796"><![CDATA[.B{color-interpolation-filters:sRGB}.C{fill-opacity:.98}]]></style>
  <defs
     id="defs73842">
    <linearGradient
       id="A"
       x1="-1430.769"
       y1="-77.47"
       x2="-1409.955"
       y2="-77.47"
       spreadMethod="reflect"
       gradientUnits="userSpaceOnUse">
      <stop
         offset="0"
         stop-color="#ffd285"
         id="stop73798" />
      <stop
         offset=".232"
         stop-color="#ffcd79"
         id="stop73800" />
      <stop
         offset=".616"
         stop-color="#ffca73"
         id="stop73802" />
      <stop
         offset=".808"
         stop-color="#ffd386"
         id="stop73804" />
      <stop
         offset="1"
         stop-color="#ffc86e"
         id="stop73806" />
    </linearGradient>
    <filter
       id="B"
       x="-0.011663823"
       y="-0.0099550202"
       width="1.0233276"
       height="1.01991"
       class="B">
      <feGaussianBlur
         stdDeviation="2.441"
         id="feGaussianBlur73809" />
    </filter>
    <linearGradient
       id="C"
       x1="-904.556"
       y1="-406.052"
       x2="-904.556"
       y2="184.159"
       gradientUnits="userSpaceOnUse">
      <stop
         offset="0"
         id="stop73812" />
      <stop
         offset=".604"
         stop-color="#fff"
         id="stop73814" />
    </linearGradient>
    <filter
       inkscape:label="Combined Lighting"
       inkscape:menu="Bevels"
       inkscape:menu-tooltip="Basic specular bevel to use for building textures"
       style="color-interpolation-filters:sRGB;"
       id="filter2484"
       x="-0.052737401"
       y="-0.046551398"
       width="1.1054748"
       height="1.0931028">
      <feGaussianBlur
         stdDeviation="6"
         in="SourceGraphic"
         result="result0"
         id="feGaussianBlur2466" />
      <feDiffuseLighting
         lighting-color="rgb(255,255,255)"
         diffuseConstant="1"
         surfaceScale="4"
         result="result5"
         id="feDiffuseLighting2470">
        <feDistantLight
           elevation="45"
           azimuth="235"
           id="feDistantLight2468" />
      </feDiffuseLighting>
      <feComposite
         k1="1.4"
         in2="SourceGraphic"
         in="result5"
         result="fbSourceGraphic"
         operator="arithmetic"
         id="feComposite2472" />
      <feGaussianBlur
         result="result0"
         in="fbSourceGraphic"
         stdDeviation="6"
         id="feGaussianBlur2474" />
      <feSpecularLighting
         specularExponent="25"
         specularConstant="1"
         surfaceScale="4"
         lighting-color="rgb(255,255,255)"
         result="result1"
         in="result0"
         id="feSpecularLighting2478">
        <feDistantLight
           azimuth="235"
           elevation="45"
           id="feDistantLight2476" />
      </feSpecularLighting>
      <feComposite
         k3="1"
         k2="1"
         operator="arithmetic"
         in="fbSourceGraphic"
         in2="result1"
         result="result4"
         id="feComposite2480" />
      <feComposite
         operator="in"
         result="result2"
         in2="SourceGraphic"
         in="result4"
         id="feComposite2482" />
    </filter>
    <filter
       inkscape:label="Combined Lighting"
       inkscape:menu="Bevels"
       inkscape:menu-tooltip="Basic specular bevel to use for building textures"
       style="color-interpolation-filters:sRGB;"
       id="filter4817"
       x="-0.033242038"
       y="-0.033242027"
       width="1.0664841"
       height="1.0664841">
      <feGaussianBlur
         stdDeviation="6"
         in="SourceGraphic"
         result="result0"
         id="feGaussianBlur4799" />
      <feDiffuseLighting
         lighting-color="rgb(255,255,255)"
         diffuseConstant="1"
         surfaceScale="4"
         result="result5"
         id="feDiffuseLighting4803">
        <feDistantLight
           elevation="45"
           azimuth="235"
           id="feDistantLight4801" />
      </feDiffuseLighting>
      <feComposite
         k1="1.4"
         in2="SourceGraphic"
         in="result5"
         result="fbSourceGraphic"
         operator="arithmetic"
         id="feComposite4805" />
      <feGaussianBlur
         result="result0"
         in="fbSourceGraphic"
         stdDeviation="6"
         id="feGaussianBlur4807" />
      <feSpecularLighting
         specularExponent="25"
         specularConstant="1"
         surfaceScale="4"
         lighting-color="rgb(255,255,255)"
         result="result1"
         in="result0"
         id="feSpecularLighting4811">
        <feDistantLight
           azimuth="280"
           elevation="45"
           id="feDistantLight4809" />
      </feSpecularLighting>
      <feComposite
         k3="1"
         k2="1"
         operator="arithmetic"
         in="fbSourceGraphic"
         in2="result1"
         result="result4"
         id="feComposite4813" />
      <feComposite
         operator="in"
         result="result2"
         in2="SourceGraphic"
         in="result4"
         id="feComposite4815" />
    </filter>
  </defs>
  <path
     style="mix-blend-mode:multiply"
     d="M-2699.281 228.709l26.181 28.949 190.592 72.165 210.264-77.468 75.234-461.629-45.894-49.39z"
     transform="matrix(-2.0051 0 0 2.0051 -4364.0778 706.82307)"
     opacity=".5"
     filter="url(#B)"
     id="path73844" />
  <path
     d="M-1220.221-390.88l-194.139 75.893-8.809 28.459-70.567 506.333 10.349 7.986h525.404l10.348-7.986-70.567-506.333-8.809-28.459z"
     fill="url(#A)"
     transform="matrix(-2.0051 0 0 -2.0051 -1787.6392 533.54186)"
     id="path73846" />
  <path
     d="M-904.556-434.511l-194.139 75.893-8.809 31.887-70.567 502.905 10.349 7.986h525.404l10.349-7.986-70.567-502.905-8.809-31.887z"
     opacity=".25"
     fill="url(#C)"
     transform="matrix(-2.0051 0 0 -2.0051 -1154.6881 446.05464)"
     style="mix-blend-mode:overlay;filter:url(#filter2484)"
     id="path73848" />
  <path
     d="M133.204 97.854l.043-21.064-20.75 16.013 20.707 5.052zm932.803 1010.214l-17.664-13.248-389.274 149.021v16.402z"
     opacity=".4"
     id="path73850" />
  <path
     d="M253.993 1108.068l17.664-13.248 387.412 149.021v16.402z"
     opacity=".6"
     id="path73852" />
  <path
     d="M253.993 1108.068l17.664-13.248L133.204 97.854l-20.707-5.052z"
     opacity=".6"
     id="path73854" />
  <g
     fill="#fff"
     id="g73862">
    <path
       d="M1066.007 1108.068l-17.664-13.248 138.453-996.966 20.707-5.052z"
       opacity=".3"
       id="path73856" />
    <path
       d="M1186.796 97.854l-.043-21.064 20.75 16.013-20.707 5.052z"
       opacity=".8"
       id="path73858" />
    <path
       d="M1186.796 97.854H133.204l.043-21.064h1053.506l.043 21.064z"
       opacity=".3"
       id="path73860" />
  </g>
  <path
     d="M271.655 1165.416l-17.663-57.348 405.076 152.176 406.938-152.176-17.663 57.348-389.275 152.176-387.413-152.176z"
     opacity=".7"
     id="path73864" />
  <path
     id="path27925-7"
     style="fill:#020202;fill-opacity:1;stroke:none;stroke-width:20.0607;stroke-linecap:round;stroke-linejoin:round;stroke-dasharray:none;paint-order:stroke fill markers;filter:url(#filter4817)"
     d="m 659.99623,1049.1225 57.07328,-212.97423 c 0,0 -36.651,4.42033 -56.18438,4.42878 -19.5983,0.0113 -58.1574,-4.42878 -58.1574,-4.42878 z M 353.66041,922.31753 544.61062,812.07667 c -6.7e-4,5.6e-4 -29.0448,-22.7923 -42.86109,-36.59792 -13.86435,-13.85015 -37.98585,-44.25482 -37.98585,-44.25482 z m 612.54534,-0.0288 -110.09761,-191.09332 c 0,0 -24.1286,30.4041 -37.99173,44.25455 -13.81629,13.80506 -42.8602,36.5982 -42.86076,36.59792 z M 659.89867,814.03228 A 198.09917,198.09917 0 0 0 857.99493,615.93579 198.09917,198.09917 0 0 0 659.89867,417.83958 198.09917,198.09917 0 0 0 461.79654,615.93579 198.09917,198.09917 0 0 0 659.89867,814.03228 Z m 91.38854,-81.88481 c -0.051,0.003 -0.10322,-0.002 -0.15505,0 -0.11099,0.002 -0.22275,-0.0111 -0.33829,-0.0172 l -181.21126,0.0172 c -3.41676,0.11558 -5.86659,-3.27296 -4.70221,-6.48108 l 8.22607,-25.30974 c 0.78934,-1.88879 2.67813,-3.05307 4.69655,-2.93749 h 65.3151 v -61.20288 h -46.48583 c -2.19889,0.0386 -4.1243,-1.38135 -4.70221,-3.50412 l -8.21764,-21.78306 c -1.18401,-3.23631 1.26859,-6.58821 4.69655,-6.46417 h 54.7159 v -70.01252 h -93.56201 c -2.19888,0.0383 -4.1243,-1.40954 -4.70221,-3.52668 l -7.63417,-25.30974 c -0.64839,-2.81908 1.26859,-5.53104 4.10743,-5.86651 h 236.53559 c 3.08968,0 5.3788,2.86419 4.69656,5.86651 l -8.2233,25.30974 c -0.50743,1.91698 -2.1425,3.30679 -4.11298,3.52668 h -92.38654 v 70.01252 h 55.90924 c 3.42807,-0.12516 5.87779,3.27296 4.70221,6.48108 l -8.22607,21.76615 c -0.56381,2.08612 -2.53717,3.54923 -4.71908,3.52104 h -47.64454 v 61.18568 h 64.70733 c 2.02974,-0.12517 3.93818,1.07126 4.71909,2.95441 l 8.22329,25.29282 c 1.09944,3.05307 -1.04306,6.28656 -4.22585,6.48108 z m 128.89248,-59.0694 212.97421,-57.07321 -212.97421,-57.26857 c 0,0 4.44006,38.56027 4.42885,58.15742 -0.0111,19.53344 -4.42885,56.18436 -4.42885,56.18436 z m -440.42441,0 c 0,0 -4.4203,-36.65374 -4.42873,-56.18436 -0.0111,-19.59827 4.42873,-58.15742 4.42873,-58.15742 L 226.78103,616.00486 Z M 856.03344,500.64792 966.28022,309.69776 775.18684,419.8011 c 0,0 30.40417,24.1229 44.25454,37.98575 13.80508,13.81633 36.59262,42.86051 36.59206,42.86107 z m -392.20095,-0.0287 c -5.5e-4,-5.6e-4 22.78665,-29.04474 36.59229,-42.86108 13.85014,-13.86425 44.25454,-37.98575 44.25454,-37.98575 L 353.59171,309.66902 Z M 717.06951,395.72359 659.99623,182.74935 602.72773,395.72359 c 0,0 38.56021,-4.44006 58.1574,-4.42878 19.53338,0.008 56.18438,4.42878 56.18438,4.42878 z" />
</svg>
