<?xml version="1.0" encoding="UTF-8" standalone="no"?>
<svg
   width="498.898"
   height="544.252"
   viewBox="0 0 1320 1440"
   version="1.1"
   id="svg53641"
   sodipodi:docname="1_SIDEMOVER.svg"
   inkscape:version="1.2 (dc2aedaf03, 2022-05-15)"
   xmlns:inkscape="http://www.inkscape.org/namespaces/inkscape"
   xmlns:sodipodi="http://sodipodi.sourceforge.net/DTD/sodipodi-0.dtd"
   xmlns="http://www.w3.org/2000/svg"
   xmlns:svg="http://www.w3.org/2000/svg">
  <sodipodi:namedview
     id="namedview53643"
     pagecolor="#ffffff"
     bordercolor="#666666"
     borderopacity="1.0"
     inkscape:showpageshadow="2"
     inkscape:pageopacity="0.0"
     inkscape:pagecheckerboard="0"
     inkscape:deskcolor="#d1d1d1"
     showgrid="false"
     inkscape:zoom="0.68947839"
     inkscape:cx="93.54898"
     inkscape:cy="316.90623"
     inkscape:window-width="3840"
     inkscape:window-height="2036"
     inkscape:window-x="3828"
     inkscape:window-y="-12"
     inkscape:window-maximized="1"
     inkscape:current-layer="svg53641" />
  <style
     id="style53550"><![CDATA[.B{color-interpolation-filters:sRGB}]]></style>
  <defs
     id="defs53599">
    <linearGradient
       id="A"
       x1="-1430.769"
       y1="-77.47"
       x2="-1409.955"
       y2="-77.47"
       spreadMethod="reflect"
       gradientUnits="userSpaceOnUse">
      <stop
         offset="0"
         stop-color="#ffd285"
         id="stop53552" />
      <stop
         offset=".232"
         stop-color="#ffcd79"
         id="stop53554" />
      <stop
         offset=".616"
         stop-color="#ffca73"
         id="stop53556" />
      <stop
         offset=".808"
         stop-color="#ffd386"
         id="stop53558" />
      <stop
         offset="1"
         stop-color="#ffc86e"
         id="stop53560" />
    </linearGradient>
    <filter
       id="B"
       x="-0.013119982"
       y="-0.01088309"
       width="1.02624"
       height="1.0217662"
       class="B">
      <feGaussianBlur
         stdDeviation="2.441"
         id="feGaussianBlur53563" />
    </filter>
    <linearGradient
       id="C"
       x1="-905.02"
       y1="-384.47"
       x2="-904.556"
       y2="184.159"
       gradientUnits="userSpaceOnUse">
      <stop
         offset="0"
         id="stop53566" />
      <stop
         offset=".603"
         stop-color="#fff"
         id="stop53568" />
    </linearGradient>
    <filter
       inkscape:label="Combined Lighting"
       inkscape:menu="Bevels"
       inkscape:menu-tooltip="Basic specular bevel to use for building textures"
       style="color-interpolation-filters:sRGB;"
       id="filter5765"
       x="-0.044811471"
       y="-0.041081776"
       width="1.0896229"
       height="1.0821636">
      <feGaussianBlur
         stdDeviation="6"
         in="SourceGraphic"
         result="result0"
         id="feGaussianBlur5747" />
      <feDiffuseLighting
         lighting-color="rgb(255,255,255)"
         diffuseConstant="1"
         surfaceScale="4"
         result="result5"
         id="feDiffuseLighting5751">
        <feDistantLight
           elevation="45"
           azimuth="235"
           id="feDistantLight5749" />
      </feDiffuseLighting>
      <feComposite
         k1="1.4"
         in2="SourceGraphic"
         in="result5"
         result="fbSourceGraphic"
         operator="arithmetic"
         id="feComposite5753" />
      <feGaussianBlur
         result="result0"
         in="fbSourceGraphic"
         stdDeviation="6"
         id="feGaussianBlur5755" />
      <feSpecularLighting
         specularExponent="25"
         specularConstant="1"
         surfaceScale="4"
         lighting-color="rgb(255,255,255)"
         result="result1"
         in="result0"
         id="feSpecularLighting5759">
        <feDistantLight
           azimuth="280"
           elevation="45"
           id="feDistantLight5757" />
      </feSpecularLighting>
      <feComposite
         k3="1"
         k2="1"
         operator="arithmetic"
         in="fbSourceGraphic"
         in2="result1"
         result="result4"
         id="feComposite5761" />
      <feComposite
         operator="in"
         result="result2"
         in2="SourceGraphic"
         in="result4"
         id="feComposite5763" />
    </filter>
  </defs>
  <path
     style="mix-blend-mode:multiply"
     d="M-2659.569 204.596l26.181 28.949 150.416 46.096 171.017-51.398 98.911-437.515-45.894-49.39z"
     transform="matrix(-2.0051 0 0 2.0051 -4364.0778 706.82307)"
     opacity=".5"
     filter="url(#B)"
     id="path53601" />
  <path
     d="M-1220.686-340.838l-153.963 49.823-8.809 28.459-94.245 482.361 10.349 7.986h493.336l10.348-7.986-94.244-482.361-8.809-28.459z"
     fill="url(#A)"
     transform="matrix(-2.0051 0 0 -2.0051 -1787.6392 533.54186)"
     id="path53603" />
  <path
     d="M-905.02-384.47l-153.963 49.823-8.809 26.778-94.245 484.042 10.349 7.986h493.336l10.349-7.986-94.244-482.219-8.809-28.601z"
     opacity=".25"
     fill="url(#C)"
     transform="matrix(-2.0051 0 0 -2.0051 -1154.6881 446.05465)"
     style="mix-blend-mode:overlay"
     id="path53605" />
  <path
     d="M165.355 97.854l.043-21.064-20.75 16.013 20.707 5.052zm821.025 961.863l-17.664-13.248L660 1143.218v16.402z"
     opacity=".4"
     id="path53607" />
  <path
     d="M333.62 1059.717l17.664-13.248L660 1143.218v16.402z"
     opacity=".6"
     id="path53609" />
  <path
     d="M333.62 1059.717l17.664-13.248L165.355 97.854l-20.707-5.052z"
     opacity=".6"
     id="path53611" />
  <g
     fill="#fff"
     id="g53619">
    <path
       d="M986.38 1059.717l-17.664-13.248 185.93-948.615 20.707-5.052z"
       opacity=".3"
       id="path53613" />
    <path
       d="M1154.646 97.854l-.043-21.064 20.75 16.013-20.707 5.052z"
       opacity=".8"
       id="path53615" />
    <path
       d="M1154.646 97.854H165.355l.043-21.064h989.205l.043 21.064z"
       opacity=".3"
       id="path53617" />
  </g>
  <path
     d="M351.283 1117.065l-17.663-57.348L660 1159.62l326.38-99.903-17.663 57.348L660 1216.968l-308.717-99.903z"
     opacity=".7"
     id="path53621" />
  <path
     style="fill:#000000;stroke-width:0.930918;filter:url(#filter5765)"
     d="m 494.9704,210.36354 c 9.52503,25.58029 25.93084,68.73219 26.52189,69.75955 0.54455,0.93547 71.87754,12.03877 77.34035,12.03877 1.82959,0 8.17675,-1.75398 14.01205,-3.75367 17.17891,-6.07505 21.04078,-6.41993 48.41695,-6.41993 27.25315,0.0263 32.95097,0.84785 49.01715,7.0045 4.43677,1.75411 9.83644,3.15167 12.056,3.15167 4.52391,0.0125 65.75324,-9.22069 75.1305,-11.32268 l 2.79025,-0.61391 18.48591,-49.00117 c 10.16111,-26.94563 18.7211,-49.00154 18.99776,-49.01144 0.87117,-0.0125 1.82959,17.04659 1.65539,31.26833 -0.30496,38.48357 -10.65764,85.1117 -22.90362,103.10392 -5.92021,8.64176 -16.17921,15.66682 -30.73226,20.98165 -3.56344,1.28637 -6.69564,2.68958 -6.95914,3.05201 -0.74059,0.87705 7.13343,12.31958 8.00246,11.74366 0.34849,-0.27957 11.12597,-2.105 23.94713,-3.95262 12.81182,-1.84174 23.74725,-3.75079 24.29515,-3.85309 1.98212,-0.78929 7.91756,-15.0148 23.79993,-57.07979 3.82927,-10.04208 8.43818,-21.98745 10.30047,-26.41935 3.13649,-7.46947 3.39578,-7.82024 3.90978,-5.49022 0.87118,4.20386 0.80589,26.88997 -0.10003,43.142 -1.21976,22.20659 -5.56724,43.88754 -12.66592,63.54835 -7.82817,21.66866 -18.22447,30.06195 -47.50364,38.29352 -6.78494,1.84173 -8.52309,2.68957 -8.4381,4.20385 0.0374,0.99402 0.12264,3.40303 0.19989,5.49035 0.20801,5.49022 2.43952,7.70631 9.46628,9.92226 18.03925,5.49022 42.64095,18.86786 55.75838,30.54244 11.86433,10.62378 21.91205,25.10365 26.6097,38.48357 2.69432,7.59209 6.08796,26.18831 9.55118,52.31631 5.92012,44.34311 7.21834,53.11149 8.00246,54.46518 0.47916,0.78942 1.82959,1.7541 3.04496,2.105 3.74428,1.14007 19.53792,12.31946 26.64435,18.66918 7.82826,7.00463 21.3916,24.59793 26.68816,34.74595 9.41173,18.03772 13.03178,42.30155 9.89967,66.45518 -3.99693,31.1031 -17.9196,65.45089 -41.38878,102.42707 -13.70055,21.5868 -46.40774,63.56014 -47.92966,61.50479 -0.20801,-0.27718 0.0439,-29.06204 0.5664,-63.94476 0.50093,-34.88585 0.80589,-77.51159 0.65336,-94.72115 l -0.26134,-31.26808 -13.99674,26.41922 c -7.74111,14.52663 -17.9805,33.94035 -22.84281,43.12708 -14.00328,26.47777 -21.49388,39.9047 -22.25158,39.9047 -1.21975,0 -14.00336,-17.88866 -18.70157,-26.12111 -5.04679,-8.75584 -9.97804,-21.57513 -12.47426,-32.10401 -7.39468,-31.33816 -2.43951,-70.11007 12.96865,-100.83945 8.00255,-16.03214 23.3386,-33.12448 35.96043,-40.17462 7.30772,-4.20398 17.70178,-7.82025 21.73785,-7.82025 6.69565,0 6.6085,0.46774 2.69442,-30.78818 -3.90979,-31.48797 -6.69565,-48.731 -8.86504,-54.40613 -6.09002,-16.22809 -23.66907,-30.91782 -49.64324,-41.44582 -14.19728,-5.71249 -12.82929,-6.53977 -19.55548,11.44542 -7.04628,18.83279 -10.55966,25.26437 -22.34684,40.47486 -15.981,20.61923 -28.67112,31.65346 -48.04324,41.79621 -4.34981,2.36801 -7.82816,4.45233 -7.82816,5.02537 0,2.01711 28.16608,76.3793 28.89687,76.3793 0.41387,0 2.79025,0.99402 5.21884,2.36801 5.56733,2.8943 13.36066,12.17931 16.33603,19.78029 1.89498,4.90251 2.17808,6.53965 2.17808,16.26018 0,9.92223 -0.2138,11.4424 -2.52871,17.79513 -4.09053,11.44241 -9.35075,17.23088 -19.16327,21.06064 -21.16286,8.28498 -42.16254,-21.8646 -34.98596,-50.18097 l 1.74254,-7.00462 -15.94402,-42.87196 -15.94401,-42.87209 h -23.73604 -23.73912 l -16.13783,42.16152 -16.13783,42.14622 1.56825,6.5399 c 2.17818,8.98664 2.09103,19.99053 -0.15402,27.93952 -3.56345,12.74909 -14.04904,23.65068 -24.15626,25.18251 -9.12415,1.40333 -20.33726,-4.90264 -26.26139,-14.50908 -4.52401,-7.46936 -6.17502,-14.93294 -5.65448,-27.00393 0.63169,-17.78348 7.04628,-28.74637 20.73815,-35.61159 l 4.43901,-2.10487 14.04026,-37.7132 c 7.74121,-20.73306 13.86607,-37.89799 13.65694,-38.1333 -0.20885,-0.23907 -3.82909,-2.36802 -8.00237,-4.45246 -15.88526,-8.41071 -32.82048,-22.14805 -45.35507,-36.84756 -11.2305,-13.18171 -22.29463,-33.9851 -27.7665,-52.21162 -1.48111,-4.90264 -3.1365,-8.98677 -3.74419,-9.34343 -1.56834,-0.78942 -19.22426,6.17722 -29.23639,11.44529 -20.91011,11.20861 -32.67253,24.08644 -36.0388,39.72957 -3.82918,17.72193 -11.30681,74.70982 -10.28955,78.25877 0.37026,1.28637 1.56825,1.7541 4.43687,1.7541 8.1746,0 26.06281,8.2851 35.15912,16.20777 5.48019,4.90264 20.2589,24.55117 24.37361,32.64421 5.92021,11.55925 11.55068,30.35743 14.14478,47.15504 4.8726,31.61835 -0.69697,61.85543 -16.32725,88.34649 -4.8725,8.28523 -15.57815,22.74166 -16.81314,22.74166 -0.8495,-0.0125 -10.8819,-18.4236 -35.88982,-66.04637 -12.34358,-23.5134 -22.79714,-42.45162 -23.22568,-42.10147 -0.78412,0.67245 -0.50102,49.6068 0.78413,148.46323 l 0.52268,40.85033 -1.80783,-1.28637 c -6.43859,-4.55462 -39.34436,-48.61616 -51.25286,-68.53348 -24.81784,-41.49583 -38.03966,-80.67592 -37.98661,-112.57271 0.0252,-16.82444 5.2188,-37.34776 13.18642,-52.35115 4.94881,-9.34331 16.5517,-23.89927 24.73938,-31.11326 7.82826,-6.89054 25.75711,-19.09893 28.08706,-19.09893 0.84951,0 1.80792,-1.08165 2.27401,-2.5434 0.41378,-1.4032 2.79669,-18.04649 5.21884,-36.94221 7.13119,-54.84992 9.1786,-64.6117 16.51892,-79.10034 12.42195,-24.55117 38.02167,-44.34299 74.65227,-57.69932 5.74163,-2.10487 10.62066,-4.45247 11.50716,-5.71239 1.98212,-2.5434 2.78586,-10.15905 1.3069,-11.74654 -0.58816,-0.67246 -5.39304,-2.42656 -10.73386,-3.9525 -30.42823,-8.98677 -39.61383,-18.85347 -48.85202,-52.39804 -3.90969,-14.39513 -6.78485,-30.88271 -7.74326,-44.76309 -0.95842,-14.71092 -1.04547,-47.66051 -0.0925,-48.47626 0.95841,-0.7893 3.46761,5.24764 18.93891,45.77942 13.18646,34.51013 16.41449,42.25128 18.26809,43.83714 0.56631,0.49694 11.87955,2.68957 25.14793,4.90263 l 24.10414,3.95263 4.17767,-5.6043 c 2.34378,-3.05201 3.90978,-5.83824 3.64844,-6.30296 -0.32673,-0.43853 -3.64844,-1.84174 -7.39477,-3.15142 -8.69953,-3.05213 -20.01493,-9.57147 -25.38275,-14.50933 -16.68461,-15.43578 -30.64576,-79.83511 -27.56633,-127.23047 0.50092,-7.7063 1.04546,-14.18464 1.11085,-14.42145 0.14617,-0.21801 5.21884,12.88949 11.24795,29.11757 z"
     id="path4100-3" />
</svg>
