<?xml version="1.0" encoding="UTF-8" standalone="no"?>
<svg
   width="498.898"
   height="544.252"
   viewBox="0 0 1320 1440"
   version="1.1"
   id="svg33652"
   sodipodi:docname="1_STAG.svg"
   inkscape:version="1.2 (dc2aedaf03, 2022-05-15)"
   xmlns:inkscape="http://www.inkscape.org/namespaces/inkscape"
   xmlns:sodipodi="http://sodipodi.sourceforge.net/DTD/sodipodi-0.dtd"
   xmlns="http://www.w3.org/2000/svg"
   xmlns:svg="http://www.w3.org/2000/svg">
  <sodipodi:namedview
     id="namedview33654"
     pagecolor="#ffffff"
     bordercolor="#666666"
     borderopacity="1.0"
     inkscape:showpageshadow="2"
     inkscape:pageopacity="0.0"
     inkscape:pagecheckerboard="0"
     inkscape:deskcolor="#d1d1d1"
     showgrid="false"
     inkscape:zoom="0.9750697"
     inkscape:cx="18.973003"
     inkscape:cy="322.54104"
     inkscape:window-width="1916"
     inkscape:window-height="2022"
     inkscape:window-x="1910"
     inkscape:window-y="0"
     inkscape:window-maximized="0"
     inkscape:current-layer="svg33652" />
  <style
     id="style33539"><![CDATA[.B{color-interpolation-filters:sRGB}]]></style>
  <defs
     id="defs33600">
    <linearGradient
       id="A"
       x1="-1430.769"
       y1="-77.47"
       x2="-1409.955"
       y2="-77.47"
       spreadMethod="reflect"
       gradientUnits="userSpaceOnUse">
      <stop
         offset="0"
         stop-color="#ffd285"
         id="stop33541" />
      <stop
         offset=".232"
         stop-color="#ffcd79"
         id="stop33543" />
      <stop
         offset=".616"
         stop-color="#ffca73"
         id="stop33545" />
      <stop
         offset=".808"
         stop-color="#ffd386"
         id="stop33547" />
      <stop
         offset="1"
         stop-color="#ffc86e"
         id="stop33549" />
    </linearGradient>
    <filter
       id="B"
       x="-0.013769729"
       y="-0.011050687"
       width="1.0275395"
       height="1.0221014"
       class="B">
      <feGaussianBlur
         stdDeviation="2.441"
         id="feGaussianBlur33552" />
    </filter>
    <linearGradient
       id="C"
       x1="-905.021"
       y1="-376.306"
       x2="-904.556"
       y2="184.159"
       gradientUnits="userSpaceOnUse">
      <stop
         offset="0"
         id="stop33555" />
      <stop
         offset=".602"
         stop-color="#fff"
         id="stop33557" />
    </linearGradient>
    <filter
       inkscape:label="Combined Lighting"
       inkscape:menu="Bevels"
       inkscape:menu-tooltip="Basic specular bevel to use for building textures"
       style="color-interpolation-filters:sRGB;"
       id="filter47480"
       x="-0.050564301"
       y="-0.031973925"
       width="1.1011286"
       height="1.0639479">
      <feGaussianBlur
         stdDeviation="6"
         in="SourceGraphic"
         result="result0"
         id="feGaussianBlur47462" />
      <feDiffuseLighting
         lighting-color="rgb(255,255,255)"
         diffuseConstant="1"
         surfaceScale="4"
         result="result5"
         id="feDiffuseLighting47466">
        <feDistantLight
           elevation="45"
           azimuth="235"
           id="feDistantLight47464" />
      </feDiffuseLighting>
      <feComposite
         k1="1.4"
         in2="SourceGraphic"
         in="result5"
         result="fbSourceGraphic"
         operator="arithmetic"
         id="feComposite47468" />
      <feGaussianBlur
         result="result0"
         in="fbSourceGraphic"
         stdDeviation="6"
         id="feGaussianBlur47470" />
      <feSpecularLighting
         specularExponent="25"
         specularConstant="1"
         surfaceScale="4"
         lighting-color="rgb(255,255,255)"
         result="result1"
         in="result0"
         id="feSpecularLighting47474">
        <feDistantLight
           azimuth="280"
           elevation="45"
           id="feDistantLight47472" />
      </feSpecularLighting>
      <feComposite
         k3="1"
         k2="1"
         operator="arithmetic"
         in="fbSourceGraphic"
         in2="result1"
         result="result4"
         id="feComposite47476" />
      <feComposite
         operator="in"
         result="result2"
         in2="SourceGraphic"
         in="result4"
         id="feComposite47478" />
    </filter>
  </defs>
  <path
     style="mix-blend-mode:multiply"
     d="M-2655.488 204.013l26.181 28.949 146.334 38.515 166.935-43.817 86.005-436.932-45.894-49.39z"
     transform="matrix(-2.0051 0 0 2.0051 -4364.0778 706.82307)"
     opacity=".5"
     filter="url(#B)"
     id="path33602" />
  <path
     d="M-1220.686-332.674l-149.881 42.384-8.809 28.459-81.338 481.636 10.349 7.986h459.359l10.348-7.986-81.338-481.636-8.809-28.459z"
     fill="url(#A)"
     transform="matrix(-2.0051 0 0 -2.0051 -1787.6392 533.54186)"
     id="path33604" />
  <path
     d="M-905.021-376.306l-149.881 44.065-8.809 26.778-81.358 481.64 10.349 7.986 459.383-.004 10.349-7.986-81.343-481.636-8.809-28.601z"
     opacity=".25"
     fill="url(#C)"
     style="mix-blend-mode:overlay"
     id="path33606"
     transform="matrix(-2.0051 0 0 -2.0051 -1154.6881 446.05465)" />
  <path
     d="M199.419 97.854l.043-21.064-20.75 16.013 20.707 5.052zm778.776 960.694l-17.664-13.248L660 1126.847v16.402z"
     opacity=".4"
     id="path33608" />
  <path
     d="M341.805 1058.548l17.664-13.248L660 1126.847v16.402z"
     opacity=".6"
     id="path33610" />
  <path
     d="M341.805 1058.548l17.664-13.248-160.05-947.446-20.707-5.052z"
     opacity=".6"
     id="path33612" />
  <g
     fill="#fff"
     id="g33620">
    <path
       d="M978.195 1058.548l-17.664-13.248 160.05-947.446 20.707-5.052z"
       opacity=".3"
       id="path33614" />
    <path
       d="M1120.582 97.854l-.043-21.064 20.75 16.013-20.707 5.052z"
       opacity=".8"
       id="path33616" />
    <path
       d="M1120.582 97.854H199.419l.043-21.064h921.077l.043 21.064z"
       opacity=".3"
       id="path33618" />
  </g>
  <path
     d="M359.468 1115.896l-17.663-57.348L660 1143.25l318.195-84.702-17.663 57.348L660 1200.598l-300.532-84.702z"
     opacity=".7"
     id="path33622" />
  <path
     id="path28230"
     style="fill:#9b0000;fill-opacity:1;stroke-width:1.52184;filter:url(#filter47480)"
     d="m 556.59307,1040.5373 c 4.4653,-0.5334 8.6233,-17.1856 16.4719,-64.6775 2.2098,-13.38326 4.3663,-25.4193 4.7701,-26.62783 2.032,-5.88264 4.5593,6.4897 11.3284,53.18373 3.7567,26.4061 5.3696,30.5232 10.2337,25.654 3.0378,-2.9565 2.1336,-28.24933 -2.032,-60.54796 -5.3696,-42.00447 -6.2891,-61.83754 -3.142,-76.56598 6.4922,-31.13175 25.8166,-62.01966 52.1094,-83.16922 13.2765,-10.75181 13.9572,-10.85595 30.6448,-2.95655 12.418,5.88771 25.8668,18.43277 36.0715,33.80078 9.1288,13.73377 15.2857,27.15411 25.9786,56.50202 3.9599,10.87373 7.8105,20.39873 8.5217,21.20899 0.8128,0.8636 2.2098,0.5842 3.7567,-0.9398 5.0724,-5.07238 1.9304,-27.65373 -7.0003,-51.16599 -5.0723,-13.30706 -14.4246,-30.75812 -23.4035,-43.66944 -30.9486,-44.50129 -35.9395,-53.73215 -35.9085,-65.87411 0.024,-7.6073 7.5057,-20.29713 15.1232,-25.67558 3.3528,-2.4384 6.0858,-4.87426 6.0858,-5.58292 0.02,-0.7366 -3.8506,-5.27812 -8.6233,-10.27683 l 0.011,0.0874 c -8.6233,-9.02969 -10.4876,-10.36827 -11.4325,-7.60729 -0.021,0.0615 -0.083,0.18719 -0.1643,0.3048 -1.016,1.524 -6.0859,7.00023 -11.8085,13.02511 -42.6547,44.13502 -70.1446,85.36022 -91.7508,137.63263 -14.3434,34.68344 -17.2644,49.87695 -26.1915,136.00247 -3.9624,38.30497 -3.9624,47.93967 0.1026,47.93967 0.035,0 0.068,0 0.1031,0 0.036,-0 0.069,0 0.1037,0 z m -27.845,-55.28383 c 0.018,-10e-4 0.023,-0.0173 0.041,-0.0203 v -0.0213 c 1.6256,-0.22733 2.4384,-8.5217 2.4384,-24.84119 0.08,-70.91576 15.4483,-119.54835 53.9448,-170.65288 21.7474,-28.87115 56.8563,-62.53731 85.5022,-81.99294 14.2519,-9.73835 13.9674,-7.9121 2.9489,-19.91105 l -0.021,-0.0213 c -2.54,-2.73812 -5.2755,-4.96315 -6.1874,-4.96315 -0.889,0 -4.3663,1.7526 -7.7038,4.04367 -40.2209,27.05404 -110.8318,107.72771 -140.7287,160.78905 -9.8399,17.41677 -14.4957,21.20137 -40.0377,32.3578 -9.5326,4.17322 -19.2837,9.6393 -23.1369,13.10894 -7.3075,6.39064 -16.9595,23.82011 -15.4381,27.77565 1.8288,4.77012 6.6955,2.3368 13.6652,-6.69544 11.7755,-15.16379 28.1496,-24.92501 45.262,-26.95396 6.2891,-0.6858 7.4041,-0.381 10.155,3.12928 4.4653,5.68198 7.4041,19.94915 11.9075,56.17665 2.1336,17.41677 4.5593,33.49674 5.3695,35.72686 0.762,1.9304 1.4224,2.95656 2.032,2.95656 z m 272.3146,-209.84404 c 0.039,-0.002 0.065,-0.017 0.1036,-0.0213 v -0.0201 c 0.018,-0.002 0.022,-0.0183 0.04,-0.0206 4.1554,-0.6096 4.8717,-5.68198 1.6256,-11.99134 -3.9599,-7.6073 -29.1335,-32.84447 -41.7929,-41.87391 l 0.021,-0.0419 c -11.6865,-8.2169 -14.5668,-9.63422 -13.3095,-6.29158 0.381,0.9906 1.8288,5.36956 3.1419,9.53262 1.524,4.66089 3.3528,7.60729 6.1875,9.94409 0.5334,0.4318 1.016,0.8636 1.6256,1.2192 2.9489,2.0574 12.9641,11.82878 22.2859,21.76525 12.3546,13.18514 17.5184,17.79523 19.972,17.69109 z m 72.06181,-31.70122 c 0.13,-0.003 0.2794,-0.0183 0.4064,-0.0216 3.8506,-0.0879 6.1874,-0.6096 6.1874,-1.7526 0,-0.9906 -0.4064,-2.10819 -1.1176,-3.04291 -1.9304,-2.4384 -6.0858,-4.5593 -12.5501,-6.39064 -4.5593,-1.2954 -15.90551,-4.5593 -25.11551,-7.0993 -30.4615,-8.62075 -60.4774,-22.87523 -82.7331,-39.37887 -14.7092,-10.95502 -14.5974,-10.65022 -11.7653,-20.38857 6.6954,-22.95397 32.6123,-51.3476 105.2929,-115.22096 37.93811,-33.34029 77.04271,-72.00079 84.72141,-83.78819 3.0378,-4.6584 6.289,-11.5875 7.305,-15.4381 1.6256,-6.1849 1.4224,-7.714 -1.524,-13.5636 -4.5593,-9.0297 -11.5138,-16.129 -17.8714,-18.6334 -0.2434,0.1196 -0.508,0.2293 -0.7366,0.3302 l -51.5107,25.7538 c -4.9657,2.5146 -11.0058,0.762 -13.86581,-3.9548 -2.54,-4.9632 -0.7874,-11.0084 3.96241,-13.8684 l 42.1373,-21.0668 c -3.6576,-1.2954 -8.0137,-1.8288 -13.8075,-1.8288 -11.8694,0 -44.24701,2.1082 -69.18141,5.9868 -50.5871,7.9121 -87.0239,12.3876 -101.5164,10.1651 -11.3919,-1.7526 -12.8321,-4.0437 -13.9065,-23.2207 -5.3696,-94.92573 -68.1667,-182.54553 -177.5883,-248.02373 l -0.041,0.1857 c -8.8239,-5.2781 -16.5024,-9.6393 -17.1348,-9.6393 -3.2487,-0.1928 -70.7936,46.7832 -91.7514,88.3933 -35.0052,69.5256 -45.7789,122.0324 -44.0446,186.64763 0.2794,9.8374 5.682,28.8102 5.682,28.8102 l 16.1595,0.9398 c 64.8749,3.7567 102.5783,33.1277 150.7118,117.48865 12.1819,21.35377 30.5941,49.13679 35.7261,53.90437 5.2756,4.96315 4.9632,6.48969 -2.2098,9.73835 -16.0985,7.4041 -38.9216,30.05784 -55.4969,55.04051 -13.2588,20.00249 -26.6482,48.70016 -26.6482,57.11975 0,2.2098 1.1176,2.95656 4.3663,2.95656 5.1765,0 28.7571,-11.31316 54.8581,-26.39313 44.4091,-25.67583 74.1815,-40.73955 91.7712,-46.51983 4.7701,-1.524 6.3906,-1.4478 10.6705,0.762 8.6233,4.36626 23.8379,17.48789 52.9611,45.68747 20.5511,19.89327 28.2607,26.48431 28.6458,24.55925 0.3302,-1.524 -1.8288,-10.04316 -4.7701,-19.02967 -2.9489,-9.0297 -7.8105,-24.50845 -10.9347,-34.54881 -10.1448,-32.57066 -23.5839,-57.01968 -43.2737,-78.64548 -5.0749,-5.57784 -9.2329,-10.58164 -9.2329,-11.13028 0,-0.0193 0.034,-0.0678 0.041,-0.083 0.4064,-0.3302 3.7567,1.1176 7.808,3.34771 13.7541,7.50824 29.4373,26.2321 40.4937,48.43677 4.7701,9.53261 20.1676,49.62396 20.1676,52.35191 0,0.6858 1.6256,1.9304 3.6576,2.4384 2.032,0.5334 11.7068,5.58292 21.5239,11.35126 18.8773,11.02613 36.0309,17.30501 68.3499,25.11551 13.9979,3.34772 28.69711,5.36702 36.90281,5.17398 z M 744.67547,583.57906 c -0.2185,0.006 -0.4572,-7.6e-4 -0.6604,0 -9.2304,0.0427 -19.7511,-4.17322 -33.6771,-14.54657 36.9943,-31.70986 47.5335,-57.07962 90.2903,-24.25191 -24.4144,20.38095 -37.4822,38.29201 -55.9523,38.80051 z"
     sodipodi:nodetypes="cccccccccccccccccsccsccccsscscccccsssccccccccccsscccccccccccsscscccccccccccccccscccccccsccscccssccccccccsccsssccsssccs" />
</svg>
