<?xml version="1.0" encoding="UTF-8" standalone="no"?>
<svg
   width="498.898"
   height="544.252"
   viewBox="0 0 1320 1440"
   version="1.1"
   id="svg33652"
   sodipodi:docname="1_TIGER.svg"
   inkscape:version="1.2 (dc2aedaf03, 2022-05-15)"
   xmlns:inkscape="http://www.inkscape.org/namespaces/inkscape"
   xmlns:sodipodi="http://sodipodi.sourceforge.net/DTD/sodipodi-0.dtd"
   xmlns="http://www.w3.org/2000/svg"
   xmlns:svg="http://www.w3.org/2000/svg">
  <sodipodi:namedview
     id="namedview33654"
     pagecolor="#ffffff"
     bordercolor="#666666"
     borderopacity="1.0"
     inkscape:showpageshadow="2"
     inkscape:pageopacity="0.0"
     inkscape:pagecheckerboard="0"
     inkscape:deskcolor="#d1d1d1"
     showgrid="false"
     inkscape:zoom="0.9750697"
     inkscape:cx="373.81943"
     inkscape:cy="311.2598"
     inkscape:window-width="3840"
     inkscape:window-height="2036"
     inkscape:window-x="3828"
     inkscape:window-y="-12"
     inkscape:window-maximized="1"
     inkscape:current-layer="svg33652" />
  <style
     id="style33539"><![CDATA[.B{color-interpolation-filters:sRGB}]]></style>
  <defs
     id="defs33600">
    <linearGradient
       id="A"
       x1="-1430.769"
       y1="-77.47"
       x2="-1409.955"
       y2="-77.47"
       spreadMethod="reflect"
       gradientUnits="userSpaceOnUse">
      <stop
         offset="0"
         stop-color="#ffd285"
         id="stop33541" />
      <stop
         offset=".232"
         stop-color="#ffcd79"
         id="stop33543" />
      <stop
         offset=".616"
         stop-color="#ffca73"
         id="stop33545" />
      <stop
         offset=".808"
         stop-color="#ffd386"
         id="stop33547" />
      <stop
         offset="1"
         stop-color="#ffc86e"
         id="stop33549" />
    </linearGradient>
    <filter
       id="B"
       x="-0.013769729"
       y="-0.011050687"
       width="1.0275395"
       height="1.0221014"
       class="B">
      <feGaussianBlur
         stdDeviation="2.441"
         id="feGaussianBlur33552" />
    </filter>
    <linearGradient
       id="C"
       x1="-905.021"
       y1="-376.306"
       x2="-904.556"
       y2="184.159"
       gradientUnits="userSpaceOnUse">
      <stop
         offset="0"
         id="stop33555" />
      <stop
         offset=".602"
         stop-color="#fff"
         id="stop33557" />
    </linearGradient>
    <filter
       inkscape:label="Combined Lighting"
       inkscape:menu="Bevels"
       inkscape:menu-tooltip="Basic specular bevel to use for building textures"
       style="color-interpolation-filters:sRGB;"
       id="filter4033"
       x="-0.0433014"
       y="-0.045035654"
       width="1.0866028"
       height="1.0900713">
      <feGaussianBlur
         stdDeviation="6"
         in="SourceGraphic"
         result="result0"
         id="feGaussianBlur4015" />
      <feDiffuseLighting
         lighting-color="rgb(255,255,255)"
         diffuseConstant="1"
         surfaceScale="4"
         result="result5"
         id="feDiffuseLighting4019">
        <feDistantLight
           elevation="45"
           azimuth="235"
           id="feDistantLight4017" />
      </feDiffuseLighting>
      <feComposite
         k1="1.4"
         in2="SourceGraphic"
         in="result5"
         result="fbSourceGraphic"
         operator="arithmetic"
         id="feComposite4021" />
      <feGaussianBlur
         result="result0"
         in="fbSourceGraphic"
         stdDeviation="6"
         id="feGaussianBlur4023" />
      <feSpecularLighting
         specularExponent="25"
         specularConstant="1"
         surfaceScale="4"
         lighting-color="rgb(255,255,255)"
         result="result1"
         in="result0"
         id="feSpecularLighting4027">
        <feDistantLight
           azimuth="280"
           elevation="45"
           id="feDistantLight4025" />
      </feSpecularLighting>
      <feComposite
         k3="1"
         k2="1"
         operator="arithmetic"
         in="fbSourceGraphic"
         in2="result1"
         result="result4"
         id="feComposite4029" />
      <feComposite
         operator="in"
         result="result2"
         in2="SourceGraphic"
         in="result4"
         id="feComposite4031" />
    </filter>
  </defs>
  <path
     style="mix-blend-mode:multiply"
     d="M-2655.488 204.013l26.181 28.949 146.334 38.515 166.935-43.817 86.005-436.932-45.894-49.39z"
     transform="matrix(-2.0051 0 0 2.0051 -4364.0778 706.82307)"
     opacity=".5"
     filter="url(#B)"
     id="path33602" />
  <path
     d="M-1220.686-332.674l-149.881 42.384-8.809 28.459-81.338 481.636 10.349 7.986h459.359l10.348-7.986-81.338-481.636-8.809-28.459z"
     fill="url(#A)"
     transform="matrix(-2.0051 0 0 -2.0051 -1787.6392 533.54186)"
     id="path33604" />
  <path
     d="M-905.021-376.306l-149.881 44.065-8.809 26.778-81.358 481.64 10.349 7.986 459.383-.004 10.349-7.986-81.343-481.636-8.809-28.601z"
     opacity=".25"
     fill="url(#C)"
     style="mix-blend-mode:overlay"
     id="path33606"
     transform="matrix(-2.0051 0 0 -2.0051 -1154.6881 446.05465)" />
  <path
     d="M199.419 97.854l.043-21.064-20.75 16.013 20.707 5.052zm778.776 960.694l-17.664-13.248L660 1126.847v16.402z"
     opacity=".4"
     id="path33608" />
  <path
     d="M341.805 1058.548l17.664-13.248L660 1126.847v16.402z"
     opacity=".6"
     id="path33610" />
  <path
     d="M341.805 1058.548l17.664-13.248-160.05-947.446-20.707-5.052z"
     opacity=".6"
     id="path33612" />
  <g
     fill="#fff"
     id="g33620">
    <path
       d="M978.195 1058.548l-17.664-13.248 160.05-947.446 20.707-5.052z"
       opacity=".3"
       id="path33614" />
    <path
       d="M1120.582 97.854l-.043-21.064 20.75 16.013-20.707 5.052z"
       opacity=".8"
       id="path33616" />
    <path
       d="M1120.582 97.854H199.419l.043-21.064h921.077l.043 21.064z"
       opacity=".3"
       id="path33618" />
  </g>
  <path
     d="M359.468 1115.896l-17.663-57.348L660 1143.25l318.195-84.702-17.663 57.348L660 1200.598l-300.532-84.702z"
     opacity=".7"
     id="path33622" />
  <path
     style="fill:#000000;stroke-width:1.58622;filter:url(#filter4033)"
     d="m 744.2243,247.91267 c 8.08535,2.9031 13.09815,7.89939 16.27674,16.13547 4.89035,12.71438 -0.65926,31.90488 -12.31884,42.81241 -4.89035,4.60075 -6.39482,5.0787 -19.56834,5.83215 -7.89939,0.49445 -19.27643,2.33097 -25.37889,4.22635 -12.85324,3.86845 -29.66661,13.39246 -36.3805,20.45128 -2.53583,2.74069 -5.26707,4.97507 -6.11228,4.97507 -0.80054,0 -4.79617,-3.02314 -8.83889,-6.58087 -15.07362,-13.40896 -42.86886,-23.49092 -64.90007,-23.54274 -9.12134,-0.025 -10.3151,-0.44735 -14.72508,-5.1752 -20.59265,-22.18194 -17.43287,-53.2874 6.11228,-59.81293 9.59233,-2.74069 158.19819,-2.04843 165.86001,0.63572 z m 58.13956,28.56008 c 3.10795,1.13017 7.89939,3.02314 10.84254,4.04735 8.46207,3.10324 33.25891,17.03965 46.20661,25.86009 6.58087,4.51362 20.51719,16.65346 30.97365,27.00443 l 19.02207,18.86198 6.67505,-7.61685 c 7.61685,-8.65285 16.12611,-24.21193 20.29119,-37.01882 l 2.81606,-8.65284 2.91246,5.64138 c 1.60107,3.10332 4.79616,11.30408 7.14595,18.12977 7.05177,20.75504 7.05177,59.42765 -0.0121,79.88885 -1.88361,5.45311 -1.88361,6.39964 0.14674,6.39964 3.85668,0 20.08401,-17.64004 25.04963,-27.22218 l 4.6078,-8.93072 2.26034,5.73322 c 1.50689,3.86854 2.26033,12.89097 2.35451,27.22218 0.18225,24.7034 -2.07197,34.69758 -11.88557,53.98291 -3.3905,6.58087 -6.11238,12.54725 -6.11238,13.25823 0,4.22636 16.1732,-4.89266 23.33797,-13.18287 l 3.48237,-4.13922 0.0575,12.93806 c 0.12598,28.73752 -11.29453,62.65241 -28.35985,84.24236 -3.57414,4.51361 -6.48669,8.55631 -6.48669,8.93539 0,1.69525 8.17962,0.80053 13.77623,-1.48335 3.19982,-1.41271 6.11237,-2.04843 6.48669,-1.62461 1.22434,1.2008 -7.33432,24.11116 -13.54078,36.55147 -7.99126,15.9377 -18.77726,31.65102 -29.93905,43.57404 -5.36125,5.73325 -11.68785,14.29426 -14.09409,19.09041 -2.44165,4.79614 -8.08776,14.80283 -12.61084,22.22897 -9.61819,15.8082 -11.97975,21.88284 -11.93266,30.7563 0.0482,8.93538 4.51594,17.93434 15.12071,30.46623 24.2503,28.58405 27.4098,62.10714 9.3097,98.75774 -8.74462,17.77187 -21.8334,31.79206 -36.37133,39.04985 -8.46207,4.22635 -11.09449,4.79614 -23.78013,4.79614 -20.86564,-0.008 -25.4728,-2.8207 -58.61844,-36.10035 -30.77657,-30.88933 -36.2586,-34.42346 -53.24049,-34.44371 -5.64138,-0.009 -18.01677,1.69526 -27.39099,3.74839 -39.08828,8.83649 -82.07959,8.83649 -121.09011,0.0294 -9.45096,-2.16616 -21.88049,-3.86847 -27.61697,-3.86847 -16.25793,0 -22.34203,3.86847 -51.97119,33.43645 -14.05646,14.01171 -28.13368,27.21017 -31.28354,29.34596 -9.42278,6.39956 -25.59497,10.15501 -35.79752,8.37029 -19.19171,-3.46584 -34.97892,-14.83814 -47.71138,-34.36719 -24.0535,-36.84179 -21.91821,-79.62543 5.54952,-111.03559 8.65053,-9.95017 13.77632,-20.529 13.75741,-28.66078 -0.0158,-7.42614 -3.10796,-15.34672 -11.2734,-28.80984 -4.42176,-7.33431 -10.19264,-17.48227 -12.74969,-22.53976 -2.53574,-5.07868 -6.86101,-11.53712 -9.52634,-14.266 -21.40022,-22.23603 -36.10815,-46.34791 -45.82099,-75.09346 l -4.42173,-12.97573 6.58084,3.0232 c 6.11228,2.82071 15.31612,4.13924 15.31612,2.16615 0,-0.44735 -2.91255,-4.5136 -6.48669,-8.93537 -7.80522,-9.84658 -20.94097,-36.53123 -24.48619,-49.63928 -1.41271,-5.17522 -3.01146,-17.97672 -3.48236,-28.31419 l -0.91826,-18.78662 7.42849,7.14123 c 7.05419,6.77395 17.47048,12.07393 19.66259,9.95014 0.56499,-0.56508 -0.23546,-3.02083 -1.78944,-5.26698 -4.70198,-7.1389 -10.23034,-20.12174 -13.20175,-30.74839 -3.47291,-12.2787 -3.85204,-47.44792 -0.68281,-58.35563 l 2.07197,-7.05175 5.54958,10.61643 c 5.35412,10.1551 20.41356,26.56532 24.37276,26.56532 1.22435,0 1.50689,-1.48334 0.87117,-4.42176 -0.54154,-2.33097 -2.07198,-8.93538 -3.29169,-14.66863 -3.19268,-14.02815 -3.10796,-43.27262 0.14387,-57.58436 1.41271,-6.29833 4.79616,-16.30502 7.42849,-22.25721 l 4.79617,-10.84013 3.3905,9.21551 c 1.88361,5.07871 5.45543,13.37133 7.99126,18.40054 4.89025,9.55228 17.66823,25.43701 19.88852,24.62702 0.70635,-0.259 4.97748,-4.79607 9.58055,-10.03487 22.49267,-25.8319 58.93843,-50.80413 92.65786,-63.48931 l 9.51697,-3.58591 0.63572,5.73325 c 0.35318,3.10323 0.70635,7.80521 0.80054,10.03496 0.0881,2.26033 0.61217,3.86845 1.13016,3.58591 0.54154,-0.35318 3.01146,2.74069 5.5472,6.67273 2.53583,3.86845 7.99358,9.84419 12.2623,12.9121 l 7.71104,5.64148 -8.46208,4.13921 c -12.43184,5.92393 -28.48184,21.86168 -34.35821,33.82326 -7.24013,14.80286 -10.47527,33.17416 -9.40165,53.48464 1.03598,19.65315 3.94622,31.05864 12.1022,48.59487 6.48669,13.93632 21.45909,37.14403 23.93977,37.14403 2.07197,0 2.26033,0.80053 -4.04504,-18.12976 -7.99358,-23.90156 -11.25458,-48.16252 -9.12134,-67.52368 3.19973,-28.27392 13.01333,-44.23204 33.40937,-54.27506 9.76882,-4.89267 11.72548,-5.17048 25.67005,-5.0763 16.8701,0.0986 27.56034,3.10323 42.37988,12.13984 9.02715,5.45312 28.77329,22.62223 27.44743,23.84509 -0.44735,0.40027 -9.65583,7.61686 -20.47955,16.0413 -10.83309,8.46216 -20.74328,16.82069 -22.03112,18.65489 -5.45543,7.80513 -1.41271,21.346 7.80522,26.06541 5.64138,2.9031 18.46876,2.9031 23.63951,-0.0816 5.64138,-3.18333 31.56608,-3.10324 39.30511,0.12013 17.62113,7.42609 33.65352,-1.13016 33.65352,-18.06385 0,-7.42618 -2.26033,-10.03497 -25.37889,-27.67353 -9.12133,-7.05177 -17.32913,-13.3501 -18.15794,-14.08473 -4.04504,-3.5859 24.57001,-25.58604 42.46414,-32.58998 9.64637,-3.7484 13.70087,-4.42176 26.46048,-4.42176 13.00397,0 16.30502,0.56509 24.07205,4.22636 20.18765,9.45096 31.38754,26.517 34.61257,52.7234 0.94181,7.80522 1.31853,19.1893 0.7299,25.38047 -1.22435,13.63264 -7.24013,40.00905 -11.72548,51.4249 -3.57414,9.21557 -3.95327,11.41469 -1.88361,11.41469 2.44165,0 17.69649,-23.46979 23.97813,-36.91805 8.08535,-17.27973 10.98141,-28.82186 12.13985,-47.9459 2.54287,-42.32349 -14.48027,-74.87679 -46.90241,-89.64906 l -5.45542,-2.62055 7.80521,-5.73325 c 9.59002,-7.05177 17.61177,-19.92383 19.26707,-30.88929 l 1.22435,-8.18194 z m 50.65405,86.55429 c -4.89035,2.7406 -3.67073,7.33431 7.05177,28.49971 11.30167,22.05235 19.78497,45.43592 25.07762,69.13152 3.0986,13.74573 3.48237,20.42309 3.57423,53.00462 0.051,40.39592 -1.22435,51.25636 -10.39045,86.95055 -2.53583,9.95018 -4.60781,19.60604 -4.60781,21.64505 0,3.38579 2.63233,5.64142 6.39483,5.64142 3.95327,0 22.91647,-35.19339 30.83311,-57.10497 19.5777,-54.18961 17.4045,-115.17598 -5.64147,-158.34175 -11.00263,-20.61378 -28.78246,-40.60284 -42.59577,-47.90795 -6.76923,-3.586 -6.01811,-3.46587 -9.70292,-1.48335 z m -402.79309,7.14122 c -46.60197,36.10804 -65.26716,106.30457 -47.3924,178.24279 6.11237,24.48577 27.29735,71.04957 35.44092,77.81056 3.10795,2.53817 8.83879,0.56509 8.83879,-3.10325 0,-1.62461 -2.44165,-13.17587 -5.45534,-25.66255 -7.80522,-32.41272 -10.51291,-53.44677 -10.54118,-82.92552 -0.0566,-49.09347 10.22091,-89.59279 32.91093,-129.68944 7.42849,-13.11694 8.55866,-19.17518 4.13922,-21.72983 -3.85195,-2.26033 -7.80522,-0.68281 -17.84723,7.05177 z m 381.0091,105.74421 c -2.54288,2.5382 -2.44165,8.9354 0.35317,23.47924 5.82975,30.74831 4.70199,53.64431 -4.13921,82.87889 -2.7242,8.83649 -4.98453,19.11866 -5.07871,22.60569 -0.1486,5.73325 0.23545,6.39957 4.04504,6.77394 3.29159,0.37672 5.36125,-0.91826 9.81601,-6.39957 14.8099,-18.0756 24.23194,-40.98785 25.93377,-63.07602 2.53584,-33.27894 -18.57239,-78.6471 -30.89874,-66.31037 z m -354.08244,1.69528 c -5.45534,5.83212 -14.12468,25.0419 -16.60638,36.88982 -6.39955,30.49472 1.41271,62.07982 21.55327,87.42051 5.92392,7.42614 9.12133,10.1456 11.94212,10.1456 2.16615,0 4.32758,-1.13017 4.79607,-2.26033 0.49445,-1.34208 -1.69525,-11.41468 -4.79607,-22.60334 -9.30979,-32.92859 -10.78609,-50.90859 -6.48669,-78.13949 4.32758,-27.31495 4.51594,-29.93035 2.35451,-32.48943 -2.91255,-3.46587 -8.93306,-3.02092 -12.7497,1.13013 z m 248.42858,87.69716 c -2.63233,2.74066 -2.44165,11.53713 0.75345,31.8766 3.57413,23.30968 15.90002,36.8778 35.73162,39.48543 8.36798,1.13016 32.72256,-1.69526 37.61245,-4.22635 3.95317,-2.04843 2.63233,-9.21557 -4.42176,-24.57053 -9.45106,-20.47956 -17.27278,-26.51677 -50.78624,-39.19089 -17.32923,-6.58086 -15.90003,-6.39957 -18.89026,-3.38579 z m -143.3501,1.34208 c -4.98453,2.04843 -11.9233,4.60072 -15.41976,5.73324 -24.87091,7.8994 -40.24478,24.22395 -47.20348,50.22131 -1.69525,6.39957 -1.60107,7.33431 0.87117,9.21792 2.91487,2.04843 22.67157,5.54959 31.81979,5.54959 15.81529,0 31.33155,-9.84657 37.23619,-23.53572 6.01819,-13.98345 9.21561,-46.79903 4.89034,-49.56323 -2.91255,-1.90715 -1.78943,-1.95424 -12.18693,2.26034 z m 156.50665,107.34229 c -41.65582,7.99122 -106.74945,8.17958 -153.37821,0.56508 -15.29025,-2.62057 -16.52165,-2.62057 -19.00334,-0.0245 -3.67064,3.66833 -1.60107,6.58086 10.69191,13.89869 24.1474,14.60505 50.25971,21.20476 83.34881,21.08703 32.84502,-0.12196 56.73797,-5.92396 80.94183,-19.81088 13.07933,-7.42614 16.4651,-11.30403 13.36187,-15.04299 -2.26033,-2.74065 -4.6078,-2.8207 -15.95647,-0.63572 z m 12.48838,59.35212 c -59.78447,18.21688 -121.06091,18.19569 -181.7718,-0.0852 -16.84183,-5.07869 -21.67331,-4.79614 -21.67331,1.62462 0,3.74839 1.78943,5.92395 10.75772,12.83445 20.32892,15.49505 44.9185,26.52478 70.83327,31.79206 20.03924,4.04506 56.19254,2.74066 75.45034,-3.10325 27.48498,-8.08775 66.08512,-30.82506 68.48274,-40.37685 1.03599,-4.22636 -3.28928,-8.83649 -6.95759,-7.42613 -1.13017,0.44735 -7.8994,2.53816 -15.12072,4.79613 z"
     id="path4451-7" />
</svg>
