<?xml version="1.0" encoding="UTF-8" standalone="no"?>
<svg
   width="498.898"
   height="544.252"
   viewBox="0 0 1320 1440"
   version="1.1"
   id="svg53641"
   sodipodi:docname="1_VERTICALMOVER.svg"
   inkscape:version="1.2 (dc2aedaf03, 2022-05-15)"
   xmlns:inkscape="http://www.inkscape.org/namespaces/inkscape"
   xmlns:sodipodi="http://sodipodi.sourceforge.net/DTD/sodipodi-0.dtd"
   xmlns="http://www.w3.org/2000/svg"
   xmlns:svg="http://www.w3.org/2000/svg">
  <sodipodi:namedview
     id="namedview53643"
     pagecolor="#ffffff"
     bordercolor="#666666"
     borderopacity="1.0"
     inkscape:showpageshadow="2"
     inkscape:pageopacity="0.0"
     inkscape:pagecheckerboard="0"
     inkscape:deskcolor="#d1d1d1"
     showgrid="false"
     inkscape:zoom="0.97506968"
     inkscape:cx="40.509925"
     inkscape:cy="97.941718"
     inkscape:window-width="1916"
     inkscape:window-height="2022"
     inkscape:window-x="1910"
     inkscape:window-y="0"
     inkscape:window-maximized="0"
     inkscape:current-layer="svg53641" />
  <style
     id="style53550"><![CDATA[.B{color-interpolation-filters:sRGB}]]></style>
  <defs
     id="defs53599">
    <linearGradient
       id="A"
       x1="-1430.769"
       y1="-77.47"
       x2="-1409.955"
       y2="-77.47"
       spreadMethod="reflect"
       gradientUnits="userSpaceOnUse">
      <stop
         offset="0"
         stop-color="#ffd285"
         id="stop53552" />
      <stop
         offset=".232"
         stop-color="#ffcd79"
         id="stop53554" />
      <stop
         offset=".616"
         stop-color="#ffca73"
         id="stop53556" />
      <stop
         offset=".808"
         stop-color="#ffd386"
         id="stop53558" />
      <stop
         offset="1"
         stop-color="#ffc86e"
         id="stop53560" />
    </linearGradient>
    <filter
       id="B"
       x="-0.013119982"
       y="-0.01088309"
       width="1.02624"
       height="1.0217662"
       class="B">
      <feGaussianBlur
         stdDeviation="2.441"
         id="feGaussianBlur53563" />
    </filter>
    <linearGradient
       id="C"
       x1="-905.02"
       y1="-384.47"
       x2="-904.556"
       y2="184.159"
       gradientUnits="userSpaceOnUse">
      <stop
         offset="0"
         id="stop53566" />
      <stop
         offset=".603"
         stop-color="#fff"
         id="stop53568" />
    </linearGradient>
    <filter
       inkscape:label="Combined Lighting"
       inkscape:menu="Bevels"
       inkscape:menu-tooltip="Basic specular bevel to use for building textures"
       style="color-interpolation-filters:sRGB;"
       id="filter56542"
       x="-0.068363976"
       y="-0.031121475"
       width="1.136728"
       height="1.062243">
      <feGaussianBlur
         stdDeviation="6"
         in="SourceGraphic"
         result="result0"
         id="feGaussianBlur56524" />
      <feDiffuseLighting
         lighting-color="rgb(255,255,255)"
         diffuseConstant="1"
         surfaceScale="4"
         result="result5"
         id="feDiffuseLighting56528">
        <feDistantLight
           elevation="45"
           azimuth="235"
           id="feDistantLight56526" />
      </feDiffuseLighting>
      <feComposite
         k1="1.4"
         in2="SourceGraphic"
         in="result5"
         result="fbSourceGraphic"
         operator="arithmetic"
         id="feComposite56530" />
      <feGaussianBlur
         result="result0"
         in="fbSourceGraphic"
         stdDeviation="6"
         id="feGaussianBlur56532" />
      <feSpecularLighting
         specularExponent="25"
         specularConstant="1"
         surfaceScale="4"
         lighting-color="rgb(255,255,255)"
         result="result1"
         in="result0"
         id="feSpecularLighting56536">
        <feDistantLight
           azimuth="280"
           elevation="45"
           id="feDistantLight56534" />
      </feSpecularLighting>
      <feComposite
         k3="1"
         k2="1"
         operator="arithmetic"
         in="fbSourceGraphic"
         in2="result1"
         result="result4"
         id="feComposite56538" />
      <feComposite
         operator="in"
         result="result2"
         in2="SourceGraphic"
         in="result4"
         id="feComposite56540" />
    </filter>
  </defs>
  <path
     style="mix-blend-mode:multiply"
     d="M-2659.569 204.596l26.181 28.949 150.416 46.096 171.017-51.398 98.911-437.515-45.894-49.39z"
     transform="matrix(-2.0051 0 0 2.0051 -4364.0778 706.82307)"
     opacity=".5"
     filter="url(#B)"
     id="path53601" />
  <path
     d="M-1220.686-340.838l-153.963 49.823-8.809 28.459-94.245 482.361 10.349 7.986h493.336l10.348-7.986-94.244-482.361-8.809-28.459z"
     fill="url(#A)"
     transform="matrix(-2.0051 0 0 -2.0051 -1787.6392 533.54186)"
     id="path53603" />
  <path
     d="M-905.02-384.47l-153.963 49.823-8.809 26.778-94.245 484.042 10.349 7.986h493.336l10.349-7.986-94.244-482.219-8.809-28.601z"
     opacity=".25"
     fill="url(#C)"
     transform="matrix(-2.0051 0 0 -2.0051 -1154.6881 446.05465)"
     style="mix-blend-mode:overlay"
     id="path53605" />
  <path
     d="M165.355 97.854l.043-21.064-20.75 16.013 20.707 5.052zm821.025 961.863l-17.664-13.248L660 1143.218v16.402z"
     opacity=".4"
     id="path53607" />
  <path
     d="M333.62 1059.717l17.664-13.248L660 1143.218v16.402z"
     opacity=".6"
     id="path53609" />
  <path
     d="M333.62 1059.717l17.664-13.248L165.355 97.854l-20.707-5.052z"
     opacity=".6"
     id="path53611" />
  <g
     fill="#fff"
     id="g53619">
    <path
       d="M986.38 1059.717l-17.664-13.248 185.93-948.615 20.707-5.052z"
       opacity=".3"
       id="path53613" />
    <path
       d="M1154.646 97.854l-.043-21.064 20.75 16.013-20.707 5.052z"
       opacity=".8"
       id="path53615" />
    <path
       d="M1154.646 97.854H165.355l.043-21.064h989.205l.043 21.064z"
       opacity=".3"
       id="path53617" />
  </g>
  <path
     d="M351.283 1117.065l-17.663-57.348L660 1159.62l326.38-99.903-17.663 57.348L660 1216.968l-308.717-99.903z"
     opacity=".7"
     id="path53621" />
  <path
     class="st0"
     d="m 665.26632,1011.2568 h -1.4457 c 8.4333,-2.1686 16.9066,-8.4734 26.143,-17.7098 39.4354,-39.4354 55.3782,-108.7083 24.4564,-157.7014 -1.3252,-12.0876 0.5622,-22.4886 5.7426,-31.2029 14.8987,-25.1792 39.3952,-22.6091 63.7713,-28.673 13.4931,-3.3733 25.5004,-8.2324 36.7849,-16.5452 8.1923,-6.0237 15.7019,-13.453 22.328,-22.6492 73.8108,-102.0822 -13.1318,-183.6435 -113.688,-196.1729 -29.3556,-3.6544 -60.6389,-4.6584 -89.352,-6.7064 -29.5163,-2.1284 -57.7877,-3.0922 -75.4171,-14.8586 -24.3761,-16.264 -23.7335,-47.4268 -0.763,-62.1247 20.561,-13.1719 55.9404,-22.5288 94.9741,-31.5242 l 136.5782,-36.5842 c 25.9823,-6.1442 45.0976,-17.2279 56.8238,-33.6927 21.7658,-30.6006 12.4892,-66.7831 -18.9546,-86.5008 -50.76,-31.8053 -122.6031,-3.8151 -166.8574,-55.2979 -16.987,-19.7177 -22.2879,-46.8646 -16.224,-81.1196 -5.7426,5.2607 -9.7183,13.7341 -11.927,25.4201 -2.3291,12.2081 -3.0921,23.0107 -2.0882,32.8495 5.4214,54.8159 56.9845,74.7344 102.0822,87.063 9.7585,2.6906 19.5571,6.1442 29.7171,12.5294 23.9745,15.0593 26.4643,34.0943 -1.6465,45.4189 -62.8075,25.2997 -248.4991,26.6651 -293.918,83.0874 -31.6045,39.3149 -28.7935,97.7852 -3.2528,139.3088 32.2872,52.4467 89.8741,52.286 146.7381,61.924 37.0259,6.2647 74.0919,11.2041 110.9572,18.5129 12.1278,2.7308 18.794,11.8869 19.9185,21.6052 3.2528,28.1509 -26.7856,26.3839 -45.419,32.1667 -19.3161,5.9836 -35.5802,15.5011 -49.1135,26.4643 -35.018,28.2714 -54.2939,77.7463 -52.0451,122.4022 -27.6288,51.2419 -9.3568,114.0092 29.5565,155.8942 7.4694,8.0317 14.3766,12.69 21.1232,14.457 h -0.2409 c -0.3213,14.9389 -6.7466,31.0825 -14.2964,44.5756 8.8349,-4.6583 16.7059,-10.2002 22.6493,-17.4286 5.341,7.9111 12.4089,14.1758 20.9224,19.1554 -6.4655,-15.1396 -12.1679,-32.8896 -14.6176,-46.3425 z m -41.5637,-59.1531 c 7.0678,0 12.8506,-5.7828 12.8506,-12.8506 0.04,-7.1081 -5.7426,-12.8908 -12.8506,-12.8507 -7.0679,0 -12.8507,5.7828 -12.8507,12.8507 0,7.0678 5.7828,12.8506 12.8507,12.8506 z m 68.7508,0 c 7.1482,0 12.8908,-5.7426 12.8507,-12.8506 0,-7.0679 -5.7828,-12.8507 -12.8507,-12.8507 -7.108,-0.04 -12.8908,5.7426 -12.8506,12.8507 -0.04,7.108 5.7025,12.8506 12.8506,12.8506 z"
     id="path4115"
     style="clip-rule:evenodd;fill-rule:evenodd;stroke-width:5.67923;filter:url(#filter56542)" />
</svg>
