<?xml version="1.0" encoding="UTF-8" standalone="no"?>
<!-- Created with Inkscape (http://www.inkscape.org/) -->

<svg
   width="30mm"
   height="30mm"
   viewBox="0 0 30 30"
   version="1.1"
   id="svg1"
   xmlns="http://www.w3.org/2000/svg"
   xmlns:svg="http://www.w3.org/2000/svg">
  <defs
     id="defs1">
    <clipPath
       clipPathUnits="userSpaceOnUse"
       id="clipPath182-4-0-4-0-4-2-8-8-4">
      <path
         d="M 0,2834.646 H 2834.646 V 0 H 0 Z"
         transform="translate(-91.9855,-311.81193)"
         id="path182-0-3-8-6-1-1-6-8-6" />
    </clipPath>
  </defs>
  <g
     id="layer1"
     transform="translate(-240)">
    <g
       id="path357"
       clip-path="url(#clipPath182-4-0-4-0-4-2-8-8-4)"
       transform="matrix(0.37968369,0,0,-0.37968364,268.39999,15)">
      <path
         style="color:#000000;fill:#f9d08f;stroke-miterlimit:10;-inkscape-stroke:none"
         d="m 0,0 c 0,-19.491 -15.801,-35.292 -35.293,-35.292 -19.491,0 -35.292,15.801 -35.292,35.292 0,19.491 15.801,35.292 35.292,35.292 C -15.801,35.292 0,19.491 0,0"
         id="path99" />
      <path
         style="color:#000000;fill:#4d3608;stroke-miterlimit:10;-inkscape-stroke:none"
         d="M -35.292969,-36.082031 C -55.210978,-36.082031 -71.375,-19.918009 -71.375,0 c 0,19.918009 16.164022,36.082031 36.082031,36.082031 19.918988,0 36.08398462,-16.164022 36.08398462,-36.082031 10e-9,-19.918009 -16.16499662,-36.082031 -36.08398462,-36.082031 z m 0,1.580078 c 19.064974,0 34.50195338,15.438001 34.50195338,34.501953 0,19.063952 -15.43697938,34.501953 -34.50195338,34.501953 -19.063951,0 -34.501953,-15.438001 -34.501953,-34.501953 0,-19.063952 15.438002,-34.501953 34.501953,-34.501953 z"
         id="path100" />
    </g>
    <path
       d="m 251.74794,17.728718 1.04731,-0.220485 q 0.38585,1.102429 0.60634,2.149737 l -1.15755,0.275608 q -0.0551,-0.881944 -0.4961,-2.20486 z m -1.81901,-0.38585 1.10243,0.38585 q -0.38585,1.433159 -0.99218,2.700953 l -1.10243,-0.496093 q 0.44097,-1.047308 0.99218,-2.59071 z m 4.24436,0.275607 0.93706,-0.330728 q 0.38585,0.606336 0.82683,1.929252 l -0.99219,0.38585 q -0.22049,-0.661458 -0.7717,-1.984374 z m 3.19704,1.433159 -0.93706,-1.708766 0.93706,-0.440972 q 0.4961,0.716579 0.99219,1.653645 z m -2.64583,-3.582896 v -1.212673 h -3.25216 v 1.212673 z m 0,-2.259981 v -1.10243 h -3.25216 v 1.10243 z m 0,-2.094617 v -1.102429 h -3.25216 v 1.102429 z m -4.51996,5.842878 V 8.8541593 h 10.41796 v 1.1575517 h -4.6302 v 1.102429 h 3.91362 v 0.992187 h -3.91362 v 1.10243 h 3.91362 v 1.047308 h -3.91362 v 1.212673 h 5.07117 q -0.0551,3.36241 -0.33073,4.299475 -0.11024,0.606337 -0.49609,0.771701 -0.66146,0.385851 -2.20486,0.606337 -0.0551,-0.496094 -0.49609,-1.433159 h 1.32291 q 0.44098,0 0.4961,-0.165365 0.22048,-0.38585 0.27561,-2.97656 h -8.15798 v 0.385851 z"
       id="text2028-1-6-5-36-7-7"
       style="-inkscape-font-specification:'Osaka, Normal';stroke-width:0.352777"
       aria-label="馬" />
    <path
       style="color:#000000;fill:#000000;stroke-miterlimit:10;-inkscape-stroke:none"
       d="m 255,3.5 c -6.33942,0 -11.5,5.1605759 -11.5,11.5 0,6.339424 5.16058,11.5 11.5,11.5 6.33942,0 11.5,-5.160576 11.5,-11.5 0,-6.3394241 -5.16058,-11.5 -11.5,-11.5 z m 0,2 c 5.25854,0 9.5,4.2414549 9.5,9.5 0,5.258545 -4.24146,9.5 -9.5,9.5 -5.25854,0 -9.5,-4.241455 -9.5,-9.5 0,-5.2585451 4.24146,-9.5 9.5,-9.5 z"
       id="ellipse71" />
  </g>
</svg>
