<?xml version="1.0" encoding="UTF-8" standalone="no"?>
<!-- Created with Inkscape (http://www.inkscape.org/) -->

<svg
   width="30mm"
   height="30mm"
   viewBox="0 0 30 30"
   version="1.1"
   id="svg1"
   xmlns="http://www.w3.org/2000/svg"
   xmlns:svg="http://www.w3.org/2000/svg">
  <defs
     id="defs1">
    <clipPath
       clipPathUnits="userSpaceOnUse"
       id="clipPath182-4-0-0-0-5-6-0-9-9-6">
      <path
         d="M 0,2834.646 H 2834.646 V 0 H 0 Z"
         transform="translate(-91.9855,-311.81193)"
         id="path182-0-3-0-8-1-8-9-0-4-5" />
    </clipPath>
  </defs>
  <g
     id="layer1"
     transform="translate(-80)">
    <g
       id="path181-3-3-1-1-1-4-4-7-7"
       clip-path="url(#clipPath182-4-0-0-0-5-6-0-9-9-6)"
       transform="matrix(0.37968369,0,0,-0.37968364,108.40001,14.999998)">
      <path
         style="color:#000000;fill:#f9d08f;stroke-miterlimit:10;-inkscape-stroke:none"
         d="m 0,0 c 0,-19.491 -15.801,-35.292 -35.293,-35.292 -19.491,0 -35.292,15.801 -35.292,35.292 0,19.491 15.801,35.292 35.292,35.292 C -15.801,35.292 0,19.491 0,0"
         id="path103" />
      <path
         style="color:#000000;fill:#4d3608;stroke-miterlimit:10;-inkscape-stroke:none"
         d="M -35.292969,-36.082031 C -55.210978,-36.082031 -71.375,-19.918009 -71.375,0 c 0,19.918009 16.164022,36.082031 36.082031,36.082031 19.918988,0 36.08398462,-16.164022 36.08398462,-36.082031 10e-9,-19.918009 -16.16499662,-36.082031 -36.08398462,-36.082031 z m 0,1.580078 c 19.064974,0 34.50195338,15.438001 34.50195338,34.501953 0,19.063952 -15.43697938,34.501953 -34.50195338,34.501953 -19.063951,0 -34.501953,-15.438001 -34.501953,-34.501953 0,-19.063952 15.438002,-34.501953 34.501953,-34.501953 z"
         id="path104" />
    </g>
    <path
       d="m 94.145614,14.61415 v -1.10243 h 3.913625 v 3.69314 h -2.480467 v 2.480467 q 0,0.330729 0.165365,0.440972 0.220486,0.110243 1.322915,0.110243 h 1.984374 q 0.826822,0 0.881944,-0.05512 0.11024,-0.110243 0.16536,-0.275607 0.0551,-0.05512 0.27561,-1.10243 0.44097,0.275607 1.21267,0.551215 -0.22048,1.047308 -0.49609,1.378037 -0.22049,0.330729 -0.66146,0.496093 -0.33073,0.110243 -1.322913,0.110243 h -2.204859 q -1.543402,0 -1.984374,-0.220486 -0.606336,-0.275607 -0.606336,-1.212672 V 16.10243 h 2.535588 v -1.48828 z m -2.20486,3.362411 v -3.252168 h -1.047308 v 3.252168 z M 88.688587,10.755646 V 9.5429735 h 4.630204 v 1.2126725 h -1.653644 q -0.330729,1.543402 -0.771701,2.811196 h 2.259981 v 6.614578 h -1.212673 v -1.047308 h -1.047308 v 1.708766 h -1.157551 v -4.630205 q -0.385851,0.881944 -0.826822,1.48828 -0.05512,-0.606336 -0.165365,-0.826822 -0.05512,-0.275607 -0.330729,-0.661458 0.551215,-1.047308 1.10243,-2.480467 0.440972,-1.433158 0.826822,-2.97656 z m 9.811624,7.937494 q -0.275607,-0.881944 -0.551215,-1.322916 h 0.826822 q 0.275608,0 0.385851,-0.110243 0.110243,-0.110243 0.165364,-0.826822 0.110243,-2.094616 0.110243,-4.409719 h -4.519962 q -0.440971,0.71658 -1.322915,1.929252 -0.385851,-0.496093 -0.937065,-0.992186 0.937065,-1.267795 1.378037,-2.094617 0.440972,-0.716579 1.047308,-2.2048593 l 1.212673,0.6614579 Q 95.85438,10.424917 95.523651,10.921011 h 5.236539 q 0,4.46484 -0.11024,5.787756 -0.16537,1.047308 -0.49609,1.378037 -0.330733,0.330729 -1.653649,0.606336 z"
       id="text2028-1-6-5-36-0-7-3"
       style="-inkscape-font-specification:'Osaka, Normal';stroke-width:0.352777"
       aria-label="砲" />
    <path
       style="color:#000000;fill:#000000;stroke-miterlimit:10;-inkscape-stroke:none"
       d="m 95,3.5 c -6.339424,0 -11.5,5.1605759 -11.5,11.5 0,6.339424 5.160576,11.5 11.5,11.5 6.33942,0 11.5,-5.160576 11.5,-11.5 C 106.5,8.6605759 101.33942,3.5 95,3.5 Z m 0,2 c 5.25854,0 9.5,4.2414549 9.5,9.5 0,5.258545 -4.24146,9.5 -9.5,9.5 -5.258544,0 -9.5,-4.241455 -9.5,-9.5 0,-5.2585451 4.241456,-9.5 9.5,-9.5 z"
       id="ellipse75" />
  </g>
</svg>
