<?xml version="1.0" encoding="UTF-8" standalone="no"?>
<!-- Created with Inkscape (http://www.inkscape.org/) -->

<svg
   width="30mm"
   height="30mm"
   viewBox="0 0 30 30"
   version="1.1"
   id="svg1"
   xmlns="http://www.w3.org/2000/svg"
   xmlns:svg="http://www.w3.org/2000/svg">
  <defs
     id="defs1">
    <clipPath
       clipPathUnits="userSpaceOnUse"
       id="clipPath182-4-0-4-0-4-2-4-25-4-3-2">
      <path
         d="M 0,2834.646 H 2834.646 V 0 H 0 Z"
         transform="translate(-91.9855,-311.81193)"
         id="path182-0-3-8-6-1-1-0-9-0-0-3" />
    </clipPath>
  </defs>
  <g
     id="layer1"
     transform="translate(-40)">
    <g
       id="path181-3-3-6-8-6-2-8-3-6-5"
       clip-path="url(#clipPath182-4-0-4-0-4-2-4-25-4-3-2)"
       transform="matrix(0.37968369,0,0,-0.37968364,68.399899,15)">
      <path
         style="color:#000000;fill:#f9d08f;stroke-miterlimit:10;-inkscape-stroke:none"
         d="m 0,0 c 0,-19.491 -15.801,-35.292 -35.293,-35.292 -19.491,0 -35.292,15.801 -35.292,35.292 0,19.491 15.801,35.292 35.292,35.292 C -15.801,35.292 0,19.491 0,0"
         id="path107" />
      <path
         style="color:#000000;fill:#4d3608;stroke-miterlimit:10;-inkscape-stroke:none"
         d="M -35.292969,-36.082031 C -55.210978,-36.082031 -71.375,-19.918009 -71.375,0 c 0,19.918009 16.164022,36.082031 36.082031,36.082031 19.918988,0 36.08398462,-16.164022 36.08398462,-36.082031 10e-9,-19.918009 -16.16499662,-36.082031 -36.08398462,-36.082031 z m 0,1.580078 c 19.064974,0 34.50195338,15.438001 34.50195338,34.501953 0,19.063952 -15.43697938,34.501953 -34.50195338,34.501953 -19.063951,0 -34.501953,-15.438001 -34.501953,-34.501953 0,-19.063952 15.438002,-34.501953 34.501953,-34.501953 z"
         id="path108" />
    </g>
    <path
       d="m 61.035799,20.126298 q -0.330729,0.220486 -0.38585,0.330729 -0.110243,0.110243 -0.496094,0.716579 -2.370223,-1.047308 -3.858503,-2.149738 l 0.826822,-0.992186 q 2.315102,1.653644 3.913625,2.094616 z m -11.189661,1.157551 q -0.496094,-0.661457 -0.881944,-1.047308 1.598523,-0.716579 2.039495,-0.992187 0.330729,-0.165364 1.819009,-1.212672 l 0.937065,0.826822 q -1.819009,1.48828 -3.913625,2.425345 z m 7.110671,-4.630204 v -3.252168 h -4.46484 v 3.252168 z m -4.46484,-5.787756 v 1.48828 h 7.882372 v 1.047308 h -2.204859 v 3.252168 h 2.97656 v 1.102429 H 48.853951 v -1.102429 h 2.370224 V 9.653216 l 1.047308,0.2204859 q 0.440972,0 2.59071,-0.3307289 2.259981,-0.3307289 4.189233,-0.8268223 l 0.606336,1.1575512 q -3.913625,0.7717011 -7.165793,0.9921871 z"
       id="text2028-1-75-4-8-8-7-9"
       style="-inkscape-font-specification:'Osaka, Normal';fill:#d20000;stroke-width:0.352777"
       aria-label="兵" />
    <path
       style="color:#000000;fill:#d20000;stroke-miterlimit:10;-inkscape-stroke:none"
       d="M 55,3.5 C 48.660576,3.5 43.5,8.6605759 43.5,15 43.5,21.339424 48.660576,26.5 55,26.5 61.339424,26.5 66.5,21.339424 66.5,15 66.5,8.6605759 61.339424,3.5 55,3.5 Z m 0,2 c 5.258544,0 9.5,4.2414549 9.5,9.5 0,5.258545 -4.241456,9.5 -9.5,9.5 -5.258544,0 -9.5,-4.241455 -9.5,-9.5 0,-5.2585451 4.241456,-9.5 9.5,-9.5 z"
       id="ellipse78" />
  </g>
</svg>
