<?xml version="1.0" encoding="UTF-8" standalone="no"?>
<!-- Created with Inkscape (http://www.inkscape.org/) -->

<svg
   width="30mm"
   height="30mm"
   viewBox="0 0 30 30"
   version="1.1"
   id="svg1"
   xmlns="http://www.w3.org/2000/svg"
   xmlns:svg="http://www.w3.org/2000/svg">
  <defs
     id="defs1">
    <clipPath
       clipPathUnits="userSpaceOnUse"
       id="clipPath182-4-0-4-0-4-9-1-2">
      <path
         d="M 0,2834.646 H 2834.646 V 0 H 0 Z"
         transform="translate(-91.9855,-311.81193)"
         id="path182-0-3-8-6-1-6-0-1" />
    </clipPath>
  </defs>
  <g
     id="layer1"
     transform="translate(-360)">
    <g
       id="path181-3-3-6-8-6-3-4"
       clip-path="url(#clipPath182-4-0-4-0-4-9-1-2)"
       transform="matrix(0.37968369,0,0,-0.37968364,388.39998,15)">
      <path
         style="color:#000000;fill:#f9d08f;stroke-miterlimit:10;-inkscape-stroke:none"
         d="m 0,0 c 0,-19.491 -15.801,-35.292 -35.293,-35.292 -19.491,0 -35.292,15.801 -35.292,35.292 0,19.491 15.801,35.292 35.292,35.292 C -15.801,35.292 0,19.491 0,0"
         id="path115" />
      <path
         style="color:#000000;fill:#4d3608;stroke-miterlimit:10;-inkscape-stroke:none"
         d="M -35.292969,-36.082031 C -55.210978,-36.082031 -71.375,-19.918009 -71.375,0 c 0,19.918009 16.164022,36.082031 36.082031,36.082031 19.918988,0 36.08398462,-16.164022 36.08398462,-36.082031 10e-9,-19.918009 -16.16499662,-36.082031 -36.08398462,-36.082031 z m 0,1.580078 c 19.064974,0 34.50195338,15.438001 34.50195338,34.501953 0,19.063952 -15.43697938,34.501953 -34.50195338,34.501953 -19.063951,0 -34.501953,-15.438001 -34.501953,-34.501953 0,-19.063952 15.438002,-34.501953 34.501953,-34.501953 z"
         id="path116" />
    </g>
    <path
       d="m 379.79563,19.106552 v -2.204859 h -3.5829 v 2.204859 z m 0,-3.362411 v -2.094616 h -3.5829 v 2.094616 z m 0,-3.141924 V 10.5076 h -3.5829 v 2.094617 z m -4.85069,8.488708 V 9.4051706 h 6.11848 V 20.980682 h -1.26779 v -0.716579 h -3.5829 v 0.826822 z m -3.41753,-9.701381 V 8.7988343 h 1.26779 v 2.5907097 h 1.59853 v 1.10243 h -1.59853 v 1.433158 q 0.88195,0.771701 1.76389,1.322916 -0.22049,0.330729 -0.71658,1.157551 -0.22049,-0.220486 -0.55121,-0.496093 -0.33073,-0.330729 -0.4961,-0.385851 v 5.677513 h -1.26779 v -5.842877 q -0.44097,0.826822 -0.93707,1.653645 -0.2756,0.496093 -0.88194,1.267794 -0.22049,-0.440972 -0.7717,-1.212673 0.93706,-1.212673 1.5434,-2.204859 0.55121,-0.937066 1.04731,-2.370224 h -2.0395 v -1.10243 z"
       id="text2028-1-75-4-7-2"
       style="-inkscape-font-specification:'Osaka, Normal';fill:#d20000;stroke-width:0.352777"
       aria-label="相" />
    <path
       style="color:#000000;fill:#d20000;stroke-miterlimit:10;-inkscape-stroke:none"
       d="m 375,3.5 c -6.33942,0 -11.5,5.1605759 -11.5,11.5 0,6.339424 5.16058,11.5 11.5,11.5 6.33942,0 11.5,-5.160576 11.5,-11.5 0,-6.3394241 -5.16058,-11.5 -11.5,-11.5 z m 0,2 c 5.25854,0 9.5,4.2414549 9.5,9.5 0,5.258545 -4.24146,9.5 -9.5,9.5 -5.25854,0 -9.5,-4.241455 -9.5,-9.5 0,-5.2585451 4.24146,-9.5 9.5,-9.5 z"
       id="ellipse70" />
  </g>
</svg>
