<svg height="92" width="92" xmlns="http://www.w3.org/2000/svg" xmlns:xlink="http://www.w3.org/1999/xlink"><linearGradient id="a"><stop offset="0" stop-color="#dca682"/><stop offset=".18120606" stop-color="#dcae90" stop-opacity=".980392"/><stop offset=".36145115" stop-color="#d5a17e" stop-opacity=".972549"/><stop offset=".55711311" stop-color="#d5a17f" stop-opacity=".968627"/><stop offset=".7371344" stop-color="#d29b78" stop-opacity=".964706"/><stop offset=".88531494" stop-color="#dcaa88" stop-opacity=".964706"/><stop offset="1" stop-color="#dba37e" stop-opacity=".964706"/></linearGradient><radialGradient cx="45.381359" cy="48.334743" gradientTransform="matrix(.29888985 0 0 .28666316 31.817329 34.478952)" gradientUnits="userSpaceOnUse" r="40.95509" spreadMethod="repeat" xlink:href="#a"/><radialGradient id="b" cx="45.381359" cy="48.334743" gradientTransform="matrix(.48654155 0 0 .51052834 23.30144 23.658486)" gradientUnits="userSpaceOnUse" r="40.95509" spreadMethod="repeat" xlink:href="#a"/><filter id="c" color-interpolation-filters="sRGB"><feFlood flood-opacity=".498039" result="flood"/><feComposite in="flood" in2="SourceGraphic" operator="in" result="composite1"/><feGaussianBlur in="composite1" result="blur" stdDeviation="2.1"/><feOffset dx="0" dy="4" result="offset"/><feComposite in="SourceGraphic" in2="offset" operator="over" result="composite2"/></filter><filter id="d" color-interpolation-filters="sRGB"><feFlood flood-opacity=".498039" result="flood"/><feComposite in="flood" in2="SourceGraphic" operator="out" result="composite1"/><feGaussianBlur in="composite1" result="blur" stdDeviation="1"/><feOffset dx="0" dy="1" result="offset"/><feComposite in="offset" in2="SourceGraphic" operator="atop" result="composite2"/></filter><circle cx="45.381359" cy="48.334743" fill="url(#b)" filter="url(#c)" r="40.79224" transform="translate(.618638 -2.334746)"/><g fill="#050" filter="url(#d)" stroke="#050" transform="matrix(1.121995 0 0 1.121995 -5.607528 -3.649007)"><g fill="#050" stroke="#050" stroke-linejoin="round" stroke-width="1.312941" transform="matrix(.73170801 0 0 .89061254 62.92896554486 -14.91894161942)"><path d="m-22.715841 41.496901c-6.709808 7.383569-10.663816 12.802391-14.029253 18.972935 9.833495-1.692893 19.278926-2.323037 27.646001 0-2.69856-4.464975-7.002481-10.253202-13.616748-18.972935z"/><path d="m-26.817667 60.896469c1.31085 8.861829-3.645845 14.386908-11.545204 19.081976-5.236973 2.010186-7.708873 4.499726-7.614698 9.332185 12.369865 3.211336 31.696805 2.290793 45.67493078-.116941-.002369-3.821858-2.08387088-9.351048-7.28998228-9.958106-10.3223275-4.971535-10.9033515-10.063579-11.0201045-18.30082-3.173543-.438952-5.925438-.207767-8.204942-.03829z"/></g></g></svg>