<svg height="92" width="92" xmlns="http://www.w3.org/2000/svg" xmlns:xlink="http://www.w3.org/1999/xlink"><linearGradient id="a"><stop offset="0" stop-color="#dca682"/><stop offset=".18120606" stop-color="#dcae90" stop-opacity=".980392"/><stop offset=".36145115" stop-color="#d5a17e" stop-opacity=".972549"/><stop offset=".55711311" stop-color="#d5a17f" stop-opacity=".968627"/><stop offset=".7371344" stop-color="#d29b78" stop-opacity=".964706"/><stop offset=".88531494" stop-color="#dcaa88" stop-opacity=".964706"/><stop offset="1" stop-color="#dba37e" stop-opacity=".964706"/></linearGradient><radialGradient cx="45.381359" cy="48.334743" gradientTransform="matrix(.29888985 0 0 .28666316 31.817329 34.478952)" gradientUnits="userSpaceOnUse" r="40.95509" spreadMethod="repeat" xlink:href="#a"/><radialGradient id="b" cx="45.381359" cy="48.334743" gradientTransform="matrix(.48654155 0 0 .51052834 23.30144 23.658486)" gradientUnits="userSpaceOnUse" r="40.95509" spreadMethod="repeat" xlink:href="#a"/><filter id="c" color-interpolation-filters="sRGB"><feFlood flood-opacity=".498039" result="flood"/><feComposite in="flood" in2="SourceGraphic" operator="in" result="composite1"/><feGaussianBlur in="composite1" result="blur" stdDeviation="2.1"/><feOffset dx="0" dy="4" result="offset"/><feComposite in="SourceGraphic" in2="offset" operator="over" result="composite2"/></filter><filter id="d" color-interpolation-filters="sRGB"><feFlood flood-opacity=".498039" result="flood"/><feComposite in="flood" in2="SourceGraphic" operator="out" result="composite1"/><feGaussianBlur in="composite1" result="blur" stdDeviation="1"/><feOffset dx="0" dy="2.1" result="offset"/><feComposite in="offset" in2="SourceGraphic" operator="atop" result="composite2"/></filter><circle cx="45.381359" cy="48.334743" fill="url(#b)" filter="url(#c)" r="40.79224" transform="translate(.618638 -2.334746)"/><g fill="#d40000" filter="url(#d)" transform="matrix(1.2757723 0 0 1.2757723 85.918245 -53.888389)"><path d="m-52.630009 60.800754c12.079887.82929 16.235221.778634 20.790703.762712l-.115084 18.315684 1.15722-.03443.229866-18.281251c12.78265.08801 18.770273-.186164 22.6333349-.762712-16.1991759-5.185245-31.9990689-5.283878-44.6960399-.000003z"/><path d="m-27.244826 71.68115a16.761462 16.761462 0 0 1 16.76063 16.760628 16.761462 16.761462 0 0 1 -16.76063 16.763162 16.761462 16.761462 0 0 1 -16.763164-16.763162 16.761462 16.761462 0 0 1 16.763164-16.760628zm0 2.515362a14.247242 14.247242 0 0 0 -14.247802 14.245266 14.247242 14.247242 0 0 0 14.247802 14.247802 14.247242 14.247242 0 0 0 14.2478-14.247802 14.247242 14.247242 0 0 0 -14.2478-14.245266z"/><path d="m-46.948508 84.440503c-1.100359-1.583321-2.052595-4.120182-3.021921-5.965553l-4.114171-.07619c-.572036.863469-.801476 1.726938-.228571 2.590407l3.047542.228566c.679011 2.273621 1.630084 4.00315 2.590413 5.714135l4.508652.168304c.108315-1.158591-.02335-.80349.360831-2.611892-1.235016.05123-1.925315.02215-3.142775-.04778z"/><path d="m-12.612214 62.738177c.03917 5.88401.265917 11.789691.115055 16.95667-4.797619-5.826791-6.000532-6.87719-14.110332-8.400876.266048-2.019106 5.124498-8.160353 8.096482-8.825453z"/><path d="m-12.619301 87.044943c-.21864-1.896414-1.639002-5.533523-3.730067-8.463132-2.31979-3.250055-8.120538-4.6395-10.524676-4.587544-1.072241 2.513709-2.372868 5.80951-10.146798 6.630961 0 .631156-.06417 3.053966-.07197 4.001862-1.007086.06729-2.60815.118058-3.694251.04705-.198372.686617-.359385 2.050886-.327775 2.418473 9.184798.185995 19.417583.02504 28.495537-.04767z"/><path d="m205.65854 46.250197-7.41812-7.953301 2.39221 10.609472-2.44764-10.596824-3.23301 10.384179 3.17869-10.400935-7.99196 7.376453 7.9533-7.418125-10.60947 2.392212 10.59682-2.447634-10.38418-3.233019 10.40094 3.178699-7.37646-7.991966 7.41813 7.953301-2.39221-10.609472 2.44763 10.596824 3.23302-10.384179-3.1787 10.400935 7.99197-7.376453-7.9533 7.418125 10.60947-2.392213-10.59683 2.447634 10.38418 3.233019-10.40093-3.178698z" stroke="#d40000" stroke-linecap="square" stroke-width=".5" transform="matrix(-1.3208656 .32230963 .32230963 1.3208656 222.43736 -25.882919)"/></g></svg>