<?xml version="1.0" encoding="UTF-8" standalone="no"?>
<svg
   xmlns:dc="http://purl.org/dc/elements/1.1/"
   xmlns:cc="http://creativecommons.org/ns#"
   xmlns:rdf="http://www.w3.org/1999/02/22-rdf-syntax-ns#"
   xmlns:svg="http://www.w3.org/2000/svg"
   xmlns="http://www.w3.org/2000/svg"
   xmlns:sodipodi="http://sodipodi.sourceforge.net/DTD/sodipodi-0.dtd"
   xmlns:inkscape="http://www.inkscape.org/namespaces/inkscape"
   width="92"
   height="92"
   id="svg2"
   version="1.1"
   inkscape:version="1.0.1 (3bc2e813f5, 2020-09-07)"
   sodipodi:docname="BE.svg">
  <metadata
     id="metadata12">
    <rdf:RDF>
      <cc:Work
         rdf:about="">
        <dc:format>image/svg+xml</dc:format>
        <dc:type
           rdf:resource="http://purl.org/dc/dcmitype/StillImage" />
        <dc:title></dc:title>
      </cc:Work>
    </rdf:RDF>
  </metadata>
  <defs
     id="defs10" />
  <sodipodi:namedview
     pagecolor="#ffffff"
     bordercolor="#666666"
     borderopacity="1"
     objecttolerance="10"
     gridtolerance="10"
     guidetolerance="10"
     inkscape:pageopacity="0"
     inkscape:pageshadow="2"
     inkscape:window-width="3840"
     inkscape:window-height="2050"
     id="namedview8"
     showgrid="false"
     inkscape:zoom="7.4167644"
     inkscape:cx="2.3581902"
     inkscape:cy="65.142151"
     inkscape:window-x="3828"
     inkscape:window-y="-12"
     inkscape:window-maximized="1"
     inkscape:current-layer="layer2"
     fit-margin-top="0"
     fit-margin-left="0"
     fit-margin-right="0"
     fit-margin-bottom="0"
     inkscape:pagecheckerboard="false"
     inkscape:snap-nodes="false"
     inkscape:document-rotation="0" />
  <g
     inkscape:groupmode="layer"
     id="layer1"
     inkscape:label="Background"
     style="display:inline" />
  <g
     inkscape:groupmode="layer"
     id="layer2"
     inkscape:label="Symbol"
     style="display:inline">
    <g
       id="g24262"
       transform="translate(0.6186409,-2.3347435)"
       style="display:inline;">
      <circle
         style="color:#000000;display:inline;overflow:visible;visibility:visible;fill:#e6e6e6;fill-opacity:1;fill-rule:nonzero;stroke:#333333;stroke-width:3;stroke-linecap:round;stroke-linejoin:miter;stroke-miterlimit:10;stroke-dasharray:none;stroke-dashoffset:0;stroke-opacity:1;marker:none;enable-background:accumulate"
         id="circle4376-8-9"
         cx="45.381359"
         cy="48.334743"
         r="40.79224" />
    </g>
    <g
       id="g4673"
       transform="matrix(1.717341,0,0,1.717341,-98.035732,3.5569113)">
      <g
         id="g3396"
         style="fill:#ffffff;fill-opacity:1;stroke:#000000;stroke-width:1.82675;stroke-miterlimit:4;stroke-dasharray:none"
         transform="matrix(0.78701404,0,0,0.85672389,-10.702726,18.80371)">
        <path
           d="m 117.63203,21.886427 c 7.23259,1.359937 17.07482,-1.618798 20.56417,-6.328408 1.23242,-1.701397 2.45362,-3.499193 3.1594,-5.47708 -1.59003,-10.41332559 -15.94052,-23.281784 -25.31542,-13.9974803 -2.58005,2.5935278 -4.77065,5.6765683 -5.75899,9.2389526 -0.61261,1.2845085 -0.47129,3.3554695 -2.13001,3.798128 -7.28993,-1.4513187 4.37149,-7.0872384 4.21466,-11.4215568 0.83382,-2.4478518 -2.40883,-4.385405 -4.65293,-4.3270179 -2.45468,-0.3110358 -7.43643,1.7820221 -7.903557,4.0760124 0.440337,6.3758452 4.575317,2.63383511 6.664997,0.4119492 2.06733,0.6734077 0.60019,2.42117017 -0.68665,2.83490654 -7.198112,4.20058586 -5.54145,13.49325526 -0.13862,17.71798826 4.25402,2.556835 10.95123,2.45371 14.25719,-0.679115 1.39498,-2.144332 0.56033,-4.945293 1.62141,-7.239066 0.87444,-2.1704632 2.44796,-3.9552378 3.96252,-5.7002096 1.03059,-0.2537833 -0.0486,2.1822969 -0.83475,2.553347 -1.29133,1.4194017 -2.46505,3.2333336 -2.62671,5.2282706 0.11344,3.409751 -1.83438,6.81487 -4.39671,9.310379 z"
           style="fill:#333333;fill-opacity:1;stroke:none;stroke-width:1.82675;stroke-linecap:butt;stroke-linejoin:round;stroke-miterlimit:4;stroke-dasharray:none;stroke-opacity:1"
           id="path3392"
           sodipodi:nodetypes="cccccccccccccccccc" />
        <path
           sodipodi:nodetypes="ccccc"
           inkscape:connector-curvature="0"
           id="path3394"
           d="m 110.25678,13.980327 c -1.32838,4.066443 -6.29048,6.320224 -8.84063,8.798361 -0.20576,0.304421 0.14574,0.397532 1,0.3 6.64732,0.507117 12.6132,-3.643524 12.80154,-8.128938 -0.78642,-0.41302 -3.77285,-0.953263 -4.96091,-0.969423 z"
           style="fill:#e6e6e6;fill-opacity:1;stroke:#333333;stroke-width:1.20554;stroke-linecap:butt;stroke-linejoin:miter;stroke-miterlimit:4;stroke-dasharray:none;stroke-opacity:1" />
      </g>
      <path
         style="fill:#ffe6d5;fill-opacity:1;stroke:#e6e6e6;stroke-width:1.5;stroke-miterlimit:4;stroke-dasharray:none;stroke-opacity:1"
         d="m 81.366994,23.687114 c -1.00278,-1.900395 -1.87649,-1.351261 -0.866,0.544288 1.00278,1.900395 1.87649,1.351261 0.866,-0.544288 z"
         fill="#000000"
         id="path3408-4"
         sodipodi:nodetypes="ccc" />
    </g>
  </g>
</svg>
