<?xml version="1.0" encoding="UTF-8" standalone="no"?>
<svg
   xmlns:dc="http://purl.org/dc/elements/1.1/"
   xmlns:cc="http://creativecommons.org/ns#"
   xmlns:rdf="http://www.w3.org/1999/02/22-rdf-syntax-ns#"
   xmlns:svg="http://www.w3.org/2000/svg"
   xmlns="http://www.w3.org/2000/svg"
   xmlns:xlink="http://www.w3.org/1999/xlink"
   xmlns:sodipodi="http://sodipodi.sourceforge.net/DTD/sodipodi-0.dtd"
   xmlns:inkscape="http://www.inkscape.org/namespaces/inkscape"
   width="92"
   height="92"
   id="svg2"
   version="1.1"
   inkscape:version="0.92.4 (5da689c313, 2019-01-14)"
   sodipodi:docname="black_cannon.svg">
  <metadata
     id="metadata12">
    <rdf:RDF>
      <cc:Work
         rdf:about="">
        <dc:format>image/svg+xml</dc:format>
        <dc:type
           rdf:resource="http://purl.org/dc/dcmitype/StillImage" />
        <dc:title></dc:title>
      </cc:Work>
    </rdf:RDF>
  </metadata>
  <defs
     id="defs10">
    <filter
       height="1.5"
       width="1.5"
       y="0"
       x="0"
       id="f1"
       color-interpolation-filters="sRGB">
      <feOffset
         id="feOffset3123"
         dy="1"
         dx="1"
         in="SourceAlpha"
         result="offOut" />
      <feGaussianBlur
         id="feGaussianBlur3125"
         stdDeviation="1"
         in="offOut"
         result="blurOut" />
      <!--
      <feBlend in="SourceGraphic" in2="blurOut" mode="normal" />
-->
    </filter>
    <linearGradient
       y2="1"
       x2="0"
       y1="0"
       x1="0"
       id="grad2">
      <stop
         id="stop3118"
         style="stop-color:rgb(32,32,32);stop-opacity:0.3"
         offset="30%" />
      <stop
         id="stop3120"
         style="stop-color:rgb(255,255,255);stop-opacity:0.3"
         offset="100%" />
    </linearGradient>
    <linearGradient
       y2="1"
       x2="0"
       y1="0"
       x1="0"
       id="grad3">
      <stop
         id="stop3113"
         style="stop-color:rgb(255,255,255);stop-opacity:0.6"
         offset="10%" />
      <stop
         id="stop3115"
         style="stop-color:rgb(50,30,20);stop-opacity:0.3"
         offset="60%" />
    </linearGradient>
    <linearGradient
       inkscape:collect="always"
       xlink:href="#grad3"
       id="linearGradient3169"
       x1="10.900002"
       y1="4.9000015"
       x2="10.900002"
       y2="83.099998"
       gradientUnits="userSpaceOnUse" />
  </defs>
  <sodipodi:namedview
     pagecolor="#ffffff"
     bordercolor="#666666"
     borderopacity="1"
     objecttolerance="10"
     gridtolerance="10"
     guidetolerance="10"
     inkscape:pageopacity="0"
     inkscape:pageshadow="2"
     inkscape:window-width="958"
     inkscape:window-height="1008"
     id="namedview8"
     showgrid="false"
     inkscape:zoom="5.2444445"
     inkscape:cx="52.975914"
     inkscape:cy="61.119606"
     inkscape:window-x="1913"
     inkscape:window-y="0"
     inkscape:window-maximized="0"
     inkscape:current-layer="svg2"
     fit-margin-top="0"
     fit-margin-left="0"
     fit-margin-right="0"
     fit-margin-bottom="0" />
  <g
     id="use4"
     transform="translate(-4,2)">
    <circle
       style="opacity:0.3;fill:#000000;filter:url(#f1)"
       cx="50"
       cy="49"
       r="39"
       id="circle3159"
       d="M 89,49 C 89,70.539105 71.539105,88 50,88 28.460895,88 11,70.539105 11,49 11,27.460895 28.460895,10 50,10 71.539105,10 89,27.460895 89,49 z"
       sodipodi:ry="39"
       sodipodi:rx="39"
       sodipodi:cy="49"
       sodipodi:cx="50" />
    <circle
       style="fill:#302010"
       cx="50"
       cy="44"
       r="39"
       id="circle3161"
       d="M 89,44 C 89,65.539105 71.539105,83 50,83 28.460895,83 11,65.539105 11,44 11,22.460895 28.460895,5 50,5 71.539105,5 89,22.460895 89,44 z"
       sodipodi:ry="39"
       sodipodi:rx="39"
       sodipodi:cy="44"
       sodipodi:cx="50" />
    <circle
       style="fill:url(#linearGradient3169)"
       cx="50"
       cy="44"
       r="39.099998"
       id="circle3163"
       d="M 89.099998,44 C 89.099998,65.594333 71.594333,83.099998 50,83.099998 28.405667,83.099998 10.900002,65.594333 10.900002,44 10.900002,22.405667 28.405667,4.9000015 50,4.9000015 71.594333,4.9000015 89.099998,22.405667 89.099998,44 z"
       sodipodi:ry="39.099998"
       sodipodi:rx="39.099998"
       sodipodi:cy="44"
       sodipodi:cx="50" />
    <circle
       style="fill:none;stroke:#442211;stroke-width:1"
       cx="50"
       cy="44"
       r="39"
       id="circle3165"
       d="M 89,44 C 89,65.539105 71.539105,83 50,83 28.460895,83 11,65.539105 11,44 11,22.460895 28.460895,5 50,5 71.539105,5 89,22.460895 89,44 z"
       sodipodi:ry="39"
       sodipodi:rx="39"
       sodipodi:cy="44"
       sodipodi:cx="50" />
    <circle
       style="fill:#483420"
       cx="50"
       cy="44"
       r="34.049999"
       id="circle3167"
       d="M 84.049999,44 C 84.049999,62.805295 68.805295,78.049999 50,78.049999 31.194705,78.049999 15.950001,62.805295 15.950001,44 15.950001,25.194705 31.194705,9.9500008 50,9.9500008 68.805295,9.9500008 84.049999,25.194705 84.049999,44 z"
       sodipodi:ry="34.049999"
       sodipodi:rx="34.049999"
       sodipodi:cy="44"
       sodipodi:cx="50" />
  </g>
  <g
     transform="translate(-1.3482964,1.6647936)"
     style="display:inline"
     id="g18015">
    <g
       transform="translate(1.36549,2.250535)"
       style="display:inline"
       id="g19066">
      <g
         transform="matrix(-1.0339627,0,0,1.0339627,888.34584,-245.90707)"
         id="g5204">
        <g
           id="g4916"
           transform="matrix(0.42429161,0,0,0.35530383,319.4593,167.8082)">
          <g
             transform="matrix(0.91849155,-0.04088349,0.02866942,0.91849155,95.269582,54.832886)"
             id="g873">
            <path
               sodipodi:nodetypes="ccccccccc"
               inkscape:connector-curvature="0"
               style="fill:#ffffff;fill-opacity:1;stroke:#ffffff;stroke-width:2.65330386;stroke-miterlimit:10"
               d="m 1213.6335,288.03625 -92.5944,36.18456 c 0,0 -8.0242,8.93392 -2.8931,21.42532 l 0.063,0.30499 0.063,0.30498 c 4.9395,12.5585 16.4998,12.34665 16.4998,12.34665 37.098,-28.13428 66.1489,-38.4485 87.024,-50.31774 -0.192,-4.06467 -1.8458,-7.47907 -2.8249,-11.1936 -1.3824,-3.19489 -2.9322,-6.31529 -5.3374,-9.05516 z"
               id="path47" />
            <ellipse
               style="fill:#ffffff;fill-opacity:1;stroke:#ffffff;stroke-width:3.00610209;stroke-miterlimit:10"
               id="circle53"
               cy="677.90155"
               cx="1017.132"
               stroke-miterlimit="10"
               rx="3.753881"
               ry="3.6617434"
               transform="matrix(0.95110508,-0.30886749,0.22204229,0.97503704,0,0)" />
          </g>
          <path
             sodipodi:nodetypes="cccccc"
             inkscape:connector-curvature="0"
             id="rect875"
             d="m 1188.053,314.76933 -0.1997,22.82133 -37.6537,4.53206 c -16.1431,26.71247 -25.0217,28.93186 -41.2475,19.47896 18.33,-6.79184 27.9258,-27.84095 38.5459,-46.51534 z"
             style="opacity:1;fill:#ffffff;fill-opacity:1;stroke:#483420;stroke-width:1.83159566;stroke-linecap:square;stroke-linejoin:miter;stroke-miterlimit:4;stroke-dasharray:none;stroke-opacity:1;paint-order:normal" />
          <ellipse
             cx="-1207.3654"
             cy="214.17735"
             rx="27.158773"
             ry="32.340363"
             transform="matrix(-0.99442868,-0.10541155,-0.07412913,0.99724865,0,0)"
             id="path869"
             style="opacity:1;fill:#ffffff;fill-opacity:1;stroke:#483420;stroke-width:1.99324226;stroke-linecap:square;stroke-linejoin:bevel;stroke-miterlimit:4;stroke-dasharray:none;stroke-opacity:1;paint-order:normal" />
          <ellipse
             ry="21.17234"
             rx="17.729818"
             cy="340.7244"
             cx="1184.762"
             id="path890"
             style="opacity:1;fill:#483420;fill-opacity:1;stroke:#483420;stroke-width:2.05792236;stroke-linecap:square;stroke-linejoin:miter;stroke-miterlimit:4;stroke-dasharray:none;stroke-opacity:1;paint-order:normal" />
          <rect
             transform="matrix(-0.62961158,0.77691007,0.65434208,0.75619868,0,0)"
             y="1132.5303"
             x="-684.76074"
             height="41.437584"
             width="2.9200215"
             id="rect892-1"
             style="display:inline;opacity:1;fill:#ffffff;fill-opacity:1;stroke:#ffffff;stroke-width:2.22107673;stroke-linecap:square;stroke-linejoin:miter;stroke-miterlimit:4;stroke-dasharray:none;stroke-opacity:1;paint-order:normal" />
          <rect
             style="opacity:1;fill:#ffffff;fill-opacity:1;stroke:#ffffff;stroke-width:2.2210741;stroke-linecap:square;stroke-linejoin:miter;stroke-miterlimit:4;stroke-dasharray:none;stroke-opacity:1;paint-order:normal"
             id="rect909"
             width="2.9027057"
             height="41.684681"
             x="-1155.4326"
             y="-703.56848"
             transform="matrix(-0.65516628,-0.75548471,-0.62877406,0.77758805,0,0)" />
          <rect
             style="display:inline;opacity:1;fill:#ffffff;fill-opacity:1;stroke:#ffffff;stroke-width:2.2037704;stroke-linecap:square;stroke-linejoin:miter;stroke-miterlimit:4;stroke-dasharray:none;stroke-opacity:1;paint-order:normal"
             id="rect911"
             width="3.156975"
             height="37.732437"
             x="343.79016"
             y="1165.2843"
             transform="matrix(0.0023305,0.99999728,0.99999448,-0.00332335,0,0)" />
          <rect
             transform="matrix(-0.99998924,0.00463819,0.00325253,0.99999471,0,0)"
             y="323.77573"
             x="-1184.9684"
             height="45.058598"
             width="2.6436777"
             id="rect913"
             style="opacity:1;fill:#ffffff;fill-opacity:1;stroke:#ffffff;stroke-width:2.20377064;stroke-linecap:square;stroke-linejoin:miter;stroke-miterlimit:4;stroke-dasharray:none;stroke-opacity:1;paint-order:normal" />
        </g>
      </g>
    </g>
  </g>
</svg>
