<svg height="92" width="92" xmlns="http://www.w3.org/2000/svg" xmlns:xlink="http://www.w3.org/1999/xlink"><filter id="a" color-interpolation-filters="sRGB" height="1.5" width="1.5" x="0" y="0"><feOffset dx="1" dy="1" in="SourceAlpha" result="offOut"/><feGaussianBlur in="offOut" result="blurOut" stdDeviation="1"/></filter><linearGradient id="b" gradientUnits="userSpaceOnUse" x1="10.900002" x2="10.900002" y1="4.900002" y2="83.099998"><stop offset=".1" stop-color="#fff" stop-opacity=".6"/><stop offset=".6" stop-color="#321e14" stop-opacity=".3"/></linearGradient><g transform="translate(-4 2)"><circle cx="50" cy="49" filter="url(#a)" opacity=".3" r="39"/><circle cx="50" cy="44" fill="#302010" r="39"/><circle cx="50" cy="44" fill="url(#b)" r="39.099998"/><circle cx="50" cy="44" fill="none" r="39" stroke="#421"/><circle cx="50" cy="44" fill="#483420" r="34.049999"/></g><g fill="#fff" stroke="#fff" transform="translate(.021039 1.74569)"><g stroke-linejoin="round" stroke-width="1.312941" transform="matrix(.73170801 0 0 .89061254 62.92896554486 -14.91894161942)"><path d="m-22.715841 41.496901c-6.709808 7.383569-10.663816 12.802391-14.029253 18.972935 9.833495-1.692893 19.278926-2.323037 27.646001 0-2.69856-4.464975-7.002481-10.253202-13.616748-18.972935z"/><path d="m-26.817667 60.896469c1.31085 8.861829-3.645845 14.386908-11.545204 19.081976-5.236973 2.010186-7.708873 4.499726-7.614698 9.332185 12.369865 3.211336 31.696805 2.290793 45.67493078-.116941-.002369-3.821858-2.08387088-9.351048-7.28998228-9.958106-10.3223275-4.971535-10.9033515-10.063579-11.0201045-18.30082-3.173543-.438952-5.925438-.207767-8.204942-.03829z"/></g><path d="m37.364676 36.197364-1.389805 2.974841 2.603272-.615322c-.516847-.05328-1.134816.02931-1.651663-.18539-.03118-.693179.308827-1.521087.438196-2.174129z"/><path d="m42.066862 48.315182c-.970796 1.874384-4.188748 6.060346-7.208317 7.995683-3.889337 1.575798-5.791152 4.885757-5.571735 8.311361l.881332.37813c-.117629-2.366189.54481-4.864987 2.662886-6.640362 3.833557-2.202021 8.236266-5.603108 9.235834-10.044812z"/></g></svg>