<svg height="92" width="92" xmlns="http://www.w3.org/2000/svg" xmlns:xlink="http://www.w3.org/1999/xlink"><filter id="a" color-interpolation-filters="sRGB" height="1.5" width="1.5" x="0" y="0"><feOffset dx="1" dy="1" in="SourceAlpha" result="offOut"/><feGaussianBlur in="offOut" result="blurOut" stdDeviation="1"/></filter><linearGradient id="b" gradientUnits="userSpaceOnUse" x1="10.900002" x2="10.900002" y1="4.900002" y2="83.099998"><stop offset=".1" stop-color="#fff" stop-opacity=".6"/><stop offset=".6" stop-color="#321e14" stop-opacity=".3"/></linearGradient><g transform="translate(-4 2)"><circle cx="50" cy="49" filter="url(#a)" opacity=".3" r="39"/><circle cx="50" cy="44" fill="#302010" r="39"/><circle cx="50" cy="44" fill="url(#b)" r="39.099998"/><circle cx="50" cy="44" fill="none" r="39" stroke="#421"/><circle cx="50" cy="44" fill="#483420" r="34.049999"/></g><g transform="matrix(1.0139593 0 0 1.0139593 -6.101545 -5.427143)"><path d="m51.359744 64.137284c-4.337713-.10611-8.805939.1336-14.547379-.39363-3.058483-4.3653-7.669835-20.160519-6.59342-27.568229 8.133658-4.95419 36.964481-6.25835 41.572966.16499 1.076415 7.4077-2.923901 22.915189-5.982386 27.280479" fill="#fff"/><path d="m36.812365 63.358694c-.04975 3.77127.586986 6.81989 1.603673 10.59116 4.677097 2.07938 8.290066 2.31232 12.581636 2.41134 4.291572-.0795 9.098353-.71692 13.005531-2.52132 1.016687-3.77127 1.877469-6.70991 1.827718-10.48118l-14.483816.49591z" fill="#fff"/><g stroke="#483420"><path d="m36.152435 64.820494c10.116218-2.68441 21.010358-2.6855 30.279356.055" fill="none" stroke-width="2"/><path d="m55.628615 42.156505-2.276915 11.784649" fill="none" stroke-width="1.5"/><path d="m47.005327 42.754975 1.715994 10.872389" fill="none" stroke-width="1.5"/><path d="m37.477824 73.419214c10.635287-2.46469 19.543529-1.70899 27.242793-.2198" fill="none" stroke-width="2"/><ellipse cx="51.023945" cy="67.205116" fill="#483420" rx="2.41879" ry="2.528778" stroke-linecap="square" stroke-width=".965141"/><path d="m29.883219 35.881575c3.031645 8.87729 6.222505 6.09111 6.910112 7.23293.798314 2.55026 4.120375 19.604439 4.120375 19.604439l.164982.82491" fill="none" stroke-width="2"/><path d="m72.201896 35.570485c-3.031645 8.87729-5.522544 6.01334-6.210152 7.15515-.798314 2.55026-4.820335 19.682209-4.820335 19.682209l-.164982.82491" fill="none" stroke-width="2"/><path d="m36.808619 42.970585c5.355804-5.07573 7.816328-1.15585 10.503881-.32996 2.151414-1.93708 4.337824-4.08726 8.4727-.24195 2.914409-2.83934 7.470518-2.8371 10.2803.24195" fill="none" stroke-width="2"/><path d="m42.596868 62.901714c.329506-2.36495-.59859-6.18345 4.970044-7.0772 1.838323-4.4565 4.858416-4.7748 7.115771 0 2.925394 1.34592 4.570542.65162 4.807702 7.04488" fill="none" stroke-width="2"/><path d="m28.636349 39.736975c.453129 1.38959 1.885764 5.10389 3.477975 4.08568.817175 1.59851 1.706522 1.97032 2.736363 1.08377-.81768 1.34753-.863608 2.50192.604935 3.40964-.186761 1.75485-.585476 3.103729.9349 4.289539-.533899 2.11747-.187173 3.05934.962398 4.15206-.757651 1.24616-.523948 3.26969.907403 3.93208-.285562 1.18136-.829693 2.57144 1.814806 2.8322" fill="none"/><path d="m74.132165 39.637885c-.453129 1.38958-1.885764 5.10388-3.477975 4.08567-.817175 1.59852-1.706522 1.97032-2.736363 1.08378.81768 1.34752.863608 2.50191-.604935 3.40963.186761 1.75485.585476 3.103739-.9349 4.289549.533899 2.11747.187173 3.05933-.962398 4.15205.757651 1.24617.523948 3.26969-.907403 3.93208.285562 1.18136.829693 2.57145-1.814806 2.8322" fill="none"/><path d="m38.347182 72.757924 3.033165-5.36637 2.955391 4.23866 2.243636-4.36199 2.394466 4.25907" fill="none" stroke-width=".8"/><path d="m38.036089 70.138324c-4.001746 6.97033 2.190618-3.38314 3.227598-5.32748l2.828116 3.88163 2.538252-4.23161 2.085326 3.85214" fill="none" stroke-width=".8"/><path d="m63.996206 72.627584-2.856388-5.18959-2.867003 4.06188-2.449865-4.47197-2.683184 4.35531" fill="none" stroke-width=".8"/><path d="m64.572465 70.138324c4.001745 6.97033-2.307279-3.30537-3.344259-5.24971l-2.799844 3.80386-2.449864-4.23161-2.649015 3.8109" fill="none" stroke-width=".8"/></g></g></svg>