<?xml version="1.0" encoding="UTF-8" standalone="no"?>
<svg
   xmlns:dc="http://purl.org/dc/elements/1.1/"
   xmlns:cc="http://creativecommons.org/ns#"
   xmlns:rdf="http://www.w3.org/1999/02/22-rdf-syntax-ns#"
   xmlns:svg="http://www.w3.org/2000/svg"
   xmlns="http://www.w3.org/2000/svg"
   xmlns:xlink="http://www.w3.org/1999/xlink"
   xmlns:sodipodi="http://sodipodi.sourceforge.net/DTD/sodipodi-0.dtd"
   xmlns:inkscape="http://www.inkscape.org/namespaces/inkscape"
   width="92"
   height="92"
   id="svg2"
   version="1.1"
   inkscape:version="0.92.4 (5da689c313, 2019-01-14)"
   sodipodi:docname="black_king.svg">
  <metadata
     id="metadata12">
    <rdf:RDF>
      <cc:Work
         rdf:about="">
        <dc:format>image/svg+xml</dc:format>
        <dc:type
           rdf:resource="http://purl.org/dc/dcmitype/StillImage" />
        <dc:title />
      </cc:Work>
    </rdf:RDF>
  </metadata>
  <defs
     id="defs10">
    <filter
       height="1.5"
       width="1.5"
       y="0"
       x="0"
       id="f1"
       color-interpolation-filters="sRGB">
      <feOffset
         id="feOffset3123"
         dy="1"
         dx="1"
         in="SourceAlpha"
         result="offOut" />
      <feGaussianBlur
         id="feGaussianBlur3125"
         stdDeviation="1"
         in="offOut"
         result="blurOut" />
      <!--
      <feBlend in="SourceGraphic" in2="blurOut" mode="normal" />
-->
    </filter>
    <linearGradient
       y2="1"
       x2="0"
       y1="0"
       x1="0"
       id="grad2">
      <stop
         id="stop3118"
         style="stop-color:rgb(32,32,32);stop-opacity:0.3"
         offset="30%" />
      <stop
         id="stop3120"
         style="stop-color:rgb(255,255,255);stop-opacity:0.3"
         offset="100%" />
    </linearGradient>
    <linearGradient
       y2="1"
       x2="0"
       y1="0"
       x1="0"
       id="grad3">
      <stop
         id="stop3113"
         style="stop-color:rgb(255,255,255);stop-opacity:0.6"
         offset="10%" />
      <stop
         id="stop3115"
         style="stop-color:rgb(50,30,20);stop-opacity:0.3"
         offset="60%" />
    </linearGradient>
    <linearGradient
       inkscape:collect="always"
       xlink:href="#grad3"
       id="linearGradient3169"
       x1="10.900002"
       y1="4.9000015"
       x2="10.900002"
       y2="83.099998"
       gradientUnits="userSpaceOnUse" />
  </defs>
  <sodipodi:namedview
     pagecolor="#ffffff"
     bordercolor="#666666"
     borderopacity="1"
     objecttolerance="10"
     gridtolerance="10"
     guidetolerance="10"
     inkscape:pageopacity="0"
     inkscape:pageshadow="2"
     inkscape:window-width="958"
     inkscape:window-height="1001"
     id="namedview8"
     showgrid="false"
     inkscape:zoom="1.8541911"
     inkscape:cx="-63.719933"
     inkscape:cy="48.867604"
     inkscape:window-x="1913"
     inkscape:window-y="0"
     inkscape:window-maximized="0"
     inkscape:current-layer="svg2"
     fit-margin-top="0"
     fit-margin-left="0"
     fit-margin-right="0"
     fit-margin-bottom="0" />
  <g
     id="use4"
     transform="translate(-4,2)">
    <circle
       d="M 89,49 C 89,70.539105 71.539105,88 50,88 28.460895,88 11,70.539105 11,49 11,27.460895 28.460895,10 50,10 71.539105,10 89,27.460895 89,49 z"
       style="opacity:0.3;fill:#000000;filter:url(#f1)"
       sodipodi:ry="39"
       sodipodi:rx="39"
       sodipodi:cy="49"
       sodipodi:cx="50"
       cx="50"
       cy="49"
       r="39"
       id="circle3159" />
    <circle
       d="M 89,44 C 89,65.539105 71.539105,83 50,83 28.460895,83 11,65.539105 11,44 11,22.460895 28.460895,5 50,5 71.539105,5 89,22.460895 89,44 z"
       style="fill:#302010"
       sodipodi:ry="39"
       sodipodi:rx="39"
       sodipodi:cy="44"
       sodipodi:cx="50"
       cx="50"
       cy="44"
       r="39"
       id="circle3161" />
    <circle
       d="M 89.099998,44 C 89.099998,65.594333 71.594333,83.099998 50,83.099998 28.405667,83.099998 10.900002,65.594333 10.900002,44 10.900002,22.405667 28.405667,4.9000015 50,4.9000015 71.594333,4.9000015 89.099998,22.405667 89.099998,44 z"
       style="fill:url(#linearGradient3169)"
       sodipodi:ry="39.099998"
       sodipodi:rx="39.099998"
       sodipodi:cy="44"
       sodipodi:cx="50"
       cx="50"
       cy="44"
       r="39.099998"
       id="circle3163" />
    <circle
       d="M 89,44 C 89,65.539105 71.539105,83 50,83 28.460895,83 11,65.539105 11,44 11,22.460895 28.460895,5 50,5 71.539105,5 89,22.460895 89,44 z"
       style="fill:none;stroke:#442211;stroke-width:1"
       sodipodi:ry="39"
       sodipodi:rx="39"
       sodipodi:cy="44"
       sodipodi:cx="50"
       cx="50"
       cy="44"
       r="39"
       id="circle3165" />
    <circle
       d="M 84.049999,44 C 84.049999,62.805295 68.805295,78.049999 50,78.049999 31.194705,78.049999 15.950001,62.805295 15.950001,44 15.950001,25.194705 31.194705,9.9500008 50,9.9500008 68.805295,9.9500008 84.049999,25.194705 84.049999,44 z"
       style="fill:#483420"
       sodipodi:ry="34.049999"
       sodipodi:rx="34.049999"
       sodipodi:cy="44"
       sodipodi:cx="50"
       cx="50"
       cy="44"
       r="34.049999"
       id="circle3167" />
  </g>
  <g
     id="g14133"
     transform="matrix(1.0139593,0,0,1.0139593,-6.1015451,-5.4271428)">
    <path
       style="display:inline;fill:#ffffff;fill-opacity:1;stroke:none;stroke-width:1.15365481;stroke-linecap:butt;stroke-linejoin:miter;stroke-miterlimit:4;stroke-dasharray:none;stroke-opacity:1"
       d="m 51.359744,64.137284 c -4.337713,-0.10611 -8.805939,0.1336 -14.547379,-0.39363 -3.058483,-4.3653 -7.669835,-20.160519 -6.59342,-27.568229 8.133658,-4.95419 36.964481,-6.25835 41.572966,0.16499 1.076415,7.4077 -2.923901,22.915189 -5.982386,27.280479"
       id="path7039-4"
       inkscape:connector-curvature="0"
       sodipodi:nodetypes="ccccc" />
    <path
       style="display:inline;fill:#ffffff;fill-opacity:1;stroke:none;stroke-width:0.624152;stroke-linecap:butt;stroke-linejoin:miter;stroke-miterlimit:4;stroke-dasharray:none;stroke-opacity:1"
       d="m 36.812365,63.358694 c -0.04975,3.77127 0.586986,6.81989 1.603673,10.59116 4.677097,2.07938 8.290066,2.31232 12.581636,2.41134 4.291572,-0.0795 9.098353,-0.71692 13.005531,-2.52132 1.016687,-3.77127 1.877469,-6.70991 1.827718,-10.48118 l -14.483816,0.49591 z"
       id="path7043-9"
       inkscape:connector-curvature="0"
       sodipodi:nodetypes="ccccccc" />
    <path
       style="display:inline;fill:none;stroke:#483420;stroke-width:2;stroke-linecap:butt;stroke-linejoin:miter;stroke-miterlimit:4;stroke-dasharray:none;stroke-opacity:1"
       d="m 36.152435,64.820494 c 10.116218,-2.68441 21.010358,-2.6855 30.279356,0.055"
       id="path7068-2"
       inkscape:connector-curvature="0"
       sodipodi:nodetypes="cc" />
    <path
       style="display:inline;fill:none;stroke:#483420;stroke-width:1.5;stroke-linecap:butt;stroke-linejoin:miter;stroke-miterlimit:4;stroke-dasharray:none;stroke-opacity:1"
       d="M 55.628615,42.156505 53.3517,53.941154"
       id="path7088-8"
       inkscape:connector-curvature="0"
       sodipodi:nodetypes="cc" />
    <path
       sodipodi:nodetypes="cc"
       inkscape:connector-curvature="0"
       id="path7090-7"
       d="m 47.005327,42.754975 1.715994,10.872389"
       style="display:inline;fill:none;stroke:#483420;stroke-width:1.5;stroke-linecap:butt;stroke-linejoin:miter;stroke-miterlimit:4;stroke-dasharray:none;stroke-opacity:1" />
    <path
       style="display:inline;fill:none;stroke:#483420;stroke-width:2;stroke-linecap:butt;stroke-linejoin:miter;stroke-miterlimit:4;stroke-dasharray:none;stroke-opacity:1"
       d="m 37.477824,73.419214 c 10.635287,-2.46469 19.543529,-1.70899 27.242793,-0.2198"
       id="path7096-3"
       inkscape:connector-curvature="0"
       sodipodi:nodetypes="cc" />
    <ellipse
       ry="2.5287778"
       rx="2.4187896"
       style="display:inline;opacity:1;fill:#483420;fill-opacity:1;stroke:#483420;stroke-width:0.96514052;stroke-linecap:square;stroke-linejoin:miter;stroke-miterlimit:4;stroke-dasharray:none;stroke-opacity:1;paint-order:normal"
       id="path7098-0"
       cx="51.023945"
       cy="67.205116" />
    <path
       style="display:inline;fill:none;stroke:#483420;stroke-width:2;stroke-linecap:butt;stroke-linejoin:miter;stroke-miterlimit:4;stroke-dasharray:none;stroke-opacity:1"
       d="m 29.883219,35.881575 c 3.031645,8.87729 6.222505,6.09111 6.910112,7.23293 0.798314,2.55026 4.120375,19.604439 4.120375,19.604439 l 0.164982,0.82491"
       id="path8714-5"
       inkscape:connector-curvature="0"
       sodipodi:nodetypes="cccc" />
    <path
       sodipodi:nodetypes="cccc"
       inkscape:connector-curvature="0"
       id="path8716-9"
       d="m 72.201896,35.570485 c -3.031645,8.87729 -5.522544,6.01334 -6.210152,7.15515 -0.798314,2.55026 -4.820335,19.682209 -4.820335,19.682209 l -0.164982,0.82491"
       style="display:inline;fill:none;stroke:#483420;stroke-width:2;stroke-linecap:butt;stroke-linejoin:miter;stroke-miterlimit:4;stroke-dasharray:none;stroke-opacity:1" />
    <path
       style="display:inline;fill:none;stroke:#483420;stroke-width:2;stroke-linecap:butt;stroke-linejoin:miter;stroke-miterlimit:4;stroke-dasharray:none;stroke-opacity:1"
       d="m 36.808619,42.970585 c 5.355804,-5.07573 7.816328,-1.15585 10.503881,-0.32996 2.151414,-1.93708 4.337824,-4.08726 8.4727,-0.24195 2.914409,-2.83934 7.470518,-2.8371 10.2803,0.24195"
       id="path8718-6"
       inkscape:connector-curvature="0"
       sodipodi:nodetypes="cccc" />
    <path
       style="display:inline;fill:none;stroke:#483420;stroke-width:2;stroke-linecap:butt;stroke-linejoin:miter;stroke-miterlimit:4;stroke-dasharray:none;stroke-opacity:1"
       d="m 42.596868,62.901714 c 0.329506,-2.36495 -0.59859,-6.18345 4.970044,-7.0772 1.838323,-4.4565 4.858416,-4.7748 7.115771,0 2.925394,1.34592 4.570542,0.65162 4.807702,7.04488"
       id="path8722-9"
       inkscape:connector-curvature="0"
       sodipodi:nodetypes="cccc" />
    <path
       style="display:inline;fill:none;stroke:#483420;stroke-width:1;stroke-linecap:butt;stroke-linejoin:miter;stroke-miterlimit:4;stroke-dasharray:none;stroke-opacity:1"
       d="m 28.636349,39.736975 c 0.453129,1.38959 1.885764,5.10389 3.477975,4.08568 0.817175,1.59851 1.706522,1.97032 2.736363,1.08377 -0.81768,1.34753 -0.863608,2.50192 0.604935,3.40964 -0.186761,1.75485 -0.585476,3.103729 0.9349,4.289539 -0.533899,2.11747 -0.187173,3.05934 0.962398,4.15206 -0.757651,1.24616 -0.523948,3.26969 0.907403,3.93208 -0.285562,1.18136 -0.829693,2.57144 1.814806,2.8322"
       id="path8751-3"
       inkscape:connector-curvature="0"
       sodipodi:nodetypes="cccccccc" />
    <path
       sodipodi:nodetypes="cccccccc"
       inkscape:connector-curvature="0"
       id="path8754-2"
       d="m 74.132165,39.637885 c -0.453129,1.38958 -1.885764,5.10388 -3.477975,4.08567 -0.817175,1.59852 -1.706522,1.97032 -2.736363,1.08378 0.81768,1.34752 0.863608,2.50191 -0.604935,3.40963 0.186761,1.75485 0.585476,3.103739 -0.9349,4.289549 0.533899,2.11747 0.187173,3.05933 -0.962398,4.15205 0.757651,1.24617 0.523948,3.26969 -0.907403,3.93208 0.285562,1.18136 0.829693,2.57145 -1.814806,2.8322"
       style="display:inline;fill:none;stroke:#483420;stroke-width:1;stroke-linecap:butt;stroke-linejoin:miter;stroke-miterlimit:4;stroke-dasharray:none;stroke-opacity:1" />
    <path
       style="display:inline;fill:none;stroke:#483420;stroke-width:0.80000001;stroke-linecap:butt;stroke-linejoin:miter;stroke-miterlimit:4;stroke-dasharray:none;stroke-opacity:1"
       d="m 38.347182,72.757924 3.033165,-5.36637 2.955391,4.23866 2.243636,-4.36199 2.394466,4.25907"
       id="path8756-6"
       inkscape:connector-curvature="0"
       sodipodi:nodetypes="ccccc" />
    <path
       sodipodi:nodetypes="ccccc"
       inkscape:connector-curvature="0"
       id="path8759-3"
       d="m 38.036089,70.138324 c -4.001746,6.97033 2.190618,-3.38314 3.227598,-5.32748 l 2.828116,3.88163 2.538252,-4.23161 2.085326,3.85214"
       style="display:inline;fill:none;stroke:#483420;stroke-width:0.80000001;stroke-linecap:butt;stroke-linejoin:miter;stroke-miterlimit:4;stroke-dasharray:none;stroke-opacity:1" />
    <path
       sodipodi:nodetypes="ccccc"
       inkscape:connector-curvature="0"
       id="path8761-9"
       d="m 63.996206,72.627584 -2.856388,-5.18959 -2.867003,4.06188 -2.449865,-4.47197 -2.683184,4.35531"
       style="display:inline;fill:none;stroke:#483420;stroke-width:0.80000001;stroke-linecap:butt;stroke-linejoin:miter;stroke-miterlimit:4;stroke-dasharray:none;stroke-opacity:1" />
    <path
       style="display:inline;fill:none;stroke:#483420;stroke-width:0.80000001;stroke-linecap:butt;stroke-linejoin:miter;stroke-miterlimit:4;stroke-dasharray:none;stroke-opacity:1"
       d="m 64.572465,70.138324 c 4.001745,6.97033 -2.307279,-3.30537 -3.344259,-5.24971 l -2.799844,3.80386 -2.449864,-4.23161 -2.649015,3.8109"
       id="path8763-1"
       inkscape:connector-curvature="0"
       sodipodi:nodetypes="ccccc" />
  </g>
</svg>
