<?xml version="1.0" encoding="UTF-8" standalone="no"?>
<svg
   xmlns:dc="http://purl.org/dc/elements/1.1/"
   xmlns:cc="http://creativecommons.org/ns#"
   xmlns:rdf="http://www.w3.org/1999/02/22-rdf-syntax-ns#"
   xmlns:svg="http://www.w3.org/2000/svg"
   xmlns="http://www.w3.org/2000/svg"
   xmlns:xlink="http://www.w3.org/1999/xlink"
   xmlns:sodipodi="http://sodipodi.sourceforge.net/DTD/sodipodi-0.dtd"
   xmlns:inkscape="http://www.inkscape.org/namespaces/inkscape"
   width="92"
   height="92"
   id="svg2"
   version="1.1"
   inkscape:version="0.92.4 (5da689c313, 2019-01-14)"
   sodipodi:docname="red_chariot.svg">
  <metadata
     id="metadata12">
    <rdf:RDF>
      <cc:Work
         rdf:about="">
        <dc:format>image/svg+xml</dc:format>
        <dc:type
           rdf:resource="http://purl.org/dc/dcmitype/StillImage" />
        <dc:title />
      </cc:Work>
    </rdf:RDF>
  </metadata>
  <defs
     id="defs10">
    <filter
       height="1.5"
       width="1.5"
       y="0"
       x="0"
       id="f1"
       color-interpolation-filters="sRGB">
      <feOffset
         id="feOffset3039"
         dy="0"
         dx="1"
         in="SourceAlpha"
         result="offOut" />
      <feGaussianBlur
         id="feGaussianBlur3041"
         stdDeviation="1"
         in="offOut"
         result="blurOut" />
      <!--
      <feBlend in="SourceGraphic" in2="blurOut" mode="normal" />
-->
    </filter>
    <linearGradient
       y2="1"
       x2="0"
       y1="0"
       x1="0"
       id="grad1">
      <stop
         id="stop3034"
         style="stop-color:rgb(255,255,255);stop-opacity:0.6"
         offset="20%" />
      <stop
         id="stop3036"
         style="stop-color:rgb(220,0,0);stop-opacity:0.5"
         offset="50%" />
    </linearGradient>
    <linearGradient
       y2="1"
       x2="0"
       y1="0"
       x1="0"
       id="grad0">
      <stop
         id="stop3029"
         style="stop-color:rgb(0,0,0);stop-opacity:0.3"
         offset="20%" />
      <stop
         id="stop3031"
         style="stop-color:rgb(0,0,0);stop-opacity:0.6"
         offset="100%" />
    </linearGradient>
    <linearGradient
       inkscape:collect="always"
       xlink:href="#grad1"
       id="linearGradient3085"
       x1="10.900002"
       y1="4.9000015"
       x2="10.900002"
       y2="83.099998"
       gradientUnits="userSpaceOnUse" />
    <linearGradient
       y2="1"
       x2="0"
       y1="0"
       x1="0"
       id="linearGradient11421">
      <stop
         id="stop11417"
         style="stop-color:#c83737;stop-opacity:1"
         offset="20%" />
      <stop
         id="stop11419"
         style="stop-color:#de8787;stop-opacity:1"
         offset="100%" />
    </linearGradient>
    <linearGradient
       id="linearGradient5398"
       x1="0"
       y1="0"
       x2="0"
       y2="1">
      <stop
         offset="20%"
         style="stop-color:#c83737;stop-opacity:1"
         id="stop5394" />
      <stop
         offset="100%"
         style="stop-color:#cf8080;stop-opacity:1"
         id="stop5396" />
    </linearGradient>
    <filter
       style="color-interpolation-filters:sRGB"
       height="1.5"
       width="1.5"
       y="0"
       x="0"
       id="f1-4">
      <feOffset
         id="feOffset3039-4"
         dy="0"
         dx="1"
         in="SourceAlpha"
         result="offOut" />
      <feGaussianBlur
         id="feGaussianBlur3041-4"
         stdDeviation="1"
         in="offOut"
         result="blurOut" />
      <!--
      <feBlend in="SourceGraphic" in2="blurOut" mode="normal" />
-->
    </filter>
    <linearGradient
       inkscape:collect="always"
       xlink:href="#linearGradient5290"
       id="linearGradient5306"
       gradientUnits="userSpaceOnUse"
       x1="22.018419"
       y1="47.282806"
       x2="75.110641"
       y2="47.282806" />
    <linearGradient
       inkscape:collect="always"
       id="linearGradient5290">
      <stop
         style="stop-color:#000000;stop-opacity:1;"
         offset="0"
         id="stop5286" />
      <stop
         style="stop-color:#4d4d4d;stop-opacity:1"
         offset="1"
         id="stop5288" />
    </linearGradient>
  </defs>
  <sodipodi:namedview
     pagecolor="#ffffff"
     bordercolor="#666666"
     borderopacity="1"
     objecttolerance="10"
     gridtolerance="10"
     guidetolerance="10"
     inkscape:pageopacity="0"
     inkscape:pageshadow="2"
     inkscape:window-width="960"
     inkscape:window-height="1017"
     id="namedview8"
     showgrid="false"
     inkscape:zoom="1.3111111"
     inkscape:cx="-58.671317"
     inkscape:cy="44.012072"
     inkscape:window-x="2872"
     inkscape:window-y="-8"
     inkscape:window-maximized="0"
     inkscape:current-layer="g18015"
     fit-margin-top="0"
     fit-margin-left="0"
     fit-margin-right="0"
     fit-margin-bottom="0" />
  <g
     id="use4"
     transform="translate(-4,2)">
    <circle
       style="opacity:0.5;fill:#000000;filter:url(#f1)"
       cx="50"
       cy="49.5"
       r="39"
       id="circle3075"
       d="m 89,49.5 c 0,21.539105 -17.460895,39 -39,39 -21.539105,0 -39,-17.460895 -39,-39 0,-21.539105 17.460895,-39 39,-39 21.539105,0 39,17.460895 39,39 z"
       sodipodi:ry="39"
       sodipodi:rx="39"
       sodipodi:cy="49.5"
       sodipodi:cx="50" />
    <circle
       style="fill:#ee2211"
       cx="50"
       cy="44"
       r="39"
       id="circle3077"
       d="M 89,44 C 89,65.539105 71.539105,83 50,83 28.460895,83 11,65.539105 11,44 11,22.460895 28.460895,5 50,5 71.539105,5 89,22.460895 89,44 z"
       sodipodi:ry="39"
       sodipodi:rx="39"
       sodipodi:cy="44"
       sodipodi:cx="50" />
    <circle
       style="fill:url(#linearGradient3085)"
       cx="50"
       cy="44"
       r="39.099998"
       id="circle3079"
       d="M 89.099998,44 C 89.099998,65.594333 71.594333,83.099998 50,83.099998 28.405667,83.099998 10.900002,65.594333 10.900002,44 10.900002,22.405667 28.405667,4.9000015 50,4.9000015 71.594333,4.9000015 89.099998,22.405667 89.099998,44 z"
       sodipodi:ry="39.099998"
       sodipodi:rx="39.099998"
       sodipodi:cy="44"
       sodipodi:cx="50" />
    <circle
       style="fill:none;stroke:#aa0000;stroke-width:1"
       cx="50"
       cy="44"
       r="39.099998"
       id="circle3081"
       d="M 89.099998,44 C 89.099998,65.594333 71.594333,83.099998 50,83.099998 28.405667,83.099998 10.900002,65.594333 10.900002,44 10.900002,22.405667 28.405667,4.9000015 50,4.9000015 71.594333,4.9000015 89.099998,22.405667 89.099998,44 z"
       sodipodi:ry="39.099998"
       sodipodi:rx="39.099998"
       sodipodi:cy="44"
       sodipodi:cx="50" />
    <circle
       style="fill:#ee2211"
       cx="50"
       cy="44"
       r="33.5"
       id="circle3083"
       d="M 83.5,44 C 83.5,62.501539 68.501539,77.5 50,77.5 31.498461,77.5 16.5,62.501539 16.5,44 16.5,25.498461 31.498461,10.5 50,10.5 68.501539,10.5 83.5,25.498461 83.5,44 z"
       sodipodi:ry="33.5"
       sodipodi:rx="33.5"
       sodipodi:cy="44"
       sodipodi:cx="50" />
  </g>
  <g
     style="font-size:42px;font-weight:normal;text-anchor:middle;fill:#ffffff;stroke:#ffffff;stroke-width:1.25;font-family:'WenQuanYi Micro Hei, Arial'"
     id="text6"
     transform="translate(-4,2)" />
  <g
     transform="translate(4.4814075e-7,-1.1440677)"
     style="display:inline"
     id="g18015">
    <g
       id="g18181"
       transform="translate(0,2.3349016)">
      <path
         style="display:inline;fill:#ffffff;fill-opacity:1;stroke:none;stroke-width:1px;stroke-linecap:butt;stroke-linejoin:miter;stroke-opacity:1"
         d="m 24.659465,26.904975 c 12.079888,0.82929 16.235222,0.778634 20.790704,0.762712 l -0.115084,18.315683 1.15722,-0.03443 0.229866,-18.28125 C 59.504821,27.7557 65.492444,27.481526 69.355506,26.904978 53.15633,21.719733 37.356437,21.6211 24.659465,26.904975 Z"
         id="path5517"
         inkscape:connector-curvature="0"
         sodipodi:nodetypes="ccccccc" />
      <path
         inkscape:connector-curvature="0"
         style="display:inline;opacity:1;fill:#ffffff;fill-opacity:1;stroke:none;stroke-width:0.12982513;stroke-linecap:square;stroke-linejoin:miter;stroke-miterlimit:4;stroke-dasharray:none;stroke-dashoffset:0;stroke-opacity:1;paint-order:normal"
         d="M 50.044649,37.78537 A 16.761462,16.761462 0 0 1 66.805279,54.545996 16.761462,16.761462 0 0 1 50.044649,71.309166 16.761462,16.761462 0 0 1 33.281485,54.545996 16.761462,16.761462 0 0 1 50.044649,37.78537 Z m 0,2.515362 a 14.247242,14.247242 0 0 0 -14.247802,14.245264 14.247242,14.247242 0 0 0 14.247802,14.2478 14.247242,14.247242 0 0 0 14.2478,-14.2478 14.247242,14.247242 0 0 0 -14.2478,-14.245264 z"
         id="path5173" />
      <path
         style="display:inline;fill:#ffffff;fill-opacity:1;stroke:none;stroke-width:1.29825127px;stroke-linecap:butt;stroke-linejoin:miter;stroke-opacity:1"
         d="M 30.340966,50.544723 C 29.240607,48.961402 28.288371,46.424541 27.319045,44.57917 l -4.114171,-0.07619 c -0.572036,0.863469 -0.801476,1.726938 -0.228571,2.590407 l 3.047542,0.228566 c 0.679011,2.273621 1.630084,4.00315 2.590413,5.714133 l 4.508653,0.16831 c 0.108315,-1.15859 -0.02335,-0.80349 0.360831,-2.611896 -1.235017,0.05123 -1.925316,0.02215 -3.142776,-0.04778 z"
         id="path5176"
         inkscape:connector-curvature="0"
         sodipodi:nodetypes="cccccccccc" />
      <path
         style="display:inline;fill:#ffffff;fill-opacity:1;stroke:none;stroke-width:1.29825127px;stroke-linecap:butt;stroke-linejoin:miter;stroke-opacity:1"
         d="m 64.677261,28.842398 c 0.03917,5.884009 0.265917,11.78969 0.115055,16.956669 -4.797619,-5.826791 -6.000532,-6.87719 -14.110332,-8.400876 0.266048,-2.019106 5.124498,-8.160352 8.096482,-8.825452 z"
         id="path5178"
         inkscape:connector-curvature="0"
         sodipodi:nodetypes="ccccc" />
      <path
         style="display:inline;fill:#ffffff;fill-opacity:1;stroke:none;stroke-width:1px;stroke-linecap:butt;stroke-linejoin:miter;stroke-opacity:1"
         d="m 64.670174,53.149166 c -0.21864,-1.896417 -1.639002,-5.533526 -3.730067,-8.463135 -2.31979,-3.250055 -8.120538,-4.6395 -10.524676,-4.587544 -1.072241,2.513709 -2.372868,5.80951 -10.146798,6.630961 0,0.631156 -0.06417,3.053966 -0.07197,4.001862 -1.007086,0.06729 -2.60815,0.118058 -3.694251,0.04705 -0.198372,0.686616 -0.359385,2.050886 -0.327775,2.418476 9.184798,0.18599 19.417583,0.025 28.495537,-0.0477 z"
         id="path5248"
         inkscape:connector-curvature="0"
         sodipodi:nodetypes="csccccccc" />
      <path
         style="display:inline;fill:#ee2211;fill-opacity:1;stroke:none;stroke-width:1px;stroke-linecap:butt;stroke-linejoin:miter;stroke-opacity:1"
         d="m 41.764847,47.194434 -0.905721,0.04767 v 3.146187 l 0.619704,-0.572034 z"
         id="path5414"
         inkscape:connector-curvature="0" />
      <path
         style="display:inline;fill:#ee2211;fill-opacity:1;stroke:none;stroke-width:1px;stroke-linecap:butt;stroke-linejoin:miter;stroke-opacity:1"
         d="m 50.86972,40.330027 c -0.179509,1.048729 -0.909708,2.097458 -1.716102,3.146187 0.930784,-0.834786 1.629443,-1.620091 2.441718,-3.165932 z"
         id="path5416"
         inkscape:connector-curvature="0"
         sodipodi:nodetypes="cccc" />
      <path
         style="display:inline;fill:#ee2211;fill-opacity:1;stroke:none;stroke-width:1px;stroke-linecap:butt;stroke-linejoin:miter;stroke-opacity:1"
         d="m 51.402262,37.11403 c 0.282885,-1.227948 2.298384,-3.281929 3.185678,-4.268113 -0.482432,1.120674 -2.342435,3.234241 -2.235675,4.472754 z"
         id="path5418"
         inkscape:connector-curvature="0"
         sodipodi:nodetypes="cccc" />
      <path
         style="display:inline;fill:none;stroke:#ee2211;stroke-width:0.2;stroke-linecap:butt;stroke-linejoin:miter;stroke-miterlimit:4;stroke-dasharray:none;stroke-opacity:1"
         d="M 50.631372,52.897426 57.151519,41.40668"
         id="path5420"
         inkscape:connector-curvature="0"
         sodipodi:nodetypes="cc" />
      <path
         style="display:inline;fill:#000000;stroke:#ee2211;stroke-width:0.2;stroke-linecap:butt;stroke-linejoin:miter;stroke-miterlimit:4;stroke-dasharray:none;stroke-opacity:1"
         d="M 49.747793,52.962446 49.612964,40.687669"
         id="path5437"
         inkscape:connector-curvature="0"
         sodipodi:nodetypes="cc" />
      <path
         sodipodi:type="star"
         style="display:inline;opacity:1;fill:url(#linearGradient5306);fill-opacity:1;stroke:#ffffff;stroke-width:0.5;stroke-linecap:square;stroke-linejoin:miter;stroke-miterlimit:4;stroke-dasharray:none;stroke-dashoffset:0;stroke-opacity:1;paint-order:normal"
         id="path5165"
         sodipodi:sides="12"
         sodipodi:cx="198.1891"
         sodipodi:cy="38.199802"
         sodipodi:r1="10.981865"
         sodipodi:r2="0.10981865"
         sodipodi:arg1="0.82281385"
         sodipodi:arg2="1.0846132"
         inkscape:flatsided="false"
         inkscape:rounded="0"
         inkscape:randomized="0"
         d="m 205.65854,46.250197 -7.41812,-7.953301 2.39221,10.609472 -2.44764,-10.596824 -3.23301,10.384179 3.17869,-10.400935 -7.99196,7.376453 7.9533,-7.418125 -10.60947,2.392212 10.59682,-2.447634 -10.38418,-3.233019 10.40094,3.178699 -7.37646,-7.991966 7.41813,7.953301 -2.39221,-10.609472 2.44763,10.596824 3.23302,-10.384179 -3.1787,10.400935 7.99197,-7.376453 -7.9533,7.418125 10.60947,-2.392213 -10.59683,2.447634 10.38418,3.233019 -10.40093,-3.178698 z"
         transform="matrix(-1.3208656,0.32230963,0.32230963,1.3208656,299.72684,-59.778699)" />
      <path
         style="display:inline;fill:none;stroke:#ee2211;stroke-width:0.2;stroke-linecap:butt;stroke-linejoin:miter;stroke-miterlimit:4;stroke-dasharray:none;stroke-opacity:1"
         d="m 51.490574,53.331596 11.393108,-6.84261"
         id="path5471"
         inkscape:connector-curvature="0"
         sodipodi:nodetypes="cc" />
      <path
         style="display:inline;fill:none;stroke:#ee2211;stroke-width:0.2;stroke-linecap:butt;stroke-linejoin:miter;stroke-miterlimit:4;stroke-dasharray:none;stroke-opacity:1"
         d="M 49.008493,53.363606 44.715382,45.91596 v 0.06741"
         id="path5473"
         inkscape:connector-curvature="0"
         sodipodi:nodetypes="ccc" />
      <path
         style="display:inline;fill:none;stroke:#ee2211;stroke-width:0.2;stroke-linecap:butt;stroke-linejoin:miter;stroke-miterlimit:4;stroke-dasharray:none;stroke-opacity:1"
         d="M 47.243438,53.331596 39.692976,49.151872"
         id="path5475"
         inkscape:connector-curvature="0" />
    </g>
  </g>
</svg>
