<svg height="92" width="92" xmlns="http://www.w3.org/2000/svg" xmlns:xlink="http://www.w3.org/1999/xlink"><filter id="a" color-interpolation-filters="sRGB" height="1.5" width="1.5" x="0" y="0"><feOffset dx="1" dy="0" in="SourceAlpha" result="offOut"/><feGaussianBlur in="offOut" result="blurOut" stdDeviation="1"/></filter><linearGradient id="b" gradientUnits="userSpaceOnUse" x1="10.900002" x2="10.900002" y1="4.900002" y2="83.099998"><stop offset=".2" stop-color="#fff" stop-opacity=".6"/><stop offset=".5" stop-color="#dc0000" stop-opacity=".5"/></linearGradient><g transform="translate(-4 2)"><circle cx="50" cy="49.5" filter="url(#a)" opacity=".5" r="39"/><circle cx="50" cy="44" fill="#e21" r="39"/><circle cx="50" cy="44" fill="url(#b)" r="39.099998"/><circle cx="50" cy="44" fill="none" r="39.099998" stroke="#a00"/><circle cx="50" cy="44" fill="#e21" r="33.5"/></g><g transform="matrix(.96565541 0 0 .96565541 124.54484 2.823745)"><g transform="matrix(1.6119947 0 0 1.6119947 -51.297818 -45.558668)"><path d="m-20.363965 43.589358c-.0276-1.46313-.713126-2.145608-1.299776-3.329198-.571744 1.388345-1.389781 2.98152-1.051241 4.192856-.64554-.302018-1.29108.196403-1.93662.50794-4.172427 6.925057-3.872501 6.543133-7.74648 9.703329-.41274 1.0845-.66256 1.961621.0587 3.579812.36665.484202 2.0734 1.323734 3.37442 1.496479.37959.533363.0389.715844.0293.850939.57883.586855.84987.352113 1.46713.528169 1.64825-1.771306 3.2607-3.327849 4.75353-4.166667 1.95618-.980405 3.91236-.564172 5.86854-.704225 1.456321.21705 2.389217-.81096 2.481038-.822807-.7034 1.107585-1.211128 2.439303-3.126578 3.698394-1.18159-.284668-1.84361-.179659-2.4061 0-4.23123 3.229653-5.76905 8.997115-5.75117 11.326292 5.708582 2.230783 11.7045 1.157214 17.7229999-.176057-1.599-1.233028-1.55432-2.671516-1.9953-4.049296-.3933899-3.368319.386688-3.431093.88028-6.57277.34933-6.266657-.432697-11.619231-5.5252069-14.931742-.91599-.402395-2.781791-.345578-3.748111-.295054.0658-1.508632-.62168-2.655508-.98402-4.021428-.008-.0078-1.465491 2.090218-1.163721 2.744109-.07401.08009.206841.429509.09838.440925z" fill="#fff"/><path d="m-19.406506 41.091703c14.3383277-1.44366 14.6623349 12.941854 12.9102306 22.786351-.3727255 2.094222.5431423 3.922119.4131333 5.516454-4.3778739-1.27574-3.261783-4.989674-2.1272975-9.89572.1816486-7.188013-.4354701-13.936194-8.2870824-15.80692-.538977-.05014-1.697034.233285-2.238074.223765-1.184158.0502-.854474-2.06219-.67091-2.823934z" fill="#fff"/><g fill="#e21" stroke="#e21"><ellipse cx="-22.465561" cy="49.837406" rx=".968385" ry="1.013395" stroke-linecap="square" stroke-width=".097857"/><path d="m-24.006062 50.908416c1.03577-.831732-.63174-2.617565 3.11033-2.494132"/><path d="m-29.234621 60.161919c.95231-.642849 1.758922-1.427453 2.394037-2.268554" stroke-width=".930524"/></g></g><g fill="#e21"><path d="m-102.89655 45.661554c-.18838 1.060968.035 1.786052.60673 2.494349.8387.540409 1.66987 1.091355 2.662885 1.415711 0 0 .554672-.395936.432413-.412667-1.076438-.14731-2.933168-.973326-3.702028-3.497393z"/><path d="m-100.49552 45.624567c-.36265.193491-.6895.422791-.73888.929555.21409.310494.55658.428382 1.0249.357521.314135-.297622.655486-.56803.786545-1.048729 0 0-.619705-1.191737-.619705-1.048729 0 .143009.0238.786547.0238.786547z"/></g></g></svg>