<svg height="92" width="92" xmlns="http://www.w3.org/2000/svg" xmlns:xlink="http://www.w3.org/1999/xlink"><filter id="a" color-interpolation-filters="sRGB" height="1.5" width="1.5" x="0" y="0"><feOffset dx="1" dy="0" in="SourceAlpha" result="offOut"/><feGaussianBlur in="offOut" result="blurOut" stdDeviation="1"/></filter><linearGradient id="b" gradientUnits="userSpaceOnUse" x1="10.900002" x2="10.900002" y1="4.900002" y2="83.099998"><stop offset=".2" stop-color="#fff" stop-opacity=".6"/><stop offset=".5" stop-color="#dc0000" stop-opacity=".5"/></linearGradient><linearGradient id="c" gradientUnits="userSpaceOnUse" x1="22.018419" x2="75.110641" y1="47.282806" y2="47.282806"><stop offset="0"/><stop offset="1" stop-color="#4d4d4d"/></linearGradient><g transform="translate(-4 2)"><circle cx="50" cy="49.5" filter="url(#a)" opacity=".5" r="39"/><circle cx="50" cy="44" fill="#e21" r="39"/><circle cx="50" cy="44" fill="url(#b)" r="39.099998"/><circle cx="50" cy="44" fill="none" r="39.099998" stroke="#a00"/><circle cx="50" cy="44" fill="#e21" r="33.5"/></g><g transform="translate(0 1.190834)"><g fill="#fff"><path d="m24.659465 26.904975c12.079888.82929 16.235222.778634 20.790704.762712l-.115084 18.315683 1.15722-.03443.229866-18.28125c12.78265.08801 18.770273-.186164 22.633335-.762712-16.199176-5.185245-31.999069-5.283878-44.696041-.000003z"/><path d="m50.044649 37.78537a16.761462 16.761462 0 0 1 16.76063 16.760626 16.761462 16.761462 0 0 1 -16.76063 16.76317 16.761462 16.761462 0 0 1 -16.763164-16.76317 16.761462 16.761462 0 0 1 16.763164-16.760626zm0 2.515362a14.247242 14.247242 0 0 0 -14.247802 14.245264 14.247242 14.247242 0 0 0 14.247802 14.2478 14.247242 14.247242 0 0 0 14.2478-14.2478 14.247242 14.247242 0 0 0 -14.2478-14.245264z"/><path d="m30.340966 50.544723c-1.100359-1.583321-2.052595-4.120182-3.021921-5.965553l-4.114171-.07619c-.572036.863469-.801476 1.726938-.228571 2.590407l3.047542.228566c.679011 2.273621 1.630084 4.00315 2.590413 5.714133l4.508653.16831c.108315-1.15859-.02335-.80349.360831-2.611896-1.235017.05123-1.925316.02215-3.142776-.04778z"/><path d="m64.677261 28.842398c.03917 5.884009.265917 11.78969.115055 16.956669-4.797619-5.826791-6.000532-6.87719-14.110332-8.400876.266048-2.019106 5.124498-8.160352 8.096482-8.825452z"/><path d="m64.670174 53.149166c-.21864-1.896417-1.639002-5.533526-3.730067-8.463135-2.31979-3.250055-8.120538-4.6395-10.524676-4.587544-1.072241 2.513709-2.372868 5.80951-10.146798 6.630961 0 .631156-.06417 3.053966-.07197 4.001862-1.007086.06729-2.60815.118058-3.694251.04705-.198372.686616-.359385 2.050886-.327775 2.418476 9.184798.18599 19.417583.025 28.495537-.0477z"/></g><path d="m41.764847 47.194434-.905721.04767v3.146187l.619704-.572034z" fill="#e21"/><path d="m50.86972 40.330027c-.179509 1.048729-.909708 2.097458-1.716102 3.146187.930784-.834786 1.629443-1.620091 2.441718-3.165932z" fill="#e21"/><path d="m51.402262 37.11403c.282885-1.227948 2.298384-3.281929 3.185678-4.268113-.482432 1.120674-2.342435 3.234241-2.235675 4.472754z" fill="#e21"/><path d="m50.631372 52.897426 6.520147-11.490746" fill="none" stroke="#e21" stroke-width=".2"/><path d="m49.747793 52.962446-.134829-12.274777" stroke="#e21" stroke-width=".2"/><path d="m205.65854 46.250197-7.41812-7.953301 2.39221 10.609472-2.44764-10.596824-3.23301 10.384179 3.17869-10.400935-7.99196 7.376453 7.9533-7.418125-10.60947 2.392212 10.59682-2.447634-10.38418-3.233019 10.40094 3.178699-7.37646-7.991966 7.41813 7.953301-2.39221-10.609472 2.44763 10.596824 3.23302-10.384179-3.1787 10.400935 7.99197-7.376453-7.9533 7.418125 10.60947-2.392213-10.59683 2.447634 10.38418 3.233019-10.40093-3.178698z" fill="url(#c)" stroke="#fff" stroke-linecap="square" stroke-width=".5" transform="matrix(-1.3208656 .32230963 .32230963 1.3208656 299.72684 -59.778699)"/><path d="m51.490574 53.331596 11.393108-6.84261" fill="none" stroke="#e21" stroke-width=".2"/><path d="m49.008493 53.363606-4.293111-7.447646v.06741" fill="none" stroke="#e21" stroke-width=".2"/><path d="m47.243438 53.331596-7.550462-4.179724" fill="none" stroke="#e21" stroke-width=".2"/></g></svg>