<svg height="128" viewBox="0 0 45 45" width="128" xmlns="http://www.w3.org/2000/svg"><path d="m22 10c10.5 1 16.5 8 16 29h-13c-12-9 0-6.5-2-21" stroke="#000" stroke-linecap="round" stroke-linejoin="round" stroke-width="2" transform="matrix(.75 0 0 .75 2 -1)"/><path d="m24.55 10.4-.45 1.45.5.15c3.15 1 5.65 2.49 7.9 6.75s3.25 10.31 2.75 20.25l-.05.5h2.25l.05-.5c.5-10.06-.88-16.85-3.25-21.34s-5.79-6.64-9.19-7.16z" fill="#fff" transform="matrix(.75 0 0 .75 2 -1)"/><g stroke="#000" stroke-linejoin="round" stroke-width="1.5" transform="translate(1 3)"><path d="m11 19v-5h4v2h5v-2h5v2h5v-2h4v5l-3 3v7.5l2 2.5v4h-21v-4l2-2.5v-7.5z"/><path d="m9 39h27v-3h-27z"/></g><g fill="none" stroke="#fff" stroke-linecap="round"><path d="m12 22h23" stroke-width="1.2"/><path d="m15 25h17" stroke-width=".8"/><path d="m15 32.5h17" stroke-width=".8"/><g stroke-width="1.2"><path d="m13 35h21"/><path d="m13 38.5h21"/></g></g><g stroke-linejoin="round" stroke-width="2" transform="matrix(.75 0 0 .75 2 -1)"><path d="m24 18c.38 2.91-5.55 7.37-8 9-3 2-2.82 4.34-5 4-1.042-.94 1.41-3.04 0-3-1 0 .19 1.23-1 2-1 0-4.003 1-4-4 0-2 6-12 6-12s1.89-1.9 2-3.5c-.73-.994-.5-2-.5-3 1-1 3 2.5 3 2.5h2s.78-1.992 2.5-3c1 0 1 3 1 3" stroke="#000" stroke-linecap="round"/><g fill="#fff" stroke="#fff"><path d="m9.5 25.5a.5.5 0 1 1 -1 0 .5.5 0 1 1 1 0z"/><path d="m15.25 14.2a.5 1.5 30 1 1 -1.5 2.6.5 1.5 30 1 1 1.5-2.6z"/></g></g></svg>