<?xml version="1.0" encoding="utf-8"?>
<!-- Generator: Adobe Illustrator 28.3.0, SVG Export Plug-In . SVG Version: 6.00 Build 0)  -->
<svg version="1.1" id="Capa_1" xmlns="http://www.w3.org/2000/svg" xmlns:xlink="http://www.w3.org/1999/xlink" x="0px" y="0px"
	 viewBox="0 0 620 620" style="enable-background:new 0 0 620 620;" xml:space="preserve">
<style type="text/css">
	.st0{fill:#FFFFFF;}
</style>
<g transform="translate(0.000000,620.000000) scale(0.100000,-0.100000)">
	<path d="M4432,5784c-24-48-67-116-96-153c-71-88-243-253-336-322c-73-54-345-229-356-229c-3,0-20-11-37-24c-18-14-58-38-90-55
		c-75-39-102-59-94-67c7-7,138,27,192,51c17,7,50,18,75,25c47,14,213,78,290,112c154,69,267,132,313,176c51,49,114,158,149,257
		c40,113,71,271,58,296c-6,10-14,19-18,19S4455,5831,4432,5784z"/>
	<path d="M5148,5592c-127-104-227-174-328-232c-41-23-88-50-105-60c-119-67-277-150-289-150c-3,0-47-20-98-44
		c-273-129-706-276-933-316c-291-52-472-116-608-214c-34-24-125-109-202-188c-106-108-160-155-218-190c-74-43-83-46-194-58
		c-92-10-133-10-198-1c-69,11-90,10-133-2c-69-21-89-32-150-88c-98-90-157-177-212-314c-18-44-38-93-45-110c-33-80-57-164-52-179
		c12-29,84-24,532,39c204,29,492,61,812,90c94,9,147-30,136-99c-8-54-57-147-101-190c-34-34-174-136-187-136c-3,0-34-13-68-29
		s-116-50-182-75c-66-26-174-69-240-96c-66-26-149-60-185-73c-160-63-210-93-210-126c0-9,12-34,28-56c15-21,52-89,82-149
		c40-81,60-112,75-114c14-2,48,24,105,80c100,97,192,152,355,215c350,133,788,174,1044,97c172-52,241-128,241-264
		c0-87-24-210-53-273c-53-117-190-207-383-252c-60-15-145-37-189-49c-44-13-121-31-172-40c-273-48-529-178-686-346
		c-95-103-155-193-218-325c-47-100-59-134-99-290c-45-177-88-560-66-583c10-9,3753-9,3789,1l27,7v195c0,216,5,205-71,181
		c-201-63-309-85-474-95c-193-13-293-1-411,50c-55,23-115,52-134,64s-61,36-92,54l-57,32l-26-28c-14-15-40-55-56-88
		c-39-78-81-120-134-135c-66-18-84,5-46,58c28,40,97,190,114,247c11,40,12,57,2,85c-6,19-19,36-27,38c-24,5-85-54-145-140
		c-30-42-86-106-124-142c-57-53-78-66-114-72c-75-11-81,6-35,95c29,59,57,146,87,271c11,45,16,117,16,235c1,170,1,170-35,270
		c-20,55-45,122-57,148c-45,102-23,95,182-60c50-38,184-107,247-127c167-53,316-64,450-32c127,31,130,31,130,9c0-58-130-166-285-238
		c-89-41-145-79-145-99c0-17,40-52,67-58c12-3,61,2,110,12c48,10,129,20,178,22l90,3l3-26c2-14-3-31-11-38c-8-6-62-18-120-26
		c-61-7-116-20-131-30l-26-17l21-29c45-63,203-119,335-119c82,0,276,28,376,54c50,14,222,89,316,139l32,18v452c0,488-10,736-36,917
		c-20,141-31,173-94,276c-28,45-50,84-50,88c0,12,48,6,110-14c82-26,134-26,161,1c17,17,19,28,14,67c-4,26-11,61-16,77
		c-44,151-72,210-170,356c-74,111-142,192-246,294c-46,45-83,89-83,98c0,24,86,32,140,13c58-20,149-21,156-2c11,28-35,102-109,177
		c-118,117-256,214-444,310c-92,47-169,92-171,100c-4,23,105,38,234,32c95-5,113-3,127,12c16,16,16,18,0,46c-41,70-269,187-498,255
		c-46,14-87,18-173,16c-136-4-141,5-36,58c38,19,81,42,94,51c14,9,59,35,100,59c265,155,448,349,637,674c64,110,82,168,53,172
		C5262,5678,5207,5640,5148,5592z M3216,4426c9-22-32-92-73-125c-263-211-291-226-359-187c-55,31-65,84-28,158
		c30,59,240,138,447,167C3207,4440,3213,4434,3216,4426z"/>
	<path d="M2565,3459c-22-4-64-8-93-8c-92-1-324-46-445-85c-128-42-286-133-502-289c-257-186-333-231-466-276c-122-40-175-47-262-31
		c-141,24-190,45-249,108c-39,41-60,73-73,112c-20,62-41,100-55,100c-6,0-10-36-10-84c0-75,3-90,35-154c100-200,365-274,650-182
		c101,32,229,88,275,121c14,9,79,52,145,95c66,42,156,101,200,129c222,145,327,181,660,225c103,14,198,36,235,55c43,22,79,66,91,108
		c9,36,8,43-7,54C2674,3471,2627,3472,2565,3459z"/>
</g>
<g transform="translate(0.000000,620.000000) scale(0.100000,-0.100000)">
	<path class="st0" d="M3101,4429c-70-9-187-47-259-83c-86-44-122-106-106-183c4-23,16-35,48-50c61-30,110-15,206,64
		c41,34,100,81,130,105c63,50,100,100,100,134C3220,4443,3213,4444,3101,4429z"/>
	<path class="st0" d="M3724,1796c-3-8,6-39,20-69c15-30,40-94,58-143c28-79,32-104,36-224c7-207-26-379-104-549c-39-84-37-111,5-111
		c74,0,182,86,275,219c61,88,111,141,132,141c7,0,21-14,30-32c22-43,14-74-67-240c-23-49-48-93-55-99c-22-18-17-49,10-59
		c54-20,131,31,176,117c43,83,74,123,95,123c11,0,52-18,90-40c67-38,117-63,232-116c128-58,455-46,703,25c36,11,98,29,138,40l72,22
		v144c0,80-2,145-4,145s-64-29-139-65c-146-71-224-94-390-119c-126-19-245-21-319-5c-112,24-224,95-204,128c10,16,65,30,154,40
		c90,10,122,27,122,66c0,40-21,47-112,40c-46-4-127-16-181-26c-100-20-116-18-151,16c-30,30-19,40,137,117c149,73,250,154,278,220
		c19,47,3,53-92,29c-148-36-238-37-409-2c-96,20-236,84-319,146C3756,1813,3735,1825,3724,1796z"/>
</g>
</svg>
