<svg height="45" width="45" xmlns="http://www.w3.org/2000/svg"><g fill="#fff" fill-rule="evenodd" stroke="#000" stroke-linejoin="round" stroke-width="1.5"><path d="m11.739431 38.925066c3.066743.257181 17.281996.120613 21.371692.09885-.119953-.717942-.112275.161501 0 0 .0162-3.220827-3.52307-7.74646-3.52307-7.74646 7.846009-1.89625 8.623198-14.776264-7.023458-20.002078-15.698495 5.080831-15.0509049 17.967434-7.224337 19.936176 0 0-3.584627 4.492681-3.600827 7.71351.140343.188418.349906-.522656 0 0z" fill="#000" stroke-width="1.61939"/><path d="m19.200798-7.020016h4.99122v5.035205h-4.99122z" fill="#000" fill-rule="evenodd" stroke="#000" stroke-width="1.63374" transform="matrix(.8577326 .51409608 -.85699733 .51532085 0 0)"/><path d="m11.268926 28.106075h22.372507m-18.479216 3.621065h14.485409m-16.372814 3.570474h18.513764" fill="none" stroke="#ececec" stroke-linecap="round" stroke-linejoin="round" stroke-width="1.5"/></g></svg>