<?xml version="1.0" encoding="UTF-8" standalone="no"?>
<svg
   width="45"
   height="45"
   version="1.1"
   id="svg4419"
   sodipodi:docname="Duck.svg"
   xml:space="preserve"
   inkscape:version="1.2.2 (b0a8486541, 2022-12-01)"
   xmlns:inkscape="http://www.inkscape.org/namespaces/inkscape"
   xmlns:sodipodi="http://sodipodi.sourceforge.net/DTD/sodipodi-0.dtd"
   xmlns="http://www.w3.org/2000/svg"
   xmlns:svg="http://www.w3.org/2000/svg"><defs
     id="defs4423" /><sodipodi:namedview
     id="namedview4421"
     pagecolor="#ffffff"
     bordercolor="#666666"
     borderopacity="1.0"
     inkscape:showpageshadow="2"
     inkscape:pageopacity="0.0"
     inkscape:pagecheckerboard="0"
     inkscape:deskcolor="#d1d1d1"
     showgrid="false"
     inkscape:zoom="8.3388889"
     inkscape:cx="-31.239174"
     inkscape:cy="-5.3364424"
     inkscape:window-width="3840"
     inkscape:window-height="2036"
     inkscape:window-x="3828"
     inkscape:window-y="-12"
     inkscape:window-maximized="1"
     inkscape:current-layer="svg4419" /><g
     id="g5896"
     transform="translate(-48.341445,0.14141086)"><path
       style="fill:#ffe066;fill-opacity:1;stroke:#000000;stroke-width:1.5;stroke-dasharray:none;stroke-opacity:1"
       d="m 74.602035,38.74208 c 4.457401,-0.705986 8.453358,-3.626544 10.450165,-7.63779 1.41148,-2.835438 1.870457,-5.545044 1.416803,-8.364249 -0.382208,-2.375212 -0.451056,-2.476333 -1.099346,-1.614691 -1.197814,1.592032 -2.751106,2.657749 -4.792593,3.288212 -2.407015,0.743346 -3.778056,0.663832 -4.905048,-0.28447 C 74.452129,23.102624 74.293027,21.63401 75.175954,19.55017 76.269215,16.969929 76.056089,14.039623 74.612743,11.80649 73.570151,10.19339 72.284278,9.1819974 70.241508,8.3683201 69.436416,8.0476368 67.498976,7.9301674 66.28439,8.1283955 c -3.074952,0.5018499 -5.767316,3.0196975 -6.538241,6.1144485 -0.287454,1.153931 -0.09899,1.511982 1.365172,2.593623 1.470639,1.086422 1.54293,1.899609 0.260488,2.930205 -0.648893,0.521462 -0.711502,0.647902 -0.711502,1.436809 0,0.857183 -0.01352,0.876882 -1.493759,2.171599 -2.417286,2.114372 -3.318829,3.729835 -3.516029,6.300329 -0.29799,3.884254 1.864539,7.286168 5.553421,8.736179 0.934337,0.367265 1.345218,0.394237 6.698818,0.439741 3.136891,0.02666 6.151569,-0.0225 6.699277,-0.109249 z M 61.379786,19.508356 c 1.151809,-0.847044 0.844853,-1.488942 0.333486,-1.835514 -0.375758,-0.280099 -0.894781,-0.784478 -1.153413,-1.043115 -0.41887,-0.41887 -1.030132,-0.564716 -1.958243,-0.333537 -0.296472,0.07385 -0.907656,0.232014 -1.969938,0.210252 -0.871354,-0.01785 -1.584285,0.0379 -1.584285,0.123898 0,0.319947 1.510759,1.858118 2.251204,2.292047 1.3429,0.63259 2.68605,1.113258 4.081189,0.585969 z"
       id="path4554"
       sodipodi:nodetypes="sssssssssssssscssssccsssscc" /><circle
       style="fill:#000000;fill-opacity:1;stroke:none;stroke-width:1.90244;stroke-linecap:round;stroke-linejoin:round;stroke-dasharray:none;stroke-opacity:1;paint-order:stroke fill markers"
       id="path5088"
       cx="64.57695"
       cy="13.281147"
       r="1.5589607" /><path
       d="m 61.776811,32.974305 c 0.0119,-3.927923 2.95406,-5.39796 8.23431,-4.114237 1.37346,0.333912 2.31335,0.440983 3.89282,0.443462 2.50472,0.004 4.05246,-0.404796 6.1972,-1.636546 1.768615,-1.01574 2.030425,-1.032873 1.902975,-0.124522 -0.157405,1.121816 -0.821495,2.653688 -1.487925,3.432268 -1.06723,1.24682 -3.35314,2.023663 -3.35314,1.139533 0,-0.242069 0.1207,-0.362122 0.3641,-0.362122 0.68768,0 2.02725,-0.779216 2.52804,-1.470543 0.58996,-0.814412 1.0048,-1.754264 0.8449,-1.914169 -0.0627,-0.0627 -0.50142,0.09287 -0.97495,0.345712 -2.95393,1.577264 -6.2837,1.854478 -10.40562,0.8663 -1.6438,-0.394078 -3.47897,-0.464261 -4.52723,-0.17313 -1.54947,0.430332 -2.48452,1.837474 -2.49124,3.749055 -0.003,1.009601 -0.043,1.131634 -0.3661,1.131634 -0.32919,0 -0.36176,-0.119383 -0.35814,-1.312695 z"
       style="fill:#000000;fill-opacity:1;stroke:#000000;stroke-width:0.5;stroke-dasharray:none;stroke-opacity:1"
       id="path5878" /></g></svg>
