<svg height="128" viewBox="0 0 45 45" width="128" xmlns="http://www.w3.org/2000/svg"><g stroke="#000"><g fill="#fff" stroke-linejoin="round" stroke-width="1.5"><path d="m16 32c4.5 2.5 14.5 2.5 18 0 .5.5 0-2 0-2 0-2.5-3.5-4-3.5-4 5.5-1.5 6-14.5-9-19.5-7 8-6.5 18-1 19.5 0 0-4.5 1.5-4.5 4 0 0-.5.5 0 2z"/><path d="m9 36c3.39-.97 10.11.43 16.5-2 2.39 2.43 7.11 1.03 10.5 2 0 0 1.65.54 3 2-.68.97-1.65.99-3 .5-3.39-.97-9.11.46-11.5-1-5.39 1.46-12.11.03-15.5 1-1.354.49-2.323.47-3-.5 1.354-1.94 3-2 3-2z"/></g><path d="m24 18c.38 2.91-5.55 7.37-8 9-3 2-2.82 4.34-5 4-1.042-.94 1.41-3.04 0-3-1 0 .19 1.23-1 2-1 0-4.003 1-4-4 0-2 6-12 6-12s1.89-1.9 2-3.5c-.73-.994-.5-2-.5-3 1-1 3 2.5 3 2.5h2s.78-1.992 2.5-3c1 0 1 3 1 3" fill="#fff" stroke-linecap="round" stroke-linejoin="round" stroke-width="1.666" transform="matrix(.88632698 .15628336 -.15628336 .88632698 4 -5.5)"/><g stroke-width="1.5"><g fill="none" stroke-linecap="round"><path d="m20.5 26h10"/><path d="m16 30h18"/><path d="m27.5 15-1 7m-2-4.5h5"/></g><g stroke-linejoin="round" transform="matrix(.88632698 .15628336 -.15628336 .88632698 4 -5.5)"><path d="m9.5 25.5a.5.5 0 1 1 -1 0 .5.5 0 1 1 1 0z"/><path d="m15.25 14.2a.5 1.5 30 1 1 -1.5 2.6.5 1.5 30 1 1 1.5-2.6z"/></g></g></g></svg>