<?xml version="1.0" encoding="UTF-8" standalone="no"?>
<!--
	Lovag (fehér)
	Készült: white-bishop.svg és white-knight.svg felhasználásával
	Felhasználási feltételek: Nevezd meg! - Így add tovább! (Creative Commons)
	Uray M. János
	2013-2017
-->
<!DOCTYPE svg PUBLIC "-//W3C//DTD SVG 1.1//EN" "http://www.w3.org/Graphics/SVG/1.1/DTD/svg11.dtd">
<svg xmlns="http://www.w3.org/2000/svg" version="1.1" width="128" height="128" viewBox="0 0 45 45">
	<!-- futó: alap -->
	<g fill="#FFF" stroke="#000" stroke-width="1.5" stroke-linejoin="round">
		<!-- test -->
		<path d="M 16,32 C 20.5,34.5 30.5,34.5 34,32 C 34.5,32.5 34,30 34,30 C 34,27.5 30.5,26 30.5,26 C 36,24.5 36.5,11.5 21.5,6.5 C 14.5,14.5 15,24.5 20.5,26 C 20.5,26 16,27.5 16,30 C 16,30 15.5,30.5 16,32 Z"/>
		<!-- talp -->
		<path d="M 9,36 C 12.39,35.03 19.11,36.43 25.5,34 C 27.89,36.43 32.61,35.03 36,36 C 36,36 37.65,36.54 39,38 C 38.32,38.97 37.35,38.99 36,38.5 C 32.61,37.53 26.89,38.96 24.5,37.5 C 19.11,38.96 12.39,37.53 9,38.5 C 7.646,38.99 6.677,38.97 6,38 C 7.354,36.06 9,36 9,36 Z"/>
	</g>
	<!-- huszár: fej -->
	<g transform="translate(+4, -5.5) scale(0.9) rotate(10)" fill="#FFF" stroke="#000" stroke-width="1.666" stroke-linecap="round" stroke-linejoin="round">
		<path d="M 24,18 C 24.38,20.91 18.45,25.37 16,27 C 13,29 13.18,31.34 11,31 C 9.958,30.06 12.41,27.96 11,28 C 10,28 11.19,29.23 10,30 C 9,30 5.997,31 6,26 C 6,24 12,14 12,14 C 12,14 13.89,12.1 14,10.5 C 13.27,9.506 13.5,8.5 13.5,7.5 C 14.5,6.5 16.5,10 16.5,10 L 18.5,10 C 18.5,10 19.28,8.008 21,7 C 22,7 22,10 22,10"/>
	</g>
	<!-- futó: vonalak -->
	<g fill="none" stroke="#000" stroke-width="1.5" stroke-linecap="round">
		<path d="M 20.5,26 L 30.5,26"/>
		<path d="M 16.0,30 L 34.0,30"/>
		<!-- kereszt -->
		<path d="M 27.5,15 L 26.5,22 M 24.5,17.5 L 29.5,17.5"/>
	</g>
	<!-- huszár: vonalak -->
	<g transform="translate(+4, -5.5) scale(0.9) rotate(10)" fill="#000" stroke="#000" stroke-width="1.5" stroke-linejoin="round">
		<!-- orr -->
		<path d="M 9.5 25.5 A 0.5,0.5,0 1,1 8.5,25.5 A 0.5,0.5,0 1,1 9.5,25.5 Z"/>
		<!-- szem -->
		<path d="M 15.25 14.2 A 0.5,1.5,30 1,1 13.75,16.8 A 0.5,1.5,30 1,1 15.25,14.2 Z"/>
	</g>
</svg>
