<svg height="45" width="45" xmlns="http://www.w3.org/2000/svg"><g style="fill:none;fill-rule:evenodd;stroke:#000;stroke-width:1.5;stroke-linecap:round;stroke-linejoin:round"><path d="m22.437186 33.995v5.63m2.5-2h-5" stroke-linejoin="miter"/><path d="m22.437186 20.625s-4.5 7.5-3 10.5c0 0 1 2.5 3 2.5s3-2.5 3-2.5c1.5-3-3-10.5-3-10.5" fill="#fff" stroke-linecap="butt" stroke-linejoin="miter"/><path d="m33.437186 8.625c-5.5-3.5-15.5-3.5-21 0v7s-8.9999997 4.5-5.9999997 10.5c3.9999997 6.5 13.4999997 3.5 15.9999997-4v-3.5 3.5c3.5 7.5 13 10.5 16 4 3-6-5-10-5-10z" fill="#fff"/><path d="m33.437186 15.625c-5.5 3-15.5 3-21 0m21-3.5c-5.5 3-15.5 3-21 0m21-3.5c-5.5 3-15.5 3-21 0"/></g></svg>