<svg height="353" viewBox="0 0 93.397917 93.397917" width="353" xmlns="http://www.w3.org/2000/svg"><g stroke="#000" transform="translate(0 -203.60208)"><path d="m160.78711 75.074219c-13.61072.02268-28.29243.631382-44.11523 1.863281h-22.744146c-61.957525 32.52896-50.245363 92.03045-53.207031 143.78125 5.280117 13.40338 11.396403 26.23375 16.414063 38.20117-7.30774 4.51922-13.669476.79904-16.007813 2.82422-3.586049 15.3501-2.384555 31.89406-3.251953 47.92383 1.014127 2.68566 1.195136 5.64823 5.279297 7.31055 91.021133-.52831 197.185763 6.19461 273.632813.80859 1.89895-.1338 3.5397-.35191 6.21289-2.42773.65089-16.64697-.13764-34.0014-2.43359-50.7754-3.11495-2.62798-8.99343-2.21226-21.52735-3.65234-3.68027-9.99579 16.75612-70.49644 2.03125-113.32226 7.60028 12.09297 6.89999 32.79534 7.3125 60.11328 3.79041 1.33088 5.57091-.72675 9.36133-4.75391 15.03021-71.94648-25.36875-128.11896-156.95703-127.894531zm-54.26758 108.888671c3.24931.004 6.49484 2.60804 9.74414 9.13672l-.20312 48.53906c-2.31709 8.39437-7.20558 8.42338-11.57422 10.15039-29.340285-15.36412-16.752206-40.41877-1.21875-67.01172 1.0831-.52622 2.16884-.8166 3.25195-.81445zm144.78906 19.54883-6.89257 11.48633c14.48376 18.6915 22.68257 36.31179 6.03125 49.6875-7.51628 1.07361-10.46899-3.33235-14.36133-6.60743-5.81674 5.46877-40.84528-.30904-65.32255 2.67383-.8115-.0755-8.99492 2.46565-4.37324-.38141 7.30174-4.49804 10.62172-43.58862 16.56493-48.81781 22.77241-2.50998 44.88361 4.23399 68.35351-8.04101z" fill="#447821" stroke-width="8" transform="matrix(.26458333 0 0 .26458333 0 203.60208)"/><g stroke-width="2.116667"><path d="m10.564456 274.08916c.569486 1.16686 1.36383 1.43428 2.127678 1.82371l69.605473.30395c1.122839-.44536 1.783034-1.58472 2.519071-2.6103" fill="none"/><path d="m29.257629 269.0739c.407479 1.48411.414359 3.11845 2.355642 4.02739-1.905521.55226-4.046841.33405-5.547159-.53191l.683897-2.6596" fill="none"/><path d="m26.370065 271.80951c-12.720926.78515-9.138212-21.9071 5.319197-24.01238 1.329317 1.85466 1.065059 1.31897 1.595757 1.97571 17.874254-11.20425 8.497252-18.66512 4.939252-22.34063 8.48081 2.90228 12.956281 23.67286-10.901487 25.05868" fill="none"/><path d="m36.85648 271.65751c2.342707-10.33147 2.401858-21.39371 14.361828-28.64767 18.349395-3.27954 24.688225 4.9954 27.127895 17.02143" fill="none"/><path d="m62.464608 271.88547c2.120717 2.4741 2.878124 1.92943 3.799565 1.74799 5.342883-6.45169.294876-9.24296-1.595769-13.14648l1.977213-3.03909c-2.966188 1.1293-6.037485 1.83816-9.424215 1.8995 4.874102 3.31157 8.279541 7.41211 5.243206 12.53808z" fill="#447821"/></g><path d="m62.464608 271.88547 3.799565 1.74799c3.4886-4.47354 2.754463-8.8511-1.595769-13.14648l1.82366-3.03909-9.270662 1.8995" fill="none" stroke-width=".264583"/></g></svg>