<svg height="353" viewBox="0 0 93.397917 93.397917" width="353" xmlns="http://www.w3.org/2000/svg"><g stroke="#000"><path d="m47.363328 6.2760721c-2.478718.297824-3.971526.810079-6.547886 4.3652529-2.65695 1.811004-3.88891 4.436283-5.28054 6.970327-4.1111 1.314269-3.20629 2.628541-.21124 3.942811-.78759 6.147315 1.21125 7.650562 3.16835 9.223358-3.41608 1.507239-7.30431 2.672777-8.5193 5.280552-3.37414-.622231-4.15938.199835-4.7173 2.041812l-6.266248 3.027513-.281618 32.739407 1.971406 2.182629c-.979751.73582-2.599027 1.087906-2.745902 2.323444l-.07041 5.139732c.528209.797358 1.262864.768951 1.971407.844883l22.671185.140822c3.718636-.381577 5.879546-.02026 7.744796.140822l21.96709-.07041c.93855-.25838 2.30771-.08611 2.74588-.844883l.35203-6.26626-2.67546-1.478552 2.1122-1.971404-.28162-33.16185c-2.30761-1.087214-4.25546-1.814676-6.19584-2.534664-1.62989-2.887631-3.11515-2.481099-5.56219-2.534664-1.32785-3.158042-5.24164-4.041612-8.16724-5.069326 2.3831-1.968468 3.30577-4.629824 3.72806-9.236907 1.37514-1.294025 2.77186-2.082863-.0669-3.718042-.56521-1.619377-.48437-3.238744-3.16834-4.858113-1.24012-4.9619382-4.95342-6.6510909-7.6744-6.6182889z" fill="#447821" stroke-width="2.116667"/><g fill="none" transform="translate(0 -203.60208)"><path d="m38.735941 234.52356c4.318698 2.44406 8.896955 4.20215 15.756581-.0691" stroke-width="2.116667"/><path d="m25.74367 241.71078 21.008776 17.89891 21.216103-17.6916" stroke-width="2.116667" visibility="hidden"/><path d="m32.930882 237.14965c8.038091 5.56901 16.279611 10.14346 27.574021-.20734" stroke-width="1.322917"/><path d="m30.373894 239.70665c12.479214 8.43345 22.777161 6.34549 32.135136-.27643" stroke-width="2.116667"/><path d="m30.373894 239.70665 16.51677 10.15885 15.618366-10.43528" stroke-width="1.322917"/><path d="m72.736989 243.78402c-3.149768.86349-6.0176 2.50231-8.431154 5.39039l-.207334 26.95207c.530741 1.08293.521573 1.74506 2.280558 3.17894 2.058275.66354 5.002131.86137 6.876425.0531" stroke-width="2.116667"/><path d="m29.613705 252.76803c3.79726.19839 1.680415 9.93253 3.524502 11.33368 5.006008 3.80356 9.246825 3.49423 13.060853 3.61079 4.913211.15016 9.118188-.22324 13.338336-3.12704 3.328905-2.29049-.151375-10.71803 4.768439-12.43941" stroke-width="2.116667"/><path d="m23.117573 263.54885h6.565241" stroke-width="1.058333"/><path d="m70.318215 263.68706h-6.219704" stroke-width="1.058333"/><path d="m19.523964 273.43126c3.754859-2.03283 6.334883-2.27591 10.089741-.27643" stroke-width="1.5875"/><path d="m25.39813 275.36628v4.4714" stroke-width="1.137591"/><path d="m22.184615 275.69456v3.48992" stroke-width="1.058333"/><path d="m74.013487 273.27577c-3.754859-2.03284-6.334886-2.27593-10.089744-.27644" stroke-width="1.5875"/><path d="m68.139321 275.2108v4.35377" stroke-width="1.058333"/><path d="m71.352834 275.53905v3.48996" stroke-width="1.058333"/><path d="m29.613705 273.15483c2.158674-1.82705 4.809216-4.43034 8.214843-4.95253 6.016828-.92259 11.739639-.46431 17.503899.35453 4.413926.62702 6.471649 2.64469 8.772704 4.46843" stroke-width="1.5875"/><path d="m27.333148 278.9599c1.407134 1.24236 2.72115 2.37608 3.040746 2.34965l32.480676-.0691c.931177-.12828 2.05998-1.71771 2.971637-2.48788" stroke-width="1.5875"/><g stroke-width="1.322917"><path d="m29.613705 273.15483 4.284687.0691"/><path d="m29.682814 276.67934 4.154854.0199"/><path d="m35.90252 272.32554c-.689857.16856-1.434192.0103-2.004128.89841l-.06073 3.47563c.547927 1.05861 1.333743 1.48286 2.272175 1.50011 1.164624-.14295 1.548203-.59838 2.096947-.98774l.0454-3.84979c-.874749-1.16929-1.599022-.98429-2.349664-1.03662z"/><path d="m38.252183 273.36216 9.039523-1.3956 16.761249 1.71033"/><path d="m38.202518 276.56001 9.528988 1.6126 16.367005-2.04613"/><path d="m40.827511 214.61696c6.069984-1.22447 10.266623.14493 13.959778 2.21147"/><path d="m35.786164 221.45865 22.25272.13823"/><path d="m35.626088 225.09245 22.525678-.0826"/></g><g stroke-width="2.011245" transform="matrix(.65776009 0 0 .65776009 12.889614 206.24098)"><path d="m39.67217 32.242925 8.766509 1.337264c-.06418 6.848023 1.209155 8.732417 3.120283 8.469339 3.052215-.662408 2.307628-4.973032 2.823113-8.17217l8.320755-1.188679"/><path d="m40.712264 35.660377h7.726415"/><path d="m60.622642 35.808962h-6.389151"/></g><path d="m20.028352 244.31184c3.149768.86349 6.418504 2.8364 8.832058 5.72448l.207334 26.95207c-.530741 1.08293-.521573 1.74506-2.280558 3.17894-2.058275.66354-3.99987.39365-5.874164-.41464" stroke-width="2.116667"/></g></g></svg>