<svg height="353" viewBox="0 0 93.397917 93.397917" width="353" xmlns="http://www.w3.org/2000/svg"><g stroke="#000" transform="translate(0 -203.60208)"><path d="m21.976798 213.36813c-2.079648-.0877-4.344132.83962-6.794869 2.79309 1.312196 2.54845 3.666987 5.00934 2.296978 7.78134-2.588523.2844-3.19546.89944-4.464913 1.4037-1.558694 7.34242-1.451989 14.01846-1.914149 20.92228.778379.70627 1.228226.75475 1.786538 1.02089 3.388372-2.98077 6.860792-5.45594 10.025265-9.78009 1.935219-1.13589 4.957697-.23945 4.900795-4.2527 1.765677-.67509 2.283228.2081 2.401647.94487-26.2014623 18.95205-18.240839 24.49331-8.39788 34.23388-1.43095 2.0159-3.892322 4.29027-6.251452 6.53821-1.024938 4.16746-.779877 8.33403-.382829 12.50147.209844.34205.483824.64177 1.403709.51044l61.873607.25527c.425253-.18007.850847-.0505 1.276098-.89326l.382827-10.71638c-.680401-1.47406-1.361357-1.73604-2.041758-2.0403-1.94802-.0669-3.821237-.35449-5.994797.25526.37452-1.55284.74715-3.10739 2.295546-3.9559.04908-2.22277-1.051815-2.43089-1.912716-3.0612 9.266963-6.88719 5.284522-14.89766.636618-22.96405 4.108953 6.27619 8.153423 12.46787 2.169367 22.83645 2.814453.77567 4.694554.30554 6.506674-.25526.821741-7.44023.581122-14.43494.1276-21.56033-2.916394-5.12748-6.623742-8.89962-12.885733-8.29179-7.40031 3.03279-14.365407 8.15952-24.111105 7.3985-2.979254-1.16761-4.553778-3.9746-6.123844-6.78625 4.50979-9.72323 5.364197-15.46715-9.695485-19.49421-2.068444-3.44218-4.43791-5.23131-7.111744-5.34385zm11.488758 51.79292 1.337583 1.27824c1.477836 1.61307 5.549731 3.26928 7.222404 3.34914 1.499763-.17923 8.714977-1.81382 10.495908-2.26064.793258 3.85768 4.887366 4.16932 8.029387 5.503l-5.322337 3.24759-24.807941-.3599 5.864321-5.05278-2.406386-4.44897c-.185343-.5446-.567358-1.01338-.412939-1.25568z" fill="#de8787" stroke-width="2.116667"/><g fill="none"><path d="m15.182592 279.31053 64.680494.25527" stroke-width="2.116667"/><path d="m22.482474 216.83099c2.465162.83115 3.507939 2.90689 4.05941 5.41254l4.781084.18035" stroke-width="1.322917"/><path d="m26.812512 225.58124c1.319948 1.37371 2.780088 2.72405 2.706273 4.33005" stroke-width="1.322917"/></g><path d="m55.814741 271.45259-1.217824.90208-1.668869.36084-18.086926-.27053-4.420562 3.47362 24.807941.3599 5.322337-3.2476z" fill="#de8787" stroke-width="1.5875"/><path d="m12.514369 253.36565c1.071696 4.8531 5.932558 10.88738 11.621838 12.56152 2.002823.58939 2.782536 1.78541 3.172455 2.81914-1.452052 3.91745-3.414635 5.14785-6.269533 6.81079-2.477694-.33271-2.964865-1.79215-3.247529-2.79648" fill="none" stroke-width="1.5875"/><path d="m77.555138 262.27382c-.248078.0677-9.517064 3.42795-9.674928 3.5407-.157875.11265-1.736526 2.02968-1.826734 2.21012-.0902.18035 8.276686 2.36799 8.276686 2.36799" fill="none" stroke-width="1.322917"/></g></svg>