<svg height="353" viewBox="0 0 93.397917 93.397917" width="353" xmlns="http://www.w3.org/2000/svg"><g stroke="#24221c" transform="translate(0 -203.60208)"><path d="m53.586772 223.42317c1.125422-4.8631.579205-10.39744-8.454212-10.37229-6.679097 1.7156-8.910751 7.32203-8.756888 9.14637.288705 1.09755.915916 1.51805 1.529544 1.96574-.645112.85678-1.320989 1.60012-1.629849 2.13134-.421217.72448 1.821797 9.59549 2.695519 11.22088-4.21272 1.95334-6.819786 5.04698-8.023869 9.84179v15.79699c.607988 3.57311 1.08265 7.14627 4.450742 10.71939-2.248269 6.47851-2.803978 10.52398-2.382087 13.16415 3.423248 3.01307 15.60172 1.41809 24.823845 1.3791 1.121921-.30695 2.176689-.93328 3.071635-2.31939l-.814923-11.47162c.647761-.60149 1.295521-1.40492 1.943279-2.50748.931428-9.02684.271178-18.0537.313427-27.08056-2.235801-3.81034-3.731561-8.27371-8.65073-9.71639.481911-3.89168.569907-7.83961-.115449-11.89802z" fill="#de8787" stroke-width="2.116667"/><g fill="none"><path d="m37.905216 224.16299c4.388902.59167 9.406334.55481 15.681556-.73982" stroke-width="2.116667"/><path d="m48.944601 216.24234c1.64138 2.36068 1.818585 4.91232-1.950348 7.97868" stroke-width="1.322917"/><path d="m39.990743 229.00824c1.427474.66642 2.956324.52183 4.166644 2.92551l-.08867 4.69857c.709218.44039 1.418435.41654 2.127653-.0887.06884-2.11278-.310329-3.88958.620563-6.64891 1.184222-1.60992 2.674269-1.07906 4.077993-1.15246" stroke-width="1.5875"/><path d="m40.434 232.37702 3.501757.13298" stroke-width="1.322917"/><path d="m46.285036 232.51 3.989345-.84219" stroke-width="1.5875"/><path d="m38.970886 237.51521c3.233007 4.7148 9.388715 8.90848 14.731322-2.19402" stroke-width="1.5875"/><path d="m36.400741 258.64055-2.69552-.12522-.125357-16.54924" stroke-width="1.058333"/><path d="m43.985804 241.96596c1.152649.68954 2.351175 1.44178 4.576113 2.13134 3.799965-1.56365 8.071114-4.97242 8.964167-4.95225 1.893612.87502 2.255437 2.0564 2.507456 3.25973-1.235691 2.40843-3.198445 3.54449-5.077602 4.82685l-13.916399.18817" stroke-width="1.058333"/><path d="m36.087311 273.68531 3.698502-.0627c.955369-.97318 1.119183-1.68252 1.629845-2.50745-.06068-2.94026.02098-5.45345.125358-7.89851 3.086711-1.16315 4.897002-1.14566 7.208947-1.3791l-5.767158-.43882c-.946839-.37478-1.559285-1.52979-2.005964-3.07162l.06268-10.90746-2.382085-5.70446c-.880145.01-1.730181.16687-2.444776 1.003l2.319401 6.26863c.117451 7.39702.289511 14.794.250748 22.19102z" stroke-width="1.322917"/><path d="m39.785813 273.62263 1.379101 1.31641c.125744 2.56903.0394 5.2101.438803 8.21194l10.468642-.0627 2.444772-1.50446-.438805-25.76414c-.288381-1.96319 1.106932-2.45309 2.068657-3.3224l6.205958-.18817" stroke-width="1.058333"/><path d="m56.146983 252.49727c-1.653042.12169-3.437294.0259-3.635817 2.57016l-.752241 18.80595c.51674 1.2498 1.735387 1.08339 2.570147 1.3791" stroke-width="1.058333"/><path d="m52.135047 263.21667-7.208947.12522-1.817904 2.13135 2.256712 9.77907 9.653716-.43879" stroke-width="1.058333"/><path d="m41.603717 283.15098c1.054604-3.42933 2.209349-6.45812 3.761191-7.8985" stroke-width="1.058333"/></g></g></svg>