<svg height="353" viewBox="0 0 93.397917 93.397917" width="353" xmlns="http://www.w3.org/2000/svg"><g stroke="#000" transform="translate(0 -203.60208)"><path d="m37.83656 212.4299-3.015681 7.22401c-.840836 1.61225-2.097179 3.0168.09147 6.14382-.850656 4.46078-1.589463 8.92859 1.670981 13.64632-5.903745 1.36941-7.712284 1.48434-10.165128 3.20272-1.423467 14.4697-4.210754 29.91848-1.531732 39.54651-1.659493 1.72154-3.193482 3.45203-1.253235 5.4307 15.209637 1.47291 30.790156 1.70957 46.787438.55699 2.373175-2.22799.2757-4.45594-1.113986-6.68393 3.028983-4.31951.433272-25.14627-.974739-38.01478-1.245713-1.38774-6.616206-2.54634-11.000618-3.7597 2.263889-3.70822 3.722671-8.58788 2.088724-13.85521.801539-2.42992 1.799925-3.97634.556993-5.63957l-2.924213-8.07639c-6.063793-3.43736-12.367562-4.39495-19.216269.27839z" fill="#de8787" stroke-width="2.116667"/><g fill="none"><path d="m34.820879 219.65391c8.528242 4.04839 16.890046 3.60282 25.156164.57387" stroke-width="2.116667"/><path d="m34.912345 225.79773c9.364922 2.34037 15.632226 1.60326 24.507705.0697" stroke-width="2.116667"/><g stroke-width="1.693684" transform="matrix(.78108809 0 0 .78108809 7.255706 205.82341)"><path d="m39.67217 32.242925 8.766509 1.337264c-.06418 6.848023 1.209155 8.732417 3.120283 8.469339 3.052215-.662408 2.307628-4.973032 2.823113-8.17217l8.320755-1.188679"/><path d="m39.553478 35.482102 8.885201.178275"/><path d="m62.316253 35.808962h-8.082762"/></g><path d="m29.246144 244.46562c-4.048826 1.0243-2.555582 11.66273-2.763974 18.51112-4.620733 18.08658-1.371651 17.4155.393854 20.48038l40.468472.29539c6.232463-7.2861 1.395729-14.01876.984634-20.97271 1.435451-10.86979-.02332-15.92681-2.47353-18.28534" stroke-width="2.116667"/><path d="m35.245416 244.07175c6.009918 3.79317.483512 12.7578-.295391 19.59423-1.342317 7.00907 1.3772 11.1237.393854 14.08028-.458768 2.3696-2.66217 3.4704-6.006268 3.7416l36.234542.0983c-3.01416-.58249-5.94708-1.64181-6.400122-4.52934 2.626441-17.68131-6.334483-26.51946-.196937-33.57603" stroke-width="1.5875"/><path d="m36.583325 239.44405c9.73126 7.37938 15.402976 4.25174 20.748001.27838" stroke-width="2.116667"/><path d="m37.707002 247.61644h19.298832" stroke-width="2.116667"/><path d="m35.245416 244.07175c2.207515 1.80517 2.640548 3.61032 3.643146 5.41549-2.644158 10.03411-.468326 16.48126 8.172467 18.11729 12.349267-1.51835 8.90642-10.77158 9.157099-18.21574.328269-2.26465.872908-4.4211 2.756975-5.90783" stroke-width="2.116667"/><path d="m29.337611 281.48786c4.443355.51081 7.918808-3.08953 7.975538-4.23393-.155012-6.76566 2.291916-9.184 9.649417-8.56633 5.290753-.10128 8.360454.62356 9.381279 2.69505 1.02776 2.08554.620057 5.17327 1.449698 6.46206 1.038706 1.71136 2.658573 2.91559 7.77861 3.74161" stroke-width="2.116667"/><path d="m26.48217 262.97674c2.889807-.50934 5.709319-.24532 8.467855.68924" stroke-width="2.116667"/><path d="m59.221261 263.91213c3.968972-1.76134 6.693355-1.07636 9.107869-1.13233" stroke-width="2.116667"/></g></g></svg>