<?xml version="1.0" encoding="UTF-8" standalone="no"?>
<svg
   width="45"
   height="45"
   version="1.1"
   id="svg4"
   sodipodi:docname="bD.svg"
   xml:space="preserve"
   inkscape:version="1.3 (0e150ed6c4, 2023-07-21)"
   xmlns:inkscape="http://www.inkscape.org/namespaces/inkscape"
   xmlns:sodipodi="http://sodipodi.sourceforge.net/DTD/sodipodi-0.dtd"
   xmlns="http://www.w3.org/2000/svg"
   xmlns:svg="http://www.w3.org/2000/svg"><defs
     id="defs4" /><sodipodi:namedview
     id="namedview4"
     pagecolor="#ffffff"
     bordercolor="#666666"
     borderopacity="1.0"
     inkscape:showpageshadow="2"
     inkscape:pageopacity="0.0"
     inkscape:pagecheckerboard="0"
     inkscape:deskcolor="#d1d1d1"
     inkscape:zoom="10.144444"
     inkscape:cx="-22.081051"
     inkscape:cy="14.096386"
     inkscape:window-width="3840"
     inkscape:window-height="2054"
     inkscape:window-x="-11"
     inkscape:window-y="-11"
     inkscape:window-maximized="1"
     inkscape:current-layer="svg4" /><g
     fill="none"
     fill-rule="evenodd"
     stroke="#000"
     stroke-width="1.5"
     stroke-linecap="round"
     stroke-linejoin="round"
     id="g4"><g
       fill="#000"
       stroke-linecap="butt"
       id="g3"><path
         d="M9 36c3.39-.97 10.11.43 13.5-2 3.39 2.43 10.11 1.03 13.5 2 0 0 1.65.54 3 2-.68.97-1.65.99-3 .5-3.39-.97-10.11.46-13.5-1-3.39 1.46-10.11.03-13.5 1-1.354.49-2.323.47-3-.5 1.354-1.94 3-2 3-2z"
         id="path1" /><path
         d="M15 32c2.5 2.5 12.5 2.5 15 0 .5-1.5 0-2 0-2 0-2.5-2.5-4-2.5-4 5.5-1.5 6-11.5-5-15.5-11 4-10.5 14-5 15.5 0 0-2.5 1.5-2.5 4 0 0-.5.5 0 2z"
         id="path2" /><path
         d="M25 8a2.5 2.5 0 1 1-5 0 2.5 2.5 0 1 1 5 0z"
         id="path3" /></g><path
       d="M17.5 26h10M15 30h15m-7.5-14.5v5M20 18h5"
       stroke="#ececec"
       stroke-linejoin="miter"
       id="path4" /></g><path
     style="fill:#000000;stroke:#ffffff;stroke-width:1.05194;stroke-dasharray:none;paint-order:stroke fill markers"
     d="m 31.442612,22.741623 c -0.100502,-0.0704 -0.166251,-0.345518 -0.222992,-0.933154 -0.03764,-0.389916 -0.225389,-1.329501 -0.367896,-1.841207 -0.782679,-2.810507 -2.172411,-5.274361 -4.146438,-7.351222 -0.378478,-0.398193 -0.490301,-0.460655 -0.596221,-0.333022 -0.05592,0.06739 -0.469657,0.300725 -1.179278,0.665104 -0.314778,0.161632 -0.435829,0.199201 -0.681928,0.211639 -0.542812,0.02744 -0.508992,-0.0068 -0.494061,0.500934 l 0.013,0.441978 0.613739,0.02273 0.613734,0.02273 v 1.022895 1.022895 l -0.409157,0.02273 -0.409156,0.02273 -0.02383,0.364953 c -0.02914,0.446549 -0.176819,0.777971 -0.479719,1.0766 -0.346267,0.341393 -0.554823,0.422383 -1.087629,0.422383 -0.418962,0 -0.47372,-0.01058 -0.698089,-0.134851 -0.50564,-0.280068 -0.808037,-0.769018 -0.855392,-1.383104 l -0.02842,-0.368711 h -0.419272 -0.419279 l -0.02961,-0.306866 c -0.02999,-0.311088 0.0068,-1.684194 0.04684,-1.749061 0.012,-0.01941 0.307749,-0.03531 0.657201,-0.03531 h 0.635376 l -0.01296,-0.465984 -0.01296,-0.465988 -0.393319,-0.02691 c -0.454408,-0.03114 -0.756164,-0.156061 -1.589625,-0.658228 -0.332833,-0.200534 -0.523187,-0.289373 -0.580846,-0.271073 -0.120579,0.03825 -1.097966,1.052965 -1.512237,1.569963 -1.261601,1.574438 -2.204499,3.30479 -2.836054,5.204581 -0.146047,0.439321 -0.350212,1.152435 -0.397216,1.387396 -0.01249,0.06251 -0.06429,0.318234 -0.115093,0.568273 -0.0508,0.25004 -0.118644,0.700115 -0.150769,1.000162 -0.05277,0.492827 -0.07035,0.557623 -0.181949,0.670562 -0.147641,0.149412 -0.258748,0.157562 -0.419906,0.0308 -0.108131,-0.08506 -0.119745,-0.123754 -0.119388,-0.397789 9.49e-4,-0.799457 0.275728,-2.479075 0.637003,-3.89506 0.671264,-2.630959 1.745164,-4.883672 3.202126,-6.717076 0.213639,-0.268838 0.388431,-0.511046 0.388431,-0.538245 0,-0.02719 -0.140256,-0.188879 -0.31168,-0.359291 C 16.72575,10.421602 16.807945,10.452722 15.74275,10.259833 15.124284,10.147838 14.426247,10.024757 14.197043,9.9872882 13.912353,9.9407295 13.462354,9.8615923 12.514953,9.6913943 11.419715,9.4946369 11.143464,9.4468927 10.787401,9.3928326 L 10.446434,9.3410666 10.145813,9.5063627 C 9.8453475,9.671564 9.8451725,9.6717818 9.8172845,9.9072556 c -0.01633,0.1378464 -0.06286,0.2705564 -0.112156,0.3198524 -0.118985,0.118985 -0.536489,0.168628 -1.4181352,0.168628 -0.8580507,0 -1.314912,-0.05158 -1.3921188,-0.157161 C 6.8659252,10.19899 6.82835,10.0555 6.8113928,9.9197381 6.784337,9.7031528 6.7586487,9.6555506 6.6018029,9.5313306 L 6.4230568,9.3897652 6.4245295,8.8366739 C 6.4259995,8.2357867 6.4424235,8.1871841 6.6844872,8.0620952 L 6.832238,7.9857452 V 7.6073484 c 0,-0.208119 0.013244,-0.5349237 0.029423,-0.7262226 L 6.891084,6.5333013 h 0.3808799 c 0.3644402,0 0.3827449,-0.00489 0.4240913,-0.1136555 0.030327,-0.079813 0.077391,-0.1136556 0.1579924,-0.1136556 0.1411534,0 0.1431941,-0.040056 0.012486,-0.2449612 L 7.7642431,5.900683 7.3917493,5.8987895 7.0192554,5.896896 6.8689379,6.0827799 C 6.7862557,6.1850123 6.6777012,6.3191794 6.6276931,6.380924 L 6.5367774,6.493189 5.5593444,6.3503128 C 2.6268382,5.921646 2.4185211,5.8903703 1.3086567,5.712118 0.90198753,5.6468001 0.85432433,5.5993831 1.1583718,5.5625927 1.2910346,5.5465517 1.6348443,5.501816 1.9223911,5.4632131 2.2099369,5.4245807 2.5884109,5.3738185 2.7634363,5.350355 2.9384659,5.3269105 3.3067068,5.2765984 3.5817524,5.2385978 5.8663153,4.9229507 6.7892474,4.809599 6.8584617,4.8361572 c 0.031043,0.011912 0.08061,0.086666 0.1101861,0.166136 0.1408406,0.3784404 0.098966,0.3490631 0.4975249,0.3490631 0.3159134,0 0.369357,-0.01177 0.4114776,-0.090453 0.065325,-0.1220511 0.2809259,-0.2278189 0.4639811,-0.2276101 0.1638201,1.804e-4 0.4331943,0.1421455 0.474631,0.2501296 0.020218,0.052741 0.1107081,0.067933 0.4045671,0.067933 0.353789,0 0.380357,-0.00669 0.40693,-0.1022893 0.0719,-0.2587006 0.177687,-0.4432556 0.254082,-0.4432556 0.04442,0 0.2407615,0.020218 0.4363515,0.044991 0.195588,0.024727 0.529513,0.065902 0.742045,0.091464 0.212537,0.025581 0.723982,0.088151 1.13655,0.1390795 0.412564,0.050934 0.924014,0.112768 1.136546,0.1374137 0.212537,0.024631 0.519404,0.063311 0.681928,0.085916 0.16253,0.02259 0.500083,0.064753 0.750123,0.093661 0.250039,0.028903 0.485305,0.057374 0.522812,0.063264 0.118819,0.018652 -0.141187,0.1041164 -0.47735,0.1568956 -0.291847,0.045846 -0.552859,0.091264 -1.727552,0.3007734 -0.379665,0.067715 -0.843029,0.1477218 -2.364019,0.4081832 -0.325053,0.05566 -0.615652,0.088668 -0.645778,0.073348 C 10.043307,6.3854643 9.9403785,6.2607172 9.8446875,6.123555 L 9.6706955,5.8741706 9.3780435,5.8603599 c -0.341232,-0.016088 -0.500031,0.014712 -0.500031,0.097012 0,0.03232 -0.04091,0.1026732 -0.090927,0.15635 -0.1273239,0.1366686 -0.1138312,0.1843509 0.056828,0.200805 0.113242,0.010916 0.151143,0.038157 0.162277,0.1165364 0.01372,0.096689 0.03517,0.1022892 0.391615,0.1022892 h 0.377083 l 0.02891,0.2109234 c 0.0159,0.1160095 0.02891,0.4510817 0.02891,0.7446079 v 0.5336841 l 0.131899,0.054627 c 0.072541,0.030043 0.1783955,0.1041312 0.2352325,0.1646323 l 0.103342,0.1100009 h 1.143921 c 0.629159,0 1.884073,-0.01357 2.788704,-0.030138 l 1.644787,-0.030085 0.246823,-0.3709507 c 0.419449,-0.6303974 0.535135,-0.7085771 2.191104,-1.4807399 0.906492,-0.4226868 2.013888,-0.8218196 2.879674,-1.0379064 1.546817,-0.3860578 2.834953,-0.1790925 5.205387,0.8363516 0.295677,0.1266593 0.869479,0.397799 1.491974,0.705003 0.646391,0.3189977 0.85956,0.5115876 1.169711,1.0567813 l 0.161275,0.2834979 1.316237,0.027761 c 0.72393,0.015285 1.994106,0.030611 2.822613,0.034072 l 1.506381,0.00631 0.0699,-0.106679 c 0.03844,-0.058677 0.137974,-0.1342345 0.221175,-0.1679017 0.0832,-0.033694 0.166301,-0.08284 0.184673,-0.1092657 0.01837,-0.026435 0.03369,-0.3600262 0.03407,-0.741338 l 4.74e-4,-0.6932949 h 0.410281 c 0.395806,0 0.411809,-0.0038 0.453492,-0.1136556 0.02923,-0.07688 0.0779,-0.1136507 0.150418,-0.1136507 0.162629,0 0.169018,-0.035452 0.04148,-0.2302773 L 36.320607,5.8968466 H 35.94331 35.566018 l -0.182994,0.2315066 c -0.100649,0.1273238 -0.200472,0.2627395 -0.221838,0.3009157 -0.04267,0.076277 0.07103,0.08873 -1.984031,-0.2172308 -0.500085,-0.07445 -1.18542,-0.1753052 -1.522979,-0.2241266 -1.192642,-0.1724813 -2.04477,-0.3113566 -2.136708,-0.3482279 -0.06241,-0.025058 0.464541,-0.1130669 1.45478,-0.2430438 0.212536,-0.027906 0.591005,-0.079437 0.841045,-0.1145334 0.250044,-0.03512 0.843318,-0.1156821 1.318395,-0.1790782 0.475078,-0.063396 1.017214,-0.1359994 1.204745,-0.1613426 0.728159,-0.098402 1.069586,-0.1291748 1.099267,-0.099076 0.01699,0.017228 0.07079,0.1336359 0.119536,0.2586532 l 0.08861,0.227311 0.353548,0.013431 c 0.342282,0.012957 0.358218,0.00888 0.50007,-0.1286099 0.252113,-0.2443584 0.614697,-0.2264568 0.857969,0.042334 0.07375,0.081497 0.1385,0.095578 0.439491,0.095578 h 0.352993 l 0.07434,-0.2238133 c 0.109574,-0.3298896 0.138273,-0.3433349 0.604451,-0.2831897 0.21828,0.028143 0.836717,0.1031813 1.374302,0.1667103 0.537591,0.063534 1.110411,0.1346041 1.272935,0.1579398 0.162529,0.02335 0.571685,0.074985 0.90924,0.1147804 0.337554,0.039771 0.738157,0.091734 0.890232,0.115421 0.152074,0.023682 0.341308,0.043093 0.420522,0.043093 0.07921,0 0.144024,0.020075 0.144024,0.044612 0,0.044802 -0.06955,0.065779 -0.363694,0.1096073 -0.147717,0.022021 -0.863218,0.1475414 -1.841207,0.3230222 -0.435112,0.07807 -1.334779,0.2332958 -2.341286,0.4039547 -0.337559,0.057231 -0.638897,0.09516 -0.669646,0.084278 C 38.59137,6.3968536 38.521586,6.3132546 38.467023,6.2219717 38.260936,5.877156 38.2181,5.8514188 37.850266,5.8514188 c -0.334179,0 -0.334683,1.804e-4 -0.428453,0.1591168 -0.05164,0.087515 -0.114026,0.1591168 -0.138643,0.1591168 -0.102543,0 0.0038,0.115497 0.125686,0.1366781 0.09392,0.016279 0.136873,0.052799 0.147162,0.1250221 0.01362,0.095821 0.03621,0.1019947 0.372376,0.1019947 0.202917,0 0.370742,0.020835 0.387619,0.048166 0.01637,0.026483 0.02696,0.3420013 0.02354,0.7011353 -0.0047,0.4845587 0.0089,0.665313 0.05247,0.7008263 0.03227,0.02634 0.120052,0.097693 0.195067,0.1585994 0.135941,0.110386 0.136436,0.1125215 0.151466,0.6562811 l 0.0151,0.545531 -0.185485,0.174531 C 38.408427,9.6687265 38.382672,9.7194172 38.38261,9.8836308 38.382424,10.334712 38.09017,10.418185 36.611689,10.389395 35.457584,10.366945 35.425136,10.355985 35.35828,9.9668463 35.31225,9.6987961 35.30905,9.6944968 35.025481,9.5171835 l -0.286294,-0.1790263 -0.485518,0.076455 c -0.267034,0.042046 -0.649182,0.1053641 -0.849213,0.1406934 -0.200032,0.035313 -0.547814,0.096063 -0.772851,0.1349781 -0.498389,0.086164 -2.852574,0.5014356 -3.386914,0.5974366 -0.895186,0.160835 -0.815507,0.127353 -1.182614,0.496928 l -0.336538,0.338802 0.08901,0.109821 c 0.04896,0.0604 0.227411,0.280675 0.39656,0.489491 0.868301,1.07193 1.715193,2.572274 2.318562,4.107549 0.410775,1.045206 0.63474,1.797089 0.988563,3.31872 0.08945,0.384681 0.236793,1.24508 0.364454,2.128212 0.02823,0.195357 0.05486,0.580542 0.05916,0.855962 0.0075,0.475941 0.0024,0.505096 -0.0995,0.58814 -0.128349,0.104478 -0.269631,0.111676 -0.400001,0.02037 z m -8.337217,-5.412657 c 0.560594,-0.377952 0.542639,-1.185225 -0.03479,-1.563732 -0.234742,-0.153882 -0.587635,-0.175438 -0.843593,-0.05152 -0.255625,0.123746 -0.461926,0.352956 -0.533903,0.593189 -0.117101,0.390852 0.106817,0.880409 0.500715,1.094721 0.24881,0.135373 0.650506,0.103353 0.91157,-0.07265 z M 19.832525,8.8312743 C 19.933511,8.7095884 19.845906,8.5907217 19.616637,8.5383552 18.870017,8.3678153 16.847672,7.98553 16.752735,7.9969867 c -0.06286,0.00757 -0.135952,0.0484 -0.162429,0.090687 -0.08069,0.1289043 0.06998,0.2403001 0.413417,0.3056422 0.528659,0.1005757 0.929272,0.1753904 1.353103,0.2526741 0.225037,0.041057 0.511445,0.094274 0.636467,0.1183155 0.284936,0.054785 0.665654,0.1211925 0.73319,0.1278934 0.02819,0.00284 0.07592,-0.024626 0.106042,-0.060928 z m 5.980057,-0.00147 c 0.200032,-0.03626 0.537585,-0.098177 0.750118,-0.1376081 0.37956,-0.070417 0.466164,-0.086259 1.212125,-0.221806 C 28.496249,8.3393084 28.627346,8.2746785 28.575331,8.075771 28.542391,7.9498573 28.45065,7.9386142 28.095693,8.01701 c -0.180536,0.039868 -0.42031,0.089488 -0.532831,0.1102713 -0.171275,0.031653 -1.690101,0.3466899 -2.101592,0.4359467 -0.174632,0.03787 -0.235888,0.122943 -0.173057,0.2403391 0.05933,0.1108551 0.05789,0.1107836 0.524369,0.026246 z"
     id="path5" /></svg>
