<?xml version="1.0" encoding="UTF-8" standalone="no"?>
<svg
   width="45"
   height="45"
   version="1.1"
   id="svg4"
   sodipodi:docname="bM.svg"
   xml:space="preserve"
   inkscape:version="1.3 (0e150ed6c4, 2023-07-21)"
   xmlns:inkscape="http://www.inkscape.org/namespaces/inkscape"
   xmlns:sodipodi="http://sodipodi.sourceforge.net/DTD/sodipodi-0.dtd"
   xmlns="http://www.w3.org/2000/svg"
   xmlns:svg="http://www.w3.org/2000/svg"><defs
     id="defs4" /><sodipodi:namedview
     id="namedview4"
     pagecolor="#ffffff"
     bordercolor="#666666"
     borderopacity="1.0"
     inkscape:showpageshadow="2"
     inkscape:pageopacity="0.0"
     inkscape:pagecheckerboard="0"
     inkscape:deskcolor="#d1d1d1"
     showgrid="false"
     inkscape:zoom="10.144444"
     inkscape:cx="58.652793"
     inkscape:cy="19.616648"
     inkscape:window-width="3840"
     inkscape:window-height="2054"
     inkscape:window-x="-11"
     inkscape:window-y="-11"
     inkscape:window-maximized="1"
     inkscape:current-layer="svg4" /><g
     fill-rule="evenodd"
     stroke="#000"
     stroke-width="1.5"
     stroke-linecap="round"
     stroke-linejoin="round"
     id="g4"><path
       d="M9 39h27v-3H9v3zm3.5-7l1.5-2.5h17l1.5 2.5h-20zm-.5 4v-4h21v4H12z"
       stroke-linecap="butt"
       id="path1" /><path
       d="M14 29.5v-13h17v13H14z"
       stroke-linecap="butt"
       stroke-linejoin="miter"
       id="path2" /><path
       d="M14 16.5L11 14h23l-3 2.5H14zM11 14V9h4v2h5V9h5v2h5V9h4v5H11z"
       stroke-linecap="butt"
       id="path3" /><path
       d="M12 35.5h21m-20-4h19m-18-2h17m-17-13h17M11 14h23"
       fill="none"
       stroke="#ececec"
       stroke-width="1"
       stroke-linejoin="miter"
       id="path4" /></g><path
     style="fill:#000000;stroke:#f9f9f9;stroke-width:1;stroke-dasharray:none"
     d="m 24.642939,3.212781 c 1.641496,1.8894411 2.610565,3.7135789 2.813558,5.2961374 0.02059,0.160462 0.03881,0.831944 0.04052,1.4921786 l 0.0031,1.200427 -5.078349,-1.28e-4 -5.078349,-1.26e-4 -0.0034,-0.840864 c -0.0066,-1.6295366 0.05745,-2.1829786 0.355133,-3.0669036 0.399669,-1.1867233 1.151944,-2.4464307 2.233654,-3.7403217 0.481904,-0.5764322 1.580106,-1.7027451 2.131352,-2.1859123 l 0.355133,-0.3112747 0.141688,0.105427 c 0.25784,0.1918518 1.717931,1.6276987 2.086002,2.0513683 z m 2.869375,16.287999 c -0.0065,6.67816 0.0025,6.47026 -0.295801,6.961032 -0.141376,0.232698 -0.490123,0.582703 -0.702342,0.70488 -0.20617,0.118697 -0.608654,0.262839 -0.708098,0.2536 -0.04225,-0.0038 -0.08928,0.0054 -0.104503,0.02053 -0.01522,0.01522 0.07634,0.04692 0.20349,0.07043 0.349687,0.06462 0.911033,0.28109 1.270917,0.490071 0.481479,0.279594 1.100983,0.908728 1.416914,1.438938 0.407798,0.684379 0.694727,1.558535 0.844081,2.571542 0.05344,0.36242 0.07649,1.514061 0.08096,4.045076 0.0034,1.946121 -0.0034,3.538405 -0.01543,3.538405 -0.01194,0 -1.37814,-0.90221 -3.036015,-2.004909 l -3.014322,-2.004907 -0.0025,-3.050267 -0.0025,-3.05027 -1.017235,5.52e-4 -1.017234,5.5e-4 -2.13e-4,3.045684 -2.1e-4,3.04568 -3.042806,2.028758 -3.042803,2.028761 0.0076,-3.396779 c 0.0041,-1.868232 0.0261,-3.593848 0.04858,-3.834705 0.105852,-1.134051 0.391384,-2.093452 0.878503,-2.951908 0.193924,-0.341748 0.802775,-1.014503 1.141743,-1.261571 0.462304,-0.336965 1.260809,-0.665328 1.730558,-0.711642 0.105873,-0.01041 0.105512,-0.01077 -0.04011,-0.04316 -0.874099,-0.194104 -1.406583,-0.659731 -1.643385,-1.437051 -0.06312,-0.207214 -0.08109,-1.490832 -0.09073,-6.482697 -0.0066,-3.423379 2.74e-4,-6.236732 0.01555,-6.251904 0.0282,-0.02819 10.099707,-0.03993 10.127833,-0.01181 0.0086,0.0086 0.0128,2.820508 0.0095,6.248848 z"
     id="path5" /></svg>
