<?xml version="1.0" encoding="UTF-8" standalone="no"?>
<svg
   width="177.17"
   height="177.17"
   shape-rendering="geometricPrecision"
   image-rendering="optimizeQuality"
   fill-rule="evenodd"
   clip-rule="evenodd"
   viewBox="0 0 50 50"
   version="1.1"
   id="svg4798"
   sodipodi:docname="wF.svg"
   inkscape:version="1.3 (0e150ed6c4, 2023-07-21)"
   xml:space="preserve"
   xmlns:inkscape="http://www.inkscape.org/namespaces/inkscape"
   xmlns:sodipodi="http://sodipodi.sourceforge.net/DTD/sodipodi-0.dtd"
   xmlns="http://www.w3.org/2000/svg"
   xmlns:svg="http://www.w3.org/2000/svg"
   xmlns:rdf="http://www.w3.org/1999/02/22-rdf-syntax-ns#"
   xmlns:cc="http://creativecommons.org/ns#"
   xmlns:dc="http://purl.org/dc/elements/1.1/"><metadata
     id="metadata4802"><rdf:RDF><cc:Work
         rdf:about=""><dc:format>image/svg+xml</dc:format><dc:type
           rdf:resource="http://purl.org/dc/dcmitype/StillImage" /></cc:Work></rdf:RDF></metadata><sodipodi:namedview
     pagecolor="#ffffff"
     bordercolor="#666666"
     borderopacity="1"
     objecttolerance="10"
     gridtolerance="10"
     guidetolerance="10"
     inkscape:pageopacity="0"
     inkscape:pageshadow="2"
     inkscape:window-width="3840"
     inkscape:window-height="2036"
     id="namedview4800"
     showgrid="false"
     inkscape:zoom="1.4142136"
     inkscape:cx="-112.78353"
     inkscape:cy="39.951533"
     inkscape:window-x="-12"
     inkscape:window-y="-12"
     inkscape:window-maximized="1"
     inkscape:current-layer="svg4798"
     inkscape:document-rotation="0"
     inkscape:showpageshadow="2"
     inkscape:pagecheckerboard="0"
     inkscape:deskcolor="#d1d1d1" /><defs
     id="defs4788"><linearGradient
       id="0"
       x1="21.376"
       x2="77.64"
       gradientUnits="userSpaceOnUse"><stop
         stop-color="#fff"
         id="stop4783" /><stop
         offset="1"
         stop-color="#fff"
         stop-opacity="0"
         id="stop4785" /></linearGradient></defs><path
     id="path1"
     style="fill:#fae4ed;fill-opacity:1;stroke:#000000;stroke-width:1.69329;stroke-dasharray:none;stroke-opacity:1"
     d="m 5.5596992,7.5215246 c 1.255039,3.6783654 2.581357,7.3296824 3.8721865,10.9975594 0.21407,1.409168 1.6592643,3.097111 1.1090153,4.353935 -1.6352073,1.465469 -3.8662618,1.739265 -5.9672998,1.568718 1.913588,1.222965 3.930003,2.387262 6.1056508,3.008453 -1.9893473,1.44938 -4.5744098,1.712986 -6.9578078,1.981567 1.131119,0.803892 3.506203,1.566518 5.2518425,1.839357 2.0075773,-0.177466 4.0922943,0.09137 5.7666623,1.317921 4.410355,3.196228 6.894823,8.222161 9.307023,12.955425 0.2991,0.12568 0.63762,0.05155 0.95303,0.0711 0.31541,-0.01956 0.65448,0.05457 0.95357,-0.0711 2.41221,-4.733264 4.896672,-9.759197 9.307032,-12.955425 1.67437,-1.226555 3.75908,-1.495387 5.76666,-1.317921 1.74564,-0.272839 4.12017,-1.035465 5.25129,-1.839357 -2.3834,-0.268581 -4.96791,-0.532187 -6.95726,-1.981567 2.17565,-0.621191 4.19152,-1.785488 6.1051,-3.008453 -2.10103,0.170547 -4.33154,-0.103249 -5.96674,-1.568718 -0.55025,-1.256824 0.89494,-2.944767 1.10901,-4.353935 1.29083,-3.667877 2.6166,-7.319194 3.87164,-10.9975594 -1.42479,0.6555354 -3.18129,2.0857206 -4.72435,3.0508964 -2.22141,1.49173 -4.43288,2.998572 -6.6585,4.484019 -2.73512,0.153571 -5.297842,-0.751286 -8.057452,-0.751286 -2.77276,0 -5.322337,0.904857 -8.057455,0.751286 C 14.71693,13.570993 12.50601,12.064151 10.284593,10.572421 8.7415347,9.6072452 6.9844882,8.17706 5.5596992,7.5215246 Z"
     sodipodi:nodetypes="cccccccccccccccccccccsccc" /><path
     style="fill:#000000;stroke:#000000;stroke-width:0.33129px;stroke-linecap:butt;stroke-linejoin:miter;stroke-opacity:1;fill-opacity:1"
     d="m 21.396964,40.820948 3.657007,4.434815 3.558645,-4.315528 z"
     id="path2" /><path
     style="fill:#000000;fill-opacity:1;stroke:none;stroke-width:0.45014px;stroke-linecap:butt;stroke-linejoin:miter;stroke-opacity:1"
     d="m 14.186594,21.390472 c 4.643877,2.79988 7.001969,6.056919 8.665186,9.452932 0,0 0.151045,-5.576817 -1.575489,-7.427304 -1.676697,-1.797071 -7.089697,-2.025628 -7.089697,-2.025628 z"
     id="path7"
     sodipodi:nodetypes="ccsc" /><path
     style="fill:#000000;fill-opacity:1;stroke:none;stroke-width:0.45014px;stroke-linecap:butt;stroke-linejoin:miter;stroke-opacity:1"
     d="m 35.813405,21.390472 c -4.643878,2.79988 -7.001969,6.056919 -8.665186,9.452932 0,0 -0.151045,-5.576817 1.575489,-7.427304 1.676697,-1.797071 7.089697,-2.025628 7.089697,-2.025628 z"
     id="path8"
     sodipodi:nodetypes="ccsc" /></svg>
