<?xml version="1.0" standalone="no"?>
<!DOCTYPE svg PUBLIC "-//W3C//DTD SVG 1.1//EN" "http://www.w3.org/Graphics/SVG/1.1/DTD/svg11.dtd" >
<svg xmlns="http://www.w3.org/2000/svg" xmlns:xlink="http://www.w3.org/1999/xlink" version="1.1">
<metadata>
Created by FontForge 20190801 at Mon May  8 00:20:55 2023
 By pimento
</metadata>
<defs>
<font id="pychess" horiz-adv-x="1024" >
  <font-face 
    font-family="pychess"
    font-weight="400"
    font-stretch="normal"
    units-per-em="1024"
    panose-1="0 0 0 0 0 0 0 0 0 0"
    ascent="960"
    descent="-64"
    x-height="814"
    cap-height="886"
    bbox="-36 -73.5143 1060 971"
    underline-thickness="0"
    underline-position="0"
    unicode-range="U+0001-1F986"
  />
<missing-glyph 
 />
    <glyph glyph-name=".notdef" 
 />
    <glyph glyph-name="uni0000" horiz-adv-x="0" 
d="M0 0v0v0v0z" />
    <glyph glyph-name="uni0001" horiz-adv-x="0" 
d="M0 0v0v0v0z" />
    <glyph glyph-name="space" unicode=" " horiz-adv-x="0" 
d="M0 0v0v0v0z" />
    <glyph glyph-name="exclam" unicode="!" 
d="M516 940l-108 -74q9 -9 17.5 -16.5t16.5 -15.5q12 -7 16.5 -16.5t-4.5 -21.5q-3 -15 -15.5 -21t-26.5 -9q-37 -12 -74.5 -28t-73.5 -34q-30 -10 -53 -31t-47 -39q-12 -13 -22 -28t-18 -30q-6 -19 -14.5 -39t-7.5 -41q-1 -28 9.5 -54.5t18.5 -53.5q10 -22 26 -42.5
t28 -41.5q31 -42 68.5 -78t75.5 -72q24 -21 52.5 -37.5t55.5 -34.5q-60 -1 -118.5 -2.5t-117.5 -1.5q-1 -31 -1.5 -61.5t-0.5 -62.5h634l2 120q-60 1 -120 2.5t-120 3.5q13 9 25.5 19t26.5 19q27 21 56.5 40.5t53.5 45.5q24 27 50 51.5t44 54.5q16 21 28.5 45.5t23.5 48.5
q12 22 16.5 47t3.5 51q-1 22 -5.5 45t-18.5 43q-9 19 -24 34t-32 30q-13 15 -29.5 26t-34.5 20q-43 25 -91 42.5t-95 37.5q-10 6 -13 17.5t-9 22.5l52 40q-27 19 -53 39.5t-53 40.5zM516 738q52 0 98 -19.5t84 -60.5q39 -39 58.5 -89.5t19.5 -110.5q0 -61 -19.5 -112
t-58.5 -92q-39 -42 -85.5 -62t-102.5 -20q-57 0 -104 19.5t-86 60.5q-37 39 -56.5 91t-19.5 115q0 64 22 116.5t66 93.5q39 36 84.5 53t99.5 17zM508 710q-36 0 -65.5 -13.5t-50.5 -40.5q-28 -34 -42 -83t-14 -115t14.5 -117t43.5 -87q21 -27 49.5 -40.5t64.5 -13.5
q39 0 70.5 15t55.5 45q25 30 37.5 76.5t12.5 111.5q0 69 -13.5 121t-40.5 87q-22 27 -52.5 40.5t-69.5 13.5z" />
    <glyph glyph-name="quotedbl" unicode="&#x22;" 
d="M12 -56q-7 3 -8.5 6t-1.5 18l-2 10l40 20l140 142v10q0 7 -2 12.5t-14 25.5q-7 10 -12.5 20.5t-5.5 13.5q-1 6 -4 33t-2 27q0 1 4 1.5t10 2.5q9 0 10.5 -0.5t3.5 -3.5v-11.5v-22.5q0 -27 2 -32.5t14 -5.5q7 0 14 2.5t28 13.5l30 16l78 78q33 33 62 63t38 39l24 22v20
l-216 214l-214 216l-8 24q-7 25 -8 30.5t2 5.5q1 0 10 -2.5t20 -5.5l26 -8l94 -94q20 -19 47 -46t56.5 -56t58.5 -58l54 -54q96 -96 111.5 -109.5t26.5 -10.5q3 0 33.5 30t90.5 90l54 54q30 29 59.5 58t56.5 56l46 46l96 94l26 8q10 3 18 5.5t10 2.5q4 0 4 -5t-8 -31l-8 -24
l-430 -430v-18l202 -204l30 -16q19 -10 25.5 -13t14.5 -3q12 0 14 5.5t2 32.5q0 12 1 22t1 12q1 3 3 3.5t11 0.5q4 -1 8 -1.5t6 -2.5l-2 -23.5t-4 -34.5q0 -3 -7.5 -17.5t-24.5 -40.5q-1 -3 -2.5 -6.5t-1.5 -9.5v-10l142 -142l38 -20v-10q0 -15 -1.5 -18t-12.5 -6
q-4 0 -9 -1t-7 -1q-1 1 -4.5 6t-9.5 16l-10 20l-66 66q-28 28 -49.5 49t-24.5 23q-3 1 -5.5 2t-8.5 0q-6 0 -11.5 -2.5t-20.5 -13.5q-24 -15 -30 -17.5t-20 -4.5q-7 0 -16.5 -1t-15.5 -3q-9 -1 -11.5 -0.5t-4.5 2.5q-3 3 -3 11t1 11q1 1 5.5 2.5t28.5 1.5t28.5 0.5t7.5 3.5
q3 1 3.5 4t0.5 8q0 6 -2 12.5t-10 21.5q-4 10 -9.5 19.5t-8.5 14.5q-3 4 -32 34t-74 74l-100 98h-10l-8 -2l-48 -44q-19 -19 -48 -49t-52 -51l-54 -54l-16 -32q-6 -12 -11 -22.5t-5 -13.5q-1 -6 0 -12t6 -8q1 0 10.5 -1t23.5 -1h22h12q1 -1 1 -13t-3 -15q-1 -1 -6.5 -0.5
t-19.5 0.5q-28 3 -37 6t-33 18q-19 12 -25.5 15t-12.5 3q-4 0 -7.5 -1.5t-6.5 -4.5q-1 -1 -23 -21t-49 -47l-66 -66l-20 -40h-6h-8h-8z" />
    <glyph glyph-name="numbersign" unicode="#" 
d="M628 518q0 30 -7.5 54t-22.5 42q-15 16 -36 25t-48 9q-18 0 -36 -4t-36 -12q-16 -9 -32 -21t-30 -29q-13 -15 -25 -34.5t-21 -43.5t-12.5 -49.5t-3.5 -52.5q0 -31 7.5 -56.5t22.5 -43.5q15 -16 36 -25t50 -9q27 0 52 9t48 29q22 19 40 42t30 52q12 28 18 58t6 60z
M950 448q0 -31 -4.5 -59.5t-15.5 -52.5q-10 -25 -24.5 -44.5t-31.5 -33.5q-18 -13 -37 -23.5t-39 -18.5q-19 -7 -40 -11.5t-42 -4.5h-4t-6 -2q-3 -1 -4.5 -2.5t-3.5 -1.5q-28 0 -48 7.5t-34 22.5q-7 10 -11.5 21.5t-6.5 26.5q-15 -19 -34 -34.5t-42 -27.5
q-22 -13 -47.5 -19.5t-52.5 -6.5q-45 0 -80.5 13.5t-61.5 40.5q-25 27 -37.5 65.5t-12.5 88.5q0 45 9 86.5t29 79.5q18 37 43.5 68t58.5 52q31 22 66.5 33t73.5 11q25 0 46.5 -4.5t41.5 -15.5q19 -9 34.5 -23.5t27.5 -32.5v10l6 32q1 1 1.5 3.5t2.5 4.5q1 1 2.5 1.5t3.5 0.5
h66q1 0 3.5 -1.5t4.5 -4.5q1 -1 1.5 -3t0.5 -5l-68 -352q-1 -6 -2.5 -13t-1.5 -13q0 -12 1.5 -19.5t6.5 -10.5q3 -4 9 -6t17 -2q7 0 15 1t17 3q7 0 17.5 3.5t24.5 8.5q12 6 22.5 13.5t21.5 16.5q9 9 16.5 21t15.5 29q7 18 10.5 37.5t3.5 40.5q0 84 -25 150.5t-75 117.5
q-49 49 -115.5 73.5t-150.5 24.5q-37 0 -72 -7t-70 -21q-34 -15 -63 -34.5t-53 -43.5q-25 -25 -44.5 -54t-33.5 -64q-15 -33 -22.5 -68.5t-7.5 -73.5q0 -36 7.5 -71.5t22.5 -70.5q13 -33 32.5 -62.5t45.5 -53.5q24 -24 52.5 -43.5t63.5 -34.5q34 -15 69 -21.5t73 -6.5
q64 0 122.5 20t109.5 62q3 1 6 2.5t8 1.5q3 0 6 -1.5t6 -4.5l22 -28q3 -4 3.5 -7.5t0.5 -6.5q0 -4 -1.5 -7.5t-4.5 -6.5q-30 -22 -62 -41t-68 -31q-36 -13 -73 -19.5t-75 -6.5q-45 0 -87 8.5t-83 25.5q-40 18 -75.5 41.5t-64.5 52.5q-30 30 -53 64.5t-41 75.5q-18 40 -26 83
t-8 87q0 45 8 88t26 84q18 40 41 75t53 65q28 28 63.5 51.5t76.5 40.5q40 18 82.5 27t87.5 9q49 0 94 -8q44 -7 83.5 -22t74.5 -38t66 -54q30 -30 52 -65q23 -35 38 -74.5t22 -84.5q8 -44 8 -94v6z" />
    <glyph glyph-name="dollar" unicode="$" 
d="M506 926q-52 -40 -148 -125q-96 -84 -177.5 -169.5t-119.5 -149.5q-37 -64 29 -64h122v-428h600v428h134q68 0 29 64q-40 64 -126 149.5t-187 169.5t-156 125zM522 644q25 0 49.5 -3t50.5 -9q25 -6 47 -13.5t39 -16.5v-100h-4q-18 13 -40 24t-48 20q-25 9 -50.5 13.5
t-51.5 4.5q-25 0 -46.5 -4.5t-39.5 -15.5q-18 -9 -27 -23.5t-9 -34.5q0 -18 5.5 -30.5t16.5 -21.5q10 -9 27 -16t41 -12q13 -3 27 -6t31 -6q16 -3 29.5 -6t24.5 -6q33 -7 57.5 -19.5t42.5 -30.5q18 -19 27 -43.5t9 -54.5q0 -39 -16 -70.5t-48 -55.5q-31 -24 -73.5 -37
t-98.5 -13q-31 0 -59 4t-55 12q-25 7 -46.5 15t-39.5 17v106h4q22 -18 47.5 -30.5t52.5 -23.5q27 -10 52.5 -15t51.5 -5q31 0 55.5 4.5t42.5 15.5q16 10 25 25.5t9 38.5q0 16 -4.5 28.5t-13.5 21.5q-10 7 -28.5 14.5t-45.5 13.5q-10 3 -22.5 5t-29.5 5q-16 3 -31 6t-27 8
q-37 9 -63 23.5t-43 32.5q-15 19 -22.5 42t-7.5 52q0 16 4 32.5t10 31.5q7 15 18 28.5t26 25.5q13 12 31 21t39 17q22 7 46.5 10.5t51.5 3.5z" />
    <glyph glyph-name="percent" unicode="%" 
d="M506 926q-52 -40 -148 -120q-96 -79 -177.5 -158.5t-119.5 -138.5q-37 -59 29 -59h122v-460h600v460q28 -7 81 -3.5l53 3.5q68 0 29 59q-40 59 -126 138.5t-187 158.5t-156 120zM514 546q76 0 141 -6t77 -18q12 -11 18 -76t6 -141t-6 -142q-6 -65 -18 -77
q-11 -11 -77 -17q-65 -5 -141 -5t-141 5q-66 6 -77 17q-11 12 -17 77q-5 66 -5 142t5 141q6 65 17 76q12 12 76.5 18t141.5 6zM406 498q-22 0 -38 -15.5t-16 -38.5q0 -24 15.5 -40t38.5 -16q24 0 40 16t16 40q0 22 -16 38t-40 16zM624 498q-22 0 -39 -15.5t-17 -38.5
q0 -24 16.5 -40t39.5 -16q22 0 39 16t17 40q0 22 -16.5 38t-39.5 16zM404 358q-22 0 -38 -15.5t-16 -38.5q0 -22 15.5 -39t38.5 -17q22 0 39 16.5t17 39.5q0 22 -16.5 38t-39.5 16zM622 358q-22 0 -39 -15.5t-17 -38.5q0 -22 16.5 -39t39.5 -17q22 0 38 16.5t16 39.5
q0 22 -15.5 38t-38.5 16zM406 218q-24 0 -40 -15.5t-16 -38.5q0 -22 16 -39t40 -17q22 0 38 16.5t16 39.5q0 22 -15.5 38t-38.5 16zM622 218q-22 0 -38 -15.5t-16 -38.5q0 -22 15.5 -39t38.5 -17q22 0 39 16.5t17 39.5q0 22 -16.5 38t-39.5 16z" />
    <glyph glyph-name="ampersand" unicode="&#x26;" 
d="M506 926q-52 -40 -148 -128t-177.5 -177.5t-119.5 -156.5q-37 -68 29 -68h122v-406h600v406h134q68 0 29 68q-40 67 -126 156.5t-187 177.5q-101 87 -156 128zM484 744q12 0 14 -24l2 -24q61 -5 108 -30q48 -25 80 -77.5t47 -136.5q16 -84 13 -206h-356q0 99 66.5 125
t59.5 163q-18 -28 -54.5 -57t-57.5 -43q-34 -24 -43 -45.5t-35 -18.5q-12 12 2 30t-2 18q-10 0 -5.5 -11.5t-8.5 -20.5q-12 0 -37 1.5t-25 60.5q0 12 14 43q15 30 32 62t32 56l14 25l15 18t17 38q-9 10 -8.5 22t0.5 24q12 12 29 -14l17 -26h32l9 18t29 30zM406 634l-20 -14
l-18 -10q3 -6 8.5 -8.5t11.5 -1.5q6 0 10.5 3t7.5 9q3 4 3 10t-3 12zM352 244h368v-44h-6l56 -54v-102h-82v40h-102v-40h-100v40h-102v-40h-82v102l56 54h-6v44z" />
    <glyph glyph-name="quotesingle" unicode="'" 
d="M404 752q-45 -35 -128 -113t-153 -157.5t-102 -139.5t25 -60h104v-338h518v338h116q59 0 25 60t-108 139.5t-161 157.5q-88 78 -136 113zM386 594q10 0 12 -20l2 -20q52 -5 93 -27t68.5 -67.5t41.5 -117.5q13 -72 11 -178h-308q0 85 58 108t52 142q-16 -25 -47 -50.5
t-51 -37.5q-30 -19 -36.5 -38t-29.5 -16q-10 9 1.5 24.5t-1.5 15.5q-10 0 -6 -9t-8 -17q-9 0 -31.5 1.5t-22.5 52.5q0 10 13 36t28 53.5t28 49.5l13 21l12 15.5t14 30.5q-7 10 -6.5 20.5t0.5 21.5q9 9 24.5 -12.5l15.5 -21.5h26l8 14.5t26 25.5zM318 498l-32 -20
q1 -4 6 -6.5t10 -1.5q4 0 9 2.5t7 7.5q3 4 3 9.5t-3 8.5zM272 162h316v-38h-4l48 -46v-88h-70v34h-88v-34h-88v34h-86v-34h-70v88l46 46h-4v38zM820 952q-63 0 -118 -4.5t-64 -15.5q-10 -10 -15 -64q-4 -55 -4 -118t4 -118q5 -54 15 -64t64 -15q55 -4 118 -4t118 4
q54 5 64 15t15 64q4 55 4 118t-4 118q-5 54 -15 64t-64.5 15t-117.5 5zM730 912q19 0 32.5 -13t13.5 -33q0 -18 -13 -32t-33 -14q-19 0 -32.5 14t-13.5 32q0 19 13 32.5t33 13.5zM912 912q18 0 32 -13t14 -33q0 -18 -14 -32t-32 -14q-19 0 -32.5 14t-13.5 32q0 19 13 32.5
t33 13.5zM728 796q19 0 32.5 -13t13.5 -33q0 -19 -13 -32.5t-33 -13.5q-19 0 -32.5 13t-13.5 33q0 19 13 32.5t33 13.5zM910 796q9 0 17.5 -4t14.5 -10t10 -14.5t4 -17.5q0 -19 -14 -32.5t-32 -13.5q-19 0 -32.5 13t-13.5 33q0 19 13 32.5t33 13.5zM728 680q19 0 32.5 -14
t13.5 -32q0 -19 -13 -32.5t-33 -13.5q-18 0 -32 13t-14 33q0 18 14 32t32 14zM910 680q19 0 32.5 -14t13.5 -32q0 -19 -13 -32.5t-33 -13.5q-19 0 -32.5 13t-13.5 33q0 18 13 32t33 14z" />
    <glyph glyph-name="parenleft" unicode="(" 
d="M508 908l-112 -110l-156 22l-26 -154l-138 -74l68 -140l-68 -142l138 -72l28 -156l154 24l114 -110l112 110l156 -22l26 154l138 74l-68 140l68 142l-138 72l-28 156l-156 -24zM508 782q68 0 128 -26t105 -71t71 -105t26 -128t-26 -128t-71 -105t-105 -71t-128 -26
t-128 26t-104.5 71t-69.5 105q-26 60 -26 128t26 128q25 60 69.5 105t104.5 71t128 26z" />
    <glyph glyph-name="parenright" unicode=")" 
d="M512 924l-322 -112l-88 -840h820l-88 840zM484 668h52q12 -3 12 -7.5t-10 -12.5v-46h234v-44h-518v44h230v66zM332 512h358v-182h-46v14h-102v-174q0 -18 -9 -28t-29 -10h-60l-10 52h52q4 0 7 2.5t3 7.5v150h-118v-22h-46v190zM378 468v-80h266v80h-266zM392 308l42 -40
q4 -6 0.5 -7.5t-14.5 -0.5q-27 -31 -61.5 -58t-78.5 -50l-28 54q43 21 78.5 46.5t61.5 55.5zM628 308q24 -33 58.5 -57t81.5 -41l-30 -52q-48 18 -86.5 47.5t-67.5 70.5z" />
    <glyph glyph-name="asterisk" unicode="*" 
d="M512 926q-55 -40 -154 -124t-182 -168.5t-121 -147.5q-37 -64 31 -64h118v-432h616v432h122q66 2 27 66t-123 148t-183 167q-98 82 -151 123zM512 610l68 -64l92 12l16 -92l82 -42l-40 -84l42 -84l-84 -44l-16 -92l-92 12l-66 -64l-68 64l-92 -14l-16 92l-82 44l40 84
l-42 84l82 44l16 92l94 -12zM512 534q-40 0 -76 -15t-62.5 -41.5t-42.5 -62.5q-15 -36 -15 -77q0 -40 15 -76q16 -36 42.5 -62.5t62.5 -42.5q35 -15 76 -15t77 15q36 16 62.5 42.5t41.5 62.5q15 35 15 76t-15 77t-41.5 62.5t-62.5 41.5t-77 15z" />
    <glyph glyph-name="plus" unicode="+" 
d="M512 926q-55 -40 -154 -124t-182 -168.5t-121 -147.5q-37 -64 31 -64h118v-432h616v432h122q66 2 27 66t-123 148t-183 167q-98 82 -151 123zM632 560q27 0 45.5 -19.5t18.5 -46.5t-18.5 -45.5t-45.5 -18.5t-45.5 18.5t-18.5 45.5t18.5 46.5t45.5 19.5zM408 488
q25 0 44.5 -18.5t19.5 -45.5t-19 -46.5t-45 -19.5q-27 0 -45.5 19.5t-18.5 46.5t18.5 45.5t45.5 18.5zM742 270l-34 -58q-12 -24 -36 -50.5t-92 0.5l-78 34q-102 42 -103 -18t-121 24l32 -7.5t52 -6.5q27 1 42.5 26t41.5 28q49 4 93.5 -37.5t92.5 -34.5q36 6 73 53z" />
    <glyph glyph-name="comma" unicode="," 
d="M310 832q-25 -15 -37.5 -36.5l-12.5 -21.5h-38l-22 31.5t-36 16.5q0 -13 -1 -28t11 -30q-3 -24 -21.5 -46l-18.5 -22l-18 -31q-19 -31 -41 -71.5t-41 -78.5q-18 -39 -18 -53q0 -73 32 -75.5t46 -2.5q18 10 11.5 24t8.5 14q21 0 3 -22t-3 -36q33 -6 43.5 21t54.5 57
q27 18 72.5 54t69.5 74q4 -86 -20 -131q-25 -44 -56.5 -75t-58.5 -63q-27 -31 -27 -93h450q3 117 -8 205q-11 89 -34.5 153t-58.5 106t-81 66q-18 10 -36 16.5t-36 9.5v0q-13 3 -28 5.5t-30 4.5l-2.5 29t-17.5 29zM210 694q4 -6 4.5 -13t-2.5 -15q-4 -6 -10 -10t-14 -6
q-7 0 -14 4t-10 10l24 14zM154 202v-54h6l-70 -68v-128h102v52h128v-52h128v52h128v-52h102v128l-70 68h8v54h-462zM816 952q-63 0 -117 -4.5t-65 -13.5q-10 -10 -15 -64q-4 -55 -4 -119t4 -118q5 -55 15 -65q10 -9 64 -13q55 -5 118 -5t118 4q54 5 64 14q10 10 15 64
q4 55 4 119t-4 118q-5 55 -15 65q-9 9 -63 13.5t-119 4.5zM726 912q19 0 32.5 -13t13.5 -33q0 -18 -13 -32t-33 -14q-18 0 -32 14t-14 32q0 19 14 32.5t32 13.5zM908 912q19 0 32.5 -13t13.5 -33q0 -18 -13 -32t-33 -14q-19 0 -32.5 14t-13.5 32q0 19 13 32.5t33 13.5z
M724 796q19 0 32.5 -13t13.5 -33q0 -19 -13 -32.5t-33 -13.5q-18 0 -32 13t-14 33q0 19 14 32.5t32 13.5zM906 796q9 0 17.5 -3t14.5 -11q7 -6 10.5 -14.5t3.5 -17.5q0 -19 -13 -32.5t-33 -13.5q-19 0 -32.5 13t-13.5 33q0 19 13 32.5t33 13.5zM726 680q18 0 32 -13t14 -33
q0 -19 -14 -32.5t-32 -13.5q-19 0 -32.5 13t-13.5 33q0 19 13 32.5t33 13.5zM906 680q19 0 32.5 -13t13.5 -33q0 -19 -13 -32.5t-33 -13.5q-18 0 -32 13t-14 33q0 19 14 32.5t32 13.5z" />
    <glyph glyph-name="hyphen" unicode="-" 
d="M512 844q-33 0 -50.5 -22t-25.5 -58q-73 -1 -147 -13t-132.5 -40.5t-95.5 -76.5q-37 -49 -37 -124q0 -76 43.5 -127.5t130.5 -132.5v-114q74 -42 150 -63q75 -21 151.5 -21t153.5 21t155 63l2 112q29 28 63 57q33 28 61.5 59.5t46.5 68.5q19 37 19 83q0 66 -37 109.5
t-87 72.5q-58 33 -133.5 46t-152.5 18q-7 37 -28 59.5t-50 22.5zM512 822q13 0 29 -11.5t21 -46.5h-100q4 33 19.5 45.5t30.5 12.5zM482 734h19.5h18.5q43 -1 87 -4q45 -3 88.5 -9.5t83.5 -18.5q40 -11 75 -30q45 -24 80.5 -63t35.5 -99q0 -40 -19 -74q-20 -33 -48.5 -58.5
t-60.5 -42.5t-58 -25q-79 25 -147 38q-69 12 -135.5 11.5t-134.5 -13.5t-145 -38q-22 6 -52 24q-29 19 -54.5 45.5t-43.5 59.5q-18 32 -18 67q0 73 40 118t102 70t138 33q76 9 148 9zM488 702q-63 0 -131 -7t-123.5 -26.5t-90.5 -55.5q-35 -35 -31 -93q3 -57 30.5 -92.5
t87.5 -65.5q65 25 134 38t139 13t140 -13q69 -12 137 -38q55 19 99.5 58t44.5 102q0 48 -35.5 80t-76.5 52q-60 28 -138 36.5t-152 11.5h-16h-18zM516 296q61 0 123 -12t127 -38v-92q-63 24 -127 37q-63 13 -128.5 14t-133.5 -12q-68 -12 -139 -39v92q69 24 138 37t140 13z
" />
    <glyph glyph-name="period" unicode="." 
d="M950 594q16 0 28.5 -5t23.5 -17q10 -10 16 -22.5t6 -27.5q0 -16 -5.5 -28.5t-16.5 -23.5q-10 -10 -22.5 -16t-29.5 -6v-220q0 -15 -4.5 -27t-15.5 -23q-12 -12 -24.5 -17t-27.5 -5q-60 49 -119 88q-59 38 -117 65t-115 43q-57 15 -113 20q-16 -4 -29.5 -14t-22.5 -24
q-9 -13 -13.5 -27t-4.5 -29t5.5 -28.5t16.5 -25.5l-8 -18t-4 -18q-1 -10 0 -18t4 -16q1 -7 5.5 -15t12.5 -17q7 -7 13.5 -14.5t14.5 -13.5q6 -6 14.5 -13t19.5 -15q-7 -16 -23 -28t-39 -20q-24 -7 -48 -8.5t-50 2.5q-24 3 -43 10.5t-31 19.5q-3 7 -6.5 19.5t-11.5 30.5
q-6 19 -10.5 32.5t-7.5 21.5q-3 9 -6 22t-6 30q-4 16 -6 31t-4 27v25.5t2 30.5q1 16 4.5 31.5t9.5 30.5h-70q-19 0 -35.5 7t-30.5 21q-13 13 -19.5 29.5t-6.5 34.5v110q0 19 6 34.5t20 29.5q13 13 29.5 20.5t36.5 7.5h274q62 0 125 14q63 13 127 40t129 68t131 96
q15 0 27.5 -4.5t24.5 -15.5q10 -12 15 -24.5t5 -27.5v-220zM878 250v544q-56 -43 -112 -76q-55 -34 -110 -58.5t-110 -40.5q-54 -15 -108 -21v-154q54 -6 108 -21q55 -15 110 -39t110 -58q56 -33 112 -76z" />
    <glyph glyph-name="slash" unicode="/" 
d="M914 252q0 -7 -1.5 -17.5t-4.5 -22.5q-3 -13 -6 -22.5t-6 -17.5q-6 -15 -23 -30t-47 -30q-25 -15 -52 -22.5t-54 -7.5h-14.5t-15.5 2q-7 1 -15 3t-17 5q-9 1 -16 3.5t-12 4.5q-4 1 -12 4t-20 8q-10 4 -17.5 6t-10.5 4q-27 10 -52 21.5t-48 26.5q-36 22 -73.5 52.5
t-76.5 69.5t-70 76.5t-54 75.5q-13 21 -25 46t-21 54q-1 1 -4 8.5t-8 19.5q-3 10 -5.5 18.5t-4.5 13.5q-1 4 -4 10.5t-6 15.5q-1 9 -2.5 17.5t-3.5 16.5q-1 6 -1.5 13.5t-0.5 16.5q0 25 7 52t21 54q16 28 31.5 46t30.5 24q6 3 16 6t22 6q13 1 22.5 2.5t17.5 1.5h7h5
q6 -3 13.5 -13.5t18.5 -30.5q3 -6 7 -13.5t9 -18.5q6 -9 10.5 -18t9.5 -18q4 -7 8.5 -14.5t9.5 -15.5q1 -1 3 -4.5t7 -9.5q4 -6 7 -11.5t5 -8.5q1 -4 2.5 -8.5t1.5 -7.5q0 -6 -4 -13.5t-12 -16.5q-7 -7 -16 -15.5t-20 -14.5q-9 -7 -17.5 -15t-16.5 -17q-9 -7 -13.5 -13.5
t-4.5 -12.5q0 -1 1 -5t3 -7q1 -4 2.5 -7t1.5 -5q1 -1 3 -5t5 -9q3 -4 4.5 -7t3.5 -3q21 -39 46 -73t52 -61q28 -28 61.5 -53.5t72.5 -46.5q1 0 4 -1.5t8 -4.5q4 -3 7.5 -5.5t6.5 -2.5q1 -1 4 -2.5t8 -3.5q3 -1 6 -1.5t6 -0.5q4 0 11 3.5t15 12.5q7 7 15.5 16t14.5 20
q7 9 15 17.5t17 16.5q9 9 15.5 12.5t12.5 3.5q4 0 8.5 -0.5t7.5 -3.5q4 -1 10 -4t12 -8q6 -3 9 -5.5t5 -4.5q6 -4 14 -8.5t16 -9.5q7 -4 16 -9t20 -11q10 -4 18 -8.5t14 -7.5q19 -10 29.5 -17.5t12.5 -12.5q1 -3 1.5 -6t0.5 -6z" />
    <glyph glyph-name="zero" unicode="0" 
d="M694 466q0 4 -0.5 7.5t-3.5 6.5l-202 200q-1 3 -5 4.5t-7 1.5q-4 0 -7.5 -1.5t-6.5 -4.5l-200 -200q-3 -3 -4.5 -7t-1.5 -7q0 -4 1.5 -7t4.5 -5q1 -3 4 -4.5t8 -1.5h128v-202q0 -3 1.5 -6t4.5 -6t6 -4.5t6 -1.5h110q4 0 7.5 1.5t6.5 4.5q1 3 2.5 6t1.5 6v202h128
q4 0 7.5 1.5t6.5 4.5t3.5 6t0.5 6zM1060 302q0 -45 -15.5 -84t-48.5 -72q-31 -31 -70 -47.5t-84 -16.5h-622q-54 0 -99 19t-83 57q-37 37 -55.5 82t-18.5 98q0 37 9.5 71.5t30.5 66.5q19 31 46 54t60 40v15v9q0 61 21 112.5t65 95.5q42 42 94 63t112 21q45 0 85.5 -12
t78.5 -36q36 -25 63 -58t45 -74q19 16 43 25t51 9q30 0 55.5 -10.5t48.5 -31.5q21 -21 31.5 -47.5t10.5 -56.5q0 -21 -6 -40.5t-18 -37.5q37 -9 68 -28.5t54 -49.5q24 -30 36 -64t12 -72z" />
    <glyph glyph-name="one" unicode="1" 
d="M280 82l52 52l-134 134l-52 -52v-60h74v-74h60zM580 612q0 6 -3 10t-11 4q-1 0 -3.5 -1t-4.5 -3l-310 -310q-3 -3 -3.5 -5t-0.5 -5q0 -6 3 -9t9 -3q3 0 5.5 0.5t4.5 3.5l310 308q1 3 2.5 5t1.5 5zM548 722l238 -238l-476 -474h-236v236zM938 668q0 -15 -4.5 -28
t-15.5 -24l-96 -94l-236 236l94 96q10 10 22.5 15t29.5 5q15 0 27.5 -4.5t24.5 -15.5l134 -134q10 -12 15 -24.5t5 -27.5z" />
    <glyph glyph-name="two" unicode="2" 
d="M242 464l-170 -136l70 -14l150 126q109 1 195 20q87 18 147 39.5t92 38.5l32 18l-102 88l29 2t67 2.5t75 -1.5q38 -3 55 -11q16 8 37 27q20 19 40.5 55t38.5 92q17 56 26 138q-197 28 -327 -6q-129 -34 -214.5 -106.5t-139.5 -171.5t-101 -200zM318 494l-4 2q19 19 79 77
q59 57 146 123t195 126q107 60 220 84q-62 -22 -158 -80q-96 -59 -192 -125t-176 -125t-110 -82zM380 198h-64q0 27 -19 45.5t-45 18.5h-64q-27 0 -45.5 -18.5t-18.5 -45.5h-64q-27 0 -45.5 -18.5t-18.5 -45.5v-128q0 -25 18.5 -44.5t45.5 -19.5h320q25 0 44.5 19t19.5 45
v128q0 27 -19 45.5t-45 18.5v0z" />
    <glyph glyph-name="three" unicode="3" 
d="M274 380v-206h-138v206h138zM478 652v-478h-136v478h136zM682 516v-342h-136v342h136zM888 722v-548h-138v548h138zM956 124v648q0 3 -1.5 6t-4.5 6q-1 3 -4 4.5t-8 1.5h-852q-4 0 -7 -1.5t-5 -4.5q-3 -3 -4.5 -6t-1.5 -6v-648q0 -3 1.5 -6t4.5 -6q1 -3 4 -4.5t8 -1.5
h852q4 0 7 1.5t5 4.5q3 3 4.5 6t1.5 6zM1024 772v-648q0 -18 -6 -33t-20 -27q-12 -13 -27 -19.5t-33 -6.5h-852q-18 0 -33 6t-27 20q-13 12 -19.5 27t-6.5 33v648q0 18 6 33t20 27q12 13 27 19.5t33 6.5h852q18 0 33 -6t27 -20q13 -12 19.5 -27t6.5 -33z" />
    <glyph glyph-name="four" unicode="4" 
d="M842 558v-74q0 -63 -21 -117.5t-65 -102.5q-42 -46 -93.5 -73t-114.5 -33v-76h146q7 0 14 -2.5t12 -7.5q6 -6 9 -12t3 -14q0 -7 -3 -13.5t-9 -12.5q-4 -6 -11 -8t-15 -2h-364q-7 0 -14 2t-12 8q-6 6 -9 12t-3 14q0 7 3 13.5t9 12.5q4 4 11 7t15 3h146v76
q-63 6 -114.5 32.5t-93.5 73.5q-43 48 -64.5 102.5t-21.5 117.5v74q0 7 3 13.5t9 12.5q4 4 11 7t15 3q7 0 13.5 -2.5t12.5 -7.5q4 -6 7 -12t3 -14v-74q0 -52 19 -97t57 -83q37 -37 82 -56.5t98 -19.5q52 0 97 19t83 57q37 37 56.5 82t19.5 98v74q0 7 2.5 13.5t7.5 12.5
q6 4 12 7t14 3q7 0 14 -2.5t12 -7.5q6 -6 9 -12t3 -14zM694 778v-294q0 -37 -13 -69t-39 -59q-27 -27 -59.5 -40.5t-70.5 -13.5q-37 0 -70 13.5t-60 40.5q-25 27 -38.5 58.5t-13.5 69.5v294q0 37 13 69t39 59q27 27 59.5 40.5t70.5 13.5q37 0 70 -13.5t60 -40.5
q25 -27 38.5 -58.5t13.5 -69.5z" />
    <glyph glyph-name="five" unicode="5" 
d="M820 64h-680q-4 0 -8 -3.5t-4 -8.5v-104q0 -4 3.5 -8t8.5 -4h680q4 0 8 3.5t4 8.5v104q0 4 -3.5 8t-8.5 4zM960 736q0 40 -28.5 68t-67.5 28t-67.5 -27.5t-28.5 -68.5q0 -24 11 -44t29 -34l-168 -338l-112 334q21 12 34.5 33.5t13.5 48.5q0 40 -28.5 68t-67.5 28
t-67.5 -27.5t-28.5 -68.5q0 -27 13.5 -48.5t34.5 -33.5l-112 -334l-168 338q18 13 29 33.5t11 44.5q0 40 -28.5 68t-67.5 28t-67.5 -27.5t-28.5 -68.5q0 -33 20 -58.5t50 -33.5l58 -516h704l58 516q30 7 50 33t20 59v0z" />
    <glyph glyph-name="six" unicode="6" 
d="M512 924l-322 -112l-88 -840h820l-88 840zM378 716h312v-74h-250l-34 -168q28 19 58 29.5t60 10.5q42 0 76.5 -14.5t63.5 -43.5q27 -27 41.5 -64t14.5 -82q0 -42 -13 -78t-37 -68q-30 -37 -70.5 -56.5t-93.5 -19.5q-43 0 -78 12t-62 36t-42 55.5t-20 70.5l82 8
q4 -30 14.5 -52.5t25.5 -37.5q16 -13 36 -20.5t44 -7.5q27 0 50.5 10.5t43.5 31.5q19 21 28.5 48t9.5 62q0 33 -9 58.5t-29 45.5q-18 19 -42 28.5t-54 9.5q-18 0 -34.5 -4.5t-31.5 -13.5q-15 -7 -27 -17.5t-21 -24.5l-72 8z" />
    <glyph glyph-name="seven" unicode="7" 
d="M434 888h8q48 -3 91 -16t79 -36l-8 -72v-616q0 -58 -18 -93t-56 -47h-14q-52 6 -78 24.5t-26 51.5v6q0 3 10.5 14t33.5 32v674q0 10 -5 29.5t-17 48.5zM204 564h8q63 -16 94.5 -40t31.5 -56v-14q0 -25 -19 -55t-57 -63.5t-95 -71.5t-133 -80q43 53 76 102t56 93t37 83
q13 39 17 74q-7 -1 -11.5 2.5t-4.5 9.5v16zM738 568q63 -22 110 -48t78.5 -56.5t47.5 -64.5q16 -35 16 -73q-9 -61 -20.5 -91.5t-23.5 -30.5q-42 -3 -72 37t-48 123q0 24 -24 73.5t-72 124.5q4 0 6 1.5t2 4.5z" />
    <glyph glyph-name="eight" unicode="8" 
d="M722 894h-2.5h-3.5q-1 -1 -3 -1.5t-5 -2.5q-4 -3 -10 -7t-14 -9q-13 -10 -31.5 -23.5t-38.5 -28.5q-21 -16 -40 -29.5t-34 -24.5q-7 -6 -13 -9.5t-11 -6.5q-1 -1 -3.5 -2.5l-2.5 -1.5l-2.5 0.5t-7.5 3.5q-4 1 -8.5 4t-9.5 6q-13 10 -42.5 29t-59.5 39q-16 10 -30.5 19
t-25.5 15q-6 4 -11.5 6.5t-8.5 5.5q-1 0 -2.5 1t-3.5 1q-1 1 -2.5 1.5t-7.5 0.5q-3 0 -5.5 -1t-4.5 -3q-1 -3 -1.5 -3.5t-0.5 -2.5q-1 -1 -1.5 -3t-0.5 -5v-8.5t-2 -11.5v-28t2 -36q1 -19 1.5 -34t0.5 -26q-1 -10 -2.5 -15t-1.5 -7h-1.5h-0.5q0 -1 -1.5 -1t-4.5 1
q-4 0 -13 3.5t-21 8.5q-13 7 -35.5 14t-46.5 12q-24 4 -45.5 7.5t-36.5 2.5h-5t-5 -2q-1 -1 -3.5 -3t-4.5 -5q-1 -6 0.5 -10.5t3.5 -7.5q3 -7 9 -15.5t17 -22.5q21 -25 38.5 -50t29.5 -46q13 -21 20.5 -38.5t9.5 -29.5q3 -13 -2 -33t-16 -43q-12 -21 -29.5 -42.5
t-38.5 -41.5l-66 -56l68 -22q19 -6 41 -14.5t39 -17.5q9 -4 16 -8.5t12 -7.5q1 0 2.5 -1l1.5 -1v-2.5v-1.5q-1 -4 -3 -10t-5 -14q-4 -13 -11 -31.5t-13 -38.5q-7 -21 -14 -39t-12 -33q-3 -6 -4.5 -11.5t-3.5 -10.5q0 -3 -1 -4.5t-1 -3.5q0 -1 -1 -2t-1 -4v-2.5v-3.5
q1 -1 2 -4.5t4 -5.5q4 -3 7 -3t5 1h4.5h3.5q9 3 24 9.5t42 20.5q27 12 62 25.5t56 18.5q22 6 62 9q40 4 86 4.5t91 -1.5q46 -3 79 -8q25 -4 52.5 -10.5t51.5 -15.5q24 -7 42.5 -15t23.5 -13q3 -1 6 -2.5t8 -3.5q1 0 4 -0.5t6 2.5q4 1 6 5t2 7q0 4 -1 7.5t-1 6.5q-1 4 -3 10
t-5 12q-3 12 -8.5 26.5t-11.5 31.5q-6 15 -11.5 30.5t-10.5 27.5q-6 12 -9.5 21t-8.5 15q-1 3 -3.5 7t-2.5 7v1v1v0l2 2q3 1 7.5 4t10.5 6q10 6 24 12t28 14q15 7 29 13.5t25 12.5q6 1 10.5 3.5t9.5 4.5q1 0 2.5 1t3.5 1h0.5t-0.5 0q3 0 6 0.5t6 3.5q3 1 4.5 4t1.5 6
q1 6 0 11t-4 11q-4 10 -13.5 25t-24.5 35q-15 19 -29 42t-25 46q-6 10 -10.5 20.5t-7.5 19.5q-3 7 -4.5 13t-1.5 9v0v0q0 1 1 3t3 5q1 3 5 8.5t9 11.5q4 6 19.5 23.5t30.5 32.5l94 96h-104q-31 0 -63 -2.5t-49 -7.5q-6 -3 -12.5 -4.5t-11.5 -1.5h-1.5h-2.5v0v0q0 4 -1 9
t-3 11q-1 10 -1.5 24.5t-2.5 31.5q-1 16 -2.5 31t-3.5 27q0 6 -1 10.5t-1 9.5q-1 1 -1.5 3t-0.5 5q0 1 -0.5 2t-3.5 6q-4 3 -7 3t-5 -1zM512 640q47 0 89 -19q41 -19 72 -51.5t49 -75.5t18 -92t-18 -93q-18 -43 -49 -75.5t-72 -50.5q-42 -19 -89 -19t-89 19q-41 18 -72 50.5
t-49 75.5t-18 93q0 49 18 92t49 75.5t72 51.5q42 19 89 19zM436 480q-6 0 -11.5 -1.5t-8.5 -6.5q-4 -4 -6 -9t-2 -11q0 -12 8 -20t20 -8q10 0 19 8t9 20q0 6 -2.5 10.5t-7.5 9.5q-3 4 -8 6t-10 2zM580 480q-4 0 -9.5 -2.5t-10.5 -7.5q-3 -3 -5.5 -8t-2.5 -10q0 -12 8.5 -20
t19.5 -8q12 0 20 8t8 20q0 4 -1.5 9.5t-6.5 8.5q-4 4 -9 7t-11 3zM522 386l-30 -2q0 -15 -0.5 -24.5t-5.5 -15.5q-4 -4 -15 -9.5t-35 -10.5l4 -30q6 0 11.5 1t10.5 3q19 -13 40.5 -16.5t41.5 6.5q9 -4 18 -5.5t18 -0.5l-4 30q-7 -1 -14.5 1.5t-15.5 8.5q-6 4 -12 11.5
t-12 18.5q1 7 1 16t-1 18zM506 320q4 -6 10 -11.5t12 -10.5q-12 -3 -23.5 -1.5t-22.5 7.5q7 3 13 7t11 9z" />
    <glyph glyph-name="nine" unicode="9" 
d="M274 876l-168 -156q4 -4 33 -37t71 -80.5t91 -103.5t93 -107q-60 -18 -97 -68.5t-37 -113.5q0 -79 56 -135.5t136 -56.5q61 0 111.5 36.5t70.5 95.5q45 -21 79 -56.5t79 -71.5l106 -2q10 0 9 24.5t-15 27.5q-15 4 -33.5 9.5t-42.5 10.5q-27 28 -23 23.5t-27 28.5
q37 16 61 49q24 32 28.5 74t-13.5 90q-18 47 -66 91zM276 850l518 -464q21 -28 22 -36.5t4 -25.5l-568 506zM452 338q52 0 90 -37.5t38 -90.5q0 -54 -37.5 -92t-90.5 -38q-54 0 -92 38t-38 92q0 52 38 90t92 38z" />
    <glyph glyph-name="colon" unicode=":" 
d="M512 918q-27 -1 -54 -9.5t-56 -28.5l-32 -76q72 -24 144 -30t144 28l-28 80q-28 16 -58 26t-60 10zM360 780q-6 -10 -6.5 -23.5t14.5 -34.5v-1v-1q70 -18 142.5 -17.5t147.5 17.5v0v2q4 16 9.5 30t2.5 26q-82 -37 -159 -32t-151 34zM660 710q-75 -16 -149 -18.5
t-145 16.5q-6 -36 -5.5 -72t27.5 -74q-52 -12 -74.5 -17.5t-45.5 -20.5q-6 -57 -12.5 -114.5t-11.5 -113.5q28 4 57.5 5.5t58.5 -5.5q7 37 17 74.5t19 75.5q3 24 -9 31.5t-21 18.5l14 20q12 -15 25.5 -27t16.5 -33q-10 -31 -20 -63t-18 -65q3 -3 45 -39.5t77 -38.5
q39 0 85 38.5t49 41.5q-7 33 -17 63.5t-21 62.5q3 21 16.5 33t25.5 27l14 -20q-9 -10 -21 -18t-9 -32q10 -40 21 -80.5t17 -81.5q30 6 60 4.5t60 -6.5q-4 60 -11 120.5t-13 111.5q-10 12 -50.5 22.5t-79.5 21.5q19 30 28.5 69t-0.5 83zM408 670l86 -14q0 -19 2 -47.5
t16 -28.5q13 1 15.5 23t4.5 51l84 14v-16l-68 -10v-8l68 2v-16h-68q-1 -24 -9.5 -41t-26.5 -17q-13 0 -22 13.5t-12 46.5l-72 2l2 16l70 -4v8l-72 8zM380 306q-1 -15 -3.5 -30t-2.5 -32q-4 -28 3 -55.5t13 -56.5q12 22 20 63t26 41h30q-28 16 -53 39t-33 31zM644 304
l-27.5 -24.5t-60.5 -41.5h36q13 1 22 -40.5t20 -65.5q7 28 13.5 55.5t2.5 56.5q0 16 -1.5 31t-4.5 29zM314 282q-19 0 -37 -1.5t-35 -6.5q-6 -61 -5 -116.5t13 -99.5q-15 -15 -23.5 -30.5t9.5 -33.5q67 -7 135 -10q67 -4 136 -5t139 1q69 3 140 8q21 19 10.5 38.5
t-22.5 39.5q13 19 14.5 73.5t-2.5 122.5q-27 4 -57.5 6.5t-60.5 -6.5v-2.5v-3.5q4 -30 3 -64.5t-13 -73.5q9 -19 22.5 -27t31.5 -13l8 -8v-18q-1 1 -4 1.5t-6 2.5v-2l-394 2q-3 -1 -6 -1.5t-6 -2.5v18l8 8q18 4 31.5 12t22.5 28q-12 39 -13 73.5t3 64.5v9.5t2 10.5
q-12 3 -22.5 4.5t-21.5 1.5zM498 220q-16 0 -27 -1l-11 -1q-30 -1 -42.5 -58t-45.5 -80q-4 -4 -7.5 -7t-8.5 -5h298q-21 12 -40 79.5t-42 70.5q-19 1 -39 1.5t-35 0.5zM664 70v0v0h2h-1h-1z" />
    <glyph glyph-name="semicolon" unicode=";" 
d="M988 630v-146q0 -7 -3 -13.5t-9 -12.5q-4 -4 -11 -7t-15 -3h-36q-7 0 -13.5 2.5t-12.5 7.5q-4 6 -7 12t-3 14v146q0 31 -10.5 57t-33.5 47q-21 21 -46.5 32.5t-55.5 11.5t-56.5 -11.5t-47.5 -32.5t-31.5 -46.5t-10.5 -57.5v-108h54q12 0 21 -4t17 -12q9 -9 12.5 -18.5
t3.5 -21.5v-328q0 -12 -3.5 -22t-12.5 -18q-7 -7 -16.5 -11.5t-21.5 -4.5h-548q-12 0 -21.5 4t-18.5 12q-7 7 -11.5 17.5t-4.5 22.5v328q0 12 4 21.5t12 18.5q9 7 18.5 11.5t21.5 4.5h384v108q0 54 18 99t56 83q37 37 82.5 55.5t99.5 18.5q52 0 97 -18t83 -56
q37 -37 56.5 -82.5t19.5 -99.5z" />
    <glyph glyph-name="less" unicode="&#x3c;" 
d="M786 522q12 0 21.5 -4t18.5 -12q7 -9 11.5 -18.5t4.5 -21.5v-328q0 -12 -4 -22t-12 -18q-9 -7 -18.5 -11.5t-21.5 -4.5h-548q-12 0 -21.5 4t-18.5 12q-7 7 -11.5 17.5t-4.5 22.5v328q0 12 4 21.5t12 18.5q9 7 18.5 11.5t21.5 4.5h18v182q0 52 19 97t57 83q37 37 82 56.5
t98 19.5q52 0 97 -19t83 -57q37 -37 56.5 -82t19.5 -98q0 -7 -2.5 -13.5t-7.5 -12.5q-6 -4 -12 -7t-14 -3h-38q-7 0 -13 2.5t-11 7.5q-6 6 -9 12t-3 14q0 30 -10.5 55.5t-31.5 48.5q-22 21 -48 31.5t-56 10.5t-55.5 -10.5t-48.5 -31.5q-21 -22 -31.5 -48t-10.5 -56v-182h420
z" />
    <glyph glyph-name="equal" unicode="=" 
d="M316 922l-278 -278v-392l278 -278h392l278 276v394l-278 278h-392zM628 836q3 0 7 -1t9 -3q6 -9 16 -13t18 -13q6 -9 6.5 -21t9.5 -21q7 1 19 3t21 -1v-2v-2q3 -1 13.5 -4t16.5 -6t12 -9.5t8 -8.5q3 -6 3 -12.5t7 -9.5q-6 -28 -51 -30t-65 14q-1 -7 -7 -8.5t-5 -9.5
q1 -16 21.5 -20.5t32.5 -19.5q6 -7 4.5 -12.5t7.5 -7.5q-7 -18 -34.5 -23t-47.5 1q-4 3 -7.5 6.5t-8.5 5.5q-12 6 -24 9t-20 11q-3 -1 -6.5 -3t-3.5 -5q3 -9 10 -11.5t16 -4.5q7 -1 2.5 1.5t-0.5 2.5t6.5 -1t7.5 -1q-9 -3 -2 -12.5t12 -15.5q22 6 53 5.5t55 0.5
q9 -10 19 -22t19 -24q3 -3 5 -7.5t7 -4.5q-6 -19 -11 -31.5t-11 -26.5q0 -1 -3.5 -8.5t-0.5 -15.5q-7 -34 -45.5 -26.5t-56.5 22.5q-15 0 -26 1t-26 1q-4 -6 -5.5 -6t-4.5 -4q-1 -9 0 -14.5t6 -7.5q21 6 53.5 5t56.5 -3q-3 -10 5 -23.5t13 -24.5q-15 -27 -62.5 -21.5
t-79.5 7.5q-4 -6 -12 -10t-2 -16q24 6 77.5 6t94.5 2q25 1 38 -1t30 -11q6 -4 12.5 -7.5t9.5 -6.5q13 -12 17 -29t13 -35q-12 -15 -32 -20.5t-46 -1.5q-16 1 -31.5 8.5t-32.5 13.5q-27 9 -56 14l-58 10q0 -19 18.5 -20t33.5 -4q16 -4 34 -14.5t32 -21.5q16 -15 26 -37
t10 -51q3 -1 3 -5.5t5 -4.5q-15 -36 -54 -33.5t-56 29.5q-12 21 -16 48.5t-16 47.5q-6 10 -12 15.5t-12 14.5q-10 4 -18 12.5t-22 11.5q-3 3 -5 7t-5 7q-13 -13 -22.5 -28t-21.5 -30q-34 -39 -81 -67.5t-109 -42.5q-7 -9 -21 -4.5t-11 22.5q3 13 25.5 21.5t34.5 16.5
q25 18 54.5 45.5t47.5 50.5q0 3 -1.5 5.5t-4.5 4.5q-19 -1 -39 -6.5t-37 6.5q-13 9 -22.5 29t-11.5 41q7 7 15 12t25 4q1 -1 2 -3t4 -5q30 -1 57 -7.5t57 3.5q-1 3 -5.5 5t-6.5 5q-36 -1 -59 16.5t-29 47.5q18 21 53 12.5t65 -2.5q1 6 -5 11t-9 11q-18 -3 -34.5 -3.5
t-33.5 -0.5q-6 0 -12 -1.5t-12 -0.5q-24 7 -19 41.5t-1 58.5q-13 -12 -17.5 -26.5t-6.5 -23.5q0 -3 -1 -2.5t-3 2.5q0 -3 -1.5 -14t-6.5 -8q1 -6 0 -11.5t-6 -4.5q1 -10 -0.5 -13.5t-9.5 -14.5q0 -1 2 -0.5t2 2.5q-1 -7 -3 -8.5t-5 -15.5q-1 -1 -1.5 -3.5t-0.5 -4.5
q-1 -1 -6 -17.5t-10 -34.5q-3 -13 -8 -28.5t-4 -27.5q1 -10 12 -23.5t16 -30.5q1 -9 1 -19t1 -21q0 -7 0.5 -14.5t-8.5 -15.5q-7 -7 -27.5 -15.5t-32.5 -8.5q-39 3 -32.5 60.5t-15.5 81.5q-7 6 -19.5 8.5t-12.5 17.5q0 13 24.5 23t35.5 19q10 10 16.5 20.5t15.5 21.5
q4 28 24.5 51t17.5 49q-12 -18 -20.5 -32.5t-31.5 -23.5q-10 -6 -28.5 -11t-21.5 7q-4 12 2.5 21t5.5 21q0 6 -2.5 13.5t-5.5 12.5q-10 12 -37.5 12t-24.5 20q1 13 28 20.5t44 9.5q10 1 22.5 0.5t21.5 -2.5q0 -1 -2 -1t-2 -1q10 -4 15 -7t17 -11q4 -6 9 -10.5t11 -7.5
q9 1 14.5 6t11.5 8q-19 21 -47 37t-45 39q-4 6 -7 11.5t-3 10.5q-1 18 9.5 27.5t10.5 26.5q0 13 -8.5 24t-17.5 22q-7 9 -15 16.5t-7 25.5q21 22 44.5 12t47.5 -22q13 -7 27 -15t23 -19q15 -16 17.5 -33.5t10.5 -34.5q-4 -28 -40 -26.5t-56 -11.5q3 -10 12 -17t18 -15
q9 -6 23 -17t23 -7q12 7 26 20t40 6q1 -4 3.5 -2.5t2.5 -1.5q21 0 42 -4t42 0q-1 7 -3.5 15t-4.5 17q-12 -1 -24 -7t-24 -5q-16 1 -27.5 18t-8.5 32q1 13 15 14.5t31 3.5q-3 7 -7 12.5t-9 13.5q-16 -1 -31 -4t-27 6q-6 6 -18 24.5t-14 27.5q-6 30 25 32t57 -2q1 7 -4.5 10
t-5.5 12q0 18 27.5 23t36.5 -1q4 -7 13 -9.5t15 -10.5q6 -9 6.5 -19.5t9.5 -18.5q9 4 21 5t27 1q-16 19 -7.5 42t35.5 22zM566 704q-13 0 -19.5 -8.5t-0.5 -25.5q12 -3 25 -0.5t27 2.5q-3 9 -6 15.5t-6 14.5q-6 1 -10.5 2t-9.5 0zM616 530v-6q-9 1 -9.5 -13.5t5.5 -20.5
q15 4 35.5 3t34.5 5q1 6 -1 15t-5 17q-13 -3 -29 -2.5t-31 2.5zM480 528q6 -6 -1 -6t-3 -4q-1 0 1.5 -15t14.5 -17q1 6 14.5 6t21.5 4q-4 6 -7 14t-9 14q-9 -1 -16 1.5t-16 2.5z" />
    <glyph glyph-name="greater" unicode="&#x3e;" 
d="M1024 284v-110q0 -4 -1.5 -7.5t-4.5 -6.5q-3 -1 -6 -2.5t-6 -1.5h-786v-110q0 -4 -1.5 -7.5t-4.5 -6.5q-3 -1 -6 -2.5t-6 -1.5q-4 0 -7.5 1.5t-6.5 4.5l-182 182q-3 3 -4.5 6t-1.5 6q0 4 1.5 7.5t4.5 6.5l182 182q3 3 6 4.5t8 1.5q3 0 6 -1.5t6 -4.5t4.5 -6t1.5 -6v-110
h786q3 0 6 -1.5t6 -4.5t4.5 -6t1.5 -6zM1024 594q0 -4 -1.5 -7t-4.5 -5l-182 -184q-3 -3 -6 -3.5t-8 -0.5q-3 0 -6 0.5t-6 3.5t-4.5 6t-1.5 8v110h-786q-3 0 -6 0.5t-6 3.5t-4.5 6t-1.5 8v110q0 3 1.5 6t4.5 6t6 4.5t6 1.5h786v110q0 3 1.5 6t4.5 6t6 4.5t6 1.5
q4 0 7.5 -1.5t6.5 -4.5l182 -182q3 -3 4.5 -6t1.5 -8z" />
    <glyph glyph-name="question" unicode="?" 
d="M954 636q0 -10 -3.5 -20t-12.5 -18l-490 -492q-9 -7 -18.5 -11.5t-21.5 -4.5q-10 0 -20 4t-18 12l-284 284q-9 9 -12.5 18.5t-3.5 21.5q0 10 3.5 20t12.5 18l76 78q9 7 18.5 11.5t21.5 4.5q10 0 20 -4t18 -12l168 -168l376 376q7 7 17 11.5t21 4.5q12 0 21.5 -4t18.5 -12
l76 -78q9 -9 12.5 -18.5t3.5 -21.5z" />
    <glyph glyph-name="at" unicode="@" 
d="M512 886q60 0 115 -14t105 -44q51 -30 90.5 -69.5t69.5 -90.5q30 -49 44 -104.5t14 -115.5t-14 -115t-44 -105q-30 -51 -69.5 -90.5t-90.5 -69.5q-49 -30 -104.5 -44t-115.5 -14t-115 14t-105 44q-51 30 -90.5 69.5t-69.5 90.5q-30 49 -44 104.5t-14 115.5t14 115t44 105
q30 51 69.5 90.5t90.5 69.5q49 30 104.5 44t115.5 14zM668 590q0 -1 -1 -2.5t-3 -3.5l-4.5 -4.5t-3.5 -1.5l1 1t1 3q0 1 1 2.5t1 3.5q1 1 1.5 2.5l0.5 1.5q3 1 6 3t8 5q3 1 10.5 2.5t19.5 3.5q9 3 16 1.5t12 -7.5q0 1 1.5 3t4.5 5l4.5 4.5t3.5 1.5q1 1 3 1.5t5 2.5q4 0 6 1
t4 3v12q-3 0 -5.5 1t-4.5 3q-1 3 -2.5 6t-1.5 6v-1t-2 -3q0 1 -1 2.5t-3 1.5h-2.5h-3.5q-1 -1 -2.5 -1t-3.5 1q-1 0 -3.5 1t-4.5 3q-1 1 -2.5 3t-1.5 5t-1 5.5t-1 4.5l-2.5 2.5l-3.5 3.5l-2.5 2.5l-3.5 3.5v1v1q-1 1 -1.5 2.5l-0.5 1.5l-1.5 1.5t-0.5 2.5h-1.5h-2.5h-1.5
t-2.5 -2q-1 -1 -1.5 -2.5t-2.5 -3.5l-1.5 -1.5l-0.5 -0.5h-2.5h-1.5h-1.5h-0.5q-1 0 -1.5 -1t-2.5 -1l-1 -1l-1 -1q-1 0 -2.5 -1t-3.5 -1h-1.5h-2.5q4 1 4 2.5t-4 3.5q-3 0 -5.5 1t-4.5 1q3 0 4 1.5t0 4.5q0 3 -1 4.5t-3 3.5h2q0 1 -1 2.5t-3 1.5q-3 1 -5 2.5t-5 3.5
l-4.5 1.5t-3.5 2.5q-1 1 -6.5 1.5t-13.5 2.5q-7 1 -11.5 1t-6.5 -1q-1 -1 -1.5 -2.5t-0.5 -3.5v-2.5t2 -5.5q1 -1 1.5 -3.5l0.5 -2.5q0 -1 -0.5 -3.5t-3.5 -4.5l-2.5 -2.5t-1.5 -3.5q0 -3 2.5 -5t5.5 -5q4 -1 5.5 -4t0.5 -8q0 -1 -2.5 -3.5t-5.5 -4.5l-6 -4.5t-4 -3.5
q-1 -1 -1 -4t1 -6q0 -3 1.5 -5.5t4.5 -4.5v-1v-1v-1t-2 -1q0 -1 -1 -1.5l-1 -0.5q-1 -1 -2.5 -1.5l-1.5 -0.5l-2 -2q-3 -1 -6 0t-6 4t-4.5 6t-3.5 8q-1 7 -3.5 11.5t-4.5 6.5q-7 1 -11.5 1t-6.5 -3q-1 4 -7 7.5t-15 8.5q-7 3 -16 3t-18 -1q1 0 1 2.5t-1 5.5q-1 4 -4 6t-6 2
q0 1 1 4t1 6v4.5v3.5q1 3 2.5 6t3.5 6q1 0 1.5 1.5t2.5 4.5q3 1 3.5 2.5t2.5 3.5q1 3 1.5 3.5t2.5 0.5q9 -1 16 0t12 6q1 1 2.5 4t3.5 6q1 3 2.5 5.5t3.5 4.5q3 1 4.5 2.5t3.5 1.5q1 -1 3 -1.5t5 -2.5l4.5 -1.5t3.5 -0.5q4 -1 7 0t3 6q0 3 -1 5.5t-3 4.5q3 0 3 2.5t-1 7.5
q-1 3 -2.5 3.5t-3.5 2.5q-3 1 -7 0t-7 -4q-3 0 -3 -1t3 -3l-1.5 -1.5l-4.5 -4.5q-1 -3 -3.5 -5.5l-4.5 -4.5q-3 -1 -5 -1t-5 5l-1 1.5t-1 4.5q-1 4 -2.5 6t-3.5 2q-3 0 -5 -1.5t-5 -6.5q1 3 0 4.5t-6 3.5q-4 3 -7.5 3.5t-6.5 2.5q6 3 5 6t-9 8q-1 1 -4 2.5t-8 1.5h-5.5
t-4.5 -2q-1 -3 -2.5 -4.5t-1.5 -3.5v-1.5t2 -2.5q1 -1 2.5 -1.5t3.5 -2.5h3t5 -2h2.5t1.5 -2q4 -1 5.5 -3.5t-1.5 -4.5h-1t-3 -2h-2.5t-3.5 -2q-1 0 -2.5 -1l-1.5 -1q-1 -1 -1 -3t1 -5t0.5 -4.5t-2.5 -3.5q-1 1 -1.5 4t-2.5 6q-1 3 -2.5 5.5t-1.5 4.5q1 -3 -2 -4t-12 0h-6
h-3h-7q-3 -1 -6 -1.5t-6 -0.5q-1 1 -2.5 2t-3.5 4q-1 1 -1 4t1 6v1.5t2 0.5q-1 1 -2.5 2t-3.5 4q-3 1 -4.5 2.5l-1.5 1.5q-13 -4 -26.5 -10t-27.5 -14h2.5t3.5 2q1 0 3 1t5 3q3 0 3.5 1t2.5 1q9 4 15 4.5t9 -0.5l2 4q4 -4 7 -8.5l5 -7.5q-1 1 -5.5 1.5t-12.5 0.5
q-4 -1 -7 -3.5t-5 -4.5q1 -3 2.5 -5.5t1.5 -4.5q-1 1 -3 2.5t-5 3.5q-1 1 -3.5 2.5t-4.5 3.5q-1 1 -3.5 1.5t-4.5 2.5q-4 0 -7 -1t-5 -1q-42 -22 -76 -53.5t-60 -72.5q3 -1 4.5 -2.5t3.5 -1.5q1 -1 1.5 -2t0.5 -4t1 -4.5l1 -1.5q0 -1 1.5 -0.5t4.5 2.5q3 -3 3 -6t-1 -6l7 -3
t19 -11q4 -6 7 -9t5 -3q0 -4 -1.5 -6.5t-4.5 -5.5q0 1 -1.5 2.5t-4.5 3.5q-1 1 -2.5 2t-1.5 0q-1 -1 -1 -4t1 -6q1 -4 2.5 -6t3.5 -2q-1 0 -2.5 -1.5t-3.5 -6.5q0 -4 -1 -9.5t-1 -10.5v-9v-5h2q-1 -4 -0.5 -9t2.5 -11q3 -7 6 -9.5t6 -2.5q-3 0 0 -6.5t12 -17.5
q1 -3 2.5 -4.5l1.5 -1.5q1 0 3 -1t5 -3q3 -1 4.5 -2.5l3.5 -3.5l2.5 -2.5l3.5 -3.5q1 -1 2.5 -4t3.5 -8q1 -4 3 -8t5 -6q-1 -1 0 -4t6 -8q3 -3 4.5 -6t1.5 -6h-1.5h-0.5q0 -1 -1 -1.5l-1 -0.5l3 -3t7 -5q3 -1 4.5 -2.5l3.5 -3.5v-2.5t2 -3.5v-4.5v-1.5q1 -1 2.5 -1.5
t3.5 -0.5q0 6 -3 15t-11 21q-4 6 -7 10t-3 6q-1 1 -1.5 3t-2.5 5v5.5t-2 4.5q1 0 1.5 -1t2.5 -1h1.5t2.5 -2q1 0 2.5 -1l1.5 -1q1 0 1.5 -1l0.5 -1q-1 -1 -0.5 -4t2.5 -6q1 -3 2.5 -5.5t3.5 -4.5q1 -3 4 -5t6 -7l4.5 -4.5l1.5 -1.5q1 -1 3.5 -4t4.5 -8q3 -3 3 -5.5t-3 -2.5
q3 0 6 -1.5t6 -4.5q3 -1 5.5 -4t4.5 -6q1 -3 2.5 -6.5t1.5 -9.5q1 -4 1.5 -7.5t2.5 -6.5q0 -1 1 -2.5t3 -3.5q1 -3 3 -4.5t5 -1.5l16 -8q1 -1 4 -2.5t6 -3.5q4 -3 7 -4.5t5 -3.5q3 0 5.5 -1t4.5 -1h3t5 2q3 0 4.5 1t3.5 1q4 0 7.5 -1.5t8.5 -6.5q4 -6 7 -9t5 -3
q10 -6 18 -7.5t14 -0.5q-1 0 -0.5 -0.5t0.5 -3.5q0 -1 1 -3t3 -5q1 -3 2.5 -4.5l3.5 -3.5q1 -1 1.5 -2.5t0.5 -3.5q1 -1 4 -3t8 -5q3 -3 5.5 -4.5t4.5 -3.5q1 0 2.5 1t1.5 3q-1 -1 0 -4t4 -6q3 -4 5 -5.5t5 -0.5q4 0 6 4.5t2 13.5q-9 -4 -16 -1.5t-12 11.5v1t-2 3l-1 1t-1 3
q0 1 -1 2.5l-1 1.5v2.5v3.5h1h3q1 0 2.5 1t3.5 1v3t-2 5l-1.5 4.5t-0.5 3.5q0 1 -1.5 4t-4.5 6l-4.5 6t-3.5 4q-1 -3 -3 -4.5t-5 -1.5q-3 1 -5.5 2t-4.5 4v-1v-3q-1 0 -1.5 -1l-0.5 -1h-5.5h-2.5v2.5t2 7.5v7t2 5v3t2 5q1 1 2.5 3.5t1.5 4.5q1 1 1.5 2.5t2.5 3.5q0 3 -1 3.5
t-3 2.5q-1 1 -3 1.5t-7 0.5q-4 0 -8 -3t-6 -9l-1 -1.5t-1 -4.5q0 -1 -1 -2.5t-1 -3.5l-2.5 -2.5t-3.5 -1.5q-1 -1 -5 -1.5t-9 -0.5q-4 0 -7.5 1t-6.5 3q-3 1 -6 5.5t-6 10.5t-4.5 11.5t-1.5 10.5v5t2 9q0 4 1 8t1 6q0 3 -1 6t-3 8l2.5 2.5l3.5 3.5l2.5 2.5l3.5 3.5v0h2
q0 1 1 1t1 -1h1.5t0.5 2q1 0 1.5 1t0.5 3v0h-2l-1.5 1.5l-0.5 0.5h5.5t10.5 2q6 1 10 0.5t6 -2.5q4 -3 7 -3t5 5v1.5t-2 4.5v2.5v3.5q1 -7 5.5 -8.5t12.5 4.5q0 -1 2.5 -1.5t5.5 -2.5h5.5t4.5 -2q1 0 1.5 -1t2.5 -3q1 0 1.5 -1t2.5 -1v0h2l1.5 1.5l2.5 2.5q3 -4 4.5 -7.5
t3.5 -6.5q3 -10 5.5 -17t4.5 -7l4.5 -1.5l1.5 -0.5q1 0 2.5 1.5t1.5 4.5v3.5v4.5q0 1 -1 2.5t-1 3.5v20q-4 1 -7 3t-5 5v4t2 6q1 3 3 5l5 5l1 1t3 1q3 1 5 1.5t5 2.5q1 1 3.5 2.5l2.5 1.5q6 6 8.5 10.5t1.5 9.5q1 0 2.5 1.5t3.5 4.5h-1t-3 2l-1 1t-3 1q0 1 -1 1.5l-1 0.5
q3 1 3 3t-1 5q1 1 1.5 2.5t2.5 3.5q0 3 1 4.5t3 1.5q3 -3 6 -3t6 3q1 1 1 3.5t-1 4.5q1 3 4 4.5t8 1.5q4 1 7 2.5t3 3.5h3.5t2.5 2v1.5v4.5v4.5t2 1.5q0 1 2.5 2.5t5.5 3.5l4.5 1.5t3.5 0.5l10 8v1v1q4 -1 8.5 0t7.5 6q3 3 3 6t-5 6v2.5t-2 1.5q-1 1 -3.5 1.5t-4.5 2.5h1.5
h4.5h2.5h3.5q4 3 3 5.5t-7 4.5q-4 1 -10 0t-14 -6h-4zM576 88q58 10 108 37t92 71q-1 1 -3 1.5t-5 0.5q-1 1 -3.5 1.5l-2.5 0.5q-6 3 -9 3.5t-5 2.5v2.5t-2 3.5q0 1 -1 2.5t-3 3.5q-1 0 -3 1t-5 3l-2.5 2.5t-3.5 1.5q0 1 -1 1.5t-3 2.5l-1.5 1.5t-2.5 0.5q0 1 -1 1.5t-3 2.5
h-2.5h-1.5h-2.5h-3.5h-2q-1 0 -1.5 -1t-2.5 -1l-1 -1l-1 -1h-1.5t-0.5 -2v0v0q-6 4 -11.5 7t-10.5 5q-1 0 -2.5 1t-3.5 1l-2.5 2.5t-3.5 1.5q-1 1 -2.5 1.5t-3.5 0.5q-1 0 -2.5 -1t-3.5 -3q-1 -1 -1.5 -3.5t-2.5 -4.5v-5.5v-2.5q-1 1 -1 3t1 7q1 3 1 5.5t-1 4.5q0 1 -1.5 2
t-4.5 0h-2.5t-3.5 -2q-1 0 -2.5 -1t-3.5 -3q-3 -1 -3.5 -2.5t-2.5 -1.5l-1 -1l-3 -3q-3 -1 -3.5 -1.5l-2.5 -2.5q0 -1 -1 -2.5t-1 -3.5l-1.5 -4.5t-2.5 -1.5l-1.5 1t-4.5 1l-4.5 1.5t-1.5 2.5q1 -3 1.5 -7.5t0.5 -12.5q1 -7 1.5 -12t2.5 -10q1 -9 -0.5 -15.5t-7.5 -12.5
q-7 -6 -11.5 -11.5t-4.5 -10.5q-1 -6 0 -10t6 -4q0 -3 -0.5 -6t-3.5 -6q-1 -4 -2.5 -7t-1.5 -5v-5t2 -5z" />
    <glyph glyph-name="A" unicode="A" 
d="M768 192q0 7 -2.5 13.5t-7.5 12.5q-6 4 -12 7t-14 3q-7 0 -14 -2.5t-12 -7.5q-6 -6 -9 -12t-3 -14q0 -7 3 -13.5t9 -12.5q4 -4 11 -7t15 -3q7 0 13.5 2.5t12.5 7.5q4 6 7 12t3 14zM914 192q0 7 -2.5 13.5t-7.5 12.5q-6 4 -12 7t-14 3q-7 0 -13.5 -2.5t-12.5 -7.5
q-6 -6 -8 -12t-2 -14q0 -7 2 -13.5t8 -12.5q6 -4 12 -7t14 -3q7 0 13.5 2.5t12.5 7.5q4 6 7 12t3 14zM988 320v-182q0 -12 -4 -22t-12 -18q-9 -7 -18.5 -11.5t-21.5 -4.5h-840q-12 0 -21.5 4t-18.5 12q-7 7 -11.5 17.5t-4.5 22.5v182q0 12 4 21t12 17q9 9 18.5 12.5
t21.5 3.5h266l76 -76q16 -16 35.5 -24t42.5 -8q22 0 41.5 7.5t36.5 24.5l78 76h264q12 0 21.5 -3.5t18.5 -12.5q7 -7 11.5 -16.5t4.5 -21.5zM802 646q4 -12 2.5 -22t-10.5 -18l-256 -256q-6 -6 -12 -9t-14 -3q-7 0 -13.5 3t-12.5 9l-256 256q-9 7 -10.5 17.5t2.5 22.5
q4 10 13 16t21 6h146v256q0 7 3 13.5t9 12.5q4 4 10 7t14 3h148q7 0 13 -2.5t11 -7.5q6 -6 9 -12t3 -14v-256h146q12 0 20.5 -5.5t13.5 -16.5z" />
    <glyph glyph-name="B" unicode="B" 
d="M822 450q0 46 -12 88t-36 80l-432 -430q39 -25 82 -37.5t88 -12.5q31 0 61 6t59 18q30 12 54.5 28.5t45.5 37.5t37.5 46t28.5 54q12 28 18 59t6 63zM252 278l432 432q-39 25 -82 38.5t-90 13.5q-42 0 -81 -10.5t-75 -31.5t-64.5 -49.5t-49.5 -64.5q-19 -36 -29.5 -75
t-10.5 -81q0 -46 12 -88.5t38 -83.5zM950 450q0 -45 -8 -88t-26 -84q-18 -40 -41 -75.5t-53 -64.5q-28 -30 -63.5 -53t-76.5 -41q-40 -18 -82.5 -26t-87.5 -8t-87 8t-83 26q-40 18 -75.5 41t-64.5 53q-30 28 -53 63.5t-41 76.5q-18 40 -26 83.5t-8 88.5t8 87t26 83
q18 42 41 77t53 65q28 28 63.5 51.5t76.5 40.5q40 18 82.5 27t87.5 9t87 -9t83 -27q40 -16 75.5 -39.5t64.5 -52.5q30 -30 53 -65t41 -77q18 -40 26 -82.5t8 -87.5z" />
    <glyph glyph-name="C" unicode="C" 
d="M732 758v-620q0 -7 -3 -14t-9 -12q-4 -6 -11 -9t-15 -3q-7 0 -13 3t-11 9l-192 190h-148q-7 0 -14 2.5t-12 7.5q-6 6 -9 12t-3 14v220q0 7 3 13.5t9 12.5q4 4 11 7t15 3h148l192 190q4 6 10 9t14 3q7 0 14 -3t12 -9q6 -4 9 -11t3 -15z" />
    <glyph glyph-name="D" unicode="D" 
d="M392 684q4 0 7.5 1.5t8.5 4.5q3 3 4.5 7t1.5 9q0 4 -1.5 8.5t-4.5 7.5q-4 3 -7.5 4.5t-8.5 1.5q-4 0 -8.5 -1.5t-7.5 -4.5t-4.5 -7t-1.5 -9q0 -4 1.5 -8.5t4.5 -7.5t7 -4.5t9 -1.5zM632 684q4 0 8.5 1.5t7.5 4.5t4.5 7t1.5 9q0 4 -1.5 8.5t-4.5 7.5t-7 4.5t-9 1.5
q-4 0 -7.5 -1.5t-8.5 -4.5q-3 -3 -4.5 -7t-1.5 -9q0 -4 1.5 -8.5t4.5 -7.5q4 -3 7.5 -4.5t8.5 -1.5zM168 578q12 0 22.5 -3.5t19.5 -12.5t12.5 -19.5t3.5 -22.5v-246q0 -12 -3.5 -22t-12.5 -18q-9 -9 -19.5 -13.5t-22.5 -4.5t-22.5 4.5t-19.5 13.5q-7 7 -11.5 17.5
t-4.5 22.5v246q0 12 4 22.5t12 19.5q9 9 19.5 12.5t22.5 3.5zM774 568v-380q0 -13 -4.5 -24t-13.5 -22q-9 -9 -19.5 -13.5t-24.5 -4.5h-42v-130q0 -12 -4.5 -22t-13.5 -18q-9 -9 -19.5 -13.5t-22.5 -4.5t-22.5 4.5t-19.5 13.5q-7 7 -11.5 17.5t-4.5 22.5v130h-80v-130
q0 -12 -4 -22t-12 -18q-9 -9 -19.5 -13.5t-22.5 -4.5t-22.5 4.5t-19.5 13.5q-7 7 -11.5 17.5t-4.5 22.5l-2 130h-42q-12 0 -23.5 4.5t-20.5 13.5q-9 10 -13.5 21t-4.5 25v380h524zM642 800q30 -16 55 -37.5t43 -50.5q18 -28 27 -58.5t9 -65.5h-528q0 34 9 64.5t27 59.5
q18 28 43 49.5t55 38.5l-40 74q-1 4 -1 7t3 5q4 1 7 0t5 -4l42 -76q27 12 55.5 18t58.5 6t58.5 -6t55.5 -18l42 76q1 3 4 4t8 0q3 -1 3 -4t-1 -8zM914 520v-246q0 -12 -4 -22t-12 -18q-9 -9 -19.5 -13.5t-22.5 -4.5t-22.5 4.5t-19.5 13.5q-9 7 -12.5 17.5t-3.5 22.5v246
q0 12 3.5 22.5t12.5 19.5t19.5 12.5t22.5 3.5t22.5 -3.5t19.5 -12.5q7 -9 11.5 -19.5t4.5 -22.5z" />
    <glyph glyph-name="E" unicode="E" 
d="M476 448q0 30 -10.5 55.5t-33.5 48.5q-21 21 -46.5 31.5t-55.5 10.5q-31 0 -57 -10.5t-47 -31.5q-21 -22 -32.5 -48t-11.5 -56t11.5 -55.5t32.5 -48.5q21 -21 46.5 -31.5t57.5 -10.5q30 0 55.5 10.5t46.5 31.5q22 22 33 48t11 56zM914 156q0 15 -5 27t-17 23
q-10 12 -23 17t-27 5q-15 0 -28 -5t-24 -17q-10 -10 -16 -22.5t-6 -27.5t5.5 -28t16.5 -24q10 -10 22.5 -16t29.5 -6q15 0 27 5.5t23 16.5q12 10 17 23.5t5 28.5zM914 740q0 15 -5 28t-17 24q-10 10 -23 16t-27 6q-15 0 -28 -5.5t-24 -16.5q-10 -10 -16 -23.5t-6 -28.5
t5.5 -27.5t16.5 -24.5q10 -10 22.5 -15t29.5 -5q15 0 27 4.5t23 15.5q12 12 17 24.5t5 27.5zM694 500v-106q0 -3 -0.5 -5.5t-3.5 -4.5q-1 -3 -3 -4.5t-5 -1.5l-88 -14q-4 -10 -9 -21t-11 -23q10 -13 22.5 -29.5t29.5 -36.5q1 -3 2.5 -6t1.5 -6t-1 -5.5t-3 -4.5
q-6 -9 -17.5 -21.5t-28.5 -30.5q-18 -16 -29 -25t-17 -9q-3 0 -6 1t-6 3l-66 52q-10 -4 -21 -8.5t-23 -9.5q-3 -30 -6 -52t-6 -36q-3 -7 -6.5 -10.5t-11.5 -3.5h-106q-3 0 -6 1t-6 3q-1 3 -2.5 5t-3.5 5l-12 88q-10 3 -21 7.5t-23 10.5l-66 -52q-3 -1 -6 -2.5t-6 -1.5
t-6 1.5t-6 4.5q-40 37 -61 59.5t-21 30.5q0 3 1 6t3 6q3 4 9 11.5t15 18.5q7 10 14 19t12 15q-6 13 -11.5 25t-8.5 23l-86 14q-3 0 -5.5 1t-4.5 3q-3 3 -3.5 6t-0.5 6v106q0 3 0.5 5.5t3.5 4.5q1 3 3.5 4.5t4.5 1.5l90 14q3 10 7.5 21t10.5 23q-10 13 -22.5 29.5t-29.5 36.5
q-1 3 -2.5 6t-1.5 6t1 5.5t3 4.5q6 9 17.5 21.5t28.5 30.5q18 16 29 25t17 9q3 0 6 -1t6 -3l66 -52q9 4 20.5 8.5t23.5 9.5q3 31 6 52.5t6 35.5q3 7 7.5 10.5t10.5 3.5h106q3 0 6 -1t6 -3q3 -3 4.5 -5t1.5 -5l12 -88q10 -3 21 -7.5t23 -10.5l66 52q3 1 6 2.5t6 1.5t6 -1.5
t6 -4.5q42 -37 62 -59.5t20 -30.5q0 -3 -0.5 -6t-3.5 -6q-3 -4 -9 -11.5t-15 -18.5q-7 -12 -14 -20t-12 -14q7 -15 12 -26t8 -22l88 -12q1 -1 3.5 -2.5t4.5 -3.5q3 -3 3.5 -6t0.5 -6zM1060 196v-80q0 -4 -21 -8.5t-63 -9.5q-4 -7 -8 -14.5t-10 -15.5q15 -33 22.5 -52.5
t7.5 -25.5q0 -1 -1 -2.5l-1 -1.5q-36 -21 -53 -31.5t-19 -10.5q-1 0 -8 7t-18 21q-10 13 -17.5 22.5t-12.5 15.5h-10h-6h-7.5h-10.5q-4 -6 -11.5 -15t-18.5 -23q-10 -13 -16.5 -20.5t-9.5 -7.5l-17.5 10.5l-52.5 31.5q-1 0 -2.5 1t-1.5 3q0 6 7.5 25.5t22.5 52.5
q-4 7 -8.5 14.5t-9.5 15.5q-42 4 -63 8.5t-21 9.5v80q0 4 21 8.5t63 9.5q4 7 8.5 14.5t9.5 13.5q-15 33 -22.5 52.5t-7.5 27.5q0 1 1 1.5t3 2.5l5.5 3t14.5 9q7 4 15.5 8.5t16.5 9.5q9 4 13.5 7l4.5 3q3 0 9 -7t17 -19q10 -13 17.5 -23.5t12.5 -16.5q6 1 10.5 1.5t7.5 0.5
h5.5t10.5 -2q15 21 28 36.5t24 27.5l4 2q1 0 19 -10t53 -30q0 -1 1 -1.5t1 -2.5q0 -7 -7.5 -27t-22.5 -53q4 -6 8.5 -13t9.5 -15q42 -4 63 -8.5t21 -9.5zM1060 780v-80q0 -4 -21 -8.5t-63 -9.5q-4 -7 -8 -14.5t-10 -13.5q15 -33 22.5 -52.5t7.5 -27.5q0 -1 -1 -1.5t-1 -2.5
q-36 -19 -53 -29.5t-19 -10.5q-1 0 -8 6t-18 20q-10 13 -17.5 23.5t-12.5 16.5q-6 -1 -10 -1.5t-6 -0.5h-7.5t-10.5 2q-4 -6 -11.5 -16t-18.5 -24q-10 -13 -16.5 -19.5t-9.5 -6.5l-17.5 10l-52.5 30q-1 1 -2.5 1.5t-1.5 2.5q0 7 7.5 27t22.5 53q-4 6 -8.5 13t-9.5 15
q-42 4 -63 8.5t-21 9.5v80q0 4 21 8.5t63 9.5q4 9 8.5 16.5t9.5 13.5q-15 33 -22.5 52.5t-7.5 25.5q0 1 1 2.5t3 1.5q0 1 5.5 4t14.5 8q7 6 15.5 10.5t16.5 9.5l13.5 6l4.5 2q3 0 9 -6t17 -20q10 -13 17.5 -22.5t12.5 -15.5h10.5h7.5h5.5h10.5q15 19 28 35.5t24 28.5h4
q1 0 19 -9.5t53 -30.5l1 -1t1 -3q0 -6 -7.5 -25.5t-22.5 -52.5q4 -6 8.5 -13.5t9.5 -16.5q42 -4 63 -8.5t21 -9.5z" />
    <glyph glyph-name="F" unicode="F" 
d="M794 216q-15 -3 -31 -4.5t-31 -1.5q-52 0 -100.5 13t-93.5 39q-43 25 -78 60t-62 80q-25 43 -37.5 91t-12.5 101q0 55 14.5 106t43.5 98q-57 -16 -103.5 -49t-82.5 -81q-37 -48 -55.5 -103t-18.5 -117q0 -37 7.5 -72t22.5 -70q13 -34 32.5 -63t45.5 -53
q24 -25 52.5 -44.5t63.5 -33.5q34 -15 69 -22.5t73 -7.5q40 0 79 9t77 27q37 16 68.5 41t57.5 57zM910 264q-27 -58 -67.5 -104.5t-94.5 -81.5q-54 -34 -112.5 -51t-123.5 -17q-45 0 -87 8t-83 26q-40 18 -75.5 41t-64.5 53q-30 28 -53 63.5t-41 76.5q-18 40 -26 82.5
t-8 87.5q0 43 7.5 85t24.5 83q16 39 38.5 73.5t51.5 64.5q27 28 61 52t73 42q39 16 80.5 26t85.5 12q12 1 20.5 -4.5t13.5 -17.5q6 -12 3.5 -22.5t-11.5 -19.5q-25 -21 -43.5 -47t-32.5 -55q-12 -30 -19 -61.5t-7 -64.5q0 -42 10.5 -81t31.5 -75t49.5 -64t64.5 -48
q36 -21 75 -31.5t81 -10.5q33 0 65.5 7t64.5 21q12 6 22 4t18 -10q4 -4 7 -9t3 -11q1 -6 1 -11.5t-3 -10.5z" />
    <glyph glyph-name="G" unicode="G" 
d="M842 448q0 33 -7 65.5t-19 62.5q-13 30 -31 56.5t-41 47.5q-21 22 -47.5 40t-56.5 32q-30 12 -62.5 19t-65.5 7t-65.5 -7t-62.5 -19q-30 -13 -56.5 -31t-47.5 -41q-22 -21 -40 -47.5t-32 -56.5q-12 -30 -19 -62.5t-7 -65.5t7 -65.5t19 -62.5q13 -30 31 -56.5t41 -47.5
q21 -22 47.5 -40t56.5 -32q30 -12 62.5 -19t65.5 -7t65.5 7t62.5 19q30 13 56.5 31t47.5 41q22 21 40 47.5t32 56.5q12 30 19 62.5t7 65.5zM998 290q0 -4 -2.5 -7t-7.5 -5l-168 -54v-176q0 -4 -1.5 -7.5t-4.5 -6.5q-4 -3 -8.5 -3t-9.5 1l-166 54l-104 -142q-1 -4 -5 -6
t-9 -2q-4 0 -8 1.5t-6 6.5l-104 142l-166 -54q-4 -1 -8.5 -1t-9.5 3q-3 3 -4.5 6t-1.5 8v176l-168 54q-4 1 -7 4t-3 8q-1 4 -1 8.5t3 7.5l102 142l-102 142q-3 3 -3 7t1 9q0 4 2.5 7t7.5 5l168 54v176q0 4 1.5 7.5t4.5 6.5q4 3 8.5 3t9.5 -1l166 -54l104 142q1 4 5 6t9 2
q4 0 8 -1.5t6 -6.5l104 -142l166 54q4 1 8.5 1t9.5 -3q3 -3 4.5 -6t1.5 -8v-176l168 -54q4 -1 7 -4t3 -8q1 -4 1 -8.5t-3 -7.5l-102 -142l102 -142q3 -3 3 -7t-1 -9z" />
    <glyph glyph-name="H" unicode="H" 
d="M804 192v512q0 7 -2.5 13.5t-7.5 12.5q-6 4 -12 7t-14 3h-74q-7 0 -13 -2.5t-11 -7.5q-6 -6 -9 -12t-3 -14v-182h-292v182q0 7 -3 13.5t-9 12.5q-4 4 -10 7t-14 3h-74q-7 0 -13.5 -2.5t-12.5 -7.5q-4 -6 -7 -12t-3 -14v-512q0 -7 2.5 -13.5t7.5 -12.5q6 -4 12 -7t14 -3
h74q7 0 13 2.5t11 7.5q6 6 9 12t3 14v182h292v-182q0 -7 3 -13.5t9 -12.5q4 -4 10 -7t14 -3h74q7 0 13.5 2.5t12.5 7.5q4 6 7 12t3 14zM950 722v-548q0 -34 -12 -63t-36 -53t-52.5 -36t-63.5 -12h-548q-34 0 -63 12t-53 36t-36 52.5t-12 63.5v548q0 34 12 63t36 53t52.5 36
t63.5 12h548q34 0 63 -12t53 -36t36 -52.5t12 -63.5z" />
    <glyph glyph-name="I" unicode="I" 
d="M950 448q0 -60 -14 -115t-44 -105q-30 -51 -69.5 -90.5t-90.5 -69.5q-49 -30 -104.5 -44t-115.5 -14t-115 14t-105 44q-51 30 -90.5 69.5t-69.5 90.5q-30 49 -44 104.5t-14 115.5t14 115t44 105q30 51 69.5 90.5t90.5 69.5q49 30 104.5 44t115.5 14t115 -14t105 -44
q51 -30 90.5 -69.5t69.5 -90.5q30 -49 44 -104.5t14 -115.5z" />
    <glyph glyph-name="J" unicode="J" 
d="M512 758q-42 0 -81 -10t-75 -30q-36 -21 -64.5 -49.5t-49.5 -64.5q-19 -36 -29.5 -75t-10.5 -81t10 -81t30 -75q21 -36 49.5 -64.5t64.5 -49.5q36 -19 75 -29.5t81 -10.5t81 10t75 30q36 21 64.5 49.5t49.5 64.5q19 36 29.5 75t10.5 81t-10 81t-30 75q-21 36 -49.5 64.5
t-64.5 49.5q-36 19 -75 29.5t-81 10.5zM950 448q0 -60 -14 -115t-44 -105q-30 -51 -69.5 -90.5t-90.5 -69.5q-49 -30 -104.5 -44t-115.5 -14t-115 14t-105 44q-51 30 -90.5 69.5t-69.5 90.5q-30 49 -44 104.5t-14 115.5t14 115t44 105q30 51 69.5 90.5t90.5 69.5
q49 30 104.5 44t115.5 14t115 -14t105 -44q51 -30 90.5 -69.5t69.5 -90.5q30 -49 44 -104.5t14 -115.5z" />
    <glyph glyph-name="K" unicode="K" 
d="M512 924l-322 -112l-88 -840h820l-88 840zM284 618h458v-48h-204v-138h176v-42h-176v-154h236v-48h-524v48h232v154h-174v42h174v138h-198v48z" />
    <glyph glyph-name="L" unicode="L" 
d="M838 272q0 -57 -23.5 -104.5t-70.5 -83.5q-48 -36 -112.5 -55t-145.5 -19q-46 0 -88.5 5.5t-81.5 16.5q-39 12 -71.5 24t-58.5 26v156h8q33 -24 70 -44.5t78 -35.5q40 -13 79 -20.5t77 -7.5q46 0 82 7.5t62 22.5q27 15 39.5 38t12.5 56q0 24 -6.5 43t-21.5 31
q-13 13 -41 24t-67 20q-15 3 -34.5 7t-45.5 9q-24 4 -45 8.5t-41 9.5q-55 15 -94 36t-62 50q-24 28 -35 62.5t-11 75.5q0 25 4.5 50t15.5 48q12 22 27.5 43t38.5 39q21 16 47 29.5t59 24.5q33 10 69 16t75 6q37 0 75 -5.5t77 -14.5q37 -9 69.5 -19.5t58.5 -24.5v-150h-8
q-27 19 -60 35.5t-72 30.5q-37 15 -74.5 21.5t-75.5 6.5q-39 0 -71 -7.5t-59 -22.5q-27 -13 -39.5 -35t-12.5 -51q0 -27 7.5 -46.5t24.5 -31.5q15 -13 40 -23.5t60 -18.5q19 -4 41.5 -8.5t46.5 -9.5q24 -4 43.5 -8.5t36.5 -9.5q49 -10 86.5 -29.5t63.5 -46.5
q27 -28 40.5 -64.5t13.5 -81.5z" />
    <glyph glyph-name="M" unicode="M" 
d="M224 898q-3 -42 3 -81.5t21 -80.5q-4 -4 -8.5 -7.5t-7.5 -8.5q-1 -3 -3.5 -4.5t-4.5 -3.5q-1 -1 -3 -4t-5 -6q-3 -4 -4.5 -7t-3.5 -5q-1 -3 -3 -6.5t-7 -9.5q-4 -7 -7.5 -15t-6.5 -17q-1 -12 -1.5 -22.5t-0.5 -19.5q-3 -22 -20 -55t-50 -75q-28 -37 -42 -66t-14 -52
q0 -16 1.5 -31t6.5 -29q4 -13 13 -26.5t23 -27.5q6 -6 17.5 -12t26.5 -12q9 -1 18.5 0t21.5 6q7 -16 19 -23t27 -7q9 0 16.5 3t13.5 9q3 3 7.5 10t10.5 18q10 18 16 29t8 13q25 39 66 68.5t98 49.5q12 4 22.5 11t21.5 15q0 -15 -3 -31.5t-9 -36.5q-7 -18 -16.5 -34
t-21.5 -28q-21 -21 -39 -40t-35 -36q-16 -16 -25.5 -28.5t-14.5 -21.5q-9 -16 -16 -31t-12 -27q-3 -10 -5.5 -19t-4.5 -17q-1 -7 -1.5 -17.5t-0.5 -24.5q0 -13 0.5 -19.5t3.5 -6.5h658v116q0 36 -1.5 75t-4.5 81t-9 82.5t-17 79.5q-10 33 -22.5 63.5t-27.5 60.5
q-16 30 -33 54.5t-35 45.5q-24 30 -55 54t-67 44q-36 19 -75 30t-81 14v0q-12 24 -28.5 43.5t-39.5 34.5q-25 -18 -42 -43t-26 -55q-36 40 -81 70t-99 50zM556 760q72 -15 136 -51.5t106 -98.5q31 -45 52.5 -96t35.5 -104q10 -36 15 -72t5 -72v-99.5t-2 -100.5
q0 -15 -0.5 -22.5t0.5 -7.5h-76q-3 46 -2 92v91t-2 93q-3 48 -14 98q-12 75 -49.5 145t-106.5 111q-22 13 -46.5 24t-51.5 20q0 12 0.5 25t-0.5 25zM402 756q-1 -10 -1 -20.5t1 -21.5q-6 -1 -11.5 -3t-10.5 -5q-4 -1 -9 -4t-11 -6q-9 -6 -15 -4.5t-11 10.5q-4 7 -2 13t10 11
q15 12 30 19.5t30 10.5zM320 658q6 0 10 -3t6 -9q3 -9 1 -15t-11 -9l-3 -1.5l-9 -4.5v0q4 -4 5 -10t1 -12q-3 -16 -12 -23.5t-26 -4.5q-4 0 -8.5 1.5t-7.5 4.5q-1 -1 -2.5 -4t-3.5 -8q-3 -9 -8.5 -12t-13.5 0q-9 3 -12 9t-2 15q12 31 34 52t54 32q1 1 3.5 1.5t4.5 0.5z
M558 580q9 0 13.5 -4t6.5 -12q0 -31 -9 -58.5t-27 -51.5q-4 -9 -11 -11t-15 1q-9 4 -11.5 10t1.5 14q7 7 13.5 19t12.5 27q4 9 5.5 21.5t0.5 26.5q-1 9 3.5 13.5t16.5 4.5zM170 382q3 0 6 -1.5t6 -4.5q7 -7 6.5 -13.5t-8.5 -12.5v0v0q-7 -4 -12.5 -10t-7.5 -14
q0 -10 -4.5 -15t-15.5 -5q-9 -1 -14.5 3t-5.5 13q1 18 9 31.5t25 24.5q4 3 7.5 3.5t8.5 0.5zM226 312q7 0 11.5 -4t4.5 -12q0 -1 -2.5 -8t-7.5 -18q-1 -4 -2.5 -8.5t-3.5 -7.5v0v0q-4 -7 -11.5 -8.5t-16.5 2.5t-9.5 11t5.5 15q3 1 4.5 2.5l3.5 3.5q6 15 12.5 23.5t11.5 8.5z
" />
    <glyph glyph-name="N" unicode="N" 
d="M212 590v-600h600v600h-600zM628 504q25 0 44.5 -18.5t19.5 -45.5t-19 -46.5t-45 -19.5q-27 0 -45.5 19.5t-18.5 46.5t18.5 45.5t45.5 18.5zM416 450q25 0 44.5 -19.5t19.5 -46.5q0 -25 -19 -44.5t-45 -19.5q-27 0 -45.5 19t-18.5 45q0 27 18.5 46.5t45.5 19.5zM750 232
l-34 -58q-12 -24 -36 -51t-92 1l-78 34q-102 42 -103 -18t-121 22l32 -6.5t52 -5.5q27 1 42.5 25.5t41.5 26.5q49 6 93.5 -36.5t92.5 -33.5q36 6 73 53zM90 586l416 326l440 -326h-856z" />
    <glyph glyph-name="O" unicode="O" 
d="M514 896l-94 -68q9 -7 16.5 -14.5t15.5 -13.5q9 -7 13 -15t-5 -19q-1 -13 -12.5 -19t-23.5 -9q-33 -10 -65.5 -24.5t-64.5 -31.5q-25 -10 -45 -29t-43 -37q-9 -12 -17.5 -24.5t-16.5 -27.5q-6 -18 -13 -35t-7 -37q0 -25 9 -49.5t17 -48.5q7 -21 21.5 -39.5t26.5 -38.5
q27 -37 59 -70t65 -66q22 -18 46.5 -33.5t47.5 -32.5q-51 0 -103 -1t-103 -3q0 -27 -1 -55t-1 -57h556l2 110q-52 1 -104.5 1.5t-105.5 2.5q12 9 23 18t23 18q24 19 49.5 37t46.5 41q21 24 43 46.5t39 49.5q15 19 26 41t20 45q10 21 14 43.5t4 46.5q-1 21 -5.5 41t-16.5 37
q-7 19 -20.5 32.5l-27.5 27.5q-12 13 -26.5 22.5t-29.5 17.5q-39 24 -81 40t-83 34q-9 6 -11.5 16.5t-8.5 19.5l46 38q-22 18 -46 36zM646 620v0v-6q7 -55 11.5 -110.5t4.5 -111.5v-2l-6.5 -13.5t-21.5 -34.5q-16 -22 -42.5 -48t-67.5 -52v-1.5v-0.5h-1.5h-0.5
q-1 -1 -1.5 -0.5t-2.5 0.5v-1v-1h-1.5t-0.5 2v0h-2v0v0v0v0v0v0q-40 27 -66.5 53t-43.5 47q-15 21 -21.5 35.5l-6.5 14.5v0v0q0 57 4 112.5t12 111.5v6l6 -2q25 -6 56.5 -11t61.5 -5q31 0 61 4.5t63 13.5h6z" />
    <glyph glyph-name="P" unicode="P" 
d="M472 910q-25 -15 -37.5 -38.5l-12.5 -23.5h-42l-22.5 33.5t-39.5 18.5v-31t12 -31q-3 -24 -22.5 -48l-19.5 -24l-19 -33q-19 -32 -42 -74t-42 -83q-19 -40 -19 -56q0 -76 32.5 -79t49.5 -3q18 12 11.5 27t8.5 15q21 0 2.5 -23.5t-2.5 -38.5q33 -6 44 22t58 60
q27 18 71 53t71 73q14 -109 -10 -156q-23 -48 -57.5 -75.5t-65.5 -54.5q-31 -28 -31 -96h-40l-2 -60l-64 -64v-134h108v54h134v-54h134v54h134v-54h106v134l-60 62v62h22q4 161 -17 271t-63 179t-105 102q-63 34 -143 42l-1.5 36t-18.5 36zM368 764q4 -6 4.5 -14t-2.5 -14
q-4 -7 -11 -11.5t-15 -4.5q-7 -1 -14 2.5t-12 9.5l26 16z" />
    <glyph glyph-name="Q" unicode="Q" 
d="M516 940l-108 -74q9 -9 17.5 -16.5t16.5 -15.5q12 -7 16.5 -16.5t-4.5 -21.5q-3 -15 -15.5 -21t-26.5 -9q-37 -12 -74.5 -28t-73.5 -34q-30 -10 -53 -31t-47 -39q-10 -13 -21 -28t-19 -30q-6 -19 -14.5 -39t-7.5 -41q-1 -28 9.5 -54t18.5 -52q10 -24 26 -44.5t28 -41.5
q31 -42 68.5 -78t75.5 -72q24 -21 52.5 -37.5t55.5 -34.5q-60 -1 -118.5 -2.5t-117.5 -1.5q-1 -31 -1.5 -61.5t-0.5 -62.5h634l2 120q-60 1 -120 2.5t-120 3.5q13 9 25.5 19t26.5 19q27 21 56.5 40.5t53.5 45.5q24 27 50 51.5t44 54.5q16 21 28.5 45.5t23.5 48.5
q12 22 16.5 47t3.5 51q-1 22 -5.5 45t-18.5 43q-9 19 -24 34t-32 30q-13 15 -29.5 26t-34.5 20q-43 25 -91 42.5t-95 37.5q-10 6 -13 17.5t-9 22.5l52 40q-27 19 -53 39.5t-53 40.5zM368 660q1 0 3 -3t5 -9q37 -78 68.5 -147t57.5 -131q7 -13 10.5 -20.5t5.5 -7.5q1 0 4 5.5
t8 16.5q21 48 49.5 118.5t66.5 163.5q1 6 4 9t6 3h11.5t18.5 -2h18h14q3 0 5.5 -1.5t2.5 -6.5q0 -16 -1 -41.5t-3 -58.5q0 -34 -1 -59.5t-1 -42.5q0 -16 1 -40t3 -56q1 -33 1.5 -57t0.5 -39q0 -4 -1.5 -6t-6.5 -2h-6.5h-9.5q-6 1 -10 1.5t-6 0.5h-7.5t-10.5 -2h-9.5h-6.5
q-4 0 -6 2.5t-2 7.5v46t2 66q1 36 1.5 64t0.5 46v4.5t-2 1.5h-1.5t-2.5 -2q-7 -16 -25 -58.5t-47 -113.5q-6 -12 -12.5 -29t-15.5 -37q-1 -1 -6 -2.5t-16 -1.5q-15 0 -22.5 1.5t-9.5 4.5q-4 12 -11.5 28.5t-18.5 37.5q-12 28 -31 71.5t-45 100.5q-1 1 -1.5 2.5t-2.5 1.5
q-1 0 -1.5 -1.5t-0.5 -4.5v-46v-66q1 -39 1.5 -67.5t0.5 -46.5q0 -4 -1.5 -7t-6.5 -3h-6.5h-9.5q-4 1 -8.5 1.5t-7.5 0.5h-6.5t-9.5 -2h-8.5h-7.5q-4 0 -6 1.5t-2 4.5q0 16 1 40t3 56q1 33 1.5 57t0.5 41v41.5t-2 60.5q-1 33 -2.5 58t-1.5 42q0 3 1.5 4.5t6.5 3.5
q19 1 35 2.5t27 1.5z" />
    <glyph glyph-name="R" unicode="R" 
d="M518 856q-16 0 -26 -19.5t-22 -46.5v-1.5t2 -0.5q-34 -15 -69.5 -39t-52.5 -47h-6q-49 0 -83.5 -35t-34.5 -85v-54q0 -21 6 -40t20 -34q-19 -38 -40 -76q-22 -37 -48 -74.5t-57 -73.5q-31 -37 -69 -74q13 -21 81.5 -28t134.5 -84q7 8 19 45q11 37 23.5 89.5t26.5 113.5
q13 60 25 116h330q11 -55 24 -117q13 -61 25.5 -113.5t23.5 -90.5q10 -38 17 -47q67 75 135.5 82t82.5 28q-37 37 -69 75q-31 38 -56.5 76t-47.5 77q-21 38 -39 76q12 15 18 34t6 40v54q0 49 -34 84.5t-84 35.5h-4q-16 21 -49.5 45t-66.5 39q1 0 2.5 1l1.5 1q-9 27 -19 47.5
t-27 20.5zM390 366l-62 -248q127 -36 189 -36t179 36l-62 248h-244z" />
    <glyph glyph-name="S" unicode="S" 
d="M102 858h206v-206h-206v206zM410 858h204v-206h-204v206zM102 244h206v-206h-206v206zM716 858h206v-206h-206v206zM410 244h204v-206h-204v206zM716 244h206v-206h-206v206z" />
    <glyph glyph-name="T" unicode="T" 
d="M960 704h-354l140 140q9 9 9 22t-9 22q-10 10 -23.5 10t-22.5 -10l-184 -184h-38l-186 184q-9 10 -22 10t-22 -10q-9 -9 -9 -22t9 -22l140 -140h-324q-27 0 -45.5 -18.5t-18.5 -45.5v-576q0 -27 18.5 -45.5t45.5 -18.5h896q27 0 45.5 18.5t18.5 45.5v576q0 27 -18.5 45.5
t-45.5 18.5zM704 128h-576v448h576v-448zM896 320h-64v64h64v-64zM896 448h-64v64h64v-64z" />
    <glyph glyph-name="U" unicode="U" 
d="M694 100q0 -3 -0.5 -6t-3.5 -6t-6 -4.5t-8 -1.5h-548h-4.5t-3.5 2q-1 0 -2.5 1t-1.5 3q-1 1 -2.5 1.5t-1.5 2.5q0 1 -1 2.5t-1 3.5v4.5v3.5v342h-110q-7 0 -13.5 2.5t-12.5 7.5q-4 6 -7 12t-3 14q0 7 1.5 13t6.5 11l182 220q6 6 13 9t15 3q9 0 16 -3t12 -9l184 -220
q4 -4 6 -10t2 -14q0 -7 -2.5 -13.5t-7.5 -12.5q-6 -4 -12 -7t-14 -3h-110v-220h330q4 0 7.5 -1.5t6.5 -4.5l90 -110q3 -3 3.5 -6t0.5 -6zM1060 338q0 -6 -1.5 -12t-6.5 -12l-182 -218q-6 -7 -13 -10.5t-15 -3.5q-9 0 -16 3t-12 11l-184 218q-4 6 -6 12t-2 12q0 7 2.5 13.5
t7.5 12.5q6 6 12 8t14 2h110v220h-330q-4 0 -7.5 1.5t-6.5 6.5l-90 108q-3 3 -3.5 6t-0.5 6q0 4 0.5 7.5t3.5 6.5q3 1 6 2.5t8 1.5h548h4.5h3.5q1 -1 2.5 -1.5t1.5 -2.5l2.5 -2.5t1.5 -3.5l1 -1.5t1 -4.5v-3.5v-2.5v-344h110q7 0 13.5 -2t12.5 -8q4 -6 7 -12t3 -14z" />
    <glyph glyph-name="V" unicode="V" 
d="M250 858h524q61 0 104.5 -43t43.5 -105v-524q0 -61 -43 -104.5t-105 -43.5h-524q-61 0 -104.5 43t-43.5 105v524q0 61 43 104.5t105 43.5zM828 684q0 42 -30 72t-72 30q-43 0 -72.5 -30t-29.5 -72q0 -43 29 -73.5t73 -30.5q42 0 72 30t30 74zM828 458q0 42 -30 72t-72 30
q-43 0 -72.5 -30t-29.5 -72t29 -72t73 -30q42 0 72 30t30 72zM828 232q0 43 -30 73.5t-72 30.5q-43 0 -72.5 -30t-29.5 -74q0 -42 29 -72t73 -30q42 0 72 30t30 72zM394 678q0 42 -30 72t-74 30q-42 0 -72 -30t-30 -72t30 -72t72 -30q43 0 73.5 30t30.5 72zM394 452
q0 43 -30 73.5t-74 30.5q-42 0 -72 -30t-30 -74q0 -42 30 -72t72 -30q43 0 73.5 30t30.5 72zM394 228q0 42 -30 72t-74 30q-42 0 -72 -30t-30 -72q0 -43 30 -72.5t72 -29.5q43 0 73.5 29t30.5 73z" />
    <glyph glyph-name="W" unicode="W" 
d="M804 412v72q0 7 -2.5 14t-7.5 12q-6 6 -12 9t-14 3h-182v182q0 7 -3 13.5t-9 12.5q-4 4 -11 7t-15 3h-72q-7 0 -14 -2.5t-12 -7.5q-6 -6 -9 -12t-3 -14v-182h-182q-7 0 -13.5 -3t-12.5 -9q-4 -4 -7 -11t-3 -15v-72q0 -7 2.5 -14t7.5 -12q6 -6 12 -9t14 -3h182v-182
q0 -7 3 -13.5t9 -12.5q4 -4 11 -7t15 -3h72q7 0 14 2.5t12 7.5q6 6 9 12t3 14v182h182q7 0 13.5 3t12.5 9q4 4 7 11t3 15zM950 722v-548q0 -34 -12 -63t-36 -53t-52.5 -36t-63.5 -12h-548q-34 0 -63 12t-53 36t-36 52.5t-12 63.5v548q0 34 12 63t36 53t52.5 36t63.5 12h548
q34 0 63 -12t53 -36t36 -52.5t12 -63.5z" />
    <glyph glyph-name="X" unicode="X" 
d="M1024 320q0 -48 -18 -112.5t-54 -145.5q-1 -1 -2.5 -4.5t-3.5 -9.5q-3 -4 -4.5 -8.5t-3.5 -7.5q-1 -4 -3.5 -7.5t-4.5 -6.5q-3 -4 -7 -6t-9 -2q-4 0 -7.5 1t-6.5 3q-1 3 -2.5 7t-1.5 9v5t2 9v8v6q1 19 2.5 37t1.5 33q0 28 -2.5 54t-7.5 50q-4 22 -11.5 41.5t-16.5 36.5
q-9 16 -20.5 31t-25.5 27q-13 12 -28 22t-32 18q-16 7 -34.5 13t-41.5 11q-22 4 -43.5 7t-44.5 5q-22 1 -46.5 2.5t-53.5 1.5h-128v-146q0 -7 -3 -13.5t-9 -12.5q-4 -6 -10 -8t-14 -2q-7 0 -14 2t-12 8l-294 292q-4 6 -7 12t-3 14q0 7 2.5 13.5t7.5 12.5l294 292q4 6 11 9
t15 3q7 0 13 -3t11 -9q6 -4 9 -11t3 -15v-146h128q102 0 184 -14q82 -15 144.5 -43.5t105.5 -71.5t66 -101q15 -37 22.5 -85t7.5 -105z" />
    <glyph glyph-name="Y" unicode="Y" 
d="M832 0h-44q39 25 71 60q31 34 53.5 75t35.5 88q12 47 12 97q0 67 -22 128t-61 110t-92 83q-53 35 -115 51l72 136q6 13 2 26.5t-16 19.5l-172 82q-6 3 -12 3t-14 -1q-6 -3 -10.5 -7.5t-7.5 -10.5l-204 -388q-12 -25 -4 -51t32 -37l-28 -58l114 -56l28 58q24 -12 50 -2
t38 36l70 130q47 -5 88 -27t71 -55.5t48 -77.5q17 -43 17 -92q0 -53 -20 -100t-54.5 -81.5t-81.5 -54.5t-100 -20q-48 0 -103.5 17t-88.5 47v32q0 13 9 22.5t23 9.5h160v64h-512v-64h160q13 0 22.5 -9t9.5 -23v-160q-52 0 -90 -5.5t-38 -58.5h832q0 52 -37.5 58t-90.5 6z
M608 874q-6 -3 -11.5 -7.5t-8.5 -12.5l-148 -278l-56 28q1 3 1.5 6t2.5 6l140 260q3 6 7.5 10.5t10.5 7.5q7 1 13.5 1t12.5 -3l36 -18v0v0v0z" />
    <glyph glyph-name="Z" unicode="Z" 
d="M438 10h512v364h-236q-12 0 -22 4t-18 12q-7 9 -11.5 18.5t-4.5 21.5v238h-220v-658zM586 832v36q0 4 -1.5 7.5t-4.5 6.5t-6 3.5t-8 0.5h-402q-3 0 -6 -0.5t-6 -3.5t-4.5 -6t-1.5 -8v-36q0 -3 1.5 -6.5t4.5 -5.5q3 -3 6 -4.5t6 -1.5h402q4 0 7.5 1.5t6.5 4.5q3 1 4.5 5
t1.5 7zM732 448h170l-170 170v-170zM1024 374v-384q0 -10 -4 -20t-12 -18q-7 -7 -17 -11.5t-21 -4.5h-550q-10 0 -20 4t-18 12q-7 7 -11.5 17t-4.5 21v92h-312q-10 0 -20 4t-18 12q-7 7 -11.5 17.5t-4.5 22.5v768q0 10 4 20t12 18q7 7 17 11.5t21 4.5h622q12 0 21.5 -4
t18.5 -12q7 -7 11.5 -17t4.5 -21v-188q6 -4 10.5 -7.5t9.5 -8.5l234 -234q7 -7 13.5 -17.5t12.5 -24.5q6 -15 9 -27.5t3 -24.5z" />
    <glyph glyph-name="bracketleft" unicode="[" 
d="M816 788l-304 -304l304 -302q4 -6 7 -12t3 -14q0 -7 -2.5 -14t-7.5 -12l-96 -96q-4 -4 -11 -7t-15 -3q-7 0 -13 2.5t-11 7.5l-424 424q-6 6 -9 12t-3 14q0 7 3 14t9 12l424 424q4 6 10 9t14 3q7 0 14 -3t12 -9l96 -94q4 -6 7 -12t3 -14q0 -7 -2.5 -13.5t-7.5 -12.5z" />
    <glyph glyph-name="backslash" unicode="\" 
d="M314 824q-39 0 -72.5 -11t-57.5 -37q-40 -39 -45.5 -99.5t15.5 -128.5q7 -24 17.5 -49t24.5 -51q-13 -25 -23.5 -50.5t-18.5 -49.5q-21 -67 -16 -128t44 -102q40 -39 101 -44t129 16q24 7 49 17.5t51 24.5q25 -13 50.5 -23.5t49.5 -18.5q67 -21 128 -16t102 44
q39 40 44 101t-16 129q-7 24 -17.5 49t-24.5 51q13 25 23.5 50.5t18.5 49.5q21 67 16 128t-44 102q-40 39 -101 44t-129 -16q-24 -7 -49 -17.5t-51 -24.5q-25 13 -50.5 23.5t-49.5 18.5q-25 9 -50 12.5t-48 5.5zM314 782q19 0 40.5 -4t45.5 -10q16 -6 34 -13.5t36 -16.5
q-34 -22 -69.5 -49.5t-68.5 -60.5t-60 -68t-50 -70q-9 18 -16.5 35.5t-13.5 34.5q-19 61 -14 110t34 78q18 18 43.5 26.5t58.5 7.5zM710 782q33 1 58.5 -7.5t43.5 -26.5q28 -28 33.5 -77t-13.5 -111q-6 -16 -13.5 -34t-16.5 -36q-22 34 -49.5 69.5t-60.5 68.5t-68 60t-70 50
q18 9 35.5 16.5t34.5 13.5q24 6 45 10t41 4zM512 716q37 -22 75.5 -52t74.5 -66t65.5 -74t52.5 -76q-22 -37 -52 -75.5t-66 -74.5t-74 -65.5t-76 -52.5q-37 22 -75.5 52t-74.5 66t-65.5 74t-52.5 76q22 37 52 75.5t66 74.5t74 65.5t76 52.5zM802 406q9 -18 16.5 -35.5
t13.5 -34.5q19 -61 14 -110t-34 -78q-28 -28 -77 -33.5t-111 13.5q-16 6 -34 13.5t-36 16.5q34 22 69.5 49.5t68.5 60.5t60 68t50 70zM222 406q22 -34 49.5 -69.5t60.5 -68.5t68 -60t70 -50q-18 -9 -35.5 -16.5t-34.5 -13.5q-61 -19 -110 -14t-78 34q-28 28 -33.5 77
t13.5 111q6 16 13.5 34t16.5 36zM512 604q-49 0 -91.5 -3t-50.5 -11q-7 -7 -11 -50q-4 -42 -4 -91.5t4 -92.5q3 -42 11 -50q7 -7 50 -11q42 -4 91.5 -4t92.5 4q42 3 50 11q7 7 11 50q4 42 4 91.5t-4 92.5q-3 42 -11 50q-7 7 -49.5 10.5t-92.5 3.5zM442 574q15 0 25.5 -10.5
t10.5 -25.5t-10.5 -25.5t-25.5 -10.5t-25.5 10.5t-10.5 25.5t10.5 25.5t25.5 10.5zM584 574q13 0 23.5 -10.5t10.5 -25.5t-10 -25.5t-24 -10.5q-15 0 -25.5 10.5t-10.5 25.5t10.5 25.5t25.5 10.5zM440 484q15 0 25.5 -10.5t10.5 -25.5t-10.5 -25.5t-25.5 -10.5
q-13 0 -23.5 10.5t-10.5 25.5t10 25.5t24 10.5zM582 484q6 0 12.5 -3t11.5 -9q6 -4 9 -11t3 -13q0 -15 -10.5 -25.5t-25.5 -10.5t-25.5 10.5t-10.5 25.5t10.5 25.5t25.5 10.5zM442 392q15 0 25.5 -10t10.5 -24q0 -15 -10.5 -25.5t-25.5 -10.5t-25.5 10.5t-10.5 25.5
q0 13 10.5 23.5t25.5 10.5zM582 392q15 0 25.5 -10t10.5 -24q0 -15 -10.5 -25.5t-25.5 -10.5t-25.5 10.5t-10.5 25.5q0 13 10.5 23.5t25.5 10.5z" />
    <glyph glyph-name="bracketright" unicode="]" 
d="M778 458l-424 -424q-4 -4 -10 -7t-14 -3q-7 0 -14 2.5t-12 7.5l-96 96q-4 4 -7 11t-3 15q0 7 2.5 13.5t7.5 12.5l304 302l-304 304q-4 6 -7 12t-3 14q0 7 2.5 13.5t7.5 12.5l96 94q4 6 11 9t15 3q7 0 13 -3t11 -9l424 -424q6 -4 9 -11t3 -15q0 -7 -3 -13.5t-9 -12.5z" />
    <glyph glyph-name="asciicircum" unicode="^" 
d="M512 10q-7 0 -13.5 2t-12.5 8l-356 344q-3 1 -6.5 5t-9.5 9q-4 6 -12 15t-20 23q-10 13 -19.5 27t-18.5 29q-9 13 -16.5 30.5t-13.5 37.5q-7 21 -10.5 40.5t-3.5 39.5q0 63 18 111.5t54 84.5t86.5 53t115.5 17q16 0 34 -3t38 -9q18 -6 34.5 -13.5t33.5 -18.5
q16 -10 29.5 -20.5t24.5 -19.5q12 -9 22.5 -18t21.5 -20q10 10 21 19.5t23 18.5q10 9 23.5 19t30.5 21q16 10 33 18t35 14q19 6 37 9t35 3q64 0 115 -17t87 -53t54 -84.5t18 -111.5t-32.5 -127.5t-97.5 -130.5l-356 -342q-6 -6 -12 -8t-14 -2z" />
    <glyph glyph-name="underscore" unicode="_" 
d="M512 934q-17 -88 -74 -170q-56 -82 -123.5 -151t-132.5 -121q-64 -52 -98 -80q60 4 113 10q53 7 96.5 13.5t77.5 11.5q33 5 53 5q-10 -128 -61 -190q-51 -61 -108.5 -100t-104.5 -78q-46 -39 -46 -122h93h100.5h105.5h109h109h105.5h100.5h93q0 83 -46 122
q-47 39 -104.5 78t-108.5 100q-51 62 -61 190q20 0 53 -5q34 -5 77.5 -11.5t96.5 -13.5q53 -6 113 -10q-34 28 -98 80q-65 52 -132.5 121t-123.5 151q-57 82 -74 170z" />
    <glyph glyph-name="grave" unicode="`" 
d="M806 492q-6 4 -13 9.5t-15 8.5q1 4 3.5 8.5t4.5 9.5q30 63 54 127t30 91q15 61 -18.5 115.5t-95.5 68.5q-9 3 -18 3.5t-18 0.5q-54 0 -96 -32.5t-54 -85.5q-6 -28 -12 -97.5t-8 -140.5h-19h-19h-19h-19q-1 70 -7.5 139.5t-12.5 98.5q-12 52 -54 85t-96 33q-9 0 -18 -0.5
t-18 -3.5q-61 -13 -95 -67.5t-19 -116.5q6 -27 30 -91t54 -127q1 -4 3.5 -8.5t4.5 -9.5q-7 -3 -14.5 -8t-13.5 -10q-63 -43 -96.5 -101t-33.5 -121q0 -64 33.5 -121t96.5 -101q58 -42 134.5 -64t159.5 -22q82 0 158.5 22t135.5 64q63 43 96.5 100t33.5 122q0 63 -33.5 120.5
t-96.5 101.5zM344 278q-15 0 -26.5 11.5t-11.5 28.5q0 15 11.5 26.5t26.5 11.5q16 0 28 -11.5t12 -26.5q0 -16 -11.5 -28t-28.5 -12zM512 128l-26 16t-26 36q0 10 7.5 18t18.5 8h52q10 0 18 -7.5t8 -18.5q0 -19 -26 -35.5zM680 278q-16 0 -28 11.5t-12 28.5q0 15 11.5 26.5
t28.5 11.5q15 0 26.5 -11.5t11.5 -26.5q0 -16 -11.5 -28t-26.5 -12z" />
    <glyph glyph-name="a" unicode="a" 
d="M512 138v620q-42 0 -81 -10t-75 -30q-36 -21 -64.5 -49.5t-49.5 -64.5q-19 -36 -29.5 -75t-10.5 -81t10 -81t30 -75q21 -36 49.5 -64.5t64.5 -49.5q36 -19 75 -29.5t81 -10.5zM950 448q0 -60 -14 -115t-44 -105q-30 -51 -69.5 -90.5t-90.5 -69.5q-49 -30 -104.5 -44
t-115.5 -14t-115 14t-105 44q-51 30 -90.5 69.5t-69.5 90.5q-30 49 -44 104.5t-14 115.5t14 115t44 105q30 51 69.5 90.5t90.5 69.5q49 30 104.5 44t115.5 14t115 -14t105 -44q51 -30 90.5 -69.5t69.5 -90.5q30 -49 44 -104.5t14 -115.5z" />
    <glyph glyph-name="b" unicode="b" 
d="M950 448q0 -60 -14 -115t-44 -105q-30 -51 -69.5 -90.5t-90.5 -69.5q-49 -30 -104.5 -44t-115.5 -14t-115 14t-105 44q-51 30 -90.5 69.5t-69.5 90.5q-30 49 -44 104.5t-14 115.5t14 115t44 105q30 51 69.5 90.5t90.5 69.5q49 30 104.5 44t115.5 14t115 -14t105 -44
q51 -30 90.5 -69.5t69.5 -90.5q30 -49 44 -104.5t14 -115.5z" />
    <glyph glyph-name="c" unicode="c" 
d="M512 758q-42 0 -81 -10t-75 -30q-36 -21 -64.5 -49.5t-49.5 -64.5q-19 -36 -29.5 -75t-10.5 -81t10 -81t30 -75q21 -36 49.5 -64.5t64.5 -49.5q36 -19 75 -29.5t81 -10.5t81 10t75 30q36 21 64.5 49.5t49.5 64.5q19 36 29.5 75t10.5 81t-10 81t-30 75q-21 36 -49.5 64.5
t-64.5 49.5q-36 19 -75 29.5t-81 10.5zM950 448q0 -60 -14 -115t-44 -105q-30 -51 -69.5 -90.5t-90.5 -69.5q-49 -30 -104.5 -44t-115.5 -14t-115 14t-105 44q-51 30 -90.5 69.5t-69.5 90.5q-30 49 -44 104.5t-14 115.5t14 115t44 105q30 51 69.5 90.5t90.5 69.5
q49 30 104.5 44t115.5 14t115 -14t105 -44q51 -30 90.5 -69.5t69.5 -90.5q30 -49 44 -104.5t14 -115.5z" />
    <glyph glyph-name="d" unicode="d" 
d="M950 362v352q-48 -25 -91.5 -38.5t-82.5 -13.5q-24 0 -44 4.5t-38 15.5q-28 13 -55 23.5t-51 18.5q-24 9 -49.5 12.5t-52.5 3.5q-49 0 -106.5 -18t-123.5 -54v-342q70 31 132 47.5t116 16.5q15 0 29.5 -1t28.5 -3q15 -1 28.5 -5t27.5 -9q15 -6 25.5 -10.5t18.5 -7.5
q9 -4 20 -9.5t28 -14.5l16 -8q12 -6 26.5 -9t31.5 -3q34 0 75 13t91 39zM182 814q0 -10 -2 -19t-8 -17q-4 -9 -10.5 -15.5t-15.5 -12.5v-722q0 -4 -1 -7.5t-3 -6.5q-3 -3 -6 -3.5t-8 -0.5h-36q-4 0 -7.5 0.5t-6.5 3.5t-3.5 6t-0.5 8v722q-9 6 -15.5 12.5t-12.5 15.5
q-4 7 -7 16t-3 20q0 15 5.5 28t16.5 24q10 10 23.5 15t28.5 5t28 -4.5t24 -15.5q10 -10 15 -23.5t5 -28.5zM1024 778v-436q0 -12 -4.5 -20t-15.5 -14q-3 -1 -5.5 -2.5t-4.5 -1.5q-61 -33 -114.5 -49.5t-95.5 -16.5q-25 0 -47.5 4.5t-42.5 15.5l-16 8q-19 9 -33 15t-25 11
q-9 4 -22 8.5t-30 9.5q-15 3 -31 5.5t-33 2.5q-30 0 -63.5 -7t-72.5 -19q-37 -12 -70 -26.5t-60 -31.5q-4 -3 -8.5 -4.5t-9.5 -1.5q-4 0 -8.5 1.5t-9.5 4.5q-10 4 -15 12.5t-5 19.5v424q0 9 4.5 16.5t13.5 13.5q10 6 21 12t25 12q12 7 28 14t36 16q21 9 42.5 16t45.5 12
q22 6 44.5 9t43.5 3q31 0 61 -4.5t59 -13.5q27 -9 57 -21t63 -29q10 -4 22.5 -7t27.5 -3q34 0 79 16t99 48q6 3 10 5.5t6 4.5q9 4 18 4t18 -6t13.5 -13.5t4.5 -16.5z" />
    <glyph glyph-name="e" unicode="e" 
d="M502 886q-12 0 -23.5 -4.5t-20.5 -13.5t-14.5 -20.5t-5.5 -25.5v-374h-18v302q0 13 -4.5 24t-13.5 20q-9 10 -20.5 15t-25.5 5q-12 0 -23.5 -4.5t-20.5 -15.5q-10 -9 -15 -19.5t-5 -24.5v-448l-88 116q-10 15 -25 22.5t-33 7.5q-15 0 -28 -5.5t-24 -16.5
q-10 -10 -15 -22.5t-5 -29.5q0 -12 3 -22.5t11 -21.5l220 -292q10 -15 25 -21.5t33 -6.5h392q10 0 19 3t17 9q7 6 12 13.5t8 18.5l42 232q1 9 2.5 16.5t1.5 15.5v286q0 12 -4.5 23.5t-15.5 20.5q-9 10 -20.5 15t-23.5 5q-13 0 -25 -4.5t-21 -15.5q-9 -9 -13.5 -20.5
t-4.5 -23.5v-156h-18v302q0 13 -5.5 24t-14.5 20q-9 10 -20.5 15t-23.5 5q-13 0 -25 -4.5t-21 -15.5q-9 -9 -13.5 -19.5t-4.5 -24.5v-302h-20v374q0 13 -4.5 25t-13.5 21t-20.5 13.5t-25.5 4.5zM502 960q19 0 37 -4.5t35 -15.5q16 -10 29.5 -24t22.5 -32q4 1 10 1.5t14 0.5
q27 0 51.5 -9.5t44.5 -30.5q19 -19 29.5 -43t10.5 -53v-10q30 1 55.5 -7.5t48.5 -28.5q21 -21 31.5 -45.5t10.5 -54.5v-286q0 -10 -0.5 -22t-3.5 -24l-44 -232q-3 -22 -14.5 -40.5t-29.5 -33.5q-16 -15 -37 -22.5t-45 -7.5h-392q-18 0 -33.5 4t-32.5 12q-15 7 -28 17.5
t-24 24.5l-218 292q-15 19 -22.5 41.5t-7.5 46.5q0 31 10.5 57t31.5 47q22 21 48 32.5t56 11.5q22 0 40.5 -5.5t33.5 -14.5v248q0 28 9.5 52t30.5 44q19 21 43 30.5t53 9.5h13t11 -2q9 18 22 31.5t30 24.5q16 10 33 15t37 5z" />
    <glyph glyph-name="f" unicode="f" 
d="M950 832v-640q0 -15 -4.5 -27t-13.5 -23q-10 -12 -22.5 -21t-27.5 -15t-29.5 -10.5t-28.5 -7.5q-15 -3 -28.5 -4.5t-27.5 -1.5q-13 0 -27 1.5t-29 4.5q-13 3 -28 7.5t-30 10.5t-27 15t-23 21q-9 10 -13.5 22.5t-4.5 27.5t4.5 27t13.5 23q10 12 22.5 21t27.5 15t29.5 10.5
t28.5 7.5q15 3 28.5 4.5t27.5 1.5q30 0 57 -5.5t53 -16.5v306l-440 -136v-404q0 -15 -4.5 -27.5t-13.5 -24.5q-10 -10 -22.5 -19t-27.5 -15t-29.5 -10.5t-28.5 -7.5q-15 -3 -28.5 -4.5t-27.5 -1.5q-13 0 -27 1.5t-29 4.5q-13 3 -28 7.5t-30 10.5t-27 14.5t-23 19.5
q-9 12 -13.5 24.5t-4.5 27.5q0 13 4.5 26t13.5 24q10 12 22.5 20t27.5 16q15 6 29.5 10.5t28.5 7.5q15 3 28.5 4.5t27.5 1.5q30 0 57 -5.5t53 -16.5v552q0 9 2.5 16.5t7.5 15.5q6 7 13 12t15 8l476 146q3 1 7 1.5t9 0.5q12 0 21 -3.5t17 -12.5q9 -7 12.5 -16.5t3.5 -21.5z
" />
    <glyph glyph-name="g" unicode="g" 
d="M694 484q0 54 -18 99t-56 83q-37 37 -82.5 55.5t-99.5 18.5q-52 0 -97 -18t-83 -56q-37 -37 -56.5 -82.5t-19.5 -99.5q0 -52 19 -97t57 -83q37 -37 82 -56.5t98 -19.5q54 0 99 19t83 57q37 37 55.5 82t18.5 98zM988 10q0 -15 -5.5 -28t-16.5 -24q-10 -10 -23.5 -16
t-28.5 -6t-28 5.5t-24 16.5l-196 196q-51 -36 -108 -54t-120 -18q-40 0 -79 7.5t-77 24.5q-37 16 -69 37.5t-59 48.5t-48 58.5t-38 69.5q-15 37 -23.5 76t-8.5 80q0 42 8.5 81t23.5 75q16 37 37.5 70t48.5 60t58.5 48t69.5 38q37 15 76 22.5t80 7.5q42 0 81 -7.5t77 -22.5
q36 -16 68.5 -37.5t59.5 -48.5t48 -59.5t38 -70.5q15 -36 23.5 -75t8.5 -81q0 -63 -18 -120t-54 -108l196 -196q10 -10 16 -22.5t6 -27.5z" />
    <glyph glyph-name="h" unicode="h" 
d="M750 448q0 -7 -3 -13.5t-9 -12.5l-310 -310q-6 -6 -12 -9t-14 -3q-7 0 -13.5 3t-12.5 9q-4 4 -7 11t-3 15v164h-256q-7 0 -13.5 2.5t-12.5 7.5q-6 6 -8 12t-2 14v220q0 7 2 13.5t8 12.5q6 4 12 7t14 3h256v164q0 7 2.5 14t7.5 12q6 6 12 9t14 3q7 0 13.5 -3t12.5 -9
l310 -310q6 -6 9 -12t3 -14zM950 650v-404q0 -33 -12 -62.5t-36 -53.5t-52.5 -36t-63.5 -12h-182q-4 0 -7.5 1.5t-6.5 4.5t-3.5 6t-0.5 6q0 1 -1 4t-1 8v8.5v7.5t1 6t1 6q0 4 1.5 7t4.5 5q1 1 4 2.5t8 1.5h182q19 0 34.5 6t29.5 20q13 13 20.5 29.5t7.5 34.5v404q0 18 -7 34
t-21 30q-13 13 -28.5 19.5t-35.5 6.5h-178l-6 2h-8l-4 4l-4 6v6q0 1 -1 4t-1 8v8.5v7.5t1 6t1 6q0 4 1.5 7t4.5 5q1 1 4 2.5t8 1.5h182q34 0 63 -12t53 -36t36 -53.5t12 -62.5z" />
    <glyph glyph-name="i" unicode="i" 
d="M402 138v-4v-8q1 -4 1.5 -8.5t0.5 -7.5q-1 -3 -1.5 -6t-0.5 -6q-1 -4 -2.5 -7t-3.5 -5q-3 -1 -6 -2.5t-6 -1.5h-182q-34 0 -63 12t-55 36q-24 24 -36 53.5t-12 62.5v404q0 33 12 62.5t36 53.5q25 24 54 36t64 12h182q3 0 6.5 -1.5t5.5 -4.5q3 -3 4.5 -6t1.5 -6v-4v-8
q1 -4 1.5 -8.5t0.5 -7.5q-1 -3 -1.5 -6t-0.5 -6q-1 -4 -2.5 -7t-3.5 -5q-3 -1 -6 -2.5t-6 -1.5h-182q-19 0 -35.5 -6t-30.5 -20q-13 -13 -19.5 -29.5t-6.5 -34.5v-404q0 -18 6 -34t20 -30q13 -13 29.5 -19.5t36.5 -6.5h178l6 -2h6l6 -4l4 -6v-6zM932 448q0 -7 -2.5 -13.5
t-7.5 -12.5l-312 -310q-4 -6 -10 -9t-14 -3q-7 0 -14 3t-12 9q-6 4 -9 11t-3 15v164h-256q-7 0 -13.5 2.5t-12.5 7.5q-4 6 -7 12t-3 14v220q0 7 2.5 13.5t7.5 12.5q6 4 12 7t14 3h256v164q0 7 3 14t9 12q4 6 11 9t15 3q7 0 13 -3t11 -9l312 -310q4 -6 7 -12t3 -14z" />
    <glyph glyph-name="j" unicode="j" 
d="M852 204q0 -10 -4 -20t-12 -18l-78 -78q-7 -7 -17.5 -11.5t-22.5 -4.5q-10 0 -20 4t-18 12l-168 168l-168 -168q-7 -7 -17 -11.5t-21 -4.5q-12 0 -22 4t-18 12l-78 78q-7 7 -11.5 17t-4.5 21q0 12 4 21.5t12 18.5l168 168l-168 168q-7 7 -11.5 17t-4.5 21q0 12 4 21.5
t12 18.5l78 76q7 9 17.5 12.5t22.5 3.5q10 0 20 -3.5t18 -12.5l168 -168l168 168q7 9 17 12.5t21 3.5q12 0 22 -3.5t18 -12.5l78 -76q7 -9 11.5 -18.5t4.5 -21.5q0 -10 -4 -20t-12 -18l-168 -168l168 -168q7 -9 11.5 -18.5t4.5 -21.5z" />
    <glyph glyph-name="k" unicode="k" 
d="M476 758v-620q0 -7 -3 -14t-9 -12q-4 -6 -11 -9t-15 -3q-7 0 -13 3t-11 9l-192 190h-148q-7 0 -14 2.5t-12 7.5q-6 6 -9 12t-3 14v220q0 7 3 13.5t9 12.5q4 4 11 7t15 3h148l192 190q4 6 10 9t14 3q7 0 14 -3t12 -9q6 -4 9 -11t3 -15zM694 448q0 -21 -6 -41.5t-18 -38.5
q-12 -19 -28 -32.5t-36 -21.5q-3 -1 -6 -2.5t-8 -1.5q-7 0 -13.5 3t-12.5 9q-4 4 -7 11t-3 15q0 6 1.5 10.5t4.5 9.5q3 4 7 7.5t9 6.5q6 3 10.5 6t9.5 8q4 3 8.5 7.5t7.5 12.5q4 6 6 14.5t2 17.5t-1.5 17.5t-6.5 14.5q-3 7 -7 12t-9 8q-4 4 -9 7.5t-11 6.5q-4 3 -8.5 6
t-7.5 8q-3 4 -4.5 9t-1.5 11q0 7 2.5 14t7.5 12q6 6 12 9t14 3q4 0 7.5 -1t6.5 -3q19 -7 35.5 -20.5t28.5 -31.5q12 -19 18 -40t6 -42zM842 448q0 -43 -13 -83.5t-37 -78.5q-24 -36 -55.5 -63t-72.5 -45q-3 -1 -7 -1.5t-7 -0.5q-7 0 -14 2.5t-12 7.5q-6 6 -9 12t-3 14
q0 12 5.5 20t16.5 14q16 9 27 15t17 11q21 15 37.5 34t28.5 42q12 24 18 48.5t6 51.5t-6 51.5t-18 48.5q-12 22 -28.5 41.5t-37.5 34.5q-6 4 -16.5 10.5t-27.5 15.5q-10 6 -16 14t-6 20q0 7 3 13.5t9 12.5q4 4 11 7t15 3h7t7 -2q40 -18 72 -45t56 -63q24 -37 37 -77.5
t13 -84.5zM988 448q0 -66 -18 -126t-56 -116q-36 -54 -84 -94.5t-108 -67.5q-4 -1 -7.5 -1.5t-8.5 -0.5q-7 0 -13 2.5t-11 7.5q-6 6 -9 12t-3 14q0 10 5.5 19t16.5 15q3 1 6 2.5t8 3.5q4 1 7 2.5t5 3.5q13 7 25 14.5t23 15.5q34 25 61 57.5t47 70.5q21 39 30.5 80.5
t9.5 85.5q0 43 -9.5 85t-30.5 81q-19 37 -46 69.5t-62 58.5q-10 7 -22 14.5t-26 15.5q-1 1 -4 2.5t-8 3.5q-4 1 -7.5 2.5t-6.5 3.5q-10 6 -16 14.5t-6 19.5q0 7 3 13.5t9 12.5q4 4 10 7t14 3h7.5t8.5 -2q60 -27 108 -67.5t84 -94.5q37 -55 55.5 -115.5t18.5 -126.5z" />
    <glyph glyph-name="l" unicode="l" 
d="M998 880q6 4 10.5 6.5t7.5 -0.5q4 -1 6 -5.5t2 -12.5v-840q0 -7 -1.5 -11.5t-6.5 -6.5q-3 -3 -7.5 -1t-10.5 7l-406 406q-1 3 -3.5 6t-2.5 6v-406q0 -7 -2.5 -11.5t-5.5 -6.5q-4 -3 -8.5 -1t-9.5 7l-406 406q-3 3 -4.5 6t-3.5 6v-388q0 -7 -2.5 -13.5t-7.5 -12.5
q-6 -6 -12 -8t-14 -2h-74q-7 0 -13.5 2t-12.5 8q-4 6 -7 12t-3 14v804q0 7 2.5 13.5t7.5 12.5q6 6 12 8t14 2h74q7 0 13.5 -2t12.5 -8q4 -6 7 -12t3 -14v-388q1 4 3 6.5t5 5.5l406 406q4 4 8.5 6.5t9.5 -0.5q3 -1 5.5 -5.5t2.5 -12.5v-406q0 4 2 6.5t4 5.5z" />
    <glyph glyph-name="m" unicode="m" 
d="M26 16q-6 -4 -10.5 -6.5t-7.5 0.5q-4 1 -6 5.5t-2 12.5v840q0 7 1.5 11.5t6.5 6.5q3 3 7.5 1t10.5 -7l406 -406q1 -3 2.5 -5t3.5 -7v406q0 7 2.5 11.5t5.5 6.5q4 3 8.5 1t9.5 -7l406 -406q3 -3 4.5 -5t3.5 -7v388q0 7 2.5 13.5t7.5 12.5q6 6 12 8t14 2h74q7 0 13.5 -2
t12.5 -8q4 -6 7 -12t3 -14v-804q0 -7 -2.5 -13.5t-7.5 -12.5q-6 -6 -12 -8t-14 -2h-74q-7 0 -13.5 2t-12.5 8q-4 6 -7 12t-3 14v388q-1 -3 -3 -6t-5 -6l-406 -406q-4 -4 -8.5 -6.5t-9.5 0.5q-3 1 -5.5 5.5t-2.5 12.5v406q-1 -3 -2.5 -6t-3.5 -6z" />
    <glyph glyph-name="n" unicode="n" 
d="M778 880q6 4 10.5 6.5t9.5 -0.5q3 -1 4.5 -5.5t1.5 -12.5v-840q0 -7 -1.5 -11.5t-4.5 -6.5q-4 -3 -9 -1t-11 7l-404 406q-3 3 -4.5 6t-3.5 6v-388q0 -7 -3 -13.5t-9 -12.5q-4 -6 -10 -8t-14 -2h-74q-7 0 -13.5 2t-12.5 8q-4 6 -7 12t-3 14v804q0 7 2.5 13.5t7.5 12.5
q6 6 12 8t14 2h74q7 0 13 -2t11 -8q6 -6 9 -12t3 -14v-388q1 4 3 6.5t5 5.5z" />
    <glyph glyph-name="o" unicode="o" 
d="M246 16q-6 -4 -10.5 -6.5t-9.5 0.5q-3 1 -4.5 5.5t-1.5 12.5v840q0 7 1.5 11.5t4.5 6.5q4 3 9 1t11 -7l404 -406q3 -3 4.5 -5t3.5 -7v388q0 7 3 13.5t9 12.5q4 6 10 8t14 2h74q7 0 13.5 -2t12.5 -8q4 -6 7 -12t3 -14v-804q0 -7 -2.5 -13.5t-7.5 -12.5q-6 -6 -12 -8
t-14 -2h-74q-7 0 -13 2t-11 8q-6 6 -9 12t-3 14v388q-1 -3 -3 -6t-5 -6z" />
    <glyph glyph-name="p" unicode="p" 
d="M936 356v-1.5v-2.5q-18 -76 -56.5 -138t-97.5 -110q-57 -48 -125.5 -71t-146.5 -23q-42 0 -82.5 7.5t-79.5 22.5q-39 16 -73.5 38.5t-64.5 51.5l-74 -74q-6 -4 -12 -7t-14 -3q-7 0 -13.5 2.5t-12.5 7.5q-6 6 -8 12t-2 14v256q0 7 2 13.5t8 12.5t12 8t14 2h256
q7 0 13.5 -2t12.5 -8q4 -6 7 -12t3 -14q0 -7 -2.5 -13.5t-7.5 -12.5l-78 -78q19 -18 42 -32.5t50 -25.5q25 -10 52 -15t54 -5q39 0 74 9t68 27q34 19 60.5 44.5t47.5 57.5q3 6 10.5 22.5t19.5 45.5q1 6 5.5 9t10.5 3h110q4 0 7.5 -0.5t6.5 -3.5q1 -3 2.5 -6t1.5 -8zM950 814
v-256q0 -7 -2 -13.5t-8 -12.5t-12 -8t-14 -2h-256q-7 0 -13.5 2t-12.5 8q-4 6 -7 12t-3 14q0 7 2.5 13.5t7.5 12.5l80 78q-42 39 -92.5 58.5t-107.5 19.5q-39 0 -74 -9t-68 -27q-34 -19 -60.5 -44.5t-47.5 -57.5q-3 -6 -10.5 -22.5t-19.5 -45.5q-1 -6 -5.5 -9t-10.5 -3h-114
q-4 0 -7.5 0.5t-6.5 3.5q-1 3 -2.5 6t-1.5 8v4q18 76 56.5 138t97.5 110q58 48 127 71t147 23q42 0 82.5 -7.5t79.5 -22.5q39 -16 74.5 -38.5t65.5 -51.5l74 74q6 4 12 7t14 3q7 0 13.5 -2.5t12.5 -7.5q6 -6 8 -12t2 -14z" />
    <glyph glyph-name="q" unicode="q" 
d="M220 192q0 7 -3 13.5t-9 12.5q-4 4 -11 7t-15 3q-7 0 -13 -2.5t-11 -7.5q-6 -6 -9 -12t-3 -14q0 -7 3 -13.5t9 -12.5q4 -4 10 -7t14 -3q7 0 14 2.5t12 7.5q6 6 9 12t3 14zM878 522q0 13 -5.5 26t-16.5 24q-12 10 -24.5 16t-27.5 6h-200q0 16 6 39t20 53q15 28 21.5 51
t6.5 41q0 27 -4.5 47.5t-13.5 34.5q-9 13 -27 19.5t-47 6.5q-7 -7 -12 -19t-8 -29l-8.5 -34l-9.5 -38q-6 -18 -14 -34t-20 -28q-6 -6 -17.5 -19t-26.5 -33q-1 -1 -4.5 -5.5t-9.5 -12.5q-4 -6 -8.5 -11.5t-9.5 -10.5l-7.5 -10t-12.5 -14q-6 -7 -11.5 -14t-10.5 -12
q-4 -4 -10 -9.5t-12 -10.5q-6 -6 -11.5 -9.5t-10.5 -6.5q-6 -3 -11.5 -3.5t-10.5 -0.5h-18v-366h18q4 0 8.5 -1t9.5 -1q6 -1 10.5 -1.5t9.5 -2.5q4 -1 9 -2.5t13 -3.5q6 -3 11.5 -4.5t8.5 -1.5q3 -1 7.5 -3t12.5 -5q6 -3 10 -4.5t6 -1.5q60 -21 109 -31.5t87 -10.5h68
q55 0 82.5 24t27.5 72v15t-2 17q9 4 15 11.5t11 18.5q6 10 8 20.5t2 21.5q0 10 -2 19.5t-8 20.5q15 13 22.5 30t7.5 38q0 6 -1 14t-3 16q-3 9 -7 16t-9 12q10 0 18 7t14 19q6 13 9 25t3 23zM950 522q0 -25 -6.5 -49t-21.5 -45q3 -9 4.5 -19t1.5 -19q0 -22 -5.5 -43
t-16.5 -41q1 -6 1.5 -12t0.5 -12q0 -28 -8.5 -53.5t-25.5 -48.5q0 -39 -12 -70t-36 -54q-25 -24 -57 -35t-73 -11h-74q-27 0 -54 3t-54 9t-58 16t-66 22q-33 10 -52.5 16t-27.5 6h-164q-15 0 -28 5.5t-24 16.5q-10 10 -15 23.5t-5 28.5v366q0 15 4.5 27t15.5 23
q10 12 23.5 17t28.5 5h156q10 7 30 28.5t50 59.5q16 22 31 40.5t29 33.5q7 7 12 19t8 29q3 18 7.5 36t10.5 38q6 18 15 33t21 27q10 10 23 16t27 6q24 0 46 -4.5t42 -13.5q18 -9 32.5 -23.5t25.5 -34.5q9 -19 14.5 -46t5.5 -60q0 -27 -7 -54t-21 -56h100q30 0 55.5 -11.5
t48.5 -32.5q21 -21 31.5 -47t10.5 -55z" />
    <glyph glyph-name="r" unicode="r" 
d="M402 540v-330q0 -4 -1 -7t-3 -5q-3 -3 -6 -4.5t-8 -1.5h-36q-4 0 -7.5 1.5t-6.5 4.5q-3 1 -3.5 4t-0.5 8v330q0 3 0.5 6.5t3.5 5.5q3 3 6 4.5t8 1.5h36q4 0 7.5 -1.5t6.5 -4.5q1 -1 2.5 -5t1.5 -7zM548 540v-330q0 -4 -1 -7t-3 -5q-3 -3 -6 -4.5t-8 -1.5h-36
q-4 0 -7.5 1.5t-6.5 4.5q-1 1 -2.5 4t-1.5 8v330q0 3 1 6.5t3 5.5q3 3 6 4.5t8 1.5h36q4 0 7.5 -1.5t6.5 -4.5q1 -1 2.5 -5t1.5 -7zM694 540v-330q0 -4 -0.5 -7t-3.5 -5q-3 -3 -6 -4.5t-8 -1.5h-36q-4 0 -7.5 1.5t-6.5 4.5q-1 1 -2.5 4t-1.5 8v330q0 3 1 6.5t3 5.5
q3 3 6 4.5t8 1.5h36q4 0 7.5 -1.5t6.5 -4.5q3 -1 3.5 -5t0.5 -7zM768 126v542h-512v-542q0 -6 1 -12t3 -12q1 -4 3.5 -8t4.5 -6l4.5 -4.5l1.5 -1.5h476l1.5 1.5l4.5 4.5q1 1 3.5 5t4.5 9q1 6 2.5 12t1.5 12zM384 740h256l-28 68q-1 1 -4 2.5t-6 3.5h-180q-3 -1 -5.5 -2.5
t-4.5 -3.5zM914 722v-36q0 -4 -1 -7.5t-3 -6.5q-3 -1 -6 -2.5t-8 -1.5h-54v-542q0 -24 -7 -44.5t-21 -37.5q-13 -18 -29.5 -26t-34.5 -8h-476q-18 0 -34 7.5t-30 24.5q-13 16 -20.5 37t-7.5 45v544h-54q-4 0 -7.5 1t-6.5 3q-1 3 -2.5 6t-1.5 8v36q0 4 1 7.5t3 6.5q3 1 6 2.5
t8 1.5h176l40 96q4 10 12 19t20 17q10 7 21.5 10.5t22.5 3.5h184q10 0 21.5 -3t22.5 -11q12 -7 19.5 -16t12.5 -20l40 -96h176q4 0 7.5 -1t6.5 -3q1 -3 2.5 -6t1.5 -8z" />
    <glyph glyph-name="s" unicode="s" 
d="M950 192v-74q0 -7 -2 -13t-8 -11q-6 -6 -12 -9t-14 -3h-804q-7 0 -13.5 3t-12.5 9q-6 4 -8 10t-2 14v74q0 7 2 13.5t8 12.5q6 4 12 7t14 3h804q7 0 13.5 -2.5t12.5 -7.5q6 -6 8 -12t2 -14zM950 484v-72q0 -7 -2 -14t-8 -12q-6 -6 -12 -9t-14 -3h-804q-7 0 -13.5 3
t-12.5 9q-6 4 -8 11t-2 15v72q0 7 2 14t8 12q6 6 12 9t14 3h804q7 0 13.5 -3t12.5 -9q6 -4 8 -11t2 -15zM950 778v-74q0 -7 -2 -13.5t-8 -12.5q-6 -4 -12 -7t-14 -3h-804q-7 0 -13.5 2.5t-12.5 7.5q-6 6 -8 12t-2 14v74q0 7 2 13t8 11q6 6 12 9t14 3h804q7 0 13.5 -3
t12.5 -9q6 -4 8 -10t2 -14z" />
    <glyph glyph-name="t" unicode="t" 
d="M658 448q0 30 -10.5 55.5t-31.5 48.5q-22 21 -48 31.5t-56 10.5t-55.5 -10.5t-48.5 -31.5q-21 -22 -31.5 -48t-10.5 -56t10.5 -55.5t31.5 -48.5q22 -21 48 -31.5t56 -10.5t55.5 10.5t48.5 31.5q21 22 31.5 48t10.5 56zM950 510v-126q0 -4 -0.5 -7.5t-3.5 -6.5
q-1 -3 -4 -4.5t-8 -3.5l-104 -16q-6 -15 -12 -28t-12 -24q10 -13 25.5 -32.5t36.5 -45.5q3 -3 4.5 -7t1.5 -7q0 -4 -1.5 -7.5t-4.5 -6.5q-7 -10 -21 -25.5t-35 -36.5q-21 -19 -34.5 -29.5t-19.5 -10.5q-3 0 -7 1.5t-7 4.5l-80 62q-12 -7 -25 -12t-27 -10q-4 -39 -8.5 -65.5
t-7.5 -40.5q-1 -9 -6.5 -12.5t-13.5 -3.5h-128q-3 0 -7 0.5t-7 3.5t-4.5 6t-1.5 6l-16 106q-13 4 -26.5 9t-25.5 11l-80 -60q-3 -3 -6 -4.5t-8 -1.5q-4 0 -7.5 1.5t-6.5 4.5q-36 33 -59.5 57t-34.5 39q-3 3 -3.5 6t-0.5 8q0 3 0.5 6t3.5 6q4 6 11.5 16l16.5 22
q10 13 18 23.5t14 18.5q-7 13 -13 27.5t-11 28.5l-104 16q-4 0 -7 1.5t-5 4.5q-3 3 -3.5 6t-0.5 8v126q0 4 0.5 7.5t3.5 6.5q1 3 4 4.5t6 3.5l106 16q4 12 10 25t14 27q-12 16 -27 35.5t-35 42.5q-3 4 -4.5 7.5t-1.5 6.5t1.5 6t4.5 8q7 10 21 25t35 35q21 21 34.5 31.5
t19.5 10.5q3 0 7 -1.5t7 -4.5l80 -62q12 7 25 12t27 10q4 39 8.5 65.5t7.5 40.5q1 9 6.5 12.5t13.5 3.5h128q3 0 7 -0.5t7 -3.5t4.5 -6t1.5 -6l16 -106q13 -4 26.5 -9t25.5 -11l80 60q3 3 6 4.5t8 1.5q4 0 7.5 -1.5t6.5 -4.5q37 -34 61 -58.5t33 -39.5q3 -1 3.5 -4t0.5 -8
q0 -3 -0.5 -6t-3.5 -6q-4 -6 -11.5 -16l-16.5 -22q-10 -13 -18 -23.5t-14 -18.5q7 -13 13 -27t11 -29l104 -16q4 0 7 -1.5t5 -4.5q3 -3 3.5 -6t0.5 -8z" />
    <glyph glyph-name="u" unicode="u" 
d="M762 636q4 -6 5.5 -12t-1.5 -12l-308 -662q-4 -7 -10 -10.5t-14 -3.5h-3.5t-4.5 2q-6 1 -9.5 3t-6.5 7q-1 4 -2 8.5t0 9.5l112 460l-232 -56q0 -1 -2 -1.5t-4 -0.5q-6 0 -10.5 1.5t-7.5 4.5q-4 4 -6.5 10t-1.5 14l116 470q0 4 2.5 7.5t5.5 6.5q4 3 7.5 3.5t8.5 0.5h188
q6 0 10.5 -1.5t7.5 -4.5q4 -4 6 -8t2 -10q0 -1 -1 -4t-3 -6l-96 -264l226 56q1 0 2.5 1t3.5 1q6 0 10.5 -2.5t9.5 -7.5z" />
    <glyph glyph-name="v" unicode="v" 
d="M512 740q-58 0 -112.5 -9.5t-105.5 -30.5q-51 -19 -91.5 -46t-70.5 -60q-28 -34 -43 -70.5t-15 -75.5q0 -31 9.5 -62t30.5 -60q21 -28 49.5 -53.5t66.5 -46.5l48 -28l-14 -56q-7 -25 -17.5 -50t-22.5 -48q43 18 82 42t74 56l26 22l32 -4q19 -3 37.5 -3.5t36.5 -0.5
q58 0 112.5 9.5t105.5 30.5q51 19 91.5 46t70.5 60q28 34 43 70.5t15 75.5t-14.5 75t-43.5 71q-30 33 -70.5 59.5t-91.5 46.5q-51 21 -105 30.5t-113 9.5zM1024 448q0 -49 -16.5 -95.5t-51.5 -88.5q-34 -42 -80.5 -75t-105.5 -57q-60 -25 -124.5 -37.5t-133.5 -12.5
q-19 0 -40 1t-42 3q-57 -49 -123 -83.5t-141 -54.5q-13 -3 -29.5 -6t-34.5 -6h-4q-4 0 -7.5 1.5t-8.5 4.5q-3 3 -4.5 7t-3.5 9v0q-1 1 -1 3t1 5v2.5v1.5q0 1 1 2.5t3 3.5l2 6l10 10q1 1 5.5 6.5t10.5 13.5l12 12l8 8q3 4 7.5 9.5t10.5 14.5q6 7 10.5 14.5t7.5 13.5
q4 7 7.5 15t8.5 19q4 10 7.5 21t8.5 23q-45 25 -80.5 56.5t-61.5 69.5q-25 37 -38.5 76.5t-13.5 83.5q0 49 16.5 95.5t51.5 88.5q34 42 80.5 75t105.5 57q60 25 124.5 37.5t133.5 12.5t133.5 -12t124.5 -38q58 -24 104.5 -57t81.5 -75q34 -42 51 -88t17 -96z" />
    <glyph glyph-name="w" unicode="w" 
d="M522 -10q0 4 -2.5 7t-7.5 3q-16 0 -31 6t-27 18t-18 26.5t-6 31.5q0 4 -2.5 7t-7.5 3q-4 0 -6 -2.5t-2 -7.5q0 -21 7 -38.5t21 -31.5q15 -15 33 -22.5t39 -7.5q4 0 7 1.5t3 6.5zM140 156h744q-38 43 -67 94q-28 51 -47 110t-29 127q-9 67 -9 143q0 15 -4 30t-10 30
q-7 16 -16.5 31t-23.5 29q-12 13 -29.5 25t-40.5 21q-21 9 -45 13.5t-51 4.5t-51 -4.5t-45 -13.5q-22 -9 -40 -20.5t-30 -25.5q-13 -13 -22.5 -28t-17.5 -32q-6 -15 -10 -30t-4 -30q0 -76 -9 -143q-10 -68 -29 -127t-47 -110q-29 -51 -67 -94zM988 156q0 -15 -5.5 -28
t-16.5 -24q-10 -10 -23.5 -16t-28.5 -6h-256q0 -30 -10.5 -55.5t-31.5 -48.5q-22 -21 -48 -31.5t-56 -10.5t-55.5 10.5t-48.5 31.5q-21 22 -31.5 48t-10.5 56h-256q-15 0 -28 5.5t-24 16.5q-10 10 -16 23.5t-6 28.5q15 12 27.5 24t24.5 26q12 13 24 30t26 38
q12 21 22.5 43.5t19.5 46.5t15.5 53.5t12.5 64.5q6 34 9 71.5t3 76.5q0 43 16.5 83.5t49.5 78.5q33 37 77.5 59.5t98.5 30.5q-3 6 -3.5 12t-0.5 12q0 10 3.5 20t12.5 18q7 7 16.5 11.5t21.5 4.5t21 -4t17 -12q9 -7 12.5 -17t3.5 -21q0 -6 -0.5 -12t-3.5 -12
q54 -7 98.5 -29.5t77.5 -60.5q33 -37 49.5 -77.5t16.5 -84.5q0 -39 3 -76t9 -72q6 -34 12.5 -64t15.5 -54t19.5 -46.5t22.5 -43.5q13 -21 25.5 -37.5t24.5 -30.5q12 -13 24.5 -25.5t27.5 -24.5z" />
    <glyph glyph-name="x" unicode="x" 
d="M298 456q-21 46 -31.5 99t-10.5 113h-146v-56q0 -22 13.5 -45t40.5 -47t60 -40t74 -24zM914 612v56h-146q0 -60 -10.5 -112.5t-31.5 -99.5q40 7 73.5 23.5t60.5 40.5t40.5 46.5t13.5 45.5zM988 686v-74q0 -19 -6 -40t-18 -42q-12 -19 -28 -38t-36 -36q-21 -16 -45.5 -30
t-54.5 -26q-28 -10 -59 -16t-63 -8q-12 -16 -25.5 -29.5t-28.5 -24.5q-12 -10 -19.5 -20.5t-10.5 -21.5q-4 -10 -6 -23.5t-2 -28.5t3.5 -28t12.5 -24q9 -10 22.5 -15t33.5 -5q21 0 40 -7t36 -19q16 -13 25 -29.5t9 -36.5v-36q0 -4 -1.5 -7.5t-4.5 -6.5q-1 -3 -4 -3.5
t-8 -0.5h-476q-4 0 -7 0.5t-5 3.5q-3 3 -4.5 6t-1.5 8v36q0 19 8.5 35.5t25.5 30.5q16 12 35.5 19t40.5 7q19 0 33 4.5t23 15.5q9 10 12.5 23.5t3.5 28.5t-1.5 28t-6.5 24q-3 10 -10.5 20.5t-19.5 21.5q-15 10 -28.5 23.5t-25.5 30.5q-31 1 -62 7t-60 17q-30 12 -54.5 25.5
t-45.5 30.5q-19 16 -35.5 35t-28.5 39q-12 21 -18 41.5t-6 40.5v74q0 10 4 20t12 18q9 9 18.5 12.5t21.5 3.5h164v56q0 18 6 34t20 30q13 13 29.5 19.5t36.5 6.5h328q19 0 35.5 -6t30.5 -20q13 -13 19.5 -29.5t6.5 -34.5v-56h164q12 0 21.5 -3.5t18.5 -12.5q7 -7 11.5 -17
t4.5 -21z" />
    <glyph glyph-name="y" unicode="y" 
d="M1008 954q9 -7 13 -16t3 -20l-146 -878q-1 -9 -6 -15t-14 -11q-3 -3 -7 -3.5t-9 -0.5h-7.5t-6.5 2l-260 106l-138 -168q-4 -7 -11.5 -10.5t-16.5 -3.5h-6t-6 2q-6 1 -10.5 5t-7.5 9q-3 4 -4.5 9t-1.5 11v200l494 606l-612 -530l-226 94q-10 3 -15 10.5t-7 19.5
q0 12 4.5 20.5t13.5 13.5l952 548q3 3 7.5 4.5t10.5 1.5t10.5 -1.5t9.5 -4.5z" />
    <glyph glyph-name="z" unicode="z" 
d="M146 210v-110q0 -3 -1.5 -6t-4.5 -6q-1 -3 -5 -4.5t-7 -1.5h-110q-3 0 -6 1.5t-6 4.5t-4.5 6t-1.5 6v110q0 4 1.5 7.5t4.5 6.5q3 1 6 2.5t6 1.5h110q3 0 6.5 -1t5.5 -3q3 -3 4.5 -6t1.5 -8zM146 430v-110q0 -3 -1.5 -6.5t-4.5 -5.5q-1 -3 -5 -4.5t-7 -1.5h-110
q-3 0 -6 1.5t-6 4.5q-3 1 -4.5 5t-1.5 7v110q0 3 1.5 6t4.5 6t6 4.5t6 1.5h110q3 0 6.5 -1.5t5.5 -4.5q3 -3 4.5 -6t1.5 -6zM146 650v-110q0 -4 -1.5 -7.5t-4.5 -6.5q-1 -3 -5 -3.5t-7 -0.5h-110q-3 0 -6 0.5t-6 3.5t-4.5 6t-1.5 8v110q0 3 1.5 6t4.5 6t6 4.5t6 1.5h110
q3 0 6.5 -1.5t5.5 -4.5q3 -3 4.5 -6t1.5 -6zM1024 210v-110q0 -3 -1.5 -6t-4.5 -6t-6 -4.5t-6 -1.5h-768q-4 0 -7.5 1.5t-6.5 4.5q-1 3 -2.5 6t-1.5 6v110q0 4 1 7.5t3 6.5q3 1 6 2.5t8 1.5h768q3 0 6 -1t6 -3q3 -3 4.5 -6t1.5 -8zM146 868v-110q0 -3 -1.5 -6t-4.5 -6
q-1 -3 -5 -4.5t-7 -1.5h-110q-3 0 -6 1.5t-6 4.5t-4.5 6t-1.5 6v110q0 4 1.5 7.5t4.5 6.5t6 3.5t6 0.5h110q3 0 6.5 -0.5t5.5 -3.5q3 -3 4.5 -6t1.5 -8zM1024 430v-110q0 -3 -1.5 -6.5t-4.5 -5.5q-3 -3 -6 -4.5t-6 -1.5h-768q-4 0 -7.5 1.5t-6.5 4.5q-1 1 -2.5 5t-1.5 7v110
q0 3 1 6t3 6q3 3 6 4.5t8 1.5h768q3 0 6 -1.5t6 -4.5t4.5 -6t1.5 -6zM1024 650v-110q0 -4 -1.5 -7.5t-4.5 -6.5t-6 -3.5t-6 -0.5h-768q-4 0 -7.5 0.5t-6.5 3.5q-1 3 -2.5 6t-1.5 8v110q0 3 1 6t3 6q3 3 6 4.5t8 1.5h768q3 0 6 -1.5t6 -4.5t4.5 -6t1.5 -6zM1024 868v-110
q0 -3 -1.5 -6t-4.5 -6t-6 -4.5t-6 -1.5h-768q-4 0 -7.5 1.5t-6.5 4.5q-1 3 -2.5 6t-1.5 6v110q0 4 1 7.5t3 6.5q3 3 6 3.5t8 0.5h768q3 0 6 -0.5t6 -3.5t4.5 -6t1.5 -8z" />
    <glyph glyph-name="braceleft" unicode="{" 
d="M686 912l-24 -10l14 -56l-16 -112q-40 -7 -67.5 -12t-44.5 -8l4 82l-4 2q-7 7 -16.5 12t-23.5 10v0v0q-12 6 -21.5 9t-18.5 3q-6 0 -11.5 -1.5t-10.5 -6.5q-4 -4 -6 -10t-2 -12v-4l2 -4q12 -15 19.5 -39.5t12.5 -56.5q-45 -4 -73.5 -9t-40.5 -11l-4 -2l-6 -14l2 -4
q9 -13 23.5 -20.5t32.5 -7.5q7 0 19.5 1.5t30.5 6.5q9 1 15 2.5t11 3.5h1.5h0.5q0 -4 1 -10l3 -18q1 -15 3 -30t5 -30q3 -13 6 -25t8 -21l2 -6h6q4 0 8.5 0.5t7.5 3.5q4 1 6 5t4 9v0v0v-2v-1t2 -1l4 -46l-186 -36q-10 4 -19 6t-17 2h-7.5t-8.5 -2q-3 -3 -5.5 -6t-2.5 -8v-2
l2 -4q10 -24 16 -48t6 -48v-5t-2 -13q-1 -9 -2.5 -19.5l-3.5 -24.5q-4 -28 -7 -51t-3 -41q0 -16 1.5 -28.5t6.5 -21.5q4 -9 11.5 -15.5t18.5 -6.5h4l18 18v2q6 12 9.5 33.5t6.5 54.5q3 31 4.5 75.5t1.5 98.5v2q27 9 67 15t91 11v-18v-51t-2 -41q0 -10 -1 -16t-1 -12l-4 18v2
l-4 2q-19 21 -50.5 39.5t-75.5 36.5l-6 4l-8 -10v-4q0 -7 3 -14.5t9 -13.5v0l26 -24q-1 -18 -12 -40.5t-34 -49.5l-2 -2v-22l12 2q12 3 24 9t24 17v0l40 38q10 -10 19 -17.5t17 -12.5l4 -2l4 2q3 1 3.5 4t2.5 6v-1v-1q-1 -6 -1.5 -10.5t-0.5 -9.5q0 -16 3 -34t11 -36v0v0
q4 -9 8.5 -16.5t9.5 -13.5l12 -8t14 -4h4l2 4q12 9 17 26.5t5 41.5v242q70 9 117 13.5t67 4.5q6 0 8 -1t2 -3h2l2 -5.5t4 -14.5q3 -10 4.5 -24t1.5 -34v0q1 -19 1.5 -46t0.5 -62q0 -39 -2.5 -66.5t-7.5 -41.5v0v0q-1 -6 -4 -9.5t-8 -6.5q-3 -3 -7.5 -4.5t-10.5 -1.5
q-1 0 -8 1t-18 3v0q-12 1 -19.5 2.5t-12.5 1.5q-4 0 -8.5 -2.5t-7.5 -5.5l-4 -4l2 -6q0 -3 1 -4.5t3 -3.5q3 -3 5 -6t7 -8q6 -7 16 -17.5t22 -24.5l23.5 -23.5l18.5 -18.5q4 -3 7.5 -6t6.5 -6q3 -1 5 -2.5t7 -3.5l4 -2l2 4q3 1 4.5 2.5t3.5 1.5q1 1 2.5 1.5t1.5 2.5
q16 13 26 43t18 77q6 45 10 93t6 99q1 25 2.5 45.5t1.5 34.5q1 15 2.5 24t1.5 12q1 1 2 4.5t4 9.5q3 4 3.5 7.5t2.5 6.5q1 3 1.5 5t0.5 5v4l-2 4q-4 3 -8.5 7t-9.5 7v0l-66 32h-2h-9.5t-6.5 -2l-104 -16h-2h-4q-1 -1 -4 -1.5t-8 -0.5q-7 -1 -18 -2t-26 -4v2
q-13 -1 -23.5 -2.5t-18.5 -1.5l-1.5 -1.5t-2.5 -0.5l2 10q1 10 0.5 20t-6.5 18h-2l-12 10q9 1 19 3.5t19 2.5q15 1 25.5 2.5t18.5 1.5q7 1 14.5 3t13.5 5l4 4v8l-4 14l-16 14l24 84l12 2l58 2q37 1 61.5 3t38.5 5q6 1 11.5 3t10.5 7q4 3 7 8.5t3 11.5v4l-2 2q-7 9 -17.5 16
t-24.5 12q-12 4 -23.5 7t-22.5 3h-8l-82 -16q3 7 6 16.5t8 21.5v0q4 12 7.5 22t6.5 18q0 3 1 6t1 6l1.5 4.5t0.5 3.5v4l-2 2q-16 22 -37 35.5t-47 18.5h-4zM226 832v0q-7 0 -13 -1.5t-11 -4.5l10 -6l-1.5 -1.5l-2.5 -2.5v0v0h-10v-18l6 4q3 -6 4.5 -13t7.5 -13v0l40 -38
q10 -10 19.5 -19t18.5 -15q7 -4 13.5 -8t14.5 -4q4 0 8.5 1.5t7.5 4.5q4 3 6 7t4 9h2l2 16v6q0 18 -4.5 33.5t-15.5 26.5q-6 6 -18 11t-30 13q-19 6 -33 9t-25 3zM648 674l-12 -64l-82 -18l-4 66q30 6 53.5 9.5t44.5 6.5zM124 640q-7 0 -14.5 -0.5t-15.5 -3.5l-8 -2v-8
q0 -4 1 -10t3 -14v-2l2 -2q31 -37 56 -59.5t46 -28.5v-2q12 -1 23 1t17 11l2 2l4 20v8q0 15 -5.5 28t-16.5 22v2l-12 8q-21 13 -37.5 20.5t-30.5 9.5h-14zM280 466h-12q-6 -1 -11.5 -5.5t-8.5 -10.5v0l-102 -208v-1t-2 -3q-1 -3 -4 -6t-6 -8q-9 -7 -13.5 -13.5t-6.5 -12.5
l-2 -2l2 -4q4 -18 12.5 -35.5t19.5 -34.5v0v0q12 -16 25 -26t27 -10q6 0 11.5 2.5t8.5 7.5l2 4v2q0 18 7.5 63.5t22.5 116.5q7 36 13 64.5t9 49.5q4 21 6 33.5t2 20.5v16zM658 398l6 -10h-20v-6l4 -2q3 -10 7 -19.5t13 -18.5v0h2q4 -6 8.5 -9.5t7.5 -6.5v-1.5t2 -0.5
q-4 -12 -19.5 -31t-42.5 -43l-4 -4v-20h12q21 0 45 16t51 40q4 -4 10.5 -11t17.5 -19v0v0q12 -15 23.5 -25.5t20.5 -16.5l4 -2h2q6 1 11 4t7 8q3 6 4.5 12t1.5 12q0 22 -14 43t-40 41q-25 19 -55 37t-65 33z" />
    <glyph glyph-name="bar" unicode="|" 
d="M442 930q-4 0 -8.5 -1t-7.5 -3v0v0l-6 -6l-8 -8q-3 -3 -7 -8t-7 -10v0h-2q-3 -4 -9 -13t-15 -21h-2q-9 -10 -19 -23t-21 -25q-27 -30 -77 -75t-121 -105h-2q1 0 0.5 0t-2.5 -2q-1 -1 -3 -2.5t-5 -3.5q-6 -4 -10.5 -8.5l-9.5 -9.5v0v0q-4 -4 -7 -9t-3 -11v-12h16
q13 0 28 5.5t32 14.5v0l54 40q6 -7 10 -16t4 -20q0 -6 -1.5 -17.5t-6.5 -28.5v0v0q-1 -7 -2.5 -13t-1.5 -11q-1 -4 -1.5 -7.5t-0.5 -6.5q0 -6 1.5 -13t6.5 -13v0l38 -46l24 -4l8 8l4 20q18 3 34.5 4.5t31.5 3.5q-52 -48 -109.5 -88.5t-120.5 -73.5q-4 -3 -9.5 -6t-8.5 -6
q-4 -4 -7 -8.5t-3 -9.5v-12h12q23 2 54 14q30 11 68 31.5t84 49.5q46 30 100 69l18 -18q-45 -36 -87.5 -66t-84.5 -56q-42 -27 -73 -45t-51 -29q-19 -10 -31 -19t-17 -21l-4 -12l32 -4h2q39 13 80 33q41 19 84.5 43t89.5 53t94 63l6 -12t6 -14q-42 -35 -89 -68t-98.5 -64
t-108.5 -59q-56 -29 -118 -55h-2q-4 -3 -8.5 -5t-7.5 -5q-4 -3 -7 -6t-5 -8l-2 -12h14q37 0 90 16.5t124 49.5v0q66 31 124.5 66t109.5 74q4 -16 8 -35t4 -43q0 -28 -4 -48t-10 -34q-6 -12 -12.5 -17t-17.5 -5q-1 0 -4 1.5t-8 4.5q-6 1 -13.5 5t-16.5 9q-19 10 -33 16t-23 8
l-10 2l-6 -26l4 -4q0 1 2 -1t4 -5l7.5 -7.5l10.5 -10.5v0v0q10 -12 20.5 -22.5l19.5 -19.5t19 -18t21 -18q12 -9 21.5 -14.5t18.5 -5.5q4 0 8.5 2.5t9.5 5.5q3 3 7 7.5t9 10.5q9 10 16.5 27t15.5 41v0v0q9 24 12.5 49.5t3.5 54.5q0 36 -5 72.5t-17 75.5v0l1 1t3 1l34 -38
l160 -186q9 -9 22.5 -12.5t31.5 -3.5h12l90 12q15 1 27 5.5t21 12.5l4 4v4q0 4 -2.5 8t-5.5 6q-3 3 -6 5t-8 5h-4q-6 0 -9 1l-3 1h-2q-49 4 -86.5 15t-63.5 29v0v0v0q-25 18 -65.5 60t-94.5 108l8 6l96 54q10 7 16 16.5t6 21.5v4q-6 21 -12.5 34.5t-15.5 21.5l-4 2h-2
q-10 0 -19.5 -5.5t-18.5 -16.5q-9 -10 -22.5 -24t-31.5 -32q-16 -16 -35.5 -30t-42.5 -28q-10 25 -28.5 50.5t-45.5 51.5l6 10l288 36l16 12v4q0 4 -1 6.5t-1 7.5h-2l-14 22q3 24 6 41.5t6 28.5q4 10 11.5 18t18.5 14l6 4v6q0 13 -9.5 25t-24.5 21q-7 4 -14.5 7t-15.5 5
q-6 1 -13 0t-13 -6v0l-22 -30l-140 -16q15 21 36 41.5t50 40.5l6 2v6q0 6 -2.5 12t-7.5 14q-4 7 -10.5 15t-15.5 17l-2 4h-2q-7 1 -14.5 1t-13.5 -3h-2l-26 -22q-6 -1 -41 -5.5t-77 -10.5l28 24q4 4 6 10t2 14q0 10 -4 23.5t-10 28.5h-2l-12 24zM520 754q-3 -6 -6 -10
l-12 -16v0v0q-12 -19 -21 -30.5t-15 -17.5l-170 -22q-1 7 -3.5 13t-2.5 11q10 7 26 19.5t42 30.5zM704 646l-8 -68l-166 -22l12 22q7 10 11.5 20.5t4.5 19.5q0 3 -1 4.5t-1 3.5zM468 618q-7 -22 -15 -41t-17 -31l-132 -12v58z" />
    <glyph glyph-name="braceright" unicode="}" 
d="M608 184q0 -49 -21 -90t-63 -74q-42 -31 -98 -47.5t-128 -16.5q-40 0 -77.5 4.5t-72.5 13.5q-34 10 -62.5 21t-51.5 23v138h6q30 -22 62.5 -39t67.5 -31q36 -13 70.5 -19.5t67.5 -6.5q40 0 72 7t56 19q22 13 34 34t12 50q0 21 -7 37t-19 27q-12 12 -36 21t-60 17
q-13 3 -30 7t-38 7q-21 4 -40.5 8.5t-37.5 9.5q-48 12 -82 31t-54 43q-21 25 -30.5 55.5t-9.5 66.5q0 22 4.5 44t13.5 42q9 19 23.5 37t34.5 35q18 15 40.5 27t51.5 21q28 9 60 13.5t68 4.5q33 0 66 -4t66 -12q34 -7 61.5 -17t50.5 -21v-132h-6q-24 16 -52.5 31t-63.5 27
q-33 12 -66 18t-66 6t-61.5 -6t-52.5 -20q-22 -13 -34 -32t-12 -46q0 -22 6.5 -39t21.5 -29q13 -10 35.5 -20t54.5 -16q16 -4 35.5 -8.5t40.5 -7.5q21 -4 38.5 -7.5t31.5 -6.5q43 -10 76 -27t56 -41q24 -24 36 -56.5t12 -73.5zM816 952q-63 0 -118 -4.5t-64 -15.5
q-10 -9 -15 -63q-4 -55 -4 -118.5t4 -118.5q5 -54 15 -64q10 -9 64 -13q55 -5 118 -5t118 4q54 5 64 14q10 10 15 64q4 55 4 118.5t-4 118.5q-5 54 -15 63q-10 10 -64.5 15t-117.5 5zM726 912q19 0 32.5 -13t13.5 -33q0 -18 -13 -32t-33 -14q-19 0 -32.5 14t-13.5 32
q0 19 13 32.5t33 13.5zM908 912q18 0 32 -13t14 -33q0 -18 -14 -32t-32 -14q-19 0 -32.5 14t-13.5 32q0 19 13 32.5t33 13.5zM724 796q19 0 32.5 -13t13.5 -33q0 -19 -13 -32.5t-33 -13.5q-19 0 -32.5 13t-13.5 33q0 19 13 32.5t33 13.5zM906 796q9 0 17.5 -3t14.5 -11
q6 -6 10 -14.5t4 -17.5q0 -19 -14 -32.5t-32 -13.5q-19 0 -32.5 13t-13.5 33q0 19 13 32.5t33 13.5zM724 680q19 0 32.5 -13t13.5 -33q0 -19 -13 -32.5t-33 -13.5q-18 0 -32 13t-14 33q0 19 14 32.5t32 13.5zM906 680q19 0 32.5 -13t13.5 -33q0 -19 -13 -32.5t-33 -13.5
q-19 0 -32.5 13t-13.5 33q0 19 13 32.5t33 13.5z" />
    <glyph glyph-name="asciitilde" unicode="~" 
d="M314 824q-39 0 -72.5 -11t-57.5 -37q-40 -39 -45.5 -99.5t15.5 -128.5q7 -24 17.5 -49t24.5 -51q-13 -25 -23.5 -50.5t-18.5 -49.5q-21 -67 -16 -128t44 -102q40 -39 101 -44t129 16q24 7 49 17.5t51 24.5q25 -13 50.5 -23.5t49.5 -18.5q67 -21 128 -16t102 44
q39 40 44 101t-16 129q-7 24 -17.5 49t-24.5 51q13 25 23.5 50.5t18.5 49.5q21 67 16 128t-44 102q-40 39 -101 44t-129 -16q-24 -7 -49 -17.5t-51 -24.5q-25 13 -50.5 23.5t-49.5 18.5q-25 9 -50 12.5t-48 5.5zM314 782q19 0 40.5 -4t45.5 -10q16 -6 34 -13.5t36 -16.5
q-34 -22 -69.5 -49.5t-68.5 -60.5t-60 -68t-50 -70q-9 18 -16.5 35.5t-13.5 34.5q-19 61 -14 110t34 78q18 18 43.5 26.5t58.5 7.5zM710 782q33 1 58.5 -7.5t43.5 -26.5q28 -28 33.5 -77t-13.5 -111q-6 -16 -13.5 -34t-16.5 -36q-22 34 -49.5 69.5t-60.5 68.5t-68 60t-70 50
q18 9 35.5 16.5t34.5 13.5q24 6 45 10t41 4zM512 716q37 -22 75.5 -52t74.5 -66t65.5 -74t52.5 -76q-22 -37 -52 -75.5t-66 -74.5t-74 -65.5t-76 -52.5q-37 22 -75.5 52t-74.5 66t-65.5 74t-52.5 76q22 37 52 75.5t66 74.5t74 65.5t76 52.5zM802 406q9 -18 16.5 -35.5
t13.5 -34.5q19 -61 14 -110t-34 -78q-28 -28 -77 -33.5t-111 13.5q-16 6 -34 13.5t-36 16.5q34 22 69.5 49.5t68.5 60.5t60 68t50 70zM222 406q22 -34 49.5 -69.5t60.5 -68.5t68 -60t70 -50q-18 -9 -35.5 -16.5t-34.5 -13.5q-61 -19 -110 -14t-78 34q-28 28 -33.5 77
t13.5 111q6 16 13.5 34t16.5 36zM590 448q0 36 -22.5 62t-55.5 26t-55.5 -26t-22.5 -62t22.5 -62t55.5 -26t55.5 26t22.5 62z" />
    <glyph glyph-name="uni237A" unicode="&#x237a;" 
d="M512 911v0v0q-96 0 -180 -36q-84 -37 -147 -99.5t-100 -147.5q-36 -84 -36 -180v0v0v0v0v0q0 -96 36 -180q37 -85 100 -147.5t147 -99.5q84 -36 180 -36v0v0v0q96 0 180 36q85 37 147.5 99.5t99.5 147.5q36 84 36 180v0v0v0v0v0q0 96 -36 180q-37 85 -99.5 147.5
t-147.5 99.5q-84 36 -180 36v0v0zM471 715h82l217 -445h-83l-175 361l-175 -361h-83z" />
    <glyph glyph-name="uni25E9" unicode="&#x25e9;" 
d="M392 911q-12 0 -19 -14.5t-16 -34.5q0 -1 0.5 -1t0.5 -1q-24 -10 -50.5 -28.5t-37.5 -34.5h-5q-37 0 -62.5 -26t-25.5 -62v-40q0 -16 5 -29.5t14 -25.5q-27 -56 -64.5 -110t-92.5 -108q10 -16 60 -22t99 -62q6 7 14 34q8 28 17.5 66.5t19.5 82.5q10 45 19 86h242
q4 -21 9 -43.5t10 -45.5q-5 -4 -9 -8.5t-7 -8.5h-4h-6t-6 -1l-18 76h-181l-46 -183q59 -16 95.5 -22t71.5 -3q1 -15 6 -28.5t13 -24.5q-27 -57 -65 -112.5t-94 -110.5q10 -16 61 -22t101 -63q5 7 13 35q9 28 18.5 67t19.5 85q11 46 20 87h247q9 -41 18 -87q10 -46 19.5 -86
t17.5 -68q8 -29 14 -36q50 57 101 62t62 21q-57 57 -95 114t-65 115q9 12 14 26t5 29v41q0 37 -26 63t-64 26h-2q-12 17 -37.5 35.5t-49.5 28.5q0 1 1 1.5t2 0.5q-7 20 -15 35.5t-21 15.5q-9 0 -15.5 -9.5t-12.5 -23.5q-8 14 -15 28l-14 28q9 11 14 25t5 29v40q0 36 -26 62
t-62 26h-2q-12 16 -37 34t-49 28q0 1 1 1.5t2 0.5q-7 19 -14.5 34.5t-20.5 15.5v0zM542 224l-46 -187q96 -27 142.5 -27t134.5 27l-46 187h-185z" />
    <glyph glyph-name="uni265A" unicode="&#x265a;" 
d="M396 858q-46 0 -119.5 -28.5t-131.5 -76.5q21 -5 38.5 -21t29.5 -36q12 -19 17 -39.5t4 -38.5q58 -8 126.5 -22t131.5 -38q65 -24 114.5 -60.5t63.5 -90.5l3 -9l-131 -62q39 -21 46 -48.5t-26 -74.5q-14 -16 -68.5 -21t-68.5 14q8 -28 21 -47.5t50 -39.5l-77 -79l517 -2
l-53 116l86 -2q-23 5 -44 37t-41 76t-39 93t-37 88q24 -17 72.5 -5.5t44.5 29.5q-55 28 -110.5 79.5t-112.5 105.5q38 -5 86.5 33t12.5 103q-10 -33 -33 -48t-76 -31q-26 -5 -57 8q-32 13 -65.5 34t-67.5 45t-65 40q-3 9 -14 13.5t-27 5.5v0zM308 756l53 -12l55 -7v0l53 -7
l-23 -53l-38 5q-12 -16 -27.5 -27.5t-31.5 -16.5q-21 -8 -40 -5t-31 17q-12 13 -13 36t12 48zM132 731q-9 -16 -26.5 -40.5t-39.5 -31.5q-19 -54 -8.5 -108.5t21.5 -108.5q18 28 42.5 50.5t56.5 38.5q43 -4 84 -9t82.5 -14t84.5 -23q44 -14 91 -37l-151 -9l-89 -22
q-24 -14 -59 -21t-50 3q2 -37 48.5 -55.5t85.5 -18.5q53 28 68 27t39 16l73 -5q9 -4 18 -7.5t17 -7.5l-1 1l121 61q-14 39 -56 71t-101 54q-62 24 -131.5 38.5t-127.5 21.5l-13 1l3 14q2 11 -3.5 32t-18.5 41q-12 20 -28.5 33.5t-31.5 14.5v0z" />
    <glyph glyph-name="uni267B" unicode="&#x267b;" 
d="M541 448l1 2q11 51 18 103t10.5 98.5t4.5 84.5q1 37 1 59v10v8h-54v-730h54v8v10q0 22 -1 59q-1 38 -4.5 84.5t-10.5 98.5t-18 103zM581 448v1q24 52 38 106q14 55 21.5 103.5t9.5 87.5q1 38 1 58v5v4h-55v-8v-10q0 -22 -1 -60q-1 -37 -4.5 -83.5t-10.5 -99.5
q-7 -52 -18 -104q11 -52 18 -104q7 -53 10.5 -99.5t4.5 -83.5q1 -38 1 -60v-10v-8h56v4.5v4.5q0 20 -2 58q-2 39 -9.5 87.5t-21.5 103.5q-13 54 -37 106zM620 448l3 5q37 56 58 112q21 55 31 102.5t12 83.5q3 37 3 55v3.5v3.5h-56v-4.5v-4.5q0 -20 -2 -58q-2 -39 -9 -87.5
t-21 -102.5q-14 -55 -38 -108q24 -53 38 -107q14 -55 21.5 -103.5t8.5 -86.5q2 -39 2 -59v-4v-4h56v2.5v3.5q0 19 -2 55q-3 36 -13 83.5t-31 103.5q-20 55 -57 112zM802 808v2.5v2.5h-56v-3.5v-3.5q0 -19 -3 -58t-14 -88.5t-32 -104.5t-57 -107q36 -52 57 -107t32 -104.5
t14 -88.5t3 -58v-3.5v-3.5h56v3v2q0 19 -4 58q-4 40 -18.5 90t-42.5 106q-29 55 -78 106q49 51 78 106q28 56 42.5 106t18.5 90q4 39 4 58v0zM699 448q45 27 78 66q34 40 56 87.5t33 101.5q10 54 10 110h-55v-3v-2q0 -19 -3 -59q-4 -40 -18 -90t-43 -106q-28 -55 -78 -105
q50 -50 78 -105q29 -55 43 -105.5t18 -89.5q3 -40 3 -59v-2.5v-2.5h55q1 55 -10 109t-33 101.5t-56 87.5q-33 39 -78 66v0zM448 813v-8v-10q0 -22 1 -60q1 -37 4.5 -83.5t10.5 -98.5t19 -103v-2v-2q-12 -51 -19 -103t-10.5 -98.5t-4.5 -84.5q-1 -37 -1 -59v-10v-8h55v730
h-55zM463 448q-12 52 -19 104q-7 53 -10.5 99.5t-4.5 83.5q-1 38 -1 60v10v8h-56v-4v-5q0 -19 2 -58q2 -38 9.5 -87t21.5 -103q13 -55 37 -106l1 -2l-1 -1q-24 -51 -38 -106q-14 -54 -21 -103t-9 -87q-2 -39 -2 -59v-4.5v-3.5h56v7.5v9.5q0 22 1 60q1 37 4.5 84t10.5 99
t19 104v0zM423 448q-25 53 -38 108q-14 54 -21 102.5t-9 87.5q-2 38 -2 58v4.5v3.5h-56v-2.5v-3.5q0 -18 3 -55q2 -36 12 -83.5t31 -103.5q21 -55 58 -112l3 -4l-3 -5q-37 -57 -58 -112t-31 -102.5t-12 -84.5q-3 -36 -3 -55v-3v-3h56v4v5q0 20 2 58q2 39 9 87.5t21 102.5
q14 55 38 108v0zM384 448q-36 52 -57 107t-32 104.5t-14 88.5t-3 58v3.5v3.5h-56v-3v-2q0 -19 4 -58q4 -40 18.5 -90t43.5 -106q28 -55 77 -106q-49 -50 -78 -106q-28 -55 -42.5 -105.5t-18.5 -89.5q-4 -40 -4 -58v-2.5v-2.5h56v2.5v3.5q0 19 3 58t14 88.5t32 104.5t57 107
v0zM345 448q-50 50 -79 105q-28 55 -42 105.5t-18 90.5q-3 39 -3 58v3v2h-55q0 -55 10 -109q11 -54 33 -102t56 -87q33 -40 78 -66q-45 -27 -78 -67q-34 -39 -56 -87t-33 -101q-10 -54 -10 -110h55v2.5v2.5q0 19 3 59q4 40 18 90t43 106q28 55 78 105v0z" />
    <glyph glyph-name="uni2963" unicode="&#x2963;" 
d="M660 954l-26 -242l9 -1q50 -5 89 26.5t44 81.5q6 50 -25.5 89t-81.5 45zM676 931q38 -8 61.5 -39t19.5 -71q-4 -39 -33.5 -64.5t-68.5 -25.5zM635 723l-52 -481l10 -1h2h2l-6 -255v0q-2 -22 12 -39.5t36 -19.5q22 -3 39.5 11.5t20.5 36.5v0l14 338q6 12 9.5 23.5
t5.5 24.5v0l13 125q4 -33 2.5 -65t-4.5 -53q-1 -11 1.5 -20t8.5 -16t14 -10.5t17 -4.5q8 -1 16.5 1t16.5 7q7 5 12.5 13t6.5 19q6 41 5 92t-13 99q-13 48 -40 87.5t-73 56.5q-13 12 -30 20t-37 10zM652 700q13 -3 25.5 -8.5t22.5 -14.5l1 -2h2q41 -15 65.5 -50.5t36.5 -81.5
t13 -95t-5 -88v0q-1 -7 -4 -11.5t-7 -7.5t-9.5 -4t-10.5 0q-6 0 -10.5 2.5t-7.5 5.5q-4 3 -5.5 8t-0.5 12q5 33 5.5 87t-16.5 100l-18 -2l-21 -187q-1 -11 -4.5 -22t-8.5 -21l-1 -2l-14 -341q-2 -15 -13 -24t-26 -7q-14 1 -23 12.5t-8 25.5v1l7 276l-11 -1h-0.5h-1.5z
M500 971l-9 -1q-50 -6 -81.5 -45t-26.5 -89q6 -50 45 -81.5t88 -26.5l10 1l-1 9zM483 947l22 -199q-39 0 -68.5 25t-34.5 65q-4 39 19.5 70t61.5 39zM525 740l-10 -1q-19 -3 -36 -11t-31 -20q-46 -17 -72.5 -56.5t-39.5 -86.5q-13 -49 -14 -99.5t5 -91.5q2 -11 7.5 -19
t12.5 -13t16 -7t17 -1q9 1 16.5 4.5t13.5 10.5q6 6 9 15.5t1 19.5q-3 22 -4 54t3 65l13 -126q1 -12 5 -24t10 -23l2 -48l120 49zM508 717l40 -374l-81 -33l-1 25l-1 2q-6 10 -9.5 20.5t-4.5 21.5l-20 188l-19 2q-16 -46 -16 -100t5 -87q1 -7 -0.5 -12t-4.5 -8q-3 -4 -8 -6
t-10 -3t-10.5 0.5t-9.5 4.5q-5 3 -8 7t-4 11q-5 40 -4 89t13 95q12 45 36.5 80.5t65.5 50.5l2 1l1 1q10 9 22 15t26 9v0zM563 254l-111 -44l9 -218v-1q2 -22 19.5 -36t39.5 -12q23 3 37 20.5t12 39.5v-1zM544 226l5 -225v0q2 -15 -7 -26t-24 -13q-14 -1 -25 8t-13 23l-8 204
zM601 355l-291 -118l-19 46l-55 -22l19 -49l-206 -83l30 -75l206 83l17 -42l56 22l-16 40q6 2 77.5 31t165.5 67l6 2zM578 325l-5 -54q-48 -20 -93 -38q-44 -18 -78.5 -31.5t-54.5 -22.5l-21 -8l-9 -3l16 -40l-20 -8l-15 38l-2 4l-16 40l-1 3v1v0l-2 5l-16 39l20 8l18 -46z
M974 505l-137 -55v-7q0 -19 -1.5 -36.5t-3.5 -32.5v0v0l-0.5 -1t-0.5 -3l-4 -18l17 7q17 7 29 12t19 8q53 21 67 65.5l14 44.5zM948 474q-4 -15 -16.5 -39.5t-46.5 -38.5q-5 -1 -14.5 -5t-18.5 -8q1 12 2 25.5t1 28.5z" />
    <glyph glyph-name="uniE91E" unicode="&#xe91e;" 
d="M480 256q66 0 113 47t47 113v384q0 66 -47 113t-113 47t-113 -47t-47 -113v-384q0 -66 47 -113t113 -47zM704 512v-96q0 -46 -18 -87q-17 -41 -47.5 -71.5t-71.5 -47.5q-41 -18 -87 -18t-87 18q-41 17 -71.5 47.5t-47.5 71.5q-18 41 -18 87v96h-64v-96q0 -56 20 -105
t54.5 -87.5t80.5 -63.5q47 -24 101 -30v-130h-128v-64h320v64h-128v130q54 6 101 30q46 25 80.5 63.5t54.5 87.5t20 105v96h-64z" />
    <glyph glyph-name="uniE91F" unicode="&#xe91f;" 
d="M896 832v-832h-672q-40 0 -68 28t-28 68t28 68t68 28h608v768h-640q-53 0 -90.5 -37.5t-37.5 -90.5v-768q0 -53 37.5 -90.5t90.5 -37.5h768v896h-64zM224 128v0v0v0q-13 0 -22.5 -9.5t-9.5 -22.5t9.5 -22.5t22.5 -9.5v0v0v0h608v64h-608v0z" />
    <glyph glyph-name="uniE9A9" unicode="&#xe9a9;" 
d="M321 -64q-51 107 -35 175t56 125q43 63 57.5 115l14.5 52l20 -41t7 -109q30 33 48 74q19 41 28 81t10 74q1 35 -3 55q67 -47 114 -119q47 -71 69 -153t15 -167q-6 -86 -45 -162q207 117 254 255q46 137 13 259t-104 210q-71 89 -98 109q18 -40 17.5 -96.5t-37.5 -88.5
q-31 117 -79 190q-49 74 -94.5 115t-79.5 56l-33 15q9 -60 -5 -123q-14 -62 -42.5 -122.5t-67.5 -117.5q-39 -56 -79 -106q-3 48 -10 86t-32 84q-3 -43 -19 -84q-15 -40 -35 -80t-39 -80q-19 -41 -28 -84q-12 -60 -6 -112q5 -52 33 -100t81 -94q53 -45 134 -91v0z" />
    <glyph glyph-name="uniE9B3" unicode="&#xe9b3;" 
d="M1024 512h-101q-10 67 -41 126q-30 58 -76 104t-104 76q-59 31 -126 41v101h-128v-101q-67 -10 -126 -41q-58 -30 -104 -76t-76 -104q-31 -59 -41 -126h-101v-128h101q10 -67 41 -126q30 -58 76 -104t104 -76q59 -31 126 -41v-101h128v101q67 10 126 41q58 30 104 76
t76 104q31 59 41 126h101v128zM793 512h-100q-14 41 -45 72t-72 45v100q40 -9 76 -29q35 -20 63.5 -48.5t48.5 -63.5q20 -36 29 -76zM512 384q-27 0 -45.5 18.5t-18.5 45.5t18.5 45.5t45.5 18.5t45.5 -18.5t18.5 -45.5t-18.5 -45.5t-45.5 -18.5zM448 729v-100
q-41 -14 -72 -45t-45 -72h-100q9 40 29 76q20 35 48.5 63.5t63.5 48.5q36 20 76 29zM231 384h100q14 -41 45 -72t72 -45v-100q-40 9 -76 29q-35 20 -63.5 48.5t-48.5 63.5q-20 36 -29 76v0zM576 167v100q41 14 72 45t45 72h100q-9 -40 -29 -76q-20 -35 -48.5 -63.5
t-63.5 -48.5q-36 -20 -76 -29v0z" />
    <glyph glyph-name="uniEA1C" unicode="&#xea1c;" 
d="M192 832l640 -384l-640 -384v768z" />
    <glyph glyph-name="uniEA1D" unicode="&#xea1d;" 
d="M128 832h320v-768h-320v768zM576 832h320v-768h-320v768z" />
    <glyph glyph-name="u1F3AE" unicode="&#x1f3ae;" horiz-adv-x="895" 
d="M790 960h-685q-44 0 -74.5 -31t-30.5 -74v-692q0 -43 30.5 -74t74.5 -31h580l-28 95l66 -61l62 -57l110 -98v918q0 43 -31 74t-74 31v0zM593 292l-11.5 13.5t-22.5 28.5q50 14 71 37.5l21 23.5q-15 -11 -30 -18.5t-28 -12.5q-20 -8 -38.5 -13.5t-36.5 -8.5
q-36 -6 -69.5 -5t-62.5 6q-22 4 -40.5 10t-34.5 12q-9 3 -18.5 7.5t-18.5 9.5l-3 1.5t-2 1.5q-1 0 -1.5 0.5l-0.5 0.5q-7 4 -10.5 6.5l-3.5 2.5l20 -23t69 -37q-11 -15 -22.5 -29l-11.5 -14q-85 3 -120.5 40.5l-35.5 37.5q0 62 11 116q12 54 25.5 94.5t25.5 64.5l11 23
q56 41 100 47.5l44 6.5l5 -6q-69 -20 -101.5 -43.5l-32.5 -23.5l8 4t22 10q41 18 72 25t44 8q2 0 4 0.5t5 0.5q23 3 49 3.5t54 -2.5q36 -4 75 -15.5t79 -33.5l-31 22.5t-96 42.5l7 8l44 -6.5t99 -47.5l12 -23q11 -24 25 -64.5t25 -94.5q12 -54 12 -116l-36 -37.5t-120 -40.5
v0zM355 531q-22 0 -37 -16.5t-15 -40.5q0 -23 15 -39.5t37 -16.5t37 16.5t15 39.5q0 24 -15 40.5t-37 16.5v0zM541 531q-21 0 -36.5 -16.5t-15.5 -40.5q0 -23 15.5 -39.5t36.5 -16.5q22 0 37.5 16.5t15.5 39.5q0 24 -15.5 40.5t-37.5 16.5v0z" />
    <glyph glyph-name="u1F3BE" unicode="&#x1f3be;" 
d="M470 894q-75 -7 -146 -39.5t-129 -89.5q-57 -58 -89.5 -129t-39.5 -146q41 -5 83 -18t83.5 -33.5t80.5 -49.5q40 -28 76 -64t64 -76q29 -39 49.5 -80.5t33.5 -83.5t18 -83q75 7 146 39.5t129 89.5q57 58 89.5 129t39.5 146q-41 5 -83 18q-43 12 -84 33t-80 49
q-40 29 -76 65t-64 75q-29 40 -49.5 81t-33.5 84q-13 42 -18 83v0zM960 461q-2 42 -10 83q-9 40 -25.5 79t-40.5 74q-24 36 -55 68q-32 31 -68 55q-35 24 -74 40.5t-79 25.5q-41 8 -82 10q4 -36 16 -73t30.5 -73.5t44.5 -71.5q25 -35 58 -68q32 -32 67 -57q35 -26 71 -44.5
t73 -30.5q38 -12 74 -17v0zM64 434q2 -41 10 -82q9 -40 25.5 -79t40.5 -74q24 -36 55 -68q32 -31 68 -55q35 -24 74 -40.5t79 -25.5q41 -8 82 -10q-4 36 -16 73t-30.5 73.5t-44.5 71.5t-58 67t-67 58t-71.5 44.5t-73.5 30.5t-73 16v0z" />
    <glyph glyph-name="u1F41E" unicode="&#x1f41e;" 
d="M1024 384v64h-193q-5 55 -23.5 103.5t-48.5 88.5h162l70 280l-62 16l-58 -232h-175q0 1 -1 1.5l-1 0.5q5 15 7.5 30.5t2.5 32.5q0 79 -56 135t-136 56t-136 -56t-56 -135q0 -17 2.5 -32.5t7.5 -30.5l-1 -0.5t-1 -1.5h-175l-58 232l-62 -16l70 -280h162
q-30 -40 -48.5 -88.5t-23.5 -103.5h-193v-64h193q3 -34 11.5 -66.5t22.5 -61.5h-124l-70 -280l62 -16l58 232h112q44 -58 108.5 -92.5t138.5 -34.5t138.5 34.5t108.5 92.5h112l58 -232l62 16l-70 280h-124q14 29 22.5 61.5t11.5 66.5h193z" />
    <glyph glyph-name="u1F422" unicode="&#x1f422;" 
d="M81 864q-3 0 -6.5 -1t-7.5 -3q-10 -6 -19.5 -15.5t-16.5 -21.5q-3 -6 -3 -13v-7l168 -170l-26 -27l-1 -6.5t3 -11.5q3 -5 10 -6.5l7 -1.5l23 23l36 -33l19 21l-35 32l31 31l27 -24l19 22l-25 23l26 26l-1 6.5t-4 11.5q-4 5 -10.5 4l-6.5 -1l-32 -30l-167 172h-2.5h-5.5v0
zM83 805h34l-1 -34l-33 1v33zM128 758h33v-33h-33v33zM533 715q-46 0 -95 -8t-83 -38q-30 -26 -54 -61q-24 -34 -40 -73t-22 -80q-7 -41 -1 -80q8 -54 32 -113q23 -59 59 -109t83 -83q47 -34 101 -37q53 -4 102 22q49 25 89.5 67.5t70.5 95.5q29 53 42 104q7 27 8 54.5
t-3 55.5l4 -14q17 0 24.5 -24.5t10.5 -61.5q18 -26 34.5 -32t31.5 -10l-7.5 25.5t-9.5 27.5q-1 2 4 29.5t6 27.5q-3 0 -5.5 9t-7.5 15q12 -8 51 -5.5t38 14.5l-16 9.5t-26 17.5q-14 11 -18 21.5t-26 26.5q-15 11 -29.5 11t-26.5 -3q-11 -3 -26.5 -14.5t-18.5 -13.5
q-15 50 -43.5 95.5t-65.5 80.5q-32 30 -77.5 40.5t-89.5 10.5v0zM175 711l33 -1v-33h-33v34zM373 448q37 1 75 -11.5t76 -12.5q49 -1 98 13t97 4q9 -2 17 -6t12 -11q8 -15 7.5 -33.5t-7.5 -33.5q-8 -18 -24.5 -33.5t-35.5 -19.5q-38 -9 -80 -13q-41 -4 -84 -3t-86 7t-82 18
q-14 4 -25 15.5t-17 24.5q-7 15 -9 33t4 33q4 9 12.5 15.5t17.5 9.5q8 2 16.5 3t17.5 1v0z" />
    <glyph glyph-name="u1F426" unicode="&#x1f426;" 
d="M512 924l-322 -113l-88 -839h820l-88 839l-322 113v0zM355 671q15 0 30 -5.5t28 -14.5q62 -43 72 -102t44 -95q7 17 59 19q52 3 110.5 -2.5t105.5 -16.5q46 -11 41 -21q-15 -2 -55 -14t-78.5 -33.5t-62.5 -52.5q-23 -31 -5 -71q12 -25 42 -52q30 -28 60.5 -51t52.5 -38
q22 -16 17 -18q-10 -4 -25 -3.5t-85 42.5q-102 33 -171 7.5t-162 28.5q-30 16 -46.5 43t-30.5 54q-25 69 -34 137.5t-14 136.5q-13 9 -24.5 18.5t-39.5 8.5q14 11 30 19t38 12l28.5 28t53.5 34q5 1 10.5 1.5t10.5 0.5v0z" />
    <glyph glyph-name="u1F42C" unicode="&#x1f42c;" 
d="M427 917q-24 0 -42.5 -0.5t-28.5 -1.5q-13 -1 -29.5 -2t-27.5 -2q-31 -1 -53.5 -7.5t-52.5 -21.5q-34 -18 -65.5 -44.5t-47.5 -50.5q-6 -11 -15.5 -30.5t-13.5 -31.5q-6 -16 -9 -53t-4 -89q0 -18 0.5 -35t0.5 -23q2 -19 6 -49t6 -42q1 -7 2 -14.5t2 -11.5
q3 -15 7.5 -30.5t12.5 -33.5q14 -31 28.5 -51t34.5 -35q10 -8 32.5 -18.5t40.5 -15.5q30 -9 41 -12t31 -6q11 -2 22.5 -4.5t16.5 -3.5q17 -5 53 -6.5t137 -1.5q60 0 100.5 0.5t47.5 1.5v0q25 3 54.5 8.5t53.5 11.5q5 2 12 3.5t12 2.5q38 10 70.5 26.5t45.5 32.5q2 3 4 5.5
t3 3.5q8 8 22.5 36t21.5 48q7 21 14 63t11 92q3 34 1.5 88t-6.5 86q-3 17 -9 40.5t-11 32.5q-8 17 -28.5 40.5t-37.5 35.5q-5 3 -11.5 8t-10.5 8q-8 6 -28.5 18t-22.5 12l-2.5 0.5t-4.5 1.5q-17 7 -30.5 10t-43.5 5q-25 2 -64 3q-38 2 -81.5 2.5t-86.5 1.5q-44 0 -80 -1v0z
M524 845q94 0 140.5 -5t86.5 -19q34 -13 57.5 -28t39.5 -36q4 -6 12.5 -19.5t11.5 -20.5q5 -10 9.5 -26t6.5 -29q4 -22 3.5 -69t-4.5 -76q-9 -71 -25.5 -111t-45.5 -62l-6 -4t-4 -3q-5 -5 -21.5 -13t-34.5 -15q-25 -10 -64 -20.5t-77 -16.5q-15 -3 -65.5 -4t-82.5 1v0
q-46 2 -92 11t-75 21q-2 1 -6 2.5t-8 2.5q-13 5 -35.5 16.5t-32.5 19.5q-22 16 -36.5 39t-24.5 57q-5 18 -7 29t-6 47q-6 51 -6 85t7 71q2 16 5 25t9 23q16 34 42.5 59t60.5 37q51 19 100.5 25t167.5 6v0zM577 821q-18 1 -39.5 1t-47.5 -1q-44 0 -77 -1t-36 -1
q-3 -1 -9.5 -2t-11.5 -1q-13 -1 -37.5 -5.5t-37.5 -8.5q-12 -3 -26 -9.5t-23 -13.5q-10 -7 -26 -23t-22 -25q-19 -28 -25 -67t-3 -106q1 -32 4 -53.5t8 -42.5q9 -39 24 -65.5t34 -38.5q18 -10 41 -20.5t44 -17.5q7 -2 13 -4t7 -2q3 -1 7.5 -0.5t4.5 1.5t-3.5 5t-7.5 9
q-9 9 -17.5 25t-11.5 28q-3 9 -3.5 23.5t0.5 25.5q2 12 7.5 28.5t9.5 21.5q2 3 3 5l1 2q0 4 12.5 14.5t25.5 16.5q16 8 46.5 16.5t53.5 11.5q7 1 9.5 2t5.5 6q6 9 17 28.5t13 24.5q1 3 2 5t2 3q0 1 2 4.5t3 8.5l4 10t3 8q2 3 3.5 7t2.5 7q7 24 9.5 29t5.5 3q1 -1 2.5 -4
t1.5 -7q3 -15 13.5 -44.5t20.5 -48.5q4 -9 11 -18.5t14 -17.5q4 -5 7.5 -6.5t15.5 -3.5q14 -3 34 -9t30 -11q13 -7 29.5 -23.5t22.5 -29.5q7 -15 10 -33.5t0 -32.5q-3 -16 -7.5 -28.5t-9.5 -24.5q-5 -10 -7.5 -16.5t-1.5 -7.5q3 -2 28 9t37 19q15 10 32 32t21 37
q1 3 2.5 8.5t3.5 9.5q3 10 5 19.5t5 35.5q2 11 4 23l3 18q3 14 4 57.5t-1 57.5q-2 13 -7 28t-10 26q-2 4 -4 7.5t-2 4.5q0 2 -9 14t-17 21q-20 21 -40 32t-50 19q-33 8 -66.5 12t-88.5 4v0zM682 707q7 0 13.5 -2t13.5 -7q22 -15 18 -38.5t-30 -32.5q-7 -2 -13 -2t-13 2v0
q-8 3 -16 10.5t-10 14.5q-3 12 0 23t12 20q6 5 12.5 8t12.5 4v0zM393 697q9 1 12.5 0t9.5 -5q11 -8 15.5 -18t1.5 -23q-3 -18 -21.5 -26.5t-35.5 -0.5q-8 3 -13 9.5t-7 15.5q-4 12 1 23t16 20q5 3 9 4t12 1v0zM688 690q-6 1 -12.5 -1.5t-10.5 -7.5q-4 -4 -5 -13t3 -13
q6 -9 16.5 -11.5t18.5 3.5q8 5 11 14t0 16q-3 6 -8.5 9t-12.5 4v0zM390 681q-5 0 -9.5 -2t-8.5 -6q-5 -7 -6 -11.5t2 -10.5q6 -12 15 -15t21 2v0q7 3 10 7.5t3 12.5q0 6 -1 8.5t-6 6.5t-10 6t-10 2v0zM539 638q-1 1 -2.5 -1.5l-4.5 -7.5q-2 -4 -3 -7.5l-1 -3.5
q0 -3 -10 -22.5t-16 -28.5q-4 -6 -6.5 -10.5t-2.5 -5.5t10.5 -1.5t30.5 -0.5q23 0 32 0.5t9 1.5t-2 4.5t-5 7.5q-7 9 -14 25.5t-10 31.5q-1 7 -3 12t-2 6v0zM541 528h-41t-30 -1l-20 -2t-14 -2t-11.5 -3t-13.5 -4q-17 -4 -33.5 -13t-27.5 -19q-10 -11 -14.5 -18.5
t-8.5 -21.5q-4 -16 -1 -40t11 -39q8 -16 23.5 -35t24.5 -24q6 -3 27.5 -7t42.5 -5q3 0 24 -0.5t47 0.5q35 0 53 0.5t28 2.5v0q8 1 21.5 3.5t24.5 4.5l28 6l9 10q20 21 31 56.5t7 61.5q-2 11 -10 25t-18 24q-14 14 -35.5 23.5t-44.5 12.5q-7 1 -13 1.5t-8 1.5q-3 0 -20 0.5
t-38 0.5v0zM530 435q16 0 24.5 -3t14.5 -11q4 -6 5.5 -11t0.5 -12q-2 -13 -14 -20.5t-31 -8.5q-7 -1 -12.5 -1t-7.5 1v0q-8 2 -14.5 6t-9.5 10q-7 13 -3 25.5t18 19.5q6 3 11 4t18 1v0zM530 420q-3 0 -6.5 -0.5t-7.5 -1.5q-8 -2 -12 -6t-4 -11q0 -6 5.5 -11t11.5 -6
q11 -1 18 -1t12 2v1q5 2 7.5 7t1.5 13q-1 6 -8.5 10t-17.5 4v0zM171 199q-5 0 -10.5 -1t-12.5 -3q-14 -5 -23 -9.5t-13 -10.5q-10 -13 -16 -32.5t-7 -40.5q-1 -13 -0.5 -18t3.5 -14q6 -16 17.5 -29.5t32.5 -27.5q9 -6 21 -11.5t17 -5.5q1 0 2.5 -0.5t1.5 -1.5q1 -2 32 -7
t44 -6q3 0 8 1l10 2v0q13 3 25.5 9.5t20.5 15.5q14 14 20 38t7 73q1 38 -0.5 43t-17.5 5l-11 1l-1 -32q-1 -13 -2 -26.5t-2 -18.5q-1 -9 -7 -24t-11 -20q-13 -14 -44.5 -20.5t-54.5 0.5q-14 5 -21 8.5t-15 11.5q-9 9 -13 17.5t-4 20.5q0 23 9.5 38t26.5 19q16 3 26.5 -4.5
t4.5 -17.5q-5 -7 -3 -12.5t9 -3.5q4 1 10.5 7t8.5 12q3 6 3 18.5t-3 21.5q-2 6 -4 9.5t-8 7.5q-8 7 -15 10t-19 6q-6 1 -11.5 1.5t-10.5 0.5v0zM845 199q-15 -1 -25.5 -5t-21.5 -13q-8 -6 -10 -9t-4 -11q-2 -9 -2 -19.5t2 -15.5q1 -2 3.5 -6t5.5 -7q4 -5 6.5 -6t7.5 -1
q8 0 9 2t-3 7q-8 10 -2 19.5t21 9.5q9 0 16 -3t14 -10q9 -9 12 -18.5t2 -25.5q0 -15 -3 -22t-13 -17q-14 -12 -28 -17t-38 -5q-20 0 -31.5 2.5t-21.5 8.5q-10 5 -15 10t-10 15q-6 13 -8.5 27.5t-3.5 43.5l-1 36h-12q-16 0 -17.5 -4.5t-0.5 -42.5q2 -63 12 -89.5t37 -39.5
q17 -8 27.5 -9t40.5 2q10 1 21 2.5t15 2.5q11 2 25.5 7.5t19.5 8.5q2 2 4 2.5l2 0.5q1 0 5 3t10 8q21 17 32 35t11 38q0 25 -7.5 48t-18.5 36q-5 5 -10.5 8t-21.5 8q-11 4 -16.5 4.5t-15.5 0.5v0zM266 177q-2 0 -2 -2t3 -10q3 -12 1.5 -28t-7.5 -27q-3 -6 -13 -14.5
t-15 -9.5q-11 -3 -22.5 -1t-14.5 8q-2 4 -1.5 10.5t2.5 12.5q3 7 2.5 8.5t-5.5 1.5q-7 1 -11 -2t-8 -12q-5 -11 -6 -21t2 -16q5 -9 16.5 -16t25.5 -11q11 -2 18.5 -1.5t18.5 3.5v0q11 3 21.5 9.5t12.5 10.5q4 7 8 21t6 30q3 16 2 24.5t-6 16.5q-2 3 -13 9t-15 6v0zM760 177
q-2 1 -9.5 -1.5t-12.5 -6.5q-2 -1 -5 -5t-5 -7q-3 -7 -3.5 -11t1.5 -18q2 -21 6.5 -37.5t10.5 -23.5q1 -2 4.5 -4t6.5 -4q17 -9 32.5 -11t31.5 3q19 5 29 16.5t8 25.5q-2 9 -5.5 18.5t-7.5 11.5q-1 1 -4.5 2t-6.5 1q-7 0 -8 -2.5t5 -10.5q3 -5 3.5 -7.5t-1.5 -7.5
q-3 -12 -20 -14t-31 9q-11 7 -15.5 15.5t-7.5 23.5q-3 12 -2.5 16t2.5 14q2 6 3 10.5l1 4.5v0zM629 162q-5 1 -11.5 0.5t-10.5 -1.5l-9 -1l-1 -20q-1 -18 -4 -29.5t-10 -22.5q-6 -10 -12 -15t-17 -10q-26 -10 -44 -10t-38 9q-13 6 -19.5 11t-11.5 15q-7 12 -10.5 26t-2.5 27
q1 15 -2.5 18t-22.5 3h-20l-3 -9q-3 -10 -3.5 -37t0.5 -50q3 -27 7 -39t15 -22q15 -14 46.5 -21t77.5 -5q12 0 23 1t16 1v0q22 4 37 9t15 8l1 1t3 1q5 1 11.5 9t9.5 17q5 12 7 29t2 48q0 20 -1 31t-2 17l-3 11h-13zM554 160q-5 0 -7.5 -3.5t-2.5 -10.5q0 -8 -2 -14.5
t-6 -11.5q-11 -12 -26.5 -10.5t-24.5 15.5q-3 4 -4 8t-1 11q0 10 -3 12.5t-15 2.5q-10 0 -11.5 -3t-0.5 -16t5 -25t9 -17q4 -5 13.5 -10.5t16.5 -7.5q2 -1 8.5 -1h13.5q11 0 15.5 1.5t11.5 5.5q11 6 15 9t7 11q5 9 8 28t1 23q-1 1 -4 2t-7 1q-3 0 -5 0.5t-4 -0.5v0zM525 159
q-5 0 -6.5 -2t-2.5 -11q0 -2 -1 -3.5t-3 -1.5t-3 2t-1 7q-1 6 -2 7t-6 1q-4 0 -5 -1t-2 -8q0 -10 1.5 -14t6.5 -7q6 -4 12.5 -4t10.5 4q4 5 5.5 10.5t1.5 12.5q0 6 -0.5 7t-5.5 1v0z" />
    <glyph glyph-name="u1F431" unicode="&#x1f431;" 
d="M672 841q-9 -7 -16.5 -17.5t-14.5 -19.5q-20 -30 -40.5 -61.5t-48.5 -54.5q-16 -14 -35.5 -20t-37.5 -8q-30 0 -59.5 5.5t-54.5 22.5q-27 20 -50 47.5t-48 53.5q0 4 -5 1.5t-7 -4.5q-19 -28 -33.5 -57.5t-28.5 -59.5q-25 -50 -46.5 -103t-32.5 -109q-3 -20 -4.5 -39.5
t0.5 -39.5q10 -5 20.5 -4.5t19.5 -1.5h60h60q12 -3 23 -3t20 -7q5 -4 0.5 -8t-6.5 -4q-25 -7 -50.5 -7t-50.5 -2q-21 -2 -42 -2t-41 -4q-9 -3 -9 -13.5v-17.5q2 -9 2.5 -18.5t0.5 -18.5q4 -7 12 -6.5t15 0.5q28 -2 54 -1.5t54 -4.5q6 -2 12.5 -5.5t8.5 -12.5q-2 -7 -10 -7
t-14 -3q-21 -2 -42 -1t-41 1q-5 -2 -10.5 -3t-5.5 -6q-2 -16 8.5 -28t19.5 -21q34 -32 78.5 -53.5t90.5 -35.5q41 -14 84 -19.5t84 -5.5q63 -2 125 9.5t115 46.5q34 20 65 48t51 65q7 16 15 30.5t10 31.5q-2 4 -7.5 3.5t-7.5 -0.5q-28 2 -55.5 1.5t-55.5 4.5q-4 2 -11.5 3.5
t-9.5 8.5q2 7 9.5 8.5t11.5 3.5q35 5 69.5 4.5t68.5 1.5q5 3 4.5 9t1.5 13q0 16 0.5 32t-6.5 32q-2 5 -8 4t-10 -1q-35 3 -69.5 1t-68.5 3q-3 0 -6.5 5t3.5 7q23 9 48 10.5t50 1.5q14 2 29 1.5t29 1.5q2 5 0.5 11t-3.5 11q-21 73 -56 141.5t-79 128.5q-21 32 -44 57.5
t-51 46.5v0zM623 500q18 0 31 -16.5t9 -35.5q-3 -16 -18.5 -26t-33.5 -8q-17 3 -26.5 18t-7.5 32q4 16 17 27.5t29 8.5v0zM393 497q20 0 33.5 -16.5t9.5 -35.5q-5 -21 -27 -29.5t-41 5.5q-9 9 -14.5 20.5t-0.5 25.5q2 13 13 23t27 7v0zM528 359q9 -4 11 -15.5t4 -21.5
q2 -13 6.5 -25.5t18.5 -17.5q11 -6 25 -10.5t21 -13.5q0 -5 -5.5 -7t-10.5 -2q-16 0 -30 8.5t-28 15.5q-11 5 -24.5 4.5t-24.5 -7.5q-12 -7 -27 -11t-28 5q-3 2 -5.5 4.5t2.5 4.5q13 12 31 16.5t30 20.5q14 9 18 25t16 27v0z" />
    <glyph glyph-name="u1F986" unicode="&#x1f986;" horiz-adv-x="970" 
d="M380 46q-49 10 -89 29q-40 18 -70 44t-49 59q-18 32 -24 71q-7 42 11 83.5t73 109.5q21 26 39.5 51.5t23.5 35.5l12 25l-16 18q-6 7 -12.5 15t-9.5 12q-4 6 -13.5 8.5t-43.5 4.5q-55 4 -69 15.5t18 27.5l21 10l-23 18q-20 17 -33 35t-16 34q-2 10 -0.5 14t9.5 9q8 6 15 5
t37 -13q24 -9 35 -11.5t18 -0.5q20 6 39.5 18.5t40.5 31.5q34 33 66 48.5t67 15.5q53 0 95.5 -22t62.5 -60q19 -35 23 -70.5t-6 -70.5q-14 -42 -38 -70.5t-70 -54.5q-9 -6 -16 -11t-7 -6q0 -2 14 -3t34 0l47 1l52 -26q47 -22 70 -26.5t40 5.5q16 10 29 25t25 36q7 15 12 20
t12 6q14 2 27.5 -7.5t23.5 -27.5q14 -24 18.5 -56.5t2.5 -87.5q-3 -71 -18 -116t-47 -80q-40 -44 -104.5 -76t-140.5 -45q-35 -6 -101 -6t-97 6v0zM385 709q19 21 21 46t-14 44q-7 8 -12.5 10.5t-17.5 2.5q-25 0 -41.5 -20.5t-16.5 -51.5q0 -13 2.5 -19.5t12.5 -15.5
q10 -11 15.5 -13t17.5 0q11 1 18 5t15 12v0z" />
    <glyph glyph-name="cent" unicode="&#xa2;" 
d="M503 960h480v-960h-480v57.8125h276.094v389.609h110.352q104.258 0 -56.4844 161.191t-329.961 293.184v58.2031zM503 57.8125l-278.633 -0.0195312v389.609h-106.289q-193.027 0 343.555 423.438l40.8594 31.3281z" />
    <glyph glyph-name="exclamdown" unicode="&#xa1;" 
d="M500 960h480v-960h-480v56.6016h265.742v415.625h120.625q106.581 0 -52.3232 150.938t-334.044 280.233v56.6016zM500 56.6016h-276.602v415.625h-110.664q-165.868 0 387.266 431.172v-344.336q-179.805 0.0390625 -200.742 -20.8984q-20.918 -20.918 -20.918 -197.266
t20.918 -197.266q21.1914 -21.1621 200.742 -20.8594v-66.1719zM500 559.062q173.188 -0.336914 193.75 -20.8984q20.918 -20.918 20.918 -197.266t-20.918 -197.266q-20.5605 -20.5605 -193.75 -20.8594v436.289zM399.375 516.25q49.8438 0 49.8438 -49.8047
t-49.8438 -49.8047q-49.8047 0 -49.8047 49.8047t49.8047 49.8047zM595.781 516.25q-49.8438 0 -49.8438 -49.8047t49.8438 -49.8047q49.7656 0.0351562 49.7656 49.8047t-49.7656 49.8047zM397.227 389.961q49.8398 0 49.8047 -49.8828q0 -49.8047 -49.8047 -49.8047
q-49.8438 0 -49.8438 49.8047q-0.0351562 49.8828 49.8438 49.8828zM593.555 389.961q-49.8008 -0.0351562 -49.7656 -49.8828q0 -49.7695 49.7656 -49.8047q49.8438 -0.0351562 49.8438 49.8047q0.0351562 49.918 -49.8438 49.8828zM397.93 263.594
q49.8789 0 49.8438 -49.8438q-0.0351562 -49.8047 -49.8438 -49.8047q-49.7695 0 -49.8047 49.8047q-0.0351562 49.8438 49.8047 49.8438zM594.297 263.594q-49.8398 -0.0351562 -49.8047 -49.8438q0.0351562 -49.7695 49.8047 -49.8047q49.7695 0 49.8047 49.8047
q0.0351562 49.8438 -49.8047 49.8438z" />
  </font>
</defs>
</svg>
