<?xml version="1.0" encoding="UTF-8" standalone="no"?>
<!-- Created with Inkscape (http://www.inkscape.org/) -->

<svg
   xmlns:svg="http://www.w3.org/2000/svg"
   xmlns="http://www.w3.org/2000/svg"
   width="353"
   height="353"
   viewBox="0 0 93.397917 93.397917"
   version="1.1"
   id="svg8022">
  <g
     id="layer1"
     transform="translate(0,-203.60208)">
    <path
       style="fill:#447821;stroke:#000000;stroke-width:2.11666656;stroke-linecap:butt;stroke-linejoin:miter;stroke-miterlimit:4;stroke-dasharray:none;stroke-opacity:1;filter:url(#filter2848)"
       d="m 47.443526,211.32448 c -2.432951,0.29233 -3.898226,0.79513 -6.427027,4.28468 -2.607912,1.77758 -3.817142,4.35442 -5.183088,6.84168 -4.035202,1.29002 -3.147114,2.58002 -0.207335,3.87004 -0.77307,6.03386 1.188871,7.50936 3.109853,9.05313 -3.353008,1.4794 -7.169483,2.62345 -8.362047,5.18309 -3.311857,-0.61075 -4.082601,0.19614 -4.630225,2.00413 l -6.150596,2.97163 -0.27643,32.13513 1.935018,2.14236 c -0.961643,0.72223 -2.551047,1.06782 -2.695204,2.28054 l -0.06911,5.04487 c 0.518453,0.78265 1.239538,0.75477 1.93502,0.8293 l 22.252718,0.13823 c 3.650021,-0.37452 5.77103,-0.0199 7.601861,0.13823 l 21.561643,-0.0692 c 0.92122,-0.2536 2.265126,-0.0845 2.695204,-0.82928 l 0.345539,-6.1506 -2.626097,-1.45127 2.073235,-1.93502 -0.27643,-32.54979 c -2.265018,-1.06715 -4.17692,-1.78118 -6.08149,-2.48788 -1.599792,-2.83432 -3.057658,-2.43529 -5.459518,-2.48787 -1.303345,-3.09976 -5.144905,-3.96701 -8.016508,-4.97577 2.339124,-1.93213 3.244756,-4.54437 3.659243,-9.06642 1.349782,-1.27013 2.720718,-2.0444 -0.06563,-3.64941 -0.554761,-1.58949 -0.475416,-3.17897 -3.109852,-4.76844 -1.217228,-4.87037 -4.861986,-6.52835 -7.53275,-6.49615 z"
       id="path861"/>
    <path
       style="fill:none;stroke:#000000;stroke-width:2.11666656;stroke-linecap:butt;stroke-linejoin:miter;stroke-miterlimit:4;stroke-dasharray:none;stroke-opacity:1"
       d="m 38.735941,235.37401 c 4.318698,2.44406 8.896955,4.20215 15.756581,-0.0691"
       id="path873"/>
    <path
       style="fill:none;stroke:#000000;stroke-width:2.11666656;stroke-linecap:butt;stroke-linejoin:miter;stroke-miterlimit:4;stroke-dasharray:none;stroke-opacity:1;filter:url(#filter2848)"
       d="m 25.74367,242.56123 21.008776,17.89891 21.216103,-17.6916"
       id="path883"/>
    <path
       style="fill:none;stroke:#000000;stroke-width:2.11666656;stroke-linecap:butt;stroke-linejoin:miter;stroke-miterlimit:4;stroke-dasharray:none;stroke-opacity:1;filter:url(#filter2848)"
       d="m 21.389876,244.63447 c 1.441605,-0.58364 8.232068,5.32752 8.223829,6.15059 l 0.06911,26.74473 c -0.548027,0.83858 -1.251255,1.62543 -2.349666,2.28056 -2.282202,0.59507 -4.351477,0.69335 -6.081488,0"
       id="path885"/>
    <path
       style="fill:none;stroke:#000000;stroke-width:1.32291663;stroke-linecap:butt;stroke-linejoin:miter;stroke-miterlimit:4;stroke-dasharray:none;stroke-opacity:1"
       d="m 32.930882,238.0001 c 8.038091,5.56901 16.279611,10.14346 27.574021,-0.20734"
       id="path875"/>
    <path
       style="fill:none;stroke:#000000;stroke-width:2.11666656;stroke-linecap:butt;stroke-linejoin:miter;stroke-miterlimit:4;stroke-dasharray:none;stroke-opacity:1"
       d="m 30.373894,240.5571 c 12.479214,8.43345 22.777161,6.34549 32.135136,-0.27643"
       id="path877"/>
    <path
       style="fill:none;stroke:#000000;stroke-width:1.32291663;stroke-linecap:butt;stroke-linejoin:miter;stroke-miterlimit:4;stroke-dasharray:none;stroke-opacity:1"
       d="m 30.373894,240.5571 16.51677,10.15885 15.618366,-10.43528"
       id="path881"/>
    <path
       style="fill:none;stroke:#000000;stroke-width:2.11666656;stroke-linecap:butt;stroke-linejoin:miter;stroke-miterlimit:4;stroke-dasharray:none;stroke-opacity:1"
       d="m 72.736989,244.63447 c -3.149768,0.86349 -6.0176,2.50231 -8.431154,5.39039 l -0.207334,26.95207 c 0.530741,1.08293 0.521573,1.74506 2.280558,3.17894 2.058275,0.66354 3.99987,0.39365 5.874164,-0.41464"
       id="path887"/>
    <path
       style="fill:none;stroke:#000000;stroke-width:2.11666656;stroke-linecap:butt;stroke-linejoin:miter;stroke-miterlimit:4;stroke-dasharray:none;stroke-opacity:1"
       d="m 29.613705,253.61848 c 3.79726,0.19839 1.680415,9.93253 3.524502,11.33368 5.006008,3.80356 9.246825,3.49423 13.060853,3.61079 4.913211,0.15016 9.118188,-0.22324 13.338336,-3.12704 3.328905,-2.29049 -0.151375,-10.71803 4.768439,-12.43941"
       id="path889"/>
    <path
       style="fill:none;stroke:#000000;stroke-width:1.05833328;stroke-linecap:butt;stroke-linejoin:miter;stroke-miterlimit:4;stroke-dasharray:none;stroke-opacity:1"
       d="m 23.117573,264.3993 h 6.565241"
       id="path891"/>
    <path
       style="fill:none;stroke:#000000;stroke-width:1.05833328;stroke-linecap:butt;stroke-linejoin:miter;stroke-miterlimit:4;stroke-dasharray:none;stroke-opacity:1"
       d="M 70.318215,264.53751 H 64.098511"
       id="path893"/>
    <path
       style="fill:none;stroke:#000000;stroke-width:1.58749998;stroke-linecap:butt;stroke-linejoin:miter;stroke-miterlimit:4;stroke-dasharray:none;stroke-opacity:1"
       d="m 19.523964,274.28171 c 3.754859,-2.03283 6.334883,-2.27591 10.089741,-0.27643"
       id="path895"/>
    <path
       style="fill:none;stroke:#000000;stroke-width:1.05833328;stroke-linecap:butt;stroke-linejoin:miter;stroke-miterlimit:4;stroke-dasharray:none;stroke-opacity:1"
       d="m 25.39813,276.21673 v 3.87004"
       id="path899"/>
    <path
       style="fill:none;stroke:#000000;stroke-width:1.05833328;stroke-linecap:butt;stroke-linejoin:miter;stroke-miterlimit:4;stroke-dasharray:none;stroke-opacity:1"
       d="m 22.184615,276.54501 v 3.48992"
       id="path901" />
    <path
       style="fill:none;stroke:#000000;stroke-width:1.58749998;stroke-linecap:butt;stroke-linejoin:miter;stroke-miterlimit:4;stroke-dasharray:none;stroke-opacity:1"
       d="m 74.013487,274.12622 c -3.754859,-2.03284 -6.334886,-2.27593 -10.089744,-0.27644"
       id="path895-3"/>
    <path
       style="fill:none;stroke:#000000;stroke-width:1.05833328;stroke-linecap:butt;stroke-linejoin:miter;stroke-miterlimit:4;stroke-dasharray:none;stroke-opacity:1"
       d="m 68.139321,276.06125 v 4.35377"
       id="path899-9"/>
    <path
       style="fill:none;stroke:#000000;stroke-width:1.05833328;stroke-linecap:butt;stroke-linejoin:miter;stroke-miterlimit:4;stroke-dasharray:none;stroke-opacity:1"
       d="m 71.352834,276.3895 v 3.48996"
       id="path901-6"/>
    <path
       style="fill:none;stroke:#000000;stroke-width:1.58749998;stroke-linecap:butt;stroke-linejoin:miter;stroke-miterlimit:4;stroke-dasharray:none;stroke-opacity:1"
       d="m 29.613705,274.00528 c 2.158674,-1.82705 4.809216,-4.43034 8.214843,-4.95253 6.016828,-0.92259 11.739639,-0.46431 17.503899,0.35453 4.413926,0.62702 6.471649,2.64469 8.772704,4.46843"
       id="path924"/>
    <path
       style="fill:none;stroke:#000000;stroke-width:1.58749998;stroke-linecap:butt;stroke-linejoin:miter;stroke-miterlimit:4;stroke-dasharray:none;stroke-opacity:1"
       d="m 27.333148,279.81035 c 1.407134,1.24236 2.72115,2.37608 3.040746,2.34965 l 32.480676,-0.0691 c 0.931177,-0.12828 2.05998,-1.71771 2.971637,-2.48788"
       id="path926"/>
    <path
       style="fill:none;stroke:#000000;stroke-width:1.32291663;stroke-linecap:butt;stroke-linejoin:miter;stroke-miterlimit:4;stroke-dasharray:none;stroke-opacity:1"
       d="m 29.613705,274.00528 4.284687,0.0691"
       id="path928"/>
    <path
       style="fill:none;stroke:#000000;stroke-width:1.32291663;stroke-linecap:butt;stroke-linejoin:miter;stroke-miterlimit:4;stroke-dasharray:none;stroke-opacity:1"
       d="m 29.682814,277.52979 4.154854,0.0199"
       id="path930"/>
    <path
       style="fill:none;stroke:#000000;stroke-width:1.32291663;stroke-linecap:butt;stroke-linejoin:miter;stroke-miterlimit:4;stroke-dasharray:none;stroke-opacity:1"
       d="m 35.90252,273.17599 c -0.689857,0.16856 -1.434192,0.0103 -2.004128,0.89841 l -0.06073,3.47563 c 0.547927,1.05861 1.333743,1.48286 2.272175,1.50011 1.164624,-0.14295 1.548203,-0.59838 2.096947,-0.98774 l 0.0454,-3.84979 c -0.874749,-1.16929 -1.599022,-0.98429 -2.349664,-1.03662 z"
       id="path934"/>
    <path
       style="fill:none;stroke:#000000;stroke-width:1.32291663;stroke-linecap:butt;stroke-linejoin:miter;stroke-miterlimit:4;stroke-dasharray:none;stroke-opacity:1"
       d="m 38.252183,274.21261 9.039523,-1.3956 16.761249,1.71033"
       id="path936"/>
    <path
       style="fill:none;stroke:#000000;stroke-width:1.32291663;stroke-linecap:butt;stroke-linejoin:miter;stroke-miterlimit:4;stroke-dasharray:none;stroke-opacity:1"
       d="m 38.202518,277.41046 9.528988,1.6126 16.367005,-2.04613"
       id="path938"/>
    <path
       style="fill:none;stroke:#000000;stroke-width:1.32291663;stroke-linecap:butt;stroke-linejoin:miter;stroke-miterlimit:4;stroke-dasharray:none;stroke-opacity:1"
       d="m 41.016499,215.60916 c 6.069984,-1.22447 10.266623,0.14493 13.959778,2.21147"
       id="path864"/>
    <path
       style="fill:none;stroke:#000000;stroke-width:1.32291663;stroke-linecap:butt;stroke-linejoin:miter;stroke-miterlimit:4;stroke-dasharray:none;stroke-opacity:1"
       d="m 35.833411,222.45084 22.25272,0.13823"
       id="path866"/>
    <path
       style="fill:none;stroke:#000000;stroke-width:1.32291663;stroke-linecap:butt;stroke-linejoin:miter;stroke-miterlimit:4;stroke-dasharray:none;stroke-opacity:1"
       d="m 35.626088,226.32088 22.525678,-0.0826"
       id="path868"/>
    <g
       transform="matrix(0.65776009,0,0,0.65776009,12.889614,207.09143)"
       id="g1052"
       style="stroke-width:2.01124501;stroke-miterlimit:4;stroke-dasharray:none">
      <path
         id="path835"
         d="m 39.67217,32.242925 8.766509,1.337264 c -0.06418,6.848023 1.209155,8.732417 3.120283,8.469339 3.052215,-0.662408 2.307628,-4.973032 2.823113,-8.17217 l 8.320755,-1.188679"
         style="display:inline;fill:none;stroke:#000000;stroke-width:2.01124501;stroke-linecap:butt;stroke-linejoin:miter;stroke-miterlimit:4;stroke-dasharray:none;stroke-opacity:1" />
      <path
         id="path837"
         d="m 40.712264,35.660377 h 7.726415"
         style="display:inline;fill:none;stroke:#000000;stroke-width:2.01124501;stroke-linecap:butt;stroke-linejoin:miter;stroke-miterlimit:4;stroke-dasharray:none;stroke-opacity:1" />
      <path
         id="path839"
         d="M 60.622642,35.808962 H 54.233491"
         style="display:inline;fill:none;stroke:#000000;stroke-width:2.01124501;stroke-linecap:butt;stroke-linejoin:miter;stroke-miterlimit:4;stroke-dasharray:none;stroke-opacity:1" />
    </g>
  </g>
</svg>
