<?xml version="1.0" encoding="UTF-8" standalone="no"?>
<svg
   xmlns:dc="http://purl.org/dc/elements/1.1/"
   xmlns:cc="http://creativecommons.org/ns#"
   xmlns:rdf="http://www.w3.org/1999/02/22-rdf-syntax-ns#"
   xmlns:svg="http://www.w3.org/2000/svg"
   xmlns="http://www.w3.org/2000/svg"
   xmlns:sodipodi="http://sodipodi.sourceforge.net/DTD/sodipodi-0.dtd"
   xmlns:inkscape="http://www.inkscape.org/namespaces/inkscape"
   width="177.17"
   height="177.17"
   shape-rendering="geometricPrecision"
   image-rendering="optimizeQuality"
   fill-rule="evenodd"
   clip-rule="evenodd"
   viewBox="0 0 50 50"
   version="1.1"
   id="svg13"
   sodipodi:docname="b+GC.svg"
   inkscape:version="1.0.1 (3bc2e813f5, 2020-09-07)">
  <metadata
     id="metadata17">
    <rdf:RDF>
      <cc:Work
         rdf:about="">
        <dc:format>image/svg+xml</dc:format>
        <dc:type
           rdf:resource="http://purl.org/dc/dcmitype/StillImage" />
      </cc:Work>
    </rdf:RDF>
  </metadata>
  <sodipodi:namedview
     pagecolor="#ffffff"
     bordercolor="#666666"
     borderopacity="1"
     objecttolerance="10"
     gridtolerance="10"
     guidetolerance="10"
     inkscape:pageopacity="0"
     inkscape:pageshadow="2"
     inkscape:window-width="2560"
     inkscape:window-height="1377"
     id="namedview15"
     showgrid="false"
     inkscape:zoom="5.5460486"
     inkscape:cx="169.89135"
     inkscape:cy="91.558802"
     inkscape:window-x="-8"
     inkscape:window-y="-8"
     inkscape:window-maximized="1"
     inkscape:current-layer="svg13"
     inkscape:document-rotation="0" />
  <defs
     id="defs7">
    <linearGradient
       id="0"
       x1="21.19"
       y1="37.552"
       x2="77.74"
       y2="37.429"
       gradientUnits="userSpaceOnUse">
      <stop
         stop-color="#fff"
         id="stop2" />
      <stop
         offset="1"
         stop-color="#fff"
         stop-opacity="0"
         id="stop4" />
    </linearGradient>
  </defs>
  <path
     id="ellipse2354-6-0-7-9-10-9-5-2-7-6"
     style="fill:#999999;fill-opacity:1;fill-rule:nonzero;stroke:none;stroke-width:0.124596"
     d="M 16.466857,8.4670044 A 7.9997879,7.9997901 0 0 0 8.4672855,16.467135 v 17.06628 a 7.9997879,7.9997901 0 0 0 7.9995715,7.999581 h 17.066278 a 7.9997879,7.9997901 0 0 0 7.999579,-7.999581 V 16.467135 A 7.9997879,7.9997901 0 0 0 33.533135,8.4670044 Z" />
  <path
     id="ellipse2356-4-4-7-1-1-0-06-3-3"
     style="fill:#333333;fill-opacity:1;fill-rule:nonzero;stroke:none;stroke-width:0.124596"
     d="m 16.466595,8.6003954 a 7.8664608,7.8664628 0 0 0 -7.8662,7.8667406 v 17.06573 a 7.8664608,7.8664628 0 0 0 7.8662,7.866739 h 17.06626 a 7.8664608,7.8664628 0 0 0 7.86675,-7.866739 v -17.06573 a 7.8664608,7.8664628 0 0 0 -7.86675,-7.8667406 z" />
  <path
     id="ellipse2316-7-7-1-3-5-1-18-5-1"
     style="fill:#9b8028;fill-opacity:1;fill-rule:nonzero;stroke:none;stroke-width:0.124596"
     d="m 16.467395,11.667004 a 4.7998756,4.7998742 0 0 0 -4.80039,4.799861 v 17.06627 a 4.7998756,4.7998742 0 0 0 4.80039,4.799861 h 17.06573 a 4.7998756,4.7998742 0 0 0 4.79987,-4.799861 v -17.06627 a 4.7998756,4.7998742 0 0 0 -4.79987,-4.799861 z" />
  <path
     id="rect872-0-7-3-5-5-7-2-8-3-4-4-7-5-0-1-2-9-2-28-4-49-3-8"
     style="fill:#f7e6ae;fill-opacity:1;fill-rule:nonzero;stroke:none;stroke-width:0.314116"
     d="m 16.466565,12.200274 a 4.2665562,4.2665548 0 0 0 -4.26627,4.26685 v 17.00785 0.0579 a 4.2665562,4.2665548 0 0 0 4.26627,4.266852 h 17.06628 a 4.2665562,4.2665548 0 0 0 4.26686,-4.266852 v -17.06573 a 4.2665562,4.2665548 0 0 0 -4.26686,-4.26684 z" />
  <g
     id="g859">
    <g
       id="g1821-5-8-7-4"
       transform="translate(-430.68832,26.364327)">
      <rect
         y="-14.217324"
         x="-456.22162"
         height="25.705994"
         width="1.0666387"
         id="rect8611-6-2-3-5-5-06-8-7-6-1-9-4-8-3-5-4-5-1-2-1"
         style="fill:#065f5f;fill-opacity:1;fill-rule:nonzero;stroke:none;stroke-width:0.307504"
         transform="scale(-1,1)" />
      <rect
         transform="matrix(0,1,1,0,0,0)"
         y="442.83533"
         x="-1.8976638"
         height="25.705994"
         width="1.0666387"
         id="rect8611-3-9-5-1-1-4-4-5-9-4-7-0-8-4-3-8-3-5-2-4"
         style="fill:#065f5f;fill-opacity:1;fill-rule:nonzero;stroke:none;stroke-width:0.307504" />
      <ellipse
         style="fill:#000000;fill-opacity:1;fill-rule:nonzero;stroke:none;stroke-width:0.124596"
         id="path7851-8-1-9-3-2-4-1-8-2-5-1-2-7-7-8-8"
         transform="scale(-1,1)"
         cx="-455.68832"
         cy="-1.3643248"
         rx="1.5999575"
         ry="1.5999581" />
      <ellipse
         style="fill:#771d1d;fill-opacity:1;fill-rule:nonzero;stroke:none;stroke-width:0.124596"
         id="path7851-9-1-9-8-97-3-4-3-7-8-1-7-4-6-3-3-0-5-0-4-7-7-8-4-9"
         transform="scale(-1,1)"
         cx="-459.95474"
         cy="-5.6308827"
         rx="1.5999576"
         ry="1.5999581" />
      <ellipse
         style="fill:#771d1d;fill-opacity:1;fill-rule:nonzero;stroke:none;stroke-width:0.124596"
         id="path7851-9-1-9-8-1-2-9-99-0-2-2-1-0-5-0-9-3-9-7-8-5-7-4-6-1-7"
         transform="scale(-1,1)"
         cx="-451.42175"
         cy="-5.6308827"
         rx="1.5999576"
         ry="1.5999581" />
      <ellipse
         style="fill:#771d1d;fill-opacity:1;fill-rule:nonzero;stroke:none;stroke-width:0.124596"
         id="path7851-9-1-9-8-9-2-1-0-8-3-4-9-8-8-1-1-9-9-2-6-1-5-0-4-9-1"
         transform="scale(-1,1)"
         cx="-451.42175"
         cy="2.9022226"
         rx="1.5999576"
         ry="1.5999581" />
      <ellipse
         style="fill:#771d1d;fill-opacity:1;fill-rule:nonzero;stroke:none;stroke-width:0.124596"
         id="path7851-9-1-9-8-8-8-81-3-9-8-6-1-6-6-1-2-5-7-1-9-6-2-8-4-7-8"
         transform="scale(-1,1)"
         cx="-459.95474"
         cy="2.9022226"
         rx="1.5999576"
         ry="1.5999581" />
    </g>
    <path
       id="ellipse2316-7-7-1-3-5-1-18-5-6-1-1"
       style="fill:#9b8028;fill-opacity:1;fill-rule:nonzero;stroke:none;stroke-width:0.124596"
       d="m 16.46741,11.667005 a 4.7998756,4.7998742 0 0 0 -4.800406,4.79986 v 17.06628 a 4.7998756,4.7998742 0 0 0 4.800406,4.79985 h 17.065727 a 4.7998756,4.7998742 0 0 0 4.799859,-4.79985 v -17.06628 a 4.7998756,4.7998742 0 0 0 -4.799859,-4.79986 z m -0.0011,0.53356 h 17.066277 a 4.2665562,4.2665548 0 0 1 4.266845,4.26685 v 17.06573 a 4.2665562,4.2665548 0 0 1 -4.266845,4.26684 H 16.46631 a 4.2665562,4.2665548 0 0 1 -4.266295,-4.26684 v -0.0579 -17.00786 a 4.2665562,4.2665548 0 0 1 4.266295,-4.26684 z" />
  </g>
</svg>
