<?xml version="1.0" encoding="UTF-8" standalone="no"?>
<svg
   xmlns:dc="http://purl.org/dc/elements/1.1/"
   xmlns:cc="http://creativecommons.org/ns#"
   xmlns:rdf="http://www.w3.org/1999/02/22-rdf-syntax-ns#"
   xmlns:svg="http://www.w3.org/2000/svg"
   xmlns="http://www.w3.org/2000/svg"
   xmlns:sodipodi="http://sodipodi.sourceforge.net/DTD/sodipodi-0.dtd"
   xmlns:inkscape="http://www.inkscape.org/namespaces/inkscape"
   inkscape:version="1.0.1 (3bc2e813f5, 2020-09-07)"
   sodipodi:docname="b+J.svg"
   id="svg4260"
   version="1.1"
   viewBox="0 0 50 50"
   clip-rule="evenodd"
   fill-rule="evenodd"
   image-rendering="optimizeQuality"
   shape-rendering="geometricPrecision"
   height="177.17"
   width="177.17">
  <metadata
     id="metadata4266">
    <rdf:RDF>
      <cc:Work
         rdf:about="">
        <dc:format>image/svg+xml</dc:format>
        <dc:type
           rdf:resource="http://purl.org/dc/dcmitype/StillImage" />
        <dc:title />
      </cc:Work>
    </rdf:RDF>
  </metadata>
  <defs
     id="defs4264" />
  <sodipodi:namedview
     inkscape:current-layer="svg4260"
     inkscape:window-maximized="1"
     inkscape:window-y="-8"
     inkscape:window-x="-8"
     inkscape:cy="90.242157"
     inkscape:cx="325.27587"
     inkscape:zoom="1.674945"
     showgrid="false"
     id="namedview4262"
     inkscape:window-height="1377"
     inkscape:window-width="2560"
     inkscape:pageshadow="2"
     inkscape:pageopacity="0"
     guidetolerance="10"
     gridtolerance="10"
     objecttolerance="10"
     borderopacity="1"
     bordercolor="#666666"
     pagecolor="#ffffff"
     inkscape:document-rotation="0" />
  <path
     id="ellipse2354-6-0-7-9-10-9-5-2-7-6"
     style="fill:#999999;fill-opacity:1;fill-rule:nonzero;stroke:none;stroke-width:0.124596"
     d="M 16.466855,8.4670048 A 7.9997879,7.9997901 0 0 0 8.4672858,16.467134 v 17.06628 a 7.9997879,7.9997901 0 0 0 7.9995692,7.999581 h 17.06628 a 7.9997879,7.9997901 0 0 0 7.999579,-7.999581 V 16.467134 A 7.9997879,7.9997901 0 0 0 33.533135,8.4670048 Z" />
  <path
     id="ellipse2356-4-4-7-1-1-0-06-3-3"
     style="fill:#333333;fill-opacity:1;fill-rule:nonzero;stroke:none;stroke-width:0.124596"
     d="m 16.466595,8.6003957 a 7.8664608,7.8664628 0 0 0 -7.8662,7.8667393 v 17.06573 a 7.8664608,7.8664628 0 0 0 7.8662,7.866739 h 17.06626 a 7.8664608,7.8664628 0 0 0 7.86675,-7.866739 v -17.06573 a 7.8664608,7.8664628 0 0 0 -7.86675,-7.8667393 z" />
  <path
     id="ellipse2316-7-7-1-3-5-1-18-5-1"
     style="fill:#9b8028;fill-opacity:1;fill-rule:nonzero;stroke:none;stroke-width:0.124596"
     d="m 16.467395,11.667005 a 4.7998756,4.7998742 0 0 0 -4.80039,4.79986 v 17.066269 a 4.7998756,4.7998742 0 0 0 4.80039,4.799861 h 17.06573 a 4.7998756,4.7998742 0 0 0 4.79987,-4.799861 V 16.466865 a 4.7998756,4.7998742 0 0 0 -4.79987,-4.79986 z" />
  <path
     id="rect872-0-7-3-5-5-7-2-8-3-4-4-7-5-0-1-2-9-2-28-4-49-3-8"
     style="fill:#f7e6ae;fill-opacity:1;fill-rule:nonzero;stroke:none;stroke-width:0.314116"
     d="m 16.466565,12.200274 a 4.2665562,4.2665548 0 0 0 -4.26627,4.26685 v 17.00785 0.0579 a 4.2665562,4.2665548 0 0 0 4.26627,4.266852 h 17.06628 a 4.2665562,4.2665548 0 0 0 4.26686,-4.266852 v -17.06573 a 4.2665562,4.2665548 0 0 0 -4.26686,-4.26684 z" />
  <g
     id="g942"
     transform="translate(-60.047484,-0.953136)">
    <circle
       style="fill:#771d1d;fill-opacity:1;fill-rule:nonzero;stroke:none;stroke-width:0.124596"
       id="path7851-9-1-9-8-97-33-3-1-9-4-9-5-0-1-0-2-8-3-6-7"
       transform="scale(-1,1)"
       cx="-89.313988"
       cy="21.686584"
       r="1.5999581" />
    <circle
       style="fill:#771d1d;fill-opacity:1;fill-rule:nonzero;stroke:none;stroke-width:0.124596"
       id="path7851-9-1-9-8-1-2-2-3-28-4-3-5-2-0-6-1-8-7-7-7-9"
       transform="scale(-1,1)"
       cx="-80.780884"
       cy="21.686584"
       r="1.5999581" />
    <circle
       style="fill:#771d1d;fill-opacity:1;fill-rule:nonzero;stroke:none;stroke-width:0.124596"
       id="path7851-9-1-9-8-9-2-4-5-4-0-6-2-8-6-6-6-9-8-9-7-4"
       transform="scale(-1,1)"
       cx="-80.780884"
       cy="30.219688"
       r="1.5999581" />
    <circle
       style="fill:#771d1d;fill-opacity:1;fill-rule:nonzero;stroke:none;stroke-width:0.124596"
       id="path7851-9-1-9-8-8-8-1-5-6-3-9-5-3-1-6-9-7-5-2-9-8"
       transform="scale(-1,1)"
       cx="-89.313988"
       cy="30.219688"
       r="1.5999581" />
    <circle
       transform="scale(-1,1)"
       id="path7851-5-3-8-0-4-1-7-3-8-6-0-6-5-3-2"
       style="fill:#000000;fill-opacity:1;fill-rule:nonzero;stroke:none;stroke-width:0.124596"
       cx="-85.04744"
       cy="25.953125"
       r="1.5999581" />
    <ellipse
       style="fill:#771d1d;fill-opacity:1;fill-rule:nonzero;stroke:none;stroke-width:0.124596"
       id="path7851-9-1-9-8-2-5-6-4-3-0-8-3-0-0-2-2-0-5-3-2-9-71-9-0"
       transform="scale(-1,1)"
       cx="-85.047493"
       cy="21.686584"
       rx="1.5999577"
       ry="1.5999581" />
    <ellipse
       style="fill:#771d1d;fill-opacity:1;fill-rule:nonzero;stroke:none;stroke-width:0.124596"
       id="path7851-9-1-9-8-1-8-3-44-5-1-4-7-4-7-8-9-8-0-4-1-3-4-7-8-1"
       transform="scale(-1,1)"
       cx="-80.780922"
       cy="25.953125"
       rx="1.5999577"
       ry="1.5999581" />
    <ellipse
       style="fill:#771d1d;fill-opacity:1;fill-rule:nonzero;stroke:none;stroke-width:0.124596"
       id="path7851-9-1-9-8-9-9-2-1-0-34-1-8-3-6-5-3-5-1-3-5-5-6-2-0-4"
       transform="scale(-1,1)"
       cx="-85.047493"
       cy="30.219688"
       rx="1.5999577"
       ry="1.5999581" />
    <ellipse
       style="fill:#771d1d;fill-opacity:1;fill-rule:nonzero;stroke:none;stroke-width:0.124596"
       id="path7851-9-1-9-8-8-0-5-9-5-2-6-9-5-5-0-4-0-6-2-1-4-4-4-6-1"
       transform="scale(-1,1)"
       cx="-89.314056"
       cy="25.953125"
       rx="1.5999577"
       ry="1.5999581" />
    <path
       id="rect13726-5-9-9-7-2-5-7-6-7-2-7"
       style="fill:#9b8028;fill-opacity:1;stroke-width:0.0830256"
       d="m 76.514139,20.086707 a 0.53331936,0.53331936 0 0 0 -0.533011,0.533011 v 2.133149 a 0.53331936,0.53331936 0 0 0 0,5.64e-4 0.53331936,0.53331936 0 0 0 0.533011,0.533011 0.53331936,0.53331936 0 0 0 0.533561,-0.533011 0.53331936,0.53331936 0 0 0 0,-5.64e-4 v -2.133149 a 0.53331936,0.53331936 0 0 0 -0.533561,-0.533011 z" />
    <path
       id="rect13726-5-9-9-7-2-5-7-6-7-2-7-7"
       style="fill:#9b8028;fill-opacity:1;stroke-width:0.0830256"
       d="m 76.514139,28.619812 a 0.53331936,0.53331936 0 0 0 -0.533011,0.53301 v 2.133149 a 0.53331936,0.53331936 0 0 0 0,5.65e-4 0.53331936,0.53331936 0 0 0 0.533011,0.53301 0.53331936,0.53331936 0 0 0 0.533561,-0.53301 0.53331936,0.53331936 0 0 0 0,-5.65e-4 v -2.133149 a 0.53331936,0.53331936 0 0 0 -0.533561,-0.53301 z" />
    <path
       id="rect13726-5-9-9-7-2-5-7-6-7-2-7-6"
       style="fill:#9b8028;fill-opacity:1;stroke-width:0.0830256"
       d="m 93.580276,20.086707 a 0.53331936,0.53331936 0 0 0 -0.533011,0.53301 v 2.133149 a 0.53331936,0.53331936 0 0 0 0,5.65e-4 0.53331936,0.53331936 0 0 0 0.533011,0.533011 0.53331936,0.53331936 0 0 0 0.533565,-0.533011 0.53331936,0.53331936 0 0 0 0,-5.65e-4 v -2.133149 a 0.53331936,0.53331936 0 0 0 -0.533565,-0.53301 z" />
    <path
       id="rect13726-5-9-9-7-2-5-7-6-7-2-7-1"
       style="fill:#9b8028;fill-opacity:1;stroke-width:0.0830256"
       d="m 93.580278,28.619811 a 0.53331936,0.53331936 0 0 0 -0.533011,0.533011 v 2.133149 a 0.53331936,0.53331936 0 0 0 0,5.64e-4 0.53331936,0.53331936 0 0 0 0.533011,0.533011 0.53331936,0.53331936 0 0 0 0.533561,-0.533011 0.53331936,0.53331936 0 0 0 0,-5.64e-4 v -2.133149 a 0.53331936,0.53331936 0 0 0 -0.533561,-0.533011 z" />
    <path
       id="rect13726-5-9-9-7-2-5-7-6-7-2-7-2"
       style="fill:#9b8028;fill-opacity:1;stroke-width:0.0830256"
       d="m 82.380779,17.419739 a 0.53331936,0.53331936 0 0 0 -0.53301,-0.533011 H 79.71462 a 0.53331936,0.53331936 0 0 0 -5.65e-4,0 0.53331936,0.53331936 0 0 0 -0.53301,0.533011 0.53331936,0.53331936 0 0 0 0.53301,0.533561 0.53331936,0.53331936 0 0 0 5.65e-4,0 h 2.133149 a 0.53331936,0.53331936 0 0 0 0.53301,-0.533561 z" />
    <path
       id="rect13726-5-9-9-7-2-5-7-6-7-2-7-2-3"
       style="fill:#9b8028;fill-opacity:1;stroke-width:0.0830256"
       d="m 90.913914,17.419739 a 0.53331936,0.53331936 0 0 0 -0.53301,-0.533011 h -2.133149 a 0.53331936,0.53331936 0 0 0 -5.64e-4,0 0.53331936,0.53331936 0 0 0 -0.533011,0.533011 0.53331936,0.53331936 0 0 0 0.53301,0.533561 0.53331936,0.53331936 0 0 0 5.64e-4,0 h 2.13315 a 0.53331936,0.53331936 0 0 0 0.53301,-0.533561 z" />
    <path
       id="rect13726-5-9-9-7-2-5-7-6-7-2-7-2-8"
       style="fill:#9b8028;fill-opacity:1;stroke-width:0.0830256"
       d="m 82.380779,34.485983 a 0.53331936,0.53331936 0 0 0 -0.53301,-0.533011 H 79.71462 a 0.53331936,0.53331936 0 0 0 -5.65e-4,0 0.53331936,0.53331936 0 0 0 -0.53301,0.533011 0.53331936,0.53331936 0 0 0 0.53301,0.533561 0.53331936,0.53331936 0 0 0 5.64e-4,0 h 2.13315 a 0.53331936,0.53331936 0 0 0 0.53301,-0.533561 z" />
    <path
       id="rect13726-5-9-9-7-2-5-7-6-7-2-7-2-39"
       style="fill:#9b8028;fill-opacity:1;stroke-width:0.0830256"
       d="m 90.913914,34.485983 a 0.53331936,0.53331936 0 0 0 -0.533011,-0.533011 h -2.133149 a 0.53331936,0.53331936 0 0 0 -5.64e-4,0 0.53331936,0.53331936 0 0 0 -0.533011,0.533011 0.53331936,0.53331936 0 0 0 0.53301,0.533561 0.53331936,0.53331936 0 0 0 5.65e-4,0 h 2.133149 a 0.53331936,0.53331936 0 0 0 0.533011,-0.533561 z" />
  </g>
</svg>
