<?xml version="1.0" encoding="UTF-8" standalone="no"?>
<svg
   xmlns:dc="http://purl.org/dc/elements/1.1/"
   xmlns:cc="http://creativecommons.org/ns#"
   xmlns:rdf="http://www.w3.org/1999/02/22-rdf-syntax-ns#"
   xmlns:svg="http://www.w3.org/2000/svg"
   xmlns="http://www.w3.org/2000/svg"
   xmlns:sodipodi="http://sodipodi.sourceforge.net/DTD/sodipodi-0.dtd"
   xmlns:inkscape="http://www.inkscape.org/namespaces/inkscape"
   inkscape:version="1.0.1 (3bc2e813f5, 2020-09-07)"
   sodipodi:docname="bE.svg"
   id="svg4546"
   version="1.1"
   viewBox="0 0 50 50"
   clip-rule="evenodd"
   fill-rule="evenodd"
   image-rendering="optimizeQuality"
   shape-rendering="geometricPrecision"
   height="177.17"
   width="177.17">
  <metadata
     id="metadata4550">
    <rdf:RDF>
      <cc:Work
         rdf:about="">
        <dc:format>image/svg+xml</dc:format>
        <dc:type
           rdf:resource="http://purl.org/dc/dcmitype/StillImage" />
        <dc:title />
      </cc:Work>
    </rdf:RDF>
  </metadata>
  <sodipodi:namedview
     inkscape:document-rotation="0"
     inkscape:current-layer="svg4546"
     inkscape:window-maximized="1"
     inkscape:window-y="-8"
     inkscape:window-x="-8"
     inkscape:cy="88.584999"
     inkscape:cx="88.584999"
     inkscape:zoom="4.6226788"
     inkscape:snap-nodes="false"
     showgrid="false"
     id="namedview4548"
     inkscape:window-height="1009"
     inkscape:window-width="1920"
     inkscape:pageshadow="2"
     inkscape:pageopacity="0"
     guidetolerance="10"
     gridtolerance="10"
     objecttolerance="10"
     borderopacity="1"
     bordercolor="#666666"
     pagecolor="#ffffff" />
  <defs
     id="defs4540">
    <linearGradient
       gradientUnits="userSpaceOnUse"
       y2="37.469002"
       x2="77.669998"
       y1="37.099998"
       x1="21.09"
       id="0-90">
      <stop
         id="stop5246"
         stop-color="#fff" />
      <stop
         id="stop5248"
         stop-opacity="0"
         stop-color="#fff"
         offset="1" />
    </linearGradient>
    <linearGradient
       gradientUnits="userSpaceOnUse"
       y2="37.469002"
       x2="77.639999"
       y1="37.591999"
       x1="21.253"
       id="0-6"
       gradientTransform="matrix(0.86273417,0,0,0.86273417,1.424805,-2.5098781)">
      <stop
         id="stop5894"
         stop-color="#fff" />
      <stop
         id="stop5896"
         stop-opacity="0"
         stop-color="#fff"
         offset="1" />
    </linearGradient>
    <clipPath
       id="clipPath2016"
       clipPathUnits="userSpaceOnUse">
      <rect
         y="33.686436"
         x="3.6016948"
         height="15.042373"
         width="44.067795"
         id="rect2018"
         style="opacity:1;fill:#d40000;fill-opacity:1;stroke:#000000;stroke-width:0.19755037;stroke-linecap:square;stroke-linejoin:miter;stroke-miterlimit:4;stroke-dasharray:none;stroke-opacity:1;paint-order:normal" />
    </clipPath>
  </defs>
  <path
     id="ellipse2354-6-0-7-9-10-9-5-2-7"
     style="fill:#999999;fill-opacity:1;fill-rule:nonzero;stroke:none;stroke-width:0.124596"
     d="M 16.466855,8.4670048 A 7.9997879,7.9997901 0 0 0 8.4672853,16.467135 v 17.066279 a 7.9997879,7.9997901 0 0 0 7.9995697,7.999581 h 17.066281 a 7.9997879,7.9997901 0 0 0 7.999579,-7.999581 V 16.467135 A 7.9997879,7.9997901 0 0 0 33.533136,8.4670048 Z" />
  <path
     id="ellipse2356-4-4-7-1-1-0-06-3"
     style="fill:#333333;fill-opacity:1;fill-rule:nonzero;stroke:none;stroke-width:0.124596"
     d="M 16.466589,8.6003958 A 7.8664608,7.8664628 0 0 0 8.6003997,16.467136 v 17.065729 a 7.8664608,7.8664628 0 0 0 7.8661893,7.866739 h 17.06627 A 7.8664608,7.8664628 0 0 0 41.3996,33.532865 V 16.467136 A 7.8664608,7.8664628 0 0 0 33.532859,8.6003958 Z" />
  <path
     id="ellipse2316-7-7-1-3-5-1-18-5"
     style="fill:#7f7f7f;fill-opacity:1;fill-rule:nonzero;stroke:none;stroke-width:0.124596"
     d="m 16.467404,11.667005 a 4.7998756,4.7998742 0 0 0 -4.800399,4.79986 v 17.066269 a 4.7998756,4.7998742 0 0 0 4.800399,4.799861 h 17.06573 a 4.7998756,4.7998742 0 0 0 4.799861,-4.799861 v -17.06627 a 4.7998756,4.7998742 0 0 0 -4.799861,-4.799859 z" />
  <path
     id="rect872-0-7-3-5-5-7-2-8-3-4-4-7-5-0-1-2-9-2-28-4-49-3"
     style="fill:#e6e6e6;fill-opacity:1;fill-rule:nonzero;stroke:none;stroke-width:0.314116"
     d="m 16.466574,12.200274 a 4.2665562,4.2665548 0 0 0 -4.26628,4.266851 v 17.007849 0.0579 a 4.2665562,4.2665548 0 0 0 4.26628,4.266852 h 17.06628 a 4.2665562,4.2665548 0 0 0 4.266851,-4.266852 V 16.467145 a 4.2665562,4.2665548 0 0 0 -4.266851,-4.266841 z" />
  <g
     id="g872">
    <g
       id="g10675"
       transform="translate(-451.98709,-509.40671)">
      <ellipse
         style="fill:#771d1d;fill-opacity:1;fill-rule:nonzero;stroke:none;stroke-width:0.124596"
         id="path7851-9-1-9-8-5-583-6-5-4-5-9-8-2-45-3-60-3-7-4-44"
         transform="scale(-1,1)"
         cx="-485.52017"
         cy="525.87354"
         rx="1.5999587"
         ry="1.5999581" />
      <ellipse
         style="fill:#771d1d;fill-opacity:1;fill-rule:nonzero;stroke:none;stroke-width:0.124596"
         id="path7851-9-1-9-8-1-3-9-4-3-7-6-5-0-5-2-9-06-6-5-6-2"
         transform="scale(-1,1)"
         cx="-476.98709"
         cy="525.87354"
         rx="1.5999587"
         ry="1.5999581" />
      <ellipse
         style="fill:#771d1d;fill-opacity:1;fill-rule:nonzero;stroke:none;stroke-width:0.124596"
         id="path7851-9-1-9-8-9-92-4-0-5-9-6-6-3-3-2-1-9-0-6-5-8"
         transform="scale(-1,1)"
         cx="-468.45395"
         cy="525.87354"
         rx="1.5999587"
         ry="1.5999581" />
      <ellipse
         style="fill:#771d1d;fill-opacity:1;fill-rule:nonzero;stroke:none;stroke-width:0.124596"
         id="path7851-9-1-9-8-8-4-8-7-6-0-9-3-0-5-2-9-4-3-2-2-1"
         transform="scale(-1,1)"
         cx="-485.52017"
         cy="534.40668"
         rx="1.5999587"
         ry="1.5999581" />
      <ellipse
         style="fill:#771d1d;fill-opacity:1;fill-rule:nonzero;stroke:none;stroke-width:0.124596"
         id="path7851-9-1-9-8-9-5-6-3-0-3-2-0-3-6-1-1-3-9-6-6-2-0"
         transform="scale(-1,1)"
         cx="-468.45395"
         cy="534.40668"
         rx="1.5999587"
         ry="1.5999581" />
      <ellipse
         style="fill:#771d1d;fill-opacity:1;fill-rule:nonzero;stroke:none;stroke-width:0.124596"
         id="path7851-9-1-9-8-9-8-1-9-3-0-2-7-2-5-2-8-6-0-24-4-4-89"
         transform="scale(-1,1)"
         cx="-468.45395"
         cy="542.93976"
         rx="1.5999587"
         ry="1.5999581" />
      <ellipse
         style="fill:#771d1d;fill-opacity:1;fill-rule:nonzero;stroke:none;stroke-width:0.124596"
         id="path7851-9-1-9-8-9-6-8-7-4-2-4-0-9-4-2-1-3-0-0-2-6-3"
         transform="scale(-1,1)"
         cx="-476.98709"
         cy="542.93976"
         rx="1.5999587"
         ry="1.5999581" />
      <ellipse
         style="fill:#771d1d;fill-opacity:1;fill-rule:nonzero;stroke:none;stroke-width:0.124596"
         id="path7851-9-1-9-8-9-26-2-6-0-9-7-9-9-0-2-33-2-8-5-1-2-5"
         transform="scale(-1,1)"
         cx="-485.52017"
         cy="542.93976"
         rx="1.5999587"
         ry="1.5999581" />
      <ellipse
         style="fill:#000000;fill-opacity:1;fill-rule:nonzero;stroke:none;stroke-width:0.124596"
         id="path7851-32-5-3-0-6-3-8-4-4-3-8-6-8-2-13"
         transform="scale(-1,1)"
         cx="-476.98709"
         cy="534.40668"
         rx="1.5999588"
         ry="1.5999581" />
    </g>
    <path
       id="ellipse2316-7-7-1-3-5-1-18-5-6-1"
       style="fill:#7f7f7f;fill-opacity:1;fill-rule:nonzero;stroke:none;stroke-width:0.124596"
       d="m 16.467411,11.667005 a 4.7998756,4.7998742 0 0 0 -4.800407,4.79986 v 17.06628 a 4.7998756,4.7998742 0 0 0 4.800407,4.79985 h 17.065726 a 4.7998756,4.7998742 0 0 0 4.799859,-4.79985 v -17.06628 a 4.7998756,4.7998742 0 0 0 -4.799859,-4.79986 z m -0.0011,0.53356 h 17.066277 a 4.2665562,4.2665548 0 0 1 4.266845,4.26685 v 17.06573 a 4.2665562,4.2665548 0 0 1 -4.266845,4.26684 H 16.46631 a 4.2665562,4.2665548 0 0 1 -4.266295,-4.26684 v -0.0579 -17.00786 a 4.2665562,4.2665548 0 0 1 4.266295,-4.26684 z" />
  </g>
  <ellipse
     style="fill:#771d1d;fill-opacity:1;fill-rule:nonzero;stroke:none;stroke-width:0.124596"
     id="path7851-9-1-9-8-9-5-6-3-0-3-2-0-3-6-1-1-3-9-6-6-2-0-6"
     transform="scale(-1,1)"
     cx="-20.733429"
     cy="24.999968"
     rx="1.5999587"
     ry="1.5999581" />
  <ellipse
     style="fill:#771d1d;fill-opacity:1;fill-rule:nonzero;stroke:none;stroke-width:0.124596"
     id="path7851-9-1-9-8-9-5-6-3-0-3-2-0-3-6-1-1-3-9-6-6-2-0-4"
     transform="scale(-1,1)"
     cx="-25.000002"
     cy="20.733397"
     rx="1.5999587"
     ry="1.5999581" />
  <ellipse
     style="fill:#771d1d;fill-opacity:1;fill-rule:nonzero;stroke:none;stroke-width:0.124596"
     id="path7851-9-1-9-8-9-5-6-3-0-3-2-0-3-6-1-1-3-9-6-6-2-0-5"
     transform="scale(-1,1)"
     cx="-29.266541"
     cy="24.999968"
     rx="1.5999587"
     ry="1.5999581" />
  <ellipse
     style="fill:#771d1d;fill-opacity:1;fill-rule:nonzero;stroke:none;stroke-width:0.124596"
     id="path7851-9-1-9-8-9-5-6-3-0-3-2-0-3-6-1-1-3-9-6-6-2-0-2"
     transform="scale(-1,1)"
     cx="-25.000002"
     cy="29.266508"
     rx="1.5999587"
     ry="1.5999581" />
</svg>
