<?xml version="1.0" encoding="UTF-8" standalone="no"?>
<svg
   xmlns:dc="http://purl.org/dc/elements/1.1/"
   xmlns:cc="http://creativecommons.org/ns#"
   xmlns:rdf="http://www.w3.org/1999/02/22-rdf-syntax-ns#"
   xmlns:svg="http://www.w3.org/2000/svg"
   xmlns="http://www.w3.org/2000/svg"
   xmlns:sodipodi="http://sodipodi.sourceforge.net/DTD/sodipodi-0.dtd"
   xmlns:inkscape="http://www.inkscape.org/namespaces/inkscape"
   width="177.17"
   height="177.17"
   shape-rendering="geometricPrecision"
   image-rendering="optimizeQuality"
   fill-rule="evenodd"
   clip-rule="evenodd"
   viewBox="0 0 50 50"
   version="1.1"
   id="svg13"
   sodipodi:docname="w+GC.svg"
   inkscape:version="1.0.1 (3bc2e813f5, 2020-09-07)">
  <metadata
     id="metadata17">
    <rdf:RDF>
      <cc:Work
         rdf:about="">
        <dc:format>image/svg+xml</dc:format>
        <dc:type
           rdf:resource="http://purl.org/dc/dcmitype/StillImage" />
      </cc:Work>
    </rdf:RDF>
  </metadata>
  <sodipodi:namedview
     pagecolor="#ffffff"
     bordercolor="#666666"
     borderopacity="1"
     objecttolerance="10"
     gridtolerance="10"
     guidetolerance="10"
     inkscape:pageopacity="0"
     inkscape:pageshadow="2"
     inkscape:window-width="2560"
     inkscape:window-height="1377"
     id="namedview15"
     showgrid="false"
     inkscape:zoom="3.9216486"
     inkscape:cx="81.330411"
     inkscape:cy="98.202314"
     inkscape:window-x="-8"
     inkscape:window-y="-8"
     inkscape:window-maximized="1"
     inkscape:current-layer="svg13"
     inkscape:document-rotation="0" />
  <defs
     id="defs7">
    <linearGradient
       id="0"
       x1="21.376"
       x2="77.64"
       gradientUnits="userSpaceOnUse">
      <stop
         stop-color="#fff"
         id="stop2" />
      <stop
         offset="1"
         stop-color="#fff"
         stop-opacity="0"
         id="stop4" />
    </linearGradient>
  </defs>
  <path
     id="ellipse2354-6-0-7-9-10-9-5-2-7-3"
     style="fill:#999999;fill-opacity:1;fill-rule:nonzero;stroke:none;stroke-width:0.124596"
     d="M 16.466856,8.4670049 A 7.9997879,7.9997901 0 0 0 8.4672855,16.467135 v 17.066279 a 7.9997879,7.9997901 0 0 0 7.9995705,7.999581 h 17.066283 a 7.9997879,7.9997901 0 0 0 7.999575,-7.999581 V 16.467135 A 7.9997879,7.9997901 0 0 0 33.533139,8.4670049 Z" />
  <path
     id="ellipse2356-4-4-7-1-1-0-06-3-0"
     style="fill:#ffffff;fill-opacity:1;fill-rule:nonzero;stroke:none;stroke-width:0.124596"
     d="m 16.466588,8.6003958 a 7.8664608,7.8664628 0 0 0 -7.86619,7.8667402 v 17.065729 a 7.8664608,7.8664628 0 0 0 7.86619,7.866739 h 17.066275 a 7.8664608,7.8664628 0 0 0 7.866739,-7.866739 V 16.467136 A 7.8664608,7.8664628 0 0 0 33.532863,8.6003958 Z" />
  <path
     id="ellipse2316-7-7-1-3-5-1-18-5-6"
     style="fill:#9b8028;fill-opacity:1;fill-rule:nonzero;stroke:none;stroke-width:0.124596"
     d="m 16.467406,11.667004 a 4.7998756,4.7998742 0 0 0 -4.8004,4.799862 v 17.066269 a 4.7998756,4.7998742 0 0 0 4.8004,4.799861 h 17.065732 a 4.7998756,4.7998742 0 0 0 4.799856,-4.799861 V 16.466866 a 4.7998756,4.7998742 0 0 0 -4.799856,-4.799862 z" />
  <path
     id="rect872-0-7-3-5-5-7-2-8-3-4-4-7-5-0-1-2-9-2-28-4-49-3-0"
     style="fill:#f7e6ae;fill-opacity:1;fill-rule:nonzero;stroke:none;stroke-width:0.314116"
     d="m 16.466589,12.200274 a 4.2665562,4.2665548 0 0 0 -4.2663,4.266851 v 17.007849 0.0579 a 4.2665562,4.2665548 0 0 0 4.2663,4.266852 H 33.532865 A 4.2665562,4.2665548 0 0 0 37.79971,33.532874 V 16.467145 a 4.2665562,4.2665548 0 0 0 -4.266845,-4.26684 z" />
  <g
     id="g859">
    <g
       id="g1821-5-8-7-48"
       transform="translate(-430.68831,26.364327)">
      <rect
         y="-14.217324"
         x="-456.22162"
         height="25.705994"
         width="1.0666387"
         id="rect8611-6-2-3-5-5-06-8-7-6-1-9-4-8-3-5-4-5-1-2-3"
         style="fill:#065f5f;fill-opacity:1;fill-rule:nonzero;stroke:none;stroke-width:0.307504"
         transform="scale(-1,1)" />
      <rect
         transform="matrix(0,1,1,0,0,0)"
         y="442.83533"
         x="-1.8976638"
         height="25.705994"
         width="1.0666387"
         id="rect8611-3-9-5-1-1-4-4-5-9-4-7-0-8-4-3-8-3-5-2-7"
         style="fill:#065f5f;fill-opacity:1;fill-rule:nonzero;stroke:none;stroke-width:0.307504" />
      <ellipse
         style="fill:#000000;fill-opacity:1;fill-rule:nonzero;stroke:none;stroke-width:0.124596"
         id="path7851-8-1-9-3-2-4-1-8-2-5-1-2-7-7-8-0"
         transform="scale(-1,1)"
         cx="-455.68832"
         cy="-1.3643248"
         rx="1.5999575"
         ry="1.5999581" />
      <ellipse
         style="fill:#771d1d;fill-opacity:1;fill-rule:nonzero;stroke:none;stroke-width:0.124596"
         id="path7851-9-1-9-8-97-3-4-3-7-8-1-7-4-6-3-3-0-5-0-4-7-7-8-4-5"
         transform="scale(-1,1)"
         cx="-459.95474"
         cy="-5.6308827"
         rx="1.5999576"
         ry="1.5999581" />
      <ellipse
         style="fill:#771d1d;fill-opacity:1;fill-rule:nonzero;stroke:none;stroke-width:0.124596"
         id="path7851-9-1-9-8-1-2-9-99-0-2-2-1-0-5-0-9-3-9-7-8-5-7-4-6-1-9"
         transform="scale(-1,1)"
         cx="-451.42175"
         cy="-5.6308827"
         rx="1.5999576"
         ry="1.5999581" />
      <ellipse
         style="fill:#771d1d;fill-opacity:1;fill-rule:nonzero;stroke:none;stroke-width:0.124596"
         id="path7851-9-1-9-8-9-2-1-0-8-3-4-9-8-8-1-1-9-9-2-6-1-5-0-4-9-2"
         transform="scale(-1,1)"
         cx="-451.42175"
         cy="2.9022226"
         rx="1.5999576"
         ry="1.5999581" />
      <ellipse
         style="fill:#771d1d;fill-opacity:1;fill-rule:nonzero;stroke:none;stroke-width:0.124596"
         id="path7851-9-1-9-8-8-8-81-3-9-8-6-1-6-6-1-2-5-7-1-9-6-2-8-4-7-88"
         transform="scale(-1,1)"
         cx="-459.95474"
         cy="2.9022226"
         rx="1.5999576"
         ry="1.5999581" />
    </g>
    <path
       id="ellipse2316-7-7-1-3-5-1-18-5-6-1-1"
       style="fill:#9b8028;fill-opacity:1;fill-rule:nonzero;stroke:none;stroke-width:0.124596"
       d="m 16.46741,11.667005 a 4.7998756,4.7998742 0 0 0 -4.800406,4.79986 v 17.06628 a 4.7998756,4.7998742 0 0 0 4.800406,4.79985 h 17.065727 a 4.7998756,4.7998742 0 0 0 4.799859,-4.79985 v -17.06628 a 4.7998756,4.7998742 0 0 0 -4.799859,-4.79986 z m -0.0011,0.53356 h 17.066277 a 4.2665562,4.2665548 0 0 1 4.266845,4.26685 v 17.06573 a 4.2665562,4.2665548 0 0 1 -4.266845,4.26684 H 16.46631 a 4.2665562,4.2665548 0 0 1 -4.266295,-4.26684 v -0.0579 -17.00786 a 4.2665562,4.2665548 0 0 1 4.266295,-4.26684 z" />
  </g>
</svg>
