<?xml version="1.0" encoding="UTF-8" standalone="no"?>
<svg
   xmlns:dc="http://purl.org/dc/elements/1.1/"
   xmlns:cc="http://creativecommons.org/ns#"
   xmlns:rdf="http://www.w3.org/1999/02/22-rdf-syntax-ns#"
   xmlns:svg="http://www.w3.org/2000/svg"
   xmlns="http://www.w3.org/2000/svg"
   xmlns:sodipodi="http://sodipodi.sourceforge.net/DTD/sodipodi-0.dtd"
   xmlns:inkscape="http://www.inkscape.org/namespaces/inkscape"
   width="177.17"
   height="177.17"
   shape-rendering="geometricPrecision"
   image-rendering="optimizeQuality"
   fill-rule="evenodd"
   clip-rule="evenodd"
   viewBox="0 0 50 50"
   version="1.1"
   id="svg15290"
   sodipodi:docname="wF.svg"
   inkscape:version="1.0.1 (3bc2e813f5, 2020-09-07)">
  <metadata
     id="metadata15294">
    <rdf:RDF>
      <cc:Work
         rdf:about="">
        <dc:format>image/svg+xml</dc:format>
        <dc:type
           rdf:resource="http://purl.org/dc/dcmitype/StillImage" />
        <dc:title />
      </cc:Work>
    </rdf:RDF>
  </metadata>
  <sodipodi:namedview
     pagecolor="#ffffff"
     bordercolor="#666666"
     borderopacity="1"
     objecttolerance="10"
     gridtolerance="10"
     guidetolerance="10"
     inkscape:pageopacity="0"
     inkscape:pageshadow="2"
     inkscape:window-width="1920"
     inkscape:window-height="1009"
     id="namedview15292"
     showgrid="false"
     inkscape:zoom="4.6226788"
     inkscape:cx="88.584999"
     inkscape:cy="88.584999"
     inkscape:window-x="-8"
     inkscape:window-y="-8"
     inkscape:window-maximized="1"
     inkscape:current-layer="svg15290"
     inkscape:document-rotation="0" />
  <defs
     id="defs15282">
    <linearGradient
       id="0"
       x1="21.253"
       y1="37.22"
       x2="77.64"
       y2="37.35"
       gradientUnits="userSpaceOnUse">
      <stop
         stop-color="#fff"
         id="stop15277" />
      <stop
         offset="1"
         stop-color="#fff"
         stop-opacity="0"
         id="stop15279" />
    </linearGradient>
  </defs>
  <path
     id="ellipse2354-6-0-7-9-10-9-5-2-7-3"
     style="fill:#999999;fill-opacity:1;fill-rule:nonzero;stroke:none;stroke-width:0.124596"
     d="M 16.466855,8.4670047 A 7.9997879,7.9997901 0 0 0 8.4672855,16.467135 v 17.066279 a 7.9997879,7.9997901 0 0 0 7.9995695,7.999581 h 17.066283 a 7.9997879,7.9997901 0 0 0 7.999576,-7.999581 V 16.467135 A 7.9997879,7.9997901 0 0 0 33.533138,8.4670047 Z" />
  <path
     id="ellipse2356-4-4-7-1-1-0-06-3-0"
     style="fill:#ffffff;fill-opacity:1;fill-rule:nonzero;stroke:none;stroke-width:0.124596"
     d="M 16.466589,8.6003957 A 7.8664608,7.8664628 0 0 0 8.600398,16.467136 v 17.065729 a 7.8664608,7.8664628 0 0 0 7.866191,7.866739 h 17.066274 a 7.8664608,7.8664628 0 0 0 7.866739,-7.866739 V 16.467136 A 7.8664608,7.8664628 0 0 0 33.532863,8.6003957 Z" />
  <path
     id="ellipse2316-7-7-1-3-5-1-18-5-6"
     style="fill:#7f7f7f;fill-opacity:1;fill-rule:nonzero;stroke:none;stroke-width:0.124596"
     d="m 16.467406,11.667005 a 4.7998756,4.7998742 0 0 0 -4.8004,4.799859 v 17.06627 a 4.7998756,4.7998742 0 0 0 4.8004,4.799861 h 17.065732 a 4.7998756,4.7998742 0 0 0 4.799856,-4.799861 v -17.06627 a 4.7998756,4.7998742 0 0 0 -4.799856,-4.799859 z" />
  <path
     id="rect872-0-7-3-5-5-7-2-8-3-4-4-7-5-0-1-2-9-2-28-4-49-3-0"
     style="fill:#e6e6e6;fill-opacity:1;fill-rule:nonzero;stroke:none;stroke-width:0.314116"
     d="m 16.46659,12.200274 a 4.2665562,4.2665548 0 0 0 -4.266301,4.266851 v 17.007849 0.0579 a 4.2665562,4.2665548 0 0 0 4.266301,4.266852 H 33.532865 A 4.2665562,4.2665548 0 0 0 37.79971,33.532874 V 16.467145 a 4.2665562,4.2665548 0 0 0 -4.266845,-4.266841 z" />
  <g
     id="g1462-82-9-6-0-0"
     transform="translate(-69.865293,-112.635)">
    <circle
       transform="scale(-1,1)"
       id="path7851-97-1-23-1-3-3-0-2-0-00-3-3-2-1-0-7-4-99-9-2-0-7"
       style="fill:#000000;fill-opacity:1;fill-rule:nonzero;stroke:none;stroke-width:0.124596"
       cx="-94.865219"
       cy="137.63501"
       r="1.5999581" />
    <circle
       style="fill:#771d1d;fill-opacity:1;fill-rule:nonzero;stroke:none;stroke-width:0.26666;stroke-miterlimit:4;stroke-dasharray:none;stroke-opacity:1"
       id="path7851-9-1-9-8-2-1-56-4-2-0-3-0-9-8-6-6-1-0-9-4-1-1-6-7-9-1-1-1"
       cx="-94.86525"
       cy="133.36845"
       r="1.5999581"
       transform="scale(-1,1)" />
    <circle
       style="fill:#771d1d;fill-opacity:1;fill-rule:nonzero;stroke:none;stroke-width:0.26666;stroke-miterlimit:4;stroke-dasharray:none;stroke-opacity:1"
       id="path7851-9-1-9-8-1-8-2-4-7-7-2-6-1-4-1-2-5-2-1-7-0-4-4-2-5-2-4-2-1"
       cx="-90.598679"
       cy="137.63501"
       r="1.5999581"
       transform="scale(-1,1)" />
    <circle
       style="fill:#771d1d;fill-opacity:1;fill-rule:nonzero;stroke:none;stroke-width:0.26666;stroke-miterlimit:4;stroke-dasharray:none;stroke-opacity:1"
       id="path7851-9-1-9-8-9-9-4-8-8-6-0-7-6-9-9-6-31-1-9-73-7-8-2-4-4-8-9-9-9"
       cx="-94.86525"
       cy="141.90157"
       r="1.5999581"
       transform="scale(-1,1)" />
    <circle
       style="fill:#771d1d;fill-opacity:1;fill-rule:nonzero;stroke:none;stroke-width:0.26666;stroke-miterlimit:4;stroke-dasharray:none;stroke-opacity:1"
       id="path7851-9-1-9-8-8-0-2-21-3-7-0-6-9-3-5-3-4-1-3-8-2-9-9-8-4-6-0-7-6"
       cx="-99.131805"
       cy="137.63501"
       r="1.5999581"
       transform="scale(-1,1)" />
  </g>
</svg>
