<?xml version="1.0" encoding="UTF-8" standalone="no"?>
<svg
   xmlns:dc="http://purl.org/dc/elements/1.1/"
   xmlns:cc="http://creativecommons.org/ns#"
   xmlns:rdf="http://www.w3.org/1999/02/22-rdf-syntax-ns#"
   xmlns:svg="http://www.w3.org/2000/svg"
   xmlns="http://www.w3.org/2000/svg"
   xmlns:sodipodi="http://sodipodi.sourceforge.net/DTD/sodipodi-0.dtd"
   xmlns:inkscape="http://www.inkscape.org/namespaces/inkscape"
   inkscape:version="1.0.1 (3bc2e813f5, 2020-09-07)"
   sodipodi:docname="wL.svg"
   id="svg4260"
   version="1.1"
   viewBox="0 0 50 50"
   clip-rule="evenodd"
   fill-rule="evenodd"
   image-rendering="optimizeQuality"
   shape-rendering="geometricPrecision"
   height="177.17"
   width="177.17">
  <metadata
     id="metadata4266">
    <rdf:RDF>
      <cc:Work
         rdf:about="">
        <dc:format>image/svg+xml</dc:format>
        <dc:type
           rdf:resource="http://purl.org/dc/dcmitype/StillImage" />
        <dc:title />
      </cc:Work>
    </rdf:RDF>
  </metadata>
  <defs
     id="defs4264" />
  <sodipodi:namedview
     inkscape:current-layer="svg4260"
     inkscape:window-maximized="1"
     inkscape:window-y="-8"
     inkscape:window-x="-8"
     inkscape:cy="68.450963"
     inkscape:cx="69.221768"
     inkscape:zoom="2.998766"
     showgrid="false"
     id="namedview4262"
     inkscape:window-height="1009"
     inkscape:window-width="1920"
     inkscape:pageshadow="2"
     inkscape:pageopacity="0"
     guidetolerance="10"
     gridtolerance="10"
     objecttolerance="10"
     borderopacity="1"
     bordercolor="#666666"
     pagecolor="#ffffff"
     inkscape:document-rotation="0" />
  <path
     id="ellipse2354-6-0-7-9-10-9-5-2-7-3"
     style="fill:#999999;fill-opacity:1;fill-rule:nonzero;stroke:none;stroke-width:0.124596"
     d="m 16.466856,8.4670048 a 7.9997879,7.9997901 0 0 0 -7.99957,8.0001292 v 17.06628 a 7.9997879,7.9997901 0 0 0 7.99957,7.999581 h 17.066283 a 7.9997879,7.9997901 0 0 0 7.999575,-7.999581 V 16.467134 A 7.9997879,7.9997901 0 0 0 33.533139,8.4670048 Z" />
  <path
     id="ellipse2356-4-4-7-1-1-0-06-3-0"
     style="fill:#ffffff;fill-opacity:1;fill-rule:nonzero;stroke:none;stroke-width:0.124596"
     d="m 16.466588,8.6003959 a 7.8664608,7.8664628 0 0 0 -7.86619,7.8667391 v 17.06573 a 7.8664608,7.8664628 0 0 0 7.86619,7.866739 h 17.066275 a 7.8664608,7.8664628 0 0 0 7.866739,-7.866739 V 16.467135 A 7.8664608,7.8664628 0 0 0 33.532863,8.6003959 Z" />
  <path
     id="ellipse2316-7-7-1-3-5-1-18-5-6"
     style="fill:#7f7f7f;fill-opacity:1;fill-rule:nonzero;stroke:none;stroke-width:0.124596"
     d="m 16.467406,11.667005 a 4.7998756,4.7998742 0 0 0 -4.8004,4.799859 v 17.06627 a 4.7998756,4.7998742 0 0 0 4.8004,4.799861 h 17.065732 a 4.7998756,4.7998742 0 0 0 4.799856,-4.799861 V 16.466865 a 4.7998756,4.7998742 0 0 0 -4.799856,-4.79986 z" />
  <path
     id="rect872-0-7-3-5-5-7-2-8-3-4-4-7-5-0-1-2-9-2-28-4-49-3-0"
     style="fill:#e6e6e6;fill-opacity:1;fill-rule:nonzero;stroke:none;stroke-width:0.314116"
     d="m 16.46659,12.200274 a 4.2665562,4.2665548 0 0 0 -4.2663,4.26685 v 17.00785 0.0579 a 4.2665562,4.2665548 0 0 0 4.2663,4.266852 h 17.066276 a 4.2665562,4.2665548 0 0 0 4.266844,-4.266852 v -17.06573 a 4.2665562,4.2665548 0 0 0 -4.266844,-4.26684 z" />
  <g
     id="g1152"
     transform="translate(40.467437,0.564662)">
    <ellipse
       style="fill:#771d1d;fill-opacity:1;fill-rule:nonzero;stroke:none;stroke-width:0.124596"
       id="path7851-9-1-9-8-11-3-0-4-8-8-3-5-9-7-2-0-4-1-7-3-2"
       transform="scale(-1,1)"
       cx="11.200761"
       cy="15.902231"
       rx="1.5999584"
       ry="1.5999581" />
    <ellipse
       style="fill:#771d1d;fill-opacity:1;fill-rule:nonzero;stroke:none;stroke-width:0.124596"
       id="path7851-9-1-9-8-1-9-8-1-74-9-1-6-3-6-1-3-3-7-0-1-5-5"
       transform="scale(-1,1)"
       cx="19.733902"
       cy="15.902231"
       rx="1.5999584"
       ry="1.5999581" />
    <ellipse
       style="fill:#771d1d;fill-opacity:1;fill-rule:nonzero;stroke:none;stroke-width:0.124596"
       id="path7851-9-1-9-8-9-7-9-2-4-7-8-9-1-3-2-2-86-0-0-8-8-2"
       transform="scale(-1,1)"
       cx="24.000443"
       cy="20.168787"
       rx="1.5999584"
       ry="1.5999581" />
    <ellipse
       style="fill:#771d1d;fill-opacity:1;fill-rule:nonzero;stroke:none;stroke-width:0.124596"
       id="path7851-9-1-9-8-8-6-2-9-86-0-7-4-2-4-6-4-4-3-4-6-6-1"
       transform="scale(-1,1)"
       cx="6.9342198"
       cy="20.168787"
       rx="1.5999584"
       ry="1.5999581" />
    <ellipse
       style="fill:#771d1d;fill-opacity:1;fill-rule:nonzero;stroke:none;stroke-width:0.124596"
       id="path7851-9-1-9-8-9-5-2-87-0-51-9-7-2-6-2-8-8-89-2-0-1-7-4"
       transform="scale(-1,1)"
       cx="24.000443"
       cy="28.701899"
       rx="1.5999584"
       ry="1.5999581" />
    <ellipse
       style="fill:#771d1d;fill-opacity:1;fill-rule:nonzero;stroke:none;stroke-width:0.124596"
       id="path7851-9-1-9-8-9-8-9-0-3-4-8-2-0-4-8-5-1-7-5-2-0-2-8"
       transform="scale(-1,1)"
       cx="19.733902"
       cy="32.968452"
       rx="1.5999584"
       ry="1.5999581" />
    <ellipse
       style="fill:#771d1d;fill-opacity:1;fill-rule:nonzero;stroke:none;stroke-width:0.124596"
       id="path7851-9-1-9-8-9-6-5-1-8-9-4-8-4-2-8-9-1-6-7-2-0-6-8"
       transform="scale(-1,1)"
       cx="11.200761"
       cy="32.968452"
       rx="1.5999584"
       ry="1.5999581" />
    <ellipse
       style="fill:#771d1d;fill-opacity:1;fill-rule:nonzero;stroke:none;stroke-width:0.124596"
       id="path7851-9-1-9-8-9-26-20-4-8-8-9-2-4-4-7-5-3-6-5-1-4-9-2"
       transform="scale(-1,1)"
       cx="6.9342198"
       cy="28.701899"
       rx="1.5999584"
       ry="1.5999581" />
    <ellipse
       style="fill:#771d1d;fill-opacity:1;fill-rule:nonzero;stroke:none;stroke-width:0.124596"
       id="path7851-9-1-9-8-5-583-6-5-4-5-9-8-2-45-3-60-3-7-3-9-9-0"
       transform="scale(-1,1)"
       cx="6.9342198"
       cy="15.902246"
       rx="1.5999587"
       ry="1.5999581" />
    <ellipse
       style="fill:#771d1d;fill-opacity:1;fill-rule:nonzero;stroke:none;stroke-width:0.124596"
       id="path7851-9-1-9-8-1-3-9-4-3-7-6-5-0-5-2-9-06-6-5-0-2-4-9"
       transform="scale(-1,1)"
       cx="15.467362"
       cy="15.902246"
       rx="1.5999587"
       ry="1.5999581" />
    <ellipse
       style="fill:#771d1d;fill-opacity:1;fill-rule:nonzero;stroke:none;stroke-width:0.124596"
       id="path7851-9-1-9-8-9-92-4-0-5-9-6-6-3-3-2-1-9-0-6-7-3-2-4"
       transform="scale(-1,1)"
       cx="24.000443"
       cy="15.902246"
       rx="1.5999587"
       ry="1.5999581" />
    <ellipse
       style="fill:#771d1d;fill-opacity:1;fill-rule:nonzero;stroke:none;stroke-width:0.124596"
       id="path7851-9-1-9-8-8-4-8-7-6-0-9-3-0-5-2-9-4-3-2-5-4-5-1"
       transform="scale(-1,1)"
       cx="6.9342198"
       cy="24.435358"
       rx="1.5999587"
       ry="1.5999581" />
    <ellipse
       style="fill:#771d1d;fill-opacity:1;fill-rule:nonzero;stroke:none;stroke-width:0.124596"
       id="path7851-9-1-9-8-9-5-6-3-0-3-2-0-3-6-1-1-3-9-6-6-9-5-4-2"
       transform="scale(-1,1)"
       cx="24.000443"
       cy="24.435358"
       rx="1.5999587"
       ry="1.5999581" />
    <ellipse
       style="fill:#771d1d;fill-opacity:1;fill-rule:nonzero;stroke:none;stroke-width:0.124596"
       id="path7851-9-1-9-8-9-8-1-9-3-0-2-7-2-5-2-8-6-0-24-4-1-6-6-7"
       transform="scale(-1,1)"
       cx="24.000443"
       cy="32.968452"
       rx="1.5999587"
       ry="1.5999581" />
    <ellipse
       style="fill:#771d1d;fill-opacity:1;fill-rule:nonzero;stroke:none;stroke-width:0.124596"
       id="path7851-9-1-9-8-9-6-8-7-4-2-4-0-9-4-2-1-3-0-0-2-7-0-7-6"
       transform="scale(-1,1)"
       cx="15.467362"
       cy="32.968452"
       rx="1.5999587"
       ry="1.5999581" />
    <ellipse
       style="fill:#771d1d;fill-opacity:1;fill-rule:nonzero;stroke:none;stroke-width:0.124596"
       id="path7851-9-1-9-8-9-26-2-6-0-9-7-9-9-0-2-33-2-8-5-1-6-6-1-4"
       transform="scale(-1,1)"
       cx="6.9342198"
       cy="32.968452"
       rx="1.5999587"
       ry="1.5999581" />
    <path
       id="ellipse2316-7-7-1-3-5-1-18-5-6-1-7"
       style="fill:#7f7f7f;fill-opacity:1;fill-rule:nonzero;stroke:none;stroke-width:0.124596"
       d="m -24.000027,11.102343 a 4.7998756,4.7998742 0 0 0 -4.800406,4.799861 v 17.066279 a 4.7998756,4.7998742 0 0 0 4.800406,4.79985 H -6.9343 a 4.7998756,4.7998742 0 0 0 4.799859,-4.79985 V 15.902204 A 4.7998756,4.7998742 0 0 0 -6.9343,11.102343 Z m -0.0011,0.53356 H -6.93485 a 4.2665562,4.2665548 0 0 1 4.266845,4.266851 v 17.065729 a 4.2665562,4.2665548 0 0 1 -4.266845,4.26684 h -17.066277 a 4.2665562,4.2665548 0 0 1 -4.266295,-4.26684 v -0.0579 -17.007859 a 4.2665562,4.2665548 0 0 1 4.266295,-4.266841 z" />
    <ellipse
       style="fill:#000000;fill-opacity:1;fill-rule:nonzero;stroke:none;stroke-width:0.124596"
       id="path7851-8-1-9-3-2-4-1-8-2-5-3-5-7-2-7-63-8-0-4-7"
       transform="scale(-1,1)"
       cx="15.467362"
       cy="24.435343"
       rx="1.5999576"
       ry="1.5999581" />
    <circle
       style="clip-rule:evenodd;fill:#771d1d;fill-opacity:1;fill-rule:nonzero;stroke:none;stroke-width:0.26666;stroke-miterlimit:4;stroke-dasharray:none;stroke-opacity:1;image-rendering:optimizeQuality;shape-rendering:geometricPrecision"
       id="path7851-9-1-9-8-97-8-4-2-8-1-2-4-2-0-8-0-74-8-2-1-5-0-2-4-03-0-7-0"
       cx="11.200795"
       cy="20.168785"
       r="1.5999581"
       transform="scale(-1,1)" />
    <circle
       style="clip-rule:evenodd;fill:#771d1d;fill-opacity:1;fill-rule:nonzero;stroke:none;stroke-width:0.26666;stroke-miterlimit:4;stroke-dasharray:none;stroke-opacity:1;image-rendering:optimizeQuality;shape-rendering:geometricPrecision"
       id="path7851-9-1-9-8-1-2-1-5-5-2-2-4-5-2-3-2-3-4-2-3-2-0-3-1-9-7-2-4-3"
       cx="19.733921"
       cy="20.168785"
       r="1.5999581"
       transform="scale(-1,1)" />
    <circle
       style="clip-rule:evenodd;fill:#771d1d;fill-opacity:1;fill-rule:nonzero;stroke:none;stroke-width:0.26666;stroke-miterlimit:4;stroke-dasharray:none;stroke-opacity:1;image-rendering:optimizeQuality;shape-rendering:geometricPrecision"
       id="path7851-9-1-9-8-9-2-5-4-0-8-4-4-0-8-9-4-8-4-2-9-6-6-4-7-2-4-4-0-1"
       cx="19.733921"
       cy="28.701897"
       r="1.5999581"
       transform="scale(-1,1)" />
    <circle
       style="clip-rule:evenodd;fill:#771d1d;fill-opacity:1;fill-rule:nonzero;stroke:none;stroke-width:0.26666;stroke-miterlimit:4;stroke-dasharray:none;stroke-opacity:1;image-rendering:optimizeQuality;shape-rendering:geometricPrecision"
       id="path7851-9-1-9-8-8-8-8-9-9-5-3-3-2-0-1-7-9-85-7-3-4-0-9-4-4-7-9-1-5"
       cx="11.200795"
       cy="28.701897"
       r="1.5999581"
       transform="scale(-1,1)" />
    <circle
       style="clip-rule:evenodd;fill:#771d1d;fill-opacity:1;fill-rule:nonzero;stroke:none;stroke-width:0.26666;stroke-miterlimit:4;stroke-dasharray:none;stroke-opacity:1;image-rendering:optimizeQuality;shape-rendering:geometricPrecision"
       id="path7851-9-1-9-8-2-1-56-4-2-0-3-0-9-8-6-6-1-0-9-4-1-1-6-7-4-8-5-3"
       cx="15.467351"
       cy="20.168785"
       r="1.5999581"
       transform="scale(-1,1)" />
    <circle
       style="clip-rule:evenodd;fill:#771d1d;fill-opacity:1;fill-rule:nonzero;stroke:none;stroke-width:0.26666;stroke-miterlimit:4;stroke-dasharray:none;stroke-opacity:1;image-rendering:optimizeQuality;shape-rendering:geometricPrecision"
       id="path7851-9-1-9-8-1-8-2-4-7-7-2-6-1-4-1-2-5-2-1-7-0-4-4-2-5-1-5-3-1"
       cx="19.733921"
       cy="24.435341"
       r="1.5999581"
       transform="scale(-1,1)" />
    <circle
       style="clip-rule:evenodd;fill:#771d1d;fill-opacity:1;fill-rule:nonzero;stroke:none;stroke-width:0.26666;stroke-miterlimit:4;stroke-dasharray:none;stroke-opacity:1;image-rendering:optimizeQuality;shape-rendering:geometricPrecision"
       id="path7851-9-1-9-8-9-9-4-8-8-6-0-7-6-9-9-6-31-1-9-73-7-8-2-4-4-5-4-5-2"
       cx="15.467351"
       cy="28.701897"
       r="1.5999581"
       transform="scale(-1,1)" />
    <circle
       style="clip-rule:evenodd;fill:#771d1d;fill-opacity:1;fill-rule:nonzero;stroke:none;stroke-width:0.26666;stroke-miterlimit:4;stroke-dasharray:none;stroke-opacity:1;image-rendering:optimizeQuality;shape-rendering:geometricPrecision"
       id="path7851-9-1-9-8-8-0-2-21-3-7-0-6-9-3-5-3-4-1-3-8-2-9-9-8-4-74-3-4-6"
       cx="11.200795"
       cy="24.435341"
       r="1.5999581"
       transform="scale(-1,1)" />
  </g>
</svg>
