<?xml version="1.0" encoding="UTF-8" standalone="no"?>
<svg
   xmlns:dc="http://purl.org/dc/elements/1.1/"
   xmlns:cc="http://creativecommons.org/ns#"
   xmlns:rdf="http://www.w3.org/1999/02/22-rdf-syntax-ns#"
   xmlns:svg="http://www.w3.org/2000/svg"
   xmlns="http://www.w3.org/2000/svg"
   xmlns:sodipodi="http://sodipodi.sourceforge.net/DTD/sodipodi-0.dtd"
   xmlns:inkscape="http://www.inkscape.org/namespaces/inkscape"
   inkscape:version="1.0.1 (3bc2e813f5, 2020-09-07)"
   sodipodi:docname="wM.svg"
   id="svg4260"
   version="1.1"
   viewBox="0 0 50 50"
   clip-rule="evenodd"
   fill-rule="evenodd"
   image-rendering="optimizeQuality"
   shape-rendering="geometricPrecision"
   height="177.17"
   width="177.17">
  <metadata
     id="metadata4266">
    <rdf:RDF>
      <cc:Work
         rdf:about="">
        <dc:format>image/svg+xml</dc:format>
        <dc:type
           rdf:resource="http://purl.org/dc/dcmitype/StillImage" />
        <dc:title />
      </cc:Work>
    </rdf:RDF>
  </metadata>
  <defs
     id="defs4264" />
  <sodipodi:namedview
     inkscape:current-layer="svg4260"
     inkscape:window-maximized="1"
     inkscape:window-y="-8"
     inkscape:window-x="-8"
     inkscape:cy="88.584999"
     inkscape:cx="88.584999"
     inkscape:zoom="4.6226788"
     showgrid="false"
     id="namedview4262"
     inkscape:window-height="1009"
     inkscape:window-width="1920"
     inkscape:pageshadow="2"
     inkscape:pageopacity="0"
     guidetolerance="10"
     gridtolerance="10"
     objecttolerance="10"
     borderopacity="1"
     bordercolor="#666666"
     pagecolor="#ffffff"
     inkscape:document-rotation="0" />
  <path
     id="ellipse2354-6-0-7-9-10-9-5-2-7-3"
     style="fill:#999999;fill-opacity:1;fill-rule:nonzero;stroke:none;stroke-width:0.124596"
     d="M 16.466855,8.4670045 A 7.9997879,7.9997901 0 0 0 8.4672855,16.467133 v 17.066281 a 7.9997879,7.9997901 0 0 0 7.9995695,7.999581 h 17.066283 a 7.9997879,7.9997901 0 0 0 7.999576,-7.999581 V 16.467133 A 7.9997879,7.9997901 0 0 0 33.533138,8.4670045 Z" />
  <path
     id="ellipse2356-4-4-7-1-1-0-06-3-0"
     style="fill:#ffffff;fill-opacity:1;fill-rule:nonzero;stroke:none;stroke-width:0.124596"
     d="M 16.466589,8.6003955 A 7.8664608,7.8664628 0 0 0 8.600398,16.467134 v 17.065731 a 7.8664608,7.8664628 0 0 0 7.866191,7.866739 h 17.066274 a 7.8664608,7.8664628 0 0 0 7.866739,-7.866739 V 16.467134 A 7.8664608,7.8664628 0 0 0 33.532863,8.6003955 Z" />
  <path
     id="ellipse2316-7-7-1-3-5-1-18-5-6"
     style="fill:#7f7f7f;fill-opacity:1;fill-rule:nonzero;stroke:none;stroke-width:0.124596"
     d="m 16.467406,11.667004 a 4.7998756,4.7998742 0 0 0 -4.8004,4.79986 v 17.066271 a 4.7998756,4.7998742 0 0 0 4.8004,4.799861 h 17.065732 a 4.7998756,4.7998742 0 0 0 4.799856,-4.799861 V 16.466864 a 4.7998756,4.7998742 0 0 0 -4.799856,-4.79986 z" />
  <path
     id="rect872-0-7-3-5-5-7-2-8-3-4-4-7-5-0-1-2-9-2-28-4-49-3-0"
     style="fill:#e6e6e6;fill-opacity:1;fill-rule:nonzero;stroke:none;stroke-width:0.314116"
     d="m 16.46659,12.200273 a 4.2665562,4.2665548 0 0 0 -4.266301,4.26685 v 17.007851 0.0579 a 4.2665562,4.2665548 0 0 0 4.266301,4.266852 H 33.532865 A 4.2665562,4.2665548 0 0 0 37.79971,33.532874 V 16.467143 a 4.2665562,4.2665548 0 0 0 -4.266845,-4.26684 z" />
  <g
     id="g2499-7-2-2-5"
     transform="translate(-119.06654,-55.715853)">
    <circle
       style="fill:#771d1d;fill-opacity:1;fill-rule:nonzero;stroke:none;stroke-width:0.124596"
       id="path7851-9-1-9-8-97-33-3-1-9-4-9-5-0-1-0-2-8-6-1-6-5-9"
       transform="scale(-1,1)"
       cx="-148.33304"
       cy="76.449303"
       r="1.5999581" />
    <circle
       style="fill:#771d1d;fill-opacity:1;fill-rule:nonzero;stroke:none;stroke-width:0.124596"
       id="path7851-9-1-9-8-1-2-2-3-28-4-3-5-2-0-6-1-8-7-6-7-8-4-5"
       transform="scale(-1,1)"
       cx="-139.79993"
       cy="76.449303"
       r="1.5999581" />
    <circle
       style="fill:#771d1d;fill-opacity:1;fill-rule:nonzero;stroke:none;stroke-width:0.124596"
       id="path7851-9-1-9-8-9-2-4-5-4-0-6-2-8-6-6-6-9-8-46-2-9-4-5"
       transform="scale(-1,1)"
       cx="-139.79993"
       cy="84.982407"
       r="1.5999581" />
    <circle
       style="fill:#771d1d;fill-opacity:1;fill-rule:nonzero;stroke:none;stroke-width:0.124596"
       id="path7851-9-1-9-8-8-8-1-5-6-3-9-5-3-1-6-9-7-5-3-8-6-4-3"
       transform="scale(-1,1)"
       cx="-148.33304"
       cy="84.982407"
       r="1.5999581" />
    <circle
       transform="scale(-1,1)"
       id="path7851-5-3-8-0-4-1-7-3-8-6-0-6-9-9-0-5-0"
       style="fill:#000000;fill-opacity:1;fill-rule:nonzero;stroke:none;stroke-width:0.124596"
       cx="-144.0665"
       cy="80.715843"
       r="1.5999581" />
  </g>
</svg>
