<?xml version="1.0" encoding="UTF-8" standalone="no"?>
<svg
   xmlns:dc="http://purl.org/dc/elements/1.1/"
   xmlns:cc="http://creativecommons.org/ns#"
   xmlns:rdf="http://www.w3.org/1999/02/22-rdf-syntax-ns#"
   xmlns:svg="http://www.w3.org/2000/svg"
   xmlns="http://www.w3.org/2000/svg"
   xmlns:sodipodi="http://sodipodi.sourceforge.net/DTD/sodipodi-0.dtd"
   xmlns:inkscape="http://www.inkscape.org/namespaces/inkscape"
   width="177.17"
   height="177.17"
   shape-rendering="geometricPrecision"
   image-rendering="optimizeQuality"
   fill-rule="evenodd"
   clip-rule="evenodd"
   viewBox="0 0 50 50"
   version="1.1"
   id="svg13"
   sodipodi:docname="wS.svg"
   inkscape:version="1.0.1 (3bc2e813f5, 2020-09-07)">
  <metadata
     id="metadata17">
    <rdf:RDF>
      <cc:Work
         rdf:about="">
        <dc:format>image/svg+xml</dc:format>
        <dc:type
           rdf:resource="http://purl.org/dc/dcmitype/StillImage" />
      </cc:Work>
    </rdf:RDF>
  </metadata>
  <sodipodi:namedview
     pagecolor="#ffffff"
     bordercolor="#666666"
     borderopacity="1"
     objecttolerance="10"
     gridtolerance="10"
     guidetolerance="10"
     inkscape:pageopacity="0"
     inkscape:pageshadow="2"
     inkscape:window-width="1920"
     inkscape:window-height="1009"
     id="namedview15"
     showgrid="false"
     inkscape:zoom="4.6226788"
     inkscape:cx="88.584999"
     inkscape:cy="88.584999"
     inkscape:window-x="-8"
     inkscape:window-y="-8"
     inkscape:window-maximized="1"
     inkscape:current-layer="svg13"
     inkscape:document-rotation="0" />
  <defs
     id="defs7">
    <linearGradient
       id="0"
       x1="21.13"
       y1="37.592"
       x2="77.64"
       y2="37.469"
       gradientUnits="userSpaceOnUse">
      <stop
         stop-color="#fff"
         id="stop2" />
      <stop
         offset="1"
         stop-color="#fff"
         stop-opacity="0"
         id="stop4" />
    </linearGradient>
  </defs>
  <path
     id="ellipse2354-6-0-7-9-10-9-5-2"
     style="fill:#999999;fill-opacity:1;fill-rule:nonzero;stroke:none;stroke-width:0.124596"
     d="M 16.46686,8.4670069 A 7.9997877,7.99979 0 0 0 8.4672827,16.467136 v 17.06628 a 7.9997877,7.99979 0 0 0 7.9995773,7.999577 h 17.066281 a 7.9997877,7.99979 0 0 0 7.999576,-7.999577 V 16.467136 A 7.9997877,7.99979 0 0 0 33.533141,8.4670069 Z" />
  <path
     id="ellipse2356-4-4-7-1-1-0-06-3"
     style="fill:#ffffff;fill-opacity:1;fill-rule:nonzero;stroke:none;stroke-width:0.124596"
     d="M 16.466584,8.6003963 A 7.8664607,7.8664627 0 0 0 8.6003973,16.467136 v 17.065728 a 7.8664607,7.8664627 0 0 0 7.8661867,7.86674 h 17.066278 a 7.8664607,7.8664627 0 0 0 7.866741,-7.86674 V 16.467136 A 7.8664607,7.8664627 0 0 0 33.532862,8.6003963 Z" />
  <path
     id="ellipse2316-7-7-1-3-5-1-18-5"
     style="fill:#7f7f7f;fill-opacity:1;fill-rule:nonzero;stroke:none;stroke-width:0.124596"
     d="m 16.467411,11.667003 a 4.7998755,4.7998741 0 0 0 -4.800408,4.799857 v 17.066279 a 4.7998755,4.7998741 0 0 0 4.800408,4.799857 h 17.065728 a 4.7998755,4.7998741 0 0 0 4.799858,-4.799857 V 16.46686 a 4.7998755,4.7998741 0 0 0 -4.799858,-4.799857 z" />
  <path
     id="rect872-0-7-3-5-5-7-2-8-3-4-4-7-5-0-1-2-9-2-28-4-49-3"
     style="fill:#e6e6e6;fill-opacity:1;fill-rule:nonzero;stroke:none;stroke-width:0.314116"
     d="m 16.466582,12.200287 a 4.2665561,4.2665547 0 0 0 -4.266292,4.266846 v 17.007854 0.05788 a 4.2665561,4.2665547 0 0 0 4.266292,4.266846 h 17.066281 a 4.2665561,4.2665547 0 0 0 4.266846,-4.266846 v -17.06573 a 4.2665561,4.2665547 0 0 0 -4.266846,-4.266846 z" />
  <g
     id="g873">
    <g
       id="g9732-2-0"
       transform="translate(-346.81219,-628.5465)">
      <rect
         y="708.50519"
         x="198.68292"
         height="33.0658"
         width="1.0666387"
         id="rect8611-6-2-3-5-5-06-8-7-6-1-9-4-8-3-56-6-2-7-4-8-3-5-0-5-8-3-4-5-0-7-6-5"
         style="fill:#065f5f;fill-opacity:1;fill-rule:nonzero;stroke:none;stroke-width:0.307504"
         transform="matrix(-0.70710678,0.70710678,0.70710678,0.70710678,0,0)" />
      <rect
         transform="matrix(0.70710678,0.70710678,0.70710678,-0.70710678,0,0)"
         y="-215.74915"
         x="724.50476"
         height="33.0658"
         width="1.0666387"
         id="rect8611-3-9-5-1-1-4-4-5-9-4-7-0-8-4-6-3-1-29-6-72-8-0-0-2-5-3-1-5-3-1-6-7"
         style="fill:#065f5f;fill-opacity:1;fill-rule:nonzero;stroke:none;stroke-width:0.307504" />
      <ellipse
         style="fill:#000000;fill-opacity:1;fill-rule:nonzero;stroke:none;stroke-width:0.124596"
         id="path7851-60-8-77-6-7-2-6-7-4-8-1-8-6-6-8-9-6-5-4"
         transform="scale(-1,1)"
         cx="-371.81219"
         cy="653.54651"
         rx="1.5999577"
         ry="1.5999581" />
    </g>
    <path
       id="ellipse2316-7-7-1-3-5-1-18-5-6-1-2"
       style="fill:#7f7f7f;fill-opacity:1;fill-rule:nonzero;stroke:none;stroke-width:0.124596"
       d="m 16.46741,11.667005 a 4.7998756,4.7998742 0 0 0 -4.800406,4.79986 v 17.06628 a 4.7998756,4.7998742 0 0 0 4.800406,4.79985 h 17.065727 a 4.7998756,4.7998742 0 0 0 4.799859,-4.79985 v -17.06628 a 4.7998756,4.7998742 0 0 0 -4.799859,-4.79986 z m -0.0011,0.53356 h 17.066277 a 4.2665562,4.2665548 0 0 1 4.266845,4.26685 v 17.06573 a 4.2665562,4.2665548 0 0 1 -4.266845,4.26684 H 16.46631 a 4.2665562,4.2665548 0 0 1 -4.266295,-4.26684 v -0.0579 -17.00786 a 4.2665562,4.2665548 0 0 1 4.266295,-4.26684 z" />
  </g>
</svg>
