<?xml version="1.0" encoding="UTF-8" standalone="no"?>
<svg
   xmlns:dc="http://purl.org/dc/elements/1.1/"
   xmlns:cc="http://creativecommons.org/ns#"
   xmlns:rdf="http://www.w3.org/1999/02/22-rdf-syntax-ns#"
   xmlns:svg="http://www.w3.org/2000/svg"
   xmlns="http://www.w3.org/2000/svg"
   xmlns:sodipodi="http://sodipodi.sourceforge.net/DTD/sodipodi-0.dtd"
   xmlns:inkscape="http://www.inkscape.org/namespaces/inkscape"
   width="92"
   height="92"
   id="svg2"
   version="1.1"
   inkscape:version="1.0.1 (3bc2e813f5, 2020-09-07)"
   sodipodi:docname="bE.svg"
   inkscape:export-filename="D:\Pictures\Chess Variants\Xiangqi\pieces\Internationalized\black_horse.png"
   inkscape:export-xdpi="96.300003"
   inkscape:export-ydpi="96.300003">
  <metadata
     id="metadata12">
    <rdf:RDF>
      <cc:Work
         rdf:about="">
        <dc:format>image/svg+xml</dc:format>
        <dc:type
           rdf:resource="http://purl.org/dc/dcmitype/StillImage" />
        <dc:title></dc:title>
      </cc:Work>
    </rdf:RDF>
  </metadata>
  <defs
     id="defs10">
    <filter
       height="1.5"
       width="1.5"
       y="0"
       x="0"
       id="f1"
       color-interpolation-filters="sRGB">
      <feOffset
         id="feOffset3039"
         dy="0"
         dx="1"
         in="SourceAlpha"
         result="offOut" />
      <feGaussianBlur
         id="feGaussianBlur3041"
         stdDeviation="1"
         in="offOut"
         result="blurOut" />
      <!--
      <feBlend in="SourceGraphic" in2="blurOut" mode="normal" />
-->
    </filter>
    <linearGradient
       y2="1"
       x2="0"
       y1="0"
       x1="0"
       id="grad1">
      <stop
         id="stop3034"
         style="stop-color:rgb(255,255,255);stop-opacity:0.6"
         offset="20%" />
      <stop
         id="stop3036"
         style="stop-color:rgb(220,0,0);stop-opacity:0.5"
         offset="50%" />
    </linearGradient>
    <linearGradient
       y2="1"
       x2="0"
       y1="0"
       x1="0"
       id="grad0">
      <stop
         id="stop3029"
         style="stop-color:rgb(0,0,0);stop-opacity:0.3"
         offset="20%" />
      <stop
         id="stop3031"
         style="stop-color:rgb(0,0,0);stop-opacity:0.6"
         offset="100%" />
    </linearGradient>
    <inkscape:path-effect
       effect="mirror_symmetry"
       start_point="274.21267,350.55066"
       end_point="273.50284,477.30227"
       center_point="273.85776,413.92646"
       id="path-effect4557-0-4"
       is_visible="true"
       mode="free"
       discard_orig_path="false"
       fuse_paths="true"
       oposite_fuse="false" />
    <filter
       style="color-interpolation-filters:sRGB;"
       inkscape:label="Drop Shadow"
       id="filter20977">
      <feFlood
         flood-opacity="1"
         flood-color="rgb(91,93,90)"
         result="flood"
         id="feFlood20967" />
      <feComposite
         in="flood"
         in2="SourceGraphic"
         operator="in"
         result="composite1"
         id="feComposite20969" />
      <feGaussianBlur
         in="composite1"
         stdDeviation="0"
         result="blur"
         id="feGaussianBlur20971" />
      <feOffset
         dx="0"
         dy="4"
         result="offset"
         id="feOffset20973" />
      <feComposite
         in="SourceGraphic"
         in2="offset"
         operator="over"
         result="composite2"
         id="feComposite20975" />
    </filter>
    <linearGradient
       id="linearGradient5398"
       x1="0"
       y1="0"
       x2="0"
       y2="1">
      <stop
         offset="20%"
         style="stop-color:#000000;stop-opacity:1"
         id="stop5394" />
      <stop
         offset="100%"
         style="stop-color:#4d4d4d;stop-opacity:1"
         id="stop5396" />
    </linearGradient>
    <clipPath
       clipPathUnits="userSpaceOnUse"
       id="clipPath4506">
      <rect
         style="opacity:1;fill:#d40000;fill-opacity:1;stroke:#000000;stroke-width:0.19755;stroke-linecap:square;stroke-linejoin:miter;stroke-miterlimit:4;stroke-dasharray:none;stroke-opacity:1;paint-order:normal"
         id="rect4508"
         width="33.686436"
         height="15.466102"
         x="7.6271186"
         y="3.6016948" />
    </clipPath>
    <linearGradient
       id="0-9"
       x1="21.190001"
       y1="37.551998"
       x2="77.739998"
       y2="37.429001"
       gradientUnits="userSpaceOnUse">
      <stop
         stop-color="#fff"
         id="stop4569" />
      <stop
         offset="1"
         stop-color="#fff"
         stop-opacity="0"
         id="stop4571" />
    </linearGradient>
    <linearGradient
       gradientTransform="translate(-1.5971249,48.408736)"
       id="0-4"
       x1="21.253"
       y1="37.591999"
       x2="77.639999"
       y2="37.469002"
       gradientUnits="userSpaceOnUse">
      <stop
         stop-color="#fff"
         id="stop5894" />
      <stop
         offset="1"
         stop-color="#fff"
         stop-opacity="0"
         id="stop5896" />
    </linearGradient>
  </defs>
  <sodipodi:namedview
     pagecolor="#ffffff"
     bordercolor="#666666"
     borderopacity="1"
     objecttolerance="10"
     gridtolerance="10"
     guidetolerance="10"
     inkscape:pageopacity="0"
     inkscape:pageshadow="2"
     inkscape:window-width="3360"
     inkscape:window-height="1780"
     id="namedview8"
     showgrid="false"
     inkscape:zoom="10.488889"
     inkscape:cx="45.211368"
     inkscape:cy="49.372202"
     inkscape:window-x="6708"
     inkscape:window-y="1085"
     inkscape:window-maximized="1"
     inkscape:current-layer="layer2"
     fit-margin-top="0"
     fit-margin-left="0"
     fit-margin-right="0"
     fit-margin-bottom="0"
     inkscape:pagecheckerboard="false"
     inkscape:document-rotation="0" />
  <g
     inkscape:groupmode="layer"
     id="layer1"
     inkscape:label="Background"
     style="display:inline" />
  <g
     inkscape:groupmode="layer"
     id="layer2"
     inkscape:label="Symbol"
     style="display:inline">
    <path
       sodipodi:nodetypes="cccccccc"
       id="path1068"
       d="m 22.213983,49.194916 c -0.95339,2.288135 -1.295646,14.38162 -1.295646,14.38162 l 10.543528,2.207363 8.485169,-4.290254 4.385593,2.097457 15.06356,-42.044492 -18.591102,4.290255 z"
       style="fill:#ffffff;stroke:none;stroke-width:1px;stroke-linecap:butt;stroke-linejoin:miter;stroke-opacity:1" />
    <g
       style="display:inline"
       id="g5374"
       transform="matrix(1.8451788,0,0,1.8451788,-110.89011,-13.856464)">
      <g
         transform="translate(-35.93211,22.786216)"
         style="opacity:1"
         id="g5357">
        <path
           style="fill:#aa0000;fill-opacity:1;stroke:none;stroke-width:1px;stroke-linecap:butt;stroke-linejoin:miter;stroke-opacity:1"
           d="m 125.66609,-2.121176 -3.2,5 -0.6,2.1 c -0.0945,1.5296586 0.15617,2.8292194 0.6,4 l -0.2,2.099999 c -1.09796,3.097738 -2.35981,6.067197 -2.60001,9.5 0.12511,0.773672 0.40427,1.44388 1.3,1.7 11.23011,-0.424319 16.82956,-5.233235 20.30001,-11.7 l 0.2,-2.099999 c -2.10707,-8.89280401 -8.15113,-13.4502442 -16.2,-15.8 -4.40015,-0.5317426 -7.59668,1.3815851 -10.20001,4.5 -2.59354,2.64077835 -4.39616,5.9439949 -5.3,10 -0.89646,1.6487885 -1.64452,1.9405129 -2.4,2.3 -2.28978,-0.6407124 -3.03862,-1.6262894 -2.5,-2.9 0.35259,-1.8089896 3.48816,-3.3504905 5.5,-5 1.59764,-2.6483718 2.34637,-5.1951958 -0.6,-7.3 -8.75831,-2.0518262 -7.05798,4.7061225 -5.2,6.20000004 1.23982,-0.5457366 2.00197,-1.22280981 2.4,-2.00000004 -0.25951,-0.4357328 -0.98217,-0.8162564 0,-1.4 0.5387,0.045976 0.81918,0.2856122 1,0.6 0,1 0.50403,1.1455069 -3.6,4 -2.41796,1.1605474 -2.59331,2.9892138 -3.5,4.6 -1.668162,8.737445 1.94976,11.358136 6.5,12.899999 0.86488,-0.721198 1.12021,-1.741094 1.5,-2.7 1.29573,0.281592 2.51468,0.385517 4.3,1.8 0.43333,-0.4 0.86667,-0.8 1.3,-1.2 l 1.1,0.5 -0.9,0.5 c -0.61971,0.861505 -1.43108,1.608021 -2.5,2.2 l 2.4,0.3 c 1.087,-0.403589 1.93334,-1.017048 2.7,-1.7 l 1.3,-0.4 c 1.21385,-2.971538 2.39138,-5.952154 2.9,-9.099999 -0.0806,-0.9844358 -0.10227,-1.7702685 -0.7,-4.5 l 0.7,-2.3 z"
           id="path5349"
           inkscape:connector-curvature="0"
           sodipodi:nodetypes="cccccccccccccccccccccccccccccccccccc" />
        <path
           style="fill:#aa0000;fill-opacity:1;stroke:none;stroke-width:1px;stroke-linecap:butt;stroke-linejoin:miter;stroke-opacity:1"
           d="m 109.56608,17.578823 c -1.32838,4.066443 -4.04985,6.321863 -6.6,8.8 -0.20576,0.304421 0.14574,0.397532 1,0.3 3.90473,-1.863513 6.85963,-4.360243 8.1,-8 -0.78642,-0.41302 -1.31194,-1.08384 -2.5,-1.1 z"
           id="path5353"
           inkscape:connector-curvature="0"
           sodipodi:nodetypes="ccccc" />
      </g>
      <path
         sodipodi:nodetypes="cccc"
         inkscape:connector-curvature="0"
         id="path5359"
         d="m 65.73397,29.16504 c -1.809645,6.713315 1.01731,9.641649 5.4,11.299999 l 0.5,-0.8 c -7.712546,-3.787294 -5.2038,-7.063522 -5.9,-10.499999 z"
         style="fill:#ffffff;stroke:none;stroke-width:1px;stroke-linecap:butt;stroke-linejoin:miter;stroke-opacity:1" />
      <path
         sodipodi:nodetypes="cccccc"
         inkscape:connector-curvature="0"
         id="path5361"
         d="m 87.33398,33.465039 -2.40001,9 c -0.045,0.9349 0.22199,1.179635 0.5,1.4 1.78819,0.283176 3.08215,-0.03109 4.00001,-0.8 h -3.2 c -1.30001,-0.6 0.5,-5 1.1,-9.6 z"
         style="fill:#ffffff;stroke:none;stroke-width:1px;stroke-linecap:butt;stroke-linejoin:miter;stroke-opacity:1" />
      <path
         sodipodi:nodetypes="ccccccc"
         inkscape:connector-curvature="0"
         id="path5363"
         d="m 79.63397,28.56504 c -0.68176,-0.252758 -0.87046,0.286775 -1.2,0.6 0.0622,0.385834 -0.13002,0.560848 0.6,1.5 0.63484,0.221654 1.42189,0.04926 2.2,-0.1 0.84331,0.145013 1.30379,0.481437 1.8,0.8 -0.0628,-0.684154 -0.45126,-1.226866 -1,-1.7 z"
         style="fill:#ffffff;fill-opacity:1;stroke:none;stroke-width:1px;stroke-linecap:butt;stroke-linejoin:miter;stroke-opacity:1" />
      <path
         sodipodi:nodetypes="ccccc"
         inkscape:connector-curvature="0"
         id="path5365"
         d="m 80.03397,27.36504 c -0.82212,0.100251 -1.34347,0.435691 -1.7,0.9 0.31963,-0.0098 0.65496,-0.02748 1.1,-0.1 0.812,-0.717231 1.30759,-0.282359 1.9,-0.2 -0.34309,-0.230079 -0.76634,-0.433443 -1.3,-0.6 z"
         style="fill:#ffffff;stroke:none;stroke-width:1.00157;stroke-linecap:butt;stroke-linejoin:miter;stroke-miterlimit:4;stroke-dasharray:none;stroke-opacity:1" />
    </g>
  </g>
</svg>
