<?xml version="1.0" encoding="UTF-8" standalone="no"?>
<!-- Created with Inkscape (http://www.inkscape.org/) -->

<svg
   width="102.48945"
   height="118.522"
   viewBox="0 0 27.117 31.358947"
   version="1.1"
   id="svg1"
   xmlns="http://www.w3.org/2000/svg"
   xmlns:svg="http://www.w3.org/2000/svg">
  <defs
     id="defs1">
    <clipPath
       clipPathUnits="userSpaceOnUse"
       id="clipPath1296-0">
      <path
         d="M 0,2834.646 H 2834.646 V 0 H 0 Z"
         transform="translate(-389.24581,-1559.11)"
         id="path1296-3" />
    </clipPath>
  </defs>
  <g
     id="layer1">
    <g
       id="path1295-9"
       clip-path="url(#clipPath1296-0)"
       transform="matrix(0.35277776,0,0,-0.35277776,20.876275,5.6606492)">
      <path
         style="color:#000000;fill:#ffdb9d;stroke-miterlimit:10;-inkscape-stroke:none"
         d="m 0,0 -20.266,6.952 c -0.309,0.106 -0.643,0.106 -0.952,0 L -41.484,0 c -0.545,-0.187 -0.946,-0.679 -1.038,-1.274 l -9.381,-60.689 c -0.151,-0.981 0.569,-1.871 1.515,-1.871 h 29.646 29.647 c 0.945,0 1.666,0.89 1.514,1.871 L 1.038,-1.274 C 0.946,-0.679 0.546,-0.187 0,0"
         id="path3" />
      <path
         style="color:#000000;fill:#000000 icc-color(sRGB-IEC61966-2, 0.1, 0, 0, 0);stroke-miterlimit:10;-inkscape-stroke:none"
         d="m -50.388672,-64.259766 c -1.21256,0 -2.121377,1.141355 -1.933594,2.361329 l 9.38086,60.6894526 c 0.115091,0.74433851 0.619394,1.37082942 1.320312,1.61132815 l 20.265625,6.95117185 c 0.397911,0.1365003 0.828652,0.1365003 1.226563,0 L 0.13867187,0.40234375 C 0.8406563,0.16192051 1.3439644,-0.4651055 1.4589844,-1.2089844 L 10.839844,-61.898437 c 0.189092,-1.220395 -0.723705,-2.361329 -1.9355471,-2.361329 H -20.742187 Z m 0,0.851563 h 29.646485 29.6464839 c 0.6781563,0 1.2086571,0.639256 1.09375,1.380859 L 0.6171875,-1.3398437 c -0.0689799,0.44611989 -0.36584489,0.80392356 -0.75585937,0.93749995 L -20.404297,6.5507812 c -0.220088,0.0755 -0.455693,0.0755 -0.675781,0 l -20.265625,-6.95312495 c -0.38908,-0.1335009 -0.686951,-0.49183967 -0.755859,-0.93749995 l -9.38086,-60.6875003 c -0.114216,-0.742025 0.414312,-1.380859 1.09375,-1.380859 z"
         id="path4" />
    </g>
    <path
       style="font-size:8.46667px;font-family:Osaka;fill:#000000 icc-color(sRGB-IEC61966-2, 0.1, 0, 0, 0);stroke-width:0.352777"
       d="m 14.451554,12.268143 0.463021,-0.09922 q 0.06615,0.727604 0.09922,1.025261 l -0.463021,0.03307 q -0.03307,-0.363803 -0.09922,-0.959115 z m 0.661458,-0.06615 0.396876,-0.09922 q 0.03307,0.09922 0.264583,0.892969 l -0.429948,0.09922 q -0.09922,-0.297656 -0.231511,-0.892969 z m 0.926042,0.661458 -0.330729,-0.826823 0.396875,-0.132292 q 0.09922,0.198438 0.363803,0.793751 z m -4.200262,0.165365 v -0.79375 h -0.661458 v 0.79375 z m 0,-1.35599 V 11.04444 h -0.661458 v 0.628386 z m 0,-1.190625 V 9.8868922 h -0.661458 v 0.5953128 z m 0.628386,-3.9687518 -0.264583,0.727605 h 1.455209 v 1.256775 h -0.727605 v -0.661459 h -0.959115 q -0.264583,0.661459 -0.760677,1.455209 h 0.628385 l 0.363803,-0.992188 0.661458,0.231511 -0.297656,0.760677 h 1.058334 v 0.595313 h -1.091407 v 0.5953128 h 0.826823 v 0.562239 h -0.826823 v 0.628386 h 0.826823 v 0.56224 h -0.826823 v 0.79375 h 0.959115 q 0.06615,-0.132292 0.264583,-0.892969 l 0.496094,0.06615 -0.09922,0.595313 q -0.06615,0.165364 -0.132291,0.330729 -0.03307,0.165365 -0.09922,0.297656 l -0.297656,-0.06615 v 0.297657 h -2.447397 v 0.363802 h -0.69453 V 10.416059 L 10.119,10.812934 Q 9.8544163,10.31684 9.6890523,10.085329 10.714313,9.0269962 11.177334,7.8363702 H 10.68124 v 0.727605 H 9.9867083 v -1.322917 h 1.4552087 q 0.165365,-0.363802 0.297657,-0.926042 z m 3.638022,2.54662 v -0.463021 h -1.488282 v 0.463021 z m 0,-0.959115 v -0.429948 h -1.488282 v 0.429948 z m -0.363802,-1.752865 -0.264583,0.760677 h 1.389063 v 2.546616 h -2.24896 v 0.4630198 h 2.8112 v 0.595313 h -2.8112 v 0.496094 h 2.678908 q -0.03307,1.653646 -0.165365,2.050522 -0.09922,0.363802 -0.297656,0.529166 -0.297657,0.165365 -1.190626,0.264584 -0.03307,-0.330729 -0.198437,-0.694532 h 0.694531 q 0.165365,0 0.231511,-0.06615 0.06615,-0.231511 0.165364,-1.521355 H 13.922387 V 7.1087662 h 0.826823 q 0.06615,-0.198438 0.09922,-0.396875 0.06615,-0.231511 0.132292,-0.463021 z"
       id="text1624-8"
       aria-label="鶴" />
    <path
       style="color:#000000;fill:#000000 icc-color(sRGB-IEC61966-2, 0.1, 0, 0, 0);stroke-width:0.352778;stroke-miterlimit:10;-inkscape-stroke:none"
       d="M 13.382622,25.179966 V 17.179765 H 13.7354 v 8.000201 z"
       id="path1625-3" />
    <path
       style="color:#000000;fill:#000000 icc-color(sRGB-IEC61966-2, 0.1, 0, 0, 0);stroke-width:0.352778;stroke-miterlimit:10;-inkscape-stroke:none"
       d="m 16.259307,24.133156 -5.649956,-5.656847 0.249425,-0.249425 5.649956,5.656847 z"
       id="path1627-9" />
    <path
       style="color:#000000;fill:#000000 icc-color(sRGB-IEC61966-2, 0.1, 0, 0, 0);stroke-width:0.352778;stroke-miterlimit:10;-inkscape-stroke:none"
       d="m 10.858776,24.133133 -0.249425,-0.249425 5.649956,-5.656847 0.249425,0.249425 z"
       id="path1629-1" />
  </g>
</svg>
