<?xml version="1.0" encoding="UTF-8" standalone="no"?>
<!-- Created with Inkscape (http://www.inkscape.org/) -->

<svg
   width="27.116999mm"
   height="31.358999mm"
   viewBox="0 0 27.116999 31.358999"
   version="1.1"
   id="svg1"
   inkscape:version="1.3.1 (91b66b0783, 2023-11-16)"
   sodipodi:docname="Template.svg"
   inkscape:export-filename="FAIRY CZECH (Mine)\Final Tori/1Goose.svg"
   inkscape:export-xdpi="96"
   inkscape:export-ydpi="96"
   xmlns:inkscape="http://www.inkscape.org/namespaces/inkscape"
   xmlns:sodipodi="http://sodipodi.sourceforge.net/DTD/sodipodi-0.dtd"
   xmlns="http://www.w3.org/2000/svg"
   xmlns:svg="http://www.w3.org/2000/svg">
  <sodipodi:namedview
     id="namedview1"
     pagecolor="#ffffff"
     bordercolor="#999999"
     borderopacity="1"
     inkscape:showpageshadow="2"
     inkscape:pageopacity="0"
     inkscape:pagecheckerboard="0"
     inkscape:deskcolor="#d1d1d1"
     inkscape:document-units="mm"
     inkscape:zoom="2.932688"
     inkscape:cx="0"
     inkscape:cy="32.904966"
     inkscape:window-width="1920"
     inkscape:window-height="1009"
     inkscape:window-x="-8"
     inkscape:window-y="-8"
     inkscape:window-maximized="1"
     inkscape:current-layer="layer1" />
  <defs
     id="defs1">
    <clipPath
       clipPathUnits="userSpaceOnUse"
       id="clipPath1936-4-4-3">
      <path
         d="M 0,2834.646 H 2834.646 V 0 H 0 Z"
         transform="translate(-1029.0414,-1221.1642)"
         id="path1936-6-3-3" />
    </clipPath>
  </defs>
  <g
     inkscape:label="Layer 1"
     inkscape:groupmode="layer"
     id="layer1">
    <g
       id="path1935-0-3-2"
       clip-path="url(#clipPath1936-4-4-3)"
       transform="matrix(0.35277776,0,0,-0.35277776,21.579007,4.880325)">
      <path
         style="color:#000000;fill:#ffdb9d;stroke-miterlimit:10;-inkscape-stroke:none"
         d="m 0,0 -22.28,7.578 c -0.3,0.102 -0.625,0.102 -0.924,0 L -45.484,0 c -0.502,-0.171 -0.868,-0.604 -0.949,-1.125 l -10.308,-66.12 c -0.134,-0.859 0.535,-1.636 1.411,-1.636 h 32.588 32.588 c 0.875,0 1.545,0.777 1.41,1.636 L 0.948,-1.125 C 0.867,-0.604 0.502,-0.171 0,0"
         id="path20" />
      <path
         style="color:#000000;fill:#000000 icc-color(sRGB-IEC61966-2, 0.1, 0, 0, 0);stroke-miterlimit:10;-inkscape-stroke:none"
         d="m -55.330078,-69.519531 c -1.253142,0 -2.233871,1.136758 -2.041016,2.373047 L -47.0625,-1.0273437 c 0.117563,0.75617982 0.649544,1.38440708 1.373047,1.63085932 l 22.279297,7.57812498 c 0.432664,0.1475978 0.903024,0.1471904 1.335937,0 L 0.20507813,0.60351562 C 0.92882591,0.35698002 1.4606839,-0.27195127 1.578125,-1.0273437 L 11.886719,-67.146484 c 0.194405,-1.236997 -0.788443,-2.373047 -2.0410159,-2.373047 H -22.742187 Z m 0,1.27539 h 32.587891 32.5878901 c 0.4974249,0 0.8548909,0.419389 0.7792969,0.900391 L 0.31835938,-1.2226562 c -0.0445588,0.28660643 -0.2431863,0.52367652 -0.52343751,0.61914058 L -22.486328,6.9746094 c -0.166551,0.056162 -0.347012,0.056188 -0.511719,0 l -22.28125,-7.57812502 c -0.280496,-0.0955474 -0.479001,-0.33332155 -0.523437,-0.61914058 L -56.111328,-67.34375 c -0.07514,-0.481709 0.282394,-0.900391 0.78125,-0.900391 z"
         id="path21" />
    </g>
    <path
       d="m 10.811041,11.254802 q 0,1.752866 -0.595313,2.811199 L 9.686561,13.536835 q 0.56224,-0.793751 0.56224,-2.745054 V 6.8230298 h 3.340366 V 13.37147 q 0.198437,-0.56224 0.297656,-1.422136 l 0.463021,0.06615 q -0.03307,0.826823 -0.198437,1.653646 l -0.56224,-0.165364 q 0.03307,0.562239 -0.429948,0.562239 h -0.56224 l -0.198438,-0.727604 h 0.496094 q 0.132292,0 0.132292,-0.132292 V 7.4514155 h -2.215886 z m 1.984375,-3.0427091 v 0.5291669 h -0.595312 v 0.5291669 h 0.595312 V 9.7995935 H 12.200104 V 10.32876 h -0.56224 V 9.7995935 H 11.042551 V 9.2704267 h 0.595313 V 8.7412598 H 11.042551 V 8.2120929 h 0.595313 V 7.5837072 h 0.529167 q 0.264583,0.033073 0.03307,0.1984376 v 0.4299481 z m 2.215887,3.7372411 q 0.09922,0.760677 0.09922,1.521355 l -0.496093,0.06615 q 0,-0.760678 -0.06615,-1.521355 z m 1.190625,1.157553 q -0.132292,-0.661459 -0.330729,-1.256772 l 0.463021,-0.132292 q 0.198437,0.429949 0.330729,0.859897 V 11.618605 H 14.052188 V 7.1868321 h 0.826823 l 0.23151,-0.8929691 0.56224,0.1322917 q 0.33073,0.1322917 -0.03307,0.2315105 l -0.198437,0.5291669 h 1.422136 v 2.4804697 h -2.248959 v 0.4630212 h 2.811199 v 0.529167 h -2.811199 v 0.429948 h 2.71198 l -0.06615,1.852084 q -0.03307,1.058334 -0.628386,1.058334 h -0.661458 l -0.165365,-0.529167 h 0.529167 q 0.297656,0 0.330729,-0.56224 z m -0.727604,0.198437 q -0.09922,-0.694531 -0.264584,-1.35599 l 0.429948,-0.132292 q 0.231511,0.694532 0.33073,1.35599 z m 0.826823,-5.589325 h -1.686719 v 0.429948 h 1.686719 z m -4.729429,5.390888 h -0.463021 v -2.546616 h 1.521355 v 1.951303 h -1.058334 z m 0.595313,-1.12448 v -0.892969 h -0.595313 v 0.892969 z m 2.447397,-2.8442721 h 1.686719 v -0.463021 h -1.686719 z"
       id="text1936-5-7-1"
       style="-inkscape-font-specification:'Sans, Normal';fill:#ff0000;stroke-width:0.352999"
       aria-label="鵰" />
    <path
       style="color:#000000;fill:#ff0000;stroke-miterlimit:10;-inkscape-stroke:none"
       d="m -0.5,0 v 19.642578 h 1 V 0 Z"
       id="path1937-3-4-8"
       transform="matrix(0.35277776,0,0,-0.35277776,13.557396,25.109284)" />
    <path
       style="color:#000000;fill:#ff0000;stroke-miterlimit:10;-inkscape-stroke:none"
       d="m -2.5371094,-3.2441406 -2.8886718,2.89062497 0.7070312,0.70703126 2.1816406,-2.18359373 2.18359377,2.18359373 0.70703126,-0.70703126 z"
       id="path1941-8-2-3"
       transform="matrix(0.35277776,0,0,-0.35277776,14.45227,24.21441)" />
    <path
       style="color:#000000;fill:#ff0000;stroke-miterlimit:10;-inkscape-stroke:none"
       d="M -4.2246094,3.5097656 -18.109375,17.402344 -17.402344,18.109375 -3.5175781,4.2167969 Z"
       id="path1949-1-6-8"
       transform="matrix(0.35277776,0,0,-0.35277776,16.689402,23.811926)" />
    <path
       style="color:#000000;fill:#ff0000;stroke-miterlimit:10;-inkscape-stroke:none"
       d="m -13.541016,-14.244141 -0.707031,0.708985 13.89453137,13.88867163 0.70703126,-0.70703126 z"
       id="path1955-7-4-2"
       transform="matrix(0.35277776,0,0,-0.35277776,16.689402,17.548046)" />
    <path
       style="color:#000000;fill:#ff0000;stroke-miterlimit:10;-inkscape-stroke:none"
       d="M 3.0878906,-3.5878906 V -0.5 H 0 v 1 h 4.0878906 v -4.0878906 z"
       id="path1983-8-1-6"
       transform="matrix(0.35277776,0,0,-0.35277776,15.423873,17.548046)" />
    <path
       style="color:#000000;fill:#ff0000;stroke-miterlimit:10;-inkscape-stroke:none"
       d="m -14.173828,-0.5 v 1 H 0 v -1 z"
       id="path1829-8"
       transform="matrix(0.35277776,0,0,-0.35277776,16.055963,20.680027)" />
    <path
       style="color:#000000;fill:#ff0000;stroke-miterlimit:10;-inkscape-stroke:none"
       d="M 0.35351563,-0.35351563 -0.35351563,0.35351563 3.65625,4.3632812 4.3632812,3.65625 Z"
       id="path3069-9"
       transform="matrix(0.35277776,0,0,-0.35277776,9.5294592,24.706509)" />
    <path
       style="color:#000000;fill:#ff0000;stroke-miterlimit:10;-inkscape-stroke:none"
       d="M -0.35351563,-0.35351563 -4.3632812,3.65625 -3.65625,4.3632812 0.35351563,0.35351563 Z"
       id="path3073-0"
       transform="matrix(0.35277776,0,0,-0.35277776,17.582476,24.706509)" />
    <path
       style="color:#000000;fill:#ff0000;stroke-miterlimit:10;-inkscape-stroke:none"
       d="m -0.5,0 v 4.0878906 h 4.0878906 v -1 H 0.5 V 0 Z"
       id="path1951-7-2-2"
       transform="matrix(0.35277776,0,0,-0.35277776,10.425444,18.813521)" />
  </g>
</svg>
