<?xml version="1.0" encoding="UTF-8" standalone="no"?>
<!-- Created with Inkscape (http://www.inkscape.org/) -->

<svg
   width="27.116999mm"
   height="31.358999mm"
   viewBox="0 0 27.116999 31.358999"
   version="1.1"
   id="svg1"
   inkscape:version="1.3.1 (91b66b0783, 2023-11-16)"
   sodipodi:docname="Template.svg"
   inkscape:export-filename="FAIRY CZECH (Mine)\Final Tori\1Phoenix.svg"
   inkscape:export-xdpi="96"
   inkscape:export-ydpi="96"
   xmlns:inkscape="http://www.inkscape.org/namespaces/inkscape"
   xmlns:sodipodi="http://sodipodi.sourceforge.net/DTD/sodipodi-0.dtd"
   xmlns="http://www.w3.org/2000/svg"
   xmlns:svg="http://www.w3.org/2000/svg">
  <sodipodi:namedview
     id="namedview1"
     pagecolor="#ffffff"
     bordercolor="#999999"
     borderopacity="1"
     inkscape:showpageshadow="2"
     inkscape:pageopacity="0"
     inkscape:pagecheckerboard="0"
     inkscape:deskcolor="#d1d1d1"
     inkscape:document-units="mm"
     inkscape:zoom="2.932688"
     inkscape:cx="0"
     inkscape:cy="32.904966"
     inkscape:window-width="1920"
     inkscape:window-height="1009"
     inkscape:window-x="-8"
     inkscape:window-y="-8"
     inkscape:window-maximized="1"
     inkscape:current-layer="layer1" />
  <defs
     id="defs1">
    <clipPath
       clipPathUnits="userSpaceOnUse"
       id="clipPath1936-4-4-2">
      <path
         d="M 0,2834.646 H 2834.646 V 0 H 0 Z"
         transform="translate(-1029.0414,-1221.1642)"
         id="path1936-6-3" />
    </clipPath>
  </defs>
  <g
     inkscape:label="Layer 1"
     inkscape:groupmode="layer"
     id="layer1">
    <g
       id="path1935-0-3"
       clip-path="url(#clipPath1936-4-4-2)"
       transform="matrix(0.35277776,0,0,-0.35277776,21.579007,4.880325)">
      <path
         style="color:#000000;fill:#ffdb9d;stroke-miterlimit:10;-inkscape-stroke:none"
         d="m 0,0 -22.28,7.578 c -0.3,0.102 -0.625,0.102 -0.924,0 L -45.484,0 c -0.502,-0.171 -0.868,-0.604 -0.949,-1.125 l -10.308,-66.12 c -0.134,-0.859 0.535,-1.636 1.411,-1.636 h 32.588 32.588 c 0.875,0 1.545,0.777 1.41,1.636 L 0.948,-1.125 C 0.867,-0.604 0.502,-0.171 0,0"
         id="path2" />
      <path
         style="color:#000000;fill:#000000 icc-color(sRGB-IEC61966-2, 0.1, 0, 0, 0);stroke-miterlimit:10;-inkscape-stroke:none"
         d="m -55.330078,-69.519531 c -1.253142,0 -2.233871,1.136758 -2.041016,2.373047 L -47.0625,-1.0273437 c 0.117563,0.75617982 0.649544,1.38440708 1.373047,1.63085932 l 22.279297,7.57812498 c 0.432664,0.1475978 0.903024,0.1471904 1.335937,0 L 0.20507813,0.60351562 C 0.92882591,0.35698002 1.4606839,-0.27195127 1.578125,-1.0273437 L 11.886719,-67.146484 c 0.194405,-1.236997 -0.788443,-2.373047 -2.0410159,-2.373047 H -22.742187 Z m 0,1.27539 h 32.587891 32.5878901 c 0.4974249,0 0.8548909,0.419389 0.7792969,0.900391 L 0.31835938,-1.2226562 c -0.0445588,0.28660643 -0.2431863,0.52367652 -0.52343751,0.61914058 L -22.486328,6.9746094 c -0.166551,0.056162 -0.347012,0.056188 -0.511719,0 l -22.28125,-7.57812502 c -0.280496,-0.0955474 -0.479001,-0.33332155 -0.523437,-0.61914058 L -56.111328,-67.34375 c -0.07514,-0.481709 0.282394,-0.900391 0.78125,-0.900391 z"
         id="path3" />
    </g>
    <path
       style="fill:#000000 icc-color(sRGB-IEC61966-2, 0.1, 0, 0, 0);stroke-width:0.352777"
       d="m 12.13389,13.222444 0.529167,-0.165365 q 0.06615,0.06615 0.297656,0.628386 l -0.562239,0.198438 Q 12.166963,13.28859 12.13389,13.222444 Z m 1.256771,0 0.429948,-0.198438 q 0.198438,0.198438 0.396876,0.56224 l -0.463021,0.231511 Q 13.688318,13.685465 13.589099,13.5201 13.48988,13.387809 13.390661,13.222444 Z m -2.248959,-0.297656 0.496094,0.23151 q -0.165365,0.429948 -0.396875,0.826823 l -0.496094,-0.264583 q 0.264583,-0.429948 0.396875,-0.79375 z m 4.564064,-1.455209 v -0.231511 h -3.406511 v 0.231511 z m 0,-0.529167 v -0.231511 h -3.406511 v 0.231511 z M 14.812797,9.6505676 V 9.3198383 h -1.091406 v 0.3307293 z m 0,-0.5953127 V 8.7575985 h -1.091406 v 0.2976564 z m 0,-0.5953128 V 8.1292128 H 13.721391 V 8.4599421 Z M 12.166963,7.2693167 h -1.12448 v 0.6283856 0.4630211 q 0.661459,-0.496094 1.12448,-1.0914067 z m 2.745053,0.4960939 0.297657,-0.4960939 h -1.223699 l 0.198438,0.1653646 -0.297657,0.3307293 z M 13.48988,6.8062957 V 6.2771288 h 0.760678 v 0.5291669 h 3.108855 v 0.463021 h -1.852084 l 0.330729,0.1653646 -0.23151,0.3307293 h 1.521354 v 0.3638022 h -1.620573 v 0.3307293 h 1.35599 v 0.2976564 h -1.35599 v 0.2976564 h 1.35599 v 0.2645834 h -1.35599 v 0.3307293 h 1.852084 V 10.01437 h -3.108855 l -0.09922,0.297656 h 2.215886 v 1.488282 h -4.06797 v 0.264583 h 5.126304 v 0.297657 h -5.126304 v 0.297656 h 4.894793 q -0.09922,0.926042 -0.264583,1.157553 -0.231511,0.23151 -1.025261,0.264583 -0.09922,-0.363802 -0.297656,-0.661458 h 0.529167 q 0.198437,0 0.23151,-0.03307 0.06615,-0.06615 0.09922,-0.429948 h -1.455209 q 0.09922,0.09922 0.198438,0.23151 0.09922,0.165365 0.132291,0.231511 0.06615,0.09922 0.09922,0.132291 l -0.463021,0.231511 -0.429948,-0.56224 0.429948,-0.264583 H 11.67087 v -2.645835 h 1.785938 l 0.09922,-0.297656 H 13.159151 V 8.5591609 L 12.762276,8.9560361 Q 12.729203,8.7906714 12.464619,8.3607234 12.729203,8.1622858 13.522953,7.2693167 h -0.992188 l 0.264584,0.2645834 q -0.09922,0.099219 -0.198438,0.2315105 -0.09922,0.1322917 -0.264583,0.3307293 V 10.080516 H 11.703942 V 8.6914527 q -0.297656,0.2976563 -0.463021,0.3968751 -0.06615,-0.1653646 -0.198438,-0.4299481 0,1.7528653 -0.06615,2.4804693 -0.03307,0.628386 -0.231511,1.322918 -0.132292,0.529167 -0.529167,1.35599 l -0.5291667,-0.56224 q 0.1984375,-0.463021 0.3968747,-1.025261 0.165365,-0.463021 0.198438,-0.992188 0.06615,-0.727604 0.06615,-1.190625 V 6.8062957 Z"
       id="text1936-5-7"
       aria-label="鷹" />
    <path
       style="color:#000000;fill:#000000 icc-color(sRGB-IEC61966-2, 0.1, 0, 0, 0);stroke-miterlimit:10;-inkscape-stroke:none"
       d="m -0.5,12.554688 v 12.55664 h 1 v -12.55664 z"
       id="path1937-3-4"
       transform="matrix(0.35277776,0,0,-0.35277776,13.557396,25.109278)" />
    <path
       style="color:#000000;fill:#000000 icc-color(sRGB-IEC61966-2, 0.1, 0, 0, 0);stroke-miterlimit:10;-inkscape-stroke:none"
       d="m -25.111328,-0.5 v 1 H 0 v -1 z"
       id="path1943-7-1"
       transform="matrix(0.35277776,0,0,-0.35277776,17.986707,20.679995)" />
    <path
       style="color:#000000;fill:#000000 icc-color(sRGB-IEC61966-2, 0.1, 0, 0, 0);stroke-miterlimit:10;-inkscape-stroke:none"
       d="M -0.35351563,-0.35351563 -18.109375,17.402344 -17.402344,18.109375 0.35351563,0.35351563 Z"
       id="path1949-1-6"
       transform="matrix(0.35277776,0,0,-0.35277776,16.689402,23.811921)" />
    <path
       style="color:#000000;fill:#000000 icc-color(sRGB-IEC61966-2, 0.1, 0, 0, 0);stroke-miterlimit:10;-inkscape-stroke:none"
       d="m -17.402344,-18.109375 -0.707031,0.707031 17.75585937,17.75585963 0.70703126,-0.70703126 z"
       id="path1955-7-4"
       transform="matrix(0.35277776,0,0,-0.35277776,16.689402,17.548045)" />
  </g>
</svg>
