<?xml version="1.0" encoding="UTF-8" standalone="no"?>
<!-- Created with Inkscape (http://www.inkscape.org/) -->

<svg
   width="27.116999mm"
   height="31.358999mm"
   viewBox="0 0 27.116999 31.358999"
   version="1.1"
   id="svg1"
   inkscape:version="1.3.1 (91b66b0783, 2023-11-16)"
   sodipodi:docname="Template.svg"
   inkscape:export-filename="FAIRY CZECH (Mine)\Final Tori/1Swallow.svg"
   inkscape:export-xdpi="96"
   inkscape:export-ydpi="96"
   xmlns:inkscape="http://www.inkscape.org/namespaces/inkscape"
   xmlns:sodipodi="http://sodipodi.sourceforge.net/DTD/sodipodi-0.dtd"
   xmlns="http://www.w3.org/2000/svg"
   xmlns:svg="http://www.w3.org/2000/svg">
  <sodipodi:namedview
     id="namedview1"
     pagecolor="#ffffff"
     bordercolor="#999999"
     borderopacity="1"
     inkscape:showpageshadow="2"
     inkscape:pageopacity="0"
     inkscape:pagecheckerboard="0"
     inkscape:deskcolor="#d1d1d1"
     inkscape:document-units="mm"
     inkscape:zoom="2.932688"
     inkscape:cx="0"
     inkscape:cy="32.904966"
     inkscape:window-width="1920"
     inkscape:window-height="1009"
     inkscape:window-x="-8"
     inkscape:window-y="-8"
     inkscape:window-maximized="1"
     inkscape:current-layer="layer1" />
  <defs
     id="defs1">
    <clipPath
       clipPathUnits="userSpaceOnUse"
       id="clipPath1460-2-7-9">
      <path
         d="M 0,2834.646 H 2834.646 V 0 H 0 Z"
         transform="translate(-1094.0025,-1215.6335)"
         id="path1460-8-7-0" />
    </clipPath>
    <clipPath
       clipPathUnits="userSpaceOnUse"
       id="clipPath2004-1-8-9-8">
      <path
         d="M 0,2834.646 H 2834.646 V 0 H 0 Z"
         transform="translate(-1148.7975,-1175.6119)"
         id="path2004-0-0-1-5" />
    </clipPath>
    <clipPath
       clipPathUnits="userSpaceOnUse"
       id="clipPath2004-1-8-9-8-2-0">
      <path
         d="M 0,2834.646 H 2834.646 V 0 H 0 Z"
         transform="translate(-1148.7975,-1175.6119)"
         id="path2004-0-0-1-5-8-8" />
    </clipPath>
    <clipPath
       clipPathUnits="userSpaceOnUse"
       id="clipPath2004-1-5-4-7">
      <path
         d="M 0,2834.646 H 2834.646 V 0 H 0 Z"
         transform="translate(-1148.7975,-1175.6119)"
         id="path2004-0-4-7-0" />
    </clipPath>
    <clipPath
       clipPathUnits="userSpaceOnUse"
       id="clipPath2004-1-8-9-8-2-0-3">
      <path
         d="M 0,2834.646 H 2834.646 V 0 H 0 Z"
         transform="translate(-1148.7975,-1175.6119)"
         id="path2004-0-0-1-5-8-8-0" />
    </clipPath>
  </defs>
  <g
     inkscape:label="Layer 1"
     inkscape:groupmode="layer"
     id="layer1">
    <g
       id="path1459-6-8-6"
       clip-path="url(#clipPath1460-2-7-9)"
       transform="matrix(0.35277776,0,0,-0.35277776,19.49572,6.8317078)">
      <path
         style="color:#000000;fill:#ffdb9d;stroke-miterlimit:10;-inkscape-stroke:none"
         d="m 0,0 -16.217,5.989 c -0.397,0.146 -0.844,0.146 -1.241,0 L -33.674,0 c -0.531,-0.196 -0.903,-0.627 -0.975,-1.131 l -7.687,-53.534 c -0.122,-0.848 0.627,-1.598 1.595,-1.598 h 23.904 23.903 c 0.969,0 1.718,0.75 1.596,1.598 L 0.975,-1.131 C 0.903,-0.627 0.531,-0.196 0,0"
         id="path19" />
      <path
         style="color:#000000;fill:#000000 icc-color(sRGB-IEC61966-2, 0.1, 0, 0, 0);stroke-miterlimit:10;-inkscape-stroke:none"
         d="m -40.740234,-56.900391 c -1.297286,0 -2.408479,1.061709 -2.226563,2.326172 l 7.6875,53.5332034 c 0.10828,0.75795563 0.659689,1.37103541 1.384766,1.63867185 l 16.216797,5.99023435 c 0.542489,0.199505 1.139151,0.199505 1.68164,0 L 0.22070313,0.59765625 C 0.94577939,0.33001981 1.4971894,-0.28305997 1.6054687,-1.0410156 L 9.2929688,-54.574219 c 0.1819156,-1.264463 -0.9286165,-2.326172 -2.2265626,-2.326172 H -16.837891 Z m 0,1.275391 h 23.902343 23.9042972 c 0.640052,0 1.0269279,0.437605 0.9648438,0.869141 l -7.6875,53.5351559 c -0.0357205,0.25004331 -0.22753045,0.49868368 -0.56445313,0.62304685 L -16.4375,5.390625 c -0.250896,0.092269 -0.547707,0.091819 -0.798828,0 h -0.002 l -16.214844,-5.98828125 c -0.336923,-0.12436317 -0.528733,-0.37300354 -0.564453,-0.62304685 l -7.6875,-53.5351559 c -0.06208,-0.431536 0.326131,-0.869141 0.964844,-0.869141 z"
         id="path20" />
    </g>
    <path
       style="fill:#ff0000;stroke-width:0.353999"
       d="m 13.927286,13.292587 0.396876,-0.06615 q 0.132291,0.661459 0.132291,1.025261 l -0.463021,0.03307 q 0,-0.132292 -0.06615,-0.992188 z m -0.727604,-0.132292 0.496094,0.09922 q -0.03307,0.264583 -0.132292,0.595313 -0.09922,0.330729 -0.198437,0.595312 l -0.496094,-0.198437 q 0.132291,-0.363802 0.330729,-1.091407 z m 1.488282,0.09922 0.429948,-0.132292 0.264583,0.859896 -0.429948,0.09922 Q 14.820256,13.55717 14.687964,13.259514 Z m 0.79375,-0.09922 0.363802,-0.132292 q 0.132292,0.198438 0.363803,0.760678 l -0.396876,0.165364 q -0.264583,-0.661458 -0.330729,-0.79375 z m 0.496094,-2.414324 v -0.396875 h -1.852084 v 0.396875 z m 0,-0.859896 V 9.4561269 H 14.125724 V 9.886075 Z M 12.604369,8.2985744 h -1.488282 v 0.8929691 1.9843755 q 0.859897,-1.2567711 1.488282,-2.8773446 z m -2.215886,0.8268232 0.03307,-1.5213548 h 6.879169 V 8.2985744 H 14.98562 l 0.429948,0.1653646 -0.23151,0.496094 h 1.488282 v 2.215886 h -2.546616 v 0.429948 h 3.340366 v 0.463021 h -3.340366 v 0.363803 h 3.141928 l -0.09922,1.521354 q -0.06615,0.628386 -0.264584,0.760678 -0.23151,0.198437 -0.959115,0.198437 -0.03307,-0.09922 -0.03307,-0.23151 l -0.132291,-0.396875 h 0.529166 q 0.09922,0 0.132292,-0.09922 0.03307,-0.03307 0.132292,-1.256771 H 13.431193 V 8.960033 h 1.091406 L 14.75411,8.2985744 h -1.984376 l 0.529167,0.2976563 -0.165365,0.3638023 q -0.132292,0.2645834 -0.595313,1.256771 v 4.663283 h -0.661458 v -3.50573 l -0.496094,0.760677 q -0.09922,-0.297656 -0.264584,-0.595313 -0.09922,1.984376 -0.694531,3.208075 -0.231511,-0.264584 -0.6283858,-0.496094 0.3638018,-0.892969 0.4630208,-1.521355 0.165365,-0.926042 0.165365,-2.116668 z"
       id="text1462-1-6-4"
       transform="scale(0.99587063,1.0041465)"
       aria-label="鴈" />
    <g
       id="path2003-0-9-2-6"
       clip-path="url(#clipPath2004-1-8-9-8)"
       transform="matrix(0.52949776,0,0,-0.52275432,13.961589,24.08093)">
      <path
         style="color:#000000;fill:#ff0000;fill-opacity:0;stroke-miterlimit:10;-inkscape-stroke:none"
         d="m 0,0 c -0.423,-0.423 -1.109,-0.423 -1.532,0 -0.423,0.423 -0.423,1.109 0,1.532 0.423,0.423 1.109,0.423 1.532,0 C 0.423,1.109 0.423,0.423 0,0 Z"
         id="path17" />
      <path
         style="color:#000000;fill:#ff0000;stroke-miterlimit:10;-inkscape-stroke:none"
         d="m -0.765625,-0.65039062 c -0.3637456,0 -0.7283285,0.13848477 -1.0039062,0.41406249 -0.5511555,0.55115546 -0.5511555,1.45470393 0,2.00585933 0.5511554,0.5511555 1.45470387,0.5511555 2.00585933,0 0.55115545,-0.5511554 0.55115545,-1.45470387 0,-2.00585933 C -0.0392496,-0.51190585 -0.4018794,-0.65039062 -0.765625,-0.65039062 Z m -0.5292969,0.88671875 c 0.2948437,-0.2948437 0.76375008,-0.2948437 1.05859377,0 0.2948437,0.29484369 0.2948437,0.76375007 0,1.05859377 -0.29484369,0.2948437 -0.76375007,0.2948437 -1.05859377,0 -0.2948437,-0.2948437 -0.2948437,-0.76375008 0,-1.05859377 z"
         id="path18" />
    </g>
    <g
       id="path2003-0-9-2-6-3-8"
       clip-path="url(#clipPath2004-1-8-9-8-2-0)"
       transform="matrix(0.37441145,0.37441145,0.36964313,-0.36964313,16.388083,17.422)">
      <path
         style="color:#000000;fill:#ff0000;fill-opacity:0;stroke-miterlimit:10;-inkscape-stroke:none"
         d="m 0,0 c -0.423,-0.423 -1.109,-0.423 -1.532,0 -0.423,0.423 -0.423,1.109 0,1.532 0.423,0.423 1.109,0.423 1.532,0 C 0.423,1.109 0.423,0.423 0,0 Z"
         id="path15" />
      <path
         style="color:#000000;fill:#ff0000;stroke-miterlimit:10;-inkscape-stroke:none"
         d="m -0.765625,-0.65039062 c -0.3637456,0 -0.7283285,0.13848477 -1.0039062,0.41406249 -0.5511555,0.55115546 -0.5511555,1.45470393 0,2.00585933 0.5511554,0.5511555 1.45470387,0.5511555 2.00585933,0 0.55115545,-0.5511554 0.55115545,-1.45470387 0,-2.00585933 C -0.0392496,-0.51190585 -0.4018794,-0.65039062 -0.765625,-0.65039062 Z m -0.5292969,0.88671875 c 0.2948437,-0.2948437 0.76375008,-0.2948437 1.05859377,0 0.2948437,0.29484369 0.2948437,0.76375007 0,1.05859377 -0.29484369,0.2948437 -0.76375007,0.2948437 -1.05859377,0 -0.2948437,-0.2948437 -0.2948437,-0.76375008 0,-1.05859377 z"
         id="path16" />
    </g>
    <g
       id="path2003-0-5-7-5"
       clip-path="url(#clipPath2004-1-5-4-7)"
       transform="matrix(0.24945155,-0.24945155,-0.24945155,-0.24945155,13.938147,19.680589)">
      <path
         style="color:#000000;fill:#ff0006;stroke-miterlimit:10;-inkscape-stroke:none"
         d="m 0,0 c -0.423,-0.423 -1.109,-0.423 -1.532,0 -0.423,0.423 -0.423,1.109 0,1.532 0.423,0.423 1.109,0.423 1.532,0 C 0.423,1.109 0.423,0.423 0,0 Z"
         id="path13" />
      <path
         style="color:#000000;fill:#ff0000;stroke-miterlimit:10;-inkscape-stroke:none"
         d="m -0.765625,-0.81445313 c -0.406245,0 -0.8120784,0.15387531 -1.1191406,0.4609375 -0.6141244,0.61412439 -0.6141244,1.62415683 0,2.23828123 0.6141244,0.6141244 1.62415684,0.6141244 2.23828123,0 0.61412438,-0.6141244 0.61412438,-1.62415684 0,-2.23828123 -0.3070622,-0.30706219 -0.71289559,-0.4609375 -1.11914063,-0.4609375 z m -0.4121094,1.16796876 c 0.23187479,-0.23187477 0.59234401,-0.23187477 0.82421877,0 0.23187477,0.23187476 0.23187477,0.59234398 0,0.82421877 -0.23187476,0.2318747 -0.59234398,0.2318747 -0.82421877,0 -0.2318747,-0.23187479 -0.2318747,-0.59234401 0,-0.82421877 z"
         id="path14" />
    </g>
    <g
       id="path2003-0-9-2-6-3-8-6"
       clip-path="url(#clipPath2004-1-8-9-8-2-0-3)"
       transform="matrix(0.37441145,-0.37441145,-0.36964313,-0.36964313,11.297499,16.84841)">
      <path
         style="color:#000000;fill:#ff0000;fill-opacity:0;stroke-miterlimit:10;-inkscape-stroke:none"
         d="m 0,0 c -0.423,-0.423 -1.109,-0.423 -1.532,0 -0.423,0.423 -0.423,1.109 0,1.532 0.423,0.423 1.109,0.423 1.532,0 C 0.423,1.109 0.423,0.423 0,0 Z"
         id="path11" />
      <path
         style="color:#000000;fill:#ff0000;stroke-miterlimit:10;-inkscape-stroke:none"
         d="m -0.765625,-0.65039062 c -0.3637456,0 -0.7283285,0.13848477 -1.0039062,0.41406249 -0.5511555,0.55115546 -0.5511555,1.45470393 0,2.00585933 0.5511554,0.5511555 1.45470387,0.5511555 2.00585933,0 0.55115545,-0.5511554 0.55115545,-1.45470387 0,-2.00585933 C -0.0392496,-0.51190585 -0.4018794,-0.65039062 -0.765625,-0.65039062 Z m -0.5292969,0.88671875 c 0.2948437,-0.2948437 0.76375008,-0.2948437 1.05859377,0 0.2948437,0.29484369 0.2948437,0.76375007 0,1.05859377 -0.29484369,0.2948437 -0.76375007,0.2948437 -1.05859377,0 -0.2948437,-0.2948437 -0.2948437,-0.76375008 0,-1.05859377 z"
         id="path12" />
    </g>
  </g>
</svg>
