<?xml version="1.0" encoding="UTF-8" standalone="no"?>
<!-- Created with Inkscape (http://www.inkscape.org/) -->

<svg
   width="27.116999mm"
   height="31.358999mm"
   viewBox="0 0 27.116999 31.358999"
   version="1.1"
   id="svg1"
   xmlns:xlink="http://www.w3.org/1999/xlink"
   xmlns="http://www.w3.org/2000/svg"
   xmlns:svg="http://www.w3.org/2000/svg">
  <defs
     id="defs1">
    <linearGradient
       id="linearGradient22">
      <stop
         style="stop-color:#ffdba6;stop-opacity:1;"
         offset="0"
         id="stop21" />
      <stop
         style="stop-color:#f2c478;stop-opacity:1;"
         offset="1"
         id="stop22" />
    </linearGradient>
    <linearGradient
       xlink:href="#linearGradient22"
       id="linearGradient2"
       x1="-1964.6346"
       y1="699.50958"
       x2="-1964.6346"
       y2="635.44604"
       gradientUnits="userSpaceOnUse"
       gradientTransform="translate(1974.1602,-692.55943)" />
    <clipPath
       clipPathUnits="userSpaceOnUse"
       id="clipPath1460-2-7-9">
      <path
         d="M 0,2834.646 H 2834.646 V 0 H 0 Z"
         transform="translate(-1094.0025,-1215.6335)"
         id="path1460-8-7-0" />
    </clipPath>
    <clipPath
       clipPathUnits="userSpaceOnUse"
       id="clipPath2004-1-8-9-8">
      <path
         d="M 0,2834.646 H 2834.646 V 0 H 0 Z"
         transform="translate(-1148.7975,-1175.6119)"
         id="path2004-0-0-1-5" />
    </clipPath>
    <clipPath
       clipPathUnits="userSpaceOnUse"
       id="clipPath2004-1-8-9-8-2-0">
      <path
         d="M 0,2834.646 H 2834.646 V 0 H 0 Z"
         transform="translate(-1148.7975,-1175.6119)"
         id="path2004-0-0-1-5-8-8" />
    </clipPath>
    <clipPath
       clipPathUnits="userSpaceOnUse"
       id="clipPath2004-1-5-4-7">
      <path
         d="M 0,2834.646 H 2834.646 V 0 H 0 Z"
         transform="translate(-1148.7975,-1175.6119)"
         id="path2004-0-4-7-0" />
    </clipPath>
    <clipPath
       clipPathUnits="userSpaceOnUse"
       id="clipPath2004-1-8-9-8-2-0-3">
      <path
         d="M 0,2834.646 H 2834.646 V 0 H 0 Z"
         transform="translate(-1148.7975,-1175.6119)"
         id="path2004-0-0-1-5-8-8-0" />
    </clipPath>
  </defs>
  <g
     id="layer1">
    <g
       id="path1459-6-8-6"
       clip-path="url(#clipPath1460-2-7-9)"
       transform="matrix(0.35277776,0,0,-0.35277776,19.49972,6.8317638)">
      <path
         style="color:#000000;fill:url(#linearGradient2);stroke-miterlimit:10;-inkscape-stroke:none"
         d="m 0,0 -16.217,5.989 c -0.397,0.146 -0.844,0.146 -1.241,0 L -33.674,0 c -0.531,-0.196 -0.903,-0.627 -0.975,-1.131 l -7.687,-53.534 c -0.122,-0.848 0.627,-1.598 1.595,-1.598 h 23.904 23.903 c 0.969,0 1.718,0.75 1.596,1.598 L 0.975,-1.131 C 0.903,-0.627 0.531,-0.196 0,0"
         id="path17" />
      <path
         style="color:#000000;fill:#4d3608;stroke-miterlimit:10;-inkscape-stroke:none"
         d="m -40.740234,-57.113281 c -1.406573,0 -2.637944,1.165724 -2.4375,2.568359 l 7.6875,53.5351564 c 0.120395,0.84276505 0.731595,1.5150809 1.521484,1.8066406 l 16.216797,5.9902344 c 0.591076,0.2173731 1.237049,0.2173731 1.828125,0 L 0.29492188,0.796875 C 1.0848107,0.5053153 1.6960112,-0.16700055 1.8164062,-1.0097656 L 9.5039063,-54.542969 C 9.705831,-55.946511 8.4742052,-57.113281 7.0664062,-57.113281 H -16.837891 Z m 0,1.701172 h 23.902343 23.9042972 c 0.5301992,0 0.7959813,0.334497 0.7539063,0.626953 l -7.6875,53.5332029 c -0.0236048,0.1652339 -0.15562423,0.3546382 -0.42773438,0.4550781 L -16.511719,5.1914062 c -0.202585,0.07396 -0.450026,0.074404 -0.652343,0 L -33.378906,-0.796875 c -0.27211,-0.1004399 -0.40413,-0.2898442 -0.427735,-0.4550781 l -7.6875,-53.5332029 c -0.04208,-0.292456 0.225161,-0.626953 0.753907,-0.626953 z"
         id="path18" />
    </g>
    <path
       style="fill:#ff0000;stroke-width:0.353999"
       d="m 13.912737,13.295919 0.395237,-0.06587 q 0.131745,0.658728 0.131745,1.021028 l -0.461109,0.03294 q 0,-0.131746 -0.06587,-0.988092 z m -0.724601,-0.131746 0.494046,0.09881 q -0.03294,0.263492 -0.131745,0.592856 -0.09881,0.329364 -0.197619,0.592855 l -0.494046,-0.197619 q 0.131746,-0.3623 0.329364,-1.086901 z m 1.482138,0.09881 0.428174,-0.131745 0.263491,0.856346 -0.428173,0.09881 Q 14.80202,13.55941 14.670274,13.262982 Z m 0.790474,-0.09881 0.3623,-0.131746 q 0.131746,0.197619 0.362301,0.757538 l -0.395237,0.164682 q -0.263491,-0.658728 -0.329364,-0.790474 z m 0.494046,-2.404358 v -0.395236 h -1.844439 v 0.395236 z m 0,-0.8563461 V 9.4752956 H 14.110355 V 9.9034689 Z M 12.595281,8.3225215 h -1.482138 v 0.8892829 1.9761846 q 0.856346,-1.2515837 1.482138,-2.8654675 z m -2.206739,0.8234101 0.03294,-1.5150747 h 6.850772 v 0.6916646 h -2.305548 l 0.428173,0.164682 -0.230555,0.4940461 h 1.482139 v 2.2067394 h -2.536104 v 0.428173 h 3.326577 v 0.46111 h -3.326577 v 0.3623 h 3.128959 l -0.09881,1.515075 q -0.06587,0.625791 -0.263492,0.757537 -0.230554,0.197619 -0.955155,0.197619 -0.03294,-0.09881 -0.03294,-0.230555 l -0.131745,-0.395237 h 0.526982 q 0.09881,0 0.131746,-0.09881 0.03294,-0.03294 0.131745,-1.251584 H 13.418691 V 8.9812496 h 1.086901 l 0.230555,-0.6587281 h -1.976184 l 0.526982,0.2964276 -0.164682,0.3623005 q -0.131745,0.2634912 -0.592855,1.2515834 v 4.644033 H 11.87068 v -3.491259 l -0.494046,0.757537 q -0.09881,-0.296427 -0.263491,-0.592855 -0.09881,1.976185 -0.691665,3.194832 -0.230555,-0.263492 -0.6257917,-0.494047 0.3623007,-0.889283 0.4611097,-1.515074 0.164682,-0.92222 0.164682,-2.10793 z"
       id="text1462-1-6-4"
       aria-label="鴈"
       transform="scale(0.99587063,1.0041465)" />
    <g
       id="path2003-0-9-2-6"
       clip-path="url(#clipPath2004-1-8-9-8)"
       transform="matrix(0.52949776,0,0,-0.52275432,13.965589,24.080986)">
      <path
         style="color:#000000;fill:#ff0000;fill-opacity:0;stroke-miterlimit:10;-inkscape-stroke:none"
         d="m 0,0 c -0.423,-0.423 -1.109,-0.423 -1.532,0 -0.423,0.423 -0.423,1.109 0,1.532 0.423,0.423 1.109,0.423 1.532,0 C 0.423,1.109 0.423,0.423 0,0 Z"
         id="path19" />
      <path
         style="color:#000000;fill:#ff0000;stroke-miterlimit:10;-inkscape-stroke:none"
         d="m -0.765625,-0.7421875 c -0.3875828,0 -0.7751226,0.14621633 -1.0683594,0.43945312 -0.5864736,0.5864736 -0.5864736,1.55024518 0,2.13671878 0.5864736,0.5864736 1.55024518,0.5864736 2.13671878,0 0.58647359,-0.5864736 0.58647359,-1.55024518 0,-2.13671878 C 0.00949758,-0.59597117 -0.37804223,-0.7421875 -0.765625,-0.7421875 Z m -0.4648437,1.04492188 c 0.25952551,-0.25952556 0.66820877,-0.25952556 0.92773432,0 0.25952556,0.25952555 0.25952556,0.66820881 0,0.92773432 -0.25952555,0.2595256 -0.66820881,0.2595256 -0.92773432,0 -0.2595256,-0.25952551 -0.2595256,-0.66820877 0,-0.92773432 z"
         id="path20" />
    </g>
    <g
       id="path2003-0-9-2-6-3-8"
       clip-path="url(#clipPath2004-1-8-9-8-2-0)"
       transform="matrix(0.37441145,0.37441145,0.36964313,-0.36964313,16.392083,17.422056)">
      <path
         style="color:#000000;fill:#ff0000;fill-opacity:0;stroke-miterlimit:10;-inkscape-stroke:none"
         d="m 0,0 c -0.423,-0.423 -1.109,-0.423 -1.532,0 -0.423,0.423 -0.423,1.109 0,1.532 0.423,0.423 1.109,0.423 1.532,0 C 0.423,1.109 0.423,0.423 0,0 Z"
         id="path21" />
      <path
         style="color:#000000;fill:#ff0000;stroke-miterlimit:10;-inkscape-stroke:none"
         d="m -0.765625,-0.7421875 c -0.3875828,0 -0.7751226,0.14621633 -1.0683594,0.43945312 -0.5864736,0.5864736 -0.5864736,1.55024518 0,2.13671878 0.5864736,0.5864736 1.55024518,0.5864736 2.13671878,0 0.58647359,-0.5864736 0.58647359,-1.55024518 0,-2.13671878 C 0.00949758,-0.59597117 -0.37804223,-0.7421875 -0.765625,-0.7421875 Z m -0.4648437,1.04492188 c 0.25952551,-0.25952556 0.66820877,-0.25952556 0.92773432,0 0.25952556,0.25952555 0.25952556,0.66820881 0,0.92773432 -0.25952555,0.2595256 -0.66820881,0.2595256 -0.92773432,0 -0.2595256,-0.25952551 -0.2595256,-0.66820877 0,-0.92773432 z"
         id="path22" />
    </g>
    <g
       id="path2003-0-5-7-5"
       clip-path="url(#clipPath2004-1-5-4-7)"
       transform="matrix(0.24945155,-0.24945155,-0.24945155,-0.24945155,13.942147,19.680645)">
      <path
         style="color:#000000;fill:#ff0006;stroke-miterlimit:10;-inkscape-stroke:none"
         d="m 0,0 c -0.423,-0.423 -1.109,-0.423 -1.532,0 -0.423,0.423 -0.423,1.109 0,1.532 0.423,0.423 1.109,0.423 1.532,0 C 0.423,1.109 0.423,0.423 0,0 Z"
         id="path23" />
      <path
         style="color:#000000;fill:#ff0000;stroke-miterlimit:10;-inkscape-stroke:none"
         d="m -0.765625,-0.95117188 c -0.4417949,0 -0.8833986,0.16660177 -1.2167969,0.5 -0.6667964,0.66679647 -0.6667964,1.76679728 0,2.43359378 0.6667965,0.6667964 1.76679731,0.6667964 2.43359378,0 0.66679642,-0.6667965 0.66679642,-1.76679731 0,-2.43359378 -0.33339824,-0.33339823 -0.77500203,-0.5 -1.21679688,-0.5 z m -0.3144531,1.40234376 c 0.17920267,-0.1792027 0.44970353,-0.1792027 0.62890622,0 0.1792027,0.17920269 0.1792027,0.44970355 0,0.62890622 -0.17920269,0.1792027 -0.44970355,0.1792027 -0.62890622,0 -0.1792027,-0.17920267 -0.1792027,-0.44970353 0,-0.62890622 z"
         id="path24" />
    </g>
    <g
       id="path2003-0-9-2-6-3-8-6"
       clip-path="url(#clipPath2004-1-8-9-8-2-0-3)"
       transform="matrix(0.37441145,-0.37441145,-0.36964313,-0.36964313,11.301499,16.848466)">
      <path
         style="color:#000000;fill:#ff0000;fill-opacity:0;stroke-miterlimit:10;-inkscape-stroke:none"
         d="m 0,0 c -0.423,-0.423 -1.109,-0.423 -1.532,0 -0.423,0.423 -0.423,1.109 0,1.532 0.423,0.423 1.109,0.423 1.532,0 C 0.423,1.109 0.423,0.423 0,0 Z"
         id="path25" />
      <path
         style="color:#000000;fill:#ff0000;stroke-miterlimit:10;-inkscape-stroke:none"
         d="m -0.765625,-0.7421875 c -0.3875828,0 -0.7751226,0.14621633 -1.0683594,0.43945312 -0.5864736,0.5864736 -0.5864736,1.55024518 0,2.13671878 0.5864736,0.5864736 1.55024518,0.5864736 2.13671878,0 0.58647359,-0.5864736 0.58647359,-1.55024518 0,-2.13671878 C 0.00949758,-0.59597117 -0.37804223,-0.7421875 -0.765625,-0.7421875 Z m -0.4648437,1.04492188 c 0.25952551,-0.25952556 0.66820877,-0.25952556 0.92773432,0 0.25952556,0.25952555 0.25952556,0.66820881 0,0.92773432 -0.25952555,0.2595256 -0.66820881,0.2595256 -0.92773432,0 -0.2595256,-0.25952551 -0.2595256,-0.66820877 0,-0.92773432 z"
         id="path26" />
    </g>
  </g>
</svg>
