<?xml version="1.0" encoding="UTF-8" standalone="no"?>
<!-- Created with Inkscape (http://www.inkscape.org/) -->

<svg
   width="27.116999mm"
   height="31.358999mm"
   viewBox="0 0 27.116999 31.358999"
   version="1.1"
   id="svg1"
   inkscape:version="1.3.1 (91b66b0783, 2023-11-16)"
   sodipodi:docname="Template.svg"
   inkscape:export-filename="My Sets\FCZ Tori Shogi\0Pheasant.svg"
   inkscape:export-xdpi="96"
   inkscape:export-ydpi="96"
   xmlns:inkscape="http://www.inkscape.org/namespaces/inkscape"
   xmlns:sodipodi="http://sodipodi.sourceforge.net/DTD/sodipodi-0.dtd"
   xmlns:xlink="http://www.w3.org/1999/xlink"
   xmlns="http://www.w3.org/2000/svg"
   xmlns:svg="http://www.w3.org/2000/svg">
  <sodipodi:namedview
     id="namedview1"
     pagecolor="#ffffff"
     bordercolor="#999999"
     borderopacity="1"
     inkscape:showpageshadow="2"
     inkscape:pageopacity="0"
     inkscape:pagecheckerboard="0"
     inkscape:deskcolor="#d1d1d1"
     inkscape:document-units="mm"
     inkscape:zoom="2.0737236"
     inkscape:cx="31.103471"
     inkscape:cy="78.361457"
     inkscape:window-width="1920"
     inkscape:window-height="1009"
     inkscape:window-x="-8"
     inkscape:window-y="-8"
     inkscape:window-maximized="1"
     inkscape:current-layer="layer1" />
  <defs
     id="defs1">
    <linearGradient
       id="linearGradient22"
       inkscape:collect="always">
      <stop
         style="stop-color:#ffdba6;stop-opacity:1;"
         offset="0"
         id="stop21" />
      <stop
         style="stop-color:#f2c478;stop-opacity:1;"
         offset="1"
         id="stop22" />
    </linearGradient>
    <linearGradient
       inkscape:collect="always"
       xlink:href="#linearGradient22"
       id="linearGradient2"
       x1="-1709.051"
       y1="614.17053"
       x2="-1709.051"
       y2="546.9895"
       gradientUnits="userSpaceOnUse"
       gradientTransform="translate(1719.0421,-607.52152)" />
    <clipPath
       clipPathUnits="userSpaceOnUse"
       id="clipPath1344-2-1">
      <path
         d="M 0,2834.646 H 2834.646 V 0 H 0 Z"
         transform="translate(-246.54421,-1557.6502)"
         id="path1344-4-3" />
    </clipPath>
    <clipPath
       clipPathUnits="userSpaceOnUse"
       id="clipPath2004-1-8-2">
      <path
         d="M 0,2834.646 H 2834.646 V 0 H 0 Z"
         transform="translate(-1148.7975,-1175.6119)"
         id="path2004-0-0-7" />
    </clipPath>
    <clipPath
       clipPathUnits="userSpaceOnUse"
       id="clipPath2004-1-4">
      <path
         d="M 0,2834.646 H 2834.646 V 0 H 0 Z"
         transform="translate(-1148.7975,-1175.6119)"
         id="path2004-0-8" />
    </clipPath>
  </defs>
  <g
     inkscape:label="Layer 1"
     inkscape:groupmode="layer"
     id="layer1">
    <g
       id="path1343-9-7"
       clip-path="url(#clipPath1344-2-1)"
       transform="matrix(0.35277776,0,0,-0.35277776,20.535298,6.1757244)">
      <path
         style="color:#000000;fill:url(#linearGradient2);stroke-miterlimit:10;-inkscape-stroke:none"
         d="m 0,0 -19.243,6.562 c -0.342,0.116 -0.717,0.116 -1.059,0 L -39.545,0 c -0.531,-0.181 -0.912,-0.618 -0.993,-1.139 l -8.982,-57.757 c -0.134,-0.863 0.585,-1.636 1.523,-1.636 h 28.224 28.225 c 0.938,0 1.657,0.773 1.523,1.636 L 0.993,-1.139 C 0.912,-0.618 0.531,-0.181 0,0"
         id="path11" />
      <path
         style="color:#000000;fill:#4d3608;stroke-miterlimit:10;-inkscape-stroke:none"
         d="m -47.996094,-61.382812 c -1.405202,0 -2.57986,1.222357 -2.363281,2.617187 l 8.980469,57.7578125 c 0.132098,0.84966903 0.749527,1.53671649 1.558594,1.8125 l 19.24414,6.5625 h 0.002 c 0.521072,0.1767378 1.082444,0.1767378 1.603516,0 h 0.002 l 19.2421875,-6.5625 c 8.8034e-4,-3.0008e-4 0.001073,-0.001652 0.001953,-0.001953 0.8076761,-0.27637896 1.4265454,-0.96180249 1.5584999,-1.810547 L 10.814453,-58.765625 c 0.216579,-1.39483 -0.958079,-2.617188 -2.3632811,-2.617187 H -19.773437 Z m 0,1.701171 h 28.222657 28.2246089 c 0.470796,0 0.7350149,0.323129 0.6835937,0.654297 L 0.15234375,-1.2695312 c -0.0299016,0.1923299 -0.17284885,0.37862757 -0.42578125,0.4648437 L 0,0 -0.27539063,-0.8046875 -19.515625,5.7558594 c -0.162927,0.055262 -0.350744,0.055262 -0.513672,0 l -19.242187,-6.5605469 c -0.252933,-0.0862161 -0.39588,-0.2725138 -0.425782,-0.4648437 l -8.982421,-57.7578128 c -0.05142,-0.331168 0.212797,-0.654297 0.683593,-0.654297 z"
         id="path12" />
    </g>
    <path
       style="fill:#000000 icc-color(sRGB-IEC61966-2, 0.1, 0, 0, 0);stroke-width:0.352777"
       d="M 15.245862,13.56253 V 12.570342 H 14.31982 v 0.165365 0.826823 z m 0,-1.620573 V 10.982842 H 14.31982 v 0.959115 z m 0,-1.587501 V 9.395341 H 14.31982 V 9.5607057 10.354456 Z M 11.310183,7.1133089 11.0456,8.1716426 h 2.083595 v 0.6945316 h -1.025261 v 1.4882818 h 0.826823 L 12.732319,10.189091 Q 13.19534,9.4945598 13.559143,8.7669554 13.856799,8.0393509 14.154455,6.9479442 l 0.727605,0.2315106 q -0.06615,0.1322917 -0.165365,0.463021 -0.09922,0.2976563 -0.396875,1.0583337 h 0.926042 l 0.529167,-1.6867194 0.79375,0.2315105 Q 16.46956,7.543257 16.271123,7.9732051 16.072685,8.4031532 15.940394,8.7008095 h 1.322917 V 9.395341 h -1.322917 v 0.959115 h 1.02526 v 0.628386 h -1.02526 v 0.959115 h 1.058333 v 0.628385 h -1.058333 v 0.992188 h 1.488281 v 0.661459 H 14.31982 v 0.496094 h -0.727604 v -4.497919 q -0.03307,0.09922 -0.132292,0.264584 -0.09922,0.165364 -0.198438,0.297656 l -0.132291,-0.198437 v 0.463021 h -1.091407 l -0.132292,0.926042 q 0.694532,0.859896 1.322917,1.389063 l -0.529167,0.628385 q -0.562239,-0.56224 -1.02526,-1.190625 -0.264584,0.661458 -0.463021,1.025261 -0.33073,0.529167 -0.56224,0.826823 -0.363802,-0.363802 -0.6614588,-0.529167 0.6945318,-0.926042 0.9260418,-1.455209 0.198438,-0.429948 0.363802,-1.620573 H 9.8880474 V 10.354456 H 11.343256 V 8.8661742 H 10.814089 Q 10.417214,9.7922162 10.384141,9.891435 9.8219016,9.5937786 9.6896098,9.5276328 9.9541933,8.9984659 10.218777,8.2708614 10.351068,7.8078404 10.516433,6.9479442 Z"
       id="text2672-7-5"
       aria-label="雉" />
    <path
       style="color:#000000;fill:#000000 icc-color(sRGB-IEC61966-2, 0.1, 0, 0, 0);stroke-miterlimit:10;-inkscape-stroke:none"
       d="m -9.6953125,-0.328125 -0.6562505,0.65625 5.3398443,5.3398437 5.3398437,-5.3398437 -0.65625,-0.65625 -4.6835937,4.6835937 z"
       id="path2013-4-4"
       transform="matrix(0.48788997,0,0,-0.48167641,16.00497,24.555876)" />
    <g
       id="path2003-0-9-5"
       clip-path="url(#clipPath2004-1-8-2)"
       transform="matrix(0.52949776,0,0,-0.52275432,13.965588,18.580476)">
      <path
         style="color:#000000;fill:#000000;fill-opacity:0;stroke-miterlimit:10;-inkscape-stroke:none"
         d="m 0,0 c -0.423,-0.423 -1.109,-0.423 -1.532,0 -0.423,0.423 -0.423,1.109 0,1.532 0.423,0.423 1.109,0.423 1.532,0 C 0.423,1.109 0.423,0.423 0,0 Z"
         id="path9" />
      <path
         style="color:#000000;fill:#000000;stroke-miterlimit:10;-inkscape-stroke:none"
         d="m -0.765625,-0.7421875 c -0.3875828,0 -0.7751226,0.14621633 -1.0683594,0.43945312 -0.5864736,0.5864736 -0.5864736,1.55024518 0,2.13671878 0.5864736,0.5864736 1.55024518,0.5864736 2.13671878,0 0.58647359,-0.5864736 0.58647359,-1.55024518 0,-2.13671878 C 0.00949758,-0.59597117 -0.37804223,-0.7421875 -0.765625,-0.7421875 Z m -0.4648437,1.04492188 c 0.25952551,-0.25952556 0.66820877,-0.25952556 0.92773432,0 0.25952556,0.25952555 0.25952556,0.66820881 0,0.92773432 -0.25952555,0.2595256 -0.66820881,0.2595256 -0.92773432,0 -0.2595256,-0.25952551 -0.2595256,-0.66820877 0,-0.92773432 z"
         id="path10" />
    </g>
    <g
       id="path2003-0-7"
       clip-path="url(#clipPath2004-1-4)"
       transform="matrix(0.48788997,0,0,-0.48167641,13.933944,22.510726)">
      <path
         style="color:#000000;fill:#000000;stroke-miterlimit:10;-inkscape-stroke:none"
         d="m 0,0 c -0.423,-0.423 -1.109,-0.423 -1.532,0 -0.423,0.423 -0.423,1.109 0,1.532 0.423,0.423 1.109,0.423 1.532,0 C 0.423,1.109 0.423,0.423 0,0 Z"
         id="path7" />
      <path
         style="color:#000000;fill:#000000 icc-color(sRGB-IEC61966-2, 0.1, 0, 0, 0);stroke-miterlimit:10;-inkscape-stroke:none"
         d="m -0.765625,-0.77929687 c -0.3969921,0 -0.7935426,0.15096446 -1.09375,0.45117187 -0.6004148,0.60041482 -0.6004148,1.5870852 0,2.1875 0.6004148,0.6004148 1.58708518,0.6004148 2.1875,0 0.60041482,-0.6004148 0.60041482,-1.58708518 0,-2.1875 -0.30020741,-0.30020741 -0.69675792,-0.45117187 -1.09375,-0.45117187 z m -0.4375,1.10742187 c 0.24558434,-0.24558434 0.62941566,-0.24558434 0.875,0 0.24558434,0.24558434 0.24558434,0.62941566 0,0.875 -0.24558434,0.2455843 -0.62941566,0.2455843 -0.875,0 -0.2455843,-0.24558434 -0.2455843,-0.62941566 0,-0.875 z"
         id="path8" />
    </g>
  </g>
</svg>
