<?xml version="1.0" encoding="UTF-8" standalone="no"?>
<!-- Created with Inkscape (http://www.inkscape.org/) -->

<svg
   width="102.48945"
   height="118.5222"
   viewBox="0 0 27.117 31.358999"
   version="1.1"
   id="svg1"
   sodipodi:docname="0Phoenix.svg"
   xmlns:inkscape="http://www.inkscape.org/namespaces/inkscape"
   xmlns:sodipodi="http://sodipodi.sourceforge.net/DTD/sodipodi-0.dtd"
   xmlns="http://www.w3.org/2000/svg"
   xmlns:svg="http://www.w3.org/2000/svg">
  <sodipodi:namedview
     id="namedview1"
     pagecolor="#ffffff"
     bordercolor="#999999"
     borderopacity="1"
     inkscape:showpageshadow="2"
     inkscape:pageopacity="0"
     inkscape:pagecheckerboard="0"
     inkscape:deskcolor="#d1d1d1" />
  <defs
     id="defs1">
    <clipPath
       clipPathUnits="userSpaceOnUse"
       id="clipPath1936-4">
      <path
         d="M 0,2834.646 H 2834.646 V 0 H 0 Z"
         transform="translate(-1029.0414,-1221.1642)"
         id="path1936-6" />
    </clipPath>
  </defs>
  <g
     id="layer1">
    <g
       id="path1935-0"
       clip-path="url(#clipPath1936-4)"
       transform="matrix(0.35277776,0,0,-0.3527804,21.582008,4.8802444)">
      <path
         style="color:#000000;fill:#ffdb9d;stroke-miterlimit:10;-inkscape-stroke:none"
         d="m 0,0 -22.28,7.578 c -0.3,0.102 -0.625,0.102 -0.924,0 L -45.484,0 c -0.502,-0.171 -0.868,-0.604 -0.949,-1.125 l -10.308,-66.12 c -0.134,-0.859 0.535,-1.636 1.411,-1.636 h 32.588 32.588 c 0.875,0 1.545,0.777 1.41,1.636 L 0.948,-1.125 C 0.867,-0.604 0.502,-0.171 0,0"
         id="path1" />
      <path
         style="color:#000000;fill:#000000 icc-color(sRGB-IEC61966-2, 0.1, 0, 0, 0);stroke-miterlimit:10;-inkscape-stroke:none"
         d="m -55.330078,-69.380859 c -1.17166,0 -2.084436,1.058116 -1.904297,2.21289 l 10.306641,66.1191409 c 0.109663,0.70536862 0.607556,1.29133376 1.283203,1.52148435 l 22.279297,7.57812505 c 0.403785,0.1377462 0.841897,0.1374268 1.246093,0 L 0.16015625,0.47265625 0,0 0.16210937,0.47265625 C 0.83794797,0.24244031 1.3318384,-0.34407676 1.4414062,-1.0488281 L 11.75,-67.167969 c 0.181571,-1.155329 -0.733299,-2.21289 -1.9042969,-2.21289 H -22.742187 Z m 0,1 h 32.587891 32.5878901 c 0.5790009,0 1.0044449,0.495924 0.9160159,1.058593 L 0.453125,-1.2011719 c -0.052432,0.33724761 -0.28707398,0.61673193 -0.61523437,0.72851565 L -22.441406,7.1054687 c -0.195803,0.066573 -0.407349,0.066254 -0.601563,0 l -22.279297,-7.57812495 c -0.328352,-0.11184907 -0.564851,-0.39188531 -0.617187,-0.72851565 L -56.246094,-67.322266 c -0.08786,-0.563223 0.335677,-1.058593 0.916016,-1.058593 z"
         id="path2" />
    </g>
    <text
       id="text1936-5"
       xml:space="preserve"
       x="9.2761049"
       y="13.288736"
       style="font-style:normal;font-variant:normal;font-weight:normal;font-stretch:normal;font-size:8.4667px;font-family:sans-serif;-inkscape-font-specification:'sans-serif, Normal';font-variant-ligatures:normal;font-variant-caps:normal;font-variant-numeric:normal;font-variant-east-asian:normal;stroke-width:0.352777"><tspan
         id="tspan10"
         x="9.2761049"
         y="13.288736"
         style="stroke-width:0.352777">鵬</tspan></text>
    <path
       style="color:#000000;fill:#000000 icc-color(sRGB-IEC61966-2, 0.1, 0, 0, 0);stroke-miterlimit:10;-inkscape-stroke:none"
       d="m -0.5,0 v 25.111328 h 1 V 0 Z"
       id="path1937-3"
       transform="matrix(0.35277776,0,0,-0.3527804,13.560397,25.109353)" />
    <path
       style="color:#000000;fill:#000000 icc-color(sRGB-IEC61966-2, 0.1, 0, 0, 0);stroke-miterlimit:10;-inkscape-stroke:none"
       d="m -25.111328,-0.5 v 1 H 0 v -1 z"
       id="path1943-7"
       transform="matrix(0.35277776,0,0,-0.3527804,17.989707,20.680036)" />
    <path
       style="color:#000000;fill:#000000 icc-color(sRGB-IEC61966-2, 0.1, 0, 0, 0);stroke-miterlimit:10;-inkscape-stroke:none"
       d="M -0.35351563,-0.35351563 -18.109375,17.402344 -17.402344,18.109375 0.35351563,0.35351563 Z"
       id="path1949-1"
       transform="matrix(0.35277776,0,0,-0.3527804,16.692402,23.811985)" />
    <path
       style="color:#000000;fill:#000000 icc-color(sRGB-IEC61966-2, 0.1, 0, 0, 0);stroke-miterlimit:10;-inkscape-stroke:none"
       d="m -17.402344,-18.109375 -0.707031,0.707031 17.75585937,17.75585963 0.70703126,-0.70703126 z"
       id="path1955-7"
       transform="matrix(0.35277776,0,0,-0.3527804,16.692402,17.54806)" />
  </g>
</svg>
