<?xml version="1.0" encoding="UTF-8" standalone="no"?>
<!-- Created with Inkscape (http://www.inkscape.org/) -->

<svg
   width="27.116999mm"
   height="31.358999mm"
   viewBox="0 0 27.116999 31.358999"
   version="1.1"
   id="svg1"
   inkscape:version="1.3.1 (91b66b0783, 2023-11-16)"
   sodipodi:docname="Template.svg"
   xmlns:inkscape="http://www.inkscape.org/namespaces/inkscape"
   xmlns:sodipodi="http://sodipodi.sourceforge.net/DTD/sodipodi-0.dtd"
   xmlns="http://www.w3.org/2000/svg"
   xmlns:svg="http://www.w3.org/2000/svg">
  <sodipodi:namedview
     id="namedview1"
     pagecolor="#ffffff"
     bordercolor="#999999"
     borderopacity="1"
     inkscape:showpageshadow="2"
     inkscape:pageopacity="0"
     inkscape:pagecheckerboard="0"
     inkscape:deskcolor="#d1d1d1"
     inkscape:document-units="mm"
     inkscape:zoom="2.932688"
     inkscape:cx="0"
     inkscape:cy="32.904966"
     inkscape:window-width="1920"
     inkscape:window-height="1009"
     inkscape:window-x="-8"
     inkscape:window-y="-8"
     inkscape:window-maximized="1"
     inkscape:current-layer="layer1" />
  <defs
     id="defs1">
    <clipPath
       clipPathUnits="userSpaceOnUse"
       id="clipPath1936-4-4">
      <path
         d="M 0,2834.646 H 2834.646 V 0 H 0 Z"
         transform="translate(-1029.0414,-1221.1642)"
         id="path1936-6-2" />
    </clipPath>
  </defs>
  <g
     inkscape:label="Layer 1"
     inkscape:groupmode="layer"
     id="layer1">
    <g
       id="path1935-0"
       clip-path="url(#clipPath1936-4-4)"
       transform="matrix(0.35277776,0,0,-0.35277776,21.579007,4.880325)">
      <path
         style="color:#000000;fill:#ffdb9d;stroke-miterlimit:10;-inkscape-stroke:none"
         d="m 0,0 -22.28,7.578 c -0.3,0.102 -0.625,0.102 -0.924,0 L -45.484,0 c -0.502,-0.171 -0.868,-0.604 -0.949,-1.125 l -10.308,-66.12 c -0.134,-0.859 0.535,-1.636 1.411,-1.636 h 32.588 32.588 c 0.875,0 1.545,0.777 1.41,1.636 L 0.948,-1.125 C 0.867,-0.604 0.502,-0.171 0,0"
         id="path1" />
      <path
         style="color:#000000;fill:#000000 icc-color(sRGB-IEC61966-2, 0.1, 0, 0, 0);stroke-miterlimit:10;-inkscape-stroke:none"
         d="m -55.330078,-69.519531 c -1.253142,0 -2.233871,1.136758 -2.041016,2.373047 L -47.0625,-1.0273437 c 0.117563,0.75617982 0.649544,1.38440708 1.373047,1.63085932 l 22.279297,7.57812498 c 0.432664,0.1475978 0.903024,0.1471904 1.335937,0 L 0.20507813,0.60351562 C 0.92882591,0.35698002 1.4606839,-0.27195127 1.578125,-1.0273437 L 11.886719,-67.146484 c 0.194405,-1.236997 -0.788443,-2.373047 -2.0410159,-2.373047 H -22.742187 Z m 0,1.27539 h 32.587891 32.5878901 c 0.4974249,0 0.8548909,0.419389 0.7792969,0.900391 L 0.31835938,-1.2226562 c -0.0445588,0.28660643 -0.2431863,0.52367652 -0.52343751,0.61914058 L -22.486328,6.9746094 c -0.166551,0.056162 -0.347012,0.056188 -0.511719,0 l -22.28125,-7.57812502 c -0.280496,-0.0955474 -0.479001,-0.33332155 -0.523437,-0.61914058 L -56.111328,-67.34375 c -0.07514,-0.481709 0.282394,-0.900391 0.78125,-0.900391 z"
         id="path2" />
    </g>
    <path
       d="m 14.663952,13.255712 -0.09922,-0.992188 0.33073,-0.06615 q 0.03307,0.165365 0.06615,0.396875 0.06615,0.231511 0.09922,0.595313 z m -0.56224,0.09922 -0.363802,-0.09922 q 0.06615,-0.198438 0.264584,-1.091407 l 0.396875,0.06615 q -0.165365,0.760678 -0.297657,1.12448 z m 1.256772,-0.297657 -0.231511,-0.826823 0.330729,-0.09922 0.231511,0.826824 z m 0.661458,-0.165364 -0.297656,-0.79375 0.297656,-0.132292 q 0.297657,0.694531 0.33073,0.79375 z M 11.059003,10.510659 V 9.2869605 h -0.56224 v 1.2236985 z m 0,-1.7859383 V 7.4348764 h -0.56224 V 8.7247207 Z M 9.9675961,10.345294 V 6.8064907 h 1.6536469 v 5.9862003 q 0,0.463021 -0.132292,0.595313 -0.198438,0.198437 -0.760677,0.330729 -0.03307,-0.264583 -0.264584,-0.661459 h 0.429948 q 0.09922,0 0.132292,-0.03307 0.03307,-0.03307 0.03307,-0.132292 v -1.752867 h -0.59531 q -0.06615,1.322917 -0.06615,1.322917 0,0.03307 -0.165364,0.760677 -0.06615,0.363802 -0.231511,0.760678 -0.1653646,-0.165365 -0.4960939,-0.429949 0.1653647,-0.396875 0.3307293,-1.058333 0.033073,-0.231511 0.099219,-0.760678 0.033073,-0.496094 0.033073,-1.389063 z m 3.1088559,0.165365 V 9.2869605 h -0.56224 v 1.2236985 z m 0,-1.7859383 V 7.4348764 h -0.56224 V 8.7247207 Z M 11.985045,11.139045 V 6.8064907 h 1.653646 v 6.4161483 q 0,0.297656 -0.165364,0.463021 -0.198438,0.198438 -0.793751,0.330729 -0.09922,-0.330729 -0.264583,-0.727604 h 0.496094 q 0.06615,0 0.132292,-0.06615 0.03307,-0.03307 0.03307,-0.09922 V 11.13904 h -0.56224 q -0.06615,0.859896 -0.09922,1.157552 -0.03307,0.363802 -0.165365,0.859896 -0.06615,0.297657 -0.297656,0.826824 -0.132292,-0.09922 -0.297656,-0.231511 -0.132292,-0.09922 -0.165365,-0.09922 0.496094,-1.157552 0.496094,-2.513542 z M 16.152234,9.2869605 V 8.7577936 h -1.422136 v 0.5291669 z m 0,-1.0583338 v -0.463021 h -1.422136 v 0.463021 z M 15.854578,6.4757614 15.689213,7.13722 h 1.190625 v 2.6789073 h -2.14974 v 0.4630207 h 2.579689 v 0.56224 h -2.579689 v 0.463021 h 2.414324 l -0.06615,1.389063 q -0.06615,0.859896 -0.23151,1.091407 -0.264584,0.264583 -1.025261,0.363802 -0.132292,-0.396875 -0.297657,-0.727604 h 0.595313 q 0.132292,0 0.198438,-0.06615 0.03307,-0.03307 0.03307,-0.264584 l 0.09922,-1.289844 H 14.068639 V 7.13722 h 0.926042 L 15.0939,6.3765426 Z"
       id="text1936-5"
       style="-inkscape-font-specification:Osaka;stroke-width:0.352777"
       aria-label="鵬" />
    <path
       style="color:#000000;fill:#000000 icc-color(sRGB-IEC61966-2, 0.1, 0, 0, 0);stroke-miterlimit:10;-inkscape-stroke:none"
       d="m -0.5,0 v 25.111328 h 1 V 0 Z"
       id="path1937-3"
       transform="matrix(0.35277776,0,0,-0.35277776,13.557396,25.10928)" />
    <path
       style="color:#000000;fill:#000000 icc-color(sRGB-IEC61966-2, 0.1, 0, 0, 0);stroke-miterlimit:10;-inkscape-stroke:none"
       d="m -25.111328,-0.5 v 1 H 0 v -1 z"
       id="path1943-7"
       transform="matrix(0.35277776,0,0,-0.35277776,17.986706,20.679996)" />
    <path
       style="color:#000000;fill:#000000 icc-color(sRGB-IEC61966-2, 0.1, 0, 0, 0);stroke-miterlimit:10;-inkscape-stroke:none"
       d="M -0.35351563,-0.35351563 -18.109375,17.402344 -17.402344,18.109375 0.35351563,0.35351563 Z"
       id="path1949-1"
       transform="matrix(0.35277776,0,0,-0.35277776,16.689401,23.811922)" />
    <path
       style="color:#000000;fill:#000000 icc-color(sRGB-IEC61966-2, 0.1, 0, 0, 0);stroke-miterlimit:10;-inkscape-stroke:none"
       d="m -17.402344,-18.109375 -0.707031,0.707031 17.75585937,17.75585963 0.70703126,-0.70703126 z"
       id="path1955-7"
       transform="matrix(0.35277776,0,0,-0.35277776,16.689401,17.548046)" />
  </g>
</svg>
