<?xml version="1.0" encoding="UTF-8" standalone="no"?>
<!-- Created with Inkscape (http://www.inkscape.org/) -->

<svg
   width="30mm"
   height="34mm"
   viewBox="0 0 30 34"
   version="1.1"
   id="svg1"
   xmlns:xlink="http://www.w3.org/1999/xlink"
   xmlns="http://www.w3.org/2000/svg"
   xmlns:svg="http://www.w3.org/2000/svg">
  <defs
     id="defs1">
    <linearGradient
       id="linearGradient22">
      <stop
         style="stop-color:#ffdba6;stop-opacity:1;"
         offset="0"
         id="stop21" />
      <stop
         style="stop-color:#f2c478;stop-opacity:1;"
         offset="1"
         id="stop22" />
    </linearGradient>
    <clipPath
       clipPathUnits="userSpaceOnUse"
       id="clipPath1464-4-0-1">
      <path
         d="M 0,2834.646 H 2834.646 V 0 H 0 Z"
         transform="translate(-812.4841,-1556.5424)"
         id="path1464-0-9-6" />
    </clipPath>
    <linearGradient
       xlink:href="#linearGradient22"
       id="linearGradient15"
       gradientUnits="userSpaceOnUse"
       gradientTransform="translate(-2040.9438,-2423.6229)"
       x1="1975.6818"
       y1="2435.5293"
       x2="1975.6818"
       y2="2350.49" />
  </defs>
  <g
     id="layer1"
     transform="translate(-800)">
    <g
       id="path1463-7-1-0"
       clip-path="url(#clipPath1464-4-0-1)"
       transform="matrix(0.35277729,0,0,-0.35277776,821.62621,7.8865435)">
      <path
         style="color:#000000;fill:url(#linearGradient15);stroke-miterlimit:10;-inkscape-stroke:none"
         d="m 0,0 -18.208,6.244 c -0.37,0.127 -0.78,0.127 -1.15,0 L -37.566,0 c -0.538,-0.184 -0.92,-0.612 -0.998,-1.116 l -8.551,-55.301 c -0.13,-0.841 0.611,-1.59 1.573,-1.59 h 26.759 26.759 c 0.962,0 1.703,0.749 1.573,1.59 L 0.998,-1.116 C 0.92,-0.612 0.538,-0.184 0,0"
         id="path104" />
      <path
         style="color:#000000;fill:#4d3608;stroke-miterlimit:10;-inkscape-stroke:none"
         d="m -45.542969,-58.857422 c -1.403402,0 -2.628281,1.171847 -2.412109,2.570313 l 8.550781,55.30078087 c 0.131052,0.8467983 0.759066,1.5162352 1.5625,1.79101563 l 18.207031,6.2441406 c 0.552456,0.1896266 1.15067,0.1896266 1.703125,0 L 0.27539063,0.8046875 C 1.0788247,0.52990707 1.7068385,-0.13952983 1.8378906,-0.98632813 L 10.388672,-56.287109 c 0.216172,-1.398466 -1.008707,-2.570313 -2.4121095,-2.570313 H -18.783203 Z m 0,1.701172 h 26.759766 26.7597655 c 0.5205955,0 0.7762497,0.325843 0.7324219,0.609375 L 0.15820312,-1.2460937 c -0.0249477,0.1612006 -0.1610289,0.348187 -0.43359375,0.4414062 L -18.484375,5.4394531 c -0.187544,0.064373 -0.410112,0.064373 -0.597656,0 l -18.208985,-6.2441406 c -0.272564,-0.0932192 -0.406693,-0.2802056 -0.43164,-0.4414062 l -8.552735,-55.3007813 c -0.04383,-0.283532 0.211827,-0.609375 0.732422,-0.609375 z"
         id="path105" />
    </g>
    <path
       d="m 817.18286,14.463909 v -1.852085 h -3.14193 v 1.852085 z m -2.18281,-4.8286482 h 3.83646 v 0.7606772 h -4.10105 q -0.23151,0.56224 -0.76067,1.455209 h 4.06797 v 3.935679 h -0.8599 v -0.496094 h -3.14193 v 0.595313 h -0.79375 v -3.04271 q -0.52917,0.628386 -0.7276,0.79375 -0.16537,0.165365 -0.92605,0.760678 -0.13229,-0.33073 -0.42994,-0.760678 1.05833,-0.79375 1.55442,-1.422136 0.4961,-0.595312 1.09141,-1.819011 h -2.34818 V 9.6352608 h 2.61276 q 0.26459,-0.6945316 0.39688,-1.5213548 l 0.92604,0.2315105 q -0.0331,0.1322917 -0.39687,1.2898443 z"
       id="text1464-5-1-3"
       style="stroke-width:0.352777"
       aria-label="&#10;å³" />
    <path
       style="color:#000000;fill:#000000 icc-color(sRGB-IEC61966-2, 0.1, 0, 0, 0);stroke-miterlimit:10;-inkscape-stroke:none"
       d="m -0.63867187,12.554688 v 12.55664 h 1.27734374 v -12.55664 z"
       id="path1961-2-4-2"
       transform="matrix(-0.35277729,0,0,-0.35277776,814.99982,27.114662)" />
    <path
       style="color:#000000;fill:#000000 icc-color(sRGB-IEC61966-2, 0.1, 0, 0, 0);stroke-miterlimit:10;-inkscape-stroke:none"
       d="M 0.45117188,-0.45117188 -0.45117188,0.45117188 2.5371094,3.4394531 5.5234375,0.45117188 4.6210937,-0.45117188 2.5371094,1.6347656 Z"
       id="path1963-5-9-9"
       transform="matrix(-0.35277729,0,0,-0.35277776,815.89467,19.150968)" />
    <path
       style="color:#000000;fill:#000000 icc-color(sRGB-IEC61966-2, 0.1, 0, 0, 0);stroke-miterlimit:10;-inkscape-stroke:none"
       d="M -0.45117188,-0.45117188 -9.328125,8.4277344 -8.4277344,9.328125 0.45117188,0.45117188 Z"
       id="path1973-0-8-8"
       transform="matrix(-0.35277729,0,0,-0.35277776,811.86782,25.817304)" />
    <path
       style="color:#000000;fill:#000000 icc-color(sRGB-IEC61966-2, 0.1, 0, 0, 0);stroke-miterlimit:10;-inkscape-stroke:none"
       d="m -3.5878906,-4.2246094 v 1.2753906 h 2.94921873 V 0 h 1.27734374 v -4.2246094 z"
       id="path1977-6-5-5"
       transform="matrix(-0.35277729,0,0,-0.35277776,811.86782,24.551855)" />
    <path
       style="color:#000000;fill:#000000 icc-color(sRGB-IEC61966-2, 0.1, 0, 0, 0);stroke-miterlimit:10;-inkscape-stroke:none"
       d="m -12.865234,-13.767578 -0.902344,0.902344 4.4374999,4.4374996 0.9023437,-0.9003906 z"
       id="path1979-4-6-1"
       transform="matrix(-0.35277729,0,0,-0.35277776,811.86782,19.553426)" />
  </g>
</svg>
