<?xml version="1.0" encoding="UTF-8" standalone="no"?>
<!-- Created with Inkscape (http://www.inkscape.org/) -->

<svg
   width="102.48945"
   height="118.522"
   viewBox="0 0 27.117 31.358947"
   version="1.1"
   id="svg1"
   sodipodi:docname="0Swallow.svg"
   inkscape:export-filename="0Swallow.png"
   inkscape:export-xdpi="96"
   inkscape:export-ydpi="96"
   xmlns:inkscape="http://www.inkscape.org/namespaces/inkscape"
   xmlns:sodipodi="http://sodipodi.sourceforge.net/DTD/sodipodi-0.dtd"
   xmlns="http://www.w3.org/2000/svg"
   xmlns:svg="http://www.w3.org/2000/svg">
  <sodipodi:namedview
     id="namedview1"
     pagecolor="#ffffff"
     bordercolor="#999999"
     borderopacity="1"
     inkscape:showpageshadow="2"
     inkscape:pageopacity="0"
     inkscape:pagecheckerboard="0"
     inkscape:deskcolor="#d1d1d1" />
  <defs
     id="defs1">
    <clipPath
       clipPathUnits="userSpaceOnUse"
       id="clipPath1460-2">
      <path
         d="M 0,2834.646 H 2834.646 V 0 H 0 Z"
         transform="translate(-1094.0025,-1215.6335)"
         id="path1460-8" />
    </clipPath>
  </defs>
  <g
     id="layer1">
    <g
       id="path1459-6"
       clip-path="url(#clipPath1460-2)"
       transform="matrix(0.35277776,0,0,-0.35277776,19.49872,6.8316519)">
      <path
         style="color:#000000;fill:#ffdb9d;stroke-miterlimit:10;-inkscape-stroke:none"
         d="m 0,0 -16.217,5.989 c -0.397,0.146 -0.844,0.146 -1.241,0 L -33.674,0 c -0.531,-0.196 -0.903,-0.627 -0.975,-1.131 l -7.687,-53.534 c -0.122,-0.848 0.627,-1.598 1.595,-1.598 h 23.904 23.903 c 0.969,0 1.718,0.75 1.596,1.598 L 0.975,-1.131 C 0.903,-0.627 0.531,-0.196 0,0"
         id="path1" />
      <path
         style="color:#000000;fill:#000000 icc-color(sRGB-IEC61966-2, 0.1, 0, 0, 0);stroke-miterlimit:10;-inkscape-stroke:none"
         d="m -40.740234,-56.6875 c -1.186815,0 -2.176098,0.957262 -2.015625,2.082031 l 7.685547,53.5351565 c 0.09619,0.67330361 0.589615,1.22499244 1.25,1.46875 l 16.214843,5.9902344 c 0.493993,0.1816699 1.041164,0.1816699 1.535157,0 L 0.14648437,0.3984375 C 0.80686838,0.15467994 1.3002981,-0.39700889 1.3964844,-1.0703125 L 9.0820313,-54.603516 C 9.243975,-55.729157 8.2547033,-56.6875 7.0664062,-56.6875 H -16.837891 Z m 0,0.849609 h 23.902343 23.9042972 c 0.749701,0 1.2578373,0.542925 1.1757813,1.113282 l -7.6875,53.5332028 c -0.0478136,0.33469533 -0.29955694,0.64472665 -0.70117187,0.7929687 L -16.363281,5.5898437 c -0.300007,0.1103298 -0.64726,0.1103298 -0.947266,0 l -16.216797,-5.9882812 c -0.401615,-0.14824205 -0.653358,-0.45827337 -0.701172,-0.7929687 l -7.6875,-53.5332028 c -0.08206,-0.570357 0.427307,-1.113282 1.175782,-1.113282 z"
         id="path2" />
    </g>
    <path
       style="color:#000000;fill:#000000 icc-color(sRGB-IEC61966-2, 0.1, 0, 0, 0);stroke-miterlimit:10;-inkscape-stroke:none"
       d="m -0.42578125,0 v 8.5039063 h 0.8515625 V 0 Z"
       id="path1461-1"
       transform="matrix(0.35277776,0,0,-0.35277776,13.309084,20.680155)" />
    <text
       id="text1462-1"
       xml:space="preserve"
       transform="scale(0.99587063,1.0041465)"
       x="9.3499918"
       y="14.300175"
       style="font-size:4.25087px;stroke-width:0.35424"><tspan
         style="font-variant:normal;font-weight:normal;font-stretch:normal;font-size:8.43172px;font-family:Osaka;writing-mode:lr-tb;fill:#000000 icc-color(sRGB-IEC61966-2, 0.1, 0, 0, 0);fill-opacity:1;fill-rule:nonzero;stroke:none;stroke-width:0.35424"
         x="9.3499918"
         y="14.300175"
         id="tspan1462-8">燕</tspan></text>
  </g>
</svg>
