<?xml version="1.0" encoding="UTF-8" standalone="no"?>
<!-- Created with Inkscape (http://www.inkscape.org/) -->

<svg
   width="27.116999mm"
   height="31.358999mm"
   viewBox="0 0 27.116999 31.358999"
   version="1.1"
   id="svg1"
   inkscape:version="1.3.1 (91b66b0783, 2023-11-16)"
   sodipodi:docname="Template.svg"
   inkscape:export-filename="My Sets\FCZ Tori Shogi\1Eagle.svg"
   inkscape:export-xdpi="96"
   inkscape:export-ydpi="96"
   xmlns:inkscape="http://www.inkscape.org/namespaces/inkscape"
   xmlns:sodipodi="http://sodipodi.sourceforge.net/DTD/sodipodi-0.dtd"
   xmlns:xlink="http://www.w3.org/1999/xlink"
   xmlns="http://www.w3.org/2000/svg"
   xmlns:svg="http://www.w3.org/2000/svg">
  <sodipodi:namedview
     id="namedview1"
     pagecolor="#ffffff"
     bordercolor="#999999"
     borderopacity="1"
     inkscape:showpageshadow="2"
     inkscape:pageopacity="0"
     inkscape:pagecheckerboard="0"
     inkscape:deskcolor="#d1d1d1"
     inkscape:document-units="mm"
     inkscape:zoom="2.0737236"
     inkscape:cx="31.103471"
     inkscape:cy="78.361457"
     inkscape:window-width="1920"
     inkscape:window-height="1009"
     inkscape:window-x="-8"
     inkscape:window-y="-8"
     inkscape:window-maximized="1"
     inkscape:current-layer="layer1" />
  <defs
     id="defs1">
    <linearGradient
       id="linearGradient22"
       inkscape:collect="always">
      <stop
         style="stop-color:#ffdba6;stop-opacity:1;"
         offset="0"
         id="stop21" />
      <stop
         style="stop-color:#f2c478;stop-opacity:1;"
         offset="1"
         id="stop22" />
    </linearGradient>
    <linearGradient
       inkscape:collect="always"
       xlink:href="#linearGradient22"
       id="linearGradient2"
       x1="-1536.8401"
       y1="622.82837"
       x2="-1536.8401"
       y2="701.06464"
       gradientUnits="userSpaceOnUse"
       gradientTransform="rotate(180,-797.22403,315.66662)" />
    <clipPath
       clipPathUnits="userSpaceOnUse"
       id="clipPath1936-4-4-3">
      <path
         d="M 0,2834.646 H 2834.646 V 0 H 0 Z"
         transform="translate(-1029.0414,-1221.1642)"
         id="path1936-6-3-3" />
    </clipPath>
  </defs>
  <g
     inkscape:label="Layer 1"
     inkscape:groupmode="layer"
     id="layer1">
    <g
       id="path1935-0-3-2"
       clip-path="url(#clipPath1936-4-4-3)"
       transform="matrix(-0.35277776,0,0,0.35277776,5.5369937,26.479675)">
      <path
         style="color:#000000;fill:url(#linearGradient2);stroke-miterlimit:10;-inkscape-stroke:none"
         d="m 0,0 -22.28,7.578 c -0.3,0.102 -0.625,0.102 -0.924,0 L -45.484,0 c -0.502,-0.171 -0.868,-0.604 -0.949,-1.125 l -10.308,-66.12 c -0.134,-0.859 0.535,-1.636 1.411,-1.636 h 32.588 32.588 c 0.875,0 1.545,0.777 1.41,1.636 L 0.948,-1.125 C 0.867,-0.604 0.502,-0.171 0,0"
         id="path3" />
      <path
         style="color:#000000;fill:#4d3608;stroke-miterlimit:10;-inkscape-stroke:none"
         d="m -55.330078,-69.730469 c -1.378858,0 -2.464427,1.255134 -2.251953,2.617188 l 10.308594,66.11914037 c 0.129751,0.83457398 0.718286,1.52722488 1.515625,1.79882813 l 22.279296,7.578125 c 0.47722,0.1627972 0.995439,0.1622539 1.472657,0 L 0.2734375,0.8046875 C 1.071102,0.5329731 1.6594743,-0.16061651 1.7890625,-0.99414063 L 12.095703,-67.113281 c 0.214208,-1.362997 -0.871567,-2.617188 -2.2499999,-2.617188 H -22.742187 Z m 0,1.699219 h 32.587891 32.5878901 c 0.3715659,0 0.6261039,0.299295 0.5703129,0.654297 L 0.10742187,-1.2558594 c -0.03241163,0.2084749 -0.17452486,0.38088664 -0.38085937,0.4511719 l -22.2812495,7.578125 c -0.122782,0.041746 -0.25422,0.041203 -0.375,0 l -22.279297,-7.578125 c -0.206661,-0.0703964 -0.350564,-0.2437469 -0.382813,-0.4511719 L -55.900391,-67.376953 c -0.05553,-0.355945 0.197172,-0.654297 0.570313,-0.654297 z"
         id="path4" />
    </g>
    <path
       style="fill:#ff0000;stroke-width:0.352999"
       d="m -16.304963,-20.105199 q 0,1.752865 -0.595313,2.811199 l -0.529167,-0.529167 q 0.56224,-0.79375 0.56224,-2.745053 v -3.968752 h 3.340366 v 6.54844 q 0.198437,-0.562239 0.297656,-1.422136 l 0.463021,0.06615 q -0.03307,0.826824 -0.198437,1.653647 l -0.56224,-0.165365 q 0.03307,0.56224 -0.429948,0.56224 h -0.56224 l -0.198438,-0.727605 h 0.496094 q 0.132292,0 0.132292,-0.132291 v -5.75469 h -2.215886 z m 1.984375,-3.04271 v 0.529167 H -14.9159 v 0.529167 h 0.595312 v 0.529167 H -14.9159 v 0.529167 h -0.56224 v -0.529167 h -0.595313 v -0.529167 h 0.595313 v -0.529167 h -0.595313 v -0.529167 h 0.595313 v -0.628385 h 0.529167 q 0.264583,0.03307 0.03307,0.198437 v 0.429948 z m 2.215887,3.737241 q 0.09922,0.760678 0.09922,1.521355 l -0.496093,0.06615 q 0,-0.760677 -0.06615,-1.521355 z m 1.190625,1.157553 q -0.132292,-0.661459 -0.330729,-1.256771 l 0.463021,-0.132292 q 0.198437,0.429948 0.330729,0.859896 v -0.959115 h -2.612761 v -4.431772 h 0.826823 l 0.23151,-0.89297 0.56224,0.132292 q 0.33073,0.132292 -0.03307,0.231511 l -0.198437,0.529167 h 1.422136 v 2.480469 h -2.248959 v 0.463021 h 2.8111986 v 0.529167 h -2.8111986 v 0.429948 h 2.7119798 l -0.066146,1.852084 q -0.033073,1.058334 -0.6283858,1.058334 h -0.661458 l -0.165365,-0.529167 h 0.529167 q 0.297656,0 0.330729,-0.56224 z m -0.727604,0.198438 q -0.09922,-0.694532 -0.264584,-1.355991 l 0.429948,-0.132291 q 0.231511,0.694531 0.33073,1.35599 z m 0.826823,-5.589326 h -1.686719 v 0.429948 h 1.686719 z m -4.729429,5.390888 h -0.463021 v -2.546616 h 1.521355 v 1.951303 h -1.058334 z m 0.595313,-1.12448 v -0.892969 h -0.595313 v 0.892969 z m 2.447397,-2.844272 h 1.686719 v -0.463021 h -1.686719 z"
       id="text1936-5-7-1"
       transform="scale(-1)"
       aria-label="鵰" />
    <path
       style="color:#000000;fill:#ff0000;stroke-miterlimit:10;-inkscape-stroke:none"
       d="M -0.63867187,0 V 19.642578 H 0.63867187 V 0 Z"
       id="path1937-3-4-8"
       transform="matrix(-0.35277776,0,0,0.35277776,13.558605,6.2507159)" />
    <path
       style="color:#000000;fill:#ff0000;stroke-miterlimit:10;-inkscape-stroke:none"
       d="m -2.5371094,-3.4394531 -2.9863281,2.98828122 0.9023438,0.90234376 2.0839843,-2.08593748 2.08593752,2.08593748 0.90234376,-0.90234376 z"
       id="path1941-8-2-3"
       transform="matrix(-0.35277776,0,0,0.35277776,12.663732,7.1455899)" />
    <path
       style="color:#000000;fill:#ff0000;stroke-miterlimit:10;-inkscape-stroke:none"
       d="M -4.3222656,3.4121094 -18.207031,17.304687 -17.304687,18.207031 -3.4199219,4.3144531 Z"
       id="path1949-1-6-8"
       transform="matrix(-0.35277776,0,0,0.35277776,10.4266,7.5480739)" />
    <path
       style="color:#000000;fill:#ff0000;stroke-miterlimit:10;-inkscape-stroke:none"
       d="m -13.443359,-14.339844 -0.900391,0.900391 13.89257812,13.89062488 0.90234376,-0.90234376 z"
       id="path1955-7-4-2"
       transform="matrix(-0.35277776,0,0,0.35277776,10.4266,13.811955)" />
    <path
       style="color:#000000;fill:#ff0000;stroke-miterlimit:10;-inkscape-stroke:none"
       d="m 2.9492188,-3.5878906 v 2.94921873 H 0 V 0.63867187 H 4.2246094 V -3.5878906 Z"
       id="path1983-8-1-6"
       transform="matrix(-0.35277776,0,0,0.35277776,11.692129,13.811955)" />
    <path
       style="color:#000000;fill:#ff0000;stroke-miterlimit:10;-inkscape-stroke:none"
       d="M -14.173828,-0.63867187 V 0.63867187 H 0 v -1.27734374 z"
       id="path1829-8"
       transform="matrix(-0.35277776,0,0,0.35277776,11.060039,10.679973)" />
    <path
       style="color:#000000;fill:#ff0000;stroke-miterlimit:10;-inkscape-stroke:none"
       d="M 0.45117188,-0.45117188 -0.45117188,0.45117188 3.5585938,4.4609375 4.4609375,3.5585938 Z"
       id="path3069-9"
       transform="matrix(-0.35277776,0,0,0.35277776,17.586542,6.6534909)" />
    <path
       style="color:#000000;fill:#ff0000;stroke-miterlimit:10;-inkscape-stroke:none"
       d="M -0.45117188,-0.45117188 -4.4609375,3.5585938 -3.5585938,4.4609375 0.45117188,0.45117188 Z"
       id="path3073-0"
       transform="matrix(-0.35277776,0,0,0.35277776,9.5335257,6.6534909)" />
    <path
       style="color:#000000;fill:#ff0000;stroke-miterlimit:10;-inkscape-stroke:none"
       d="M -0.63867187,0 V 4.2246094 H 3.5878906 V 2.9492188 H 0.63867187 V 0 Z"
       id="path1951-7-2-2"
       transform="matrix(-0.35277776,0,0,0.35277776,16.690558,12.546479)" />
  </g>
</svg>
