<?xml version="1.0" encoding="UTF-8" standalone="no"?>
<!-- Created with Inkscape (http://www.inkscape.org/) -->

<svg
   width="102.48945"
   height="118.522"
   viewBox="0 0 27.117 31.358947"
   version="1.1"
   id="svg1"
   xmlns="http://www.w3.org/2000/svg"
   xmlns:svg="http://www.w3.org/2000/svg">
  <defs
     id="defs1">
    <clipPath
       clipPathUnits="userSpaceOnUse"
       id="clipPath1936-4-4-3">
      <path
         d="M 0,2834.646 H 2834.646 V 0 H 0 Z"
         transform="translate(-1029.0414,-1221.1642)"
         id="path1936-6-3-3" />
    </clipPath>
  </defs>
  <g
     id="layer1">
    <g
       id="path1935-0-3-2"
       clip-path="url(#clipPath1936-4-4-3)"
       transform="matrix(-0.35277776,0,0,0.35277776,5.5362356,26.479809)">
      <path
         style="color:#000000;fill:#ffdb9d;stroke-miterlimit:10;-inkscape-stroke:none"
         d="m 0,0 -22.28,7.578 c -0.3,0.102 -0.625,0.102 -0.924,0 L -45.484,0 c -0.502,-0.171 -0.868,-0.604 -0.949,-1.125 l -10.308,-66.12 c -0.134,-0.859 0.535,-1.636 1.411,-1.636 h 32.588 32.588 c 0.875,0 1.545,0.777 1.41,1.636 L 0.948,-1.125 C 0.867,-0.604 0.502,-0.171 0,0"
         id="path1" />
      <path
         style="color:#000000;fill:#000000 icc-color(sRGB-IEC61966-2, 0.1, 0, 0, 0);stroke-miterlimit:10;-inkscape-stroke:none"
         d="m -55.330078,-69.380859 c -1.171661,0 -2.084437,1.058114 -1.904297,2.21289 l 10.306641,66.1191409 c 0.109664,0.70536936 0.607555,1.29133353 1.283203,1.52148435 l 22.279297,7.57812505 c 0.403786,0.1377464 0.841896,0.1374269 1.246093,0 L 0.16015625,0.47265625 0,0 0.16210937,0.47265625 C 0.83794867,0.24244008 1.3318383,-0.34407602 1.4414062,-1.0488281 L 11.75,-67.167969 c 0.181571,-1.15533 -0.733298,-2.21289 -1.9042969,-2.21289 H -22.742187 Z m 0,1 h 32.587891 32.5878901 c 0.5789999,0 1.0044439,0.495926 0.9160159,1.058593 L 0.453125,-1.2011719 c -0.0524319,0.33724688 -0.28707467,0.61673216 -0.61523437,0.72851565 L -22.441406,7.1054687 c -0.195803,0.066573 -0.407349,0.066253 -0.601563,0 l -22.279297,-7.57812495 c -0.328351,-0.11184883 -0.564851,-0.39188605 -0.617187,-0.72851565 L -56.246094,-67.322266 c -0.08786,-0.563222 0.335679,-1.058593 0.916016,-1.058593 z"
         id="path2" />
    </g>
    <text
       id="text1936-5-7-1"
       xml:space="preserve"
       x="-17.660227"
       y="-18.021738"
       style="font-size:4.23333px;fill:#ff0000;fill-opacity:1;stroke-width:0.352999;stroke-dasharray:none"
       transform="scale(-1)"><tspan
         style="font-variant:normal;font-weight:normal;font-stretch:normal;font-size:8.46667px;font-family:Osaka;writing-mode:lr-tb;fill:#ff0000;fill-opacity:1;fill-rule:nonzero;stroke:none;stroke-width:0.352999;stroke-dasharray:none"
         x="-17.660227"
         y="-18.021738"
         id="tspan1936-7-7-3">鵰</tspan></text>
    <path
       style="color:#000000;fill:#ff0000;stroke-width:0.352778;stroke-miterlimit:10;-inkscape-stroke:none"
       d="M 13.734235,6.2508537 V 13.180318 H 13.381458 V 6.2508537 Z"
       id="path1937-3-4-8" />
    <path
       style="color:#000000;fill:#ff0000;stroke-width:0.352778;stroke-miterlimit:10;-inkscape-stroke:none"
       d="M 13.558008,6.001266 14.577068,7.0210142 14.327643,7.2704391 13.558008,6.5001158 12.787685,7.2704391 12.53826,7.0210142 Z"
       id="path1941-8-2-3" />
    <path
       style="color:#000000;fill:#ff0000;stroke-width:0.352778;stroke-miterlimit:10;-inkscape-stroke:none"
       d="m 11.916189,8.7863779 4.898236,4.9009931 -0.249424,0.249424 -4.898237,-4.9009921 z"
       id="path1949-1-6-8" />
    <path
       style="color:#000000;fill:#ff0000;stroke-width:0.352778;stroke-miterlimit:10;-inkscape-stroke:none"
       d="m 15.20281,8.7870735 0.249425,0.2501142 -4.901682,4.8996143 -0.249425,-0.249425 z"
       id="path1955-7-4-2" />
    <path
       style="color:#000000;fill:#ff0000;stroke-width:0.352778;stroke-miterlimit:10;-inkscape-stroke:none"
       d="m 10.60203,12.546362 v 1.089339 h 1.08934 v 0.352778 h -1.442117 v -1.442117 z"
       id="path1983-8-1-6" />
    <path
       style="color:#000000;fill:#ff0000;stroke-width:0.352778;stroke-miterlimit:10;-inkscape-stroke:none"
       d="M 16.059491,10.503722 V 10.8565 H 11.05928 v -0.352778 z"
       id="path1829-8" />
    <path
       style="color:#000000;fill:#ff0000;stroke-width:0.352778;stroke-miterlimit:10;-inkscape-stroke:none"
       d="M 17.461071,6.5289162 17.710496,6.7783411 16.29594,8.1928973 16.046515,7.9434724 Z"
       id="path3069-9" />
    <path
       style="color:#000000;fill:#ff0000;stroke-width:0.352778;stroke-miterlimit:10;-inkscape-stroke:none"
       d="M 9.657479,6.5289162 11.072035,7.9434724 10.82261,8.1928973 9.4080541,6.7783411 Z"
       id="path3073-0" />
    <path
       style="color:#000000;fill:#ff0000;stroke-width:0.352778;stroke-miterlimit:10;-inkscape-stroke:none"
       d="m 16.866187,12.546614 v 1.442117 h -1.442116 v -0.352778 h 1.089339 v -1.089339 z"
       id="path1951-7-2-2" />
  </g>
</svg>
