<?xml version="1.0" encoding="UTF-8" standalone="no"?>
<!-- Created with Inkscape (http://www.inkscape.org/) -->

<svg
   width="27.116997mm"
   height="31.358999mm"
   viewBox="0 0 27.116997 31.358999"
   version="1.1"
   id="svg1"
   xmlns:xlink="http://www.w3.org/1999/xlink"
   xmlns="http://www.w3.org/2000/svg"
   xmlns:svg="http://www.w3.org/2000/svg">
  <defs
     id="defs1">
    <linearGradient
       id="linearGradient22">
      <stop
         style="stop-color:#ffdba6;stop-opacity:1;"
         offset="0"
         id="stop21" />
      <stop
         style="stop-color:#f2c478;stop-opacity:1;"
         offset="1"
         id="stop22" />
    </linearGradient>
    <linearGradient
       xlink:href="#linearGradient22"
       id="linearGradient2"
       x1="-1536.8401"
       y1="537.789"
       x2="-1536.8401"
       y2="616.02527"
       gradientUnits="userSpaceOnUse"
       gradientTransform="rotate(180,-797.22403,273.14694)" />
    <clipPath
       clipPathUnits="userSpaceOnUse"
       id="clipPath1936-4-4">
      <path
         d="M 0,2834.646 H 2834.646 V 0 H 0 Z"
         transform="translate(-1029.0414,-1221.1642)"
         id="path1936-6-3" />
    </clipPath>
  </defs>
  <g
     id="layer1">
    <g
       id="path1935-0-3"
       clip-path="url(#clipPath1936-4-4)"
       transform="matrix(-0.35277776,0,0,0.35277776,5.5369937,26.479675)">
      <path
         style="color:#000000;fill:url(#linearGradient2);stroke-miterlimit:10;-inkscape-stroke:none"
         d="m 0,0 -22.28,7.578 c -0.3,0.102 -0.625,0.102 -0.924,0 L -45.484,0 c -0.502,-0.171 -0.868,-0.604 -0.949,-1.125 l -10.308,-66.12 c -0.134,-0.859 0.535,-1.636 1.411,-1.636 h 32.588 32.588 c 0.875,0 1.545,0.777 1.41,1.636 L 0.948,-1.125 C 0.867,-0.604 0.502,-0.171 0,0"
         id="path1" />
      <path
         style="color:#000000;fill:#4d3608;stroke-miterlimit:10;-inkscape-stroke:none"
         d="m -55.330078,-69.730469 c -1.378858,0 -2.464427,1.255134 -2.251953,2.617188 l 10.308594,66.11914037 c 0.129751,0.83457398 0.718286,1.52722488 1.515625,1.79882813 l 22.279296,7.578125 c 0.47722,0.1627972 0.995439,0.1622539 1.472657,0 L 0.2734375,0.8046875 C 1.071102,0.5329731 1.6594743,-0.16061651 1.7890625,-0.99414063 L 12.095703,-67.113281 c 0.214208,-1.362997 -0.871567,-2.617188 -2.2499999,-2.617188 H -22.742187 Z m 0,1.699219 h 32.587891 32.5878901 c 0.3715659,0 0.6261039,0.299295 0.5703129,0.654297 L 0.10742187,-1.2558594 c -0.03241163,0.2084749 -0.17452486,0.38088664 -0.38085937,0.4511719 l -22.2812495,7.578125 c -0.122782,0.041746 -0.25422,0.041203 -0.375,0 l -22.279297,-7.578125 c -0.206661,-0.0703964 -0.350564,-0.2437469 -0.382813,-0.4511719 L -55.900391,-67.376953 c -0.05553,-0.355945 0.197172,-0.654297 0.570313,-0.654297 z"
         id="path2" />
    </g>
    <path
       style="fill:#000000 icc-color(sRGB-IEC61966-2, 0.1, 0, 0, 0);stroke-width:0.352777"
       d="m -14.982111,-18.137557 0.529167,-0.165364 q 0.06615,0.06615 0.297656,0.628385 l -0.56224,0.198438 q -0.23151,-0.595313 -0.264583,-0.661459 z m 1.256771,0 0.429948,-0.198437 q 0.198438,0.198437 0.396876,0.56224 l -0.463021,0.23151 q -0.06615,-0.132292 -0.165365,-0.297656 -0.09922,-0.132292 -0.198438,-0.297657 z m -2.248959,-0.297656 0.496094,0.231511 q -0.165365,0.429948 -0.396875,0.826823 l -0.496094,-0.264584 q 0.264583,-0.429948 0.396875,-0.79375 z m 4.564064,-1.455209 v -0.23151 h -3.406511 v 0.23151 z m 0,-0.529167 v -0.23151 h -3.406511 v 0.23151 z m -0.892969,-1.289844 v -0.330729 h -1.091406 v 0.330729 z m 0,-0.595313 v -0.297656 h -1.091406 v 0.297656 z m 0,-0.595312 v -0.33073 h -1.091406 v 0.33073 z m -2.645834,-1.190626 h -1.12448 v 0.628386 0.463021 q 0.661459,-0.496094 1.12448,-1.091407 z m 2.745053,0.496094 0.297656,-0.496094 h -1.223698 l 0.198438,0.165365 -0.297657,0.330729 z m -1.422136,-0.959115 v -0.529167 h 0.760677 v 0.529167 h 3.1088559 v 0.463021 h -1.8520839 l 0.330729,0.165365 -0.23151,0.330729 h 1.5213543 v 0.363802 h -1.6205733 v 0.33073 h 1.35599 v 0.297656 h -1.35599 v 0.297656 h 1.35599 v 0.264584 h -1.35599 v 0.330729 h 1.8520839 v 0.363802 h -3.1088559 l -0.09922,0.297657 h 2.215886 v 1.488281 h -4.06797 v 0.264584 h 5.1263037 v 0.297656 h -5.1263037 v 0.297657 h 4.8947932 q -0.099219,0.926042 -0.2645832,1.157552 -0.231511,0.231511 -1.025261,0.264584 -0.09922,-0.363803 -0.297656,-0.661459 h 0.529166 q 0.198438,0 0.231511,-0.03307 0.06615,-0.06615 0.09922,-0.429948 h -1.455209 q 0.09922,0.09922 0.198437,0.23151 0.09922,0.165365 0.132292,0.231511 0.06615,0.09922 0.09922,0.132292 l -0.463021,0.23151 -0.429948,-0.56224 0.429948,-0.264583 h -3.307293 v -2.645834 h 1.785938 l 0.09922,-0.297657 h -0.396875 v -1.455209 l -0.396875,0.396875 q -0.03307,-0.165364 -0.297657,-0.595312 0.264584,-0.198438 1.058334,-1.091407 h -0.992188 l 0.264584,0.264583 q -0.09922,0.09922 -0.198438,0.231511 -0.09922,0.132292 -0.264583,0.330729 v 1.984376 h -0.628386 v -1.389063 q -0.297657,0.297656 -0.463021,0.396875 -0.06615,-0.165364 -0.198438,-0.429948 0,1.752865 -0.06615,2.48047 -0.03307,0.628386 -0.23151,1.322917 -0.132292,0.529167 -0.529167,1.35599 l -0.529167,-0.56224 q 0.198438,-0.463021 0.396875,-1.02526 0.165365,-0.463021 0.198438,-0.992188 0.06615,-0.727605 0.06615,-1.190626 v -3.241147 z"
       id="text1936-5-7"
       transform="scale(-1)"
       aria-label="鷹" />
    <path
       style="color:#000000;fill:#000000 icc-color(sRGB-IEC61966-2, 0.1, 0, 0, 0);stroke-miterlimit:10;-inkscape-stroke:none"
       d="m -0.63867187,12.554688 v 12.55664 h 1.27734374 v -12.55664 z"
       id="path1937-3-4"
       transform="matrix(-0.35277776,0,0,0.35277776,13.558605,6.2507209)" />
    <path
       style="color:#000000;fill:#000000 icc-color(sRGB-IEC61966-2, 0.1, 0, 0, 0);stroke-miterlimit:10;-inkscape-stroke:none"
       d="M -25.111328,-0.63867187 V 0.63867187 H 0 v -1.27734374 z"
       id="path1943-7-1"
       transform="matrix(-0.35277776,0,0,0.35277776,9.1292947,10.680005)" />
    <path
       style="color:#000000;fill:#000000 icc-color(sRGB-IEC61966-2, 0.1, 0, 0, 0);stroke-miterlimit:10;-inkscape-stroke:none"
       d="M -0.45117188,-0.45117188 -18.207031,17.304687 -17.304687,18.207031 0.45117188,0.45117188 Z"
       id="path1949-1-6"
       transform="matrix(-0.35277776,0,0,0.35277776,10.4266,7.5480789)" />
    <path
       style="color:#000000;fill:#000000 icc-color(sRGB-IEC61966-2, 0.1, 0, 0, 0);stroke-miterlimit:10;-inkscape-stroke:none"
       d="m -17.304687,-18.207031 -0.902344,0.902344 17.75585912,17.75585888 0.90234376,-0.90234376 z"
       id="path1955-7-4"
       transform="matrix(-0.35277776,0,0,0.35277776,10.4266,13.811954)" />
  </g>
</svg>
