<?xml version="1.0" encoding="UTF-8" standalone="no"?>
<!-- Created with Inkscape (http://www.inkscape.org/) -->

<svg
   width="27.116999mm"
   height="31.358999mm"
   viewBox="0 0 27.116999 31.358999"
   version="1.1"
   id="svg1"
   inkscape:version="1.3.1 (91b66b0783, 2023-11-16)"
   sodipodi:docname="Template.svg"
   inkscape:export-filename="FAIRY CZECH (Mine)\Final Tori\0Falcon.svg"
   inkscape:export-xdpi="96"
   inkscape:export-ydpi="96"
   xmlns:inkscape="http://www.inkscape.org/namespaces/inkscape"
   xmlns:sodipodi="http://sodipodi.sourceforge.net/DTD/sodipodi-0.dtd"
   xmlns="http://www.w3.org/2000/svg"
   xmlns:svg="http://www.w3.org/2000/svg">
  <sodipodi:namedview
     id="namedview1"
     pagecolor="#ffffff"
     bordercolor="#999999"
     borderopacity="1"
     inkscape:showpageshadow="2"
     inkscape:pageopacity="0"
     inkscape:pagecheckerboard="0"
     inkscape:deskcolor="#d1d1d1"
     inkscape:document-units="mm"
     inkscape:zoom="2.932688"
     inkscape:cx="0"
     inkscape:cy="32.904966"
     inkscape:window-width="1920"
     inkscape:window-height="1009"
     inkscape:window-x="-8"
     inkscape:window-y="-8"
     inkscape:window-maximized="1"
     inkscape:current-layer="layer1" />
  <defs
     id="defs1">
    <clipPath
       clipPathUnits="userSpaceOnUse"
       id="clipPath1936-4-4-2">
      <path
         d="M 0,2834.646 H 2834.646 V 0 H 0 Z"
         transform="translate(-1029.0414,-1221.1642)"
         id="path1936-6-3" />
    </clipPath>
  </defs>
  <g
     inkscape:label="Layer 1"
     inkscape:groupmode="layer"
     id="layer1">
    <g
       id="path1935-0-3"
       clip-path="url(#clipPath1936-4-4-2)"
       transform="matrix(-0.35277776,0,0,0.35277776,5.533244,26.479971)">
      <path
         style="color:#000000;fill:#ffdb9d;stroke-miterlimit:10;-inkscape-stroke:none"
         d="m 0,0 -22.28,7.578 c -0.3,0.102 -0.625,0.102 -0.924,0 L -45.484,0 c -0.502,-0.171 -0.868,-0.604 -0.949,-1.125 l -10.308,-66.12 c -0.134,-0.859 0.535,-1.636 1.411,-1.636 h 32.588 32.588 c 0.875,0 1.545,0.777 1.41,1.636 L 0.948,-1.125 C 0.867,-0.604 0.502,-0.171 0,0"
         id="path2" />
      <path
         style="color:#000000;fill:#000000 icc-color(sRGB-IEC61966-2, 0.1, 0, 0, 0);stroke-miterlimit:10;-inkscape-stroke:none"
         d="m -55.330078,-69.519531 c -1.253142,0 -2.233871,1.136758 -2.041016,2.373047 L -47.0625,-1.0273437 c 0.117563,0.75617982 0.649544,1.38440708 1.373047,1.63085932 l 22.279297,7.57812498 c 0.432664,0.1475978 0.903024,0.1471904 1.335937,0 L 0.20507813,0.60351562 C 0.92882591,0.35698002 1.4606839,-0.27195127 1.578125,-1.0273437 L 11.886719,-67.146484 c 0.194405,-1.236997 -0.788443,-2.373047 -2.0410159,-2.373047 H -22.742187 Z m 0,1.27539 h 32.587891 32.5878901 c 0.4974249,0 0.8548909,0.419389 0.7792969,0.900391 L 0.31835938,-1.2226562 c -0.0445588,0.28660643 -0.2431863,0.52367652 -0.52343751,0.61914058 L -22.486328,6.9746094 c -0.166551,0.056162 -0.347012,0.056188 -0.511719,0 l -22.28125,-7.57812502 c -0.280496,-0.0955474 -0.479001,-0.33332155 -0.523437,-0.61914058 L -56.111328,-67.34375 c -0.07514,-0.481709 0.282394,-0.900391 0.78125,-0.900391 z"
         id="path3" />
    </g>
    <path
       style="fill:#000000 icc-color(sRGB-IEC61966-2, 0.1, 0, 0, 0);stroke-width:0.352777"
       d="m 14.978361,18.137852 -0.529167,0.165365 q -0.06615,-0.06615 -0.297656,-0.628386 l 0.562239,-0.198438 q 0.231511,0.595313 0.264584,0.661459 z m -1.256771,0 -0.429948,0.198438 q -0.198438,-0.198438 -0.396876,-0.56224 l 0.463021,-0.231511 q 0.06615,0.132292 0.165365,0.297657 0.09922,0.132291 0.198438,0.297656 z m 2.248959,0.297656 -0.496094,-0.23151 Q 15.63982,17.77405 15.87133,17.377175 l 0.496094,0.264583 q -0.264583,0.429948 -0.396875,0.79375 z m -4.564064,1.455209 v 0.231511 h 3.406511 v -0.231511 z m 0,0.529167 v 0.231511 h 3.406511 v -0.231511 z m 0.892969,1.289844 v 0.330729 h 1.091406 v -0.330729 z m 0,0.595313 v 0.297656 h 1.091406 v -0.297656 z m 0,0.595312 v 0.33073 h 1.091406 v -0.33073 z m 2.645834,1.190626 h 1.12448 v -0.628386 -0.463021 q -0.661459,0.496094 -1.12448,1.091407 z m -2.745053,-0.496094 -0.297657,0.496094 h 1.223699 l -0.198438,-0.165365 0.297657,-0.330729 z M 13.622371,24.554 v 0.529167 H 12.861693 V 24.554 H 9.752838 v -0.463021 h 1.852084 l -0.330729,-0.165365 0.23151,-0.330729 H 9.984349 v -0.363802 h 1.620573 v -0.33073 h -1.35599 v -0.297656 h 1.35599 v -0.297656 h -1.35599 v -0.264584 h 1.35599 V 21.709728 H 9.752838 v -0.363802 h 3.108855 l 0.09922,-0.297656 h -2.215886 v -1.488282 h 4.06797 V 19.295405 H 9.686693 v -0.297657 h 5.126304 V 18.700092 H 9.918204 q 0.09922,-0.926042 0.264583,-1.157553 0.231511,-0.23151 1.025261,-0.264583 0.09922,0.363802 0.297656,0.661458 h -0.529167 q -0.198437,0 -0.23151,0.03307 -0.06615,0.06615 -0.09922,0.429948 h 1.455209 q -0.09922,-0.09922 -0.198438,-0.23151 -0.09922,-0.165365 -0.132291,-0.231511 -0.06615,-0.09922 -0.09922,-0.132291 l 0.463021,-0.231511 0.429948,0.56224 -0.429948,0.264583 h 3.307293 v 2.645835 h -1.785938 l -0.09922,0.297656 H 13.9531 v 1.455212 l 0.396875,-0.396876 q 0.03307,0.165365 0.297657,0.595313 -0.264584,0.198438 -1.058334,1.091407 h 0.992188 l -0.264584,-0.264584 q 0.09922,-0.09922 0.198438,-0.23151 0.09922,-0.132292 0.264583,-0.330729 V 21.27978 h 0.628386 v 1.389063 q 0.297656,-0.297656 0.463021,-0.396875 0.06615,0.165364 0.198438,0.429948 0,-1.752865 0.06615,-2.480469 0.03307,-0.628386 0.231511,-1.322918 0.132292,-0.529167 0.529167,-1.35599 l 0.529167,0.56224 Q 17.227325,18.5678 17.028888,19.13004 16.863523,19.593061 16.83045,20.122228 16.7643,20.849832 16.7643,21.312853 V 24.554 Z"
       id="text1936-5-7"
       aria-label="鷹" />
    <path
       style="color:#000000;fill:#000000 icc-color(sRGB-IEC61966-2, 0.1, 0, 0, 0);stroke-width:0.352778;stroke-miterlimit:10;-inkscape-stroke:none"
       d="m 13.731244,10.680032 v 4.429704 h -0.352778 v -4.429704 z"
       id="path1937-3-4" />
    <path
       style="color:#000000;fill:#000000 icc-color(sRGB-IEC61966-2, 0.1, 0, 0, 0);stroke-width:0.352778;stroke-miterlimit:10;-inkscape-stroke:none"
       d="m 17.984262,10.503912 v 0.352777 H 9.125544 v -0.352777 z"
       id="path1943-7-1" />
    <path
       style="color:#000000;fill:#000000 icc-color(sRGB-IEC61966-2, 0.1, 0, 0, 0);stroke-width:0.352778;stroke-miterlimit:10;-inkscape-stroke:none"
       d="m 10.547561,7.4236621 6.263873,6.2638719 -0.249425,0.249425 -6.263872,-6.263872 z"
       id="path1949-1-6" />
    <path
       style="color:#000000;fill:#000000 icc-color(sRGB-IEC61966-2, 0.1, 0, 0, 0);stroke-width:0.352778;stroke-miterlimit:10;-inkscape-stroke:none"
       d="m 16.562009,7.4236658 0.249425,0.2494248 -6.263873,6.2638724 -0.249424,-0.249425 z"
       id="path1955-7-4" />
  </g>
</svg>
