<?xml version="1.0" encoding="UTF-8" standalone="no"?>
<!-- Created with Inkscape (http://www.inkscape.org/) -->

<svg
   width="30mm"
   height="34mm"
   viewBox="0 0 30 34"
   version="1.1"
   id="svg1"
   xmlns:xlink="http://www.w3.org/1999/xlink"
   xmlns="http://www.w3.org/2000/svg"
   xmlns:svg="http://www.w3.org/2000/svg">
  <defs
     id="defs1">
    <linearGradient
       id="linearGradient22">
      <stop
         style="stop-color:#ffdba6;stop-opacity:1;"
         offset="0"
         id="stop21" />
      <stop
         style="stop-color:#f2c478;stop-opacity:1;"
         offset="1"
         id="stop22" />
    </linearGradient>
    <linearGradient
       xlink:href="#linearGradient22"
       id="linearGradient35"
       gradientUnits="userSpaceOnUse"
       gradientTransform="translate(-1814.1718,-2423.6229)"
       x1="1975.6818"
       y1="2435.5293"
       x2="1975.6818"
       y2="2350.49" />
    <clipPath
       clipPathUnits="userSpaceOnUse"
       id="clipPath1460-2-7-9">
      <path
         d="M 0,2834.646 H 2834.646 V 0 H 0 Z"
         transform="translate(-1094.0025,-1215.6335)"
         id="path1460-8-7-0" />
    </clipPath>
    <clipPath
       clipPathUnits="userSpaceOnUse"
       id="clipPath2004-1-8-9-8">
      <path
         d="M 0,2834.646 H 2834.646 V 0 H 0 Z"
         transform="translate(-1148.7975,-1175.6119)"
         id="path2004-0-0-1-5" />
    </clipPath>
    <clipPath
       clipPathUnits="userSpaceOnUse"
       id="clipPath2004-1-8-9-8-2-0">
      <path
         d="M 0,2834.646 H 2834.646 V 0 H 0 Z"
         transform="translate(-1148.7975,-1175.6119)"
         id="path2004-0-0-1-5-8-8" />
    </clipPath>
    <clipPath
       clipPathUnits="userSpaceOnUse"
       id="clipPath2004-1-5-4-7">
      <path
         d="M 0,2834.646 H 2834.646 V 0 H 0 Z"
         transform="translate(-1148.7975,-1175.6119)"
         id="path2004-0-4-7-0" />
    </clipPath>
    <clipPath
       clipPathUnits="userSpaceOnUse"
       id="clipPath2004-1-8-9-8-2-0-3">
      <path
         d="M 0,2834.646 H 2834.646 V 0 H 0 Z"
         transform="translate(-1148.7975,-1175.6119)"
         id="path2004-0-0-1-5-8-8-0" />
    </clipPath>
  </defs>
  <g
     id="layer1"
     transform="translate(-120)">
    <g
       id="path80"
       clip-path="url(#clipPath1460-2-7-9)"
       transform="matrix(-0.35277729,0,0,0.35277776,129.06029,25.84846)">
      <path
         style="color:#000000;fill:url(#linearGradient35);stroke-miterlimit:10;-inkscape-stroke:none"
         d="m 0,0 -16.217,5.989 c -0.397,0.146 -0.844,0.146 -1.241,0 L -33.674,0 c -0.531,-0.196 -0.903,-0.627 -0.975,-1.131 l -7.687,-53.534 c -0.122,-0.848 0.627,-1.598 1.595,-1.598 h 23.904 23.903 c 0.969,0 1.718,0.75 1.596,1.598 L 0.975,-1.131 C 0.903,-0.627 0.531,-0.196 0,0"
         id="path122" />
      <path
         style="color:#000000;fill:#4d3608;stroke-miterlimit:10;-inkscape-stroke:none"
         d="m -40.740234,-57.113281 c -1.406573,0 -2.637944,1.165724 -2.4375,2.568359 l 7.6875,53.5351564 c 0.120395,0.84276505 0.731595,1.5150809 1.521484,1.8066406 l 16.216797,5.9902344 c 0.591076,0.2173731 1.237049,0.2173731 1.828125,0 L 0.29492188,0.796875 C 1.0848107,0.5053153 1.6960112,-0.16700055 1.8164062,-1.0097656 L 9.5039063,-54.542969 C 9.705831,-55.946511 8.4742052,-57.113281 7.0664062,-57.113281 H -16.837891 Z m 0,1.701172 h 23.902343 23.9042972 c 0.5301992,0 0.7959813,0.334497 0.7539063,0.626953 l -7.6875,53.5332029 c -0.0236048,0.1652339 -0.15562423,0.3546382 -0.42773438,0.4550781 L -16.511719,5.1914062 c -0.202585,0.07396 -0.450026,0.074404 -0.652343,0 L -33.378906,-0.796875 c -0.27211,-0.1004399 -0.40413,-0.2898442 -0.427735,-0.4550781 l -7.6875,-53.5332029 c -0.04208,-0.292456 0.225161,-0.626953 0.753907,-0.626953 z"
         id="path123" />
    </g>
    <path
       style="fill:#ff0000;stroke-width:0.353999"
       d="m -135.26343,-19.249628 0.39524,-0.06587 q 0.13174,0.658728 0.13174,1.021029 l -0.46111,0.03294 q 0,-0.131745 -0.0659,-0.988092 z m -0.7246,-0.131745 0.49404,0.09881 q -0.0329,0.263491 -0.13174,0.592855 -0.0988,0.329364 -0.19762,0.592855 l -0.49405,-0.197618 q 0.13175,-0.362301 0.32937,-1.086901 z m 1.48214,0.09881 0.42817,-0.131746 0.26349,0.856347 -0.42817,0.09881 q -0.13175,-0.526983 -0.26349,-0.82341 z m 0.79047,-0.09881 0.3623,-0.131746 q 0.13175,0.197618 0.3623,0.757537 l -0.39524,0.164682 q -0.26349,-0.658728 -0.32936,-0.790473 z m 0.49405,-2.404358 v -0.395237 h -1.84444 v 0.395237 z m 0,-0.856347 v -0.428173 h -1.84444 v 0.428173 z m -3.35952,-1.580947 h -1.48214 v 0.889283 1.976184 q 0.85635,-1.251583 1.48214,-2.865467 z m -2.20674,0.82341 0.0329,-1.515075 h 6.85077 v 0.691665 h -2.30555 l 0.42818,0.164682 -0.23056,0.494046 h 1.48214 v 2.206739 h -2.5361 v 0.428173 h 3.32657 v 0.46111 h -3.32657 v 0.362301 h 3.12896 l -0.0988,1.515074 q -0.0659,0.625792 -0.26349,0.757538 -0.23056,0.197618 -0.95516,0.197618 -0.0329,-0.09881 -0.0329,-0.230555 l -0.13174,-0.395237 h 0.52698 q 0.0988,0 0.13175,-0.09881 0.0329,-0.03294 0.13174,-1.251583 h -3.12896 v -3.952369 h 1.0869 l 0.23056,-0.658728 h -1.97619 l 0.52699,0.296428 -0.16469,0.3623 q -0.13174,0.263491 -0.59285,1.251583 v 4.644034 h -0.65873 v -3.491259 l -0.49404,0.757537 q -0.0988,-0.296428 -0.2635,-0.592855 -0.0988,1.976184 -0.69166,3.194831 -0.23056,-0.263491 -0.62579,-0.494046 0.3623,-0.889283 0.46111,-1.515075 0.16468,-0.922219 0.16468,-2.10793 z"
       id="text80"
       transform="scale(-0.99587062,-1.0041465)"
       aria-label="鴈" />
    <g
       id="path81"
       clip-path="url(#clipPath2004-1-8-9-8)"
       transform="matrix(-0.52949715,0,0,0.52275432,134.59442,8.5992408)">
      <path
         style="color:#000000;fill:#ff0000;fill-opacity:0;stroke-miterlimit:10;-inkscape-stroke:none"
         d="m 0,0 c -0.423,-0.423 -1.109,-0.423 -1.532,0 -0.423,0.423 -0.423,1.109 0,1.532 0.423,0.423 1.109,0.423 1.532,0 C 0.423,1.109 0.423,0.423 0,0 Z"
         id="path124" />
      <path
         style="color:#000000;fill:#ff0000;stroke-miterlimit:10;-inkscape-stroke:none"
         d="m -0.765625,-0.7421875 c -0.3875828,0 -0.7751226,0.14621633 -1.0683594,0.43945312 -0.5864736,0.5864736 -0.5864736,1.55024518 0,2.13671878 0.5864736,0.5864736 1.55024518,0.5864736 2.13671878,0 0.58647359,-0.5864736 0.58647359,-1.55024518 0,-2.13671878 C 0.00949758,-0.59597117 -0.37804223,-0.7421875 -0.765625,-0.7421875 Z m -0.4648437,1.04492188 c 0.25952551,-0.25952556 0.66820877,-0.25952556 0.92773432,0 0.25952556,0.25952555 0.25952556,0.66820881 0,0.92773432 -0.25952555,0.2595256 -0.66820881,0.2595256 -0.92773432,0 -0.2595256,-0.25952551 -0.2595256,-0.66820877 0,-0.92773432 z"
         id="path125" />
    </g>
    <g
       id="path82"
       clip-path="url(#clipPath2004-1-8-9-8-2-0)"
       transform="matrix(-0.37441097,-0.37441145,-0.36964265,0.36964313,132.16792,15.258168)">
      <path
         style="color:#000000;fill:#ff0000;fill-opacity:0;stroke-miterlimit:10;-inkscape-stroke:none"
         d="m 0,0 c -0.423,-0.423 -1.109,-0.423 -1.532,0 -0.423,0.423 -0.423,1.109 0,1.532 0.423,0.423 1.109,0.423 1.532,0 C 0.423,1.109 0.423,0.423 0,0 Z"
         id="path126" />
      <path
         style="color:#000000;fill:#ff0000;stroke-miterlimit:10;-inkscape-stroke:none"
         d="m -0.765625,-0.7421875 c -0.3875828,0 -0.7751226,0.14621633 -1.0683594,0.43945312 -0.5864736,0.5864736 -0.5864736,1.55024518 0,2.13671878 0.5864736,0.5864736 1.55024518,0.5864736 2.13671878,0 0.58647359,-0.5864736 0.58647359,-1.55024518 0,-2.13671878 C 0.00949758,-0.59597117 -0.37804223,-0.7421875 -0.765625,-0.7421875 Z m -0.4648437,1.04492188 c 0.25952551,-0.25952556 0.66820877,-0.25952556 0.92773432,0 0.25952556,0.25952555 0.25952556,0.66820881 0,0.92773432 -0.25952555,0.2595256 -0.66820881,0.2595256 -0.92773432,0 -0.2595256,-0.25952551 -0.2595256,-0.66820877 0,-0.92773432 z"
         id="path127" />
    </g>
    <g
       id="path83"
       clip-path="url(#clipPath2004-1-5-4-7)"
       transform="matrix(-0.24945132,0.24945155,0.24945132,0.24945155,134.61786,12.999579)">
      <path
         style="color:#000000;fill:#ff0006;stroke-miterlimit:10;-inkscape-stroke:none"
         d="m 0,0 c -0.423,-0.423 -1.109,-0.423 -1.532,0 -0.423,0.423 -0.423,1.109 0,1.532 0.423,0.423 1.109,0.423 1.532,0 C 0.423,1.109 0.423,0.423 0,0 Z"
         id="path128" />
      <path
         style="color:#000000;fill:#ff0000;stroke-miterlimit:10;-inkscape-stroke:none"
         d="m -0.765625,-0.95117188 c -0.4417949,0 -0.8833986,0.16660177 -1.2167969,0.5 -0.6667964,0.66679647 -0.6667964,1.76679728 0,2.43359378 0.6667965,0.6667964 1.76679731,0.6667964 2.43359378,0 0.66679642,-0.6667965 0.66679642,-1.76679731 0,-2.43359378 -0.33339824,-0.33339823 -0.77500203,-0.5 -1.21679688,-0.5 z m -0.3144531,1.40234376 c 0.17920267,-0.1792027 0.44970353,-0.1792027 0.62890622,0 0.1792027,0.17920269 0.1792027,0.44970355 0,0.62890622 -0.17920269,0.1792027 -0.44970355,0.1792027 -0.62890622,0 -0.1792027,-0.17920267 -0.1792027,-0.44970353 0,-0.62890622 z"
         id="path129" />
    </g>
    <g
       id="path84"
       clip-path="url(#clipPath2004-1-8-9-8-2-0-3)"
       transform="matrix(-0.37441097,0.37441145,0.36964265,0.36964313,137.25851,15.831759)">
      <path
         style="color:#000000;fill:#ff0000;fill-opacity:0;stroke-miterlimit:10;-inkscape-stroke:none"
         d="m 0,0 c -0.423,-0.423 -1.109,-0.423 -1.532,0 -0.423,0.423 -0.423,1.109 0,1.532 0.423,0.423 1.109,0.423 1.532,0 C 0.423,1.109 0.423,0.423 0,0 Z"
         id="path130" />
      <path
         style="color:#000000;fill:#ff0000;stroke-miterlimit:10;-inkscape-stroke:none"
         d="m -0.765625,-0.7421875 c -0.3875828,0 -0.7751226,0.14621633 -1.0683594,0.43945312 -0.5864736,0.5864736 -0.5864736,1.55024518 0,2.13671878 0.5864736,0.5864736 1.55024518,0.5864736 2.13671878,0 0.58647359,-0.5864736 0.58647359,-1.55024518 0,-2.13671878 C 0.00949758,-0.59597117 -0.37804223,-0.7421875 -0.765625,-0.7421875 Z m -0.4648437,1.04492188 c 0.25952551,-0.25952556 0.66820877,-0.25952556 0.92773432,0 0.25952556,0.25952555 0.25952556,0.66820881 0,0.92773432 -0.25952555,0.2595256 -0.66820881,0.2595256 -0.92773432,0 -0.2595256,-0.25952551 -0.2595256,-0.66820877 0,-0.92773432 z"
         id="path131" />
    </g>
  </g>
</svg>
