<?xml version="1.0" encoding="UTF-8" standalone="no"?>
<!-- Created with Inkscape (http://www.inkscape.org/) -->

<svg
   width="27.116999mm"
   height="31.358999mm"
   viewBox="0 0 27.116999 31.358999"
   version="1.1"
   id="svg1"
   inkscape:version="1.3.1 (91b66b0783, 2023-11-16)"
   sodipodi:docname="Template.svg"
   inkscape:export-filename="FAIRY CZECH (Mine)\Final Tori\0Phoenix.svg"
   inkscape:export-xdpi="96"
   inkscape:export-ydpi="96"
   xmlns:inkscape="http://www.inkscape.org/namespaces/inkscape"
   xmlns:sodipodi="http://sodipodi.sourceforge.net/DTD/sodipodi-0.dtd"
   xmlns="http://www.w3.org/2000/svg"
   xmlns:svg="http://www.w3.org/2000/svg">
  <sodipodi:namedview
     id="namedview1"
     pagecolor="#ffffff"
     bordercolor="#999999"
     borderopacity="1"
     inkscape:showpageshadow="2"
     inkscape:pageopacity="0"
     inkscape:pagecheckerboard="0"
     inkscape:deskcolor="#d1d1d1"
     inkscape:document-units="mm"
     inkscape:zoom="2.932688"
     inkscape:cx="0"
     inkscape:cy="32.904966"
     inkscape:window-width="1920"
     inkscape:window-height="1009"
     inkscape:window-x="-8"
     inkscape:window-y="-8"
     inkscape:window-maximized="1"
     inkscape:current-layer="layer1" />
  <defs
     id="defs1">
    <clipPath
       clipPathUnits="userSpaceOnUse"
       id="clipPath1936-4-4">
      <path
         d="M 0,2834.646 H 2834.646 V 0 H 0 Z"
         transform="translate(-1029.0414,-1221.1642)"
         id="path1936-6-2" />
    </clipPath>
  </defs>
  <g
     inkscape:label="Layer 1"
     inkscape:groupmode="layer"
     id="layer1">
    <g
       id="path1935-0"
       clip-path="url(#clipPath1936-4-4)"
       transform="matrix(-0.35277776,0,0,0.35277776,5.533244,26.479971)">
      <path
         style="color:#000000;fill:#ffdb9d;stroke-miterlimit:10;-inkscape-stroke:none"
         d="m 0,0 -22.28,7.578 c -0.3,0.102 -0.625,0.102 -0.924,0 L -45.484,0 c -0.502,-0.171 -0.868,-0.604 -0.949,-1.125 l -10.308,-66.12 c -0.134,-0.859 0.535,-1.636 1.411,-1.636 h 32.588 32.588 c 0.875,0 1.545,0.777 1.41,1.636 L 0.948,-1.125 C 0.867,-0.604 0.502,-0.171 0,0"
         id="path1" />
      <path
         style="color:#000000;fill:#000000 icc-color(sRGB-IEC61966-2, 0.1, 0, 0, 0);stroke-miterlimit:10;-inkscape-stroke:none"
         d="m -55.330078,-69.519531 c -1.253142,0 -2.233871,1.136758 -2.041016,2.373047 L -47.0625,-1.0273437 c 0.117563,0.75617982 0.649544,1.38440708 1.373047,1.63085932 l 22.279297,7.57812498 c 0.432664,0.1475978 0.903024,0.1471904 1.335937,0 L 0.20507813,0.60351562 C 0.92882591,0.35698002 1.4606839,-0.27195127 1.578125,-1.0273437 L 11.886719,-67.146484 c 0.194405,-1.236997 -0.788443,-2.373047 -2.0410159,-2.373047 H -22.742187 Z m 0,1.27539 h 32.587891 32.5878901 c 0.4974249,0 0.8548909,0.419389 0.7792969,0.900391 L 0.31835938,-1.2226562 c -0.0445588,0.28660643 -0.2431863,0.52367652 -0.52343751,0.61914058 L -22.486328,6.9746094 c -0.166551,0.056162 -0.347012,0.056188 -0.511719,0 l -22.28125,-7.57812502 c -0.280496,-0.0955474 -0.479001,-0.33332155 -0.523437,-0.61914058 L -56.111328,-67.34375 c -0.07514,-0.481709 0.282394,-0.900391 0.78125,-0.900391 z"
         id="path2" />
    </g>
    <path
       d="m 12.448299,18.104584 0.09922,0.992188 -0.33073,0.06615 q -0.03307,-0.165365 -0.06615,-0.396875 -0.06615,-0.231511 -0.09922,-0.595313 z m 0.56224,-0.09922 0.363802,0.09922 q -0.06615,0.198438 -0.264584,1.091407 l -0.396875,-0.06615 q 0.165365,-0.760678 0.297657,-1.12448 z m -1.256772,0.297657 0.231511,0.826823 -0.330729,0.09922 -0.231511,-0.826824 z m -0.661458,0.165364 0.297656,0.79375 -0.297656,0.132292 q -0.297657,-0.694531 -0.33073,-0.79375 z m 4.960939,2.381252 v 1.223698 h 0.56224 v -1.223698 z m 0,1.785938 v 1.289844 h 0.56224 v -1.289844 z m 1.091407,-1.620573 v 3.538803 h -1.653647 v -5.9862 q 0,-0.463021 0.132292,-0.595313 0.198438,-0.198437 0.760677,-0.330729 0.03307,0.264583 0.264584,0.661459 h -0.429948 q -0.09922,0 -0.132292,0.03307 -0.03307,0.03307 -0.03307,0.132292 v 1.752867 h 0.59531 q 0.06615,-1.322917 0.06615,-1.322917 0,-0.03307 0.165364,-0.760677 0.06615,-0.363802 0.231511,-0.760678 0.165365,0.165365 0.496094,0.429949 -0.165365,0.396875 -0.330729,1.058333 -0.03307,0.231511 -0.09922,0.760678 -0.03307,0.496094 -0.03307,1.389063 z m -3.108856,-0.165365 v 1.223698 h 0.56224 v -1.223698 z m 0,1.785938 v 1.289844 h 0.56224 v -1.289844 z m 1.091407,-2.414324 v 4.332554 H 13.47356 v -6.416148 q 0,-0.297656 0.165364,-0.463021 0.198438,-0.198438 0.793751,-0.330729 0.09922,0.330729 0.264583,0.727604 h -0.496094 q -0.06615,0 -0.132292,0.06615 -0.03307,0.03307 -0.03307,0.09922 v 1.984375 h 0.56224 q 0.06615,-0.859896 0.09922,-1.157552 0.03307,-0.363802 0.165365,-0.859896 0.06615,-0.297657 0.297656,-0.826824 0.132292,0.09922 0.297656,0.231511 0.132292,0.09922 0.165365,0.09922 -0.496094,1.157552 -0.496094,2.513542 z m -4.167189,1.852084 v 0.529167 h 1.422136 v -0.529167 z m 0,1.058334 v 0.463021 h 1.422136 v -0.463021 z m 0.297656,1.752865 0.165365,-0.661458 h -1.190625 v -2.678908 h 2.14974 v -0.46302 H 9.802464 v -0.56224 h 2.579689 V 20.055887 H 9.967829 l 0.06615,-1.389063 q 0.06615,-0.859896 0.23151,-1.091407 0.264584,-0.264583 1.025261,-0.363802 0.132292,0.396875 0.297657,0.727604 h -0.595313 q -0.132292,0 -0.198438,0.06615 -0.03307,0.03307 -0.03307,0.264584 l -0.09922,1.289844 h 2.381246 v 4.663279 H 12.11757 l -0.09922,0.760677 z"
       id="text1936-5"
       style="-inkscape-font-specification:Osaka;stroke-width:0.352777"
       aria-label="鵬" />
    <path
       style="color:#000000;fill:#000000 icc-color(sRGB-IEC61966-2, 0.1, 0, 0, 0);stroke-width:0.352778;stroke-miterlimit:10;-inkscape-stroke:none"
       d="M 13.731244,6.2510155 V 15.109734 H 13.378466 V 6.2510155 Z"
       id="path1937-3" />
    <path
       style="color:#000000;fill:#000000 icc-color(sRGB-IEC61966-2, 0.1, 0, 0, 0);stroke-width:0.352778;stroke-miterlimit:10;-inkscape-stroke:none"
       d="m 17.984263,10.503911 v 0.352777 H 9.125545 v -0.352777 z"
       id="path1943-7" />
    <path
       style="color:#000000;fill:#000000 icc-color(sRGB-IEC61966-2, 0.1, 0, 0, 0);stroke-width:0.352778;stroke-miterlimit:10;-inkscape-stroke:none"
       d="M 10.547562,7.4236611 16.811435,13.687533 16.56201,13.936958 10.298138,7.673086 Z"
       id="path1949-1" />
    <path
       style="color:#000000;fill:#000000 icc-color(sRGB-IEC61966-2, 0.1, 0, 0, 0);stroke-width:0.352778;stroke-miterlimit:10;-inkscape-stroke:none"
       d="m 16.56201,7.4236648 0.249425,0.2494248 -6.263873,6.2638724 -0.249424,-0.249425 z"
       id="path1955-7" />
  </g>
</svg>
