<?xml version="1.0" encoding="UTF-8" standalone="no"?>
<!-- Created with Inkscape (http://www.inkscape.org/) -->

<svg
   width="27.116999mm"
   height="31.358999mm"
   viewBox="0 0 27.116999 31.358999"
   version="1.1"
   id="svg1"
   inkscape:version="1.3.1 (91b66b0783, 2023-11-16)"
   sodipodi:docname="Template.svg"
   inkscape:export-filename="FAIRY CZECH (Mine)\Final Tori/0Swallow.svg"
   inkscape:export-xdpi="96"
   inkscape:export-ydpi="96"
   xmlns:inkscape="http://www.inkscape.org/namespaces/inkscape"
   xmlns:sodipodi="http://sodipodi.sourceforge.net/DTD/sodipodi-0.dtd"
   xmlns="http://www.w3.org/2000/svg"
   xmlns:svg="http://www.w3.org/2000/svg">
  <sodipodi:namedview
     id="namedview1"
     pagecolor="#ffffff"
     bordercolor="#999999"
     borderopacity="1"
     inkscape:showpageshadow="2"
     inkscape:pageopacity="0"
     inkscape:pagecheckerboard="0"
     inkscape:deskcolor="#d1d1d1"
     inkscape:document-units="mm"
     inkscape:zoom="2.932688"
     inkscape:cx="0"
     inkscape:cy="32.904966"
     inkscape:window-width="1920"
     inkscape:window-height="1009"
     inkscape:window-x="-8"
     inkscape:window-y="-8"
     inkscape:window-maximized="1"
     inkscape:current-layer="layer1" />
  <defs
     id="defs1">
    <clipPath
       clipPathUnits="userSpaceOnUse"
       id="clipPath1460-2">
      <path
         d="M 0,2834.646 H 2834.646 V 0 H 0 Z"
         transform="translate(-1094.0025,-1215.6335)"
         id="path1460-8" />
    </clipPath>
  </defs>
  <g
     inkscape:label="Layer 1"
     inkscape:groupmode="layer"
     id="layer1">
    <g
       id="path1459-6"
       clip-path="url(#clipPath1460-2)"
       transform="matrix(0.35277776,0,0,-0.35277776,19.49572,6.8317078)">
      <path
         style="color:#000000;fill:#ffdb9d;stroke-miterlimit:10;-inkscape-stroke:none"
         d="m 0,0 -16.217,5.989 c -0.397,0.146 -0.844,0.146 -1.241,0 L -33.674,0 c -0.531,-0.196 -0.903,-0.627 -0.975,-1.131 l -7.687,-53.534 c -0.122,-0.848 0.627,-1.598 1.595,-1.598 h 23.904 23.903 c 0.969,0 1.718,0.75 1.596,1.598 L 0.975,-1.131 C 0.903,-0.627 0.531,-0.196 0,0"
         id="path10" />
      <path
         style="color:#000000;fill:#000000 icc-color(sRGB-IEC61966-2, 0.1, 0, 0, 0);stroke-miterlimit:10;-inkscape-stroke:none"
         d="m -40.740234,-56.900391 c -1.297286,0 -2.408479,1.061709 -2.226563,2.326172 l 7.6875,53.5332034 c 0.10828,0.75795563 0.659689,1.37103541 1.384766,1.63867185 l 16.216797,5.99023435 c 0.542489,0.199505 1.139151,0.199505 1.68164,0 L 0.22070313,0.59765625 C 0.94577939,0.33001981 1.4971894,-0.28305997 1.6054687,-1.0410156 L 9.2929688,-54.574219 c 0.1819156,-1.264463 -0.9286165,-2.326172 -2.2265626,-2.326172 H -16.837891 Z m 0,1.275391 h 23.902343 23.9042972 c 0.640052,0 1.0269279,0.437605 0.9648438,0.869141 l -7.6875,53.5351559 c -0.0357205,0.25004331 -0.22753045,0.49868368 -0.56445313,0.62304685 L -16.4375,5.390625 c -0.250896,0.092269 -0.547707,0.091819 -0.798828,0 h -0.002 l -16.214844,-5.98828125 c -0.336923,-0.12436317 -0.528733,-0.37300354 -0.564453,-0.62304685 l -7.6875,-53.5351559 c -0.06208,-0.431536 0.326131,-0.869141 0.964844,-0.869141 z"
         id="path11" />
    </g>
    <path
       style="color:#000000;fill:#000000 icc-color(sRGB-IEC61966-2, 0.1, 0, 0, 0);stroke-miterlimit:10;-inkscape-stroke:none"
       d="m -0.42578125,0 v 8.5039063 h 0.8515625 V 0 Z"
       id="path1461-1"
       transform="matrix(0.35277776,0,0,-0.35277776,13.306084,20.680208)" />
    <path
       style="fill:#000000 icc-color(sRGB-IEC61966-2, 0.1, 0, 0, 0);stroke-width:0.35424"
       d="m 12.4558,15.027843 -0.496094,-1.223698 0.628386,-0.264584 q 0.297656,0.56224 0.56224,1.223699 z m 1.422136,-1.190625 0.595313,-0.33073 q 0.363802,0.429948 0.727604,1.058334 l -0.628385,0.429948 q -0.231511,-0.429948 -0.694532,-1.157552 z m -3.208074,-0.396876 0.661459,0.429949 q -0.463021,0.826823 -0.89297,1.256771 L 9.74382,14.664041 q 0.1653646,-0.231511 0.297656,-0.363802 0.132292,-0.132292 0.165365,-0.198438 0.09922,-0.132292 0.165365,-0.23151 0.09922,-0.09922 0.297656,-0.429949 z m 5.027085,0.297657 0.628386,-0.429948 q 0.628386,0.694531 1.025261,1.289844 l -0.694532,0.529167 Q 16.523771,14.895551 16.193041,14.333312 16.06075,14.068728 15.696947,13.737999 Z M 14.076374,12.084352 V 10.9268 h -0.959115 v 1.157552 z m -1.68672,0.926042 v -2.71198 h 2.414324 v 2.71198 h -0.727604 v -0.264583 h -0.959115 v 0.264583 z m 2.877345,-0.595312 V 9.5708096 h 0.727605 v 0.8598964 q 0.496094,-0.165365 1.025261,-0.4630212 l 0.363802,0.6945312 q -0.529167,0.231511 -1.389063,0.429948 v 1.058334 q 0,0.09922 0.06615,0.165365 0.06615,0.06615 0.132291,0.06615 h 0.297657 q 0.165364,0 0.198437,-0.09922 0.03307,-0.03307 0.198438,-0.529167 0.363802,0.330729 0.661458,0.363802 -0.23151,0.661459 -0.396875,0.826823 -0.132291,0.132292 -0.595312,0.132292 h -0.56224 q -0.396875,0 -0.56224,-0.165364 -0.165365,-0.165365 -0.165365,-0.496094 z M 11.165956,10.298414 V 9.5708096 h 0.760677 v 3.5388034 h -0.760677 v -0.628386 q -0.198438,0.06615 -1.1906255,0.463021 L 9.710747,12.183571 q 0.959115,-0.23151 1.455209,-0.463021 V 10.959873 H 9.9091846 V 10.298414 Z M 14.175593,9.2070074 V 8.6778405 h -1.12448 v 0.5291669 z m 0,-1.2567713 V 7.3879963 h 0.760677 v 0.5622398 h 2.348178 V 8.6778405 H 14.93627 V 9.868466 H 12.290436 V 8.6778405 H 9.8761117 V 7.9502361 H 12.290436 V 7.3879963 h 0.760677 v 0.5622398 z"
       id="text1462-1"
       transform="scale(0.99587063,1.0041465)"
       aria-label="燕" />
  </g>
</svg>
