<?xml version="1.0" encoding="UTF-8" standalone="no"?>
<!-- Created with Inkscape (http://www.inkscape.org/) -->

<svg
   width="27.116997mm"
   height="31.358999mm"
   viewBox="0 0 27.116997 31.358999"
   version="1.1"
   id="svg1"
   xmlns="http://www.w3.org/2000/svg"
   xmlns:svg="http://www.w3.org/2000/svg">
  <defs
     id="defs1">
    <clipPath
       clipPathUnits="userSpaceOnUse"
       id="clipPath1460-2">
      <path
         d="M 0,2834.646 H 2834.646 V 0 H 0 Z"
         transform="translate(-1094.0025,-1215.6335)"
         id="path1460-8" />
    </clipPath>
  </defs>
  <g
     id="layer1">
    <g
       id="path1459-6"
       clip-path="url(#clipPath1460-2)"
       transform="matrix(-0.35277776,0,0,0.35277776,7.6163457,24.528053)">
      <path
         style="color:#000000;fill:#ffdb9d;stroke-miterlimit:10;-inkscape-stroke:none"
         d="m 0,0 -16.217,5.989 c -0.397,0.146 -0.844,0.146 -1.241,0 L -33.674,0 c -0.531,-0.196 -0.903,-0.627 -0.975,-1.131 l -7.687,-53.534 c -0.122,-0.848 0.627,-1.598 1.595,-1.598 h 23.904 23.903 c 0.969,0 1.718,0.75 1.596,1.598 L 0.975,-1.131 C 0.903,-0.627 0.531,-0.196 0,0"
         id="path10" />
      <path
         style="color:#000000;fill:#000000 icc-color(sRGB-IEC61966-2, 0.1, 0, 0, 0);stroke-miterlimit:10;-inkscape-stroke:none"
         d="m -40.740234,-56.900391 c -1.297286,0 -2.408479,1.061709 -2.226563,2.326172 l 7.6875,53.5332034 c 0.10828,0.75795563 0.659689,1.37103541 1.384766,1.63867185 l 16.216797,5.99023435 c 0.542489,0.199505 1.139151,0.199505 1.68164,0 L 0.22070313,0.59765625 C 0.94577939,0.33001981 1.4971894,-0.28305997 1.6054687,-1.0410156 L 9.2929688,-54.574219 c 0.1819156,-1.264463 -0.9286165,-2.326172 -2.2265626,-2.326172 H -16.837891 Z m 0,1.275391 h 23.902343 23.9042972 c 0.640052,0 1.0269279,0.437605 0.9648438,0.869141 l -7.6875,53.5351559 c -0.0357205,0.25004331 -0.22753045,0.49868368 -0.56445313,0.62304685 L -16.4375,5.390625 c -0.250896,0.092269 -0.547707,0.091819 -0.798828,0 h -0.002 l -16.214844,-5.98828125 c -0.336923,-0.12436317 -0.528733,-0.37300354 -0.564453,-0.62304685 l -7.6875,-53.5351559 c -0.06208,-0.431536 0.326131,-0.869141 0.964844,-0.869141 z"
         id="path11" />
    </g>
    <path
       style="color:#000000;fill:#000000 icc-color(sRGB-IEC61966-2, 0.1, 0, 0, 0);stroke-width:0.352778;stroke-miterlimit:10;-inkscape-stroke:none"
       d="m 13.956188,10.679553 v 2.999989 h -0.300412 v -2.999989 z"
       id="path1461-1" />
    <path
       style="fill:#000000 icc-color(sRGB-IEC61966-2, 0.1, 0, 0, 0);stroke-width:0.35424"
       d="m 14.7077,16.269605 0.494046,1.228772 -0.625791,0.265681 q -0.296427,-0.564571 -0.559919,-1.228773 z m -1.416263,1.195562 -0.592855,0.332101 q -0.3623,-0.43173 -0.724599,-1.062722 l 0.62579,-0.431731 q 0.230555,0.431731 0.691664,1.162352 z m 3.194827,0.398522 -0.658728,-0.431732 q 0.461109,-0.830251 0.889283,-1.261982 l 0.691663,0.464941 q -0.164682,0.232471 -0.296427,0.36531 -0.131746,0.132841 -0.164682,0.199261 -0.09881,0.132841 -0.164683,0.23247 -0.09881,0.09963 -0.296426,0.431732 z m -5.006327,-0.298892 -0.625791,0.431731 Q 10.228355,17.299117 9.8331187,16.701336 l 0.6916643,-0.531361 q 0.131744,0.232471 0.461109,0.797041 0.131744,0.265681 0.494045,0.597781 z m 1.613881,1.660504 v 1.162352 h 0.955155 v -1.162352 z m 1.679755,-0.929882 v 2.723226 h -2.404354 v -2.723226 h 0.724599 V 18.5611 h 0.955155 V 18.295419 Z M 11.90811,18.8932 v 2.856066 h -0.724601 v -0.863462 q -0.494045,0.166051 -1.021027,0.464941 L 9.8001823,20.653334 q 0.5269817,-0.232471 1.3833267,-0.431731 v -1.062722 q 0,-0.09963 -0.06588,-0.166051 -0.06588,-0.06642 -0.131745,-0.06642 H 10.68946 q -0.164681,0 -0.197618,0.09963 -0.03293,0.03321 -0.197618,0.531362 -0.3623,-0.332101 -0.6587268,-0.365311 0.230554,-0.664202 0.3952358,-0.830251 0.131745,-0.132841 0.592854,-0.132841 h 0.559918 q 0.395237,0 0.559919,0.16605 0.164682,0.166051 0.164682,0.498151 z m 4.084108,2.125445 v 0.730621 h -0.757536 v -3.553477 h 0.757536 v 0.630992 q 0.197619,-0.06642 1.185709,-0.464941 l 0.263491,0.763831 q -0.955154,0.23247 -1.4492,0.464941 v 0.763831 H 17.2438 v 0.664202 z m -2.997209,1.095932 v 0.531361 h 1.119837 v -0.531361 z m 0,1.261982 V 23.94113 H 12.237473 V 23.376559 H 9.8989916 v -0.730621 h 2.3384814 v -1.195562 h 2.634908 v 1.195562 h 2.404355 v 0.730621 h -2.404355 v 0.564571 h -0.757535 v -0.564571 z"
       id="text1462-1"
       aria-label="燕" />
  </g>
</svg>
