<?xml version="1.0" encoding="UTF-8" standalone="no"?>
<svg
   viewBox="0 0 158.84819 154.43781"
   version="1.1"
   id="svg7"
   sodipodi:docname="w+r.svg"
   width="158.84819"
   height="154.43781"
   inkscape:version="1.3.2 (091e20ef0f, 2023-11-25)"
   xmlns:inkscape="http://www.inkscape.org/namespaces/inkscape"
   xmlns:sodipodi="http://sodipodi.sourceforge.net/DTD/sodipodi-0.dtd"
   xmlns="http://www.w3.org/2000/svg"
   xmlns:svg="http://www.w3.org/2000/svg">
  <defs
     id="defs7">
    <linearGradient
       id="a"
       gradientUnits="userSpaceOnUse"
       x1="23.898348"
       x2="85.692467"
       y1="24.665611"
       y2="24.665611"
       gradientTransform="matrix(3.5434,0,0,3.5434,-9.1609105,-10.181225)">
      <stop
         offset="0"
         stop-color="#fae4ed"
         id="stop1"
         style="stop-color:#5984bd;stop-opacity:1;" />
      <stop
         offset="1"
         stop-color="#1f1a17"
         stop-opacity=".992157"
         id="stop2" />
    </linearGradient>
  </defs>
  <sodipodi:namedview
     id="namedview7"
     pagecolor="#ffffff"
     bordercolor="#000000"
     borderopacity="0.25"
     inkscape:showpageshadow="2"
     inkscape:pageopacity="0.0"
     inkscape:pagecheckerboard="0"
     inkscape:deskcolor="#d1d1d1"
     inkscape:zoom="7.3362328"
     inkscape:cx="52.820025"
     inkscape:cy="98.074859"
     inkscape:window-width="3840"
     inkscape:window-height="2160"
     inkscape:window-x="0"
     inkscape:window-y="0"
     inkscape:window-maximized="1"
     inkscape:current-layer="svg7" />
  <g
     fill="none"
     id="g8"
     transform="matrix(3.5434,0,0,3.5434,-9.1609105,-10.181225)">
    <path
       d="m 26.341424,13.008607 c -0.514209,2.168806 1.319178,4.477545 4.074683,5.206803 -1.981286,1.324762 -2.641075,2.645817 -2.641075,2.645817 0.888575,0.02808 3.159128,0.559584 3.967877,1.911024 -0.374777,0.122914 -2.317671,0.770861 -2.60722,1.968586"
       opacity="0.99"
       stroke="#000000"
       stroke-width="1.46727"
       id="path2" />
    <path
       d="m 30.810648,24.959271 c 7.612869,-2.294517 12.386243,1.150387 14.724444,5.683122"
       opacity="0.99"
       stroke="#000000"
       stroke-width="1.46727"
       id="path3" />
    <path
       d="m 33.342227,27.284184 c 8.204554,0.286176 5.971514,9.729585 3.926511,14.827771"
       opacity="0.99"
       stroke="#000000"
       stroke-width="1.46727"
       id="path4" />
    <path
       d="m 37.785387,24.442623 c 3.396453,1.847012 6.234861,4.399797 5.011482,12.089537"
       opacity="0.99"
       stroke="#000000"
       stroke-width="1.46727"
       id="path5" />
    <path
       d="m 16.964506,19.792797 c 2.031751,-2.742152 3.831359,-5.762874 7.181397,-6.923074"
       opacity="0.99"
       stroke="#000000"
       stroke-width="1.46727"
       id="path6" />
    <path
       d="m 20.529371,22.78935 c 2.566015,-0.311152 5.132032,-0.475704 7.698046,-0.103328"
       opacity="0.99"
       stroke="#000000"
       stroke-width="1.46727"
       id="path7" />
    <path
       d="m 20.012725,20.671092 c 1.413062,-1.767844 4.222835,-2.278659 6.97474,-2.841551"
       opacity="0.99"
       stroke="#000000"
       stroke-width="1.46727"
       id="path8" />
  </g>
  <path
     d="m 75.322579,81.526505 c -18.02657,4.63262 -22.92908,35.124715 -38.05806,47.637325 -2.6267,-1.3148 -2.95542,-4.25628 -2.84789,-10.35595 l -10.09703,-5.43689 11.21343,-3.47728 -5.25876,-4.28965 11.87609,-2.50584 -3.85024,-7.850075 9.90227,0.0546 0.71255,-9.89275 4.91907,-2.58898 v -7.76696 l -2.58898,-3.88347 -4.14238,0.51782 0.25888,3.62454 -5.16373,2.09969 -0.42991,7.74077 c -3.23218,-1.59986 -2.83541,2.24402 -6.70288,0.80045 l -0.27787,4.14478 -7.50804,-0.25881 -1.66501,12.657515 c -1.69385,-1.38078 -3.75166,0.92949 -8.19211,-0.45132 -1.37569,8.11215 -1.37195,11.75658 -1.38712,19.86872 L 3.8666395,104.82742 c 0.96393,-2.34576 3.59552,-2.13656 5.43685,-7.508005 -0.16126,-3.74835 -0.30508,-7.48802 -1.81228,-11.90933 9.1394695,-4.51242 17.0761495,-12.63321 24.8542495,-21.22969 l 0.25888,-17.86396 c 3.25754,-8.91803 5.51561,-13.74702 8.31993,-18.33434 0.20509,6.63463 1.62026,8.2582 3.31102,12.00429 5.79222,-6.63077 9.61723,-20.34138 23.08272,-30.8377003 C 62.189449,18.355445 54.342669,26.131195 60.068879,35.236105 80.461859,9.9532747 95.711909,-2.7002453 120.88871,6.1871847 96.042309,8.2243247 77.670819,22.595795 81.960939,38.131885 c 15.61147,-17.44246 34.755971,-13.4027 40.897771,-10.40668 -19.375,2.00112 -27.298101,9.4272 -23.199701,20.40343 21.935501,-6.30131 38.728901,-5.34328 48.931801,4.91907 -12.2875,-1.34233 -30.1598,-5.15173 -30.6312,2.03978 56.318,21.73211 45.6144,64.755955 -8.3325,95.816605 l -66.362211,0.11353 c 21.17817,-24.72875 28.74788,-20.59785 46.37701,-28.89785 19.311401,-9.09195 31.213401,-44.308755 2.8869,-44.700735 -2.4066,5.069 -3.78084,12.72913 -2.449,22.4894 -5.91202,-17.38791 -15.92753,-22.46524 -28.73773,-19.15849"
     fill="url(#a)"
     opacity="0.99"
     stroke="#1f1a17"
     stroke-width="6.81499"
     id="path9"
     style="fill:url(#a)" />
  <path
     d="m 84.177289,35.913475 c -1.82205,7.68494 4.67437,15.86573 14.43822,18.44978 -7.0205,4.69417 -9.3584,9.37519 -9.3584,9.37519 3.1486,0.0995 11.194101,1.98283 14.059801,6.77152 -1.328,0.43554 -8.212401,2.73147 -9.238401,6.97549"
     fill="none"
     opacity="0.99"
     stroke="#1f1a17"
     stroke-opacity="0.992157"
     stroke-width="5.19912"
     id="path10" />
  <path
     d="m 100.01351,78.259455 c 26.9755,-8.13039 43.8894,4.07628 52.1746,20.13758"
     fill="none"
     opacity="0.99"
     stroke="#1f1a17"
     stroke-opacity="0.992157"
     stroke-width="5.19912"
     id="path11" />
  <path
     d="m 108.98391,86.497555 c 29.072,1.01403 21.1595,34.475805 13.9132,52.540715"
     fill="none"
     opacity="0.99"
     stroke="#1f1a17"
     stroke-opacity="0.992157"
     stroke-width="5.19912"
     id="path12" />
  <path
     d="m 50.167879,44.890355 -10.6699,9.31539 -0.99427,15.72105 c 4.0069,-2.23849 10.91243,-7.79061 12.44741,-9.97422 0.52707,-3.26048 -0.17186,-12.94018 -0.78324,-15.06222 z"
     fill="#1f1a17"
     fill-opacity="0.992157"
     opacity="0.99"
     id="path13"
     style="stroke-width:3.5434" />
  <path
     d="M 109.89931,90.891195 C 139.87171,128.00789 94.197209,116.80054 78.349209,152.87204"
     fill="none"
     opacity="0.99"
     stroke="#1f1a17"
     stroke-opacity="0.992157"
     stroke-width="5.19912"
     id="path14" />
  <path
     d="m 79.566189,125.44002 c 3.5174,4.54258 6.10625,8.33605 11.66022,8.29622"
     fill="none"
     opacity="0.99"
     stroke="#1f1a17"
     stroke-opacity="0.992157"
     stroke-width="5.19909"
     id="path15" />
  <path
     style="font-variation-settings:'wdth' 80, 'wght' 749;fill:none;stroke-width:0.13631"
     d="m 37.983222,123.36578 c -0.04901,-0.12772 -0.09062,-1.68402 -0.09246,-3.45843 l -0.0033,-3.22621 -2.302375,-1.22242 -2.302375,-1.22242 4.588912,-1.41525 c 2.523902,-0.77839 4.637788,-1.46102 4.697523,-1.51697 0.05974,-0.0559 -0.904373,-0.92324 -2.142464,-1.92733 -1.692948,-1.37298 -2.193024,-1.84613 -2.016946,-1.90835 0.12877,-0.0455 2.104978,-0.47044 4.391574,-0.94431 2.286596,-0.47387 4.211682,-0.9086 4.277969,-0.96607 0.06629,-0.0575 -0.620137,-1.61134 -1.525385,-3.45305 l -1.645906,-3.348562 h 3.73782 3.737822 l 0.06196,-0.306697 c 0.05933,-0.293685 0.769066,-10.158184 0.763694,-10.614433 -0.0018,-0.148966 0.817917,-0.650733 2.519131,-1.542101 l 2.52173,-1.321286 V 79.428766 73.88564 l -2.146878,-3.229074 c -1.962914,-2.952376 -2.176079,-3.224021 -2.487653,-3.170102 -0.187426,0.03243 -2.331583,0.305828 -4.764794,0.607543 -2.433209,0.301715 -4.430924,0.561516 -4.439364,0.577337 -0.0084,0.01582 0.05505,0.979526 0.141079,2.141567 0.08603,1.16204 0.120887,2.152667 0.07745,2.201392 -0.04344,0.04873 -1.091072,0.498388 -2.328083,0.999252 -1.237011,0.500863 -2.293836,0.953499 -2.348499,1.005856 -0.05466,0.05236 -0.164295,1.320198 -0.243629,2.817422 -0.178834,3.375029 -0.238994,3.880857 -0.461572,3.880857 -0.09597,0 -0.534825,0.232484 -0.975235,0.516632 l -0.800744,0.51663 -2.25377,-0.839363 -2.253769,-0.839363 -0.08956,0.76574 c -0.04926,0.421156 -0.134054,1.614196 -0.188437,2.651201 -0.07043,1.343071 -0.149657,1.904949 -0.275394,1.953198 -0.09708,0.03726 -1.729789,0.01014 -3.628236,-0.06025 -1.898446,-0.07039 -3.473264,-0.109932 -3.499595,-0.08786 -0.0443,0.03713 -1.644094,11.926287 -1.652317,12.279455 -0.0052,0.224141 -1.813754,0.502333 -2.721308,0.418596 -0.417049,-0.03848 -1.766107,-0.382475 -2.997907,-0.764437 -1.2318,-0.381961 -2.250946,-0.679988 -2.264769,-0.662282 -0.01382,0.01771 -0.308232,1.811035 -0.654242,3.985173 -0.596792,3.74993 -0.909429,6.10371 -1.143777,8.61128 l -0.104133,1.11426 -2.202438,-3.08817 -2.2024376,-3.08817 0.9074952,-0.95696 c 1.4094624,-1.48629 2.4536254,-3.22311 3.2275354,-5.368569 l 0.351039,-0.973164 -0.144351,-2.487165 c -0.16022,-2.760586 -0.435091,-5.14462 -0.8021,-6.95684 l -0.242668,-1.198243 0.826582,-0.497054 C 18.857975,82.816834 25.00369,77.371714 33.819701,67.740461 l 1.991327,-2.17547 0.135478,-9.337218 0.135478,-9.337217 0.916913,-2.38542 c 0.925338,-2.407342 2.389914,-6.011373 2.491053,-6.129991 0.09155,-0.107367 0.242805,0.199493 2.032846,4.12412 0.950072,2.083012 1.76969,3.769845 1.821373,3.748518 0.107218,-0.04424 3.443678,-3.871413 4.389294,-5.034851 1.206538,-1.484461 2.941602,-4.276192 5.70006,-9.171437 l 1.147251,-2.035946 0.229918,1.168134 c 0.318414,1.617754 0.599445,2.535027 1.14028,3.721809 0.492523,1.080769 3.613261,6.2019 3.779342,6.2019 0.054,0 1.126127,-1.272792 2.382503,-2.828427 5.477247,-6.781883 9.278422,-11.160809 12.749534,-14.687375 l 2.280829,-2.317265 -0.003,8.042274 -0.003,8.042275 -0.473521,-1.294942 c -0.260436,-0.712219 -0.5592,-1.478961 -0.663918,-1.703872 -0.104719,-0.224911 -0.232592,-0.578192 -0.284165,-0.785069 -0.05157,-0.206877 -0.147793,-0.40953 -0.213824,-0.45034 -0.182561,-0.112829 -2.453502,0.823345 -4.211653,1.736216 -6.435637,3.34152 -11.478336,8.385356 -19.297543,19.301892 l -0.808144,1.128264 -0.08955,-2.218742 c -0.04925,-1.220309 -0.159981,-2.954815 -0.246072,-3.854459 -0.153077,-1.599669 -0.53567,-4.317611 -0.62033,-4.406832 -0.02344,-0.02471 -2.470875,2.078304 -5.438734,4.673354 -4.277716,3.740367 -5.396112,4.785677 -5.396112,5.043486 0,0.178867 -0.216569,3.712089 -0.481264,7.851604 -0.264696,4.139514 -0.453624,7.554031 -0.41984,7.587814 0.09501,0.09501 2.561969,-1.491622 4.358121,-2.802932 2.48815,-1.816514 5.313534,-4.170269 6.858306,-5.713479 l 1.399374,-1.39796 0.96159,0.7016 c 0.528875,0.385881 0.983626,0.677594 1.010558,0.648256 0.02693,-0.02934 1.383394,-1.893526 3.014358,-4.142637 4.607968,-6.354419 6.335299,-8.509337 9.053975,-11.295221 2.123422,-2.175915 3.827714,-3.617745 5.914057,-5.003289 1.646691,-1.093571 3.934784,-2.295477 5.011418,-2.632436 0.330035,-0.103291 0.707951,-0.232618 0.839817,-0.287391 0.227285,-0.09441 0.237919,0.274402 0.204464,7.091848 l -0.03529,7.191437 -2.388553,0.699793 c -5.759339,1.687355 -9.206152,3.302762 -12.220692,5.727427 -1.018385,0.819111 -2.633938,2.452227 -2.633938,2.662572 0,0.102881 3.771527,3.137831 3.899379,3.137831 0.04807,0 0.485454,-0.401991 0.971965,-0.893312 1.490494,-1.505233 3.713974,-2.917986 6.169745,-3.920125 1.701239,-0.694233 3.865225,-1.412476 5.145693,-1.707895 l 1.124556,-0.259447 v 4.536786 4.536786 l -1.124556,0.07963 c -0.618505,0.0438 -2.136655,0.145355 -3.373666,0.225687 -2.328382,0.151207 -5.083045,0.398176 -7.735578,0.693534 -1.508721,0.167997 -1.533462,0.176365 -1.532139,0.51828 0.0017,0.428 0.518511,4.661336 0.576147,4.718972 0.02288,0.02288 1.052421,-0.07318 2.287862,-0.213472 3.972501,-0.451101 8.73283,-0.777381 10.322613,-0.70753 l 0.579317,0.02545 v 2.929489 2.929487 l -0.8772,-0.330177 c -1.115777,-0.419977 -3.390176,-0.985792 -4.7115,-1.172107 -1.344744,-0.189616 -5.064581,-0.188757 -6.611022,0.0015 -1.113718,0.137039 -4.416895,0.762944 -4.508189,0.854238 -0.03178,0.03178 1.050197,4.31884 1.562273,6.190113 l 0.154873,0.565944 0.713973,-0.17708 c 1.658788,-0.411415 1.661941,-0.498362 -0.04531,1.249312 -2.404518,2.461444 -4.395125,5.056711 -6.830356,8.905123 -1.586616,2.507339 -2.868554,4.766759 -6.109761,10.768477 -5.340898,9.88968 -7.460881,13.35245 -10.33915,16.88793 -0.573343,0.70425 -1.140354,1.40179 -1.260024,1.55009 -0.198854,0.24643 -0.225253,0.24965 -0.306697,0.0374 z"
     id="path22" />
  <path
     style="font-variation-settings:'wdth' 80, 'wght' 749;fill:none;stroke-width:0.13631"
     d="m 37.983222,123.36578 c -0.04901,-0.12772 -0.09062,-1.68402 -0.09246,-3.45843 l -0.0033,-3.22621 -2.302375,-1.22242 -2.302375,-1.22242 4.588912,-1.41525 c 2.523902,-0.77839 4.637788,-1.46102 4.697523,-1.51697 0.05974,-0.0559 -0.904373,-0.92324 -2.142464,-1.92733 -1.692948,-1.37298 -2.193024,-1.84613 -2.016946,-1.90835 0.12877,-0.0455 2.104978,-0.47044 4.391574,-0.94431 2.286596,-0.47387 4.211682,-0.9086 4.277969,-0.96607 0.06629,-0.0575 -0.620137,-1.61134 -1.525385,-3.45305 l -1.645906,-3.348562 h 3.73782 3.737822 l 0.06196,-0.306697 c 0.05933,-0.293685 0.769066,-10.158184 0.763694,-10.614433 -0.0018,-0.148966 0.817917,-0.650733 2.519131,-1.542101 l 2.52173,-1.321286 V 79.428766 73.88564 l -2.146878,-3.229074 c -1.962914,-2.952376 -2.176079,-3.224021 -2.487653,-3.170102 -0.187426,0.03243 -2.331583,0.305828 -4.764794,0.607543 -2.433209,0.301715 -4.430924,0.561516 -4.439364,0.577337 -0.0084,0.01582 0.05505,0.979526 0.141079,2.141567 0.08603,1.16204 0.120887,2.152667 0.07745,2.201392 -0.04344,0.04873 -1.091072,0.498388 -2.328083,0.999252 -1.237011,0.500863 -2.293836,0.953499 -2.348499,1.005856 -0.05466,0.05236 -0.164295,1.320198 -0.243629,2.817422 -0.178834,3.375029 -0.238994,3.880857 -0.461572,3.880857 -0.09597,0 -0.534825,0.232484 -0.975235,0.516632 l -0.800744,0.51663 -2.25377,-0.839363 -2.253769,-0.839363 -0.08956,0.76574 c -0.04926,0.421156 -0.134054,1.614196 -0.188437,2.651201 -0.07043,1.343071 -0.149657,1.904949 -0.275394,1.953198 -0.09708,0.03726 -1.729789,0.01014 -3.628236,-0.06025 -1.898446,-0.07039 -3.473264,-0.109932 -3.499595,-0.08786 -0.0443,0.03713 -1.644094,11.926287 -1.652317,12.279455 -0.0052,0.224141 -1.813754,0.502333 -2.721308,0.418596 -0.417049,-0.03848 -1.766107,-0.382475 -2.997907,-0.764437 -1.2318,-0.381961 -2.250946,-0.679988 -2.264769,-0.662282 -0.01382,0.01771 -0.308232,1.811035 -0.654242,3.985173 -0.596792,3.74993 -0.909429,6.10371 -1.143777,8.61128 l -0.104133,1.11426 -2.202438,-3.08817 -2.2024376,-3.08817 0.9074952,-0.95696 c 1.4094624,-1.48629 2.4536254,-3.22311 3.2275354,-5.368569 l 0.351039,-0.973164 -0.144351,-2.487165 c -0.16022,-2.760586 -0.435091,-5.14462 -0.8021,-6.95684 l -0.242668,-1.198243 0.826582,-0.497054 C 18.857975,82.816834 25.00369,77.371714 33.819701,67.740461 l 1.991327,-2.17547 0.135478,-9.337218 0.135478,-9.337217 0.916913,-2.38542 c 0.925338,-2.407342 2.389914,-6.011373 2.491053,-6.129991 0.09155,-0.107367 0.242805,0.199493 2.032846,4.12412 0.950072,2.083012 1.76969,3.769845 1.821373,3.748518 0.107218,-0.04424 3.443678,-3.871413 4.389294,-5.034851 1.206538,-1.484461 2.941602,-4.276192 5.70006,-9.171437 l 1.147251,-2.035946 0.229918,1.168134 c 0.318414,1.617754 0.599445,2.535027 1.14028,3.721809 0.492523,1.080769 3.613261,6.2019 3.779342,6.2019 0.054,0 1.126127,-1.272792 2.382503,-2.828427 5.477247,-6.781883 9.278422,-11.160809 12.749534,-14.687375 l 2.280829,-2.317265 -0.003,8.042274 -0.003,8.042275 -0.473521,-1.294942 c -0.260436,-0.712219 -0.5592,-1.478961 -0.663918,-1.703872 -0.104719,-0.224911 -0.232592,-0.578192 -0.284165,-0.785069 -0.05157,-0.206877 -0.147793,-0.40953 -0.213824,-0.45034 -0.182561,-0.112829 -2.453502,0.823345 -4.211653,1.736216 -6.435637,3.34152 -11.478336,8.385356 -19.297543,19.301892 l -0.808144,1.128264 -0.08955,-2.218742 c -0.04925,-1.220309 -0.159981,-2.954815 -0.246072,-3.854459 -0.153077,-1.599669 -0.53567,-4.317611 -0.62033,-4.406832 -0.02344,-0.02471 -2.470875,2.078304 -5.438734,4.673354 -4.277716,3.740367 -5.396112,4.785677 -5.396112,5.043486 0,0.178867 -0.216569,3.712089 -0.481264,7.851604 -0.264696,4.139514 -0.453624,7.554031 -0.41984,7.587814 0.09501,0.09501 2.561969,-1.491622 4.358121,-2.802932 2.48815,-1.816514 5.313534,-4.170269 6.858306,-5.713479 l 1.399374,-1.39796 0.96159,0.7016 c 0.528875,0.385881 0.983626,0.677594 1.010558,0.648256 0.02693,-0.02934 1.383394,-1.893526 3.014358,-4.142637 4.607968,-6.354419 6.335299,-8.509337 9.053975,-11.295221 2.123422,-2.175915 3.827714,-3.617745 5.914057,-5.003289 1.646691,-1.093571 3.934784,-2.295477 5.011418,-2.632436 0.330035,-0.103291 0.707951,-0.232618 0.839817,-0.287391 0.227285,-0.09441 0.237919,0.274402 0.204464,7.091848 l -0.03529,7.191437 -2.388553,0.699793 c -5.759339,1.687355 -9.206152,3.302762 -12.220692,5.727427 -1.018385,0.819111 -2.633938,2.452227 -2.633938,2.662572 0,0.102881 3.771527,3.137831 3.899379,3.137831 0.04807,0 0.485454,-0.401991 0.971965,-0.893312 1.490494,-1.505233 3.713974,-2.917986 6.169745,-3.920125 1.701239,-0.694233 3.865225,-1.412476 5.145693,-1.707895 l 1.124556,-0.259447 v 4.536786 4.536786 l -1.124556,0.07963 c -0.618505,0.0438 -2.136655,0.145355 -3.373666,0.225687 -2.328382,0.151207 -5.083045,0.398176 -7.735578,0.693534 -1.508721,0.167997 -1.533462,0.176365 -1.532139,0.51828 0.0017,0.428 0.518511,4.661336 0.576147,4.718972 0.02288,0.02288 1.052421,-0.07318 2.287862,-0.213472 3.972501,-0.451101 8.73283,-0.777381 10.322613,-0.70753 l 0.579317,0.02545 v 2.929489 2.929487 l -0.8772,-0.330177 c -1.115777,-0.419977 -3.390176,-0.985792 -4.7115,-1.172107 -1.344744,-0.189616 -5.064581,-0.188757 -6.611022,0.0015 -1.113718,0.137039 -4.416895,0.762944 -4.508189,0.854238 -0.03178,0.03178 1.050197,4.31884 1.562273,6.190113 l 0.154873,0.565944 0.713973,-0.17708 c 1.658788,-0.411415 1.661941,-0.498362 -0.04531,1.249312 -2.404518,2.461444 -4.395125,5.056711 -6.830356,8.905123 -1.586616,2.507339 -2.868554,4.766759 -6.109761,10.768477 -5.340898,9.88968 -7.460881,13.35245 -10.33915,16.88793 -0.573343,0.70425 -1.140354,1.40179 -1.260024,1.55009 -0.198854,0.24643 -0.225253,0.24965 -0.306697,0.0374 z"
     id="path23" />
  <path
     style="font-variation-settings:'wdth' 80, 'wght' 749;fill:none;stroke-width:0.13631"
     d="m 37.983222,123.36578 c -0.04901,-0.12772 -0.09062,-1.68402 -0.09246,-3.45843 l -0.0033,-3.22621 -2.302375,-1.22242 -2.302375,-1.22242 4.588912,-1.41525 c 2.523902,-0.77839 4.637788,-1.46102 4.697523,-1.51697 0.05974,-0.0559 -0.904373,-0.92324 -2.142464,-1.92733 -1.692948,-1.37298 -2.193024,-1.84613 -2.016946,-1.90835 0.12877,-0.0455 2.104978,-0.47044 4.391574,-0.94431 2.286596,-0.47387 4.211682,-0.9086 4.277969,-0.96607 0.06629,-0.0575 -0.620137,-1.61134 -1.525385,-3.45305 l -1.645906,-3.348562 h 3.73782 3.737822 l 0.06196,-0.306697 c 0.05933,-0.293685 0.769066,-10.158184 0.763694,-10.614433 -0.0018,-0.148966 0.817917,-0.650733 2.519131,-1.542101 l 2.52173,-1.321286 V 79.428766 73.88564 l -2.146878,-3.229074 c -1.962914,-2.952376 -2.176079,-3.224021 -2.487653,-3.170102 -0.187426,0.03243 -2.331583,0.305828 -4.764794,0.607543 -2.433209,0.301715 -4.430924,0.561516 -4.439364,0.577337 -0.0084,0.01582 0.05505,0.979526 0.141079,2.141567 0.08603,1.16204 0.120887,2.152667 0.07745,2.201392 -0.04344,0.04873 -1.091072,0.498388 -2.328083,0.999252 -1.237011,0.500863 -2.293836,0.953499 -2.348499,1.005856 -0.05466,0.05236 -0.164295,1.320198 -0.243629,2.817422 -0.178834,3.375029 -0.238994,3.880857 -0.461572,3.880857 -0.09597,0 -0.534825,0.232484 -0.975235,0.516632 l -0.800744,0.51663 -2.25377,-0.839363 -2.253769,-0.839363 -0.08956,0.76574 c -0.04926,0.421156 -0.134054,1.614196 -0.188437,2.651201 -0.07043,1.343071 -0.149657,1.904949 -0.275394,1.953198 -0.09708,0.03726 -1.729789,0.01014 -3.628236,-0.06025 -1.898446,-0.07039 -3.473264,-0.109932 -3.499595,-0.08786 -0.0443,0.03713 -1.644094,11.926287 -1.652317,12.279455 -0.0052,0.224141 -1.813754,0.502333 -2.721308,0.418596 -0.417049,-0.03848 -1.766107,-0.382475 -2.997907,-0.764437 -1.2318,-0.381961 -2.250946,-0.679988 -2.264769,-0.662282 -0.01382,0.01771 -0.308232,1.811035 -0.654242,3.985173 -0.596792,3.74993 -0.909429,6.10371 -1.143777,8.61128 l -0.104133,1.11426 -2.202438,-3.08817 -2.2024376,-3.08817 0.9074952,-0.95696 c 1.4094624,-1.48629 2.4536254,-3.22311 3.2275354,-5.368569 l 0.351039,-0.973164 -0.144351,-2.487165 c -0.16022,-2.760586 -0.435091,-5.14462 -0.8021,-6.95684 l -0.242668,-1.198243 0.826582,-0.497054 C 18.857975,82.816834 25.00369,77.371714 33.819701,67.740461 l 1.991327,-2.17547 0.135478,-9.337218 0.135478,-9.337217 0.916913,-2.38542 c 0.925338,-2.407342 2.389914,-6.011373 2.491053,-6.129991 0.09155,-0.107367 0.242805,0.199493 2.032846,4.12412 0.950072,2.083012 1.76969,3.769845 1.821373,3.748518 0.107218,-0.04424 3.443678,-3.871413 4.389294,-5.034851 1.206538,-1.484461 2.941602,-4.276192 5.70006,-9.171437 l 1.147251,-2.035946 0.229918,1.168134 c 0.318414,1.617754 0.599445,2.535027 1.14028,3.721809 0.492523,1.080769 3.613261,6.2019 3.779342,6.2019 0.054,0 1.126127,-1.272792 2.382503,-2.828427 5.477247,-6.781883 9.278422,-11.160809 12.749534,-14.687375 l 2.280829,-2.317265 -0.003,8.042274 -0.003,8.042275 -0.473521,-1.294942 c -0.260436,-0.712219 -0.5592,-1.478961 -0.663918,-1.703872 -0.104719,-0.224911 -0.232592,-0.578192 -0.284165,-0.785069 -0.05157,-0.206877 -0.147793,-0.40953 -0.213824,-0.45034 -0.182561,-0.112829 -2.453502,0.823345 -4.211653,1.736216 -6.435637,3.34152 -11.478336,8.385356 -19.297543,19.301892 l -0.808144,1.128264 -0.08955,-2.218742 c -0.04925,-1.220309 -0.159981,-2.954815 -0.246072,-3.854459 -0.153077,-1.599669 -0.53567,-4.317611 -0.62033,-4.406832 -0.02344,-0.02471 -2.470875,2.078304 -5.438734,4.673354 -4.277716,3.740367 -5.396112,4.785677 -5.396112,5.043486 0,0.178867 -0.216569,3.712089 -0.481264,7.851604 -0.264696,4.139514 -0.453624,7.554031 -0.41984,7.587814 0.09501,0.09501 2.561969,-1.491622 4.358121,-2.802932 2.48815,-1.816514 5.313534,-4.170269 6.858306,-5.713479 l 1.399374,-1.39796 0.96159,0.7016 c 0.528875,0.385881 0.983626,0.677594 1.010558,0.648256 0.02693,-0.02934 1.383394,-1.893526 3.014358,-4.142637 4.607968,-6.354419 6.335299,-8.509337 9.053975,-11.295221 2.123422,-2.175915 3.827714,-3.617745 5.914057,-5.003289 1.646691,-1.093571 3.934784,-2.295477 5.011418,-2.632436 0.330035,-0.103291 0.707951,-0.232618 0.839817,-0.287391 0.227285,-0.09441 0.237919,0.274402 0.204464,7.091848 l -0.03529,7.191437 -2.388553,0.699793 c -5.759339,1.687355 -9.206152,3.302762 -12.220692,5.727427 -1.018385,0.819111 -2.633938,2.452227 -2.633938,2.662572 0,0.102881 3.771527,3.137831 3.899379,3.137831 0.04807,0 0.485454,-0.401991 0.971965,-0.893312 1.490494,-1.505233 3.713974,-2.917986 6.169745,-3.920125 1.701239,-0.694233 3.865225,-1.412476 5.145693,-1.707895 l 1.124556,-0.259447 v 4.536786 4.536786 l -1.124556,0.07963 c -0.618505,0.0438 -2.136655,0.145355 -3.373666,0.225687 -2.328382,0.151207 -5.083045,0.398176 -7.735578,0.693534 -1.508721,0.167997 -1.533462,0.176365 -1.532139,0.51828 0.0017,0.428 0.518511,4.661336 0.576147,4.718972 0.02288,0.02288 1.052421,-0.07318 2.287862,-0.213472 3.972501,-0.451101 8.73283,-0.777381 10.322613,-0.70753 l 0.579317,0.02545 v 2.929489 2.929487 l -0.8772,-0.330177 c -1.115777,-0.419977 -3.390176,-0.985792 -4.7115,-1.172107 -1.344744,-0.189616 -5.064581,-0.188757 -6.611022,0.0015 -1.113718,0.137039 -4.416895,0.762944 -4.508189,0.854238 -0.03178,0.03178 1.050197,4.31884 1.562273,6.190113 l 0.154873,0.565944 0.713973,-0.17708 c 1.658788,-0.411415 1.661941,-0.498362 -0.04531,1.249312 -2.404518,2.461444 -4.395125,5.056711 -6.830356,8.905123 -1.586616,2.507339 -2.868554,4.766759 -6.109761,10.768477 -5.340898,9.88968 -7.460881,13.35245 -10.33915,16.88793 -0.573343,0.70425 -1.140354,1.40179 -1.260024,1.55009 -0.198854,0.24643 -0.225253,0.24965 -0.306697,0.0374 z"
     id="path24" />
  <path
     style="font-variation-settings:'wdth' 80, 'wght' 749;fill:none;stroke-width:0.13631"
     d="m 36.196308,154.22077 c 0.309961,-0.51195 7.796282,-9.07018 9.765453,-11.1637 6.629687,-7.04832 12.484255,-11.67252 18.785366,-14.83752 3.070539,-1.54231 5.47629,-2.48643 11.518173,-4.52019 11.963692,-4.0271 16.016396,-6.19671 20.439443,-10.94223 4.740647,-5.08627 7.894047,-11.09565 9.027737,-17.204001 0.34497,-1.858671 0.31576,-5.110693 -0.0595,-6.624222 -0.69245,-2.792941 -2.07769,-4.748962 -4.32662,-6.109406 -1.501569,-0.908339 -4.344302,-1.771239 -6.026103,-1.829198 l -0.64756,-0.02232 -0.247686,0.749704 c -0.372068,1.126187 -0.86991,3.299381 -1.124145,4.907151 -0.428389,2.709112 -0.417262,9.534878 0.02001,12.273713 l 0.0771,0.482922 -3.113952,0.732287 c -1.712673,0.40276 -3.183059,0.75649 -3.267522,0.78608 -0.08446,0.0296 -0.196428,-0.11856 -0.248809,-0.3292 -0.36008,-1.447992 -2.301572,-5.763668 -3.538074,-7.864664 -1.73866,-2.954234 -4.164305,-5.645367 -6.404781,-7.105781 L 75.67089,84.84801 74.809463,85.172385 c -2.48696,0.936476 -4.39814,2.196242 -6.636621,4.374571 -3.604901,3.508034 -6.348246,7.603328 -11.602195,17.319884 -3.755321,6.94502 -4.587002,8.43988 -6.104908,10.97293 -3.860721,6.4427 -7.36311,10.79578 -11.330906,14.08306 l -1.417314,1.17423 -1.512762,-0.7738 c -3.158617,-1.61567 -4.512187,-3.78703 -4.980865,-7.99017 -0.0799,-0.71654 -0.146781,-1.81127 -0.148627,-2.43273 l -0.0034,-1.12993 -5.755053,-3.09036 c -3.165279,-1.69971 -5.786028,-3.05944 -5.823886,-3.02164 -0.03786,0.0378 -0.0995,4.00307 -0.136987,8.81171 l -0.06815,8.74299 L 9.6980769,118.74451 0.10832539,105.2759 0.5428461,104.23118 c 0.7212258,-1.73403 1.0570733,-2.19995 2.8655416,-3.97537 1.3663858,-1.34141 1.8195399,-1.881521 2.1302258,-2.538996 L 5.9332483,96.881684 5.8293589,94.990619 C 5.6280802,91.326811 5.1464814,88.839237 3.9609828,85.340007 3.6580773,84.445921 3.4250174,83.702297 3.443072,83.687509 3.4611265,83.672719 4.5822343,83.103997 5.9344227,82.42368 12.714781,79.012331 18.610204,74.141033 27.296026,64.772914 l 1.737949,-1.874471 0.0054,-1.529233 c 0.003,-0.841078 0.06054,-4.718882 0.127888,-8.61734 l 0.122453,-7.088107 0.963932,-2.568239 C 33.47925,34.501536 35.076738,31.2509 40.289557,22.674111 l 3.534025,-5.814624 0.08819,0.839319 c 0.0485,0.461625 0.158537,3.262224 0.244517,6.223554 0.08598,2.961329 0.216243,5.905619 0.289473,6.542867 0.182604,1.589013 0.39797,2.607318 0.533692,2.523437 0.0624,-0.03857 0.958211,-1.557542 1.990689,-3.375502 4.140959,-7.291298 6.904742,-11.454344 10.067367,-15.164329 2.558488,-3.001288 7.89326,-7.9898463 8.288985,-7.7510483 0.09369,0.056534 1.226666,1.0120219 2.517738,2.1233071 l 2.347399,2.0205182 -0.70079,1.190218 c -0.385435,0.654619 -1.56987,2.570353 -2.632077,4.257186 -2.280943,3.622242 -2.799542,4.507826 -3.736482,6.380607 -0.8746,1.748174 -1.487981,3.554352 -1.590466,4.683319 l -0.07836,0.863176 0.454124,-0.485727 c 0.249767,-0.267151 1.41003,-1.585948 2.578363,-2.930659 C 77.824654,9.4473096 88.285275,2.342361 100.41772,0.39454458 c 1.82626,-0.29319953 6.9348,-0.40497851 9.11975,-0.19954758 3.36704,0.31657159 7.26777,1.1482367 10.75588,2.2932302 0.89964,0.2953144 1.6281,0.5923462 1.6188,0.6600709 -0.009,0.067725 -0.18824,1.5032718 -0.39766,3.1901049 -0.20941,1.686833 -0.40035,3.0917174 -0.4243,3.1219652 -0.024,0.030248 -1.04112,0.1673069 -2.26037,0.3045756 -15.17059,1.7079632 -28.126874,8.6353422 -32.527214,17.3914342 -0.576267,1.146692 -1.312178,3.151125 -1.198607,3.264696 0.03475,0.03475 0.642931,-0.366871 1.351505,-0.892499 5.305914,-3.935974 11.140143,-6.370356 17.753296,-7.407714 1.61521,-0.253368 2.46317,-0.298994 5.52054,-0.297044 4.0889,0.0026 6.02854,0.225772 9.3409,1.074717 2.67795,0.68635 3.96419,1.222557 10.13758,4.226159 l 5.60129,2.725247 -6.84895,0.709953 c -7.4398,0.771198 -10.17033,1.163758 -13.14023,1.88913 -6.9442,1.696059 -11.21644,4.415955 -12.47699,7.943404 -0.2983,0.834724 -0.52208,3.567465 -0.29214,3.567465 0.0698,0 1.28926,-0.271756 2.70998,-0.603899 18.99607,-4.440997 32.75293,-3.006931 42.86267,4.468158 1.51973,1.123682 9.94395,9.40221 9.63358,9.466974 -0.27222,0.0568 -10.59804,-1.102221 -15.56305,-1.746882 -5.1671,-0.670897 -8.4769,-1.041086 -10.90478,-1.219656 -2.45983,-0.180918 -5.75091,-0.183814 -5.86132,-0.0052 -0.0463,0.07497 -0.0163,0.13631 0.0668,0.13631 0.22882,0 4.66868,2.166948 6.57038,3.206782 8.72993,4.773462 15.03929,9.904298 19.71405,16.031672 3.97374,5.208515 6.39432,10.967839 7.26787,17.292556 0.22528,1.631079 0.22726,6.45579 0.003,8.178585 -0.91791,7.062718 -3.64594,13.962448 -8.24583,20.855398 -7.8833,11.81314 -20.69294,22.99781 -37.94555,33.13196 l -1.80041,1.05756 -37.238886,0.10064 c -31.895187,0.0862 -37.222311,0.0733 -37.123386,-0.0901 z m 45.316917,-1.98929 c 0.412337,-0.86903 1.14978,-2.26134 1.63876,-3.09404 l 0.889057,-1.51399 12.469297,-0.0682 12.469301,-0.0682 1.90833,-1.17177 c 3.8467,-2.36198 7.04097,-4.45878 10.39681,-6.82475 l 0.99143,-0.69898 1.49734,0.58676 c 0.82353,0.32271 1.52236,0.56171 1.55296,0.53108 0.0582,-0.0583 1.42659,-3.66004 1.70419,-4.48575 0.1149,-0.34176 0.49366,-0.74775 1.33526,-1.43125 4.63421,-3.7637 9.95661,-9.11722 13.24466,-13.32208 1.14462,-1.46378 1.10944,-1.44726 2.52524,-1.18554 0.43345,0.0801 0.81591,0.11787 0.84991,0.0839 0.034,-0.034 0.19669,-1.06566 0.36151,-2.29256 l 0.29968,-2.23074 0.83588,-1.43125 c 1.7323,-2.96621 3.11491,-6.01827 4.04455,-8.92829 0.52642,-1.6478 1.12674,-4.20803 1.26515,-5.395542 l 0.0887,-0.76101 1.27885,-0.635269 c 0.70337,-0.349397 1.27886,-0.685926 1.27886,-0.74784 0,-0.126786 -1.8503,-3.361972 -2.20788,-3.860433 -0.22165,-0.308954 -0.2317,-0.232901 -0.23854,1.805311 -0.004,1.170319 -0.0467,2.416123 -0.095,2.768454 -0.0868,0.633551 -0.0984,0.645938 -1.051,1.125665 -0.52977,0.266785 -0.98303,0.425638 -1.00724,0.353007 -0.1155,-0.346541 -1.54321,-2.735222 -2.54749,-4.262178 -2.91749,-4.435962 -6.68504,-8.268488 -10.91392,-11.10219 -2.85447,-1.912727 -7.33779,-3.859676 -10.83663,-4.705966 -4.8665,-1.177097 -10.47637,-1.362773 -16.18196,-0.535591 l -1.97449,0.286257 -0.42938,-0.406988 c -1.0136,-0.960749 -2.84329,-2.04263 -4.78888,-2.831626 l -1.08807,-0.441246 0.54283,-0.145808 c 2.80555,-0.753588 6.62134,-1.470234 9.67558,-1.817172 2.25259,-0.255877 8.31487,-0.212567 10.49585,0.07498 7.10836,0.937195 13.31906,3.353777 18.74259,7.29274 3.92297,2.849143 7.38841,6.417145 10.40354,10.711418 1.18726,1.690934 1.20396,1.678885 0.83761,-0.604413 -1.47256,-9.178182 -7.47051,-17.199005 -18.07706,-24.17377 -4.67424,-3.073735 -9.35661,-5.437637 -16.13228,-8.14439 l -2.99881,-1.19797 0.0472,-1.523546 c 0.0276,-0.890172 0.14687,-1.88308 0.28699,-2.388387 0.80835,-2.915146 3.3963,-4.824198 7.5718,-5.585488 0.67474,-0.123019 1.25746,-0.256021 1.29495,-0.295557 0.0838,-0.0884 -3.18688,0.06445 -5.31608,0.248438 -3.49122,0.301682 -8.09442,1.084041 -12.40419,2.108217 -3.18075,0.755874 -6.998746,1.86313 -6.795766,1.970838 0.101608,0.05392 1.288856,0.387839 2.638316,0.742053 1.34947,0.354211 2.49579,0.684187 2.54739,0.733279 0.0516,0.04909 -1.13859,0.91734 -2.64487,1.92944 -1.50627,1.0121 -3.28716,2.260664 -3.957522,2.774589 -1.193846,0.915245 -4.055426,3.571312 -4.055426,3.764173 0,0.05371 0.50605,0.236005 1.124555,0.405111 1.48366,0.40565 3.604264,1.250922 4.873074,1.942407 2.834559,1.5448 4.541349,3.169773 6.172919,5.877023 0.57832,0.959606 1.0515,1.787821 1.0515,1.840476 0,0.05266 -0.99533,0.419901 -2.21183,0.816102 -2.81719,0.91752 -5.873948,2.345032 -5.021463,2.345032 0.07009,0 0.300113,0.06987 0.511163,0.155273 l 0.38372,0.155273 -0.702322,0.219579 -0.702328,0.219578 0.76035,2.493049 c 0.62476,2.048499 0.79861,2.477663 0.97494,2.40676 0.37275,-0.149878 4.25775,-1.136571 5.37452,-1.364991 l 1.07062,-0.218981 0.40727,0.386727 c 0.92251,0.875988 3.10834,3.991636 3.10834,4.430574 0,0.06353 -0.42938,0.0756 -0.95417,0.02682 l -0.95417,-0.08868 v 0.747725 c 0,0.41125 -0.0399,1.579409 -0.0886,2.59591 l -0.0886,1.848185 1.07688,0.08685 c 2.10935,0.170114 2.11382,0.06915 -0.0806,1.824425 -1.75409,1.403057 -1.91314,1.566022 -1.74912,1.79218 0.0992,0.136831 0.83468,1.107338 1.63432,2.156685 0.79965,1.049346 1.62054,2.15972 1.82422,2.467498 0.20368,0.307777 0.41453,0.559596 0.46856,0.559596 0.20268,0 0.59016,-3.012485 0.66938,-5.204228 l 0.0822,-2.273568 1.44269,1.932794 c 4.3531,5.831931 6.85825,10.605557 7.84579,14.950377 0.35316,1.55375 0.3172,4.76574 -0.0694,6.20209 -0.84634,3.14421 -3.00054,6.09669 -6.32906,8.67447 -1.93538,1.49885 -3.56648,2.55478 -9.02432,5.84213 -7.119992,4.28848 -10.196256,6.37378 -13.357962,9.05494 -3.185361,2.70123 -6.543208,6.3832 -8.49335,9.31319 l -0.748479,1.12455 h -2.9102 c -1.600608,0 -2.910198,-0.0285 -2.910198,-0.0634 0,-0.12708 1.557795,-2.63023 2.463063,-3.95778 1.309325,-1.92009 2.937224,-3.93222 4.873632,-6.02397 l 1.664818,-1.79835 -1.176957,-0.55154 c -1.929225,-0.90407 -3.507041,-2.15246 -5.259533,-4.16141 -0.586089,-0.67185 -1.065615,-1.25871 -1.065615,-1.30412 0,-0.0454 0.352701,-0.19349 0.783781,-0.32906 1.67321,-0.52619 4.123369,-1.47432 4.123369,-1.5956 0,-0.0701 -0.126318,-0.26289 -0.280706,-0.42843 -0.154389,-0.16555 -0.842016,-1.01461 -1.52806,-1.88679 l -1.247353,-1.58579 -0.702282,0.56347 c -0.386256,0.3099 -1.290049,1.02133 -2.008429,1.58093 -0.774684,0.60348 -1.263962,1.07491 -1.202474,1.15864 0.05702,0.0776 0.510255,0.66925 1.007191,1.3147 l 0.903521,1.17355 -1.2533,0.38283 c -1.410067,0.43071 -5.527523,1.87401 -6.978307,2.44611 -4.927101,1.94295 -9.93613,5.14054 -14.705327,9.38737 -1.718991,1.5307 -5.80929,5.55819 -5.80929,5.72007 0,0.0858 4.82372,0.10967 13.62104,0.0674 l 13.62104,-0.0654 -1.012389,2.01208 c -0.556814,1.10665 -1.011256,2.06297 -1.009871,2.12515 0.0025,0.11145 4.299019,2.06067 4.563859,2.07048 0.07497,0.003 0.473676,-0.70596 0.886013,-1.57498 z m 9.677992,-17.96767 v -1.946 l 1.32902,-1.0125 c 3.176708,-2.42015 5.280642,-3.79273 11.931433,-7.78394 2.45766,-1.47487 5.03392,-3.0594 5.72501,-3.52119 2.83211,-1.8924 4.85256,-3.73597 5.94222,-5.42201 2.28931,-3.54226 1.2935,-8.34542 -3.16419,-15.262079 -0.94196,-1.461571 -0.81613,-1.525746 -1.44161,0.735259 -2.47752,8.95578 -9.031,17.94051 -16.77131,22.99319 -2.162192,1.41143 -4.192394,2.41251 -8.111906,3.99994 -0.971841,0.3936 -1.786811,0.77512 -1.811044,0.84783 -0.05813,0.17438 1.45973,1.57316 2.344649,2.16071 0.896392,0.59518 2.056002,1.00041 3.156949,1.10321 l 0.870779,0.0813 v 0.50378 c 0,0.46184 -0.08878,0.5781 -1.066327,1.39638 -1.41056,1.18074 -2.750346,2.42605 -2.750346,2.55641 0,0.19535 2.912071,0.66527 3.509976,0.5664 0.301366,-0.0498 0.306697,-0.0845 0.306697,-1.99671 z M 38.541934,123.27368 c 1.387641,-1.53137 3.597163,-4.5946 5.450889,-7.55698 1.149215,-1.83652 3.273929,-5.6113 5.825305,-10.34927 6.278728,-11.659753 8.975011,-15.758111 13.204979,-20.071609 1.028417,-1.048725 1.677135,-1.806104 1.546984,-1.806104 -0.12328,0 -0.686558,0.101608 -1.25173,0.225794 -0.565171,0.124188 -1.04749,0.200862 -1.071817,0.170387 -0.02433,-0.03047 -0.402579,-1.455894 -0.840558,-3.1676 -0.646186,-2.525423 -0.761369,-3.133796 -0.610923,-3.226778 0.101972,-0.06302 1.017566,-0.273108 2.034656,-0.466859 6.968848,-1.32753 13.218485,-0.152324 18.270263,3.43561 1.283056,0.911267 3.962889,3.440287 5.0046,4.722954 l 0.545098,0.671185 0.232068,-1.284579 c 0.57915,-3.205798 1.376499,-5.759111 2.710404,-8.679383 l 0.824982,-1.806104 h 1.190256 1.190254 l -0.528723,1.056401 c -0.929177,1.856521 -1.079698,1.659117 1.784221,2.339957 1.358065,0.322854 2.48869,0.564836 2.512502,0.537738 0.02381,-0.0271 0.148647,-0.256299 0.277415,-0.509337 0.276913,-0.544151 1.231095,-1.498474 2.087142,-2.087451 0.493086,-0.339252 0.570293,-0.443601 0.3991,-0.539405 -0.350311,-0.196043 -3.33109,-0.659182 -4.9307,-0.766106 L 92.9033,74.01619 93.891303,73.028781 c 1.092937,-1.092279 2.431644,-2.080428 3.96711,-2.928267 l 1.010341,-0.557882 -0.328793,-0.271569 c -0.513323,-0.423983 -2.925218,-1.537982 -4.303391,-1.98764 -2.295475,-0.748945 -4.713726,-1.085435 -7.905211,-1.09998 l -1.11134,-0.0051 1.135606,-2.211691 c 1.534831,-2.989216 2.480176,-4.288327 4.912389,-6.750696 l 2.053287,-2.078745 -1.305308,-0.739072 c -2.097861,-1.187819 -3.651611,-2.36 -5.254843,-3.964357 -2.091356,-2.092828 -3.237982,-3.841199 -4.558645,-6.951011 l -0.173662,-0.408929 -0.799037,0.878665 c -0.439471,0.483266 -0.824441,0.851302 -0.855491,0.817859 -0.12007,-0.12933 -1.981656,-7.203372 -2.15032,-8.171236 -0.287657,-1.650701 -0.224465,-4.837725 0.1317,-6.642069 1.126725,-5.708049 4.617324,-11.050579 10.124139,-15.49548 2.746412,-2.216804 6.90423,-4.6920868 10.549193,-6.2802731 2.764883,-1.2047187 2.721303,-1.1798822 1.908333,-1.0874559 -2.407329,0.27369 -6.162778,1.5021085 -9.200904,3.009644 -5.251285,2.605718 -9.551079,5.900925 -15.617009,11.968314 -4.471596,4.47267 -7.824397,8.278612 -13.69249,15.54307 l -2.690989,3.331333 -1.496209,-2.412084 c -1.652224,-2.663598 -2.08823,-3.471371 -2.586904,-4.792676 -0.387052,-1.025543 -0.849068,-3.002218 -0.853389,-3.651114 -0.0016,-0.243653 -0.04895,-0.442484 -0.105182,-0.441845 -0.05623,6.38e-4 -0.946079,1.488118 -1.977446,3.305511 -2.079912,3.665054 -3.298413,5.654258 -4.405576,7.192102 -0.705247,0.979586 -4.766612,5.757996 -4.946608,5.819946 -0.04747,0.01634 -0.574916,-1.057101 -1.172099,-2.385421 -0.597182,-1.328319 -1.432472,-3.148534 -1.856198,-4.044922 l -0.770411,-1.629794 -0.207255,0.403007 c -0.307368,0.597673 -1.377053,3.213274 -2.450393,5.991707 l -0.947842,2.453575 -0.114725,6.406558 c -0.0631,3.523607 -0.120495,7.725355 -0.127546,9.337217 l -0.01282,2.93066 -2.05701,2.249111 c -8.184284,8.948595 -14.153484,14.331551 -19.990515,18.027216 -0.976663,0.618367 -1.870354,1.185642 -1.98598,1.260612 -0.188176,0.122011 -0.18218,0.270582 0.05715,1.416288 0.393843,1.885374 0.643018,3.991722 0.809737,6.844931 l 0.148196,2.536211 -0.547982,1.418693 c -0.712092,1.843558 -1.716013,3.457908 -2.9603112,4.760298 -0.5500354,0.57571 -1.0000643,1.08237 -1.0000643,1.12591 0,0.12125 4.4960755,6.42842 4.6115815,6.4692 0.05574,0.0197 0.179481,-0.86974 0.274979,-1.97649 0.216027,-2.5036 0.414629,-3.96226 1.132331,-8.3166 0.312013,-1.892997 0.616458,-3.441817 0.676543,-3.441817 0.06009,0 1.126209,0.306697 2.369163,0.681549 2.409455,0.726647 2.967054,0.790677 4.574197,0.525263 0.708048,-0.116932 0.947686,-0.211323 0.951661,-0.374852 0.01051,-0.432493 1.589331,-12.149845 1.643304,-12.195953 0.03039,-0.02596 1.642956,0.01107 3.583481,0.08229 2.536319,0.09308 3.554151,0.08755 3.620436,-0.01971 0.05071,-0.08206 0.162233,-1.260448 0.247818,-2.618645 0.08558,-1.358195 0.179325,-2.493162 0.20831,-2.522148 0.02899,-0.02899 1.048092,0.315683 2.26468,0.765929 l 2.21198,0.81863 0.433987,-0.325262 c 0.238693,-0.178896 0.690813,-0.454222 1.00471,-0.611838 0.678737,-0.340812 0.647271,-0.18804 0.858004,-4.165835 0.07918,-1.494568 0.158143,-2.725465 0.175476,-2.735326 0.01733,-0.0099 1.074284,-0.43659 2.34878,-0.94829 1.274497,-0.511699 2.356474,-0.967635 2.404394,-1.013191 0.04792,-0.04556 0.02244,-1.018337 -0.05661,-2.161736 -0.07906,-1.143397 -0.111208,-2.111438 -0.07144,-2.151202 0.07602,-0.07602 8.406159,-1.15095 8.934825,-1.152961 0.24873,-9.46e-4 0.704295,0.595852 2.421089,3.171669 l 2.114708,3.172835 -0.03567,5.428542 -0.03567,5.428541 -2.487293,1.315158 -2.487293,1.315157 -0.01051,0.545239 c -0.0058,0.299881 -0.174957,2.784126 -0.375953,5.520544 l -0.365447,4.975306 -3.79035,0.03625 -3.79035,0.03625 0.09501,0.304525 c 0.05225,0.167489 0.79096,1.697109 1.641573,3.399149 0.850612,1.70205 1.501751,3.11919 1.446975,3.1492 -0.05478,0.03 -2.109085,0.47572 -4.565133,0.99047 -2.456047,0.51475 -4.449577,0.97728 -4.430067,1.02784 0.01951,0.0506 1.033294,0.90503 2.25285,1.89882 1.219555,0.9938 2.200985,1.82269 2.180956,1.842 -0.02003,0.0193 -2.060619,0.66204 -4.534641,1.4283 -2.474022,0.76626 -4.581329,1.43741 -4.682906,1.49143 -0.118539,0.063 0.674526,0.55721 2.214292,1.37975 l 2.398976,1.28152 0.0026,3.20328 c 0.0023,2.87191 0.05669,3.81667 0.219596,3.81667 0.02894,0 0.282475,-0.25367 0.563419,-0.56372 z m -14.56548,-13.27172 c 2.180303,-0.67473 3.961254,-1.25746 3.957668,-1.29494 -0.0036,-0.0375 -0.892145,-0.77356 -1.974574,-1.63572 -1.284117,-1.0228 -2.074807,-1.56237 -2.275241,-1.55264 -0.382281,0.0186 -3.429259,0.36657 -3.47783,0.39721 -0.04848,0.0306 -0.577874,4.68821 -0.577874,5.08415 0,0.2024 0.0693,0.30095 0.191831,0.2728 0.105508,-0.0242 1.975717,-0.59613 4.15602,-1.27086 z m 4.438305,-1.42183 c 0.04313,-0.0698 0.01608,-0.16542 -0.06011,-0.21251 -0.07619,-0.0471 -0.138533,0.01 -0.138533,0.12689 0,0.23943 0.08179,0.27468 0.198643,0.0856 z m 4.981128,-7.03928 c 2.061684,-0.42971 3.775103,-0.80365 3.807598,-0.83098 0.03249,-0.0273 -0.734247,-1.665325 -1.703872,-3.639982 l -1.762952,-3.590287 -0.803776,-0.08779 c -0.442077,-0.04829 -1.242146,-0.08779 -1.777932,-0.08779 h -0.974155 l -0.577035,4.464144 c -0.31737,2.455275 -0.575404,4.516795 -0.573411,4.581155 0.002,0.0643 0.141637,0.0846 0.31032,0.0449 0.168683,-0.0396 1.99353,-0.42367 4.055215,-0.85338 z M 45.164534,90.952675 c 0.04599,-0.543535 0.184789,-2.460391 0.308449,-4.25968 0.123659,-1.799288 0.263177,-3.310332 0.31004,-3.357876 0.04686,-0.04754 1.11264,-0.626629 2.368393,-1.286858 l 2.283188,-1.200417 V 79.248657 77.64947 l -2.480468,1.01596 c -1.364256,0.558779 -2.493675,1.029418 -2.509816,1.045865 -0.01614,0.01645 -0.162751,2.39147 -0.325796,5.277829 -0.163044,2.886358 -0.311951,5.263679 -0.330902,5.282937 -0.01895,0.01926 -0.992149,-0.42271 -2.162658,-0.982147 l -2.1282,-1.017158 -0.768796,0.462946 c -0.422839,0.25462 -0.938507,0.500218 -1.145928,0.545776 -0.35455,0.07787 -0.382295,0.137526 -0.463407,0.996285 -0.04745,0.5024 -0.08671,1.082137 -0.08725,1.288306 l -9.69e-4,0.374851 h 3.525252 3.525252 z M 98.908888,51.826967 c 0.03162,-0.03162 -0.311782,-0.178568 -0.763119,-0.326547 -0.878394,-0.287998 -0.943568,-0.248323 -0.689556,0.419778 0.129736,0.341231 0.137436,0.34279 0.763119,0.154486 0.347634,-0.104621 0.657933,-0.216094 0.689556,-0.247717 z m -1.760736,-0.881201 c -0.03987,-0.131198 -0.350668,-1.035954 -0.690661,-2.010569 -0.923029,-2.645919 -1.111092,-3.709942 -1.096209,-6.202093 0.0108,-1.807306 0.06286,-2.301033 0.360098,-3.414605 0.651892,-2.442277 1.745621,-4.344804 3.60893,-6.277692 1.35588,-1.406513 2.54903,-2.339577 4.4005,-3.441287 1.46463,-0.87152 1.38754,-0.927552 -0.68065,-0.494749 -5.57679,1.167042 -11.245405,4.15348 -15.649094,8.244526 -0.802195,0.745241 -0.982751,0.861633 -0.928676,0.598648 0.148574,-0.722551 0.218848,-1.485089 0.136865,-1.485089 -0.04783,0 -1.15668,-0.251565 -2.464109,-0.559035 -1.30743,-0.307469 -2.409165,-0.527016 -2.448298,-0.487883 -0.325137,0.325137 -0.517319,3.027444 -0.326763,4.594668 0.173927,1.430464 0.531344,2.995117 0.68418,2.995117 0.05443,0 1.04374,-1.046147 2.198462,-2.32477 l 2.099494,-2.324771 0.03596,0.586821 c 0.280628,4.579856 3.831538,9.067838 9.20731,11.637089 1.383751,0.661339 1.66246,0.726978 1.552664,0.365674 z"
     id="path25" />
</svg>
