<?xml version="1.0" encoding="UTF-8" standalone="no"?>
<!-- Created with Inkscape (http://www.inkscape.org/) -->

<svg
   width="100mm"
   height="100mm"
   viewBox="0 0 99.999999 100"
   version="1.1"
   id="svg1"
   inkscape:version="1.3.2 (091e20ef0f, 2023-11-25)"
   sodipodi:docname="bn.svg"
   xmlns:inkscape="http://www.inkscape.org/namespaces/inkscape"
   xmlns:sodipodi="http://sodipodi.sourceforge.net/DTD/sodipodi-0.dtd"
   xmlns="http://www.w3.org/2000/svg"
   xmlns:svg="http://www.w3.org/2000/svg">
  <sodipodi:namedview
     id="namedview1"
     pagecolor="#ffffff"
     bordercolor="#000000"
     borderopacity="0.25"
     inkscape:showpageshadow="2"
     inkscape:pageopacity="0.0"
     inkscape:pagecheckerboard="0"
     inkscape:deskcolor="#d1d1d1"
     inkscape:document-units="mm"
     inkscape:zoom="2"
     inkscape:cx="139.75"
     inkscape:cy="114.75"
     inkscape:window-width="3840"
     inkscape:window-height="2160"
     inkscape:window-x="0"
     inkscape:window-y="0"
     inkscape:window-maximized="1"
     inkscape:current-layer="layer1" />
  <defs
     id="defs1" />
  <g
     inkscape:label="Layer 1"
     inkscape:groupmode="layer"
     id="layer1"
     transform="translate(-80.072018,-72.833421)">
    <g
       id="g9"
       transform="matrix(2.418286,0,0,2.418286,-610.43058,-176.97013)"
       style="fill:#5984bd;fill-opacity:1;stroke-width:1;stroke-dasharray:none">
      <path
         fill="#1f1a17"
         d="m 305.93018,110.68687 c 2.29766,0.71641 3.96157,0.76102 6.04475,1.86917 2.07193,1.09503 2.38841,0.90779 3.84908,2.63096 3.83744,3.07819 5.4995,10.42383 5.49831,10.58874 0.83061,5.44996 0.63187,8.46753 0.52101,16.29971 -7.65233,-0.0187 -12.71665,0.32127 -20.36887,0.36107 1.29351,-4.77791 -0.13982,-1.89004 1.57708,-4.36496 0.24564,-0.4997 0.71233,-1.75192 1.64142,-2.70444 3.65948,-4.2107 3.0097,-13.06465 2.29081,-16.81309 -0.57189,0.46877 -4.79356,7.48345 -5.47889,7.7769 -1.72965,3.70506 -2.6449,5.66362 -4.31028,8.69664 -0.63479,0.7113 -1.4337,1.38587 -2.28165,1.44292 -2.59875,0.27886 -2.07542,-0.0313 -3.87323,-1.70066 -1.19315,-1.59609 -0.70457,-2.38351 -0.71332,-4.13548 0,-1.30222 1.53186,-5.09372 2.46041,-7.10537 -0.0883,-5.50187 0.12094,-5.65989 -0.12845,-6.86967 -0.0696,-1.54887 0.19751,-1.54156 0.97513,-2.79844 0.33528,-0.51589 0.7543,-1.11071 1.3206,-1.67701 -0.82502,-2.26225 -1.66441,-3.90856 -1.50597,-6.30581 3.07977,1.09503 5.17046,4.28114 7.26114,6.64276 0.51564,-1.7541 1.25326,-3.99779 2.7533,-5.07688"
         id="path1515-6"
         sodipodi:nodetypes="ccccccccccccccccccccc"
         style="clip-rule:evenodd;fill:#5984bd;fill-opacity:1;fill-rule:evenodd;stroke-width:1;stroke-dasharray:none;image-rendering:optimizeQuality;shape-rendering:geometricPrecision" />
      <path
         fill="url(#0)"
         d="m 322.12234,142.05765 c -0.0507,0 0.1106,-1.65216 0.1106,-4.00042 0.0159,-1.93693 0.0159,-3.9376 0,-6.0086 -0.0159,-2.07193 -0.29344,-4.13542 -0.83346,-6.19985 -0.53157,-1.98474 -1.11096,-3.67509 -1.7466,-5.08044 -0.63471,-1.40535 -1.32566,-2.61195 -2.07193,-3.63572 -1.11097,-1.67442 -2.63538,-3.09571 -4.55637,-4.25449 -1.92099,-1.16722 -4.92856,-1.4429 -7.02392,-1.80009 0.1425,0.7622 -0.37245,0.90289 -0.38839,1.63322 -0.0694,1.21011 -0.0976,1.2263 0.0143,0.11999 0.0478,-2.04755 -0.70979,-4.18244 -2.20983,-5.63467 -1.17471,1.23847 -1.96951,2.90998 -2.0567,4.55346 -0.0319,0.54751 -0.13046,0.93027 -0.66204,0.86746 -0.59489,-0.055 -0.72731,-0.67216 -0.88002,-1.04328 -1.05764,-0.0673 -2.43883,1.17507 -2.90662,0.63077 -0.0704,-0.0613 0.73534,-0.26972 1.26692,-0.53129 0.66658,-0.34126 1.1594,0.06 1.39052,-0.46838 -1.33315,-1.36503 -4.12184,-4.16246 -5.82813,-5.00342 0.18281,2.15912 1.11075,5.13927 2.10265,7.06869 0.26157,0.39657 0.43304,0.28932 0.044,0.59964 -0.64343,0.52197 -0.75427,-0.36705 -1.2377,-1.34989 -0.32532,0.32532 -0.93611,1.27469 -1.03924,1.42469 -0.11063,0.14251 -1.03741,1.58276 -0.90073,2.11289 0.57525,2.23106 0.72614,5.9968 -0.82548,10.07886 -1.38628,2.88275 -1.24413,2.93078 -1.60207,4.78259 -0.1425,0.52408 -0.1425,1.16722 0,1.91349 0.135,0.75377 0.4115,1.55534 0.87183,1.97629 0.38107,0.53866 0.77593,0.93237 1.77598,1.5758 5.64889,1.44664 6.15969,-8.4065 9.71164,-11.28712 0.65908,-0.31782 1.24597,-0.7219 1.75411,-1.22254 0.7144,-0.69845 1.26191,-1.55535 1.65098,-2.58006 0.20626,-0.57189 0.27751,-1.27785 0.2297,-2.11975 -0.13501,-0.52407 0.1275,-0.78564 0.79408,-0.78564 0.4997,0 0.25032,0.0893 0.31408,0.60497 0,1.7466 -1.5314,3.94906 -1.06405,5.45963 1.17524,3.52421 1.59498,6.69967 -0.24657,9.2341 -2.43071,3.25755 -4.33905,5.6304 -4.27735,8.37098 6.71766,0.0604 13.53549,-0.006 20.32581,-0.002 z"
         id="path1517-2"
         style="clip-rule:evenodd;fill:#5984bd;fill-opacity:1;fill-rule:evenodd;stroke:#000000;stroke-width:1;stroke-dasharray:none;stroke-opacity:1;image-rendering:optimizeQuality;shape-rendering:geometricPrecision"
         sodipodi:nodetypes="ccscccccccccccccccccccscccccccccscccccc" />
      <path
         style="clip-rule:evenodd;fill:#5984bd;fill-opacity:1;fill-rule:evenodd;stroke:#1f1a17;stroke-width:1;stroke-linecap:butt;stroke-linejoin:miter;stroke-miterlimit:4;stroke-dasharray:none;stroke-opacity:1;image-rendering:optimizeQuality;shape-rendering:geometricPrecision"
         d="m 295.12162,119.65904 5.32636,-1.52678"
         id="path11999-4"
         sodipodi:nodetypes="cc" />
    </g>
  </g>
</svg>
