<?xml version="1.0" encoding="UTF-8" standalone="no"?>
<!-- Created with Inkscape (http://www.inkscape.org/) -->

<svg
   width="100mm"
   height="100mm"
   viewBox="0 0 99.999999 100"
   version="1.1"
   id="svg1"
   inkscape:version="1.3.2 (091e20ef0f, 2023-11-25)"
   sodipodi:docname="ws.svg"
   xmlns:inkscape="http://www.inkscape.org/namespaces/inkscape"
   xmlns:sodipodi="http://sodipodi.sourceforge.net/DTD/sodipodi-0.dtd"
   xmlns="http://www.w3.org/2000/svg"
   xmlns:svg="http://www.w3.org/2000/svg">
  <sodipodi:namedview
     id="namedview1"
     pagecolor="#ffffff"
     bordercolor="#000000"
     borderopacity="0.25"
     inkscape:showpageshadow="2"
     inkscape:pageopacity="0.0"
     inkscape:pagecheckerboard="0"
     inkscape:deskcolor="#d1d1d1"
     inkscape:document-units="mm"
     inkscape:zoom="4"
     inkscape:cx="248.375"
     inkscape:cy="146.875"
     inkscape:window-width="3840"
     inkscape:window-height="2160"
     inkscape:window-x="0"
     inkscape:window-y="0"
     inkscape:window-maximized="1"
     inkscape:current-layer="g11" />
  <defs
     id="defs1">
    <inkscape:path-effect
       effect="mirror_symmetry"
       start_point="315.43105,70.325788"
       end_point="315.43105,88.07364"
       center_point="315.43105,79.199714"
       id="path-effect21"
       is_visible="true"
       lpeversion="1.2"
       lpesatellites=""
       mode="free"
       discard_orig_path="false"
       fuse_paths="true"
       oposite_fuse="false"
       split_items="false"
       split_open="false"
       link_styles="false" />
    <linearGradient
       id="a"
       gradientUnits="userSpaceOnUse"
       x1="23.898348"
       x2="85.692467"
       y1="24.665611"
       y2="24.665611"
       gradientTransform="matrix(3.5434,0,0,3.5434,-9.1609105,-10.181225)">
      <stop
         offset="0"
         stop-color="#fae4ed"
         id="stop1"
         style="stop-color:#5984bd;stop-opacity:1;" />
      <stop
         offset="1"
         stop-color="#1f1a17"
         stop-opacity=".992157"
         id="stop2" />
    </linearGradient>
  </defs>
  <g
     inkscape:label="Layer 1"
     inkscape:groupmode="layer"
     id="layer1"
     transform="translate(-43.37644,-75.16612)">
    <g
       transform="matrix(1.6079137,0,0,1.6079137,-433.95882,-33.607201)"
       id="g11">
      <path
         d="m 326.18336,94.185303 c 0.27004,-7.851481 1.5599,-13.897015 -2.04655,-16.814885 2.67344,-1.165346 2.31437,-3.007793 3.83996,-5.141231 1.5256,2.133438 1.16653,3.975885 3.83997,5.141231 -3.60644,2.91787 -2.31659,8.963404 -2.04656,16.814885 v 5.3e-5 c -0.63356,0.205433 -1.20562,0.30632 -1.79341,0.31067 -0.58778,-0.0041 -1.15984,-0.105251 -1.79341,-0.31067 z"
         id="path2-4-9"
         style="fill:#ffffff;fill-opacity:1;stroke:#000000;stroke-width:1.32829"
         sodipodi:nodetypes="scccsscss" />
      <path
         d="m 311.91126,113.29472 c 11.05187,4.49736 21.73565,4.64083 32.01495,0 l -6.03906,-17.138425 c -6.03866,2.400573 -13.7917,2.90109 -19.84264,-0.136495 z"
         stroke-width="1.47773"
         id="path5-86-3"
         style="fill:#ffffff;fill-opacity:1;stroke:#000000" />
      <path
         d="m 316.99387,95.182049 -5.59841,11.652621 -0.89983,-0.84531 -4.17227,7.4927 -0.74866,-1.21277 c -1.81965,2.5523 -2.77756,3.9777 -4.59722,6.52999 1.46128,2.4963 4.53609,6.03304 7.39694,6.72592 1.36639,-3.13806 8.54543,-23.77189 10.48814,-28.816031 m 20.06839,-1.52712 5.59841,11.652621 0.89984,-0.84531 4.17226,7.4927 0.74867,-1.21277 c 1.81964,2.5523 2.77755,3.9777 4.59721,6.52999 -1.46128,2.4963 -4.53607,6.03304 -7.39694,6.72592 -1.36639,-3.13806 -8.54543,-23.77189 -10.48814,-28.816031"
         stroke-width="1.49995"
         id="path4-7-9"
         style="fill:#ffffff;fill-opacity:1;stroke:#000000" />
      <path
         d="m 318.19308,93.209167 c 8.80792,-7.850628 12.0561,-7.197795 20.42891,0.127871 -4.29743,1.75444 -4.62005,1.550045 -10.04707,2.522878 -5.01433,-1.021599 -4.14841,-0.180896 -10.38184,-2.650749 z"
         stroke="#000000"
         id="path10-4-0"
         style="fill:#000000;fill-opacity:1;stroke-width:1.49995" />
      <path
         d="m 301.43359,70.298828 c -0.18862,9.785603 3.24979,18.079521 13.99805,17.738281 10.74826,0.34124 14.18472,-7.952678 13.99609,-17.738281 -0.75439,10.65296 -5.41398,13.520531 -13.99609,14.158203 -8.5821,-0.637672 -13.24365,-3.505243 -13.99805,-14.158203 z"
         fill="#cccccc"
         stroke-width="0.800004"
         id="path3-30-8"
         style="fill:#ffffff;fill-opacity:1;stroke:#000000"
         inkscape:path-effect="#path-effect21"
         inkscape:original-d="m 301.43368,70.298865 c -0.1894,9.82592 3.27748,18.147217 14.13056,17.733025 10.85307,0.414192 12.38667,-7.907105 12.19726,-17.733025 -0.75828,10.70795 -3.53018,13.550465 -12.19726,14.168436 -8.66709,-0.617971 -13.37227,-3.460486 -14.13056,-14.168436 z"
         sodipodi:nodetypes="ccccc"
         transform="matrix(1.4999456,0,0,1.4999456,-145.19818,-34.248461)" />
    </g>
  </g>
</svg>
