<svg height="45" width="45" xmlns="http://www.w3.org/2000/svg"><g stroke="#000080"><g fill="none" fill-rule="evenodd" stroke-linecap="round" stroke-linejoin="round" stroke-width="1.5" transform="matrix(.75 0 0 .75 5.273555 9.75)"><g stroke-width="2"><path d="m22 10c10.5 1 16.5 8 16 29h-23c0-9 10-6.5 8-21" fill="#fff"/><path d="m24 18c.38 2.91-5.55 7.37-8 9-3 2-2.82 4.34-5 4-1.042-.94 1.295259-2.105477-.114741-2.065477-1 0 .304741.295477-.885259 1.065477-1 0-4.003 1-4-4 0-2 6-12 6-12s1.89-1.9 2-3.5c-.73-.994-.5-2-.5-3 1-1 3 2.5 3 2.5h2s.78-1.992 2.5-3c1 0 1 3 1 3" fill="#fff"/><path d="m9.5 25.5a.5.5 0 1 1 -1 0 .5.5 0 1 1 1 0zm5.433-9.75a.5 1.5 30 1 1 -.866-.5.5 1.5 30 1 1 .866.5z" fill="#000080"/></g><path d="m10.885259 28.934523c4.658159-4.901533 8.837029-10.09064 10.357143-16.875" fill="none" stroke-linecap="butt" stroke-linejoin="miter" stroke-width="1.333333"/><path d="m9.2781168 18.666666c1.9094982 1.647124 3.8268382 3.283791 6.6666662 3.690475" fill="#000080" stroke-linecap="butt" stroke-linejoin="miter" stroke-width="1.333333"/></g><g transform="matrix(.75 0 0 .75 .537546 24.6285)"><path d="m29.283272-19.515244s4.5-2.244711 3-5.244711c0 0-1-2.5-3-2.5s-3 2.5-3 2.5c-1.5 3 3 5.244711 3 5.244711" fill="#fff" fill-rule="evenodd" stroke-width="2"/><g stroke-linecap="round" stroke-linejoin="round"><path d="m18.314679-5.838c6.07262-3.1805639 15.997715-2.3066761 21 0v-3.5002132s9-4.4999998 6-10.4999998c-4-6.5-13.626269-3.631526-16.626269-3.631526s-12.373731-2.868474-15.373731 3.631526c-3 6 5 9.9999998 5 9.9999998z" fill="#fff" fill-rule="evenodd" stroke-width="2"/><path d="m18.314679-9.3382132c5.5-2.9999998 15.5-2.9999998 21 0" fill="none" stroke-width="1.333333"/></g></g></g></svg>