<svg height="60" width="52.157" xmlns="http://www.w3.org/2000/svg"><path d="m-10.911031 7.4113606-13.007275 4.1293604-6.930693 42.754752 39.8733542.000027-6.9308349-42.755646z" fill="#fff6d5" fill-opacity=".984314" stroke="#000" transform="matrix(1.06281384207 0 0 1.02559163332 37.67626616877 -1.63040901701)"/><g transform="translate(0 -2.92131)"><path d="m19.693763 44.364407c6.1055.01857 22.88321-1.679024 22.03779 4.940882-.45225 3.773888-32.2409298 4.911775-31.31745-1.762916.69726-3.194369 6.03738-2.756322 9.27966-3.177966z" fill="#afdde9" stroke="#000" stroke-width=".8"/><g transform="matrix(-1 0 0 1 195.66817 7.203584)"><g transform="translate(.190678 -1.970339)"><path d="m177.90149 13.574112s-1.84718-1.378005-2.84476-1.151449c-1.69872.385786-3.59732 2.120388-3.52209 3.860742.0792 1.831768 2.38599 3.16056 2.52595 3.816958.0594.278208.0504.89795-.37083.840844-.92055-.124799-1.73201-.596632-2.29058-1.338917-.63384-.842306-.38736-2.191222-.9729-3.067794-.60884-.911462-1.39611-1.809908-2.34598-1.808934-5.35625.0055-12.21054 9.730597-12.21054 9.730597-2.09996 3.038597-2.55464 4.334585-2.1057 4.706979.83435.692095 4.29544-1.716041 6.61103-2.146673.18421-.03684 2.18449-.419946 2.33173-.30412.57257.450412.68387.282537.81326.253596.33443-.07481.45568-.289956.69813-.501184.61606-.536736.68619-.624255 1.46118-.719883.30736-.03793 1.05995 1.723456 1.35896 1.685862 1.02328-.128653.36642-2.049315 1.23054-2.343989 1.11494-.380204 4.66086-.350929 6.65238-1.420518.93885-.504234 1.56314-1.561614 1.8965-2.573828.28988-.880204.26007-1.816724-.51451-3.067088-.3567-.575791-1.72066-.454994-1.72066-.454994-1.20786 0-1.2773-2.344026.2032-2.235166l3.86344-.09238z" fill="#f2f2f2" stroke="#000" stroke-width=".8"/><path d="m177.94756 13.67692 5.36352 1.358814c-1.68871.02406-2.40085.23367-4.4596.319398-.83698-.505836-.61233-1.117836-.90392-1.678211" fill="#ccc" stroke="#000" stroke-width=".5"/><ellipse cx="175.6125" cy="13.817475" opacity=".99" rx=".800166" ry=".746822"/></g><g fill="none" stroke="#000"><path d="m154.60426 24.324883c.006.005 8.10621-.701448 10.28213-2.763072 1.47852-1.400857 6.05605-5.460489 6.05605-5.460489" stroke-width=".8"/><path d="m157.48236 23.89951c1.40586-1.82339 5.1495-6.114184 7.0157-7.554364" stroke-linecap="round" stroke-width=".7"/><path d="m161.07478 23.004502c1.04037-1.757359 5.11684-5.346476 6.66481-6.850035" stroke-linecap="round" stroke-width=".7"/><path d="m167.32645 25.402349-.98875 8.274165 1.49723 7.17075-1.74562 2.424289" stroke-width=".8"/><path d="m167.83493 40.847264.97652 2.397961" stroke-width=".8"/><path d="m167.83493 40.847264 4.49355 1.320646" stroke-width=".8"/><g stroke-width=".8" transform="translate(-4.988698)"><path d="m168.69722 24.952917-.39163 8.015411 1.07985 7.676691-4.19503 2.828778"/><path d="m169.38547 40.645019-.21448 3.117053"/><path d="m169.16076 40.667491 2.58346 1.590306"/></g></g></g><path d="m33.977079 30.494772c.419474.51768 1.217076 1.119389.943807 1.483127l6.629127 2.696594.314602-1.078638-1.04789-2.224689c-2.316649-.278698-4.235434-.120932-6.839646-.876394z"/><path d="m21.88236 26.370538c-.502178.570656-3.718377-.612695-1.892954-2.154434.539017-.45525 1.620763-1.525424 1.620763-1.525424.601406-.534545.339423-1.192432.127118-1.843221-.978694-.613508-1.873753-.599754-2.733051-.317796l-2.175984-.05364.70168-1.565852 1.601423-.922876c.153993.611969-.009 1.359806 1.334746 1.461864l2.79661.127119.88983 1.716102c-.92944 3.476428-3.115681 3.709979-2.270181 5.078158z"/><path d="m18.80874 18.292687c1.179775-.776369 2.144313-.490481 3.596119.710444" fill="none" stroke="#a00" stroke-linecap="round" stroke-width=".5"/></g></svg>