<svg height="60" width="52.157" xmlns="http://www.w3.org/2000/svg"><g stroke="#000"><path d="m526.83519 8-17.83075 5.91961-9.33515 60.222122 54.33071-.000253-9.33517-60.222234z" fill="#fff6d5" fill-opacity=".960784" opacity=".99" stroke-width="1.39425" transform="matrix(-.69 0 0 .69 389.594404 1.674008)"/><path d="m31.068001 39.08504c.573207.832746 1.575237 1.899579 1.521956 2.960139-1.177998-.318935-2.212062-1.067204-3.050025-1.499484z" fill="#c29771" stroke-width=".8"/><path d="m29.508152 40.768153c.573207.832746 1.607017 1.677121 1.553736 2.737681-1.177998-.318935-2.243842-.844746-3.081805-1.277026z" fill="#c29771" stroke-width=".8"/><g fill="none" stroke-width=".8" transform="matrix(-.97175288 -.23600073 -.23600073 .97175288 61.962342 6.799062)"><path d="m21.364778 42.962441-4.600954 3.374818-2.292105-.988751"/><path d="m14.381833 47.595669 2.381991-1.25841-.584262 2.516821"/></g><path d="m20.595287 42.698143c2.104362.175063 3.976086.768873 6.634701-.05372 6.80708-4.414013 4.814603-10.343114 1.414952-18.09333-.372066-.474047-1.006782-1.481639-.984217-3.065953.01537-1.079182-.133729-4.430259-.152933-5.479058-1.572504.355841-1.347914 2.433736-2.33542 2.945258-1.550334.803064-2.557387 2.50602-2.40535 3.937932l.585333 5.512787c-4.056474 3.601111-6.160434 7.802853-7.162295 12.469528l-2.874142 4.566394c2.526784-.79419 4.955662-1.436296 7.279369-2.739835z" fill="#c29771" stroke-width=".8"/></g><ellipse cx="-25.038448" cy="21.277992" rx=".985942" ry=".927945" transform="scale(-1 1)"/><path d="m29.848421 28.607154c-.611907 5.738911-3.094343 10.48149-8.719454 13.713798 1.756037.207738 4.176857.690955 5.904388-.02882 1.994351-1.326375 3.682881-2.545575 4.242344-5.892507.379837-3.346068-.669297-5.837064-1.427278-7.792471z" fill="#dac4ae"/><g fill="none" stroke="#000" stroke-width=".8" transform="matrix(-1 0 0 1 53.937992 -.629206)"><path d="m21.977238 42.022709-5.213414 4.31455-2.292105-.988751"/><path d="m14.381833 47.595669 2.381991-1.25841-.584262 2.516821"/></g><path d="m15.417461 42.529278c6.220814 1.254408 13.986944-4.786589 13.254376-10.431822" fill="none" stroke="#000" stroke-linecap="round" stroke-width=".7"/></svg>