<svg height="60" width="52.157" xmlns="http://www.w3.org/2000/svg"><g stroke="#000"><path d="m26.078738 4.3411809-15.560623 5.101605-7.2585124 46.2422171 45.6377974-.000189-7.258507-46.2421821z" fill="#fff6d5" stroke-width=".999999"/><g stroke-width=".799571" transform="matrix(.75540554 0 0 .75540554 -103.92021 -91.095302)"><path d="m174.71628 154.9367c-.0606-.28607.875-.0625.875-.0625-.10513-.4811-.19673-.37264-1.0625-2.375l.3125-.4375c.0161-.73394-.46674-1.96674-.9375-3.1875l.9375-1.5625-.4375-.1875.125-1.3125c-1.92885.97815-5.55132-.33418-6.0625 3.375-1.08421.91357-1.5196 1.98232-1.4375 3.0625.68765-1.14568 2.2136-1.4531 4.0625-1.4375.72397 4.3698-1.14154 6.08762-2.9375 7.6875-.16268-.56305.0815-1.20119-.25-1.5625-.75583-.82375-3.67798-4.16737-2.6875-6.5625.53431-1.29205-2.48291 1.4721-1.375 5.3125-4.70162-4.56917 1.71558-6.07085 4.0625-11.75-1.22963-5.03704-2.14975-9.68718-.75-11.4375-2.095 1.91117-4.38802 2.44609-3.25 10-1.60869-2.04982-2.06648-4.2221-1.9779-7.49621-.95006 1.52894-3.59207.24546-.9596 9.30871-1.26125-1.37524-2.98812-1.72613-3.5-4.75-1.00875 1.84396-.71336 4.22143 1.9375 7.5625-1.62934-.99653-3.41585-1.86732-4.25-3.5-.16017 2.51994 1.25437 4.43422 3.25 6.125l-3.625-1.3125c.17282 2.12008 1.47817 3.33413 3.3125 4.125l-2.875-.125c.79585 1.90551 2.2402 2.08169 3.5 2.75-.91395.125-1.86909.25-3.4375.375 1.01365.99497 2.51047 1.62757 4.1875 2.125-.71516.34768-1.38806.86444-1.9375 1.875 1.05452.2828 2.43241.0805 3.8125-.125-.47289.96461-1.1152 1.7598-1.75 2.5625 1.03912.0737 2.46455-.49648 4-1.25.56137 1.47093-.56696 2.30822-1.25 3.3125 1.69335-.2728 3.43398-.823 4.3125-2.5625-.0927 1.30547-.62586 2.81185-1.375 3.625 1.55983-.11984 2.97913-.33336 3.0625-1.4375 1.36188 2.80309-.67715 3.74009-2.54777 6.10096.75.75609 1.17277.42235 1.92277.52404-.74108 1.32734-1.53044 2.46158-2.4375 3.125.14201.58726 2.14247.34292 3.5625-1-.20064 2.31361-2.15185 4.14779-3.8125 5.8125.86126-.81153 3.22943.70376 6-4.875-.84222 5.62914.33252 9.8464 1.0625 14.375.72998-4.5286 1.90472-8.74586 1.0625-14.375 2.77057 5.57876 5.13874 4.06347 6 4.875-1.66065-1.66471-3.61186-3.49889-3.8125-5.8125 1.42003 1.34292 3.42049 1.58726 3.5625 1-.90706-.66342-1.69642-1.79766-2.4375-3.125.75-.10169.72656.29155 1.47656-.46454-1.61943-1.90653-3.46344-3.35737-2.10156-6.16046.0834 1.10414 1.50267 1.31766 3.0625 1.4375-.74914-.81315-1.2823-2.31953-1.375-3.625.87852 1.7395 2.61915 2.2897 4.3125 2.5625-.68304-1.00428-1.81137-1.84157-1.25-3.3125 1.53545.75352 2.96088 1.3237 4 1.25-.6348-.8027-1.27711-1.59789-1.75-2.5625 1.38009.2055 2.75798.4078 3.8125.125-.54944-1.01056-1.22234-1.52732-1.9375-1.875 1.67703-.49743 3.17385-1.13003 4.1875-2.125-1.56841-.125-2.52355-.25-3.4375-.375 1.2598-.66831 2.70415-.84449 3.5-2.75l-2.875.125c1.83433-.79087 3.13968-2.00492 3.3125-4.125l-3.625 1.3125c1.99563-1.69078 3.41017-3.60506 3.25-6.125-.83415 1.63268-2.62066 2.50347-4.25 3.5 2.65086-3.34107 2.94625-5.71854 1.9375-7.5625-.51188 3.02387-2.23875 3.37476-3.5 4.75 2.63247-9.06325-.01-7.77977-.9596-9.30871.0886 3.27411-.36921 5.44639-1.9779 7.49621 1.13802-7.55391-1.155-8.08883-3.25-10 1.39975 1.75032.47963 6.40046-.75 11.4375 2.34692 5.67915 8.76412 7.18083 4.0625 11.75 1.10791-3.8404-1.90931-6.60455-1.375-5.3125.99048 2.39513-1.93167 5.73875-2.6875 6.5625-.3315.36131 0 1.59375 0 1.59375s-1.32282-2.46142-1.5625-3.59375z" fill="#e25e41" stroke="#000" stroke-width="1.05903"/><path d="m174.71628 154.9367c-.0606-.28607.875-.0625.875-.0625-.10513-.4811-.19673-.37264-1.0625-2.375l.3125-.4375c.0161-.73394-.46674-1.96674-.9375-3.1875l.9375-1.5625-.4375-.1875.125-1.3125c-1.92885.97815-5.55132-.33418-6.0625 3.375-1.08421.91357-1.5196 1.98232-1.4375 3.0625.68765-1.14568 2.2136-1.4531 4.0625-1.4375.72397 4.3698-1.14154 6.08762-2.9375 7.6875-.16268-.56305.0815-1.20119-.25-1.5625-.75583-.82375-3.67798-4.16737-2.6875-6.5625.53431-1.29205-2.48291 1.4721-1.375 5.3125-4.70162-4.56917 1.71558-6.07085 4.0625-11.75-1.22963-5.03704-2.14975-9.68718-.75-11.4375-2.095 1.91117-4.38802 2.44609-3.25 10-1.60869-2.04982-2.06648-4.2221-1.9779-7.49621-.95006 1.52894-3.59207.24546-.9596 9.30871-1.26125-1.37524-2.98812-1.72613-3.5-4.75-1.00875 1.84396-.71336 4.22143 1.9375 7.5625-1.62934-.99653-3.41585-1.86732-4.25-3.5-.16017 2.51994 1.25437 4.43422 3.25 6.125l-3.625-1.3125c.17282 2.12008 1.47817 3.33413 3.3125 4.125l-2.875-.125c.79585 1.90551 2.2402 2.08169 3.5 2.75-.91395.125-1.86909.25-3.4375.375 1.01365.99497 2.51047 1.62757 4.1875 2.125-.71516.34768-1.38806.86444-1.9375 1.875 1.05452.2828 2.43241.0805 3.8125-.125-.47289.96461-1.1152 1.7598-1.75 2.5625 1.03912.0737 2.46455-.49648 4-1.25.56137 1.47093-.56696 2.30822-1.25 3.3125 1.69335-.2728 3.43398-.823 4.3125-2.5625-.0927 1.30547-.62586 2.81185-1.375 3.625 1.55983-.11984 2.97913-.33336 3.0625-1.4375 1.36188 2.80309-.51354 3.71033-2.54777 6.10096.75.75609 1.17277.42235 1.92277.52404-.74108 1.32734-1.53044 2.46158-2.4375 3.125.14201.58726 2.14247.34292 3.5625-1-.20064 2.31361-2.15185 4.14779-3.8125 5.8125.86126-.81153 3.22943.70376 6-4.875-.84222 5.62914.33252 9.8464 1.0625 14.375.72998-4.5286 1.90472-8.74586 1.0625-14.375 2.77057 5.57876 5.13874 4.06347 6 4.875-1.66065-1.66471-3.61186-3.49889-3.8125-5.8125 1.42003 1.34292 3.42049 1.58726 3.5625 1-.90706-.66342-1.69642-1.79766-2.4375-3.125.75-.10169 1.23227.58903 1.98227-.16706-2.27388-1.87678-3.96915-3.65485-2.60727-6.45794.0834 1.10414 1.50267 1.31766 3.0625 1.4375-.74914-.81315-1.2823-2.31953-1.375-3.625.87852 1.7395 2.61915 2.2897 4.3125 2.5625-.68304-1.00428-1.81137-1.84157-1.25-3.3125 1.53545.75352 2.96088 1.3237 4 1.25-.6348-.8027-1.27711-1.59789-1.75-2.5625 1.38009.2055 2.75798.4078 3.8125.125-.54944-1.01056-1.22234-1.52732-1.9375-1.875 1.67703-.49743 3.17385-1.13003 4.1875-2.125-1.56841-.125-2.52355-.25-3.4375-.375 1.2598-.66831 2.70415-.84449 3.5-2.75l-2.875.125c1.83433-.79087 3.13968-2.00492 3.3125-4.125l-3.625 1.3125c1.99563-1.69078 3.41017-3.60506 3.25-6.125-.83415 1.63268-2.62066 2.50347-4.25 3.5 2.65086-3.34107 2.94625-5.71854 1.9375-7.5625-.51188 3.02387-2.23875 3.37476-3.5 4.75 2.63247-9.06325-.01-7.77977-.9596-9.30871.0886 3.27411-.36921 5.44639-1.9779 7.49621 1.13802-7.55391-1.155-8.08883-3.25-10 1.39975 1.75032.47963 6.40046-.75 11.4375 2.34692 5.67915 8.76412 7.18083 4.0625 11.75 1.10791-3.8404-1.90931-6.60455-1.375-5.3125.99048 2.39513-1.93167 5.73875-2.6875 6.5625-.3315.36131 0 1.59375 0 1.59375s-1.32282-2.46142-1.5625-3.59375z" fill="#e25e41" stroke="#000" stroke-width="1.05903"/><path d="m170.5637 147.56773-.96662 1.21584 1.64126-.42543.24035-.94524z" fill-opacity=".976471" stroke="none"/><g fill="#4c1717" stroke="#000" stroke-width=".926655"><path d="m162.82986 157.23358c-5.96284-4.46927-1.50855-8.46999 4.41947-16.09317-1.22963-5.03704-1.4953-6.89089-.0955-8.64121-2.095 1.91117-4.38802 2.44609-3.25 10-1.60869-2.04982-2.06648-4.2221-1.9779-7.49621-.95006 1.52894-3.59207.24546-.9596 9.30871-1.26125-1.37524-2.98812-1.72613-3.5-4.75-1.00875 1.84396-.71336 4.22143 1.9375 7.5625-1.62934-.99653-3.41585-1.86732-4.25-3.5-.16017 2.51994 1.25437 4.43422 3.25 6.125l-3.625-1.3125c.17282 2.12008 1.47817 3.33413 3.3125 4.125l-2.875-.125c.79585 1.90551 2.2402 2.08169 3.5 2.75-.91395.125-1.86909.25-3.4375.375 1.01365.99497 2.51047 1.62757 4.1875 2.125-.71516.34768-1.38806.86444-1.9375 1.875 1.05452.2828 2.43241.0805 3.8125-.125-.47289.96461-1.1152 1.7598-1.75 2.5625 1.03912.0737 2.46455-.49648 4-1.25.56137 1.47093-.56696 2.30822-1.25 3.3125 1.69335-.2728 3.43398-.823 4.3125-2.5625-1.08412-3.10602-2.28408-2.78243-3.82392-4.26562z"/><path d="m181.35275 157.23358c5.96284-4.46927 1.50855-8.46999-4.41947-16.09317 1.22963-5.03704 1.4953-6.89089.0955-8.64121 2.095 1.91117 4.38802 2.44609 3.25 10 1.60869-2.04982 2.06648-4.2221 1.9779-7.49621.95006 1.52894 3.59207.24546.9596 9.30871 1.26125-1.37524 2.98812-1.72613 3.5-4.75 1.00875 1.84396.71336 4.22143-1.9375 7.5625 1.62934-.99653 3.41585-1.86732 4.25-3.5.16017 2.51994-1.25437 4.43422-3.25 6.125l3.625-1.3125c-.17282 2.12008-1.47817 3.33413-3.3125 4.125l2.875-.125c-.79585 1.90551-2.2402 2.08169-3.5 2.75.91395.125 1.86909.25 3.4375.375-1.01365.99497-2.51047 1.62757-4.1875 2.125.71516.34768 1.38806.86444 1.9375 1.875-1.05452.2828-2.43241.0805-3.8125-.125.47289.96461 1.1152 1.7598 1.75 2.5625-1.03912.0737-2.46455-.49648-4-1.25-.56137 1.47093.56696 2.30822 1.25 3.3125-1.69335-.2728-3.43398-.823-4.3125-2.5625 1.08412-3.10602 2.28408-2.78243 3.82392-4.26562z"/></g></g><g stroke-width=".8"><path d="m25.275878 39.872529c-7.890298 10.436817 16.561771 10.423985 15.885835-1.351575-6.97806 10.585149-14.703069 6.4849-15.713091 4.359947-1.730244-1.806987-.522842-.926035-.172747-3.008372z" fill="#e25e41"/><path d="m29.157839 35.09075c-.629761 1.109906-.155521 4.9085-2.160355 7.754124-4.754511 6.748463 7.100937 7.684583 11.971751 9.086012.82786.238192 1.811441 1.84322 1.811441 1.84322s.670813-3.219045-.476695-3.686441c-5.726643-2.332541-14.450504-1.344535-10.320839-8.020863.850997-1.375787 1.529475-4.924437-.825303-6.976052z" fill="#f95"/><path d="m23.897404 34.869114c-1.223644.904613-7.833911 6.73649-6.497377 10.518133 2.014713 5.700507 20.512665 3.500165 25.194414 5.831163.771149.383948 1.811441 1.84322 1.811441 1.84322s.266465-2.695005-.476695-3.686441c-2.80242-3.738658-22.080048.5381-23.273843-4.226695-.649826-2.593651 3.108437-8.351669 3.24206-10.27938z" fill="#4c1717"/></g><path d="m23.4268 20.648658c.896931-1.727498 1.328422-4.443926 3.055685-5.327143.807031-.412668 1.738933.785943 1.432678 1.656553-.668231 1.89962-2.988403 1.627945-1.696994.265299 0 0 .459191.301808.52626-.02088.05824-.280224-.09418-.638228-.201689-.57041-.100426.06334-2.853901 4.77368-3.115943 3.996582z" fill="#ffd42a" stroke-width=".5"/><path d="m23.340151 21.601158c-1.65653 1.653801-1.244842 2.098243-1.117675 2.535887.916892-.923151 2.015666-1.310171 3.100615-1.308353.40571-.73739-.77263-.987381-1.98294-1.227534z" fill="#ffd42a" stroke-width=".5"/></g></svg>