<svg height="60" width="52.157" xmlns="http://www.w3.org/2000/svg"><path d="m-11.041804 6.6665435-12.954011 4.2210195-6.853184 43.408481 39.614559-.00054-6.8545063-43.407676z" fill="#fff6d5" stroke="#000" stroke-width="1.08123" transform="matrix(.92578418647 0 0 .92396253534 36.30074470404 1.84837755029)"/><g transform="matrix(.84550743 0 0 .84550743 3.54101 5.653692)"><path d="m22.899018 15.90341-2.54237-.476695 1.49365 1.461865c-1.8675 5.918039-.93668 11.581686 3.71822 16.906779.94935 4.84489.79084 9.430494-2.22458 13.347458 3.886379-2.539298 4.067774-5.662667 4.13136-8.961865l-.1589 1.811441c.52966.791317 1.05932.948081 1.58898.985169l-.0636-1.652542c1.20924 3.32833.7688 6.462581.60381 9.629237 1.620512-4.12337 2.245732-8.334916-1.2394-19.385593 0 0 .88347-3.690938.63559-5.529661-.40579-3.009996-.78295-6.912744-3.40042-8.453389-.73601-.433216-1.63159-.484521-2.54234.317796z" fill="#1c566a" stroke="#000" stroke-width=".946177"/><ellipse cx="24.632143" cy="17.126925" rx=".970415" ry=".90572"/><path d="m26.008383 33.666478 2.243735.369539c-1.3919-4.29423-3.840757-12.405676-6.64105-13.979959-.941244 3.486693.431823 9.278502 4.397315 13.61042z" fill="#fff"/><path d="m23.661733 22.291122c1.052431 7.163555 7.197142 17.00001 12.790299 19.273895l-.416718-1.873675 1.545911.714186c-.581776-5.079307-5.504794-15.280768-9.214175-19.496023" fill="#1c566a" stroke="#000" stroke-linecap="round" stroke-width=".946177"/></g></svg>