<svg height="45" width="45" xmlns="http://www.w3.org/2000/svg"><g stroke="#000"><path d="m14.827901 26.613205c-1.036574.674607-2.274904 1.080206-2.541577 2.781348-1.066277 1.1864-2.235649 2.295478-2.253852 4.267933l1.816446-.109958s-.617588 1.452677-.377818 1.452677c.239771 0 1.246812.527497 1.246812.527497l-.679588.625815c.475122.656878-.08557 1.847547 1.111176 2.34735l2.445669.191817-.04796 2.302278 9.638811-.000472.287726-1.198857-4.016365-1.837403.697632-9.639702z" fill="#80bc57" stroke-width="1.5"/><path d="m25.342541 28.678931 3.017884-6.340946c-3.744274-2.015425-7.878706-3.414924-12.037625-3.560424l-1.494899 7.835644z" fill="#80bc57" stroke-width="1.5"/><path d="m25.749446 29.357108c.04365 2.378585-.362381 4.244033.16501 6.863084.477914.415288 1.098415.594277 1.666066.291671 0 0-.175544-1.835812.508633-2.237982.431394-.25358 1.287258-.0065 1.42417.474724.11241.395167-.27682 1.704563-.03391 1.898893 0 0 1.424169.644268 1.424169.881629s-.50741 1.612387-1.390259 2.136256c-1.257731.746318-4.039577.135246-4.039577.135246-1.608728-.390762-3.151338-.847642-4.378124-1.620346l.866538-9.31155z" fill="#80bc57" stroke-width="1.5"/><path d="m27.517526 21.755717s1.423042-2.498759 1.622802-2.537342c2.275537-.439533 2.410265 13.397506 2.407526 14.580785.371251.719969.937178 1.333052 1.525896.678178l.712084-1.898893 1.186808 2.678795c1.128527.980421 1.874724 1.137362 1.831074-.406905l-.271269-2.03453 1.118991 2.03453c.609409.425871 1.331121 1.282237 1.424169-.271272-.06781-.745993-.02146-1.149487-.203453-2.237981l1.559806 2.136256c1.022553 1.140873 1.141768.475069 1.186808-.33909.763048-10.058464-.846012-22.939912-8.138111-26.347139 0 0-2.343196-1.188999-5.15414-.678177-1.399808.254382-4.692311 4.644818-4.692311 4.644818.06199-1.333566-.628408-5.768236-5.249338-6.552683-2.970219-.504223-5.851193-.504309-5.773441-.309932-4.2203816.2938308-7.4968503.5389754-8.8572452 2.8456274-.4107471.6964525-.0159489 2.6661066.0154397 2.7789906.5182978-.013947 2.0972041-2.3610616 7.5281205-2.5973621-1.9725358.089438-3.0302391.2306334-5.7415237 2.2646671-1.695763 2.144843.2505064 2.464865 1.1353394 2.201152l5.2077853-2.542384c-1.825466.939525-3.1851349 2.328845-4.3630079 3.754064-.112467.04325.4493134 2.399831 1.5023634 1.95391.88531-.374891 2.1422755-3.451038 4.9029325-2.986574 2.431585.4091 4.189113 5.999164 2.788361 6.306248 3.810615.24408 7.487978 1.10498 10.787534 2.882243z" fill="#80bc57" stroke-width="1.5"/><g fill="none"><path d="m29.479418 36.647502s-.746149 1.430482-1.44137 1.725441c-2.009207.227369-3.373317-.414353-4.533828-1.583946l.329342-7.122715" stroke-width="1.14599"/><path d="m33.785834 32.578445s1.125065-12.428031-2.577067-16.106683c-.469436-.466457-1.504871-.793184-2.102348-.508632-1.588909.756731-3.055063 5.148686-3.255246 4.81505" stroke-width="1.4"/><path d="m36.600264 33.324435s1.041545-15.616669-3.729967-19.463652c-.932888-.752131-2.652862-1.44073-3.729969-.915542-2.094451 1.021236-5.289775 6.917397-5.289775 6.917397" stroke-width="1.4"/><path d="m38.872154 32.341082s1.071602-16.456331-4.47596-20.95564c-1.487912-1.20676-5.296897-2.144925-6.578309-.983359-2.551304 2.312682-5.730589 9.053649-5.730589 9.053649" stroke-width="1.4"/><path d="m11.058156 7.976191s1.717638-.502523 4.647963.043259c2.132228.397134 3.594948 1.013776 4.769662 2.837005 1.41639 2.198325.296112 8.267042.296112 8.267042" stroke-width="1.4"/><path d="m10.420989 10.482161c1.841451-.890461 1.658624-.710531 3.417689-.776291 1.629085-.0609 3.114818.712573 4.12549 2.115851 1.386786 1.925501 1.186808 7.019122 1.186808 7.019122" stroke-width="1.4"/></g><ellipse cx="15.524669" cy="30.11865" fill="#80bc57" rx="1.04172" ry=".220971" stroke-linecap="square" stroke-width="1.4"/><path d="m14.801079 24.519491c4.075601.345822 7.717504 1.55904 11.294643 2.901785" fill="none"/><ellipse cx="-24.25746" cy="26.847857" rx="3.153519" ry="2.746613" stroke-linecap="square" stroke-width="1.5" transform="scale(-1 1)"/><path d="m15.9375 21.026786c4.075601.345822 7.717504 1.55904 11.294643 2.901785" fill="none"/></g></svg>