<svg height="45" width="45" xmlns="http://www.w3.org/2000/svg"><g stroke="#000" transform="translate(-98.48987 .018884)"><g transform="matrix(1.1566793 0 0 1.1566793 -1.402737 -5.554048)"><path d="m107.68705 19.55744c.34296.205779 6.53629-5.760884 5.24026-6.74348-.9867-.748077-14.243829 2.970797-14.500572 4.911921-2.610355 1.178247-2.549057 3.667941-3.219861 5.492705l-5.555839 3.661803c-.09071 1.228069.427461 1.760265 1.515229 1.641498 1.422836 3.563254 2.817798 3.196561 4.545686 4.166879-.890492-1.263105-1.384082-2.628441-.552892-3.219861 2.213406-1.574914 5.435729-2.125629 6.357249.39465.60203 1.646498-1.34855 5.143213-3.468379 4.719247l-2.209709-.441942s1.273464 2.577701 2.462247 3.219861c1.021073.551566 2.384801.657448 3.472401.252539.1368-1.376484 1.72671-2.947108 3.21986-3.219862 3.97495-.726105 11.04854 4.987629 11.04854 4.987629s2.84282-2.540704 4.68906-5.975636c1.92302-3.577768.0631-14.578912-1.848-14.101146l-6.43972-1.641498-3.05924 1.230852" fill="#80bc57" stroke-linecap="round" stroke-width="1.29682"/><path d="m102.6502 20.110572c-.33256-.543366-2.38517.429049-3.125636.803475-1.242529 1.036679-1.214905 1.139317-1.230178 1.869183.417715-.545574 1.418576-.0024 3.440824-1.350237z"/></g><path d="m122.03906 13.180195c.77664.69448.41691 1.210389.38964 1.904869l3.84037-3.862039z"/></g></svg>