<svg height="45" width="45" xmlns="http://www.w3.org/2000/svg"><path d="m13.681032 20.250379c-2.637193.958661-4.9463328 2.286379-6.1176638 4.894133 2.5251928-1.401205 4.9009138-1.307679 7.2433138-.880944-1.941339.04999-3.882677-.568772-5.8240158.832002 1.4803128 1.481586 4.7928048.990066 7.3411958 1.321416-.85813-2.055097 1.401752-4.050232-2.64283-6.166607z" fill="#80bc57" stroke="#000" stroke-width="1.5"/><path d="m15.720303 23.343364s-.675427-.810864-1.645907-.955811c.867251-.5612.529364-.853395 1.456688-.727501l-2.790999-1.983905 2.459863-.841655c-.554249-1.13457-1.234737-1.290403-2.356176-2.184698l2.829226-.761099c.233923-1.080393-.876149-1.188293-1.766517-1.670651 1.372953-.449519 2.270281.337587 3.327584.708758.308609-1.242446-.394265-2.484891-.709575-3.727336l2.270641 2.945798c.547548-1.120366.391033-2.432469.06334-3.791187l1.374831 2.509904.217508-3.2877092 1.04071 2.9457972c.5813-.966687.750348-2.307603.898797-3.6672162.215483 1.2290962.13964 2.6264802.993406 3.4868622l1.60837-3.0059162v3.2463892c.896475-1.136552 1.241475-2.50672 1.797593-3.7874532l.04731 4.3285182c.897143-.808527 1.544256-2.061907 2.128727-3.4267442l.141915 3.6672172 2.507168-2.765442c-.321742 1.333972-.573514 2.653125-.520356 3.907689.828451-.994202 1.711083-1.299812 2.601779-1.502957l-1.419151 2.344613c1.080603-.805163 2.072566-.934444 3.027523-.781537l-1.702981 3.126152c1.09622-.02085 2.342912-.424163 3.027522.601183-.973727.641099-1.953993 1.248962-2.743692 2.82556 1.219911-.73603 2.177808-.806091 2.956566-.420828l-2.127082 1.815491c.880837.135627 1.850532.09057 2.434564.829714l-2.932914 2.224382c1.920562-1.040408 2.684889.74863 3.759791 1.21283l-4.469366.41036c.273117-.13016 3.920517 1.75371 3.027522 1.86367-.659182.0812-3.547878.0601-3.547878.0601l.347108 2.50026c.577141 4.1572 4.356413 6.203 4.838888 9.38503l-24.678304-.00011c-1.458441-3.56094 1.671147-7.12187 5.300786-10.68282l-2.235543-.41488 1.742725-1.06925-2.268728-.3531.978656-2.07436-1.728253-.21519.99429-1.581454-1.471596-.345284z" fill="#80bc57" stroke="#000" stroke-width="1.5"/><ellipse cx="22.285332" cy="20.175068" rx="3.002832" ry="2.879224"/><g fill="none" stroke="#000"><path d="m13.494345 40.999906c4.073474-1.36809 9.128464-2.026967 10.992274-6.586787"/><path d="m28.824903 32.455843c-1.245842-.553706-2.707024-.24347-3.790705 1.193198-1.011451 1.340912.04653 2.247461-.223676 3.651741-.246754 1.28239-2.076404 3.32225-2.076404 3.32225" stroke-width="1.5"/></g></svg>