<?xml version="1.0" encoding="UTF-8" standalone="no"?>
<svg
   xmlns:dc="http://purl.org/dc/elements/1.1/"
   xmlns:cc="http://creativecommons.org/ns#"
   xmlns:rdf="http://www.w3.org/1999/02/22-rdf-syntax-ns#"
   xmlns:svg="http://www.w3.org/2000/svg"
   xmlns="http://www.w3.org/2000/svg"
   xmlns:sodipodi="http://sodipodi.sourceforge.net/DTD/sodipodi-0.dtd"
   xmlns:inkscape="http://www.inkscape.org/namespaces/inkscape"
   width="45"
   height="45"
   version="1.1"
   id="svg4343"
   sodipodi:docname="WO.svg"
   inkscape:version="1.0.1 (3bc2e813f5, 2020-09-07)">
  <metadata
     id="metadata4349">
    <rdf:RDF>
      <cc:Work
         rdf:about="">
        <dc:format>image/svg+xml</dc:format>
        <dc:type
           rdf:resource="http://purl.org/dc/dcmitype/StillImage" />
        <dc:title></dc:title>
      </cc:Work>
    </rdf:RDF>
  </metadata>
  <defs
     id="defs4347" />
  <sodipodi:namedview
     pagecolor="#ffffff"
     bordercolor="#666666"
     borderopacity="1"
     objecttolerance="10"
     gridtolerance="10"
     guidetolerance="10"
     inkscape:pageopacity="0"
     inkscape:pageshadow="2"
     inkscape:window-width="3840"
     inkscape:window-height="2050"
     id="namedview4345"
     showgrid="false"
     inkscape:zoom="7.9195959"
     inkscape:cx="39.28152"
     inkscape:cy="40.989729"
     inkscape:window-x="3828"
     inkscape:window-y="-12"
     inkscape:window-maximized="1"
     inkscape:current-layer="g10200"
     inkscape:document-rotation="0" />
  <g
     inkscape:groupmode="layer"
     id="layer1"
     inkscape:label="BG" />
  <g
     inkscape:groupmode="layer"
     id="layer2"
     inkscape:label="Working">
    <g
       id="g10200"
       transform="matrix(1.1528651,0,0,1.1528651,60.602088,-17.625047)">
      <path
         style="fill:#f4eed7;fill-opacity:1;stroke:#000000;stroke-width:1.5;stroke-linecap:butt;stroke-linejoin:miter;stroke-miterlimit:4;stroke-dasharray:none;stroke-opacity:1"
         d="m -21.615455,39.409227 c 0.177156,-2.716774 -1.34494,-8.835436 -4.466914,-11.275113 -3.151627,-2.462848 -6.146475,-2.332758 -10.112298,-1.022751 l -0.775155,-2.21406 -2.000942,3.943024 c -7.983871,4.776197 -9.778543,12.178578 -10.292988,17.285378 1.257918,-0.918253 2.462346,-0.906944 4.357618,-1.275736 -1.024207,0.655362 -2.316401,1.987217 -3.031372,3.028299 4.002384,1.723692 12.0926,-9.364531 11.497346,-9.268655 -0.523357,0.0843 1.182503,0.991796 1.9177,1.459087 0.485744,0.30874 0.311315,-3.182018 0.409085,-3.157615 2.019379,-1.52299 2.424242,-3.162979 6.030227,-3.42152 1.512247,-0.108425 4.157265,4.441177 4.657947,6.335802 -4.117179,1.858143 -4.739261,4.927506 -4.93339,8.52923 1.509131,-2.079173 2.47162,-5.407774 6.28533,-5.599423 3.036231,-0.152578 3.902296,2.404374 5.661446,4.304699 -0.958201,-3.780899 -2.523968,-6.595408 -5.20364,-7.650646 z"
         id="path10194"
         sodipodi:nodetypes="csccccccsscsccscc" />
      <circle
         style="fill:#000000;stroke:none;stroke-width:0.212758;stroke-linecap:round"
         id="path10196"
         cx="-44.691837"
         cy="40.539707"
         r="1.3151227" />
    </g>
  </g>
</svg>
