<svg height="45" width="45" xmlns="http://www.w3.org/2000/svg"><g transform="matrix(1.1528651 0 0 1.1528651 60.602088 -17.625047)"><path d="m-21.615455 39.409227c.177156-2.716774-1.34494-8.835436-4.466914-11.275113-3.151627-2.462848-6.146475-2.332758-10.112298-1.022751l-.775155-2.21406-2.000942 3.943024c-7.983871 4.776197-9.778543 12.178578-10.292988 17.285378 1.257918-.918253 2.462346-.906944 4.357618-1.275736-1.024207.655362-2.316401 1.987217-3.031372 3.028299 4.002384 1.723692 12.0926-9.364531 11.497346-9.268655-.523357.0843 1.182503.991796 1.9177 1.459087.485744.30874.311315-3.182018.409085-3.157615 2.019379-1.52299 2.424242-3.162979 6.030227-3.42152 1.512247-.108425 4.157265 4.441177 4.657947 6.335802-4.117179 1.858143-4.739261 4.927506-4.93339 8.52923 1.509131-2.079173 2.47162-5.407774 6.28533-5.599423 3.036231-.152578 3.902296 2.404374 5.661446 4.304699-.958201-3.780899-2.523968-6.595408-5.20364-7.650646z" fill="#f4eed7" stroke="#000" stroke-width="1.5"/><circle cx="-44.691837" cy="40.539707" r="1.315123"/></g></svg>