<?xml version="1.0" encoding="UTF-8" standalone="no"?>
<svg
   xmlns:dc="http://purl.org/dc/elements/1.1/"
   xmlns:cc="http://creativecommons.org/ns#"
   xmlns:rdf="http://www.w3.org/1999/02/22-rdf-syntax-ns#"
   xmlns:svg="http://www.w3.org/2000/svg"
   xmlns="http://www.w3.org/2000/svg"
   xmlns:sodipodi="http://sodipodi.sourceforge.net/DTD/sodipodi-0.dtd"
   xmlns:inkscape="http://www.inkscape.org/namespaces/inkscape"
   width="45"
   height="45"
   version="1.1"
   id="svg2101"
   sodipodi:docname="WQ.svg"
   inkscape:version="1.0.1 (3bc2e813f5, 2020-09-07)">
  <metadata
     id="metadata2107">
    <rdf:RDF>
      <cc:Work
         rdf:about="">
        <dc:format>image/svg+xml</dc:format>
        <dc:type
           rdf:resource="http://purl.org/dc/dcmitype/StillImage" />
        <dc:title></dc:title>
      </cc:Work>
    </rdf:RDF>
  </metadata>
  <defs
     id="defs2105" />
  <sodipodi:namedview
     inkscape:document-rotation="0"
     pagecolor="#ffffff"
     bordercolor="#666666"
     borderopacity="1"
     objecttolerance="10"
     gridtolerance="10"
     guidetolerance="10"
     inkscape:pageopacity="0"
     inkscape:pageshadow="2"
     inkscape:window-width="2235"
     inkscape:window-height="2050"
     id="namedview2103"
     showgrid="false"
     inkscape:zoom="9.6444444"
     inkscape:cx="23.452123"
     inkscape:cy="44.467229"
     inkscape:window-x="5433"
     inkscape:window-y="0"
     inkscape:window-maximized="0"
     inkscape:current-layer="svg2101" />
  <path
     style="fill:#f4eed7;fill-opacity:1;stroke:#000000;stroke-width:1.5;stroke-linecap:butt;stroke-linejoin:miter;stroke-miterlimit:4;stroke-dasharray:none;stroke-opacity:1"
     d="m 13.681032,20.250379 c -2.637193,0.958661 -4.9463328,2.286379 -6.1176638,4.894133 2.5251928,-1.401205 4.9009138,-1.307679 7.2433138,-0.880944 -1.941339,0.04999 -3.882677,-0.568772 -5.8240158,0.832002 1.4803128,1.481586 4.7928048,0.990066 7.3411958,1.321416 -0.85813,-2.055097 1.401752,-4.050232 -2.64283,-6.166607 z"
     id="path7892"
     sodipodi:nodetypes="cccccc" />
  <path
     style="fill:#f4eed7;fill-opacity:1;stroke:#000000;stroke-width:1.5;stroke-linecap:butt;stroke-linejoin:miter;stroke-miterlimit:4;stroke-dasharray:none;stroke-opacity:1"
     d="m 15.720303,23.343364 c 0,0 -0.675427,-0.810864 -1.645907,-0.955811 0.867251,-0.5612 0.529364,-0.853395 1.456688,-0.727501 l -2.790999,-1.983905 2.459863,-0.841655 c -0.554249,-1.13457 -1.234737,-1.290403 -2.356176,-2.184698 l 2.829226,-0.761099 c 0.233923,-1.080393 -0.876149,-1.188293 -1.766517,-1.670651 1.372953,-0.449519 2.270281,0.337587 3.327584,0.708758 0.308609,-1.242446 -0.394265,-2.484891 -0.709575,-3.727336 l 2.270641,2.945798 c 0.547548,-1.120366 0.391033,-2.432469 0.06334,-3.791187 l 1.374831,2.509904 0.217508,-3.2877092 1.04071,2.9457972 c 0.5813,-0.966687 0.750348,-2.307603 0.898797,-3.6672162 0.215483,1.2290962 0.13964,2.6264802 0.993406,3.4868622 l 1.60837,-3.0059162 v 3.2463892 c 0.896475,-1.136552 1.241475,-2.50672 1.797593,-3.7874532 l 0.04731,4.3285182 c 0.897143,-0.808527 1.544256,-2.061907 2.128727,-3.4267442 l 0.141915,3.6672172 2.507168,-2.765442 c -0.321742,1.333972 -0.573514,2.653125 -0.520356,3.907689 0.828451,-0.994202 1.711083,-1.299812 2.601779,-1.502957 l -1.419151,2.344613 c 1.080603,-0.805163 2.072566,-0.934444 3.027523,-0.781537 l -1.702981,3.126152 c 1.09622,-0.02085 2.342912,-0.424163 3.027522,0.601183 -0.973727,0.641099 -1.953993,1.248962 -2.743692,2.82556 1.219911,-0.73603 2.177808,-0.806091 2.956566,-0.420828 l -2.127082,1.815491 c 0.880837,0.135627 1.850532,0.09057 2.434564,0.829714 l -2.932914,2.224382 c 1.920562,-1.040408 2.684889,0.74863 3.759791,1.21283 l -4.469366,0.41036 c 0.273117,-0.13016 3.920517,1.75371 3.027522,1.86367 -0.659182,0.0812 -3.547878,0.0601 -3.547878,0.0601 l 0.347108,2.50026 c 0.577141,4.1572 4.356413,6.203 4.838888,9.38503 l -24.678304,-1.1e-4 c -1.458441,-3.56094 1.671147,-7.12187 5.300786,-10.68282 l -2.235543,-0.41488 1.742725,-1.06925 -2.268728,-0.3531 0.978656,-2.07436 -1.728253,-0.21519 0.99429,-1.581454 -1.471596,-0.345284 z"
     id="path7890"
     sodipodi:nodetypes="cccccccccccccccccccccccccccccccccccccscsccccccccccc" />
  <ellipse
     style="fill:#000000;fill-opacity:1;stroke:none;stroke-width:1.22287;stroke-linecap:square;stroke-miterlimit:4;stroke-dasharray:none"
     id="path7894"
     cx="22.285332"
     cy="20.175068"
     rx="3.0028322"
     ry="2.8792241" />
  <path
     style="fill:none;stroke:#000000;stroke-width:1;stroke-linecap:butt;stroke-linejoin:miter;stroke-miterlimit:4;stroke-dasharray:none;stroke-opacity:1"
     d="m 13.494345,40.999906 c 4.073474,-1.36809 9.128464,-2.026967 10.992274,-6.586787"
     id="path7918"
     sodipodi:nodetypes="cc" />
  <path
     style="fill:none;stroke:#000000;stroke-width:1.5;stroke-linecap:butt;stroke-linejoin:miter;stroke-miterlimit:4;stroke-dasharray:none;stroke-opacity:1"
     d="m 28.824903,32.455843 c -1.245842,-0.553706 -2.707024,-0.24347 -3.790705,1.193198 -1.011451,1.340912 0.04653,2.247461 -0.223676,3.651741 -0.246754,1.28239 -2.076404,3.32225 -2.076404,3.32225"
     id="path7920"
     sodipodi:nodetypes="cssc" />
</svg>
