<svg height="45" width="45" xmlns="http://www.w3.org/2000/svg"><path d="m70.035274 44.038386c-.776783 1.752435.756269 2.882784 2.521688 3.638071-.460869-.943188-.58636-2.096712.182034-2.096489 3.992575.0012 4.838657-1.290017 6.021389-2.09324 3.373409-.284963 4.837743.702448 6.468345 1.000304 3.567758.651708 3.464576 3.830761 2.709372 7.248196-5.86098 3.488589-7.989552 7.362033-7.116352 11.809667l28.57973-.21175c-3.18819-7.410485 6.22815-20.5325-2.10157-21.332014-1.62939-4.495092-5.35835-7.986728-9.792595-9.756007-1.966177-.784511-7.632607-1.800098-10.295947-1.660523-3.482823.18252-7.817452 3.471906-14.391257 8.326803-2.263037 1.671301-2.459646 3.292629-2.784837 5.126982z" fill="#f4eed7" stroke="#000" stroke-linejoin="round" stroke-width="1.8442" transform="matrix(.73466667 0 0 .90048402 -42.827324 -18.189777)"/><path d="m20.612658 16.149559c-1.571662-.177038-2.946813-3.015068.000023-2.926573 2.478191.139665 2.744017 3.062756-.000023 2.926573z" stroke-width="2.36645"/><g fill="none" stroke="#000"><path d="m11.392286 16.222872c3.113175 1.091465 3.384738 3.162796 3.739193 5.205544" stroke-width="1.5"/><path d="m36.287482 19.709335c-5.2102-.215825-10.614694 2.898538-14.847807 9.054811" stroke-width="1.5"/><path d="m10.200066 23.010301c1.070683-1.883.876637-3.059004 3.931644-4.346707" stroke-width="1.4"/><path d="m20.820475 17.014909c-2.738358-.308459-5.134329-5.253251.00004-5.099063 4.317832.243342 4.78099 5.336339-.00004 5.099063z"/><path d="m30.354158 11.672803c-2.799997 2.567388-3.742884 7.112478-10.49081 10.34613" stroke-width="1.5"/><path d="m14.544939 13.840052c2.96654 1.568029 3.494714 5.508957 3.849169 7.551705" stroke-width="1.5"/></g></svg>