<?xml version="1.0" encoding="UTF-8" standalone="no"?>
<!-- Created with Inkscape (http://www.inkscape.org/) -->

<svg
   xmlns:dc="http://purl.org/dc/elements/1.1/"
   xmlns:cc="http://creativecommons.org/ns#"
   xmlns:rdf="http://www.w3.org/1999/02/22-rdf-syntax-ns#"
   xmlns:svg="http://www.w3.org/2000/svg"
   xmlns="http://www.w3.org/2000/svg"
   xmlns:sodipodi="http://sodipodi.sourceforge.net/DTD/sodipodi-0.dtd"
   xmlns:inkscape="http://www.inkscape.org/namespaces/inkscape"
   id="svg4936"
   version="1.1"
   inkscape:version="0.91 r13725"
   width="547.5"
   height="540.9375"
   viewBox="0 0 547.5 540.9375"
   sodipodi:docname="CrossedSwords.svg">
  <metadata
     id="metadata4942">
    <rdf:RDF>
      <cc:Work
         rdf:about="">
        <dc:format>image/svg+xml</dc:format>
        <dc:type
           rdf:resource="http://purl.org/dc/dcmitype/StillImage" />
        <dc:title></dc:title>
      </cc:Work>
    </rdf:RDF>
  </metadata>
  <defs
     id="defs4940" />
  <sodipodi:namedview
     pagecolor="#ffffff"
     bordercolor="#666666"
     borderopacity="1"
     objecttolerance="10"
     gridtolerance="10"
     guidetolerance="10"
     inkscape:pageopacity="0"
     inkscape:pageshadow="2"
     inkscape:window-width="1600"
     inkscape:window-height="837"
     id="namedview4938"
     showgrid="false"
     inkscape:zoom="0.43627961"
     inkscape:cx="273.75"
     inkscape:cy="270.46875"
     inkscape:window-x="-8"
     inkscape:window-y="-8"
     inkscape:window-maximized="1"
     inkscape:current-layer="svg4936" />
  <path
     style="fill:#000000"
     d="M 6.3054891,539.73097 C 1.1347026,538.58587 0.64601503,537.5809 0.53670622,527.86757 L 0.46875,521.82888 10.828987,516.351 21.189223,510.87313 58.875862,473.14402 96.5625,435.41491 l -0.0047,-5.59809 c -0.0047,-5.42428 -0.281372,-6.0492 -8.916511,-20.12932 -4.901498,-7.99219 -9.302223,-16.00781 -9.77939,-17.8125 -1.269624,-4.80183 -3.798404,-32.23432 -3.039984,-32.97808 0.355757,-0.34888 3.64356,-0.92464 7.30623,-1.27946 6.454258,-0.62526 6.677678,-0.57685 7.252823,1.57183 0.326384,1.21933 0.599186,9.4943 0.606227,18.38883 0.01528,19.30673 0.290991,19.92188 8.928914,19.92188 4.634948,0 6.876098,-0.86028 21.796878,-8.36684 l 16.63075,-8.36685 41.74013,-42.02378 c 22.95708,-23.11308 47.10943,-47.54441 53.67188,-54.29184 l 11.93174,-12.26807 0.0257,-5.07568 0.0257,-5.07569 L 129.67065,147.1875 14.602372,32.34375 10.694023,19.21875 C 5.0455624,0.2501157 5.0062674,0.00114574 7.6598857,-0.0053265 8.861011,-0.00825608 15.960937,1.7494375 23.4375,3.9006592 L 37.03125,7.8119714 88.125,58.505989 c 28.10156,27.88171 79.99219,79.463131 115.3125,114.625371 68.90748,68.5991 66.37217,66.38146 73.82197,64.57248 1.74736,-0.42431 23.3814,-21.33379 66.80303,-64.56568 C 379.38281,137.97217 431.27344,86.387699 459.375,58.505989 L 510.46875,7.8119714 524.0625,3.9006592 c 7.47656,-2.1512217 14.57648,-3.90891527 15.77762,-3.9059857 2.65361,0.00647224 2.61432,0.2554422 -3.03414,19.2240765 l -3.90835,13.125 -115.06828,114.84375 -115.06827,114.84375 0.0257,5.00322 0.0257,5.00323 53.99492,54.52802 53.99491,54.52803 16.08322,8.15344 c 14.53137,7.36673 16.60333,8.15823 21.47383,8.20312 8.89139,0.0819 9.13805,-0.45356 9.15342,-19.87219 0.007,-8.89453 0.27984,-17.1695 0.60623,-18.38883 0.57514,-2.14868 0.79857,-2.19709 7.25282,-1.57183 3.66268,0.35482 6.95176,0.93058 7.30908,1.27946 0.5862,0.57234 -1.33339,24.49925 -2.54257,31.6922 -0.41207,2.45123 -6.08202,12.47898 -17.15971,30.34838 -1.49212,2.40693 -2.03507,4.77292 -2.03764,8.87932 l -0.004,5.59809 37.68664,37.72911 37.68663,37.72911 10.36024,5.47787 10.36024,5.47788 -0.068,6.03869 c -0.11633,10.33789 -0.35097,10.70788 -7.66581,12.0881 -3.50309,0.66098 -7.20388,1.0467 -8.22399,0.85716 -1.28532,-0.23883 -3.55791,-3.65448 -7.40237,-11.1256 l -5.54732,-10.78098 -35.70238,-35.91119 c -19.6363,-19.75115 -37.09891,-36.78175 -38.80578,-37.84578 -2.43956,-1.52075 -4.14416,-1.83895 -7.96875,-1.48752 -4.10327,0.37704 -6.84771,1.69406 -17.52159,8.40838 -16.98713,10.68561 -17.16184,10.7634 -26.76578,11.91773 -4.61475,0.55465 -11.95261,1.47144 -16.30635,2.03731 -7.14347,0.92845 -8.03162,0.87054 -9.10216,-0.59351 -1.77203,-2.4234 -2.55332,-9.27108 -1.32059,-11.57445 1.02132,-1.90836 1.70745,-1.98222 18.41423,-1.98222 17.17458,0 17.37709,-0.0237 19.65451,-2.30114 1.82045,-1.82044 2.30114,-3.26601 2.30114,-6.92011 0,-3.82883 -1.12256,-6.89086 -6.56212,-17.89957 -3.60917,-7.30431 -7.97289,-15.47542 -9.69716,-18.158 -1.8381,-2.85969 -25.31055,-26.74046 -56.73919,-57.72624 l -53.60416,-52.84879 -5.08549,0.42172 -5.0855,0.42174 -25.12881,24.4678 c -13.82085,13.45729 -38.0349,37.47135 -53.809,53.36457 l -28.68019,28.89677 -8.25774,16.35952 c -4.54176,8.99774 -8.5764,17.77242 -8.96587,19.49929 -0.89747,3.97925 0.53982,9.30292 2.84461,10.53641 1.00188,0.53618 9.03316,0.95477 18.47461,0.96288 9.18625,0.007 17.28182,0.38148 17.99019,0.83018 1.57775,0.99941 1.10161,12.60968 -0.58635,14.29764 -0.82152,0.82152 -4.2246,0.79812 -14.01824,-0.0964 -20.55704,-1.87765 -20.38929,-1.82249 -37.52615,-12.3389 -14.05479,-8.62503 -15.87361,-9.4857 -20.04567,-9.4857 -3.52404,0 -5.29422,0.56195 -7.6312,2.42253 -1.67355,1.33239 -18.915232,18.1506 -38.314847,37.37379 l -35.272027,34.95128 -5.509224,10.78125 -5.509222,10.78125 -3.75,0.12669 c -2.0625,0.0697 -5.7640924,-0.31934 -8.2257609,-0.86447 z"
     id="path5486"
     inkscape:connector-curvature="0" />
</svg>
