<?xml version="1.0" encoding="UTF-8" standalone="no"?>
<!-- Created with Inkscape (http://www.inkscape.org/) -->

<svg
   width="30mm"
   height="30mm"
   viewBox="0 0 30 30"
   version="1.1"
   id="svg1"
   xmlns="http://www.w3.org/2000/svg"
   xmlns:svg="http://www.w3.org/2000/svg">
  <defs
     id="defs1">
    <clipPath
       clipPathUnits="userSpaceOnUse"
       id="clipPath182-4-0-4-0-4-2-4-4-5-2">
      <path
         d="M 0,2834.646 H 2834.646 V 0 H 0 Z"
         transform="translate(-91.9855,-311.81193)"
         id="path182-0-3-8-6-1-1-0-3-1-23" />
    </clipPath>
    <clipPath
       clipPathUnits="userSpaceOnUse"
       id="clipPath609-1-9-3">
      <path
         d="M 0,1133.858 H 1700.787 V 0 H 0 Z"
         transform="translate(-975.60205,-1102.1787)"
         id="path609-6-2-2" />
    </clipPath>
    <clipPath
       clipPathUnits="userSpaceOnUse"
       id="clipPath657-5-2-4">
      <path
         d="M 0,1133.858 H 1700.787 V 0 H 0 Z"
         transform="translate(-460.13391,-37.788776)"
         id="path657-9-7-00" />
    </clipPath>
    <clipPath
       clipPathUnits="userSpaceOnUse"
       id="clipPath661-10-4-99">
      <path
         d="M 0,1133.858 H 1700.787 V 0 H 0 Z"
         transform="translate(-471.15311,-41.604626)"
         id="path661-6-0-9" />
    </clipPath>
  </defs>
  <g
     id="layer1"
     transform="translate(-320)">
    <path
       id="path900"
       d="m 0,0 c 0,-19.491 -15.801,-35.292 -35.293,-35.292 -19.491,0 -35.292,15.801 -35.292,35.292 0,19.491 15.801,35.292 35.292,35.292 C -15.801,35.292 0,19.491 0,0"
       style="font-variation-settings:normal;vector-effect:none;fill:#f9d08f;fill-opacity:1;fill-rule:nonzero;stroke:#4d3608;stroke-width:1.58026;stroke-linecap:butt;stroke-linejoin:miter;stroke-miterlimit:10;stroke-dasharray:none;stroke-dashoffset:0;stroke-opacity:1;-inkscape-stroke:none;stop-color:#000000"
       transform="matrix(0.37968369,0,0,-0.37968364,348.39998,15)"
       clip-path="url(#clipPath182-4-0-4-0-4-2-4-4-5-2)" />
    <path
       style="baseline-shift:baseline;display:inline;overflow:visible;opacity:1;vector-effect:none;stroke-miterlimit:10;enable-background:accumulate;stop-color:#000000;stop-opacity:1"
       d="m 335,3.5 c -6.33943,0 -11.5,5.1605695 -11.5,11.5 0,6.33943 5.16057,11.5 11.5,11.5 6.33943,0 11.5,-5.16057 11.5,-11.5 0,-6.3394305 -5.16057,-11.5 -11.5,-11.5 z m 0,2 c 5.25855,0 9.5,4.2414497 9.5,9.5 0,5.25855 -4.24145,9.5 -9.5,9.5 -5.25855,0 -9.5,-4.24145 -9.5,-9.5 0,-5.2585503 4.24145,-9.5 9.5,-9.5 z"
       id="ellipse900" />
    <g
       id="path901"
       clip-path="url(#clipPath609-1-9-3)"
       style="opacity:1"
       transform="matrix(-0.77693284,0,0,-0.7772579,337.12401,10.48038)">
      <path
         style="baseline-shift:baseline;display:inline;overflow:visible;vector-effect:none;fill:#f9d08f;stroke-miterlimit:10;enable-background:accumulate;stop-color:#000000;stop-opacity:1"
         d="m 0,0 c 0.166,-0.165 -0.013,-0.611 -0.399,-0.997 -0.386,-0.386 -0.833,-0.566 -0.998,-0.401 -0.166,0.164 0.013,0.611 0.399,0.997 C -0.612,-0.015 -0.166,0.165 0,0 Z"
         id="path81" />
      <path
         style="baseline-shift:baseline;display:inline;overflow:visible;vector-effect:none;fill:#f9d08f;stroke-miterlimit:10;enable-background:accumulate;stop-color:#000000;stop-opacity:1"
         d="m -1.2265625,-1.78125 c -0.1289846,5.383e-4 -0.283387,0.042522 -0.3964844,0.1542969 -0.1140413,0.1126673 -0.1572312,0.2665894 -0.1582031,0.3964844 -9.719e-4,0.1298949 0.030984,0.24941565 0.078125,0.36718745 0.094283,0.23554361 0.2591919,0.47012941 0.4785156,0.68945313 0.2191273,0.21912726 0.45215273,0.38382256 0.68750003,0.47851562 0.11767364,0.0473465 0.23742824,0.0786661 0.3671875,0.078125 C -0.04016262,0.38227136 0.11323475,0.3411607 0.2265625,0.22851563 0.33996036,0.11580088 0.38184117,-0.03806769 0.3828125,-0.16796875 0.38378383,-0.29786981 0.3538021,-0.41741563 0.3066406,-0.53515625 0.21231758,-0.77063749 0.04735049,-1.0053839 -0.171875,-1.2246094 -0.39110049,-1.4438349 -0.62591834,-1.6084723 -0.86132813,-1.703125 -0.97903302,-1.7504513 -1.0968104,-1.7817915 -1.2265625,-1.78125 Z m 0.1191406,0.6738281 c 0.00298,0.00114 0.00281,7.256e-4 0.00586,0.00195 0.12584021,0.050597 0.30783487,0.16916294 0.47460938,0.33593745 0.1667745,0.16677451 0.28576054,0.34738749 0.33593749,0.47265625 0.001217,0.003039 8.2236e-4,0.002893 0.001953,0.005859 -0.003845,-0.001451 -0.003843,-3.5615e-4 -0.007813,-0.001953 -0.1256527,-0.0505569 -0.30773664,-0.16906477 -0.47460937,-0.3359375 -0.16667629,-0.16667629 -0.283767,-0.34719986 -0.3339843,-0.4726562 -0.00122,-0.00304 -8.215e-4,-0.00289 -0.00195,-0.00586 z"
         id="path82" />
    </g>
    <g
       id="path902"
       clip-path="url(#clipPath657-5-2-4)"
       style="opacity:1"
       transform="matrix(-0.59159076,0,0,-0.59203081,340.04739,17.30059)">
      <path
         style="baseline-shift:baseline;display:inline;overflow:visible;vector-effect:none;stroke-miterlimit:10;enable-background:accumulate;stop-color:#000000;stop-opacity:1"
         d="m 0,0 c 0.033,0.289 0.09,0.576 0.164,0.856 -1.107,0.052 -2.245,0.396 -3.176,0.805 -0.073,-2.091 0.331,-4.101 0.87,-5.533 0.172,-0.456 0.023,-1.067 -0.026,-1.484 -0.106,-0.88 2.928,-1.563 3.047,0.709 0,0 -1.135,2.421 -0.879,4.647 z"
         id="path83" />
      <path
         style="baseline-shift:baseline;display:inline;overflow:visible;vector-effect:none;fill:#f9d08f;stroke-miterlimit:10;enable-background:accumulate;stop-color:#000000;stop-opacity:1"
         d="m -0.72851562,-6.4375 c -0.42384028,-0.00181 -0.83061428,0.1029148 -1.14843748,0.28125 -0.1589116,0.089168 -0.2966876,0.1968433 -0.3984375,0.3339844 -0.1017499,0.137141 -0.1665982,0.3128963 -0.1445313,0.4960937 0.052601,0.4476469 0.1695714,1.0244121 0.041016,1.3652344 -0.5518361,1.4661028 -0.961054,3.50161163 -0.8867187,5.6308594 l 0.013672,0.3730469 0.3417968,-0.1503907 C -2.0008763,1.49312 -0.88701639,1.1592986 0.17578125,1.109375 l 0.3125,-0.015625 -0.0800781,-0.30273438 C 0.33691995,0.52129551 0.2833667,0.24580985 0.25195313,-0.02929688 0.00805132,-2.1500993 1.109375,-4.5390625 1.109375,-4.5390625 l 0.025391,-0.058594 -0.00195,-0.0625 C 1.1000853,-5.2849984 0.85204476,-5.7498455 0.49609375,-6.0371094 0.14014274,-6.3243733 -0.30467531,-6.4356878 -0.72851562,-6.4375 Z m -0.001953,0.5078125 c 0.33628469,0.00144 0.66512288,0.090936 0.90820312,0.2871094 0.23749305,0.1916645 0.40462052,0.4962723 0.4375,0.9863281 -0.0701296,0.1499593 -1.12667133,2.4292538 -0.8671875,4.68554688 0.0250341,0.2192381 0.0767875,0.43125094 0.12500001,0.64453124 C -1.04702,0.75658212 -1.9387723,1.0140469 -2.736328,1.3339844 c -0.020859,-1.93409042 0.3341345,-3.7943895 0.8320312,-5.1171875 0.2154442,-0.5711777 0.03368,-1.2152094 -0.011719,-1.6015625 v -0.00195 c -0.00443,-0.036803 0.00253,-0.07304 0.046875,-0.1328125 0.044348,-0.059773 0.1277553,-0.1321989 0.2402344,-0.1953125 0.224958,-0.1262273 0.5621528,-0.2162816 0.89843748,-0.2148438 z"
         id="path84" />
    </g>
    <g
       id="path903"
       clip-path="url(#clipPath661-10-4-99)"
       style="opacity:1"
       transform="matrix(-0.59159076,0,0,-0.59203081,333.52859,15.04139)">
      <path
         style="baseline-shift:baseline;display:inline;overflow:visible;vector-effect:none;stroke-miterlimit:10;enable-background:accumulate;stop-color:#000000;stop-opacity:1"
         d="m 3.575,4.86 c 0.09,0.381 0.122,0.649 0.121,0.739 v 0.6855691 c 0,0.248843 0.2469723,0.72131 0.4078524,1.2654905 C 4.5465842,9.0476099 5.027,11.532 5.027,11.532 c 0,0 -4.34500008,0.886 -8.2890001,-0.113 -0.084,-0.022 -0.206,-0.041 -0.308,-0.043 C -4.1659925,11.3675 -9.803,11.829 -11.09,5.771 c -0.058,-0.274 -2.19,-2.765 -2.781,-6.246 -0.018,-0.108 -0.026,-0.216 -0.041,-0.324 1.254,-0.15 2.731,-0.333 3.464,-0.234 0.18,0.025 0.36,0.076 0.538,0.144 0.62,0.941 1.3771112,1.6415553 2.004,1.801 0.1464612,0.0372514 0.8515676,-0.44212711 1.7276594,-0.84173339 0.8760918,-0.39960627 1.87389,-0.63257495 1.8323406,-0.76326661 -0.235,-0.742 -0.782,-2.243 -1.351,-2.686 0,0 -2.612,-2.513 -3.255,-3.513 -0.341,-0.528 -1.439,-3.172 -0.152,-3.172 H 6.303 c 0,0 0.586,8.737 -2.728,14.924"
         id="path85" />
      <path
         style="baseline-shift:baseline;display:inline;overflow:visible;vector-effect:none;fill:#f9d08f;stroke-miterlimit:10;enable-background:accumulate;stop-color:#000000;stop-opacity:1"
         d="m -9.1035156,-10.318359 c -0.2042671,0 -0.3928363,0.05707 -0.5351563,0.169921 -0.1423199,0.112847 -0.2285454,0.2725055 -0.2753906,0.4375005 -0.09369,0.32999 -0.0552,0.7038307 0.027344,1.0878906 0.1650877,0.7681198 0.5148136,1.5473197 0.7226563,1.8691407 0.3542353,0.5501569 1.162446,1.4139844 1.8984375,2.1699218 0.736695,0.75666 1.3925781,1.3867188 1.3925781,1.3867188 l 0.00977,0.00977 0.00977,0.00781 c 0.206075,0.1604415 0.4958023,0.6276604 0.7265625,1.1367187 0.2036285,0.4492059 0.3591274,0.9000926 0.4765625,1.25781255 -0.086435,0.0367702 -0.1988434,0.0810071 -0.3515625,0.13476563 -0.3510563,0.12357509 -0.8270695,0.28307185 -1.28125,0.49023437 -0.4495041,0.20502949 -0.8521165,0.42769798 -1.1542969,0.59179688 -0.1510902,0.0820494 -0.2771992,0.14916014 -0.3652344,0.18945312 -0.029236,0.0133813 -0.04433,0.018641 -0.0625,0.0253906 -0.5021214,-0.13831841 -1.2412709,-0.7761952 -1.8339844,-1.67578125 l -0.044922,-0.066406 -0.076172,-0.029297 c -0.1917462,-0.073252 -0.3900322,-0.129909 -0.5937502,-0.1582031 -0.818812,-0.11059 -2.274178,0.082522 -3.527343,0.2324219 l -0.257813,0.03125 0.03711,0.25585931 c 0.01352,0.0973575 0.02051,0.20706245 0.04101,0.33007812 v 0.001953 c 0.302249,1.78024977 0.995867,3.29785467 1.619141,4.40625007 0.311637,0.5541977 0.605697,1.0056445 0.824219,1.3339843 0.10926,0.16417 0.199671,0.2979932 0.261718,0.3945313 0.03102,0.048269 0.0561,0.087672 0.07031,0.1132812 0.01421,0.025609 0.01645,0.048602 0.0078,0.00781 0.659404,3.103858 2.4692379,4.5875259 4.1738282,5.2539059 0.8522952,0.33319 1.6783237,0.469404 2.328125,0.523438 0.6498013,0.05403 1.1511178,0.02577 1.2617187,0.02734 0.074503,0.0015 0.1876337,0.01933 0.2480469,0.03516 h 0.00195 C 0.69731219,12.682701 5.078125,11.78125 5.078125,11.78125 l 0.2460937,-0.05078 -0.048828,-0.246094 c 0,0 -0.4775286,-2.4830282 -0.9277344,-4.0058594 C 4.2628732,7.191735 4.156536,6.9300896 4.0761719,6.7167969 3.9958078,6.5035041 3.9492188,6.3257264 3.9492188,6.2851562 V 5.6015625 5.5996094 C 3.9506039,5.4598826 3.908989,5.2094498 3.8359375,4.8828125 7.1476185,-1.3959194 6.5566406,-10.080078 6.5566406,-10.080078 l -0.017578,-0.238281 z m 0,0.5078121 H 6.0449219 c 0.023133,0.3871415 0.4924519,8.6031004 -2.6933594,14.5507813 L 3.5742188,4.859375 3.328125,4.9179687 C 3.415102,5.2861702 3.4436298,5.571361 3.4433594,5.5957031 v 0.00195 0.6875 c 0,0.2082729 0.074861,0.3901315 0.1582031,0.6113282 0.083342,0.2211966 0.1836686,0.4672095 0.2597656,0.7246093 0.4060294,1.3734037 0.7953407,3.3966304 0.8535156,3.6933594 -0.3951209,0.07556 -4.23790842,0.789424 -7.9121093,-0.140625 h -0.00195 c -0.107259,-0.02795 -0.2364135,-0.04826 -0.3652343,-0.05078 h -0.00195 c -0.1873952,-0.0027 -0.6135363,0.02379 -1.2285156,-0.02734 -0.6149792,-0.05114 -1.391263,-0.180487 -2.1835937,-0.490234 C -8.5631772,9.9859733 -10.2142,8.6728921 -10.841797,5.71875 c -0.01588,-0.07504 -0.03687,-0.105755 -0.06055,-0.1484375 -0.02368,-0.042682 -0.05196,-0.087759 -0.08594,-0.140625 -0.06796,-0.1057315 -0.159573,-0.2381074 -0.267578,-0.4003906 -0.21601,-0.3245665 -0.5022,-0.7648071 -0.804688,-1.3027344 -0.604976,-1.0758546 -1.271795,-2.5433903 -1.560547,-4.24414062 -0.0023,-0.013778 -0.0038,-0.0325426 -0.0059,-0.046875 1.188522,-0.14035459 2.54604,-0.29762989 3.144531,-0.21679688 0.139823,0.0194199 0.285165,0.0624491 0.431641,0.11523438 0.6264663,0.92380561 1.3559118,1.6395355 2.082031,1.82421872 0.1047783,0.02665 0.1604274,0.00433 0.2148438,-0.011719 0.054416,-0.016047 0.1057382,-0.038652 0.1621093,-0.064453 0.1127424,-0.051601 0.2434789,-0.12198854 0.3964844,-0.20507807 0.306011,-0.16617908 0.6964591,-0.38159509 1.1230469,-0.57617188 0.4219113,-0.19244375 0.8818028,-0.34912565 1.2382812,-0.47460937 0.1782392,-0.0627419 0.3282752,-0.11539288 0.4472657,-0.16992188 0.059495,-0.0272645 0.1106094,-0.0521672 0.1660156,-0.0957031 0.027703,-0.0217679 0.059611,-0.0477778 0.089844,-0.0996094 0.030232,-0.0518316 0.053774,-0.14733441 0.027344,-0.23046875 -0.1197376,-0.37806515 -0.3187602,-0.94473025 -0.5625,-1.48242185 -0.2437399,-0.5376917 -0.512075,-1.0436134 -0.875,-1.3261719 l 0.019531,0.015625 c 0,0 -0.6508044,-0.62516 -1.3808593,-1.375 -0.730055,-0.74984 -1.5466407,-1.6418796 -1.8359376,-2.0917969 -0.1331572,-0.206179 -0.5049313,-1.0133385 -0.6523437,-1.6992187 -0.073706,-0.3429401 -0.088857,-0.6634431 -0.037109,-0.8457032 0.025874,-0.09113 0.060875,-0.141971 0.1035156,-0.1757812 0.042641,-0.03381 0.1032202,-0.060547 0.2207032,-0.060547 z"
         id="path86" />
    </g>
    <path
       style="baseline-shift:baseline;display:inline;overflow:visible;vector-effect:none;fill:#f9d08f;stroke-width:0.591811;stroke-miterlimit:10;paint-order:stroke fill markers;enable-background:accumulate;stop-color:#000000"
       d="m 339.60646,17.24519 c 0.92592,0.0427 1.85012,-0.25026 2.56163,-0.58509 0.3553,-0.1672 -0.22632,-1.61991 -0.58235,-1.57721 -0.7169,0.086 -1.53253,0.15483 -1.81521,0.12488 -0.48419,-0.0513 -0.61317,-0.10818 -0.8425,-0.32822 -0.25942,-0.24891 -0.12505,2.32849 0.67843,2.36564 z"
       id="path904" />
    <path
       style="baseline-shift:baseline;display:inline;overflow:visible;vector-effect:none;fill:#000000;fill-opacity:1;stroke-width:0.591811;stroke-miterlimit:10;paint-order:stroke fill markers;enable-background:accumulate;stop-color:#000000"
       d="m 337.48914,15.17063 c 0.0144,0.0646 0.1465,0.22798 0.5898,0.63252 0.45403,0.41431 1.04884,0.81942 1.55547,0.84284 0.77027,0.0355 1.63348,-0.22567 2.27841,-0.52917 0.32246,-0.15175 0.59072,-0.31375 0.76378,-0.44752 0.0508,-0.0392 0.0724,-0.0668 0.1049,-0.0987 -0.0575,5.7e-4 -0.10922,1.4e-4 -0.19069,0.006 -0.24389,0.0182 -0.5762,0.059 -0.93327,0.10181 -0.71415,0.0857 -1.50922,0.18604 -1.96784,0.1235 -0.46293,-0.0631 -0.90913,-0.33958 -1.21336,-0.63148 -0.10008,-0.096 -0.33025,-0.35157 -0.33025,-0.35157 0,0 -0.15913,0.095 -0.32634,0.18073 -0.16721,0.0858 -0.33061,0.17084 -0.33061,0.17084 z"
       id="path905" />
    <g
       id="path906"
       clip-path="url(#clipPath609-1-9-3)"
       style="opacity:1"
       transform="matrix(-0.77693284,0,0,-0.7772579,337.12401,10.48017)">
      <path
         style="baseline-shift:baseline;display:inline;overflow:visible;vector-effect:none;fill:#f9d08f;stroke-miterlimit:10;enable-background:accumulate;stop-color:#000000;stop-opacity:1"
         d="m 0,0 c 0.166,-0.165 -0.013,-0.611 -0.399,-0.997 -0.386,-0.386 -0.833,-0.566 -0.998,-0.401 -0.166,0.164 0.013,0.611 0.399,0.997 C -0.612,-0.015 -0.166,0.165 0,0 Z"
         id="path87" />
      <path
         style="baseline-shift:baseline;display:inline;overflow:visible;vector-effect:none;fill:#f9d08f;stroke-miterlimit:10;enable-background:accumulate;stop-color:#000000;stop-opacity:1"
         d="m -1.2265625,-1.78125 c -0.1289846,5.383e-4 -0.283387,0.042522 -0.3964844,0.1542969 -0.1140413,0.1126673 -0.1572312,0.2665894 -0.1582031,0.3964844 -9.719e-4,0.1298949 0.030984,0.24941565 0.078125,0.36718745 0.094283,0.23554361 0.2591919,0.47012941 0.4785156,0.68945313 0.2191273,0.21912726 0.45215273,0.38382256 0.68750003,0.47851562 0.11767364,0.0473465 0.23742824,0.0786661 0.3671875,0.078125 C -0.04016262,0.38227136 0.11323475,0.3411607 0.2265625,0.22851563 0.33996036,0.11580088 0.38184117,-0.03806769 0.3828125,-0.16796875 0.38378383,-0.29786981 0.3538021,-0.41741563 0.3066406,-0.53515625 0.21231758,-0.77063749 0.04735049,-1.0053839 -0.171875,-1.2246094 -0.39110049,-1.4438349 -0.62591834,-1.6084723 -0.86132813,-1.703125 -0.97903302,-1.7504513 -1.0968104,-1.7817915 -1.2265625,-1.78125 Z m 0.1191406,0.6738281 c 0.00298,0.00114 0.00281,7.256e-4 0.00586,0.00195 0.12584021,0.050597 0.30783487,0.16916294 0.47460938,0.33593745 0.1667745,0.16677451 0.28576054,0.34738749 0.33593749,0.47265625 0.001217,0.003039 8.2236e-4,0.002893 0.001953,0.005859 -0.003845,-0.001451 -0.003843,-3.5615e-4 -0.007813,-0.001953 -0.1256527,-0.0505569 -0.30773664,-0.16906477 -0.47460937,-0.3359375 -0.16667629,-0.16667629 -0.283767,-0.34719986 -0.3339843,-0.4726562 -0.00122,-0.00304 -8.215e-4,-0.00289 -0.00195,-0.00586 z"
         id="path88" />
    </g>
    <path
       style="baseline-shift:baseline;display:inline;overflow:visible;opacity:1;vector-effect:none;fill:#f9d08f;stroke-linecap:round;stroke-miterlimit:10;enable-background:accumulate;stop-color:#000000;stop-opacity:1"
       d="m 0.24804688,-0.44140625 a 0.50691998,0.50691998 0 0 0 -0.68945313,0.19335937 0.50691998,0.50691998 0 0 0 0.19335937,0.68945313 C 0.82649505,1.0428457 1.7641048,2.202327 2.40625,3.2167969 3.0483952,4.2312667 3.3964844,5.0742187 3.3964844,5.0742187 A 0.50691998,0.50691998 0 0 0 4.0585937,5.3496094 0.50691998,0.50691998 0 0 0 4.3339844,4.6875 c 0,0 -0.3825399,-0.9240337 -1.0722656,-2.0136719 C 2.571993,1.5841899 1.576505,0.30215435 0.24804688,-0.44140625 Z"
       id="path907"
       transform="matrix(-0.59159076,0,0,-0.59203081,333.52859,15.04139)" />
  </g>
</svg>
