<?xml version="1.0" encoding="UTF-8" standalone="no"?>
<!-- Created with Inkscape (http://www.inkscape.org/) -->

<svg
   width="30mm"
   height="30mm"
   viewBox="0 0 30 30"
   version="1.1"
   id="svg1"
   xmlns="http://www.w3.org/2000/svg"
   xmlns:svg="http://www.w3.org/2000/svg">
  <defs
     id="defs1">
    <clipPath
       clipPathUnits="userSpaceOnUse"
       id="clipPath182-4-0-4-0-4-2-8-8-4">
      <path
         d="M 0,2834.646 H 2834.646 V 0 H 0 Z"
         transform="translate(-91.9855,-311.81193)"
         id="path182-0-3-8-6-1-1-6-8-5" />
    </clipPath>
    <clipPath
       clipPathUnits="userSpaceOnUse"
       id="clipPath321-0-1">
      <path
         d="M 0,1133.858 H 1700.787 V 0 H 0 Z"
         transform="translate(-1137.6318,-756.61152)"
         id="path321-4-5" />
    </clipPath>
    <clipPath
       clipPathUnits="userSpaceOnUse"
       id="clipPath323-0-5">
      <path
         d="M 0,1133.858 H 1700.787 V 0 H 0 Z"
         transform="translate(-1143.8749,-769.59922)"
         id="path323-1-40" />
    </clipPath>
    <clipPath
       clipPathUnits="userSpaceOnUse"
       id="clipPath319-3-2">
      <path
         d="M 0,1133.858 H 1700.787 V 0 H 0 Z"
         transform="translate(-1152.078,-761.89422)"
         id="path319-0-78" />
    </clipPath>
  </defs>
  <g
     id="layer1"
     transform="translate(-240)">
    <path
       id="path691"
       d="m 0,0 c 0,-19.491 -15.801,-35.292 -35.293,-35.292 -19.491,0 -35.292,15.801 -35.292,35.292 0,19.491 15.801,35.292 35.292,35.292 C -15.801,35.292 0,19.491 0,0"
       style="font-variation-settings:normal;vector-effect:none;fill:#f9d08f;fill-opacity:1;fill-rule:nonzero;stroke:#4d3608;stroke-width:1.58026;stroke-linecap:butt;stroke-linejoin:miter;stroke-miterlimit:10;stroke-dasharray:none;stroke-dashoffset:0;stroke-opacity:1;-inkscape-stroke:none;stop-color:#000000"
       transform="matrix(0.37968369,0,0,-0.37968364,268.39999,14.99973)"
       clip-path="url(#clipPath182-4-0-4-0-4-2-8-8-4)" />
    <path
       style="baseline-shift:baseline;display:inline;overflow:visible;opacity:1;vector-effect:none;stroke-miterlimit:10;enable-background:accumulate;stop-color:#000000;stop-opacity:1"
       d="m 255,3.5 c -6.33943,0 -11.5,5.1605695 -11.5,11.5 0,6.33943 5.16057,11.5 11.5,11.5 6.33943,0 11.5,-5.16057 11.5,-11.5 0,-6.3394305 -5.16057,-11.5 -11.5,-11.5 z m 0,2 c 5.25855,0 9.5,4.2414497 9.5,9.5 0,5.25855 -4.24145,9.5 -9.5,9.5 -5.25855,0 -9.5,-4.24145 -9.5,-9.5 0,-5.2585503 4.24145,-9.5 9.5,-9.5 z"
       id="ellipse691" />
    <g
       id="path644"
       style="opacity:1">
      <path
         style="baseline-shift:baseline;display:inline;overflow:visible;vector-effect:none;stroke-linecap:round;enable-background:accumulate;stop-color:#000000;stop-opacity:1"
         d="m 259.78602,21.23432 c -0.007,-6.2127 -0.43221,-11.58081 -5.26092,-12.1939295 -0.22154,-0.0281 -0.40001,-0.0569 -0.63908,-0.0755 l -2.5e-4,-1.19979 c 6.83333,0.44249 7.09241,6.9712295 7.09974,13.4691895 z"
         id="path55" />
      <path
         style="baseline-shift:baseline;display:inline;overflow:visible;vector-effect:none;fill:#f9d08f;stroke-linecap:round;enable-background:accumulate;stop-color:#000000;stop-opacity:1"
         d="m 253.73633,7.6054687 v 1.4980469 l 0.13867,0.011719 c 0.23289,0.018119 0.4066,0.045774 0.63086,0.074219 2.36063,0.2997385 3.61422,1.7318074 4.31445,3.8945304 0.70024,2.162724 0.81291,5.047414 0.81641,8.150391 v 0.150391 h 1.49805 v -0.150391 c -0.004,-3.250917 -0.0644,-6.519476 -0.99805,-9.056641 -0.93362,-2.5371635 -2.77817,-4.338188 -6.24219,-4.5624991 z m 0.29883,0.3398438 c 3.25147,0.265335 4.93034,1.9174021 5.82031,4.3359375 0.8918,2.423521 0.97068,5.607125 0.97656,8.802734 h -0.90039 c -0.007,-3.050306 -0.11705,-5.90162 -0.82617,-8.091796 -0.7213,-2.227787 -2.09247,-3.788182 -4.56055,-4.101563 -0.17256,-0.021888 -0.33385,-0.04248 -0.50976,-0.060547 z"
         id="path56" />
    </g>
    <g
       id="path646"
       style="opacity:1">
      <path
         style="baseline-shift:baseline;display:inline;overflow:visible;vector-effect:none;stroke-linecap:round;enable-background:accumulate;stop-color:#000000;stop-opacity:1"
         d="m 254.5251,9.0403905 c -0.65108,-0.0564 -0.0458,-1.27563 -0.63933,-1.27526 -0.22915,3.8e-4 -0.78289,0.55525 -0.91318,1.14156 0,0 -0.0227,0.18256 -0.15983,0.18256 -0.13711,0 -0.61624,-0.0227 -0.84463,-0.0227 -0.22838,0 -0.82189,-1.48395 -1.07301,-1.18701 -0.25111,0.29657 -0.20528,1.03362 0,1.34685 0.20529,0.3139795 -0.60676,1.2290595 -0.79349,1.4608495 -0.16551,0.20566 -2.48803,4.64578 -2.53954,4.90825 -0.0564,0.28937 0.0848,1.45858 0.4564,1.68924 0.21134,0.13142 0.80106,0.18293 1.07301,0.18293 0.17687,0 0.41517,-0.45349 0.39965,-0.29744 -0.0367,0.3761 0.10983,0.79576 0.41625,0.73099 0.43405,-0.0913 1.16429,-1.07301 1.34722,-1.32412 0.18256,-0.25111 1.80325,-1.30101 2.03164,-1.48357 0.22839,-0.18294 1.14157,-1.16429 1.14157,-1.16429 l 0.25029,-0.33961 c 0.2924,0.68554 -0.19885,3.03343 -0.92946,3.60383 0,0 -1.57486,1.51917 -1.96309,2.12328 -0.20566,0.31967 -0.86772,1.91762 -0.0916,1.91762 l 8.09207,-10e-6 c -0.007,-6.2127 -0.43223,-11.58081 -5.26094,-12.1939295 z"
         id="path57" />
      <path
         style="baseline-shift:baseline;display:inline;overflow:visible;vector-effect:none;fill:#f9d08f;stroke-linecap:round;enable-background:accumulate;stop-color:#000000;stop-opacity:1"
         d="m 253.88477,7.6152344 c -0.11773,1.952e-4 -0.20767,0.052714 -0.30665,0.1230468 -0.099,0.070333 -0.20046,0.1655459 -0.29882,0.2792969 -0.19673,0.2275022 -0.38039,0.53012 -0.45313,0.8574219 l -0.002,0.00586 v 0.00781 c 0,0 -0.004,0.024205 -0.0137,0.042969 -0.009,0.018763 0.004,0.00781 0.002,0.00781 -0.12055,0 -0.60542,-0.023437 -0.84375,-0.023437 0.0527,0 0.0337,0.011334 0.006,-0.017578 -0.0279,-0.028912 -0.0679,-0.080791 -0.11133,-0.1445312 -0.0869,-0.1274816 -0.18928,-0.3013903 -0.29492,-0.4707032 -0.10564,-0.1693129 -0.21195,-0.331621 -0.32422,-0.4472656 -0.0561,-0.057822 -0.11277,-0.1095272 -0.19727,-0.1347656 -0.0845,-0.025239 -0.20493,0.010273 -0.26562,0.082031 -0.16806,0.1984876 -0.21324,0.4852233 -0.20703,0.7675782 0.006,0.2823548 0.0659,0.560364 0.19531,0.7578125 0.008,0.012652 0.0176,0.079046 -0.0254,0.1933593 -0.0429,0.1143136 -0.12593,0.2592056 -0.22266,0.4023438 -0.19345,0.2862758 -0.4376,0.5659318 -0.53711,0.6894528 -0.0248,0.03083 -0.0392,0.05779 -0.0664,0.103516 -0.0272,0.04573 -0.0615,0.104312 -0.10156,0.175781 -0.0802,0.142938 -0.18549,0.335444 -0.30664,0.560547 -0.24232,0.450206 -0.54936,1.032378 -0.85352,1.617187 -0.30416,0.584809 -0.60578,1.171251 -0.83398,1.628907 -0.1141,0.228827 -0.2096,0.425276 -0.2793,0.574218 -0.0349,0.07447 -0.0629,0.137595 -0.084,0.1875 -0.0211,0.04991 -0.0353,0.07594 -0.0449,0.125 -0.02,0.102495 -0.0175,0.231613 -0.006,0.392578 0.0116,0.160966 0.0354,0.347328 0.0742,0.533203 0.0389,0.185876 0.0912,0.372403 0.16211,0.533204 0.0709,0.1608 0.1574,0.301352 0.29492,0.386718 0.15134,0.09411 0.35625,0.131652 0.57227,0.16211 0.21601,0.03046 0.43463,0.04297 0.58008,0.04297 0.10831,0 0.17749,-0.05331 0.23632,-0.103515 0.0229,-0.0195 0.0385,-0.03989 0.0586,-0.06055 0.0148,0.10713 0.004,0.222337 0.0488,0.314453 0.0438,0.08952 0.10477,0.17095 0.1914,0.226563 0.0866,0.05561 0.19951,0.07816 0.31055,0.05469 0.15321,-0.03223 0.2922,-0.125963 0.43359,-0.242187 0.1414,-0.116225 0.28301,-0.258623 0.41602,-0.40625 0.26601,-0.295256 0.49527,-0.607235 0.58789,-0.734375 0.0128,-0.01761 0.15381,-0.146888 0.33203,-0.28125 0.17822,-0.134362 0.40335,-0.293359 0.63086,-0.451172 0.45502,-0.315627 0.90315,-0.610895 1.04297,-0.722656 0.1402,-0.112305 0.41218,-0.394924 0.66992,-0.664063 0.25774,-0.269139 0.48633,-0.515625 0.48633,-0.515625 l 0.006,-0.0059 0.0312,-0.04102 c 0.0138,0.124464 0.0434,0.204872 0.0352,0.369141 -0.0158,0.313812 -0.0713,0.683013 -0.1582,1.046875 -0.17371,0.727722 -0.49545,1.44198 -0.79492,1.675781 l -0.006,0.0039 -0.006,0.0059 c 0,0 -0.39564,0.380573 -0.83984,0.837891 -0.4442,0.457318 -0.93146,0.98095 -1.14453,1.3125 -0.12474,0.193884 -0.33614,0.663223 -0.43555,1.126953 -0.0497,0.231865 -0.0738,0.459763 -0.0176,0.658203 0.0281,0.09922 0.0808,0.193971 0.16602,0.261719 0.0853,0.06775 0.19756,0.101563 0.32031,0.101563 h 8.24219 v -0.150391 c -0.004,-3.109724 -0.10878,-6.014401 -0.83008,-8.242187 -0.707,-2.183613 -2.05294,-3.7071539 -4.42969,-4.0625002 v -0.027344 l -0.13867,-0.011719 c -0.11449,-0.00992 -0.13103,-0.03883 -0.16211,-0.125 -0.0311,-0.08617 -0.0389,-0.2319508 -0.041,-0.3867187 -0.002,-0.154768 0.002,-0.3168169 -0.0469,-0.4687501 -0.0243,-0.075967 -0.066,-0.1520957 -0.13672,-0.2089843 -0.0707,-0.056889 -0.16576,-0.086 -0.26562,-0.085937 z m 0.002,0.3007812 c 0.0485,-3.02e-5 0.0638,0.00764 0.0762,0.017578 0.0124,0.00994 0.0265,0.029194 0.0391,0.068359 0.0251,0.078331 0.0291,0.2238161 0.0312,0.3808594 0.002,0.1570433 0.003,0.3280421 0.0606,0.4863281 0.0384,0.1063834 0.16828,0.1548761 0.28125,0.2148438 v 0.087891 l 0.13086,0.017578 c 2.36063,0.2997385 3.61421,1.7318081 4.31445,3.8945311 0.68835,2.125988 0.80338,4.957151 0.81055,8 h -7.9375 c -0.0713,0 -0.10653,-0.01622 -0.13281,-0.03711 -0.0263,-0.02089 -0.0487,-0.05184 -0.0645,-0.107422 -0.0315,-0.111165 -0.023,-0.304138 0.0215,-0.511719 0.089,-0.415162 0.3136,-0.90351 0.39453,-1.029297 0.17516,-0.272559 0.66713,-0.81233 1.10742,-1.265625 0.4341,-0.446917 0.81145,-0.809875 0.82227,-0.820312 0.43114,-0.336599 0.71892,-1.083543 0.90039,-1.84375 0.0907,-0.380104 0.14908,-0.76256 0.16601,-1.099609 0.0169,-0.33705 -6.2e-4,-0.624143 -0.0918,-0.837891 l -0.10352,-0.242187 -0.40625,0.550781 c -0.0112,0.01201 -0.22323,0.239538 -0.47266,0.5 -0.25594,0.267271 -0.55244,0.566083 -0.64062,0.636719 -0.0886,0.0708 -0.56733,0.391243 -1.02539,0.708984 -0.22903,0.15887 -0.45649,0.32016 -0.64063,0.458984 -0.18414,0.138824 -0.31605,0.235804 -0.39453,0.34375 -0.0903,0.12397 -0.31501,0.429736 -0.56836,0.710938 -0.12667,0.140601 -0.26144,0.275582 -0.38476,0.376953 -0.12332,0.101371 -0.23892,0.164311 -0.30274,0.177734 -0.0422,0.0089 -0.062,0.0029 -0.0879,-0.01367 -0.0259,-0.01661 -0.0574,-0.05115 -0.084,-0.105468 -0.0531,-0.108631 -0.0804,-0.285742 -0.0645,-0.449219 0.002,-0.01738 0.003,-0.03571 -0.002,-0.06445 -0.003,-0.01437 -0.007,-0.03247 -0.0195,-0.05469 -0.006,-0.01111 -0.0268,-0.03265 -0.0273,-0.0332 -5.7e-4,-5.53e-4 -0.0423,-0.03093 -0.043,-0.03125 -6.7e-4,-3.17e-4 -0.0481,-0.01358 -0.0488,-0.01367 -7.8e-4,-8.8e-5 -0.029,1.42e-4 -0.041,0.002 -0.024,0.0036 -0.0406,0.0094 -0.0527,0.01563 -0.0242,0.01242 -0.0359,0.02335 -0.0469,0.0332 -0.0439,0.03941 -0.071,0.07983 -0.10937,0.125 -0.0384,0.04517 -0.0821,0.09114 -0.11719,0.121094 -0.0351,0.02995 -0.0609,0.0332 -0.041,0.0332 -0.12651,0 -0.3394,-0.01286 -0.53907,-0.04102 -0.19966,-0.02815 -0.39507,-0.08183 -0.45507,-0.119141 -0.0483,-0.02996 -0.1194,-0.121564 -0.17774,-0.253906 -0.0583,-0.132343 -0.10674,-0.301226 -0.14258,-0.472656 -0.0358,-0.171431 -0.0597,-0.347286 -0.0703,-0.494141 -0.0106,-0.146855 -0.006,-0.27031 0.002,-0.3125 -0.003,0.01625 0.009,-0.02233 0.0274,-0.06641 0.0186,-0.04407 0.0442,-0.105275 0.0781,-0.177735 0.0678,-0.144919 0.16388,-0.338849 0.27735,-0.566406 0.22693,-0.455113 0.52648,-1.041263 0.83007,-1.625 0.3036,-0.583737 0.61025,-1.166874 0.85157,-1.615234 0.12066,-0.22418 0.22599,-0.414417 0.30468,-0.554688 0.0393,-0.07014 0.0726,-0.127886 0.0977,-0.169922 0.025,-0.04203 0.0471,-0.07348 0.043,-0.06836 0.0872,-0.108269 0.34285,-0.401278 0.55078,-0.708984 0.10397,-0.1538536 0.19845,-0.3120303 0.25586,-0.4648443 0.0574,-0.1528141 0.0905,-0.3185534 -0.004,-0.4628906 -0.0759,-0.1157816 -0.14319,-0.3629424 -0.14843,-0.6015625 -0.005,-0.2205763 0.0539,-0.4149495 0.12695,-0.5234375 0.0121,0.00897 0.0125,0.00813 0.0293,0.025391 0.0768,0.079082 0.18053,0.2319273 0.2832,0.3964844 0.10267,0.164557 0.20628,0.3409422 0.30273,0.4824218 0.0482,0.07074 0.0933,0.132512 0.14258,0.1835938 0.0493,0.051082 0.10117,0.109375 0.21094,0.109375 0.21845,0 0.69008,0.021484 0.84375,0.021484 0.13513,0 0.22937,-0.1013116 0.26562,-0.1738282 0.0363,-0.072517 0.043,-0.1386718 0.043,-0.1386718 l -0.002,0.013672 c 0.0576,-0.2590081 0.21671,-0.528004 0.38672,-0.7246093 0.085,-0.098303 0.17273,-0.1783348 0.24609,-0.2304688 0.0734,-0.052134 0.13792,-0.068365 0.13477,-0.068359 z"
         id="path58" />
    </g>
    <g
       id="path693"
       clip-path="url(#clipPath321-0-1)"
       style="opacity:1"
       transform="matrix(0.37875416,0,0,-0.37875221,249.2065,15.59024)">
      <path
         style="baseline-shift:baseline;display:inline;overflow:visible;vector-effect:none;fill:#f9d08f;stroke-miterlimit:10;enable-background:accumulate;stop-color:#000000;stop-opacity:1"
         d="m 0,0 c 0,-0.533 -0.432,-0.964 -0.964,-0.964 -0.533,0 -0.965,0.431 -0.965,0.964 0,0.533 0.432,0.964 0.965,0.964 C -0.432,0.964 0,0.533 0,0 Z"
         id="path59" />
      <path
         style="baseline-shift:baseline;display:inline;overflow:visible;vector-effect:none;fill:#f9d08f;stroke-miterlimit:10;enable-background:accumulate;stop-color:#000000;stop-opacity:1"
         d="m -0.96484375,-1.359375 c -0.74649815,0 -1.35937505,0.61238154 -1.35937505,1.359375 0,0.74699346 0.6128769,1.359375 1.35937505,1.359375 0.74589942,0 1.36132813,-0.61238154 1.36132813,-1.359375 0,-0.74699346 -0.61542871,-1.359375 -1.36132813,-1.359375 z m 0,0.79101563 c 0.31810058,0 0.56835937,0.24935283 0.56835937,0.56835937 0,0.31900654 -0.25025879,0.56835937 -0.56835937,0.56835937 C -1.2843456,0.56835937 -1.5332031,0.31900654 -1.5332031,0 c 0,-0.31900654 0.2488575,-0.56835937 0.56835935,-0.56835937 z"
         id="path60" />
    </g>
    <g
       id="path694"
       clip-path="url(#clipPath323-0-5)"
       style="opacity:1"
       transform="matrix(0.37875416,0,0,-0.37875221,251.57129,10.67114)">
      <path
         style="baseline-shift:baseline;display:inline;overflow:visible;vector-effect:none;fill:#f9d08f;stroke-miterlimit:10;enable-background:accumulate;stop-color:#000000;stop-opacity:1"
         d="m 0,0 c 0.423,-0.244 0.302,-1.244 -0.269,-2.234 -0.572,-0.99 -1.378,-1.594 -1.8,-1.35 C -2.492,-3.34 -2.372,-2.34 -1.8,-1.35 -1.229,-0.36 -0.423,0.244 0,0 Z"
         id="path61" />
      <path
         style="baseline-shift:baseline;display:inline;overflow:visible;vector-effect:none;fill:#f9d08f;stroke-miterlimit:10;enable-background:accumulate;stop-color:#000000;stop-opacity:1"
         d="m -1.5898437,-3.9980469 c -0.2136166,-0.056107 -0.463647,-0.053473 -0.6777344,0.070312 -0.2141913,0.1235525 -0.3420358,0.339594 -0.4003907,0.5527344 -0.058355,0.2131404 -0.061866,0.4374909 -0.033203,0.6757812 0.057325,0.4765808 0.2496985,1.0122487 0.5585938,1.5468751 0.3083779,0.53466573 0.6765262,0.96987061 1.0605469,1.25781245 0.1920103,0.14397092 0.38783715,0.25250652 0.60156245,0.30859375 0.2137253,0.0560872 0.4635728,0.0532228 0.67773437,-0.0703125 0.21424982,-0.12358618 0.34409858,-0.33957096 0.40234375,-0.55273438 0.0582452,-0.21316341 0.0599799,-0.43754399 0.03125,-0.67578125 C 0.57339967,-1.3612406 0.38250357,-1.897137 0.07421885,-2.4316411 c -0.30885744,-0.534561 -0.67855711,-0.969929 -1.0625,-1.2578125 C -1.1802527,-3.8333949 -1.3762272,-3.9419395 -1.5898437,-3.9980469 Z m -0.28125,0.7578125 c -0.00309,0.00179 0.00601,-0.011643 0.080078,0.00781 0.074071,0.019455 0.1943464,0.077426 0.328125,0.1777344 0.2675571,0.2006165 0.58841991,0.5640922 0.85156248,1.0195312 0.26271527,0.4554959 0.41699107,0.9140683 0.45703125,1.2460938 0.0200201,0.16601274 0.008474,0.29719467 -0.0117188,0.37109375 -0.0201923,0.0738991 -0.0339998,0.0758049 -0.03125,0.0742188 0.002662,-0.001535 -0.007819,0.0116628 -0.0820313,-0.007813 -0.0742122,-0.0194753 -0.19438534,-0.0774553 -0.32812499,-0.17773437 C -0.87490118,-0.72985503 -1.1944092,-1.0934939 -1.4570312,-1.5488281 -1.720136,-2.0042018 -1.8741378,-2.4630027 -1.9140625,-2.7949219 c -0.019962,-0.1659596 -0.010473,-0.2971716 0.00977,-0.3710937 0.020239,-0.073922 0.035895,-0.075771 0.033203,-0.074219 z"
         id="path62" />
    </g>
    <g
       id="path947"
       clip-path="url(#clipPath319-3-2)"
       style="opacity:1"
       transform="matrix(0.37875416,0,0,-0.37875221,254.67812,13.58959)">
      <path
         style="baseline-shift:baseline;display:inline;overflow:visible;vector-effect:none;stroke-linecap:round;stroke-miterlimit:10;enable-background:accumulate;stop-color:#000000;stop-opacity:1"
         d="m -12.888832,-7.9716678 c -0.194,-0.263 -1.129291,-2.0819242 -1.170291,-2.4939242"
         id="path63" />
      <path
         style="baseline-shift:baseline;display:inline;overflow:visible;vector-effect:none;fill:#f9d08f;stroke-linecap:round;stroke-miterlimit:10;enable-background:accumulate;stop-color:#000000;stop-opacity:1"
         d="m -14.125,-11.123047 a 0.66005999,0.66005999 0 0 0 -0.591797,0.722656 c 0.03,0.301449 0.116142,0.4627942 0.220703,0.7148441 0.104561,0.25205 0.235415,0.53459 0.371094,0.8125 0.135679,0.27791 0.275766,0.5500286 0.396484,0.7734375 0.120719,0.2234089 0.194739,0.3651807 0.308594,0.5195313 a 0.66005999,0.66005999 0 0 0 0.923828,0.1386719 0.66005999,0.66005999 0 0 0 0.138672,-0.9218751 c 0.01686,0.022851 -0.09849,-0.1607512 -0.208984,-0.3652343 -0.110492,-0.2044831 -0.243575,-0.4634133 -0.371094,-0.7246094 -0.127519,-0.2611961 -0.251444,-0.5251892 -0.339844,-0.738281 -0.0884,-0.213092 -0.134498,-0.435293 -0.125,-0.339844 A 0.66005999,0.66005999 0 0 0 -14.125,-11.123047 Z"
         id="path64" />
    </g>
  </g>
</svg>
