<?xml version="1.0" encoding="UTF-8" standalone="no"?>
<!-- Created with Inkscape (http://www.inkscape.org/) -->

<svg
   width="30mm"
   height="30mm"
   viewBox="0 0 30 30"
   version="1.1"
   id="svg1"
   xmlns="http://www.w3.org/2000/svg"
   xmlns:svg="http://www.w3.org/2000/svg">
  <defs
     id="defs1">
    <clipPath
       clipPathUnits="userSpaceOnUse"
       id="clipPath182-4-0-4-0-4-2-4-25-4-3">
      <path
         d="M 0,2834.646 H 2834.646 V 0 H 0 Z"
         transform="translate(-91.9855,-311.81193)"
         id="path182-0-3-8-6-1-1-0-9-0-0" />
    </clipPath>
    <clipPath
       clipPathUnits="userSpaceOnUse"
       id="clipPath14-0-1">
      <path
         d="M 0,1133.858 H 1700.787 V 0 H 0 Z"
         transform="translate(-78.439899,-122.6632)"
         id="path14-23-0" />
    </clipPath>
    <clipPath
       clipPathUnits="userSpaceOnUse"
       id="clipPath22-35-9">
      <path
         d="M 0,1133.858 H 1700.787 V 0 H 0 Z"
         transform="translate(-91.638902,-117.83643)"
         id="path22-8-9" />
    </clipPath>
    <clipPath
       clipPathUnits="userSpaceOnUse"
       id="clipPath24-18-6">
      <path
         d="M 0,1133.858 H 1700.787 V 0 H 0 Z"
         transform="translate(-91.705405,-120.07653)"
         id="path24-11-8" />
    </clipPath>
  </defs>
  <g
     id="layer1"
     transform="translate(-520)">
    <path
       id="path74"
       d="m 0,0 c 0,-19.491 -15.801,-35.292 -35.293,-35.292 -19.491,0 -35.292,15.801 -35.292,35.292 0,19.491 15.801,35.292 35.292,35.292 C -15.801,35.292 0,19.491 0,0"
       style="font-variation-settings:normal;vector-effect:none;fill:#f9d08f;fill-opacity:1;fill-rule:nonzero;stroke:#4d3608;stroke-width:1.58026;stroke-linecap:butt;stroke-linejoin:miter;stroke-miterlimit:10;stroke-dasharray:none;stroke-dashoffset:0;stroke-opacity:1;-inkscape-stroke:none;stop-color:#000000"
       transform="matrix(0.37968369,0,0,-0.37968364,548.39998,15)"
       clip-path="url(#clipPath182-4-0-4-0-4-2-4-25-4-3)" />
    <path
       style="baseline-shift:baseline;display:inline;overflow:visible;opacity:1;vector-effect:none;fill:#d20000;stroke-miterlimit:10;enable-background:accumulate;stop-color:#000000;stop-opacity:1"
       d="m 535,3.5 c -6.33943,0 -11.5,5.1605695 -11.5,11.5 0,6.33943 5.16057,11.5 11.5,11.5 6.33943,0 11.5,-5.16057 11.5,-11.5 0,-6.3394305 -5.16057,-11.5 -11.5,-11.5 z m 0,2 c 5.25855,0 9.5,4.2414497 9.5,9.5 0,5.25855 -4.24145,9.5 -9.5,9.5 -5.25855,0 -9.5,-4.24145 -9.5,-9.5 0,-5.2585503 4.24145,-9.5 9.5,-9.5 z"
       id="ellipse92" />
    <g
       id="path127"
       clip-path="url(#clipPath14-0-1)"
       style="opacity:1"
       transform="matrix(0.70083835,0,0,-0.69569712,530.44732,18.18598)">
      <path
         style="baseline-shift:baseline;display:inline;overflow:visible;vector-effect:none;fill:#d20000;stroke-miterlimit:10;enable-background:accumulate;stop-color:#000000;stop-opacity:1"
         d="m 0,-0.6015896 v -4.8255373 c 1.539,-0.608 3.6894542,-1.435 6.4964542,-1.435 2.79,0 6.7025458,1.432 6.7025458,1.432 v 4.8270373 c 1.445091,1.4557699 2.963164,10.9138186 3.279901,12.9786616 0.03368,0.21958 -0.09651,0.488076 -0.297628,0.583207 -0.97632,0.461805 -4.001622,1.626038 -9.6848188,1.623687 -5.6820711,-0.0023 -8.7007356,-1.163276 -9.6750681,-1.623964 -0.2008644,-0.09497 -0.3368838,-0.36445 -0.3098406,-0.585327 C -3.2434415,10.372012 -2.0504857,1.4640496 0,-0.6015896 Z"
         id="path123" />
      <path
         style="baseline-shift:baseline;display:inline;overflow:visible;vector-effect:none;fill:#f9d08f;stroke-miterlimit:10;enable-background:accumulate;stop-color:#000000;stop-opacity:1"
         d="m 6.4960937,-7.2207031 c -2.8773223,0 -5.085138,0.8518253 -6.62695307,1.4609375 l -0.22656251,0.089844 v 5.01171878 C -0.88921617,-0.05559969 -1.3302603,0.8028078 -1.7128906,1.8984375 -2.1247495,3.0777609 -2.4769415,4.45913 -2.7714844,5.8359375 -3.3605701,8.5895525 -3.720513,11.32353 -3.84375,12.330078 c -0.048911,0.399487 0.1307248,0.771029 0.5117187,0.951172 1.0225422,0.483484 4.09733758,1.657812 9.828125,1.660156 5.7321463,0.0024 8.8133963,-1.173611 9.8378903,-1.658203 0.38252,-0.180934 0.559326,-0.563409 0.498047,-0.96289 C 16.673087,11.284137 16.213752,8.3991408 15.611328,5.5820312 15.310116,4.1734765 14.975177,2.7840508 14.619141,1.6425781 14.294816,0.60277485 13.968124,-0.13271752 13.556641,-0.6328125 v -5.046875 l -0.234375,-0.085937 c 0,0 -3.913663,-1.4550781 -6.8261723,-1.4550786 z m 0,0.7167969 c 2.5309178,0 5.9784563,1.2078978 6.3457033,1.3378906 v 4.71093747 l 0.103516,0.10351563 c 0.246794,0.24861879 0.645302,1.10115821 0.990234,2.2070312 0.344932,1.1058731 0.678028,2.4809191 0.976562,3.8769532 0.59707,2.792068 1.055098,5.6685981 1.212891,6.6972661 0.0061,0.03968 -0.07793,0.195749 -0.09766,0.205078 -0.928145,0.439018 -3.897002,1.592174 -9.5312503,1.589843 -5.63335468,-0.0023 -8.5953615,-1.151949 -9.5214843,-1.589843 -0.020735,-0.0098 -0.112597,-0.176482 -0.1074219,-0.21875 0.121776,-0.994615 0.4812331,-3.7145742 1.0625,-6.431641 0.2906334,-1.3585334 0.637027,-2.7151924 1.0332031,-3.8496094 0.39617611,-1.134417 0.85680826,-2.04695871 1.29101565,-2.48437498 L 0.35742188,-0.453125 v -4.71875 C 1.874224,-5.7675353 3.8729833,-6.5039063 6.4960937,-6.5039062 Z"
         id="path124" />
    </g>
    <g
       id="path129"
       style="opacity:1">
      <path
         style="baseline-shift:baseline;display:inline;overflow:visible;vector-effect:none;fill:#d20000;stroke-miterlimit:10;enable-background:accumulate;stop-color:#000000;stop-opacity:1"
         d="m 538.35076,18.13572 c 0,0 1.76131,-6.29951 1.50649,-7.25054 -0.20307,-0.75776 -1.03541,-0.92654 -1.68554,-1.03061 -0.53622,-0.0866 -1.58584,0.37321 -1.58584,0.37321 0,0 -0.81777,-0.37321 -1.58542,-0.37321 -0.76809,0 -1.58582,0.37321 -1.58582,0.37321 0,0 -1.04954,-0.45916 -1.58571,-0.37321 -0.65023,0.10421 -1.48239,0.27285 -1.68547,1.03061 -0.25485,0.95103 1.50657,7.25054 1.50657,7.25054"
         id="path128" />
      <path
         style="baseline-shift:baseline;display:inline;overflow:visible;vector-effect:none;fill:#f9d08f;stroke-miterlimit:10;enable-background:accumulate;stop-color:#000000;stop-opacity:1"
         d="m 535,9.6054688 c -0.78438,0 -1.44668,0.3137627 -1.56055,0.3652343 -0.0563,-0.024105 -0.23988,-0.1041021 -0.54101,-0.1992187 -0.34341,-0.1084684 -0.74742,-0.2220855 -1.10938,-0.1640625 -0.32946,0.052802 -0.72121,0.1210021 -1.07812,0.2910156 -0.35692,0.1700135 -0.68615,0.4650015 -0.8086,0.9218755 -0.0501,0.186978 -0.0404,0.396952 -0.0156,0.671875 0.0248,0.274922 0.0732,0.604174 0.13867,0.970703 0.13086,0.733056 0.32829,1.613276 0.5332,2.46289 0.40982,1.699228 0.85157,3.277344 0.85157,3.277344 l 0.48046,-0.134766 c 0,0 -0.43852,-1.571481 -0.8457,-3.259765 -0.20359,-0.844143 -0.39961,-1.718015 -0.52734,-2.433594 -0.0639,-0.357789 -0.11009,-0.676119 -0.13281,-0.927734 -0.0227,-0.251616 -0.0136,-0.447268 0,-0.498047 0.0806,-0.300887 0.26852,-0.469811 0.54101,-0.59961 0.27249,-0.129799 0.6226,-0.196639 0.94336,-0.248046 0.17421,-0.02793 0.5635,0.04686 0.87891,0.146484 0.3154,0.09962 0.5664,0.208984 0.5664,0.208984 l 0.10157,0.04492 0.10156,-0.04687 c 0,0 0.79531,-0.349609 1.48242,-0.349609 0.68662,0 1.48242,0.349609 1.48242,0.349609 l 0.10156,0.04687 0.10157,-0.04492 c 0,0 0.25296,-0.109294 0.56836,-0.208984 0.31539,-0.09969 0.70489,-0.174588 0.8789,-0.146484 0.32068,0.05133 0.66889,0.11823 0.94141,0.248046 0.27252,0.129816 0.46038,0.298738 0.54101,0.59961 0.0136,0.05078 0.0247,0.24643 0.002,0.498047 -0.0227,0.251616 -0.0709,0.569944 -0.13477,0.927734 -0.12773,0.71558 -0.32181,1.589451 -0.52539,2.433594 -0.40715,1.688285 -0.84766,3.259765 -0.84766,3.259765 l 0.48243,0.134766 c 0,0 0.44176,-1.578116 0.85156,-3.277344 0.2049,-0.849613 0.4004,-1.729835 0.53125,-2.46289 0.0654,-0.366528 0.1158,-0.695782 0.14062,-0.970703 0.0248,-0.274922 0.0345,-0.484901 -0.0156,-0.671875 -0.12244,-0.456889 -0.4536,-0.751844 -0.81055,-0.9218755 -0.35694,-0.1700315 -0.74867,-0.2382785 -1.07812,-0.2910156 -0.36221,-0.058497 -0.76591,0.053544 -1.10938,0.1621094 -0.30208,0.095481 -0.48567,0.1774314 -0.54101,0.2011718 C 536.44668,9.9192318 535.78401,9.6054688 535,9.6054688 Z"
         id="path130" />
    </g>
    <g
       id="path137"
       clip-path="url(#clipPath22-35-9)"
       style="opacity:1"
       transform="matrix(0.70083835,0,0,-0.69569712,539.55359,21.54384)">
      <path
         style="baseline-shift:baseline;display:inline;overflow:visible;vector-effect:none;fill:#d20000;stroke-miterlimit:10;enable-background:accumulate;stop-color:#000000;stop-opacity:1"
         d="m 0.20558243,-0.60335319 c -1.62800003,0.766 -3.96554573,1.69830089 -6.70254573,1.69830089 -2.622,0 -5.1654547,-1.06230089 -6.4964547,-1.69530089"
         id="path131" />
      <path
         style="baseline-shift:baseline;display:inline;overflow:visible;vector-effect:none;fill:#f9d08f;stroke-miterlimit:10;enable-background:accumulate;stop-color:#000000;stop-opacity:1"
         d="m 0.05273437,-0.92773438 c -1.60980107,0.75743713 -3.89313197,1.6640625 -6.54882807,1.6640625 -2.525296,10e-9 -5.0322073,-1.03640987 -6.3437503,-1.66015625 l -0.30664,0.64648438 c 1.350457,0.64225363 3.9316862,1.73046875 6.6503903,1.73046875 2.8183038,0 5.2073166,-0.957859 6.85351558,-1.73242188 z"
         id="path132" />
    </g>
    <g
       id="path141"
       clip-path="url(#clipPath24-18-6)"
       style="opacity:1"
       transform="matrix(0.70083835,0,0,-0.69569712,539.60007,19.98531)">
      <path
         style="baseline-shift:baseline;display:inline;overflow:visible;vector-effect:none;fill:#d20000;stroke-miterlimit:10;enable-background:accumulate;stop-color:#000000;stop-opacity:1"
         d="m 0.13916836,-0.60305231 c -1.62799996,0.766 -3.96562746,1.69800001 -6.70262746,1.69800001 -2.622,0 -5.1659859,-1.06200001 -6.4969859,-1.69500001"
         id="path133" />
      <path
         style="baseline-shift:baseline;display:inline;overflow:visible;vector-effect:none;fill:#f9d08f;stroke-miterlimit:10;enable-background:accumulate;stop-color:#000000;stop-opacity:1"
         d="M -0.01367188,-0.92773438 C -1.6234361,-0.1703146 -3.9067776,0.73632812 -6.5625,0.73632812 c -2.5253233,10e-9 -5.032281,-1.03644464 -6.34375,-1.66015625 l -0.308594,0.64648438 c 1.350531,0.64228839 3.9336673,1.73046875 6.652344,1.73046875 2.8182776,0 5.2072799,-0.95784165 6.85351563,-1.73242188 z"
         id="path134" />
    </g>
    <g
       id="path581"
       style="opacity:1">
      <path
         style="baseline-shift:baseline;display:inline;overflow:visible;vector-effect:none;fill:#d20000;stroke-miterlimit:10;enable-background:accumulate;stop-color:#000000;stop-opacity:1"
         d="m 530.44739,18.60444 c 0.84087,-0.39176 2.51493,-1.02765 4.55306,-1.00433 2.03787,0.0211 3.86969,0.61979 4.69725,1.00536"
         id="path135" />
      <path
         style="baseline-shift:baseline;display:inline;overflow:visible;vector-effect:none;fill:#f9d08f;stroke-miterlimit:10;enable-background:accumulate;stop-color:#000000;stop-opacity:1"
         d="m 535.00391,17.349609 c -2.09169,-0.02393 -3.79998,0.625677 -4.66211,1.027344 l 0.21093,0.453125 c 0.81961,-0.381852 2.46074,-1.003176 4.44532,-0.980469 1.99046,0.02061 3.8044,0.614657 4.59375,0.982422 l 0.21093,-0.453125 c -0.86577,-0.403375 -2.71355,-1.007706 -4.79882,-1.029297 z"
         id="path136" />
    </g>
    <g
       id="path583"
       style="opacity:1">
      <path
         style="baseline-shift:baseline;display:inline;overflow:visible;vector-effect:none;fill:#d20000;stroke-miterlimit:10;enable-background:accumulate;stop-color:#000000;stop-opacity:1"
         d="m 533.81098,15.37686 c -0.53224,0.0343 -1.53725,0.38057 -1.53725,0.38057 l -0.44914,-1.52233 c 0,0 1.15465,-0.46328 1.98639,-0.52962 0,0 0.12324,-1.40019 1.18947,-1.40019 1.06572,0 1.18906,1.40019 1.18906,1.40019 0.83169,0.0641 1.98641,0.52962 1.98641,0.52962 l -0.44923,1.52233 c 0,0 -1.00492,-0.3475 -1.53718,-0.38057 0,0 -0.47723,1.41622 -1.18906,1.41622 -0.71226,0 -1.18947,-1.41622 -1.18947,-1.41622 z"
         id="path138" />
      <path
         style="baseline-shift:baseline;display:inline;overflow:visible;vector-effect:none;fill:#f9d08f;stroke-miterlimit:10;enable-background:accumulate;stop-color:#000000;stop-opacity:1"
         d="m 535,12.054688 c -0.64255,-1e-6 -1.03453,0.446595 -1.2207,0.84375 -0.14362,0.306365 -0.15192,0.484135 -0.16797,0.605468 -0.85634,0.12388 -1.87891,0.5 -1.87891,0.5 l -0.21289,0.08399 0.58789,1.990234 0.24805,-0.08398 c 0,0 0.24573,-0.08494 0.55664,-0.173828 0.25712,-0.07351 0.53194,-0.128361 0.75586,-0.160157 0.0478,0.127766 0.0921,0.272432 0.25586,0.550781 0.11206,0.190444 0.24877,0.386307 0.42187,0.544922 0.17311,0.158616 0.39339,0.28711 0.6543,0.28711 0.26086,0 0.48321,-0.128493 0.65625,-0.28711 0.17304,-0.158617 0.30984,-0.354484 0.42187,-0.544922 0.16369,-0.27824 0.20608,-0.422959 0.25391,-0.550781 0.22359,0.03146 0.49883,0.08654 0.75586,0.160157 0.31081,0.08902 0.55664,0.173828 0.55664,0.173828 l 0.24805,0.08594 0.58789,-1.992187 -0.21094,-0.08399 c 0,0 -1.0225,-0.375097 -1.87891,-0.498047 -0.0159,-0.120566 -0.0259,-0.300093 -0.16992,-0.607421 C 536.03458,12.5013 535.64235,12.054687 535,12.054688 Z m 0,0.5 c 0.42337,0 0.6256,0.253683 0.76758,0.55664 0.14198,0.302957 0.17383,0.615235 0.17383,0.615235 l 0.0176,0.210937 0.21094,0.01758 c 0.67031,0.05166 1.47727,0.370996 1.69336,0.453125 l -0.30469,1.035156 c -0.10606,-0.03465 -0.1468,-0.05047 -0.33203,-0.103515 -0.32471,-0.093 -0.71098,-0.193599 -1.02148,-0.212891 l -0.19141,-0.01172 -0.0606,0.181641 c 0,0 -0.11413,0.334874 -0.30664,0.662109 -0.0962,0.163618 -0.21148,0.320811 -0.32812,0.427735 -0.11665,0.106924 -0.2233,0.15625 -0.31836,0.15625 -0.0952,0 -0.19971,-0.04932 -0.31641,-0.15625 -0.11669,-0.106926 -0.2338,-0.264123 -0.33007,-0.427735 -0.19255,-0.327223 -0.30469,-0.662109 -0.30469,-0.662109 l -0.0625,-0.181641 -0.19141,0.01172 c -0.30992,0.01997 -0.69683,0.120072 -1.02148,0.212891 -0.18519,0.05295 -0.22599,0.06897 -0.33203,0.103515 l -0.30469,-1.035156 c 0.21608,-0.08181 1.02202,-0.399579 1.69336,-0.453125 l 0.21094,-0.01758 0.0195,-0.210937 c 0,0 0.0299,-0.312294 0.17187,-0.615235 0.14201,-0.302941 0.3439,-0.556641 0.76758,-0.55664 z"
         id="path139" />
    </g>
    <g
       id="circle583"
       style="opacity:1">
      <path
         style="baseline-shift:baseline;display:inline;overflow:visible;vector-effect:none;fill:#d20000;stroke-miterlimit:10;enable-background:accumulate;stop-color:#000000;stop-opacity:1"
         d="m 535.84304,19.223557 a 0.84267265,0.84267265 0 0 1 -0.84267,0.842672 0.84267265,0.84267265 0 0 1 -0.84268,-0.842672 0.84267265,0.84267265 0 0 1 0.84268,-0.842673 0.84267265,0.84267265 0 0 1 0.84267,0.842673 z"
         id="path140" />
      <path
         style="baseline-shift:baseline;display:inline;overflow:visible;vector-effect:none;fill:#f9d08f;stroke-miterlimit:10;enable-background:accumulate;stop-color:#000000;stop-opacity:1"
         d="m 535,18.130859 c -0.60051,0 -1.0918,0.491292 -1.0918,1.091797 0,0.600506 0.49129,1.09375 1.0918,1.09375 0.60051,0 1.09375,-0.493244 1.09375,-1.09375 0,-0.600505 -0.49324,-1.091797 -1.09375,-1.091797 z m 0,0.5 c 0.33029,0 0.59375,0.261512 0.59375,0.591797 0,0.330285 -0.26346,0.59375 -0.59375,0.59375 -0.33029,0 -0.5918,-0.263465 -0.5918,-0.59375 0,-0.330285 0.26151,-0.591797 0.5918,-0.591797 z"
         id="path142" />
    </g>
  </g>
</svg>
