<svg xmlns="http://www.w3.org/2000/svg" width="30mm" height="30mm" viewBox="0 0 30 30" version="1.1" id="svg1">
  <defs id="defs1">
    <clipPath clipPathUnits="userSpaceOnUse" id="clipPath182-4-0-4-0-4-2-4-2-7-8">
      <path d="M 0,2834.646 H 2834.646 V 0 H 0 Z" transform="translate(-91.9855,-311.81193)" id="path182-0-3-8-6-1-1-0-7-6-8" />
    </clipPath>
  </defs>
  <g id="layer1" transform="translate(-440)">
    <path id="path72" d="m 0,0 c 0,-19.491 -15.801,-35.292 -35.293,-35.292 -19.491,0 -35.292,15.801 -35.292,35.292 0,19.491 15.801,35.292 35.292,35.292 C -15.801,35.292 0,19.491 0,0" style="font-variation-settings:normal;vector-effect:none;fill:#f9d08f;fill-opacity:1;fill-rule:nonzero;stroke:#4d3608;stroke-width:1.58026;stroke-linecap:butt;stroke-linejoin:miter;stroke-miterlimit:10;stroke-dasharray:none;stroke-dashoffset:0;stroke-opacity:1;-inkscape-stroke:none;stop-color:#000000" transform="matrix(0.37968369,0,0,-0.37968364,468.39998,14.999962)" clip-path="url(#clipPath182-4-0-4-0-4-2-4-2-7-8)" />
    <path style="baseline-shift:baseline;display:inline;overflow:visible;opacity:1;vector-effect:none;fill:#d20000;stroke-miterlimit:10;enable-background:accumulate;stop-color:#000000;stop-opacity:1" d="m 455,3.5 c -6.33943,0 -11.5,5.1605695 -11.5,11.5 0,6.33943 5.16057,11.5 11.5,11.5 6.33943,0 11.5,-5.16057 11.5,-11.5 0,-6.3394305 -5.16057,-11.5 -11.5,-11.5 z m 0,2 c 5.25855,0 9.5,4.2414497 9.5,9.5 0,5.25855 -4.24145,9.5 -9.5,9.5 -5.25855,0 -9.5,-4.24145 -9.5,-9.5 0,-5.2585503 4.24145,-9.5 9.5,-9.5 z" id="ellipse90" />
    </g>
</svg>