<?xml version="1.0" encoding="UTF-8" standalone="no"?>
<!-- Created with Inkscape (http://www.inkscape.org/) -->

<svg
   width="30mm"
   height="30mm"
   viewBox="0 0 30 30"
   version="1.1"
   id="svg1"
   xmlns="http://www.w3.org/2000/svg"
   xmlns:svg="http://www.w3.org/2000/svg">
  <defs
     id="defs1">
    <clipPath
       clipPathUnits="userSpaceOnUse"
       id="clipPath182-4-0-4-0-4-2-8-8-4-5">
      <path
         d="M 0,2834.646 H 2834.646 V 0 H 0 Z"
         transform="translate(-91.9855,-311.81193)"
         id="path182-0-3-8-6-1-1-6-8-5-0" />
    </clipPath>
    <clipPath
       clipPathUnits="userSpaceOnUse"
       id="clipPath321-0-1-9">
      <path
         d="M 0,1133.858 H 1700.787 V 0 H 0 Z"
         transform="translate(-1137.6318,-756.61152)"
         id="path321-4-5-4" />
    </clipPath>
    <clipPath
       clipPathUnits="userSpaceOnUse"
       id="clipPath323-0-5-7">
      <path
         d="M 0,1133.858 H 1700.787 V 0 H 0 Z"
         transform="translate(-1143.8749,-769.59922)"
         id="path323-1-40-8" />
    </clipPath>
    <clipPath
       clipPathUnits="userSpaceOnUse"
       id="clipPath319-3-2-3">
      <path
         d="M 0,1133.858 H 1700.787 V 0 H 0 Z"
         transform="translate(-1152.078,-761.89422)"
         id="path319-0-78-5" />
    </clipPath>
  </defs>
  <g
     id="layer1"
     transform="translate(-280)">
    <path
       id="path631"
       d="m 0,0 c 0,-19.491 -15.801,-35.292 -35.293,-35.292 -19.491,0 -35.292,15.801 -35.292,35.292 0,19.491 15.801,35.292 35.292,35.292 C -15.801,35.292 0,19.491 0,0"
       style="font-variation-settings:normal;vector-effect:none;fill:#f9d08f;fill-opacity:1;fill-rule:nonzero;stroke:#4d3608;stroke-width:1.58026;stroke-linecap:butt;stroke-linejoin:miter;stroke-miterlimit:10;stroke-dasharray:none;stroke-dashoffset:0;stroke-opacity:1;-inkscape-stroke:none;stop-color:#000000"
       transform="matrix(0.37968369,0,0,-0.37968364,308.39999,14.99973)"
       clip-path="url(#clipPath182-4-0-4-0-4-2-8-8-4-5)" />
    <path
       style="baseline-shift:baseline;display:inline;overflow:visible;opacity:1;vector-effect:none;fill:#d20000;stroke-miterlimit:10;enable-background:accumulate;stop-color:#000000;stop-opacity:1"
       d="m 295,3.5 c -6.33943,0 -11.5,5.1605695 -11.5,11.5 0,6.33943 5.16057,11.5 11.5,11.5 6.33943,0 11.5,-5.16057 11.5,-11.5 0,-6.3394305 -5.16057,-11.5 -11.5,-11.5 z m 0,2 c 5.25855,0 9.5,4.2414497 9.5,9.5 0,5.25855 -4.24145,9.5 -9.5,9.5 -5.25855,0 -9.5,-4.24145 -9.5,-9.5 0,-5.2585503 4.24145,-9.5 9.5,-9.5 z"
       id="ellipse643" />
    <g
       id="path764"
       style="opacity:1">
      <path
         style="baseline-shift:baseline;display:inline;overflow:visible;vector-effect:none;fill:#d20000;stroke-linecap:round;enable-background:accumulate;stop-color:#000000;stop-opacity:1"
         d="m 299.78602,21.23432 c -1.26164,-3.97926 -3.85506,-6.69158 -5.9,-12.2694298 l -2.5e-4,-1.19979 c 6.83333,0.44249 7.09241,6.9712198 7.09974,13.4691798 z"
         id="path65" />
      <path
         style="baseline-shift:baseline;display:inline;overflow:visible;vector-effect:none;fill:#f9d08f;stroke-linecap:round;enable-background:accumulate;stop-color:#000000;stop-opacity:1"
         d="m 293.63477,7.4980469 0.002,1.5117187 0.0137,0.041016 c 2.05944,5.6173934 4.65478,8.3433924 5.89648,12.2597654 l 0.0566,0.173828 h 1.63281 v -0.25 c -0.004,-3.252208 -0.0631,-6.529686 -1.00586,-9.091797 -0.94281,-2.5621103 -2.83254,-4.4005974 -6.32813,-4.6269527 z m 0.50195,0.5664062 c 3.13829,0.2932383 4.75532,1.8866169 5.625,4.2499999 0.87336,2.373385 0.95912,5.510389 0.9668,8.669922 h -0.78907 c -1.29812,-3.928931 -3.80628,-6.647786 -5.80273,-12.0722656 z"
         id="path68" />
    </g>
    <g
       id="path766"
       style="opacity:1">
      <path
         style="baseline-shift:baseline;display:inline;overflow:visible;vector-effect:none;fill:#d20000;stroke-linecap:round;enable-background:accumulate;stop-color:#000000;stop-opacity:1"
         d="m 294.5251,9.0833802 c -0.65108,-0.0564 -0.0458,-1.27563 -0.63933,-1.27525 -0.22915,3.7e-4 -0.78289,0.5552501 -0.91318,1.1415601 0,0 -0.0227,0.18255 -0.15983,0.18255 -0.13711,0 -0.61624,-0.0227 -0.84463,-0.0227 -0.22838,0 -0.82189,-1.4839501 -1.07301,-1.1870101 -0.25111,0.29657 -0.20528,1.03362 0,1.34685 0.20529,0.3139801 -0.60676,1.2290598 -0.79349,1.4608498 -0.16551,0.20566 -2.48803,4.64578 -2.53954,4.90825 -0.0564,0.28937 0.0848,1.45858 0.4564,1.68924 0.21134,0.13142 0.80106,0.18293 1.07301,0.18293 0.17687,0 0.41517,-0.45349 0.39965,-0.29744 -0.0367,0.3761 0.10983,0.79576 0.41625,0.73099 0.43405,-0.0913 1.16429,-1.07301 1.34722,-1.32412 0.18256,-0.25111 1.80325,-1.30101 2.03164,-1.48357 0.22839,-0.18294 1.14157,-1.16429 1.14157,-1.16429 l 0.25029,-0.33961 c 0.2924,0.68554 -0.19885,3.03343 -0.92946,3.60383 0,0 -1.57486,1.51917 -1.96309,2.12328 -0.20566,0.31967 -0.86772,1.91762 -0.0916,1.91762 l 8.09207,-10e-6 c -0.007,-6.2127 -0.43223,-11.5808098 -5.26094,-12.1939298 z"
         id="path69" />
      <path
         style="baseline-shift:baseline;display:inline;overflow:visible;vector-effect:none;fill:#f9d08f;stroke-linecap:round;enable-background:accumulate;stop-color:#000000;stop-opacity:1"
         d="m 293.88477,7.5585937 c -0.15802,2.552e-4 -0.25772,0.066178 -0.36524,0.1425782 -0.10752,0.0764 -0.21359,0.1760205 -0.31641,0.2949218 -0.20244,0.2341194 -0.38677,0.5412932 -0.46679,0.8847657 -0.14348,-0.00309 -0.4667,-0.01673 -0.69922,-0.019531 -0.0216,-0.023924 -0.0538,-0.063384 -0.0918,-0.1191406 -0.0837,-0.1228156 -0.18634,-0.2998049 -0.29297,-0.4707031 -0.10663,-0.1708982 -0.21183,-0.3350584 -0.33593,-0.4628907 -0.0621,-0.063916 -0.12654,-0.1261979 -0.24024,-0.1601562 -0.11369,-0.033958 -0.29088,0.01843 -0.37109,0.1132812 -0.1964,0.2319561 -0.237,0.5370514 -0.23047,0.8339844 0.007,0.296933 0.0637,0.5858762 0.21094,0.8105469 -0.0204,-0.031242 0.003,0.00204 -0.0352,0.1035156 -0.0381,0.1014802 -0.11858,0.2412929 -0.21289,0.3808594 -0.18862,0.2791327 -0.42765,0.5549877 -0.53125,0.6835937 -0.0344,0.04281 -0.0463,0.06827 -0.0742,0.115234 -0.0279,0.04696 -0.0632,0.10582 -0.10351,0.177735 -0.0807,0.143828 -0.18532,0.335135 -0.30665,0.560546 -0.24264,0.450822 -0.55112,1.033974 -0.85546,1.619141 -0.30435,0.585167 -0.60341,1.172356 -0.83204,1.630859 -0.11431,0.229252 -0.21092,0.42589 -0.28125,0.576172 -0.0352,0.07514 -0.064,0.139557 -0.0859,0.191407 -0.0219,0.05185 -0.0369,0.07371 -0.0508,0.144531 -0.0239,0.122597 -0.0198,0.254253 -0.008,0.419922 0.012,0.165668 0.0363,0.356184 0.0762,0.546875 0.0399,0.19069 0.0949,0.380495 0.16992,0.550781 0.0749,0.169803 0.16566,0.327795 0.33203,0.43164 0.18178,0.113041 0.38986,0.146509 0.61133,0.177735 0.22146,0.03122 0.44199,0.04297 0.59375,0.04297 0.11296,0 0.1659,-0.05178 0.22461,-0.0957 0.017,0.06198 0.001,0.131693 0.0293,0.189454 0.0495,0.101249 0.11968,0.198964 0.22657,0.267578 0.10688,0.06861 0.25272,0.09668 0.38671,0.06836 0.18301,-0.0385 0.3272,-0.140543 0.47461,-0.261719 0.14742,-0.121175 0.29262,-0.267999 0.42774,-0.417968 0.27023,-0.29994 0.50231,-0.613991 0.5957,-0.742188 -0.009,0.0125 0.1343,-0.126891 0.31055,-0.259766 0.17625,-0.132874 0.4019,-0.291757 0.6289,-0.449218 0.45401,-0.314922 0.88803,-0.601147 1.04493,-0.726563 h 0.002 c 0.15755,-0.126194 0.42135,-0.404066 0.67969,-0.673828 0.19801,-0.206772 0.3013,-0.315655 0.375,-0.394531 4.2e-4,0.05492 0.0147,0.06934 0.0117,0.128906 -0.0154,0.306067 -0.0707,0.668897 -0.15625,1.027344 -0.17113,0.716894 -0.50224,1.419606 -0.75782,1.61914 l -0.0117,0.0078 -0.01,0.0098 c 0,0 -0.3963,0.381184 -0.8418,0.839843 -0.4455,0.45866 -0.93054,0.976911 -1.15625,1.328125 -0.13934,0.216583 -0.34633,0.68219 -0.44922,1.16211 -0.0514,0.23996 -0.0801,0.475593 -0.0156,0.703125 0.0322,0.113765 0.0943,0.231086 0.19922,0.314453 0.10491,0.08337 0.2429,0.123047 0.38281,0.123047 h 8.34375 l -0.002,-0.25 c -0.004,-3.111973 -0.10566,-6.023964 -0.83399,-8.273438 -0.70463,-2.176278 -2.07164,-3.7197222 -4.42578,-4.1074213 v -0.042969 l -0.22852,-0.019531 c -0.0823,-0.00713 -0.0557,0.00354 -0.0781,-0.058594 -0.0224,-0.062132 -0.0331,-0.1995068 -0.0352,-0.3535156 -0.002,-0.1540088 0.006,-0.3215801 -0.0508,-0.4980469 -0.0283,-0.088233 -0.0798,-0.1852745 -0.16992,-0.2578125 -0.0901,-0.072538 -0.21115,-0.1074967 -0.32812,-0.1074219 z m 0.0156,0.4960938 c -0.007,-0.00571 -0.003,-0.00541 0.006,0.021484 0.0172,0.053794 0.0252,0.1937613 0.0273,0.3515625 0.002,0.1578011 -0.001,0.3352537 0.0645,0.5175781 0.0361,0.1001125 0.17652,0.1390311 0.27734,0.2128906 V 9.302734 l 0.21875,0.029297 c 2.32482,0.2951912 3.53921,1.685136 4.23242,3.826172 0.67362,2.080489 0.79098,4.868723 0.80078,7.869141 h -7.83398 c -0.0541,0 -0.0637,-0.01036 -0.0703,-0.01563 -0.007,-0.0053 -0.0196,-0.0156 -0.0312,-0.05664 -0.0233,-0.08207 -0.0193,-0.265357 0.0234,-0.464844 0.0855,-0.398972 0.31454,-0.893006 0.38086,-0.996093 0.16253,-0.252896 0.65672,-0.796094 1.09571,-1.248047 0.42917,-0.441851 0.79361,-0.796153 0.81054,-0.8125 0.47503,-0.370865 0.75345,-1.127402 0.9375,-1.898438 0.092,-0.385518 0.15065,-0.772392 0.16797,-1.117187 0.0173,-0.344796 0.004,-0.640822 -0.0996,-0.882813 l -0.17187,-0.402343 -0.5,0.677734 c -0.007,0.0075 -0.22328,0.239501 -0.47461,0.501953 -0.25535,0.266648 -0.56002,0.57216 -0.63086,0.628906 -0.0715,0.05715 -0.56045,0.386633 -1.01953,0.705078 -0.22954,0.159223 -0.45842,0.320627 -0.64453,0.460938 -0.18612,0.140311 -0.31369,0.227175 -0.41407,0.365234 -0.0895,0.122913 -0.31336,0.424654 -0.5625,0.701172 -0.12456,0.138259 -0.25574,0.270767 -0.37304,0.367188 -0.1173,0.09642 -0.2277,0.151048 -0.26172,0.158203 -0.0192,0.0041 -0.006,0.0036 -0.0117,0 -0.006,-0.0036 -0.028,-0.02187 -0.0488,-0.06445 -0.0417,-0.08516 -0.069,-0.249389 -0.0547,-0.396485 0.002,-0.02246 0.004,-0.04739 -0.004,-0.0918 -0.004,-0.0222 -0.0106,-0.04997 -0.0312,-0.08594 -0.0103,-0.01799 -0.0424,-0.05609 -0.043,-0.05664 -5.7e-4,-5.53e-4 -0.0696,-0.04851 -0.0703,-0.04883 -6.8e-4,-3.17e-4 -0.0793,-0.02335 -0.0801,-0.02344 -7.8e-4,-8.8e-5 -0.049,-9.77e-4 -0.0684,0.002 -0.0388,0.0059 -0.0633,0.01773 -0.082,0.02734 -0.0375,0.01923 -0.0539,0.03388 -0.0684,0.04687 -0.0579,0.05196 -0.0818,0.08882 -0.11914,0.132813 -0.0374,0.04399 -0.0783,0.08813 -0.10547,0.111328 -0.0272,0.0232 -0.0392,0.0078 0.0234,0.0078 -0.12019,0 -0.33117,-0.01168 -0.52539,-0.03906 -0.19422,-0.02738 -0.38646,-0.08709 -0.41602,-0.105469 -0.0185,-0.0115 -0.0845,-0.08613 -0.13867,-0.208984 -0.0542,-0.122857 -0.10189,-0.28651 -0.13672,-0.453125 -0.0348,-0.166615 -0.0581,-0.336364 -0.0684,-0.478516 -0.0102,-0.141191 -0.004,-0.263813 0,-0.287109 v -0.002 c -0.006,0.03143 0.004,-0.0042 0.0215,-0.04492 0.0178,-0.04213 0.0445,-0.102039 0.0781,-0.173828 0.0672,-0.143578 0.16214,-0.339274 0.27539,-0.566406 0.22651,-0.454266 0.52666,-1.037715 0.83008,-1.621094 0.30341,-0.58338 0.61057,-1.165537 0.85156,-1.613281 0.1205,-0.223873 0.22454,-0.415307 0.30274,-0.554688 0.0391,-0.06969 0.0714,-0.127164 0.0957,-0.167969 0.0243,-0.0408 0.0489,-0.07374 0.0351,-0.05664 0.0831,-0.103185 0.34193,-0.401948 0.55469,-0.716797 0.10638,-0.157425 0.2034,-0.3187278 0.26563,-0.4843754 0.0622,-0.1656477 0.1094,-0.3645022 -0.0137,-0.5527344 -0.058,-0.088559 -0.12398,-0.3247861 -0.12891,-0.5488281 -0.003,-0.1374087 0.0381,-0.2096678 0.0684,-0.3066406 0.0585,0.076932 0.11614,0.1485335 0.18555,0.2597656 0.10168,0.1629718 0.20505,0.3401824 0.30468,0.4863281 0.0498,0.073073 0.0979,0.1387938 0.1543,0.1972656 0.0564,0.058472 0.11733,0.1386719 0.28125,0.1386719 0.21182,0 0.67905,0.023437 0.84375,0.023437 0.1795,0 0.31026,-0.1400359 0.35547,-0.2304687 0.0452,-0.090433 0.0527,-0.171875 0.0527,-0.171875 l -0.004,0.023437 c 0.0525,-0.2362438 0.20413,-0.4953332 0.36523,-0.6816407 0.0806,-0.093154 0.16173,-0.1687771 0.22656,-0.2148437 0.0648,-0.046067 0.12157,-0.048898 0.0781,-0.048828 0.0314,-2.02e-5 0.0208,0.00181 0.0137,-0.00391 z m -4.6582,9.1347655 c -0.002,0.02353 0.011,0.04478 0.01,0.06836 -0.002,-0.0068 -0.007,-0.01815 -0.008,-0.02344 -0.006,-0.03249 -0.002,-0.04155 -0.002,-0.04492 z"
         id="path70" />
    </g>
    <g
       id="path780"
       clip-path="url(#clipPath321-0-1-9)"
       style="opacity:1"
       transform="matrix(0.37875416,0,0,-0.37875221,289.2065,15.59024)">
      <path
         style="baseline-shift:baseline;display:inline;overflow:visible;vector-effect:none;fill:#f9d08f;stroke-miterlimit:10;enable-background:accumulate;stop-color:#000000;stop-opacity:1"
         d="m 0,0 c 0,-0.533 -0.432,-0.964 -0.964,-0.964 -0.533,0 -0.965,0.431 -0.965,0.964 0,0.533 0.432,0.964 0.965,0.964 C -0.432,0.964 0,0.533 0,0 Z"
         id="path71" />
      <path
         style="baseline-shift:baseline;display:inline;overflow:visible;vector-effect:none;fill:#f9d08f;stroke-miterlimit:10;enable-background:accumulate;stop-color:#000000;stop-opacity:1"
         d="m -0.96484375,-1.359375 c -0.74649815,0 -1.35937505,0.61238154 -1.35937505,1.359375 0,0.74699346 0.6128769,1.359375 1.35937505,1.359375 0.74589942,0 1.36132813,-0.61238154 1.36132813,-1.359375 0,-0.74699346 -0.61542871,-1.359375 -1.36132813,-1.359375 z m 0,0.79101563 c 0.31810058,0 0.56835937,0.24935283 0.56835937,0.56835937 0,0.31900654 -0.25025879,0.56835937 -0.56835937,0.56835937 C -1.2843456,0.56835937 -1.5332031,0.31900654 -1.5332031,0 c 0,-0.31900654 0.2488575,-0.56835937 0.56835935,-0.56835937 z"
         id="path76" />
    </g>
    <g
       id="path781"
       clip-path="url(#clipPath323-0-5-7)"
       style="opacity:1"
       transform="matrix(0.37875416,0,0,-0.37875221,291.57129,10.67114)">
      <path
         style="baseline-shift:baseline;display:inline;overflow:visible;vector-effect:none;fill:#f9d08f;stroke-miterlimit:10;enable-background:accumulate;stop-color:#000000;stop-opacity:1"
         d="m 0,0 c 0.423,-0.244 0.302,-1.244 -0.269,-2.234 -0.572,-0.99 -1.378,-1.594 -1.8,-1.35 C -2.492,-3.34 -2.372,-2.34 -1.8,-1.35 -1.229,-0.36 -0.423,0.244 0,0 Z"
         id="path77" />
      <path
         style="baseline-shift:baseline;display:inline;overflow:visible;vector-effect:none;fill:#f9d08f;stroke-miterlimit:10;enable-background:accumulate;stop-color:#000000;stop-opacity:1"
         d="m -1.5898437,-3.9980469 c -0.2136166,-0.056107 -0.463647,-0.053473 -0.6777344,0.070312 -0.2141913,0.1235525 -0.3420358,0.339594 -0.4003907,0.5527344 -0.058355,0.2131404 -0.061866,0.4374909 -0.033203,0.6757812 0.057325,0.4765808 0.2496985,1.0122487 0.5585938,1.5468751 0.3083779,0.53466573 0.6765262,0.96987061 1.0605469,1.25781245 0.1920103,0.14397092 0.38783715,0.25250652 0.60156245,0.30859375 0.2137253,0.0560872 0.4635728,0.0532228 0.67773437,-0.0703125 0.21424982,-0.12358618 0.34409858,-0.33957096 0.40234375,-0.55273438 0.0582452,-0.21316341 0.0599799,-0.43754399 0.03125,-0.67578125 C 0.57339967,-1.3612406 0.38250357,-1.897137 0.07421885,-2.4316411 c -0.30885744,-0.534561 -0.67855711,-0.969929 -1.0625,-1.2578125 C -1.1802527,-3.8333949 -1.3762272,-3.9419395 -1.5898437,-3.9980469 Z m -0.28125,0.7578125 c -0.00309,0.00179 0.00601,-0.011643 0.080078,0.00781 0.074071,0.019455 0.1943464,0.077426 0.328125,0.1777344 0.2675571,0.2006165 0.58841991,0.5640922 0.85156248,1.0195312 0.26271527,0.4554959 0.41699107,0.9140683 0.45703125,1.2460938 0.0200201,0.16601274 0.008474,0.29719467 -0.0117188,0.37109375 -0.0201923,0.0738991 -0.0339998,0.0758049 -0.03125,0.0742188 0.002662,-0.001535 -0.007819,0.0116628 -0.0820313,-0.007813 -0.0742122,-0.0194753 -0.19438534,-0.0774553 -0.32812499,-0.17773437 C -0.87490118,-0.72985503 -1.1944092,-1.0934939 -1.4570312,-1.5488281 -1.720136,-2.0042018 -1.8741378,-2.4630027 -1.9140625,-2.7949219 c -0.019962,-0.1659596 -0.010473,-0.2971716 0.00977,-0.3710937 0.020239,-0.073922 0.035895,-0.075771 0.033203,-0.074219 z"
         id="path78" />
    </g>
    <g
       id="path785"
       clip-path="url(#clipPath319-3-2-3)"
       style="opacity:1"
       transform="matrix(0.37875416,0,0,-0.37875221,294.67812,13.58959)">
      <path
         style="baseline-shift:baseline;display:inline;overflow:visible;vector-effect:none;stroke-linecap:round;stroke-miterlimit:10;enable-background:accumulate;stop-color:#000000;stop-opacity:1"
         d="m -12.888832,-7.9716678 c -0.194,-0.263 -1.129291,-2.0819242 -1.170291,-2.4939242"
         id="path79" />
      <path
         style="baseline-shift:baseline;display:inline;overflow:visible;vector-effect:none;fill:#f9d08f;stroke-linecap:round;stroke-miterlimit:10;enable-background:accumulate;stop-color:#000000;stop-opacity:1"
         d="m -14.125,-11.123047 a 0.66005999,0.66005999 0 0 0 -0.591797,0.722656 c 0.03,0.301449 0.116142,0.4627942 0.220703,0.7148441 0.104561,0.25205 0.235415,0.53459 0.371094,0.8125 0.135679,0.27791 0.275766,0.5500286 0.396484,0.7734375 0.120719,0.2234089 0.194739,0.3651807 0.308594,0.5195313 a 0.66005999,0.66005999 0 0 0 0.923828,0.1386719 0.66005999,0.66005999 0 0 0 0.138672,-0.9218751 c 0.01686,0.022851 -0.09849,-0.1607512 -0.208984,-0.3652343 -0.110492,-0.2044831 -0.243575,-0.4634133 -0.371094,-0.7246094 -0.127519,-0.2611961 -0.251444,-0.5251892 -0.339844,-0.738281 -0.0884,-0.213092 -0.134498,-0.435293 -0.125,-0.339844 A 0.66005999,0.66005999 0 0 0 -14.125,-11.123047 Z"
         id="path80" />
    </g>
  </g>
</svg>
