<?xml version="1.0" encoding="UTF-8" standalone="no"?>
<!-- Created with Inkscape (http://www.inkscape.org/) -->

<svg
   width="30mm"
   height="30mm"
   viewBox="0 0 30 30"
   version="1.1"
   id="svg1"
   xmlns="http://www.w3.org/2000/svg"
   xmlns:svg="http://www.w3.org/2000/svg">
  <defs
     id="defs1">
    <clipPath
       clipPathUnits="userSpaceOnUse"
       id="clipPath182-4-0-4-7-7">
      <path
         d="M 0,2834.646 H 2834.646 V 0 H 0 Z"
         transform="translate(-91.9855,-311.81193)"
         id="path182-0-3-8-2-4" />
    </clipPath>
    <clipPath
       clipPathUnits="userSpaceOnUse"
       id="clipPath1436-84-4">
      <path
         d="M 0,1133.858 H 1700.787 V 0 H 0 Z"
         transform="translate(-87.670405,-722.18072)"
         id="path1436-08-6" />
    </clipPath>
  </defs>
  <g
     id="layer1"
     transform="translate(-40)">
    <path
       id="path39"
       d="m 0,0 c 0,-19.491 -15.801,-35.292 -35.293,-35.292 -19.491,0 -35.292,15.801 -35.292,35.292 0,19.491 15.801,35.292 35.292,35.292 C -15.801,35.292 0,19.491 0,0"
       style="font-variation-settings:normal;vector-effect:none;fill:#f9d08f;fill-opacity:1;fill-rule:nonzero;stroke:#4d3608;stroke-width:1.58026;stroke-linecap:butt;stroke-linejoin:miter;stroke-miterlimit:10;stroke-dasharray:none;stroke-dashoffset:0;stroke-opacity:1;-inkscape-stroke:none;stop-color:#000000"
       transform="matrix(0.37968369,0,0,-0.37968364,68.399986,15)"
       clip-path="url(#clipPath182-4-0-4-7-7)" />
    <path
       style="baseline-shift:baseline;display:inline;overflow:visible;opacity:1;vector-effect:none;fill:#d20000;stroke-miterlimit:10;enable-background:accumulate;stop-color:#000000;stop-opacity:1"
       d="M 55,3.5 C 48.66057,3.5 43.5,8.6605695 43.5,15 43.5,21.33943 48.66057,26.5 55,26.5 61.33943,26.5 66.5,21.33943 66.5,15 66.5,8.6605695 61.33943,3.5 55,3.5 Z m 0,2 c 5.25855,0 9.5,4.2414497 9.5,9.5 0,5.25855 -4.24145,9.5 -9.5,9.5 -5.25855,0 -9.5,-4.24145 -9.5,-9.5 0,-5.2585503 4.24145,-9.5 9.5,-9.5 z"
       id="ellipse80" />
    <g
       id="path1435-5"
       clip-path="url(#clipPath1436-84-4)"
       style="opacity:1"
       transform="matrix(0.59213132,0,0,-0.59262953,56.546226,15.58803)">
      <path
         style="baseline-shift:baseline;display:inline;overflow:visible;vector-effect:none;fill:#d20000;stroke-miterlimit:10;enable-background:accumulate;stop-color:#000000;stop-opacity:1"
         d="M -5.145,7.665 C -6.353,6.828 -7.149,5.404 -7.149,3.789 c 0,-1.59 0.771,-2.992 1.946,-3.835 -3.379,-1.493 -5.89,-5.634 -5.515,-9.716 H 5.454 C 5.832,-5.616 3.387,-1.448 0,0 c 1.141,0.847 1.887,2.226 1.887,3.789 0,1.615 -0.796,3.039 -2.004,3.876"
         id="path7" />
      <path
         style="baseline-shift:baseline;display:inline;overflow:visible;vector-effect:none;fill:#f9d08f;stroke-miterlimit:10;enable-background:accumulate;stop-color:#000000;stop-opacity:1"
         d="m -11.103516,-10.183594 -0.03516,0.3828127 c -0.375243,4.0846414 1.997662,8.1060349 5.3183595,9.84179692 -1.0302976,0.9340529 -1.75,2.22919248 -1.75,3.74804688 0,1.7536721 0.864697,3.3074648 2.1855469,4.2226563 L -4.9042969,7.3183594 C -5.999447,6.5595509 -6.7265625,5.2653904 -6.7265625,3.7890625 c 0,-1.4535713 0.7035592,-2.7274093 1.7695313,-3.4921875 l 0.5996093,-0.4296875 -0.6757812,-0.29882813 C -8.113629,-1.7927166 -10.436137,-5.5787909 -10.267578,-9.3398438 H 5.0058594 c 0.1776283,3.8281179 -2.0908348,7.6339749 -5.17187502,8.95117192 l -0.67578126,0.28906251 0.58984375,0.4375 C 0.78370722,1.1066937 1.4648438,2.3603477 1.4648437,3.7890625 c 10e-8,1.4763279 -0.72711543,2.7704884 -1.82226558,3.5292969 L 0.12304687,8.0117188 C 1.4438967,7.0965273 2.3085938,5.5427346 2.3085938,3.7890625 c 0,-1.4914803 -0.6957461,-2.76563 -1.69335943,-3.69726563 C 3.9431713,-1.6093258 6.2522401,-5.6631161 5.875,-9.8007813 L 5.839844,-10.183594 Z"
         id="path8" />
    </g>
    <g
       id="path3-7-6"
       style="opacity:1">
      <path
         style="baseline-shift:baseline;display:inline;overflow:visible;vector-effect:none;fill:#d20000;stroke-miterlimit:10;enable-background:accumulate;stop-color:#000000;stop-opacity:1"
         d="m 59.875056,12.34016 c 0,0 -3.22783,0.83188 -4.87778,0.84067 -1.64515,0.0102 -4.87222,-0.78653 -4.87222,-0.78653 0,0 2.17347,-0.68435 2.9789,-1.43724 0.9329,-0.87187 1.89362,-3.33033 1.89362,-3.33033 0,0 0.95359,2.46564 1.89332,3.33033 0.80656,0.7426 2.98416,1.3831 2.98416,1.3831 z"
         id="path9" />
      <path
         style="baseline-shift:baseline;display:inline;overflow:visible;vector-effect:none;fill:#f9d08f;stroke-miterlimit:10;enable-background:accumulate;stop-color:#000000;stop-opacity:1"
         d="m 54.998047,6.9375 -0.232422,0.5976562 c 0,0 -0.238203,0.6052092 -0.589844,1.3183594 -0.35164,0.7131503 -0.830101,1.5347944 -1.242187,1.9199224 v 0.002 c -0.348367,0.325642 -1.083524,0.690409 -1.716797,0.951172 -0.633273,0.260762 -1.166016,0.429687 -1.166016,0.429687 l -0.851562,0.267578 0.865234,0.212891 c 0,0 3.205707,0.805635 4.933594,0.794922 1.73224,-0.0092 4.939453,-0.84961 4.939453,-0.84961 l 0.876953,-0.226562 -0.869141,-0.25586 c 0,0 -0.533859,-0.157655 -1.167968,-0.40625 C 58.143234,11.444765 57.407698,11.09306 57.060547,10.773438 56.646804,10.392733 56.16701,9.5712094 55.816406,8.8574219 55.465802,8.1436343 55.230469,7.5371094 55.230469,7.5371094 Z m -0.002,1.3046875 c 0.10343,0.2493524 0.149293,0.3843775 0.371093,0.8359375 0.361124,0.735205 0.827529,1.578514 1.353516,2.0625 0.459409,0.422978 1.216717,0.762226 1.873047,1.019531 0.154677,0.06064 0.147759,0.05036 0.285156,0.09961 -0.86612,0.20797 -2.619046,0.665142 -3.882812,0.671875 -1.264281,0.0078 -3.034838,-0.434003 -3.892578,-0.63086 0.144792,-0.05453 0.139731,-0.0434 0.304687,-0.111328 0.654819,-0.269635 1.410124,-0.62158 1.867188,-1.048828 0.520814,-0.486743 0.987665,-1.3304059 1.349609,-2.0644531 0.222019,-0.450269 0.267026,-0.58523 0.371094,-0.8339844 z"
         id="path10" />
    </g>
  </g>
</svg>
