<?xml version="1.0" encoding="UTF-8" standalone="no"?>
<svg
   viewBox="0 0 60 60"
   version="1.1"
   id="svg2"
   sodipodi:docname="0A-AzureOni.svg"
   inkscape:version="1.3 (0e150ed6c4, 2023-07-21)"
   xml:space="preserve"
   xmlns:inkscape="http://www.inkscape.org/namespaces/inkscape"
   xmlns:sodipodi="http://sodipodi.sourceforge.net/DTD/sodipodi-0.dtd"
   xmlns="http://www.w3.org/2000/svg"
   xmlns:svg="http://www.w3.org/2000/svg"><sodipodi:namedview
     id="namedview2"
     pagecolor="#ffffff"
     bordercolor="#666666"
     borderopacity="1.0"
     inkscape:showpageshadow="2"
     inkscape:pageopacity="0.0"
     inkscape:pagecheckerboard="0"
     inkscape:deskcolor="#d1d1d1"
     inkscape:zoom="8"
     inkscape:cx="62.375"
     inkscape:cy="48.75"
     inkscape:window-width="3816"
     inkscape:window-height="2032"
     inkscape:window-x="2"
     inkscape:window-y="0"
     inkscape:window-maximized="0"
     inkscape:current-layer="svg2" /><defs
     id="defs1"><filter
       id="0GI_svg__a"
       x="-0.13505093"
       y="-0.11084443"
       width="1.3201125"
       height="1.2628796"><feGaussianBlur
         in="SourceAlpha"
         result="blur"
         stdDeviation="2"
         id="feGaussianBlur1" /><feOffset
         dx="2"
         dy="2"
         result="offsetBlur"
         id="feOffset1" /><feBlend
         in="SourceGraphic"
         in2="offsetBlur"
         id="feBlend1" /></filter></defs><g
     fill="#dcdcdc"
     filter="url(#0GI_svg__a)"
     transform="translate(40.742 .122)scale(.98716)"
     id="g1"><path
       fill="#cdbc68"
       d="m -23.79792,11.374793 -7.051077,44.449995 H 9.0854401 L 2.2953658,11.661792 C -2.1226825,10.364793 -6.5437309,9.0617928 -10.959779,7.7667929 Z"
       id="path1"
       style="fill:#e9dbc9;fill-opacity:1;stroke:#333333;stroke-width:1.01300701;stroke-dasharray:none"
       sodipodi:nodetypes="cccccc" /></g><path
     style="fill:#9cbbff;fill-opacity:1;stroke:#313131;stroke-width:0.774269px;stroke-linecap:butt;stroke-linejoin:miter;stroke-opacity:1"
     d="m 35.478283,41.480448 c 0.643039,0.205309 1.672067,5.919747 1.368728,5.919747 0,0 -5.653247,1.639685 -8.554547,1.608255 -2.657432,-0.02879 -7.801747,-1.642473 -7.801747,-1.642473 l 2.018872,-5.714438 v 0 l -2.549255,0.804127 -0.06844,0.76991 -2.74765,1.532999 c -1.641244,-3.168031 -0.998439,-5.717278 4.559897,-7.02657 4.456333,-0.984979 8.9763,-1.681476 14.106219,0.387134 0.937364,0.51216 1.828786,1.231059 2.637353,2.322808 l 2.419592,-0.943641 c 0.955856,1.475702 0.293713,4.068755 0.119505,4.199222 -0.307764,0.230489 -0.580495,0.517301 -0.923292,0.691467 -0.659408,0.335028 -1.383576,0.700048 -2.121528,0.650145 -0.488813,-0.03306 -1.334509,-0.615927 -1.334509,-0.615927"
     id="path15"
     sodipodi:nodetypes="ccsccccccccccsssc" /><path
     style="fill:#f7d12c;fill-opacity:1;stroke:#313131;stroke-width:0.7;stroke-linecap:butt;stroke-linejoin:miter;stroke-dasharray:none;stroke-opacity:1"
     d="M 36.543106,47.0625 26.636856,36.625 c 0,0 -5.28125,0.5 -4.53125,1.21875 0.75,0.71875 7.78125,10.71875 7.78125,10.71875 2.241123,0.74756 4.867443,0.225297 6.65625,-1.5 z"
     id="path43"
     sodipodi:nodetypes="ccscc" /><path
     style="fill:#9cbbff;fill-opacity:1;stroke:#313131;stroke-width:0.774269px;stroke-linecap:butt;stroke-linejoin:miter;stroke-opacity:1"
     d="m 20.148534,31.146554 c -0.106483,-0.157811 -1.733436,-1.114877 -2.574918,-1.565482 -0.841023,2.14662 1.667713,5.106373 2.301173,4.397037"
     id="path10"
     sodipodi:nodetypes="ccc" /><path
     style="fill:#9cbbff;fill-opacity:1;stroke:#313131;stroke-width:0.774269px;stroke-linecap:butt;stroke-linejoin:miter;stroke-opacity:1"
     d="m 33.439163,25.97279 c 2.099131,0.212956 3.238229,2.913502 3.919737,4.887575 0.47378,1.372364 0.293018,2.944134 -0.04839,4.355264 -0.203564,0.841385 -0.509247,1.753547 -1.161403,2.322808 -1.206685,1.053304 -2.972798,1.262788 -4.548833,1.548538 -1.556168,0.282148 -3.173133,0.341842 -4.742398,0.145176 -1.332301,-0.16697 -2.680162,-0.49335 -3.871347,-1.113012 -0.956533,-0.497594 -1.933451,-1.125397 -2.516375,-2.032457 -0.351113,-0.54635 -0.425646,-1.240456 -0.483918,-1.887281 -0.101573,-1.127454 -0.06423,-2.297602 0.241959,-3.387428 0.152204,-0.54175 0.450631,-1.039801 0.774269,-1.500147 0.722069,-1.027077 1.451604,-2.177699 2.564767,-2.758334 1.949789,-1.017025 4.334216,-0.876873 6.532897,-0.919445 1.118515,-0.02165 2.226024,0.22583 3.339035,0.338743 z"
     id="path2"
     sodipodi:nodetypes="ssssssssssssss" /><path
     style="fill:none;stroke:#313131;stroke-width:0.774269px;stroke-linecap:butt;stroke-linejoin:miter;stroke-opacity:1"
     d="M 34.93931,37.102911 C 31.263147,36.053827 27.555837,35.482346 23.688209,37.369066"
     id="path5"
     sodipodi:nodetypes="cc" /><path
     style="fill:#ffffff;stroke:none;stroke-width:0.387135;stroke-linecap:butt;stroke-linejoin:miter;stroke-dasharray:none;stroke-opacity:1"
     d="m 34.497127,36.653416 c -0.07504,-0.697488 -0.238692,-1.392652 -0.718581,-1.916218 -0.302263,0.398746 -0.524648,0.411418 -0.949555,1.402946"
     id="path6"
     sodipodi:nodetypes="ccc" /><path
     style="fill:#ffffff;stroke:none;stroke-width:0.387135;stroke-linecap:butt;stroke-linejoin:miter;stroke-dasharray:none;stroke-opacity:1"
     d="m 23.736256,36.952475 c 0.07504,-0.697487 0.170257,-1.349879 0.470499,-1.89911 0.473353,0.210546 0.772728,0.39431 1.197637,1.385838"
     id="path7"
     sodipodi:nodetypes="ccc" /><ellipse
     style="fill:#313131;fill-opacity:1;stroke:none;stroke-width:0.421512;stroke-linecap:round;stroke-linejoin:round;stroke-dasharray:none;stroke-opacity:1;paint-order:stroke fill markers"
     id="path8"
     cx="-30.17874"
     cy="34.517048"
     rx="0.62875926"
     ry="0.5047183"
     transform="scale(-1,1)" /><ellipse
     style="fill:#313131;fill-opacity:1;stroke:none;stroke-width:0.421512;stroke-linecap:round;stroke-linejoin:round;stroke-dasharray:none;stroke-opacity:1;paint-order:stroke fill markers"
     id="ellipse8"
     cx="-27.475506"
     cy="34.517048"
     rx="0.62875926"
     ry="0.5047183"
     transform="scale(-1,1)" /><path
     style="opacity:1;fill:#313131;fill-opacity:1;stroke:#313131;stroke-width:0.7;stroke-linecap:butt;stroke-linejoin:miter;stroke-dasharray:none;stroke-opacity:1"
     d="m 30.148519,27.279368 c 0,0 1.08205,1.634037 1.911478,1.596931 0.535549,-0.02396 1.35497,-1.379168 1.330775,-1.233992 -0.0242,0.145175 1.524342,1.59693 1.669518,1.742106 0.145175,0.145175 1.330775,0.193567 1.330775,0.193567 l 0.314546,-0.09678 0.725878,2.153437 2.588963,-0.750074 c 0,0 0.973422,-1.124558 1.282384,-1.790497 0.360588,-0.777211 0.496834,-1.591281 0.41133,-2.443788 -0.08748,-0.872223 -0.359986,-1.64356 -1.004131,-2.238122 -0.495285,-0.45716 -1.609027,-0.907347 -1.609027,-0.907347 0,0 -0.04816,-1.705761 -0.435527,-2.504277 -0.329923,-0.680104 -1.046194,-1.185597 -1.766302,-1.415462 -0.80143,-0.255821 -2.322808,0 -2.322808,0 0.100511,-0.06834 -0.903123,-2.282651 -2.54057,-2.467983 -1.549523,-0.175379 -3.091641,0.943585 -2.927707,1.306581 0,0 -0.98213,-1.500531 -3.218056,-1.766303 -2.235927,-0.265771 -3.611417,2.67717 -3.218057,2.855118 0,0 -2.344922,-0.529307 -3.31484,0 -1.986365,1.084007 -0.998315,4.714714 -0.604898,4.694008 0,0 -1.21885,-0.184884 -1.669518,0.145176 -0.662199,0.48498 -0.847024,1.45932 -0.943641,2.274415 -0.13938,1.175859 0.955739,3.593094 0.955739,3.593094 l 0.447624,-0.375041 2.516376,0.774269 0.629093,-1.161404 c 0,0 0.963706,-0.07766 1.415461,-0.41133 0.447402,-0.330462 1.052523,-1.403363 1.052523,-1.403363 0,0 0.561124,0.646745 0.94364,0.653289 0.536855,0.0092 1.354972,-0.871052 1.354972,-0.871052 0,0 1.178482,1.418616 2.564767,1.451755 1.337593,0.03198 2.222691,-1.567728 2.12924,-1.596931 z"
     id="path11"
     sodipodi:nodetypes="csssccccssscsscsczcscssccccscscsc" /><path
     style="fill:#f7d12c;fill-opacity:1;stroke:#313131;stroke-width:0.7;stroke-linecap:butt;stroke-linejoin:miter;stroke-dasharray:none;stroke-opacity:1"
     d="m 29.639138,15.967164 c -0.917344,1.375242 -1.626942,2.557824 -2.037138,4.342842 1.269764,1.990819 2.943319,1.5858 3.727697,0.217189 -0.02158,-1.628175 -0.819761,-3.414415 -1.690559,-4.560031 z"
     id="path13"
     sodipodi:nodetypes="cccc" /><circle
     style="fill:#f9f9f9;stroke:none;stroke-width:0.135817;stroke-linecap:square;stroke-linejoin:round;stroke-opacity:1;paint-order:stroke fill markers"
     id="path2-6"
     cx="-32.399437"
     cy="31.863794"
     r="1.7293087"
     transform="scale(-1,1)" /><circle
     style="fill:#000000;stroke:#313131;stroke-width:0.135817;stroke-linecap:square;stroke-linejoin:round;stroke-opacity:1;paint-order:stroke fill markers"
     id="path3-9"
     cx="-32.414955"
     cy="31.851061"
     r="0.97194713"
     transform="scale(-1,1)" /><circle
     style="fill:#f9f9f9;stroke:none;stroke-width:0.135817;stroke-linecap:square;stroke-linejoin:round;stroke-opacity:1;paint-order:stroke fill markers"
     id="circle14"
     cx="-25.140663"
     cy="31.863794"
     r="1.7293087"
     transform="scale(-1,1)" /><circle
     style="fill:#000000;stroke:#313131;stroke-width:0.135817;stroke-linecap:square;stroke-linejoin:round;stroke-opacity:1;paint-order:stroke fill markers"
     id="circle15"
     cx="-25.156181"
     cy="31.851061"
     r="0.97194713"
     transform="scale(-1,1)" /><ellipse
     style="opacity:1;fill:#313131;fill-opacity:1;stroke:#313131;stroke-width:0.700803;stroke-linecap:round;stroke-linejoin:round;stroke-dasharray:none;stroke-opacity:1;paint-order:stroke fill markers"
     id="path14"
     cx="-13.773892"
     cy="40.590336"
     rx="2.548511"
     ry="1.5282804"
     transform="matrix(-0.90409166,0.42733858,0.48752007,0.87311178,0,0)" /><ellipse
     style="opacity:1;fill:#313131;fill-opacity:1;stroke:#313131;stroke-width:0.700803;stroke-linecap:round;stroke-linejoin:round;stroke-dasharray:none;stroke-opacity:1;paint-order:stroke fill markers"
     id="ellipse14"
     cx="36.035519"
     cy="16.128321"
     rx="2.548511"
     ry="1.5282804"
     transform="matrix(0.90409166,0.42733858,-0.48752007,0.87311178,0,0)" /><path
     style="fill:#f7d12c;fill-opacity:1;stroke:#313131;stroke-width:0.774269px;stroke-linecap:butt;stroke-linejoin:miter;stroke-opacity:1"
     d="m 36.959174,47.270381 1.330776,6.436114 c 0,0 -2.032457,-1.137208 -2.105044,-0.919445 -0.07259,0.217763 -1.064622,1.524342 -1.064622,1.524342 0,0 -1.379167,-1.209795 -1.524341,-0.822661 -0.145177,0.387135 -0.871053,1.06462 -0.871053,1.06462 0,0 -1.258188,-1.330775 -1.258188,-0.919445 0,0.411332 -0.241959,1.863087 -0.556507,1.500148 -0.314546,-0.362939 -2.201827,-2.177633 -2.201827,-2.177633 l -1.621127,2.008262 c 0,0 -1.403363,-2.008262 -1.427559,-1.911478 -0.0242,0.09678 -1.984065,1.500146 -1.984065,1.500146 l -0.580702,-1.185599 -1.403363,0.871053 -1.354972,-1.427559 c 0,0 -1.403363,1.258187 -1.379166,1.088816 0.0242,-0.169372 1.742106,-6.799052 1.742106,-6.799052 4.788144,1.759411 9.994095,2.392561 16.259654,0.169371 z"
     id="path17"
     sodipodi:nodetypes="ccscscssccsccccscc" /><circle
     style="opacity:1;fill:#9cbbff;fill-opacity:1;stroke:#313131;stroke-width:0.7;stroke-linecap:round;stroke-linejoin:round;stroke-dasharray:none;stroke-opacity:1;paint-order:normal"
     id="circle17"
     cx="-18.97015"
     cy="44.338493"
     r="2.7460098"
     transform="scale(-1,1)" /><g
     id="g35"
     transform="matrix(-1,0,0,1,60.355606,0)"><path
       style="fill:#d5482b;fill-opacity:1;stroke:#313131;stroke-width:0.774269;stroke-linecap:butt;stroke-linejoin:miter;stroke-dasharray:none;stroke-opacity:1"
       d="m 22.687359,31.334756 c 0,0 -1.54009,-1.218335 -2.326836,-1.454273 -0.342854,0.461946 -0.32483,2.79415 -0.119764,3.079638 0,0 0.597797,0.836592 0.821236,0.958109 0.356565,0.193916 1.360921,-0.125841 1.582941,-0.02425"
       id="path9"
       sodipodi:nodetypes="cccsc" /><path
       style="opacity:1;fill:#808080;fill-opacity:1;stroke:none;stroke-width:1px;stroke-linecap:butt;stroke-linejoin:miter;stroke-opacity:1"
       d="m 20.735204,32.783123 c 0.663911,0.05332 1.120557,-0.334644 1.495838,-0.664363 -0.148511,-0.435524 -0.528264,-0.861385 -1.030794,-1.284851 -0.360044,0.520337 -0.680916,1.129076 -0.465031,1.949217 z"
       id="path32"
       sodipodi:nodetypes="cccc" /><g
       id="g46"
       transform="translate(2.28125,0.15625)"><path
         style="opacity:1;fill:#808080;stroke:none;stroke-width:1px;stroke-linecap:butt;stroke-linejoin:miter;stroke-opacity:1"
         d="m 20.787086,36.406313 c 0.365099,0.0856 1.291684,-0.306999 1.291684,-0.306999 l -0.511895,-1.307627 z"
         id="path22" /><g
         id="g38"
         transform="translate(0.625,1.0625)"><path
           style="opacity:1;fill:#808080;stroke:none;stroke-width:1px;stroke-linecap:butt;stroke-linejoin:miter;stroke-opacity:1"
           d="m 26.127499,21.15581 c 0.365099,0.0856 1.255801,-0.427754 1.255801,-0.427754 l -0.790017,-1.148153 z"
           id="path24"
           sodipodi:nodetypes="cccc" /><g
           id="g37"
           transform="translate(-2.28125,0.28125)"><path
             style="fill:#f7d12c;fill-opacity:1;stroke:#313131;stroke-width:0.7;stroke-linecap:butt;stroke-linejoin:miter;stroke-dasharray:none;stroke-opacity:1"
             d="m 24.158109,17.770374 c -0.328616,1.620131 -0.707228,3.225265 -0.411332,5.032749 1.928779,1.362158 2.886168,0.441551 3.532605,-1.209795 -0.636191,-1.498894 -1.930061,-2.632407 -3.121273,-3.822954 z"
             id="path12"
             sodipodi:nodetypes="cccc" /><path
             style="opacity:1;fill:#808080;stroke:none;stroke-width:1px;stroke-linecap:butt;stroke-linejoin:miter;stroke-opacity:1"
             d="m 25.34821,28.817377 c 0.365099,0.0856 1.384634,-0.429645 1.384634,-0.429645 l -0.511895,-1.307626 z"
             id="path23"
             sodipodi:nodetypes="cccc" /><g
             id="g36"><path
               id="path18"
               style="opacity:1;fill:#483737;stroke:none;stroke-width:1px;stroke-linecap:butt;stroke-linejoin:miter;stroke-opacity:1"
               d="m 16.55546,47.837815 a 3.0758147,2.8996327 13.195399 0 0 3.657033,-2.121606 3.0758147,2.8996327 13.195399 0 0 -0.918238,-2.78309 l 1.823512,-5.356015 c 0,0 5.706631,-10.356122 7.20336,-16.014833 0.444829,-1.68178 0.916678,-3.507891 0.491788,-5.194818 -0.310557,-1.233006 -1.06585,-2.454845 -2.114515,-3.173908 -1.093523,-0.749823 -2.581088,-1.115993 -3.883281,-0.866351 -1.669086,0.319977 -3.2242,1.490224 -4.214054,2.87168 -0.850136,1.186462 -0.871426,2.790594 -1.169834,4.219361 -0.37193,1.780765 -0.67888,3.586009 -0.767298,5.40305 -0.190407,3.912919 0.515301,11.7401 0.515301,11.7401 l -0.801784,5.635692 a 3.0758147,2.8996327 13.195399 0 0 -2.154862,2.11472 3.0758147,2.8996327 13.195399 0 0 2.332872,3.526018 z" /><path
               style="opacity:1;fill:#808080;stroke:none;stroke-width:1px;stroke-linecap:butt;stroke-linejoin:miter;stroke-opacity:1"
               d="m 17.076958,34.589066 c -0.365099,-0.0856 -1.339126,-0.859632 -1.339126,-0.859632 l 1.183821,-0.942141 z"
               id="path25"
               sodipodi:nodetypes="cccc" /><path
               style="opacity:1;fill:#808080;stroke:none;stroke-width:1px;stroke-linecap:butt;stroke-linejoin:miter;stroke-opacity:1"
               d="m 16.651474,27.176943 c -0.357133,-0.114374 -1.266512,-0.963419 -1.266512,-0.963419 l 1.255006,-0.844999 z"
               id="path26"
               sodipodi:nodetypes="cccc" /><path
               style="opacity:1;fill:#808080;stroke:none;stroke-width:1px;stroke-linecap:butt;stroke-linejoin:miter;stroke-opacity:1"
               d="M 17.426701,19.261488 C 17.104807,19.069107 16.411658,18.03596 16.411658,18.03596 l 1.413934,-0.538385 z"
               id="path27"
               sodipodi:nodetypes="cccc" /><path
               style="opacity:1;fill:#808080;fill-opacity:1;stroke:none;stroke-width:1px;stroke-linecap:butt;stroke-linejoin:miter;stroke-opacity:1"
               d="m 19.543264,29.655007 c -0.61842,-0.247339 -0.83929,-0.693851 -1.028903,-1.156018 0.04112,-0.244477 0.217846,-0.484934 1.494473,-0.692768 0.03691,0.624906 -0.04721,1.20689 -0.46557,1.848786 z"
               id="path29"
               sodipodi:nodetypes="cccc" /><path
               style="opacity:1;fill:#808080;fill-opacity:1;stroke:none;stroke-width:1px;stroke-linecap:butt;stroke-linejoin:miter;stroke-opacity:1"
               d="m 19.443179,24.126826 c -0.61842,-0.247339 -0.83929,-0.693851 -1.028903,-1.156018 0.04112,-0.244477 0.217846,-0.484934 1.494473,-0.692768 0.03691,0.624906 -0.04721,1.20689 -0.46557,1.848786 z"
               id="path30"
               sodipodi:nodetypes="cccc" /></g><path
             style="opacity:1;fill:#808080;fill-opacity:1;stroke:none;stroke-width:1px;stroke-linecap:butt;stroke-linejoin:miter;stroke-opacity:1"
             d="m 20.994549,19.563605 c -0.618421,-0.247339 -0.839291,-0.693851 -1.028904,-1.156018 0.04112,-0.244478 0.217846,-0.484934 1.494473,-0.692769 0.03691,0.624906 -0.04721,1.206891 -0.465569,1.848787 z"
             id="path31"
             sodipodi:nodetypes="cccc" /><path
             style="opacity:1;fill:#808080;fill-opacity:1;stroke:none;stroke-width:1px;stroke-linecap:butt;stroke-linejoin:miter;stroke-opacity:1"
             d="m 22.957674,27.176201 c 0.66391,0.05332 1.120557,-0.334644 1.495838,-0.664363 -0.148512,-0.435524 -0.528265,-0.861385 -1.030795,-1.284851 -0.360043,0.520336 -0.680916,1.129075 -0.465031,1.949217 z"
             id="path33"
             sodipodi:nodetypes="cccc" /><path
             style="opacity:1;fill:#808080;fill-opacity:1;stroke:none;stroke-width:1px;stroke-linecap:butt;stroke-linejoin:miter;stroke-opacity:1"
             d="m 23.005441,22.761616 c 0.663911,0.05332 1.120557,-0.334644 1.495838,-0.664363 -0.148511,-0.435524 -0.528265,-0.861386 -1.030794,-1.284851 -0.360044,0.520336 -0.680916,1.129075 -0.465031,1.949217 z"
             id="path34"
             sodipodi:nodetypes="cccc" /><path
             style="opacity:1;fill:#808080;fill-opacity:1;stroke:none;stroke-width:1px;stroke-linecap:butt;stroke-linejoin:miter;stroke-opacity:1"
             d="m 25.122592,18.378298 c 0.66391,0.05332 1.120557,-0.334644 1.495838,-0.664363 -0.148512,-0.435524 -0.528265,-0.861386 -1.030795,-1.284851 -0.360043,0.520336 -0.680916,1.129075 -0.465031,1.949217 z"
             id="path35"
             sodipodi:nodetypes="cccc" /></g></g></g></g><circle
     style="opacity:1;fill:#9cbbff;fill-opacity:1;stroke:#313131;stroke-width:0.7;stroke-linecap:round;stroke-linejoin:round;stroke-dasharray:none;stroke-opacity:1;paint-order:normal"
     id="path16"
     cx="-42.34515"
     cy="39.838493"
     r="2.7460098"
     transform="scale(-1,1)" /><path
     style="fill:#313131;fill-opacity:1;stroke:none;stroke-width:1px;stroke-linecap:butt;stroke-linejoin:miter;stroke-opacity:1"
     d="m 37.192693,48.5 -4.552,1.546796 4.463611,-0.265165 z"
     id="path38" /><path
     style="fill:#313131;fill-opacity:1;stroke:none;stroke-width:1px;stroke-linecap:butt;stroke-linejoin:miter;stroke-opacity:1"
     d="m 20.089548,48.720971 5.811264,0.996423 -1.259264,0.550373 -4.463611,-0.265165 z"
     id="path39"
     sodipodi:nodetypes="ccccc" /><path
     style="fill:#313131;fill-opacity:1;stroke:none;stroke-width:1px;stroke-linecap:butt;stroke-linejoin:miter;stroke-opacity:1"
     d="m 37.855606,50.444544 -6.797131,0.868031 2.245131,0.678765 4.463611,-0.265165 z"
     id="path40"
     sodipodi:nodetypes="ccccc" /><path
     style="fill:#313131;fill-opacity:1;stroke:none;stroke-width:1px;stroke-linecap:butt;stroke-linejoin:miter;stroke-opacity:1"
     d="m 30.784774,49.383358 c -1.839495,1.227306 -4.194339,1.767481 -6.351787,2.57085 l 2.343971,0.08446 4.955924,-1.83539 z"
     id="path41"
     sodipodi:nodetypes="ccccc" /><path
     style="fill:#313131;fill-opacity:1;stroke:none;stroke-width:1px;stroke-linecap:butt;stroke-linejoin:miter;stroke-opacity:1"
     d="m 19.515024,50.577126 4.552,1.546796 -4.463611,-0.265165 z"
     id="path42" /><path
     style="fill:#313131;fill-opacity:1;stroke:none;stroke-width:1px;stroke-linecap:butt;stroke-linejoin:miter;stroke-opacity:1"
     d="m 29.234443,47.640546 4.927,-1.171796 -5.651111,-0.42233 z"
     id="path44"
     sodipodi:nodetypes="cccc" /><path
     style="fill:#313131;fill-opacity:1;stroke:none;stroke-width:1px;stroke-linecap:butt;stroke-linejoin:miter;stroke-opacity:1"
     d="m 32.999832,43.35892 -5.02075,-0.04695 6.088611,1.23483 z"
     id="path45"
     sodipodi:nodetypes="cccc" /><path
     style="fill:#313131;fill-opacity:1;stroke:none;stroke-width:1px;stroke-linecap:butt;stroke-linejoin:miter;stroke-opacity:1"
     d="M 25.671943,42.296796 30.255193,41.375 24.979082,41.32767 Z"
     id="path46"
     sodipodi:nodetypes="cccc" /></svg>
