<?xml version="1.0" encoding="UTF-8" standalone="no"?>
<svg
   viewBox="0 0 60 60"
   version="1.1"
   id="svg6"
   sodipodi:docname="0G+DaiTengu.svg"
   inkscape:version="1.3 (0e150ed6c4, 2023-07-21)"
   xml:space="preserve"
   xmlns:inkscape="http://www.inkscape.org/namespaces/inkscape"
   xmlns:sodipodi="http://sodipodi.sourceforge.net/DTD/sodipodi-0.dtd"
   xmlns="http://www.w3.org/2000/svg"
   xmlns:svg="http://www.w3.org/2000/svg"><sodipodi:namedview
     id="namedview6"
     pagecolor="#ffffff"
     bordercolor="#666666"
     borderopacity="1.0"
     inkscape:showpageshadow="2"
     inkscape:pageopacity="0.0"
     inkscape:pagecheckerboard="0"
     inkscape:deskcolor="#d1d1d1"
     inkscape:zoom="5.6568543"
     inkscape:cx="-53.916892"
     inkscape:cy="-30.405592"
     inkscape:window-width="3840"
     inkscape:window-height="2054"
     inkscape:window-x="-11"
     inkscape:window-y="-11"
     inkscape:window-maximized="1"
     inkscape:current-layer="svg6"
     showgrid="false" /><defs
     id="defs1"><filter
       id="0KE_svg__a"
       x="-0.13554818"
       y="-0.11123077"
       width="1.3210896"
       height="1.2636065"><feGaussianBlur
         in="SourceAlpha"
         result="blur"
         stdDeviation="2"
         id="feGaussianBlur1" /><feOffset
         dx="2"
         dy="2"
         result="offsetBlur"
         id="feOffset1" /><feBlend
         in="SourceGraphic"
         in2="offsetBlur"
         id="feBlend1" /></filter></defs><g
     filter="url(#0KE_svg__a)"
     transform="translate(40.406 1.058)scale(.95625)"
     id="g1"><path
       fill="#cdbc68"
       d="m -23.798,12.488498 -7.051,44.16196 H 9.085 l -6.79,-44.16196 c -4.418,-1.298 -8.7610915,-2.6000402 -13.177092,-3.8960402 z"
       id="path1"
       style="fill:#e9dbc9;fill-opacity:1;stroke:#333333;stroke-width:1.04575;stroke-dasharray:none"
       sodipodi:nodetypes="cccccc" /></g><path
     style="fill:#313131;fill-opacity:1;stroke:#313131;stroke-width:1px;stroke-linecap:butt;stroke-linejoin:miter;stroke-opacity:1"
     d="m 27.311999,24.379496 c -0.438886,0.04389 -2.480727,0.907276 -5.888187,-0.447721 -2.362349,-2.818968 -5.337133,-0.524551 -5.337133,-0.524551 1.16712,10.629984 -2.676016,18.105361 -4.331029,26.958446 l 2.607457,-3.18198 0.859215,4.01467 1.706008,-3.084401 1.368058,4.46142 1.90035,-4.02167 c 0,0 0.386908,3.843062 1.008718,4.472313 0.58501,-1.089483 1.990569,-7.736765 2.305845,-8.052041 0.795495,-0.795494 3.005203,2.474874 3.005203,2.474874 0,0 6.098796,-3.447146 6.540738,-2.828427 0.109562,0.153387 2.124105,0.104221 2.124105,0.104221 l 2.135582,5.779653 c 0,0 0.636185,-4.04711 0.856567,-5.646532 0.495392,1.18038 2.308367,5.065958 2.308367,5.065958 0,0 0.175589,-1.170594 0.490103,-2.283523 0.354923,-1.255921 0.626944,-2.383678 0.714704,-3.719841 1.092479,1.98052 1.288,5.693912 3.115498,6.731537 C 44.050408,48.104723 43.663844,37.01903 43.663844,37.01903 l 0.53033,-10.783379 c 0.0033,5.2e-4 -0.574852,-2.41388 -3.137786,-2.209708 -1.202262,0.09578 -4.463612,3.977475 -4.463612,3.977475 z"
     id="path34"
     sodipodi:nodetypes="ccccccccccscscccccccccscc" /><path
     style="fill:#e1252b;fill-opacity:1;stroke:#921418;stroke-width:0.5;stroke-linecap:butt;stroke-linejoin:miter;stroke-dasharray:none;stroke-opacity:1"
     d="m 17.290971,41.272719 -1.513651,-0.894932 -0.729204,-0.928077 0.0442,-1.303729 -0.03639,-0.663793 c -0.0063,-0.07617 -0.745214,0.222676 -0.764475,0.543274 -0.103175,1.717333 -0.358482,3.005304 -0.635417,4.694616 0.318162,0.417069 0.607433,0.663958 1.06066,0.928078 0.268268,0.156335 0.751301,0.353553 0.861786,0.353553 0.110486,0 1.856156,0.0442 1.723573,-0.110485 -0.05752,-0.06711 -0.01105,-2.618505 -0.01105,-2.618505 z"
     id="path25"
     sodipodi:nodetypes="cccccscssscc" /><path
     style="opacity:1;fill:#e9e6d9;fill-opacity:1;stroke:#000000;stroke-width:0.5;stroke-linecap:butt;stroke-linejoin:miter;stroke-opacity:0.76862746;stroke-dasharray:none"
     d="m 27.90626,19.236364 c -0.861102,0.07558 -1.73071,0.234794 -2.532573,0.557631 -1.473671,0.593312 -3.92665,2.021412 -4.066058,2.486104 -0.139408,0.464692 -0.819042,1.231606 -1.115262,1.905238 -0.476297,1.083146 -0.704032,2.259371 -1.045557,3.392254 -0.221399,0.734409 -0.65057,2.207289 -0.65057,2.207289 l -1.115261,2.11435 c 0,0 -1.422792,1.327321 -1.370842,1.417311 0.236195,0.409149 3.17926,-1.067516 2.97403,-1.231434 -0.11043,-0.0882 -1.603188,3.531661 -1.603188,3.531661 l -1.2082,2.276992 c 0,0 -1.115262,0.743508 -1.045558,0.836447 0.0697,0.09294 0.604234,0.186737 0.90615,0.139407 0.821237,-0.128741 1.515796,-0.690796 2.230523,-1.115261 0.641003,-0.380681 1.835535,-1.277904 1.835535,-1.277904 0,0 0.08778,1.070464 -0.04647,1.579954 -0.198613,0.753778 -1.092027,2.067881 -1.092027,2.067881 0,0 1.604815,-0.631797 1.68451,-0.679613 0.232347,-0.139408 1.405694,-0.923576 1.405694,-0.923576 l 0.789977,-0.232346 0.325284,0.371754 -0.627334,2.184054 3.32255,-1.092027 6.761273,1.789065 4.089292,-0.394988 c 0,0 -1.556719,-2.76492 -1.440546,-2.695216 0.116173,0.0697 1.2082,0.232346 1.2082,0.232346 0,0 -0.278816,-0.85968 -0.116173,-0.743507 0.162642,0.116173 2.091115,0.697038 2.091115,0.697038 L 37.47892,35.686472 c 0,0 0.02323,-0.813212 0.04647,-1.068792 0.02324,-0.255581 1.095107,-4.102653 1.347608,-6.203643 0.07303,-0.607668 0.107244,-1.226518 0.04647,-1.835534 -0.08992,-0.901111 -0.221808,-1.827807 -0.6041,-2.648746 -0.336105,-0.721758 -0.922084,-1.301006 -1.440546,-1.905239 -0.492187,-0.573611 -0.943618,-1.218557 -1.579954,-1.626423 -0.44958,-0.288162 -1.003528,-0.365897 -1.51025,-0.534396 -0.469545,-0.156136 -0.929771,-0.356866 -1.417311,-0.441458 -1.466397,-0.254431 -2.97844,-0.315999 -4.461047,-0.185877 z"
     id="path15"
     sodipodi:nodetypes="sssssccssccssscscscccccccscsccsssssssss" /><path
     style="opacity:1;fill:#e1252b;fill-opacity:1;stroke:#ac1c20;stroke-width:0.5;stroke-linecap:butt;stroke-linejoin:miter;stroke-opacity:1;stroke-dasharray:none"
     d="m 29.137694,21.350714 c -1.115261,0.511162 -2.830338,0.381151 -4.042823,1.068793 -0.790828,0.448506 -1.507511,1.111981 -1.951707,1.905238 -0.341483,0.609829 -0.464693,1.161731 -0.464693,2.044646 0,0.882916 0.557631,3.717539 0.557631,3.717539 l 0.02323,0.929384 -0.627335,-1.347607 -1.068792,-0.929385 -1.022323,-0.04647 -0.371754,0.139407 c -0.515034,0.474364 -0.546876,2.344401 0.185877,3.485193 l 1.115261,1.394077 c 0.164901,0.516648 0.70457,0.658527 1.161731,0.882915 l 0.371754,1.068792 c 0.951256,0.991311 1.901886,1.98795 2.974031,1.951708 l 4.414577,4.042823 2.927561,-3.159908 c 0,0 0.04647,-0.55763 0.464692,-0.418223 0.418223,0.139408 1.548809,-0.775613 2.230523,-1.301138 0.451078,-0.347731 0.862486,-0.755574 1.2082,-1.2082 0.303211,-0.396979 0.529014,-0.850005 0.743508,-1.301139 0.539415,-1.134523 3.083002,-1.900854 1.693387,-3.54688 -0.117525,-0.13921 -0.2458,-0.471859 -0.599155,-0.67856 -0.590668,-0.345521 -0.257782,-1.443806 -0.257782,-1.443806 l -0.371754,-2.184054 c -0.07732,-0.454256 -0.621643,-1.264602 -1.254669,-2.137584 -1.099705,-1.516561 -2.551415,-2.418286 -2.788154,-2.509339 0,0 -1.171677,-0.604711 -1.8123,-0.697038 -1.138242,-0.164044 -2.171572,-0.301962 -3.438722,0.278816 z"
     id="path14"
     sodipodi:nodetypes="sssscccccccccccccsssssscsssss" /><path
     style="opacity:1;fill:#2c3342;fill-opacity:1;stroke:none;stroke-width:1px;stroke-linecap:butt;stroke-linejoin:miter;stroke-opacity:1"
     d="m 27.371864,20.281922 c -0.008,0.717772 0.03393,1.41891 0.30205,2.044646 l 2.927561,0.464692 2.067881,-1.092026 c -0.05368,-0.720273 -0.09182,-1.440547 -0.325285,-2.16082 -0.257388,-0.686001 -1.194775,-0.862004 -1.905238,-1.2082 l -0.999089,-0.09294 -1.184965,0.882915 -0.580866,0.685421 z"
     id="path16"
     sodipodi:nodetypes="cccccccccc" /><path
     style="fill:#e1252b;fill-opacity:1;stroke:#921418;stroke-width:0.5;stroke-linecap:butt;stroke-linejoin:miter;stroke-dasharray:none;stroke-opacity:1"
     d="m 41.220678,37.954328 3.293274,-1.550206 0.34375,-1.90625 c 0,0 0.269225,-0.349112 0.300475,-0.192862 0.03125,0.15625 0.736137,4.84218 0.736137,4.84218 l -4.579886,2.588388 z"
     id="path26"
     sodipodi:nodetypes="cccsccc" /><path
     style="opacity:1;fill:#5a72a2;fill-opacity:1;stroke:#4a648f;stroke-width:0.5;stroke-linecap:butt;stroke-linejoin:miter;stroke-opacity:1;stroke-dasharray:none"
     d="m 26.256602,37.986699 c -0.697038,0.418223 -2.044646,0.975854 -2.044646,0.975854 l -1.2082,0.697038 -1.394077,0.789977 -4.786331,0.278816 0.185877,4.646923 0.882916,2.462869 1.533484,2.276992 c 0,0 4.600454,-4.925738 4.646923,-4.739861 0.04647,0.185877 1.626423,-0.232347 1.626423,-0.232347 l 0.115363,0.09294 c -0.0893,2.24807 -0.624671,4.294297 -1.47011,6.30971 3.928776,0.360307 7.929697,0.98515 11.262435,-0.840016 -0.870867,-1.913797 -2.07654,-3.713617 -1.636165,-6.073794 l 3.206377,1.626423 5.669246,1.068792 -0.743507,-3.438723 -0.232346,-7.295669 -3.113439,1.858769 -3.996354,-0.371754 -2.947123,-0.03221 -1.25121,2.048142 -1.310984,-2.076144 z"
     id="path17"
     sodipodi:nodetypes="ccccccccsccccccccccccccc" /><path
     style="opacity:1;fill:#ebd43d;fill-opacity:1;stroke:none;stroke-width:1px;stroke-linecap:butt;stroke-linejoin:miter;stroke-opacity:1"
     d="m 33.982112,29.192397 c 0.09812,0.396635 0.244236,0.752125 0.55763,0.964237 l 1.289522,-0.03485 c 0.385003,-0.509795 0.564114,-1.022426 0.685421,-1.579954 -0.151025,0.02323 -2.648746,0.511161 -2.648746,0.511161 z"
     id="path20"
     sodipodi:nodetypes="cccccc" /><path
     style="opacity:1;fill:#ac1c20;fill-opacity:1;stroke:none;stroke-width:1px;stroke-linecap:butt;stroke-linejoin:miter;stroke-opacity:1"
     d="m 32.69259,30.04046 -0.85968,-0.0697 0.789977,0.813211 1.905238,-0.0697 1.556719,-0.371754 1.440546,-0.394988 0.627335,-0.255581 c 0,0 0.713971,0.198803 0.975854,0.441458 0.272038,0.252065 0.511015,0.605726 0.534396,0.975854 0.03201,0.506678 -0.227876,1.031294 -0.557631,1.417311 -0.396866,0.464578 -0.994238,0.755399 -1.579954,0.929385 -0.973596,0.289205 -2.030231,0.205288 -3.043734,0.139408 -0.486654,-0.03163 -1.440546,-0.255581 -1.440546,-0.255581 l -1.649658,-0.255581 3.392254,1.2082 h 2.160819 l 1.626423,-0.511161 c 0,0 1.074317,-0.619021 1.487016,-1.068793 0.286465,-0.312197 0.538107,-0.683516 0.650569,-1.092027 0.09251,-0.336018 0.09303,-0.709684 0,-1.045557 -0.09644,-0.348171 -0.441458,-0.859681 -0.557631,-0.929385 -0.116173,-0.0697 -1.068792,-0.487927 -1.068792,-0.487927 l -1.138496,0.116173 -1.092027,0.232346 -1.51025,0.464693 c 0,0 -1.082403,0.102559 -1.366856,0.124145 -0.262117,0.01989 -1.281891,-0.05444 -1.281891,-0.05444 z"
     id="path18"
     sodipodi:nodetypes="cccccccssssscccccssssccccscc" /><path
     style="opacity:1;fill:#ebd43d;fill-opacity:1;stroke:none;stroke-width:1px;stroke-linecap:butt;stroke-linejoin:miter;stroke-opacity:1"
     d="m 26.328882,27.795414 c 0.367726,0.870514 0.345305,1.858073 1.26506,2.562979 l 0.525739,0.197153 0.295729,0.03286 c 0,0 0.538733,-0.174327 0.739321,-0.361445 0.29604,-0.276159 0.607886,-1.051479 0.607886,-1.051479 L 28.66185,28.649743 Z"
     id="path19"
     sodipodi:nodetypes="ccccsccc" /><path
     style="opacity:1;fill:#313131;fill-opacity:1;stroke:none;stroke-width:1px;stroke-linecap:butt;stroke-linejoin:miter;stroke-opacity:1"
     d="M 27.267308,26.171897 C 27.104665,26.078957 26.460145,25.60093 26.175281,25.20766 25.962605,24.91405 25.74544,24.208572 25.74544,24.208572 l -0.232346,-0.232346 c 0,0 -0.141618,0.677979 -0.151025,1.022323 -0.0069,0.252684 0.02183,0.50692 0.0697,0.755125 0.0283,0.146774 0.127791,0.42984 0.127791,0.42984 L 24.816052,25.98602 c 0,0 0.01046,0.267783 0.0697,0.383371 0.277304,0.541062 1.266286,1.312756 1.266286,1.312756 l 1.579954,0.90615 0.220729,0.0697 c 0,0 -0.127385,0.137683 -0.17426,0.383371 -0.0087,0.04565 0.05381,0.526037 0.220729,0.708656 0.130029,0.142256 0.341721,0.216154 0.534396,0.220729 0.217968,0.0052 0.444548,-0.08568 0.615718,-0.220729 0.09444,-0.07451 0.163149,-0.186762 0.197494,-0.30205 0.03317,-0.111337 0,-0.348519 0,-0.348519 l 0.859681,0.12779 c 0,0 0.4362,-0.01957 0.615717,-0.12779 0.09894,-0.05964 0.199273,-0.153683 0.220729,-0.267199 0.04617,-0.244266 -0.09797,-0.499514 -0.232346,-0.708655 -0.111102,-0.172915 -0.291766,-0.290856 -0.453075,-0.418223 -0.512508,-0.404667 -1.1179,-0.682364 -1.626423,-1.092027 -0.313523,-0.252572 -0.630008,-0.514161 -0.871299,-0.836446 -0.130794,-0.174698 -0.30205,-0.580866 -0.30205,-0.580866 l -0.04647,-0.336902 c 0,0 -0.221245,0.184235 -0.267198,0.313668 -0.111454,0.313923 0.02324,0.999092 0.02324,0.999092 z"
     id="path21"
     sodipodi:nodetypes="csccssccscccsssssccssssssccscc" /><path
     style="opacity:1;fill:#313131;fill-opacity:1;stroke:none;stroke-width:1px;stroke-linecap:butt;stroke-linejoin:miter;stroke-opacity:1"
     d="m 37.505532,23.910588 -0.90598,1.513651 c 0,0 -0.671238,0.698438 -1.071709,0.994369 -0.340516,0.251626 -1.082757,0.651864 -1.082757,0.651864 0,0 -0.558208,0.230749 -0.76235,0.441942 -0.206122,0.213241 -0.420586,0.487869 -0.419844,0.784446 7.55e-4,0.301566 0.430893,0.795495 0.430893,0.795495 l 0.751301,-0.05524 c 0,0 -0.01524,0.337469 0.07734,0.464038 0.105019,0.143577 0.298021,0.226011 0.475087,0.243068 0.198398,0.01911 0.464039,-0.121534 0.574524,-0.165728 0.110486,-0.04419 0.231677,-0.243938 0.287262,-0.397747 0.0552,-0.152753 0.03315,-0.486136 0.03315,-0.486136 0,0 0.499407,-0.09558 0.729204,-0.198874 0.497519,-0.223639 1.370019,-0.894932 1.370019,-0.894932 l 0.430894,-0.441942 0.287262,-0.45299 -1.149049,0.220971 c 0,0 0.349207,-0.506203 0.519282,-0.76235 0.0825,-0.124249 0.243068,-0.37565 0.243068,-0.37565 l -0.03315,-0.265165 -0.861786,0.563476 c 0,0 0.225464,-0.646141 0.243068,-0.983321 0.02094,-0.40102 -0.165729,-1.193245 -0.165729,-1.193245 z"
     id="path22"
     sodipodi:nodetypes="ccscssccsssscsccccscccsc" /><path
     style="opacity:1;fill:#2c3342;fill-opacity:1;stroke:none;stroke-width:1px;stroke-linecap:butt;stroke-linejoin:miter;stroke-opacity:1"
     d="m 27.838057,33.754841 c -0.386359,0.06982 -0.950175,0.696058 -0.950175,0.696058 0,0 -0.287262,0.795495 -0.06629,0.817592 0.220971,0.0221 1.508907,-0.385685 2.276,-0.353553 0.249889,0.01047 0.490533,0.102008 0.729204,0.176776 0.467301,0.146391 0.88275,0.481657 1.370019,0.530331 0.475948,0.04754 1.303728,-0.243068 1.414214,-0.243068 0.110485,0 1.480505,-0.486136 1.480505,-0.486136 l 0.353553,0.419844 c 0,0 0.35941,0.320521 0.435699,0.365158 0.172498,0.10093 0.53281,-0.290124 0.470281,-0.365158 0.04163,-0.04163 -0.682506,-0.996871 -0.817592,-0.950174 -0.08354,0.02888 -0.826568,0.230208 -1.237437,0.353553 -0.399383,0.119897 -0.724651,0.207813 -1.138555,0.258463 -0.476124,0.05826 -0.976201,0.04721 -1.436311,-0.08839 -0.591543,-0.174336 -1.4689,-0.766696 -1.667774,-0.788793 0,0 -0.801156,-0.417348 -1.215341,-0.342503 z"
     id="path23"
     sodipodi:nodetypes="scsssssccscsssscs" /><path
     style="fill:#2c3342;fill-opacity:1;stroke:none;stroke-width:1px;stroke-linecap:butt;stroke-linejoin:miter;stroke-opacity:1"
     d="m 24.920202,51.529122 -0.884153,3.205806 c 0,0 10.762238,0.03093 12.007257,-0.01641 -0.125,-0.3125 -1.310604,-3.626896 -1.310604,-3.626896 l -4.5,0.75 z"
     id="path24"
     sodipodi:nodetypes="cccccc" /><path
     style="fill:#b09981;fill-opacity:1;stroke:none;stroke-width:1px;stroke-linecap:butt;stroke-linejoin:miter;stroke-opacity:1"
     d="m 25.897786,47.272078 c 0,0.220971 7.977048,-0.331457 7.977048,-0.331457 l 0.243068,0.905982 -8.485281,0.508232 z"
     id="path27"
     sodipodi:nodetypes="ccccc" /><path
     style="fill:#49638e;fill-opacity:1;stroke:none;stroke-width:1px;stroke-linecap:butt;stroke-linejoin:miter;stroke-opacity:1"
     d="m 28.814602,41.438447 2.872621,5.038136 0.667484,0.38708 -3.05397,-5.867158 z"
     id="path33"
     sodipodi:nodetypes="ccccc" /><path
     style="fill:#373334;fill-opacity:1;stroke:none;stroke-width:1px;stroke-linecap:butt;stroke-linejoin:miter;stroke-opacity:1"
     d="m 27.289902,37.770331 c 0,0 0.393,5.276857 0.243068,7.910757 -0.09306,1.634859 -0.707106,4.861359 -0.707106,4.861359 l 3.623922,-0.176781 -0.662913,-2.563262 -0.397748,-5.480078 -0.309359,-4.463611 z"
     id="path28"
     sodipodi:nodetypes="cscccccc" /><path
     style="fill:#49638e;fill-opacity:1;stroke:none;stroke-width:1px;stroke-linecap:butt;stroke-linejoin:miter;stroke-opacity:1"
     d="m 34.604038,38.742602 c 0,0 -0.53033,5.259107 -0.707107,5.259107 -0.176777,0 -0.220971,-2.474874 -0.220971,-2.474874 z"
     id="path31"
     sodipodi:nodetypes="cscc" /><path
     style="fill:#49638e;stroke:none;stroke-width:1px;stroke-linecap:butt;stroke-linejoin:miter;stroke-opacity:1;fill-opacity:1"
     d="m 30.405592,40.068428 2.695844,5.08233 -2.209709,-5.524272 z"
     id="path32" /><path
     style="fill:#373334;fill-opacity:1;stroke:none;stroke-width:1px;stroke-linecap:butt;stroke-linejoin:miter;stroke-opacity:1"
     d="m 32.018678,37.748234 c 0,0 0.266289,5.288598 0.198874,7.932854 -0.03954,1.550775 -0.353553,4.640388 -0.353553,4.640388 l 3.756505,-0.530334 c 0,0 -0.924123,-1.256916 -1.149049,-1.988738 -0.538071,-1.750675 -0.397748,-5.480078 -0.397748,-5.480078 l -0.220971,-4.463611 z"
     id="path29"
     sodipodi:nodetypes="csccsccc" /><path
     style="fill:#49638e;fill-opacity:1;stroke:none;stroke-width:1px;stroke-linecap:butt;stroke-linejoin:miter;stroke-opacity:1"
     d="m 25.190679,39.14035 c 0,0 0.53033,5.259107 0.707107,5.259107 0.176777,0 0.220971,-2.474874 0.220971,-2.474874 z"
     id="path30"
     sodipodi:nodetypes="cscc" /></svg>
