<?xml version="1.0" encoding="UTF-8" standalone="no"?>
<svg
   width="60"
   height="60"
   version="1.1"
   id="svg2"
   sodipodi:docname="0K-BlackKing.svg"
   inkscape:version="1.3 (0e150ed6c4, 2023-07-21)"
   xml:space="preserve"
   xmlns:inkscape="http://www.inkscape.org/namespaces/inkscape"
   xmlns:sodipodi="http://sodipodi.sourceforge.net/DTD/sodipodi-0.dtd"
   xmlns="http://www.w3.org/2000/svg"
   xmlns:svg="http://www.w3.org/2000/svg"><sodipodi:namedview
     id="namedview2"
     pagecolor="#ffffff"
     bordercolor="#666666"
     borderopacity="1.0"
     inkscape:showpageshadow="2"
     inkscape:pageopacity="0.0"
     inkscape:pagecheckerboard="0"
     inkscape:deskcolor="#d1d1d1"
     inkscape:zoom="21.519617"
     inkscape:cx="45.028683"
     inkscape:cy="30.065591"
     inkscape:window-width="3840"
     inkscape:window-height="2054"
     inkscape:window-x="-11"
     inkscape:window-y="-11"
     inkscape:window-maximized="1"
     inkscape:current-layer="svg2"
     showguides="false" /><defs
     id="defs1"><filter
       id="0GY_svg__a"
       x="-0.12844163"
       y="-0.10543263"
       width="1.304515"
       height="1.2500988"><feGaussianBlur
         in="SourceAlpha"
         result="blur"
         stdDeviation="2"
         id="feGaussianBlur1" /><feOffset
         dx="2"
         dy="2"
         result="offsetBlur"
         id="feOffset1" /><feBlend
         in="SourceGraphic"
         in2="offsetBlur"
         id="feBlend1" /></filter></defs><g
     fill="#f9f9f9"
     filter="url(#0GY_svg__a)"
     id="g1"
     style="fill:#e9dbc9;fill-opacity:1"><path
       fill="#cdbc68"
       d="m29.918 4.769-13.48 3.788L9.035 55.23h41.93l-7.13-46.371z"
       id="path1"
       style="stroke:#333333;fill:#e9dbc9;fill-opacity:1" /></g><path
     id="ellipse8"
     style="opacity:1;fill:#fceee3;fill-opacity:1;stroke:#313131;stroke-width:0.7;stroke-linecap:round;stroke-linejoin:round;stroke-dasharray:none;stroke-opacity:1"
     d="m 30,23.010202 c -4.809727,0.01317 -8.955392,3.570084 -9.943359,8.53125 -1.634927,0.205749 -2.864869,1.639284 -2.867188,3.341797 8.5e-5,1.86199 1.460446,3.371321 3.261719,3.371094 0.09922,-0.0025 0.198284,-0.0097 0.296875,-0.02148 1.661449,3.808962 5.274373,6.250372 9.251953,6.251948 3.978718,-0.0011 7.592707,-2.443503 9.253906,-6.253906 0.108924,0.01351 0.218438,0.02134 0.328125,0.02344 1.801273,2.27e-4 3.261634,-1.509104 3.261719,-3.371094 -0.0033,-1.714914 -1.251585,-3.153964 -2.900391,-3.34375 C 38.954633,26.579111 34.809164,23.023175 30,23.010202 Z"
     sodipodi:nodetypes="ccccccccccc" /><path
     style="fill:#313131;fill-opacity:1;stroke:none;stroke-width:1px;stroke-linecap:butt;stroke-linejoin:miter;stroke-opacity:1"
     d="m 20.536692,35.158818 c -0.542836,-2.475511 -1.105777,-4.969451 -0.624316,-6.506024 0,0 19.067261,-0.512066 19.288061,-0.394305 0.492877,0.26287 1.54436,2.694414 1.248631,3.713034 -0.295728,1.018619 -1.589437,4.737525 -1.610076,4.403067 -0.01675,-0.27149 -0.359934,-5.968694 -1.445784,-6.998905 -1.765409,-1.674949 -14.950711,0.657174 -14.950711,0.657174 -0.656473,1.263346 -1.332528,2.115485 -1.905805,5.125959 z"
     id="path18"
     sodipodi:nodetypes="ccsssscc" /><path
     style="fill:#434c55;fill-opacity:1;stroke:#272c32;stroke-width:0.7;stroke-linecap:butt;stroke-linejoin:miter;stroke-dasharray:none;stroke-opacity:1"
     d="m 19.255165,27.716488 c 0.419947,-0.870334 0.810387,-1.136896 1.217387,-1.444297 -0.0055,-1.864474 7.168926,-15.355685 9.897463,-16.865981 2.284481,1.104065 8.85639,15.605545 9.010873,16.499542 0.439711,0.17224 0.673647,0.245455 1.267357,1.46576 -3.388935,1.997128 -7.0774,3.603871 -11.08797,4.910308 -3.786165,-0.873137 -7.200727,-1.919585 -10.30511,-4.565332 z"
     id="path4"
     sodipodi:nodetypes="ccccccc" /><path
     style="fill:#9b283a;fill-opacity:1;stroke:none;stroke-width:1px;stroke-linecap:butt;stroke-linejoin:miter;stroke-opacity:1"
     d="m 19.491506,54.688898 c -0.554569,-0.110914 2.858014,-10.318917 3.187129,-10.04863 0.162594,0.133532 1.438895,4.044475 1.438895,4.044475 z"
     id="path14"
     sodipodi:nodetypes="cscc" /><path
     style="fill:#9b283a;fill-opacity:1;stroke:none;stroke-width:1px;stroke-linecap:butt;stroke-linejoin:miter;stroke-opacity:1"
     d="m 40.518936,54.688898 c 0.554569,-0.110914 -3.153742,-10.680363 -3.482857,-10.410076 -0.162594,0.133532 -1.143167,4.405921 -1.143167,4.405921 z"
     id="path15"
     sodipodi:nodetypes="cscc" /><path
     style="fill:#434c55;fill-opacity:1;stroke:#313131;stroke-width:0.7;stroke-linecap:butt;stroke-linejoin:miter;stroke-dasharray:none;stroke-opacity:1"
     d="m 19.598509,55.001308 4.578356,-6.277924 c 0,0 -1.800854,-6.308787 -1.689826,-6.013348 0.364284,0.969317 14.832679,0.88985 14.723019,-0.106087 l -1.59283,6.106905 5.13804,6.286116 z"
     id="path5"
     sodipodi:nodetypes="ccscccc" /><path
     style="fill:#434c55;fill-opacity:1;stroke:#313131;stroke-width:0.7;stroke-linecap:butt;stroke-linejoin:miter;stroke-dasharray:none;stroke-opacity:1"
     d="m 12.035531,55.027792 c 4.210948,-3.574712 3.133064,-9.009738 10.269699,-10.594983 -2.225226,7.588125 -1.586592,6.032829 -2.276992,10.641453 z"
     id="path12"
     sodipodi:nodetypes="cccc" /><ellipse
     style="opacity:1;fill:#313131;fill-opacity:1;stroke-width:0.0394283;stroke-linecap:round;stroke-linejoin:round;stroke:#313131;stroke-opacity:1"
     id="path6"
     cx="12.209496"
     cy="41.296249"
     rx="1.4840846"
     ry="2.1253555"
     transform="rotate(-18.418224)" /><ellipse
     style="opacity:1;fill:#313131;fill-opacity:1;stroke-width:0.0394283;stroke-linecap:round;stroke-linejoin:round;stroke:#313131;stroke-opacity:1"
     id="ellipse6"
     cx="-43.986958"
     cy="22.582331"
     rx="1.4840846"
     ry="2.1253555"
     transform="matrix(-0.94877557,-0.31595083,-0.31595083,0.94877557,0,0)" /><path
     style="fill:none;stroke:#999999;stroke-width:0.5;stroke-linecap:round;stroke-linejoin:miter;stroke-dasharray:none;stroke-opacity:1"
     d="m 20.899715,26.567919 8.593332,4.101559 9.526395,-4.352992"
     id="path7"
     sodipodi:nodetypes="ccc" /><path
     style="fill:none;stroke:#999999;stroke-width:0.5;stroke-linecap:round;stroke-linejoin:miter;stroke-dasharray:none;stroke-opacity:1"
     d="M 30.252433,10.090363 C 28.980087,18.43089 29.250739,21.640467 29.493047,30.669478"
     id="path8"
     sodipodi:nodetypes="cc" /><path
     style="fill:none;stroke:#313131;stroke-width:1px;stroke-linecap:round;stroke-linejoin:miter;stroke-opacity:1"
     d="m 22.189057,32.25537 c 0.698886,-0.173259 1.319479,-1.951223 5.320726,1.905237"
     id="path10"
     sodipodi:nodetypes="cc" /><path
     style="fill:none;stroke:#313131;stroke-width:1px;stroke-linecap:round;stroke-linejoin:miter;stroke-opacity:1"
     d="M 37.005949,32.25537 C 36.307063,32.082111 35.68647,30.304147 31.685223,34.160607"
     id="path11"
     sodipodi:nodetypes="cc" /><path
     style="fill:none;stroke:#c3c3c3;stroke-width:1px;stroke-linecap:butt;stroke-linejoin:miter;stroke-opacity:0.8"
     d="m 24.210468,45.495797 c 3.794987,1.045979 7.589974,0.570701 11.384961,-0.09294"
     id="path13"
     sodipodi:nodetypes="cc" /><path
     style="fill:#434c55;fill-opacity:1;stroke:#313131;stroke-width:0.7;stroke-linecap:butt;stroke-linejoin:miter;stroke-dasharray:none;stroke-opacity:1"
     d="M 47.688155,55.027792 C 43.477207,51.45308 44.555091,46.018054 37.418456,44.432809 c 2.225226,7.588125 1.586592,6.032829 2.276992,10.641453 z"
     id="path16"
     sodipodi:nodetypes="cccc" /><path
     style="fill:none;stroke:#313131;stroke-width:1px;stroke-linecap:butt;stroke-linejoin:miter;stroke-opacity:1"
     d="m 27.688253,40.614359 c 1.929212,-0.653838 2.116027,-0.704114 3.956724,-0.197152"
     id="path17"
     sodipodi:nodetypes="cc" /></svg>
