<?xml version="1.0" encoding="UTF-8" standalone="no"?>
<svg
   viewBox="0 0 60 60"
   version="1.1"
   id="svg12"
   sodipodi:docname="0N-Nurikabe.svg"
   inkscape:version="1.3 (0e150ed6c4, 2023-07-21)"
   xmlns:inkscape="http://www.inkscape.org/namespaces/inkscape"
   xmlns:sodipodi="http://sodipodi.sourceforge.net/DTD/sodipodi-0.dtd"
   xmlns="http://www.w3.org/2000/svg"
   xmlns:svg="http://www.w3.org/2000/svg">
  <sodipodi:namedview
     id="namedview12"
     pagecolor="#ffffff"
     bordercolor="#666666"
     borderopacity="1.0"
     inkscape:showpageshadow="2"
     inkscape:pageopacity="0.0"
     inkscape:pagecheckerboard="0"
     inkscape:deskcolor="#d1d1d1"
     inkscape:zoom="5.3799041"
     inkscape:cx="-148.05097"
     inkscape:cy="8.1785845"
     inkscape:window-width="3840"
     inkscape:window-height="2054"
     inkscape:window-x="-11"
     inkscape:window-y="-11"
     inkscape:window-maximized="1"
     inkscape:current-layer="svg12" />
  <defs
     id="defs1">
    <filter
       id="0KI_svg__a"
       x="-0.13506518"
       y="-0.11085473"
       width="1.3201415"
       height="1.2628989">
      <feGaussianBlur
         in="SourceAlpha"
         result="blur"
         stdDeviation="2"
         id="feGaussianBlur1" />
      <feOffset
         dx="2"
         dy="2"
         result="offsetBlur"
         id="feOffset1" />
      <feBlend
         in="SourceGraphic"
         in2="offsetBlur"
         id="feBlend1" />
    </filter>
  </defs>
  <g
     fill="#f0c000"
     filter="url(#0KI_svg__a)"
     transform="translate(40.733 .148)scale(.98631)"
     id="g1"
     style="fill:#e9dbc9;fill-opacity:1">
    <path
       fill="#cdbc68"
       d="m -10.96,7.7885391 -12.838,3.6079999 -7.051,44.45 H 9.085 l -6.79,-44.163 z"
       id="path1"
       style="fill:#b3b3b3;fill-opacity:1;stroke:#333333;stroke-width:1.01388;stroke-dasharray:none" />
  </g>
  <path
     style="fill:none;stroke:#000000;stroke-width:1.9877;stroke-linecap:round;stroke-linejoin:miter;stroke-dasharray:none;stroke-opacity:1"
     d="m 18.109341,41.400968 c -2.694456,4.081179 -0.131244,5.505421 2.146971,5.18178 3.531653,-0.501701 8.478519,-3.999127 9.973217,-3.999127 1.5507,0 6.301739,3.507202 9.745132,3.749745 2.365564,0.166624 4.417077,-1.13187 1.961867,-4.932398"
     id="path2"
     sodipodi:nodetypes="csssc" />
  <circle
     style="fill:#f9f9f9;stroke:none;stroke-width:0.427741;stroke-linecap:square;stroke-linejoin:round;paint-order:stroke fill markers"
     id="path2-5"
     cx="22.32222"
     cy="30.314806"
     r="5.4462404" />
  <circle
     style="fill:#000000;stroke:none;stroke-width:0.427741;stroke-linecap:square;stroke-linejoin:round;paint-order:stroke fill markers"
     id="path3"
     cx="22.131821"
     cy="31.776527"
     r="3.0610259" />
  <circle
     style="fill:#f9f9f9;stroke:none;stroke-width:0.427741;stroke-linecap:square;stroke-linejoin:round;paint-order:stroke fill markers"
     id="circle3"
     cx="37.67778"
     cy="30.314806"
     r="5.4462404" />
  <circle
     style="fill:#000000;stroke:none;stroke-width:0.427741;stroke-linecap:square;stroke-linejoin:round;paint-order:stroke fill markers"
     id="circle4"
     cx="37.487381"
     cy="31.776527"
     r="3.0610259" />
  <circle
     style="fill:#f9f9f9;stroke:none;stroke-width:0.427741;stroke-linecap:square;stroke-linejoin:round;paint-order:stroke fill markers"
     id="circle5"
     cx="30.06572"
     cy="21.508673"
     r="5.4462404" />
  <circle
     style="fill:#000000;stroke:none;stroke-width:0.427741;stroke-linecap:square;stroke-linejoin:round;paint-order:stroke fill markers"
     id="circle6"
     cx="29.87532"
     cy="22.970394"
     r="3.0610259" />
  <path
     style="fill:#b2b2b2;fill-opacity:1;stroke:#313131;stroke-width:1px;stroke-linecap:butt;stroke-linejoin:miter;stroke-opacity:1"
     d="m 17.011644,11.486124 c -0.650569,-0.185877 -4.216735,-1.7143816 -5.58428,0.13804 -3.497856,4.738055 -2.7860559,9.196328 -2.826651,14.360359 -0.4945923,2.680551 3.542022,-0.464734 6.505693,-2.230522 z"
     id="path7"
     sodipodi:nodetypes="csccc" />
  <path
     style="fill:#b2b2b2;fill-opacity:1;stroke:#313131;stroke-width:1px;stroke-linecap:butt;stroke-linejoin:miter;stroke-opacity:1"
     d="m 42.988357,11.486124 c 0.650569,-0.185877 4.216735,-1.7143816 5.58428,0.13804 3.497855,4.738055 2.786055,9.196328 2.82665,14.360359 0.494593,2.680551 -3.542021,-0.464734 -6.505692,-2.230522 z"
     id="path8"
     sodipodi:nodetypes="csccc" />
  <path
     style="fill:#000000;stroke:none;stroke-width:1px;stroke-linecap:butt;stroke-linejoin:miter;stroke-opacity:1"
     d="m 22.79727,46.616862 1.672892,2.602277 0.185877,-3.531662 z"
     id="path9" />
  <path
     style="fill:#000000;stroke:none;stroke-width:1px;stroke-linecap:butt;stroke-linejoin:miter;stroke-opacity:1"
     d="m 37.20273,46.616862 -1.67289,2.602277 -0.185877,-3.531662 z"
     id="path10" />
  <path
     style="fill:#b2b2b2;fill-opacity:1;stroke:#313131;stroke-width:1px;stroke-linecap:butt;stroke-linejoin:miter;stroke-opacity:1"
     d="m 14.03228,37.230077 -7.7603603,6.877446 c -3.165838,4.910682 -0.511514,10.182335 2.0446461,8.736215 L 11.05825,50.3344 13.102896,45.315723"
     id="path11"
     sodipodi:nodetypes="ccccc" />
  <path
     style="fill:#b2b2b2;fill-opacity:1;stroke:#313131;stroke-width:1px;stroke-linecap:butt;stroke-linejoin:miter;stroke-opacity:1"
     d="m 45.967719,37.230077 7.760361,6.877446 c 3.165838,4.910682 0.511514,10.182335 -2.044646,8.736215 L 48.941749,50.3344 46.897103,45.315723"
     id="path12"
     sodipodi:nodetypes="ccccc" />
</svg>
