<?xml version="1.0" encoding="UTF-8" standalone="no"?>
<svg
   viewBox="0 0 60 60"
   version="1.1"
   id="svg3"
   sodipodi:docname="0P+KasaObake.svg"
   inkscape:version="1.3 (0e150ed6c4, 2023-07-21)"
   xml:space="preserve"
   xmlns:inkscape="http://www.inkscape.org/namespaces/inkscape"
   xmlns:sodipodi="http://sodipodi.sourceforge.net/DTD/sodipodi-0.dtd"
   xmlns="http://www.w3.org/2000/svg"
   xmlns:svg="http://www.w3.org/2000/svg"><sodipodi:namedview
     id="namedview3"
     pagecolor="#ffffff"
     bordercolor="#666666"
     borderopacity="1.0"
     inkscape:showpageshadow="2"
     inkscape:pageopacity="0.0"
     inkscape:pagecheckerboard="0"
     inkscape:deskcolor="#d1d1d1"
     inkscape:zoom="5.379904"
     inkscape:cx="-100.00178"
     inkscape:cy="37.733015"
     inkscape:window-width="3840"
     inkscape:window-height="2054"
     inkscape:window-x="-11"
     inkscape:window-y="-11"
     inkscape:window-maximized="1"
     inkscape:current-layer="svg3" /><defs
     id="defs1"><filter
       id="0FU_svg__a"
       x="-0.13676307"
       y="-0.11210531"
       width="1.3235292"
       height="1.2653511"><feGaussianBlur
         in="SourceAlpha"
         result="blur"
         stdDeviation="2"
         id="feGaussianBlur1" /><feOffset
         dx="2"
         dy="2"
         result="offsetBlur"
         id="feOffset1" /><feBlend
         in="SourceGraphic"
         in2="offsetBlur"
         id="feBlend1" /></filter></defs><g
     filter="url(#0FU_svg__a)"
     transform="translate(39.633 3.208)scale(.88521)"
     id="g1"><path
       fill="#cebd6a"
       d="m -23.798,14.316976 -7.051,44.451 H 9.085 l -6.79,-44.163 c -4.418,-1.298 -8.839,-2.6 -13.255,-3.896 z"
       id="path1"
       style="fill:#e9dbc9;fill-opacity:1;stroke:#333333;stroke-width:1.12967544;stroke-dasharray:none"
       sodipodi:nodetypes="cccccc" /></g><path
     style="opacity:1;fill:#df222c;fill-opacity:1;stroke:#a3161d;stroke-width:0.5;stroke-linecap:butt;stroke-linejoin:miter;stroke-opacity:1;stroke-dasharray:none"
     d="m 28.632893,23.176 c -1.15256,-0.488581 -12.787571,23.239408 -11.6977,23.855422 l 4.173056,-1.01862 1.675794,2.562979 4.173056,-1.610076 2.267251,2.267251 3.351588,-2.102958 2.562979,3.088719 2.365827,-3.154436 3.745893,2.760131 c -1.603292,-9.247033 -3.241133,-18.486867 -6.900329,-27.305587 0,0 -1.905805,-3.055859 -2.135816,-2.760131 C 31.984481,20.054422 28.632893,23.176 28.632893,23.176 Z"
     id="path4"
     sodipodi:nodetypes="cccccccccccsc" /><path
     style="fill:#a3161d;fill-opacity:1;stroke:none;stroke-width:1px;stroke-linecap:butt;stroke-linejoin:miter;stroke-opacity:1"
     d="m 29.815807,23.537446 c 0,0 -3.210524,7.36376 -4.665937,11.106243 -1.294614,3.329001 -3.614458,10.087624 -3.614458,10.087624 0,0 2.807921,-6.955821 4.173056,-10.44907 1.395652,-3.571341 4.107339,-10.744797 4.107339,-10.744797 z"
     id="path5"
     sodipodi:nodetypes="cscsc" /><path
     style="fill:#a3161d;fill-opacity:1;stroke:none;stroke-width:1px;stroke-linecap:butt;stroke-linejoin:miter;stroke-opacity:1"
     d="m 31.042908,24.223459 c 0,0 -1.923541,7.799515 -2.727392,11.733752 -0.715039,3.49957 -1.862627,10.552491 -1.862627,10.552491 0,0 1.595449,-7.329557 2.352318,-11.002911 0.773789,-3.755472 2.237701,-11.283332 2.237701,-11.283332 z"
     id="path6"
     sodipodi:nodetypes="cscsc" /><path
     style="fill:#a3161d;fill-opacity:1;stroke:none;stroke-width:1px;stroke-linecap:butt;stroke-linejoin:miter;stroke-opacity:1"
     d="m 32.771103,23.6614 c 0,0 0.242491,8.029547 0.202097,12.044864 -0.03593,3.571691 -0.395276,10.708323 -0.395276,10.708323 0,0 -0.02042,-7.501162 0.01111,-11.251547 0.03224,-3.834225 0.182069,-11.50164 0.182069,-11.50164 z"
     id="path10"
     sodipodi:nodetypes="cscsc" /><path
     style="fill:#a3161d;fill-opacity:1;stroke:none;stroke-width:1px;stroke-linecap:butt;stroke-linejoin:miter;stroke-opacity:1"
     d="m 34.008067,23.884318 c 0,0 1.413509,7.906853 2.003231,11.878834 0.484934,3.266202 1.261765,9.82533 1.261765,9.82533 0,0 -1.20228,-6.8614 -1.722935,-10.304912 -0.573235,-3.791269 -1.542061,-11.399252 -1.542061,-11.399252 z"
     id="path11"
     sodipodi:nodetypes="cscsc" /><path
     style="fill:#313131;fill-opacity:1;stroke:none;stroke-width:1px;stroke-linecap:butt;stroke-linejoin:miter;stroke-opacity:1"
     d="m 30.670133,16.604258 c 0,0.460022 0.09858,2.464403 0.09858,2.464403 0,0 -3.739652,4.583869 -3.54874,4.633078 0.321427,0.08285 2.723892,-1.502802 2.562979,-1.511501 -0.19132,-0.01034 0.739321,2.431545 0.739321,2.431545 l 1.7908,-1.77437 c 0.41621,0.739379 0.947425,1.812029 1.363635,2.201533 0.418459,-0.616638 0.443378,-1.345417 0.607887,-2.004381 0,0 1.065843,1.280098 1.610077,1.905806 -0.431173,-2.517609 -1.770378,-5.576581 -2.168675,-5.421688 l 0.821468,-2.398686 c -1.207008,-0.346118 -2.4951,-0.530069 -3.877332,-0.525739 z"
     id="path12"
     sodipodi:nodetypes="ccsscccccccc" /><path
     style="fill:#f7d0be;fill-opacity:1;stroke:#313131;stroke-width:0.5;stroke-linecap:butt;stroke-linejoin:miter;stroke-dasharray:none;stroke-opacity:1"
     d="m 24.969147,50.284434 -0.164293,1.692224 c 0.492854,1.432408 0.760552,1.763717 1.642935,3.023001 l 4.123768,-0.04929 c 0.124609,-0.834555 -0.07552,-1.355982 -0.345016,-2.102958 l -0.805039,-1.117196 -0.01643,-1.363636 c 0,0 -3.253012,-0.952903 -3.31873,-0.903615 -0.06572,0.04929 -1.117196,0.821468 -1.117195,0.821468 z"
     id="path16"
     sodipodi:nodetypes="cccccccscc" /><path
     style="opacity:1;fill:#e8629b;fill-opacity:1;stroke:#d34e9c;stroke-width:0.5;stroke-linecap:butt;stroke-linejoin:miter;stroke-opacity:1;stroke-dasharray:none"
     d="m 27.230969,39.925293 c 0,0 -1.876234,1.785381 -2.486104,2.904327 -0.518323,0.950983 -0.792706,2.039033 -0.929384,3.113438 -0.132036,1.03791 -0.310742,2.181459 0.116173,3.136673 0.368766,0.825106 1.113629,1.543752 1.951707,1.882004 0.782835,0.315955 1.714163,0.207036 2.532573,0 0.947392,-0.239665 1.902215,-0.68917 2.579043,-1.394077 0.549364,-0.572155 0.828418,-1.374687 1.045557,-2.137585 0.276997,-0.973203 0.255581,-2.36993 0.30205,-3.0205 0.04647,-0.650569 0.0697,-3.833711 0.0697,-3.833711 -1.784258,-0.02635 -3.577557,-0.02256 -5.181315,-0.650569 z"
     id="path13"
     sodipodi:nodetypes="csssssssscc" /><path
     style="fill:#d34e9c;fill-opacity:1;stroke:none;stroke-width:1px;stroke-linecap:butt;stroke-linejoin:miter;stroke-opacity:1"
     d="m 29.175062,40.492539 c 0,0 -1.692224,3.943045 -1.725082,4.025192 -0.03286,0.08215 -0.607887,3.860898 -0.607887,3.860898 0,0 0.577609,-2.354184 0.969332,-3.499452 0.509488,-1.489574 1.7908,-4.370208 1.7908,-4.370208 z"
     id="path14"
     sodipodi:nodetypes="cscscc" /><path
     style="opacity:1;fill:#313131;fill-opacity:1;stroke:none;stroke-width:1px;stroke-linecap:butt;stroke-linejoin:miter;stroke-opacity:1"
     d="m 24.210469,37.067435 c 0.25545,1.820992 2.059208,3.251961 5.274258,3.6246 3.100878,0.359407 4.620192,-0.282851 6.714804,-1.742596 C 31.575915,40.9439 27.58543,40.223905 25.163088,38.2524 24.770019,37.932488 24.210469,37.067435 24.210469,37.067435 Z"
     id="path15"
     sodipodi:nodetypes="csssc" /><g
     id="g16"
     transform="matrix(0.6607543,0,0,0.6607543,10.753405,15.16874)"><circle
       style="fill:#f9f9f9;stroke:none;stroke-width:0.5;stroke-linecap:square;stroke-linejoin:round;paint-order:stroke fill markers"
       id="path2"
       cx="29.934408"
       cy="27.083605"
       r="6.3662844" /><circle
       style="fill:#000000;stroke:none;stroke-width:0.5;stroke-linecap:square;stroke-linejoin:round;paint-order:stroke fill markers"
       id="path3"
       cx="29.580408"
       cy="27.083605"
       r="3.5781307" /></g></svg>
