<?xml version="1.0" encoding="UTF-8" standalone="no"?>
<svg
   viewBox="0 0 60 60"
   version="1.1"
   id="svg23"
   sodipodi:docname="0R-RightKappa.svg"
   inkscape:version="1.3 (0e150ed6c4, 2023-07-21)"
   xml:space="preserve"
   xmlns:inkscape="http://www.inkscape.org/namespaces/inkscape"
   xmlns:sodipodi="http://sodipodi.sourceforge.net/DTD/sodipodi-0.dtd"
   xmlns="http://www.w3.org/2000/svg"
   xmlns:svg="http://www.w3.org/2000/svg"><sodipodi:namedview
     id="namedview23"
     pagecolor="#ffffff"
     bordercolor="#666666"
     borderopacity="1.0"
     inkscape:showpageshadow="2"
     inkscape:pageopacity="0.0"
     inkscape:pagecheckerboard="0"
     inkscape:deskcolor="#d1d1d1"
     inkscape:zoom="10.759808"
     inkscape:cx="-21.468785"
     inkscape:cy="51.023215"
     inkscape:window-width="3840"
     inkscape:window-height="2054"
     inkscape:window-x="-11"
     inkscape:window-y="-11"
     inkscape:window-maximized="1"
     inkscape:current-layer="svg23"
     showgrid="false" /><defs
     id="defs1"><filter
       id="0HI_svg__a"
       x="-0.1341634"
       y="-0.11018899"
       width="1.3183423"
       height="1.2615933"><feGaussianBlur
         in="SourceAlpha"
         result="blur"
         stdDeviation="2"
         id="feGaussianBlur1" /><feOffset
         dx="2"
         dy="2"
         result="offsetBlur"
         id="feOffset1" /><feBlend
         in="SourceGraphic"
         in2="offsetBlur"
         id="feBlend1" /></filter></defs><g
     fill="#fdc9dd"
     filter="url(#0HI_svg__a)"
     transform="matrix(1.05,0,0,1.05,41.426,-1.78)"
     id="g1"><path
       fill="#cdbc68"
       d="m -11.137026,6.4140256 -12.838,3.6080004 -7.051,44.45 H 8.9079744 l -6.79,-44.163 z"
       id="path1"
       style="fill:#e9dbc9;fill-opacity:1;stroke:#333333;stroke-width:0.952381;stroke-dasharray:none"
       sodipodi:nodetypes="cccccc" /></g><path
     style="fill:#76a556;fill-opacity:1;stroke:#3b522a;stroke-width:0.8;stroke-linecap:butt;stroke-linejoin:miter;stroke-dasharray:none;stroke-opacity:1"
     d="m 25.896274,38.751757 c 0,0 -0.375457,6.80837 0.599673,9.785969 0.716885,2.189042 3.386954,6.008921 3.386954,6.008921 L 41.366617,54.52892 30.673742,38.60462 Z"
     id="path2"
     sodipodi:nodetypes="cscccc" /><path
     style="fill:#fcf4ab;fill-opacity:1;stroke:none;stroke-width:0.8427px;stroke-linecap:butt;stroke-linejoin:miter;stroke-opacity:1"
     d="m 26.336807,42.268323 c 0,0 4.102902,2.82604 4.604207,4.698395 0.437623,1.63452 -1.933552,5.527512 -1.933552,5.527512 0,0 -1.829577,-3.000047 -2.327545,-4.603873 -0.542024,-1.745704 -0.34311,-5.622034 -0.34311,-5.622034 z"
     id="path3"
     sodipodi:nodetypes="cscsc" /><path
     style="fill:#76a556;fill-opacity:1;stroke:#3b522a;stroke-width:0.8;stroke-linecap:butt;stroke-linejoin:miter;stroke-dasharray:none;stroke-opacity:1"
     d="m 25.974594,38.68294 -3.367732,-1.879663 -5.384436,-4.722381 -0.646131,0.763613 -0.93983,-0.411176 c 0,0 0.0979,1.311847 -0.137057,1.331427 -0.234961,0.01958 -1.037734,0.254537 -1.037734,0.254537 0,0 0.97899,1.448906 0.822357,1.488065 -0.156641,0.03916 -0.665716,1.174789 -0.665716,1.174789 l 1.351008,0.587394 c 1.812386,1.437494 7.403165,4.400933 9.789886,5.368516 z"
     id="path4"
     sodipodi:nodetypes="cccccscscccc" /><path
     style="fill:#76a556;fill-opacity:1;stroke:#3b522a;stroke-width:0.8;stroke-linecap:butt;stroke-linejoin:miter;stroke-dasharray:none;stroke-opacity:1"
     d="m 32.11009,43.20895 c -1.944869,3.054761 -8.461171,7.629882 -11.985258,6.410919 0,0 0.671623,0.891553 0.520595,0.933089 -0.151029,0.04154 -1.133676,0.677292 -0.676798,0.714101 0.45687,0.03681 1.039757,0.384177 0.940639,0.614502 -0.09911,0.230325 -0.404943,0.964246 -0.152436,0.99634 0.252506,0.03209 1.061473,0.09391 0.982655,0.176507 -0.07879,0.08259 0.09298,0.928845 0.09298,0.928845 3.918941,-0.323121 10.127848,-3.93063 10.975704,-7.128309"
     id="path5"
     sodipodi:nodetypes="ccssssscc" /><path
     style="fill:#3b522b;fill-opacity:1;stroke:#313131;stroke-width:0.8;stroke-linecap:butt;stroke-linejoin:miter;stroke-dasharray:none;stroke-opacity:1"
     d="m 32.931141,38.905926 8.860813,13.180455 c 0,0 3.108114,-3.040498 3.599703,-5.250451 0.565291,-2.541273 0.147102,-5.388333 -0.941465,-7.753209 -0.628266,-1.364882 -3.045905,-3.831879 -3.045905,-3.831879 0,0 -1.772156,-1.716782 -2.215197,-1.550642 -0.443041,0.166141 -6.257949,5.205726 -6.257949,5.205726 z"
     id="path6"
     sodipodi:nodetypes="ccsscsc" /><path
     style="fill:none;stroke:#313131;stroke-width:0.42135;stroke-linecap:butt;stroke-linejoin:miter;stroke-dasharray:none;stroke-opacity:1"
     d="m 36.273576,43.871588 1.997131,-9.633265"
     id="path7"
     sodipodi:nodetypes="cc" /><path
     style="fill:none;stroke:#313131;stroke-width:0.42135;stroke-linecap:butt;stroke-linejoin:miter;stroke-dasharray:none;stroke-opacity:1"
     d="M 38.740631,47.435114 41.442638,35.256473"
     id="path8"
     sodipodi:nodetypes="cc" /><path
     style="fill:none;stroke:#313131;stroke-width:0.42135;stroke-linecap:butt;stroke-linejoin:miter;stroke-dasharray:none;stroke-opacity:1"
     d="M 41.129365,51.448975 44.105486,38.017226"
     id="path9"
     sodipodi:nodetypes="cc" /><path
     style="fill:none;stroke:#313131;stroke-width:0.42135;stroke-linecap:butt;stroke-linejoin:miter;stroke-dasharray:none;stroke-opacity:1"
     d="M 34.237267,40.621341 45.63272,44.831"
     id="path10"
     sodipodi:nodetypes="cc" /><path
     style="fill:none;stroke:#313131;stroke-width:0.42135;stroke-linecap:butt;stroke-linejoin:miter;stroke-dasharray:none;stroke-opacity:1"
     d="m 35.059616,36.999077 10.181501,3.935541"
     id="path11"
     sodipodi:nodetypes="cc" /><path
     style="fill:none;stroke:#313131;stroke-width:0.42135;stroke-linecap:butt;stroke-linejoin:miter;stroke-dasharray:none;stroke-opacity:1"
     d="m 37.820368,46.299486 6.989994,2.564955"
     id="path12"
     sodipodi:nodetypes="cc" /><path
     style="fill:#faf4aa;fill-opacity:1;stroke:#313131;stroke-width:0.7;stroke-linecap:butt;stroke-linejoin:miter;stroke-dasharray:none;stroke-opacity:1"
     d="m 32.690466,38.741679 c -0.664258,-0.641352 -2.234857,-0.147793 -1.938404,0.254537 0,0 9.563937,14.461606 9.65285,14.547798 0.548135,0.531343 1.959126,-0.622442 1.664282,-0.95941 z"
     id="path13"
     sodipodi:nodetypes="ccscc" /><ellipse
     style="opacity:1;fill:#76a556;fill-opacity:1;stroke:#3b522a;stroke-width:0.655454;stroke-linecap:round;stroke-linejoin:round;stroke-dasharray:none;stroke-opacity:1"
     id="path14"
     cx="30.874882"
     cy="28.991875"
     rx="10.189514"
     ry="10.882015" /><g
     id="g18"
     transform="translate(0.92004549,2.9759653)"><path
       style="fill:#3b522a;fill-opacity:1;stroke:#27341c;stroke-width:0.8;stroke-linecap:round;stroke-linejoin:round;stroke-dasharray:none;stroke-opacity:1"
       d="m 24.545475,21.195297 -0.07829,-2.780334 -4.620835,-0.822352 3.211083,-2.427896 -1.488065,-2.467056 4.385882,1.01815 2.388734,-2.819492 1.840499,2.388736 2.702016,-2.192938 1.135631,2.271258 c 0,0 4.503355,-0.939831 4.385874,-0.744032 -0.117472,0.195798 -1.762178,2.97613 -1.762178,2.97613 l 3.289404,1.840501 -4.229233,0.626555 -0.469915,3.328568 -2.662856,-1.918822 -2.702017,2.427897 -2.11462,-2.349578 -3.211083,1.879662 z"
       id="path16"
       sodipodi:nodetypes="ccccccccccsccccccccc" /><ellipse
       style="opacity:1;fill:#fcf4ab;fill-opacity:1;stroke:#baab07;stroke-width:0.8;stroke-linecap:round;stroke-linejoin:round;stroke-dasharray:none;stroke-opacity:1"
       id="path15"
       cx="29.949503"
       cy="16.319925"
       rx="6.3830175"
       ry="3.1523492" /></g><path
     style="fill:#e9d655;fill-opacity:1;stroke:#877810;stroke-width:0.658375;stroke-linecap:butt;stroke-linejoin:miter;stroke-dasharray:none;stroke-opacity:1"
     d="m 20.945047,28.685385 c 3.046516,4.088673 3.566204,5.039288 3.780363,7.244436 -2.9667,0.932864 -3.345936,0.800301 -4.969934,1.180288 -0.578983,0.135471 -2.981363,0.262631 -3.534344,-0.970851 l 3.907241,-2.881656 -4.438963,-3.98642 c 2.283722,-1.530902 3.37984,-0.979142 5.255637,-0.585797 z"
     id="path17"
     sodipodi:nodetypes="ccscccc" /><ellipse
     style="opacity:1;fill:#313131;fill-opacity:1;stroke:none;stroke-width:1.13877;stroke-linecap:round;stroke-linejoin:round;stroke-dasharray:none;stroke-opacity:1"
     id="path18"
     cx="21.036345"
     cy="31.772095"
     rx="1.7859811"
     ry="2.8897781"
     transform="rotate(-11.002232)" /></svg>
