<?xml version="1.0" encoding="UTF-8" standalone="no"?>
<svg
   viewBox="0 0 60 60"
   version="1.1"
   id="svg9"
   sodipodi:docname="0T-Tanuki.svg"
   inkscape:version="1.3 (0e150ed6c4, 2023-07-21)"
   xml:space="preserve"
   xmlns:inkscape="http://www.inkscape.org/namespaces/inkscape"
   xmlns:sodipodi="http://sodipodi.sourceforge.net/DTD/sodipodi-0.dtd"
   xmlns="http://www.w3.org/2000/svg"
   xmlns:svg="http://www.w3.org/2000/svg"><sodipodi:namedview
     id="namedview9"
     pagecolor="#ffffff"
     bordercolor="#666666"
     borderopacity="1.0"
     inkscape:showpageshadow="2"
     inkscape:pageopacity="0.0"
     inkscape:pagecheckerboard="0"
     inkscape:deskcolor="#d1d1d1"
     inkscape:zoom="7.6083333"
     inkscape:cx="23.786478"
     inkscape:cy="69.850271"
     inkscape:window-width="3840"
     inkscape:window-height="2054"
     inkscape:window-x="-11"
     inkscape:window-y="-11"
     inkscape:window-maximized="1"
     inkscape:current-layer="svg9"
     showgrid="false"
     inkscape:rotation="1" /><defs
     id="defs1"><filter
       id="0KA_svg__a"
       x="-0.1341634"
       y="-0.11018899"
       width="1.3183423"
       height="1.2615933"><feGaussianBlur
         in="SourceAlpha"
         result="blur"
         stdDeviation="2"
         id="feGaussianBlur1" /><feOffset
         dx="2"
         dy="2"
         result="offsetBlur"
         id="feOffset1" /><feBlend
         in="SourceGraphic"
         in2="offsetBlur"
         id="feBlend1" /></filter></defs><g
     fill="#fdc9dd"
     filter="url(#0KA_svg__a)"
     transform="translate(41.426 -1.78)scale(1.05)"
     id="g1"
     style="fill:#e9dbc9;fill-opacity:1"><path
       fill="#cdbc68"
       d="m-10.96 6.237-12.838 3.608-7.051 44.45H9.085l-6.79-44.163z"
       id="path1"
       style="stroke:#333333;stroke-width:0.95238095;stroke-dasharray:none;fill:#e9dbc9;fill-opacity:1" /></g><path
     style="fill:#c06722;fill-opacity:1;stroke-width:0.026213"
     d="m 41.210342,33.913273 c -0.138931,-0.0829 -0.183285,-0.123892 -0.22862,-0.211283 -0.04012,-0.07738 -0.04334,-0.120193 -0.0073,-0.09792 0.01445,0.0089 0.02623,-0.0081 0.02623,-0.03777 0,-0.02968 0.01178,-0.05398 0.02623,-0.05398 0.01445,0 0.02335,-0.0088 0.01985,-0.01966 -0.0056,-0.0182 0.10331,-0.212837 0.13607,-0.24247 0.008,-0.0072 0.03689,-0.05714 0.06424,-0.110954 0.0411,-0.08076 0.04692,-0.131267 0.0336,-0.289242 -0.0089,-0.105266 -0.03703,-0.232274 -0.06256,-0.282242 -0.07618,-0.149274 -0.11829,-0.36254 -0.130501,-0.660982 -0.0063,-0.154984 -0.02174,-0.28179 -0.03423,-0.28179 -0.02876,0 -0.05379,-0.204707 -0.06417,-0.524262 -0.0042,-0.136962 -0.0169,-0.310683 -0.02777,-0.386045 -0.01494,-0.103864 -0.0079,-0.175168 0.02946,-0.294671 0.027,-0.08671 0.058,-0.157755 0.0688,-0.157878 0.0108,-1.3e-4 0.01964,-0.101853 0.01964,-0.22607 0,-0.22566 0.05393,-0.455026 0.124512,-0.529652 0.01803,-0.01905 0.03275,-0.02743 0.03275,-0.01863 0,0.0088 0.01592,0.0012 0.03535,-0.01701 0.01943,-0.01816 0.02988,-0.05402 0.02314,-0.07967 -0.007,-0.02566 7.01e-4,-0.04665 0.01704,-0.04665 0.01613,0 0.02925,-0.02064 0.02918,-0.04587 -1.33e-4,-0.04792 0.0816,-0.298355 0.104811,-0.321111 0.0074,-0.0072 0.03009,-0.04555 0.0505,-0.08519 0.02041,-0.03965 0.0526,-0.07209 0.07144,-0.07209 0.01887,0 0.05506,-0.03244 0.08042,-0.07209 0.06635,-0.103708 0.103239,-0.137713 0.126517,-0.116711 0.01122,0.01013 0.0129,-0.0025 0.0035,-0.02792 -0.01746,-0.04866 0.01473,-0.09924 0.159186,-0.25017 0.06698,-0.07 0.09916,-0.08572 0.149487,-0.07309 0.04874,0.01223 0.08016,-0.0012 0.130887,-0.05591 0.03675,-0.03961 0.06677,-0.08147 0.06677,-0.09303 0,-0.04423 0.101885,-0.128614 0.132464,-0.109716 0.01985,0.01227 0.02728,0.0066 0.01999,-0.01524 -0.02336,-0.07002 0.07708,-0.129799 0.218044,-0.129799 0.105589,0 0.146639,-0.01271 0.190411,-0.05898 0.05863,-0.06196 0.201303,-0.17688 0.339841,-0.273727 0.0911,-0.06368 0.176994,-0.07473 0.255279,-0.03284 0.05401,0.02889 0.06116,0.02636 0.305763,-0.107646 0.09846,-0.05394 0.122232,-0.05753 0.198462,-0.02996 0.108781,0.03933 0.20084,0.04027 0.20084,0.002 0,-0.01638 0.02314,-0.02323 0.05246,-0.01555 0.02882,0.0075 0.04692,0.0048 0.04012,-0.0062 -0.01683,-0.02721 0.104776,-0.08003 0.184225,-0.08003 0.03556,0 0.08653,0.01366 0.113255,0.03035 0.02918,0.0182 0.06831,0.02174 0.09794,0.0088 0.02714,-0.01184 0.05716,-0.02256 0.06663,-0.0238 0.0095,-0.0012 0.07893,-0.0524 0.154256,-0.113668 0.18898,-0.153726 0.217441,-0.148647 0.327567,0.05849 0.04566,0.08583 0.07331,0.187546 0.08324,0.306049 0.01066,0.127474 0.02988,0.193601 0.0681,0.234658 0.04124,0.0443 0.0559,0.103347 0.06516,0.262368 0.0098,0.170108 0.02013,0.20782 0.06018,0.220525 0.05667,0.018 0.09903,0.14632 0.120815,0.366184 0.01171,0.118348 0.03086,0.171571 0.0772,0.215007 0.05534,0.05182 0.06158,0.08052 0.06158,0.280244 0,0.122384 -0.01178,0.229805 -0.02623,0.238716 -0.03984,0.02463 -0.03128,0.173753 0.01277,0.222441 0.04292,0.04741 0.06929,0.257297 0.035,0.278487 -0.01185,0.0073 -0.02153,0.03975 -0.02153,0.07206 0,0.0323 -0.01003,0.06995 -0.02223,0.08365 -0.01227,0.0137 -0.04271,0.07775 -0.06775,0.142344 -0.0385,0.09953 -0.04054,0.132307 -0.01333,0.214893 0.03808,0.115475 0.0162,0.184431 -0.13635,0.42883 -0.07499,0.120158 -0.09785,0.183271 -0.09493,0.262129 0.0035,0.08576 -0.01831,0.134553 -0.123186,0.279842 -0.06986,0.09679 -0.137003,0.169815 -0.149185,0.162285 -0.0122,-0.0075 -0.02216,0.006 -0.02216,0.02998 0,0.0287 -0.01396,0.03832 -0.04068,0.02806 -0.02237,-0.0086 -0.03402,-0.0048 -0.02581,0.0085 0.0082,0.01326 0.0028,0.03151 -0.01171,0.04057 -0.01466,0.0091 -0.02665,0.04355 -0.02665,0.07665 0,0.06551 -0.207425,0.265985 -0.360517,0.348429 -0.07658,0.04124 -0.09034,0.04217 -0.114026,0.0076 -0.02083,-0.03034 -0.02314,-0.02587 -0.01038,0.01972 0.01024,0.03635 0.0049,0.05898 -0.01326,0.05898 -0.04468,0 -0.103604,0.06753 -0.133306,0.152739 -0.01452,0.04161 -0.05821,0.0921 -0.09721,0.112186 -0.03892,0.02009 -0.0937,0.05717 -0.12165,0.0824 -0.02798,0.02523 -0.06698,0.04588 -0.0867,0.04588 -0.01978,0 -0.08717,0.02864 -0.149865,0.06363 -0.0627,0.035 -0.122877,0.05564 -0.133755,0.04588 -0.01087,-0.0098 -0.01136,-0.0032 -7.02e-4,0.01471 0.01999,0.03472 -0.185101,0.180287 -0.292058,0.207324 -0.03247,0.0082 -0.05898,0.02542 -0.05898,0.03828 0,0.01285 -0.02202,0.02337 -0.04888,0.02337 -0.02686,0 -0.07702,0.0219 -0.11141,0.04867 -0.08723,0.06792 -0.306205,0.161033 -0.378697,0.161033 -0.03324,0 -0.09263,0.01223 -0.131897,0.02715 -0.06565,0.02495 -0.160126,0.04327 -0.5218,0.101165 -0.269047,0.04307 -0.507297,0.175308 -0.510285,0.283235 -7.01e-4,0.02831 -0.104369,0.224238 -0.171257,0.323928 -0.02855,0.04256 -0.156016,0.129706 -0.18912,0.129306 -0.01129,-1.29e-4 -0.07366,-0.03193 -0.138546,-0.07064 z"
     id="path19" /><path
     style="fill:#c06722;fill-opacity:1;stroke-width:0.026213"
     d="m 18.681992,34.125089 c 0.138931,-0.0829 0.183285,-0.123892 0.22862,-0.211283 0.04012,-0.07738 0.04334,-0.120193 0.0073,-0.09792 -0.01445,0.0089 -0.02623,-0.0081 -0.02623,-0.03777 0,-0.02968 -0.01178,-0.05398 -0.02623,-0.05398 -0.01445,0 -0.02335,-0.0088 -0.01985,-0.01966 0.0056,-0.0182 -0.10331,-0.212837 -0.13607,-0.24247 -0.008,-0.0072 -0.03689,-0.05714 -0.06424,-0.110954 -0.0411,-0.08076 -0.04692,-0.131267 -0.0336,-0.289242 0.0089,-0.105266 0.03703,-0.232274 0.06256,-0.282242 0.07618,-0.149274 0.11829,-0.36254 0.130501,-0.660982 0.0063,-0.154984 0.02174,-0.28179 0.03423,-0.28179 0.02876,0 0.05379,-0.204707 0.06417,-0.524262 0.0042,-0.136962 0.0169,-0.310683 0.02777,-0.386045 0.01494,-0.103864 0.0079,-0.175168 -0.02946,-0.294671 -0.027,-0.08671 -0.058,-0.157755 -0.0688,-0.157878 -0.0108,-1.3e-4 -0.01964,-0.101853 -0.01964,-0.22607 0,-0.22566 -0.05393,-0.455026 -0.124512,-0.529652 -0.01803,-0.01905 -0.03275,-0.02743 -0.03275,-0.01863 0,0.0088 -0.01592,0.0012 -0.03535,-0.01701 -0.01943,-0.01816 -0.02988,-0.05402 -0.02314,-0.07967 0.007,-0.02566 -7.01e-4,-0.04665 -0.01704,-0.04665 -0.01613,0 -0.02925,-0.02064 -0.02918,-0.04587 1.33e-4,-0.04792 -0.0816,-0.298355 -0.104811,-0.321111 -0.0074,-0.0072 -0.03009,-0.04555 -0.0505,-0.08519 -0.02041,-0.03965 -0.0526,-0.07209 -0.07144,-0.07209 -0.01887,0 -0.05506,-0.03244 -0.08042,-0.07209 -0.06635,-0.103708 -0.103239,-0.137713 -0.126517,-0.116711 -0.01122,0.01013 -0.0129,-0.0025 -0.0035,-0.02792 0.01746,-0.04866 -0.01473,-0.09924 -0.159186,-0.25017 -0.06698,-0.07 -0.09916,-0.08572 -0.149487,-0.07309 -0.04874,0.01223 -0.08016,-0.0012 -0.130887,-0.05591 -0.03675,-0.03961 -0.06677,-0.08147 -0.06677,-0.09303 0,-0.04423 -0.101885,-0.128614 -0.132464,-0.109716 -0.01985,0.01227 -0.02728,0.0066 -0.01999,-0.01524 0.02336,-0.07002 -0.07708,-0.129799 -0.218044,-0.129799 -0.105589,0 -0.146639,-0.01271 -0.190411,-0.05898 -0.05863,-0.06196 -0.201303,-0.17688 -0.339841,-0.273727 -0.0911,-0.06368 -0.176994,-0.07473 -0.255279,-0.03284 -0.05401,0.02889 -0.06116,0.02636 -0.305763,-0.107646 -0.09846,-0.05394 -0.122232,-0.05753 -0.198462,-0.02996 -0.108781,0.03933 -0.20084,0.04027 -0.20084,0.002 0,-0.01638 -0.02314,-0.02323 -0.05246,-0.01555 -0.02882,0.0075 -0.04692,0.0048 -0.04012,-0.0062 0.01683,-0.02721 -0.104776,-0.08003 -0.184225,-0.08003 -0.03556,0 -0.08653,0.01366 -0.113255,0.03035 -0.02918,0.0182 -0.06831,0.02174 -0.09794,0.0088 -0.02714,-0.01184 -0.05716,-0.02256 -0.06663,-0.0238 -0.0095,-0.0012 -0.07893,-0.0524 -0.154256,-0.113668 -0.18898,-0.153726 -0.217441,-0.148647 -0.327567,0.05849 -0.04566,0.08583 -0.07331,0.187546 -0.08324,0.306049 -0.01066,0.127474 -0.02988,0.193601 -0.0681,0.234658 -0.04124,0.0443 -0.0559,0.103347 -0.06516,0.262368 -0.0098,0.170108 -0.02013,0.20782 -0.06018,0.220525 -0.05667,0.018 -0.09903,0.14632 -0.120815,0.366184 -0.01171,0.118348 -0.03086,0.171571 -0.0772,0.215007 -0.05534,0.05182 -0.06158,0.08052 -0.06158,0.280244 0,0.122384 0.01178,0.229805 0.02623,0.238716 0.03984,0.02463 0.03128,0.173753 -0.01277,0.222441 -0.04292,0.04741 -0.06929,0.257297 -0.035,0.278487 0.01185,0.0073 0.02153,0.03975 0.02153,0.07206 0,0.0323 0.01003,0.06995 0.02223,0.08365 0.01227,0.0137 0.04271,0.07775 0.06775,0.142344 0.0385,0.09953 0.04054,0.132307 0.01333,0.214893 -0.03808,0.115475 -0.0162,0.184431 0.13635,0.42883 0.07499,0.120158 0.09785,0.183271 0.09493,0.262129 -0.0035,0.08576 0.01831,0.134553 0.123186,0.279842 0.06986,0.09679 0.137003,0.169815 0.149185,0.162285 0.0122,-0.0075 0.02216,0.006 0.02216,0.02998 0,0.0287 0.01396,0.03832 0.04068,0.02806 0.02237,-0.0086 0.03402,-0.0048 0.02581,0.0085 -0.0082,0.01326 -0.0028,0.03151 0.01171,0.04057 0.01466,0.0091 0.02665,0.04355 0.02665,0.07665 0,0.06551 0.207425,0.265985 0.360517,0.348429 0.07658,0.04124 0.09034,0.04217 0.114026,0.0076 0.02083,-0.03034 0.02314,-0.02587 0.01038,0.01972 -0.01024,0.03635 -0.0049,0.05898 0.01326,0.05898 0.04468,0 0.103604,0.06753 0.133306,0.152739 0.01452,0.04161 0.05821,0.0921 0.09721,0.112186 0.03892,0.02009 0.0937,0.05717 0.12165,0.0824 0.02798,0.02523 0.06698,0.04588 0.0867,0.04588 0.01978,0 0.08717,0.02864 0.149865,0.06363 0.0627,0.035 0.122877,0.05564 0.133755,0.04588 0.01087,-0.0098 0.01136,-0.0032 7.02e-4,0.01471 -0.01999,0.03472 0.185101,0.180287 0.292058,0.207324 0.03247,0.0082 0.05898,0.02542 0.05898,0.03828 0,0.01285 0.02202,0.02337 0.04888,0.02337 0.02686,0 0.07702,0.0219 0.11141,0.04867 0.08723,0.06792 0.306205,0.161033 0.378697,0.161033 0.03324,0 0.09263,0.01223 0.131897,0.02715 0.06565,0.02495 0.160126,0.04327 0.5218,0.101165 0.269047,0.04307 0.507297,0.175308 0.510285,0.283235 7.01e-4,0.02831 0.104369,0.224238 0.171257,0.323928 0.02855,0.04256 0.156016,0.129706 0.18912,0.129306 0.01129,-1.29e-4 0.07366,-0.03193 0.138546,-0.07064 z"
     id="path21" /><path
     style="fill:#daab85;fill-opacity:1;stroke:#513032;stroke-width:1;stroke-dasharray:none;stroke-opacity:1"
     d="M 28.103697,46.603453 C 25.453488,46.4897 23.284313,46.159568 21.611765,45.615429 19.86742,45.047933 18.771566,44.381902 17.97804,43.406948 17.760508,43.13968 17.5711,42.955917 17.426557,42.871896 16.97976,42.61218 16.74778,42.318609 16.565179,41.78182 c -0.102248,-0.300576 -0.134743,-0.347099 -0.364266,-0.521554 -0.297147,-0.225854 -0.489366,-0.489307 -0.607472,-0.832592 -0.106906,-0.310725 -0.10707,-0.608043 -8.42e-4,-1.428113 0.08651,-0.667565 0.08298,-0.735066 -0.06732,-1.28545 -0.07099,-0.259976 -0.07427,-0.337234 -0.02785,-0.655797 0.09223,-0.632768 0.327866,-1.041695 0.852353,-1.479153 l 0.340754,-0.284214 0.02777,-0.473994 c 0.06725,-1.148454 0.321324,-2.765735 0.577784,-3.677882 0.394683,-1.403757 1.130465,-3.108309 1.805923,-4.183705 0.371983,-0.592236 0.394839,-0.67948 0.308175,-1.17634 -0.16962,-0.972466 -0.164171,-1.580902 0.02369,-2.643655 0.114707,-0.648946 0.264286,-1.151326 0.509529,-1.711307 0.357761,-0.816909 0.890477,-1.664764 1.11692,-1.777657 0.132244,-0.06594 0.5507,0.01351 1.179584,0.223952 0.662638,0.221731 1.151869,0.460763 1.715953,0.838388 0.787438,0.527154 1.227268,0.950975 2.099498,2.023076 0.03988,0.04903 1.248204,-0.26347 1.499476,-0.387808 0.110651,-0.05475 0.361939,-0.218747 0.558416,-0.364426 0.659007,-0.488625 1.694806,-0.948231 2.422657,-1.074976 0.565358,-0.09845 1.801749,0.105135 2.433301,0.400675 0.156299,0.07314 0.329894,0.132984 0.385771,0.132984 0.240854,0 0.746394,-0.818801 0.88529,-1.433855 0.111534,-0.493894 0.163771,-0.612518 0.289136,-0.656609 0.143112,-0.05033 0.323133,-0.0064 0.435824,0.106245 0.129273,0.129279 0.113702,0.457982 -0.044,0.928679 -0.167676,0.500483 -0.333147,0.824932 -0.614533,1.204956 -0.123732,0.167104 -0.22497,0.346855 -0.22497,0.399441 0,0.09398 0.250708,0.378004 0.332992,0.377243 0.0231,0 0.121371,-0.124296 0.218356,-0.275739 0.319022,-0.498168 1.183475,-1.291724 1.897235,-1.741636 0.763006,-0.480959 2.216225,-0.912778 2.573611,-0.764743 0.330505,0.136902 0.849498,1.252922 1.160603,2.495738 0.113186,0.452166 0.136186,0.643127 0.157618,1.308647 0.02256,0.701128 0.01259,0.867698 -0.09986,1.661877 l -0.124953,0.882648 0.383936,0.403451 c 0.948878,0.997106 1.740862,2.549727 2.189403,4.292138 0.240956,0.936022 0.527576,2.765828 0.625815,3.995164 l 0.05399,0.676026 0.217449,0.110188 c 0.27363,0.138659 0.576728,0.447944 0.724734,0.739525 0.264789,0.52165 0.126548,1.355726 -0.298396,1.800388 -0.153505,0.160632 -0.156014,0.185018 -0.04493,0.43719 0.18069,0.410109 0.15587,1.04307 -0.05961,1.518989 -0.05553,0.122601 -0.191795,0.325247 -0.30288,0.450325 -0.160435,0.18064 -0.20762,0.270905 -0.229424,0.438868 -0.06468,0.498323 -0.163905,0.849488 -0.296657,1.049902 -0.173516,0.261968 -0.482492,0.507859 -0.800155,0.636788 -0.228428,0.09271 -0.266818,0.1308 -0.52975,0.525621 -0.894364,1.342935 -2.553754,2.317085 -4.969755,2.917505 -1.565884,0.389151 -2.769835,0.551376 -4.919227,0.662836 -0.754964,0.03915 -3.051465,0.04716 -3.838314,0.01339 z"
     id="path3" /><path
     style="fill:#513032;fill-opacity:1;stroke:#513032;stroke-width:1px;stroke-linecap:butt;stroke-linejoin:miter;stroke-opacity:1"
     d="m 40.084582,26.170075 -1.114299,-0.720776 c 0,0 0.324181,-1.536623 0.227591,-2.297296 -0.08434,-0.664228 -0.709002,-2.293274 -0.709002,-2.293274 -1.44587,-0.179191 -2.66655,0.97494 -3.696725,2.464934 0,0 -0.298263,-0.118437 -0.898095,-0.422668 0.781689,-0.712599 4.589492,-2.880307 4.589492,-2.880307 0.811857,1.970012 1.712729,3.070312 1.601038,6.149387 z"
     id="path16"
     sodipodi:nodetypes="ccsccccc" /><path
     style="fill:#7ca14d;fill-opacity:1;stroke:#394b23;stroke-width:0.7;stroke-linecap:butt;stroke-linejoin:miter;stroke-dasharray:none;stroke-opacity:1"
     d="m 33.816746,21.543902 c -0.07844,-0.05471 -1.248118,-0.51979 -1.889179,-0.437154 -0.646544,0.08335 -1.616591,0.712077 -1.731231,0.909673 -0.114639,0.197596 -0.852424,0.981177 -1.079217,1.353302 -0.226792,0.372131 -0.800927,1.027741 -1.083528,1.609464 -0.191702,0.394619 -0.584739,0.940547 -0.745827,1.074331 0,0 0.678118,0.406953 0.986731,0.584735 0.421859,0.243012 0.831626,0.544039 1.305853,0.654164 0.849164,0.197186 1.773066,0.204308 2.615183,-0.02108 0.781404,-0.209142 1.567938,-0.59658 2.111985,-1.195199 0.33876,-0.372744 0.500563,-0.889619 0.615505,-1.380012 0.106098,-0.452659 0.131769,-0.934729 0.05707,-1.393615 -0.0739,-0.45391 -0.207822,-0.926874 -0.490761,-1.289423 -0.168176,-0.215495 -0.448387,-0.312787 -0.672583,-0.469182 z"
     id="path4"
     sodipodi:nodetypes="ssssscssssssss" /><g
     id="g13"
     style="stroke:#394b23;stroke-opacity:1;stroke-width:9.06647083;stroke-dasharray:none"
     transform="matrix(0.0441186,0,0,0.0441186,59.254979,24.262557)"><path
       style="fill:none;stroke:#394b23;stroke-width:9.06647083;stroke-linecap:butt;stroke-linejoin:miter;stroke-dasharray:none;stroke-opacity:1"
       d="m -581.26378,-62.390428 c -25.52833,47.922175 -62.86998,77.624269 -101.99843,95.0161"
       id="path5"
       sodipodi:nodetypes="cc" /><path
       style="fill:none;stroke:#394b23;stroke-width:9.06647083;stroke-linecap:butt;stroke-linejoin:miter;stroke-dasharray:none;stroke-opacity:1"
       d="m -597.26444,-36.619889 c -15.95797,5.994295 -34.8919,7.812535 -55.74322,6.940176"
       id="path6"
       sodipodi:nodetypes="cc" /><path
       style="fill:none;stroke:#394b23;stroke-width:9.06647083;stroke-linecap:butt;stroke-linejoin:miter;stroke-dasharray:none;stroke-opacity:1"
       d="m -631.87841,1.1550731 c -19.5887,5.3381089 -33.75908,3.4400436 -54.6104,2.5676848"
       id="path7"
       sodipodi:nodetypes="cc" /><path
       style="fill:none;stroke:#394b23;stroke-width:9.06647083;stroke-linecap:butt;stroke-linejoin:miter;stroke-dasharray:none;stroke-opacity:1"
       d="m -597.54094,-35.81561 c -0.77691,17.028925 -3.2224,40.9288237 -6.00727,65.710682"
       id="path8"
       sodipodi:nodetypes="cc" /><path
       style="fill:none;stroke:#394b23;stroke-width:9.06647083;stroke-linecap:butt;stroke-linejoin:miter;stroke-dasharray:none;stroke-opacity:1"
       d="m -632.56,1.3459095 -2.7619,35.3953915"
       id="path9" /></g><ellipse
     style="opacity:1;fill:#f3dbbe;fill-opacity:1;stroke:none;stroke-width:0.385716;stroke-linecap:round;stroke-linejoin:round;stroke-dasharray:none;stroke-opacity:1"
     id="path10"
     cx="29.946167"
     cy="37.833157"
     rx="4.9359303"
     ry="3.8296819" /><ellipse
     style="fill:#573331;fill-opacity:1;stroke:none;stroke-width:0.428695;stroke-linecap:round;stroke-linejoin:round;stroke-dasharray:none;stroke-opacity:1"
     id="path11"
     cx="8.8082542"
     cy="49.517681"
     rx="2.6353984"
     ry="4.014185"
     transform="matrix(0.81146604,-0.58439957,0.58153911,0.81351845,0,0)" /><ellipse
     style="fill:#573331;fill-opacity:1;stroke:none;stroke-width:0.428695;stroke-linecap:round;stroke-linejoin:round;stroke-dasharray:none;stroke-opacity:1"
     id="ellipse11"
     cx="-40.198589"
     cy="14.726193"
     rx="2.6353984"
     ry="4.014185"
     transform="matrix(-0.81146604,-0.58439957,-0.58153911,0.81351845,0,0)" /><path
     style="fill:#573331;fill-opacity:1;stroke:none;stroke-width:0.0799016px;stroke-linecap:butt;stroke-linejoin:miter;stroke-opacity:1"
     d="m 29.968476,34.852462 c -0.439366,-0.0039 -1.073394,0.11449 -1.396751,0.420076 -0.149658,0.141434 -0.21004,0.504091 -0.21004,0.504091 0.294756,0.645863 0.871301,1.254688 1.627795,1.218219 0.49693,0.0028 1.033184,-0.543586 1.438756,-0.934669 0.291486,-0.308739 0.05545,-0.526133 -0.04199,-0.798142 -0.08987,-0.250803 -0.901391,-0.404889 -1.417753,-0.409575 z"
     id="path12"
     sodipodi:nodetypes="sscccss" /><circle
     style="opacity:1;fill:#573331;fill-opacity:1;stroke:none;stroke-width:0.399509;stroke-linecap:round;stroke-linejoin:round;stroke-dasharray:none;stroke-opacity:1"
     id="path13"
     cx="29.990753"
     cy="39.672256"
     r="0.62378037" /><path
     style="fill:none;stroke:#394b23;stroke-width:1px;stroke-linecap:butt;stroke-linejoin:round;stroke-opacity:1"
     d="m 33.689549,21.143462 c 0.0917,-0.09416 0.74205,-1.868764 0.74205,-1.868764 0,0 0.768441,-0.13101 0.813404,0.194487 0.04723,0.34194 -0.9911,2.178006 -1.130496,2.179853 -0.139395,0.0018 -0.424958,-0.505576 -0.424958,-0.505576 z"
     id="path14"
     sodipodi:nodetypes="ccscc" /><path
     style="fill:#513032;fill-opacity:1;stroke:#513032;stroke-width:1px;stroke-linecap:butt;stroke-linejoin:miter;stroke-opacity:1"
     d="m 19.697482,26.28593 1.139071,-0.836631 c 0,0 -0.324181,-1.536623 -0.227591,-2.297296 0.08434,-0.664228 0.709002,-2.293274 0.709002,-2.293274 1.44587,-0.179191 2.66655,0.97494 3.696725,2.464934 0,0 0.298263,-0.118437 0.898095,-0.422668 -0.781689,-0.712599 -4.589492,-2.880307 -4.589492,-2.880307 -0.811857,1.970012 -1.746774,3.886043 -1.62581,6.265242 z"
     id="path15"
     sodipodi:nodetypes="ccsccccc" /><path
     style="fill:#c06722;fill-opacity:1;stroke-width:0.026213"
     d="m 27.761126,20.10445 c -0.138931,-0.0829 -0.183285,-0.123892 -0.22862,-0.211283 -0.04012,-0.07738 -0.04334,-0.120193 -0.0073,-0.09792 0.01445,0.0089 0.02623,-0.0081 0.02623,-0.03777 0,-0.02968 0.01178,-0.05398 0.02623,-0.05398 0.01445,0 0.02335,-0.0088 0.01985,-0.01966 -0.0056,-0.0182 0.10331,-0.212837 0.13607,-0.24247 0.008,-0.0072 0.03689,-0.05714 0.06424,-0.110954 0.0411,-0.08076 0.04692,-0.131267 0.0336,-0.289242 -0.0089,-0.105266 -0.03703,-0.232274 -0.06256,-0.282242 -0.07618,-0.149274 -0.11829,-0.36254 -0.130501,-0.660982 -0.0063,-0.154984 -0.02174,-0.28179 -0.03423,-0.28179 -0.02876,0 -0.05379,-0.204707 -0.06417,-0.524262 -0.0042,-0.136962 -0.0169,-0.310683 -0.02777,-0.386045 -0.01494,-0.103864 -0.0079,-0.175168 0.02946,-0.294671 0.027,-0.08671 0.058,-0.157755 0.0688,-0.157878 0.0108,-1.3e-4 0.01964,-0.101853 0.01964,-0.22607 0,-0.22566 0.05393,-0.455026 0.124512,-0.529652 0.01803,-0.01905 0.03275,-0.02743 0.03275,-0.01863 0,0.0088 0.01592,0.0012 0.03535,-0.01701 0.01943,-0.01816 0.02988,-0.05402 0.02314,-0.07967 -0.007,-0.02566 7.01e-4,-0.04665 0.01704,-0.04665 0.01613,0 0.02925,-0.02064 0.02918,-0.04587 -1.33e-4,-0.04792 0.0816,-0.298355 0.104811,-0.321111 0.0074,-0.0072 0.03009,-0.04555 0.0505,-0.08519 0.02041,-0.03965 0.0526,-0.07209 0.07144,-0.07209 0.01887,0 0.05506,-0.03244 0.08042,-0.07209 0.06635,-0.103708 0.103239,-0.137713 0.126517,-0.116711 0.01122,0.01013 0.0129,-0.0025 0.0035,-0.02792 -0.01746,-0.04866 0.01473,-0.09924 0.159186,-0.25017 0.06698,-0.07 0.09916,-0.08572 0.149487,-0.07309 0.04874,0.01223 0.08016,-0.0012 0.130887,-0.05591 0.03675,-0.03961 0.06677,-0.08147 0.06677,-0.09303 0,-0.04423 0.101885,-0.128614 0.132464,-0.109716 0.01985,0.01227 0.02728,0.0066 0.01999,-0.01524 -0.02336,-0.07002 0.07708,-0.129799 0.218044,-0.129799 0.105589,0 0.146639,-0.01271 0.190411,-0.05898 0.05863,-0.06196 0.201303,-0.17688 0.339841,-0.273727 0.0911,-0.06368 0.176994,-0.07473 0.255279,-0.03284 0.05401,0.02889 0.06116,0.02636 0.305763,-0.107646 0.09846,-0.05394 0.122232,-0.05753 0.198462,-0.02996 0.108781,0.03933 0.20084,0.04027 0.20084,0.002 0,-0.01638 0.02314,-0.02323 0.05246,-0.01555 0.02882,0.0075 0.04692,0.0048 0.04012,-0.0062 -0.01683,-0.02721 0.104776,-0.08003 0.184225,-0.08003 0.03556,0 0.08653,0.01366 0.113255,0.03035 0.02918,0.0182 0.06831,0.02174 0.09794,0.0088 0.02714,-0.01184 0.05716,-0.02256 0.06663,-0.0238 0.0095,-0.0012 0.07893,-0.0524 0.154256,-0.113668 0.18898,-0.153726 0.217441,-0.148647 0.327567,0.05849 0.04566,0.08583 0.07331,0.187546 0.08324,0.306049 0.01066,0.127474 0.02988,0.193601 0.0681,0.234658 0.04124,0.0443 0.0559,0.103347 0.06516,0.262368 0.0098,0.170108 0.02013,0.20782 0.06018,0.220525 0.05667,0.018 0.09903,0.14632 0.120815,0.366184 0.01171,0.118348 0.03086,0.171571 0.0772,0.215007 0.05534,0.05182 0.06158,0.08052 0.06158,0.280244 0,0.122384 -0.01178,0.229805 -0.02623,0.238716 -0.03984,0.02463 -0.03128,0.173753 0.01277,0.222441 0.04292,0.04741 0.06929,0.257297 0.035,0.278487 -0.01185,0.0073 -0.02153,0.03975 -0.02153,0.07206 0,0.0323 -0.01003,0.06995 -0.02223,0.08365 -0.01227,0.0137 -0.04271,0.07775 -0.06775,0.142344 -0.0385,0.09953 -0.04054,0.132307 -0.01333,0.214893 0.03808,0.115475 0.0162,0.184431 -0.13635,0.42883 -0.07499,0.120158 -0.09785,0.183271 -0.09493,0.262129 0.0035,0.08576 -0.01831,0.134553 -0.123186,0.279842 -0.06986,0.09679 -0.137003,0.169815 -0.149185,0.162285 -0.0122,-0.0075 -0.02216,0.006 -0.02216,0.02998 0,0.0287 -0.01396,0.03832 -0.04068,0.02806 -0.02237,-0.0086 -0.03402,-0.0048 -0.02581,0.0085 0.0082,0.01326 0.0028,0.03151 -0.01171,0.04057 -0.01466,0.0091 -0.02665,0.04355 -0.02665,0.07665 0,0.06551 -0.207425,0.265985 -0.360517,0.348429 -0.07658,0.04124 -0.09034,0.04217 -0.114026,0.0076 -0.02083,-0.03034 -0.02314,-0.02587 -0.01038,0.01972 0.01024,0.03635 0.0049,0.05898 -0.01326,0.05898 -0.04468,0 -0.103604,0.06753 -0.133306,0.152739 -0.01452,0.04161 -0.05821,0.0921 -0.09721,0.112186 -0.03892,0.02009 -0.0937,0.05717 -0.12165,0.0824 -0.02798,0.02523 -0.06698,0.04588 -0.0867,0.04588 -0.01978,0 -0.08717,0.02864 -0.149865,0.06363 -0.0627,0.035 -0.122877,0.05564 -0.133755,0.04588 -0.01087,-0.0098 -0.01136,-0.0032 -7.02e-4,0.01471 0.01999,0.03472 -0.185101,0.180287 -0.292058,0.207324 -0.03247,0.0082 -0.05898,0.02542 -0.05898,0.03828 0,0.01285 -0.02202,0.02337 -0.04888,0.02337 -0.02686,0 -0.07702,0.0219 -0.11141,0.04867 -0.08723,0.06792 -0.306205,0.161033 -0.378697,0.161033 -0.03324,0 -0.09263,0.01223 -0.131897,0.02715 -0.06565,0.02495 -0.160126,0.04327 -0.5218,0.101165 -0.269047,0.04307 -0.507297,0.175308 -0.510285,0.283235 -7.01e-4,0.02831 -0.104369,0.224238 -0.171257,0.323928 -0.02855,0.04256 -0.156016,0.129706 -0.18912,0.129306 -0.01129,-1.29e-4 -0.07366,-0.03193 -0.138546,-0.07064 z"
     id="path17" /><path
     style="fill:#c06722;fill-opacity:1;stroke-width:0.0271397"
     d="m 32.654816,13.525094 c 0.143843,-0.08584 0.189765,-0.128272 0.236703,-0.218752 0.04154,-0.08012 0.04488,-0.124442 0.0076,-0.101383 -0.01496,0.0092 -0.02716,-0.0084 -0.02716,-0.03911 0,-0.03073 -0.0122,-0.05588 -0.02716,-0.05588 -0.01496,0 -0.02418,-0.0091 -0.02055,-0.02035 0.0058,-0.01884 -0.106962,-0.220362 -0.140881,-0.251042 -0.0083,-0.0075 -0.03819,-0.05916 -0.06651,-0.114877 -0.04255,-0.08362 -0.04858,-0.135907 -0.03478,-0.299467 0.0092,-0.108988 0.03834,-0.240486 0.06477,-0.292221 0.07887,-0.154551 0.122472,-0.375357 0.135115,-0.68435 0.0065,-0.160464 0.02251,-0.291752 0.03544,-0.291752 0.02977,0 0.0557,-0.211945 0.06644,-0.542797 0.0044,-0.141805 0.0175,-0.321667 0.02876,-0.399693 0.01547,-0.107536 0.0081,-0.181361 -0.0305,-0.3050888 -0.02796,-0.08977 -0.06005,-0.163332 -0.07124,-0.16346 -0.01118,-1.34e-4 -0.02033,-0.105453 -0.02033,-0.234062 0,-0.233638 -0.05584,-0.471113 -0.128913,-0.548377 -0.01866,-0.01973 -0.03391,-0.0284 -0.03391,-0.01929 0,0.0091 -0.01648,0.0012 -0.0366,-0.01761 -0.02012,-0.0188 -0.03093,-0.05593 -0.02396,-0.08249 0.0073,-0.02656 -7.26e-4,-0.0483 -0.01765,-0.0483 -0.0167,0 -0.03028,-0.02137 -0.03021,-0.0475 1.38e-4,-0.049611 -0.08449,-0.3089029 -0.108515,-0.3324629 -0.0076,-0.00747 -0.03115,-0.047156 -0.05228,-0.088205 -0.02113,-0.041049 -0.05446,-0.074635 -0.07397,-0.074635 -0.01953,0 -0.057,-0.033584 -0.08326,-0.074634 -0.06869,-0.1073742 -0.10689,-0.1425815 -0.13099,-0.120837 -0.01162,0.010493 -0.01336,-0.00254 -0.0036,-0.028908 0.01808,-0.05038 -0.01525,-0.1027503 -0.164815,-0.2590149 -0.06935,-0.072477 -0.102663,-0.088753 -0.154771,-0.075674 -0.05047,0.012657 -0.08299,-0.00123 -0.135514,-0.057889 -0.03805,-0.041006 -0.06913,-0.084347 -0.06913,-0.09632 0,-0.045791 -0.105488,-0.1331607 -0.137148,-0.1135946 -0.02055,0.0127 -0.02825,0.00683 -0.02069,-0.015779 0.02418,-0.072499 -0.0798,-0.1343879 -0.225753,-0.1343879 -0.109322,0 -0.151823,-0.013158 -0.197142,-0.061062 -0.06071,-0.064148 -0.20842,-0.1831336 -0.351856,-0.2834041 -0.09432,-0.065934 -0.183252,-0.077376 -0.264305,-0.033998 -0.05591,0.02991 -0.06332,0.027289 -0.316572,-0.1114517 -0.101944,-0.055848 -0.126554,-0.059559 -0.205479,-0.031021 -0.112626,0.040723 -0.20794,0.041696 -0.20794,0.00211 0,-0.016956 -0.02396,-0.02405 -0.05432,-0.016099 -0.02985,0.00781 -0.04858,0.00494 -0.04154,-0.00646 0.01743,-0.028167 -0.10848,-0.082857 -0.190738,-0.082857 -0.03682,0 -0.08958,0.014145 -0.117259,0.031421 -0.03021,0.018844 -0.07073,0.022503 -0.101406,0.00913 -0.0281,-0.012257 -0.05918,-0.023353 -0.06898,-0.024638 -0.0099,-0.00123 -0.08172,-0.054251 -0.159709,-0.1176872 -0.195661,-0.1591605 -0.225128,-0.1539017 -0.339149,0.060554 -0.04727,0.088863 -0.0759,0.1941769 -0.08618,0.3168694 -0.01104,0.1319807 -0.03093,0.2004458 -0.07051,0.2429539 -0.0427,0.045864 -0.05787,0.1070004 -0.06746,0.2716433 -0.01017,0.1761219 -0.02084,0.2151677 -0.0623,0.2283219 -0.05867,0.01864 -0.102533,0.1514924 -0.125087,0.3791303 -0.01213,0.1225311 -0.03195,0.1776357 -0.07993,0.2226077 -0.05729,0.053648 -0.06376,0.083366 -0.06376,0.2901514 0,0.126711 0.0122,0.2379294 0.02716,0.2471554 0.04124,0.0255 0.03239,0.179895 -0.01322,0.230305 -0.04444,0.04909 -0.07174,0.266393 -0.03623,0.288332 0.01227,0.0076 0.02229,0.04116 0.02229,0.07461 0,0.03345 0.01038,0.07243 0.02302,0.0866 0.01271,0.01419 0.04422,0.0805 0.07015,0.147376 0.03986,0.103049 0.04197,0.136984 0.0138,0.22249 -0.03943,0.119557 -0.01677,0.1909518 0.14117,0.4439898 0.07764,0.124407 0.101306,0.189751 0.09829,0.271398 -0.0036,0.08879 0.01895,0.139309 0.127541,0.289735 0.07232,0.100207 0.141846,0.175818 0.154459,0.168022 0.01263,-0.0078 0.02295,0.0062 0.02295,0.03104 0,0.02971 0.01445,0.03968 0.04212,0.02905 0.02316,-0.0089 0.03522,-0.0049 0.02672,0.0088 -0.0085,0.01372 -0.0029,0.03263 0.01213,0.042 0.01518,0.0094 0.02759,0.04509 0.02759,0.07936 0,0.06783 0.214759,0.275389 0.373263,0.360748 0.07929,0.0427 0.09354,0.04366 0.118058,0.0079 0.02157,-0.03141 0.02396,-0.02678 0.01075,0.02042 -0.0106,0.03764 -0.0051,0.06106 0.01372,0.06106 0.04626,0 0.107267,0.06991 0.138019,0.158139 0.01503,0.04308 0.06027,0.09535 0.100645,0.116153 0.0403,0.0208 0.09701,0.05919 0.12595,0.08531 0.02897,0.02612 0.06935,0.0475 0.08977,0.0475 0.02048,0 0.09025,0.02965 0.155164,0.06588 0.06492,0.03623 0.127221,0.05761 0.138484,0.0475 0.01126,-0.01012 0.01176,-0.0033 7.26e-4,0.01524 -0.02069,0.03594 0.191646,0.186661 0.302384,0.214654 0.03362,0.0085 0.06107,0.02632 0.06107,0.03963 0,0.0133 0.0228,0.02419 0.05061,0.02419 0.02781,0 0.07975,0.02268 0.115349,0.05039 0.09032,0.07032 0.31703,0.166726 0.392085,0.166726 0.03442,0 0.0959,0.01266 0.13656,0.02811 0.06797,0.02583 0.165787,0.0448 0.540248,0.104742 0.278559,0.04459 0.525232,0.181505 0.528326,0.293248 7.26e-4,0.02931 0.108058,0.232166 0.177311,0.33538 0.02955,0.04406 0.161532,0.134292 0.195806,0.133878 0.01169,-1.34e-4 0.07627,-0.03305 0.143444,-0.07313 z"
     id="path18" /><path
     style="fill:#c06722;fill-opacity:1;stroke-width:0.0271397"
     d="m 32.412814,54.597292 c 0.143843,-0.08584 0.189765,-0.128272 0.236703,-0.218752 0.04154,-0.08012 0.04488,-0.124442 0.0076,-0.101383 -0.01496,0.0092 -0.02716,-0.0084 -0.02716,-0.03911 0,-0.03073 -0.0122,-0.05588 -0.02716,-0.05588 -0.01496,0 -0.02418,-0.0091 -0.02055,-0.02035 0.0058,-0.01884 -0.106962,-0.220362 -0.140881,-0.251042 -0.0083,-0.0075 -0.03819,-0.05916 -0.06651,-0.114877 -0.04255,-0.08362 -0.04858,-0.135907 -0.03478,-0.299467 0.0092,-0.108988 0.03834,-0.240486 0.06477,-0.292221 0.07887,-0.154551 0.122472,-0.375357 0.135115,-0.68435 0.0065,-0.160464 0.02251,-0.291752 0.03544,-0.291752 0.02977,0 0.0557,-0.211945 0.06644,-0.542797 0.0044,-0.141805 0.0175,-0.321667 0.02876,-0.399693 0.01547,-0.107536 0.0081,-0.181361 -0.0305,-0.305088 -0.02796,-0.08977 -0.06005,-0.163332 -0.07124,-0.16346 -0.01118,-1.34e-4 -0.02033,-0.105453 -0.02033,-0.234062 0,-0.233638 -0.05584,-0.471113 -0.128913,-0.548377 -0.01866,-0.01973 -0.03391,-0.0284 -0.03391,-0.01929 0,0.0091 -0.01648,0.0012 -0.0366,-0.01761 -0.02012,-0.0188 -0.03093,-0.05593 -0.02396,-0.08249 0.0073,-0.02656 -7.26e-4,-0.0483 -0.01765,-0.0483 -0.0167,0 -0.03028,-0.02137 -0.03021,-0.0475 1.38e-4,-0.04961 -0.08449,-0.308903 -0.108515,-0.332463 -0.0076,-0.0075 -0.03115,-0.04716 -0.05228,-0.08821 -0.02113,-0.04105 -0.05446,-0.07463 -0.07397,-0.07463 -0.01953,0 -0.057,-0.03358 -0.08326,-0.07463 -0.06869,-0.107375 -0.10689,-0.142582 -0.13099,-0.120837 -0.01162,0.01049 -0.01336,-0.0025 -0.0036,-0.02891 0.01808,-0.05038 -0.01525,-0.102751 -0.164815,-0.259015 -0.06935,-0.07248 -0.102663,-0.08875 -0.154771,-0.07567 -0.05047,0.01266 -0.08299,-0.0012 -0.135514,-0.05789 -0.03805,-0.04101 -0.06913,-0.08435 -0.06913,-0.09632 0,-0.04579 -0.105488,-0.133161 -0.137148,-0.113595 -0.02055,0.0127 -0.02825,0.0068 -0.02069,-0.01578 0.02418,-0.0725 -0.0798,-0.134388 -0.225753,-0.134388 -0.109322,0 -0.151823,-0.01316 -0.197142,-0.06106 -0.06071,-0.06415 -0.20842,-0.183133 -0.351856,-0.283404 -0.09432,-0.06593 -0.183252,-0.07738 -0.264305,-0.034 -0.05591,0.02991 -0.06332,0.02729 -0.316572,-0.111452 -0.101944,-0.05585 -0.126554,-0.05956 -0.205479,-0.03102 -0.112626,0.04072 -0.20794,0.0417 -0.20794,0.0021 0,-0.01696 -0.02396,-0.02405 -0.05432,-0.0161 -0.02985,0.0078 -0.04858,0.0049 -0.04154,-0.0065 0.01743,-0.02817 -0.10848,-0.08286 -0.190738,-0.08286 -0.03682,0 -0.08958,0.01414 -0.117259,0.03142 -0.03021,0.01884 -0.07073,0.0225 -0.101406,0.0091 -0.0281,-0.01226 -0.05918,-0.02335 -0.06898,-0.02464 -0.0099,-0.0012 -0.08172,-0.05425 -0.159709,-0.117687 -0.195661,-0.15916 -0.225128,-0.153901 -0.339149,0.06055 -0.04727,0.08886 -0.0759,0.194177 -0.08618,0.31687 -0.01104,0.13198 -0.03093,0.200445 -0.07051,0.242954 -0.0427,0.04586 -0.05787,0.107 -0.06746,0.271643 -0.01017,0.176122 -0.02084,0.215168 -0.0623,0.228322 -0.05867,0.01864 -0.102533,0.151492 -0.125087,0.37913 -0.01213,0.122531 -0.03195,0.177636 -0.07993,0.222608 -0.05729,0.05365 -0.06376,0.08337 -0.06376,0.290151 0,0.126711 0.0122,0.23793 0.02716,0.247156 0.04124,0.0255 0.03239,0.179895 -0.01322,0.230305 -0.04444,0.04909 -0.07174,0.266393 -0.03623,0.288332 0.01227,0.0076 0.02229,0.04116 0.02229,0.07461 0,0.03345 0.01038,0.07243 0.02302,0.0866 0.01271,0.01419 0.04422,0.0805 0.07015,0.147376 0.03986,0.103049 0.04197,0.136984 0.0138,0.22249 -0.03943,0.119557 -0.01677,0.190951 0.14117,0.443989 0.07764,0.124407 0.101306,0.189751 0.09829,0.271398 -0.0036,0.08879 0.01895,0.139309 0.127541,0.289735 0.07232,0.100207 0.141846,0.175818 0.154459,0.168022 0.01263,-0.0078 0.02295,0.0062 0.02295,0.03104 0,0.02971 0.01445,0.03968 0.04212,0.02905 0.02316,-0.0089 0.03522,-0.0049 0.02672,0.0088 -0.0085,0.01372 -0.0029,0.03263 0.01213,0.042 0.01518,0.0094 0.02759,0.04509 0.02759,0.07936 0,0.06783 0.214759,0.275389 0.373263,0.360748 0.07929,0.0427 0.09354,0.04366 0.118058,0.0079 0.02157,-0.03141 0.02396,-0.02678 0.01075,0.02042 -0.0106,0.03764 -0.0051,0.06106 0.01372,0.06106 0.04626,0 0.107267,0.06991 0.138019,0.158139 0.01503,0.04308 0.06027,0.09535 0.100645,0.116153 0.0403,0.0208 0.09701,0.05919 0.12595,0.08531 0.02897,0.02612 0.06935,0.0475 0.08977,0.0475 0.02048,0 0.09025,0.02965 0.155164,0.06588 0.06492,0.03623 0.127221,0.05761 0.138484,0.0475 0.01126,-0.01012 0.01176,-0.0033 7.26e-4,0.01524 -0.02069,0.03594 0.191646,0.186661 0.302384,0.214654 0.03362,0.0085 0.06107,0.02632 0.06107,0.03963 0,0.0133 0.0228,0.02419 0.05061,0.02419 0.02781,0 0.07975,0.02268 0.115349,0.05039 0.09032,0.07032 0.31703,0.166726 0.392085,0.166726 0.03442,0 0.0959,0.01266 0.13656,0.02811 0.06797,0.02583 0.165787,0.0448 0.540248,0.104742 0.278559,0.04459 0.525232,0.181505 0.528326,0.293248 7.26e-4,0.02931 0.108058,0.232166 0.177311,0.33538 0.02955,0.04406 0.161532,0.134292 0.195806,0.133878 0.01169,-1.34e-4 0.07627,-0.03305 0.143444,-0.07313 z"
     id="path20" /></svg>
