<?xml version="1.0" encoding="UTF-8" standalone="no"?>
<svg
   viewBox="0 0 60 60"
   version="1.1"
   id="svg8"
   sodipodi:docname="0Y+VengefulSpirit.svg"
   inkscape:version="1.3 (0e150ed6c4, 2023-07-21)"
   xml:space="preserve"
   xmlns:inkscape="http://www.inkscape.org/namespaces/inkscape"
   xmlns:sodipodi="http://sodipodi.sourceforge.net/DTD/sodipodi-0.dtd"
   xmlns="http://www.w3.org/2000/svg"
   xmlns:svg="http://www.w3.org/2000/svg"><sodipodi:namedview
     id="namedview8"
     pagecolor="#ffffff"
     bordercolor="#666666"
     borderopacity="1.0"
     inkscape:showpageshadow="2"
     inkscape:pageopacity="0.0"
     inkscape:pagecheckerboard="0"
     inkscape:deskcolor="#d1d1d1"
     inkscape:zoom="10.759808"
     inkscape:cx="-61.989954"
     inkscape:cy="35.688369"
     inkscape:window-width="3840"
     inkscape:window-height="2054"
     inkscape:window-x="-11"
     inkscape:window-y="-11"
     inkscape:window-maximized="1"
     inkscape:current-layer="svg8"
     showgrid="false" /><defs
     id="defs1"><filter
       id="0KY_svg__a"
       x="-0.14731479"
       y="-0.1209949"
       width="1.3495476"
       height="1.287247"><feGaussianBlur
         in="SourceAlpha"
         result="blur"
         stdDeviation="2"
         id="feGaussianBlur1" /><feOffset
         dx="2"
         dy="2"
         result="offsetBlur"
         id="feOffset1" /><feBlend
         in="SourceGraphic"
         in2="offsetBlur"
         id="feBlend1" /></filter></defs><path
     fill="#cdbc68"
     d="M 26.007,8.117 14.316,11.403 7.894,51.883 H 44.263 L 38.079,11.664 Z"
     filter="url(#0KY_svg__a)"
     transform="matrix(1.05,0,0,1.05,2.618,0.83296814)"
     id="path1"
     style="fill:#e9dbc9;fill-opacity:1;stroke:#333333;stroke-width:0.952381;stroke-dasharray:none"
     sodipodi:nodetypes="cccccc" /><path
     style="opacity:1;fill:#eaeee8;fill-opacity:1;stroke:none;stroke-width:0.3;stroke-linecap:butt;stroke-linejoin:miter;stroke-dasharray:none;stroke-opacity:1"
     d="m 28.889592,38.451956 -1.254669,0.6041 c 0,0 -0.232346,1.115262 -0.371754,1.301139 -0.139407,0.185876 -1.301138,1.347607 -1.301138,1.347607 l -2.044646,2.044646 -2.230523,-0.371753 0.836446,3.717538 c 0.193061,1.176915 -0.219096,2.023711 -0.697039,2.834623 l 5.529839,-4.321638 0.743507,-0.836447 c 0,0 0.929385,0.882916 0.929385,1.487016 0,0.6041 0.882915,2.788154 0.882915,2.788154 l -0.418222,5.73895 c 4.50811,0.02403 7.428143,0.130571 11.450961,-0.07244 l -2.807685,-7.153526 -0.697038,-1.533484 0.464692,-2.369931 0.6041,-3.717539 -0.08132,-1.231434 c 0,0 -1.312756,-0.90615 -1.545102,-0.90615 -0.232346,0 -1.719361,0.243964 -1.719361,0.243964 l -0.557631,2.079498 -0.697039,2.509339 v 1.161731 L 33.222848,42.320521 32.6536,40.821888 32.74654,40.07838 v -1.161731 l 0.09294,-0.882915 -0.917768,-0.01162 -1.545101,3.078587 z"
     id="path19"
     sodipodi:nodetypes="ccscccccccsccccccccscccccccccccc" /><path
     style="opacity:1;fill:#c4d4d2;fill-opacity:1;stroke:none;stroke-width:1px;stroke-linecap:butt;stroke-linejoin:miter;stroke-opacity:1"
     d="m 23.307132,25.550063 -0.591456,9.003286 1.839746,1.910133 2.366168,1.375737 1.469019,0.638268 2.408309,0.01891 3.383138,-0.525056 1.217081,-3.812294 c 0,0 -4.731654,-7.360351 -5.060241,-7.688938 -0.328587,-0.328587 -3.417306,-1.708652 -3.417306,-1.708652 z"
     id="path18"
     sodipodi:nodetypes="ccccccccscc" /><path
     style="fill:#7c9198;fill-opacity:1;stroke:none;stroke-width:1px;stroke-linecap:butt;stroke-linejoin:miter;stroke-opacity:1"
     d="m 34.563375,48.30338 c 0,0 1.392859,0.139398 1.836785,0.06788 0.383453,-0.06177 0.752654,-0.20883 1.101934,-0.378701 0.199443,-0.097 0.492881,-0.591457 0.558598,-0.361446 0.06572,0.230011 0.635003,1.292668 0.668962,1.453414 0.188044,0.890113 -4.381214,1.988351 -4.612007,1.405294 z"
     id="path20"
     sodipodi:nodetypes="csssscc" /><ellipse
     style="opacity:1;fill:#d5d1ec;fill-opacity:1;stroke:#b4afde;stroke-width:0.5;stroke-linecap:round;stroke-linejoin:round;stroke-opacity:1"
     id="path21"
     cx="20.478659"
     cy="47.234642"
     rx="2.1375847"
     ry="3.9498847" /><ellipse
     style="opacity:1;fill:#d5d1ec;fill-opacity:1;stroke:#b4afde;stroke-width:0.5;stroke-linecap:round;stroke-linejoin:round;stroke-opacity:1"
     id="path22"
     cx="32.177292"
     cy="47.478603"
     rx="2.2189057"
     ry="4.6817751" /><path
     style="fill:#c4d4d2;fill-opacity:1;stroke:#a5b8ad;stroke-width:0.4;stroke-linecap:butt;stroke-linejoin:miter;stroke-dasharray:none;stroke-opacity:1"
     d="m 20.687773,41.937148 c -0.426452,-0.343717 -1.55109,-0.224483 -2.253759,0.243962 -0.313668,0.209112 -0.989936,0.759828 -1.312755,1.277904 -0.36465,0.58521 -0.929384,1.707744 -0.975853,1.823917 -0.04647,0.116173 0.197494,0.139407 0.197494,0.139407 l 0.278815,-0.302049 c 0.144269,0.278815 -0.140681,0.557631 -0.278815,0.836446 0.198153,0.264065 0.351429,0.213992 0.487927,0.04647 l 0.278815,-0.116173 c -0.07788,0.247954 -0.223586,0.514404 0.02323,0.673804 l 0.383371,-0.02323 0.290433,-0.325284 c 0.116835,0.334088 0.341878,0.20829 0.580865,0.02323 l 0.534396,-0.209111 0.697039,-0.90615 0.557631,-0.487927 0.42984,0.267198 c 0,0 -0.02323,0.243964 -0.278816,0.313667 -0.25558,0.0697 -0.662186,0.627335 -0.662186,0.627335 -0.175417,0.304651 -0.414987,0.600136 -0.174261,0.964236 0.486242,0.01453 0.717627,-0.31074 1.03394,-0.522779 l 0.999088,-0.836446 0.441458,-0.534396 -0.116173,-0.627334 -0.162642,-1.022324 -0.255581,-0.627334 z"
     id="path24"
     sodipodi:nodetypes="cssscccccccccccccsccccccccc" /><path
     style="fill:#aab5b3;stroke:none;stroke-width:1px;stroke-linecap:butt;stroke-linejoin:miter;stroke-opacity:1;fill-opacity:1"
     d="m 27.529476,34.109756 c 0.147865,0.197152 0.624316,0.525739 0.690033,0.525739 0.06572,0 0.431874,-0.116724 0.607886,-0.24644 0.125315,-0.09235 0.295729,-0.361446 0.295729,-0.361446 z"
     id="path30"
     sodipodi:nodetypes="csscc" /><ellipse
     style="opacity:0.493581;fill:#e22958;fill-opacity:1;stroke:none;stroke-width:0.5;stroke-linecap:round;stroke-linejoin:round"
     id="path31"
     cx="28.474165"
     cy="35.867699"
     rx="0.63253015"
     ry="0.37787515" /><path
     style="fill:#b5c2b3;fill-opacity:1;stroke:none;stroke-width:1px;stroke-linecap:butt;stroke-linejoin:miter;stroke-opacity:1"
     d="m 28.061337,38.214676 c 0.410734,0.443593 2.168675,3.039431 2.267251,2.940855 0.09858,-0.09858 1.897514,-3.186456 1.909791,-3.005404 0.02324,0.342777 -4.079532,0.220565 -4.177042,0.06455 z"
     id="path33"
     sodipodi:nodetypes="cssc" /><path
     style="fill:none;stroke:#a5b8ad;stroke-width:0.3;stroke-linecap:round;stroke-linejoin:miter;stroke-opacity:1;stroke-dasharray:none"
     d="m 16.624367,45.443513 c 0.429841,-0.441457 1.266287,-1.51025 1.266287,-1.51025"
     id="path34" /><path
     style="fill:none;stroke:#a5b8ad;stroke-width:0.3;stroke-linecap:round;stroke-linejoin:miter;stroke-dasharray:none;stroke-opacity:1"
     d="m 17.17038,45.733946 c 0.429841,-0.441457 1.266287,-1.51025 1.266287,-1.51025"
     id="path35" /><path
     style="fill:none;stroke:#a5b8ad;stroke-width:0.3;stroke-linecap:round;stroke-linejoin:miter;stroke-dasharray:none;stroke-opacity:1"
     d="m 17.820949,46.059231 c 0.429841,-0.441457 1.266287,-1.51025 1.266287,-1.51025"
     id="path36" /><path
     style="fill:#d5d1ec;fill-opacity:1;stroke:none;stroke-width:1px;stroke-linecap:butt;stroke-linejoin:miter;stroke-opacity:1"
     d="m 27.300673,40.413219 c 0.08623,0.218063 0.259455,4.347453 0.511162,4.182231 0.08687,-0.05702 0.650569,0.30205 0.650569,0.30205 -0.353592,-1.279399 -0.478411,-2.739757 -0.682922,-3.465933 -0.152569,-0.541744 -0.354538,-0.667619 -0.478809,-1.018348 z"
     id="path40"
     sodipodi:nodetypes="cscsc" /><path
     style="opacity:1;fill:#000000;stroke:none;stroke-width:1px;stroke-linecap:butt;stroke-linejoin:miter;stroke-opacity:1"
     d="m 29.516927,19.538979 c -1.031792,0.102676 -2.068654,0.332259 -3.0205,0.743508 -0.719799,0.310992 -1.383804,0.762752 -1.974942,1.277904 -0.67068,0.58447 -1.227606,1.296014 -1.742597,2.021411 -1.707932,2.389873 -2.051746,5.046553 -1.928476,7.923004 l 0.464693,1.440546 c -0.08674,1.386582 0.153148,2.711746 0.394989,4.066058 0,0 0.441458,2.137585 0.441458,2.253758 0,0.176164 -0.226518,2.753901 -0.162643,4.158996 0.0071,2.472818 0.909754,4.522072 2.184053,6.598631 l -0.25558,-1.370843 -0.09294,-2.393165 0.185877,-0.743508 c 0.07058,2.009547 1.619188,3.701812 2.718451,5.320727 l 1.719361,1.696127 -1.556719,-3.0205 c 0,0 2.300751,2.761525 2.160819,2.741685 -0.106136,-0.01505 -0.87359,-3.54565 -0.836446,-3.601366 l 0.04647,-1.649657 0.90615,2.323461 0.697038,1.022323 0.209112,-0.371754 -0.09294,-1.16173 -0.30205,-0.975854 -0.836446,-1.835535 -0.394988,-1.068792 c 0,0 -0.673804,-0.255581 -0.743508,-0.139408 -0.474383,0.790681 -0.42604,-0.141255 -1.60202,1.874715 -0.850353,-1.37782 -0.552756,-2.714115 -0.582034,-4.26788 0.695472,-1.311199 0.214197,-0.220912 1.893621,-2.323462 0.04376,-0.567433 0.08113,-0.864682 0.987471,-1.463781 l -0.25558,-0.30205 c 0,0 -2.11435,-0.882915 -2.369931,-1.092026 -0.14498,-0.11862 -1.835535,-1.55672 -1.835535,-1.55672 -0.451089,-1.744213 -0.093,-2.667947 -0.27882,-3.996354 -0.05353,-0.602172 -0.131225,-1.210892 -0.0697,-1.8123 0.07226,-0.706354 0.332198,-1.380764 0.511162,-2.06788 0.17001,-0.652739 0.534396,-1.951708 0.534396,-1.951708 0,0 0.394988,-0.697039 0.511161,-0.627335 0.116173,0.0697 0.580866,0.487927 0.580866,0.487927 0.903184,2.834863 2.617487,5.246517 4.158996,7.760362 0,0 1.649657,1.579954 1.672892,1.394077 0.02323,-0.185877 -1.022323,-2.950796 -1.022323,-2.950796 l 0.859681,0.720273 c 3.159838,4.855358 0.476649,4.732382 1.254672,8.75945 0.103685,0.536679 0.580865,1.533484 0.580865,1.533484 l 0.557631,0.789977 0.394989,-1.998177 0.55763,-2.091115 0.487927,-1.51025 c 0.551174,-0.319017 0.902326,-0.175572 1.347608,-0.30205 0,0 0.73189,0.139408 0.917767,0.348519 0.185877,0.209112 0.929385,0.720273 0.894533,1.347608 -0.0064,0.115994 -0.89419,6.258568 -0.89419,6.258568 l 0.173922,0.735051 c 0.245204,0.822711 0.459766,1.66585 0.882915,2.369931 0,0 0.133139,-0.75932 0.232346,-1.045558 0.104687,-0.30205 -0.2861,-2.602277 -0.25558,-2.462869 0.03333,0.152255 0.627334,1.277904 0.6041,1.370842 -0.02323,0.09294 0.162642,2.137585 0.116173,2.323462 -0.04647,0.185877 -0.209112,1.417311 -0.209112,1.417311 l 0.789977,1.696127 c 0,0 0.7389,-1.941152 0.975854,-2.881092 0.243777,-0.967002 0.396535,-1.979324 0.325285,-2.974031 -0.05771,-0.805671 -0.374751,-1.572206 -0.6041,-2.346696 -0.331712,-1.120161 -1.115262,-3.32255 -1.115262,-3.32255 l -0.580865,-1.765831 c 0,0 -0.03271,-1.493735 0.0697,-2.230523 0.175848,-1.265154 0.735706,-2.45499 0.929384,-3.717538 0.197639,-1.288371 0.343221,-2.604699 0.232346,-3.903416 C 39.949744,27.663508 39.598243,26.32477 39.136057,25.045583 38.871237,24.312645 38.513749,23.608829 38.090499,22.954468 37.558374,22.131782 37.021971,21.256689 36.23173,20.677475 35.539228,20.1699 34.678137,19.904602 33.838564,19.724856 32.428637,19.423002 30.951718,19.3962 29.516927,19.538979 Z"
     id="path23"
     sodipodi:nodetypes="sssscccsscccccccscccccccccscccccscssscsccsccsccccccsscccssssccsssccssssssss" /><path
     style="fill:#d7d4eb;fill-opacity:1;stroke:none;stroke-width:1px;stroke-linecap:butt;stroke-linejoin:miter;stroke-opacity:1"
     d="m 30.069579,41.230659 -1.235421,3.062741 -0.209112,0.952619 0.464692,-1.022323 1.277904,-2.881092 c 0.626239,-0.911344 1.482053,-2.06265 1.730979,-2.915945 l -1.847152,2.753303 -1.742596,-2.393166 c 0.342928,0.778286 0.81548,1.519536 1.375071,2.235919 z"
     id="path41"
     sodipodi:nodetypes="cccccccccc" /><path
     style="fill:#69c6f2;fill-opacity:1;stroke-width:0.6;stroke-dasharray:none;stroke:#8ad4f6;stroke-opacity:1"
     d="m 29.882635,18.109425 c -0.05301,-0.0099 -0.218162,-0.06096 -0.367016,-0.11363 -0.708935,-0.250844 -1.174985,-0.930748 -1.174985,-1.714149 0,-0.287681 0.01642,-0.380622 0.100192,-0.56686 0.05589,-0.124268 0.109246,-0.327943 0.120678,-0.460644 0.01744,-0.202462 0.0074,-0.259104 -0.06759,-0.380404 -0.0793,-0.12829 -0.08076,-0.138573 -0.01467,-0.102966 0.100414,0.0541 0.209736,0.182522 0.35994,0.42282 0.154607,0.247348 0.285448,0.299684 0.399221,0.159685 0.06414,-0.07892 0.07198,-0.13153 0.05319,-0.357315 -0.03707,-0.445593 0.0426,-0.728582 0.321571,-1.14231 0.258708,-0.383655 0.418287,-0.79424 0.374204,-0.962803 -0.03284,-0.125539 0.02379,-0.09104 0.172411,0.105072 0.315058,0.415705 0.44056,0.859249 0.407446,1.439987 -0.01078,0.188626 -0.01611,0.342955 -0.01189,0.342955 0.0042,0 0.114275,-0.103375 0.244602,-0.229703 0.236044,-0.228832 0.304436,-0.358042 0.266434,-0.503367 -0.03057,-0.116888 0.02086,-0.09056 0.119031,0.06095 0.18775,0.289789 0.191391,0.766174 0.01003,1.308538 -0.104019,0.31103 -0.100365,0.447385 0.0154,0.572282 0.0764,0.08244 0.1293,0.102 0.27582,0.102 0.161664,0 0.197328,-0.01687 0.329514,-0.155824 0.138607,-0.145704 0.148233,-0.171047 0.148233,-0.390221 0,-0.184013 0.0104,-0.225742 0.04853,-0.194127 0.10745,0.08918 0.163501,0.409018 0.163501,0.932921 v 0.520426 L 32.03209,17.09803 c -0.214836,0.439513 -0.553668,0.714012 -1.11884,0.906413 -0.272125,0.09264 -0.804598,0.146889 -1.030546,0.104998 z"
     id="path16" /><path
     style="fill:#69c6f2;fill-opacity:1;stroke-width:0.6;stroke-dasharray:none;stroke:#8ad4f6;stroke-opacity:1"
     d="m 41.580335,35.195954 c -0.05301,-0.0099 -0.218162,-0.06096 -0.367016,-0.11363 -0.708935,-0.250844 -1.174985,-0.930748 -1.174985,-1.714149 0,-0.287681 0.01642,-0.380622 0.100192,-0.56686 0.05589,-0.124268 0.109246,-0.327943 0.120678,-0.460644 0.01744,-0.202462 0.0074,-0.259104 -0.06759,-0.380404 -0.0793,-0.12829 -0.08076,-0.138573 -0.01467,-0.102966 0.100414,0.0541 0.209736,0.182522 0.35994,0.42282 0.154607,0.247348 0.285448,0.299684 0.399221,0.159685 0.06414,-0.07892 0.07198,-0.13153 0.05319,-0.357315 -0.03707,-0.445593 0.0426,-0.728582 0.321571,-1.14231 0.258708,-0.383655 0.418287,-0.79424 0.374204,-0.962803 -0.03284,-0.125539 0.02379,-0.09104 0.172411,0.105072 0.315058,0.415705 0.44056,0.859249 0.407446,1.439987 -0.01078,0.188626 -0.01611,0.342955 -0.01189,0.342955 0.0042,0 0.114275,-0.103375 0.244602,-0.229703 0.236044,-0.228832 0.304436,-0.358042 0.266434,-0.503367 -0.03057,-0.116888 0.02086,-0.09056 0.119031,0.06095 0.18775,0.289789 0.191391,0.766174 0.01003,1.308538 -0.104019,0.31103 -0.100365,0.447385 0.0154,0.572282 0.0764,0.08244 0.1293,0.102 0.27582,0.102 0.161664,0 0.197328,-0.01687 0.329514,-0.155824 0.138607,-0.145704 0.148233,-0.171047 0.148233,-0.390221 0,-0.184013 0.0104,-0.225742 0.04853,-0.194127 0.10745,0.08918 0.163501,0.409018 0.163501,0.932921 v 0.520426 l -0.144342,0.295292 c -0.214836,0.439513 -0.553668,0.714012 -1.11884,0.906413 -0.272125,0.09264 -0.804598,0.146889 -1.030546,0.104998 z"
     id="path42" /><path
     style="fill:#69c6f2;fill-opacity:1;stroke-width:0.6;stroke-dasharray:none;stroke:#8ad4f6;stroke-opacity:1"
     d="m 18.0535,35.458824 c -0.05301,-0.0099 -0.218162,-0.06096 -0.367016,-0.11363 -0.708935,-0.250844 -1.174985,-0.930748 -1.174985,-1.714149 0,-0.287681 0.01642,-0.380622 0.100192,-0.56686 0.05589,-0.124268 0.109246,-0.327943 0.120678,-0.460644 0.01744,-0.202462 0.0074,-0.259104 -0.06759,-0.380404 -0.0793,-0.12829 -0.08076,-0.138573 -0.01467,-0.102966 0.100414,0.0541 0.209736,0.182522 0.35994,0.42282 0.154607,0.247348 0.285448,0.299684 0.399221,0.159685 0.06414,-0.07892 0.07198,-0.13153 0.05319,-0.357315 -0.03707,-0.445593 0.0426,-0.728582 0.321571,-1.14231 0.258708,-0.383655 0.418287,-0.79424 0.374204,-0.962803 -0.03284,-0.125539 0.02379,-0.09104 0.172411,0.105072 0.315058,0.415705 0.44056,0.859249 0.407446,1.439987 -0.01078,0.188626 -0.01611,0.342955 -0.01189,0.342955 0.0042,0 0.114275,-0.103375 0.244602,-0.229703 0.236044,-0.228832 0.304436,-0.358042 0.266434,-0.503367 -0.03057,-0.116888 0.02086,-0.09056 0.119031,0.06095 0.18775,0.289789 0.191391,0.766174 0.01003,1.308538 -0.104019,0.31103 -0.100365,0.447385 0.0154,0.572282 0.0764,0.08244 0.1293,0.102 0.27582,0.102 0.161664,0 0.197328,-0.01687 0.329514,-0.155824 0.138607,-0.145704 0.148233,-0.171047 0.148233,-0.390221 0,-0.184013 0.0104,-0.225742 0.04853,-0.194127 0.10745,0.08918 0.163501,0.409018 0.163501,0.932921 v 0.520426 l -0.144342,0.295292 c -0.214836,0.439513 -0.553668,0.714012 -1.11884,0.906413 -0.272125,0.09264 -0.804598,0.146889 -1.030546,0.104998 z"
     id="path43" /><path
     style="fill:#69c6f2;fill-opacity:1;stroke-width:0.6;stroke-dasharray:none;stroke:#8ad4f6;stroke-opacity:1"
     d="m 29.882635,54.254005 c -0.05301,-0.0099 -0.218162,-0.06096 -0.367016,-0.11363 -0.708935,-0.250844 -1.174985,-0.930748 -1.174985,-1.714149 0,-0.287681 0.01642,-0.380622 0.100192,-0.56686 0.05589,-0.124268 0.109246,-0.327943 0.120678,-0.460644 0.01744,-0.202462 0.0074,-0.259104 -0.06759,-0.380404 -0.0793,-0.12829 -0.08076,-0.138573 -0.01467,-0.102966 0.100414,0.0541 0.209736,0.182522 0.35994,0.42282 0.154607,0.247348 0.285448,0.299684 0.399221,0.159685 0.06414,-0.07892 0.07198,-0.13153 0.05319,-0.357315 -0.03707,-0.445593 0.0426,-0.728582 0.321571,-1.14231 0.258708,-0.383655 0.418287,-0.79424 0.374204,-0.962803 -0.03284,-0.125539 0.02379,-0.09104 0.172411,0.105072 0.315058,0.415705 0.44056,0.859249 0.407446,1.439987 -0.01078,0.188626 -0.01611,0.342955 -0.01189,0.342955 0.0042,0 0.114275,-0.103375 0.244602,-0.229703 0.236044,-0.228832 0.304436,-0.358042 0.266434,-0.503367 -0.03057,-0.116888 0.02086,-0.09056 0.119031,0.06095 0.18775,0.289789 0.191391,0.766174 0.01003,1.308538 -0.104019,0.31103 -0.100365,0.447385 0.0154,0.572282 0.0764,0.08244 0.1293,0.102 0.27582,0.102 0.161664,0 0.197328,-0.01687 0.329514,-0.155824 0.138607,-0.145704 0.148233,-0.171047 0.148233,-0.390221 0,-0.184013 0.0104,-0.225742 0.04853,-0.194127 0.10745,0.08918 0.163501,0.409018 0.163501,0.932921 v 0.520426 L 32.03209,53.24261 c -0.214836,0.439513 -0.553668,0.714012 -1.11884,0.906413 -0.272125,0.09264 -0.804598,0.146889 -1.030546,0.104998 z"
     id="path44" /><path
     style="opacity:1;fill:#000000;stroke:none;stroke-width:1px;stroke-linecap:butt;stroke-linejoin:miter;stroke-opacity:1"
     d="m 27.123762,31.214373 c 0.34313,0.14352 -0.06634,0.824492 -0.30205,1.138497 -0.211704,0.28203 -0.555268,0.510781 -0.90615,0.546013 -0.298581,0.02998 -0.743507,-0.185877 -0.848063,-0.30205 -0.104556,-0.116173 -0.328695,-0.349091 -0.441458,-0.557631 -0.09902,-0.18312 -0.164148,-0.386993 -0.197494,-0.592482 -0.03908,-0.240813 0,-0.731891 0,-0.731891 l 0.116173,-0.313667 0.162642,-0.197494 c 0,0 1.610933,0.673803 2.4164,1.010705 z"
     id="path26"
     sodipodi:nodetypes="sssssscccs" /><path
     style="opacity:1;fill:#ffffff;fill-opacity:1;stroke:none;stroke-width:1px;stroke-linecap:butt;stroke-linejoin:miter;stroke-opacity:1"
     d="m 26.96112,31.330546 c 0,0 -0.338396,0.547602 -0.592483,0.731891 -0.184549,0.133854 -0.411336,0.256867 -0.638952,0.243963 -0.361404,-0.02049 -0.725162,-0.227741 -0.964236,-0.499544 -0.171528,-0.19501 -0.228957,-0.475008 -0.267198,-0.73189 -0.03141,-0.210976 0.03485,-0.638952 0.03485,-0.638952 0,0 -0.01162,-0.17426 0.05809,-0.17426 0.0697,0 2.369931,1.068792 2.369931,1.068792 z"
     id="path27"
     sodipodi:nodetypes="csssscscc" /><path
     style="fill:#1a1a1a;stroke:none;stroke-width:1px;stroke-linecap:butt;stroke-linejoin:miter;stroke-opacity:1"
     d="m 24.567955,29.518246 c 0.267198,0.220729 0.999088,0.766743 1.092027,0.836447 0.09294,0.0697 1.33599,0.476309 1.33599,0.476309 l 0.615717,0.267198 c -0.379048,0.0987 -0.753076,0.186111 -1.010705,0.01162 l -1.370843,-0.580866 -0.975854,-0.534396 z"
     id="path28"
     sodipodi:nodetypes="cscccccc" /><path
     style="fill:#000000;stroke:none;stroke-width:1px;stroke-linecap:butt;stroke-linejoin:miter;stroke-opacity:1"
     d="m 26.374707,31.004608 c 0.08215,0.180723 0.101815,0.462798 -0.01643,0.640745 -0.118021,0.177611 -0.370006,0.265107 -0.583242,0.26287 -0.191058,-0.002 -0.390953,-0.103308 -0.517524,-0.246441 -0.103248,-0.11676 -0.147865,-0.410734 -0.147865,-0.443592 0,-0.03286 0.172509,-0.52574 0.172509,-0.52574 l 0.16429,-0.115005 z"
     id="path29"
     sodipodi:nodetypes="cssssccc" /><path
     style="opacity:1;fill:#eaeee8;fill-opacity:1;stroke:none;stroke-width:1px;stroke-linecap:butt;stroke-linejoin:miter;stroke-opacity:1"
     d="m 21.202811,27.366349 c 0.669183,-0.88698 0.970921,-0.76482 1.5115,-1.01862 l 0.98576,-0.164294 c 0.99671,-2.267251 1.47776,-4.862654 2.99014,-6.801752 l 0.39431,-0.147868 c 0.61413,0.358421 0.68283,0.921374 0.98576,1.396495 0.88378,1.658951 1.27737,3.415939 1.74151,5.158817 0.19768,-0.05648 6.224044,1.432989 6.34173,1.938664 -1.363319,-1.165036 -14.01392,-2.392747 -14.95071,-0.361446 z"
     id="path32"
     sodipodi:nodetypes="cccccccccc" /><path
     style="fill:#d7d4eb;fill-opacity:1;stroke:none;stroke-width:1px;stroke-linecap:butt;stroke-linejoin:miter;stroke-opacity:1"
     d="m 36.345592,44.450812 -1.235421,3.062741 -0.209112,0.952619 0.464692,-1.022323 1.277904,-2.881092 c 0.429087,-1.116711 0.512721,-2.752683 0.761647,-3.605978 z"
     id="path2"
     sodipodi:nodetypes="ccccccc" /><path
     style="fill:#c4d4d2;fill-opacity:1;stroke:#a5b8ad;stroke-width:0.4;stroke-linecap:butt;stroke-linejoin:miter;stroke-opacity:1;stroke-dasharray:none"
     d="m 31.603956,42.932319 c -1.725082,0.213582 -2.086528,1.725082 -2.086528,1.725082 0,0 -0.690033,1.429354 -0.75575,1.495072 -0.06572,0.06572 -0.591457,1.133625 -0.575027,1.199342 0.01643,0.06572 0.3611,0.429157 0.55221,0.318819 0.19111,-0.110337 0.334975,-0.187384 0.334975,-0.187384 0,0 -0.213582,0.361446 -0.03286,0.575028 0.180723,0.213581 0.870756,0 0.969332,-0.377876 0.09858,-0.377875 -0.147864,0.640745 0.115005,0.624316 0.26287,-0.01643 0.476452,0.328587 1.133626,-0.788609 0.657174,-1.117196 0.197152,-0.361446 0.197152,-0.361446 0,0 -0.345016,0.575028 0.06572,0.624316 0.410734,0.04929 0.722892,-0.213582 0.722892,-0.213582 l 0.575027,-1.166484 0.492881,-1.347207 c 0,0 0.164294,-0.739321 0.180723,-0.870756 0.01643,-0.131435 -0.197152,-0.75575 -0.197152,-0.75575 l -0.870756,-0.558598 z"
     id="path25" /><path
     style="fill:none;stroke:#a5b8ad;stroke-width:0.3;stroke-linecap:round;stroke-linejoin:miter;stroke-dasharray:none;stroke-opacity:1"
     d="m 29.158149,47.404084 c 0.312312,-0.531139 0.870091,-1.768412 0.870091,-1.768412"
     id="path37" /><path
     style="fill:none;stroke:#a5b8ad;stroke-width:0.3;stroke-linecap:round;stroke-linejoin:miter;stroke-dasharray:none;stroke-opacity:1"
     d="m 29.979617,47.666954 c 0.312312,-0.531139 0.870091,-1.768412 0.870091,-1.768412"
     id="path38" /><path
     style="fill:none;stroke:#a5b8ad;stroke-width:0.3;stroke-linecap:round;stroke-linejoin:miter;stroke-dasharray:none;stroke-opacity:1"
     d="m 31.458259,47.075497 c 0.312312,-0.531139 0.870091,-1.768412 0.870091,-1.768412"
     id="path39" /></svg>
