<?xml version="1.0" encoding="UTF-8" standalone="no"?>
<svg
   viewBox="0 0 60 60"
   version="1.1"
   id="svg8"
   sodipodi:docname="0Y-Yurei.svg"
   inkscape:version="1.3 (0e150ed6c4, 2023-07-21)"
   xml:space="preserve"
   xmlns:inkscape="http://www.inkscape.org/namespaces/inkscape"
   xmlns:sodipodi="http://sodipodi.sourceforge.net/DTD/sodipodi-0.dtd"
   xmlns="http://www.w3.org/2000/svg"
   xmlns:svg="http://www.w3.org/2000/svg"><sodipodi:namedview
     id="namedview8"
     pagecolor="#ffffff"
     bordercolor="#666666"
     borderopacity="1.0"
     inkscape:showpageshadow="2"
     inkscape:pageopacity="0.0"
     inkscape:pagecheckerboard="0"
     inkscape:deskcolor="#d1d1d1"
     inkscape:zoom="5.379904"
     inkscape:cx="-167.47511"
     inkscape:cy="98.886523"
     inkscape:window-width="3840"
     inkscape:window-height="2054"
     inkscape:window-x="-11"
     inkscape:window-y="-11"
     inkscape:window-maximized="1"
     inkscape:current-layer="svg8"
     showgrid="false" /><defs
     id="defs1"><filter
       id="0KY_svg__a"
       x="-0.14731479"
       y="-0.1209949"
       width="1.3495476"
       height="1.287247"><feGaussianBlur
         in="SourceAlpha"
         result="blur"
         stdDeviation="2"
         id="feGaussianBlur1" /><feOffset
         dx="2"
         dy="2"
         result="offsetBlur"
         id="feOffset1" /><feBlend
         in="SourceGraphic"
         in2="offsetBlur"
         id="feBlend1" /></filter></defs><path
     fill="#cdbc68"
     d="M 26.007,8.117 14.316,11.403 7.894,51.883 H 44.263 L 38.079,11.664 Z"
     filter="url(#0KY_svg__a)"
     transform="matrix(1.05,0,0,1.05,2.618,0.83296814)"
     id="path1"
     style="fill:#e9dbc9;fill-opacity:1;stroke:#333333;stroke-width:0.952381;stroke-dasharray:none"
     sodipodi:nodetypes="cccccc" /><path
     style="fill:#0b161f;fill-opacity:1;stroke:none;stroke-width:0.937716px;stroke-linecap:butt;stroke-linejoin:miter;stroke-opacity:1"
     d="m 17.734762,54.09435 c 0.339492,-1.882292 0.678983,-2.027224 1.018475,-6.396049 l 0.168443,-4.837647 2.880283,-17.482793 c 0,0 4.285741,-5.75231 8.080788,-5.611326 2.472151,0.09184 8.174351,5.611326 8.174351,5.611326 l 3.422211,18.344612 -0.680293,5.612204 c -0.11079,1.744872 0.136313,3.370446 0.72271,4.882922 l -5.30848,-3.646982 -4.039499,2.018492 c 0,0 -1.949275,-2.832667 -3.346621,-2.808457 -0.645628,0.01119 -1.220888,1.211437 -1.989555,1.407589 -2.967884,-1.209503 -9.102813,2.906109 -9.102813,2.906109 z"
     id="path3"
     sodipodi:nodetypes="ccccsccccccscc" /><path
     id="path2"
     style="fill:#c4d4d2;stroke-width:0.5;stroke-linecap:round;stroke-linejoin:round;stroke:#a5b8ad;stroke-opacity:1;stroke-dasharray:none"
     d="M 29.935547 25.376953 A 8.8738956 9.4285135 0 0 0 21.333984 32.582031 A 1.0022236 1.6994226 0 0 0 20.957031 32.457031 A 1.0022236 1.6994226 0 0 0 19.955078 34.15625 A 1.0022236 1.6994226 0 0 0 20.957031 35.855469 A 1.0022236 1.6994226 0 0 0 21.130859 35.828125 A 8.8738956 9.4285135 0 0 0 29.935547 44.234375 A 8.8738956 9.4285135 0 0 0 38.753906 35.84375 A 1.0022236 1.6994226 0 0 0 38.867188 35.855469 A 1.0022236 1.6994226 0 0 0 39.869141 34.15625 A 1.0022236 1.6994226 0 0 0 38.867188 32.457031 A 1.0022236 1.6994226 0 0 0 38.550781 32.546875 A 8.8738956 9.4285135 0 0 0 29.935547 25.376953 z " /><path
     style="fill:#000000;fill-opacity:1;stroke:none;stroke-width:0.878807;stroke-linecap:round;stroke-linejoin:round"
     id="path5"
     sodipodi:type="arc"
     sodipodi:cx="26.269724"
     sodipodi:cy="32.125298"
     sodipodi:rx="1.6330433"
     sodipodi:ry="2.9271529"
     sodipodi:start="0"
     sodipodi:end="3.1415927"
     sodipodi:arc-type="slice"
     d="m 27.902767,32.125298 a 1.6330433,2.9271529 0 0 1 -0.816521,2.534988 1.6330433,2.9271529 0 0 1 -1.633044,0 1.6330433,2.9271529 0 0 1 -0.816521,-2.534988 h 1.633043 z" /><path
     style="fill:#000000;fill-opacity:1;stroke:none;stroke-width:0.878807;stroke-linecap:round;stroke-linejoin:round"
     id="path6"
     sodipodi:type="arc"
     sodipodi:cx="33.11002"
     sodipodi:cy="32.125298"
     sodipodi:rx="1.6330433"
     sodipodi:ry="2.9271529"
     sodipodi:start="0"
     sodipodi:end="3.1415927"
     sodipodi:arc-type="slice"
     d="m 34.743063,32.125298 a 1.6330433,2.9271529 0 0 1 -0.816522,2.534988 1.6330433,2.9271529 0 0 1 -1.633043,0 1.6330433,2.9271529 0 0 1 -0.816522,-2.534988 h 1.633044 z" /><path
     style="fill:#0b161f;fill-opacity:1;stroke:none;stroke-width:0.937716px;stroke-linecap:butt;stroke-linejoin:miter;stroke-opacity:1"
     d="m 30.633449,25.20357 c 0.129834,0.219486 3.777535,3.550436 3.86941,4.830624 l 4.290584,2.076269 c 0,0 -3.717541,-6.799504 -4.240439,-6.799504 -0.5229,0 -3.919555,-0.107389 -3.919555,-0.107389 z"
     id="path9"
     sodipodi:nodetypes="cccsc" /><path
     style="fill:#0b161f;fill-opacity:1;stroke:none;stroke-width:0.937716px;stroke-linecap:butt;stroke-linejoin:miter;stroke-opacity:1"
     d="m 29.38842,24.987885 c 0.352661,0.23006 -4.099661,4.817741 -3.869411,5.508491 l -5.184136,12.275086 c -0.485696,0.09341 0.607322,-16.814982 4.486936,-17.460503 0.515809,-0.08583 4.566611,-0.323074 4.566611,-0.323074 z"
     id="path10"
     sodipodi:nodetypes="cccsc" /><path
     style="fill:#f9f9f9;stroke:none;stroke-width:0.937716px;stroke-linecap:butt;stroke-linejoin:miter;stroke-opacity:1"
     d="m 27.2249,27.657937 2.588219,-4.19085 2.403346,4.19085 z"
     id="path7"
     sodipodi:nodetypes="cccc" /><path
     style="fill:none;stroke:#f9f9f9;stroke-width:0.937716px;stroke-linecap:butt;stroke-linejoin:miter;stroke-opacity:1"
     d="m 21.61709,25.562312 c 6.824105,3.460492 9.74384,2.560611 16.638554,0.123249"
     id="path8"
     sodipodi:nodetypes="cc" /><path
     id="path11"
     style="fill:#1a1a1a;stroke-width:0.333509;stroke-linecap:round;stroke-linejoin:round"
     d="m 33.227824,40.210969 c 1e-6,0.130466 -1.40466,-0.292728 -3.137396,-0.292728 -1.732736,0 -3.137397,0.478873 -3.137397,0.348407 0,-0.130465 1.404661,-1.168863 3.137397,-1.168863 1.732736,0 3.137397,0.982718 3.137396,1.113184 z"
     sodipodi:nodetypes="sssss" /><path
     style="fill:#69c6f2;fill-opacity:1;stroke-width:0.0385502"
     d="m 29.883804,21.446034 c -0.05301,-0.0099 -0.218162,-0.06096 -0.367016,-0.11363 -0.708935,-0.250844 -1.174985,-0.930748 -1.174985,-1.714149 0,-0.287681 0.01642,-0.380622 0.100192,-0.56686 0.05589,-0.124268 0.109246,-0.327943 0.120678,-0.460644 0.01744,-0.202462 0.0074,-0.259104 -0.06759,-0.380404 -0.0793,-0.12829 -0.08076,-0.138573 -0.01467,-0.102966 0.100414,0.0541 0.209736,0.182522 0.35994,0.42282 0.154607,0.247348 0.285448,0.299684 0.399221,0.159685 0.06414,-0.07892 0.07198,-0.13153 0.05319,-0.357315 -0.03707,-0.445593 0.0426,-0.728582 0.321571,-1.14231 0.258708,-0.383655 0.418287,-0.79424 0.374204,-0.962803 -0.03284,-0.125539 0.02379,-0.09104 0.172411,0.105072 0.315058,0.415705 0.44056,0.859249 0.407446,1.439987 -0.01078,0.188626 -0.01611,0.342955 -0.01189,0.342955 0.0042,0 0.114275,-0.103375 0.244602,-0.229703 0.236044,-0.228832 0.304436,-0.358042 0.266434,-0.503367 -0.03057,-0.116888 0.02086,-0.09056 0.119031,0.06095 0.18775,0.289789 0.191391,0.766174 0.01003,1.308538 -0.104019,0.31103 -0.100365,0.447385 0.0154,0.572282 0.0764,0.08244 0.1293,0.102 0.27582,0.102 0.161664,0 0.197328,-0.01687 0.329514,-0.155824 0.138607,-0.145704 0.148233,-0.171047 0.148233,-0.390221 0,-0.184013 0.0104,-0.225742 0.04853,-0.194127 0.10745,0.08918 0.163501,0.409018 0.163501,0.932921 v 0.520426 l -0.144342,0.295292 c -0.214836,0.439513 -0.553668,0.714012 -1.11884,0.906413 -0.272125,0.09264 -0.804598,0.146889 -1.030546,0.104998 z"
     id="path14" /><path
     style="fill:#69c6f2;fill-opacity:1;stroke-width:0.0385502"
     d="m 29.883804,15.590911 c -0.05301,-0.0099 -0.218162,-0.06096 -0.367016,-0.11363 -0.708935,-0.250844 -1.174985,-0.930748 -1.174985,-1.714149 0,-0.287681 0.01642,-0.380622 0.100192,-0.56686 0.05589,-0.124268 0.109246,-0.327943 0.120678,-0.460644 0.01744,-0.202462 0.0074,-0.259104 -0.06759,-0.380404 -0.0793,-0.12829 -0.08076,-0.138573 -0.01467,-0.102966 0.100414,0.0541 0.209736,0.182522 0.35994,0.42282 0.154607,0.247348 0.285448,0.299684 0.399221,0.159685 0.06414,-0.07892 0.07198,-0.13153 0.05319,-0.357315 -0.03707,-0.445593 0.0426,-0.728582 0.321571,-1.14231 0.258708,-0.383655 0.418287,-0.79424 0.374204,-0.962803 -0.03284,-0.125539 0.02379,-0.09104 0.172411,0.105072 0.315058,0.415705 0.44056,0.859249 0.407446,1.439987 -0.01078,0.188626 -0.01611,0.342955 -0.01189,0.342955 0.0042,0 0.114275,-0.103375 0.244602,-0.229703 0.236044,-0.228832 0.304436,-0.358042 0.266434,-0.503367 -0.03057,-0.116888 0.02086,-0.09056 0.119031,0.06095 0.18775,0.289789 0.191391,0.766174 0.01003,1.308538 -0.104019,0.31103 -0.100365,0.447385 0.0154,0.572282 0.0764,0.08244 0.1293,0.102 0.27582,0.102 0.161664,0 0.197328,-0.01687 0.329514,-0.155824 0.138607,-0.145704 0.148233,-0.171047 0.148233,-0.390221 0,-0.184013 0.0104,-0.225742 0.04853,-0.194127 0.10745,0.08918 0.163501,0.409018 0.163501,0.932921 v 0.520426 l -0.144342,0.295292 c -0.214836,0.439513 -0.553668,0.714012 -1.11884,0.906413 -0.272125,0.09264 -0.804598,0.146889 -1.030546,0.104998 z"
     id="path15" /><path
     style="fill:#69c6f2;fill-opacity:1;stroke-width:0.0385502"
     d="m 41.965804,35.57268 c -0.05301,-0.0099 -0.218162,-0.06096 -0.367016,-0.11363 -0.708935,-0.250844 -1.174985,-0.930748 -1.174985,-1.714149 0,-0.287681 0.01642,-0.380622 0.100192,-0.56686 0.05589,-0.124268 0.109246,-0.327943 0.120678,-0.460644 0.01744,-0.202462 0.0074,-0.259104 -0.06759,-0.380404 -0.0793,-0.12829 -0.08076,-0.138573 -0.01467,-0.102966 0.100414,0.0541 0.209736,0.182522 0.35994,0.42282 0.154607,0.247348 0.285448,0.299684 0.399221,0.159685 0.06414,-0.07892 0.07198,-0.13153 0.05319,-0.357315 -0.03707,-0.445593 0.0426,-0.728582 0.321571,-1.14231 0.258708,-0.383655 0.418287,-0.79424 0.374204,-0.962803 -0.03284,-0.125539 0.02379,-0.09104 0.172411,0.105072 0.315058,0.415705 0.44056,0.859249 0.407446,1.439987 -0.01078,0.188626 -0.01611,0.342955 -0.01189,0.342955 0.0042,0 0.114275,-0.103375 0.244602,-0.229703 0.236044,-0.228832 0.304436,-0.358042 0.266434,-0.503367 -0.03057,-0.116888 0.02086,-0.09056 0.119031,0.06095 0.18775,0.289789 0.191391,0.766174 0.01003,1.308538 -0.104019,0.31103 -0.100365,0.447385 0.0154,0.572282 0.0764,0.08244 0.1293,0.102 0.27582,0.102 0.161664,0 0.197328,-0.01687 0.329514,-0.155824 0.138607,-0.145704 0.148233,-0.171047 0.148233,-0.390221 0,-0.184013 0.0104,-0.225742 0.04853,-0.194127 0.10745,0.08918 0.163501,0.409018 0.163501,0.932921 v 0.520426 l -0.144342,0.295292 c -0.214836,0.439513 -0.553668,0.714012 -1.11884,0.906413 -0.272125,0.09264 -0.804598,0.146889 -1.030546,0.104998 z"
     id="path16" /><path
     style="fill:#69c6f2;fill-opacity:1;stroke-width:0.0385502"
     d="m 17.058296,35.57268 c -0.05301,-0.0099 -0.218162,-0.06096 -0.367016,-0.11363 -0.708935,-0.250844 -1.174985,-0.930748 -1.174985,-1.714149 0,-0.287681 0.01642,-0.380622 0.100192,-0.56686 0.05589,-0.124268 0.109246,-0.327943 0.120678,-0.460644 0.01744,-0.202462 0.0074,-0.259104 -0.06759,-0.380404 -0.0793,-0.12829 -0.08076,-0.138573 -0.01467,-0.102966 0.100414,0.0541 0.209736,0.182522 0.35994,0.42282 0.154607,0.247348 0.285448,0.299684 0.399221,0.159685 0.06414,-0.07892 0.07198,-0.13153 0.05319,-0.357315 -0.03707,-0.445593 0.0426,-0.728582 0.321571,-1.14231 0.258708,-0.383655 0.418287,-0.79424 0.374204,-0.962803 -0.03284,-0.125539 0.02379,-0.09104 0.172411,0.105072 0.315058,0.415705 0.44056,0.859249 0.407446,1.439987 -0.01078,0.188626 -0.01611,0.342955 -0.01189,0.342955 0.0042,0 0.114275,-0.103375 0.244602,-0.229703 0.236044,-0.228832 0.304436,-0.358042 0.266434,-0.503367 -0.03057,-0.116888 0.02086,-0.09056 0.119031,0.06095 0.18775,0.289789 0.191391,0.766174 0.01003,1.308538 -0.104019,0.31103 -0.100365,0.447385 0.0154,0.572282 0.0764,0.08244 0.1293,0.102 0.27582,0.102 0.161664,0 0.197328,-0.01687 0.329514,-0.155824 0.138607,-0.145704 0.148233,-0.171047 0.148233,-0.390221 0,-0.184013 0.0104,-0.225742 0.04853,-0.194127 0.10745,0.08918 0.163501,0.409018 0.163501,0.932921 v 0.520426 l -0.144342,0.295292 c -0.214836,0.439513 -0.553668,0.714012 -1.11884,0.906413 -0.272125,0.09264 -0.804598,0.146889 -1.030546,0.104998 z"
     id="path17" /><path
     style="fill:#ffffff;fill-opacity:1;stroke:none;stroke-width:0.639194;stroke-linecap:round;stroke-linejoin:round"
     id="path45"
     sodipodi:type="arc"
     sodipodi:cx="26.284485"
     sodipodi:cy="32.128601"
     sodipodi:rx="1.1877822"
     sodipodi:ry="2.1290431"
     sodipodi:start="0"
     sodipodi:end="3.1415927"
     sodipodi:arc-type="slice"
     d="m 27.472267,32.128601 a 1.1877822,2.1290431 0 0 1 -0.593891,1.843806 1.1877822,2.1290431 0 0 1 -1.187782,-10e-7 1.1877822,2.1290431 0 0 1 -0.593891,-1.843805 h 1.187782 z" /><path
     style="fill:#ffffff;fill-opacity:1;stroke:none;stroke-width:0.639194;stroke-linecap:round;stroke-linejoin:round"
     id="path46"
     sodipodi:type="arc"
     sodipodi:cx="33.056713"
     sodipodi:cy="32.128601"
     sodipodi:rx="1.1877822"
     sodipodi:ry="2.1290431"
     sodipodi:start="0"
     sodipodi:end="3.1415927"
     sodipodi:arc-type="slice"
     d="m 34.244495,32.128601 a 1.1877822,2.1290431 0 0 1 -0.593891,1.843806 1.1877822,2.1290431 0 0 1 -1.187782,-10e-7 1.1877822,2.1290431 0 0 1 -0.593891,-1.843805 h 1.187782 z" /><g
     id="g54"
     transform="translate(0,0.98576124)"><path
       style="fill:#0b161f;fill-opacity:1;stroke:none;stroke-width:1.04789px;stroke-linecap:butt;stroke-linejoin:miter;stroke-opacity:1"
       d="m 21.267029,46.286185 c -4.216117,3.450415 2.766292,7.4425 4.063019,7.024201 -1.149248,-1.852387 -1.032217,-4.197215 -1.44616,-6.335555 0,0 11.707005,0 11.982463,0.344324 0.275459,0.344324 -0.545022,4.314209 -2.410265,6.40442 2.516259,0.245645 7.352248,-4.20312 5.302584,-4.95826 L 36.830457,44.63343 Z"
       id="path12"
       sodipodi:nodetypes="cccscccc" /><path
       style="fill:#0b161f;fill-opacity:1;stroke:none;stroke-width:1.04789px;stroke-linecap:butt;stroke-linejoin:miter;stroke-opacity:1"
       d="m 18.787898,49.936015 c -0.212657,1.194479 1.341623,3.854524 2.134806,3.649831 l 1.515024,-5.164855 7.299662,-0.413189 c -0.357456,1.270908 -1.931193,3.082384 -3.030048,4.682802 2.131215,-1.259199 5.163693,-2.138919 5.715772,-4.063019 l 5.37145,1.30843 -0.275459,3.718694 c 1.495543,-0.77786 2.092035,-2.230009 3.098912,-3.37437 l -8.676955,-4.407343 z"
       id="path13"
       sodipodi:nodetypes="ccccccccccc" /><path
       style="fill:#c4d4d2;fill-opacity:1;stroke:#a5b8ad;stroke-width:0.446997;stroke-linecap:butt;stroke-linejoin:miter;stroke-dasharray:none;stroke-opacity:1"
       d="m 39.617024,46.104095 c 1.927768,0.238676 2.331681,1.927765 2.331681,1.927765 0,0 0.771108,1.597301 0.844546,1.670732 0.07344,0.07342 1.064863,2.294967 1.046503,2.368409 -0.01836,0.07342 -0.403527,0.479572 -0.617091,0.356279 -0.213565,-0.123304 -0.374333,-0.209407 -0.374333,-0.209407 0,0 0.238677,0.403918 0.03672,0.642592 -0.201957,0.238675 -0.973064,0 -1.083222,-0.422278 -0.110163,-0.422267 0.165237,0.716034 -0.128518,0.697674 -0.293755,-0.01833 -0.936345,-0.660947 -1.670733,-1.90941 -0.734388,-1.248464 -0.220316,-0.403918 -0.220316,-0.403918 0,0 0.385553,0.642592 -0.07344,0.697673 -0.458993,0.05509 -0.807827,-0.238674 -0.807827,-0.238674 l -0.642589,-1.303545 -0.550791,-1.505488 c 0,0 -0.183598,-0.826185 -0.201957,-0.973068 -0.01836,-0.146873 0.220316,-0.844545 0.220316,-0.844545 l 0.973064,-0.62423 z"
       id="path47"
       sodipodi:nodetypes="cccsccsscscccccsccc" /><path
       style="fill:none;stroke:#a5b8ad;stroke-width:0.335248;stroke-linecap:round;stroke-linejoin:miter;stroke-dasharray:none;stroke-opacity:1"
       d="M 42.741044,52.09736 C 42.392037,51.503826 41.768723,50.121173 41.768723,50.121173"
       id="path48" /><path
       style="fill:none;stroke:#a5b8ad;stroke-width:0.335248;stroke-linecap:round;stroke-linejoin:miter;stroke-dasharray:none;stroke-opacity:1"
       d="M 41.74962,52.409487 C 41.400614,51.815942 40.777299,50.433289 40.777299,50.433289"
       id="path49" /><path
       style="fill:none;stroke:#a5b8ad;stroke-width:0.446997;stroke-linecap:round;stroke-linejoin:miter;stroke-dasharray:none;stroke-opacity:1"
       d="M 39.766772,50.720391 C 39.417766,50.126846 39.106566,49.221556 39.106566,49.221556"
       id="path50"
       sodipodi:nodetypes="cc" /><path
       style="fill:#c4d4d2;fill-opacity:1;stroke:#a5b8ad;stroke-width:0.446997;stroke-linecap:butt;stroke-linejoin:miter;stroke-dasharray:none;stroke-opacity:1"
       d="m 20.382977,46.104095 c -1.927768,0.238676 -2.331682,1.927765 -2.331682,1.927765 0,0 -0.771107,1.597301 -0.844545,1.670732 -0.07344,0.07342 -1.064863,2.294967 -1.046503,2.368409 0.01836,0.07342 0.403527,0.479572 0.617091,0.356279 0.213564,-0.123304 0.374333,-0.209407 0.374333,-0.209407 0,0 -0.238677,0.403918 -0.03672,0.642592 0.201957,0.238675 0.973064,0 1.083222,-0.422278 0.110163,-0.422267 -0.165237,0.716034 0.128517,0.697674 0.293756,-0.01833 0.936346,-0.660947 1.670734,-1.90941 0.734388,-1.248464 0.220316,-0.403918 0.220316,-0.403918 0,0 -0.385553,0.642592 0.07344,0.697673 0.458992,0.05509 0.807827,-0.238674 0.807827,-0.238674 l 0.642589,-1.303545 0.550791,-1.505488 c 0,0 0.183598,-0.826185 0.201957,-0.973068 0.01836,-0.146873 -0.220316,-0.844545 -0.220316,-0.844545 l -0.973064,-0.62423 z"
       id="path51"
       sodipodi:nodetypes="cccsccsscscccccsccc" /><path
       style="fill:none;stroke:#a5b8ad;stroke-width:0.335248;stroke-linecap:round;stroke-linejoin:miter;stroke-dasharray:none;stroke-opacity:1"
       d="m 17.258957,52.09736 c 0.349006,-0.593534 0.972321,-1.976187 0.972321,-1.976187"
       id="path52" /><path
       style="fill:none;stroke:#a5b8ad;stroke-width:0.335248;stroke-linecap:round;stroke-linejoin:miter;stroke-dasharray:none;stroke-opacity:1"
       d="m 18.25038,52.409487 c 0.349007,-0.593545 0.972321,-1.976198 0.972321,-1.976198"
       id="path53" /><path
       style="fill:none;stroke:#a5b8ad;stroke-width:0.446997;stroke-linecap:round;stroke-linejoin:miter;stroke-dasharray:none;stroke-opacity:1"
       d="m 20.233229,50.720391 c 0.349006,-0.593545 0.660206,-1.498835 0.660206,-1.498835"
       id="path54"
       sodipodi:nodetypes="cc" /></g></svg>
