<?xml version="1.0" encoding="UTF-8" standalone="no"?>
<svg
   viewBox="0 0 60 60"
   version="1.1"
   id="svg6"
   sodipodi:docname="1G-Tengu.svg"
   inkscape:version="1.4.4 (dcaf3e7, 2026-05-05)"
   xmlns:inkscape="http://www.inkscape.org/namespaces/inkscape"
   xmlns:sodipodi="http://sodipodi.sourceforge.net/DTD/sodipodi-0.dtd"
   xmlns="http://www.w3.org/2000/svg"
   xmlns:svg="http://www.w3.org/2000/svg">
  <sodipodi:namedview
     id="namedview6"
     pagecolor="#ffffff"
     bordercolor="#666666"
     borderopacity="1.0"
     inkscape:showpageshadow="2"
     inkscape:pageopacity="0.0"
     inkscape:pagecheckerboard="0"
     inkscape:deskcolor="#d1d1d1"
     inkscape:zoom="7.608333"
     inkscape:cx="-29.047099"
     inkscape:cy="40.021908"
     inkscape:window-width="3840"
     inkscape:window-height="2054"
     inkscape:window-x="3829"
     inkscape:window-y="-11"
     inkscape:window-maximized="1"
     inkscape:current-layer="svg6"
     showgrid="false" />
  <defs
     id="defs1">
    <filter
       id="1KE_svg__a"
       x="-0.13367232"
       y="-0.10923303"
       width="1.3166588"
       height="1.2594346">
      <feGaussianBlur
         in="SourceAlpha"
         result="blur"
         stdDeviation="2"
         id="feGaussianBlur1" />
      <feOffset
         dx="2"
         dy="2"
         result="offsetBlur"
         id="feOffset1" />
      <feBlend
         in="SourceGraphic"
         in2="offsetBlur"
         id="feBlend1" />
    </filter>
    <filter
       id="1OU_svg__a"
       x="-0.13338546"
       y="-0.10825364"
       width="1.3166422"
       height="1.2574737">
      <feGaussianBlur
         in="SourceAlpha"
         result="blur"
         stdDeviation="2"
         id="feGaussianBlur1-1" />
      <feOffset
         dx="2"
         dy="2"
         result="offsetBlur"
         id="feOffset1-1" />
      <feBlend
         in="SourceGraphic"
         in2="offsetBlur"
         id="feBlend1-0"
         mode="normal" />
    </filter>
    <filter
       id="0KE_svg__a"
       x="-0.13554818"
       y="-0.11123077"
       width="1.3210896"
       height="1.2636065">
      <feGaussianBlur
         in="SourceAlpha"
         result="blur"
         stdDeviation="2"
         id="feGaussianBlur1-2" />
      <feOffset
         dx="2"
         dy="2"
         result="offsetBlur"
         id="feOffset1-5" />
      <feBlend
         in="SourceGraphic"
         in2="offsetBlur"
         id="feBlend1-09"
         mode="normal" />
    </filter>
  </defs>
  <g
     filter="url(#1KE_svg__a)"
     transform="matrix(0.9389,0,0,0.9389,-90.610859,-23.204921)"
     id="g1">
    <path
       fill="#feec99"
       d="m 128.456,78.635 13.41,-4.26 6.836,-44.558 H 108.15 l 6.898,44.862 13.138,3.935 0.271,0.021 z"
       id="path1"
       sodipodi:nodetypes="cccccccc"
       style="stroke:#333333;stroke-width:1.06507615;stroke-dasharray:none;fill:#d5beaf;fill-opacity:1" />
  </g>
  <path
     style="fill:#1a1a1a;fill-opacity:1;stroke:#080808;stroke-width:0.646163;stroke-linecap:butt;stroke-linejoin:round;stroke-dasharray:none;stroke-opacity:1"
     d="m 17.48354,20.194347 c -4.902293,9.175442 4.91295,14.819714 5.7663,14.860685 2.937768,0.461649 4.061754,2.84034 8.810165,1.367564 2.477975,-0.745076 4.97217,-1.747716 6.854775,-3.586522 1.711301,-1.3537 2.951833,-3.17601 4.480885,-4.703975 0.496606,-0.30229 0.870947,-0.621021 0.279937,-1.069568 -0.266205,-0.638168 -1.04179,-0.512967 -1.5922,-0.725219 -0.453891,-0.108561 -1.269818,-0.244279 -0.865365,-0.854458 0.686387,-2.346272 1.117828,-4.756743 1.680338,-7.134209 l -2.231314,0.855648 c 0.165149,-1.309704 0.185385,-2.67398 -0.519056,-3.838879 0.03354,-2.744785 0.962316,-5.212985 2.330317,-7.5259036 -2.579656,-1.5039 -4.8725,0.35199 -6.461846,2.4973566 -0.547687,0.93524 -1.25979,1.794837 -1.702744,2.77826 l -0.483726,1.612408 c 0.930036,2.668822 1.923185,5.465037 1.486939,8.334426 -0.151599,0.902107 0.02502,1.949022 -0.671964,2.647515 -0.850349,1.12577 -1.586335,2.349344 -2.509575,3.41278 -1.715875,1.673895 -3.413415,3.366309 -5.10775,5.061961 C 25.856424,33.965386 24.650009,33.49627 23.51051,33.209091 22.604954,32.39038 21.761623,31.694019 21.023428,30.782664 20.317236,29.4761 19.515519,28.223977 18.960921,26.814203 18.719892,24.326526 17.741092,22.581967 17.48354,20.194347 Z"
     id="path10"
     sodipodi:nodetypes="ccccccccccccccccccccccc" />
  <path
     id="path2"
     style="fill:#e1252b;fill-opacity:1;stroke:#ac1c20;stroke-width:0.646163;stroke-linecap:round;stroke-linejoin:round;stroke-dasharray:none;stroke-opacity:1"
     d="m 26.522147,33.944559 c 4.474516,-0.01105 8.228188,-4.657393 8.717221,-10.790278 l 0.08315,0.656753 2.360185,3.099219 c 0.509205,0.668719 2.603612,1.447264 1.145084,-2.455131 0,0 -1.08262,-3.321244 -1.942997,-4.734767 -0.591639,-0.972013 -1.985611,-2.358496 -2.303294,-2.670431 -0.763656,-2.45126 -1.610201,-4.098901 -3.21709,-5.379379 -0.699226,-0.557191 -1.17552,0.0037 -2.658338,-0.866555 -1.286364,-0.754931 -3.583161,-2.9892786 -4.313531,-2.9907646 -1.342756,-4e-5 -3.867448,-0.238287 -4.575208,0.889186 -0.553639,0.881954 1.47078,2.6051836 0.775334,3.5444036 -1.628256,2.198999 -2.856364,6.193961 -2.856296,9.584917 5.91e-4,6.690071 3.933977,12.112972 8.78578,12.112827 z"
     sodipodi:nodetypes="sccccscsscsscs" />
  <path
     style="fill:#000000;stroke:none;stroke-width:0.831766px;stroke-linecap:butt;stroke-linejoin:miter;stroke-opacity:1"
     d="m 25.785932,16.717522 c 0,0 1.356719,0.877782 2.061424,0.730511 0.926494,-0.193621 2.388978,-1.828182 2.388978,-1.828182 0.539895,-0.04059 1.171175,-0.326456 1.780484,-0.625318 -1.135216,-0.796574 -2.571597,-0.992948 -3.928247,-1.011362 -0.649027,0.114438 -1.245236,0.521432 -1.739906,1.028038 -0.196604,0.254201 -0.245655,0.288734 -0.455844,0.493784 -0.581881,-0.993597 -1.50643,-1.200058 -2.574675,-1.436562 -0.781275,-0.08134 -1.307531,-0.0089 -1.597558,0.42865 -0.135568,0.204488 -0.174695,0.119651 -0.5974,1.185551 0.504644,0.116195 1.020827,0.187237 1.51824,0.331727 0.790158,0.468396 1.227305,1.401567 2.029493,1.455197 0.436134,0.02916 0.767314,-0.397284 1.115011,-0.752034 z"
     id="path3"
     sodipodi:nodetypes="csccsccssccsc" />
  <ellipse
     style="fill:#ffffff;stroke:none;stroke-width:0.714221;stroke-linecap:round;stroke-linejoin:round"
     id="path4"
     cx="-22.778494"
     cy="-23.248608"
     rx="1.7780049"
     ry="2.4976041"
     transform="scale(-1)" />
  <ellipse
     style="fill:#000000;stroke:none;stroke-width:0.714221;stroke-linecap:round;stroke-linejoin:round"
     id="path5"
     cx="-22.370207"
     cy="-22.74221"
     rx="1.0272917"
     ry="1.8295513"
     transform="scale(-1)" />
  <ellipse
     style="fill:#ffffff;stroke:none;stroke-width:0.714221;stroke-linecap:round;stroke-linejoin:round"
     id="ellipse5"
     cx="-28.867002"
     cy="-23.248608"
     ry="2.3990281"
     rx="1.7780049"
     transform="scale(-1)" />
  <ellipse
     style="fill:#000000;stroke:none;stroke-width:0.714221;stroke-linecap:round;stroke-linejoin:round"
     id="ellipse6"
     cx="-28.458723"
     cy="-22.74221"
     rx="1.0272917"
     ry="1.8295513"
     transform="scale(-1)" />
  <path
     style="fill:#000000;stroke:none;stroke-width:0.166353;stroke-linecap:butt;stroke-linejoin:miter;stroke-dasharray:none;stroke-opacity:1"
     d="m 23.112425,24.035572 c 1.106449,-0.61159 2.031563,-1.710289 1.991962,-1.573629 -0.198729,3.137225 -0.790269,3.466602 -2.673994,5.096616 l -1.730854,1.030996 c 0,0 -0.110142,-0.600721 -0.01512,-0.909788 0.09503,-0.309067 0.348187,-0.786552 0.348187,-0.786552 -0.391054,0.2863 -0.68572,0.291014 -0.742293,-0.399825 l 0.08779,-1.189457 z"
     id="path6"
     sodipodi:nodetypes="csccscccc"
     inkscape:transform-center-x="-0.065717786"
     inkscape:transform-center-y="1.7086525" />
  <path
     style="fill:#1a1a1a;fill-opacity:1;stroke:none;stroke-width:1px;stroke-linecap:butt;stroke-linejoin:miter;stroke-opacity:1"
     d="m 34.593556,27.069858 c -0.325284,0.162642 -2.881092,3.903416 -2.881092,3.903416 0,0 -1.826425,1.327618 -1.643849,1.643849 0.182576,0.316231 -0.184008,1.262159 0,1.155922 0.184008,-0.106237 3.900511,-3.900511 3.900511,-3.900511 l 1.341396,-2.323366 z"
     id="path13" />
  <path
     style="fill:#000000;stroke:none;stroke-width:0.166353;stroke-linecap:butt;stroke-linejoin:miter;stroke-dasharray:none;stroke-opacity:1"
     d="m 28.289964,23.863943 c -1.178971,-0.456392 -2.244128,-1.419937 -2.186414,-1.289887 0.621028,3.081558 1.251668,3.32794 3.338463,4.688328 l 1.854346,0.787534 c 0,0 0.02791,-0.610097 -0.108015,-0.90348 -0.135941,-0.293383 -0.451324,-0.73226 -0.451324,-0.73226 0.42617,0.230807 0.718767,0.19564 0.681426,-0.496506 l -0.247787,-1.166667 z"
     id="path7"
     sodipodi:nodetypes="csccscccc" />
  <path
     style="opacity:0.438931;fill:#333333;stroke-width:0.0200305"
     d="m 32.780795,36.838468 c 0.06318,0.04437 0.127105,0.152857 0.23838,0.404477 0.06253,0.141418 0.07191,0.154168 0.0737,0.100143 0.0092,-0.276295 0.02936,-0.36269 0.105612,-0.451777 0.0694,-0.08108 0.126626,-0.09353 0.181347,-0.03942 0.03691,0.03648 0.0513,0.08745 0.101335,0.358907 l 0.05835,0.316406 0.01929,-0.12897 c 0.04183,-0.279781 0.167899,-0.405683 0.257972,-0.257638 0.05286,0.08689 0.06246,0.159084 0.100175,0.75437 0.02611,0.412032 0.05103,0.6419 0.09699,0.894511 l 0.06184,0.339977 0.114331,0.06739 0.114331,0.0674 -0.01497,-0.124398 c -0.0083,-0.06843 -0.01127,-0.141656 -0.0069,-0.162755 0.01951,-0.09148 0.190962,-0.166835 0.287148,-0.126185 0.06808,0.02878 0.08717,0.0034 0.06728,-0.08954 -0.01934,-0.09029 0.0031,-0.192766 0.05124,-0.233492 0.05365,-0.04541 0.17245,-0.06134 0.250389,-0.03356 l 0.07219,0.02573 -0.0018,-0.07335 c -0.003,-0.114202 0.01656,-0.17368 0.07544,-0.230179 0.07378,-0.07054 0.154777,-0.08402 0.257458,-0.0424 0.08136,0.03299 0.08689,0.03267 0.104058,-0.0058 0.01003,-0.0223 0.01598,-0.05063 0.01333,-0.06293 -0.0026,-0.0123 0.02122,-0.06638 0.05305,-0.120122 0.0502,-0.08489 0.06868,-0.10008 0.140168,-0.115394 0.09099,-0.01952 0.195633,9.05e-4 0.223435,0.04354 0.02845,0.04366 0.05356,0.02531 0.05271,-0.0384 -0.0017,-0.119954 0.117531,-0.273963 0.230668,-0.298045 0.07008,-0.01494 0.188486,0.02614 0.216389,0.07504 0.02912,0.05105 0.05345,0.04196 0.05564,-0.02081 0.003,-0.0832 0.120912,-0.253971 0.208605,-0.301855 0.106675,-0.05825 0.170829,-0.04194 0.246775,0.06274 l 0.05889,0.08118 0.04359,-0.118619 c 0.05255,-0.142965 0.133388,-0.231556 0.245575,-0.269185 0.104395,-0.03497 0.166245,-0.01813 0.199226,0.05429 l 0.02564,0.05631 0.06624,-0.08682 c 0.07839,-0.102771 0.227132,-0.189364 0.329762,-0.192003 0.110665,-0.0028 0.125148,0.01964 0.110989,0.172238 -0.0069,0.07336 -0.01205,0.135602 -0.01153,0.138315 4.4e-4,0.0027 0.03044,-0.03935 0.06658,-0.09354 0.100217,-0.14995 0.22053,-0.249263 0.330847,-0.27312 0.105008,-0.02272 0.115134,-0.0098 0.09155,0.116494 -0.0079,0.04214 -0.01353,0.08023 -0.01257,0.08464 0.001,0.0045 0.04063,-0.03664 0.0878,-0.09161 0.111429,-0.128608 0.256956,-0.225024 0.361527,-0.239521 0.104016,-0.01441 0.121041,0.02212 0.06959,0.149394 -0.02132,0.05279 -0.04339,0.1099 -0.04903,0.12691 -0.0056,0.01701 0.04797,-0.03503 0.119046,-0.11573 0.194346,-0.220325 0.324575,-0.310059 0.530274,-0.365469 0.109991,-0.02963 0.170992,-0.03851 0.173825,-0.02529 0.0024,0.01114 -0.04834,0.107697 -0.112801,0.21439 -0.06442,0.106739 -0.109149,0.188462 -0.09934,0.181659 0.0098,-0.0068 0.08591,-0.06584 0.169112,-0.131178 0.201276,-0.158046 0.402314,-0.272832 0.584344,-0.333673 0.145807,-0.04874 0.400344,-0.0875 0.452482,-0.06892 0.0364,0.01297 -0.0081,0.08544 -0.105637,0.171593 -0.335797,0.296917 -0.587624,0.540773 -0.570128,0.55209 0.0063,0.004 0.112219,-0.05194 0.235387,-0.124489 0.352691,-0.207663 0.556471,-0.293074 0.851734,-0.357 0.18271,-0.03955 0.292446,-0.05309 0.389001,-0.04798 0.250878,0.01328 0.236133,0.04209 -0.114992,0.224775 -0.143762,0.07477 -0.369455,0.205213 -0.501578,0.289845 -0.26213,0.167905 -0.660923,0.46387 -0.641759,0.476268 0.0066,0.0043 0.07008,-0.01805 0.141035,-0.0496 0.378189,-0.168105 0.627932,-0.254659 0.913355,-0.316577 0.447336,-0.09703 0.72049,-0.09922 0.92834,-0.0075 0.159465,0.0704 0.172,0.06263 -0.376142,0.233547 -0.53752,0.167613 -0.986928,0.3542 -1.346709,0.559127 -0.119823,0.06828 -0.146599,0.107582 -0.04675,0.06871 0.0416,-0.01619 0.259681,-0.07394 0.484634,-0.128323 0.348353,-0.08421 0.45001,-0.101504 0.68555,-0.116624 0.152102,-0.0097 0.344441,-0.0093 0.427416,9.73e-4 0.161132,0.02001 0.322137,0.07309 0.329777,0.108721 0.0034,0.01566 -0.128154,0.04608 -0.473315,0.109447 -0.643034,0.118036 -1.095823,0.257386 -1.571049,0.483516 l -0.139404,0.06635 0.314354,-0.05297 c 0.378237,-0.06374 0.686152,-0.08472 0.905965,-0.06169 0.170624,0.01787 0.37562,0.08644 0.367952,0.123076 -0.0024,0.01179 -0.01003,0.02086 -0.01684,0.01996 -0.0066,-5.95e-4 -0.142572,0.01063 -0.301879,0.02521 -0.340676,0.03125 -0.887852,0.144167 -1.224494,0.252692 -0.351671,0.113372 -1.086343,0.444295 -1.135861,0.511642 -0.0072,0.0095 0.04425,0.01045 0.113826,0.0023 0.06958,-0.0083 0.154982,-0.0098 0.189766,-0.0035 l 0.06326,0.0114 -0.07511,0.03175 c -0.04131,0.01746 -0.143429,0.0572 -0.226888,0.08834 -0.238622,0.08902 -0.47957,0.217357 -0.733475,0.390701 -0.340075,0.23216 -0.43555,0.269132 -1.011093,0.391518 -0.448936,0.09547 -0.495455,0.108903 -0.658897,0.190216 -0.220909,0.109913 -0.459044,0.278977 -0.62028,0.440375 l -0.124592,0.12472 0.07264,0.271013 c 0.0763,0.284718 0.132401,0.404104 0.278706,0.593205 0.06473,0.08367 0.08062,0.122907 0.118258,0.292179 0.03632,0.163391 0.06061,0.225408 0.14771,0.377234 0.09782,0.170544 0.147172,0.304276 0.124941,0.338641 -0.01927,0.02982 -0.215486,-0.05693 -0.506204,-0.223802 -0.05781,-0.03319 -0.125408,-0.05614 -0.150225,-0.05099 -0.08041,0.01667 -0.179997,-0.02566 -0.413737,-0.175918 -0.198561,-0.127636 -0.266682,-0.158419 -0.506516,-0.228885 -0.319277,-0.09381 -0.284222,-0.10333 -0.492655,0.133825 -0.316804,0.360435 -0.481521,0.689892 -0.545457,1.090851 -0.01478,0.0928 -0.03549,0.221246 -0.04598,0.28546 -0.04021,0.2461 -0.115937,0.415414 -0.364117,0.814122 -0.233241,0.374698 -0.388226,0.678838 -0.460774,0.904234 -0.01853,0.05747 -0.04241,0.106376 -0.05309,0.108696 -0.02443,0.0052 -0.03243,-0.138468 -0.01384,-0.248834 0.0074,-0.04433 0.0088,-0.08363 0.0031,-0.08732 -0.01397,-0.0091 -0.246212,0.435321 -0.340183,0.650827 -0.113658,0.260639 -0.212672,0.548622 -0.2837,0.82514 -0.08619,0.335527 -0.109448,0.468143 -0.151055,0.861003 -0.01947,0.183876 -0.04386,0.339303 -0.05418,0.345398 -0.02388,0.01411 -0.06794,-0.09061 -0.100439,-0.238808 -0.05303,-0.241736 -0.02366,-0.740873 0.06719,-1.141811 l 0.05122,-0.226077 -0.06004,0.10505 c -0.175946,0.307874 -0.419239,1.050349 -0.494556,1.509267 -0.04984,0.303722 -0.107984,0.566012 -0.126328,0.569942 -0.03904,0.0084 -0.08135,-0.09745 -0.101441,-0.253785 -0.05431,-0.422593 0.03459,-1.077045 0.216525,-1.594092 0.02787,-0.07921 0.04649,-0.146852 0.04138,-0.150313 -0.01179,-0.0079 -0.105534,0.157805 -0.241494,0.426825 -0.12748,0.252244 -0.279752,0.640015 -0.44658,1.137329 -0.06821,0.203346 -0.131004,0.371216 -0.139539,0.373042 -0.02778,0.0059 -0.07476,-0.08667 -0.09671,-0.190581 -0.0847,-0.40107 0.06839,-1.127705 0.367561,-1.744643 0.0374,-0.07713 0.06672,-0.14623 0.06514,-0.153558 -0.0016,-0.0074 -0.05924,0.05682 -0.128231,0.142455 -0.16276,0.202228 -0.437439,0.627075 -0.647541,1.001512 -0.09384,0.167285 -0.177353,0.293832 -0.190701,0.289078 -0.03744,-0.01336 -0.04676,-0.201741 -0.01974,-0.399082 0.04541,-0.331684 0.153872,-0.60137 0.419616,-1.043232 0.07256,-0.120665 0.126198,-0.223118 0.119163,-0.227668 -0.01306,-0.0084 -0.279233,0.259044 -0.533371,0.535785 -0.160002,0.174419 -0.210337,0.201697 -0.209727,0.113877 0.0018,-0.279967 0.06399,-0.458899 0.271366,-0.781976 0.09714,-0.151328 0.202444,-0.305155 0.234014,-0.341844 l 0.05743,-0.06668 -0.153275,0.09723 c -0.0843,0.05348 -0.180874,0.107297 -0.214563,0.119631 l -0.06126,0.02243 0.0114,-0.09169 c 0.02458,-0.197574 0.157293,-0.402998 0.398941,-0.617463 l 0.120472,-0.106934 -0.139214,0.04343 c -0.137389,0.04286 -0.139336,0.04283 -0.149124,-0.0033 -0.02315,-0.10885 0.09366,-0.309573 0.255517,-0.439006 l 0.109266,-0.08741 -0.108747,0.02332 c -0.07057,0.0151 -0.114046,0.0152 -0.123815,1.96e-4 -0.04499,-0.06902 0.09361,-0.286536 0.264613,-0.415303 l 0.09734,-0.07325 -0.126289,0.01318 c -0.06946,0.0073 -0.13751,0.0059 -0.151227,-0.003 -0.03601,-0.02329 -0.03026,-0.122713 0.01394,-0.242345 0.02945,-0.07967 0.06234,-0.12191 0.142671,-0.183357 L 31.0717,43.54845 31.01656,43.52136 c -0.03033,-0.01489 -0.06623,-0.05065 -0.07978,-0.07946 -0.02138,-0.04546 -0.01462,-0.06716 0.05139,-0.164658 0.07572,-0.111817 0.138364,-0.161008 0.274537,-0.215464 l 0.07159,-0.02862 -0.06252,-0.04853 c -0.100133,-0.07775 -0.107815,-0.167024 -0.02488,-0.289404 0.06793,-0.100301 0.129074,-0.139963 0.258057,-0.167621 0.03723,-0.008 0.06289,-0.02042 0.05701,-0.0276 -0.119293,-0.145572 -0.132082,-0.195322 -0.07838,-0.305001 0.04083,-0.08341 0.125575,-0.140434 0.247444,-0.166556 0.05418,-0.01166 0.09796,-0.02329 0.0972,-0.02596 -6.39e-4,-0.0024 -0.02079,-0.03683 -0.04455,-0.07594 -0.0478,-0.07865 -0.0515,-0.165503 -0.01013,-0.237084 0.03618,-0.06253 0.169655,-0.142698 0.250419,-0.150391 l 0.07017,-0.0068 -0.03625,-0.116015 c -0.0328,-0.104976 -0.03266,-0.122001 0.0015,-0.179033 0.04886,-0.08155 0.158624,-0.138837 0.253765,-0.132336 0.100818,0.0069 0.100301,0.0074 0.07016,-0.07646 -0.06979,-0.194521 0.07213,-0.339625 0.291898,-0.298675 0.04215,0.0079 0.07993,0.0136 0.08402,0.01269 0.004,-9.04e-4 -0.0027,-0.04876 -0.01508,-0.106441 -0.01805,-0.08416 -0.01519,-0.117116 0.01445,-0.166978 0.04626,-0.07787 0.166882,-0.10915 0.292012,-0.07583 0.04686,0.01244 0.09088,0.02149 0.09778,0.02001 0.007,-0.0015 -0.01752,-0.05251 -0.05423,-0.11336 -0.06638,-0.10999 -0.06781,-0.110923 -0.23455,-0.154596 -0.230725,-0.06042 -0.392103,-0.08245 -0.816966,-0.111519 -0.645934,-0.0442 -0.935768,-0.0811 -1.002298,-0.127598 -0.07605,-0.05315 -0.07674,-0.08629 -0.0034,-0.162935 0.05143,-0.05372 0.07681,-0.06414 0.210804,-0.08677 0.08379,-0.01415 0.145003,-0.0296 0.136034,-0.03436 -0.009,-0.0047 -0.07795,-0.01669 -0.153285,-0.0265 -0.247203,-0.03218 -0.443544,-0.08403 -0.489203,-0.129152 -0.04086,-0.0404 -0.04261,-0.04789 -0.02293,-0.09876 0.01166,-0.03028 0.03874,-0.07042 0.06008,-0.08919 0.0482,-0.04254 0.340947,-0.105219 0.454263,-0.09736 0.04512,0.0031 0.08413,0.0024 0.08672,-0.0016 0.0024,-0.0041 -0.07313,-0.03717 -0.168293,-0.07372 -0.230084,-0.08835 -0.419089,-0.210993 -0.43427,-0.281816 -0.01299,-0.06059 0.0041,-0.08744 0.08722,-0.136725 0.07232,-0.04285 0.304843,-0.06297 0.457777,-0.03953 0.05884,0.0091 0.109966,0.01577 0.113594,0.01498 0.0038,-6.37e-4 -0.0755,-0.0589 -0.175837,-0.129191 -0.167048,-0.117012 -0.25638,-0.205933 -0.314156,-0.312713 -0.01502,-0.02772 -0.01192,-0.05566 0.0097,-0.08916 0.0585,-0.0904 0.263088,-0.09897 0.520469,-0.02175 l 0.136388,0.04091 -0.128854,-0.156557 c -0.116079,-0.14104 -0.132884,-0.171916 -0.169506,-0.311539 -0.03344,-0.127455 -0.03597,-0.163071 -0.0143,-0.20054 0.0145,-0.02505 0.03545,-0.0475 0.04667,-0.04974 0.01102,-0.0024 0.03609,-0.0273 0.0555,-0.05537 0.09557,-0.138074 0.412619,-0.03173 0.671269,0.225161 0.03742,0.03715 0.03699,0.02556 -0.0063,-0.173047 -0.04125,-0.188907 -0.04335,-0.225122 -0.01853,-0.321326 0.0236,-0.09142 0.03736,-0.11143 0.08791,-0.127481 0.05224,-0.01662 0.07135,-0.009 0.148901,0.06027 0.118619,0.10578 0.179194,0.177473 0.267017,0.315867 l 0.07332,0.115562 -0.0091,-0.201047 c -0.0096,-0.213628 0.0034,-0.292447 0.06515,-0.3962 0.04798,-0.08053 0.08518,-0.08899 0.159087,-0.03715 z"
     id="path15" />
  <path
     style="fill:#1a1a1a;fill-opacity:1;stroke:#080808;stroke-width:0.461545;stroke-linecap:butt;stroke-linejoin:miter;stroke-dasharray:none;stroke-opacity:1"
     d="m 36.02545,25.650147 c -0.300267,-0.171581 -2.337793,-2.005353 -2.337793,-2.005353 l 0.08579,3.163527 -1.964561,-0.764756 0.120064,4.357234 c -1.070101,3.073227 -4.413369,2.322728 -4.525453,3.67827 -0.646423,2.231229 -1.476334,2.188172 0.383064,2.294899"
     id="path11"
     sodipodi:nodetypes="ccccccc" />
  <path
     style="fill:#e1252b;fill-opacity:1;stroke:#ac1c20;stroke-width:0.646163;stroke-linecap:butt;stroke-linejoin:miter;stroke-dasharray:none;stroke-opacity:1"
     d="m 25.257654,21.959222 c -0.606748,-1.620645 -9.071927,-2.799524 -9.682938,-2.711882 -0.931241,-0.517357 -0.285391,-2.712524 0.659411,-2.711883 0.258298,1.75e-4 3.088823,0.04304 3.227647,0.0861 0.138823,0.04305 6.38588,2.625792 6.38588,2.625792"
     id="path8"
     sodipodi:nodetypes="ccssc" />
  <path
     style="opacity:0.438931;fill:#333333;stroke-width:0.0200305"
     d="m 27.168847,36.838468 c -0.06319,0.04437 -0.127105,0.152857 -0.23838,0.404477 -0.06253,0.141418 -0.07192,0.154168 -0.07371,0.100143 -0.0092,-0.276295 -0.02935,-0.36269 -0.105611,-0.451777 -0.0694,-0.08108 -0.126613,-0.09353 -0.181346,-0.03942 -0.0369,0.03648 -0.0513,0.08745 -0.101336,0.358907 l -0.05836,0.316406 -0.01929,-0.12897 c -0.04183,-0.279781 -0.1679,-0.405683 -0.257973,-0.257638 -0.05286,0.08689 -0.06246,0.159084 -0.100174,0.75437 -0.02611,0.412032 -0.05103,0.6419 -0.09699,0.894511 l -0.06184,0.339977 -0.11433,0.06739 -0.114331,0.0674 0.01497,-0.124398 c 0.0083,-0.06843 0.01127,-0.141656 0.0069,-0.162755 -0.01951,-0.09148 -0.190962,-0.166835 -0.287151,-0.126185 -0.06808,0.02878 -0.08717,0.0034 -0.06728,-0.08954 0.01935,-0.09029 -0.0031,-0.192766 -0.05124,-0.233492 -0.05365,-0.04541 -0.172453,-0.06134 -0.25039,-0.03356 l -0.07219,0.02573 0.0019,-0.07335 c 0.003,-0.114202 -0.01656,-0.17368 -0.07544,-0.230179 -0.07378,-0.07054 -0.154777,-0.08402 -0.257458,-0.0424 -0.08136,0.03299 -0.08689,0.03267 -0.104058,-0.0058 -0.01003,-0.0223 -0.01598,-0.05063 -0.01333,-0.06293 0.0026,-0.0123 -0.02122,-0.06638 -0.05305,-0.120122 -0.0502,-0.08489 -0.06868,-0.10008 -0.140168,-0.115394 -0.09099,-0.01952 -0.195633,9.05e-4 -0.223434,0.04354 -0.02845,0.04366 -0.05357,0.02531 -0.05272,-0.0384 0.0017,-0.119954 -0.117531,-0.273963 -0.230666,-0.298045 -0.07008,-0.01494 -0.188486,0.02614 -0.216389,0.07504 -0.02913,0.05105 -0.05345,0.04196 -0.05564,-0.02081 -0.003,-0.0832 -0.120913,-0.253971 -0.208607,-0.301855 -0.106675,-0.05825 -0.170828,-0.04194 -0.246775,0.06274 l -0.05889,0.08118 -0.04359,-0.118619 c -0.05255,-0.142965 -0.133389,-0.231556 -0.245578,-0.269185 -0.104395,-0.03497 -0.166242,-0.01813 -0.199224,0.05429 l -0.02564,0.05631 -0.06624,-0.08682 c -0.0784,-0.102771 -0.227132,-0.189364 -0.329762,-0.192003 -0.110665,-0.0028 -0.125148,0.01964 -0.110988,0.172238 0.0069,0.07336 0.01205,0.135602 0.01153,0.138315 -4.4e-4,0.0027 -0.03044,-0.03935 -0.06658,-0.09354 -0.100228,-0.14995 -0.22053,-0.249263 -0.330847,-0.27312 -0.105007,-0.02272 -0.115135,-0.0098 -0.09155,0.116494 0.0079,0.04214 0.01353,0.08023 0.01257,0.08464 -10e-4,0.0045 -0.04063,-0.03664 -0.0878,-0.09161 -0.111428,-0.128608 -0.256955,-0.225024 -0.361526,-0.239521 -0.104016,-0.01441 -0.121041,0.02212 -0.06959,0.149394 0.02132,0.05279 0.04339,0.1099 0.04903,0.12691 0.0056,0.01701 -0.04797,-0.03503 -0.119047,-0.11573 -0.194345,-0.220325 -0.324575,-0.310059 -0.530273,-0.365469 -0.109992,-0.02963 -0.170992,-0.03851 -0.173826,-0.02529 -0.0024,0.01114 0.04833,0.107697 0.112802,0.21439 0.06442,0.106739 0.109149,0.188462 0.09934,0.181659 -0.0098,-0.0068 -0.08592,-0.06584 -0.169113,-0.131178 -0.201276,-0.158046 -0.402314,-0.272832 -0.584343,-0.333673 -0.145809,-0.04874 -0.400344,-0.0875 -0.452484,-0.06892 -0.03639,0.01297 0.0081,0.08544 0.105638,0.171593 0.335798,0.296917 0.587624,0.540773 0.570129,0.55209 -0.0063,0.004 -0.112219,-0.05194 -0.235387,-0.124489 -0.352692,-0.207663 -0.556473,-0.293074 -0.851735,-0.357 -0.18271,-0.03955 -0.292446,-0.05309 -0.389001,-0.04798 -0.250878,0.01328 -0.236132,0.04209 0.114991,0.224775 0.143763,0.07477 0.369456,0.205213 0.501578,0.289845 0.26213,0.167905 0.660923,0.46387 0.641757,0.476268 -0.0066,0.0043 -0.07008,-0.01805 -0.141034,-0.0496 -0.378187,-0.168105 -0.627931,-0.254659 -0.913353,-0.316577 -0.447336,-0.09703 -0.72049,-0.09922 -0.92834,-0.0075 -0.159466,0.0704 -0.172,0.06263 0.376142,0.233547 0.53752,0.167613 0.986927,0.3542 1.346706,0.559127 0.119825,0.06828 0.146602,0.107582 0.04675,0.06871 -0.0416,-0.01619 -0.259683,-0.07394 -0.484634,-0.128323 -0.348354,-0.08421 -0.450011,-0.101504 -0.685553,-0.116624 -0.1521,-0.0097 -0.344438,-0.0093 -0.427415,9.73e-4 -0.16113,0.02001 -0.322137,0.07309 -0.329776,0.108721 -0.0034,0.01566 0.128142,0.04608 0.473314,0.109447 0.643036,0.118036 1.095824,0.257386 1.571051,0.483516 l 0.139402,0.06635 -0.314353,-0.05297 c -0.378237,-0.06374 -0.686151,-0.08472 -0.905964,-0.06169 -0.170626,0.01787 -0.375621,0.08644 -0.367954,0.123076 0.0024,0.01179 0.01002,0.02086 0.01684,0.01996 0.0066,-5.95e-4 0.14257,0.01063 0.301879,0.02521 0.340675,0.03125 0.887851,0.144167 1.224492,0.252692 0.351673,0.113372 1.086345,0.444295 1.135863,0.511642 0.0072,0.0095 -0.04425,0.01045 -0.113813,0.0023 -0.06958,-0.0083 -0.154982,-0.0098 -0.189766,-0.0035 l -0.06326,0.0114 0.07511,0.03175 c 0.04131,0.01746 0.143428,0.0572 0.226887,0.08834 0.238622,0.08902 0.47957,0.217357 0.733474,0.390701 0.340074,0.23216 0.435551,0.269132 1.011093,0.391518 0.448936,0.09547 0.495456,0.108903 0.658898,0.190216 0.220909,0.109913 0.459044,0.278977 0.620279,0.440375 l 0.124591,0.12472 -0.07264,0.271013 c -0.0763,0.284718 -0.132402,0.404104 -0.278708,0.593205 -0.06473,0.08367 -0.08061,0.122907 -0.118257,0.292179 -0.03632,0.163391 -0.06061,0.225408 -0.14771,0.377234 -0.09784,0.170544 -0.147173,0.304276 -0.124941,0.338641 0.01928,0.02982 0.215485,-0.05693 0.506204,-0.223802 0.05781,-0.03319 0.125408,-0.05614 0.150226,-0.05099 0.08041,0.01667 0.179997,-0.02566 0.413737,-0.175918 0.198559,-0.127636 0.266682,-0.158419 0.506515,-0.228885 0.319278,-0.09381 0.284222,-0.10333 0.492655,0.133825 0.316803,0.360435 0.481522,0.689892 0.545457,1.090851 0.01478,0.0928 0.03549,0.221246 0.04598,0.28546 0.04021,0.2461 0.115937,0.415414 0.364117,0.814122 0.233239,0.374698 0.388224,0.678838 0.460773,0.904234 0.01853,0.05747 0.04242,0.106376 0.05309,0.108696 0.02443,0.0052 0.03243,-0.138468 0.01384,-0.248834 -0.0074,-0.04433 -0.0088,-0.08363 -0.0031,-0.08732 0.01395,-0.0091 0.246211,0.435321 0.340183,0.650827 0.113657,0.260639 0.21267,0.548622 0.2837,0.82514 0.08619,0.335527 0.109446,0.468143 0.151054,0.861003 0.01947,0.183876 0.04386,0.339303 0.05418,0.345398 0.02388,0.01411 0.06794,-0.09061 0.100439,-0.238808 0.05303,-0.241736 0.02366,-0.740873 -0.06719,-1.141811 l -0.05122,-0.226077 0.06004,0.10505 c 0.175945,0.307874 0.419239,1.050349 0.494556,1.509267 0.04984,0.303722 0.107983,0.566012 0.126327,0.569942 0.03904,0.0084 0.08135,-0.09745 0.101441,-0.253785 0.05431,-0.422593 -0.03459,-1.077045 -0.216525,-1.594092 -0.02787,-0.07921 -0.04649,-0.146852 -0.04138,-0.150313 0.01179,-0.0079 0.105534,0.157805 0.241495,0.426825 0.12748,0.252244 0.279751,0.640015 0.446579,1.137329 0.06821,0.203346 0.131004,0.371216 0.139539,0.373042 0.02777,0.0059 0.07476,-0.08667 0.09671,-0.190581 0.0847,-0.40107 -0.06839,-1.127705 -0.36756,-1.744643 -0.0374,-0.07713 -0.06672,-0.14623 -0.06515,-0.153558 0.0016,-0.0074 0.05924,0.05682 0.128233,0.142455 0.16276,0.202228 0.437439,0.627075 0.647539,1.001512 0.09385,0.167285 0.177353,0.293832 0.190703,0.289078 0.03744,-0.01336 0.04676,-0.201741 0.01974,-0.399082 -0.04541,-0.331684 -0.153872,-0.60137 -0.419616,-1.043232 -0.07256,-0.120665 -0.126185,-0.223118 -0.119163,-0.227668 0.01306,-0.0084 0.279231,0.259044 0.53337,0.535785 0.160001,0.174419 0.210338,0.201697 0.209728,0.113877 -0.0019,-0.279967 -0.06399,-0.458899 -0.271368,-0.781976 -0.09714,-0.151328 -0.202443,-0.305155 -0.234014,-0.341844 l -0.05743,-0.06668 0.153275,0.09723 c 0.0843,0.05348 0.180874,0.107297 0.214562,0.119631 l 0.06127,0.02243 -0.0114,-0.09169 c -0.02458,-0.197574 -0.157295,-0.402998 -0.398943,-0.617463 l -0.120471,-0.106934 0.139212,0.04343 c 0.13739,0.04286 0.139338,0.04283 0.149126,-0.0033 0.02315,-0.10885 -0.09368,-0.309573 -0.255519,-0.439006 l -0.109265,-0.08741 0.108747,0.02332 c 0.07056,0.0151 0.114046,0.0152 0.123814,1.96e-4 0.04499,-0.06902 -0.09361,-0.286536 -0.264612,-0.415303 l -0.09734,-0.07325 0.126288,0.01318 c 0.06946,0.0073 0.137513,0.0059 0.15123,-0.003 0.036,-0.02329 0.03026,-0.122713 -0.01394,-0.242345 -0.02945,-0.07967 -0.06234,-0.12191 -0.142674,-0.183357 l -0.104395,-0.07983 0.05514,-0.02709 c 0.03033,-0.01489 0.06623,-0.05065 0.07978,-0.07946 0.02138,-0.04546 0.01461,-0.06716 -0.05139,-0.164658 -0.07572,-0.111817 -0.138366,-0.161008 -0.27454,-0.215464 l -0.07159,-0.02862 0.06252,-0.04853 c 0.100132,-0.07775 0.107813,-0.167024 0.02488,-0.289404 -0.06793,-0.100301 -0.129087,-0.139963 -0.258056,-0.167621 -0.03723,-0.008 -0.06289,-0.02042 -0.05701,-0.0276 0.119292,-0.145572 0.132081,-0.195322 0.07836,-0.305001 -0.04083,-0.08341 -0.125577,-0.140434 -0.247444,-0.166556 -0.05418,-0.01166 -0.09796,-0.02329 -0.0972,-0.02596 6.37e-4,-0.0024 0.02079,-0.03683 0.04455,-0.07594 0.0478,-0.07865 0.0515,-0.165503 0.01013,-0.237084 -0.03618,-0.06253 -0.169658,-0.142698 -0.250421,-0.150391 l -0.07017,-0.0068 0.03625,-0.116015 c 0.03281,-0.104976 0.03266,-0.122001 -0.0014,-0.179033 -0.04886,-0.08155 -0.158625,-0.138837 -0.253765,-0.132336 -0.100818,0.0069 -0.100301,0.0074 -0.07016,-0.07646 0.06979,-0.194521 -0.07213,-0.339625 -0.291898,-0.298675 -0.04215,0.0079 -0.07994,0.0136 -0.08402,0.01269 -0.004,-9.04e-4 0.0027,-0.04876 0.01508,-0.106441 0.01805,-0.08416 0.0152,-0.117116 -0.01445,-0.166978 -0.04626,-0.07787 -0.166881,-0.10915 -0.292011,-0.07583 -0.04686,0.01244 -0.09088,0.02149 -0.09778,0.02001 -0.007,-0.0015 0.01752,-0.05251 0.05423,-0.11336 0.06639,-0.10999 0.06781,-0.110923 0.23455,-0.154596 0.230726,-0.06042 0.392103,-0.08245 0.816968,-0.111519 0.645933,-0.0442 0.935766,-0.0811 1.002298,-0.127598 0.07605,-0.05315 0.07674,-0.08629 0.0034,-0.162935 -0.05143,-0.05372 -0.07681,-0.06414 -0.210805,-0.08677 -0.08379,-0.01415 -0.145003,-0.0296 -0.136035,-0.03436 0.009,-0.0047 0.07795,-0.01669 0.153286,-0.0265 0.247204,-0.03218 0.443544,-0.08403 0.489202,-0.129152 0.04086,-0.0404 0.04261,-0.04789 0.02293,-0.09876 -0.01166,-0.03028 -0.03874,-0.07042 -0.06008,-0.08919 -0.0482,-0.04254 -0.340947,-0.105219 -0.454264,-0.09736 -0.04511,0.0031 -0.08413,0.0024 -0.08672,-0.0016 -0.0024,-0.0041 0.07313,-0.03717 0.168293,-0.07372 0.230083,-0.08835 0.41909,-0.210993 0.434269,-0.281816 0.01299,-0.06059 -0.0041,-0.08744 -0.08722,-0.136725 -0.07232,-0.04285 -0.304843,-0.06297 -0.457777,-0.03953 -0.05884,0.0091 -0.109965,0.01577 -0.113593,0.01498 -0.0038,-6.37e-4 0.07549,-0.0589 0.175837,-0.129191 0.167046,-0.117012 0.25638,-0.205933 0.314156,-0.312713 0.01502,-0.02772 0.01192,-0.05566 -0.0097,-0.08916 -0.0585,-0.0904 -0.263087,-0.09897 -0.520469,-0.02175 l -0.136387,0.04091 0.128854,-0.156557 c 0.116079,-0.14104 0.132885,-0.171916 0.169508,-0.311539 0.03344,-0.127455 0.03597,-0.163071 0.0143,-0.20054 -0.0145,-0.02505 -0.03545,-0.0475 -0.04668,-0.04974 -0.01101,-0.0024 -0.03609,-0.0273 -0.0555,-0.05537 -0.09557,-0.138074 -0.41262,-0.03173 -0.67127,0.225161 -0.03742,0.03715 -0.03699,0.02556 0.0063,-0.173047 0.04126,-0.188907 0.04335,-0.225122 0.01853,-0.321326 -0.0236,-0.09142 -0.03736,-0.11143 -0.08791,-0.127481 -0.05224,-0.01662 -0.07134,-0.009 -0.148901,0.06027 -0.118619,0.10578 -0.179196,0.177473 -0.267017,0.315867 l -0.07332,0.115562 0.0091,-0.201047 c 0.0096,-0.213628 -0.0034,-0.292447 -0.06515,-0.3962 -0.04798,-0.08053 -0.08518,-0.08899 -0.159086,-0.03715 z"
     id="path14" />
  <path
     style="fill:#000000;fill-opacity:1;stroke:#000000;stroke-width:0.831766px;stroke-linecap:butt;stroke-linejoin:round;stroke-opacity:1"
     d="m 27.791182,37.929199 c 0.06941,-0.344366 0.763529,-4.993309 0.763529,-4.993309 0,0 -1.710182,-2.181065 -2.811175,-2.754929 -0.50533,-0.263388 -1.631175,-0.258274 -1.631175,-0.258274 0,0 -1.665882,7.576054 -1.492353,7.576054 0.17353,0 5.171174,0.430458 5.171174,0.430458 z"
     id="path9"
     sodipodi:nodetypes="ccscsc" />
</svg>
