<?xml version="1.0" encoding="UTF-8" standalone="no"?>
<svg
   viewBox="0 0 60 60"
   version="1.1"
   id="svg6"
   sodipodi:docname="1G-Tengu.svg"
   inkscape:version="1.3 (0e150ed6c4, 2023-07-21)"
   xmlns:inkscape="http://www.inkscape.org/namespaces/inkscape"
   xmlns:sodipodi="http://sodipodi.sourceforge.net/DTD/sodipodi-0.dtd"
   xmlns="http://www.w3.org/2000/svg"
   xmlns:svg="http://www.w3.org/2000/svg">
  <sodipodi:namedview
     id="namedview6"
     pagecolor="#ffffff"
     bordercolor="#666666"
     borderopacity="1.0"
     inkscape:showpageshadow="2"
     inkscape:pageopacity="0.0"
     inkscape:pagecheckerboard="0"
     inkscape:deskcolor="#d1d1d1"
     inkscape:zoom="15.216666"
     inkscape:cx="9.0690034"
     inkscape:cy="50.010954"
     inkscape:window-width="3840"
     inkscape:window-height="2054"
     inkscape:window-x="-11"
     inkscape:window-y="-11"
     inkscape:window-maximized="1"
     inkscape:current-layer="svg6"
     showgrid="false" />
  <defs
     id="defs1">
    <filter
       id="1KE_svg__a"
       x="-0.13367232"
       y="-0.10923303"
       width="1.3166588"
       height="1.2594346">
      <feGaussianBlur
         in="SourceAlpha"
         result="blur"
         stdDeviation="2"
         id="feGaussianBlur1" />
      <feOffset
         dx="2"
         dy="2"
         result="offsetBlur"
         id="feOffset1" />
      <feBlend
         in="SourceGraphic"
         in2="offsetBlur"
         id="feBlend1" />
    </filter>
    <filter
       id="1OU_svg__a"
       x="-0.13338546"
       y="-0.10825364"
       width="1.3166422"
       height="1.2574737">
      <feGaussianBlur
         in="SourceAlpha"
         result="blur"
         stdDeviation="2"
         id="feGaussianBlur1-1" />
      <feOffset
         dx="2"
         dy="2"
         result="offsetBlur"
         id="feOffset1-1" />
      <feBlend
         in="SourceGraphic"
         in2="offsetBlur"
         id="feBlend1-0"
         mode="normal" />
    </filter>
    <filter
       id="0KE_svg__a"
       x="-0.13554818"
       y="-0.11123077"
       width="1.3210896"
       height="1.2636065">
      <feGaussianBlur
         in="SourceAlpha"
         result="blur"
         stdDeviation="2"
         id="feGaussianBlur1-2" />
      <feOffset
         dx="2"
         dy="2"
         result="offsetBlur"
         id="feOffset1-5" />
      <feBlend
         in="SourceGraphic"
         in2="offsetBlur"
         id="feBlend1-09"
         mode="normal" />
    </filter>
  </defs>
  <g
     filter="url(#1KE_svg__a)"
     transform="matrix(0.9389,0,0,0.9389,-90.610859,-23.204921)"
     id="g1">
    <path
       fill="#feec99"
       d="m 128.456,78.635 13.41,-4.26 6.836,-44.558 H 108.15 l 6.898,44.862 13.138,3.935 0.271,0.021 z"
       id="path1"
       sodipodi:nodetypes="cccccccc"
       style="stroke:#333333;stroke-width:1.06507615;stroke-dasharray:none;fill:#d5beaf;fill-opacity:1" />
  </g>
  <path
     style="opacity:0.438931;fill:#333333;stroke-width:0.0288006"
     d="m 31.956841,35.888949 c 0.0192,0.109327 -0.02598,0.284662 -0.168424,0.65371 -0.08006,0.207413 -0.08347,0.229917 -0.02676,0.176775 0.290028,-0.271803 0.398357,-0.339179 0.566461,-0.352329 0.152988,-0.01198 0.223837,0.0335 0.224555,0.14414 4.84e-4,0.07461 -0.03667,0.141072 -0.26155,0.468113 l -0.262113,0.381186 0.15065,-0.111616 c 0.326821,-0.242145 0.582996,-0.242153 0.524221,-1.7e-5 -0.0345,0.142109 -0.09809,0.225305 -0.664528,0.869272 -0.392062,0.44573 -0.600252,0.704918 -0.810164,1.008604 l -0.282509,0.408716 0.04784,0.184723 0.04785,0.18473 0.11115,-0.141777 c 0.06113,-0.07801 0.132433,-0.155598 0.158446,-0.172494 0.112803,-0.07324 0.36379,0.02428 0.420349,0.163366 0.04003,0.09845 0.08529,0.09199 0.159409,-0.02274 0.07204,-0.111511 0.199048,-0.192928 0.289365,-0.185491 0.100721,0.0083 0.237773,0.112806 0.288841,0.220255 l 0.0473,0.09953 0.07261,-0.07655 c 0.113049,-0.119174 0.193305,-0.159879 0.31062,-0.157532 0.146738,0.0032 0.242828,0.07178 0.305021,0.218435 0.04927,0.116221 0.05521,0.121529 0.111694,0.09988 0.03281,-0.01254 0.06769,-0.03528 0.07751,-0.0505 0.0098,-0.01521 0.08903,-0.04596 0.176017,-0.0683 0.137331,-0.03536 0.171556,-0.03205 0.259848,0.02501 0.112426,0.07259 0.198149,0.199653 0.18309,0.271302 -0.01541,0.07332 0.02878,0.08019 0.09264,0.01449 0.120202,-0.123723 0.397918,-0.159321 0.537494,-0.06887 0.08647,0.056 0.165211,0.218094 0.143912,0.296201 -0.02224,0.08153 0.01175,0.09699 0.07775,0.03536 0.08747,-0.0817 0.381055,-0.135537 0.518921,-0.09516 0.167715,0.04912 0.216409,0.130893 0.187317,0.314563 l -0.02256,0.142432 0.164883,-0.07639 c 0.198717,-0.09206 0.370971,-0.100061 0.523341,-0.02436 0.141737,0.07048 0.187547,0.150468 0.147523,0.257658 l -0.03111,0.08333 0.155605,-0.02104 c 0.184169,-0.02492 0.423479,0.03811 0.530575,0.139697 0.115486,0.109545 0.107383,0.147134 -0.06208,0.287996 -0.08147,0.06773 -0.150013,0.125737 -0.152324,0.128942 -0.0023,0.0032 0.07094,-0.0091 0.16277,-0.02751 0.254309,-0.05074 0.477619,-0.02954 0.614096,0.05827 0.129917,0.08356 0.127124,0.106987 -0.02522,0.21154 -0.05081,0.03488 -0.09528,0.06789 -0.0988,0.07332 -0.0036,0.0057 0.07855,0.004 0.182402,-0.004 0.244032,-0.01764 0.490053,0.03213 0.611171,0.123626 0.12049,0.09101 0.100683,0.145467 -0.08098,0.222699 -0.07533,0.03205 -0.155799,0.06773 -0.178816,0.0793 -0.02302,0.01157 0.0844,0.01311 0.238698,0.0032 0.421578,-0.0267 0.645244,0.01432 0.910817,0.166936 0.142007,0.08161 0.213087,0.134558 0.202544,0.15088 -0.0089,0.01384 -0.1586,0.06045 -0.332593,0.103508 -0.173993,0.04313 -0.302527,0.08084 -0.285632,0.08389 0.0169,0.0032 0.154295,0.02031 0.305333,0.03836 0.365353,0.0437 0.686512,0.131176 0.933523,0.254219 0.197858,0.09856 0.496211,0.317727 0.530375,0.38961 0.02386,0.05017 -0.09517,0.07858 -0.281814,0.06725 -0.643308,-0.03909 -1.147275,-0.04685 -1.140973,-0.01756 0.0023,0.01052 0.166942,0.06118 0.365958,0.112506 0.569814,0.147061 0.863917,0.267207 1.229266,0.502158 0.226073,0.145394 0.351471,0.243116 0.444516,0.346414 0.24175,0.268404 0.197466,0.282744 -0.34537,0.111851 -0.222225,-0.07 -0.58438,-0.166587 -0.804788,-0.21472 -0.437283,-0.0955 -1.143716,-0.199563 -1.136814,-0.167478 0.0023,0.01109 0.08962,0.05284 0.193871,0.09284 0.555563,0.213213 0.897592,0.378894 1.250888,0.605891 0.553705,0.355776 0.833841,0.631067 0.952074,0.935604 0.09071,0.233647 0.111373,0.238462 -0.619971,-0.144552 -0.717166,-0.375595 -1.363966,-0.642365 -1.938212,-0.799411 -0.191289,-0.05228 -0.258459,-0.03949 -0.117358,0.02242 0.05877,0.02581 0.339321,0.188614 0.62344,0.361837 0.439976,0.26825 0.560974,0.353939 0.815973,0.577869 0.164666,0.144604 0.359901,0.34047 0.433854,0.435255 0.143607,0.184066 0.253487,0.401651 0.225055,0.445665 -0.01251,0.01934 -0.177201,-0.08331 -0.592745,-0.369541 -0.774147,-0.53324 -1.376393,-0.851501 -2.089638,-1.104271 l -0.209249,-0.07412 0.373643,0.265491 c 0.449575,0.319445 0.784153,0.610952 0.984412,0.857694 0.155445,0.191528 0.294338,0.46957 0.249301,0.499067 -0.01449,0.0095 -0.03133,0.01109 -0.03741,0.0032 -0.0061,-0.0073 -0.155818,-0.134073 -0.332747,-0.281061 -0.378351,-0.314337 -1.049772,-0.755389 -1.502532,-0.987006 -0.472975,-0.241959 -1.556649,-0.651711 -1.675454,-0.633503 -0.01676,0.0024 0.03432,0.05567 0.113501,0.117944 0.07918,0.06231 0.167694,0.147434 0.196693,0.189173 l 0.05273,0.07591 -0.10869,-0.04402 c -0.05978,-0.0242 -0.204049,-0.08752 -0.320597,-0.140635 -0.333215,-0.151876 -0.70875,-0.266107 -1.143191,-0.347717 -0.581865,-0.109319 -0.716567,-0.168708 -1.426467,-0.628947 -0.55374,-0.358997 -0.614716,-0.392596 -0.86362,-0.475922 -0.336425,-0.11262 -0.750473,-0.182562 -1.078494,-0.182173 l -0.253471,2.99e-4 -0.201449,0.349529 c -0.211636,0.367203 -0.275865,0.545654 -0.319144,0.886694 -0.01915,0.15088 -0.04286,0.206952 -0.176546,0.417408 -0.129039,0.203148 -0.167344,0.290917 -0.232991,0.533871 -0.07374,0.272911 -0.159415,0.459098 -0.216951,0.471471 -0.04991,0.01076 -0.161397,-0.276852 -0.287625,-0.742004 -0.0251,-0.0925 -0.07056,-0.184536 -0.101031,-0.204508 -0.09876,-0.06474 -0.157051,-0.208991 -0.242202,-0.599338 -0.07234,-0.331588 -0.110366,-0.432126 -0.282779,-0.74749 -0.229523,-0.419827 -0.184182,-0.393899 -0.637192,-0.364387 -0.688518,0.04483 -1.190834,0.212665 -1.663259,0.55564 -0.109323,0.07939 -0.260885,0.189043 -0.336804,0.243715 -0.290945,0.209532 -0.540013,0.304851 -1.197605,0.458337 -0.617994,0.144245 -1.084684,0.29621 -1.387498,0.451816 -0.07723,0.03965 -0.151227,0.06514 -0.164439,0.05665 -0.03018,-0.0195 0.107691,-0.173822 0.23873,-0.267231 0.05262,-0.03755 0.09398,-0.07607 0.09192,-0.08565 -0.005,-0.02339 -0.692785,0.192742 -1.007346,0.316521 -0.380444,0.149699 -0.773775,0.342092 -1.126984,0.551253 -0.428583,0.253798 -0.586994,0.365083 -1.028467,0.72251 -0.206626,0.167292 -0.389349,0.300652 -0.40605,0.296356 -0.03863,-0.0099 0.02294,-0.161215 0.140435,-0.345014 0.191656,-0.299819 0.728666,-0.777797 1.228447,-1.093412 l 0.281813,-0.177965 -0.167817,0.04588 c -0.491809,0.134469 -1.493694,0.642672 -2.036587,1.033051 -0.359296,0.258362 -0.684933,0.466147 -0.70759,0.451508 -0.04824,-0.03115 0.01624,-0.181792 0.154644,-0.361263 0.374113,-0.485115 1.129479,-1.060637 1.839902,-1.401832 0.108835,-0.05228 0.196503,-0.102173 0.194818,-0.110888 -0.0039,-0.01999 -0.267699,0.05333 -0.679353,0.18889 -0.385987,0.127105 -0.934878,0.366919 -1.609885,0.703388 -0.275999,0.137576 -0.51044,0.244572 -0.520979,0.237758 -0.0343,-0.02217 0.01199,-0.164135 0.09524,-0.292154 0.321313,-0.494106 1.215332,-1.077842 2.146525,-1.401549 0.116414,-0.04046 0.216447,-0.08099 0.222295,-0.09004 0.0058,-0.0091 -0.11799,-0.0024 -0.275196,0.01465 -0.371056,0.04038 -1.082162,0.193543 -1.676348,0.361028 -0.26544,0.07485 -0.478974,0.118754 -0.487724,0.100353 -0.02453,-0.05163 0.1574,-0.252754 0.385382,-0.426082 0.383183,-0.29133 0.767546,-0.455498 1.486848,-0.635049 0.196433,-0.04904 0.355076,-0.09879 0.352543,-0.110565 -0.0047,-0.02185 -0.547279,-0.02015 -1.087012,0.0032 -0.339996,0.01489 -0.418922,-0.0085 -0.329072,-0.09723 0.286369,-0.282922 0.531343,-0.401878 1.070583,-0.519871 0.252575,-0.05527 0.516005,-0.104779 0.585401,-0.110031 l 0.126174,-0.0095 -0.254727,-0.05681 c -0.140099,-0.03124 -0.29303,-0.07461 -0.339845,-0.09628 l -0.08512,-0.03941 0.10476,-0.0817 c 0.225734,-0.176047 0.569479,-0.250197 1.033229,-0.222877 l 0.231214,0.0136 -0.185767,-0.09725 c -0.183339,-0.09597 -0.185279,-0.09799 -0.148494,-0.154741 0.08705,-0.134266 0.409831,-0.219786 0.705997,-0.187036 l 0.199978,0.02209 -0.134331,-0.08677 c -0.08714,-0.05632 -0.131464,-0.100417 -0.126172,-0.1256 0.02437,-0.115922 0.386366,-0.196407 0.691168,-0.15368 l 0.173452,0.02436 -0.141873,-0.114902 c -0.07803,-0.0632 -0.145915,-0.133693 -0.150853,-0.156659 -0.01296,-0.06029 0.09389,-0.155606 0.260413,-0.232393 0.11091,-0.05114 0.18729,-0.06069 0.331448,-0.04159 l 0.187325,0.02484 -0.02857,-0.08358 c -0.01572,-0.04596 -0.01591,-0.118819 -4.38e-4,-0.161886 0.02443,-0.06797 0.05336,-0.08318 0.219581,-0.115307 0.190641,-0.03682 0.304359,-0.02323 0.498229,0.05972 l 0.101914,0.04362 -0.01429,-0.112895 c -0.02289,-0.180838 0.06,-0.279475 0.26872,-0.319717 0.171013,-0.03302 0.27353,-0.01125 0.43285,0.09165 0.04601,0.0297 0.08474,0.04313 0.08604,0.02986 0.02653,-0.269311 0.06407,-0.332916 0.230147,-0.389934 0.126276,-0.04337 0.270447,-0.01529 0.420971,0.08195 0.06696,0.04321 0.12333,0.07583 0.125278,0.07235 0.0019,-0.0032 0.01627,-0.05859 0.03182,-0.122525 0.03128,-0.128586 0.115756,-0.220708 0.230605,-0.251467 0.100345,-0.02687 0.317591,0.02719 0.407575,0.10142 l 0.0782,0.0645 0.08099,-0.154862 c 0.07329,-0.140134 0.09073,-0.157306 0.183411,-0.180636 0.132561,-0.03334 0.302443,0.01991 0.392633,0.123189 0.09558,0.109432 0.09449,0.109472 0.149069,-0.0065 0.126629,-0.268817 0.418442,-0.272256 0.600433,-0.0073 0.03488,0.05082 0.06752,0.09505 0.07255,0.0983 0.005,0.0032 0.0468,-0.05236 0.09281,-0.123617 0.06716,-0.103954 0.103545,-0.134591 0.184347,-0.15521 0.126165,-0.03221 0.280674,0.05851 0.374129,0.219543 0.03501,0.06029 0.07062,0.114198 0.07915,0.119701 0.0085,0.0057 0.03552,-0.07121 0.05999,-0.170431 0.04422,-0.179349 0.04372,-0.181745 -0.08156,-0.395591 -0.173349,-0.295894 -0.315153,-0.482267 -0.717869,-0.94351 -0.612263,-0.701244 -0.869651,-1.033253 -0.8901,-1.148155 -0.02337,-0.131338 0.0096,-0.165746 0.162147,-0.169161 0.106912,-0.0024 0.143312,0.01279 0.302632,0.125899 0.09961,0.07073 0.177598,0.117209 0.173314,0.10325 -0.0043,-0.01392 -0.06234,-0.09618 -0.129029,-0.182699 -0.218801,-0.28391 -0.365891,-0.536129 -0.366489,-0.628438 -5.36e-4,-0.08261 0.0053,-0.092 0.07701,-0.123779 0.04267,-0.01894 0.110951,-0.03229 0.151725,-0.0297 0.09226,0.0057 0.453784,0.239353 0.56109,0.362477 0.04271,0.04904 0.08315,0.08793 0.08986,0.08649 0.0067,-0.0016 -0.03664,-0.112134 -0.09633,-0.24598 -0.144333,-0.323643 -0.212009,-0.640463 -0.155498,-0.727941 0.04834,-0.07485 0.09306,-0.08474 0.22765,-0.05049 0.117125,0.02986 0.374117,0.245665 0.505901,0.424892 0.05071,0.06895 0.09586,0.127769 0.100334,0.130666 0.0045,0.0032 -0.01696,-0.136638 -0.04764,-0.310087 -0.05107,-0.288765 -0.05161,-0.469999 -0.0019,-0.637339 0.0129,-0.04346 0.0444,-0.06878 0.100467,-0.08084 0.15137,-0.03253 0.368215,0.166612 0.551628,0.506665 l 0.09719,0.180199 0.02797,-0.290197 c 0.0252,-0.261429 0.03947,-0.309918 0.144069,-0.489178 0.09548,-0.16365 0.12908,-0.20246 0.189203,-0.218556 0.04021,-0.01076 0.08432,-0.0123 0.09804,-0.0032 0.01371,0.0088 0.06444,0.0089 0.112733,6.5e-5 0.237514,-0.04338 0.452031,0.386948 0.454182,0.911092 3.11e-4,0.07582 0.01166,0.0636 0.169343,-0.182521 0.149959,-0.234109 0.184633,-0.273074 0.307628,-0.345734 0.116884,-0.06903 0.151219,-0.07542 0.218974,-0.04038 0.07004,0.03617 0.08163,0.06344 0.09026,0.2126 0.01321,0.228129 0.002,0.362622 -0.04926,0.592653 l -0.04282,0.19207 0.195082,-0.213717 c 0.207285,-0.227093 0.300553,-0.294113 0.468827,-0.336897 0.130647,-0.03318 0.177076,-0.004 0.1996,0.123836 z"
     id="path12" />
  <path
     style="fill:#1a1a1a;fill-opacity:1;stroke:#080808;stroke-width:0.646163;stroke-linecap:butt;stroke-linejoin:round;stroke-dasharray:none;stroke-opacity:1"
     d="m 17.48354,20.194347 c -4.902293,9.175442 4.91295,14.819714 5.7663,14.860685 2.937768,0.461649 4.061754,2.84034 8.810165,1.367564 2.477975,-0.745076 4.97217,-1.747716 6.854775,-3.586522 1.711301,-1.3537 2.951833,-3.17601 4.480885,-4.703975 0.496606,-0.30229 0.870947,-0.621021 0.279937,-1.069568 -0.266205,-0.638168 -1.04179,-0.512967 -1.5922,-0.725219 -0.453891,-0.108561 -1.269818,-0.244279 -0.865365,-0.854458 0.686387,-2.346272 1.117828,-4.756743 1.680338,-7.134209 l -2.231314,0.855648 c 0.165149,-1.309704 0.185385,-2.67398 -0.519056,-3.838879 0.03354,-2.744785 0.962316,-5.212985 2.330317,-7.5259036 -2.579656,-1.5039 -4.8725,0.35199 -6.461846,2.4973566 -0.547687,0.93524 -1.25979,1.794837 -1.702744,2.77826 l -0.483726,1.612408 c 0.930036,2.668822 1.923185,5.465037 1.486939,8.334426 -0.151599,0.902107 0.02502,1.949022 -0.671964,2.647515 -0.850349,1.12577 -1.586335,2.349344 -2.509575,3.41278 -1.715875,1.673895 -3.413415,3.366309 -5.10775,5.061961 C 25.856424,33.965386 24.650009,33.49627 23.51051,33.209091 22.604954,32.39038 21.761623,31.694019 21.023428,30.782664 20.317236,29.4761 19.515519,28.223977 18.960921,26.814203 18.719892,24.326526 17.741092,22.581967 17.48354,20.194347 Z"
     id="path10"
     sodipodi:nodetypes="ccccccccccccccccccccccc" />
  <path
     id="path2"
     style="fill:#e1252b;fill-opacity:1;stroke:#ac1c20;stroke-width:0.646163;stroke-linecap:round;stroke-linejoin:round;stroke-dasharray:none;stroke-opacity:1"
     d="m 26.522147,33.944559 c 4.474516,-0.01105 8.228188,-4.657393 8.717221,-10.790278 l 0.08315,0.656753 2.360185,3.099219 c 0.509205,0.668719 2.603612,1.447264 1.145084,-2.455131 0,0 -1.08262,-3.321244 -1.942997,-4.734767 -0.591639,-0.972013 -1.985611,-2.358496 -2.303294,-2.670431 -0.763656,-2.45126 -1.610201,-4.098901 -3.21709,-5.379379 -0.699226,-0.557191 -1.17552,0.0037 -2.658338,-0.866555 -1.286364,-0.754931 -3.583161,-2.9892786 -4.313531,-2.9907646 -1.342756,-4e-5 -3.867448,-0.238287 -4.575208,0.889186 -0.553639,0.881954 1.47078,2.6051836 0.775334,3.5444036 -1.628256,2.198999 -2.856364,6.193961 -2.856296,9.584917 5.91e-4,6.690071 3.933977,12.112972 8.78578,12.112827 z"
     sodipodi:nodetypes="sccccscsscsscs" />
  <path
     style="fill:#000000;stroke:none;stroke-width:0.831766px;stroke-linecap:butt;stroke-linejoin:miter;stroke-opacity:1"
     d="m 25.785932,16.717522 c 0,0 1.356719,0.877782 2.061424,0.730511 0.926494,-0.193621 2.388978,-1.828182 2.388978,-1.828182 0.539895,-0.04059 1.171175,-0.326456 1.780484,-0.625318 -1.135216,-0.796574 -2.571597,-0.992948 -3.928247,-1.011362 -0.649027,0.114438 -1.245236,0.521432 -1.739906,1.028038 -0.196604,0.254201 -0.245655,0.288734 -0.455844,0.493784 -0.581881,-0.993597 -1.50643,-1.200058 -2.574675,-1.436562 -0.781275,-0.08134 -1.307531,-0.0089 -1.597558,0.42865 -0.135568,0.204488 -0.174695,0.119651 -0.5974,1.185551 0.504644,0.116195 1.020827,0.187237 1.51824,0.331727 0.790158,0.468396 1.227305,1.401567 2.029493,1.455197 0.436134,0.02916 0.767314,-0.397284 1.115011,-0.752034 z"
     id="path3"
     sodipodi:nodetypes="csccsccssccsc" />
  <ellipse
     style="fill:#ffffff;stroke:none;stroke-width:0.714221;stroke-linecap:round;stroke-linejoin:round"
     id="path4"
     cx="-22.778494"
     cy="-23.248608"
     rx="1.7780049"
     ry="2.4976041"
     transform="scale(-1)" />
  <ellipse
     style="fill:#000000;stroke:none;stroke-width:0.714221;stroke-linecap:round;stroke-linejoin:round"
     id="path5"
     cx="-22.370207"
     cy="-22.74221"
     rx="1.0272917"
     ry="1.8295513"
     transform="scale(-1)" />
  <ellipse
     style="fill:#ffffff;stroke:none;stroke-width:0.714221;stroke-linecap:round;stroke-linejoin:round"
     id="ellipse5"
     cx="-28.867002"
     cy="-23.248608"
     ry="2.3990281"
     rx="1.7780049"
     transform="scale(-1)" />
  <ellipse
     style="fill:#000000;stroke:none;stroke-width:0.714221;stroke-linecap:round;stroke-linejoin:round"
     id="ellipse6"
     cx="-28.458723"
     cy="-22.74221"
     rx="1.0272917"
     ry="1.8295513"
     transform="scale(-1)" />
  <path
     style="fill:#000000;stroke:none;stroke-width:0.166353;stroke-linecap:butt;stroke-linejoin:miter;stroke-dasharray:none;stroke-opacity:1"
     d="m 23.112425,24.035572 c 1.106449,-0.61159 2.031563,-1.710289 1.991962,-1.573629 -0.198729,3.137225 -0.790269,3.466602 -2.673994,5.096616 l -1.730854,1.030996 c 0,0 -0.110142,-0.600721 -0.01512,-0.909788 0.09503,-0.309067 0.348187,-0.786552 0.348187,-0.786552 -0.391054,0.2863 -0.68572,0.291014 -0.742293,-0.399825 l 0.08779,-1.189457 z"
     id="path6"
     sodipodi:nodetypes="csccscccc"
     inkscape:transform-center-x="-0.065717786"
     inkscape:transform-center-y="1.7086525" />
  <path
     style="fill:#1a1a1a;fill-opacity:1;stroke:none;stroke-width:1px;stroke-linecap:butt;stroke-linejoin:miter;stroke-opacity:1"
     d="m 34.593556,27.069858 c -0.325284,0.162642 -2.881092,3.903416 -2.881092,3.903416 0,0 -1.826425,1.327618 -1.643849,1.643849 0.182576,0.316231 -0.184008,1.262159 0,1.155922 0.184008,-0.106237 3.900511,-3.900511 3.900511,-3.900511 l 1.341396,-2.323366 z"
     id="path13" />
  <path
     style="fill:#000000;stroke:none;stroke-width:0.166353;stroke-linecap:butt;stroke-linejoin:miter;stroke-dasharray:none;stroke-opacity:1"
     d="m 28.289964,23.863943 c -1.178971,-0.456392 -2.244128,-1.419937 -2.186414,-1.289887 0.621028,3.081558 1.251668,3.32794 3.338463,4.688328 l 1.854346,0.787534 c 0,0 0.02791,-0.610097 -0.108015,-0.90348 -0.135941,-0.293383 -0.451324,-0.73226 -0.451324,-0.73226 0.42617,0.230807 0.718767,0.19564 0.681426,-0.496506 l -0.247787,-1.166667 z"
     id="path7"
     sodipodi:nodetypes="csccscccc" />
  <path
     style="fill:#1a1a1a;fill-opacity:1;stroke:#080808;stroke-width:0.461545;stroke-linecap:butt;stroke-linejoin:miter;stroke-dasharray:none;stroke-opacity:1"
     d="m 36.02545,25.650147 c -0.300267,-0.171581 -2.337793,-2.005353 -2.337793,-2.005353 l 0.08579,3.163527 -1.964561,-0.764756 0.120064,4.357234 c -1.070101,3.073227 -4.413369,2.322728 -4.525453,3.67827 -0.646423,2.231229 -1.476334,2.188172 0.383064,2.294899"
     id="path11"
     sodipodi:nodetypes="ccccccc" />
  <path
     style="fill:#e1252b;fill-opacity:1;stroke:#ac1c20;stroke-width:0.646163;stroke-linecap:butt;stroke-linejoin:miter;stroke-dasharray:none;stroke-opacity:1"
     d="m 25.257654,21.959222 c -0.606748,-1.620645 -9.071927,-2.799524 -9.682938,-2.711882 -0.931241,-0.517357 -0.285391,-2.712524 0.659411,-2.711883 0.258298,1.75e-4 3.088823,0.04304 3.227647,0.0861 0.138823,0.04305 6.38588,2.625792 6.38588,2.625792"
     id="path8"
     sodipodi:nodetypes="ccssc" />
  <path
     style="fill:#000000;fill-opacity:1;stroke:#000000;stroke-width:0.831766px;stroke-linecap:butt;stroke-linejoin:round;stroke-opacity:1"
     d="m 27.791182,37.929199 c 0.06941,-0.344366 0.763529,-4.993309 0.763529,-4.993309 0,0 -1.710182,-2.181065 -2.811175,-2.754929 -0.50533,-0.263388 -1.631175,-0.258274 -1.631175,-0.258274 0,0 -1.665882,7.576054 -1.492353,7.576054 0.17353,0 5.171174,0.430458 5.171174,0.430458 z"
     id="path9"
     sodipodi:nodetypes="ccscsc" />
</svg>
