<?xml version="1.0" encoding="UTF-8" standalone="no"?>
<svg
   viewBox="0 0 60 60"
   version="1.1"
   id="svg9"
   sodipodi:docname="1R-RightKappa.svg"
   inkscape:version="1.4.4 (dcaf3e7, 2026-05-05)"
   xmlns:inkscape="http://www.inkscape.org/namespaces/inkscape"
   xmlns:sodipodi="http://sodipodi.sourceforge.net/DTD/sodipodi-0.dtd"
   xmlns="http://www.w3.org/2000/svg"
   xmlns:svg="http://www.w3.org/2000/svg">
  <sodipodi:namedview
     id="namedview9"
     pagecolor="#ffffff"
     bordercolor="#666666"
     borderopacity="1.0"
     inkscape:showpageshadow="2"
     inkscape:pageopacity="0.0"
     inkscape:pagecheckerboard="0"
     inkscape:deskcolor="#d1d1d1"
     inkscape:zoom="21.519616"
     inkscape:cx="17.890654"
     inkscape:cy="35.293381"
     inkscape:window-width="3840"
     inkscape:window-height="2054"
     inkscape:window-x="3829"
     inkscape:window-y="-11"
     inkscape:window-maximized="1"
     inkscape:current-layer="svg9" />
  <defs
     id="defs1">
    <filter
       id="1KA_svg__a"
       x="-0.13338546"
       y="-0.1082508"
       width="1.3166419"
       height="1.257465">
      <feGaussianBlur
         in="SourceAlpha"
         result="blur"
         stdDeviation="2"
         id="feGaussianBlur1" />
      <feOffset
         dx="2"
         dy="2"
         result="offsetBlur"
         id="feOffset1" />
      <feBlend
         in="SourceGraphic"
         in2="offsetBlur"
         id="feBlend1" />
    </filter>
    <filter
       id="0HI_svg__a"
       x="-0.1341634"
       y="-0.11018899"
       width="1.3183423"
       height="1.2615933">
      <feGaussianBlur
         in="SourceAlpha"
         result="blur"
         stdDeviation="2"
         id="feGaussianBlur1-1" />
      <feOffset
         dx="2"
         dy="2"
         result="offsetBlur"
         id="feOffset1-9" />
      <feBlend
         in="SourceGraphic"
         in2="offsetBlur"
         id="feBlend1-3"
         mode="normal" />
    </filter>
  </defs>
  <g
     fill="#fdd3e3"
     filter="url(#1KA_svg__a)"
     transform="translate(-102.587 -25.906)scale(1.03094)"
     id="g1"
     style="fill:#d5beaf;fill-opacity:1">
    <path
       fill="#fdeb98"
       d="m 141.866,74.375 6.836,-44.558 h -40.19 l 6.535,44.862 13.56087,3.935 c 0.09,0.017 -0.091,0.032 0,0.021 z"
       id="path1"
       sodipodi:nodetypes="ccccccc"
       style="stroke-width:0.96998855;stroke-dasharray:none;stroke:#333333;fill:#d5beaf;fill-opacity:1" />
  </g>
  <g
     id="g2"
     transform="matrix(-1,0,0,1,59.983844,0)">
    <path
       style="fill:#76a556;fill-opacity:1;stroke:#3b522a;stroke-width:0.8;stroke-linecap:butt;stroke-linejoin:miter;stroke-dasharray:none;stroke-opacity:1"
       d="m 26.455141,21.500685 c 0,0 -0.375457,-6.80837 0.599673,-9.785969 0.716885,-2.1890416 3.386954,-6.0089206 3.386954,-6.0089206 l 11.483716,0.01773 -10.692875,15.9242996 z"
       id="path2"
       sodipodi:nodetypes="cscccc" />
    <path
       style="fill:#fcf4ab;fill-opacity:1;stroke:none;stroke-width:0.8427px;stroke-linecap:butt;stroke-linejoin:miter;stroke-opacity:1"
       d="m 26.895674,17.984119 c 0,0 4.102902,-2.82604 4.604207,-4.698395 0.437623,-1.63452 -1.933552,-5.5275116 -1.933552,-5.5275116 0,0 -1.829577,3.0000466 -2.327545,4.6038726 -0.542024,1.745704 -0.34311,5.622034 -0.34311,5.622034 z"
       id="path3"
       sodipodi:nodetypes="cscsc" />
    <path
       style="fill:#76a556;fill-opacity:1;stroke:#3b522a;stroke-width:0.8;stroke-linecap:butt;stroke-linejoin:miter;stroke-dasharray:none;stroke-opacity:1"
       d="m 26.533461,21.569502 -3.367732,1.879663 -5.384436,4.722381 -0.646131,-0.763613 -0.93983,0.411176 c 0,0 0.0979,-1.311847 -0.137057,-1.331427 -0.234961,-0.01958 -1.037734,-0.254537 -1.037734,-0.254537 0,0 0.97899,-1.448906 0.822357,-1.488065 -0.156641,-0.03916 -0.665716,-1.174789 -0.665716,-1.174789 l 1.351008,-0.587394 c 1.812386,-1.437494 7.403165,-4.400933 9.789886,-5.368516 z"
       id="path4"
       sodipodi:nodetypes="cccccscscccc" />
    <path
       style="fill:#76a556;fill-opacity:1;stroke:#3b522a;stroke-width:0.8;stroke-linecap:butt;stroke-linejoin:miter;stroke-dasharray:none;stroke-opacity:1"
       d="m 32.668957,17.043492 c -1.944869,-3.054761 -8.461171,-7.6298816 -11.985258,-6.410919 0,0 0.671623,-0.8915526 0.520595,-0.9330886 -0.151029,-0.04154 -1.133676,-0.677292 -0.676798,-0.714101 0.45687,-0.03681 1.039757,-0.384177 0.940639,-0.614502 -0.09911,-0.230325 -0.404943,-0.964246 -0.152436,-0.99634 0.252506,-0.03209 1.061473,-0.09391 0.982655,-0.176507 -0.07879,-0.08259 0.09298,-0.928845 0.09298,-0.928845 3.918941,0.323121 10.127848,3.9306296 10.975704,7.1283086"
       id="path5"
       sodipodi:nodetypes="ccssssscc" />
    <path
       style="fill:#3b522b;fill-opacity:1;stroke:#313131;stroke-width:0.8;stroke-linecap:butt;stroke-linejoin:miter;stroke-dasharray:none;stroke-opacity:1"
       d="M 33.490008,21.346516 42.350821,8.1660614 c 0,0 3.108114,3.0404976 3.599703,5.2504506 0.565291,2.541273 0.147102,5.388333 -0.941465,7.753209 -0.628266,1.364882 -3.045905,3.831879 -3.045905,3.831879 0,0 -1.772156,1.716782 -2.215197,1.550642 -0.443041,-0.166141 -6.257949,-5.205726 -6.257949,-5.205726 z"
       id="path6"
       sodipodi:nodetypes="ccsscsc" />
    <path
       style="fill:none;stroke:#313131;stroke-width:0.42135;stroke-linecap:butt;stroke-linejoin:miter;stroke-dasharray:none;stroke-opacity:1"
       d="m 36.832443,16.380854 1.997131,9.633265"
       id="path7"
       sodipodi:nodetypes="cc" />
    <path
       style="fill:none;stroke:#313131;stroke-width:0.42135;stroke-linecap:butt;stroke-linejoin:miter;stroke-dasharray:none;stroke-opacity:1"
       d="m 39.299498,12.817328 2.702007,12.178641"
       id="path8"
       sodipodi:nodetypes="cc" />
    <path
       style="fill:none;stroke:#313131;stroke-width:0.42135;stroke-linecap:butt;stroke-linejoin:miter;stroke-dasharray:none;stroke-opacity:1"
       d="M 41.688232,8.8034674 44.664353,22.235216"
       id="path9"
       sodipodi:nodetypes="cc" />
    <path
       style="fill:none;stroke:#313131;stroke-width:0.42135;stroke-linecap:butt;stroke-linejoin:miter;stroke-dasharray:none;stroke-opacity:1"
       d="M 34.796134,19.631101 46.191587,15.421442"
       id="path10"
       sodipodi:nodetypes="cc" />
    <path
       style="fill:none;stroke:#313131;stroke-width:0.42135;stroke-linecap:butt;stroke-linejoin:miter;stroke-dasharray:none;stroke-opacity:1"
       d="M 35.618483,23.253365 45.799984,19.317824"
       id="path11"
       sodipodi:nodetypes="cc" />
    <path
       style="fill:none;stroke:#313131;stroke-width:0.42135;stroke-linecap:butt;stroke-linejoin:miter;stroke-dasharray:none;stroke-opacity:1"
       d="m 38.379235,13.952956 6.989994,-2.564955"
       id="path12"
       sodipodi:nodetypes="cc" />
    <path
       style="fill:#faf4aa;fill-opacity:1;stroke:#313131;stroke-width:0.7;stroke-linecap:butt;stroke-linejoin:miter;stroke-dasharray:none;stroke-opacity:1"
       d="m 33.249333,21.510763 c -0.664258,0.641352 -2.234857,0.147793 -1.938404,-0.254537 0,0 9.563937,-14.4616056 9.65285,-14.5477976 0.548135,-0.531343 1.959126,0.622442 1.664282,0.95941 z"
       id="path13"
       sodipodi:nodetypes="ccscc" />
    <ellipse
       style="fill:#76a556;fill-opacity:1;stroke:#3b522a;stroke-width:0.655454;stroke-linecap:round;stroke-linejoin:round;stroke-dasharray:none;stroke-opacity:1"
       id="path14"
       cx="31.43375"
       cy="-31.260571"
       rx="10.189514"
       ry="10.882015"
       transform="scale(1,-1)" />
    <g
       id="g18"
       transform="matrix(1,0,0,-1,1.4789121,57.276477)">
      <path
         style="fill:#3b522a;fill-opacity:1;stroke:#27341c;stroke-width:0.8;stroke-linecap:round;stroke-linejoin:round;stroke-dasharray:none;stroke-opacity:1"
         d="m 24.545475,21.195297 -0.07829,-2.780334 -4.620835,-0.822352 3.211083,-2.427896 -1.488065,-2.467056 4.385882,1.01815 2.388734,-2.819492 1.840499,2.388736 2.702016,-2.192938 1.135631,2.271258 c 0,0 4.503355,-0.939831 4.385874,-0.744032 -0.117472,0.195798 -1.762178,2.97613 -1.762178,2.97613 l 3.289404,1.840501 -4.229233,0.626555 -0.469915,3.328568 -2.662856,-1.918822 -2.702017,2.427897 -2.11462,-2.349578 -3.211083,1.879662 z"
         id="path16"
         sodipodi:nodetypes="ccccccccccsccccccccc" />
      <ellipse
         style="opacity:1;fill:#fcf4ab;fill-opacity:1;stroke:#baab07;stroke-width:0.8;stroke-linecap:round;stroke-linejoin:round;stroke-dasharray:none;stroke-opacity:1"
         id="path15"
         cx="29.949503"
         cy="16.319925"
         rx="6.3830175"
         ry="3.1523492" />
    </g>
    <path
       style="fill:#e9d655;fill-opacity:1;stroke:#877810;stroke-width:0.658375;stroke-linecap:butt;stroke-linejoin:miter;stroke-dasharray:none;stroke-opacity:1"
       d="m 21.503914,31.567057 c 3.046516,-4.088673 3.566204,-5.039288 3.780363,-7.244436 -2.9667,-0.932864 -3.345936,-0.800301 -4.969934,-1.180288 -0.578983,-0.135471 -2.981363,-0.262631 -3.534344,0.970851 l 3.907241,2.881656 -4.438963,3.98642 c 2.283722,1.530902 3.37984,0.979142 5.255637,0.585797 z"
       id="path17"
       sodipodi:nodetypes="ccscccc" />
    <ellipse
       style="fill:#313131;fill-opacity:1;stroke:none;stroke-width:1.13877;stroke-linecap:round;stroke-linejoin:round;stroke-dasharray:none;stroke-opacity:1"
       id="path18"
       cx="33.083954"
       cy="-27.266239"
       rx="1.7859811"
       ry="2.8897781"
       transform="matrix(0.98161976,0.1908472,0.1908472,-0.98161976,0,0)" />
    <g
       id="g25"
       transform="rotate(180,29.79447,30.015855)">
      <path
         style="fill:#82ccf3;fill-opacity:1;stroke:none;stroke-width:1px;stroke-linecap:butt;stroke-linejoin:miter;stroke-opacity:1"
         d="m 29.587947,5.4052564 1.749727,0.533954 0.04107,13.2174156 H 27.48499 V 6.0460012 Z"
         id="path19"
         sodipodi:nodetypes="cccccc" />
      <ellipse
         style="fill:#82ccf3;fill-opacity:1;stroke:none;stroke-width:0.600945;stroke-linecap:round;stroke-linejoin:round;stroke-opacity:0.992157"
         id="path20"
         cx="-28.985638"
         cy="18.838434"
         rx="3.4477186"
         ry="1.9743936"
         transform="scale(-1,1)" />
      <path
         style="fill:#b6e3f7;fill-opacity:1;stroke:none;stroke-width:0.125604px;stroke-linecap:butt;stroke-linejoin:miter;stroke-opacity:1"
         d="m 31.378747,6.7097171 c 0,0 -0.923654,1.0620633 -1.237604,1.6838975 -0.45969,0.9104956 -0.05363,2.3649184 -0.907984,2.9220574 -0.162381,0.10589 -0.48701,0.165088 -0.577807,-0.06603 C 28.594992,11.095986 27.48501,7.3700742 27.48501,7.3700742 v 4.8535868 c 0,0 -0.486243,2.254288 0.95409,3.51988 0.266484,0.234156 0.725803,0.255749 1.056563,0.127528 0.259449,-0.100586 0.336266,-0.376096 0.381361,-0.650681 0.274578,-1.671923 0.430637,-1.923494 0.759383,-2.319864 0.06277,-0.748302 0.440246,-1.063554 0.74234,-1.452886 z"
         id="path21"
         sodipodi:nodetypes="csssccsssccc" />
      <path
         style="fill:#82ccf3;fill-opacity:1;stroke:none;stroke-width:0.563114px;stroke-linecap:butt;stroke-linejoin:miter;stroke-opacity:1"
         d="m 25.173859,17.487551 c -0.180263,-0.730153 0.276264,-1.429816 -0.801054,-2.572912 -0.285497,-0.52707 -1.55255,0.134388 -1.578609,1.165701 -0.02931,1.16003 2.291742,1.683581 2.379663,1.407211 z"
         id="path22"
         sodipodi:nodetypes="ccsc" />
      <path
         style="fill:#82ccf3;fill-opacity:1;stroke:none;stroke-width:0.563114px;stroke-linecap:butt;stroke-linejoin:miter;stroke-opacity:1"
         d="m 32.693465,16.686164 c 0.180264,-0.730153 -0.276264,-1.429816 0.801055,-2.572912 0.285496,-0.52707 1.552549,0.134388 1.578608,1.165701 0.02931,1.16003 -2.291741,1.683581 -2.379663,1.407211 z"
         id="path23"
         sodipodi:nodetypes="ccsc" />
      <path
         style="fill:#82ccf3;fill-opacity:1;stroke:none;stroke-width:0.563114px;stroke-linecap:butt;stroke-linejoin:miter;stroke-opacity:1"
         d="m 33.464905,19.490308 c 0.531349,-0.532245 0.501601,-1.367148 2.0144,-1.789904 0.516624,-0.303992 1.260242,0.916655 0.750105,1.813341 -0.573806,1.008601 -2.831895,0.258642 -2.764505,-0.02344 z"
         id="path24"
         sodipodi:nodetypes="ccsc"
         inkscape:transform-center-x="-0.46594175"
         inkscape:transform-center-y="0.46594126" />
      <path
         style="fill:#82ccf3;fill-opacity:1;stroke:none;stroke-width:0.563114px;stroke-linecap:butt;stroke-linejoin:miter;stroke-opacity:1"
         d="m 24.497946,19.055293 c -0.683564,-0.313623 -0.946736,-1.10652 -2.512012,-0.975379 -0.590188,-0.104822 -0.861629,1.298485 -0.0709,1.96108 0.889418,0.745295 2.744409,-0.744808 2.582912,-0.985701 z"
         id="path25"
         sodipodi:nodetypes="ccsc" />
    </g>
  </g>
  <g
     id="g29"
     transform="matrix(-1,0,0,1,103.35734,0)">
    <path
       style="fill:#82ccf3;fill-opacity:1;stroke:none;stroke-width:0.856609px;stroke-linecap:butt;stroke-linejoin:miter;stroke-opacity:1"
       d="m 81.833435,46.395666 c 0.568312,1.009608 0.208878,2.241894 2.240868,3.487851 0.633452,0.663404 2.17349,-0.853214 1.773995,-2.397372 -0.449353,-1.736884 -4.005638,-1.538344 -4.014862,-1.090483 z"
       id="path28"
       sodipodi:nodetypes="ccsc" />
    <path
       style="fill:#82ccf3;fill-opacity:1;stroke:none;stroke-width:0.941758px;stroke-linecap:butt;stroke-linejoin:miter;stroke-opacity:1"
       d="m 88.288188,12.600078 c 0.929451,-0.872758 2.389823,-0.861429 3.125036,-3.2988201 0.530259,-0.8393 -1.606796,-1.975396 -3.173731,-1.120738 -1.762504,0.961326 -0.444492,4.5395591 0.0487,4.4195581 z"
       id="path29"
       sodipodi:nodetypes="ccsc" />
  </g>
</svg>
