<?xml version="1.0" encoding="UTF-8" standalone="no"?>
<svg
   viewBox="0 0 60 60"
   version="1.1"
   id="svg9"
   sodipodi:docname="1R-RightKappa.svg"
   inkscape:version="1.3 (0e150ed6c4, 2023-07-21)"
   xmlns:inkscape="http://www.inkscape.org/namespaces/inkscape"
   xmlns:sodipodi="http://sodipodi.sourceforge.net/DTD/sodipodi-0.dtd"
   xmlns="http://www.w3.org/2000/svg"
   xmlns:svg="http://www.w3.org/2000/svg">
  <sodipodi:namedview
     id="namedview9"
     pagecolor="#ffffff"
     bordercolor="#666666"
     borderopacity="1.0"
     inkscape:showpageshadow="2"
     inkscape:pageopacity="0.0"
     inkscape:pagecheckerboard="0"
     inkscape:deskcolor="#d1d1d1"
     inkscape:zoom="10.759808"
     inkscape:cx="31.506138"
     inkscape:cy="32.993154"
     inkscape:window-width="3840"
     inkscape:window-height="2054"
     inkscape:window-x="-11"
     inkscape:window-y="-11"
     inkscape:window-maximized="1"
     inkscape:current-layer="svg9" />
  <defs
     id="defs1">
    <filter
       id="1KA_svg__a"
       x="-0.13338546"
       y="-0.1082508"
       width="1.3166419"
       height="1.257465">
      <feGaussianBlur
         in="SourceAlpha"
         result="blur"
         stdDeviation="2"
         id="feGaussianBlur1" />
      <feOffset
         dx="2"
         dy="2"
         result="offsetBlur"
         id="feOffset1" />
      <feBlend
         in="SourceGraphic"
         in2="offsetBlur"
         id="feBlend1" />
    </filter>
    <filter
       id="0HI_svg__a"
       x="-0.1341634"
       y="-0.11018899"
       width="1.3183423"
       height="1.2615933">
      <feGaussianBlur
         in="SourceAlpha"
         result="blur"
         stdDeviation="2"
         id="feGaussianBlur1-1" />
      <feOffset
         dx="2"
         dy="2"
         result="offsetBlur"
         id="feOffset1-9" />
      <feBlend
         in="SourceGraphic"
         in2="offsetBlur"
         id="feBlend1-3"
         mode="normal" />
    </filter>
  </defs>
  <g
     fill="#fdd3e3"
     filter="url(#1KA_svg__a)"
     transform="translate(-102.587 -25.906)scale(1.03094)"
     id="g1"
     style="fill:#d5beaf;fill-opacity:1">
    <path
       fill="#fdeb98"
       d="m 141.866,74.375 6.836,-44.558 h -40.19 l 6.535,44.862 13.56087,3.935 c 0.09,0.017 -0.091,0.032 0,0.021 z"
       id="path1"
       sodipodi:nodetypes="ccccccc"
       style="stroke-width:0.96998855;stroke-dasharray:none;stroke:#333333;fill:#d5beaf;fill-opacity:1" />
  </g>
  <path
     style="fill:#76a556;fill-opacity:1;stroke:#3b522a;stroke-width:0.8;stroke-linecap:butt;stroke-linejoin:miter;stroke-dasharray:none;stroke-opacity:1"
     d="m 33.880127,21.500685 c 0,0 0.375457,-6.80837 -0.599673,-9.785969 C 32.563569,9.5256744 29.8935,5.7057954 29.8935,5.7057954 l -11.483716,0.01773 10.692875,15.9242996 z"
     id="path2"
     sodipodi:nodetypes="cscccc" />
  <path
     style="fill:#fcf4ab;fill-opacity:1;stroke:none;stroke-width:0.8427px;stroke-linecap:butt;stroke-linejoin:miter;stroke-opacity:1"
     d="m 33.439594,17.984119 c 0,0 -4.102902,-2.82604 -4.604207,-4.698395 -0.437623,-1.63452 1.933552,-5.5275116 1.933552,-5.5275116 0,0 1.829577,3.0000466 2.327545,4.6038726 0.542024,1.745704 0.34311,5.622034 0.34311,5.622034 z"
     id="path3"
     sodipodi:nodetypes="cscsc" />
  <path
     style="fill:#76a556;fill-opacity:1;stroke:#3b522a;stroke-width:0.8;stroke-linecap:butt;stroke-linejoin:miter;stroke-dasharray:none;stroke-opacity:1"
     d="m 33.801807,21.569502 3.367732,1.879663 5.384436,4.722381 0.646131,-0.763613 0.93983,0.411176 c 0,0 -0.0979,-1.311847 0.137057,-1.331427 0.234961,-0.01958 1.037734,-0.254537 1.037734,-0.254537 0,0 -0.97899,-1.448906 -0.822357,-1.488065 0.156641,-0.03916 0.665716,-1.174789 0.665716,-1.174789 l -1.351008,-0.587394 c -1.812386,-1.437494 -7.403165,-4.400933 -9.789886,-5.368516 z"
     id="path4"
     sodipodi:nodetypes="cccccscscccc" />
  <path
     style="fill:#76a556;fill-opacity:1;stroke:#3b522a;stroke-width:0.8;stroke-linecap:butt;stroke-linejoin:miter;stroke-dasharray:none;stroke-opacity:1"
     d="m 27.666311,17.043492 c 1.944869,-3.054761 8.461171,-7.6298816 11.985258,-6.410919 0,0 -0.671623,-0.8915526 -0.520595,-0.9330886 0.151029,-0.04154 1.133676,-0.677292 0.676798,-0.714101 -0.45687,-0.03681 -1.039757,-0.384177 -0.940639,-0.614502 0.09911,-0.230325 0.404943,-0.964246 0.152436,-0.99634 -0.252506,-0.03209 -1.061473,-0.09391 -0.982655,-0.176507 0.07879,-0.08259 -0.09298,-0.928845 -0.09298,-0.928845 -3.918941,0.323121 -10.127848,3.9306296 -10.975704,7.1283086"
     id="path5"
     sodipodi:nodetypes="ccssssscc" />
  <path
     style="fill:#3b522b;fill-opacity:1;stroke:#313131;stroke-width:0.8;stroke-linecap:butt;stroke-linejoin:miter;stroke-dasharray:none;stroke-opacity:1"
     d="M 26.84526,21.346516 17.984447,8.1660614 c 0,0 -3.108114,3.0404976 -3.599703,5.2504506 -0.565291,2.541273 -0.147102,5.388333 0.941465,7.753209 0.628266,1.364882 3.045905,3.831879 3.045905,3.831879 0,0 1.772156,1.716782 2.215197,1.550642 0.443041,-0.166141 6.257949,-5.205726 6.257949,-5.205726 z"
     id="path6"
     sodipodi:nodetypes="ccsscsc" />
  <path
     style="fill:none;stroke:#313131;stroke-width:0.42135;stroke-linecap:butt;stroke-linejoin:miter;stroke-dasharray:none;stroke-opacity:1"
     d="m 23.502825,16.380854 -1.997131,9.633265"
     id="path7"
     sodipodi:nodetypes="cc" />
  <path
     style="fill:none;stroke:#313131;stroke-width:0.42135;stroke-linecap:butt;stroke-linejoin:miter;stroke-dasharray:none;stroke-opacity:1"
     d="M 21.03577,12.817328 18.333763,24.995969"
     id="path8"
     sodipodi:nodetypes="cc" />
  <path
     style="fill:none;stroke:#313131;stroke-width:0.42135;stroke-linecap:butt;stroke-linejoin:miter;stroke-dasharray:none;stroke-opacity:1"
     d="M 18.647036,8.8034674 15.670915,22.235216"
     id="path9"
     sodipodi:nodetypes="cc" />
  <path
     style="fill:none;stroke:#313131;stroke-width:0.42135;stroke-linecap:butt;stroke-linejoin:miter;stroke-dasharray:none;stroke-opacity:1"
     d="M 25.539134,19.631101 14.143681,15.421442"
     id="path10"
     sodipodi:nodetypes="cc" />
  <path
     style="fill:none;stroke:#313131;stroke-width:0.42135;stroke-linecap:butt;stroke-linejoin:miter;stroke-dasharray:none;stroke-opacity:1"
     d="M 24.716785,23.253365 14.535284,19.317824"
     id="path11"
     sodipodi:nodetypes="cc" />
  <path
     style="fill:none;stroke:#313131;stroke-width:0.42135;stroke-linecap:butt;stroke-linejoin:miter;stroke-dasharray:none;stroke-opacity:1"
     d="M 21.956033,13.952956 14.966039,11.388001"
     id="path12"
     sodipodi:nodetypes="cc" />
  <path
     style="fill:#faf4aa;fill-opacity:1;stroke:#313131;stroke-width:0.7;stroke-linecap:butt;stroke-linejoin:miter;stroke-dasharray:none;stroke-opacity:1"
     d="m 27.085935,21.510763 c 0.664258,0.641352 2.234857,0.147793 1.938404,-0.254537 0,0 -9.563937,-14.4616056 -9.65285,-14.5477976 -0.548135,-0.531343 -1.959126,0.622442 -1.664282,0.95941 z"
     id="path13"
     sodipodi:nodetypes="ccscc" />
  <ellipse
     style="fill:#76a556;fill-opacity:1;stroke:#3b522a;stroke-width:0.655454;stroke-linecap:round;stroke-linejoin:round;stroke-dasharray:none;stroke-opacity:1"
     id="path14"
     cx="-28.901516"
     cy="-31.260571"
     rx="10.189514"
     ry="10.882015"
     transform="scale(-1)" />
  <g
     id="g18"
     transform="rotate(180,29.428177,28.638238)">
    <path
       style="fill:#3b522a;fill-opacity:1;stroke:#27341c;stroke-width:0.8;stroke-linecap:round;stroke-linejoin:round;stroke-dasharray:none;stroke-opacity:1"
       d="m 24.545475,21.195297 -0.07829,-2.780334 -4.620835,-0.822352 3.211083,-2.427896 -1.488065,-2.467056 4.385882,1.01815 2.388734,-2.819492 1.840499,2.388736 2.702016,-2.192938 1.135631,2.271258 c 0,0 4.503355,-0.939831 4.385874,-0.744032 -0.117472,0.195798 -1.762178,2.97613 -1.762178,2.97613 l 3.289404,1.840501 -4.229233,0.626555 -0.469915,3.328568 -2.662856,-1.918822 -2.702017,2.427897 -2.11462,-2.349578 -3.211083,1.879662 z"
       id="path16"
       sodipodi:nodetypes="ccccccccccsccccccccc" />
    <ellipse
       style="opacity:1;fill:#fcf4ab;fill-opacity:1;stroke:#baab07;stroke-width:0.8;stroke-linecap:round;stroke-linejoin:round;stroke-dasharray:none;stroke-opacity:1"
       id="path15"
       cx="29.949503"
       cy="16.319925"
       rx="6.3830175"
       ry="3.1523492" />
  </g>
  <path
     style="fill:#e9d655;fill-opacity:1;stroke:#877810;stroke-width:0.658375;stroke-linecap:butt;stroke-linejoin:miter;stroke-dasharray:none;stroke-opacity:1"
     d="m 38.831354,31.567057 c -3.046516,-4.088673 -3.566204,-5.039288 -3.780363,-7.244436 2.9667,-0.932864 3.345936,-0.800301 4.969934,-1.180288 0.578983,-0.135471 2.981363,-0.262631 3.534344,0.970851 l -3.907241,2.881656 4.438963,3.98642 c -2.283722,1.530902 -3.37984,0.979142 -5.255637,0.585797 z"
     id="path17"
     sodipodi:nodetypes="ccscccc" />
  <ellipse
     style="fill:#313131;fill-opacity:1;stroke:none;stroke-width:1.13877;stroke-linecap:round;stroke-linejoin:round;stroke-dasharray:none;stroke-opacity:1"
     id="path18"
     cx="-26.142338"
     cy="-38.781055"
     rx="1.7859811"
     ry="2.8897781"
     transform="rotate(168.99777)" />
</svg>
