<?xml version="1.0" encoding="UTF-8" standalone="no"?>
<svg
   viewBox="0 0 60 60"
   version="1.1"
   id="svg9"
   sodipodi:docname="1S+Ninetails.svg"
   inkscape:version="1.3 (0e150ed6c4, 2023-07-21)"
   xmlns:inkscape="http://www.inkscape.org/namespaces/inkscape"
   xmlns:sodipodi="http://sodipodi.sourceforge.net/DTD/sodipodi-0.dtd"
   xmlns="http://www.w3.org/2000/svg"
   xmlns:svg="http://www.w3.org/2000/svg">
  <sodipodi:namedview
     id="namedview9"
     pagecolor="#ffffff"
     bordercolor="#666666"
     borderopacity="1.0"
     inkscape:showpageshadow="2"
     inkscape:pageopacity="0.0"
     inkscape:pagecheckerboard="0"
     inkscape:deskcolor="#d1d1d1"
     inkscape:zoom="21.519616"
     inkscape:cx="40.939392"
     inkscape:cy="35.6419"
     inkscape:window-width="3840"
     inkscape:window-height="2054"
     inkscape:window-x="-11"
     inkscape:window-y="-11"
     inkscape:window-maximized="1"
     inkscape:current-layer="svg9" />
  <defs
     id="defs1">
    <filter
       id="1KA_svg__a"
       x="-0.13338546"
       y="-0.1082508"
       width="1.3166419"
       height="1.257465">
      <feGaussianBlur
         in="SourceAlpha"
         result="blur"
         stdDeviation="2"
         id="feGaussianBlur1" />
      <feOffset
         dx="2"
         dy="2"
         result="offsetBlur"
         id="feOffset1" />
      <feBlend
         in="SourceGraphic"
         in2="offsetBlur"
         id="feBlend1" />
    </filter>
  </defs>
  <g
     fill="#fdd3e3"
     filter="url(#1KA_svg__a)"
     transform="translate(-102.587 -25.906)scale(1.03094)"
     id="g1"
     style="fill:#d5beaf;fill-opacity:1">
    <path
       fill="#fdeb98"
       d="m 141.866,74.375 6.836,-44.558 h -40.19 l 6.535,44.862 13.56087,3.935 c 0.09,0.017 -0.091,0.032 0,0.021 z"
       id="path1"
       sodipodi:nodetypes="ccccccc"
       style="stroke-width:0.96998855;stroke-dasharray:none;stroke:#333333;fill:#d5beaf;fill-opacity:1" />
  </g>
  <path
     id="path3"
     style="fill:#32c3ee;fill-opacity:1;stroke-width:0.0454364"
     d="m 31.873022,27.577573 c -0.02307,-0.01348 -0.01166,-0.134024 0.04496,-0.293919 0.250527,-0.703563 0.770828,-1.601687 1.220119,-2.108611 0.388612,-0.438485 1.007452,-0.96024 1.521732,-1.282401 0.22975,-0.143913 0.57822,-0.362046 0.77374,-0.484198 0.32232,-0.201349 0.37757,-0.253456 0.60399,-0.572646 0.21031,-0.296665 0.25524,-0.387011 0.27781,-0.570078 0.0146,-0.119504 0.0133,-0.226881 -0.003,-0.238271 -0.0591,-0.04161 -0.37442,0.04918 -0.56135,0.16156 -0.2561,0.153971 -0.55646,0.467382 -0.85935,0.896137 -0.13691,0.193959 -0.3428,0.447998 -0.45761,0.565831 -0.19766,0.202829 -0.6343,0.498104 -0.68431,0.462889 -0.0678,-0.04769 1.18266,-1.444045 1.85382,-2.070396 1.15594,-1.07878 1.39307,-1.321692 1.68848,-1.738926 0.40685,-0.574963 0.57985,-1.055819 0.56478,-1.56425 -0.006,-0.195347 -0.1376,-0.340457 -0.2856,-0.314706 -0.10144,0.01764 -0.24534,0.225338 -0.39869,0.582245 -0.38696,0.9006 -1.06174,1.830228 -1.66009,2.283391 -0.26306,0.19923 -0.89761,0.537705 -0.83701,0.446383 0.0138,-0.02083 0.17097,-0.160262 0.34939,-0.309727 0.74733,-0.626044 1.44859,-1.352954 1.53322,-1.589332 0.0972,-0.27143 -0.0932,-0.525385 -0.31104,-0.415784 -0.0455,0.0229 -0.26353,0.2613 -0.4857,0.529273 -0.22214,0.267985 -0.42042,0.500564 -0.441,0.516665 -0.0206,0.01611 0.0442,-0.112419 0.14474,-0.286132 0.10053,-0.173714 0.18846,-0.337902 0.19596,-0.363334 0.0254,-0.08886 0.97963,-1.423858 1.17845,-1.648709 0.0621,-0.07022 0.10675,-0.119838 0.16284,-0.161467 l 0.18102,-0.230199 0.12433,-0.133354 c 0.79294,-0.849507 1.77403,-1.633341 2.91337,-2.327799 0.74102,-0.451682 0.97265,-0.635223 1.19806,-0.955602 0.17959,-0.255229 0.31099,-0.66935 0.27032,-0.849281 -0.0237,-0.105018 -0.0346,-0.09827 -0.27537,0.200816 -0.33595,0.4173 -0.58591,0.593564 -1.67813,1.178062 -1.09961,0.58846 -1.2722,0.696923 -1.65728,1.046765 l -0.29167,0.265605 0.29336,-0.376989 c 0.504,-0.646767 1.01043,-1.019279 1.79446,-1.321024 0.57184,-0.220082 0.836,-0.477981 0.84124,-0.823496 0.008,-0.546474 -0.28369,-0.478794 -0.8167,0.190071 -0.40952,0.513927 -0.49359,0.557542 -0.21462,0.111703 0.79619,-1.272488 1.88238,-2.329407 3.2217,-3.130952 0.23821,-0.14256 0.53595,-0.344772 0.66112,-0.450707 0.42169,-0.356813 0.62711,-0.8532197 0.52005,-1.2586147 -0.0686,-0.259727 -0.21274,-0.340443 -0.50974,-0.288769 -0.46945,0.0817 -0.85531,0.473529 -1.31936,1.3408967 -0.35862,0.670656 -0.58553,0.993234 -0.91572,1.303584 -0.46632,0.438316 -1.02373,0.759105 -1.61861,0.928786 -0.0938,0.02676 -0.0294,-0.02613 0.19612,-0.15822 0.85147,-0.498648 1.33736,-1.158843 2.18944,-2.9756717 0.37006,-0.789092 0.45512,-0.93785 0.89107,-1.560958 0.39768,-0.568601 0.5262,-0.724369 0.73624,-0.897599 1.24402,-1.025942 3.01148,-1.160204 3.9948,-0.301984 0.80076,0.698874 1.11437,1.920838 0.80681,3.150626 -0.17072,0.6825857 -0.38665,1.1093087 -1.12773,2.2357077 -0.71752,1.090538 -0.87525,1.399486 -0.95717,1.872878 l -0.0438,0.254826 -0.0152,-0.175514 c -0.0497,-0.604751 0.17314,-1.229659 0.89923,-2.528108 0.50159,-0.897001 0.53554,-1.073039 0.2462,-1.276621 -0.12101,-0.08513 -0.18667,-0.09515 -0.33914,-0.05969 -0.2,0.04649 -0.41382,0.197155 -0.54714,0.385933 -0.24014,0.339997 -0.41364,1.065723 -0.49256,2.053147 -0.0566,0.707485 -0.13194,1.125923 -0.26564,1.478219 -0.15655,0.412927 -0.22047,0.502613 -0.70119,0.990671 -0.44831,0.455143 -0.62648,0.696965 -0.69434,0.941698 -0.0676,0.243793 -0.0897,0.198231 -0.0387,-0.08128 0.039,-0.213534 0.0863,-0.297469 0.54743,-0.962225 0.37272,-0.537384 0.51929,-0.777453 0.55616,-0.915513 0.10593,-0.39615 -0.10886,-0.324279 -0.69276,0.234495 l -0.30096,0.289233 0.23642,-0.391487 c 0.28451,-0.468762 0.43472,-0.847773 0.50221,-1.271935 0.0625,-0.392614 0.0182,-0.553751 -0.19169,-0.701412 -0.30723,-0.216167 -0.67778,-0.07695 -0.9114,0.340417 -0.17827,0.318475 -0.23738,0.823548 -0.20651,1.799374 0.0298,0.943014 -0.0181,1.363317 -0.20645,1.803281 -0.0827,0.193316 -0.13811,0.30325 -0.19767,0.37509 0.003,3.68e-4 0.004,0.0012 0.004,0.002 -0.009,0.01 -0.16352,0.225946 -0.16352,0.225946 l -0.40193,0.615518 c -0.43263,0.66315 -0.58465,0.973186 -0.63077,1.290114 -0.0148,0.10125 -0.0297,0.14161 -0.0422,0.135631 -0.0209,-0.0099 -0.0344,-0.15261 -0.025,-0.374577 0.0157,-0.367487 0.12384,-0.794518 0.27713,-1.095559 0.0985,-0.19343 0.15461,-0.295892 0.21549,-0.363723 l -0.01,0.0041 c 0.0255,-0.02784 0.26899,-0.423389 0.26899,-0.423389 0.13578,-0.248083 0.16895,-0.518645 0.089,-0.730427 -0.0806,-0.213522 -0.1831,-0.298271 -0.40318,-0.333862 -0.28061,-0.04538 -0.42045,0.03466 -0.65489,0.37049 -0.19181,0.275027 -0.21263,0.328177 -0.26537,0.704624 -0.0869,0.452394 -0.17722,0.850367 -0.31595,1.305354 -0.0666,0.140582 -0.094,0.153413 -0.4685,0.214417 -0.35495,0.05778 -0.39372,0.0753 -0.36612,0.155732 0.017,0.04952 0.0797,0.218495 0.13835,0.376236 0.10632,0.28578 0.10566,0.286951 -0.0296,0.479196 -0.0746,0.106087 -0.41037,0.513338 -0.74588,0.903651 -0.33551,0.390334 -0.74143,0.865335 -0.90303,1.05719 -0.16948,0.201167 -0.24776,0.276839 -0.18402,0.177514 0.0609,-0.09465 0.33494,-0.571788 0.608,-1.059148 0.40052,-0.714864 0.49216,-0.909012 0.4801,-1.007772 -0.0308,-0.250028 -0.35314,-0.333494 -0.56943,-0.146931 -0.11081,0.0956 -0.18939,0.292701 -0.34623,0.862508 -0.10429,0.378835 -0.14379,0.458032 -0.40556,0.82657 -0.15928,0.224037 -0.33906,0.446524 -0.40043,0.494372 -0.098,0.07642 -0.0903,0.04284 0.0708,-0.27099 0.10085,-0.196519 0.2798,-0.65238 0.39797,-1.012002 0.2942,-0.89534 0.46876,-1.222364 0.81722,-1.541911 0.36687,-0.336442 0.42596,-0.435952 0.3783,-0.624818 -0.0217,-0.08598 -0.0657,-0.174728 -0.0977,-0.197318 -0.008,-0.0055 -0.0122,-0.01024 -0.014,-0.01536 l -0.11991,-0.13632 c 0,0 -0.36789,0.02735 -0.52078,0.139267 -0.061,0.04466 -0.14695,0.174826 -0.14695,0.174826 -0.002,0.0081 -0.01,0.01854 -0.017,0.02964 -0.0896,0.128506 -0.19202,0.421224 -0.35879,1.017087 -0.668,2.386771 -2.10496,4.9437 -3.82086,6.801766 l -0.27917,0.304428 0.22807,-0.418671 c 0.21524,-0.39213 0.22814,-0.429629 0.18724,-0.605397 -0.0505,-0.217207 -0.1023,-0.26606 -0.24488,-0.231514 -0.0788,0.01909 -0.23599,0.190893 -0.66908,0.738031 -0.31072,0.392498 -0.60067,0.763666 -0.6459,0.823525 -0.0553,0.07362 -0.0455,0.02284 0.0282,-0.152933 0.14588,-0.347944 0.23693,-0.817021 0.16307,-0.839339 -0.10253,-0.03093 -0.456903,0.427327 -1.078009,1.394712 -0.331073,0.515673 -0.626555,0.990175 -0.654991,1.05422 -0.03638,0.08215 -0.0623,0.113131 -0.07606,0.105046 z" />
  <path
     id="path6"
     style="fill:#32c3ee;fill-opacity:1;stroke-width:0.0454364"
     d="m 25.673465,28.597886 c -0.02307,0.01348 -0.01166,0.134024 0.04496,0.293919 0.250527,0.703563 0.770828,1.601687 1.220119,2.108611 0.388615,0.438485 1.007454,0.96024 1.521732,1.282401 0.22975,0.143913 0.578219,0.362046 0.773744,0.484198 0.322319,0.201349 0.377567,0.253456 0.603987,0.572646 0.210304,0.296665 0.25524,0.387011 0.277813,0.570078 0.0146,0.119504 0.01334,0.226881 -0.0028,0.238271 -0.05914,0.04161 -0.374427,-0.04918 -0.561354,-0.16156 -0.256096,-0.153971 -0.556457,-0.467382 -0.859349,-0.896137 -0.136907,-0.193959 -0.342797,-0.447998 -0.457611,-0.565831 -0.197663,-0.202829 -0.634301,-0.498104 -0.684311,-0.462889 -0.06776,0.04769 1.182659,1.444045 1.853822,2.070396 1.155942,1.07878 1.393068,1.321692 1.688477,1.738926 0.406851,0.574963 0.579854,1.055819 0.564782,1.56425 -0.0059,0.195347 -0.137602,0.340457 -0.285601,0.314706 -0.101435,-0.01764 -0.245336,-0.225338 -0.398685,-0.582245 -0.386966,-0.9006 -1.061741,-1.830228 -1.660097,-2.283391 -0.263058,-0.19923 -0.897607,-0.537705 -0.837008,-0.446383 0.01379,0.02083 0.170974,0.160262 0.349393,0.309727 0.747325,0.626044 1.448589,1.352954 1.533215,1.589332 0.09716,0.27143 -0.09324,0.525385 -0.311041,0.415784 -0.04545,-0.0229 -0.263528,-0.2613 -0.485694,-0.529273 -0.222146,-0.267985 -0.42042,-0.500564 -0.441005,-0.516665 -0.02058,-0.01611 0.04418,0.112419 0.144741,0.286132 0.100529,0.173714 0.188463,0.337902 0.195959,0.363334 0.02544,0.08886 0.979629,1.423858 1.178456,1.648709 0.06212,0.07022 0.106743,0.119838 0.162838,0.161467 l 0.181019,0.230199 0.124328,0.133354 c 0.792939,0.849507 1.774029,1.633341 2.913369,2.327799 0.74103,0.451682 0.97265,0.635223 1.19807,0.955602 0.17958,0.255229 0.31099,0.66935 0.27031,0.849281 -0.0237,0.105018 -0.0346,0.09827 -0.27537,-0.200816 -0.33595,-0.4173 -0.58591,-0.593564 -1.67813,-1.178062 -1.099605,-0.58846 -1.272197,-0.696923 -1.657281,-1.046765 l -0.291666,-0.265605 0.293357,0.376989 c 0.504005,0.646767 1.010433,1.019279 1.79446,1.321024 0.57185,0.220082 0.836,0.477981 0.84125,0.823496 0.008,0.546474 -0.2837,0.478794 -0.8167,-0.190071 -0.409527,-0.513927 -0.493598,-0.557542 -0.21463,-0.111703 0.7962,1.272488 1.88239,2.329407 3.22171,3.130952 0.2382,0.14256 0.53594,0.344772 0.66111,0.450707 0.4217,0.356813 0.62712,0.85322 0.52005,1.258615 -0.0686,0.259727 -0.21274,0.340443 -0.50974,0.288769 -0.46945,-0.0817 -0.85531,-0.473529 -1.31935,-1.340897 -0.35863,-0.670656 -0.58554,-0.993234 -0.91572,-1.303584 -0.46633,-0.438316 -1.02373,-0.759105 -1.61861,-0.928786 -0.0938,-0.02676 -0.0294,0.02613 0.19612,0.15822 0.85146,0.498648 1.33735,1.158843 2.18943,2.975672 0.37006,0.789092 0.45512,0.93785 0.89107,1.560958 0.39769,0.568601 0.5262,0.724369 0.73624,0.897599 1.24402,1.025942 3.01149,1.160204 3.9948,0.301984 0.80076,-0.698874 1.11437,-1.920838 0.80682,-3.150626 -0.17072,-0.682586 -0.38666,-1.109309 -1.12773,-2.235708 -0.71752,-1.090538 -0.87525,-1.399486 -0.95718,-1.872878 l -0.0438,-0.254826 -0.0152,0.175514 c -0.0497,0.604751 0.17315,1.229659 0.89923,2.528108 0.50159,0.897001 0.53555,1.073039 0.2462,1.276621 -0.121,0.08513 -0.18667,0.09515 -0.33914,0.05969 -0.2,-0.04649 -0.41382,-0.197155 -0.54714,-0.385933 -0.24014,-0.339997 -0.41364,-1.065723 -0.49256,-2.053147 -0.0566,-0.707485 -0.13193,-1.125923 -0.26564,-1.478219 -0.15654,-0.412927 -0.22047,-0.502613 -0.70119,-0.990671 -0.4483,-0.455143 -0.62648,-0.696965 -0.69434,-0.941698 -0.0676,-0.243793 -0.0897,-0.198231 -0.0387,0.08128 0.039,0.213534 0.0863,0.297469 0.54743,0.962225 0.37273,0.537384 0.51929,0.777453 0.55616,0.915513 0.10593,0.39615 -0.10886,0.324279 -0.69275,-0.234495 l -0.30096,-0.289233 0.23642,0.391487 c 0.2845,0.468762 0.43471,0.847773 0.5022,1.271935 0.0625,0.392614 0.0182,0.553751 -0.19169,0.701412 -0.30723,0.216167 -0.67778,0.07695 -0.91139,-0.340417 -0.17828,-0.318475 -0.23739,-0.823548 -0.20652,-1.799374 0.0298,-0.943014 -0.0182,-1.363317 -0.20644,-1.803281 -0.0827,-0.193316 -0.13812,-0.30325 -0.19768,-0.37509 0.003,-3.68e-4 0.004,-0.0012 0.004,-0.002 -0.009,-0.01 -0.16352,-0.225946 -0.16352,-0.225946 l -0.40192,-0.615518 c -0.43264,-0.66315 -0.58466,-0.973186 -0.63078,-1.290114 -0.0148,-0.10125 -0.0297,-0.14161 -0.0423,-0.135631 -0.0209,0.0099 -0.0344,0.15261 -0.025,0.374577 0.0157,0.367487 0.12384,0.794518 0.27714,1.095559 0.0985,0.19343 0.15461,0.295892 0.21548,0.363723 l -0.01,-0.0041 c 0.0255,0.02784 0.26899,0.423389 0.26899,0.423389 0.13578,0.248083 0.16896,0.518645 0.089,0.730427 -0.0806,0.213522 -0.1831,0.298271 -0.40318,0.333862 -0.28061,0.04538 -0.42045,-0.03466 -0.65489,-0.37049 -0.19181,-0.275027 -0.21263,-0.328177 -0.26537,-0.704624 -0.0869,-0.452394 -0.17722,-0.850367 -0.31595,-1.305354 -0.0666,-0.140582 -0.094,-0.153413 -0.4685,-0.214417 -0.35495,-0.05778 -0.39372,-0.0753 -0.36612,-0.155732 0.017,-0.04952 0.0797,-0.218495 0.13835,-0.376236 0.10633,-0.28578 0.10566,-0.286951 -0.0296,-0.479196 -0.0746,-0.106087 -0.41037,-0.513338 -0.74588,-0.903651 -0.33551,-0.390334 -0.741428,-0.865335 -0.903032,-1.05719 -0.169471,-0.201167 -0.247755,-0.276839 -0.184014,-0.177514 0.06093,0.09465 0.33494,0.571788 0.608006,1.059148 0.40051,0.714864 0.49216,0.909012 0.48009,1.007772 -0.0308,0.250028 -0.35313,0.333494 -0.569423,0.146931 -0.110815,-0.0956 -0.189399,-0.292701 -0.346234,-0.862508 -0.10429,-0.378835 -0.14379,-0.458032 -0.405558,-0.82657 -0.159286,-0.224037 -0.339065,-0.446524 -0.400428,-0.494372 -0.098,-0.07642 -0.09028,-0.04284 0.07082,0.27099 0.10085,0.196519 0.279799,0.65238 0.397966,1.012002 0.294202,0.89534 0.468758,1.222364 0.817217,1.541911 0.36687,0.336442 0.42596,0.435952 0.3783,0.624818 -0.0217,0.08598 -0.0657,0.174728 -0.0977,0.197318 -0.008,0.0055 -0.0122,0.01024 -0.014,0.01536 l -0.1199,0.13632 c 0,0 -0.367894,-0.02735 -0.520783,-0.139267 -0.06102,-0.04466 -0.14695,-0.174826 -0.14695,-0.174826 -0.0018,-0.0081 -0.0096,-0.01854 -0.01699,-0.02964 -0.08957,-0.128506 -0.19202,-0.421224 -0.358798,-1.017087 -0.668001,-2.386771 -2.104957,-4.9437 -3.820854,-6.801766 l -0.279175,-0.304428 0.228068,0.418671 c 0.215241,0.39213 0.22814,0.429629 0.187243,0.605397 -0.05052,0.217207 -0.102299,0.26606 -0.244881,0.231514 -0.07884,-0.01909 -0.235989,-0.190893 -0.669077,-0.738031 -0.310723,-0.392498 -0.600675,-0.763666 -0.645897,-0.823525 -0.05525,-0.07362 -0.04551,-0.02284 0.02822,0.152933 0.145873,0.347944 0.236923,0.817021 0.163065,0.839339 -0.102525,0.03093 -0.456901,-0.427327 -1.078007,-1.394712 -0.331073,-0.515673 -0.626555,-0.990175 -0.654991,-1.05422 -0.03638,-0.08215 -0.0623,-0.113131 -0.07606,-0.105046 z" />
  <path
     id="path5"
     style="fill:#32c3ee;fill-opacity:1;stroke-width:0.0454364"
     d="m 27.848161,27.577573 c 0.02307,-0.01348 0.01166,-0.134024 -0.04496,-0.293919 -0.250528,-0.703563 -0.770828,-1.601687 -1.220117,-2.108611 -0.388616,-0.438485 -1.007455,-0.96024 -1.521732,-1.282401 -0.229751,-0.143913 -0.578217,-0.362046 -0.773747,-0.484198 -0.32232,-0.201349 -0.37756,-0.253456 -0.60399,-0.572646 -0.2103,-0.296665 -0.25524,-0.387011 -0.27781,-0.570078 -0.0146,-0.119504 -0.0133,-0.226881 0.003,-0.238271 0.0591,-0.04161 0.37443,0.04918 0.56136,0.16156 0.25609,0.153971 0.55645,0.467382 0.859346,0.896137 0.136908,0.193959 0.342797,0.447998 0.457611,0.565831 0.197664,0.202829 0.634301,0.498104 0.68431,0.462889 0.06776,-0.04769 -1.182659,-1.444045 -1.853827,-2.070396 -1.15594,-1.07878 -1.39306,-1.321692 -1.68847,-1.738926 -0.40685,-0.574963 -0.57986,-1.055819 -0.56478,-1.56425 0.006,-0.195347 0.1376,-0.340457 0.2856,-0.314706 0.10143,0.01764 0.24533,0.225338 0.39868,0.582245 0.38697,0.9006 1.06174,1.830228 1.6601,2.283391 0.26306,0.19923 0.897606,0.537705 0.837007,0.446383 -0.01379,-0.02083 -0.170974,-0.160262 -0.349393,-0.309727 -0.747324,-0.626044 -1.448594,-1.352954 -1.533214,-1.589332 -0.0972,-0.27143 0.0932,-0.525385 0.31104,-0.415784 0.0455,0.0229 0.26353,0.2613 0.4857,0.529273 0.22214,0.267985 0.42042,0.500564 0.441,0.516665 0.0206,0.01611 -0.0442,-0.112419 -0.14474,-0.286132 -0.10053,-0.173714 -0.18847,-0.337902 -0.19596,-0.363334 -0.0254,-0.08886 -0.97963,-1.423858 -1.17846,-1.648709 -0.0621,-0.07022 -0.10674,-0.119838 -0.16284,-0.161467 l -0.18101,-0.230199 -0.12433,-0.133354 c -0.79294,-0.849507 -1.77403,-1.633341 -2.91337,-2.327799 -0.74103,-0.451682 -0.97265,-0.635223 -1.19807,-0.955602 -0.17958,-0.255229 -0.31099,-0.66935 -0.27031,-0.849281 0.0237,-0.105018 0.0346,-0.09827 0.27537,0.200816 0.33595,0.4173 0.58591,0.593564 1.67813,1.178062 1.09961,0.58846 1.2722,0.696923 1.65728,1.046765 l 0.29167,0.265605 -0.29336,-0.376989 c -0.504,-0.646767 -1.01043,-1.019279 -1.79446,-1.321024 -0.57185,-0.220082 -0.836,-0.477981 -0.84125,-0.823496 -0.008,-0.546474 0.2837,-0.478794 0.8167,0.190071 0.40953,0.513927 0.4936,0.557542 0.21463,0.111703 -0.7962,-1.272488 -1.88239,-2.329407 -3.2217,-3.130952 -0.23821,-0.14256 -0.53595,-0.344772 -0.66112,-0.450707 -0.4217,-0.356813 -0.62712,-0.8532197 -0.52005,-1.2586147 0.0686,-0.259727 0.21274,-0.340443 0.50974,-0.288769 0.46945,0.0817 0.85531,0.473529 1.31935,1.3408967 0.35863,0.670656 0.58554,0.993234 0.91573,1.303584 0.46632,0.438316 1.02372,0.759105 1.6186,0.928786 0.0938,0.02676 0.0294,-0.02613 -0.19611,-0.15822 -0.85147,-0.498648 -1.33736,-1.158843 -2.18944,-2.9756717 -0.37006,-0.789092 -0.45512,-0.93785 -0.89107,-1.560958 -0.39768,-0.568601 -0.5262,-0.724369 -0.73624,-0.897599 -1.24402,-1.025942 -3.01148,-1.160204 -3.9948,-0.301984 -0.80076,0.698874 -1.11437,1.920838 -0.80682,3.150626 0.17072,0.6825857 0.38666,1.1093087 1.12773,2.2357077 0.71752,1.090538 0.87526,1.399486 0.95718,1.872878 l 0.0438,0.254826 0.0152,-0.175514 c 0.0497,-0.604751 -0.17315,-1.229659 -0.89923,-2.528108 -0.50159,-0.897001 -0.53554,-1.073039 -0.2462,-1.276621 0.121,-0.08513 0.18667,-0.09515 0.33914,-0.05969 0.2,0.04649 0.41382,0.197155 0.54714,0.385933 0.24014,0.339997 0.41364,1.065723 0.49256,2.053147 0.0566,0.707485 0.13193,1.125923 0.26564,1.478219 0.15655,0.412927 0.22047,0.502613 0.70119,0.990671 0.4483,0.455143 0.62648,0.696965 0.69434,0.941698 0.0676,0.243793 0.0897,0.198231 0.0387,-0.08128 -0.039,-0.213534 -0.0863,-0.297469 -0.54743,-0.962225 -0.37273,-0.537384 -0.51929,-0.777453 -0.55616,-0.915513 -0.10593,-0.39615 0.10886,-0.324279 0.69275,0.234495 l 0.30096,0.289233 -0.23641,-0.391487 c -0.28451,-0.468762 -0.43472,-0.847773 -0.50221,-1.271935 -0.0625,-0.392614 -0.0182,-0.553751 0.19169,-0.701412 0.30723,-0.216167 0.67778,-0.07695 0.9114,0.340417 0.17827,0.318475 0.23738,0.823548 0.20651,1.799374 -0.0298,0.943014 0.0182,1.363317 0.20644,1.803281 0.0827,0.193316 0.13812,0.30325 0.19768,0.37509 -0.003,3.68e-4 -0.004,0.0012 -0.004,0.002 0.009,0.01 0.16352,0.225946 0.16352,0.225946 l 0.40192,0.615518 c 0.43264,0.66315 0.58466,0.973186 0.63078,1.290114 0.0148,0.10125 0.0297,0.14161 0.0422,0.135631 0.0209,-0.0099 0.0344,-0.15261 0.025,-0.374577 -0.0157,-0.367487 -0.12384,-0.794518 -0.27714,-1.095559 -0.0985,-0.19343 -0.15461,-0.295892 -0.21548,-0.363723 l 0.01,0.0041 c -0.0254,-0.02784 -0.26899,-0.423389 -0.26899,-0.423389 -0.13578,-0.248083 -0.16895,-0.518645 -0.089,-0.730427 0.0806,-0.213522 0.1831,-0.298271 0.40318,-0.333862 0.28061,-0.04538 0.42045,0.03466 0.65489,0.37049 0.19181,0.275027 0.21263,0.328177 0.26537,0.704624 0.0869,0.452394 0.17722,0.850367 0.31595,1.305354 0.0666,0.140582 0.094,0.153413 0.4685,0.214417 0.35495,0.05778 0.39372,0.0753 0.36612,0.155732 -0.017,0.04952 -0.0797,0.218495 -0.13835,0.376236 -0.10633,0.28578 -0.10566,0.286951 0.0296,0.479196 0.0746,0.106087 0.41037,0.513338 0.74588,0.903651 0.33551,0.390334 0.74143,0.865335 0.90303,1.05719 0.16947,0.201167 0.24776,0.276839 0.18401,0.177514 -0.0609,-0.09465 -0.33493,-0.571788 -0.608,-1.059148 -0.40051,-0.714864 -0.49216,-0.909012 -0.4801,-1.007772 0.0308,-0.250028 0.35314,-0.333494 0.56943,-0.146931 0.11082,0.0956 0.1894,0.292701 0.34624,0.862508 0.10429,0.378835 0.14379,0.458032 0.40555,0.82657 0.15929,0.224037 0.33907,0.446524 0.40043,0.494372 0.098,0.07642 0.0903,0.04284 -0.0708,-0.27099 -0.10085,-0.196519 -0.2798,-0.65238 -0.39796,-1.012002 -0.2942,-0.89534 -0.46876,-1.222364 -0.81722,-1.541911 -0.36687,-0.336442 -0.42596,-0.435952 -0.3783,-0.624818 0.0217,-0.08598 0.0657,-0.174728 0.0977,-0.197318 0.008,-0.0055 0.0122,-0.01024 0.014,-0.01536 l 0.1199,-0.13632 c 0,0 0.36789,0.02735 0.52078,0.139267 0.061,0.04466 0.14695,0.174826 0.14695,0.174826 0.002,0.0081 0.01,0.01854 0.017,0.02964 0.0896,0.128506 0.19202,0.421224 0.3588,1.017087 0.668,2.386771 2.10496,4.9437 3.820855,6.801766 l 0.279175,0.304428 -0.228068,-0.418671 c -0.215241,-0.39213 -0.228142,-0.429629 -0.187243,-0.605397 0.05052,-0.217207 0.102299,-0.26606 0.244881,-0.231514 0.07884,0.01909 0.235989,0.190893 0.669077,0.738031 0.310723,0.392498 0.600675,0.763666 0.645896,0.823525 0.05525,0.07362 0.04551,0.02284 -0.02822,-0.152933 -0.145874,-0.347944 -0.236924,-0.817021 -0.163065,-0.839339 0.102525,-0.03093 0.456901,0.427327 1.078007,1.394712 0.331073,0.515673 0.626555,0.990175 0.65499,1.05422 0.03638,0.08215 0.0623,0.113131 0.07606,0.105046 z" />
  <path
     id="path7"
     style="fill:#32c3ee;fill-opacity:1;stroke-width:0.0454364"
     d="m 34.047723,28.597886 c 0.0231,0.01348 0.0117,0.134024 -0.045,0.293919 -0.25053,0.703563 -0.77083,1.601687 -1.220121,2.108611 -0.388615,0.438485 -1.007454,0.96024 -1.521732,1.282401 -0.22975,0.143913 -0.578219,0.362046 -0.773744,0.484198 -0.322319,0.201349 -0.377567,0.253456 -0.603987,0.572646 -0.210304,0.296665 -0.25524,0.387011 -0.277813,0.570078 -0.0146,0.119504 -0.01334,0.226881 0.0028,0.238271 0.05914,0.04161 0.374427,-0.04918 0.561354,-0.16156 0.256096,-0.153971 0.556457,-0.467382 0.859349,-0.896137 0.136907,-0.193959 0.342797,-0.447998 0.457611,-0.565831 0.197663,-0.202829 0.634301,-0.498104 0.684311,-0.462889 0.06776,0.04769 -1.182659,1.444045 -1.853822,2.070396 -1.155942,1.07878 -1.393068,1.321692 -1.688477,1.738926 -0.406851,0.574963 -0.579854,1.055819 -0.564782,1.56425 0.0059,0.195347 0.137602,0.340457 0.285601,0.314706 0.101435,-0.01764 0.245336,-0.225338 0.398685,-0.582245 0.386966,-0.9006 1.061741,-1.830228 1.660097,-2.283391 0.263058,-0.19923 0.897607,-0.537705 0.837008,-0.446383 -0.01379,0.02083 -0.170974,0.160262 -0.349393,0.309727 -0.747325,0.626044 -1.448589,1.352954 -1.533215,1.589332 -0.09716,0.27143 0.09324,0.525385 0.311041,0.415784 0.04545,-0.0229 0.263528,-0.2613 0.485694,-0.529273 0.222146,-0.267985 0.42042,-0.500564 0.441005,-0.516665 0.02058,-0.01611 -0.04418,0.112419 -0.144741,0.286132 -0.100529,0.173714 -0.188463,0.337902 -0.195959,0.363334 -0.02544,0.08886 -0.979629,1.423858 -1.178456,1.648709 -0.06212,0.07022 -0.106743,0.119838 -0.162838,0.161467 l -0.181019,0.230199 -0.124328,0.133354 c -0.792939,0.849507 -1.774029,1.633341 -2.913373,2.327799 -0.741022,0.451682 -0.972646,0.635223 -1.198064,0.955602 -0.17958,0.255229 -0.31099,0.66935 -0.27031,0.849281 0.0237,0.105018 0.0346,0.09827 0.27537,-0.200816 0.335945,-0.4173 0.585907,-0.593564 1.678124,-1.178062 1.099609,-0.58846 1.272201,-0.696923 1.657285,-1.046765 l 0.291666,-0.265605 -0.293357,0.376989 c -0.504005,0.646767 -1.010433,1.019279 -1.79446,1.321024 -0.571845,0.220082 -0.835999,0.477981 -0.841245,0.823496 -0.0084,0.546474 0.283697,0.478794 0.8167,-0.190071 0.409522,-0.513927 0.493593,-0.557542 0.214626,-0.111703 -0.796197,1.272488 -1.882389,2.329407 -3.221709,3.130952 -0.23821,0.14256 -0.53594,0.344772 -0.66111,0.450707 -0.4217,0.356813 -0.62712,0.85322 -0.52005,1.258615 0.0686,0.259727 0.21274,0.340443 0.50974,0.288769 0.46945,-0.0817 0.85531,-0.473529 1.31935,-1.340897 0.35862,-0.670656 0.58554,-0.993234 0.91572,-1.303584 0.466328,-0.438316 1.023732,-0.759105 1.618612,-0.928786 0.09378,-0.02676 0.02942,0.02613 -0.196119,0.15822 -0.851463,0.498648 -1.337358,1.158843 -2.189433,2.975672 -0.37007,0.789092 -0.45512,0.93785 -0.89107,1.560958 -0.39769,0.568601 -0.5262,0.724369 -0.73625,0.897599 -1.24401,1.025942 -3.01148,1.160204 -3.99479,0.301984 -0.80077,-0.698874 -1.11437,-1.920838 -0.80682,-3.150626 0.17072,-0.682586 0.38666,-1.109309 1.12773,-2.235708 0.71752,-1.090538 0.87525,-1.399486 0.95718,-1.872878 l 0.0438,-0.254826 0.0152,0.175514 c 0.0497,0.604751 -0.17315,1.229659 -0.89923,2.528108 -0.50159,0.897001 -0.53555,1.073039 -0.2462,1.276621 0.121,0.08513 0.18666,0.09515 0.33914,0.05969 0.2,-0.04649 0.41382,-0.197155 0.54714,-0.385933 0.24014,-0.339997 0.41363,-1.065723 0.49256,-2.053147 0.0566,-0.707485 0.13193,-1.125923 0.26564,-1.478219 0.15654,-0.412927 0.22047,-0.502613 0.70119,-0.990671 0.4483,-0.455143 0.62648,-0.696965 0.69434,-0.941698 0.0676,-0.243793 0.0897,-0.198231 0.0387,0.08128 -0.039,0.213534 -0.0863,0.297469 -0.54743,0.962225 -0.37273,0.537384 -0.51929,0.777453 -0.55616,0.915513 -0.10593,0.39615 0.10886,0.324279 0.69275,-0.234495 l 0.30096,-0.289233 -0.23642,0.391487 c -0.2845,0.468762 -0.43471,0.847773 -0.50221,1.271935 -0.0625,0.392614 -0.0182,0.553751 0.1917,0.701412 0.30723,0.216167 0.67778,0.07695 0.91139,-0.340417 0.17828,-0.318475 0.23739,-0.823548 0.20652,-1.799374 -0.0298,-0.943014 0.0181,-1.363317 0.20644,-1.803281 0.0827,-0.193316 0.13812,-0.30325 0.19768,-0.37509 -0.003,-3.68e-4 -0.004,-0.0012 -0.004,-0.002 0.009,-0.01 0.16352,-0.225946 0.16352,-0.225946 l 0.40192,-0.615518 c 0.43264,-0.66315 0.58466,-0.973186 0.63078,-1.290114 0.0148,-0.10125 0.0297,-0.14161 0.0422,-0.135631 0.0209,0.0099 0.0344,0.15261 0.025,0.374577 -0.0157,0.367487 -0.12384,0.794518 -0.27714,1.095559 -0.0985,0.19343 -0.15461,0.295892 -0.21548,0.363723 l 0.01,-0.0041 c -0.0255,0.02784 -0.269,0.423389 -0.269,0.423389 -0.13577,0.248083 -0.16895,0.518645 -0.089,0.730427 0.0806,0.213522 0.18311,0.298271 0.40319,0.333862 0.2806,0.04538 0.42044,-0.03466 0.65489,-0.37049 0.19181,-0.275027 0.21263,-0.328177 0.26537,-0.704624 0.0869,-0.452394 0.17722,-0.850367 0.31595,-1.305354 0.0666,-0.140582 0.094,-0.153413 0.468494,-0.214417 0.354953,-0.05778 0.393724,-0.0753 0.366122,-0.155732 -0.01699,-0.04952 -0.07966,-0.218495 -0.138352,-0.376236 -0.106322,-0.28578 -0.105655,-0.286951 0.02956,-0.479196 0.07461,-0.106087 0.410374,-0.513338 0.745885,-0.903651 0.335341,-0.390334 0.741257,-0.865335 0.902861,-1.05719 0.169471,-0.201167 0.247755,-0.276839 0.184014,-0.177514 -0.06093,0.09465 -0.33494,0.571788 -0.608003,1.059148 -0.400513,0.714864 -0.492159,0.909012 -0.480097,1.007772 0.03076,0.250028 0.353137,0.333494 0.569427,0.146931 0.110815,-0.0956 0.189399,-0.292701 0.346234,-0.862508 0.10429,-0.378835 0.14379,-0.458032 0.405558,-0.82657 0.159286,-0.224037 0.339065,-0.446524 0.400428,-0.494372 0.098,-0.07642 0.09028,-0.04284 -0.07082,0.27099 -0.10085,0.196519 -0.279799,0.65238 -0.397966,1.012002 -0.294202,0.89534 -0.468758,1.222364 -0.817215,1.541911 -0.366876,0.336442 -0.425964,0.435952 -0.378306,0.624818 0.02171,0.08598 0.06573,0.174728 0.09768,0.197318 0.0081,0.0055 0.01218,0.01024 0.01399,0.01536 l 0.119908,0.13632 c 0,0 0.36789,-0.02735 0.520779,-0.139267 0.06102,-0.04466 0.14695,-0.174826 0.14695,-0.174826 0.0018,-0.0081 0.0096,-0.01854 0.01699,-0.02964 0.08957,-0.128506 0.19202,-0.421224 0.358798,-1.017087 0.668001,-2.386771 2.104957,-4.9437 3.820854,-6.801766 l 0.279175,-0.304428 -0.228068,0.418671 c -0.215241,0.39213 -0.22814,0.429629 -0.187243,0.605397 0.05052,0.217207 0.102299,0.26606 0.244881,0.231514 0.07884,-0.01909 0.235989,-0.190893 0.669077,-0.738031 0.310723,-0.392498 0.600675,-0.763666 0.645897,-0.823525 0.05525,-0.07362 0.04551,-0.02284 -0.02822,0.152933 -0.145873,0.347944 -0.236923,0.817021 -0.163065,0.839339 0.102525,0.03093 0.456901,-0.427327 1.078007,-1.394712 0.331074,-0.515673 0.626554,-0.990175 0.654994,-1.05422 0.0364,-0.08215 0.0623,-0.113131 0.0761,-0.105046 z" />
  <path
     style="fill:#f2f2f2;fill-opacity:1;stroke:#313131;stroke-width:1;stroke-linejoin:round;stroke-dasharray:none;stroke-opacity:1;paint-order:stroke fill markers"
     d="m 32.465707,9.9189093 c 0.07461,0.1084477 0.13566,0.2164587 0.13566,0.2400297 0,0.05392 0.109097,0.09689 0.245992,0.09689 0.09371,0 0.106673,-0.02281 0.118754,-0.208809 l 0.01355,-0.2088037 0.169627,0.2755667 c 0.0933,0.151563 0.188861,0.275566 0.212363,0.275566 0.0235,0 0.0653,-0.04946 0.0928,-0.109919 l 0.0501,-0.109919 0.14925,0.209918 c 0.18085,0.254364 0.19099,0.430252 0.0431,0.747809 -0.13976,0.300145 -0.27919,0.400977 -0.640504,0.463163 -0.31025,0.0534 -0.63122,0.168444 -0.488454,0.17507 0.04285,0.0021 0.07767,0.0086 0.0774,0.01475 -2.66e-4,0.0061 -0.03032,0.109447 -0.06676,0.229613 -0.03645,0.120165 -0.06628,0.267963 -0.06628,0.328429 0,0.109641 8.58e-4,0.109863 0.322678,0.07922 0.54671,-0.05206 0.87949,-0.151198 1.3234,-0.394243 l 0.42352,-0.231891 0.71213,0.0013 c 0.48504,8.58e-4 0.85822,0.02715 1.17032,0.08222 0.25201,0.04448 0.50626,0.06882 0.56499,0.05407 0.10389,-0.02608 0.10148,-0.01535 -0.0885,0.393986 -0.25992,0.560011 -0.30876,0.627764 -0.5296,0.734677 -0.1536,0.07435 -0.27417,0.091 -0.6528,0.09013 -0.25542,-4.29e-4 -0.53451,-0.01673 -0.62018,-0.03585 -0.13519,-0.0302 -0.21658,-0.0046 -0.61566,0.19355 l -0.45989,0.228352 0.51201,0.45429 c 1.42314,1.262693 2.07077,2.149494 2.39749,3.282845 0.0888,0.30804 0.10121,0.451476 0.10164,1.17429 4.3e-4,0.909395 -0.0513,1.23664 -0.29962,1.891572 -0.19627,0.517626 -0.44647,0.922643 -0.79973,1.29452 l -0.31115,0.327572 -0.19116,-0.259664 c -0.20047,-0.272316 -0.81924,-0.914211 -0.85083,-0.88262 -0.0334,0.03348 0.12222,0.35716 0.29248,0.608165 0.45355,0.668657 0.70259,1.374213 0.89114,2.524727 0.23734,1.448197 0.38532,1.959844 0.79905,2.76275 0.46083,0.894319 1.21447,1.732529 2.30349,2.561982 0.63898,0.486678 1.07391,0.90475 1.24775,1.199393 l 0.0953,0.161474 -0.20836,-0.160298 c -0.25718,-0.197847 -0.83318,-0.472025 -1.18073,-0.562019 -0.14313,-0.03706 -0.25329,-0.06049 -0.24479,-0.05205 0.008,0.0084 0.17567,0.09984 0.3715,0.203125 1.26806,0.668781 2.0556,1.605315 2.23259,2.654963 0.0521,0.30903 0.0587,0.486356 0.0274,0.733436 -0.0442,0.348141 -0.0621,0.339554 -0.13825,-0.06624 -0.0707,-0.376733 -0.21648,-0.641368 -0.5196,-0.943117 -0.22155,-0.220551 -0.72988,-0.556348 -0.8422,-0.556348 -0.0158,0 0.0996,0.120123 0.25658,0.266942 0.91523,0.856151 0.99466,2.401602 0.19582,3.809971 -0.2094,0.369172 -0.4296,0.685623 -0.98797,1.419776 -0.99779,1.311931 -1.13144,1.981424 -0.62834,3.147532 0.17102,0.39638 0.1441,0.399621 -0.259,0.03122 -0.60149,-0.549726 -1.08086,-1.326012 -1.27583,-2.066058 -0.13228,-0.502118 -0.16226,-1.23661 -0.069,-1.691285 0.0691,-0.337123 0.17872,-0.59161 0.60349,-1.401477 0.14324,-0.273105 0.36529,-0.95913 0.35619,-1.100464 -10e-4,-0.01925 -0.0957,0.145262 -0.20991,0.365573 l -0.20766,0.40057 -0.0287,-0.334632 c -0.0385,-0.448366 -0.1359,-0.76112 -0.35133,-1.127976 -0.22322,-0.380124 -0.39827,-0.592609 -1.17132,-1.421821 -0.70731,-0.75869 -1.04183,-1.193675 -1.38578,-1.801938 -0.29382,-0.519604 -0.57971,-1.350648 -0.6507,-1.891492 -0.0733,-0.558076 -0.018,-0.814425 0.30772,-1.426522 0.31829,-0.598197 0.54697,-1.237527 0.68342,-1.910674 0.0865,-0.426945 0.10117,-0.635835 0.10048,-1.434379 -8.5e-4,-1.068613 -0.071,-1.608046 -0.31199,-2.403408 -0.13546,-0.446982 -0.23808,-0.707679 -0.70257,-1.784749 -0.32545,-0.754662 -0.711988,-2.048577 -1.055703,-3.533906 -0.205981,-0.890134 -0.223532,-0.815369 -0.04178,0.178028 0.276237,1.5099 0.566403,2.542041 0.999823,3.556402 1.01256,2.36981 1.20067,4.401215 0.57979,6.261218 -0.15188,0.454972 -0.40488,0.959182 -0.86492,1.723665 -0.20343,0.338066 -0.436525,0.778692 -0.517986,0.979168 -0.16665,0.410116 -0.331477,1.153666 -0.331477,1.4953 0,0.124673 -0.01939,0.226675 -0.04305,0.226675 -0.104446,0 -1.405953,-1.036284 -1.871491,-1.490119 -0.494694,-0.482256 -0.651833,-0.599896 -0.889431,-0.665861 -0.06846,-0.019 -0.03817,0.01227 0.07872,0.08127 0.104492,0.06169 0.434958,0.359467 0.734374,0.661739 0.361671,0.365124 0.775926,0.72061 1.234251,1.059161 1.96269,1.449788 3.04527,2.292334 3.3338,2.594615 l 0.15149,0.158721 -0.35586,-0.153853 c -0.44559,-0.192649 -0.91228,-0.311318 -1.36935,-0.348195 -0.37454,-0.03024 -0.40036,0.0084 -0.0688,0.102945 0.52251,0.148956 1.2398,0.628462 1.80255,1.205006 l 0.31155,0.319191 -0.32776,-0.163159 c -0.39781,-0.198027 -0.87166,-0.324226 -1.35692,-0.361396 l -0.36266,-0.02779 0.35606,0.235399 c 0.36009,0.238017 1.03015,0.86479 1.13294,1.059711 l 0.0559,0.105987 -0.14934,-0.113398 c -0.2667,-0.202508 -0.51667,-0.276909 -0.9182,-0.273289 -0.20255,0.0017 -0.38737,0.02243 -0.41071,0.04575 -0.0269,0.02689 0.0215,0.205292 0.13227,0.487468 0.27787,0.707841 0.40482,1.404722 0.43343,2.379284 0.0253,0.861064 -0.008,1.273526 -0.16781,2.046776 -0.0944,0.45844 -0.31934,1.206755 -0.41186,1.370292 -0.055,0.09721 -0.0612,0.09015 -0.13772,-0.155779 -0.21615,-0.69507 -0.638293,-1.286525 -1.686525,-2.36299 -0.42182,-0.433181 -0.813718,-0.863407 -0.870886,-0.956052 -0.06997,-0.11341 -0.127885,-0.161443 -0.177236,-0.147016 -0.18223,0.05329 -0.767394,0.158047 -1.030219,0.184444 -0.304756,0.03062 -0.936077,-0.05566 -1.268464,-0.173336 -0.07766,-0.05363 -0.182207,-0.0493 -0.27331,-0.07395 -0.170852,0.289235 -0.691277,0.92076 -1.265367,1.535511 -0.782474,0.837897 -1.117374,1.322199 -1.378998,1.994179 -0.144987,0.372388 -0.125191,0.394728 -0.347234,-0.391906 -0.392798,-1.391595 -0.482003,-3.091724 -0.228093,-4.347084 0.05113,-0.252853 0.178237,-0.673335 0.282435,-0.934401 l 0.189449,-0.474665 -0.180731,-0.02706 c -0.361017,-0.05404 -0.797611,0.08626 -1.154889,0.371105 -0.25518,0.203448 -0.25715,0.191517 -0.025,-0.151605 0.25274,-0.373619 0.67246,-0.733819 1.221718,-1.048469 l 0.267046,-0.152982 -0.155068,-0.01471 c -0.220583,-0.02093 -0.827652,0.07475 -1.078226,0.169957 -0.11693,0.04443 -0.30787,0.148886 -0.42431,0.232126 -0.33764,0.241373 -0.34424,0.239842 -0.15587,-0.03611 0.43713,-0.640453 1.204143,-1.221967 1.835734,-1.391757 0.142319,-0.03826 0.130798,-0.04216 -0.133523,-0.04524 -0.377787,-0.0043 -0.779497,0.09308 -1.124271,0.27277 -0.15274,0.07961 -0.29632,0.152755 -0.31905,0.162547 -0.0227,0.0098 0.0574,-0.108033 0.17803,-0.261835 0.42576,-0.542753 0.972022,-0.989944 3.096145,-2.534647 0.419022,-0.304716 0.826889,-0.65311 1.183672,-1.01104 0.299388,-0.300369 0.619847,-0.587494 0.712117,-0.638057 0.112075,-0.06142 0.130826,-0.08221 0.05645,-0.06263 -0.218466,0.05755 -0.340854,0.151794 -0.872675,0.672027 -0.36208,0.354196 -0.749021,0.673876 -1.179448,0.974437 -0.352318,0.246021 -0.663082,0.460564 -0.690581,0.476767 -0.03615,0.02127 -0.04379,-0.07901 -0.02774,-0.36056 0.04108,-0.721485 -0.143102,-1.231442 -0.892771,-2.471161 -0.698198,-1.154597 -0.986654,-1.953793 -1.127339,-3.123383 -0.11529,-0.958504 -0.04495,-1.857104 0.235014,-3.004259 0.113863,-0.466479 0.228363,-0.773434 0.610539,-1.63685 0.253485,-0.572679 0.518057,-1.38186 0.717878,-2.195654 0.155319,-0.632563 0.515157,-2.455936 0.508719,-2.577769 -0.0019,-0.03606 -0.09134,0.331576 -0.198728,0.816989 -0.401285,1.813836 -0.592493,2.404694 -1.478701,4.569299 l -0.264088,0.645056 -0.240343,0.142509 c -0.13219,0.07838 -0.40925,0.28381 -0.61569,0.456511 -0.20644,0.172698 -0.39031,0.313998 -0.4086,0.313998 -0.0428,0 -0.61488,-1.132981 -0.76828,-1.521705 -0.0647,-0.163761 -0.1716,-0.494231 -0.23774,-0.734378 -0.10735,-0.389739 -0.12031,-0.513096 -0.12067,-1.148746 -3.6e-4,-0.599407 0.0154,-0.770227 0.0993,-1.079223 0.36257,-1.335357 0.77411,-1.989689 2.02016,-3.212014 l 0.744803,-0.730627 -0.336814,-0.22336 -0.336819,-0.223361 -0.45153,0.06356 c -0.24835,0.03495 -0.58366,0.06369 -0.74514,0.06383 l -0.2936,2.66e-4 -0.24049,-0.261787 c -0.30429,-0.331229 -0.3141,-0.349019 -0.37739,-0.683998 -0.0541,-0.286717 -0.0393,-0.316051 0.11756,-0.2321 0.0661,0.03539 0.0861,0.03157 0.0861,-0.01651 0,-0.04382 0.0834,-0.0718 0.27818,-0.09333 0.15299,-0.0169 0.41607,-0.06177 0.58461,-0.0997 0.20522,-0.04617 0.4478,-0.06291 0.73437,-0.0507 0.416275,0.01776 0.439463,0.02449 0.850762,0.247475 0.495758,0.268756 0.77738,0.350332 1.356148,0.392816 l 0.424154,0.03113 v -0.154333 c 0,-0.08488 -0.04736,-0.247853 -0.105212,-0.36216 -0.05809,-0.114693 -0.08351,-0.207827 -0.05683,-0.207827 0.139922,0 -0.180354,-0.141514 -0.351902,-0.155495 -0.110954,-0.0091 -0.265742,-0.05382 -0.343977,-0.09951 -0.358494,-0.209379 -0.543246,-0.751072 -0.342768,-1.005041 0.05432,-0.06881 0.123259,-0.1157 0.153203,-0.104207 0.03547,0.0136 0.04823,-0.01265 0.03654,-0.07518 -0.0099,-0.05284 0.01266,-0.136137 0.05007,-0.185097 0.06476,-0.08481 0.06805,-0.08119 0.0694,0.0765 8.6e-4,0.111408 0.01962,0.159905 0.05703,0.148368 0.03054,-0.0095 0.107406,-0.02839 0.170688,-0.04211 0.08709,-0.01892 0.127965,-0.06806 0.168136,-0.202135 0.05906,-0.1971947 0.161206,-0.3045747 0.115149,-0.1210737 -0.04514,0.1799197 0.01373,0.2962627 0.149877,0.2960737 0.141179,-1.76e-4 0.408573,-0.152429 0.408998,-0.232842 1.74e-4,-0.03097 0.03973,-0.1161207 0.08796,-0.1892477 l 0.08767,-0.132954 -0.02813,0.173011 c -0.02242,0.1379797 -0.0114,0.1851777 0.05413,0.2330947 0.155145,0.113449 0.280481,0.07294 0.429827,-0.1389487 l 0.140299,-0.199039 0.07646,0.170827 c 0.04205,0.09395 0.146958,0.2245737 0.23308,0.2902677 0.385346,0.293918 0.405847,0.824423 0.05026,1.299868 l -0.103916,0.138925 0.09066,0.238666 c 0.04986,0.131256 0.103995,0.399206 0.120282,0.595436 l 0.02958,0.356787 1.068185,0.01351 c 0.587504,0.0074 1.193361,8.59e-4 1.346357,-0.01466 l 0.278173,-0.02817 8.59e-4,-0.20787 c 8.57e-4,-0.268606 0.09922,-0.684044 0.197335,-0.833789 0.0748,-0.114156 0.07386,-0.120868 -0.03319,-0.235377 -0.171835,-0.18383 -0.258853,-0.393454 -0.260668,-0.627939 -0.0021,-0.29372 0.113767,-0.514301 0.371977,-0.707075 0.119466,-0.08919 0.228545,-0.20732 0.242398,-0.2625197 0.03435,-0.136822 0.08314,-0.125964 0.149058,0.03315 0.0534,0.1289267 0.06522,0.1335197 0.343688,0.1335197 h 0.288382 l -0.01591,-0.2002807 c -0.0088,-0.110156 -0.01175,-0.200283 -0.0066,-0.200283 0.0051,0 0.07036,0.08873 0.144967,0.197173 z m 0.149762,4.4844627 c 0.0142,0.03551 0.02474,0.02496 0.02689,-0.02689 0.0021,-0.04692 -0.0086,-0.0732 -0.02337,-0.05841 -0.0148,0.0148 -0.01638,0.05318 -0.0034,0.0853 z m -5.830772,0.114054 c 0.01121,0.04284 0.0204,0.0078 0.0204,-0.0779 0,-0.08568 -0.0087,-0.120723 -0.0204,-0.07789 -0.01121,0.04285 -0.01121,0.112939 0,0.155779 z m -0.04533,0.333288 c 0.01063,0.05537 0.01981,0.02054 0.0202,-0.07737 4.35e-4,-0.09792 -0.0087,-0.143212 -0.01933,-0.100661 -0.01111,0.04254 -0.0115,0.122671 -8.6e-4,0.178033 z m 6.0096,0.353797 c 0.0142,0.03551 0.02474,0.02496 0.02689,-0.02689 0.0021,-0.04692 -0.0086,-0.0732 -0.02337,-0.05842 -0.0148,0.0148 -0.01638,0.05317 -0.0034,0.08531 z m -1.524091,2.684365 c -0.08966,0.531315 -0.333335,1.59096 -0.385122,1.674752 -0.01205,0.01947 0.155891,0.222019 0.373169,0.450096 0.759543,0.797296 1.272138,1.630536 1.58858,2.58229 0.08334,0.250658 0.152511,0.412955 0.153711,0.360663 0.0034,-0.153111 -0.211618,-0.758857 -0.444546,-1.251689 -0.333249,-0.705089 -0.665139,-1.179313 -1.175602,-1.679749 l -0.45399,-0.445077 0.146528,-0.431182 c 0.277119,-0.815438 0.334845,-1.196129 0.349689,-2.306033 0.01316,-0.983349 0.01278,-0.98817 -0.02068,-0.267045 -0.01874,0.403906 -0.07802,0.994743 -0.131723,1.312974 z M 28.06181,17.577319 c 0.06147,0.553102 0.193122,1.133899 0.366082,1.614612 l 0.132556,0.368399 -0.464556,0.480846 c -0.75166,0.778018 -1.185731,1.498509 -1.460974,2.425032 -0.186008,0.62612 -0.158954,0.636593 0.04659,0.01806 0.310417,-0.933939 0.716022,-1.592169 1.495374,-2.42676 l 0.434467,-0.465261 -0.0578,-0.206321 c -0.179387,-0.64048 -0.23485,-0.878138 -0.312997,-1.341263 -0.105029,-0.622403 -0.175715,-1.302999 -0.18885,-1.818398 -0.0058,-0.242016 -0.01527,-0.145336 -0.02455,0.260634 -0.0077,0.354945 0.0077,0.845642 0.0346,1.090432 z m 1.46079,15.510894 c 0.02604,0.208074 0.07527,0.468442 0.10939,0.578597 l 0.06204,0.200287 0.05244,-0.178033 c 0.160398,-0.544519 0.164965,-0.985364 0.01892,-1.82481 l -0.07744,-0.445077 -0.106342,0.64536 c -0.09353,0.567619 -0.100634,0.690932 -0.05898,1.023676 z m 1.173029,-1.021686 c 0.225778,0.411355 0.559945,0.834141 0.820416,1.037982 0.129305,0.101192 0.421386,0.282699 0.64907,0.403349 0.227683,0.12065 0.502233,0.286083 0.610107,0.367628 0.107874,0.08155 0.202937,0.141463 0.211257,0.133142 0.02818,-0.02818 -0.127392,-0.496331 -0.239305,-0.720129 -0.247295,-0.49453 -0.484929,-0.686193 -1.201228,-0.968861 -0.225517,-0.08899 -0.535955,-0.242466 -0.689864,-0.341043 -0.153914,-0.09858 -0.286198,-0.179654 -0.293978,-0.180168 -0.0077,-4.29e-4 0.05231,0.120131 0.133525,0.2681 z m -2.083449,-0.09191 c -0.115013,0.07294 -0.445661,0.224634 -0.734774,0.337105 -0.695463,0.27054 -0.889929,0.441604 -1.195164,1.051325 -0.12262,0.244945 -0.222951,0.495294 -0.222951,0.55633 v 0.11098 L 26.6262,33.899071 c 0.09182,-0.0722 0.35717,-0.237453 0.589719,-0.367212 0.752983,-0.420148 0.945304,-0.577685 1.241086,-1.016612 0.221037,-0.327996 0.420636,-0.673241 0.389222,-0.673241 -0.01372,0 -0.119034,0.05968 -0.234047,0.132611 z m 2.030826,1.489013 c 0,0.213321 0.0708,0.378676 0.236393,0.55209 0.19915,0.208555 0.742774,0.477804 0.742774,0.367885 0,-0.14751 -0.206831,-0.557703 -0.361645,-0.71723 -0.153197,-0.157859 -0.471912,-0.351357 -0.584143,-0.354647 -0.01835,-4.28e-4 -0.03337,0.06783 -0.03337,0.151902 z m -2.211451,-0.01964 c -0.243626,0.139722 -0.38812,0.3022 -0.542937,0.610485 -0.181117,0.360671 -0.121015,0.397524 0.302868,0.185705 0.18019,-0.09004 0.322499,-0.200647 0.405383,-0.315065 0.215276,-0.297177 0.278752,-0.615095 0.122582,-0.61395 -0.03132,2.23e-4 -0.160926,0.05999 -0.287896,0.132825 z m -9.5881,-18.197609 c 0.35172,0.05841 0.95115,0.269147 1.57222,0.552728 1.02228,0.466783 1.68468,0.686627 2.07132,0.687459 0.09,1.8e-4 0.14465,0.02251 0.14465,0.05911 0,0.03234 -0.08,0.271308 -0.17797,0.531054 -0.27731,0.735898 -0.32467,0.993263 -0.29681,1.613282 0.0161,0.360011 0.0596,0.668275 0.13345,0.945784 0.0602,0.226435 0.10432,0.411699 0.0981,0.411699 -0.006,0 -0.16939,-0.05056 -0.36252,-0.112365 -0.87692,-0.280627 -2.33067,-0.703527 -2.76583,-0.804595 -0.64747,-0.15038 -1.56605,-0.189659 -2.12506,-0.09087 -0.68551,0.121139 -1.41584,0.403177 -1.91383,0.739073 -0.29274,0.197456 -0.31174,0.202748 -0.20877,0.05814 0.13327,-0.187163 0.52515,-0.534638 0.71828,-0.636894 0.38696,-0.204879 0.29651,-0.20759 -0.52627,-0.01578 -0.8636,0.201325 -1.48878,0.564299 -2.2247,1.291643 -0.53317,0.526962 -0.53644,0.521746 -0.20351,-0.325616 0.45455,-1.156905 1.02353,-2.078569 1.71059,-2.770873 0.46179,-0.465303 0.84623,-0.743302 1.38943,-1.00472 0.67839,-0.326482 0.99307,-0.391652 1.91173,-0.395924 0.43256,-0.0021 0.75764,-0.0199 0.72239,-0.03972 -0.27531,-0.154964 -1.00618,-0.328738 -1.56247,-0.371501 l -0.38213,-0.02937 0.21787,-0.08669 c 0.55295,-0.220036 1.43863,-0.308186 2.05989,-0.205018 z m 20.745578,0.789063 c -0.20304,0.127194 -0.67768,0.330553 -0.90128,0.386147 -0.18182,0.04521 -0.14874,0.09574 0.0857,0.130892 0.35886,0.05381 1.07348,0.277577 1.45118,0.454401 0.19956,0.09343 0.63263,0.356206 0.96238,0.583963 0.82502,0.569832 1.03646,0.695438 1.47307,0.875097 0.41454,0.170574 0.37377,0.192563 -0.16689,0.09 -0.39193,-0.07435 -0.86302,-0.224711 -1.16919,-0.373186 l -0.19943,-0.09671 0.21065,0.192448 c 0.42389,0.387257 1.1622,0.751432 1.88979,0.93215 0.51435,0.127756 1.56552,0.139524 2.03071,0.02273 0.43165,-0.108367 0.92969,-0.350267 1.30912,-0.635852 l 0.32698,-0.246099 -0.15506,0.307916 c -0.22614,0.449041 -0.65862,0.999101 -1.04556,1.329799 -0.83511,0.713744 -1.78282,1.123415 -3.29816,1.425717 l -0.20026,0.03997 0.22254,0.05277 c 0.1224,0.02904 0.42783,0.07693 0.67874,0.10648 0.25091,0.02955 0.4562,0.0669 0.4562,0.08301 0,0.03808 -0.3505,0.08057 -0.93466,0.113325 -1.02432,0.05744 -2.08305,-0.244075 -3.11416,-0.886892 -0.35229,-0.21962 -0.69413,-0.476244 -1.22533,-0.919832 -0.22031,-0.183978 -0.53675,-0.422627 -0.7032,-0.530329 -0.22322,-0.144435 -0.29534,-0.214508 -0.27486,-0.267045 0.0589,-0.151049 0.0751,-1.017247 0.0251,-1.336897 -0.0697,-0.445361 -0.23949,-0.941769 -0.44384,-1.297848 l -0.16851,-0.29363 0.87168,-0.02754 c 0.91496,-0.02891 1.45284,-0.100446 1.8912,-0.251511 0.34225,-0.117939 0.35541,-0.11377 0.11543,0.03659 z m -2.184,4.102837 c 0.59168,1.035259 1.26837,1.817296 2.11727,2.446831 1.10073,0.816299 2.16673,1.20314 3.53361,1.282297 l 0.56108,0.03251 -0.2893,0.05697 c -0.50921,0.100266 -1.13526,0.112339 -1.703,0.03285 -0.28795,-0.04032 -0.55834,-0.08458 -0.60085,-0.09833 -0.25028,-0.08102 0.51991,0.310961 1.20624,0.613902 1.57248,0.69408 2.20163,1.083735 2.8214,1.747378 0.44181,0.473087 0.71775,0.96371 0.85313,1.516894 0.0427,0.174554 0.0422,0.175858 -0.0288,0.06676 -0.11489,-0.176655 -0.59982,-0.637182 -0.76913,-0.73043 -0.13506,-0.07439 -0.11926,-0.04804 0.12582,0.209756 0.64581,0.679322 0.99349,1.965706 0.86113,3.186089 -0.17864,1.647081 -1.00183,2.981648 -2.47664,4.015162 -0.34657,0.242874 -0.36182,0.247862 -0.25123,0.0822 0.20933,-0.313569 0.49673,-0.972181 0.59249,-1.357783 0.14173,-0.570672 0.14148,-1.338582 -4.3e-4,-1.799884 -0.2645,-0.858847 -0.67941,-1.329829 -1.63139,-1.851824 l -0.31155,-0.170836 0.0852,0.132306 c 0.0469,0.07277 0.11093,0.172357 0.1424,0.221317 0.0652,0.101423 0.20439,0.606547 0.17521,0.635732 -0.0106,0.01059 -0.0512,-0.05712 -0.0902,-0.15046 -0.12144,-0.290642 -0.40966,-0.626294 -0.70083,-0.81615 -0.15367,-0.100201 -0.59305,-0.329532 -0.97639,-0.509614 -1.13788,-0.534549 -1.72764,-0.929256 -2.42222,-1.621118 -0.6736,-0.670973 -1.24095,-1.533148 -1.57255,-2.389718 -0.0948,-0.244791 -0.23663,-0.745192 -0.31526,-1.112006 -0.16375,-0.763925 -0.27194,-1.139616 -0.43259,-1.50211 l -0.11312,-0.255212 0.2708,-0.28948 c 0.14893,-0.159209 0.35419,-0.412281 0.45612,-0.562382 0.1574,-0.231783 0.4962,-0.901066 0.65004,-1.284129 0.0418,-0.104078 0.0533,-0.09309 0.23372,0.222537 z M 21.207395,19.98876 c 0.31071,0.03199 1.11538,0.151563 1.17563,0.174684 0.0339,0.01304 0.12603,0.187554 0.20458,0.38782 0.15814,0.403206 0.41999,0.906109 0.66103,1.269516 l 0.15771,0.237783 -0.10918,0.08658 c -0.20313,0.161066 -0.99678,0.622595 -1.44702,0.841469 -0.24622,0.119698 -0.74693,0.320898 -1.11268,0.447115 -1.0872,0.375172 -1.75219,0.75938 -2.41541,1.395536 -0.88758,0.851359 -1.32996,1.882446 -1.29136,3.009917 0.0164,0.480584 0.016,0.483629 -0.06,0.341167 -0.0947,-0.177622 -0.19645,-0.486537 -0.23789,-0.722348 l -0.0312,-0.178028 -0.0652,0.178028 c -0.18856,0.515645 -0.23923,1.337854 -0.12341,2.00208 0.15946,0.914396 0.67283,1.793666 1.41902,2.430414 0.30125,0.257069 0.25524,0.27494 -0.26838,0.104259 -1.58875,-0.517887 -2.94446,-1.957066 -3.37465,-3.582408 -0.21262,-0.803339 -0.22738,-1.796625 -0.0373,-2.512109 0.0213,-0.07995 0.0112,-0.07768 -0.0981,0.02226 -0.16586,0.151584 -0.45026,0.575166 -0.60835,0.906104 l -0.13059,0.273346 0.0219,-0.449067 c 0.0992,-2.029209 1.2722,-4.087174 2.84034,-4.98318 0.16452,-0.094 0.29331,-0.17672 0.28621,-0.183822 -0.007,-0.0072 -0.16174,0.0283 -0.34363,0.07865 -0.35865,0.0993 -0.94654,0.360731 -1.2993,0.577783 l -0.22152,0.136303 0.16304,-0.198962 c 0.3671,-0.447997 1.13952,-1.00743 1.91722,-1.388549 0.7839,-0.384161 1.47328,-0.584546 2.36071,-0.686206 0.36987,-0.04237 1.71138,-0.05283 2.0678,-0.01612 z m 3.49766,1.286972 c -0.24486,0.824041 -0.36531,1.713399 -0.32186,2.376403 0.0288,0.43912 0.1282,1.059336 0.21235,1.324661 0.04437,0.140026 0.0376,0.152322 -0.2085,0.377256 -0.55287,0.505287 -0.95481,1.189627 -1.16065,1.976128 -0.15456,0.59052 -0.19527,1.657842 -0.087,2.280172 0.13167,0.756644 0.16413,1.239947 0.11545,1.71857 -0.088,0.864727 -0.36954,1.652224 -0.85257,2.384405 -0.12781,0.193733 -0.23796,0.346669 -0.24476,0.339859 -0.007,-0.0068 0.0399,-0.141596 0.10396,-0.299524 0.15156,-0.374009 0.35479,-1.080878 0.39063,-1.358666 l 0.0282,-0.219196 -0.21355,0.422879 c -0.54883,1.08684 -1.23807,1.783342 -2.31214,2.336487 -0.67292,0.346558 -1.66246,0.623308 -2.61921,0.732528 -0.44535,0.05084 -1.84122,0.06298 -1.9609,0.01707 -0.0485,-0.01862 0.0785,-0.06671 0.34603,-0.131076 1.56977,-0.377646 2.75484,-1.418836 3.0848,-2.710264 0.0893,-0.349462 0.10699,-1.256141 0.0282,-1.446495 -0.0432,-0.104331 -0.0465,-0.100167 -0.0533,0.06676 -0.0178,0.43596 -0.0669,0.403623 -0.17186,-0.113144 -0.40645,-2.00108 -0.43802,-2.625559 -0.18335,-3.625492 0.27875,-1.094486 1.05825,-2.108375 1.93684,-2.519237 0.31707,-0.14827 0.30582,-0.160474 -0.0387,-0.04194 -0.60463,0.208024 -1.05897,0.546702 -1.36096,1.014511 -0.0829,0.128489 -0.15944,0.224989 -0.16999,0.214448 -0.0293,-0.02929 0.27508,-0.711831 0.44222,-0.991665 0.30769,-0.515189 0.77221,-0.926823 1.43895,-1.275109 0.17136,-0.08951 0.64752,-0.321567 1.05814,-0.515678 0.41062,-0.194112 0.88985,-0.448175 1.06496,-0.564588 0.47924,-0.31859 1.15797,-0.993872 1.46875,-1.461277 0.14704,-0.221134 0.254861,-0.360075 0.239618,-0.308757 z m -3.74245,3.73274 c -0.17189,0.07871 -0.0919,0.07987 0.11127,0.0017 0.0856,-0.03298 0.12573,-0.06061 0.089,-0.06137 -0.0367,-8.58e-4 -0.12685,0.02612 -0.20028,0.05975 z"
     id="path2"
     sodipodi:nodetypes="csscccsccssscscsssccccscccccsscsscscscssccssccscssscssssscscsccsssscscssscsssssssssssscsccscscccscscccccssscccccssscscsssscssscscsccscscssccsscssscscssscsccsccccccsccsccccscscsccscccccccccccccsccscccsccccccsccsccsccscccccccsscssccccccccccccsscsscscscccscsscsccscccccscsscsccsssssssscsssssccsssscsssccccssssccscsccsscssssssssssccscscccssccssscsscscsscccssssssscscsscccscccscssccscsssscscccssscsssscsscccccssccssscscccsscsccsccsccscsssccccccscssscccsssssccccsscccssscsccccccc" />
  <path
     style="fill:#f24363;fill-opacity:1;stroke:none;stroke-width:1px;stroke-linecap:butt;stroke-linejoin:miter;stroke-opacity:1"
     d="m 33.819033,39.131967 c 0.15513,-1.084569 0.48865,-2.02436 -0.32791,-3.897546 l -0.401248,0.689874 -0.0446,-0.608884 c -0.29628,0.466589 -0.51559,0.949819 -0.42972,1.499035 -0.19491,-0.229454 -0.13657,-0.931689 -0.2317,-0.886951 -0.0535,0.06074 -0.15593,0.752477 0.1874,1.374474 l -0.78298,-0.892154 c 0.17693,0.673231 0.47429,1.384601 1.52403,2.334223 0.0469,-0.252142 -0.023,-0.518896 -0.0909,-0.785391 z"
     id="path8"
     sodipodi:nodetypes="ccccccccccc" />
  <path
     style="fill:#f24363;fill-opacity:1;stroke:none;stroke-width:1px;stroke-linecap:butt;stroke-linejoin:miter;stroke-opacity:1"
     d="m 25.691035,39.131967 c -0.15513,-1.084569 -0.48865,-2.02436 0.32791,-3.897546 l 0.40125,0.689874 0.0446,-0.608884 c 0.29628,0.466589 0.51559,0.949819 0.42972,1.499035 0.19491,-0.229454 0.13657,-0.931689 0.2317,-0.886951 0.0535,0.06074 0.15593,0.752477 -0.1874,1.374474 l 0.78298,-0.892154 c -0.17693,0.673231 -0.47429,1.384601 -1.52403,2.334223 -0.0469,-0.252142 0.023,-0.518896 0.0909,-0.785391 z"
     id="path9"
     sodipodi:nodetypes="ccccccccccc" />
  <path
     style="fill:#313131;fill-opacity:1;stroke:#f24363;stroke-width:0.5;stroke-dasharray:none;stroke-opacity:1;paint-order:stroke fill markers"
     d="m 29.696382,31.529139 c 0.04509,0.216294 0.125399,0.776794 0.145875,1.018033 0.01756,0.206714 0.01761,0.350949 1.66e-4,0.525041 -0.02312,0.231229 -0.119043,0.673782 -0.15411,0.71098 -0.02178,0.02309 -0.09839,-0.26201 -0.146462,-0.545079 -0.06229,-0.366748 -0.05046,-0.711522 0.04368,-1.27223 0.04448,-0.264916 0.0847,-0.485498 0.0894,-0.490185 0.0047,-0.0047 0.01434,0.01937 0.02144,0.05344 z m 1.056334,0.372388 c 0.204728,0.131648 0.5133,0.286592 0.846793,0.425199 0.641858,0.266767 0.874095,0.458516 1.100849,0.908922 0.08871,0.176199 0.267888,0.679655 0.255292,0.717308 -0.0038,0.01137 -0.110678,-0.04893 -0.237499,-0.134004 -0.12682,-0.08507 -0.373872,-0.234278 -0.549004,-0.331565 -0.629334,-0.349603 -0.855369,-0.533692 -1.15734,-0.942565 -0.187871,-0.254381 -0.445754,-0.678585 -0.445754,-0.733244 0,-0.02418 0.03665,-0.0065 0.186663,0.08995 z m -1.921517,-0.0611 c 0,0.03468 -0.170295,0.325636 -0.348919,0.596136 -0.09172,0.138897 -0.240967,0.327557 -0.331656,0.419244 -0.189105,0.191184 -0.352652,0.305318 -0.845657,0.590158 -0.333687,0.192793 -0.630489,0.381216 -0.763116,0.484461 l -0.06039,0.04701 1.66e-4,-0.08418 c 1.66e-4,-0.0985 0.159513,-0.480282 0.320126,-0.767234 0.07314,-0.130661 0.164533,-0.250292 0.283595,-0.371185 0.199039,-0.202104 0.318744,-0.271204 0.852867,-0.492315 0.327628,-0.135628 0.62648,-0.279928 0.799635,-0.386104 0.05133,-0.03148 0.09333,-0.04767 0.09333,-0.03599 z m 2.03776,1.527617 c 0.264223,0.14325 0.402229,0.274299 0.545383,0.51789 0.10038,0.170812 0.203653,0.448671 0.176754,0.47557 -0.027,0.027 -0.239626,-0.054 -0.421138,-0.160434 -0.210319,-0.123332 -0.399877,-0.307459 -0.471382,-0.457875 -0.03973,-0.0836 -0.05261,-0.149108 -0.05393,-0.274503 -0.0015,-0.14892 0.0024,-0.165224 0.04219,-0.17014 0.02416,-0.0029 0.106111,0.02828 0.182122,0.06949 z m -2.096319,-0.06039 c 0.04149,0.04149 0.01063,0.219669 -0.06544,0.377823 -0.116639,0.242505 -0.269118,0.386048 -0.562088,0.529143 -0.371218,0.181316 -0.413976,0.141032 -0.233909,-0.220376 0.09251,-0.185668 0.143791,-0.258221 0.270591,-0.382809 0.208319,-0.204683 0.526403,-0.368225 0.590846,-0.303781 z"
     id="path10" />
  <g
     id="g171"
     transform="rotate(180,55.904743,29.270504)">
    <path
       d="m 68.099036,37.465695 c 0.02088,0.108636 -0.429868,0.497844 -0.429868,0.497844 l 0.545808,0.111261 -0.47041,0.452711 0.59251,0.199457 0.05094,0.274424 c 0,0 0.03392,0.183229 0.05085,0.27485 0.0021,0.01165 0.0037,0.02155 0.0059,0.0332 -0.103025,-0.01931 -0.203378,-0.04066 -0.328125,-0.05273 -0.178146,-0.01724 -0.371837,-0.02714 -0.564453,-0.0293 -0.192617,-0.0022 -0.38464,0.0023 -0.556641,0.01563 -0.172001,0.01333 -0.325107,0.03525 -0.441406,0.06445 -0.107913,0.02709 -0.218711,0.06309 -0.332032,0.105469 -0.11332,0.04238 -0.228849,0.09163 -0.341796,0.146484 -0.112948,0.05486 -0.223285,0.115156 -0.330079,0.179688 -0.106793,0.06453 -0.209828,0.133682 -0.304687,0.205078 l -0.326172,0.246093 0.154297,-0.308593 c 0.05653,-0.11226 0.126687,-0.231681 0.205078,-0.351563 0.07839,-0.119881 0.165435,-0.239931 0.257813,-0.357422 0.09238,-0.117491 0.188618,-0.230848 0.287109,-0.335937 0.09849,-0.105089 0.198189,-0.202482 0.294922,-0.285156 0.104389,-0.08922 0.211516,-0.173807 0.320312,-0.253907 0.108797,-0.0801 0.219003,-0.154812 0.333985,-0.226562 0.114981,-0.07175 0.234478,-0.140909 0.357422,-0.205078 0.122943,-0.06417 0.250129,-0.124285 0.382812,-0.181641 0.132684,-0.05736 0.269862,-0.110798 0.414063,-0.162109 0.0548,-0.0195 0.115237,-0.03794 0.171875,-0.05664 z"
       style="fill:#f24363;fill-opacity:1;paint-order:stroke fill markers"
       id="path152"
       sodipodi:nodetypes="ccccccccscssscscccssssssssscc" />
    <path
       d="m 67.919348,27.295773 0.0079,1.19782 -0.554573,-0.49723 -0.173485,0.945702 -0.885082,-0.448472 -0.412296,1.485774 c -0.01497,-0.04862 -0.03343,-0.09478 -0.04687,-0.144531 -0.03777,-0.139765 -0.06849,-0.282784 -0.09375,-0.429688 -0.02526,-0.146904 -0.0446,-0.297804 -0.05664,-0.449218 -0.01204,-0.151415 -0.01752,-0.303736 -0.01563,-0.457031 0.0019,-0.153296 0.0108,-0.306437 0.02734,-0.458985 0.02233,-0.205885 0.05517,-0.407374 0.09766,-0.603515 0.04249,-0.196142 0.09553,-0.387777 0.158203,-0.574219 0.06267,-0.186443 0.133917,-0.368134 0.216797,-0.544922 0.08288,-0.176788 0.176178,-0.348446 0.279297,-0.515625 0.103119,-0.167179 0.216457,-0.328714 0.339843,-0.486328 0.123386,-0.157615 0.256711,-0.31089 0.400391,-0.458985 0.143679,-0.148094 0.298889,-0.291068 0.46289,-0.429687 0.164001,-0.13862 0.337134,-0.273155 0.521485,-0.402344 0.173287,-0.121437 0.263566,-0.184414 0.296875,-0.195312 0.0083,-0.0027 0.01404,-0.0016 0.01563,0.002 0.0016,0.0035 4.47e-4,0.01001 -0.0039,0.01953 -0.0087,0.01903 -0.02899,0.05038 -0.05664,0.0918 -0.05233,0.07839 -0.110092,0.177197 -0.167969,0.289062 -0.05788,0.111866 -0.116882,0.237257 -0.171875,0.363281 -0.05499,0.126025 -0.104757,0.254131 -0.148438,0.375 -0.04368,0.12087 -0.08153,0.233678 -0.105468,0.330079 -0.03543,0.142667 -0.06044,0.297581 -0.07813,0.457031 -0.01769,0.15945 -0.02739,0.323888 -0.02734,0.484375 4.3e-5,0.160487 0.0096,0.317112 0.02734,0.46289 0.01776,0.145779 0.0446,0.281159 0.08008,0.396485 0.02115,0.06869 0.04313,0.131363 0.06641,0.195312 z"
       style="fill:#f24363;fill-opacity:1;paint-order:stroke fill markers"
       id="path150"
       sodipodi:nodetypes="cccccccssccsssssssscccssssssscccc" />
    <path
       d="m 74.14396,23.32507 -0.4372,-0.464027 -0.595804,0.792801 -0.511002,-0.56025 -0.583833,0.655304 -0.157637,-0.8172 -0.687183,0.739075 c 0.0019,-0.0079 0.0019,-0.01557 0.0039,-0.02344 0.04529,-0.178157 0.10329,-0.358393 0.175782,-0.537109 0.07249,-0.178716 0.15991,-0.357157 0.259765,-0.533203 0.1047,-0.184586 0.210307,-0.355237 0.361328,-0.572266 0.151022,-0.217028 0.345819,-0.48058 0.625,-0.847656 0.124725,-0.163991 0.235821,-0.316751 0.333985,-0.462891 0.09816,-0.146139 0.183367,-0.285231 0.255859,-0.417968 0.07249,-0.132738 0.133933,-0.259028 0.181641,-0.382813 0.04771,-0.123785 0.08166,-0.243999 0.105469,-0.363281 0.02381,-0.119282 0.0363,-0.238194 0.03711,-0.357422 8.05e-4,-0.119228 -0.0099,-0.239657 -0.03125,-0.363281 -0.02132,-0.123624 -0.05316,-0.250344 -0.0957,-0.382813 -0.04255,-0.132468 -0.09531,-0.270252 -0.158203,-0.416015 -0.04275,-0.0991 -0.07267,-0.174321 -0.08789,-0.22461 -0.0076,-0.02514 -0.01203,-0.04357 -0.01172,-0.05664 3.13e-4,-0.01307 0.0047,-0.02041 0.01367,-0.02148 0.01787,-0.0022 0.05479,0.01914 0.111328,0.06445 0.05654,0.04531 0.133601,0.114931 0.234375,0.207032 0.150374,0.137431 0.29321,0.289526 0.425782,0.451171 0.132571,0.161646 0.253584,0.33212 0.363284,0.509766 0.1097,0.177646 0.2073,0.36144 0.28906,0.546875 0.0818,0.185435 0.14852,0.373583 0.19727,0.558594 0.0331,0.125529 0.0601,0.265536 0.0801,0.412109 0.02,0.146573 0.0329,0.299561 0.0391,0.451172 0.006,0.151611 0.004,0.300764 -0.004,0.441406 -0.008,0.140643 -0.0236,0.27305 -0.0469,0.386719 -0.0173,0.08428 -0.0359,0.162174 -0.0625,0.246094 -0.0266,0.08392 -0.0609,0.173846 -0.10546,0.277344 -0.0891,0.206995 -0.22317,0.47202 -0.43555,0.876953 -0.0251,0.04783 -0.0538,0.119475 -0.082,0.1875 z"
       style="fill:#f24363;fill-opacity:1;paint-order:stroke fill markers"
       id="path149"
       sodipodi:nodetypes="ccccccccsssssssssccssscssssccscscscccc" />
    <path
       d="m 77.61075,26.166867 -0.29785,0.181641 0.26465,0.46289 c -0.0207,-0.01604 -0.0639,-0.04685 -0.084,-0.0625 -0.27603,-0.214822 -0.5011,-0.392959 -0.67383,-0.537109 -0.17273,-0.14415 -0.2931,-0.254508 -0.36524,-0.330078 l -0.15234,-0.158203 0.35547,0.154297 c 0.1114,0.04816 0.22433,0.09207 0.33789,0.130859 0.11356,0.03879 0.229,0.07238 0.34375,0.101563 0.0906,0.02304 0.18067,0.03973 0.27148,0.05664 z"
       style="fill:#f24363;fill-opacity:1;paint-order:stroke fill markers"
       id="path146"
       sodipodi:nodetypes="ccccscccsssc" />
    <path
       d="m 77.55216,24.135617 -0.162855,0.302028 0.250755,0.451878 c -0.084,-0.05767 -0.17838,-0.127707 -0.28125,-0.21289 -0.11506,-0.09528 -0.23497,-0.201236 -0.34765,-0.306641 -0.11269,-0.105405 -0.21789,-0.210891 -0.30079,-0.300781 -0.0829,-0.08989 -0.14422,-0.16416 -0.16992,-0.212891 l -0.0566,-0.107422 0.15039,0.115235 c 0.0667,0.05063 0.13201,0.09156 0.19922,0.126953 0.0672,0.0354 0.13598,0.06421 0.20899,0.08594 0.073,0.02173 0.1503,0.03724 0.23437,0.04687 0.0841,0.0096 0.17501,0.01262 0.27539,0.01172 z"
       style="fill:#f24363;fill-opacity:1;paint-order:stroke fill markers"
       id="path142"
       sodipodi:nodetypes="cccsssccccsccc" />
    <path
       d="m 86.67911,24.73132 0.413071,-0.322782 -0.272441,-0.249483 c 0,0 -0.0139,-0.04905 -0.0156,-0.05469 0.0417,-0.0096 0.0832,-0.01195 0.125,-0.02539 0.0995,-0.03196 0.19811,-0.07459 0.29493,-0.126953 0.0968,-0.05237 0.19193,-0.114336 0.28125,-0.185547 0.0638,-0.05086 0.11013,-0.0892 0.14257,-0.111328 0.0325,-0.02213 0.0511,-0.0278 0.0527,-0.01758 0.003,0.02044 -0.0558,0.107736 -0.17188,0.279296 -0.0632,0.09341 -0.13527,0.186119 -0.21875,0.277344 -0.0835,0.09123 -0.1767,0.18149 -0.27929,0.269531 -0.10259,0.08804 -0.2154,0.173959 -0.33594,0.257813 -0.005,0.0034 -0.0107,0.0064 -0.0156,0.0098 z"
       style="fill:#f24363;fill-opacity:1;paint-order:stroke fill markers"
       id="path140"
       sodipodi:nodetypes="ccccccsccscsccc" />
    <path
       d="m 86.70255,25.836789 c -0.01637,-0.118068 0.169286,-0.288214 0.153763,-0.406871 -0.02297,-0.17555 -0.244809,-0.284838 -0.249463,-0.323598 0.0398,-0.0052 0.0764,-0.0072 0.11719,-0.01367 0.10533,-0.0166 0.21104,-0.03656 0.30664,-0.05859 0.0956,-0.02203 0.18149,-0.04651 0.24414,-0.07031 0.0585,-0.02221 0.13403,-0.05949 0.21093,-0.101562 0.0769,-0.04207 0.15468,-0.08924 0.2129,-0.13086 0.16881,-0.120686 0.25508,-0.180486 0.27539,-0.175781 0.0101,0.0023 0.003,0.02146 -0.0176,0.05664 -0.0206,0.03518 -0.0545,0.08726 -0.10156,0.15625 -0.0546,0.08006 -0.11565,0.158803 -0.17969,0.236328 -0.064,0.07753 -0.1315,0.152946 -0.20313,0.226563 -0.14324,0.147233 -0.30022,0.284874 -0.46289,0.408203 -0.10016,0.07594 -0.20357,0.133767 -0.30664,0.197266 z"
       style="fill:#f24363;fill-opacity:1;paint-order:stroke fill markers"
       id="path138"
       sodipodi:nodetypes="csccscsscssccscc" />
    <path
       d="m 86.92911,26.545773 c 0,-0.06467 0.08126,-0.202695 0.05357,-0.264257 -0.05107,-0.113554 -0.23342,-0.13586 -0.239107,-0.149805 0.0893,-0.02236 0.17933,-0.0479 0.26562,-0.08008 0.0921,-0.03433 0.18139,-0.07422 0.26758,-0.119141 0.15273,-0.07961 0.29563,-0.152317 0.31836,-0.162109 0.0227,-0.0098 -0.0571,0.107917 -0.17773,0.261719 -0.10644,0.135688 -0.22097,0.263865 -0.36524,0.40625 -0.0323,0.03184 -0.0875,0.07411 -0.12305,0.107421 z"
       style="fill:#f24363;fill-opacity:1;paint-order:stroke fill markers"
       id="path135"
       sodipodi:nodetypes="ssccscccss" />
    <path
       d="m 93.15177,24.879758 -0.818156,-0.04092 0.15308,-0.79929 -0.616381,0.0861 0.146687,-0.679477 c 0.0675,-0.02832 0.12594,-0.05901 0.19727,-0.08594 0.20235,-0.07639 0.41898,-0.145904 0.64453,-0.208984 0.22555,-0.06308 0.45944,-0.119297 0.69727,-0.166016 0.23782,-0.04672 0.47956,-0.08402 0.71875,-0.111328 0.11133,-0.01271 0.2812,-0.02368 0.47656,-0.03125 0.19536,-0.0076 0.41715,-0.01185 0.62695,-0.01367 0.2098,-0.0018 0.40785,-6.17e-4 0.5625,0.0039 0.15465,0.0045 0.265,0.01196 0.29492,0.02344 0.0121,0.0047 0.0132,0.0114 0.004,0.01953 -0.009,0.0081 -0.029,0.0181 -0.0586,0.0293 -0.0591,0.0224 -0.15725,0.04985 -0.29102,0.08203 -0.19622,0.04721 -0.38703,0.104741 -0.57031,0.171875 -0.18328,0.06713 -0.35884,0.143067 -0.52734,0.228516 -0.16851,0.08545 -0.33054,0.181055 -0.48243,0.283203 -0.15188,0.102148 -0.2943,0.210892 -0.42773,0.328125 -0.13343,0.117233 -0.25795,0.242343 -0.37109,0.373047 -0.11315,0.130703 -0.21563,0.267596 -0.30665,0.410156 -0.0201,0.03149 -0.0338,0.06563 -0.0527,0.09766 z"
       style="fill:#f24363;fill-opacity:1;paint-order:stroke fill markers"
       id="path133"
       sodipodi:nodetypes="cccccssssccccccssssssscc" />
    <path
       d="m 97.64786,30.827023 -0.434186,0.558684 -0.259053,-1.169087 -0.484814,1.112166 -0.298412,-1.028931 -0.529394,0.937324 -0.328121,-0.80664 c 0.0125,-0.09736 0.0289,-0.191122 0.0352,-0.292969 0.0109,-0.176518 0.0125,-0.35661 0.004,-0.535156 -0.009,-0.178546 -0.0277,-0.355428 -0.0566,-0.521484 -0.0199,-0.1143 -0.0454,-0.229 -0.0762,-0.341797 -0.0308,-0.112797 -0.0663,-0.223501 -0.10742,-0.333984 -0.0411,-0.110484 -0.0877,-0.220765 -0.13867,-0.328125 -0.051,-0.107361 -0.10563,-0.212979 -0.16602,-0.316407 -0.0604,-0.103427 -0.12599,-0.20405 -0.19531,-0.302734 -0.0693,-0.09868 -0.14293,-0.193979 -0.22071,-0.28711 -0.0778,-0.09313 -0.16033,-0.184717 -0.24609,-0.271484 -0.0858,-0.08677 -0.1743,-0.168453 -0.26758,-0.248047 -0.0753,-0.06427 -0.12833,-0.115232 -0.1582,-0.15039 -0.0149,-0.01758 -0.0245,-0.03042 -0.0273,-0.04102 -0.003,-0.0106 -6e-5,-0.01767 0.01,-0.02148 0.0196,-0.0076 0.0654,-0.0027 0.13867,0.01563 0.0732,0.01831 0.17378,0.04913 0.30469,0.0918 0.19859,0.06474 0.39403,0.144237 0.58399,0.236328 0.18995,0.09209 0.37606,0.19788 0.55468,0.314453 0.17862,0.116573 0.3491,0.244628 0.51367,0.382812 0.16458,0.138185 0.32288,0.286435 0.47071,0.44336 0.14782,0.156924 0.28569,0.321348 0.41406,0.49414 0.12837,0.172793 0.24731,0.353274 0.35352,0.539063 0.1062,0.185789 0.1999,0.378304 0.28125,0.574218 0.0813,0.195914 0.14935,0.394489 0.20312,0.597657 0.0532,0.200834 0.0947,0.41359 0.12305,0.630859 0.003,0.02254 0.001,0.04573 0.004,0.06836 z"
       style="fill:#f24363;fill-opacity:1;paint-order:stroke fill markers"
       id="path131"
       sodipodi:nodetypes="cccccccccssccscccccccssssssssccccc" />
    <path
       d="m 93.30021,42.602414 1.617533,-0.872695 -0.830885,-0.329916 1.902185,-0.407875 -1.155589,-0.472154 1.806929,-0.598231 -0.685883,-0.434364 c 0.0432,-0.0042 0.0833,-0.0066 0.16797,-0.02344 0.11814,-0.02352 0.27673,-0.05947 0.48243,-0.107422 0.21589,-0.05033 0.41782,-0.109889 0.60937,-0.183594 0.0958,-0.03685 0.18951,-0.07721 0.28125,-0.121093 0.0917,-0.04388 0.18243,-0.09087 0.27148,-0.142579 0.17812,-0.103413 0.35175,-0.223824 0.52735,-0.363281 0.17559,-0.139457 0.35313,-0.298633 0.53711,-0.480469 0.13329,-0.13174 0.23265,-0.23064 0.30273,-0.291015 0.035,-0.03019 0.0617,-0.05002 0.082,-0.06055 0.0204,-0.01053 0.0346,-0.01229 0.041,-0.002 0.006,0.01034 0.007,0.03204 0,0.06445 -0.007,0.03242 -0.02,0.0771 -0.0391,0.132812 -0.0382,0.111416 -0.10037,0.270582 -0.1836,0.482422 -0.11363,0.289226 -0.23528,0.562353 -0.36328,0.822266 -0.128,0.259913 -0.26378,0.505545 -0.40625,0.736328 -0.14247,0.230783 -0.29215,0.4466 -0.44922,0.648438 -0.15706,0.201837 -0.32042,0.389424 -0.49218,0.5625 -0.11545,0.116325 -0.22647,0.220826 -0.33594,0.316406 -0.10947,0.09558 -0.21726,0.183502 -0.32813,0.263672 -0.11086,0.08017 -0.2241,0.152561 -0.34375,0.222656 -0.11964,0.07009 -0.24506,0.137771 -0.38086,0.203125 -0.16959,0.08162 -0.31777,0.147131 -0.45703,0.199219 -0.13925,0.05209 -0.271,0.09032 -0.41015,0.11914 -0.13915,0.02882 -0.2858,0.04678 -0.45508,0.05859 -0.16929,0.01181 -0.36018,0.01651 -0.58985,0.01758 -0.21628,10e-4 -0.40617,0.0065 -0.53711,0.01367 -0.13093,0.0072 -0.20317,0.01743 -0.18554,0.02734 z"
       style="fill:#f24363;fill-opacity:1;paint-order:stroke fill markers"
       id="path128"
       sodipodi:nodetypes="ccccccccscccsscccsssssssssssssssccc" />
  </g>
  <path
     style="fill:#f24363;fill-opacity:1;stroke:none;stroke-width:1px;stroke-linecap:butt;stroke-linejoin:miter;stroke-opacity:1"
     d="m 35.828153,33.942411 c -0.40565,-0.416209 -0.76494,-0.825542 -1.59639,-1.304885 l 0.21061,0.550044 -0.2989,0.230286 z"
     id="path171"
     sodipodi:nodetypes="ccccc" />
  <path
     d="m 31.283373,11.71459 c 0.007,-0.01659 0.0117,-0.03095 0.01,-0.04492 -0.004,-0.03026 -0.0304,-0.05993 -0.084,-0.117188 -0.043,-0.04596 -0.0809,-0.09341 -0.11328,-0.142578 -0.0324,-0.04917 -0.0584,-0.1 -0.0801,-0.152343 -0.0217,-0.05235 -0.0397,-0.106611 -0.0508,-0.16211 -0.0111,-0.0555 -0.0171,-0.113254 -0.0176,-0.171875 -5e-4,-0.07343 0.007,-0.142035 0.0215,-0.207031 0.0146,-0.065 0.0379,-0.125615 0.0684,-0.183594 0.0305,-0.05798 0.0681,-0.113638 0.11524,-0.166015 0.0471,-0.05238 0.10341,-0.102198 0.16797,-0.150391 0.0597,-0.0446 0.11622,-0.095 0.16015,-0.142578 0.0439,-0.04758 0.0751,-0.09154 0.082,-0.1191407 0.009,-0.03421 0.0189,-0.05848 0.0293,-0.07422 0.0104,-0.01574 0.0208,-0.02228 0.0332,-0.01953 0.0124,0.0028 0.0266,0.0139 0.041,0.03516 0.0144,0.02126 0.0284,0.05202 0.0449,0.0918 0.0134,0.03223 0.0241,0.05566 0.0371,0.07422 0.013,0.01856 0.0286,0.03238 0.0508,0.04102 0.0444,0.01726 0.11662,0.01758 0.25586,0.01758 h 0.28906 l -0.0156,-0.1992181 c -0.009,-0.110156 -0.0126,-0.201172 -0.008,-0.201172 0.005,0 0.07,0.08882 0.14453,0.197266 0.0746,0.1084471 0.13672,0.2166621 0.13672,0.2402331 0,0.01348 0.007,0.0255 0.0195,0.03711 0.0124,0.01161 0.0305,0.02251 0.0527,0.03125 0.0444,0.01748 0.10539,0.0293 0.17383,0.0293 0.0234,0 0.0421,-0.0028 0.0566,-0.0078 0.0146,-0.005 0.025,-0.01287 0.0332,-0.02734 0.0165,-0.02895 0.0233,-0.08083 0.0293,-0.173828 l 0.0137,-0.2089831 0.16797,0.2753891 c 0.0466,0.07578 0.0943,0.145367 0.13281,0.195313 0.0385,0.04995 0.0683,0.08008 0.0801,0.08008 0.0117,0 0.0281,-0.01133 0.0449,-0.03125 0.0168,-0.01992 0.0351,-0.0479 0.0488,-0.07813 l 0.0488,-0.109375 0.15039,0.208984 c 0.0452,0.06359 0.0794,0.122467 0.10352,0.179688 0.0241,0.05722 0.0377,0.112191 0.041,0.169922 0.003,0.05773 -0.004,0.118473 -0.0215,0.183593 -0.017,0.06512 -0.0431,0.135455 -0.0801,0.214844 -0.0349,0.07504 -0.071,0.136821 -0.10938,0.189453 -0.0384,0.05263 -0.0802,0.09561 -0.1289,0.13086 -0.0487,0.03525 -0.10386,0.06305 -0.16992,0.08594 -0.0661,0.02289 -0.1421,0.04109 -0.23243,0.05664 -0.15512,0.0267 -0.31288,0.0692 -0.41406,0.105469 -0.0213,0.0076 -0.0272,0.0126 -0.043,0.01953 z"
     style="fill:#f24363;stroke-width:0.5;stroke-linecap:round;stroke-linejoin:round;paint-order:stroke fill markers"
     id="path177" />
  <path
     d="m 26.775553,11.71459 c 0.001,-0.0036 0.001,-0.0084 -0.004,-0.01367 -0.013,-0.01349 -0.0459,-0.03026 -0.0879,-0.04883 -0.042,-0.01856 -0.0945,-0.0375 -0.14649,-0.05273 -0.052,-0.01523 -0.10359,-0.02775 -0.14648,-0.03125 -0.0555,-0.0046 -0.12125,-0.01713 -0.1836,-0.03516 -0.0623,-0.01803 -0.12103,-0.04161 -0.16015,-0.06445 -0.0448,-0.02617 -0.088,-0.05645 -0.12695,-0.0918 -0.039,-0.03535 -0.0732,-0.07509 -0.10547,-0.117187 -0.0323,-0.0421 -0.0611,-0.08834 -0.0859,-0.134766 -0.0248,-0.04643 -0.046,-0.09424 -0.0625,-0.142578 -0.0165,-0.04834 -0.0298,-0.09671 -0.0371,-0.144531 -0.007,-0.04782 -0.008,-0.09379 -0.006,-0.138672 0.003,-0.04489 0.01,-0.08743 0.0234,-0.126953 0.0134,-0.03953 0.0316,-0.07568 0.0566,-0.107422 0.0272,-0.0344 0.0582,-0.0651 0.0859,-0.08398 0.0278,-0.01889 0.0534,-0.02723 0.0684,-0.02148 0.0177,0.0068 0.029,0.0049 0.0352,-0.0078 0.006,-0.01268 0.006,-0.03514 0,-0.06641 -0.005,-0.02642 -0.001,-0.0602 0.008,-0.09375 0.009,-0.03355 0.0243,-0.06732 0.043,-0.0918 0.0324,-0.04241 0.0495,-0.06275 0.0586,-0.05273 0.009,0.01002 0.011,0.05006 0.0117,0.128906 4.3e-4,0.0557 0.004,0.09649 0.0137,0.121094 0.009,0.02461 0.0243,0.03311 0.043,0.02734 0.0305,-0.0095 0.10663,-0.02925 0.16992,-0.04297 0.0436,-0.0095 0.0754,-0.02523 0.10156,-0.05664 0.0261,-0.03141 0.0463,-0.07749 0.0664,-0.144531 0.0296,-0.0986 0.0705,-0.1745677 0.0976,-0.2031247 0.0136,-0.01428 0.0233,-0.01656 0.0274,-0.0039 0.004,0.01266 0.002,0.04006 -0.01,0.08594 -0.0113,0.04498 -0.015,0.08684 -0.0137,0.1230467 0.001,0.03621 0.008,0.06602 0.0215,0.0918 0.0131,0.02578 0.0307,0.04686 0.0547,0.06055 0.024,0.01369 0.0538,0.02153 0.0879,0.02148 0.0353,-4.4e-5 0.0781,-0.0098 0.12305,-0.02539 0.0449,-0.01555 0.0925,-0.03843 0.13476,-0.0625 0.0423,-0.02407 0.0801,-0.05059 0.10743,-0.07617 0.0273,-0.02558 0.0429,-0.05021 0.043,-0.07031 1.7e-4,-0.03097 0.0396,-0.1163257 0.0879,-0.1894527 l 0.0879,-0.132812 -0.0273,0.173828 c -0.0112,0.06899 -0.014,0.115354 -0.006,0.1503907 0.008,0.03504 0.0278,0.05807 0.0606,0.08203 0.0388,0.02836 0.0754,0.0478 0.11133,0.05664 0.0359,0.0088 0.0708,0.0073 0.10547,-0.0039 0.0347,-0.01122 0.0683,-0.03263 0.10351,-0.06445 0.0352,-0.03182 0.072,-0.07398 0.10938,-0.1269527 l 0.14062,-0.199219 0.0762,0.171875 c 0.0211,0.04697 0.0574,0.1016857 0.0996,0.1542967 0.0423,0.05261 0.0898,0.101919 0.13282,0.134766 0.0482,0.03674 0.0902,0.07753 0.12695,0.121093 0.0367,0.04356 0.0685,0.09138 0.0937,0.140625 0.0253,0.04925 0.0448,0.100504 0.0586,0.154297 0.0138,0.05379 0.0212,0.108817 0.0234,0.166016 0.002,0.0572 -3.8e-4,0.116315 -0.01,0.175781 -0.009,0.05947 -0.0258,0.119094 -0.0469,0.179688 -0.021,0.06059 -0.0474,0.123012 -0.0801,0.183593 -0.0327,0.06058 -0.0708,0.120257 -0.11523,0.179688 l -0.10352,0.138672 0.0176,0.04687 z"
     style="fill:#f24363;stroke-width:0.5;stroke-linecap:round;stroke-linejoin:round;paint-order:stroke fill markers"
     id="path175" />
  <path
     d="m 26.799999,14.351677 c 0.0036,0.01412 0.0059,0.04505 0.0059,0.08789 0,0.04285 -0.0022,0.07182 -0.0059,0.08594 -0.0037,0.01412 -0.0081,0.01361 -0.01367,-0.0078 -0.01121,-0.04284 -0.01121,-0.1134 0,-0.15625 0.0058,-0.02142 0.01003,-0.02388 0.01367,-0.0098 z"
     style="fill:#f2f2f2;stroke-linejoin:round;paint-order:stroke fill markers"
     id="path206" />
  <path
     d="m 32.620312,14.318473 c 0.0074,-0.0074 0.01332,-0.0047 0.01758,0.0059 0.0043,0.01059 0.0069,0.02732 0.0059,0.05078 -0.0011,0.02593 -0.0051,0.04219 -0.0098,0.04687 -0.0047,0.0047 -0.01048,-0.0018 -0.01758,-0.01953 -0.01298,-0.03212 -0.01089,-0.06918 0.0039,-0.08398 z"
     style="fill:#f2f2f2;stroke-linejoin:round;paint-order:stroke fill markers"
     id="path205" />
  <path
     d="m 24.452345,11.787223 v 1.31836 l -0.32227,0.04492 c -0.24834,0.03495 -0.58462,0.06431 -0.74609,0.06445 h -0.29297 l -0.24023,-0.261719 c -0.0761,-0.08281 -0.13304,-0.145738 -0.17774,-0.199219 -0.0447,-0.05348 -0.0774,-0.09676 -0.10156,-0.140625 -0.0242,-0.04386 -0.0401,-0.08863 -0.0547,-0.142578 -0.0146,-0.05395 -0.0272,-0.117427 -0.043,-0.201172 -0.0135,-0.07168 -0.0236,-0.128164 -0.0273,-0.169922 -0.004,-0.04176 -0.002,-0.0696 0.006,-0.08594 0.008,-0.01634 0.0243,-0.0202 0.0469,-0.01563 0.0226,0.0046 0.0526,0.01808 0.0918,0.03906 0.0331,0.01769 0.0551,0.02598 0.0684,0.02344 0.0133,-0.0025 0.0176,-0.01502 0.0176,-0.03906 0,-0.01096 0.005,-0.02213 0.0156,-0.03125 0.0109,-0.0091 0.0282,-0.01781 0.0508,-0.02539 0.0452,-0.01516 0.11356,-0.02634 0.21094,-0.03711 0.15299,-0.0169 0.41739,-0.06168 0.58593,-0.09961 0.10261,-0.02309 0.21382,-0.03845 0.33594,-0.04687 0.12212,-0.0084 0.25515,-0.01001 0.39844,-0.0039 0.074,0.0032 0.12419,0.006 0.17773,0.0098 z"
     style="fill:#f24363;stroke-width:0.5;stroke-linecap:round;stroke-linejoin:round;paint-order:stroke fill markers"
     id="path204" />
  <path
     d="m 35.130083,11.793083 h 0.16406 c 0.24252,4.29e-4 0.45745,0.006 0.65039,0.01953 0.19294,0.01356 0.36543,0.03496 0.52148,0.0625 0.12601,0.02224 0.25111,0.03903 0.35352,0.04883 0.1024,0.0098 0.18157,0.01128 0.21094,0.0039 0.026,-0.0065 0.0452,-0.0096 0.0566,-0.0059 0.0114,0.0037 0.0155,0.01572 0.01,0.04102 -0.0114,0.05059 -0.0593,0.154707 -0.1543,0.359375 -0.065,0.140002 -0.11753,0.249163 -0.16211,0.335937 -0.0446,0.08677 -0.081,0.15102 -0.11719,0.201172 -0.0361,0.05015 -0.0716,0.08705 -0.11133,0.117188 -0.0397,0.03014 -0.0854,0.05335 -0.14062,0.08008 -0.0768,0.03717 -0.14356,0.06087 -0.24024,0.07422 -0.0967,0.01335 -0.22279,0.01606 -0.4121,0.01563 -0.25543,-4.29e-4 -0.53347,-0.01604 -0.61915,-0.03516 -0.003,-7.62e-4 -0.006,-0.0013 -0.01,-0.002 z"
     style="fill:#f24363;stroke-width:0.5;stroke-linecap:round;stroke-linejoin:round;paint-order:stroke fill markers"
     id="path202" />
</svg>
