<?xml version="1.0" encoding="UTF-8" standalone="no"?>
<svg
   viewBox="0 0 60 60"
   version="1.1"
   id="svg9"
   sodipodi:docname="1S-Kitsune.svg"
   inkscape:version="1.3 (0e150ed6c4, 2023-07-21)"
   xmlns:inkscape="http://www.inkscape.org/namespaces/inkscape"
   xmlns:sodipodi="http://sodipodi.sourceforge.net/DTD/sodipodi-0.dtd"
   xmlns="http://www.w3.org/2000/svg"
   xmlns:svg="http://www.w3.org/2000/svg">
  <sodipodi:namedview
     id="namedview9"
     pagecolor="#ffffff"
     bordercolor="#666666"
     borderopacity="1.0"
     inkscape:showpageshadow="2"
     inkscape:pageopacity="0.0"
     inkscape:pagecheckerboard="0"
     inkscape:deskcolor="#d1d1d1"
     inkscape:zoom="10.759808"
     inkscape:cx="21.004092"
     inkscape:cy="31.320261"
     inkscape:window-width="3840"
     inkscape:window-height="2054"
     inkscape:window-x="-11"
     inkscape:window-y="-11"
     inkscape:window-maximized="1"
     inkscape:current-layer="g15" />
  <defs
     id="defs1">
    <filter
       id="1KA_svg__a"
       x="-0.13338546"
       y="-0.1082508"
       width="1.3166419"
       height="1.257465">
      <feGaussianBlur
         in="SourceAlpha"
         result="blur"
         stdDeviation="2"
         id="feGaussianBlur1" />
      <feOffset
         dx="2"
         dy="2"
         result="offsetBlur"
         id="feOffset1" />
      <feBlend
         in="SourceGraphic"
         in2="offsetBlur"
         id="feBlend1" />
    </filter>
    <filter
       id="0HI_svg__a"
       x="-0.1341634"
       y="-0.11018899"
       width="1.3183423"
       height="1.2615933">
      <feGaussianBlur
         in="SourceAlpha"
         result="blur"
         stdDeviation="2"
         id="feGaussianBlur1-1" />
      <feOffset
         dx="2"
         dy="2"
         result="offsetBlur"
         id="feOffset1-9" />
      <feBlend
         in="SourceGraphic"
         in2="offsetBlur"
         id="feBlend1-3"
         mode="normal" />
    </filter>
    <filter
       id="0HI_svg__a-0"
       x="-0.1341634"
       y="-0.11018899"
       width="1.3183423"
       height="1.2615933">
      <feGaussianBlur
         in="SourceAlpha"
         result="blur"
         stdDeviation="2"
         id="feGaussianBlur1-4" />
      <feOffset
         dx="2"
         dy="2"
         result="offsetBlur"
         id="feOffset1-0" />
      <feBlend
         in="SourceGraphic"
         in2="offsetBlur"
         id="feBlend1-31"
         mode="normal" />
    </filter>
    <filter
       id="0HI_svg__a-00"
       x="-0.1341634"
       y="-0.11018899"
       width="1.3183423"
       height="1.2615933">
      <feGaussianBlur
         in="SourceAlpha"
         result="blur"
         stdDeviation="2"
         id="feGaussianBlur1-0" />
      <feOffset
         dx="2"
         dy="2"
         result="offsetBlur"
         id="feOffset1-7" />
      <feBlend
         in="SourceGraphic"
         in2="offsetBlur"
         id="feBlend1-37"
         mode="normal" />
    </filter>
  </defs>
  <g
     fill="#fdd3e3"
     filter="url(#1KA_svg__a)"
     transform="translate(-102.587 -25.906)scale(1.03094)"
     id="g1"
     style="fill:#d5beaf;fill-opacity:1">
    <path
       fill="#fdeb98"
       d="m 141.866,74.375 6.836,-44.558 h -40.19 l 6.535,44.862 13.56087,3.935 c 0.09,0.017 -0.091,0.032 0,0.021 z"
       id="path1"
       sodipodi:nodetypes="ccccccc"
       style="stroke-width:0.96998855;stroke-dasharray:none;stroke:#333333;fill:#d5beaf;fill-opacity:1" />
  </g>
  <path
     id="path3-8"
     style="fill:#32c3ee;fill-opacity:1;stroke-width:0.0454364"
     d="m 32.012429,27.694211 c -0.02307,-0.01348 -0.01166,-0.134024 0.04496,-0.293919 0.250527,-0.703563 0.770828,-1.601687 1.220119,-2.108611 0.388615,-0.438485 1.007454,-0.96024 1.521732,-1.282401 0.22975,-0.143913 0.578219,-0.362046 0.773744,-0.484198 0.322319,-0.201349 0.377567,-0.253456 0.603987,-0.572646 0.210304,-0.296665 0.25524,-0.387011 0.277813,-0.570078 0.0146,-0.119504 0.01334,-0.226881 -0.0028,-0.238271 -0.05914,-0.04161 -0.374427,0.04918 -0.561354,0.16156 -0.256096,0.153971 -0.556457,0.467382 -0.859349,0.896137 -0.136907,0.193959 -0.342797,0.447998 -0.457611,0.565831 -0.197663,0.202829 -0.634301,0.498104 -0.684311,0.462889 -0.06776,-0.04769 1.182659,-1.444045 1.853822,-2.070396 1.155942,-1.07878 1.393068,-1.321692 1.688477,-1.738926 0.406851,-0.574963 0.579854,-1.055819 0.564782,-1.56425 -0.0059,-0.195347 -0.137602,-0.340457 -0.285601,-0.314706 -0.101435,0.01764 -0.245336,0.225338 -0.398685,0.582245 -0.386966,0.9006 -1.061741,1.830228 -1.660097,2.283391 -0.263058,0.19923 -0.897607,0.537705 -0.837008,0.446383 0.01379,-0.02083 0.170974,-0.160262 0.349393,-0.309727 0.747325,-0.626044 1.448589,-1.352954 1.533215,-1.589332 0.09716,-0.27143 -0.09324,-0.525385 -0.311041,-0.415784 -0.04545,0.0229 -0.263528,0.2613 -0.485694,0.529273 -0.222146,0.267985 -0.42042,0.500564 -0.441005,0.516665 -0.02058,0.01611 0.04418,-0.112419 0.144741,-0.286132 0.100529,-0.173714 0.188463,-0.337902 0.195959,-0.363334 0.02544,-0.08886 0.979629,-1.423858 1.178456,-1.648709 0.06212,-0.07022 0.106743,-0.119838 0.162838,-0.161467 l 0.181019,-0.230199 0.124328,-0.133354 c 0.792939,-0.849507 1.774029,-1.633341 2.913373,-2.327799 0.741022,-0.451682 0.972646,-0.635223 1.198063,-0.955602 0.179581,-0.255229 0.310989,-0.66935 0.270311,-0.849281 -0.02369,-0.105018 -0.03456,-0.09827 -0.27537,0.200816 -0.335945,0.4173 -0.585907,0.593564 -1.678124,1.178062 -1.099609,0.58846 -1.272201,0.696923 -1.657285,1.046765 l -0.291666,0.265605 0.293357,-0.376989 c 0.504005,-0.646767 1.010433,-1.019279 1.79446,-1.321024 0.571845,-0.220082 0.835999,-0.477981 0.841245,-0.823496 0.0084,-0.546474 -0.283697,-0.478794 -0.8167,0.190071 -0.409522,0.513927 -0.493593,0.557542 -0.214626,0.111703 0.796197,-1.272488 1.882388,-2.329407 3.221706,-3.130952 0.238209,-0.14256 0.535945,-0.344772 0.661118,-0.450707 0.421692,-0.356813 0.627113,-0.8532196 0.520047,-1.2586146 -0.06856,-0.259727 -0.212737,-0.340443 -0.50974,-0.288769 -0.469452,0.0817 -0.855312,0.473529 -1.319353,1.3408966 -0.358623,0.670656 -0.585536,0.993234 -0.915722,1.303584 -0.466325,0.438316 -1.023729,0.759105 -1.618609,0.928786 -0.09378,0.02676 -0.02942,-0.02613 0.196119,-0.15822 0.851463,-0.498648 1.337358,-1.158843 2.189434,-2.9756716 0.370065,-0.789092 0.45512,-0.93785 0.891071,-1.560958 0.397685,-0.568601 0.5262,-0.724369 0.736244,-0.897599 1.244016,-1.025942 3.011481,-1.160204 3.994794,-0.301984 0.800766,0.698874 1.114375,1.920838 0.806818,3.150626 -0.170719,0.6825856 -0.386655,1.1093086 -1.127729,2.2357076 -0.717521,1.090538 -0.875252,1.399486 -0.957175,1.872878 l -0.04377,0.254826 -0.01521,-0.175514 c -0.04971,-0.604751 0.173145,-1.229659 0.899231,-2.528108 0.501589,-0.897001 0.535543,-1.073039 0.246196,-1.276621 -0.121003,-0.08513 -0.186665,-0.09515 -0.339141,-0.05969 -0.199997,0.04649 -0.41382,0.197155 -0.54714,0.385933 -0.24014,0.339997 -0.413634,1.065723 -0.492555,2.053147 -0.05661,0.707485 -0.131936,1.125923 -0.26564,1.478219 -0.156548,0.412927 -0.220471,0.502613 -0.70119,0.990671 -0.448307,0.455143 -0.626484,0.696965 -0.69434,0.941698 -0.06758,0.243793 -0.0897,0.198231 -0.03873,-0.08128 0.03897,-0.213534 0.08631,-0.297469 0.547425,-0.962225 0.372729,-0.537384 0.519294,-0.777453 0.556161,-0.915513 0.105933,-0.39615 -0.108856,-0.324279 -0.692752,0.234495 l -0.300961,0.289233 0.236419,-0.391487 c 0.284504,-0.468762 0.434713,-0.847773 0.502209,-1.271935 0.06252,-0.392614 0.01821,-0.553751 -0.191695,-0.701412 -0.307231,-0.216167 -0.677781,-0.07695 -0.911394,0.340417 -0.178277,0.318475 -0.237386,0.823548 -0.206514,1.799374 0.02982,0.943014 -0.01815,1.363317 -0.206444,1.803281 -0.08272,0.193316 -0.138117,0.30325 -0.197676,0.37509 0.0033,3.68e-4 0.0044,0.0012 0.0039,0.002 -0.0088,0.01 -0.16352,0.225946 -0.16352,0.225946 l -0.401926,0.615518 c -0.432635,0.66315 -0.584652,0.973186 -0.630773,1.290114 -0.01476,0.10125 -0.02973,0.14161 -0.04225,0.135631 -0.0209,-0.0099 -0.0344,-0.15261 -0.02501,-0.374577 0.01571,-0.367487 0.123837,-0.794518 0.277135,-1.095559 0.09849,-0.19343 0.154609,-0.295892 0.215485,-0.363723 l -0.0097,0.0041 c 0.02545,-0.02784 0.268992,-0.423389 0.268992,-0.423389 0.135774,-0.248083 0.168951,-0.518645 0.08904,-0.730427 -0.08056,-0.213522 -0.183106,-0.298271 -0.403184,-0.333862 -0.280606,-0.04538 -0.420446,0.03466 -0.654888,0.37049 -0.19181,0.275027 -0.212629,0.328177 -0.26537,0.704624 -0.08694,0.452394 -0.177221,0.850367 -0.31595,1.305354 -0.06662,0.140582 -0.09398,0.153413 -0.468498,0.214417 -0.354953,0.05778 -0.393724,0.0753 -0.366122,0.155732 0.01699,0.04952 0.07966,0.218495 0.138352,0.376236 0.106322,0.28578 0.105655,0.286951 -0.02956,0.479196 -0.07461,0.106087 -0.410374,0.513338 -0.745885,0.903651 -0.335511,0.390334 -0.741427,0.865335 -0.903031,1.05719 -0.169471,0.201167 -0.247755,0.276839 -0.184014,0.177514 0.06093,-0.09465 0.33494,-0.571788 0.608003,-1.059148 0.400513,-0.714864 0.492159,-0.909012 0.480097,-1.007772 -0.03076,-0.250028 -0.353137,-0.333494 -0.569427,-0.146931 -0.110815,0.0956 -0.189399,0.292701 -0.346234,0.862508 -0.10429,0.378835 -0.14379,0.458032 -0.405558,0.82657 -0.159286,0.224037 -0.339065,0.446524 -0.400428,0.494372 -0.098,0.07642 -0.09028,0.04284 0.07082,-0.27099 0.10085,-0.196519 0.279799,-0.65238 0.397966,-1.012002 0.294202,-0.89534 0.468758,-1.222364 0.817215,-1.541911 0.366876,-0.336442 0.425964,-0.435952 0.378306,-0.624818 -0.02171,-0.08598 -0.06573,-0.174728 -0.09768,-0.197318 -0.0081,-0.0055 -0.01218,-0.01024 -0.01399,-0.01536 l -0.119908,-0.13632 c 0,0 -0.36789,0.02735 -0.520779,0.139267 -0.06102,0.04466 -0.14695,0.174826 -0.14695,0.174826 -0.0018,0.0081 -0.0096,0.01854 -0.01699,0.02964 -0.08957,0.128506 -0.19202,0.421224 -0.358798,1.017087 -0.668001,2.386771 -2.104957,4.9437 -3.820854,6.801766 l -0.279175,0.304428 0.228068,-0.418671 c 0.215241,-0.39213 0.22814,-0.429629 0.187243,-0.605397 -0.05052,-0.217207 -0.102299,-0.26606 -0.244881,-0.231514 -0.07884,0.01909 -0.235989,0.190893 -0.669077,0.738031 -0.310723,0.392498 -0.600675,0.763666 -0.645897,0.823525 -0.05525,0.07362 -0.04551,0.02284 0.02822,-0.152933 0.145873,-0.347944 0.236923,-0.817021 0.163065,-0.839339 -0.102525,-0.03093 -0.456901,0.427327 -1.078007,1.394712 -0.331073,0.515673 -0.626555,0.990175 -0.654991,1.05422 -0.03638,0.08215 -0.0623,0.113131 -0.07606,0.105046 z" />
  <path
     id="path6-1"
     style="fill:#32c3ee;fill-opacity:1;stroke-width:0.0454364"
     d="m 25.812872,28.714524 c -0.02307,0.01348 -0.01166,0.134024 0.04496,0.293919 0.250527,0.703563 0.770828,1.601687 1.220119,2.108611 0.388615,0.438485 1.007454,0.96024 1.521732,1.282401 0.22975,0.143913 0.578219,0.362046 0.773744,0.484198 0.322319,0.201349 0.377567,0.253456 0.603987,0.572646 0.210304,0.296665 0.25524,0.387011 0.277813,0.570078 0.0146,0.119504 0.01334,0.226881 -0.0028,0.238271 -0.05914,0.04161 -0.374427,-0.04918 -0.561354,-0.16156 -0.256096,-0.153971 -0.556457,-0.467382 -0.859349,-0.896137 -0.136907,-0.193959 -0.342797,-0.447998 -0.457611,-0.565831 -0.197663,-0.202829 -0.634301,-0.498104 -0.684311,-0.462889 -0.06776,0.04769 1.182659,1.444045 1.853822,2.070396 1.155942,1.07878 1.393068,1.321692 1.688477,1.738926 0.406851,0.574963 0.579854,1.055819 0.564782,1.56425 -0.0059,0.195347 -0.137602,0.340457 -0.285601,0.314706 -0.101435,-0.01764 -0.245336,-0.225338 -0.398685,-0.582245 -0.386966,-0.9006 -1.061741,-1.830228 -1.660097,-2.283391 -0.263058,-0.19923 -0.897607,-0.537705 -0.837008,-0.446383 0.01379,0.02083 0.170974,0.160262 0.349393,0.309727 0.747325,0.626044 1.448589,1.352954 1.533215,1.589332 0.09716,0.27143 -0.09324,0.525385 -0.311041,0.415784 -0.04545,-0.0229 -0.263528,-0.2613 -0.485694,-0.529273 -0.222146,-0.267985 -0.42042,-0.500564 -0.441005,-0.516665 -0.02058,-0.01611 0.04418,0.112419 0.144741,0.286132 0.100529,0.173714 0.188463,0.337902 0.195959,0.363334 0.02544,0.08886 0.979629,1.423858 1.178456,1.648709 0.06212,0.07022 0.106743,0.119838 0.162838,0.161467 l 0.181019,0.230199 0.124328,0.133354 c 0.792939,0.849507 1.774029,1.633341 2.913373,2.327799 0.741022,0.451682 0.972646,0.635223 1.198063,0.955602 0.179581,0.255229 0.310989,0.66935 0.270311,0.849281 -0.02369,0.105018 -0.03456,0.09827 -0.27537,-0.200816 -0.335945,-0.4173 -0.585907,-0.593564 -1.678124,-1.178062 -1.099609,-0.58846 -1.272201,-0.696923 -1.657285,-1.046765 l -0.291666,-0.265605 0.293357,0.376989 c 0.504005,0.646767 1.010433,1.019279 1.79446,1.321024 0.571845,0.220082 0.835999,0.477981 0.841245,0.823496 0.0084,0.546474 -0.283697,0.478794 -0.8167,-0.190071 -0.409522,-0.513927 -0.493593,-0.557542 -0.214626,-0.111703 0.796197,1.272488 1.882388,2.329407 3.221706,3.130952 0.238209,0.14256 0.535945,0.344772 0.661118,0.450707 0.421692,0.356813 0.627113,0.85322 0.520047,1.258615 -0.06856,0.259727 -0.212737,0.340443 -0.50974,0.288769 -0.469452,-0.0817 -0.855312,-0.473529 -1.319353,-1.340897 -0.358623,-0.670656 -0.585536,-0.993234 -0.915722,-1.303584 -0.466325,-0.438316 -1.023729,-0.759105 -1.618609,-0.928786 -0.09378,-0.02676 -0.02942,0.02613 0.196119,0.15822 0.851463,0.498648 1.337358,1.158843 2.189434,2.975672 0.370065,0.789092 0.45512,0.93785 0.891071,1.560958 0.397685,0.568601 0.5262,0.724369 0.736244,0.897599 1.244016,1.025942 3.011481,1.160204 3.994794,0.301984 0.800766,-0.698874 1.114375,-1.920838 0.806818,-3.150626 -0.170719,-0.682586 -0.386655,-1.109309 -1.127729,-2.235708 -0.717521,-1.090538 -0.875252,-1.399486 -0.957175,-1.872878 l -0.04377,-0.254826 -0.01521,0.175514 c -0.04971,0.604751 0.173145,1.229659 0.899231,2.528108 0.501589,0.897001 0.535543,1.073039 0.246196,1.276621 -0.121003,0.08513 -0.186665,0.09515 -0.339141,0.05969 -0.199997,-0.04649 -0.41382,-0.197155 -0.54714,-0.385933 -0.24014,-0.339997 -0.413634,-1.065723 -0.492555,-2.053147 -0.05661,-0.707485 -0.131936,-1.125923 -0.26564,-1.478219 -0.156548,-0.412927 -0.220471,-0.502613 -0.70119,-0.990671 -0.448307,-0.455143 -0.626484,-0.696965 -0.69434,-0.941698 -0.06758,-0.243793 -0.0897,-0.198231 -0.03873,0.08128 0.03897,0.213534 0.08631,0.297469 0.547425,0.962225 0.372729,0.537384 0.519294,0.777453 0.556161,0.915513 0.105933,0.39615 -0.108856,0.324279 -0.692752,-0.234495 l -0.300961,-0.289233 0.236419,0.391487 c 0.284504,0.468762 0.434713,0.847773 0.502209,1.271935 0.06252,0.392614 0.01821,0.553751 -0.191695,0.701412 -0.307231,0.216167 -0.677781,0.07695 -0.911394,-0.340417 -0.178277,-0.318475 -0.237386,-0.823548 -0.206514,-1.799374 0.02982,-0.943014 -0.01815,-1.363317 -0.206444,-1.803281 -0.08272,-0.193316 -0.138117,-0.30325 -0.197676,-0.37509 0.0033,-3.68e-4 0.0044,-0.0012 0.0039,-0.002 -0.0088,-0.01 -0.16352,-0.225946 -0.16352,-0.225946 l -0.401926,-0.615518 c -0.432635,-0.66315 -0.584652,-0.973186 -0.630773,-1.290114 -0.01476,-0.10125 -0.02973,-0.14161 -0.04225,-0.135631 -0.0209,0.0099 -0.0344,0.15261 -0.02501,0.374577 0.01571,0.367487 0.123837,0.794518 0.277135,1.095559 0.09849,0.19343 0.154609,0.295892 0.215485,0.363723 l -0.0097,-0.0041 c 0.02545,0.02784 0.268992,0.423389 0.268992,0.423389 0.135774,0.248083 0.168951,0.518645 0.08904,0.730427 -0.08056,0.213522 -0.183106,0.298271 -0.403184,0.333862 -0.280606,0.04538 -0.420446,-0.03466 -0.654888,-0.37049 -0.19181,-0.275027 -0.212629,-0.328177 -0.26537,-0.704624 -0.08694,-0.452394 -0.177221,-0.850367 -0.31595,-1.305354 -0.06662,-0.140582 -0.09398,-0.153413 -0.468498,-0.214417 -0.354953,-0.05778 -0.393724,-0.0753 -0.366122,-0.155732 0.01699,-0.04952 0.07966,-0.218495 0.138352,-0.376236 0.106322,-0.28578 0.105655,-0.286951 -0.02956,-0.479196 -0.07461,-0.106087 -0.410374,-0.513338 -0.745885,-0.903651 -0.335511,-0.390334 -0.741427,-0.865335 -0.903031,-1.05719 -0.169471,-0.201167 -0.247755,-0.276839 -0.184014,-0.177514 0.06093,0.09465 0.33494,0.571788 0.608003,1.059148 0.400513,0.714864 0.492159,0.909012 0.480097,1.007772 -0.03076,0.250028 -0.353137,0.333494 -0.569427,0.146931 -0.110815,-0.0956 -0.189399,-0.292701 -0.346234,-0.862508 -0.10429,-0.378835 -0.14379,-0.458032 -0.405558,-0.82657 -0.159286,-0.224037 -0.339065,-0.446524 -0.400428,-0.494372 -0.098,-0.07642 -0.09028,-0.04284 0.07082,0.27099 0.10085,0.196519 0.279799,0.65238 0.397966,1.012002 0.294202,0.89534 0.468758,1.222364 0.817215,1.541911 0.366876,0.336442 0.425964,0.435952 0.378306,0.624818 -0.02171,0.08598 -0.06573,0.174728 -0.09768,0.197318 -0.0081,0.0055 -0.01218,0.01024 -0.01399,0.01536 l -0.119908,0.13632 c 0,0 -0.36789,-0.02735 -0.520779,-0.139267 -0.06102,-0.04466 -0.14695,-0.174826 -0.14695,-0.174826 -0.0018,-0.0081 -0.0096,-0.01854 -0.01699,-0.02964 -0.08957,-0.128506 -0.19202,-0.421224 -0.358798,-1.017087 -0.668001,-2.386771 -2.104957,-4.9437 -3.820854,-6.801766 l -0.279175,-0.304428 0.228068,0.418671 c 0.215241,0.39213 0.22814,0.429629 0.187243,0.605397 -0.05052,0.217207 -0.102299,0.26606 -0.244881,0.231514 -0.07884,-0.01909 -0.235989,-0.190893 -0.669077,-0.738031 -0.310723,-0.392498 -0.600675,-0.763666 -0.645897,-0.823525 -0.05525,-0.07362 -0.04551,-0.02284 0.02822,0.152933 0.145873,0.347944 0.236923,0.817021 0.163065,0.839339 -0.102525,0.03093 -0.456901,-0.427327 -1.078007,-1.394712 -0.331073,-0.515673 -0.626555,-0.990175 -0.654991,-1.05422 -0.03638,-0.08215 -0.0623,-0.113131 -0.07606,-0.105046 z" />
  <path
     id="path5-3"
     style="fill:#32c3ee;fill-opacity:1;stroke-width:0.0454364"
     d="m 27.987568,27.694211 c 0.02307,-0.01348 0.01166,-0.134024 -0.04496,-0.293919 -0.250528,-0.703563 -0.770828,-1.601687 -1.220117,-2.108611 -0.388616,-0.438485 -1.007455,-0.96024 -1.521732,-1.282401 -0.229751,-0.143913 -0.578221,-0.362046 -0.773745,-0.484198 -0.322319,-0.201349 -0.377566,-0.253456 -0.603988,-0.572646 -0.210304,-0.296665 -0.25524,-0.387011 -0.277811,-0.570078 -0.0146,-0.119504 -0.01334,-0.226881 0.0028,-0.238271 0.05914,-0.04161 0.374429,0.04918 0.561355,0.16156 0.256096,0.153971 0.556456,0.467382 0.859348,0.896137 0.136908,0.193959 0.342797,0.447998 0.457611,0.565831 0.197664,0.202829 0.634301,0.498104 0.68431,0.462889 0.06776,-0.04769 -1.182659,-1.444045 -1.853822,-2.070396 -1.155942,-1.07878 -1.393068,-1.321692 -1.688477,-1.738926 -0.406851,-0.574963 -0.579853,-1.055819 -0.564782,-1.56425 0.0059,-0.195347 0.137603,-0.340457 0.285601,-0.314706 0.101436,0.01764 0.245337,0.225338 0.398685,0.582245 0.386966,0.9006 1.061741,1.830228 1.660097,2.283391 0.263059,0.19923 0.897607,0.537705 0.837008,0.446383 -0.01379,-0.02083 -0.170974,-0.160262 -0.349393,-0.309727 -0.747325,-0.626044 -1.448589,-1.352954 -1.533215,-1.589332 -0.09716,-0.27143 0.09324,-0.525385 0.311042,-0.415784 0.04545,0.0229 0.263528,0.2613 0.485695,0.529273 0.222146,0.267985 0.42042,0.500564 0.441004,0.516665 0.02058,0.01611 -0.04418,-0.112419 -0.144742,-0.286132 -0.100529,-0.173714 -0.188463,-0.337902 -0.195959,-0.363334 -0.02544,-0.08886 -0.979629,-1.423858 -1.178456,-1.648709 -0.06212,-0.07022 -0.106743,-0.119838 -0.162838,-0.161467 l -0.181019,-0.230199 -0.124327,-0.133354 c -0.792938,-0.849507 -1.774029,-1.633341 -2.913373,-2.327799 -0.741023,-0.451682 -0.972645,-0.635223 -1.198063,-0.955602 -0.17958,-0.255229 -0.310988,-0.66935 -0.27031,-0.849281 0.02369,-0.105018 0.03456,-0.09827 0.27537,0.200816 0.335945,0.4173 0.585907,0.593564 1.678123,1.178062 1.09961,0.58846 1.272202,0.696923 1.657286,1.046765 l 0.291666,0.265605 -0.293357,-0.376989 c -0.504005,-0.646767 -1.010433,-1.019279 -1.794461,-1.321024 -0.571846,-0.220082 -0.835999,-0.477981 -0.841245,-0.823496 -0.0084,-0.546474 0.283696,-0.478794 0.816699,0.190071 0.409523,0.513927 0.493593,0.557542 0.214627,0.111703 -0.796197,-1.272488 -1.882388,-2.329407 -3.221705,-3.130952 -0.238209,-0.14256 -0.535945,-0.344772 -0.661119,-0.450707 -0.421692,-0.356813 -0.627113,-0.8532196 -0.520046,-1.2586146 0.06856,-0.259727 0.212736,-0.340443 0.50974,-0.288769 0.469451,0.0817 0.855311,0.473529 1.319353,1.3408966 0.358623,0.670656 0.585535,0.993234 0.915722,1.303584 0.466325,0.438316 1.023729,0.759105 1.618609,0.928786 0.09378,0.02676 0.02942,-0.02613 -0.196119,-0.15822 -0.851462,-0.498648 -1.337359,-1.158843 -2.189434,-2.9756716 -0.370065,-0.789092 -0.45512,-0.93785 -0.891071,-1.560958 -0.397685,-0.568601 -0.5262,-0.724369 -0.736244,-0.897599 -1.244016,-1.025942 -3.011481,-1.160204 -3.994794,-0.301984 -0.800766,0.698874 -1.114375,1.920838 -0.806818,3.150626 0.170719,0.6825856 0.386655,1.1093086 1.127729,2.2357076 0.717521,1.090538 0.875252,1.399486 0.957175,1.872878 l 0.04377,0.254826 0.01521,-0.175514 c 0.04971,-0.604751 -0.173145,-1.229659 -0.899231,-2.528108 -0.501589,-0.897001 -0.535543,-1.073039 -0.246196,-1.276621 0.121003,-0.08513 0.186665,-0.09515 0.339141,-0.05969 0.199997,0.04649 0.41382,0.197155 0.54714,0.385933 0.24014,0.339997 0.413634,1.065723 0.492555,2.053147 0.05661,0.707485 0.131936,1.125923 0.26564,1.478219 0.156548,0.412927 0.220471,0.502613 0.70119,0.990671 0.448307,0.455143 0.626484,0.696965 0.69434,0.941698 0.06758,0.243793 0.0897,0.198231 0.03873,-0.08128 -0.03897,-0.213534 -0.08631,-0.297469 -0.547425,-0.962225 -0.372729,-0.537384 -0.519294,-0.777453 -0.556161,-0.915513 -0.105933,-0.39615 0.108856,-0.324279 0.692752,0.234495 l 0.300961,0.289233 -0.236419,-0.391487 c -0.284504,-0.468762 -0.434713,-0.847773 -0.502209,-1.271935 -0.06252,-0.392614 -0.01821,-0.553751 0.191695,-0.701412 0.307231,-0.216167 0.677781,-0.07695 0.911394,0.340417 0.178277,0.318475 0.237386,0.823548 0.206514,1.799374 -0.02982,0.943014 0.01815,1.363317 0.206444,1.803281 0.08272,0.193316 0.138119,0.30325 0.197676,0.37509 -0.0033,3.68e-4 -0.0044,0.0012 -0.0039,0.002 0.0088,0.01 0.163519,0.225946 0.163519,0.225946 l 0.401926,0.615518 c 0.432636,0.66315 0.584653,0.973186 0.630774,1.290114 0.01476,0.10125 0.02973,0.14161 0.04225,0.135631 0.0209,-0.0099 0.0344,-0.15261 0.02501,-0.374577 -0.01571,-0.367487 -0.123838,-0.794518 -0.277135,-1.095559 -0.09849,-0.19343 -0.154609,-0.295892 -0.215486,-0.363723 l 0.0097,0.0041 c -0.02545,-0.02784 -0.268992,-0.423389 -0.268992,-0.423389 -0.135774,-0.248083 -0.168951,-0.518645 -0.08904,-0.730427 0.08056,-0.213522 0.183106,-0.298271 0.403184,-0.333862 0.280606,-0.04538 0.420446,0.03466 0.654888,0.37049 0.19181,0.275027 0.212629,0.328177 0.26537,0.704624 0.08694,0.452394 0.177221,0.850367 0.31595,1.305354 0.06662,0.140582 0.09398,0.153413 0.468498,0.214417 0.354953,0.05778 0.393723,0.0753 0.366122,0.155732 -0.01699,0.04952 -0.07966,0.218495 -0.138353,0.376236 -0.106322,0.28578 -0.105655,0.286951 0.02956,0.479196 0.07461,0.106087 0.410375,0.513338 0.745886,0.903651 0.335511,0.390334 0.741426,0.865335 0.90303,1.05719 0.169471,0.201167 0.247755,0.276839 0.184014,0.177514 -0.06093,-0.09465 -0.33494,-0.571788 -0.608003,-1.059148 -0.400513,-0.714864 -0.492159,-0.909012 -0.480097,-1.007772 0.03076,-0.250028 0.353137,-0.333494 0.569428,-0.146931 0.110815,0.0956 0.189398,0.292701 0.346233,0.862508 0.10429,0.378835 0.14379,0.458032 0.405558,0.82657 0.159286,0.224037 0.339066,0.446524 0.400429,0.494372 0.098,0.07642 0.09028,0.04284 -0.07082,-0.27099 -0.10085,-0.196519 -0.279799,-0.65238 -0.397966,-1.012002 -0.294202,-0.89534 -0.468758,-1.222364 -0.817215,-1.541911 -0.366876,-0.336442 -0.425964,-0.435952 -0.378306,-0.624818 0.02171,-0.08598 0.06573,-0.174728 0.09768,-0.197318 0.0081,-0.0055 0.01218,-0.01024 0.01399,-0.01536 l 0.119908,-0.13632 c 0,0 0.36789,0.02735 0.520779,0.139267 0.06102,0.04466 0.14695,0.174826 0.14695,0.174826 0.0018,0.0081 0.0096,0.01854 0.01699,0.02964 0.08957,0.128506 0.19202,0.421224 0.358798,1.017087 0.668001,2.386771 2.104956,4.9437 3.820854,6.801766 l 0.279175,0.304428 -0.228068,-0.418671 c -0.215241,-0.39213 -0.22814,-0.429629 -0.187243,-0.605397 0.05052,-0.217207 0.102299,-0.26606 0.244881,-0.231514 0.07884,0.01909 0.235989,0.190893 0.669077,0.738031 0.310723,0.392498 0.600675,0.763666 0.645896,0.823525 0.05525,0.07362 0.04551,0.02284 -0.02822,-0.152933 -0.145874,-0.347944 -0.236924,-0.817021 -0.163065,-0.839339 0.102525,-0.03093 0.456901,0.427327 1.078007,1.394712 0.331073,0.515673 0.626555,0.990175 0.65499,1.05422 0.03638,0.08215 0.0623,0.113131 0.07606,0.105046 z" />
  <path
     id="path7-5"
     style="fill:#32c3ee;fill-opacity:1;stroke-width:0.0454364"
     d="m 34.187128,28.714524 c 0.02307,0.01348 0.01166,0.134024 -0.04496,0.293919 -0.250527,0.703563 -0.770828,1.601687 -1.220119,2.108611 -0.388615,0.438485 -1.007454,0.96024 -1.521732,1.282401 -0.22975,0.143913 -0.578219,0.362046 -0.773744,0.484198 -0.322319,0.201349 -0.377567,0.253456 -0.603987,0.572646 -0.210304,0.296665 -0.25524,0.387011 -0.277813,0.570078 -0.0146,0.119504 -0.01334,0.226881 0.0028,0.238271 0.05914,0.04161 0.374427,-0.04918 0.561354,-0.16156 0.256096,-0.153971 0.556457,-0.467382 0.859349,-0.896137 0.136907,-0.193959 0.342797,-0.447998 0.457611,-0.565831 0.197663,-0.202829 0.634301,-0.498104 0.684311,-0.462889 0.06776,0.04769 -1.182659,1.444045 -1.853822,2.070396 -1.155942,1.07878 -1.393068,1.321692 -1.688477,1.738926 -0.406851,0.574963 -0.579854,1.055819 -0.564782,1.56425 0.0059,0.195347 0.137602,0.340457 0.285601,0.314706 0.101435,-0.01764 0.245336,-0.225338 0.398685,-0.582245 0.386966,-0.9006 1.061741,-1.830228 1.660097,-2.283391 0.263058,-0.19923 0.897607,-0.537705 0.837008,-0.446383 -0.01379,0.02083 -0.170974,0.160262 -0.349393,0.309727 -0.747325,0.626044 -1.448589,1.352954 -1.533215,1.589332 -0.09716,0.27143 0.09324,0.525385 0.311041,0.415784 0.04545,-0.0229 0.263528,-0.2613 0.485694,-0.529273 0.222146,-0.267985 0.42042,-0.500564 0.441005,-0.516665 0.02058,-0.01611 -0.04418,0.112419 -0.144741,0.286132 -0.100529,0.173714 -0.188463,0.337902 -0.195959,0.363334 -0.02544,0.08886 -0.979629,1.423858 -1.178456,1.648709 -0.06212,0.07022 -0.106743,0.119838 -0.162838,0.161467 l -0.181019,0.230199 -0.124328,0.133354 c -0.792939,0.849507 -1.774029,1.633341 -2.913373,2.327799 -0.741022,0.451682 -0.972646,0.635223 -1.198063,0.955602 -0.179581,0.255229 -0.310989,0.66935 -0.270311,0.849281 0.02369,0.105018 0.03456,0.09827 0.27537,-0.200816 0.335945,-0.4173 0.585907,-0.593564 1.678124,-1.178062 1.099609,-0.58846 1.272201,-0.696923 1.657285,-1.046765 l 0.291666,-0.265605 -0.293357,0.376989 c -0.504005,0.646767 -1.010433,1.019279 -1.79446,1.321024 -0.571845,0.220082 -0.835999,0.477981 -0.841245,0.823496 -0.0084,0.546474 0.283697,0.478794 0.8167,-0.190071 0.409522,-0.513927 0.493593,-0.557542 0.214626,-0.111703 -0.796197,1.272488 -1.882388,2.329407 -3.221706,3.130952 -0.238209,0.14256 -0.535945,0.344772 -0.661118,0.450707 -0.421692,0.356813 -0.627113,0.85322 -0.520047,1.258615 0.06856,0.259727 0.212737,0.340443 0.50974,0.288769 0.469452,-0.0817 0.855312,-0.473529 1.319353,-1.340897 0.358623,-0.670656 0.585536,-0.993234 0.915722,-1.303584 0.466325,-0.438316 1.023729,-0.759105 1.618609,-0.928786 0.09378,-0.02676 0.02942,0.02613 -0.196119,0.15822 -0.851463,0.498648 -1.337358,1.158843 -2.189434,2.975672 -0.370065,0.789092 -0.45512,0.93785 -0.891071,1.560958 -0.397685,0.568601 -0.5262,0.724369 -0.736244,0.897599 -1.244016,1.025942 -3.011481,1.160204 -3.994794,0.301984 -0.800766,-0.698874 -1.114375,-1.920838 -0.806818,-3.150626 0.170719,-0.682586 0.386655,-1.109309 1.127729,-2.235708 0.717521,-1.090538 0.875252,-1.399486 0.957175,-1.872878 l 0.04377,-0.254826 0.01521,0.175514 c 0.04971,0.604751 -0.173145,1.229659 -0.899231,2.528108 -0.501589,0.897001 -0.535543,1.073039 -0.246196,1.276621 0.121003,0.08513 0.186665,0.09515 0.339141,0.05969 0.199997,-0.04649 0.41382,-0.197155 0.54714,-0.385933 0.24014,-0.339997 0.413634,-1.065723 0.492555,-2.053147 0.05661,-0.707485 0.131936,-1.125923 0.26564,-1.478219 0.156548,-0.412927 0.220471,-0.502613 0.70119,-0.990671 0.448307,-0.455143 0.626484,-0.696965 0.69434,-0.941698 0.06758,-0.243793 0.0897,-0.198231 0.03873,0.08128 -0.03897,0.213534 -0.08631,0.297469 -0.547425,0.962225 -0.372729,0.537384 -0.519294,0.777453 -0.556161,0.915513 -0.105933,0.39615 0.108856,0.324279 0.692752,-0.234495 l 0.300961,-0.289233 -0.236419,0.391487 c -0.284504,0.468762 -0.434713,0.847773 -0.502209,1.271935 -0.06252,0.392614 -0.01821,0.553751 0.191695,0.701412 0.307231,0.216167 0.677781,0.07695 0.911394,-0.340417 0.178277,-0.318475 0.237386,-0.823548 0.206514,-1.799374 -0.02982,-0.943014 0.01815,-1.363317 0.206444,-1.803281 0.08272,-0.193316 0.138117,-0.30325 0.197676,-0.37509 -0.0033,-3.68e-4 -0.0044,-0.0012 -0.0039,-0.002 0.0088,-0.01 0.16352,-0.225946 0.16352,-0.225946 l 0.401926,-0.615518 c 0.432635,-0.66315 0.584652,-0.973186 0.630773,-1.290114 0.01476,-0.10125 0.02973,-0.14161 0.04225,-0.135631 0.0209,0.0099 0.0344,0.15261 0.02501,0.374577 -0.01571,0.367487 -0.123837,0.794518 -0.277135,1.095559 -0.09849,0.19343 -0.154609,0.295892 -0.215485,0.363723 l 0.0097,-0.0041 c -0.02545,0.02784 -0.268992,0.423389 -0.268992,0.423389 -0.135774,0.248083 -0.168951,0.518645 -0.08904,0.730427 0.08056,0.213522 0.183106,0.298271 0.403184,0.333862 0.280606,0.04538 0.420446,-0.03466 0.654888,-0.37049 0.19181,-0.275027 0.212629,-0.328177 0.26537,-0.704624 0.08694,-0.452394 0.177221,-0.850367 0.31595,-1.305354 0.06662,-0.140582 0.09398,-0.153413 0.468498,-0.214417 0.354953,-0.05778 0.393724,-0.0753 0.366122,-0.155732 -0.01699,-0.04952 -0.07966,-0.218495 -0.138352,-0.376236 -0.106322,-0.28578 -0.105655,-0.286951 0.02956,-0.479196 0.07461,-0.106087 0.410374,-0.513338 0.745885,-0.903651 0.335511,-0.390334 0.741427,-0.865335 0.903031,-1.05719 0.169471,-0.201167 0.247755,-0.276839 0.184014,-0.177514 -0.06093,0.09465 -0.33494,0.571788 -0.608003,1.059148 -0.400513,0.714864 -0.492159,0.909012 -0.480097,1.007772 0.03076,0.250028 0.353137,0.333494 0.569427,0.146931 0.110815,-0.0956 0.189399,-0.292701 0.346234,-0.862508 0.10429,-0.378835 0.14379,-0.458032 0.405558,-0.82657 0.159286,-0.224037 0.339065,-0.446524 0.400428,-0.494372 0.098,-0.07642 0.09028,-0.04284 -0.07082,0.27099 -0.10085,0.196519 -0.279799,0.65238 -0.397966,1.012002 -0.294202,0.89534 -0.468758,1.222364 -0.817215,1.541911 -0.366876,0.336442 -0.425964,0.435952 -0.378306,0.624818 0.02171,0.08598 0.06573,0.174728 0.09768,0.197318 0.0081,0.0055 0.01218,0.01024 0.01399,0.01536 l 0.119908,0.13632 c 0,0 0.36789,-0.02735 0.520779,-0.139267 0.06102,-0.04466 0.14695,-0.174826 0.14695,-0.174826 0.0018,-0.0081 0.0096,-0.01854 0.01699,-0.02964 0.08957,-0.128506 0.19202,-0.421224 0.358798,-1.017087 0.668001,-2.386771 2.104957,-4.9437 3.820854,-6.801766 l 0.279175,-0.304428 -0.228068,0.418671 c -0.215241,0.39213 -0.22814,0.429629 -0.187243,0.605397 0.05052,0.217207 0.102299,0.26606 0.244881,0.231514 0.07884,-0.01909 0.235989,-0.190893 0.669077,-0.738031 0.310723,-0.392498 0.600675,-0.763666 0.645897,-0.823525 0.05525,-0.07362 0.04551,-0.02284 -0.02822,0.152933 -0.145873,0.347944 -0.236923,0.817021 -0.163065,0.839339 0.102525,0.03093 0.456901,-0.427327 1.078007,-1.394712 0.331073,-0.515673 0.626555,-0.990175 0.654991,-1.05422 0.03638,-0.08215 0.0623,-0.113131 0.07606,-0.105046 z" />
  <g
     id="g15"
     transform="rotate(180,30,31.527811)"
     style="stroke:#313131;stroke-opacity:1">
    <path
       id="path1-9"
       style="fill:#f2f2f2;fill-opacity:1;stroke:#313131;stroke-width:1.11829;stroke-dasharray:none;stroke-opacity:1"
       d="m 17.161148,22.82221 c 0.828859,2.429282 1.704795,4.840701 2.55729,7.263056 0.141376,0.930649 1.095818,2.045411 0.732422,2.875451 -1.079933,0.967829 -2.553375,1.148652 -3.94095,1.036016 1.26378,0.807678 2.595466,1.57661 4.032319,1.98686 -1.313812,0.957206 -3.02105,1.131298 -4.595107,1.308673 0.747019,0.530908 2.315585,1.03457 3.468443,1.214758 1.325854,-0.117205 2.702655,0.06034 3.808446,0.870385 2.912707,2.110868 4.553514,5.430118 6.146588,8.556081 0.197532,0.083 0.421101,0.03405 0.629403,0.04696 0.208307,-0.01292 0.432233,0.03604 0.629766,-0.04696 1.59308,-3.125963 3.233876,-6.445213 6.146589,-8.556081 1.105797,-0.810046 2.482592,-0.98759 3.808447,-0.870385 1.152866,-0.180188 2.721058,-0.68385 3.468076,-1.214758 -1.574056,-0.177375 -3.280925,-0.351467 -4.59474,-1.308673 1.436856,-0.41025 2.768182,-1.179182 4.031954,-1.98686 -1.387569,0.112636 -2.86065,-0.06819 -3.940581,-1.036016 -0.363395,-0.83004 0.591041,-1.944802 0.732417,-2.875451 0.852492,-2.422355 1.728071,-4.833774 2.556926,-7.263056 -0.940963,0.432933 -2.100999,1.377462 -3.120075,2.014891 -1.467074,0.985173 -2.927584,1.980329 -4.39744,2.961355 -1.80634,0.101422 -3.498821,-0.496171 -5.321339,-0.496171 -1.831196,0 -3.514999,0.597593 -5.32134,0.496171 -1.469854,-0.981026 -2.929995,-1.976182 -4.397074,-2.961355 -1.019074,-0.637429 -2.179471,-1.581958 -3.12044,-2.014891 z"
       sodipodi:nodetypes="cccccccccccccccccccccsccc" />
    <path
       style="fill:#313131;fill-opacity:1;stroke:#313131;stroke-width:0.218791px;stroke-linecap:butt;stroke-linejoin:miter;stroke-opacity:1"
       d="m 27.620468,44.813967 2.41518,2.928861 2.350212,-2.85008 z"
       id="path2-2" />
    <path
       style="fill:#313131;fill-opacity:1;stroke:#f24363;stroke-width:0.5;stroke-linecap:butt;stroke-linejoin:miter;stroke-dasharray:none;stroke-opacity:1;paint-order:normal"
       d="m 22.858566,31.981604 c 3.066929,1.849108 4.62427,4.000135 5.722702,6.242948 0,0 0.09975,-3.683069 -1.040493,-4.905176 -1.107331,-1.186829 -4.682209,-1.337772 -4.682209,-1.337772 z"
       id="path7-6"
       sodipodi:nodetypes="ccsc" />
    <path
       style="fill:#313131;fill-opacity:1;stroke:#f24363;stroke-width:0.5;stroke-linecap:butt;stroke-linejoin:miter;stroke-dasharray:none;stroke-opacity:1;paint-order:normal"
       d="m 37.141444,31.981604 c -3.066935,1.849108 -4.624277,4.000135 -5.722703,6.242948 0,0 -0.09976,-3.683069 1.040488,-4.905176 1.107336,-1.186829 4.682215,-1.337772 4.682215,-1.337772 z"
       id="path8-0"
       sodipodi:nodetypes="ccsc" />
    <path
       style="fill:#f24363;fill-opacity:1;stroke:none;stroke-width:1px;stroke-linecap:butt;stroke-linejoin:miter;stroke-opacity:1"
       d="m 18.109389,24.021541 1.793052,4.893363 2.452077,-2.044646 z"
       id="path12"
       sodipodi:nodetypes="cccc" />
    <path
       style="fill:#f24363;fill-opacity:1;stroke:none;stroke-width:1px;stroke-linecap:butt;stroke-linejoin:miter;stroke-opacity:1"
       d="M 41.905449,24.021541 40.112397,28.914904 37.66032,26.870258 Z"
       id="path13"
       sodipodi:nodetypes="cccc" />
  </g>
</svg>
