<?xml version="1.0" encoding="UTF-8" standalone="no"?>
<svg
   viewBox="0 0 60 60"
   version="1.1"
   id="svg9"
   sodipodi:docname="1T+BakeDanuki.svg"
   inkscape:version="1.3 (0e150ed6c4, 2023-07-21)"
   xmlns:inkscape="http://www.inkscape.org/namespaces/inkscape"
   xmlns:sodipodi="http://sodipodi.sourceforge.net/DTD/sodipodi-0.dtd"
   xmlns="http://www.w3.org/2000/svg"
   xmlns:svg="http://www.w3.org/2000/svg">
  <sodipodi:namedview
     id="namedview9"
     pagecolor="#ffffff"
     bordercolor="#666666"
     borderopacity="1.0"
     inkscape:showpageshadow="2"
     inkscape:pageopacity="0.0"
     inkscape:pagecheckerboard="0"
     inkscape:deskcolor="#d1d1d1"
     inkscape:zoom="15.216666"
     inkscape:cx="3.6144579"
     inkscape:cy="42.453451"
     inkscape:window-width="3840"
     inkscape:window-height="2054"
     inkscape:window-x="-11"
     inkscape:window-y="-11"
     inkscape:window-maximized="1"
     inkscape:current-layer="g15" />
  <defs
     id="defs1">
    <filter
       id="1KA_svg__a"
       x="-0.13338546"
       y="-0.1082508"
       width="1.3166419"
       height="1.257465">
      <feGaussianBlur
         in="SourceAlpha"
         result="blur"
         stdDeviation="2"
         id="feGaussianBlur1" />
      <feOffset
         dx="2"
         dy="2"
         result="offsetBlur"
         id="feOffset1" />
      <feBlend
         in="SourceGraphic"
         in2="offsetBlur"
         id="feBlend1" />
    </filter>
    <filter
       id="0HI_svg__a"
       x="-0.1341634"
       y="-0.11018899"
       width="1.3183423"
       height="1.2615933">
      <feGaussianBlur
         in="SourceAlpha"
         result="blur"
         stdDeviation="2"
         id="feGaussianBlur1-1" />
      <feOffset
         dx="2"
         dy="2"
         result="offsetBlur"
         id="feOffset1-9" />
      <feBlend
         in="SourceGraphic"
         in2="offsetBlur"
         id="feBlend1-3"
         mode="normal" />
    </filter>
    <filter
       id="0HI_svg__a-0"
       x="-0.1341634"
       y="-0.11018899"
       width="1.3183423"
       height="1.2615933">
      <feGaussianBlur
         in="SourceAlpha"
         result="blur"
         stdDeviation="2"
         id="feGaussianBlur1-4" />
      <feOffset
         dx="2"
         dy="2"
         result="offsetBlur"
         id="feOffset1-0" />
      <feBlend
         in="SourceGraphic"
         in2="offsetBlur"
         id="feBlend1-31"
         mode="normal" />
    </filter>
    <filter
       id="0HI_svg__a-00"
       x="-0.1341634"
       y="-0.11018899"
       width="1.3183423"
       height="1.2615933">
      <feGaussianBlur
         in="SourceAlpha"
         result="blur"
         stdDeviation="2"
         id="feGaussianBlur1-0" />
      <feOffset
         dx="2"
         dy="2"
         result="offsetBlur"
         id="feOffset1-7" />
      <feBlend
         in="SourceGraphic"
         in2="offsetBlur"
         id="feBlend1-37"
         mode="normal" />
    </filter>
    <filter
       id="0KA_svg__a"
       x="-0.1341634"
       y="-0.11018899"
       width="1.3183423"
       height="1.2615933">
      <feGaussianBlur
         in="SourceAlpha"
         result="blur"
         stdDeviation="2"
         id="feGaussianBlur1-2" />
      <feOffset
         dx="2"
         dy="2"
         result="offsetBlur"
         id="feOffset1-09" />
      <feBlend
         in="SourceGraphic"
         in2="offsetBlur"
         id="feBlend1-1"
         mode="normal" />
    </filter>
    <filter
       id="0KA_svg__a-9"
       x="-0.1341634"
       y="-0.11018899"
       width="1.3183423"
       height="1.2615933">
      <feGaussianBlur
         in="SourceAlpha"
         result="blur"
         stdDeviation="2"
         id="feGaussianBlur1-7" />
      <feOffset
         dx="2"
         dy="2"
         result="offsetBlur"
         id="feOffset1-05" />
      <feBlend
         in="SourceGraphic"
         in2="offsetBlur"
         id="feBlend1-8"
         mode="normal" />
    </filter>
  </defs>
  <g
     fill="#fdd3e3"
     filter="url(#1KA_svg__a)"
     transform="translate(-102.587 -25.906)scale(1.03094)"
     id="g1"
     style="fill:#d5beaf;fill-opacity:1">
    <path
       fill="#fdeb98"
       d="m 141.866,74.375 6.836,-44.558 h -40.19 l 6.535,44.862 13.56087,3.935 c 0.09,0.017 -0.091,0.032 0,0.021 z"
       id="path1"
       sodipodi:nodetypes="ccccccc"
       style="stroke-width:0.96998855;stroke-dasharray:none;stroke:#333333;fill:#d5beaf;fill-opacity:1" />
  </g>
  <g
     id="g15"
     transform="rotate(180,30,31.527811)"
     style="stroke:#313131;stroke-opacity:1">
    <path
       style="fill:#c06722;fill-opacity:1;stroke-width:0.026213"
       d="m 41.264175,36.899802 c -0.138931,-0.0829 -0.183285,-0.123892 -0.22862,-0.211283 -0.04012,-0.07738 -0.04334,-0.120193 -0.0073,-0.09792 0.01445,0.0089 0.02623,-0.0081 0.02623,-0.03777 0,-0.02968 0.01178,-0.05398 0.02623,-0.05398 0.01445,0 0.02335,-0.0088 0.01985,-0.01966 -0.0056,-0.0182 0.10331,-0.212837 0.13607,-0.24247 0.008,-0.0072 0.03689,-0.05714 0.06424,-0.110954 0.0411,-0.08076 0.04692,-0.131267 0.0336,-0.289242 -0.0089,-0.105266 -0.03703,-0.232274 -0.06256,-0.282242 -0.07618,-0.149274 -0.11829,-0.36254 -0.130501,-0.660982 -0.0063,-0.154984 -0.02174,-0.28179 -0.03423,-0.28179 -0.02876,0 -0.05379,-0.204707 -0.06417,-0.524262 -0.0042,-0.136962 -0.0169,-0.310683 -0.02777,-0.386045 -0.01494,-0.103864 -0.0079,-0.175168 0.02946,-0.294671 0.027,-0.08671 0.058,-0.157755 0.0688,-0.157878 0.0108,-1.3e-4 0.01964,-0.101853 0.01964,-0.22607 0,-0.22566 0.05393,-0.455026 0.124512,-0.529652 0.01803,-0.01905 0.03275,-0.02743 0.03275,-0.01863 0,0.0088 0.01592,0.0012 0.03535,-0.01701 0.01943,-0.01816 0.02988,-0.05402 0.02314,-0.07967 -0.007,-0.02566 7.01e-4,-0.04665 0.01704,-0.04665 0.01613,0 0.02925,-0.02064 0.02918,-0.04587 -1.33e-4,-0.04792 0.0816,-0.298355 0.104811,-0.321111 0.0074,-0.0072 0.03009,-0.04555 0.0505,-0.08519 0.02041,-0.03965 0.0526,-0.07209 0.07144,-0.07209 0.01887,0 0.05506,-0.03244 0.08042,-0.07209 0.06635,-0.103708 0.103239,-0.137713 0.126517,-0.116711 0.01122,0.01013 0.0129,-0.0025 0.0035,-0.02792 -0.01746,-0.04866 0.01473,-0.09924 0.159186,-0.25017 0.06698,-0.07 0.09916,-0.08572 0.149487,-0.07309 0.04874,0.01223 0.08016,-0.0012 0.130887,-0.05591 0.03675,-0.03961 0.06677,-0.08147 0.06677,-0.09303 0,-0.04423 0.101885,-0.128614 0.132464,-0.109716 0.01985,0.01227 0.02728,0.0066 0.01999,-0.01524 -0.02336,-0.07002 0.07708,-0.129799 0.218044,-0.129799 0.105589,0 0.146639,-0.01271 0.190411,-0.05898 0.05863,-0.06196 0.201303,-0.17688 0.339841,-0.273727 0.0911,-0.06368 0.176994,-0.07473 0.255279,-0.03284 0.05401,0.02889 0.06116,0.02636 0.305763,-0.107646 0.09846,-0.05394 0.122232,-0.05753 0.198462,-0.02996 0.108781,0.03933 0.20084,0.04027 0.20084,0.002 0,-0.01638 0.02314,-0.02323 0.05246,-0.01555 0.02882,0.0075 0.04692,0.0048 0.04012,-0.0062 -0.01683,-0.02721 0.104776,-0.08003 0.184225,-0.08003 0.03556,0 0.08653,0.01366 0.113255,0.03035 0.02918,0.0182 0.06831,0.02174 0.09794,0.0088 0.02714,-0.01184 0.05716,-0.02256 0.06663,-0.0238 0.0095,-0.0012 0.07893,-0.0524 0.154256,-0.113668 0.18898,-0.153726 0.217441,-0.148647 0.327567,0.05849 0.04566,0.08583 0.07331,0.187546 0.08324,0.306049 0.01066,0.127474 0.02988,0.193601 0.0681,0.234658 0.04124,0.0443 0.0559,0.103347 0.06516,0.262368 0.0098,0.170108 0.02013,0.20782 0.06018,0.220525 0.05667,0.018 0.09903,0.14632 0.120815,0.366184 0.01171,0.118348 0.03086,0.171571 0.0772,0.215007 0.05534,0.05182 0.06158,0.08052 0.06158,0.280244 0,0.122384 -0.01178,0.229805 -0.02623,0.238716 -0.03984,0.02463 -0.03128,0.173753 0.01277,0.222441 0.04292,0.04741 0.06929,0.257297 0.035,0.278487 -0.01185,0.0073 -0.02153,0.03975 -0.02153,0.07206 0,0.0323 -0.01003,0.06995 -0.02223,0.08365 -0.01227,0.0137 -0.04271,0.07775 -0.06775,0.142344 -0.0385,0.09953 -0.04054,0.132307 -0.01333,0.214893 0.03808,0.115475 0.0162,0.184431 -0.13635,0.42883 -0.07499,0.120158 -0.09785,0.183271 -0.09493,0.262129 0.0035,0.08576 -0.01831,0.134553 -0.123186,0.279842 -0.06986,0.09679 -0.137003,0.169815 -0.149185,0.162285 -0.0122,-0.0075 -0.02216,0.006 -0.02216,0.02998 0,0.0287 -0.01396,0.03832 -0.04068,0.02806 -0.02237,-0.0086 -0.03402,-0.0048 -0.02581,0.0085 0.0082,0.01326 0.0028,0.03151 -0.01171,0.04057 -0.01466,0.0091 -0.02665,0.04355 -0.02665,0.07665 0,0.06551 -0.207425,0.265985 -0.360517,0.348429 -0.07658,0.04124 -0.09034,0.04217 -0.114026,0.0076 -0.02083,-0.03034 -0.02314,-0.02587 -0.01038,0.01972 0.01024,0.03635 0.0049,0.05898 -0.01326,0.05898 -0.04468,0 -0.103604,0.06753 -0.133306,0.152739 -0.01452,0.04161 -0.05821,0.0921 -0.09721,0.112186 -0.03892,0.02009 -0.0937,0.05717 -0.12165,0.0824 -0.02798,0.02523 -0.06698,0.04588 -0.0867,0.04588 -0.01978,0 -0.08717,0.02864 -0.149865,0.06363 -0.0627,0.035 -0.122877,0.05564 -0.133755,0.04588 -0.01087,-0.0098 -0.01136,-0.0032 -7.02e-4,0.01471 0.01999,0.03472 -0.185101,0.180287 -0.292058,0.207324 -0.03247,0.0082 -0.05898,0.02542 -0.05898,0.03828 0,0.01285 -0.02202,0.02337 -0.04888,0.02337 -0.02686,0 -0.07702,0.0219 -0.11141,0.04867 -0.08723,0.06792 -0.306205,0.161033 -0.378697,0.161033 -0.03324,0 -0.09263,0.01223 -0.131897,0.02715 -0.06565,0.02495 -0.160126,0.04327 -0.5218,0.101165 -0.269047,0.04307 -0.507297,0.175308 -0.510285,0.283235 -7.01e-4,0.02831 -0.104369,0.224238 -0.171257,0.323928 -0.02855,0.04256 -0.156016,0.129706 -0.18912,0.129306 -0.01129,-1.29e-4 -0.07366,-0.03193 -0.138546,-0.07064 z"
       id="path19-7" />
    <path
       style="fill:#c06722;fill-opacity:1;stroke-width:0.026213"
       d="m 18.735825,37.111618 c 0.138931,-0.0829 0.183285,-0.123892 0.22862,-0.211283 0.04012,-0.07738 0.04334,-0.120193 0.0073,-0.09792 -0.01445,0.0089 -0.02623,-0.0081 -0.02623,-0.03777 0,-0.02968 -0.01178,-0.05398 -0.02623,-0.05398 -0.01445,0 -0.02335,-0.0088 -0.01985,-0.01966 0.0056,-0.0182 -0.10331,-0.212837 -0.13607,-0.24247 -0.008,-0.0072 -0.03689,-0.05714 -0.06424,-0.110954 -0.0411,-0.08076 -0.04692,-0.131267 -0.0336,-0.289242 0.0089,-0.105266 0.03703,-0.232274 0.06256,-0.282242 0.07618,-0.149274 0.11829,-0.36254 0.130501,-0.660982 0.0063,-0.154984 0.02174,-0.28179 0.03423,-0.28179 0.02876,0 0.05379,-0.204707 0.06417,-0.524262 0.0042,-0.136962 0.0169,-0.310683 0.02777,-0.386045 0.01494,-0.103864 0.0079,-0.175168 -0.02946,-0.294671 -0.027,-0.08671 -0.058,-0.157755 -0.0688,-0.157878 -0.0108,-1.3e-4 -0.01964,-0.101853 -0.01964,-0.22607 0,-0.22566 -0.05393,-0.455026 -0.124512,-0.529652 -0.01803,-0.01905 -0.03275,-0.02743 -0.03275,-0.01863 0,0.0088 -0.01592,0.0012 -0.03535,-0.01701 -0.01943,-0.01816 -0.02988,-0.05402 -0.02314,-0.07967 0.007,-0.02566 -7.01e-4,-0.04665 -0.01704,-0.04665 -0.01613,0 -0.02925,-0.02064 -0.02918,-0.04587 1.33e-4,-0.04792 -0.0816,-0.298355 -0.104811,-0.321111 -0.0074,-0.0072 -0.03009,-0.04555 -0.0505,-0.08519 -0.02041,-0.03965 -0.0526,-0.07209 -0.07144,-0.07209 -0.01887,0 -0.05506,-0.03244 -0.08042,-0.07209 -0.06635,-0.103708 -0.103239,-0.137713 -0.126517,-0.116711 -0.01122,0.01013 -0.0129,-0.0025 -0.0035,-0.02792 0.01746,-0.04866 -0.01473,-0.09924 -0.159186,-0.25017 -0.06698,-0.07 -0.09916,-0.08572 -0.149487,-0.07309 -0.04874,0.01223 -0.08016,-0.0012 -0.130887,-0.05591 -0.03675,-0.03961 -0.06677,-0.08147 -0.06677,-0.09303 0,-0.04423 -0.101885,-0.128614 -0.132464,-0.109716 -0.01985,0.01227 -0.02728,0.0066 -0.01999,-0.01524 0.02336,-0.07002 -0.07708,-0.129799 -0.218044,-0.129799 -0.105589,0 -0.146639,-0.01271 -0.190411,-0.05898 -0.05863,-0.06196 -0.201303,-0.17688 -0.339841,-0.273727 -0.0911,-0.06368 -0.176994,-0.07473 -0.255279,-0.03284 -0.05401,0.02889 -0.06116,0.02636 -0.305763,-0.107646 -0.09846,-0.05394 -0.122232,-0.05753 -0.198462,-0.02996 -0.108781,0.03933 -0.20084,0.04027 -0.20084,0.002 0,-0.01638 -0.02314,-0.02323 -0.05246,-0.01555 -0.02882,0.0075 -0.04692,0.0048 -0.04012,-0.0062 0.01683,-0.02721 -0.104776,-0.08003 -0.184225,-0.08003 -0.03556,0 -0.08653,0.01366 -0.113255,0.03035 -0.02918,0.0182 -0.06831,0.02174 -0.09794,0.0088 -0.02714,-0.01184 -0.05716,-0.02256 -0.06663,-0.0238 -0.0095,-0.0012 -0.07893,-0.0524 -0.154256,-0.113668 -0.18898,-0.153726 -0.217441,-0.148647 -0.327567,0.05849 -0.04566,0.08583 -0.07331,0.187546 -0.08324,0.306049 -0.01066,0.127474 -0.02988,0.193601 -0.0681,0.234658 -0.04124,0.0443 -0.0559,0.103347 -0.06516,0.262368 -0.0098,0.170108 -0.02013,0.20782 -0.06018,0.220525 -0.05667,0.018 -0.09903,0.14632 -0.120815,0.366184 -0.01171,0.118348 -0.03086,0.171571 -0.0772,0.215007 -0.05534,0.05182 -0.06158,0.08052 -0.06158,0.280244 0,0.122384 0.01178,0.229805 0.02623,0.238716 0.03984,0.02463 0.03128,0.173753 -0.01277,0.222441 -0.04292,0.04741 -0.06929,0.257297 -0.035,0.278487 0.01185,0.0073 0.02153,0.03975 0.02153,0.07206 0,0.0323 0.01003,0.06995 0.02223,0.08365 0.01227,0.0137 0.04271,0.07775 0.06775,0.142344 0.0385,0.09953 0.04054,0.132307 0.01333,0.214893 -0.03808,0.115475 -0.0162,0.184431 0.13635,0.42883 0.07499,0.120158 0.09785,0.183271 0.09493,0.262129 -0.0035,0.08576 0.01831,0.134553 0.123186,0.279842 0.06986,0.09679 0.137003,0.169815 0.149185,0.162285 0.0122,-0.0075 0.02216,0.006 0.02216,0.02998 0,0.0287 0.01396,0.03832 0.04068,0.02806 0.02237,-0.0086 0.03402,-0.0048 0.02581,0.0085 -0.0082,0.01326 -0.0028,0.03151 0.01171,0.04057 0.01466,0.0091 0.02665,0.04355 0.02665,0.07665 0,0.06551 0.207425,0.265985 0.360517,0.348429 0.07658,0.04124 0.09034,0.04217 0.114026,0.0076 0.02083,-0.03034 0.02314,-0.02587 0.01038,0.01972 -0.01024,0.03635 -0.0049,0.05898 0.01326,0.05898 0.04468,0 0.103604,0.06753 0.133306,0.152739 0.01452,0.04161 0.05821,0.0921 0.09721,0.112186 0.03892,0.02009 0.0937,0.05717 0.12165,0.0824 0.02798,0.02523 0.06698,0.04588 0.0867,0.04588 0.01978,0 0.08717,0.02864 0.149865,0.06363 0.0627,0.035 0.122877,0.05564 0.133755,0.04588 0.01087,-0.0098 0.01136,-0.0032 7.02e-4,0.01471 -0.01999,0.03472 0.185101,0.180287 0.292058,0.207324 0.03247,0.0082 0.05898,0.02542 0.05898,0.03828 0,0.01285 0.02202,0.02337 0.04888,0.02337 0.02686,0 0.07702,0.0219 0.11141,0.04867 0.08723,0.06792 0.306205,0.161033 0.378697,0.161033 0.03324,0 0.09263,0.01223 0.131897,0.02715 0.06565,0.02495 0.160126,0.04327 0.5218,0.101165 0.269047,0.04307 0.507297,0.175308 0.510285,0.283235 7.01e-4,0.02831 0.104369,0.224238 0.171257,0.323928 0.02855,0.04256 0.156016,0.129706 0.18912,0.129306 0.01129,-1.29e-4 0.07366,-0.03193 0.138546,-0.07064 z"
       id="path21-2" />
    <path
       style="fill:#c06722;fill-opacity:1;stroke-width:0.026213"
       d="m 27.814959,23.090979 c -0.138931,-0.0829 -0.183285,-0.123892 -0.22862,-0.211283 -0.04012,-0.07738 -0.04334,-0.120193 -0.0073,-0.09792 0.01445,0.0089 0.02623,-0.0081 0.02623,-0.03777 0,-0.02968 0.01178,-0.05398 0.02623,-0.05398 0.01445,0 0.02335,-0.0088 0.01985,-0.01966 -0.0056,-0.0182 0.10331,-0.212837 0.13607,-0.24247 0.008,-0.0072 0.03689,-0.05714 0.06424,-0.110954 0.0411,-0.08076 0.04692,-0.131267 0.0336,-0.289242 -0.0089,-0.105266 -0.03703,-0.232274 -0.06256,-0.282242 -0.07618,-0.149274 -0.11829,-0.36254 -0.130501,-0.660982 -0.0063,-0.154984 -0.02174,-0.28179 -0.03423,-0.28179 -0.02876,0 -0.05379,-0.204707 -0.06417,-0.524262 -0.0042,-0.136962 -0.0169,-0.310683 -0.02777,-0.386045 -0.01494,-0.103864 -0.0079,-0.175168 0.02946,-0.294671 0.027,-0.08671 0.058,-0.157755 0.0688,-0.157878 0.0108,-1.3e-4 0.01964,-0.101853 0.01964,-0.22607 0,-0.22566 0.05393,-0.455026 0.124512,-0.529652 0.01803,-0.01905 0.03275,-0.02743 0.03275,-0.01863 0,0.0088 0.01592,0.0012 0.03535,-0.01701 0.01943,-0.01816 0.02988,-0.05402 0.02314,-0.07967 -0.007,-0.02566 7.01e-4,-0.04665 0.01704,-0.04665 0.01613,0 0.02925,-0.02064 0.02918,-0.04587 -1.33e-4,-0.04792 0.0816,-0.298355 0.104811,-0.321111 0.0074,-0.0072 0.03009,-0.04555 0.0505,-0.08519 0.02041,-0.03965 0.0526,-0.07209 0.07144,-0.07209 0.01887,0 0.05506,-0.03244 0.08042,-0.07209 0.06635,-0.103708 0.103239,-0.137713 0.126517,-0.116711 0.01122,0.01013 0.0129,-0.0025 0.0035,-0.02792 -0.01746,-0.04866 0.01473,-0.09924 0.159186,-0.25017 0.06698,-0.07 0.09916,-0.08572 0.149487,-0.07309 0.04874,0.01223 0.08016,-0.0012 0.130887,-0.05591 0.03675,-0.03961 0.06677,-0.08147 0.06677,-0.09303 0,-0.04423 0.101885,-0.128614 0.132464,-0.109716 0.01985,0.01227 0.02728,0.0066 0.01999,-0.01524 -0.02336,-0.07002 0.07708,-0.129799 0.218044,-0.129799 0.105589,0 0.146639,-0.01271 0.190411,-0.05898 0.05863,-0.06196 0.201303,-0.17688 0.339841,-0.273727 0.0911,-0.06368 0.176994,-0.07473 0.255279,-0.03284 0.05401,0.02889 0.06116,0.02636 0.305763,-0.107646 0.09846,-0.05394 0.122232,-0.05753 0.198462,-0.02996 0.108781,0.03933 0.20084,0.04027 0.20084,0.002 0,-0.01638 0.02314,-0.02323 0.05246,-0.01555 0.02882,0.0075 0.04692,0.0048 0.04012,-0.0062 -0.01683,-0.02721 0.104776,-0.08003 0.184225,-0.08003 0.03556,0 0.08653,0.01366 0.113255,0.03035 0.02918,0.0182 0.06831,0.02174 0.09794,0.0088 0.02714,-0.01184 0.05716,-0.02256 0.06663,-0.0238 0.0095,-0.0012 0.07893,-0.0524 0.154256,-0.113668 0.18898,-0.153726 0.217441,-0.148647 0.327567,0.05849 0.04566,0.08583 0.07331,0.187546 0.08324,0.306049 0.01066,0.127474 0.02988,0.193601 0.0681,0.234658 0.04124,0.0443 0.0559,0.103347 0.06516,0.262368 0.0098,0.170108 0.02013,0.20782 0.06018,0.220525 0.05667,0.018 0.09903,0.14632 0.120815,0.366184 0.01171,0.118348 0.03086,0.171571 0.0772,0.215007 0.05534,0.05182 0.06158,0.08052 0.06158,0.280244 0,0.122384 -0.01178,0.229805 -0.02623,0.238716 -0.03984,0.02463 -0.03128,0.173753 0.01277,0.222441 0.04292,0.04741 0.06929,0.257297 0.035,0.278487 -0.01185,0.0073 -0.02153,0.03975 -0.02153,0.07206 0,0.0323 -0.01003,0.06995 -0.02223,0.08365 -0.01227,0.0137 -0.04271,0.07775 -0.06775,0.142344 -0.0385,0.09953 -0.04054,0.132307 -0.01333,0.214893 0.03808,0.115475 0.0162,0.184431 -0.13635,0.42883 -0.07499,0.120158 -0.09785,0.183271 -0.09493,0.262129 0.0035,0.08576 -0.01831,0.134553 -0.123186,0.279842 -0.06986,0.09679 -0.137003,0.169815 -0.149185,0.162285 -0.0122,-0.0075 -0.02216,0.006 -0.02216,0.02998 0,0.0287 -0.01396,0.03832 -0.04068,0.02806 -0.02237,-0.0086 -0.03402,-0.0048 -0.02581,0.0085 0.0082,0.01326 0.0028,0.03151 -0.01171,0.04057 -0.01466,0.0091 -0.02665,0.04355 -0.02665,0.07665 0,0.06551 -0.207425,0.265985 -0.360517,0.348429 -0.07658,0.04124 -0.09034,0.04217 -0.114026,0.0076 -0.02083,-0.03034 -0.02314,-0.02587 -0.01038,0.01972 0.01024,0.03635 0.0049,0.05898 -0.01326,0.05898 -0.04468,0 -0.103604,0.06753 -0.133306,0.152739 -0.01452,0.04161 -0.05821,0.0921 -0.09721,0.112186 -0.03892,0.02009 -0.0937,0.05717 -0.12165,0.0824 -0.02798,0.02523 -0.06698,0.04588 -0.0867,0.04588 -0.01978,0 -0.08717,0.02864 -0.149865,0.06363 -0.0627,0.035 -0.122877,0.05564 -0.133755,0.04588 -0.01087,-0.0098 -0.01136,-0.0032 -7.02e-4,0.01471 0.01999,0.03472 -0.185101,0.180287 -0.292058,0.207324 -0.03247,0.0082 -0.05898,0.02542 -0.05898,0.03828 0,0.01285 -0.02202,0.02337 -0.04888,0.02337 -0.02686,0 -0.07702,0.0219 -0.11141,0.04867 -0.08723,0.06792 -0.306205,0.161033 -0.378697,0.161033 -0.03324,0 -0.09263,0.01223 -0.131897,0.02715 -0.06565,0.02495 -0.160126,0.04327 -0.5218,0.101165 -0.269047,0.04307 -0.507297,0.175308 -0.510285,0.283235 -7.01e-4,0.02831 -0.104369,0.224238 -0.171257,0.323928 -0.02855,0.04256 -0.156016,0.129706 -0.18912,0.129306 -0.01129,-1.29e-4 -0.07366,-0.03193 -0.138546,-0.07064 z"
       id="path17-2" />
    <path
       style="fill:#c06722;fill-opacity:1;stroke-width:0.0271397"
       d="m 32.708649,16.511623 c 0.143843,-0.08584 0.189765,-0.128272 0.236703,-0.218752 0.04154,-0.08012 0.04488,-0.124442 0.0076,-0.101383 -0.01496,0.0092 -0.02716,-0.0084 -0.02716,-0.03911 0,-0.03073 -0.0122,-0.05588 -0.02716,-0.05588 -0.01496,0 -0.02418,-0.0091 -0.02055,-0.02035 0.0058,-0.01884 -0.106962,-0.220362 -0.140881,-0.251042 -0.0083,-0.0075 -0.03819,-0.05916 -0.06651,-0.114877 -0.04255,-0.08362 -0.04858,-0.135907 -0.03478,-0.299467 0.0092,-0.108988 0.03834,-0.240486 0.06477,-0.292221 0.07887,-0.154551 0.122472,-0.375357 0.135115,-0.68435 0.0065,-0.160464 0.02251,-0.291752 0.03544,-0.291752 0.02977,0 0.0557,-0.211945 0.06644,-0.542797 0.0044,-0.141805 0.0175,-0.321667 0.02876,-0.399693 0.01547,-0.107536 0.0081,-0.181361 -0.0305,-0.305089 -0.02796,-0.08977 -0.06005,-0.163332 -0.07124,-0.16346 -0.01118,-1.34e-4 -0.02033,-0.105453 -0.02033,-0.234062 0,-0.233638 -0.05584,-0.471113 -0.128913,-0.548377 -0.01866,-0.01973 -0.03391,-0.0284 -0.03391,-0.01929 0,0.0091 -0.01648,0.0012 -0.0366,-0.01761 -0.02012,-0.0188 -0.03093,-0.05593 -0.02396,-0.08249 0.0073,-0.02656 -7.26e-4,-0.0483 -0.01765,-0.0483 -0.0167,0 -0.03028,-0.02137 -0.03021,-0.0475 1.38e-4,-0.04961 -0.08449,-0.308903 -0.108515,-0.332463 -0.0076,-0.0075 -0.03115,-0.04716 -0.05228,-0.08821 -0.02113,-0.04105 -0.05446,-0.07463 -0.07397,-0.07463 -0.01953,0 -0.057,-0.03358 -0.08326,-0.07463 -0.06869,-0.107374 -0.10689,-0.142581 -0.13099,-0.120837 -0.01162,0.01049 -0.01336,-0.0025 -0.0036,-0.02891 0.01808,-0.05038 -0.01525,-0.10275 -0.164815,-0.259015 -0.06935,-0.07248 -0.102663,-0.08875 -0.154771,-0.07567 -0.05047,0.01266 -0.08299,-0.0012 -0.135514,-0.05789 -0.03805,-0.04101 -0.06913,-0.08435 -0.06913,-0.09632 0,-0.04579 -0.105488,-0.13316 -0.137148,-0.113594 -0.02055,0.0127 -0.02825,0.0068 -0.02069,-0.01578 0.02418,-0.0725 -0.0798,-0.134388 -0.225753,-0.134388 -0.109322,0 -0.151823,-0.01316 -0.197142,-0.06106 -0.06071,-0.06415 -0.20842,-0.183134 -0.351856,-0.2834038 -0.09432,-0.06593 -0.183252,-0.07738 -0.264305,-0.034 -0.05591,0.02991 -0.06332,0.02729 -0.316572,-0.111452 -0.101944,-0.05585 -0.126554,-0.05956 -0.205479,-0.03102 -0.112626,0.04072 -0.20794,0.0417 -0.20794,0.0021 0,-0.01696 -0.02396,-0.02405 -0.05432,-0.0161 -0.02985,0.0078 -0.04858,0.0049 -0.04154,-0.0065 0.01743,-0.02817 -0.10848,-0.08286 -0.190738,-0.08286 -0.03682,0 -0.08958,0.01414 -0.117259,0.03142 -0.03021,0.01884 -0.07073,0.0225 -0.101406,0.0091 -0.0281,-0.01226 -0.05918,-0.02335 -0.06898,-0.02464 -0.0099,-0.0012 -0.08172,-0.05425 -0.159709,-0.117687 -0.195661,-0.159161 -0.225128,-0.153902 -0.339149,0.06055 -0.04727,0.08886 -0.0759,0.194177 -0.08618,0.316869 -0.01104,0.1319808 -0.03093,0.2004458 -0.07051,0.2429538 -0.0427,0.04586 -0.05787,0.107001 -0.06746,0.271643 -0.01017,0.176122 -0.02084,0.215168 -0.0623,0.228322 -0.05867,0.01864 -0.102533,0.151493 -0.125087,0.379131 -0.01213,0.122531 -0.03195,0.177635 -0.07993,0.222607 -0.05729,0.05365 -0.06376,0.08337 -0.06376,0.290152 0,0.126711 0.0122,0.237929 0.02716,0.247155 0.04124,0.0255 0.03239,0.179895 -0.01322,0.230305 -0.04444,0.04909 -0.07174,0.266393 -0.03623,0.288332 0.01227,0.0076 0.02229,0.04116 0.02229,0.07461 0,0.03345 0.01038,0.07243 0.02302,0.0866 0.01271,0.01419 0.04422,0.0805 0.07015,0.147376 0.03986,0.103049 0.04197,0.136984 0.0138,0.22249 -0.03943,0.119557 -0.01677,0.190952 0.14117,0.44399 0.07764,0.124407 0.101306,0.189751 0.09829,0.271398 -0.0036,0.08879 0.01895,0.139309 0.127541,0.289735 0.07232,0.100207 0.141846,0.175818 0.154459,0.168022 0.01263,-0.0078 0.02295,0.0062 0.02295,0.03104 0,0.02971 0.01445,0.03968 0.04212,0.02905 0.02316,-0.0089 0.03522,-0.0049 0.02672,0.0088 -0.0085,0.01372 -0.0029,0.03263 0.01213,0.042 0.01518,0.0094 0.02759,0.04509 0.02759,0.07936 0,0.06783 0.214759,0.275389 0.373263,0.360748 0.07929,0.0427 0.09354,0.04366 0.118058,0.0079 0.02157,-0.03141 0.02396,-0.02678 0.01075,0.02042 -0.0106,0.03764 -0.0051,0.06106 0.01372,0.06106 0.04626,0 0.107267,0.06991 0.138019,0.158139 0.01503,0.04308 0.06027,0.09535 0.100645,0.116153 0.0403,0.0208 0.09701,0.05919 0.12595,0.08531 0.02897,0.02612 0.06935,0.0475 0.08977,0.0475 0.02048,0 0.09025,0.02965 0.155164,0.06588 0.06492,0.03623 0.127221,0.05761 0.138484,0.0475 0.01126,-0.01012 0.01176,-0.0033 7.26e-4,0.01524 -0.02069,0.03594 0.191646,0.186661 0.302384,0.214654 0.03362,0.0085 0.06107,0.02632 0.06107,0.03963 0,0.0133 0.0228,0.02419 0.05061,0.02419 0.02781,0 0.07975,0.02268 0.115349,0.05039 0.09032,0.07032 0.31703,0.166726 0.392085,0.166726 0.03442,0 0.0959,0.01266 0.13656,0.02811 0.06797,0.02583 0.165787,0.0448 0.540248,0.104742 0.278559,0.04459 0.525232,0.181505 0.528326,0.293248 7.26e-4,0.02931 0.108058,0.232166 0.177311,0.33538 0.02955,0.04406 0.161532,0.134292 0.195806,0.133878 0.01169,-1.34e-4 0.07627,-0.03305 0.143444,-0.07313 z"
       id="path18-6" />
    <path
       style="fill:#c06722;fill-opacity:1;stroke-width:0.0271397"
       d="m 32.466647,57.583821 c 0.143843,-0.08584 0.189765,-0.128272 0.236703,-0.218752 0.04154,-0.08012 0.04488,-0.124442 0.0076,-0.101383 -0.01496,0.0092 -0.02716,-0.0084 -0.02716,-0.03911 0,-0.03073 -0.0122,-0.05588 -0.02716,-0.05588 -0.01496,0 -0.02418,-0.0091 -0.02055,-0.02035 0.0058,-0.01884 -0.106962,-0.220362 -0.140881,-0.251042 -0.0083,-0.0075 -0.03819,-0.05916 -0.06651,-0.114877 -0.04255,-0.08362 -0.04858,-0.135907 -0.03478,-0.299467 0.0092,-0.108988 0.03834,-0.240486 0.06477,-0.292221 0.07887,-0.154551 0.122472,-0.375357 0.135115,-0.68435 0.0065,-0.160464 0.02251,-0.291752 0.03544,-0.291752 0.02977,0 0.0557,-0.211945 0.06644,-0.542797 0.0044,-0.141805 0.0175,-0.321667 0.02876,-0.399693 0.01547,-0.107536 0.0081,-0.181361 -0.0305,-0.305088 -0.02796,-0.08977 -0.06005,-0.163332 -0.07124,-0.16346 -0.01118,-1.34e-4 -0.02033,-0.105453 -0.02033,-0.234062 0,-0.233638 -0.05584,-0.471113 -0.128913,-0.548377 -0.01866,-0.01973 -0.03391,-0.0284 -0.03391,-0.01929 0,0.0091 -0.01648,0.0012 -0.0366,-0.01761 -0.02012,-0.0188 -0.03093,-0.05593 -0.02396,-0.08249 0.0073,-0.02656 -7.26e-4,-0.0483 -0.01765,-0.0483 -0.0167,0 -0.03028,-0.02137 -0.03021,-0.0475 1.38e-4,-0.04961 -0.08449,-0.308903 -0.108515,-0.332463 -0.0076,-0.0075 -0.03115,-0.04716 -0.05228,-0.08821 -0.02113,-0.04105 -0.05446,-0.07463 -0.07397,-0.07463 -0.01953,0 -0.057,-0.03358 -0.08326,-0.07463 -0.06869,-0.107375 -0.10689,-0.142582 -0.13099,-0.120837 -0.01162,0.01049 -0.01336,-0.0025 -0.0036,-0.02891 0.01808,-0.05038 -0.01525,-0.102751 -0.164815,-0.259015 -0.06935,-0.07248 -0.102663,-0.08875 -0.154771,-0.07567 -0.05047,0.01266 -0.08299,-0.0012 -0.135514,-0.05789 -0.03805,-0.04101 -0.06913,-0.08435 -0.06913,-0.09632 0,-0.04579 -0.105488,-0.133161 -0.137148,-0.113595 -0.02055,0.0127 -0.02825,0.0068 -0.02069,-0.01578 0.02418,-0.0725 -0.0798,-0.134388 -0.225753,-0.134388 -0.109322,0 -0.151823,-0.01316 -0.197142,-0.06106 -0.06071,-0.06415 -0.20842,-0.183133 -0.351856,-0.283404 -0.09432,-0.06593 -0.183252,-0.07738 -0.264305,-0.034 -0.05591,0.02991 -0.06332,0.02729 -0.316572,-0.111452 -0.101944,-0.05585 -0.126554,-0.05956 -0.205479,-0.03102 -0.112626,0.04072 -0.20794,0.0417 -0.20794,0.0021 0,-0.01696 -0.02396,-0.02405 -0.05432,-0.0161 -0.02985,0.0078 -0.04858,0.0049 -0.04154,-0.0065 0.01743,-0.02817 -0.10848,-0.08286 -0.190738,-0.08286 -0.03682,0 -0.08958,0.01414 -0.117259,0.03142 -0.03021,0.01884 -0.07073,0.0225 -0.101406,0.0091 -0.0281,-0.01226 -0.05918,-0.02335 -0.06898,-0.02464 -0.0099,-0.0012 -0.08172,-0.05425 -0.159709,-0.117687 -0.195661,-0.15916 -0.225128,-0.153901 -0.339149,0.06055 -0.04727,0.08886 -0.0759,0.194177 -0.08618,0.31687 -0.01104,0.13198 -0.03093,0.200445 -0.07051,0.242954 -0.0427,0.04586 -0.05787,0.107 -0.06746,0.271643 -0.01017,0.176122 -0.02084,0.215168 -0.0623,0.228322 -0.05867,0.01864 -0.102533,0.151492 -0.125087,0.37913 -0.01213,0.122531 -0.03195,0.177636 -0.07993,0.222608 -0.05729,0.05365 -0.06376,0.08337 -0.06376,0.290151 0,0.126711 0.0122,0.23793 0.02716,0.247156 0.04124,0.0255 0.03239,0.179895 -0.01322,0.230305 -0.04444,0.04909 -0.07174,0.266393 -0.03623,0.288332 0.01227,0.0076 0.02229,0.04116 0.02229,0.07461 0,0.03345 0.01038,0.07243 0.02302,0.0866 0.01271,0.01419 0.04422,0.0805 0.07015,0.147376 0.03986,0.103049 0.04197,0.136984 0.0138,0.22249 -0.03943,0.119557 -0.01677,0.190951 0.14117,0.443989 0.07764,0.124407 0.101306,0.189751 0.09829,0.271398 -0.0036,0.08879 0.01895,0.139309 0.127541,0.289735 0.07232,0.100207 0.141846,0.175818 0.154459,0.168022 0.01263,-0.0078 0.02295,0.0062 0.02295,0.03104 0,0.02971 0.01445,0.03968 0.04212,0.02905 0.02316,-0.0089 0.03522,-0.0049 0.02672,0.0088 -0.0085,0.01372 -0.0029,0.03263 0.01213,0.042 0.01518,0.0094 0.02759,0.04509 0.02759,0.07936 0,0.06783 0.214759,0.275389 0.373263,0.360748 0.07929,0.0427 0.09354,0.04366 0.118058,0.0079 0.02157,-0.03141 0.02396,-0.02678 0.01075,0.02042 -0.0106,0.03764 -0.0051,0.06106 0.01372,0.06106 0.04626,0 0.107267,0.06991 0.138019,0.158139 0.01503,0.04308 0.06027,0.09535 0.100645,0.116153 0.0403,0.0208 0.09701,0.05919 0.12595,0.08531 0.02897,0.02612 0.06935,0.0475 0.08977,0.0475 0.02048,0 0.09025,0.02965 0.155164,0.06588 0.06492,0.03623 0.127221,0.05761 0.138484,0.0475 0.01126,-0.01012 0.01176,-0.0033 7.26e-4,0.01524 -0.02069,0.03594 0.191646,0.186661 0.302384,0.214654 0.03362,0.0085 0.06107,0.02632 0.06107,0.03963 0,0.0133 0.0228,0.02419 0.05061,0.02419 0.02781,0 0.07975,0.02268 0.115349,0.05039 0.09032,0.07032 0.31703,0.166726 0.392085,0.166726 0.03442,0 0.0959,0.01266 0.13656,0.02811 0.06797,0.02583 0.165787,0.0448 0.540248,0.104742 0.278559,0.04459 0.525232,0.181505 0.528326,0.293248 7.26e-4,0.02931 0.108058,0.232166 0.177311,0.33538 0.02955,0.04406 0.161532,0.134292 0.195806,0.133878 0.01169,-1.34e-4 0.07627,-0.03305 0.143444,-0.07313 z"
       id="path20-2" />
    <ellipse
       style="fill:#fed993;fill-opacity:1;stroke:#313131;stroke-width:0.7;stroke-linecap:round;stroke-linejoin:round;stroke-dasharray:none;stroke-opacity:1;paint-order:normal"
       id="path25"
       cx="30.173529"
       cy="29.531368"
       rx="14.097461"
       ry="13.323648" />
    <path
       style="fill:#69392b;fill-opacity:1;stroke:#351d16;stroke-width:0.7;stroke-linecap:butt;stroke-linejoin:miter;stroke-dasharray:none;stroke-opacity:1"
       d="m 15.0206,37.891856 c 1.676655,0.606114 3.516516,3.686078 3.326116,6.097953 -0.07838,0.478359 1.30734,-1.990979 1.340057,-2.48857 0.09534,-1.450035 -2.550438,-4.907387 -3.708311,-4.648582 -0.397247,0.580982 -1.306848,0.251571 -0.957862,1.039199 z"
       id="path53"
       sodipodi:nodetypes="ccscc"
       inkscape:transform-center-x="3.9002759"
       inkscape:transform-center-y="-8.9992865" />
    <path
       style="fill:#d5a982;fill-opacity:1;stroke:#313131;stroke-width:0.7;stroke-linecap:butt;stroke-linejoin:miter;stroke-dasharray:none;stroke-opacity:1"
       d="m 20.960406,40.033923 c 0,0 -2.09142,1.710977 -2.79224,2.837921 -0.50484,0.811794 -0.84138,1.757636 -0.94401,2.708077 -0.0846,0.783587 -0.14355,1.68507 0.28373,2.347342 0.34749,0.538601 1.01674,1.128081 1.64418,0.997104 1.59418,-0.332779 2.81508,-3.993068 2.81508,-3.993068 l -0.82831,2.840672 c -0.309752,0.740486 -0.75062,3.869895 -0.23544,4.955633 -0.15247,0.548608 -0.75038,1.158706 -0.49843,1.855794 0.21501,0.594869 1.12211,1.323371 2.65294,1.362697 2.73146,0.07017 4.4025,-1.263115 4.4025,-1.263115 l 5.0169,0.0054 c 1.38212,1.28649 3.10028,1.20074 4.74702,1.242635 1.63253,0.04153 2.43609,-0.861982 2.7154,-1.938438 0.0757,-0.291905 -0.46226,-0.372394 -0.46226,-0.372394 l -4.80356,-7.062968 1.545114,-2.268183 c 0,0 -0.520934,1.454151 -0.203674,2.161312 0.28253,0.629745 0.93043,1.210867 1.60912,1.336491 1.08078,0.200051 2.57594,-0.517266 3.35624,-1.291371 0.61204,-0.60718 0.7984,-1.635221 0.69532,-2.491162 -0.13612,-1.130294 -1.07953,-2.00603 -1.67297,-2.977585 -0.31553,-0.516567 -1.00241,-1.514189 -1.00241,-1.514189 0,0 -0.43837,-2.000169 -0.72656,-1.357643 -0.28819,0.642525 -7.42118,1.60324 -8.21303,1.604282 -0.79185,0.001 -8.08943,-0.37032 -8.08943,-0.37032 z"
       id="path23"
       sodipodi:nodetypes="csssscccssccsscccssssscsscc" />
    <path
       style="fill:#69392b;fill-opacity:1;stroke:#351d16;stroke-width:0.7;stroke-linecap:butt;stroke-linejoin:miter;stroke-dasharray:none;stroke-opacity:1"
       d="m 19.003548,49.245692 c 0,0 0.370885,0.991509 0.354399,1.649936 -0.04137,1.652319 0.633676,3.533223 0.375223,5.240713 -0.07838,0.478359 1.634637,0.433289 1.667354,-0.0643 0.09534,-1.450035 -0.450181,-6.4787 -0.812231,-7.696221"
       id="path52"
       sodipodi:nodetypes="cscsc" />
    <path
       style="fill:#9f755d;fill-opacity:1;stroke:#241c1c;stroke-width:0.7;stroke-linecap:butt;stroke-linejoin:miter;stroke-dasharray:none;stroke-opacity:1"
       d="m 39.609676,27.15507 c 0.58484,-1.704783 1.15704,-3.454158 -0.4299,-5.495744 -2.34413,-0.487906 -3.32261,0.368152 -5.23655,1.584645 0,0 3.02958,1.531749 3.10942,1.664597 0.0798,0.132849 2.55703,2.246502 2.55703,2.246502 z"
       id="path39"
       sodipodi:nodetypes="ccccc" />
    <path
       style="fill:#9f755d;fill-opacity:1;stroke:#241c1c;stroke-width:0.7;stroke-linecap:butt;stroke-linejoin:miter;stroke-dasharray:none;stroke-opacity:1"
       d="m 20.545563,27.578727 c -0.58484,-1.704783 -1.361617,-3.877815 0.225323,-5.919401 2.34413,-0.487906 3.72603,0.88693 5.63997,2.103423 0,0 -3.433,1.012971 -3.51284,1.145819 -0.0798,0.132849 -2.352453,2.670159 -2.352453,2.670159 z"
       id="path38"
       sodipodi:nodetypes="ccccc" />
    <path
       style="fill:#69392b;fill-opacity:1;stroke:none;stroke-width:1px;stroke-linecap:butt;stroke-linejoin:miter;stroke-opacity:1"
       d="m 21.535646,25.934691 c -0.41575,-0.837076 -0.52701,-1.777134 0.0365,-2.613302 0.5476,-0.433898 0.93757,-0.49201 2.60634,0.578916 z"
       id="path40"
       sodipodi:nodetypes="cccc" />
    <path
       style="fill:#69392b;fill-opacity:1;stroke:none;stroke-width:1px;stroke-linecap:butt;stroke-linejoin:miter;stroke-opacity:1"
       d="m 38.510086,25.934691 c 0.41575,-0.837076 0.52701,-1.777134 -0.0365,-2.613302 -0.5476,-0.433898 -0.93757,-0.49201 -2.60634,0.578916 z"
       id="path41"
       sodipodi:nodetypes="cccc" />
    <path
       id="path22"
       style="fill:#d5a982;fill-opacity:1;stroke:#313131;stroke-width:0.7;stroke-linecap:round;stroke-linejoin:round;stroke-dasharray:none;stroke-opacity:1;paint-order:normal"
       d="m 40.871516,32.4102 c -0.38241,6.917688 -4.86161,7.592817 -10.90414,7.629938 -8.45295,0.05193 -10.51808,-1.765426 -10.79636,-7.567385 -0.27837,-5.803962 4.95736,-9.666006 11,-9.666007 6.04264,1e-6 11.0385,3.489131 10.7005,9.603454 z"
       sodipodi:nodetypes="sssss" />
    <ellipse
       style="fill:#dfbfa8;fill-opacity:1;stroke:none;stroke-width:0.479271;stroke-linecap:round;stroke-linejoin:round;stroke-dasharray:none;paint-order:stroke fill markers"
       id="path24"
       cx="29.537722"
       cy="46.998459"
       rx="7.4456782"
       ry="6.603364" />
    <path
       style="fill:none;stroke:#000000;stroke-width:0.5;stroke-linecap:round;stroke-linejoin:miter;stroke-dasharray:none;stroke-opacity:1"
       d="m 29.233266,50.365794 c 0.36246,0.583726 1.07655,0.553756 1.57153,-0.125167"
       id="path26"
       sodipodi:nodetypes="cc" />
    <path
       style="fill:none;stroke:#313131;stroke-width:0.5;stroke-linecap:round;stroke-linejoin:miter;stroke-dasharray:none;stroke-opacity:1"
       d="m 16.742316,33.578918 1.40467,-0.435793"
       id="path27"
       sodipodi:nodetypes="cc" />
    <path
       style="fill:none;stroke:#313131;stroke-width:0.5;stroke-linecap:round;stroke-linejoin:miter;stroke-dasharray:none;stroke-opacity:1"
       d="m 16.208696,27.848547 1.98449,0.197907"
       id="path28"
       sodipodi:nodetypes="cc" />
    <path
       style="fill:none;stroke:#313131;stroke-width:0.5;stroke-linecap:round;stroke-linejoin:miter;stroke-dasharray:none;stroke-opacity:1"
       d="m 17.161036,24.529833 1.16354,0.740303"
       id="path29"
       sodipodi:nodetypes="cc" />
    <path
       style="fill:none;stroke:#313131;stroke-width:0.5;stroke-linecap:round;stroke-linejoin:miter;stroke-dasharray:none;stroke-opacity:1"
       d="m 23.999276,17.849486 0.6729,1.696492"
       id="path30"
       sodipodi:nodetypes="cc" />
    <path
       style="fill:none;stroke:#313131;stroke-width:0.5;stroke-linecap:round;stroke-linejoin:miter;stroke-dasharray:none;stroke-opacity:1"
       d="m 30.436136,16.231143 -0.0544,1.503554"
       id="path31"
       sodipodi:nodetypes="cc" />
    <path
       style="fill:none;stroke:#313131;stroke-width:0.5;stroke-linecap:round;stroke-linejoin:miter;stroke-dasharray:none;stroke-opacity:1"
       d="m 32.148256,16.457722 -0.13471,2.526434"
       id="path32"
       sodipodi:nodetypes="cc" />
    <path
       style="fill:none;stroke:#313131;stroke-width:0.5;stroke-linecap:round;stroke-linejoin:miter;stroke-dasharray:none;stroke-opacity:1"
       d="m 38.372636,19.093195 -0.91185,1.30761"
       id="path33"
       sodipodi:nodetypes="cc" />
    <path
       style="fill:none;stroke:#313131;stroke-width:0.5;stroke-linecap:round;stroke-linejoin:miter;stroke-dasharray:none;stroke-opacity:1"
       d="m 43.798976,28.726137 -1.44029,0.2159"
       id="path34"
       sodipodi:nodetypes="cc" />
    <path
       style="color:#000000;fill:#cac6bb;fill-opacity:1;stroke:#313131;stroke-linecap:round;stroke-opacity:1;-inkscape-stroke:none;paint-order:stroke fill markers"
       d="m 38.558176,38.404518 a 0.5,0.5 0 0 0 -0.37695,0.07031 c -5.33637,3.488293 -10.89066,3.777473 -17.01172,-0.0059 a 0.5,0.5 0 0 0 -0.6875,0.162109 0.5,0.5 0 0 0 0.16211,0.6875 c 6.37708,3.941571 12.49545,3.64727 18.08398,-0.0059 a 0.5,0.5 0 0 0 0.14453,-0.691406 0.5,0.5 0 0 0 -0.31445,-0.216797 z"
       id="path35" />
    <path
       style="color:#000000;fill:#cac6bb;fill-opacity:1;stroke:#313131;stroke-linecap:round;stroke-opacity:1;-inkscape-stroke:none;paint-order:stroke fill markers"
       d="m 29.050366,40.988503 a 0.5,0.5 0 0 0 -0.28321,0.255859 c -0.21942,0.459128 -0.56673,1.056326 -0.85937,1.673828 -0.29265,0.617502 -0.55171,1.252535 -0.5293,1.902344 a 0.5,0.5 0 0 0 0.51758,0.482422 0.5,0.5 0 0 0 0.48242,-0.517578 c -0.0112,-0.324624 0.16555,-0.871904 0.4336,-1.4375 0.26804,-0.565597 0.60927,-1.152645 0.85742,-1.671875 a 0.5,0.5 0 0 0 -0.23633,-0.666016 0.5,0.5 0 0 0 -0.38281,-0.02148 z"
       id="path36" />
    <path
       style="color:#000000;fill:#cac6bb;fill-opacity:1;stroke:#313131;stroke-linecap:round;stroke-opacity:1;-inkscape-stroke:none;paint-order:stroke fill markers"
       d="m 29.726146,41.009987 a 0.5,0.5 0 0 0 -0.23633,0.666016 c 0.24815,0.51923 0.58938,1.106278 0.85742,1.671875 0.26805,0.565596 0.44479,1.112876 0.4336,1.4375 a 0.5,0.5 0 0 0 0.48242,0.517578 0.5,0.5 0 0 0 0.51562,-0.482422 c 0.0224,-0.649809 -0.2347,-1.284842 -0.52734,-1.902344 -0.29265,-0.617502 -0.63995,-1.2147 -0.85938,-1.673828 a 0.5,0.5 0 0 0 -0.66601,-0.234375 z"
       id="path37" />
    <path
       style="fill:#93bb4b;fill-opacity:1;stroke:#82a03e;stroke-width:0.5;stroke-linecap:butt;stroke-linejoin:miter;stroke-dasharray:none;stroke-opacity:1"
       d="m 27.395856,20.886412 c -0.43347,0.449735 -0.81167,1.509467 -0.8088,1.673736 0.003,0.164268 0.14484,1.34466 0.59205,1.912193 0.52217,0.66265 1.36323,1.145185 2.1933,1.391287 1.65142,0.489619 4.25856,-0.285249 4.10155,-0.367366 l -1.57321,-3.521821 c 0,0 -0.91307,-1.205663 -1.57107,-1.517171 -0.51942,-0.245901 -1.61442,-0.23473 -1.71241,-0.200156 -0.098,0.03457 -0.92612,0.322927 -1.22141,0.629298 z"
       id="path42"
       sodipodi:nodetypes="scssccsss" />
    <path
       style="fill:none;stroke:#82a03e;stroke-width:0.5;stroke-linecap:round;stroke-linejoin:miter;stroke-dasharray:none;stroke-opacity:1"
       d="m 26.864376,19.203039 c 0.86641,2.199111 2.22287,4.229998 4.97666,5.536765"
       id="path43"
       sodipodi:nodetypes="cc" />
    <path
       style="fill:#9f755d;fill-opacity:1;stroke:none;stroke-width:0.117247px;stroke-linecap:butt;stroke-linejoin:miter;stroke-opacity:1"
       d="m 29.694656,27.832586 c -1.62413,0.02633 -3.30491,0.196374 -4.80271,0.824926 -1.36206,0.571584 -2.77109,1.365081 -3.59485,2.591187 -0.62789,0.934573 -1.00504,2.177656 -0.79277,3.283371 0.14093,0.734137 0.66306,1.432627 1.29616,1.830113 0.63835,0.400775 1.3932,0.326002 2.14001,0.224208 1.11162,-0.151517 1.98778,-1.060908 3.04846,-1.426417 0.96179,-0.331428 1.95701,-0.67301 2.97424,-0.684022 0.9904,-0.01072 1.96818,0.295074 2.90952,0.603117 1.02527,0.335518 1.89029,1.113509 2.94423,1.343612 0.73826,0.161179 1.50497,0.429708 2.18131,0.0927 0.63471,-0.316261 1.23489,-0.96377 1.45359,-1.63834 0.22404,-0.691043 0.14724,-1.476599 -0.038,-2.179026 -0.19225,-0.728903 -0.56789,-1.434123 -1.08092,-1.986446 -0.89814,-0.966935 -2.09127,-1.684825 -3.32874,-2.143384 -1.67541,-0.620836 -3.52299,-0.764575 -5.30949,-0.735604 z"
       id="path44"
       sodipodi:nodetypes="ssssssssssssssss" />
    <ellipse
       style="fill:#dfbfa8;fill-opacity:1;stroke:#313131;stroke-width:0.7;stroke-linecap:round;stroke-linejoin:round;stroke-dasharray:none;stroke-opacity:1;paint-order:stroke fill markers"
       id="path45"
       ry="1.9424057"
       rx="2.3973329"
       cy="35.171906"
       cx="30.051641" />
    <ellipse
       style="fill:#000000;fill-opacity:1;stroke:none;stroke-width:0.0586238;stroke-linecap:round;stroke-linejoin:round;stroke-dasharray:none;paint-order:stroke fill markers"
       id="path46"
       cx="29.938757"
       cy="34.323795"
       rx="1.1689563"
       ry="0.78608078" />
    <circle
       style="fill:#ffffff;fill-opacity:1;stroke:none;stroke-width:0.0586238;stroke-linecap:round;stroke-linejoin:round;stroke-dasharray:none;paint-order:stroke fill markers"
       id="path47"
       cx="24.856741"
       cy="33.451366"
       r="2.0974095" />
    <circle
       style="fill:#000000;fill-opacity:1;stroke:none;stroke-width:0.0699699;stroke-linecap:round;stroke-linejoin:round;stroke-dasharray:none;paint-order:stroke fill markers"
       id="path48"
       cx="24.856741"
       cy="33.520374"
       r="1.1496855" />
    <circle
       style="fill:#ffffff;fill-opacity:1;stroke:none;stroke-width:0.0586238;stroke-linecap:round;stroke-linejoin:round;stroke-dasharray:none;paint-order:stroke fill markers"
       id="circle48"
       cx="35.038952"
       cy="33.451366"
       r="2.0974095" />
    <circle
       style="fill:#000000;fill-opacity:1;stroke:none;stroke-width:0.0699699;stroke-linecap:round;stroke-linejoin:round;stroke-dasharray:none;paint-order:stroke fill markers"
       id="circle50"
       cx="35.038952"
       cy="33.520374"
       r="1.1496855" />
    <path
       style="fill:#bfd4d7;fill-opacity:1;stroke:#313131;stroke-width:0.7;stroke-linecap:butt;stroke-linejoin:miter;stroke-dasharray:none;stroke-opacity:1"
       d="m 34.881296,43.973995 c -0.08644,0.373319 0.814761,4.075693 0.814761,4.075693 0,0 -1.883718,3.822023 -0.953349,5.291702 0.804338,1.270591 2.640061,1.858488 4.11746,1.578039 1.257304,-0.238669 2.408709,-1.276462 2.978679,-2.422285 0.525029,-1.055477 0.67341,-2.491263 0.124212,-3.534368 -0.484353,-0.919943 -2.604601,-1.441778 -2.604601,-1.441778 l -1.604566,-0.06495 -1.281124,-2.83593 -0.483275,-1.06052 z"
       id="path50"
       sodipodi:nodetypes="ccssssccccc" />
    <path
       style="fill:#d5a982;fill-opacity:1;stroke:#313131;stroke-width:0.7;stroke-linecap:butt;stroke-linejoin:miter;stroke-dasharray:none;stroke-opacity:1"
       d="m 36.376209,44.454241 c 0.676979,0.654231 -0.256629,1.271189 -0.198316,1.979271 0.07702,0.935244 0.636369,1.3861 1.533922,1.271342 l 2.488853,-0.503535"
       id="path51"
       sodipodi:nodetypes="cscc" />
    <text
       xml:space="preserve"
       style="font-size:6.50037px;line-height:1.25;font-family:Meiryo;-inkscape-font-specification:Meiryo;fill:#313131;fill-opacity:1;stroke-width:0.0677121"
       x="6.1353879"
       y="65.181206"
       id="text51"
       transform="rotate(-28.51121)"><tspan
         sodipodi:role="line"
         id="tspan51"
         x="6.1353879"
         y="65.181206"
         style="font-style:normal;font-variant:normal;font-weight:normal;font-stretch:normal;font-family:TW-MOE-Li;-inkscape-font-specification:TW-MOE-Li;fill:#313131;fill-opacity:1;stroke-width:0.0677121">酒</tspan></text>
  </g>
</svg>
