<svg height="92" width="92" xmlns="http://www.w3.org/2000/svg" xmlns:xlink="http://www.w3.org/1999/xlink"><filter id="a" color-interpolation-filters="sRGB"><feFlood flood-opacity=".498039" result="flood"/><feComposite in="flood" in2="SourceGraphic" operator="in" result="composite1"/><feGaussianBlur in="composite1" result="blur" stdDeviation="1"/><feOffset dx="0" dy="4" result="offset"/><feComposite in="SourceGraphic" in2="offset" operator="over" result="composite2"/></filter><linearGradient id="b" gradientUnits="userSpaceOnUse" spreadMethod="pad" x1="324.01596" x2="330.45486" y1="636.04993" y2="604.45496"><stop offset="0" stop-color="#e5e6e9"/><stop offset="1" stop-color="#f8fbfd"/></linearGradient><filter id="c" color-interpolation-filters="sRGB"><feFlood flood-color="#d3d6dd" flood-opacity=".498039" result="flood"/><feComposite in="flood" in2="SourceGraphic" operator="in" result="composite1"/><feGaussianBlur in="composite1" result="blur" stdDeviation=".5"/><feOffset dx="0" dy="1" result="offset"/><feComposite in="SourceGraphic" in2="offset" operator="over" result="composite2"/></filter><filter id="d" color-interpolation-filters="sRGB"><feFlood flood-opacity=".498039" result="flood"/><feComposite in="flood" in2="SourceGraphic" operator="in" result="composite1"/><feGaussianBlur in="composite1" result="blur" stdDeviation="1"/><feOffset dx="1.9" dy="4" result="offset"/><feComposite in="SourceGraphic" in2="offset" operator="over" result="composite2"/></filter><filter id="e" color-interpolation-filters="sRGB"><feFlood flood-opacity=".498039" result="flood"/><feComposite in="flood" in2="SourceGraphic" operator="out" result="composite1"/><feGaussianBlur in="composite1" result="blur" stdDeviation="1"/><feOffset dx="0" dy=".8" result="offset"/><feComposite in="offset" in2="SourceGraphic" operator="atop" result="composite2"/></filter><g transform="matrix(.92134831 0 0 .92134831 3.617978 3.617978)"><g transform="translate(-.3712 2.656982)"><path d="m289.651 594.574 20.122-20.123h28.459l20.127 20.123v28.463l-.064.065-20.063 20.058h-28.377-.082l-20.122-20.123z" fill="url(#b)" filter="url(#d)" stroke="#f6f9fb" stroke-opacity=".996078" stroke-width="2.439709" transform="matrix(1.0406257 0 0 1.0106842 -290.86517 -573.58171)"/><g fill="#b9abab" filter="url(#a)" transform="matrix(.89519543 0 0 .89519543 5.119685 4.835619)"><path d="m358.295 623.102.004.003v6.309l.043.043-19.881 19.877h-.229v-6.088-.086z" fill="#877a7a" fill-opacity=".968627" transform="matrix(1.2582555 -.01787195 .0164438 1.147024 -373.7306 -650.44484)"/><path d="m309.867 649.406h-.012v-.144-6.016-.086h28.377v.086 6.088.072h-.056z" fill="#9a8d8d" transform="matrix(1.1666454 0 0 1.1368627 -332.02449 -649.97198)"/><path d="m309.727 649.262-20.076-20.076v-6.149l20.122 20.123h.082v.086 6.016z" fill="#b9abab" transform="matrix(1.2329472 0 0 1.1618787 -352.46822 -666.04755)"/></g><g fill="none"><path d="m358.359 594.574v28.463l-.064.065-20.063 20.058h-28.377-.082l-20.122-20.123v-28.463l20.122-20.123h28.459z" transform="matrix(1.0401085 0 0 1.0401085 -290.69762 -590.4668)"/><path d="m289.651 623.037v6.149.156" transform="matrix(1.0401085 0 0 1.0401085 -290.69762 -590.4668)"/><path d="m309.855 643.246v6.016.144.143" transform="matrix(1.0401085 0 0 1.0401085 -290.69762 -590.4668)"/><path d="m338.232 643.246v6.088.072.143" transform="matrix(1.0401085 0 0 1.0401085 -290.69762 -590.4668)"/><path d="m81.972214 57.629997v6.562065"/><path d="m289.589 629.125.062.061 20.076 20.076" transform="matrix(1.0401085 0 0 1.0401085 -290.69762 -590.4668)"/><path d="m338.461 649.334 19.881-19.877.068-.072" transform="matrix(1.0401085 0 0 1.0401085 -290.69762 -590.4668)"/><path d="m31.597679 84.985924h29.444424"/><path d="m7.9303813 25.454918 21.7132037-21.225766 32.194805.073223 22.584524 21.225766" filter="url(#c)" stroke="#dadde2" transform="matrix(.89519543 0 0 .89519543 5.119685 4.835619)"/><path d="m12.449098 27.299429-.223799 28.310556" stroke="#e6e6e6" stroke-width=".895195"/><path d="m80.548535 27.417774-.223799 28.310556" stroke="#e6e6e6" stroke-width=".895195"/></g></g><path d="m24.996087 63.50964c-1.133573-2.736694-.664709-4.247677 2.565085-8.266403l1.777741-2.211959-1.766275-1.880102c-4.843821-5.955417 3.408681-10.344231 7.656139-8.775347 3.862888-.539505 3.977702-2.634044.07157-4.295567-9.516651-1.440165 6.638657-4.6377 9.19152-2.790625 1.287262.688919 1.56094 1.537191 1.360868 4.217881l-.250441 3.355534 3.918399.574618c6.288657 1.115447 12.404932 4.55754 15.80688 9.768482 9.851538 15.48258-34.258097 20.957291-40.331485 10.303488zm27.969516-1.71775c19.681939-6.677256-.675766-16.100453-10.885703-14.738258-2.567279.342523-4.073217 1.786703-4.63029 3.637292 1.250259 1.150484 6.20722.908492 9.157406 1.886832 7.30714 4.315483-5.607535 8.579351-10.213466 5.465131-.980786-.715316 1.964899.496561 3.296771-2.232249-1.598067-3.201679-5.178678-3.111666-6.386948-1.581589-2.115786 2.649257-2.169697 4.592859.787554 6.660135 2.158187 1.508691 3.675816 1.817991 8.920205 1.817991 3.475753 0 7.955266-.411875 9.954471-.915281zm-18.27024-15.432174c.478082-1.564425-1.331989-1.107612-2.761204-1.074057-2.98712.940828-2.648707 3.237111.445262 3.62178.282194.03508 1.603177-1.459902 2.315942-2.547723zm16.167136-10.942633c.0041-.322189 1.486209-1.206752 3.292642-1.965696 2.662677-1.118676 3.23472-1.730509 3.021772-3.231986-.237626-1.675557-.74676-1.87509-5.341567-2.093396-6.061632-.287993-13.308157 1.431159-19.884367 4.717326-2.632698 1.315574-5.274045 2.391952-5.86966 2.391952-2.214881 0-.954557-3.05404 3.349844-8.117486 3.013114-3.544438 4.436383-5.92609 4.443987-7.43645-.44374-2.773732.107111-2.571573 2.713958-2.221991 2.498787.335091 5.377204 1.941527 5.377204 3.655395 0 .385088-.973385 1.716162-2.163095 2.957937-1.189689 1.241777-1.92999 2.490863-1.645099 2.775746.284881.284887 2.985365-.108864 6.001065-.875006 3.015709-.76614 8.210096-1.565847 11.543068-1.77713 5.157919-.326964 6.454914-.134632 8.713097 1.29206 3.115107 1.968077 3.960412 3.662383 2.628105 5.267707-1.575275 1.898088-16.201302 6.1112-16.180954 4.661018z" fill="#17921b" filter="url(#e)" stroke="#11911c" stroke-width="1.025543"/></g></svg>