<?xml version="1.0" encoding="UTF-8" standalone="no"?>
<svg
   xmlns:dc="http://purl.org/dc/elements/1.1/"
   xmlns:cc="http://creativecommons.org/ns#"
   xmlns:rdf="http://www.w3.org/1999/02/22-rdf-syntax-ns#"
   xmlns:svg="http://www.w3.org/2000/svg"
   xmlns="http://www.w3.org/2000/svg"
   xmlns:xlink="http://www.w3.org/1999/xlink"
   xmlns:sodipodi="http://sodipodi.sourceforge.net/DTD/sodipodi-0.dtd"
   xmlns:inkscape="http://www.inkscape.org/namespaces/inkscape"
   sodipodi:docname="blue_pawn.svg"
   inkscape:version="1.0 (4035a4fb49, 2020-05-01)"
   version="1.1"
   id="svg2"
   height="92"
   width="92">
  <metadata
     id="metadata12">
    <rdf:RDF>
      <cc:Work
         rdf:about="">
        <dc:format>image/svg+xml</dc:format>
        <dc:type
           rdf:resource="http://purl.org/dc/dcmitype/StillImage" />
        <dc:title></dc:title>
      </cc:Work>
    </rdf:RDF>
  </metadata>
  <defs
     id="defs10">
    <filter
       color-interpolation-filters="sRGB"
       id="f1"
       x="0"
       y="0"
       width="1.5"
       height="1.5">
      <feOffset
         result="offOut"
         in="SourceAlpha"
         dx="1"
         dy="0"
         id="feOffset3039" />
      <feGaussianBlur
         result="blurOut"
         in="offOut"
         stdDeviation="1"
         id="feGaussianBlur3041" />
      <!--
      <feBlend in="SourceGraphic" in2="blurOut" mode="normal" />
-->
    </filter>
    <linearGradient
       id="grad1"
       x1="0"
       y1="0"
       x2="0"
       y2="1">
      <stop
         offset="20%"
         style="stop-color:rgb(255,255,255);stop-opacity:0.6"
         id="stop3034" />
      <stop
         offset="50%"
         style="stop-color:rgb(220,0,0);stop-opacity:0.5"
         id="stop3036" />
    </linearGradient>
    <linearGradient
       id="grad0"
       x1="0"
       y1="0"
       x2="0"
       y2="1">
      <stop
         offset="20%"
         style="stop-color:rgb(0,0,0);stop-opacity:0.3"
         id="stop3029" />
      <stop
         offset="100%"
         style="stop-color:rgb(0,0,0);stop-opacity:0.6"
         id="stop3031" />
    </linearGradient>
    <inkscape:path-effect
       oposite_fuse="false"
       fuse_paths="true"
       discard_orig_path="false"
       mode="free"
       is_visible="true"
       id="path-effect4557-0-4"
       center_point="273.85776,413.92646"
       end_point="273.50284,477.30227"
       start_point="274.21267,350.55066"
       effect="mirror_symmetry" />
    <filter
       id="filter18479"
       inkscape:label="Drop Shadow"
       style="color-interpolation-filters:sRGB;">
      <feFlood
         id="feFlood18469"
         result="flood"
         flood-color="rgb(91,93,90)"
         flood-opacity="1" />
      <feComposite
         id="feComposite18471"
         result="composite1"
         operator="in"
         in2="SourceGraphic"
         in="flood" />
      <feGaussianBlur
         id="feGaussianBlur18473"
         result="blur"
         stdDeviation="0"
         in="composite1" />
      <feOffset
         id="feOffset18475"
         result="offset"
         dy="4"
         dx="0" />
      <feComposite
         id="feComposite18477"
         result="composite2"
         operator="over"
         in2="offset"
         in="SourceGraphic" />
    </filter>
    <filter
       id="filter18479-1"
       inkscape:label="Drop Shadow"
       style="color-interpolation-filters:sRGB">
      <feFlood
         id="feFlood18469-6"
         result="flood"
         flood-color="rgb(91,93,90)"
         flood-opacity="1" />
      <feComposite
         id="feComposite18471-2"
         result="composite1"
         operator="in"
         in2="SourceGraphic"
         in="flood" />
      <feGaussianBlur
         id="feGaussianBlur18473-4"
         result="blur"
         stdDeviation="0"
         in="composite1" />
      <feOffset
         id="feOffset18475-8"
         result="offset"
         dy="4"
         dx="0" />
      <feComposite
         id="feComposite18477-8"
         result="composite2"
         operator="over"
         in2="offset"
         in="SourceGraphic" />
    </filter>
    <linearGradient
       spreadMethod="pad"
       gradientUnits="userSpaceOnUse"
       y2="604.45496"
       x2="330.45486"
       y1="636.04993"
       x1="324.01596"
       id="linearGradient3673"
       xlink:href="#linearGradient3671"
       inkscape:collect="always" />
    <linearGradient
       id="linearGradient3671"
       inkscape:collect="always">
      <stop
         id="stop3667"
         offset="0"
         style="stop-color:#e5e6e9;stop-opacity:1" />
      <stop
         id="stop3669"
         offset="1"
         style="stop-color:#f8fbfd;stop-opacity:1" />
    </linearGradient>
    <filter
       id="filter4473"
       inkscape:label="Drop Shadow"
       style="color-interpolation-filters:sRGB">
      <feFlood
         id="feFlood4463"
         result="flood"
         flood-color="rgb(0,0,0)"
         flood-opacity="0.498039" />
      <feComposite
         id="feComposite4465"
         result="composite1"
         operator="in"
         in2="SourceGraphic"
         in="flood" />
      <feGaussianBlur
         id="feGaussianBlur4467"
         result="blur"
         stdDeviation="1"
         in="composite1" />
      <feOffset
         id="feOffset4469"
         result="offset"
         dy="4"
         dx="1.9" />
      <feComposite
         id="feComposite4471"
         result="composite2"
         operator="over"
         in2="offset"
         in="SourceGraphic" />
    </filter>
    <filter
       id="filter3592"
       inkscape:label="Drop Shadow"
       style="color-interpolation-filters:sRGB">
      <feFlood
         id="feFlood3582"
         result="flood"
         flood-color="rgb(0,0,0)"
         flood-opacity="0.498039" />
      <feComposite
         id="feComposite3584"
         result="composite1"
         operator="in"
         in2="SourceGraphic"
         in="flood" />
      <feGaussianBlur
         id="feGaussianBlur3586"
         result="blur"
         stdDeviation="1"
         in="composite1" />
      <feOffset
         id="feOffset3588"
         result="offset"
         dy="4"
         dx="-1.38778e-16" />
      <feComposite
         id="feComposite3590"
         result="composite2"
         operator="over"
         in2="offset"
         in="SourceGraphic" />
    </filter>
    <filter
       id="filter3858"
       inkscape:label="Drop Shadow"
       style="color-interpolation-filters:sRGB">
      <feFlood
         id="feFlood3848"
         result="flood"
         flood-color="rgb(211,214,221)"
         flood-opacity="0.498039" />
      <feComposite
         id="feComposite3850"
         result="composite1"
         operator="in"
         in2="SourceGraphic"
         in="flood" />
      <feGaussianBlur
         id="feGaussianBlur3852"
         result="blur"
         stdDeviation="0.5"
         in="composite1" />
      <feOffset
         id="feOffset3854"
         result="offset"
         dy="1"
         dx="-1.38778e-16" />
      <feComposite
         id="feComposite3856"
         result="composite2"
         operator="over"
         in2="offset"
         in="SourceGraphic" />
    </filter>
    <filter
       id="filter16926"
       inkscape:label="Drop Shadow"
       style="color-interpolation-filters:sRGB;">
      <feFlood
         id="feFlood16916"
         result="flood"
         flood-color="rgb(0,0,0)"
         flood-opacity="0.498039" />
      <feComposite
         id="feComposite16918"
         result="composite1"
         operator="out"
         in2="SourceGraphic"
         in="flood" />
      <feGaussianBlur
         id="feGaussianBlur16920"
         result="blur"
         stdDeviation="1"
         in="composite1" />
      <feOffset
         id="feOffset16922"
         result="offset"
         dy="1.2"
         dx="-6.38378e-16" />
      <feComposite
         id="feComposite16924"
         result="composite2"
         operator="atop"
         in2="SourceGraphic"
         in="offset" />
    </filter>
    <filter
       id="filter5784"
       inkscape:label="Drop Shadow"
       style="color-interpolation-filters:sRGB">
      <feFlood
         id="feFlood5774"
         result="flood"
         flood-color="rgb(0,0,0)"
         flood-opacity="0.498039" />
      <feComposite
         id="feComposite5776"
         result="composite1"
         operator="out"
         in2="SourceGraphic"
         in="flood" />
      <feGaussianBlur
         id="feGaussianBlur5778"
         result="blur"
         stdDeviation="2"
         in="composite1" />
      <feOffset
         id="feOffset5780"
         result="offset"
         dy="-2.41474e-15"
         dx="-6.38378e-16" />
      <feComposite
         id="feComposite5782"
         result="composite2"
         operator="atop"
         in2="SourceGraphic"
         in="offset" />
    </filter>
    <filter
       id="filter3750"
       inkscape:label="Drop Shadow"
       style="color-interpolation-filters:sRGB;">
      <feFlood
         id="feFlood3740"
         result="flood"
         flood-color="rgb(0,0,0)"
         flood-opacity="0.498039" />
      <feComposite
         id="feComposite3742"
         result="composite1"
         operator="out"
         in2="SourceGraphic"
         in="flood" />
      <feGaussianBlur
         id="feGaussianBlur3744"
         result="blur"
         stdDeviation="1"
         in="composite1" />
      <feOffset
         id="feOffset3746"
         result="offset"
         dy="0.8"
         dx="-6.38378e-16" />
      <feComposite
         id="feComposite3748"
         result="composite2"
         operator="atop"
         in2="SourceGraphic"
         in="offset" />
    </filter>
  </defs>
  <sodipodi:namedview
     inkscape:document-rotation="0"
     showguides="false"
     inkscape:pagecheckerboard="true"
     fit-margin-bottom="0"
     fit-margin-right="0"
     fit-margin-left="0"
     fit-margin-top="0"
     inkscape:current-layer="layer1"
     inkscape:window-maximized="0"
     inkscape:window-y="46"
     inkscape:window-x="0"
     inkscape:cy="44.132915"
     inkscape:cx="33.743796"
     inkscape:zoom="7.4167644"
     showgrid="false"
     id="namedview8"
     inkscape:window-height="720"
     inkscape:window-width="1362"
     inkscape:pageshadow="2"
     inkscape:pageopacity="0"
     guidetolerance="10"
     gridtolerance="10"
     objecttolerance="10"
     borderopacity="1"
     bordercolor="#666666"
     pagecolor="#ffffff" />
  <g
     style="display:inline"
     inkscape:label="Background"
     id="layer1"
     inkscape:groupmode="layer">
    <g
       transform="matrix(0.89230769,0,0,0.89230769,4.9538463,4.9538459)"
       id="g30064">
      <g
         style="display:inline"
         id="g7021"
         transform="matrix(0.73033708,0,0,0.73033708,12.133393,14.344987)">
        <polygon
           transform="matrix(1.0406257,0,0,1.0106842,-290.86517,-573.58171)"
           style="fill:url(#linearGradient3673);fill-opacity:1;stroke:#f6f9fb;stroke-width:2.43970871;stroke-opacity:0.99607843;filter:url(#filter4473)"
           points="358.359,623.037 358.295,623.102 338.232,643.16 309.855,643.16 309.773,643.16 289.651,623.037 289.651,594.574 309.773,574.451 338.232,574.451 358.359,594.574 "
           id="polygon3242" />
        <g
           transform="matrix(0.89519543,0,0,0.89519543,5.1196852,4.8356187)"
           style="fill:#b9abab;fill-opacity:1"
           id="g2351">
          <g
             style="filter:url(#filter3592)"
             id="g2776">
            <polygon
               style="fill:#877a7a;fill-opacity:0.96862745;stroke:none"
               points="338.461,649.334 338.232,649.334 338.232,643.246 338.232,643.16 358.295,623.102 358.299,623.105 358.299,629.414 358.342,629.457 "
               id="polygon3244"
               transform="matrix(1.2582555,-0.01787195,0.0164438,1.147024,-373.7306,-650.44484)" />
            <polygon
               transform="matrix(1.1666454,0,0,1.1368627,-332.02449,-649.97198)"
               style="fill:#9a8d8d;fill-opacity:1;stroke:none"
               points="309.855,643.16 338.232,643.16 338.232,643.246 338.232,649.334 338.232,649.406 338.176,649.406 309.867,649.406 309.855,649.406 309.855,649.262 309.855,643.246 "
               id="polygon3246" />
            <polygon
               style="fill:#b9abab;fill-opacity:1;stroke:none"
               points="289.651,623.037 309.773,643.16 309.855,643.16 309.855,643.246 309.855,649.262 309.727,649.262 289.651,629.186 "
               id="polygon3248"
               transform="matrix(1.2329472,0,0,1.1618787,-352.46822,-666.04755)" />
          </g>
        </g>
        <polygon
           transform="matrix(1.0401085,0,0,1.0401085,-290.69762,-590.4668)"
           style="fill:none;stroke:none;stroke-width:0.25"
           points="309.855,643.16 309.773,643.16 289.651,623.037 289.651,594.574 309.773,574.451 338.232,574.451 358.359,594.574 358.359,623.037 358.295,623.102 338.232,643.16 "
           id="polygon3252" />
        <polyline
           transform="matrix(1.0401085,0,0,1.0401085,-290.69762,-590.4668)"
           style="fill:none;stroke:none;stroke-width:0.25"
           points="289.651,623.037 289.651,629.186 289.651,629.342    "
           id="polyline3254" />
        <polyline
           transform="matrix(1.0401085,0,0,1.0401085,-290.69762,-590.4668)"
           style="fill:none;stroke:none;stroke-width:0.25"
           points="309.855,643.246 309.855,649.262 309.855,649.406      309.855,649.549    "
           id="polyline3256" />
        <polyline
           transform="matrix(1.0401085,0,0,1.0401085,-290.69762,-590.4668)"
           style="fill:none;stroke:none;stroke-width:0.25"
           points="338.232,643.246 338.232,649.334 338.232,649.406      338.232,649.549    "
           id="polyline3258" />
        <line
           style="fill:none;stroke:none;stroke-width:0.26002711;stroke-miterlimit:4;stroke-dasharray:none"
           x1="81.972214"
           y1="57.629997"
           x2="81.972214"
           y2="64.192062"
           id="line3260" />
        <polyline
           transform="matrix(1.0401085,0,0,1.0401085,-290.69762,-590.4668)"
           style="fill:none;stroke:none;stroke-width:0.25;stroke-miterlimit:4;stroke-dasharray:none"
           points="289.589,629.125 289.651,629.186 309.727,649.262    "
           id="polyline3262" />
        <polyline
           transform="matrix(1.0401085,0,0,1.0401085,-290.69762,-590.4668)"
           style="fill:none;stroke:none;stroke-width:0.25;stroke-miterlimit:4;stroke-dasharray:none"
           points="338.461,649.334 358.342,629.457 358.41,629.385    "
           id="polyline3264" />
        <line
           style="fill:none;stroke:none;stroke-width:0.26002711;stroke-miterlimit:4;stroke-dasharray:none"
           x1="31.597679"
           y1="84.985924"
           x2="61.042103"
           y2="84.985924"
           id="line3266" />
        <path
           transform="matrix(0.89519543,0,0,0.89519543,5.1196852,4.8356187)"
           sodipodi:nodetypes="cccc"
           inkscape:connector-curvature="0"
           id="path3703-3"
           d="M 7.9303813,25.454918 29.643585,4.229152 61.83839,4.302375 84.422914,25.528141"
           style="display:inline;fill:none;fill-opacity:0;fill-rule:evenodd;stroke:#dadde2;stroke-width:1px;stroke-linecap:butt;stroke-linejoin:miter;stroke-opacity:1;filter:url(#filter3858)" />
        <path
           inkscape:connector-curvature="0"
           id="path4475"
           d="M 12.449098,27.299429 12.225299,55.609985"
           style="fill:none;fill-rule:evenodd;stroke:#e6e6e6;stroke-width:0.89519542px;stroke-linecap:butt;stroke-linejoin:miter;stroke-opacity:1" />
        <path
           inkscape:connector-curvature="0"
           id="path4475-2"
           d="M 80.548535,27.417774 80.324736,55.72833"
           style="display:inline;fill:none;fill-rule:evenodd;stroke:#e6e6e6;stroke-width:0.89519542px;stroke-linecap:butt;stroke-linejoin:miter;stroke-opacity:1" />
      </g>
      <path
         style="fill:#17921b;fill-opacity:1;stroke-width:0.63999999;filter:url(#filter3750)"
         d="m 44.459245,60.517151 c -0.23467,-0.234666 -0.42667,-2.144587 -0.42667,-4.244268 v -3.817601 c -3.920581,1.143232 -7.421037,3.436921 -10.81536,0.133866 -0.961189,-0.936402 -0.929803,-4.640694 1.27485,-1.597503 2.915607,1.177591 5.397747,-0.390595 9.22051,-0.607829 l 0.20055,-2.08 c 0.1103,-1.144 0.0749,-2.08 -0.0786,-2.08 -3.562744,3.264935 -8.311018,4.147745 -8.257832,1.473606 1.125336,-8.106073 10.47795,-8.873028 8.455932,-8.343825 0,-1.07717 -1.368884,-1.259224 -4.14243,0.184125 -3.282386,2.180846 -5.451513,-0.01967 -6.186362,-2.623535 4.433154,0.204528 9.002403,-0.251539 13.780482,-1.338071 3.532393,-1.782436 8.712814,-1.656751 7.260214,1.34656 -0.40486,0.837065 -1.020018,1.400018 0.08361,1.717755 1.38559,0.531701 1.584699,3.297966 0.08449,4.234863 -1.72248,1.075708 -1.61203,1.711786 0.4613,2.656459 3.225408,0.756685 0.09226,2.055882 -1.4213,3.223605 l 1.63768,0.01423 c 1.82348,0.01585 4.36554,1.58434 3.67954,2.270342 -0.24242,0.242421 -2.90597,0.594563 -5.91899,0.78254 l -5.47823,0.341771 v 2.967381 c 0,3.770927 -1.95048,6.848377 -3.41333,5.385524 z m 6.50805,-12.755629 c 1.38726,-0.971674 1.40224,-1.064393 0.30241,-1.872459 -1.09157,-0.801997 -1.05015,-0.962142 0.73112,-2.826593 1.77333,-1.856134 1.82238,-2.042307 0.80589,-3.058794 -1.01649,-1.016488 -1.21906,-0.949875 -3.32825,1.094435 -1.88278,1.824856 -2.24589,2.62214 -2.24589,4.931254 0,3.091645 1.07918,3.592169 3.73472,1.732157 z m -8.17265,-2.840221 c 1.30933,-0.700728 1.71168,-2.537482 0.55586,-2.537482 -1.3016,0 -3.15793,1.32998 -3.15793,2.262517 0,1.102284 0.88205,1.195493 2.60207,0.274965 z m 6.62559,-6.125955 c 1.55807,-0.597889 1.19983,-1.531527 -0.58766,-1.531527 -1.55383,0 -2.04348,0.623186 -1.17333,1.493333 0.51946,0.519464 0.50749,0.519204 1.76099,0.0382 z m -6.633677,-5.820849 c -1.455745,-1.664702 -1.98947,-1.876343 0.659964,-1.86253 4.487811,0.580727 2.834068,6.407507 -0.659964,1.86253 z"
         id="path3726"
         inkscape:connector-curvature="0"
         sodipodi:nodetypes="cscccccccccccscscccsccsccsscscsscssccscccccc"
         transform="matrix(1.4245085,0,0,1.4245085,-18.955357,-20.099425)" />
    </g>
  </g>
  <g
     style="display:inline"
     inkscape:label="Symbol"
     id="layer2"
     inkscape:groupmode="layer" />
</svg>
