<svg height="92" width="92" xmlns="http://www.w3.org/2000/svg" xmlns:xlink="http://www.w3.org/1999/xlink"><filter id="a" color-interpolation-filters="sRGB"><feFlood flood-opacity=".498039" result="flood"/><feComposite in="flood" in2="SourceGraphic" operator="in" result="composite1"/><feGaussianBlur in="composite1" result="blur" stdDeviation="1"/><feOffset dx="0" dy="4" result="offset"/><feComposite in="SourceGraphic" in2="offset" operator="over" result="composite2"/></filter><linearGradient id="b" gradientUnits="userSpaceOnUse" spreadMethod="pad" x1="324.01596" x2="330.45486" y1="636.04993" y2="604.45496"><stop offset="0" stop-color="#e5e6e9"/><stop offset="1" stop-color="#f8fbfd"/></linearGradient><filter id="c" color-interpolation-filters="sRGB"><feFlood flood-color="#d3d6dd" flood-opacity=".498039" result="flood"/><feComposite in="flood" in2="SourceGraphic" operator="in" result="composite1"/><feGaussianBlur in="composite1" result="blur" stdDeviation=".5"/><feOffset dx="0" dy="1" result="offset"/><feComposite in="SourceGraphic" in2="offset" operator="over" result="composite2"/></filter><filter id="d" color-interpolation-filters="sRGB"><feFlood flood-opacity=".498039" result="flood"/><feComposite in="flood" in2="SourceGraphic" operator="in" result="composite1"/><feGaussianBlur in="composite1" result="blur" stdDeviation="1"/><feOffset dx="1.9" dy="4" result="offset"/><feComposite in="SourceGraphic" in2="offset" operator="over" result="composite2"/></filter><filter id="e" color-interpolation-filters="sRGB"><feFlood flood-opacity=".498039" result="flood"/><feComposite in="flood" in2="SourceGraphic" operator="out" result="composite1"/><feGaussianBlur in="composite1" result="blur" stdDeviation="1"/><feOffset dx="0" dy=".8" result="offset"/><feComposite in="offset" in2="SourceGraphic" operator="atop" result="composite2"/></filter><g transform="matrix(.92134831 0 0 .92134831 3.617978 3.617978)"><g transform="translate(-.3712 2.656982)"><path d="m289.651 594.574 20.122-20.123h28.459l20.127 20.123v28.463l-.064.065-20.063 20.058h-28.377-.082l-20.122-20.123z" fill="url(#b)" filter="url(#d)" stroke="#f6f9fb" stroke-opacity=".996078" stroke-width="2.439709" transform="matrix(1.0406257 0 0 1.0106842 -290.86517 -573.58171)"/><g fill="#b9abab" filter="url(#a)" transform="matrix(.89519543 0 0 .89519543 5.119685 4.835619)"><path d="m358.295 623.102.004.003v6.309l.043.043-19.881 19.877h-.229v-6.088-.086z" fill="#877a7a" fill-opacity=".968627" transform="matrix(1.2582555 -.01787195 .0164438 1.147024 -373.7306 -650.44484)"/><path d="m309.867 649.406h-.012v-.144-6.016-.086h28.377v.086 6.088.072h-.056z" fill="#9a8d8d" transform="matrix(1.1666454 0 0 1.1368627 -332.02449 -649.97198)"/><path d="m309.727 649.262-20.076-20.076v-6.149l20.122 20.123h.082v.086 6.016z" fill="#b9abab" transform="matrix(1.2329472 0 0 1.1618787 -352.46822 -666.04755)"/></g><g fill="none"><path d="m358.359 594.574v28.463l-.064.065-20.063 20.058h-28.377-.082l-20.122-20.123v-28.463l20.122-20.123h28.459z" transform="matrix(1.0401085 0 0 1.0401085 -290.69762 -590.4668)"/><path d="m289.651 623.037v6.149.156" transform="matrix(1.0401085 0 0 1.0401085 -290.69762 -590.4668)"/><path d="m309.855 643.246v6.016.144.143" transform="matrix(1.0401085 0 0 1.0401085 -290.69762 -590.4668)"/><path d="m338.232 643.246v6.088.072.143" transform="matrix(1.0401085 0 0 1.0401085 -290.69762 -590.4668)"/><path d="m81.972214 57.629997v6.562065"/><path d="m289.589 629.125.062.061 20.076 20.076" transform="matrix(1.0401085 0 0 1.0401085 -290.69762 -590.4668)"/><path d="m338.461 649.334 19.881-19.877.068-.072" transform="matrix(1.0401085 0 0 1.0401085 -290.69762 -590.4668)"/><path d="m31.597679 84.985924h29.444424"/><path d="m7.9303813 25.454918 21.7132037-21.225766 32.194805.073223 22.584524 21.225766" filter="url(#c)" stroke="#dadde2" transform="matrix(.89519543 0 0 .89519543 5.119685 4.835619)"/><path d="m12.449098 27.299429-.223799 28.310556" stroke="#e6e6e6" stroke-width=".895195"/><path d="m80.548535 27.417774-.223799 28.310556" stroke="#e6e6e6" stroke-width=".895195"/></g></g><path d="m32.632979 63.565022c-1.349319 1.009176-4.165765-.147368-4.781276-.896937-.735465-.89565-.834045-.787887.699636-.797824 1.266738-.0082 2.155784.313099 2.142391-1.29769-4.910666-16.414848 17.510665-11.960564 9.416271.06117 1.501228 5.082554 18.303727.820194 14.073418-7.829694-1.137269-2.781119-6.252773-3.732186-10.709847-3.732186-4.121894-.0051-4.401709-1.399778-1.965556-3.762034 2.230558-2.137009 3.143318-7.72852 1.507922-7.72852-.394454 0-2.59457.606326-4.88915 1.347391-3.783192 1.65693-3.713959.923726-6.481624-1.758797-1.780017-2.058487-4.060545-3.310091-.798357-4.182535 1.122893-.300309 6.188256-.451126 11.904532-.767268 8.787501-.233006 9.7923-1.916947 11.82582 1.611602 1.829007 2.791416 1.278716 5.022632-2.301337 6.518473-1.579087.659785-2.871067 1.526307-2.871067 1.925608 0 1.611307 3.23631 3.59764 5.238117 3.214972 3.449595-.25452 6.576374 3.897248 7.313948 6.644985.466843 18.176502-19.330382 18.960187-29.323841 11.429284zm5.593906-8.031213c.0014-2.980892-4.117675-3.695727-4.8041-.184648-.576884 4.397575 3.93092 6.551682 4.8041.184648zm17.969439-24.588728c-.206271-.333752.942016-1.157121 2.551751-1.829711 6.909918-2.887148-.769958-3.744101-14.609832-1.630227-15.854107 2.421524-14.862074 2.614035-16.950415.106381-3.169921-3.806403-2.353568-5.938533 3.379024-3.681539 5.569575.159234 31.935502-1.625133 32.537063-2.202014.594381-.569993 5.746415 5.228705 5.746415 6.467684 0 .664231-.455756 1.496691-1.01279 1.849912-1.405352.891147-11.181504 1.663341-11.641216.91951z" fill="#112d94" filter="url(#e)" stroke="#112d94" stroke-width="1.025543"/></g></svg>