<svg height="106.98547" width="110" xmlns="http://www.w3.org/2000/svg" xmlns:xlink="http://www.w3.org/1999/xlink"><filter id="a" color-interpolation-filters="sRGB"><feFlood flood-opacity=".498039" result="flood"/><feComposite in="flood" in2="SourceGraphic" operator="in" result="composite1"/><feGaussianBlur in="composite1" result="blur" stdDeviation="1"/><feOffset dx="0" dy="4" result="offset"/><feComposite in="SourceGraphic" in2="offset" operator="over" result="composite2"/></filter><linearGradient id="b" gradientUnits="userSpaceOnUse" spreadMethod="pad" x1="324.01596" x2="330.45486" y1="636.04993" y2="604.45496"><stop offset="0" stop-color="#e5e6e9"/><stop offset="1" stop-color="#f8fbfd"/></linearGradient><filter id="c" color-interpolation-filters="sRGB"><feFlood flood-color="#d3d6dd" flood-opacity=".498039" result="flood"/><feComposite in="flood" in2="SourceGraphic" operator="in" result="composite1"/><feGaussianBlur in="composite1" result="blur" stdDeviation=".5"/><feOffset dx="0" dy="1" result="offset"/><feComposite in="SourceGraphic" in2="offset" operator="over" result="composite2"/></filter><filter id="d" color-interpolation-filters="sRGB"><feFlood flood-opacity=".498039" result="flood"/><feComposite in="flood" in2="SourceGraphic" operator="in" result="composite1"/><feGaussianBlur in="composite1" result="blur" stdDeviation="1"/><feOffset dx="1.9" dy="4" result="offset"/><feComposite in="SourceGraphic" in2="offset" operator="over" result="composite2"/></filter><filter id="e" color-interpolation-filters="sRGB"><feFlood flood-opacity=".498039" result="flood"/><feComposite in="flood" in2="SourceGraphic" operator="out" result="composite1"/><feGaussianBlur in="composite1" result="blur" stdDeviation="1"/><feOffset dx="0" dy=".8" result="offset"/><feComposite in="offset" in2="SourceGraphic" operator="atop" result="composite2"/></filter><g transform="translate(3.628801 15.622307)"><path d="m289.651 623.037v-28.463l20.122-20.123h28.459l20.127 20.123v28.463l-.064.065-20.063 20.058h-28.377-.082z" fill="url(#b)" filter="url(#d)" stroke="#f6f9fb" stroke-opacity=".996078" stroke-width="2.439709" transform="matrix(1.2861665 0 0 1.2491602 -365.43778 -724.62078)"/><g fill="#b9abab" filter="url(#a)" transform="matrix(1.1064213 0 0 1.1064213 .386182 -9.722985)"><path d="m338.232 643.16 20.063-20.058.004.003v6.309l.043.043-19.881 19.877h-.229v-6.088z" fill="#877a7a" fill-opacity=".968627" transform="matrix(1.2582555 -.01787195 .0164438 1.147024 -373.7306 -650.44484)"/><path d="m338.176 649.406h-28.309-.012v-.144-6.016-.086h28.377v.086 6.088.072z" fill="#9a8d8d" transform="matrix(1.1666454 0 0 1.1368627 -332.02449 -649.97198)"/><path d="m309.855 649.262h-.128l-20.076-20.076v-6.149l20.122 20.123h.082v.086z" fill="#b9abab" transform="matrix(1.2329472 0 0 1.1618787 -352.46822 -666.04755)"/></g><g fill="none"><path d="m338.232 574.451 20.127 20.123v28.463l-.064.065-20.063 20.058h-28.377-.082l-20.122-20.123v-28.463l20.122-20.123z" transform="matrix(1.2855273 0 0 1.2855273 -365.23071 -745.48998)"/><path d="m289.651 623.037v6.149.156" transform="matrix(1.2855273 0 0 1.2855273 -365.23071 -745.48998)"/><path d="m309.855 643.246v6.016.144.143" transform="matrix(1.2855273 0 0 1.2855273 -365.23071 -745.48998)"/><path d="m338.232 643.246v6.088.072.143" transform="matrix(1.2855273 0 0 1.2855273 -365.23071 -745.48998)"/><path d="m95.372452 55.528488v8.11042"/><path d="m289.589 629.125.062.061 20.076 20.076" transform="matrix(1.2855273 0 0 1.2855273 -365.23071 -745.48998)"/><path d="m338.461 649.334 19.881-19.877.068-.072" transform="matrix(1.2855273 0 0 1.2855273 -365.23071 -745.48998)"/><path d="m33.11179 89.33918h36.391979"/><path d="m7.9303813 25.454918 21.7132037-21.225766 32.194805.073223 22.584524 21.225766" filter="url(#c)" stroke="#dadde2" transform="matrix(1.1064213 0 0 1.1064213 .386182 -9.722985)"/><path d="m9.4450057 18.041274-.2766053 34.990573" stroke="#e6e6e6" stroke-width="1.106421"/><path d="m93.612846 18.187544-.276605 34.990573" stroke="#e6e6e6" stroke-width="1.106421"/></g><path d="m48.971487 73.541467c0-.37508.903987-1.274278 2.008858-1.998218 3.399985-2.227756 1.188854-3.107049-7.633164-3.035455-4.323572.03509-9.59487.314466-11.713996.620841-3.192186.461513-4.289001.283344-6.395522-1.038904-1.398411-.877772-2.357911-1.894723-2.132225-2.259892.225687-.365168 1.976682-1.058353 3.891099-1.540408 3.462329-1.516011 23.039663-5.593519 22.332988-7.063112-.250645-.405553.09605-.9491.770416-1.207882 1.676268-.643246 3.052448-3.351854 2.157632-4.24667-.432471-.432471-4.096669.352296-9.381323 2.00921-10.049104 3.150726-14.408928 3.447198-16.877198 1.147656-2.524517-2.351947-2.072563-3.051878 1.973824-3.056811 2.01317-.0025 5.740905-.347805 8.283855-.767444 2.542953-.419639 8.178159-1.102392 12.522681-1.517225 4.344524-.414837 8.951143-1.29826 10.236924-1.963165 2.199556-1.137434 2.475932-1.110556 4.673925.454554l2.336132 1.663472-1.617868 1.722137c-1.353556 1.440796-2.216522 1.664615-5.282345 1.370027-2.752317-.264463-3.922249-.0415-4.700062.8957-.891163 1.073787-.753444 1.509293.987522 3.122764 2.589343 2.399724 1.940891 2.774368-6.236607 3.603238-6.690167.678114-10.252555 1.850542-10.808489 3.557219-.240593.738604 2.118808.963239 10.117175.963239 11.071596 0 13.579787.576661 15.133238 3.479301 1.389196 2.595733.383936 3.451952-4.097318 3.489845-2.200063.0186-5.387189.533531-7.082489 1.144285-3.680424 1.325918-3.467663 1.298204-3.467663.451698zm23.76713-28.549255c-1.773022-.840571-7.231723.728837-7.855625.510007 10.291341-3.73548 2.553028-5.417062-3.736357-6.412908l-4.361955-.512661-.519543 2.769405c-.285751 1.523174-.998917 3.167251-1.584815 3.653503-1.21053 1.00465-4.389582.413093-6.780772-1.261762-1.579952-1.106643-1.579722-1.108607.129887-1.108607 1.198916 0 1.712643-.462295 1.712643-1.541181 0-1.992692-3.801188-2.114097-7.001513-.223619-1.748162 1.032666-2.432592 1.115436-3.165248.38278-.732656-.732655.07405-1.915855 3.730739-5.471873 7.307579-7.106407 7.196746-9.306957-.295986-5.876671-6.284247 2.877024-7.138635 3.847314-7.138635 8.107017 0 3.802116-1.57372 6.164729-4.106282 6.164729-.958111 0-1.287857-.690566-1.287857-2.697067 0-1.483389-.339626-2.69707-.754721-2.69707-.415097 0-2.193092 1.560446-3.951101 3.467661-3.573221 3.876487-4.461214 4.143677-6.45379 1.941905-1.338429-1.478945-1.299051-1.626699 1.283583-4.816194 3.543085-4.375635 3.843351-4.939823 4.255093-7.995145.293239-2.175976.107534-2.615914-1.104237-2.615914-1.726811 0-4.656443-1.975302-3.961026-2.670718.266723-.266727 2.886441.01915 5.392928-1.026243l4.538007-1.892684c3.516017-4.046721 2.772385-8.325989-1.988387-8.96156-.679093-.818257 1.858938-1.078894 4.706754-2.338615 1.979196-.875494 3.907616-1.400785 4.285378-1.167316.377763.23347.68684 2.620904.68684 5.305412 0 5.084589.345258 6.273709 3.765474 6.418426 2.670058.112977 2.755718 2.564173-2.742032 4.275691-.63311.58136-1.924904 3.804596-.185027 2.407878.393363-.416218 6.113768-1.90241 8.283034-2.995447l4.112606-2.072239-.24768-5.361313c-.255844-5.538079-4.133798-4.28676-2.218867-5.495569 3.221537-2.033611 5.532531-3.4640376 6.393419-2.051831.494893.79245 2.103856 3.689151 2.103856 5.51735 0 4.292429.985354 5.173417 5.78627 5.173417 4.289654 0 7.052969 1.412991 6.349335 3.246658-.508108 1.324102-3.868476 2.147483-8.764272 2.147483h-3.371333v4.155807c0 4.643924.476186 5.091289 5.419227 5.091289 6.038968 0 10.567963 1.500665 13.045691 4.322641 2.537232 2.889751 2.848768 4.108501 1.416334 5.540927-2.394141 1.026865-7.143175-4.65899-3.820037-1.335779zm-21.897832-9.812495c.27115-.706611.132391-1.645354-.308355-2.086102-1.011747-1.011746-3.527371 1.288767-2.762529 2.526308.78204 1.265366 2.511529 1.017447 3.070884-.440206zm-19.959762-1.085103c.279173-.879591.285908-1.820932.01496-2.091872-.728792-.728792-3.077309.963847-3.364914 2.425185-.377613 1.918654 2.733445 1.609111 3.349947-.333313z" fill="#112d94" filter="url(#e)" stroke="#102c8f" stroke-linejoin="round" stroke-width=".944882" transform="matrix(1.1281763 0 0 1.1281763 .113152 -11.474169)"/></g></svg>