<svg height="92" width="92" xmlns="http://www.w3.org/2000/svg" xmlns:xlink="http://www.w3.org/1999/xlink"><filter id="a" color-interpolation-filters="sRGB"><feFlood flood-opacity=".498039" result="flood"/><feComposite in="flood" in2="SourceGraphic" operator="in" result="composite1"/><feGaussianBlur in="composite1" result="blur" stdDeviation="1"/><feOffset dx="0" dy="4" result="offset"/><feComposite in="SourceGraphic" in2="offset" operator="over" result="composite2"/></filter><linearGradient id="b" gradientUnits="userSpaceOnUse" spreadMethod="pad" x1="324.01596" x2="330.45486" y1="636.04993" y2="604.45496"><stop offset="0" stop-color="#e5e6e9"/><stop offset="1" stop-color="#f8fbfd"/></linearGradient><filter id="c" color-interpolation-filters="sRGB"><feFlood flood-color="#d3d6dd" flood-opacity=".498039" result="flood"/><feComposite in="flood" in2="SourceGraphic" operator="in" result="composite1"/><feGaussianBlur in="composite1" result="blur" stdDeviation=".5"/><feOffset dx="0" dy="1" result="offset"/><feComposite in="SourceGraphic" in2="offset" operator="over" result="composite2"/></filter><filter id="d" color-interpolation-filters="sRGB"><feFlood flood-opacity=".498039" result="flood"/><feComposite in="flood" in2="SourceGraphic" operator="in" result="composite1"/><feGaussianBlur in="composite1" result="blur" stdDeviation="1"/><feOffset dx="1.9" dy="4" result="offset"/><feComposite in="SourceGraphic" in2="offset" operator="over" result="composite2"/></filter><filter id="e" color-interpolation-filters="sRGB"><feFlood flood-opacity=".498039" result="flood"/><feComposite in="flood" in2="SourceGraphic" operator="out" result="composite1"/><feGaussianBlur in="composite1" result="blur" stdDeviation="1"/><feOffset dx="0" dy="1.6" result="offset"/><feComposite in="offset" in2="SourceGraphic" operator="atop" result="composite2"/></filter><g transform="matrix(.92134831 0 0 .92134831 3.617978 3.617978)"><g transform="translate(-.3712 2.656982)"><path d="m289.651 594.574 20.122-20.123h28.459l20.127 20.123v28.463l-.064.065-20.063 20.058h-28.377-.082l-20.122-20.123z" fill="url(#b)" filter="url(#d)" stroke="#f6f9fb" stroke-opacity=".996078" stroke-width="2.439709" transform="matrix(1.0406257 0 0 1.0106842 -290.86517 -573.58171)"/><g fill="#b9abab" filter="url(#a)" transform="matrix(.89519543 0 0 .89519543 5.119685 4.835619)"><path d="m358.295 623.102.004.003v6.309l.043.043-19.881 19.877h-.229v-6.088-.086z" fill="#877a7a" fill-opacity=".968627" transform="matrix(1.2582555 -.01787195 .0164438 1.147024 -373.7306 -650.44484)"/><path d="m309.867 649.406h-.012v-.144-6.016-.086h28.377v.086 6.088.072h-.056z" fill="#9a8d8d" transform="matrix(1.1666454 0 0 1.1368627 -332.02449 -649.97198)"/><path d="m309.727 649.262-20.076-20.076v-6.149l20.122 20.123h.082v.086 6.016z" fill="#b9abab" transform="matrix(1.2329472 0 0 1.1618787 -352.46822 -666.04755)"/></g><g fill="none"><path d="m358.359 594.574v28.463l-.064.065-20.063 20.058h-28.377-.082l-20.122-20.123v-28.463l20.122-20.123h28.459z" transform="matrix(1.0401085 0 0 1.0401085 -290.69762 -590.4668)"/><path d="m289.651 623.037v6.149.156" transform="matrix(1.0401085 0 0 1.0401085 -290.69762 -590.4668)"/><path d="m309.855 643.246v6.016.144.143" transform="matrix(1.0401085 0 0 1.0401085 -290.69762 -590.4668)"/><path d="m338.232 643.246v6.088.072.143" transform="matrix(1.0401085 0 0 1.0401085 -290.69762 -590.4668)"/><path d="m81.972214 57.629997v6.562065"/><path d="m289.589 629.125.062.061 20.076 20.076" transform="matrix(1.0401085 0 0 1.0401085 -290.69762 -590.4668)"/><path d="m338.461 649.334 19.881-19.877.068-.072" transform="matrix(1.0401085 0 0 1.0401085 -290.69762 -590.4668)"/><path d="m31.597679 84.985924h29.444424"/><path d="m7.9303813 25.454918 21.7132037-21.225766 32.194805.073223 22.584524 21.225766" filter="url(#c)" stroke="#dadde2" transform="matrix(.89519543 0 0 .89519543 5.119685 4.835619)"/><path d="m12.449098 27.299429-.223799 28.310556" stroke="#e6e6e6" stroke-width=".895195"/><path d="m80.548535 27.417774-.223799 28.310556" stroke="#e6e6e6" stroke-width=".895195"/></g></g><path d="m43.016847 64.916277c-13.479817-.60263-13.502174-.621421-14.004417-11.771115-.488128-10.836333.05827-11.789688 5.159775-9.002871 3.220743 1.759406 3.709127 1.817138 8.471313 1.001411 5.904744-1.01144 7.279221-1.928522 7.279221-4.856859 0-2.717848-1.065515-3.072063-5.371249-1.785594-1.899121.567419-5.100498 1.035409-7.114174 1.039978-3.166317.0072-3.779576-.251443-4.536742-1.913242-.481534-1.056849-.679777-2.117283-.440543-2.356517.239234-.239235 5.096825-.46098 10.794647-.492769 10.061765-.05613 10.433475.00016 12.925967 1.957575l2.56629 2.015371-2.10197 1.95707c-1.786927 1.663742-1.964542 2.177129-1.185042 3.425306.751682 1.203635.659637 1.752539-.51075 3.045802-1.286787 1.421884-2.320147 1.577566-10.471324 1.577566-4.974006 0-9.205325.2616-9.402931.581335-.197607.319734-.593085 1.827599-.878842 3.350808.539609 9.18228 6.414574 8.345 13.927003 8.345h9.551181l1.111829-2.66098c.611506-1.463539 1.133716-3.448983 1.160465-4.412098l.04864-1.751119.691303 1.719299c.380217.945613.912658 3.387949 1.183202 5.427413.650424 4.903135-.676812 6.338806-5.671366 6.134722-1.974482-.08068-7.906151-.339652-13.181485-.575492zm-16.881071-35.1914c0-.339239 1.237992-1.806741 2.751092-3.261116 3.315327-3.186655 5.075977-6.338131 4.450936-7.966962-.357581-.931841.08053-1.199588 1.962854-1.199588 1.807603 0 3.074213.710642 4.985936 2.797402 2.820598 3.078848 2.479326 3.050875 16.615311 1.361955 4.019417-.480227 4.456259-.36759 6.842161 1.764213 3.976515 3.553017 2.455998 5.452001-5.380792 6.720104-2.826305.457337-3.278879.377299-2.493794-.441023 1.217076-1.268601 1.247506-4.305432.04715-4.70555-.501599-.1672-2.487044-.04391-4.412098.273977-5.089549.840444-10.670782.787069-12.362341-.118228-1.176803-.629806-2.564629-.168417-6.924148 2.301963-5.854706 3.317651-6.082269 3.41017-6.082269 2.47285z" fill="#e12810" filter="url(#e)" stroke="#e12810" stroke-width=".944882" transform="matrix(1.0128361 0 0 1.0128361 -.590462 2.064729)"/></g></svg>