<svg height="92" width="92" xmlns="http://www.w3.org/2000/svg" xmlns:xlink="http://www.w3.org/1999/xlink"><filter id="a" color-interpolation-filters="sRGB"><feFlood flood-opacity=".498039" result="flood"/><feComposite in="flood" in2="SourceGraphic" operator="in" result="composite1"/><feGaussianBlur in="composite1" result="blur" stdDeviation="1"/><feOffset dx="0" dy="4" result="offset"/><feComposite in="SourceGraphic" in2="offset" operator="over" result="composite2"/></filter><linearGradient id="b" gradientUnits="userSpaceOnUse" spreadMethod="pad" x1="324.01596" x2="330.45486" y1="636.04993" y2="604.45496"><stop offset="0" stop-color="#e5e6e9"/><stop offset="1" stop-color="#f8fbfd"/></linearGradient><filter id="c" color-interpolation-filters="sRGB"><feFlood flood-color="#d3d6dd" flood-opacity=".498039" result="flood"/><feComposite in="flood" in2="SourceGraphic" operator="in" result="composite1"/><feGaussianBlur in="composite1" result="blur" stdDeviation=".5"/><feOffset dx="0" dy="1" result="offset"/><feComposite in="SourceGraphic" in2="offset" operator="over" result="composite2"/></filter><filter id="d" color-interpolation-filters="sRGB"><feFlood flood-opacity=".498039" result="flood"/><feComposite in="flood" in2="SourceGraphic" operator="in" result="composite1"/><feGaussianBlur in="composite1" result="blur" stdDeviation="1"/><feOffset dx="1.9" dy="4" result="offset"/><feComposite in="SourceGraphic" in2="offset" operator="over" result="composite2"/></filter><filter id="e" color-interpolation-filters="sRGB"><feFlood flood-opacity=".498039" result="flood"/><feComposite in="flood" in2="SourceGraphic" operator="out" result="composite1"/><feGaussianBlur in="composite1" result="blur" stdDeviation="1"/><feOffset dx="0" dy="1" result="offset"/><feComposite in="offset" in2="SourceGraphic" operator="atop" result="composite2"/></filter><g transform="matrix(.92134831 0 0 .92134831 3.617978 3.617978)"><g transform="translate(-.3712 2.656982)"><path d="m289.651 594.574 20.122-20.123h28.459l20.127 20.123v28.463l-.064.065-20.063 20.058h-28.377-.082l-20.122-20.123z" fill="url(#b)" filter="url(#d)" stroke="#f6f9fb" stroke-opacity=".996078" stroke-width="2.439709" transform="matrix(1.0406257 0 0 1.0106842 -290.86517 -573.58171)"/><g fill="#b9abab" filter="url(#a)" transform="matrix(.89519543 0 0 .89519543 5.119685 4.835619)"><path d="m358.295 623.102.004.003v6.309l.043.043-19.881 19.877h-.229v-6.088-.086z" fill="#877a7a" fill-opacity=".968627" transform="matrix(1.2582555 -.01787195 .0164438 1.147024 -373.7306 -650.44484)"/><path d="m309.867 649.406h-.012v-.144-6.016-.086h28.377v.086 6.088.072h-.056z" fill="#9a8d8d" transform="matrix(1.1666454 0 0 1.1368627 -332.02449 -649.97198)"/><path d="m309.727 649.262-20.076-20.076v-6.149l20.122 20.123h.082v.086 6.016z" fill="#b9abab" transform="matrix(1.2329472 0 0 1.1618787 -352.46822 -666.04755)"/></g><g fill="none"><path d="m358.359 594.574v28.463l-.064.065-20.063 20.058h-28.377-.082l-20.122-20.123v-28.463l20.122-20.123h28.459z" transform="matrix(1.0401085 0 0 1.0401085 -290.69762 -590.4668)"/><path d="m289.651 623.037v6.149.156" transform="matrix(1.0401085 0 0 1.0401085 -290.69762 -590.4668)"/><path d="m309.855 643.246v6.016.144.143" transform="matrix(1.0401085 0 0 1.0401085 -290.69762 -590.4668)"/><path d="m338.232 643.246v6.088.072.143" transform="matrix(1.0401085 0 0 1.0401085 -290.69762 -590.4668)"/><path d="m81.972214 57.629997v6.562065"/><path d="m289.589 629.125.062.061 20.076 20.076" transform="matrix(1.0401085 0 0 1.0401085 -290.69762 -590.4668)"/><path d="m338.461 649.334 19.881-19.877.068-.072" transform="matrix(1.0401085 0 0 1.0401085 -290.69762 -590.4668)"/><path d="m31.597679 84.985924h29.444424"/><path d="m7.9303813 25.454918 21.7132037-21.225766 32.194805.073223 22.584524 21.225766" filter="url(#c)" stroke="#dadde2" transform="matrix(.89519543 0 0 .89519543 5.119685 4.835619)"/><path d="m12.449098 27.299429-.223799 28.310556" stroke="#e6e6e6" stroke-width=".895195"/><path d="m80.548535 27.417774-.223799 28.310556" stroke="#e6e6e6" stroke-width=".895195"/></g></g><path d="m51.416037 68.770293c-.799684-.398586-2.078315-1.569923-2.841388-2.602969l-1.387417-1.878266 1.865115.468116c1.025821.257463 2.390373.669674 3.032357.916025 1.355328.520088 5.118806-3.266559 7.473238-7.519246 1.945913-3.514788 1.202127-5.67137-2.487698-7.21308-2.334861-.975567-4.147996-1.036544-12.551968-.422133-7.114721.520155-10.309173.492684-11.58668-.09964-2.340619-1.085245-2.76034-2.6339-.849311-3.133646 2.115038-.553095 2.337314-2.009131 2.070908-13.56561-.210167-9.117112-.105527-10.154213 1.110833-11.006167 1.431911-1.002948 4.156754-.674255 4.156754.501421 0 .431932 3.599509.617279 9.269062.477285 5.097984-.125881 9.677991.02822 10.177794.342434.499802.314219.908731 1.200055.908731 1.968524 0 1.577416-1.906269 2.219279-5.815882 1.958275-2.270511-.151578-2.568711.04011-2.769768 1.780448-.244278 2.114503 1.382022 3.489118 3.862609 3.264809.800183-.07236 1.505518.403344 1.652778 1.114687.205805.994215-.475164 1.338022-3.425327 1.729376-2.848896.377918-3.682203.778708-3.682203 1.770995 0 1.51722 1.4085 2.165077 4.707082 2.165077 2.550196 0 3.748597 1.431319 2.360566 2.819354-.448572.448565-2.222292.815572-3.941612.815572-2.080291 0-3.126036.316154-3.126036.945081 0 2.01639 1.657094 2.646322 5.817483 2.211475 6.865036-.717538 11.168527 2.159225 12.134452 8.111533.425411 2.621533.259613 2.871137-5.84595 8.800718-6.224368 6.044949-7.470239 6.684271-10.288522 5.279554zm-5.94415-22.258674c.661716-1.123821-.963687-3.816673-2.303736-3.816673-1.53537 0-3.281646-1.677363-2.529421-2.429591.26309-.263093 1.549524-.478349 2.858734-.478349 1.309198 0 2.52232-.245358 2.695797-.545239.747398-1.291925-.874904-3.477314-2.837434-3.822275-1.223721-.215099-2.201607-.897562-2.343756-1.635717-.199-1.033296.290397-1.266622 2.656734-1.266622 3.063039 0 3.694357-.684074 3.16877-3.433537-.350248-1.832197-2.378071-2.636225-5.693238-2.257364l-2.087049.238511-.11525 6.542868c-.06338 3.598577-.183916 6.87001-.267837 7.269852-.618086 2.944779 1.734689 6.156034 4.520348 6.169746 1.075961.0053 2.100772-.235729 2.277338-.53561zm-18.734182 13.449228c-.153292-.499802-.449595-2.135519-.658467-3.634927-.314217-2.255659-.160357-2.726195.89142-2.726195 1.406648 0 4.453285 2.538844 4.453285 3.711041 0 2.728648-3.973077 4.975436-4.686238 2.650081zm9.342317.35236c-.686649-.460551-2.022723-5.986497-1.447428-5.986497 1.298419 0 4.767001 1.804145 5.090783 2.647912.912525 2.377983-1.618145 4.696947-3.643355 3.338585zm7.50326.05271c-.486489-.848088-1.373979-6.039203-1.032489-6.039203.158369 0 1.336074.365379 2.617112.811951 2.0359.709722 2.301272 1.09873 2.10769 3.089687-.164492 1.691701-.624674 2.335196-1.788589 2.501058-.86192.122825-1.718593-.04075-1.903724-.363493zm7.750799-.768558c-.219902-.699724-.69334-2.008298-1.052084-2.907942-.548522-1.375583-.415904-1.635717.83392-1.635717 2.229857 0 4.298539 1.341791 4.298539 2.788122 0 2.700329-3.33283 4.134239-4.080375 1.755537z" fill="#e12810" filter="url(#e)" stroke="#e12810" stroke-width=".87683" transform="matrix(1.0776118 0 0 1.0776118 -4.446619 -3.308211)"/></g></svg>