<svg height="60" width="52.157" xmlns="http://www.w3.org/2000/svg" xmlns:xlink="http://www.w3.org/1999/xlink"><filter id="a" color-interpolation-filters="sRGB" height="1.103509" width="1.159564" x="-.039077" y="-.031849"><feFlood flood-opacity=".498039" result="flood"/><feComposite in="flood" in2="SourceGraphic" operator="in" result="composite1"/><feGaussianBlur in="composite1" result="blur" stdDeviation="1"/><feOffset dx="5" dy="3" result="offset"/><feComposite in="SourceGraphic" in2="offset" operator="over" result="composite2"/></filter><g filter="url(#a)" opacity=".99" transform="matrix(.6 0 0 .6 -143.5467 2.720414)"><path d="m-10.911031 7.4113606-13.007275 4.1293604-6.930693 42.754752 39.8733542.000027-6.9308349-42.755646z" fill="#d5855f" opacity="1" transform="matrix(1.54030991604 0 0 1.48636468597 299.517023433 -3.01598408262)"/><path d="m252 77.686889v5.66852l61.41733.00027v-5.66875z" fill="#a65a40" opacity="1"/></g><g fill-opacity=".992157" stroke="#000" stroke-miterlimit="10" stroke-opacity=".992157" transform="matrix(.22182004 -.04193896 .0351199 .18575317 -243.95352 18.780462)"><path d="m1211.7284 289.16648-90.6893 35.05433s-8.0242 8.93392-2.8931 21.42532l.063.30499.063.30498c4.9395 12.5585 16.4998 12.34665 16.4998 12.34665 37.098-28.13428 64.2438-37.31827 85.1189-49.18751-.192-4.06467-1.8458-7.47907-2.8249-11.1936-1.3824-3.19489-2.9322-6.31529-5.3374-9.05516z" stroke-width="2.6533"/><ellipse cx="1017.132" cy="677.90155" rx="3.753881" ry="3.661743" stroke-width="3.0061" transform="matrix(.95110508 -.30886749 .22204229 .97503704 0 0)"/></g><g stroke-linecap="square"><path d="m29.006067 32.498788 1.082691 3.562103-9.248229.932143c-3.96495 5.494152-4.656546 5.652805-9.475716 5.197669 4.502084-1.396929 6.203734-6.917536 8.812167-10.758439z" fill-opacity=".992157" stroke="#000" stroke-opacity=".992157" stroke-width=".41167"/><circle cx="-29.981808" cy="34.038223" fill="#020101" r="5.967979" stroke="#d5855f" stroke-linejoin="bevel" stroke-opacity=".992157" stroke-width=".401383" transform="matrix(-.99608337 -.08841903 -.08841903 .99608337 0 0)"/><circle cx="26.854767" cy="36.531197" fill="#d5855f" fill-opacity=".992157" r="3.902505" stroke="#d5855f" stroke-opacity=".992157" stroke-width=".414511"/><path d="m7.339709 40.624981h.581897v8.305261h-.581897z" fill="#020101" stroke="#020101" stroke-width=".443888" transform="matrix(-.69542717 .71859658 .71859658 .69542717 0 0)"/><path d="m-45.102028 3.413354h.581897v8.305261h-.581897z" fill="#020101" stroke="#020101" stroke-width=".443887" transform="matrix(-.71936187 -.69463552 -.69463552 .71936187 0 0)"/><path d="m36.445404 22.641134h.581897v8.305263h-.581897z" fill="#020101" stroke="#020101" stroke-width=".443887" transform="matrix(.00278301 .99999613 .99999613 -.00278301 0 0)"/><path d="m-27.003132 32.498947h.581897v8.305261h-.581897z" fill="#020101" stroke="#020101" stroke-width=".443887" transform="matrix(-.99999246 .00388405 .00388405 .99999246 0 0)"/></g></svg>