<svg height="60" width="52.157" xmlns="http://www.w3.org/2000/svg" xmlns:xlink="http://www.w3.org/1999/xlink"><filter id="a" color-interpolation-filters="sRGB" height="1.103509" width="1.159564" x="-.039077" y="-.031849"><feFlood flood-opacity=".498039" result="flood"/><feComposite in="flood" in2="SourceGraphic" operator="in" result="composite1"/><feGaussianBlur in="composite1" result="blur" stdDeviation="1"/><feOffset dx="5" dy="3" result="offset"/><feComposite in="SourceGraphic" in2="offset" operator="over" result="composite2"/></filter><g fill-opacity=".992157" filter="url(#a)" opacity=".99" transform="matrix(.6 0 0 .6 -193.0963 2.272348)"><path d="m-10.911746 7.4109164-13.002315 4.1028986-6.934938 42.781658 39.8730369.000027-6.9264847-42.729555z" fill="#cdcdcd" opacity="1" stroke-width="1.00001" transform="matrix(1.540322175 0 0 1.4863506 382.100076 -2.48030815)"/><path d="m334.58268 78.221801v5.66852l61.41732.00027v-5.66875z" fill="#787878" opacity="1"/></g><path d="m21.568288 28.963116c-3.89363 4.5418-7.63858 9.33189-11.27312 14.30639.59595 1.31007 1.58262 2.09296 3.02922 1.89154 1.03998-.1448 1.51333-.99449 1.72341-1.75701.13606-.49384-.85086-1.27966-.85086-1.27966l1.76346-1.27462c3.89039-2.25924 8.17177-4.57332 10.59716-6.62711l8.8807-10.05096c-.37083-.72693-1.21004-1.43296-1.83684-2.14848l-5.26083 5.5529s.22172.81826.0658.99984c-.15594.18158-2.88839 2.68742-2.88839 2.68742s-1.01211.9765-1.07902.90011c-.0669-.0764-2.87067-3.20036-2.87067-3.20036z" fill="#ccc" fill-opacity=".988235" stroke="#f00" stroke-opacity=".992157" stroke-width=".8"/><path d="m21.791228 29.037836c3.06588-3.24482 5.90932-6.84906 9.51001-9.22973 0 0 .93578-.52349 1.27324-.93524.35048-.42763.5708-1.55741.5708-1.55741s1.20357-1.62905 1.26173-1.66762c.74134-.49172 4.38834 3.5654 3.86297 3.97364l-1.47844 1.31746s-.99247.38087-1.38476.80792c-.34368.37413-.69987 1.33298-.69987 1.33298l-1.09434-1.04389-5.21798 5.26788-.0853 1.28969-3.82727 3.64477z" fill="#f00" fill-opacity=".992157" stroke="#f00" stroke-opacity=".992157" stroke-width=".033285"/><rect fill="#f00" fill-opacity=".992157" height="8.659823" opacity=".98" ry=".467459" transform="matrix(.75224297 -.65888582 .65888582 .75224297 0 0)" width="2.28434" x="-3.719748" y="35.263294"/><path d="m31.649158 11.205886-3.90408 2.24763-.71057-2.63885-.71057 2.63885-3.90436-2.24792 2.24791 3.90437-2.63884.71057 2.63884.71057-2.24791 3.90436 3.90436-2.24791.71057 2.63884.71057-2.63884 3.90437 2.24791-2.24792-3.90436 2.63884-.71057-2.63884-.71057zm-2.60059 2.60059-.98124 1.70398 1.15192.31037-1.15163.31008.98124 1.70397-1.70426-.98095-.31009 1.15164-.31037-1.15192-1.70398.98123.98124-1.70397-1.15192-.31037 1.15164-.31008-.98095-1.70427 1.70398.98124.31007-1.15163.31038 1.15192z" fill="#ff0404" opacity=".98" stroke-linecap="round" stroke-linejoin="round" stroke-width="2.51798"/><g stroke-linecap="square"><circle cx="-26.703701" cy="38.247932" fill="#ff0404" r="5.168633" stroke="#ccc" stroke-linejoin="bevel" stroke-opacity=".988235" stroke-width=".347622" transform="matrix(-.99608337 -.08841903 -.08841903 .99608337 0 0)"/><circle cx="23.217289" cy="40.437866" fill="#ccc" fill-opacity=".988235" r="3.379806" stroke="#ccc" stroke-opacity=".988235" stroke-width=".358992"/><path d="m12.708238 41.274048h.503958v7.19286h-.503958z" fill="#ff0404" stroke="#ff0404" stroke-width=".384434" transform="matrix(-.69542717 .71859658 .71859658 .69542717 0 0)"/><path d="m-45.144455 9.314481h.503958v7.19286h-.503958z" fill="#ff0404" stroke="#ff0404" stroke-width=".384433" transform="matrix(-.71936187 -.69463552 -.69463552 .71936187 0 0)"/><path d="m40.36343 19.543535h.503958v7.192862h-.503958z" fill="#ff0404" stroke="#ff0404" stroke-width=".384433" transform="matrix(.00278301 .99999613 .99999613 -.00278301 0 0)"/><path d="m-23.3116 36.945473h.503958v7.19286h-.503958z" fill="#ff0404" stroke="#ff0404" stroke-width=".384433" transform="matrix(-.99999246 .00388405 .00388405 .99999246 0 0)"/></g></svg>