<?xml version="1.0" encoding="UTF-8" standalone="no"?>
<svg
   viewBox="0 0 60 60"
   version="1.1"
   id="svg10"
   sodipodi:docname="0FlyingSilverCannon.svg"
   inkscape:version="1.3 (0e150ed6c4, 2023-07-21)"
   xmlns:inkscape="http://www.inkscape.org/namespaces/inkscape"
   xmlns:sodipodi="http://sodipodi.sourceforge.net/DTD/sodipodi-0.dtd"
   xmlns="http://www.w3.org/2000/svg"
   xmlns:svg="http://www.w3.org/2000/svg">
  <sodipodi:namedview
     id="namedview10"
     pagecolor="#ffffff"
     bordercolor="#666666"
     borderopacity="1.0"
     inkscape:showpageshadow="2"
     inkscape:pageopacity="0.0"
     inkscape:pagecheckerboard="0"
     inkscape:deskcolor="#d1d1d1"
     inkscape:zoom="5.326871"
     inkscape:cx="-111.32239"
     inkscape:cy="55.379603"
     inkscape:window-width="3840"
     inkscape:window-height="2054"
     inkscape:window-x="-11"
     inkscape:window-y="-11"
     inkscape:window-maximized="1"
     inkscape:current-layer="svg10" />
  <defs
     id="defs2">
    <filter
       id="0GI_svg__a"
       color-interpolation-filters="sRGB"
       x="-0.038340097"
       y="-0.031629343"
       width="1.1565554"
       height="1.1027954">
      <feFlood
         flood-color="#000"
         flood-opacity=".498"
         result="flood"
         id="feFlood1" />
      <feComposite
         in="flood"
         in2="SourceGraphic"
         operator="in"
         result="composite1"
         id="feComposite1" />
      <feGaussianBlur
         in="composite1"
         result="blur"
         stdDeviation="1"
         id="feGaussianBlur1" />
      <feOffset
         dx="5"
         dy="3"
         result="offset"
         id="feOffset1" />
      <feComposite
         in="SourceGraphic"
         in2="offset"
         result="composite2"
         id="feComposite2" />
    </filter>
    <filter
       id="0GI_svg__a-9"
       x="-0.13505098"
       y="-0.11084446"
       width="1.3201126"
       height="1.2628796">
      <feGaussianBlur
         in="SourceAlpha"
         result="blur"
         stdDeviation="2"
         id="feGaussianBlur1-3" />
      <feOffset
         dx="2"
         dy="2"
         result="offsetBlur"
         id="feOffset1-4" />
      <feBlend
         in="SourceGraphic"
         in2="offsetBlur"
         id="feBlend1"
         mode="normal" />
    </filter>
    <filter
       id="1GI_svg__a"
       color-interpolation-filters="sRGB"
       x="-0.039077128"
       y="-0.032668173"
       width="1.1595649"
       height="1.1061716">
      <feFlood
         flood-color="#000"
         flood-opacity=".498"
         result="flood"
         id="feFlood1-9" />
      <feComposite
         in="flood"
         in2="SourceGraphic"
         operator="in"
         result="composite1"
         id="feComposite1-9" />
      <feGaussianBlur
         in="composite1"
         result="blur"
         stdDeviation="1"
         id="feGaussianBlur1-8" />
      <feOffset
         dx="5"
         dy="3"
         result="offset"
         id="feOffset1-41" />
      <feComposite
         in="SourceGraphic"
         in2="offset"
         result="composite2"
         id="feComposite2-5" />
    </filter>
  </defs>
  <g
     id="path2"
     transform="matrix(0.72,0,0,0.72,-233.01,-3.0837564)"
     style="opacity:0.99;fill-opacity:0.992">
    <path
       style="color:#000000;fill:#ececec;fill-opacity:0.988235;stroke:none;-inkscape-stroke:none"
       d="m 365.292,8.535 -20.027,6.098 -10.682,63.589 H 396 L 385.331,14.71 Z"
       id="path1" />
    <path
       id="path4"
       style="color:#000000;fill:#808080;-inkscape-stroke:none"
       d="m 365.29167,8.0102083 -0.14649,0.045573 -20.32226,6.1881507 -10.83008,64.479167 1.91732,5.166016 h 58.48632 l 2.19401,-5.166016 -10.81705,-64.401042 z m 0,1.0481771 19.59635,6.0384116 10.52083,62.626953 h -60.23437 l 10.53385,-62.701823 z" />
  </g>
  <path
     style="fill:#929292;fill-opacity:0.988235;stroke:none;stroke-width:1.2px;stroke-linecap:butt;stroke-linejoin:miter;stroke-opacity:1"
     d="M 8.5160272,53.644956 H 51.623895 l -1.234514,2.947542 H 9.5707972 Z"
     id="path5"
     sodipodi:nodetypes="ccccc" />
  <path
     style="fill:#c32e16;stroke-width:0.0487646;fill-opacity:0.99215686"
     d="m 36.935011,47.468273 c -2.9488,-0.42844 -5.143252,-2.949419 -5.144475,-5.909916 -6.57e-4,-1.604292 0.585562,-3.040456 1.706569,-4.180918 1.189358,-1.209998 2.589238,-1.802095 4.260638,-1.802095 1.254458,0 2.286309,0.303768 3.324001,0.978541 0.453389,0.294824 1.330399,1.153694 1.622797,1.589215 0.458828,0.683442 0.797784,1.517728 0.956476,2.354277 0.09856,0.519548 0.09911,1.519587 0.0012,2.081277 -0.313404,1.797222 -1.460382,3.374209 -3.094203,4.254268 -1.020153,0.549517 -2.473911,0.803751 -3.63297,0.635351 z m 0.316963,-3.093893 v -1.392763 l -0.795941,0.819775 c -0.437784,0.450889 -0.877211,0.91083 -0.976514,1.022106 l -0.180502,0.202311 0.24418,0.150204 c 0.322675,0.198534 0.770643,0.384419 1.194102,0.495477 0.572695,0.150205 0.514729,0.296285 0.514729,-1.297165 z m 1.56047,1.293642 c 0.452806,-0.107496 1.20268,-0.453371 1.447644,-0.6676 L 40.414856,44.865 39.357598,43.848351 c -0.796633,-0.766045 -1.061672,-0.994729 -1.075142,-0.927674 -0.02939,0.146006 0.05074,2.846502 0.08432,2.846137 0.01643,-2e-4 0.217532,-0.04471 0.445505,-0.09874 z m -3.736033,-3.497969 c -0.823134,-0.0073 -1.508364,-0.0012 -1.522746,0.01278 -0.05347,0.05347 0.147102,0.73522 0.333206,1.132249 0.105852,0.225855 0.286376,0.541614 0.401174,0.701675 l 0.208736,0.291029 1.03813,-1.062641 1.038111,-1.062641 z m 6.294263,1.670543 c 0.284659,-0.428842 0.611478,-1.265428 0.611478,-1.565253 v -0.116808 l -1.426363,0.0018 -1.426382,0.0018 0.994803,0.972866 c 0.547125,0.53508 1.011301,0.972882 1.031504,0.972882 0.02026,0 0.116988,-0.120821 0.21496,-0.268563 z m -4.85016,-2.720627 c 0,-0.0073 -0.496096,-0.4948 -1.102428,-1.081786 l -1.102427,-1.06724 -0.08998,0.118632 c -0.277322,0.365694 -0.612264,1.238726 -0.705032,1.83763 l -0.03212,0.207256 h 1.515992 c 0.833794,0 1.515994,-0.0073 1.515994,-0.0146 z m 5.510058,-0.09509 c -0.0013,-0.424973 -0.443753,-1.591042 -0.74137,-1.953942 l -0.112788,-0.137429 -0.684609,0.698243 c -0.376534,0.384035 -0.857391,0.879292 -1.068573,1.100566 l -0.383943,0.402304 h 1.495771 1.495771 z m -1.828121,-2.612982 0.2402,-0.260076 -0.120273,-0.09126 c -0.448662,-0.34058 -1.310853,-0.704832 -1.807606,-0.763673 l -0.238795,-0.02828 v 1.573319 1.573338 l 0.843119,-0.871645 c 0.463719,-0.479397 0.9512,-0.988689 1.083301,-1.131738 z m -2.950477,0.406393 v -1.536087 h -0.131041 c -0.204357,0 -0.838356,0.190904 -1.161269,0.349669 -0.328133,0.161337 -0.901321,0.523106 -0.903712,0.570395 -0.0013,0.02646 2.149774,2.144226 2.183776,2.15003 0.0073,0.0011 0.01278,-0.689173 0.01278,-1.534007 z m -7.344967,4.795353 c -0.05694,-0.02756 -0.155681,-0.161704 -0.219449,-0.298056 l -0.116076,-0.247958 -0.707077,-0.236403 c -1.668826,-0.557913 -3.29281,-0.904296 -4.998375,-1.066054 -0.703409,-0.0668 -2.286291,-0.08066 -3.011217,-0.02646 -0.466731,0.03486 -0.52422,0.04927 -0.52422,0.130859 0,0.238266 -0.512176,0.313751 -0.681526,0.10038 -0.09053,-0.114072 -0.274001,-0.175391 -0.316927,-0.106044 -0.03431,0.05567 -0.312474,0.06863 -0.437913,0.02044 -0.04344,-0.01643 -0.10914,-0.0887 -0.146007,-0.16006 -0.04636,-0.08962 -0.141262,-0.15349 -0.307181,-0.206509 -0.223956,-0.07154 -0.260203,-0.07063 -0.53831,0.0146 -0.326691,0.10038 -0.644276,0.354123 -0.644276,0.514949 0,0.08286 -0.04362,0.101652 -0.299752,0.128304 -0.164806,0.01643 -0.39108,0.03139 -0.502703,0.03139 -0.111696,0 -0.245566,0.0323 -0.297636,0.07154 -0.112428,0.08504 -0.473848,0.09709 -0.616972,0.02044 -0.07848,-0.04198 -0.1586,-0.03486 -0.354798,0.03175 -0.207695,0.07063 -0.28245,0.07592 -0.414678,0.02993 -0.0887,-0.03102 -0.253469,-0.05621 -0.366114,-0.05621 h -0.204811 l -0.228848,-0.486526 c -1.013874,-2.155486 -1.319832,-4.303563 -0.905244,-6.355641 0.149474,-0.740092 0.495511,-1.73077 0.862756,-2.470387 0.199263,-0.401338 0.404422,-0.913532 0.527397,-1.316657 l 0.201252,-0.659789 0.775845,-0.03248 0.775865,-0.03248 0.32326,0.198606 c 0.317967,0.195358 0.323753,0.202676 0.353119,0.447038 0.01643,0.1367 0.03012,0.330561 0.0303,0.430922 l 4.38e-4,0.182509 0.580561,0.291029 c 0.480564,0.240894 0.646429,0.299223 0.963101,0.33861 0.344777,0.04289 0.392174,0.03869 0.480071,-0.04326 0.149475,-0.139254 0.346439,-0.170646 0.487993,-0.07793 0.0668,0.0438 0.12155,0.1137 0.12155,0.155132 0,0.04855 0.0584,0.01278 0.164259,-0.09874 0.103116,-0.10932 0.209557,-0.174113 0.28601,-0.174113 0.154768,0 0.35916,0.159148 0.396793,0.309079 0.02646,0.105492 0.06223,0.118452 0.40778,0.147467 0.208334,0.01825 0.897032,0.046 1.530448,0.06332 l 1.15165,0.03139 -0.688387,-2.567427 c -0.560121,-2.089017 -0.702022,-2.562336 -0.761538,-2.54018 -0.04033,0.0146 -0.731478,0.406794 -1.536087,0.870678 -0.804627,0.463883 -1.515702,0.871079 -1.5802,0.90488 l -0.117168,0.0615 0.09947,-0.164259 c 0.603082,-0.99659 1.767636,-3.085535 1.736172,-3.114261 -0.02226,-0.02044 -1.37517,-0.395297 -3.006345,-0.833136 -1.787712,-0.479889 -2.930529,-0.808734 -2.877109,-0.827897 0.04873,-0.01825 1.383346,-0.378634 2.965754,-0.802547 1.582426,-0.423914 2.895616,-0.786815 2.91821,-0.806472 0.02263,-0.0197 -0.375056,-0.756719 -0.88369,-1.637982 -0.508634,-0.881245 -0.919974,-1.608068 -0.914078,-1.615169 0.0055,-0.0073 0.732152,0.402598 1.613926,0.910447 0.881775,0.507832 1.615863,0.91552 1.631339,0.905975 0.0146,-0.0091 0.388763,-1.358525 0.829577,-2.997711 0.533657,-1.984421 0.813954,-2.950953 0.838812,-2.892404 0.02063,0.04836 0.38743,1.390792 0.815304,2.983202 0.427892,1.59241 0.786961,2.904267 0.797948,2.915253 0.01092,0.01092 0.74159,-0.395862 1.623564,-0.904076 0.881957,-0.508233 1.60942,-0.918203 1.616574,-0.911049 0.0073,0.0073 -0.403126,0.734745 -0.911724,1.616884 -0.614836,1.066382 -0.905172,1.614019 -0.866371,1.634168 0.03212,0.01643 1.394224,0.389073 3.02695,0.827588 2.058739,0.552928 2.933084,0.807091 2.852726,0.829212 -0.0637,0.01825 -1.399589,0.377173 -2.968583,0.79917 -1.569012,0.421998 -2.878405,0.78154 -2.909778,0.798988 -0.0376,0.02099 0.257319,0.577203 0.867137,1.635317 0.508306,0.881975 0.918003,1.609073 0.910428,1.615789 -0.0073,0.0073 -0.734654,-0.403636 -1.615735,-0.911888 -0.881099,-0.50825 -1.612102,-0.913987 -1.62444,-0.901649 -0.03358,0.03358 -1.39592,5.107242 -1.37526,5.121825 0.04982,0.03504 2.412697,-0.07026 3.089951,-0.137795 1.073901,-0.107136 2.130155,-0.263689 2.428649,-0.360054 0.192692,-0.06223 0.255877,-0.107868 0.277614,-0.200778 0.05896,-0.251571 0.613066,-0.392668 0.985604,-0.25095 0.110052,0.0418 0.323624,-0.0055 1.282181,-0.28309 0.632557,-0.183348 1.158913,-0.34215 1.169664,-0.352917 0.01092,-0.01092 0.04289,-0.216456 0.07136,-0.457095 0.02848,-0.240637 0.06425,-0.517449 0.07921,-0.615128 l 0.02737,-0.177581 1.057238,-0.02993 c 0.581475,-0.01643 1.202097,-0.03924 1.379166,-0.05056 l 0.321928,-0.02081 0.0323,0.566198 c 0.01825,0.311397 0.03742,0.570414 0.0438,0.575579 0.0055,0.0055 0.439373,0.03522 0.962371,0.06698 3.154577,0.190942 4.398869,0.372337 6.066235,0.884293 l 0.52705,0.161886 0.148927,0.301925 0.148927,0.301925 1.317241,0.383688 c 0.724488,0.211036 1.34168,0.407908 1.371538,0.437492 0.02993,0.02957 0.106764,0.435576 0.170828,0.902162 0.115896,0.84321 0.11826,0.851714 0.397632,1.409115 0.353375,0.705051 0.533128,1.239528 0.564976,1.680015 0.02135,0.295555 0.0036,0.412032 -0.132502,0.831364 -0.08651,0.268197 -0.29873,0.794864 -0.471621,1.17034 -0.288438,0.626462 -0.320231,0.728922 -0.385897,1.243507 -0.08159,0.639202 -0.246297,1.486865 -0.313259,1.612011 -0.06242,0.116628 -0.539113,0.194554 -1.450126,0.237189 -0.409495,0.01916 -0.764895,0.0553 -0.789789,0.0803 -0.02482,0.02501 -0.07392,0.132867 -0.10896,0.239872 -0.04253,0.129945 -0.10932,0.216272 -0.201381,0.260439 -0.07574,0.03632 -0.149111,0.05476 -0.162981,0.04088 -0.0146,-0.0146 0.0073,-0.141992 0.048,-0.284823 0.390606,-1.385482 0.311086,-2.873715 -0.224888,-4.208568 l -0.166813,-0.4155 0.249107,-7.49e-4 c 0.137064,-3.83e-4 0.274274,-0.01643 0.305009,-0.0365 0.03194,-0.02044 0.08177,-0.315704 0.116256,-0.68846 0.07592,-0.821291 0.03797,-2.086151 -0.09071,-3.029085 -0.05311,-0.388908 -0.111144,-0.852883 -0.128851,-1.031084 l -0.0323,-0.323991 -0.44775,-0.170646 c -1.254148,-0.477882 -2.723291,-0.824229 -4.324534,-1.019478 -0.488467,-0.0595 -3.036805,-0.09198 -3.087323,-0.03942 -0.0615,0.06425 -0.431013,1.81695 -0.642414,3.047792 -0.02135,0.124288 -0.06698,0.163346 -0.302947,0.259473 -0.947623,0.386062 -2.004296,1.251665 -2.659668,2.178756 -0.521045,0.7371 -0.93815,1.763257 -1.08518,2.669743 -0.141992,0.875003 -0.06972,2.052971 0.173749,2.838563 0.04946,0.159696 0.08249,0.298001 0.07337,0.307163 -0.0091,0.0091 -0.163893,-0.01825 -0.343993,-0.05914 -0.29289,-0.0679 -0.350088,-0.06826 -0.54384,-0.0018 -0.244672,0.08304 -0.721732,0.09217 -0.877358,0.01643 z m 0.804007,-0.230802 c 0.05438,-0.0345 0.04198,-0.103668 -0.06752,-0.377192 -1.136173,-2.835752 -1.128508,-5.931836 0.02446,-9.889837 0.08086,-0.277851 0.147102,-0.539423 0.147102,-0.581291 0,-0.124288 -0.349395,-0.205195 -0.583554,-0.135056 -0.184773,0.0553 -0.197895,0.07301 -0.293073,0.392558 -0.618742,2.077592 -0.930943,4.004943 -0.931617,5.751426 -4.38e-4,1.08279 0.05202,1.663132 0.230125,2.542352 0.120821,0.597096 0.445414,1.649462 0.650389,2.109074 l 0.103296,0.231623 0.326892,-7.49e-4 c 0.179771,-3.83e-4 0.35686,-0.01972 0.393508,-0.04289 z m -15.619326,-1.28811 c 0.01278,-0.03522 -0.106764,-0.33691 -0.267084,-0.670519 -1.062019,-2.209089 -1.027343,-4.457401 0.121551,-7.882457 0.175574,-0.523508 0.307583,-0.9823 0.293292,-1.019532 -0.04144,-0.108048 -0.214849,-0.07848 -0.299917,0.05147 -0.134327,0.20503 -0.554024,1.289152 -0.780098,2.0151 -0.778402,2.499498 -0.7252,4.595633 0.16736,6.596024 0.34476,0.772615 0.47268,0.973904 0.618943,0.973904 0.0668,0 0.132502,-0.02884 0.145826,-0.06388 z m 0.935341,-0.0055 c 0.0073,-0.0073 -0.107316,-0.241113 -0.253378,-0.520826 -1.161724,-2.224512 -1.117339,-4.935811 0.136152,-8.324603 0.122099,-0.329995 0.209776,-0.631718 0.194883,-0.67052 -0.04362,-0.1137 -0.249581,-0.08377 -0.336437,0.04891 -0.116076,0.177216 -0.588902,1.568136 -0.780409,2.295945 -0.690066,2.622636 -0.589686,4.648706 0.324319,6.545979 0.287196,0.596166 0.389566,0.71591 0.572768,0.669918 0.07136,-0.01825 0.135239,-0.03815 0.141992,-0.04471 z m 4.108589,-0.239726 c 0,-0.0091 -0.09874,-0.189444 -0.219577,-0.401356 -0.626499,-1.09936 -0.901449,-2.16474 -0.901814,-3.494281 -4.02e-4,-1.376502 0.304517,-2.779321 0.979052,-4.504561 0.210086,-0.537325 0.209028,-0.62867 -0.0073,-0.597133 -0.08724,0.01278 -0.142358,0.09107 -0.25159,0.357663 -0.403034,0.983961 -0.777269,2.297442 -0.947167,3.32442 -0.129216,0.78123 -0.116628,2.064963 0.02683,2.74678 0.182563,0.866809 0.466821,1.603616 0.917144,2.377272 0.09818,0.168638 0.147102,0.207239 0.262302,0.207239 0.07793,0 0.141627,-0.0073 0.141627,-0.01643 z M 19.20097,41.676487 c 0.05056,-0.03212 0.01092,-0.137794 -0.180319,-0.474706 -0.474761,-0.838556 -0.746626,-1.702883 -0.843811,-2.682574 -0.127939,-1.289335 0.170646,-2.847852 0.917472,-4.788854 0.25805,-0.670703 0.288693,-0.83841 0.152943,-0.836786 -0.128304,0.0016 -0.186488,0.08944 -0.420739,0.635388 -0.411447,0.958884 -0.690924,1.879824 -0.865019,2.850535 -0.132319,0.738158 -0.120822,2.121704 0.02354,2.803959 0.149476,0.706311 0.352718,1.291325 0.649532,1.86913 0.317128,0.617411 0.411942,0.721842 0.566416,0.623908 z m 4.907231,-14.073237 0.34737,-1.290467 0.704941,0.408054 c 0.387721,0.22445 0.710909,0.40245 0.71821,0.395571 0.0073,-0.0073 -0.165172,-0.3241 -0.383343,-0.704941 -0.218134,-0.380861 -0.38754,-0.701548 -0.376425,-0.712662 0.01092,-0.01092 0.586676,-0.173384 1.279043,-0.360638 0.692365,-0.187236 1.268857,-0.350454 1.281103,-0.362701 0.02573,-0.02573 -0.133049,-0.07246 -1.521067,-0.446453 -0.563223,-0.151848 -1.032618,-0.28444 -1.043075,-0.294825 -0.01092,-0.01092 0.160242,-0.329685 0.379345,-0.709595 0.219083,-0.379892 0.391901,-0.697166 0.384035,-0.705014 -0.0073,-0.0073 -0.310229,0.158782 -0.671907,0.37042 -0.361696,0.211601 -0.681325,0.385642 -0.710307,0.386754 -0.02902,0.0011 -0.202659,-0.56304 -0.385971,-1.253654 -0.18333,-0.690632 -0.347752,-1.272654 -0.365383,-1.293386 -0.01825,-0.02081 -0.136699,0.352315 -0.264455,0.828992 -0.127756,0.476695 -0.287542,1.067276 -0.354944,1.312441 l -0.122464,0.445759 -0.708316,-0.411138 c -0.389584,-0.22611 -0.714177,-0.40475 -0.721349,-0.396975 -0.0073,0.0073 0.170646,0.330944 0.395295,0.718173 0.22456,0.387212 0.403272,0.708683 0.397122,0.714395 -0.0055,0.0055 -0.558586,0.157506 -1.22761,0.337295 -0.669042,0.179772 -1.259057,0.342716 -1.311146,0.361988 -0.06406,0.02372 0.332806,0.15057 1.226991,0.392304 0.726933,0.196508 1.314449,0.370475 1.305578,0.386572 -0.09198,0.166997 -0.649677,1.14019 -0.725144,1.265464 l -0.09838,0.163345 0.141079,-0.07337 c 0.07757,-0.04033 0.408966,-0.227315 0.736369,-0.415573 0.493085,-0.283528 0.599341,-0.32828 0.618906,-0.260751 0.01278,0.04489 0.171377,0.635496 0.351877,1.312531 0.180502,0.677055 0.339176,1.220074 0.352517,1.206732 0.01278,-0.01278 0.180502,-0.604963 0.371625,-1.31474 z"
     id="path1-8" />
</svg>
