<svg height="60" width="52.157" xmlns="http://www.w3.org/2000/svg" xmlns:xlink="http://www.w3.org/1999/xlink"><filter id="a" color-interpolation-filters="sRGB" height="1.103509" width="1.159564" x="-.039077" y="-.031849"><feFlood flood-opacity=".498039" result="flood"/><feComposite in="flood" in2="SourceGraphic" operator="in" result="composite1"/><feGaussianBlur in="composite1" result="blur" stdDeviation="1"/><feOffset dx="5" dy="3" result="offset"/><feComposite in="SourceGraphic" in2="offset" operator="over" result="composite2"/></filter><g fill-opacity=".992157" filter="url(#a)" opacity=".99" transform="matrix(.6 0 0 .6 -143.5467 2.593295)"><path d="m-10.911031 7.4113606-13.007275 4.1293604-6.930693 42.754752 39.8733542.000027-6.9308349-42.755646z" fill="#efc000" opacity="1" transform="matrix(1.54030991604 0 0 1.48636468597 299.517023433 -3.01598408262)"/><path d="m252 77.686889v5.66852l61.41733.00027v-5.66875z" fill="#937800" opacity="1"/></g><g fill="#ff0404" stroke="#ff0404" stroke-miterlimit="10" transform="matrix(-.22736199 .07959256 .06665119 .19039403 269.58419 -123.49968)"><path d="m1211.7284 289.16648-90.6893 35.05433s-8.0242 8.93392-2.8931 21.42532l.063.30499.063.30498c4.9395 12.5585 16.4998 12.34665 16.4998 12.34665 37.098-28.13428 64.2438-37.31827 85.1189-49.18751-.192-4.06467-1.8458-7.47907-2.8249-11.1936-1.3824-3.19489-2.9322-6.31529-5.3374-9.05516z" stroke-width="2.6533"/><ellipse cx="1017.132" cy="677.90155" rx="3.753881" ry="3.661743" stroke-width="3.0061" transform="matrix(.95110508 -.30886749 .22204229 .97503704 0 0)"/></g><path d="m21.824326 32.438212.05232 5.00865 9.868509.99466c4.23088 5.86264 4.968861 6.03194 10.111252 5.54628-4.804038-1.49063-6.619818-7.3815-9.403198-11.48001z" fill="#ff0404" stroke="#ff0404" stroke-linecap="square" stroke-width=".439281"/><path d="m20.874445 14.124162-1.268518 4.71099-2.564992-1.47668 1.476678 2.565-4.711436 1.26851 4.711436 1.26851-1.476678 2.56499 2.564992-1.47668 1.268518 4.71145 1.268519-4.71145 2.564992 1.47668-1.476678-2.56499 4.711436-1.26851-4.711436-1.26851 1.476678-2.565-2.564992 1.47668zm0 3.98308.553475 2.05634 1.119832-.64446-.644465 1.11938 2.056343.55348-2.056343.55391.644465 1.11939-1.119832-.64447-.553475 2.05635-.553473-2.05635-1.119832.64447.644464-1.11939-2.056342-.55391 2.056342-.55348-.644464-1.11938 1.119832.64446z" fill="#ff0404" opacity=".98" stroke-linecap="round" stroke-linejoin="round" stroke-width="2.727"/><g stroke-linecap="square"><circle cx="-28.719944" cy="36.102818" fill="#ff0404" r="5.967979" stroke="#efc000" stroke-linejoin="bevel" stroke-opacity=".988235" stroke-width=".401383" transform="matrix(-.99608337 -.08841903 -.08841903 .99608337 0 0)"/><circle cx="25.415298" cy="38.476128" fill="#efc000" fill-opacity=".988235" r="3.902505" stroke="#efc000" stroke-opacity=".988235" stroke-width=".414511"/><path d="m9.738378 40.94315h.581897v8.305261h-.581897z" fill="#ff0404" stroke="#ff0404" stroke-width=".443888" transform="matrix(-.69542717 .71859658 .71859658 .69542717 0 0)"/><path d="m-45.417545 5.812375h.581897v8.305261h-.581897z" fill="#ff0404" stroke="#ff0404" stroke-width=".443887" transform="matrix(-.71936187 -.69463552 -.69463552 .71936187 0 0)"/><path d="m38.386322 21.196255h.581897v8.305263h-.581897z" fill="#ff0404" stroke="#ff0404" stroke-width=".443887" transform="matrix(.00278301 .99999613 .99999613 -.00278301 0 0)"/><path d="m-25.556118 34.438278h.581897v8.305261h-.581897z" fill="#ff0404" stroke="#ff0404" stroke-width=".443887" transform="matrix(-.99999246 .00388405 .00388405 .99999246 0 0)"/></g></svg>