<svg height="60" width="52.157" xmlns="http://www.w3.org/2000/svg" xmlns:xlink="http://www.w3.org/1999/xlink"><filter id="a" color-interpolation-filters="sRGB" height="1.103509" width="1.159564" x="-.039077" y="-.031849"><feFlood flood-opacity=".498039" result="flood"/><feComposite in="flood" in2="SourceGraphic" operator="in" result="composite1"/><feGaussianBlur in="composite1" result="blur" stdDeviation="1"/><feOffset dx="5" dy="3" result="offset"/><feComposite in="SourceGraphic" in2="offset" operator="over" result="composite2"/></filter><g fill-opacity=".992157" filter="url(#a)" opacity=".99" transform="matrix(.6 0 0 .6 -193.0963 2.272348)"><path d="m-10.911746 7.4109164-13.002315 4.1028986-6.934938 42.781658 39.8730369.000027-6.9264847-42.729555z" fill="#e5e5e5" opacity="1" stroke-width="1.00001" transform="matrix(1.540322175 0 0 1.4863506 382.100076 -2.48030815)"/><path d="m334.58268 78.221801v5.66852l61.41732.00027v-5.66875z" fill="#787878" opacity="1"/></g><g transform="translate(39.6875 -.6875)"><g stroke="#f00" stroke-opacity=".992157"><path d="m.346731 34.05999.20949 1.48546s.7331 1.22793.7111 1.96232c-.0179.59721-.78842 2.07883-.78842 2.07883-.0393.44496-.15024 1.37317-.31755 1.83828-.68104.15905-.83285.12295-1.79545.16357-.16508.081-.1197.41934-.29491.4658-2.61001.69211-4.0707.75665-5.54495.77142-1.9626.0197-5.81382-.9324-5.81382-.9324-2.71064-1.07664-5.61998-1.71404-9.02238-1.26149l-1.12438-.35651c-.58742.12003-.80975.33741-.85013.60332l-2.44071.13712c-1.42064-2.76853-1.51297-5.50427.0274-8.19968l.35462-1.1617 1.26606-.0122.49097.32375.0548.71302 1.01468.49363c3.31061.3895 6.43344.43231 9.2692-.0548l3.37311-.97355.12341-1.0421 2.22131-.0686.0548.94612s2.97018.13472 4.42892.39764c.64413.1161 1.8939.51825 1.8939.51825l.23144.49643z" fill="#f00" fill-opacity=".992157" opacity=".99" stroke-width=".107866"/><path d="m-13.586179 32.86912c.21308-.1631.627542-.0723.652672.031-.93522 3.11863-1.35168 6.07311-.0436 8.99864.0245.0791-.569242.0809-.647842.044-1.33384-2.95153-.84793-6.08084.0388-9.07364z" fill="#e5e5e5" fill-opacity=".988235" opacity=".99" stroke-linecap="round" stroke-width=".431465"/><path d="m-22.057159 33.24404c.0309-.0988.22039-.12754.25814.0193-1.06467 2.60232-1.53877 5.04026-.0496 7.35393.0279.0632-.11234.0712-.20184.0456-1.50568-2.33938-1.07458-4.80855-.007-7.41882z" style="opacity:.99;fill:#e5e5e5;fill-opacity:.988235;stroke-width:.416094;stroke-linecap:round;stroke-linejoin:round"/><path d="m-22.705559 33.28187c.11763-.13392.24812-.0822.21932.0583-1.06506 2.60328-1.57043 4.80584-.0808 7.12024-.007.0609-.13376.0926-.21356.0417-1.47836-2.30563-1.01837-4.92498.075-7.22027z" style="opacity:.99;fill:#e5e5e5;fill-opacity:.988235;stroke-width:.416094;stroke-linecap:round;stroke-linejoin:round"/><path d="m-25.468129 32.976c.0479-.11547.27294-.14626.29668.0203-1.05917 2.73309-1.56208 5.40291-.0806 7.83284.0277.0664-.20207.0707-.2912.0438-1.49791-2.45693-.98725-5.15545.0752-7.89689z" fill="#e5e5e5" fill-opacity=".988235" opacity=".99" stroke-linecap="round" stroke-width=".425318"/><path d="m-26.162769 32.95009c.0818-.13614.28215-.13261.27368.0211-1.05259 2.84978-1.57548 5.33121-.10334 7.86477-.007.0667-.1891.10139-.26799.0457-1.48757-2.56008-1.16443-5.06733.0976-7.93152z" fill="#e5e5e5" fill-opacity=".988235" opacity=".99" stroke-linecap="round" stroke-width=".432793"/></g><path d="m-8.529023 32.76564c1.886972-.16031 4.370506.129 6.544194 1.03037.06797 1.4161.414147 1.89193.140625 4.20313-2.084509.17381-4.120702.37984-7.176317-.0937-.50305-1.01748.252628-4.17141.491498-5.13975z" fill="#e3e3e3" fill-opacity=".992157"/><path d="m-18.835186 19-1.365483 5.07111-2.761059-1.58956 1.589554 2.76107-5.071576 1.36547 5.071576 1.36549-1.589554 2.76106 2.761059-1.58956 1.365483 5.07158 1.365483-5.07158 2.761059 1.58956-1.589555-2.76106 5.071576-1.36549-5.071576-1.36547 1.589555-2.76107-2.761059 1.58956zm0 4.28756.595782 2.21353 1.20543-.69373-.693727 1.20495 2.213529.59578-2.213529.59627.693727 1.20495-1.20543-.69373-.595782 2.21353-.595782-2.21353-1.20543.69373.693726-1.20495-2.213528-.59627 2.213528-.59578-.693726-1.20495 1.20543.69373z" fill="#ff0404" opacity=".98" stroke-linecap="round" stroke-linejoin="round" stroke-width="2.93545"/><circle cx="3.549682" cy="40.876041" r="5.168633" style="fill:#ff0404;stroke:#e5e5e5;stroke-width:.347622;stroke-linecap:square;stroke-linejoin:bevel;stroke-opacity:.988235" transform="matrix(-.99608337 -.08841903 -.08841903 .99608337 0 0)"/><circle cx="-7.14999" cy="40.380711" r="3.379806" style="fill:#e5e5e5;fill-opacity:.988235;stroke:#e5e5e5;stroke-width:.358992;stroke-linecap:square;stroke-opacity:.988235"/><path d="m33.785389 19.412481h.503958v7.19286h-.503958z" fill="#ff0404" stroke="#ff0404" stroke-linecap="square" stroke-width=".384434" transform="matrix(-.69542717 .71859658 .71859658 .69542717 0 0)"/><path d="m-23.259684 30.36755h.503958v7.19286h-.503958z" fill="#ff0404" stroke="#ff0404" stroke-linecap="square" stroke-width=".384433" transform="matrix(-.71936187 -.69463552 -.69463552 .71936187 0 0)"/><path d="m40.221745-10.823463h.503958v7.192862h-.503958z" fill="#ff0404" stroke="#ff0404" stroke-linecap="square" stroke-width=".384433" transform="matrix(.00278301 .99999613 .99999613 -.00278301 0 0)"/><path d="m7.055226 36.770367h.503958v7.19286h-.503958z" fill="#ff0404" stroke="#ff0404" stroke-linecap="square" stroke-width=".384433" transform="matrix(-.99999246 .00388405 .00388405 .99999246 0 0)"/></g></svg>