<svg viewBox="0 0 60 60" xmlns="http://www.w3.org/2000/svg" xmlns:xlink="http://www.w3.org/1999/xlink"><filter id="a" color-interpolation-filters="sRGB"><feFlood flood-opacity=".498" result="flood"/><feComposite in="flood" in2="SourceGraphic" operator="in" result="composite1"/><feGaussianBlur in="composite1" result="blur" stdDeviation="1"/><feOffset dx="5" dy="3" result="offset"/><feComposite in="SourceGraphic" in2="offset" result="composite2"/></filter><g opacity=".99"><g filter="url(#a)" transform="matrix(.6 0 0 .6 -334.455 3.166)"><path d="m607.424 10-17.38 5.652-9.195 58.128 53.151-.001-9.197-58.126z" fill="#fee572"/><path d="m580.849 73.78v5.668h53.151v-5.67z" fill="#c3983c" fill-opacity=".992"/></g><g stroke="#000" stroke-linejoin="round" stroke-width="1.461" transform="matrix(.4095 0 0 .49842 39.457 -3.957)"><path d="m-23.095 37.944c-2.135 9.081-4.333 14.438-13.39 20.588 8.913 3.135 18.7 2.896 26.779 0-9.057-6.15-11.255-11.507-13.39-20.588z"/><path d="m-26.818 58.55c-.101 8.756-.37 15.837-11.545 21.428-5.232 2.786-6.963 4.476-7.615 9.333 6.785 1.493 14.837 2.21 22.883 2.179 8.046.031 16.097-.686 22.882-2.18-.651-4.856-2.382-6.546-7.615-9.332-11.174-5.591-11.443-12.672-11.545-21.428-1.24.02-2.481.02-3.722.02s-2.482 0-3.723-.02z"/></g></g></svg>