<?xml version="1.0" encoding="UTF-8" standalone="no"?>
<svg
   viewBox="0 0 60 60"
   version="1.1"
   id="svg6"
   sodipodi:docname="0FU.svg"
   xml:space="preserve"
   inkscape:version="1.3 (0e150ed6c4, 2023-07-21)"
   xmlns:inkscape="http://www.inkscape.org/namespaces/inkscape"
   xmlns:sodipodi="http://sodipodi.sourceforge.net/DTD/sodipodi-0.dtd"
   xmlns="http://www.w3.org/2000/svg"
   xmlns:svg="http://www.w3.org/2000/svg"><sodipodi:namedview
     id="namedview6"
     pagecolor="#ffffff"
     bordercolor="#666666"
     borderopacity="1.0"
     inkscape:showpageshadow="2"
     inkscape:pageopacity="0.0"
     inkscape:pagecheckerboard="0"
     inkscape:deskcolor="#d1d1d1"
     showgrid="false"
     inkscape:zoom="8"
     inkscape:cx="-47.5"
     inkscape:cy="28.875"
     inkscape:window-width="3840"
     inkscape:window-height="2054"
     inkscape:window-x="-11"
     inkscape:window-y="-11"
     inkscape:window-maximized="1"
     inkscape:current-layer="g6" /><defs
     id="defs2"><filter
       id="0FU_svg__a"
       color-interpolation-filters="sRGB"
       x="-0.046172351"
       y="-0.66541513"
       width="1.1885371"
       height="3.1625992"><feFlood
         flood-color="#000"
         flood-opacity=".498"
         result="flood"
         id="feFlood1" /><feComposite
         in="flood"
         in2="SourceGraphic"
         operator="in"
         result="composite1"
         id="feComposite1" /><feGaussianBlur
         in="composite1"
         result="blur"
         stdDeviation="1"
         id="feGaussianBlur1" /><feOffset
         dx="5"
         dy="3"
         result="offset"
         id="feOffset1" /><feComposite
         in="SourceGraphic"
         in2="offset"
         result="composite2"
         id="feComposite2" /></filter></defs><g
     opacity=".99"
     id="g6"><g
       id="path2"
       transform="matrix(0.72,0,0,0.72,-407.346,-2.0121283)"><path
         style="color:#000000;fill:#ffd7b0;stroke-width:1.00157;stroke-dasharray:none"
         d="M 607.424,10 590.044,15.652 580.849,73.78 634,73.779 624.803,15.653 Z"
         id="path1" /><path
         id="path6"
         style="color:#000000;fill:#927b64;fill-opacity:0.99215698;-inkscape-stroke:none"
         d="m 607.425,9.4759375 -0.15625,0.048828 -17.67253,5.7454425 -9.33268,59.010417 2.14518,5.166016 h 49.71355 l 2.46419,-5.166016 -9.33919,-59.010417 z m 0,1.0481775 16.93359,5.507812 9.05599,57.246094 h -51.97916 l 9.05599,-57.246094 z" /></g><path
       style="fill:#b5987c;fill-opacity:0.98431373;stroke:none;stroke-width:1.2px;stroke-linecap:butt;stroke-linejoin:miter;stroke-opacity:1"
       d="m 11.287498,51.629298 1.2375,2.596876 h 34.837495 l 1.35,-2.596876 z"
       id="path7"
       sodipodi:nodetypes="ccccc" /><g
       stroke="#000000"
       stroke-linejoin="round"
       stroke-width="1.461"
       paint-order="stroke fill markers"
       id="g5"
       transform="matrix(1.2,0,0,1.2,-6.0000048,-5.8113284)"><path
         d="m -23.095,37.944 c -2.135,9.081 -4.333,14.438 -13.39,20.588 8.913,3.135 18.7,2.896 26.779,0 -9.057,-6.15 -11.255,-11.507 -13.39,-20.588 z"
         transform="matrix(0.4095,0,0,0.49842,39.457,-3.957)"
         id="path4" /><path
         d="m -26.818,58.55 c -0.101,8.756 -0.37,15.837 -11.545,21.428 -5.232,2.786 -6.963,4.476 -7.615,9.333 6.785,1.493 14.837,2.21 22.883,2.179 8.046,0.031 16.097,-0.686 22.882,-2.18 -0.651,-4.856 -2.382,-6.546 -7.615,-9.332 -11.174,-5.591 -11.443,-12.672 -11.545,-21.428 -1.24,0.02 -2.481,0.02 -3.722,0.02 -1.241,0 -2.482,0 -3.723,-0.02 z"
         transform="matrix(0.4095,0,0,0.49842,39.457,-3.957)"
         id="path5" /></g></g></svg>
