<?xml version="1.0" encoding="UTF-8" standalone="no"?>
<svg
   viewBox="0 0 60 60"
   version="1.1"
   id="svg10"
   sodipodi:docname="0GI.svg"
   inkscape:version="1.3 (0e150ed6c4, 2023-07-21)"
   xmlns:inkscape="http://www.inkscape.org/namespaces/inkscape"
   xmlns:sodipodi="http://sodipodi.sourceforge.net/DTD/sodipodi-0.dtd"
   xmlns="http://www.w3.org/2000/svg"
   xmlns:svg="http://www.w3.org/2000/svg">
  <sodipodi:namedview
     id="namedview10"
     pagecolor="#ffffff"
     bordercolor="#666666"
     borderopacity="1.0"
     inkscape:showpageshadow="2"
     inkscape:pageopacity="0.0"
     inkscape:pagecheckerboard="0"
     inkscape:deskcolor="#d1d1d1"
     inkscape:zoom="3.7666666"
     inkscape:cx="151.85841"
     inkscape:cy="-52.831859"
     inkscape:window-width="3840"
     inkscape:window-height="2054"
     inkscape:window-x="-11"
     inkscape:window-y="-11"
     inkscape:window-maximized="1"
     inkscape:current-layer="svg10" />
  <defs
     id="defs2">
    <filter
       id="0GI_svg__a"
       color-interpolation-filters="sRGB"
       x="-0.038340097"
       y="-0.031629343"
       width="1.1565554"
       height="1.1027954">
      <feFlood
         flood-color="#000"
         flood-opacity=".498"
         result="flood"
         id="feFlood1" />
      <feComposite
         in="flood"
         in2="SourceGraphic"
         operator="in"
         result="composite1"
         id="feComposite1" />
      <feGaussianBlur
         in="composite1"
         result="blur"
         stdDeviation="1"
         id="feGaussianBlur1" />
      <feOffset
         dx="5"
         dy="3"
         result="offset"
         id="feOffset1" />
      <feComposite
         in="SourceGraphic"
         in2="offset"
         result="composite2"
         id="feComposite2" />
    </filter>
    <filter
       id="0GI_svg__a-9"
       x="-0.13505098"
       y="-0.11084446"
       width="1.3201126"
       height="1.2628796">
      <feGaussianBlur
         in="SourceAlpha"
         result="blur"
         stdDeviation="2"
         id="feGaussianBlur1-3" />
      <feOffset
         dx="2"
         dy="2"
         result="offsetBlur"
         id="feOffset1-4" />
      <feBlend
         in="SourceGraphic"
         in2="offsetBlur"
         id="feBlend1"
         mode="normal" />
    </filter>
    <filter
       id="1GI_svg__a"
       color-interpolation-filters="sRGB"
       x="-0.039077128"
       y="-0.032668173"
       width="1.1595649"
       height="1.1061716">
      <feFlood
         flood-color="#000"
         flood-opacity=".498"
         result="flood"
         id="feFlood1-9" />
      <feComposite
         in="flood"
         in2="SourceGraphic"
         operator="in"
         result="composite1"
         id="feComposite1-9" />
      <feGaussianBlur
         in="composite1"
         result="blur"
         stdDeviation="1"
         id="feGaussianBlur1-8" />
      <feOffset
         dx="5"
         dy="3"
         result="offset"
         id="feOffset1-41" />
      <feComposite
         in="SourceGraphic"
         in2="offset"
         result="composite2"
         id="feComposite2-5" />
    </filter>
  </defs>
  <g
     id="path2"
     transform="matrix(0.72,0,0,0.72,-233.01,-3.0837564)"
     style="opacity:0.99;fill-opacity:0.992">
    <path
       style="color:#000000;fill:#ececec;fill-opacity:0.988235;stroke:none;-inkscape-stroke:none"
       d="m 365.292,8.535 -20.027,6.098 -10.682,63.589 H 396 L 385.331,14.71 Z"
       id="path1" />
    <path
       id="path4"
       style="color:#000000;fill:#808080;-inkscape-stroke:none"
       d="m 365.29167,8.0102083 -0.14649,0.045573 -20.32226,6.1881507 -10.83008,64.479167 1.91732,5.166016 h 58.48632 l 2.19401,-5.166016 -10.81705,-64.401042 z m 0,1.0481771 19.59635,6.0384116 10.52083,62.626953 h -60.23437 l 10.53385,-62.701823 z" />
  </g>
  <path
     d="m 30.009277,11.020796 -0.328357,0.457317 c -0.954738,1.335099 -1.892137,2.960629 -3.363805,3.60217 l -0.615544,0.266587 0.522347,0.425889 c 0.989417,0.79976 1.617965,2.218305 1.961494,4.063823 0.0791,0.42047 0.138711,0.866949 0.189645,1.326432 -1.432644,0.578688 -2.725503,1.482481 -3.939242,2.575921 0.421565,0.266586 1.030596,0.631788 1.8282,1.058761 1.300434,0.695726 2.905394,0.931969 3.74743,0.933053 0.856123,0.0011 2.46324,-0.236243 3.762601,-0.933053 0.809514,-0.433475 1.386045,-0.79651 1.803265,-1.062013 -1.210488,-1.091272 -2.50117,-1.993981 -3.930574,-2.572669 0.05094,-0.458399 0.108384,-0.905962 0.186406,-1.326432 0.344612,-1.845518 0.970993,-3.264063 1.960409,-4.063823 l 0.524504,-0.425889 -0.615533,-0.266587 c -1.471668,-0.641541 -2.411234,-2.267071 -3.365973,-3.60217 z m -10.865156,2.39603 -0.671896,0.02492 c -0.08886,4.535225 0.2059,8.769186 1.844456,11.878281 a 8.6695837,8.669488 0 0 0 2.297436,2.79591 c 0.422648,0.153884 1.278771,0.456233 2.528271,0.827936 1.632053,0.484408 3.620639,0.959063 4.854969,0.959063 1.239747,0 3.233751,-0.473572 4.871223,-0.959063 a 45.515315,45.514811 0 0 0 2.502253,-0.814932 8.6695837,8.669488 0 0 0 2.310452,-2.808914 c 1.638543,-3.109095 1.933317,-7.343056 1.845528,-11.877198 l -0.671885,-0.026 c -0.346791,4.87442 -1.147635,7.869728 -2.774269,9.717413 -0.398798,0.454064 -0.873462,0.825768 -1.391464,1.157376 l 0.0065,0.0108 c 0,0 -1.057688,0.726069 -2.411234,1.452139 -1.353534,0.726069 -2.946575,1.06418 -4.273019,1.062012 -1.316688,-0.0011 -2.904311,-0.339193 -4.25893,-1.064179 -1.354629,-0.72607 -2.446995,-1.447805 -2.446995,-1.447805 l 0.0086,-0.01301 c -0.520149,-0.331606 -0.996981,-0.70331 -1.397944,-1.157374 -1.625553,-1.847685 -2.42749,-4.841909 -2.772102,-9.717413 m 3.088538,15.756794 c -2.518508,5.367497 -7.019112,11.605194 -9.059713,14.429279 l -0.21132,0.290428 0.184227,0.315353 c 0.944984,1.614692 2.818701,3.842751 4.787778,4.319572 l 0.313186,0.07585 0.146297,-0.335942 c 0.367381,-0.843108 1.326453,-5.154011 2.380891,-8.095134 q 0.0054,0 0.0086,0.0043 l 3.261968,-10.396861 c -1.010007,-0.320772 -1.535606,-0.509333 -1.811945,-0.606865 m 15.540231,0.0054 c -0.28502,0.0997 -0.796519,0.281758 -1.797856,0.599279 l 3.316112,10.57244 c 1.027345,2.862013 1.954991,7.092724 2.314786,7.917409 l 0.147381,0.335943 0.314271,-0.07585 c 1.967994,-0.476821 3.839541,-2.704881 4.785612,-4.319573 l 0.18531,-0.314269 -0.21132,-0.290428 C 44.787666,40.779897 40.290316,34.544367 37.77289,29.180122 Z m -2.832787,0.921133 c -1.625551,0.472487 -3.505769,0.935221 -4.941663,0.935221 -1.430487,0 -3.30094,-0.46165 -4.91999,-0.933054 l -0.659974,2.105602 c 0.37063,0.132209 0.976411,0.344611 1.854207,0.604697 1.252752,0.372787 2.779689,0.736905 3.727924,0.736905 0.950403,0 2.482747,-0.364118 3.738761,-0.736905 a 33.594637,33.594266 0 0 0 1.861783,-0.604697 z m -10.781713,2.936788 -2.373294,7.567381 c 2.247587,0.961229 5.84654,2.340761 8.214427,2.345095 2.359207,0.0032 5.946251,-1.343769 8.244772,-2.313668 l -2.38405,-7.597648 c -0.392305,0.139797 -1.000254,0.351115 -1.872631,0.609033 -1.287431,0.381457 -2.828454,0.7705 -3.988009,0.7705 -1.154136,0 -2.689741,-0.39121 -3.97392,-0.772668 -0.866959,-0.256833 -1.473835,-0.467068 -1.867213,-0.606865 z"
     enable-background="accumulate"
     overflow="visible"
     id="path2-6"
     style="stroke-width:1.0837" />
  <path
     style="fill:#929292;fill-opacity:0.988235;stroke:none;stroke-width:1.2px;stroke-linecap:butt;stroke-linejoin:miter;stroke-opacity:1"
     d="M 8.5160272,53.644956 H 51.623895 l -1.234514,2.947542 H 9.5707972 Z"
     id="path5"
     sodipodi:nodetypes="ccccc" />
</svg>
