<svg height="60" width="52.157" xmlns="http://www.w3.org/2000/svg" xmlns:xlink="http://www.w3.org/1999/xlink"><filter id="a" color-interpolation-filters="sRGB" height="1.103509" width="1.159564" x="-.039077" y="-.031849"><feFlood flood-opacity=".498039" result="flood"/><feComposite in="flood" in2="SourceGraphic" operator="in" result="composite1"/><feGaussianBlur in="composite1" result="blur" stdDeviation="1"/><feOffset dx="5" dy="3" result="offset"/><feComposite in="SourceGraphic" in2="offset" operator="over" result="composite2"/></filter><g fill-opacity=".992157" filter="url(#a)" opacity=".99" transform="matrix(.6 0 0 .6 -143.5467 2.593295)"><path d="m-10.911031 7.4113606-13.007275 4.1293604-6.930693 42.754752 39.8733542.000027-6.9308349-42.755646z" fill="#efc000" opacity="1" transform="matrix(1.54030991604 0 0 1.48636468597 299.517023433 -3.01598408262)"/><path d="m252 77.686889v5.66852l61.41733.00027v-5.66875z" fill="#937800" opacity="1"/></g><g transform="matrix(-.61770256 0 0 .61770256 530.7659 -140.57377)"><g fill-opacity=".992157" stroke="#000" stroke-miterlimit="10" stroke-opacity=".992157" transform="matrix(.36807682 .12885256 -.10790175 .3082293 422.44124 27.198766)"><path d="m1211.7284 289.16648-90.6893 35.05433s-8.0242 8.93392-2.8931 21.42532l.063.30499.063.30498c4.9395 12.5585 16.4998 12.34665 16.4998 12.34665 37.098-28.13428 64.2438-37.31827 85.1189-49.18751-.192-4.06467-1.8458-7.47907-2.8249-11.1936-1.3824-3.19489-2.9322-6.31529-5.3374-9.05516z" stroke-width="2.6533"/><ellipse cx="1017.132" cy="677.90155" rx="3.753881" ry="3.661743" stroke-width="3.0061" transform="matrix(.95110508 -.30886749 .22204229 .97503704 0 0)"/></g><g stroke-linecap="square"><path d="m823.54022 279.64695-.0847 8.1085-15.97615 1.61026c-6.84938 9.49105-8.0441 9.76512-16.36913 8.97888 7.77727-2.41317 10.71684-11.94992 15.22286-18.58501z" fill-opacity=".992157" stroke="#000" stroke-opacity=".992157" stroke-width=".711153"/><circle cx="-843.38184" cy="216.2213" fill-opacity=".992157" r="10.309577" stroke="#efc000" stroke-linejoin="bevel" stroke-opacity=".988235" stroke-width=".693382" transform="matrix(-.99608337 -.08841902 -.08841902 .99608337 0 0)"/><circle cx="820.96057" cy="289.9028" fill="#efc000" fill-opacity=".988235" r="6.741508" stroke="#efc000" stroke-opacity=".988235" stroke-width=".71606"/><path d="m-363.00272 784.50189h1.005217v14.347191h-1.005217z" fill-opacity=".992157" stroke="#000" stroke-opacity=".992157" stroke-width=".76681" transform="matrix(-.69542718 .71859658 .71859657 .69542718 0 0)"/><path d="m-792.64911-368.99866h1.005217v14.347191h-1.005217z" fill-opacity=".992157" stroke="#000" stroke-opacity=".992157" stroke-width=".766807" transform="matrix(-.71936186 -.69463552 -.69463554 .71936185 0 0)"/><path d="m291.90939 813.04742h1.005217v14.347193h-1.005217z" fill-opacity=".992157" stroke="#000" stroke-opacity=".992157" stroke-width=".766808" transform="matrix(.002783 .99999613 .99999613 -.002783 0 0)"/><path d="m-820.33014 285.94394h1.005217v14.347191h-1.005217z" fill-opacity=".992157" stroke="#000" stroke-opacity=".992157" stroke-width=".766808" transform="matrix(-.99999246 .00388406 .00388405 .99999246 0 0)"/></g></g></svg>