<?xml version="1.0" encoding="UTF-8" standalone="no"?>
<svg
   viewBox="0 0 60 60"
   version="1.1"
   id="svg25"
   sodipodi:docname="0HI.svg"
   inkscape:version="1.3 (0e150ed6c4, 2023-07-21)"
   xmlns:inkscape="http://www.inkscape.org/namespaces/inkscape"
   xmlns:sodipodi="http://sodipodi.sourceforge.net/DTD/sodipodi-0.dtd"
   xmlns="http://www.w3.org/2000/svg"
   xmlns:svg="http://www.w3.org/2000/svg">
  <sodipodi:namedview
     id="namedview25"
     pagecolor="#ffffff"
     bordercolor="#666666"
     borderopacity="1.0"
     inkscape:showpageshadow="2"
     inkscape:pageopacity="0.0"
     inkscape:pagecheckerboard="0"
     inkscape:deskcolor="#d1d1d1"
     inkscape:zoom="7.5333333"
     inkscape:cx="18.318584"
     inkscape:cy="-12.743363"
     inkscape:window-width="3840"
     inkscape:window-height="2054"
     inkscape:window-x="-11"
     inkscape:window-y="-11"
     inkscape:window-maximized="1"
     inkscape:current-layer="svg25"
     showgrid="false" />
  <defs
     id="defs2">
    <filter
       id="0HI_svg__a"
       color-interpolation-filters="sRGB"
       x="-0.036952686"
       y="-0.030672713"
       width="1.1508901"
       height="1.0996863">
      <feFlood
         flood-color="#000"
         flood-opacity=".498"
         result="flood"
         id="feFlood1" />
      <feComposite
         in="flood"
         in2="SourceGraphic"
         operator="in"
         result="composite1"
         id="feComposite1" />
      <feGaussianBlur
         in="composite1"
         result="blur"
         stdDeviation="1"
         id="feGaussianBlur1" />
      <feOffset
         dx="5"
         dy="3"
         result="offset"
         id="feOffset1" />
      <feComposite
         in="SourceGraphic"
         in2="offset"
         result="composite2"
         id="feComposite2" />
    </filter>
    <filter
       id="1HI_svg__a"
       color-interpolation-filters="sRGB"
       x="-0.037629351"
       y="-0.031650578"
       width="1.1536532"
       height="1.1028644">
      <feFlood
         flood-color="#000"
         flood-opacity=".498"
         result="flood"
         id="feFlood1-4" />
      <feComposite
         in="flood"
         in2="SourceGraphic"
         operator="in"
         result="composite1"
         id="feComposite1-7" />
      <feGaussianBlur
         in="composite1"
         result="blur"
         stdDeviation="1"
         id="feGaussianBlur1-6" />
      <feOffset
         dx="5"
         dy="3"
         result="offset"
         id="feOffset1-0" />
      <feComposite
         in="SourceGraphic"
         in2="offset"
         result="composite2"
         id="feComposite2-6" />
    </filter>
  </defs>
  <g
     id="path2"
     transform="matrix(0.72,0,0,0.72,-56.320801,-3.549328)"
     style="opacity:0.99;fill-opacity:0.992">
    <path
       style="color:#000000;fill:#fcd2e3;fill-opacity:0.988235;-inkscape-stroke:none"
       d="M 119.89,8 98.188,15.118 88,80.049 h 63.78 l -10.19,-64.93 z"
       id="path1" />
    <path
       id="path4"
       style="color:#000000;fill:#dd7da3;fill-opacity:0.984314;-inkscape-stroke:none"
       d="m 119.89,7.4735677 -0.15625,0.052083 -21.992188,7.2135423 -10.32552,65.810547 v 0 l 2.538176,5.16927 h 59.324032 l 3.08571,-5.16927 v 0 L 142.03844,14.739193 Z m 0,1.0514323 21.25326,6.972656 10.05208,64.052735 H 88.584661 L 98.63349,15.497656 Z"
       sodipodi:nodetypes="ccccccccccccccccc" />
  </g>
  <path
     id="path6769"
     style="opacity:0.99;fill:#020101;fill-opacity:1;stroke:none;stroke-width:0.755051px;stroke-linecap:butt;stroke-linejoin:round;stroke-opacity:1"
     d="m 44.911439,14.336763 v 9.54e-4 c -10.15538,1.109682 -19.799945,1.109682 -29.985157,0.01873 -0.07482,-0.0073 -0.04988,0.100956 -0.03746,0.155117 0.560807,2.257547 0.751719,2.536757 2.317207,4.197699 l 25.42067,-0.0073 c 1.623954,-1.59293 1.763559,-1.915096 2.329139,-4.185768 0.01253,-0.06347 0.02494,-0.190914 -0.03734,-0.190914 z m -27.739901,5.530511 v 19.321355 h 1.607249 c 0.584671,-5.622389 5.355112,-10.026515 11.129038,-10.026515 5.773924,0 10.543172,4.404126 11.126649,10.026515 h 1.60725 V 19.867274 Z m 12.735925,10.457262 c -5.537671,-7.15e-4 -10.027704,4.488843 -10.028898,10.026515 -7.15e-4,5.538864 4.490033,10.0289 10.028898,10.0289 5.537672,-2.39e-4 10.027708,-4.490036 10.026514,-10.0289 -2.35e-4,-5.537672 -4.488842,-10.026515 -10.026514,-10.026515 z m -0.9307,3.499675 v 4.278839 l -3.023585,-3.025972 c 0.882972,-0.668196 1.927028,-1.09775 3.023585,-1.252867 z m 1.863788,0 c 1.09775,0.155117 2.137032,0.584671 3.023585,1.252867 l -3.023585,3.025972 z m -6.20348,2.57136 3.024778,3.025972 h -4.277646 c 0.155117,-1.097751 0.584672,-2.138226 1.252868,-3.025972 z m 10.545559,0 c 0.668195,0.882973 1.097749,1.928221 1.252867,3.025972 h -4.278839 z m -17.900124,3.924456 c -0.644331,0.0034 -1.271958,0.0091 -1.271958,0.0091 l -0.954565,1.637098 v 1.84947 h 4.276452 c -0.51308,-0.894904 -0.763652,-2.329138 -0.680128,-3.486548 -0.06229,-0.01372 -0.727856,-0.01218 -1.368607,-0.0091 z m 25.2504,0 c -0.644332,-0.0031 -1.304176,-0.0037 -1.368609,0.0091 h -8.32e-4 c 0.07482,1.15741 -0.167049,2.595223 -0.680127,3.486548 h 4.277645 v -1.84945 l -0.954565,-1.637078 c 0,0 -0.632399,-0.0059 -1.271958,-0.0091 z m -19.149063,0.954565 h 4.277645 l -3.023585,3.025972 c -0.668196,-0.882973 -1.09775,-1.928221 -1.25406,-3.025972 z m 8.773648,0 h 4.277645 c -0.155117,1.097751 -0.584671,2.139419 -1.255254,3.025972 z m -3.181088,1.318493 v 4.276453 c -1.097751,-0.155118 -2.13584,-0.584672 -3.0212,-1.252867 z m 1.863787,0 3.023586,3.023586 c -0.882972,0.668195 -1.927029,1.097749 -3.023586,1.252867 z"
     sodipodi:nodetypes="ccscccscccccscccccccccccccccccccccccccscccccssccccccscccccccccccccccc" />
  <path
     style="fill:#e394b6;fill-opacity:0.976471;stroke:none;stroke-width:1.2px;stroke-linecap:butt;stroke-linejoin:miter;stroke-opacity:1"
     d="m 7.4999993,54.659518 1.433628,2.947296 H 50.488937 l 1.911505,-2.947296 z"
     id="path5"
     sodipodi:nodetypes="ccccc" />
</svg>
