<?xml version="1.0" encoding="UTF-8" standalone="no"?>
<svg
   viewBox="0 0 60 60"
   version="1.1"
   id="svg10"
   sodipodi:docname="0IronCannon.svg"
   inkscape:version="1.3 (0e150ed6c4, 2023-07-21)"
   xml:space="preserve"
   xmlns:inkscape="http://www.inkscape.org/namespaces/inkscape"
   xmlns:sodipodi="http://sodipodi.sourceforge.net/DTD/sodipodi-0.dtd"
   xmlns="http://www.w3.org/2000/svg"
   xmlns:svg="http://www.w3.org/2000/svg"><sodipodi:namedview
     id="namedview10"
     pagecolor="#ffffff"
     bordercolor="#666666"
     borderopacity="1.0"
     inkscape:showpageshadow="2"
     inkscape:pageopacity="0.0"
     inkscape:pagecheckerboard="0"
     inkscape:deskcolor="#d1d1d1"
     inkscape:zoom="10.653742"
     inkscape:cx="11.920694"
     inkscape:cy="28.722303"
     inkscape:window-width="3840"
     inkscape:window-height="2054"
     inkscape:window-x="-11"
     inkscape:window-y="-11"
     inkscape:window-maximized="1"
     inkscape:current-layer="svg10" /><defs
     id="defs2"><filter
       id="0GI_svg__a"
       color-interpolation-filters="sRGB"
       x="-0.038340097"
       y="-0.031629343"
       width="1.1565554"
       height="1.1027954"><feFlood
         flood-color="#000"
         flood-opacity=".498"
         result="flood"
         id="feFlood1" /><feComposite
         in="flood"
         in2="SourceGraphic"
         operator="in"
         result="composite1"
         id="feComposite1" /><feGaussianBlur
         in="composite1"
         result="blur"
         stdDeviation="1"
         id="feGaussianBlur1" /><feOffset
         dx="5"
         dy="3"
         result="offset"
         id="feOffset1" /><feComposite
         in="SourceGraphic"
         in2="offset"
         result="composite2"
         id="feComposite2" /></filter><filter
       id="0GI_svg__a-9"
       x="-0.13505098"
       y="-0.11084446"
       width="1.3201126"
       height="1.2628796"><feGaussianBlur
         in="SourceAlpha"
         result="blur"
         stdDeviation="2"
         id="feGaussianBlur1-3" /><feOffset
         dx="2"
         dy="2"
         result="offsetBlur"
         id="feOffset1-4" /><feBlend
         in="SourceGraphic"
         in2="offsetBlur"
         id="feBlend1"
         mode="normal" /></filter><filter
       id="1GI_svg__a"
       color-interpolation-filters="sRGB"
       x="-0.039077128"
       y="-0.032668173"
       width="1.1595649"
       height="1.1061716"><feFlood
         flood-color="#000"
         flood-opacity=".498"
         result="flood"
         id="feFlood1-9" /><feComposite
         in="flood"
         in2="SourceGraphic"
         operator="in"
         result="composite1"
         id="feComposite1-9" /><feGaussianBlur
         in="composite1"
         result="blur"
         stdDeviation="1"
         id="feGaussianBlur1-8" /><feOffset
         dx="5"
         dy="3"
         result="offset"
         id="feOffset1-41" /><feComposite
         in="SourceGraphic"
         in2="offset"
         result="composite2"
         id="feComposite2-5" /></filter></defs><g
     id="path2"
     transform="matrix(0.72,0,0,0.72,-233.01,-3.0837564)"
     style="opacity:0.99;fill-opacity:0.992"><path
       style="color:#000000;fill:#9c9c9c;fill-opacity:1;stroke:none;-inkscape-stroke:none"
       d="m 365.292,8.535 -20.027,6.098 -10.682,63.589 H 396 L 385.331,14.71 Z"
       id="path1" /><path
       id="path4"
       style="color:#000000;fill:#474747;-inkscape-stroke:none;fill-opacity:1"
       d="m 365.29167,8.0102083 -0.14649,0.045573 -20.32226,6.1881507 -10.83008,64.479167 1.91732,5.166016 h 58.48632 l 2.19401,-5.166016 -10.81705,-64.401042 z m 0,1.0481771 19.59635,6.0384116 10.52083,62.626953 h -60.23437 l 10.53385,-62.701823 z" /></g><path
     style="fill:#5d5d5d;fill-opacity:1;stroke:none;stroke-width:1.2px;stroke-linecap:butt;stroke-linejoin:miter;stroke-opacity:1"
     d="M 8.5160272,53.644956 H 51.623895 l -1.234514,2.947542 H 9.5707972 Z"
     id="path5"
     sodipodi:nodetypes="ccccc" /><path
     style="fill:#000000;stroke-width:0.0381724"
     d="m 13.593204,47.933704 c -1.03887,-0.17254 -1.88462,-0.74615 -2.52875,-1.71506 -0.22636,-0.3405 -0.57381,-1.03898 -0.54899,-1.10365 0.0514,-0.13387 3.21434,-4.371358 4.82873,-6.469128 2.47138,-3.211353 4.64048,-5.916797 6.98862,-8.716642 0.5784,-0.689658 1.08078,-1.291961 1.11642,-1.338452 0.0592,-0.07717 0.0598,-0.09903 0.007,-0.251246 -0.0735,-0.21335 -0.0406,-0.41342 0.0926,-0.563571 0.17515,-0.197412 1.34227,-1.194166 1.44322,-1.232546 0.24614,-0.09358 0.44644,-0.02236 0.69472,0.246973 0.0886,0.09609 0.16815,0.174709 0.17684,0.174709 0.009,0 0.60526,-0.64806 1.32571,-1.440129 2.16614,-2.381486 2.67111,-2.919415 3.82836,-4.078192 1.92349,-1.926043 3.47931,-3.247554 4.98243,-4.232094 1.15086,-0.75381 1.28884,-0.852109 1.53064,-1.090439 0.34567,-0.340723 0.51831,-0.715692 0.75642,-1.642941 l 0.10329,-0.402211 0.75226,-0.999019 c 0.85162,-1.130967 0.8266,-1.111023 1.21238,-0.966687 0.59332,0.22199 1.44369,0.906589 2.42145,1.949416 1.20757,1.287932 1.96262,2.438116 1.80843,2.754801 -0.0239,0.04897 -0.4321,0.433681 -0.90722,0.854901 l -0.86386,0.765856 -0.59168,0.291876 c -0.66589,0.328488 -0.99825,0.562946 -1.22146,0.861676 -0.16253,0.21752 -0.53447,0.929576 -0.53447,1.02321 0,0.03083 0.0825,0.145241 0.18339,0.254209 0.43753,0.47266 0.74796,0.898491 0.95142,1.30512 l 0.1146,0.229036 -4.99198,5.648585 -4.99199,5.648585 0.0538,0.104019 c 0.079,0.152703 0.0659,0.345796 -0.0334,0.493161 -0.0853,0.126508 -1.04502,1.001019 -1.34043,1.221368 -0.11925,0.08895 -0.18761,0.110928 -0.34355,0.110459 -0.10708,-3.06e-4 -0.21767,-0.01516 -0.24577,-0.03298 -0.0351,-0.02229 -0.22583,0.09277 -0.61076,0.368456 -1.65754,1.187142 -3.75802,2.489189 -7.37346,4.57068 -0.97626,0.562055 -2.22163,1.279329 -2.7675,1.593937 -0.67776,0.39063 -1.24366,0.753394 -1.78457,1.143984 -0.43564,0.31458 -0.79207,0.5788 -0.79207,0.58716 0,0.008 0.10361,0.13862 0.23025,0.28944 0.45945,0.5472 0.57761,0.96547 0.41997,1.48661 -0.3762,1.2437 -1.17122,2.03916 -2.2614,2.26267 -0.27242,0.0559 -1.03719,0.0761 -1.28993,0.0341 z m 1.1189,-0.98448 c 0.37235,-0.0789 0.58333,-0.19496 0.86841,-0.4777 0.28327,-0.28096 0.44004,-0.53647 0.5892,-0.96035 0.0991,-0.28154 0.1005,-0.29679 0.0398,-0.42468 -0.13028,-0.27454 -0.5564,-0.70632 -1.16488,-1.18035 -0.0727,-0.0566 -0.1241,-0.10947 -0.11424,-0.11742 0.19151,-0.15451 2.67907,-1.921906 2.84268,-2.019699 0.12597,-0.0753 1.10509,-0.639661 2.17583,-1.254145 3.97585,-2.281689 5.58115,-3.241838 7.19551,-4.303737 0.90305,-0.594006 1.8892,-1.282038 1.92837,-1.345408 0.0116,-0.0188 -1.07296,-1.284496 -2.41016,-2.812684 -1.33721,-1.528189 -2.44245,-2.791533 -2.45611,-2.80743 -0.0271,-0.03156 -0.10529,0.05868 -1.51314,1.746665 -2.77725,3.329862 -5.68615,7.011472 -8.55055,10.821896 -1.25102,1.664182 -2.49439,3.347612 -2.51803,3.409212 -0.0213,0.0556 0.19054,0.41811 0.41311,0.70685 0.3926,0.50929 0.97558,0.89973 1.51712,1.01604 0.32672,0.0702 0.83368,0.0715 1.15707,0.003 z m 21.1028,-19.319892 c 2.58994,-2.930858 4.71308,-5.340019 4.71809,-5.353688 0.0201,-0.05481 -0.36591,-0.517206 -0.95285,-1.141399 -0.34055,-0.362162 -0.62835,-0.658474 -0.63956,-0.658474 -0.0112,0 -1.3086,1.360614 -2.8831,3.023594 -2.38429,2.518278 -2.86128,3.039805 -2.85408,3.120599 0.005,0.05335 0.02,0.288618 0.0338,0.52281 0.04,0.677535 0.21435,0.465232 -2.24826,2.738177 -0.77081,0.711445 -1.40147,1.30873 -1.40147,1.327303 0,0.02804 1.48641,1.749913 1.51062,1.749913 0.004,0 2.12689,-2.397973 4.71682,-5.328835 z"
     id="path3" /></svg>
