<?xml version="1.0" encoding="UTF-8" standalone="no"?>
<svg
   viewBox="0 0 60 60"
   version="1.1"
   id="svg8"
   sodipodi:docname="0KE.svg"
   xml:space="preserve"
   inkscape:version="1.3 (0e150ed6c4, 2023-07-21)"
   xmlns:inkscape="http://www.inkscape.org/namespaces/inkscape"
   xmlns:sodipodi="http://sodipodi.sourceforge.net/DTD/sodipodi-0.dtd"
   xmlns="http://www.w3.org/2000/svg"
   xmlns:svg="http://www.w3.org/2000/svg"><sodipodi:namedview
     id="namedview8"
     pagecolor="#ffffff"
     bordercolor="#666666"
     borderopacity="1.0"
     inkscape:showpageshadow="2"
     inkscape:pageopacity="0.0"
     inkscape:pagecheckerboard="0"
     inkscape:deskcolor="#d1d1d1"
     inkscape:zoom="7.533333"
     inkscape:cx="-53.495578"
     inkscape:cy="48.584073"
     inkscape:window-width="3840"
     inkscape:window-height="2054"
     inkscape:window-x="3829"
     inkscape:window-y="-11"
     inkscape:window-maximized="1"
     inkscape:current-layer="svg8" /><defs
     id="defs2" /><path
     style="color:#000000;opacity:0.99;fill:#ffd7b0;stroke-width:0.72;-inkscape-stroke:none"
     d="m 30.001652,3.9110722 -13.86576,4.24224 -7.39512,44.2317608 h 42.5196 L 43.873892,8.2065922 Z"
     id="path1" /><path
     id="path4"
     style="color:#000000;opacity:0.99;fill:#927b64;fill-opacity:0.99215686;stroke-width:0.72;-inkscape-stroke:none"
     d="m 30.00117,3.5332034 -0.105466,0.032813 -14.078909,4.3078123 -7.502342,44.8710943 1.851113,3.721874 h 39.34355 L 51.685547,52.744923 44.192579,7.9277347 Z m 0,0.7546875 13.553906,4.1953123 7.27969,43.5421888 H 9.165234 L 16.454298,8.4316411 Z"
     sodipodi:nodetypes="ccccccccccccccc" /><path
     id="path7388-6"
     style="color:#000000;font-style:normal;font-variant:normal;font-weight:normal;font-stretch:normal;font-size:medium;line-height:normal;font-family:sans-serif;font-variant-ligatures:normal;font-variant-position:normal;font-variant-caps:normal;font-variant-numeric:normal;font-variant-alternates:normal;font-variant-east-asian:normal;font-feature-settings:normal;font-variation-settings:normal;text-indent:0;text-align:start;text-decoration:none;text-decoration-line:none;text-decoration-style:solid;text-decoration-color:#000000;letter-spacing:normal;word-spacing:normal;text-transform:none;writing-mode:lr-tb;direction:ltr;text-orientation:mixed;dominant-baseline:auto;baseline-shift:baseline;text-anchor:start;white-space:normal;shape-padding:0;shape-margin:0;inline-size:0;clip-rule:nonzero;display:inline;overflow:visible;visibility:visible;opacity:0.99;isolation:auto;mix-blend-mode:normal;color-interpolation:sRGB;color-interpolation-filters:linearRGB;solid-color:#000000;solid-opacity:1;vector-effect:none;fill:#000000;fill-opacity:0.992157;fill-rule:nonzero;stroke:none;stroke-width:0.694118;stroke-linecap:butt;stroke-linejoin:miter;stroke-miterlimit:4;stroke-dasharray:none;stroke-dashoffset:0;stroke-opacity:1;color-rendering:auto;image-rendering:auto;shape-rendering:auto;text-rendering:auto;enable-background:accumulate;stop-color:#000000"
     d="M 28.047963,8.008021 27.74562,8.277553 c -0.807472,0.7187868 -1.155679,1.6281192 -1.324219,2.552344 -0.147554,0.808746 -0.172738,1.632354 -0.255468,2.428124 L 25.523745,13.171297 22.34562,9.4259842 22.106557,9.8783278 c -0.918067,1.7318892 -0.575545,3.6369872 -0.567187,5.3601572 -1.370427,2.829724 -2.328817,5.105682 -2.175,7.757812 -1.819507,2.039516 -3.437805,4.221357 -4.490625,6.759375 l -0.01176,0.02578 -0.0047,0.02578 c -0.300688,1.259918 -0.588133,2.60129 -0.06328,3.965625 l 0.04453,0.119532 0.696094,0.384375 c 0.406147,0.84159 0.696746,1.427949 1.197656,1.78125 0.441647,0.311864 0.997211,0.371936 1.755468,0.307032 l 0.564845,-0.794532 c 0.46,3.87e-4 0.913819,0.02884 1.361718,0.07969 l -0.864843,1.216405 0.182812,0.442969 0.304688,-0.09844 c 0.998216,-0.321435 1.692721,-0.733739 2.21953,-1.21875 2.006704,0.519904 3.848494,1.464389 5.446876,2.507813 -0.07684,0.0708 -0.15668,0.152953 -0.232032,0.217968 -2.43501,1.856989 -2.959139,3.702769 -3.302344,6.61875 l -0.02578,0.229687 0.203907,0.1125 c 5.840029,3.241151 10.24199,4.124802 13.867969,3.719532 3.625957,-0.405684 6.443267,-2.09091 9.124218,-3.883593 l 0.1875,-0.126563 -0.03984,-0.222657 c -0.232766,-1.33159 -0.41901,-2.297314 -0.921094,-4.136719 l -0.0024,-0.0047 v -0.0047 C 45.290417,36.741315 45.0579,34.077618 44.86437,26.645521 v -0.0047 -0.0071 c -0.187091,-2.834705 -1.704981,-6.1524 -4.082813,-8.749179 -2.329345,-2.543713 -5.515788,-4.371678 -9.100781,-4.270313 z m 5.772657,8.547657 h 0.0024 c 0.189216,0.01495 0.363637,0.06643 0.539063,0.117192 0.349832,0.10194 0.70281,0.255399 1.054687,0.435937 0.70392,0.361049 1.387856,0.81433 1.844532,1.2 2.636131,2.22633 4.120382,4.322666 4.748437,8.069531 l 0.0024,0.0164 0.0024,0.01406 c 0.722987,5.753124 0.256292,12.676736 2.257031,17.11875 L 42.879383,44.15568 C 42.536009,43.394134 42.25784,42.58824 42.030776,41.748647 40.757163,37.039314 41.084423,31.290208 40.500307,26.619741 c -0.58328,-3.465605 -1.719824,-5.027355 -4.225781,-7.14375 -0.320058,-0.270282 -0.967184,-0.70571 -1.55625,-1.007813 -0.294092,-0.151109 -0.57849,-0.271139 -0.782813,-0.330468 -0.204331,-0.05939 -0.323631,-0.0066 -0.178124,-0.06328 l -0.557813,-1.420319 c 0.230725,-0.09022 0.431581,-0.1131 0.621094,-0.09844 z m -9.803907,2.68125 c 0.111492,0 0.227034,0.0042 0.34922,0.01176 l 0.651562,0.03984 -0.182812,0.625781 c -0.218114,0.744602 -0.263074,1.366483 -0.6,1.933594 -0.168388,0.283988 -0.446022,0.53691 -0.796876,0.665625 -0.351,0.128347 -0.751835,0.153336 -1.246874,0.11484 l -0.64922,-0.04922 0.192188,-0.621094 c 0.224126,-0.728759 0.277292,-1.346897 0.614062,-1.907811 0.168389,-0.28092 0.438849,-0.5319 0.785157,-0.665626 0.259622,-0.0999 0.549462,-0.145163 0.883593,-0.147656 z m 8.56875,4.685156 c 0.03079,0.312382 0.0013,0.699948 -0.0539,1.204687 -0.05426,0.504579 -0.140906,1.100872 -0.257811,1.71797 -0.217525,1.155618 -0.512703,2.352166 -0.946876,3.19453 l 0.0586,0.269532 c 0,0.02362 0.01932,0.358398 0.02813,0.761718 0.0092,0.417363 -0.007,0.92663 -0.02344,1.00547 l -0.0047,0.02344 v 0.0211 c -0.115188,1.754133 -1.430826,3.919741 -2.800781,5.472656 4.071552,-0.420439 8.093298,1.220774 9.36797,9.24375 -5.061708,-1.547311 -8.822067,-2.734438 -10.317189,-9.1125 0.292306,-0.05146 0.585957,-0.09228 0.878907,-0.124218 -1.572402,-1.043244 -3.400701,-2.021669 -5.428125,-2.622656 0.519028,-0.815999 0.897085,-1.743102 1.579687,-2.817188 2.293534,-1.06198 3.336365,-1.62205 5.610938,-2.475 l 0.02813,-0.0094 -0.07031,-0.03984 c 0.324018,-0.565479 0.680858,-1.830025 0.902343,-3.004687 0.111492,-0.587349 0.195934,-1.160029 0.246094,-1.628906 0.04986,-0.469085 0.0595,-0.860626 0.04922,-0.970313 z m -15.161718,5.861719 0.667968,0.705468 c -0.562951,0.532667 -1.009348,0.869627 -1.174218,1.071095 -0.08213,0.100908 -0.0908,0.136997 -0.09376,0.178125 -0.0028,0.04122 0.0084,0.13112 0.103128,0.30703 l -0.857812,0.457032 C 15.922375,32.22973 15.83552,31.954908 15.85577,31.670521 c 0.02053,-0.284508 0.153009,-0.532796 0.311719,-0.726561 0.31697,-0.387438 0.740969,-0.672671 1.25625,-1.160157 z m 3.407812,3.285938 0.942188,0.670312 -0.571875,0.80625 c -0.431493,-0.06938 -0.869439,-0.119376 -1.314844,-0.147656 z m 7.739063,5.402343 0.771093,0.996094 c 4.32927,2.553845 5.336276,3.988668 6.370313,5.540625 l 1.10625,0.75 -0.297656,-1.183593 c -1.105875,-1.659777 -2.312349,-3.235527 -6.752344,-5.854689 z" /><path
     style="fill:#b5987c;fill-opacity:0.98431373;stroke:none;stroke-width:1.2px;stroke-linecap:butt;stroke-linejoin:miter;stroke-opacity:1"
     d="m 9.289376,52.746235 1.406455,2.878838 H 48.94058 l 1.800546,-2.878838 z"
     id="path7"
     sodipodi:nodetypes="ccccc" /></svg>
