<?xml version="1.0" encoding="UTF-8" standalone="no"?>
<svg
   viewBox="0 0 60 60"
   version="1.1"
   id="svg14"
   sodipodi:docname="0KI.svg"
   inkscape:version="1.3 (0e150ed6c4, 2023-07-21)"
   xmlns:inkscape="http://www.inkscape.org/namespaces/inkscape"
   xmlns:sodipodi="http://sodipodi.sourceforge.net/DTD/sodipodi-0.dtd"
   xmlns="http://www.w3.org/2000/svg"
   xmlns:svg="http://www.w3.org/2000/svg">
  <sodipodi:namedview
     id="namedview14"
     pagecolor="#ffffff"
     bordercolor="#666666"
     borderopacity="1.0"
     inkscape:showpageshadow="2"
     inkscape:pageopacity="0.0"
     inkscape:pagecheckerboard="0"
     inkscape:deskcolor="#d1d1d1"
     inkscape:zoom="10.653742"
     inkscape:cx="-28.440711"
     inkscape:cy="0"
     inkscape:window-width="3840"
     inkscape:window-height="2054"
     inkscape:window-x="-11"
     inkscape:window-y="-11"
     inkscape:window-maximized="1"
     inkscape:current-layer="svg14" />
  <defs
     id="defs2">
    <filter
       id="0KI_svg__a"
       color-interpolation-filters="sRGB"
       x="-0.038340097"
       y="-0.031629343"
       width="1.1565554"
       height="1.1027954">
      <feFlood
         flood-color="#000"
         flood-opacity=".498"
         result="flood"
         id="feFlood1" />
      <feComposite
         in="flood"
         in2="SourceGraphic"
         operator="in"
         result="composite1"
         id="feComposite1" />
      <feGaussianBlur
         in="composite1"
         result="blur"
         stdDeviation="1"
         id="feGaussianBlur1" />
      <feOffset
         dx="5"
         dy="3"
         result="offset"
         id="feOffset1" />
      <feComposite
         in="SourceGraphic"
         in2="offset"
         result="composite2"
         id="feComposite2" />
    </filter>
    <filter
       id="0KI_svg__a-5"
       x="-0.13506518"
       y="-0.11085473"
       width="1.3201415"
       height="1.2628989">
      <feGaussianBlur
         in="SourceAlpha"
         result="blur"
         stdDeviation="2"
         id="feGaussianBlur1-5" />
      <feOffset
         dx="2"
         dy="2"
         result="offsetBlur"
         id="feOffset1-5" />
      <feBlend
         in="SourceGraphic"
         in2="offsetBlur"
         id="feBlend1"
         mode="normal" />
    </filter>
  </defs>
  <g
     id="path2"
     transform="matrix(0.72,0,0,0.72,-173.55,-2.6985564)"
     style="opacity:0.99;fill-opacity:0.992">
    <path
       style="color:#000000;fill:#efc000;fill-opacity:0.992;-inkscape-stroke:none"
       d="M 282.71,8 262.675,14.138 252,77.687 h 61.417 l -10.675,-63.55 z"
       id="path1" />
    <path
       id="path4"
       style="color:#000000;fill:#937700;fill-opacity:0.988235;-inkscape-stroke:none"
       d="m 282.71159,7.4752083 -0.14649,0.045573 -20.33203,6.2304687 -10.82356,64.436849 1.76327,5.166016 h 58.79771 l 2.03667,-5.166016 -10.82357,-64.436849 z m 0,1.0481771 19.58984,6.0026046 10.52409,62.66276 h -60.23437 l 10.52734,-62.66276 z"
       sodipodi:nodetypes="ccccccccccccccc" />
  </g>
  <path
     id="path7739-8-5"
     style="color:#000000;font-style:normal;font-variant:normal;font-weight:normal;font-stretch:normal;font-size:medium;line-height:normal;font-family:sans-serif;font-variant-ligatures:normal;font-variant-position:normal;font-variant-caps:normal;font-variant-numeric:normal;font-variant-alternates:normal;font-variant-east-asian:normal;font-feature-settings:normal;font-variation-settings:normal;text-indent:0;text-align:start;text-decoration:none;text-decoration-line:none;text-decoration-style:solid;text-decoration-color:#000000;letter-spacing:normal;word-spacing:normal;text-transform:none;writing-mode:lr-tb;direction:ltr;text-orientation:mixed;dominant-baseline:auto;baseline-shift:baseline;text-anchor:start;white-space:normal;shape-padding:0;shape-margin:0;inline-size:0;clip-rule:nonzero;display:inline;overflow:visible;visibility:visible;opacity:0.99;isolation:auto;mix-blend-mode:normal;color-interpolation:sRGB;color-interpolation-filters:linearRGB;solid-color:#000000;solid-opacity:1;vector-effect:none;fill:#000000;fill-opacity:0.992157;fill-rule:nonzero;stroke:none;stroke-width:1.57733;stroke-linecap:butt;stroke-linejoin:miter;stroke-miterlimit:4;stroke-dasharray:none;stroke-dashoffset:0;stroke-opacity:1;color-rendering:auto;image-rendering:auto;shape-rendering:auto;text-rendering:auto;enable-background:accumulate;stop-color:#000000"
     d="m 18.609828,10.761181 c -0.490041,0.147047 -2.102076,0.46012 -1.147302,1.090199 0.398564,0.37873 1.100799,0.932378 1.518005,1.62709 1.889567,3.146596 1.337956,6.912824 1.473888,9.26029 -1.155523,-0.09917 -3.766915,-0.272549 -4.17381,0.705654 l -2.570943,4.456066 c 2.188132,-0.317348 4.937572,-0.752332 6.501416,1.19159 1.060964,0.577247 1.78189,3.434588 2.481763,3.29315 l 1.509279,-4.496794 c 1.441401,0.217149 1.276747,1.009834 0.777646,2.039248 0.92758,1.060617 3.534161,1.143545 5.183457,1.203562 1.553408,-0.176798 4.14803,-0.242114 4.936665,-1.28153 -0.461521,-0.975639 -0.682706,-1.768188 0.725654,-1.963076 l 1.646131,4.696812 c 1.085438,-1.645557 1.822437,-3.733843 3.744311,-4.576458 1.626711,-0.63777 3.396123,-0.341455 5.074352,-0.107712 L 43.3601,22.820637 c -1.184762,-0.520308 -3.398478,0.04273 -3.880277,-0.09575 0.160382,-2.830101 -0.212337,-5.879766 1.308411,-8.430723 0.569764,-1.078568 1.38403,-1.992413 2.175225,-2.910377 -0.887808,-0.588363 -2.015015,-0.901777 -2.876661,-0.02393 -1.171173,1.118923 -2.445339,1.384121 -3.926977,0.948963 -1.590168,0.197318 -2.377249,1.736453 -2.727671,3.132065 1.350226,-0.02393 2.00027,1.347871 2.120682,2.53283 0.168764,1.131748 0.118992,4.365342 -1.330129,3.758159 0.338561,-2.778997 -2.598521,-5.25159 -5.281313,-4.449211 -1.974984,0.470209 -3.402021,2.509902 -3.15978,4.526221 -1.403264,0.488333 -1.490292,-2.68345 -1.309395,-3.835187 0.119736,-1.186634 0.769941,-2.554304 2.119799,-2.532829 -0.353252,-1.497141 -1.309569,-3.162139 -3.05069,-3.152874 -2.03261,1.06763 -3.09286,-1.114818 -4.931469,-1.526548 z m 2.062641,3.073193 c 1.148851,1.267851 2.503617,-0.24314 3.646451,0.443534 -0.249638,0.959224 -1.424295,2.439814 -1.346495,3.843854 -0.44833,3.191225 1.49355,6.653716 4.709803,7.468664 3.508922,1.212451 8.016318,-0.574851 9.067166,-4.301958 0.668063,-2.267992 0.431705,-5.039996 -1.226166,-6.833934 1.05054,-1.186973 2.461455,0.755071 3.642107,-0.50748 -0.240248,1.025907 -1.207489,3.560294 -1.070303,5.310765 -0.03262,1.797443 0.276648,3.799162 -1.007077,5.27787 -1.472891,2.405002 -4.513389,2.920417 -7.111037,2.795189 -2.577528,0.119688 -5.582598,-0.414124 -7.040881,-2.795189 -1.284096,-1.478847 -0.972042,-3.479931 -1.005392,-5.277185 -0.03766,-1.869343 -0.431739,-3.740649 -1.258102,-5.424215 z m 9.32783,4.840557 c 2.166942,-0.112836 3.521104,2.765097 2.057469,4.365138 -1.283763,1.733237 -4.344011,0.971536 -4.669121,-1.159616 -0.372229,-1.599394 0.968804,-3.248592 2.611651,-3.205639 z m 10.193759,11.552393 c -0.605424,1.43935 -2.148682,2.692222 -2.040143,4.301957 0.270975,0.347612 0.266705,1.809138 0.792303,1.125765 0.82165,-0.778495 1.673415,-1.525526 2.467057,-2.332814 -0.406711,-1.03172 -0.812793,-2.06322 -1.21923,-3.094873 z M 19.919987,30.41592 18.76567,33.3454 c 0.882961,0.891515 1.826341,1.721031 2.737222,2.583939 0.182446,-0.753018 0.75883,-1.501075 0.299907,-2.268762 -0.501156,-1.14577 -1.281017,-2.150799 -1.882539,-3.244657 z m 4.574735,0.915283 -2.794356,8.084342 c 5.367295,1.720978 11.30723,1.718788 16.658824,-0.06328 l -2.744199,-7.999566 c -3.589514,1.283411 -7.548537,1.388225 -11.120292,-0.02224 z m 17.677136,2.83419 c -1.018976,0.997695 -2.081428,1.951517 -3.119944,2.929463 0.42609,1.253486 0.830251,2.434002 1.423593,3.604014 1.480077,-0.473798 2.779565,-1.341546 3.862063,-2.450586 -0.695394,-1.375056 -1.449607,-2.718795 -2.165712,-4.082891 z m -24.165544,0.02052 c -0.713348,1.357106 -1.462601,2.695044 -2.157072,4.062099 1.086939,1.102512 2.377519,1.983816 3.862063,2.450589 0.585785,-1.166118 1.002314,-2.345994 1.397629,-3.597107 -1.032415,-0.973585 -2.09067,-1.921388 -3.102646,-2.915597 z m 7.395908,7.673879 c -0.145345,0.626828 -0.2917,1.254002 -0.437377,1.880832 3.231228,0.801747 6.697965,0.873048 9.936579,0.07352 l -0.425131,-1.942352 c -2.966347,0.713862 -6.104604,0.6494 -9.074111,-0.01301 z m -1.359505,2.990949 c -0.404716,1.320343 -0.809949,2.641217 -1.215009,3.961612 4.400042,2.35133 9.897839,2.100188 14.344174,0 l -1.290185,-3.961639 c -1.895301,0.729763 -3.771578,0.882964 -5.943763,0.928444 -1.784771,-0.01882 -4.226725,-0.264854 -5.895256,-0.928444 z"
     sodipodi:nodetypes="ccsccccccccccccccccccccccccccccccccccccccccccccccccccccccccccccccccccccscccsscccccccccccc" />
  <path
     style="fill:#aa8a00;fill-opacity:0.992157;stroke:none;stroke-width:1.2px;stroke-linecap:butt;stroke-linejoin:miter;stroke-opacity:1"
     d="M 8.4461898,53.580409 H 51.554056 l -1.234513,2.947542 H 9.5009598 Z"
     id="path5"
     sodipodi:nodetypes="ccccc" />
</svg>
