<?xml version="1.0" encoding="UTF-8" standalone="no"?>
<svg
   viewBox="0 0 60 60"
   version="1.1"
   id="svg10"
   sodipodi:docname="0KY.svg"
   xml:space="preserve"
   inkscape:version="1.3 (0e150ed6c4, 2023-07-21)"
   xmlns:inkscape="http://www.inkscape.org/namespaces/inkscape"
   xmlns:sodipodi="http://sodipodi.sourceforge.net/DTD/sodipodi-0.dtd"
   xmlns="http://www.w3.org/2000/svg"
   xmlns:svg="http://www.w3.org/2000/svg"><sodipodi:namedview
     id="namedview10"
     pagecolor="#ffffff"
     bordercolor="#666666"
     borderopacity="1.0"
     inkscape:showpageshadow="2"
     inkscape:pageopacity="0.0"
     inkscape:pagecheckerboard="0"
     inkscape:deskcolor="#d1d1d1"
     inkscape:zoom="7.533333"
     inkscape:cx="-92.787615"
     inkscape:cy="74.86726"
     inkscape:window-width="3840"
     inkscape:window-height="2054"
     inkscape:window-x="-11"
     inkscape:window-y="-11"
     inkscape:window-maximized="1"
     inkscape:current-layer="svg10" /><defs
     id="defs2"><filter
       id="0KY_svg__a"
       color-interpolation-filters="sRGB"
       x="-0.04324477"
       y="-0.033177932"
       width="1.1765828"
       height="1.1078283"><feFlood
         flood-color="#000"
         flood-opacity=".498"
         result="flood"
         id="feFlood1" /><feComposite
         in="flood"
         in2="SourceGraphic"
         operator="in"
         result="composite1"
         id="feComposite1" /><feGaussianBlur
         in="composite1"
         result="blur"
         stdDeviation="1"
         id="feGaussianBlur1" /><feOffset
         dx="5"
         dy="3"
         result="offset"
         id="feOffset1" /><feComposite
         in="SourceGraphic"
         in2="offset"
         result="composite2"
         id="feComposite2" /></filter><filter
       id="0KY_svg__a-5"
       x="-0.14731479"
       y="-0.1209949"
       width="1.3495476"
       height="1.287247"><feGaussianBlur
         in="SourceAlpha"
         result="blur"
         stdDeviation="2"
         id="feGaussianBlur1-7" /><feOffset
         dx="2"
         dy="2"
         result="offsetBlur"
         id="feOffset1-7" /><feBlend
         in="SourceGraphic"
         in2="offsetBlur"
         id="feBlend1"
         mode="normal" /></filter></defs><g
     id="path2"
     transform="matrix(0.72,0,0,0.72,-349.32117,-1.4217563)"
     style="opacity:0.99"><path
       style="color:#000000;fill:#ffd7b0;-inkscape-stroke:none"
       d="m 526.835,8 -17.83,5.92 -9.336,60.222 H 554 l -9.335,-60.223 z"
       id="path1" /><path
       id="path4"
       style="color:#000000;fill:#927b64;fill-opacity:0.99215686;-inkscape-stroke:none"
       d="m 526.83659,7.4727083 -0.15951,0.052083 -18.11849,6.0156257 -9.47265,61.103515 2.85156,5.166016 h 49.57357 l 3.07291,-5.166016 -9.4694,-61.103515 z m 0,1.0546875 17.37956,5.7682292 9.19921,59.345703 h -53.1608 l 9.19922,-59.342448 z" /></g><path
     style="fill:#b5987c;fill-opacity:0.98431373;stroke:none;stroke-width:1.2px;stroke-linecap:butt;stroke-linejoin:miter;stroke-opacity:1"
     d="m 11.027916,52.385416 1.655641,2.835228 h 34.598558 l 1.728318,-2.835228 z"
     id="path7"
     sodipodi:nodetypes="ccccc" /><path
     id="path1400"
     style="fill:#000000;fill-opacity:1;stroke:none;stroke-width:0.538652;stroke-linecap:butt;stroke-linejoin:miter;stroke-miterlimit:4;stroke-dasharray:none;stroke-opacity:1"
     d="m 29.988337,8.5579861 -2.326624,2.9025109 -0.304203,9.499509 1.822068,0.954567 h 0.04458 v 7.247172 c -5.094867,0.398612 -9.024323,4.5515 -9.024323,9.546713 1.04e-4,5.288928 4.386809,9.575035 9.798467,9.576085 5.411657,2.09e-4 9.799515,-4.287157 9.799515,-9.576085 0,-0.05486 -6.3e-4,-0.115392 -0.0014,-0.178325 -0.04447,-2.802859 -1.354225,-5.444175 -3.569658,-7.226383 -0.04438,-0.03409 -0.0834,-0.0706 -0.146857,-0.115392 -1.524215,-1.185335 -3.378801,-1.898637 -5.321502,-2.04969 v -7.247173 h 0.05496 l 1.814689,-0.954566 -0.272734,-9.500558 z M 29.379932,11.87589 h 1.240937 v 7.974302 h -1.240937 z m -0.167835,19.373104 v 5.623551 l -4.068971,-3.976661 c 1.162263,-0.933587 2.57733,-1.498985 4.068971,-1.647939 z m 1.550383,0.0016 c 1.491642,0.157347 2.904609,0.713303 4.066873,1.647939 l -4.066873,3.974563 z m -6.713435,2.716843 4.106735,4.011278 h -5.794534 c 0.146857,-1.471712 0.723793,-2.866847 1.687799,-4.011278 z m 11.875752,8.39e-4 c 0.965056,1.143383 1.539893,2.53642 1.685701,4.002886 l 7.35e-4,0.0072 h -5.791388 z m -13.556102,5.525997 h 5.711662 l -4.030158,3.93894 C 23.106123,42.306614 22.52709,40.938752 22.369743,39.494316 Z m 9.526782,0 h 5.709566 c -0.167836,1.444436 -0.734281,2.812298 -1.680457,3.937848 z m -2.683276,1.038483 v 5.621452 c -0.157346,-0.01532 -0.293713,-0.03409 -0.440569,-0.05759 -0.04458,-0.0078 -0.09871,-0.01637 -0.157345,-0.02518 -1.274505,-0.230734 -2.469286,-0.765711 -3.475252,-1.566077 z m 1.550384,0 4.066872,3.974563 c -1.161213,0.933623 -2.574181,1.496922 -4.066872,1.646925 z"
     sodipodi:nodetypes="cccccccsscsccccccccccccccccccccccccccccccccccccccccscccccccc" /></svg>
