<?xml version="1.0" encoding="UTF-8" standalone="no"?>
<svg
   viewBox="0 0 60 60"
   version="1.1"
   id="svg14"
   sodipodi:docname="0NG.svg"
   inkscape:version="1.3 (0e150ed6c4, 2023-07-21)"
   xmlns:inkscape="http://www.inkscape.org/namespaces/inkscape"
   xmlns:sodipodi="http://sodipodi.sourceforge.net/DTD/sodipodi-0.dtd"
   xmlns="http://www.w3.org/2000/svg"
   xmlns:svg="http://www.w3.org/2000/svg">
  <sodipodi:namedview
     id="namedview14"
     pagecolor="#ffffff"
     bordercolor="#666666"
     borderopacity="1.0"
     inkscape:showpageshadow="2"
     inkscape:pageopacity="0.0"
     inkscape:pagecheckerboard="0"
     inkscape:deskcolor="#d1d1d1"
     inkscape:zoom="7.4541668"
     inkscape:cx="1.1403018"
     inkscape:cy="32.599217"
     inkscape:window-width="3840"
     inkscape:window-height="2054"
     inkscape:window-x="-11"
     inkscape:window-y="-11"
     inkscape:window-maximized="1"
     inkscape:current-layer="g14" />
  <defs
     id="defs2">
    <filter
       id="a"
       color-interpolation-filters="sRGB"
       x="-0.039077128"
       y="-0.031849247"
       width="1.1595649"
       height="1.1035101">
      <feFlood
         flood-opacity=".498"
         flood-color="#000"
         result="flood"
         id="feFlood1" />
      <feComposite
         in="flood"
         in2="SourceGraphic"
         operator="in"
         result="composite1"
         id="feComposite1" />
      <feGaussianBlur
         in="composite1"
         stdDeviation="1"
         result="blur"
         id="feGaussianBlur1" />
      <feOffset
         dx="5"
         dy="3"
         result="offset"
         id="feOffset1" />
      <feComposite
         in="SourceGraphic"
         in2="offset"
         result="composite2"
         id="feComposite2" />
    </filter>
  </defs>
  <g
     opacity=".99"
     id="g14">
    <g
       transform="matrix(.6 0 0 .6 -189.175 -51.407)"
       filter="url(#a)"
       fill-opacity=".992"
       id="g3">
      <path
         d="m365.291 98-20.033 6.137-10.675 63.55H396l-10.676-63.55z"
         fill="#e5e5e5"
         id="path2" />
      <path
         d="M334.583 167.687v5.668H396v-5.668z"
         fill="#787878"
         id="path3" />
    </g>
    <path
       id="path15825-5-2"
       style="color:#000000;font-style:normal;font-variant:normal;font-weight:normal;font-stretch:normal;font-size:medium;line-height:normal;font-family:sans-serif;font-variant-ligatures:normal;font-variant-position:normal;font-variant-caps:normal;font-variant-numeric:normal;font-variant-alternates:normal;font-variant-east-asian:normal;font-feature-settings:normal;font-variation-settings:normal;text-indent:0;text-align:start;text-decoration:none;text-decoration-line:none;text-decoration-style:solid;text-decoration-color:#000000;letter-spacing:normal;word-spacing:normal;text-transform:none;writing-mode:lr-tb;direction:ltr;text-orientation:mixed;dominant-baseline:auto;baseline-shift:baseline;text-anchor:start;white-space:normal;shape-padding:0;shape-margin:0;inline-size:0;clip-rule:nonzero;display:inline;overflow:visible;visibility:visible;isolation:auto;mix-blend-mode:normal;color-interpolation:sRGB;color-interpolation-filters:linearRGB;solid-color:#000000;solid-opacity:1;vector-effect:none;fill:#e13007;fill-opacity:0.992157;fill-rule:nonzero;stroke:none;stroke-width:0.741935;stroke-linecap:butt;stroke-linejoin:miter;stroke-miterlimit:4;stroke-dasharray:none;stroke-dashoffset:0;stroke-opacity:1;color-rendering:auto;image-rendering:auto;shape-rendering:auto;text-rendering:auto;enable-background:accumulate;stop-color:#000000"
       d="m 30.091239,10.230855 -0.298841,0.417947 c -0.871587,1.219 -1.728666,2.703087 -3.072014,3.288557 l -0.563106,0.243892 0.47784,0.386191 c 0.677065,0.547757 1.170076,1.413349 1.506703,2.522975 0,0 0,0 0,0 -1.155495,0.6883 -1.934304,1.967547 -1.934304,3.429703 0,0.06911 0.0068,0.138193 0.01029,0.207285 -0.582273,0.433533 -1.199408,0.944535 -1.870222,1.542249 l -0.216308,0.191113 c -0.496378,-0.309607 -0.932661,-0.677714 -1.314943,-1.112124 -1.491836,-1.69529 -2.230512,-4.46161 -2.546392,-8.922631 l -0.619998,0.01614 c 0,0.0096 0,0.01763 0,0.02648 0,0.0048 0.0022,0.0071 0.0024,0.01152 -0.07674,4.118388 0.192728,7.948244 1.673618,10.757761 0.515604,0.978202 1.188056,1.822387 2.034717,2.504663 l -2.357694,4.908305 c 0.732623,0.595388 1.231161,0.946602 1.820575,1.40321 l 2.013333,-5.38284 c 0.247225,0.117609 0.504225,0.227712 0.773595,0.325334 l -0.59275,1.584141 c 3.276665,1.518665 7.12587,1.538175 10.300523,-0.0691 l -0.530408,-1.530042 c 0.267911,-0.09703 0.524414,-0.2114 0.770562,-0.329307 l 1.694747,4.890785 c 0.420217,-0.231825 0.863949,-0.476015 1.74316,-0.896165 l -2.259098,-4.700896 c 0.971554,-0.714024 1.725875,-1.631291 2.293581,-2.708384 1.480648,-2.809618 1.750745,-6.639381 1.673617,-10.757721 0,-0.0048 0.0021,-0.0071 0.0024,-0.01153 0,-0.0096 0,-0.01763 0,-0.02648 l -0.617555,-0.01614 c -0.315897,4.46106 -1.057057,7.227341 -2.548829,8.922671 -0.347652,0.394425 -0.741401,0.734317 -1.18305,1.028771 l -0.04233,-0.03824 c -0.862775,-0.754745 -1.634598,-1.387767 -2.358904,-1.896802 -0.02705,-1.422759 -0.789499,-2.664066 -1.916161,-3.342267 0.336241,-1.114625 0.828667,-1.984229 1.507897,-2.53356 l 0.479032,-0.386197 -0.562515,-0.243891 c -1.343838,-0.584788 -2.200984,-2.069353 -3.072618,-3.287938 z m -0.0091,6.912145 c 0.664252,0 1.281484,0.203321 1.798825,0.551879 0.384221,0.260205 0.711996,0.5973 0.961675,0.994515 0.06115,0.09703 0.116433,0.1992 0.168297,0.300785 0.0034,0.0071 0.0063,0.0141 0.0098,0.02061 0.04939,0.101434 0.09291,0.203313 0.131717,0.309013 0,0.0016 0.0016,0.0023 0.0019,0.0031 0,0.0023 0.0017,0.0038 0.0019,0.0063 0.03999,0.108786 0.0741,0.219634 0.102317,0.33342 0.0017,0.0063 0.0029,0.01057 0.0042,0.01614 0.02824,0.108788 0.05057,0.227721 0.06703,0.341506 0,0.0031 0.0017,0.0063 0.0019,0.0094 0,0 0,0 0,0 0.02235,0.158478 0.03882,0.325334 0.03882,0.491601 0,1.874047 -1.473697,3.379265 -3.287361,3.379265 -1.813636,0 -3.284937,-1.505218 -3.284937,-3.379265 0,-0.06911 0.0063,-0.138193 0.01029,-0.211399 0.03292,-0.54967 0.191113,-1.062143 0.447501,-1.508511 0.0042,-0.0071 0.0085,-0.0141 0.01294,-0.02061 0.06233,-0.105847 0.128928,-0.207276 0.200877,-0.304897 0.0024,-0.0031 0.0044,-0.0071 0.0068,-0.0094 0.228867,-0.309013 0.507005,-0.572455 0.823723,-0.783117 0,0 0.0016,0 0.002,-0.0016 0.51348,-0.341498 1.124211,-0.540698 1.781286,-0.540698 z m 9.759192,0.978791 c 0,0.0023 -0.0017,0.0048 -0.0017,0.0071 0,-0.0023 0.0019,-0.0048 0.0024,-0.0071 -0.234157,1.830122 -0.64708,3.481354 -1.357901,4.830296 -0.08115,0.154505 -0.168296,0.304898 -0.257794,0.452494 -0.01528,0.02501 -0.03058,0.0485 -0.04469,0.0735 -0.0741,0.12202 -0.151241,0.235807 -0.230979,0.353706 -0.02118,0.03087 -0.04234,0.06174 -0.06467,0.09409 -0.09526,0.133782 -0.192762,0.264319 -0.2952,0.390312 -0.01529,0.01764 -0.03058,0.03526 -0.04586,0.05289 -0.08585,0.101434 -0.174061,0.203313 -0.264737,0.296814 -0.04116,0.04412 -0.0835,0.08526 -0.125248,0.12937 -0.06939,0.0691 -0.14231,0.142597 -0.215931,0.207285 -0.04586,0.04412 -0.09055,0.08526 -0.138629,0.126425 -0.107021,0.09409 -0.215457,0.183027 -0.328126,0.26844 v 0 c -0.210166,0.162592 -0.43468,0.309013 -0.669542,0.450144 v 0 c -0.005,0.0023 -0.01029,0.0055 -0.01529,0.0081 -0.160653,0.0941 -0.327773,0.183028 -0.500776,0.268441 -0.01764,0.0081 -0.03646,0.01763 -0.0541,0.02648 -0.165118,0.07788 -0.336241,0.150393 -0.512882,0.219634 -0.02588,0.01058 -0.05292,0.02061 -0.07881,0.02939 -0.167592,0.06174 -0.340709,0.122022 -0.519003,0.174942 -0.03881,0.01175 -0.07761,0.02351 -0.117901,0.03526 -0.167471,0.0485 -0.340357,0.08968 -0.517122,0.12937 -0.05409,0.01175 -0.109371,0.02648 -0.164297,0.03675 -0.165473,0.03385 -0.33671,0.06174 -0.510535,0.08968 -0.06939,0.01058 -0.138628,0.02351 -0.210165,0.03236 -0.164652,0.0221 -0.335889,0.03824 -0.508063,0.05296 -0.08585,0.0081 -0.169589,0.01764 -0.256973,0.02351 -0.167944,0.01168 -0.342711,0.01764 -0.517711,0.02351 -0.09643,0.0038 -0.188287,0.0092 -0.28661,0.01058 -0.27238,0.0031 -0.552283,0 -0.841248,-0.01058 l -0.01153,-0.0023 h -0.0017 l -0.01153,0.0023 c -0.278967,0.01058 -0.549696,0.0141 -0.812901,0.01168 -0.263911,-0.0023 -0.519945,-0.01293 -0.768802,-0.02797 -0.248035,-0.01473 -0.488778,-0.03824 -0.722228,-0.06464 0,-3.1e-5 0,0 -0.0017,0 -0.233335,-0.02797 -0.459376,-0.06464 -0.678594,-0.105848 0,0 0,0 -0.0017,0 -0.219107,-0.04114 -0.431385,-0.08968 -0.636845,-0.142595 0,0 -0.0017,0 -0.0017,0 -0.205344,-0.05296 -0.40375,-0.114672 -0.596274,-0.178916 -1.926718,-0.652132 -3.204636,-1.88663 -4.073857,-3.535825 -0.710293,-1.347931 -1.123656,-2.997486 -1.357854,-4.826049 0,0.0023 0.0018,0.0048 0.0024,0.0071 0,-0.0023 -0.0017,-0.0048 -0.0017,-0.0071 0.429344,1.512154 1.018673,2.704333 1.835682,3.632593 0.03661,0.04114 0.07527,0.08086 0.112173,0.12202 0.05895,0.06464 0.117458,0.12937 0.178906,0.191113 0.04602,0.04412 0.09482,0.08968 0.141865,0.133775 0.05615,0.05297 0.112173,0.105847 0.170785,0.158479 0.0544,0.0485 0.110258,0.09409 0.166312,0.138184 0.05527,0.04412 0.110993,0.08968 0.167516,0.133782 0.05689,0.04412 0.115547,0.08526 0.174027,0.12937 0.05806,0.04114 0.117463,0.08086 0.177267,0.122021 0.06263,0.04114 0.125989,0.08526 0.190702,0.126423 0.05616,0.03526 0.114222,0.06911 0.171585,0.101434 0.06997,0.04113 0.139515,0.08086 0.211023,0.12202 0.05615,0.03087 0.114372,0.06174 0.171584,0.08968 0.07395,0.03824 0.146425,0.07788 0.222412,0.114662 0.04513,0.02061 0.09261,0.04114 0.13863,0.06174 0.17769,0.08086 0.361089,0.154507 0.549815,0.22772 0.04352,0.01614 0.08585,0.03377 0.130545,0.0485 0.0882,0.03235 0.17935,0.06174 0.269559,0.08968 0.06703,0.02202 0.133043,0.04412 0.201699,0.06472 0.08938,0.02648 0.180995,0.05289 0.2732,0.08086 0.06115,0.01764 0.121577,0.03378 0.183351,0.0485 0.09997,0.02648 0.201223,0.05289 0.303308,0.07788 0.06704,0.01614 0.13584,0.03235 0.204523,0.04849 0.101143,0.02202 0.203342,0.04412 0.306955,0.06464 0.06939,0.0141 0.141424,0.02648 0.212632,0.04114 0.101143,0.01912 0.201698,0.03824 0.305311,0.05587 0.02587,0.0048 0.05176,0.0081 0.07761,0.01175 0.324833,0.05289 0.660015,0.101434 1.008838,0.142597 v 0 c 0.440439,0.05289 0.898756,0.0941 1.378424,0.12937 h 0.02352 0.01999 c 0.391984,-0.02797 0.764567,-0.06472 1.130447,-0.105848 0.0016,0 0.0023,0 0.0036,0 1.679169,-0.183028 3.086144,-0.498951 4.257481,-1.023484 0.03291,-0.0141 0.06586,-0.02789 0.09878,-0.04411 0.08703,-0.03973 0.17159,-0.08085 0.255796,-0.126431 0.05528,-0.02797 0.111728,-0.05587 0.166301,-0.08526 0.06939,-0.03824 0.138188,-0.07788 0.206165,-0.114671 0.06351,-0.03675 0.125543,-0.0735 0.187466,-0.114662 0.06351,-0.03824 0.125255,-0.07788 0.186997,-0.11761 0.06467,-0.04412 0.127749,-0.08526 0.189817,-0.129371 0.05292,-0.03824 0.107022,-0.07788 0.158537,-0.114663 0.07409,-0.05586 0.145541,-0.114671 0.217103,-0.174941 0.03881,-0.03235 0.07881,-0.06472 0.11643,-0.09703 0.09879,-0.08526 0.195581,-0.174941 0.289554,-0.26844 0.0068,-0.0071 0.0141,-0.01293 0.02116,-0.01912 0.0017,-0.0016 0.002,-0.0023 0.0031,-0.0031 0.108198,-0.105842 0.213459,-0.215514 0.31507,-0.333413 0.818079,-0.929396 1.408648,-2.122053 1.838135,-3.637075 z m -4.247235,11.19021 c -3.379727,1.67032 -7.416809,1.64024 -10.870892,0.05587 L 21.914927,36.8734 c 5.134502,1.908185 11.335715,2.035456 16.332641,0.09409 z m -15.434446,1.663369 -1.827851,3.155661 2.995165,1.926881 1.187276,-3.175962 c -0.7466,-0.653456 -1.6898,-1.280751 -2.35459,-1.90658 z m 19.681068,0 c -0.939564,0.657422 -0.387047,0.304891 -2.309308,1.373068 l 1.285918,3.711464 2.891813,-1.85981 z m -22.394398,3.514686 -2.475033,3.623638 0.163857,0.280499 c 0.880091,1.503613 2.511099,2.956413 4.239978,3.375223 l 0.286657,0.06911 0.133778,-0.30902 c 0.280981,-0.645371 0.929362,-2.409112 1.652435,-4.399657 -1.254663,-1.027595 -2.839156,-1.628179 -4.001672,-2.641437 z m 25.107721,0 c -1.109153,0.993787 -2.637138,1.858565 -3.935737,2.694555 l -0.107067,-0.166714 c 0.741751,2.041968 1.407056,3.853786 1.69416,4.513339 l 0.133779,0.30902 0.285788,-0.0691 c 1.728833,-0.418387 3.359791,-1.87201 4.239919,-3.375632 l 0.16383,-0.280498 z m -17.246606,4.335539 -0.647796,2.204182 c 2.619137,0.574955 8.355835,0.474105 10.767465,-0.05289 l -0.620619,-2.077752 0.0085,0.03973 c -2.645194,0.588337 -6.770343,0.539969 -9.506945,-0.114671 z m -1.409278,2.89948 -1.103242,3.483767 0.406197,0.174942 c 4.411167,1.854513 10.009509,1.776457 13.703385,0 l 0.406216,-0.231834 -1.103278,-3.426021 c -3.211357,0.467931 -8.26859,0.822224 -12.309809,0 z" />
  </g>
</svg>
