<?xml version="1.0" encoding="UTF-8" standalone="no"?>
<svg
   viewBox="0 0 60 60"
   version="1.1"
   id="svg12"
   sodipodi:docname="0NK.svg"
   inkscape:version="1.3 (0e150ed6c4, 2023-07-21)"
   xmlns:inkscape="http://www.inkscape.org/namespaces/inkscape"
   xmlns:sodipodi="http://sodipodi.sourceforge.net/DTD/sodipodi-0.dtd"
   xmlns="http://www.w3.org/2000/svg"
   xmlns:svg="http://www.w3.org/2000/svg">
  <sodipodi:namedview
     id="namedview12"
     pagecolor="#ffffff"
     bordercolor="#666666"
     borderopacity="1.0"
     inkscape:showpageshadow="2"
     inkscape:pageopacity="0.0"
     inkscape:pagecheckerboard="0"
     inkscape:deskcolor="#d1d1d1"
     inkscape:zoom="7.4541668"
     inkscape:cx="-79.888205"
     inkscape:cy="60.637227"
     inkscape:window-width="3840"
     inkscape:window-height="2054"
     inkscape:window-x="-11"
     inkscape:window-y="-11"
     inkscape:window-maximized="1"
     inkscape:current-layer="svg12" />
  <defs
     id="defs2">
    <filter
       id="a"
       color-interpolation-filters="sRGB"
       x="-0.040640081"
       y="-0.032879865"
       width="1.165947"
       height="1.1068596">
      <feFlood
         flood-opacity=".498"
         flood-color="#000"
         result="flood"
         id="feFlood1" />
      <feComposite
         in="flood"
         in2="SourceGraphic"
         operator="in"
         result="composite1"
         id="feComposite1" />
      <feGaussianBlur
         in="composite1"
         stdDeviation="1"
         result="blur"
         id="feGaussianBlur1" />
      <feOffset
         dx="5"
         dy="3"
         result="offset"
         id="feOffset1" />
      <feComposite
         in="SourceGraphic"
         in2="offset"
         result="composite2"
         id="feComposite2" />
    </filter>
  </defs>
  <g
     opacity=".99"
     id="g12">
    <g
       transform="matrix(.6 0 0 .6 -237.884 -50.698)"
       filter="url(#a)"
       id="g3">
      <path
         d="m446.472 98-19.256 5.892-10.271 61.433H476l-10.259-61.359z"
         fill="#fee572"
         id="path2" />
      <path
         d="M416.945 165.325v5.668H476v-5.669z"
         fill="#c3983c"
         fill-opacity=".992"
         id="path3" />
    </g>
  </g>
  <path
     id="path7388-6"
     style="color:#000000;font-style:normal;font-variant:normal;font-weight:normal;font-stretch:normal;font-size:medium;line-height:normal;font-family:sans-serif;font-variant-ligatures:normal;font-variant-position:normal;font-variant-caps:normal;font-variant-numeric:normal;font-variant-alternates:normal;font-variant-east-asian:normal;font-feature-settings:normal;font-variation-settings:normal;text-indent:0;text-align:start;text-decoration:none;text-decoration-line:none;text-decoration-style:solid;text-decoration-color:#000000;letter-spacing:normal;word-spacing:normal;text-transform:none;writing-mode:lr-tb;direction:ltr;text-orientation:mixed;dominant-baseline:auto;baseline-shift:baseline;text-anchor:start;white-space:normal;shape-padding:0;shape-margin:0;inline-size:0;clip-rule:nonzero;display:inline;overflow:visible;visibility:visible;opacity:0.99;isolation:auto;mix-blend-mode:normal;color-interpolation:sRGB;color-interpolation-filters:linearRGB;solid-color:#000000;solid-opacity:1;vector-effect:none;fill:#e13007;fill-opacity:1;fill-rule:nonzero;stroke:none;stroke-width:0.558049;stroke-linecap:butt;stroke-linejoin:miter;stroke-miterlimit:4;stroke-dasharray:none;stroke-dashoffset:0;stroke-opacity:1;color-rendering:auto;image-rendering:auto;shape-rendering:auto;text-rendering:auto;enable-background:accumulate;stop-color:#000000"
     d="m 20.921891,12.399665 0.07349,0.646315 c 0,0 0.05777,0.533325 0.228001,1.123044 0.131633,0.456015 0.294943,0.989836 0.682116,1.351043 -0.273458,0.58178 -0.412661,1.263653 -0.412661,2.008665 0,0.69544 0.118112,1.337972 0.356132,1.893722 v 0.0019 c -0.03693,0.0853 -0.06252,0.167207 -0.07914,0.252497 -0.01639,0.08416 -0.02645,0.171418 -0.03392,0.263803 -0.0314,0.388384 0.0025,0.87075 0.114943,1.377423 0.04581,0.206351 0.106158,0.415195 0.180892,0.621819 -0.426553,1.189353 -0.66586,2.333477 -0.593555,3.580171 -1.462816,1.639697 -2.76389,3.393846 -3.610319,5.434323 l -0.0094,0.02072 -0.0037,0.02072 c -0.241744,1.012928 -0.472831,2.091359 -0.05087,3.188237 l 0.0358,0.09609 0.559637,0.309026 c 0.326529,0.676611 0.560162,1.14803 0.962877,1.432068 0.355066,0.250729 0.801731,0.299025 1.411341,0.246844 l 1.884301,-2.649327 0.757489,0.53891 -1.788201,2.513657 0.146976,0.356133 0.244958,-0.07914 c 1.245875,-0.401184 1.909349,-0.974854 2.379873,-1.677027 0.45778,-0.683144 0.760505,-1.469248 1.341622,-2.38364 1.843918,-0.853799 2.682341,-1.304083 4.511015,-1.989821 l 0.02262,-0.0075 -0.05653,-0.03203 c 0.2605,-0.454628 0.547389,-1.471288 0.725456,-2.415673 0.08964,-0.472211 0.157524,-0.932632 0.197852,-1.309589 0.04009,-0.37713 0.04784,-0.691916 0.03957,-0.780101 l 0.927076,-0.08856 c 0.02476,0.251146 0.0011,0.562741 -0.04334,0.968531 -0.04363,0.405665 -0.113283,0.88507 -0.207272,1.381193 -0.174883,0.929075 -0.412196,1.891072 -0.761258,2.568301 l 0.04711,0.216695 c 0,0.01898 0.01553,0.288145 0.02262,0.612397 0.0074,0.335546 -0.0056,0.744981 -0.01884,0.808366 l -0.0037,0.01884 v 0.01696 c -0.07528,1.146415 -0.789181,2.515701 -1.644994,3.659312 1.741756,1.191249 4.003008,2.009945 6.257762,2.185788 1.19963,0.09356 2.386411,0.01 3.499146,-0.275107 -0.503964,-3.291998 -0.400872,-6.930085 -0.783869,-9.992446 -0.468934,-2.786222 -1.382694,-4.041844 -3.397394,-5.743348 -0.257316,-0.217299 -0.777585,-0.567369 -1.251176,-0.81025 -0.23644,-0.121487 -0.465088,-0.217987 -0.629356,-0.265686 -0.164276,-0.04775 -0.26019,-0.0053 -0.143207,-0.05087 l -0.44846,-1.141943 c 0.185496,-0.07252 0.346978,-0.09093 0.49934,-0.07914 h 0.0019 c 0.152124,0.01202 0.292352,0.05341 0.433389,0.09422 0.281254,0.08195 0.565042,0.205333 0.847935,0.35048 0.565929,0.290266 1.115793,0.654695 1.482945,0.964761 2.119352,1.78989 3.312657,3.475302 3.817593,6.487647 l 0.0019,0.01319 0.0019,0.0113 c 0.392702,3.124885 0.352121,6.678398 0.778216,9.756908 0.756265,-0.318857 1.46305,-0.747284 2.093459,-1.302051 -0.357591,-2.071039 -0.478162,-4.339671 -0.580365,-8.264544 v -0.0037 -0.0057 C 41.7892,26.165421 40.568856,23.498113 38.657163,21.410396 36.784454,19.365341 34.22263,17.895705 31.340425,17.9772 c -0.115743,-0.904243 2.163744,-0.757388 3.310716,-0.921423 -0.849027,-0.653352 -2.826979,-1.599751 -4.064437,-1.92764 0.03277,-0.07552 0.02787,-0.06273 0.05653,-0.128131 0.138268,-0.316665 0.231768,-0.52572 0.231768,-0.52572 l 0.457885,-1.008101 -1.049555,0.35048 c -0.156733,0.05224 -0.30818,0.09606 -0.456,0.135668 -0.117124,0.03135 -0.232754,0.0593 -0.344827,0.08103 -0.100444,0.01945 -0.200967,0.03652 -0.297721,0.04711 -0.113859,0.01246 -0.224247,0.01842 -0.333521,0.01696 -0.09584,-0.0012 -0.189925,-0.0093 -0.282644,-0.02262 -0.02449,-0.0035 -0.0492,-0.0069 -0.07349,-0.0113 -0.09348,-0.01687 -0.186231,-0.03894 -0.276991,-0.06972 -0.101797,-0.03452 -0.200697,-0.07823 -0.299604,-0.131901 -0.09891,-0.05368 -0.197369,-0.117609 -0.293951,-0.192198 l -0.04145,-0.03203 -0.04711,-0.02262 c -0.131363,-0.06228 -0.262269,-0.110005 -0.391934,-0.145092 -0.0083,-0.0022 -0.01622,-0.0054 -0.0245,-0.0075 -0.05369,-0.01379 -0.107108,-0.02515 -0.160166,-0.03392 -0.0075,-0.0013 -0.01514,-0.0026 -0.02262,-0.0037 -0.0044,-6.82e-4 -0.0087,-0.0012 -0.01319,-0.0019 -0.06095,-0.0087 -0.121115,-0.01519 -0.180893,-0.01696 -0.06812,-0.002 -0.135412,0.0019 -0.20162,0.0094 -0.01571,0.0018 -0.03152,0.0033 -0.04711,0.0057 -0.067,0.01 -0.133377,0.02482 -0.197852,0.04522 -0.09515,0.03012 -0.183638,0.07008 -0.265686,0.11871 -0.08205,0.04863 -0.156521,0.104854 -0.226116,0.167703 l -0.0019,0.0019 c -0.06883,0.06237 -0.133061,0.131424 -0.190315,0.203506 -0.0578,0.07277 -0.109738,0.14961 -0.156397,0.228 l -0.145091,0.244959 0.145091,0.246844 c 0,0 0.0847,0.142733 0.207273,0.374974 0.06128,0.116122 0.132761,0.254677 0.207273,0.408895 0.07451,0.154215 0.151875,0.324105 0.228001,0.503108 0.05046,0.118644 0.09665,0.243054 0.141323,0.367438 0.01495,0.04151 0.03104,0.08262 0.04522,0.124365 0.04456,0.131716 0.08533,0.264612 0.120595,0.393819 0.08001,0.293179 0.13355,0.570791 0.146975,0.793289 l -0.162049,-0.02262 -0.659505,-0.778216 c -0.06331,-0.520822 -0.200192,-1.00229 -0.414547,-1.424531 -0.198129,-0.390291 -0.501213,-0.778854 -0.913886,-1.006217 l 0.03203,-1.788202 -0.653852,0.226116 c -0.524805,0.182751 -0.762357,0.147955 -1.049556,0.05842 -0.287199,-0.08954 -0.639501,-0.292404 -1.170151,-0.39005 z m 1.190877,1.315242 c 0.110851,0.04368 0.199321,0.07181 0.331638,0.113058 0.256132,0.07985 0.652765,-0.01007 1.004332,-0.03958 l -0.0075,0.439044 c -0.375803,0.04454 -0.687591,0.214955 -0.940266,0.448462 -0.123217,-0.190056 -0.263713,-0.47386 -0.350481,-0.774447 -0.02781,-0.09631 -0.01638,-0.09581 -0.03769,-0.186545 z m 4.558123,0.653852 c 0.09115,-0.0073 0.22454,0.01684 0.423967,0.107406 0.794627,0.580067 1.679107,0.574814 2.547575,0.420199 -0.124198,0.283779 -0.156632,0.342627 -0.327867,0.759372 -0.356819,0.868398 -0.744504,1.869292 -0.887506,2.566419 -0.146956,0.716396 -0.19145,1.50865 -0.324101,2.17825 -0.131836,0.665499 -0.344494,1.15469 -0.695306,1.3925 -0.02191,0.0041 -0.274019,0.124609 -0.548332,0.222346 -0.313501,0.111702 -0.712947,0.24139 -1.11739,0.361786 -0.404445,0.120396 -0.816356,0.231586 -1.147538,0.305256 -0.331185,0.07367 -0.646397,0.08448 -0.582249,0.09422 -0.305992,-0.04645 -0.541394,-0.222573 -0.753721,-0.52572 -0.212326,-0.303146 -0.372962,-0.725401 -0.465423,-1.141886 -0.04222,-0.190211 -0.02726,-0.322682 -0.04334,-0.497456 0.180967,0.123809 0.35198,0.259567 0.561522,0.342944 0.644279,0.256355 1.45791,0.30938 2.114186,-0.156397 0.480373,-0.340939 0.934389,-0.78912 1.302051,-1.253061 0.367662,-0.463939 0.653455,-0.924282 0.755604,-1.398151 0.183449,-0.851013 -0.164798,-1.776678 -0.497455,-2.55888 -0.25392,-0.597067 -0.417942,-0.866251 -0.533256,-1.070282 0.0442,-0.03767 0.09365,-0.118607 0.135669,-0.131902 0.02344,-0.0074 0.05096,-0.01439 0.08291,-0.01696 z m -3.039376,0.768795 a 1.2140499,2.3914864 0 0 1 1.215373,2.391178 1.2140499,2.3914864 0 0 1 -1.215373,2.391177 1.2140499,2.3914864 0 0 1 -1.21349,-2.391177 1.2140499,2.3914864 0 0 1 1.21349,-2.391178 z m 2.121722,8.240047 c -0.107275,0.447805 -0.183261,0.855218 -0.399471,1.219142 -0.135379,0.228312 -0.358588,0.43166 -0.640663,0.535142 -0.282188,0.103187 -0.604456,0.123275 -1.002448,0.09233 l -0.521952,-0.03957 0.154513,-0.499339 c 0.157841,-0.513224 0.366397,-0.627567 0.597324,-0.947804 0.07004,0.007 0.136217,0.0086 0.20162,0.0057 0.0031,-1.32e-4 0.0063,1.49e-4 0.0094,0 0.0037,-1.95e-4 0.0075,-0.0016 0.0113,-0.0019 0.06051,-0.0036 0.122118,-0.0089 0.182778,-0.01884 0.0037,-5.94e-4 0.0076,-0.0012 0.0113,-0.0019 0.0208,-0.0034 0.0467,-0.01109 0.06783,-0.01508 0.117263,-0.02258 0.238578,-0.04942 0.38063,-0.08102 0.279892,-0.06226 0.597001,-0.148024 0.917653,-0.239307 0.01001,-0.0029 0.02013,-0.0046 0.03015,-0.0075 z m -5.875249,7.599384 0.537025,0.567175 c -0.45259,0.428247 -0.81149,0.699151 -0.944034,0.861126 -0.06603,0.08112 -0.07301,0.110141 -0.07537,0.143206 -0.0022,0.03314 0.0067,0.105422 0.08291,0.246843 l -0.689655,0.367439 c -0.117922,-0.219341 -0.18775,-0.440289 -0.17147,-0.668927 0.0165,-0.228731 0.123014,-0.428357 0.250612,-0.584133 0.254829,-0.311488 0.595715,-0.54081 1.009986,-0.932729 z m 8.635749,6.649697 c -0.188936,0.195307 -0.376421,0.376798 -0.557753,0.533257 -1.957656,1.492956 -2.379054,2.976924 -2.65498,5.321266 l -0.02072,0.18466 0.163934,0.09044 c 4.695174,2.605773 8.234251,3.316209 11.149407,2.990386 2.915136,-0.326158 5.180193,-1.681035 7.335582,-3.122286 l 0.150745,-0.101753 -0.03203,-0.179009 c -0.187157,-1.070557 -0.336881,-1.84697 -0.740535,-3.325788 l -0.0019,-0.0037 v -0.0037 c -0.179145,-0.601976 -0.325661,-1.159114 -0.457885,-1.70906 -0.675014,0.491487 -1.406023,0.878341 -2.172599,1.17015 0.191655,0.923585 0.441644,1.786932 0.787638,2.555112 l -1.119274,0.504992 c -0.376578,-0.836013 -0.650599,-1.742444 -0.861126,-2.688897 -1.258498,0.31195 -2.578469,0.401091 -3.879775,0.299604 -2.572741,-0.20067 -5.103793,-1.110798 -7.088746,-2.515569 z" />
</svg>
