<svg height="60" width="52.157" xmlns="http://www.w3.org/2000/svg" xmlns:xlink="http://www.w3.org/1999/xlink"><filter id="a" color-interpolation-filters="sRGB" height="1.106859" width="1.165947" x="-.04064" y="-.03288"><feFlood flood-opacity=".498039" result="flood"/><feComposite in="flood" in2="SourceGraphic" operator="in" result="composite1"/><feGaussianBlur in="composite1" result="blur" stdDeviation="1"/><feOffset dx="5" dy="3" result="offset"/><feComposite in="SourceGraphic" in2="offset" operator="over" result="composite2"/></filter><g opacity=".99" transform="translate(-240.9593 -49.062834)"><g filter="url(#a)" transform="matrix(.6 0 0 .6 -.845669 -1.635138)"><path d="m446.47211 98-19.256 5.89159-10.27123 61.43313 59.05512-.00025-10.25867-61.358z" fill="#fee572" opacity="1" stroke-width="1.47803"/><path d="m416.94488 165.32472v5.66852l59.05512-.00002v-5.66875z" fill="#c3983c" fill-opacity=".992157" opacity="1"/></g><g opacity=".99"><g transform="matrix(1.129536 0 0 1.129536 238.277614 38.6155436)"><g transform="matrix(.70055036 0 0 .70055036 -244.80436 -23.951026)"><g stroke-width="1.38634" transform="matrix(.57705753 0 0 .57705753 442.02738 27.098826)"><path d="m-112.14407 62.364407c-1.60042 3.019221-.97881 6.472265-.97881 9.788135-2.63655 5.43328-4.42105 9.610707-4.05509 14.542373-3.42623 3.817142-6.43917 7.882263-8.38983 12.584746-.5563 2.330509-1.03731 4.661019-.13983 6.991529l1.25848.69915c1.62281 3.36412 2.10136 4.10929 5.73305 3.63559 2.0011-6.20075 1.73078-2.13765 1.95763 1.67797 5.56198-1.79145 5.43612-4.78392 8.35427-9.28613 4.41588-2.03977 6.33241-3.073074 10.662675-4.696923l1.957627-1.258474 2.936441-4.894068-2.65678 4.754237.699152 3.076271s.139831 2.796607 0 3.495767c-.294711 4.50663-4.287614 9.94882-7.518745 12.72909-4.41838 3.3646-5.27045 6.49044-5.90498 11.88108 21.569882 11.97113 32.153352 6.36401 42.08898-.27966-.434978-2.47227-.77116-4.23377-1.702104-7.63819-2.387924-8.0077-2.831998-13.06774-3.191964-26.899951-.666509-10.140918-11.048936-24.3155-24.247991-23.642768l-6.514721-10.056384c-2.7431 2.441895-2.34212 6.067326-2.79661 9.508474l-2.09746-.279661z" fill="#f00" stroke="#f00" stroke-width="1.44539"/><g stroke="#fee572"><path d="m-95.838861 96.831416c1.503563-2.62438 1.69516-6.972687 1.543213-8.543845" fill="none" stroke-width="1.83959"/><path d="m-108.08624 80.844616c-4.59689 1.232832-3.88501 2.460012-5.11311 4.738662 3.7941.2956 5.74199-1.934265 5.11311-4.738662z" fill="#fee572" stroke-width="1.97099"/><path d="m-93.159425 74.220209c1.993886-1.136997 5.954671 1.094626 7.399151 2.314543 4.78472 4.040876 10.222665 9.277577 10.30886 16.01737 1.315854 10.469988.825136 25.072578 4.796708 33.888458" fill="none" stroke-width="2.89078"/></g></g><path d="m373.99999 91.163185 2.125-3" fill="none" stroke="#fee572" stroke-width="1.06155"/></g><path d="m15.075681 36.961255c-.361906-.675822.138456-.84001.949351-1.607275" fill="none" stroke="#fee572" stroke-width=".743668"/></g><g stroke-opacity=".992157" transform="matrix(.6 0 0 .6 .00085 -1.163089)"><path d="m425.84476 127.99986 6.5842 3.8377c3.79037-6.2734 3.80833-6.16582 7.57973-11.45055-1.16567-2.88192-5.1814-4.28504-8.31346-5.98712l1.35583-3.22089c3.14931 1.96787 7.06913 3.01735 9.07871 6.37822 2.3339-2.80716 3.82894-5.63402 5.37319-7.8899 1.3357.16282 2.40705.17023 3.98442.85469-4.32418 6.28564-9.91146 12.42096-16.79028 22.83573l2.03017 1.97482-1.42256 2.60038-3.18277-3.2224-7.58583-4.11164c.30974-.8031.71915-1.65605 1.30865-2.59904z" fill="#fee572" fill-opacity=".992157" stroke="#f00" stroke-width=".6"/><g fill="none" stroke="#fee572"><path d="m436.61017 152.05562c.54999.12402 1.84283.68297 2.10447.82766 9.51391 5.26113 19.25644 6.23746 27.4069.16375.3467-.25836 2.5111-1.34799 2.86968-1.44825" stroke-width="3"/><path d="m435.50669 136.06206c.51406.3587.42553.55744.49638.7276 2.5492 6.12257 7.04847 9.14738 9.85682 9.83114 11.04267-.0459 13.77001-6.8974 18.95179-11.91349.21377-.20693.76514-.67069 1.09734-.68457" stroke-width="2"/></g></g></g></g></svg>