<svg viewBox="0 0 60 60" xmlns="http://www.w3.org/2000/svg" xmlns:xlink="http://www.w3.org/1999/xlink"><filter id="a" color-interpolation-filters="sRGB"><feFlood flood-opacity=".498" result="flood"/><feComposite in="flood" in2="SourceGraphic" operator="in" result="composite1"/><feGaussianBlur in="composite1" result="blur" stdDeviation="1"/><feOffset dx="5" dy="3" result="offset"/><feComposite in="SourceGraphic" in2="offset" result="composite2"/></filter><g opacity=".99"><g filter="url(#a)" transform="matrix(.6 0 0 .6 -286.1 -50.343)"><path d="m526.836 98-17.831 5.92-9.336 60.222h54.331l-9.335-60.223z" fill="#fee572"/><path d="m499.67 164.142v5.668h54.33v-5.669z" fill="#c3983c" fill-opacity=".992"/></g><g opacity=".99"><path d="m372.14 1666.57v-346.55h15v346.55z" fill="#f00" stroke="#f00" stroke-width="4.938" transform="matrix(-.06612 0 0 .04829 55.143 -42.334)"/><g stroke="#f00" stroke-width="4.938" transform="matrix(-.04665 0 0 .03407 47.752 -22.904)"><path d="m373.444 1325.142-13.45-8.57 2.65-111.341 16.688-28.568 17.542 27.755 2.373 111.247-13.382 9.224z" fill="#ffdf00" stroke-width="7.525"/><path d="m379.551 1181.017v105.099l16.535 13.127m-16.535-13.127-16.317 14.496" fill="none" stroke-width="6.02"/></g><path d="m30.044 22.913a7.759 7.759 0 0 1 7.76 7.76 7.759 7.759 0 0 1 -7.76 7.759 7.759 7.759 0 0 1 -7.76-7.76 7.759 7.759 0 0 1 7.76-7.759zm0 1.692a6.067 6.067 0 0 0 -6.067 6.068 6.067 6.067 0 0 0 6.067 6.066 6.067 6.067 0 0 0 6.067-6.066 6.067 6.067 0 0 0 -6.067-6.068z" fill="#f00"/><g stroke="#f00"><path d="m372.14 1666.57v-346.55h15v346.55z" fill="#f00" stroke-width="6.371" transform="matrix(-.06612 0 0 -.04829 55.143 103.733)"/><g stroke-width="4.938" transform="matrix(-.04665 0 0 -.03407 47.751 84.303)"><path d="m373.444 1325.142-13.45-8.57 2.65-111.341 16.688-28.568 17.542 27.755 2.373 111.247-13.382 9.224z" fill="#ffdf00" stroke-width="7.525"/><path d="m379.551 1181.017v105.099l16.535 13.127m-16.535-13.127-16.317 14.496" fill="none" stroke-width="6.02"/></g><path d="m372.14 1666.57v-346.55h15v346.55z" fill="#f00" stroke-width="6.371" transform="matrix(-.04675009 .04674357 .03415087 .03415564 -3.5891 -38.701493)"/><path d="m372.14 1666.57v-346.55h15v346.55z" fill="#f00" stroke-width="6.371" transform="matrix(.04675009 .04674357 -.03415087 .03415564 63.926964 -38.696582)"/><path d="m372.14 1666.57v-346.55h15v346.55z" fill="#f00" stroke-width="4.938" transform="matrix(0 -.06612 -.04829 0 102.567 55.772)"/><g stroke-width="4.938" transform="matrix(0 -.04665 -.03407 0 83.67 48.381)"><path d="m373.444 1325.142-13.45-8.57 2.65-111.341 16.688-28.568 17.542 27.755 2.373 111.247-13.382 9.224z" fill="#ffdf00" stroke-width="7.525"/><path d="m379.551 1181.017v105.099l16.535 13.127m-16.535-13.127-16.317 14.496" fill="none" stroke-width="6.02"/></g><path d="m372.14 1666.57v-346.55h15v346.55z" fill="#f00" stroke-width="5.575" transform="matrix(0 -.06612 .04829 0 -42.516 55.772)"/><g stroke-width="4.938" transform="matrix(0 -.04665 .03407 0 -23.67 48.381)"><path d="m373.444 1325.142-13.45-8.57 2.65-111.341 16.688-28.568 17.542 27.755 2.373 111.247-13.382 9.224z" fill="#ffdf00" stroke-width="7.525"/><path d="m379.551 1181.017v105.099l16.535 13.127m-16.535-13.127-16.317 14.496" fill="none" stroke-width="6.02"/></g><g stroke-width="4.938" transform="matrix(.03299 -.03299 .0241 .0241 -20.406 5.038)"><path d="m373.444 1325.142-13.45-8.57 2.65-111.341 16.688-28.568 17.542 27.755 2.373 111.247-13.382 9.224z" fill="#ffdf00" stroke-width="7.525"/><path d="m379.551 1181.017v105.099l16.535 13.127m-16.535-13.127-16.317 14.496" fill="none" stroke-width="6.02"/></g><g stroke-width="4.938" transform="matrix(-.03299 -.03299 -.02409 .02409 80.754 5.037)"><path d="m373.444 1325.142-13.45-8.57 2.65-111.341 16.688-28.568 17.542 27.755 2.373 111.247-13.382 9.224z" fill="#ffdf00" stroke-width="7.525"/><path d="m379.551 1181.017v105.099l16.535 13.127m-16.535-13.127-16.317 14.496" fill="none" stroke-width="6.02"/></g></g></g></g></svg>