<svg height="60" width="52.157" xmlns="http://www.w3.org/2000/svg" xmlns:xlink="http://www.w3.org/1999/xlink"><filter id="a" color-interpolation-filters="sRGB" height="1.10862" width="1.180377" x="-.044174" y="-.033421"><feFlood flood-opacity=".498039" result="flood"/><feComposite in="flood" in2="SourceGraphic" operator="in" result="composite1"/><feGaussianBlur in="composite1" result="blur" stdDeviation="1"/><feOffset dx="5" dy="3" result="offset"/><feComposite in="SourceGraphic" in2="offset" operator="over" result="composite2"/></filter><g opacity=".99" transform="translate(-289.17662 -48.707938)"><g filter="url(#a)" transform="matrix(.6 0 0 .6 -.845669 -1.635138)"><path d="m526.83572 98-17.83113 5.91962-9.3353 60.22211 54.33071-.00026-9.33538-60.22258z" fill="#fee572" opacity="1" stroke-width="1.39423"/><path d="m499.66929 164.14173v5.66852l54.33071-.00003v-5.66875z" fill="#c3983c" fill-opacity=".992157" opacity="1"/></g><g opacity=".99" transform="matrix(.56490284 0 0 .56490284 18.035333 3.04769)"><path d="m372.13918 1666.5691v-346.5483h15v346.5483z" fill="#f00" stroke="#f00" stroke-width="4.93827" transform="matrix(-.11019777 0 0 .08047905 568.04951 12.025574)"/><g stroke="#f00" stroke-width="4.93827" transform="matrix(-.07774867 0 0 .05678098 555.73136 44.409591)"><path d="m373.444 1325.1424-13.45088-8.5711 2.65158-111.3407 16.68695-28.5677 17.54212 27.7552 2.37276 111.2472-13.38185 9.2233z" fill="#fee572" fill-opacity=".992157" opacity="1" stroke-width="7.52527"/><g fill="none" stroke-width="6.02022"><path d="m379.55142 1181.0173v105.0984l16.53494 13.1272"/><path d="m379.55142 1286.1157-16.3174 14.4958"/></g></g><path d="m526.2167 120.77128a12.931654 12.931654 0 0 1 12.93202 12.93201 12.931654 12.931654 0 0 1 -12.93202 12.93201 12.931654 12.931654 0 0 1 -12.93201-12.93201 12.931654 12.931654 0 0 1 12.93201-12.93201zm0 2.81986a10.111221 10.111221 0 0 0 -10.11023 10.11215 10.111221 10.111221 0 0 0 10.11023 10.11023 10.111221 10.111221 0 0 0 10.11215-10.11023 10.111221 10.111221 0 0 0 -10.11215-10.11215z" fill="#f00" opacity="1"/><g stroke="#f00"><path d="m372.13918 1666.5691v-346.5483h15v346.5483z" fill="#f00" stroke-width="6.37123" transform="matrix(-.11019777 0 0 -.08047905 568.04951 255.47049)"/><g stroke-width="4.93827" transform="matrix(-.07774867 0 0 -.05678098 555.72878 223.08648)"><path d="m373.444 1325.1424-13.45088-8.5711 2.65158-111.3407 16.68695-28.5677 17.54212 27.7552 2.37276 111.2472-13.38185 9.2233z" fill="#fee572" fill-opacity=".992157" opacity="1" stroke-width="7.52527"/><g fill="none" stroke-width="6.02022"><path d="m379.55142 1181.0173v105.0984l16.53494 13.1272"/><path d="m379.55142 1286.1157-16.3174 14.4958"/></g></g><g fill="#f00"><path d="m372.13918 1666.5691v-346.5483h15v346.5483z" stroke-width="6.37123" transform="matrix(-.07792158 .07792158 .05690729 .05690729 470.15835 18.079723)"/><path d="m372.13918 1666.5691v-346.5483h15v346.5483z" stroke-width="6.37123" transform="matrix(.07792158 .07792158 -.05690729 .05690729 582.69709 18.079723)"/><path d="m372.13918 1666.5691v-346.5483h15v346.5483z" stroke-width="4.93827" transform="matrix(0 -.11019777 -.08047905 0 647.08892 175.53615)"/></g><g stroke-width="4.93827" transform="matrix(0 -.07774867 -.05678099 0 615.59369 163.21794)"><path d="m373.444 1325.1424-13.45088-8.5711 2.65158-111.3407 16.68695-28.5677 17.54212 27.7552 2.37276 111.2472-13.38185 9.2233z" fill="#fee572" fill-opacity=".992157" opacity="1" stroke-width="7.52527"/><g fill="none" stroke-width="6.02022"><path d="m379.55142 1181.0173v105.0984l16.53494 13.1272"/><path d="m379.55142 1286.1157-16.3174 14.4958"/></g></g><path d="m372.13918 1666.5691v-346.5483h15v346.5483z" fill="#f00" stroke-width="5.57483" transform="matrix(0 -.11019777 .08047905 0 405.28475 175.53615)"/><g stroke-width="4.93827" transform="matrix(0 -.07774867 .05678098 0 436.69272 163.21794)"><path d="m373.444 1325.1424-13.45088-8.5711 2.65158-111.3407 16.68695-28.5677 17.54212 27.7552 2.37276 111.2472-13.38185 9.2233z" fill="#fee572" fill-opacity=".992157" opacity="1" stroke-width="7.52527"/><g fill="none" stroke-width="6.02022"><path d="m379.55142 1181.0173v105.0984l16.53494 13.1272"/><path d="m379.55142 1286.1157-16.3174 14.4958"/></g></g><g stroke-width="4.93827" transform="matrix(.05497661 -.05497661 .0401502 .0401502 442.13488 90.978163)"><path d="m373.444 1325.1424-13.45088-8.5711 2.65158-111.3407 16.68695-28.5677 17.54212 27.7552 2.37276 111.2472-13.38185 9.2233z" fill="#fee572" fill-opacity=".992157" opacity="1" stroke-width="7.52527"/><g fill="none" stroke-width="6.02022"><path d="m379.55142 1181.0173v105.0984l16.53494 13.1272"/><path d="m379.55142 1286.1157-16.3174 14.4958"/></g></g><g stroke-width="4.93827" transform="matrix(-.05497661 -.05497661 -.04015022 .04015022 610.73439 90.97727)"><path d="m373.444 1325.1424-13.45088-8.5711 2.65158-111.3407 16.68695-28.5677 17.54212 27.7552 2.37276 111.2472-13.38185 9.2233z" fill="#fee572" fill-opacity=".992157" opacity="1" stroke-width="7.52527"/><g fill="none" stroke-width="6.02022"><path d="m379.55142 1181.0173v105.0984l16.53494 13.1272"/><path d="m379.55142 1286.1157-16.3174 14.4958"/></g></g></g></g></g></svg>