<?xml version="1.0" encoding="UTF-8" standalone="no"?>
<svg
   viewBox="0 0 60 60"
   version="1.1"
   id="svg25"
   sodipodi:docname="0RY.svg"
   inkscape:version="1.3 (0e150ed6c4, 2023-07-21)"
   xmlns:inkscape="http://www.inkscape.org/namespaces/inkscape"
   xmlns:sodipodi="http://sodipodi.sourceforge.net/DTD/sodipodi-0.dtd"
   xmlns="http://www.w3.org/2000/svg"
   xmlns:svg="http://www.w3.org/2000/svg">
  <sodipodi:namedview
     id="namedview25"
     pagecolor="#ffffff"
     bordercolor="#666666"
     borderopacity="1.0"
     inkscape:showpageshadow="2"
     inkscape:pageopacity="0.0"
     inkscape:pagecheckerboard="0"
     inkscape:deskcolor="#d1d1d1"
     inkscape:zoom="3.7666667"
     inkscape:cx="-92.654866"
     inkscape:cy="117.87611"
     inkscape:window-width="3840"
     inkscape:window-height="2054"
     inkscape:window-x="-11"
     inkscape:window-y="-11"
     inkscape:window-maximized="1"
     inkscape:current-layer="svg25"
     showgrid="false"
     showguides="false" />
  <defs
     id="defs2">
    <filter
       id="0HI_svg__a"
       color-interpolation-filters="sRGB"
       x="-0.036952686"
       y="-0.030672713"
       width="1.1508901"
       height="1.0996863">
      <feFlood
         flood-color="#000"
         flood-opacity=".498"
         result="flood"
         id="feFlood1" />
      <feComposite
         in="flood"
         in2="SourceGraphic"
         operator="in"
         result="composite1"
         id="feComposite1" />
      <feGaussianBlur
         in="composite1"
         result="blur"
         stdDeviation="1"
         id="feGaussianBlur1" />
      <feOffset
         dx="5"
         dy="3"
         result="offset"
         id="feOffset1" />
      <feComposite
         in="SourceGraphic"
         in2="offset"
         result="composite2"
         id="feComposite2" />
    </filter>
    <filter
       id="1HI_svg__a"
       color-interpolation-filters="sRGB"
       x="-0.037629351"
       y="-0.031650578"
       width="1.1536532"
       height="1.1028644">
      <feFlood
         flood-color="#000"
         flood-opacity=".498"
         result="flood"
         id="feFlood1-4" />
      <feComposite
         in="flood"
         in2="SourceGraphic"
         operator="in"
         result="composite1"
         id="feComposite1-7" />
      <feGaussianBlur
         in="composite1"
         result="blur"
         stdDeviation="1"
         id="feGaussianBlur1-6" />
      <feOffset
         dx="5"
         dy="3"
         result="offset"
         id="feOffset1-0" />
      <feComposite
         in="SourceGraphic"
         in2="offset"
         result="composite2"
         id="feComposite2-6" />
    </filter>
  </defs>
  <g
     id="path2"
     transform="matrix(0.72,0,0,0.72,-56.320801,-3.549328)"
     style="opacity:0.99;fill-opacity:0.992">
    <path
       style="color:#000000;fill:#fcd2e3;fill-opacity:0.988235;-inkscape-stroke:none"
       d="M 119.89,8 98.188,15.118 88,80.049 h 63.78 l -10.19,-64.93 z"
       id="path1" />
    <path
       id="path4"
       style="color:#000000;fill:#dd7da3;fill-opacity:0.984314;-inkscape-stroke:none"
       d="m 119.89,7.4735677 -0.15625,0.052083 -21.992188,7.2135423 -10.32552,65.810547 v 0 l 2.538176,5.16927 h 59.324032 l 3.08571,-5.16927 v 0 L 142.03844,14.739193 Z m 0,1.0514323 21.25326,6.972656 10.05208,64.052735 H 88.584661 L 98.63349,15.497656 Z"
       sodipodi:nodetypes="ccccccccccccccccc" />
  </g>
  <path
     style="fill:#e394b6;fill-opacity:0.976471;stroke:none;stroke-width:1.2px;stroke-linecap:butt;stroke-linejoin:miter;stroke-opacity:1"
     d="m 7.5796453,54.579872 1.433628,2.947296 H 50.568583 l 1.911506,-2.947296 z"
     id="path5"
     sodipodi:nodetypes="ccccc" />
  <path
     id="path2-0"
     style="fill:#c32e16;fill-opacity:1;stroke-width:1.03292"
     d="m 24.511883,8.07071 c 0.08724,0.8152104 1.916508,5.490102 -0.395412,4.936631 -0.0276,-0.0068 -0.04992,-0.0078 -0.07668,-0.01412 -0.725676,-0.524632 -0.993144,-1.783007 -1.026864,-1.912513 -0.04548,-0.17554 -0.283632,-0.379475 -0.593124,-0.564878 -0.925296,-0.5516432 -2.646972,-0.6581336 -1.464648,0.528564 0.963984,1.252374 1.834392,2.139201 2.229252,3.163318 l 0.0084,-0.0041 c 0.171816,0.899031 0.623256,2.217536 0.8574,3.068499 l 0.344988,1.486841 c 0.12294,0.425002 0.357,1.146624 0.68592,1.779366 0.167076,0.321792 0.359076,0.619841 0.54672,0.829159 0.186756,0.20503 0.347292,0.31077 0.502332,0.35305 0.09324,-0.10854 0.160344,-0.236604 0.195696,-0.37524 0.1032,-0.342342 0.155172,-0.867008 0.175512,-1.392022 0.02028,-0.525018 0.0108,-1.054855 0.0024,-1.434386 -0.0036,-0.187338 -0.006,-0.336946 -0.0036,-0.441816 -0.83994,-1.130725 -1.156956,-2.110543 -1.569552,-3.405408 0.042,-0.174511 0.423492,-0.162681 0.671808,-0.242091 3.557748,-1.139573 0.621,-5.1888112 -0.64962,-6.1369972 l 0.0024,-0.00408 c -0.07464,-0.056292 -0.154992,-0.104364 -0.238056,-0.1472712 -0.06336,-0.034896 -0.13224,-0.059532 -0.20376,-0.070608 z m 10.978812,0 c -0.07152,0.01104 -0.140364,0.035712 -0.20376,0.070608 -0.08304,0.042912 -0.163416,0.090984 -0.238056,0.1472712 l 0.0024,0.00408 c -1.270608,0.948186 -4.207356,4.9974238 -0.649608,6.1369968 0.196272,0.06277 0.500184,0.466759 0.619344,0.403486 -0.38754,1.212538 -0.714024,2.16292 -1.5171,3.244012 0.0024,0.104868 -8.28e-4,0.254479 -0.0036,0.441817 -0.0084,0.379532 -0.01836,0.909369 0.0024,1.434387 0.0204,0.525013 0.07236,1.049679 0.175524,1.392021 0.0354,0.138636 0.10248,0.266699 0.195684,0.37524 0.155052,-0.04228 0.315588,-0.14802 0.502332,-0.353049 0.187656,-0.209319 0.379644,-0.507367 0.546732,-0.829159 0.328908,-0.632742 0.562968,-1.354365 0.68592,-1.779366 l 0.344976,-1.486841 c 0.234156,-0.850963 0.685596,-2.169468 0.857412,-3.0685 l 0.0084,0.0041 c 0.39486,-1.024117 1.265256,-1.910943 2.22924,-3.163317 1.182324,-1.1866982 -0.53934,-1.0802078 -1.464636,-0.528564 -0.309504,0.185401 -0.547608,0.389336 -0.593124,0.564877 -0.03372,0.129506 -0.301188,1.387882 -1.026876,1.912517 -0.02676,0.0064 -0.04908,0.0073 -0.07668,0.01412 -2.31192,0.553471 -0.482604,-4.1214206 -0.395412,-4.936631 z m -5.4894,10.2828 -2.459244,0.59312 c 0.0048,0.318785 0.0072,0.669082 -0.0084,1.047043 -0.0216,0.557266 -0.06264,1.100013 -0.215856,1.622008 -0.07584,0.286024 -0.210768,0.552256 -0.403488,0.776707 l -0.425676,0.496287 -0.631452,-0.171482 C 25.453043,22.606997 25.129823,22.352728 24.864587,22.06153 l -0.0036,-0.002 -0.0024,-0.0041 c -0.276432,-0.308375 -0.498564,-0.660735 -0.695988,-1.040964 -0.201912,-0.388417 -0.362508,-0.78075 -0.490224,-1.135808 l -0.171492,0.04237 v 0.002 c -0.510252,1.352089 -0.325056,3.848391 -0.09888,5.606415 l 0.04032,0.324804 -0.302604,0.123064 c -0.391476,0.160103 -0.89526,0.358004 -1.30326,0.576983 -0.406968,0.216913 -0.661428,0.491185 -0.673824,0.536634 l -0.502332,1.831819 c -0.05892,0.218978 -0.04188,0.335408 -0.02016,0.39945 0.02376,0.06404 0.05964,0.101676 0.141216,0.153324 0.131184,0.0847 0.37446,0.145674 0.623388,0.213846 0.405936,-0.0041 0.861372,-0.02522 1.337544,0.01816 0.583608,0.05474 1.207932,0.227178 1.660344,0.734342 l 0.0444,0.05245 0.0282,0.06456 c 0.176628,0.415232 0.28602,0.863428 0.39138,1.295186 h -0.687948 c -0.324336,-0.0092 -3.821304,-0.07766 -5.917092,2.677118 -0.79122,1.041181 -1.549176,1.810418 -2.4189,2.20706 -0.37908,0.173531 -0.548364,0.327872 -0.865464,0.369189 -0.19626,0.02582 -0.543936,-0.10002 -0.835212,-0.179551 l 0.27234,0.708115 c 0.947196,0.324336 1.7148,0.165541 2.447136,-0.312701 0.7623,-0.495802 1.467768,-1.326724 2.152596,-2.219164 0.89244,-1.173393 2.330232,-1.716684 3.530484,-1.981108 1.019484,-0.225177 1.622496,-0.208779 1.86006,-0.209812 l 0.764604,-0.03026 c 0.04956,0.11706 0.10224,0.217276 0.157368,0.300595 0.07272,0.121023 0.184224,0.215506 0.316728,0.264283 1.423932,-0.317533 2.86794,-0.540944 4.32132,-0.667766 l 0.03432,-0.0041 0.03636,0.0041 c 1.125876,0.09296 2.752368,0.31554 4.319304,0.667766 0.132504,-0.04878 0.243996,-0.14326 0.316728,-0.264283 0.06048,-0.09539 0.11328,-0.194606 0.157356,-0.298578 l 0.762588,0.02824 c 0.237576,0 0.844608,-0.01536 1.864104,0.209812 1.200252,0.264425 2.638044,0.807715 3.530484,1.981109 0.684828,0.89244 1.389312,1.724395 2.150568,2.219163 0.73338,0.47721 1.501968,0.637037 2.449164,0.312701 l 0.27234,-0.708115 c -0.291276,0.07956 -0.638952,0.205401 -0.8352,0.179579 -0.31608,-0.04132 -0.486396,-0.196691 -0.865476,-0.369189 -0.869724,-0.396642 -1.62768,-1.165879 -2.418888,-2.20706 -2.0958,-2.754789 -5.592768,-2.685382 -5.917104,-2.677119 h -0.689952 c 0.10428,-0.431757 0.213708,-0.87892 0.39138,-1.295185 l 0.0282,-0.06456 0.04644,-0.05245 c 0.454476,-0.512328 1.098204,-0.699239 1.712784,-0.776707 0.568104,-0.0723 1.126188,-0.05635 1.579644,-0.06254 0.11412,-0.02815 0.224844,-0.07021 0.328836,-0.125081 0.08268,-0.05165 0.11652,-0.09233 0.1392,-0.155341 0.02268,-0.06508 0.03768,-0.18047 -0.0222,-0.39945 l -0.4983,-1.831819 c -0.0108,-0.04441 -0.268872,-0.319675 -0.67584,-0.538651 -0.406968,-0.216914 -0.911772,-0.413878 -1.303248,-0.572949 l -0.302616,-0.125079 0.04032,-0.324806 c 0.22518,-1.758024 0.410424,-4.256346 -0.10092,-5.608432 l -0.167412,-0.04034 c -0.127584,0.354403 -0.286788,0.746304 -0.488208,1.13379 -0.197424,0.380228 -0.419556,0.732589 -0.696012,1.04099 l -0.0024,0.0041 -0.0036,0.002 c -0.265236,0.291198 -0.588456,0.545467 -0.99258,0.655662 l -0.631452,0.171481 -0.425676,-0.496285 c -0.192696,-0.224476 -0.32766,-0.490706 -0.403452,-0.776732 -0.153288,-0.521996 -0.194268,-1.064741 -0.215868,-1.622008 -0.01464,-0.377533 -0.01236,-0.728088 -0.0084,-1.047042 z m -10.462356,1.444473 c -0.737508,1.629945 -1.048404,2.514876 1.032924,4.918475 -1.373784,-0.328469 -2.864148,-3.088496 -3.492156,-3.655569 -1.075272,2.722771 0.271656,3.917676 1.936716,4.785326 -1.623744,0.34706 -2.592564,-0.432262 -4.220448,-0.925998 0.9069,1.657834 2.026752,4.191604 4.771212,3.012012 -1.019496,1.400636 -2.79486,2.04675 -4.313256,2.947453 1.560744,0.295413 3.187596,1.070038 4.519032,-0.298579 -0.69102,1.262226 -1.81704,2.341021 -2.921232,3.425584 0.451464,-0.05964 0.900168,-0.137457 1.34562,-0.232005 0.706512,-0.780884 1.524348,-1.300691 2.334156,-1.668407 0.0084,-0.431761 0.12636,-0.880438 0.244116,-1.27501 0.0702,-0.235506 0.08844,-0.271821 0.143232,-0.42366 -0.200388,-0.05165 -0.3648,-0.06418 -0.59514,-0.209811 -0.221004,-0.136653 -0.392412,-0.343974 -0.484176,-0.58707 -0.096,-0.26546 -0.09288,-0.574161 -0.0024,-0.909858 l 0.502332,-1.833836 c 0.14874,-0.546412 0.620364,-0.811101 1.09344,-1.065199 0.374952,-0.200386 0.752532,-0.344738 1.095468,-0.484181 -0.05508,-0.415745 -0.1026,-0.833392 -0.143244,-1.250801 z m 20.922684,0 -2.85264,4.2729 c -0.03936,0.416379 -0.08496,0.832061 -0.1392,1.246767 0.342936,0.139443 0.717516,0.283795 1.091424,0.484181 0.475152,0.254098 0.948744,0.518787 1.097484,1.065199 l 0.4983,1.833836 c 0.093,0.335697 0.09708,0.644398 0,0.909858 -0.096,0.266493 -0.287976,0.46312 -0.48216,0.58707 -0.23034,0.145638 -0.396768,0.159201 -0.597156,0.209811 0.05472,0.151839 0.07704,0.188154 0.147276,0.42366 0.11772,0.394572 0.231804,0.843249 0.240072,1.27501 0.81084,0.367716 1.631676,0.887523 2.338188,1.668407 0.440028,0.09433 0.88902,0.172096 1.347636,0.232005 -1.105224,-1.084563 -2.232228,-2.163358 -2.923248,-3.425584 1.331436,1.368617 2.960304,0.593992 4.521048,0.298579 -1.518384,-0.900703 -3.296808,-1.546817 -4.315272,-2.947453 2.744472,1.179592 3.86328,-1.353145 4.771212,-3.012012 -1.629948,0.493736 -2.594688,1.272025 -4.218432,0.925998 1.66506,-0.86765 3.011004,-2.062555 1.934712,-4.785326 -0.626988,0.566041 -2.120448,3.326067 -3.492168,3.655569 2.080296,-2.404632 1.7694,-3.28853 1.032924,-4.918475 z m -6.017976,3.950112 c 0.05568,0.0013 0.11256,0.0078 0.167448,0.01816 0.36462,0.06198 0.7041,0.293012 1.004676,0.788813 0.79638,1.628909 -0.46686,2.416019 -1.765236,2.882896 -1.384116,0.224143 -2.166828,-0.165286 -2.721504,-1.075285 2.166024,-1.558674 2.447844,-2.506317 3.149196,-2.606511 0.05532,-0.0077 0.1098,-0.0095 0.16542,-0.008 z m -8.721312,0.008 c 0.701352,0.100188 0.983172,1.047837 3.149196,2.606511 -0.554676,0.911031 -1.339404,1.299428 -2.72352,1.075285 -1.298376,-0.466877 -2.561616,-1.252954 -1.765248,-2.882896 0.299556,-0.495801 0.640068,-0.726837 1.004676,-0.788812 0.122928,-0.02066 0.330768,0.08903 0.334896,-0.008 z m 2.198988,6.423472 c 0.681732,0.149773 0.98154,1.128708 1.452552,1.732967 l -0.865476,-0.641529 -1.075284,-0.114996 c 0.07128,-0.464814 -0.37944,-0.835954 0.488208,-0.976431 z m 4.1559,0 c 0.867648,0.140477 0.417924,0.510586 0.490224,0.976433 l -1.075284,0.117012 -0.865476,0.639523 c 0.472044,-0.604259 0.768804,-1.583194 1.450536,-1.732968 z m 6.122868,0.286475 c -0.261588,6.31e-4 -0.522768,0.01543 -0.78276,0.04439 -0.49476,0.06198 -0.883728,0.213752 -1.137828,0.476111 -0.03612,0.09193 -0.06384,0.209312 -0.0948,0.316735 0.805608,0.04601 1.601772,0.19628 2.368452,0.447869 -0.033,-0.228849 -0.08196,-0.455481 -0.145248,-0.677854 -0.10128,-0.338798 -0.167508,-0.50292 -0.207792,-0.607244 z m -15.98202,0.06859 c -0.148272,-0.0029 -0.29556,-10e-4 -0.443832,0.0041 -0.0486,0.128082 -0.09276,0.237135 -0.18156,0.534617 -0.0702,0.233439 -0.09804,0.45484 -0.131136,0.673819 0.762564,-0.249045 1.553436,-0.398014 2.354328,-0.443833 -0.03096,-0.106392 -0.05964,-0.223822 -0.0948,-0.314718 -0.254088,-0.263392 -0.598512,-0.390363 -1.057128,-0.433745 -0.14796,-0.01092 -0.297564,-0.01726 -0.445848,-0.02017 z m 13.280688,2.886931 c -0.03924,0.0785 -0.07044,0.160684 -0.11904,0.234022 -0.185916,0.279918 -0.454644,0.527966 -0.810996,0.639522 0.03924,4.07589 -0.02544,3.657146 -1.047048,7.506826 l -0.04236,0.159377 -0.1392,0.08876 c -0.919296,0.590827 -2.119296,0.881614 -3.324708,0.881614 -1.205412,0 -2.42028,-0.293172 -3.35094,-0.954241 l -0.125076,-0.08876 -0.03828,-0.14929 c -1.019484,-3.868266 -1.140936,-3.44187 -1.05108,-7.438225 l -0.01212,-0.002 c -0.3408,-0.112968 -0.631656,-0.341836 -0.823104,-0.645575 -0.04752,-0.0723 -0.07572,-0.153551 -0.11496,-0.229986 -0.61902,0.01188 -1.236456,0.08742 -1.839888,0.22595 -0.23442,0.05423 -0.465204,0.119196 -0.693996,0.193673 0.11676,0.200387 0.229704,0.402275 0.371208,0.583036 -0.0072,-0.01032 0.301296,0.205034 0.572952,0.322788 0.271656,0.117744 0.516456,0.197707 0.516456,0.197707 l 0.24612,0.08272 0.04032,0.25823 c 0.572244,3.766014 1.343532,5.14905 2.293812,7.964782 0.1146,0.172186 0.249192,0.330059 0.401472,0.470059 l 0.593124,7.942591 0.839244,-5.967535 1.123704,5.297751 1.038972,-5.18881 1.032924,5.178722 1.131768,-5.376429 0.839244,6.094632 0.587076,-7.984957 c 0.149772,-0.142542 0.28794,-0.29456 0.397428,-0.466024 0.95028,-2.814698 1.719564,-4.19675 2.291796,-7.962764 l 0.04236,-0.258231 0.24612,-0.08272 c 0,0 0.246828,-0.08197 0.518484,-0.199724 0.271656,-0.117756 0.577176,-0.332085 0.568908,-0.322788 0.141516,-0.181794 0.2565,-0.384666 0.373224,-0.585053 -0.228492,-0.07375 -0.45996,-0.138072 -0.693996,-0.191656 -0.603732,-0.138952 -1.220484,-0.215835 -1.839888,-0.227968 z m -5.501508,0.211829 c -0.954408,0.08057 -2.270892,0.249969 -3.593028,0.516461 l 0.605232,3.237962 0.837228,-1.622008 1.12572,1.242734 1.038972,-1.180193 1.032924,1.174139 1.131768,-1.287116 0.839256,1.694636 0.597156,-3.254102 c -1.194516,-0.240704 -2.40144,-0.415045 -3.615228,-0.522493 z m 0.01416,5.451074 -1.032912,0.99459 -0.978456,-0.942137 -0.4398,2.334158 c 0.694128,0.381147 1.5576,0.609261 2.4552,0.609261 0.891408,0 1.752036,-0.221852 2.44512,-0.568913 l -0.445848,-2.366436 -0.97038,0.934067 z" />
</svg>
