<svg height="60" width="52.157" xmlns="http://www.w3.org/2000/svg" xmlns:xlink="http://www.w3.org/1999/xlink"><filter id="a" color-interpolation-filters="sRGB" height="1.112314" width="1.184379" x="-.045154" y="-.034558"><feFlood flood-opacity=".498039" result="flood"/><feComposite in="flood" in2="SourceGraphic" operator="in" result="composite1"/><feGaussianBlur in="composite1" result="blur" stdDeviation="1"/><feOffset dx="5" dy="3" result="offset"/><feComposite in="SourceGraphic" in2="offset" operator="over" result="composite2"/></filter><g opacity=".99" transform="translate(-338.13038 4.800723)"><g filter="url(#a)" transform="matrix(.6 0 0 .6 -.245669 -1.635138)"><path d="m-11.041804 6.6665435-12.954011 4.2210195-6.853184 43.408481 39.614559-.00054-6.8545063-43.407676z" fill="#fee572" stroke-width=".999978" transform="matrix(1.34171621228 0 0 1.33907613818 622.2391073247 1.0729902178)"/><path d="m580.84851 73.779528v5.668522l53.15149-.000501v-5.668745z" fill="#c3983c" fill-opacity=".992157" opacity="1"/></g><g opacity="1" stroke="#000" stroke-linejoin="round" stroke-width="1.4609" transform="matrix(.40949511 0 0 .49842488 373.47403 -8.009618)"><path d="m-26.348164 57.048426c-.101781 8.756321-.371109 15.836633-11.545204 21.428518-5.232221 2.785963-6.963446 4.475105-7.614698 9.332185 6.784589 1.493568 14.836273 2.210393 22.882279 2.179259 8.046006.03113 16.097689-.685691 22.88227852-2.179259-.651252-4.85708-2.38247702-6.546222-7.61469802-9.332185-11.1740945-5.591885-11.4434225-12.672197-11.5452035-21.428518v.000004c-1.240718.01919-2.481542.02015-3.722377.01942-1.240835.000729-2.481659-.000233-3.722377-.01942z" stroke-width="1.4609"/><path d="m-22.625787 40.685827c-3.363141 7.787203-6.825744 12.380544-21.095793 17.653465 14.042916 2.688352 29.463886 2.483633 42.1915835 0-14.2700485-5.272921-17.7326505-9.866262-21.0957905-17.653465z" stroke-width="1.69803"/></g></g></svg>