<?xml version="1.0" encoding="UTF-8" standalone="no"?>
<svg
   viewBox="0 0 60 60"
   version="1.1"
   id="svg6"
   sodipodi:docname="0Soldier.svg"
   xml:space="preserve"
   inkscape:version="1.3 (0e150ed6c4, 2023-07-21)"
   xmlns:inkscape="http://www.inkscape.org/namespaces/inkscape"
   xmlns:sodipodi="http://sodipodi.sourceforge.net/DTD/sodipodi-0.dtd"
   xmlns="http://www.w3.org/2000/svg"
   xmlns:svg="http://www.w3.org/2000/svg"><sodipodi:namedview
     id="namedview6"
     pagecolor="#ffffff"
     bordercolor="#666666"
     borderopacity="1.0"
     inkscape:showpageshadow="2"
     inkscape:pageopacity="0.0"
     inkscape:pagecheckerboard="0"
     inkscape:deskcolor="#d1d1d1"
     showgrid="false"
     inkscape:zoom="8"
     inkscape:cx="-47.5"
     inkscape:cy="28.875"
     inkscape:window-width="3840"
     inkscape:window-height="2054"
     inkscape:window-x="-11"
     inkscape:window-y="-11"
     inkscape:window-maximized="1"
     inkscape:current-layer="g6" /><defs
     id="defs2"><filter
       id="0FU_svg__a"
       color-interpolation-filters="sRGB"
       x="-0.046172351"
       y="-0.66541513"
       width="1.1885371"
       height="3.1625992"><feFlood
         flood-color="#000"
         flood-opacity=".498"
         result="flood"
         id="feFlood1" /><feComposite
         in="flood"
         in2="SourceGraphic"
         operator="in"
         result="composite1"
         id="feComposite1" /><feGaussianBlur
         in="composite1"
         result="blur"
         stdDeviation="1"
         id="feGaussianBlur1" /><feOffset
         dx="5"
         dy="3"
         result="offset"
         id="feOffset1" /><feComposite
         in="SourceGraphic"
         in2="offset"
         result="composite2"
         id="feComposite2" /></filter></defs><g
     opacity=".99"
     id="g6"><g
       id="path2"
       transform="matrix(0.72,0,0,0.72,-407.346,-2.0121283)"><path
         style="color:#000000;fill:#ffd7b0;stroke-width:1.00157;stroke-dasharray:none"
         d="M 607.424,10 590.044,15.652 580.849,73.78 634,73.779 624.803,15.653 Z"
         id="path1" /><path
         id="path6"
         style="color:#000000;fill:#927b64;fill-opacity:0.99215698;-inkscape-stroke:none"
         d="m 607.425,9.4759375 -0.15625,0.048828 -17.67253,5.7454425 -9.33268,59.010417 2.14518,5.166016 h 49.71355 l 2.46419,-5.166016 -9.33919,-59.010417 z m 0,1.0481775 16.93359,5.507812 9.05599,57.246094 h -51.97916 l 9.05599,-57.246094 z" /></g><path
       style="fill:#b5987c;fill-opacity:0.98431373;stroke:none;stroke-width:1.2px;stroke-linecap:butt;stroke-linejoin:miter;stroke-opacity:1"
       d="m 11.287498,51.629298 1.2375,2.596876 h 34.837495 l 1.35,-2.596876 z"
       id="path7"
       sodipodi:nodetypes="ccccc" /><g
       id="g2"
       style="opacity:0.99"
       transform="translate(-336.14274,7.3906203)"><path
         inkscape:connector-curvature="0"
         id="path2178-9"
         d="m 364.31359,17.068205 c -0.05,5.237242 -0.18236,9.472046 -5.67325,12.816608 -2.57108,1.666312 -3.4218,2.676604 -3.74182,5.581672 3.33391,0.893318 7.29046,1.322058 11.24422,1.303436 3.95376,0.01862 7.91031,-0.410118 11.24422,-1.303436 -0.32002,-2.905068 -1.17074,-3.91536 -3.74182,-5.581672 -5.49088,-3.344562 -5.62323,-7.579366 -5.67324,-12.816608 v 2e-6 c -0.60969,0.01148 -1.21942,0.01205 -1.82916,0.01162 -0.60974,4.36e-4 -1.21947,-1.4e-4 -1.82915,-0.01162 z"
         style="fill:#000000;stroke:#000000;stroke-width:0.792001;stroke-linecap:butt;stroke-linejoin:round;stroke-miterlimit:4;stroke-dasharray:none;stroke-opacity:1;paint-order:stroke fill markers" /><path
         sodipodi:nodetypes="cccc"
         inkscape:connector-curvature="0"
         id="path1-0"
         d="m 366.14274,7.2815733 c -1.65263,4.6576027 -3.35413,7.4049257 -10.36635,10.5587117 6.90061,1.60793 14.47838,1.485485 20.7327,0 -7.01222,-3.153786 -8.71372,-5.901109 -10.36635,-10.5587117 z"
         style="fill:#000000;stroke:#000000;stroke-width:0.920557;stroke-linecap:butt;stroke-linejoin:round;stroke-miterlimit:4;stroke-dasharray:none;stroke-opacity:1;paint-order:stroke fill markers" /></g></g></svg>
