<?xml version="1.0" encoding="UTF-8" standalone="no"?>
<svg
   viewBox="0 0 60 60"
   version="1.1"
   id="svg25"
   sodipodi:docname="0SU.svg"
   inkscape:version="1.3 (0e150ed6c4, 2023-07-21)"
   xmlns:inkscape="http://www.inkscape.org/namespaces/inkscape"
   xmlns:sodipodi="http://sodipodi.sourceforge.net/DTD/sodipodi-0.dtd"
   xmlns="http://www.w3.org/2000/svg"
   xmlns:svg="http://www.w3.org/2000/svg">
  <sodipodi:namedview
     id="namedview25"
     pagecolor="#ffffff"
     bordercolor="#666666"
     borderopacity="1.0"
     inkscape:showpageshadow="2"
     inkscape:pageopacity="0.0"
     inkscape:pagecheckerboard="0"
     inkscape:deskcolor="#d1d1d1"
     inkscape:zoom="3.7666667"
     inkscape:cx="-92.654866"
     inkscape:cy="117.87611"
     inkscape:window-width="3840"
     inkscape:window-height="2054"
     inkscape:window-x="-11"
     inkscape:window-y="-11"
     inkscape:window-maximized="1"
     inkscape:current-layer="svg25"
     showgrid="false" />
  <defs
     id="defs2">
    <filter
       id="0HI_svg__a"
       color-interpolation-filters="sRGB"
       x="-0.036952686"
       y="-0.030672713"
       width="1.1508901"
       height="1.0996863">
      <feFlood
         flood-color="#000"
         flood-opacity=".498"
         result="flood"
         id="feFlood1" />
      <feComposite
         in="flood"
         in2="SourceGraphic"
         operator="in"
         result="composite1"
         id="feComposite1" />
      <feGaussianBlur
         in="composite1"
         result="blur"
         stdDeviation="1"
         id="feGaussianBlur1" />
      <feOffset
         dx="5"
         dy="3"
         result="offset"
         id="feOffset1" />
      <feComposite
         in="SourceGraphic"
         in2="offset"
         result="composite2"
         id="feComposite2" />
    </filter>
    <filter
       id="1HI_svg__a"
       color-interpolation-filters="sRGB"
       x="-0.037629351"
       y="-0.031650578"
       width="1.1536532"
       height="1.1028644">
      <feFlood
         flood-color="#000"
         flood-opacity=".498"
         result="flood"
         id="feFlood1-4" />
      <feComposite
         in="flood"
         in2="SourceGraphic"
         operator="in"
         result="composite1"
         id="feComposite1-7" />
      <feGaussianBlur
         in="composite1"
         result="blur"
         stdDeviation="1"
         id="feGaussianBlur1-6" />
      <feOffset
         dx="5"
         dy="3"
         result="offset"
         id="feOffset1-0" />
      <feComposite
         in="SourceGraphic"
         in2="offset"
         result="composite2"
         id="feComposite2-6" />
    </filter>
  </defs>
  <g
     id="path2"
     transform="matrix(0.72,0,0,0.72,-56.320801,-3.549328)"
     style="opacity:0.99;fill-opacity:0.992">
    <path
       style="color:#000000;fill:#fcd2e3;fill-opacity:0.988235;-inkscape-stroke:none"
       d="M 119.89,8 98.188,15.118 88,80.049 h 63.78 l -10.19,-64.93 z"
       id="path1" />
    <path
       id="path4"
       style="color:#000000;fill:#dd7da3;fill-opacity:0.984314;-inkscape-stroke:none"
       d="m 119.89,7.4735677 -0.15625,0.052083 -21.992188,7.2135423 -10.32552,65.810547 v 0 l 2.538176,5.16927 h 59.324032 l 3.08571,-5.16927 v 0 L 142.03844,14.739193 Z m 0,1.0514323 21.25326,6.972656 10.05208,64.052735 H 88.584661 L 98.63349,15.497656 Z"
       sodipodi:nodetypes="ccccccccccccccccc" />
  </g>
  <path
     style="fill:#e394b6;fill-opacity:0.976471;stroke:none;stroke-width:1.2px;stroke-linecap:butt;stroke-linejoin:miter;stroke-opacity:1"
     d="m 7.5796453,54.579872 1.433628,2.947296 H 50.568583 l 1.911506,-2.947296 z"
     id="path5"
     sodipodi:nodetypes="ccccc" />
  <path
     id="path6781"
     style="fill:#040302;fill-opacity:1;stroke:none;stroke-width:0.841681px;stroke-linecap:butt;stroke-linejoin:miter;stroke-opacity:1"
     d="m 26.254111,10.677285 a 1.1825417,1.098075 0 0 0 -1.182937,1.099385 1.1825417,1.098075 0 0 0 1.182937,1.099384 1.1825417,1.098075 0 0 0 1.182938,-1.099384 1.1825417,1.098075 0 0 0 -1.182938,-1.099385 z m 3.472955,2.872691 a 1.055841,1.1825417 0 0 0 -1.022427,1.182938 1.055841,1.1825417 0 0 0 1.055409,1.182937 1.055841,1.1825417 0 0 0 1.055409,-1.182937 1.055841,1.1825417 0 0 0 -1.055409,-1.182938 1.055841,1.1825417 0 0 0 -0.03436,0 z m -3.262973,1.942613 a 1.1403089,1.1825417 0 0 0 -1.140061,1.182937 1.1403089,1.1825417 0 0 0 1.140061,1.182937 1.1403089,1.1825417 0 0 0 1.140063,-1.182937 1.1403089,1.1825417 0 0 0 -1.140063,-1.182937 z m 5.737688,3.542216 c -2.896878,0.04025 -5.096746,1.634784 -6.931618,4.045734 -2.084434,2.328496 -3.532322,5.239666 -4.260115,8.815963 -0.714599,1.453386 -1.321459,1.710642 -1.92832,2.028364 -1.840369,-0.560686 -2.441732,-1.432498 -2.008575,-2.556069 0.28584,-1.595206 2.802331,-2.954046 4.418426,-4.408531 1.28408,-2.335092 1.886543,-4.580035 -0.48373,-6.436895 -7.037158,-1.809586 -5.671723,4.150175 -4.17876,5.467238 1.00044,-0.483729 1.6084,-1.077396 1.928321,-1.763412 -0.208884,-0.384785 -0.791557,-0.7146 0,-1.233509 0.42876,0.04025 0.659631,0.252858 0.802551,0.527703 0,0.879508 0.406772,1.011435 -2.89248,3.526826 -1.943712,1.022427 -2.083334,2.636324 -2.812226,4.055629 -1.340149,7.703385 1.566623,10.014291 5.222075,11.373461 0.692613,-0.637643 0.901495,-1.535841 1.204926,-2.381267 1.044415,0.252858 2.020668,0.340809 3.455364,1.587511 0.351804,-0.351803 0.692613,-0.703607 1.044415,-1.05541 l 1.221417,-0.978451 c 0.329815,0.835531 -0.34081,1.204925 -0.681618,1.727133 -0.494723,0.758575 -1.529244,1.544635 -2.387863,2.065742 l 1.92832,0.263852 c 0.868514,-0.362796 1.55343,-0.901495 2.170185,-1.49846 l 1.044415,-0.351803 c 0.978451,-2.619833 1.921723,-5.247361 2.330694,-8.023307 -0.06894,-0.868513 -0.08039,-1.560026 -0.560686,-3.967677 l 0.560686,-2.028365 3.37511,-4.144679 -2.571459,4.408531 -0.48373,1.851364 c -0.08051,1.348944 0.120933,2.494502 0.48373,3.526824 l -0.164908,1.851364 c -0.879507,2.730871 -1.895339,5.349603 -2.08883,8.376208 0.103296,0.68162 0.329815,1.273088 1.044415,1.498462 9.023746,-0.373792 13.522644,-4.615216 16.311336,-10.316623 l 0.164908,-1.850263 c -1.693053,-7.83971 -6.550132,-11.85884 -13.017581,-13.93052 -0.384785,-0.05057 -0.758575,-0.07817 -1.12687,-0.07817 -0.0458,-1.1e-4 -0.09185,-6.6e-4 -0.14292,0 z m -7.611038,9.929639 c 0.153914,-2.2e-4 0.307828,0.0597 0.472736,0.241865 l 1.418205,1.834872 c 0.230871,0.593667 0.318821,1.175241 0.09196,1.735928 -0.252858,-0.450748 -0.483728,-0.901495 -1.077396,-1.355542 -0.65963,-0.197888 -1.341249,-0.384784 -1.744723,-0.813543 -0.186895,-1.033422 0.03448,-1.088392 0.14292,-1.417107 0.219877,-0.06431 0.439753,-0.208884 0.670625,-0.219877 0.01032,-5.49e-4 0.02302,-8.79e-4 0.03448,-9.9e-4 z m -3.740106,12.102242 c -1.066402,3.585093 -3.254178,5.572779 -5.30343,7.758355 -0.164907,0.274846 0.109944,0.351803 0.802551,0.263853 3.137643,-1.64358 5.511213,-3.844547 6.508356,-7.053651 -0.62665,-0.362796 -1.05541,-0.956463 -2.008576,-0.967458 z" />
</svg>
