<?xml version="1.0" encoding="UTF-8" standalone="no"?>
<svg
   viewBox="0 0 60 60"
   version="1.1"
   id="svg25"
   sodipodi:docname="0TA.svg"
   inkscape:version="1.3 (0e150ed6c4, 2023-07-21)"
   xmlns:inkscape="http://www.inkscape.org/namespaces/inkscape"
   xmlns:sodipodi="http://sodipodi.sourceforge.net/DTD/sodipodi-0.dtd"
   xmlns="http://www.w3.org/2000/svg"
   xmlns:svg="http://www.w3.org/2000/svg">
  <sodipodi:namedview
     id="namedview25"
     pagecolor="#ffffff"
     bordercolor="#666666"
     borderopacity="1.0"
     inkscape:showpageshadow="2"
     inkscape:pageopacity="0.0"
     inkscape:pagecheckerboard="0"
     inkscape:deskcolor="#d1d1d1"
     inkscape:zoom="5.3268711"
     inkscape:cx="-5.4440964"
     inkscape:cy="84.289631"
     inkscape:window-width="3840"
     inkscape:window-height="2054"
     inkscape:window-x="-11"
     inkscape:window-y="-11"
     inkscape:window-maximized="1"
     inkscape:current-layer="svg25"
     showgrid="false" />
  <defs
     id="defs2">
    <filter
       id="0HI_svg__a"
       color-interpolation-filters="sRGB"
       x="-0.036952686"
       y="-0.030672713"
       width="1.1508901"
       height="1.0996863">
      <feFlood
         flood-color="#000"
         flood-opacity=".498"
         result="flood"
         id="feFlood1" />
      <feComposite
         in="flood"
         in2="SourceGraphic"
         operator="in"
         result="composite1"
         id="feComposite1" />
      <feGaussianBlur
         in="composite1"
         result="blur"
         stdDeviation="1"
         id="feGaussianBlur1" />
      <feOffset
         dx="5"
         dy="3"
         result="offset"
         id="feOffset1" />
      <feComposite
         in="SourceGraphic"
         in2="offset"
         result="composite2"
         id="feComposite2" />
    </filter>
    <filter
       id="1HI_svg__a"
       color-interpolation-filters="sRGB"
       x="-0.037629351"
       y="-0.031650578"
       width="1.1536532"
       height="1.1028644">
      <feFlood
         flood-color="#000"
         flood-opacity=".498"
         result="flood"
         id="feFlood1-4" />
      <feComposite
         in="flood"
         in2="SourceGraphic"
         operator="in"
         result="composite1"
         id="feComposite1-7" />
      <feGaussianBlur
         in="composite1"
         result="blur"
         stdDeviation="1"
         id="feGaussianBlur1-6" />
      <feOffset
         dx="5"
         dy="3"
         result="offset"
         id="feOffset1-0" />
      <feComposite
         in="SourceGraphic"
         in2="offset"
         result="composite2"
         id="feComposite2-6" />
    </filter>
  </defs>
  <g
     id="path2"
     transform="matrix(0.72,0,0,0.72,-56.320801,-3.549328)"
     style="opacity:0.99;fill-opacity:0.992">
    <path
       style="color:#000000;fill:#fcd2e3;fill-opacity:0.988235;-inkscape-stroke:none"
       d="M 119.89,8 98.188,15.118 88,80.049 h 63.78 l -10.19,-64.93 z"
       id="path1" />
    <path
       id="path4"
       style="color:#000000;fill:#dd7da3;fill-opacity:0.984314;-inkscape-stroke:none"
       d="m 119.89,7.4735677 -0.15625,0.052083 -21.992188,7.2135423 -10.32552,65.810547 v 0 l 2.538176,5.16927 h 59.324032 l 3.08571,-5.16927 v 0 L 142.03844,14.739193 Z m 0,1.0514323 21.25326,6.972656 10.05208,64.052735 H 88.584661 L 98.63349,15.497656 Z"
       sodipodi:nodetypes="ccccccccccccccccc" />
  </g>
  <path
     style="fill:#e394b6;fill-opacity:0.976471;stroke:none;stroke-width:1.2px;stroke-linecap:butt;stroke-linejoin:miter;stroke-opacity:1"
     d="m 7.5796453,54.579872 1.433628,2.947296 H 50.568583 l 1.911506,-2.947296 z"
     id="path5"
     sodipodi:nodetypes="ccccc" />
  <path
     id="path26076-6"
     style="color:#000000;font-style:normal;font-variant:normal;font-weight:normal;font-stretch:normal;font-size:29.072px;line-height:1.25;font-family:MingLiU_HKSCS-ExtB;-inkscape-font-specification:MingLiU_HKSCS-ExtB;font-variant-ligatures:normal;font-variant-position:normal;font-variant-caps:normal;font-variant-numeric:normal;font-variant-alternates:normal;font-variant-east-asian:normal;font-feature-settings:normal;font-variation-settings:normal;text-indent:0;text-align:start;text-decoration:none;text-decoration-line:none;text-decoration-style:solid;text-decoration-color:#000000;letter-spacing:0px;word-spacing:0px;text-transform:none;writing-mode:lr-tb;direction:ltr;text-orientation:mixed;dominant-baseline:auto;baseline-shift:baseline;text-anchor:start;white-space:normal;shape-padding:0;shape-margin:0;inline-size:0;clip-rule:nonzero;display:inline;overflow:visible;visibility:visible;opacity:0.99;isolation:auto;mix-blend-mode:normal;color-interpolation:sRGB;color-interpolation-filters:linearRGB;solid-color:#000000;solid-opacity:1;vector-effect:none;fill:#ce2b06;fill-opacity:1;fill-rule:nonzero;stroke:none;stroke-width:0.585392;stroke-linecap:butt;stroke-linejoin:round;stroke-miterlimit:4;stroke-dasharray:none;stroke-dashoffset:0;stroke-opacity:1;color-rendering:auto;image-rendering:auto;shape-rendering:auto;text-rendering:auto;enable-background:accumulate;stop-color:#000000"
     d="m 22.129572,16.564688 c -0.4608,0.01416 -0.77184,0.48384 -0.61056,0.89856 l 1.152,3.538944 c 0.10524,0.26496 0.38016,0.42624 0.66816,0.41472 h 9.334656 l -4.572288,3.5136 v 5.046912 H 17.640228 c -0.29952,-0.0036 -0.576,0.20736 -0.66816,0.49536 l -1.153152,3.044736 c -0.16128,0.44928 0.18432,0.9216 0.66816,0.89856 h 11.613192 v 9.795456 l -3.608064,-0.04284 c -0.27648,0.02856 -0.64512,-0.0204 -0.99072,0.01908 l 1.162368,1.541376 c 1.162368,1.49184 1.868544,2.276352 3.532032,3.32352 1.407744,-0.02868 2.798208,-0.58752 4.795776,-1.65312 l -0.03708,-3.188736 v -9.794304 h 10.564992 c 0.48384,0.018 0.82944,-0.44928 0.65664,-0.89856 l -1.152,-3.331584 c -0.08268,-0.29952 -2.030976,-0.20736 -2.337408,-0.20736 H 32.95458 v -5.041152 l 4.386816,-3.51936 c 2.12544,-1.639296 3.055104,-1.984896 3.233664,-3.95136 0.16128,-0.44928 -0.18432,-0.9216 -0.65664,-0.89856 l -17.732268,0.001 c -0.012,-9.24e-4 -0.03708,-0.0012 -0.0486,-0.001 z"
     sodipodi:nodetypes="cccccccccccccccccccccccccccccccc" />
</svg>
