<?xml version="1.0" encoding="UTF-8" standalone="no"?>
<svg
   viewBox="0 0 60 60"
   version="1.1"
   id="svg12"
   sodipodi:docname="0TA.svg"
   inkscape:version="1.3 (0e150ed6c4, 2023-07-21)"
   xmlns:inkscape="http://www.inkscape.org/namespaces/inkscape"
   xmlns:sodipodi="http://sodipodi.sourceforge.net/DTD/sodipodi-0.dtd"
   xmlns="http://www.w3.org/2000/svg"
   xmlns:svg="http://www.w3.org/2000/svg">
  <sodipodi:namedview
     id="namedview12"
     pagecolor="#ffffff"
     bordercolor="#666666"
     borderopacity="1.0"
     inkscape:showpageshadow="2"
     inkscape:pageopacity="0.0"
     inkscape:pagecheckerboard="0"
     inkscape:deskcolor="#d1d1d1"
     inkscape:zoom="10.759808"
     inkscape:cx="-18.7271"
     inkscape:cy="11.152615"
     inkscape:window-width="3840"
     inkscape:window-height="2054"
     inkscape:window-x="-11"
     inkscape:window-y="-11"
     inkscape:window-maximized="1"
     inkscape:current-layer="svg12"
     showgrid="false" />
  <defs
     id="defs2">
    <filter
       id="0UM_svg__a"
       color-interpolation-filters="sRGB"
       x="-0.037629351"
       y="-0.030880877"
       width="1.1536532"
       height="1.1003629">
      <feFlood
         flood-color="#000"
         flood-opacity=".498"
         result="flood"
         id="feFlood1" />
      <feComposite
         in="flood"
         in2="SourceGraphic"
         operator="in"
         result="composite1"
         id="feComposite1" />
      <feGaussianBlur
         in="composite1"
         result="blur"
         stdDeviation="1"
         id="feGaussianBlur1" />
      <feOffset
         dx="5"
         dy="3"
         result="offset"
         id="feOffset1" />
      <feComposite
         in="SourceGraphic"
         in2="offset"
         result="composite2"
         id="feComposite2" />
    </filter>
  </defs>
  <g
     opacity=".99"
     id="g12">
    <g
       fill-opacity=".992"
       filter="url(#0UM_svg__a)"
       transform="matrix(.6 0 0 .6 -89.934 -52.115)"
       id="g3">
      <path
         fill="#fcc8dc"
         d="m199.892 98-21.089 6.577L168 170.049h63.78l-10.804-65.473z"
         id="path2" />
      <path
         fill="#dc7ea2"
         d="M168 170.05v5.668h63.78v-5.67z"
         id="path3" />
    </g>
    <path
       fill="none"
       stroke="#fcc7dc"
       stroke-opacity=".988"
       stroke-width=".84"
       d="M25.907 24.788c-.986-.003-2.458.118-3.444.685m1.208 4.074c-2.315.245-2.97.405-4.218.956m3.641 3.731c-.86.022-1.873.048-4.182.794m3.749 5.264c-1.321-.18-2.139.275-3.46.649"
       id="path12" />
  </g>
  <path
     id="path26076-6"
     style="color:#000000;font-style:normal;font-variant:normal;font-weight:normal;font-stretch:normal;font-size:29.072px;line-height:1.25;font-family:MingLiU_HKSCS-ExtB;-inkscape-font-specification:MingLiU_HKSCS-ExtB;font-variant-ligatures:normal;font-variant-position:normal;font-variant-caps:normal;font-variant-numeric:normal;font-variant-alternates:normal;font-variant-east-asian:normal;font-feature-settings:normal;font-variation-settings:normal;text-indent:0;text-align:start;text-decoration:none;text-decoration-line:none;text-decoration-style:solid;text-decoration-color:#000000;letter-spacing:0px;word-spacing:0px;text-transform:none;writing-mode:lr-tb;direction:ltr;text-orientation:mixed;dominant-baseline:auto;baseline-shift:baseline;text-anchor:start;white-space:normal;shape-padding:0;shape-margin:0;inline-size:0;clip-rule:nonzero;display:inline;overflow:visible;visibility:visible;opacity:0.99;isolation:auto;mix-blend-mode:normal;color-interpolation:sRGB;color-interpolation-filters:linearRGB;solid-color:#000000;solid-opacity:1;vector-effect:none;fill:#e13007;fill-opacity:1;fill-rule:nonzero;stroke:none;stroke-width:0.487827;stroke-linecap:butt;stroke-linejoin:round;stroke-miterlimit:4;stroke-dasharray:none;stroke-dashoffset:0;stroke-opacity:1;color-rendering:auto;image-rendering:auto;shape-rendering:auto;text-rendering:auto;enable-background:accumulate;stop-color:#000000"
     d="m 23.441249,18.646923 c -0.384,0.01181 -0.6432,0.4032 -0.5088,0.7488 l 0.96,2.94912 c 0.08774,0.2208 0.3168,0.3552 0.5568,0.3456 h 7.77888 l -3.81024,2.928 v 4.20576 h -8.71776 c -0.2496,-0.0035 -0.48,0.1728 -0.5568,0.4128 l -0.96096,2.53728 c -0.1344,0.3744 0.1536,0.768 0.5568,0.7488 h 9.677664 v 8.16288 l -3.00672,-0.03571 c -0.2304,0.02381 -0.5376,-0.01699 -0.8256,0.01594 l 0.96864,1.28448 c 0.96864,1.2432 1.55712,1.89696 2.94336,2.7696 1.17312,-0.0239 2.33184,-0.4896 3.99648,-1.3776 l -0.03091,-2.65728 v -8.16192 h 8.80416 c 0.4032,0.01498 0.6912,-0.3744 0.5472,-0.7488 l -0.96,-2.77632 c -0.06893,-0.2496 -1.69248,-0.1728 -1.94784,-0.1728 h -6.44352 v -4.20096 l 3.65568,-2.9328 c 1.7712,-1.36608 2.54592,-1.65408 2.69472,-3.2928 0.1344,-0.3744 -0.1536,-0.768 -0.5472,-0.7488 l -14.776896,8.64e-4 c -0.0099,-7.68e-4 -0.03091,-9.6e-4 -0.04051,-8.64e-4 z"
     sodipodi:nodetypes="cccccccccccccccccccccccccccccccc" />
</svg>
