<?xml version="1.0" encoding="UTF-8" standalone="no"?>
<svg
   viewBox="0 0 60 60"
   version="1.1"
   id="svg6"
   sodipodi:docname="0TO.svg"
   xml:space="preserve"
   inkscape:version="1.3 (0e150ed6c4, 2023-07-21)"
   xmlns:inkscape="http://www.inkscape.org/namespaces/inkscape"
   xmlns:sodipodi="http://sodipodi.sourceforge.net/DTD/sodipodi-0.dtd"
   xmlns="http://www.w3.org/2000/svg"
   xmlns:svg="http://www.w3.org/2000/svg"><sodipodi:namedview
     id="namedview6"
     pagecolor="#ffffff"
     bordercolor="#666666"
     borderopacity="1.0"
     inkscape:showpageshadow="2"
     inkscape:pageopacity="0.0"
     inkscape:pagecheckerboard="0"
     inkscape:deskcolor="#d1d1d1"
     showgrid="false"
     inkscape:zoom="16"
     inkscape:cx="43.6875"
     inkscape:cy="2.0625"
     inkscape:window-width="3840"
     inkscape:window-height="2054"
     inkscape:window-x="-11"
     inkscape:window-y="-11"
     inkscape:window-maximized="1"
     inkscape:current-layer="g6" /><defs
     id="defs2"><filter
       id="0FU_svg__a"
       color-interpolation-filters="sRGB"
       x="-0.046172351"
       y="-0.66541513"
       width="1.1885371"
       height="3.1625992"><feFlood
         flood-color="#000"
         flood-opacity=".498"
         result="flood"
         id="feFlood1" /><feComposite
         in="flood"
         in2="SourceGraphic"
         operator="in"
         result="composite1"
         id="feComposite1" /><feGaussianBlur
         in="composite1"
         result="blur"
         stdDeviation="1"
         id="feGaussianBlur1" /><feOffset
         dx="5"
         dy="3"
         result="offset"
         id="feOffset1" /><feComposite
         in="SourceGraphic"
         in2="offset"
         result="composite2"
         id="feComposite2" /></filter><filter
       id="a"
       color-interpolation-filters="sRGB"
       x="-0.045154372"
       y="-0.034558231"
       width="1.1843804"
       height="1.1123142"><feFlood
         flood-opacity=".498"
         flood-color="#000"
         result="flood"
         id="feFlood1-5" /><feComposite
         in="flood"
         in2="SourceGraphic"
         operator="in"
         result="composite1"
         id="feComposite1-0" /><feGaussianBlur
         in="composite1"
         stdDeviation="1"
         result="blur"
         id="feGaussianBlur1-6" /><feOffset
         dx="5"
         dy="3"
         result="offset"
         id="feOffset1-4" /><feComposite
         in="SourceGraphic"
         in2="offset"
         result="composite2"
         id="feComposite2-3" /></filter></defs><g
     opacity=".99"
     id="g6"><g
       id="path2"
       transform="matrix(0.72,0,0,0.72,-407.346,-2.0121283)"><path
         style="color:#000000;fill:#ffd7b0;stroke-width:1.00157;stroke-dasharray:none"
         d="M 607.424,10 590.044,15.652 580.849,73.78 634,73.779 624.803,15.653 Z"
         id="path1" /><path
         id="path6"
         style="color:#000000;fill:#927b64;fill-opacity:0.99215686;-inkscape-stroke:none"
         d="m 607.425,9.4759375 -0.15625,0.048828 -17.67253,5.7454425 -9.33268,59.010417 2.14518,5.166016 h 49.71355 l 2.46419,-5.166016 -9.33919,-59.010417 z m 0,1.0481775 16.93359,5.507812 9.05599,57.246094 h -51.97916 l 9.05599,-57.246094 z" /></g><path
       style="fill:#b5987c;fill-opacity:0.98431373;stroke:none;stroke-width:1.2px;stroke-linecap:butt;stroke-linejoin:miter;stroke-opacity:1"
       d="m 11.287498,51.629298 1.2375,2.596876 h 34.837495 l 1.35,-2.596876 z"
       id="path7"
       sodipodi:nodetypes="ccccc" /><path
       id="path9"
       style="color:#000000;fill:#c32e16;fill-opacity:1;stroke-width:0.0537439;-inkscape-stroke:none"
       d="m 21.016144,11.830508 c -0.03377,-4.2e-4 -0.0681,4.92e-4 -0.103128,0.0048 -0.0934,0.0108 -0.191878,0.04092 -0.295313,0.09372 l -0.745313,0.382032 0.574219,0.67734 c 1.666085,1.967952 1.997969,3.729432 2.074218,5.317968 0.03812,0.794268 -0.001,1.542312 0.0164,2.24766 0.01698,0.686436 0.08362,1.367916 0.417189,1.959372 0.0026,0.006 0.0043,0.0108 0.0071,0.01644 0.0064,0.0108 0.01222,0.02184 0.01876,0.03276 0.531469,1.070388 1.174536,1.86672 1.905469,2.439852 -0.564861,0.448608 -1.180803,0.936876 -1.989845,1.605468 a 0.37147328,0.37147328 0 0 0 0.08906,0.625776 c 1.478977,0.64548 3.068407,1.078884 4.70625,1.291404 -0.05122,2.078088 -0.202373,3.97662 -0.785156,5.688288 -0.731866,2.149536 -2.12192,4.041792 -4.928906,5.751564 a 0.37147328,0.37147328 0 0 0 -0.0094,0.0048 c -1.354742,0.878004 -2.292546,1.604304 -2.936718,2.528904 -0.644152,0.9246 -0.966313,2.020272 -1.136718,3.56718 a 0.37147328,0.37147328 0 0 0 0.274218,0.400788 c 3.520606,0.943344 7.675812,1.392684 11.828906,1.373436 4.154436,0.01956 8.311827,-0.42978 11.833593,-1.373436 a 0.37147328,0.37147328 0 0 0 0.274219,-0.400788 c -0.170406,-1.546908 -0.494908,-2.64258 -1.139062,-3.56718 -0.644158,-0.9246 -1.579628,-1.6509 -2.934375,-2.528904 a 0.37147328,0.37147328 0 0 0 -0.0094,-0.0048 c -2.806986,-1.709772 -4.199382,-3.602028 -4.93125,-5.751564 -0.583122,-1.712664 -0.731681,-3.613464 -0.782813,-5.692968 1.585348,-0.208332 3.169276,-0.6273 4.703907,-1.284384 a 0.37147328,0.37147328 0 0 0 0.0914,-0.628116 C 36.294132,25.938908 35.667634,25.445216 35.10678,25.004792 35.839142,24.43148 36.482288,23.634668 37.014593,22.5626 l 0.02578,-0.0492 c 0.333679,-0.591504 0.400207,-1.272852 0.417187,-1.959372 0.01745,-0.705348 -0.01937,-1.453392 0.01876,-2.24766 0.07625,-1.588536 0.408132,-3.350016 2.07422,-5.317968 l 0.574218,-0.67734 -0.745312,-0.382032 c -0.413738,-0.211164 -0.741077,-0.03996 -1.03125,0.11244 -0.290177,0.152484 -0.576835,0.360048 -0.867188,0.56484 -0.524847,0.370212 -1.075619,0.677844 -1.340625,0.735948 -0.71669,-0.413748 -1.450308,-0.362184 -1.999219,-0.05388 -0.597294,0.335436 -1.001136,0.891588 -1.190624,1.478904 l -0.400782,1.23516 1.073438,-0.379692 c 0.08159,-0.0288 0.126547,-0.02364 0.232031,0.0516 0.10548,0.07524 0.247515,0.243192 0.375,0.499212 0.254969,0.512064 0.439161,1.346052 0.403124,2.2125 -0.03604,0.86646 -0.278073,1.758504 -0.810937,2.484384 -0.155308,0.21156 -0.340157,0.410316 -0.550781,0.592968 0.113016,-0.331044 0.173437,-0.684336 0.173437,-1.052352 0,-1.85682 -1.561026,-3.353904 -3.447656,-3.353904 -1.886628,0 -3.447656,1.497084 -3.447656,3.353904 0,0.36906 0.0645,0.722844 0.178125,1.054692 -0.212551,-0.183552 -0.399221,-0.382464 -0.555469,-0.595308 -0.53286,-0.72588 -0.774899,-1.617912 -0.810937,-2.484384 -0.03604,-0.866448 0.148158,-1.700436 0.403125,-2.2125 0.127481,-0.25602 0.27186,-0.42402 0.377344,-0.499212 0.10548,-0.07524 0.148102,-0.08028 0.229687,-0.0516 l 1.073437,0.379692 -0.398437,-1.23516 c -0.189429,-0.587316 -0.595611,-1.143468 -1.192909,-1.478904 -0.548908,-0.308268 -1.282531,-0.359832 -1.999218,0.05388 -0.265019,-0.05808 -0.813454,-0.36576 -1.338282,-0.735936 -0.290353,-0.204804 -0.57701,-0.412368 -0.867187,-0.564852 -0.190428,-0.10008 -0.396472,-0.207996 -0.632813,-0.210936 z m 1.596093,2.353128 c 0.404329,0.265104 0.838813,0.48984 1.335939,0.4875 h 0.15 l 0.128906,-0.09144 c 0.49168,-0.344004 0.83965,-0.290904 1.153124,-0.11484 0.0565,0.03168 0.107544,0.07692 0.159376,0.11952 -0.301843,0.225768 -0.537472,0.548376 -0.726563,0.928128 -0.391557,0.78636 -0.599287,1.82922 -0.553125,2.939064 0.04616,1.109832 0.36039,2.294148 1.078125,3.271872 0.714711,0.973596 1.82382,1.712508 3.349218,1.973436 0.427773,0.131292 0.884771,0.156864 1.298439,0.168744 h 0.01176 0.01406 c 0.413792,-0.012 0.870559,-0.03972 1.298437,-0.171084 1.525143,-0.261 2.632241,-0.997608 3.346875,-1.971096 0.717734,-0.977724 1.034308,-2.16204 1.080468,-3.271872 0.04616,-1.109844 -0.163914,-2.152704 -0.555468,-2.939064 -0.18909,-0.379752 -0.42472,-0.70236 -0.726562,-0.928128 0.05185,-0.0426 0.105204,-0.08784 0.161719,-0.11952 0.31347,-0.176052 0.659097,-0.229152 1.150781,0.11484 l 0.128906,0.09144 h 0.15 c 0.497108,0.0024 0.933965,-0.222408 1.338281,-0.4875 -0.714335,1.456152 -0.95272,2.853444 -1.010157,4.05 -0.04247,0.884784 -0.0058,1.665192 -0.0211,2.282808 -0.01528,0.617616 -0.08648,1.035456 -0.241406,1.296096 l -0.01406,0.0234 -0.01406,0.0258 c -0.663218,1.355244 -1.427034,2.1012 -2.38125,2.554692 -0.954217,0.453492 -2.124922,0.59268 -3.534376,0.585936 -0.04619,-2.4e-4 -0.09118,-0.0012 -0.13828,-0.0048 l -0.03281,-0.0024 -0.03047,0.0024 c -0.0471,0.0036 -0.09443,0.0048 -0.140626,0.0048 -1.409454,0.0072 -2.580157,-0.132444 -3.534374,-0.585936 -0.954221,-0.453492 -1.718036,-1.199448 -2.38125,-2.554692 l -0.01176,-0.0258 -0.01406,-0.0234 c -0.15493,-0.26064 -0.228474,-0.67848 -0.24375,-1.296096 -0.01528,-0.617616 0.02371,-1.398024 -0.01876,-2.282808 -0.05743,-1.196556 -0.295806,-2.593836 -1.010157,-4.05 z m 7.385157,4.073436 c 1.259258,0 2.247656,0.967476 2.247656,2.153904 0,1.075212 -0.81132,1.971684 -1.900781,2.130468 -0.0156,0.0024 -0.03116,0.0024 -0.04687,0.0048 -0.09902,0.006 -0.200525,0.0108 -0.3,0.01404 -0.09948,-0.0024 -0.198854,-0.0072 -0.297656,-0.01404 -0.01572,-0.0024 -0.03127,-0.0024 -0.04687,-0.0048 -1.089462,-0.158784 -1.903126,-1.055256 -1.903126,-2.130468 0,-1.186428 0.988398,-2.153904 2.247657,-2.153904 z" /></g></svg>
