<svg height="60" width="52.157" xmlns="http://www.w3.org/2000/svg" xmlns:xlink="http://www.w3.org/1999/xlink"><filter id="a" color-interpolation-filters="sRGB" height="1.112314" width="1.184379" x="-.045154" y="-.034558"><feFlood flood-opacity=".498039" result="flood"/><feComposite in="flood" in2="SourceGraphic" operator="in" result="composite1"/><feGaussianBlur in="composite1" result="blur" stdDeviation="1"/><feOffset dx="5" dy="3" result="offset"/><feComposite in="SourceGraphic" in2="offset" operator="over" result="composite2"/></filter><g opacity=".99" transform="translate(-338.13038 -49.199281)"><g filter="url(#a)" transform="matrix(.6 0 0 .6 -.245669 -1.635138)"><path d="m-11.042041 6.569938-12.943877 4.222408-6.863081 43.503698 39.6145777-.000541-6.8629507-43.502899z" fill="#fee572" opacity="1" stroke-width="1.00046" transform="matrix(1.34171558 0 0 1.33636563 622.239088 91.22016)"/><path d="m580.84851 163.77953v5.66853l53.15149-.00052v-5.66874z" fill="#c3983c" fill-opacity=".992157" opacity="1"/></g><g opacity="1" stroke="#f00" transform="matrix(.81115794 0 0 .81115794 343.0394 53.655565)"><g fill="#f00" stroke-linejoin="round" stroke-width="1.49012" transform="matrix(.49492926 0 0 .6024127 37.528386 -7.38315)"><path d="m-23.095291 44.732625c-4.132306 8.932558-4.332216 7.649629-13.389243 13.799134 8.912868 3.135271 18.70037 2.896518 26.7784868 0-9.0570278-6.149505-9.4385518-5.164998-13.3892438-13.799134z"/><path d="m-26.817667 58.549927c-.101781 8.756321-.371109 15.836633-11.545204 21.428518-5.232221 2.785963-6.963446 4.475105-7.614698 9.332185 6.784589 1.493568 14.836273 2.210393 22.882279 2.179259 8.046006.03113 16.0976895-.685691 22.882279-2.179259-.651252-4.85708-2.382477-6.546222-7.614698-9.332185-11.174095-5.591885-11.443423-12.672197-11.545204-21.428518v.000004c-1.240718.01919-2.481542.02015-3.722377.01942-1.240835.000729-2.481659-.000233-3.722377-.01942z"/></g><g transform="matrix(.70055036 0 0 .70055036 -399.76856 -65.880019)"><path d="m89.878164 104.45459c71.228006 71.22916 31.757136 135.82497 52.509626 165.38261 28.87071 49.94709 71.08258 59.60515 129.34256 59.36887 1.13491-.005 2.27256-.0347 3.41266-.0898 1.1401.0551 2.27775.0852 3.41266.0898 58.25998.23628 100.47185-9.42178 129.34256-59.36887 20.75249-29.55764-18.71838-94.15345 52.50963-165.38261-11.60482-5.014635-42.72517 25.60932-62.89753 25.52892-25.61193-15.17069-47.03143 3.07994-52.25128 16.77733 37.83854-11.30105 70.07869 121.46792-45.53806 137.91415-7.06656 1.97083-16.16354 2.51444-24.57798 2.71917-8.41444-.20473-17.51142-.74834-24.57798-2.71917-115.61675-16.44623-83.3766-149.2152-45.53806-137.91415-5.21985-13.69739-26.63935-31.94802-52.25128-16.77733-20.17236.0804-51.29271-30.543555-62.897526-25.52892z" fill="#fee572" fill-opacity=".992157" stroke-width="14.1766" transform="matrix(.06852995 0 0 .08094496 589.0471 105.57931)"/><ellipse cx="607.90265" cy="124.95992" fill="none" opacity="1" rx="3.94691" ry="3.818154" stroke-width="1.05586"/></g></g></g></svg>