<?xml version="1.0" encoding="UTF-8" standalone="no"?>
<svg
   viewBox="0 0 60 60"
   version="1.1"
   id="svg25"
   sodipodi:docname="0UM.svg"
   inkscape:version="1.3 (0e150ed6c4, 2023-07-21)"
   xmlns:inkscape="http://www.inkscape.org/namespaces/inkscape"
   xmlns:sodipodi="http://sodipodi.sourceforge.net/DTD/sodipodi-0.dtd"
   xmlns="http://www.w3.org/2000/svg"
   xmlns:svg="http://www.w3.org/2000/svg">
  <sodipodi:namedview
     id="namedview25"
     pagecolor="#ffffff"
     bordercolor="#666666"
     borderopacity="1.0"
     inkscape:showpageshadow="2"
     inkscape:pageopacity="0.0"
     inkscape:pagecheckerboard="0"
     inkscape:deskcolor="#d1d1d1"
     inkscape:zoom="7.5333334"
     inkscape:cx="33.451327"
     inkscape:cy="103.27434"
     inkscape:window-width="3840"
     inkscape:window-height="2054"
     inkscape:window-x="-11"
     inkscape:window-y="-11"
     inkscape:window-maximized="1"
     inkscape:current-layer="svg25"
     showgrid="false" />
  <defs
     id="defs2">
    <filter
       id="0HI_svg__a"
       color-interpolation-filters="sRGB"
       x="-0.036952686"
       y="-0.030672713"
       width="1.1508901"
       height="1.0996863">
      <feFlood
         flood-color="#000"
         flood-opacity=".498"
         result="flood"
         id="feFlood1" />
      <feComposite
         in="flood"
         in2="SourceGraphic"
         operator="in"
         result="composite1"
         id="feComposite1" />
      <feGaussianBlur
         in="composite1"
         result="blur"
         stdDeviation="1"
         id="feGaussianBlur1" />
      <feOffset
         dx="5"
         dy="3"
         result="offset"
         id="feOffset1" />
      <feComposite
         in="SourceGraphic"
         in2="offset"
         result="composite2"
         id="feComposite2" />
    </filter>
    <filter
       id="1HI_svg__a"
       color-interpolation-filters="sRGB"
       x="-0.037629351"
       y="-0.031650578"
       width="1.1536532"
       height="1.1028644">
      <feFlood
         flood-color="#000"
         flood-opacity=".498"
         result="flood"
         id="feFlood1-4" />
      <feComposite
         in="flood"
         in2="SourceGraphic"
         operator="in"
         result="composite1"
         id="feComposite1-7" />
      <feGaussianBlur
         in="composite1"
         result="blur"
         stdDeviation="1"
         id="feGaussianBlur1-6" />
      <feOffset
         dx="5"
         dy="3"
         result="offset"
         id="feOffset1-0" />
      <feComposite
         in="SourceGraphic"
         in2="offset"
         result="composite2"
         id="feComposite2-6" />
    </filter>
  </defs>
  <g
     id="path2"
     transform="matrix(0.72,0,0,0.72,-56.320801,-3.549328)"
     style="opacity:0.99;fill-opacity:0.992">
    <path
       style="color:#000000;fill:#fcd2e3;fill-opacity:0.988235;-inkscape-stroke:none"
       d="M 119.89,8 98.188,15.118 88,80.049 h 63.78 l -10.19,-64.93 z"
       id="path1" />
    <path
       id="path4"
       style="color:#000000;fill:#dd7da3;fill-opacity:0.984314;-inkscape-stroke:none"
       d="m 119.89,7.4735677 -0.15625,0.052083 -21.992188,7.2135423 -10.32552,65.810547 v 0 l 2.538176,5.16927 h 59.324032 l 3.08571,-5.16927 v 0 L 142.03844,14.739193 Z m 0,1.0514323 21.25326,6.972656 10.05208,64.052735 H 88.584661 L 98.63349,15.497656 Z"
       sodipodi:nodetypes="ccccccccccccccccc" />
  </g>
  <path
     style="fill:#e394b6;fill-opacity:0.976471;stroke:none;stroke-width:1.2px;stroke-linecap:butt;stroke-linejoin:miter;stroke-opacity:1"
     d="m 7.5796453,54.579872 1.433628,2.947296 H 50.568583 l 1.911506,-2.947296 z"
     id="path5"
     sodipodi:nodetypes="ccccc" />
  <path
     id="path3-8"
     style="color:#000000;font-style:normal;font-variant:normal;font-weight:normal;font-stretch:normal;font-size:medium;line-height:normal;font-family:sans-serif;font-variant-ligatures:normal;font-variant-position:normal;font-variant-caps:normal;font-variant-numeric:normal;font-variant-alternates:normal;font-variant-east-asian:normal;font-feature-settings:normal;font-variation-settings:normal;text-indent:0;text-align:start;text-decoration:none;text-decoration-line:none;text-decoration-style:solid;text-decoration-color:#000000;letter-spacing:normal;word-spacing:normal;text-transform:none;writing-mode:lr-tb;direction:ltr;text-orientation:mixed;dominant-baseline:auto;baseline-shift:baseline;text-anchor:start;white-space:normal;shape-padding:0;shape-margin:0;inline-size:0;clip-rule:nonzero;display:inline;overflow:visible;visibility:visible;isolation:auto;mix-blend-mode:normal;color-interpolation:sRGB;color-interpolation-filters:linearRGB;solid-color:#000000;solid-opacity:1;fill:#c32e16;fill-opacity:1;fill-rule:nonzero;stroke:none;stroke-width:1.26625;stroke-linecap:butt;stroke-linejoin:round;stroke-miterlimit:4;stroke-dasharray:none;stroke-dashoffset:0;stroke-opacity:1;color-rendering:auto;image-rendering:auto;shape-rendering:auto;text-rendering:auto;enable-background:accumulate;stop-color:#000000"
     d="m 26.029851,6.0885128 c -0.157188,0.003 -0.314669,0.028848 -0.472835,0.084732 -0.07454,0.026328 -0.261663,0.07716 -0.462991,0.1517004 -0.20132,0.074544 -0.432072,0.1672956 -0.638325,0.3841788 -0.206251,0.2168856 -0.316262,0.6442764 -0.181257,0.9811368 0.135007,0.3368604 0.397798,0.6091644 0.81367,0.929904 l 0.05124,0.037428 0.0571,0.02562 c 1.016674,0.439728 1.245593,0.8391696 1.392896,1.3416712 0.07818,1.36012 0.484364,1.958985 1.314092,2.888233 0.301667,0.274209 0.665833,0.531381 1.227396,0.941737 0.05346,0.03884 0.106128,0.07565 0.159588,0.114264 -1.401574,-0.713171 -2.34323,-1.280593 -3.169972,-2.096242 C 26.013341,11.78482 25.969408,11.54212 25.964809,11.532043 25.521297,10.537429 25.428433,10.112084 24.808337,9.177722 24.444514,8.629526 23.894107,8.1451292 23.307087,7.8025604 23.013569,7.63127 22.709039,7.4820104 22.398849,7.4045816 c -0.3102,-0.077472 -0.626855,-0.082824 -0.943704,0.031476 -0.138052,0.049824 -0.623052,0.077868 -0.98507,0.5220912 -0.181015,0.2220984 -0.253591,0.5910048 -0.159589,0.90627 0.09401,0.3152628 0.294605,0.6076908 0.616659,0.957492 l 0.07292,0.07878 0.09845,0.04338 c 1.016673,0.4397282 1.24559,0.8391692 1.392894,1.3416712 0.172873,0.589675 0.148866,1.565556 0.573313,2.12382 0.83583,0.935341 1.408377,1.154323 2.813377,1.863761 1.404899,0.706373 2.480168,1.636862 3.388649,2.062742 0.09986,0.08504 0.177099,0.146889 0.271877,0.226567 -0.296844,-0.116904 -0.601084,-0.224821 -0.916115,-0.301434 -1.880165,-0.545825 -3.179843,-0.289199 -3.244834,-0.275823 l -1.245129,0.537846 c 1.822719,1.182336 3.512328,2.413767 4.452529,3.928482 -0.653446,-0.458119 -1.340148,-0.975559 -1.981962,-1.302271 -0.877836,-0.446791 -1.527589,-0.695277 -1.926809,-0.736837 -0.10428,-0.01092 -0.229501,-0.01056 -0.3566,-0.002 -0.381305,0.02551 -0.791831,0.123632 -0.79397,0.214745 -5.66e-4,0.02794 0.190374,0.160709 0.423591,0.295524 0.489852,0.283187 1.173973,0.801374 1.936651,1.463817 0.294191,0.255538 0.628591,0.54291 0.744714,0.640292 0.116112,0.09754 0.213838,0.195812 0.216713,0.216721 0.009,0.06728 -0.585125,-0.172307 -1.223461,-0.492534 -1.243595,-0.623819 -2.140623,-0.82645 -3.130556,-0.705313 -0.814437,0.09967 -1.414803,0.426273 -1.879519,1.020537 -0.371096,0.474539 -0.357974,0.557607 0.05124,0.319157 1.133685,-0.66075 2.567653,-0.507908 3.124645,0.332956 0.406512,0.613674 0.193563,1.464312 -0.478746,1.913019 -0.452186,0.301767 -1.243886,0.446649 -2.706976,0.496469 -1.53004,0.05206 -3.079114,0.485384 -4.040772,1.128892 -0.513113,0.34344 -1.258655,1.084869 -1.16436,1.158453 0.01724,0.01348 0.20965,-0.07622 0.427524,-0.198978 1.296994,-0.73109 2.589562,-1.000825 3.958026,-0.823532 0.414451,0.05369 1.112803,0.247419 1.073726,0.297497 -0.01202,0.01547 -0.285193,0.09368 -0.606802,0.173383 -1.037523,0.256919 -1.765897,0.641487 -2.435098,1.288465 -0.610647,0.590353 -1.024452,1.308926 -1.471706,2.553316 -0.275157,0.76559 -0.58684,1.899289 -0.533902,1.940605 0.01754,0.0137 0.378248,-0.430458 0.801847,-0.987049 0.962687,-1.264894 1.286879,-1.573856 2.068652,-1.968179 0.256325,-0.129283 0.43045,-0.180673 0.75457,-0.220653 0.232369,-0.02872 0.403485,-0.02994 0.380235,-0.0044 -0.0231,0.02618 -0.195429,0.117372 -0.382213,0.200956 -0.736836,0.329776 -1.001683,0.664964 -1.834206,2.332651 -0.849581,1.702188 -1.137792,2.036083 -1.838141,2.123819 -0.542547,0.06794 -1.217246,-0.209516 -1.556418,-0.640294 -0.109116,-0.138574 -0.213998,-0.251706 -0.232478,-0.250215 -0.05741,0.0055 -0.02551,0.63612 0.0453,0.912183 0.162576,0.633546 0.454244,1.101034 0.902327,1.442142 0.861523,0.655827 2.230249,0.634275 3.126624,-0.05125 0.486128,-0.371732 0.06385,0.296038 -0.658026,1.040242 -0.605331,0.623944 -0.656603,0.684205 -0.857014,1.004779 -0.375858,0.601222 -0.401469,0.943469 -0.173369,2.417371 0.225327,1.455972 0.193955,1.781483 -0.216722,2.265662 -0.22914,0.270243 -0.475901,0.448962 -0.791993,0.571351 -0.123131,0.04762 -0.221747,0.107268 -0.218689,0.132001 0.0108,0.08628 0.496459,0.276185 0.825492,0.323092 0.598037,0.08528 1.301816,-0.151622 1.842085,-0.616644 0.148715,-0.128025 0.288723,-0.227646 0.311278,-0.22263 0.07171,0.01591 -0.153083,0.702942 -0.346745,1.059937 -0.279626,0.515486 -0.669332,0.947324 -1.115104,1.235276 -0.213061,0.137712 -0.444159,0.257339 -0.514202,0.265967 -0.243282,0.02994 -0.240064,0.139811 0.01176,0.380249 0.45833,0.437151 1.004328,0.890653 1.619462,1.308175 -1.867515,0.722021 -3.509006,1.503232 -4.080182,4.637729 0.68739,-0.447293 2.529202,-1.376014 3.213312,-1.658862 3.470566,-1.890783 5.48489,-1.188834 9.196648,-1.292422 1.59357,-0.06241 5.55564,-0.654149 6.86005,-0.892476 1.348864,-0.246447 1.440868,-0.500087 3.575814,-1.020545 0.01188,-3.46426 -8.14362,-5.668291 -6.710316,-12.569518 0.008,-0.121202 -0.002,-0.247839 -0.01381,-0.374338 -0.351972,-0.04342 -0.738782,-0.07744 -1.134804,-0.100536 -0.792054,-0.04628 -1.623426,-0.04993 -2.293254,-0.0098 -0.334903,0.02033 -0.62955,0.05314 -0.851103,0.09258 -0.221554,0.03934 -0.380819,0.107052 -0.36448,0.09655 l -1.093425,0.70334 0.334923,-1.25695 c 0.36357,-1.369187 1.0671,-2.118206 1.863751,-2.498146 0.45711,-0.217979 0.897717,-0.297805 1.349553,-0.405856 -0.432348,-0.310465 -0.804875,-0.639091 -1.367275,-0.882622 -0.886468,-0.383873 -1.829528,-0.633678 -2.362209,-0.663936 l -0.857016,-0.04926 0.461015,-0.725026 c 0.522715,-0.823177 1.379165,-1.15704 2.188831,-1.296353 0.47797,-0.0823 0.88087,-0.09698 1.320005,-0.124121 -0.181974,-0.214288 -0.290833,-0.39153 -0.506335,-0.608778 -0.447023,-0.450613 -0.894509,-0.854702 -1.146627,-1.115103 l -0.415692,-0.427515 0.492537,-0.338868 c 0.633027,-0.433999 1.358828,-0.660434 2.094264,-0.748657 0.735473,-0.08766 1.483334,-0.03712 2.159275,0.0808 0.676537,0.117972 1.286719,0.306961 1.769195,0.526025 0.241235,0.109536 0.449676,0.226265 0.626503,0.356599 0.176827,0.130327 0.33559,0.261419 0.433435,0.508305 l -1.477605,0.05316 c -0.38767,-0.176021 -0.929148,-0.347283 -1.524896,-0.451169 -0.962042,-0.167759 -1.998224,-0.06124 -2.872478,0.287646 0.202672,0.193652 0.337506,0.319821 0.575291,0.559523 0.47009,0.473985 0.945469,0.981127 1.221483,1.493376 l 0.344778,0.638328 -0.717135,0.100536 c -0.737279,0.103956 -1.532641,0.08849 -2.208532,0.204888 -0.318955,0.05501 -0.469143,0.279036 -0.711225,0.397968 0.507172,0.130929 0.968892,0.180906 1.511106,0.415699 0.970666,0.420338 1.912353,0.966303 2.51391,1.650996 l 0.496468,0.565429 -0.711224,0.244304 c -0.876421,0.30133 -1.669907,0.388292 -2.247931,0.663938 -0.385339,0.183754 -0.685774,0.522621 -0.949614,1.008711 0.184977,-0.02166 0.354139,-0.05027 0.565434,-0.06308 0.722825,-0.04352 1.583996,-0.03888 2.413433,0.0098 0.829435,0.04817 1.620087,0.136906 2.22823,0.279755 0.304068,0.07147 0.560271,0.148736 0.788058,0.281742 0.04348,0.0253 0.08736,0.05424 0.130036,0.0866 0.313507,0.158404 0.664097,0.475087 0.874747,0.92597 1.507795,2.222414 1.087485,4.913297 4.16095,7.941666 l 1.432295,0.0866 c 0.283267,-0.08087 1.190516,-0.492288 1.453962,-0.825498 0.03803,1.622152 0.677413,3.491073 2.25582,5.098732 0.228937,0.233202 0.278617,0.385021 0.297489,0.5418 0.01885,0.156779 -0.01332,0.341098 -0.05518,0.581194 -0.03974,0.227701 -0.372216,0.669006 -0.772303,1.126915 -0.400085,0.45792 -0.886681,0.937945 -0.933847,1.649019 l 1.694329,-0.985072 c 0.394891,-0.451977 0.88441,-0.927297 1.004771,-1.617491 0.03712,-0.212655 0.10662,-0.512813 0.06305,-0.874745 -0.04358,-0.361934 -0.221131,-0.766154 -0.577248,-1.128894 -1.592669,-1.622296 -2.069328,-3.489536 -1.954385,-4.962798 0.0041,-0.05611 0.01164,-0.1107 0.01775,-0.165494 0.158369,0.105612 0.357126,0.135679 0.549679,0.06694 0.388063,-0.139301 0.405111,-0.200835 0.872771,-0.409799 0.467671,-0.208843 0.97687,-0.506626 1.306206,-1.065847 0.03118,-0.07489 0.05054,-0.160757 0.06103,-0.240362 0.002,-0.01348 0.03218,-0.09444 0.299458,-0.29945 0.212404,-0.157343 0.55564,-0.371014 1.056003,-0.620599 0.121151,0.06407 0.207462,0.148859 0.279756,0.254148 0.158531,0.230904 0.250344,0.639643 0.246269,1.176174 -0.008,1.073072 -0.375011,2.559479 -0.545725,3.885131 -0.10134,0.78703 -0.06011,1.370491 0.114264,1.840119 0.174427,0.46962 0.481843,0.788899 0.768359,1.032354 l 2.366142,1.509142 c -0.417031,-1.351596 -1.246286,-1.880107 -1.714027,-2.277577 -0.23388,-0.198748 -0.377229,-0.351981 -0.474803,-0.614688 -0.09754,-0.262721 -0.149713,-0.671062 -0.06103,-1.359401 0.158552,-1.231309 0.545837,-2.725957 0.555581,-4.007277 0.0052,-0.640705 -0.0793,-1.25389 -0.423578,-1.7554 -0.09331,-0.135879 -0.207857,-0.25554 -0.338869,-0.360543 0.03469,-0.213306 -0.03532,-0.442067 -0.228536,-0.594979 l -0.764415,-0.537857 c -1.50705,-2.195249 -2.454042,-3.134719 -2.634087,-4.797303 0.147847,-0.168522 0.288876,-0.35409 0.425557,-0.54771 0.362935,-0.514106 0.680257,-1.096161 0.900349,-1.619447 0.110052,-0.261636 0.19573,-0.507477 0.25021,-0.734868 0.05448,-0.227413 0.10152,-0.42268 0.02362,-0.693497 -0.272606,-0.948485 -0.916509,-1.935629 -1.524894,-2.740482 -0.304188,-0.402426 -0.599208,-0.753883 -0.841259,-1.01856 -0.03622,-0.03953 -0.0688,-0.07274 -0.102444,-0.10836 -0.01856,-0.208775 -0.07474,-0.414844 -0.15958,-0.620602 -0.092,-0.22326 -0.214321,-0.445892 -0.344779,-0.673791 -0.334378,-0.573234 -0.781522,-1.162666 -1.243159,-1.771163 -0.458926,-0.609929 -0.892875,-1.258957 -1.237249,-1.82632 -0.164835,-0.267884 -0.290712,-0.513486 -0.37827,-0.736836 -0.08746,-0.223359 -0.13774,-0.423408 -0.153677,-0.600901 l 0.323112,-2.344466 c 0.03884,-0.05033 0.07939,-0.10266 0.116232,-0.15171 0.153164,-0.204075 0.286908,-0.395245 0.390091,-0.58907 0.103176,-0.193824 0.211426,-0.391805 0.155644,-0.699402 -0.05277,-0.290874 -0.170911,-0.469649 -0.327049,-0.740771 -0.156139,-0.271133 -0.353142,-0.576753 -0.561491,-0.872781 -0.208351,-0.296026 -0.425325,-0.580857 -0.62848,-0.809726 -0.101568,-0.114432 -0.199474,-0.21424 -0.301434,-0.301434 -0.101964,-0.08714 -0.183778,-0.177685 -0.409792,-0.2246 -0.02966,-0.006 -0.06053,-0.009 -0.09059,-0.01008 -0.210528,-0.007 -0.421592,0.101616 -0.528,0.210802 -0.121603,0.124772 -0.179472,0.247176 -0.23248,0.372357 -0.105996,0.250383 -0.1726,0.53009 -0.238389,0.823525 -0.06576,0.293435 -0.127179,0.595657 -0.189135,0.847159 -0.06194,0.251502 -0.143145,0.461094 -0.161545,0.490569 l -0.02956,0.04732 -0.01775,0.05316 c -0.100144,0.286424 -0.287427,0.594646 -0.524051,0.96537 -0.557365,-0.327752 -1.161836,-0.709983 -1.775095,-1.150559 -0.735757,-0.526511 -1.286545,-0.94426 -1.743586,-1.353496 -0.457028,-0.409244 -0.820437,-0.809322 -1.18406,-1.302271 -0.06385,-0.148594 -0.123293,-0.281483 -0.181246,-0.407814 -10e-4,-0.003 -0.003,-0.006 -0.0041,-0.01008 C 29.469082,10.077612 29.445195,9.7666544 29.400498,9.3950348 29.348958,8.9662904 29.260217,8.4491924 28.905996,7.9154612 28.542061,7.3671032 27.991434,6.8840708 27.404745,6.5422664 27.1114,6.37136 26.808101,6.2218892 26.498477,6.1442984 26.343669,6.1055624 26.186763,6.0845744 26.029584,6.0872024 Z m -0.08272,1.0264488 c 0.160214,-0.009 0.550436,0.066876 0.949605,0.2994576 0.456202,0.2657868 0.919756,0.6854424 1.168293,1.059936 0.09462,0.1426224 0.154515,0.272454 0.200956,0.4019136 l 0.0041,-0.00408 c 0,0 0.008,0.033792 0.01008,0.043368 0.02048,0.061824 0.03521,0.1315968 0.04922,0.1950456 0.0694,0.2800896 0.188297,0.7396296 0.29749,0.9988596 0.122216,0.289986 0.202459,0.56837 0.299468,0.823525 l 0.02562,-0.01176 c 0.03328,0.137014 0.07898,0.290812 0.226568,0.490569 0.212606,0.288008 0.420634,0.538844 0.634393,0.770324 0.213755,0.23148 0.434019,0.442324 0.675757,0.652124 0.483486,0.419597 1.050214,0.831324 1.806618,1.373184 0.604896,0.434576 1.188882,0.821225 1.741618,1.166338 -0.08766,0.14243 -0.178988,0.295119 -0.27188,0.457069 -0.30557,-0.08908 -0.647493,-0.199685 -1.034336,-0.338868 -0.876596,-0.641589 -2.224691,-1.675735 -3.13059,-2.336532 -0.499386,-0.363049 -0.782633,-0.585771 -1.006748,-0.805794 -0.123306,-0.121076 -0.231077,-0.249141 -0.34478,-0.392057 l -0.0041,-0.0041 c -0.11592,-0.106848 -0.211992,-0.235736 -0.291578,-0.380233 -0.0052,-0.0061 -0.007,-0.009 -0.01176,-0.01574 v -0.002 h 0.002 C 27.628717,10.970421 27.576387,10.168756 27.547205,9.7114244 27.335737,9.019688 26.807464,8.3017244 25.665719,7.78856 25.388089,7.5680444 25.294593,7.4267348 25.259863,7.3649816 c 0.04288,-0.027132 0.08282,-0.0576 0.183231,-0.094524 0.140203,-0.05196 0.298137,-0.091692 0.451159,-0.1457904 0.01291,-0.00516 0.03026,-0.00804 0.05316,-0.01008 z M 21.851193,8.373878 c 0.15854,-0.009 0.548357,0.06648 0.947637,0.2994672 0.456324,0.2662908 0.919647,0.6872484 1.168295,1.061904 0.318733,0.4802608 0.471362,0.7907728 0.626512,1.1505708 0.219264,0.286152 0.540268,1.131426 0.914148,1.714028 1.118505,1.094386 2.216673,1.626021 4.091994,2.551335 1.632666,0.808161 3.18874,1.460064 4.26734,1.735705 l 0.05518,0.0453 0.336901,0.08473 c 0.390745,-0.871774 0.892661,-1.646596 1.442148,-2.403576 0.162455,-0.223745 0.1875,-0.38983 0.238381,-0.494514 0.09784,-0.201187 0.117444,-0.237985 0.17141,-0.459036 0.126786,-0.518933 0.268622,-1.588675 0.386147,-1.544594 0.484969,0.582402 1.004185,1.152547 1.205728,1.836174 0,0 -0.07889,0.16545 -0.102444,0.20489 -0.02362,0.03943 -1.89922,2.584831 -1.89922,2.584831 l -0.399945,1.292417 0.002,0.002 c 0.01453,0.08908 0.03581,0.176595 0.06102,0.263999 0.03743,0.203197 0.11556,0.398302 0.2443,0.571336 0.198102,0.371087 0.459854,0.730564 0.75457,1.081616 0.51743,0.616932 1.169081,1.192957 1.779041,1.779042 0.484849,0.45977 0.930529,0.913198 1.30226,1.329849 -0.01775,-0.003 -0.03318,-0.0052 -0.05124,-0.008 -0.560966,-0.08029 -1.224105,-0.141996 -1.899218,-0.177312 -0.290209,-0.01523 -0.579043,-0.02512 -0.862926,-0.03157 -0.564263,-0.282305 -1.013796,-0.756612 -1.404683,-1.040201 -0.08322,-0.06245 -0.954316,-1.020044 -1.073728,-1.069795 -1.385106,-1.657791 -2.644649,-3.171955 -4.487956,-4.290983 -0.945295,-0.447769 -1.963363,-1.314123 -3.327578,-2.001664 -0.644187,-0.323374 -1.025714,-0.561198 -1.341663,-0.807759 -1.255145,-0.616112 -1.484687,-1.6979 -1.467761,-2.312953 -0.02299,-0.106968 -0.03592,-0.206383 -0.069,-0.319167 -0.196921,-0.671734 -0.736341,-1.3582864 -1.796773,-1.8736072 -0.248588,-0.273444 -0.354595,-0.46863 -0.37827,-0.5437584 0.01685,9.48e-4 0.235547,-0.100368 0.514205,-0.2009568 0.0126,-0.00516 0.03056,-0.00804 0.05316,-0.01008 z m 15.065716,8.369189 -0.0473,0.598923 -0.01775,0.161547 c 0.009,0.323191 0.09482,0.646131 0.224602,0.96537 0.129801,0.319238 0.305228,0.635088 0.496479,0.949614 0.348269,0.573283 0.794181,1.128864 1.221484,1.686451 -0.0052,-0.0052 -0.01032,-0.01056 -0.01574,-0.01573 C 38.1717,20.502169 37.588481,19.869412 37.119822,19.310201 36.672045,18.78282 36.423185,18.32794 36.343578,17.948825 l 0.447224,-1.018571 0.002,-0.002 c 0.03943,-0.06113 0.08141,-0.122843 0.12412,-0.18519 z m -0.346757,7.118139 c 0.282804,-8.1e-5 0.57627,0.0061 0.872782,0.02168 0.648654,0.0339 1.285233,0.09482 1.806627,0.169434 0.479051,0.06859 0.868778,0.163361 1.018562,0.218688 0.01978,0.01312 0.05045,0.0343 0.07878,0.06103 0.06658,0.06294 0.161041,0.158761 0.2699,0.277791 0.217744,0.238095 0.49746,0.569046 0.782148,0.94567 0.562703,0.744413 1.140444,1.685452 1.34955,2.387819 -0.0052,0.0044 0.001,0.09268 -0.02562,0.2049 -0.03581,0.149655 -0.104496,0.354576 -0.198978,0.579228 -0.188983,0.449315 -0.480119,0.983769 -0.793969,1.428355 -0.313853,0.444575 -0.674772,0.793197 -0.870805,0.890499 -0.09804,0.0486 -0.120513,0.03612 -0.116244,0.03745 0.003,9.05e-4 -0.03673,-0.05071 -0.07091,-0.09655 -0.001,-0.02077 -0.003,-0.03259 -0.0041,-0.06308 -0.003,-0.110256 -0.0041,-0.274452 -0.002,-0.466925 0.003,-0.384911 0.0127,-0.891139 0.0041,-1.408636 -0.009,-0.517519 -0.03562,-1.043168 -0.10836,-1.497321 -0.03641,-0.227083 -0.08272,-0.435705 -0.15959,-0.630453 -0.07686,-0.194748 -0.179642,-0.399039 -0.419636,-0.5418 -0.485585,-0.288808 -1.131373,-0.476916 -1.698272,-0.618619 -0.283439,-0.07081 -0.543243,-0.126372 -0.742737,-0.163523 -0.09977,-0.01856 -0.182991,-0.03167 -0.25218,-0.04136 -0.0346,-0.0052 -0.06404,-0.009 -0.09653,-0.01176 -0.03248,-0.003 -0.01886,-0.0241 -0.177311,0.008 h -0.002 c 0.02016,-0.0041 -0.342177,-0.04639 -0.725016,-0.230512 -0.382837,-0.18412 -0.823322,-0.462041 -1.188003,-0.74668 -0.275571,-0.215099 -0.423912,-0.398232 -0.555581,-0.559525 0.4271,-0.09018 1.176908,-0.153447 2.025308,-0.153667 z m 1.485496,2.882332 c 0.469879,0.118308 1.007777,0.295397 1.318027,0.453125 0.001,9.94e-4 0.003,9.72e-4 0.0041,0.0023 0.02915,0.02729 0.05659,0.05899 0.08473,0.0887 6.86e-4,0.0023 10e-4,0.0023 0.002,0.0044 0.0343,0.08683 0.07313,0.23688 0.102444,0.419641 0.05861,0.365533 0.08614,0.860705 0.09452,1.355467 0.0061,0.391638 0.002,0.769954 -0.002,1.111174 l -0.08273,0.04926 c -0.328378,0.199011 -0.795503,0.216819 -1.132828,0.07291 -0.328366,-0.149256 -0.557133,-0.377642 -0.795946,-0.636352 l -0.01008,-0.0098 -0.008,-0.0078 c -0.169191,-0.199015 -0.31016,-0.358555 -0.429551,-0.557556 -0.119292,-0.199011 -0.21889,-0.468084 -0.198979,-0.746698 0.0349,-0.468006 0.19804,-0.723614 0.951582,-1.595818 0.03611,-0.0032 0.06769,-5.52e-4 0.102444,-0.0023 z m -15.834065,2.706979 1.288398,0.208831 c -1.350386,1.683718 -2.005496,3.26736 -2.090329,4.446628 -0.08483,1.179257 0.173931,2.429003 0.208832,4.131402 0.08492,4.141231 -0.105192,5.132169 -0.902324,8.625297 l -1.296277,0.232474 c 0.79498,-3.483772 1.039442,-4.74123 0.955518,-8.836098 -0.03289,-1.604964 -0.305006,-2.858455 -0.206867,-4.223996 0.09826,-1.365632 0.605904,-2.792627 2.043049,-4.584538 z m 15.422306,4.381604 c 1.54164,0.05258 2.055057,3.113994 2.571044,4.312649 0.05286,0.100308 0.128743,0.195929 0.206857,0.285676 -0.331372,0.583136 -0.545574,1.307942 -0.608769,2.117909 -0.0108,0.137721 -0.01604,0.279256 -0.01775,0.42162 -0.150632,-0.02728 -0.414843,-0.01846 -0.539824,-0.122154 l -0.07091,-0.642273 -0.652114,-0.07877 c -0.280816,-0.325765 -0.403345,-0.559563 -0.51618,-0.849139 -0.619624,-2.011096 -2.959237,-3.855701 -1.099338,-5.270137 0.265141,-0.12957 0.506748,-0.182849 0.726982,-0.175349 z m 5.486855,1.591883 c 0.0328,-8.95e-4 0.06658,0.0078 0.102444,0.02962 0.702934,0.414274 0.746965,1.096513 1.030393,1.64311 3.14e-4,-0.0055 -0.07464,0.542384 -0.866869,0.120174 -0.3194,-0.713095 -0.09906,-0.690604 -0.656059,-1.353479 0.08089,-0.145985 0.21302,-0.434512 0.39009,-0.43935 z"
     sodipodi:nodetypes="cscsscccccccccssccsscccccccccccccccccscccsscccccccccccsccscccccsccccccscccccsccccccccscccccccccccscccccccccccssccscccccccscccscccccccccccccscccccccccccccccccccsccccccccssccsccccccccccsssssccsscccccccccccccssccccccccccccccscccccccccccccccccccccssccccccccccccccccccccccccccccccccccccccccccccccccccccccsccsscccccccscccccccsscccccccccccccccccccccccsccccccccccccccccccccccccc" />
</svg>
