<?xml version="1.0" encoding="UTF-8" standalone="no"?>
<svg
   viewBox="0 0 60 60"
   version="1.1"
   id="svg11"
   sodipodi:docname="1FlyingBronzeCannon.svg"
   inkscape:version="1.3 (0e150ed6c4, 2023-07-21)"
   xml:space="preserve"
   xmlns:inkscape="http://www.inkscape.org/namespaces/inkscape"
   xmlns:sodipodi="http://sodipodi.sourceforge.net/DTD/sodipodi-0.dtd"
   xmlns="http://www.w3.org/2000/svg"
   xmlns:svg="http://www.w3.org/2000/svg"><sodipodi:namedview
     id="namedview11"
     pagecolor="#ffffff"
     bordercolor="#666666"
     borderopacity="1.0"
     inkscape:showpageshadow="2"
     inkscape:pageopacity="0.0"
     inkscape:pagecheckerboard="0"
     inkscape:deskcolor="#d1d1d1"
     inkscape:zoom="15.066666"
     inkscape:cx="67.566373"
     inkscape:cy="21.106195"
     inkscape:window-width="3840"
     inkscape:window-height="2054"
     inkscape:window-x="-11"
     inkscape:window-y="-11"
     inkscape:window-maximized="1"
     inkscape:current-layer="svg11"
     showgrid="false" /><defs
     id="defs2"><filter
       id="1GI_svg__a"
       color-interpolation-filters="sRGB"
       x="-0.12046379"
       y="-0.3172505"
       width="1.4918938"
       height="2.0310641"><feFlood
         flood-color="#000"
         flood-opacity=".498"
         result="flood"
         id="feFlood1" /><feComposite
         in="flood"
         in2="SourceGraphic"
         operator="in"
         result="composite1"
         id="feComposite1" /><feGaussianBlur
         in="composite1"
         result="blur"
         stdDeviation="1"
         id="feGaussianBlur1" /><feOffset
         dx="5"
         dy="3"
         result="offset"
         id="feOffset1" /><feComposite
         in="SourceGraphic"
         in2="offset"
         result="composite2"
         id="feComposite2" /></filter><filter
       id="0GI_svg__a"
       color-interpolation-filters="sRGB"
       x="-0.039077128"
       y="-0.031849247"
       width="1.1595649"
       height="1.1035101"><feFlood
         flood-color="#000"
         flood-opacity=".498"
         result="flood"
         id="feFlood1-9" /><feComposite
         in="flood"
         in2="SourceGraphic"
         operator="in"
         result="composite1"
         id="feComposite1-9" /><feGaussianBlur
         in="composite1"
         result="blur"
         stdDeviation="1"
         id="feGaussianBlur1-6" /><feOffset
         dx="5"
         dy="3"
         result="offset"
         id="feOffset1-0" /><feComposite
         in="SourceGraphic"
         in2="offset"
         result="composite2"
         id="feComposite2-8" /></filter><filter
       style="color-interpolation-filters:sRGB"
       inkscape:label="Drop Shadow"
       id="filter4327"
       x="-0.039076919"
       y="-0.03184896"
       width="1.1595641"
       height="1.1035091"><feFlood
         flood-opacity="0.498039"
         flood-color="rgb(0,0,0)"
         result="flood"
         id="feFlood4317" /><feComposite
         in="flood"
         in2="SourceGraphic"
         operator="in"
         result="composite1"
         id="feComposite4319" /><feGaussianBlur
         in="composite1"
         stdDeviation="1"
         result="blur"
         id="feGaussianBlur4321" /><feOffset
         dx="5"
         dy="3"
         result="offset"
         id="feOffset4323" /><feComposite
         in="SourceGraphic"
         in2="offset"
         operator="over"
         result="composite2"
         id="feComposite4325" /></filter><filter
       style="color-interpolation-filters:sRGB"
       inkscape:label="Drop Shadow"
       id="filter4495"
       x="-0.039076923"
       y="-0.032667967"
       width="1.1595641"
       height="1.1061709"><feFlood
         flood-opacity="0.498039"
         flood-color="rgb(0,0,0)"
         result="flood"
         id="feFlood4485" /><feComposite
         in="flood"
         in2="SourceGraphic"
         operator="in"
         result="composite1"
         id="feComposite4487" /><feGaussianBlur
         in="composite1"
         stdDeviation="1"
         result="blur"
         id="feGaussianBlur4489" /><feOffset
         dx="5"
         dy="3"
         result="offset"
         id="feOffset4491" /><feComposite
         in="SourceGraphic"
         in2="offset"
         operator="over"
         result="composite2"
         id="feComposite4493" /></filter></defs><path
     style="color:#000000;opacity:0.99;fill:#eea37e;fill-opacity:0.98823529;stroke-width:0.72;-inkscape-stroke:none"
     d="M 30.00069,53.90699 44.69085,49.52867 52.11117,3.73235 H 7.89093 l 7.6932,45.79632 z"
     id="path1" /><path
     id="path5"
     style="color:#000000;opacity:0.99;fill:#a75a3f;fill-opacity:0.99215686;stroke-width:0.72;-inkscape-stroke:none"
     d="m 7.4648412,3.3730484 7.8007828,46.4355436 0.318362,2.441412 14.416013,4.376952 14.691405,-4.376952 0.318363,-2.441412 7.525389,-46.4355436 z M 8.3164068,4.0917956 H 51.6875 L 44.371091,49.24805 30.00195,53.531251 15.902341,49.250001 Z" /><path
     fill="url(#1GI_svg__linearGradient29775)"
     d="m 30.212881,53.885536 0.983781,1.255832 14.7971,-4.489979 -0.683577,-1.233137 z"
     id="path3"
     style="opacity:0.99;stroke-width:0.774105" /><path
     style="fill:#ca7e5a;fill-opacity:0.99215686;stroke:none;stroke-width:1.2px;stroke-linecap:butt;stroke-linejoin:miter;stroke-opacity:1"
     d="m 15.901634,49.249654 0.359318,2.457146 13.740216,4.252027 13.926119,-4.280186 0.443881,-2.430391 -14.369061,4.283438 z"
     id="path6" /><path
     style="fill:#c43018;stroke-width:0.0190756;fill-opacity:1"
     d="m 44.988071,9.7212256 c 0.68269,0.0258 2.38853,0.16048 2.42285,0.19124 0.0221,0.0198 0.0711,0.4608004 0.0529,0.4763204 -0.007,0.006 -0.0949,0.0392 -0.19456,0.0733 -2.02744,0.69317 -3.74979,2.16089 -5.427,4.62462 -0.25131,0.36917 -0.63975,0.97131 -0.63174,0.97933 0.003,0.003 0.0394,-0.006 0.0803,-0.0204 0.25243,-0.089 0.65768,-0.0914 0.90961,-0.006 0.56822,0.1937 0.86379,0.71691 0.72081,1.27598 -0.0653,0.25513 -0.21644,0.50202 -0.42051,0.68669 l -0.11505,0.10412 0.0599,0.13161 c 0.24359,0.53496 0.3632,1.09261 0.36578,1.705344 0.002,0.523344 -0.0648,0.936795 -0.23595,1.45675 -0.16678,0.506577 -0.504,1.139122 -0.66062,1.239197 -0.0399,0.02551 -1.02113,0.563788 -2.18045,1.196188 -1.15932,0.632386 -2.84179,1.550699 -3.73881,2.040681 -0.89703,0.489994 -3.30485,1.805123 -5.3507,2.922522 -2.04586,1.117386 -5.49234,2.99985 -7.658846,4.18323 -2.16651,1.183393 -3.9522,2.155055 -3.9682,2.159245 -0.0377,0.01 -0.4275,-0.24984 -0.69577,-0.463602 -0.5065,-0.403579 -1.26305,-1.232089 -1.48778,-1.62929 -0.0504,-0.08917 -0.20357,-0.342394 -0.34026,-0.562725 -0.42477,-0.684643 -0.53726,-0.892657 -0.68604,-1.26852 -0.0926,-0.234056 -0.19491,-0.595556 -0.17969,-0.635217 0.005,-0.01315 0.15828,-0.131829 0.34048,-0.263644 1.03177,-0.746479 2.13654,-1.49107 4.22269,-2.846032 0.41966,-0.272574 1.10639,-0.71871 1.52605,-0.991403 1.02821,-0.66814 2.760096,-1.822835 3.518976,-2.346192 l 0.61949,-0.427215 0.18168,0.07419 c 0.63455,0.259127 1.43492,0.449378 2.14647,0.51019 0.48669,0.0416 1.16032,0.0217 1.65957,-0.04904 2.38335,-0.337651 4.45023,-1.814331 5.55043,-3.96549 0.32445,-0.634379 0.57887,-1.392167 0.69493,-2.069887 0.0816,-0.47649 0.10459,-0.75623 0.10504,-1.27787 3.2e-4,-0.51258 -0.0145,-0.71863 -0.0861,-1.18375 l -0.0398,-0.25857 0.14009,-0.13567 c 0.19868,-0.19239 0.22698,-0.21142 0.33614,-0.22589 l 0.0974,-0.0129 0.33972,-0.45065 c 1.68645,-2.23717 2.70385,-3.32027 3.77996,-4.02404 0.89349,-0.58436 1.83664,-0.8606804 3.13565,-0.9186704 0.46388,-0.0207 0.5051,-0.0206 1.09087,0.002 z m -15.68804,0.2862504 c 1.63308,0.11648 3.20173,0.82887 4.37011,1.98463 1.18997,1.1771 1.90015,2.70847 2.04095,4.4009 0.0457,0.55007 -0.002,1.33148 -0.11526,1.89124 -0.21976,1.08484 -0.70964,2.125732 -1.40947,2.994872 -0.18675,0.23193 -0.66817,0.725153 -0.89,0.911816 -1.89426,1.593987 -4.41054,2.072741 -6.73367,1.281169 -2.377236,-0.810015 -4.124196,-2.84178 -4.575456,-5.321387 -0.0827,-0.45421 -0.0981,-0.6475 -0.0981,-1.23037 0,-0.58287 0.0154,-0.77616 0.0981,-1.23037 0.15869,-0.87192 0.47378,-1.69056 0.93662,-2.43333 1.356816,-2.17746 3.818026,-3.4316504 6.376176,-3.24917 z m 0.11536,3.63665 9.7e-4,1.57849 0.11831,-0.12629 c 0.0651,-0.0695 0.56039,-0.58326 1.10071,-1.14178 0.54031,-0.55851 0.98488,-1.02205 0.98793,-1.03009 0.009,-0.0228 -0.34556,-0.24556 -0.5778,-0.36337 -0.4068,-0.20636 -0.82448,-0.35118 -1.2945,-0.44884 -0.11686,-0.0243 -0.24037,-0.0447 -0.27447,-0.0454 l -0.062,-10e-4 z m -1.60386,-1.52199 c -0.65463,0.13271 -1.30444,0.41474 -1.85372,0.80458 l -0.18522,0.13146 0.2329,0.22661 c 0.1281,0.12464 0.6664,0.64649 1.19622,1.15965 l 0.96332,0.93302 0.006,-1.23149 c 0.003,-0.67732 1.4e-4,-1.42248 -0.007,-1.65593 -0.0113,-0.37539 -0.0164,-0.42441 -0.0441,-0.42426 -0.0172,10e-5 -0.15599,0.0255 -0.30846,0.0564 z m 3.70849,2.70466 c -0.56463,0.58492 -1.08631,1.12574 -1.15927,1.20188 l -0.13266,0.13839 1.71535,-0.005 1.71536,-0.005 -0.007,-0.0763 c -0.008,-0.0987 -0.12086,-0.53926 -0.1862,-0.7295 -0.14016,-0.40813 -0.33843,-0.80091 -0.59468,-1.17806 -0.12497,-0.18391 -0.30068,-0.41012 -0.31859,-0.41012 -0.003,0 -0.46815,0.47856 -1.03279,1.06346 z m -6.75249,-0.70547 c -0.30919,0.44209 -0.545206,0.93315 -0.693976,1.44387 -0.0552,0.18957 -0.13376,0.53847 -0.13376,0.59423 0,0.0224 0.21592,0.0261 1.397286,0.0239 0.7685,-0.002 1.49925,-0.008 1.62389,-0.0143 l 0.2266,-0.0117 -1.13809,-1.10161 c -0.62595,-0.6059 -1.14424,-1.10147 -1.15177,-1.1013 -0.008,0 -0.0661,0.0753 -0.13018,0.16691 z m 5.61998,3.40681 c 0.0681,0.0667 0.54014,0.523 1.04898,1.01389 0.50885,0.49089 1.0208,0.986722 1.13768,1.10185 l 0.21251,0.209316 0.11348,-0.169283 c 0.32104,-0.478913 0.54811,-0.997673 0.69119,-1.579023 0.0501,-0.2035 0.11514,-0.58047 0.11514,-0.66718 0,-0.0283 -0.14659,-0.0309 -1.7214,-0.0309 h -1.72139 z m -6.476736,0.0169 c 0.0508,0.47007 0.21983,1.04871 0.447226,1.53083 0.13704,0.29055 0.47231,0.82978 0.51592,0.82978 0.008,0 0.46459,-0.465679 1.0139,-1.03485 0.54933,-0.56917 1.0882,-1.12712 1.19751,-1.23991 l 0.19873,-0.20507 h -1.69308 -1.693086 z m 3.060106,1.991032 c -0.66515,0.688522 -1.21207,1.258887 -1.21538,1.26747 -0.0171,0.04458 0.59961,0.440144 0.92164,0.591132 0.46224,0.21673 0.99552,0.379265 1.40682,0.428797 l 0.10969,0.01315 v -1.776225 c 0,-0.976916 -0.003,-1.776226 -0.007,-1.776226 -0.004,0 -0.55091,0.56334 -1.21607,1.251846 z m 2.46649,0.706592 c 0.003,0.862058 0.0113,1.572981 0.0182,1.57981 0.0182,0.01823 0.41315,-0.0564 0.65522,-0.123844 0.63639,-0.177295 1.28408,-0.506974 1.77139,-0.901625 l 0.0546,-0.0442 -1.24681,-1.206086 -1.24682,-1.206089 -0.006,0.16733 c -0.003,0.092 -0.003,0.87265 0,1.734708 z"
     id="path1-1" /><path
     id="path59-0"
     style="opacity:0.98;fill:#c32e16;fill-opacity:0.992157;stroke-width:3.59705;stroke-linecap:round;stroke-linejoin:round;paint-order:stroke fill markers"
     d="m 33.35838,33.364172 -5.577156,3.21084 -1.01508,-3.769703 -1.01508,3.769703 -5.577564,-3.211248 3.211248,5.577564 -3.769704,1.01508 3.769704,1.01508 -3.211248,5.577564 5.577564,-3.211248 1.01508,3.769716 1.01508,-3.769716 5.577564,3.211236 -3.211248,-5.577552 3.769704,-1.01508 -3.769704,-1.01508 z m -3.715068,3.715069 -1.401744,2.434199 1.645584,0.443388 -1.645164,0.442956 1.401744,2.434201 -2.43462,-1.401325 -0.442968,1.645164 -0.443376,-1.645571 -2.434212,1.401732 1.401744,-2.434189 -1.645572,-0.443388 1.645164,-0.442968 -1.401324,-2.43462 2.4342,1.401744 0.442968,-1.645164 0.443376,1.645585 z" /></svg>
