<?xml version="1.0" encoding="UTF-8" standalone="no"?>
<svg
   viewBox="0 0 60 60"
   version="1.1"
   id="svg6"
   sodipodi:docname="1FU.svg"
   xml:space="preserve"
   inkscape:version="1.3 (0e150ed6c4, 2023-07-21)"
   xmlns:inkscape="http://www.inkscape.org/namespaces/inkscape"
   xmlns:sodipodi="http://sodipodi.sourceforge.net/DTD/sodipodi-0.dtd"
   xmlns="http://www.w3.org/2000/svg"
   xmlns:svg="http://www.w3.org/2000/svg"><sodipodi:namedview
     id="namedview6"
     pagecolor="#ffffff"
     bordercolor="#666666"
     borderopacity="1.0"
     inkscape:showpageshadow="2"
     inkscape:pageopacity="0.0"
     inkscape:pagecheckerboard="0"
     inkscape:deskcolor="#d1d1d1"
     inkscape:zoom="3.7666667"
     inkscape:cx="-51.504425"
     inkscape:cy="115.48673"
     inkscape:window-width="3840"
     inkscape:window-height="2054"
     inkscape:window-x="-11"
     inkscape:window-y="-11"
     inkscape:window-maximized="1"
     inkscape:current-layer="svg6" /><defs
     id="defs2"><filter
       id="1FU_svg__a"
       color-interpolation-filters="sRGB"
       x="-0.044180247"
       y="-0.035264744"
       width="1.1804027"
       height="1.1146104"><feFlood
         flood-color="#000"
         flood-opacity=".498"
         result="flood"
         id="feFlood1" /><feComposite
         in="flood"
         in2="SourceGraphic"
         operator="in"
         result="composite1"
         id="feComposite1" /><feGaussianBlur
         in="composite1"
         result="blur"
         stdDeviation="1"
         id="feGaussianBlur1" /><feOffset
         dx="5"
         dy="3"
         result="offset"
         id="feOffset1" /><feComposite
         in="SourceGraphic"
         in2="offset"
         result="composite2"
         id="feComposite2" /></filter></defs><g
     id="path2"
     transform="matrix(0.72,0,0,0.72,-407.34599,-134.13911)"
     style="opacity:0.99"><path
       style="color:#000000;fill:#ffd19e;-inkscape-stroke:none"
       d="M 624.768,252.585 634,194.441 h -53.151 l 9.207,58.137 17.368,5.642 z"
       id="path1" /><path
       id="path6"
       style="color:#000000;fill:#927b64;fill-opacity:0.99215686;-inkscape-stroke:none"
       d="m 580.26354,193.94266 9.3457,59.01692 0.44597,3.39844 17.36979,5.64128 17.34375,-5.63477 0.44271,-3.39844 0.0488,-0.30273 9.32617,-58.7207 z m 1.17188,0.99935 h 51.97916 l -9.09179,57.26236 -16.89779,5.48829 -16.92383,-5.4948 z" /></g><path
     id="path4"
     style="opacity:0.99;stroke:#000000;stroke-width:0.792056;stroke-linejoin:round;paint-order:stroke fill markers"
     d="M 30 12.806641 C 26.046198 12.788101 22.090004 13.215808 18.755859 14.109375 C 19.07576 17.013764 19.926553 18.02509 22.498047 19.691406 C 27.545116 22.765107 28.058484 26.60209 28.148438 31.267578 C 26.499565 31.449141 24.901038 31.873324 23.419922 32.519531 C 27.870526 36.197868 28.950861 39.400654 30 44.832031 C 31.049137 39.400654 32.129473 36.197868 36.580078 32.519531 C 35.038558 31.859591 33.442216 31.450164 31.849609 31.271484 C 31.93897 26.604239 32.453034 22.765958 37.501953 19.691406 C 40.072956 18.02509 40.923749 17.014362 41.244141 14.109375 C 37.909995 13.216406 33.9538 12.7881 30 12.806641 z " /><path
     style="fill:#b4926f;fill-opacity:0.98431373;stroke:none;stroke-width:1.2px;stroke-linecap:butt;stroke-linejoin:miter;stroke-opacity:1"
     d="m 17.814851,47.443361 0.278078,2.508065 11.906608,4.022124 11.827905,-4.081859 0.338975,-2.443643 -12.166409,3.951569 z"
     id="path8" /></svg>
