<?xml version="1.0" encoding="UTF-8" standalone="no"?>
<svg
   viewBox="0 0 60 60"
   version="1.1"
   id="svg11"
   sodipodi:docname="1GI.svg"
   inkscape:version="1.3 (0e150ed6c4, 2023-07-21)"
   xmlns:inkscape="http://www.inkscape.org/namespaces/inkscape"
   xmlns:sodipodi="http://sodipodi.sourceforge.net/DTD/sodipodi-0.dtd"
   xmlns="http://www.w3.org/2000/svg"
   xmlns:svg="http://www.w3.org/2000/svg">
  <sodipodi:namedview
     id="namedview11"
     pagecolor="#ffffff"
     bordercolor="#666666"
     borderopacity="1.0"
     inkscape:showpageshadow="2"
     inkscape:pageopacity="0.0"
     inkscape:pagecheckerboard="0"
     inkscape:deskcolor="#d1d1d1"
     inkscape:zoom="10.653742"
     inkscape:cx="-37.45163"
     inkscape:cy="5.631824"
     inkscape:window-width="3840"
     inkscape:window-height="2054"
     inkscape:window-x="-11"
     inkscape:window-y="-11"
     inkscape:window-maximized="1"
     inkscape:current-layer="svg11"
     showgrid="false" />
  <defs
     id="defs2">
    <filter
       id="1GI_svg__a"
       color-interpolation-filters="sRGB"
       x="-0.12046379"
       y="-0.3172505"
       width="1.4918938"
       height="2.0310641">
      <feFlood
         flood-color="#000"
         flood-opacity=".498"
         result="flood"
         id="feFlood1" />
      <feComposite
         in="flood"
         in2="SourceGraphic"
         operator="in"
         result="composite1"
         id="feComposite1" />
      <feGaussianBlur
         in="composite1"
         result="blur"
         stdDeviation="1"
         id="feGaussianBlur1" />
      <feOffset
         dx="5"
         dy="3"
         result="offset"
         id="feOffset1" />
      <feComposite
         in="SourceGraphic"
         in2="offset"
         result="composite2"
         id="feComposite2" />
    </filter>
    <filter
       id="0GI_svg__a"
       color-interpolation-filters="sRGB"
       x="-0.039077128"
       y="-0.031849247"
       width="1.1595649"
       height="1.1035101">
      <feFlood
         flood-color="#000"
         flood-opacity=".498"
         result="flood"
         id="feFlood1-9" />
      <feComposite
         in="flood"
         in2="SourceGraphic"
         operator="in"
         result="composite1"
         id="feComposite1-9" />
      <feGaussianBlur
         in="composite1"
         result="blur"
         stdDeviation="1"
         id="feGaussianBlur1-6" />
      <feOffset
         dx="5"
         dy="3"
         result="offset"
         id="feOffset1-0" />
      <feComposite
         in="SourceGraphic"
         in2="offset"
         result="composite2"
         id="feComposite2-8" />
    </filter>
  </defs>
  <g
     id="path2"
     transform="matrix(0.72,0,0,0.72,-233.00883,-132.92581)"
     style="opacity:0.99">
    <path
       style="color:#000000;fill:#d2d2d2;fill-opacity:0.98823529;-inkscape-stroke:none"
       d="M 365.291,259.49 385.694,253.409 396,189.803 h -61.417 l 10.685,63.606 z"
       id="path1" />
    <path
       style="color:#000000;fill:#8b8b8b;fill-opacity:0.988235;-inkscape-stroke:none"
       d="m 333.99219,189.30273 10.83398,64.49414 20.46289,6.21485 0.14453,-0.043 20.70313,-6.16992 10.45117,-64.4961 z m 1.18164,1 h 60.23828 l -10.16211,62.7168 -19.95703,5.94922 -19.58399,-5.94727 z"
       id="path5" />
  </g>
  <path
     fill="url(#1GI_svg__linearGradient29775)"
     d="m 30.212881,53.885536 0.983781,1.255832 14.7971,-4.489979 -0.683577,-1.233137 z"
     id="path3"
     style="opacity:0.99;stroke-width:0.774105" />
  <path
     fill="#8b8b8b"
     fill-opacity="0.992"
     d="m 15.584128,52.250268 -0.318117,-2.442334 14.734677,4.099054 15.008919,-4.097664 -0.318759,2.440944 -14.69016,4.3776 z"
     id="path4"
     sodipodi:nodetypes="ccccccc"
     style="opacity:0.99;stroke-width:0.72" />
  <path
     d="m 29.991891,46.002152 0.328357,-0.457316 c 0.954738,-1.3351 1.892137,-2.960629 3.363805,-3.602171 L 34.299597,41.676078 33.77725,41.25019 c -0.989417,-0.799761 -1.617965,-2.218306 -1.961493,-4.063823 -0.0791,-0.420471 -0.138712,-0.86695 -0.189646,-1.326432 1.432644,-0.578688 2.725504,-1.482481 3.939242,-2.575921 -0.421564,-0.266586 -1.030596,-0.631788 -1.8282,-1.058762 -1.300434,-0.695726 -2.905394,-0.931969 -3.747429,-0.933052 -0.856123,-0.0011 -2.46324,0.236242 -3.762601,0.933052 -0.809514,0.433475 -1.386046,0.79651 -1.803266,1.062014 1.210488,1.091271 2.50117,1.993981 3.930574,2.572669 -0.05094,0.458399 -0.108384,0.905961 -0.186406,1.326432 -0.344612,1.845517 -0.970993,3.264062 -1.960408,4.063823 l -0.524505,0.425888 0.615533,0.266587 c 1.471668,0.641542 2.411234,2.267071 3.365974,3.602171 z m 10.865156,-2.396029 0.671896,-0.02492 c 0.08886,-4.535226 -0.2059,-8.769187 -1.844455,-11.878281 a 8.6695837,8.669488 0 0 0 -2.297436,-2.795914 c -0.422649,-0.153885 -1.278772,-0.456233 -2.528272,-0.827937 -1.632053,-0.484407 -3.620639,-0.959063 -4.854968,-0.959063 -1.239748,0 -3.233752,0.473572 -4.871224,0.959063 a 45.515315,45.514811 0 0 0 -2.502253,0.814932 8.6695837,8.669488 0 0 0 -2.310451,2.808915 c -1.638544,3.109094 -1.933318,7.343055 -1.845528,11.877198 l 0.671885,0.026 c 0.34679,-4.874421 1.147634,-7.869729 2.774269,-9.717413 0.398797,-0.454065 0.873462,-0.825768 1.391463,-1.157376 l -0.0065,-0.0108 c 0,0 1.057689,-0.72607 2.411235,-1.452139 1.353534,-0.72607 2.946575,-1.064181 4.273019,-1.062012 1.316688,0.0011 2.90431,0.339193 4.258929,1.064179 1.35463,0.726069 2.446996,1.447805 2.446996,1.447805 l -0.0086,0.01301 c 0.520169,0.331608 0.997001,0.703311 1.397964,1.157376 1.625552,1.847684 2.427489,4.841908 2.772102,9.717412 M 37.768559,27.849366 c 2.518509,-5.367497 7.019112,-11.605194 9.059714,-14.429279 l 0.21132,-0.290427 -0.184228,-0.315353 C 45.910382,11.199614 44.036665,8.9715552 42.067587,8.494734 L 41.754401,8.418882 41.608105,8.7548244 c -0.367382,0.843108 -1.326454,5.1540106 -2.380892,8.0951336 q -0.0054,0 -0.0086,-0.0043 l -3.261927,10.396883 c 1.010006,0.320772 1.535605,0.509333 1.811945,0.606865 m -15.540232,-0.0054 c 0.28502,-0.0997 0.796519,-0.281757 1.797857,-0.599278 L 20.710103,16.672267 C 19.682758,13.810254 18.755113,9.5795436 18.395318,8.754858 l -0.147382,-0.3359424 -0.31427,0.075852 C 15.965672,8.9715888 14.094124,11.199648 13.148054,12.81434 l -0.18531,0.31427 0.21132,0.290427 c 2.039438,2.824014 6.536789,9.059544 9.054215,14.423789 z m 2.832787,-0.921133 c 1.625551,-0.472487 3.505769,-0.935221 4.941664,-0.935221 1.430486,0 3.300939,0.461651 4.919989,0.933054 l 0.659975,-2.105602 c -0.370631,-0.132208 -0.976411,-0.344611 -1.854208,-0.604696 -1.252752,-0.372788 -2.779688,-0.736906 -3.727923,-0.736906 -0.950404,0 -2.482748,0.364118 -3.738761,0.736906 a 33.594637,33.594266 0 0 0 -1.861783,0.604696 z m 10.781713,-2.936787 2.373294,-7.567382 c -2.247626,-0.961248 -5.84658,-2.34078 -8.214467,-2.345115 -2.359207,-0.0032 -5.946251,1.34377 -8.244771,2.313669 l 2.384049,7.597647 c 0.392305,-0.139796 1.000254,-0.351115 1.872631,-0.609032 1.287431,-0.381457 2.828454,-0.770501 3.98801,-0.770501 1.154136,0 2.689741,0.391211 3.97392,0.772668 0.866959,0.256834 1.473835,0.467069 1.867213,0.606865 z"
     enable-background="accumulate"
     overflow="visible"
     id="path2-6"
     style="stroke-width:1.0837" />
  <path
     style="fill:#a5a5a5;fill-opacity:0.988235;stroke:none;stroke-width:1.2px;stroke-linecap:butt;stroke-linejoin:miter;stroke-opacity:1"
     d="m 15.901634,49.249654 0.359318,2.457146 13.740216,4.252027 13.926119,-4.280186 0.443881,-2.430391 -14.369061,4.283438 z"
     id="path6" />
</svg>
