<?xml version="1.0" encoding="UTF-8" standalone="no"?>
<svg
   viewBox="0 0 60 60"
   version="1.1"
   id="svg25"
   sodipodi:docname="1HI.svg"
   inkscape:version="1.3 (0e150ed6c4, 2023-07-21)"
   xmlns:inkscape="http://www.inkscape.org/namespaces/inkscape"
   xmlns:sodipodi="http://sodipodi.sourceforge.net/DTD/sodipodi-0.dtd"
   xmlns="http://www.w3.org/2000/svg"
   xmlns:svg="http://www.w3.org/2000/svg">
  <sodipodi:namedview
     id="namedview25"
     pagecolor="#ffffff"
     bordercolor="#666666"
     borderopacity="1.0"
     inkscape:showpageshadow="2"
     inkscape:pageopacity="0.0"
     inkscape:pagecheckerboard="0"
     inkscape:deskcolor="#d1d1d1"
     inkscape:zoom="5.3268711"
     inkscape:cx="28.440711"
     inkscape:cy="-6.8520524"
     inkscape:window-width="1875"
     inkscape:window-height="1725"
     inkscape:window-x="1796"
     inkscape:window-y="197"
     inkscape:window-maximized="0"
     inkscape:current-layer="svg25" />
  <defs
     id="defs2">
    <filter
       id="1HI_svg__a"
       color-interpolation-filters="sRGB"
       x="-0.036952686"
       y="-0.031443196"
       width="1.1508901"
       height="1.1021904">
      <feFlood
         flood-color="#000"
         flood-opacity=".498"
         result="flood"
         id="feFlood1" />
      <feComposite
         in="flood"
         in2="SourceGraphic"
         operator="in"
         result="composite1"
         id="feComposite1" />
      <feGaussianBlur
         in="composite1"
         result="blur"
         stdDeviation="1"
         id="feGaussianBlur1" />
      <feOffset
         dx="5"
         dy="3"
         result="offset"
         id="feOffset1" />
      <feComposite
         in="SourceGraphic"
         in2="offset"
         result="composite2"
         id="feComposite2" />
    </filter>
    <filter
       id="0HI_svg__a"
       color-interpolation-filters="sRGB"
       x="-0.037629351"
       y="-0.030880877"
       width="1.1536532"
       height="1.1003629">
      <feFlood
         flood-color="#000"
         flood-opacity=".498"
         result="flood"
         id="feFlood1-4" />
      <feComposite
         in="flood"
         in2="SourceGraphic"
         operator="in"
         result="composite1"
         id="feComposite1-0" />
      <feGaussianBlur
         in="composite1"
         result="blur"
         stdDeviation="1"
         id="feGaussianBlur1-4" />
      <feOffset
         dx="5"
         dy="3"
         result="offset"
         id="feOffset1-4" />
      <feComposite
         in="SourceGraphic"
         in2="offset"
         result="composite2"
         id="feComposite2-0" />
    </filter>
  </defs>
  <g
     id="path2"
     transform="matrix(0.72,0,0,0.72,-56.320801,-134.04073)"
     style="opacity:0.99;fill-opacity:0.992">
    <path
       style="color:#000000;fill:#fbc7dc;fill-opacity:0.988235;-inkscape-stroke:none"
       d="m 119.89,262.22 21.701,-7.117 10.189,-64.931 H 88 l 10.176,64.814 z"
       id="path1" />
    <path
       id="path4"
       style="color:#000000;fill:#db7da2;fill-opacity:0.984314;-inkscape-stroke:none"
       d="m 87.416042,189.67029 10.3125,65.69336 0.445963,3.40169 21.715495,7.23307 21.70247,-7.11588 0.44597,-3.4017 10.32552,-65.81054 z m 1.168619,1.0026 h 62.610679 l -10.05208,64.04948 -21.25326,6.9694 -21.266276,-7.08333 z" />
  </g>
  <path
     id="path6769"
     style="opacity:0.99;fill:#020101;fill-opacity:1;stroke:none;stroke-width:0.755051px;stroke-linecap:butt;stroke-linejoin:round;stroke-opacity:1"
     d="m 15.008913,43.189606 v -9.54e-4 c 10.15538,-1.109682 19.799943,-1.109682 29.985157,-0.01873 0.07482,0.0073 0.04988,-0.100956 0.03746,-0.155116 -0.560807,-2.257547 -0.75172,-2.536757 -2.317207,-4.1977 l -25.420671,0.0073 c -1.623954,1.59293 -1.763558,1.915097 -2.329139,4.185768 -0.01253,0.06347 -0.02494,0.190914 0.03734,0.190914 z m 27.7399,-5.53051 V 18.337741 h -1.60725 c -0.584671,5.622389 -5.355111,10.026515 -11.129037,10.026515 -5.773924,0 -10.543171,-4.404126 -11.126649,-10.026515 h -1.60725 V 37.659096 Z M 30.012887,27.201834 C 35.550558,27.202549 40.040591,22.71299 40.041785,17.175319 40.0425,11.636455 35.551752,7.1464184 30.012887,7.1464184 24.475217,7.1466572 19.985181,11.636455 19.986375,17.175319 c 2.35e-4,5.537671 4.488842,10.026515 10.026512,10.026515 z m 0.930701,-3.499676 V 19.42332 l 3.023585,3.025971 c -0.882972,0.668196 -1.927029,1.097751 -3.023585,1.252867 z m -1.863789,0 c -1.09775,-0.155116 -2.13703,-0.584671 -3.023583,-1.252867 l 3.023583,-3.025971 z m 6.203481,-2.57136 -3.024779,-3.025971 h 4.277646 c -0.155117,1.09775 -0.584671,2.138226 -1.252867,3.025971 z m -10.545558,0 c -0.668195,-0.882973 -1.097749,-1.928221 -1.252867,-3.025971 h 4.278837 z m 17.900124,-3.924456 c 0.64433,-0.0034 1.271958,-0.0091 1.271958,-0.0091 l 0.954565,-1.637078 v -1.84947 h -4.276453 c 0.513079,0.894905 0.763651,2.329139 0.680127,3.486548 0.06229,0.01372 0.727858,0.01218 1.368609,0.0091 z m -25.2504,0 c 0.644331,0.0031 1.304175,0.0037 1.368608,-0.0091 h 8.33e-4 c -0.07482,-1.157409 0.167048,-2.595223 0.680126,-3.486548 h -4.277644 v 1.84947 l 0.954565,1.637078 c 0,0 0.632399,0.0059 1.271958,0.0091 z m 19.149061,-0.954565 h -4.277645 l 3.023585,-3.025971 c 0.668196,0.882973 1.09775,1.928221 1.25406,3.025971 z m -8.773648,0 h -4.277643 c 0.155117,-1.09775 0.584671,-2.139419 1.255254,-3.025971 z m 3.181089,-1.318493 v -4.276453 c 1.09775,0.155118 2.135839,0.584673 3.021199,1.252867 z m -1.863787,0 -3.023585,-3.023586 c 0.882972,-0.668194 1.927027,-1.097749 3.023585,-1.252867 z"
     sodipodi:nodetypes="ccscccscccccscccccccccccccccccccccccccscccccssccccccscccccccccccccccc" />
  <path
     style="fill:#e394b6;fill-opacity:0.976471;stroke:none;stroke-width:1.2px;stroke-linecap:butt;stroke-linejoin:miter;stroke-opacity:1"
     d="m 14.68828,49.277346 0.335718,2.318407 14.976001,4.982456 14.939848,-4.822249 0.362499,-2.396585 -15.302347,5.017968 z"
     id="path5"
     sodipodi:nodetypes="ccccccc" />
</svg>
