<svg height="60" width="52.157" xmlns="http://www.w3.org/2000/svg" xmlns:xlink="http://www.w3.org/1999/xlink"><filter id="a" color-interpolation-filters="sRGB" height="1.106171" width="1.159564" x="-.039077" y="-.032668"><feFlood flood-opacity=".498039" result="flood"/><feComposite in="flood" in2="SourceGraphic" operator="in" result="composite1"/><feGaussianBlur in="composite1" result="blur" stdDeviation="1"/><feOffset dx="5" dy="3" result="offset"/><feComposite in="SourceGraphic" in2="offset" operator="over" result="composite2"/></filter><g filter="url(#a)" opacity=".99" transform="matrix(.6 0 0 .6 -143.546699 -106.360058)"><path d="m-37.141834-31.009999-13.303738 4.22217-7.033748 43.383744 40.677226.000152-7.035738-43.383397z" fill="#e5e6e2" opacity="1" stroke-width=".999762" transform="matrix(-1.50986997523 0 0 -1.4638245634 226.63102659449 214.82726742477)"/><path d="m262.62306 257.81875v-3.77953l20.08731 6.18125 20.08692-6.18052v3.77954l-20.08692 6.18051z" fill="#848485" opacity="1"/></g><path d="m30.863383 28.76446c3.893626-4.541797 7.638578-9.331884 11.273117-14.306392-.595949-1.310063-1.582623-2.092951-3.02922-1.891539-1.039983.144807-1.51333.994495-1.723407 1.757017-.136066.493841.850854 1.279657.850854 1.279657l-1.763452 1.274615c-3.890394 2.259245-8.171778 4.573325-10.597167 6.627116l-8.880696 10.050963c.370829.726931 1.210037 1.432961 1.836837 2.148471l5.26083-5.552899s-.221716-.818252-.06579-.999832c.155938-.181585 2.888388-2.687421 2.888388-2.687421s1.012114-.976498 1.079027-.900108c.06688.07639 2.870667 3.200356 2.870667 3.200356z" fill="#e5e6e2" fill-opacity=".992157" stroke="#000" stroke-width=".8"/><path d="m30.640443 28.689742c-3.065886 3.244821-5.909326 6.849056-9.510008 9.229731 0 0-.935781.523484-1.273246.935238-.350477.42763-.570793 1.557411-.570793 1.557411s-1.203575 1.629046-1.26173 1.66762c-.741346.491724-4.388349-3.565405-3.862975-3.973639l1.478441-1.317458s.992471-.380877 1.384759-.807922c.343682-.374128.69987-1.332983.69987-1.332983l1.094336 1.043896 5.217988-5.267881.08532-1.289688 3.827271-3.644775z" fill-opacity=".992157" stroke="#000" stroke-width=".033285"/><rect fill="#020202" height="8.659823" opacity=".98" ry=".467459" transform="matrix(-.75224301 .65888576 -.65888576 -.75224301 0 0)" width="2.28434" x="-5.125225" y="-42.708366"/></svg>