<?xml version="1.0" encoding="UTF-8" standalone="no"?>
<svg
   xmlns:dc="http://purl.org/dc/elements/1.1/"
   xmlns:cc="http://creativecommons.org/ns#"
   xmlns:rdf="http://www.w3.org/1999/02/22-rdf-syntax-ns#"
   xmlns:svg="http://www.w3.org/2000/svg"
   xmlns="http://www.w3.org/2000/svg"
   xmlns:sodipodi="http://sodipodi.sourceforge.net/DTD/sodipodi-0.dtd"
   xmlns:inkscape="http://www.inkscape.org/namespaces/inkscape"
   width="52.157"
   height="60"
   version="1.1"
   id="svg1717"
   sodipodi:docname="1KA.svg"
   inkscape:version="1.0.1 (3bc2e813f5, 2020-09-07)"
   inkscape:export-filename="D:\Pictures\Chess Variants\Shogi\pieces\Plastic\0FU.png"
   inkscape:export-xdpi="394.90497"
   inkscape:export-ydpi="394.90497">
  <metadata
     id="metadata1723">
    <rdf:RDF>
      <cc:Work
         rdf:about="">
        <dc:format>image/svg+xml</dc:format>
        <dc:type
           rdf:resource="http://purl.org/dc/dcmitype/StillImage" />
        <dc:title />
      </cc:Work>
    </rdf:RDF>
  </metadata>
  <defs
     id="defs1721">
    <filter
       style="color-interpolation-filters:sRGB"
       inkscape:label="Drop Shadow"
       id="filter4483">
      <feFlood
         flood-opacity="0.498039"
         flood-color="rgb(0,0,0)"
         result="flood"
         id="feFlood4473" />
      <feComposite
         in="flood"
         in2="SourceGraphic"
         operator="in"
         result="composite1"
         id="feComposite4475" />
      <feGaussianBlur
         in="composite1"
         stdDeviation="1"
         result="blur"
         id="feGaussianBlur4477" />
      <feOffset
         dx="5"
         dy="3"
         result="offset"
         id="feOffset4479" />
      <feComposite
         in="SourceGraphic"
         in2="offset"
         operator="over"
         result="composite2"
         id="feComposite4481" />
    </filter>
  </defs>
  <sodipodi:namedview
     pagecolor="#ffffff"
     bordercolor="#666666"
     borderopacity="1"
     objecttolerance="10"
     gridtolerance="10"
     guidetolerance="10"
     inkscape:pageopacity="0"
     inkscape:pageshadow="2"
     inkscape:window-width="958"
     inkscape:window-height="729"
     id="namedview1719"
     showgrid="false"
     inkscape:zoom="3.9333334"
     inkscape:cx="19.208622"
     inkscape:cy="31.046444"
     inkscape:window-x="392"
     inkscape:window-y="0"
     inkscape:window-maximized="0"
     inkscape:current-layer="svg1717"
     inkscape:document-rotation="0" />
  <!--
Created by Hari Seldon and modified by orangain, licensed under Creative Commons Attribution-Share Alike 3.0 Unported.
See: https://creativecommons.org/licenses/by-sa/3.0/deed.en

Original file is available at: https://commons.wikimedia.org/wiki/File:Shogi_gyokusho(svg).svg
-->
  <filter
     id="drop-shadow">
    <feGaussianBlur
       in="SourceAlpha"
       result="blur"
       stdDeviation="2"
       id="feGaussianBlur1692" />
    <feOffset
       result="offsetBlur"
       dx="2"
       dy="2"
       id="feOffset1694" />
    <feBlend
       in="SourceGraphic"
       in2="offsetBlur"
       mode="normal"
       id="feBlend1696" />
  </filter>
  <g
     transform="translate(-93.769599,-102.96982)"
     style="opacity:0.99"
     id="g4583">
    <g
       style="filter:url(#filter4483)"
       transform="matrix(0.6,0,0,0.6,-0.24566948,-2.8351379)"
       id="g4093">
      <g
         id="g14367"
         transform="matrix(1.0403371,0,0,1.0102223,-8.6420546,-2.1920241)"
         style="opacity:1">
        <g
           id="g7764"
           transform="matrix(1.5768407,0,0,1.4961557,-1.0573934,144.08674)"
           style="fill:url(#linearGradient2259-3);fill-opacity:1">
          <g
             style="fill:url(#linearGradient14807);fill-opacity:1"
             id="g7762"
             transform="rotate(180,45.578499,23.8125)">
            <path
               sodipodi:nodetypes="cccccc"
               id="path7760"
               d="m -36.795138,-31.009999 -13.012101,4.497677 -6.427485,43.171101 38.879385,1.1e-4 -6.427492,-43.171141 z"
               inkscape:connector-curvature="0"
               style="fill:#fdd3e3;fill-opacity:0.992157;stroke-width:1.0004" />
          </g>
        </g>
      </g>
      <path
         sodipodi:nodetypes="ccccccc"
         style="opacity:1;fill:#de7ea3;fill-opacity:0.992157;stroke:none;stroke-width:1.58881px;stroke-linecap:butt;stroke-linejoin:miter;stroke-opacity:1"
         d="m 178.81047,259.20188 v -3.77953 l 21.34598,6.79812 21.34565,-6.79801 V 259.202 L 200.15645,266 Z"
         id="path9418-4-6-3-8-9-6"
         inkscape:connector-curvature="0" />
    </g>
    <g
       transform="matrix(0.72195234,0,0,-0.72195234,-4.5809352,190.83935)"
       id="g10819-8-0"
       style="display:inline;opacity:1">
      <g
         style="display:inline;stroke-width:0.6;stroke-miterlimit:4;stroke-dasharray:none"
         transform="matrix(1.3333333,0,0,-1.3333333,-0.7292818,396.85067)"
         id="g2322-6-4-5">
        <path
           sodipodi:nodetypes="cc"
           style="fill:none;stroke:#000000;stroke-width:0.997296;stroke-linecap:butt;stroke-linejoin:miter;stroke-miterlimit:4;stroke-dasharray:none;stroke-opacity:1"
           d="m 118.60844,240.09519 13.37712,-1.01532"
           id="path2304-3-6-4"
           inkscape:connector-curvature="0" />
        <g
           id="g2320-0-8-2"
           style="stroke-width:0.6;stroke-miterlimit:4;stroke-dasharray:none">
          <path
             style="fill:#000000;stroke:#000000;stroke-width:0.560979;stroke-linecap:butt;stroke-linejoin:miter;stroke-miterlimit:4;stroke-dasharray:none;stroke-opacity:1"
             d="m 114.12377,227.21925 c 6.70858,0.47145 12.9961,0.0676 22.13114,7.8e-4 m -0.68919,4.89257 c -3.94553,6.47303 -10.01346,4.3595 -14.24184,4.30206 -3.53388,-2.09503 -4.05315,-2.26484 -5.34821,-3.84263 -1.3691,-1.83911 -1.71727,-3.11737 -1.82673,-5.37509 6.82666,-2.46 13.64966,-2.96499 21.81871,-0.47024 0.12545,2.0048 -0.17388,3.70643 -0.40193,5.3859 z"
             id="path2306-6-7-7"
             inkscape:connector-curvature="0"
             sodipodi:nodetypes="cccccccc" />
          <g
             transform="matrix(0.38598818,0,0,-0.38598818,-313.63442,292.80757)"
             id="g2314-8-6-2"
             style="stroke-width:1.55445;stroke-miterlimit:4;stroke-dasharray:none">
            <g
               transform="translate(29.312973,-3.8106864)"
               id="g2312-7-3-5"
               style="stroke-width:1.55445;stroke-miterlimit:4;stroke-dasharray:none">
              <path
                 style="fill:none;stroke:#000000;stroke-width:1.61484;stroke-linecap:butt;stroke-linejoin:miter;stroke-miterlimit:4;stroke-dasharray:none;stroke-opacity:1"
                 d="m 1134.2935,141.96442 c 2.5462,12.29332 3.1852,23.55617 4.1977,35.94324 1.9427,9.21372 14.4008,18.84221 21.5403,16.84207 -2.9324,-16.41167 -2.0318,-40.45637 -11.142,-69.99753 -5.6096,-0.79271 -11.3765,-1.12223 -17.4929,-1.75684 -2.0378,0.10556 -3.5421,0.51539 -4.9542,1.45521 -1.8957,2.68042 -6.0037,11.52099 -7.6923,15.8671 l 0.8046,9.0439 c 3.9859,1.63157 6.2216,3.26314 9.1883,4.89471 z"
                 id="path2310-0-9-8"
                 inkscape:connector-curvature="0"
                 sodipodi:nodetypes="cccccccccc" />
              <path
                 style="fill:none;stroke:#000000;stroke-width:1.61484;stroke-linecap:butt;stroke-linejoin:miter;stroke-miterlimit:4;stroke-dasharray:none;stroke-opacity:1"
                 d="m 1128.5077,153.78689 c 3.687,-7.95951 4.7699,-11.87437 9.4069,-19.42671 1.8791,-2.31598 3.7892,-4.58542 5.961,-6.46235 2.4698,-0.79915 3.0834,-1.78406 5.5532,-0.94924"
                 id="path2308-7-1-8"
                 inkscape:connector-curvature="0"
                 sodipodi:nodetypes="cccc" />
            </g>
          </g>
          <path
             style="fill:#000000;stroke:#000000;stroke-width:0.560979;stroke-linecap:butt;stroke-linejoin:miter;stroke-miterlimit:4;stroke-dasharray:none;stroke-opacity:1"
             d="m 121.6349,236.4114 -1.59644,12.29524 c -0.57482,3.32753 0.18894,5.11782 2.96111,4.60161 2.55408,-0.72649 4.17288,-3.15936 5.47802,-6.16442 l 1.29757,-10.54107 c -4.45943,0.42362 -5.93175,0.11668 -8.14026,-0.19136 z"
             id="path2316-0-0-3"
             inkscape:connector-curvature="0"
             sodipodi:nodetypes="cccccc" />
          <path
             style="fill:none;stroke:#fcd2e3;stroke-width:0.997296;stroke-linecap:butt;stroke-linejoin:miter;stroke-miterlimit:4;stroke-dasharray:none;stroke-opacity:0.988235"
             d="m 114.54599,230.80364 c 0.1922,-0.076 0.28172,-0.0623 0.6685,0.0624 4.96534,1.60019 9.50674,3.31691 20.20183,0.88876 0.0996,-0.0226 0.40967,-0.0966 0.58686,-0.0774"
             id="path2318-1-4-7"
             inkscape:connector-curvature="0"
             sodipodi:nodetypes="cssc" />
        </g>
      </g>
      <path
         style="fill:none;stroke:#fcd2e3;stroke-width:1.32973;stroke-linecap:butt;stroke-linejoin:miter;stroke-miterlimit:4;stroke-dasharray:none;stroke-opacity:0.988235"
         d="m 151.09502,93.550953 c 0.27883,0.02426 0.8801,-0.147211 1.00137,-0.177081 8.97454,-2.21056 17.80113,-2.648229 27.99307,0.597059 0.25245,0.08038 0.75606,0.09065 1.02577,0.112359"
         id="path2725-6-0-8"
         inkscape:connector-curvature="0"
         sodipodi:nodetypes="cssc" />
      <path
         style="fill:none;stroke:#fcd2e3;stroke-width:1.32973;stroke-linecap:butt;stroke-linejoin:miter;stroke-miterlimit:4;stroke-dasharray:none;stroke-opacity:0.988235"
         d="m 160.83615,80.518445 c 5.12147,-0.579576 7.71737,-0.658679 11.1656,-0.247688 0.44048,0.0525 0.66163,0.10651 0.79036,0.09169"
         id="path2727-0-4-1"
         inkscape:connector-curvature="0"
         sodipodi:nodetypes="csc" />
    </g>
  </g>
</svg>
