<?xml version="1.0" encoding="UTF-8" standalone="no"?>
<svg
   viewBox="0 0 60 60"
   version="1.1"
   id="svg8"
   sodipodi:docname="1KE.svg"
   xml:space="preserve"
   inkscape:version="1.3 (0e150ed6c4, 2023-07-21)"
   xmlns:inkscape="http://www.inkscape.org/namespaces/inkscape"
   xmlns:sodipodi="http://sodipodi.sourceforge.net/DTD/sodipodi-0.dtd"
   xmlns="http://www.w3.org/2000/svg"
   xmlns:svg="http://www.w3.org/2000/svg"><sodipodi:namedview
     id="namedview8"
     pagecolor="#ffffff"
     bordercolor="#666666"
     borderopacity="1.0"
     inkscape:showpageshadow="2"
     inkscape:pageopacity="0.0"
     inkscape:pagecheckerboard="0"
     inkscape:deskcolor="#d1d1d1"
     inkscape:zoom="10.653742"
     inkscape:cx="-34.072535"
     inkscape:cy="17.177063"
     inkscape:window-width="3840"
     inkscape:window-height="2054"
     inkscape:window-x="-11"
     inkscape:window-y="-11"
     inkscape:window-maximized="1"
     inkscape:current-layer="g8" /><defs
     id="defs2"><filter
       id="1KE_svg__a"
       color-interpolation-filters="sRGB"
       x="-0.060910088"
       y="-0.25712504"
       width="1.2487162"
       height="1.8356564"><feFlood
         flood-color="#000"
         flood-opacity=".498"
         result="flood"
         id="feFlood1" /><feComposite
         in="flood"
         in2="SourceGraphic"
         operator="in"
         result="composite1"
         id="feComposite1" /><feGaussianBlur
         in="composite1"
         result="blur"
         stdDeviation="1"
         id="feGaussianBlur1" /><feOffset
         dx="5"
         dy="3"
         result="offset"
         id="feOffset1" /><feComposite
         in="SourceGraphic"
         in2="offset"
         result="composite2"
         id="feComposite2" /></filter></defs><g
     opacity=".99"
     id="g8"><g
       id="path2"
       transform="matrix(0.72,0,0,0.72,-291.45961,-134.30273)"><path
         style="color:#000000;fill:#ffd19e;-inkscape-stroke:none"
         d="m 446.47,260.22 19.26,-5.911 10.27,-61.413 h -59.055 l 10.266,61.384 z"
         id="path1" /><path
         style="color:#000000;fill:#b3926f;fill-opacity:0.992157;-inkscape-stroke:none"
         d="m 416.35352,192.39648 10.41601,62.26954 19.69922,6.07617 0.14844,-0.0449 19.55468,-6 10.41797,-62.30079 z m 1.18164,1 h 57.875 l -10.12305,60.52539 -18.81641,5.7754 -18.81836,-5.80469 z"
         id="path4" /></g><path
       fill="#c3983c"
       fill-opacity=".992"
       d="m 16.131588,51.500466 -0.317139,-2.443666 14.184339,3.998866 14.185346,-3.976351 -0.318146,2.442031 -13.8672,4.25592 z"
       id="path3"
       style="fill:#b3926f;fill-opacity:1;stroke-width:0.72"
       sodipodi:nodetypes="ccccccc" /><path
       style="fill:#c4a279;fill-opacity:0.984314;stroke:none;stroke-width:1.2px;stroke-linecap:butt;stroke-linejoin:miter;stroke-opacity:1"
       d="m 16.450072,48.499924 0.3697,2.507575 13.17952,3.96239 13.123578,-4.061947 0.424237,-2.38693 -13.547815,4.158288 z"
       id="path5" /><path
       id="path7388-6"
       style="color:#000000;font-style:normal;font-variant:normal;font-weight:normal;font-stretch:normal;font-size:medium;line-height:normal;font-family:sans-serif;font-variant-ligatures:normal;font-variant-position:normal;font-variant-caps:normal;font-variant-numeric:normal;font-variant-alternates:normal;font-variant-east-asian:normal;font-feature-settings:normal;font-variation-settings:normal;text-indent:0;text-align:start;text-decoration:none;text-decoration-line:none;text-decoration-style:solid;text-decoration-color:#000000;letter-spacing:normal;word-spacing:normal;text-transform:none;writing-mode:lr-tb;direction:ltr;text-orientation:mixed;dominant-baseline:auto;baseline-shift:baseline;text-anchor:start;white-space:normal;shape-padding:0;shape-margin:0;inline-size:0;clip-rule:nonzero;display:inline;overflow:visible;visibility:visible;opacity:0.99;isolation:auto;mix-blend-mode:normal;color-interpolation:sRGB;color-interpolation-filters:linearRGB;solid-color:#000000;solid-opacity:1;vector-effect:none;fill:#000000;fill-opacity:0.992157;fill-rule:nonzero;stroke:none;stroke-width:0.694118;stroke-linecap:butt;stroke-linejoin:miter;stroke-miterlimit:4;stroke-dasharray:none;stroke-dashoffset:0;stroke-opacity:1;color-rendering:auto;image-rendering:auto;shape-rendering:auto;text-rendering:auto;enable-background:accumulate;stop-color:#000000"
       d="m 32.40373,48.960948 0.302343,-0.269532 c 0.807472,-0.718786 1.155679,-1.628119 1.324219,-2.552344 0.147554,-0.808746 0.172738,-1.632354 0.255468,-2.428124 l 0.642188,0.08672 3.178125,3.745313 0.239063,-0.452343 c 0.918067,-1.73189 0.575545,-3.636988 0.567187,-5.360158 1.370427,-2.829724 2.328817,-5.105682 2.175,-7.757812 1.819507,-2.039516 3.437805,-4.221357 4.490625,-6.759375 l 0.01176,-0.02578 0.0047,-0.02578 c 0.300688,-1.259918 0.588133,-2.60129 0.06328,-3.965625 l -0.04453,-0.119532 -0.696094,-0.384375 c -0.406147,-0.84159 -0.696746,-1.427949 -1.197656,-1.78125 -0.441647,-0.311864 -0.997211,-0.371936 -1.755468,-0.307032 l -0.564845,0.794532 c -0.46,-3.87e-4 -0.913819,-0.02884 -1.361718,-0.07969 l 0.864843,-1.216405 -0.182812,-0.442969 -0.304688,0.09844 c -0.998216,0.321435 -1.692721,0.733739 -2.21953,1.21875 -2.006704,-0.5199 -3.848494,-1.464385 -5.446876,-2.507809 0.07684,-0.0708 0.15668,-0.152953 0.232032,-0.217968 2.43501,-1.856989 2.959139,-3.702769 3.302344,-6.61875 l 0.02578,-0.229687 -0.203907,-0.1125 C 30.264534,8.0487123 25.862573,7.1650613 22.236594,7.5703313 c -3.625957,0.405684 -6.443267,2.09091 -9.124218,3.8835927 l -0.1875,0.126563 0.03984,0.222657 c 0.232766,1.33159 0.41901,2.297314 0.921094,4.136719 l 0.0024,0.0047 v 0.0047 c 1.273066,4.278391 1.505583,6.942088 1.699113,14.374185 v 0.0047 0.0071 c 0.187091,2.834705 1.704981,6.1524 4.082813,8.749179 2.329345,2.543713 5.515788,4.371678 9.100781,4.270313 z m -5.772657,-8.547657 h -0.0024 c -0.189216,-0.01495 -0.363637,-0.06643 -0.539063,-0.117192 -0.349832,-0.10194 -0.70281,-0.255399 -1.054687,-0.435937 -0.70392,-0.361049 -1.387856,-0.81433 -1.844532,-1.2 -2.636131,-2.22633 -4.120382,-4.322666 -4.748437,-8.069531 l -0.0024,-0.0164 -0.0024,-0.01406 C 17.714167,24.807047 18.180862,17.883435 16.180123,13.441421 l 1.392187,-0.628132 c 0.343374,0.761546 0.621543,1.56744 0.848607,2.407033 1.273613,4.709333 0.946353,10.458439 1.530469,15.128906 0.58328,3.465605 1.719824,5.027355 4.225781,7.14375 0.320058,0.270282 0.967184,0.70571 1.55625,1.007813 0.294092,0.151109 0.57849,0.271139 0.782813,0.330468 0.204331,0.05939 0.323631,0.0066 0.178124,0.06328 l 0.557813,1.420319 c -0.230725,0.09022 -0.431581,0.1131 -0.621094,0.09844 z m 9.803907,-2.68125 c -0.111492,0 -0.227034,-0.0042 -0.34922,-0.01176 l -0.651562,-0.03984 0.182812,-0.625781 c 0.218114,-0.744602 0.263074,-1.366483 0.6,-1.933594 0.168388,-0.283988 0.446022,-0.53691 0.796876,-0.665625 0.351,-0.128347 0.751835,-0.153336 1.246874,-0.11484 l 0.64922,0.04922 -0.192188,0.621094 c -0.224126,0.728759 -0.277292,1.346897 -0.614062,1.907811 -0.168389,0.28092 -0.438849,0.5319 -0.785157,0.665626 -0.259622,0.0999 -0.549462,0.145163 -0.883593,0.147656 z m -8.56875,-4.685156 c -0.03079,-0.312382 -0.0013,-0.699948 0.0539,-1.204687 0.05426,-0.504579 0.140906,-1.100872 0.257811,-1.71797 0.217525,-1.155618 0.512703,-2.352166 0.946876,-3.19453 l -0.0586,-0.269532 c 0,-0.02362 -0.01932,-0.358398 -0.02813,-0.761718 -0.0092,-0.417363 0.007,-0.92663 0.02344,-1.00547 l 0.0047,-0.02344 v -0.0211 c 0.115188,-1.754133 1.430826,-3.919741 2.800781,-5.472656 -4.071552,0.420439 -8.093298,-1.220774 -9.36797,-9.24375 5.061708,1.547311 8.822067,2.734438 10.317189,9.1125 -0.292306,0.05146 -0.585957,0.09228 -0.878907,0.124218 1.572402,1.043244 3.400701,2.021669 5.428125,2.622656 -0.519028,0.815999 -0.897085,1.743102 -1.579687,2.817188 -2.293534,1.06198 -3.336365,1.62205 -5.610938,2.475 l -0.02813,0.0094 0.07031,0.03984 c -0.324018,0.565479 -0.680858,1.830025 -0.902343,3.004687 -0.111492,0.587349 -0.195934,1.160029 -0.246094,1.628906 -0.04986,0.469085 -0.0595,0.860626 -0.04922,0.970313 z M 43.027948,27.185166 42.35998,26.479698 c 0.562951,-0.532667 1.009348,-0.869627 1.174218,-1.071095 0.08213,-0.100908 0.0908,-0.136997 0.09376,-0.178125 0.0028,-0.04122 -0.0084,-0.13112 -0.103128,-0.30703 l 0.857812,-0.457032 c 0.146676,0.272823 0.233531,0.547645 0.213281,0.832032 -0.02053,0.284508 -0.153009,0.532796 -0.311719,0.726561 -0.31697,0.387438 -0.740969,0.672671 -1.25625,1.160157 z m -3.407812,-3.285938 -0.942188,-0.670312 0.571875,-0.80625 c 0.431493,0.06938 0.869439,0.119376 1.314844,0.147656 z M 31.881073,18.496885 31.10998,17.500791 c -4.32927,-2.553845 -5.336276,-3.988668 -6.370313,-5.540625 l -1.10625,-0.75 0.297656,1.183593 c 1.105875,1.659777 2.312349,3.235527 6.752344,5.854689 z" /></g></svg>
