<?xml version="1.0" encoding="UTF-8" standalone="no"?>
<svg
   viewBox="0 0 60 60"
   version="1.1"
   id="svg14"
   sodipodi:docname="1NG.svg"
   inkscape:version="1.3 (0e150ed6c4, 2023-07-21)"
   xmlns:inkscape="http://www.inkscape.org/namespaces/inkscape"
   xmlns:sodipodi="http://sodipodi.sourceforge.net/DTD/sodipodi-0.dtd"
   xmlns="http://www.w3.org/2000/svg"
   xmlns:svg="http://www.w3.org/2000/svg">
  <sodipodi:namedview
     id="namedview14"
     pagecolor="#ffffff"
     bordercolor="#666666"
     borderopacity="1.0"
     inkscape:showpageshadow="2"
     inkscape:pageopacity="0.0"
     inkscape:pagecheckerboard="0"
     inkscape:deskcolor="#d1d1d1"
     inkscape:zoom="5.2708917"
     inkscape:cx="-51.509311"
     inkscape:cy="-2.8458183"
     inkscape:window-width="3840"
     inkscape:window-height="2054"
     inkscape:window-x="-11"
     inkscape:window-y="-11"
     inkscape:window-maximized="1"
     inkscape:current-layer="svg14" />
  <defs
     id="defs2">
    <filter
       id="a"
       color-interpolation-filters="sRGB"
       x="-0.039077128"
       y="-0.032667728"
       width="1.1595649"
       height="1.1061701">
      <feFlood
         flood-opacity=".498"
         flood-color="#000"
         result="flood"
         id="feFlood1" />
      <feComposite
         in="flood"
         in2="SourceGraphic"
         operator="in"
         result="composite1"
         id="feComposite1" />
      <feGaussianBlur
         in="composite1"
         stdDeviation="1"
         result="blur"
         id="feGaussianBlur1" />
      <feOffset
         dx="5"
         dy="3"
         result="offset"
         id="feOffset1" />
      <feComposite
         in="SourceGraphic"
         in2="offset"
         result="composite2"
         id="feComposite2" />
    </filter>
    <filter
       id="a-5"
       color-interpolation-filters="sRGB"
       x="-0.039077128"
       y="-0.031849247"
       width="1.1595649"
       height="1.1035101">
      <feFlood
         flood-opacity=".498"
         flood-color="#000"
         result="flood"
         id="feFlood1-7" />
      <feComposite
         in="flood"
         in2="SourceGraphic"
         operator="in"
         result="composite1"
         id="feComposite1-4" />
      <feGaussianBlur
         in="composite1"
         stdDeviation="1"
         result="blur"
         id="feGaussianBlur1-1" />
      <feOffset
         dx="5"
         dy="3"
         result="offset"
         id="feOffset1-8" />
      <feComposite
         in="SourceGraphic"
         in2="offset"
         result="composite2"
         id="feComposite2-2" />
    </filter>
  </defs>
  <g
     opacity=".99"
     id="g14">
    <g
       transform="matrix(.6 0 0 .6 -189.175 -160.36)"
       filter="url(#a)"
       fill-opacity=".992"
       id="g3">
      <path
         d="m365.293 350.22 20.4-6.08L396 280.533h-61.417l10.685 63.606z"
         fill="#ececec"
         id="path2" />
      <path
         d="M345.268 347.92v-3.78l20.025 6.08 20.4-6.08v3.779l-20.4 6.081z"
         fill="#8b8b8b"
         id="path3" />
    </g>
  </g>
  <path
     id="path15825-5-2"
     style="color:#000000;font-style:normal;font-variant:normal;font-weight:normal;font-stretch:normal;font-size:medium;line-height:normal;font-family:sans-serif;font-variant-ligatures:normal;font-variant-position:normal;font-variant-caps:normal;font-variant-numeric:normal;font-variant-alternates:normal;font-variant-east-asian:normal;font-feature-settings:normal;font-variation-settings:normal;text-indent:0;text-align:start;text-decoration:none;text-decoration-line:none;text-decoration-style:solid;text-decoration-color:#000000;letter-spacing:normal;word-spacing:normal;text-transform:none;writing-mode:lr-tb;direction:ltr;text-orientation:mixed;dominant-baseline:auto;baseline-shift:baseline;text-anchor:start;white-space:normal;shape-padding:0;shape-margin:0;inline-size:0;clip-rule:nonzero;display:inline;overflow:visible;visibility:visible;isolation:auto;mix-blend-mode:normal;color-interpolation:sRGB;color-interpolation-filters:linearRGB;solid-color:#000000;solid-opacity:1;vector-effect:none;fill:#e13007;fill-opacity:0.992157;fill-rule:nonzero;stroke:none;stroke-width:0.741935;stroke-linecap:butt;stroke-linejoin:miter;stroke-miterlimit:4;stroke-dasharray:none;stroke-dashoffset:0;stroke-opacity:1;color-rendering:auto;image-rendering:auto;shape-rendering:auto;text-rendering:auto;enable-background:accumulate;stop-color:#000000"
     d="m 29.90886,47.095864 0.29884,-0.417947 c 0.87159,-1.219 1.72867,-2.703087 3.07202,-3.288557 l 0.5631,-0.243892 -0.47784,-0.386191 c -0.67706,-0.547757 -1.17007,-1.413349 -1.5067,-2.522975 0,0 0,0 0,0 1.15549,-0.6883 1.9343,-1.967547 1.9343,-3.429703 0,-0.06911 -0.007,-0.138193 -0.0103,-0.207285 0.58228,-0.433533 1.19941,-0.944535 1.87023,-1.542249 l 0.2163,-0.191113 c 0.49638,0.309607 0.93266,0.677714 1.31495,1.112124 1.49183,1.69529 2.23051,4.46161 2.54639,8.922631 l 0.62,-0.01614 c 0,-0.0096 0,-0.01763 0,-0.02648 0,-0.0048 -0.002,-0.0071 -0.002,-0.01152 0.0767,-4.118388 -0.19273,-7.948244 -1.67362,-10.757761 -0.51561,-0.978202 -1.18806,-1.822387 -2.03472,-2.504663 l 2.3577,-4.908305 c -0.73263,-0.595388 -1.23117,-0.946602 -1.82058,-1.40321 l -2.01333,5.38284 C 34.91637,30.537859 34.65937,30.427756 34.39,30.330134 l 0.59275,-1.584141 c -3.27666,-1.518665 -7.12587,-1.538175 -10.30052,0.0691 l 0.53041,1.530042 c -0.26791,0.09703 -0.52442,0.2114 -0.77056,0.329307 l -1.69475,-4.890785 c -0.42022,0.231825 -0.86395,0.476015 -1.74316,0.896165 l 2.2591,4.700896 c -0.97156,0.714024 -1.72588,1.631291 -2.29358,2.708384 -1.48065,2.809618 -1.75075,6.639381 -1.67362,10.757721 0,0.0048 -0.002,0.0071 -0.002,0.01153 0,0.0096 0,0.01763 0,0.02648 l 0.61755,0.01614 c 0.3159,-4.46106 1.05706,-7.227341 2.54883,-8.922671 0.34765,-0.394425 0.7414,-0.734317 1.18305,-1.028771 l 0.0423,0.03824 c 0.86278,0.754745 1.6346,1.387767 2.35891,1.896802 0.0271,1.422759 0.7895,2.664066 1.91616,3.342267 -0.33624,1.114625 -0.82867,1.984229 -1.5079,2.53356 l -0.47903,0.386197 0.56251,0.243891 c 1.34384,0.584788 2.20099,2.069353 3.07262,3.287938 z m 0.009,-6.912145 c -0.66425,0 -1.28148,-0.203321 -1.79882,-0.551879 -0.38422,-0.260205 -0.712,-0.5973 -0.96168,-0.994515 -0.0611,-0.09703 -0.11643,-0.1992 -0.1683,-0.300785 -0.003,-0.0071 -0.006,-0.0141 -0.01,-0.02061 -0.0494,-0.101434 -0.0929,-0.203313 -0.13171,-0.309013 0,-0.0016 -0.002,-0.0023 -0.002,-0.0031 0,-0.0023 -0.002,-0.0038 -0.002,-0.0063 -0.04,-0.108786 -0.0741,-0.219634 -0.10232,-0.33342 -0.002,-0.0063 -0.003,-0.01057 -0.004,-0.01614 -0.0282,-0.108788 -0.0506,-0.227721 -0.067,-0.341506 0,-0.0031 -0.002,-0.0063 -0.002,-0.0094 0,0 0,0 0,0 -0.0223,-0.158478 -0.0388,-0.325334 -0.0388,-0.491601 0,-1.874047 1.4737,-3.379265 3.28736,-3.379265 1.81364,0 3.28494,1.505218 3.28494,3.379265 0,0.06911 -0.006,0.138193 -0.0103,0.211399 -0.0329,0.54967 -0.19111,1.062143 -0.4475,1.508511 -0.004,0.0071 -0.008,0.0141 -0.0129,0.02061 -0.0623,0.105847 -0.12893,0.207276 -0.20088,0.304897 -0.002,0.0031 -0.004,0.0071 -0.007,0.0094 -0.22887,0.309013 -0.507,0.572455 -0.82372,0.783117 0,0 -0.002,0 -0.002,0.0016 -0.51348,0.341498 -1.12421,0.540698 -1.78129,0.540698 z m -9.75919,-0.978791 c 0,-0.0023 0.002,-0.0048 0.002,-0.0071 0,0.0023 -0.002,0.0048 -0.002,0.0071 0.23416,-1.830122 0.64708,-3.481354 1.3579,-4.830296 0.0812,-0.154505 0.1683,-0.304898 0.25779,-0.452494 0.0153,-0.02501 0.0306,-0.0485 0.0447,-0.0735 0.0741,-0.12202 0.15125,-0.235807 0.23098,-0.353706 0.0212,-0.03087 0.0423,-0.06174 0.0647,-0.09409 0.0953,-0.133782 0.19277,-0.264319 0.2952,-0.390312 0.0153,-0.01764 0.0306,-0.03526 0.0459,-0.05289 0.0859,-0.101434 0.17406,-0.203313 0.26474,-0.296814 0.0412,-0.04412 0.0835,-0.08526 0.12525,-0.12937 0.0694,-0.0691 0.14231,-0.142597 0.21593,-0.207285 0.0459,-0.04412 0.0905,-0.08526 0.13863,-0.126425 0.10702,-0.09409 0.21546,-0.183027 0.32812,-0.26844 v 0 c 0.21017,-0.162592 0.43468,-0.309013 0.66955,-0.450144 v 0 c 0.005,-0.0023 0.0103,-0.0055 0.0153,-0.0081 0.16065,-0.0941 0.32777,-0.183028 0.50077,-0.268441 0.0176,-0.0081 0.0365,-0.01763 0.0541,-0.02648 0.16512,-0.07788 0.33624,-0.150393 0.51288,-0.219634 0.0259,-0.01058 0.0529,-0.02061 0.0788,-0.02939 0.1676,-0.06174 0.34071,-0.122022 0.51901,-0.174942 0.0388,-0.01175 0.0776,-0.02351 0.1179,-0.03526 0.16747,-0.0485 0.34036,-0.08968 0.51712,-0.12937 0.0541,-0.01175 0.10937,-0.02648 0.1643,-0.03675 0.16547,-0.03385 0.33671,-0.06174 0.51053,-0.08968 0.0694,-0.01058 0.13863,-0.02351 0.21017,-0.03236 0.16465,-0.0221 0.33589,-0.03824 0.50806,-0.05296 0.0858,-0.0081 0.16959,-0.01764 0.25697,-0.02351 0.16795,-0.01168 0.34271,-0.01764 0.51771,-0.02351 0.0964,-0.0038 0.18829,-0.0092 0.28661,-0.01058 0.27238,-0.0031 0.55229,0 0.84125,0.01058 l 0.0115,0.0023 h 0.002 l 0.0115,-0.0023 c 0.27897,-0.01058 0.5497,-0.0141 0.8129,-0.01168 0.26391,0.0023 0.51995,0.01293 0.7688,0.02797 0.24804,0.01473 0.48878,0.03824 0.72223,0.06464 0,3.1e-5 0,0 0.002,0 0.23334,0.02797 0.45938,0.06464 0.6786,0.105848 0,0 0,0 0.002,0 0.2191,0.04114 0.43138,0.08968 0.63684,0.142595 0,0 0.002,0 0.002,0 0.20535,0.05296 0.40375,0.114672 0.59628,0.178916 1.92671,0.652132 3.20463,1.88663 4.07385,3.535825 0.7103,1.347931 1.12366,2.997486 1.35786,4.826049 0,-0.0023 -0.002,-0.0048 -0.002,-0.0071 0,0.0023 0.002,0.0048 0.002,0.0071 -0.42935,-1.512154 -1.01868,-2.704333 -1.83568,-3.632593 -0.0366,-0.04114 -0.0753,-0.08086 -0.11218,-0.12202 -0.059,-0.06464 -0.11746,-0.12937 -0.1789,-0.191113 -0.046,-0.04412 -0.0948,-0.08968 -0.14187,-0.133775 -0.0562,-0.05297 -0.11217,-0.105847 -0.17078,-0.158479 -0.0544,-0.0485 -0.11026,-0.09409 -0.16632,-0.138184 -0.0553,-0.04412 -0.11099,-0.08968 -0.16751,-0.133782 -0.0569,-0.04412 -0.11555,-0.08526 -0.17403,-0.12937 -0.0581,-0.04114 -0.11746,-0.08086 -0.17727,-0.122021 -0.0626,-0.04114 -0.12598,-0.08526 -0.1907,-0.126423 -0.0562,-0.03526 -0.11422,-0.06911 -0.17158,-0.101434 -0.07,-0.04113 -0.13952,-0.08086 -0.21103,-0.12202 -0.0562,-0.03087 -0.11437,-0.06174 -0.17158,-0.08968 -0.0739,-0.03824 -0.14643,-0.07788 -0.22241,-0.114662 -0.0451,-0.02061 -0.0926,-0.04114 -0.13863,-0.06174 -0.17769,-0.08086 -0.36109,-0.154507 -0.54982,-0.22772 -0.0435,-0.01614 -0.0858,-0.03377 -0.13054,-0.0485 -0.0882,-0.03235 -0.17935,-0.06174 -0.26956,-0.08968 -0.067,-0.02202 -0.13304,-0.04412 -0.2017,-0.06472 -0.0894,-0.02648 -0.18099,-0.05289 -0.2732,-0.08086 -0.0611,-0.01764 -0.12158,-0.03378 -0.18335,-0.0485 -0.1,-0.02648 -0.20122,-0.05289 -0.30331,-0.07788 -0.067,-0.01614 -0.13584,-0.03235 -0.20452,-0.04849 -0.10114,-0.02202 -0.20334,-0.04412 -0.30696,-0.06464 -0.0694,-0.0141 -0.14142,-0.02648 -0.21263,-0.04114 -0.10114,-0.01912 -0.2017,-0.03824 -0.30531,-0.05587 -0.0259,-0.0048 -0.0518,-0.0081 -0.0776,-0.01175 -0.32483,-0.05289 -0.66001,-0.101434 -1.00884,-0.142597 v 0 c -0.44044,-0.05289 -0.89875,-0.0941 -1.37842,-0.12937 h -0.0235 -0.02 c -0.39199,0.02797 -0.76457,0.06472 -1.13045,0.105848 -0.002,0 -0.002,0 -0.004,0 -1.67917,0.183028 -3.08614,0.498951 -4.25748,1.023484 -0.0329,0.0141 -0.0659,0.02789 -0.0988,0.04411 -0.087,0.03973 -0.17159,0.08085 -0.2558,0.126431 -0.0553,0.02797 -0.11172,0.05587 -0.1663,0.08526 -0.0694,0.03824 -0.13818,0.07788 -0.20616,0.114671 -0.0635,0.03675 -0.12554,0.0735 -0.18747,0.114662 -0.0635,0.03824 -0.12525,0.07788 -0.18699,0.11761 -0.0647,0.04412 -0.12775,0.08526 -0.18982,0.129371 -0.0529,0.03824 -0.10702,0.07788 -0.15854,0.114663 -0.0741,0.05586 -0.14554,0.114671 -0.2171,0.174941 -0.0388,0.03235 -0.0788,0.06472 -0.11643,0.09703 -0.0988,0.08526 -0.19558,0.174941 -0.28956,0.26844 -0.007,0.0071 -0.0141,0.01293 -0.0212,0.01912 -0.002,0.0016 -0.002,0.0023 -0.003,0.0031 -0.10819,0.105842 -0.21345,0.215514 -0.31507,0.333413 -0.81807,0.929396 -1.40864,2.122053 -1.83813,3.637075 z m 4.24723,-11.19021 c 3.37973,-1.67032 7.41681,-1.64024 10.8709,-0.05587 l 2.80827,-7.505529 c -5.1345,-1.908185 -11.33571,-2.035456 -16.33264,-0.09409 z m 15.43445,-1.663369 1.82785,-3.155661 -2.99516,-1.926881 -1.18728,3.175962 c 0.7466,0.653456 1.6898,1.280751 2.35459,1.90658 z m -19.68107,0 c 0.93957,-0.657422 0.38705,-0.304891 2.30931,-1.373068 l -1.28592,-3.711464 -2.89181,1.85981 z m 22.3944,-3.514686 2.47503,-3.623638 -0.16385,-0.280499 c -0.88009,-1.503613 -2.5111,-2.956413 -4.23998,-3.375223 l -0.28666,-0.06911 -0.13378,0.30902 c -0.28098,0.645371 -0.92936,2.409112 -1.65243,4.399657 1.25466,1.027595 2.83915,1.628179 4.00167,2.641437 z m -25.10772,0 c 1.10915,-0.993787 2.63714,-1.858565 3.93574,-2.694555 l 0.10706,0.166714 C 20.74701,18.266854 20.08171,16.455036 19.7946,15.795483 l -0.13378,-0.30902 -0.28578,0.0691 c -1.72884,0.418387 -3.35979,1.87201 -4.23992,3.375632 l -0.16383,0.280498 z m 17.2466,-4.335539 0.6478,-2.204182 c -2.61914,-0.574955 -8.35583,-0.474105 -10.76746,0.05289 l 0.62062,2.077752 -0.008,-0.03973 c 2.64519,-0.588337 6.77034,-0.539969 9.50694,0.114671 z m 1.40928,-2.89948 1.10325,-3.483767 -0.4062,-0.174942 c -4.41117,-1.854513 -10.00951,-1.776457 -13.70339,0 l -0.40621,0.231834 1.10328,3.426021 c 3.21135,-0.467931 8.26859,-0.822224 12.3098,0 z" />
</svg>
