<?xml version="1.0" encoding="UTF-8" standalone="no"?>
<svg
   viewBox="0 0 60 60"
   version="1.1"
   id="svg11"
   sodipodi:docname="1NG.svg"
   inkscape:version="1.3 (0e150ed6c4, 2023-07-21)"
   xmlns:inkscape="http://www.inkscape.org/namespaces/inkscape"
   xmlns:sodipodi="http://sodipodi.sourceforge.net/DTD/sodipodi-0.dtd"
   xmlns="http://www.w3.org/2000/svg"
   xmlns:svg="http://www.w3.org/2000/svg">
  <sodipodi:namedview
     id="namedview11"
     pagecolor="#ffffff"
     bordercolor="#666666"
     borderopacity="1.0"
     inkscape:showpageshadow="2"
     inkscape:pageopacity="0.0"
     inkscape:pagecheckerboard="0"
     inkscape:deskcolor="#d1d1d1"
     inkscape:zoom="7.5333332"
     inkscape:cx="-77.920355"
     inkscape:cy="72.743364"
     inkscape:window-width="3840"
     inkscape:window-height="2054"
     inkscape:window-x="-11"
     inkscape:window-y="-11"
     inkscape:window-maximized="1"
     inkscape:current-layer="svg11"
     showgrid="false" />
  <defs
     id="defs2">
    <filter
       id="1GI_svg__a"
       color-interpolation-filters="sRGB"
       x="-0.12046379"
       y="-0.3172505"
       width="1.4918938"
       height="2.0310641">
      <feFlood
         flood-color="#000"
         flood-opacity=".498"
         result="flood"
         id="feFlood1" />
      <feComposite
         in="flood"
         in2="SourceGraphic"
         operator="in"
         result="composite1"
         id="feComposite1" />
      <feGaussianBlur
         in="composite1"
         result="blur"
         stdDeviation="1"
         id="feGaussianBlur1" />
      <feOffset
         dx="5"
         dy="3"
         result="offset"
         id="feOffset1" />
      <feComposite
         in="SourceGraphic"
         in2="offset"
         result="composite2"
         id="feComposite2" />
    </filter>
    <filter
       id="0GI_svg__a"
       color-interpolation-filters="sRGB"
       x="-0.039077128"
       y="-0.031849247"
       width="1.1595649"
       height="1.1035101">
      <feFlood
         flood-color="#000"
         flood-opacity=".498"
         result="flood"
         id="feFlood1-9" />
      <feComposite
         in="flood"
         in2="SourceGraphic"
         operator="in"
         result="composite1"
         id="feComposite1-9" />
      <feGaussianBlur
         in="composite1"
         result="blur"
         stdDeviation="1"
         id="feGaussianBlur1-6" />
      <feOffset
         dx="5"
         dy="3"
         result="offset"
         id="feOffset1-0" />
      <feComposite
         in="SourceGraphic"
         in2="offset"
         result="composite2"
         id="feComposite2-8" />
    </filter>
  </defs>
  <g
     id="path2"
     transform="matrix(0.72,0,0,0.72,-233.00883,-132.92581)"
     style="opacity:0.99">
    <path
       style="color:#000000;fill:#e5e5e5;fill-opacity:0.988235;-inkscape-stroke:none"
       d="M 365.291,259.49 385.694,253.409 396,189.803 h -61.417 l 10.685,63.606 z"
       id="path1" />
    <path
       style="color:#000000;fill:#8b8b8b;fill-opacity:0.988235;-inkscape-stroke:none"
       d="m 333.99219,189.30273 10.83398,64.49414 20.46289,6.21485 0.14453,-0.043 20.70313,-6.16992 10.45117,-64.4961 z m 1.18164,1 h 60.23828 l -10.16211,62.7168 -19.95703,5.94922 -19.58399,-5.94727 z"
       id="path5" />
  </g>
  <path
     fill="url(#1GI_svg__linearGradient29775)"
     d="m 30.212881,53.885536 0.983781,1.255832 14.7971,-4.489979 -0.683577,-1.233137 z"
     id="path3"
     style="opacity:0.99;stroke-width:0.774105" />
  <path
     fill="#8b8b8b"
     fill-opacity="0.992"
     d="m 15.584128,52.250268 -0.318117,-2.442334 14.734677,4.099054 15.008919,-4.097664 -0.318759,2.440944 -14.69016,4.3776 z"
     id="path4"
     sodipodi:nodetypes="ccccccc"
     style="opacity:0.99;stroke-width:0.72" />
  <path
     style="fill:#a5a5a5;fill-opacity:0.988235;stroke:none;stroke-width:1.2px;stroke-linecap:butt;stroke-linejoin:miter;stroke-opacity:1"
     d="m 15.901634,49.249654 0.359318,2.457146 13.740216,4.252027 13.926119,-4.280186 0.443881,-2.430391 -14.369061,4.283438 z"
     id="path6" />
  <path
     id="path2-8"
     style="fill:#c32e16;fill-opacity:0.992157;stroke-width:1.20001"
     d="m 29.99074,48.884489 0.363281,-0.506251 c 1.057205,-1.478384 2.09461,-3.278668 3.724219,-3.989061 l 0.682031,-0.295313 -0.578906,-0.471093 c -0.825373,-0.667166 -1.418345,-1.730015 -1.825781,-3.084376 1.389301,-0.833288 2.322655,-2.376711 2.322656,-4.122656 0,-0.02986 -0.0018,-0.05933 -0.0024,-0.08906 3.51e-4,-0.0237 0.0047,-0.04654 0.0047,-0.07031 3.4e-5,-0.07999 -0.0047,-0.158282 -0.0094,-0.236719 0.498464,-0.366179 0.984132,-0.765534 1.457813,-1.190625 0.285666,0.140472 0.538849,0.29144 0.752344,0.454688 0.02447,0.01922 0.05382,0.03683 0.07734,0.05624 0.184661,0.152421 0.367574,0.343741 0.550781,0.560156 0.120013,0.141679 0.240235,0.292097 0.358594,0.457031 0.01363,0.01901 0.02623,0.03462 0.03984,0.0539 0.62206,0.880639 1.215196,2.053485 1.720313,3.276563 v 0.0024 c 0.126042,0.305276 0.246718,0.613556 0.360937,0.921093 v 0.0024 c 0.11418,0.307517 0.222894,0.614255 0.323438,0.916407 v 0.0024 c 0.0074,0.02233 0.01373,0.04334 0.0211,0.06563 0.501271,1.450395 0.860347,2.940496 1.2,4.434374 7.4e-5,3.72e-4 0.0047,0.02578 0.0047,0.02578 v 0.0024 l 1.78125,1.214062 c 0,0 0.05148,-2.444086 0.0586,-3.986719 0.002,-0.373676 0.0031,-0.730849 -0.0024,-1.155469 -0.0074,-0.54442 -0.02144,-1.121454 -0.04687,-1.720311 -0.0037,-0.08972 -0.0028,-0.167287 -0.0071,-0.257813 -0.07656,-1.620473 -0.206064,-3.34744 -0.508594,-4.93125 -0.0483,-0.252869 -0.101556,-0.500964 -0.159374,-0.745313 -0.02518,-0.106404 -0.05022,-0.211905 -0.07734,-0.316406 -0.07088,-0.273151 -0.149141,-0.538835 -0.234376,-0.796875 -0.238679,-0.722473 -0.533128,-1.384846 -0.907031,-1.942969 -0.173527,-0.259022 -0.364601,-0.502489 -0.567187,-0.735937 -0.101076,-0.116472 -0.206591,-0.22944 -0.314063,-0.339844 -0.107388,-0.110316 -0.217261,-0.218991 -0.330469,-0.323437 -0.102456,-0.09454 -0.20727,-0.186681 -0.314063,-0.276563 -0.02034,-0.01715 -0.04045,-0.03457 -0.06094,-0.05156 -0.07922,-0.06556 -0.160071,-0.129073 -0.241406,-0.192187 -0.05689,-0.04421 -0.113232,-0.08821 -0.171094,-0.13125 -0.04945,-0.03674 -0.09989,-0.07192 -0.15,-0.107808 -0.227193,-0.162907 -0.461835,-0.31788 -0.700781,-0.464063 -0.02315,-0.01416 -0.04472,-0.03052 -0.06797,-0.04453 0.02064,0.0073 0.06582,0.02392 0.08437,0.03047 2.788809,-5.94357 6.57164,-4.023597 8.83125,-7.150782 L 47.667127,21.31284 47.46322,20.963621 c -2.732216,-4.668542 -5.485905,-7.59764 -6.646874,-4.359375 -0.004,0 -0.007,-0.0014 -0.0094,-0.0047 l -4.110937,11.235937 c -0.02908,-0.01243 -0.05765,-0.02287 -0.08672,-0.03516 -0.290819,-0.122445 -0.581568,-0.236335 -0.871875,-0.342187 -0.05772,-0.02122 -0.11574,-0.04752 -0.173437,-0.06797 l 0.616407,-1.966406 c -0.410405,-0.1464 -1.081122,-0.382313 -2.053127,-0.670313 -1.387208,-0.412793 -3.077338,-0.815624 -4.127343,-0.815624 -1.052403,0 -2.750598,0.402831 -4.141406,0.815624 -0.693558,0.203128 -1.3796,0.427135 -2.060157,0.670313 l 0.61875,1.975782 c -0.02179,0.0078 -0.04381,0.01792 -0.06563,0.02578 -0.338508,0.121697 -0.677858,0.256513 -1.01719,0.400781 -0.01616,0.0068 -0.03306,0.01188 -0.04922,0.01876 l -4.174219,-11.4375 c -1.082944,-3.016902 -3.845641,-0.09673 -6.571874,4.55625 l -0.206096,0.346652 0.234375,0.321094 c 2.258412,3.127177 6.038947,1.203787 8.826564,7.14375 v 0.0024 c 0.02874,-0.01008 0.09344,-0.03293 0.126563,-0.04453 -0.01508,0.009 -0.02948,0.01904 -0.04453,0.02813 -0.252578,0.15253 -0.500871,0.314142 -0.740625,0.485156 -0.05196,0.03703 -0.103428,0.07457 -0.154687,0.1125 -0.06424,0.04758 -0.126802,0.09629 -0.189844,0.145313 -0.06935,0.05387 -0.13843,0.10842 -0.206251,0.164063 -0.05095,0.04187 -0.09996,0.08602 -0.15,0.128906 -0.07242,0.06197 -0.145232,0.123356 -0.215624,0.1875 -0.03918,0.03576 -0.07632,0.07372 -0.11484,0.11016 -0.08586,0.08112 -0.170733,0.161515 -0.253126,0.246094 l -0.0047,0.0047 c -0.0054,0.0055 -0.01104,0.0108 -0.0164,0.0164 -0.09866,0.102012 -0.19505,0.206895 -0.288281,0.314061 -0.0029,0.0034 -0.0065,0.006 -0.0094,0.0094 -0.0145,0.01673 -0.02783,0.03472 -0.04219,0.05156 -0.08603,0.100944 -0.169923,0.203788 -0.25078,0.309375 -0.0938,0.122458 -0.185512,0.246159 -0.271876,0.375 v 0.0024 c -0.0878,0.131064 -0.173486,0.266257 -0.253124,0.407812 v 0.0024 c -0.07961,0.141591 -0.155471,0.289422 -0.227344,0.440626 v 0.0024 c -0.07184,0.151238 -0.139357,0.306436 -0.203906,0.466406 v 0.0024 c -0.06452,0.160013 -0.127492,0.324321 -0.185157,0.492188 v 0.0024 c -0.0031,0.0092 -0.0062,0.01886 -0.0094,0.02813 -0.108636,0.319252 -0.206645,0.650988 -0.292968,0.99375 -0.0024,0.0095 -0.0047,0.01865 -0.0071,0.02813 v 0.0024 c -0.0026,0.0108 -0.0043,0.02204 -0.0071,0.03281 -0.08478,0.342877 -0.159277,0.694756 -0.225,1.054687 -0.0019,0.01032 -0.0052,0.02012 -0.0071,0.03047 v 0.0024 c -0.06911,0.38204 -0.126941,0.773039 -0.178125,1.167187 v 0.0024 c -0.05116,0.394177 -0.09451,0.791406 -0.13125,1.190626 v 0.0024 c -0.03671,0.399223 -0.06794,0.800458 -0.09376,1.197656 v 0.0024 c -0.02578,0.397171 -0.04727,0.790829 -0.06563,1.178906 v 0.0024 c -1.14e-4,0.0024 1.12e-4,0.0047 0,0.0071 -0.03643,0.772536 -0.05401,1.517308 -0.06094,2.200782 -1.5e-5,0.0016 1.5e-5,0.0032 0,0.0047 v 0.0024 c -0.02069,2.062294 0.06094,4.903125 0.06094,4.903125 l 1.78125,-1.214062 c 0,0 -9e-6,-0.0047 0,-0.0047 l 0.0024,0.0024 c 0,0 0.419954,-2.105413 1.22578,-4.528125 0.100476,-0.301918 0.207002,-0.609136 0.321094,-0.916407 l 0.0024,-0.0024 c 0.114132,-0.307273 0.232661,-0.616081 0.358594,-0.921093 0.07127,-0.172818 0.14806,-0.340749 0.222656,-0.510938 0.0576,-0.131258 0.114024,-0.264786 0.173438,-0.39375 v -0.0024 c 0.136101,-0.295344 0.277581,-0.582331 0.421875,-0.860156 v -0.0024 c 0.144303,-0.277763 0.29229,-0.544255 0.442969,-0.796876 v -0.0024 c 0.150679,-0.252531 0.304135,-0.490388 0.459374,-0.710156 l 0.0024,-0.0024 c 0.144626,-0.204877 0.291179,-0.390143 0.438282,-0.560156 0.01104,-0.01271 0.0218,-0.02735 0.03281,-0.03984 v -0.0024 c 0.07879,-0.08935 0.157584,-0.172892 0.236718,-0.250781 0.07952,-0.07828 0.159417,-0.149885 0.239063,-0.215626 0.02424,-0.02 0.05238,-0.03881 0.07734,-0.0586 0.213331,-0.166663 0.453727,-0.321803 0.717187,-0.466406 0.485891,0.43745 0.982972,0.848073 1.495313,1.223437 -0.0041,0.07277 -0.0071,0.143833 -0.0071,0.217969 1e-6,0.0079 0.0023,0.01548 0.0024,0.02344 -0.0013,0.0453 -0.0047,0.09035 -0.0047,0.135937 0,1.738678 0.926525,3.275237 2.306251,4.110939 -0.407389,1.359995 -1.000369,2.427002 -1.828125,3.096093 l -0.581002,0.471 0.682031,0.295312 c 1.62961,0.710409 2.669358,2.510694 3.726562,3.989078 z m 11.451561,-9.353905 c -0.798493,-2.132619 -1.789956,-4.300767 -3.3375,-5.578126 -2.345484,-1.935987 -6.300354,-2.702343 -8.327344,-2.702343 -2.026988,0 -5.587047,0.808042 -7.882031,2.702343 -1.547544,1.277359 -2.539005,3.445507 -3.3375,5.578126 0.188187,-2.821365 0.67323,-5.862792 1.504688,-7.103907 1.024807,-1.529726 3.066571,-2.678797 5.107032,-3.386719 2.040464,-0.707917 4.105596,-0.986718 4.830468,-0.986719 0.724872,0 2.790003,0.278802 4.830469,0.986719 2.040459,0.707922 4.082223,1.856993 5.107031,3.386719 0.831457,1.241115 1.3165,4.282542 1.504687,7.103907 z M 30.000114,39.392302 c -1.587381,0 -2.878125,-1.30918 -2.878125,-2.976563 0,-1.667382 1.290744,-2.978905 2.878125,-2.978905 1.58738,0 2.878125,1.311523 2.878125,2.978905 0,1.667383 -1.290745,2.976563 -2.878125,2.976563 z m 6.46875,-14.8875 2.627343,-8.378907 c -2.488812,-1.064392 -6.474079,-2.592074 -9.096093,-2.596874 -2.612414,-0.0036 -6.583692,1.487725 -9.128907,2.561718 l 2.639063,8.414063 c 0.434405,-0.1548 1.108216,-0.3894 2.074219,-0.675 1.425607,-0.422393 3.131617,-0.853125 4.415625,-0.853125 1.278007,0 2.979554,0.433076 4.401562,0.855468 0.960004,0.2844 1.631583,0.517857 2.067188,0.672657 z M 35.533707,13.306365 c 0.376,-1.786769 0.75337,-3.5756631 1.129689,-5.3625001 -4.087835,-3.18196 -9.195718,-2.842101 -13.326563,0 l 1.197656,5.3625001 c 1.760821,-0.98756 3.506163,-1.194702 5.524218,-1.25625 1.658135,0.02548 3.924862,0.358239 5.475,1.25625 z" />
</svg>
