<?xml version="1.0" encoding="UTF-8" standalone="no"?>
<svg
   viewBox="0 0 60 60"
   version="1.1"
   id="svg8"
   sodipodi:docname="1NK.svg"
   xml:space="preserve"
   inkscape:version="1.3 (0e150ed6c4, 2023-07-21)"
   xmlns:inkscape="http://www.inkscape.org/namespaces/inkscape"
   xmlns:sodipodi="http://sodipodi.sourceforge.net/DTD/sodipodi-0.dtd"
   xmlns="http://www.w3.org/2000/svg"
   xmlns:svg="http://www.w3.org/2000/svg"><sodipodi:namedview
     id="namedview8"
     pagecolor="#ffffff"
     bordercolor="#666666"
     borderopacity="1.0"
     inkscape:showpageshadow="2"
     inkscape:pageopacity="0.0"
     inkscape:pagecheckerboard="0"
     inkscape:deskcolor="#d1d1d1"
     inkscape:zoom="10.653742"
     inkscape:cx="-15.205925"
     inkscape:cy="41.300043"
     inkscape:window-width="3840"
     inkscape:window-height="2054"
     inkscape:window-x="-11"
     inkscape:window-y="-11"
     inkscape:window-maximized="1"
     inkscape:current-layer="g8" /><defs
     id="defs2"><filter
       id="1KE_svg__a"
       color-interpolation-filters="sRGB"
       x="-0.060910088"
       y="-0.25712504"
       width="1.2487162"
       height="1.8356564"><feFlood
         flood-color="#000"
         flood-opacity=".498"
         result="flood"
         id="feFlood1" /><feComposite
         in="flood"
         in2="SourceGraphic"
         operator="in"
         result="composite1"
         id="feComposite1" /><feGaussianBlur
         in="composite1"
         result="blur"
         stdDeviation="1"
         id="feGaussianBlur1" /><feOffset
         dx="5"
         dy="3"
         result="offset"
         id="feOffset1" /><feComposite
         in="SourceGraphic"
         in2="offset"
         result="composite2"
         id="feComposite2" /></filter></defs><g
     opacity=".99"
     id="g8"><g
       id="path2"
       transform="matrix(0.72,0,0,0.72,-291.45961,-134.30273)"><path
         style="color:#000000;fill:#ffd19e;-inkscape-stroke:none"
         d="m 446.47,260.22 19.26,-5.911 10.27,-61.413 h -59.055 l 10.266,61.384 z"
         id="path1" /><path
         style="color:#000000;fill:#b3926f;fill-opacity:0.992157;-inkscape-stroke:none"
         d="m 416.35352,192.39648 10.41601,62.26954 19.69922,6.07617 0.14844,-0.0449 19.55468,-6 10.41797,-62.30079 z m 1.18164,1 h 57.875 l -10.12305,60.52539 -18.81641,5.7754 -18.81836,-5.80469 z"
         id="path4" /></g><path
       fill="#c3983c"
       fill-opacity=".992"
       d="m 16.131588,51.500466 -0.317139,-2.443666 14.184339,3.998866 14.185346,-3.976351 -0.318146,2.442031 -13.8672,4.25592 z"
       id="path3"
       style="fill:#b3926f;fill-opacity:1;stroke-width:0.72"
       sodipodi:nodetypes="ccccccc" /><path
       style="fill:#c4a279;fill-opacity:0.984314;stroke:none;stroke-width:1.2px;stroke-linecap:butt;stroke-linejoin:miter;stroke-opacity:1"
       d="m 16.450072,48.499924 0.3697,2.507575 13.17952,3.96239 13.123578,-4.061947 0.424237,-2.38693 -13.547815,4.158288 z"
       id="path5" /><path
       id="path7388-6-4"
       style="color:#000000;font-style:normal;font-variant:normal;font-weight:normal;font-stretch:normal;font-size:medium;line-height:normal;font-family:sans-serif;font-variant-ligatures:normal;font-variant-position:normal;font-variant-caps:normal;font-variant-numeric:normal;font-variant-alternates:normal;font-variant-east-asian:normal;font-feature-settings:normal;font-variation-settings:normal;text-indent:0;text-align:start;text-decoration:none;text-decoration-line:none;text-decoration-style:solid;text-decoration-color:#000000;letter-spacing:normal;word-spacing:normal;text-transform:none;writing-mode:lr-tb;direction:ltr;text-orientation:mixed;dominant-baseline:auto;baseline-shift:baseline;text-anchor:start;white-space:normal;shape-padding:0;shape-margin:0;inline-size:0;clip-rule:nonzero;display:inline;overflow:visible;visibility:visible;opacity:0.99;isolation:auto;mix-blend-mode:normal;color-interpolation:sRGB;color-interpolation-filters:linearRGB;solid-color:#000000;solid-opacity:1;vector-effect:none;fill:#ce2b06;fill-opacity:1;fill-rule:nonzero;stroke:none;stroke-width:0.669659;stroke-linecap:butt;stroke-linejoin:miter;stroke-miterlimit:4;stroke-dasharray:none;stroke-dashoffset:0;stroke-opacity:1;color-rendering:auto;image-rendering:auto;shape-rendering:auto;text-rendering:auto;enable-background:accumulate;stop-color:#000000"
       d="m 40.967953,47.850347 -0.08819,-0.775578 c 0,0 -0.06932,-0.63999 -0.273601,-1.347652 -0.15796,-0.547219 -0.353932,-1.187805 -0.818539,-1.621253 0.328149,-0.698136 0.495193,-1.516384 0.495193,-2.410398 0,-0.834528 -0.141735,-1.605566 -0.427359,-2.272466 v -0.0023 c 0.04432,-0.10236 0.07502,-0.200648 0.09497,-0.302996 0.01967,-0.100992 0.03174,-0.205702 0.0407,-0.316564 0.03768,-0.466061 -0.003,-1.0449 -0.137931,-1.652908 -0.05497,-0.247621 -0.12739,-0.498234 -0.217071,-0.746182 0.511864,-1.427224 0.799032,-2.800173 0.712266,-4.296206 1.75538,-1.967636 3.316668,-4.072615 4.332383,-6.521187 l 0.01128,-0.02486 0.0044,-0.02486 c 0.290093,-1.215514 0.567397,-2.509631 0.06104,-3.825885 L 44.714534,21.593744 44.04297,21.222913 C 43.651135,20.41098 43.370775,19.845277 42.887517,19.504432 42.461438,19.203557 41.92544,19.145602 41.193908,19.208219 l -2.261161,3.179192 -0.908987,-0.646692 2.145841,-3.016388 -0.176371,-0.42736 -0.293949,0.09497 c -1.49505,0.481421 -2.291219,1.169825 -2.855848,2.012433 -0.549336,0.819772 -0.912606,1.763097 -1.609946,2.860368 -2.212702,1.024558 -3.21881,1.564899 -5.413218,2.387785 l -0.02714,0.009 0.06784,0.03844 c -0.3126,0.545553 -0.656867,1.765545 -0.870548,2.898807 -0.107568,0.566654 -0.189028,1.119159 -0.237422,1.571507 -0.04811,0.452556 -0.05741,0.830299 -0.04748,0.936121 l -1.112491,0.106272 c -0.02971,-0.301375 -0.0013,-0.675289 0.05201,-1.162237 0.05236,-0.486798 0.135939,-1.062084 0.248726,-1.657431 0.20986,-1.11489 0.494635,-2.269287 0.91351,-3.081962 l -0.05653,-0.260034 c 0,-0.02278 -0.01864,-0.345774 -0.02714,-0.734876 -0.0089,-0.402655 0.0067,-0.893977 0.02261,-0.970039 l 0.0044,-0.02261 v -0.02035 c 0.09034,-1.375698 0.947017,-3.018841 1.973993,-4.391175 -2.090108,-1.429498 -4.80361,-2.411934 -7.509315,-2.622945 -1.439556,-0.112272 -2.863693,-0.012 -4.198975,0.330128 0.604757,3.950398 0.481046,8.316102 0.940643,11.990935 0.562721,3.343467 1.659233,4.850213 4.076873,6.892018 0.308779,0.260759 0.933102,0.680843 1.501411,0.9723 0.283728,0.145784 0.558105,0.261584 0.755227,0.318823 0.197131,0.0573 0.312228,0.0064 0.171848,0.06104 l 0.538152,1.370332 c -0.222595,0.08702 -0.416373,0.109116 -0.599208,0.09497 h -0.0023 c -0.182548,-0.01442 -0.350822,-0.06409 -0.520066,-0.113064 -0.337505,-0.09834 -0.678051,-0.2464 -1.017522,-0.420576 -0.679115,-0.348319 -1.338952,-0.785634 -1.779534,-1.157713 -2.543223,-2.147868 -3.975189,-4.170363 -4.581112,-7.785177 l -0.0023,-0.01583 -0.0023,-0.01356 c -0.471242,-3.749862 -0.422545,-8.014077 -0.933859,-11.708289 -0.907518,0.382628 -1.75566,0.89674 -2.512151,1.562461 0.429109,2.485247 0.573794,5.207605 0.696438,9.917453 v 0.0044 0.0068 c 0.180499,2.734884 1.644912,5.935653 3.938944,8.440914 2.24725,2.454066 5.321439,4.217629 8.780085,4.119835 0.138892,1.085091 -2.596493,0.908865 -3.972859,1.105707 1.018832,0.784022 3.392375,1.919701 4.877324,2.313168 -0.03932,0.09062 -0.03344,0.07528 -0.06784,0.153757 -0.165921,0.379998 -0.278121,0.630864 -0.278121,0.630864 l -0.549462,1.209722 1.259466,-0.420576 c 0.188079,-0.06269 0.369816,-0.115272 0.5472,-0.162801 0.140549,-0.03762 0.279305,-0.07116 0.413792,-0.09724 0.120533,-0.02334 0.241161,-0.04382 0.357265,-0.05653 0.136631,-0.01495 0.269097,-0.0221 0.400226,-0.02035 0.115008,0.0014 0.22791,0.01116 0.339172,0.02714 0.02939,0.0042 0.05904,0.0083 0.08819,0.01356 0.112176,0.02024 0.223478,0.04673 0.33239,0.08366 0.122284,0.04151 0.240964,0.09397 0.359652,0.158371 0.118692,0.06442 0.236843,0.141131 0.352742,0.230638 l 0.04974,0.03844 0.05653,0.02714 c 0.157635,0.07474 0.314722,0.132006 0.47032,0.17411 0.01,0.0026 0.01946,0.0065 0.0294,0.009 0.06443,0.01655 0.12853,0.03018 0.1922,0.0407 0.009,0.0016 0.01817,0.0031 0.02714,0.0044 0.0053,8.18e-4 0.01044,0.0014 0.01583,0.0023 0.07314,0.01044 0.145338,0.01823 0.217071,0.02035 0.08174,0.0024 0.162495,-0.0023 0.241944,-0.01128 0.01885,-0.0022 0.03782,-0.004 0.05653,-0.0068 0.0804,-0.012 0.160053,-0.02978 0.237423,-0.05426 0.11418,-0.03614 0.220365,-0.0841 0.318823,-0.142452 0.09846,-0.05836 0.187825,-0.125825 0.271339,-0.201244 l 0.0023,-0.0023 c 0.0826,-0.07484 0.159673,-0.157708 0.228378,-0.244207 0.06936,-0.08732 0.131686,-0.179532 0.187676,-0.2736 l 0.17411,-0.293951 -0.17411,-0.296213 c 0,0 -0.10164,-0.17128 -0.248727,-0.449969 -0.07354,-0.139347 -0.159313,-0.305613 -0.248728,-0.490674 -0.08941,-0.185058 -0.18225,-0.388926 -0.273601,-0.60373 -0.06055,-0.142373 -0.11598,-0.291665 -0.169588,-0.440925 -0.01794,-0.04981 -0.03725,-0.09914 -0.05426,-0.149238 -0.05347,-0.15806 -0.102396,-0.317535 -0.144714,-0.472583 -0.09601,-0.351815 -0.16026,-0.684949 -0.17637,-0.951947 l 0.194441,0.02714 0.791406,0.933859 c 0.07597,0.624987 0.240231,1.202748 0.497457,1.709437 0.237754,0.46835 0.601455,0.934625 1.096663,1.207462 l -0.03844,2.145842 0.784622,-0.271339 c 0.62977,-0.219302 0.914833,-0.177546 1.259471,-0.0701 0.344639,0.107448 0.767402,0.350884 1.404182,0.46806 z m -1.429052,-1.57829 c -0.133022,-0.05242 -0.239186,-0.08617 -0.397966,-0.13567 -0.307358,-0.09582 -0.783318,0.01208 -1.205198,0.0475 l 0.009,-0.526852 c 0.450963,-0.05345 0.825109,-0.257946 1.128319,-0.538156 0.14786,0.228067 0.316455,0.568633 0.420577,0.929338 0.03337,0.115572 0.01966,0.114972 0.04523,0.223854 z m -5.469748,-0.784622 c -0.10938,0.0088 -0.269448,-0.02021 -0.50876,-0.128889 -0.953553,-0.69608 -2.014929,-0.689776 -3.05709,-0.504238 0.149037,-0.340535 0.187958,-0.411153 0.39344,-0.911247 0.428183,-1.042077 0.893405,-2.24315 1.065007,-3.079702 0.176347,-0.859675 0.22974,-1.81038 0.388921,-2.6139 0.158204,-0.798599 0.413393,-1.385628 0.834368,-1.671 0.02629,-0.0049 0.328822,-0.149531 0.657998,-0.266815 0.376201,-0.134043 0.855536,-0.289668 1.340868,-0.434144 0.485334,-0.144475 0.979627,-0.277903 1.377046,-0.366307 0.397422,-0.0884 0.775676,-0.101376 0.698698,-0.113064 0.367191,0.05574 0.649673,0.267088 0.904466,0.630864 0.254791,0.363775 0.447554,0.870481 0.558507,1.370263 0.05066,0.228254 0.03271,0.387219 0.05201,0.596948 -0.21716,-0.148571 -0.422376,-0.311481 -0.673826,-0.411533 -0.773135,-0.307626 -1.749492,-0.371256 -2.537023,0.187676 -0.576448,0.409127 -1.121267,0.946944 -1.562462,1.503673 -0.441194,0.556727 -0.784146,1.109139 -0.906724,1.677782 -0.220141,1.021215 0.197755,2.132013 0.596944,3.070655 0.304704,0.716481 0.50153,1.039501 0.639907,1.284339 -0.05304,0.0452 -0.11238,0.142329 -0.162803,0.158283 -0.02813,0.0089 -0.06115,0.01727 -0.09949,0.02035 z m 3.647251,-0.922555 a 1.4568599,2.8697837 0 0 1 -1.458447,-2.869414 1.4568599,2.8697837 0 0 1 1.458447,-2.869412 1.4568599,2.8697837 0 0 1 1.456188,2.869412 1.4568599,2.8697837 0 0 1 -1.456188,2.869414 z m -2.546066,-9.888056 c 0.12873,-0.537366 0.219913,-1.026262 0.479365,-1.462971 0.162455,-0.273974 0.430306,-0.517992 0.768796,-0.64217 0.338625,-0.123825 0.725347,-0.14793 1.202937,-0.110796 l 0.626343,0.04748 -0.185416,0.599207 c -0.189409,0.615868 -0.439676,0.75308 -0.716789,1.137364 -0.08405,-0.0084 -0.16346,-0.01032 -0.241944,-0.0068 -0.0037,1.59e-4 -0.0076,-1.78e-4 -0.01128,0 -0.0044,2.34e-4 -0.009,0.0019 -0.01356,0.0023 -0.07261,0.0043 -0.146541,0.01068 -0.219333,0.02261 -0.0044,7.13e-4 -0.0091,0.0014 -0.01356,0.0023 -0.02496,0.0041 -0.05604,0.01331 -0.0814,0.0181 -0.140716,0.0271 -0.286294,0.0593 -0.456756,0.09722 -0.335871,0.07471 -0.716402,0.177629 -1.101184,0.287169 -0.01201,0.0035 -0.02416,0.0055 -0.03618,0.009 z m 7.050299,-9.119261 -0.64443,-0.68061 c 0.543108,-0.513897 0.973788,-0.838981 1.13284,-1.033351 0.07924,-0.09734 0.08761,-0.13217 0.09044,-0.171848 0.0026,-0.03977 -0.008,-0.126506 -0.09949,-0.296211 l 0.827586,-0.440927 c 0.141507,0.263209 0.2253,0.528347 0.205764,0.802712 -0.0198,0.274478 -0.147616,0.514029 -0.300734,0.70096 -0.305795,0.373786 -0.714858,0.648972 -1.211983,1.119275 z M 31.857738,17.577926 c 0.226723,-0.234368 0.451705,-0.452157 0.669303,-0.639908 2.349188,-1.791547 2.854865,-3.572309 3.185976,-6.385519 l 0.02486,-0.221592 -0.19672,-0.108528 C 29.906948,7.0954517 25.660055,6.2429287 22.161868,6.6339167 18.663705,7.0253057 15.945637,8.6511584 13.35917,10.380659 l -0.180894,0.122103 0.03844,0.214811 c 0.224588,1.284669 0.404257,2.216364 0.888642,3.990946 l 0.0023,0.0044 v 0.0044 c 0.214974,0.722371 0.390793,1.390937 0.549462,2.050872 0.810017,-0.589785 1.687227,-1.054009 2.607119,-1.40418 -0.229986,-1.108302 -0.529973,-2.144319 -0.945166,-3.066135 l 1.343129,-0.60599 c 0.451893,1.003216 0.780719,2.090933 1.033351,3.226676 1.510198,-0.37434 3.094163,-0.481309 4.65573,-0.359524 3.087289,0.240804 6.124552,1.332957 8.506495,3.018682 z" /></g></svg>
