<?xml version="1.0" encoding="UTF-8" standalone="no"?>
<svg
   viewBox="0 0 60 60"
   version="1.1"
   id="svg25"
   sodipodi:docname="1RY.svg"
   inkscape:version="1.3 (0e150ed6c4, 2023-07-21)"
   xmlns:inkscape="http://www.inkscape.org/namespaces/inkscape"
   xmlns:sodipodi="http://sodipodi.sourceforge.net/DTD/sodipodi-0.dtd"
   xmlns="http://www.w3.org/2000/svg"
   xmlns:svg="http://www.w3.org/2000/svg">
  <sodipodi:namedview
     id="namedview25"
     pagecolor="#ffffff"
     bordercolor="#666666"
     borderopacity="1.0"
     inkscape:showpageshadow="2"
     inkscape:pageopacity="0.0"
     inkscape:pagecheckerboard="0"
     inkscape:deskcolor="#d1d1d1"
     inkscape:zoom="5.3268711"
     inkscape:cx="46.556411"
     inkscape:cy="36.98231"
     inkscape:window-width="3840"
     inkscape:window-height="2054"
     inkscape:window-x="-11"
     inkscape:window-y="-11"
     inkscape:window-maximized="1"
     inkscape:current-layer="svg25" />
  <defs
     id="defs2">
    <filter
       id="1HI_svg__a"
       color-interpolation-filters="sRGB"
       x="-0.036952686"
       y="-0.031443196"
       width="1.1508901"
       height="1.1021904">
      <feFlood
         flood-color="#000"
         flood-opacity=".498"
         result="flood"
         id="feFlood1" />
      <feComposite
         in="flood"
         in2="SourceGraphic"
         operator="in"
         result="composite1"
         id="feComposite1" />
      <feGaussianBlur
         in="composite1"
         result="blur"
         stdDeviation="1"
         id="feGaussianBlur1" />
      <feOffset
         dx="5"
         dy="3"
         result="offset"
         id="feOffset1" />
      <feComposite
         in="SourceGraphic"
         in2="offset"
         result="composite2"
         id="feComposite2" />
    </filter>
    <filter
       id="0HI_svg__a"
       color-interpolation-filters="sRGB"
       x="-0.037629351"
       y="-0.030880877"
       width="1.1536532"
       height="1.1003629">
      <feFlood
         flood-color="#000"
         flood-opacity=".498"
         result="flood"
         id="feFlood1-4" />
      <feComposite
         in="flood"
         in2="SourceGraphic"
         operator="in"
         result="composite1"
         id="feComposite1-0" />
      <feGaussianBlur
         in="composite1"
         result="blur"
         stdDeviation="1"
         id="feGaussianBlur1-4" />
      <feOffset
         dx="5"
         dy="3"
         result="offset"
         id="feOffset1-4" />
      <feComposite
         in="SourceGraphic"
         in2="offset"
         result="composite2"
         id="feComposite2-0" />
    </filter>
    <filter
       id="0HI_svg__a-2"
       color-interpolation-filters="sRGB"
       x="-0.036952686"
       y="-0.030672713"
       width="1.1508901"
       height="1.0996863">
      <feFlood
         flood-color="#000"
         flood-opacity=".498"
         result="flood"
         id="feFlood1-3" />
      <feComposite
         in="flood"
         in2="SourceGraphic"
         operator="in"
         result="composite1"
         id="feComposite1-2" />
      <feGaussianBlur
         in="composite1"
         result="blur"
         stdDeviation="1"
         id="feGaussianBlur1-3" />
      <feOffset
         dx="5"
         dy="3"
         result="offset"
         id="feOffset1-7" />
      <feComposite
         in="SourceGraphic"
         in2="offset"
         result="composite2"
         id="feComposite2-4" />
    </filter>
  </defs>
  <g
     id="path2"
     transform="matrix(0.72,0,0,0.72,-56.320801,-134.04073)"
     style="opacity:0.99;fill-opacity:0.992">
    <path
       style="color:#000000;fill:#fbc7dc;fill-opacity:0.988235;-inkscape-stroke:none"
       d="m 119.89,262.22 21.701,-7.117 10.189,-64.931 H 88 l 10.176,64.814 z"
       id="path1" />
    <path
       id="path4"
       style="color:#000000;fill:#db7da2;fill-opacity:0.984314;-inkscape-stroke:none"
       d="m 87.416042,189.67029 10.3125,65.69336 0.445963,3.40169 21.715495,7.23307 21.70247,-7.11588 0.44597,-3.4017 10.32552,-65.81054 z m 1.168619,1.0026 h 62.610679 l -10.05208,64.04948 -21.25326,6.9694 -21.266276,-7.08333 z" />
  </g>
  <path
     style="fill:#e394b6;fill-opacity:0.976471;stroke:none;stroke-width:1.2px;stroke-linecap:butt;stroke-linejoin:miter;stroke-opacity:1"
     d="m 14.68828,49.277346 0.335718,2.318407 14.976001,4.982456 14.939848,-4.822249 0.362499,-2.396585 -15.302347,5.017968 z"
     id="path5"
     sodipodi:nodetypes="ccccccc" />
  <path
     id="path2-0"
     style="fill:#e13007;fill-opacity:1;stroke-width:1.03292"
     d="m 35.488307,48.824782 c -0.08724,-0.81521 -1.916508,-5.490102 0.395424,-4.93663 0.0276,0.0068 0.04992,0.0078 0.07668,0.01412 0.725664,0.524631 0.993132,1.783006 1.026864,1.912513 0.04548,0.175539 0.28362,0.379475 0.593112,0.564877 0.925308,0.551644 2.646972,0.658134 1.464648,-0.528564 -0.963984,-1.252374 -1.83438,-2.1392 -2.229252,-3.163318 l -0.0084,0.0041 c -0.171804,-0.899031 -0.623244,-2.217536 -0.8574,-3.068499 L 35.605007,38.13654 c -0.122952,-0.425002 -0.357012,-1.146624 -0.68592,-1.779366 -0.167088,-0.321792 -0.359076,-0.619841 -0.546732,-0.829159 -0.186744,-0.20503 -0.34728,-0.31077 -0.502332,-0.35305 -0.09324,0.10854 -0.160332,0.236604 -0.195696,0.37524 -0.1032,0.342342 -0.15516,0.867009 -0.175512,1.392022 -0.02028,0.525018 -0.0108,1.054855 -0.0024,1.434386 0.0036,0.187338 0.006,0.336946 0.0036,0.441816 0.839952,1.130725 1.156968,2.110543 1.569552,3.405408 -0.042,0.174511 -0.42348,0.162682 -0.671796,0.242092 -3.557752,1.139573 -0.621,5.188811 0.649608,6.136997 l -0.0024,0.0041 c 0.07464,0.05629 0.154992,0.104364 0.238056,0.147271 0.06336,0.0349 0.132252,0.05953 0.20376,0.07061 z m -10.978807,0 c 0.07151,-0.01104 0.140359,-0.03571 0.203759,-0.07061 0.08306,-0.04291 0.163417,-0.09098 0.238056,-0.147271 l -0.002,-0.0041 c 1.270612,-0.948186 4.207358,-4.997424 0.649609,-6.136997 -0.196271,-0.06277 -0.500187,-0.466759 -0.619348,-0.403485 0.387544,-1.212539 0.714024,-2.162921 1.517101,-3.244013 -0.0019,-0.104868 8.33e-4,-0.254479 0.0041,-0.441817 0.0083,-0.379531 0.01831,-0.909369 -0.002,-1.434387 -0.02035,-0.525013 -0.07232,-1.049679 -0.175515,-1.392021 -0.03535,-0.138636 -0.102492,-0.266699 -0.19569,-0.37524 -0.155051,0.04228 -0.315585,0.14802 -0.502338,0.353049 -0.187645,0.209319 -0.379642,0.507368 -0.546721,0.82916 -0.328916,0.632742 -0.562978,1.354364 -0.685923,1.779366 l -0.344981,1.48684 c -0.234153,0.850964 -0.685592,2.169468 -0.857403,3.0685 l -0.008,-0.0041 c -0.394863,1.024117 -1.265266,1.910944 -2.229251,3.163318 -1.182322,1.186698 0.539348,1.080207 1.464647,0.528564 0.309495,-0.185402 0.547602,-0.389337 0.593123,-0.564878 0.03372,-0.129506 0.301189,-1.387881 1.026867,-1.912516 0.0267,-0.0064 0.04909,-0.0073 0.07667,-0.01412 2.311923,-0.553472 0.482604,4.12142 0.395415,4.93663 z m 5.489406,-10.2828 2.459233,-0.59312 c -0.0048,-0.318785 -0.0072,-0.669082 0.0084,-1.047043 0.0216,-0.557266 0.06252,-1.100013 0.215868,-1.622008 0.07584,-0.286023 0.210756,-0.552255 0.403488,-0.776707 l 0.425676,-0.496286 0.631452,0.171481 c 0.404124,0.110196 0.727344,0.364465 0.99258,0.655663 l 0.0036,0.002 0.0024,0.0041 c 0.276444,0.308375 0.498564,0.660736 0.695988,1.040964 0.201912,0.388417 0.362508,0.78075 0.490236,1.135808 l 0.17148,-0.04237 v -0.002 c 0.510264,-1.352089 0.325068,-3.848391 0.09888,-5.606415 l -0.04032,-0.324804 0.302616,-0.123064 c 0.391476,-0.160103 0.895248,-0.358004 1.303248,-0.576983 0.406968,-0.216913 0.661428,-0.491185 0.673824,-0.536634 l 0.502332,-1.831819 c 0.05892,-0.218978 0.04188,-0.335408 0.02016,-0.39945 -0.02376,-0.06404 -0.05964,-0.101676 -0.141216,-0.153324 -0.131184,-0.0847 -0.374448,-0.145674 -0.623388,-0.213846 -0.405936,0.0041 -0.861372,0.02522 -1.337544,-0.01816 -0.583596,-0.05474 -1.20792,-0.227178 -1.660344,-0.734342 l -0.0444,-0.05245 -0.0282,-0.06456 c -0.176628,-0.415231 -0.28602,-0.863428 -0.39138,-1.295185 h 0.687948 c 0.324336,0.0092 3.821316,0.07766 5.917104,-2.677119 0.79122,-1.041181 1.549176,-1.810418 2.418888,-2.20706 0.37908,-0.173531 0.548364,-0.327871 0.865476,-0.369189 0.196248,-0.02582 0.543924,0.10002 0.835212,0.179552 l -0.272352,-0.708116 c -0.947184,-0.324336 -1.7148,-0.165541 -2.447136,0.312701 -0.762288,0.495802 -1.467768,1.326724 -2.152584,2.219164 -0.89244,1.173393 -2.330244,1.716684 -3.530496,1.981109 -1.019484,0.225176 -1.622484,0.208778 -1.86006,0.209811 l -0.764604,0.03026 c -0.04956,-0.11706 -0.10224,-0.217275 -0.157356,-0.300595 -0.07272,-0.121022 -0.184236,-0.215506 -0.31674,-0.264283 -1.42392,0.317533 -2.86794,0.540944 -4.321314,0.667766 l -0.0343,0.0041 -0.03631,-0.0041 c -1.125881,-0.09296 -2.752364,-0.31554 -4.319302,-0.667766 -0.132501,0.04878 -0.244004,0.143261 -0.316734,0.264283 -0.06043,0.09539 -0.113304,0.194606 -0.157359,0.298578 l -0.762586,-0.02824 c -0.237571,0 -0.844609,0.01536 -1.864098,-0.209812 C 21.344311,23.508048 19.906514,22.964757 19.014071,21.791364 18.329248,20.898924 17.624759,20.066968 16.8635,19.5722 16.130129,19.09499 15.361534,18.935163 14.414348,19.259499 l -0.272351,0.708115 c 0.291281,-0.07956 0.638956,-0.205401 0.835211,-0.179578 0.316074,0.04132 0.486392,0.19669 0.865475,0.369188 0.869715,0.396642 1.627674,1.165879 2.418888,2.20706 2.095789,2.754789 5.592764,2.685382 5.917098,2.677119 h 0.689958 c -0.104328,0.431757 -0.213718,0.878921 -0.39138,1.295185 l -0.02824,0.06456 -0.0464,0.05245 c -0.454481,0.512328 -1.098203,0.699239 -1.712792,0.776707 -0.568102,0.0723 -1.126189,0.05635 -1.579641,0.06254 -0.114168,0.02815 -0.224838,0.07021 -0.328839,0.125081 -0.08263,0.05165 -0.116484,0.09233 -0.139202,0.155341 -0.02273,0.06508 -0.03773,0.180471 0.02219,0.39945 l 0.498302,1.831819 c 0.0114,0.04441 0.26887,0.319676 0.675838,0.538652 0.40697,0.216913 0.911782,0.413877 1.303255,0.572948 l 0.302614,0.12508 -0.04034,0.324805 c -0.225174,1.758024 -0.410424,4.256346 0.100872,5.608433 l 0.167409,0.04034 c 0.127583,-0.354404 0.286791,-0.746304 0.488217,-1.13379 0.19742,-0.380229 0.419546,-0.73259 0.696011,-1.040991 l 0.002,-0.0041 0.0041,-0.002 c 0.265237,-0.291198 0.588457,-0.545467 0.992571,-0.655662 l 0.631452,-0.171481 0.425677,0.496285 c 0.192701,0.224476 0.327663,0.490707 0.403458,0.776733 0.15329,0.521995 0.194266,1.06474 0.215865,1.622007 0.01465,0.377533 0.01236,0.728088 0.008,1.047042 z m 10.462345,-1.444473 c 0.737508,-1.629945 1.048416,-2.514876 -1.032912,-4.918475 1.373772,0.328469 2.864136,3.088496 3.492156,3.65557 1.07526,-2.722772 -0.271668,-3.917676 -1.936728,-4.785327 1.623744,-0.34706 2.592576,0.432262 4.220448,0.925998 -0.9069,-1.657833 -2.02674,-4.191603 -4.7712,-3.012012 1.019484,-1.400636 2.79486,-2.04675 4.313244,-2.947453 -1.560744,-0.295412 -3.187596,-1.070038 -4.51902,0.298579 0.69102,-1.262226 1.81704,-2.341021 2.92122,-3.425583 -0.451464,0.05964 -0.900156,0.137456 -1.34562,0.232004 -0.706512,0.780884 -1.524348,1.300691 -2.334156,1.668407 -0.0084,0.431761 -0.126348,0.880439 -0.244104,1.275011 -0.0702,0.235506 -0.08844,0.27182 -0.143244,0.42366 0.200388,0.05165 0.3648,0.06418 0.59514,0.20981 0.221004,0.136654 0.392412,0.343974 0.484188,0.58707 0.096,0.26546 0.09288,0.574162 0.0024,0.909858 l -0.502344,1.833836 c -0.14874,0.546412 -0.620364,0.811101 -1.09344,1.0652 -0.374952,0.200385 -0.752532,0.344737 -1.095456,0.48418 0.05508,0.415745 0.1026,0.833392 0.143232,1.250801 z m -20.922679,0 2.852635,-4.2729 c 0.0394,-0.416379 0.08496,-0.832061 0.139201,-1.246767 -0.342926,-0.139443 -0.71751,-0.283795 -1.091424,-0.48418 -0.475143,-0.254099 -0.94874,-0.518788 -1.097478,-1.0652 l -0.498303,-1.833836 c -0.09296,-0.335696 -0.09709,-0.644398 0,-0.909858 0.09606,-0.266492 0.287976,-0.46312 0.482163,-0.58707 0.230338,-0.145638 0.396771,-0.1592 0.597157,-0.20981 -0.05474,-0.15184 -0.07704,-0.188154 -0.147273,-0.42366 -0.117744,-0.394572 -0.231809,-0.84325 -0.240072,-1.275011 -0.810843,-0.367716 -1.631679,-0.887523 -2.338192,-1.668407 -0.440024,-0.09433 -0.889022,-0.172096 -1.347638,-0.232004 1.10522,1.084562 2.232223,2.163357 2.923243,3.425583 -1.331428,-1.368617 -2.960303,-0.593991 -4.521042,-0.298579 1.518389,0.900703 3.29681,1.546817 4.315266,2.947453 -2.744462,-1.179591 -3.863269,1.353145 -4.771204,3.012012 1.629942,-0.493736 2.594686,-1.272025 4.21843,-0.925998 -1.665061,0.867651 -3.011006,2.062555 -1.934707,4.785327 0.626979,-0.566042 2.120443,-3.326068 3.492157,-3.65557 -2.080295,2.404632 -1.769389,3.28853 -1.032919,4.918475 z m 6.01797,-3.950112 c -0.05561,-0.0013 -0.112596,-0.0078 -0.167447,-0.01816 -0.364618,-0.06198 -0.704095,-0.293011 -1.004675,-0.788813 -0.796379,-1.628909 0.466867,-2.416019 1.765245,-2.882896 1.384106,-0.224143 2.166826,0.165286 2.721501,1.075286 -2.166027,1.558674 -2.447846,2.506316 -3.149196,2.60651 -0.0553,0.0077 -0.109812,0.0095 -0.165428,0.008 z m 8.721313,-0.008 c -0.701352,-0.100188 -0.98316,-1.047837 -3.149196,-2.606511 0.554676,-0.911031 1.339416,-1.299428 2.72352,-1.075285 1.298376,0.466877 2.561628,1.252954 1.765248,2.882896 -0.299544,0.495801 -0.640056,0.726837 -1.004676,0.788813 -0.122916,0.02066 -0.330756,-0.08903 -0.334896,0.008 z m -2.198988,-6.423472 c -0.68172,-0.149773 -0.98154,-1.128708 -1.452544,-1.732967 l 0.86548,0.641529 1.075284,0.114996 c -0.07128,0.464814 0.379428,0.835955 -0.48822,0.976431 z m -4.155889,0 C 27.055327,26.575408 27.505049,26.2053 27.432744,25.739452 l 1.075287,-0.117012 0.865473,-0.639523 c -0.472043,0.604259 -0.7688,1.583194 -1.450527,1.732967 z M 21.800103,26.42945 c 0.261595,-6.31e-4 0.522772,-0.01543 0.782758,-0.04439 0.494769,-0.06198 0.883728,-0.213752 1.137827,-0.47611 0.03616,-0.09193 0.06384,-0.209313 0.09482,-0.316736 -0.805602,-0.04601 -1.601763,-0.19628 -2.368453,-0.447868 0.03298,0.228848 0.08194,0.45548 0.145254,0.677853 0.101232,0.338799 0.16751,0.50292 0.207794,0.607245 z m 15.982016,-0.06859 c 0.148284,0.0029 0.29556,0.001 0.443832,-0.0041 0.0486,-0.128082 0.09276,-0.237135 0.181572,-0.534616 0.0702,-0.23344 0.09804,-0.454841 0.131124,-0.67382 -0.762564,0.249045 -1.553436,0.398014 -2.354328,0.443834 0.03096,0.106392 0.05976,0.223821 0.0948,0.314718 0.2541,0.263391 0.598512,0.390362 1.057128,0.433744 0.14796,0.01092 0.297576,0.01726 0.445848,0.02017 z M 24.50143,23.473887 c 0.03925,-0.0785 0.07049,-0.160683 0.119028,-0.234021 0.185925,-0.279918 0.454645,-0.527967 0.811003,-0.639522 -0.03925,-4.07589 0.02549,-3.657147 1.047042,-7.506827 l 0.04237,-0.159377 0.139204,-0.08876 c 0.919294,-0.590827 2.119296,-0.881614 3.32471,-0.881614 1.205418,0 2.420286,0.293172 3.350934,0.954242 l 0.125088,0.08876 0.03828,0.149289 c 1.019484,3.868266 1.140936,3.44187 1.051068,7.438225 l 0.01212,0.002 c 0.3408,0.112968 0.631668,0.341836 0.823104,0.645575 0.04752,0.0723 0.07572,0.153551 0.11496,0.229986 0.61902,-0.01188 1.236456,-0.08742 1.839888,-0.22595 0.23442,-0.05423 0.465204,-0.119196 0.693996,-0.193673 -0.11676,-0.200387 -0.229692,-0.402275 -0.371208,-0.583036 0.0072,0.01032 -0.301284,-0.205034 -0.57294,-0.322788 -0.271656,-0.117744 -0.516468,-0.197707 -0.516468,-0.197707 l -0.24612,-0.08272 -0.04032,-0.25823 c -0.57223,-3.76597 -1.343518,-5.149006 -2.29381,-7.964738 -0.1146,-0.172185 -0.249192,-0.330059 -0.40146,-0.470059 L 32.998775,5.2303502 32.159531,11.197886 31.035827,5.9001354 29.996849,11.088945 28.963929,5.9102226 27.832156,11.286652 26.992908,5.1920198 26.405837,13.176978 c -0.149771,0.142542 -0.287941,0.294559 -0.397432,0.466023 -0.950282,2.814699 -1.719556,4.196751 -2.291792,7.962765 l -0.04237,0.25823 -0.246126,0.08272 c 0,0 -0.246822,0.08197 -0.518477,0.199724 -0.271658,0.117756 -0.577176,0.332085 -0.568913,0.322788 -0.14151,0.181794 -0.256503,0.384666 -0.373224,0.585053 0.228489,0.07375 0.459957,0.138072 0.693994,0.191656 0.603737,0.138953 1.220488,0.215835 1.839888,0.227969 z m 5.50151,-0.211829 c 0.954419,-0.08057 2.270891,-0.249969 3.593027,-0.51646 l -0.60522,-3.237963 -0.837228,1.622008 -1.125732,-1.242733 -1.03897,1.180192 -1.032919,-1.174138 -1.131774,1.287115 -0.839247,-1.694635 -0.597158,3.254101 c 1.194516,0.240704 2.401438,0.415045 3.615221,0.522493 z m -0.01412,-5.451074 1.032923,-0.99459 0.978444,0.942137 0.4398,-2.334157 c -0.694116,-0.381148 -1.557596,-0.609262 -2.455201,-0.609262 -0.891407,0 -1.752029,0.221852 -2.445115,0.568913 l 0.445849,2.366436 0.97038,-0.934067 z" />
</svg>
