<svg height="60" width="52.157" xmlns="http://www.w3.org/2000/svg" xmlns:xlink="http://www.w3.org/1999/xlink"><filter id="a" color-interpolation-filters="sRGB" height="1.106171" width="1.159564" x="-.039077" y="-.032668"><feFlood flood-opacity=".498039" result="flood"/><feComposite in="flood" in2="SourceGraphic" operator="in" result="composite1"/><feGaussianBlur in="composite1" result="blur" stdDeviation="1"/><feOffset dx="5" dy="3" result="offset"/><feComposite in="SourceGraphic" in2="offset" operator="over" result="composite2"/></filter><g filter="url(#a)" opacity=".99" transform="matrix(.6 0 0 .6 -193.096299 -105.921838)"><g opacity="1" transform="matrix(1.1001284 0 0 1.0507274 -34.799654 -13.593421)"><path d="m363.67635 259.89949 18.54577-5.7875 9.36822-60.53484-55.82741-.00022 9.7125 60.53533z" fill="#ececec" fill-opacity=".992157" stroke-width="1.38243"/><path d="m363.94386 259.87022 1.24185 1.65885 18.68146-5.93432-.86315-1.63067z" fill="none"/></g><path d="m345.26768 257.18883v-3.77953l20.02335 6.0808 20.40273-6.08109v3.77954l-20.40273 6.08108z" fill="#8b8b8b" fill-opacity=".992157" opacity="1"/></g><g stroke="#000" stroke-opacity=".984314"><path d="m12.290312 24.033538-.20949-1.485456s-.7331-1.22793-.7111-1.962323c.0179-.597212.78842-2.078832.78842-2.078832.0393-.444958.15024-1.373167.31755-1.838277.68104-.159046.83285-.122945 1.79545-.163562.16508-.08103.1197-.419344.29491-.465806 2.61001-.692106 4.0707-.756646 5.54495-.77142 1.9626-.01967 5.81382.932405 5.81382.932405 2.71064 1.076632 5.61998 1.714032 9.02238 1.261489l1.12438.356508c.58742-.120029.80975-.337416.85013-.603321l2.44071-.137118c1.42064 2.768529 1.51297 5.504261-.0274 8.199677l-.35462 1.161701-1.26606.01219-.49097-.323756-.0548-.713017-1.01468-.493625c-3.31061-.389504-6.43344-.432318-9.2692.05484l-3.37311.973541-.12341 1.042101-2.22131.06856-.0548-.946116s-2.97018-.134725-4.42892-.397645c-.64413-.116095-1.8939-.51825-1.8939-.51825l-.23144-.496427z" fill-opacity=".984314" opacity=".99" stroke-width=".107866"/><path d="m26.223222 25.224412c-.21308.163101-.627542.07231-.652672-.03097.93522-3.118629 1.35168-6.073107.0436-8.998634-.0245-.07914.569242-.08093.647842-.04403 1.33384 2.951521.84793 6.080828-.0388 9.073634z" fill="#e5e5e5" fill-opacity=".988235" opacity=".99" stroke-linecap="round" stroke-width=".431465"/><path d="m34.694202 24.849488c-.0309.09882-.22039.127539-.25814-.01929 1.06467-2.602316 1.53877-5.040261.0496-7.353924-.0279-.06322.11234-.07118.20184-.04562 1.50568 2.339374 1.07458 4.808548.007 7.41882z" style="opacity:.99;fill:#e5e5e5;fill-opacity:.988235;stroke-width:.416094;stroke-linecap:round;stroke-linejoin:round"/><path d="m35.342602 24.811662c-.11763.133915-.24812.08222-.21932-.05832 1.06506-2.603277 1.57043-4.805838.0808-7.120246.007-.06089.13376-.09262.21356-.04171 1.47836 2.305638 1.01837 4.924982-.075 7.220277z" style="opacity:.99;fill:#e5e5e5;fill-opacity:.988235;stroke-width:.416094;stroke-linecap:round;stroke-linejoin:round"/><path d="m38.105172 25.11753c-.0479.115469-.27294.146265-.29668-.02025 1.05917-2.733086 1.56208-5.402913.0806-7.832838-.0277-.0664.20207-.07065.2912-.04381 1.49791 2.456928.98725 5.155453-.0752 7.896891z" fill="#e5e5e5" fill-opacity=".988235" opacity=".99" stroke-linecap="round" stroke-width=".425318"/><path d="m38.799812 25.143439c-.0818.136137-.28215.132616-.27368-.02107 1.05259-2.849777 1.57548-5.331206.10334-7.864762.007-.06665.1891-.10139.26799-.04566 1.48757 2.56007 1.16443 5.067319-.0976 7.931514z" fill="#e5e5e5" fill-opacity=".988235" opacity=".99" stroke-linecap="round" stroke-width=".432793"/></g><path d="m21.166066 25.327888c-1.886972.160309-4.370506-.129-6.544194-1.030369-.06797-1.416097-.414147-1.891931-.140625-4.203125 2.084509-.173815 4.120702-.37984 7.176317.09375.50305 1.017477-.252628 4.171404-.491498 5.139744z" fill="#e3e3e3" fill-opacity=".992157"/></svg>