<svg height="60" width="52.157" xmlns="http://www.w3.org/2000/svg" xmlns:xlink="http://www.w3.org/1999/xlink"><filter id="a" color-interpolation-filters="sRGB" height="1.115455" width="1.184379" x="-.045154" y="-.035524"><feFlood flood-opacity=".498039" result="flood"/><feComposite in="flood" in2="SourceGraphic" operator="in" result="composite1"/><feGaussianBlur in="composite1" result="blur" stdDeviation="1"/><feOffset dx="5" dy="3" result="offset"/><feComposite in="SourceGraphic" in2="offset" operator="over" result="composite2"/></filter><g filter="url(#a)" opacity=".99" transform="matrix(.6 0 0 .6 -338.376049 -106.932278)"><path d="m-50.305336-26.738663-6.925806 43.854224h39.875803l-6.907977-43.848604-13.0298-4.255956z" fill="#feec99" opacity="1" stroke-width=".999181" transform="matrix(-1.33292603459 0 0 -1.32585200438 557.71512205065 217.13364321075)"/><path d="m590.05633 256.35723v-3.77953l17.36776 5.64277 17.34432-5.63532v3.77953l-17.34432 5.63532z" fill="#c3983c" fill-opacity=".992157" opacity="1"/></g><g stroke="#000" stroke-linejoin="round"><path d="m24.554206 32.012775c-.04168-4.364368-.151968-7.893372-4.727705-10.680506-2.142569-1.388594-2.851497-2.230504-3.118181-4.651394 2.778256-.744431 6.075381-1.101714 9.370181-1.086196 3.2948-.01552 6.591925.341765 9.370181 1.086196-.266684 2.42089-.975613 3.2628-3.118182 4.651394-4.575737 2.787134-4.686025 6.316138-4.727704 10.680506v-.000002c-.508068-.0096-1.016179-.01004-1.524295-.0097-.508116-.000364-1.016227.000116-1.524295.0097z" stroke-width=".660001"/><path d="m26.078501 40.168302c-1.37719-3.881336-2.795109-6.170772-8.638624-8.798927 5.750505-1.339941 12.065317-1.237904 17.277247 0-5.843515 2.628155-7.261434 4.917591-8.638623 8.798927z" stroke-width=".767131"/></g></svg>