<?xml version="1.0" encoding="UTF-8" standalone="no"?>
<svg
   viewBox="0 0 60 60"
   version="1.1"
   id="svg25"
   sodipodi:docname="1SU.svg"
   inkscape:version="1.3 (0e150ed6c4, 2023-07-21)"
   xmlns:inkscape="http://www.inkscape.org/namespaces/inkscape"
   xmlns:sodipodi="http://sodipodi.sourceforge.net/DTD/sodipodi-0.dtd"
   xmlns="http://www.w3.org/2000/svg"
   xmlns:svg="http://www.w3.org/2000/svg">
  <sodipodi:namedview
     id="namedview25"
     pagecolor="#ffffff"
     bordercolor="#666666"
     borderopacity="1.0"
     inkscape:showpageshadow="2"
     inkscape:pageopacity="0.0"
     inkscape:pagecheckerboard="0"
     inkscape:deskcolor="#d1d1d1"
     inkscape:zoom="2.6634355"
     inkscape:cx="-22.151841"
     inkscape:cy="0"
     inkscape:window-width="3840"
     inkscape:window-height="2054"
     inkscape:window-x="-11"
     inkscape:window-y="-11"
     inkscape:window-maximized="1"
     inkscape:current-layer="svg25" />
  <defs
     id="defs2">
    <filter
       id="1HI_svg__a"
       color-interpolation-filters="sRGB"
       x="-0.036952686"
       y="-0.031443196"
       width="1.1508901"
       height="1.1021904">
      <feFlood
         flood-color="#000"
         flood-opacity=".498"
         result="flood"
         id="feFlood1" />
      <feComposite
         in="flood"
         in2="SourceGraphic"
         operator="in"
         result="composite1"
         id="feComposite1" />
      <feGaussianBlur
         in="composite1"
         result="blur"
         stdDeviation="1"
         id="feGaussianBlur1" />
      <feOffset
         dx="5"
         dy="3"
         result="offset"
         id="feOffset1" />
      <feComposite
         in="SourceGraphic"
         in2="offset"
         result="composite2"
         id="feComposite2" />
    </filter>
    <filter
       id="0HI_svg__a"
       color-interpolation-filters="sRGB"
       x="-0.037629351"
       y="-0.030880877"
       width="1.1536532"
       height="1.1003629">
      <feFlood
         flood-color="#000"
         flood-opacity=".498"
         result="flood"
         id="feFlood1-4" />
      <feComposite
         in="flood"
         in2="SourceGraphic"
         operator="in"
         result="composite1"
         id="feComposite1-0" />
      <feGaussianBlur
         in="composite1"
         result="blur"
         stdDeviation="1"
         id="feGaussianBlur1-4" />
      <feOffset
         dx="5"
         dy="3"
         result="offset"
         id="feOffset1-4" />
      <feComposite
         in="SourceGraphic"
         in2="offset"
         result="composite2"
         id="feComposite2-0" />
    </filter>
    <filter
       id="0HI_svg__a-2"
       color-interpolation-filters="sRGB"
       x="-0.036952686"
       y="-0.030672713"
       width="1.1508901"
       height="1.0996863">
      <feFlood
         flood-color="#000"
         flood-opacity=".498"
         result="flood"
         id="feFlood1-3" />
      <feComposite
         in="flood"
         in2="SourceGraphic"
         operator="in"
         result="composite1"
         id="feComposite1-2" />
      <feGaussianBlur
         in="composite1"
         result="blur"
         stdDeviation="1"
         id="feGaussianBlur1-3" />
      <feOffset
         dx="5"
         dy="3"
         result="offset"
         id="feOffset1-7" />
      <feComposite
         in="SourceGraphic"
         in2="offset"
         result="composite2"
         id="feComposite2-4" />
    </filter>
  </defs>
  <g
     id="path2"
     transform="matrix(0.72,0,0,0.72,-56.320801,-134.04073)"
     style="opacity:0.99;fill-opacity:0.992">
    <path
       style="color:#000000;fill:#fbc7dc;fill-opacity:0.988235;-inkscape-stroke:none"
       d="m 119.89,262.22 21.701,-7.117 10.189,-64.931 H 88 l 10.176,64.814 z"
       id="path1" />
    <path
       id="path4"
       style="color:#000000;fill:#db7da2;fill-opacity:0.984314;-inkscape-stroke:none"
       d="m 87.416042,189.67029 10.3125,65.69336 0.445963,3.40169 21.715495,7.23307 21.70247,-7.11588 0.44597,-3.4017 10.32552,-65.81054 z m 1.168619,1.0026 h 62.610679 l -10.05208,64.04948 -21.25326,6.9694 -21.266276,-7.08333 z" />
  </g>
  <path
     style="fill:#e394b6;fill-opacity:0.976471;stroke:none;stroke-width:1.2px;stroke-linecap:butt;stroke-linejoin:miter;stroke-opacity:1"
     d="m 14.68828,49.277346 0.335718,2.318407 14.976001,4.982456 14.939848,-4.822249 0.362499,-2.396585 -15.302347,5.017968 z"
     id="path5"
     sodipodi:nodetypes="ccccccc" />
  <path
     id="path6781"
     style="fill:#040302;fill-opacity:1;stroke:none;stroke-width:0.841681px;stroke-linecap:butt;stroke-linejoin:miter;stroke-opacity:1"
     d="m 33.746843,46.080469 a 1.1825417,1.098075 0 0 0 1.182936,-1.099385 1.1825417,1.098075 0 0 0 -1.182936,-1.099384 1.1825417,1.098075 0 0 0 -1.182936,1.099384 1.1825417,1.098075 0 0 0 1.182936,1.099385 z m -3.472956,-2.872691 a 1.055841,1.1825417 0 0 0 1.022424,-1.182938 1.055841,1.1825417 0 0 0 -1.0554,-1.182938 1.055841,1.1825417 0 0 0 -1.055412,1.182938 1.055841,1.1825417 0 0 0 1.055412,1.182938 1.055841,1.1825417 0 0 0 0.03432,0 z m 3.26298,-1.942613 a 1.1403089,1.1825417 0 0 0 1.14006,-1.182937 1.1403089,1.1825417 0 0 0 -1.14006,-1.182937 1.1403089,1.1825417 0 0 0 -1.140072,1.182937 1.1403089,1.1825417 0 0 0 1.140072,1.182937 z m -5.737692,-3.542216 c 2.896872,-0.04025 5.096748,-1.634784 6.93162,-4.045734 2.084436,-2.328496 3.53232,-5.239666 4.260108,-8.815963 0.7146,-1.453386 1.321464,-1.710642 1.928328,-2.028364 1.840368,0.560686 2.441724,1.432498 2.008572,2.556068 -0.28584,1.595207 -2.802336,2.954046 -4.418424,4.408532 -1.284084,2.335092 -1.886544,4.580035 0.483732,6.436894 7.037148,1.809587 5.671716,-4.150174 4.17876,-5.467237 -1.00044,0.483729 -1.608408,1.077396 -1.928328,1.763412 0.208884,0.384785 0.791556,0.7146 0,1.233509 -0.42876,-0.04025 -0.659628,-0.252858 -0.802548,-0.527704 0,-0.879507 -0.406776,-1.011434 2.89248,-3.526825 1.943712,-1.022427 2.083332,-2.636324 2.812224,-4.055629 1.340148,-7.703386 -1.566624,-10.014292 -5.222076,-11.373461 -0.692604,0.637643 -0.901488,1.535841 -1.20492,2.381267 -1.04442,-0.252858 -2.020668,-0.34081 -3.455364,-1.587511 -0.351804,0.351803 -0.692616,0.703607 -1.04442,1.055409 l -1.22142,0.978452 c -0.329808,-0.835532 0.340812,-1.204925 0.681624,-1.727133 0.494724,-0.758575 1.529244,-1.544635 2.387856,-2.065742 l -1.928316,-0.263853 c -0.868512,0.362796 -1.553424,0.901496 -2.170188,1.498461 L 31.924067,14.9016 c -0.978456,2.619832 -1.921728,5.247361 -2.3307,8.023306 0.069,0.868514 0.0804,1.560027 0.560688,3.967678 l -0.560688,2.028365 -3.375108,4.144679 2.571456,-4.408532 0.483732,-1.851363 c 0.08052,-1.348944 -0.120924,-2.494503 -0.483732,-3.526824 l 0.164916,-1.851364 c 0.879504,-2.730871 1.89534,-5.349603 2.088828,-8.376209 -0.10332,-0.681619 -0.32982,-1.273087 -1.04442,-1.498461 -9.023748,0.373791 -13.522644,4.615215 -16.311336,10.316623 l -0.164904,1.850263 c 1.693056,7.839709 6.550128,11.858839 13.017576,13.930519 0.384792,0.05057 0.75858,0.07817 1.126872,0.07817 0.04584,1.11e-4 0.0918,6.6e-4 0.14292,0 z m 7.611036,-9.929639 c -0.153912,2.2e-4 -0.307824,-0.0597 -0.47274,-0.241865 l -1.418196,-1.834872 c -0.23088,-0.593667 -0.318828,-1.175241 -0.09192,-1.735928 0.252852,0.450747 0.48372,0.901495 1.077396,1.355541 0.659628,0.197889 1.34124,0.384785 1.744716,0.813544 0.1869,1.033422 -0.03444,1.088392 -0.14292,1.417106 -0.219876,0.06431 -0.439752,0.208884 -0.67062,0.219878 -0.0108,5.49e-4 -0.02304,8.79e-4 -0.03444,9.9e-4 z m 3.740112,-12.102242 c 1.066392,-3.585093 3.254172,-5.572779 5.303424,-7.7583556 0.164904,-0.2748456 -0.10992,-0.3518028 -0.802548,-0.2638524 -3.13764,1.64358 -5.511216,3.844547 -6.508356,7.05365 0.626652,0.362796 1.055412,0.956464 2.008572,0.967458 z" />
</svg>
