<?xml version="1.0" encoding="UTF-8" standalone="no"?>
<svg
   viewBox="0 0 60 60"
   version="1.1"
   id="svg6"
   sodipodi:docname="1TO.svg"
   xml:space="preserve"
   inkscape:version="1.3 (0e150ed6c4, 2023-07-21)"
   xmlns:inkscape="http://www.inkscape.org/namespaces/inkscape"
   xmlns:sodipodi="http://sodipodi.sourceforge.net/DTD/sodipodi-0.dtd"
   xmlns="http://www.w3.org/2000/svg"
   xmlns:svg="http://www.w3.org/2000/svg"><sodipodi:namedview
     id="namedview6"
     pagecolor="#ffffff"
     bordercolor="#666666"
     borderopacity="1.0"
     inkscape:showpageshadow="2"
     inkscape:pageopacity="0.0"
     inkscape:pagecheckerboard="0"
     inkscape:deskcolor="#d1d1d1"
     inkscape:zoom="15.066667"
     inkscape:cx="16.460177"
     inkscape:cy="32.455752"
     inkscape:window-width="3840"
     inkscape:window-height="2054"
     inkscape:window-x="-11"
     inkscape:window-y="-11"
     inkscape:window-maximized="1"
     inkscape:current-layer="svg6" /><defs
     id="defs2"><filter
       id="1FU_svg__a"
       color-interpolation-filters="sRGB"
       x="-0.044180247"
       y="-0.035264744"
       width="1.1804027"
       height="1.1146104"><feFlood
         flood-color="#000"
         flood-opacity=".498"
         result="flood"
         id="feFlood1" /><feComposite
         in="flood"
         in2="SourceGraphic"
         operator="in"
         result="composite1"
         id="feComposite1" /><feGaussianBlur
         in="composite1"
         result="blur"
         stdDeviation="1"
         id="feGaussianBlur1" /><feOffset
         dx="5"
         dy="3"
         result="offset"
         id="feOffset1" /><feComposite
         in="SourceGraphic"
         in2="offset"
         result="composite2"
         id="feComposite2" /></filter></defs><g
     id="path2"
     transform="matrix(0.72,0,0,0.72,-407.34599,-134.13911)"
     style="opacity:0.99"><path
       style="color:#000000;fill:#ede0ae;-inkscape-stroke:none;fill-opacity:0.99215686"
       d="M 624.768,252.585 634,194.441 h -53.151 l 9.207,58.137 17.368,5.642 z"
       id="path1" /><path
       id="path6"
       style="color:#000000;fill:#745a21;fill-opacity:1;-inkscape-stroke:none"
       d="m 580.26354,193.94266 9.3457,59.01692 0.44597,3.39844 17.36979,5.64128 17.26227,-5.58588 c 3.2314,-20.83412 6.59211,-41.64847 9.89916,-62.47076 z m 1.17188,0.99935 h 51.97916 l -9.09179,57.26236 -16.89779,5.48829 -16.92383,-5.4948 z"
       sodipodi:nodetypes="ccccccccccccc" /></g><path
     style="fill:#000000;fill-opacity:0;stroke:none;stroke-width:1.2px;stroke-linecap:butt;stroke-linejoin:miter;stroke-opacity:1"
     d="m 17.814851,47.443361 0.278078,2.508065 11.906608,4.022124 11.827905,-4.081859 0.338975,-2.443643 -12.166409,3.951569 z"
     id="path8" /><path
     style="fill:#9b8648;fill-opacity:1;stroke:none;stroke-width:1.2px;stroke-linecap:butt;stroke-linejoin:miter;stroke-opacity:1"
     d="m 17.81485,47.443361 0.327858,2.474879 11.873425,3.889381 11.787841,-3.894477 0.362446,-2.465096 -12.16641,3.951569 z"
     id="path3"
     sodipodi:nodetypes="ccccccc" /><path
     id="path9"
     style="color:#000000;fill:#c32e16;fill-opacity:1;stroke-width:0.0537439;-inkscape-stroke:none"
     d="m 21.01598,45.133344 c -0.0338,4.2e-4 -0.0681,-4.92e-4 -0.10312,-0.0048 -0.0934,-0.0108 -0.19188,-0.04092 -0.29532,-0.09372 l -0.74531,-0.382032 0.57422,-0.67734 c 1.66608,-1.967952 1.99797,-3.729432 2.07422,-5.317968 0.0381,-0.794268 -10e-4,-1.542312 0.0164,-2.24766 0.017,-0.686436 0.0836,-1.367916 0.41719,-1.959372 0.003,-0.006 0.004,-0.0108 0.007,-0.01644 0.006,-0.0108 0.0122,-0.02184 0.0188,-0.03276 0.53146,-1.070388 1.17453,-1.86672 1.90547,-2.439852 -0.56487,-0.448608 -1.18081,-0.936876 -1.98985,-1.605468 a 0.37147328,0.37147328 0 0 1 0.0891,-0.625776 c 1.47898,-0.64548 3.06841,-1.078884 4.70625,-1.291404 -0.0512,-2.078088 -0.20237,-3.97662 -0.78516,-5.688288 -0.73186,-2.149536 -2.12192,-4.041792 -4.9289,-5.751564 a 0.37147328,0.37147328 0 0 1 -0.009,-0.0048 c -1.35474,-0.878004 -2.29255,-1.604304 -2.93672,-2.528904 -0.64415,-0.9246 -0.96631,-2.020272 -1.13672,-3.56718 a 0.37147328,0.37147328 0 0 1 0.27422,-0.400788 c 3.52061,-0.9433447 7.67581,-1.3926847 11.82891,-1.3734367 4.15443,-0.01956 8.31182,0.42978 11.83359,1.3734367 a 0.37147328,0.37147328 0 0 1 0.27422,0.400788 c -0.17041,1.546908 -0.49491,2.64258 -1.13906,3.56718 -0.64416,0.9246 -1.57963,1.6509 -2.93438,2.528904 a 0.37147328,0.37147328 0 0 1 -0.009,0.0048 c -2.80698,1.709772 -4.19938,3.602028 -4.93125,5.751564 -0.58312,1.712664 -0.73168,3.613464 -0.78281,5.692968 1.58535,0.208332 3.16927,0.6273 4.70391,1.284384 a 0.37147328,0.37147328 0 0 1 0.0914,0.628116 c -0.80952,0.669012 -1.43602,1.162704 -1.99687,1.603128 0.73236,0.573312 1.37551,1.370124 1.90781,2.442192 l 0.0258,0.0492 c 0.33368,0.591504 0.40021,1.272852 0.41719,1.959372 0.0174,0.705348 -0.0194,1.453392 0.0188,2.24766 0.0763,1.588536 0.40813,3.350016 2.07422,5.317968 l 0.57422,0.67734 -0.74531,0.382032 c -0.41374,0.211164 -0.74108,0.03996 -1.03125,-0.11244 -0.29018,-0.152484 -0.57684,-0.360048 -0.86719,-0.56484 -0.52485,-0.370212 -1.07562,-0.677844 -1.34063,-0.735948 -0.71669,0.413748 -1.4503,0.362184 -1.99922,0.05388 -0.59729,-0.335436 -1.00113,-0.891588 -1.19062,-1.478904 l -0.40078,-1.23516 1.07344,0.379692 c 0.0816,0.0288 0.12654,0.02364 0.23203,-0.0516 0.10548,-0.07524 0.24751,-0.243192 0.375,-0.499212 0.25497,-0.512064 0.43916,-1.346052 0.40312,-2.2125 -0.036,-0.86646 -0.27807,-1.758504 -0.81094,-2.484384 -0.1553,-0.21156 -0.34015,-0.410316 -0.55078,-0.592968 0.11302,0.331044 0.17344,0.684336 0.17344,1.052352 0,1.85682 -1.56103,3.353904 -3.44766,3.353904 -1.88662,0 -3.44765,-1.497084 -3.44765,-3.353904 0,-0.36906 0.0645,-0.722844 0.17812,-1.054692 -0.21255,0.183552 -0.39922,0.382464 -0.55547,0.595308 -0.53286,0.72588 -0.7749,1.617912 -0.81093,2.484384 -0.036,0.866448 0.14815,1.700436 0.40312,2.2125 0.12748,0.25602 0.27186,0.42402 0.37735,0.499212 0.10548,0.07524 0.1481,0.08028 0.22968,0.0516 l 1.07344,-0.379692 -0.39844,1.23516 c -0.18943,0.587316 -0.59561,1.143468 -1.19291,1.478904 -0.5489,0.308268 -1.28253,0.359832 -1.99921,-0.05388 -0.26502,0.05808 -0.81346,0.36576 -1.33829,0.735936 -0.29035,0.204804 -0.57701,0.412368 -0.86718,0.564852 -0.19043,0.10008 -0.39648,0.207996 -0.63282,0.210936 z m 1.5961,-2.353128 c 0.40433,-0.265104 0.83881,-0.48984 1.33594,-0.4875 h 0.15 l 0.1289,0.09144 c 0.49168,0.344004 0.83965,0.290904 1.15313,0.11484 0.0565,-0.03168 0.10754,-0.07692 0.15937,-0.11952 -0.30184,-0.225768 -0.53747,-0.548376 -0.72656,-0.928128 -0.39156,-0.78636 -0.59929,-1.82922 -0.55313,-2.939064 0.0462,-1.109832 0.36039,-2.294148 1.07813,-3.271872 0.71471,-0.973596 1.82382,-1.712508 3.34922,-1.973436 0.42777,-0.131292 0.88477,-0.156864 1.29844,-0.168744 h 0.0118 0.0141 c 0.41379,0.012 0.87056,0.03972 1.29843,0.171084 1.52515,0.261 2.63224,0.997608 3.34688,1.971096 0.71773,0.977724 1.03431,2.16204 1.08047,3.271872 0.0462,1.109844 -0.16392,2.152704 -0.55547,2.939064 -0.18909,0.379752 -0.42472,0.70236 -0.72656,0.928128 0.0519,0.0426 0.1052,0.08784 0.16171,0.11952 0.31348,0.176052 0.6591,0.229152 1.15079,-0.11484 l 0.1289,-0.09144 h 0.15 c 0.49711,-0.0024 0.93397,0.222408 1.33828,0.4875 -0.71433,-1.456152 -0.95272,-2.853444 -1.01015,-4.05 -0.0425,-0.884784 -0.006,-1.665192 -0.0211,-2.282808 -0.0153,-0.617616 -0.0865,-1.035456 -0.24141,-1.296096 l -0.0141,-0.0234 -0.0141,-0.0258 c -0.66322,-1.355244 -1.42703,-2.1012 -2.38125,-2.554692 -0.95422,-0.453492 -2.12492,-0.59268 -3.53438,-0.585936 -0.0462,2.4e-4 -0.0912,0.0012 -0.13828,0.0048 l -0.0328,0.0024 -0.0305,-0.0024 c -0.0471,-0.0036 -0.0944,-0.0048 -0.14062,-0.0048 -1.40946,-0.0072 -2.58016,0.132444 -3.53438,0.585936 -0.95422,0.453492 -1.71803,1.199448 -2.38125,2.554692 l -0.0118,0.0258 -0.0141,0.0234 c -0.15493,0.26064 -0.22847,0.67848 -0.24375,1.296096 -0.0153,0.617616 0.0237,1.398024 -0.0188,2.282808 -0.0574,1.196556 -0.2958,2.593836 -1.01015,4.05 z m 7.38515,-4.073436 c 1.25926,0 2.24766,-0.967476 2.24766,-2.153904 0,-1.075212 -0.81132,-1.971684 -1.90078,-2.130468 -0.0156,-0.0024 -0.0312,-0.0024 -0.0469,-0.0048 -0.099,-0.006 -0.20053,-0.0108 -0.3,-0.01404 -0.0995,0.0024 -0.19886,0.0072 -0.29766,0.01404 -0.0157,0.0024 -0.0313,0.0024 -0.0469,0.0048 -1.08946,0.158784 -1.90312,1.055256 -1.90312,2.130468 0,1.186428 0.98839,2.153904 2.24765,2.153904 z" /></svg>
