<?xml version="1.0" encoding="UTF-8" standalone="no"?>
<svg
   xmlns:dc="http://purl.org/dc/elements/1.1/"
   xmlns:cc="http://creativecommons.org/ns#"
   xmlns:rdf="http://www.w3.org/1999/02/22-rdf-syntax-ns#"
   xmlns:svg="http://www.w3.org/2000/svg"
   xmlns="http://www.w3.org/2000/svg"
   xmlns:sodipodi="http://sodipodi.sourceforge.net/DTD/sodipodi-0.dtd"
   xmlns:inkscape="http://www.inkscape.org/namespaces/inkscape"
   width="177.17"
   height="177.17"
   shape-rendering="geometricPrecision"
   image-rendering="optimizeQuality"
   fill-rule="evenodd"
   clip-rule="evenodd"
   viewBox="0 0 50 50"
   version="1.1"
   id="svg2339"
   sodipodi:docname="bN.svg"
   inkscape:version="1.0 (4035a4fb49, 2020-05-01)">
  <metadata
     id="metadata2343">
    <rdf:RDF>
      <cc:Work
         rdf:about="">
        <dc:format>image/svg+xml</dc:format>
        <dc:type
           rdf:resource="http://purl.org/dc/dcmitype/StillImage" />
        <dc:title />
      </cc:Work>
    </rdf:RDF>
  </metadata>
  <sodipodi:namedview
     inkscape:document-rotation="0"
     pagecolor="#ffffff"
     bordercolor="#666666"
     borderopacity="1"
     objecttolerance="10"
     gridtolerance="10"
     guidetolerance="10"
     inkscape:pageopacity="0"
     inkscape:pageshadow="2"
     inkscape:window-width="1366"
     inkscape:window-height="705"
     id="namedview2341"
     showgrid="false"
     inkscape:zoom="2.3486545"
     inkscape:cx="71.313259"
     inkscape:cy="139.66802"
     inkscape:window-x="-8"
     inkscape:window-y="-8"
     inkscape:window-maximized="1"
     inkscape:current-layer="svg2339" />
  <defs
     id="defs2333">
    <linearGradient
       gradientUnits="userSpaceOnUse"
       y2="37.469002"
       x2="77.639999"
       y1="37.591999"
       x1="21.253"
       id="0-7"
       gradientTransform="matrix(0.73293145,0,0,0.73293145,6.6712949,47.847362)">
      <stop
         id="stop3067"
         stop-color="#fff" />
      <stop
         id="stop3069"
         stop-opacity="0"
         stop-color="#fff"
         offset="1" />
    </linearGradient>
    <linearGradient
       gradientUnits="userSpaceOnUse"
       y2="37.469002"
       x2="77.669998"
       y1="37.099998"
       x1="21.09"
       id="0-4"
       gradientTransform="matrix(0.72093872,0,0,0.72093872,5.0388121,-23.181878)">
      <stop
         id="stop3869"
         stop-color="#fff" />
      <stop
         id="stop3871"
         stop-opacity="0"
         stop-color="#fff"
         offset="1" />
    </linearGradient>
  </defs>
  <g
     id="g2787"
     transform="matrix(1.1353951,0,0,1.1353951,-2.4516052,-5.2179058)">
    <g
       transform="matrix(0.88554241,0.51126815,-0.51126815,0.88554241,9.0373195,13.53258)"
       id="g4476">
      <path
         sodipodi:nodetypes="ccccccccccccscscscccccscccccc"
         id="path3876"
         fill="#1f1a17"
         d="M 20.616856,5.187781 C 19.981709,5.120731 19.340795,4.998895 18.681857,4.821546 18.028686,4.650683 17.449052,4.467565 16.94872,4.277957 l 1.861464,-4.61472899 c -0.933616,-0.5371 -1.581019,-0.96461601 -1.953023,-1.29408501 -0.366237,-0.329469 -0.658938,-0.707962 -0.873057,-1.135479 -0.311445,-0.549355 -0.512587,-1.080687 -0.598379,-1.593274 -0.09156,-0.512588 -0.128327,-0.970384 -0.116071,-1.379156 0.01226,-0.71445 0.17663,-1.501715 0.50682,-2.368284 0.329469,-0.860801 0.945871,-1.6358097 1.849208,-2.313492 0.750497,-0.573867 1.489459,-1.165758 2.203909,-1.769904 0.714451,-0.610635 1.422412,-1.318597 2.123886,-2.130374 -0.878825,-0.452029 -1.318597,-1.172247 -1.318597,-2.160654 0,-0.671194 0.232142,-1.239293 0.702194,-1.721601 0.470052,-0.47582 1.049687,-0.714451 1.727369,-0.714451 0.665427,0 1.239294,0.23791 1.715114,0.714451 0.475819,0.482308 0.71445,1.049686 0.71445,1.721601 0,0.976872 -0.439773,1.69709 -1.318597,2.160654 0.689938,0.811777 1.391412,1.519739 2.100094,2.130374 0.707962,0.604146 1.456297,1.196037 2.227701,1.769904 0.89108,0.6776823 1.501715,1.449087 1.818928,2.313492 0.323702,0.866569 0.500332,1.654555 0.519076,2.368284 0,0.408772 -0.03677,0.866568 -0.121838,1.379156 -0.08507,0.512587 -0.274678,1.043919 -0.573868,1.593274 -0.237909,0.427517 -0.537099,0.80601 -0.903336,1.135479 -0.360469,0.329469 -1.001384,0.75698501 -1.922743,1.29408501 L 29.180887,4.277957 c -0.524843,0.189608 -1.116734,0.372726 -1.769904,0.543589 -0.658938,0.177349 -1.288318,0.299189 -1.898232,0.366235"
         style="stroke-width:0.720939" />
      <path
         sodipodi:nodetypes="cssscssscssscssccccsccsccccscccsc"
         id="path3878"
         fill="url(#0)"
         d="m 22.406226,-6.092026 v 1.519739 c 0,0.439772 0.219887,0.658938 0.658938,0.658938 0.439773,0 0.658938,-0.219887 0.658938,-0.658938 V -6.11077 H 25.3354 c 0.415261,0 0.628659,-0.213398 0.628659,-0.646682 0,-0.427517 -0.213398,-0.640915 -0.628659,-0.640915 h -1.611298 v -1.611298 c 0,-0.4397727 -0.219886,-0.658938 -0.658938,-0.658938 -0.439772,0 -0.658938,0.2198863 -0.658938,0.658938 v 1.611298 h -1.57453 c -0.421028,0 -0.628659,0.213398 -0.628659,0.640915 0,0.433284 0.207631,0.646682 0.628659,0.646682 l 1.57453,0.01802 m 5.41425,9.906418 -0.750497,-1.824696 c -1.214782,-0.262421 -2.551402,-0.39075 -4.004094,-0.39075 -1.440435,0 -2.7648,0.128329 -3.967326,0.39075 l -0.750497,1.806673 c 1.477204,-0.372005 3.051734,-0.555123 4.718544,-0.555123 1.648066,0 3.229085,0.188885 4.755312,0.573868 M 26.320203,0.12750801 25.801127,-1.124042 V -1.60635 c -0.903337,-0.128327 -1.818929,-0.195374 -2.734521,-0.195374 -0.89108,0 -1.800905,0.06705 -2.716497,0.195374 l -0.01802,0.482308 -0.482308,1.25155001 c 1.012918,-0.177351 2.08135,-0.26891 3.216828,-0.26891 1.147735,0 2.227701,0.09156 3.253597,0.26891"
         style="fill:url(#0-4);stroke-width:0.720939" />
    </g>
    <g
       transform="matrix(0.99943875,0,0,0.99943875,-1.399784,-30.915802)"
       id="g3674">
      <path
         id="path3074"
         d="m 25.859441,54.733251 c 1.904889,0.123866 3.664656,0.614197 5.29323,1.480522 1.61978,0.856064 3.003555,1.960591 4.14546,3.307719 0.800362,0.943283 1.551616,2.085191 2.258895,3.419125 0.713875,1.328073 1.278233,2.742629 1.700402,4.231947 0.483732,1.737779 0.916694,3.55545 1.040559,5.466934 0.130462,1.904891 0.152028,2.205638 0.152028,3.832744 L 19.22494,76.393574 c 0.192028,-0.390653 0.651576,-0.955743 1.37791,-1.700401 0.732198,-0.744658 1.564076,-1.613181 2.513223,-2.593844 0.546033,-0.558494 0.968202,-1.259909 1.278231,-2.110111 0.310031,-0.843603 0.440493,-1.613182 0.390654,-2.308733 -0.447089,0.366466 -0.93742,0.664036 -1.473193,0.893443 -2.568925,0.918363 -4.434235,2.252299 -5.578342,3.995943 -0.08722,0.111408 -0.359868,0.601736 -0.819416,1.480522 -0.241867,0.459547 -0.452952,0.775439 -0.620794,0.943282 -0.229406,0.229407 -0.565089,0.359869 -0.998985,0.38479 -0.676496,0.03079 -1.204207,-0.291709 -1.582399,-0.986526 -0.508655,0.148784 -0.961605,0.211083 -1.365452,0.186162 C 11.669882,74.323777 11.179551,74.050393 10.873185,73.758685 10.252392,73.137891 9.8551429,72.523695 9.6631149,71.902904 9.4769503,71.28211 9.3838686,70.618075 9.3838686,69.904932 c 0,-1.018042 0.6266564,-2.364438 1.8924294,-4.039918 1.480521,-1.923945 2.264759,-3.394205 2.357841,-4.397589 0,-0.434628 0.04325,-0.924959 0.130461,-1.473192 0.07477,-0.378926 0.223544,-0.74026 0.452952,-1.092067 0.161245,-0.241868 0.266788,-0.40971 0.316625,-0.496196 0.0557,-0.09308 0.155382,-0.229407 0.304168,-0.409708 0.105542,-0.148786 0.198624,-0.260924 0.273382,-0.334949 0.06816,-0.08062 0.161246,-0.186165 0.273385,-0.32249 0.13046,-0.155382 0.297571,-0.334951 0.508654,-0.546035 -0.644979,-1.768563 -0.905903,-3.592829 -0.782039,-5.466935 2.407681,0.856064 4.434236,2.206124 6.068673,4.052378 0.403112,-1.371315 1.191746,-2.48244 2.364438,-3.326043 0.968201,0.676495 1.73778,1.576536 2.308733,2.686926"
         fill="#1f1a17"
         style="stroke-width:0.732932"
         sodipodi:nodetypes="cccccccccccccccscccccsccccccccccccc" />
      <path
         id="path3076"
         d="m 18.169524,60.883278 c 0.266787,-0.136325 0.397249,-0.204487 0.397249,-0.204487 0.365732,-0.142922 0.477871,-0.409709 0.34741,-0.800361 -0.142922,-0.359869 -0.422169,-0.483735 -0.837741,-0.359869 -1.427017,0.521113 -2.414276,1.48052 -2.961043,2.87309 -0.08648,0.39725 0.0557,0.6699 0.434628,0.819418 0.378194,0.118008 0.633253,-0.01246 0.762983,-0.403112 0.09967,-0.204488 0.16784,-0.341547 0.216946,-0.39725 0.136325,0.105542 0.310031,0.179569 0.527711,0.216948 0.740261,0.118009 1.17269,-0.204487 1.290692,-0.980661 0.03737,-0.266787 -0.02492,-0.521116 -0.180301,-0.762982 m -3.016013,12.286863 c 0.04325,-0.111409 0.123867,-0.273383 0.236004,-0.490332 0.204488,-0.508654 0.304166,-0.812821 0.304166,-0.9125 -0.01832,-0.334949 -0.198624,-0.508653 -0.527709,-0.508653 -0.241868,0 -0.521115,0.347408 -0.850201,1.036365 -0.04985,0.09967 -0.123866,0.186164 -0.216948,0.254327 -0.329087,0.341545 -0.279246,0.626655 0.142921,0.856063 0.390654,0.229408 0.688957,0.155382 0.9125,-0.236004 m 10.722786,-6.745168 c 0.850202,-1.116987 1.265773,-2.35784 1.253314,-3.723291 -0.04985,-0.403112 -0.279247,-0.601736 -0.688956,-0.601736 -0.558494,0 -0.775442,0.204487 -0.658172,0.614195 0.03737,0.6699 -0.02492,1.22253 -0.198625,1.657158 -0.279246,0.688956 -0.589276,1.203474 -0.924226,1.54502 -0.186165,0.366465 -0.07476,0.633252 0.329086,0.800361 0.384788,0.179568 0.682359,0.08722 0.887579,-0.291707 m -4.747196,-8.875799 c -0.0557,-0.434628 -0.04324,-0.905903 0.03737,-1.414557 -0.726337,0.142921 -1.408696,0.483734 -2.053675,1.018041 -0.384789,0.204487 -0.477871,0.490331 -0.273384,0.856063 0.204488,0.37233 0.490332,0.434629 0.856065,0.180302 0.254327,-0.136326 0.490331,-0.260925 0.701415,-0.37233 0.211085,-0.117996 0.452952,-0.204487 0.732198,-0.266786 m 17.580689,17.758471 c 0.140879,-3.092179 -0.697624,-5.839648 -1.105109,-7.376498 -0.615662,-2.426002 -1.556745,-4.75306 -2.984496,-6.81333 -1.930542,-2.818122 -4.994195,-4.419576 -8.271864,-5.112931 0.09235,0.561427 0.02419,1.128716 0.0557,1.693806 1.172691,0.397248 2.283815,0.893444 3.326044,1.489317 3.108361,1.871906 4.701022,5.332075 5.274907,8.743871 0.730677,4.568065 0.53363,3.232938 0.595872,7.376497 M 13.588702,69.937181 c 0.34741,-0.248464 0.384789,-0.533575 0.105542,-0.875121 -0.291707,-0.279246 -0.608333,-0.304166 -0.961606,-0.07476 -0.740261,0.483736 -1.135311,1.122851 -1.185151,1.911485 0.01245,0.39725 0.254328,0.589278 0.713876,0.565091 0.434628,-0.03738 0.645712,-0.260924 0.633252,-0.676496 0.09894,-0.384789 0.329087,-0.669899 0.694819,-0.8502"
         fill="url(#0)"
         style="fill:url(#0-7);stroke-width:0.732932"
         sodipodi:nodetypes="ccccccccccccccsccccccsccccccccccccccccccccccccccc" />
    </g>
  </g>
</svg>
