<?xml version="1.0" encoding="UTF-8" standalone="no"?>
<svg
   xmlns:dc="http://purl.org/dc/elements/1.1/"
   xmlns:cc="http://creativecommons.org/ns#"
   xmlns:rdf="http://www.w3.org/1999/02/22-rdf-syntax-ns#"
   xmlns:svg="http://www.w3.org/2000/svg"
   xmlns="http://www.w3.org/2000/svg"
   xmlns:sodipodi="http://sodipodi.sourceforge.net/DTD/sodipodi-0.dtd"
   xmlns:inkscape="http://www.inkscape.org/namespaces/inkscape"
   width="177.17"
   height="177.17"
   shape-rendering="geometricPrecision"
   image-rendering="optimizeQuality"
   fill-rule="evenodd"
   clip-rule="evenodd"
   viewBox="0 0 50 50"
   version="1.1"
   id="svg1881"
   sodipodi:docname="WhiteBiskniGrafted.svg"
   inkscape:version="1.0 (4035a4fb49, 2020-05-01)">
  <metadata
     id="metadata1885">
    <rdf:RDF>
      <cc:Work
         rdf:about="">
        <dc:format>image/svg+xml</dc:format>
        <dc:type
           rdf:resource="http://purl.org/dc/dcmitype/StillImage" />
        <dc:title />
      </cc:Work>
    </rdf:RDF>
  </metadata>
  <sodipodi:namedview
     inkscape:document-rotation="0"
     pagecolor="#ffffff"
     bordercolor="#666666"
     borderopacity="1"
     objecttolerance="10"
     gridtolerance="10"
     guidetolerance="10"
     inkscape:pageopacity="0"
     inkscape:pageshadow="2"
     inkscape:window-width="1920"
     inkscape:window-height="1017"
     id="namedview1883"
     showgrid="false"
     inkscape:zoom="1.6862483"
     inkscape:cx="86.356088"
     inkscape:cy="121.7425"
     inkscape:window-x="1912"
     inkscape:window-y="-8"
     inkscape:window-maximized="1"
     inkscape:current-layer="svg1881" />
  <defs
     id="defs1875">
    <linearGradient
       id="0"
       x1="21.13"
       y1="37.592"
       x2="77.64"
       y2="37.469"
       gradientUnits="userSpaceOnUse">
      <stop
         stop-color="#fff"
         id="stop1870" />
      <stop
         offset="1"
         stop-color="#fff"
         stop-opacity="0"
         id="stop1872" />
    </linearGradient>
    <linearGradient
       gradientUnits="userSpaceOnUse"
       x2="77.639999"
       x1="21.405001"
       id="0-7"
       gradientTransform="translate(-56.791162,27.889124)">
      <stop
         id="stop1904"
         stop-color="#fff" />
      <stop
         id="stop1906"
         stop-opacity="0"
         stop-color="#fff"
         offset="1" />
    </linearGradient>
    <linearGradient
       gradientUnits="userSpaceOnUse"
       y2="37.469002"
       x2="77.639999"
       y1="37.591999"
       x1="21.253"
       id="0-79">
      <stop
         id="stop3134"
         stop-color="#fff" />
      <stop
         id="stop3136"
         stop-opacity="0"
         stop-color="#fff"
         offset="1" />
    </linearGradient>
    <linearGradient
       gradientUnits="userSpaceOnUse"
       y2="37.469002"
       x2="77.639999"
       y1="37.591999"
       x1="21.253"
       id="0-79-6">
      <stop
         id="stop3134-9"
         stop-color="#fff" />
      <stop
         id="stop3136-5"
         stop-opacity="0"
         stop-color="#fff"
         offset="1" />
    </linearGradient>
    <linearGradient
       gradientUnits="userSpaceOnUse"
       y2="37.469002"
       x2="77.669998"
       y1="37.099998"
       x1="21.09"
       id="0-4">
      <stop
         id="stop2535"
         stop-color="#fff" />
      <stop
         id="stop2537"
         stop-opacity="0"
         stop-color="#fff"
         offset="1" />
    </linearGradient>
  </defs>
  <g
     transform="matrix(1.1954154,0,0,1.1954154,-4.8853852,-8.7635782)"
     id="g3559">
    <g
       transform="matrix(0.21520903,0.37275298,-0.37275298,0.21520903,61.52221,20.635334)"
       id="g2512">
      <path
         id="path1911"
         d="m -30.611162,37.284124 c 2.599,0.169 5,0.838 7.221999,2.02 2.210002,1.168 4.098002,2.675 5.656,4.513 1.092002,1.287 2.117001,2.845 3.082001,4.665 0.973999,1.812 1.744,3.742 2.32,5.774 0.659999,2.371 1.084002,4.851 1.253,7.459 0.178002,2.599001 0.262999,5.010001 0.262999,7.229999 v 5.402001 c 0,0 -1.286998,0 -3.860998,0 -2.565,0 -5.901002,0 -10.010002,0 h -16.636999 c -0.152,0 -0.22,-0.406 -0.212,-1.211001 0.008,-0.812998 0.059,-1.464999 0.161,-1.963997 0.059,-0.398002 0.22,-0.957002 0.466,-1.685001 0.254,-0.728001 0.66,-1.609 1.245,-2.65 0.262,-0.533002 0.889,-1.304002 1.88,-2.32 0.999,-1.016002 2.134,-2.200999 3.429,-3.539 0.745,-0.762001 1.321,-1.719001 1.744,-2.879001 0.423,-1.151 0.601,-2.201 0.533,-3.15 -0.61,0.5 -1.279,0.906 -2.01,1.219 -3.505,1.253 -6.05,3.073 -7.611,5.452001 -0.119,0.152 -0.491,0.820999 -1.118,2.02 -0.33,0.627 -0.618,1.057998 -0.847,1.286999 -0.313,0.313001 -0.771,0.491 -1.363,0.525001 -0.923,0.042 -1.643,-0.398002 -2.159,-1.346001 -0.694,0.203 -1.312,0.288 -1.863,0.253999 -0.923,-0.346997 -1.592,-0.719998 -2.01,-1.118 -0.847,-0.847 -1.389,-1.685 -1.651,-2.531999 -0.254,-0.847 -0.381,-1.753 -0.381,-2.726 0,-1.389 0.855,-3.226 2.582,-5.512 2.02,-2.625 3.09,-4.631 3.217,-6 0,-0.593 0.059,-1.262 0.178,-2.01 0.102,-0.517 0.305,-1.01 0.618,-1.49 0.22,-0.33 0.364,-0.559 0.432,-0.677 0.076,-0.127 0.212,-0.313 0.415,-0.559 0.144,-0.203 0.271,-0.356 0.373,-0.457 0.093,-0.11 0.22,-0.254 0.373,-0.44 0.178,-0.212 0.406,-0.457 0.694,-0.745 -0.88,-2.413 -1.236,-4.902 -1.067,-7.459 3.285,1.168 6.05,3.01 8.28,5.529 0.55,-1.871 1.626,-3.387 3.226,-4.538 1.321,0.923 2.371,2.151 3.15,3.666"
         fill="#1f1a17"
         style="stroke-width:1" />
      <path
         id="path1913"
         d="m -13.815163,72.582124 c -0.01699,0 0,-0.449 0.042,-1.346001 0.051,-0.905999 0.076,-1.879999 0.076,-2.920999 0.01699,-2.065999 0.01699,-4.2 0,-6.409 -0.01699,-2.21 -0.313001,-4.411 -0.889002,-6.613 -0.566997,-2.117 -1.185,-3.92 -1.862998,-5.419 -0.676998,-1.499 -1.413999,-2.786 -2.209997,-3.878 -1.185001,-1.786 -2.811001,-3.302 -4.860002,-4.538 -2.049,-1.245 -4.191,-2.057 -6.426,-2.438 0.152,0.813 0.22,1.609 0.203,2.388 -0.034,0.593 -0.313,0.889 -0.847,0.889 -0.61,0 -0.881,-0.296 -0.821,-0.889 0.051,-2.184 -0.728,-4.056 -2.328,-5.605 -1.253,1.321 -1.939,2.853 -2.032,4.606 -0.034,0.584 -0.33,0.838 -0.897,0.771 -0.525,-0.017 -0.787,-0.322 -0.787,-0.914 0,0 0.017,-0.068 0.042,-0.203 -0.677,0.22 -1.389,0.525 -2.134,0.923 -0.474,0.33 -0.864,0.245 -1.16,-0.246 -0.296,-0.499 -0.169,-0.889 0.398,-1.168 0.711,-0.364 1.245,-0.635 1.609,-0.821 -1.422,-1.456 -3.04,-2.625 -4.86,-3.522 0.195,2.303 0.83,4.47 1.888,6.528 0.279,0.423 0.212,0.804 -0.203,1.135 -0.466,0.364 -0.855,0.313 -1.168,-0.169 -0.11,-0.169 -0.279,-0.466 -0.491,-0.897 -0.347,0.347 -0.584,0.61 -0.694,0.77 -0.118,0.152 -0.322,0.483 -0.61,0.991 -0.288,0.516 -0.499,0.94 -0.635,1.27 -0.144,0.415 -0.212,0.745 -0.186,1.01 0.025,0.254 0.051,0.533 0.068,0.855 -0.152,0.974 -0.491,1.888 -1.01,2.752 -0.525,0.855 -1.185,1.905 -1.998,3.15 -0.779,1.185 -1.372,2.083 -1.786,2.675 -0.415,0.601 -0.728,1.355 -0.94,2.286 -0.152,0.559 -0.152,1.245 0,2.041 0.144,0.804 0.474,1.430999 0.965,1.88 0.762,0.77 1.499,1.126 2.21,1.067001 0.229,0 0.542,-0.093 0.931,-0.279001 0.389,-0.177998 0.686,-0.524998 0.906,-1.041 0.423,-0.94 0.779,-1.414 1.067,-1.414 0.406,0 0.635,0.237 0.669,0.694 0,0.102 -0.136,0.517 -0.398,1.245001 -0.152,0.33 -0.347,0.677 -0.593,1.041001 -0.322,0.431997 -0.457,0.609998 -0.423,0.541999 0.262,0.947999 0.703,1.109 1.312,0.498998 0.178,-0.177999 0.389,-0.524999 0.618,-1.015999 0.237,-0.499001 0.601,-1.168 1.092,-2.01 0.584,-0.982 1.202,-1.77 1.863,-2.388 0.66,-0.61 1.245,-1.109 1.761,-1.482 0.296,-0.22 0.66,-0.466 1.092,-0.745 0.432,-0.288 1.01,-0.576 1.736,-0.872 0.576,-0.229 1.219,-0.516 1.922,-0.855 0.703,-0.339 1.329,-0.77 1.871,-1.304 0.762,-0.745 1.346,-1.659 1.761,-2.752 0.22,-0.61 0.296,-1.363 0.245,-2.261 -0.144,-0.559 0.136,-0.838 0.847,-0.838 0.533,0 0.83,0.271 0.898,0.821 0,1.863 -0.533,3.564 -1.592,5.105 0.347,1.058 0.44,2.218 0.271,3.471 -0.144,1.01 -0.5,2.091 -1.05,3.243 -0.559,1.143001 -1.676,2.422001 -3.361,3.826999 -3.429,2.845002 -5.05,5.774002 -4.86,8.780002 0,0 1.405,0 4.225,0 2.819,0 5.47,0 7.95,0 h 13.572001 M -47.455162,57.504124 c -0.483,0.296 -0.77,0.694 -0.872,1.194 0.017,0.542 -0.237,0.838 -0.762,0.889 -0.584,0.068 -0.881,-0.178 -0.898,-0.745 0.068,-1.092 0.55,-1.956 1.465,-2.599 0.432,-0.347 0.83,-0.322 1.194,0.093 0.364,0.449 0.322,0.838 -0.127,1.168 m 7.366,-11.828 c 0.212,0.33 0.296,0.677 0.246,1.041 -0.161,1.058 -0.754,1.499 -1.761,1.338 -0.296,-0.051 -0.533,-0.152 -0.72,-0.296 -0.059,0.076 -0.161,0.262 -0.296,0.542 -0.178,0.533 -0.525,0.711 -1.041,0.55 -0.508,-0.203 -0.711,-0.576 -0.593,-1.118 0.745,-1.905 2.091,-3.209 4.04,-3.92 0.567,-0.169 0.94,0 1.118,0.491 0.203,0.533 0.051,0.898 -0.449,1.092 -0.093,0.051 -0.186,0.102 -0.271,0.136 -0.085,0.042 -0.169,0.093 -0.271,0.144"
         fill="url(#0)"
         style="fill:url(#0-7);stroke-width:1" />
    </g>
    <g
       transform="matrix(0.82192577,0,0,0.82192577,3.9352826,8.0156414)"
       id="g2516">
      <path
         fill="#1f1a17"
         d="m 25.447,42.01 c -0.229,0.94 -0.517,1.592 -0.847,1.956 -0.33,0.364 -0.762,0.745 -1.312,1.143 -0.593,0.415 -1.295,0.762 -2.108,1.05 -0.813,0.288 -1.71,0.364 -2.701,0.212 l -6.968,-0.965 c -0.288,-0.034 -0.533,-0.034 -0.762,0 -0.22,0.034 -0.432,0.051 -0.635,0.051 -0.347,0 -0.787,0.076 -1.321,0.237 -0.542,0.152 -0.957,0.381 -1.253,0.677 L 5.135,42.425 c 0.296,-0.33 0.559,-0.559 0.787,-0.694 0.237,-0.127 0.508,-0.271 0.821,-0.415 0.957,-0.449 1.981,-0.72 3.073,-0.821 0.466,-0.034 0.923,-0.042 1.363,-0.025 0.449,0.017 0.914,0 1.397,-0.051 0.889,0.152 1.786,0.288 2.684,0.406 0.906,0.127 1.812,0.254 2.718,0.389 0.991,0 1.66,-0.102 2.01,-0.296 0.186,-0.102 0.474,-0.288 0.872,-0.55 0.398,-0.262 0.796,-0.652 1.194,-1.168 -0.881,-0.093 -1.77,-0.262 -2.684,-0.508 -0.906,-0.237 -1.71,-0.491 -2.404,-0.754 l 2.582,-6.401 c -1.295,-0.745 -2.193,-1.338 -2.709,-1.795 -0.508,-0.457 -0.914,-0.982 -1.211,-1.575 -0.432,-0.762 -0.711,-1.499 -0.83,-2.21 -0.127,-0.711 -0.178,-1.346 -0.161,-1.913 0.017,-0.991 0.245,-2.083 0.703,-3.285 0.457,-1.194 1.312,-2.269 2.565,-3.209 1.041,-0.796 2.066,-1.617 3.057,-2.455 0.991,-0.847 1.973,-1.829 2.946,-2.955 -1.219,-0.627 -1.829,-1.626 -1.829,-2.997 0,-0.931 0.322,-1.719 0.974,-2.388 0.652,-0.66 1.456,-0.991 2.396,-0.991 0.923,0 1.719,0.33 2.379,0.991 0.66,0.669 0.991,1.456 0.991,2.388 0,1.355 -0.61,2.354 -1.829,2.997 0.957,1.126 1.93,2.108 2.913,2.955 0.982,0.838 2.02,1.66 3.09,2.455 1.236,0.94 2.083,2.02 2.523,3.209 0.449,1.202 0.694,2.294 0.72,3.285 0,0.567 -0.051,1.202 -0.169,1.913 -0.118,0.711 -0.381,1.448 -0.796,2.21 -0.33,0.593 -0.745,1.118 -1.253,1.575 -0.5,0.457 -1.389,1.05 -2.667,1.795 l 2.582,6.401 c -0.728,0.263 -1.549,0.517 -2.455,0.754 -0.914,0.246 -1.787,0.415 -2.633,0.508 0.381,0.517 0.77,0.906 1.168,1.168 0.398,0.263 0.694,0.449 0.898,0.55 0.347,0.195 1.016,0.296 2.01,0.296 0.889,-0.136 1.786,-0.263 2.692,-0.389 0.898,-0.118 1.803,-0.254 2.718,-0.406 0.44,0.051 0.889,0.068 1.346,0.051 0.457,-0.017 0.923,-0.008 1.405,0.025 1.058,0.102 2.083,0.373 3.073,0.821 0.296,0.144 0.567,0.288 0.804,0.415 0.245,0.135 0.508,0.364 0.804,0.694 l -2.43,3.946 c -0.296,-0.296 -0.711,-0.525 -1.253,-0.677 -0.533,-0.161 -0.965,-0.237 -1.295,-0.237 -0.22,0 -0.44,-0.017 -0.66,-0.051 -0.22,-0.034 -0.474,-0.034 -0.754,0 l -6.951,0.965 c -0.991,0.152 -1.913,0.085 -2.76,-0.195 -0.855,-0.279 -1.558,-0.652 -2.1,-1.118 -0.542,-0.449 -0.982,-0.83 -1.304,-1.151 -0.322,-0.322 -0.593,-0.957 -0.804,-1.897"
         id="path1877" />
      <path
         style="fill:url(#0)"
         fill="url(#0)"
         d="m 26.32,39.2 c 0,1.092 0.245,2.024 0.753,2.794 0.5,0.77 1.041,1.372 1.626,1.795 0.906,0.669 2.235,0.999 3.988,0.999 0.432,0 1.279,-0.093 2.532,-0.279 1.025,-0.161 1.854,-0.279 2.481,-0.356 0.627,-0.076 1.05,-0.135 1.27,-0.186 0.627,-0.085 1.287,-0.068 1.981,0.051 0.262,0.068 0.559,0.127 0.88,0.186 0.322,0.059 0.593,0.186 0.804,0.381 l 1.194,-1.93 c -0.677,-0.347 -1.397,-0.593 -2.159,-0.72 -1.253,-0.22 -2.354,-0.263 -3.302,-0.152 -0.279,0.034 -0.643,0.118 -1.101,0.245 -0.457,0.136 -1.067,0.263 -1.846,0.373 -1.676,0.271 -2.557,0.398 -2.659,0.398 -0.644,0 -1.202,-0.076 -1.685,-0.246 C 30.594,42.384 30.171,42.206 29.79,42.011 28.909,41.613 28.02,40.673 27.106,39.2 h -0.787 m -1.761,0 h -0.796 c -0.931,1.49 -1.812,2.43 -2.659,2.811 -0.398,0.195 -0.83,0.373 -1.312,0.542 -0.483,0.169 -1.033,0.246 -1.66,0.246 -0.119,0 -0.999,-0.127 -2.659,-0.398 -0.787,-0.11 -1.422,-0.237 -1.88,-0.373 -0.466,-0.127 -0.83,-0.212 -1.092,-0.245 -0.948,-0.11 -2.04,-0.068 -3.302,0.152 -0.762,0.127 -1.473,0.373 -2.134,0.72 l 1.194,1.93 c 0.195,-0.195 0.457,-0.322 0.779,-0.381 0.322,-0.059 0.618,-0.118 0.88,-0.186 0.694,-0.119 1.355,-0.136 1.981,-0.051 0.22,0.051 0.643,0.11 1.27,0.186 0.627,0.076 1.465,0.195 2.506,0.356 1.236,0.186 2.083,0.279 2.532,0.279 1.736,0 3.065,-0.33 3.988,-0.999 0.567,-0.423 1.101,-1.025 1.6,-1.795 0.508,-0.77 0.762,-1.702 0.762,-2.794 m 0.889,-9.347 c 1.6,0 3.141,0.127 4.614,0.373 1.617,-0.576 2.794,-1.482 3.522,-2.701 0.627,-1.058 0.94,-2.227 0.94,-3.497 0,-0.762 -0.186,-1.6 -0.567,-2.523 -0.381,-0.914 -0.999,-1.744 -1.863,-2.489 -0.974,-0.813 -2.04,-1.702 -3.2,-2.667 -1.151,-0.965 -2.303,-2.1 -3.446,-3.387 -1.16,1.287 -2.311,2.422 -3.471,3.387 -1.16,0.965 -2.218,1.854 -3.175,2.667 -0.881,0.745 -1.499,1.575 -1.871,2.489 -0.372,0.923 -0.559,1.761 -0.559,2.523 0,1.27 0.305,2.438 0.914,3.497 0.711,1.219 1.897,2.125 3.548,2.701 1.456,-0.246 2.997,-0.373 4.614,-0.373 m 0,4.513 c 1.939,0 3.793,0.195 5.579,0.576 l -1.185,-3.057 c -1.456,-0.229 -2.921,-0.347 -4.394,-0.347 -1.507,0 -2.98,0.119 -4.411,0.347 l -1.194,3.057 c 1.77,-0.381 3.641,-0.576 5.605,-0.576 m 0,-23.537 c 1.126,0 1.685,-0.559 1.685,-1.685 0,-1.126 -0.559,-1.693 -1.685,-1.693 -1.126,0 -1.685,0.567 -1.685,1.693 0,1.126 0.559,1.685 1.685,1.685 m 0,27.01 c 1.126,0 2.218,-0.093 3.285,-0.279 1.067,-0.195 2.1,-0.423 3.09,-0.686 -1.939,-0.508 -4.064,-0.77 -6.375,-0.77 -2.345,0 -4.47,0.263 -6.375,0.77 0.957,0.263 1.973,0.491 3.048,0.686 1.075,0.186 2.184,0.279 3.327,0.279 M 24.556,23.505 22.49,23.48 c -0.559,0 -0.838,-0.279 -0.838,-0.847 0,-0.559 0.279,-0.838 0.838,-0.838 h 2.066 v -2.134 c 0,-0.576 0.296,-0.872 0.889,-0.872 0.576,0 0.872,0.296 0.872,0.872 v 2.134 h 2.134 c 0.542,0 0.813,0.279 0.813,0.838 0,0.567 -0.271,0.847 -0.813,0.847 h -2.134 v 2.032 c 0,0.601 -0.296,0.898 -0.872,0.898 -0.593,0 -0.889,-0.296 -0.889,-0.898 v -2.01"
         id="path1879" />
    </g>
  </g>
</svg>
