<?xml version="1.0" encoding="UTF-8" standalone="no"?>
<svg
   xmlns:dc="http://purl.org/dc/elements/1.1/"
   xmlns:cc="http://creativecommons.org/ns#"
   xmlns:rdf="http://www.w3.org/1999/02/22-rdf-syntax-ns#"
   xmlns:svg="http://www.w3.org/2000/svg"
   xmlns="http://www.w3.org/2000/svg"
   xmlns:sodipodi="http://sodipodi.sourceforge.net/DTD/sodipodi-0.dtd"
   xmlns:inkscape="http://www.inkscape.org/namespaces/inkscape"
   width="52.157"
   height="60"
   version="1.1"
   id="svg1717"
   sodipodi:docname="0Crane.svg"
   inkscape:version="1.0.1 (3bc2e813f5, 2020-09-07)"
   inkscape:export-filename="D:\Pictures\Chess Variants\Shogi\pieces\Plastic\0FU.png"
   inkscape:export-xdpi="394.90497"
   inkscape:export-ydpi="394.90497">
  <metadata
     id="metadata1723">
    <rdf:RDF>
      <cc:Work
         rdf:about="">
        <dc:format>image/svg+xml</dc:format>
        <dc:type
           rdf:resource="http://purl.org/dc/dcmitype/StillImage" />
        <dc:title></dc:title>
      </cc:Work>
    </rdf:RDF>
  </metadata>
  <defs
     id="defs1721" />
  <sodipodi:namedview
     pagecolor="#ffffff"
     bordercolor="#666666"
     borderopacity="1"
     objecttolerance="10"
     gridtolerance="10"
     guidetolerance="10"
     inkscape:pageopacity="0"
     inkscape:pageshadow="2"
     inkscape:window-width="3840"
     inkscape:window-height="2050"
     id="namedview1719"
     showgrid="false"
     inkscape:zoom="2.7812868"
     inkscape:cx="-337.33726"
     inkscape:cy="60.552373"
     inkscape:window-x="-12"
     inkscape:window-y="-12"
     inkscape:window-maximized="1"
     inkscape:current-layer="svg1717"
     inkscape:document-rotation="0" />
  <!--
Created by Hari Seldon and modified by orangain, licensed under Creative Commons Attribution-Share Alike 3.0 Unported.
See: https://creativecommons.org/licenses/by-sa/3.0/deed.en

Original file is available at: https://commons.wikimedia.org/wiki/File:Shogi_gyokusho(svg).svg
-->
  <filter
     id="drop-shadow">
    <feGaussianBlur
       in="SourceAlpha"
       result="blur"
       stdDeviation="2"
       id="feGaussianBlur1692" />
    <feOffset
       result="offsetBlur"
       dx="2"
       dy="2"
       id="feOffset1694" />
    <feBlend
       in="SourceGraphic"
       in2="offsetBlur"
       mode="normal"
       id="feBlend1696" />
  </filter>
  <g
     transform="matrix(0.69,0,0,0.69,-168.99048,0.45061918)"
     id="g4001">
    <g
       id="g4356"
       transform="matrix(1.0665198,0,0,1.0291678,-18.208813,-3.8149963)"
       style="opacity:1">
      <g
         style="display:inline;fill:#fecb00;fill-opacity:1"
         id="g5079-7-0"
         transform="matrix(1.4442394,0,0,1.4442394,297.90899,0.7763667)">
        <path
           sodipodi:nodetypes="cccccc"
           style="fill:#eec2c2;fill-opacity:0.99215698;stroke:#000000;stroke-width:1"
           inkscape:connector-curvature="0"
           id="path5063-6-56"
           d="M -10.911031,7.4113606 -23.918306,11.540721 -30.848999,54.295473 9.0243552,54.2955 2.0935203,11.539854 Z" />
      </g>
    </g>
  </g>
  <g
     id="g2879"
     transform="translate(3.097746e-6,-2.9213108)">
    <path
       style="fill:#31d0fa;stroke:none;stroke-width:0.8;stroke-linecap:butt;stroke-linejoin:miter;stroke-miterlimit:4;stroke-dasharray:none;stroke-opacity:1;fill-opacity:0.72104406"
       d="m 19.693763,44.364407 c 6.1055,0.01857 22.88321,-1.679024 22.03779,4.940882 -0.45225,3.773888 -32.2409298,4.911775 -31.31745,-1.762916 0.69726,-3.194369 6.03738,-2.756322 9.27966,-3.177966 z"
       id="path13785"
       sodipodi:nodetypes="cccc" />
    <g
       id="g13854"
       transform="matrix(-1,0,0,1,195.66817,7.2035838)">
      <g
         id="g13836">
        <g
           id="g13742"
           transform="translate(0.19067796,-1.9703389)">
          <path
             style="fill:#f2f2f2;fill-opacity:1;stroke:none;stroke-width:0.8;stroke-linecap:butt;stroke-linejoin:miter;stroke-miterlimit:4;stroke-dasharray:none;stroke-opacity:1"
             d="m 177.90149,13.574112 c 0,0 -1.84718,-1.378005 -2.84476,-1.151449 -1.69872,0.385786 -3.59732,2.120388 -3.52209,3.860742 0.0792,1.831768 2.38599,3.16056 2.52595,3.816958 0.0594,0.278208 0.0504,0.89795 -0.37083,0.840844 -0.92055,-0.124799 -1.73201,-0.596632 -2.29058,-1.338917 -0.63384,-0.842306 -0.38736,-2.191222 -0.9729,-3.067794 -0.60884,-0.911462 -1.39611,-1.809908 -2.34598,-1.808934 -5.35625,0.0055 -12.21054,9.730597 -12.21054,9.730597 -2.09996,3.038597 -2.55464,4.334585 -2.1057,4.706979 0.83435,0.692095 4.29544,-1.716041 6.61103,-2.146673 0.18421,-0.03684 2.18449,-0.419946 2.33173,-0.30412 0.57257,0.450412 0.68387,0.282537 0.81326,0.253596 0.33443,-0.07481 0.45568,-0.289956 0.69813,-0.501184 0.61606,-0.536736 0.68619,-0.624255 1.46118,-0.719883 0.30736,-0.03793 1.05995,1.723456 1.35896,1.685862 1.02328,-0.128653 0.36642,-2.049315 1.23054,-2.343989 1.11494,-0.380204 4.66086,-0.350929 6.65238,-1.420518 0.93885,-0.504234 1.56314,-1.561614 1.8965,-2.573828 0.28988,-0.880204 0.26007,-1.816724 -0.51451,-3.067088 -0.3567,-0.575791 -1.72066,-0.454994 -1.72066,-0.454994 -1.20786,0 -1.2773,-2.344026 0.2032,-2.235166 l 3.86344,-0.09238 z"
             id="path13682"
             sodipodi:nodetypes="cssssssscscssssssssssscc" />
          <path
             style="fill:#999999;stroke:none;stroke-width:0.5;stroke-linecap:butt;stroke-linejoin:miter;stroke-miterlimit:4;stroke-dasharray:none;stroke-opacity:1"
             d="m 177.94756,13.67692 5.36352,1.358814 c -1.68871,0.02406 -2.40085,0.23367 -4.4596,0.319398 -0.83698,-0.505836 -0.61233,-1.117836 -0.90392,-1.678211"
             id="path13690"
             sodipodi:nodetypes="cccc" />
          <ellipse
             style="opacity:0.99;fill:#000000;fill-opacity:1;stroke:none;stroke-width:0.671429;stroke-linecap:round;stroke-linejoin:round;stroke-miterlimit:4;stroke-dasharray:none;paint-order:stroke fill markers"
             id="path8510-8"
             cx="175.6125"
             cy="13.817475"
             rx="0.80016649"
             ry="0.74682206" />
        </g>
        <path
           style="fill:none;stroke:#b3b3b3;stroke-width:0.8;stroke-linecap:round;stroke-linejoin:miter;stroke-miterlimit:4;stroke-dasharray:none;stroke-opacity:1"
           d="m 160.0935,24.128752 c 0.006,0.005 2.61697,-0.505317 4.79289,-2.566941 1.47852,-1.400857 5.77003,-5.33337 5.77003,-5.33337"
           id="path13744"
           sodipodi:nodetypes="csc" />
        <path
           style="fill:none;stroke:#b3b3b3;stroke-width:0.7;stroke-linecap:round;stroke-linejoin:miter;stroke-miterlimit:4;stroke-dasharray:none;stroke-opacity:1"
           d="m 157.48236,23.89951 c 1.40586,-1.82339 5.1495,-6.114184 7.0157,-7.554364"
           id="path13762"
           sodipodi:nodetypes="cc" />
        <path
           style="fill:none;stroke:#b3b3b3;stroke-width:0.7;stroke-linecap:round;stroke-linejoin:miter;stroke-miterlimit:4;stroke-dasharray:none;stroke-opacity:1"
           d="m 159.86715,23.751324 c 1.53296,-1.725579 6.32447,-6.093298 7.87244,-7.596857"
           id="path13764"
           sodipodi:nodetypes="cc" />
      </g>
      <g
         id="g13775">
        <path
           style="fill:none;stroke:#000000;stroke-width:0.8;stroke-linecap:butt;stroke-linejoin:miter;stroke-miterlimit:4;stroke-dasharray:none;stroke-opacity:1"
           d="m 167.29467,25.148112 -0.95697,8.528402 1.49723,7.17075 -1.74562,2.424289"
           id="path13766"
           sodipodi:nodetypes="cccc" />
        <path
           style="fill:none;stroke:#000000;stroke-width:0.8;stroke-linecap:butt;stroke-linejoin:miter;stroke-miterlimit:4;stroke-dasharray:none;stroke-opacity:1"
           d="m 167.83493,40.847264 0.97652,2.397961"
           id="path13768"
           sodipodi:nodetypes="cc" />
        <path
           style="fill:none;stroke:#000000;stroke-width:0.8;stroke-linecap:butt;stroke-linejoin:miter;stroke-miterlimit:4;stroke-dasharray:none;stroke-opacity:1"
           d="m 167.83493,40.847264 4.49355,1.320646"
           id="path13770"
           sodipodi:nodetypes="cc" />
      </g>
      <g
         id="g13783"
         transform="translate(-4.9886981)">
        <path
           style="fill:none;stroke:#000000;stroke-width:0.8;stroke-linecap:butt;stroke-linejoin:miter;stroke-miterlimit:4;stroke-dasharray:none;stroke-opacity:1"
           d="m 168.69722,24.952917 -0.39163,8.015411 1.07985,7.676691 -4.19503,2.828778"
           id="path13777"
           sodipodi:nodetypes="cccc" />
        <path
           style="fill:none;stroke:#000000;stroke-width:0.8;stroke-linecap:butt;stroke-linejoin:miter;stroke-miterlimit:4;stroke-dasharray:none;stroke-opacity:1"
           d="m 169.38547,40.645019 -0.21448,3.117053"
           id="path13779"
           sodipodi:nodetypes="cc" />
        <path
           style="fill:none;stroke:#000000;stroke-width:0.8;stroke-linecap:butt;stroke-linejoin:miter;stroke-miterlimit:4;stroke-dasharray:none;stroke-opacity:1"
           d="m 169.16076,40.667491 2.58346,1.590306"
           id="path13781"
           sodipodi:nodetypes="cc" />
      </g>
    </g>
    <path
       style="opacity:1;fill:#000000;stroke:none;stroke-width:1px;stroke-linecap:butt;stroke-linejoin:miter;stroke-opacity:1"
       d="m 34.089437,30.438593 c 0.419474,0.51768 0.924945,1.259837 1.073018,1.814583 2.200272,0.91302 3.9742,1.827925 6.387558,2.421317 0.333426,-0.238545 0.489449,-0.571008 0.314602,-1.078638 -0.382761,-0.797742 -0.629616,-1.595484 -1.227663,-2.393226 -2.316649,-0.278698 -3.943303,-0.0086 -6.547515,-0.764036 z"
       id="path15696"
       sodipodi:nodetypes="cccccc" />
    <path
       style="opacity:1;fill:#000000;stroke:none;stroke-width:1px;stroke-linecap:butt;stroke-linejoin:miter;stroke-opacity:1"
       d="m 21.88236,26.370538 c -0.502178,0.570656 -3.718377,-0.612695 -1.892954,-2.154434 0.539017,-0.45525 1.620763,-1.525424 1.620763,-1.525424 0.601406,-0.534545 0.339423,-1.192432 0.127118,-1.843221 -0.978694,-0.613508 -1.873753,-0.599754 -2.733051,-0.317796 l -2.175984,-0.05364 0.70168,-1.565852 1.601423,-0.922876 c 0.153993,0.611969 -0.009,1.359806 1.334746,1.461864 l 2.79661,0.127119 0.88983,1.716102 c -0.92944,3.476428 -3.115681,3.709979 -2.270181,5.078158 z"
       id="path15712"
       sodipodi:nodetypes="cscccccccccc" />
    <path
       style="opacity:1;fill:none;stroke:#aa0000;stroke-width:0.5;stroke-linecap:round;stroke-linejoin:miter;stroke-miterlimit:4;stroke-dasharray:none;stroke-opacity:1"
       d="m 18.80874,18.292687 c 1.179775,-0.776369 2.144313,-0.490481 3.596119,0.710444"
       id="path15714"
       sodipodi:nodetypes="cc" />
  </g>
</svg>
