<svg height="60" width="52.157" xmlns="http://www.w3.org/2000/svg"><path d="m119.88993 97.997198-21.701978 7.117802-10.187952 64.93133 63.77953-.00026-1.60383-10.22082-8.5849-54.70941z" fill="#eec2c2" fill-opacity=".992157" stroke="#000" stroke-width="1.44928" transform="matrix(.69 0 0 .69 -56.645443 -62.461916)"/><g transform="translate(-1.130193 1.078627)"><g fill="#d45500"><path d="m29.660555 38.865122c1.968001 3.075705 5.718076 7.339918 5.408304 8.649946 1.04836.479351 2.096719.790063 3.145079 0 2.826124-.477694 2.509473-1.092454 3.027837-2.279408.14578-.03645 2.565167-1.13158 2.696396-1.225028.402981-.286963-11.070408-7.43893-11.134049-7.372679.47362 1.373881.474925 2.747765 1.512264 4.121646-1.847354-.09438-3.266057-.968132-4.655831-1.894477z" opacity=".99"/><path d="m19.460417 25.57349c2.795382-3.789256-.945641-6.227719-6.112279-5.70779 3.98125-5.868919 13.455156-4.557866 17.242468-.689878-2.78265-.03027-5.490836-.558504-6.501037-.298874 1.830483.218071 4.774361.420095 6.416394 2.73105l-.313853.945306c-1.33529-.829341-3.819364-.84907-5.473336-.934819 2.924062.332369 4.964472 1.420508 5.752733 3.775231l-3.730288-.359546c2.207994.807501 2.808853 2.783828 3.775231 4.494323-3.620765-1.369484-6.459001-3.887208-11.056033-3.955003z" fill-opacity=".992157" opacity=".99"/><path d="m22.692759 25.992848s-3.824967-.83489-5.841471-.0593c-1.468084.564652-3.066492 1.766866-3.575061 3.127444-1.267151 3.390018-1.501422 3.027304-.605883 4.315233-.05715-1.204579 3.447994-4.281797 6.345552-2.164604.421497 1.691481 1.2804 3.750987 2.850934 4.07982 3.316125.694315 3.826179 1.877898 3.9987 1.55408-.717135 1.185352-1.214592 2.002975-2.372165 3.261731l1.601212 1.245388c.79079-1.556631 3.46309-3.410948 4.74434-2.55008 1.540312 1.034937 3.090486 2.148774 4.477469 1.957039-.740331-1.388869-1.257485-2.399805-1.512264-4.121642l-3.139266-3.750299c1.725093.635791 3.782702 2.351135 5.422692 2.735031.58832-.636934-3.102933-4.334132-4.254415-4.909163 1.611322 1.067237 4.604238 2.936493 5.94858 4.057126 1.494628-.650964-3.240256-4.614515-4.706914-5.363679 2.80067 1.091109 4.805161 2.624845 6.862931 4.282078.0065-.923321-4.707088-5.898551-5.243631-6.496277.493716-.06151 2.390702 1.45024 2.994452 1.883896l3.742087 3.403423c.230176-2.495566-3.905002-9.387893-6.214771-9.905528.995148-.350063 5.496148 5.460968 7.362693 6.006157.645163-10.337041-9.286032-13.929078-15.208131-14.094866 4.474208 3.88251 5.220233 8.537808-.711123 12.71436z" opacity=".99"/><path d="m23.97844 36.097451-2.830565 2.369295-.06289.712884s.932717.583999 1.027394.629017c.505062.240142 3.881052-2.8864 3.753168-2.96313z" fill-opacity=".992157" opacity=".99"/></g><path d="m21.084987 39.17963-2.620917 1.65641c-.06771-1.095813-.05185-2.495659-.587086-3.690228 0 0-.851047 3.11289-.754812 3.019277.403751-.392742-2.36319-3.855825-2.537036-3.585392 0 0 1.381385 4.148788 1.216104 3.816031-.685608-1.380349-3.735907-1.262034-3.648302-.922557 1.12524.728643 2.25048 1.131433 3.37572 2.285425.834043.887503 1.723236 2.0034.733855 3.983768.02099.146771.566111-.08387.566111-.08387.500014-.879991 1.458072-1.68364 1.362873-2.662834l4.067635-3.145081z" fill="#ffe680" fill-opacity=".994771" opacity=".99"/><path d="m23.684902 40.416696c-1.283732 1.126369-2.396089 2.338421-3.983772 3.312817l.71289-3.061211c-.657199-1.044589-.520495-.06979-.750304.0075-.172101.890326-.414152 1.334142-.840288 2.453068l-1.82706-2.879934.670949 3.228949-1.740283-1.111261c-.242131.148314-.498381.271207-.656454.570822-.06774.128406-.117458.28927-.140299.498505l2.935413 1.509638c.43555.01742.509862 2.109699-.0725 3.088291-.148662.24981-.459964.859655-.459964.859655.0062.07499 1.37239-.519973 1.340589-1.111262-.01126-.209368.848282-2.79475.848282-2.79475l5.372472-3.634909z" fill="#ffe680" fill-opacity=".994771" opacity=".99"/><path d="m12.670344 33.376225c-1.272233-1.531286-.360104-2.187149.22574-3.511782 1.988477-.265895 4.991319-1.328009 5.732882-.111231.19491.319813 0 1.123581 0 1.123581-3.399614-1.351676-6.336716 2.265227-5.958622 2.499435z" fill="#ffe680" fill-opacity=".994771" opacity=".99"/><path d="m38.213938 47.515068-3.987245-5.470576" fill="none"/><path d="m41.241775 45.23566-5.394319-4.176337" fill="none"/></g><g transform="matrix(.43615638 -.14681552 .14681552 .43615638 3.182976 18.893882)"><path d="m20.880994 29.874319a1.8723804 1.4431137 0 0 1 -.973391 1.265894 1.8723804 1.4431137 0 0 1 -1.908104-.0503 1.8723804 1.4431137 0 0 1 -.85889-1.314198l1.868005.09861z" transform="matrix(.99827924 -.05863924 .05205563 .99864419 0 0)"/><path d="m22.438053 28.613546 2.131679-.0575"/></g></svg>