<svg height="60" width="52.157" xmlns="http://www.w3.org/2000/svg"><path d="m-11.513118 7.3709662-12.666039 4.1004348-6.755522 42.756284 38.8413033-.00018-6.7472602-42.703992z" fill="#d7e3f4" fill-opacity=".968627" opacity=".99" stroke="#000" stroke-width=".980545" transform="matrix(1.04909020991 0 0 .99140659452 38.06787231676 -.58925563971)"/><g transform="translate(.264967 1.271186)"><path d="m22.754236 42.29873-5.59322 3.781779-2.701271-1.334746" fill="none" stroke="#cdb999" stroke-linecap="round" stroke-width=".8"/><path d="m21.355931 40.42373-4.957627 3.495762-2.542372-.826271" fill="none" stroke="#cdb999" stroke-linecap="round" stroke-width=".8"/><g fill-opacity=".992157"><path d="m32.05327 44.901142-3.93346-1.734389c-1.85318.465367-3.56596-.215529-5.38088-.863713-3.49911-4.027532-4.09194-9.039651-.49554-15.642212l.42155-.451705c1.20209.880828 2.48097 1.294357 3.79626 1.486409l.0301.873264c2.71049 3.99364 5.081 8.287544 6.43959 13.475131-.44586 1.224278-.50934 1.727579-.87762 2.857215z" fill="#356d57" opacity=".99"/><path d="m22.66494 26.209123c.3823-.813878.85312-1.675955 1.36993-2.563017-.24035-.840205-.10222-1.117547.38444-1.697941-.72757-1.123723.42952-1.514826 1.25605-1.223144.82867.629445 1.44643 1.243219 2.28906 2.136292.17698.351083.24892.544377.21579.579864l-.36337.517432c-.91218 1.159899-1.18008 2.439822-1.35564 3.736923-1.45361-.217005-2.76007-.651734-3.79626-1.486409" fill="#324bcf" opacity=".99"/><path d="m24.03487 23.646106c-.261386-.685374-.372814-1.51528.38444-1.697941-.574703-1.020542-.215885-1.443467 1.05333-1.341787l.20272.118643c.910698.475478.945587 1.176173.98594 1.99581-.3049-.02503-.60468-.09748-.94965.249163-.45382.384732-.6372 1.179505-1.67678.676112z" fill="#f00" opacity=".99"/></g><path d="m24.0864 20.960192c-.61583-.03818-1.84935.15398-2.36582.629338.52967.04871 1.83253.146488 2.10716.68302.14807-.153971.3042-.300419.59157-.324385-.35297-.312306-.35703-.649148-.33291-.987973z" fill="#fff6d5" opacity=".99"/><path d="m26.84951 29.098869c-1.42648 2.221217-2.19879 5.631441-2.05818 8.997933.0759 1.817681 2.05639 3.396707 3.32848 5.069951l3.93346 1.734389.87762-2.857215c-1.28092-5.128174-3.47898-9.252875-6.08138-12.945058z" fill="#cfb999" opacity=".99"/><path d="m32.05327 44.901142 8.57408 5.112446-7.69641-7.969661c-.42226.887553-1.23037 1.582183-.87767 2.857215z" fill="#cfb999" opacity=".99"/><path d="m17.161016 46.080509.03855 1.017497" fill="none" stroke="#cdb999" stroke-linecap="round" stroke-width=".8"/><path d="m16.398304 43.919492.136153.845436" fill="none" stroke="#cdb999" stroke-linecap="round" stroke-width=".8"/><circle cx="25.137711" cy="21.387712" fill-opacity=".992157" r=".381356"/></g><circle cx="26.078505" cy="14.155264" fill="#f00" fill-opacity=".992157" r="3.325799"/><path d="m21.816736 22.531781 2.275971 1.011955.59157-.324385-.33291-.987973z" fill="#fdfcf7"/></svg>