<svg height="60" width="52.157" xmlns="http://www.w3.org/2000/svg"><path d="m119.88993 98-21.701978 7.1178-10.187952 64.93133 63.77953-.00026-1.60383-10.22082-8.5849-54.70941z" fill="#e09191" fill-opacity=".992157" stroke="#000" stroke-width="1.44928" transform="matrix(-.69 0 0 -.69 108.80244 122.46578)"/><path d="m26.735126 39.160116-.68888 1.802237" fill="#392c2c" stroke="#392c2c" stroke-linecap="round" stroke-width=".5"/><path d="m25.453876 39.222616-.865197 1.448223" fill="#392c2c" stroke="#392c2c" stroke-linecap="round" stroke-width=".5"/><g transform="matrix(-1 0 0 -1 52.078982 58.103516)"><path d="m28.79688 25.796876.685279 1.06315-1.462003.65424c3.477372-.396589 5.048525-3.943654 4.783332-5.476762-.601137-3.475224-2.090137-4.599055-4.552488-5.236534-.201189-1.324572 1.906636-4.300584 3.749559-4.80097 2.203094-.598178 4.550272-.50405 7.986153-.910282-1.765518 2.682763-4.934274 2.80455-6.543074 2.927389 4.045005.558632 4.690467-.892317 6.818838-.999765-.454588 1.862392-4.098556 3.148466-5.989917 2.932264 1.244482.715984 3.666443-.279891 5.908371-.902235-.483406.916404-2.399332 2.642962-4.857885 2.338327 1.387468.436991 4.676986-.202857 4.538544-.224087-.01967 1.101601-2.740864 2.216907-3.975573 1.577096 1.189602.47957 1.802863.456922 3.846387.67394-.905407.538363-1.775309 1.209752-3.571774 1.081442-.202835-.01449 2.430836.584234 3.227711.740374-.796232.788881-1.633221 1.371898-3.193168 1.101708.868244.383027 2.706725.897015 2.967628.837925-.287012 1.091591-3.19576 1.335428-3.28992 1.049811-.07542.131986 2.274442.285094 2.949099.702567-.835876.895742-2.370066 1.055994-3.31047.914932.605466.815238 3.069597.876553 2.777707 1.05668-.202665.125066-1.881307 1.410186-3.376512.858533.777259.60846 2.79429.793351 2.79429.793351-1.05933.549605-2.778038 1.296436-3.811318.334104.196758.95781.943503 1.245986 1.497981 1.91028-1.030999-.150768-2.167692-.04787-2.924833-.855898l1.163442 2.841804c-1.279474.179696-2.163379-.960526-2.997653-1.44863l.693397 2.586498-1.48003-.918128 1.583217 5.31589-3.438113-2.057453 3.392896 10.547882s-3.685881 1.600885-5.385499 1.600885-5.385501-1.600885-5.385501-1.600885l3.392898-10.547882-3.438113 2.057453 1.583215-5.31589-1.480028.918128.693397-2.586498c-.834274.488104-1.718179 1.628326-2.997653 1.44863l1.163442-2.841804c-.757141.808028-1.893834.70513-2.924833.855898.554478-.664294 1.301223-.95247 1.497981-1.91028-1.03328.962332-2.751988.215501-3.811318-.334104 0 0 2.017031-.184891 2.79429-.793351-1.495205.551653-3.173847-.733467-3.376512-.858533-.29189-.180127 2.172241-.241442 2.777707-1.05668-.940404.141062-2.474594-.01919-3.31047-.914932.674657-.417473 3.024519-.570581 2.949099-.702567-.09416.285617-3.002908.04178-3.28992-1.049811.260903.05909 2.099384-.454898 2.967628-.837925-1.559947.27019-2.396936-.312827-3.193168-1.101708.796875-.15614 3.430546-.754864 3.227711-.740374-1.796465.12831-2.666367-.543079-3.571774-1.081442 2.043524-.217018 2.656785-.19437 3.846387-.67394-1.234709.639811-3.955903-.475495-3.975573-1.577096-.138442.02123 3.151076.661078 4.538544.224087-2.458553.304635-4.374479-1.421923-4.857885-2.338327 2.241928.622344 4.663889 1.618219 5.908371.902235-1.891361.216202-5.535329-1.069872-5.989917-2.932264 2.128371.107448 2.773833 1.558397 6.818838.999765-1.6088-.122839-4.777556-.244626-6.543074-2.927389 3.435881.406232 5.783059.312104 7.986153.910282 1.842923.500386 3.950786 3.476398 3.749597 4.80097-2.462351.637479-3.951389 1.76131-4.552526 5.236534-.265193 1.533108 1.30596 5.080173 4.783332 5.476762l-1.043306-.811141c.273972-.337938.601659-.661741.883344-.99765" fill="#392c2c"/><path d="m17.6934 40.145257c.194392-1.123993.290301-1.768436-.325444-2.660961-.694853-.295446-.986374.282996-1.34375.71875l.569432.377221.04197 1.717449c-1.002574-.644592-1.48121-1.255074-2.955155-1.37592-.761457.371692-1.245268.982926-.71875 1.453125.3125-.276659.625-.394791.9375-.421875l2.043544 1.134153c-.860228-.07121-.951618-.357189-2.641085.128141-1.164968.334658-.637379 1.50905-.105584 1.815831l.484375-.75 2.726333-.422794.05492 1.344669-1.0625 1.0625c.564459-.254333 1.624884.241011 1.871859-.760723.169491-.582627.316538-1.104573.169849-1.804918.844994-.09345 3.422848-3.085905 3.824714-3.567093-.124868-.262626-.04984-.629197-.656803-.641137z" fill="#a80"/><path d="m34.307552 40.145257c-.194392-1.123993-.290301-1.768436.325444-2.660961.694853-.295446.986374.282996 1.34375.71875l-.569432.377221-.04197 1.717449c1.002574-.644592 1.48121-1.255074 2.955155-1.37592.761457.371692 1.245268.982926.71875 1.453125-.3125-.276659-.625-.394791-.9375-.421875l-2.043544 1.134153c.860228-.07121.951618-.357189 2.641085.128141 1.164968.334658.637379 1.50905.105584 1.815831l-.484375-.75-2.726333-.422794-.05492 1.344669 1.0625 1.0625c-.564459-.254333-1.624884.241011-1.871859-.760723-.169491-.582627-.316538-1.104573-.169849-1.804918-.844994-.09345-3.422848-3.085905-3.824714-3.567093.124868-.262626.04984-.629197.656803-.641137z" fill="#a80"/><path d="m24.205806 22.78185c.665398-.0058 1.238267.143835 1.212786-.06647-.07609-.627989-1.325275-1.098705-2.152967-1.168498-1.801045-.151868-1.608094.584593-1.25 1.015625-.95588-.375821.06621-.02159.397748-1.49862l1.569432-1.085248c.367276-.755959 1.011183-1.128839 1.473192-1.169194 2.074428-.181194 3.26089 1.510272 3.737056 2.451095 0 0-1.21672-.20155-1.076095-.07655s.762293 5.124271.762293 5.124271l-.458946-.304596-.810585.539132-.906631-.769607c-.922938.6052-.681218.131535-1.110216.440371l-.468481-.486135-1.354329.04055c.45444-.54192.574444-1.214779.636189-1.892968.07319-.617575-.01085-.917843-.200446-1.093155z" fill="#918a6f"/><path d="m21.980468 22.785161c-.479921-.220192-.902815-.639852-.436459-1.408378.306539-.505157 1.254392-.869834 2.072949-.799954.159875.460774 2.55274 2.20467 1.871369 2.289421-.975892.09457-3.471653-.790415-3.507854-.08109z" fill="#484862"/><path d="m20.465446 31.435719a1.8723804 1.4431137 0 0 1 -.973392 1.265894 1.8723804 1.4431137 0 0 1 -1.908103-.0503 1.8723804 1.4431137 0 0 1 -.85889-1.314198l1.868004.09861z" transform="matrix(.30652817351 -.12363117888 .12160734248 .30733669548 16.234227 12.782205)"/></g></svg>