<svg height="60" width="52.157" xmlns="http://www.w3.org/2000/svg"><path d="m526.83519 8-17.83075 5.91961-9.33515 60.222122 54.33071-.000253-9.33517-60.222234z" fill="#b6cceb" fill-opacity=".968627" opacity=".99" stroke="#000" stroke-width="1.39425" transform="matrix(.69 0 0 -.69 -337.437404 58.32599)"/><path d="m21.088994 20.914958c-.573207-.832746-1.575237-1.899579-1.521956-2.960139 1.177998.318935 2.212062 1.067204 3.050025 1.499484z" fill="#c29771"/><path d="m22.648843 19.231845c-.573207-.832746-1.607017-1.677121-1.553736-2.737681 1.177998.318935 2.243842.844746 3.081805 1.277026z" fill="#c29771"/><g fill="none" stroke="#c29771" stroke-width=".8" transform="matrix(.97175288 .23600073 .23600073 -.97175288 -9.490746 53.785197)"><path d="m21.364778 42.962441-4.600954 3.374818-2.292105-.988751"/><path d="m14.381833 47.595669 2.381991-1.25841-.584262 2.516821"/></g><path d="m31.561708 17.301855c-2.104362-.175063-3.976086-.768873-6.634701.05372-6.80708 4.414013-4.814603 10.343114-1.414952 18.09333.372066.474047 1.006782 1.481639.984217 3.065953-.01537 1.079182.133729 4.430259.152933 5.479058 1.572504-.355841 1.347914-2.433736 2.33542-2.945258 1.550334-.803064 2.557387-2.50602 2.40535-3.937932l-.585333-5.512787c4.056474-3.601111 6.160434-7.802853 7.162295-12.469528l2.874142-4.566394c-2.526784.79419-4.955662 1.436296-7.279369 2.739835z" fill="#c29771"/><ellipse cx="27.118547" cy="-38.722008" rx=".985942" ry=".927945" transform="scale(1 -1)"/><path d="m21.911328 31.631191c.611907-5.738911 4.025269-11.097028 9.65038-14.329336-1.756037-.207738-4.694647-.758679-6.422178-.0389-3.124271 1.16762-4.143686 2.863371-4.703149 6.210303-.379837 3.346068.716966 6.20253 1.474947 8.157937z" fill="#dac4ae"/><g fill="none" stroke="#c29771" stroke-width=".8" transform="matrix(1 0 0 -1 -1.780999 60.629204)"><path d="m21.977238 42.022709-5.213414 4.31455-2.292105-.988751"/><path d="m14.381833 47.595669 2.381991-1.25841-.584262 2.516821"/></g></svg>