<?xml version="1.0" encoding="UTF-8" standalone="no"?>
<svg
   width="498.898"
   height="544.252"
   viewBox="0 0 1320 1440"
   version="1.1"
   id="svg40"
   sodipodi:docname="0HI.svg"
   inkscape:version="1.3 (0e150ed6c4, 2023-07-21)"
   xmlns:inkscape="http://www.inkscape.org/namespaces/inkscape"
   xmlns:sodipodi="http://sodipodi.sourceforge.net/DTD/sodipodi-0.dtd"
   xmlns="http://www.w3.org/2000/svg"
   xmlns:svg="http://www.w3.org/2000/svg">
  <sodipodi:namedview
     id="namedview40"
     pagecolor="#ffffff"
     bordercolor="#666666"
     borderopacity="1.0"
     inkscape:showpageshadow="2"
     inkscape:pageopacity="0.0"
     inkscape:pagecheckerboard="0"
     inkscape:deskcolor="#d1d1d1"
     inkscape:zoom="0.35355339"
     inkscape:cx="12.727922"
     inkscape:cy="1011.1627"
     inkscape:window-width="1916"
     inkscape:window-height="2022"
     inkscape:window-x="3830"
     inkscape:window-y="0"
     inkscape:window-maximized="0"
     inkscape:current-layer="svg40" />
  <style
     id="style1"><![CDATA[.B{color-interpolation-filters:sRGB}]]></style>
  <defs
     id="defs17">
    <linearGradient
       id="A"
       x1="228.547"
       y1="660.584"
       x2="270.281"
       y2="660.584"
       spreadMethod="reflect"
       gradientUnits="userSpaceOnUse">
      <stop
         offset="0"
         stop-color="#ffd285"
         id="stop1" />
      <stop
         offset=".232"
         stop-color="#ffcd79"
         id="stop2" />
      <stop
         offset=".616"
         stop-color="#ffca73"
         id="stop3" />
      <stop
         offset=".808"
         stop-color="#ffd386"
         id="stop4" />
      <stop
         offset="1"
         stop-color="#ffc86e"
         id="stop5" />
    </linearGradient>
    <linearGradient
       id="B"
       x1="660.031"
       y1="176.665"
       x2="660.029"
       y2="1147.595"
       gradientUnits="userSpaceOnUse">
      <stop
         offset=".6"
         stop-color="#fff"
         id="stop6" />
      <stop
         offset="1"
         id="stop7" />
    </linearGradient>
    <filter
       x="-.079"
       y="-.083"
       width="1.159"
       height="1.166"
       class="B"
       id="filter7">
      <feGaussianBlur
         stdDeviation=".392"
         id="feGaussianBlur7" />
    </filter>
    <filter
       id="D"
       x="-0.01052904"
       y="-0.011053209"
       width="1.0210581"
       height="1.0221064"
       class="B">
      <feGaussianBlur
         stdDeviation="2.441"
         id="feGaussianBlur8" />
    </filter>
    <filter
       id="E"
       x="-0.046356875"
       y="-0.049761792"
       width="1.0927138"
       height="1.0995236"
       class="B">
      <feGaussianBlur
         stdDeviation="7.514"
         id="feGaussianBlur9" />
    </filter>
    <clipPath
       id="F">
      <path
         d="M-164.064 423.763c-3.048-10.452-23.516-18.726-39.193-16.548-9.145 15.242-25.258 23.951-36.58 37.451 14.806.871 41.371 2.613 59.661-2.177 11.758-3.048 19.161-7.403 16.113-18.726zm-27.871 67.064c5.226-6.968 4.79-16.113-.436-23.08-8.71-11.758-28.306-18.726-44.419-16.113l-3.048 2.613c6.532 20.032 24.387 37.887 47.903 36.58zm32.226 109.741c-3.919-19.597-28.306-32.226-47.467-19.597 1.742 6.968-2.177 11.323-6.968 14.806-6.532 4.79-15.677 8.274-14.806 14.806 9.145-2.177 14.371 5.226 20.468 7.403 18.29-3.919 38.758-6.097 48.774-17.419zm-28.306 40.935c-7.839-10.887-24.822-20.032-38.758-20.032-2.613 21.339 16.113 35.274 30.919 47.903 14.806-7.403 14.806-18.29 7.839-27.871zm82.306 56.177c-.871-16.113-11.758-29.177-17.855-41.806-16.548-3.484-21.339-18.29-40.5-19.597.871 5.661 2.177 12.629 1.742 20.032-3.048 11.323-12.193 18.29-23.081 20.903-13.5 3.484-29.613.435-40.935-7.403-7.403-11.758-16.548-33.532-16.113-53.564 0-10.016 2.613-19.161 8.274-27 10.016-13.5 28.306-5.226 35.274-20.903-3.048-10.452-17.419-24.387-17.419-24.387 13.5 8.71 40.064 13.935 60.096 9.145 16.113-3.484 28.306-13.5 27.435-32.226-8.71-10.452-23.516-15.677-36.145-22.645-2.613-7.403-16.113-12.629-20.032-9.145 2.613 3.048 8.71 8.274 6.968 16.984-6.097 6.097-13.5 8.71-21.339 8.71-15.677 0-32.661-10.887-44.419-25.693-10.887-13.935-17.419-31.355-13.064-45.726 4.355-14.806 16.548-22.645 28.306-32.661 12.193-.435 26.564-9.581 31.79-20.903-15.677-20.903-48.338-22.645-74.903-30.048-3.484 3.484-4.355 8.274-6.532 12.629-33.097 2.177-67.064 11.322-97.548 10.452-23.08-.435-46.596-13.064-67.5-6.532 2.613 17.419 13.935 30.919 29.177 43.113 16.113-4.355 34.403-12.193 55.742-8.274-.871 4.355-5.661 4.79-5.226 10.452 15.242 34.403 15.677 77.516 15.677 122.37-10.452 1.306-27.871 2.177-40.5 3.919 2.177-15.677 3.484-28.742 0-39.193-3.048-10.016-10.452-16.984-24.387-21.339 8.71-8.71 21.339-21.339 33.097-31.355-.871-23.951-27.435-36.58-52.693-28.742.436 9.145 6.532 13.5 6.968 23.081-18.726 30.048-41.806 56.613-71.419 77.08 10.452 8.274 21.774 6.097 31.79.871 14.371-7.403 26.564-21.339 32.226-20.468 11.758 1.742 10.887 25.258 12.193 41.806-20.903 9.145-55.742 13.064-82.306 12.193-.871 5.226-10.016 3.484-8.274 10.887 8.274 15.677 20.032 19.597 33.532 19.161 17.419-.435 37.016-8.274 54.435-7.839-4.79 36.58-10.887 70.112-28.742 94.935-10.452 14.806-29.177 21.774-36.58 36.145 18.29 8.274 37.887 3.484 50.516-6.968 30.919-25.693 47.467-91.887 48.338-134.128 12.194-3.048 30.919-6.097 41.806-5.226-.436 27.871 4.355 88.403-9.581 128.902 9.145 10.887 13.5 39.629 37.887 35.274-.436-4.355 4.355-1.742 4.79-4.79-.436-65.322-4.79-107.128-.871-162.87 11.323-.435 28.742-2.177 40.5-.435 5.661 16.984 0 34.838.871 52.693 2.177 41.371 21.774 72.725 48.774 92.322 18.29 7.403 49.645 15.242 76.209 12.629 18.726-1.742 35.709-8.71 43.548-24.822zm-125.854-159.822s-29.613-12.629-47.467-8.71c-6.968 8.274-21.339 14.371-37.451 10.016-.436-10.452-2.613-36.145-.436-53.129 1.306-11.322 9.581-20.468 10.016-29.613 1.742-23.516-23.516-36.58-50.08-45.726 21.339-7.839 46.161-10.016 72.725-7.403-4.79 21.774-2.613 43.113 3.048 62.274 9.145 30.048 28.306 55.742 49.645 72.29z"
         fill="#000"
         stroke-width="21.607"
         id="path9" />
    </clipPath>
    <clipPath
       id="G">
      <path
         d="M1799.133 1043.254a7.22 7.22 0 0 0-7.237 7.237v7.442l-15.399 27.515c-1.385 2.475-1.385 6.457 0 8.932h15.399v76.939h-76.939v-15.399c-2.475-1.385-6.457-1.385-8.932 0l-27.518 15.399h-7.439a7.22 7.22 0 0 0-7.237 7.237v2.441 2.438c0 4.01 3.227 7.24 7.237 7.24h7.445l27.512 15.395c2.475 1.385 6.457 1.385 8.932 0v-15.395h76.939v76.936h-15.399c-1.385 2.475-1.385 6.46 0 8.935l15.399 27.515v7.439c0 4.01 3.227 7.24 7.237 7.24h4.88c4.01 0 7.24-3.23 7.24-7.24v-7.445l15.395-27.508c1.385-2.475 1.385-6.46 0-8.935h-15.395v-76.936h76.936v15.395c2.475 1.385 6.461 1.385 8.935 0l27.508-15.395h7.445c4.01 0 7.24-3.23 7.24-7.24v-4.88c0-4.01-3.23-7.237-7.24-7.237h-7.439l-27.515-15.399c-2.475-1.385-6.46-1.385-8.935 0v15.399h-76.936v-76.939h15.395c1.385-2.475 1.385-6.457 0-8.932l-15.395-27.508v-7.449c0-4.01-3.23-7.237-7.24-7.237zm2.438 137.74h.01v.01h-.01z"
         opacity="1"
         fill="#000"
         fill-opacity="1"
         stroke-width="10.708"
         id="path10" />
    </clipPath>
    <filter
       id="H"
       x="-0.048002438"
       y="-0.048002438"
       width="1.0960049"
       height="1.0960049"
       class="B">
      <feGaussianBlur
         stdDeviation="5.51"
         id="feGaussianBlur10" />
    </filter>
    <filter
       id="I"
       x="-0.18226745"
       y="-0.26178236"
       width="1.3645349"
       height="1.5235647"
       class="B">
      <feGaussianBlur
         stdDeviation="1.588"
         id="feGaussianBlur11" />
    </filter>
    <filter
       id="J"
       x="-0.2422347"
       y="-0.36971535"
       width="1.4844694"
       height="1.7394307"
       class="B">
      <feGaussianBlur
         stdDeviation="1.588"
         id="feGaussianBlur12" />
    </filter>
    <filter
       id="K"
       x="-0.18958592"
       y="-0.19815985"
       width="1.3791718"
       height="1.3963197"
       class="B">
      <feGaussianBlur
         stdDeviation="1.588"
         id="feGaussianBlur13" />
    </filter>
    <filter
       id="L"
       x="-0.21300957"
       y="-0.26568632"
       width="1.4260191"
       height="1.5313726"
       class="B">
      <feGaussianBlur
         stdDeviation="1.588"
         id="feGaussianBlur14" />
    </filter>
    <filter
       id="M"
       x="-0.33132045"
       y="-0.30949197"
       width="1.6626409"
       height="1.6189839"
       class="B">
      <feGaussianBlur
         stdDeviation="1.588"
         id="feGaussianBlur15" />
    </filter>
    <filter
       id="N"
       x="-0.17851828"
       y="-0.16394989"
       width="1.3570366"
       height="1.3278998"
       class="B">
      <feGaussianBlur
         stdDeviation="1.588"
         id="feGaussianBlur16" />
    </filter>
    <filter
       id="O"
       x="-0.2909216"
       y="-0.27158998"
       width="1.5818432"
       height="1.54318"
       class="B">
      <feGaussianBlur
         stdDeviation="1.588"
         id="feGaussianBlur17" />
    </filter>
  </defs>
  <path
     style="mix-blend-mode:multiply"
     d="M-2758.546 269.702l24.453 34.897h517.576l14.375-11.25-104.69-501.167-31.462-17.601z"
     transform="matrix(-2.0051 0 0 2.0051 -4364.0776 800.64872)"
     opacity=".5"
     filter="url(#D)"
     id="path17" />
  <path
     d="M660.043 176.664L306.898 293.591 139.681 1267.61l13.3 73.818 20.099 16.718h973.903l20.099-16.718 13.324-73.818-167.217-974.019z"
     fill="url(#A)"
     id="path18" />
  <path
     d="M660.031 176.665L306.887 293.593 139.67 1267.612l13.312 73.816 20.099 16.718h973.903l20.099-16.718 13.312-73.816-167.217-974.019z"
     opacity=".25"
     fill="url(#B)"
     style="mix-blend-mode:overlay"
     id="path19" />
  <path
     d="M1159.664 1262.568l-.043 21.064 20.75-16.013-20.707-5.052z"
     opacity=".8"
     fill="#fff"
     id="path20" />
  <path
     d="M1180.371 1267.619l-20.75 16.013-12.637 74.514 20.099-16.718 13.288-73.808z"
     opacity=".6"
     id="path21" />
  <g
     fill="#fff"
     id="g24">
    <path
       d="M306.85 293.583l17.664 13.248L660 193.055v-16.402z"
       opacity=".3"
       id="path22" />
    <path
       d="M1013.15 293.583l-17.664 13.248L660 193.055v-16.402z"
       opacity=".3"
       id="path23" />
    <path
       d="M1013.15 293.583l-17.664 13.248 164.177 955.737 20.707 5.052z"
       opacity=".3"
       id="path24" />
  </g>
  <path
     d="M306.85 293.583l17.664 13.248-164.177 955.737-20.707 5.052z"
     opacity=".4"
     id="path25" />
  <path
     d="M139.629 1267.619l20.75 16.013 12.702 74.514-20.099-16.718-13.353-73.808z"
     opacity=".9"
     id="path26" />
  <path
     d="M160.337 1262.568l.043 21.064-20.75-16.013 20.707-5.052z"
     opacity=".6"
     id="path27" />
  <path
     d="M160.337 1262.568h999.327l-.043 21.064H160.379l-.043-21.064z"
     opacity=".2"
     id="path28" />
  <path
     d="M1159.621 1283.632l-12.637 74.514H173.081l-12.702-74.514h999.241z"
     opacity=".7"
     id="path29" />
  <path
     id="path15015-6-8"
     style="opacity:0.99;fill:#000000;stroke:none;stroke-width:10.6546px;stroke-linecap:butt;stroke-linejoin:round;stroke-opacity:1"
     d="m 871.5499,329.42828 v 0 c -143.31028,15.7277 -279.39834,15.7277 -423.12011,0.254 -0.9652,-0.1021 -0.7874,1.3716 -0.5588,2.2606 7.87146,31.8546 10.67054,35.7916 32.69868,59.2366 l 358.71233,-0.1024 c 22.9134,-22.4866 24.8844,-27.0278 32.8661,-59.0692 0.2235,-0.9144 0.3556,-2.6898 -0.5842,-2.5984 z m -391.43718,78.0432 v 272.6423 h 22.67965 c 8.24992,-79.3402 75.56446,-141.4859 157.03797,-141.4859 81.47076,0 148.77226,62.1457 157.01256,141.4859 H 839.52 v -272.6423 z m 179.71635,147.5575 c -78.14891,0 -141.5074,63.3371 -141.51172,141.4858 0,78.1591 63.35291,141.5216 141.51172,141.5115 78.14866,0 141.49573,-63.3601 141.48583,-141.5115 0,-78.1385 -63.34683,-141.4813 -141.48583,-141.4858 z m -13.15973,49.3956 v 60.3816 l -42.66868,-42.707 c 12.51203,-9.3853 27.18611,-15.4635 42.66868,-17.6733 z m 26.29305,0 c 15.48129,2.2098 30.15766,8.2905 42.66817,17.6733 l -42.66817,42.7068 z m -87.53649,36.2882 42.69433,42.6941 h -60.36866 c 2.2098,-15.4915 8.28548,-30.176 17.67331,-42.6941 z m 148.81828,0 c 9.39042,12.5196 15.46862,27.2026 17.67332,42.6941 h -60.38162 z m -252.58816,55.3773 c -9.08811,0.044 -17.94763,0.127 -17.94509,0.127 l -13.42897,23.1038 v 26.1 h 60.343 c -7.27455,-12.578 -10.74673,-32.8655 -9.65961,-49.2025 -0.9144,-0.1827 -10.22096,-0.1743 -19.30907,-0.1301 z m 356.30698,0 c -9.0881,-0.044 -18.4023,-0.053 -19.3091,0.127 v 0 c 1.0668,16.3373 -2.413,36.6179 -9.6748,49.2036 h 60.3557 v -26.1 l -13.4163,-23.1039 c 0,0 -8.857,-0.083 -17.9451,-0.127 z m -270.21143,13.5458 h 60.36866 l -42.66791,42.6941 c -9.398,-12.5146 -15.48638,-27.2001 -17.70126,-42.6941 z m 123.79853,0 h 60.3682 c -2.2098,15.494 -8.3109,30.1803 -17.714,42.6941 z m -44.88127,18.6131 v 60.343 c -15.46859,-2.2352 -30.13048,-8.2956 -42.62956,-17.6733 z m 26.29356,0 42.66792,42.6682 c -12.51204,9.3853 -27.18612,15.4635 -42.66792,17.6759 z"
     sodipodi:nodetypes="ccscccscccccscccccccccccccccccccccccccscccccssccccccscccccccccccccccc" />
  <path
     d="m 824.932,827.5485 c -3.48,-11.932 -26.846,-21.378 -44.744,-18.892 -10.44,17.4 -28.835,27.343 -41.761,42.755 16.903,0.994 47.23,2.983 68.11,-2.486 13.423,-3.48 21.875,-8.452 18.395,-21.378 z m -31.818,76.562 c 5.966,-7.954 5.469,-18.395 -0.497,-26.349 -9.943,-13.423 -32.315,-21.378 -50.71,-18.395 l -3.48,2.983 c 7.457,22.869 27.841,43.252 54.687,41.761 z m 36.789,125.283 c -4.474,-22.372 -32.315,-36.789 -54.19,-22.372 1.989,7.954 -2.486,12.926 -7.954,16.903 -7.457,5.469 -17.898,9.446 -16.903,16.903 10.44,-2.486 16.406,5.966 23.366,8.452 20.88,-4.474 44.247,-6.96 55.681,-19.886 z m -32.315,46.732 c -8.949,-12.429 -28.338,-22.869 -44.247,-22.869 -2.983,24.361 18.395,40.269 35.298,54.687 16.903,-8.452 16.903,-20.88 8.949,-31.818 z m 73.579,16.406 c -7.43143,-6.578 -24.361,-20.88 -46.235,-22.372 0.994,6.463 2.486,14.417 1.989,22.869 -3.48,12.926 -13.92,20.88 -26.349,23.863 -15.412,3.977 -33.806,0.497 -46.732,-8.452 -8.452,-13.423 -18.892,-38.281 -18.395,-61.15 0,-11.435 2.983,-21.875 9.446,-30.824 11.435,-15.412 32.315,-5.966 40.269,-23.863 -3.48,-11.932 -19.886,-27.841 -19.886,-27.841 15.412,9.943 45.738,15.909 68.607,10.44 18.395,-3.977 32.315,-15.412 31.321,-36.789 -9.943,-11.932 -26.846,-17.898 -41.264,-25.852 -2.983,-8.452 -18.395,-14.417 -22.869,-10.44 2.983,3.48 9.943,9.446 7.954,19.389 -6.96,6.96 -15.412,9.943 -24.361,9.943 -17.898,0 -37.287,-12.429 -50.71,-29.332 -12.429,-15.909 -19.886,-35.795 -14.915,-52.201 4.972,-16.903 18.892,-25.852 32.315,-37.287 13.92,-0.497 30.326,-10.937 36.292,-23.863 -17.898,-23.863 -55.184,-25.852 -85.511,-34.304 -3.977,3.977 -4.972,9.446 -7.457,14.417 -37.784,2.486 -76.562,12.926 -111.363,11.932 -26.349,-0.497 -53.195,-14.915 -77.059,-7.457 2.983,19.886 15.909,35.298 33.309,49.218 18.395,-4.972 39.275,-13.92 63.636,-9.446 -0.994,4.972 -6.463,5.469 -5.966,11.932 17.4,39.275 17.898,88.493 17.898,139.7 -11.932,1.491 -31.818,2.486 -46.235,4.474 2.486,-17.898 3.977,-32.812 0,-44.744 -3.48,-11.435 -11.932,-19.389 -27.841,-24.361 9.943,-9.943 24.361,-24.361 37.784,-35.795 -0.994,-27.343 -31.321,-41.761 -60.156,-32.812 0.497,10.44 7.457,15.412 7.954,26.349 -21.378,34.304 -47.727,64.63 -81.533,87.996 11.932,9.446 24.858,6.96 36.292,0.994 16.406,-8.452 30.326,-24.361 36.789,-23.366 13.423,1.989 12.429,28.835 13.92,47.727 -23.863,10.44 -63.636,14.915 -93.962,13.92 -0.994,5.966 -11.435,3.977 -9.446,12.42897 9.446,17.89803 22.869,22.37203 38.281,21.87503 19.886,-0.497 42.258,-9.446 62.144,-8.949 -5.469,41.761 -12.429,80.042 -32.812,108.38 -11.932,16.903 -33.309,24.858 -41.761,41.264 20.88,9.446 43.252,3.977 57.67,-7.954 35.298,-29.332 54.19,-104.9 55.184,-153.12403 13.92,-3.47997 35.298,-6.95997 47.727,-5.96597 -0.497,31.818 4.972,100.922 -10.937,147.158 10.44,12.429 15.412,45.241 43.252,40.269 -0.497,-4.972 4.972,-1.989 5.469,-5.469 -0.497,-74.573 -5.469,-122.3 -0.994,-185.936 12.926,-0.497 32.812,-2.486 46.235,-0.497 6.463,19.389 0,39.772 0.994,60.156 2.486,47.23 24.858,83.025 55.681,105.397 20.88,8.452 56.676,17.4 87.002,14.417 69.94461,-10.1772 51.03996,-58.1249 29.335,-76.062 z M 747.874,957.8025 c 0,0 -33.806,-14.417 -54.19,-9.943 -7.954,9.446 -24.36,16.406 -42.755,11.435 -0.497,-11.932 -2.983,-41.264 -0.497,-60.653 1.491,-12.926 10.937,-23.366 11.435,-33.806 1.989,-26.846 -26.846,-41.761 -57.173,-52.201 24.361,-8.949 52.698,-11.435 83.025,-8.452 -5.469,24.858 -2.983,49.218 3.48,71.093 10.44,34.304 32.315,63.636 56.676,82.528 z"
     id="path30"
     style="fill:#f2f2f2;stroke:#1a1a1a;stroke-width:37.04165129;stroke-dasharray:none;paint-order:stroke fill markers"
     sodipodi:nodetypes="cccccccccccccccccccccccccccccccccccscccccccccccccccccccccccccccccccccccccccccccccccccc" />
</svg>
