<?xml version="1.0" encoding="UTF-8" standalone="no"?>
<svg
   width="498.898"
   height="544.252"
   viewBox="0 0 1320 1440"
   version="1.1"
   id="svg30"
   sodipodi:docname="0KE.svg"
   inkscape:version="1.3 (0e150ed6c4, 2023-07-21)"
   xmlns:inkscape="http://www.inkscape.org/namespaces/inkscape"
   xmlns:sodipodi="http://sodipodi.sourceforge.net/DTD/sodipodi-0.dtd"
   xmlns:xlink="http://www.w3.org/1999/xlink"
   xmlns="http://www.w3.org/2000/svg"
   xmlns:svg="http://www.w3.org/2000/svg">
  <sodipodi:namedview
     id="namedview30"
     pagecolor="#ffffff"
     bordercolor="#666666"
     borderopacity="1.0"
     inkscape:showpageshadow="2"
     inkscape:pageopacity="0.0"
     inkscape:pagecheckerboard="0"
     inkscape:deskcolor="#d1d1d1"
     inkscape:zoom="0.58107917"
     inkscape:cx="-109.27943"
     inkscape:cy="117.02364"
     inkscape:window-width="1941"
     inkscape:window-height="1739"
     inkscape:window-x="4388"
     inkscape:window-y="212"
     inkscape:window-maximized="0"
     inkscape:current-layer="svg30" />
  <style
     id="style1"><![CDATA[.B{color-interpolation-filters:sRGB}]]></style>
  <defs
     id="defs13">
    <linearGradient
       id="A"
       x1="-1430.769"
       y1="-77.47"
       x2="-1409.955"
       y2="-77.47"
       spreadMethod="reflect"
       gradientUnits="userSpaceOnUse">
      <stop
         offset="0"
         stop-color="#ffd285"
         id="stop1" />
      <stop
         offset=".232"
         stop-color="#ffcd79"
         id="stop2" />
      <stop
         offset=".616"
         stop-color="#ffca73"
         id="stop3" />
      <stop
         offset=".808"
         stop-color="#ffd386"
         id="stop4" />
      <stop
         offset="1"
         stop-color="#ffc86e"
         id="stop5" />
    </linearGradient>
    <linearGradient
       id="B"
       x1="-1215.571"
       y1="-296.329"
       x2="-1215.572"
       y2="165.415"
       gradientUnits="userSpaceOnUse">
      <stop
         offset=".601"
         stop-color="#fff"
         id="stop6" />
      <stop
         offset="1"
         id="stop7" />
    </linearGradient>
    <filter
       id="C"
       x="-0.011867782"
       y="-0.01125585"
       width="1.0237356"
       height="1.0225117"
       class="B">
      <feGaussianBlur
         stdDeviation="2.441"
         id="feGaussianBlur7" />
    </filter>
    <filter
       x="-.079"
       y="-.083"
       width="1.159"
       height="1.166"
       class="B"
       id="filter8">
      <feGaussianBlur
         stdDeviation=".392"
         id="feGaussianBlur8" />
    </filter>
    <path
       id="E"
       d="M-1215.571-296.329l-149.881 40.669-79.82 472.51 6.639 36.814 10.024 8.338h426.077l10.024-8.338 6.639-36.814-79.82-472.51z" />
    <filter
       id="F"
       x="-0.046600848"
       y="-0.052683981"
       width="1.0931266"
       height="1.1053611"
       class="B">
      <feGaussianBlur
         stdDeviation="7.061"
         id="feGaussianBlur9" />
    </filter>
    <clipPath
       id="G">
      <path
         d="M-60.113 701.928c-14.394-20.618-36.957-28.787-61.076-33.066-7.002 14.394-38.902 11.281-54.073 8.558 3.501-15.95 2.334-33.066 3.89-46.682 20.618-4.668 41.625-1.945 62.632.389 7.002-5.057 19.84 1.556 21.785-10.503-11.281-11.67-28.009-16.728-44.737-22.174-10.503 8.947-25.675 10.114-39.291 6.224 3.112-13.616 4.279-21.785-1.945-32.677 27.231-3.89 63.799-1.945 91.03-6.224 4.668-.778 3.89-5.835 2.723-8.947-12.06-8.558-29.176-22.563-45.515-21.007-5.835.778-10.503 8.169-16.728 9.336-12.06 2.334-22.952 3.112-34.623 1.945.778-13.227-1.556-24.897 1.945-39.68 33.455-6.224 62.243.389 84.417-10.892-3.112-22.563-38.124-32.677-50.183-18.673-10.114 1.556-20.618 3.501-33.066 1.556 2.334-21.007 5.446-31.51 6.613-50.961-11.281-14.005-35.011-41.625-54.851-32.288 2.334 8.558 10.892 21.396 15.95 31.51 1.945 14.394 3.112 38.124 2.723 53.684-10.503 1.556-25.286 3.112-40.458.389-14.783-2.723-31.51-15.95-38.124-3.501 8.169 16.728 14.005 31.51 32.288 38.124 16.339-6.224 31.899-7.391 45.904-7.391-.389 10.504 0 27.62 1.167 40.069-26.064 1.167-56.018 7.391-76.636-1.556-3.501-.778-7.78 2.723-11.282 5.835-12.838-8.558-23.341-18.284-19.451-39.68 10.892-3.501 22.174-6.613 32.288-10.892-.778-16.728-23.73-13.227-34.233-23.341 1.945-19.84 5.835-52.906.778-68.078-12.449-12.06-28.398-31.121-48.627-24.508 14.394 24.119 23.73 64.577 21.785 101.533-24.897 13.616-48.627 3.89-73.135-4.279-2.723-.389-4.668 3.501-3.89 8.558 10.503 15.172 19.451 32.288 37.735 38.124 10.114-6.224 23.73-12.449 35.012-7.78-8.169 26.064-76.247 110.092-97.643 127.598.778 7.002 14.394.389 21.007 11.281 29.954-16.728 59.909-65.744 82.083-89.863-.389 32.677 3.89 76.636-1.945 112.037-21.785-1.556-42.014-12.06-63.41-15.95 9.336 10.892 17.117 17.117 23.341 28.398 11.281 8.558 31.51 15.172 43.57 24.897 8.558 6.613 12.838 15.561 23.73 6.613 7.78-58.353-5.057-109.314-1.167-162.998 12.06 9.725 22.563 21.785 38.124 19.84-1.556-12.838-16.728-17.895-14.783-29.954 11.671 9.336 15.561 24.119 31.899 26.453 18.284 2.334 40.847-19.062 53.684.389 1.167 7.391 2.723 15.561 1.945 25.675-28.009 6.613-51.739 0-75.858.389 2.723 21.007 21.007 23.73 32.288 35.012 14.005-6.224 32.288-6.613 43.959-9.336.778 16.728.389 29.565 1.167 45.904-31.121.778-73.524 9.725-104.257 3.89 3.89 24.897 25.286 36.179 45.126 37.735 46.293-29.176 142.38-17.506 192.174-10.114 5.057.778 7.391-3.89 6.224-8.947z"
         fill="#000"
         stroke-width="19.301"
         id="path9" />
    </clipPath>
    <clipPath
       id="H">
      <path
         d="M476.332 785.063c24.573 19.377 49.147 38.75 79.757 109.306s67.261 192.292 103.911 314.027c-24.373-122.933-39.539-269.394-70.151-339.953s-76.668-65.204-113.518-83.38zm183.668 423.333c36.649-121.735 73.296-243.471 103.906-314.027s55.184-89.929 79.757-109.306c-36.85 18.176-82.9 12.821-113.512 83.38s-45.778 217.02-70.151 339.953z"
         stroke-width="1"
         id="path10" />
    </clipPath>
    <filter
       id="I"
       x="-0.05889734"
       y="-0.04050145"
       width="1.1177947"
       height="1.0810029"
       class="B">
      <feGaussianBlur
         stdDeviation="7.144"
         id="feGaussianBlur10" />
    </filter>
    <filter
       id="J"
       x="-0.15936934"
       y="-0.25543206"
       width="1.3187387"
       height="1.5108641"
       class="B">
      <feGaussianBlur
         stdDeviation=".838"
         id="feGaussianBlur11" />
    </filter>
    <filter
       id="K"
       x="-0.1198745"
       y="-0.20702689"
       width="1.239749"
       height="1.4140538"
       class="B">
      <feGaussianBlur
         stdDeviation=".838"
         id="feGaussianBlur12" />
    </filter>
    <filter
       id="L"
       x="-0.13329635"
       y="-0.21058945"
       width="1.2665927"
       height="1.4211789"
       class="B">
      <feGaussianBlur
         stdDeviation=".838"
         id="feGaussianBlur13" />
    </filter>
  </defs>
  <path
     style="mix-blend-mode:multiply"
     d="M-2728.669 264.709l28.198 35.189h455.354l10.087-9.413-98.043-493.462-31.462-17.601z"
     transform="matrix(-2.0051 0 0 2.0051 -4364.0778 816.66224)"
     opacity=".5"
     filter="url(#C)"
     id="path13" />
  <use
     xlink:href="#E"
     fill="url(#A)"
     transform="matrix(2.0051 0 0 2.0051 3097.3821 831.9343)"
     id="use13" />
  <use
     xlink:href="#E"
     x="315.66599"
     y="-40.203999"
     opacity="0.25"
     fill="url(#B)"
     transform="matrix(2.0051,0,0,2.0051,2464.3988,912.54909)"
     style="mix-blend-mode:overlay;fill:url(#B)"
     id="use14" />
  <path
     d="M1099.874 1261.697l-.043 21.064 20.75-16.013-20.707-5.052z"
     opacity=".8"
     fill="#fff"
     id="path14" />
  <path
     d="M1120.582 1266.748l-20.75 16.013-12.661 74.524 20.099-16.719 13.312-73.818z"
     opacity=".6"
     id="path15" />
  <g
     fill="#fff"
     id="g18">
    <path
       d="M359.469 319.303l17.664 13.248L660 254.157v-16.402z"
       opacity=".3"
       id="path16" />
    <path
       d="M960.531 319.303l-17.664 13.248L660 254.157v-16.402z"
       opacity=".3"
       id="path17" />
    <path
       d="M960.531 319.303l-17.664 13.248 157.007 929.146 20.707 5.052z"
       opacity=".3"
       id="path18" />
  </g>
  <path
     d="M359.469 319.303l17.664 13.248-157.007 929.146-20.707 5.052z"
     opacity=".4"
     id="path19" />
  <path
     d="M199.419 1266.748l20.75 16.013 12.661 74.524-20.099-16.719-13.312-73.818z"
     opacity=".9"
     id="path20" />
  <path
     d="M220.126 1261.697l.043 21.064-20.75-16.013 20.707-5.052z"
     opacity=".6"
     id="path21" />
  <path
     d="M220.126 1261.697h879.749l-.043 21.064H220.169l-.043-21.064z"
     opacity=".2"
     id="path22" />
  <path
     d="M1099.831 1282.761l-12.661 74.524H232.829l-12.661-74.524h879.663z"
     opacity=".7"
     id="path23" />
  <g
     id="g4469"
     transform="matrix(253.99989,0,0,253.99989,-2751.3229,1166.13)" />
  <g
     style="opacity:0.99;fill:#ffd5e5;fill-opacity:1"
     id="g4579"
     transform="matrix(6.608907,0,0,6.4631644,-2596.6693,684.80096)" />
  <g
     transform="matrix(2.6191326,0,0,3.1879272,-3235.6395,919.26746)"
     id="g2180-9-7"
     style="opacity:0.99;fill:#000000;stroke:#000000;stroke-width:1.4609;stroke-miterlimit:4;stroke-dasharray:none;paint-order:stroke fill markers" />
  <path
     id="path7388-6"
     style="color:#000000;font-style:normal;font-variant:normal;font-weight:normal;font-stretch:normal;font-size:medium;line-height:normal;font-family:sans-serif;font-variant-ligatures:normal;font-variant-position:normal;font-variant-caps:normal;font-variant-numeric:normal;font-variant-alternates:normal;font-variant-east-asian:normal;font-feature-settings:normal;font-variation-settings:normal;text-indent:0;text-align:start;text-decoration:none;text-decoration-line:none;text-decoration-style:solid;text-decoration-color:#000000;letter-spacing:normal;word-spacing:normal;text-transform:none;writing-mode:lr-tb;direction:ltr;text-orientation:mixed;dominant-baseline:auto;baseline-shift:baseline;text-anchor:start;white-space:normal;shape-padding:0;shape-margin:0;inline-size:0;clip-rule:nonzero;display:inline;overflow:visible;visibility:visible;opacity:0.99;isolation:auto;mix-blend-mode:normal;color-interpolation:sRGB;color-interpolation-filters:linearRGB;solid-color:#000000;solid-opacity:1;vector-effect:none;fill:#000000;fill-opacity:1;fill-rule:nonzero;stroke:none;stroke-width:9.72286;stroke-linecap:butt;stroke-linejoin:miter;stroke-miterlimit:4;stroke-dasharray:none;stroke-dashoffset:0;stroke-opacity:1;color-rendering:auto;image-rendering:auto;shape-rendering:auto;text-rendering:auto;enable-background:accumulate;stop-color:#000000"
     d="m 618.43307,336.06457 -4.24067,3.77167 c -11.31066,10.06842 -16.17394,22.79684 -18.53473,35.74294 -2.06691,11.32853 -2.42849,22.86559 -3.58732,34.01236 l -9.00124,-1.19378 -44.49559,-52.48197 -3.36747,6.33622 c -12.85986,24.25942 -8.06436,50.95032 -7.94731,75.08759 -19.19625,39.6374 -32.61612,71.50811 -30.46144,108.65781 -25.48685,28.56853 -48.14043,59.15058 -62.88788,94.70188 l -0.15652,0.35131 -0.0785,0.37808 c -4.21196,17.64833 -8.23496,36.42751 -0.88349,55.53842 l 0.63693,1.65599 9.72861,5.39854 c 5.68917,11.78855 9.76144,20.01089 16.77795,24.95977 6.18641,4.36848 13.9611,5.18539 24.58241,4.27626 l 32.85555,-46.16056 13.2009,9.41669 -31.17692,43.79379 2.54975,6.19426 4.2757,-1.37861 c 21.70692,-6.98982 33.27999,-16.99232 41.4779,-29.22633 7.97603,-11.90237 13.24814,-25.59921 23.37286,-41.53072 32.12673,-14.87565 46.72541,-22.70179 78.5865,-34.64946 l 0.39038,-0.14253 -0.96567,-0.55887 c 4.53868,-7.92094 9.53956,-25.63544 12.64203,-42.08951 1.56151,-8.22728 2.72859,-16.23356 3.4312,-22.80137 0.69857,-6.57072 0.8424,-12.05509 0.69857,-13.59152 l 16.14111,-1.54913 c 0.43146,4.37568 0.034,9.79962 -0.73967,16.86976 -0.7602,7.06788 -1.99297,15.43137 -3.63052,24.07539 -3.04697,16.18729 -7.185,32.94357 -13.26666,44.74296 l 0.84239,3.75752 c 0,0.33076 0.24656,5.02911 0.36983,10.67866 0.12862,5.84618 -0.0785,12.96874 -0.30819,14.07306 l -0.0785,0.32461 v 0.31232 c -2.05462,31.28765 -31.37227,72.17659 -54.81049,92.39974 -34.10846,26.01174 -41.45759,51.86583 -46.26499,92.71148 l -0.36983,3.23934 2.86206,1.57793 c 81.80424,45.4004 143.47722,57.7816 194.26811,52.1048 50.79064,-5.6826 90.25049,-29.30877 127.80391,-54.4198 l 2.61348,-1.7546 -0.55474,-3.11856 c -3.26069,-18.65234 -5.88235,-32.20512 -12.91528,-57.97055 l -0.0283,-0.0534 v -0.0542 C 859.95327,738.54894 856.69137,701.24183 853.98049,597.13669 v -0.0785 -0.10354 C 851.35964,557.24837 830.1108,510.77598 796.80332,474.40161 764.17498,438.77055 719.54139,413.17709 669.32459,414.59696 Z M 699.3218,455.8042 c 2.65045,0.20958 5.09957,0.93072 7.55685,1.64167 4.90026,1.42795 9.84573,3.57292 14.77471,6.1018 9.86012,5.05742 19.43463,11.41476 25.83144,16.81702 36.92571,31.18533 57.73216,60.53097 66.52963,113.01521 l 0.0388,0.22188 0.0388,0.22189 c 10.12723,80.58692 3.58118,177.56991 31.60652,239.7914 l -19.49829,8.78 c -31.75892,-70.50094 -23.68105,-168.55258 -33.32172,-245.63775 -8.17033,-48.54448 -24.09117,-70.41513 -59.19337,-100.06055 -4.48319,-3.78599 -13.54816,-9.88059 -21.79946,-14.11229 -4.11951,-2.11666 -8.11573,-3.78607 -10.97779,-4.61714 -2.86215,-0.83212 -4.53868,-0.1147 -2.50049,-0.91018 l -7.8178,-19.90015 c 3.23189,-1.26359 6.0734,-1.55536 8.72798,-1.3499 z m -137.35075,37.55059 c 1.56151,0 3.18263,0.0388 4.89411,0.14269 l 9.13074,0.55887 -2.57854,8.76625 c -3.05523,10.43 -3.65722,19.14917 -8.37668,27.093 -2.35868,3.97795 -6.25841,7.52313 -11.17298,9.32609 -4.91668,1.79779 -10.53403,2.16641 -17.46835,1.62728 l -9.07938,-0.7171 2.66283,-8.7017 c 3.13944,-10.20811 3.8935,-18.84615 8.61086,-26.70319 2.35868,-3.93499 6.16595,-7.46545 11.01686,-9.33863 3.63667,-1.39916 7.67601,-2.01765 12.3564,-2.05259 z m -92.3343,147.717 9.35052,9.89767 c -7.8856,7.46132 -14.13163,12.16186 -16.44105,14.98388 -1.15058,1.41356 -1.27386,1.93134 -1.31495,2.50744 -0.0396,0.57739 0.0923,1.82658 1.41768,4.29067 l -12.00509,6.41428 c -2.05462,-3.82159 -3.26069,-7.67027 -2.97709,-11.65379 0.28764,-3.98531 2.14497,-7.4699 4.36808,-10.1841 4.43999,-5.42701 10.37993,-9.42979 17.59777,-16.25831 z"
     sodipodi:nodetypes="ccscccccccccsccccccccsscccccsccccccscccccccsccsccccccsccccscccccccscsccccsscccccccccssccsccccccc" />
  <path
     d="m 884.80582,1151.6423 c -16.593,-23.769 -42.604,-33.186 -70.409,-38.119 -8.072,16.593 -44.846,13.005 -62.336,9.866 4.036,-18.387 2.691,-38.119 4.485,-53.815 23.768,-5.382 47.985,-2.242 72.202,0.449 8.072,-5.83 22.872,1.794 25.114,-12.108 -13.005,-13.454 -32.289,-19.284 -51.573,-25.562 -12.108,10.315 -29.599,11.66 -45.295,7.175 3.588,-15.696 4.933,-25.114 -2.242,-37.671 31.392,-4.48496 73.548,-2.24196 104.94,-7.17492 5.382,-0.897 4.485,-6.72696 3.139,-10.31496 -13.902,-9.86592 -33.635,-26.01089 -52.47,-24.21689 -6.727,0.897 -12.109,9.418 -19.284,10.763 -13.902,2.69097 -26.459,3.58797 -39.913,2.242 0.897,-15.248 -1.794,-28.702 2.242,-45.743 38.568,-7.175 71.754,0.449 97.316,-12.557 -3.588,-26.011 -43.949,-37.671 -57.852,-21.526 -11.66,1.794 -23.769,4.036 -38.119,1.794 2.691,-24.217 6.278,-36.325 7.624,-58.749 -13.005,-16.145 -40.362,-47.986 -63.233,-37.222 2.691,9.866 12.557,24.665 18.387,36.325 2.242,16.593 3.588,43.949 3.139,61.888 -12.109,1.794 -29.15,3.588 -46.64,0.449 -17.042,-3.139 -36.325,-18.387 -43.949,-4.036 9.418,19.284 16.145,36.325 37.222,43.949 18.835,-7.175 36.774,-8.521 52.919,-8.521 -0.449,12.109 0,31.841 1.345,46.19197 -30.047,1.345 -64.579,8.52096 -88.347,-1.794 -4.036,-0.89697 -8.969,3.139 -13.005,6.72696 -14.799,-9.86593 -26.908,-21.07793 -22.423,-45.74293 12.557,-4.036 25.562,-7.624 37.222,-12.557 -0.897,-19.284 -27.356,-15.248 -39.465,-26.908 2.242,-22.872 6.727,-60.991 0.897,-78.481 -14.351,-13.902 -32.738,-35.877 -56.058,-28.253 16.593,27.805 27.356,74.445 25.114,117.049 -28.702,15.696 -56.058,4.485 -84.311,-4.933 -3.139,-0.449 -5.382,4.036 -4.485,9.866 12.108,17.49 22.423,37.222 43.501,43.949 11.66,-7.175 27.356,-14.351 40.362,-8.969 -9.418,30.04697 -87.899,126.91477 -112.564,147.09577 0.897,8.072 16.593,0.449 24.217,13.005 34.532,-19.284 69.063,-75.79 94.626,-103.595 -0.449,37.671 4.485,88.347 -2.242,129.157 -25.114,-1.794 -48.434,-13.902 -73.099,-18.387 10.763,12.557 19.732,19.732 26.908,32.738 13.005,9.866 36.325,17.49 50.228,28.702 9.866,7.624 14.799,17.938 27.356,7.624 8.969,-67.269 -5.83,-126.018 -1.345,-187.90592 13.902,11.21192 26.011,25.11392 43.949,22.87192 -1.794,-14.799 -19.284,-20.62896 -17.042,-34.53184 13.454,10.76292 17.938,27.80484 36.774,30.49484 21.078,2.691 47.089,-21.97492 61.888,0.449 1.345,8.521 3.139,17.938 2.242,29.598 -32.289,7.624 -59.645,0 -87.45,0.449 3.139,24.217 24.217,27.356 37.222,40.362 16.145,-7.175 37.222,-7.624 50.676,-10.763 0.897,19.284 0.449,34.083 1.345,52.919 -35.877,0.897 -84.759,11.212 -120.188,4.485 4.485,28.702 29.15,41.707 52.022,43.501 53.367,-33.635 164.137,-20.181 221.54,-11.66 5.83,0.897 8.521,-4.485 7.175,-10.315 z"
     id="path24"
     style="fill:#f2f2f2;stroke:#000000;stroke-width:37.0417;stroke-dasharray:none;paint-order:stroke fill markers" />
</svg>
