<?xml version="1.0" encoding="UTF-8" standalone="no"?>
<svg
   width="498.898"
   height="544.252"
   viewBox="0 0 1320 1440"
   version="1.1"
   id="svg29"
   sodipodi:docname="0NG.svg"
   inkscape:version="1.3 (0e150ed6c4, 2023-07-21)"
   xmlns:inkscape="http://www.inkscape.org/namespaces/inkscape"
   xmlns:sodipodi="http://sodipodi.sourceforge.net/DTD/sodipodi-0.dtd"
   xmlns="http://www.w3.org/2000/svg"
   xmlns:svg="http://www.w3.org/2000/svg">
  <sodipodi:namedview
     id="namedview29"
     pagecolor="#ffffff"
     bordercolor="#666666"
     borderopacity="1.0"
     inkscape:showpageshadow="2"
     inkscape:pageopacity="0.0"
     inkscape:pagecheckerboard="0"
     inkscape:deskcolor="#d1d1d1"
     inkscape:zoom="1.6435401"
     inkscape:cx="17.644839"
     inkscape:cy="289.31451"
     inkscape:window-width="3840"
     inkscape:window-height="2036"
     inkscape:window-x="3828"
     inkscape:window-y="-12"
     inkscape:window-maximized="1"
     inkscape:current-layer="svg29" />
  <style
     id="style1"><![CDATA[.B{color-interpolation-filters:sRGB}]]></style>
  <defs
     id="defs11">
    <linearGradient
       id="A"
       x1="-1430.769"
       y1="-77.47"
       x2="-1409.955"
       y2="-77.47"
       spreadMethod="reflect"
       gradientUnits="userSpaceOnUse">
      <stop
         offset="0"
         stop-color="#ffd285"
         id="stop1" />
      <stop
         offset=".232"
         stop-color="#ffcd79"
         id="stop2" />
      <stop
         offset=".616"
         stop-color="#ffca73"
         id="stop3" />
      <stop
         offset=".808"
         stop-color="#ffd386"
         id="stop4" />
      <stop
         offset="1"
         stop-color="#ffc86e"
         id="stop5" />
    </linearGradient>
    <linearGradient
       id="B"
       x1="-899.905"
       y1="-344.262"
       x2="-899.906"
       y2="125.211"
       gradientUnits="userSpaceOnUse">
      <stop
         offset=".6"
         stop-color="#fff"
         id="stop6" />
      <stop
         offset="1"
         id="stop7" />
    </linearGradient>
    <filter
       id="C"
       x="-0.01110353"
       y="-0.011243256"
       width="1.0222071"
       height="1.0224865"
       class="B">
      <feGaussianBlur
         stdDeviation="2.441"
         id="feGaussianBlur7" />
    </filter>
    <clipPath
       id="D">
      <path
         d="M1799.132 1043.253a7.22 7.22 0 0 0-7.237 7.237v107.141l-75.759-75.759c-2.836-2.836-7.401-2.836-10.237 0l-3.45 3.45c-2.836 2.836-2.836 7.401 0 10.237l75.759 75.759h-107.141c-4.01 0-7.237 3.23-7.237 7.24v4.876c0 4.01 3.227 7.24 7.237 7.24h120.828v120.828a7.22 7.22 0 0 0 7.237 7.237h4.88c4.01 0 7.24-3.227 7.24-7.237v-120.828h120.825c4.01 0 7.24-3.23 7.24-7.24v-4.876c0-4.01-3.23-7.24-7.24-7.24h-107.138l75.759-75.759c2.836-2.836 2.836-7.401 0-10.237l-3.45-3.45c-2.836-2.836-7.401-2.836-10.237 0l-75.759 75.759V1050.49c0-4.01-3.23-7.237-7.24-7.237zm2.438 137.74h.01v.01h-.01z"
         opacity="1"
         stroke-width="1.534"
         id="path7" />
    </clipPath>
    <filter
       id="E"
       x="-0.026998007"
       y="-0.026998101"
       width="1.053996"
       height="1.0539962"
       class="B">
      <feGaussianBlur
         stdDeviation="3.099"
         id="feGaussianBlur8" />
    </filter>
    <clipPath
       id="F">
      <path
         d="M737.858 781.757c-10.629-2.175-63.042 1.075-116.048 2.116-64.616 1.269-98.448.172-102.665-3.329-6.793-5.638-8.356-27.294-2.593-35.925 8.164-12.227 22.574-8.885 55.997-4.712 18.6 2.322 37.233-3.065 40.554-4.312 11.416-4.285 6.001-11.797-15.294-21.217-22.914-10.136-39.445-29.886-34.909-41.707 4.225-11.009 19.365-8.747 32.086 4.794 12.148 12.931 24.115 15.914 24.222 6.039.036-3.322 1.34-10.792 2.898-16.6 2.461-9.176.393-11.004-15.768-13.939-28.885-5.246-54.835-20.063-54.835-31.309 0-13.187 10.803-16.362 27.344-8.037 23.035 11.594 43.823 13.819 47.188 5.05 3.746-9.763-5.399-20.92-17.147-20.92-4.989 0-13.449-4.378-18.8-9.729l-9.729-9.729-30.97 26.273c-17.034 14.45-64.661 60.778-75.051 67.978-17.92 12.418-29.121 13.027-29.121 1.583 0-2.852 22.811-29.645 50.692-59.538 118.93-127.517 144.907-165.914 139.554-206.271-2.954-22.271-2.616-23.144 8.979-23.144 13.904 0 32.719 13.523 47.292 33.989 9.364 13.151 9.564 15.075 2.596 25.023-11.059 15.789-9.909 19.679 16.531 55.917 31.116 42.647 98.827 100.579 129.312 110.636 24.66 8.136 39.003 18.469 33.406 24.066-1.905 1.905-22.613 4.38-46.017 5.499l-42.553 2.034-27.908-31.592c-15.35-17.375-36.395-43.17-46.768-57.32-31.023-42.322-48.432-62.536-52.534-60.999-7.311 2.74-57.583 70.291-54.56 73.314 1.662 1.662 8.064 3.022 14.226 3.022s20.801 2.567 32.53 5.704c18.256 4.883 23.11 4.535 33.718-2.416 14.945-9.792 24.24-10.291 31.384-1.684 7.223 8.703-2.566 21.692-23.96 31.794-26.631 12.574-21.611 22.472 10.425 20.556 20.06-1.2 28.464.329 33.203 6.039 10.22 12.314-1.471 20.839-33.707 24.58l-28.769 3.339v16.316c0 15.517.606 16.085 12.393 11.604 30.459-11.58 56.343.389 44.933 20.777-6.908 12.344-29.935 22.998-38.286 17.714-12.072-7.638-23.871-5.221-23.871 4.891 0 10.597 17.376 17.437 51.236 13.459 61.177-7.187 72.911 32.804 47.759 42.456-4.203 1.613-8.008 2.683-8.455 2.377s-9.509-2.335-20.138-4.51z"
         fill="#000"
         fill-opacity="1"
         stroke-width="4.831"
         id="path8" />
    </clipPath>
    <filter
       id="G"
       x="-0.045670161"
       y="-0.050583377"
       width="1.0913403"
       height="1.1011668"
       class="B">
      <feGaussianBlur
         stdDeviation="8.17"
         id="feGaussianBlur9" />
    </filter>
    <filter
       id="H"
       x="-0.058916157"
       y="-0.081817239"
       width="1.1178323"
       height="1.1636345"
       class="B">
      <feGaussianBlur
         stdDeviation=".383"
         id="feGaussianBlur10" />
    </filter>
    <filter
       id="I"
       x="-0.068492297"
       y="-0.08170532"
       width="1.1369846"
       height="1.1634106"
       class="B">
      <feGaussianBlur
         stdDeviation=".383"
         id="feGaussianBlur11" />
    </filter>
  </defs>
  <path
     style="mix-blend-mode:multiply"
     d="M-2745.657 265.144l28.198 35.189h489.331l10.087-9.413-110.95-494.045-31.462-17.601z"
     transform="matrix(-2.0051 0 0 2.0051 -4364.0778 816.66224)"
     opacity=".5"
     filter="url(#C)"
     id="path11" />
  <path
     d="M-1215.57-304.058l-153.963 48.25-92.727 473.093 6.639 36.814 10.024 8.338h460.053l10.024-8.338 6.639-36.814-92.727-473.093z"
     fill="url(#A)"
     transform="matrix(2.0051 0 0 2.0051 3097.3821 831.9343)"
     id="path12" />
  <path
     d="M-899.905-344.262l-153.963 48.25-92.727 473.093 6.639 36.814 10.024 8.338h460.054l10.024-8.338 6.639-36.814-92.727-473.093z"
     opacity=".25"
     fill="url(#B)"
     transform="matrix(2.0051 0 0 2.0051 2464.4309 912.54909)"
     style="mix-blend-mode:overlay"
     id="path13" />
  <path
     d="M1133.938 1262.57l-.043 21.064 20.75-16.013-20.707-5.052z"
     opacity=".8"
     fill="#fff"
     id="path14" />
  <path
     d="M1154.645 1267.622l-20.75 16.013-12.661 74.524 20.099-16.719 13.312-73.818z"
     opacity=".6"
     id="path15" />
  <g
     fill="#fff"
     id="g18">
    <path
       d="M351.284 319.007l17.664 13.248L660 238.66v-16.402z"
       opacity=".3"
       id="path16" />
    <path
       d="M968.716 319.007l-17.664 13.248L660 238.66v-16.402z"
       opacity=".3"
       id="path17" />
    <path
       d="M968.716 319.007l-17.664 13.248 182.886 930.315 20.707 5.052z"
       opacity=".3"
       id="path18" />
  </g>
  <path
     d="M351.284 319.007l17.664 13.248-182.886 930.315-20.707 5.052z"
     opacity=".4"
     id="path19" />
  <path
     d="M165.355 1267.622l20.75 16.013 12.661 74.524-20.099-16.719-13.312-73.818z"
     opacity=".9"
     id="path20" />
  <path
     d="M186.062 1262.57l.043 21.064-20.75-16.013 20.707-5.052z"
     opacity=".6"
     id="path21" />
  <path
     d="M186.062 1262.57h947.876l-.043 21.064H186.105l-.043-21.064z"
     opacity=".2"
     id="path22" />
  <path
     d="M1133.895 1283.634l-12.661 74.524H198.765l-12.66-74.524h947.791z"
     opacity=".7"
     id="path23" />
  <path
     id="path15825-5-2"
     style="color:#000000;font-style:normal;font-variant:normal;font-weight:normal;font-stretch:normal;font-size:medium;line-height:normal;font-family:sans-serif;font-variant-ligatures:normal;font-variant-position:normal;font-variant-caps:normal;font-variant-numeric:normal;font-variant-alternates:normal;font-variant-east-asian:normal;font-feature-settings:normal;font-variation-settings:normal;text-indent:0;text-align:start;text-decoration:none;text-decoration-line:none;text-decoration-style:solid;text-decoration-color:#000000;letter-spacing:normal;word-spacing:normal;text-transform:none;writing-mode:lr-tb;direction:ltr;text-orientation:mixed;dominant-baseline:auto;baseline-shift:baseline;text-anchor:start;white-space:normal;shape-padding:0;shape-margin:0;inline-size:0;clip-rule:nonzero;display:inline;overflow:visible;visibility:visible;isolation:auto;mix-blend-mode:normal;color-interpolation:sRGB;color-interpolation-filters:linearRGB;solid-color:#000000;solid-opacity:1;vector-effect:none;fill:#c80000;fill-opacity:1;fill-rule:nonzero;stroke:none;stroke-width:12.819;stroke-linecap:butt;stroke-linejoin:miter;stroke-miterlimit:4;stroke-dasharray:none;stroke-dashoffset:0;stroke-opacity:1;color-rendering:auto;image-rendering:auto;shape-rendering:auto;text-rendering:auto;enable-background:accumulate;stop-color:#000000"
     d="m 661.57672,300.7351 -5.1633,7.22122 c -15.0591,21.06167 -29.8675,46.70346 -53.0776,56.81901 l -9.7292,4.21386 8.256,6.67258 c 11.6982,9.46403 20.2163,24.41955 26.0325,43.59146 0,0 0,0 0,0 -19.9644,11.89227 -33.4205,33.99483 -33.4205,59.25766 0,1.1938 0.1163,2.3876 0.1772,3.5814 -10.0604,7.49046 -20.7231,16.31949 -32.3133,26.64662 l -3.7373,3.302 c -8.5763,-5.34924 -16.1143,-11.70939 -22.7193,-19.21509 -25.7756,-29.29076 -38.5383,-77.08668 -43.996,-154.1632 l -10.7122,0.2794 c 0,0.16611 0,0.3048 0,0.4572 0,0.0777 0.036,0.11633 0.042,0.19913 -1.3259,71.15655 3.3299,137.32809 28.9164,185.87026 8.9085,16.90116 20.527,31.48685 35.1554,43.27498 l -40.7357,84.80469 c 12.6581,10.287 21.2717,16.3551 31.4555,24.2443 l 34.7859,-93.00356 c 4.2715,2.032 8.7119,3.93446 13.366,5.62102 l -10.2413,27.37052 c 56.6135,26.2392 123.1192,26.57626 177.9702,-1.1938 l -9.1643,-26.4358 c 4.6289,-1.6764 9.0607,-3.65252 13.3136,-5.6896 l 29.2815,84.50192 c 7.2604,-4.0055 14.9271,-8.2245 30.1179,-15.4838 l -39.0322,-81.22104 c 16.7863,-12.33677 29.8193,-28.1851 39.628,-46.79491 25.5823,-48.54395 30.249,-114.71371 28.9164,-185.86949 0,-0.0777 0.036,-0.11634 0.042,-0.19914 0,-0.16612 0,-0.3048 0,-0.4572 l -10.67,-0.2794 c -5.458,77.07728 -18.2636,124.87244 -44.0381,154.16396 -6.0066,6.81482 -12.8097,12.6873 -20.4404,17.77492 l -0.7315,-0.6604 c -14.9068,-13.04036 -28.2422,-23.97759 -40.7566,-32.77259 -0.4674,-24.58211 -13.6408,-46.0291 -33.107,-57.74688 5.8095,-19.25827 14.3175,-34.28313 26.0531,-43.77434 l 8.2763,-6.67258 -9.719,-4.21386 c -23.2187,-10.10411 -38.0283,-35.75404 -53.0882,-56.80859 z m -0.1577,119.42668 c 11.4768,0 22.1412,3.51282 31.0797,9.53516 6.6385,4.4958 12.3017,10.32002 16.6156,17.18309 1.0567,1.6764 2.0117,3.4417 2.9078,5.19684 0.058,0.12167 0.1108,0.24384 0.1687,0.3556 0.8534,1.7526 1.6053,3.51282 2.2758,5.33908 0,0.0282 0.027,0.0417 0.033,0.0607 0,0.0417 0.028,0.061 0.031,0.10262 0.6909,1.8796 1.2802,3.79476 1.7678,5.76072 0.028,0.10236 0.05,0.18237 0.072,0.2794 0.4877,1.8796 0.8737,3.93446 1.1582,5.90042 0,0.0607 0.028,0.1021 0.031,0.16306 0,0 0,0 0,0 0.3861,2.73812 0.6706,5.62102 0.6706,8.49376 0,32.3794 -25.4622,58.38619 -56.7983,58.38619 -31.3356,0 -56.7564,-26.00679 -56.7564,-58.38619 0,-1.1938 0.1077,-2.3876 0.177,-3.65252 0.569,-9.49706 3.302,-18.35149 7.7318,-26.06369 0.072,-0.12167 0.1465,-0.24384 0.2235,-0.3556 1.077,-1.8288 2.2276,-3.5814 3.4707,-5.26796 0.042,-0.0607 0.075,-0.12166 0.1162,-0.16307 3.9543,-5.33907 8.7599,-9.89075 14.2321,-13.53057 0,0 0.027,0 0.034,-0.0282 8.8718,-5.90042 19.4239,-9.34212 30.7767,-9.34212 z m 168.6172,16.91132 c 0,0.0417 -0.028,0.0803 -0.028,0.12166 0,-0.0417 0.031,-0.0803 0.042,-0.12166 -4.0457,31.62044 -11.1801,60.14997 -23.4615,83.45674 -1.4021,2.66954 -2.9078,5.26796 -4.4541,7.81812 -0.2642,0.4318 -0.5284,0.8382 -0.7722,1.27 -1.2802,2.1082 -2.6131,4.07416 -3.9908,6.11123 -0.3658,0.5334 -0.7316,1.0668 -1.1176,1.6256 -1.646,2.3114 -3.3305,4.56692 -5.1004,6.7437 -0.2641,0.3048 -0.5283,0.6096 -0.7924,0.9144 -1.4834,1.7526 -3.0074,3.51282 -4.5741,5.12826 -0.7112,0.762 -1.4427,1.4732 -2.164,2.2352 -1.1989,1.1938 -2.4588,2.4638 -3.7308,3.5814 -0.7925,0.762 -1.5646,1.4732 -2.3952,2.18439 -1.8491,1.6256 -3.7226,3.1623 -5.6693,4.63804 v 0 c -3.6312,2.80924 -7.5103,5.33908 -11.5682,7.77748 v 0 c -0.086,0.0417 -0.1769,0.0996 -0.2641,0.14122 -2.7757,1.6256 -5.6632,3.1623 -8.6523,4.63804 -0.3048,0.14097 -0.6299,0.3048 -0.9347,0.4572 -2.8529,1.3462 -5.8095,2.59842 -8.8615,3.79476 -0.4471,0.18237 -0.9144,0.3556 -1.3615,0.508 -2.8956,1.0668 -5.8867,2.1082 -8.9672,3.0226 -0.6706,0.2032 -1.3411,0.4064 -2.0371,0.6096 -2.8935,0.8382 -5.8806,1.5494 -8.9347,2.2352 -0.9347,0.2032 -1.8897,0.4572 -2.8387,0.635 -2.859,0.5842 -5.8176,1.0668 -8.8209,1.5494 -1.1989,0.18262 -2.3952,0.4064 -3.6312,0.5588 -2.8448,0.381 -5.8034,0.6604 -8.7782,0.9144 -1.4834,0.14097 -2.9301,0.3048 -4.4399,0.4064 -2.9017,0.20192 -5.9213,0.30479 -8.9449,0.40639 -1.6662,0.061 -3.2532,0.16053 -4.952,0.18263 -4.7061,0.0607 -9.5422,0 -14.5349,-0.18263 l -0.1991,-0.0414 h -0.028 l -0.1992,0.0414 c -4.8199,0.18263 -9.4975,0.24384 -14.0451,0.20193 -4.5598,-0.0417 -8.9835,-0.22352 -13.2832,-0.4826 -4.2855,-0.25399 -8.445,-0.66039 -12.4785,-1.11759 0,-5.1e-4 0,0 -0.028,0 -4.0315,-0.4826 -7.937,-1.1176 -11.7246,-1.8288 0,0 0,0 -0.028,0 -3.7857,-0.7112 -7.4534,-1.5494 -11.0033,-2.4638 0,0 -0.028,0 -0.028,0 -3.5478,-0.9144 -6.9758,-1.9812 -10.3022,-3.09118 -33.2894,-11.26744 -55.369,-32.59682 -70.3872,-61.09129 -12.2723,-23.28925 -19.4143,-51.78982 -23.4607,-83.38334 0,0.0417 0.03,0.0803 0.042,0.12167 0,-0.0417 -0.028,-0.0803 -0.028,-0.12167 7.4181,26.12668 17.6004,46.7248 31.7165,62.76312 0.6325,0.7112 1.3005,1.397 1.9381,2.1082 1.0185,1.1176 2.0294,2.2352 3.0911,3.302 0.7951,0.762 1.6383,1.5494 2.4511,2.31139 0.9703,0.9144 1.9381,1.8288 2.9508,2.73812 0.9398,0.8382 1.905,1.6256 2.8735,2.3876 0.955,0.762 1.9177,1.5494 2.8943,2.3114 0.983,0.762 1.9964,1.4732 3.0068,2.2352 1.0033,0.7112 2.0295,1.397 3.0628,2.1082 1.082,0.7112 2.1768,1.4732 3.2949,2.1844 0.9702,0.6096 1.9735,1.1938 2.9646,1.7526 1.2091,0.7112 2.4105,1.397 3.646,2.1082 0.9702,0.5334 1.9761,1.0668 2.9646,1.5494 1.2777,0.6604 2.5299,1.3462 3.8428,1.9812 0.7798,0.3556 1.6002,0.7112 2.3952,1.06679 3.0701,1.397 6.2388,2.66954 9.4996,3.93446 0.7519,0.2794 1.4834,0.5842 2.2555,0.8382 1.524,0.5588 3.0988,1.0668 4.6574,1.5494 1.1582,0.381 2.2987,0.762 3.4849,1.1176 1.5443,0.4572 3.1272,0.9144 4.7203,1.397 1.0566,0.3048 2.1006,0.5842 3.1679,0.8382 1.7272,0.4572 3.4767,0.9144 5.2405,1.3462 1.1583,0.2794 2.347,0.5588 3.5337,0.8382 1.7475,0.381 3.5133,0.762 5.3035,1.1176 1.1989,0.24384 2.4435,0.4572 3.6738,0.7112 1.7476,0.3302 3.4849,0.6604 5.2751,0.9652 0.447,0.0803 0.8941,0.14097 1.3411,0.2032 5.6124,0.9144 11.4036,1.7526 17.4305,2.4638 v 0 c 7.6098,0.9144 15.5285,1.6256 23.8161,2.2352 h 0.4064 0.3454 c 6.7726,-0.4826 13.21,-1.1176 19.5316,-1.8288 0.027,0 0.041,0 0.064,0 29.0123,-3.1623 53.3217,-8.62076 73.5598,-17.68348 0.5689,-0.24383 1.1379,-0.48259 1.7068,-0.76199 1.5037,-0.6858 2.9647,-1.397 4.4196,-2.1844 0.9551,-0.4826 1.9304,-0.9652 2.8733,-1.4732 1.1989,-0.6604 2.3876,-1.3462 3.5621,-1.9812 1.0973,-0.635 2.1691,-1.27 3.239,-1.9812 1.0973,-0.6604 2.1641,-1.3462 3.2309,-2.032 1.1176,-0.762 2.2072,-1.4732 3.2796,-2.2352 0.9144,-0.6604 1.8491,-1.3462 2.7392,-1.9812 1.2801,-0.9652 2.5146,-1.9812 3.751,-3.0226 0.6706,-0.5588 1.3615,-1.1176 2.0117,-1.6764 1.7069,-1.4732 3.3792,-3.0226 5.0028,-4.63803 0.1162,-0.12192 0.2438,-0.22352 0.3657,-0.3302 0.028,-0.0282 0.034,-0.0417 0.053,-0.0607 1.8694,-1.8288 3.6881,-3.72364 5.4437,-5.76072 14.1346,-16.05787 24.3383,-36.66437 31.7589,-62.84059 z m -73.3828,193.34192 c -58.3942,28.85946 -128.146,28.33976 -187.8249,0.9652 l -48.5208,129.67886 c 88.7128,32.9692 195.856,35.1681 282.1918,1.6256 z m -266.673,28.73936 -31.5812,54.5228 51.7498,33.2923 20.5135,-54.8736 c -12.8996,-11.2903 -29.196,-22.1285 -40.6821,-32.9415 z m 340.0452,0 c -16.2336,11.3588 -6.6873,5.2679 -39.8997,23.7236 l 22.2178,64.1258 49.9641,-32.1333 z m -386.9255,60.726 -42.7631,62.6084 2.8311,4.8464 c 15.206,25.9791 43.3862,51.0803 73.2574,58.3163 l 4.9528,1.1938 2.3114,-5.3391 c 4.8547,-11.1506 16.0573,-41.6242 28.5504,-76.0163 -21.6778,-17.7546 -49.0543,-28.1313 -69.14,-45.6382 z m 433.8057,0 c -19.1637,17.1704 -45.5639,32.1119 -68.0008,46.5559 l -1.8491,-2.8804 c 12.8158,35.2806 24.3108,66.5848 29.2713,77.9805 l 2.3114,5.3391 4.9378,-1.1938 c 29.8704,-7.2288 58.0497,-32.3441 73.2564,-58.3234 l 2.8306,-4.8463 z m -297.9823,74.9084 -11.1925,38.0835 c 45.2529,9.9339 144.3703,8.1915 186.0379,-0.9144 l -10.7229,-35.8989 0.1465,0.6858 c -45.7031,10.1651 -116.9765,9.3295 -164.2589,-1.9812 z m -24.3492,50.0966 -19.0616,60.1919 7.0182,3.0226 c 76.2152,32.0418 172.9421,30.6931 236.7641,0 l 7.0185,-4.0056 -19.0622,-59.1941 c -55.4851,8.0848 -142.8629,14.2062 -212.6862,0 z" />
  <path
     d="m 737.858,1177.777 c -10.629,-2.175 -63.042,1.075 -116.048,2.116 -64.616,1.269 -98.448,0.172 -102.665,-3.329 -6.793,-5.638 -8.356,-27.294 -2.593,-35.925 8.164,-12.227 22.574,-8.885 55.997,-4.712 18.6,2.322 37.233,-3.065 40.555,-4.312 11.416,-4.285 6.001,-11.797 -15.294,-21.217 -22.914,-10.136 -39.445,-29.886 -34.909,-41.707 4.225,-11.009 19.365,-8.747 32.086,4.794 12.148,12.931 24.115,15.914 24.222,6.039 0.036,-3.322 1.34,-10.792 2.898,-16.6 2.461,-9.176 0.393,-11.004 -15.768,-13.939 -28.885,-5.246 -54.835,-20.063 -54.835,-31.309 0,-13.187 10.803,-16.362 27.344,-8.037 23.035,11.594 43.823,13.819 47.188,5.05 3.746,-9.763 -5.399,-20.92001 -17.147,-20.92001 -4.989,0 -13.449,-4.378 -18.8,-9.729 l -9.729,-9.729 -30.97,26.27301 c -17.034,14.45 -64.661,60.778 -75.051,67.978 -17.92,12.418 -29.121,13.027 -29.121,1.583 0,-2.852 22.811,-29.645 50.692,-59.538 118.93,-127.51701 144.907,-165.91401 139.554,-206.27101 -2.954,-22.271 -2.616,-23.144 8.979,-23.144 13.904,0 32.719,13.523 47.292,33.989 9.364,13.151 9.564,15.075 2.596,25.023 -11.059,15.789 -9.909,19.679 16.531,55.917 31.116,42.647 98.827,100.579 129.312,110.63601 24.66,8.136 39.003,18.469 33.406,24.066 -1.905,1.906 -22.613,4.38 -46.017,5.499 l -42.553,2.034 -27.908,-31.592 c -15.35,-17.37501 -36.395,-43.17001 -46.768,-57.32001 -31.023,-42.322 -48.432,-62.536 -52.534,-60.999 -7.311,2.74 -57.583,70.291 -54.56,73.314 1.662,1.662 8.064,3.022 14.226,3.022 6.162,0 20.801,2.567 32.53,5.704 18.256,4.883 23.11,4.535 33.718,-2.416 14.945,-9.792 24.24,-10.291 31.384,-1.684 7.223,8.703 -2.566,21.692 -23.96,31.794 -26.631,12.57401 -21.611,22.47201 10.425,20.55601 20.06,-1.2 28.464,0.329 33.203,6.039 10.22,12.314 -1.471,20.839 -33.707,24.58 l -28.769,3.339 v 16.316 c 0,15.517 0.606,16.085 12.393,11.604 30.459,-11.58 56.343,0.389 44.933,20.777 -6.908,12.344 -29.935,22.998 -38.286,17.714 -12.072,-7.638 -23.871,-5.221 -23.871,4.891 0,10.597 17.376,17.437 51.236,13.459 61.177,-7.187 72.911,32.804 47.759,42.456 -4.203,1.613 -8.008,2.683 -8.455,2.377 -0.447,-0.306 -9.509,-2.335 -20.138,-4.51 z"
     fill="#310000"
     id="path26"
     style="fill:#f4d7e3;fill-opacity:1;stroke:#aa0000;stroke-width:37.0417;stroke-dasharray:none;stroke-opacity:1;paint-order:stroke fill markers" />
</svg>
