<?xml version="1.0" encoding="UTF-8" standalone="no"?>
<svg
   width="498.898"
   height="544.252"
   viewBox="0 0 1320 1440"
   version="1.1"
   id="svg31"
   sodipodi:docname="0OU.svg"
   inkscape:version="1.3 (0e150ed6c4, 2023-07-21)"
   xmlns:inkscape="http://www.inkscape.org/namespaces/inkscape"
   xmlns:sodipodi="http://sodipodi.sourceforge.net/DTD/sodipodi-0.dtd"
   xmlns="http://www.w3.org/2000/svg"
   xmlns:svg="http://www.w3.org/2000/svg">
  <sodipodi:namedview
     id="namedview31"
     pagecolor="#ffffff"
     bordercolor="#666666"
     borderopacity="1.0"
     inkscape:showpageshadow="2"
     inkscape:pageopacity="0.0"
     inkscape:pagecheckerboard="0"
     inkscape:deskcolor="#d1d1d1"
     inkscape:zoom="1.1621583"
     inkscape:cx="-400.11761"
     inkscape:cy="-58.081588"
     inkscape:window-width="3840"
     inkscape:window-height="2036"
     inkscape:window-x="-12"
     inkscape:window-y="-12"
     inkscape:window-maximized="1"
     inkscape:current-layer="svg31"
     showgrid="false" />
  <style
     id="style1"><![CDATA[.B{color-interpolation-filters:sRGB}.C{fill-opacity:.98}]]></style>
  <defs
     id="defs10">
    <linearGradient
       id="A"
       x1="236.943"
       y1="670.458"
       x2="278.677"
       y2="670.458"
       spreadMethod="reflect"
       gradientUnits="userSpaceOnUse">
      <stop
         offset="0"
         stop-color="#ffd285"
         id="stop1" />
      <stop
         offset=".232"
         stop-color="#ffcd79"
         id="stop2" />
      <stop
         offset=".616"
         stop-color="#ffca73"
         id="stop3" />
      <stop
         offset=".808"
         stop-color="#ffd386"
         id="stop4" />
      <stop
         offset="1"
         stop-color="#ffc86e"
         id="stop5" />
    </linearGradient>
    <linearGradient
       id="B"
       x1="660"
       y1="115.844"
       x2="670.254"
       y2="1157.469"
       gradientUnits="userSpaceOnUse">
      <stop
         offset=".604"
         stop-color="#fff"
         id="stop6" />
      <stop
         offset="1"
         id="stop7" />
    </linearGradient>
    <filter
       id="C"
       x="-0.010152573"
       y="-0.010558682"
       width="1.0203051"
       height="1.0211174"
       class="B">
      <feGaussianBlur
         stdDeviation="2.441"
         id="feGaussianBlur7" />
    </filter>
    <clipPath
       id="D">
      <path
         d="M-259.905 606.27c-34.215-15.43-56.354-45.62-98.62-41.595 16.772 26.835 49.645 87.215 92.582 107.342 19.456-16.101 16.101-40.253 6.038-65.747zm127.468 137.531c-23.481-39.582-77.152-48.975-118.076-59.709-20.127 15.43-42.266 19.456-67.089 19.456s-49.646-2.684-77.823-3.354c2.013-40.924 4.025-111.367 4.025-157.658 48.975-7.38 111.367-6.709 163.696-5.367 16.101 0 15.43-10.063 9.392-18.785-19.456-20.127-49.645-28.177-81.177-34.886-14.759 12.076-64.405 12.076-91.24 12.076 2.684-38.24 3.354-94.595 4.696-144.24 39.582-2.684 78.494-6.709 110.025-7.38 32.202-.671 61.051-2.013 90.569-8.051-8.721-38.24-44.949-47.633-85.202-51.658-3.354-.671-6.038 8.051-12.747 8.721-64.405 8.722-225.417 22.81-281.101 15.43-26.165-3.354-50.987-12.076-83.19-20.127-9.392-2.013-9.392 8.722-6.709 20.797 16.772 20.797 34.886 46.962 56.354 58.367 14.089 7.38 30.19-5.367 44.278-7.38 37.57-6.038 67.759-.671 98.62-5.367 6.038 24.823 8.722 46.962 10.063 69.772s1.342 45.62 1.342 76.481c-73.797 10.063-140.215-.671-193.215 6.709 10.063 12.747 39.582 47.633 69.772 58.367 11.405 4.025 20.127-6.709 30.861-9.392 29.519-7.38 61.721-7.38 91.911-10.734l1.342 158.329c-69.101 3.354-142.228 16.101-190.531 17.443-21.468.671-40.253-14.089-62.392-5.367 16.772 32.202 47.633 48.304 75.81 67.089 24.823 9.392 30.19-6.038 48.975-14.089 29.519-12.747 88.557-17.443 121.43-19.456 101.974-6.038 200.595-6.038 259.632 8.722 14.759 4.025 43.607 1.342 57.696-14.759z"
         clip-path="none"
         opacity=".593"
         stroke-width="5.943"
         id="path7" />
    </clipPath>
    <filter
       id="E"
       x="-0.029858736"
       y="-0.033802876"
       width="1.0597175"
       height="1.0676058"
       class="B">
      <feGaussianBlur
         stdDeviation="6.825"
         id="feGaussianBlur8" />
    </filter>
    <filter
       id="F"
       x="-0.042512629"
       y="-0.01143498"
       width="1.0850253"
       height="1.02287"
       class="B">
      <feGaussianBlur
         stdDeviation="2.152"
         id="feGaussianBlur9" />
    </filter>
    <clipPath
       id="G">
      <path
         d="M1799.132 1043.252c-4.01 0-7.237 3.23-7.237 7.24v107.141l-75.759-75.762c-2.836-2.836-7.401-2.836-10.237 0l-3.45 3.45c-2.836 2.836-2.836 7.401 0 10.237l75.756 75.759h-107.138c-4.01 0-7.237 3.23-7.237 7.24v4.88a7.22 7.22 0 0 0 7.237 7.237h107.141l-75.759 75.759c-2.836 2.836-2.836 7.404 0 10.24l3.45 3.45c2.836 2.836 7.401 2.836 10.237 0l75.759-75.762v107.141c0 4.01 3.227 7.24 7.237 7.24h4.88c4.01 0 7.24-3.23 7.24-7.24V1204.36l75.759 75.762c2.836 2.836 7.401 2.836 10.237 0l3.45-3.45c2.836-2.836 2.836-7.404 0-10.24l-75.759-75.759h107.138c4.01 0 7.24-3.227 7.24-7.237v-4.88c0-4.01-3.23-7.24-7.24-7.24h-107.135l75.756-75.759c2.836-2.836 2.836-7.401 0-10.237l-3.45-3.45c-2.836-2.836-7.401-2.836-10.237 0l-75.759 75.762v-107.141c0-4.01-3.23-7.24-7.24-7.24zm2.438 137.74h0 0 0 0 0-.01 0 0z"
         opacity="1"
         stroke-width="1.534"
         id="path9" />
    </clipPath>
    <filter
       id="H"
       x="-0.048167785"
       y="-0.048167264"
       width="1.0963356"
       height="1.0963345"
       class="B">
      <feGaussianBlur
         stdDeviation="5.529"
         id="feGaussianBlur10" />
    </filter>
    <path
       id="I"
       d="M654.456 1200.517c2.346 2.346 6.396 2.1 3.974 4.522s-6.287 2.483-8.633.137-2.285-6.211.137-8.633 2.176 1.628 4.522 3.974z" />
    <filter
       id="C-9"
       x="-0.010152573"
       y="-0.010558682"
       width="1.0203051"
       height="1.0211174"
       class="B">
      <feGaussianBlur
         stdDeviation="2.441"
         id="feGaussianBlur7-9" />
    </filter>
    <filter
       id="C-0"
       x="-0.010152573"
       y="-0.010558682"
       width="1.0203051"
       height="1.0211174"
       class="B">
      <feGaussianBlur
         stdDeviation="2.441"
         id="feGaussianBlur7-3" />
    </filter>
  </defs>
  <path
     style="mix-blend-mode:multiply"
     d="M-2765.718 268.206l28.198 35.189h538.751l10.087-9.413-86.673-527.828-31.462-17.601z"
     transform="matrix(-2.0051 0 0 2.0051 -4355.6821 800.27119)"
     opacity=".5"
     filter="url(#C)"
     id="path10" />
  <path
     d="M660 115.844L254.043 268.378l-139.111 999.236 13.312 73.804 20.099 16.718H1169.89l20.099-16.718 13.312-73.804-137.282-999.246z"
     fill="url(#A)"
     id="path11" />
  <path
     d="M660 115.844L253.994 268.369l-137.243 999.246 11.442 73.812 20.099 16.719h1021.563l20.134-16.728 15.13-73.802-139.1-999.248z"
     opacity=".25"
     fill="url(#B)"
     style="mix-blend-mode:overlay"
     id="path12" />
  <path
     d="M1182.559 1262.571l-.043 21.064 20.75-16.013-20.707-5.052z"
     opacity=".8"
     fill="#fff"
     id="path13" />
  <path
     d="M1203.266 1267.622l-20.75 16.013-12.661 74.512 20.099-16.719 13.312-73.805z"
     opacity=".6"
     id="path14" />
  <g
     fill="#fff"
     id="g17">
    <path
       d="M254.044 268.378l17.664 13.248 388.293-149.381v-16.402z"
       opacity=".3"
       id="path15" />
    <path
       d="M1066.019 268.368l-17.664 13.248L660 132.246v-16.402z"
       opacity=".3"
       id="path16" />
    <path
       d="M1064.146 251.267l-17.664 13.248 138.452 996.966 20.707 5.052z"
       opacity=".3"
       id="path17" />
  </g>
  <path
     d="M253.994 268.369l17.664 13.248-136.07 980.953-20.707 5.052z"
     opacity=".4"
     id="path18" />
  <path
     d="M114.881 1267.622l20.75 16.013 12.661 74.512-20.099-16.719-13.312-73.805z"
     opacity=".9"
     id="path19" />
  <path
     d="M135.588 1262.571l.043 21.064-20.75-16.013 20.707-5.052z"
     opacity=".6"
     id="path20" />
  <path
     d="M135.588 1262.571h1046.971l-.043 21.064H135.631z"
     opacity=".2"
     id="path21" />
  <path
     d="M1182.516 1283.635l-12.661 74.512H148.292l-12.661-74.512z"
     opacity=".7"
     id="path22" />
  <path
     style="fill:#000000;stroke-width:179.879"
     d="m 647.75159,796.06206 c -25.2368,-4.81367 -41.222,-19.69275 -41.222,-38.36774 0,-7.16727 11.7836,-58.62443 20.7623,-90.66871 2.0391,-7.21288 4.601,-16.49093 5.7269,-20.61035 1.128,-4.12383 2.7007,-9.60345 3.4903,-12.17839 0.781,-2.57711 2.4968,-8.47973 3.7811,-13.1155 3.9958,-14.37802 5.9069,-20.96396 11.289,-38.8803 2.1714,-7.2324 2.948,-7.96344 8.4493,-7.96344 6.7747,0 6.9027,0.19805 12.1914,19.22202 1.9307,6.96559 5.1173,18.34782 7.0719,25.2956 22.3338,79.47713 34.0412,127.62903 34.0412,140.01105 0,14.07866 -6.8571,23.32416 -23.4601,31.63254 -9.4386,4.72468 -31.4443,7.66406 -42.1201,5.62707 z M 543.75873,768.85572 c -18.40203,-6.11303 -33.63538,-17.52782 -41.70409,-31.25351 -4.18014,-7.1109 -5.13899,-11.01562 -5.13899,-20.92063 0,-8.26275 0.99788,-13.68383 3.13026,-16.86183 4.60103,-6.88091 55.29288,-59.43903 96.41971,-99.96756 l 35.84477,-35.32333 4.9092,3.21704 c 6.1412,4.02403 6.1433,6.96992 0.049,30.18321 -2.6726,10.17829 -5.5577,21.46074 -6.4081,25.06718 -0.8243,3.60752 -3.3689,13.30421 -5.5924,21.54971 -2.2192,8.2432 -4.7355,17.93991 -5.5837,21.54963 -4.7378,20.18956 -20.91841,75.1386 -24.82705,84.31834 -5.92215,13.90513 -18.08535,20.76007 -36.32538,20.46286 -5.03265,-0.0811 -11.67938,-0.97618 -14.77274,-1.99574 z m 197.85046,-1.75712 c -4.5424,-2.03913 -9.4364,-5.11729 -10.8724,-6.89611 -6.1565,-7.61205 -12.7294,-27.70766 -28.9406,-88.48447 -2.0609,-7.72915 -4.4558,-17.00285 -5.317,-20.61044 -1.8439,-7.71181 -11.5601,-44.93952 -15.7946,-60.51954 -1.6269,-5.9742 -2.9523,-12.90073 -2.9523,-15.39324 0,-4.44704 4.6314,-8.40597 9.8355,-8.40597 3.3363,0 115.983,112.00234 126.473,125.74954 12.7749,16.74031 12.7271,33.89962 -0.1358,50.76598 -17.3695,22.77059 -50.2253,33.58422 -72.2962,23.79425 z M 453.37553,688.54211 c -32.08314,-18.3999 -44.54372,-70.90135 -20.97699,-88.38014 4.42312,-3.28213 20.76433,-9.69454 33.13037,-13.00704 6.08485,-1.64866 13.81399,-3.81143 25.2954,-7.14344 12.0872,-3.50991 21.20255,-6.00676 27.63773,-7.56865 3.60751,-0.8894 16.67745,-4.24312 29.04324,-7.47753 58.41279,-15.29345 69.89611,-17.67533 72.95801,-15.13292 7.3518,6.1022 4.4904,9.70972 -55.62585,70.11085 -32.20518,32.35856 -63.05695,62.30571 -68.56002,66.54949 -9.24329,7.13046 -10.88332,7.71403 -21.54963,7.69883 -9.38003,-0.0145 -13.38236,-1.06295 -21.35661,-5.6445 z m 378.67696,3.80488 c -6.5512,-2.64431 -51.2475,-45.17119 -94.3612,-89.78233 -31.1555,-32.2373 -40.2854,-42.77308 -40.2854,-46.4895 0,-10.57527 2.8266,-10.23686 75.887,9.06977 50.865,13.44307 53.5308,14.16109 68.8601,18.61464 3.3494,0.97617 8.8312,2.50986 12.1784,3.41879 31.4391,8.52529 40.0237,14.79236 44.8169,32.71303 6.2866,23.50788 -11.3453,57.85937 -36.3105,70.72887 -7.3366,3.78106 -23.4531,4.6878 -30.7861,1.71374 z M 415.94732,579.46482 c -11.45604,-8.07842 -17.62331,-18.95087 -21.2221,-37.39564 -4.98073,-25.52338 6.41886,-53.29174 25.61029,-62.39949 6.881,-3.26476 22.58688,-2.80054 35.35851,1.04126 3.09336,0.9328 14.47349,3.83313 25.29558,6.44494 24.78109,5.9894 113.73803,29.95978 132.68149,35.75373 1.6053,0.47723 2.243,3.18451 1.8873,7.72047 -0.6291,7.62505 0.8677,6.82675 -27.75189,14.8531 -5.66619,1.58359 -12.83568,3.60318 -15.92691,4.47306 -3.09337,0.86772 -12.36706,3.38626 -20.61035,5.58808 -14.97242,4.00234 -22.30999,6.03496 -34.66407,9.59909 -3.60751,1.04126 -9.51019,2.60965 -13.11556,3.48604 -3.6075,0.8894 -16.67745,4.24312 -29.04298,7.47752 -12.36714,3.23441 -29.23044,6.2714 -37.47509,6.73998 -13.34759,0.75924 -15.6514,0.41215 -21.0073,-3.38627 z m 455.71707,2.90033 c -8.0286,-1.84389 -49.0673,-12.19572 -55.2756,-13.96152 -3.6053,-1.01956 -9.5079,-2.59663 -13.1177,-3.48821 -3.6075,-0.9111 -9.5101,-2.46647 -13.1154,-3.49255 -3.6076,-1.01955 -13.3043,-3.67259 -21.5497,-5.87441 -8.2433,-2.19532 -17.5214,-4.75074 -20.6104,-5.66184 -3.0934,-0.9111 -14.2609,-4.01535 -24.8255,-6.89616 l -19.2025,-5.24315 v -6.85061 c 0,-7.88535 -3.7312,-6.29743 49.6525,-21.13534 120.6618,-33.53909 135.6194,-36.3943 149.6419,-28.56449 9.8767,5.51432 18.2936,19.8316 22.0212,37.45487 4.7464,22.42455 -5.5642,51.24632 -21.9568,61.37688 -5.6748,3.50556 -21.4347,4.67046 -31.6603,2.33849 z m -222.9759,-15.9898 c -15.6101,-5.53601 -25.8415,-19.88149 -25.6969,-36.02986 0.1981,-21.70152 15.7317,-36.6312 38.12,-36.6312 20.2047,0 35.3577,15.56029 35.3577,36.30884 0,17.59941 -8.5579,30.25479 -24.1791,35.76717 -9.2997,3.27995 -15.5603,3.43614 -23.601,0.60739 z m -61.83323,-59.72214 c -28.88164,-7.43848 -38.59458,-10.01125 -80.57111,-21.34359 -75.12689,-20.28498 -80.74423,-23.26449 -85.3139,-45.27688 -6.80499,-32.77616 22.94958,-73.7316 53.5629,-73.7316 10.41479,0 13.59707,1.54019 28.00334,13.68602 22.02124,18.54522 120.8591,119.96362 120.797,123.95098 -0.067,4.29735 -4.1563,10.5015 -6.7052,10.1696 -0.9111,-0.11931 -14.31517,-3.47303 -29.7732,-7.45583 z m 111.95613,4.05656 c -1.2799,-2.1042 -2.3384,-5.31692 -2.3384,-7.13261 0.012,-3.58366 104.1533,-109.65517 123.3266,-125.61134 13.0092,-10.82473 17.4606,-12.54281 29.0908,-11.23256 11.2499,1.25819 20.888,6.35167 30.1981,15.92906 23.1762,23.84674 28.0234,58.39476 10.6013,75.56139 -7.4948,7.38425 -14.6882,10.05681 -64.8759,24.09294 -22.1313,6.18898 -107.0018,28.38337 -119.9196,31.35919 -2.4079,0.54232 -4.5859,-0.49893 -6.0913,-2.96325 z m -129.17351,-76.4868 c -33.81396,-33.7506 -64.00972,-65.09373 -67.10139,-69.6514 -4.91343,-7.2389 -5.59898,-9.83987 -5.43841,-20.61038 0.13972,-9.33659 1.23649,-14.08515 4.53816,-19.58429 6.48616,-10.81172 18.21115,-21.13751 31.14616,-27.42801 9.829,-4.77892 13.68598,-5.59674 26.41293,-5.59674 25.69152,0 32.04795,5.90044 42.39741,39.34865 6.59245,21.31105 8.47315,27.99938 17.09835,60.89681 2.4317,9.27368 5.831,21.92344 7.5512,28.10611 1.7138,6.18247 3.8918,14.40405 4.8223,18.26972 0.9328,3.8635 2.536,10.39955 3.5664,14.52119 1.0195,4.12381 2.6595,10.65553 3.6227,14.5212 0.9545,3.86349 2.5619,10.19563 3.5554,14.06997 1.6486,6.38421 1.3666,7.39293 -2.9394,10.77267 -2.6074,2.06082 -5.421,3.73117 -6.2497,3.73117 -0.8243,0 -29.17209,-27.61456 -62.98621,-61.36537 z m 112.77821,59.12624 c -6.0392,-3.42314 -6.2279,-4.89175 -2.4642,-19.00294 1.974,-7.38208 4.3169,-16.7946 5.2215,-20.91625 0.9111,-4.1238 3.3905,-14.03092 5.5316,-22.0165 2.1476,-7.9873 5.4623,-20.63423 7.3799,-28.10612 12.968,-50.50484 25.9601,-92.57335 30.6826,-99.35084 9.6641,-13.86825 37.1338,-17.21979 58.3119,-7.11309 13.1133,6.25839 27.5714,19.20684 31.813,28.49008 9.2693,20.28714 7.2888,30.278 -9.7618,49.23474 -14.4865,16.10476 -120.1435,121.04326 -121.7934,120.963 -0.6508,-0.0313 -2.8591,-0.99787 -4.9199,-2.17145 z m -32.619,-19.77738 c -11.3541,-37.40952 -31.3353,-111.72076 -38.6116,-143.59341 -5.73339,-25.10882 -5.86568,-33.81112 -0.6508,-42.37589 9.3736,-15.37805 24.9805,-22.4842 49.3914,-22.4842 24.2262,0 40.1461,7.32568 49.5903,22.8135 4.523,7.42113 4.8006,16.4974 1.0413,34.33435 -3.9655,18.86193 -19.1396,77.37709 -29.1494,112.42492 -0.8894,3.09123 -2.4491,8.573 -3.4795,12.17835 -1.0196,3.60536 -2.7181,9.50799 -3.7464,13.11551 -1.0195,3.60535 -2.6682,9.51014 -3.6357,13.11549 -3.2366,12.02652 -4.1238,13.11766 -10.6968,13.11766 -6.0588,0 -6.3299,-0.32539 -10.0654,-12.64693 z"
     id="path3" />
  <path
     d="m 913.55194,1135.1072 c -21.1282,-35.6159 -69.42137,-44.0677 -106.24478,-53.7261 -18.11028,13.8839 -38.03095,17.5065 -60.36668,17.5065 -22.33574,0 -44.67147,-2.4151 -70.02514,-3.018 1.8113,-36.8234 3.6217,-100.208 3.6217,-141.86153 44.0677,-6.64052 100.20802,-6.03676 147.29456,-4.82922 14.48768,0 13.88391,-9.05469 8.45092,-16.90275 -17.50651,-18.11027 -44.67147,-25.35366 -73.04307,-31.39042 -13.28104,10.86599 -57.95162,10.86599 -82.09865,10.86599 2.41506,-34.40926 3.01793,-85.11659 4.22546,-129.78806 35.61589,-2.41506 70.6289,-6.03675 99.0014,-6.64052 28.97626,-0.60377 54.93369,-1.8113 81.49488,-7.24429 -7.84805,-34.40925 -40.44511,-42.86017 -76.66566,-46.48187 -3.01793,-0.60376 -5.43299,7.24429 -11.46975,7.84806 -57.95162,7.84805 -202.83111,20.52444 -252.93558,13.88391 -23.54326,-3.01793 -45.879,-10.86598 -74.85436,-18.11027 -8.45092,-1.8113 -8.45092,7.84805 -6.03676,18.71404 15.09145,18.71404 31.39043,42.2564 50.70823,52.51862 12.67728,6.64053 27.16496,-4.82922 39.84225,-6.64052 33.80548,-5.43299 60.97044,-0.60377 88.73917,-4.82923 5.43299,22.33574 7.84806,42.25641 9.05469,62.78085 1.20663,20.52444 1.20753,41.04887 1.20753,68.8176 -66.40344,9.05469 -126.16636,-0.60376 -173.85576,6.03676 9.05469,11.46975 35.61589,42.86015 62.78085,52.51865 10.26222,3.6217 18.11027,-6.0368 27.76873,-8.4509 26.56119,-6.6406 55.53745,-6.6406 82.70242,-9.6585 l 1.20753,142.4653 c -62.17708,3.018 -127.97676,14.4877 -171.4407,15.6952 -19.3169,0.6038 -36.21965,-12.6772 -56.14122,-4.8292 15.09145,28.9763 42.86018,43.464 68.21384,60.3667 22.33574,8.4509 27.16496,-5.433 44.06771,-12.6773 26.56119,-11.4697 79.68358,-15.6952 109.26361,-17.5065 91.7571,-5.433 180.49628,-5.433 233.61867,7.8481 13.28105,3.6217 39.23848,1.2075 51.91486,-13.2811 z"
     id="path23"
     style="fill:#f2f2f2;fill-opacity:1;stroke:#000000;stroke-width:37.04165129;stroke-dasharray:none;stroke-opacity:1;paint-order:stroke fill markers" />
</svg>
