<?xml version="1.0" encoding="UTF-8" standalone="no"?>
<svg
   width="498.898"
   height="544.252"
   viewBox="0 0 1320 1440"
   version="1.1"
   id="svg29"
   sodipodi:docname="0TO.svg"
   inkscape:version="1.3 (0e150ed6c4, 2023-07-21)"
   xmlns:inkscape="http://www.inkscape.org/namespaces/inkscape"
   xmlns:sodipodi="http://sodipodi.sourceforge.net/DTD/sodipodi-0.dtd"
   xmlns="http://www.w3.org/2000/svg"
   xmlns:svg="http://www.w3.org/2000/svg">
  <sodipodi:namedview
     id="namedview29"
     pagecolor="#ffffff"
     bordercolor="#666666"
     borderopacity="1.0"
     inkscape:showpageshadow="2"
     inkscape:pageopacity="0.0"
     inkscape:pagecheckerboard="0"
     inkscape:deskcolor="#d1d1d1"
     inkscape:zoom="1.3733999"
     inkscape:cx="-393.18483"
     inkscape:cy="209.33452"
     inkscape:window-width="3840"
     inkscape:window-height="2036"
     inkscape:window-x="3828"
     inkscape:window-y="-12"
     inkscape:window-maximized="1"
     inkscape:current-layer="svg29" />
  <style
     id="style1"><![CDATA[.B{color-interpolation-filters:sRGB}]]></style>
  <defs
     id="defs11">
    <linearGradient
       id="A"
       x1="228.547"
       y1="805.748"
       x2="270.281"
       y2="805.748"
       spreadMethod="reflect"
       gradientUnits="userSpaceOnUse">
      <stop
         offset="0"
         stop-color="#ffd285"
         id="stop1" />
      <stop
         offset=".232"
         stop-color="#ffcd79"
         id="stop2" />
      <stop
         offset=".616"
         stop-color="#ffca73"
         id="stop3" />
      <stop
         offset=".808"
         stop-color="#ffd386"
         id="stop4" />
      <stop
         offset="1"
         stop-color="#ffc86e"
         id="stop5" />
    </linearGradient>
    <linearGradient
       id="B"
       x1="660.031"
       y1="318.739"
       x2="660.029"
       y2="1292.759"
       gradientUnits="userSpaceOnUse">
      <stop
         offset=".604"
         stop-color="#fff"
         id="stop6" />
      <stop
         offset="1"
         id="stop7" />
    </linearGradient>
    <filter
       id="C"
       x="-0.012394769"
       y="-0.012013239"
       width="1.0247895"
       height="1.0240265">
      <feGaussianBlur
         stdDeviation="2.441"
         id="feGaussianBlur7" />
    </filter>
    <clipPath
       id="D">
      <path
         d="M1799.132 1043.253a7.22 7.22 0 0 0-7.237 7.237v107.141l-75.759-75.759c-2.836-2.836-7.401-2.836-10.237 0l-3.45 3.45c-2.836 2.836-2.836 7.401 0 10.237l75.759 75.759h-107.141c-4.01 0-7.237 3.23-7.237 7.24v4.876c0 4.01 3.227 7.24 7.237 7.24h120.828v120.828a7.22 7.22 0 0 0 7.237 7.237h4.88c4.01 0 7.24-3.227 7.24-7.237v-120.828h120.825c4.01 0 7.24-3.23 7.24-7.24v-4.876c0-4.01-3.23-7.24-7.24-7.24h-107.138l75.759-75.759c2.836-2.836 2.836-7.401 0-10.237l-3.45-3.45c-2.836-2.836-7.401-2.836-10.237 0l-75.759 75.759V1050.49c0-4.01-3.23-7.237-7.24-7.237zm2.438 137.74h.01v.01h-.01z"
         opacity="1"
         stroke-width="1.534"
         id="path7" />
    </clipPath>
    <filter
       id="E"
       x="-0.026998007"
       y="-0.026998101"
       width="1.053996"
       height="1.0539962"
       class="B">
      <feGaussianBlur
         stdDeviation="3.099"
         id="feGaussianBlur8" />
    </filter>
    <clipPath
       id="F">
      <path
         d="M982.397 347.79c-5.318-1.999-15.307-9.799-22.198-17.332-11.647-12.733-12.529-14.865-12.529-30.288 0-13.47 1.499-18.527 7.967-26.882 12.203-15.764 22.463-24.326 42.838-35.749l18.655-10.459-2.595-15.114c-1.427-8.313-4.779-23.864-7.45-34.559-4.612-18.474-5.426-15.573-12.474-18.186-11.903-4.414-12.257-5.303.606-16.686 11.268-9.971 26.614-16.976 30.27-13.817.985.851 1.971 12.958 2.191 26.904s1.253 33.888 2.296 44.315l1.896 18.959 18.371-7.607c21.637-8.959 26.026-9.473 26.026-3.051 0 2.806-7.331 9.239-17.804 15.621-25.142 15.321-66.454 49.521-70.818 58.625-5.762 12.021-6.054 25.28 3.9 31.668 11.08 7.11 33.452 10.552 65.71-2.216 35.013-13.859 49.631-5.427 49.631 11.723 0 11.818-14.309 17.551-59.937 24.013-33.845 4.793-52.032 4.827-64.552.12z"
         fill="#000"
         stroke-width="2.846"
         id="path8" />
    </clipPath>
    <filter
       id="G"
       x="-0.058025685"
       y="-0.04092232"
       width="1.1160514"
       height="1.0818446"
       class="B">
      <feGaussianBlur
         stdDeviation="3.543"
         id="feGaussianBlur9" />
    </filter>
    <filter
       id="H"
       x="-0.093793037"
       y="-0.15286111"
       width="1.1875861"
       height="1.3057222"
       class="B">
      <feGaussianBlur
         stdDeviation=".9"
         id="feGaussianBlur10" />
    </filter>
    <filter
       id="I"
       x="-0.065162517"
       y="-0.067338683"
       width="1.130325"
       height="1.1346774"
       class="B">
      <feGaussianBlur
         stdDeviation=".9"
         id="feGaussianBlur11" />
    </filter>
  </defs>
  <path
     style="mix-blend-mode:multiply"
     d="M-2713.437 205.288l23.119 34.853h436.247l13.285-11.264-98.703-458.797-31.462-17.601z"
     transform="matrix(-2.0051 0 0 2.0051 -4363.9479 945.81263)"
     opacity=".5"
     filter="url(#C)"
     id="path11" />
  <path
     d="M660.043 318.74l-287.664 75.7-142.368 882.306 13.312 80.689 20.099 16.719h793.244l20.099-16.719 13.312-80.689L947.708 394.44z"
     fill="url(#A)"
     id="path12" />
  <path
     d="M660.031 318.739L372.368 394.44 230 1283.62l13.312 73.816 20.099 16.718h793.244l20.099-16.718 13.312-73.816-142.37-889.18z"
     fill="url(#B)"
     opacity=".25"
     style="mix-blend-mode:overlay"
     id="path13" />
  <path
     d="M1069.332 1271.7l-.043 21.064 20.75-16.013-20.707-5.052z"
     opacity=".8"
     fill="#fff"
     id="path14" />
  <path
     d="M1090.039 1276.752l-20.75 16.013-12.661 81.397 20.099-16.719 13.312-80.69z"
     opacity=".6"
     id="path15" />
  <g
     fill="#fff"
     id="g18">
    <path
       d="M372.331 394.43l17.664 13.248L660 335.13v-16.402z"
       opacity=".3"
       id="path16" />
    <path
       d="M947.669 394.43l-17.664 13.248L660 335.13v-16.402z"
       opacity=".3"
       id="path17" />
    <path
       d="M947.669 394.43l-17.664 13.248 139.327 864.022 20.707 5.052z"
       opacity=".3"
       id="path18" />
  </g>
  <path
     d="M372.331 394.43l17.664 13.248L250.668 1271.7l-20.707 5.052z"
     opacity=".4"
     id="path19" />
  <path
     d="M229.96 1276.752l20.75 16.013 12.661 81.397-20.099-16.719-13.312-80.69z"
     opacity=".9"
     id="path20" />
  <path
     d="M250.668 1271.7l.043 21.064-20.75-16.013 20.707-5.052z"
     opacity=".6"
     id="path21" />
  <path
     d="M250.668 1271.7h818.665l-.043 21.064H250.71l-.043-21.064z"
     opacity=".2"
     id="path22" />
  <path
     d="M1069.289 1292.764l-12.661 81.397H263.371l-12.661-81.397z"
     opacity=".7"
     id="path23" />
  <g
     id="g19811-6-9"
     transform="matrix(14.676185,0,0,14.676185,276.98597,221.17642)">
    <path
       id="path1085-7-6"
       style="color:#000000;font-style:normal;font-variant:normal;font-weight:normal;font-stretch:normal;font-size:medium;line-height:normal;font-family:sans-serif;font-variant-ligatures:normal;font-variant-position:normal;font-variant-caps:normal;font-variant-numeric:normal;font-variant-alternates:normal;font-variant-east-asian:normal;font-feature-settings:normal;font-variation-settings:normal;text-indent:0;text-align:start;text-decoration:none;text-decoration-line:none;text-decoration-style:solid;text-decoration-color:#000000;letter-spacing:normal;word-spacing:normal;text-transform:none;writing-mode:lr-tb;direction:ltr;text-orientation:mixed;dominant-baseline:auto;baseline-shift:baseline;text-anchor:start;white-space:normal;shape-padding:0;shape-margin:0;inline-size:0;clip-rule:nonzero;display:inline;overflow:visible;visibility:visible;isolation:auto;mix-blend-mode:normal;color-interpolation:sRGB;color-interpolation-filters:linearRGB;solid-color:#000000;solid-opacity:1;vector-effect:none;fill:#c80000;fill-opacity:1;fill-rule:nonzero;stroke:none;stroke-width:1.96641;stroke-linecap:butt;stroke-linejoin:round;stroke-miterlimit:4;stroke-dasharray:none;stroke-dashoffset:0;stroke-opacity:1;paint-order:stroke fill markers;color-rendering:auto;image-rendering:auto;shape-rendering:auto;text-rendering:auto;enable-background:accumulate;stop-color:#000000"
       d="m 797.46484,523.43555 c -0.19524,0.0211 -0.39395,0.0777 -0.59765,0.18164 l -1.19531,0.60937 0.92187,1.08789 c 4.53756,5.35969 5.48374,10.28705 5.69141,14.61328 0.10384,2.16312 0.004,4.16828 0.0488,6 0.0453,1.83173 0.2283,3.54759 1.07422,4.97071 1.41315,2.86247 3.10348,4.94334 5.03711,6.41992 -1.57102,1.24791 -3.34511,2.65275 -5.63476,4.54492 a 0.983304,0.983304 0 0 0 0.23633,1.65625 c 3.91491,1.70861 8.11963,2.85539 12.45507,3.41797 -0.13558,5.50076 -0.53157,10.52773 -2.07422,15.05859 -1.93728,5.68993 -5.61861,10.69488 -13.04882,15.22071 a 0.98330402,0.98330402 0 0 0 -0.0274,0.0156 c -3.58606,2.32412 -6.06829,4.24396 -7.77344,6.69141 -1.7051,2.44745 -2.55478,5.35056 -3.00585,9.44531 a 0.98330402,0.98330402 0 0 0 0.72461,1.06055 c 9.31919,2.49707 20.31909,3.68375 31.3125,3.63281 10.99696,0.0518 22.00195,-1.13492 31.32421,-3.63281 a 0.98330402,0.98330402 0 0 0 0.72266,-1.06055 c -0.45107,-4.09475 -1.30662,-6.99786 -3.01172,-9.44531 -1.70511,-2.44745 -4.18151,-4.36729 -7.76758,-6.69141 a 0.98330402,0.98330402 0 0 0 -0.0273,-0.0156 c -7.43021,-4.52583 -11.11155,-9.53078 -13.04883,-15.22071 -1.54355,-4.53349 -1.93887,-9.56383 -2.07422,-15.06836 4.19648,-0.55144 8.38894,-1.66304 12.45117,-3.40234 a 0.983304,0.983304 0 0 0 0.24024,-1.66016 c -2.30805,-1.90744 -4.08492,-3.30294 -5.65235,-4.5332 1.94102,-1.47731 3.63727,-3.56246 5.05469,-6.43359 l 0.041,-0.0781 c 0.80774,-1.4079 0.98871,-3.09356 1.0332,-4.89258 0.0453,-1.83172 -0.055,-3.83688 0.0488,-6 0.20766,-4.32623 1.15384,-9.25359 5.69141,-14.61328 l 0.92187,-1.08789 -1.19531,-0.60937 c -0.81482,-0.41589 -1.55535,-0.0815 -2.27539,0.29687 -0.72004,0.37837 -1.47267,0.91735 -2.2461,1.46289 -1.47318,1.03912 -3.04903,2.00332 -3.95703,2.0918 -1.81436,-1.13018 -3.6167,-1.01114 -4.98242,-0.24414 -1.43989,0.80865 -2.43846,2.19345 -2.87891,3.55859 l -0.63867,1.97852 1.7168,-0.60547 c 0.37895,-0.13369 0.69444,-0.0754 1.08789,0.20508 0.39345,0.28044 0.8274,0.81963 1.20312,1.57422 0.7515,1.50917 1.25369,3.83888 1.15235,6.27539 -0.10135,2.4365 -0.78173,4.96656 -2.29883,7.0332 -0.91068,1.24056 -2.13497,2.32503 -3.74805,3.13086 1.03937,-1.37272 1.66211,-3.06177 1.66211,-4.89648 0,-4.58873 -3.85205,-8.29883 -8.54297,-8.29883 -4.69091,0 -8.54492,3.7101 -8.54492,8.29883 0,1.83471 0.62275,3.52376 1.66211,4.89648 -1.61307,-0.80583 -2.83737,-1.8903 -3.74804,-3.13086 -1.51713,-2.06664 -2.19945,-4.5967 -2.30079,-7.0332 -0.10135,-2.43651 0.40284,-4.76622 1.1543,-6.27539 0.37573,-0.75459 0.80968,-1.29378 1.20313,-1.57422 0.39344,-0.28044 0.70893,-0.33876 1.08789,-0.20508 l 1.71679,0.60547 -0.63867,-1.97852 c -0.44044,-1.36514 -1.43898,-2.74994 -2.87891,-3.55859 -1.36571,-0.76699 -3.16805,-0.88603 -4.98242,0.24414 -0.90801,-0.0885 -2.48387,-1.0527 -3.95703,-2.0918 -0.77342,-0.54553 -1.52605,-1.08452 -2.24609,-1.46289 -0.54003,-0.28377 -1.09199,-0.542 -1.67774,-0.47851 z m 2.58985,3.4375 c 0.14469,0.10105 0.2785,0.19162 0.42773,0.29687 0.77415,0.54605 1.58415,1.15358 2.42383,1.62305 4.7e-4,2.6e-4 10e-4,-2.7e-4 0.002,0 0.8392,0.46901 1.70761,0.80087 2.59571,0.79687 h 0.24023 l 0.20703,-0.14648 c 1.45961,-1.0212 2.63178,-0.88741 3.61719,-0.33398 0.241,0.13534 0.4669,0.30374 0.67578,0.49218 0.20888,0.18845 0.40074,0.39694 0.57031,0.61133 -5.5e-4,2.2e-4 -10e-4,-2.1e-4 -0.002,0 -0.23868,0.0932 -0.47131,0.20863 -0.68555,0.36133 -0.18284,0.13033 -0.3572,0.27952 -0.52343,0.44336 -0.16639,0.16426 -0.32613,0.34476 -0.47657,0.53906 -0.30086,0.3886 -0.56995,0.83321 -0.8125,1.32031 -0.97018,1.94843 -1.51208,4.61127 -1.39453,7.4375 0.11756,2.82623 0.91733,5.82893 2.73047,8.29883 0.0226,0.0308 0.0493,0.0592 0.0723,0.0898 0.23761,0.31726 0.49187,0.62396 0.76367,0.91993 0.0828,0.0904 0.17379,0.17544 0.25976,0.26367 0.22871,0.23406 0.4672,0.46169 0.71875,0.67969 0.10357,0.09 0.21087,0.17654 0.31836,0.26367 0.26817,0.2167 0.54716,0.4254 0.83985,0.62304 0.0936,0.0634 0.18504,0.12812 0.28125,0.18946 0.38961,0.24781 0.79697,0.48133 1.22851,0.69336 0.009,0.004 0.0163,0.0112 0.0254,0.0156 1.1924,0.58265 2.5438,1.02441 4.07032,1.28321 1.05881,0.33168 2.26457,0.40785 3.36523,0.43945 h 0.0215 0.0215 c 1.10102,-0.0317 2.30617,-0.10749 3.36523,-0.43945 1.50107,-0.25461 2.83563,-0.68357 4.01367,-1.25196 0.0242,-0.0117 0.0443,-0.0273 0.0684,-0.0391 0.41757,-0.20462 0.81331,-0.42767 1.19141,-0.66602 0.1169,-0.0737 0.22667,-0.15371 0.33984,-0.23046 0.27165,-0.18417 0.53477,-0.37546 0.78516,-0.57618 0.12725,-0.10204 0.25123,-0.20642 0.37305,-0.3125 0.24412,-0.21248 0.47666,-0.4325 0.69922,-0.66015 0.0861,-0.0881 0.17683,-0.17341 0.25976,-0.26367 0.30176,-0.32836 0.58765,-0.6673 0.84766,-1.02149 1.81313,-2.4699 2.61292,-5.4726 2.73047,-8.29883 0.0294,-0.70655 0.0182,-1.40255 -0.0312,-2.08007 -0.0494,-0.67753 -0.13679,-1.33748 -0.25782,-1.96876 -0.24205,-1.26254 -0.62037,-2.41445 -1.10546,-3.38867 -0.48509,-0.97421 -1.08148,-1.78028 -1.81446,-2.30273 -0.21471,-0.15306 -0.44629,-0.26803 -0.68554,-0.36133 0.33913,-0.42879 0.76212,-0.83282 1.24414,-1.10351 0.9854,-0.55343 2.15757,-0.68722 3.61718,0.33398 l 0.20704,0.14648 h 0.24023 c 0.22216,10e-4 0.44262,-0.0188 0.66211,-0.0566 1.53641,-0.26501 3.00462,-1.40769 4.35937,-2.36328 0.14922,-0.10524 0.28308,-0.19584 0.42774,-0.29687 -1.11417,1.74489 -1.92851,3.46616 -2.52149,5.13672 -0.39532,1.1137 -0.69305,2.20555 -0.91406,3.26562 -0.33152,1.5901 -0.49223,3.11011 -0.56055,4.5332 -0.1108,2.30806 -0.009,4.36737 -0.0508,6.0586 -0.0418,1.69123 -0.23345,2.95646 -0.7539,3.83203 l -0.0234,0.0371 -0.0195,0.0391 c -0.20912,0.42732 -0.42416,0.82708 -0.64258,1.21289 -0.0771,0.1364 -0.15613,0.26307 -0.23438,0.39453 -0.13336,0.22353 -0.26738,0.44478 -0.40429,0.6543 -0.11228,0.17234 -0.2271,0.3387 -0.3418,0.50195 -0.10599,0.15032 -0.21219,0.29668 -0.32031,0.43946 -0.13316,0.17655 -0.26784,0.35209 -0.4043,0.51757 -0.0738,0.0891 -0.14983,0.17186 -0.22461,0.25782 -0.59082,0.68216 -1.21305,1.27036 -1.86914,1.77343 -0.003,0.002 -0.005,0.004 -0.008,0.006 -7.2e-4,5.6e-4 -0.001,10e-4 -0.002,0.002 -0.24056,0.18405 -0.48638,0.35665 -0.73633,0.51953 -0.46544,0.3033 -0.94171,0.58283 -1.44141,0.82031 -2.65377,1.26122 -5.84659,1.63138 -9.63281,1.61328 -0.13342,-6e-4 -0.26887,-0.005 -0.4043,-0.0137 l -0.0488,-0.004 -0.0508,0.004 c -0.13541,0.009 -0.26893,0.0131 -0.40234,0.0137 -3.78622,0.0181 -6.981,-0.35206 -9.63477,-1.61328 -0.51047,-0.24261 -0.9979,-0.52844 -1.47265,-0.83984 -7.6e-4,-5e-4 -10e-4,-10e-4 -0.002,-0.002 -0.24306,-0.15951 -0.48264,-0.32816 -0.71679,-0.50781 -0.0179,-0.0137 -0.0349,-0.0291 -0.0527,-0.043 -0.63272,-0.49116 -1.23294,-1.06162 -1.80468,-1.7207 -0.0811,-0.0931 -0.16415,-0.18245 -0.24414,-0.2793 -0.13336,-0.16213 -0.26433,-0.33508 -0.39454,-0.50781 -0.11049,-0.14603 -0.21985,-0.29531 -0.32812,-0.44922 -0.10752,-0.15337 -0.21493,-0.30934 -0.32031,-0.4707 -0.14839,-0.22652 -0.29326,-0.46406 -0.4375,-0.70703 -0.071,-0.11985 -0.14288,-0.23545 -0.21289,-0.35938 -0.2182,-0.38553 -0.43364,-0.78593 -0.64258,-1.21289 l -0.0195,-0.0391 -0.0234,-0.0371 c -0.39035,-0.65668 -0.59547,-1.5322 -0.69141,-2.64258 -0.0322,-0.37012 -0.052,-0.76664 -0.0625,-1.18945 -0.0418,-1.69123 0.06,-3.75054 -0.0508,-6.0586 -0.18216,-3.79491 -1.02499,-8.28249 -3.99609,-12.93554 z m 21.55859,12.20898 c 3.04671,0 5.57543,1.95667 6.36328,4.61914 0.0558,0.18856 0.10475,0.37899 0.14258,0.57422 0.0373,0.19254 0.0669,0.38777 0.0859,0.58594 2.6e-4,0.003 0.002,0.005 0.002,0.008 0.007,0.0793 0.007,0.16016 0.0117,0.24024 0.006,0.11589 0.0176,0.23022 0.0176,0.34765 0,0.003 0,0.006 0,0.01 10e-6,0.004 0,0.008 0,0.0117 0,0.0106 -0.002,0.0206 -0.002,0.0312 -0.003,0.30751 -0.034,0.6085 -0.0801,0.90429 -0.0121,0.0785 -0.0221,0.15682 -0.0371,0.23438 -0.0546,0.27955 -0.12768,0.55292 -0.21875,0.81836 -0.0286,0.0835 -0.0618,0.16418 -0.0937,0.24609 -0.0952,0.24313 -0.20016,0.48105 -0.32422,0.70899 -0.0457,0.0842 -0.0971,0.16413 -0.14649,0.24609 -0.11131,0.18402 -0.23198,0.36151 -0.36132,0.5332 -0.0431,0.0574 -0.0761,0.12173 -0.1211,0.17774 -0.002,-0.004 -0.005,-0.009 -0.008,-0.0137 -1.20677,1.4978 -3.08921,2.4668 -5.23047,2.4668 -2.14967,0 -4.03856,-0.9765 -5.24414,-2.48437 -0.002,0.004 -0.004,0.008 -0.006,0.0117 -0.0368,-0.0462 -0.0641,-0.0993 -0.0996,-0.14649 -0.1497,-0.19788 -0.28846,-0.40296 -0.41406,-0.61719 -0.0324,-0.0553 -0.065,-0.10972 -0.0957,-0.16601 -0.12852,-0.2354 -0.23828,-0.48081 -0.33594,-0.73242 -0.0306,-0.0788 -0.0624,-0.15611 -0.0898,-0.23633 -0.0916,-0.26789 -0.16428,-0.54396 -0.21874,-0.82617 -0.0135,-0.0706 -0.0241,-0.14155 -0.0352,-0.21289 -0.0469,-0.29886 -0.0776,-0.60322 -0.0801,-0.91407 -5e-5,-0.01 -0.002,-0.0193 -0.002,-0.0293 0,-0.004 -10e-6,-0.008 0,-0.0117 -10e-6,-0.003 0,-0.006 0,-0.01 0,-0.11743 0.0111,-0.23176 0.0176,-0.34765 0.005,-0.0825 0.006,-0.1664 0.0137,-0.24805 0.0189,-0.19753 0.0488,-0.39206 0.0859,-0.58399 0.0371,-0.1918 0.0842,-0.37907 0.13867,-0.56445 0.001,-0.004 8.3e-4,-0.008 0.002,-0.0117 0.78723,-2.66271 3.31639,-4.61914 6.36328,-4.61914 z"
       transform="matrix(0.36457681,0,0,0.36457681,-273.44382,-177.24112)" />
  </g>
  <path
     d="m 592.711,1173.0805 c -27.75398,-10.436 -76.9684,-64.1053 -40.123,-111.7 18.296,-23.635 33.678,-36.472 64.227,-53.599 l 27.969,-15.68107 -3.89,-22.661 c -2.14,-12.463 -7.166,-35.78 -11.169,-51.814 -6.915,-27.698 -8.135,-23.348 -18.702,-27.267 -17.846,-6.617 -18.377,-7.95 0.909,-25.017 16.894,-14.95 39.902,-25.452 45.384,-20.716 1.477,1.276 2.956,19.428 3.286,40.336 0.33,20.908 1.879,50.807 3.443,66.441 l 2.843,28.425 27.544,-11.404 c 32.44,-13.431 39.02,-14.203 39.02,-4.575 0,4.207 -10.992,13.851 -26.694,23.42 -37.695,22.97107 -99.633,74.24607 -106.176,87.89607 -8.639,18.022 -9.077,37.902 5.847,47.479 16.612,10.661 50.154,15.821 98.518,-3.322 52.495,-20.778 74.412,-8.137 74.412,17.576 0,17.719 -21.453,26.314 -89.863,36.002 -50.743,7.186 -78.011,7.237 -96.782,0.18 z"
     fill="#310000"
     id="path26"
     style="fill:#ffd5d5;stroke:#aa0000;stroke-width:37.0417;stroke-dasharray:none;stroke-opacity:1;paint-order:stroke fill markers"
     sodipodi:nodetypes="cccccscsssccsscccssscc" />
</svg>
