<?xml version="1.0" encoding="UTF-8" standalone="no"?>
<svg
   width="498.898"
   height="544.252"
   viewBox="0 0 1320 1440"
   version="1.1"
   id="svg30"
   sodipodi:docname="1GY.svg"
   inkscape:version="1.3 (0e150ed6c4, 2023-07-21)"
   xmlns:inkscape="http://www.inkscape.org/namespaces/inkscape"
   xmlns:sodipodi="http://sodipodi.sourceforge.net/DTD/sodipodi-0.dtd"
   xmlns="http://www.w3.org/2000/svg"
   xmlns:svg="http://www.w3.org/2000/svg">
  <sodipodi:namedview
     id="namedview30"
     pagecolor="#ffffff"
     bordercolor="#666666"
     borderopacity="1.0"
     inkscape:showpageshadow="2"
     inkscape:pageopacity="0.0"
     inkscape:pagecheckerboard="0"
     inkscape:deskcolor="#d1d1d1"
     inkscape:zoom="0.82177004"
     inkscape:cx="80.922882"
     inkscape:cy="-9.1266408"
     inkscape:window-width="1916"
     inkscape:window-height="2022"
     inkscape:window-x="1910"
     inkscape:window-y="0"
     inkscape:window-maximized="0"
     inkscape:current-layer="svg30" />
  <style
     id="style1"><![CDATA[.B{color-interpolation-filters:sRGB}.C{fill-opacity:.98}]]></style>
  <defs
     id="defs12">
    <linearGradient
       id="A"
       x1="-1430.769"
       y1="-77.47"
       x2="-1409.955"
       y2="-77.47"
       spreadMethod="reflect"
       gradientUnits="userSpaceOnUse">
      <stop
         offset="0"
         stop-color="#ffd285"
         id="stop1" />
      <stop
         offset=".232"
         stop-color="#ffcd79"
         id="stop2" />
      <stop
         offset=".616"
         stop-color="#ffca73"
         id="stop3" />
      <stop
         offset=".808"
         stop-color="#ffd386"
         id="stop4" />
      <stop
         offset="1"
         stop-color="#ffc86e"
         id="stop5" />
    </linearGradient>
    <filter
       id="B"
       x="-0.011663823"
       y="-0.0099550202"
       width="1.0233276"
       height="1.01991"
       class="B">
      <feGaussianBlur
         stdDeviation="2.441"
         id="feGaussianBlur5" />
    </filter>
    <linearGradient
       id="C"
       x1="-904.556"
       y1="-406.052"
       x2="-904.556"
       y2="184.159"
       gradientUnits="userSpaceOnUse">
      <stop
         offset="0"
         id="stop6" />
      <stop
         offset=".604"
         stop-color="#fff"
         id="stop7" />
    </linearGradient>
    <clipPath
       id="D">
      <path
         d="M1799.132 1043.252c-4.01 0-7.237 3.23-7.237 7.24v107.141l-75.759-75.762c-2.836-2.836-7.401-2.836-10.237 0l-3.45 3.45c-2.836 2.836-2.836 7.401 0 10.237l75.756 75.759h-107.138c-4.01 0-7.237 3.23-7.237 7.24v4.88a7.22 7.22 0 0 0 7.237 7.237h107.141l-75.759 75.759c-2.836 2.836-2.836 7.404 0 10.24l3.45 3.45c2.836 2.836 7.401 2.836 10.237 0l75.759-75.762v107.141c0 4.01 3.227 7.24 7.237 7.24h4.88c4.01 0 7.24-3.23 7.24-7.24V1204.36l75.759 75.762c2.836 2.836 7.401 2.836 10.237 0l3.45-3.45c2.836-2.836 2.836-7.404 0-10.24l-75.759-75.759h107.138c4.01 0 7.24-3.227 7.24-7.237v-4.88c0-4.01-3.23-7.24-7.24-7.24h-107.135l75.756-75.759c2.836-2.836 2.836-7.401 0-10.237l-3.45-3.45c-2.836-2.836-7.401-2.836-10.237 0l-75.759 75.762v-107.141c0-4.01-3.23-7.24-7.24-7.24zm2.438 137.74h0 0 0 0 0-.01 0 0z"
         opacity="1"
         stroke-width="1.534"
         id="path7" />
    </clipPath>
    <filter
       id="E"
       x="-0.048167785"
       y="-0.048167264"
       width="1.0963356"
       height="1.0963345"
       class="B">
      <feGaussianBlur
         stdDeviation="5.529"
         id="feGaussianBlur7" />
    </filter>
    <clipPath
       id="F">
      <path
         d="M516.242 741.851c31.877 14.376 52.503 42.503 91.881 38.752-15.626-25.001-46.253-81.255-86.255-100.006-18.126 15.001-15.001 37.502-5.625 61.254zM397.485 613.718c21.876 36.877 71.879 45.628 110.007 55.628 18.751-14.376 39.377-18.126 62.504-18.126s46.253 2.5 72.504 3.125c-1.875 38.127-3.75 103.756-3.75 146.884-45.628 6.875-103.756 6.25-152.509 5-15.001 0-14.376 9.376-8.751 17.501 18.126 18.751 46.253 26.252 75.63 32.502 13.751-11.251 60.004-11.251 85.005-11.251-2.5 35.627-3.125 88.13-4.375 134.383-36.877 2.5-73.129 6.25-102.506 6.875-30.002.625-56.878 1.875-84.38 7.5 8.126 35.627 41.878 44.378 79.38 48.128 3.125.625 5.625-7.501 11.876-8.126 60.004-8.126 210.013-21.251 261.891-14.376 24.376 3.125 47.503 11.251 77.505 18.751 8.75 1.875 8.75-8.126 6.25-19.376-15.626-19.376-32.502-43.753-52.503-54.378-13.126-6.875-28.127 5-41.252 6.875-35.002 5.625-63.129.625-91.88 5-5.625-23.126-8.126-43.753-9.376-65.004s-1.25-42.503-1.25-71.254c68.754-9.376 130.633.625 180.011-6.25-9.376-11.876-36.877-44.378-65.004-54.378-10.626-3.75-18.751 6.25-28.752 8.751-27.502 6.875-57.503 6.875-85.63 10.001l-1.25-147.509c64.379-3.125 132.508-15.001 177.511-16.251 20.001-.625 37.502 13.126 58.128 5-15.626-30.002-44.378-45.003-70.629-62.504-23.126-8.751-28.127 5.625-45.628 13.126-27.502 11.876-82.505 16.251-113.132 18.126-95.006 5.625-186.886 5.625-241.889-8.125-13.751-3.75-40.627-1.25-53.753 13.751z"
         fill="#000"
         stroke-width="31.011"
         id="path8" />
    </clipPath>
    <filter
       id="G"
       x="-0.04536033"
       y="-0.050960098"
       width="1.0907207"
       height="1.1019202"
       class="B">
      <feGaussianBlur
         stdDeviation="9.432"
         id="feGaussianBlur8" />
    </filter>
    <filter
       id="H"
       x="-0.063406602"
       y="-0.12766789"
       width="1.1268132"
       height="1.2553358"
       class="B">
      <feGaussianBlur
         stdDeviation="1.272"
         id="feGaussianBlur9" />
    </filter>
    <filter
       id="I"
       x="-0.069815997"
       y="-0.06830536"
       width="1.139632"
       height="1.1366107"
       class="B">
      <feGaussianBlur
         stdDeviation="1.272"
         id="feGaussianBlur10" />
    </filter>
    <filter
       id="J"
       x="-0.045316247"
       y="-0.098488305"
       width="1.0906325"
       height="1.1969766"
       class="B">
      <feGaussianBlur
         stdDeviation="1.272"
         id="feGaussianBlur11" />
    </filter>
    <filter
       id="K"
       x="-0.055823503"
       y="-0.13455809"
       width="1.111647"
       height="1.2691162"
       class="B">
      <feGaussianBlur
         stdDeviation="1.272"
         id="feGaussianBlur12" />
    </filter>
    <path
       id="L"
       d="M658.215 539.379c2.233 2.233 6.088 1.999 3.783 4.304s-5.984 2.363-8.217.13-2.175-5.912.13-8.217 2.071 1.55 4.304 3.783z" />
    <filter
       id="C-0"
       x="-0.010152573"
       y="-0.010558682"
       width="1.0203051"
       height="1.0211174"
       class="B">
      <feGaussianBlur
         stdDeviation="2.441"
         id="feGaussianBlur7-2" />
    </filter>
    <linearGradient
       id="A-4"
       x1="236.94299"
       y1="670.45801"
       x2="278.677"
       y2="670.45801"
       spreadMethod="reflect"
       gradientUnits="userSpaceOnUse"
       gradientTransform="rotate(180,-55.743272,680.69185)">
      <stop
         offset="0"
         stop-color="#ffd285"
         id="stop1-9" />
      <stop
         offset=".232"
         stop-color="#ffcd79"
         id="stop2-4" />
      <stop
         offset=".616"
         stop-color="#ffca73"
         id="stop3-5" />
      <stop
         offset=".808"
         stop-color="#ffd386"
         id="stop4-2" />
      <stop
         offset="1"
         stop-color="#ffc86e"
         id="stop5-4" />
    </linearGradient>
    <linearGradient
       id="B-2"
       x1="660"
       y1="115.844"
       x2="670.25403"
       y2="1157.469"
       gradientUnits="userSpaceOnUse"
       gradientTransform="rotate(180,-55.743272,680.69185)">
      <stop
         offset=".604"
         stop-color="#fff"
         id="stop6-7" />
      <stop
         offset="1"
         id="stop7-1" />
    </linearGradient>
  </defs>
  <path
     style="mix-blend-mode:multiply"
     d="M-2699.281 228.709l26.181 28.949 190.592 72.165 210.264-77.468 75.234-461.629-45.894-49.39z"
     transform="matrix(-2.0051 0 0 2.0051 -4364.0778 706.82307)"
     opacity=".5"
     filter="url(#B)"
     id="path12" />
  <path
     d="M-1220.221-390.88l-194.139 75.893-8.809 28.459-70.567 506.333 10.349 7.986h525.404l10.348-7.986-70.567-506.333-8.809-28.459z"
     fill="url(#A)"
     transform="matrix(-2.0051 0 0 -2.0051 -1787.6392 533.54186)"
     id="path13" />
  <path
     d="M-904.556-434.511l-194.139 75.893-8.809 31.887-70.567 502.905 10.349 7.986h525.404l10.349-7.986-70.567-502.905-8.809-31.887z"
     opacity=".25"
     fill="url(#C)"
     transform="matrix(-2.0051 0 0 -2.0051 -1154.6881 446.05464)"
     style="mix-blend-mode:overlay"
     id="path14" />
  <path
     d="M133.204 97.854l.043-21.064-20.75 16.013 20.707 5.052zm932.803 1010.214l-17.664-13.248-389.274 149.021v16.402z"
     opacity=".4"
     id="path15" />
  <path
     d="M253.993 1108.068l17.664-13.248 387.412 149.021v16.402z"
     opacity=".6"
     id="path16" />
  <path
     d="M253.993 1108.068l17.664-13.248L133.204 97.854l-20.707-5.052z"
     opacity=".6"
     id="path17" />
  <g
     fill="#fff"
     id="g20">
    <path
       d="M1066.007 1108.068l-17.664-13.248 138.453-996.966 20.707-5.052z"
       opacity=".3"
       id="path18" />
    <path
       d="M1186.796 97.854l-.043-21.064 20.75 16.013-20.707 5.052z"
       opacity=".8"
       id="path19" />
    <path
       d="M1186.796 97.854H133.204l.043-21.064h1053.506l.043 21.064z"
       opacity=".3"
       id="path20" />
  </g>
  <path
     d="M271.655 1165.416l-17.663-57.348 405.076 152.176 406.938-152.176-17.663 57.348-389.275 152.176-387.413-152.176z"
     opacity=".7"
     id="path21" />
  <path
     style="fill:#000000;stroke-width:608.947"
     d="m 774.33032,524.8622 c 24.2113,5.2984 42.35827,17.6047 51.28537,34.8683 20.3073,39.271 6.8249,66.4159 -45.79877,92.1817 -86.8369,42.5165 -89.4,111.0005 -5.7861,154.0159 56.65007,29.1378 98.59257,93.9571 98.59257,152.377 0,68.4012 -56.6381,142.7851 -123.36087,162.0197 -84.4059,24.3332 -181.96652,-5.0546 -235.61282,-71.0351 -44.1302,-54.25107 -56.2117,-93.5525 -56.2544,-182.961 -0.03,-63.6153 2.3622,-82.8903 14.6888,-117.3487 36.9083,-103.3602 107.887,-179.9302 194.23332,-209.5311 34.5089,-11.8313 87.6601,-19.0119 107.9885,-14.5847 z m -110.6876,417.2012 c -4.1402,4.9936 -6.6548,17.1526 -5.5422,26.958 1.7018,14.95043 5.3594,18.14573 22.6161,19.80943 16.891,1.651 21.8923,-0.9144 27.9629,-14.2493 6.1798,-13.56113 5.4813,-18.32363 -4.1402,-28.94313 -13.5179,-14.9377 -30.2951,-16.4058 -40.9334,-3.5915 z"
     id="path2" />
  <path
     d="m 528.6001,350.0266 c 30.7867,13.8839 50.7083,41.0489 88.7392,37.4272 -15.0914,-24.1471 -44.6714,-78.4761 -83.3062,-96.5864 -17.5065,14.4877 -14.4876,36.2197 -5.433,59.1592 z M 413.90352,226.2753 c 21.1282,35.6158 69.42138,44.0677 106.24478,53.7261 18.1103,-13.8839 38.031,-17.5065 60.3667,-17.5065 22.3357,0 44.6715,2.4151 70.02515,3.0179 -1.8113,36.8235 -3.6217,100.2081 -3.6217,141.8616 -44.06775,6.6406 -100.20805,6.0368 -147.29455,4.8293 -14.4877,0 -13.8839,9.0547 -8.4509,16.9027 17.5065,18.1103 44.6714,25.3537 73.043,31.3904 13.2811,-10.866 57.9517,-10.866 82.09869,-10.866 -2.41506,34.4093 -3.01793,85.1166 -4.22546,129.7881 -35.61593,2.4151 -70.62893,6.0368 -99.00143,6.6405 -28.9762,0.6038 -54.9337,1.8113 -81.4949,7.2443 7.8481,34.4093 37.0302,39.4452 73.2507,43.0669 3.9954,0.8293 17.6901,-1.7669 21.4301,-5.0022 57.9517,-7.8481 196.28577,-19.9553 246.39029,-13.3148 23.5432,3.0179 45.879,10.866 74.8543,18.1103 8.4509,1.8113 8.4509,-7.8481 6.0368,-18.7141 -15.0915,-18.714 -31.3905,-42.2564 -50.7083,-52.5186 -12.6772,-6.6405 -27.1649,4.8292 -39.84221,6.6405 -33.80548,5.433 -60.97044,0.6038 -88.73917,4.8293 -5.43299,-22.3358 -7.84806,-42.2564 -9.05469,-62.7809 -1.20663,-20.5244 -1.20753,-41.0488 -1.20753,-68.8176 66.40344,-9.0547 126.1664,0.6038 173.8558,-6.0367 -9.0547,-11.4698 -35.6159,-42.8602 -62.7809,-52.5187 -10.26221,-3.6217 -18.11026,6.0368 -27.76872,8.451 -26.56119,6.6405 -55.53745,6.6405 -82.70242,9.6584 l -1.20753,-142.4654 c 62.17708,-3.0179 127.97677,-14.4876 171.44067,-15.6952 19.3169,-0.6037 36.2197,12.6773 56.1413,4.8293 -15.0915,-28.9763 -42.8602,-43.464 -68.2139,-60.3667 -22.3357,-8.4509 -27.1649,5.433 -44.0677,12.6773 -26.56119,11.4697 -79.68358,15.6952 -109.26361,17.5065 -91.75708,5.433 -180.49628,5.433 -233.61868,-7.8481 -13.281,-3.6217 -39.23848,-1.2075 -51.91488,13.2811 z"
     id="path23-2"
     style="fill:#f2f2f2;fill-opacity:1;stroke:#000000;stroke-width:37.0417;stroke-dasharray:none;stroke-opacity:1;paint-order:stroke fill markers"
     sodipodi:nodetypes="ccccccscccccccccccccccccscccccccccccccc" />
</svg>
