<?xml version="1.0" encoding="UTF-8" standalone="no"?>
<svg
   width="498.898"
   height="544.252"
   viewBox="0 0 1320 1440"
   version="1.1"
   id="svg28"
   sodipodi:docname="1NG.svg"
   inkscape:version="1.3 (0e150ed6c4, 2023-07-21)"
   xmlns:inkscape="http://www.inkscape.org/namespaces/inkscape"
   xmlns:sodipodi="http://sodipodi.sourceforge.net/DTD/sodipodi-0.dtd"
   xmlns="http://www.w3.org/2000/svg"
   xmlns:svg="http://www.w3.org/2000/svg">
  <sodipodi:namedview
     id="namedview28"
     pagecolor="#ffffff"
     bordercolor="#666666"
     borderopacity="1.0"
     inkscape:showpageshadow="2"
     inkscape:pageopacity="0.0"
     inkscape:pagecheckerboard="0"
     inkscape:deskcolor="#d1d1d1"
     inkscape:zoom="1.1621583"
     inkscape:cx="-119.17481"
     inkscape:cy="335.15227"
     inkscape:window-width="1916"
     inkscape:window-height="2022"
     inkscape:window-x="1910"
     inkscape:window-y="0"
     inkscape:window-maximized="0"
     inkscape:current-layer="svg28" />
  <style
     id="style1"><![CDATA[.B{color-interpolation-filters:sRGB}]]></style>
  <defs
     id="defs12">
    <linearGradient
       id="A"
       x1="-1430.769"
       y1="-77.47"
       x2="-1409.955"
       y2="-77.47"
       spreadMethod="reflect"
       gradientUnits="userSpaceOnUse">
      <stop
         offset="0"
         stop-color="#ffd285"
         id="stop1" />
      <stop
         offset=".232"
         stop-color="#ffcd79"
         id="stop2" />
      <stop
         offset=".616"
         stop-color="#ffca73"
         id="stop3" />
      <stop
         offset=".808"
         stop-color="#ffd386"
         id="stop4" />
      <stop
         offset="1"
         stop-color="#ffc86e"
         id="stop5" />
    </linearGradient>
    <filter
       id="B"
       x="-0.013119982"
       y="-0.01088309"
       width="1.02624"
       height="1.0217662"
       class="B">
      <feGaussianBlur
         stdDeviation="2.441"
         id="feGaussianBlur5" />
    </filter>
    <linearGradient
       id="C"
       x1="-905.02"
       y1="-384.47"
       x2="-904.556"
       y2="184.159"
       gradientUnits="userSpaceOnUse">
      <stop
         offset="0"
         id="stop6" />
      <stop
         offset=".603"
         stop-color="#fff"
         id="stop7" />
    </linearGradient>
    <filter
       x="-.079"
       y="-.083"
       width="1.159"
       height="1.166"
       class="B"
       id="filter7">
      <feGaussianBlur
         stdDeviation=".392"
         id="feGaussianBlur7" />
    </filter>
    <clipPath
       id="E">
      <path
         d="M1808.815-1033.572c-4.01 0-7.239-3.228-7.239-7.239v-120.827h-120.827c-4.01 0-7.239-3.228-7.239-7.239v-4.879c0-4.01 3.228-7.239 7.239-7.239h107.142l-75.763-75.759c-2.836-2.836-2.836-7.402 0-10.237l3.451-3.451c2.836-2.836 7.402-2.836 10.238 0l75.759 75.763v-107.143c0-4.01 3.228-7.239 7.239-7.239h4.878c4.01 0 7.239 3.228 7.239 7.239v107.143l75.759-75.763c2.836-2.836 7.402-2.836 10.238 0l3.451 3.451c2.836 2.836 2.836 7.402 0 10.237l-75.759 75.759h107.139c4.01 0 7.239 3.229 7.239 7.239v4.879c0 4.01-3.229 7.239-7.239 7.239h-120.827v120.827c0 4.01-3.228 7.239-7.239 7.239zm2.436-137.74h.01 0 0z"
         opacity="1"
         fill="#000"
         fill-opacity="1"
         stroke-width="1.534"
         id="path7" />
    </clipPath>
    <filter
       id="F"
       x="-0.048001919"
       y="-0.048002093"
       width="1.0960038"
       height="1.0960042"
       class="B">
      <feGaussianBlur
         stdDeviation="5.51"
         id="feGaussianBlur8" />
    </filter>
    <clipPath
       id="G">
      <path
         d="M-396.28 578.874c11.114 2.274 65.918-1.124 121.342-2.212 67.564-1.326 102.939-.179 107.349 3.48 7.103 5.895 8.737 28.539 2.711 37.564-8.537 12.785-23.603 9.291-58.552 4.927-19.449-2.428-38.932 3.205-42.405 4.508-11.937 4.481-6.275 12.336 15.992 22.185 23.96 10.599 41.245 31.249 36.502 43.609-4.417 11.512-20.248 9.146-33.55-5.013-12.702-13.521-25.215-16.64-25.328-6.315-.038 3.473-1.402 11.284-3.03 17.357-2.573 9.595-.411 11.506 16.487 14.575 30.203 5.486 57.336 20.978 57.336 32.738 0 13.789-11.295 17.109-28.591 8.403-24.086-12.123-45.822-14.449-49.34-5.281-3.917 10.208 5.646 21.875 17.93 21.875 5.217 0 14.063 4.578 19.658 10.173l10.173 10.173 32.383-27.471c17.811-15.109 67.611-63.551 78.475-71.08 18.737-12.985 30.45-13.622 30.45-1.656 0 2.982-23.852 30.997-53.005 62.255-124.356 133.335-151.518 173.483-145.92 215.681 3.089 23.287 2.735 24.199-9.389 24.199-14.538 0-34.212-14.14-49.45-35.54-9.791-13.751-10-15.762-2.714-26.164 11.564-16.51 10.361-20.577-17.285-58.468-32.536-44.593-103.336-105.168-135.211-115.684-25.785-8.507-40.782-19.311-34.93-25.164 1.992-1.992 23.645-4.58 48.117-5.75l44.494-2.127 29.182 33.033c16.05 18.168 38.056 45.139 48.902 59.936 32.439 44.253 50.642 65.389 54.93 63.782 7.645-2.865 60.21-73.498 57.049-76.659-1.738-1.738-8.432-3.16-14.875-3.16s-21.75-2.684-34.014-5.964c-19.089-5.106-24.165-4.742-35.257 2.526-15.627 10.239-25.346 10.761-32.816 1.761-7.552-9.1 2.683-22.681 25.053-33.244 27.846-13.148 22.597-23.497-10.901-21.494-20.975 1.254-29.762-.344-34.718-6.315-10.686-12.876 1.538-21.79 35.245-25.702l30.081-3.491v-17.06c0-16.225-.634-16.819-12.958-12.133-31.848 12.109-58.914-.407-46.983-21.725 7.223-12.907 31.301-24.047 40.033-18.522 12.623 7.987 24.96 5.459 24.96-5.114 0-11.08-18.169-18.232-53.574-14.073-63.968 7.515-76.238-34.3-49.937-44.393 4.395-1.686 8.373-2.805 8.84-2.485s9.943 2.442 21.057 4.716z"
         fill="#000"
         fill-opacity="1"
         stroke-width="5.052"
         id="path8" />
    </clipPath>
    <filter
       id="H"
       x="-0.045986641"
       y="-0.050200724"
       width="1.0919733"
       height="1.1004014"
       class="B">
      <feGaussianBlur
         stdDeviation="8.474"
         id="feGaussianBlur9" />
    </filter>
    <filter
       id="I"
       x="-0.13791975"
       y="-0.25493638"
       width="1.2758395"
       height="1.5098728"
       class="B">
      <feGaussianBlur
         stdDeviation=".888"
         id="feGaussianBlur10" />
    </filter>
    <filter
       id="J"
       x="-0.11908968"
       y="-0.2231254"
       width="1.2381794"
       height="1.4462508"
       class="B">
      <feGaussianBlur
         stdDeviation=".888"
         id="feGaussianBlur11" />
    </filter>
    <filter
       id="K"
       x="-0.10307701"
       y="-0.13000705"
       width="1.206154"
       height="1.2600141"
       class="B">
      <feGaussianBlur
         stdDeviation=".888"
         id="feGaussianBlur12" />
    </filter>
    <filter
       id="C-7"
       x="-0.01110353"
       y="-0.011243256"
       width="1.0222071"
       height="1.0224865"
       class="B">
      <feGaussianBlur
         stdDeviation="2.441"
         id="feGaussianBlur7-6" />
    </filter>
    <linearGradient
       id="B-6"
       x1="-899.90503"
       y1="-344.26199"
       x2="-899.90601"
       y2="125.211"
       gradientUnits="userSpaceOnUse"
       gradientTransform="matrix(-2.0051,0,0,-2.0051,-2408.3379,448.31819)">
      <stop
         offset=".6"
         stop-color="#fff"
         id="stop6-4" />
      <stop
         offset="1"
         id="stop7-4" />
    </linearGradient>
  </defs>
  <path
     style="mix-blend-mode:multiply"
     d="M-2659.569 204.596l26.181 28.949 150.416 46.096 171.017-51.398 98.911-437.515-45.894-49.39z"
     transform="matrix(-2.0051 0 0 2.0051 -4364.0778 706.82307)"
     opacity=".5"
     filter="url(#B)"
     id="path12" />
  <path
     d="M-1220.686-340.838l-153.963 49.823-8.809 28.459-94.245 482.361 10.349 7.986h493.336l10.348-7.986-94.244-482.361-8.809-28.459z"
     fill="url(#A)"
     transform="matrix(-2.0051 0 0 -2.0051 -1787.6392 533.54186)"
     id="path13" />
  <path
     d="M-905.02-384.47l-153.963 49.823-8.809 26.778-94.245 484.042 10.349 7.986h493.336l10.349-7.986-94.244-482.219-8.809-28.601z"
     opacity=".25"
     fill="url(#C)"
     transform="matrix(-2.0051 0 0 -2.0051 -1154.6881 446.05465)"
     style="mix-blend-mode:overlay"
     id="path14" />
  <path
     d="M165.355 97.854l.043-21.064-20.75 16.013 20.707 5.052zm821.025 961.863l-17.664-13.248L660 1143.218v16.402z"
     opacity=".4"
     id="path15" />
  <path
     d="M333.62 1059.717l17.664-13.248L660 1143.218v16.402z"
     opacity=".6"
     id="path16" />
  <path
     d="M333.62 1059.717l17.664-13.248L165.355 97.854l-20.707-5.052z"
     opacity=".6"
     id="path17" />
  <g
     fill="#fff"
     id="g20">
    <path
       d="M986.38 1059.717l-17.664-13.248 185.93-948.615 20.707-5.052z"
       opacity=".3"
       id="path18" />
    <path
       d="M1154.646 97.854l-.043-21.064 20.75 16.013-20.707 5.052z"
       opacity=".8"
       id="path19" />
    <path
       d="M1154.646 97.854H165.355l.043-21.064h989.205l.043 21.064z"
       opacity=".3"
       id="path20" />
  </g>
  <path
     d="M351.283 1117.065l-17.663-57.348L660 1159.62l326.38-99.903-17.663 57.348L660 1216.968l-308.717-99.903z"
     opacity=".7"
     id="path21" />
  <path
     id="path15825-5-2"
     style="color:#000000;font-style:normal;font-variant:normal;font-weight:normal;font-stretch:normal;font-size:medium;line-height:normal;font-family:sans-serif;font-variant-ligatures:normal;font-variant-position:normal;font-variant-caps:normal;font-variant-numeric:normal;font-variant-alternates:normal;font-variant-east-asian:normal;font-feature-settings:normal;font-variation-settings:normal;text-indent:0;text-align:start;text-decoration:none;text-decoration-line:none;text-decoration-style:solid;text-decoration-color:#000000;letter-spacing:normal;word-spacing:normal;text-transform:none;writing-mode:lr-tb;direction:ltr;text-orientation:mixed;dominant-baseline:auto;baseline-shift:baseline;text-anchor:start;white-space:normal;shape-padding:0;shape-margin:0;inline-size:0;clip-rule:nonzero;display:inline;overflow:visible;visibility:visible;isolation:auto;mix-blend-mode:normal;color-interpolation:sRGB;color-interpolation-filters:linearRGB;solid-color:#000000;solid-opacity:1;vector-effect:none;fill:#c80000;fill-opacity:1;fill-rule:nonzero;stroke:none;stroke-width:12.819;stroke-linecap:butt;stroke-linejoin:miter;stroke-miterlimit:4;stroke-dasharray:none;stroke-dashoffset:0;stroke-opacity:1;color-rendering:auto;image-rendering:auto;shape-rendering:auto;text-rendering:auto;enable-background:accumulate;stop-color:#000000"
     d="m 658.42372,1060.1322 5.1633,-7.2213 c 15.0591,-21.0616 29.8675,-46.7034 53.0776,-56.81901 l 9.7292,-4.21382 -8.256,-6.6726 c -11.6982,-9.464 -20.2163,-24.4196 -26.0325,-43.59145 0,0 0,0 0,0 19.9644,-11.8922 33.4205,-33.9948 33.4205,-59.2576 0,-1.1938 -0.1163,-2.3876 -0.1772,-3.5814 10.06039,-7.4905 20.72309,-16.3195 32.31329,-26.6467 l 3.7373,-3.302 c 8.5763,5.3493 16.1143,11.7094 22.7193,19.2151 25.7756,29.2908 38.5383,77.0867 43.996,154.16318 l 10.7122,-0.2794 c 0,-0.1661 0,-0.3048 0,-0.4572 0,-0.078 -0.036,-0.1163 -0.042,-0.1991 1.3259,-71.15653 -3.3299,-137.32808 -28.9164,-185.87028 -8.9085,-16.9011 -20.527,-31.4868 -35.1554,-43.2749 l 40.7357,-84.8047 c -12.6581,-10.287 -21.2717,-16.3551 -31.4555,-24.2443 l -34.7859,93.0035 c -4.2715,-2.032 -8.7119,-3.9344 -13.366,-5.621 l 10.2413,-27.3705 c -56.61349,-26.2392 -123.11919,-26.5763 -177.97019,1.1938 l 9.1643,26.4358 c -4.6289,1.6764 -9.0607,3.6525 -13.3136,5.6896 l -29.2815,-84.5019 c -7.2604,4.0055 -14.9271,8.2245 -30.1179,15.4838 l 39.0322,81.221 c -16.7863,12.3368 -29.8193,28.1851 -39.628,46.7949 -25.5823,48.544 -30.249,114.71365 -28.9164,185.86948 0,0.078 -0.036,0.1164 -0.042,0.1992 0,0.1661 0,0.3048 0,0.4572 l 10.67,0.2794 c 5.458,-77.07728 18.2636,-124.87248 44.0381,-154.16398 6.0066,-6.8148 12.8097,-12.6873 20.4404,-17.7749 l 0.7315,0.6604 c 14.9068,13.0403 28.2422,23.9776 40.7566,32.7726 0.4674,24.5821 13.6408,46.0291 33.107,57.7468 -5.8095,19.25825 -14.3175,34.28315 -26.0531,43.77435 l -8.2763,6.6726 9.719,4.21382 c 23.2187,10.10411 38.0283,35.75411 53.0882,56.80861 z m 0.1577,-119.42668 c -11.4768,0 -22.1412,-3.5128 -31.0797,-9.5352 -6.6385,-4.4958 -12.3017,-10.32 -16.6156,-17.1831 -1.0567,-1.6764 -2.0117,-3.4417 -2.9078,-5.1968 -0.058,-0.1217 -0.1108,-0.2439 -0.1687,-0.3556 -0.8534,-1.7526 -1.6053,-3.5128 -2.2758,-5.3391 0,-0.028 -0.027,-0.042 -0.033,-0.061 0,-0.042 -0.028,-0.061 -0.031,-0.1026 -0.6909,-1.8796 -1.2802,-3.7948 -1.7678,-5.7607 -0.028,-0.1024 -0.05,-0.1824 -0.072,-0.2794 -0.4877,-1.8796 -0.8737,-3.9345 -1.1582,-5.9005 0,-0.061 -0.028,-0.1021 -0.031,-0.163 0,0 0,0 0,0 -0.3861,-2.7381 -0.6706,-5.621 -0.6706,-8.4938 0,-32.3794 25.4622,-58.3862 56.7983,-58.3862 31.3356,0 56.7564,26.0068 56.7564,58.3862 0,1.1938 -0.1077,2.3876 -0.177,3.6525 -0.569,9.4971 -3.302,18.3515 -7.7318,26.0637 -0.072,0.1217 -0.1465,0.2439 -0.2235,0.3556 -1.077,1.8288 -2.2276,3.5814 -3.4707,5.268 -0.042,0.061 -0.075,0.1217 -0.1162,0.1631 -3.9543,5.339 -8.7599,9.8907 -14.2321,13.5305 0,0 -0.027,0 -0.034,0.028 -8.8718,5.9005 -19.4239,9.3422 -30.7767,9.3422 z m -168.6172,-16.9113 c 0,-0.042 0.028,-0.08 0.028,-0.1217 0,0.042 -0.031,0.08 -0.042,0.1217 4.0457,-31.6205 11.1801,-60.15 23.4615,-83.4568 1.4021,-2.6695 2.9078,-5.2679 4.4541,-7.8181 0.2642,-0.4318 0.5284,-0.8382 0.7722,-1.27 1.2802,-2.1082 2.6131,-4.0742 3.9908,-6.1112 0.3658,-0.5334 0.7316,-1.0668 1.1176,-1.6256 1.646,-2.3114 3.3305,-4.567 5.1004,-6.7437 0.2641,-0.3048 0.5283,-0.6096 0.7924,-0.9144 1.4834,-1.7526 3.0074,-3.5129 4.5741,-5.1283 0.7112,-0.762 1.4427,-1.4732 2.164,-2.2352 1.1989,-1.1938 2.4588,-2.4638 3.7308,-3.5814 0.7925,-0.762 1.5646,-1.4732 2.3952,-2.1844 1.8491,-1.6256 3.7226,-3.1623 5.6693,-4.638 v 0 c 3.6312,-2.8093 7.5103,-5.3391 11.5682,-7.7775 v 0 c 0.086,-0.042 0.1769,-0.1 0.2641,-0.1412 2.7757,-1.6256 5.6632,-3.1623 8.6523,-4.6381 0.3048,-0.1409 0.6299,-0.3048 0.9347,-0.4572 2.8529,-1.3462 5.8095,-2.5984 8.8615,-3.7947 0.4471,-0.1824 0.9144,-0.3556 1.3615,-0.508 2.8956,-1.0668 5.8867,-2.1082 8.9672,-3.0226 0.6706,-0.2032 1.3411,-0.4064 2.0371,-0.6096 2.8935,-0.8382 5.8806,-1.5494 8.9347,-2.2352 0.9347,-0.2032 1.8897,-0.4572 2.8387,-0.635 2.859,-0.5842 5.8176,-1.0668 8.8209,-1.5494 1.1989,-0.1826 2.3952,-0.4064 3.6312,-0.5588 2.8448,-0.381 5.8034,-0.6604 8.7782,-0.9144 1.4834,-0.141 2.9301,-0.3048 4.4399,-0.4064 2.9017,-0.2019 5.9213,-0.3048 8.9449,-0.4064 1.6662,-0.061 3.2532,-0.1605 4.952,-0.1826 4.7061,-0.061 9.5422,0 14.5349,0.1826 l 0.1991,0.041 h 0.028 l 0.1992,-0.041 c 4.8199,-0.1826 9.4975,-0.2439 14.0451,-0.2019 4.5598,0.042 8.9835,0.2235 13.2832,0.4826 4.2855,0.2539 8.445,0.6603 12.4785,1.1175 0,6e-4 0,0 0.028,0 4.0315,0.4826 7.937,1.1176 11.7246,1.8288 0,0 0,0 0.028,0 3.7857,0.7112 7.4534,1.5494 11.0033,2.4638 0,0 0.028,0 0.028,0 3.5478,0.9144 6.9758,1.9812 10.3022,3.0912 33.28939,11.2675 55.36899,32.5968 70.38719,61.0913 12.2723,23.2893 19.4143,51.7898 23.4607,83.3834 0,-0.042 -0.03,-0.08 -0.042,-0.1217 0,0.042 0.028,0.08 0.028,0.1217 -7.4181,-26.1267 -17.6004,-46.7248 -31.7165,-62.7632 -0.6325,-0.7112 -1.3005,-1.397 -1.9381,-2.1082 -1.0185,-1.1176 -2.0294,-2.2352 -3.0911,-3.302 -0.7951,-0.762 -1.6383,-1.5494 -2.4511,-2.3114 -0.9703,-0.9144 -1.9381,-1.8288 -2.9508,-2.7381 -0.9398,-0.8382 -1.905,-1.6256 -2.8735,-2.3876 -0.955,-0.762 -1.9177,-1.5494 -2.8943,-2.3114 -0.983,-0.762 -1.9964,-1.4732 -3.0068,-2.2352 -1.0033,-0.7112 -2.0295,-1.397 -3.0628,-2.1082 -1.082,-0.7112 -2.1768,-1.4732 -3.2949,-2.1844 -0.9702,-0.6096 -1.9735,-1.1938 -2.9646,-1.7526 -1.2091,-0.7112 -2.4105,-1.397 -3.646,-2.1082 -0.9702,-0.5334 -1.9761,-1.0668 -2.9646,-1.5494 -1.2777,-0.6604 -2.5299,-1.3462 -3.8428,-1.9812 -0.7798,-0.3556 -1.6002,-0.7112 -2.3952,-1.0668 -3.0701,-1.397 -6.2388,-2.6695 -9.4996,-3.9344 -0.7519,-0.2794 -1.4834,-0.5842 -2.2555,-0.8382 -1.524,-0.5588 -3.0988,-1.0668 -4.6574,-1.5494 -1.15819,-0.381 -2.29869,-0.762 -3.48489,-1.1176 -1.5443,-0.4572 -3.1272,-0.9144 -4.7203,-1.397 -1.0566,-0.3048 -2.1006,-0.5842 -3.1679,-0.8382 -1.7272,-0.4572 -3.4767,-0.9144 -5.2405,-1.3462 -1.1583,-0.2794 -2.347,-0.5588 -3.5337,-0.8382 -1.7475,-0.381 -3.5133,-0.762 -5.3035,-1.1176 -1.1989,-0.2439 -2.4435,-0.4572 -3.6738,-0.7112 -1.7476,-0.3302 -3.4849,-0.6604 -5.2751,-0.9652 -0.447,-0.08 -0.8941,-0.141 -1.3411,-0.2032 -5.6124,-0.9144 -11.4036,-1.7526 -17.4305,-2.4638 v 0 c -7.6098,-0.9144 -15.5285,-1.6256 -23.8161,-2.2352 h -0.4064 -0.3454 c -6.7726,0.4826 -13.21,1.1176 -19.5316,1.8288 -0.027,0 -0.041,0 -0.064,0 -29.0123,3.1623 -53.3217,8.6207 -73.5598,17.6835 -0.5689,0.2438 -1.1379,0.4825 -1.7068,0.7619 -1.5037,0.6858 -2.9647,1.397 -4.4196,2.1844 -0.9551,0.4826 -1.9304,0.9652 -2.8733,1.4732 -1.1989,0.6604 -2.3876,1.3462 -3.5621,1.9812 -1.0973,0.635 -2.1691,1.27 -3.239,1.9812 -1.0973,0.6604 -2.1641,1.3462 -3.2309,2.032 -1.1176,0.762 -2.2072,1.4732 -3.2796,2.2352 -0.9144,0.6604 -1.8491,1.3462 -2.7392,1.9812 -1.2801,0.9652 -2.5146,1.9812 -3.751,3.0226 -0.6706,0.5588 -1.3615,1.1176 -2.0117,1.6764 -1.7069,1.4732 -3.3792,3.0226 -5.0028,4.6381 -0.1162,0.1219 -0.2438,0.2235 -0.3657,0.3302 -0.028,0.028 -0.034,0.042 -0.053,0.061 -1.8694,1.8288 -3.6881,3.7236 -5.4437,5.7607 -14.1346,16.0579 -24.3383,36.6644 -31.7589,62.8406 z m 73.3828,-193.342 c 58.3942,-28.8594 128.146,-28.3397 187.82489,-0.9652 l 48.5208,-129.6788 c -88.71279,-32.9692 -195.85599,-35.1681 -282.19179,-1.6256 z m 266.67299,-28.7393 31.5812,-54.5228 -51.7498,-33.2923 -20.5135,54.8736 c 12.8996,11.2903 29.196,22.1285 40.6821,32.9415 z m -340.04519,0 c 16.2336,-11.3588 6.6873,-5.2679 39.8997,-23.7236 l -22.2178,-64.1258 -49.9641,32.1333 z m 386.92549,-60.726 42.7631,-62.6084 -2.8311,-4.8464 c -15.206,-25.97912 -43.3862,-51.08032 -73.2574,-58.31632 l -4.9528,-1.1938 -2.3114,5.3391 c -4.8547,11.1506 -16.0573,41.62422 -28.5504,76.01632 21.6778,17.7546 49.0543,28.1313 69.14,45.6382 z m -433.80569,0 c 19.1637,-17.1704 45.5639,-32.1119 68.0008,-46.5559 l 1.8491,2.8804 c -12.8158,-35.2806 -24.3108,-66.58482 -29.2713,-77.98052 l -2.3114,-5.3391 -4.9378,1.1938 c -29.8704,7.2288 -58.0497,32.3441 -73.2564,58.32342 l -2.8306,4.8463 z m 297.98229,-74.9084 11.1925,-38.08352 c -45.25289,-9.9339 -144.37029,-8.1915 -186.03789,0.9144 l 10.7229,35.89892 -0.1465,-0.6858 c 45.7031,-10.16512 116.9765,-9.32952 164.25889,1.9812 z m 24.3492,-50.09662 19.0616,-60.19191 -7.0182,-3.0226 c -76.21519,-32.0418 -172.94209,-30.6931 -236.76409,0 l -7.0185,4.0056 19.0622,59.19411 c 55.4851,-8.08481 142.8629,-14.20621 212.68619,0 z" />
  <path
     d="m 582.14244,183.09029 c 10.629,2.175 63.042,-1.075 116.048,-2.116 64.61599,-1.269 98.44799,-0.172 102.66499,3.329 6.793,5.638 8.356,27.294 2.593,35.925 -8.164,12.227 -22.574,8.885 -55.997,4.712 -18.59999,-2.322 -37.23299,3.065 -40.55499,4.312 -11.416,4.285 -6.001,11.797 15.294,21.217 22.91399,10.136 39.44499,29.886 34.90899,41.707 -4.225,11.009 -19.365,8.747 -32.08599,-4.794 -12.148,-12.931 -24.115,-15.914 -24.222,-6.039 -0.036,3.322 -1.34,10.792 -2.898,16.6 -2.461,9.176 -0.393,11.004 15.768,13.939 28.88499,5.246 54.83499,20.063 54.83499,31.309 0,13.187 -10.803,16.362 -27.344,8.037 -23.03499,-11.594 -43.82299,-13.819 -47.18799,-5.05 -3.746,9.763 5.399,20.92 17.147,20.92 4.989,0 13.449,4.378 18.8,9.729 l 9.72899,9.729 30.97,-26.273 c 17.034,-14.45 64.661,-60.778 75.051,-67.978 17.92,-12.418 29.121,-13.027 29.121,-1.583 0,2.852 -22.811,29.645 -50.692,59.538 -118.92999,127.517 -144.90699,165.914 -139.55399,206.271 2.954,22.27103 2.616,23.14403 -8.979,23.14403 -13.904,0 -32.719,-13.523 -47.292,-33.98903 -9.364,-13.151 -9.564,-15.075 -2.596,-25.023 11.059,-15.789 9.909,-19.679 -16.531,-55.917 -31.116,-42.647 -98.827,-100.579 -129.312,-110.636 -24.66,-8.136 -39.003,-18.469 -33.406,-24.066 1.905,-1.906 22.613,-4.38 46.017,-5.499 l 42.553,-2.034 27.908,31.592 c 15.35,17.375 36.395,43.17 46.768,57.32 31.023,42.322 48.432,62.536 52.534,60.999 7.311,-2.74 57.583,-70.291 54.56,-73.314 -1.662,-1.662 -8.064,-3.022 -14.226,-3.022 -6.162,0 -20.801,-2.567 -32.53,-5.704 -18.256,-4.883 -23.11,-4.535 -33.718,2.416 -14.945,9.792 -24.24,10.291 -31.384,1.684 -7.223,-8.703 2.566,-21.692 23.96,-31.794 26.631,-12.574 21.611,-22.472 -10.425,-20.556 -20.06,1.2 -28.464,-0.329 -33.203,-6.039 -10.22,-12.314 1.471,-20.839 33.707,-24.58 l 28.769,-3.339 v -16.316 c 0,-15.517 -0.606,-16.085 -12.393,-11.604 -30.459,11.58 -56.343,-0.389 -44.933,-20.777 6.908,-12.344 29.935,-22.998 38.286,-17.714 12.072,7.638 23.871,5.221 23.871,-4.891 0,-10.597 -17.376,-17.437 -51.236,-13.459 -61.177,7.187 -72.911,-32.804 -47.759,-42.456 4.203,-1.613 8.008,-2.683 8.455,-2.377 0.447,0.306 9.509,2.335 20.138,4.51 z"
     fill="#310000"
     id="path26-0"
     style="fill:#f4d7e3;fill-opacity:1;stroke:#aa0000;stroke-width:37.0417;stroke-dasharray:none;stroke-opacity:1;paint-order:stroke fill markers" />
</svg>
