<?xml version="1.0" encoding="UTF-8" standalone="no"?>
<svg
   width="498.898"
   height="544.252"
   viewBox="0 0 1320 1440"
   version="1.1"
   id="svg28"
   sodipodi:docname="1NK.svg"
   inkscape:version="1.3 (0e150ed6c4, 2023-07-21)"
   xmlns:inkscape="http://www.inkscape.org/namespaces/inkscape"
   xmlns:sodipodi="http://sodipodi.sourceforge.net/DTD/sodipodi-0.dtd"
   xmlns:xlink="http://www.w3.org/1999/xlink"
   xmlns="http://www.w3.org/2000/svg"
   xmlns:svg="http://www.w3.org/2000/svg">
  <sodipodi:namedview
     id="namedview28"
     pagecolor="#ffffff"
     bordercolor="#666666"
     borderopacity="1.0"
     inkscape:showpageshadow="2"
     inkscape:pageopacity="0.0"
     inkscape:pagecheckerboard="0"
     inkscape:deskcolor="#d1d1d1"
     inkscape:zoom="0.58107917"
     inkscape:cx="-52.488545"
     inkscape:cy="336.44297"
     inkscape:window-width="1916"
     inkscape:window-height="2022"
     inkscape:window-x="1910"
     inkscape:window-y="0"
     inkscape:window-maximized="0"
     inkscape:current-layer="svg28" />
  <style
     id="style1"><![CDATA[.B{color-interpolation-filters:sRGB}]]></style>
  <defs
     id="defs12">
    <linearGradient
       id="A"
       x1="-1430.769"
       y1="-77.47"
       x2="-1409.955"
       y2="-77.47"
       spreadMethod="reflect"
       gradientUnits="userSpaceOnUse">
      <stop
         offset="0"
         stop-color="#ffd285"
         id="stop1" />
      <stop
         offset=".232"
         stop-color="#ffcd79"
         id="stop2" />
      <stop
         offset=".616"
         stop-color="#ffca73"
         id="stop3" />
      <stop
         offset=".808"
         stop-color="#ffd386"
         id="stop4" />
      <stop
         offset="1"
         stop-color="#ffc86e"
         id="stop5" />
    </linearGradient>
    <filter
       id="B"
       x="-0.013769729"
       y="-0.011050687"
       width="1.0275395"
       height="1.0221014"
       class="B">
      <feGaussianBlur
         stdDeviation="2.441"
         id="feGaussianBlur5" />
    </filter>
    <linearGradient
       id="C"
       x1="-905.021"
       y1="-376.306"
       x2="-904.556"
       y2="184.159"
       gradientUnits="userSpaceOnUse">
      <stop
         offset="0"
         id="stop6" />
      <stop
         offset=".603"
         stop-color="#fff"
         id="stop7" />
    </linearGradient>
    <filter
       x="-.079"
       y="-.083"
       width="1.159"
       height="1.166"
       class="B"
       id="filter7">
      <feGaussianBlur
         stdDeviation=".392"
         id="feGaussianBlur7" />
    </filter>
    <clipPath
       id="E">
      <path
         d="M1808.815-1033.572c-4.01 0-7.239-3.228-7.239-7.239v-120.827h-120.827c-4.01 0-7.239-3.228-7.239-7.239v-4.879c0-4.01 3.228-7.239 7.239-7.239h107.142l-75.763-75.759c-2.836-2.836-2.836-7.402 0-10.237l3.451-3.451c2.836-2.836 7.402-2.836 10.238 0l75.759 75.763v-107.143c0-4.01 3.228-7.239 7.239-7.239h4.878c4.01 0 7.239 3.228 7.239 7.239v107.143l75.759-75.763c2.836-2.836 7.402-2.836 10.238 0l3.451 3.451c2.836 2.836 2.836 7.402 0 10.237l-75.759 75.759h107.139c4.01 0 7.239 3.229 7.239 7.239v4.879c0 4.01-3.229 7.239-7.239 7.239h-120.827v120.827c0 4.01-3.228 7.239-7.239 7.239zm2.436-137.74h.01 0 0z"
         opacity="1"
         fill="#000"
         fill-opacity="1"
         stroke-width="1.534"
         id="path7" />
    </clipPath>
    <filter
       id="F"
       x="-0.048001919"
       y="-0.048002093"
       width="1.0960038"
       height="1.0960042"
       class="B">
      <feGaussianBlur
         stdDeviation="5.51"
         id="feGaussianBlur8" />
    </filter>
    <clipPath
       id="G">
      <path
         d="M586.231 322.641c23.104 5.434 40.666 33.065 26.558 41.784-7.629 4.715-4.836 10.003 7.715 14.601 28.309 10.371 46.031 39.234 38.041 61.955-5.068 14.41-36.563 26.808-71.509 28.151-26.545 1.02-31.384 4.068-31.492 19.839-.08 11.706 2.522 12.072 23.5 3.307 22.892-9.565 31.519-8.298 49.197 7.223 19.959 17.524 31.837 18.424 48.474 3.674 37.32-33.09 63.926-45.53 63.926-29.892 0 2.603-20.816 27.051-46.258 54.33-108.526 116.363-132.231 151.4-127.346 188.227 2.696 20.323 2.387 21.119-8.193 21.119-12.687 0-29.857-12.34-43.155-31.016-8.545-12-8.727-13.756-2.369-22.834 10.092-14.408 9.042-17.958-15.085-51.026-28.394-38.916-90.182-91.781-118-100.958-22.502-7.424-35.591-16.853-30.483-21.96 1.739-1.739 20.635-3.997 41.992-5.018l38.83-1.856 25.467 28.828c14.007 15.856 33.212 39.393 42.677 52.306 28.249 38.537 44.194 57.067 47.897 55.663 4.025-1.526 39.723-46.181 39.723-49.69 0-1.284-8.696-2.334-19.325-2.334-16.302 0-19.747-1.551-22.022-9.92-4.103-15.089 11.164-25.35 37.716-25.35 21.46 0 38.9-5.682 38.9-12.673 0-7.498-20.944-12.796-38.147-9.65-9.714 1.776-31.757 3.687-48.985 4.246-29.29.95-31.805.282-38.735-10.296-7.256-11.074-7.079-11.681 8.428-28.845 19.396-21.469 29.266-44.074 29.266-67.027 0-14.785 3.269-20.817 22.043-40.668 12.124-12.819 22.043-24.604 22.043-26.188 0-6.167-30.747-2.435-49.963 6.065-23.764 10.512-38.858 8.249-51.409-7.708-10.964-13.939-5.622-25.802 15.616-34.676 16.156-6.751 69.011-7.72 94.467-1.733zm-7.877 102.702c1.595 11.206 22.174 15.763 32.497 7.196 9.186-7.624 7.893-11.913-5.746-19.059-15.278-8.005-28.73-2.039-26.751 11.863z"
         fill="#000"
         fill-opacity="1"
         stroke-width="4.409"
         id="path8" />
    </clipPath>
    <filter
       id="H"
       x="-0.049260907"
       y="-0.046799666"
       width="1.0985218"
       height="1.0935993"
       class="B">
      <feGaussianBlur
         stdDeviation="7.818"
         id="feGaussianBlur9" />
    </filter>
    <filter
       id="I"
       x="-0.10271054"
       y="-0.1862752"
       width="1.2054211"
       height="1.3725504"
       class="B">
      <feGaussianBlur
         stdDeviation="1.06"
         id="feGaussianBlur10" />
    </filter>
    <filter
       id="J"
       x="-0.14238898"
       y="-0.14046583"
       width="1.284778"
       height="1.2809317"
       class="B">
      <feGaussianBlur
         stdDeviation="1.06"
         id="feGaussianBlur11" />
    </filter>
    <filter
       id="K"
       x="-0.10842266"
       y="-0.099994685"
       width="1.2168453"
       height="1.1999894"
       class="B">
      <feGaussianBlur
         stdDeviation="1.06"
         id="feGaussianBlur12" />
    </filter>
    <linearGradient
       id="B-1"
       x1="-1215.571"
       y1="-296.32901"
       x2="-1215.572"
       y2="165.41499"
       gradientUnits="userSpaceOnUse">
      <stop
         offset=".6"
         stop-color="#fff"
         id="stop6-8" />
      <stop
         offset="1"
         id="stop7-5" />
    </linearGradient>
    <filter
       id="C-8"
       x="-0.011867782"
       y="-0.01125585"
       width="1.0237356"
       height="1.0225117"
       class="B">
      <feGaussianBlur
         stdDeviation="2.441"
         id="feGaussianBlur7-3" />
    </filter>
    <linearGradient
       inkscape:collect="always"
       xlink:href="#A"
       id="linearGradient28"
       gradientUnits="userSpaceOnUse"
       x1="-1430.769"
       y1="-77.47"
       x2="-1409.955"
       y2="-77.47"
       spreadMethod="reflect" />
  </defs>
  <path
     style="mix-blend-mode:multiply"
     d="M-2655.488 204.013l26.181 28.949 146.334 38.515 166.935-43.817 86.005-436.932-45.894-49.39z"
     transform="matrix(-2.0051 0 0 2.0051 -4364.0778 706.82307)"
     opacity=".5"
     filter="url(#B)"
     id="path12" />
  <path
     d="M-1220.686-332.674l-149.881 42.384-8.809 28.459-81.338 481.636 10.349 7.986h459.359l10.348-7.986-81.338-481.636-8.809-28.459z"
     fill="url(#A)"
     transform="matrix(-2.0051 0 0 -2.0051 -1787.6392 533.54186)"
     id="path13" />
  <path
     d="M-905.021-376.306l-149.881 44.065-8.809 26.778-81.358 481.64 10.349 7.986 459.383-.004 10.349-7.986-81.343-481.636-8.809-28.601z"
     opacity=".25"
     fill="url(#C)"
     transform="matrix(-2.0051 0 0 -2.0051 -1154.6881 446.05465)"
     style="mix-blend-mode:overlay"
     id="path14" />
  <path
     d="M199.419 97.854l.043-21.064-20.75 16.013 20.707 5.052zm778.776 960.694l-17.664-13.248L660 1126.847v16.402z"
     opacity=".4"
     id="path15" />
  <path
     d="M341.805 1058.548l17.664-13.248L660 1126.847v16.402z"
     opacity=".6"
     id="path16" />
  <path
     d="M359.468 1115.896l-17.663-57.348L660 1143.25l318.195-84.702-17.663 57.348L660 1200.598l-300.532-84.702z"
     opacity=".7"
     id="path17" />
  <g
     fill="#fff"
     id="g20">
    <path
       d="M978.195 1058.548l-17.664-13.248 160.05-947.446 20.707-5.052z"
       opacity=".3"
       id="path18" />
    <path
       d="M1120.582 97.854l-.043-21.064 20.75 16.013-20.707 5.052z"
       opacity=".8"
       id="path19" />
    <path
       d="M1120.582 97.854H199.419l.043-21.064h921.077l.043 21.064z"
       opacity=".3"
       id="path20" />
  </g>
  <path
     d="M341.805 1058.548l17.664-13.248-160.05-947.446-20.707-5.052z"
     opacity=".6"
     id="path21" />
  <use
     xlink:href="#E"
     fill="url(#A)"
     transform="matrix(-2.0051,0,0,-2.0051,-3205.234,525.99722)"
     id="use13"
     style="fill:url(#linearGradient28)" />
  <use
     xlink:href="#E"
     x="315.66599"
     y="-40.203999"
     opacity="0.25"
     fill="url(#B)"
     transform="matrix(-2.0051,0,0,-2.0051,-2572.2828,445.38242)"
     style="mix-blend-mode:overlay;fill:url(#B-1)"
     id="use14" />
  <path
     id="path16759-9-4"
     style="color:#000000;font-style:normal;font-variant:normal;font-weight:normal;font-stretch:normal;font-size:medium;line-height:normal;font-family:sans-serif;font-variant-ligatures:normal;font-variant-position:normal;font-variant-caps:normal;font-variant-numeric:normal;font-variant-alternates:normal;font-variant-east-asian:normal;font-feature-settings:normal;font-variation-settings:normal;text-indent:0;text-align:start;text-decoration:none;text-decoration-line:none;text-decoration-style:solid;text-decoration-color:#000000;letter-spacing:normal;word-spacing:normal;text-transform:none;writing-mode:lr-tb;direction:ltr;text-orientation:mixed;dominant-baseline:auto;baseline-shift:baseline;text-anchor:start;white-space:normal;shape-padding:0;shape-margin:0;inline-size:0;clip-rule:nonzero;display:inline;overflow:visible;visibility:visible;isolation:auto;mix-blend-mode:normal;color-interpolation:sRGB;color-interpolation-filters:linearRGB;solid-color:#000000;solid-opacity:1;vector-effect:none;fill:#c80000;fill-opacity:1;fill-rule:nonzero;stroke:none;stroke-width:10.908;stroke-linecap:butt;stroke-linejoin:miter;stroke-miterlimit:4;stroke-dasharray:none;stroke-dashoffset:0;stroke-opacity:1;color-rendering:auto;image-rendering:auto;shape-rendering:auto;text-rendering:auto;enable-background:accumulate;stop-color:#000000"
     d="m 716.33284,1024.233 4.7773,-4.2139 c 11.8912,-10.5867 16.9936,-23.99788 19.4686,-37.57418 2.1488,-11.7602 2.5562,-23.6677 3.7368,-35.1962 l 8.8514,1.1938 46.7443,55.13498 3.7734,-7.11708 c 13.1064,-24.7218 8.8372,-51.7433 8.4552,-76.3194 l 11.2755,-26.6885 c 13.458,-30.5597 21.8295,-57.9297 20.1798,-88.5984 26.733,-29.9342 50.481,-62.0184 65.9526,-99.3204 l 0.166,-0.4064 0.1051,-0.4064 c 4.3972,-18.448 8.6014,-38.154 0.8737,-58.2388 l -0.6908,-1.8796 -10.5563,-5.8319 c -5.7404,-11.8922 -9.9202,-20.7746 -17.2008,-25.909 -7.6526,-5.4102 -17.3818,-5.8318 -31.6436,-4.0055 l -29.7314,46.7738 -11.5275,-7.3127 31.2152,-49.0359 -0.3251,-5.4813 -6.7097,2.1082 c -22.7365,7.3202 -34.9152,17.8511 -43.5155,30.6862 -3.3711,5.0571 -6.287,10.4394 -9.2476,16.096 1.7882,3.7236 3.5194,7.4879 5.1836,11.4096 l 28.9841,29.1897 75.8695,40.943 c -2.5989,6.3246 -5.9436,13.0886 -10.2514,20.3048 l -67.8548,-39.3764 -1.8084,3.0226 c -39.181,64.5475 -39.2322,63.1988 -78.244,117.6101 l -1.1379,1.6256 0.7315,1.8288 c 6.4841,15.9614 20.6167,27.3914 36.8379,37.0649 15.3132,9.1313 32.5331,16.7488 47.8839,24.8488 l -11.2553,26.5413 c -32.4345,-19.2786 -69.8656,-30.5666 -89.058,-62.5102 l -2.5583,-4.285 -3.176,3.8634 c -23.8237,28.5224 -39.0292,56.8055 -54.4363,79.5063 -11.3893,-1.27 -21.2681,-2.6696 -33.452,-7.1019 2.9444,-4.2138 6.0839,-8.4378 9.144,-12.6593 -6.1264,-0.9144 -12.1208,-2.9515 -17.7027,-5.1969 -12.5862,-5.0571 -23.6614,-12.0345 -30.6824,-17.9628 -38.1146,-32.1897 -84.497,-75.5774 -85.2546,-134.8105 -2.8529,-23.0505 -4.7284,-48.3966 -6.541,-74.2914 -1.8897,1.9812 -3.751,3.8634 -5.7119,5.7607 -1.524,1.4732 -3.7511,3.4417 -6.5044,5.3391 -2.7534,1.8796 -5.3036,4.3561 -11.5052,4.5669 0.6502,15.8699 1.2395,32.9202 1.7475,52.9417 v 0.1164 0.094 c 2.7127,41.5823 24.9697,90.2085 59.8218,128.2684 33.1442,36.1937 78.1615,62.3765 128.8847,62.517 l 0.7925,0.1051 0.063,-0.094 c 1.1583,0 2.3114,0.053 3.4707,0.028 z m -75.3369,-133.13808 c 1.2598,-0.094 2.2123,-0.3048 2.7391,-0.6096 l 6.7158,-1.3462 c 40.2041,-53.3326 84.906,-105.2776 142.9537,-192.7575 l 1.646,-2.4638 -21.1727,-20.4724 0.1052,-0.1991 c -2.6619,-2.54 -4.511,-5.621 -5.6347,-7.9096 -0.9347,1.5494 -1.7069,3.0226 -2.7188,4.6381 -31.9337,14.7879 -47.7026,22.9793 -77.8762,34.5076 l -11.1617,21.7145 -1.1176,-0.6096 1.016,0.5842 c -10.3409,18.0492 -12.2814,52.5693 -11.2553,63.1848 l -13.5636,1.27 c -1.3614,-14.0564 -0.3251,-47.7716 12.8545,-71.0105 l -0.1053,-0.064 5.6693,-12.5756 -2.1844,-9.6596 c -0.027,-0.3556 -0.2845,-5.268 -0.4064,-11.1506 -0.1356,-6.1112 0.097,-13.5941 0.3048,-14.6355 l 0.064,-0.3302 0.042,-0.3556 c 1.7476,-26.6326 22.6154,-59.946 43.5364,-82.7666 -14.0878,-10.8559 -27.6118,-17.3736 -37.8614,-20.0203 -53.8596,0.5842 -86.1893,16.7336 -112.5406,39.545 -16.9693,14.6888 -31.4889,32.4071 -46.9008,50.2791 2.2555,34.4657 3.9766,68.032 7.6281,97.084 l 0.064,0.6604 v 0.635 c 0.6096,46.83 39.8075,85.885 76.9878,117.285 4.3424,3.6525 14.5491,10.2159 24.308,14.1199 7.3193,2.9514 14.0655,3.7236 17.8694,3.4417 z m 119.3852,-31.6977 -2.0117,-8.956 c -3.0073,-13.4112 0.3048,-26.8994 9.4895,-35.9618 9.1805,-9.0627 23.2534,-13.3249 40.0041,-12.0193 l 13.4905,1.0668 -6.4151,11.8796 c -4.1798,7.7571 -4.9519,14.7955 -10.8468,22.7838 -5.8948,7.9883 -15.9634,13.7617 -34.8628,18.8341 z m 111.2656,-154.6133 -9.3533,-9.8831 c 8.2235,-7.7851 14.7421,-12.6594 17.2008,-15.6667 1.2396,-1.4732 1.4224,-2.1082 1.4834,-2.8092 0.047,-0.6604 -0.1384,-2.032 -1.5443,-4.6381 l 12.0172,-6.4643 c 2.1209,3.9345 3.3935,7.9299 3.1049,12.0193 -0.2845,4.0742 -2.2072,7.686 -4.5029,10.4902 -4.5943,5.621 -10.8427,9.779 -18.4038,16.9316 z m -404.3152,-26.787 -0.028,-0.508 c 0,0 0,0 0,0 0,0.1739 0.028,0.3302 0.03,0.508 z m -0.064,-1.0668 c 0.2844,-0.1301 0.4673,-0.1469 0.7518,-0.3556 1.5037,-1.0668 3.2532,-2.5985 3.94,-3.2309 6.2586,-6.0401 12.2124,-12.4841 18.0584,-19.0805 -3.9278,-54.4451 -9.0708,-108.924 -23.754,-148.6885 -0.066,0.038 -0.1108,0.058 -0.177,0.094 -2.8306,1.5494 -6.1672,3.302 -9.52,4.9886 -3.3507,1.6764 -6.7299,3.302 -9.5829,4.638 -2.8387,1.3462 -4.13712,2.1844 -7.61792,3.1623 1.5646,6.5329 3.3446,13.5865 5.68352,22.1437 l 0.028,0.08 v 0.074 c 13.6591,45.7901 19.1252,79.1545 22.2004,136.2313 z m 44.7273,-48.1229 c 10.9464,-12.6441 22.3667,-25.2349 35.6254,-36.7136 29.3864,-25.4384 68.1677,-44.5681 127.3694,-44.814 h 1.2598 l 1.1989,0.254 c 14.5593,3.5128 31.9227,11.9279 49.1589,25.7475 23.3215,-18.2321 34.3589,-36.559 40.5474,-59.6366 -9.3046,-2.1844 -18.4851,-6.3246 -24.4539,-9.6597 -90.5627,-50.0829 -179.5651,-60.9645 -256.4941,-11.5976 15.6707,38.8424 21.91,87.5776 25.7816,136.4099 z m -78.08502,-135.8013 c 0.7315,-0.3048 1.4427,-0.5588 2.2758,-0.9651 2.4943,-1.1177 5.6632,-2.7382 8.82092,-4.285 3.1537,-1.6256 6.287,-3.2309 8.7782,-4.6381 2.4867,-1.3462 4.8687,-2.8803 4.1026,-2.3114 88.7198,-66.1141 196.1904,-55.0918 297.2092,0.762 -0.6503,-0.3556 13.3604,5.4813 16.9509,6.7437 0.508,-3.5128 1.016,-7.0332 1.4631,-10.7975 l 0.4267,-3.6525 -3.1964,-1.7526 c -85.5089,-47.4553 -150.0223,-60.4098 -203.1765,-54.4665 -53.1539,5.9004 -94.4284,30.672 -133.67082,56.9112 l -2.9789,1.9812 0.6299,3.5128 c 0.7925,4.567 1.5646,8.8037 2.3622,13.0099 z" />
  <path
     d="m 703.42858,179.60682 c 22.298,5.244 39.247,31.912 25.632,40.327 -7.363,4.551 -4.667,9.654 7.446,14.091 27.321,10.009 44.425,37.865 36.714,59.793 -4.891,13.907 -35.287,25.873 -69.015,27.168 -25.619,0.984 -30.29,3.926 -30.393,19.147 -0.077,11.297 2.434,11.651 22.68,3.191 22.093,-9.231 30.42,-8.009 47.481,6.971 19.263,16.9131 30.726,17.7821 46.783,3.5451 36.018,-31.9351 61.696,-43.9421 61.696,-28.8491 0,2.512 -20.09,26.108 -44.644,52.4351 -104.74,112.303 -127.618,146.119 -122.903,181.66 2.602,19.614 2.304,20.382 -7.908,20.382 -12.245,0 -28.815,-11.909 -41.65,-29.934 -8.247,-11.582 -8.423,-13.276 -2.286,-22.037 9.74,-13.905 8.727,-17.331 -14.558,-49.246 -27.404,-37.559 -87.036,-88.579 -113.883,-97.436 -21.717,-7.165 -34.349,-16.265 -29.42,-21.194 1.678,-1.678 19.915,-3.857 40.527,-4.843 l 37.476,-1.792 24.579,27.823 c 13.518,15.302 32.053,38.019 41.188,50.481 27.264,37.193 42.652,55.076 46.226,53.721 3.884,-1.473 38.337,-44.57 38.337,-47.957 0,-1.239 -8.393,-2.253 -18.651,-2.253 -15.734,0 -19.058,-1.497 -21.254,-9.573 -3.959,-14.562 10.775,-24.466 36.401,-24.466 20.711,0 37.543,-5.484 37.543,-12.231 0,-7.236 -20.213,-12.349 -36.816,-9.313 -9.375,1.714 -30.649,3.558 -47.276,4.097 -28.268,0.917 -30.695,0.272 -37.384,-9.937 -7.003,-10.688 -6.832,-11.273 8.134,-27.8381 18.72,-20.72 28.245,-42.536 28.245,-64.688 0,-14.27 3.155,-20.091 21.274,-39.249 11.701,-12.372 21.274,-23.745 21.274,-25.275 0,-5.952 -29.675,-2.35 -48.22,5.854 -22.935,10.145 -37.502,7.961 -49.616,-7.439 -10.582,-13.453 -5.426,-24.902 15.072,-33.466 15.593,-6.515 66.604,-7.451 91.172,-1.672 z m -7.602,99.119 c 1.54,10.816 21.4,15.213 31.363,6.945 8.866,-7.358 7.618,-11.497 -5.546,-18.394 -14.745,-7.725 -27.728,-1.968 -25.818,11.45 z"
     fill="#340000"
     id="path26"
     style="fill:#ffd5d5;fill-opacity:1;stroke:#aa0000;stroke-width:37.0417;stroke-dasharray:none;stroke-opacity:1;paint-order:stroke fill markers" />
</svg>
