<?xml version="1.0" encoding="UTF-8" standalone="no"?>
<svg
   width="498.898"
   height="544.252"
   viewBox="0 0 1320 1440"
   version="1.1"
   id="svg37"
   sodipodi:docname="1UM.svg"
   inkscape:version="1.3 (0e150ed6c4, 2023-07-21)"
   xmlns:inkscape="http://www.inkscape.org/namespaces/inkscape"
   xmlns:sodipodi="http://sodipodi.sourceforge.net/DTD/sodipodi-0.dtd"
   xmlns="http://www.w3.org/2000/svg"
   xmlns:svg="http://www.w3.org/2000/svg">
  <sodipodi:namedview
     id="namedview37"
     pagecolor="#ffffff"
     bordercolor="#666666"
     borderopacity="1.0"
     inkscape:showpageshadow="2"
     inkscape:pageopacity="0.0"
     inkscape:pagecheckerboard="0"
     inkscape:deskcolor="#d1d1d1"
     inkscape:zoom="0.20544251"
     inkscape:cx="445.38007"
     inkscape:cy="-679.02208"
     inkscape:window-width="1916"
     inkscape:window-height="2022"
     inkscape:window-x="1910"
     inkscape:window-y="0"
     inkscape:window-maximized="0"
     inkscape:current-layer="svg37" />
  <style
     id="style1"><![CDATA[.B{color-interpolation-filters:sRGB}]]></style>
  <defs
     id="defs16">
    <linearGradient
       id="A"
       x1="-1430.769"
       y1="-77.47"
       x2="-1409.955"
       y2="-77.47"
       spreadMethod="reflect"
       gradientUnits="userSpaceOnUse">
      <stop
         offset="0"
         stop-color="#ffd285"
         id="stop1" />
      <stop
         offset=".232"
         stop-color="#ffcd79"
         id="stop2" />
      <stop
         offset=".616"
         stop-color="#ffca73"
         id="stop3" />
      <stop
         offset=".808"
         stop-color="#ffd386"
         id="stop4" />
      <stop
         offset="1"
         stop-color="#ffc86e"
         id="stop5" />
    </linearGradient>
    <filter
       id="B"
       x="-0.012166599"
       y="-0.010441906"
       width="1.0243332"
       height="1.0208838"
       class="B">
      <feGaussianBlur
         stdDeviation="2.441"
         id="feGaussianBlur5" />
    </filter>
    <linearGradient
       id="C"
       x1="-904.556"
       y1="-406.052"
       x2="-904.556"
       y2="184.159"
       gradientUnits="userSpaceOnUse">
      <stop
         offset="0"
         id="stop6" />
      <stop
         offset=".599"
         stop-color="#fff"
         id="stop7" />
    </linearGradient>
    <clipPath
       id="D">
      <path
         d="M1799.132 1043.254a7.22 7.22 0 0 0-7.237 7.237v107.141l-44.726-44.726 10.889-10.886c-.771-2.729-3.59-5.548-6.319-6.319l-30.343-8.569-5.259-5.26c-2.836-2.836-7.401-2.836-10.237 0l-3.45 3.45c-2.836 2.836-2.836 7.401 0 10.237l5.259 5.259 8.569 30.343c.771 2.729 3.59 5.548 6.319 6.319l10.886-10.889 44.726 44.726h-107.141a7.22 7.22 0 0 0-7.237 7.237v4.88c0 4.01 3.227 7.24 7.237 7.24h107.141l-44.726 44.726-10.886-10.889c-2.729.771-5.548 3.586-6.319 6.315l-8.569 30.347-5.259 5.259c-2.836 2.836-2.836 7.401 0 10.237l3.45 3.45c2.836 2.836 7.401 2.836 10.237 0l5.266-5.266 30.337-8.565c2.729-.771 5.548-3.586 6.319-6.315l-10.889-10.886 44.726-44.726v107.138c0 4.01 3.227 7.24 7.237 7.24h4.88c4.01 0 7.24-3.23 7.24-7.24v-107.138l44.726 44.726-10.889 10.886c.771 2.729 3.586 5.545 6.315 6.315l30.34 8.565 5.266 5.266c2.836 2.836 7.401 2.836 10.237 0l3.45-3.45c2.836-2.836 2.836-7.401 0-10.237l-5.266-5.266-8.565-30.34c-.771-2.729-3.586-5.545-6.315-6.315l-10.886 10.889-44.726-44.726h107.138c4.01 0 7.24-3.23 7.24-7.24v-4.88c0-4.01-3.23-7.237-7.24-7.237h-107.138l44.726-44.726 10.886 10.889c2.729-.771 5.545-3.59 6.315-6.319l8.565-30.337 5.266-5.266c2.836-2.836 2.836-7.401 0-10.237l-1.725-1.725-1.725-1.725c-2.836-2.836-7.401-2.836-10.237 0l-5.259 5.26-30.347 8.569c-2.729.771-5.545 3.59-6.315 6.319l10.889 10.886-44.726 44.726V1050.49c0-4.01-3.23-7.237-7.24-7.237zm2.438 137.74h.01v.01h-.01z"
         opacity="1"
         stroke-width="1.534"
         id="path7" />
    </clipPath>
    <filter
       id="E"
       x="-0.048002438"
       y="-0.048002441"
       width="1.0960049"
       height="1.0960049"
       class="B">
      <feGaussianBlur
         stdDeviation="5.51"
         id="feGaussianBlur7" />
    </filter>
    <clipPath
       id="F">
      <path
         d="M437.138 772.814c15.197 17.223 39.006 34.953 63.828 43.058 18.743 6.079 37.993 6.585 55.216-2.533 32.42 5.066 55.216.507 80.038 1.52-1.013 10.131 3.039 26.342-4.053 30.901-23.809 0-48.124 5.066-71.933 7.599-8.105 1.013-16.717-5.066-21.783 3.546 14.691 20.263 53.696 29.888 95.742 19.25 1.013 11.145 2.026 17.73-2.026 30.901-35.46 2.026-67.374 1.52-95.742 13.171 7.092 14.69 26.848 23.809 51.164 26.848 7.599-7.599 24.822-6.079 40.526-6.079-5.572 21.276 7.092 31.407 12.158 44.072-31.914 6.585-81.051 1.013-119.044 4.053.507 24.315 45.591 32.42 67.374 29.381 27.355-4.053 60.788-2.533 88.65-4.559 43.058-3.039 83.584-12.664 123.096-15.197 3.546-1.013-.507-9.118 3.546-9.625 8.105-.507 10.131 5.572 19.756 3.546 5.572-10.131-4.559-15.704-6.079-24.822-15.197-4.559-20.769-17.223-21.276-35.966-1.013-39.006 0-107.899 9.625-141.839-11.651-10.638-18.236-26.848-31.407-35.966-2.533 3.039-19.25 6.585-19.25 13.171-73.453 8.105-143.359 19.756-210.733 15.197-8.612-30.394 6.079-60.788 7.599-86.117.507-5.572-5.066-11.651-4.053-17.223 2.533-16.21 14.691-27.861 27.355-33.94 0 3.546-22.796 19.25-21.783 26.848 15.704-10.638 30.394-35.966 51.164-38.499 29.381-3.546 61.801 22.289 88.143 13.171-20.263-8.105-33.94-24.315-45.085-42.045-21.276-11.145-35.966-32.42-66.361-30.394-16.21 1.013-41.539 14.184-52.683 24.822-33.94 31.407-29.888 100.301-43.058 148.931-21.276 3.039-40.526 14.691-48.631 24.822zm165.648-85.61c-3.039 11.651-2.533 21.276 0 29.381 6.585 22.289 30.901 33.94 56.736 43.058-1.52-7.092-2.533-15.197-2.026-24.822-15.197-18.237-23.302-51.67-54.709-47.618zm70.92 19.756c7.599 23.302 36.473 36.98 52.177 45.085 5.066-40.019-20.263-73.453-50.657-74.466-4.559 11.145-4.053 20.769-1.52 29.381zm71.426-9.118c7.092 23.302 33.434 40.526 55.216 48.631-6.585-34.953-14.184-79.025-52.683-80.545-5.066 11.651-5.572 22.289-2.533 31.914zm76.492-47.111c-12.664 54.71 23.809 75.479 58.762 93.715 9.625-10.131-12.664-37.486-2.026-53.696-11.651-9.118-19.25-26.848-31.407-35.966-6.585-5.066-14.691-7.599-25.328-4.053zM675.226 935.423c27.861.507 44.578-8.105 75.985-5.572-3.039 8.105-1.013 25.835 4.053 31.914-14.691 17.73-49.644 16.717-75.985 19.756-2.533-14.184-5.066-28.368-4.053-46.098zm2.026-64.841c29.381-.507 48.124-3.039 73.959-5.572 4.053 8.612 1.52 28.368 0 32.42-28.368 2.533-45.085 8.612-73.959 7.599.507-12.664-2.026-23.302 0-34.447zm-2.026-59.269c28.874-8.105 53.19-7.599 78.012-9.625 1.52 10.131-3.546 23.302-1.52 31.914-27.861-2.026-45.591 11.145-74.466 10.131.507-12.158-3.546-19.25-2.026-32.42z"
         fill="#000"
         fill-opacity="1"
         stroke-width="25.134"
         id="path8" />
    </clipPath>
    <filter
       id="G"
       x="-0.047883346"
       y="-0.048121577"
       width="1.0957667"
       height="1.0962432"
       class="B">
      <feGaussianBlur
         stdDeviation="8.767"
         id="feGaussianBlur8" />
    </filter>
    <filter
       id="H"
       x="-0.37482898"
       y="-0.5426725"
       width="1.749658"
       height="2.085345"
       class="B">
      <feGaussianBlur
         stdDeviation="1.774"
         id="feGaussianBlur9" />
    </filter>
    <filter
       id="I"
       x="-0.41586665"
       y="-0.41511985"
       width="1.8317333"
       height="1.8302397"
       class="B">
      <feGaussianBlur
         stdDeviation="1.774"
         id="feGaussianBlur10" />
    </filter>
    <filter
       id="J"
       x="-0.54263262"
       y="-0.9353677"
       width="2.0852652"
       height="2.8707354"
       class="B">
      <feGaussianBlur
         stdDeviation="1.774"
         id="feGaussianBlur11" />
    </filter>
    <filter
       id="K"
       x="-0.35383674"
       y="-0.35604041"
       width="1.7076735"
       height="1.7120808"
       class="B">
      <feGaussianBlur
         stdDeviation="1.774"
         id="feGaussianBlur12" />
    </filter>
    <filter
       id="L"
       x="-0.26777483"
       y="-0.30544635"
       width="1.5355497"
       height="1.6108927"
       class="B">
      <feGaussianBlur
         stdDeviation="1.774"
         id="feGaussianBlur13" />
    </filter>
    <filter
       id="M"
       x="-0.26860258"
       y="-0.33149091"
       width="1.5372052"
       height="1.6629818"
       class="B">
      <feGaussianBlur
         stdDeviation="1.774"
         id="feGaussianBlur14" />
    </filter>
    <filter
       id="N"
       x="-0.34196854"
       y="-0.34847167"
       width="1.6839371"
       height="1.6969433"
       class="B">
      <feGaussianBlur
         stdDeviation="1.774"
         id="feGaussianBlur15" />
    </filter>
    <filter
       id="O"
       x="-0.16365007"
       y="-0.21448844"
       width="1.3273001"
       height="1.4289769"
       class="B">
      <feGaussianBlur
         stdDeviation="1.774"
         id="feGaussianBlur16" />
    </filter>
    <filter
       id="C-4"
       x="-0.01052904"
       y="-0.011053209"
       width="1.0210581"
       height="1.0221064"
       class="B">
      <feGaussianBlur
         stdDeviation="2.441"
         id="feGaussianBlur7-3" />
    </filter>
    <linearGradient
       id="A-6"
       x1="228.547"
       y1="660.58698"
       x2="270.28101"
       y2="660.58698"
       spreadMethod="reflect"
       gradientUnits="userSpaceOnUse"
       gradientTransform="rotate(180,-169.73559,826.82312)">
      <stop
         offset="0"
         stop-color="#ffd285"
         id="stop1-4" />
      <stop
         offset=".232"
         stop-color="#ffcd79"
         id="stop2-8" />
      <stop
         offset=".616"
         stop-color="#ffca73"
         id="stop3-5" />
      <stop
         offset=".808"
         stop-color="#ffd386"
         id="stop4-0" />
      <stop
         offset="1"
         stop-color="#ffc86e"
         id="stop5-2" />
    </linearGradient>
    <linearGradient
       id="B-2"
       x1="660.03101"
       y1="176.668"
       x2="660.02899"
       y2="1147.598"
       gradientUnits="userSpaceOnUse"
       gradientTransform="rotate(180,153.54925,681.11727)">
      <stop
         offset=".597"
         stop-color="#fff"
         id="stop6-4" />
      <stop
         offset="1"
         id="stop7-2" />
    </linearGradient>
  </defs>
  <path
     style="mix-blend-mode:multiply"
     d="M-2681.73 217.274l26.181 28.949 172.576 56.161 193.177-61.463 89.581-450.194-45.894-49.39z"
     transform="matrix(-2.0051 0 0 2.0051 -4364.0778 706.82307)"
     opacity=".5"
     filter="url(#B)"
     id="path16" />
  <path
     d="M-1220.686-363.581l-176.123 60.03-8.809 28.459-84.914 494.898 10.349 7.986h518.995l10.348-7.986-84.914-495.039-8.809-28.459z"
     fill="url(#A)"
     transform="matrix(-2.0051 0 0 -2.0051 -1787.6392 533.54186)"
     id="path17" />
  <path
     d="M-905.02-407.213l-176.123 59.888-8.809 26.778-84.914 496.72 10.349 7.986h518.995l10.349-7.986-84.914-494.898-8.809-28.601z"
     opacity=".25"
     fill="url(#C)"
     transform="matrix(-2.0051 0 0 -2.0051 -1154.6881 446.05465)"
     style="mix-blend-mode:overlay"
     id="path18" />
  <path
     d="M139.629 97.854l.043-21.064-20.75 16.013 20.707 5.052zm891.185 987.285l-17.664-13.248L660 1188.821v16.402z"
     opacity=".4"
     id="path19" />
  <path
     d="M289.186 1085.139l17.664-13.248L660 1188.821v16.402z"
     opacity=".6"
     id="path20" />
  <path
     d="M289.186 1085.139l17.664-13.248L139.629 97.854l-20.707-5.052z"
     opacity=".6"
     id="path21" />
  <g
     fill="#fff"
     id="g24">
    <path
       d="M1030.814 1085.139l-17.664-13.248 167.221-974.037 20.707-5.052z"
       opacity=".3"
       id="path22" />
    <path
       d="M1180.371 97.854l-.043-21.064 20.75 16.013-20.707 5.052z"
       opacity=".8"
       id="path23" />
    <path
       d="M1180.371 97.854H139.629l.043-21.064h1040.656l.043 21.064z"
       opacity=".3"
       id="path24" />
  </g>
  <path
     d="M306.849 1142.487l-17.663-57.348L660 1205.223l370.814-120.084-17.663 57.348L660 1262.571l-353.151-120.084z"
     opacity=".7"
     id="path25" />
  <path
     id="path13156-7-6"
     style="color:#000000;font-style:normal;font-variant:normal;font-weight:normal;font-stretch:normal;font-size:medium;line-height:normal;font-family:sans-serif;font-variant-ligatures:normal;font-variant-position:normal;font-variant-caps:normal;font-variant-numeric:normal;font-variant-alternates:normal;font-variant-east-asian:normal;font-feature-settings:normal;font-variation-settings:normal;text-indent:0;text-align:start;text-decoration:none;text-decoration-line:none;text-decoration-style:solid;text-decoration-color:#000000;letter-spacing:normal;word-spacing:normal;text-transform:none;writing-mode:lr-tb;direction:ltr;text-orientation:mixed;dominant-baseline:auto;baseline-shift:baseline;text-anchor:start;white-space:normal;shape-padding:0;shape-margin:0;inline-size:0;clip-rule:nonzero;display:inline;overflow:visible;visibility:visible;isolation:auto;mix-blend-mode:normal;color-interpolation:sRGB;color-interpolation-filters:linearRGB;solid-color:#000000;solid-opacity:1;vector-effect:none;fill:#c80000;fill-opacity:1;fill-rule:nonzero;stroke:none;stroke-width:21.4266;stroke-linecap:butt;stroke-linejoin:round;stroke-miterlimit:4;stroke-dasharray:none;stroke-dashoffset:0;stroke-opacity:1;color-rendering:auto;image-rendering:auto;shape-rendering:auto;text-rendering:auto;enable-background:accumulate;stop-color:#000000"
     d="m 719.82227,1130.7251 14.0487,-20.066 c 7.6353,-11.1785 11.9406,-16.3144 16.0503,-22.0675 4.1097,-5.7607 7.5743,-11.9964 12.0345,-23.0835 l 2.0066,-4.0031 -3.0023,-4.0005 c -14.1351,-15.8216 -37.4248,-29.1358 -61.2018,-41.1347 -23.7769,-11.999 -47.8325,-22.90071 -63.2027,-30.10051 -25.5964,-16.5151 -44.9136,-36.83129 -63.5889,-58.28641 -1.4986,-20.52827 -10.0914,-35.27626 -31.71573,-56.0847 l 11.0337,-12.03451 c 26.00913,25.02407 37.42183,47.18861 37.10433,76.23858 h -1.905 c 6.1748,9.29385 12.4537,18.05939 18.9662,25.08502 11.3106,12.20982 22.8219,15.66162 32.1015,17.05102 9.2812,1.397 16.19,1.9812 30.1008,9.0322 0.044,0.028 3.9675,0.9906 4.0005,0.9906 0.036,0 4.9835,-0.9906 5.0165,-0.9906 l 21.0668,-9.0322 -18.0518,-9.017 c -0.3048,-0.4826 -0.4572,-0.9906 -0.9906,-2.032 -1.5494,-2.95148 -3.8964,-7.43712 -6.03,-13.05051 -2.2352,-5.90042 -4.3307,-12.83716 -5.9741,-19.96693 69.7672,-7.25678 144.3662,-56.32575 184.5632,-84.37039 8.6106,-6.74369 2.8093,-20.51303 -8.0188,-19.05253 -19.1769,1.8796 -32.3392,-1.27 -50.1677,-0.9906 8.4175,-2.80924 16.9443,-4.42214 25.085,-8.01877 27.7472,-12.1539 53.9409,-30.02838 71.22081,-60.20153 4.0488,-7.04596 -0.889,-15.85468 -9.017,-16.05026 l -48.16671,-2.032 c 2.4384,-0.9144 4.5313,-0.9906 7.0332,-2.03199 21.7399,-8.92302 45.20231,-23.76423 71.22111,-56.17056 11.31309,-8.70457 -1.6764,-25.69996 -13.0353,-17.06625 -19.6037,8.17118 -34.07941,7.46506 -50.16801,4.00304 -1.0668,-0.22352 -2.3622,-0.4572 -3.5865,-0.6604 l 1.4732,4.5593 c -40.4609,13.06829 -59.6834,13.84299 -74.6658,14.22145 -0.1796,1.6764 -0.3048,3.302 -0.4826,4.98856 -2.413,21.03373 -5.5728,41.89119 -10.1041,61.70241 34.5688,-3.72363 51.2305,-6.46683 70.678,-15.02155 l 5.7759,13.05052 c -22.2554,9.82979 -41.3161,12.64157 -80.1682,16.77923 -4.0741,14.85899 -9.0627,28.95827 -15.2781,41.86375 -4.5872,9.525 -9.9618,18.37435 -16.1213,26.42717 6.2534,-0.22352 13.0327,-0.635 19.8958,-1.397 12.8854,-1.4732 25.6438,-4.3561 32.5015,-8.29056 l 7.1476,12.37742 c -10.3886,5.97153 -24.3002,8.58011 -38.0619,10.11935 -13.0683,1.4732 -25.6712,1.778 -34.4596,1.778 -12.888,12.30121 -28.5026,21.64841 -47.2095,27.15614 -4.4247,7.83336 -4.5034,13.5382 -2.9438,21.21154 1.6764,8.27531 5.8597,17.41931 5.0165,29.1 l -16.0503,-0.9906 c 0.508,-7.02564 -2.9718,-15.01647 -5.0165,-25.08249 -1.5748,-7.78509 1.4732,-17.35581 5.0165,-27.08502 -1.9304,-1.6764 -5.3441,-4.28752 -11.0337,-8.03148 -6.8555,-4.56692 -15.7277,-10.15999 -24.0843,-15.05203 -8.3566,-4.91744 -16.7056,-9.6266 -23.0683,-13.05052 -3.1826,-1.6764 -6.0477,-3.01752 -8.0315,-4.00049 -0.9906,-0.4826 -1.4732,-0.762 -2.0066,-0.9652 l 4.0031,-16.0655 h 1.016 c 0.4318,0.16612 1.5748,0.8636 2.0066,0.9906 0.8636,0.381 0.889,0.4572 2.0066,0.9906 2.2352,1.1176 5.7302,3.23088 9.017,4.98856 6.576,3.51282 14.5465,8.04672 23.0835,13.05051 8.5344,4.98856 17.8181,10.2362 25.0825,15.05204 4.9225,3.23088 8.7223,6.02995 11.8922,8.88999 30.6721,-9.21003 50.1013,-30.49624 64.3463,-60.07224 14.8413,-30.81273 23.3299,-70.58759 28.0998,-112.35609 4.7701,-41.77181 6.6599,-85.26014 10.0203,-124.40457 3.3579,-39.14422 7.8613,-73.83882 20.0685,-98.32002 2.0066,-4.0056 3.8303,-6.8072 4.7016,-10.7036 -14.9301,-1.5494 -30.2009,-3.4493 -45.8229,-5.3467 -67.8741,-8.2347 -141.2229,-15.6007 -213.69193,8.0315 -5.5778,2.1844 -8.288,8.4988 -6.0172,14.036 22.7863,46.7264 32.3756,99.57102 104.32383,163.5188 7.1273,20.53589 6.19,40.08397 5.0165,61.20203 -0.2794,4.98856 0.5588,10.39876 1.524,15.89532 9.3447,14.12747 18.1407,35.54068 26.1704,70.00618 l -5.588,9.40307 -9.9771,-5.1308 c -7.8181,-33.55948 -18.6487,-55.48551 -25.1841,-65.06105 -8.9967,-11.26236 -10.5918,-9.0805 -15.052,-9.03224 -13.2944,0.3048 -23.97,5.90296 -36.1178,10.033 -8.65123,-41.63846 -18.12543,-77.82354 -20.05083,-119.38808 0.254,-2.032 -0.1021,-4.15036 -1.016,-6.0452 l -27.0847,-40.12004 c -2.7051,-3.79476 -7.5743,-5.47878 -12.0345,-4.0005 l -20.0686,6.02996 c -5.9791,1.7526 -9.21,8.21943 -7.018,14.04873 l 0.5588,1.397 -25.212,12.90828 c -2.6848,-4.14528 -7.8283,-5.90296 -12.479,-4.28752 -6.5812,2.3876 -14.0894,4.56946 -22.0676,8.03147 -7.9781,3.4417 -16.5557,8.56742 -22.0675,18.05178 -0.5842,1.27 -0.9398,2.59588 -1.016,4.00049 -0.036,0.22352 -0.5588,1.6256 -5.0165,4.98856 -4.4678,3.37312 -12.4891,8.17626 -25.0697,14.05128 -7.1349,3.44169 -8.222,13.14957 -2.0066,18.06701 l 13.0352,9.01699 c 33.5656,49.00268 59.9481,86.93706 66.2165,145.46701 0.036,0.3302 -0.03,0.6604 0,0.9906 l -8.0187,47.15203 c -0.3556,2.88036 0.5334,5.6261 2.2098,7.80542 1.3461,8.30326 6.6852,15.73783 12.8346,23.29687 7.7774,9.56818 17.7622,19.17953 28.0855,29.08603 10.3225,9.906 20.1574,20.64512 28.0853,30.10026 7.5361,8.9916 11.7475,16.74621 13.0505,23.08346 l -40.1345,57.17521 73.2365,-24.0843 c 14.02333,2.6695 43.99303,13.1724 74.23683,28.0998 31.0942,15.3492 62.9544,35.0735 79.2678,51.1682 1.143,1.1176 4.8057,6.8783 7.018,12.0345 2.2098,5.1283 2.9947,10.8662 3.0023,11.0338 z m 11.0338,-42.1353 c -2.6696,-6.1823 -6.3983,-12.4993 -11.0338,-17.0637 -19.0652,-18.8138 -51.3064,-37.3903 -83.2698,-53.169 -31.9644,-15.7785 -62.3003,-28.13661 -80.25433,-31.10131 h -2.0066 l -30.1005,9.0322 16.0502,-23.0835 v -3.015 c -1.778,-11.82365 -9.2786,-22.63388 -18.067,-33.1162 -8.7884,-10.48004 -19.7662,-20.19553 -30.0865,-30.10077 -9.7308,-9.33703 -19.1084,-18.60549 -25.8128,-26.59887 l 43.8651,22.59837 c 22.9235,9.49198 25.273,14.605 34.1167,21.06675 1.4732,1.0668 3.236,2.1082 5.1461,3.01498 22.65173,26.45689 45.77683,52.86524 79.11083,74.20835 h 1.016 c 15.9969,7.4955 39.1195,17.4396 62.203,29.0866 21.1226,10.6578 40.3741,23.6092 52.1688,35.1175 -2.3622,5.1282 -4.5593,10.607 -7.018,14.0487 -1.397,1.9812 -4.0869,6.4541 -6.03,9.017 z M 518.72194,843.73976 h -11.0338 l -3.1725,-5.0165 c -3.8481,-6.096 -4.6482,-11.28776 -6.1747,-16.35251 -1.524,-5.06476 -3.8456,-11.46302 -10.6629,-22.69743 l -5.6591,-9.31926 9.3903,-5.53212 c 5.5982,-3.29946 13.5306,-3.7592 19.1821,-1.27 5.6515,2.4892 9.4437,6.35762 13.4061,10.73404 l 0.1301,0.14376 0.1437,0.14377 c 2.8245,3.34771 5.1791,6.14933 7.1882,9.50467 2.0066,3.35534 3.6602,7.85622 3.3452,12.55014 -0.635,9.38783 -5.9055,14.68627 -12.8498,23.16987 z m -21.6104,-133.38043 -49.1672,-58.18629 2.3368,-12.17675 44.8076,-18.9103 -37.4043,-19.55291 0.2794,-1.5494 c 0.3556,-2.032 0.155,-4.07924 -0.635,-5.97407 l 36.8468,15.92325 9.9339,24.18333 c 3.2537,20.47239 -0.7366,32.4942 -5.0165,46.15127 -2.3622,7.493 -0.8128,19.99995 -2.0066,30.08629 z M 772.89127,675.9421 c 14.483,-0.381 30.9171,-1.1938 68.8342,-13.42136 l 1.3716,4.2164 c 7.3787,-5.19684 14.8463,-10.76452 22.2123,-17.55139 26.28061,-24.22397 50.84921,-52.96508 60.1868,-67.2193 5.3314,-8.34643 -2.54,-18.83155 -12.03449,-16.05025 -34.4782,9.06272 -49.13831,8.28294 -59.18661,4.98856 -4.1656,-1.3462 -9.9974,-4.00558 -15.8216,-6.67512 l 2.3876,8.38962 c -21.618,6.11124 -37.3121,14.22907 -60.9161,11.76273 -2.2098,28.99993 -4.0589,60.27621 -7.018,91.54512 z m 15.3212,-105.30937 v -0.0282 c 14.7219,0.0666 26.5255,-4.99364 43.7213,-10.20571 52.55841,-31.03703 88.32131,-73.18703 98.5779,-87.81483 0.4572,-0.635 3.6423,-3.5256 4.0157,-4.0183 5.3315,-8.3465 -2.54,-18.8316 -12.0345,-16.0503 -33.98669,12.7229 -73.9742,12.7254 -117.5728,8.8748 -1.2446,7.4117 -3.8785,13.2893 -5.8318,17.2085 -10.0152,20.0914 -14.7574,52.7392 -18.067,91.30277 0,0.0912 0,0.19329 -0.028,0.2794 2.5146,0.2794 4.8895,0.4318 7.2034,0.4318 z" />
  <path
     d="m 449.19474,371.25835 c 14.74,16.705 37.833,33.902 61.908,41.763 18.179,5.896 36.85,6.387 53.55496,-2.457 31.445,4.913 53.555,0.491 77.631,1.474 -0.983,9.827 2.948,25.549 -3.931,29.971 -23.093,0 -46.677,4.913 -69.769,7.37 -7.86096,0.983 -16.21396,-4.913 -21.12696,3.439 14.24896,19.653 52.08096,28.989 92.86196,18.671 0.983,10.809 1.965,17.197 -1.965,29.971 -34.393,1.965 -65.347,1.474 -92.86196,12.775 6.879,14.249 26.04096,23.093 49.62496,26.041 7.37,-7.37 24.075,-5.896 39.307,-5.896 -5.405,20.636 6.879,30.463 11.792,42.746 -30.954,6.387 -78.613,0.983 -115.46296,3.931 0.491,23.584 44.21996,31.445 65.34696,28.497 26.532,-3.931 58.96,-2.457 85.983,-4.422 41.763,-2.948 81.07,-12.283 119.394,-14.74 3.439,-0.983 -0.491,-8.844 3.439,-9.335 7.861,-0.491 9.827,5.405 19.162,3.439 5.405,-9.827 -4.422,-15.231 -5.896,-24.075 -14.74,-4.422 -20.145,-16.705 -20.636,-34.885 -0.983,-37.833 0,-104.654 9.335,-137.573 -11.301,-10.318 -17.688,-26.04093 -30.463,-34.88493 -2.457,2.948 -18.671,6.387 -18.671,12.77496 -71.243,7.86097 -139.048,19.16197 -204.39496,14.73997 -8.353,-29.47993 5.896,-58.95993 7.37,-83.52693 0.491,-5.405 -4.913,-11.301 -3.931,-16.705 l 5.40496,-6.878 c 15.231,-10.318 29.48,-34.885 49.625,-37.341 28.497,-3.439 59.943,21.619 85.492,12.775 -19.653,-7.861 -32.919,-23.584 -43.729,-40.781 -20.636,-10.809 -34.885,-31.445 -64.365,-29.48 -15.723,0.983 -40.28896,13.757 -51.09896,24.075 -32.919,30.463 -28.989,97.284 -41.763,144.452 -20.636,2.948 -39.307,14.249 -47.168,24.07493 z M 609.8607,288.22342 c -2.948,11.301 -2.457,20.636 0,28.497 6.387,21.619 29.971,32.919 55.029,41.763 -1.474,-6.879 -2.457,-14.74 -1.965,-24.075 -14.74,-17.688 -22.601,-50.116 -53.064,-46.185 z m 68.787,19.162 c 7.37,22.601 35.376,35.867 50.607,43.729 4.913,-38.815 -19.653,-71.243 -49.133,-72.226 -4.422,10.809 -3.931,20.145 -1.474,28.497 z m 69.278,-8.844 c 6.879,22.601 32.428,39.307 53.555,47.168 -6.387,-33.902 -13.757,-76.648 -51.099,-78.122 -4.913,11.301 -5.405,21.619 -2.457,30.954 z m 74.191,-45.694 c -12.283,53.064 23.093,73.209 56.99498,90.897 -2.6522,-29.6161 -10.16363,-58.8585 -32.42798,-86.966 -6.387,-4.913 -14.249,-7.37 -24.567,-3.931 z m -141.995,276.12993 c 27.023,0.491 43.237,-7.861 73.7,-5.405 -2.948,7.861 -0.983,25.058 3.931,30.954 -14.249,17.197 -48.151,16.214 -73.7,19.162 -2.457,-13.757 -4.913,-27.515 -3.931,-44.711 z m 1.965,-62.891 c 28.497,-0.491 46.677,-2.948 71.735,-5.405 3.931,8.353 1.474,27.515 0,31.445 -27.515,2.457 -43.729,8.353 -71.735,7.37 0.491,-12.283 -1.965,-22.601 0,-33.411 z m -1.965,-57.486 c 28.006,-7.861 51.59,-7.37 75.665,-9.335 1.474,9.827 -3.439,22.601 -1.474,30.954 -27.023,-1.965 -44.22,10.809 -72.226,9.827 0.491,-11.792 -3.439,-18.671 -1.965,-31.445 z"
     fill="#340000"
     id="path28-6"
     style="fill:#ffd5d5;stroke:#aa0000;stroke-width:31.75;stroke-dasharray:none;stroke-opacity:1;paint-order:stroke fill markers"
     sodipodi:nodetypes="cccccccccccccccccccccccccccccccccccccccccccccccccccccccccccccccccccccsc" />
</svg>
