<svg height="30mm" viewBox="0 0 30 30" width="30mm" xmlns="http://www.w3.org/2000/svg" xmlns:xlink="http://www.w3.org/1999/xlink"><clipPath id="a"><path d="m0 2834.646h2834.646v-2834.646h-2834.646z" transform="translate(-91.9855 -311.81193)"/></clipPath><g transform="translate(-80)"><g clip-path="url(#a)" stroke-miterlimit="10" transform="matrix(0 -.37968369 -.37968364 0 95.000028 1.600017)"><path d="m0 0c0-19.491-15.801-35.292-35.293-35.292-19.491 0-35.292 15.801-35.292 35.292s15.801 35.292 35.292 35.292c19.492 0 35.293-15.801 35.293-35.292" fill="#f9d08f"/><path d="m-35.292969-36.082031c-19.918009 0-36.082031 16.164022-36.082031 36.082031s16.164022 36.082031 36.082031 36.082031c19.918988 0 36.08398462-16.164022 36.08398462-36.082031.00000001-19.918009-16.16499662-36.082031-36.08398462-36.082031zm0 1.580078c19.064974 0 34.50195338 15.438001 34.50195338 34.501953s-15.43697938 34.501953-34.50195338 34.501953c-19.063951 0-34.501953-15.438001-34.501953-34.501953s15.438002-34.501953 34.501953-34.501953z" fill="#4d3608"/></g><path d="m94.231053 14.652734v-.992187h3.522266v3.323828h-2.232422v2.232422q0 .297656.148828.396874.198438.09922 1.190625.09922h1.785937q.744141 0 .79375-.04961.09922-.09922.148829-.248047.04961-.04961.248046-.992187.396878.248046 1.091408.496093-.19844.942578-.44649 1.240235-.19843.297656-.595308.446484-.297656.09922-1.190625.09922h-1.984375q-1.389063 0-1.785938-.198438-.545703-.248047-.545703-1.091406v-3.423047h2.282032v-1.339453zm-1.984375 3.026172v-2.926953h-.942578v2.926953zm-2.926953-6.498828v-1.091406h4.167188v1.091406h-1.488282q-.297656 1.389062-.694531 2.530078h2.033984v5.953125h-1.091406v-.942578h-.942578v1.53789h-1.041797v-4.167187q-.347265.79375-.74414 1.339453-.04961-.545703-.148829-.744141-.04961-.248046-.297656-.595312.496094-.942578.992188-2.232422.396875-1.289844.74414-2.678906zm8.830469 7.14375q-.248047-.79375-.496094-1.190625h.744141q.248046 0 .347265-.09922.09922-.09922.148828-.744141.09922-1.885156.09922-3.96875h-4.067969q-.396875.644922-1.190625 1.736329-.347265-.446485-.843359-.892969.843359-1.141016 1.240234-1.885156.396875-.644922.942579-1.9843753l1.091406.5953124q-.396875.9921879-.694531 1.4386719h4.712891q0 4.018359-.0992 5.208984-.148828.942578-.446484 1.240235-.297656.297656-1.488281.545703z" stroke-width=".352777"/><g stroke-miterlimit="10"><path d="m83.000028 16.200017 1.69225.30001v-3l-1.69225.3z" fill="#060606"/><path d="m85.091797 13.023438-2.492188.441406v3.070312l.800782-2.40039.892578-.158203v2.046874l-1.222657-.216796.330079.392578-.800782.335937.330078.05859 2.16211.382812z"/><path d="m95 3.75c-6.204314 0-11.25 5.0456858-11.25 11.25 0 6.204314 5.045686 11.25 11.25 11.25 6.20431 0 11.25-5.045686 11.25-11.25 0-6.2043142-5.04569-11.25-11.25-11.25zm0 1.5c5.39365 0 9.75 4.356345 9.75 9.75s-4.35635 9.75-9.75 9.75c-5.393654 0-9.75-4.356345-9.75-9.75s4.356346-9.75 9.75-9.75z"/><path d="m107.00003 13.799987-1.69225-.3v3l1.69225-.30001z"/><path d="m104.9082 13.023438v3.953124l2.49219-.441406v-3.070312l-.80078 2.40039-.89258.158203v-2.046874l1.22266.216796-.33008-.392578.80078-.335937-.33008-.05859z"/><path d="m96.200048 27.000007.30001-1.69225h-3l.3 1.69225z" fill="#060606"/><path d="m93.023437 24.908203.441407 2.492188h3.070312l-2.40039-.800782-.158204-.892578h2.046875l-.216796 1.222656.392578-.330078.335937.800782.05859-.330079.382812-2.162109z"/><path d="m93.800018 2.9999968-.3 1.69225h3l-.30001-1.69225z"/><path d="m93.464844 2.5996094 2.40039.8007812.158203.8925781h-2.046875l.216797-1.2226562-.392578.3300781zm0 0-.05859.3300781-.382813 2.1621094h3.953125l-.44141-2.4921875z"/></g></g></svg>