<?xml version="1.0" encoding="UTF-8" standalone="no"?>
<!-- Created with Inkscape (http://www.inkscape.org/) -->

<svg
   width="30mm"
   height="30mm"
   viewBox="0 0 30 30"
   version="1.1"
   id="svg1"
   xmlns="http://www.w3.org/2000/svg"
   xmlns:svg="http://www.w3.org/2000/svg">
  <defs
     id="defs1">
    <clipPath
       clipPathUnits="userSpaceOnUse"
       id="clipPath182-4-0-0-0-5-6-4-0-2">
      <path
         d="M 0,2834.646 H 2834.646 V 0 H 0 Z"
         transform="translate(-91.9855,-311.81193)"
         id="path182-0-3-0-8-1-8-6-2-1" />
    </clipPath>
  </defs>
  <g
     id="layer1">
    <g
       id="path17"
       clip-path="url(#clipPath182-4-0-0-0-5-6-4-0-2)"
       transform="matrix(0.37968369,0,0,-0.37968364,28.400021,14.999988)">
      <path
         style="color:#000000;fill:#f9d08f;stroke-miterlimit:10;-inkscape-stroke:none"
         d="m 0,0 c 0,-19.491 -15.801,-35.292 -35.293,-35.292 -19.491,0 -35.292,15.801 -35.292,35.292 0,19.491 15.801,35.292 35.292,35.292 C -15.801,35.292 0,19.491 0,0"
         id="path18" />
      <path
         style="color:#000000;fill:#4d3608;stroke-miterlimit:10;-inkscape-stroke:none"
         d="M -35.292969,-36.082031 C -55.210978,-36.082031 -71.375,-19.918009 -71.375,0 c 0,19.918009 16.164022,36.082031 36.082031,36.082031 19.918988,0 36.08398462,-16.164022 36.08398462,-36.082031 10e-9,-19.918009 -16.16499662,-36.082031 -36.08398462,-36.082031 z m 0,1.580078 c 19.064974,0 34.50195338,15.438001 34.50195338,34.501953 0,19.063952 -15.43697938,34.501953 -34.50195338,34.501953 -19.063951,0 -34.501953,-15.438001 -34.501953,-34.501953 0,-19.063952 15.438002,-34.501953 34.501953,-34.501953 z"
         id="path19" />
    </g>
    <path
       d="m 14.379882,16.587501 v -0.992188 h 1.141016 v 0.992188 h 5.010547 v 1.091406 h -5.010547 v 3.026172 H 14.379882 V 17.678907 H 9.5181638 v -1.091406 z m 0,-5.953125 V 9.2949228 h 1.141016 v 1.3394532 h 4.464844 v 1.041797 H 17.75332 l 0.644922,0.396875 -0.595313,0.942578 q 1.091406,1.091406 2.579688,1.686719 -0.09922,0.148828 -0.248047,0.297656 -0.09922,0.148828 -0.198438,0.248047 0,0 -0.248047,0.396875 -1.190624,-0.644922 -1.438671,-0.84336 -0.446485,-0.297656 -1.091407,-0.942578 -0.843359,0.942578 -0.942578,0.992188 -0.347265,0.347265 -0.595312,0.496093 -0.09922,-0.09922 -0.347266,-0.297656 -0.248047,-0.198437 -0.496094,-0.347265 1.041797,-0.942579 1.339454,-1.289844 0.545703,-0.644922 1.190625,-1.736328 H 12.99082 l 0.694531,0.446484 q -0.198437,0.446484 -0.74414,1.041797 0.843359,0.644922 1.785937,1.190625 l -0.694531,0.942578 q -0.942578,-0.545703 -1.736328,-1.339453 -1.289844,1.190625 -2.033985,1.686719 -0.4960934,-0.595313 -0.7937496,-0.84336 1.0914066,-0.694531 1.5874996,-1.190625 0.942578,-0.942578 1.5875,-1.934765 h -2.579687 v -1.041797 z"
       id="text30"
       style="-inkscape-font-specification:'Osaka, Normal';stroke-width:0.352777"
       aria-label="å’" />
    <path
       style="color:#000000;fill:#000000;stroke-miterlimit:10;-inkscape-stroke:none"
       d="M 15,4.5 C 9.2099026,4.5000002 4.5000042,9.209904 4.5,15 4.4999983,20.7901 9.2098984,25.5 15,25.5 20.790102,25.5 25.500002,20.7901 25.5,15 25.499996,9.2099038 20.790098,4.5 15,4.5 Z M 15,6 c 4.979439,0 8.999996,4.020563 9,9 1e-6,4.979441 -4.020558,9 -9,9 -4.979442,0 -9.0000015,-4.02056 -9,-9 3.6e-6,-4.979437 4.020561,-8.9999998 9,-9 z"
       id="path109" />
    <path
       style="color:#000000;fill:#000000;stroke-miterlimit:10;-inkscape-stroke:none"
       d="m 3.5,14.599609 v 0.800782 h 1.75 v -0.800782 z"
       id="path216-6" />
    <path
       style="color:#000000;fill:#000000;stroke-miterlimit:10;-inkscape-stroke:none"
       d="m 24.75,14.599609 v 0.800782 h 1.75 v -0.800782 z"
       id="path219" />
    <path
       style="color:#000000;fill:#000000;stroke-miterlimit:10;-inkscape-stroke:none"
       d="m 14.599609,2.5 v 2.75 h 0.800782 V 2.5 Z"
       id="path221" />
  </g>
</svg>
