<svg height="30mm" viewBox="0 0 30 30" width="30mm" xmlns="http://www.w3.org/2000/svg" xmlns:xlink="http://www.w3.org/1999/xlink"><clipPath id="a"><path d="m0 2834.646h2834.646v-2834.646h-2834.646z" transform="translate(-91.9855 -311.81193)"/></clipPath><g transform="translate(-240)"><g clip-path="url(#a)" stroke-miterlimit="10" transform="matrix(.37968374 0 0 -.37968369 268.37793 15.000006)"><path d="m0 0c0-19.491-15.801-35.292-35.293-35.292-19.491 0-35.292 15.801-35.292 35.292s15.801 35.292 35.292 35.292c19.492 0 35.293-15.801 35.293-35.292" fill="#f9d08f"/><path d="m-35.292969-36.082031c-19.918009 0-36.082031 16.164022-36.082031 36.082031s16.164022 36.082031 36.082031 36.082031c19.918988 0 36.08398462-16.164022 36.08398462-36.082031.00000001-19.918009-16.16499662-36.082031-36.08398462-36.082031zm0 1.580078c19.064974 0 34.50195338 15.438001 34.50195338 34.501953s-15.43697938 34.501953-34.50195338 34.501953c-19.063951 0-34.501953-15.438001-34.501953-34.501953s15.438002-34.501953 34.501953-34.501953z" fill="#4d3608"/></g><path d="m252.07305 17.455664.94258-.198438q.34726.992188.5457 1.934766l-1.0418.248047q-.0496-.79375-.44648-1.984375zm-1.63711-.347266.99219.347266q-.34727 1.289843-.89297 2.430859l-.99219-.446484q.39688-.942578.89297-2.331641zm3.81992.248047.84336-.297656q.34727.545703.74414 1.736328l-.89297.347265q-.19843-.595312-.69453-1.785937zm2.87735 1.289844-.84336-1.537891.84336-.396875q.44648.644922.89296 1.488281zm-2.38125-3.22461v-1.091406h-2.92696v1.091406zm0-2.033984v-.992187h-2.92696v.992187zm0-1.885156v-.992188h-2.92696v.992188zm-4.06797 5.258593v-7.2925775h9.37617v1.0417965h-4.16719v.992188h3.52227v.892969h-3.52227v.992187h3.52227v.942578h-3.52227v1.091406h4.56406q-.0496 3.026172-.29765 3.869532-.0992.545703-.44649.694531-.59531.347265-1.98437.545703-.0496-.446484-.44649-1.289844h1.19063q.39687 0 .44648-.148828.19844-.347266.24805-2.678906h-7.34219v.347265z" stroke-width=".352777"/><path d="m254.97852 4.5c-5.7901 0-10.5 4.7099038-10.5 10.5-.00001 5.7901 4.70989 10.5 10.5 10.5 5.7901 0 10.5-4.7099 10.5-10.5-.00001-5.7900962-4.70991-10.5-10.5-10.5zm0 1.5c4.97943 0 8.99999 4.020563 9 9 0 4.979441-4.02056 9-9 9-4.97945 0-9.00001-4.020559-9-9 0-4.979437 4.02056-9 9-9z" stroke-miterlimit="10"/><circle cx="-181.56944" cy="176.90254" r=".65" transform="matrix(-.70710678 -.70710678 .70710678 -.70710678 0 0)"/><circle cx="-184.00327" cy="176.58997" fill="#f9d08f" r=".5" transform="matrix(-.70710678 -.70710678 .70710678 -.70710678 0 0)"/><circle cx="-183.69072" cy="179.02382" r=".65" transform="matrix(-.70710678 -.70710678 .70710678 -.70710678 0 0)"/><circle cx="200.2372" cy="-162.47769" r=".65" transform="matrix(.70710678 .70710678 -.70710678 .70710678 0 0)"/><circle cx="198.11592" cy="-160.35641" r=".65" transform="matrix(.70710678 .70710678 -.70710678 .70710678 0 0)"/><circle cx="179.024" cy="198.11574" r=".65" transform="matrix(.70710678 -.70710678 .70710678 .70710678 0 0)"/><circle cx="176.90273" cy="200.23701" r=".65" transform="matrix(.70710678 -.70710678 .70710678 .70710678 0 0)"/><circle cx="-160.35625" cy="-183.69092" r=".65" transform="matrix(-.70710678 .70710678 -.70710678 -.70710678 0 0)"/><circle cx="-162.47752" cy="-181.56964" r=".65" transform="matrix(-.70710678 .70710678 -.70710678 -.70710678 0 0)"/><g fill="#f9d08f"><path d="m254.47798 4.250006h1v2h-1z"/><path d="m254.47798 23.750006h1v2h-1z"/><path d="m14.500006-265.72794h1v2h-1z" transform="rotate(90)"/><path d="m14.500006-246.22798h1v2h-1z" transform="rotate(90)"/></g></g></svg>