<svg height="30mm" viewBox="0 0 30 30" width="30mm" xmlns="http://www.w3.org/2000/svg" xmlns:xlink="http://www.w3.org/1999/xlink"><clipPath id="a"><path d="m0 2834.646h2834.646v-2834.646h-2834.646z" transform="translate(-91.9855 -311.81193)"/></clipPath><g transform="translate(-480)"><g clip-path="url(#a)" stroke-miterlimit="10" transform="matrix(.37968369 0 0 -.37968364 508.40008 14.999785)"><path d="m0 0c0-19.491-15.801-35.292-35.293-35.292-19.491 0-35.292 15.801-35.292 35.292s15.801 35.292 35.292 35.292c19.492 0 35.293-15.801 35.293-35.292" fill="#f9d08f"/><path d="m-35.292969-36.082031c-19.918009 0-36.082031 16.164022-36.082031 36.082031s16.164022 36.082031 36.082031 36.082031c19.918988 0 36.08398462-16.164022 36.08398462-36.082031.00000001-19.918009-16.16499662-36.082031-36.08398462-36.082031zm0 1.580078c19.064974 0 34.50195338 15.438001 34.50195338 34.501953s-15.43697938 34.501953-34.50195338 34.501953c-19.063951 0-34.501953-15.438001-34.501953-34.501953s15.438002-34.501953 34.501953-34.501953z" fill="#4d3608"/></g><path d="m494.42948 17.505058.79375-.644922q.84336.843359 1.28984 1.438672l-.84336.694531q-.44648-.644922-1.24023-1.488281zm3.86953-1.984375v-1.339453h1.19063v1.339453h1.28984v.992187h-1.28984v3.075782q0 .595312-.44649.892968-.29765.198438-1.73633.297657-.14882-.545703-.5457-1.190625h1.28984q.14883 0 .19844-.04961.0496 0 .0496-.148828v-2.877344h-4.7625v-.992187zm-6.20117-2.976562v-3.1253911h1.09141v11.3109371h-1.09141v-4.216797h-.99219q0 1.5875-.19844 2.331641-.19843.744141-.79375 1.5875-.49609-.446484-.89296-.744141.44648-.496093.69453-1.240234.19843-.595312.19843-1.934766h-.74414v-1.041796h2.72852v-1.885157h-1.24023v.248047h-1.0418v-3.720703h1.0418v2.43086zm5.01055-2.133204h2.48046l.14883-.09922.74414.74414q-.99218 1.190625-1.43867 1.63711-.69453.694531-1.24023.992187-.89297.496094-1.38907.744141-1.0914.446484-2.23242.74414-.39687-.694531-.59531-.942578.64492-.148828 1.73633-.446484l-.79375-.79375.69453-.595313 1.0418.992188q.0496 0 .59531-.347266l-1.0418-.892968.64492-.595313q.99219.744141 1.24024.942578.69453-.545703 1.19062-1.190625h-2.72851q-.94258.79375-2.0836 1.339453-.0496-.04961-.64492-.79375 1.14102-.545703 1.83555-1.091406.79375-.694531 1.43867-1.5378906l1.09141.4464844q-.29766.3472652-.69453.7441402z" stroke-width=".352777"/><g stroke-miterlimit="10"><path d="m495 4.5c-5.7901 0-10.5 4.7099038-10.5 10.5 0 5.7901 4.7099 10.5 10.5 10.5s10.5-4.7099 10.5-10.5c0-5.7900962-4.7099-10.5-10.5-10.5zm0 1.5c4.97944 0 9 4.020563 9 9 0 4.979441-4.02056 9-9 9s-9-4.020559-9-9c0-4.979437 4.02056-9 9-9z"/><path d="m494.59961 2.5v2.75h.80078v-2.75z"/><path d="m494.59961 24.75v2.75h.80078v-2.75z"/><path d="m504.75 14.599609v.800782h2.75v-.800782z"/><path d="m482.5 14.599609v.800782h2.75v-.800782z"/></g></g></svg>