<svg height="30mm" viewBox="0 0 30 30" width="30mm" xmlns="http://www.w3.org/2000/svg" xmlns:xlink="http://www.w3.org/1999/xlink"><clipPath id="a"><path d="m0 2834.646h2834.646v-2834.646h-2834.646z" transform="translate(-91.9855 -311.81193)"/></clipPath><g transform="translate(-560)"><g stroke-miterlimit="10"><g clip-path="url(#a)" transform="matrix(.37968369 0 0 -.37968364 588.39473 14.999793)"><path d="m0 0c0-19.491-15.801-35.292-35.293-35.292-19.491 0-35.292 15.801-35.292 35.292s15.801 35.292 35.292 35.292c19.492 0 35.293-15.801 35.293-35.292" fill="#f9d08f"/><path d="m-35.292969-36.082031c-19.918009 0-36.082031 16.164022-36.082031 36.082031s16.164022 36.082031 36.082031 36.082031c19.918988 0 36.08398462-16.164022 36.08398462-36.082031.00000001-19.918009-16.16499662-36.082031-36.08398462-36.082031zm0 1.580078c19.064974 0 34.50195338 15.438001 34.50195338 34.501953s-15.43697938 34.501953-34.50195338 34.501953c-19.063951 0-34.501953-15.438001-34.501953-34.501953s15.438002-34.501953 34.501953-34.501953z" fill="#4d3608"/></g><path d="m573.82801 5.3200831-.18325-1.52029 1.35006-.6 1.34994.6-.18324 1.52028"/><path d="m574.99414 2.6523438-1.89062.8398437.22851 1.8886719.99219-.1210938-.13867-1.1523437.80859-.3613281.81055.3613281-.13867 1.1523437.99218.1210938.22657-1.8886719z"/><path d="m574.99414 4.5c-5.7901 0-10.5 4.7099039-10.5 10.5 0 5.7901 4.7099 10.5 10.5 10.5s10.5-4.7099 10.5-10.5c0-5.7900961-4.7099-10.5-10.5-10.5zm0 1.5c4.97944 0 9 4.020563 9 9 0 4.979441-4.02056 9-9 9s-9-4.020559-9-9c0-4.979437 4.02056-9 9-9z"/><path d="m576.16148 24.679503.18325 1.52029-1.35006.6-1.34994-.6.18324-1.52028"/><path d="m573.33203 24.619141-.22851 1.886718 1.89062.841797 1.89063-.841797-.22657-1.886718-.99218.121093.13867 1.152344-.81055.359375-.80859-.359375.13867-1.152344z"/><path d="m584.67445 13.833053 1.52029-.18325.6 1.35006-.6 1.34995-1.52028-.18325"/><path d="m586.50195 13.109375-1.88672.226563.11914.99414 1.1543-.140625.35938.810547-.35938.808594-1.1543-.138672-.11914.992187 1.88672.228516.83985-1.890625z"/><path d="m565.31503 16.166523-1.52029.18325-.6-1.35006.6-1.34994 1.52028.18324"/><path d="m563.48828 13.109375-.83984 1.890625.83984 1.890625 1.88672-.228516-.11914-.992187-1.1543.138672-.35937-.808594.35937-.810547 1.1543.140625.11914-.99414z"/></g><path d="m574.4047 16.265039v-.942578h-2.33164v.942578zm3.52227 0v-.942578h-2.33165v.942578zm0-1.934765v-.942578h-2.33165v.942578zm-3.52227 0v-.942578h-2.33164v.942578zm0-3.819922v-1.1906249h1.19062v1.1906249h4.61368v.992188h-4.61368v.942578h3.57188v4.7625h-3.57188v.79375h4.96094v1.041796h-4.96094v1.63711h-1.19062v-1.63711h-4.96094v-1.041796h4.96094v-.79375h-3.47266v-4.7625h3.47266v-.942578h-4.61367v-.992188z" stroke-width=".352777"/></g></svg>