<?xml version="1.0" encoding="UTF-8" standalone="no"?>
<!-- Created with Inkscape (http://www.inkscape.org/) -->

<svg
   width="30mm"
   height="30mm"
   viewBox="0 0 30 30"
   version="1.1"
   id="svg1"
   xmlns="http://www.w3.org/2000/svg"
   xmlns:svg="http://www.w3.org/2000/svg">
  <defs
     id="defs1">
    <clipPath
       clipPathUnits="userSpaceOnUse"
       id="clipPath182-4-0-0-0-6-0">
      <path
         d="M 0,2834.646 H 2834.646 V 0 H 0 Z"
         transform="translate(-91.9855,-311.81193)"
         id="path182-0-3-0-8-2-4" />
    </clipPath>
  </defs>
  <g
     id="layer1"
     transform="translate(-320)">
    <g
       id="path7"
       clip-path="url(#clipPath182-4-0-0-0-6-0)"
       transform="matrix(0.37968369,0,0,-0.37968364,348.39972,15.000012)">
      <path
         style="color:#000000;fill:#f9d08f;stroke-miterlimit:10;-inkscape-stroke:none"
         d="m 0,0 c 0,-19.491 -15.801,-35.292 -35.293,-35.292 -19.491,0 -35.292,15.801 -35.292,35.292 0,19.491 15.801,35.292 35.292,35.292 C -15.801,35.292 0,19.491 0,0"
         id="path42" />
      <path
         style="color:#000000;fill:#4d3608;stroke-miterlimit:10;-inkscape-stroke:none"
         d="M -35.292969,-36.082031 C -55.210978,-36.082031 -71.375,-19.918009 -71.375,0 c 0,19.918009 16.164022,36.082031 36.082031,36.082031 19.918988,0 36.08398462,-16.164022 36.08398462,-36.082031 10e-9,-19.918009 -16.16499662,-36.082031 -36.08398462,-36.082031 z m 0,1.580078 c 19.064974,0 34.50195338,15.438001 34.50195338,34.501953 0,19.063952 -15.43697938,34.501953 -34.50195338,34.501953 -19.063951,0 -34.501953,-15.438001 -34.501953,-34.501953 0,-19.063952 15.438002,-34.501953 34.501953,-34.501953 z"
         id="path43" />
    </g>
    <path
       d="m 334.51464,13.635742 v -0.892969 h -2.62929 v 0.892969 z m 4.11758,0 v -0.892969 h -3.02617 v 0.892969 z m -3.175,-2.480469 h -2.77812 l -0.79375,0.694531 h 2.82773 q 0.24805,-0.198437 0.74414,-0.694531 z m -1.33945,-1.5378908 -0.4961,0.5953128 h 2.87735 l 0.19843,-0.09922 0.64493,0.694531 q -0.39688,0.396875 -0.69453,0.644922 -0.24805,0.248047 -0.44649,0.396875 h 3.62149 v 2.678906 h -2.72852 q 0.0992,0.84336 0.44648,1.5875 0.4961,-0.347265 0.99219,-0.694531 0.4961,-0.347266 0.94258,-0.644922 l 0.84336,0.892969 q -1.48828,0.942578 -2.28203,1.389062 1.14101,1.5875 2.72851,2.38125 -0.59531,0.595313 -0.84336,1.041797 -1.28984,-0.892969 -1.73632,-1.389062 -0.59532,-0.545703 -1.0418,-1.339453 -0.49609,-0.744141 -0.74414,-1.488282 -0.24805,-0.545703 -0.44649,-1.736328 h -0.94257 l -0.34727,0.248047 q 0.79375,0.942578 1.19063,1.885156 0.34726,0.84336 0.34726,2.133203 0,0.644922 -0.24805,1.141016 -0.19843,0.446484 -0.69453,0.595313 -0.5457,0.198437 -1.63711,0.248046 -0.0992,-0.694531 -0.29765,-1.141015 h 1.14101 q 0.34727,0 0.39688,-0.148828 0.19844,-0.198438 0.19844,-0.744141 0,-0.297656 -0.0496,-0.545703 -1.83555,0.992187 -2.43086,1.240234 -0.74414,0.347266 -2.57969,0.892969 -0.44649,-0.942578 -0.5457,-1.041797 2.92695,-0.694531 5.3082,-2.232422 0,0 -0.19844,-0.496093 -1.19062,0.694531 -1.88515,0.992187 -0.4961,0.198438 -2.28204,0.79375 -0.0992,-0.297656 -0.59531,-0.942578 2.33164,-0.545703 4.31602,-1.637109 L 333.7705,15.32246 q -1.78594,0.942578 -3.81992,1.488281 -0.19844,-0.545703 -0.59531,-1.041796 2.28203,-0.496094 3.62148,-1.240235 h -2.18281 v -1.885156 q -0.59531,0.446484 -0.74414,0.545703 -0.24805,-0.347265 -0.79375,-0.892969 2.23242,-1.488281 3.67109,-3.0757808 z"
       id="text22"
       style="-inkscape-font-specification:'Osaka, Normal';stroke-width:0.352777"
       aria-label="象" />
    <path
       style="color:#000000;fill:#000000;stroke-miterlimit:10;-inkscape-stroke:none"
       d="m 335,4.5 c -5.7901,0 -10.5,4.7099037 -10.5,10.5 0,5.7901 4.7099,10.5 10.5,10.5 5.7901,0 10.5,-4.7099 10.5,-10.5 0,-5.7900963 -4.7099,-10.5 -10.5,-10.5 z m 0,1.5 c 4.97944,0 9,4.020563 9,9 0,4.979441 -4.02056,9 -9,9 -4.97944,0 -9,-4.020559 -9,-9 0,-4.979437 4.02056,-9 9,-9 z"
       id="path186" />
    <circle
       style="fill:#000000;fill-opacity:1;stroke:none;stroke-width:0.5;stroke-miterlimit:10;stroke-dasharray:none;stroke-opacity:1"
       id="path188"
       cx="343.39972"
       cy="23.400005"
       r="0.75" />
    <circle
       style="fill:#000000;fill-opacity:1;stroke:none;stroke-width:0.5;stroke-miterlimit:10;stroke-dasharray:none;stroke-opacity:1"
       id="circle189"
       cx="-326.59973"
       cy="-6.6000175"
       r="0.75"
       transform="scale(-1)" />
    <circle
       style="fill:#000000;fill-opacity:1;stroke:none;stroke-width:0.5;stroke-miterlimit:10;stroke-dasharray:none;stroke-opacity:1"
       id="circle197"
       cx="23.399975"
       cy="-326.59973"
       r="0.75"
       transform="rotate(90)" />
    <circle
       style="fill:#000000;fill-opacity:1;stroke:none;stroke-width:0.5;stroke-miterlimit:10;stroke-dasharray:none;stroke-opacity:1"
       id="circle198"
       cx="-6.6000481"
       cy="343.39972"
       r="0.75"
       transform="rotate(-90)" />
    <rect
       style="fill:#f9d08f;fill-opacity:1;stroke:none;stroke-width:0.600001;stroke-miterlimit:10"
       id="rect9"
       width="0.99999976"
       height="2"
       x="246.98718"
       y="-237.02396"
       transform="rotate(45)" />
    <rect
       style="fill:#f9d08f;fill-opacity:1;stroke:none;stroke-width:0.600001;stroke-miterlimit:10"
       id="rect10"
       width="0.99999976"
       height="2"
       x="246.98718"
       y="-217.52396"
       transform="rotate(45)" />
    <rect
       style="fill:#f9d08f;fill-opacity:1;stroke:none;stroke-width:0.600001;stroke-miterlimit:10"
       id="rect11"
       width="0.99999976"
       height="2"
       x="-226.77396"
       y="-258.23718"
       transform="rotate(135)" />
    <rect
       style="fill:#f9d08f;fill-opacity:1;stroke:none;stroke-width:0.600001;stroke-miterlimit:10"
       id="rect12"
       width="0.99999976"
       height="2"
       x="-226.77396"
       y="-238.73718"
       transform="rotate(135)" />
  </g>
</svg>
