<?xml version="1.0" encoding="UTF-8" standalone="no"?>
<!-- Created with Inkscape (http://www.inkscape.org/) -->

<svg
   width="30mm"
   height="30mm"
   viewBox="0 0 30 30"
   version="1.1"
   id="svg1"
   xmlns="http://www.w3.org/2000/svg"
   xmlns:svg="http://www.w3.org/2000/svg">
  <defs
     id="defs1">
    <clipPath
       clipPathUnits="userSpaceOnUse"
       id="clipPath182-4-0-4-7-7">
      <path
         d="M 0,2834.646 H 2834.646 V 0 H 0 Z"
         transform="translate(-91.9855,-311.81193)"
         id="path182-0-3-8-2-4" />
    </clipPath>
  </defs>
  <g
     id="layer1"
     transform="translate(-520)">
    <g
       id="path2"
       clip-path="url(#clipPath182-4-0-4-7-7)"
       transform="matrix(0.37968369,0,0,-0.37968364,548.39997,14.999785)">
      <path
         style="color:#000000;fill:#f9d08f;stroke-miterlimit:10;-inkscape-stroke:none"
         d="m 0,0 c 0,-19.491 -15.801,-35.292 -35.293,-35.292 -19.491,0 -35.292,15.801 -35.292,35.292 0,19.491 15.801,35.292 35.292,35.292 C -15.801,35.292 0,19.491 0,0"
         id="path94" />
      <path
         style="color:#000000;fill:#4d3608;stroke-miterlimit:10;-inkscape-stroke:none"
         d="M -35.292969,-36.082031 C -55.210978,-36.082031 -71.375,-19.918009 -71.375,0 c 0,19.918009 16.164022,36.082031 36.082031,36.082031 19.918988,0 36.08398462,-16.164022 36.08398462,-36.082031 10e-9,-19.918009 -16.16499662,-36.082031 -36.08398462,-36.082031 z m 0,1.580078 c 19.064974,0 34.50195338,15.438001 34.50195338,34.501953 0,19.063952 -15.43697938,34.501953 -34.50195338,34.501953 -19.063951,0 -34.501953,-15.438001 -34.501953,-34.501953 0,-19.063952 15.438002,-34.501953 34.501953,-34.501953 z"
         id="path95" />
    </g>
    <path
       d="M 536.88517,11.502327 V 9.2699049 h 1.0418 v 2.2324221 h 2.28203 v 6.30039 q 0,0.396875 -0.29766,0.644922 -0.39687,0.297656 -1.24023,0.446484 -0.0496,-0.198437 -0.39688,-1.240234 h 0.64492 q 0.0992,0 0.14883,-0.04961 0.0496,-0.04961 0.0496,-0.198438 v -4.861718 h -1.19062 v 8.185546 h -1.0418 v -8.185546 h -1.14102 v 6.201171 h -1.04179 v -7.242968 z m -4.16719,6.895703 v -1.736328 h -1.78594 v 1.736328 z m -0.0496,-4.861719 V 11.99842 h -1.73633 v 1.537891 z m -0.0496,-4.1671874 -0.34726,1.6371094 h 1.53789 v 3.571875 h -2.87735 v 1.041797 h 2.92696 V 19.98553 H 532.718 v -0.595313 h -1.78594 v 1.041797 h -1.14101 v -9.425781 h 1.33945 l 0.29766,-1.7363281 z"
       id="text17"
       style="-inkscape-font-specification:'Osaka, Normal';fill:#d20000;stroke-width:0.352777"
       aria-label="帥" />
    <path
       style="color:#000000;fill:#d20000;stroke-miterlimit:10;-inkscape-stroke:none"
       d="m 535,4.5 c -5.7901,0 -10.5,4.7099038 -10.5,10.5 0,5.7901 4.7099,10.5 10.5,10.5 5.7901,0 10.5,-4.7099 10.5,-10.5 0,-5.7900962 -4.7099,-10.5 -10.5,-10.5 z m 0,1.5 c 4.97944,0 9,4.020563 9,9 0,4.979441 -4.02056,9 -9,9 -4.97944,0 -9,-4.020559 -9,-9 0,-4.979437 4.02056,-9 9,-9 z"
       id="path231" />
    <path
       style="color:#000000;fill:#d20000;stroke-miterlimit:10;-inkscape-stroke:none"
       d="m 534.59961,2.5 v 2.75 h 0.80078 V 2.5 Z"
       id="path260" />
    <path
       style="color:#000000;fill:#d20000;stroke-miterlimit:10;-inkscape-stroke:none"
       d="m 534.59961,24.75 v 2.75 h 0.80078 v -2.75 z"
       id="path261" />
    <path
       style="color:#000000;fill:#d20000;stroke-miterlimit:10;-inkscape-stroke:none"
       d="m 544.75,14.599609 v 0.800782 h 2.75 v -0.800782 z"
       id="path262" />
    <path
       style="color:#000000;fill:#d20000;stroke-miterlimit:10;-inkscape-stroke:none"
       d="m 522.5,14.599609 v 0.800782 h 2.75 v -0.800782 z"
       id="path263" />
  </g>
</svg>
