<svg height="30mm" viewBox="0 0 30 30" width="30mm" xmlns="http://www.w3.org/2000/svg" xmlns:xlink="http://www.w3.org/1999/xlink"><clipPath id="a"><path d="m0 2834.646h2834.646v-2834.646h-2834.646z" transform="translate(-91.9855 -311.81193)"/></clipPath><g transform="translate(-120)"><g clip-path="url(#a)" stroke-miterlimit="10" transform="matrix(.37968369 0 0 -.37968364 148.39999 15)"><path d="m0 0c0-19.491-15.801-35.292-35.293-35.292-19.491 0-35.292 15.801-35.292 35.292s15.801 35.292 35.292 35.292c19.492 0 35.293-15.801 35.293-35.292" fill="#f9d08f"/><path d="m-35.292969-36.082031c-19.918009 0-36.082031 16.164022-36.082031 36.082031s16.164022 36.082031 36.082031 36.082031c19.918988 0 36.08398462-16.164022 36.08398462-36.082031.00000001-19.918009-16.16499662-36.082031-36.08398462-36.082031zm0 1.580078c19.064974 0 34.50195338 15.438001 34.50195338 34.501953s-15.43697938 34.501953-34.50195338 34.501953c-19.063951 0-34.501953-15.438001-34.501953-34.501953s15.438002-34.501953 34.501953-34.501953z" fill="#4d3608"/></g><g fill="#d20000"><path d="m123.00011 16.20002 1.69225.30001v-3l-1.69225.3z" stroke-miterlimit="10"/><path d="m125.0918 13.023438-2.49219.441406v3.070312l.80078-2.40039.89258-.158203v2.046874l-1.22266-.216796.33008.392578-.80078.335937.33008.05859 2.16211.382812z" stroke-miterlimit="10"/><path d="m136.20013 27.00001.30001-1.69225h-3l.3 1.69225z" stroke-miterlimit="10"/><path d="m133.02344 24.908203.4414 2.492188h3.07032l-2.40039-.800782-.15821-.892578h2.04688l-.2168 1.222656.39258-.330078.33594.800782.0586-.330079.38281-2.162109z" stroke-miterlimit="10"/><path d="m129.54303 11.725787 1.0418.09922q-.0496.496094-.0496.942578 0 .446485-.0496.644922-.0496.297656-.0992.644922 0 .297656-.14883.992188l-.99219-.148829q.29766-1.637109.29766-3.175zm7.14375 4.316016v-1.686719h-1.33945v1.686719zm-1.63711-3.671094-.39687 1.041797h3.12539v3.621485h-2.43086v2.182812q0 .248047.19843.297656.19844.09922.94258.09922h2.43086q.34727 0 .4961-.148828.14882-.09922.39687-.992188.34727.347266 1.0418.644922-.29766.84336-.4961 1.091406-.29765.297657-.49609.347266-.14883.04961-1.0418.04961h-2.62929q-.94258 0-1.09141-.04961-.34727-.148828-.59531-.396875-.24805-.248047-.24805-.595312v-5.357813q-.44648.79375-.59531.942578-.24805-.347265-.84336-.942578.79375-1.141015 1.19062-2.133203.4961-1.190625.84336-2.7285155l1.09141.2480469-.49609 1.7859376h4.71289q0 4.167187-.19844 5.55625-.0992.843359-.39688 1.091406-.24804.248047-1.19062.347266-.14883-.496094-.39688-1.091407h.54571q.19843 0 .24804-.04961.0496-.04961.14883-.79375 0 0 .0992-4.067969zm-4.01836-3.0261715h1.09141v2.8277345q.14883-.148828.24804-.248047.0992-.148828.24805-.248047.14883-.148828.24805-.297656.14883-.148828.34726-.347266l.74414.84336-1.88515 1.686718q-.0992 1.785938-.19844 2.579688.94258 1.637109 1.63711 2.579687l-.84336.79375q-.64492-.892969-1.14102-1.934765-.5457 1.736328-1.5875 3.075781-.49609-.694531-.79375-.942578.94258-1.190625 1.24024-2.133203.29766-.79375.5457-2.678907.0992-1.389062.0992-5.5562495z" stroke-width=".352777"/><path d="m147.00012 13.79999-1.69225-.3v3l1.69225-.30001z" stroke-miterlimit="10"/><path d="m144.9082 13.023438v3.953124l2.49219-.441406v-3.070312l-.80078 2.40039-.89258.158203v-2.046874l1.22266.216796-.33008-.392578.80078-.335937-.33008-.05859z" stroke-miterlimit="10"/><path d="m133.8001 2.9999999-.3 1.69225h3l-.30001-1.69225z" stroke-miterlimit="10"/><path d="m133.46484 2.5996094 2.40039.8007812.15821.8925781h-2.04688l.2168-1.2226562-.39258.3300781zm0 0-.0586.3300781-.38281 2.1621094h3.95312l-.4414-2.4921875z" stroke-miterlimit="10"/><path d="m135 3.75c-6.20431 0-11.25 5.0456858-11.25 11.25 0 6.204314 5.04569 11.25 11.25 11.25s11.25-5.045686 11.25-11.25c0-6.2043142-5.04569-11.25-11.25-11.25zm0 1.5c5.39365 0 9.75 4.356345 9.75 9.75s-4.35635 9.75-9.75 9.75-9.75-4.356345-9.75-9.75 4.35635-9.75 9.75-9.75z" stroke-miterlimit="10"/></g></g></svg>