<?xml version="1.0" encoding="UTF-8" standalone="no"?>
<!-- Created with Inkscape (http://www.inkscape.org/) -->

<svg
   width="30mm"
   height="30mm"
   viewBox="0 0 30 30"
   version="1.1"
   id="svg1"
   xmlns="http://www.w3.org/2000/svg"
   xmlns:svg="http://www.w3.org/2000/svg">
  <defs
     id="defs1">
    <clipPath
       clipPathUnits="userSpaceOnUse"
       id="clipPath182-4-0-4-0-4-2-4-4-5-7">
      <path
         d="M 0,2834.646 H 2834.646 V 0 H 0 Z"
         transform="translate(-91.9855,-311.81193)"
         id="path182-0-3-8-6-1-1-0-3-1-5" />
    </clipPath>
  </defs>
  <g
     id="layer1"
     transform="translate(-600)">
    <g
       id="path440"
       clip-path="url(#clipPath182-4-0-4-0-4-2-4-4-5-7)"
       transform="matrix(0.37968369,0,0,-0.37968364,628.39991,14.999994)">
      <path
         style="color:#000000;fill:#f9d08f;stroke-miterlimit:10;-inkscape-stroke:none"
         d="m 0,0 c 0,-19.491 -15.801,-35.292 -35.293,-35.292 -19.491,0 -35.292,15.801 -35.292,35.292 0,19.491 15.801,35.292 35.292,35.292 C -15.801,35.292 0,19.491 0,0"
         id="path52" />
      <path
         style="color:#000000;fill:#4d3608;stroke-miterlimit:10;-inkscape-stroke:none"
         d="M -35.292969,-36.082031 C -55.210978,-36.082031 -71.375,-19.918009 -71.375,0 c 0,19.918009 16.164022,36.082031 36.082031,36.082031 19.918988,0 36.08398462,-16.164022 36.08398462,-36.082031 10e-9,-19.918009 -16.16499662,-36.082031 -36.08398462,-36.082031 z m 0,1.580078 c 19.064974,0 34.50195338,15.438001 34.50195338,34.501953 0,19.063952 -15.43697938,34.501953 -34.50195338,34.501953 -19.063951,0 -34.501953,-15.438001 -34.501953,-34.501953 0,-19.063952 15.438002,-34.501953 34.501953,-34.501953 z"
         id="path53" />
    </g>
    <path
       d="m 615.9674,16.041797 v -0.942578 h -1.63711 v 0.942578 z m 2.82773,0 v -0.942578 h -1.68672 v 0.942578 z M 615.9674,14.25586 v -0.892969 h -1.63711 v 0.892969 z m 2.82773,0 v -0.892969 h -1.68672 V 14.25586 Z M 615.9674,10.634376 V 9.3941412 h 1.14101 v 1.2402348 h 3.27422 v 0.942578 h -3.27422 v 0.843359 h 2.82773 v 4.613672 h -2.82773 v 0.942578 h 3.7207 v 0.942578 h -3.7207 v 1.835547 h -1.14101 v -1.835547 h -3.47266 v -0.942578 h 3.47266 v -0.942578 h -2.72852 v -4.613672 h 2.72852 v -0.843359 h -3.1254 v -0.942578 z m -4.06797,1.587499 v 8.582422 h -1.19063 v -6.35 q -0.59531,1.141016 -0.89297,1.5875 -0.0496,-0.297656 -0.24804,-0.545703 -0.14883,-0.297656 -0.39688,-0.644922 0.74414,-1.141015 1.38906,-2.530078 0.64493,-1.389062 1.14102,-3.1253903 l 1.24023,0.4464843 q -0.5457,1.537891 -1.04179,2.579687 z"
       id="text447"
       style="-inkscape-font-specification:'Osaka, Normal';fill:#d20000;stroke-width:0.352777"
       aria-label="俥" />
    <g
       id="path458">
      <path
         style="color:#000000;fill:#d20000;stroke-miterlimit:10;-inkscape-stroke:none"
         d="m 613.83319,5.320284 -0.18325,-1.52029 1.35006,-0.6 1.34994,0.6 -0.18324,1.52028"
         id="path50" />
      <path
         style="color:#000000;fill:#d20000;stroke-miterlimit:10;-inkscape-stroke:none"
         d="m 615,2.6523438 -1.89063,0.8398437 0.22657,1.8886719 0.99414,-0.1210938 -0.13867,-1.1523437 0.80859,-0.359375 0.80859,0.359375 -0.13867,1.1523437 0.99414,0.1210938 0.22656,-1.8886719 z"
         id="path51" />
    </g>
    <path
       style="color:#000000;fill:#d20000;stroke-miterlimit:10;-inkscape-stroke:none"
       d="m 615,4.5 c -5.7901,0 -10.5,4.7099038 -10.5,10.5 0,5.7901 4.7099,10.5 10.5,10.5 5.7901,0 10.5,-4.7099 10.5,-10.5 0,-5.7900962 -4.7099,-10.5 -10.5,-10.5 z m 0,1.5 c 4.97944,0 9,4.020563 9,9 0,4.979441 -4.02056,9 -9,9 -4.97944,0 -9,-4.020559 -9,-9 0,-4.979437 4.02056,-9 9,-9 z"
       id="path460" />
    <g
       id="path476">
      <path
         style="color:#000000;fill:#d20000;stroke-miterlimit:10;-inkscape-stroke:none"
         d="m 616.16666,24.679704 0.18325,1.52029 -1.35006,0.6 -1.34994,-0.6 0.18324,-1.52028"
         id="path48" />
      <path
         style="color:#000000;fill:#d20000;stroke-miterlimit:10;-inkscape-stroke:none"
         d="m 613.33594,24.619141 -0.22657,1.888671 1.89063,0.839844 1.89062,-0.839844 -0.22851,-1.888671 -0.99219,0.121093 0.13867,1.152344 -0.80859,0.359375 -0.80859,-0.359375 0.13867,-1.152344 z"
         id="path49" />
    </g>
    <g
       id="path478">
      <path
         style="color:#000000;fill:#d20000;stroke-miterlimit:10;-inkscape-stroke:none"
         d="m 624.67963,13.833254 1.52029,-0.18325 0.6,1.35006 -0.6,1.34995 -1.52028,-0.18325"
         id="path46" />
      <path
         style="color:#000000;fill:#d20000;stroke-miterlimit:10;-inkscape-stroke:none"
         d="m 626.50586,13.109375 -1.88672,0.226563 0.12109,0.99414 1.15235,-0.138672 0.35937,0.808594 -0.35937,0.808594 -1.15235,-0.138672 -0.12109,0.99414 1.88672,0.226563 L 627.34766,15 Z"
         id="path47" />
    </g>
    <g
       id="path480">
      <path
         style="color:#000000;fill:#d20000;stroke-miterlimit:10;-inkscape-stroke:none"
         d="m 605.32021,16.166724 -1.52029,0.18325 -0.6,-1.35006 0.6,-1.34994 1.52028,0.18324"
         id="path44" />
      <path
         style="color:#000000;fill:#d20000;stroke-miterlimit:10;-inkscape-stroke:none"
         d="M 603.49219,13.109375 602.65234,15 l 0.83985,1.890625 1.88867,-0.226563 -0.12109,-0.99414 -1.15235,0.138672 L 603.74805,15 l 0.35937,-0.808594 1.15235,0.138672 0.12109,-0.99414 z"
         id="path45" />
    </g>
  </g>
</svg>
