<svg height="30mm" viewBox="0 0 30 30" width="30mm" xmlns="http://www.w3.org/2000/svg" xmlns:xlink="http://www.w3.org/1999/xlink"><clipPath id="a"><path d="m0 2834.646h2834.646v-2834.646h-2834.646z" transform="translate(-91.9855 -311.81193)"/></clipPath><g transform="translate(-200)"><g clip-path="url(#a)" stroke-miterlimit="10" transform="matrix(.37968369 0 0 -.37968364 228.39993 14.999994)"><path d="m0 0c0-19.491-15.801-35.292-35.293-35.292-19.491 0-35.292 15.801-35.292 35.292s15.801 35.292 35.292 35.292c19.492 0 35.293-15.801 35.293-35.292" fill="#f9d08f"/><path d="m-35.292969-36.082031c-19.918009 0-36.082031 16.164022-36.082031 36.082031s16.164022 36.082031 36.082031 36.082031c19.918988 0 36.08398462-16.164022 36.08398462-36.082031.00000001-19.918009-16.16499662-36.082031-36.08398462-36.082031zm0 1.580078c19.064974 0 34.50195338 15.438001 34.50195338 34.501953s-15.43697938 34.501953-34.50195338 34.501953c-19.063951 0-34.501953-15.438001-34.501953-34.501953s15.438002-34.501953 34.501953-34.501953z" fill="#4d3608"/></g><g fill="#d20000"><path d="m216.70009 24.600424-1.7 2.19957-1.7-2.19957" stroke-miterlimit="10"/><path d="m213.69531 24.294922-.79101.611328 2.0957 2.710937 2.0957-2.710937-.79101-.611328-1.30469 1.6875z" stroke-miterlimit="10"/><path d="m224.60049 13.299964 2.19957 1.69999-2.19957 1.70001" stroke-miterlimit="10"/><path d="m224.90625 12.904297-.61133.791016 1.6875 1.304687-1.6875 1.304687.61133.791016 2.71094-2.095703z" stroke-miterlimit="10"/><path d="m215.96738 16.041797v-.942578h-1.63711v.942578zm2.82773 0v-.942578h-1.68671v.942578zm-2.82773-1.785937v-.892969h-1.63711v.892969zm2.82773 0v-.892969h-1.68671v.892969zm-2.82773-3.621484v-1.2402348h1.14102v1.2402348h3.27421v.942578h-3.27421v.843359h2.82773v4.613672h-2.82773v.942578h3.7207v.942578h-3.7207v1.835547h-1.14102v-1.835547h-3.47266v-.942578h3.47266v-.942578h-2.72852v-4.613672h2.72852v-.843359h-3.12539v-.942578zm-4.06797 1.587499v8.582422h-1.19062v-6.35q-.59532 1.141016-.89297 1.5875-.0496-.297656-.24805-.545703-.14883-.297656-.39687-.644922.74414-1.141015 1.38906-2.530078.64492-1.389062 1.14101-3.1253903l1.24024.4464843q-.54571 1.537891-1.0418 2.579687z" stroke-width=".352777"/><path d="m213.30002 5.3995635 1.7-2.19957 1.7 2.19957" stroke-miterlimit="10"/><path d="m215 2.3828125-2.0957 2.7109375.79101.6113281 1.30469-1.6875 1.30469 1.6875.79101-.6113281z" stroke-miterlimit="10"/><path d="m205.39963 16.700034-2.19957-1.7 2.19957-1.7" stroke-miterlimit="10"/><path d="m205.09375 12.904297-2.71094 2.095703 2.71094 2.095703.61133-.791016-1.6875-1.304687 1.6875-1.304687z" stroke-miterlimit="10"/><path d="m215 4.5c-5.7901 0-10.5 4.7099036-10.5 10.5 0 5.7901 4.7099 10.5 10.5 10.5s10.5-4.7099 10.5-10.5c0-5.7900964-4.7099-10.5-10.5-10.5zm0 1.5c4.97944 0 9 4.020563 9 9 0 4.979441-4.02056 9-9 9s-9-4.020559-9-9c0-4.979437 4.02056-9 9-9z" stroke-miterlimit="10"/></g></g></svg>