<?xml version="1.0" encoding="UTF-8" standalone="no"?>
<!-- Created with Inkscape (http://www.inkscape.org/) -->

<svg
   width="30mm"
   height="30mm"
   viewBox="0 0 30 30"
   version="1.1"
   id="svg1"
   xmlns="http://www.w3.org/2000/svg"
   xmlns:svg="http://www.w3.org/2000/svg">
  <defs
     id="defs1">
    <clipPath
       clipPathUnits="userSpaceOnUse"
       id="clipPath182-4-0-4-0-4-2-4-25-4-3">
      <path
         d="M 0,2834.646 H 2834.646 V 0 H 0 Z"
         transform="translate(-91.9855,-311.81193)"
         id="path182-0-3-8-6-1-1-0-9-0-0" />
    </clipPath>
  </defs>
  <g
     id="layer1"
     transform="translate(-40)">
    <g
       id="path16"
       clip-path="url(#clipPath182-4-0-4-0-4-2-4-25-4-3)"
       transform="matrix(0.37968369,0,0,-0.37968364,68.399909,15)">
      <path
         style="color:#000000;fill:#f9d08f;stroke-miterlimit:10;-inkscape-stroke:none"
         d="m 0,0 c 0,-19.491 -15.801,-35.292 -35.293,-35.292 -19.491,0 -35.292,15.801 -35.292,35.292 0,19.491 15.801,35.292 35.292,35.292 C -15.801,35.292 0,19.491 0,0"
         id="path74" />
      <path
         style="color:#000000;fill:#4d3608;stroke-miterlimit:10;-inkscape-stroke:none"
         d="M -35.292969,-36.082031 C -55.210978,-36.082031 -71.375,-19.918009 -71.375,0 c 0,19.918009 16.164022,36.082031 36.082031,36.082031 19.918988,0 36.08398462,-16.164022 36.08398462,-36.082031 10e-9,-19.918009 -16.16499662,-36.082031 -36.08398462,-36.082031 z m 0,1.580078 c 19.064974,0 34.50195338,15.438001 34.50195338,34.501953 0,19.063952 -15.43697938,34.501953 -34.50195338,34.501953 -19.063951,0 -34.501953,-15.438001 -34.501953,-34.501953 0,-19.063952 15.438002,-34.501953 34.501953,-34.501953 z"
         id="path75" />
    </g>
    <path
       d="m 60.432225,19.613672 q -0.297656,0.198437 -0.347266,0.297656 -0.09922,0.09922 -0.446484,0.644922 -2.133203,-0.942578 -3.472656,-1.934766 l 0.74414,-0.892968 q 2.083594,1.488281 3.522266,1.885156 z m -10.070703,1.041797 q -0.446484,-0.595313 -0.79375,-0.942578 1.438672,-0.644922 1.835547,-0.892969 0.297656,-0.148828 1.637109,-1.091406 l 0.84336,0.74414 q -1.63711,1.339453 -3.522266,2.182813 z m 6.399609,-4.167188 v -2.926953 h -4.018359 v 2.926953 z m -4.018359,-5.208984 v 1.339453 h 7.09414 v 0.942578 h -1.984375 v 2.926953 h 2.678907 v 0.992188 H 49.468553 v -0.992188 h 2.133203 v -6.30039 l 0.942578,0.198437 q 0.396875,0 2.331641,-0.297656 2.033984,-0.2976562 3.770312,-0.7441406 l 0.545704,1.0417966 q -3.522266,0.694532 -6.449219,0.892969 z"
       id="text29"
       style="-inkscape-font-specification:'Osaka, Normal';fill:#d20000;stroke-width:0.352777"
       aria-label="兵" />
    <path
       style="color:#000000;fill:#d20000;stroke-miterlimit:10;-inkscape-stroke:none"
       d="m 55,4.5 c -5.790098,0 -10.499996,4.7099038 -10.5,10.5 -2e-6,5.7901 4.709898,10.5 10.5,10.5 5.790102,0 10.500002,-4.7099 10.5,-10.5 C 65.499996,9.2099038 60.790098,4.5 55,4.5 Z M 55,6 c 4.979439,0 8.999996,4.020563 9,9 10e-7,4.979441 -4.020558,9 -9,9 -4.979442,0 -9.000001,-4.020559 -9,-9 4e-6,-4.979437 4.020561,-9 9,-9 z"
       id="path232" />
    <path
       style="color:#000000;fill:#d20000;stroke-miterlimit:10;-inkscape-stroke:none"
       d="m 43.5,14.599609 v 0.800782 h 1.75 v -0.800782 z"
       id="path256" />
    <path
       style="color:#000000;fill:#d20000;stroke-miterlimit:10;-inkscape-stroke:none"
       d="m 64.75,14.599609 v 0.800782 h 1.75 v -0.800782 z"
       id="path258" />
    <path
       style="color:#000000;fill:#d20000;stroke-miterlimit:10;-inkscape-stroke:none"
       d="m 54.599609,2.5 v 2.75 h 0.800782 V 2.5 Z"
       id="path259" />
  </g>
</svg>
