<?xml version="1.0" encoding="UTF-8" standalone="no"?>
<!-- Created with Inkscape (http://www.inkscape.org/) -->

<svg
   width="30mm"
   height="30mm"
   viewBox="0 0 30 30"
   version="1.1"
   id="svg1"
   xmlns="http://www.w3.org/2000/svg"
   xmlns:svg="http://www.w3.org/2000/svg">
  <defs
     id="defs1">
    <clipPath
       clipPathUnits="userSpaceOnUse"
       id="clipPath182-4-0-4-0-4-2-4-2-7-8">
      <path
         d="M 0,2834.646 H 2834.646 V 0 H 0 Z"
         transform="translate(-91.9855,-311.81193)"
         id="path182-0-3-8-6-1-1-0-7-6-8" />
    </clipPath>
  </defs>
  <g
     id="layer1"
     transform="translate(-120)">
    <g
       id="path14"
       clip-path="url(#clipPath182-4-0-4-0-4-2-4-2-7-8)"
       transform="matrix(0.37968369,0,0,-0.37968364,148.39999,15)">
      <path
         style="color:#000000;fill:#f9d08f;stroke-miterlimit:10;-inkscape-stroke:none"
         d="m 0,0 c 0,-19.491 -15.801,-35.292 -35.293,-35.292 -19.491,0 -35.292,15.801 -35.292,35.292 0,19.491 15.801,35.292 35.292,35.292 C -15.801,35.292 0,19.491 0,0"
         id="path72" />
      <path
         style="color:#000000;fill:#4d3608;stroke-miterlimit:10;-inkscape-stroke:none"
         d="M -35.292969,-36.082031 C -55.210978,-36.082031 -71.375,-19.918009 -71.375,0 c 0,19.918009 16.164022,36.082031 36.082031,36.082031 19.918988,0 36.08398462,-16.164022 36.08398462,-36.082031 10e-9,-19.918009 -16.16499662,-36.082031 -36.08398462,-36.082031 z m 0,1.580078 c 19.064974,0 34.50195338,15.438001 34.50195338,34.501953 0,19.063952 -15.43697938,34.501953 -34.50195338,34.501953 -19.063951,0 -34.501953,-15.438001 -34.501953,-34.501953 0,-19.063952 15.438002,-34.501953 34.501953,-34.501953 z"
         id="path73" />
    </g>
    <g
       id="path281">
      <path
         style="color:#000000;fill:#d20000;stroke-miterlimit:10;-inkscape-stroke:none"
         d="m 123.00011,16.20002 1.69225,0.30001 v -3 l -1.69225,0.3 z"
         id="path70" />
      <path
         style="color:#000000;fill:#d20000;stroke-miterlimit:10;-inkscape-stroke:none"
         d="m 125.0918,13.023438 -2.49219,0.441406 v 3.070312 l 0.80078,-2.40039 0.89258,-0.158203 v 2.046874 l -1.22266,-0.216796 0.33008,0.392578 -0.80078,0.335937 0.33008,0.05859 2.16211,0.382812 z"
         id="path71" />
    </g>
    <g
       id="path283">
      <path
         style="color:#000000;fill:#d20000;stroke-miterlimit:10;-inkscape-stroke:none"
         d="m 136.20013,27.00001 0.30001,-1.69225 h -3 l 0.3,1.69225 z"
         id="path68" />
      <path
         style="color:#000000;fill:#d20000;stroke-miterlimit:10;-inkscape-stroke:none"
         d="m 133.02344,24.908203 0.4414,2.492188 h 3.07032 l -2.40039,-0.800782 -0.15821,-0.892578 h 2.04688 l -0.2168,1.222656 0.39258,-0.330078 0.33594,0.800782 0.0586,-0.330079 0.38281,-2.162109 z"
         id="path69" />
    </g>
    <path
       d="m 129.54303,11.725787 1.0418,0.09922 q -0.0496,0.496094 -0.0496,0.942578 0,0.446485 -0.0496,0.644922 -0.0496,0.297656 -0.0992,0.644922 0,0.297656 -0.14883,0.992188 l -0.99219,-0.148829 q 0.29766,-1.637109 0.29766,-3.175 z m 7.14375,4.316016 v -1.686719 h -1.33945 v 1.686719 z m -1.63711,-3.671094 -0.39687,1.041797 h 3.12539 v 3.621485 h -2.43086 v 2.182812 q 0,0.248047 0.19843,0.297656 0.19844,0.09922 0.94258,0.09922 h 2.43086 q 0.34727,0 0.4961,-0.148828 0.14882,-0.09922 0.39687,-0.992188 0.34727,0.347266 1.0418,0.644922 -0.29766,0.84336 -0.4961,1.091406 -0.29765,0.297657 -0.49609,0.347266 -0.14883,0.04961 -1.0418,0.04961 h -2.62929 q -0.94258,0 -1.09141,-0.04961 -0.34727,-0.148828 -0.59531,-0.396875 -0.24805,-0.248047 -0.24805,-0.595312 v -5.357813 q -0.44648,0.79375 -0.59531,0.942578 -0.24805,-0.347265 -0.84336,-0.942578 0.79375,-1.141015 1.19062,-2.133203 0.4961,-1.190625 0.84336,-2.7285155 l 1.09141,0.2480469 -0.49609,1.7859376 h 4.71289 q 0,4.167187 -0.19844,5.55625 -0.0992,0.843359 -0.39688,1.091406 -0.24804,0.248047 -1.19062,0.347266 -0.14883,-0.496094 -0.39688,-1.091407 h 0.54571 q 0.19843,0 0.24804,-0.04961 0.0496,-0.04961 0.14883,-0.79375 0,0 0.0992,-4.067969 z m -4.01836,-3.0261715 h 1.09141 v 2.8277345 q 0.14883,-0.148828 0.24804,-0.248047 0.0992,-0.148828 0.24805,-0.248047 0.14883,-0.148828 0.24805,-0.297656 0.14883,-0.148828 0.34726,-0.347266 l 0.74414,0.84336 -1.88515,1.686718 q -0.0992,1.785938 -0.19844,2.579688 0.94258,1.637109 1.63711,2.579687 l -0.84336,0.79375 q -0.64492,-0.892969 -1.14102,-1.934765 -0.5457,1.736328 -1.5875,3.075781 -0.49609,-0.694531 -0.79375,-0.942578 0.94258,-1.190625 1.24024,-2.133203 0.29766,-0.79375 0.5457,-2.678907 0.0992,-1.389062 0.0992,-5.5562495 z"
       id="text27"
       style="-inkscape-font-specification:'Osaka, Normal';fill:#d20000;stroke-width:0.352777"
       aria-label="炮" />
    <g
       id="path282">
      <path
         style="color:#000000;fill:#d20000;stroke-miterlimit:10;-inkscape-stroke:none"
         d="m 147.00012,13.79999 -1.69225,-0.3 v 3 l 1.69225,-0.30001 z"
         id="path66" />
      <path
         style="color:#000000;fill:#d20000;stroke-miterlimit:10;-inkscape-stroke:none"
         d="m 144.9082,13.023438 v 3.953124 l 2.49219,-0.441406 v -3.070312 l -0.80078,2.40039 -0.89258,0.158203 v -2.046874 l 1.22266,0.216796 -0.33008,-0.392578 0.80078,-0.335937 -0.33008,-0.05859 z"
         id="path67" />
    </g>
    <g
       id="path284">
      <path
         style="color:#000000;fill:#d20000;stroke-miterlimit:10;-inkscape-stroke:none"
         d="m 133.8001,2.9999999 -0.3,1.69225 h 3 l -0.30001,-1.69225 z"
         id="path64" />
      <path
         style="color:#000000;fill:#d20000;stroke-miterlimit:10;-inkscape-stroke:none"
         d="m 133.46484,2.5996094 2.40039,0.8007812 0.15821,0.8925781 h -2.04688 l 0.2168,-1.2226562 -0.39258,0.3300781 z m 0,0 -0.0586,0.3300781 -0.38281,2.1621094 h 3.95312 l -0.4414,-2.4921875 z"
         id="path65" />
    </g>
    <path
       style="color:#000000;fill:#d20000;stroke-miterlimit:10;-inkscape-stroke:none"
       d="m 135,3.75 c -6.20431,0 -11.25,5.0456858 -11.25,11.25 0,6.204314 5.04569,11.25 11.25,11.25 6.20431,0 11.25,-5.045686 11.25,-11.25 0,-6.2043142 -5.04569,-11.25 -11.25,-11.25 z m 0,1.5 c 5.39365,0 9.75,4.356345 9.75,9.75 0,5.393655 -4.35635,9.75 -9.75,9.75 -5.39365,0 -9.75,-4.356345 -9.75,-9.75 0,-5.393655 4.35635,-9.75 9.75,-9.75 z"
       id="ellipse242" />
  </g>
</svg>
