<?xml version="1.0" encoding="UTF-8" standalone="no"?>
<svg
   xmlns:dc="http://purl.org/dc/elements/1.1/"
   xmlns:cc="http://creativecommons.org/ns#"
   xmlns:rdf="http://www.w3.org/1999/02/22-rdf-syntax-ns#"
   xmlns:svg="http://www.w3.org/2000/svg"
   xmlns="http://www.w3.org/2000/svg"
   xmlns:xlink="http://www.w3.org/1999/xlink"
   xmlns:sodipodi="http://sodipodi.sourceforge.net/DTD/sodipodi-0.dtd"
   xmlns:inkscape="http://www.inkscape.org/namespaces/inkscape"
   width="92"
   height="92"
   id="svg2"
   version="1.1"
   inkscape:version="0.92.4 (5da689c313, 2019-01-14)"
   sodipodi:docname="blue_chariot.svg">
  <metadata
     id="metadata12">
    <rdf:RDF>
      <cc:Work
         rdf:about="">
        <dc:format>image/svg+xml</dc:format>
        <dc:type
           rdf:resource="http://purl.org/dc/dcmitype/StillImage" />
        <dc:title></dc:title>
      </cc:Work>
    </rdf:RDF>
  </metadata>
  <defs
     id="defs10">
    <filter
       height="1.5"
       width="1.5"
       y="0"
       x="0"
       id="f1"
       color-interpolation-filters="sRGB">
      <feOffset
         id="feOffset3039"
         dy="0"
         dx="1"
         in="SourceAlpha"
         result="offOut" />
      <feGaussianBlur
         id="feGaussianBlur3041"
         stdDeviation="1"
         in="offOut"
         result="blurOut" />
      <!--
      <feBlend in="SourceGraphic" in2="blurOut" mode="normal" />
-->
    </filter>
    <linearGradient
       y2="1"
       x2="0"
       y1="0"
       x1="0"
       id="grad1">
      <stop
         id="stop3034"
         style="stop-color:rgb(255,255,255);stop-opacity:0.6"
         offset="20%" />
      <stop
         id="stop3036"
         style="stop-color:rgb(220,0,0);stop-opacity:0.5"
         offset="50%" />
    </linearGradient>
    <linearGradient
       y2="1"
       x2="0"
       y1="0"
       x1="0"
       id="grad0">
      <stop
         id="stop3029"
         style="stop-color:rgb(0,0,0);stop-opacity:0.3"
         offset="20%" />
      <stop
         id="stop3031"
         style="stop-color:rgb(0,0,0);stop-opacity:0.6"
         offset="100%" />
    </linearGradient>
    <inkscape:path-effect
       effect="mirror_symmetry"
       start_point="274.21267,350.55066"
       end_point="273.50284,477.30227"
       center_point="273.85776,413.92646"
       id="path-effect4557-0-4"
       is_visible="true"
       mode="free"
       discard_orig_path="false"
       fuse_paths="true"
       oposite_fuse="false" />
    <filter
       style="color-interpolation-filters:sRGB;"
       inkscape:label="Drop Shadow"
       id="filter18479">
      <feFlood
         flood-opacity="1"
         flood-color="rgb(91,93,90)"
         result="flood"
         id="feFlood18469" />
      <feComposite
         in="flood"
         in2="SourceGraphic"
         operator="in"
         result="composite1"
         id="feComposite18471" />
      <feGaussianBlur
         in="composite1"
         stdDeviation="0"
         result="blur"
         id="feGaussianBlur18473" />
      <feOffset
         dx="0"
         dy="4"
         result="offset"
         id="feOffset18475" />
      <feComposite
         in="SourceGraphic"
         in2="offset"
         operator="over"
         result="composite2"
         id="feComposite18477" />
    </filter>
    <linearGradient
       y2="1"
       x2="0"
       y1="0"
       x1="0"
       id="linearGradient11421">
      <stop
         id="stop11417"
         style="stop-color:#c83737;stop-opacity:1"
         offset="20%" />
      <stop
         id="stop11419"
         style="stop-color:#de8787;stop-opacity:1"
         offset="100%" />
    </linearGradient>
    <linearGradient
       id="linearGradient5398"
       x1="0"
       y1="0"
       x2="0"
       y2="1">
      <stop
         offset="20%"
         style="stop-color:#c83737;stop-opacity:1"
         id="stop5394" />
      <stop
         offset="100%"
         style="stop-color:#cf8080;stop-opacity:1"
         id="stop5396" />
    </linearGradient>
    <linearGradient
       inkscape:collect="always"
       xlink:href="#linearGradient5290"
       id="linearGradient5306"
       gradientUnits="userSpaceOnUse"
       x1="22.018419"
       y1="47.282806"
       x2="75.110641"
       y2="47.282806" />
    <linearGradient
       inkscape:collect="always"
       id="linearGradient5290">
      <stop
         style="stop-color:#000000;stop-opacity:1;"
         offset="0"
         id="stop5286" />
      <stop
         style="stop-color:#4d4d4d;stop-opacity:1"
         offset="1"
         id="stop5288" />
    </linearGradient>
  </defs>
  <sodipodi:namedview
     pagecolor="#ffffff"
     bordercolor="#666666"
     borderopacity="1"
     objecttolerance="10"
     gridtolerance="10"
     guidetolerance="10"
     inkscape:pageopacity="0"
     inkscape:pageshadow="2"
     inkscape:window-width="1920"
     inkscape:window-height="1017"
     id="namedview8"
     showgrid="false"
     inkscape:zoom="8"
     inkscape:cx="10.972285"
     inkscape:cy="47.111972"
     inkscape:window-x="1912"
     inkscape:window-y="-8"
     inkscape:window-maximized="1"
     inkscape:current-layer="layer1"
     fit-margin-top="0"
     fit-margin-left="0"
     fit-margin-right="0"
     fit-margin-bottom="0"
     inkscape:pagecheckerboard="false"
     showguides="false" />
  <g
     inkscape:groupmode="layer"
     id="layer1"
     inkscape:label="Background"
     style="display:inline">
    <g
       transform="matrix(1.2230064,0,0,1.2230064,-526.36811,2.0310851)"
       id="g2170">
      <g
         id="XMLID_19_">
        <g
           id="g2144">
          <polygon
             style="fill:#ffffff"
             points="491.332,43.496 491.287,43.539 477.666,57.16 458.395,57.16 458.338,57.16 444.674,43.496 444.674,24.167 458.338,10.501 477.666,10.501 491.332,24.167 "
             id="polygon2136" />
          <polygon
             style="fill:#bcbab8"
             points="477.666,57.218 477.666,57.16 491.287,43.539 491.291,43.542 491.291,47.825 491.32,47.854 477.818,61.352 477.666,61.352 "
             id="polygon2138" />
          <polygon
             style="fill:#cecac8"
             points="477.666,61.402 477.627,61.402 458.402,61.402 458.395,61.402 458.395,61.303 458.395,57.218 458.395,57.16 477.666,57.16 477.666,57.218 477.666,61.352 "
             id="polygon2140" />
          <polygon
             style="fill:#e2e1e0"
             points="444.674,43.496 458.338,57.16 458.395,57.16 458.395,57.218 458.395,61.303 458.307,61.303 444.674,47.67 "
             id="polygon2142" />
        </g>
        <g
           id="g2162">
          <polygon
             style="fill:none;stroke:#000000;stroke-width:0.25"
             points="458.338,57.16 444.674,43.496 444.674,24.167 458.338,10.501 477.666,10.501 491.332,24.167 491.332,43.496 491.287,43.539 477.666,57.16 458.395,57.16 "
             id="polygon2146" />
          <polyline
             style="fill:none;stroke:#000000;stroke-width:0.25"
             points="444.674,43.496 444.674,47.67 444.674,47.776    "
             id="polyline2148" />
          <polyline
             style="fill:none;stroke:#000000;stroke-width:0.25"
             points="458.395,57.218 458.395,61.303 458.395,61.402      458.395,61.499    "
             id="polyline2150" />
          <polyline
             style="fill:none;stroke:#000000;stroke-width:0.25"
             points="477.666,57.218 477.666,61.352 477.666,61.402      477.666,61.499    "
             id="polyline2152" />
          <line
             style="fill:none;stroke:#000000;stroke-width:0.25;stroke-miterlimit:4;stroke-dasharray:none"
             x1="491.29099"
             y1="43.542"
             x2="491.29099"
             y2="47.825001"
             id="line2154" />
          <polyline
             style="fill:none;stroke:#000000;stroke-width:0.25;stroke-miterlimit:4;stroke-dasharray:none"
             points="444.633,47.629 444.674,47.67 458.307,61.303    "
             id="polyline2156" />
          <polyline
             style="fill:none;stroke:#000000;stroke-width:0.25;stroke-miterlimit:4;stroke-dasharray:none"
             points="477.818,61.352 491.32,47.854 491.367,47.805    "
             id="polyline2158" />
          <line
             style="fill:none;stroke:#000000;stroke-width:0.25;stroke-miterlimit:4;stroke-dasharray:none"
             x1="458.40201"
             y1="61.402"
             x2="477.62701"
             y2="61.402"
             id="line2160" />
        </g>
      </g>
    </g>
    <path
       style="fill:#ffffff;fill-opacity:1;stroke:none;stroke-width:1.02404404px;stroke-linecap:butt;stroke-linejoin:miter;stroke-opacity:1"
       d="m 40.477249,38.692473 c -0.698152,-0.258835 -0.891389,0.29367 -1.228853,0.614427 0.0637,0.395111 -0.133146,0.574333 0.614427,1.536066 0.650104,0.226983 1.456078,0.05044 2.252897,-0.102405 0.863586,0.1485 1.335138,0.493013 1.843279,0.819235 -0.06431,-0.700603 -0.46211,-1.256364 -1.024044,-1.740874 z"
       id="path5363"
       inkscape:connector-curvature="0"
       sodipodi:nodetypes="ccccccc" />
    <path
       style="fill:#ffffff;stroke:none;stroke-width:1.02565658;stroke-linecap:butt;stroke-linejoin:miter;stroke-miterlimit:4;stroke-dasharray:none;stroke-opacity:1"
       d="m 40.886867,37.46362 c -0.841887,0.102662 -1.375773,0.446167 -1.740875,0.92164 0.327315,-0.01004 0.670708,-0.02814 1.126448,-0.102404 0.831524,-0.734477 1.33903,-0.289149 1.945684,-0.204809 -0.351339,-0.235611 -0.784766,-0.443865 -1.331257,-0.614427 z"
       id="path5365"
       inkscape:connector-curvature="0"
       sodipodi:nodetypes="ccccc" />
    <g
       id="g23299"
       transform="matrix(0.86902188,0,0,0.86902188,81.640493,-17.045259)">
      <path
         sodipodi:nodetypes="cccc"
         inkscape:connector-curvature="0"
         id="path8722-0"
         d="m -33.631311,78.432453 c -0.109046,-1.025934 0.510246,-3.474634 3.77523,-3.606693 1.749162,-3.263349 4.571668,-3.176384 6.53924,0 1.89631,0.17075 3.401249,0.839608 3.337034,3.505573"
         style="display:inline;fill:none;stroke:#ffffff;stroke-width:0.60000002;stroke-linecap:butt;stroke-linejoin:miter;stroke-miterlimit:4;stroke-dasharray:none;stroke-opacity:1" />
      <path
         sodipodi:nodetypes="ccccccc"
         inkscape:connector-curvature="0"
         id="path5517"
         d="m -62.352728,49.66382 c 12.079888,0.82929 16.235222,0.778634 20.790704,0.762712 l -0.115084,18.315683 1.15722,-0.03443 0.229866,-18.28125 c 12.78265,0.08801 18.770273,-0.186164 22.633335,-0.762712 -16.199176,-5.185245 -31.999069,-5.283878 -44.696041,-3e-6 z"
         style="display:inline;fill:#006838;fill-opacity:1;stroke:#006838;stroke-width:1px;stroke-linecap:butt;stroke-linejoin:miter;stroke-opacity:1" />
      <path
         id="path5173"
         d="m -36.967544,60.544215 a 16.761462,16.761462 0 0 1 16.76063,16.760626 16.761462,16.761462 0 0 1 -16.76063,16.763172 16.761462,16.761462 0 0 1 -16.763164,-16.763172 16.761462,16.761462 0 0 1 16.763164,-16.760626 z m 0,2.515362 a 14.247242,14.247242 0 0 0 -14.247802,14.245264 14.247242,14.247242 0 0 0 14.247802,14.247802 14.247242,14.247242 0 0 0 14.2478,-14.247802 14.247242,14.247242 0 0 0 -14.2478,-14.245264 z"
         style="display:inline;opacity:1;fill:#006838;fill-opacity:1;stroke:none;stroke-width:0.12982513;stroke-linecap:square;stroke-linejoin:miter;stroke-miterlimit:4;stroke-dasharray:none;stroke-dashoffset:0;stroke-opacity:1;paint-order:normal"
         inkscape:connector-curvature="0" />
      <path
         sodipodi:nodetypes="cccccccccc"
         inkscape:connector-curvature="0"
         id="path5176"
         d="m -56.671227,73.303568 c -1.100359,-1.583321 -2.052595,-4.120182 -3.021921,-5.965553 l -4.114171,-0.07619 c -0.572036,0.863469 -0.801476,1.726938 -0.228571,2.590407 l 3.047542,0.228566 c 0.679011,2.273621 1.630084,4.00315 2.590413,5.714133 l 4.508653,0.16831 c 0.108315,-1.15859 -0.02335,-0.80349 0.360831,-2.611896 -1.235017,0.05123 -1.925316,0.02215 -3.142776,-0.04778 z"
         style="display:inline;fill:#006838;fill-opacity:1;stroke:none;stroke-width:1.29825127px;stroke-linecap:butt;stroke-linejoin:miter;stroke-opacity:1" />
      <path
         sodipodi:nodetypes="ccccc"
         inkscape:connector-curvature="0"
         id="path5178"
         d="m -22.334932,51.601243 c 0.03917,5.884009 0.265917,11.78969 0.115055,16.956669 -4.797619,-5.826791 -6.000532,-6.87719 -14.110332,-8.400876 0.266048,-2.019106 5.124498,-8.160352 8.096482,-8.825452 z"
         style="display:inline;fill:#006838;fill-opacity:1;stroke:none;stroke-width:1.29825127px;stroke-linecap:butt;stroke-linejoin:miter;stroke-opacity:1" />
      <path
         sodipodi:nodetypes="csccccccc"
         inkscape:connector-curvature="0"
         id="path5248"
         d="m -22.342019,75.908011 c -0.21864,-1.896417 -1.639002,-5.533526 -3.730067,-8.463135 -2.31979,-3.250055 -8.120538,-4.6395 -10.524676,-4.587544 -1.072241,2.513709 -2.372868,5.80951 -10.146798,6.630961 0,0.631156 -0.06417,3.053966 -0.07197,4.001862 -1.007086,0.06729 -2.60815,0.118058 -3.694251,0.04705 -0.198372,0.686616 -0.359385,2.050886 -0.327775,2.418476 9.184798,0.18599 19.417583,0.025 28.495537,-0.0477 z"
         style="display:inline;fill:#006838;fill-opacity:1;stroke:none;stroke-width:1px;stroke-linecap:butt;stroke-linejoin:miter;stroke-opacity:1" />
      <path
         sodipodi:nodetypes="cc"
         inkscape:connector-curvature="0"
         id="path5420"
         d="m -36.380821,75.656271 6.520147,-11.490746"
         style="display:inline;fill:none;stroke:#ffffff;stroke-width:0.2;stroke-linecap:butt;stroke-linejoin:miter;stroke-miterlimit:4;stroke-dasharray:none;stroke-opacity:1" />
      <path
         sodipodi:nodetypes="cc"
         inkscape:connector-curvature="0"
         id="path5437"
         d="M -37.2644,75.721291 -37.399229,63.446514"
         style="display:inline;fill:#000000;stroke:#ffffff;stroke-width:0.2;stroke-linecap:butt;stroke-linejoin:miter;stroke-miterlimit:4;stroke-dasharray:none;stroke-opacity:1" />
      <path
         transform="matrix(-1.3208656,0.32230963,0.32230963,1.3208656,212.71465,-37.019854)"
         d="m 205.65854,46.250197 -7.41812,-7.953301 2.39221,10.609472 -2.44764,-10.596824 -3.23301,10.384179 3.17869,-10.400935 -7.99196,7.376453 7.9533,-7.418125 -10.60947,2.392212 10.59682,-2.447634 -10.38418,-3.233019 10.40094,3.178699 -7.37646,-7.991966 7.41813,7.953301 -2.39221,-10.609472 2.44763,10.596824 3.23302,-10.384179 -3.1787,10.400935 7.99197,-7.376453 -7.9533,7.418125 10.60947,-2.392213 -10.59683,2.447634 10.38418,3.233019 -10.40093,-3.178698 z"
         inkscape:randomized="0"
         inkscape:rounded="0"
         inkscape:flatsided="false"
         sodipodi:arg2="1.0846132"
         sodipodi:arg1="0.82281385"
         sodipodi:r2="0.10981865"
         sodipodi:r1="10.981865"
         sodipodi:cy="38.199802"
         sodipodi:cx="198.1891"
         sodipodi:sides="12"
         id="path5165"
         style="display:inline;opacity:1;fill:url(#linearGradient5306);fill-opacity:1;stroke:#006838;stroke-width:0.5;stroke-linecap:square;stroke-linejoin:miter;stroke-miterlimit:4;stroke-dasharray:none;stroke-dashoffset:0;stroke-opacity:1;paint-order:normal"
         sodipodi:type="star" />
      <path
         sodipodi:nodetypes="cc"
         inkscape:connector-curvature="0"
         id="path5471"
         d="m -35.521619,76.090441 11.393108,-6.84261"
         style="display:inline;fill:none;stroke:#ffffff;stroke-width:0.2;stroke-linecap:butt;stroke-linejoin:miter;stroke-miterlimit:4;stroke-dasharray:none;stroke-opacity:1" />
      <path
         sodipodi:nodetypes="ccc"
         inkscape:connector-curvature="0"
         id="path5473"
         d="m -38.0037,76.122451 -4.293111,-7.447646 v 0.06741"
         style="display:inline;fill:none;stroke:#ffffff;stroke-width:0.2;stroke-linecap:butt;stroke-linejoin:miter;stroke-miterlimit:4;stroke-dasharray:none;stroke-opacity:1" />
      <path
         inkscape:connector-curvature="0"
         id="path5475"
         d="m -39.768755,76.090441 -7.550462,-4.179724"
         style="display:inline;fill:none;stroke:#ffffff;stroke-width:0.2;stroke-linecap:butt;stroke-linejoin:miter;stroke-miterlimit:4;stroke-dasharray:none;stroke-opacity:1" />
    </g>
  </g>
  <g
     inkscape:groupmode="layer"
     id="layer2"
     inkscape:label="Symbol"
     style="display:inline" />
</svg>
