<svg height="60" width="52.157" xmlns="http://www.w3.org/2000/svg"><g stroke="#000"><path d="m119.88993 97.997198-21.701978 7.117802-10.187952 64.93133 63.77953-.00026-1.60383-10.22082-8.5849-54.70941z" fill="#fff6d5" stroke-width="1.44928" transform="matrix(.69 0 0 .69 -56.645441 -62.461913)"/><path d="m25.276962 31.708805q2.572919-.270834 3.79167-.406251 1.218751-.270833 1.895835-.541667.812501-.40625 1.489585-.135417.812501.270834 1.625002.677084.8125.270834 0 .812501-.677084.40625-1.354168 1.760418-.677084 1.218751-1.354168 2.031252-.677084.677084-.812501-.270833-1.218751 0-2.843753.135416-1.489584.135417-3.927087.270834v1.354168q1.083335 0 2.302086-.270834 1.354168-.270833 2.572919-.40625 1.218751-.135417 1.625001.40625.406251.406251-.135416.541667-.541668.135417-2.437503.406251-1.760418.135417-3.927087 0l-.135416 1.083334q4.468754-.270833 7.312506-.40625 2.843753-.270834 3.656254-.406251.8125-.270833 1.218751-.135416.40625 0 1.760418.677084 1.489585.677083.947918 1.218751-.406251.541667-.677084.947917-.135417.406251-.677084 2.166669-.406251 1.760418-1.083335 2.572919-.541667.947917-1.489584 1.489585-.812501.677084-1.218751-.270834-.406251-.947918-1.625002-1.895835-1.083334-.947918-.135417-.541667.947918.270833 1.489585.40625.677084.135417 1.218751-.270833.541667-.270834 1.083334-1.760419.541668-1.625001.541668-2.437502 0-.812501-.541668-1.083334-.541667-.406251-2.031251-.270834-1.489585.135417-4.333338.40625-2.843752.135417-5.416671.406251-.135417.677084-.406251.947917-.135417.270834-.541667-.270833-.40625-.541667-.270834-1.218751.135417-.677084.135417-2.572919 0-2.031252-.135417-3.114587-.135416-1.083334-.40625-1.625001-.270833-.677084.40625-.40625.677084.135416 2.031252.135416.947918-1.489584.812501-2.166668 0-.812501.677084-.541667.677084.270833 1.218751.677084.677084.270833.135417.541667-.541667.270833-2.031252 1.354168zm1.895835-12.052095q2.97917-.40625 4.739588-.677084 1.895835-.40625 2.843752-.270833.947918 0 1.354168.541667.406251.40625-.8125.677084-1.083335.135417-3.791671.40625-2.708335.135417-5.958338.541667-3.250003.406251-6.500006.406251 0 3.927087-.541667 8.531258-.406251 4.60417-1.625002 7.447923-1.083334 2.708336-2.437502 4.197921-1.354168 1.354167-3.250003 2.437502-1.7604184.947917.270833-.947918 2.166669-2.031252 3.250003-4.604171 1.218752-2.708335 1.760419-5.010421.541667-2.437502.677084-5.958339.270833-3.520836.135416-4.739587-.135416-1.218751-.677084-1.895835-.40625-.812501.135417-.812501.541667 0 1.083335.270833.677084.135417 1.083334.270834.541667 0 3.79167-.270834 3.38542-.270833 3.79167-.40625-1.083334-1.083334-1.625001-2.031252-.541667-.947917.135417-.947917.677083-.135417 1.760418.541667 1.218751.677084.40625 2.302085zm6.229173 2.572919q2.166668-.541667 2.843752-.677084.812501-.135416 1.218751.270834.541667.40625-.947917.812501-1.354168.40625-2.843753.541667.270834.40625 0 .947917 2.166669-.40625 2.708336-.270833.541667 0 .270834.40625-.135417.40625-2.97917.947918l-.135417.947917q2.437503-.270833 2.843753-.135417.40625.135417 0 .541668-.40625.270833-2.843753.541667l-.135416 1.218751q2.979169-.541667 3.656253-.406251.677084 0 .947917.541668.270834.40625-.8125.541667-.947918.135417-3.114586.40625-2.031252.135417-3.250003.270834-1.218752.135417-2.166669-.270834-.812501-.40625.270833-.40625 1.083335-.135417 3.250003-.541667v-.947918q-1.625001.135417-2.302085-.270833-.677084-.406251.135417-.541668.812501-.135416 2.166668-.40625v-.812501q-1.354167.135417-2.302085-.135417-.947918-.270833-.135417-.40625.812501-.135417 2.437502-.541667 0-.270834-.135416-1.083334-1.895835.270833-2.708336.135416-.812501-.270833.270833-.40625 1.083335-.270834 3.114587-.677084-.947918-.677084-1.354168-1.218751-.406251-.677084-.135417-.677084.40625-.135417 1.489585.270834 1.083334.270833.677084 1.489584zm-9.614593 11.104177q1.625002-.135417 3.520837-.270833 2.031252-.135417 2.166669.270833.135416.270834-1.083335.541667-1.083334.270834-2.437502.406251-1.354168 0-2.166669 0v1.083334q2.031252-.135417 3.114587-.270834 1.218751-.135416 3.656253-.135416.812501-2.437503.40625-3.250003-1.218751 0-2.708335.270833-1.354168.270834-4.468755.541667zm3.927087-9.750009q.541668 1.083334.406251 1.625002-.135417.40625-.135417 1.218751 0 .677084-.135417 1.625001 0 .947918-.40625 1.354168-.406251.270834-.812501-.40625-.40625-.677084-.270834-1.083335.135417-.40625.135417-1.354167.135417-.947918 0-1.760419-.812501 1.218751-2.302085 2.166669-1.354168.812501-.270834-.40625 1.083335-1.218752 1.895835-2.572919.947918-1.489585.812501-2.166669-.135417-.812501.677084-.40625.812501.270833 1.083334.677083.406251.406251 0 .812501zm-5.145838 1.354168q.677084.677084.406251 1.354168-.135417.541667-.135417 2.031252.135417 1.489585-.135417 2.437502-.135417.812501-.812501.135417-.541667-.812501-.40625-1.354168.135417-.677084.135417-1.895835.135417-1.218751 0-1.760418-1.625002 1.218751-2.437502 1.760418-.812501.40625.541667-1.083334 1.489584-1.625002 2.031252-2.572919.677083-.947918.541667-1.760419-.135417-.8125.541667-.40625.677084.270833 1.218751.677084.677084.40625.135417.677084-.406251.270833-1.625002 1.760418zm-2.708336 15.979181q.270834.541668.135417 1.354168 0 .812501-.40625 1.760419-.270834.947917-.947918 1.354167-.541667.541668-.947917-.40625-.270834-.812501.270833-1.760418.677084-.947918.947918-1.354168.270834-.541667.541667-1.083334.270834-.541668.40625.135416zm3.656254.677084q1.218751.677084 1.354168 1.760419.135417.947917-.135417 1.354168-.270834.40625-.677084.135416-.40625-.270833-.812501-.8125-.270833-.541668-.677084-1.760419-.270833-1.354168.947918-.677084zm7.58334-.947917q1.218751.270833 1.625002.812501.541667.40625.541667 1.083334.135417.541667-.270834.812501-.40625.135416-1.083334-.406251-.541667-.677084-1.218751-1.625001-.677084-1.083335.40625-.677084zm-3.927087.541667q.947918.270834 1.354168.812501.541667.40625.541667 1.083334 0 .541667-.40625.947918-.270834.40625-.947918-.406251-.541667-.947917-.947917-1.760418-.406251-.947918.40625-.677084z" stroke-width=".5"/></g></svg>