<svg height="60" width="52.157" xmlns="http://www.w3.org/2000/svg"><path d="m-11.041804 6.6665435-12.954011 4.2210195-6.853184 43.408481 39.614559-.00054-6.8545063-43.407676z" fill="#fff6d5" fill-opacity=".960784" stroke="#000" stroke-width="1.08123" transform="matrix(.92578418647 0 0 .92396253534 36.30074470404 1.97549655029)"/><path d="m30.031781 20.599579q2.125 1.125 2 1.5 0 .25-.75.75-.625.5-2.375 2.25 2.625-.5 3.375-.875.875-.5 1.25-.375.5 0 1.375.5 1 .375 1.25.75.25.375-.25.75-.5.375-1.375 2.25-.75 1.75-1.25 2.25-.5.5-.75-.625-1.625.25-4.5.875v1.5q2-.375 3.25-.625 1.375-.375 1.75 0 .375.25 0 .5-.375.125-1.75.5-1.25.25-3.25.25v2q2-.25 3.25-.5 1.375-.25 2.625-.625 1.25-.375 1.625-.5.5-.25 1-.125.625 0 1.375.5.75.375 1 .75.375.25.25.375 0 .125-.375.625-.25.5-.5 2.25-.125 1.75-.375 3-.25 1.25-.875 2.5-.625 1.25-1.625 1.875-.875.625-1.25-.375-.25-1-1.375-2.125-1.125-1.125.125-.625 1.25.375 1.75.5.625 0 1.125-1.25.5-1.375.625-3.375.25-2-.125-2.5-.25-.625-1-.625-.625 0-1.875.125-1.25.125-5.375.875-.375 1.125-.875.625-.5-.625-.375-1.25.125-.625.125-2.125 0-1.625-.125-4.125-.125-2.5-.5-3-.375-.5.25-.5h1.625q1-1.5 1.375-2.625.375-1.25.25-1.875-5.125.625-10.25.75-.25 3.875-.625 6.375-.25 2.375-.875 5-.625 2.625-1.5 4.5-.75 1.75-2 3.5-1.125 1.625-2.5 2.75-1.375 1-.375-.375 1-1.375 2.125-3.375 1.25-2.125 2-4.625.75-2.5 1.25-4.875.5-2.5.625-5.375.25-3-.25-4-.5-1.125.125-1 .625 0 1.25.375.625.25 1.875.25 1.25-.125 4-.5 2.875-.375 5.125-.75 2.375-.375 3.375-.5 1.125-.25 1.875.125.875.25.875.625 0 .25-.75.5-.75.125-2.25.375-1.375.125-2.875.25zm-7.5 8.625q.875 1.5.75 2.625-.125 1.125-.125 3.375 0 2.125-.125 4.75-.125 2.625-.5 3.5-.25.75-.625.125-.25-.5-.5-1.25-.25-.875 0-2.125.375-1.375.5-3.125.125-1.75.125-3.5.125-1.875-.125-3.25-1.375 1.625-2.75 2.625-1.25 1-.25-.375 1-1.375 2.125-3.25 1.125-1.875 1.5-3.5.5-1.625.375-2.625 0-1 .75-.625.75.375 1.375 1 .625.5.25.875-.375.375-.875 1.375-.5 1-1.875 3.375zm5.5.5q3.625-.75 4.625-1 .75-2.875.5-3.25-.125-.375-.875-.25-.75.125-4.25.75v1.625q.875-.125 1.75-.5.875-.375 1.375-.25.5 0 .625.375.125.375-1 .625-1.125.25-2.75.375zm-3.625 9.625q.5-1.375.5-1.75.125-.375.375.375.375.625.375 1.75 0 1-.125 1.375-.125.25-.375.625-.25.375-.625 0-.375-.375-.5-.625-.125-.375.375-1.75zm8.5-2.875q1 .25 1.375.625.375.375.5.875.125.375-.125.75-.25.375-.5.375-.25 0-.75-.75-.5-.75-1-1.375-.5-.75.5-.5zm-5.25 1.25q1.25.625 1.25 1.25 0 .625-.375 1.125-.25.375-.625-.125-.375-.625-.875-1.75-.5-1.25.625-.5zm2-.5q.5 0 1.25.375.75.25.875.875.125.5-.125.875-.25.375-.5.125-.25-.25-1.125-1.25-.75-1-.375-1z" fill="#f00" stroke="#f00" stroke-width=".5"/></svg>