<?xml version="1.0" encoding="UTF-8" standalone="no"?>
<svg
   xmlns:dc="http://purl.org/dc/elements/1.1/"
   xmlns:cc="http://creativecommons.org/ns#"
   xmlns:rdf="http://www.w3.org/1999/02/22-rdf-syntax-ns#"
   xmlns:svg="http://www.w3.org/2000/svg"
   xmlns="http://www.w3.org/2000/svg"
   xmlns:sodipodi="http://sodipodi.sourceforge.net/DTD/sodipodi-0.dtd"
   xmlns:inkscape="http://www.inkscape.org/namespaces/inkscape"
   width="52.157"
   height="60"
   version="1.1"
   id="svg1717"
   sodipodi:docname="0LeftQuail.svg"
   inkscape:version="1.0.1 (3bc2e813f5, 2020-09-07)"
   inkscape:export-filename="D:\Pictures\Chess Variants\Shogi\pieces\Plastic\0FU.png"
   inkscape:export-xdpi="394.90497"
   inkscape:export-ydpi="394.90497">
  <metadata
     id="metadata1723">
    <rdf:RDF>
      <cc:Work
         rdf:about="">
        <dc:format>image/svg+xml</dc:format>
        <dc:type
           rdf:resource="http://purl.org/dc/dcmitype/StillImage" />
        <dc:title></dc:title>
      </cc:Work>
    </rdf:RDF>
  </metadata>
  <defs
     id="defs1721" />
  <sodipodi:namedview
     pagecolor="#ffffff"
     bordercolor="#666666"
     borderopacity="1"
     objecttolerance="10"
     gridtolerance="10"
     guidetolerance="10"
     inkscape:pageopacity="0"
     inkscape:pageshadow="2"
     inkscape:window-width="3840"
     inkscape:window-height="2050"
     id="namedview1719"
     showgrid="false"
     inkscape:zoom="7.8666668"
     inkscape:cx="47.022586"
     inkscape:cy="86.214586"
     inkscape:window-x="-12"
     inkscape:window-y="-12"
     inkscape:window-maximized="1"
     inkscape:current-layer="svg1717"
     inkscape:document-rotation="0" />
  <!--
Created by Hari Seldon and modified by orangain, licensed under Creative Commons Attribution-Share Alike 3.0 Unported.
See: https://creativecommons.org/licenses/by-sa/3.0/deed.en

Original file is available at: https://commons.wikimedia.org/wiki/File:Shogi_gyokusho(svg).svg
-->
  <filter
     id="drop-shadow">
    <feGaussianBlur
       in="SourceAlpha"
       result="blur"
       stdDeviation="2"
       id="feGaussianBlur1692" />
    <feOffset
       result="offsetBlur"
       dx="2"
       dy="2"
       id="feOffset1694" />
    <feBlend
       in="SourceGraphic"
       in2="offsetBlur"
       mode="normal"
       id="feBlend1696" />
  </filter>
  <g
     transform="matrix(-1,0,0,1,341.33362,7.0038404)"
     style="opacity:0.99;fill:#e9c5b2;fill-opacity:0.968627"
     id="g4791">
    <g
       transform="matrix(0.69,0,0,0.69,-48.260784,-5.3298324)"
       id="g4019"
       style="fill:#e9c5b2;fill-opacity:0.968627">
      <path
         sodipodi:nodetypes="cccccc"
         d="M 526.83519,8 509.00444,13.91961 499.66929,74.141732 554,74.141479 544.66483,13.919245 Z"
         id="path5063-7-5"
         inkscape:connector-curvature="0"
         style="opacity:1;fill:#fff6d5;fill-opacity:0.960784;stroke:#000000;stroke-width:1.39425" />
    </g>
  </g>
  <g
     aria-label="鶉"
     id="text5923"
     style="font-size:29.3333px;line-height:1.25;font-family:Arial;-inkscape-font-specification:Arial;fill:#000000;stroke:#000000;stroke-width:0.5;stroke-miterlimit:4;stroke-dasharray:none">
    <path
       d="m 28.615622,28.446347 q 0.802082,-0.114583 2.406247,-0.34375 1.718748,-0.343749 2.406248,-0.687499 0.802082,-0.343749 1.489581,0 0.802083,0.34375 1.489582,0.916666 0.687499,0.572916 -0.114583,1.031249 -0.802083,0.458332 -1.604165,2.062497 -0.687499,1.489582 -1.489582,2.635414 -0.687499,1.031249 -0.916666,0 -1.374998,0.229166 -4.124995,0.572916 v 1.833331 q 1.604165,-0.458333 2.979163,-0.572916 1.374999,-0.229166 1.833332,0.114583 0.458333,0.229167 -0.572916,0.572916 -1.031249,0.34375 -4.239579,0.572916 v 1.489582 q 5.499994,-0.687499 6.41666,-1.031249 0.916665,-0.343749 1.833331,0 0.916665,0.229167 1.604165,0.687499 0.687499,0.34375 0.229166,1.031249 -0.34375,0.572916 -0.34375,2.979163 0.114584,2.291664 -0.343749,4.124996 -0.458333,1.718748 -1.604165,2.635413 -1.145832,1.031249 -1.489582,0.114584 -0.229166,-0.916666 -1.145832,-2.062498 -0.916665,-1.031249 -0.916665,-1.031249 0.114583,-0.114583 1.145832,0.34375 1.145832,0.343749 1.718748,0.114583 0.572916,-0.34375 0.802082,-1.718748 0.34375,-1.489582 0.34375,-3.093747 0,-1.718748 -0.458333,-2.406247 -0.458333,-0.802082 -1.833331,-0.687499 -1.260416,0.114583 -5.958327,0.687499 -0.343749,1.374999 -0.802082,0.687499 -0.458333,-0.687499 -0.458333,-1.374998 0.114583,-0.802082 0.114583,-1.833331 0.114583,-1.031249 0,-4.010412 -0.114583,-2.979164 -0.572916,-3.666663 -0.343749,-0.802082 0,-0.802082 0.458333,0 1.489582,0.114583 1.374998,-1.718748 2.062497,-2.979163 0.802083,-1.260415 0.6875,-2.177081 0,-0.916666 0.802082,-0.34375 0.802082,0.458333 1.260415,0.916666 0.458333,0.458333 0,0.687499 -0.343749,0.229167 -0.916665,0.802083 -0.572916,0.572916 -3.20833,3.093746 z m -7.906241,10.312488 q 0.458333,0.572916 0.802083,1.145832 2.406247,-0.916665 2.86458,-0.802082 0.572916,0.114583 -0.458333,0.572916 -1.031249,0.458333 -2.177081,1.031249 0.34375,2.635413 0.114583,4.239578 -0.229166,1.489582 -1.031249,2.406247 -0.687499,0.916666 -1.145832,0 -0.458333,-0.802082 -1.604165,-1.489581 -1.145832,-0.802083 0.114584,-0.572916 1.374998,0.229166 1.833331,-0.229167 0.572916,-0.572916 0.34375,-3.666662 -1.718749,0.687499 -3.20833,1.374998 -1.489582,0.687499 -2.062498,1.031249 -0.458333,0.229166 -0.916665,0 -0.458333,-0.229166 -1.031249,-0.802082 -0.572916,-0.572916 0.343749,-0.572916 0.916666,-0.114584 1.947915,-0.34375 1.145832,-0.34375 4.697911,-1.718748 -0.458333,-1.145832 -1.031249,-1.604165 -0.572916,-0.572916 -0.114583,-0.572916 0.572916,0 1.260415,0.229167 0.572916,-0.916666 0.802083,-1.374999 0.229166,-0.458333 -1.489582,0 -1.604165,0.458333 -2.291664,0.802083 -0.572916,0.229166 -1.489582,-0.34375 -0.802082,-0.687499 0.114584,-0.687499 0.916665,0 2.635413,-0.34375 1.833332,-0.343749 2.520831,-0.687499 0.687499,-0.34375 1.260415,0 0.687499,0.229166 1.031249,0.687499 0.458333,0.34375 -0.34375,0.687499 -0.802082,0.34375 -2.291664,1.604165 z m 2.177081,-5.843743 q 0.802082,0.802082 -0.229166,0.916665 -0.916666,0.114584 -3.895829,0.572916 -0.229167,1.260416 -0.6875,0.572916 -0.343749,-0.687499 -0.687499,-1.604164 -0.343749,-0.916666 -0.687499,-1.374999 -0.34375,-0.458333 0,-0.458333 0.458333,-0.114583 1.031249,-0.114583 0.687499,0 2.062498,-0.229166 1.489581,-0.34375 1.947914,-0.572916 0.572916,-0.34375 1.145832,-0.114583 0.572916,0.229166 1.031249,0.572916 0.458333,0.229166 0,0.687499 -0.458333,0.343749 -1.031249,1.145832 z m 5.270827,-1.604165 q 1.718748,-0.34375 2.635414,-0.34375 0.916665,0 0.802082,0.458333 -0.114583,0.458333 -3.437496,0.687499 v 1.833332 q 2.979163,-0.572916 4.239579,-0.6875 0.458332,-1.145832 0.687499,-2.291664 0.34375,-1.145832 0.458333,-1.833331 0.114583,-0.687499 -1.031249,-0.458333 -1.145832,0.114584 -4.354162,0.572916 z m -2.979163,-3.781246 q 0.458333,0.34375 -1.260415,0.802083 -1.604165,0.343749 -4.239579,0.916665 -2.52083,0.458333 -3.093746,0.6875 -0.458333,0.229166 -1.145832,0 -0.687499,-0.34375 -1.145832,-0.916666 -0.34375,-0.687499 0.458333,-0.458333 0.802082,0.114583 2.635413,-0.114583 1.833331,-0.229166 3.437496,-0.458333 1.604165,-0.343749 2.749997,-0.572916 1.145832,-0.229166 1.604165,0.114583 z m -6.531243,6.302076 q 1.718749,-0.343749 3.20833,-0.687499 0.229167,-1.145832 0.114583,-1.374998 -0.114583,-0.229167 -0.687499,-0.114583 -0.458333,0.114583 -2.86458,0.572916 z m 2.291665,-9.739572 q 1.489581,0.114584 1.947914,1.031249 0.458333,0.802083 0.229166,1.374999 -0.229166,0.458332 -0.802082,0.229166 -0.572916,-0.34375 -1.718748,-1.604165 -1.031249,-1.260415 0.34375,-1.031249 z m 4.010412,17.416647 q 0.687499,1.145832 0.572916,2.406247 -0.114584,1.260415 -0.572916,1.489582 -0.34375,0.114583 -0.6875,-0.458333 -0.343749,-0.572916 -0.229166,-1.374998 0.229166,-0.916666 0.229166,-2.062498 0.114584,-1.145832 0.6875,0 z M 32.511451,40.363 q 1.260415,0.572916 1.489582,1.374998 0.229166,0.6875 0,1.374999 -0.114584,0.572916 -0.802083,-0.114583 -0.572916,-0.6875 -1.260415,-1.947915 -0.687499,-1.374998 0.572916,-0.687499 z m -5.156244,1.031249 q 0.572916,0.343749 0.916665,1.145832 0.34375,0.802082 0,1.604165 -0.343749,0.687499 -0.802082,-0.114584 -0.458333,-0.802082 -0.572916,-1.947914 -0.114583,-1.145832 0.458333,-0.687499 z m 2.86458,0 q 0.916665,0.572916 1.031249,1.374998 0.229166,0.687499 -0.114584,1.145832 -0.343749,0.34375 -0.802082,-0.343749 -0.34375,-0.6875 -0.687499,-1.718748 -0.34375,-1.145832 0.572916,-0.458333 z"
       style="font-style:normal;font-variant:normal;font-weight:normal;font-stretch:normal;font-size:29.3333px;font-family:Kaiti;-inkscape-font-specification:Kaiti;fill:#000000;stroke:#000000;stroke-width:0.5;stroke-miterlimit:4;stroke-dasharray:none"
       id="path5929" />
  </g>
  <g
     aria-label="左"
     id="text5927"
     style="font-size:13.3333px;line-height:1.25;font-family:Arial;-inkscape-font-specification:Arial;stroke:#ff0000;stroke-width:0.3;stroke-miterlimit:4;stroke-dasharray:none">
    <path
       d="m 25.607327,13.272441 q 0.937498,-0.15625 1.61458,-0.260416 0.677081,-0.15625 1.093747,-0.260416 0.468749,-0.15625 0.937498,0.05208 0.468748,0.208333 0.312499,0.364583 -0.104167,0.104166 -0.572915,0.208332 -0.468749,0.104167 -1.354164,0.260416 -0.885414,0.104167 -2.343744,0.364583 -0.624998,1.510413 -1.510413,2.812493 -0.885414,1.30208 -1.718745,2.135411 -0.781248,0.781248 -1.770829,1.249997 -0.989581,0.416665 -0.15625,-0.260416 0.885415,-0.677082 1.406247,-1.30208 0.520832,-0.677082 1.093747,-1.406247 0.572915,-0.729165 1.041664,-1.562496 0.468749,-0.885414 0.781248,-1.562496 -0.624998,0.15625 -0.989581,0.15625 -0.312499,0 -0.677081,-0.312499 -0.3125,-0.3125 0.156249,-0.3125 0.520832,-0.05208 1.718746,-0.208332 0.572915,-1.30208 0.729165,-2.031245 0.156249,-0.781248 0,-1.041664 -0.104167,-0.3125 0.156249,-0.260416 0.260416,0 0.729165,0.208332 0.520832,0.15625 0.208333,0.624999 -0.312499,0.416666 -0.885415,2.343744 z m 0.833332,3.697907 q 0.624998,0.416666 0.468749,0.937498 -0.104167,0.468749 -0.104167,1.718746 1.406247,-0.104167 2.343744,-0.208333 0.989581,-0.15625 1.510413,0.416665 0.520832,0.520832 0,0.520832 -0.520832,0 -1.30208,-0.104166 -0.729165,-0.104166 -1.562496,-0.05208 -0.781248,0.05208 -1.666663,0.104166 -0.833331,0.05208 -1.874995,0.260416 -1.041664,0.15625 -1.458329,0.15625 -0.416666,-0.05208 -0.781248,-0.312499 -0.3125,-0.260416 -0.208333,-0.3125 0.156249,-0.05208 0.624998,-0.05208 0.520832,0 1.406247,-0.05208 0.885414,-0.104166 2.239577,-0.312499 0,-1.874995 -0.104166,-2.187495 -0.05208,-0.312499 -0.15625,-0.468748 -0.572915,0.104166 -0.937497,0.156249 -0.3125,0 -0.677082,-0.208333 -0.364582,-0.260416 0.260416,-0.364582 0.624998,-0.104167 1.770829,-0.260416 1.14583,-0.208333 1.614579,-0.364583 0.468749,-0.156249 0.937498,0.15625 0.520832,0.312499 -0.364583,0.520832 -0.885414,0.15625 -1.979161,0.312499 z"
       style="font-style:normal;font-variant:normal;font-weight:normal;font-stretch:normal;font-size:13.3333px;font-family:Kaiti;-inkscape-font-specification:Kaiti;fill:#ff0000;stroke:#ff0000;stroke-width:0.3;stroke-miterlimit:4;stroke-dasharray:none"
       id="path5932" />
  </g>
</svg>
