<svg height="60" width="52.157" xmlns="http://www.w3.org/2000/svg"><g stroke="#000"><path d="m-11.427438 7.4389654-12.666039 4.1004346-6.755522 42.756284 38.8413037-.00018-6.7472602-42.703992z" fill="#fff6d5" opacity=".99" stroke-width=".980545" transform="matrix(1.04909020991 0 0 .99140659452 38.06787231676 -.58925563971)"/><path d="m32.843083 35.163139c-1.416667.166667-2.416667.166667-3 0-.583333-.25-.625-.416667-.125-.5.583333-.08333 1.625-.333333 3.125-.75v-2.375c-.583333.08333-1.166667.125-1.75.125-.5 0-.916667-.08333-1.25-.25-.25-.166667-.166667-.291667.25-.375.416667-.08333 1.333333-.375 2.75-.875 0-.75-.04167-1.541667-.125-2.375-.75.08333-1.416667.125-2 .125s-1.083333-.08333-1.5-.25c-.333333-.25-.04167-.458333.875-.625.916667-.25 2-.583333 3.25-1s2.208333-.75 2.875-1 1.375-.25 2.125 0 .666667.541667-.25.875c-.833333.333333-2.083333.791667-3.75 1.375.166667.25.208333 1 .125 2.25l1.5-.375c.416667-.08333.75-.04167 1 .125.25.08333.208333.291667-.125.625-.333333.25-1.166667.625-2.5 1.125v2.375c.666667-.166667 1.208333-.291667 1.625-.375.5-.166667 1-.125 1.5.125.583333.166667.333333.5-.75 1-1 .416667-1.791667.666667-2.375.75l-.25 2.75c1.666667-.5 3.041667-.75 4.125-.75s1.833333.333333 2.25 1c.5.583333.125.833333-1.125.75-1.25-.166667-2.791667-.125-4.625.125-1.833333.166667-3.25.416667-4.25.75-1 .25-1.75.291667-2.25.125 0 2.5-.166667 4.083333-.5 4.75-.333333.75-.75.541667-1.25-.625-.416667-1.166667-.5-2.083333-.25-2.75.333333-.75.541667-2.541667.625-5.375.166667-2.833333.208333-5 .125-6.5-.08333-1.5-.333333-2.458333-.75-2.875-.916667.916667-1.625 1.458333-2.125 1.625-.5.08333-.458333-.166667.125-.75s1.333333-1.583333 2.25-3c.916667-1.5 1.416667-2.5 1.5-3 .08333-.583333.08333-1.083333 0-1.5s.125-.541667.625-.375 1 .458333 1.5.875c.5.333333.5.708333 0 1.125-.416667.416667-1.583333 1.958333-3.5 4.625.5.166667.875.458333 1.125.875.333333.333333.5.916667.5 1.75v10.25l2-.25c.666667-.166667 1.541667-.375 2.625-.625zm-16-7.75c2-.583333 3.458333-1.083333 4.375-1.5 1-.416667 1.708333-.458333 2.125-.125.5.333333.291667.708333-.625 1.125-.833333.333333-1.75.625-2.75.875.333333.416667.458333.75.375 1-.08333.166667-.166667.833333-.25 2 .833333-.333333 1.666667-.625 2.5-.875.833333-.333333 1.541667-.291667 2.125.125.666667.416667.333333.75-1 1s-2.541667.541667-3.625.875c-.08333.583333-.166667 1.208333-.25 1.875 1.666667.5 2.791667 1.083333 3.375 1.75.666667.583333.875 1.291667.625 2.125-.166667.75-.708333.583333-1.625-.5-.916667-1.166667-1.75-2.083333-2.5-2.75-.166667.833333-.625 1.875-1.375 3.125s-1.708333 2.208333-2.875 2.875-1.583333.875-1.25.625c.333333-.333333.833333-.916667 1.5-1.75.75-.916667 1.375-1.958333 1.875-3.125.583333-1.25.916667-2.5 1-3.75-2.5.75-3.854873 1.291667-4.604873 1.625-.666667.25-1.208333.25-1.625 0-.333333-.333333-.708333-.666667-1.125-1-.333333-.333333-.125-.458333.625-.375.75 0 2.813206-.5 6.729873-1.5.08333-1 .04167-2-.125-3-.75 0-1.458333-.08333-2.125-.25-.666667.5-1.25.833333-1.75 1-.416667.166667-.25-.208333.5-1.125s1.5-2.166667 2.25-3.75c.833333-1.666667 1.166667-2.833333 1-3.5-.08333-.666667.166667-.916667.75-.75s1.125.416667 1.625.75c.583333.333333.625.708333.125 1.125s-1.083333 1.208333-1.75 2.375-1.416667 2.291667-2.25 3.375zm16.25-3.375c-1.25-1.083333-1.791667-1.708333-1.625-1.875s.833333-.125 2 .125 1.708333.875 1.625 1.875c0 1-.666667.958333-2-.125z" stroke-width=".5" transform="translate(.392086 1.080508)"/></g></svg>