<svg height="60" width="52.157" xmlns="http://www.w3.org/2000/svg"><path d="m526.83519 8-17.83075 5.91961-9.33515 60.222122 54.33071-.000253-9.33517-60.222234z" fill="#fff6d5" fill-opacity=".960784" opacity=".99" stroke="#000" stroke-width="1.39425" transform="matrix(-.69 0 0 .69 389.594404 1.674008)"/><path d="m28.615622 28.446347q.802082-.114583 2.406247-.34375 1.718748-.343749 2.406248-.687499.802082-.343749 1.489581 0 .802083.34375 1.489582.916666.687499.572916-.114583 1.031249-.802083.458332-1.604165 2.062497-.687499 1.489582-1.489582 2.635414-.687499 1.031249-.916666 0-1.374998.229166-4.124995.572916v1.833331q1.604165-.458333 2.979163-.572916 1.374999-.229166 1.833332.114583.458333.229167-.572916.572916-1.031249.34375-4.239579.572916v1.489582q5.499994-.687499 6.41666-1.031249.916665-.343749 1.833331 0 .916665.229167 1.604165.687499.687499.34375.229166 1.031249-.34375.572916-.34375 2.979163.114584 2.291664-.343749 4.124996-.458333 1.718748-1.604165 2.635413-1.145832 1.031249-1.489582.114584-.229166-.916666-1.145832-2.062498-.916665-1.031249-.916665-1.031249.114583-.114583 1.145832.34375 1.145832.343749 1.718748.114583.572916-.34375.802082-1.718748.34375-1.489582.34375-3.093747 0-1.718748-.458333-2.406247-.458333-.802082-1.833331-.687499-1.260416.114583-5.958327.687499-.343749 1.374999-.802082.687499-.458333-.687499-.458333-1.374998.114583-.802082.114583-1.833331.114583-1.031249 0-4.010412-.114583-2.979164-.572916-3.666663-.343749-.802082 0-.802082.458333 0 1.489582.114583 1.374998-1.718748 2.062497-2.979163.802083-1.260415.6875-2.177081 0-.916666.802082-.34375.802082.458333 1.260415.916666.458333.458333 0 .687499-.343749.229167-.916665.802083-.572916.572916-3.20833 3.093746zm-7.906241 10.312488q.458333.572916.802083 1.145832 2.406247-.916665 2.86458-.802082.572916.114583-.458333.572916-1.031249.458333-2.177081 1.031249.34375 2.635413.114583 4.239578-.229166 1.489582-1.031249 2.406247-.687499.916666-1.145832 0-.458333-.802082-1.604165-1.489581-1.145832-.802083.114584-.572916 1.374998.229166 1.833331-.229167.572916-.572916.34375-3.666662-1.718749.687499-3.20833 1.374998-1.489582.687499-2.062498 1.031249-.458333.229166-.916665 0-.458333-.229166-1.031249-.802082-.572916-.572916.343749-.572916.916666-.114584 1.947915-.34375 1.145832-.34375 4.697911-1.718748-.458333-1.145832-1.031249-1.604165-.572916-.572916-.114583-.572916.572916 0 1.260415.229167.572916-.916666.802083-1.374999.229166-.458333-1.489582 0-1.604165.458333-2.291664.802083-.572916.229166-1.489582-.34375-.802082-.687499.114584-.687499.916665 0 2.635413-.34375 1.833332-.343749 2.520831-.687499.687499-.34375 1.260415 0 .687499.229166 1.031249.687499.458333.34375-.34375.687499-.802082.34375-2.291664 1.604165zm2.177081-5.843743q.802082.802082-.229166.916665-.916666.114584-3.895829.572916-.229167 1.260416-.6875.572916-.343749-.687499-.687499-1.604164-.343749-.916666-.687499-1.374999-.34375-.458333 0-.458333.458333-.114583 1.031249-.114583.687499 0 2.062498-.229166 1.489581-.34375 1.947914-.572916.572916-.34375 1.145832-.114583.572916.229166 1.031249.572916.458333.229166 0 .687499-.458333.343749-1.031249 1.145832zm5.270827-1.604165q1.718748-.34375 2.635414-.34375.916665 0 .802082.458333-.114583.458333-3.437496.687499v1.833332q2.979163-.572916 4.239579-.6875.458332-1.145832.687499-2.291664.34375-1.145832.458333-1.833331.114583-.687499-1.031249-.458333-1.145832.114584-4.354162.572916zm-2.979163-3.781246q.458333.34375-1.260415.802083-1.604165.343749-4.239579.916665-2.52083.458333-3.093746.6875-.458333.229166-1.145832 0-.687499-.34375-1.145832-.916666-.34375-.687499.458333-.458333.802082.114583 2.635413-.114583 1.833331-.229166 3.437496-.458333 1.604165-.343749 2.749997-.572916 1.145832-.229166 1.604165.114583zm-6.531243 6.302076q1.718749-.343749 3.20833-.687499.229167-1.145832.114583-1.374998-.114583-.229167-.687499-.114583-.458333.114583-2.86458.572916zm2.291665-9.739572q1.489581.114584 1.947914 1.031249.458333.802083.229166 1.374999-.229166.458332-.802082.229166-.572916-.34375-1.718748-1.604165-1.031249-1.260415.34375-1.031249zm4.010412 17.416647q.687499 1.145832.572916 2.406247-.114584 1.260415-.572916 1.489582-.34375.114583-.6875-.458333-.343749-.572916-.229166-1.374998.229166-.916666.229166-2.062498.114584-1.145832.6875 0zm7.562491-1.145832q1.260415.572916 1.489582 1.374998.229166.6875 0 1.374999-.114584.572916-.802083-.114583-.572916-.6875-1.260415-1.947915-.687499-1.374998.572916-.687499zm-5.156244 1.031249q.572916.343749.916665 1.145832.34375.802082 0 1.604165-.343749.687499-.802082-.114584-.458333-.802082-.572916-1.947914-.114583-1.145832.458333-.687499zm2.86458 0q.916665.572916 1.031249 1.374998.229166.687499-.114584 1.145832-.343749.34375-.802082-.343749-.34375-.6875-.687499-1.718748-.34375-1.145832.572916-.458333z" stroke="#000" stroke-width=".5"/><path d="m25.867743 13.480774q1.562497-.15625 2.239578-.208333.729165-.104166 1.45833-.208333.781248-.156249 1.30208.312499.572915.416666-.520832.416666-1.041664 0-1.874995.05208-.833332.05208-2.812493.208333-.572916 1.406246-1.562496 2.916659.156249.260416.677081.208333.520832-.104166 1.45833-.260416.937498-.15625 1.354163-.312499.416666-.208333.781248-.05208.416666.156249.885415.520832.520832.364582.05208.729165-.416666.312499-.989581 1.874995.520832.416665.312499.572915-.208333.104166-.677081.104166-.416666 0-3.437492.208333-.312499.885415-.468749.260416-.156249-.572915-.260416-1.458329-.05208-.937498-.312499-1.61458-.364582.572916-1.14583 1.30208-.781248.729165-1.666663 1.145831-.833331.416665.05208-.364583.937497-.781248 2.083328-2.29166 1.197913-1.510413 1.979161-3.333325-3.020825.364582-3.437491.468748-.416666.05208-.937498-.364582-.468749-.416666.05208-.364582.520833 0 1.562497-.05208 1.093747-.104166 3.020825-.312499.729165-1.822912.520832-2.395827-.208333-.572915.260416-.416666.468749.15625.781248.468749.364583.260416.104167.520832-.208333.260416-.833332 1.718746zm-1.354163 6.614566q1.614579-.156249 3.124992-.364582.208333-.989581.260416-1.718746.05208-.729164-.520832-.729164-.520832 0-3.020825.312499.05208 1.249997.156249 2.499993z" fill="#f00" stroke="#f00" stroke-width=".3"/></svg>