<svg height="60" width="52.157" xmlns="http://www.w3.org/2000/svg"><g stroke="#000"><path d="m-11.041804 6.6665435-12.954011 4.2210195-6.853184 43.408481 39.614559-.00054-6.8545063-43.407676z" fill="#fff6d5" fill-opacity=".960784" stroke-width="1.08123" transform="matrix(.92578418647 0 0 .92396253534 36.30074470404 1.97549655029)"/><path d="m23.156781 24.099579q2-.25 4.25-.5.75-4 .25-4.875-.5-.875.375-.625 1 .25 1.875.75.875.375.25 1.125-.5.75-1.25 3.5 2.5-.375 4-.625 1.625-.375 2.625.5 1 .75-.875.875-1.75 0-6 .5-.5 1.375-1 2.875 1.25 1.5-.125 1.5-1.375-.125-3.875.125 0 .375-.375.75-.375.375-.625-.625-.25-1-.75-3.875-3.625.375-4.5.625-.75.125-1.875-.625-1-.75.5-.625 1.625 0 5.75-.625-.375-3-1.125-3.625-.625-.75.375-.75 1 0 1.625.25.75.25.625 1-.125.75-.125 3zm8.25 7.25q3.125-1.75 3.125-2.25 0-.625.75-.25.75.375 1.125 1.125.5.75-.625.875-1 0-4.375 1.25 0 1.125 0 1.875.125.625.625 1 .625.25 1.875.25 1.375-.125 1.625-1 .25-.875.5-1.875.25-1.125.375.625.125 1.625.75 2.125.625.5-.25 1.125-.875.5-2.875.625-2 0-3.125-.625-1-.75-.875-3.125.125-2.375.125-3.375 0-1.125-.5-2-.5-1 .5-.75 1 .25 1.5.625.625.25.25.875-.25.5-.5 2.875zm-4.125 4q.875 1.125-.125 1.125-1-.125-4 .125-.5 1.5-.875-1-.375-2.625-.875-3.375-.375-.75.375-.5.875.125 2.125 0 1.375-.25 2-.625.75-.5 1.5-.125.875.375 1.375.75.5.375-.125 1-.5.625-1.375 2.625zm-9 .5q-2.625 2.125-3 2.625-.375.375-1.5-.375-1.125-.875.125-1 1.25-.25 4.375-2v-2.25q-1.625.5-2.5.875-.75.25-1.625-.375-.875-.75.25-.75 1.25-.125 3.75-.75 0-1.75-.5-2.625-.5-1 .375-.75.875.25 1.5.625.625.375.375.875-.125.5-.25 1.625 0 1 0 2.625.125 1.5-.25 2.625-.25 1-.625.75-.375-.25-.5-1.75zm17.75 4.125q2 1 2.375 2.5.5 1.375-.25 2-.625.625-2.5-1.5-1.75-2.25-2.25-2.75-.5-.5-.875-1.125-.25-.625.625-.375.875.25 2.875 1.25zm-21.125 1.375q.5-.625 1-1.75.5-1.125.75.75.375 1.75-1.125 3.875-1.5 2.125-2 .875-.5-1.125.25-2.125.75-1 1.125-1.625zm8.625-13.125q1.375-.125 2.875-.25.375-1.875.75-3.125-1.75.125-3.875.375 0 1.625.25 3zm-.25 7.5q1.875-.125 2.875-.375.625-3-.125-3-.625-.125-2.875.25 0 1.625.125 3.125zm3.375 4.25q-.375-.75-.375-1 0-.375 1 0 1 .25 1.625.875.75.625.875 1.5.125.875-.375 1.5-.5.625-1.5-.75-.875-1.5-1.25-2.125zm-5.75.625q-.75-1.375-.375-1.5.375-.125 1.75.75 1.5.75 1.5 1.875.125 1.125-.375 1.625-.5.5-1.125-.5-.5-1-1.375-2.25z" stroke-width=".5" transform="translate(.381356)"/></g></svg>