<?xml version="1.0" encoding="UTF-8" standalone="no"?>
<svg
   viewBox="0 0 60 60"
   version="1.1"
   id="svg2"
   sodipodi:docname="0GI.svg"
   inkscape:version="1.3 (0e150ed6c4, 2023-07-21)"
   xmlns:inkscape="http://www.inkscape.org/namespaces/inkscape"
   xmlns:sodipodi="http://sodipodi.sourceforge.net/DTD/sodipodi-0.dtd"
   xmlns="http://www.w3.org/2000/svg"
   xmlns:svg="http://www.w3.org/2000/svg">
  <sodipodi:namedview
     id="namedview2"
     pagecolor="#ffffff"
     bordercolor="#666666"
     borderopacity="1.0"
     inkscape:showpageshadow="2"
     inkscape:pageopacity="0.0"
     inkscape:pagecheckerboard="0"
     inkscape:deskcolor="#d1d1d1"
     inkscape:zoom="45.254834"
     inkscape:cx="23.069359"
     inkscape:cy="38.935067"
     inkscape:window-width="3840"
     inkscape:window-height="2054"
     inkscape:window-x="-11"
     inkscape:window-y="-11"
     inkscape:window-maximized="1"
     inkscape:current-layer="g1" />
  <defs
     id="defs1">
    <filter
       id="0GI_svg__a"
       x="-0.13505098"
       y="-0.1100257"
       width="1.3201126"
       height="1.2620609">
      <feGaussianBlur
         in="SourceAlpha"
         result="blur"
         stdDeviation="2"
         id="feGaussianBlur1" />
      <feOffset
         dx="2"
         dy="2"
         result="offsetBlur"
         id="feOffset1" />
      <feBlend
         in="SourceGraphic"
         in2="offsetBlur"
         id="feBlend1" />
    </filter>
  </defs>
  <g
     fill="#dcdcdc"
     filter="url(#0GI_svg__a)"
     transform="translate(40.742 .122)scale(.98716)"
     id="g1">
    <path
       fill="#cdbc68"
       d="m -23.79792,11.374793 -7.051077,44.449995 H 9.0854401 L 2.2953658,11.661792 C -2.1226825,10.364793 -6.5437309,9.0617928 -10.959779,7.7667929 Z"
       id="path1"
       style="fill:#dfc585;fill-opacity:1;stroke:#333333;stroke-width:1.01301;stroke-dasharray:none"
       sodipodi:nodetypes="cccccc" />
  </g>
  <path
     d="m 30.008219,14.18115 -0.303003,0.422 c -0.88101,1.231999 -1.74602,2.731999 -3.104034,3.323999 l -0.568007,0.246 0.482006,0.393 c 0.91301,0.738 1.493016,2.047 1.81002,3.75 0.073,0.388 0.128001,0.8 0.175001,1.224 -1.322014,0.534 -2.515027,1.367999 -3.635039,2.376999 0.389004,0.246 0.95101,0.583 1.687018,0.977 1.200013,0.642 2.681029,0.86 3.458038,0.861 0.790009,0.001 2.273025,-0.218 3.472038,-0.861 0.747008,-0.4 1.279014,-0.735 1.664018,-0.98 -1.117012,-1.007 -2.308025,-1.839999 -3.62704,-2.373999 0.047,-0.423 0.100002,-0.836 0.172002,-1.224 0.318004,-1.703 0.89601,-3.012 1.80902,-3.75 l 0.484005,-0.393 -0.568006,-0.246 c -1.358015,-0.592 -2.225024,-2.092 -3.106034,-3.323999 z m -10.02611,2.210999 -0.620007,0.023 c -0.082,4.185 0.190003,8.092 1.702019,10.960999 a 8.0000875,7.9999991 0 0 0 2.120023,2.58 c 0.390005,0.142 1.180013,0.421 2.333026,0.764 1.506016,0.447 3.341036,0.885 4.480049,0.885 1.144012,0 2.984032,-0.437 4.495049,-0.885 a 42.00046,41.999995 0 0 0 2.309025,-0.752 8.0000875,7.9999991 0 0 0 2.132024,-2.592 c 1.512016,-2.868999 1.784019,-6.775999 1.703018,-10.959999 l -0.620007,-0.024 c -0.320003,4.498 -1.059011,7.262 -2.560028,8.966999 -0.368004,0.419 -0.806008,0.762 -1.284014,1.068 l 0.006,0.01 c 0,0 -0.97601,0.67 -2.225024,1.34 -1.249014,0.67 -2.71903,0.982 -3.943043,0.98 -1.215013,-0.001 -2.680029,-0.313 -3.930043,-0.982 -1.250014,-0.67 -2.258025,-1.336 -2.258025,-1.336 l 0.008,-0.012 c -0.480005,-0.306 -0.92001,-0.649 -1.290014,-1.068 -1.500016,-1.704999 -2.240024,-4.467999 -2.558028,-8.966999 m 2.850031,14.539999 c -2.324025,4.952999 -6.47707,10.708999 -8.360091,13.314998 l -0.195002,0.268 0.170002,0.291 c 0.872009,1.49 2.601028,3.546 4.418048,3.986 l 0.289003,0.07 0.135002,-0.31 c 0.339003,-0.778 1.224013,-4.756 2.197024,-7.469999 q 0.005,0 0.008,0.004 l 3.010033,-9.593999 c -0.932011,-0.296 -1.417016,-0.47 -1.672019,-0.56 m 14.340157,0.005 c -0.263003,0.092 -0.735008,0.26 -1.659018,0.553 l 3.060034,9.755999 c 0.94801,2.640999 1.804019,6.544999 2.136023,7.305999 l 0.136001,0.31 0.290004,-0.07 c 1.81602,-0.44 3.543038,-2.496 4.416048,-3.986 l 0.171002,-0.29 -0.195002,-0.268 C 43.645368,41.642147 39.495323,35.888147 37.172297,30.938148 Z m -2.614028,0.85 c -1.500017,0.436 -3.235036,0.863 -4.56005,0.863 -1.320015,0 -3.046034,-0.426 -4.54005,-0.861 l -0.609007,1.942999 c 0.342004,0.122 0.90101,0.318 1.711019,0.558 1.156013,0.344 2.565028,0.68 3.440038,0.68 0.877009,0 2.291025,-0.336 3.450038,-0.68 a 31.000339,30.999997 0 0 0 1.718018,-0.558 z m -9.949109,2.709999 -2.190024,6.983 c 2.074023,0.887 5.395059,2.159999 7.580083,2.163999 2.177024,0.003 5.48706,-1.239999 7.608083,-2.134999 l -2.200024,-7.011 c -0.362004,0.129 -0.92301,0.324 -1.728019,0.562 -1.188013,0.352 -2.610028,0.711 -3.68004,0.711 -1.065012,0 -2.482027,-0.361 -3.66704,-0.713 -0.800009,-0.237 -1.360015,-0.431 -1.723019,-0.56 z"
     enable-background="accumulate"
     overflow="visible"
     id="path2"
     style="stroke-width:1.00001" />
</svg>
