<?xml version="1.0" encoding="UTF-8" standalone="no"?>
<svg
   viewBox="0 0 60 60"
   version="1.1"
   id="svg9"
   sodipodi:docname="0KA.svg"
   inkscape:version="1.3 (0e150ed6c4, 2023-07-21)"
   xmlns:inkscape="http://www.inkscape.org/namespaces/inkscape"
   xmlns:sodipodi="http://sodipodi.sourceforge.net/DTD/sodipodi-0.dtd"
   xmlns="http://www.w3.org/2000/svg"
   xmlns:svg="http://www.w3.org/2000/svg">
  <sodipodi:namedview
     id="namedview9"
     pagecolor="#ffffff"
     bordercolor="#666666"
     borderopacity="1.0"
     inkscape:showpageshadow="2"
     inkscape:pageopacity="0.0"
     inkscape:pagecheckerboard="0"
     inkscape:deskcolor="#d1d1d1"
     inkscape:zoom="5.3799041"
     inkscape:cx="-12.082"
     inkscape:cy="-20.632338"
     inkscape:window-width="3840"
     inkscape:window-height="2054"
     inkscape:window-x="-11"
     inkscape:window-y="-11"
     inkscape:window-maximized="1"
     inkscape:current-layer="svg9" />
  <defs
     id="defs1">
    <filter
       id="0KA_svg__a"
       x="-0.12019833"
       y="-0.099879312"
       width="1.2904793"
       height="1.241375">
      <feGaussianBlur
         in="SourceAlpha"
         result="blur"
         stdDeviation="2"
         id="feGaussianBlur1" />
      <feOffset
         dx="2"
         dy="2"
         result="offsetBlur"
         id="feOffset1" />
      <feBlend
         in="SourceGraphic"
         in2="offsetBlur"
         id="feBlend1" />
    </filter>
  </defs>
  <g
     fill="#fdc9dd"
     filter="url(#0KA_svg__a)"
     transform="translate(41.426 -1.78)scale(1.05)"
     id="g1">
    <path
       fill="#cdbc68"
       d="m-10.96 6.237-12.838 3.608-7.051 44.45H9.085l-6.79-44.163z"
       id="path1"
       style="stroke:#333333;stroke-width:0.95238095;stroke-dasharray:none;fill:#dfc585;fill-opacity:1" />
  </g>
  <path
     id="path6789"
     style="color:#000000;font-style:normal;font-variant:normal;font-weight:normal;font-stretch:normal;font-size:medium;line-height:normal;font-family:sans-serif;font-variant-ligatures:normal;font-variant-position:normal;font-variant-caps:normal;font-variant-numeric:normal;font-variant-alternates:normal;font-variant-east-asian:normal;font-feature-settings:normal;font-variation-settings:normal;text-indent:0;text-align:start;text-decoration:none;text-decoration-line:none;text-decoration-style:solid;text-decoration-color:#000000;letter-spacing:normal;word-spacing:normal;text-transform:none;writing-mode:lr-tb;direction:ltr;text-orientation:mixed;dominant-baseline:auto;baseline-shift:baseline;text-anchor:start;white-space:normal;shape-padding:0;shape-margin:0;inline-size:0;clip-rule:nonzero;display:inline;overflow:visible;visibility:visible;opacity:0.99;isolation:auto;mix-blend-mode:normal;color-interpolation:sRGB;color-interpolation-filters:linearRGB;solid-color:#000000;solid-opacity:1;fill:#000000;fill-opacity:1;fill-rule:nonzero;stroke:none;stroke-width:2.45244;stroke-linecap:butt;stroke-linejoin:miter;stroke-miterlimit:4;stroke-dasharray:none;stroke-dashoffset:0;stroke-opacity:1;color-rendering:auto;image-rendering:auto;shape-rendering:auto;text-rendering:auto;enable-background:accumulate;stop-color:#000000"
     d="m 38.05435,15.412383 c -0.304014,-0.01206 -0.628995,0.01426 -0.974943,0.07894 v 0.06898 h -0.06574 c -2.560011,0.723345 -4.483689,2.931119 -5.268885,5.831837 0,0 -0.03287,0.09309 -0.03287,0.136282 -0.230632,1.161545 -0.45078,2.731937 -0.639479,4.293943 -0.87011,-1.524266 -1.889083,-3.071595 -2.378651,-3.76349 l -0.07666,-0.157249 -0.157249,-0.07664 c -0.68141,-0.450774 -1.510635,-0.649956 -2.382842,-0.691889 h -0.07666 -0.07666 c -2.295834,0.241115 -4.431274,0.387881 -6.611791,0.691895 l -0.618513,0.07664 -0.157248,0.534646 C 15.030591,33.802957 15.38807,43.070367 14.307245,49.116272 l -0.157248,0.849144 0.765277,0.230632 c 1.857634,0.524163 3.864129,-0.408848 5.612736,-1.768526 1.748608,-1.361775 3.254004,-3.308517 3.690107,-5.382105 h 0.07666 v -0.07883 c 0.01092,-0.188699 0.03287,-0.356431 0.04379,-0.54513 7.775433,2.36083 14.332504,1.840861 20.840506,-0.461263 0.0656,-0.02527 0.157251,0.02516 0.220151,0 l 0.450779,-0.146766 v -0.178215 c -0.0657,-0.0175 -0.13628,-0.03281 -0.188699,-0.04706 -0.167731,-0.03722 -0.304011,-0.07559 -0.304011,-0.07883 -6.546795,-1.612325 -12.972094,-1.896422 -20.375163,0.461263 -0.136283,0.04057 -0.241114,0.06249 -0.335465,0.07118 -0.09861,0.01027 -0.188698,0.0097 -0.26208,0.0072 0.03287,-0.429813 0.07677,-0.859627 0.115316,-1.288392 0.05471,-0.0064 0.199182,-0.02516 0.188698,-0.02295 7.634958,-2.433165 14.295081,-2.112377 20.990215,-0.461264 0.0219,0.0062 0.0657,0.01646 0.0877,0.02306 -0.0768,-0.670929 -0.19918,-1.287345 -0.39836,-1.873359 -0.0547,0.0014 -0.10484,0.0093 -0.157251,0.0048 -0.188699,-0.01866 -0.33547,-0.08984 -0.534649,-0.157249 -4.90302,-1.579827 -9.108903,-3.21207 -19.52936,-0.849144 -0.04368,0.0107 -0.157249,0.04707 -0.324981,0.07118 0.04379,-0.440297 0.104832,-0.880593 0.157248,-1.313552 10.320769,-2.332525 14.999021,-0.712862 19.731903,0.817694 -0.20966,-0.345947 -0.42981,-0.702378 -0.71286,-1.078727 -0.628995,-0.775761 -1.197187,-1.281054 -1.934159,-1.785299 -0.733828,-0.503197 -1.199285,-1.016876 -2.875558,-2.007544 l -0.146766,-0.07559 -0.146765,-0.07548 c -1.18356,-0.01646 -2.916443,-0.199182 -4.542396,-0.272565 -0.241115,-0.002 -0.492713,8.39e-4 -0.744312,0 -0.283048,-0.0012 -0.566096,-0.0056 -0.859627,-8.39e-4 -0.178215,0.0028 -0.366914,0.01081 -0.555613,0.01751 -0.587062,0.01206 -1.185656,0.02851 -1.804168,0.05588 -0.272565,0.08428 -0.54513,0.167732 -0.859628,0.251598 -0.681411,0.199182 -1.254846,0.440297 -1.82828,0.649962 -1.080824,-2.404859 -1.62805,-3.95743 -3.082078,-6.396884 l -0.01092,-0.02516 -7.32e-4,0.0039 c -0.07666,-0.136282 -0.146765,-0.251598 -0.230631,-0.38788 l -0.07677,-0.07664 v -0.07664 c -0.744312,-0.912044 -1.565151,-1.683612 -2.399618,-2.406956 1.311455,-0.1258 2.663796,-0.220149 4.090567,-0.356431 0.566096,0.02956 0.901561,0.125799 1.229686,0.304014 0.48223,0.691895 1.551523,2.350347 2.371314,3.784457 l -1.294684,0.06028 0.07666,2.460421 2.259141,-0.104832 c -0.06574,0.608029 -0.06574,0.691895 -0.115316,1.088162 0.209666,-0.02632 0.429814,-0.04497 0.639479,-0.06353 8.41e-4,-1.05e-4 0.0011,1.05e-4 0.0022,0 0.324981,-0.02956 0.649962,-0.05483 0.96446,-0.07118 0.314498,-0.0175 0.618512,-0.02851 0.93301,-0.03177 1.68466,-0.02851 3.486732,0.104832 5.984892,0.38788 l 0.220149,-1.709819 2.330428,-0.104833 -0.157248,-2.460421 -1.860778,0.08869 0.796728,-6.272134 V 20.24241 C 40.62247,18.726531 40.62247,17.434994 40.087824,16.517708 39.815259,16.045962 39.427378,15.710498 38.89378,15.532282 38.631699,15.445792 38.348651,15.396 38.044636,15.385517 Z m -18.080476,9.010361 c 0.146766,0.05588 0.377397,0.146765 0.639479,0.251598 0.796727,0.681412 1.562005,1.406853 2.229789,2.229789 0.503196,0.828177 0.880594,1.533701 1.220251,2.207774 -0.96446,4.672388 -1.229686,8.94222 -1.603938,13.5537 -0.304015,1.423627 -1.520073,3.154413 -2.998212,4.305475 -0.870111,0.681412 -1.697251,0.953976 -2.438417,1.074534 -0.251598,0.04057 -0.48223,0.06573 -0.712862,0.07883 0.912044,-6.019487 0.90156,-13.911809 3.668103,-23.705898 z m 5.480648,8.174845 h 8.4e-4 l 0.681412,1.554667 c -0.366914,0.345947 -0.723345,0.733828 -1.060906,1.184608 0.115316,-0.912043 0.241115,-1.82199 0.377398,-2.739275 z"
     sodipodi:nodetypes="scccccccccccccccccccccccscccccsccccsccccsccccsccccssccccccccccccccccccscccccccccccssscccccsscccccccc" />
</svg>
