<?xml version="1.0" encoding="UTF-8" standalone="no"?>
<svg
   viewBox="0 0 60 60"
   version="1.1"
   id="svg6"
   sodipodi:docname="0KE.svg"
   inkscape:version="1.3 (0e150ed6c4, 2023-07-21)"
   xml:space="preserve"
   xmlns:inkscape="http://www.inkscape.org/namespaces/inkscape"
   xmlns:sodipodi="http://sodipodi.sourceforge.net/DTD/sodipodi-0.dtd"
   xmlns="http://www.w3.org/2000/svg"
   xmlns:svg="http://www.w3.org/2000/svg"><sodipodi:namedview
     id="namedview6"
     pagecolor="#ffffff"
     bordercolor="#666666"
     borderopacity="1.0"
     inkscape:showpageshadow="2"
     inkscape:pageopacity="0.0"
     inkscape:pagecheckerboard="0"
     inkscape:deskcolor="#d1d1d1"
     inkscape:zoom="15.216666"
     inkscape:cx="64.041622"
     inkscape:cy="10.1862"
     inkscape:window-width="3840"
     inkscape:window-height="2054"
     inkscape:window-x="3829"
     inkscape:window-y="-11"
     inkscape:window-maximized="1"
     inkscape:current-layer="svg6"
     showgrid="false" /><defs
     id="defs1"><filter
       id="0KE_svg__a"
       x="-0.13554818"
       y="-0.11123077"
       width="1.3210896"
       height="1.2636065"><feGaussianBlur
         in="SourceAlpha"
         result="blur"
         stdDeviation="2"
         id="feGaussianBlur1" /><feOffset
         dx="2"
         dy="2"
         result="offsetBlur"
         id="feOffset1" /><feBlend
         in="SourceGraphic"
         in2="offsetBlur"
         id="feBlend1" /></filter></defs><g
     filter="url(#0KE_svg__a)"
     transform="translate(40.406 1.058)scale(.95625)"
     id="g1"><path
       fill="#cdbc68"
       d="m -23.798,12.488498 -7.051,44.16196 H 9.085 l -6.79,-44.16196 c -4.418,-1.298 -8.7610915,-2.6000402 -13.177092,-3.8960402 z"
       id="path1"
       style="fill:#e9dbc9;fill-opacity:1;stroke:#333333;stroke-width:1.04575;stroke-dasharray:none"
       sodipodi:nodetypes="cccccc" /></g><path
     id="path7388-6"
     style="color:#000000;font-style:normal;font-variant:normal;font-weight:normal;font-stretch:normal;font-size:medium;line-height:normal;font-family:sans-serif;font-variant-ligatures:normal;font-variant-position:normal;font-variant-caps:normal;font-variant-numeric:normal;font-variant-alternates:normal;font-variant-east-asian:normal;font-feature-settings:normal;font-variation-settings:normal;text-indent:0;text-align:start;text-decoration:none;text-decoration-line:none;text-decoration-style:solid;text-decoration-color:#000000;letter-spacing:normal;word-spacing:normal;text-transform:none;writing-mode:lr-tb;direction:ltr;text-orientation:mixed;dominant-baseline:auto;baseline-shift:baseline;text-anchor:start;white-space:normal;shape-padding:0;shape-margin:0;inline-size:0;clip-rule:nonzero;display:inline;overflow:visible;visibility:visible;opacity:0.99;isolation:auto;mix-blend-mode:normal;color-interpolation:sRGB;color-interpolation-filters:linearRGB;solid-color:#000000;solid-opacity:1;vector-effect:none;fill:#000000;fill-opacity:0.992157;fill-rule:nonzero;stroke:none;stroke-width:0.578432;stroke-linecap:butt;stroke-linejoin:miter;stroke-miterlimit:4;stroke-dasharray:none;stroke-dashoffset:0;stroke-opacity:1;color-rendering:auto;image-rendering:auto;shape-rendering:auto;text-rendering:auto;enable-background:accumulate;stop-color:#000000"
     d="M 28.457031 16.302734 L 28.205078 16.527344 C 27.532185 17.126333 27.242012 17.88411 27.101562 18.654297 C 26.978601 19.328252 26.957614 20.014592 26.888672 20.677734 L 26.353516 20.605469 L 23.705078 17.484375 L 23.505859 17.861328 C 22.740803 19.304569 23.026238 20.892151 23.033203 22.328125 C 21.891181 24.686229 21.092522 26.58286 21.220703 28.792969 C 19.704447 30.492565 18.355866 32.310766 17.478516 34.425781 L 17.46875 34.447266 L 17.464844 34.46875 C 17.21427 35.518682 16.974733 36.636492 17.412109 37.773438 L 17.449219 37.873047 L 18.029297 38.193359 C 18.367753 38.894684 18.609919 39.383317 19.027344 39.677734 C 19.395383 39.937621 19.858353 39.987681 20.490234 39.933594 L 20.960938 39.271484 C 21.344271 39.271807 21.722454 39.295511 22.095703 39.337891 L 21.375 40.351562 L 21.527344 40.720703 L 21.78125 40.638672 C 22.613097 40.370809 23.191851 40.027223 23.630859 39.623047 C 25.303112 40.0563 26.837937 40.843371 28.169922 41.712891 C 28.105892 41.771891 28.039355 41.840352 27.976562 41.894531 C 25.947387 43.442022 25.510613 44.980172 25.224609 47.410156 L 25.203125 47.601562 L 25.373047 47.695312 C 30.239738 50.396271 33.908039 51.132647 36.929688 50.794922 C 39.951319 50.456852 42.299077 49.052497 44.533203 47.558594 L 44.689453 47.453125 L 44.65625 47.267578 C 44.462278 46.157919 44.307075 45.353149 43.888672 43.820312 L 43.886719 43.816406 L 43.886719 43.8125 C 42.825742 40.247145 42.631978 38.027398 42.470703 31.833984 L 42.470703 31.830078 L 42.470703 31.824219 C 42.314794 29.461931 41.049886 26.697185 39.068359 24.533203 C 37.127238 22.413442 34.471869 20.890138 31.484375 20.974609 L 28.457031 16.302734 z M 33.267578 23.425781 L 33.269531 23.425781 C 33.427211 23.438241 33.572562 23.481138 33.71875 23.523438 C 34.010277 23.608387 34.304425 23.736271 34.597656 23.886719 C 35.184256 24.187593 35.754203 24.565327 36.134766 24.886719 C 38.331542 26.741994 39.568418 28.488941 40.091797 31.611328 L 40.09375 31.625 L 40.095703 31.636719 C 40.698192 36.430989 40.30928 42.200666 41.976562 45.902344 L 40.816406 46.425781 C 40.530402 45.791161 40.298595 45.119583 40.109375 44.419922 C 39.048031 40.495478 39.320747 35.704556 38.833984 31.8125 C 38.347917 28.924496 37.400797 27.623038 35.3125 25.859375 C 35.045785 25.63414 34.506513 25.271284 34.015625 25.019531 C 33.770548 24.893607 33.53355 24.793582 33.363281 24.744141 C 33.193005 24.694651 33.093588 24.738636 33.214844 24.691406 L 32.75 23.507812 C 32.942271 23.432633 33.109651 23.413561 33.267578 23.425781 z M 25.097656 25.660156 C 25.190566 25.660156 25.286851 25.663622 25.388672 25.669922 L 25.931641 25.703125 L 25.779297 26.224609 C 25.597536 26.845111 25.560069 27.363345 25.279297 27.835938 C 25.138974 28.072594 24.907612 28.283363 24.615234 28.390625 C 24.322734 28.497581 23.988705 28.518405 23.576172 28.486328 L 23.035156 28.445312 L 23.195312 27.927734 C 23.382084 27.320435 23.426389 26.80532 23.707031 26.337891 C 23.847355 26.103791 24.072738 25.894641 24.361328 25.783203 C 24.57768 25.699953 24.819213 25.662234 25.097656 25.660156 z M 32.238281 29.564453 C 32.263941 29.824771 32.239379 30.147743 32.193359 30.568359 C 32.148139 30.988841 32.075937 31.485752 31.978516 32 C 31.797245 32.963015 31.551264 33.960139 31.189453 34.662109 L 31.238281 34.886719 C 31.238281 34.906399 31.254379 35.185384 31.261719 35.521484 C 31.269419 35.869286 31.255917 36.293675 31.242188 36.359375 L 31.238281 36.378906 L 31.238281 36.396484 C 31.142291 37.858262 30.045926 39.662935 28.904297 40.957031 C 32.297257 40.606665 35.648712 41.974343 36.710938 48.660156 C 32.492848 47.37073 29.359216 46.381458 28.113281 41.066406 C 28.356869 41.023526 28.601578 40.989506 28.845703 40.962891 C 27.535368 40.093521 26.011786 39.278167 24.322266 38.777344 C 24.754789 38.097345 25.069837 37.324759 25.638672 36.429688 C 27.54995 35.544704 28.418976 35.077979 30.314453 34.367188 L 30.337891 34.359375 L 30.279297 34.326172 C 30.549312 33.854939 30.846679 32.801151 31.03125 31.822266 C 31.12416 31.332808 31.194528 30.855575 31.236328 30.464844 C 31.277878 30.07394 31.285904 29.747656 31.277344 29.65625 L 32.238281 29.564453 z M 19.603516 34.449219 L 20.160156 35.037109 C 19.69103 35.480998 19.319032 35.761798 19.181641 35.929688 C 19.113201 36.013777 19.105976 36.043852 19.103516 36.078125 C 19.101216 36.112475 19.110513 36.187392 19.189453 36.333984 L 18.474609 36.714844 C 18.352379 36.487491 18.28 36.258473 18.296875 36.021484 C 18.313985 35.784394 18.424383 35.577487 18.556641 35.416016 C 18.820783 35.093151 19.174115 34.855457 19.603516 34.449219 z M 22.443359 37.1875 L 23.228516 37.746094 L 22.751953 38.417969 C 22.392376 38.360149 22.027421 38.318489 21.65625 38.294922 L 22.443359 37.1875 z M 28.892578 41.689453 L 29.535156 42.519531 C 33.142881 44.647735 33.982052 45.843421 34.84375 47.136719 L 35.765625 47.761719 L 35.517578 46.775391 C 34.596016 45.392244 33.590621 44.079119 29.890625 41.896484 L 28.892578 41.689453 z " /></svg>
