<?xml version="1.0" encoding="UTF-8" standalone="no"?>
<svg
   viewBox="0 0 60 60"
   version="1.1"
   id="svg10"
   sodipodi:docname="0NG.svg"
   inkscape:version="1.3 (0e150ed6c4, 2023-07-21)"
   inkscape:export-filename="0NG.png"
   inkscape:export-xdpi="320"
   inkscape:export-ydpi="320"
   xmlns:inkscape="http://www.inkscape.org/namespaces/inkscape"
   xmlns:sodipodi="http://sodipodi.sourceforge.net/DTD/sodipodi-0.dtd"
   xmlns="http://www.w3.org/2000/svg"
   xmlns:svg="http://www.w3.org/2000/svg">
  <sodipodi:namedview
     id="namedview10"
     pagecolor="#ffffff"
     bordercolor="#666666"
     borderopacity="1.0"
     inkscape:showpageshadow="2"
     inkscape:pageopacity="0.0"
     inkscape:pagecheckerboard="0"
     inkscape:deskcolor="#d1d1d1"
     inkscape:zoom="7.6083335"
     inkscape:cx="46.725081"
     inkscape:cy="78.992331"
     inkscape:window-width="3840"
     inkscape:window-height="2054"
     inkscape:window-x="-11"
     inkscape:window-y="-11"
     inkscape:window-maximized="1"
     inkscape:current-layer="svg10"
     showgrid="false" />
  <defs
     id="defs1">
    <filter
       id="0NG_svg__a"
       x="-0.13505243"
       y="-0.11084531"
       width="1.3201161"
       height="1.2628805">
      <feGaussianBlur
         in="SourceAlpha"
         result="blur"
         stdDeviation="2"
         id="feGaussianBlur1" />
      <feOffset
         dx="2"
         dy="2"
         result="offsetBlur"
         id="feOffset1" />
      <feBlend
         in="SourceGraphic"
         in2="offsetBlur"
         id="feBlend1" />
    </filter>
  </defs>
  <g
     fill="#dcdcdc"
     filter="url(#0NG_svg__a)"
     transform="translate(40.742 .122)scale(.98716)"
     id="g1">
    <path
       fill="#cdbc68"
       d="m -10.96,7.7667903 -12.838,3.6079997 -7.051,44.45 H 9.085 l -6.79,-44.163 z"
       id="path1"
       style="fill:#eadcca;fill-opacity:1;stroke:#333333;stroke-width:1.01301;stroke-dasharray:none" />
  </g>
  <path
     id="path2-8"
     style="fill:#cc3300;fill-opacity:1;stroke-width:1.00001"
     d="M 30.007812 14.851562 L 29.705078 15.273438 C 28.824074 16.505425 27.95957 18.005662 26.601562 18.597656 L 26.033203 18.84375 L 26.515625 19.236328 C 27.203436 19.792299 27.697579 20.678007 28.037109 21.806641 C 26.879358 22.501048 26.101563 23.787234 26.101562 25.242188 C 26.101562 25.26707 26.103063 25.291623 26.103516 25.316406 C 26.103224 25.336159 26.099613 25.355184 26.099609 25.375 C 26.099581 25.44166 26.103522 25.506902 26.107422 25.572266 C 25.692036 25.877415 25.287312 26.210211 24.892578 26.564453 C 24.654523 26.447393 24.443537 26.321587 24.265625 26.185547 C 24.245235 26.169527 24.220772 26.154852 24.201172 26.138672 C 24.047288 26.011654 23.89486 25.852221 23.742188 25.671875 C 23.642177 25.553809 23.541992 25.428461 23.443359 25.291016 C 23.431999 25.275176 23.421496 25.262164 23.410156 25.246094 C 22.891773 24.512228 22.397493 23.534856 21.976562 22.515625 L 21.976562 22.513672 C 21.871527 22.259275 21.770964 22.002375 21.675781 21.746094 L 21.675781 21.744141 C 21.580631 21.487877 21.490036 21.232262 21.40625 20.980469 L 21.40625 20.978516 C 21.40005 20.959906 21.394812 20.942398 21.388672 20.923828 C 20.970946 19.715165 20.671716 18.473414 20.388672 17.228516 C 20.38861 17.228206 20.384766 17.207031 20.384766 17.207031 L 20.384766 17.205078 L 18.900391 16.193359 C 18.900391 16.193359 18.857492 18.230098 18.851562 19.515625 C 18.849865 19.827022 18.848916 20.124666 18.853516 20.478516 C 18.859716 20.9322 18.871388 21.413061 18.892578 21.912109 C 18.895678 21.986879 18.894838 22.051515 18.898438 22.126953 C 18.962235 23.477347 19.070158 24.916486 19.322266 26.236328 C 19.362516 26.447052 19.406896 26.653798 19.455078 26.857422 C 19.476058 26.946092 19.496931 27.03401 19.519531 27.121094 C 19.578601 27.34872 19.643815 27.570123 19.714844 27.785156 C 19.913743 28.387217 20.159117 28.939195 20.470703 29.404297 C 20.615309 29.620149 20.774537 29.823038 20.943359 30.017578 C 21.027589 30.114638 21.115518 30.208778 21.205078 30.300781 C 21.294568 30.392711 21.386129 30.483274 21.480469 30.570312 C 21.565849 30.649092 21.653194 30.72588 21.742188 30.800781 C 21.759135 30.815071 21.775899 30.82959 21.792969 30.84375 C 21.858989 30.89838 21.926362 30.951311 21.994141 31.003906 C 22.041551 31.040746 22.088501 31.077416 22.136719 31.113281 C 22.177929 31.143901 22.219959 31.173215 22.261719 31.203125 C 22.451047 31.338881 22.646582 31.468025 22.845703 31.589844 C 22.864993 31.601644 22.882974 31.615273 22.902344 31.626953 C 22.885144 31.620853 22.847491 31.607022 22.832031 31.601562 C 20.508024 36.554537 17.355665 34.95456 15.472656 37.560547 L 15.277344 37.828125 L 15.447266 38.119141 C 17.724113 42.009592 20.018854 44.450507 20.986328 41.751953 C 20.989628 41.751953 20.992141 41.753159 20.994141 41.755859 L 24.419922 32.392578 C 24.444152 32.402938 24.467958 32.411635 24.492188 32.421875 C 24.734537 32.523913 24.976828 32.618821 25.21875 32.707031 C 25.26685 32.724711 25.3152 32.746632 25.363281 32.763672 L 24.849609 34.402344 C 25.191613 34.524344 25.750544 34.720938 26.560547 34.960938 C 27.716554 35.304932 29.124996 35.640625 30 35.640625 C 30.877003 35.640625 32.292165 35.304932 33.451172 34.960938 C 34.029137 34.791665 34.600838 34.604992 35.167969 34.402344 L 34.652344 32.755859 C 34.670504 32.749359 34.688851 32.740925 34.707031 32.734375 C 34.989119 32.632961 35.271912 32.520614 35.554688 32.400391 C 35.568155 32.394691 35.582233 32.390496 35.595703 32.384766 L 39.074219 41.916016 C 39.976672 44.430101 42.27892 41.996624 44.550781 38.119141 L 44.722656 37.830078 L 44.527344 37.5625 C 42.645335 34.956519 39.494889 36.559344 37.171875 31.609375 L 37.171875 31.607422 C 37.147925 31.615822 37.094005 31.634861 37.066406 31.644531 C 37.078976 31.637031 37.090976 31.628664 37.103516 31.621094 C 37.313997 31.493985 37.520907 31.359309 37.720703 31.216797 C 37.764003 31.185937 37.806893 31.154657 37.849609 31.123047 C 37.903139 31.083397 37.955277 31.042807 38.007812 31.001953 C 38.065602 30.957063 38.123171 30.911603 38.179688 30.865234 C 38.222145 30.830344 38.262988 30.793554 38.304688 30.757812 C 38.365035 30.706175 38.425715 30.655015 38.484375 30.601562 C 38.517025 30.571765 38.547978 30.540136 38.580078 30.509766 C 38.651628 30.442166 38.722355 30.37517 38.791016 30.304688 L 38.794922 30.300781 C 38.799422 30.296181 38.804124 30.291779 38.808594 30.287109 C 38.890814 30.202099 38.971136 30.114696 39.048828 30.025391 C 39.051228 30.022591 39.054241 30.020378 39.056641 30.017578 C 39.068721 30.003638 39.079827 29.988649 39.091797 29.974609 C 39.163487 29.890489 39.2334 29.804786 39.300781 29.716797 C 39.378951 29.614748 39.455374 29.511664 39.527344 29.404297 L 39.527344 29.402344 C 39.600514 29.293124 39.671916 29.180463 39.738281 29.0625 L 39.738281 29.060547 C 39.804621 28.942555 39.86784 28.819362 39.927734 28.693359 L 39.927734 28.691406 C 39.987604 28.565374 40.043865 28.436043 40.097656 28.302734 L 40.097656 28.300781 C 40.151426 28.167437 40.203899 28.030514 40.251953 27.890625 L 40.251953 27.888672 C 40.254553 27.880972 40.257166 27.872954 40.259766 27.865234 C 40.350296 27.59919 40.43197 27.322744 40.503906 27.037109 C 40.505906 27.029209 40.507766 27.021572 40.509766 27.013672 L 40.509766 27.011719 C 40.511966 27.002719 40.513325 26.993345 40.515625 26.984375 C 40.586275 26.698644 40.648356 26.405411 40.703125 26.105469 C 40.704725 26.096869 40.707384 26.088698 40.708984 26.080078 L 40.708984 26.078125 C 40.766574 25.759758 40.814768 25.433926 40.857422 25.105469 L 40.857422 25.103516 C 40.900052 24.775035 40.936182 24.444011 40.966797 24.111328 L 40.966797 24.109375 C 40.997387 23.776689 41.023422 23.442326 41.044922 23.111328 L 41.044922 23.109375 C 41.066402 22.778399 41.084309 22.450351 41.099609 22.126953 L 41.099609 22.125 C 41.099704 22.123 41.099515 22.121141 41.099609 22.119141 C 41.129969 21.475361 41.144621 20.854718 41.150391 20.285156 C 41.150403 20.283856 41.150378 20.28245 41.150391 20.28125 L 41.150391 20.279297 C 41.167631 18.560719 41.099609 16.193359 41.099609 16.193359 L 39.615234 17.205078 C 39.615234 17.205078 39.615241 17.208984 39.615234 17.208984 L 39.613281 17.207031 C 39.613281 17.207031 39.263319 18.961542 38.591797 20.980469 C 38.508067 21.232067 38.419296 21.488082 38.324219 21.744141 L 38.322266 21.746094 C 38.227156 22.002155 38.128382 22.259495 38.023438 22.513672 C 37.964048 22.657687 37.900054 22.797629 37.837891 22.939453 C 37.789891 23.048835 37.742871 23.160108 37.693359 23.267578 L 37.693359 23.269531 C 37.579942 23.515651 37.462042 23.754807 37.341797 23.986328 L 37.341797 23.988281 C 37.221544 24.21975 37.098222 24.441827 36.972656 24.652344 L 36.972656 24.654297 C 36.84709 24.86474 36.71921 25.062954 36.589844 25.246094 L 36.587891 25.248047 C 36.46737 25.418778 36.345242 25.573166 36.222656 25.714844 C 36.213456 25.725434 36.204482 25.737637 36.195312 25.748047 L 36.195312 25.75 C 36.129655 25.82446 36.063992 25.894076 35.998047 25.958984 C 35.931777 26.024214 35.8652 26.083888 35.798828 26.138672 C 35.778628 26.155342 35.755175 26.17101 35.734375 26.1875 C 35.556599 26.326386 35.356269 26.455669 35.136719 26.576172 C 34.73181 26.21163 34.317576 25.869444 33.890625 25.556641 C 33.894025 25.496001 33.896484 25.43678 33.896484 25.375 C 33.896483 25.368362 33.894565 25.3621 33.894531 25.355469 C 33.895584 25.317716 33.898438 25.280175 33.898438 25.242188 C 33.898438 23.79329 33.126334 22.512824 31.976562 21.816406 C 32.316053 20.683077 32.810203 19.793904 33.5 19.236328 L 33.984375 18.84375 L 33.416016 18.597656 C 32.058007 18.005662 31.191551 16.505425 30.310547 15.273438 L 30.007812 14.851562 z M 20.464844 22.646484 C 21.130256 24.423666 21.956474 26.230456 23.246094 27.294922 C 25.200664 28.908245 28.496389 29.546875 30.185547 29.546875 C 31.874705 29.546875 34.841421 28.873506 36.753906 27.294922 C 38.043526 26.230456 38.869744 24.423666 39.535156 22.646484 C 39.378334 24.997621 38.974131 27.532144 38.28125 28.566406 C 37.427244 29.841178 35.725774 30.798737 34.025391 31.388672 C 32.325003 31.978603 30.60406 32.210937 30 32.210938 C 29.39594 32.210938 27.674997 31.978603 25.974609 31.388672 C 24.274226 30.798737 22.572756 29.841178 21.71875 28.566406 C 21.025869 27.532144 20.621666 24.997621 20.464844 22.646484 z M 30 22.761719 C 31.322817 22.761719 32.398438 23.852702 32.398438 25.242188 C 32.398438 26.631673 31.322817 27.724609 30 27.724609 C 28.677183 27.724609 27.601562 26.631673 27.601562 25.242188 C 27.601562 23.852702 28.677183 22.761719 30 22.761719 z M 24.609375 35.167969 L 22.419922 42.150391 C 24.493933 43.037385 27.814988 44.310453 30 44.314453 C 32.177012 44.317453 35.486411 43.074682 37.607422 42.179688 L 35.408203 35.167969 C 35.046199 35.296969 34.484691 35.492469 33.679688 35.730469 C 32.491681 36.082463 31.070006 36.441406 30 36.441406 C 28.934994 36.441406 27.517038 36.08051 26.332031 35.728516 C 25.532028 35.491516 24.972379 35.296969 24.609375 35.167969 z M 25.388672 44.5 C 25.075339 45.988974 24.760865 47.479719 24.447266 48.96875 C 27.853795 51.620383 32.110363 51.337167 35.552734 48.96875 L 34.554688 44.5 C 33.087337 45.322966 31.632886 45.495585 29.951172 45.546875 C 28.569394 45.525645 26.680454 45.248342 25.388672 44.5 z " />
</svg>
