<?xml version="1.0" encoding="UTF-8" standalone="no"?>
<svg
   viewBox="0 0 60 60"
   version="1.1"
   id="svg6"
   sodipodi:docname="0NK.svg"
   inkscape:version="1.3 (0e150ed6c4, 2023-07-21)"
   xmlns:inkscape="http://www.inkscape.org/namespaces/inkscape"
   xmlns:sodipodi="http://sodipodi.sourceforge.net/DTD/sodipodi-0.dtd"
   xmlns="http://www.w3.org/2000/svg"
   xmlns:svg="http://www.w3.org/2000/svg">
  <sodipodi:namedview
     id="namedview6"
     pagecolor="#ffffff"
     bordercolor="#666666"
     borderopacity="1.0"
     inkscape:showpageshadow="2"
     inkscape:pageopacity="0.0"
     inkscape:pagecheckerboard="0"
     inkscape:deskcolor="#d1d1d1"
     inkscape:zoom="10.759808"
     inkscape:cx="72.770815"
     inkscape:cy="40.149415"
     inkscape:window-width="3840"
     inkscape:window-height="2054"
     inkscape:window-x="3829"
     inkscape:window-y="-11"
     inkscape:window-maximized="1"
     inkscape:current-layer="svg6" />
  <defs
     id="defs1">
    <filter
       id="0KE_svg__a"
       x="-0.13487665"
       y="-0.11073416"
       width="1.3197505"
       height="1.2626339">
      <feGaussianBlur
         in="SourceAlpha"
         result="blur"
         stdDeviation="2"
         id="feGaussianBlur1" />
      <feOffset
         dx="2"
         dy="2"
         result="offsetBlur"
         id="feOffset1" />
      <feBlend
         in="SourceGraphic"
         in2="offsetBlur"
         id="feBlend1" />
    </filter>
  </defs>
  <path
     fill="#cdbc68"
     d="m -23.798,12.511373 -7.051,44.16196 H 9.085 l -6.79,-44.16196 c -4.418,-1.298 -8.7610915,-2.6000397 -13.177092,-3.8960397 z"
     id="path1"
     style="fill:#dfc585;fill-opacity:1;stroke:#333333;filter:url(#0KE_svg__a)"
     sodipodi:nodetypes="cccccc"
     transform="matrix(0.95625,0,0,0.95625,40.406,1.058)" />
  <path
     id="path7388-6"
     style="color:#000000;font-style:normal;font-variant:normal;font-weight:normal;font-stretch:normal;font-size:medium;line-height:normal;font-family:sans-serif;font-variant-ligatures:normal;font-variant-position:normal;font-variant-caps:normal;font-variant-numeric:normal;font-variant-alternates:normal;font-variant-east-asian:normal;font-feature-settings:normal;font-variation-settings:normal;text-indent:0;text-align:start;text-decoration:none;text-decoration-line:none;text-decoration-style:solid;text-decoration-color:#000000;letter-spacing:normal;word-spacing:normal;text-transform:none;writing-mode:lr-tb;direction:ltr;text-orientation:mixed;dominant-baseline:auto;baseline-shift:baseline;text-anchor:start;white-space:normal;shape-padding:0;shape-margin:0;inline-size:0;clip-rule:nonzero;display:inline;overflow:visible;visibility:visible;opacity:0.99;isolation:auto;mix-blend-mode:normal;color-interpolation:sRGB;color-interpolation-filters:linearRGB;solid-color:#000000;solid-opacity:1;vector-effect:none;fill:#cc3300;fill-opacity:1;fill-rule:nonzero;stroke:none;stroke-width:0.578432;stroke-linecap:butt;stroke-linejoin:miter;stroke-miterlimit:4;stroke-dasharray:none;stroke-dashoffset:0;stroke-opacity:1;color-rendering:auto;image-rendering:auto;shape-rendering:auto;text-rendering:auto;enable-background:accumulate;stop-color:#000000"
     d="M 20.685547 15.193359 L 20.761719 15.863281 C 20.761719 15.863281 20.821599 16.416085 20.998047 17.027344 C 21.134488 17.500015 21.303764 18.053334 21.705078 18.427734 C 21.421632 19.030764 21.277344 19.737542 21.277344 20.509766 C 21.277344 21.230607 21.399771 21.896608 21.646484 22.472656 L 21.646484 22.474609 C 21.6082 22.563026 21.581676 22.647923 21.564453 22.736328 C 21.54746 22.823553 21.537038 22.914007 21.529297 23.009766 C 21.496747 23.412337 21.531897 23.912321 21.648438 24.4375 C 21.695919 24.651389 21.758474 24.867861 21.835938 25.082031 C 21.393804 26.314825 21.145757 27.500739 21.220703 28.792969 C 19.704457 30.492555 18.355861 32.310776 17.478516 34.425781 L 17.46875 34.447266 L 17.464844 34.46875 C 17.21427 35.518677 16.974743 36.636497 17.412109 37.773438 L 17.449219 37.873047 L 18.029297 38.193359 C 18.367753 38.894684 18.609919 39.383322 19.027344 39.677734 C 19.395378 39.937621 19.858358 39.987681 20.490234 39.933594 L 22.443359 37.1875 L 23.228516 37.746094 L 21.375 40.351562 L 21.527344 40.720703 L 21.78125 40.638672 C 23.07263 40.222834 23.760338 39.628211 24.248047 38.900391 C 24.722548 38.192295 25.03633 37.377478 25.638672 36.429688 C 27.54994 35.544704 28.418986 35.077974 30.314453 34.367188 L 30.337891 34.359375 L 30.279297 34.326172 C 30.549312 33.854939 30.846679 32.801146 31.03125 31.822266 C 31.12416 31.332808 31.194528 30.85557 31.236328 30.464844 C 31.277878 30.07394 31.285904 29.747656 31.277344 29.65625 L 32.238281 29.564453 C 32.263941 29.824771 32.239359 30.147748 32.193359 30.568359 C 32.148139 30.988841 32.075937 31.485757 31.978516 32 C 31.797245 32.96301 31.551264 33.960144 31.189453 34.662109 L 31.238281 34.886719 C 31.238281 34.906399 31.254379 35.185389 31.261719 35.521484 C 31.269419 35.869286 31.25592 36.293675 31.242188 36.359375 L 31.238281 36.378906 L 31.238281 36.396484 C 31.160247 37.584773 30.420276 39.004072 29.533203 40.189453 C 31.338578 41.424213 33.682422 42.272812 36.019531 42.455078 C 37.262979 42.552052 38.493106 42.465431 39.646484 42.169922 C 39.124112 38.757683 39.230971 34.986715 38.833984 31.8125 C 38.347922 28.924511 37.400787 27.623028 35.3125 25.859375 C 35.045785 25.63414 34.506513 25.271284 34.015625 25.019531 C 33.770548 24.893607 33.53355 24.793582 33.363281 24.744141 C 33.193005 24.694651 33.093588 24.738666 33.214844 24.691406 L 32.75 23.507812 C 32.942271 23.43264 33.109651 23.413561 33.267578 23.425781 L 33.269531 23.425781 C 33.427211 23.438241 33.572562 23.481138 33.71875 23.523438 C 34.010277 23.60838 34.30443 23.736271 34.597656 23.886719 C 35.184256 24.187588 35.754203 24.565327 36.134766 24.886719 C 38.331527 26.741984 39.568418 28.488956 40.091797 31.611328 L 40.09375 31.625 L 40.095703 31.636719 C 40.502748 34.875741 40.460685 38.559047 40.902344 41.75 C 41.686231 41.419497 42.418831 40.975421 43.072266 40.400391 C 42.701614 38.253707 42.576639 35.902213 42.470703 31.833984 L 42.470703 31.830078 L 42.470703 31.824219 C 42.314794 29.461906 41.049876 26.697175 39.068359 24.533203 C 37.127248 22.413452 34.471854 20.890138 31.484375 20.974609 C 31.364405 20.037338 33.72715 20.189558 34.916016 20.019531 C 34.035978 19.342316 31.985781 18.361349 30.703125 18.021484 C 30.737081 17.943206 30.732013 17.956465 30.761719 17.888672 C 30.905038 17.560442 31.001953 17.34375 31.001953 17.34375 L 31.476562 16.298828 L 30.388672 16.662109 C 30.226214 16.716258 30.069235 16.76168 29.916016 16.802734 C 29.794615 16.835229 29.67476 16.864203 29.558594 16.886719 C 29.454482 16.906883 29.350288 16.92458 29.25 16.935547 C 29.131981 16.948453 29.017562 16.954633 28.904297 16.953125 C 28.804957 16.951802 28.707434 16.943408 28.611328 16.929688 C 28.585944 16.926067 28.560332 16.922508 28.535156 16.917969 C 28.438259 16.900488 28.342122 16.877605 28.248047 16.845703 C 28.142532 16.809921 28.040019 16.764625 27.9375 16.708984 C 27.834981 16.653344 27.732922 16.58708 27.632812 16.509766 L 27.589844 16.476562 L 27.541016 16.453125 C 27.404855 16.388569 27.269168 16.339102 27.134766 16.302734 C 27.126167 16.300408 27.11796 16.297127 27.109375 16.294922 C 27.053721 16.280626 26.998354 16.26885 26.943359 16.259766 C 26.935596 16.258483 26.92767 16.257036 26.919922 16.255859 C 26.915298 16.255152 26.910869 16.254575 26.90625 16.253906 C 26.843081 16.244809 26.780712 16.238169 26.71875 16.236328 C 26.648146 16.23423 26.578393 16.238356 26.509766 16.246094 C 26.493479 16.247955 26.477097 16.249524 26.460938 16.251953 C 26.391486 16.262299 26.32269 16.277677 26.255859 16.298828 C 26.157227 16.330044 26.065514 16.371467 25.980469 16.421875 C 25.895424 16.472283 25.818231 16.530559 25.746094 16.595703 L 25.744141 16.597656 C 25.672801 16.662303 25.60622 16.733879 25.546875 16.808594 C 25.486964 16.88402 25.433129 16.963669 25.384766 17.044922 L 25.234375 17.298828 L 25.384766 17.554688 C 25.384766 17.554688 25.47256 17.702635 25.599609 17.943359 C 25.663134 18.063722 25.737219 18.207337 25.814453 18.367188 C 25.891687 18.527036 25.971875 18.703131 26.050781 18.888672 C 26.103082 19.01165 26.150964 19.140604 26.197266 19.269531 C 26.212753 19.312562 26.229449 19.355175 26.244141 19.398438 C 26.290332 19.534965 26.332592 19.672715 26.369141 19.806641 C 26.452074 20.110529 26.507569 20.398281 26.521484 20.628906 L 26.353516 20.605469 L 25.669922 19.798828 C 25.604305 19.258983 25.462419 18.759929 25.240234 18.322266 C 25.034868 17.91772 24.720714 17.514964 24.292969 17.279297 L 24.326172 15.425781 L 23.648438 15.660156 C 23.104465 15.849581 22.858236 15.813514 22.560547 15.720703 C 22.262858 15.627893 21.897688 15.417619 21.347656 15.316406 L 20.685547 15.193359 z M 21.919922 16.556641 C 22.034822 16.601911 22.126523 16.631071 22.263672 16.673828 C 22.52916 16.756598 22.94028 16.663392 23.304688 16.632812 L 23.296875 17.087891 C 22.907346 17.134058 22.58417 17.310698 22.322266 17.552734 C 22.194548 17.355735 22.048921 17.061565 21.958984 16.75 C 21.930164 16.65017 21.942002 16.65069 21.919922 16.556641 z M 26.644531 17.234375 C 26.739021 17.226753 26.877272 17.251827 27.083984 17.345703 C 27.907635 17.946957 28.82442 17.941513 29.724609 17.78125 C 29.595875 18.075394 29.562256 18.136392 29.384766 18.568359 C 29.014915 19.468475 28.613069 20.505926 28.464844 21.228516 C 28.312521 21.971079 28.266402 22.79227 28.128906 23.486328 C 27.992254 24.176134 27.771829 24.683192 27.408203 24.929688 C 27.385496 24.933988 27.124175 25.058849 26.839844 25.160156 C 26.514891 25.275937 26.100856 25.410363 25.681641 25.535156 C 25.262423 25.65995 24.835467 25.775201 24.492188 25.851562 C 24.148907 25.927922 23.822181 25.939119 23.888672 25.949219 C 23.571504 25.901069 23.327504 25.718516 23.107422 25.404297 C 22.88734 25.090078 22.720837 24.652401 22.625 24.220703 C 22.58123 24.023545 22.596748 23.886236 22.580078 23.705078 C 22.767654 23.833409 22.944914 23.974125 23.162109 24.060547 C 23.82992 24.326266 24.673269 24.381228 25.353516 23.898438 C 25.851435 23.545047 26.322034 23.080496 26.703125 22.599609 C 27.084216 22.118725 27.380447 21.641568 27.486328 21.150391 C 27.676477 20.268294 27.31551 19.308819 26.970703 18.498047 C 26.707508 17.879172 26.537495 17.600156 26.417969 17.388672 C 26.463789 17.349632 26.515049 17.265734 26.558594 17.251953 C 26.582896 17.244261 26.611418 17.237046 26.644531 17.234375 z M 23.494141 18.03125 A 1.2583932 2.4788358 0 0 1 24.753906 20.509766 A 1.2583932 2.4788358 0 0 1 23.494141 22.988281 A 1.2583932 2.4788358 0 0 1 22.236328 20.509766 A 1.2583932 2.4788358 0 0 1 23.494141 18.03125 z M 25.693359 26.572266 C 25.582167 27.036427 25.503405 27.458721 25.279297 27.835938 C 25.138974 28.072589 24.907612 28.283363 24.615234 28.390625 C 24.322739 28.497581 23.9887 28.518402 23.576172 28.486328 L 23.035156 28.445312 L 23.195312 27.927734 C 23.358918 27.395766 23.575091 27.277245 23.814453 26.945312 C 23.88705 26.952582 23.955645 26.954224 24.023438 26.951172 C 24.026606 26.951036 24.030039 26.951327 24.033203 26.951172 C 24.037128 26.95097 24.041004 26.94945 24.044922 26.949219 C 24.107641 26.945512 24.1715 26.939891 24.234375 26.929688 C 24.23816 26.929073 24.242301 26.928368 24.246094 26.927734 C 24.267654 26.924195 24.294507 26.916231 24.316406 26.912109 C 24.437952 26.888706 24.563698 26.860877 24.710938 26.828125 C 25.001053 26.763587 25.329745 26.674695 25.662109 26.580078 C 25.672486 26.577124 25.682973 26.575237 25.693359 26.572266 z M 19.603516 34.449219 L 20.160156 35.037109 C 19.691035 35.480998 19.319027 35.761798 19.181641 35.929688 C 19.113201 36.01377 19.105976 36.043852 19.103516 36.078125 C 19.101216 36.112475 19.110503 36.187397 19.189453 36.333984 L 18.474609 36.714844 C 18.352379 36.487491 18.28 36.258473 18.296875 36.021484 C 18.313985 35.784399 18.424383 35.577482 18.556641 35.416016 C 18.820778 35.093151 19.174115 34.855452 19.603516 34.449219 z M 28.554688 41.341797 C 28.35885 41.544237 28.164518 41.732358 27.976562 41.894531 C 25.947402 43.442017 25.510613 44.980187 25.224609 47.410156 L 25.203125 47.601562 L 25.373047 47.695312 C 30.239713 50.396261 33.908054 51.132647 36.929688 50.794922 C 39.951299 50.456852 42.299087 49.052487 44.533203 47.558594 L 44.689453 47.453125 L 44.65625 47.267578 C 44.462262 46.157915 44.30707 45.353144 43.888672 43.820312 L 43.886719 43.816406 L 43.886719 43.8125 C 43.70103 43.188537 43.549163 42.61105 43.412109 42.041016 C 42.71244 42.550455 41.954731 42.951439 41.160156 43.253906 C 41.358811 44.211226 41.617931 45.106106 41.976562 45.902344 L 40.816406 46.425781 C 40.426074 45.559232 40.142044 44.619694 39.923828 43.638672 C 38.619363 43.962016 37.25118 44.054412 35.902344 43.949219 C 33.235641 43.741248 30.612142 42.797877 28.554688 41.341797 z " />
</svg>
