<?xml version="1.0" encoding="UTF-8" standalone="no"?>
<svg
   viewBox="0 0 60 60"
   version="1.1"
   id="svg20"
   sodipodi:docname="0NY.svg"
   inkscape:version="1.3 (0e150ed6c4, 2023-07-21)"
   xmlns:inkscape="http://www.inkscape.org/namespaces/inkscape"
   xmlns:sodipodi="http://sodipodi.sourceforge.net/DTD/sodipodi-0.dtd"
   xmlns="http://www.w3.org/2000/svg"
   xmlns:svg="http://www.w3.org/2000/svg">
  <sodipodi:namedview
     id="namedview20"
     pagecolor="#ffffff"
     bordercolor="#666666"
     borderopacity="1.0"
     inkscape:showpageshadow="2"
     inkscape:pageopacity="0.0"
     inkscape:pagecheckerboard="0"
     inkscape:deskcolor="#d1d1d1"
     inkscape:zoom="7.6083336"
     inkscape:cx="39.956187"
     inkscape:cy="34.961664"
     inkscape:window-width="3840"
     inkscape:window-height="2054"
     inkscape:window-x="-11"
     inkscape:window-y="-11"
     inkscape:window-maximized="1"
     inkscape:current-layer="svg20" />
  <defs
     id="defs1">
    <filter
       id="0NY_svg__a"
       x="-0.13553251"
       y="-0.11119973"
       width="1.3210739"
       height="1.2635755">
      <feGaussianBlur
         in="SourceAlpha"
         result="blur"
         stdDeviation="2"
         id="feGaussianBlur1" />
      <feOffset
         dx="2"
         dy="2"
         result="offsetBlur"
         id="feOffset1" />
      <feBlend
         in="SourceGraphic"
         in2="offsetBlur"
         id="feBlend1" />
    </filter>
  </defs>
  <g
     filter="url(#0NY_svg__a)"
     transform="translate(40.406 1.058)scale(.95625)"
     id="g1">
    <path
       fill="#cdbc68"
       d="m -10.96,8.5924575 -12.838,3.6080005 -7.051,44.45 H 9.085 l -6.79,-44.163 z"
       id="path1"
       style="fill:#dfc585;fill-opacity:1;stroke:#333333;stroke-width:1.04575;stroke-dasharray:none" />
  </g>
  <path
     id="path14"
     style="color:#000000;fill:#cc3300;fill-opacity:1;stroke-width:0.147407;-inkscape-stroke:none"
     d="M 30 20.898438 L 29.888672 21.033203 L 29.023438 22.080078 L 28.902344 26.15625 L 29.34375 26.361328 L 29.34375 27.121094 A 8.0417782 8.0417782 0 0 0 25.177734 28.697266 L 24.339844 27.859375 L 24.496094 27.384766 L 21.523438 24.580078 L 19.982422 24.46875 L 20.152344 25.996094 L 22.949219 28.982422 L 23.427734 28.808594 L 24.195312 29.576172 A 8.0417782 8.0417782 0 0 0 22.005859 34.445312 L 21.154297 34.445312 L 20.927734 33.994141 L 16.839844 34.113281 L 15.671875 35.125 L 16.873047 36.083984 L 20.962891 36.216797 L 21.173828 35.763672 L 22.005859 35.763672 A 8.0417782 8.0417782 0 0 0 29.34375 43.091797 L 29.34375 43.691406 L 28.902344 43.894531 L 29.023438 47.970703 L 30 49.154297 L 30.976562 47.970703 L 31.095703 43.894531 L 30.660156 43.697266 L 30.660156 43.09375 A 8.0417782 8.0417782 0 0 0 38.013672 35.763672 L 38.394531 35.763672 L 38.826172 35.763672 L 39.037109 36.216797 L 43.126953 36.083984 L 44.328125 35.125 L 43.160156 34.113281 L 39.072266 33.994141 L 38.845703 34.445312 L 38.394531 34.445312 L 38.013672 34.445312 A 8.0417782 8.0417782 0 0 0 35.84375 29.59375 L 36.628906 28.808594 L 37.101562 28.964844 L 39.90625 25.990234 L 40.017578 24.451172 L 38.490234 24.621094 L 35.505859 27.417969 L 35.679688 27.894531 L 34.863281 28.710938 A 8.0417782 8.0417782 0 0 0 30.660156 27.119141 L 30.660156 26.355469 L 31.095703 26.158203 L 30.976562 22.080078 L 30 20.898438 z M 29.34375 28.878906 L 29.34375 30.90625 C 28.828625 30.989122 28.342464 31.168786 27.90625 31.423828 L 26.441406 29.960938 A 6.2878423 6.2878423 0 0 1 29.34375 28.878906 z M 30.660156 28.878906 A 6.2878423 6.2878423 0 0 1 33.597656 29.978516 L 32.130859 31.445312 C 31.68636 31.179346 31.188269 30.993717 30.660156 30.908203 L 30.660156 28.878906 z M 25.445312 30.826172 L 26.880859 32.261719 C 26.344267 32.862401 25.976111 33.616658 25.855469 34.445312 L 23.765625 34.445312 A 6.2878423 6.2878423 0 0 1 25.445312 30.826172 z M 34.589844 30.847656 A 6.2878423 6.2878423 0 0 1 36.251953 34.445312 L 34.144531 34.445312 C 34.025832 33.630003 33.667115 32.886858 33.144531 32.291016 L 34.589844 30.847656 z M 30 32.353516 A 2.6868243 2.6868243 0 0 1 32.6875 35.041016 A 2.6868243 2.6868243 0 0 1 30 37.728516 A 2.6868243 2.6868243 0 0 1 27.3125 35.041016 A 2.6868243 2.6868243 0 0 1 30 32.353516 z M 23.763672 35.763672 L 25.876953 35.763672 C 25.966588 36.267913 26.149298 36.743367 26.404297 37.169922 L 24.878906 38.695312 A 6.2878423 6.2878423 0 0 1 23.763672 35.763672 z M 34.123047 35.763672 L 36.236328 35.763672 A 6.2878423 6.2878423 0 0 1 35.142578 38.662109 L 33.617188 37.136719 C 33.861651 36.71898 34.03578 36.254591 34.123047 35.763672 z M 32.779297 38.160156 L 34.291016 39.671875 A 6.2878423 6.2878423 0 0 1 30.660156 41.332031 L 30.660156 39.173828 C 31.463238 39.043789 32.194347 38.682696 32.779297 38.160156 z M 27.25 38.185547 C 27.830997 38.695109 28.552318 39.048458 29.34375 39.175781 L 29.34375 41.332031 A 6.2878423 6.2878423 0 0 1 25.736328 39.699219 L 27.25 38.185547 z " />
</svg>
