<?xml version="1.0" encoding="UTF-8" standalone="no"?>
<svg
   width="60"
   height="60"
   version="1.1"
   id="svg2"
   sodipodi:docname="0OU.svg"
   inkscape:version="1.3 (0e150ed6c4, 2023-07-21)"
   xmlns:inkscape="http://www.inkscape.org/namespaces/inkscape"
   xmlns:sodipodi="http://sodipodi.sourceforge.net/DTD/sodipodi-0.dtd"
   xmlns="http://www.w3.org/2000/svg"
   xmlns:svg="http://www.w3.org/2000/svg">
  <sodipodi:namedview
     id="namedview2"
     pagecolor="#ffffff"
     bordercolor="#666666"
     borderopacity="1.0"
     inkscape:showpageshadow="2"
     inkscape:pageopacity="0.0"
     inkscape:pagecheckerboard="0"
     inkscape:deskcolor="#d1d1d1"
     inkscape:zoom="7.6083333"
     inkscape:cx="112.57393"
     inkscape:cy="-29.704272"
     inkscape:window-width="3840"
     inkscape:window-height="2054"
     inkscape:window-x="-11"
     inkscape:window-y="-11"
     inkscape:window-maximized="1"
     inkscape:current-layer="svg2" />
  <defs
     id="defs1">
    <filter
       id="0OU_svg__a"
       x="-0.12844163"
       y="-0.10543263"
       width="1.304515"
       height="1.2500988">
      <feGaussianBlur
         in="SourceAlpha"
         result="blur"
         stdDeviation="2"
         id="feGaussianBlur1" />
      <feOffset
         dx="2"
         dy="2"
         result="offsetBlur"
         id="feOffset1" />
      <feBlend
         in="SourceGraphic"
         in2="offsetBlur"
         id="feBlend1" />
    </filter>
    <filter
       id="0OU_svg__a-9"
       x="-0.12844387"
       y="-0.10543428"
       width="1.3045194"
       height="1.250102">
      <feGaussianBlur
         in="SourceAlpha"
         result="blur"
         stdDeviation="2"
         id="feGaussianBlur1-1" />
      <feOffset
         dx="2"
         dy="2"
         result="offsetBlur"
         id="feOffset1-9" />
      <feBlend
         in="SourceGraphic"
         in2="offsetBlur"
         id="feBlend1-9"
         mode="normal" />
    </filter>
  </defs>
  <g
     fill="#f9f9f9"
     filter="url(#0OU_svg__a)"
     id="g1"
     style="stroke:#554400">
    <path
       fill="#cdbc68"
       d="m29.918 4.769-13.48 3.788L9.035 55.23h41.93l-7.13-46.371z"
       id="path1"
       style="fill:#fdeb98;fill-opacity:1;stroke:#333333" />
  </g>
  <path
     d="M19.216 18.494a.764.687 0 0 0-.733.88l.966 2.981a.764.687 0 0 0 .733.496h7.482v7.03h-5.476a.764.687 0 0 0-.724.466l-.966 2.576a.764.687 0 0 0 .724.908h6.442v8.113H16.931a.764.687 0 0 0-.734.496l-.968 2.982a.764.687 0 0 0 .734.879h28.075a.764.687 0 0 0 .734-.88l-.966-2.981a.764.687 0 0 0-.733-.496H32.208v-8.113h6.26a.764.687 0 0 0 .721-.908l-.965-2.576a.764.687 0 0 0-.725-.467h-5.29v-7.03h7.527a.764.687 0 0 0 .733-.495l.966-2.982a.764.687 0 0 0-.734-.879zm1.018 1.375h19.45l-.522 1.607h-7.719a.764.687 0 0 0-.762.687v8.404a.764.687 0 0 0 .762.688h5.508l.451 1.201h-5.959a.764.687 0 0 0-.762.687v9.49a.764.687 0 0 0 .762.686H42.5l.52 1.607H16.983l.522-1.607h10.923a.764.687 0 0 0 .765-.686v-9.49a.764.687 0 0 0-.765-.687h-6.142l.451-1.201h5.69a.764.687 0 0 0 .766-.688v-8.404a.764.687 0 0 0-.765-.687h-7.672z"
     enable-background="accumulate"
     opacity=".99"
     overflow="visible"
     id="path2" />
</svg>
