<?xml version="1.0" encoding="UTF-8" standalone="no"?>
<svg
   viewBox="0 0 60 60"
   version="1.1"
   id="svg23"
   sodipodi:docname="0TA.svg"
   inkscape:version="1.3 (0e150ed6c4, 2023-07-21)"
   xmlns:inkscape="http://www.inkscape.org/namespaces/inkscape"
   xmlns:sodipodi="http://sodipodi.sourceforge.net/DTD/sodipodi-0.dtd"
   xmlns="http://www.w3.org/2000/svg"
   xmlns:svg="http://www.w3.org/2000/svg">
  <sodipodi:namedview
     id="namedview23"
     pagecolor="#ffffff"
     bordercolor="#666666"
     borderopacity="1.0"
     inkscape:showpageshadow="2"
     inkscape:pageopacity="0.0"
     inkscape:pagecheckerboard="0"
     inkscape:deskcolor="#d1d1d1"
     inkscape:zoom="5.3799041"
     inkscape:cx="-63.291091"
     inkscape:cy="-9.6655998"
     inkscape:window-width="3840"
     inkscape:window-height="2054"
     inkscape:window-x="3829"
     inkscape:window-y="-11"
     inkscape:window-maximized="1"
     inkscape:current-layer="svg23" />
  <defs
     id="defs1">
    <filter
       id="0HI_svg__a"
       x="-0.1341634"
       y="-0.11018899"
       width="1.3183556"
       height="1.2615933">
      <feGaussianBlur
         in="SourceAlpha"
         result="blur"
         stdDeviation="2"
         id="feGaussianBlur1" />
      <feOffset
         dx="2"
         dy="2"
         result="offsetBlur"
         id="feOffset1" />
      <feBlend
         in="SourceGraphic"
         in2="offsetBlur"
         id="feBlend1" />
    </filter>
  </defs>
  <g
     fill="#fdc9dd"
     filter="url(#0HI_svg__a)"
     transform="matrix(1.05,0,0,1.05,41.426,-1.78)"
     id="g1">
    <path
       fill="#cdbc68"
       d="m -11.137026,6.4140256 -12.838,3.6080004 -7.051,44.45 H 8.9079744 c -2.303,-14.885 -4.076,-30.55 -6.79,-44.163 z"
       id="path1"
       style="fill:#e9dbc9;fill-opacity:1;stroke:#333333;stroke-width:0.952381;stroke-dasharray:none" />
  </g>
  <path
     id="path26076-6"
     style="color:#000000;font-style:normal;font-variant:normal;font-weight:normal;font-stretch:normal;font-size:29.072px;line-height:1.25;font-family:MingLiU_HKSCS-ExtB;-inkscape-font-specification:MingLiU_HKSCS-ExtB;font-variant-ligatures:normal;font-variant-position:normal;font-variant-caps:normal;font-variant-numeric:normal;font-variant-alternates:normal;font-variant-east-asian:normal;font-feature-settings:normal;font-variation-settings:normal;text-indent:0;text-align:start;text-decoration:none;text-decoration-line:none;text-decoration-style:solid;text-decoration-color:#000000;letter-spacing:0px;word-spacing:0px;text-transform:none;writing-mode:lr-tb;direction:ltr;text-orientation:mixed;dominant-baseline:auto;baseline-shift:baseline;text-anchor:start;white-space:normal;shape-padding:0;shape-margin:0;inline-size:0;clip-rule:nonzero;display:inline;overflow:visible;visibility:visible;opacity:0.99;isolation:auto;mix-blend-mode:normal;color-interpolation:sRGB;color-interpolation-filters:linearRGB;solid-color:#000000;solid-opacity:1;vector-effect:none;fill:#cc3300;fill-opacity:1;fill-rule:nonzero;stroke:none;stroke-width:0.487827;stroke-linecap:butt;stroke-linejoin:round;stroke-miterlimit:4;stroke-dasharray:none;stroke-dashoffset:0;stroke-opacity:1;color-rendering:auto;image-rendering:auto;shape-rendering:auto;text-rendering:auto;enable-background:accumulate;stop-color:#000000"
     d="m 23.441249,20.166309 c -0.384,0.01181 -0.6432,0.4032 -0.5088,0.7488 l 0.96,2.94912 c 0.08774,0.2208 0.3168,0.3552 0.5568,0.3456 h 7.77888 l -3.81024,2.928 v 4.20576 h -8.71776 c -0.2496,-0.0035 -0.48,0.1728 -0.5568,0.4128 l -0.96096,2.53728 c -0.1344,0.3744 0.1536,0.768 0.5568,0.7488 h 9.677664 v 8.16288 l -3.00672,-0.03571 c -0.2304,0.02381 -0.5376,-0.01699 -0.8256,0.01594 l 0.96864,1.28448 c 0.96864,1.2432 1.55712,1.89696 2.94336,2.7696 1.17312,-0.0239 2.33184,-0.4896 3.99648,-1.3776 l -0.03091,-2.65728 v -8.16192 h 8.80416 c 0.4032,0.01498 0.6912,-0.3744 0.5472,-0.7488 l -0.96,-2.77632 c -0.06893,-0.2496 -1.69248,-0.1728 -1.94784,-0.1728 h -6.44352 v -4.20096 l 3.65568,-2.9328 c 1.7712,-1.36608 2.54592,-1.65408 2.69472,-3.2928 0.1344,-0.3744 -0.1536,-0.768 -0.5472,-0.7488 l -14.776896,8.64e-4 c -0.0099,-7.68e-4 -0.03091,-9.6e-4 -0.04051,-8.64e-4 z"
     sodipodi:nodetypes="cccccccccccccccccccccccccccccccc" />
</svg>
