<?xml version="1.0" encoding="UTF-8" standalone="no"?>
<svg
   viewBox="0 0 60 60"
   version="1.1"
   id="svg10"
   sodipodi:docname="0UM.svg"
   inkscape:version="1.3 (0e150ed6c4, 2023-07-21)"
   inkscape:export-filename="0UM.png"
   inkscape:export-xdpi="320"
   inkscape:export-ydpi="320"
   xmlns:inkscape="http://www.inkscape.org/namespaces/inkscape"
   xmlns:sodipodi="http://sodipodi.sourceforge.net/DTD/sodipodi-0.dtd"
   xmlns="http://www.w3.org/2000/svg"
   xmlns:svg="http://www.w3.org/2000/svg">
  <sodipodi:namedview
     id="namedview10"
     pagecolor="#ffffff"
     bordercolor="#666666"
     borderopacity="1.0"
     inkscape:showpageshadow="2"
     inkscape:pageopacity="0.0"
     inkscape:pagecheckerboard="0"
     inkscape:deskcolor="#d1d1d1"
     inkscape:zoom="7.6083332"
     inkscape:cx="63.023002"
     inkscape:cy="41.927712"
     inkscape:window-width="3840"
     inkscape:window-height="2054"
     inkscape:window-x="-11"
     inkscape:window-y="-11"
     inkscape:window-maximized="1"
     inkscape:current-layer="svg10" />
  <defs
     id="defs1">
    <filter
       id="0UM_svg__a"
       x="-0.13416397"
       y="-0.10998295"
       width="1.318338"
       height="1.2611304">
      <feGaussianBlur
         in="SourceAlpha"
         result="blur"
         stdDeviation="2"
         id="feGaussianBlur1" />
      <feOffset
         dx="2"
         dy="2"
         result="offsetBlur"
         id="feOffset1" />
      <feBlend
         in="SourceGraphic"
         in2="offsetBlur"
         id="feBlend1" />
    </filter>
  </defs>
  <g
     fill="#fdc9dd"
     filter="url(#0UM_svg__a)"
     transform="translate(41.426 -1.827)scale(1.05)"
     id="g1">
    <path
       fill="#cdbc68"
       d="m -10.881905,6.1907419 -12.916095,3.608 -7.051,44.5400001 39.934,-0.09 -6.79,-44.163 z"
       id="path1"
       style="fill:#fdeb98;fill-opacity:1;stroke:#333333;stroke-width:0.952381;stroke-dasharray:none"
       sodipodi:nodetypes="cccccc" />
  </g>
  <path
     id="path6793"
     style="color:#000000;font-style:normal;font-variant:normal;font-weight:normal;font-stretch:normal;font-size:medium;line-height:normal;font-family:sans-serif;font-variant-ligatures:normal;font-variant-position:normal;font-variant-caps:normal;font-variant-numeric:normal;font-variant-alternates:normal;font-variant-east-asian:normal;font-feature-settings:normal;font-variation-settings:normal;text-indent:0;text-align:start;text-decoration:none;text-decoration-line:none;text-decoration-style:solid;text-decoration-color:#000000;letter-spacing:normal;word-spacing:normal;text-transform:none;writing-mode:lr-tb;direction:ltr;text-orientation:mixed;dominant-baseline:auto;baseline-shift:baseline;text-anchor:start;white-space:normal;shape-padding:0;shape-margin:0;inline-size:0;clip-rule:nonzero;display:inline;overflow:visible;visibility:visible;isolation:auto;mix-blend-mode:normal;color-interpolation:sRGB;color-interpolation-filters:linearRGB;solid-color:#000000;solid-opacity:1;fill:#cc3300;fill-opacity:1;fill-rule:nonzero;stroke:none;stroke-width:1.27592;stroke-linecap:butt;stroke-linejoin:round;stroke-miterlimit:4;stroke-dasharray:none;stroke-dashoffset:0;stroke-opacity:1;color-rendering:auto;image-rendering:auto;shape-rendering:auto;text-rendering:auto;enable-background:accumulate;stop-color:#000000"
     d="m 25.294093,9.7635962 -0.832197,1.1951548 c -0.451191,0.661747 -0.711879,0.972567 -0.952514,1.31447 -0.250662,0.3409 -0.451191,0.71188 -0.711879,1.37463 l -0.120318,0.240635 0.180476,0.240635 c 0.842224,0.942489 2.228885,1.734579 3.644623,2.449467 1.415737,0.711879 2.848519,1.363599 3.763936,1.792732 1.524024,0.982595 2.67406,2.192789 3.786999,3.471164 0.08372,1.222228 0.601587,2.100546 1.888986,3.339819 l -0.661747,0.711878 c -1.549089,-1.489932 -2.228885,-2.809417 -2.209834,-4.538982 h 0.110292 c -0.37098,-0.551457 -0.741959,-1.075841 -1.128982,-1.493945 -0.671773,-0.731933 -1.358585,-0.932462 -1.912047,-1.015682 -0.551455,-0.08483 -0.962541,-0.120317 -1.792733,-0.541429 -0.0024,-0.0013 -0.230608,-0.05976 -0.240635,-0.05976 h -2.01e-4 c -0.01045,0.0016 -0.300794,0.05976 -0.300794,0.05976 l -1.254311,0.541429 1.075841,0.541431 c 0.02096,0.02938 0.03138,0.05976 0.06286,0.120316 0.09425,0.180477 0.230609,0.441165 0.360954,0.782065 0.130344,0.350926 0.260688,0.762013 0.350926,1.18914 -4.15497,0.431139 -8.596696,3.353854 -10.990315,5.024264 -0.51135,0.401059 -0.17045,1.221224 0.481271,1.134996 1.565132,-0.230609 2.788361,-0.501323 4.056709,-0.962541 l 0.01045,-0.006 2e-4,7.01e-4 c 0.521377,-0.180477 1.114944,-0.280741 1.706506,-0.350926 0.782065,-0.08694 1.529037,-0.100265 2.051416,-0.100265 0.762011,-0.731932 1.697482,-1.289404 2.811422,-1.61727 0.260689,-0.471244 0.270716,-0.802118 0.180478,-1.263336 -0.100271,-0.491272 -0.350934,-1.036713 -0.300801,-1.732549 l 0.952515,0.05976 c -0.03147,0.421113 0.180477,0.892356 0.300794,1.493944 0.09435,0.461218 -0.08371,1.033729 -0.300794,1.61326 0.120317,0.100264 0.320847,0.250661 0.65172,0.481271 0.411085,0.270714 0.932462,0.601587 1.433785,0.892356 0.501324,0.290766 0.992622,0.571508 1.373627,0.782064 0.190503,0.100264 0.360953,0.180477 0.481271,0.240635 0.06287,0.02827 0.08383,0.04502 0.120317,0.05766 l -0.240635,0.952515 h -0.06277 c -0.02096,-0.0099 -0.09435,-0.05033 -0.120318,-0.05976 -0.05244,-0.02407 -0.05244,-0.02726 -0.120317,-0.05965 -0.130344,-0.06607 -0.3409,-0.190504 -0.54143,-0.300795 -0.391032,-0.210556 -0.862276,-0.48127 -1.374629,-0.782065 -0.51135,-0.300794 -1.060801,-0.611614 -1.493945,-0.892355 -0.290766,-0.190504 -0.521375,-0.360953 -0.711878,-0.531404 -1.826823,0.551456 -2.983878,1.815794 -3.832118,3.577445 -0.882329,1.834845 -1.389668,4.203097 -1.673417,6.690664 -0.280741,2.487567 -0.40106,5.077405 -0.601588,7.408559 -0.20053,2.331153 -0.471244,4.396607 -1.195155,5.854456 -0.120319,0.240635 -0.23061,0.401059 -0.280742,0.641694 0.892355,0.09325 1.798749,0.210556 2.728203,0.320847 4.04167,0.491298 8.410204,0.932462 12.725195,-0.481271 0.330873,-0.130344 0.491297,-0.501323 0.360953,-0.832197 -1.356582,-2.782345 -1.92809,-5.929654 -6.212401,-9.737707 -0.421112,-1.223229 -0.370979,-2.386301 -0.300795,-3.644622 0.02096,-0.300794 -0.03138,-0.621642 -0.09425,-0.942489 -0.561481,-0.842223 -1.080852,-2.116588 -1.559116,-4.169006 l 0.330874,-0.561482 0.591562,0.300794 c 0.461217,1.998276 1.10993,3.303721 1.49996,3.874228 0.531403,0.671773 0.631668,0.541429 0.892356,0.541429 0.792091,-0.01785 1.426767,-0.350926 2.150678,-0.601589 0.511349,2.479547 1.078848,4.634235 1.194152,7.109772 -0.01053,0.120317 0.006,0.250661 0.06277,0.360952 l 1.61326,2.389308 c 0.160422,0.230609 0.451191,0.330874 0.711879,0.240635 l 1.195155,-0.360953 c 0.350927,-0.100264 0.551455,-0.491297 0.421111,-0.832197 l -0.03147,-0.08483 1.501965,-0.772038 c 0.160424,0.250662 0.461217,0.350926 0.741959,0.250662 0.391032,-0.140371 0.842223,-0.270715 1.313467,-0.481271 0.471245,-0.210556 0.982594,-0.511349 1.31447,-1.074837 0.03144,-0.0754 0.05233,-0.160425 0.06288,-0.240636 0.0021,-0.01364 0.03144,-0.09425 0.300794,-0.300793 0.270715,-0.20053 0.741959,-0.491299 1.492941,-0.832197 0.421112,-0.210557 0.491297,-0.782065 0.120318,-1.075841 l -0.772039,-0.541429 c -2.000279,-2.913693 -3.571428,-5.172656 -3.944412,-8.65886 -0.0021,-0.01985 0.0021,-0.03871 0,-0.05966 l 0.48127,-2.808414 c 0.02099,-0.170503 -0.03144,-0.330926 -0.130346,-0.461271 -0.08387,-0.491297 -0.401059,-0.932461 -0.762011,-1.387663 -0.461218,-0.571509 -1.057793,-1.142016 -1.672416,-1.731572 -0.611615,-0.591562 -1.200168,-1.229245 -1.672414,-1.792732 -0.451192,-0.531404 -0.701853,-0.992621 -0.782065,-1.37463 l 2.390311,-3.405992 -4.360513,1.434789 c -0.832196,-0.160424 -2.619917,-0.782065 -4.42067,-1.673419 -1.851889,-0.912409 -3.748897,-2.088513 -4.720463,-3.047043 -0.06287,-0.06598 -0.280741,-0.411086 -0.421112,-0.71188 C 25.385069,11.567953 25.334937,11.217026 25.334937,11.207 Z m -0.65172,2.5166438 c 0.160424,0.360953 0.381006,0.741958 0.65172,1.008663 1.136,1.119956 3.055067,2.226879 4.959093,3.166358 1.904027,0.94249 3.709794,1.675424 4.779618,1.85189 h 0.120318 l 1.792733,-0.541429 -0.952515,1.374629 v 0.180476 c 0.100265,0.701854 0.551455,1.347558 1.07584,1.972207 0.521377,0.621642 1.177108,1.202174 1.791731,1.792733 0.581534,0.551455 1.138004,1.107925 1.537054,1.584183 L 37.786073,23.324397 C 36.42147,22.762914 36.2811,22.452094 35.754711,22.070085 c -0.08383,-0.06286 -0.190503,-0.130344 -0.310822,-0.180476 -1.34856,-1.575158 -2.726197,-3.148312 -4.711438,-4.418665 h -0.06287 c -0.952515,-0.451192 -2.329148,-1.038742 -3.703778,-1.731572 -1.258322,-0.631667 -2.404347,-1.40571 -3.106201,-2.091521 0.140371,-0.300795 0.270715,-0.631668 0.421113,-0.832198 0.08382,-0.120317 0.240635,-0.381005 0.360952,-0.531403 z m 12.629042,14.573073 h 0.661746 l 0.190503,0.300795 c 0.230609,0.360953 0.280742,0.671773 0.37098,0.972567 0.09425,0.300795 0.230608,0.681801 0.631667,1.351568 l 0.3409,0.551457 -0.561482,0.330873 c -0.330874,0.200529 -0.802117,0.220582 -1.142015,0.0754 -0.330874,-0.150398 -0.561482,-0.381006 -0.802118,-0.641694 l -0.0074,-0.0088 -0.0086,-0.0086 c -0.17045,-0.20053 -0.310821,-0.360953 -0.431138,-0.561482 -0.120318,-0.20053 -0.220583,-0.471245 -0.20053,-0.751986 0.04191,-0.561482 0.350927,-0.872303 0.762012,-1.379642 z m -12.326142,0.220583 c -0.370979,0.01364 -0.772038,0.0377 -1.185129,0.08272 -0.531404,0.06076 -1.063808,0.160423 -1.473891,0.300794 l 0.0013,0.0032 c -3.214486,0.902383 -5.306008,1.190142 -7.146868,4.29534 -0.240635,0.421112 0.05244,0.942488 0.541429,0.952516 l 0.88233,0.0367 0.0064,-0.0013 c 0.922436,-0.260689 0.701854,-0.190503 1.852893,-0.661747 l 0.0024,0.006 c 1.274363,-0.54143 2.409361,-0.71188 4.652282,-0.942488 0.240635,-0.88233 0.541429,-1.724553 0.912409,-2.492581 0.270714,-0.571509 0.591561,-1.09489 0.962541,-1.574156 z m -2.091523,4.94706 c -1.999277,0.210556 -2.9929,0.37098 -4.108847,0.85225 l 0.0028,0.0068 c -1.147028,0.471243 -0.942489,0.431137 -1.857906,0.691825 l -0.03147,0.01575 c -0.932461,0.561483 -1.917061,1.392678 -2.973851,2.709153 -0.671773,0.521376 -0.09425,1.221224 0.772038,1.016684 2.595854,-0.240636 4.957087,-1.248296 7.55996,-1.318481 0.01034,-0.100265 0.02096,-0.20053 0.03147,-0.300794 0.14037,-1.252306 0.330872,-2.494585 0.601587,-3.674702 z m 15.704661,2.776329 2.92773,3.46515 -0.140371,0.721905 -2.668042,1.125973 2.227879,1.164073 -0.02099,0.09325 c -0.02099,0.120319 -0.0093,0.240637 0.04188,0.350928 l -2.193791,-0.952515 -0.591561,-1.439801 c -0.190504,-1.21922 0.04191,-1.935109 0.300795,-2.748256 0.140369,-0.451191 0.05234,-1.191145 0.120316,-1.791729 z m -16.420149,2.049412 -0.0021,4e-4 c -0.862277,0.02407 -1.84086,0.0723 -4.098822,0.802119 -0.551455,0.270715 -1.138003,0.551455 -1.402702,0.792091 -1.565132,1.441806 -3.027995,3.154327 -3.583461,4.002567 -0.320847,0.501323 0.150397,1.120959 0.71188,0.952514 2.05342,-0.54143 2.926726,-0.491297 3.524303,-0.300794 0.431139,0.06186 0.330874,0.140371 0.802118,-0.100265 1.287399,-0.360953 2.221867,-0.852249 3.627577,-0.701852 0.130344,-1.727561 0.240636,-3.589477 0.421112,-5.451393 z m -0.912409,6.271556 -0.0015,6.02e-4 v 8.03e-4 c -0.872303,-0.0038 -1.580171,0.300794 -2.603874,0.611614 -3.129261,1.847879 -5.259887,4.358507 -5.870498,5.229807 -0.03138,0.03879 -0.220582,0.210556 -0.240636,0.240636 -0.320846,0.501322 0.150398,1.121962 0.711879,0.952514 2.024345,-0.762012 4.405632,-0.762012 7.001485,-0.531403 0.07331,-0.441164 0.230608,-0.792092 0.350927,-1.024706 0.601587,-1.196157 0.882328,-3.140289 1.07584,-5.437354 4.01e-4,-0.0055 2.01e-4,-0.01153 9.02e-4,-0.01775 -0.150397,-0.01675 -0.290767,-0.02517 -0.431138,-0.02517 z"
     sodipodi:nodetypes="ccccccsccccccccssscccccccccccscccccccccccccccccccccccccccccscccccccccccccccccccccccscccccccccsccccccscccccssccccccsccccccccccccccccsccccccccccccccccccccccccccccccccccccccccccccccccccsccccccccccss" />
</svg>
