<?xml version="1.0" encoding="UTF-8" standalone="no"?>
<svg
   viewBox="0 0 60 60"
   version="1.1"
   id="svg10"
   sodipodi:docname="0UM.svg"
   inkscape:version="1.3 (0e150ed6c4, 2023-07-21)"
   inkscape:export-filename="0UM.png"
   inkscape:export-xdpi="320"
   inkscape:export-ydpi="320"
   xmlns:inkscape="http://www.inkscape.org/namespaces/inkscape"
   xmlns:sodipodi="http://sodipodi.sourceforge.net/DTD/sodipodi-0.dtd"
   xmlns="http://www.w3.org/2000/svg"
   xmlns:svg="http://www.w3.org/2000/svg">
  <sodipodi:namedview
     id="namedview10"
     pagecolor="#ffffff"
     bordercolor="#666666"
     borderopacity="1.0"
     inkscape:showpageshadow="2"
     inkscape:pageopacity="0.0"
     inkscape:pagecheckerboard="0"
     inkscape:deskcolor="#d1d1d1"
     inkscape:zoom="7.6083329"
     inkscape:cx="57.371307"
     inkscape:cy="0.26286968"
     inkscape:window-width="3840"
     inkscape:window-height="2054"
     inkscape:window-x="-11"
     inkscape:window-y="-11"
     inkscape:window-maximized="1"
     inkscape:current-layer="svg10" />
  <defs
     id="defs1">
    <filter
       id="0UM_svg__a"
       x="-0.13416397"
       y="-0.10998295"
       width="1.318338"
       height="1.2611304">
      <feGaussianBlur
         in="SourceAlpha"
         result="blur"
         stdDeviation="2"
         id="feGaussianBlur1" />
      <feOffset
         dx="2"
         dy="2"
         result="offsetBlur"
         id="feOffset1" />
      <feBlend
         in="SourceGraphic"
         in2="offsetBlur"
         id="feBlend1" />
    </filter>
    <filter
       id="0UM_svg__a-8"
       x="-0.13416397"
       y="-0.10998295"
       width="1.318338"
       height="1.2611304">
      <feGaussianBlur
         in="SourceAlpha"
         result="blur"
         stdDeviation="2"
         id="feGaussianBlur1-7" />
      <feOffset
         dx="2"
         dy="2"
         result="offsetBlur"
         id="feOffset1-9" />
      <feBlend
         in="SourceGraphic"
         in2="offsetBlur"
         id="feBlend1-3"
         mode="normal" />
    </filter>
    <filter
       id="0RY_svg__a"
       x="-0.13416342"
       y="-0.11018441"
       width="1.3183422"
       height="1.261583">
      <feGaussianBlur
         in="SourceAlpha"
         result="blur"
         stdDeviation="2"
         id="feGaussianBlur1-6" />
      <feOffset
         dx="2"
         dy="2"
         result="offsetBlur"
         id="feOffset1-1" />
      <feBlend
         in="SourceGraphic"
         in2="offsetBlur"
         id="feBlend1-8"
         mode="normal" />
    </filter>
  </defs>
  <g
     fill="#fdc9dd"
     filter="url(#0UM_svg__a)"
     transform="translate(41.426 -1.827)scale(1.05)"
     id="g1">
    <path
       fill="#cdbc68"
       d="m -10.881905,6.1907419 -12.916095,3.608 -7.051,44.5400001 39.934,-0.09 -6.79,-44.163 z"
       id="path1"
       style="fill:#e9dbc9;fill-opacity:1;stroke:#333333;stroke-width:0.952381;stroke-dasharray:none"
       sodipodi:nodetypes="cccccc" />
  </g>
  <path
     id="path3"
     style="color:#000000;font-style:normal;font-variant:normal;font-weight:normal;font-stretch:normal;font-size:medium;line-height:normal;font-family:sans-serif;font-variant-ligatures:normal;font-variant-position:normal;font-variant-caps:normal;font-variant-numeric:normal;font-variant-alternates:normal;font-variant-east-asian:normal;font-feature-settings:normal;font-variation-settings:normal;text-indent:0;text-align:start;text-decoration:none;text-decoration-line:none;text-decoration-style:solid;text-decoration-color:#000000;letter-spacing:normal;word-spacing:normal;text-transform:none;writing-mode:lr-tb;direction:ltr;text-orientation:mixed;dominant-baseline:auto;baseline-shift:baseline;text-anchor:start;white-space:normal;shape-padding:0;shape-margin:0;inline-size:0;clip-rule:nonzero;display:inline;overflow:visible;visibility:visible;isolation:auto;mix-blend-mode:normal;color-interpolation:sRGB;color-interpolation-filters:linearRGB;solid-color:#000000;solid-opacity:1;fill:#cc3300;fill-opacity:1;fill-rule:nonzero;stroke:none;stroke-width:1.14624;stroke-linecap:butt;stroke-linejoin:round;stroke-miterlimit:4;stroke-dasharray:none;stroke-dashoffset:0;stroke-opacity:1;color-rendering:auto;image-rendering:auto;shape-rendering:auto;text-rendering:auto;enable-background:accumulate;stop-color:#000000"
     d="m 26.40632,9.9913763 c -0.14229,0.0027 -0.284845,0.02611 -0.428021,0.0767 -0.06748,0.02383 -0.236862,0.06985 -0.41911,0.137323 -0.182239,0.06748 -0.391122,0.151439 -0.577826,0.347767 -0.186704,0.196329 -0.286288,0.583214 -0.164078,0.888148 0.122211,0.304934 0.360095,0.551429 0.736553,0.841771 l 0.04639,0.03388 0.05168,0.02319 c 0.920316,0.398053 1.127538,0.759636 1.26088,1.214512 0.07077,1.231213 0.438458,1.773319 1.189548,2.614496 0.273075,0.248221 0.602727,0.481019 1.111066,0.852482 0.04839,0.03516 0.09607,0.06848 0.144463,0.103437 -1.268733,-0.645579 -2.121141,-1.159223 -2.869528,-1.897566 -0.09696,-0.07971 -0.13673,-0.299409 -0.140893,-0.308531 -0.401478,-0.900347 -0.485539,-1.285379 -1.046865,-2.131186 -0.329342,-0.49624 -0.827582,-0.934726 -1.358967,-1.244828 -0.265698,-0.155056 -0.541366,-0.290169 -0.822157,-0.360259 -0.280801,-0.07013 -0.567445,-0.07497 -0.854263,0.02849 -0.124968,0.04511 -0.564002,0.07049 -0.891709,0.472609 -0.163858,0.201049 -0.229556,0.534992 -0.144463,0.820376 0.0851,0.285384 0.266683,0.550096 0.558213,0.866745 l 0.06602,0.07131 0.08912,0.03926 c 0.920316,0.398053 1.127538,0.759636 1.26088,1.214512 0.156489,0.533787 0.134757,1.417178 0.518976,1.922531 0.756614,0.846692 1.274897,1.04492 2.546735,1.687121 1.271746,0.639425 2.245105,1.481725 3.067482,1.867241 0.0904,0.07698 0.160315,0.132968 0.246111,0.205094 -0.268711,-0.10582 -0.544115,-0.203514 -0.829289,-0.272865 C 27.0513,19.611042 25.8748,19.843347 25.815969,19.855455 l -1.127119,0.486871 c 1.649967,1.070277 3.179439,2.184996 4.030533,3.556153 -0.591515,-0.4147 -1.213134,-0.883099 -1.79412,-1.178847 -0.794636,-0.404445 -1.382808,-0.629381 -1.744191,-0.667001 -0.09439,-0.0099 -0.207751,-0.0095 -0.322803,-0.0018 -0.345166,0.0231 -0.716784,0.11192 -0.71872,0.194392 -5.11e-4,0.02529 0.172332,0.145477 0.383443,0.267515 0.443426,0.256347 1.062708,0.725422 1.753103,1.325081 0.266309,0.231319 0.569015,0.491455 0.674133,0.579607 0.105117,0.0883 0.19357,0.177254 0.196173,0.196182 0.0082,0.06091 -0.529669,-0.155977 -1.107505,-0.445854 -1.125731,-0.564696 -1.937743,-0.748122 -2.833853,-0.638466 -0.737247,0.09022 -1.280713,0.385872 -1.701384,0.923814 -0.335925,0.429564 -0.324046,0.504759 0.04639,0.288908 1.026238,-0.598125 2.3243,-0.45977 2.828502,0.3014 0.367984,0.555511 0.175217,1.325529 -0.433372,1.731709 -0.40933,0.273166 -1.125995,0.404317 -2.450419,0.449415 -1.385027,0.04712 -2.787285,0.439381 -3.6578,1.021899 -0.464482,0.31089 -1.139364,0.98205 -1.054006,1.04866 0.01561,0.0122 0.189781,-0.069 0.387005,-0.18012 1.17407,-0.6618 2.344132,-0.90597 3.582897,-0.74548 0.375171,0.0486 1.007336,0.22397 0.971962,0.2693 -0.01087,0.014 -0.258164,0.0848 -0.549291,0.15695 -0.939191,0.23257 -1.598531,0.58069 -2.204308,1.16635 -0.552771,0.5344 -0.927357,1.18487 -1.332222,2.31132 -0.249079,0.69303 -0.531221,1.71928 -0.483301,1.75668 0.01589,0.0124 0.342399,-0.38966 0.725851,-0.8935 0.871447,-1.14501 1.164912,-1.42469 1.872593,-1.78164 0.23203,-0.11703 0.389652,-0.16355 0.683053,-0.19974 0.210345,-0.026 0.365245,-0.0271 0.344198,-0.004 -0.02091,0.0237 -0.176907,0.10624 -0.345988,0.18191 -0.667001,0.29852 -0.906747,0.60194 -1.660366,2.11157 -0.76906,1.54086 -1.029955,1.84311 -1.663928,1.92253 -0.491127,0.0615 -1.10188,-0.18966 -1.408905,-0.57961 -0.09877,-0.12544 -0.193717,-0.22785 -0.210445,-0.2265 -0.05196,0.005 -0.0231,0.57583 0.041,0.82573 0.147167,0.5735 0.411193,0.99668 0.816807,1.30546 0.779871,0.59367 2.018873,0.57416 2.830292,-0.0464 0.440056,-0.3365 0.0578,0.26798 -0.59566,0.94165 -0.547959,0.56481 -0.594372,0.61936 -0.775789,0.90955 -0.340235,0.54424 -0.363419,0.85405 -0.156937,2.18826 0.203971,1.31798 0.175573,1.61264 -0.196182,2.05093 -0.207423,0.24463 -0.430797,0.40641 -0.71693,0.5172 -0.111455,0.0431 -0.20073,0.0971 -0.197963,0.11949 0.0097,0.0781 0.449407,0.25001 0.747255,0.29247 0.541357,0.0772 1.178435,-0.13725 1.667498,-0.5582 0.13462,-0.11589 0.26136,-0.20607 0.281777,-0.20153 0.06492,0.0144 -0.138574,0.63632 -0.313882,0.95948 -0.253124,0.46663 -0.605896,0.85754 -1.009418,1.1182 -0.192868,0.12466 -0.402062,0.23295 -0.465468,0.24076 -0.220225,0.0271 -0.217312,0.12656 0.01068,0.34421 0.414891,0.39572 0.90914,0.80624 1.465974,1.18419 -1.690517,0.65359 -3.176434,1.36076 -3.693475,4.19818 0.62224,-0.4049 2.289492,-1.2456 2.908765,-1.50164 3.141636,-1.71158 4.965048,-1.07616 8.325018,-1.16993 1.442535,-0.0565 5.029094,-0.59215 6.209876,-0.80789 1.221023,-0.22309 1.304308,-0.45269 3.23691,-0.92382 0.01077,-3.13593 -7.371793,-5.13107 -6.074333,-11.37822 0.0073,-0.10971 -0.0018,-0.22435 -0.01251,-0.33886 -0.318612,-0.0393 -0.668763,-0.0701 -1.027251,-0.091 -0.716985,-0.0419 -1.469563,-0.0452 -2.075906,-0.009 -0.303163,0.0184 -0.569883,0.0481 -0.770439,0.0838 -0.200556,0.0356 -0.344727,0.0969 -0.329935,0.0874 l -0.989795,0.63668 0.303181,-1.13782 c 0.329113,-1.23942 0.965963,-1.91745 1.687112,-2.26138 0.413786,-0.19732 0.812633,-0.26958 1.221643,-0.36739 -0.391369,-0.28104 -0.72859,-0.57852 -1.237687,-0.79897 -0.802452,-0.34749 -1.65613,-0.57362 -2.138326,-0.60101 l -0.77579,-0.0446 0.41732,-0.65631 c 0.473175,-0.74516 1.248453,-1.04738 1.981381,-1.17349 0.432669,-0.0745 0.797384,-0.0878 1.194899,-0.11236 -0.164726,-0.19398 -0.263269,-0.354423 -0.458346,-0.55108 -0.404655,-0.407906 -0.80973,-0.773698 -1.037953,-1.009418 l -0.376294,-0.386996 0.445855,-0.306751 c 0.573032,-0.392866 1.230044,-0.597842 1.895776,-0.677702 0.665768,-0.07935 1.34275,-0.0336 1.954626,0.07314 0.612416,0.106788 1.164767,0.277869 1.601517,0.47617 0.218371,0.09916 0.407057,0.20482 0.567125,0.322803 0.160069,0.117974 0.303784,0.236642 0.392355,0.460127 l -1.337563,0.04812 c -0.350927,-0.159338 -0.841086,-0.314367 -1.38037,-0.408408 -0.870863,-0.15186 -1.808839,-0.05543 -2.600234,0.260383 0.183463,0.175299 0.305519,0.289511 0.520767,0.506494 0.425537,0.429063 0.85586,0.888139 1.105715,1.351838 l 0.312102,0.57783 -0.649169,0.091 c -0.667402,0.0941 -1.387382,0.0801 -1.999213,0.18547 -0.288726,0.0498 -0.42468,0.25259 -0.643818,0.36025 0.459104,0.11852 0.877063,0.16376 1.367888,0.3763 0.87867,0.3805 1.731106,0.87472 2.27565,1.49452 l 0.449415,0.51184 -0.643817,0.22115 c -0.793357,0.27277 -1.511639,0.35149 -2.03488,0.60101 -0.348818,0.16634 -0.620779,0.47309 -0.859613,0.91311 0.167447,-0.0196 0.320576,-0.0455 0.511845,-0.0571 0.654318,-0.0394 1.43387,-0.0352 2.184695,0.009 0.750824,0.0436 1.46654,0.12393 2.017046,0.25324 0.275249,0.0647 0.50717,0.13464 0.713369,0.25504 0.03936,0.0229 0.07908,0.0491 0.11771,0.0784 0.283795,0.14339 0.601156,0.43006 0.791842,0.83821 1.364892,2.01178 0.984417,4.44763 3.766588,7.18898 l 1.296546,0.0784 c 0.25642,-0.0732 1.077683,-0.44563 1.31616,-0.74726 0.03442,1.46841 0.61321,3.1602 2.042021,4.61549 0.20724,0.2111 0.252211,0.34853 0.269295,0.49045 0.01707,0.14192 -0.01205,0.30877 -0.04995,0.52611 -0.03598,0.20612 -0.336939,0.6056 -0.699107,1.02011 -0.362167,0.41452 -0.802644,0.84905 -0.845341,1.49273 l 1.533746,-0.89171 c 0.357465,-0.40914 0.800589,-0.83941 0.909542,-1.46419 0.0336,-0.1925 0.09651,-0.46421 0.05707,-0.79184 -0.03945,-0.32763 -0.200173,-0.69354 -0.522538,-1.0219 -1.441722,-1.46854 -1.873204,-3.15881 -1.769155,-4.49244 0.0037,-0.0508 0.0105,-0.10021 0.01607,-0.14981 0.143358,0.0956 0.323278,0.12282 0.497582,0.0606 0.351283,-0.1261 0.366715,-0.1818 0.790052,-0.37096 0.423346,-0.18905 0.884285,-0.45861 1.182407,-0.96483 0.02822,-0.0678 0.04575,-0.14552 0.05524,-0.21758 0.0018,-0.0122 0.02913,-0.0855 0.271075,-0.27107 0.192274,-0.14243 0.502979,-0.33585 0.955919,-0.56178 0.109665,0.058 0.1878,0.13475 0.253243,0.23006 0.143505,0.20902 0.226616,0.57902 0.222927,1.0647 -0.0073,0.97137 -0.339468,2.3169 -0.494003,3.51691 -0.09173,0.71244 -0.05442,1.2406 0.103438,1.66572 0.157895,0.42511 0.436175,0.71413 0.695536,0.93451 l 2.141887,1.36611 c -0.377508,-1.22342 -1.128168,-1.70184 -1.551579,-2.06164 -0.211714,-0.17991 -0.341476,-0.31862 -0.429802,-0.55643 -0.0883,-0.23782 -0.135524,-0.60746 -0.05524,-1.23056 0.143523,-1.11461 0.494103,-2.4676 0.502924,-3.62748 0.0046,-0.57998 -0.07177,-1.13505 -0.383434,-1.58903 -0.08446,-0.123 -0.188156,-0.23132 -0.306751,-0.32637 0.03141,-0.19309 -0.03196,-0.40017 -0.206875,-0.53859 l -0.691965,-0.48688 c -1.364217,-1.98719 -2.221456,-2.83762 -2.384438,-4.34263 0.133835,-0.15255 0.261497,-0.32053 0.385224,-0.4958 0.328538,-0.46538 0.615785,-0.99227 0.815017,-1.46596 0.09962,-0.23684 0.17718,-0.45938 0.226497,-0.66522 0.04931,-0.20586 0.0919,-0.38262 0.02137,-0.62777 -0.246769,-0.85859 -0.829645,-1.752175 -1.38037,-2.480747 -0.275358,-0.364286 -0.542416,-0.682433 -0.761527,-0.922024 -0.03278,-0.03579 -0.06227,-0.06584 -0.09274,-0.09809 -0.0168,-0.188987 -0.06766,-0.375526 -0.144455,-0.561783 -0.08328,-0.202099 -0.194009,-0.403632 -0.312102,-0.609932 -0.302687,-0.518903 -0.707452,-1.052471 -1.125337,-1.603297 -0.41543,-0.552122 -0.808251,-1.139637 -1.119987,-1.653226 -0.149212,-0.242495 -0.263159,-0.46482 -0.342418,-0.667001 -0.07917,-0.202191 -0.124685,-0.383279 -0.139112,-0.543951 l 0.292488,-2.122264 c 0.03516,-0.04556 0.07186,-0.09293 0.105218,-0.137332 0.138647,-0.184732 0.259716,-0.357785 0.353119,-0.53324 0.0934,-0.175454 0.191388,-0.354671 0.140893,-0.633115 -0.04776,-0.263305 -0.154709,-0.425136 -0.296049,-0.670563 -0.141341,-0.245435 -0.319672,-0.52209 -0.508275,-0.790061 -0.188604,-0.267971 -0.385014,-0.525806 -0.568915,-0.732983 -0.09195,-0.103592 -0.180568,-0.193935 -0.272865,-0.272865 -0.0923,-0.07889 -0.16636,-0.160845 -0.370952,-0.203313 -0.02685,-0.0055 -0.05479,-0.0082 -0.082,-0.0091 -0.190575,-0.0064 -0.381635,0.09198 -0.477959,0.190823 -0.110076,0.112943 -0.162461,0.223749 -0.210445,0.337066 -0.09595,0.226653 -0.156243,0.47985 -0.215796,0.745474 -0.05953,0.265624 -0.115125,0.539202 -0.171209,0.766868 -0.05607,0.227666 -0.129579,0.417393 -0.146234,0.444074 l -0.02676,0.04283 -0.01607,0.04812 c -0.09067,0.259278 -0.260192,0.538289 -0.47439,0.873876 -0.50454,-0.296688 -1.051722,-0.642694 -1.606858,-1.041514 -0.666024,-0.476608 -1.164611,-0.854765 -1.578333,-1.225214 -0.413713,-0.370459 -0.74268,-0.732618 -1.071839,-1.178847 -0.0578,-0.13451 -0.111609,-0.254804 -0.164068,-0.369162 -9.13e-4,-0.0027 -0.0027,-0.0055 -0.0037,-0.0091 -0.118047,-0.321982 -0.13967,-0.603467 -0.18013,-0.939866 -0.04666,-0.38811 -0.126986,-0.856198 -0.447635,-1.339344 -0.329442,-0.496386 -0.827882,-0.933639 -1.358967,-1.243048 -0.265542,-0.154708 -0.540096,-0.290013 -0.820376,-0.36025 -0.140136,-0.03506 -0.28217,-0.05406 -0.424451,-0.05168 z m -0.07487,0.9291647 c 0.145029,-0.0082 0.498267,0.06054 0.859604,0.271076 0.412964,0.240596 0.832585,0.620478 1.057566,0.95948 0.08565,0.129105 0.139871,0.246631 0.181911,0.36382 l 0.0037,-0.0037 c 0,0 0.0073,0.03059 0.0091,0.03926 0.01854,0.05597 0.03187,0.119124 0.04456,0.176559 0.06282,0.253544 0.170451,0.66953 0.269295,0.904191 0.110633,0.262502 0.183271,0.514502 0.271085,0.745474 l 0.02319,-0.01068 c 0.03013,0.124028 0.0715,0.26325 0.205094,0.444074 0.192457,0.260712 0.380768,0.487775 0.574266,0.697316 0.193497,0.209541 0.392885,0.4004 0.611712,0.590318 0.437664,0.379828 0.950678,0.752533 1.635393,1.243038 0.547566,0.393387 1.076203,0.743392 1.576552,1.055795 -0.07935,0.128932 -0.162022,0.26715 -0.246111,0.41375 -0.276609,-0.08063 -0.586126,-0.18076 -0.936305,-0.306751 -0.793505,-0.580782 -2.013833,-1.516914 -2.833872,-2.115084 -0.452055,-0.328639 -0.708457,-0.530254 -0.911332,-0.729422 -0.111619,-0.109601 -0.209176,-0.225529 -0.312102,-0.354899 l -0.0037,-0.0037 c -0.104926,-0.09672 -0.1919,-0.213394 -0.263944,-0.344197 -0.0046,-0.0055 -0.0064,-0.0082 -0.01068,-0.01425 v -0.0018 h 0.0018 c -0.284681,-0.529614 -0.332053,-1.255301 -0.358469,-1.669288 -0.191425,-0.626176 -0.669631,-1.276093 -1.703165,-1.740621 -0.251316,-0.199615 -0.335952,-0.327533 -0.36739,-0.383434 0.03881,-0.02456 0.07497,-0.05214 0.165866,-0.08556 0.126914,-0.04703 0.26988,-0.083 0.408399,-0.131972 0.01169,-0.0046 0.02739,-0.0073 0.04812,-0.0091 z m -3.707738,1.139601 c 0.143514,-0.0082 0.496386,0.06017 0.857823,0.271084 0.413074,0.241053 0.832485,0.622113 1.057567,0.961261 0.288525,0.434742 0.426688,0.715825 0.567134,1.041523 0.198483,0.259032 0.489063,1.024193 0.827508,1.551579 1.012495,0.990663 2.006582,1.47191 3.704168,2.309526 1.477927,0.731567 2.886521,1.321684 3.862894,1.571201 l 0.04995,0.041 0.304971,0.0767 c 0.353712,-0.789149 0.808058,-1.490537 1.305467,-2.175773 0.147057,-0.202538 0.169729,-0.352882 0.215787,-0.447645 0.08857,-0.18212 0.106313,-0.21543 0.155165,-0.41553 0.114769,-0.46975 0.243162,-1.438106 0.349549,-1.398203 0.439006,0.527204 0.909012,1.043313 1.091452,1.662148 0,0 -0.07141,0.149768 -0.09274,0.185471 -0.02137,0.0357 -1.719217,2.33985 -1.719217,2.33985 l -0.36204,1.169925 0.0018,0.0018 c 0.01315,0.08063 0.03242,0.159858 0.05524,0.238979 0.03388,0.183938 0.104615,0.360552 0.221146,0.517187 0.179327,0.335916 0.41627,0.661322 0.683054,0.979103 0.46839,0.55846 1.058279,1.079892 1.610429,1.610429 0.438896,0.416196 0.842337,0.82665 1.178837,1.203811 -0.01607,-0.0027 -0.03004,-0.0046 -0.04639,-0.0073 -0.5078,-0.07268 -1.108089,-0.128539 -1.719217,-0.160507 -0.262703,-0.01379 -0.524163,-0.02274 -0.78114,-0.02858 -0.510784,-0.255549 -0.917712,-0.684903 -1.271552,-0.941615 -0.07533,-0.05652 -0.863868,-0.923367 -0.971963,-0.968402 -1.253867,-1.500672 -2.394034,-2.871327 -4.062637,-3.884297 -0.855705,-0.405331 -1.777282,-1.189576 -3.012202,-1.811953 -0.583132,-0.292726 -0.928499,-0.50801 -1.214504,-0.731202 -1.136185,-0.55772 -1.343973,-1.536978 -1.328651,-2.093739 -0.02082,-0.09683 -0.03251,-0.186823 -0.06246,-0.288918 -0.178258,-0.608069 -0.666554,-1.229551 -1.626481,-1.696033 -0.225028,-0.247527 -0.320987,-0.424214 -0.342418,-0.492222 0.01525,8.58e-4 0.213221,-0.09086 0.465469,-0.181911 0.01141,-0.0046 0.02767,-0.0073 0.04812,-0.0091 z m 13.637834,7.575983 -0.04282,0.54216 -0.01607,0.146235 c 0.0082,0.292561 0.08583,0.584894 0.203314,0.873876 0.117499,0.288982 0.276299,0.574896 0.449425,0.859613 0.315261,0.518949 0.718911,1.021873 1.105715,1.526614 -0.0046,-0.0046 -0.0093,-0.0095 -0.01425,-0.01424 -0.549456,-0.531431 -1.077399,-1.104218 -1.50164,-1.610429 -0.405337,-0.477397 -0.630611,-0.889165 -0.702674,-1.232349 l 0.404838,-0.922034 0.0018,-0.0018 c 0.0357,-0.05533 0.07369,-0.111199 0.112359,-0.167638 z m -0.313891,6.443505 c 0.256,-7.3e-5 0.521652,0.0055 0.790061,0.01963 0.587177,0.03068 1.163424,0.08583 1.635402,0.153375 0.433647,0.06209 0.786437,0.147879 0.922025,0.197963 0.0179,0.01187 0.04566,0.03105 0.07131,0.05524 0.06027,0.05698 0.145778,0.143715 0.244321,0.251462 0.197105,0.215531 0.450311,0.515114 0.708018,0.856043 0.509371,0.67386 1.032356,1.52571 1.221644,2.16151 -0.0046,0.004 9.13e-4,0.0839 -0.02319,0.18548 -0.03242,0.13547 -0.09459,0.32097 -0.18012,0.52433 -0.171072,0.40673 -0.434614,0.89053 -0.71872,1.29298 -0.284106,0.40244 -0.610818,0.71802 -0.788272,0.8061 -0.08875,0.044 -0.109089,0.0327 -0.105227,0.0339 0.0027,8.2e-4 -0.03324,-0.0459 -0.06419,-0.0874 -9.13e-4,-0.0188 -0.0027,-0.0295 -0.0037,-0.0571 -0.0027,-0.0998 -0.0037,-0.24844 -0.0018,-0.42267 0.0027,-0.34843 0.0115,-0.80668 0.0037,-1.27513 -0.0082,-0.46847 -0.03223,-0.9443 -0.09809,-1.35541 -0.03296,-0.20556 -0.07488,-0.39441 -0.144464,-0.5707 -0.06958,-0.17629 -0.162616,-0.36122 -0.379864,-0.49045 -0.439563,-0.261437 -1.024146,-0.431715 -1.537316,-0.559989 -0.256575,-0.0641 -0.491756,-0.114394 -0.672342,-0.148024 -0.09031,-0.0168 -0.165648,-0.02867 -0.228279,-0.03744 -0.03132,-0.0046 -0.05798,-0.0082 -0.08738,-0.01068 -0.0294,-0.0027 -0.01708,-0.02182 -0.160507,0.0073 h -0.0018 c 0.01826,-0.0037 -0.309746,-0.042 -0.6563,-0.208665 -0.346553,-0.16667 -0.745291,-0.418251 -1.075409,-0.675913 -0.249453,-0.194712 -0.383735,-0.360488 -0.502924,-0.506494 0.386621,-0.08163 1.065365,-0.138903 1.833356,-0.139104 z m 1.344704,2.609153 c 0.425346,0.1071 0.912263,0.2674 1.193109,0.41018 9.13e-4,9e-4 0.0027,8.8e-4 0.0037,0.002 0.02639,0.0247 0.05123,0.0534 0.0767,0.0803 6.21e-4,0.002 9.13e-4,0.002 0.0018,0.004 0.03105,0.0786 0.0662,0.21443 0.09274,0.37987 0.05305,0.33089 0.07798,0.77913 0.08556,1.227 0.0055,0.35452 0.0018,0.69698 -0.0018,1.00586 l -0.07488,0.0446 c -0.297255,0.18015 -0.720108,0.19627 -1.025462,0.066 -0.297245,-0.13511 -0.50433,-0.34185 -0.720509,-0.57604 l -0.0091,-0.009 -0.0073,-0.007 c -0.153111,-0.18014 -0.280719,-0.32456 -0.388795,-0.5047 -0.107993,-0.18015 -0.198145,-0.42372 -0.18012,-0.67593 0.03159,-0.42365 0.179271,-0.65503 0.861394,-1.44457 0.03269,-0.003 0.06127,-5e-4 0.09273,-0.002 z m -14.333362,2.45042 1.166288,0.18904 c -1.222402,1.52414 -1.815423,2.95769 -1.892216,4.02519 -0.07679,1.06749 0.157448,2.19879 0.189042,3.73984 0.07688,3.74874 -0.09522,4.64576 -0.816806,7.80782 l -1.173419,0.21044 c 0.719633,-3.15359 0.940926,-4.29187 0.864955,-7.99864 -0.02977,-1.45285 -0.276098,-2.58754 -0.187261,-3.82366 0.08894,-1.2362 0.548479,-2.52795 1.849417,-4.15003 z m 13.960629,3.96633 c 1.395528,0.0476 1.860284,2.81886 2.327368,3.90391 0.04785,0.0908 0.116541,0.17736 0.187252,0.2586 -0.299966,0.52787 -0.493866,1.18398 -0.551072,1.91718 -0.0097,0.12467 -0.01452,0.25279 -0.01607,0.38166 -0.136355,-0.0247 -0.375526,-0.0167 -0.488661,-0.11058 l -0.06419,-0.5814 -0.590309,-0.0713 c -0.254201,-0.29489 -0.365117,-0.50653 -0.467258,-0.76866 -0.560897,-1.82049 -2.67877,-3.49027 -0.995146,-4.77065 0.240012,-0.11729 0.45872,-0.16552 0.65808,-0.15873 z m 4.966829,1.44101 c 0.02968,-8.1e-4 0.06027,0.007 0.09274,0.0268 0.636311,0.37501 0.676169,0.99259 0.932735,1.48738 2.83e-4,-0.005 -0.06757,0.49098 -0.784711,0.10879 -0.289128,-0.64551 -0.08967,-0.62515 -0.593879,-1.2252 0.07323,-0.13215 0.192831,-0.39333 0.353119,-0.39771 z"
     sodipodi:nodetypes="cscsscccccccccssccsscccccccccccccccccscccsscccccccccccsccscccccsccccccscccccsccccccccscccccccccccscccccccccccssccscccccccscccscccccccccccccscccccccccccccccccccsccccccccssccsccccccccccsssssccsscccccccccccccssccccccccccccccscccccccccccccccccccccssccccccccccccccccccccccccccccccccccccccccccccccccccccccsccsscccccccscccccccsscccccccccccccccccccccccsccccccccccccccccccccccccc" />
</svg>
