<?xml version="1.0" encoding="UTF-8" standalone="no"?>
<svg
   viewBox="0 0 60 60"
   version="1.1"
   id="svg10"
   sodipodi:docname="0UM.svg"
   inkscape:version="1.3 (0e150ed6c4, 2023-07-21)"
   inkscape:export-filename="0UM.png"
   inkscape:export-xdpi="320"
   inkscape:export-ydpi="320"
   xmlns:inkscape="http://www.inkscape.org/namespaces/inkscape"
   xmlns:sodipodi="http://sodipodi.sourceforge.net/DTD/sodipodi-0.dtd"
   xmlns="http://www.w3.org/2000/svg"
   xmlns:svg="http://www.w3.org/2000/svg">
  <sodipodi:namedview
     id="namedview10"
     pagecolor="#ffffff"
     bordercolor="#666666"
     borderopacity="1.0"
     inkscape:showpageshadow="2"
     inkscape:pageopacity="0.0"
     inkscape:pagecheckerboard="0"
     inkscape:deskcolor="#d1d1d1"
     inkscape:zoom="15.216666"
     inkscape:cx="35.717417"
     inkscape:cy="31.150056"
     inkscape:window-width="3840"
     inkscape:window-height="2054"
     inkscape:window-x="3829"
     inkscape:window-y="-11"
     inkscape:window-maximized="1"
     inkscape:current-layer="svg10" />
  <defs
     id="defs1">
    <filter
       id="0UM_svg__a"
       x="-0.13416397"
       y="-0.10998295"
       width="1.318338"
       height="1.2611304">
      <feGaussianBlur
         in="SourceAlpha"
         result="blur"
         stdDeviation="2"
         id="feGaussianBlur1" />
      <feOffset
         dx="2"
         dy="2"
         result="offsetBlur"
         id="feOffset1" />
      <feBlend
         in="SourceGraphic"
         in2="offsetBlur"
         id="feBlend1" />
    </filter>
  </defs>
  <g
     fill="#fdc9dd"
     filter="url(#0UM_svg__a)"
     transform="translate(41.426 -1.827)scale(1.05)"
     id="g1">
    <path
       fill="#cdbc68"
       d="m -10.881905,6.1907419 -12.916095,3.608 -7.051,44.5400001 39.934,-0.09 -6.79,-44.163 z"
       id="path1"
       style="fill:#e9dbc9;fill-opacity:1;stroke:#333333;stroke-width:0.952381;stroke-dasharray:none"
       sodipodi:nodetypes="cccccc" />
  </g>
  <path
     id="path6793-6-0-9"
     style="color:#000000;font-style:normal;font-variant:normal;font-weight:normal;font-stretch:normal;font-size:medium;line-height:normal;font-family:sans-serif;font-variant-ligatures:normal;font-variant-position:normal;font-variant-caps:normal;font-variant-numeric:normal;font-variant-alternates:normal;font-variant-east-asian:normal;font-feature-settings:normal;font-variation-settings:normal;text-indent:0;text-align:start;text-decoration:none;text-decoration-line:none;text-decoration-style:solid;text-decoration-color:#000000;letter-spacing:normal;word-spacing:normal;text-transform:none;writing-mode:lr-tb;direction:ltr;text-orientation:mixed;dominant-baseline:auto;baseline-shift:baseline;text-anchor:start;white-space:normal;shape-padding:0;shape-margin:0;inline-size:0;clip-rule:nonzero;display:inline;overflow:visible;visibility:visible;isolation:auto;mix-blend-mode:normal;color-interpolation:sRGB;color-interpolation-filters:linearRGB;solid-color:#000000;solid-opacity:1;fill:#cc3300;fill-opacity:1;fill-rule:nonzero;stroke:none;stroke-width:1.25531;stroke-linecap:butt;stroke-linejoin:round;stroke-miterlimit:4;stroke-dasharray:none;stroke-dashoffset:0;stroke-opacity:1;color-rendering:auto;image-rendering:auto;shape-rendering:auto;text-rendering:auto;enable-background:accumulate;stop-color:#000000"
     d="m 26.044169,8.2112053 c -0.15583,0.003 -0.31195,0.0286 -0.46875,0.084 -0.0739,0.0261 -0.2594,0.0765 -0.45899,0.15039 -0.19958,0.0739 -0.42834,0.16585 -0.63281,0.38086 -0.20447,0.21501 -0.31353,0.63871 -0.17969,0.97266 0.13384,0.3339497 0.39436,0.6038997 0.80664,0.9218697 l 0.0508,0.0371 0.0566,0.0254 c 1.00789,0.43593 1.23483,0.83192 1.38086,1.33008 0.0775,1.34837 0.48018,1.94206 1.30274,2.86328 0.29906,0.27184 0.66008,0.52679 1.21679,0.9336 0.053,0.0385 0.10521,0.075 0.15821,0.11328 -1.38946,-0.70701 -2.32298,-1.26953 -3.14258,-2.07813 -0.10619,-0.0873 -0.14974,-0.3279 -0.1543,-0.33789 -0.43968,-0.98602 -0.53174,-1.40769 -1.14648,-2.33398 -0.36068,-0.54346 -0.90633,-1.02367 -1.48828,-1.3632797 -0.29098,-0.16981 -0.59288,-0.31778 -0.90039,-0.39454 -0.30752,-0.0768 -0.62144,-0.0821 -0.93555,0.0312 -0.13686,0.0494 -0.61767,0.0772 -0.97656,0.5175797 -0.17945,0.22018 -0.2514,0.5859 -0.15821,0.89844 0.0932,0.31254 0.29206,0.60244 0.61133,0.94922 l 0.0723,0.0781 0.0976,0.043 c 1.00789,0.43593 1.23483,0.83192 1.38086,1.33008 0.17138,0.58458 0.14758,1.55203 0.56836,2.10547 0.82861,0.92726 1.39621,1.14435 2.78907,1.84766 1.39276,0.70027 2.45874,1.62272 3.35937,2.04492 0.099,0.0843 0.17557,0.14562 0.26953,0.22461 -0.29428,-0.11589 -0.59589,-0.22288 -0.9082,-0.29883 -1.86392,-0.54111 -3.15237,-0.2867 -3.2168,-0.27344 l -1.23437,0.5332 c 1.80697,1.17212 3.48198,2.39291 4.41406,3.89454 -0.6478,-0.45416 -1.32857,-0.96713 -1.96484,-1.29102 -0.87025,-0.44293 -1.51439,-0.68927 -1.91016,-0.73047 -0.10337,-0.0108 -0.22752,-0.0104 -0.35352,-0.002 -0.37801,0.0253 -0.78499,0.12257 -0.78711,0.21289 -5.6e-4,0.0277 0.18873,0.15932 0.41993,0.29297 0.48562,0.28074 1.16383,0.79445 1.91992,1.45117 0.29165,0.25333 0.62316,0.53822 0.73828,0.63476 0.11512,0.0967 0.21199,0.19412 0.21484,0.21485 0.009,0.0667 -0.58007,-0.17082 -1.21289,-0.48828 -1.23285,-0.61843 -2.12213,-0.81931 -3.10351,-0.69922 -0.8074,0.0988 -1.40258,0.42259 -1.86328,1.01172 -0.36789,0.47044 -0.35488,0.55279 0.0508,0.3164 1.12389,-0.65504 2.54547,-0.50352 3.09765,0.33008 0.403,0.60837 0.19189,1.45166 -0.47461,1.89649 -0.44828,0.29916 -1.23314,0.44279 -2.68359,0.49218 -1.51682,0.0516 -3.05251,0.48119 -4.00586,1.11914 -0.50868,0.34047 -1.24778,1.07549 -1.1543,1.14844 0.0171,0.0134 0.20784,-0.0756 0.42383,-0.19726 1.28579,-0.72477 2.56719,-0.99217 3.92383,-0.81641 0.41087,0.0532 1.10319,0.24528 1.06445,0.29492 -0.0119,0.0153 -0.28273,0.0929 -0.60156,0.17188 -1.02856,0.25471 -1.75064,0.63595 -2.41406,1.27734 -0.60537,0.58524 -1.0156,1.29761 -1.45899,2.53125 -0.27278,0.75897 -0.58177,1.88288 -0.52929,1.92383 0.0174,0.0136 0.37498,-0.42673 0.79492,-0.97852 0.95437,-1.25396 1.27576,-1.56025 2.05078,-1.95117 0.25411,-0.12817 0.42673,-0.17911 0.74805,-0.21875 0.23036,-0.0285 0.4,-0.0297 0.37695,-0.004 -0.0229,0.026 -0.19374,0.11635 -0.37891,0.19922 -0.73047,0.32693 -0.99303,0.65922 -1.81836,2.3125 -0.84224,1.68748 -1.12796,2.01849 -1.82226,2.10547 -0.53786,0.0674 -1.20673,-0.2077 -1.54297,-0.63476 -0.10817,-0.13738 -0.21215,-0.24953 -0.23047,-0.24805 -0.0569,0.005 -0.0253,0.63062 0.0449,0.9043 0.16117,0.62807 0.45032,1.09152 0.89453,1.42968 0.85408,0.65016 2.21098,0.6288 3.09961,-0.0508 0.48193,-0.36852 0.0633,0.29348 -0.65234,1.03125 -0.6001,0.61856 -0.65093,0.6783 -0.84961,0.9961 -0.37261,0.59603 -0.398,0.93532 -0.17187,2.39648 0.22338,1.4434 0.19228,1.76609 -0.21485,2.24609 -0.22716,0.26791 -0.47179,0.44508 -0.78515,0.56641 -0.12206,0.0472 -0.21983,0.10631 -0.2168,0.13086 0.0106,0.0855 0.49217,0.27381 0.81836,0.32031 0.59287,0.0845 1.29057,-0.15032 1.82617,-0.61132 0.14743,-0.12692 0.28623,-0.22568 0.30859,-0.22071 0.0711,0.0158 -0.15176,0.69687 -0.34375,1.05078 -0.27721,0.51104 -0.66355,0.93914 -1.10547,1.22461 -0.21122,0.13652 -0.44032,0.25511 -0.50976,0.26367 -0.24118,0.0297 -0.23799,0.1386 0.0117,0.37696 0.45437,0.43337 0.99565,0.88296 1.60547,1.29687 -1.85138,0.71578 -3.47869,1.49025 -4.04493,4.59766 0.68145,-0.44343 2.50735,-1.36412 3.18555,-1.64453 3.44058,-1.87444 5.4375,-1.17856 9.11719,-1.28125 1.5798,-0.0619 5.50764,-0.6485 6.80078,-0.88477 1.33721,-0.24432 1.42842,-0.49576 3.54492,-1.01172 0.0118,-3.43434 -8.07326,-5.61933 -6.65234,-12.46093 0.008,-0.12014 -0.002,-0.24569 -0.0137,-0.3711 -0.34893,-0.043 -0.7324,-0.0768 -1.125,-0.0996 -0.78521,-0.0459 -1.6094,-0.0495 -2.27344,-0.01 -0.33201,0.0201 -0.62411,0.0527 -0.84375,0.0918 -0.21964,0.039 -0.37753,0.10614 -0.36133,0.0957 l -1.08398,0.69726 0.33203,-1.24609 c 0.36043,-1.35736 1.05788,-2.0999 1.84765,-2.47656 0.45316,-0.2161 0.88996,-0.29523 1.33789,-0.40235 -0.42861,-0.30778 -0.79792,-0.63357 -1.35546,-0.875 -0.87881,-0.38055 -1.81372,-0.6282 -2.3418,-0.6582 l -0.84961,-0.0488 0.45703,-0.71875 c 0.5182,-0.81607 1.36725,-1.14704 2.16992,-1.28515 0.47384,-0.0816 0.87326,-0.0962 1.3086,-0.12305 -0.1804,-0.21244 -0.28832,-0.38815 -0.50196,-0.60352 -0.44316,-0.44672 -0.88678,-0.84732 -1.13672,-1.10547 l -0.4121,-0.42382 0.48828,-0.33594 c 0.62756,-0.43025 1.34709,-0.65473 2.07617,-0.74219 0.72912,-0.0869 1.47052,-0.0368 2.14062,0.0801 0.67069,0.11695 1.2756,0.30431 1.75391,0.52148 0.23915,0.10859 0.44579,0.22431 0.62109,0.35352 0.1753,0.1292 0.33269,0.25916 0.42969,0.50391 l -1.46484,0.0527 c -0.38432,-0.1745 -0.92112,-0.34428 -1.51172,-0.44727 -0.95373,-0.16631 -1.98096,-0.0607 -2.84766,0.28516 0.20092,0.19198 0.33459,0.31706 0.57032,0.55469 0.46603,0.46989 0.9373,0.97265 1.21093,1.48047 l 0.3418,0.63281 -0.71094,0.0996 c -0.73091,0.10311 -1.5194,0.0877 -2.18945,0.20312 -0.3162,0.0545 -0.46509,0.27663 -0.70508,0.39453 0.50279,0.1298 0.96052,0.17934 1.49805,0.41211 0.96228,0.4167 1.89583,0.95795 2.49219,1.63672 l 0.49218,0.56055 -0.70508,0.24219 c -0.86885,0.29873 -1.65548,0.38494 -2.22851,0.6582 -0.38201,0.18217 -0.67985,0.51811 -0.94141,1 0.18338,-0.0215 0.35108,-0.0498 0.56055,-0.0625 0.71658,-0.0432 1.57031,-0.0386 2.39258,0.01 0.82227,0.0478 1.60609,0.13572 2.20898,0.27734 0.30144,0.0708 0.55543,0.14745 0.78125,0.2793 0.0431,0.0251 0.0866,0.0538 0.12891,0.0859 0.3108,0.15703 0.65836,0.47098 0.86719,0.91797 1.49477,2.20321 1.07809,4.87084 4.125,7.87305 l 1.41992,0.0859 c 0.28082,-0.0802 1.18023,-0.48803 1.4414,-0.81836 0.0377,1.60813 0.67156,3.46091 2.23633,5.05468 0.22696,0.23118 0.27621,0.38169 0.29492,0.53711 0.0187,0.15543 -0.0132,0.33816 -0.0547,0.57618 -0.0394,0.22573 -0.369,0.66322 -0.76563,1.11718 -0.39663,0.45396 -0.87902,0.92984 -0.92578,1.63477 l 1.67969,-0.97656 c 0.39148,-0.44807 0.87677,-0.91929 0.99609,-1.60352 0.0368,-0.21082 0.10569,-0.50838 0.0625,-0.86719 -0.0432,-0.3588 -0.21922,-0.75953 -0.57226,-1.11914 -1.57891,-1.60828 -2.05145,-3.45938 -1.9375,-4.91992 0.004,-0.0556 0.0115,-0.10974 0.0176,-0.16406 0.157,0.10472 0.35404,0.13451 0.54493,0.0664 0.38471,-0.1381 0.40161,-0.1991 0.86523,-0.40626 0.46363,-0.20704 0.96843,-0.50225 1.29492,-1.05664 0.0309,-0.0742 0.0501,-0.15937 0.0605,-0.23828 0.002,-0.0134 0.0319,-0.0936 0.29687,-0.29687 0.21057,-0.15598 0.55084,-0.36781 1.04688,-0.61524 0.1201,0.0635 0.20567,0.14758 0.27734,0.25196 0.15716,0.22891 0.24818,0.63411 0.24414,1.16601 -0.008,1.0638 -0.37177,2.53736 -0.54101,3.85156 -0.10046,0.78024 -0.0596,1.35865 0.11328,1.82422 0.17292,0.46557 0.47768,0.78209 0.76172,1.02344 l 2.3457,1.4961 c -0.41343,-1.33983 -1.23552,-1.86378 -1.69922,-2.25782 -0.23186,-0.19702 -0.37397,-0.34893 -0.4707,-0.60937 -0.0967,-0.26045 -0.14842,-0.66527 -0.0605,-1.34766 0.15718,-1.22067 0.54112,-2.7024 0.55078,-3.97265 0.005,-0.63517 -0.0786,-1.24306 -0.41992,-1.74024 -0.0925,-0.1347 -0.20606,-0.25333 -0.33594,-0.35742 0.0344,-0.21147 -0.035,-0.43825 -0.22656,-0.58984 l -0.75781,-0.53321 c -1.49403,-2.17628 -2.43284,-3.10764 -2.61133,-4.75586 0.14657,-0.16706 0.28638,-0.35103 0.42188,-0.54297 0.3598,-0.50967 0.67438,-1.0867 0.89257,-1.60546 0.1091,-0.25938 0.19404,-0.50309 0.24805,-0.72852 0.054,-0.22544 0.10065,-0.41902 0.0234,-0.6875 -0.27025,-0.94029 -0.90859,-1.9189 -1.51172,-2.7168 -0.30156,-0.39895 -0.59403,-0.74737 -0.83399,-1.00976 -0.0359,-0.0392 -0.0682,-0.0721 -0.10156,-0.10742 -0.0184,-0.20697 -0.0741,-0.41126 -0.1582,-0.61524 -0.0912,-0.22133 -0.21247,-0.44204 -0.3418,-0.66797 -0.33149,-0.56828 -0.77477,-1.15262 -1.23242,-1.75586 -0.45496,-0.60466 -0.88516,-1.24808 -1.22656,-1.81054 -0.16341,-0.26557 -0.2882,-0.50905 -0.375,-0.73047 -0.0867,-0.22143 -0.13655,-0.41975 -0.15235,-0.59571 l 0.32032,-2.32421 c 0.0385,-0.0499 0.0787,-0.10177 0.11523,-0.1504 0.15184,-0.20231 0.28443,-0.39183 0.38672,-0.58398 0.10229,-0.19215 0.2096,-0.38842 0.1543,-0.69336 -0.0523,-0.28836 -0.16943,-0.46559 -0.32422,-0.73437 -0.15479,-0.26879 -0.35009,-0.57177 -0.55664,-0.86524 -0.20655,-0.29347 -0.42165,-0.57584 -0.62305,-0.80273 -0.1007,-0.11345 -0.19775,-0.21239 -0.29883,-0.29883 -0.10108,-0.0864 -0.18219,-0.17615 -0.40625,-0.22266 -0.0294,-0.006 -0.06,-0.009 -0.0898,-0.01 -0.20871,-0.007 -0.41795,0.10073 -0.52344,0.20898 -0.12055,0.12369 -0.17792,0.24504 -0.23047,0.36914 -0.10508,0.24822 -0.17111,0.52551 -0.23633,0.81641 -0.0652,0.2909 -0.12608,0.59051 -0.1875,0.83984 -0.0614,0.24933 -0.14191,0.45711 -0.16015,0.48633 l -0.0293,0.0469 -0.0176,0.0527 c -0.0993,0.28395 -0.28495,0.58951 -0.51953,0.95703 -0.55255,-0.32492 -1.1518,-0.70385 -1.75976,-1.14062 -0.7294,-0.52196 -1.27543,-0.9361 -1.72852,-1.3418 -0.45308,-0.40571 -0.81335,-0.80233 -1.17383,-1.29102 -0.0633,-0.14731 -0.12223,-0.27905 -0.17968,-0.40429 -0.001,-0.003 -0.003,-0.006 -0.004,-0.01 -0.12928,-0.35262 -0.15296,-0.66089 -0.19727,-1.0293 -0.0511,-0.42504 -0.13907,-0.93767 -0.49023,-1.46679 -0.36079,-0.5436197 -0.90666,-1.0224797 -1.48828,-1.3613297 -0.29081,-0.16943 -0.59149,-0.31761 -0.89844,-0.39453 -0.15347,-0.0384 -0.30902,-0.0592 -0.46484,-0.0566 z m -0.082,1.01758 c 0.15883,-0.009 0.54568,0.0663 0.9414,0.29687 0.45226,0.26349 0.91181,0.6795197 1.1582,1.0507797 0.0938,0.14139 0.15318,0.2701 0.19922,0.39844 l 0.004,-0.004 c 0,0 0.008,0.0335 0.01,0.043 0.0203,0.0613 0.0349,0.13046 0.0488,0.19336 0.0688,0.27767 0.18667,0.73324 0.29492,0.99023 0.12116,0.28748 0.20071,0.56346 0.29688,0.81641 l 0.0254,-0.0117 c 0.033,0.13583 0.0783,0.2883 0.22461,0.48633 0.21077,0.28552 0.417,0.53419 0.62891,0.76367 0.21191,0.22948 0.43027,0.4385 0.66992,0.64649 0.47931,0.41597 1.04114,0.82414 1.79101,1.36132 0.59967,0.43082 1.17861,0.81413 1.72657,1.15626 -0.0869,0.1412 -0.17744,0.29257 -0.26953,0.45312 -0.30293,-0.0883 -0.6419,-0.19796 -1.0254,-0.33594 -0.86899,-0.6361 -2.20544,-1.66131 -3.10351,-2.3164 -0.49507,-0.35991 -0.77587,-0.58071 -0.99805,-0.79883 -0.12224,-0.12003 -0.22908,-0.24699 -0.3418,-0.38867 l -0.004,-0.004 c -0.11491,-0.10592 -0.21016,-0.2337 -0.28906,-0.37695 -0.005,-0.006 -0.007,-0.009 -0.0117,-0.0156 v -0.002 h 0.002 c -0.31177,-0.58001 -0.36365,-1.37475 -0.39258,-1.82813 -0.20964,-0.68576 -0.73335,-1.39752 -1.86523,-1.9062497 -0.27523,-0.21861 -0.36792,-0.3587 -0.40235,-0.41992 0.0425,-0.0269 0.0821,-0.0571 0.18165,-0.0937 0.13899,-0.0515 0.29556,-0.0909 0.44726,-0.14453 0.0128,-0.005 0.03,-0.008 0.0527,-0.01 z m -4.06055,1.2480397 c 0.15717,-0.009 0.54362,0.0659 0.93945,0.29688 0.45238,0.26399 0.9117,0.68131 1.1582,1.05273 0.31598,0.47611 0.46729,0.78394 0.6211,1.14063 0.21737,0.28368 0.5356,1.12165 0.90625,1.69922 1.10884,1.08493 2.19752,1.61197 4.05664,2.52929 1.61856,0.80118 3.16119,1.44745 4.23047,1.72071 l 0.0547,0.0449 0.33399,0.084 c 0.38737,-0.86424 0.88495,-1.63237 1.42969,-2.38281 0.16105,-0.22181 0.18588,-0.38646 0.23632,-0.49024 0.097,-0.19945 0.11643,-0.23593 0.16993,-0.45507 0.12569,-0.51445 0.2663,-1.57495 0.38281,-1.53125 0.48078,0.57737 0.99551,1.14259 1.19531,1.82031 0,0 -0.0782,0.16402 -0.10156,0.20312 -0.0234,0.0391 -1.88281,2.5625 -1.88281,2.5625 l -0.39649,1.28125 0.002,0.002 c 0.0144,0.0883 0.0355,0.17507 0.0605,0.26172 0.0371,0.20144 0.11457,0.39486 0.24219,0.5664 0.19639,0.36788 0.45588,0.72425 0.74805,1.07227 0.51296,0.6116 1.15898,1.18265 1.76367,1.76367 0.48066,0.4558 0.92249,0.90531 1.29101,1.31836 -0.0176,-0.003 -0.0329,-0.005 -0.0508,-0.008 -0.55612,-0.0796 -1.21353,-0.14077 -1.88281,-0.17578 -0.2877,-0.0151 -0.57404,-0.0249 -0.85547,-0.0313 -0.55942,-0.27989 -1.00507,-0.7501 -1.39258,-1.03124 -0.0825,-0.0619 -0.94607,-1.01123 -1.06445,-1.06055 -1.37318,-1.64347 -2.62184,-3.14455 -4.44922,-4.25391 -0.93713,-0.4439 -1.9464,-1.30277 -3.29883,-1.98437 -0.63862,-0.32058 -1.01685,-0.55635 -1.33007,-0.80078 -1.2443,-0.61079 -1.47186,-1.68323 -1.45508,-2.29297 -0.0228,-0.10604 -0.0356,-0.2046 -0.0684,-0.31641 -0.19522,-0.66593 -0.72998,-1.34655 -1.78125,-1.85742 -0.24644,-0.27108 -0.35153,-0.46458 -0.375,-0.53906 0.0167,9.4e-4 0.23351,-0.0995 0.50976,-0.19922 0.0125,-0.005 0.0303,-0.008 0.0527,-0.01 z m 14.93555,8.29688 -0.0469,0.59375 -0.0176,0.16015 c 0.009,0.3204 0.094,0.64055 0.22266,0.95703 0.12868,0.31648 0.30259,0.6296 0.49219,0.94141 0.34526,0.56833 0.78732,1.11911 1.21093,1.67188 -0.005,-0.005 -0.0102,-0.0104 -0.0156,-0.0156 -0.60174,-0.582 -1.17992,-1.20929 -1.64453,-1.76367 -0.4439,-0.52282 -0.69061,-0.97377 -0.76953,-1.34961 l 0.44336,-1.00977 0.002,-0.002 c 0.0391,-0.0606 0.0807,-0.12178 0.12305,-0.18359 z m -0.34376,7.05664 c 0.28036,-8e-5 0.57129,0.006 0.86524,0.0215 0.64305,0.0336 1.27413,0.094 1.79102,0.16797 0.47491,0.068 0.86127,0.16195 1.00976,0.2168 0.0196,0.013 0.05,0.034 0.0781,0.0605 0.066,0.0624 0.15965,0.15739 0.26757,0.27539 0.21586,0.23604 0.49316,0.56413 0.77539,0.9375 0.55784,0.73798 1.13059,1.67089 1.33789,2.36719 -0.005,0.004 0.001,0.0919 -0.0254,0.20313 -0.0355,0.14836 -0.10359,0.35151 -0.19726,0.57422 -0.18735,0.44542 -0.47597,0.97527 -0.78711,1.41601 -0.31114,0.44074 -0.66894,0.78635 -0.86328,0.88281 -0.0972,0.0482 -0.11947,0.0358 -0.11524,0.0371 0.003,9.1e-4 -0.0364,-0.0503 -0.0703,-0.0957 -0.001,-0.0206 -0.003,-0.0323 -0.004,-0.0625 -0.003,-0.10934 -0.004,-0.27209 -0.002,-0.46289 0.003,-0.3816 0.0126,-0.88344 0.004,-1.39648 -0.009,-0.51305 -0.0353,-1.03415 -0.10742,-1.48438 -0.0361,-0.22512 -0.082,-0.43193 -0.15821,-0.625 -0.0762,-0.19307 -0.17809,-0.39559 -0.41601,-0.53711 -0.48139,-0.28632 -1.1216,-0.4728 -1.6836,-0.61328 -0.28099,-0.0702 -0.53855,-0.12528 -0.73632,-0.16211 -0.0989,-0.0184 -0.18141,-0.0314 -0.25,-0.041 -0.0343,-0.005 -0.0635,-0.009 -0.0957,-0.0117 -0.0322,-0.003 -0.0187,-0.0239 -0.17578,0.008 h -0.002 c 0.02,-0.004 -0.33922,-0.046 -0.71875,-0.22852 -0.37953,-0.18253 -0.81621,-0.45805 -1.17774,-0.74023 -0.27319,-0.21324 -0.42025,-0.39479 -0.55078,-0.55469 0.42341,-0.0894 1.16674,-0.15212 2.00781,-0.15234 z m 1.47266,2.85742 c 0.46582,0.1173 0.99907,0.29285 1.30664,0.44922 10e-4,9.8e-4 0.003,9.6e-4 0.004,0.002 0.0289,0.0271 0.0561,0.0585 0.084,0.0879 6.8e-4,0.002 10e-4,0.002 0.002,0.004 0.034,0.0861 0.0725,0.23483 0.10156,0.41601 0.0581,0.36238 0.0854,0.85326 0.0937,1.34375 0.006,0.38826 0.002,0.7633 -0.002,1.10157 l -0.082,0.0488 c -0.32554,0.19729 -0.78863,0.21494 -1.12304,0.0723 -0.32553,-0.14797 -0.55232,-0.37438 -0.78907,-0.63086 l -0.01,-0.01 -0.008,-0.008 c -0.16768,-0.19728 -0.30743,-0.35544 -0.42579,-0.55273 -0.11827,-0.19729 -0.217,-0.46404 -0.19726,-0.74024 0.0346,-0.46396 0.19633,-0.71736 0.94336,-1.58203 0.0358,-0.003 0.0671,-5.4e-4 0.10156,-0.002 z m -15.69726,2.68359 1.04492,0.20703 c -1.33872,1.66917 -1.98817,3.23913 -2.07227,4.40821 -0.0841,1.16907 0.17243,2.40802 0.20703,4.0957 0.0842,4.10546 -0.10428,5.08783 -0.89453,8.55078 l -1.05273,0.23047 c 0.78811,-3.45368 1.03046,-4.70027 0.94726,-8.75976 -0.0326,-1.5911 -0.30237,-2.83376 -0.20508,-4.1875 0.0974,-1.35383 0.60067,-2.7685 2.0254,-4.54493 z m 15.28906,4.34375 c 1.52832,0.0521 2.0373,3.08709 2.54883,4.27539 0.0524,0.0994 0.12763,0.19424 0.20507,0.28321 -0.32851,0.57809 -0.54086,1.29664 -0.60351,2.09961 -0.0106,0.13653 -0.0159,0.27684 -0.0176,0.41797 -0.14933,-0.0271 -0.41126,-0.0183 -0.53516,-0.1211 l -0.0703,-0.63672 -0.64648,-0.0781 c -0.27839,-0.32295 -0.39986,-0.55473 -0.51172,-0.8418 -0.61427,-1.99372 -2.93367,-3.82239 -1.08984,-5.22461 0.26285,-0.12845 0.50237,-0.18127 0.7207,-0.17383 z m 5.43945,1.57813 c 0.0325,-8.9e-4 0.066,0.008 0.10156,0.0293 0.69686,0.41069 0.74051,1.08703 1.02149,1.62891 3.1e-4,-0.006 -0.074,0.5377 -0.85938,0.11914 -0.31664,-0.70693 -0.0982,-0.68464 -0.65039,-1.34179 0.0802,-0.14472 0.21118,-0.43075 0.38672,-0.43555 z" />
</svg>
