<?xml version="1.0" encoding="UTF-8" standalone="no"?>
<svg
   viewBox="0 0 60 60"
   version="1.1"
   id="svg3"
   sodipodi:docname="1FU.svg"
   inkscape:version="1.3 (0e150ed6c4, 2023-07-21)"
   xmlns:inkscape="http://www.inkscape.org/namespaces/inkscape"
   xmlns:sodipodi="http://sodipodi.sourceforge.net/DTD/sodipodi-0.dtd"
   xmlns="http://www.w3.org/2000/svg"
   xmlns:svg="http://www.w3.org/2000/svg">
  <sodipodi:namedview
     id="namedview3"
     pagecolor="#ffffff"
     bordercolor="#666666"
     borderopacity="1.0"
     inkscape:showpageshadow="2"
     inkscape:pageopacity="0.0"
     inkscape:pagecheckerboard="0"
     inkscape:deskcolor="#d1d1d1"
     inkscape:zoom="10.759808"
     inkscape:cx="25.558077"
     inkscape:cy="63.291092"
     inkscape:window-width="3840"
     inkscape:window-height="2054"
     inkscape:window-x="3829"
     inkscape:window-y="-11"
     inkscape:window-maximized="1"
     inkscape:current-layer="svg3" />
  <defs
     id="defs1">
    <filter
       id="1FU_svg__a"
       x="-0.13599486"
       y="-0.11066395"
       width="1.3218818"
       height="1.2630404">
      <feGaussianBlur
         in="SourceAlpha"
         result="blur"
         stdDeviation="2"
         id="feGaussianBlur1" />
      <feOffset
         dx="2"
         dy="2"
         result="offsetBlur"
         id="feOffset1" />
      <feBlend
         in="SourceGraphic"
         in2="offsetBlur"
         id="feBlend1" />
    </filter>
    <filter
       id="1OU_svg__a"
       x="-0.13338546"
       y="-0.10825364"
       width="1.3166422"
       height="1.2574737">
      <feGaussianBlur
         in="SourceAlpha"
         result="blur"
         stdDeviation="2"
         id="feGaussianBlur1-5" />
      <feOffset
         dx="2"
         dy="2"
         result="offsetBlur"
         id="feOffset1-2" />
      <feBlend
         in="SourceGraphic"
         in2="offsetBlur"
         id="feBlend1-1"
         mode="normal" />
    </filter>
  </defs>
  <g
     filter="url(#1FU_svg__a)"
     transform="matrix(0.86914,0,0,0.86914,-81.778,-21.260823)"
     id="g1"
     style="stroke:#333333;stroke-width:1.15056;stroke-dasharray:none">
    <path
       fill="#feec99"
       d="m 141.865,74.375 6.837,-44.334 h -40.19 l 6.535,44.638 13.56059,3.935 z"
       id="path1"
       style="stroke:#333333;stroke-width:1.15056;stroke-dasharray:none"
       sodipodi:nodetypes="cccccc" />
  </g>
  <g
     stroke="#000000"
     stroke-linejoin="round"
     stroke-width="1.313"
     paint-order="stroke fill markers"
     id="g3"
     transform="translate(0,-4.042823)">
    <path
       d="m -23.356,37.944 c -2.134,9.081 -4.332,14.438 -13.39,20.588 8.914,3.135 18.701,2.896 26.78,0 -9.058,-6.15 -11.255,-11.507 -13.39,-20.588 z"
       transform="matrix(-0.44607,0,0,-0.54295,19.527,65.03)"
       id="path2" />
    <path
       d="m -26.818,58.55 c -0.101,8.756 -0.37,15.837 -11.545,21.428 -5.232,2.786 -6.963,4.476 -7.615,9.333 6.785,1.493 14.837,2.21 22.883,2.179 8.046,0.031 16.097,-0.686 22.882,-2.18 -0.651,-4.856 -2.382,-6.546 -7.615,-9.332 -11.174,-5.591 -11.443,-12.672 -11.545,-21.428 -1.24,0.02 -2.481,0.02 -3.722,0.02 -1.241,0 -2.482,0 -3.723,-0.02 z"
       transform="matrix(-0.44607,0,0,-0.54295,19.527,65.03)"
       id="path3" />
  </g>
</svg>
