<?xml version="1.0" encoding="UTF-8" standalone="no"?>
<svg
   viewBox="0 0 60 60"
   version="1.1"
   id="svg3"
   sodipodi:docname="1FU.svg"
   inkscape:version="1.3 (0e150ed6c4, 2023-07-21)"
   xmlns:inkscape="http://www.inkscape.org/namespaces/inkscape"
   xmlns:sodipodi="http://sodipodi.sourceforge.net/DTD/sodipodi-0.dtd"
   xmlns="http://www.w3.org/2000/svg"
   xmlns:svg="http://www.w3.org/2000/svg">
  <sodipodi:namedview
     id="namedview3"
     pagecolor="#ffffff"
     bordercolor="#666666"
     borderopacity="1.0"
     inkscape:showpageshadow="2"
     inkscape:pageopacity="0.0"
     inkscape:pagecheckerboard="0"
     inkscape:deskcolor="#d1d1d1"
     inkscape:zoom="10.759808"
     inkscape:cx="25.604546"
     inkscape:cy="63.198154"
     inkscape:window-width="3840"
     inkscape:window-height="2054"
     inkscape:window-x="-11"
     inkscape:window-y="-11"
     inkscape:window-maximized="1"
     inkscape:current-layer="svg3" />
  <defs
     id="defs1">
    <filter
       id="1FU_svg__a"
       x="-0.13599486"
       y="-0.11066395"
       width="1.3218818"
       height="1.2630402">
      <feGaussianBlur
         in="SourceAlpha"
         result="blur"
         stdDeviation="2"
         id="feGaussianBlur1" />
      <feOffset
         dx="2"
         dy="2"
         result="offsetBlur"
         id="feOffset1" />
      <feBlend
         in="SourceGraphic"
         in2="offsetBlur"
         id="feBlend1" />
    </filter>
    <filter
       id="1OU_svg__a"
       x="-0.13338546"
       y="-0.10825364"
       width="1.3166422"
       height="1.2574737">
      <feGaussianBlur
         in="SourceAlpha"
         result="blur"
         stdDeviation="2"
         id="feGaussianBlur1-5" />
      <feOffset
         dx="2"
         dy="2"
         result="offsetBlur"
         id="feOffset1-2" />
      <feBlend
         in="SourceGraphic"
         in2="offsetBlur"
         id="feBlend1-1"
         mode="normal" />
    </filter>
  </defs>
  <g
     filter="url(#1FU_svg__a)"
     transform="matrix(0.86914,0,0,0.86914,-81.778,-21.260823)"
     id="g1"
     style="stroke:#333333;stroke-width:1.15056;stroke-dasharray:none">
    <path
       fill="#feec99"
       d="m 141.865,74.375 6.837,-44.334 h -40.19 l 6.535,44.638 13.56059,3.935 z"
       id="path1"
       style="stroke:#333333;stroke-width:1.15056;stroke-dasharray:none;fill:#dfc585;fill-opacity:1"
       sodipodi:nodetypes="cccccc" />
  </g>
  <path
     id="path3"
     style="color:#000000;fill:#000000;stroke-linejoin:round;-inkscape-stroke:none;paint-order:stroke fill markers"
     d="M 29.826172 10.990234 C 26.214046 10.973594 22.599337 11.362873 19.537109 12.183594 A 0.32311681 0.32311681 0 0 0 19.300781 12.53125 C 19.448948 13.876516 19.728368 14.83064 20.289062 15.634766 C 20.849758 16.438891 21.665275 17.070311 22.84375 17.833984 A 0.32311681 0.32311681 0 0 0 22.851562 17.837891 C 25.097542 19.205755 26.298766 20.711821 26.972656 22.400391 C 27.618925 24.019745 27.763503 25.837157 27.810547 27.84375 C 26.434774 28.034488 25.089003 28.366837 23.84375 28.910156 A 0.32311681 0.32311681 0 0 0 23.767578 29.457031 C 27.756835 32.753824 28.679888 35.532086 29.628906 40.445312 A 0.32311681 0.32311681 0 0 0 30.261719 40.445312 C 31.210286 35.532116 32.133781 32.753831 36.123047 29.457031 A 0.32311681 0.32311681 0 0 0 36.044922 28.910156 C 34.676907 28.324541 33.260719 27.996281 31.847656 27.820312 C 31.895266 25.819474 32.040786 24.005924 32.6875 22.390625 C 33.362139 20.705577 34.564217 19.203467 36.806641 17.837891 A 0.32311681 0.32311681 0 0 0 36.814453 17.833984 C 37.992689 17.070321 38.808447 16.440767 39.369141 15.636719 C 39.929833 14.83267 40.209029 13.876777 40.357422 12.53125 A 0.32311681 0.32311681 0 0 0 40.121094 12.183594 C 37.058905 11.363433 33.442238 10.973591 29.830078 10.990234 L 29.826172 10.990234 z " />
</svg>
