<?xml version="1.0" encoding="UTF-8" standalone="no"?>
<svg
   width="60"
   height="60"
   version="1.1"
   id="svg2"
   sodipodi:docname="1GI.svg"
   inkscape:version="1.3 (0e150ed6c4, 2023-07-21)"
   xmlns:inkscape="http://www.inkscape.org/namespaces/inkscape"
   xmlns:sodipodi="http://sodipodi.sourceforge.net/DTD/sodipodi-0.dtd"
   xmlns="http://www.w3.org/2000/svg"
   xmlns:svg="http://www.w3.org/2000/svg">
  <sodipodi:namedview
     id="namedview2"
     pagecolor="#ffffff"
     bordercolor="#666666"
     borderopacity="1.0"
     inkscape:showpageshadow="2"
     inkscape:pageopacity="0.0"
     inkscape:pagecheckerboard="0"
     inkscape:deskcolor="#d1d1d1"
     inkscape:zoom="10.759808"
     inkscape:cx="17.007738"
     inkscape:cy="21.515253"
     inkscape:window-width="1875"
     inkscape:window-height="1725"
     inkscape:window-x="1131"
     inkscape:window-y="205"
     inkscape:window-maximized="0"
     inkscape:current-layer="svg2" />
  <defs
     id="defs1">
    <filter
       id="1GI_svg__a"
       x="-0.13806315"
       y="-0.11203653"
       width="1.3275835"
       height="1.2668328">
      <feGaussianBlur
         in="SourceAlpha"
         result="blur"
         stdDeviation="2"
         id="feGaussianBlur1" />
      <feOffset
         dx="2"
         dy="2"
         result="offsetBlur"
         id="feOffset1" />
      <feBlend
         in="SourceGraphic"
         in2="offsetBlur"
         id="feBlend1" />
    </filter>
    <filter
       id="1OU_svg__a"
       x="-0.13338546"
       y="-0.10825364"
       width="1.3166422"
       height="1.2574737">
      <feGaussianBlur
         in="SourceAlpha"
         result="blur"
         stdDeviation="2"
         id="feGaussianBlur1-9" />
      <feOffset
         dx="2"
         dy="2"
         result="offsetBlur"
         id="feOffset1-2" />
      <feBlend
         in="SourceGraphic"
         in2="offsetBlur"
         id="feBlend1-4"
         mode="normal" />
    </filter>
  </defs>
  <g
     fill="#ececec"
     filter="url(#1GI_svg__a)"
     id="g1">
    <path
       fill="#fdeb98"
       d="M 42.848,48.016499 49.475,4.8294995 H 10.521 l 6.334,43.4819995 13.145,3.824 z"
       id="path1"
       sodipodi:nodetypes="cccccc"
       style="stroke:#333333;fill:#d5beaf;fill-opacity:1" />
  </g>
  <path
     d="m 30.007,45.792499 -0.302,-0.422 c -0.881,-1.231 -1.746,-2.732 -3.104,-3.324 l -0.568,-0.246 0.482,-0.393 c 0.913,-0.738 1.493,-2.047 1.81,-3.75 0.073,-0.388 0.128,-0.8 0.175,-1.224 -1.322,-0.534 -2.516,-1.368 -3.635,-2.377 0.389,-0.246 0.951,-0.582 1.687,-0.977 1.2,-0.642 2.681,-0.86 3.457,-0.861 0.79,0 2.274,0.219 3.473,0.861 0.746,0.4 1.279,0.735 1.664,0.98 -1.117,1.008 -2.308,1.84 -3.627,2.374 0.047,0.423 0.1,0.836 0.172,1.224 0.318,1.703 0.896,3.012 1.809,3.75 l 0.484,0.393 -0.568,0.246 c -1.358,0.592 -2.225,2.093 -3.106,3.324 z m -10.025,-2.21 -0.621,-0.024 c -0.08,-4.185 0.191,-8.092 1.703,-10.961 a 8,8 0 0 1 2.12,-2.58 c 0.39,-0.142 1.18,-0.421 2.333,-0.764 1.506,-0.447 3.341,-0.884 4.48,-0.885 1.144,0 2.984,0.438 4.495,0.885 1.126,0.334 1.897,0.604 2.308,0.752 a 8,8 0 0 1 2.133,2.592 c 1.512,2.87 1.784,6.776 1.703,10.96 l -0.62,0.024 c -0.32,-4.498 -1.06,-7.262 -2.56,-8.967 -0.368,-0.418 -0.806,-0.761 -1.285,-1.068 l 0.006,-0.01 c 0,0 -0.975,-0.67 -2.224,-1.34 -1.249,-0.67 -2.719,-0.982 -3.943,-0.98 -1.215,0.002 -2.68,0.313 -3.93,0.982 a 32,32 0 0 0 -2.258,1.336 l 0.008,0.012 c -0.48,0.307 -0.92,0.649 -1.289,1.068 -1.5,1.705 -2.24,4.469 -2.559,8.967 z m 2.85,-14.54 c -2.324,-4.954 -6.477,-10.71 -8.36,-13.316 l -0.195,-0.268 0.17,-0.29 c 0.872,-1.491 2.601,-3.547 4.418,-3.987 l 0.289,-0.07 0.135,0.31 c 0.339,0.778 1.224,4.756 2.197,7.47 l 0.008,-0.003 3.01,9.594 c -0.931,0.295 -1.416,0.47 -1.672,0.56 m 14.34,-0.006 c -0.263,-0.092 -0.735,-0.26 -1.659,-0.553 l 3.06,-9.755 c 0.948,-2.642 1.804,-6.546 2.136,-7.307 l 0.136,-0.31 0.29,0.07 c 1.816,0.44 3.543,2.496 4.415,3.986 l 0.172,0.291 -0.195,0.268 c -1.882,2.605 -6.032,8.359 -8.356,13.31 z m -2.614,-0.85 c -1.5,-0.436 -3.235,-0.863 -4.56,-0.863 -1.32,0 -3.046,0.426 -4.54,0.862 l -0.609,-1.944 c 0.342,-0.122 0.901,-0.318 1.711,-0.558 1.156,-0.344 2.565,-0.68 3.44,-0.68 0.877,0 2.291,0.336 3.45,0.68 0.813,0.24 1.375,0.435 1.718,0.558 z m -9.949,-2.71 -2.19,-6.983 c 2.074,-0.887 5.395,-2.16 7.58,-2.164 2.176,-0.003 5.487,1.241 7.608,2.135 l -2.2,7.012 c -0.362,-0.13 -0.923,-0.325 -1.728,-0.563 -1.188,-0.352 -2.61,-0.711 -3.68,-0.71 -1.065,0 -2.482,0.36 -3.667,0.712 -0.8,0.238 -1.36,0.431 -1.723,0.56 z"
     enable-background="accumulate"
     overflow="visible"
     id="path2" />
</svg>
