<?xml version="1.0" encoding="UTF-8" standalone="no"?>
<svg
   viewBox="0 0 60 60"
   version="1.1"
   id="svg23"
   sodipodi:docname="1HI.svg"
   inkscape:version="1.3 (0e150ed6c4, 2023-07-21)"
   xmlns:inkscape="http://www.inkscape.org/namespaces/inkscape"
   xmlns:sodipodi="http://sodipodi.sourceforge.net/DTD/sodipodi-0.dtd"
   xmlns="http://www.w3.org/2000/svg"
   xmlns:svg="http://www.w3.org/2000/svg">
  <sodipodi:namedview
     id="namedview23"
     pagecolor="#ffffff"
     bordercolor="#666666"
     borderopacity="1.0"
     inkscape:showpageshadow="2"
     inkscape:pageopacity="0.0"
     inkscape:pagecheckerboard="0"
     inkscape:deskcolor="#d1d1d1"
     inkscape:zoom="10.759808"
     inkscape:cx="19.981769"
     inkscape:cy="-10.223231"
     inkscape:window-width="3840"
     inkscape:window-height="2054"
     inkscape:window-x="-11"
     inkscape:window-y="-11"
     inkscape:window-maximized="1"
     inkscape:current-layer="svg23" />
  <defs
     id="defs1">
    <filter
       id="1HI_svg__a"
       x="-0.11943269"
       y="-0.098316817"
       width="1.288629"
       height="1.237599">
      <feGaussianBlur
         in="SourceAlpha"
         result="blur"
         stdDeviation="2"
         id="feGaussianBlur1" />
      <feOffset
         dx="2"
         dy="2"
         result="offsetBlur"
         id="feOffset1" />
      <feBlend
         in="SourceGraphic"
         in2="offsetBlur"
         id="feBlend1" />
    </filter>
    <filter
       id="0HI_svg__a"
       x="-0.12019833"
       y="-0.099879312"
       width="1.2904793"
       height="1.241375">
      <feGaussianBlur
         in="SourceAlpha"
         result="blur"
         stdDeviation="2"
         id="feGaussianBlur1-5" />
      <feOffset
         dx="2"
         dy="2"
         result="offsetBlur"
         id="feOffset1-0" />
      <feBlend
         in="SourceGraphic"
         in2="offsetBlur"
         id="feBlend1-2"
         mode="normal" />
    </filter>
  </defs>
  <g
     fill="#fdd3e3"
     filter="url(#1HI_svg__a)"
     transform="translate(-102.587 -25.906)scale(1.03094)"
     id="g1">
    <path
       fill="#fdeb98"
       d="m 141.866,74.375 6.836,-44.558 h -40.19 l 6.535,44.862 13.56087,3.9455 z"
       id="path1"
       style="stroke:#333333;stroke-width:0.969989;stroke-dasharray:none"
       sodipodi:nodetypes="cccccc" />
  </g>
  <path
     id="path23-4"
     style="opacity:0.99;fill:#020101;fill-opacity:1;stroke:none;stroke-width:0.676292px;stroke-linecap:butt;stroke-linejoin:round;stroke-opacity:1"
     d="m 16.572626,41.24966 v -8.55e-4 c 9.096083,-0.993932 17.734627,-0.993932 26.857426,-0.01678 0.06701,0.0066 0.04468,-0.09042 0.03355,-0.138937 -0.502309,-2.022063 -0.673308,-2.272149 -2.0755,-3.75984 l -22.769056,0.0066 c -1.45456,1.426773 -1.5796,1.715334 -2.08618,3.749153 -0.01123,0.05685 -0.02234,0.170999 0.03344,0.170999 z M 41.418997,36.296033 V 18.990079 h -1.439598 c -0.523684,5.035921 -4.796522,8.980654 -9.968173,8.980654 -5.17165,0 -9.44342,-3.944733 -9.96604,-8.980654 h -1.43959 v 17.305954 z m -11.407448,-9.36647 c 4.96004,6.41e-4 8.98172,-4.020614 8.982789,-8.980654 6.41e-4,-4.961108 -4.02168,-8.9827919 -8.982789,-8.9827919 -4.960039,2.14e-4 -8.981723,4.0216839 -8.980653,8.9827919 2.1e-4,4.96004 4.020614,8.980654 8.980653,8.980654 z m 0.83362,-3.134626 v -3.832515 l 2.708197,2.710334 c -0.79087,0.598497 -1.726021,0.983245 -2.708197,1.122181 z m -1.669377,0 c -0.983245,-0.138936 -1.91412,-0.523684 -2.708197,-1.122181 l 2.708197,-2.710334 z m 5.556398,-2.303142 -2.709265,-2.710334 h 3.831446 c -0.138936,0.983244 -0.523684,1.915188 -1.122181,2.710334 z m -9.445557,0 c -0.598496,-0.790871 -0.983244,-1.72709 -1.122181,-2.710334 h 3.832515 z m 16.032971,-3.515098 c 0.577121,-0.003 1.139281,-0.0082 1.139281,-0.0082 l 0.854995,-1.466316 v -1.656553 h -3.830378 c 0.45956,0.801558 0.683996,2.086188 0.609184,3.122869 0.05579,0.01229 0.651934,0.01091 1.225849,0.0082 z m -22.616538,0 c 0.57712,0.0028 1.16813,0.0033 1.22584,-0.0082 h 7.5e-4 c -0.067,-1.036681 0.14962,-2.324517 0.60918,-3.122869 h -3.83144 v 1.656553 l 0.85499,1.466316 c 0,0 0.56644,0.0053 1.13928,0.0082 z m 17.151628,-0.854995 h -3.831446 l 2.708196,-2.710334 c 0.598497,0.79087 0.983245,1.727089 1.12325,2.710334 z m -7.858473,0 h -3.831446 c 0.138937,-0.983245 0.523685,-1.916258 1.124319,-2.710334 z m 2.849271,-1.180962 v -3.830378 c 0.983244,0.138937 1.913051,0.523685 2.706059,1.122181 z m -1.669377,0 -2.708197,-2.708197 c 0.79087,-0.598496 1.726021,-0.983244 2.708197,-1.122181 z"
     sodipodi:nodetypes="ccscccscccccscccccccccccccccccccccccccscccccssccccccscccccccccccccccc" />
</svg>
