<?xml version="1.0" encoding="UTF-8" standalone="no"?>
<svg
   viewBox="0 0 60 60"
   version="1.1"
   id="svg6"
   sodipodi:docname="1KE.svg"
   inkscape:version="1.3 (0e150ed6c4, 2023-07-21)"
   xmlns:inkscape="http://www.inkscape.org/namespaces/inkscape"
   xmlns:sodipodi="http://sodipodi.sourceforge.net/DTD/sodipodi-0.dtd"
   xmlns="http://www.w3.org/2000/svg"
   xmlns:svg="http://www.w3.org/2000/svg">
  <sodipodi:namedview
     id="namedview6"
     pagecolor="#ffffff"
     bordercolor="#666666"
     borderopacity="1.0"
     inkscape:showpageshadow="2"
     inkscape:pageopacity="0.0"
     inkscape:pagecheckerboard="0"
     inkscape:deskcolor="#d1d1d1"
     inkscape:zoom="10.759808"
     inkscape:cx="-11.106146"
     inkscape:cy="50.837338"
     inkscape:window-width="3840"
     inkscape:window-height="2054"
     inkscape:window-x="3829"
     inkscape:window-y="-11"
     inkscape:window-maximized="1"
     inkscape:current-layer="svg6" />
  <defs
     id="defs1">
    <filter
       id="1KE_svg__a"
       x="-0.13367237"
       y="-0.10923307"
       width="1.316659"
       height="1.2594346">
      <feGaussianBlur
         in="SourceAlpha"
         result="blur"
         stdDeviation="2"
         id="feGaussianBlur1" />
      <feOffset
         dx="2"
         dy="2"
         result="offsetBlur"
         id="feOffset1" />
      <feBlend
         in="SourceGraphic"
         in2="offsetBlur"
         id="feBlend1" />
    </filter>
    <filter
       id="1OU_svg__a"
       x="-0.13338546"
       y="-0.10825364"
       width="1.3166422"
       height="1.2574737">
      <feGaussianBlur
         in="SourceAlpha"
         result="blur"
         stdDeviation="2"
         id="feGaussianBlur1-1" />
      <feOffset
         dx="2"
         dy="2"
         result="offsetBlur"
         id="feOffset1-1" />
      <feBlend
         in="SourceGraphic"
         in2="offsetBlur"
         id="feBlend1-0"
         mode="normal" />
    </filter>
  </defs>
  <g
     filter="url(#1KE_svg__a)"
     transform="matrix(0.9389,0,0,0.9389,-90.610859,-23.204921)"
     id="g1">
    <path
       fill="#feec99"
       d="m 128.456,78.635 13.41,-4.26 6.836,-44.558 H 108.15 l 6.898,44.862 13.138,3.935 0.271,0.021 z"
       id="path1"
       sodipodi:nodetypes="cccccccc"
       style="stroke:#333333;stroke-width:1.06507615;stroke-dasharray:none;fill:#d5beaf;fill-opacity:1" />
  </g>
  <path
     id="path7388-6-2"
     style="color:#000000;font-style:normal;font-variant:normal;font-weight:normal;font-stretch:normal;font-size:medium;line-height:normal;font-family:sans-serif;font-variant-ligatures:normal;font-variant-position:normal;font-variant-caps:normal;font-variant-numeric:normal;font-variant-alternates:normal;font-variant-east-asian:normal;font-feature-settings:normal;font-variation-settings:normal;text-indent:0;text-align:start;text-decoration:none;text-decoration-line:none;text-decoration-style:solid;text-decoration-color:#000000;letter-spacing:normal;word-spacing:normal;text-transform:none;writing-mode:lr-tb;direction:ltr;text-orientation:mixed;dominant-baseline:auto;baseline-shift:baseline;text-anchor:start;white-space:normal;shape-padding:0;shape-margin:0;inline-size:0;clip-rule:nonzero;display:inline;overflow:visible;visibility:visible;opacity:0.99;isolation:auto;mix-blend-mode:normal;color-interpolation:sRGB;color-interpolation-filters:linearRGB;solid-color:#000000;solid-opacity:1;vector-effect:none;fill:#000000;fill-opacity:0.992157;fill-rule:nonzero;stroke:none;stroke-width:0.578432;stroke-linecap:butt;stroke-linejoin:miter;stroke-miterlimit:4;stroke-dasharray:none;stroke-dashoffset:0;stroke-opacity:1;color-rendering:auto;image-rendering:auto;shape-rendering:auto;text-rendering:auto;enable-background:accumulate;stop-color:#000000"
     d="m 31.662974,43.712 0.251953,-0.22461 c 0.672893,-0.598989 0.963066,-1.356766 1.103516,-2.126953 0.122961,-0.673955 0.143948,-1.360295 0.21289,-2.023437 l 0.535156,0.07227 2.648438,3.121094 0.199219,-0.376953 c 0.765056,-1.443241 0.479621,-3.030823 0.472656,-4.466797 1.142022,-2.358104 1.940681,-4.254735 1.8125,-6.464844 1.516256,-1.699596 2.864837,-3.517797 3.742187,-5.632812 l 0.0098,-0.02148 0.0039,-0.02148 c 0.250574,-1.049932 0.490111,-2.167742 0.05273,-3.304688 l -0.03711,-0.09961 -0.580078,-0.320312 c -0.338456,-0.701325 -0.580622,-1.189958 -0.998047,-1.484375 -0.368039,-0.259887 -0.831009,-0.309947 -1.46289,-0.25586 l -0.470704,0.66211 c -0.383333,-3.23e-4 -0.761516,-0.02403 -1.134765,-0.06641 l 0.720703,-1.013671 -0.152344,-0.369141 -0.253906,0.08203 c -0.831847,0.267863 -1.410601,0.611449 -1.849609,1.015625 -1.672253,-0.433253 -3.207078,-1.220324 -4.539063,-2.089844 0.06403,-0.059 0.130567,-0.127461 0.19336,-0.18164 2.029175,-1.547491 2.465949,-3.085641 2.751953,-5.515625 l 0.02148,-0.191406 -0.169922,-0.09375 C 29.880286,9.618472 26.211985,8.882096 23.190336,9.219821 c -3.021631,0.33807 -5.369389,1.742425 -7.603515,3.236328 l -0.15625,0.105469 0.0332,0.185547 c 0.193972,1.109659 0.349175,1.914429 0.767578,3.447266 l 0.002,0.0039 v 0.0039 c 1.060914,3.565358 1.254678,5.785105 1.415953,11.978519 v 0.0039 0.0059 c 0.155909,2.362288 1.420817,5.127034 3.402344,7.291016 1.941121,2.119761 4.59649,3.643065 7.583984,3.558594 z m -4.810547,-7.123047 h -0.002 c -0.15768,-0.01246 -0.303031,-0.05536 -0.449219,-0.09766 -0.291527,-0.08495 -0.585675,-0.212833 -0.878906,-0.363281 -0.5866,-0.300874 -1.156547,-0.678608 -1.53711,-1 -2.196776,-1.855275 -3.433652,-3.602222 -3.957031,-6.724609 l -0.002,-0.01367 -0.002,-0.01172 C 19.421672,23.583743 19.810584,17.814066 18.143302,14.112388 l 1.160156,-0.523437 c 0.286145,0.634622 0.517952,1.3062 0.707172,2.005861 1.061344,3.924444 0.788628,8.715366 1.275391,12.607422 0.486067,2.888004 1.433187,4.189462 3.521484,5.953125 0.266715,0.225235 0.805987,0.588091 1.296875,0.839844 0.245077,0.125924 0.482075,0.225949 0.652344,0.27539 0.170276,0.04949 0.269693,0.0055 0.148437,0.05273 l 0.464844,1.183599 c -0.192271,0.07518 -0.359651,0.09425 -0.517578,0.08203 z m 8.169922,-2.234375 c -0.09291,0 -0.189195,-0.0035 -0.291016,-0.0098 l -0.542969,-0.0332 0.152344,-0.521484 c 0.181761,-0.620502 0.219228,-1.138736 0.5,-1.611329 0.140323,-0.236656 0.371685,-0.447425 0.664063,-0.554687 0.2925,-0.106956 0.626529,-0.12778 1.039062,-0.0957 l 0.541016,0.04102 -0.160156,0.517578 c -0.186772,0.607299 -0.231077,1.122414 -0.511719,1.589843 -0.140324,0.2341 -0.365707,0.44325 -0.654297,0.554688 -0.216352,0.08325 -0.457885,0.120969 -0.736328,0.123047 z m -7.140625,-3.904297 c -0.02566,-0.260318 -0.0011,-0.58329 0.04492,-1.003906 0.04522,-0.420482 0.117422,-0.917393 0.214843,-1.431641 0.181271,-0.963015 0.427252,-1.960139 0.789063,-2.662109 l -0.04883,-0.22461 c 0,-0.01968 -0.0161,-0.298665 -0.02344,-0.634765 -0.0077,-0.347802 0.0058,-0.772191 0.01953,-0.837891 l 0.0039,-0.01953 v -0.01758 c 0.09599,-1.461778 1.192355,-3.266451 2.333984,-4.560547 -3.39296,0.350366 -6.744415,-1.017312 -7.806641,-7.703125 4.21809,1.289426 7.351722,2.278698 8.597657,7.59375 -0.243588,0.04288 -0.488297,0.0769 -0.732422,0.103515 1.310335,0.86937 2.833917,1.684724 4.523437,2.185547 -0.432523,0.679999 -0.747571,1.452585 -1.316406,2.347656 -1.911278,0.884984 -2.780304,1.351709 -4.675781,2.0625 l -0.02344,0.0078 0.05859,0.0332 c -0.270015,0.471233 -0.567382,1.525021 -0.751953,2.503906 -0.09291,0.489458 -0.163278,0.966691 -0.205078,1.357422 -0.04155,0.390904 -0.04958,0.717188 -0.04102,0.808594 z m 12.634765,-4.884766 -0.55664,-0.58789 c 0.469126,-0.443889 0.841124,-0.724689 0.978515,-0.892579 0.06844,-0.08409 0.07567,-0.114164 0.07813,-0.148437 0.0023,-0.03435 -0.007,-0.109267 -0.08594,-0.255859 l 0.714844,-0.38086 c 0.12223,0.227353 0.194609,0.456371 0.177734,0.69336 -0.01711,0.23709 -0.127508,0.443997 -0.259766,0.605468 -0.264142,0.322865 -0.617474,0.560559 -1.046875,0.966797 z m -2.839843,-2.738281 -0.785157,-0.558594 0.476563,-0.671875 c 0.359577,0.05782 0.724532,0.09948 1.095703,0.123047 z m -6.449219,-4.501953 -0.642578,-0.830078 c -3.607725,-2.128204 -4.446896,-3.32389 -5.308594,-4.617188 l -0.921875,-0.625 0.248047,0.986328 c 0.921562,1.383147 1.926957,2.696272 5.626953,4.878907 z" />
</svg>
