<?xml version="1.0" encoding="UTF-8" standalone="no"?>
<svg
   viewBox="0 0 60 60"
   version="1.1"
   id="svg20"
   sodipodi:docname="1NY.svg"
   inkscape:version="1.3 (0e150ed6c4, 2023-07-21)"
   xmlns:inkscape="http://www.inkscape.org/namespaces/inkscape"
   xmlns:sodipodi="http://sodipodi.sourceforge.net/DTD/sodipodi-0.dtd"
   xmlns="http://www.w3.org/2000/svg"
   xmlns:svg="http://www.w3.org/2000/svg">
  <sodipodi:namedview
     id="namedview20"
     pagecolor="#ffffff"
     bordercolor="#666666"
     borderopacity="1.0"
     inkscape:showpageshadow="2"
     inkscape:pageopacity="0.0"
     inkscape:pagecheckerboard="0"
     inkscape:deskcolor="#d1d1d1"
     inkscape:zoom="5.3799042"
     inkscape:cx="-84.852812"
     inkscape:cy="42.008183"
     inkscape:window-width="3840"
     inkscape:window-height="2054"
     inkscape:window-x="3829"
     inkscape:window-y="-11"
     inkscape:window-maximized="1"
     inkscape:current-layer="svg20" />
  <defs
     id="defs1">
    <filter
       id="1NY_svg__a"
       x="-0.13374606"
       y="-0.10923307"
       width="1.3168455"
       height="1.2595653">
      <feGaussianBlur
         in="SourceAlpha"
         result="blur"
         stdDeviation="2"
         id="feGaussianBlur1" />
      <feOffset
         dx="2"
         dy="2"
         result="offsetBlur"
         id="feOffset1" />
      <feBlend
         in="SourceGraphic"
         in2="offsetBlur"
         id="feBlend1" />
    </filter>
    <filter
       id="1OU_svg__a"
       x="-0.13338546"
       y="-0.10825364"
       width="1.3166422"
       height="1.2574737">
      <feGaussianBlur
         in="SourceAlpha"
         result="blur"
         stdDeviation="2"
         id="feGaussianBlur1-2" />
      <feOffset
         dx="2"
         dy="2"
         result="offsetBlur"
         id="feOffset1-5" />
      <feBlend
         in="SourceGraphic"
         in2="offsetBlur"
         id="feBlend1-1"
         mode="normal" />
    </filter>
    <filter
       id="0NY_svg__a"
       x="-0.13553251"
       y="-0.11119973"
       width="1.3210739"
       height="1.2635755">
      <feGaussianBlur
         in="SourceAlpha"
         result="blur"
         stdDeviation="2"
         id="feGaussianBlur1-8" />
      <feOffset
         dx="2"
         dy="2"
         result="offsetBlur"
         id="feOffset1-4" />
      <feBlend
         in="SourceGraphic"
         in2="offsetBlur"
         id="feBlend1-18"
         mode="normal" />
    </filter>
    <filter
       id="1RY_svg__a"
       x="-0.13338546"
       y="-0.1082508"
       width="1.3166419"
       height="1.2574769">
      <feGaussianBlur
         in="SourceAlpha"
         result="blur"
         stdDeviation="2"
         id="feGaussianBlur1-20" />
      <feOffset
         dx="2"
         dy="2"
         result="offsetBlur"
         id="feOffset1-1" />
      <feBlend
         in="SourceGraphic"
         in2="offsetBlur"
         id="feBlend1-2"
         mode="normal" />
    </filter>
  </defs>
  <g
     filter="url(#1NY_svg__a)"
     transform="matrix(0.9389,0,0,0.9389,-90.59,-23.212109)"
     id="g1">
    <path
       fill="#feec99"
       d="m 141.866,74.375 6.836,-44.558 h -40.527 l 6.872,44.862 13.138,3.935 c 0.094,0.026 0.193,0.015 0.271,0.021 z"
       id="path1"
       style="stroke:#333333;stroke-width:1.06508;stroke-dasharray:none;fill:#d4bdae;fill-opacity:1"
       sodipodi:nodetypes="ccccccc" />
  </g>
  <path
     id="path14-7"
     style="color:#000000;fill:#a82a00;fill-opacity:1;stroke-width:0.147407;-inkscape-stroke:none"
     d="m 30,39.127054 0.111328,-0.134765 0.865234,-1.046875 0.121094,-4.076172 -0.441406,-0.205078 v -0.759766 a 8.0417782,8.0417782 0 0 0 4.166016,-1.576172 l 0.83789,0.837891 -0.15625,0.474609 2.972656,2.804688 1.541016,0.111328 -0.169922,-1.527344 -2.796875,-2.986328 -0.478515,0.173828 -0.767578,-0.767578 a 8.0417782,8.0417782 0 0 0 2.189453,-4.86914 h 0.851562 l 0.226563,0.451171 4.08789,-0.11914 1.167969,-1.011719 -1.201172,-0.958984 -4.089844,-0.132813 -0.210937,0.453125 H 37.994141 A 8.0417782,8.0417782 0 0 0 30.65625,16.933694 V 16.334085 L 31.097656,16.13096 30.976562,12.054788 30,10.871194 l -0.976562,1.183594 -0.119141,4.076172 0.435547,0.197265 v 0.603516 a 8.0417782,8.0417782 0 0 0 -7.353516,7.330079 h -0.380859 -0.431641 l -0.210937,-0.453125 -4.089844,0.132813 -1.201172,0.958984 1.167969,1.011719 4.08789,0.11914 0.226563,-0.451171 h 0.451172 0.380859 a 8.0417782,8.0417782 0 0 0 2.169922,4.851562 l -0.785156,0.785156 -0.472656,-0.15625 -2.804688,2.97461 -0.111328,1.539062 1.527344,-0.169922 2.984375,-2.796875 -0.173829,-0.476562 0.816407,-0.816407 a 8.0417782,8.0417782 0 0 0 4.203125,1.591797 v 0.763672 l -0.435547,0.197266 0.119141,4.078125 z m 0.65625,-7.980468 v -2.027344 c 0.515125,-0.08287 1.001286,-0.262536 1.4375,-0.517578 l 1.464844,1.46289 a 6.2878423,6.2878423 0 0 1 -2.902344,1.082032 z m -1.316406,0 a 6.2878423,6.2878423 0 0 1 -2.9375,-1.09961 l 1.466797,-1.466796 c 0.444499,0.265966 0.94259,0.451595 1.470703,0.537109 z m 5.214844,-1.947266 -1.435547,-1.435547 c 0.536592,-0.600682 0.904748,-1.354939 1.02539,-2.183593 h 2.089844 a 6.2878423,6.2878423 0 0 1 -1.679687,3.61914 z m -9.144532,-0.02148 a 6.2878423,6.2878423 0 0 1 -1.662109,-3.597656 h 2.107422 c 0.118699,0.815309 0.477416,1.558454 1,2.154296 z M 30,27.671976 A 2.6868243,2.6868243 0 0 1 27.3125,24.984476 2.6868243,2.6868243 0 0 1 30,22.296975 2.6868243,2.6868243 0 0 1 32.6875,24.984476 2.6868243,2.6868243 0 0 1 30,27.671976 Z m 6.236328,-3.410156 h -2.113281 c -0.08964,-0.504241 -0.272345,-0.979695 -0.527344,-1.40625 l 1.525391,-1.525391 a 6.2878423,6.2878423 0 0 1 1.115234,2.931641 z m -10.359375,0 h -2.113281 a 6.2878423,6.2878423 0 0 1 1.09375,-2.898438 l 1.52539,1.525391 c -0.244463,0.417739 -0.418592,0.882128 -0.505859,1.373047 z m 1.34375,-2.396485 -1.511719,-1.511719 a 6.2878423,6.2878423 0 0 1 3.63086,-1.660156 v 2.158203 c -0.803082,0.130039 -1.534191,0.491132 -2.119141,1.013672 z M 32.75,21.839945 c -0.580997,-0.509562 -1.302318,-0.862911 -2.09375,-0.990234 v -2.15625 a 6.2878423,6.2878423 0 0 1 3.607422,1.632812 z" />
</svg>
