<?xml version="1.0" encoding="UTF-8" standalone="no"?>
<svg
   viewBox="0 0 60 60"
   version="1.1"
   id="svg9"
   sodipodi:docname="1SU.svg"
   inkscape:version="1.3 (0e150ed6c4, 2023-07-21)"
   xmlns:inkscape="http://www.inkscape.org/namespaces/inkscape"
   xmlns:sodipodi="http://sodipodi.sourceforge.net/DTD/sodipodi-0.dtd"
   xmlns="http://www.w3.org/2000/svg"
   xmlns:svg="http://www.w3.org/2000/svg">
  <sodipodi:namedview
     id="namedview9"
     pagecolor="#ffffff"
     bordercolor="#666666"
     borderopacity="1.0"
     inkscape:showpageshadow="2"
     inkscape:pageopacity="0.0"
     inkscape:pagecheckerboard="0"
     inkscape:deskcolor="#d1d1d1"
     inkscape:zoom="10.759808"
     inkscape:cx="31.459669"
     inkscape:cy="32.993154"
     inkscape:window-width="3840"
     inkscape:window-height="2054"
     inkscape:window-x="3829"
     inkscape:window-y="-11"
     inkscape:window-maximized="1"
     inkscape:current-layer="svg9"
     showgrid="false" />
  <defs
     id="defs1">
    <filter
       id="1KA_svg__a"
       x="-0.13338546"
       y="-0.1082508"
       width="1.3166419"
       height="1.257465">
      <feGaussianBlur
         in="SourceAlpha"
         result="blur"
         stdDeviation="2"
         id="feGaussianBlur1" />
      <feOffset
         dx="2"
         dy="2"
         result="offsetBlur"
         id="feOffset1" />
      <feBlend
         in="SourceGraphic"
         in2="offsetBlur"
         id="feBlend1" />
    </filter>
  </defs>
  <g
     fill="#fdd3e3"
     filter="url(#1KA_svg__a)"
     transform="translate(-102.587 -25.906)scale(1.03094)"
     id="g1">
    <path
       fill="#fdeb98"
       d="m 141.866,74.375 6.836,-44.558 h -40.19 l 6.535,44.862 13.56087,3.935 c 0.09,0.017 -0.091,0.032 0,0.021 z"
       id="path1"
       sodipodi:nodetypes="ccccccc"
       style="stroke-width:0.96998855;stroke-dasharray:none;stroke:#333333;fill:#d5beaf;fill-opacity:1" />
  </g>
  <path
     id="path6781"
     style="fill:#040302;fill-opacity:1;stroke:none;stroke-width:0.73497px;stroke-linecap:butt;stroke-linejoin:miter;stroke-opacity:1"
     d="m 33.271387,45.515796 a 1.0326144,0.95885664 0 0 0 1.03296,-0.96 1.0326144,0.95885664 0 0 0 -1.03296,-0.96 1.0326144,0.95885664 0 0 0 -1.03296,0.96 1.0326144,0.95885664 0 0 0 1.03296,0.96 z m -3.03264,-2.50848 a 0.92197728,1.0326144 0 0 0 0.8928,-1.03296 0.92197728,1.0326144 0 0 0 -0.9216,-1.03296 0.92197728,1.0326144 0 0 0 -0.9216,1.03296 0.92197728,1.0326144 0 0 0 0.9216,1.03296 0.92197728,1.0326144 0 0 0 0.03,0 z m 2.84928,-1.69632 a 0.995736,1.0326144 0 0 0 0.99552,-1.03296 0.995736,1.0326144 0 0 0 -0.99552,-1.03296 0.995736,1.0326144 0 0 0 -0.99552,1.03296 0.995736,1.0326144 0 0 0 0.99552,1.03296 z m -5.01024,-3.09312 c 2.5296,-0.03514 4.45056,-1.42752 6.0528,-3.5328 1.82016,-2.03328 3.08448,-4.57536 3.72,-7.69824 0.624,-1.26912 1.15392,-1.49376 1.68384,-1.7712 1.60704,0.4896 2.13216,1.25088 1.75392,2.232 -0.2496,1.39296 -2.44704,2.57952 -3.85824,3.8496 -1.12128,2.03904 -1.64736,3.99936 0.4224,5.6208 6.14496,1.58016 4.95264,-3.624 3.64896,-4.77408 -0.8736,0.4224 -1.40448,0.9408 -1.68384,1.53984 0.1824,0.336 0.6912,0.624 0,1.07712 -0.3744,-0.03514 -0.576,-0.2208 -0.7008,-0.4608 0,-0.768 -0.3552,-0.8832 2.52576,-3.07968 1.69728,-0.8928 1.8192,-2.30208 2.45568,-3.54144 1.17024,-6.72672 -1.368,-8.74464 -4.56,-9.931488 -0.6048,0.5568 -0.7872,1.34112 -1.05216,2.07936 -0.912,-0.2208 -1.76448,-0.2976 -3.01728,-1.38624 -0.3072,0.3072 -0.6048,0.6144 -0.912,0.9216 l -1.06656,0.8544 c -0.288,-0.7296 0.2976,-1.05216 0.5952,-1.50816 0.432,-0.6624 1.33536,-1.3488 2.08512,-1.80384 l -1.68384,-0.2304 c -0.7584,0.3168 -1.35648,0.7872 -1.89504,1.30848 l -0.912,0.3072 c -0.8544,2.28768 -1.67808,4.58208 -2.0352,7.00608 0.0602,0.7584 0.0702,1.36224 0.4896,3.46464 l -0.4896,1.7712 -2.9472,3.6192 2.24544,-3.8496 0.4224,-1.61664 c 0.0703,-1.17792 -0.1056,-2.17824 -0.4224,-3.07968 l 0.144,-1.61664 c 0.768,-2.38464 1.65504,-4.67136 1.824,-7.31424 -0.0902,-0.5952 -0.288,-1.11168 -0.912,-1.30848 -7.87968,0.3264 -11.80819,4.03008 -14.24332,9.00864 l -0.144,1.61568 c 1.4784,6.84576 5.71968,10.355328 11.36716,12.164352 0.336,0.04416 0.6624,0.06826 0.984,0.06826 0.04,9.6e-5 0.0802,5.76e-4 0.1248,0 z m 6.64608,-8.67072 c -0.1344,1.92e-4 -0.2688,-0.05213 -0.4128,-0.2112 l -1.2384,-1.60224 c -0.2016,-0.5184 -0.2784,-1.02624 -0.0803,-1.51584 0.2208,0.3936 0.4224,0.7872 0.9408,1.18368 0.576,0.1728 1.1712,0.336 1.52352,0.7104 0.1632,0.9024 -0.0301,0.9504 -0.1248,1.23744 -0.192,0.05616 -0.384,0.1824 -0.5856,0.192 -0.009,4.8e-4 -0.0201,7.68e-4 -0.0301,8.64e-4 z m 3.26592,-10.567872 c 0.9312,-3.13056 2.8416,-4.86624 4.63104,-6.77472 0.144,-0.24 -0.096,-0.3072 -0.7008,-0.2304 -2.73984,1.4352 -4.81248,3.35712 -5.6832,6.15936 0.5472,0.3168 0.9216,0.8352 1.75392,0.8448 z" />
</svg>
