<?xml version="1.0" encoding="UTF-8" standalone="no"?>
<svg
   viewBox="0 0 60 60"
   version="1.1"
   id="svg9"
   sodipodi:docname="1TA.svg"
   inkscape:version="1.3 (0e150ed6c4, 2023-07-21)"
   xmlns:inkscape="http://www.inkscape.org/namespaces/inkscape"
   xmlns:sodipodi="http://sodipodi.sourceforge.net/DTD/sodipodi-0.dtd"
   xmlns="http://www.w3.org/2000/svg"
   xmlns:svg="http://www.w3.org/2000/svg">
  <sodipodi:namedview
     id="namedview9"
     pagecolor="#ffffff"
     bordercolor="#666666"
     borderopacity="1.0"
     inkscape:showpageshadow="2"
     inkscape:pageopacity="0.0"
     inkscape:pagecheckerboard="0"
     inkscape:deskcolor="#d1d1d1"
     inkscape:zoom="10.759808"
     inkscape:cx="31.459669"
     inkscape:cy="20.167646"
     inkscape:window-width="3840"
     inkscape:window-height="2054"
     inkscape:window-x="-11"
     inkscape:window-y="-11"
     inkscape:window-maximized="1"
     inkscape:current-layer="svg9"
     showgrid="false" />
  <defs
     id="defs1">
    <filter
       id="1KA_svg__a"
       x="-0.13338546"
       y="-0.1082508"
       width="1.3166419"
       height="1.257465">
      <feGaussianBlur
         in="SourceAlpha"
         result="blur"
         stdDeviation="2"
         id="feGaussianBlur1" />
      <feOffset
         dx="2"
         dy="2"
         result="offsetBlur"
         id="feOffset1" />
      <feBlend
         in="SourceGraphic"
         in2="offsetBlur"
         id="feBlend1" />
    </filter>
    <filter
       id="0HI_svg__a"
       x="-0.1341634"
       y="-0.11018899"
       width="1.3183556"
       height="1.2615933">
      <feGaussianBlur
         in="SourceAlpha"
         result="blur"
         stdDeviation="2"
         id="feGaussianBlur1-9" />
      <feOffset
         dx="2"
         dy="2"
         result="offsetBlur"
         id="feOffset1-7" />
      <feBlend
         in="SourceGraphic"
         in2="offsetBlur"
         id="feBlend1-2"
         mode="normal" />
    </filter>
    <filter
       id="1NK_svg__a"
       x="-0.13367237"
       y="-0.10925631"
       width="1.316659"
       height="1.2594826">
      <feGaussianBlur
         in="SourceAlpha"
         result="blur"
         stdDeviation="2"
         id="feGaussianBlur1-5" />
      <feOffset
         dx="2"
         dy="2"
         result="offsetBlur"
         id="feOffset1-4" />
      <feBlend
         in="SourceGraphic"
         in2="offsetBlur"
         id="feBlend1-9"
         mode="normal" />
    </filter>
  </defs>
  <g
     fill="#fdd3e3"
     filter="url(#1KA_svg__a)"
     transform="translate(-102.587 -25.906)scale(1.03094)"
     id="g1">
    <path
       fill="#fdeb98"
       d="m 141.866,74.375 6.836,-44.558 h -40.19 l 6.535,44.862 13.56087,3.935 c 0.09,0.017 -0.091,0.032 0,0.021 z"
       id="path1"
       sodipodi:nodetypes="ccccccc"
       style="stroke-width:0.96998855;stroke-dasharray:none;stroke:#333333;fill:#d3bcad;fill-opacity:1" />
  </g>
  <path
     id="path26076-6"
     style="color:#000000;font-style:normal;font-variant:normal;font-weight:normal;font-stretch:normal;font-size:29.072px;line-height:1.25;font-family:MingLiU_HKSCS-ExtB;-inkscape-font-specification:MingLiU_HKSCS-ExtB;font-variant-ligatures:normal;font-variant-position:normal;font-variant-caps:normal;font-variant-numeric:normal;font-variant-alternates:normal;font-variant-east-asian:normal;font-feature-settings:normal;font-variation-settings:normal;text-indent:0;text-align:start;text-decoration:none;text-decoration-line:none;text-decoration-style:solid;text-decoration-color:#000000;letter-spacing:0px;word-spacing:0px;text-transform:none;writing-mode:lr-tb;direction:ltr;text-orientation:mixed;dominant-baseline:auto;baseline-shift:baseline;text-anchor:start;white-space:normal;shape-padding:0;shape-margin:0;inline-size:0;clip-rule:nonzero;display:inline;overflow:visible;visibility:visible;opacity:0.99;isolation:auto;mix-blend-mode:normal;color-interpolation:sRGB;color-interpolation-filters:linearRGB;solid-color:#000000;solid-opacity:1;vector-effect:none;fill:#a92b01;fill-opacity:1;fill-rule:nonzero;stroke:none;stroke-width:0.487827;stroke-linecap:butt;stroke-linejoin:round;stroke-miterlimit:4;stroke-dasharray:none;stroke-dashoffset:0;stroke-opacity:1;color-rendering:auto;image-rendering:auto;shape-rendering:auto;text-rendering:auto;enable-background:accumulate;stop-color:#000000"
     d="m 36.558751,40.160395 c 0.384,-0.01181 0.6432,-0.4032 0.5088,-0.7488 l -0.96,-2.94912 c -0.08774,-0.2208 -0.3168,-0.3552 -0.5568,-0.3456 h -7.77888 l 3.81024,-2.928 v -4.20576 h 8.71776 c 0.2496,0.0035 0.48,-0.1728 0.5568,-0.4128 l 0.96096,-2.53728 c 0.1344,-0.3744 -0.1536,-0.768 -0.5568,-0.7488 h -9.677664 v -8.16288 l 3.00672,0.03571 c 0.2304,-0.02381 0.5376,0.01699 0.8256,-0.01594 l -0.96864,-1.28448 c -0.96864,-1.2432 -1.55712,-1.89696 -2.94336,-2.7696 -1.17312,0.0239 -2.33184,0.4896 -3.99648,1.3776 l 0.03091,2.65728 v 8.16192 h -8.80416 c -0.4032,-0.01498 -0.6912,0.3744 -0.5472,0.7488 l 0.96,2.77632 c 0.06893,0.2496 1.69248,0.1728 1.94784,0.1728 h 6.44352 v 4.20096 l -3.65568,2.9328 c -1.7712,1.36608 -2.54592,1.65408 -2.69472,3.2928 -0.1344,0.3744 0.1536,0.768 0.5472,0.7488 l 14.776896,-8.64e-4 c 0.0099,7.68e-4 0.03091,9.6e-4 0.04051,8.64e-4 z"
     sodipodi:nodetypes="cccccccccccccccccccccccccccccccc" />
</svg>
