<?xml version="1.0" encoding="UTF-8" standalone="no"?>
<svg
   viewBox="0 0 60 60"
   version="1.1"
   id="svg10"
   sodipodi:docname="1UM.svg"
   inkscape:version="1.3 (0e150ed6c4, 2023-07-21)"
   xmlns:inkscape="http://www.inkscape.org/namespaces/inkscape"
   xmlns:sodipodi="http://sodipodi.sourceforge.net/DTD/sodipodi-0.dtd"
   xmlns="http://www.w3.org/2000/svg"
   xmlns:svg="http://www.w3.org/2000/svg">
  <sodipodi:namedview
     id="namedview10"
     pagecolor="#ffffff"
     bordercolor="#666666"
     borderopacity="1.0"
     inkscape:showpageshadow="2"
     inkscape:pageopacity="0.0"
     inkscape:pagecheckerboard="0"
     inkscape:deskcolor="#d1d1d1"
     inkscape:zoom="15.216666"
     inkscape:cx="37.951808"
     inkscape:cy="47.05367"
     inkscape:window-width="3840"
     inkscape:window-height="2054"
     inkscape:window-x="-11"
     inkscape:window-y="-11"
     inkscape:window-maximized="1"
     inkscape:current-layer="svg10" />
  <defs
     id="defs1">
    <filter
       id="1UM_svg__a"
       x="-0.13338546"
       y="-0.1082508"
       width="1.3166419"
       height="1.2574769">
      <feGaussianBlur
         in="SourceAlpha"
         result="blur"
         stdDeviation="2"
         id="feGaussianBlur1" />
      <feOffset
         dx="2"
         dy="2"
         result="offsetBlur"
         id="feOffset1" />
      <feBlend
         in="SourceGraphic"
         in2="offsetBlur"
         id="feBlend1" />
    </filter>
    <filter
       id="0UM_svg__a"
       x="-0.13416397"
       y="-0.10998295"
       width="1.318338"
       height="1.2611304">
      <feGaussianBlur
         in="SourceAlpha"
         result="blur"
         stdDeviation="2"
         id="feGaussianBlur1-7" />
      <feOffset
         dx="2"
         dy="2"
         result="offsetBlur"
         id="feOffset1-0" />
      <feBlend
         in="SourceGraphic"
         in2="offsetBlur"
         id="feBlend1-8"
         mode="normal" />
    </filter>
  </defs>
  <g
     fill="#fdd3e3"
     filter="url(#1UM_svg__a)"
     transform="translate(-102.587 -25.906)scale(1.03094)"
     id="g1">
    <path
       fill="#fdeb98"
       d="m 141.866,74.375 6.836,-44.558 h -40.19 l 6.535,44.862 13.138,3.935 c 0.09,0.017 0.18,0.032 0.271,0.021 z"
       id="path1"
       style="stroke:#333333;stroke-width:0.969989;stroke-dasharray:none;fill:#dfc585;fill-opacity:1"
       sodipodi:nodetypes="ccccccc" />
  </g>
  <path
     id="path6793-2"
     style="color:#000000;font-style:normal;font-variant:normal;font-weight:normal;font-stretch:normal;font-size:medium;line-height:normal;font-family:sans-serif;font-variant-ligatures:normal;font-variant-position:normal;font-variant-caps:normal;font-variant-numeric:normal;font-variant-alternates:normal;font-variant-east-asian:normal;font-feature-settings:normal;font-variation-settings:normal;text-indent:0;text-align:start;text-decoration:none;text-decoration-line:none;text-decoration-style:solid;text-decoration-color:#000000;letter-spacing:normal;word-spacing:normal;text-transform:none;writing-mode:lr-tb;direction:ltr;text-orientation:mixed;dominant-baseline:auto;baseline-shift:baseline;text-anchor:start;white-space:normal;shape-padding:0;shape-margin:0;inline-size:0;clip-rule:nonzero;display:inline;overflow:visible;visibility:visible;isolation:auto;mix-blend-mode:normal;color-interpolation:sRGB;color-interpolation-filters:linearRGB;solid-color:#000000;solid-opacity:1;fill:#cc3300;fill-opacity:1;fill-rule:nonzero;stroke:none;stroke-width:1.27592;stroke-linecap:butt;stroke-linejoin:round;stroke-miterlimit:4;stroke-dasharray:none;stroke-dashoffset:0;stroke-opacity:1;color-rendering:auto;image-rendering:auto;shape-rendering:auto;text-rendering:auto;enable-background:accumulate;stop-color:#000000"
     d="m 34.671821,50.37339 0.8322,-1.195155 c 0.45119,-0.661747 0.71187,-0.972567 0.95251,-1.31447 0.25066,-0.3409 0.45119,-0.71188 0.71188,-1.37463 l 0.12032,-0.240635 -0.18048,-0.240635 c -0.84222,-0.942489 -2.22888,-1.734579 -3.64462,-2.449467 -1.41574,-0.711879 -2.84852,-1.363599 -3.76394,-1.792732 -1.52402,-0.982595 -2.67406,-2.192789 -3.787,-3.471164 -0.0837,-1.222228 -0.60159,-2.100546 -1.88898,-3.339819 l 0.66174,-0.711878 c 1.54909,1.489932 2.22889,2.809417 2.20984,4.538982 h -0.11029 c 0.37098,0.551457 0.74195,1.075841 1.12898,1.493945 0.67177,0.731933 1.35858,0.932462 1.91204,1.015682 0.55146,0.08483 0.96255,0.120317 1.79274,0.541429 0.002,0.0013 0.23061,0.05976 0.24063,0.05976 h 2e-4 c 0.0105,-0.0016 0.3008,-0.05976 0.3008,-0.05976 l 1.25431,-0.541429 -1.07584,-0.541431 c -0.021,-0.02938 -0.0314,-0.05976 -0.0629,-0.120316 -0.0943,-0.180477 -0.23061,-0.441165 -0.36096,-0.782065 -0.13034,-0.350926 -0.26068,-0.762013 -0.35092,-1.18914 4.15497,-0.431139 8.59669,-3.353854 10.99031,-5.024264 0.51135,-0.401059 0.17045,-1.221224 -0.48127,-1.134996 -1.56513,0.230609 -2.78836,0.501323 -4.05671,0.962541 l -0.0105,0.006 -2e-4,-7.01e-4 c -0.52137,0.180477 -1.11494,0.280741 -1.7065,0.350926 -0.78207,0.08694 -1.52904,0.100265 -2.05142,0.100265 -0.76201,0.731932 -1.69748,1.289404 -2.81142,1.61727 -0.26069,0.471244 -0.27072,0.802118 -0.18048,1.263336 0.10027,0.491272 0.35093,1.036713 0.3008,1.732549 l -0.95251,-0.05976 c 0.0315,-0.421113 -0.18048,-0.892356 -0.3008,-1.493944 -0.0944,-0.461218 0.0837,-1.033729 0.3008,-1.61326 -0.12032,-0.100264 -0.32085,-0.250661 -0.65172,-0.481271 -0.41109,-0.270714 -0.93247,-0.601587 -1.43379,-0.892356 -0.50132,-0.290766 -0.99262,-0.571508 -1.37363,-0.782064 -0.1905,-0.100264 -0.36095,-0.180477 -0.48127,-0.240635 -0.0629,-0.02827 -0.0838,-0.04502 -0.12031,-0.05766 l 0.24063,-0.952515 h 0.0629 c 0.021,0.0099 0.0943,0.05033 0.12032,0.05976 0.0524,0.02407 0.0524,0.02726 0.12032,0.05965 0.13034,0.06607 0.3409,0.190504 0.54143,0.300795 0.39103,0.210556 0.86227,0.48127 1.37463,0.782065 0.51134,0.300794 1.0608,0.611614 1.49394,0.892355 0.29077,0.190504 0.52137,0.360953 0.71188,0.531404 1.82682,-0.551456 2.98388,-1.815794 3.83212,-3.577445 0.88232,-1.834845 1.38966,-4.203097 1.67341,-6.690664 0.28074,-2.487567 0.40106,-5.077405 0.60159,-7.408559 0.20053,-2.331153 0.47124,-4.396607 1.19516,-5.854456 0.12031,-0.240635 0.23061,-0.401059 0.28074,-0.641694 -0.89236,-0.09325 -1.79875,-0.210556 -2.72821,-0.320847 -4.04167,-0.4912983 -8.4102,-0.9324623 -12.72519,0.481271 -0.33087,0.130344 -0.4913,0.501323 -0.36095,0.832197 1.35658,2.782345 1.92809,5.929654 6.2124,9.737707 0.42111,1.223229 0.37098,2.386301 0.30079,3.644622 -0.021,0.300794 0.0314,0.621642 0.0943,0.942489 0.56148,0.842223 1.08085,2.116588 1.55912,4.169006 l -0.33088,0.561482 -0.59156,-0.300794 c -0.46121,-1.998276 -1.10993,-3.303721 -1.49996,-3.874228 -0.5314,-0.671773 -0.63167,-0.541429 -0.89235,-0.541429 -0.79209,0.01785 -1.42677,0.350926 -2.15068,0.601589 -0.51135,-2.479547 -1.07885,-4.634235 -1.19415,-7.109772 0.0105,-0.120317 -0.006,-0.250661 -0.0628,-0.360952 l -1.6133,-2.389308 c -0.16043,-0.230609 -0.45119,-0.330874 -0.71188,-0.240635 l -1.19516,0.360953 c -0.35092,0.100264 -0.55145,0.491297 -0.42111,0.832197 l 0.0315,0.08483 -1.50196,0.772038 c -0.16043,-0.250662 -0.46122,-0.350926 -0.74196,-0.250662 -0.39103,0.140371 -0.84223,0.270715 -1.31347,0.481271 -0.47124,0.210556 -0.98259,0.511349 -1.31447,1.074837 -0.0314,0.0754 -0.0523,0.160425 -0.0629,0.240636 -0.002,0.01364 -0.0314,0.09425 -0.30079,0.300793 -0.27072,0.20053 -0.74196,0.491299 -1.49294,0.832197 -0.42112,0.210557 -0.4913,0.782065 -0.12032,1.075841 l 0.77204,0.541429 c 2.00028,2.913693 3.57142,5.172656 3.94441,8.65886 0.002,0.01985 -0.002,0.03871 0,0.05966 l -0.48127,2.808414 c -0.021,0.170503 0.0314,0.330926 0.13034,0.461271 0.0839,0.491297 0.40106,0.932461 0.76202,1.387663 0.46121,0.571509 1.05779,1.142016 1.67241,1.731572 0.61162,0.591562 1.20017,1.229245 1.67242,1.792732 0.45119,0.531404 0.70185,0.992621 0.78206,1.37463 l -2.39031,3.405992 4.36051,-1.434789 c 0.8322,0.160424 2.61992,0.782065 4.42067,1.673419 1.85189,0.912409 3.7489,2.088513 4.72047,3.047043 0.0629,0.06598 0.28074,0.411086 0.42111,0.71188 0.13034,0.300794 0.18047,0.651721 0.18047,0.661747 z m 0.65172,-2.516644 c -0.16043,-0.360953 -0.38101,-0.741958 -0.65172,-1.008663 -1.136,-1.119956 -3.05507,-2.226879 -4.95909,-3.166358 -1.90403,-0.94249 -3.7098,-1.675424 -4.77962,-1.85189 h -0.12032 l -1.79273,0.541429 0.95251,-1.374629 v -0.180476 c -0.10026,-0.701854 -0.55145,-1.347558 -1.07584,-1.972207 -0.52138,-0.621642 -1.17711,-1.202174 -1.79173,-1.792733 -0.58153,-0.551455 -1.138,-1.107925 -1.53705,-1.584183 l 2.61189,1.345553 c 1.3646,0.561483 1.50497,0.872303 2.03136,1.254312 0.0838,0.06286 0.1905,0.130344 0.31082,0.180476 1.34856,1.575158 2.7262,3.148312 4.71144,4.418665 h 0.0629 c 0.95252,0.451192 2.32915,1.038742 3.70378,1.731572 1.25832,0.631667 2.40435,1.40571 3.1062,2.091521 -0.14037,0.300795 -0.27072,0.631668 -0.42111,0.832198 -0.0838,0.120317 -0.24064,0.381005 -0.36096,0.531403 z M 22.694501,33.283673 h -0.66175 l -0.1905,-0.300795 c -0.23061,-0.360953 -0.28074,-0.671773 -0.37098,-0.972567 -0.0943,-0.300795 -0.23061,-0.681801 -0.63167,-1.351568 l -0.3409,-0.551457 0.56148,-0.330873 c 0.33088,-0.200529 0.80212,-0.220582 1.14202,-0.0754 0.33087,0.150398 0.56148,0.381006 0.80212,0.641694 l 0.007,0.0088 0.009,0.0086 c 0.17044,0.20053 0.31082,0.360953 0.43113,0.561482 0.12032,0.20053 0.22059,0.471245 0.20053,0.751986 -0.0419,0.561482 -0.35092,0.872303 -0.76201,1.379642 z m 12.32614,-0.220583 c 0.37098,-0.01364 0.77204,-0.0377 1.18513,-0.08272 0.5314,-0.06076 1.06381,-0.160423 1.47389,-0.300794 l -0.001,-0.0032 c 3.21448,-0.902383 5.30601,-1.190142 7.14686,-4.29534 0.24064,-0.421112 -0.0524,-0.942488 -0.54142,-0.952516 l -0.88233,-0.0367 -0.006,0.0013 c -0.92244,0.260689 -0.70186,0.190503 -1.8529,0.661747 l -0.002,-0.006 c -1.27436,0.54143 -2.40936,0.71188 -4.65228,0.942488 -0.24063,0.88233 -0.54143,1.724553 -0.91241,2.492581 -0.27071,0.571509 -0.59156,1.09489 -0.96254,1.574156 z m 2.09152,-4.94706 c 1.99928,-0.210556 2.9929,-0.37098 4.10885,-0.85225 l -0.003,-0.0068 c 1.14703,-0.471243 0.94249,-0.431137 1.8579,-0.691825 l 0.0315,-0.01575 c 0.93247,-0.561483 1.91706,-1.392678 2.97385,-2.709153 0.67178,-0.521376 0.0943,-1.221224 -0.77204,-1.016684 -2.59585,0.240636 -4.95708,1.248296 -7.55995,1.318481 -0.0103,0.100265 -0.021,0.20053 -0.0315,0.300794 -0.14037,1.252306 -0.33087,2.494585 -0.60159,3.674702 z m -15.70466,-2.776329 -2.92773,-3.46515 0.14037,-0.721905 2.66804,-1.125973 -2.22788,-1.164073 0.021,-0.09325 c 0.021,-0.120319 0.009,-0.240637 -0.0419,-0.350928 l 2.19379,0.952515 0.59157,1.439801 c 0.1905,1.21922 -0.0419,1.935109 -0.3008,2.748256 -0.14037,0.451191 -0.0523,1.191145 -0.12032,1.791729 z m 16.42015,-2.049412 0.002,-4e-4 c 0.86228,-0.02407 1.84086,-0.0723 4.09882,-0.802119 0.55146,-0.270715 1.138,-0.551455 1.4027,-0.792091 1.56513,-1.441806 3.028,-3.154327 3.58346,-4.002567 0.32085,-0.501323 -0.1504,-1.120959 -0.71188,-0.952514 -2.05342,0.54143 -2.92672,0.491297 -3.5243,0.300794 -0.43114,-0.06186 -0.33087,-0.140371 -0.80212,0.100265 -1.2874,0.360953 -2.22186,0.852249 -3.62757,0.701852 -0.13035,1.727561 -0.24064,3.589477 -0.42112,5.451393 z m 0.91241,-6.271556 0.002,-6.02e-4 v -8.03e-4 c 0.8723,0.0038 1.58017,-0.300794 2.60387,-0.611614 3.12926,-1.847879 5.25989,-4.358507 5.8705,-5.229807 0.0314,-0.03879 0.22058,-0.210556 0.24063,-0.240636 0.32085,-0.501322 -0.15039,-1.1219623 -0.71188,-0.9525143 -2.02434,0.7620123 -4.40563,0.7620123 -7.00148,0.5314033 -0.0733,0.441164 -0.23061,0.792092 -0.35092,1.024706 -0.60159,1.196157 -0.88233,3.140289 -1.07584,5.437354 -4.1e-4,0.0055 -2.1e-4,0.01153 -9.1e-4,0.01775 0.1504,0.01675 0.29077,0.02517 0.43114,0.02517 z"
     sodipodi:nodetypes="ccccccsccccccccssscccccccccccscccccccccccccccccccccccccccccscccccccccccccccccccccccscccccccccsccccccscccccssccccccsccccccccccccccccsccccccccccccccccccccccccccccccccccccccccccccccccccsccccccccccss" />
</svg>
