<?xml version="1.0" encoding="UTF-8" standalone="no"?>
<svg
   viewBox="0 0 60 60"
   version="1.1"
   id="svg10"
   sodipodi:docname="1UM.svg"
   inkscape:version="1.3 (0e150ed6c4, 2023-07-21)"
   xmlns:inkscape="http://www.inkscape.org/namespaces/inkscape"
   xmlns:sodipodi="http://sodipodi.sourceforge.net/DTD/sodipodi-0.dtd"
   xmlns="http://www.w3.org/2000/svg"
   xmlns:svg="http://www.w3.org/2000/svg">
  <sodipodi:namedview
     id="namedview10"
     pagecolor="#ffffff"
     bordercolor="#666666"
     borderopacity="1.0"
     inkscape:showpageshadow="2"
     inkscape:pageopacity="0.0"
     inkscape:pagecheckerboard="0"
     inkscape:deskcolor="#d1d1d1"
     inkscape:zoom="10.759808"
     inkscape:cx="22.537577"
     inkscape:cy="62.91934"
     inkscape:window-width="3840"
     inkscape:window-height="2054"
     inkscape:window-x="-11"
     inkscape:window-y="-11"
     inkscape:window-maximized="1"
     inkscape:current-layer="svg10" />
  <defs
     id="defs1">
    <filter
       id="1UM_svg__a"
       x="-0.13338546"
       y="-0.1082508"
       width="1.3166419"
       height="1.2574769">
      <feGaussianBlur
         in="SourceAlpha"
         result="blur"
         stdDeviation="2"
         id="feGaussianBlur1" />
      <feOffset
         dx="2"
         dy="2"
         result="offsetBlur"
         id="feOffset1" />
      <feBlend
         in="SourceGraphic"
         in2="offsetBlur"
         id="feBlend1" />
    </filter>
    <filter
       id="0UM_svg__a"
       x="-0.13416397"
       y="-0.10998295"
       width="1.318338"
       height="1.2611304">
      <feGaussianBlur
         in="SourceAlpha"
         result="blur"
         stdDeviation="2"
         id="feGaussianBlur1-7" />
      <feOffset
         dx="2"
         dy="2"
         result="offsetBlur"
         id="feOffset1-0" />
      <feBlend
         in="SourceGraphic"
         in2="offsetBlur"
         id="feBlend1-8"
         mode="normal" />
    </filter>
    <filter
       id="1RY_svg__a"
       x="-0.13338546"
       y="-0.1082508"
       width="1.3166419"
       height="1.2574769">
      <feGaussianBlur
         in="SourceAlpha"
         result="blur"
         stdDeviation="2"
         id="feGaussianBlur1-4" />
      <feOffset
         dx="2"
         dy="2"
         result="offsetBlur"
         id="feOffset1-1" />
      <feBlend
         in="SourceGraphic"
         in2="offsetBlur"
         id="feBlend1-4"
         mode="normal" />
    </filter>
    <filter
       id="0UM_svg__a-3"
       x="-0.13416397"
       y="-0.10998295"
       width="1.318338"
       height="1.2611304">
      <feGaussianBlur
         in="SourceAlpha"
         result="blur"
         stdDeviation="2"
         id="feGaussianBlur1-2" />
      <feOffset
         dx="2"
         dy="2"
         result="offsetBlur"
         id="feOffset1-7" />
      <feBlend
         in="SourceGraphic"
         in2="offsetBlur"
         id="feBlend1-6"
         mode="normal" />
    </filter>
    <filter
       id="0UM_svg__a-4"
       x="-0.13416397"
       y="-0.10998295"
       width="1.318338"
       height="1.2611304">
      <feGaussianBlur
         in="SourceAlpha"
         result="blur"
         stdDeviation="2"
         id="feGaussianBlur1-1" />
      <feOffset
         dx="2"
         dy="2"
         result="offsetBlur"
         id="feOffset1-3" />
      <feBlend
         in="SourceGraphic"
         in2="offsetBlur"
         id="feBlend1-48"
         mode="normal" />
    </filter>
  </defs>
  <g
     fill="#fdd3e3"
     filter="url(#1UM_svg__a)"
     transform="translate(-102.587 -25.906)scale(1.03094)"
     id="g1">
    <path
       fill="#fdeb98"
       d="m 141.866,74.375 6.836,-44.558 h -40.19 l 6.535,44.862 13.138,3.935 c 0.09,0.017 0.18,0.032 0.271,0.021 z"
       id="path1"
       style="stroke:#333333;stroke-width:0.969989;stroke-dasharray:none;fill:#d4bdae;fill-opacity:1"
       sodipodi:nodetypes="ccccccc" />
  </g>
  <path
     id="path3"
     style="color:#000000;font-style:normal;font-variant:normal;font-weight:normal;font-stretch:normal;font-size:medium;line-height:normal;font-family:sans-serif;font-variant-ligatures:normal;font-variant-position:normal;font-variant-caps:normal;font-variant-numeric:normal;font-variant-alternates:normal;font-variant-east-asian:normal;font-feature-settings:normal;font-variation-settings:normal;text-indent:0;text-align:start;text-decoration:none;text-decoration-line:none;text-decoration-style:solid;text-decoration-color:#000000;letter-spacing:normal;word-spacing:normal;text-transform:none;writing-mode:lr-tb;direction:ltr;text-orientation:mixed;dominant-baseline:auto;baseline-shift:baseline;text-anchor:start;white-space:normal;shape-padding:0;shape-margin:0;inline-size:0;clip-rule:nonzero;display:inline;overflow:visible;visibility:visible;isolation:auto;mix-blend-mode:normal;color-interpolation:sRGB;color-interpolation-filters:linearRGB;solid-color:#000000;solid-opacity:1;fill:#a82a00;fill-opacity:1;fill-rule:nonzero;stroke:none;stroke-width:1.14624;stroke-linecap:butt;stroke-linejoin:round;stroke-miterlimit:4;stroke-dasharray:none;stroke-dashoffset:0;stroke-opacity:1;color-rendering:auto;image-rendering:auto;shape-rendering:auto;text-rendering:auto;enable-background:accumulate;stop-color:#000000"
     d="m 33.709735,50.130542 c 0.14229,-0.0027 0.28484,-0.02611 0.42802,-0.0767 0.0675,-0.02383 0.23686,-0.06985 0.41911,-0.137323 0.18224,-0.06748 0.39112,-0.151439 0.57783,-0.347767 0.1867,-0.196329 0.28628,-0.583214 0.16407,-0.888148 -0.12221,-0.304934 -0.36009,-0.551429 -0.73655,-0.841771 l -0.0464,-0.03388 -0.0517,-0.02319 c -0.92032,-0.398053 -1.127537,-0.759636 -1.260879,-1.214512 -0.07077,-1.231213 -0.438458,-1.773319 -1.189548,-2.614496 -0.273075,-0.248221 -0.602727,-0.481019 -1.111066,-0.852482 -0.04839,-0.03516 -0.09607,-0.06848 -0.144463,-0.103437 1.268733,0.645579 2.121141,1.159223 2.869526,1.897566 0.097,0.07971 0.13673,0.299409 0.14089,0.308531 0.40148,0.900347 0.48554,1.285379 1.04687,2.131186 0.32934,0.49624 0.82758,0.934726 1.35897,1.244828 0.26569,0.155056 0.54136,0.290169 0.82215,0.360259 0.2808,0.07013 0.56745,0.07497 0.85427,-0.02849 0.12496,-0.04511 0.564,-0.07049 0.89171,-0.472609 0.16385,-0.201049 0.22955,-0.534992 0.14446,-0.820376 -0.0851,-0.285384 -0.26668,-0.550096 -0.55821,-0.866745 l -0.066,-0.07131 -0.0891,-0.03926 c -0.92032,-0.398053 -1.12754,-0.759636 -1.26088,-1.214512 -0.15649,-0.533787 -0.13476,-1.417178 -0.51898,-1.922531 -0.75661,-0.846692 -1.2749,-1.04492 -2.54674,-1.687121 -1.271741,-0.639425 -2.2451,-1.481725 -3.067477,-1.867241 -0.0904,-0.07698 -0.160315,-0.132968 -0.246111,-0.205094 0.268711,0.10582 0.544115,0.203514 0.829289,0.272865 1.701968,0.494094 2.878469,0.261789 2.937299,0.249681 l 1.12712,-0.486871 c -1.64997,-1.070277 -3.17944,-2.184996 -4.030534,-3.556153 0.591515,0.4147 1.213134,0.883099 1.79412,1.178847 0.794634,0.404445 1.382804,0.629381 1.744194,0.667001 0.0944,0.0099 0.20775,0.0095 0.3228,0.0018 0.34517,-0.0231 0.71678,-0.11192 0.71872,-0.194392 5.1e-4,-0.02529 -0.17233,-0.145477 -0.38344,-0.267515 -0.44343,-0.256347 -1.06271,-0.725422 -1.75311,-1.325081 -0.26631,-0.231319 -0.569011,-0.491455 -0.674129,-0.579607 -0.105117,-0.0883 -0.19357,-0.177254 -0.196173,-0.196182 -0.0082,-0.06091 0.529672,0.155977 1.107502,0.445854 1.12573,0.564696 1.93775,0.748122 2.83386,0.638466 0.73724,-0.09022 1.28071,-0.385872 1.70138,-0.923814 0.33592,-0.429564 0.32405,-0.504759 -0.0464,-0.288908 -1.02624,0.598125 -2.3243,0.45977 -2.8285,-0.3014 -0.36799,-0.555511 -0.17522,-1.325529 0.43337,-1.731709 0.40933,-0.273166 1.12599,-0.404317 2.45042,-0.449415 1.38503,-0.04712 2.78728,-0.439381 3.6578,-1.021899 0.46448,-0.31089 1.13936,-0.98205 1.054,-1.04866 -0.0156,-0.0122 -0.18978,0.069 -0.387,0.18012 -1.17407,0.6618 -2.34413,0.90597 -3.5829,0.74548 -0.37517,-0.0486 -1.00733,-0.22397 -0.97196,-0.2693 0.0109,-0.014 0.25816,-0.0848 0.54929,-0.15695 0.93919,-0.23257 1.59853,-0.58069 2.20431,-1.16635 0.55277,-0.5344 0.92736,-1.18487 1.33222,-2.31132 0.24908,-0.69303 0.53122,-1.71928 0.4833,-1.75668 -0.0159,-0.0124 -0.3424,0.38966 -0.72585,0.8935 -0.87145,1.14501 -1.16491,1.42469 -1.87259,1.78164 -0.23203,0.11703 -0.38965,0.16355 -0.68305,0.19974 -0.21035,0.026 -0.36525,0.0271 -0.3442,0.004 0.0209,-0.0237 0.1769,-0.10624 0.34599,-0.18191 0.667,-0.29852 0.90674,-0.60194 1.66036,-2.11157 0.76906,-1.54086 1.02996,-1.84311 1.66393,-1.92253 0.49113,-0.0615 1.10188,0.18966 1.4089,0.57961 0.0988,0.12544 0.19372,0.22785 0.21045,0.2265 0.052,-0.005 0.0231,-0.57583 -0.041,-0.82573 -0.14717,-0.5735 -0.41119,-0.99668 -0.81681,-1.30546 -0.77987,-0.59367 -2.01887,-0.57416 -2.83029,0.0464 -0.44006,0.3365 -0.0578,-0.26798 0.59566,-0.94165 0.54796,-0.56481 0.59437,-0.61936 0.77579,-0.90955 0.34023,-0.54424 0.36342,-0.85405 0.15694,-2.18826 -0.20397,-1.31798 -0.17558,-1.61264 0.19618,-2.05093 0.20742,-0.24463 0.4308,-0.40641 0.71693,-0.5172 0.11145,-0.0431 0.20073,-0.0971 0.19796,-0.11949 -0.01,-0.0781 -0.44941,-0.25001 -0.74725,-0.29247 -0.54136,-0.0772 -1.17844,0.13725 -1.6675,0.5582 -0.13462,0.11589 -0.26136,0.20607 -0.28178,0.20153 -0.0649,-0.0144 0.13858,-0.63632 0.31388,-0.95948 0.25313,-0.46663 0.6059,-0.85754 1.00942,-1.1182 0.19287,-0.12466 0.40206,-0.23295 0.46547,-0.24076 0.22022,-0.0271 0.21731,-0.12656 -0.0107,-0.34421 -0.41489,-0.39572 -0.90914,-0.80624 -1.46597,-1.18419 1.69051,-0.65359 3.17643,-1.36076 3.69347,-4.1981796 -0.62224,0.4049001 -2.28949,1.2455996 -2.90876,1.5016396 -3.14164,1.71158 -4.96505,1.07616 -8.32502,1.16993 -1.442537,0.0565 -5.029096,0.59215 -6.209878,0.80789 -1.221023,0.22309 -1.304308,0.45269 -3.236914,0.92382 -0.0108,3.13593 7.371797,5.13107 6.074337,11.37822 -0.0073,0.10971 0.0018,0.22435 0.01251,0.33886 0.318612,0.0393 0.668763,0.0701 1.027251,0.091 0.716985,0.0419 1.469563,0.0452 2.075906,0.009 0.303158,-0.0184 0.569878,-0.0481 0.770438,-0.0838 0.20056,-0.0356 0.34473,-0.0969 0.32994,-0.0874 l 0.98979,-0.63668 -0.30318,1.13782 c -0.32911,1.23942 -0.96596,1.91745 -1.68711,2.26138 -0.413788,0.19732 -0.812635,0.26958 -1.221645,0.36739 0.391369,0.28104 0.72859,0.57852 1.237685,0.79897 0.80245,0.34749 1.65613,0.57362 2.13833,0.60101 l 0.77579,0.0446 -0.41732,0.65631 c -0.47318,0.74516 -1.24846,1.04738 -1.98138,1.17349 -0.43267,0.0745 -0.797387,0.0878 -1.194902,0.11236 0.164726,0.19398 0.263269,0.354423 0.458346,0.55108 0.404656,0.407906 0.809726,0.773698 1.037956,1.009418 l 0.37629,0.386996 -0.44585,0.306751 c -0.57304,0.392866 -1.230048,0.597842 -1.89578,0.677702 -0.665768,0.07935 -1.34275,0.0336 -1.954626,-0.07314 -0.612416,-0.106788 -1.164767,-0.277869 -1.601517,-0.47617 -0.218371,-0.09916 -0.407057,-0.20482 -0.567125,-0.322803 -0.160069,-0.117974 -0.303784,-0.236642 -0.392355,-0.460127 l 1.337563,-0.04812 c 0.350927,0.159338 0.841086,0.314367 1.38037,0.408408 0.870863,0.15186 1.808839,0.05543 2.600234,-0.260383 -0.183463,-0.175299 -0.305519,-0.289511 -0.520767,-0.506494 -0.425537,-0.429063 -0.85586,-0.888139 -1.105715,-1.351838 l -0.312102,-0.57783 0.649169,-0.091 c 0.667402,-0.0941 1.387382,-0.0801 1.999211,-0.18547 0.28873,-0.0498 0.42468,-0.25259 0.64382,-0.36025 -0.4591,-0.11852 -0.87706,-0.16376 -1.367888,-0.3763 -0.87867,-0.3805 -1.731106,-0.87472 -2.27565,-1.49452 l -0.449415,-0.51184 0.643817,-0.22115 c 0.793357,-0.27277 1.511639,-0.35149 2.03488,-0.60101 0.348816,-0.16634 0.620776,-0.47309 0.859616,-0.91311 -0.16745,0.0196 -0.32058,0.0455 -0.51185,0.0571 -0.654316,0.0394 -1.433868,0.0352 -2.184693,-0.009 -0.750824,-0.0436 -1.46654,-0.12393 -2.017046,-0.25324 -0.275249,-0.0647 -0.50717,-0.13464 -0.713369,-0.25504 -0.03936,-0.0229 -0.07908,-0.0491 -0.11771,-0.0784 -0.283795,-0.14339 -0.601156,-0.43006 -0.791842,-0.83821 -1.364892,-2.01178 -0.984417,-4.44763 -3.766592,-7.18898 l -1.29654,-0.0784 c -0.25642,0.0732 -1.07768,0.44563 -1.31616,0.74726 -0.0344,-1.46841 -0.61321,-3.1602 -2.04202,-4.61549 -0.20724,-0.2111 -0.25221,-0.34853 -0.2693,-0.49045 -0.0171,-0.14192 0.0121,-0.30877 0.05,-0.52611 0.036,-0.20612 0.33694,-0.6056 0.69911,-1.02011 0.36217,-0.41452 0.80264,-0.84905 0.84534,-1.49273 l -1.53375,0.89171 c -0.35746,0.40914 -0.80058,0.83941 -0.90954,1.46419 -0.0336,0.1925 -0.0965,0.46421 -0.0571,0.79184 0.0395,0.32763 0.20018,0.69354 0.52254,1.0219 1.44172,1.46854 1.8732,3.15881 1.76916,4.49244 -0.004,0.0508 -0.0105,0.10021 -0.0161,0.14981 -0.14335,-0.0956 -0.32327,-0.12282 -0.49758,-0.0606 -0.35128,0.1261 -0.36671,0.1818 -0.79005,0.37096 -0.42335,0.18905 -0.88428,0.45861 -1.18241,0.96483 -0.0282,0.0678 -0.0457,0.14552 -0.0552,0.21758 -0.002,0.0122 -0.0291,0.0855 -0.27107,0.27107 -0.19228,0.14243 -0.50298,0.33585 -0.95592,0.56178 -0.10967,-0.058 -0.1878,-0.13475 -0.25324,-0.23006 -0.14351,-0.20902 -0.22662,-0.57902 -0.22293,-1.0647 0.007,-0.97137 0.33947,-2.3169 0.494,-3.51691 0.0917,-0.71244 0.0544,-1.2406 -0.10343,-1.66572 -0.1579,-0.42511 -0.43618,-0.71413 -0.69554,-0.93451 l -2.14189,-1.36611 c 0.37751,1.22342 1.12817,1.70184 1.55158,2.06164 0.21172,0.17991 0.34148,0.31862 0.4298,0.55643 0.0883,0.23782 0.13553,0.60746 0.0552,1.23056 -0.14352,1.11461 -0.4941,2.4676 -0.50292,3.62748 -0.005,0.57998 0.0718,1.13505 0.38343,1.58903 0.0845,0.123 0.18816,0.23132 0.30675,0.32637 -0.0314,0.19309 0.032,0.40017 0.20688,0.53859 l 0.69196,0.48688 c 1.36422,1.98719 2.22146,2.83762 2.38444,4.34263 -0.13383,0.15255 -0.26149,0.32053 -0.38522,0.4958 -0.32854,0.46538 -0.61579,0.99227 -0.81502,1.46596 -0.0996,0.23684 -0.17718,0.45938 -0.2265,0.66522 -0.0493,0.20586 -0.0919,0.38262 -0.0214,0.62777 0.24677,0.85859 0.82965,1.752175 1.38037,2.480747 0.27536,0.364286 0.54242,0.682433 0.76153,0.922024 0.0328,0.03579 0.0623,0.06584 0.0927,0.09809 0.0168,0.188987 0.0677,0.375526 0.14446,0.561783 0.0833,0.202099 0.19401,0.403632 0.3121,0.609932 0.30269,0.518903 0.70745,1.052471 1.12534,1.603297 0.41543,0.552122 0.80825,1.139637 1.11998,1.653226 0.14921,0.242495 0.26316,0.46482 0.34242,0.667001 0.0792,0.202191 0.12469,0.383279 0.13911,0.543951 l -0.29249,2.122264 c -0.0352,0.04556 -0.0719,0.09293 -0.10521,0.137332 -0.13865,0.184732 -0.25972,0.357785 -0.35312,0.53324 -0.0934,0.175454 -0.19139,0.354671 -0.1409,0.633115 0.0478,0.263305 0.15471,0.425136 0.29605,0.670563 0.14134,0.245435 0.31968,0.52209 0.50828,0.790061 0.1886,0.267971 0.38501,0.525806 0.56891,0.732983 0.092,0.103592 0.18057,0.193935 0.27287,0.272865 0.0923,0.07889 0.16636,0.160845 0.37095,0.203313 0.0268,0.0055 0.0548,0.0082 0.082,0.0091 0.19058,0.0064 0.38164,-0.09198 0.477959,-0.190823 0.110076,-0.112943 0.162461,-0.223749 0.210445,-0.337066 0.09595,-0.226653 0.156243,-0.47985 0.215796,-0.745474 0.05953,-0.265624 0.115125,-0.539202 0.171209,-0.766868 0.05607,-0.227666 0.129579,-0.417393 0.146234,-0.444074 l 0.02676,-0.04283 0.01607,-0.04812 c 0.09074,-0.259278 0.260262,-0.538289 0.47446,-0.873876 0.50454,0.296688 1.051722,0.642694 1.606858,1.041514 0.666024,0.476608 1.164611,0.854765 1.578333,1.225214 0.413713,0.370459 0.74268,0.732618 1.071839,1.178847 0.0578,0.13451 0.111609,0.254804 0.164068,0.369162 9.13e-4,0.0027 0.0027,0.0055 0.0037,0.0091 0.118047,0.321982 0.13967,0.603467 0.18013,0.939866 0.04666,0.38811 0.126986,0.856198 0.447635,1.339344 0.329442,0.496386 0.827882,0.933639 1.358967,1.243048 0.265542,0.154708 0.540096,0.290013 0.820376,0.36025 0.140136,0.03506 0.282173,0.05406 0.424453,0.05168 z m 0.0749,-0.929165 c -0.14503,0.0082 -0.498268,-0.06054 -0.859605,-0.271076 -0.412964,-0.240596 -0.832585,-0.620478 -1.057566,-0.95948 -0.08565,-0.129105 -0.139871,-0.246631 -0.181911,-0.36382 l -0.0037,0.0037 c 0,0 -0.0073,-0.03059 -0.0091,-0.03926 -0.01854,-0.05597 -0.03187,-0.119124 -0.04456,-0.176559 -0.06282,-0.253544 -0.170451,-0.66953 -0.269295,-0.904191 -0.110663,-0.262502 -0.183301,-0.514502 -0.271115,-0.745474 l -0.02319,0.01068 c -0.03013,-0.124028 -0.0715,-0.26325 -0.205094,-0.444074 -0.192457,-0.260712 -0.380768,-0.487775 -0.574266,-0.697316 -0.193497,-0.209541 -0.392885,-0.4004 -0.611712,-0.590318 -0.437664,-0.379828 -0.950678,-0.752533 -1.635393,-1.243038 -0.547566,-0.393387 -1.076203,-0.743392 -1.576552,-1.055795 0.07935,-0.128932 0.162022,-0.26715 0.246111,-0.41375 0.276609,0.08063 0.586126,0.18076 0.936305,0.306751 0.793505,0.580782 2.013833,1.516914 2.833872,2.115084 0.452055,0.328639 0.708457,0.530254 0.911332,0.729422 0.111619,0.109601 0.209176,0.225529 0.312102,0.354899 l 0.0037,0.0037 c 0.104926,0.09672 0.1919,0.213394 0.263944,0.344197 0.0046,0.0055 0.0064,0.0082 0.01068,0.01425 v 0.0018 h -0.0018 c 0.284681,0.529614 0.332053,1.255301 0.358469,1.669288 0.191425,0.626176 0.669631,1.276093 1.703164,1.740621 0.25132,0.199615 0.33595,0.327533 0.36739,0.383434 -0.0388,0.02456 -0.075,0.05214 -0.16587,0.08556 -0.12691,0.04703 -0.26988,0.083 -0.40839,0.131972 -0.0117,0.0046 -0.0274,0.0073 -0.0481,0.0091 z m 3.70774,-1.139601 c -0.14352,0.0082 -0.49639,-0.06017 -0.85783,-0.271084 -0.41307,-0.241053 -0.83248,-0.622113 -1.05756,-0.961261 -0.28853,-0.434742 -0.42669,-0.715825 -0.56714,-1.041523 -0.19848,-0.259032 -0.48906,-1.024193 -0.82751,-1.551579 -1.01249,-0.990663 -2.006577,-1.47191 -3.704163,-2.309526 -1.477927,-0.731567 -2.886521,-1.321684 -3.862894,-1.571201 l -0.04995,-0.041 -0.304971,-0.0767 c -0.353712,0.789149 -0.808058,1.490537 -1.305467,2.175773 -0.147057,0.202538 -0.169729,0.352882 -0.215787,0.447645 -0.08857,0.18212 -0.10631,0.21543 -0.15516,0.41553 -0.11477,0.46975 -0.24317,1.438106 -0.34955,1.398203 -0.43901,-0.527204 -0.90902,-1.043313 -1.09146,-1.662148 0,0 0.0714,-0.149768 0.0927,-0.185471 0.0214,-0.0357 1.719221,-2.33985 1.719221,-2.33985 l 0.36204,-1.169925 -0.0018,-0.0018 c -0.01315,-0.08063 -0.03242,-0.159858 -0.05524,-0.238979 -0.03388,-0.183938 -0.104615,-0.360552 -0.221146,-0.517187 -0.179327,-0.335916 -0.416265,-0.661322 -0.683055,-0.979103 -0.46839,-0.55846 -1.05828,-1.079892 -1.61043,-1.610429 -0.43889,-0.416196 -0.84233,-0.82665 -1.17883,-1.203811 0.0161,0.0027 0.03,0.0046 0.0464,0.0073 0.5078,0.07268 1.10808,0.128539 1.71921,0.160507 0.26271,0.01379 0.52417,0.02274 0.78114,0.02858 0.51079,0.255549 0.917714,0.684903 1.271554,0.941615 0.07533,0.05652 0.863868,0.923367 0.971963,0.968402 1.253897,1.500672 2.394064,2.871327 4.062667,3.884297 0.855705,0.405331 1.777282,1.189576 3.012198,1.811953 0.58314,0.292726 0.9285,0.50801 1.21451,0.731202 1.13618,0.55772 1.34397,1.536978 1.32865,2.093739 0.0208,0.09683 0.0325,0.186823 0.0625,0.288918 0.17826,0.608069 0.66655,1.229551 1.62648,1.696033 0.22503,0.247527 0.32099,0.424214 0.34242,0.492222 -0.0152,-8.58e-4 -0.21322,0.09086 -0.46547,0.181911 -0.0114,0.0046 -0.0277,0.0073 -0.0481,0.0091 z m -13.637842,-7.575983 0.0428,-0.54216 0.0161,-0.146235 c -0.008,-0.292561 -0.0858,-0.584894 -0.20331,-0.873876 -0.1175,-0.288982 -0.2763,-0.574896 -0.44942,-0.859613 -0.31527,-0.518949 -0.71892,-1.021873 -1.10572,-1.526614 0.005,0.0046 0.009,0.0095 0.0143,0.01424 0.54946,0.531431 1.0774,1.104218 1.50164,1.610429 0.40534,0.477397 0.63061,0.889165 0.70267,1.232349 l -0.40483,0.922034 -0.002,0.0018 c -0.0357,0.05533 -0.0737,0.111199 -0.11236,0.167638 z m 0.3139,-6.443505 c -0.256,7.3e-5 -0.52166,-0.0055 -0.79007,-0.01963 -0.58717,-0.03068 -1.16342,-0.08583 -1.6354,-0.153375 -0.43364,-0.06209 -0.78643,-0.147879 -0.92202,-0.197963 -0.0179,-0.01187 -0.0457,-0.03105 -0.0713,-0.05524 -0.0603,-0.05698 -0.14578,-0.143715 -0.24432,-0.251462 -0.19711,-0.215531 -0.45031,-0.515114 -0.70802,-0.856043 -0.50937,-0.67386 -1.03236,-1.52571 -1.22164,-2.16151 0.005,-0.004 -9.2e-4,-0.0839 0.0232,-0.18548 0.0324,-0.13547 0.0946,-0.32097 0.18012,-0.52433 0.17107,-0.40673 0.43461,-0.89053 0.71872,-1.29298 0.2841,-0.40244 0.61081,-0.71802 0.78827,-0.8061 0.0888,-0.044 0.10909,-0.0327 0.10522,-0.0339 -0.003,-8.2e-4 0.0332,0.0459 0.0642,0.0874 9.2e-4,0.0188 0.003,0.0295 0.004,0.0571 0.003,0.0998 0.004,0.24844 0.002,0.42267 -0.003,0.34843 -0.0115,0.80668 -0.004,1.27513 0.008,0.46847 0.0322,0.9443 0.0981,1.35541 0.033,0.20556 0.0749,0.39441 0.14447,0.5707 0.0696,0.17629 0.16261,0.36122 0.37986,0.49045 0.43957,0.261437 1.02415,0.431715 1.53732,0.559989 0.25657,0.0641 0.49175,0.114394 0.67234,0.148024 0.0903,0.0168 0.16565,0.02867 0.22828,0.03744 0.0313,0.0046 0.058,0.0082 0.0874,0.01068 0.0294,0.0027 0.0171,0.02182 0.16051,-0.0073 h 0.002 c -0.0183,0.0037 0.30974,0.042 0.6563,0.208665 0.346549,0.16667 0.745287,0.418251 1.075405,0.675913 0.249453,0.194712 0.383735,0.360488 0.502924,0.506494 -0.386621,0.08163 -1.065365,0.138903 -1.833359,0.139104 z m -1.34471,-2.609153 c -0.42534,-0.1071 -0.91226,-0.2674 -1.19311,-0.41018 -9.1e-4,-9e-4 -0.003,-8.8e-4 -0.004,-0.002 -0.0264,-0.0247 -0.0512,-0.0534 -0.0767,-0.0803 -6.2e-4,-0.002 -9.1e-4,-0.002 -0.002,-0.004 -0.0311,-0.0786 -0.0662,-0.21443 -0.0927,-0.37987 -0.053,-0.33089 -0.078,-0.77913 -0.0856,-1.227 -0.005,-0.35452 -0.002,-0.69698 0.002,-1.00586 l 0.0749,-0.0446 c 0.29726,-0.18015 0.72011,-0.19627 1.02546,-0.066 0.29725,0.13511 0.50433,0.34185 0.72051,0.57604 l 0.009,0.009 0.007,0.007 c 0.15311,0.18014 0.28072,0.32456 0.3888,0.5047 0.10799,0.18015 0.19814,0.42372 0.18012,0.67593 -0.0316,0.42365 -0.17927,0.65503 -0.8614,1.44457 -0.0327,0.003 -0.0613,5e-4 -0.0927,0.002 z m 14.333362,-2.45042 -1.16629,-0.18904 c 1.22241,-1.52414 1.81543,-2.95769 1.89222,-4.02519 0.0768,-1.06749 -0.15745,-2.19879 -0.18904,-3.73984 -0.0769,-3.74874 0.0952,-4.64576 0.8168,-7.80782 l 1.17342,-0.21044 c -0.71963,3.15359 -0.94092,4.29187 -0.86495,7.99864 0.0298,1.45285 0.2761,2.58754 0.18726,3.82366 -0.0889,1.2362 -0.54848,2.52795 -1.84942,4.15003 z m -13.960632,-3.96633 c -1.39552,-0.0476 -1.86028,-2.81886 -2.32736,-3.90391 -0.0478,-0.0908 -0.11654,-0.17736 -0.18725,-0.2586 0.29996,-0.52787 0.49386,-1.18398 0.55107,-1.91718 0.01,-0.12467 0.0145,-0.25279 0.0161,-0.38166 0.13635,0.0247 0.37552,0.0167 0.48866,0.11058 l 0.0642,0.5814 0.59031,0.0713 c 0.2542,0.29489 0.36511,0.50653 0.46726,0.76866 0.56089,1.82049 2.678765,3.49027 0.99514,4.77065 -0.24001,0.11729 -0.45872,0.16552 -0.65808,0.15873 z m -4.96682,-1.44101 c -0.0297,8.1e-4 -0.0603,-0.007 -0.0927,-0.0268 -0.63632,-0.37501 -0.67617,-0.99259 -0.93274,-1.48738 -2.8e-4,0.005 0.0676,-0.49098 0.78471,-0.10879 0.28913,0.64551 0.0897,0.62515 0.59388,1.2252 -0.0732,0.13215 -0.19283,0.39333 -0.35312,0.39771 z"
     sodipodi:nodetypes="cscsscccccccccssccsscccccccccccccccccscccsscccccccccccsccscccccsccccccscccccsccccccccscccccccccccscccccccccccssccscccccccscccscccccccccccccscccccccccccccccccccsccccccccssccsccccccccccsssssccsscccccccccccccssccccccccccccccscccccccccccccccccccccssccccccccccccccccccccccccccccccccccccccccccccccccccccccsccsscccccccscccccccsscccccccccccccccccccccccsccccccccccccccccccccccccc" />
</svg>
