<?xml version="1.0" encoding="UTF-8" standalone="no"?>
<svg
   viewBox="0 0 60 60"
   version="1.1"
   id="svg10"
   sodipodi:docname="1UM.svg"
   inkscape:version="1.3 (0e150ed6c4, 2023-07-21)"
   xmlns:inkscape="http://www.inkscape.org/namespaces/inkscape"
   xmlns:sodipodi="http://sodipodi.sourceforge.net/DTD/sodipodi-0.dtd"
   xmlns="http://www.w3.org/2000/svg"
   xmlns:svg="http://www.w3.org/2000/svg">
  <sodipodi:namedview
     id="namedview10"
     pagecolor="#ffffff"
     bordercolor="#666666"
     borderopacity="1.0"
     inkscape:showpageshadow="2"
     inkscape:pageopacity="0.0"
     inkscape:pagecheckerboard="0"
     inkscape:deskcolor="#d1d1d1"
     inkscape:zoom="10.759808"
     inkscape:cx="21.004091"
     inkscape:cy="43.030506"
     inkscape:window-width="3840"
     inkscape:window-height="2054"
     inkscape:window-x="3829"
     inkscape:window-y="-11"
     inkscape:window-maximized="1"
     inkscape:current-layer="svg10" />
  <defs
     id="defs1">
    <filter
       id="1UM_svg__a"
       x="-0.11943269"
       y="-0.098316817"
       width="1.288629"
       height="1.237599">
      <feGaussianBlur
         in="SourceAlpha"
         result="blur"
         stdDeviation="2"
         id="feGaussianBlur1" />
      <feOffset
         dx="2"
         dy="2"
         result="offsetBlur"
         id="feOffset1" />
      <feBlend
         in="SourceGraphic"
         in2="offsetBlur"
         id="feBlend1" />
    </filter>
    <filter
       id="1OU_svg__a"
       x="-0.13338546"
       y="-0.10825364"
       width="1.3166422"
       height="1.2574737">
      <feGaussianBlur
         in="SourceAlpha"
         result="blur"
         stdDeviation="2"
         id="feGaussianBlur1-9" />
      <feOffset
         dx="2"
         dy="2"
         result="offsetBlur"
         id="feOffset1-1" />
      <feBlend
         in="SourceGraphic"
         in2="offsetBlur"
         id="feBlend1-9"
         mode="normal" />
    </filter>
  </defs>
  <g
     fill="#fdd3e3"
     filter="url(#1UM_svg__a)"
     transform="translate(-102.587 -25.906)scale(1.03094)"
     id="g1">
    <path
       fill="#fdeb98"
       d="m 141.866,74.375 6.836,-44.558 h -40.19 l 6.535,44.862 13.138,3.935 c 0.09,0.017 0.18,0.032 0.271,0.021 z"
       id="path1"
       style="stroke:#333333;stroke-width:0.969989;stroke-dasharray:none"
       sodipodi:nodetypes="ccccccc" />
  </g>
  <path
     fill="none"
     stroke="#fdeb98"
     stroke-width=".877"
     d="M34.599 33.522c1.06.003 2.642-.127 3.702-.737m-1.299-4.381c2.49-.263 3.195-.435 4.536-1.027m-3.916-4.013c.926-.023 2.014-.05 4.498-.853m-4.032-5.66c1.421.194 2.3-.296 3.721-.698"
     id="path10" />
  <path
     id="path6793"
     style="color:#000000;font-style:normal;font-variant:normal;font-weight:normal;font-stretch:normal;font-size:medium;line-height:normal;font-family:sans-serif;font-variant-ligatures:normal;font-variant-position:normal;font-variant-caps:normal;font-variant-numeric:normal;font-variant-alternates:normal;font-variant-east-asian:normal;font-feature-settings:normal;font-variation-settings:normal;text-indent:0;text-align:start;text-decoration:none;text-decoration-line:none;text-decoration-style:solid;text-decoration-color:#000000;letter-spacing:normal;word-spacing:normal;text-transform:none;writing-mode:lr-tb;direction:ltr;text-orientation:mixed;dominant-baseline:auto;baseline-shift:baseline;text-anchor:start;white-space:normal;shape-padding:0;shape-margin:0;inline-size:0;clip-rule:nonzero;display:inline;overflow:visible;visibility:visible;isolation:auto;mix-blend-mode:normal;color-interpolation:sRGB;color-interpolation-filters:linearRGB;solid-color:#000000;solid-opacity:1;fill:#cc3300;fill-opacity:1;fill-rule:nonzero;stroke:none;stroke-width:1.31031;stroke-linecap:butt;stroke-linejoin:round;stroke-miterlimit:4;stroke-dasharray:none;stroke-dashoffset:0;stroke-opacity:1;color-rendering:auto;image-rendering:auto;shape-rendering:auto;text-rendering:auto;enable-background:accumulate;stop-color:#000000"
     d="m 34.555714,50.56408 0.854625,-1.227365 c 0.463351,-0.679581 0.731065,-0.998778 0.978185,-1.349896 0.257417,-0.350087 0.463351,-0.731065 0.731064,-1.411676 l 0.123561,-0.247121 -0.18534,-0.24712 C 36.192887,45.113013 34.768855,44.299575 33.314962,43.565421 31.86107,42.834356 30.389674,42.165072 29.449586,41.724374 27.884489,40.715297 26.703459,39.472488 25.560526,38.15966 25.474546,36.904493 24.942725,36.002504 23.62063,34.729832 l 0.679582,-0.731064 c 1.590838,1.530087 2.288954,2.885132 2.26939,4.66131 h -0.113264 c 0.380978,0.566319 0.761955,1.104835 1.159408,1.534207 0.689878,0.751659 1.3952,0.957593 1.963578,1.043055 0.566317,0.08712 0.988482,0.12356 1.841048,0.556021 0.0025,0.0013 0.236823,0.06137 0.24712,0.06137 h 2.06e-4 c 0.01073,-0.0016 0.308901,-0.06137 0.308901,-0.06137 l 1.288115,-0.556021 -1.104835,-0.556022 c -0.02152,-0.03017 -0.03223,-0.06137 -0.06456,-0.123559 -0.09679,-0.185341 -0.236824,-0.453055 -0.370681,-0.803142 -0.133857,-0.360384 -0.267714,-0.782549 -0.360384,-1.221188 4.266948,-0.442758 8.828381,-3.444242 11.286509,-5.15967 0.525131,-0.411868 0.175044,-1.254137 -0.494241,-1.165585 -1.607313,0.236824 -2.863509,0.514834 -4.16604,0.988482 l -0.01073,0.0062 -2.06e-4,-7.2e-4 c -0.535428,0.185341 -1.144992,0.288307 -1.752497,0.360384 -0.803142,0.08928 -1.570245,0.102967 -2.106702,0.102967 -0.782548,0.751658 -1.74323,1.324154 -2.887192,1.660856 -0.267714,0.483944 -0.278011,0.823735 -0.185341,1.297383 0.102973,0.504513 0.360391,1.064653 0.308907,1.779243 l -0.978185,-0.06137 c 0.03232,-0.432462 -0.185341,-0.916405 -0.308901,-1.534207 -0.09689,-0.473648 0.08597,-1.061588 0.308901,-1.656738 -0.12356,-0.102966 -0.329494,-0.257416 -0.669285,-0.494241 -0.422164,-0.27801 -0.957592,-0.6178 -1.472426,-0.916405 -0.514835,-0.298603 -1.019373,-0.586911 -1.410647,-0.803141 -0.195637,-0.102967 -0.370681,-0.185341 -0.494241,-0.247121 -0.06456,-0.02903 -0.08609,-0.04623 -0.12356,-0.05921 l 0.24712,-0.978185 h 0.06446 c 0.02152,0.01019 0.09689,0.05169 0.123561,0.06137 0.05385,0.02472 0.05385,0.028 0.123559,0.06126 0.133857,0.06785 0.350088,0.195638 0.556022,0.308901 0.401571,0.216231 0.885515,0.494241 1.411676,0.803142 0.525131,0.308901 1.08939,0.628098 1.534207,0.916405 0.298603,0.195638 0.535427,0.370681 0.731064,0.545725 1.876057,-0.566318 3.064295,-1.86473 3.935395,-3.673858 0.906108,-1.884295 1.427121,-4.316373 1.718517,-6.870981 0.288307,-2.554608 0.411868,-5.214243 0.617801,-7.608223 0.205934,-2.393979 0.483944,-4.515098 1.227365,-6.012236 0.123561,-0.2471209 0.236825,-0.4118679 0.288308,-0.6589879 -0.916405,-0.09576 -1.847226,-0.216231 -2.801729,-0.329494 -4.150595,-0.504539 -8.636863,-0.957593 -13.068145,0.494241 -0.339791,0.133857 -0.504538,0.5148339 -0.370681,0.8546249 1.393142,2.857331 1.980053,6.089461 6.379828,10.000143 0.432461,1.256196 0.380977,2.450613 0.308901,3.742846 -0.02152,0.308901 0.03223,0.638396 0.09679,0.96789 0.576614,0.864921 1.109982,2.173631 1.601135,4.281363 l -0.339791,0.576614 -0.607505,-0.308901 c -0.473647,-2.05213 -1.139843,-3.392758 -1.540384,-3.97864 -0.545725,-0.689878 -0.648692,-0.556021 -0.916406,-0.556021 -0.813438,0.01833 -1.465219,0.360384 -2.208639,0.617802 -0.525131,-2.546372 -1.107924,-4.75913 -1.226335,-7.301383 0.01081,-0.12356 -0.0062,-0.257417 -0.06446,-0.37068 l -1.656738,-2.453701 c -0.164746,-0.236824 -0.463351,-0.339791 -0.731065,-0.24712 l -1.227365,0.37068 c -0.360384,0.102967 -0.566317,0.504538 -0.43246,0.854625 l 0.03232,0.08712 -1.542443,0.792845 c -0.164748,-0.257418 -0.473647,-0.360384 -0.761955,-0.257418 -0.401571,0.144154 -0.864922,0.278011 -1.348866,0.494242 -0.483945,0.21623 -1.009075,0.52513 -1.349896,1.103804 -0.03229,0.07743 -0.05374,0.164748 -0.06457,0.247121 -0.0022,0.01401 -0.03229,0.09679 -0.308901,0.3089 -0.27801,0.205934 -0.761955,0.504539 -1.533176,0.854625 -0.432461,0.216231 -0.504538,0.803142 -0.123561,1.104835 l 0.792846,0.556021 c 2.054188,2.992218 3.66768,5.312062 4.050716,8.89222 0.0022,0.02039 -0.0022,0.03975 0,0.06127 l -0.494241,2.884102 c -0.02156,0.175048 0.03229,0.339795 0.133857,0.473652 0.08613,0.504538 0.411868,0.957592 0.782548,1.425062 0.473648,0.586911 1.086301,1.172793 1.717488,1.778238 0.628098,0.607505 1.232513,1.262374 1.717487,1.841047 0.463351,0.545726 0.720768,1.019373 0.803142,1.411677 l -2.454731,3.497785 4.47803,-1.473457 c 0.854625,0.164748 2.690525,0.803142 4.53981,1.718518 1.901798,0.936999 3.849931,2.1448 4.847681,3.129163 0.06456,0.06776 0.288307,0.422165 0.432461,0.731065 0.133857,0.308901 0.18534,0.669285 0.18534,0.679582 z m 0.669284,-2.584469 C 35.060251,47.60893 34.833724,47.217657 34.555714,46.943764 33.389098,45.793625 31.418312,44.65687 29.462971,43.692071 27.50763,42.724181 25.653197,41.971494 24.55454,41.790272 h -0.12356 l -1.841048,0.556021 0.978185,-1.411676 v -0.18534 C 23.46515,40.028508 23.0018,39.365402 22.463283,38.723918 21.927855,38.085523 21.254451,37.489345 20.623264,36.88287 20.026057,36.316553 19.45459,35.745086 19.044786,35.255993 l 2.682283,1.381816 c 1.40138,0.576615 1.545533,0.895812 2.086109,1.288116 0.08609,0.06456 0.195637,0.133857 0.319198,0.18534 1.384905,1.61761 2.79967,3.233161 4.838414,4.53775 h 0.06456 c 0.978186,0.463352 2.39192,1.066737 3.803597,1.778239 1.292234,0.648691 2.469145,1.443595 3.189914,2.147889 -0.144154,0.308901 -0.278011,0.648691 -0.432462,0.854626 -0.08608,0.123559 -0.24712,0.391273 -0.37068,0.545724 z M 22.255598,33.013787 H 21.576017 L 21.38038,32.704886 c -0.236824,-0.370681 -0.288308,-0.689878 -0.380978,-0.998779 -0.09679,-0.308901 -0.236823,-0.700175 -0.648691,-1.387993 l -0.350087,-0.566319 0.576614,-0.33979 c 0.339791,-0.205934 0.823735,-0.226527 1.172793,-0.07743 0.339791,0.154451 0.576614,0.391274 0.823735,0.658988 l 0.0076,0.009 0.0088,0.0088 c 0.175043,0.205934 0.319198,0.370681 0.442757,0.576614 0.123561,0.205935 0.226528,0.483945 0.205935,0.772252 -0.04304,0.576615 -0.360385,0.895812 -0.782549,1.416824 z m 12.658337,-0.226528 c 0.380977,-0.01401 0.792845,-0.03872 1.217069,-0.08495 0.545725,-0.0624 1.092478,-0.164747 1.513613,-0.308901 l -0.0013,-0.0033 c 3.301118,-0.926703 5.449007,-1.222217 7.339479,-4.411102 0.24712,-0.432461 -0.05385,-0.967888 -0.556021,-0.978186 l -0.906109,-0.03769 -0.0066,0.0013 c -0.947296,0.267714 -0.720769,0.195637 -1.902829,0.679581 l -0.0025,-0.0062 c -1.308708,0.556022 -2.474294,0.731066 -4.777663,0.967889 -0.24712,0.906109 -0.556021,1.77103 -0.936999,2.559757 -0.27801,0.586911 -0.607504,1.124398 -0.988482,1.61658 z m 2.14789,-5.080385 c 2.053159,-0.216231 3.073561,-0.380978 4.219583,-0.875219 l -0.0029,-0.007 c 1.177941,-0.483944 0.967889,-0.442757 1.907977,-0.710471 l 0.03232,-0.01617 c 0.957592,-0.576615 1.968727,-1.430211 3.053998,-2.782166 0.689878,-0.535427 0.09679,-1.254136 -0.792845,-1.044084 -2.665813,0.247121 -5.090683,1.281938 -7.763704,1.354015 -0.01062,0.102967 -0.02152,0.205934 -0.03232,0.3089 -0.144153,1.286057 -0.33979,2.561816 -0.617801,3.773737 z m -16.127909,-2.851153 -3.006633,-3.558537 0.144154,-0.741361 2.739947,-1.156318 -2.287922,-1.195446 0.02156,-0.09576 c 0.02156,-0.123561 0.0096,-0.247122 -0.04301,-0.360385 l 2.252914,0.978185 0.607504,1.478605 c 0.195638,1.252078 -0.04304,1.987261 -0.308901,2.822323 -0.144153,0.46335 -0.05375,1.223246 -0.123559,1.840017 z m 16.86268,-2.104644 0.0022,-4.11e-4 c 0.885516,-0.02472 1.890472,-0.07425 4.209287,-0.823736 0.566317,-0.278011 1.168673,-0.566317 1.440506,-0.813439 1.607313,-1.480663 3.1096,-3.239337 3.680036,-4.110438 0.329495,-0.514834 -0.15445,-1.151169 -0.731065,-0.978184 -2.108761,0.556021 -3.005603,0.504537 -3.619285,0.3089 -0.442758,-0.06353 -0.339791,-0.144154 -0.823735,0.102967 -1.322095,0.370681 -2.281747,0.875218 -3.725342,0.720768 -0.133857,1.774119 -0.247121,3.686215 -0.432461,5.59831 z m 0.936999,-6.440578 0.0015,-6.18e-4 v -8.24e-4 c 0.895812,0.0039 1.622758,-0.308901 2.67405,-0.628098 3.213596,-1.89768 5.401643,-4.475971 6.028711,-5.370752 0.03223,-0.03984 0.226527,-0.216231 0.247121,-0.247122 0.329493,-0.5148329 -0.154451,-1.1521989 -0.731065,-0.9781839 -2.078902,0.782548 -4.524365,0.782548 -7.190178,0.545724 -0.07528,0.4530539 -0.236823,0.8134389 -0.360384,1.0523219 -0.617801,1.228394 -0.906108,3.224922 -1.104835,5.583894 -4.12e-4,0.0056 -2.06e-4,0.01184 -9.26e-4,0.01823 0.15445,0.0172 0.298603,0.02585 0.442757,0.02585 z"
     sodipodi:nodetypes="ccccccsccccccccssscccccccccccscccccccccccccccccccccccccccccscccccccccccccccccccccccscccccccccsccccccscccccssccccccsccccccccccccccccsccccccccccccccccccccccccccccccccccccccccccccccccccsccccccccccss" />
</svg>
