<svg height="353.63" width="353.63" xmlns="http://www.w3.org/2000/svg" xmlns:xlink="http://www.w3.org/1999/xlink"><linearGradient id="a" gradientUnits="userSpaceOnUse" x1="70.692968" x2="286.30178" y1="173.374895" y2="173.374895"><stop offset="0" stop-color="#daa520"/><stop offset="1" stop-color="#daa520" stop-opacity="0"/></linearGradient><path d="m180.46373 12.662175 36.1509 87.132948-20.39282 12.050297 11.12336 11.58683 28.73533 10.19641 26.88144 16.22156 19.92935 23.63713 4.63473 23.17365-6.02515 25.02755-9.73294 19.46587-25.95449 31.97965-40.32216 34.29701 74.1557.92695 1.39042 29.77197h-206.245545v-29.77197l82.961685-.46348-36.1509-27.80839-20.85629-21.78323-16.221559-23.63713-9.269463-24.1006-2.317365-23.17366 7.41557-20.39282 16.685037-18.53892 22.24671-13.9042 28.27186-11.12335 7.87904-2.78084 7.41557-9.73293-20.85629-8.80599z" fill="#804d00" fill-rule="evenodd" stroke="#000"/><path d="m178.7276 11.033387 36.1509 87.132948-20.39282 12.050305 11.12336 11.58682 28.73533 10.19641 26.88144 16.22156 19.92935 23.63713 4.63473 23.17365-6.02515 25.02755-9.73294 19.46587-25.95449 31.97965-40.32216 34.29701 74.1557.92695 1.39042 29.77197h-206.245541v-29.77197l82.961681-.46348-36.1509-27.80839-20.85629-21.78323-16.221561-23.63713-9.26946-24.1006-2.31737-23.17366 7.41557-20.39282 16.685041-18.53892 22.24671-13.9042 28.27186-11.12335 7.87904-2.78084 7.41557-9.73293-20.85629-8.80599z" fill="url(#a)" fill-rule="evenodd" stroke="#000"/><g><path d="m150.22554 40.821564h53.299412v15.294614h-53.299412z" fill="none" opacity=".248"/><rect fill="none" height="15.38369" opacity=".248" ry="7.435451" width="98.536415" x="162.13579" y="45.043797"/><rect id="b" fill="none" height="43.103004" opacity=".248" ry="7.43545" width="95.011993" x="123.3441" y="114.97726"/><g fill="none"><use height="100%" transform="translate(-64.903989 -41.89831)" width="100%" xlink:href="#b"/><use height="100%" transform="translate(-54.630279 -23.322448)" width="100%" xlink:href="#b"/><use height="100%" transform="translate(-52.875269 -21.039501)" width="100%" xlink:href="#b"/><use height="100%" transform="translate(-50.010349 -24.881165)" width="100%" xlink:href="#b"/><use height="100%" transform="translate(-42.702769 -14.078738)" width="100%" xlink:href="#b"/><use height="100%" transform="translate(-42.829049 -7.895147)" width="100%" xlink:href="#b"/><use height="100%" transform="translate(-43.893079 -16.473312)" width="100%" xlink:href="#b"/><use height="100%" transform="translate(-52.516479 -15.263686)" width="100%" xlink:href="#b"/><use height="100%" transform="translate(-45.488639 -3.711889)" width="100%" xlink:href="#b"/><use height="100%" transform="translate(-52.287659 2.630727)" width="100%" xlink:href="#b"/><use height="100%" transform="translate(-49.313999 -6.478704)" width="100%" xlink:href="#b"/><use height="100%" transform="translate(-38.175979 15.642167)" width="100%" xlink:href="#b"/><use height="100%" transform="translate(-41.453329 -4.8573)" width="100%" xlink:href="#b"/><use height="100%" transform="translate(-31.740129 6.854617)" width="100%" xlink:href="#b"/><use height="100%" transform="translate(-42.463429 30.219905)" width="100%" xlink:href="#b"/><use height="100%" transform="translate(-33.334479 36.364809)" width="100%" xlink:href="#b"/><use height="100%" transform="translate(-29.673779 33.820059)" width="100%" xlink:href="#b"/><use height="100%" transform="translate(-42.849869 30.11827)" width="100%" xlink:href="#b"/><use height="100%" transform="translate(-36.914329 14.124709)" width="100%" xlink:href="#b"/><use height="100%" transform="translate(-19.254399 20.987022)" width="100%" xlink:href="#b"/><use height="100%" transform="translate(-33.871449 39.680308)" width="100%" xlink:href="#b"/><use height="100%" transform="translate(-20.180309 27.115187)" width="100%" xlink:href="#b"/><use height="100%" transform="translate(-30.206969 33.953632)" width="100%" xlink:href="#b"/><use height="100%" transform="translate(-71.992799 -40.853477)" width="100%" xlink:href="#b"/><use height="100%" transform="translate(-70.188789 -30.745929)" width="100%" xlink:href="#b"/><use height="100%" transform="translate(-58.965349 -41.130145)" width="100%" xlink:href="#b"/><use height="100%" transform="translate(-9.940309 46.363562)" width="100%" xlink:href="#b"/><use height="100%" transform="translate(-50.307839 1.208126)" width="100%" xlink:href="#b"/><use height="100%" transform="translate(-42.353339 -14.111704)" width="100%" xlink:href="#b"/><use height="100%" transform="translate(-56.755729 -4.935746)" width="100%" xlink:href="#b"/><use height="100%" transform="translate(-40.494629 1.217817)" width="100%" xlink:href="#b"/><use height="100%" transform="translate(-47.773909 20.269536)" width="100%" xlink:href="#b"/><use height="100%" transform="translate(-53.656259 11.353041)" width="100%" xlink:href="#b"/><use height="100%" transform="translate(-41.873219 19.652604)" width="100%" xlink:href="#b"/><use height="100%" transform="translate(-44.648679 17.511905)" width="100%" xlink:href="#b"/><use height="100%" transform="translate(-9.805209 25.749294)" width="100%" xlink:href="#b"/><use height="100%" transform="translate(-8.837069 42.959665)" width="100%" xlink:href="#b"/><use height="100%" transform="translate(-18.669549 37.083324)" width="100%" xlink:href="#b"/><use height="100%" transform="translate(-22.848009 21.444351)" width="100%" xlink:href="#b"/><use height="100%" transform="translate(-4.486149 25.781344)" width="100%" xlink:href="#b"/><use height="100%" transform="translate(-.486739 36.134685)" width="100%" xlink:href="#b"/><use height="100%" transform="translate(-14.659769 38.821224)" width="100%" xlink:href="#b"/><use height="100%" transform="translate(10.706171 25.024276)" width="100%" xlink:href="#b"/><use height="100%" transform="translate(7.761711 9.675389)" width="100%" xlink:href="#b"/><use height="100%" transform="translate(-5.425099 13.018049)" width="100%" xlink:href="#b"/><use height="100%" transform="translate(13.752191 19.389891)" width="100%" xlink:href="#b"/><use height="100%" transform="translate(4.379231 1.567913)" width="100%" xlink:href="#b"/><use height="100%" transform="translate(4.827441 5.290864)" width="100%" xlink:href="#b"/><use height="100%" transform="translate(14.092491 16.743036)" width="100%" xlink:href="#b"/><use height="100%" transform="translate(6.691901 19.447885)" width="100%" xlink:href="#b"/><use height="100%" transform="translate(10.322811 8.887597)" width="100%" xlink:href="#b"/><use height="100%" transform="translate(15.825151 9.37166)" width="100%" xlink:href="#b"/><use height="100%" transform="translate(30.736051 22.464932)" width="100%" xlink:href="#b"/><use height="100%" transform="translate(33.254111 16.676737)" width="100%" xlink:href="#b"/><use height="100%" transform="translate(41.953051 1.609484)" width="100%" xlink:href="#b"/><use height="100%" transform="translate(50.700321 4.411695)" width="100%" xlink:href="#b"/><use height="100%" transform="translate(45.375101 1.714363)" width="100%" xlink:href="#b"/><use height="100%" transform="translate(53.936021 -6.342052)" width="100%" xlink:href="#b"/><use height="100%" transform="translate(45.693361 -3.889589)" width="100%" xlink:href="#b"/><use height="100%" transform="translate(6.222721 2.169907)" width="100%" xlink:href="#b"/><use height="100%" transform="translate(6.171401 24.798813)" width="100%" xlink:href="#b"/><use height="100%" transform="translate(16.744381 3.886127)" width="100%" xlink:href="#b"/><use height="100%" transform="translate(5.988271 7.449876)" width="100%" xlink:href="#b"/><use height="100%" transform="translate(34.136021 4.106214)" width="100%" xlink:href="#b"/><use height="100%" transform="translate(75.964581 1.061749)" width="100%" xlink:href="#b"/><use height="100%" transform="translate(63.573601 25.081506)" width="100%" xlink:href="#b"/><use height="100%" transform="translate(52.161131 -57.954229)" width="100%" xlink:href="#b"/><use height="100%" transform="translate(55.473291 -30.183602)" width="100%" xlink:href="#b"/><use height="100%" transform="translate(64.050391 -26.10261)" width="100%" xlink:href="#b"/><use height="100%" transform="translate(44.804371 -45.309833)" width="100%" xlink:href="#b"/><use height="100%" transform="translate(67.665851 -41.773174)" width="100%" xlink:href="#b"/><use height="100%" transform="translate(66.862391 -33.135062)" width="100%" xlink:href="#b"/><use height="100%" transform="translate(44.932041 7.583681)" width="100%" xlink:href="#b"/><use height="100%" transform="translate(53.711881 19.022767)" width="100%" xlink:href="#b"/><use height="100%" transform="translate(54.106181 2.003262)" width="100%" xlink:href="#b"/><rect height="45.226051" opacity=".248" ry="7.43545" width="188.76961" x="-262.61057" y="295.9584"/><path d="m203.20003 119.90061c64.74226 20.21891 84.49536 49.0161 81.69422 77.26596-3.38984 34.18666-29.89134 72.02054-82.53438 108.94" stroke="#000" stroke-width="5"/><path d="m139.736 100.3774 38.84189-92.0948052 37.40993 91.9082752" stroke="#000" stroke-width="5"/><path d="m152.1877 119.59217c-64.742261 20.21891-83.336671 48.55263-80.535531 76.8025 3.38984 34.18666 29.891341 72.02053 82.534381 108.94" stroke="#000" stroke-width="5"/><rect height="22.121439" opacity=".248" ry=".409656" width="20.318951" x="262.94583" y="271.57318"/><rect height="25.234819" opacity=".248" ry="4.833941" width="19.171902" x="262.29037" y="274.52267"/><g stroke="#000"><rect height="28.59721" ry="2.06065" stroke-width="5" width="205.91806" x="72.861343" y="306.3353"/><path d="m129.7791 127.21195h92.41846" stroke-width="3"/><path d="m115.00818 134.74962h124.96605" stroke-width="3"/><path d="m148.45943 120.65745 55.28942-.14839 1.73473.47611" stroke-width="3"/><path d="m70.788599 190.29165h214.659881"/><path d="m100.6339 256.80005h156.42218" stroke-width="3"/><path d="m108.51294 266.06951h141.35931" stroke-width="3"/><path d="m138.75275 98.074132 21.97687 12.127008-9.30481 9.55745" stroke-width="5"/><path d="m74.224469 315.81694c204.657601-.65153 204.657601-.65153 204.657601-.65153" stroke-width="3"/><path d="m277.20712 321.4862c-202.729121 0-200.966251 0-202.729121 0-1.76285 0 0 0 0 0" stroke-width="3"/><path d="m218.28975 98.769342-21.97687 12.127008 9.30481 9.55745" stroke-width="5"/></g></g></g></svg>