<svg height="353.63" width="353.63" xmlns="http://www.w3.org/2000/svg" xmlns:xlink="http://www.w3.org/1999/xlink"><linearGradient id="a" gradientUnits="userSpaceOnUse" x1="50.944847" x2="301.75901" y1="199.076209" y2="199.076209"><stop offset="0" stop-color="#daa520"/><stop offset="1" stop-color="#daa520" stop-opacity="0"/></linearGradient><path d="m168.70422 62.54849c-52.40583 30.963352-101.190428 65.96463-117.258698 117.72218l1.39042 156.19044 246.104228-.46347 2.31737-160.3617c-18.98611-44.87327-68.01183-86.232347-118.18565-113.550923l4.17126 39.395213-20.85629-.46347z" fill="#804d00" stroke="#000"/><path d="m168.70422 62.54849c-52.40583 30.963352-101.190428 65.96463-117.258698 117.72218l1.39042 156.19044 246.104228-.46347 2.31737-160.3617c-18.98611-44.87327-68.01183-86.232347-118.18565-113.550923l4.17126 39.395213-20.85629-.46347z" fill="url(#a)" fill-rule="evenodd" stroke="#000"/><g><rect id="b" fill="none" height="46.483501" opacity=".248" ry="8.0186" width="111.479" x="110.93024" y="95.53627"/><g fill="none"><use height="100%" transform="translate(-49.82298 32.590004)" width="100%" xlink:href="#b"/><use height="100%" transform="translate(-39.111846 39.216843)" width="100%" xlink:href="#b"/><use height="100%" transform="translate(-34.816691 36.472512)" width="100%" xlink:href="#b"/><use height="100%" transform="translate(-22.591475 22.633001)" width="100%" xlink:href="#b"/><use height="100%" transform="translate(-39.74188 42.792372)" width="100%" xlink:href="#b"/><use height="100%" transform="translate(-23.67786 29.241788)" width="100%" xlink:href="#b"/><use height="100%" transform="translate(-35.442291 36.61656)" width="100%" xlink:href="#b"/><use height="100%" transform="translate(-11.663113 49.999782)" width="100%" xlink:href="#b"/><use height="100%" transform="translate(-11.504598 27.76877)" width="100%" xlink:href="#b"/><use height="100%" transform="translate(-10.368665 46.328923)" width="100%" xlink:href="#b"/><use height="100%" transform="translate(-21.905263 39.99171)" width="100%" xlink:href="#b"/><use height="100%" transform="translate(-26.807912 23.126197)" width="100%" xlink:href="#b"/><use height="100%" transform="translate(-5.263665 27.803334)" width="100%" xlink:href="#b"/><use height="100%" transform="translate(-.571097 38.96867)" width="100%" xlink:href="#b"/><use height="100%" transform="translate(-17.200527 41.865911)" width="100%" xlink:href="#b"/><use height="100%" transform="translate(12.561713 26.98689)" width="100%" xlink:href="#b"/><use height="100%" transform="translate(9.106934 10.434215)" width="100%" xlink:href="#b"/><use height="100%" transform="translate(-6.365349 14.039035)" width="100%" xlink:href="#b"/><use height="100%" transform="translate(16.135654 20.91061)" width="100%" xlink:href="#b"/><use height="100%" transform="translate(5.138219 1.690882)" width="100%" xlink:href="#b"/><use height="100%" transform="translate(5.664111 5.705818)" width="100%" xlink:href="#b"/><use height="100%" transform="translate(16.534934 18.056165)" width="100%" xlink:href="#b"/><use height="100%" transform="translate(7.85171 20.973151)" width="100%" xlink:href="#b"/><use height="100%" transform="translate(12.111912 9.584637)" width="100%" xlink:href="#b"/><use height="100%" transform="translate(18.56789 10.106665)" width="100%" xlink:href="#b"/><use height="100%" transform="translate(36.063073 24.22682)" width="100%" xlink:href="#b"/><use height="100%" transform="translate(39.01755 17.984667)" width="100%" xlink:href="#b"/><use height="100%" transform="translate(49.224149 1.735714)" width="100%" xlink:href="#b"/><use height="100%" transform="translate(7.301214 2.34009)" width="100%" xlink:href="#b"/><use height="100%" transform="translate(7.240999 26.743744)" width="100%" xlink:href="#b"/><use height="100%" transform="translate(19.646436 4.19091)" width="100%" xlink:href="#b"/><use height="100%" transform="translate(7.02613 8.034158)" width="100%" xlink:href="#b"/><use height="100%" transform="translate(74.591866 27.048608)" width="100%" xlink:href="#b"/><rect height="23.856388" opacity=".248" ry=".441785" width="23.840532" x="274.72705" y="264.41376"/><rect height="27.213945" opacity=".248" ry="5.213059" width="22.49468" x="273.95801" y="267.59457"/><g stroke="#000" stroke-width="5"><rect height="34.116749" ry="2.458375" width="247.95403" x="52.251438" y="302.01324"/><path d="m301.12859 176.75565c-1.15126 125.65518-1.15126 125.65518-1.15126 125.65518"/><path d="m182.43785 62.233143c69.36318 37.784647 117.90706 90.609667 118.97195 121.329387 1.46207 42.17749-22.4897 90.04828-100.50694 117.89208"/><path d="m170.64966 61.526286c-69.36319 37.784648-117.907068 90.609674-118.971958 121.329384-1.46207 42.17748 22.48971 90.04829 100.506958 117.89208"/><path d="m52.007722 179.16005-.21256 124.28083"/></g></g></g><g stroke="#000"><path d="m53.742082 313.81009c245.338758-.70233 245.338758-.70233 245.338758-.70233" fill="#e9dd9a" fill-opacity=".611765" fill-rule="evenodd" stroke-width="5"/><path d="m232.94312 112.03478c-5.334 45.48116-8.54723 91.65334-27.30884 130.69359-17.7851 17.6183-33.60003 13.05906-48.76577 1.19175-20.75566-41.40083-26.76396-87.17009-33.64836-132.67984" fill="none" stroke-width="5"/><g fill="#e9dd9a" fill-opacity=".611765" fill-rule="evenodd"><ellipse cx="206.82501" cy="151.67206" opacity=".248" rx="4.052553" ry=".543969" stroke-width="7.004274"/><ellipse cx="147.70441" cy="151.84874" opacity=".248" rx="4.052553" ry=".543969" stroke-width="7.004274"/><ellipse cx="204.22952" cy="100.95511" opacity=".248" rx=".34632" ry="6.680016" stroke-width="7.475024"/><ellipse cx="149.62704" cy="100.95511" opacity=".248" rx=".34632" ry="6.680016" stroke-width="7.475024"/></g><path d="m203.18603 79.533468c18.14748 17.042237 14.41488 15.785673 6.05183 38.365302" fill="none" stroke-width="5"/><path d="m151.99659 79.780266c-18.14747 17.042227-14.41487 15.785664-6.05183 38.365294" fill="none" stroke-width="5"/><ellipse cx="187.60597" cy="243.48378" fill="#e9dd9a" fill-opacity=".611765" fill-rule="evenodd" opacity=".248" rx=".616947" ry="2.884251" stroke-width="6.292919"/><ellipse cx="172.92339" cy="242.98395" fill="#e9dd9a" fill-opacity=".611765" fill-rule="evenodd" opacity=".248" rx=".616947" ry="2.884251" stroke-width="6.292919"/></g></svg>