<svg height="353.63" width="353.63" xmlns="http://www.w3.org/2000/svg" xmlns:xlink="http://www.w3.org/1999/xlink"><linearGradient id="a" gradientUnits="userSpaceOnUse" x1="55.777782" x2="308.803459" y1="244.242372" y2="244.242372"><stop offset="0" stop-color="#daa520"/><stop offset="1" stop-color="#daa520" stop-opacity="0"/></linearGradient><path d="m185.24015 151.82392 34.0834 18.68033 33.10022 9.50402 27.5289 12.12583 18.02488 12.78127 9.50402 13.43673 1.3109 25.89027-1.3109 19.99123-5.89905 19.33577-10.4872 12.78128-27.5289 20.64667 44.24288-.32772v19.33577l-248.087828.32773v-19.99123l43.587428.65545-26.218003-18.02487-13.436725-17.69715-5.571325-17.0417-1.3109-38.99928 9.1763-16.71397 18.3526-14.4199 23.923923-10.81493 20.9744-7.20995 19.99123-5.2436z" fill="#804d00" fill-rule="evenodd" stroke="#000"/><path d="m184.75031 152.02128 34.0834 18.68033 33.10022 9.50402 27.5289 12.12583 18.02488 12.78127 9.50402 13.43673 1.3109 25.89027-1.3109 19.99123-5.89905 19.33577-10.4872 12.78128-27.5289 20.64667 44.24288-.32772v19.33577l-248.087831.32773v-19.99123l43.587431.65545-26.218001-18.02487-13.43673-17.69715-5.57132-17.0417-1.3109-38.99928 9.1763-16.71397 18.3526-14.4199 23.923921-10.81493 20.9744-7.20995 19.99123-5.2436z" fill="url(#a)" stroke="#000"/><g fill="none"><rect height="144.25529" ry="1.388453" width="79.564346" x="143.00047" y="171.35175"/><g stroke="#000"><path d="m221.81016 171.57433c67.093 15.881 89.14949 38.36377 87.60998 60.68874-1.87428 27.17972 7.36717 55.25783-47.18729 84.25632" stroke-width="5"/><path d="m62.126327 326.19779c245.572503-.9002 245.572503-.9002 245.572503-.9002" stroke-width="3"/><path d="m307.20592 333.63666c-245.004107 0-242.873628 0-245.004107 0-2.130465 0 0 0 0 0" stroke-width="1.495165"/><rect height="19.268602" ry="1.388452" stroke-width="5" width="248.52936" x="59.343048" y="316.86139"/><path d="m123.66926 177.76164h121.64504" stroke-width="3"/><path d="m94.532037 189.39906h177.615213" stroke-width="3"/><path d="m141.55373 172.75518 82.88703-.20181 2.60061.64751" stroke-width="3"/><path d="m106.36457 182.9645h155.19056" stroke-width="3"/><path d="m59.367742 272.43777h247.725988" stroke-width="3.201122"/><path d="m223.05796 172.42307s-13.59128-8.91022-37.35891-20.82541l-43.1307 21.39957" stroke-width="5"/></g><path d="m74.732263 261.2859h218.310827"/><path d="m60.065133 219.54195c246.989627.22501 246.989627.22501 246.989627.22501" stroke="#000" stroke-width="3.033926"/><path d="m144.7755 172.20036c-67.093005 15.881-89.149495 38.36377-87.609985 60.68874 1.87428 27.17972-7.36717 55.25783 47.187295 84.25632" stroke="#000" stroke-width="5"/></g></svg>