<svg height="353.63" width="353.63" xmlns="http://www.w3.org/2000/svg" xmlns:xlink="http://www.w3.org/1999/xlink"><linearGradient id="a" gradientUnits="userSpaceOnUse" x1="69.767679" x2="285.37319" y1="204.614162" y2="204.614162"><stop offset="0" stop-color="#daa520"/><stop offset="1" stop-color="#daa520" stop-opacity="0"/></linearGradient><path d="m178.49738 71.597372 27.80839 21.319764-13.90419 11.123354 4.63473 10.19641 36.61438 14.83114 22.71018 12.51377 17.1485 16.68504 7.41557 12.97724 4.63474 18.07546-3.24432 17.61198-10.1964 24.1006-10.65989 16.68503-24.56407 26.41797-38.0048 29.19881 62.1054 1.39042-1.39042 29.3085-163.60602 3.13462.46348-33.37007 61.17845-.92695-25.95449-17.61197-21.31977-21.31977-15.75809-18.07545-14.831136-22.71018-7.879043-23.17366-.926947-14.36767 6.488624-17.61198 8.80599-12.97725 19.002402-16.22156 20.39281-10.1964 20.8563-8.80599 11.12335-3.24432 2.78084-1.85389 4.17126-9.73293-13.9042-13.440723z" fill="#fffbd6" fill-rule="evenodd" stroke="#000"/><path d="m177.79923 71.885372 27.80839 21.319764-13.90419 11.123354 4.63473 10.19641 36.61438 14.83114 22.71018 12.51377 17.1485 16.68504 7.41557 12.97724 4.63474 18.07546-3.24432 17.61198-10.1964 24.1006-10.65989 16.68503-24.56407 26.41797-38.0048 29.19881 62.1054 1.39042-1.39042 29.3085-163.60602 3.13462.46348-33.37007 61.17845-.92695-25.95449-17.61197-21.31977-21.31977-15.75809-18.07545-14.83114-22.71018-7.87904-23.17366-.92695-14.36767 6.48863-17.61198 8.80599-12.97725 19.0024-16.22156 20.39281-10.1964 20.8563-8.80599 11.12335-3.24432 2.78084-1.85389 4.17126-9.73293-13.9042-13.440723z" fill="url(#a)" fill-rule="evenodd" stroke="#000"/><g><rect id="b" fill="none" height="43.103004" opacity=".248" ry="7.43545" width="95.011993" x="123.34409" y="112.84647"/><g fill="none"><use height="100%" transform="translate(-64.903988 -41.89831)" width="100%" xlink:href="#b"/><use height="100%" transform="translate(-54.630278 -23.322448)" width="100%" xlink:href="#b"/><use height="100%" transform="translate(-52.875268 -21.039501)" width="100%" xlink:href="#b"/><use height="100%" transform="translate(-50.010348 -24.881165)" width="100%" xlink:href="#b"/><use height="100%" transform="translate(-42.702768 -14.078738)" width="100%" xlink:href="#b"/><use height="100%" transform="translate(-42.829048 -7.895147)" width="100%" xlink:href="#b"/><use height="100%" transform="translate(-43.893078 -16.473312)" width="100%" xlink:href="#b"/><use height="100%" transform="translate(-52.516478 -15.263686)" width="100%" xlink:href="#b"/><use height="100%" transform="translate(-45.488638 -3.711889)" width="100%" xlink:href="#b"/><use height="100%" transform="translate(-52.287658 2.630727)" width="100%" xlink:href="#b"/><use height="100%" transform="translate(-49.313998 -6.478704)" width="100%" xlink:href="#b"/><use height="100%" transform="translate(-38.175978 15.642167)" width="100%" xlink:href="#b"/><use height="100%" transform="translate(-41.453328 -4.8573)" width="100%" xlink:href="#b"/><use height="100%" transform="translate(-31.740128 6.854617)" width="100%" xlink:href="#b"/><use height="100%" transform="translate(-42.463428 30.219905)" width="100%" xlink:href="#b"/><use height="100%" transform="translate(-33.334478 36.364809)" width="100%" xlink:href="#b"/><use height="100%" transform="translate(-29.673778 33.820059)" width="100%" xlink:href="#b"/><use height="100%" transform="translate(-42.849868 30.11827)" width="100%" xlink:href="#b"/><use height="100%" transform="translate(-36.914328 14.124709)" width="100%" xlink:href="#b"/><use height="100%" transform="translate(-19.254398 20.987022)" width="100%" xlink:href="#b"/><use height="100%" transform="translate(-33.871448 39.680308)" width="100%" xlink:href="#b"/><use height="100%" transform="translate(-20.180308 27.115187)" width="100%" xlink:href="#b"/><use height="100%" transform="translate(-30.206968 33.953632)" width="100%" xlink:href="#b"/><use height="100%" transform="translate(-71.992798 -40.853477)" width="100%" xlink:href="#b"/><use height="100%" transform="translate(-73.466038 -30.090479)" width="100%" xlink:href="#b"/><use height="100%" transform="translate(-58.965348 -41.130145)" width="100%" xlink:href="#b"/><use height="100%" transform="translate(-9.940307 46.363562)" width="100%" xlink:href="#b"/><use height="100%" transform="translate(-50.307838 1.208126)" width="100%" xlink:href="#b"/><use height="100%" transform="translate(-42.353338 -14.111704)" width="100%" xlink:href="#b"/><use height="100%" transform="translate(-56.755728 -4.935746)" width="100%" xlink:href="#b"/><use height="100%" transform="translate(-40.494628 1.217817)" width="100%" xlink:href="#b"/><use height="100%" transform="translate(-47.773908 20.269536)" width="100%" xlink:href="#b"/><use height="100%" transform="translate(-53.656258 11.353041)" width="100%" xlink:href="#b"/><use height="100%" transform="translate(-41.873218 19.652604)" width="100%" xlink:href="#b"/><use height="100%" transform="translate(-44.648678 17.511905)" width="100%" xlink:href="#b"/><use height="100%" transform="translate(-9.805207 25.749294)" width="100%" xlink:href="#b"/><use height="100%" transform="translate(-8.837067 42.959665)" width="100%" xlink:href="#b"/><use height="100%" transform="translate(-18.669548 37.083324)" width="100%" xlink:href="#b"/><use height="100%" transform="translate(-22.848008 21.444351)" width="100%" xlink:href="#b"/><use height="100%" transform="translate(-4.486147 25.781344)" width="100%" xlink:href="#b"/><use height="100%" transform="translate(-.486737 36.134685)" width="100%" xlink:href="#b"/><use height="100%" transform="translate(-14.659768 38.821224)" width="100%" xlink:href="#b"/><use height="100%" transform="translate(10.706172 25.024276)" width="100%" xlink:href="#b"/><use height="100%" transform="translate(7.761712 9.675389)" width="100%" xlink:href="#b"/><use height="100%" transform="translate(-5.425097 13.018049)" width="100%" xlink:href="#b"/><use height="100%" transform="translate(13.752192 19.389891)" width="100%" xlink:href="#b"/><use height="100%" transform="translate(4.379232 1.567913)" width="100%" xlink:href="#b"/><use height="100%" transform="translate(4.827442 5.290864)" width="100%" xlink:href="#b"/><use height="100%" transform="translate(14.092492 16.743036)" width="100%" xlink:href="#b"/><use height="100%" transform="translate(6.691902 19.447885)" width="100%" xlink:href="#b"/><use height="100%" transform="translate(10.322812 8.887597)" width="100%" xlink:href="#b"/><use height="100%" transform="translate(15.825152 9.37166)" width="100%" xlink:href="#b"/><use height="100%" transform="translate(30.736052 22.464932)" width="100%" xlink:href="#b"/><use height="100%" transform="translate(33.254112 16.676737)" width="100%" xlink:href="#b"/><use height="100%" transform="translate(41.953052 1.609484)" width="100%" xlink:href="#b"/><use height="100%" transform="translate(50.700322 4.411695)" width="100%" xlink:href="#b"/><use height="100%" transform="translate(45.375102 1.714363)" width="100%" xlink:href="#b"/><use height="100%" transform="translate(53.936022 -6.342052)" width="100%" xlink:href="#b"/><use height="100%" transform="translate(45.693362 -3.889589)" width="100%" xlink:href="#b"/><use height="100%" transform="translate(6.222722 2.169907)" width="100%" xlink:href="#b"/><use height="100%" transform="translate(6.171402 24.798813)" width="100%" xlink:href="#b"/><use height="100%" transform="translate(16.744382 3.886127)" width="100%" xlink:href="#b"/><use height="100%" transform="translate(5.988272 7.449876)" width="100%" xlink:href="#b"/><use height="100%" transform="translate(34.136022 4.106214)" width="100%" xlink:href="#b"/><use height="100%" transform="translate(75.964582 1.061749)" width="100%" xlink:href="#b"/><use height="100%" transform="translate(100.19318 -29.836403)" width="100%" xlink:href="#b"/><use height="100%" transform="translate(83.446442 -18.17492)" width="100%" xlink:href="#b"/><use height="100%" transform="translate(84.082282 -34.26385)" width="100%" xlink:href="#b"/><use height="100%" transform="translate(63.573602 25.081506)" width="100%" xlink:href="#b"/><use height="100%" transform="translate(81.793172 -14.960432)" width="100%" xlink:href="#b"/></g><use height="100%" transform="translate(52.161132 -57.954229)" width="100%" xlink:href="#b"/><use fill="none" height="100%" transform="translate(55.473292 -30.183602)" width="100%" xlink:href="#b"/><use fill="none" height="100%" transform="translate(64.050392 -26.10261)" width="100%" xlink:href="#b"/><use fill="none" height="100%" transform="translate(44.804372 -45.309833)" width="100%" xlink:href="#b"/><use fill="none" height="100%" transform="translate(67.665852 -41.773174)" width="100%" xlink:href="#b"/><use fill="none" height="100%" transform="translate(66.862392 -33.135062)" width="100%" xlink:href="#b"/><use fill="none" height="100%" transform="translate(44.932042 7.583681)" width="100%" xlink:href="#b"/><use fill="none" height="100%" transform="translate(53.711882 19.022767)" width="100%" xlink:href="#b"/><use fill="none" height="100%" transform="translate(54.106182 2.003262)" width="100%" xlink:href="#b"/><path d="m197.63505 115.01304c67.96584 20.28914 90.15057 51.2728 87.20996 79.62078-3.55863 34.30541-31.37965 72.27072-86.64383 109.31842" fill="none" stroke="#000" stroke-width="5"/><path d="m149.75304 92.664445s0 0 28.86932-21.255381c28.24172 21.621853 28.24172 21.621853 28.24172 21.621853" fill="none" stroke="#000" stroke-width="5"/><path d="m160.06939 115.61907c-66.46817 20.21641-91.26821 50.40029-88.392397 78.64667 3.480206 34.18244 30.688187 72.01164 84.734587 108.92655" fill="none" stroke="#000" stroke-width="5"/><path d="m149.38274 90.345834 15.63884 14.612736-6.13078 11.65443.22198.22162" fill="none" stroke="#000" stroke-width="5"/><rect fill="none" height="32.009426" ry="2.306526" stroke="#000" stroke-width="5" width="164.83687" x="96.414536" y="304.12057"/><path d="m133.05635 125.08116h89.14121" fill="none" stroke="#000" stroke-width="3"/><path d="m117.32555 132.61883h121.25826" fill="none" stroke="#000" stroke-width="3"/><path d="m159.35676 115.74388c38.01034.3316 38.01034.3316 38.01034.3316" fill="none" stroke="#000" stroke-width="3"/><path d="m71.444052 190.78266h214.659878" fill="none" stroke="#000" stroke-width="3"/><path d="m207.95696 91.160255-15.63884 13.685795 6.13078 11.65443-.22198.22162" fill="none" stroke="#000" stroke-width="5"/><path d="m96.10148 314.77417c163.86486-.65443 163.86486-.65443 163.86486-.65443" fill="none" stroke="#000" stroke-width="3"/><path d="m260.09262 323.71642c-163.48558 0-162.06396 0-163.48558 0-1.42161 0 0 0 0 0" fill="none" stroke="#000" stroke-width="3"/><path d="m72.403643 182.70901c212.187477-1.17692 212.187477-1.17692 212.187477-1.17692" fill="none" stroke="#000" stroke-width="3"/><path d="m115.00157 269.49005h126.52816" fill="none" stroke="#000" stroke-width="3"/><path d="m124.7345 278.75951c105.2084.46348 105.2084.46348 105.2084.46348" fill="none" stroke="#000" stroke-width="3"/></g></svg>