<svg height="353.63" width="353.63" xmlns="http://www.w3.org/2000/svg" xmlns:xlink="http://www.w3.org/1999/xlink"><linearGradient id="a" gradientUnits="userSpaceOnUse" x1="77.360644" x2="289.714326" y1="179.591865" y2="179.591865"><stop offset="0" stop-color="#daa520"/><stop offset="1" stop-color="#daa520" stop-opacity="0"/></linearGradient><g stroke="#000"><path d="m182.60842 73.923969 33.37006 7.41557 32.44312 17.611979 20.39282 24.100602 16.68503 29.66228 3.70778 24.1006-7.41557 39.85869-20.39281 32.44312-24.10061 24.1006-35.22395 11.12335-38.93175.92695-35.22395-13.90419-28.735341-24.10061-18.538925-39.85869-2.780839-21.08803 3.707785-42.87126 15.758086-22.24671 18.538934-27.80838 26.88144-12.050301z" fill="#fffbd6" fill-rule="evenodd"/><path d="m182.60842 73.923976 33.37006 7.41557 32.44312 17.61198 20.39282 24.100594 16.68503 29.66228 3.70778 24.1006-7.41557 39.85869-20.39281 32.44312-24.10061 24.1006-35.22395 11.12335-38.93175.92695-35.22395-13.90419-28.735344-24.10061-18.53892-39.85869-2.78084-21.08803 3.70779-42.87126 15.75808-22.24671 18.538934-27.808374 26.88144-12.0503z" fill="url(#a)" fill-rule="evenodd"/><g fill="none" stroke-linecap="round"><ellipse cx="192.37167" cy="150.0562" rx="104.42029" ry="104.62258" stroke-width="21" transform="matrix(1.0014278 0 0 1.0014238 -11.3932 30.387217)"/><ellipse cx="180.78746" cy="180.19504" rx="75.077538" ry="72.267258" stroke-width="14.799258"/></g></g></svg>