<svg height="353.63" width="353.63" xmlns="http://www.w3.org/2000/svg" xmlns:xlink="http://www.w3.org/1999/xlink"><linearGradient id="a" gradientUnits="userSpaceOnUse" x1="51.08697" x2="301.90114" y1="199.076209" y2="199.076209"><stop offset="0" stop-color="#daa520"/><stop offset="1" stop-color="#daa520" stop-opacity="0"/></linearGradient><path d="m184.14176 62.54849c52.40583 30.963352 101.19043 65.96463 117.2587 117.72218l-1.39042 156.19044-246.104232-.46347-2.31737-160.3617c18.98611-44.87327 68.011832-86.232347 118.185652-113.550923l-4.17126 39.395213 20.85629-.46347z" fill="#fffbd6" stroke="#000"/><path d="m184.14176 62.54849c52.40583 30.963352 101.19043 65.96463 117.2587 117.72218l-1.39042 156.19044-246.104232-.46347-2.31737-160.3617c18.98611-44.87327 68.011832-86.232347 118.185652-113.550923l-4.17126 39.395213 20.85629-.46347z" fill="url(#a)" stroke="#000"/><g><rect id="b" fill="none" height="46.483501" opacity=".248" ry="8.0186" transform="scale(-1 1)" width="111.479" x="-241.91574" y="95.53627"/><g fill="none"><use height="100%" transform="translate(49.82298 32.590004)" width="100%" xlink:href="#b"/><use height="100%" transform="translate(39.111846 39.216843)" width="100%" xlink:href="#b"/><use height="100%" transform="translate(34.816691 36.472512)" width="100%" xlink:href="#b"/><use height="100%" transform="translate(22.591475 22.633001)" width="100%" xlink:href="#b"/><use height="100%" transform="translate(39.74188 42.792372)" width="100%" xlink:href="#b"/><use height="100%" transform="translate(23.67786 29.241788)" width="100%" xlink:href="#b"/><use height="100%" transform="translate(35.442291 36.61656)" width="100%" xlink:href="#b"/><use height="100%" transform="translate(11.663113 49.999782)" width="100%" xlink:href="#b"/><use height="100%" transform="translate(11.504598 27.76877)" width="100%" xlink:href="#b"/><use height="100%" transform="translate(10.368665 46.328923)" width="100%" xlink:href="#b"/><use height="100%" transform="translate(21.905263 39.99171)" width="100%" xlink:href="#b"/><use height="100%" transform="translate(26.807912 23.126197)" width="100%" xlink:href="#b"/><use height="100%" transform="translate(5.263665 27.803334)" width="100%" xlink:href="#b"/><use height="100%" transform="translate(.571097 38.96867)" width="100%" xlink:href="#b"/><use height="100%" transform="translate(17.200527 41.865911)" width="100%" xlink:href="#b"/><use height="100%" transform="translate(-12.561713 26.98689)" width="100%" xlink:href="#b"/><use height="100%" transform="translate(-9.106934 10.434215)" width="100%" xlink:href="#b"/><use height="100%" transform="translate(6.365349 14.039035)" width="100%" xlink:href="#b"/><use height="100%" transform="translate(-16.135654 20.91061)" width="100%" xlink:href="#b"/><use height="100%" transform="translate(-5.138219 1.690882)" width="100%" xlink:href="#b"/><use height="100%" transform="translate(-5.664111 5.705818)" width="100%" xlink:href="#b"/><use height="100%" transform="translate(-16.534934 18.056165)" width="100%" xlink:href="#b"/><use height="100%" transform="translate(-7.85171 20.973151)" width="100%" xlink:href="#b"/><use height="100%" transform="translate(-12.111912 9.584637)" width="100%" xlink:href="#b"/><use height="100%" transform="translate(-18.56789 10.106665)" width="100%" xlink:href="#b"/><use height="100%" transform="translate(-36.063073 24.22682)" width="100%" xlink:href="#b"/><use height="100%" transform="translate(-39.01755 17.984667)" width="100%" xlink:href="#b"/><use height="100%" transform="translate(-49.224149 1.735714)" width="100%" xlink:href="#b"/><use height="100%" transform="translate(-7.301214 2.34009)" width="100%" xlink:href="#b"/><use height="100%" transform="translate(-7.240999 26.743744)" width="100%" xlink:href="#b"/><use height="100%" transform="translate(-19.646436 4.19091)" width="100%" xlink:href="#b"/><use height="100%" transform="translate(-7.02613 8.034158)" width="100%" xlink:href="#b"/><use height="100%" transform="translate(-74.591866 27.048608)" width="100%" xlink:href="#b"/><rect height="45.226051" opacity=".248" ry="7.43545" width="188.76961" x="-262.61057" y="295.9584"/><rect height="23.856388" opacity=".248" ry=".441785" transform="scale(-1 1)" width="23.840532" x="-78.118927" y="264.41376"/><rect height="27.213945" opacity=".248" ry="5.213059" transform="scale(-1 1)" width="22.49468" x="-78.88797" y="267.59457"/><rect height="34.116749" ry="2.458375" stroke="#000" stroke-width="5" transform="scale(-1 1)" width="247.95403" x="-300.59454" y="302.01324"/><path d="m51.717388 176.75565c1.15126 125.65518 1.15126 125.65518 1.15126 125.65518" stroke="#000" stroke-width="5"/><path d="m170.40813 62.233143c-69.36318 37.784647-117.907062 90.609667-118.971952 121.329387-1.46207 42.17749 22.4897 90.04828 100.506942 117.89208" stroke="#000" stroke-width="5"/><path d="m182.19632 61.526286c69.36319 37.784648 117.90707 90.609674 118.97196 121.329384 1.46207 42.17748-22.48971 90.04829-100.50696 117.89208" stroke="#000" stroke-width="5"/><path d="m300.83826 179.16005.21256 124.28083" stroke="#000" stroke-width="5"/></g><path d="m299.71611 319.31689c-245.338757-.70233-245.338757-.70233-245.338757-.70233" fill="#e9dd9a" fill-opacity=".611765" fill-rule="evenodd" stroke="#000" stroke-width="5"/><path d="m120.51507 117.54159c5.334 45.48115 8.54723 91.65333 27.30884 130.69358 17.7851 17.6183 33.60003 13.05906 48.76577 1.19175 20.75566-41.40083 26.76396-87.17009 33.64836-132.67983" fill="none" stroke="#000" stroke-width="5"/><ellipse cx="-146.63318" cy="157.17886" rx="4.052553" ry=".543969" style="opacity:.248;fill:#e9dd9a;fill-opacity:.611765;fill-rule:evenodd;stroke:#000;stroke-width:7.004274" transform="scale(-1 1)"/><ellipse cx="-205.75378" cy="157.35555" rx="4.052553" ry=".543969" style="opacity:.248;fill:#e9dd9a;fill-opacity:.611765;fill-rule:evenodd;stroke:#000;stroke-width:7.004274" transform="scale(-1 1)"/><ellipse cx="-149.22867" cy="106.46191" rx=".34632" ry="6.680016" style="opacity:.248;fill:#e9dd9a;fill-opacity:.611765;fill-rule:evenodd;stroke:#000;stroke-width:7.475024" transform="scale(-1 1)"/><ellipse cx="-203.83115" cy="106.46191" rx=".34632" ry="6.680016" style="opacity:.248;fill:#e9dd9a;fill-opacity:.611765;fill-rule:evenodd;stroke:#000;stroke-width:7.475024" transform="scale(-1 1)"/><path d="m150.27216 85.040271c-18.14748 17.042239-14.41488 15.785669-6.05183 38.365299" fill="#e9dd9a" fill-opacity=".611765" fill-rule="evenodd" stroke="#000" stroke-width="5"/><path d="m201.4616 85.287069c18.14747 17.042231 14.41487 15.785661 6.05183 38.365291" fill="#e9dd9a" fill-opacity=".611765" fill-rule="evenodd" stroke="#000" stroke-width="5"/><ellipse cx="-165.85223" cy="248.99059" rx=".616947" ry="2.884251" style="opacity:.248;fill:#e9dd9a;fill-opacity:.611765;fill-rule:evenodd;stroke:#000;stroke-width:6.292919" transform="scale(-1 1)"/><ellipse cx="-180.53482" cy="248.49075" rx=".616947" ry="2.884251" style="opacity:.248;fill:#e9dd9a;fill-opacity:.611765;fill-rule:evenodd;stroke:#000;stroke-width:6.292919" transform="scale(-1 1)"/></g></svg>