<svg xmlns="http://www.w3.org/2000/svg" width="52.157" height="52.157">
    <g opacity=".99">
        <path fill="#3a3931" fill-opacity=".992" stroke="#393831" stroke-opacity=".992" stroke-width="1.044" d="m-11.54 7.386-13.14 4.634-6.169 42.276H7.767L1.598 12.02Z" transform="matrix(1.04053 0 0 .96762 38.088 -3.75)"/>
        <path fill="#ee5959" fill-opacity=".984" d="M19.52 14.838a.56.56 0 0 0-.508.75l.96 2.948a.57.57 0 0 0 .556.346h7.78l-3.81 2.928v4.206h-8.719a.59.59 0 0 0-.556.413l-.961 2.537a.56.56 0 0 0 .556.749h9.678v8.161l-3.007-.035c-.23.024-.537-.017-.825.016l.968 1.284c.969 1.243 1.558 1.897 2.944 2.77 1.173-.024 2.332-.49 3.996-1.378l-.03-2.657v-8.162h8.803a.553.553 0 0 0 .548-.749l-.96-2.776c-.07-.25-1.693-.173-1.948-.173h-6.444v-4.2l3.656-2.934c1.771-1.366 2.546-1.654 2.695-3.292a.56.56 0 0 0-.547-.75l-14.777.002-.04-.001z" opacity=".99" overflow="visible"/>
    </g>
</svg>
