<svg xmlns="http://www.w3.org/2000/svg" width="52.157" height="52.157">
    <g fill="#e2d8bb" fill-opacity=".984" opacity=".99">
        <path stroke="#393831" stroke-opacity=".992" stroke-width="1.044" d="m-11.54 7.386-13.14 4.634-6.169 42.276H7.767L1.598 12.02Z" transform="matrix(-1.04053 0 0 -.96762 14.07 55.905)"/>
        <path fill="#c90f0e" fill-opacity="1" d="M32.638 37.318a.56.56 0 0 0 .509-.749l-.96-2.95a.57.57 0 0 0-.557-.345h-7.779l3.81-2.928v-4.205h8.718a.59.59 0 0 0 .557-.413l.96-2.538a.56.56 0 0 0-.556-.748h-9.678v-8.163l3.007.035c.23-.023.538.017.826-.015l-.969-1.285c-.969-1.243-1.557-1.897-2.943-2.77-1.173.024-2.332.49-3.997 1.378l.031 2.657v8.162h-8.804a.553.553 0 0 0-.547.749l.96 2.776c.069.25 1.692.173 1.948.173h6.443v4.201l-3.656 2.933c-1.77 1.366-2.545 1.654-2.694 3.293a.56.56 0 0 0 .547.749l14.777-.001h.04z" opacity=".99" overflow="visible"/>
    </g>
</svg>
