<?xml version="1.0" encoding="UTF-8" standalone="no"?>
<svg
   xmlns:dc="http://purl.org/dc/elements/1.1/"
   xmlns:cc="http://creativecommons.org/ns#"
   xmlns:rdf="http://www.w3.org/1999/02/22-rdf-syntax-ns#"
   xmlns:svg="http://www.w3.org/2000/svg"
   xmlns="http://www.w3.org/2000/svg"
   xmlns:xlink="http://www.w3.org/1999/xlink"
   xmlns:sodipodi="http://sodipodi.sourceforge.net/DTD/sodipodi-0.dtd"
   xmlns:inkscape="http://www.inkscape.org/namespaces/inkscape"
   width="92" height="92"
   id="svg2"
   version="1.1"
   inkscape:version="0.48.5 r10040"
   sodipodi:docname="red_cannon.svg">
  <metadata
     id="metadata12">
    <rdf:RDF>
      <cc:Work
         rdf:about="">
        <dc:format>image/svg+xml</dc:format>
        <dc:type
           rdf:resource="http://purl.org/dc/dcmitype/StillImage" />
        <dc:title />
      </cc:Work>
    </rdf:RDF>
  </metadata>
  <defs
     id="defs10">
    <filter
       height="1.5"
       width="1.5"
       y="0"
       x="0"
       id="f1"
       color-interpolation-filters="sRGB">
      <feOffset
         id="feOffset3039"
         dy="0"
         dx="1"
         in="SourceAlpha"
         result="offOut" />
      <feGaussianBlur
         id="feGaussianBlur3041"
         stdDeviation="1"
         in="offOut"
         result="blurOut" />
      <!--
      <feBlend in="SourceGraphic" in2="blurOut" mode="normal" />
-->
    </filter>
    <linearGradient
       y2="1"
       x2="0"
       y1="0"
       x1="0"
       id="grad1">
      <stop
         id="stop3034"
         style="stop-color:rgb(255,255,255);stop-opacity:0.6"
         offset="20%" />
      <stop
         id="stop3036"
         style="stop-color:rgb(220,0,0);stop-opacity:0.5"
         offset="50%" />
    </linearGradient>
    <linearGradient
       y2="1"
       x2="0"
       y1="0"
       x1="0"
       id="grad0">
      <stop
         id="stop3029"
         style="stop-color:rgb(0,0,0);stop-opacity:0.3"
         offset="20%" />
      <stop
         id="stop3031"
         style="stop-color:rgb(0,0,0);stop-opacity:0.6"
         offset="100%" />
    </linearGradient>
    <linearGradient
       inkscape:collect="always"
       xlink:href="#grad1"
       id="linearGradient3085"
       x1="10.900002"
       y1="4.9000015"
       x2="10.900002"
       y2="83.099998"
       gradientUnits="userSpaceOnUse" />
  </defs>
  <sodipodi:namedview
     pagecolor="#ffffff"
     bordercolor="#666666"
     borderopacity="1"
     objecttolerance="10"
     gridtolerance="10"
     guidetolerance="10"
     inkscape:pageopacity="0"
     inkscape:pageshadow="2"
     inkscape:window-width="1920"
     inkscape:window-height="1024"
     id="namedview8"
     showgrid="false"
     inkscape:zoom="2.6222222"
     inkscape:cx="-49.381356"
     inkscape:cy="45"
     inkscape:window-x="0"
     inkscape:window-y="0"
     inkscape:window-maximized="1"
     inkscape:current-layer="svg2"
     fit-margin-top="0"
     fit-margin-left="0"
     fit-margin-right="0"
     fit-margin-bottom="0" />
  <g
     id="use4"
     transform="translate(-4,2)">
    <circle
       d="m 89,49.5 c 0,21.539105 -17.460895,39 -39,39 -21.539105,0 -39,-17.460895 -39,-39 0,-21.539105 17.460895,-39 39,-39 21.539105,0 39,17.460895 39,39 z"
       style="opacity:0.5;fill:#000000;filter:url(#f1)"
       sodipodi:ry="39"
       sodipodi:rx="39"
       sodipodi:cy="49.5"
       sodipodi:cx="50"
       cx="50"
       cy="49.5"
       r="39"
       id="circle3075" />
    <circle
       d="M 89,44 C 89,65.539105 71.539105,83 50,83 28.460895,83 11,65.539105 11,44 11,22.460895 28.460895,5 50,5 71.539105,5 89,22.460895 89,44 z"
       style="fill:#ee2211"
       sodipodi:ry="39"
       sodipodi:rx="39"
       sodipodi:cy="44"
       sodipodi:cx="50"
       cx="50"
       cy="44"
       r="39"
       id="circle3077" />
    <circle
       d="M 89.099998,44 C 89.099998,65.594333 71.594333,83.099998 50,83.099998 28.405667,83.099998 10.900002,65.594333 10.900002,44 10.900002,22.405667 28.405667,4.9000015 50,4.9000015 71.594333,4.9000015 89.099998,22.405667 89.099998,44 z"
       style="fill:url(#linearGradient3085)"
       sodipodi:ry="39.099998"
       sodipodi:rx="39.099998"
       sodipodi:cy="44"
       sodipodi:cx="50"
       cx="50"
       cy="44"
       r="39.099998"
       id="circle3079" />
    <circle
       d="M 89.099998,44 C 89.099998,65.594333 71.594333,83.099998 50,83.099998 28.405667,83.099998 10.900002,65.594333 10.900002,44 10.900002,22.405667 28.405667,4.9000015 50,4.9000015 71.594333,4.9000015 89.099998,22.405667 89.099998,44 z"
       style="fill:none;stroke:#aa0000;stroke-width:1"
       sodipodi:ry="39.099998"
       sodipodi:rx="39.099998"
       sodipodi:cy="44"
       sodipodi:cx="50"
       cx="50"
       cy="44"
       r="39.099998"
       id="circle3081" />
    <circle
       d="M 83.5,44 C 83.5,62.501539 68.501539,77.5 50,77.5 31.498461,77.5 16.5,62.501539 16.5,44 16.5,25.498461 31.498461,10.5 50,10.5 68.501539,10.5 83.5,25.498461 83.5,44 z"
       style="fill:#ee2211"
       sodipodi:ry="33.5"
       sodipodi:rx="33.5"
       sodipodi:cy="44"
       sodipodi:cx="50"
       cx="50"
       cy="44"
       r="33.5"
       id="circle3083" />
  </g>
  <g
     style="font-size:42px;font-weight:normal;text-anchor:middle;fill:#ffffff;stroke:#ffffff;stroke-width:1.25;font-family:'WenQuanYi Micro Hei, Arial'"
     id="text6"
     transform="translate(-4,2)">
    <path
       d="m 37.53125,26.039062 2.953125,0 0,8.367188 c 1.640612,-1.531223 2.953111,-3.117159 3.9375,-4.757813 l 2.460937,1.96875 c -1.640641,2.515651 -3.773451,4.757837 -6.398437,6.726563 l 0,4.757812 c -1.1e-5,1.968765 -0.109386,3.937513 -0.328125,5.90625 2.296862,2.953134 4.320297,5.796881 6.070312,8.53125 L 44.09375,60.65625 c -1.531264,-2.953123 -3.117199,-5.632808 -4.757813,-8.039063 -1.312509,4.484378 -3.281257,8.148437 -5.90625,10.992188 l -2.789062,-2.132813 c 4.593744,-5.031246 6.890616,-11.15624 6.890625,-18.375 l 0,-17.0625 m -4.757813,7.382813 3.117188,0.65625 c -0.328132,4.812521 -1.148443,9.023454 -2.460938,12.632812 L 30.476562,44.90625 c 1.203123,-3.390607 1.968747,-7.218728 2.296875,-11.484375 M 49.835937,25.875 52.625,26.53125 c -0.218773,1.312532 -0.492211,2.570343 -0.820313,3.773437 l 14.765625,0 c -3.7e-5,11.921893 -0.328162,18.94923 -0.984375,21.082032 -0.656285,2.132819 -1.859409,3.199224 -3.609375,3.199218 -0.437532,6e-6 -0.875032,-0.05468 -1.3125,-0.164062 L 59.84375,51.304687 c 0.984343,0.109384 1.69528,0.164072 2.132812,0.164063 0.437467,9e-6 0.765592,-0.765616 0.984375,-2.296875 0.218716,-1.531238 0.328091,-6.781232 0.328125,-15.75 l -12.796875,0 c -1.31252,3.281273 -2.734393,5.906271 -4.265625,7.875 L 43.765625,39 c 2.734358,-3.499975 4.757793,-7.874971 6.070312,-13.125 m 9.679688,12.796875 0,12.140625 -7.875,0 0,8.039062 c -2.3e-5,0.546876 0.218727,0.875001 0.65625,0.984375 C 52.734351,59.945313 54.648412,60 58.039062,60 c 4.046842,0 6.316371,-0.246094 6.808594,-0.738281 0.492151,-0.492187 0.792932,-1.777341 0.902344,-3.855469 l 3.28125,1.148437 c -0.43754,2.734376 -1.093789,4.539062 -1.96875,5.414063 -0.765662,0.765622 -3.773472,1.148434 -9.023438,1.148437 -4.812524,-3e-6 -7.628927,-0.218752 -8.449218,-0.65625 -0.820333,-0.437502 -1.230488,-1.421876 -1.230469,-2.953125 l 0,-20.835937 11.15625,0 m -7.875,9.1875 4.59375,0 0,-6.070313 -4.59375,0 0,6.070313"
       style="font-size:42px;font-weight:normal;text-anchor:middle;fill:#ffffff;stroke:#ffffff;stroke-width:1.25;font-family:'WenQuanYi Micro Hei, Arial'"
       id="path3088"
       inkscape:connector-curvature="0" />
  </g>
</svg>

