<?xml version="1.0" encoding="UTF-8" standalone="no"?>
<!-- Created with Inkscape (http://www.inkscape.org/) -->

<svg
   xmlns:dc="http://purl.org/dc/elements/1.1/"
   xmlns:cc="http://creativecommons.org/ns#"
   xmlns:rdf="http://www.w3.org/1999/02/22-rdf-syntax-ns#"
   xmlns:svg="http://www.w3.org/2000/svg"
   xmlns="http://www.w3.org/2000/svg"
   xmlns:xlink="http://www.w3.org/1999/xlink"
   xmlns:sodipodi="http://sodipodi.sourceforge.net/DTD/sodipodi-0.dtd"
   xmlns:inkscape="http://www.inkscape.org/namespaces/inkscape"
   width="360"
   height="360"
   viewBox="0 0 95.249998 95.250003"
   version="1.1"
   id="svg8"
   inkscape:version="0.92.4 5da689c313, 2019-01-14"
   sodipodi:docname="ma_b.svg">
  <defs
     id="defs2">
    <linearGradient
       inkscape:collect="always"
       id="linearGradient1649">
      <stop
         style="stop-color:#666666;stop-opacity:1;"
         offset="0"
         id="stop1645" />
      <stop
         style="stop-color:#4d4d4d;stop-opacity:1"
         offset="1"
         id="stop1647" />
    </linearGradient>
    <linearGradient
       inkscape:collect="always"
       id="linearGradient1641">
      <stop
         style="stop-color:#666666;stop-opacity:1;"
         offset="0"
         id="stop1637" />
      <stop
         style="stop-color:#4d4d4d;stop-opacity:1"
         offset="1"
         id="stop1639" />
    </linearGradient>
    <linearGradient
       inkscape:collect="always"
       id="linearGradient1633">
      <stop
         style="stop-color:#666666;stop-opacity:1;"
         offset="0"
         id="stop1629" />
      <stop
         style="stop-color:#4d4d4d;stop-opacity:1"
         offset="1"
         id="stop1631" />
    </linearGradient>
    <linearGradient
       inkscape:collect="always"
       xlink:href="#linearGradient1633"
       id="linearGradient1635"
       x1="175"
       y1="110"
       x2="175"
       y2="320"
       gradientUnits="userSpaceOnUse" />
    <linearGradient
       inkscape:collect="always"
       xlink:href="#linearGradient1641"
       id="linearGradient1643"
       x1="80"
       y1="125"
       x2="150"
       y2="190"
       gradientUnits="userSpaceOnUse" />
    <linearGradient
       inkscape:collect="always"
       xlink:href="#linearGradient1649"
       id="linearGradient1651"
       x1="120"
       y1="55"
       x2="270"
       y2="220"
       gradientUnits="userSpaceOnUse" />
  </defs>
  <sodipodi:namedview
     id="base"
     pagecolor="#ffffff"
     bordercolor="#666666"
     borderopacity="1.0"
     inkscape:pageopacity="0.0"
     inkscape:pageshadow="2"
     inkscape:zoom="1.979899"
     inkscape:cx="204.09763"
     inkscape:cy="188.52226"
     inkscape:document-units="mm"
     inkscape:current-layer="layer1"
     showgrid="true"
     units="px"
     inkscape:window-width="1855"
     inkscape:window-height="957"
     inkscape:window-x="4"
     inkscape:window-y="48"
     inkscape:window-maximized="0">
    <inkscape:grid
       type="xygrid"
       id="grid3721" />
  </sodipodi:namedview>
  <metadata
     id="metadata5">
    <rdf:RDF>
      <cc:Work
         rdf:about="">
        <dc:format>image/svg+xml</dc:format>
        <dc:type
           rdf:resource="http://purl.org/dc/dcmitype/StillImage" />
        <dc:title></dc:title>
      </cc:Work>
    </rdf:RDF>
  </metadata>
  <g
     inkscape:label="Layer 1"
     inkscape:groupmode="layer"
     id="layer1"
     transform="translate(0,-201.74997)">
    <path
       style="fill:none;stroke:#1b1b1b;stroke-width:1.05833333;stroke-miterlimit:4;stroke-dasharray:none;stroke-opacity:1"
       d="m 29.104166,294.35414 h 37.041666 l 10e-7,-5.29167 H 29.104167 Z"
       id="path360"
       inkscape:connector-curvature="0"
       sodipodi:nodetypes="ccccc" />
    <path
       style="fill:none;stroke:#1b1b1b;stroke-width:1.05833333;stroke-miterlimit:4;stroke-dasharray:none;stroke-opacity:1"
       d="m 29.104167,289.06247 -2.645834,-2.64583 h 42.333334 l -2.645834,2.64583"
       id="path362"
       inkscape:connector-curvature="0"
       sodipodi:nodetypes="cccc" />
    <path
       style="fill:none;stroke:#1b1b1b;stroke-width:1.05833333;stroke-miterlimit:4;stroke-dasharray:none;stroke-opacity:1"
       d="m 23.8125,266.57289 c -5.771151,-4.25017 -3.599608,-17.22033 -2.645833,-25.13542 0.725977,-6.84745 -0.915877,-11.09459 3.96875,-15.875 16.517104,2.74281 29.488985,4.20221 17.197916,19.84376 -1.048643,12.03423 -16.404167,14.28749 -19.84375,23.81249 -0.750285,3.63851 0.793709,13.78733 3.96875,17.19792"
       id="path374"
       inkscape:connector-curvature="0"
       sodipodi:nodetypes="cccccc" />
    <path
       style="fill:none;stroke:#1b1b1b;stroke-width:1.05833333;stroke-miterlimit:4;stroke-dasharray:none;stroke-opacity:1"
       d="m 25.135417,263.92705 c -2.313746,-1.22069 -2.682759,-3.18748 -2.645834,-5.29167 1.590677,1.05914 2.468914,2.82671 2.645834,5.29167 z"
       id="path4074"
       inkscape:connector-curvature="0"
       sodipodi:nodetypes="ccc" />
    <path
       style="fill:none;stroke:#1b1b1b;stroke-width:1.05833333;stroke-miterlimit:4;stroke-dasharray:none;stroke-opacity:1"
       d="m 23.283334,238.12951 c 1.322917,-6.61458 3.96875,-9.26042 10.583333,-9.26042"
       id="path4076"
       inkscape:connector-curvature="0"
       sodipodi:nodetypes="cc" />
    <path
       style="fill:none;stroke:#1b1b1b;stroke-width:1.05833333;stroke-miterlimit:4;stroke-dasharray:none;stroke-opacity:1"
       d="m 34.660418,230.72117 c -4.232822,0.18395 -7.976363,1.40723 -9.260417,7.9375 8.434992,0.97492 7.997598,-4.05682 9.260417,-7.9375"
       id="path4078"
       inkscape:connector-curvature="0"
       sodipodi:nodetypes="ccc" />
    <path
       style="fill:none;stroke:#1b1b1b;stroke-width:1.05833333;stroke-miterlimit:4;stroke-dasharray:none;stroke-opacity:1"
       d="m 68.791667,286.41664 c 3.356098,-3.73312 4.625848,-13.7845 3.96875,-17.19792"
       id="path4080"
       inkscape:connector-curvature="0"
       sodipodi:nodetypes="cc" />
    <path
       style="fill:none;stroke:#1b1b1b;stroke-width:1.05833333;stroke-miterlimit:4;stroke-dasharray:none;stroke-opacity:1"
       id="path4084"
       sodipodi:type="arc"
       sodipodi:cx="29.765625"
       sodipodi:cy="235.35139"
       sodipodi:rx="2.5135417"
       sodipodi:ry="2.5135417"
       sodipodi:start="3.1415927"
       sodipodi:end="3.1413309"
       sodipodi:open="true"
       d="m 27.252083,235.35139 a 2.5135417,2.5135417 0 0 1 2.513378,-2.51354 2.5135417,2.5135417 0 0 1 2.513706,2.51322 2.5135417,2.5135417 0 0 1 -2.513049,2.51387 2.5135417,2.5135417 0 0 1 -2.514035,-2.51289" />
    <path
       style="fill:none;stroke:#1b1b1b;stroke-width:1.05833333;stroke-miterlimit:4;stroke-dasharray:none;stroke-opacity:1"
       d="m 23.8125,226.88539 c -0.788163,-3.14354 -0.618622,-6.21815 0,-9.26042 l 11.90625,-1.32291 c 19.19941,3.63653 36.460944,17.69483 37.041667,52.91666"
       id="path4086"
       inkscape:connector-curvature="0"
       sodipodi:nodetypes="cccc" />
    <path
       style="fill:none;stroke:#1b1b1b;stroke-width:1.05833333;stroke-miterlimit:4;stroke-dasharray:none;stroke-opacity:1"
       d="m 23.8125,217.62497 c -2.237255,-4.23651 -1.951851,-10.40633 0,-13.22917 4.678818,2.15931 9.774097,7.19007 11.90625,11.90626"
       id="path4088"
       inkscape:connector-curvature="0"
       sodipodi:nodetypes="ccc" />
    <path
       style="fill:none;stroke:#1b1b1b;stroke-width:1.05833333;stroke-miterlimit:4;stroke-dasharray:none;stroke-opacity:1"
       d="m 25.664583,217.62497 c -1.485365,-3.54827 -1.5875,-7.9375 -1.058333,-10.84792 3.439583,2.38125 6.35,5.29167 8.995833,9.52501"
       id="path4088-3"
       inkscape:connector-curvature="0"
       sodipodi:nodetypes="ccc" />
    <path
       style="fill:none;stroke:#1b1b1b;stroke-width:1.05833333;stroke-miterlimit:4;stroke-dasharray:none;stroke-opacity:1"
       d="m 26.458333,217.62497 c 3.632283,3.52901 7.049632,7.93273 14.552083,9.26042 2.699243,2.62818 5.751455,2.9246 7.9375,5.29166 4.337556,8.659 7.235527,20.52022 11.906251,23.8125 4.950742,5.35627 9.35332,7.1947 11.90625,10.58334"
       id="path4127"
       inkscape:connector-curvature="0"
       sodipodi:nodetypes="ccccc" />
    <path
       style="fill:none;stroke:#1b1b1b;stroke-width:1.05833333;stroke-miterlimit:4;stroke-dasharray:none;stroke-opacity:1"
       d="m 60.854166,255.98955 c -0.981573,-4.01628 -1.893295,-8.02642 -1.322917,-11.90625"
       id="path4129"
       inkscape:connector-curvature="0"
       sodipodi:nodetypes="cc" />
    <path
       style="fill:none;stroke:#1b1b1b;stroke-width:1.05833333;stroke-miterlimit:4;stroke-dasharray:none;stroke-opacity:1"
       d="m 54.239583,244.0833 c -1.488701,-3.8819 -1.667961,-7.32122 -1.322917,-10.58333"
       id="path4131"
       inkscape:connector-curvature="0"
       sodipodi:nodetypes="cc" />
    <path
       style="fill:none;stroke:#1b1b1b;stroke-width:1.05833333;stroke-miterlimit:4;stroke-dasharray:none;stroke-opacity:1"
       d="m 47.624999,230.85414 c -1.799379,-1.28631 -3.458757,-2.84253 -3.96875,-6.61459"
       id="path4133"
       inkscape:connector-curvature="0"
       sodipodi:nodetypes="cc" />
    <path
       style="fill:#666666;stroke:#1b1b1b;stroke-width:2.02030516;stroke-miterlimit:4;stroke-dasharray:none;stroke-opacity:1"
       d="m 96.970303,52.991117 c -1.81061,-6.174763 -2.604748,-12.713818 -2.606914,-21.465742 -0.0011,-4.528775 0.201723,-8.207489 0.45256,-8.207489 1.658797,0 14.905761,12.388319 20.223741,18.91287 3.26176,4.001803 8.69475,11.48141 8.48914,11.687016 -0.18334,0.183337 -22.88019,2.735148 -24.327527,2.735148 -1.001144,0 -1.302106,-0.493978 -2.231,-3.661803 z"
       id="path1593"
       inkscape:connector-curvature="0"
       transform="matrix(0.26458333,0,0,0.26458333,0,201.74997)" />
    <path
       style="fill:#666666;stroke:#1b1b1b;stroke-width:1.01015258;stroke-miterlimit:4;stroke-dasharray:none;stroke-opacity:1"
       d="m 90.496168,56.091277 c -4.74484,-10.57291 -5.650387,-26.547673 -2.129417,-37.565093 0.902534,-2.824107 2.192142,-5.610798 2.596531,-5.610798 0.438986,0 5.061345,2.664465 8.102504,4.670525 9.509654,6.272916 20.074034,16.53682 26.891164,26.126316 1.61891,2.277288 4.24692,6.502907 5.13829,8.261921 l 0.65102,1.284727 -1.53017,0.173118 c -0.84159,0.09522 -1.55543,0.137714 -1.5863,0.09444 -0.0309,-0.04327 -1.28535,-1.896952 -2.78774,-4.119288 -8.76108,-12.959383 -18.14095,-22.571687 -30.789378,-31.552339 -1.908889,-1.35535 -3.502103,-2.424561 -3.540477,-2.376022 -0.188966,0.239019 -1.185056,7.032608 -1.438505,9.810969 -0.368135,4.035566 -0.148097,13.771501 0.402379,17.803939 0.505139,3.700332 1.449072,8.25065 2.321198,11.189558 1.065548,3.590706 1.093557,3.331384 -0.359813,3.331384 H 91.17981 Z"
       id="path1599"
       inkscape:connector-curvature="0"
       transform="matrix(0.26458333,0,0,0.26458333,0,201.74997)" />
    <path
       style="fill:url(#linearGradient1651);stroke:#1b1b1b;stroke-width:2.02030516;stroke-miterlimit:4;stroke-dasharray:none;stroke-opacity:1;fill-opacity:1"
       d="m 268.75441,235.25091 c -1.66675,-1.51984 -6.78065,-5.64122 -11.36422,-9.15862 -10.0106,-7.68209 -17.18488,-13.82551 -22.00783,-18.84559 l -3.57255,-3.71856 -1.59034,-7.36741 c -2.95174,-13.67427 -3.3392,-16.76267 -3.36354,-26.81056 l -0.0228,-9.42922 -1.93179,-0.18417 c -1.06249,-0.1013 -2.02598,-0.0318 -2.14109,0.15447 -0.11511,0.18625 -0.35213,2.92129 -0.52669,6.07786 -0.36992,6.68889 0.33787,14.67534 2.09767,23.66943 0.67941,3.4724 1.228,6.65438 1.21909,7.07107 -0.0441,2.06055 -6.60307,-8.38688 -10.69683,-17.03835 -4.0685,-8.59811 -8.43408,-19.35362 -8.15291,-20.08636 0.14138,-0.36843 -0.41876,-2.79164 -1.24475,-5.3849 -2.89479,-9.08839 -3.35886,-12.3609 -3.36542,-23.73191 l -0.006,-10.43059 -2.01064,-0.26986 c -1.10585,-0.14842 -2.1219,-0.1586 -2.25789,-0.0226 -0.13599,0.13599 -0.33799,4.00604 -0.44889,8.6001 l -0.20164,8.35285 -3.90361,-9.01133 c -5.79997,-13.38893 -5.89761,-13.54897 -11.20213,-18.36205 -7.52073,-6.82397 -9.41188,-8.97012 -11.28402,-12.805514 -1.76263,-3.611051 -3.28893,-8.61367 -3.28893,-10.779817 0,-0.864737 -0.28676,-1.154835 -1.13643,-1.149678 -2.05698,0.01248 -3.40926,0.602078 -3.40926,1.486446 0,1.811224 2.10159,8.985024 3.52056,12.017447 0.81242,1.7362 1.35841,3.156726 1.2133,3.156726 -0.65881,0 -7.69989,-4.826682 -9.34258,-6.404376 -1.49296,-1.433888 -2.61138,-1.933433 -6.06092,-2.707129 -8.60738,-1.930552 -17.54586,-5.664459 -24.44748,-10.212556 -7.55525,-4.978833 -24.56379,-20.752945 -22.93662,-21.271958 0.40017,-0.127641 7.33739,-0.947808 15.41605,-1.822592 l 14.68847,-1.590518 5.90658,1.324739 c 21.54559,4.832282 41.51653,13.282472 57.65052,24.393337 42.12115,29.007233 66.4371,77.292403 72.73885,144.440443 0.45005,4.79553 0.74604,9.14564 0.65774,9.66691 -0.13243,0.78183 -0.69112,0.46395 -3.19099,-1.81558 z"
       id="path1601"
       inkscape:connector-curvature="0"
       transform="matrix(0.26458333,0,0,0.26458333,0,201.74997)" />
    <path
       style="fill:#666666;stroke:#1b1b1b;stroke-width:2.02030516;stroke-miterlimit:4;stroke-dasharray:none;stroke-opacity:1"
       d="M 156.88001,100.94274 C 150.09225,97.974652 132.10536,93.910002 107.9349,89.882196 L 94.092584,87.575489 92.695792,88.9137 91.299,90.251912 90.880743,87.796101 C 90.236089,84.010994 90.390419,71.195177 91.139106,66.34116 l 0.671243,-4.351918 3.078104,-0.321725 3.078103,-0.321726 7.359644,7.228485 c 8.79974,8.642916 13.81556,12.952982 19.37974,16.652907 7.54738,5.018655 14.68085,8.204841 23.50605,10.499056 5.55474,1.44402 6.57552,1.970041 10.91561,5.624961 0.76023,0.64021 -0.28289,0.45064 -2.24759,-0.40846 z"
       id="path1603"
       inkscape:connector-curvature="0"
       transform="matrix(0.26458333,0,0,0.26458333,0,201.74997)" />
    <path
       style="fill:url(#linearGradient1635);stroke:#1b1b1b;stroke-width:2.02030516;stroke-miterlimit:4;stroke-dasharray:none;stroke-opacity:1;fill-opacity:1"
       d="m 99.386892,315.5288 c -3.77694,-5.90328 -6.840786,-13.78703 -9.176411,-23.61232 -2.574906,-10.83187 -3.249862,-16.36167 -3.267378,-26.76904 l -0.01615,-9.59645 2.091323,-4.04061 c 5.372935,-10.38095 12.518674,-17.42188 32.253864,-31.78078 21.20882,-15.43108 30.37184,-24.75404 36.11998,-36.75044 1.93959,-4.04794 4.53866,-12.87041 4.53866,-15.40635 0,-0.72347 1.54819,-3.37756 3.76791,-6.45939 16.33855,-22.68424 19.09088,-38.21769 8.77219,-49.50798 -1.39696,-1.52851 -2.36664,-2.77911 -2.15483,-2.77911 0.67886,0 4.93512,2.59761 7.7114,4.70631 3.77512,2.86734 5.88228,7.25515 17.76894,37.0009 8.97293,22.45427 10.81676,26.78195 14.63252,34.34426 5.24086,10.38662 8.09398,14.21577 17.32784,23.25558 9.32989,9.13381 13.59499,12.80406 26.2838,22.61801 4.95243,3.83038 10.65455,8.61445 12.67137,10.63127 l 3.66695,3.66694 0.45504,7.52354 c 0.8702,14.38768 0.10418,25.3143 -2.63429,37.57558 -2.41332,10.80546 -6.48674,21.31909 -10.09045,26.0438 l -1.32364,1.73539 h -78.93184 -78.93184 z"
       id="path1605"
       inkscape:connector-curvature="0"
       transform="matrix(0.26458333,0,0,0.26458333,0,201.74997)" />
    <path
       style="fill:url(#linearGradient1643);stroke:#1b1b1b;stroke-width:2.02030516;stroke-miterlimit:4;stroke-dasharray:none;stroke-opacity:1;fill-opacity:1"
       d="m 87.555679,239.64865 c -4.236442,-4.94932 -7.564662,-13.695 -9.03674,-23.74615 -0.803353,-5.48518 -0.800029,-24.96576 0.0057,-33.58757 0.337497,-3.61129 1.41236,-13.27088 2.388583,-21.46574 1.320755,-11.08701 1.893828,-18.45399 2.239503,-28.78935 0.504547,-15.0854 0.901822,-18.48577 2.831891,-24.23881 2.155402,-6.4247 8.196997,-15.157136 10.486568,-15.157136 1.594007,0 23.654306,3.750969 32.882146,5.591034 26.79876,5.343772 40.46973,11.743462 45.0618,21.094442 1.25245,2.55042 1.40521,3.41055 1.40521,7.91225 0,4.00371 -0.25036,5.7837 -1.2077,8.5863 -2.36547,6.92484 -6.71235,14.68621 -12.97763,23.1716 -2.93168,3.97053 -3.77155,5.50565 -4.01543,7.3395 -1.36418,10.25786 -5.78197,19.55044 -13.54861,28.49873 -3.67239,4.23111 -11.7582,11.08986 -22.04125,18.69637 -14.71666,10.88611 -18.17887,13.57383 -21.79133,16.91662 l -3.462483,3.20402 -0.006,-1.68879 c -0.02331,-6.56747 -4.809255,-14.95322 -10.944148,-19.17592 -3.315664,-2.2822 -3.38884,-2.18622 -3.031465,3.97634 0.536209,9.24639 2.713863,14.18356 7.959111,18.0449 l 2.86675,2.11038 -2.109456,2.43158 -2.109456,2.43158 -1.845602,-2.15618 z m 26.870671,-98.98233 c 9.19565,-3.12886 12.87448,-8.20378 16.67365,-23.00115 0.85587,-3.3335 1.67482,-6.44033 1.81988,-6.90406 0.17162,-0.54859 -0.0965,-0.9575 -0.7675,-1.17046 -0.599,-0.19012 -1.03125,-0.76379 -1.03125,-1.36865 0,-0.99607 -0.17924,-1.0257 -4.12397,-0.68159 -9.70322,0.84642 -17.25493,3.98154 -22.73719,9.43943 -5.030252,5.00789 -8.067201,11.59997 -10.715677,23.25971 -0.29759,1.31012 -0.219095,1.36953 2.092574,1.5838 1.320969,0.12244 5.356463,0.16145 8.967753,0.0867 5.17333,-0.10711 7.25654,-0.3709 9.82173,-1.24372 z m -23.440741,-6.20736 c 2.492426,-10.31887 5.920851,-17.20822 10.821291,-21.74517 5.26982,-4.87892 11.28981,-7.06197 21.35927,-7.74559 l 4.9245,-0.33432 v -2.19692 -2.19692 h -2.15983 c -1.1879,0 -4.08578,0.23871 -6.43972,0.53047 -17.7562,2.20077 -26.430884,10.14241 -31.972577,29.27074 -1.899469,6.55642 -1.90723,7.24121 -0.08651,7.63351 0.833376,0.17957 1.774851,0.35337 2.092168,0.38624 0.317316,0.0329 0.974952,-1.58805 1.461413,-3.60204 z"
       id="path1607"
       inkscape:connector-curvature="0"
       transform="matrix(0.26458333,0,0,0.26458333,0,201.74997)" />
    <path
       style="fill:#666666;stroke:#1b1b1b;stroke-width:2.02030516;stroke-miterlimit:4;stroke-dasharray:none;stroke-opacity:1"
       d="m 108.7166,133.12157 c -4.51651,-2.97767 -4.51651,-9.24731 0,-12.22498 1.76872,-1.1661 5.22435,-1.24962 7.29965,-0.17644 4.50646,2.33038 4.68924,9.69821 0.30687,12.37029 -2.10009,1.2805 -5.68921,1.29519 -7.60652,0.0311 z"
       id="path1609"
       inkscape:connector-curvature="0"
       transform="matrix(0.26458333,0,0,0.26458333,0,201.74997)" />
    <path
       style="fill:#666666;stroke:#1b1b1b;stroke-width:2.02030516;stroke-miterlimit:4;stroke-dasharray:none;stroke-opacity:1"
       d="m 123.3411,122.77306 c -1.12702,-2.95106 -3.37337,-5.21311 -6.58411,-6.63009 l -2.50595,-1.10595 3.25801,-1.06833 c 2.63043,-0.86254 8.54751,-2.0899 10.16302,-2.10808 0.32546,-0.004 -2.04682,9.57994 -2.9837,12.0536 -0.42677,1.12683 -0.5071,1.05879 -1.34727,-1.14115 z"
       id="path1611"
       inkscape:connector-curvature="0"
       transform="matrix(0.26458333,0,0,0.26458333,0,201.74997)" />
    <path
       style="fill:#666666;stroke:#1b1b1b;stroke-width:2.02030516;stroke-miterlimit:4;stroke-dasharray:none;stroke-opacity:1"
       d="m 98.796244,137.25113 c 0,-0.20051 0.494349,-1.93091 1.098554,-3.84535 l 1.098552,-3.48078 0.98461,2.09202 c 0.54153,1.15061 1.90637,2.88101 3.03297,3.84534 l 2.04836,1.75332 h -4.13152 c -2.27234,0 -4.131526,-0.16405 -4.131526,-0.36455 z"
       id="path1613"
       inkscape:connector-curvature="0"
       transform="matrix(0.26458333,0,0,0.26458333,0,201.74997)" />
    <path
       style="fill:#4d4d4d;stroke:#1b1b1b;stroke-width:2.02030516;stroke-miterlimit:4;stroke-dasharray:none;stroke-opacity:1"
       d="m 90.319723,228.1785 c -1.176587,-1.65236 -2.635157,-5.28386 -2.635157,-6.56093 0,-1.41273 1.153244,0.0166 2.61566,3.24192 1.759917,3.88142 1.771063,5.77886 0.0195,3.31901 z"
       id="path1615"
       inkscape:connector-curvature="0"
       transform="matrix(0.26458333,0,0,0.26458333,0,201.74997)" />
    <path
       style="fill:#4d4d4d;stroke:#1b1b1b;stroke-width:2.02030516;stroke-miterlimit:4;stroke-dasharray:none;stroke-opacity:1"
       d="m 108.14015,324.99898 -2.4874,-2.52538 h 74.20824 74.20823 l -2.4874,2.52538 -2.48741,2.52538 h -69.23342 -69.23343 z"
       id="path1617"
       inkscape:connector-curvature="0"
       transform="matrix(0.26458333,0,0,0.26458333,0,201.74997)" />
    <path
       style="fill:#4d4d4d;stroke:#1b1b1b;stroke-width:2.02030516;stroke-miterlimit:4;stroke-dasharray:none;stroke-opacity:1"
       d="m 112.4333,339.89873 v -7.82868 h 67.68022 67.68022 v 7.82868 7.82868 H 180.11352 112.4333 Z"
       id="path1619"
       inkscape:connector-curvature="0"
       transform="matrix(0.26458333,0,0,0.26458333,0,201.74997)" />
  </g>
</svg>
