<?xml version="1.0" encoding="UTF-8" standalone="no"?>
<!-- Created with Inkscape (http://www.inkscape.org/) -->

<svg
   xmlns:dc="http://purl.org/dc/elements/1.1/"
   xmlns:cc="http://creativecommons.org/ns#"
   xmlns:rdf="http://www.w3.org/1999/02/22-rdf-syntax-ns#"
   xmlns:svg="http://www.w3.org/2000/svg"
   xmlns="http://www.w3.org/2000/svg"
   xmlns:xlink="http://www.w3.org/1999/xlink"
   xmlns:sodipodi="http://sodipodi.sourceforge.net/DTD/sodipodi-0.dtd"
   xmlns:inkscape="http://www.inkscape.org/namespaces/inkscape"
   width="360"
   height="360"
   viewBox="0 0 95.249998 95.250003"
   version="1.1"
   id="svg8"
   sodipodi:docname="bia_b.svg"
   inkscape:version="0.92.4 5da689c313, 2019-01-14">
  <defs
     id="defs2">
    <linearGradient
       inkscape:collect="always"
       id="linearGradient2238">
      <stop
         style="stop-color:#1a1a1a;stop-opacity:1"
         offset="0"
         id="stop2232" />
      <stop
         id="stop2234"
         offset="0.78260869"
         style="stop-color:#808080;stop-opacity:1" />
      <stop
         style="stop-color:#1a1a1a;stop-opacity:1"
         offset="1"
         id="stop2236" />
    </linearGradient>
    <linearGradient
       inkscape:collect="always"
       id="linearGradient2220">
      <stop
         style="stop-color:#1a1a1a;stop-opacity:1"
         offset="0"
         id="stop2214" />
      <stop
         id="stop2216"
         offset="0.7368421"
         style="stop-color:#808080;stop-opacity:1" />
      <stop
         style="stop-color:#1a1a1a;stop-opacity:1"
         offset="1"
         id="stop2218" />
    </linearGradient>
    <linearGradient
       id="linearGradient2208"
       inkscape:collect="always">
      <stop
         id="stop2204"
         offset="0"
         style="stop-color:#1a1a1a;stop-opacity:1" />
      <stop
         style="stop-color:#808080;stop-opacity:1"
         offset="0.70918357"
         id="stop2210" />
      <stop
         id="stop2206"
         offset="1"
         style="stop-color:#1a1a1a;stop-opacity:1" />
    </linearGradient>
    <linearGradient
       inkscape:collect="always"
       id="linearGradient2196">
      <stop
         style="stop-color:#808080;stop-opacity:1"
         offset="0"
         id="stop2192" />
      <stop
         style="stop-color:#1a1a1a;stop-opacity:1"
         offset="1"
         id="stop2194" />
    </linearGradient>
    <radialGradient
       inkscape:collect="always"
       xlink:href="#linearGradient2196"
       id="radialGradient2198"
       cx="180"
       cy="180.00056"
       fx="180"
       fy="180.00056"
       r="38.922673"
       gradientTransform="matrix(1.248223e-5,-3.3399566,3.3399555,1.5588598e-6,-421.19613,781.19197)"
       gradientUnits="userSpaceOnUse" />
    <radialGradient
       inkscape:collect="always"
       xlink:href="#linearGradient2208"
       id="radialGradient2202"
       cx="180"
       cy="180.00009"
       fx="180"
       fy="180.00009"
       r="58.801811"
       gradientTransform="matrix(-1.165227e-6,-1.1904395,1.1904395,-6.1737366e-8,-34.279008,394.27912)"
       gradientUnits="userSpaceOnUse" />
    <radialGradient
       inkscape:collect="always"
       xlink:href="#linearGradient2220"
       id="radialGradient2212"
       cx="180"
       cy="180.00006"
       fx="180"
       fy="180.00006"
       r="78.837187"
       gradientTransform="matrix(3.7108126e-6,-1.205015,1.2050151,-8.478935e-8,-36.903455,396.90271)"
       gradientUnits="userSpaceOnUse" />
    <radialGradient
       inkscape:collect="always"
       xlink:href="#linearGradient2238"
       id="radialGradient2230"
       cx="180"
       cy="180.00011"
       fx="180"
       fy="180.00011"
       r="98.745789"
       gradientTransform="matrix(-1.516966e-7,-1.1646065,1.1646066,-1.5170614e-7,-29.629289,389.62919)"
       gradientUnits="userSpaceOnUse" />
  </defs>
  <sodipodi:namedview
     id="base"
     pagecolor="#ffffff"
     bordercolor="#666666"
     borderopacity="1.0"
     inkscape:pageopacity="0.0"
     inkscape:pageshadow="2"
     inkscape:zoom="2.8"
     inkscape:cx="195.65272"
     inkscape:cy="218.69414"
     inkscape:document-units="mm"
     inkscape:current-layer="layer1"
     showgrid="true"
     units="px"
     inkscape:window-width="1907"
     inkscape:window-height="994"
     inkscape:window-x="685"
     inkscape:window-y="72"
     inkscape:window-maximized="0">
    <inkscape:grid
       type="xygrid"
       id="grid3721" />
  </sodipodi:namedview>
  <metadata
     id="metadata5">
    <rdf:RDF>
      <cc:Work
         rdf:about="">
        <dc:format>image/svg+xml</dc:format>
        <dc:type
           rdf:resource="http://purl.org/dc/dcmitype/StillImage" />
        <dc:title></dc:title>
      </cc:Work>
    </rdf:RDF>
  </metadata>
  <g
     inkscape:label="Layer 1"
     inkscape:groupmode="layer"
     id="layer1"
     transform="translate(0,-201.74997)">
    <path
       style="fill:none;stroke:#000000;stroke-width:1.05833333;stroke-miterlimit:4;stroke-dasharray:none"
       id="path3752"
       sodipodi:type="arc"
       sodipodi:cx="47.625"
       sodipodi:cy="249.37497"
       sodipodi:rx="26.458332"
       sodipodi:ry="26.458332"
       sodipodi:start="3.1415927"
       sodipodi:end="3.1413309"
       sodipodi:open="true"
       d="M 21.166668,249.37497 A 26.458332,26.458332 0 0 1 47.62327,222.91664 26.458332,26.458332 0 0 1 74.083332,249.37151 26.458332,26.458332 0 0 1 47.630194,275.8333 26.458332,26.458332 0 0 1 21.166669,249.3819" />
    <path
       style="fill:none;stroke:#000000;stroke-width:1.05833333;stroke-miterlimit:4;stroke-dasharray:none"
       id="path3754"
       sodipodi:type="arc"
       sodipodi:cx="47.625"
       sodipodi:cy="249.37497"
       sodipodi:rx="21.166666"
       sodipodi:ry="21.166666"
       sodipodi:start="3.1415927"
       sodipodi:end="3.1413309"
       sodipodi:open="true"
       d="m 26.458334,249.37497 a 21.166666,21.166666 0 0 1 21.165282,-21.16667 21.166666,21.166666 0 0 1 21.16805,21.1639 21.166666,21.166666 0 0 1 -21.162511,21.16944 21.166666,21.166666 0 0 1 -21.17082,-21.16113" />
    <path
       style="fill:none;stroke:#000000;stroke-width:1.05833333;stroke-miterlimit:4;stroke-dasharray:none"
       id="path5301"
       sodipodi:type="arc"
       sodipodi:cx="47.625"
       sodipodi:cy="249.37497"
       sodipodi:rx="15.875"
       sodipodi:ry="15.875"
       sodipodi:start="3.1415927"
       sodipodi:end="3.1413309"
       sodipodi:open="true"
       d="M 31.75,249.37497 A 15.875,15.875 0 0 1 47.623962,233.49997 15.875,15.875 0 0 1 63.5,249.37289 15.875,15.875 0 0 1 47.628116,265.24997 15.875,15.875 0 0 1 31.750001,249.37912" />
    <path
       style="fill:none;stroke:#000000;stroke-width:1.05833333;stroke-miterlimit:4;stroke-dasharray:none"
       id="path5303"
       sodipodi:type="arc"
       sodipodi:cx="47.625"
       sodipodi:cy="249.37497"
       sodipodi:rx="10.583333"
       sodipodi:ry="10.583333"
       sodipodi:start="3.1415927"
       sodipodi:end="3.1413309"
       sodipodi:open="true"
       d="M 37.041667,249.37497 A 10.583333,10.583333 0 0 1 47.624308,238.79164 10.583333,10.583333 0 0 1 58.208333,249.37358 10.583333,10.583333 0 0 1 47.627078,259.9583 10.583333,10.583333 0 0 1 37.041667,249.37774" />
    <path
       style="fill:url(#radialGradient2198);stroke:#1b1b1b;stroke-width:2.85714293;stroke-miterlimit:4;stroke-dasharray:none;stroke-opacity:1;fill-opacity:1"
       d="m 172.40607,216.75535 c -17.24214,-3.73385 -30,-19.35718 -30,-36.73815 0,-10.03452 3.67521,-18.67634 11.17092,-26.26713 11.87223,-12.02281 28.10751,-14.72994 43.1589,-7.19647 27.80835,13.91851 27.58425,53.40425 -0.38063,67.06716 -5.46297,2.66907 -12.18568,4.31078 -17.16347,4.19141 -1.17857,-0.0283 -4.23214,-0.50384 -6.78572,-1.05682 z"
       id="path2182"
       inkscape:connector-curvature="0"
       transform="matrix(0.26458333,0,0,0.26458333,0,201.74997)" />
    <path
       style="fill:url(#radialGradient2202);stroke:#1b1b1b;stroke-width:2.85714293;stroke-miterlimit:4;stroke-dasharray:none;stroke-opacity:1;fill-opacity:1"
       d="m 171.71988,237.08351 c -22.71144,-3.46191 -41.49651,-20.33011 -47.64208,-42.78059 -1.97173,-7.203 -1.80125,-22.17816 0.33701,-29.60244 5.60396,-19.45759 20.26962,-34.23773 39.77698,-40.08748 5.43622,-1.63019 7.80683,-1.93475 15.35714,-1.97302 15.92367,-0.0807 28.07664,4.65144 39.71397,15.46392 12.01337,11.16186 18.13317,25.30727 18.13317,41.9133 0,31.06616 -23.55377,55.73722 -54.83116,57.43213 -3.42665,0.18568 -8.30691,0.0211 -10.84503,-0.36582 z m 22.20017,-17.22604 c 7.00584,-2.57545 11.16544,-5.24477 16.34937,-10.49178 16.18431,-16.38122 15.9983,-42.62239 -0.41889,-59.09793 -8.88969,-8.92128 -19.70319,-12.9618 -32.64067,-12.19635 -8.23602,0.48728 -13.99695,2.43702 -20.95863,7.09328 -17.44574,11.66842 -23.48055,35.05061 -13.9296,53.97094 3.817,7.56144 11.20554,14.93785 18.88836,18.85732 8.83727,4.50844 23.27873,5.33163 32.71006,1.86452 z"
       id="path2184"
       inkscape:connector-curvature="0"
       transform="matrix(0.26458333,0,0,0.26458333,0,201.74997)" />
    <path
       style="fill:url(#radialGradient2212);stroke:#1b1b1b;stroke-width:2.85714293;stroke-miterlimit:4;stroke-dasharray:none;stroke-opacity:1;fill-opacity:1"
       d="m 170.86841,257.17868 c -12.43325,-1.57358 -27.54386,-7.6291 -37.03376,-14.84115 -21.14773,-16.07166 -32.29985,-39.62553 -31.19799,-65.89175 1.49271,-35.58308 26.26079,-64.54236 62.10849,-72.61833 7.18865,-1.6195 23.28774,-1.5852 30.87521,0.0658 31.021,6.74994 54.83716,31.08058 60.70572,62.01709 1.37129,7.22887 1.38586,20.03042 0.0316,27.76332 -5.32445,30.40261 -29.35605,55.48294 -59.45432,62.04886 -7.4559,1.6265 -19.40743,2.29498 -26.03493,1.45618 z m 21.34465,-16.14663 c 19.12009,-3.94936 34.41409,-15.5988 43.06231,-32.80056 5.21941,-10.38165 6.6344,-16.39924 6.6344,-28.21429 0,-11.43466 -1.36328,-17.50168 -6.17937,-27.5 -10.31154,-21.40704 -31.67555,-34.64285 -55.91728,-34.64285 -24.54875,0 -46.5515,14.30516 -56.81348,36.93747 -6.84426,15.0947 -6.84426,35.31606 0,50.41077 8.59413,18.95395 26.37908,32.82331 46.42847,36.20665 5.79314,0.97759 17.08194,0.7808 22.78495,-0.39719 z"
       id="path2186"
       inkscape:connector-curvature="0"
       transform="matrix(0.26458333,0,0,0.26458333,0,201.74997)" />
    <path
       style="fill:url(#radialGradient2230);stroke:#1b1b1b;stroke-width:2.85714293;stroke-miterlimit:4;stroke-dasharray:none;stroke-opacity:1;fill-opacity:1"
       d="m 169.19179,277.10585 c -49.40361,-5.86802 -86.777295,-47.68266 -86.777295,-97.08865 0,-14.9905 3.177871,-28.58616 9.934014,-42.5 6.84456,-14.09591 15.732481,-25.13662 27.557561,-34.23243 9.95926,-7.66061 16.94272,-11.520741 27.72257,-15.323725 11.03174,-3.891849 19.48047,-5.304166 31.92029,-5.335904 16.49837,-0.04209 28.78737,2.687959 42.67705,9.480874 10.08034,4.92991 17.21507,9.912585 25.08345,17.517515 14.86114,14.36354 24.1412,31.04074 28.43914,51.10796 0.99198,4.63156 1.30036,9.20526 1.30036,19.28571 0,10.08046 -0.30838,14.65416 -1.30036,19.28572 -4.02025,18.7707 -12.32477,34.41269 -25.59857,48.21627 -14.11013,14.67329 -31.30589,24.14161 -51.18078,28.18114 -8.32887,1.69283 -21.94688,2.33561 -29.77743,1.40552 z m 24.30189,-15.99684 c 33.37388,-5.41309 59.99624,-31.03399 67.19078,-64.66323 1.78507,-8.34393 1.78507,-24.51322 0,-32.85715 -8.30751,-38.83159 -41.35269,-65.714283 -80.77839,-65.714283 -39.78408,0 -73.26611,27.794233 -80.821785,67.092093 -1.541333,8.01664 -1.541333,22.08489 0,30.10153 6.491115,33.76098 33.011775,60.0509 66.536075,65.95716 7.59004,1.3372 19.91735,1.3743 27.87332,0.0839 z"
       id="path2190"
       inkscape:connector-curvature="0"
       transform="matrix(0.26458333,0,0,0.26458333,0,201.74997)" />
  </g>
</svg>
