<?xml version="1.0" encoding="UTF-8" standalone="no"?>
<!-- Created with Inkscape (http://www.inkscape.org/) -->

<svg
   xmlns:dc="http://purl.org/dc/elements/1.1/"
   xmlns:cc="http://creativecommons.org/ns#"
   xmlns:rdf="http://www.w3.org/1999/02/22-rdf-syntax-ns#"
   xmlns:svg="http://www.w3.org/2000/svg"
   xmlns="http://www.w3.org/2000/svg"
   xmlns:xlink="http://www.w3.org/1999/xlink"
   xmlns:sodipodi="http://sodipodi.sourceforge.net/DTD/sodipodi-0.dtd"
   xmlns:inkscape="http://www.inkscape.org/namespaces/inkscape"
   width="360"
   height="360"
   viewBox="0 0 95.249998 95.250003"
   version="1.1"
   id="svg8"
   inkscape:version="0.92.4 5da689c313, 2019-01-14"
   sodipodi:docname="khon_r.svg">
  <defs
     id="defs2">
    <linearGradient
       inkscape:collect="always"
       id="linearGradient539">
      <stop
         style="stop-color:#ff5555;stop-opacity:1;"
         offset="0"
         id="stop535" />
      <stop
         style="stop-color:#aa0000;stop-opacity:1"
         offset="1"
         id="stop537" />
    </linearGradient>
    <linearGradient
       inkscape:collect="always"
       id="linearGradient531">
      <stop
         style="stop-color:#ff5555;stop-opacity:1;"
         offset="0"
         id="stop527" />
      <stop
         style="stop-color:#aa0000;stop-opacity:1"
         offset="1"
         id="stop529" />
    </linearGradient>
    <linearGradient
       inkscape:collect="always"
       xlink:href="#linearGradient531"
       id="linearGradient533"
       x1="180"
       y1="155"
       x2="180"
       y2="275"
       gradientUnits="userSpaceOnUse" />
    <linearGradient
       inkscape:collect="always"
       xlink:href="#linearGradient539"
       id="linearGradient541"
       x1="180"
       y1="70"
       x2="180"
       y2="135"
       gradientUnits="userSpaceOnUse" />
  </defs>
  <sodipodi:namedview
     id="base"
     pagecolor="#ffffff"
     bordercolor="#666666"
     borderopacity="1.0"
     inkscape:pageopacity="0.0"
     inkscape:pageshadow="2"
     inkscape:zoom="1.979899"
     inkscape:cx="98.87918"
     inkscape:cy="151.99501"
     inkscape:document-units="mm"
     inkscape:current-layer="layer1"
     showgrid="true"
     units="px"
     inkscape:window-width="1544"
     inkscape:window-height="907"
     inkscape:window-x="4"
     inkscape:window-y="48"
     inkscape:window-maximized="0">
    <inkscape:grid
       type="xygrid"
       id="grid3721" />
  </sodipodi:namedview>
  <metadata
     id="metadata5">
    <rdf:RDF>
      <cc:Work
         rdf:about="">
        <dc:format>image/svg+xml</dc:format>
        <dc:type
           rdf:resource="http://purl.org/dc/dcmitype/StillImage" />
        <dc:title></dc:title>
      </cc:Work>
    </rdf:RDF>
  </metadata>
  <g
     inkscape:label="Layer 1"
     inkscape:groupmode="layer"
     id="layer1"
     transform="translate(0,-201.74997)">
    <path
       style="fill:none;stroke:#000000;stroke-width:1.32291667;stroke-miterlimit:4;stroke-dasharray:none"
       d="M 47.624999,291.7083 H 31.75 l 0,-3.96875 h 15.875"
       id="path180"
       inkscape:connector-curvature="0" />
    <path
       style="fill:none;stroke:#000000;stroke-width:1.32291667;stroke-miterlimit:4;stroke-dasharray:none"
       d="m 31.75,287.73955 7.9375,-10.58333"
       id="path184"
       inkscape:connector-curvature="0" />
    <path
       style="fill:none;stroke:#000000;stroke-width:1.32291667;stroke-miterlimit:4;stroke-dasharray:none"
       d="M 47.624999,277.15622 H 39.6875 l -1.322917,-1.32292 1.322917,-1.32291 h 7.937499"
       id="path186"
       inkscape:connector-curvature="0" />
    <path
       style="fill:none;stroke:#000000;stroke-width:1.32291667;stroke-miterlimit:4;stroke-dasharray:none"
       d="m 39.6875,274.51039 c -9.675001,-9.58117 -16.711174,-19.85105 -7.9375,-31.75 h 15.875"
       id="path194"
       inkscape:connector-curvature="0"
       sodipodi:nodetypes="ccc" />
    <path
       style="fill:none;stroke:#000000;stroke-width:1.32291667;stroke-linecap:butt;stroke-linejoin:miter;stroke-opacity:1;stroke-miterlimit:4;stroke-dasharray:none"
       d="m 34.395833,242.76039 1.322917,-2.64584 11.90625,0"
       id="path196"
       inkscape:connector-curvature="0" />
    <path
       style="fill:none;stroke:#000000;stroke-width:1.32291667;stroke-linecap:butt;stroke-linejoin:miter;stroke-opacity:1;stroke-miterlimit:4;stroke-dasharray:none"
       d="m 38.364583,240.11455 1.322917,-2.64583 7.9375,0"
       id="path198"
       inkscape:connector-curvature="0" />
    <path
       style="fill:none;stroke:#000000;stroke-width:1.32291667;stroke-linecap:butt;stroke-linejoin:miter;stroke-opacity:1;stroke-miterlimit:4;stroke-dasharray:none"
       d="m 43.656249,237.46872 c 1.322262,-5.73325 1.061097,-12.95149 3.96875,-17.19792"
       id="path200"
       inkscape:connector-curvature="0"
       sodipodi:nodetypes="cc" />
    <path
       style="fill:none;stroke:#000000;stroke-width:1.32291667;stroke-miterlimit:4;stroke-dasharray:none"
       d="M 47.625001,291.7083 H 63.5 v -3.96875 H 47.625"
       id="path180-3"
       inkscape:connector-curvature="0" />
    <path
       style="fill:none;stroke:#000000;stroke-width:1.32291667;stroke-miterlimit:4;stroke-dasharray:none"
       d="M 63.5,287.73955 55.5625,277.15622"
       id="path184-6"
       inkscape:connector-curvature="0" />
    <path
       style="fill:none;stroke:#000000;stroke-width:1.32291667;stroke-miterlimit:4;stroke-dasharray:none"
       d="M 47.625001,277.15622 H 55.5625 l 1.322917,-1.32292 -1.322917,-1.32291 h -7.937499"
       id="path186-0"
       inkscape:connector-curvature="0" />
    <path
       style="fill:none;stroke:#000000;stroke-width:1.32291667;stroke-miterlimit:4;stroke-dasharray:none"
       d="m 55.5625,274.51039 c 9.675001,-9.58117 16.711174,-19.85105 7.9375,-31.75 H 47.625"
       id="path194-6"
       inkscape:connector-curvature="0"
       sodipodi:nodetypes="ccc" />
    <path
       style="fill:none;stroke:#000000;stroke-width:1.32291667;stroke-linecap:butt;stroke-linejoin:miter;stroke-opacity:1;stroke-miterlimit:4;stroke-dasharray:none"
       d="M 60.854167,242.76039 59.53125,240.11455 H 47.625"
       id="path196-2"
       inkscape:connector-curvature="0" />
    <path
       style="fill:none;stroke:#000000;stroke-width:1.32291667;stroke-linecap:butt;stroke-linejoin:miter;stroke-opacity:1;stroke-miterlimit:4;stroke-dasharray:none"
       d="M 56.885417,240.11455 55.5625,237.46872 H 47.625"
       id="path198-6"
       inkscape:connector-curvature="0" />
    <path
       style="fill:none;stroke:#000000;stroke-width:1.32291667;stroke-linecap:butt;stroke-linejoin:miter;stroke-opacity:1;stroke-miterlimit:4;stroke-dasharray:none"
       d="m 51.593751,237.46872 c -1.322262,-5.73325 -1.061097,-12.95149 -3.96875,-17.19792"
       id="path200-1"
       inkscape:connector-curvature="0"
       sodipodi:nodetypes="cc" />
    <path
       style="fill:url(#linearGradient533);stroke:#000000;stroke-width:5.00000006;fill-opacity:1;stroke-miterlimit:4;stroke-dasharray:none"
       d="m 142.13403,265.71439 c -8.62206,-9.19559 -12.01362,-13.16477 -17.16333,-20.08639 -9.56542,-12.85667 -15.61996,-25.43236 -18.09745,-37.58959 -1.21107,-5.94282 -1.33922,-15.92079 -0.28073,-21.85754 1.50484,-8.44023 5.83225,-18.66312 11.38099,-26.886 l 2.56436,-3.80021 h 59.48242 59.48242 l 2.62042,3.97203 c 8.72623,13.22724 12.64487,25.96048 12.06744,39.21199 -0.29642,6.80238 -1.16554,11.41948 -3.41156,18.12341 -5.15083,15.3742 -16.36979,31.83938 -34.55903,50.71955 l -6.422,6.66594 -29.87196,-0.0132 -29.87197,-0.0132 z"
       id="path487"
       inkscape:connector-curvature="0"
       transform="matrix(0.26458333,0,0,0.26458333,0,201.74997)" />
    <path
       style="fill:#ff5555;stroke:#000000;stroke-width:5.00000006;stroke-miterlimit:4;stroke-dasharray:none"
       d="m 133.25023,150.19136 2.12919,-4.29315 h 44.58105 44.58105 l 2.02595,4.0294 c 1.11426,2.21617 2.02594,4.14808 2.02594,4.29315 0,0.14506 -21.93128,0.26375 -48.73618,0.26375 h -48.73618 z"
       id="path489"
       inkscape:connector-curvature="0"
       transform="matrix(0.26458333,0,0,0.26458333,0,201.74997)" />
    <path
       style="fill:#ff5555;stroke:#000000;stroke-width:5.00000006;stroke-miterlimit:4;stroke-dasharray:none"
       d="m 148.40252,140.08983 2.12919,-4.29315 h 29.57438 29.57438 l 2.12918,4.29315 2.12918,4.29315 h -33.83274 -33.83275 z"
       id="path491"
       inkscape:connector-curvature="0"
       transform="matrix(0.26458333,0,0,0.26458333,0,201.74997)" />
    <path
       style="fill:url(#linearGradient541);stroke:#000000;stroke-width:5.00000006;fill-opacity:1;stroke-miterlimit:4;stroke-dasharray:none"
       d="m 166.1508,133.14503 c 0.37906,-1.41392 2.40441,-14.77332 4.11576,-27.14785 1.42201,-10.282319 2.70085,-16.897646 4.33049,-22.401159 1.44693,-4.886489 4.90032,-12.067692 5.59639,-11.637497 0.82137,0.507631 3.67398,6.969317 5.1409,11.645066 1.88722,6.015418 3.12996,12.729189 5.1584,27.86777 0.99239,7.4064 2.20689,15.56856 2.69888,18.13814 l 0.89453,4.67195 h -14.12001 -14.12001 z"
       id="path493"
       inkscape:connector-curvature="0"
       transform="matrix(0.26458333,0,0,0.26458333,0,201.74997)" />
    <path
       style="fill:#aa0000;stroke:#000000;stroke-width:5.00000006;stroke-miterlimit:4;stroke-dasharray:none"
       d="m 148.39045,282.1224 -2.12646,-2.16671 2.16668,-2.12644 2.16669,-2.12644 h 29.54895 29.54895 l 2.12646,2.16671 2.12647,2.1667 -2.16669,2.12644 -2.16669,2.12645 h -29.54895 -29.54895 z"
       id="path521"
       inkscape:connector-curvature="0"
       transform="matrix(0.26458333,0,0,0.26458333,0,201.74997)" />
    <path
       style="fill:#aa0000;stroke:#000000;stroke-width:5.00000006;stroke-miterlimit:4;stroke-dasharray:none"
       d="m 135.91191,304.99723 14.40493,-19.19289 h 29.67347 29.67348 l 13.88422,18.50374 c 7.63633,10.17705 14.06599,18.81386 14.28814,19.19289 0.34023,0.58052 -8.79744,0.68916 -57.96263,0.68916 h -58.36654 z"
       id="path523"
       inkscape:connector-curvature="0"
       transform="matrix(0.26458333,0,0,0.26458333,0,201.74997)" />
    <path
       style="fill:#aa0000;stroke:#000000;stroke-width:5.00000006;stroke-miterlimit:4;stroke-dasharray:none"
       d="m 120.50709,332.52389 v -6.81853 h 59.34646 59.34646 v 6.81853 6.81853 h -59.34646 -59.34646 z"
       id="path525"
       inkscape:connector-curvature="0"
       transform="matrix(0.26458333,0,0,0.26458333,0,201.74997)" />
  </g>
</svg>
