<?xml version="1.0" encoding="UTF-8" standalone="no"?>
<!-- Created with Inkscape (http://www.inkscape.org/) -->

<svg
   xmlns:dc="http://purl.org/dc/elements/1.1/"
   xmlns:cc="http://creativecommons.org/ns#"
   xmlns:rdf="http://www.w3.org/1999/02/22-rdf-syntax-ns#"
   xmlns:svg="http://www.w3.org/2000/svg"
   xmlns="http://www.w3.org/2000/svg"
   xmlns:xlink="http://www.w3.org/1999/xlink"
   xmlns:sodipodi="http://sodipodi.sourceforge.net/DTD/sodipodi-0.dtd"
   xmlns:inkscape="http://www.inkscape.org/namespaces/inkscape"
   width="360"
   height="360"
   viewBox="0 0 95.249998 95.250003"
   version="1.1"
   id="svg8"
   sodipodi:docname="biangai_r.svg"
   inkscape:version="0.92.4 5da689c313, 2019-01-14">
  <defs
     id="defs2">
    <linearGradient
       id="linearGradient5402"
       inkscape:collect="always">
      <stop
         id="stop5398"
         offset="0"
         style="stop-color:#ffd5d5;stop-opacity:1" />
      <stop
         style="stop-color:#ff5555;stop-opacity:1"
         offset="0.53125"
         id="stop5404" />
      <stop
         id="stop5400"
         offset="1"
         style="stop-color:#ffd5d5;stop-opacity:1" />
    </linearGradient>
    <linearGradient
       inkscape:collect="always"
       id="linearGradient5392">
      <stop
         style="stop-color:#ff5555;stop-opacity:1"
         offset="0"
         id="stop5388" />
      <stop
         style="stop-color:#800000;stop-opacity:1"
         offset="1"
         id="stop5390" />
    </linearGradient>
    <radialGradient
       inkscape:collect="always"
       xlink:href="#linearGradient5392"
       id="radialGradient5394"
       cx="180"
       cy="180.00017"
       fx="180"
       fy="180.00017"
       r="69.388469"
       gradientTransform="matrix(-1.5417256e-5,-2.5940909,2.5940912,1.2830498e-7,-286.93407,646.93635)"
       gradientUnits="userSpaceOnUse" />
    <radialGradient
       inkscape:collect="always"
       xlink:href="#linearGradient5402"
       id="radialGradient5396"
       cx="176.79201"
       cy="174.99785"
       fx="176.79201"
       fy="174.99785"
       r="99.447622"
       gradientTransform="matrix(4.0327882e-5,-1.608887,1.608887,-1.0581731e-7,-101.55891,464.43837)"
       gradientUnits="userSpaceOnUse" />
  </defs>
  <sodipodi:namedview
     id="base"
     pagecolor="#ffffff"
     bordercolor="#666666"
     borderopacity="1.0"
     inkscape:pageopacity="0.0"
     inkscape:pageshadow="2"
     inkscape:zoom="1.979899"
     inkscape:cx="136.64847"
     inkscape:cy="189.74383"
     inkscape:document-units="mm"
     inkscape:current-layer="layer1"
     showgrid="true"
     units="px"
     inkscape:window-width="1899"
     inkscape:window-height="944"
     inkscape:window-x="4"
     inkscape:window-y="48"
     inkscape:window-maximized="0">
    <inkscape:grid
       type="xygrid"
       id="grid3721" />
  </sodipodi:namedview>
  <metadata
     id="metadata5">
    <rdf:RDF>
      <cc:Work
         rdf:about="">
        <dc:format>image/svg+xml</dc:format>
        <dc:type
           rdf:resource="http://purl.org/dc/dcmitype/StillImage" />
        <dc:title />
      </cc:Work>
    </rdf:RDF>
  </metadata>
  <g
     inkscape:label="Layer 1"
     inkscape:groupmode="layer"
     id="layer1"
     transform="translate(0,-201.74997)">
    <path
       style="fill:none;stroke:#000000;stroke-width:0.26458332"
       id="path4194"
       sodipodi:type="arc"
       sodipodi:cx="47.625"
       sodipodi:cy="249.37497"
       sodipodi:rx="26.458332"
       sodipodi:ry="26.458332"
       sodipodi:start="3.1415927"
       sodipodi:end="3.1413309"
       sodipodi:open="true"
       d="M 21.166668,249.37497 A 26.458332,26.458332 0 0 1 47.62327,222.91664 26.458332,26.458332 0 0 1 74.083332,249.37151 26.458332,26.458332 0 0 1 47.630194,275.8333 26.458332,26.458332 0 0 1 21.166669,249.3819" />
    <path
       style="fill:none;stroke:#000000;stroke-width:0.26458332"
       id="path5378"
       sodipodi:type="arc"
       sodipodi:cx="47.625"
       sodipodi:cy="249.37497"
       sodipodi:rx="18.520834"
       sodipodi:ry="18.520834"
       sodipodi:start="3.1415927"
       sodipodi:end="3.1413309"
       sodipodi:open="true"
       d="M 29.104166,249.37497 A 18.520834,18.520834 0 0 1 47.623789,230.85414 18.520834,18.520834 0 0 1 66.145834,249.37255 18.520834,18.520834 0 0 1 47.628636,267.8958 18.520834,18.520834 0 0 1 29.104167,249.37982" />
    <path
       style="fill:url(#radialGradient5394);stroke:#000000;stroke-width:0.50507629;fill-opacity:1"
       d="m 170.06159,248.60936 c -36.42683,-5.76718 -62.1589,-38.20623 -58.99251,-74.36873 2.69635,-30.79434 24.43223,-55.31597 55.02135,-62.07308 6.98283,-1.54251 20.12906,-1.66797 26.75695,-0.25536 21.7915,4.64443 38.97698,17.55262 48.62492,36.52267 5.44122,10.69869 7.58037,19.48439 7.60521,31.23534 0.0307,14.52049 -3.63608,26.85114 -11.48042,38.60644 -9.76961,14.64045 -24.26063,24.71503 -41.92378,29.14665 -4.23997,1.0638 -6.55796,1.30625 -13.92551,1.45655 -4.86136,0.0992 -10.12015,-0.0225 -11.68621,-0.27048 z"
       id="path5384"
       inkscape:connector-curvature="0"
       transform="matrix(0.26458333,0,0,0.26458333,0,201.74997)" />
    <path
       style="fill:url(#radialGradient5396);stroke:#000000;stroke-width:5.00000006;fill-opacity:1;stroke-miterlimit:4;stroke-dasharray:none"
       d="M 171.39373,278.86796 C 145.89362,276.7806 120.81285,263.78051 104.28816,244.08522 81.925709,217.43207 74.967224,181.52625 85.833785,148.86055 97.838694,112.77288 128.98515,86.953971 166.90163,81.659221 c 7.2322,-1.009922 23.32772,-0.773051 29.74592,0.437758 12.53365,2.364505 23.3607,6.332181 33.39606,12.238305 43.29281,25.479176 60.82511,78.816526 41.05362,124.894686 -14.47149,33.72634 -46.63649,56.71525 -83.48813,59.67049 -7.18467,0.57616 -8.81988,0.57288 -16.21537,-0.0325 z m 23.23351,-29.68115 c 13.14244,-2.90705 24.47558,-8.89998 33.98261,-17.96991 5.90242,-5.63105 10.32878,-11.48596 13.94436,-18.44471 5.54197,-10.66641 8.00559,-20.90204 7.96732,-33.10199 -0.034,-10.84947 -2.1098,-20.35803 -6.44549,-29.52513 -9.77349,-20.66449 -28.74125,-35.3711 -51.21657,-39.71068 -6.49384,-1.25384 -19.15659,-1.26319 -25.48802,-0.0188 -28.69245,5.6392 -50.3352,26.61998 -56.59086,54.85994 -1.25901,5.6836 -1.58144,20.23429 -0.57638,26.01143 1.79339,10.30849 5.63347,19.97295 11.32098,28.4919 1.59586,2.39033 5.39077,6.84805 8.45218,9.9284 11.63502,11.70705 24.45331,18.01057 41.92144,20.61528 3.80508,0.56739 18.30432,-0.15713 22.72843,-1.13572 z"
       id="path5386"
       inkscape:connector-curvature="0"
       transform="matrix(0.26458333,0,0,0.26458333,0,201.74997)" />
  </g>
</svg>
