<?xml version="1.0" encoding="UTF-8" standalone="no"?>
<!-- Created with Inkscape (http://www.inkscape.org/) -->

<svg
   xmlns:dc="http://purl.org/dc/elements/1.1/"
   xmlns:cc="http://creativecommons.org/ns#"
   xmlns:rdf="http://www.w3.org/1999/02/22-rdf-syntax-ns#"
   xmlns:svg="http://www.w3.org/2000/svg"
   xmlns="http://www.w3.org/2000/svg"
   xmlns:xlink="http://www.w3.org/1999/xlink"
   xmlns:sodipodi="http://sodipodi.sourceforge.net/DTD/sodipodi-0.dtd"
   xmlns:inkscape="http://www.inkscape.org/namespaces/inkscape"
   width="360"
   height="360"
   viewBox="0 0 95.249998 95.250003"
   version="1.1"
   id="svg8"
   inkscape:version="0.92.4 5da689c313, 2019-01-14"
   sodipodi:docname="khon_w.svg">
  <defs
     id="defs2">
    <linearGradient
       inkscape:collect="always"
       id="linearGradient924">
      <stop
         style="stop-color:#fff6d5;stop-opacity:1;"
         offset="0"
         id="stop920" />
      <stop
         style="stop-color:#ffeeaa;stop-opacity:1"
         offset="1"
         id="stop922" />
    </linearGradient>
    <linearGradient
       inkscape:collect="always"
       id="linearGradient916">
      <stop
         style="stop-color:#fff6d5;stop-opacity:1;"
         offset="0"
         id="stop912" />
      <stop
         style="stop-color:#ffeeaa;stop-opacity:1"
         offset="1"
         id="stop914" />
    </linearGradient>
    <linearGradient
       inkscape:collect="always"
       xlink:href="#linearGradient916"
       id="linearGradient918"
       x1="180"
       y1="155"
       x2="180"
       y2="275"
       gradientUnits="userSpaceOnUse"
       gradientTransform="matrix(0.26458333,0,0,0.26458333,0,204.39581)" />
    <linearGradient
       inkscape:collect="always"
       xlink:href="#linearGradient924"
       id="linearGradient926"
       x1="180"
       y1="70"
       x2="180"
       y2="135"
       gradientUnits="userSpaceOnUse"
       gradientTransform="matrix(0.26458333,0,0,0.26458333,0,204.39581)" />
  </defs>
  <sodipodi:namedview
     id="base"
     pagecolor="#ffffff"
     bordercolor="#666666"
     borderopacity="1.0"
     inkscape:pageopacity="0.0"
     inkscape:pageshadow="2"
     inkscape:zoom="1.979899"
     inkscape:cx="7.2184795"
     inkscape:cy="151.97741"
     inkscape:document-units="mm"
     inkscape:current-layer="layer1"
     showgrid="true"
     units="px"
     inkscape:window-width="1911"
     inkscape:window-height="987"
     inkscape:window-x="4"
     inkscape:window-y="48"
     inkscape:window-maximized="0">
    <inkscape:grid
       type="xygrid"
       id="grid3721" />
  </sodipodi:namedview>
  <metadata
     id="metadata5">
    <rdf:RDF>
      <cc:Work
         rdf:about="">
        <dc:format>image/svg+xml</dc:format>
        <dc:type
           rdf:resource="http://purl.org/dc/dcmitype/StillImage" />
        <dc:title />
      </cc:Work>
    </rdf:RDF>
  </metadata>
  <g
     inkscape:label="Layer 1"
     inkscape:groupmode="layer"
     id="layer1"
     transform="translate(0,-201.74997)">
    <path
       style="fill:none;stroke:#000000;stroke-width:1.05833328;stroke-miterlimit:4;stroke-dasharray:none"
       d="M 47.624999,294.35414 H 31.75 v -3.96875 h 15.875"
       id="path180"
       inkscape:connector-curvature="0" />
    <path
       style="fill:none;stroke:#000000;stroke-width:1.05833328;stroke-miterlimit:4;stroke-dasharray:none"
       d="m 31.75,290.38539 7.9375,-10.58333"
       id="path184"
       inkscape:connector-curvature="0" />
    <path
       style="fill:none;stroke:#000000;stroke-width:1.05833328;stroke-miterlimit:4;stroke-dasharray:none"
       d="M 47.624999,279.80206 H 39.6875 l -1.322917,-1.32292 1.322917,-1.32291 h 7.937499"
       id="path186"
       inkscape:connector-curvature="0" />
    <path
       style="fill:none;stroke:#000000;stroke-width:1.05833328;stroke-miterlimit:4;stroke-dasharray:none"
       d="m 39.6875,277.15623 c -9.675001,-9.58117 -16.711174,-19.85105 -7.9375,-31.75 h 15.875"
       id="path194"
       inkscape:connector-curvature="0"
       sodipodi:nodetypes="ccc" />
    <path
       style="fill:none;stroke:#000000;stroke-width:1.05833328;stroke-linecap:butt;stroke-linejoin:miter;stroke-miterlimit:4;stroke-dasharray:none;stroke-opacity:1"
       d="m 34.395833,245.40623 1.322917,-2.64584 H 47.625"
       id="path196"
       inkscape:connector-curvature="0" />
    <path
       style="fill:none;stroke:#000000;stroke-width:1.05833328;stroke-linecap:butt;stroke-linejoin:miter;stroke-miterlimit:4;stroke-dasharray:none;stroke-opacity:1"
       d="M 38.364583,242.76039 39.6875,240.11456 H 47.625"
       id="path198"
       inkscape:connector-curvature="0" />
    <path
       style="fill:none;stroke:#000000;stroke-width:1.05833328;stroke-linecap:butt;stroke-linejoin:miter;stroke-miterlimit:4;stroke-dasharray:none;stroke-opacity:1"
       d="m 43.656249,240.11456 c 1.322262,-5.73325 1.061097,-12.95149 3.96875,-17.19792"
       id="path200"
       inkscape:connector-curvature="0"
       sodipodi:nodetypes="cc" />
    <path
       style="fill:none;stroke:#000000;stroke-width:1.05833328;stroke-miterlimit:4;stroke-dasharray:none"
       d="M 47.625001,294.35414 H 63.5 v -3.96875 H 47.625"
       id="path180-3"
       inkscape:connector-curvature="0" />
    <path
       style="fill:none;stroke:#000000;stroke-width:1.05833328;stroke-miterlimit:4;stroke-dasharray:none"
       d="M 63.5,290.38539 55.5625,279.80206"
       id="path184-6"
       inkscape:connector-curvature="0" />
    <path
       style="fill:none;stroke:#000000;stroke-width:1.05833328;stroke-miterlimit:4;stroke-dasharray:none"
       d="M 47.625001,279.80206 H 55.5625 l 1.322917,-1.32292 -1.322917,-1.32291 h -7.937499"
       id="path186-0"
       inkscape:connector-curvature="0" />
    <path
       style="fill:none;stroke:#000000;stroke-width:1.05833328;stroke-miterlimit:4;stroke-dasharray:none"
       d="m 55.5625,277.15623 c 9.675001,-9.58117 16.711174,-19.85105 7.9375,-31.75 H 47.625"
       id="path194-6"
       inkscape:connector-curvature="0"
       sodipodi:nodetypes="ccc" />
    <path
       style="fill:none;stroke:#000000;stroke-width:1.05833328;stroke-linecap:butt;stroke-linejoin:miter;stroke-miterlimit:4;stroke-dasharray:none;stroke-opacity:1"
       d="M 60.854167,245.40623 59.53125,242.76039 H 47.625"
       id="path196-2"
       inkscape:connector-curvature="0" />
    <path
       style="fill:none;stroke:#000000;stroke-width:1.05833328;stroke-linecap:butt;stroke-linejoin:miter;stroke-miterlimit:4;stroke-dasharray:none;stroke-opacity:1"
       d="M 56.885417,242.76039 55.5625,240.11456 H 47.625"
       id="path198-6"
       inkscape:connector-curvature="0" />
    <path
       style="fill:none;stroke:#000000;stroke-width:1.05833328;stroke-linecap:butt;stroke-linejoin:miter;stroke-miterlimit:4;stroke-dasharray:none;stroke-opacity:1"
       d="m 51.593751,240.11456 c -1.322262,-5.73325 -1.061097,-12.95149 -3.96875,-17.19792"
       id="path200-1"
       inkscape:connector-curvature="0"
       sodipodi:nodetypes="cc" />
    <path
       style="fill:url(#linearGradient926);fill-opacity:1;stroke:#1b1b1b;stroke-width:0.13631904;stroke-miterlimit:4;stroke-dasharray:none;stroke-opacity:1"
       d="m 44.453603,239.19613 c 0.15552,-0.70513 0.365353,-2.11212 0.802169,-5.3788 0.663639,-4.96291 1.120794,-7.0282 1.96709,-8.88671 l 0.395539,-0.86862 0.212024,0.39936 c 0.779258,1.46779 1.457298,4.22474 1.972336,8.01963 0.406,2.99147 0.861301,6.13028 0.964377,6.64832 l 0.07312,0.3675 h -3.226485 -3.226485 z"
       id="path890"
       inkscape:connector-curvature="0" />
    <path
       style="fill:#fff6d5;stroke:#1b1b1b;stroke-width:0.13631904;stroke-miterlimit:4;stroke-dasharray:none;stroke-opacity:1"
       d="m 39.677636,241.43451 0.360473,-0.73499 h 7.587091 7.587094 l 0.336336,0.66373 c 0.184989,0.36506 0.336338,0.6958 0.336338,0.735 0,0.0392 -3.727754,0.0713 -8.283903,0.0713 h -8.283903 z"
       id="path892"
       inkscape:connector-curvature="0" />
    <path
       style="fill:#fff6d5;stroke:#1b1b1b;stroke-width:0.13631904;stroke-miterlimit:4;stroke-dasharray:none;stroke-opacity:1"
       d="m 35.438852,244.77094 c 0,-0.0392 0.15135,-0.36994 0.336336,-0.73499 l 0.336338,-0.66373 h 11.529319 11.529317 l 0.360473,0.73499 0.360474,0.73499 H 47.664981 c -6.724373,0 -12.226129,-0.0321 -12.226129,-0.0713 z"
       id="path894"
       inkscape:connector-curvature="0" />
    <path
       style="fill:url(#linearGradient918);fill-opacity:1;stroke:#1b1b1b;stroke-width:0.13631904;stroke-miterlimit:4;stroke-dasharray:none;stroke-opacity:1"
       d="m 38.060627,274.60934 c -5.433311,-5.72286 -8.382968,-10.46554 -9.378011,-15.07866 -0.117557,-0.545 -0.245184,-1.71254 -0.283617,-2.59453 -0.144471,-3.31546 0.761783,-6.41017 2.843099,-9.70872 l 0.746143,-1.18252 h 15.618341 15.61834 l 0.519653,0.7684 c 3.209607,4.746 3.95193,9.96101 2.148321,15.0925 -1.369856,3.89741 -4.30558,8.14148 -9.018442,13.03762 l -1.511429,1.57021 H 47.6158 39.868575 Z"
       id="path896"
       inkscape:connector-curvature="0" />
    <path
       style="fill:#ffeeaa;stroke:#1b1b1b;stroke-width:0.13631904;stroke-miterlimit:4;stroke-dasharray:none;stroke-opacity:1"
       d="m 39.539166,278.81096 -0.359635,-0.37538 0.375354,-0.35962 0.375354,-0.35961 h 7.685095 7.685093 l 0.359635,0.37538 0.359635,0.37538 -0.375354,0.35961 -0.375354,0.35961 h -7.685095 -7.685093 z"
       id="path898"
       inkscape:connector-curvature="0" />
    <path
       style="fill:#ffeeaa;stroke:#1b1b1b;stroke-width:0.13631904;stroke-miterlimit:4;stroke-dasharray:none;stroke-opacity:1"
       d="m 33.11856,289.57644 c 0.0555,-0.0919 1.623255,-2.19663 3.483903,-4.67722 l 3.382994,-4.51017 7.649078,0.006 7.649078,0.006 3.407687,4.55648 c 1.874227,2.50607 3.42773,4.60832 3.452231,4.67167 0.02476,0.0641 -6.429653,0.11518 -14.540667,0.11518 -11.632898,0 -14.564785,-0.0338 -14.484304,-0.16704 z"
       id="path900"
       inkscape:connector-curvature="0" />
    <path
       style="fill:#ffeeaa;stroke:#1b1b1b;stroke-width:0.13631904;stroke-miterlimit:4;stroke-dasharray:none;stroke-opacity:1"
       d="m 32.365251,292.34936 v -1.40317 h 15.30118 15.301182 v 1.40317 1.40316 H 47.666431 32.365251 Z"
       id="path902"
       inkscape:connector-curvature="0" />
  </g>
</svg>
