<?xml version="1.0" encoding="UTF-8" standalone="no"?>
<!-- Created with Inkscape (http://www.inkscape.org/) -->

<svg
   xmlns:dc="http://purl.org/dc/elements/1.1/"
   xmlns:cc="http://creativecommons.org/ns#"
   xmlns:rdf="http://www.w3.org/1999/02/22-rdf-syntax-ns#"
   xmlns:svg="http://www.w3.org/2000/svg"
   xmlns="http://www.w3.org/2000/svg"
   xmlns:xlink="http://www.w3.org/1999/xlink"
   xmlns:sodipodi="http://sodipodi.sourceforge.net/DTD/sodipodi-0.dtd"
   xmlns:inkscape="http://www.inkscape.org/namespaces/inkscape"
   width="360"
   height="360"
   viewBox="0 0 95.249998 95.250003"
   version="1.1"
   id="svg8"
   inkscape:version="0.92.4 5da689c313, 2019-01-14"
   sodipodi:docname="ma_w.svg">
  <defs
     id="defs2">
    <linearGradient
       inkscape:collect="always"
       id="linearGradient1665">
      <stop
         style="stop-color:#fff6d5;stop-opacity:1;"
         offset="0"
         id="stop1661" />
      <stop
         style="stop-color:#ffeeaa;stop-opacity:1"
         offset="1"
         id="stop1663" />
    </linearGradient>
    <linearGradient
       inkscape:collect="always"
       id="linearGradient1657">
      <stop
         style="stop-color:#fff6d5;stop-opacity:1;"
         offset="0"
         id="stop1653" />
      <stop
         style="stop-color:#ffeeaa;stop-opacity:1"
         offset="1"
         id="stop1655" />
    </linearGradient>
    <linearGradient
       inkscape:collect="always"
       id="linearGradient1649">
      <stop
         style="stop-color:#fff6d5;stop-opacity:1;"
         offset="0"
         id="stop1645" />
      <stop
         style="stop-color:#ffeeaa;stop-opacity:1"
         offset="1"
         id="stop1647" />
    </linearGradient>
    <linearGradient
       inkscape:collect="always"
       xlink:href="#linearGradient1649"
       id="linearGradient1651"
       x1="180"
       y1="110"
       x2="180"
       y2="320"
       gradientUnits="userSpaceOnUse" />
    <linearGradient
       inkscape:collect="always"
       xlink:href="#linearGradient1657"
       id="linearGradient1659"
       x1="80"
       y1="125"
       x2="150"
       y2="190"
       gradientUnits="userSpaceOnUse" />
    <linearGradient
       inkscape:collect="always"
       xlink:href="#linearGradient1665"
       id="linearGradient1667"
       x1="120"
       y1="55"
       x2="270"
       y2="220"
       gradientUnits="userSpaceOnUse" />
  </defs>
  <sodipodi:namedview
     id="base"
     pagecolor="#ffffff"
     bordercolor="#666666"
     borderopacity="1.0"
     inkscape:pageopacity="0.0"
     inkscape:pageshadow="2"
     inkscape:zoom="1.979899"
     inkscape:cx="2.1180029"
     inkscape:cy="184.76036"
     inkscape:document-units="mm"
     inkscape:current-layer="layer1"
     showgrid="true"
     units="px"
     inkscape:window-width="1861"
     inkscape:window-height="974"
     inkscape:window-x="128"
     inkscape:window-y="98"
     inkscape:window-maximized="0">
    <inkscape:grid
       type="xygrid"
       id="grid3721" />
  </sodipodi:namedview>
  <metadata
     id="metadata5">
    <rdf:RDF>
      <cc:Work
         rdf:about="">
        <dc:format>image/svg+xml</dc:format>
        <dc:type
           rdf:resource="http://purl.org/dc/dcmitype/StillImage" />
        <dc:title></dc:title>
      </cc:Work>
    </rdf:RDF>
  </metadata>
  <g
     inkscape:label="Layer 1"
     inkscape:groupmode="layer"
     id="layer1"
     transform="translate(0,-201.74997)">
    <path
       style="fill:none;stroke:#1b1b1b;stroke-width:1.05833333;stroke-miterlimit:4;stroke-dasharray:none;stroke-opacity:1"
       d="m 29.104166,294.35414 h 37.041666 l 10e-7,-5.29167 H 29.104167 Z"
       id="path360"
       inkscape:connector-curvature="0"
       sodipodi:nodetypes="ccccc" />
    <path
       style="fill:none;stroke:#1b1b1b;stroke-width:1.05833333;stroke-miterlimit:4;stroke-dasharray:none;stroke-opacity:1"
       d="m 29.104167,289.06247 -2.645834,-2.64583 h 42.333334 l -2.645834,2.64583"
       id="path362"
       inkscape:connector-curvature="0"
       sodipodi:nodetypes="cccc" />
    <path
       style="fill:none;stroke:#1b1b1b;stroke-width:1.05833333;stroke-miterlimit:4;stroke-dasharray:none;stroke-opacity:1"
       d="m 23.8125,266.57289 c -5.771151,-4.25017 -3.599608,-17.22033 -2.645833,-25.13542 0.725977,-6.84745 -0.915877,-11.09459 3.96875,-15.875 16.517104,2.74281 29.488985,4.20221 17.197916,19.84376 -1.048643,12.03423 -16.404167,14.28749 -19.84375,23.81249 -0.750285,3.63851 0.793709,13.78733 3.96875,17.19792"
       id="path374"
       inkscape:connector-curvature="0"
       sodipodi:nodetypes="cccccc" />
    <path
       style="fill:none;stroke:#1b1b1b;stroke-width:1.05833333;stroke-miterlimit:4;stroke-dasharray:none;stroke-opacity:1"
       d="m 25.135417,263.92705 c -2.313746,-1.22069 -2.682759,-3.18748 -2.645834,-5.29167 1.590677,1.05914 2.468914,2.82671 2.645834,5.29167 z"
       id="path4074"
       inkscape:connector-curvature="0"
       sodipodi:nodetypes="ccc" />
    <path
       style="fill:none;stroke:#1b1b1b;stroke-width:1.05833333;stroke-miterlimit:4;stroke-dasharray:none;stroke-opacity:1"
       d="m 23.283334,238.12951 c 1.322917,-6.61458 3.96875,-9.26042 10.583333,-9.26042"
       id="path4076"
       inkscape:connector-curvature="0"
       sodipodi:nodetypes="cc" />
    <path
       style="fill:none;stroke:#1b1b1b;stroke-width:1.05833333;stroke-miterlimit:4;stroke-dasharray:none;stroke-opacity:1"
       d="m 34.660418,230.72117 c -4.232822,0.18395 -7.976363,1.40723 -9.260417,7.9375 8.434992,0.97492 7.997598,-4.05682 9.260417,-7.9375"
       id="path4078"
       inkscape:connector-curvature="0"
       sodipodi:nodetypes="ccc" />
    <path
       style="fill:none;stroke:#1b1b1b;stroke-width:1.05833333;stroke-miterlimit:4;stroke-dasharray:none;stroke-opacity:1"
       d="m 68.791667,286.41664 c 3.356098,-3.73312 4.625848,-13.7845 3.96875,-17.19792"
       id="path4080"
       inkscape:connector-curvature="0"
       sodipodi:nodetypes="cc" />
    <path
       style="fill:none;stroke:#1b1b1b;stroke-width:1.05833333;stroke-miterlimit:4;stroke-dasharray:none;stroke-opacity:1"
       id="path4084"
       sodipodi:type="arc"
       sodipodi:cx="29.765625"
       sodipodi:cy="235.35139"
       sodipodi:rx="2.5135417"
       sodipodi:ry="2.5135417"
       sodipodi:start="3.1415927"
       sodipodi:end="3.1413309"
       sodipodi:open="true"
       d="m 27.252083,235.35139 a 2.5135417,2.5135417 0 0 1 2.513378,-2.51354 2.5135417,2.5135417 0 0 1 2.513706,2.51322 2.5135417,2.5135417 0 0 1 -2.513049,2.51387 2.5135417,2.5135417 0 0 1 -2.514035,-2.51289" />
    <path
       style="fill:none;stroke:#1b1b1b;stroke-width:1.05833333;stroke-miterlimit:4;stroke-dasharray:none;stroke-opacity:1"
       d="m 23.8125,226.88539 c -0.788163,-3.14354 -0.618622,-6.21815 0,-9.26042 l 11.90625,-1.32291 c 19.19941,3.63653 36.460944,17.69483 37.041667,52.91666"
       id="path4086"
       inkscape:connector-curvature="0"
       sodipodi:nodetypes="cccc" />
    <path
       style="fill:none;stroke:#1b1b1b;stroke-width:1.05833333;stroke-miterlimit:4;stroke-dasharray:none;stroke-opacity:1"
       d="m 23.8125,217.62497 c -2.237255,-4.23651 -1.951851,-10.40633 0,-13.22917 4.678818,2.15931 9.774097,7.19007 11.90625,11.90626"
       id="path4088"
       inkscape:connector-curvature="0"
       sodipodi:nodetypes="ccc" />
    <path
       style="fill:none;stroke:#1b1b1b;stroke-width:1.05833333;stroke-miterlimit:4;stroke-dasharray:none;stroke-opacity:1"
       d="m 25.664583,217.62497 c -1.485365,-3.54827 -1.5875,-7.9375 -1.058333,-10.84792 3.439583,2.38125 6.35,5.29167 8.995833,9.52501"
       id="path4088-3"
       inkscape:connector-curvature="0"
       sodipodi:nodetypes="ccc" />
    <path
       style="fill:none;stroke:#1b1b1b;stroke-width:1.05833333;stroke-miterlimit:4;stroke-dasharray:none;stroke-opacity:1"
       d="m 26.458333,217.62497 c 3.632283,3.52901 7.049632,7.93273 14.552083,9.26042 2.699243,2.62818 5.751455,2.9246 7.9375,5.29166 4.337556,8.659 7.235527,20.52022 11.906251,23.8125 4.950742,5.35627 9.35332,7.1947 11.90625,10.58334"
       id="path4127"
       inkscape:connector-curvature="0"
       sodipodi:nodetypes="ccccc" />
    <path
       style="fill:none;stroke:#1b1b1b;stroke-width:1.05833333;stroke-miterlimit:4;stroke-dasharray:none;stroke-opacity:1"
       d="m 60.854166,255.98955 c -0.981573,-4.01628 -1.893295,-8.02642 -1.322917,-11.90625"
       id="path4129"
       inkscape:connector-curvature="0"
       sodipodi:nodetypes="cc" />
    <path
       style="fill:none;stroke:#1b1b1b;stroke-width:1.05833333;stroke-miterlimit:4;stroke-dasharray:none;stroke-opacity:1"
       d="m 54.239583,244.0833 c -1.488701,-3.8819 -1.667961,-7.32122 -1.322917,-10.58333"
       id="path4131"
       inkscape:connector-curvature="0"
       sodipodi:nodetypes="cc" />
    <path
       style="fill:none;stroke:#1b1b1b;stroke-width:1.05833333;stroke-miterlimit:4;stroke-dasharray:none;stroke-opacity:1"
       d="m 47.624999,230.85414 c -1.799379,-1.28631 -3.458757,-2.84253 -3.96875,-6.61459"
       id="path4133"
       inkscape:connector-curvature="0"
       sodipodi:nodetypes="cc" />
    <path
       style="fill:url(#linearGradient1651);stroke:#1b1b1b;stroke-width:0.5152216;stroke-miterlimit:4;stroke-dasharray:none;stroke-opacity:1;fill-opacity:1"
       d="m 99.486484,315.6678 c -1.885219,-2.74007 -4.978299,-9.29597 -6.488056,-13.75168 -4.241565,-12.51802 -7.155952,-31.85313 -6.327028,-41.97581 0.297352,-3.63121 0.6731,-4.89807 2.586287,-8.71984 2.772128,-5.5376 6.644455,-10.45358 12.772703,-16.21516 4.45155,-4.1852 8.47064,-7.32962 24.7901,-19.39509 22.44381,-16.59338 31.97883,-29.22367 34.81908,-46.12208 0.53187,-3.16442 0.98748,-4.24371 2.77182,-6.56599 3.55342,-4.62474 8.31394,-12.11811 10.66407,-16.78597 7.5418,-14.9796 7.18354,-26.53918 -1.08282,-34.93868 -1.529,-1.55362 -2.59429,-2.82477 -2.36731,-2.82477 0.78838,0 7.95217,4.63084 9.6301,6.22512 2.84908,2.70703 5.97716,9.57532 17.85137,39.19613 10.86735,27.10916 15.48425,36.7462 21.32192,44.50612 2.82016,3.74879 16.04339,16.6613 23.03558,22.49428 2.35879,1.96775 7.81163,6.27633 12.1174,9.57462 4.30578,3.2983 9.91113,8.05229 12.45635,10.56442 l 4.62766,4.56752 0.35602,11.41146 c 0.3817,12.2339 0.21502,15.40593 -1.32194,25.15751 -2.14101,13.5842 -5.90913,25.19947 -10.56817,32.57655 l -2.10493,3.33292 h -78.9749 -78.9749 z"
       id="path951"
       inkscape:connector-curvature="0"
       transform="matrix(0.26458333,0,0,0.26458333,0,201.74997)" />
    <path
       style="fill:#fff6d5;stroke:#1b1b1b;stroke-width:0.5152216;stroke-miterlimit:4;stroke-dasharray:none;stroke-opacity:1"
       d="m 156.53884,100.79998 c -0.44304,-0.25903 -3.96595,-1.395347 -7.82868,-2.525147 -8.39964,-2.456786 -21.76908,-5.20879 -40.55691,-8.348355 L 94.317476,87.614432 92.9301,88.943623 c -1.026789,0.983727 -1.489483,1.163979 -1.780237,0.693529 -0.70367,-1.138563 -0.885373,-15.849035 -0.25946,-21.005594 0.8425,-6.940892 0.606145,-6.545537 4.153014,-6.94682 l 3.078772,-0.348323 8.145351,8.018331 c 4.47994,4.410082 9.58425,9.202981 11.34292,10.650886 9.54039,7.854573 20.59738,13.394033 32.32708,16.195593 3.16441,0.7558 4.59845,1.40628 6.37607,2.892192 1.2614,1.054393 2.29345,1.982593 2.29345,2.062663 0,0.31454 -1.30567,0.0897 -2.06822,-0.3561 z"
       id="path953"
       inkscape:connector-curvature="0"
       transform="matrix(0.26458333,0,0,0.26458333,0,201.74997)" />
    <path
       style="fill:url(#linearGradient1667);stroke:#1b1b1b;stroke-width:0.5152216;stroke-miterlimit:4;stroke-dasharray:none;stroke-opacity:1;fill-opacity:1"
       d="m 269.48999,235.80752 c -1.38896,-1.22632 -7.29835,-5.96443 -13.13198,-10.52912 -10.24282,-8.01479 -19.61901,-16.21669 -22.92991,-20.05812 -1.37605,-1.59655 -1.8336,-2.9306 -3.32854,-9.70493 -2.75913,-12.50295 -3.39728,-17.94166 -3.20531,-27.31731 l 0.16933,-8.27037 -2.0203,-0.21189 c -1.11117,-0.11653 -2.13395,-0.11566 -2.27285,0.002 -0.13889,0.11761 -0.24798,4.68359 -0.24241,10.14663 0.0101,9.91873 0.56023,15.01206 2.59051,23.98427 0.42874,1.89468 0.6652,3.55918 0.52548,3.6989 -0.52941,0.52941 -6.64332,-9.44903 -9.94747,-16.23513 -4.78131,-9.81994 -9.05536,-20.17028 -9.01704,-21.83629 0.0177,-0.76847 -0.66833,-3.62637 -1.52444,-6.35087 -2.60659,-8.29527 -3.28073,-13.15411 -3.28344,-23.66544 l -0.003,-9.4262 -1.79747,-0.2305 c -0.98861,-0.12678 -1.9877,-0.0586 -2.2202,0.15145 -0.2325,0.21007 -0.45211,4.14657 -0.48803,8.74777 -0.0359,4.60119 -0.0957,8.32026 -0.13283,8.26459 -0.037,-0.0558 -1.61183,-3.73786 -3.49943,-8.18253 -5.69226,-13.40338 -6.74002,-15.21493 -10.9457,-18.92467 -10.23511,-9.02821 -13.00168,-13.014486 -14.82098,-21.35516 -0.8901,-4.08074 -0.96182,-4.150251 -3.7138,-3.599853 -1.26922,0.253843 -1.53091,0.521685 -1.35705,1.38896 1.04233,5.199551 2.10418,8.71824 3.49569,11.583722 0.90284,1.859191 1.54386,3.380351 1.42448,3.380351 -0.61836,0 -6.65453,-3.990652 -9.12737,-6.034317 -2.4612,-2.03404 -3.40932,-2.466407 -7.13172,-3.252249 -4.57097,-0.964985 -12.25249,-3.652701 -16.41498,-5.743501 -3.81743,-1.917477 -10.11686,-6.058606 -13.84398,-9.100779 -5.45766,-4.454675 -17.31307,-15.88186 -16.87089,-16.261496 0.22566,-0.193742 7.22882,-1.083879 15.56258,-1.978081 14.65691,-1.572669 15.27478,-1.599806 18.89877,-0.83004 14.79434,3.142443 28.73536,7.994473 41.96292,14.60476 34.94276,17.462156 60.13643,46.251093 75.41261,86.174393 8.00932,20.93183 13.32753,46.22448 15.45223,73.4886 0.23813,3.05571 0.40337,5.591 0.3672,5.63398 -0.0362,0.043 -1.20219,-0.92522 -2.59115,-2.15155 z"
       id="path955"
       inkscape:connector-curvature="0"
       transform="matrix(0.26458333,0,0,0.26458333,0,201.74997)" />
    <path
       style="fill:#ffeeaa;stroke:#1b1b1b;stroke-width:0.5152216;stroke-miterlimit:4;stroke-dasharray:none;stroke-opacity:1"
       d="m 108.37066,325.00658 -2.48741,-2.52538 h 74.20824 74.20824 l -2.48741,2.52538 -2.48741,2.52538 h -69.23342 -69.23342 z"
       id="path957"
       inkscape:connector-curvature="0"
       transform="matrix(0.26458333,0,0,0.26458333,0,201.74997)" />
    <path
       style="fill:#ffeeaa;stroke:#1b1b1b;stroke-width:0.5152216;stroke-miterlimit:4;stroke-dasharray:none;stroke-opacity:1"
       d="m 112.15873,339.90633 v -7.82868 h 67.68022 67.68022 v 7.82868 7.82869 h -67.68022 -67.68022 z"
       id="path959"
       inkscape:connector-curvature="0"
       transform="matrix(0.26458333,0,0,0.26458333,0,201.74997)" />
    <path
       style="fill:url(#linearGradient1659);stroke:#1b1b1b;stroke-width:0.5152216;stroke-miterlimit:4;stroke-dasharray:none;stroke-opacity:1;fill-opacity:1"
       d="m 87.461971,239.39404 c -1.180732,-1.28094 -3.038947,-4.19097 -4.129367,-6.46673 -6.612665,-13.80098 -7.232119,-34.48945 -2.203305,-73.58574 0.818066,-6.36002 1.524135,-15.7534 1.993157,-26.51651 0.459358,-10.54133 1.019856,-18.05983 1.524947,-20.45559 1.123607,-5.32951 5.047218,-13.176301 8.460492,-16.920051 l 2.762947,-3.030458 13.320978,2.221263 c 15.60191,2.601607 27.83438,5.033359 34.68744,6.895686 30.94619,8.40965 38.45421,20.03408 27.31241,42.28693 -2.41705,4.82743 -6.41377,11.09738 -10.52193,16.50653 -2.53572,3.33875 -2.93749,4.18555 -3.24566,6.84088 -0.87876,7.57168 -4.58678,16.37978 -9.79475,23.26661 -5.81016,7.68315 -12.37833,13.38645 -32.69268,28.38784 -4.44467,3.28223 -10.26274,7.81344 -12.92904,10.06936 l -4.847822,4.10169 -0.838011,-3.87087 c -1.516767,-7.00611 -4.440392,-11.78429 -9.480831,-15.49485 -1.692686,-1.24609 -3.279893,-2.26561 -3.527126,-2.26561 -0.642425,0 -0.556159,8.53903 0.118384,11.71817 1.075284,5.06784 4.453668,10.16629 8.319746,12.55566 0.945427,0.5843 1.709268,1.2143 1.697424,1.39999 -0.01184,0.18568 -0.880829,1.31573 -1.931076,2.5112 l -1.909542,2.17359 z m 23.939149,-97.9882 c 7.19276,-1.51684 12.69649,-5.50535 15.64241,-11.33592 1.36176,-2.69518 3.20531,-8.47896 4.8176,-15.1143 1.05579,-4.34501 1.08236,-4.77595 0.32082,-5.20213 -0.45668,-0.25557 -0.83032,-0.93929 -0.83032,-1.51939 0,-1.00846 -0.17169,-1.03962 -3.91434,-0.71049 -13.93109,1.22512 -23.48058,6.94584 -28.786972,17.24516 -2.03688,3.95343 -4.193557,10.42296 -4.906804,14.71927 l -0.3515,2.11729 2.43856,0.19078 c 5.882496,0.46023 12.300356,0.29937 15.570546,-0.39027 z M 91.34165,133.2021 c 2.128352,-9.08118 6.2695,-17.16233 10.76791,-21.0128 4.93227,-4.22184 12.09487,-6.68454 21.03458,-7.23228 l 5.17703,-0.3172 v -2.19609 -2.19609 h -2.15982 c -3.14705,0 -10.25437,0.92989 -13.75008,1.79899 -7.62301,1.89524 -14.728204,6.99184 -18.84495,13.51759 -3.446305,5.46299 -8.535831,20.41845 -7.339125,21.56586 0.366957,0.35184 1.590008,0.68019 3.455642,0.92773 0.277792,0.0369 1.024258,-2.14821 1.658813,-4.85571 z"
       id="path961"
       inkscape:connector-curvature="0"
       transform="matrix(0.26458333,0,0,0.26458333,0,201.74997)" />
    <path
       style="fill:#ffeeaa;stroke:#1b1b1b;stroke-width:0.5152216;stroke-miterlimit:4;stroke-dasharray:none;stroke-opacity:1"
       d="m 90.403542,228.11598 c -1.647564,-2.34762 -3.569975,-7.66018 -2.771924,-7.66018 0.796079,0 4.801467,8.7826 4.254598,9.32905 -0.100691,0.10061 -0.767894,-0.65038 -1.482674,-1.66887 z"
       id="path963"
       inkscape:connector-curvature="0"
       transform="matrix(0.26458333,0,0,0.26458333,0,201.74997)" />
    <path
       style="fill:#fff6d5;stroke:#1b1b1b;stroke-width:0.5152216;stroke-miterlimit:4;stroke-dasharray:none;stroke-opacity:1"
       d="m 108.77691,133.12983 c -0.88773,-0.55779 -2.01104,-1.62003 -2.49624,-2.36054 -1.15964,-1.76984 -1.15964,-5.73537 0,-7.5052 2.25549,-3.44232 7.4904,-4.44652 10.40314,-1.99562 3.92827,3.30543 4.05728,7.77549 0.32502,11.26218 -1.8317,1.71118 -5.98143,2.01323 -8.23192,0.59918 z"
       id="path965"
       inkscape:connector-curvature="0"
       transform="matrix(0.26458333,0,0,0.26458333,0,201.74997)" />
    <path
       style="fill:#fff6d5;stroke:#1b1b1b;stroke-width:0.5152216;stroke-miterlimit:4;stroke-dasharray:none;stroke-opacity:1"
       d="m 123.77548,124.31966 c 0,-1.29505 -1.73549,-4.45253 -3.19695,-5.81639 -0.70122,-0.65439 -2.33539,-1.70089 -3.63148,-2.32555 l -2.35652,-1.13574 2.00977,-0.80415 c 2.25454,-0.90209 10.66808,-2.58443 11.04415,-2.20836 0.34608,0.34608 -2.77623,12.07621 -3.37338,12.67336 -0.32406,0.32406 -0.49559,0.19144 -0.49559,-0.38317 z"
       id="path967"
       inkscape:connector-curvature="0"
       transform="matrix(0.26458333,0,0,0.26458333,0,201.74997)" />
    <path
       style="fill:#fff6d5;stroke:#1b1b1b;stroke-width:0.5152216;stroke-miterlimit:4;stroke-dasharray:none;stroke-opacity:1"
       d="m 99.308979,135.22418 c 0.406444,-1.31952 0.874781,-2.91051 1.040751,-3.53554 0.32503,-1.22406 1.2024,-1.56612 1.2024,-0.46878 0,1.01605 2.59733,4.28024 4.29753,5.40091 l 1.51085,0.99586 -4.39526,0.003 -4.395262,0.003 z"
       id="path969"
       inkscape:connector-curvature="0"
       transform="matrix(0.26458333,0,0,0.26458333,0,201.74997)" />
    <path
       style="fill:#fff6d5;stroke:#1b1b1b;stroke-width:0.5152216;stroke-miterlimit:4;stroke-dasharray:none;stroke-opacity:1"
       d="M 97.284684,54.159434 C 94.841971,45.638237 93.687513,35.676807 94.24048,27.892022 l 0.350039,-4.92794 1.985384,1.460068 c 7.806177,5.740726 16.717787,14.991111 23.570187,24.466203 l 3.69421,5.108134 -12.28051,1.387801 c -6.75428,0.763291 -12.55826,1.396126 -12.89774,1.406299 -0.33948,0.01017 -0.959295,-1.174745 -1.377366,-2.633153 z"
       id="path971"
       inkscape:connector-curvature="0"
       transform="matrix(0.26458333,0,0,0.26458333,0,201.74997)" />
    <path
       style="fill:#fff6d5;stroke:#1b1b1b;stroke-width:0.5152216;stroke-miterlimit:4;stroke-dasharray:none;stroke-opacity:1"
       d="m 90.356773,55.383826 c -4.5557,-10.491824 -5.216019,-27.990394 -1.437342,-38.089813 1.775515,-4.745487 1.728228,-4.729151 6.066707,-2.095908 9.650452,5.857352 20.627182,15.478157 27.346732,23.968676 3.20624,4.051256 9.01876,12.867585 9.01876,13.679497 0,0.2361 -0.62503,0.428866 -1.38896,0.428369 -1.09539,-7.07e-4 -1.69114,-0.479206 -2.81862,-2.263874 -5.28598,-8.367015 -15.77976,-20.290401 -23.51237,-26.715552 -4.81894,-4.004132 -11.758992,-8.985758 -12.076291,-8.668459 -0.743893,0.743894 -1.654595,9.664941 -1.67782,16.435585 -0.0323,9.416923 0.800012,15.396226 3.38356,24.307318 0.153019,0.527787 -0.140217,0.920206 -0.820575,1.098124 -0.877755,0.229538 -1.233869,-0.126607 -2.083781,-2.083963 z"
       id="path975"
       inkscape:connector-curvature="0"
       transform="matrix(0.26458333,0,0,0.26458333,0,201.74997)" />
  </g>
</svg>
