<?xml version="1.0" encoding="UTF-8" standalone="no"?>
<!-- Created with Inkscape (http://www.inkscape.org/) -->

<svg
   xmlns:dc="http://purl.org/dc/elements/1.1/"
   xmlns:cc="http://creativecommons.org/ns#"
   xmlns:rdf="http://www.w3.org/1999/02/22-rdf-syntax-ns#"
   xmlns:svg="http://www.w3.org/2000/svg"
   xmlns="http://www.w3.org/2000/svg"
   xmlns:xlink="http://www.w3.org/1999/xlink"
   xmlns:sodipodi="http://sodipodi.sourceforge.net/DTD/sodipodi-0.dtd"
   xmlns:inkscape="http://www.inkscape.org/namespaces/inkscape"
   width="360"
   height="360"
   viewBox="0 0 95.249998 95.250003"
   version="1.1"
   id="svg8"
   inkscape:version="0.92.4 5da689c313, 2019-01-14"
   sodipodi:docname="met_w.svg">
  <defs
     id="defs2">
    <linearGradient
       inkscape:collect="always"
       id="linearGradient2411">
      <stop
         style="stop-color:#ffeeaa;stop-opacity:1;"
         offset="0"
         id="stop2407" />
      <stop
         style="stop-color:#ffeeaa;stop-opacity:1"
         offset="1"
         id="stop2409" />
    </linearGradient>
    <linearGradient
       inkscape:collect="always"
       id="linearGradient2403">
      <stop
         style="stop-color:#fff6d5;stop-opacity:1;"
         offset="0"
         id="stop2399" />
      <stop
         style="stop-color:#ffeeaa;stop-opacity:1"
         offset="1"
         id="stop2401" />
    </linearGradient>
    <linearGradient
       inkscape:collect="always"
       xlink:href="#linearGradient2403"
       id="linearGradient2405"
       x1="180"
       y1="195"
       x2="180"
       y2="280"
       gradientUnits="userSpaceOnUse"
       gradientTransform="matrix(0.26458333,0,0,0.26458333,-6.6666667e-7,204.3958)" />
    <linearGradient
       inkscape:collect="always"
       xlink:href="#linearGradient2411"
       id="linearGradient2413"
       x1="180"
       y1="105"
       x2="180"
       y2="175"
       gradientUnits="userSpaceOnUse"
       gradientTransform="matrix(0.26458333,0,0,0.26458333,-6.6666667e-7,204.3958)" />
  </defs>
  <sodipodi:namedview
     id="base"
     pagecolor="#ffffff"
     bordercolor="#666666"
     borderopacity="1.0"
     inkscape:pageopacity="0.0"
     inkscape:pageshadow="2"
     inkscape:zoom="1.979899"
     inkscape:cx="79.860503"
     inkscape:cy="155.80105"
     inkscape:document-units="mm"
     inkscape:current-layer="layer1"
     showgrid="true"
     units="px"
     inkscape:window-width="1732"
     inkscape:window-height="907"
     inkscape:window-x="4"
     inkscape:window-y="48"
     inkscape:window-maximized="0">
    <inkscape:grid
       type="xygrid"
       id="grid3721" />
  </sodipodi:namedview>
  <metadata
     id="metadata5">
    <rdf:RDF>
      <cc:Work
         rdf:about="">
        <dc:format>image/svg+xml</dc:format>
        <dc:type
           rdf:resource="http://purl.org/dc/dcmitype/StillImage" />
        <dc:title />
      </cc:Work>
    </rdf:RDF>
  </metadata>
  <g
     inkscape:label="Layer 1"
     inkscape:groupmode="layer"
     id="layer1"
     transform="translate(0,-201.74997)">
    <path
       style="fill:none;stroke:#1b1b1b;stroke-width:1.05833328;stroke-miterlimit:4;stroke-dasharray:none;stroke-opacity:1"
       d="m 43.656249,283.7708 h 3.96875"
       id="path13060"
       inkscape:connector-curvature="0" />
    <path
       style="fill:none;stroke:#1b1b1b;stroke-width:1.05833328;stroke-miterlimit:4;stroke-dasharray:none;stroke-opacity:1"
       d="m 43.656249,283.7708 v -2.64583 h 3.96875"
       id="path13066"
       inkscape:connector-curvature="0" />
    <path
       style="fill:none;stroke:#1b1b1b;stroke-width:1.05833328;stroke-miterlimit:4;stroke-dasharray:none;stroke-opacity:1"
       d="m 43.656249,281.12497 -1.322916,-1.32292 1.322916,-1.32291 h 3.96875"
       id="path13068"
       inkscape:connector-curvature="0" />
    <path
       style="fill:none;stroke:#1b1b1b;stroke-width:1.05833328;stroke-miterlimit:4;stroke-dasharray:none;stroke-opacity:1"
       d="m 43.656249,278.47914 c -5.997894,-5.74112 -13.337127,-10.6734 -9.260416,-22.48959"
       id="path13076"
       inkscape:connector-curvature="0"
       sodipodi:nodetypes="cc" />
    <path
       style="fill:none;stroke:#1b1b1b;stroke-width:1.05833328;stroke-miterlimit:4;stroke-dasharray:none;stroke-opacity:1"
       d="M 34.395833,255.98955 H 47.624999"
       id="path13078"
       inkscape:connector-curvature="0" />
    <path
       style="fill:none;stroke:#1b1b1b;stroke-width:1.05833328;stroke-miterlimit:4;stroke-dasharray:none;stroke-opacity:1"
       d="m 37.041666,255.98955 1.322917,-2.64583 h 9.260416"
       id="path13088"
       inkscape:connector-curvature="0" />
    <path
       style="fill:none;stroke:#1b1b1b;stroke-width:1.05833328;stroke-miterlimit:4;stroke-dasharray:none;stroke-opacity:1"
       d="m 41.010416,253.34372 1.322917,-2.64583 h 5.291666"
       id="path13090"
       inkscape:connector-curvature="0" />
    <path
       style="fill:none;stroke:#1b1b1b;stroke-width:1.05833328;stroke-miterlimit:4;stroke-dasharray:none;stroke-opacity:1"
       d="m 47.624999,230.85414 c -2.282221,6.5283 -1.819154,13.22576 -2.645833,19.84375"
       id="path13092"
       inkscape:connector-curvature="0"
       sodipodi:nodetypes="cc" />
    <path
       style="fill:none;stroke:#1b1b1b;stroke-width:1.05833328;stroke-miterlimit:4;stroke-dasharray:none;stroke-opacity:1"
       d="M 47.624998,294.35413 H 37.041665 v -2.64583 h 10.583333"
       id="path13139"
       inkscape:connector-curvature="0" />
    <path
       style="fill:none;stroke:#1b1b1b;stroke-width:1.05833328;stroke-miterlimit:4;stroke-dasharray:none;stroke-opacity:1"
       d="m 38.364582,291.7083 v -2.64583 h 9.260416"
       id="path13141"
       inkscape:connector-curvature="0" />
    <path
       style="fill:none;stroke:#1b1b1b;stroke-width:1.05833328;stroke-miterlimit:4;stroke-dasharray:none;stroke-opacity:1"
       d="m 43.656248,283.7708 -5.291666,5.29167"
       id="path13299"
       inkscape:connector-curvature="0" />
    <path
       style="fill:none;stroke:#1b1b1b;stroke-width:1.05833328;stroke-miterlimit:4;stroke-dasharray:none;stroke-opacity:1"
       d="m 51.593749,283.77081 h -3.96875"
       id="path13060-4"
       inkscape:connector-curvature="0" />
    <path
       style="fill:none;stroke:#1b1b1b;stroke-width:1.05833328;stroke-miterlimit:4;stroke-dasharray:none;stroke-opacity:1"
       d="m 51.593749,283.77081 v -2.64584 h -3.96875"
       id="path13066-7"
       inkscape:connector-curvature="0" />
    <path
       style="fill:none;stroke:#1b1b1b;stroke-width:1.05833328;stroke-miterlimit:4;stroke-dasharray:none;stroke-opacity:1"
       d="m 51.593749,281.12497 1.322915,-1.32291 -1.322915,-1.32292 h -3.96875"
       id="path13068-8"
       inkscape:connector-curvature="0" />
    <path
       style="fill:none;stroke:#1b1b1b;stroke-width:1.05833328;stroke-miterlimit:4;stroke-dasharray:none;stroke-opacity:1"
       d="m 51.593749,278.47914 c 5.997894,-5.74112 13.337127,-10.6734 9.260416,-22.48959"
       id="path13076-4"
       inkscape:connector-curvature="0"
       sodipodi:nodetypes="cc" />
    <path
       style="fill:none;stroke:#1b1b1b;stroke-width:1.05833328;stroke-miterlimit:4;stroke-dasharray:none;stroke-opacity:1"
       d="M 60.854165,255.98955 H 47.624999"
       id="path13078-5"
       inkscape:connector-curvature="0" />
    <path
       style="fill:none;stroke:#1b1b1b;stroke-width:1.05833328;stroke-miterlimit:4;stroke-dasharray:none;stroke-opacity:1"
       d="m 58.208332,255.98955 -1.322918,-2.64583 h -9.260415"
       id="path13088-0"
       inkscape:connector-curvature="0" />
    <path
       style="fill:none;stroke:#1b1b1b;stroke-width:1.05833328;stroke-miterlimit:4;stroke-dasharray:none;stroke-opacity:1"
       d="m 54.239582,253.34372 -1.322918,-2.64583 h -5.291665"
       id="path13090-3"
       inkscape:connector-curvature="0" />
    <path
       style="fill:none;stroke:#1b1b1b;stroke-width:1.05833328;stroke-miterlimit:4;stroke-dasharray:none;stroke-opacity:1"
       d="m 47.624999,230.85414 c 2.282221,6.5283 1.819154,13.22576 2.645833,19.84375"
       id="path13092-6"
       inkscape:connector-curvature="0"
       sodipodi:nodetypes="cc" />
    <path
       style="fill:none;stroke:#1b1b1b;stroke-width:1.05833328;stroke-miterlimit:4;stroke-dasharray:none;stroke-opacity:1"
       d="m 47.625,294.35414 h 10.583333 v -2.64583 H 47.625"
       id="path13139-1"
       inkscape:connector-curvature="0" />
    <path
       style="fill:none;stroke:#1b1b1b;stroke-width:1.05833328;stroke-miterlimit:4;stroke-dasharray:none;stroke-opacity:1"
       d="m 56.885415,291.70831 v -2.64584 H 47.625"
       id="path13141-0"
       inkscape:connector-curvature="0" />
    <path
       style="fill:none;stroke:#1b1b1b;stroke-width:1.05833328;stroke-miterlimit:4;stroke-dasharray:none;stroke-opacity:1"
       d="m 51.59375,283.77081 5.291665,5.29166"
       id="path13299-6"
       inkscape:connector-curvature="0" />
    <path
       style="fill:url(#linearGradient2405);fill-opacity:1;stroke:#1b1b1b;stroke-width:0.13631904;stroke-miterlimit:4;stroke-dasharray:none;stroke-opacity:1"
       d="m 41.739014,275.87135 c -2.348637,-2.20242 -3.963074,-3.87295 -4.821031,-4.98854 -3.04038,-3.95338 -3.804136,-8.14679 -2.411759,-13.2418 l 0.28321,-1.03634 12.835327,0.0341 12.835329,0.0341 0.179316,0.60135 c 0.535342,1.79533 0.740042,3.17444 0.743825,5.01131 0.0047,2.28696 -0.2903,3.62478 -1.237665,5.61266 -1.171501,2.45819 -2.636877,4.23566 -6.355424,7.70902 l -2.405377,2.24677 h -3.765772 -3.765775 z"
       id="path2379"
       inkscape:connector-curvature="0" />
    <path
       style="fill:#fff6d5;stroke:#1b1b1b;stroke-width:0.13631904;stroke-miterlimit:4;stroke-dasharray:none;stroke-opacity:1"
       d="m 38.088011,255.33203 c 0,-0.0392 0.151352,-0.36994 0.336335,-0.73499 l 0.336339,-0.66373 h 8.88221 8.882208 l 0.336338,0.66373 c 0.184986,0.36505 0.336339,0.6958 0.336339,0.73499 0,0.0392 -4.299699,0.0713 -9.554885,0.0713 -5.255188,0 -9.554884,-0.0321 -9.554884,-0.0713 z"
       id="path2381"
       inkscape:connector-curvature="0" />
    <path
       style="fill:#fff6d5;stroke:#1b1b1b;stroke-width:0.13631904;stroke-miterlimit:4;stroke-dasharray:none;stroke-opacity:1"
       d="m 42.326794,251.9956 0.360474,-0.73499 h 4.914397 4.914397 l 0.336336,0.66373 c 0.184986,0.36506 0.336338,0.6958 0.336338,0.73499 0,0.0392 -2.525043,0.0713 -5.611206,0.0713 h -5.611209 z"
       id="path2383"
       inkscape:connector-curvature="0" />
    <path
       style="fill:url(#linearGradient2413);fill-opacity:1;stroke:#1b1b1b;stroke-width:0.13631904;stroke-miterlimit:4;stroke-dasharray:none;stroke-opacity:1"
       d="m 45.70519,249.9255 c 0,-0.43304 0.695008,-9.78572 0.809429,-10.89247 0.1734,-1.6772 0.459193,-3.39412 0.823045,-4.94449 l 0.28226,-1.20271 0.24026,0.93545 c 0.558446,2.17427 0.94174,5.23919 1.253416,10.0226 0.114935,1.76398 0.266981,3.83866 0.337876,4.6104 0.0709,0.77174 0.12895,1.44827 0.129011,1.50339 6e-5,0.0551 -0.871855,0.10023 -1.937592,0.10023 -1.19067,0 -1.937705,-0.051 -1.937705,-0.1324 z"
       id="path2385"
       inkscape:connector-curvature="0" />
    <path
       style="fill:#ffeeaa;stroke:#1b1b1b;stroke-width:0.13631904;stroke-miterlimit:4;stroke-dasharray:none;stroke-opacity:1"
       d="m 43.524671,280.15125 -0.359634,-0.37538 0.375353,-0.35962 0.375357,-0.35961 h 3.742867 3.742867 l 0.359635,0.37538 0.359638,0.37538 -0.375357,0.35961 -0.375354,0.35961 h -3.742867 -3.742867 z"
       id="path2387"
       inkscape:connector-curvature="0" />
    <path
       style="fill:#ffeeaa;stroke:#1b1b1b;stroke-width:0.13631904;stroke-miterlimit:4;stroke-dasharray:none;stroke-opacity:1"
       d="m 44.235207,282.46433 v -0.73499 h 3.407688 3.407685 v 0.73499 0.73499 h -3.407685 -3.407688 z"
       id="path2389"
       inkscape:connector-curvature="0" />
    <path
       style="fill:#ffeeaa;stroke:#1b1b1b;stroke-width:0.13631904;stroke-miterlimit:4;stroke-dasharray:none;stroke-opacity:1"
       d="m 41.8966,286.40655 2.001179,-2.00452 h 3.745116 3.745114 l 2.001181,2.00452 2.001179,2.00452 h -7.747474 -7.747473 z"
       id="path2391"
       inkscape:connector-curvature="0" />
    <path
       style="fill:#ffeeaa;stroke:#1b1b1b;stroke-width:0.13631904;stroke-miterlimit:4;stroke-dasharray:none;stroke-opacity:1"
       d="m 38.889817,290.34878 v -0.73499 h 8.68626 8.68626 v 0.73499 0.73499 h -8.68626 -8.68626 z"
       id="path2393"
       inkscape:connector-curvature="0" />
    <path
       style="fill:#ffeeaa;stroke:#1b1b1b;stroke-width:0.13631904;stroke-miterlimit:4;stroke-dasharray:none;stroke-opacity:1"
       d="m 37.687106,293.02148 v -0.735 h 9.955789 9.955789 v 0.735 0.73499 h -9.955789 -9.955789 z"
       id="path2397"
       inkscape:connector-curvature="0" />
  </g>
</svg>
