<svg height="30mm" viewBox="0 0 30 30" width="30mm" xmlns="http://www.w3.org/2000/svg" xmlns:xlink="http://www.w3.org/1999/xlink"><clipPath id="a"><path d="m0 2834.646h2834.646v-2834.646h-2834.646z" transform="translate(-91.9855 -311.81193)"/></clipPath><g transform="translate(-80)"><g clip-path="url(#a)" stroke-miterlimit="10" transform="matrix(.37968369 0 0 -.37968364 108.40001 14.999998)"><path d="m0 0c0-19.491-15.801-35.292-35.293-35.292-19.491 0-35.292 15.801-35.292 35.292s15.801 35.292 35.292 35.292c19.492 0 35.293-15.801 35.293-35.292" fill="#f9d08f"/><path d="m-35.292969-36.082031c-19.918009 0-36.082031 16.164022-36.082031 36.082031s16.164022 36.082031 36.082031 36.082031c19.918988 0 36.08398462-16.164022 36.08398462-36.082031.00000001-19.918009-16.16499662-36.082031-36.08398462-36.082031zm0 1.580078c19.064974 0 34.50195338 15.438001 34.50195338 34.501953s-15.43697938 34.501953-34.50195338 34.501953c-19.063951 0-34.501953-15.438001-34.501953-34.501953s15.438002-34.501953 34.501953-34.501953z" fill="#4d3608"/></g><path d="m94.145614 14.61415v-1.10243h3.913625v3.69314h-2.480467v2.480467q0 .330729.165365.440972.220486.110243 1.322915.110243h1.984374q.826822 0 .881944-.05512.11024-.110243.16536-.275607.0551-.05512.27561-1.10243.44097.275607 1.21267.551215-.22048 1.047308-.49609 1.378037-.22049.330729-.66146.496093-.33073.110243-1.322913.110243h-2.204859q-1.543402 0-1.984374-.220486-.606336-.275607-.606336-1.212672v-3.803385h2.535588v-1.48828zm-2.20486 3.362411v-3.252168h-1.047308v3.252168zm-3.252167-7.220915v-1.2126725h4.630204v1.2126725h-1.653644q-.330729 1.543402-.771701 2.811196h2.259981v6.614578h-1.212673v-1.047308h-1.047308v1.708766h-1.157551v-4.630205q-.385851.881944-.826822 1.48828-.05512-.606336-.165365-.826822-.05512-.275607-.330729-.661458.551215-1.047308 1.10243-2.480467.440972-1.433158.826822-2.97656zm9.811624 7.937494q-.275607-.881944-.551215-1.322916h.826822q.275608 0 .385851-.110243.110243-.110243.165364-.826822.110243-2.094616.110243-4.409719h-4.519962q-.440971.71658-1.322915 1.929252-.385851-.496093-.937065-.992186.937065-1.267795 1.378037-2.094617.440972-.716579 1.047308-2.2048593l1.212673.6614579q-.440972 1.1024294-.771701 1.5985234h5.236539q0 4.46484-.11024 5.787756-.16537 1.047308-.49609 1.378037-.330733.330729-1.653649.606336z" stroke-width=".352777"/><path d="m95 3.5c-6.339424 0-11.5 5.1605759-11.5 11.5 0 6.339424 5.160576 11.5 11.5 11.5 6.33942 0 11.5-5.160576 11.5-11.5 0-6.3394241-5.16058-11.5-11.5-11.5zm0 2c5.25854 0 9.5 4.2414549 9.5 9.5 0 5.258545-4.24146 9.5-9.5 9.5-5.258544 0-9.5-4.241455-9.5-9.5 0-5.2585451 4.241456-9.5 9.5-9.5z" stroke-miterlimit="10"/></g></svg>