<?xml version="1.0" encoding="UTF-8" standalone="no"?>
<!-- Created with Inkscape (http://www.inkscape.org/) -->

<svg
   width="30mm"
   height="30mm"
   viewBox="0 0 30 30"
   version="1.1"
   id="svg1"
   xmlns="http://www.w3.org/2000/svg"
   xmlns:svg="http://www.w3.org/2000/svg">
  <defs
     id="defs1">
    <clipPath
       clipPathUnits="userSpaceOnUse"
       id="clipPath182-4-0-0-0-5-6-4-0-2-1">
      <path
         d="M 0,2834.646 H 2834.646 V 0 H 0 Z"
         transform="translate(-91.9855,-311.81193)"
         id="path182-0-3-0-8-1-8-6-2-1-9" />
    </clipPath>
  </defs>
  <g
     id="layer1">
    <g
       id="path181-3-3-1-1-1-4-1-1-7"
       clip-path="url(#clipPath182-4-0-0-0-5-6-4-0-2-1)"
       transform="matrix(0.37968369,0,0,-0.37968364,28.400002,14.999999)">
      <path
         style="color:#000000;fill:#f9d08f;stroke-miterlimit:10;-inkscape-stroke:none"
         d="m 0,0 c 0,-19.491 -15.801,-35.292 -35.293,-35.292 -19.491,0 -35.292,15.801 -35.292,35.292 0,19.491 15.801,35.292 35.292,35.292 C -15.801,35.292 0,19.491 0,0"
         id="path105" />
      <path
         style="color:#000000;fill:#4d3608;stroke-miterlimit:10;-inkscape-stroke:none"
         d="M -35.292969,-36.082031 C -55.210978,-36.082031 -71.375,-19.918009 -71.375,0 c 0,19.918009 16.164022,36.082031 36.082031,36.082031 19.918988,0 36.08398462,-16.164022 36.08398462,-36.082031 10e-9,-19.918009 -16.16499662,-36.082031 -36.08398462,-36.082031 z m 0,1.580078 c 19.064974,0 34.50195338,15.438001 34.50195338,34.501953 0,19.063952 -15.43697938,34.501953 -34.50195338,34.501953 -19.063951,0 -34.501953,-15.438001 -34.501953,-34.501953 0,-19.063952 15.438002,-34.501953 34.501953,-34.501953 z"
         id="path106" />
    </g>
    <path
       d="m 14.310985,16.76389 v -1.102429 h 1.267794 v 1.102429 h 5.56727 v 1.212673 h -5.56727 v 3.362411 H 14.310985 V 17.976563 H 8.9090793 V 16.76389 Z m 0,-6.614578 v -1.48828 h 1.267794 v 1.48828 h 4.960934 v 1.157551 h -2.480467 l 0.716579,0.440972 -0.661458,1.047308 q 1.212673,1.212673 2.866318,1.874131 -0.110243,0.165364 -0.275608,0.330729 -0.110243,0.165364 -0.220486,0.275607 0,0 -0.275607,0.440972 -1.322916,-0.716579 -1.598523,-0.937065 -0.496094,-0.330729 -1.212673,-1.047308 -0.937065,1.047308 -1.047308,1.102429 -0.385851,0.385851 -0.661458,0.551215 -0.110243,-0.110243 -0.38585,-0.330729 -0.275608,-0.220486 -0.551215,-0.38585 1.157551,-1.047308 1.48828,-1.433159 0.606336,-0.716579 1.322915,-1.929252 h -4.795569 l 0.771701,0.496094 q -0.220486,0.496093 -0.826822,1.157551 0.937065,0.716579 1.984373,1.322916 l -0.771701,1.047308 q -1.047308,-0.606337 -1.929252,-1.48828 -1.433158,1.322915 -2.2599805,1.87413 -0.5512148,-0.661458 -0.8819437,-0.937065 1.2126722,-0.771701 1.7638872,-1.322916 1.047309,-1.047308 1.763888,-2.149738 H 9.5154156 v -1.157551 z"
       id="text2028-1-6-5-3-2-4-4-0"
       style="-inkscape-font-specification:'Osaka, Normal';stroke-width:0.352777"
       aria-label="å’" />
    <path
       style="color:#000000;fill:#000000;stroke-miterlimit:10;-inkscape-stroke:none"
       d="M 15,3.5 C 8.6605763,3.5 3.5,8.6605759 3.5,15 3.5,21.339424 8.6605763,26.5 15,26.5 21.339424,26.5 26.5,21.339424 26.5,15 26.5,8.6605759 21.339424,3.5 15,3.5 Z m 0,2 c 5.258544,0 9.5,4.2414549 9.5,9.5 0,5.258545 -4.241456,9.5 -9.5,9.5 C 9.7414556,24.5 5.5,20.258545 5.5,15 5.5,9.7414549 9.7414556,5.5 15,5.5 Z"
       id="ellipse77" />
  </g>
</svg>
