<?xml version="1.0" encoding="UTF-8" standalone="no"?>
<!-- Created with Inkscape (http://www.inkscape.org/) -->

<svg
   width="30mm"
   height="30mm"
   viewBox="0 0 30 30"
   version="1.1"
   id="svg1"
   xmlns="http://www.w3.org/2000/svg"
   xmlns:svg="http://www.w3.org/2000/svg">
  <defs
     id="defs1">
    <clipPath
       clipPathUnits="userSpaceOnUse"
       id="clipPath182-4-0-0-0-6-0-7">
      <path
         d="M 0,2834.646 H 2834.646 V 0 H 0 Z"
         transform="translate(-91.9855,-311.81193)"
         id="path182-0-3-0-8-2-4-2" />
    </clipPath>
  </defs>
  <g
     id="layer1"
     transform="translate(-320)">
    <g
       id="path181-3-3-1-1-0-9"
       clip-path="url(#clipPath182-4-0-0-0-6-0-7)"
       transform="matrix(0.37968369,0,0,-0.37968364,348.40001,15.000001)">
      <path
         style="color:#000000;fill:#f9d08f;stroke-miterlimit:10;-inkscape-stroke:none"
         d="m 0,0 c 0,-19.491 -15.801,-35.292 -35.293,-35.292 -19.491,0 -35.292,15.801 -35.292,35.292 0,19.491 15.801,35.292 35.292,35.292 C -15.801,35.292 0,19.491 0,0"
         id="path97" />
      <path
         style="color:#000000;fill:#4d3608;stroke-miterlimit:10;-inkscape-stroke:none"
         d="M -35.292969,-36.082031 C -55.210978,-36.082031 -71.375,-19.918009 -71.375,0 c 0,19.918009 16.164022,36.082031 36.082031,36.082031 19.918988,0 36.08398462,-16.164022 36.08398462,-36.082031 10e-9,-19.918009 -16.16499662,-36.082031 -36.08398462,-36.082031 z m 0,1.580078 c 19.064974,0 34.50195338,15.438001 34.50195338,34.501953 0,19.063952 -15.43697938,34.501953 -34.50195338,34.501953 -19.063951,0 -34.501953,-15.438001 -34.501953,-34.501953 0,-19.063952 15.438002,-34.501953 34.501953,-34.501953 z"
         id="path98" />
    </g>
    <path
       d="m 334.44877,13.484159 v -0.992187 h -2.92144 v 0.992187 z m 4.57508,0 v -0.992187 h -3.36241 v 0.992187 z m -3.52777,-2.756075 h -3.0868 l -0.88195,0.771701 h 3.14193 q 0.27561,-0.220486 0.82682,-0.771701 z m -1.48828,-1.7087657 -0.55122,0.6614578 h 3.19705 l 0.22049,-0.1102429 0.71658,0.7717008 q -0.44098,0.440972 -0.7717,0.716579 -0.27561,0.275608 -0.4961,0.440972 h 4.02387 v 2.97656 h -3.03168 q 0.11024,0.937066 0.49609,1.763888 0.55122,-0.385851 1.10243,-0.771701 0.55122,-0.38585 1.04731,-0.716579 l 0.93707,0.992186 q -1.65365,1.047309 -2.53559,1.543402 1.26779,1.763888 3.03168,2.645831 -0.66146,0.661458 -0.93707,1.157552 -1.43316,-0.992187 -1.92925,-1.543402 -0.66146,-0.606336 -1.15755,-1.48828 -0.55121,-0.826822 -0.82682,-1.653645 -0.27561,-0.606336 -0.4961,-1.929252 h -1.0473 l -0.38585,0.275608 q 0.88194,1.047308 1.32291,2.094616 0.38585,0.937065 0.38585,2.370224 0,0.716579 -0.27561,1.267794 -0.22048,0.496094 -0.7717,0.661458 -0.60633,0.220486 -1.81901,0.275607 -0.11024,-0.7717 -0.33072,-1.267794 h 1.26779 q 0.38585,0 0.44097,-0.165364 0.22049,-0.220486 0.22049,-0.826822 0,-0.330729 -0.0551,-0.606337 -2.0395,1.10243 -2.70096,1.378037 -0.82682,0.385851 -2.86631,0.992187 -0.4961,-1.047308 -0.60634,-1.157551 3.25217,-0.771701 5.898,-2.480467 0,0 -0.22049,-0.551215 -1.32291,0.771701 -2.09461,1.10243 -0.55122,0.220486 -2.53559,0.881944 -0.11024,-0.330729 -0.66146,-1.047309 2.59071,-0.606336 4.79557,-1.819009 l -0.38585,-0.496093 q -1.98437,1.047308 -4.24435,1.653645 -0.22049,-0.606337 -0.66146,-1.157552 2.53559,-0.551214 4.02387,-1.378037 h -2.42535 v -2.094616 q -0.66146,0.496093 -0.82682,0.606336 -0.27561,-0.38585 -0.88195,-0.992186 2.48047,-1.653645 4.07899,-3.4175326 z"
       id="text2028-1-6-5-3-3-5"
       style="-inkscape-font-specification:'Osaka, Normal';stroke-width:0.352777"
       aria-label="象" />
    <path
       style="color:#000000;fill:#000000;stroke-miterlimit:10;-inkscape-stroke:none"
       d="m 335,3.5 c -6.33942,0 -11.5,5.1605759 -11.5,11.5 0,6.339424 5.16058,11.5 11.5,11.5 6.33942,0 11.5,-5.160576 11.5,-11.5 0,-6.3394241 -5.16058,-11.5 -11.5,-11.5 z m 0,2 c 5.25854,0 9.5,4.2414549 9.5,9.5 0,5.258545 -4.24146,9.5 -9.5,9.5 -5.25854,0 -9.5,-4.241455 -9.5,-9.5 0,-5.2585451 4.24146,-9.5 9.5,-9.5 z"
       id="ellipse69" />
  </g>
</svg>
