<?xml version="1.0" encoding="UTF-8" standalone="no"?>
<!-- Created with Inkscape (http://www.inkscape.org/) -->

<svg
   width="30mm"
   height="30mm"
   viewBox="0 0 30 30"
   version="1.1"
   id="svg1"
   xmlns="http://www.w3.org/2000/svg"
   xmlns:svg="http://www.w3.org/2000/svg">
  <defs
     id="defs1">
    <clipPath
       clipPathUnits="userSpaceOnUse"
       id="clipPath182-4-0-4-0-4-2-4-4-5-8">
      <path
         d="M 0,2834.646 H 2834.646 V 0 H 0 Z"
         transform="translate(-91.9855,-311.81193)"
         id="path182-0-3-8-6-1-1-0-3-1-1" />
    </clipPath>
  </defs>
  <g
     id="layer1"
     transform="translate(-200)">
    <g
       id="path181-3-3-6-8-6-2-8-7-3"
       clip-path="url(#clipPath182-4-0-4-0-4-2-4-4-5-8)"
       transform="matrix(0.37968369,0,0,-0.37968364,228.39999,15)">
      <path
         style="color:#000000;fill:#f9d08f;stroke-miterlimit:10;-inkscape-stroke:none"
         d="m 0,0 c 0,-19.491 -15.801,-35.292 -35.293,-35.292 -19.491,0 -35.292,15.801 -35.292,35.292 0,19.491 15.801,35.292 35.292,35.292 C -15.801,35.292 0,19.491 0,0"
         id="path111" />
      <path
         style="color:#000000;fill:#4d3608;stroke-miterlimit:10;-inkscape-stroke:none"
         d="M -35.292969,-36.082031 C -55.210978,-36.082031 -71.375,-19.918009 -71.375,0 c 0,19.918009 16.164022,36.082031 36.082031,36.082031 19.918988,0 36.08398462,-16.164022 36.08398462,-36.082031 10e-9,-19.918009 -16.16499662,-36.082031 -36.08398462,-36.082031 z m 0,1.580078 c 19.064974,0 34.50195338,15.438001 34.50195338,34.501953 0,19.063952 -15.43697938,34.501953 -34.50195338,34.501953 -19.063951,0 -34.501953,-15.438001 -34.501953,-34.501953 0,-19.063952 15.438002,-34.501953 34.501953,-34.501953 z"
         id="path112" />
    </g>
    <path
       d="m 216.07495,16.157552 v -1.047308 h -1.81901 v 1.047308 z m 3.14193,0 v -1.047308 h -1.87413 v 1.047308 z m -3.14193,-1.984373 v -0.992187 h -1.81901 v 0.992187 z m 3.14193,0 v -0.992187 h -1.87413 v 0.992187 z M 216.07495,10.14931 V 8.771273 h 1.2678 v 1.378037 h 3.63801 v 1.047308 h -3.63801 v 0.937066 h 3.14192 v 5.126298 h -3.14192 v 1.047308 h 4.13411 v 1.047308 h -4.13411 v 2.039495 h -1.2678 v -2.039495 h -3.8585 V 18.30729 h 3.8585 v -1.047308 h -3.03168 v -5.126298 h 3.03168 V 11.196618 H 212.6023 V 10.14931 Z m -4.51996,1.763888 v 9.536017 h -1.32292 v -7.055551 q -0.66145,1.267795 -0.99218,1.763888 -0.0551,-0.330729 -0.27561,-0.606336 -0.16536,-0.330729 -0.44097,-0.71658 0.82682,-1.267794 1.5434,-2.811195 0.71658,-1.543402 1.26779,-3.472654 l 1.37804,0.4960934 q -0.60633,1.7087656 -1.15755,2.8663176 z"
       id="text2028-1-75-4-8-3-5"
       style="-inkscape-font-specification:'Osaka, Normal';fill:#d20000;stroke-width:0.352777"
       aria-label="俥" />
    <path
       style="color:#000000;fill:#d20000;stroke-miterlimit:10;-inkscape-stroke:none"
       d="m 215,3.5 c -6.33942,0 -11.5,5.1605759 -11.5,11.5 0,6.339424 5.16058,11.5 11.5,11.5 6.33942,0 11.5,-5.160576 11.5,-11.5 0,-6.3394241 -5.16058,-11.5 -11.5,-11.5 z m 0,2 c 5.25854,0 9.5,4.2414549 9.5,9.5 0,5.258545 -4.24146,9.5 -9.5,9.5 -5.25854,0 -9.5,-4.241455 -9.5,-9.5 0,-5.2585451 4.24146,-9.5 9.5,-9.5 z"
       id="ellipse74" />
  </g>
</svg>
