<svg height="30mm" viewBox="0 0 30 30" width="30mm" xmlns="http://www.w3.org/2000/svg" xmlns:xlink="http://www.w3.org/1999/xlink"><clipPath id="a"><path d="m0 2834.646h2834.646v-2834.646h-2834.646z" transform="translate(-91.9855 -311.81193)"/></clipPath><g transform="translate(-120)"><g clip-path="url(#a)" stroke-miterlimit="10" transform="matrix(.37968369 0 0 -.37968364 148.3999 15.000002)"><path d="m0 0c0-19.491-15.801-35.292-35.293-35.292-19.491 0-35.292 15.801-35.292 35.292s15.801 35.292 35.292 35.292c19.492 0 35.293-15.801 35.293-35.292" fill="#f9d08f"/><path d="m-35.292969-36.082031c-19.918009 0-36.082031 16.164022-36.082031 36.082031s16.164022 36.082031 36.082031 36.082031c19.918988 0 36.08398462-16.164022 36.08398462-36.082031.00000001-19.918009-16.16499662-36.082031-36.08398462-36.082031zm0 1.580078c19.064974 0 34.50195338 15.438001 34.50195338 34.501953s-15.43697938 34.501953-34.50195338 34.501953c-19.063951 0-34.501953-15.438001-34.501953-34.501953s15.438002-34.501953 34.501953-34.501953z" fill="#4d3608"/></g><g fill="#d20000"><path d="m128.93664 11.361983 1.15755.110243q-.0551.551215-.0551 1.047308 0 .496093-.0551.716579-.0551.330729-.11024.71658 0 .330728-.16536 1.102429l-1.10243-.165364q.33073-1.819009.33073-3.527775zm7.93749 4.795569v-1.874131h-1.48828v1.874131zm-1.81901-4.07899-.44097 1.157551h3.47265v4.023869h-2.70095v2.425345q0 .275607.22049.330729.22048.110243 1.0473.110243h2.70096q.38585 0 .55121-.165365.16537-.110243.44097-1.102429.38585.38585 1.15756.716579-.33073.937065-.55122 1.212673-.33073.330729-.55121.38585-.16537.05512-1.15756.05512h-2.92143q-1.04731 0-1.21268-.05512-.38585-.165364-.66145-.440972-.27561-.275607-.27561-.661458v-5.95312q-.4961.881944-.66146 1.047308-.27561-.38585-.93707-1.047308.88195-1.267794 1.32292-2.370224.55122-1.322915.93707-3.0316815l1.21267.2756074-.55122 1.9843731h5.23654q0 4.630205-.22048 6.173607-.11024.937065-.44097 1.212672-.27561.275608-1.32292.385851-.16536-.551215-.44097-1.212673h.60634q.22048 0 .2756-.05512.0551-.05512.16537-.881944 0 0 .11024-4.519962zm-4.46484-3.3624105h1.21267v3.1419245q.16537-.165364.27561-.275607.11024-.165365.27561-.275608.16536-.165364.27561-.330729.16536-.165364.38585-.38585l.82682.937065-2.09462 1.874131q-.11024 1.984373-.22048 2.866317 1.0473 1.819009 1.81901 2.866317l-.93707.881944q-.71658-.992187-1.26779-2.149738-.60634 1.929252-1.76389 3.417532-.55122-.771701-.88195-1.047308 1.04731-1.322916 1.37804-2.370224.33073-.881944.60634-2.97656.11024-1.543402.11024-6.1736065z" stroke-width=".352777"/><path d="m135 3.5c-6.33942 0-11.5 5.1605759-11.5 11.5 0 6.339424 5.16058 11.5 11.5 11.5s11.5-5.160576 11.5-11.5c0-6.3394241-5.16058-11.5-11.5-11.5zm0 2c5.25854 0 9.5 4.2414549 9.5 9.5 0 5.258545-4.24146 9.5-9.5 9.5s-9.5-4.241455-9.5-9.5c0-5.2585451 4.24146-9.5 9.5-9.5z" stroke-miterlimit="10"/></g></g></svg>