<svg height="30mm" viewBox="0 0 30 30" width="30mm" xmlns="http://www.w3.org/2000/svg" xmlns:xlink="http://www.w3.org/1999/xlink"><clipPath id="a"><path d="m0 2834.646h2834.646v-2834.646h-2834.646z" transform="translate(-91.9855 -311.81193)"/></clipPath><g transform="translate(-280)"><g clip-path="url(#a)" stroke-miterlimit="10" transform="matrix(.37968369 0 0 -.37968364 308.39987 15)"><path d="m0 0c0-19.491-15.801-35.292-35.293-35.292-19.491 0-35.292 15.801-35.292 35.292s15.801 35.292 35.292 35.292c19.492 0 35.293-15.801 35.293-35.292" fill="#f9d08f"/><path d="m-35.292969-36.082031c-19.918009 0-36.082031 16.164022-36.082031 36.082031s16.164022 36.082031 36.082031 36.082031c19.918988 0 36.08398462-16.164022 36.08398462-36.082031.00000001-19.918009-16.16499662-36.082031-36.08398462-36.082031zm0 1.580078c19.064974 0 34.50195338 15.438001 34.50195338 34.501953s-15.43697938 34.501953-34.50195338 34.501953c-19.063951 0-34.501953-15.438001-34.501953-34.501953s15.438002-34.501953 34.501953-34.501953z" fill="#4d3608"/></g><g fill="#d20000"><path d="m301.42855 8.9710876v.9370652h-3.36241v1.2677942h3.05925v.881944h-3.05925v1.281574h3.05925v.881944h-3.05925v1.281575h3.59668q-.0965 3.073022-.17914 3.996307-.0965 2.108397-2.28755 2.094617-.74414.01378-1.97059.02756-.0827-.592556-.19292-1.171331 1.15755.05512 2.09461.05512 1.24023.04134 1.3367-1.226453.0827-.992186.15158-2.838756h-6.51811v.399631h-1.01975v-7.8685914zm-13.09135 5.7877564q2.01194-3.004121 3.05924-6.5043357l1.03353.261827q-.62012 1.7363267-1.28157 3.2108267v10.01833h-.99219v-8.006396q-.64768 1.185112-1.32292 2.149738-.19292-.578776-.49609-1.12999zm5.7602.74414h2.97656v-1.281575h-2.97656zm0-2.163519h2.97656v-1.281574h-2.97656zm0-2.163518h2.97656v-1.2677942h-2.97656zm-.46854 6.449214q-.42719 1.736327-.92328 3.252167-.46853-.192925-.97841-.289387.57878-1.529622.97841-3.183266zm1.5434-.206706q.28939 1.019748.59256 2.480467l-.96463.316949q-.23426-1.4745-.50987-2.535589zm1.98438-.192925q.45475 1.10243.73036 2.067056l-.90951.358289q-.24804-1.033528-.66145-2.122177zm1.94303-.234266q.49609 1.019747.8406 1.887911l-.85438.37207q-.33073-.992187-.75792-1.929252z" stroke-width=".352777"/><path d="m295 3.5c-6.33942 0-11.5 5.1605759-11.5 11.5 0 6.339424 5.16058 11.5 11.5 11.5s11.5-5.160576 11.5-11.5c0-6.3394241-5.16058-11.5-11.5-11.5zm0 2c5.25854 0 9.5 4.2414549 9.5 9.5 0 5.258545-4.24146 9.5-9.5 9.5s-9.5-4.241455-9.5-9.5c0-5.2585451 4.24146-9.5 9.5-9.5z" stroke-miterlimit="10"/></g></g></svg>