<?xml version="1.0" encoding="UTF-8" standalone="no"?>
<svg
   xmlns:dc="http://purl.org/dc/elements/1.1/"
   xmlns:cc="http://creativecommons.org/ns#"
   xmlns:rdf="http://www.w3.org/1999/02/22-rdf-syntax-ns#"
   xmlns:svg="http://www.w3.org/2000/svg"
   xmlns="http://www.w3.org/2000/svg"
   xmlns:xlink="http://www.w3.org/1999/xlink"
   xmlns:sodipodi="http://sodipodi.sourceforge.net/DTD/sodipodi-0.dtd"
   xmlns:inkscape="http://www.inkscape.org/namespaces/inkscape"
   version="1.1"
   viewBox="0 0 156 240"
   id="svg851"
   sodipodi:docname="doubutsuboard.svg"
   inkscape:version="1.0.1 (3bc2e813f5, 2020-09-07)"
   inkscape:export-filename="D:\Pictures\Chess Variants\Shogi\Boards\Shogiban1.png"
   inkscape:export-xdpi="96.300003"
   inkscape:export-ydpi="96.300003"
   width="156"
   height="240">
  <metadata
     id="metadata855">
    <rdf:RDF>
      <cc:Work
         rdf:about="">
        <dc:format>image/svg+xml</dc:format>
        <dc:type
           rdf:resource="http://purl.org/dc/dcmitype/StillImage" />
        <dc:title></dc:title>
      </cc:Work>
    </rdf:RDF>
  </metadata>
  <sodipodi:namedview
     pagecolor="#ffffff"
     bordercolor="#666666"
     borderopacity="1"
     objecttolerance="10"
     gridtolerance="10"
     guidetolerance="10"
     inkscape:pageopacity="0"
     inkscape:pageshadow="2"
     inkscape:window-width="1920"
     inkscape:window-height="1017"
     id="namedview853"
     showgrid="false"
     inkscape:zoom="2"
     inkscape:cx="194.74377"
     inkscape:cy="84.238021"
     inkscape:window-x="-8"
     inkscape:window-y="-8"
     inkscape:window-maximized="1"
     inkscape:current-layer="svg851"
     inkscape:snap-global="false"
     inkscape:snap-bbox="true"
     inkscape:bbox-nodes="true"
     inkscape:bbox-paths="true"
     inkscape:snap-bbox-edge-midpoints="true"
     inkscape:snap-bbox-midpoints="true"
     inkscape:document-rotation="0" />
  <defs
     id="defs839">
    <pattern
       inkscape:collect="always"
       xlink:href="#pattern2153"
       id="pattern2159" />
    <pattern
       inkscape:collect="always"
       xlink:href="#grid"
       id="pattern2153" />
    <pattern
       id="grid"
       width="52"
       height="60"
       patternUnits="userSpaceOnUse">
      <rect
         width="52"
         height="60"
         style="fill:#FFFFFF;fill-opacity:0.0;stroke-width:2;stroke:black"
         id="rect836" />
    </pattern>
    <clipPath
       clipPathUnits="userSpaceOnUse"
       id="clipPath2155">
      <rect
         id="rect2157"
         height="540"
         width="468"
         style="fill:url(#pattern2159)"
         x="0"
         y="0" />
    </clipPath>
  </defs>
  <rect
     style="fill:#92caed;fill-opacity:1;stroke:none;stroke-width:0.363406;stroke-linecap:square;stroke-linejoin:miter;stroke-miterlimit:4;stroke-dasharray:none;stroke-opacity:1;paint-order:fill markers stroke"
     id="rect1138"
     width="155.7599"
     height="106.66667"
     x="0.22524568"
     y="-1.6555788e-08" />
  <path
     style="fill:#fbf2b7;fill-opacity:1;fill-rule:evenodd;stroke:none;stroke-width:0.78009px;stroke-linecap:butt;stroke-linejoin:miter;stroke-opacity:1"
     d="M 4.9999997e-7,66.683979 C 12.802076,64.215701 29.299807,69.559142 34.922427,71.266005 c 5.348734,0.738445 14.817402,-0.237644 15.93606,-0.620158 16.29821,-7.312918 24.059878,-5.721223 35.341094,-2.097803 8.766197,4.215708 15.435079,4.502512 28.692709,0.08368 11.33384,-3.777596 21.69101,-10.509092 40.92643,0.09498 l 0,117.273276 H 0.0588355 Z"
     id="path1136"
     inkscape:connector-curvature="0"
     sodipodi:nodetypes="ccccscccc" />
  <path
     style="fill:#cfde7f;fill-opacity:1;fill-rule:evenodd;stroke:none;stroke-width:0.250775px;stroke-linecap:butt;stroke-linejoin:miter;stroke-opacity:1"
     d="m 0.2324725,160.15271 c 18.6041065,-1.71573 26.9558485,10.78797 29.2708865,15.25082 16.969366,-29.4823 44.78071,-8.86397 49.097534,-0.7004 12.660293,-18.24449 40.128157,-17.49534 49.768537,0.5551 C 135.75428,161.8432 151.31892,154.20352 156,154.95015 L 155.9851,240 H 0.2252465 Z"
     id="path1134"
     inkscape:connector-curvature="0"
     sodipodi:nodetypes="cccccccc" />
  <path
     style="fill:#ffffff;stroke-width:0.390549"
     d="m 21.96397,198.98201 c -0.590742,-0.50979 -0.920848,-1.3948 -1.021038,-1.52903 -2.359622,0.67464 -4.656906,-1.07856 -2.412548,-2.99896 0.569585,-0.3652 0.823344,-0.89854 0.802116,-1.68577 -0.04673,-1.73218 0.410699,-2.1566 1.927747,-1.78864 0.918775,0.22286 1.619302,0.13541 2.33269,-0.2912 1.377058,-0.82345 2.680067,-0.52749 2.785524,0.63271 0.04565,0.50222 -0.152745,1.17509 -0.44088,1.49525 -0.431025,0.4788 -0.42093,0.64757 0.05658,0.95131 2.387723,1.51885 2.470423,2.25091 0.503082,3.13711 -1.155117,-0.12087 -2.092934,1.06705 -2.25444,1.89108 -1.447925,1.23335 -1.453347,0.89418 -2.278817,0.18614 z"
     id="path2444-3"
     inkscape:connector-curvature="0"
     sodipodi:nodetypes="cccccsccsccc" />
  <path
     style="fill:#ffffff;stroke-width:0.390549"
     d="m 137.55641,199.71621 c -0.59074,-0.50978 -0.92085,-1.39482 -1.02104,-1.52902 -2.35963,0.67463 -4.65691,-1.07858 -2.41254,-2.99897 0.56958,-0.36521 0.82335,-0.89856 0.80211,-1.68576 -0.0469,-1.73219 0.41071,-2.15659 1.92775,-1.78865 0.91878,0.22286 1.61932,0.13541 2.33268,-0.2912 1.37707,-0.82346 2.68008,-0.5275 2.78555,0.63271 0.0457,0.50222 -0.15276,1.1751 -0.44089,1.49524 -0.43103,0.47878 -0.42094,0.64758 0.0565,0.95132 2.38772,1.51885 2.47043,2.25091 0.50309,3.1371 -1.15512,-0.12087 -2.09293,1.06706 -2.25445,1.89109 -1.44792,1.23335 -1.45334,0.89418 -2.27881,0.18614 z"
     id="path2444-3-6"
     inkscape:connector-curvature="0"
     sodipodi:nodetypes="cccccsccsccc" />
  <path
     style="fill:#ffffff;stroke-width:0.390549"
     d="m 80.834445,218.46054 c -0.590749,-0.50979 -0.920845,-1.39482 -1.021043,-1.52903 -2.359621,0.67464 -4.656906,-1.07858 -2.412543,-2.99897 0.569585,-0.36521 0.823346,-0.89855 0.802117,-1.68576 -0.04669,-1.73219 0.410696,-2.1566 1.927747,-1.78864 0.918773,0.22284 1.619299,0.1354 2.332683,-0.29121 1.377059,-0.82343 2.68007,-0.52749 2.785526,0.63271 0.04565,0.50223 -0.152745,1.1751 -0.44088,1.49525 -0.431024,0.4788 -0.420926,0.64757 0.05658,0.95131 2.387723,1.51885 2.470432,2.25092 0.503083,3.13711 -1.155111,-0.12087 -2.09293,1.06705 -2.254438,1.89108 -1.447929,1.23335 -1.45335,0.89419 -2.278822,0.18615 z"
     id="path2444-3-6-3"
     inkscape:connector-curvature="0"
     sodipodi:nodetypes="cccccsccsccc" />
  <path
     style="fill:#ffffff;stroke-width:0.422679"
     d="m 2.5266147,37.361338 c -3.6283017,-0.760063 -4.7961464,-2.00779 -4.9964914,-5.338254 l -0.100763,-1.674963 -3.5585553,-0.31081 c -2.330498,-0.203557 -3.871229,-0.584409 -4.464611,-1.103602 -1.208459,-1.057386 -2.11888,-3.486063 -1.813461,-4.837659 0.349667,-1.547425 1.980652,-3.733359 3.366257,-4.511647 0.656641,-0.368836 1.251412,-0.955269 1.321716,-1.303211 0.07031,-0.34794 0.316685,-1.688812 0.547519,-2.979736 0.780428,-4.364515 2.815478,-6.733707 5.8072247,-6.760707 2.7784283,-0.02504 7.0405977,2.679485 7.0405977,4.467624 0,0.717136 0.7296293,0.597095 0.7422587,-0.122093 0.016183,-0.921328 1.8498286,-3.425739 3.4058127,-4.651706 1.1208772,-0.883138 1.9090772,-1.080527 4.1940762,-1.050352 3.566477,0.04712 4.720805,0.627852 6.964828,3.504054 0.995588,1.276056 1.926566,2.32011 2.068842,2.32011 0.142278,0 0.568512,-0.525983 0.947186,-1.168844 0.833636,-1.415238 3.340438,-3.228364 4.457369,-3.223936 1.025794,0.0038 2.348063,1.18144 4.050171,3.606322 1.532394,2.18311 1.712486,3.919147 0.602122,5.804171 -1.010917,1.716212 -0.932852,2.097129 0.640094,3.123487 1.237757,0.807648 1.403718,1.147626 1.700378,3.48321 0.31961,2.516284 0.295395,2.634171 -0.871519,4.241906 -1.38875,1.913381 -3.117665,2.48456 -5.425015,1.792255 -1.463846,-0.439214 -1.577478,-0.393293 -2.0519,0.829215 -0.974854,2.512038 -2.176605,3.751995 -4.293359,4.429873 -3.312822,1.060895 -8.035683,-0.0078 -9.878431,-2.234284 -0.588687,-0.711445 -0.731473,-0.638396 -1.851173,0.947012 -1.6900837,2.393043 -5.0371665,3.458701 -8.5511733,2.722578 z"
     id="path2596"
     inkscape:connector-curvature="0" />
  <path
     style="fill:#ffffff;stroke-width:0.463224"
     d="m 75.145048,59.285608 c -3.886372,-0.852255 -5.13728,-2.251323 -5.351882,-5.985767 l -0.107923,-1.878112 -3.811669,-0.348523 c -2.496262,-0.228233 -4.146583,-0.655278 -4.782168,-1.237448 -1.294415,-1.185639 -2.269585,-3.908899 -1.942447,-5.424437 0.374539,-1.735115 2.121532,-4.186193 3.605688,-5.058882 0.703348,-0.413573 1.340426,-1.071153 1.415729,-1.461281 0.07531,-0.390144 0.339211,-1.893668 0.586456,-3.34116 0.835938,-4.893918 3.015742,-7.550464 6.220279,-7.580738 2.976046,-0.02822 7.541369,3.004488 7.541369,5.009517 0,0.804107 0.781532,0.669521 0.795051,-0.136902 0.01734,-1.033065 1.981399,-3.841245 3.64806,-5.215914 1.200598,-0.990257 2.044867,-1.211587 4.492387,-1.177753 3.820154,0.05282 5.056578,0.704006 7.460214,3.929074 1.066417,1.430834 2.063597,2.601525 2.215987,2.601525 0.1524,0 0.60895,-0.589782 1.01457,-1.310618 0.89293,-1.586897 3.578031,-3.619942 4.774401,-3.614979 1.09876,0.0044 2.51508,1.324727 4.33825,4.043748 1.64139,2.447906 1.83429,4.394498 0.64495,6.50818 -1.08282,1.924364 -0.99922,2.351496 0.68561,3.502345 1.3258,0.905613 1.50356,1.286827 1.82134,3.905703 0.34234,2.821494 0.3164,2.953679 -0.93352,4.756423 -1.48752,2.145461 -3.33942,2.785922 -5.81088,2.009644 -1.56796,-0.492487 -1.68968,-0.440996 -2.19785,0.929794 -1.04418,2.816734 -2.331421,4.207075 -4.598711,4.967189 -3.548461,1.18959 -8.607252,-0.0087 -10.581068,-2.505288 -0.630555,-0.797725 -0.783501,-0.715828 -1.982838,1.061877 -1.810294,2.683304 -5.395443,3.878221 -9.15939,3.052811 z"
     id="path2596-9"
     inkscape:connector-curvature="0" />
  <path
     style="fill:#ffffff;stroke-width:0.453394"
     d="m 141.31142,42.104153 c -3.89197,-0.815297 -5.14468,-2.153695 -5.35959,-5.726191 l -0.10812,-1.796667 -3.81715,-0.333394 c -2.49984,-0.218351 -4.15254,-0.626877 -4.78904,-1.1838 -1.29627,-1.13421 -2.27287,-3.739387 -1.94525,-5.189203 0.37508,-1.659872 2.12458,-4.004642 3.61087,-4.839499 0.70436,-0.395638 1.34236,-1.024689 1.41778,-1.397914 0.0754,-0.373224 0.3397,-1.811535 0.5873,-3.196268 0.83713,-4.681676 3.02008,-7.223033 6.22923,-7.251995 2.98033,-0.02686 7.55222,2.874197 7.55222,4.792276 0,0.769252 0.78264,0.640487 0.7962,-0.130965 0.0174,-0.988279 1.98426,-3.674679 3.6533,-4.989723 1.20234,-0.9473121 2.04782,-1.159059 4.49886,-1.126691 3.82564,0.050531 5.06386,0.673476 7.47096,3.758686 1.06792,1.368798 2.06655,2.488708 2.21917,2.488708 0.15262,0 0.60982,-0.564205 1.01602,-1.253783 0.89421,-1.518079 3.58319,-3.462961 4.78127,-3.458199 1.10034,0.0042 2.5187,1.267281 4.34449,3.868375 1.64376,2.341765 1.83694,4.203942 0.64589,6.22595 -1.08439,1.840925 -1.00065,2.249521 0.68661,3.350464 1.32769,0.86634 1.50572,1.231022 1.82392,3.736329 0.34285,2.699151 0.31688,2.825591 -0.93483,4.550157 -1.48967,2.052422 -3.34422,2.665111 -5.81926,1.922496 -1.57022,-0.47113 -1.69208,-0.421874 -2.20099,0.889473 -1.0457,2.694584 -2.33478,4.024647 -4.60535,4.751783 -3.55356,1.137989 -8.61963,-0.0083 -10.59629,-2.396645 -0.63146,-0.76313 -0.78463,-0.684772 -1.9857,1.015843 -1.81288,2.566926 -5.40321,3.710025 -9.17256,2.920423 z"
     id="path2596-1"
     inkscape:connector-curvature="0" />
  <path
     d="M 0.74399906,0.74409274 V 237.97634 M 52.247815,0.74409274 V 237.97634 M 103.75163,0.74409274 V 238.67889 M 155.25544,0.74409274 c 0,79.42868626 0,36.80063426 0,237.66106726 M 0.74399906,0.74409274 H 155.41977 M 0.74399907,60.357048 H 155.62491 M 0.74399907,119.97 H 155.41977 M 0.74399907,179.58296 H 155.41977 M 2.2296861,239.19591 155.07775,239.25801"
     style="fill:none;fill-opacity:1;stroke:#bd6055;stroke-width:1.48799;stroke-miterlimit:4;stroke-dasharray:5.95202, 5.95202;stroke-dashoffset:0;stroke-opacity:1"
     id="path22173"
     sodipodi:nodetypes="cccccccccccccccccc" />
</svg>
