<svg height="240" viewBox="0 0 156 240" width="156" xmlns="http://www.w3.org/2000/svg"><path d="m.225246 0h155.7599v106.66667h-155.7599z" fill="#92caed"/><path d="m.0000005 66.683979c12.8020755-2.468278 29.2998065 2.875163 34.9224265 4.582026 5.348734.738445 14.817402-.237644 15.93606-.620158 16.29821-7.312918 24.059878-5.721223 35.341094-2.097803 8.766197 4.215708 15.435079 4.502512 28.692709.08368 11.33384-3.777596 21.69101-10.509092 40.92643.09498v117.273276h-155.7598845z" fill="#fbf2b7" fill-rule="evenodd"/><path d="m.2324725 160.15271c18.6041065-1.71573 26.9558485 10.78797 29.2708865 15.25082 16.969366-29.4823 44.78071-8.86397 49.097534-.7004 12.660293-18.24449 40.128157-17.49534 49.768537.5551 7.38485-13.41503 22.94949-21.05471 27.63057-20.30808l-.0149 85.04985h-155.7598535z" fill="#cfde7f" fill-rule="evenodd"/><g fill="#fff"><path d="m21.96397 198.98201c-.590742-.50979-.920848-1.3948-1.021038-1.52903-2.359622.67464-4.656906-1.07856-2.412548-2.99896.569585-.3652.823344-.89854.802116-1.68577-.04673-1.73218.410699-2.1566 1.927747-1.78864.918775.22286 1.619302.13541 2.33269-.2912 1.377058-.82345 2.680067-.52749 2.785524.63271.04565.50222-.152745 1.17509-.44088 1.49525-.431025.4788-.42093.64757.05658.95131 2.387723 1.51885 2.470423 2.25091.503082 3.13711-1.155117-.12087-2.092934 1.06705-2.25444 1.89108-1.447925 1.23335-1.453347.89418-2.278817.18614z" stroke-width=".390549"/><path d="m137.55641 199.71621c-.59074-.50978-.92085-1.39482-1.02104-1.52902-2.35963.67463-4.65691-1.07858-2.41254-2.99897.56958-.36521.82335-.89856.80211-1.68576-.0469-1.73219.41071-2.15659 1.92775-1.78865.91878.22286 1.61932.13541 2.33268-.2912 1.37707-.82346 2.68008-.5275 2.78555.63271.0457.50222-.15276 1.1751-.44089 1.49524-.43103.47878-.42094.64758.0565.95132 2.38772 1.51885 2.47043 2.25091.50309 3.1371-1.15512-.12087-2.09293 1.06706-2.25445 1.89109-1.44792 1.23335-1.45334.89418-2.27881.18614z" stroke-width=".390549"/><path d="m80.834445 218.46054c-.590749-.50979-.920845-1.39482-1.021043-1.52903-2.359621.67464-4.656906-1.07858-2.412543-2.99897.569585-.36521.823346-.89855.802117-1.68576-.04669-1.73219.410696-2.1566 1.927747-1.78864.918773.22284 1.619299.1354 2.332683-.29121 1.377059-.82343 2.68007-.52749 2.785526.63271.04565.50223-.152745 1.1751-.44088 1.49525-.431024.4788-.420926.64757.05658.95131 2.387723 1.51885 2.470432 2.25092.503083 3.13711-1.155111-.12087-2.09293 1.06705-2.254438 1.89108-1.447929 1.23335-1.45335.89419-2.278822.18615z" stroke-width=".390549"/><path d="m2.5266147 37.361338c-3.6283017-.760063-4.7961464-2.00779-4.9964914-5.338254l-.100763-1.674963-3.5585553-.31081c-2.330498-.203557-3.871229-.584409-4.464611-1.103602-1.208459-1.057386-2.11888-3.486063-1.813461-4.837659.349667-1.547425 1.980652-3.733359 3.366257-4.511647.656641-.368836 1.251412-.955269 1.321716-1.303211.07031-.34794.316685-1.688812.547519-2.979736.780428-4.364515 2.815478-6.733707 5.8072247-6.760707 2.7784283-.02504 7.0405977 2.679485 7.0405977 4.467624 0 .717136.7296293.597095.7422587-.122093.016183-.921328 1.8498286-3.425739 3.4058127-4.651706 1.1208772-.883138 1.9090772-1.080527 4.1940762-1.050352 3.566477.04712 4.720805.627852 6.964828 3.504054.995588 1.276056 1.926566 2.32011 2.068842 2.32011.142278 0 .568512-.525983.947186-1.168844.833636-1.415238 3.340438-3.228364 4.457369-3.223936 1.025794.0038 2.348063 1.18144 4.050171 3.606322 1.532394 2.18311 1.712486 3.919147.602122 5.804171-1.010917 1.716212-.932852 2.097129.640094 3.123487 1.237757.807648 1.403718 1.147626 1.700378 3.48321.31961 2.516284.295395 2.634171-.871519 4.241906-1.38875 1.913381-3.117665 2.48456-5.425015 1.792255-1.463846-.439214-1.577478-.393293-2.0519.829215-.974854 2.512038-2.176605 3.751995-4.293359 4.429873-3.312822 1.060895-8.035683-.0078-9.878431-2.234284-.588687-.711445-.731473-.638396-1.851173.947012-1.6900837 2.393043-5.0371665 3.458701-8.5511733 2.722578z" stroke-width=".422679"/><path d="m75.145048 59.285608c-3.886372-.852255-5.13728-2.251323-5.351882-5.985767l-.107923-1.878112-3.811669-.348523c-2.496262-.228233-4.146583-.655278-4.782168-1.237448-1.294415-1.185639-2.269585-3.908899-1.942447-5.424437.374539-1.735115 2.121532-4.186193 3.605688-5.058882.703348-.413573 1.340426-1.071153 1.415729-1.461281.07531-.390144.339211-1.893668.586456-3.34116.835938-4.893918 3.015742-7.550464 6.220279-7.580738 2.976046-.02822 7.541369 3.004488 7.541369 5.009517 0 .804107.781532.669521.795051-.136902.01734-1.033065 1.981399-3.841245 3.64806-5.215914 1.200598-.990257 2.044867-1.211587 4.492387-1.177753 3.820154.05282 5.056578.704006 7.460214 3.929074 1.066417 1.430834 2.063597 2.601525 2.215987 2.601525.1524 0 .60895-.589782 1.01457-1.310618.89293-1.586897 3.578031-3.619942 4.774401-3.614979 1.09876.0044 2.51508 1.324727 4.33825 4.043748 1.64139 2.447906 1.83429 4.394498.64495 6.50818-1.08282 1.924364-.99922 2.351496.68561 3.502345 1.3258.905613 1.50356 1.286827 1.82134 3.905703.34234 2.821494.3164 2.953679-.93352 4.756423-1.48752 2.145461-3.33942 2.785922-5.81088 2.009644-1.56796-.492487-1.68968-.440996-2.19785.929794-1.04418 2.816734-2.331421 4.207075-4.598711 4.967189-3.548461 1.18959-8.607252-.0087-10.581068-2.505288-.630555-.797725-.783501-.715828-1.982838 1.061877-1.810294 2.683304-5.395443 3.878221-9.15939 3.052811z" stroke-width=".463224"/><path d="m141.31142 42.104153c-3.89197-.815297-5.14468-2.153695-5.35959-5.726191l-.10812-1.796667-3.81715-.333394c-2.49984-.218351-4.15254-.626877-4.78904-1.1838-1.29627-1.13421-2.27287-3.739387-1.94525-5.189203.37508-1.659872 2.12458-4.004642 3.61087-4.839499.70436-.395638 1.34236-1.024689 1.41778-1.397914.0754-.373224.3397-1.811535.5873-3.196268.83713-4.681676 3.02008-7.223033 6.22923-7.251995 2.98033-.02686 7.55222 2.874197 7.55222 4.792276 0 .769252.78264.640487.7962-.130965.0174-.988279 1.98426-3.674679 3.6533-4.989723 1.20234-.9473121 2.04782-1.159059 4.49886-1.126691 3.82564.050531 5.06386.673476 7.47096 3.758686 1.06792 1.368798 2.06655 2.488708 2.21917 2.488708s.60982-.564205 1.01602-1.253783c.89421-1.518079 3.58319-3.462961 4.78127-3.458199 1.10034.0042 2.5187 1.267281 4.34449 3.868375 1.64376 2.341765 1.83694 4.203942.64589 6.22595-1.08439 1.840925-1.00065 2.249521.68661 3.350464 1.32769.86634 1.50572 1.231022 1.82392 3.736329.34285 2.699151.31688 2.825591-.93483 4.550157-1.48967 2.052422-3.34422 2.665111-5.81926 1.922496-1.57022-.47113-1.69208-.421874-2.20099.889473-1.0457 2.694584-2.33478 4.024647-4.60535 4.751783-3.55356 1.137989-8.61963-.0083-10.59629-2.396645-.63146-.76313-.78463-.684772-1.9857 1.015843-1.81288 2.566926-5.40321 3.710025-9.17256 2.920423z" stroke-width=".453394"/></g><path d="m.74399906.74409274v237.23224726m51.50381594-237.23224726v237.23224726m51.503815-237.23224726v237.93479726m51.50381-237.93479726v237.66106726m-154.51144094-237.66106726h154.67577094m-154.67577093 59.61295526h154.88091093m-154.88091093 59.612952h154.67577093m-154.67577093 59.61296h154.67577093m-153.1900839 59.61295 152.8480639.0621" fill="none" stroke="#bd6055" stroke-dasharray="5.95202 5.95202" stroke-width="1.48799"/></svg>