<svg viewBox="0 0 261 361.06" xmlns="http://www.w3.org/2000/svg"><path d="m74.62 121.88c33.51-11.24 49.47-8.79 72.66-3.22 18 6.48 31.73 6.92 59 .13 16.77-4.18 32.49-10.71 54.73-8v-110.73h-261.01v115.48c17.88 1.65 34.46 5.62 41.86 7.3 11 1.16 30.46-.37 32.76-.96z" fill="#92caed"/><path d="m29 268.06c34.89-45.34 95.13-12.55 104 0 26-28.05 80.18-25.76 100 2 6.88-9.35 17.86-34.55 28-39.88v-119.36c-22.24-2.74-38 3.79-54.73 8-27.26 6.79-41 6.35-59-.13-23.19-5.57-39.15-8-72.66 3.22-2.3.59-21.76 2.09-32.76 1-7.4-1.68-24-5.65-41.86-7.3v116.39c17.92 5.27 25.73 31.33 29.01 36.06z" fill="#fbf2b7"/><path d="m235.85 245.6c-11.9-8.94-19 3.83-19 3.83-7.14-8.94-17.85-3.83-17.85-3.83 0-5.11-2.38-21.72-27-23-19.84-1-23 23-23 23-9.53-5.11-20.16 2.3-20.16 2.3-7.07-9.2-19.12-2.3-17.93-3.58s-4.76-21.71-25-21.71-25.41 20.25-25.41 20.25c-19.87-2.93-23.44 12.32-23.44 12.32-4.82-8.3-16.61-4.47-16.61-4.47-2.53-14.2-12.05-18.71-20.45-19.86v130.21h261v-135c-18.43-1.06-25.15 19.54-25.15 19.54z" fill="#cfde7f"/><path d="m45.39 100.48c-4.51-.74-6-2-6.21-5.2l-.12-1.64-4.43-.3c-2.9-.2-4.81-.57-5.55-1.07-1.5-1-2.63-3.4-2.25-4.72a8.71 8.71 0 0 1 4.17-4.4c.82-.36 1.56-.93 1.64-1.27s.4-1.64.69-2.9c1-4.26 3.5-6.57 7.22-6.59 3.45 0 8.75 2.61 8.75 4.35 0 .7.91.59.92-.12 0-.89 2.3-3.33 4.24-4.53 1.39-.86 2.37-1 5.21-1 4.44 0 5.87.61 8.66 3.41a14.73 14.73 0 0 0 2.57 2.26c.18 0 .71-.51 1.18-1.14 1-1.38 4.16-3.14 5.54-3.14s2.92 1.15 5 3.52c1.91 2.12 2.13 3.82.75 5.65s-1.16 2.05.8 3.05c1.53.79 1.74 1.12 2.11 3.39.4 2.46.37 2.57-1.08 4.14-1.73 1.86-3.88 2.42-6.75 1.75-1.82-.43-2-.39-2.55.8a7.31 7.31 0 0 1 -5.34 4.32c-4.12 1-10 0-12.28-2.18-.73-.69-.91-.62-2.3.93-2.1 2.33-6.27 3.37-10.64 2.65z" fill="#fff"/><path d="m196.82 93.6c-4.51-.74-6-1.95-6.21-5.2l-.13-1.63-4.42-.31c-2.9-.19-4.81-.56-5.55-1.07-1.5-1-2.64-3.4-2.26-4.72a8.76 8.76 0 0 1 4.19-4.39 3.26 3.26 0 0 0 1.64-1.28c.09-.34.4-1.65.68-2.91 1-4.25 3.5-6.56 7.22-6.59 3.46 0 8.76 2.61 8.76 4.36 0 .7.9.58.92-.12 0-.9 2.3-3.34 4.24-4.54 1.39-.86 2.37-1 5.21-1 4.43 0 5.87.61 8.66 3.42a15.24 15.24 0 0 0 2.57 2.26c.18 0 .71-.52 1.18-1.14 1-1.38 4.15-3.15 5.54-3.15s2.92 1.16 5 3.52c1.9 2.13 2.13 3.82.75 5.66-1.26 1.67-1.16 2 .79 3 1.54.79 1.75 1.12 2.12 3.4.39 2.45.36 2.56-1.09 4.13-1.72 1.87-3.87 2.42-6.74 1.75-1.82-.43-2-.38-2.55.81a7.32 7.32 0 0 1 -5.34 4.34c-4.12 1-10 0-12.28-2.17-.74-.7-.91-.63-2.31.92-2.1 2.33-6.26 3.37-10.63 2.65z" fill="#fff"/><path d="m116.82 49.6c-4.51-.74-6-2-6.21-5.2l-.13-1.63-4.42-.31c-2.9-.19-4.81-.56-5.55-1.07-1.5-1-2.64-3.4-2.26-4.72a8.76 8.76 0 0 1 4.19-4.39 3.26 3.26 0 0 0 1.64-1.28c.09-.34.4-1.65.68-2.91 1-4.25 3.5-6.56 7.22-6.59 3.46 0 8.76 2.61 8.76 4.36 0 .7.9.58.92-.12 0-.9 2.3-3.34 4.24-4.54 1.39-.86 2.37-1.05 5.21-1 4.43 0 5.87.61 8.66 3.42a15.24 15.24 0 0 0 2.57 2.26c.18 0 .71-.52 1.18-1.14 1-1.38 4.15-3.15 5.54-3.15s2.92 1.16 5 3.52c1.9 2.13 2.13 3.82.75 5.66-1.26 1.67-1.16 2 .79 3 1.54.79 1.75 1.12 2.12 3.4.39 2.45.36 2.56-1.09 4.13-1.72 1.87-3.87 2.42-6.74 1.75-1.82-.43-2-.38-2.55.81a7.32 7.32 0 0 1 -5.34 4.34c-4.12 1-10 0-12.28-2.17-.74-.7-.91-.63-2.31.92-2.1 2.33-6.26 3.37-10.63 2.65z" fill="#fff"/><path d="m8.27 288.22s-4-2-1-5c2.55-2.55 5 1 4 3 0 0 3.51-.94 4 1 1 4-2.12 3.95-4.56 3 0 0-1.56 6.19-4.44 4-4-3 2-6 2-6z" fill="#fff"/><path d="m54 272.6s-4-2-1-5c2.55-2.55 5 1 4 3 0 0 3.51-.94 4 1 1 4-2.12 4-4.56 3 0 0-1.56 6.19-4.44 4-4-3 2-6 2-6z" fill="#fff"/><path d="m102 283.6s-4-2-1-5c2.55-2.55 5 1 4 3 0 0 3.51-.94 4 1 1 4-2.12 4-4.56 3 0 0-1.56 6.19-4.44 4-4-3 2-6 2-6z" fill="#fff"/><path d="m150 273.1s-4-2-1-5c2.55-2.55 5 1 4 3 0 0 3.51-.94 4 1 1 4-2.12 4-4.56 3 0 0-1.56 6.19-4.44 4-4-3 2-6 2-6z" fill="#fff"/><path d="m198 284.1s-4-2-1-5c2.55-2.55 5 1 4 3 0 0 3.51-.94 4 1 1 4-2.12 4-4.56 3 0 0-1.56 6.19-4.44 4-4-3 2-6 2-6z" fill="#fff"/><path d="m247.23 273.37s-4-2-1-5c2.54-2.55 5 1 4 3 0 0 3.51-.94 4 1 1 4-2.12 3.95-4.56 3 0 0-1.56 6.19-4.44 4-4-3 2-6 2-6z" fill="#fff"/><path d="m253.2.06h-58.06a5.58 5.58 0 0 0 -.89 1.61c-.38 1.32.76 3.69 2.26 4.72.74.51 2.65.88 5.55 1.07l4.42.31.13 1.63c.25 3.25 1.7 4.46 6.21 5.2 4.37.72 8.53-.32 10.63-2.65 1.4-1.55 1.57-1.62 2.31-.92 2.29 2.17 8.16 3.21 12.28 2.17a7.32 7.32 0 0 0 5.34-4.31c.59-1.19.73-1.24 2.55-.81 2.87.67 5 .12 6.74-1.75 1.45-1.57 1.48-1.68 1.09-4.13a7 7 0 0 0 -.56-2.14z" fill="#fff"/><path d="m72.78 0h-58.07a5.52 5.52 0 0 0 -.88 1.61c-.38 1.32.75 3.68 2.26 4.72.73.5 2.65.87 5.55 1.07l4.42.3.13 1.64c.25 3.24 1.7 4.46 6.21 5.2 4.37.72 8.53-.32 10.63-2.65 1.39-1.55 1.57-1.62 2.3-.93 2.29 2.17 8.17 3.22 12.29 2.18a7.3 7.3 0 0 0 5.38-4.32c.59-1.19.74-1.23 2.56-.81 2.86.68 5 .12 6.74-1.74 1.45-1.57 1.48-1.68 1.08-4.14a7.27 7.27 0 0 0 -.6-2.13z" fill="#fff"/><path d="m4.49 340.12s-4-2-1-5c2.55-2.55 5 1 4 3 0 0 3.51-.94 4 1 1 4-2.12 3.95-4.56 3 0 0-1.56 6.19-4.44 4-4-3 2-6 2-6z" fill="#fff"/><path d="m50.25 324.51s-4-2-1-5c2.54-2.55 5 1 4 3 0 0 3.51-.94 4 1 1 4-2.12 3.95-4.56 3 0 0-1.56 6.19-4.44 4-4-3 2-6 2-6z" fill="#fff"/><path d="m98.25 335.51s-4-2-1-5c2.54-2.55 5 1 4 3 0 0 3.51-.94 4 1 1 4-2.12 3.95-4.56 3 0 0-1.56 6.19-4.44 4-4-3 2-6 2-6z" fill="#fff"/><path d="m146.25 325s-4-2-1-5c2.54-2.55 5 1 4 3 0 0 3.51-.94 4 1 1 4-2.12 3.95-4.56 3 0 0-1.56 6.19-4.44 4-4-3 2-6 2-6z" fill="#fff"/><path d="m194.25 336s-4-2-1-5c2.54-2.55 5 1 4 3 0 0 3.51-.94 4 1 1 4-2.12 3.95-4.56 3 0 0-1.56 6.19-4.44 4-4-3 2-6 2-6z" fill="#fff"/><path d="m243.44 325.28s-4-2-1-5c2.55-2.55 5 1 4 3 0 0 3.52-.94 4 1 1 4-2.11 4-4.55 3 0 0-1.56 6.19-4.45 4-4-3 2-6 2-6z" fill="#fff"/><g fill="none" stroke="#bd6055" stroke-miterlimit="10"><path d="m.5 3.56v-3h3"/><path d="m7.68.56h14.64" stroke-dasharray="4.18 4.18 4.18 4.18"/><path d="m24.41.56h23" stroke-dasharray="4.18 4.18 4.18 4.18 4.18 4.18"/><path d="m49.5.56h3v3"/><path d="m52.5 8.47v17.18" stroke-dasharray="4.91 4.91 4.91 4.91"/><path d="m52.5 28.11v27" stroke-dasharray="4.91 4.91 4.91 4.91 4.91 4.91"/><path d="m52.5 57.56v3h-3"/><path d="m45.32 60.56h-14.64" stroke-dasharray="4.18 4.18 4.18 4.18"/><path d="m28.59 60.56h-23" stroke-dasharray="4.18 4.18 4.18 4.18 4.18 4.18"/><path d="m3.5 60.56h-3v-3"/><path d="m.5 52.65v-17.18" stroke-dasharray="4.91 4.91 4.91 4.91"/><path d="m.5 33.02v-27" stroke-dasharray="4.91 4.91 4.91 4.91 4.91 4.91"/><path d="m52.5 3.56v-3h3"/><path d="m59.68.56h14.64" stroke-dasharray="4.18 4.18 4.18 4.18"/><path d="m76.41.56h23" stroke-dasharray="4.18 4.18 4.18 4.18 4.18 4.18"/><path d="m101.5.56h3v3"/><path d="m104.5 8.47v17.18" stroke-dasharray="4.91 4.91 4.91 4.91"/><path d="m104.5 28.11v27" stroke-dasharray="4.91 4.91 4.91 4.91 4.91 4.91"/><path d="m104.5 57.56v3h-3"/><path d="m97.32 60.56h-14.64" stroke-dasharray="4.18 4.18 4.18 4.18"/><path d="m80.59 60.56h-23" stroke-dasharray="4.18 4.18 4.18 4.18 4.18 4.18"/><path d="m55.5 60.56h-3v-3"/><path d="m52.5 52.65v-17.18" stroke-dasharray="4.91 4.91 4.91 4.91"/><path d="m52.5 33.02v-27" stroke-dasharray="4.91 4.91 4.91 4.91 4.91 4.91"/><path d="m104.5 3.56v-3h3"/><path d="m111.68.56h14.64" stroke-dasharray="4.18 4.18 4.18 4.18"/><path d="m128.41.56h23" stroke-dasharray="4.18 4.18 4.18 4.18 4.18 4.18"/><path d="m153.5.56h3v3"/><path d="m156.5 8.47v17.18" stroke-dasharray="4.91 4.91 4.91 4.91"/><path d="m156.5 28.11v27" stroke-dasharray="4.91 4.91 4.91 4.91 4.91 4.91"/><path d="m156.5 57.56v3h-3"/><path d="m149.32 60.56h-14.64" stroke-dasharray="4.18 4.18 4.18 4.18"/><path d="m132.59 60.56h-23" stroke-dasharray="4.18 4.18 4.18 4.18 4.18 4.18"/><path d="m107.5 60.56h-3v-3"/><path d="m104.5 52.65v-17.18" stroke-dasharray="4.91 4.91 4.91 4.91"/><path d="m104.5 33.02v-27" stroke-dasharray="4.91 4.91 4.91 4.91 4.91 4.91"/><path d="m156.5 3.56v-3h3"/><path d="m163.68.56h14.64" stroke-dasharray="4.18 4.18 4.18 4.18"/><path d="m180.41.56h23" stroke-dasharray="4.18 4.18 4.18 4.18 4.18 4.18"/><path d="m205.5.56h3v3"/><path d="m208.5 8.47v17.18" stroke-dasharray="4.91 4.91 4.91 4.91"/><path d="m208.5 28.11v27" stroke-dasharray="4.91 4.91 4.91 4.91 4.91 4.91"/><path d="m208.5 57.56v3h-3"/><path d="m201.32 60.56h-14.64" stroke-dasharray="4.18 4.18 4.18 4.18"/><path d="m184.59 60.56h-23" stroke-dasharray="4.18 4.18 4.18 4.18 4.18 4.18"/><path d="m159.5 60.56h-3v-3"/><path d="m156.5 52.65v-17.18" stroke-dasharray="4.91 4.91 4.91 4.91"/><path d="m156.5 33.02v-27" stroke-dasharray="4.91 4.91 4.91 4.91 4.91 4.91"/><path d="m208.5 3.56v-3h3"/><path d="m215.68.56h14.64" stroke-dasharray="4.18 4.18 4.18 4.18"/><path d="m232.41.56h23" stroke-dasharray="4.18 4.18 4.18 4.18 4.18 4.18"/><path d="m257.5.56h3v3"/><path d="m260.5 8.47v17.18" stroke-dasharray="4.91 4.91 4.91 4.91"/><path d="m260.5 28.11v27" stroke-dasharray="4.91 4.91 4.91 4.91 4.91 4.91"/><path d="m260.5 57.56v3h-3"/><path d="m253.32 60.56h-14.64" stroke-dasharray="4.18 4.18 4.18 4.18"/><path d="m236.59 60.56h-23" stroke-dasharray="4.18 4.18 4.18 4.18 4.18 4.18"/><path d="m211.5 60.56h-3v-3"/><path d="m208.5 52.65v-17.18" stroke-dasharray="4.91 4.91 4.91 4.91"/><path d="m208.5 33.02v-27" stroke-dasharray="4.91 4.91 4.91 4.91 4.91 4.91"/><path d="m.5 63.56v-3h3"/><path d="m7.68 60.56h14.64" stroke-dasharray="4.18 4.18 4.18 4.18"/><path d="m24.41 60.56h23" stroke-dasharray="4.18 4.18 4.18 4.18 4.18 4.18"/><path d="m49.5 60.56h3v3"/><path d="m52.5 68.47v17.18" stroke-dasharray="4.91 4.91 4.91 4.91"/><path d="m52.5 88.11v27" stroke-dasharray="4.91 4.91 4.91 4.91 4.91 4.91"/><path d="m52.5 117.56v3h-3"/><path d="m45.32 120.56h-14.64" stroke-dasharray="4.18 4.18 4.18 4.18"/><path d="m28.59 120.56h-23" stroke-dasharray="4.18 4.18 4.18 4.18 4.18 4.18"/><path d="m3.5 120.56h-3v-3"/><path d="m.5 112.65v-17.18" stroke-dasharray="4.91 4.91 4.91 4.91"/><path d="m.5 93.02v-27" stroke-dasharray="4.91 4.91 4.91 4.91 4.91 4.91"/><path d="m52.5 63.56v-3h3"/><path d="m59.68 60.56h14.64" stroke-dasharray="4.18 4.18 4.18 4.18"/><path d="m76.41 60.56h23" stroke-dasharray="4.18 4.18 4.18 4.18 4.18 4.18"/><path d="m101.5 60.56h3v3"/><path d="m104.5 68.47v17.18" stroke-dasharray="4.91 4.91 4.91 4.91"/><path d="m104.5 88.11v27" stroke-dasharray="4.91 4.91 4.91 4.91 4.91 4.91"/><path d="m104.5 117.56v3h-3"/><path d="m97.32 120.56h-14.64" stroke-dasharray="4.18 4.18 4.18 4.18"/><path d="m80.59 120.56h-23" stroke-dasharray="4.18 4.18 4.18 4.18 4.18 4.18"/><path d="m55.5 120.56h-3v-3"/><path d="m52.5 112.65v-17.18" stroke-dasharray="4.91 4.91 4.91 4.91"/><path d="m52.5 93.02v-27" stroke-dasharray="4.91 4.91 4.91 4.91 4.91 4.91"/><path d="m104.5 63.56v-3h3"/><path d="m111.68 60.56h14.64" stroke-dasharray="4.18 4.18 4.18 4.18"/><path d="m128.41 60.56h23" stroke-dasharray="4.18 4.18 4.18 4.18 4.18 4.18"/><path d="m153.5 60.56h3v3"/><path d="m156.5 68.47v17.18" stroke-dasharray="4.91 4.91 4.91 4.91"/><path d="m156.5 88.11v27" stroke-dasharray="4.91 4.91 4.91 4.91 4.91 4.91"/><path d="m156.5 117.56v3h-3"/><path d="m149.32 120.56h-14.64" stroke-dasharray="4.18 4.18 4.18 4.18"/><path d="m132.59 120.56h-23" stroke-dasharray="4.18 4.18 4.18 4.18 4.18 4.18"/><path d="m107.5 120.56h-3v-3"/><path d="m104.5 112.65v-17.18" stroke-dasharray="4.91 4.91 4.91 4.91"/><path d="m104.5 93.02v-27" stroke-dasharray="4.91 4.91 4.91 4.91 4.91 4.91"/><path d="m156.5 63.56v-3h3"/><path d="m163.68 60.56h14.64" stroke-dasharray="4.18 4.18 4.18 4.18"/><path d="m180.41 60.56h23" stroke-dasharray="4.18 4.18 4.18 4.18 4.18 4.18"/><path d="m205.5 60.56h3v3"/><path d="m208.5 68.47v17.18" stroke-dasharray="4.91 4.91 4.91 4.91"/><path d="m208.5 88.11v27" stroke-dasharray="4.91 4.91 4.91 4.91 4.91 4.91"/><path d="m208.5 117.56v3h-3"/><path d="m201.32 120.56h-14.64" stroke-dasharray="4.18 4.18 4.18 4.18"/><path d="m184.59 120.56h-23" stroke-dasharray="4.18 4.18 4.18 4.18 4.18 4.18"/><path d="m159.5 120.56h-3v-3"/><path d="m156.5 112.65v-17.18" stroke-dasharray="4.91 4.91 4.91 4.91"/><path d="m156.5 93.02v-27" stroke-dasharray="4.91 4.91 4.91 4.91 4.91 4.91"/><path d="m208.5 63.56v-3h3"/><path d="m215.68 60.56h14.64" stroke-dasharray="4.18 4.18 4.18 4.18"/><path d="m232.41 60.56h23" stroke-dasharray="4.18 4.18 4.18 4.18 4.18 4.18"/><path d="m257.5 60.56h3v3"/><path d="m260.5 68.47v17.18" stroke-dasharray="4.91 4.91 4.91 4.91"/><path d="m260.5 88.11v27" stroke-dasharray="4.91 4.91 4.91 4.91 4.91 4.91"/><path d="m260.5 117.56v3h-3"/><path d="m253.32 120.56h-14.64" stroke-dasharray="4.18 4.18 4.18 4.18"/><path d="m236.59 120.56h-23" stroke-dasharray="4.18 4.18 4.18 4.18 4.18 4.18"/><path d="m211.5 120.56h-3v-3"/><path d="m208.5 112.65v-17.18" stroke-dasharray="4.91 4.91 4.91 4.91"/><path d="m208.5 93.02v-27" stroke-dasharray="4.91 4.91 4.91 4.91 4.91 4.91"/><path d="m.5 123.56v-3h3"/><path d="m7.68 120.56h14.64" stroke-dasharray="4.18 4.18 4.18 4.18"/><path d="m24.41 120.56h23" stroke-dasharray="4.18 4.18 4.18 4.18 4.18 4.18"/><path d="m49.5 120.56h3v3"/><path d="m52.5 128.47v17.18" stroke-dasharray="4.91 4.91 4.91 4.91"/><path d="m52.5 148.11v27" stroke-dasharray="4.91 4.91 4.91 4.91 4.91 4.91"/><path d="m52.5 177.56v3h-3"/><path d="m45.32 180.56h-14.64" stroke-dasharray="4.18 4.18 4.18 4.18"/><path d="m28.59 180.56h-23" stroke-dasharray="4.18 4.18 4.18 4.18 4.18 4.18"/><path d="m3.5 180.56h-3v-3"/><path d="m.5 172.65v-17.18" stroke-dasharray="4.91 4.91 4.91 4.91"/><path d="m.5 153.02v-27" stroke-dasharray="4.91 4.91 4.91 4.91 4.91 4.91"/><path d="m52.5 123.56v-3h3"/><path d="m59.68 120.56h14.64" stroke-dasharray="4.18 4.18 4.18 4.18"/><path d="m76.41 120.56h23" stroke-dasharray="4.18 4.18 4.18 4.18 4.18 4.18"/><path d="m101.5 120.56h3v3"/><path d="m104.5 128.47v17.18" stroke-dasharray="4.91 4.91 4.91 4.91"/><path d="m104.5 148.11v27" stroke-dasharray="4.91 4.91 4.91 4.91 4.91 4.91"/><path d="m104.5 177.56v3h-3"/><path d="m97.32 180.56h-14.64" stroke-dasharray="4.18 4.18 4.18 4.18"/><path d="m80.59 180.56h-23" stroke-dasharray="4.18 4.18 4.18 4.18 4.18 4.18"/><path d="m55.5 180.56h-3v-3"/><path d="m52.5 172.65v-17.18" stroke-dasharray="4.91 4.91 4.91 4.91"/><path d="m52.5 153.02v-27" stroke-dasharray="4.91 4.91 4.91 4.91 4.91 4.91"/><path d="m104.5 123.56v-3h3"/><path d="m111.68 120.56h14.64" stroke-dasharray="4.18 4.18 4.18 4.18"/><path d="m128.41 120.56h23" stroke-dasharray="4.18 4.18 4.18 4.18 4.18 4.18"/><path d="m153.5 120.56h3v3"/><path d="m156.5 128.47v17.18" stroke-dasharray="4.91 4.91 4.91 4.91"/><path d="m156.5 148.11v27" stroke-dasharray="4.91 4.91 4.91 4.91 4.91 4.91"/><path d="m156.5 177.56v3h-3"/><path d="m149.32 180.56h-14.64" stroke-dasharray="4.18 4.18 4.18 4.18"/><path d="m132.59 180.56h-23" stroke-dasharray="4.18 4.18 4.18 4.18 4.18 4.18"/><path d="m107.5 180.56h-3v-3"/><path d="m104.5 172.65v-17.18" stroke-dasharray="4.91 4.91 4.91 4.91"/><path d="m104.5 153.02v-27" stroke-dasharray="4.91 4.91 4.91 4.91 4.91 4.91"/><path d="m156.5 123.56v-3h3"/><path d="m163.68 120.56h14.64" stroke-dasharray="4.18 4.18 4.18 4.18"/><path d="m180.41 120.56h23" stroke-dasharray="4.18 4.18 4.18 4.18 4.18 4.18"/><path d="m205.5 120.56h3v3"/><path d="m208.5 128.47v17.18" stroke-dasharray="4.91 4.91 4.91 4.91"/><path d="m208.5 148.11v27" stroke-dasharray="4.91 4.91 4.91 4.91 4.91 4.91"/><path d="m208.5 177.56v3h-3"/><path d="m201.32 180.56h-14.64" stroke-dasharray="4.18 4.18 4.18 4.18"/><path d="m184.59 180.56h-23" stroke-dasharray="4.18 4.18 4.18 4.18 4.18 4.18"/><path d="m159.5 180.56h-3v-3"/><path d="m156.5 172.65v-17.18" stroke-dasharray="4.91 4.91 4.91 4.91"/><path d="m156.5 153.02v-27" stroke-dasharray="4.91 4.91 4.91 4.91 4.91 4.91"/><path d="m208.5 123.56v-3h3"/><path d="m215.68 120.56h14.64" stroke-dasharray="4.18 4.18 4.18 4.18"/><path d="m232.41 120.56h23" stroke-dasharray="4.18 4.18 4.18 4.18 4.18 4.18"/><path d="m257.5 120.56h3v3"/><path d="m260.5 128.47v17.18" stroke-dasharray="4.91 4.91 4.91 4.91"/><path d="m260.5 148.11v27" stroke-dasharray="4.91 4.91 4.91 4.91 4.91 4.91"/><path d="m260.5 177.56v3h-3"/><path d="m253.32 180.56h-14.64" stroke-dasharray="4.18 4.18 4.18 4.18"/><path d="m236.59 180.56h-23" stroke-dasharray="4.18 4.18 4.18 4.18 4.18 4.18"/><path d="m211.5 180.56h-3v-3"/><path d="m208.5 172.65v-17.18" stroke-dasharray="4.91 4.91 4.91 4.91"/><path d="m208.5 153.02v-27" stroke-dasharray="4.91 4.91 4.91 4.91 4.91 4.91"/><path d="m.5 183.56v-3h3"/><path d="m7.68 180.56h14.64" stroke-dasharray="4.18 4.18 4.18 4.18"/><path d="m24.41 180.56h23" stroke-dasharray="4.18 4.18 4.18 4.18 4.18 4.18"/><path d="m49.5 180.56h3v3"/><path d="m52.5 188.47v17.18" stroke-dasharray="4.91 4.91 4.91 4.91"/><path d="m52.5 208.11v27" stroke-dasharray="4.91 4.91 4.91 4.91 4.91 4.91"/><path d="m52.5 237.56v3h-3"/><path d="m45.32 240.56h-14.64" stroke-dasharray="4.18 4.18 4.18 4.18"/><path d="m28.59 240.56h-23" stroke-dasharray="4.18 4.18 4.18 4.18 4.18 4.18"/><path d="m3.5 240.56h-3v-3"/><path d="m.5 232.65v-17.18" stroke-dasharray="4.91 4.91 4.91 4.91"/><path d="m.5 213.02v-27" stroke-dasharray="4.91 4.91 4.91 4.91 4.91 4.91"/><path d="m52.5 183.56v-3h3"/><path d="m59.68 180.56h14.64" stroke-dasharray="4.18 4.18 4.18 4.18"/><path d="m76.41 180.56h23" stroke-dasharray="4.18 4.18 4.18 4.18 4.18 4.18"/><path d="m101.5 180.56h3v3"/><path d="m104.5 188.47v17.18" stroke-dasharray="4.91 4.91 4.91 4.91"/><path d="m104.5 208.11v27" stroke-dasharray="4.91 4.91 4.91 4.91 4.91 4.91"/><path d="m104.5 237.56v3h-3"/><path d="m97.32 240.56h-14.64" stroke-dasharray="4.18 4.18 4.18 4.18"/><path d="m80.59 240.56h-23" stroke-dasharray="4.18 4.18 4.18 4.18 4.18 4.18"/><path d="m55.5 240.56h-3v-3"/><path d="m52.5 232.65v-17.18" stroke-dasharray="4.91 4.91 4.91 4.91"/><path d="m52.5 213.02v-27" stroke-dasharray="4.91 4.91 4.91 4.91 4.91 4.91"/><path d="m104.5 183.56v-3h3"/><path d="m111.68 180.56h14.64" stroke-dasharray="4.18 4.18 4.18 4.18"/><path d="m128.41 180.56h23" stroke-dasharray="4.18 4.18 4.18 4.18 4.18 4.18"/><path d="m153.5 180.56h3v3"/><path d="m156.5 188.47v17.18" stroke-dasharray="4.91 4.91 4.91 4.91"/><path d="m156.5 208.11v27" stroke-dasharray="4.91 4.91 4.91 4.91 4.91 4.91"/><path d="m156.5 237.56v3h-3"/><path d="m149.32 240.56h-14.64" stroke-dasharray="4.18 4.18 4.18 4.18"/><path d="m132.59 240.56h-23" stroke-dasharray="4.18 4.18 4.18 4.18 4.18 4.18"/><path d="m107.5 240.56h-3v-3"/><path d="m104.5 232.65v-17.18" stroke-dasharray="4.91 4.91 4.91 4.91"/><path d="m104.5 213.02v-27" stroke-dasharray="4.91 4.91 4.91 4.91 4.91 4.91"/><path d="m156.5 183.56v-3h3"/><path d="m163.68 180.56h14.64" stroke-dasharray="4.18 4.18 4.18 4.18"/><path d="m180.41 180.56h23" stroke-dasharray="4.18 4.18 4.18 4.18 4.18 4.18"/><path d="m205.5 180.56h3v3"/><path d="m208.5 188.47v17.18" stroke-dasharray="4.91 4.91 4.91 4.91"/><path d="m208.5 208.11v27" stroke-dasharray="4.91 4.91 4.91 4.91 4.91 4.91"/><path d="m208.5 237.56v3h-3"/><path d="m201.32 240.56h-14.64" stroke-dasharray="4.18 4.18 4.18 4.18"/><path d="m184.59 240.56h-23" stroke-dasharray="4.18 4.18 4.18 4.18 4.18 4.18"/><path d="m159.5 240.56h-3v-3"/><path d="m156.5 232.65v-17.18" stroke-dasharray="4.91 4.91 4.91 4.91"/><path d="m156.5 213.02v-27" stroke-dasharray="4.91 4.91 4.91 4.91 4.91 4.91"/><path d="m208.5 183.56v-3h3"/><path d="m215.68 180.56h14.64" stroke-dasharray="4.18 4.18 4.18 4.18"/><path d="m232.41 180.56h23" stroke-dasharray="4.18 4.18 4.18 4.18 4.18 4.18"/><path d="m257.5 180.56h3v3"/><path d="m260.5 188.47v17.18" stroke-dasharray="4.91 4.91 4.91 4.91"/><path d="m260.5 208.11v27" stroke-dasharray="4.91 4.91 4.91 4.91 4.91 4.91"/><path d="m260.5 237.56v3h-3"/><path d="m253.32 240.56h-14.64" stroke-dasharray="4.18 4.18 4.18 4.18"/><path d="m236.59 240.56h-23" stroke-dasharray="4.18 4.18 4.18 4.18 4.18 4.18"/><path d="m211.5 240.56h-3v-3"/><path d="m208.5 232.65v-17.18" stroke-dasharray="4.91 4.91 4.91 4.91"/><path d="m208.5 213.02v-27" stroke-dasharray="4.91 4.91 4.91 4.91 4.91 4.91"/><path d="m.5 243.56v-3h3"/><path d="m7.68 240.56h14.64" stroke-dasharray="4.18 4.18 4.18 4.18"/><path d="m24.41 240.56h23" stroke-dasharray="4.18 4.18 4.18 4.18 4.18 4.18"/><path d="m49.5 240.56h3v3"/><path d="m52.5 248.47v17.18" stroke-dasharray="4.91 4.91 4.91 4.91"/><path d="m52.5 268.11v27" stroke-dasharray="4.91 4.91 4.91 4.91 4.91 4.91"/><path d="m52.5 297.56v3h-3"/><path d="m45.32 300.56h-14.64" stroke-dasharray="4.18 4.18 4.18 4.18"/><path d="m28.59 300.56h-23" stroke-dasharray="4.18 4.18 4.18 4.18 4.18 4.18"/><path d="m3.5 300.56h-3v-3"/><path d="m.5 292.65v-17.18" stroke-dasharray="4.91 4.91 4.91 4.91"/><path d="m.5 273.02v-27" stroke-dasharray="4.91 4.91 4.91 4.91 4.91 4.91"/><path d="m52.5 243.56v-3h3"/><path d="m59.68 240.56h14.64" stroke-dasharray="4.18 4.18 4.18 4.18"/><path d="m76.41 240.56h23" stroke-dasharray="4.18 4.18 4.18 4.18 4.18 4.18"/><path d="m101.5 240.56h3v3"/><path d="m104.5 248.47v17.18" stroke-dasharray="4.91 4.91 4.91 4.91"/><path d="m104.5 268.11v27" stroke-dasharray="4.91 4.91 4.91 4.91 4.91 4.91"/><path d="m104.5 297.56v3h-3"/><path d="m97.32 300.56h-14.64" stroke-dasharray="4.18 4.18 4.18 4.18"/><path d="m80.59 300.56h-23" stroke-dasharray="4.18 4.18 4.18 4.18 4.18 4.18"/><path d="m55.5 300.56h-3v-3"/><path d="m52.5 292.65v-17.18" stroke-dasharray="4.91 4.91 4.91 4.91"/><path d="m52.5 273.02v-27" stroke-dasharray="4.91 4.91 4.91 4.91 4.91 4.91"/><path d="m104.5 243.56v-3h3"/><path d="m111.68 240.56h14.64" stroke-dasharray="4.18 4.18 4.18 4.18"/><path d="m128.41 240.56h23" stroke-dasharray="4.18 4.18 4.18 4.18 4.18 4.18"/><path d="m153.5 240.56h3v3"/><path d="m156.5 248.47v17.18" stroke-dasharray="4.91 4.91 4.91 4.91"/><path d="m156.5 268.11v27" stroke-dasharray="4.91 4.91 4.91 4.91 4.91 4.91"/><path d="m156.5 297.56v3h-3"/><path d="m149.32 300.56h-14.64" stroke-dasharray="4.18 4.18 4.18 4.18"/><path d="m132.59 300.56h-23" stroke-dasharray="4.18 4.18 4.18 4.18 4.18 4.18"/><path d="m107.5 300.56h-3v-3"/><path d="m104.5 292.65v-17.18" stroke-dasharray="4.91 4.91 4.91 4.91"/><path d="m104.5 273.02v-27" stroke-dasharray="4.91 4.91 4.91 4.91 4.91 4.91"/><path d="m156.5 243.56v-3h3"/><path d="m163.68 240.56h14.64" stroke-dasharray="4.18 4.18 4.18 4.18"/><path d="m180.41 240.56h23" stroke-dasharray="4.18 4.18 4.18 4.18 4.18 4.18"/><path d="m205.5 240.56h3v3"/><path d="m208.5 248.47v17.18" stroke-dasharray="4.91 4.91 4.91 4.91"/><path d="m208.5 268.11v27" stroke-dasharray="4.91 4.91 4.91 4.91 4.91 4.91"/><path d="m208.5 297.56v3h-3"/><path d="m201.32 300.56h-14.64" stroke-dasharray="4.18 4.18 4.18 4.18"/><path d="m184.59 300.56h-23" stroke-dasharray="4.18 4.18 4.18 4.18 4.18 4.18"/><path d="m159.5 300.56h-3v-3"/><path d="m156.5 292.65v-17.18" stroke-dasharray="4.91 4.91 4.91 4.91"/><path d="m156.5 273.02v-27" stroke-dasharray="4.91 4.91 4.91 4.91 4.91 4.91"/><path d="m208.5 243.56v-3h3"/><path d="m215.68 240.56h14.64" stroke-dasharray="4.18 4.18 4.18 4.18"/><path d="m232.41 240.56h23" stroke-dasharray="4.18 4.18 4.18 4.18 4.18 4.18"/><path d="m257.5 240.56h3v3"/><path d="m260.5 248.47v17.18" stroke-dasharray="4.91 4.91 4.91 4.91"/><path d="m260.5 268.11v27" stroke-dasharray="4.91 4.91 4.91 4.91 4.91 4.91"/><path d="m260.5 297.56v3h-3"/><path d="m253.32 300.56h-14.64" stroke-dasharray="4.18 4.18 4.18 4.18"/><path d="m236.59 300.56h-23" stroke-dasharray="4.18 4.18 4.18 4.18 4.18 4.18"/><path d="m211.5 300.56h-3v-3"/><path d="m208.5 292.65v-17.18" stroke-dasharray="4.91 4.91 4.91 4.91"/><path d="m208.5 273.02v-27" stroke-dasharray="4.91 4.91 4.91 4.91 4.91 4.91"/><path d="m.5 303.56v-3h3"/><path d="m7.68 300.56h14.64" stroke-dasharray="4.18 4.18 4.18 4.18"/><path d="m24.41 300.56h23" stroke-dasharray="4.18 4.18 4.18 4.18 4.18 4.18"/><path d="m49.5 300.56h3v3"/><path d="m52.5 308.47v17.18" stroke-dasharray="4.91 4.91 4.91 4.91"/><path d="m52.5 328.11v27" stroke-dasharray="4.91 4.91 4.91 4.91 4.91 4.91"/><path d="m52.5 357.56v3h-3"/><path d="m45.32 360.56h-14.64" stroke-dasharray="4.18 4.18 4.18 4.18"/><path d="m28.59 360.56h-23" stroke-dasharray="4.18 4.18 4.18 4.18 4.18 4.18"/><path d="m3.5 360.56h-3v-3"/><path d="m.5 352.65v-17.18" stroke-dasharray="4.91 4.91 4.91 4.91"/><path d="m.5 333.02v-27" stroke-dasharray="4.91 4.91 4.91 4.91 4.91 4.91"/><path d="m52.5 303.56v-3h3"/><path d="m59.68 300.56h14.64" stroke-dasharray="4.18 4.18 4.18 4.18"/><path d="m76.41 300.56h23" stroke-dasharray="4.18 4.18 4.18 4.18 4.18 4.18"/><path d="m101.5 300.56h3v3"/><path d="m104.5 308.47v17.18" stroke-dasharray="4.91 4.91 4.91 4.91"/><path d="m104.5 328.11v27" stroke-dasharray="4.91 4.91 4.91 4.91 4.91 4.91"/><path d="m104.5 357.56v3h-3"/><path d="m97.32 360.56h-14.64" stroke-dasharray="4.18 4.18 4.18 4.18"/><path d="m80.59 360.56h-23" stroke-dasharray="4.18 4.18 4.18 4.18 4.18 4.18"/><path d="m55.5 360.56h-3v-3"/><path d="m52.5 352.65v-17.18" stroke-dasharray="4.91 4.91 4.91 4.91"/><path d="m52.5 333.02v-27" stroke-dasharray="4.91 4.91 4.91 4.91 4.91 4.91"/><path d="m104.5 303.56v-3h3"/><path d="m111.68 300.56h14.64" stroke-dasharray="4.18 4.18 4.18 4.18"/><path d="m128.41 300.56h23" stroke-dasharray="4.18 4.18 4.18 4.18 4.18 4.18"/><path d="m153.5 300.56h3v3"/><path d="m156.5 308.47v17.18" stroke-dasharray="4.91 4.91 4.91 4.91"/><path d="m156.5 328.11v27" stroke-dasharray="4.91 4.91 4.91 4.91 4.91 4.91"/><path d="m156.5 357.56v3h-3"/><path d="m149.32 360.56h-14.64" stroke-dasharray="4.18 4.18 4.18 4.18"/><path d="m132.59 360.56h-23" stroke-dasharray="4.18 4.18 4.18 4.18 4.18 4.18"/><path d="m107.5 360.56h-3v-3"/><path d="m104.5 352.65v-17.18" stroke-dasharray="4.91 4.91 4.91 4.91"/><path d="m104.5 333.02v-27" stroke-dasharray="4.91 4.91 4.91 4.91 4.91 4.91"/><path d="m156.5 303.56v-3h3"/><path d="m163.68 300.56h14.64" stroke-dasharray="4.18 4.18 4.18 4.18"/><path d="m180.41 300.56h23" stroke-dasharray="4.18 4.18 4.18 4.18 4.18 4.18"/><path d="m205.5 300.56h3v3"/><path d="m208.5 308.47v17.18" stroke-dasharray="4.91 4.91 4.91 4.91"/><path d="m208.5 328.11v27" stroke-dasharray="4.91 4.91 4.91 4.91 4.91 4.91"/><path d="m208.5 357.56v3h-3"/><path d="m201.32 360.56h-14.64" stroke-dasharray="4.18 4.18 4.18 4.18"/><path d="m184.59 360.56h-23" stroke-dasharray="4.18 4.18 4.18 4.18 4.18 4.18"/><path d="m159.5 360.56h-3v-3"/><path d="m156.5 352.65v-17.18" stroke-dasharray="4.91 4.91 4.91 4.91"/><path d="m156.5 333.02v-27" stroke-dasharray="4.91 4.91 4.91 4.91 4.91 4.91"/><path d="m208.5 303.56v-3h3"/><path d="m215.68 300.56h14.64" stroke-dasharray="4.18 4.18 4.18 4.18"/><path d="m232.41 300.56h23" stroke-dasharray="4.18 4.18 4.18 4.18 4.18 4.18"/><path d="m257.5 300.56h3v3"/><path d="m260.5 308.47v17.18" stroke-dasharray="4.91 4.91 4.91 4.91"/><path d="m260.5 328.11v27" stroke-dasharray="4.91 4.91 4.91 4.91 4.91 4.91"/><path d="m260.5 357.56v3h-3"/><path d="m253.32 360.56h-14.64" stroke-dasharray="4.18 4.18 4.18 4.18"/><path d="m236.59 360.56h-23" stroke-dasharray="4.18 4.18 4.18 4.18 4.18 4.18"/><path d="m211.5 360.56h-3v-3"/><path d="m208.5 352.65v-17.18" stroke-dasharray="4.91 4.91 4.91 4.91"/><path d="m208.5 333.02v-27" stroke-dasharray="4.91 4.91 4.91 4.91 4.91 4.91"/></g></svg>