<svg viewBox="0 0 1000 1000" xmlns="http://www.w3.org/2000/svg" xmlns:xlink="http://www.w3.org/1999/xlink"><path d="m0 0h1000v1000h-1000z" fill="#f0d9b5"/><path d="m0 0h1000v1000h-1000z" fill="none"/><path d="m-900 300h100v100h-100z" fill="#b58863" transform="scale(-1 1)"/><path d="m-700 300h100v100h-100z" fill="#b58863" transform="scale(-1 1)"/><path d="m-499.99997 300h100v100h-100z" fill="#b58863" transform="scale(-1 1)"/><path d="m-299.99997 300h100v100h-100z" fill="#b58863" transform="scale(-1 1)"/><path d="m-99.999969 300h100v100h-100z" fill="#b58863" transform="scale(-1 1)"/><g fill="#b58863" transform="matrix(-1 0 0 1 1100 400)"><path d="m100 0h100v100h-100z"/><path d="m300 0h100v100h-100z"/><path d="m500 0h100v100h-100z"/><path d="m700 0h100v100h-100z"/><path d="m900 0h100v100h-100z"/></g><path d="m-900 500h100v100h-100z" fill="#b58863" transform="scale(-1 1)"/><path d="m-700 500h100v100h-100z" fill="#b58863" transform="scale(-1 1)"/><path d="m-499.99997 500h100v100h-100z" fill="#b58863" transform="scale(-1 1)"/><path d="m-299.99997 500h100v100h-100z" fill="#b58863" transform="scale(-1 1)"/><path d="m-99.999969 500h100v100h-100z" fill="#b58863" transform="scale(-1 1)"/><g fill="#b58863" transform="matrix(-1 0 0 1 1100 600)"><path d="m100 0h100v100h-100z"/><path d="m300 0h100v100h-100z"/><path d="m500 0h100v100h-100z"/><path d="m700 0h100v100h-100z"/><path d="m900 0h100v100h-100z"/></g><path d="m-900 700h100v100h-100z" fill="#b56363" transform="scale(-1 1)"/><path d="m-700 700h100v100h-100z" fill="#b56363" transform="scale(-1 1)"/><path d="m-499.99997 700h100v100h-100z" fill="#b56363" transform="scale(-1 1)"/><path d="m-299.99997 700h100v100h-100z" fill="#b56363" transform="scale(-1 1)"/><path d="m-99.999969 700h100v100h-100z" fill="#b56363" transform="scale(-1 1)"/><g fill="#b56363" transform="matrix(-1 0 0 1 1100 800)"><path d="m100 0h100v100h-100z"/><path d="m300 0h100v100h-100z"/><path d="m500 0h100v100h-100z"/><path d="m700 0h100v100h-100z"/><path d="m900 0h100v100h-100z"/></g><path d="m-900 900h100v100h-100z" fill="#b56363" transform="scale(-1 1)"/><path d="m-700 900h100v100h-100z" fill="#b56363" transform="scale(-1 1)"/><path d="m-499.99997 900h100v100h-100z" fill="#b56363" transform="scale(-1 1)"/><path d="m-299.99997 900h100v100h-100z" fill="#b56363" transform="scale(-1 1)"/><path d="m-99.999969 900h100v100h-100z" fill="#b56363" transform="scale(-1 1)"/><g id="a" fill="#b56363"><path d="m100 0h100v100h-100z" fill="#b56363"/><path d="m300 0h100v100h-100z" fill="#b56363"/><path d="m500 0h100v100h-100z" fill="#b56363"/><path d="m700 0h100v100h-100z" fill="#b56363"/><path d="m900 0h100v100h-100z" fill="#b56363"/></g><g fill="#b56363"><use height="100%" transform="translate(-100 100)" width="100%" xlink:href="#a"/><g><path d="m100 200h100v100h-100z"/><path d="m300 200h100v100h-100z"/><path d="m500 200h100v100h-100z"/><path d="m700 200h100v100h-100z"/><path d="m900 200h100v100h-100z"/></g></g></svg>