<svg height="1002" viewBox="0 0 1002 1002" width="1002" xmlns="http://www.w3.org/2000/svg"><g stroke="#000"><path d="m1.053979 1.053979h999.89203v999.89203h-999.89203z" fill="#fdd775" stroke-width="2.107958"/><path d="m1.053979 1.053979h999.89203v999.89203h-999.89203z" fill="none" stroke-width="2.107958"/><path d="m56.603539 51.04858h888.792941" stroke-width="2.107958"/><path d="m56.603539 151.03778h888.792941" stroke-width="2.107958"/><path d="m56.603539 251.02699h888.792941" stroke-width="2.107958"/><path d="m56.603539 351.0162h888.792941" stroke-width="2.107958"/><path d="m56.603539 451.0054h888.792941" stroke-width="2.107958"/><path d="m56.603539 550.99463h888.792941" stroke-width="2.107958"/><path d="m56.603539 650.98383h888.792941" stroke-width="2.107958"/><path d="m56.603539 750.97302h888.792941" stroke-width="2.107958"/><path d="m56.603539 850.96222h888.792941" stroke-width="2.107958"/><path d="m56.603539 950.95142h888.792941" stroke-width="2.107958"/><path d="m56.603539 51.04858v899.90284" stroke-width="2.107958"/><path d="m167.70265 51.04858v499.94605" stroke-width="2.634947"/><path d="m278.80176 51.04858v499.94605" stroke-width="2.634947"/><path d="m389.90088 51.04858v499.94605" stroke-width="2.634947"/><path d="m501 51.04858v499.94605" stroke-width="2.634947"/><path d="m612.09912 51.04858v499.94605" stroke-width="2.634947"/><path d="m723.19824 51.04858v499.94605" stroke-width="2.634947"/><path d="m834.29736 51.04858v499.94605" stroke-width="2.634947"/><path d="m945.39648 51.04858v899.90284" stroke-width="2.107958"/><path d="m167.70265 550.99463v399.95679" stroke-width="2.107958"/><path d="m278.80176 550.99463v399.95679" stroke-width="2.107958"/><path d="m389.90088 550.99463v399.95679" stroke-width="2.107958"/><path d="m501 550.99463v399.95679" stroke-width="2.107958"/><path d="m612.09912 550.99463v399.95679" stroke-width="2.107958"/><path d="m723.19824 550.99463v399.95679" stroke-width="2.107958"/><path d="m834.29736 550.99463v399.95679" stroke-width="2.107958"/><path d="m389.90088 51.04858 222.19824 199.97841" stroke-width="2.107958"/><path d="m389.90088 251.02699 222.19824-199.97841" stroke-width="2.107958"/><path d="m389.90088 750.97302 222.19824 199.9784" stroke-width="2.107958"/><path d="m389.90088 950.95142 222.19824-199.9784" stroke-width="2.107958"/><g fill="none"><g stroke-width="4.7772" transform="matrix(.41111118365 -.37000005048 .41111118365 .37000005048 -32.9301308168 213.7210169876)"><path d="m194 267.05v53.557"/><path d="m220.78 293.83h-53.557"/></g><path d="m194 267.03.022 26.606-26.959-.0298" stroke-width="4.7913" transform="matrix(.40991131315 .36892016708 .40991131315 -.36892016708 744.407081008 387.612241664)"/><g stroke-width="4.7772" transform="matrix(.41111118365 -.37000005048 .41111118365 .37000005048 78.4500699568 313.8602047936)"><path d="m194 267.05v53.557"/><path d="m220.78 293.83h-53.557"/></g><g stroke-width="4.7772" transform="matrix(.41111118365 -.37000005048 .41111118365 .37000005048 633.59681872 214.1209738036)"><path d="m194 267.05v53.557"/><path d="m220.78 293.83h-53.557"/></g><g stroke-width="4.7772" transform="matrix(.41111118365 -.37000005048 .41111118365 .37000005048 522.742116784 314.170171326)"><path d="m194 267.05v53.557"/><path d="m220.78 293.83h-53.557"/></g><g stroke-width="4.7772" transform="matrix(.41111118365 -.37000005048 .41111118365 .37000005048 300.332788456 313.9501950772)"><path d="m194 267.05v53.557"/><path d="m220.78 293.83h-53.557"/></g><path d="m194 267.03.022 26.606-26.959-.0298" stroke-width="4.7913" transform="matrix(-.40991131315 .36892016708 -.40991131315 -.36892016708 257.30409928 387.7322287088)"/><g stroke-width="4.7772" transform="matrix(.41111118365 .37000005048 .41111118365 -.37000005048 -33.00915673185 788.0090101616)"><path d="m194 267.05v53.557"/><path d="m220.78 293.83h-53.557"/></g><path d="m194 267.03.022 26.606-26.959-.0298" stroke-width="4.7913" transform="matrix(.40991131315 -.36892016708 .40991131315 .36892016708 744.32805509295 614.1177854852)"/><g stroke-width="4.7772" transform="matrix(.41111118365 .37000005048 .41111118365 -.37000005048 78.37104404175 687.8698223556)"><path d="m194 267.05v53.557"/><path d="m220.78 293.83h-53.557"/></g><g stroke-width="4.7772" transform="matrix(.41111118365 .37000005048 .41111118365 -.37000005048 633.51779280495 787.6090533456)"><path d="m194 267.05v53.557"/><path d="m220.78 293.83h-53.557"/></g><g stroke-width="4.7772" transform="matrix(.41111118365 .37000005048 .41111118365 -.37000005048 522.66309086895 687.5598558232)"><path d="m194 267.05v53.557"/><path d="m220.78 293.83h-53.557"/></g><g stroke-width="4.7772" transform="matrix(.41111118365 .37000005048 .41111118365 -.37000005048 300.25376254095 687.779832072)"><path d="m194 267.05v53.557"/><path d="m220.78 293.83h-53.557"/></g><path d="m194 267.03.022 26.606-26.959-.0298" stroke-width="4.7913" transform="matrix(-.40991131315 -.36892016708 -.40991131315 .36892016708 257.22507336495 613.9977984404)"/></g></g></svg>