<?xml version="1.0" encoding="UTF-8" standalone="no"?>
<svg
   xmlns:dc="http://purl.org/dc/elements/1.1/"
   xmlns:cc="http://creativecommons.org/ns#"
   xmlns:rdf="http://www.w3.org/1999/02/22-rdf-syntax-ns#"
   xmlns:svg="http://www.w3.org/2000/svg"
   xmlns="http://www.w3.org/2000/svg"
   xmlns:xlink="http://www.w3.org/1999/xlink"
   xmlns:sodipodi="http://sodipodi.sourceforge.net/DTD/sodipodi-0.dtd"
   xmlns:inkscape="http://www.inkscape.org/namespaces/inkscape"
   viewBox="0 0 900 1000"
   version="1.1"
   id="svg11981"
   sodipodi:docname="JanggiStone.svg"
   inkscape:version="1.0 (4035a4fb49, 2020-05-01)">
  <metadata
     id="metadata11985">
    <rdf:RDF>
      <cc:Work
         rdf:about="">
        <dc:format>image/svg+xml</dc:format>
        <dc:type
           rdf:resource="http://purl.org/dc/dcmitype/StillImage" />
      </cc:Work>
    </rdf:RDF>
  </metadata>
  <sodipodi:namedview
     pagecolor="#ffffff"
     bordercolor="#666666"
     borderopacity="1"
     objecttolerance="10"
     gridtolerance="10"
     guidetolerance="10"
     inkscape:pageopacity="0"
     inkscape:pageshadow="2"
     inkscape:window-width="1261"
     inkscape:window-height="728"
     id="namedview11983"
     showgrid="false"
     inkscape:zoom="0.53714019"
     inkscape:cx="450"
     inkscape:cy="500"
     inkscape:window-x="183"
     inkscape:window-y="419"
     inkscape:window-maximized="0"
     inkscape:current-layer="svg11981"
     inkscape:document-rotation="0" />
  <style
     id="style11741"><![CDATA[.B{color-interpolation-filters:sRGB}.C{opacity:.354}.D{fill:#89919b}.E{stroke-width:4.913}]]></style>
  <defs
     id="defs11794">
    <filter
       id="A"
       class="B">
      <feTurbulence
         type="fractalNoise"
         numOctaves="3"
         baseFrequency="0.025999999999999988 0.39400000000000002"
         seed="0"
         id="feTurbulence11743" />
      <feColorMatrix
         values="0"
         type="saturate"
         id="feColorMatrix11745"
         result="result1" />
      <feComposite
         in="SourceGraphic"
         operator="arithmetic"
         k1="0.43000000000000005"
         k2="0.48999999999999999"
         k3="-0.14999999999999999"
         k4="0.050000000000000044"
         in2="result1"
         id="feComposite11747" />
      <feBlend
         in2="SourceGraphic"
         id="feBlend11749" />
      <feComposite
         in2="SourceGraphic"
         operator="in"
         id="feComposite11751" />
    </filter>
    <filter
       id="B"
       class="B">
      <feTurbulence
         type="fractalNoise"
         numOctaves="3"
         baseFrequency="0.0030000000000000001 1"
         seed="0"
         id="feTurbulence11754" />
      <feColorMatrix
         values="0"
         type="saturate"
         id="feColorMatrix11756"
         result="result1" />
      <feComposite
         in="SourceGraphic"
         operator="arithmetic"
         k1="0.43"
         k2="0.49"
         k3="-0.15"
         k4="0.05"
         in2="result1"
         id="feComposite11758" />
      <feBlend
         in2="SourceGraphic"
         id="feBlend11760" />
      <feComposite
         in2="SourceGraphic"
         operator="in"
         id="feComposite11762" />
    </filter>
    <filter
       id="D"
       class="B">
      <feTurbulence
         type="fractalNoise"
         numOctaves="3"
         baseFrequency="0.0030000000000000001 1"
         seed="0"
         id="feTurbulence11770" />
      <feColorMatrix
         values="0"
         type="saturate"
         id="feColorMatrix11772"
         result="result1" />
      <feComposite
         in="SourceGraphic"
         operator="arithmetic"
         k1="1.6000000000000001"
         k2="0.51000000000000001"
         k3="-0.19"
         k4="0.039999999999999897"
         in2="result1"
         id="feComposite11774" />
      <feBlend
         in2="SourceGraphic"
         id="feBlend11776" />
      <feComposite
         in2="SourceGraphic"
         operator="in"
         id="feComposite11778" />
    </filter>
    <filter
       id="E"
       class="B">
      <feTurbulence
         type="fractalNoise"
         numOctaves="3"
         baseFrequency="0.0030000000000000001 1"
         seed="0"
         id="feTurbulence11781" />
      <feColorMatrix
         values="0"
         type="saturate"
         id="feColorMatrix11783"
         result="result1" />
      <feComposite
         in="SourceGraphic"
         operator="arithmetic"
         k1="1.6"
         k2="0.51"
         k3="-0.19"
         k4="0.04"
         in2="result1"
         id="feComposite11785" />
      <feBlend
         in2="SourceGraphic"
         id="feBlend11787" />
      <feComposite
         in2="SourceGraphic"
         operator="in"
         id="feComposite11789" />
    </filter>
    <path
       id="F"
       d="M70.732 279.344c-.116.255-.15.533-.025.857l-.943 1.898 4.623 3.303c1.488 1.17 2.523 2.605 1.813 4.486-2.006 2.095-4.506 3.7-7.193 4.95.14.174.25.41.31.6.2.605-1.51 2.653-2.2 3.654l4.246-2.957.11-.082.293-.2 3.86.11 3.186-.07 1.818-.58c1.19-.258 9.987-3.5 10.842-1.668.687 1.48-.48 2.74-1.11 3.873-.245.3-.478.633-.715.95 2.794.897 5.743 2.04 7.053 4.705-.033.367.058.766-.098 1.1-.2.428-.516.83-.916 1.08-3.144 1.973-6.413 3.735-9.65 5.55-3.036 1.703-6.32 2.88-9.568 4.092l-1.424.553-1.432 4.055c10.864-.245 21.68-1.437 32.377-3.336 1.405-.16 2.747-.672 4.143-.885.153-.023.423-.13.465.018.132.462.345 1.166-.05 1.44-2.258 1.582-3.8 2.55-5.176 3.28 5.26.3 10.52-.767 15.686-1.637l8.04-1.762c.96-.224 2.258-.82 3.236-.402-.486 4.984.252 1.28-9.594 6.844-2.065 1.167-4.7 2.33-6.777 3.28-6.967 3.173-4.905 2.236-12.61 5.418-14.3 6.06-28.925 11.282-43.57 16.43-1.366.213-2.693.782-4.033 1.287v62.246c5.267-3.12 11.573-7.918 17.986-7.482 2.368.16 3.577.87 5.71 1.762 3.077 1.698 5.47 4.03 7.385 6.77 1.12.5 1.748 1.8 2.072 3.47a35.78 35.78 0 0 1 .736 1.51c.63 2.027 2.175 4.932.734 6.986-.25.356-.616.615-.924.922l-.713.4-.31 2.432c-.956 5.77-2.215 11.506-3.975 17.082l.232.057c.384.04.786.173 1.166.21 2.843.27 4.205.5 7.164.89l4.635.596 1.22.166h248.05c-2.63-1.613-5.322-2.758-8.623-3.018-4.754-1.002-9.64-1.203-14.326-2.566-3.51-1.077-11.02-2.604-11.797-7.156-.115-.674.176-1.355.264-2.033.943-1.26 1.93-2.334 2.963-3.297-18.423.03-28.32-.44-48.916-1.943-14.89-1.087-31.84-2.624-46.687-5.053-5.654-.925-11.225-2.292-16.838-3.437-5.506-1.72-14.07-3.633-19.176-7.422-1.17-.87-3.308-2.257-2.6-3.525 3.695-6.526 15.52-8.494 21.902-9.947l92.48-17.826 12.72-2.71c1.663-.388 3.283-1.04 4.922-1.555l-.25-.022c-2.543-.242-5.102-.285-7.652-.428l-122.455-2.27c-33.958-.97-67.92-2.025-101.746-5.326.265-.35.51-.715.764-1.074-.504.077-1.01.145-1.5.24-.516.098-1.956.758-1.486.523a164.78 164.78 0 0 1 3.721-1.781c.685-.978 1.386-1.94 2.22-2.79.32-.327.893-.22 1.348-.28 1.588-.207 3.18-.364 4.775-.52l8.717-.795 31.488-2.64 102.27-8.434c-5.144-.19-19.31-.8-24.336-3.867-.326-.2-.547-.508-.744-.844-10.574.478-18.246 1.114-31.402 2.04l-44.316 4.182a168.41 168.41 0 0 0-6.91.957c-.752.122-2.824.996-2.225.525 1.268-.994 2.635-1.85 4.02-2.678.59-.66 1.205-1.29 1.918-1.81.43-.314 1.012-.265 1.568-.27l.508-.31 67.102-12.39c8.484-1.03 16.763-3.63 25.273-4.498.025-.003 4.16-.64 4.715.766.183.465-.245.97-.367 1.455-4.875 4.024-10.935 5.96-16.48 8.764l.848-.035 1.916-.89c.193.24.343.534.523.79 25.57-1.1 51.162-1.343 76.76-.057 1.596.122 6.637.337 10.207.9l13.1-1.598c-4.416-1.93-8.994-3.533-13.39-5.44l-98.367-37.87-40.086-13.805-16.594-5.187zm92.193 0l5.37 1.746 39.998 13.883 98.963 37.486c6.24 2.634 12.876 4.53 18.94 7.6l.12.063 34.52-5.14c1.38 1.346 5.258-1.725 7.197-.31 1.266.924-.688 2.28-1.895 2.994l-1.74 1.02c30.218-3.004 60.427-6.106 90.498-10.354-.358.53-.695 1.078-1.035 1.623.256-.06.51-.13.766-.197l2.87-1.365c.492-.224-.832.732-1.342.9-.502.176-1.013.32-1.527.455l-.932.46c-.626 1-1.265 1.988-2.02 2.89-.305.363-.833.473-1.29.602-1.453.408-2.937.7-4.416 1.002-10.223 2.086-20.54 3.683-30.8 5.568l-46.125 7.525c-5.974.86-16.17 2.228-22.602 2.607-1.9.112-3.806-.002-5.71-.002-.895-.324-3.25-.205-2.686-.97 2.518-3.407 7.828-5.103 12.797-6.637l-23.89 2.262c-2.35 1.24-4.678 2.535-7.146 3.5-1.23.486-2.612.42-3.918.627l-4.754.756c-5.308.775-10.642 1.316-15.955 2.05l-1.492.242-2.77.69c-.95.225-3.172 1.568-2.863.64.043-.128.1-.237.148-.36-.17.038-.342.067-.512.11-.508.126-1.913.824-1.477.535l2.434-1.582c1.958-3.422 6.205-3.83 9.896-4.258l.123-.03c-.077-.043-.152-.086-.232-.104-.426-.094-.857-.17-1.285-.254l-170.666 14.756L99.37 365c6.21.73 4.08.702 18.717 1.838 23.08 1.79 46.2 2.505 69.33 3.264 41.1 1.48 82.235.89 123.344 1.627 2.652 2.945 8.293-1.32 11.535.762.505.324.444 1.466-.055 1.8-3.38 2.266-7.1 4.054-10.88 5.533-2.65 1.034-20.24 4.4-21.084 4.568-30.764 6.41-61.72 11.83-92.555 17.873-1.83.442-11.763 2.418-14.172 4.277-1.216.94 2.92-1.63 4.422-1.307 1.117.24 1.165 2.048 2.096 2.71 2.043 1.455 4.324 2.58 6.65 3.518 3.827 1.54 7.833 2.59 11.75 3.887 5.508 1.19 10.972 2.606 16.523 3.572 14.812 2.578 31.253 4.184 46.152 5.344 20.37 1.586 30.28 2.084 48.453 2.047 2.407-1.558 5.05-2.94 8.014-4.65 7.007-4.046 14.512-7.14 21.848-10.514l1.908-.873c-28.247-1.463-56.538-2.04-84.818-2.37-3.334-2.55-8.32 1.325-11.984-.27-.44-.19-.313-1.196.104-1.432 1.877-1.06 3.82-2 5.805-2.865.013-.056.244-.145.496-.203 1.568-.66 3.156-1.272 4.768-1.807 2.085-.69 19.896-3.413 20.22-3.465l77.375-12.77c7.206-.877 14.97-4.7 22.19-2.16 5.113 2.3 5.65 4.134 2.475 8.77-.876.9-1.654 1.888-2.627 2.67-6.923 5.567-15.37 9.065-23.375 12.748l24.773 1.498c15.288 1.348 30.468 2.727 45.607 5.29 2.286.387 4.62.615 6.836 1.297 1.175.362 3.853.744 3.22 1.8-1.503 2.51-4.837 3.3-7.256 4.936-8.14 1.604-16.277 2.316-24.55 3.004-20.362 1.694-40.75 3.067-61.168 3.906l-27.176.658-2.75.01-.295.393c-.12.56-.43 1.11-.365 1.678.395 3.503 8.514 5.5 11.172 6.28 4.724 1.268 9.61 1.433 14.375 2.457 4.495.3 7.792 2.456 11.336 5.035l-3.53 2.244H484.97l-.176-.64c-.415-.146-.826-.3-1.18-.555-1.666-1.194-1.975-2.953-1.658-4.816-1.967 1.24-4.328 2.183-7.492 2.834-.7.144-.597-1.32-.713-2.027-.157-.955-.066-1.933-.1-2.9 1.06-9.147 4.86-17.666 9.264-25.654 2.2-3.464 4.068-5.37 7.21-6.955.394-2.426.85-4.843 1.348-7.25l-7.48-.098c-1.876-.04-8.453.33-10.06-1.48-.115-.13-.096-.303-.047-.486l-.73-.057c-8.44-.8-16.995-1.315-25.232-3.44-2.527-.704-5.036-1.652-7.266-3.05-1.22-.597-3.253-2.335-1.236-3.623 3.22-2.058 6.642-3.783 9.963-5.674 1.333-.378 2.652-.807 3.998-1.135 4.155-1.012 13.06-2.778 16.676-3.506 13.316-2.68 26.674-5.013 40.06-7.297v-66.062c-1.672.306-3.052-.05-4.328-.875l-1.2.69c-1.984 1.547-4.46 2.94-8.094 4.586-.257.116-.478-.163-.703-.412l-2.98 2.197-2.47 1.86c-.05.217-.122.415-.297.535-.113.078-.232.148-.346.225-.28 1.4-.833 1.594-3.432 2.307l-1.758 1.32c-.56.424-1.033.987-1.668 1.287-.274.13-.55.25-.826.377-1.026 1.174-1.96 1.353-5.36 2.287l-3.11 1.24c-.203.08.09-.18.482-.508-.183.034.058-.133.445-.37.793-.654 1.583-1.323.406-.707 3.107-3.545 5.413-5.847 3.47-10.803-.467-.73-.875-1.504-1.402-2.193-3.36-4.397-8.207-7.203-12.475-10.586-.507-.545-1.987-1.053-1.52-1.635 3.937-4.92 7.197-6.405 12.48-7.348 1.526-.272 10.922-1.7 11.674-1.826l3.303-.506c-.15-.267-.166-.617-.27-.912.874-1.614 2.457-3.17 4.318-4.613zm98.043 123.783l-.496.203c-.004.017.008.03.05.04.248.052.582.096.92.14.06-.104.117-.208.14-.305.04-.17-.3-.148-.61-.076zm238.38-123.783c-.273.296-.52.583-.7.846.028.1-.017.282.086.33.145.07.347.132.588.19.015-.02.03-.036.045-.055.144-.18.255-.398.383-.596-.003-.24-.014-.477-.023-.715zm10.217 0l-.016.766c.217-.05.343-.09.57-.14v-.627zM56.357 281.53l-.61 1.014v6.63l3.088-3.113.852-1.03a30.33 30.33 0 0 1-2.27-2.121c-.388-.48-.736-.93-1.06-1.38zm443.516 5.682l-4.324.637c-2.37 1.64-4.82 3.173-7.38 4.457.81 1.12 1.322 2.473 1.748 3.805.326 1.192.526 2.384.643 3.576 1.38-1.927 2.848-3.795 4.418-5.576.963-1.093 1.982-2.134 3-3.178-.3-.2-.5-.433-.508-.723-.01-.387.047-.898.38-1.098l2.072-1.26-.05-.64zm-10.988 1.662l-8.137 1.273c-2.697.667-5.5 1-8.28 1.424 2.006 1.735 4.165 3.303 6.248 4.957l.023-.5c-.067-.042-.134-.066-.2-.113-.04-.084-.063-.17-.1-.254-.108-.065-.213-.13-.328-.19-.05.02-.102.037-.152.055l.12-.074c-.027-.014-.05-.03-.076-.045l.342-.258c-.083-2.298 3.845-4.567 6.5-4.86l.65-.482c.165-.12 1.293-.228 2.422-.375l.97-.564zm-2.457.807c-.145-.012-.402.22-.8.588.242.015.47.05.664.115l.37-.217c-.055-.315-.118-.476-.234-.486zm-419.445 1.043c-.077.17-.16.364-.28.656-.323.784.08.727.896.643.14-.014.28-.048.418-.072-.202-.426-.6-.826-1.033-1.227zm-8.645.535a82.27 82.27 0 0 1-2.592 2.371v5.69l.836-2.014c-.04-.306-.102-.612-.14-.918-.01.005-.017.01-.025.016.008-.006.017-.01.025-.018-.027-.216-.044-.432-.012-.646.132-.87 1.546-3.726 1.908-4.48zm407.088 1.902c-.09.03-.185.053-.275.086-.6.215-2.246 1.207-1.672.93a36.76 36.76 0 0 0 1.947-1.016zm31.367.133c-.084.043-.152.07-.238.115s.073.01.223-.04c.004-.023.01-.05.016-.074zM64.96 296.428l-1.434.453c-.005.014-.01.027-.016.04l-.043.33c.5-.29.995-.55 1.492-.824zm431.984 1.943a63.38 63.38 0 0 0-4.705 8.568c.17-.033.347-.077.508-.115l2.432-1.73c.163-1.407.733-3.22 1.023-4.254.233-.83.492-1.648.742-2.47zm-425.838 3.023l-7.31 2.37c-2.597 3.625-5.097 7.332-6.984 11.357-.276.984.078.81 1.076.443 2.07-.76 4.015-1.864 5.977-2.854 7.3-3.876-1.822.956 5.727-3 .634-.333 1.925-1.142 3.232-1.78l.377-1.04c.194-.808 1.63-4.047.898-5.176-.994-.14-1.993-.24-2.992-.314zm14.258 3.373c-1.328 2.006-2.717 3.962-4.314 5.736l2.268-.89c2.724-1.078 3.564-1.365 5.137-2.086-.543-1.227-1.723-2.092-3.1-2.76zm2.9 3.354l-1.176.693c-.34.208.73-.328 1.053-.562.05-.036.084-.086.123-.13zm-19.896 4.074c-.09-.008-.174-.008-.254.025-1.035.435-1.9 1.2-2.887 1.736-2.743 1.493-5.556 2.864-8.31 4.342-.23.096-.694.342-1.174.594v1.74c2.198-1.13 4.893-2.183 6.242-2.807l6.307-2.445c.274-1.037.45-2.09.34-3.16-.087 0-.177-.017-.266-.025zm-1.05 6.307l-2.572.98.928.045 1.29.035.354-1.06zm59.87.352c-3.134 1.54-4.562 1.596-4.076 2.02l3.943-1.945c.03-.015.1-.057.133-.074zm-29.363 2.838c-8.543 1.188-17.124 2.088-25.732 2.61l-.164.547c-.685 2.515-2.667 8.147-.53 10.488 1.788.313 3.392-.812 5.127-1.076.25.12.545.177.754.36 1.186 1.05-1.616 3.12-2.143 3.574l-7.516 4.465c14.217-4.736 28.31-9.846 42.066-15.81l9.242-4.035-4.953.98c-5.702.935-11.536 2.188-17.332 1.535-.377-.15-.814-.2-1.133-.45-.394-.312-.98-1.116-.283-1.56l2.598-1.633zm-32.6 2.94l-1.838.07c-.668.006-4.833.174-7.643.06v21.78l5.422-2.86c2.064-.793 4.098-1.667 6.094-2.62.337-.265.648-.554.94-.863-1.526.508-2.96 1.118-4.563.408-2.6-3.198-.692-8.49.29-11.95.396-1.353.84-2.7 1.297-4.023zM426.06 335.34l-67.744 6.758c-1.457.718-2.84 1.293-5.707 2.527-1.328.572-2.68 1.074-4.04 1.56 1.232.034 2.463.067 3.693.006 12.4-.62 24.796-2.692 37.05-4.598l31.018-5.2 5.73-1.053zm-206.158.422c-.515.003-1.106.033-1.766.094-8.35.77-16.498 3.17-24.812 4.174l-32.275 5.875 20.75-1.648 28.637-1.662c3.14-2.297 5.7-4.06 9.5-5.768.4-.18 1.04-.567 1.645-.922-.4-.094-.96-.147-1.678-.143zm2.34.523a5.56 5.56 0 0 1-.83.463c.33-.086.84-.04.863-.355.003-.04-.02-.072-.033-.107zm-1.156.61c-.59.258-1.196.503-1.686.873-.528.4.937-.464 1.686-.873zm-148.387 1.262l-3.475 1.932 1.375-.72c.71-.388 2.8-1.6 2.1-1.213zm287.64.547c-1.998-.05-4.78.444-5.105.477l-10.914 1.516 16.318-1.633.63-.283a7.14 7.14 0 0 0-.928-.076zm1.123.117c-.133.075-.206.112-.348.195l.758-.076c-.12-.048-.258-.087-.4-.12zm-125.373 6.305l-11.572.152c5.287.833 11.074 1.17 14.39 1.32 12.08.55 19.537-.116 31.87-.695l1.44-.084c-12.036-.458-24.083-.734-36.127-.693zm86.883 1.23c-.39.183-.76.374-1.053.6.355-.123.947-.01 1.064-.367.023-.07.008-.152-.012-.232zm-13.152.2l-4.916.42-.285.248 5.2-.668zM510.12 372.76l-2.512.465-43.596 8.455c-4.35.965-11.22 2.503-16.172 3.88.264.14.517.272.654.404 2.16 1.288 4.52 2.236 6.924 2.96 7.942 2.234 16.2 3.064 24.387 3.838l1.412.11c3.023-1.7 6.1-3.307 9.28-4.658.043-.13.078-.254.127-.39.738-1.314 1.588-2.37 2.906-3.18 4.807-2.957 9.565-5.92 14.74-8.162l1.85-.77zm-193.943 3.89c-.307.3-.596.576-.73.81-.188.328 1.175-.575.844-.758-.037-.02-.076-.034-.113-.053zm193.943 1.543c-2.907 1.16-5.792 2.374-8.64 3.674.563-.378.533-.406.29-.305-.332.23-.794.54-1 .72-.983.807-.915.836-1.64 1.814-.275.545-.472 1.053-.61 1.54.63-.064 1.255.014 1.883.45 1.19.83.508 3.64-.082 5.777a43.66 43.66 0 0 0 1.072 1.307c.42.356.853.748 1.297 1.158l5.572.174c.055-.14.12-.274.172-.414.254-.67.144-1.552.447-2.168.2-1.215.508-2.158 1.252-2.865zm-62.094 5.654c-.105-.003-1.117.414-1.18.756l1.158-.723c.033-.022.037-.033.02-.033zm-74.03 2.588c-5.4.132-10.938 2.288-16.197 2.82l-89.006 14.645 3.184.07 86.674 2.96c-.197.077-.014-.04 8.543-4.037 5.872-2.743 9.496-3.457 14-8.262 3.126-3.98 2.984-5.518-1.852-7.52-1.763-.54-3.552-.722-5.355-.678zm116 4.9l-.754.24c-1.428.49-2.848 1.025-4.258 1.584l5.568.418a5.97 5.97 0 0 1-.557-2.242zm8.074 10.395c-.31 1.63-.58 3.265-.81 4.904.933 1.922 1.68 4.677 1.805 5.102.023.09.04.184.063.275a198.74 198.74 0 0 0 3.629-6.32c-1.636-1.17-3.176-2.558-4.687-3.96zm12.06 4.75c-.942.723-1.58.905-2.928 1.002-2.13 3.54-4.334 7.037-6.605 10.5 1.397-.837 2.81-1.645 4.28-2.342.76-.36 1.273 1.652 1.277 1.695.117 1.062-.078 2.198-.38 3.314 1.138-.496 2.294-.926 3.492-1.182l.266-.146c.022-.035.058-.113.076-.135.1-.133.326-.116.488-.174-.185.108-.378.204-.564.31-.018.028-.04.073-.06.107.203-.04.405-.087.61-.115.02-.003.028.008.045.008zm-444.053 3.23c-1.812.05-3.592.49-5.363 1.15-.33.123-.832.382-1.346.656a14.97 14.97 0 0 0-.594.479 27.68 27.68 0 0 0-3.018 3.023v10.996a4.42 4.42 0 0 1 .883.443c1.404 1.783 2.798 3.534 4.52 4.957.077-.192.158-.383.227-.578 1.56-2.436 2.12-3.575 4.197-5.695 3.543-3.615 8.114-6.34 12.645-8.834-1.66-2.114-3.688-3.91-6.223-5.227-.875-.333-1.72-.765-2.627-1a11.78 11.78 0 0 0-3.301-.371zm290.426.037l-1.568.705c-.175.1 1.86-.837 1.568-.705zm-1.55.707c1.362-.617 2.03-.926-10.857 4.947-7.402 3.406-14.983 6.536-22 10.7-.526.312 2.04-1.2 1.693-.707-.237.342-.542.622-.865.885l3.834-.018c9.077-.072 18.15-.478 27.223-.717 20.635-.92 41.238-2.45 61.8-4.412 5.648-.54 11.218-1.1 16.758-1.977a197.91 197.91 0 0 0-5.961-1.205l-11.057-1.96c-13.944-2.106-19.143-2.384-33.78-3.79l-26.775-1.746zm-.02-.002c-.044-.002-.09-.005-.133-.008-4.202 1.955-2.06.997.133.008zm134.363 2.654c-3.82 6.92-6.886 14.326-7.645 22.258l.05 1a23.87 23.87 0 0 1 1.758-1.344l5.633-7.664-.123-1.32c-.297-4.333-.123-8.643.326-12.93zm-410.385 5.104c-.392.02-.793.147-1.16.275-3.247 2.33-6.153 5.01-8.184 8.553-.12.284-.257.562-.39.842 2.002-.87 3.876-1.065 7.357-1.102 1.597-.07 3.196-.145 4.787-.295.03-.973.028-2-.068-3.428-.038-.564-.086-1.443-.262-2.305a26.83 26.83 0 0 0-1.342-2.412c-.23-.1-.482-.142-.738-.13zm431.217 3.027c-.005.043-.022.1-.023.14a28.98 28.98 0 0 1-.111 1.586l.078-.102.057-.07zm0 8.693l-1.064 1.684 1.064-.072zM73.482 431.95l-1.898.1.328.783 1.57-.873zm.594 2.592c-.42-.04-.893.02-1.393.146.062.16.135.32.19.482.016.1.014.167.025.254l1.078.5c.54.006 1.09-.012 1.645-.055-.214-.873-.788-1.266-1.547-1.338zm433.937 1.596l-1.084.06-.172.564a22.78 22.78 0 0 1 1.256-.623zm-8.127.555l-.555.043c-1.064.692-2.14 1.365-3.232 2.006-.263.154-.618-.16-.838-.37-.144-.14-.248-.423-.336-.736-.8.4-1.603.77-2.434 1.076-.063.602-.1 1.216-.04 1.857a25.76 25.76 0 0 0 .234 1.318c.062.02.127.037.188.06a26.3 26.3 0 0 0 4.758-.213 47.19 47.19 0 0 1 1.936-3.904l.32-1.137zm-419.9.195l-3.61 2.197c-.557 1.167-2.442 2.01-4.342 2.63l2.516 1.012c1.252.465 2.513.894 3.783 1.293a100.12 100.12 0 0 0 1.654-7.131zm-24.23 4.398v1.9l.658-.547.3-.225c-.336-.368-.66-.745-.957-1.14zm454.373.256l-2.5 1.303c-2.675.96-5.416 1.71-8.178 2.37-2.485 1.8-2.88 2.265-2.883.66l-1.436.313-.977.19a15.6 15.6 0 0 0 .668 1.217h15.295zm-32.914.818a69.24 69.24 0 0 0-2.062 1.34c-.572.386 1.25-.62 1.773-1.068.087-.075.193-.182.29-.27z" />
    <path
       id="G"
       d="M-400.604-124.515h108.89v108.89h-108.89z" />
  </defs>
  <path
     transform="matrix(3.369353 0 0 3.746791 -14.268913 -10.617027)"
     d="M5.377 3.867h264.83v264.83H5.377z"
     fill="#aab1b7"
     paint-order="fill markers stroke"
     filter="url(#B)"
     id="path11796" />
  <path
     transform="matrix(3.369353 0 0 -3.74679 -14.268913 1010.617)"
     d="M5.377 3.867h264.83v264.83H5.377z"
     opacity=".266"
     fill="#b7babf"
     paint-order="fill markers stroke"
     filter="url(#D)"
     id="path11798" />
  <path
     d="M0 0h900v1000H0z"
     fill="none"
     stroke-width="7.559"
     stroke="#3d3e42"
     id="path11800" />
  <g
     fill="#3d3e42"
     id="g11818">
    <circle
       cx="249.951"
       cy="349.504"
       r="6.5"
       paint-order="fill markers stroke"
       id="circle11802" />
    <circle
       cx="150.087"
       cy="250.049"
       r="6.5"
       paint-order="fill markers stroke"
       id="circle11804" />
    <circle
       cx="49.958"
       cy="350.54"
       r="6.5"
       paint-order="fill markers stroke"
       id="circle11806" />
    <circle
       cx="449.857"
       cy="349.453"
       r="6.5"
       paint-order="fill markers stroke"
       id="circle11808" />
    <circle
       cx="649.953"
       cy="349.691"
       r="6.5"
       paint-order="fill markers stroke"
       id="circle11810" />
    <circle
       cx="750.014"
       cy="249.803"
       r="6.5"
       paint-order="fill markers stroke"
       id="circle11812" />
    <circle
       cx="849.81"
       cy="349.81"
       r="6.5"
       paint-order="fill markers stroke"
       id="circle11814" />
    <circle
       cx="50.076"
       cy="649.807"
       r="6.5"
       paint-order="fill markers stroke"
       id="circle11816" />
  </g>
  <g
     transform="matrix(.684477 0 0 -.884714 187.63209 208.71026)"
     class="D"
     id="g11828">
    <use
       xlink:href="#F"
       transform="matrix(.3318 0 0 -.990575 -220.91107 -40.760387)"
       paint-order="fill markers stroke"
       filter="url(#E)"
       class="C"
       id="use11820" />
    <use
       xlink:href="#F"
       transform="matrix(.3318 0 0 .990575 -69.986399 -596.33751)"
       paint-order="fill markers stroke"
       filter="url(#E)"
       class="C"
       id="use11822" />
    <use
       xlink:href="#F"
       transform="matrix(-.3318 0 0 -.990575 -28.829533 124.00765)"
       paint-order="fill markers stroke"
       filter="url(#E)"
       class="C"
       id="use11824" />
    <use
       xlink:href="#F"
       transform="matrix(-.3318 0 0 .990575 117.76745 -763.0038)"
       paint-order="fill markers stroke"
       filter="url(#E)"
       class="C"
       id="use11826" />
  </g>
  <g
     id="H"
     transform="matrix(.684477 0 0 -.884714 187.75642 -82.295344)"
     class="D">
    <use
       xlink:href="#F"
       transform="matrix(.3318 0 0 -.990575 -220.91107 -40.760387)"
       paint-order="fill markers stroke"
       filter="url(#E)"
       class="C"
       id="use11830" />
    <use
       xlink:href="#F"
       transform="matrix(.3318 0 0 .990575 -69.986399 -596.33751)"
       paint-order="fill markers stroke"
       filter="url(#E)"
       class="C"
       id="use11832" />
    <use
       xlink:href="#F"
       transform="matrix(-.3318 0 0 -.990575 -28.829533 124.00765)"
       paint-order="fill markers stroke"
       filter="url(#E)"
       class="C"
       id="use11834" />
    <use
       xlink:href="#F"
       transform="matrix(-.3318 0 0 .990575 117.76745 -763.0038)"
       paint-order="fill markers stroke"
       filter="url(#E)"
       class="C"
       id="use11836" />
  </g>
  <g
     transform="matrix(.684477 0 0 -.884714 191.10764 522.23643)"
     class="D"
     id="g11847">
    <use
       xlink:href="#F"
       transform="matrix(.3318 0 0 -.990575 -220.91107 -40.760387)"
       paint-order="fill markers stroke"
       filter="url(#E)"
       class="C"
       id="use11839" />
    <use
       xlink:href="#F"
       transform="matrix(.3318 0 0 .990575 -69.986399 -596.33751)"
       paint-order="fill markers stroke"
       filter="url(#E)"
       class="C"
       id="use11841" />
    <use
       xlink:href="#F"
       transform="matrix(-.3318 0 0 -.990575 -28.829533 124.00765)"
       paint-order="fill markers stroke"
       filter="url(#E)"
       class="C"
       id="use11843" />
    <use
       xlink:href="#F"
       transform="matrix(-.3318 0 0 .990575 117.76745 -763.0038)"
       paint-order="fill markers stroke"
       filter="url(#E)"
       class="C"
       id="use11845" />
  </g>
  <g
     transform="translate(584.62 -2.23)"
     class="D"
     id="g11879">
    <g
       transform="matrix(.684477 0 0 -.884714 187.63209 208.71026)"
       id="g11857">
      <use
         xlink:href="#F"
         transform="matrix(.3318 0 0 -.990575 -220.91107 -40.760387)"
         paint-order="fill markers stroke"
         filter="url(#E)"
         class="C"
         id="use11849" />
      <use
         xlink:href="#F"
         transform="matrix(.3318 0 0 .990575 -69.986399 -596.33751)"
         paint-order="fill markers stroke"
         filter="url(#E)"
         class="C"
         id="use11851" />
      <use
         xlink:href="#F"
         transform="matrix(-.3318 0 0 -.990575 -28.829533 124.00765)"
         paint-order="fill markers stroke"
         filter="url(#E)"
         class="C"
         id="use11853" />
      <use
         xlink:href="#F"
         transform="matrix(-.3318 0 0 .990575 117.76745 -763.0038)"
         paint-order="fill markers stroke"
         filter="url(#E)"
         class="C"
         id="use11855" />
    </g>
    <g
       transform="matrix(.684477 0 0 -.884714 187.75642 -82.295344)"
       id="g11867">
      <use
         xlink:href="#F"
         transform="matrix(.3318 0 0 -.990575 -220.91107 -40.760387)"
         paint-order="fill markers stroke"
         filter="url(#E)"
         class="C"
         id="use11859" />
      <use
         xlink:href="#F"
         transform="matrix(.3318 0 0 .990575 -69.986399 -596.33751)"
         paint-order="fill markers stroke"
         filter="url(#E)"
         class="C"
         id="use11861" />
      <use
         xlink:href="#F"
         transform="matrix(-.3318 0 0 -.990575 -28.829533 124.00765)"
         paint-order="fill markers stroke"
         filter="url(#E)"
         class="C"
         id="use11863" />
      <use
         xlink:href="#F"
         transform="matrix(-.3318 0 0 .990575 117.76745 -763.0038)"
         paint-order="fill markers stroke"
         filter="url(#E)"
         class="C"
         id="use11865" />
    </g>
    <g
       transform="matrix(.684477 0 0 -.884714 191.10764 522.23643)"
       id="g11877">
      <use
         xlink:href="#F"
         transform="matrix(.3318 0 0 -.990575 -220.91107 -40.760387)"
         paint-order="fill markers stroke"
         filter="url(#E)"
         class="C"
         id="use11869" />
      <use
         xlink:href="#F"
         transform="matrix(.3318 0 0 .990575 -69.986399 -596.33751)"
         paint-order="fill markers stroke"
         filter="url(#E)"
         class="C"
         id="use11871" />
      <use
         xlink:href="#F"
         transform="matrix(-.3318 0 0 -.990575 -28.829533 124.00765)"
         paint-order="fill markers stroke"
         filter="url(#E)"
         class="C"
         id="use11873" />
      <use
         xlink:href="#F"
         transform="matrix(-.3318 0 0 .990575 117.76745 -763.0038)"
         paint-order="fill markers stroke"
         filter="url(#E)"
         class="C"
         id="use11875" />
    </g>
  </g>
  <g
     transform="rotate(180 256.242 499.421)"
     class="D"
     id="g11911">
    <g
       transform="matrix(.684477 0 0 -.884714 187.63209 208.71026)"
       id="g11889">
      <use
         xlink:href="#F"
         transform="matrix(.3318 0 0 -.990575 -220.91107 -40.760387)"
         paint-order="fill markers stroke"
         filter="url(#E)"
         class="C"
         id="use11881" />
      <use
         xlink:href="#F"
         transform="matrix(.3318 0 0 .990575 -69.986399 -596.33751)"
         paint-order="fill markers stroke"
         filter="url(#E)"
         class="C"
         id="use11883" />
      <use
         xlink:href="#F"
         transform="matrix(-.3318 0 0 -.990575 -28.829533 124.00765)"
         paint-order="fill markers stroke"
         filter="url(#E)"
         class="C"
         id="use11885" />
      <use
         xlink:href="#F"
         transform="matrix(-.3318 0 0 .990575 117.76745 -763.0038)"
         paint-order="fill markers stroke"
         filter="url(#E)"
         class="C"
         id="use11887" />
    </g>
    <g
       transform="matrix(.684477 0 0 -.884714 187.75642 -82.295344)"
       id="g11899">
      <use
         xlink:href="#F"
         transform="matrix(.3318 0 0 -.990575 -220.91107 -40.760387)"
         paint-order="fill markers stroke"
         filter="url(#E)"
         class="C"
         id="use11891" />
      <use
         xlink:href="#F"
         transform="matrix(.3318 0 0 .990575 -69.986399 -596.33751)"
         paint-order="fill markers stroke"
         filter="url(#E)"
         class="C"
         id="use11893" />
      <use
         xlink:href="#F"
         transform="matrix(-.3318 0 0 -.990575 -28.829533 124.00765)"
         paint-order="fill markers stroke"
         filter="url(#E)"
         class="C"
         id="use11895" />
      <use
         xlink:href="#F"
         transform="matrix(-.3318 0 0 .990575 117.76745 -763.0038)"
         paint-order="fill markers stroke"
         filter="url(#E)"
         class="C"
         id="use11897" />
    </g>
    <g
       transform="matrix(.684477 0 0 -.884714 191.10764 522.23643)"
       id="g11909">
      <use
         xlink:href="#F"
         transform="matrix(.3318 0 0 -.990575 -220.91107 -40.760387)"
         paint-order="fill markers stroke"
         filter="url(#E)"
         class="C"
         id="use11901" />
      <use
         xlink:href="#F"
         transform="matrix(.3318 0 0 .990575 -69.986399 -596.33751)"
         paint-order="fill markers stroke"
         filter="url(#E)"
         class="C"
         id="use11903" />
      <use
         xlink:href="#F"
         transform="matrix(-.3318 0 0 -.990575 -28.829533 124.00765)"
         paint-order="fill markers stroke"
         filter="url(#E)"
         class="C"
         id="use11905" />
      <use
         xlink:href="#F"
         transform="matrix(-.3318 0 0 .990575 117.76745 -763.0038)"
         paint-order="fill markers stroke"
         filter="url(#E)"
         class="C"
         id="use11907" />
    </g>
  </g>
  <g
     transform="rotate(180 352.205 502.655)"
     class="D"
     id="g11943">
    <g
       transform="matrix(.684477 0 0 -.884714 187.63209 208.71026)"
       id="g11921">
      <use
         xlink:href="#F"
         transform="matrix(.3318 0 0 -.990575 -220.91107 -40.760387)"
         paint-order="fill markers stroke"
         filter="url(#E)"
         class="C"
         id="use11913" />
      <use
         xlink:href="#F"
         transform="matrix(.3318 0 0 .990575 -69.986399 -596.33751)"
         paint-order="fill markers stroke"
         filter="url(#E)"
         class="C"
         id="use11915" />
      <use
         xlink:href="#F"
         transform="matrix(-.3318 0 0 -.990575 -28.829533 124.00765)"
         paint-order="fill markers stroke"
         filter="url(#E)"
         class="C"
         id="use11917" />
      <use
         xlink:href="#F"
         transform="matrix(-.3318 0 0 .990575 117.76745 -763.0038)"
         paint-order="fill markers stroke"
         filter="url(#E)"
         class="C"
         id="use11919" />
    </g>
    <g
       transform="matrix(.684477 0 0 -.884714 187.75642 -82.295344)"
       id="g11931">
      <use
         xlink:href="#F"
         transform="matrix(.3318 0 0 -.990575 -220.91107 -40.760387)"
         paint-order="fill markers stroke"
         filter="url(#E)"
         class="C"
         id="use11923" />
      <use
         xlink:href="#F"
         transform="matrix(.3318 0 0 .990575 -69.986399 -596.33751)"
         paint-order="fill markers stroke"
         filter="url(#E)"
         class="C"
         id="use11925" />
      <use
         xlink:href="#F"
         transform="matrix(-.3318 0 0 -.990575 -28.829533 124.00765)"
         paint-order="fill markers stroke"
         filter="url(#E)"
         class="C"
         id="use11927" />
      <use
         xlink:href="#F"
         transform="matrix(-.3318 0 0 .990575 117.76745 -763.0038)"
         paint-order="fill markers stroke"
         filter="url(#E)"
         class="C"
         id="use11929" />
    </g>
    <g
       transform="matrix(.684477 0 0 -.884714 191.10764 522.23643)"
       id="g11941">
      <use
         xlink:href="#F"
         transform="matrix(.3318 0 0 -.990575 -220.91107 -40.760387)"
         paint-order="fill markers stroke"
         filter="url(#E)"
         class="C"
         id="use11933" />
      <use
         xlink:href="#F"
         transform="matrix(.3318 0 0 .990575 -69.986399 -596.33751)"
         paint-order="fill markers stroke"
         filter="url(#E)"
         class="C"
         id="use11935" />
      <use
         xlink:href="#F"
         transform="matrix(-.3318 0 0 -.990575 -28.829533 124.00765)"
         paint-order="fill markers stroke"
         filter="url(#E)"
         class="C"
         id="use11937" />
      <use
         xlink:href="#F"
         transform="matrix(-.3318 0 0 .990575 117.76745 -763.0038)"
         paint-order="fill markers stroke"
         filter="url(#E)"
         class="C"
         id="use11939" />
    </g>
  </g>
  <g
     fill="#3d3e42"
     id="g11957">
    <circle
       cx="250.013"
       cy="649.807"
       r="6.5"
       paint-order="fill markers stroke"
       id="circle11945" />
    <circle
       cx="149.987"
       cy="750.07"
       r="6.5"
       paint-order="fill markers stroke"
       id="circle11947" />
    <circle
       cx="450.034"
       cy="649.51"
       r="6.5"
       paint-order="fill markers stroke"
       id="circle11949" />
    <circle
       cx="649.974"
       cy="649.807"
       r="6.5"
       paint-order="fill markers stroke"
       id="circle11951" />
    <circle
       cx="749.991"
       cy="749.504"
       r="6.5"
       paint-order="fill markers stroke"
       id="circle11953" />
    <circle
       cx="849.604"
       cy="649.807"
       r="6.5"
       paint-order="fill markers stroke"
       id="circle11955" />
  </g>
  <use
     height="100%"
     width="100%"
     y="0"
     x="0"
     xlink:href="#G"
     transform="matrix(0.01032784,1.8252573,-1.8737577,0.01235215,321.48184,780.61794)"
     opacity="0.2"
     fill="url(#C)"
     paint-order="fill markers stroke"
     filter="url(#A)"
     id="use11959"
     style="fill:#666666" />
  <use
     xlink:href="#G"
     transform="matrix(.010355 -1.772039 -1.878686 -.011992 322.51473 235.56123)"
     opacity=".2"
     fill="url(#C)"
     paint-order="fill markers stroke"
     filter="url(#B)"
     id="use11961"
     style="fill:#666666" />
  <g
     stroke="#3d3e42"
     class="E"
     id="g11979">
    <path
       d="M350 50l200 200M350 750l200 200"
       id="path11969" />
    <path
       d="M50 50h800M50 150h800M50 250h800M50 350h800M50 450h800M50 550h800M50 650h800M50 750h800M50 850h800M50 950h800"
       id="path11971" />
    <path
       d="M50 50v900M150 50v500M250 50v500M350 50v500M450 50v500M550 50v500M650 50v500M750 50v500M850 50v900M150 550v400"
       id="path11973" />
    <path
       d="M250 550v400m100-400v400m100-400v400m100-400v400"
       id="path11975" />
    <path
       d="M650 550v400m100-400v400M350 250L550 50M350 950l200-200"
       id="path11977" />
  </g>
</svg>
