<svg viewBox="0 0 196 226" xmlns="http://www.w3.org/2000/svg"><path d="m0 0h195.98v56.37h-195.98z" fill="#f3d7bf"/><path d="m0 49.36c16.1-2.69 36.86 3.13 43.93 5a92.27 92.27 0 0 0 20-.68c20.5-8 30.27-6.23 44.46-2.28 11 4.59 19.41 4.9 36.09.09 14.26-4.11 27.28-11.44 51.48.1v127.64h-195.89z" fill="#fffde7" fill-rule="evenodd"/><path d="m0 166.3c23.41-1.28 33.92 8.07 36.83 11.4 21.35-22 56.34-6.62 61.77-.52 15.93-13.64 50.49-13.08 62.62.42 9.3-10 28.88-15.75 34.77-15.19l.01 63.59h-196z" fill="#e0e9b4" fill-rule="evenodd"/><path d="m26.75 196.21a5.16 5.16 0 0 1 -1.27-1.53c-2.93.68-5.78-1.07-3-3a1.67 1.67 0 0 0 1-1.69c-.06-1.73.51-2.16 2.39-1.79a4.33 4.33 0 0 0 2.9-.29c1.71-.82 3.33-.53 3.46.63a2 2 0 0 1 -.55 1.5c-.53.48-.52.65.07.95 3 1.52 3.07 2.25.63 3.14a2.82 2.82 0 0 0 -2.8 1.89c-1.8 1.23-1.81.89-2.83.18z" fill="#fff"/><path d="m174.26 197a5.67 5.67 0 0 1 -1.27-1.53c-2.93.67-5.78-1.08-3-3a1.68 1.68 0 0 0 1-1.69c-.06-1.73.51-2.15 2.4-1.78a4.3 4.3 0 0 0 2.89-.3c1.71-.82 3.33-.52 3.46.64a1.93 1.93 0 0 1 -.55 1.49c-.53.48-.52.65.07.95 3 1.52 3.07 2.25.63 3.14a2.83 2.83 0 0 0 -2.8 1.89c-1.8 1.24-1.81.9-2.83.19z" fill="#fff"/><path d="m103.84 212.69a5.16 5.16 0 0 1 -1.27-1.53c-2.93.68-5.78-1.08-3-3a1.65 1.65 0 0 0 1-1.68c-.06-1.73.51-2.16 2.39-1.79a4.33 4.33 0 0 0 2.9-.29c1.71-.82 3.33-.53 3.46.63a2 2 0 0 1 -.55 1.5c-.53.48-.52.64.07.95 3 1.52 3.07 2.25.63 3.14a2.81 2.81 0 0 0 -2.8 1.89c-1.8 1.23-1.81.89-2.83.18z" fill="#fff"/><path d="m97.93 36.61c-3.17-.56-4.19-1.48-4.36-3.94l-.09-1.23-3.11-.23a9.33 9.33 0 0 1 -3.9-.81 4.15 4.15 0 0 1 -1.58-3.57 6.38 6.38 0 0 1 2.94-3.32c.57-.27 1.09-.7 1.15-1s.28-1.24.48-2.19c.68-3.22 2.46-5 5.07-5 2.43 0 6.15 2 6.15 3.29 0 .52.64.44.65-.09s1.62-2.53 3-3.43c1-.65 1.67-.8 3.66-.77 3.12 0 4.13.46 6.09 2.58a10.88 10.88 0 0 0 1.8 1.71c.13 0 .5-.39.83-.86a7 7 0 0 1 3.9-2.38c.89 0 2 .87 3.54 2.66 1.33 1.61 1.49 2.88.52 4.27s-.81 1.55.56 2.3c1.08.6 1.23.85 1.49 2.57s.25 1.94-.77 3.12a4.29 4.29 0 0 1 -4.74 1.32c-1.27-.32-1.37-.29-1.79.62a5.23 5.23 0 0 1 -3.75 3.26c-2.89.78-7 0-8.63-1.65-.51-.52-.64-.47-1.62.7-1.47 1.76-4.4 2.55-7.47 2z" fill="#fff"/><path d="m196 2.79a11.67 11.67 0 0 0 -3.54-.41c-2.26 0-3 .13-4.15.83-1.54 1-3.35 3-3.36 3.71 0 .57-.74.66-.74.09 0-1.42-4.21-3.57-7-3.55-2.95 0-5 1.9-5.74 5.38-.22 1-.47 2.09-.54 2.37a2.62 2.62 0 0 1 -1.3 1 7 7 0 0 0 -3.33 3.59c-.3 1.08.6 3 1.79 3.85.59.41 2.11.72 4.41.88l3.52.25.1 1.33c.2 2.65 1.35 3.64 4.94 4.25 3.47.59 6.78-.26 8.45-2.17 1.11-1.26 1.25-1.32 1.83-.75a9 9 0 0 0 4.66 1.95z" fill="#fff"/><path d="m35.13 20.36c-.3-1.89-.47-2.17-1.71-2.82-1.57-.83-1.65-1.13-.64-2.52s.93-2.93-.6-4.69c-1.71-2-3-2.91-4.06-2.91a8 8 0 0 0 -4.47 2.58c-.38.52-.81 1-.95 1a11.86 11.86 0 0 1 -2.08-1.88c-2.25-2.32-3.41-2.79-7-2.83-2.3 0-3.09.14-4.21.85-1.56 1-3.4 3-3.42 3.76 0 .58-.74.68-.74.1.02-1.19-2.73-2.82-5.25-3.41v22.55a13.72 13.72 0 0 0 2.11.5c3.53.59 6.88-.27 8.58-2.2 1.12-1.28 1.26-1.34 1.85-.77 1.85 1.8 6.59 2.66 9.91 1.81a6 6 0 0 0 4.31-3.58c.47-1 .59-1 2-.67a5.06 5.06 0 0 0 5.44-1.45c1.22-1.3 1.25-1.39.93-3.42z" fill="#fff"/><g fill="none" stroke="#82af6e" stroke-miterlimit="10"><path d="m.5 3.5v-3h3"/><path d="m6.5.5h10.5" stroke-dasharray="3 3 3 3"/><path d="m18.5.5h16.5" stroke-dasharray="3 3 3 3 3 3"/><path d="m36.5.5h3v3"/><path d="m39.5 7.05v12.4" stroke-dasharray="3.55 3.55 3.55 3.55"/><path d="m39.5 21.23v19.5" stroke-dasharray="3.55 3.55 3.55 3.55 3.55 3.55"/><path d="m39.5 42.5v3h-3"/><path d="m33.5 45.5h-10.5" stroke-dasharray="3 3 3 3"/><path d="m21.5 45.5h-16.5" stroke-dasharray="3 3 3 3 3 3"/><path d="m3.5 45.5h-3v-3"/><path d="m.5 38.95v-12.4" stroke-dasharray="3.55 3.55 3.55 3.55"/><path d="m.5 24.77v-19.5" stroke-dasharray="3.55 3.55 3.55 3.55 3.55 3.55"/><path d="m39.5 3.5v-3h3"/><path d="m45.5.5h10.5" stroke-dasharray="3 3 3 3"/><path d="m57.5.5h16.5" stroke-dasharray="3 3 3 3 3 3"/><path d="m75.5.5h3v3"/><path d="m78.5 7.05v12.4" stroke-dasharray="3.55 3.55 3.55 3.55"/><path d="m78.5 21.23v19.5" stroke-dasharray="3.55 3.55 3.55 3.55 3.55 3.55"/><path d="m78.5 42.5v3h-3"/><path d="m72.5 45.5h-10.5" stroke-dasharray="3 3 3 3"/><path d="m60.5 45.5h-16.5" stroke-dasharray="3 3 3 3 3 3"/><path d="m42.5 45.5h-3v-3"/><path d="m39.5 38.95v-12.4" stroke-dasharray="3.55 3.55 3.55 3.55"/><path d="m39.5 24.77v-19.5" stroke-dasharray="3.55 3.55 3.55 3.55 3.55 3.55"/><path d="m78.5 3.5v-3h3"/><path d="m84.5.5h10.5" stroke-dasharray="3 3 3 3"/><path d="m96.5.5h16.5" stroke-dasharray="3 3 3 3 3 3"/><path d="m114.5.5h3v3"/><path d="m117.5 7.05v12.4" stroke-dasharray="3.55 3.55 3.55 3.55"/><path d="m117.5 21.23v19.5" stroke-dasharray="3.55 3.55 3.55 3.55 3.55 3.55"/><path d="m117.5 42.5v3h-3"/><path d="m111.5 45.5h-10.5" stroke-dasharray="3 3 3 3"/><path d="m99.5 45.5h-16.5" stroke-dasharray="3 3 3 3 3 3"/><path d="m81.5 45.5h-3v-3"/><path d="m78.5 38.95v-12.4" stroke-dasharray="3.55 3.55 3.55 3.55"/><path d="m78.5 24.77v-19.5" stroke-dasharray="3.55 3.55 3.55 3.55 3.55 3.55"/><path d="m117.5 3.5v-3h3"/><path d="m123.5.5h10.5" stroke-dasharray="3 3 3 3"/><path d="m135.5.5h16.5" stroke-dasharray="3 3 3 3 3 3"/><path d="m153.5.5h3v3"/><path d="m156.5 7.05v12.4" stroke-dasharray="3.55 3.55 3.55 3.55"/><path d="m156.5 21.23v19.5" stroke-dasharray="3.55 3.55 3.55 3.55 3.55 3.55"/><path d="m156.5 42.5v3h-3"/><path d="m150.5 45.5h-10.5" stroke-dasharray="3 3 3 3"/><path d="m138.5 45.5h-16.5" stroke-dasharray="3 3 3 3 3 3"/><path d="m120.5 45.5h-3v-3"/><path d="m117.5 38.95v-12.4" stroke-dasharray="3.55 3.55 3.55 3.55"/><path d="m117.5 24.77v-19.5" stroke-dasharray="3.55 3.55 3.55 3.55 3.55 3.55"/><path d="m156.5 3.5v-3h3"/><path d="m162.5.5h10.5" stroke-dasharray="3 3 3 3"/><path d="m174.5.5h16.5" stroke-dasharray="3 3 3 3 3 3"/><path d="m192.5.5h3v3"/><path d="m195.5 7.05v12.4" stroke-dasharray="3.55 3.55 3.55 3.55"/><path d="m195.5 21.23v19.5" stroke-dasharray="3.55 3.55 3.55 3.55 3.55 3.55"/><path d="m195.5 42.5v3h-3"/><path d="m189.5 45.5h-10.5" stroke-dasharray="3 3 3 3"/><path d="m177.5 45.5h-16.5" stroke-dasharray="3 3 3 3 3 3"/><path d="m159.5 45.5h-3v-3"/><path d="m156.5 38.95v-12.4" stroke-dasharray="3.55 3.55 3.55 3.55"/><path d="m156.5 24.77v-19.5" stroke-dasharray="3.55 3.55 3.55 3.55 3.55 3.55"/><path d="m.5 48.5v-3h3"/><path d="m6.5 45.5h10.5" stroke-dasharray="3 3 3 3"/><path d="m18.5 45.5h16.5" stroke-dasharray="3 3 3 3 3 3"/><path d="m36.5 45.5h3v3"/><path d="m39.5 52.05v12.4" stroke-dasharray="3.55 3.55 3.55 3.55"/><path d="m39.5 66.23v19.5" stroke-dasharray="3.55 3.55 3.55 3.55 3.55 3.55"/><path d="m39.5 87.5v3h-3"/><path d="m33.5 90.5h-10.5" stroke-dasharray="3 3 3 3"/><path d="m21.5 90.5h-16.5" stroke-dasharray="3 3 3 3 3 3"/><path d="m3.5 90.5h-3v-3"/><path d="m.5 83.95v-12.4" stroke-dasharray="3.55 3.55 3.55 3.55"/><path d="m.5 69.77v-19.5" stroke-dasharray="3.55 3.55 3.55 3.55 3.55 3.55"/><path d="m39.5 48.5v-3h3"/><path d="m45.5 45.5h10.5" stroke-dasharray="3 3 3 3"/><path d="m57.5 45.5h16.5" stroke-dasharray="3 3 3 3 3 3"/><path d="m75.5 45.5h3v3"/><path d="m78.5 52.05v12.4" stroke-dasharray="3.55 3.55 3.55 3.55"/><path d="m78.5 66.23v19.5" stroke-dasharray="3.55 3.55 3.55 3.55 3.55 3.55"/><path d="m78.5 87.5v3h-3"/><path d="m72.5 90.5h-10.5" stroke-dasharray="3 3 3 3"/><path d="m60.5 90.5h-16.5" stroke-dasharray="3 3 3 3 3 3"/><path d="m42.5 90.5h-3v-3"/><path d="m39.5 83.95v-12.4" stroke-dasharray="3.55 3.55 3.55 3.55"/><path d="m39.5 69.77v-19.5" stroke-dasharray="3.55 3.55 3.55 3.55 3.55 3.55"/><path d="m78.5 48.5v-3h3"/><path d="m84.5 45.5h10.5" stroke-dasharray="3 3 3 3"/><path d="m96.5 45.5h16.5" stroke-dasharray="3 3 3 3 3 3"/><path d="m114.5 45.5h3v3"/><path d="m117.5 52.05v12.4" stroke-dasharray="3.55 3.55 3.55 3.55"/><path d="m117.5 66.23v19.5" stroke-dasharray="3.55 3.55 3.55 3.55 3.55 3.55"/><path d="m117.5 87.5v3h-3"/><path d="m111.5 90.5h-10.5" stroke-dasharray="3 3 3 3"/><path d="m99.5 90.5h-16.5" stroke-dasharray="3 3 3 3 3 3"/><path d="m81.5 90.5h-3v-3"/><path d="m78.5 83.95v-12.4" stroke-dasharray="3.55 3.55 3.55 3.55"/><path d="m78.5 69.77v-19.5" stroke-dasharray="3.55 3.55 3.55 3.55 3.55 3.55"/><path d="m117.5 48.5v-3h3"/><path d="m123.5 45.5h10.5" stroke-dasharray="3 3 3 3"/><path d="m135.5 45.5h16.5" stroke-dasharray="3 3 3 3 3 3"/><path d="m153.5 45.5h3v3"/><path d="m156.5 52.05v12.4" stroke-dasharray="3.55 3.55 3.55 3.55"/><path d="m156.5 66.23v19.5" stroke-dasharray="3.55 3.55 3.55 3.55 3.55 3.55"/><path d="m156.5 87.5v3h-3"/><path d="m150.5 90.5h-10.5" stroke-dasharray="3 3 3 3"/><path d="m138.5 90.5h-16.5" stroke-dasharray="3 3 3 3 3 3"/><path d="m120.5 90.5h-3v-3"/><path d="m117.5 83.95v-12.4" stroke-dasharray="3.55 3.55 3.55 3.55"/><path d="m117.5 69.77v-19.5" stroke-dasharray="3.55 3.55 3.55 3.55 3.55 3.55"/><path d="m156.5 48.5v-3h3"/><path d="m162.5 45.5h10.5" stroke-dasharray="3 3 3 3"/><path d="m174.5 45.5h16.5" stroke-dasharray="3 3 3 3 3 3"/><path d="m192.5 45.5h3v3"/><path d="m195.5 52.05v12.4" stroke-dasharray="3.55 3.55 3.55 3.55"/><path d="m195.5 66.23v19.5" stroke-dasharray="3.55 3.55 3.55 3.55 3.55 3.55"/><path d="m195.5 87.5v3h-3"/><path d="m189.5 90.5h-10.5" stroke-dasharray="3 3 3 3"/><path d="m177.5 90.5h-16.5" stroke-dasharray="3 3 3 3 3 3"/><path d="m159.5 90.5h-3v-3"/><path d="m156.5 83.95v-12.4" stroke-dasharray="3.55 3.55 3.55 3.55"/><path d="m156.5 69.77v-19.5" stroke-dasharray="3.55 3.55 3.55 3.55 3.55 3.55"/><path d="m.5 93.5v-3h3"/><path d="m6.5 90.5h10.5" stroke-dasharray="3 3 3 3"/><path d="m18.5 90.5h16.5" stroke-dasharray="3 3 3 3 3 3"/><path d="m36.5 90.5h3v3"/><path d="m39.5 97.05v12.4" stroke-dasharray="3.55 3.55 3.55 3.55"/><path d="m39.5 111.23v19.5" stroke-dasharray="3.55 3.55 3.55 3.55 3.55 3.55"/><path d="m39.5 132.5v3h-3"/><path d="m33.5 135.5h-10.5" stroke-dasharray="3 3 3 3"/><path d="m21.5 135.5h-16.5" stroke-dasharray="3 3 3 3 3 3"/><path d="m3.5 135.5h-3v-3"/><path d="m.5 128.95v-12.4" stroke-dasharray="3.55 3.55 3.55 3.55"/><path d="m.5 114.77v-19.5" stroke-dasharray="3.55 3.55 3.55 3.55 3.55 3.55"/><path d="m39.5 93.5v-3h3"/><path d="m45.5 90.5h10.5" stroke-dasharray="3 3 3 3"/><path d="m57.5 90.5h16.5" stroke-dasharray="3 3 3 3 3 3"/><path d="m75.5 90.5h3v3"/><path d="m78.5 97.05v12.4" stroke-dasharray="3.55 3.55 3.55 3.55"/><path d="m78.5 111.23v19.5" stroke-dasharray="3.55 3.55 3.55 3.55 3.55 3.55"/><path d="m78.5 132.5v3h-3"/><path d="m72.5 135.5h-10.5" stroke-dasharray="3 3 3 3"/><path d="m60.5 135.5h-16.5" stroke-dasharray="3 3 3 3 3 3"/><path d="m42.5 135.5h-3v-3"/><path d="m39.5 128.95v-12.4" stroke-dasharray="3.55 3.55 3.55 3.55"/><path d="m39.5 114.77v-19.5" stroke-dasharray="3.55 3.55 3.55 3.55 3.55 3.55"/><path d="m78.5 93.5v-3h3"/><path d="m84.5 90.5h10.5" stroke-dasharray="3 3 3 3"/><path d="m96.5 90.5h16.5" stroke-dasharray="3 3 3 3 3 3"/><path d="m114.5 90.5h3v3"/><path d="m117.5 97.05v12.4" stroke-dasharray="3.55 3.55 3.55 3.55"/><path d="m117.5 111.23v19.5" stroke-dasharray="3.55 3.55 3.55 3.55 3.55 3.55"/><path d="m117.5 132.5v3h-3"/><path d="m111.5 135.5h-10.5" stroke-dasharray="3 3 3 3"/><path d="m99.5 135.5h-16.5" stroke-dasharray="3 3 3 3 3 3"/><path d="m81.5 135.5h-3v-3"/><path d="m78.5 128.95v-12.4" stroke-dasharray="3.55 3.55 3.55 3.55"/><path d="m78.5 114.77v-19.5" stroke-dasharray="3.55 3.55 3.55 3.55 3.55 3.55"/><path d="m117.5 93.5v-3h3"/><path d="m123.5 90.5h10.5" stroke-dasharray="3 3 3 3"/><path d="m135.5 90.5h16.5" stroke-dasharray="3 3 3 3 3 3"/><path d="m153.5 90.5h3v3"/><path d="m156.5 97.05v12.4" stroke-dasharray="3.55 3.55 3.55 3.55"/><path d="m156.5 111.23v19.5" stroke-dasharray="3.55 3.55 3.55 3.55 3.55 3.55"/><path d="m156.5 132.5v3h-3"/><path d="m150.5 135.5h-10.5" stroke-dasharray="3 3 3 3"/><path d="m138.5 135.5h-16.5" stroke-dasharray="3 3 3 3 3 3"/><path d="m120.5 135.5h-3v-3"/><path d="m117.5 128.95v-12.4" stroke-dasharray="3.55 3.55 3.55 3.55"/><path d="m117.5 114.77v-19.5" stroke-dasharray="3.55 3.55 3.55 3.55 3.55 3.55"/><path d="m156.5 93.5v-3h3"/><path d="m162.5 90.5h10.5" stroke-dasharray="3 3 3 3"/><path d="m174.5 90.5h16.5" stroke-dasharray="3 3 3 3 3 3"/><path d="m192.5 90.5h3v3"/><path d="m195.5 97.05v12.4" stroke-dasharray="3.55 3.55 3.55 3.55"/><path d="m195.5 111.23v19.5" stroke-dasharray="3.55 3.55 3.55 3.55 3.55 3.55"/><path d="m195.5 132.5v3h-3"/><path d="m189.5 135.5h-10.5" stroke-dasharray="3 3 3 3"/><path d="m177.5 135.5h-16.5" stroke-dasharray="3 3 3 3 3 3"/><path d="m159.5 135.5h-3v-3"/><path d="m156.5 128.95v-12.4" stroke-dasharray="3.55 3.55 3.55 3.55"/><path d="m156.5 114.77v-19.5" stroke-dasharray="3.55 3.55 3.55 3.55 3.55 3.55"/><path d="m.5 138.5v-3h3"/><path d="m6.5 135.5h10.5" stroke-dasharray="3 3 3 3"/><path d="m18.5 135.5h16.5" stroke-dasharray="3 3 3 3 3 3"/><path d="m36.5 135.5h3v3"/><path d="m39.5 142.05v12.4" stroke-dasharray="3.55 3.55 3.55 3.55"/><path d="m39.5 156.23v19.5" stroke-dasharray="3.55 3.55 3.55 3.55 3.55 3.55"/><path d="m39.5 177.5v3h-3"/><path d="m33.5 180.5h-10.5" stroke-dasharray="3 3 3 3"/><path d="m21.5 180.5h-16.5" stroke-dasharray="3 3 3 3 3 3"/><path d="m3.5 180.5h-3v-3"/><path d="m.5 173.95v-12.4" stroke-dasharray="3.55 3.55 3.55 3.55"/><path d="m.5 159.77v-19.5" stroke-dasharray="3.55 3.55 3.55 3.55 3.55 3.55"/><path d="m39.5 138.5v-3h3"/><path d="m45.5 135.5h10.5" stroke-dasharray="3 3 3 3"/><path d="m57.5 135.5h16.5" stroke-dasharray="3 3 3 3 3 3"/><path d="m75.5 135.5h3v3"/><path d="m78.5 142.05v12.4" stroke-dasharray="3.55 3.55 3.55 3.55"/><path d="m78.5 156.23v19.5" stroke-dasharray="3.55 3.55 3.55 3.55 3.55 3.55"/><path d="m78.5 177.5v3h-3"/><path d="m72.5 180.5h-10.5" stroke-dasharray="3 3 3 3"/><path d="m60.5 180.5h-16.5" stroke-dasharray="3 3 3 3 3 3"/><path d="m42.5 180.5h-3v-3"/><path d="m39.5 173.95v-12.4" stroke-dasharray="3.55 3.55 3.55 3.55"/><path d="m39.5 159.77v-19.5" stroke-dasharray="3.55 3.55 3.55 3.55 3.55 3.55"/><path d="m78.5 138.5v-3h3"/><path d="m84.5 135.5h10.5" stroke-dasharray="3 3 3 3"/><path d="m96.5 135.5h16.5" stroke-dasharray="3 3 3 3 3 3"/><path d="m114.5 135.5h3v3"/><path d="m117.5 142.05v12.4" stroke-dasharray="3.55 3.55 3.55 3.55"/><path d="m117.5 156.23v19.5" stroke-dasharray="3.55 3.55 3.55 3.55 3.55 3.55"/><path d="m117.5 177.5v3h-3"/><path d="m111.5 180.5h-10.5" stroke-dasharray="3 3 3 3"/><path d="m99.5 180.5h-16.5" stroke-dasharray="3 3 3 3 3 3"/><path d="m81.5 180.5h-3v-3"/><path d="m78.5 173.95v-12.4" stroke-dasharray="3.55 3.55 3.55 3.55"/><path d="m78.5 159.77v-19.5" stroke-dasharray="3.55 3.55 3.55 3.55 3.55 3.55"/><path d="m117.5 138.5v-3h3"/><path d="m123.5 135.5h10.5" stroke-dasharray="3 3 3 3"/><path d="m135.5 135.5h16.5" stroke-dasharray="3 3 3 3 3 3"/><path d="m153.5 135.5h3v3"/><path d="m156.5 142.05v12.4" stroke-dasharray="3.55 3.55 3.55 3.55"/><path d="m156.5 156.23v19.5" stroke-dasharray="3.55 3.55 3.55 3.55 3.55 3.55"/><path d="m156.5 177.5v3h-3"/><path d="m150.5 180.5h-10.5" stroke-dasharray="3 3 3 3"/><path d="m138.5 180.5h-16.5" stroke-dasharray="3 3 3 3 3 3"/><path d="m120.5 180.5h-3v-3"/><path d="m117.5 173.95v-12.4" stroke-dasharray="3.55 3.55 3.55 3.55"/><path d="m117.5 159.77v-19.5" stroke-dasharray="3.55 3.55 3.55 3.55 3.55 3.55"/><path d="m156.5 138.5v-3h3"/><path d="m162.5 135.5h10.5" stroke-dasharray="3 3 3 3"/><path d="m174.5 135.5h16.5" stroke-dasharray="3 3 3 3 3 3"/><path d="m192.5 135.5h3v3"/><path d="m195.5 142.05v12.4" stroke-dasharray="3.55 3.55 3.55 3.55"/><path d="m195.5 156.23v19.5" stroke-dasharray="3.55 3.55 3.55 3.55 3.55 3.55"/><path d="m195.5 177.5v3h-3"/><path d="m189.5 180.5h-10.5" stroke-dasharray="3 3 3 3"/><path d="m177.5 180.5h-16.5" stroke-dasharray="3 3 3 3 3 3"/><path d="m159.5 180.5h-3v-3"/><path d="m156.5 173.95v-12.4" stroke-dasharray="3.55 3.55 3.55 3.55"/><path d="m156.5 159.77v-19.5" stroke-dasharray="3.55 3.55 3.55 3.55 3.55 3.55"/><path d="m.5 183.5v-3h3"/><path d="m6.5 180.5h10.5" stroke-dasharray="3 3 3 3"/><path d="m18.5 180.5h16.5" stroke-dasharray="3 3 3 3 3 3"/><path d="m36.5 180.5h3v3"/><path d="m39.5 187.05v12.4" stroke-dasharray="3.55 3.55 3.55 3.55"/><path d="m39.5 201.23v19.5" stroke-dasharray="3.55 3.55 3.55 3.55 3.55 3.55"/><path d="m39.5 222.5v3h-3"/><path d="m33.5 225.5h-10.5" stroke-dasharray="3 3 3 3"/><path d="m21.5 225.5h-16.5" stroke-dasharray="3 3 3 3 3 3"/><path d="m3.5 225.5h-3v-3"/><path d="m.5 218.95v-12.4" stroke-dasharray="3.55 3.55 3.55 3.55"/><path d="m.5 204.77v-19.5" stroke-dasharray="3.55 3.55 3.55 3.55 3.55 3.55"/><path d="m39.5 183.5v-3h3"/><path d="m45.5 180.5h10.5" stroke-dasharray="3 3 3 3"/><path d="m57.5 180.5h16.5" stroke-dasharray="3 3 3 3 3 3"/><path d="m75.5 180.5h3v3"/><path d="m78.5 187.05v12.4" stroke-dasharray="3.55 3.55 3.55 3.55"/><path d="m78.5 201.23v19.5" stroke-dasharray="3.55 3.55 3.55 3.55 3.55 3.55"/><path d="m78.5 222.5v3h-3"/><path d="m72.5 225.5h-10.5" stroke-dasharray="3 3 3 3"/><path d="m60.5 225.5h-16.5" stroke-dasharray="3 3 3 3 3 3"/><path d="m42.5 225.5h-3v-3"/><path d="m39.5 218.95v-12.4" stroke-dasharray="3.55 3.55 3.55 3.55"/><path d="m39.5 204.77v-19.5" stroke-dasharray="3.55 3.55 3.55 3.55 3.55 3.55"/><path d="m78.5 183.5v-3h3"/><path d="m84.5 180.5h10.5" stroke-dasharray="3 3 3 3"/><path d="m96.5 180.5h16.5" stroke-dasharray="3 3 3 3 3 3"/><path d="m114.5 180.5h3v3"/><path d="m117.5 187.05v12.4" stroke-dasharray="3.55 3.55 3.55 3.55"/><path d="m117.5 201.23v19.5" stroke-dasharray="3.55 3.55 3.55 3.55 3.55 3.55"/><path d="m117.5 222.5v3h-3"/><path d="m111.5 225.5h-10.5" stroke-dasharray="3 3 3 3"/><path d="m99.5 225.5h-16.5" stroke-dasharray="3 3 3 3 3 3"/><path d="m81.5 225.5h-3v-3"/><path d="m78.5 218.95v-12.4" stroke-dasharray="3.55 3.55 3.55 3.55"/><path d="m78.5 204.77v-19.5" stroke-dasharray="3.55 3.55 3.55 3.55 3.55 3.55"/><path d="m117.5 183.5v-3h3"/><path d="m123.5 180.5h10.5" stroke-dasharray="3 3 3 3"/><path d="m135.5 180.5h16.5" stroke-dasharray="3 3 3 3 3 3"/><path d="m153.5 180.5h3v3"/><path d="m156.5 187.05v12.4" stroke-dasharray="3.55 3.55 3.55 3.55"/><path d="m156.5 201.23v19.5" stroke-dasharray="3.55 3.55 3.55 3.55 3.55 3.55"/><path d="m156.5 222.5v3h-3"/><path d="m150.5 225.5h-10.5" stroke-dasharray="3 3 3 3"/><path d="m138.5 225.5h-16.5" stroke-dasharray="3 3 3 3 3 3"/><path d="m120.5 225.5h-3v-3"/><path d="m117.5 218.95v-12.4" stroke-dasharray="3.55 3.55 3.55 3.55"/><path d="m117.5 204.77v-19.5" stroke-dasharray="3.55 3.55 3.55 3.55 3.55 3.55"/><path d="m156.5 183.5v-3h3"/><path d="m162.5 180.5h10.5" stroke-dasharray="3 3 3 3"/><path d="m174.5 180.5h16.5" stroke-dasharray="3 3 3 3 3 3"/><path d="m192.5 180.5h3v3"/><path d="m195.5 187.05v12.4" stroke-dasharray="3.55 3.55 3.55 3.55"/><path d="m195.5 201.23v19.5" stroke-dasharray="3.55 3.55 3.55 3.55 3.55 3.55"/><path d="m195.5 222.5v3h-3"/><path d="m189.5 225.5h-10.5" stroke-dasharray="3 3 3 3"/><path d="m177.5 225.5h-16.5" stroke-dasharray="3 3 3 3 3 3"/><path d="m159.5 225.5h-3v-3"/><path d="m156.5 218.95v-12.4" stroke-dasharray="3.55 3.55 3.55 3.55"/><path d="m156.5 204.77v-19.5" stroke-dasharray="3.55 3.55 3.55 3.55 3.55 3.55"/></g></svg>