<svg xmlns="http://www.w3.org/2000/svg" viewBox="0 0 196 226"><g id="Layer_2" data-name="Layer 2"><g id="Layer_6" data-name="Layer 6"><g id="Layer_2-2" data-name="Layer 2"><rect id="rect1138" width="195.98" height="56.37" fill="#92caed"/><path id="path1136" d="M0,49.36c16.1-2.69,36.86,3.13,43.93,5a92.27,92.27,0,0,0,20-.68c20.5-8,30.27-6.23,44.46-2.28,11,4.59,19.41,4.9,36.09.09,14.26-4.11,27.28-11.44,51.48.1V179.23H.07Z" fill="#fbf2b7" fill-rule="evenodd"/><path id="path1134" d="M0,166.3c23.41-1.28,33.92,8.07,36.83,11.4,21.35-22,56.34-6.62,61.77-.52,15.93-13.64,50.49-13.08,62.62.42,9.3-10,28.88-15.75,34.77-15.19L196,226H0Z" fill="#cfde7f" fill-rule="evenodd"/><path id="path2444-3" d="M26.75,196.21a5.16,5.16,0,0,1-1.27-1.53c-2.93.68-5.78-1.07-3-3a1.67,1.67,0,0,0,1-1.69c-.06-1.73.51-2.16,2.39-1.79a4.33,4.33,0,0,0,2.9-.29c1.71-.82,3.33-.53,3.46.63a2,2,0,0,1-.55,1.5c-.53.48-.52.65.07.95,3,1.52,3.07,2.25.63,3.14a2.82,2.82,0,0,0-2.8,1.89c-1.8,1.23-1.81.89-2.83.18Z" fill="#fff"/><path id="path2444-3-6" d="M174.26,197a5.67,5.67,0,0,1-1.27-1.53c-2.93.67-5.78-1.08-3-3a1.68,1.68,0,0,0,1-1.69c-.06-1.73.51-2.15,2.4-1.78a4.3,4.3,0,0,0,2.89-.3c1.71-.82,3.33-.52,3.46.64a1.93,1.93,0,0,1-.55,1.49c-.53.48-.52.65.07.95,3,1.52,3.07,2.25.63,3.14a2.83,2.83,0,0,0-2.8,1.89c-1.8,1.24-1.81.9-2.83.19Z" fill="#fff"/><path id="path2444-3-6-3" d="M103.84,212.69a5.16,5.16,0,0,1-1.27-1.53c-2.93.68-5.78-1.08-3-3a1.65,1.65,0,0,0,1-1.68c-.06-1.73.51-2.16,2.39-1.79a4.33,4.33,0,0,0,2.9-.29c1.71-.82,3.33-.53,3.46.63a2,2,0,0,1-.55,1.5c-.53.48-.52.64.07.95,3,1.52,3.07,2.25.63,3.14a2.81,2.81,0,0,0-2.8,1.89C104.87,213.74,104.86,213.4,103.84,212.69Z" fill="#fff"/><path id="path2596-9" d="M97.93,36.61c-3.17-.56-4.19-1.48-4.36-3.94l-.09-1.23-3.11-.23a9.33,9.33,0,0,1-3.9-.81,4.15,4.15,0,0,1-1.58-3.57,6.38,6.38,0,0,1,2.94-3.32c.57-.27,1.09-.7,1.15-1s.28-1.24.48-2.19c.68-3.22,2.46-5,5.07-5,2.43,0,6.15,2,6.15,3.29,0,.52.64.44.65-.09s1.62-2.53,3-3.43c1-.65,1.67-.8,3.66-.77,3.12,0,4.13.46,6.09,2.58a10.88,10.88,0,0,0,1.8,1.71c.13,0,.5-.39.83-.86a7,7,0,0,1,3.9-2.38c.89,0,2,.87,3.53,2.66,1.34,1.61,1.5,2.88.53,4.27s-.81,1.55.56,2.3c1.08.6,1.23.85,1.49,2.57s.25,1.94-.77,3.12a4.29,4.29,0,0,1-4.74,1.32c-1.27-.32-1.37-.29-1.79.62a5.23,5.23,0,0,1-3.75,3.26c-2.89.78-7,0-8.63-1.65-.51-.52-.64-.47-1.62.7-1.47,1.76-4.4,2.55-7.47,2Z" fill="#fff"/><path d="M196,2.79a11.67,11.67,0,0,0-3.54-.41c-2.26,0-3,.13-4.15.83-1.54,1-3.35,3-3.36,3.71,0,.57-.74.66-.74.09,0-1.42-4.21-3.57-7-3.55-2.95,0-5,1.9-5.74,5.38-.22,1-.47,2.09-.54,2.37a2.62,2.62,0,0,1-1.3,1,7,7,0,0,0-3.33,3.59c-.3,1.08.6,3,1.79,3.85.59.41,2.11.72,4.41.88l3.52.25.1,1.33c.2,2.65,1.35,3.64,4.94,4.25h0c3.47.59,6.78-.26,8.45-2.17,1.11-1.26,1.25-1.32,1.83-.75A9,9,0,0,0,196,25.39Z" fill="#fff"/><path d="M35.13,20.36c-.3-1.89-.47-2.17-1.71-2.82-1.57-.83-1.65-1.13-.64-2.52s.93-2.93-.6-4.69c-1.71-2-3-2.91-4.06-2.91A8,8,0,0,0,23.65,10c-.38.52-.81,1-.95,1a11.86,11.86,0,0,1-2.08-1.88c-2.25-2.32-3.41-2.79-7-2.83-2.3,0-3.09.14-4.21.85-1.56,1-3.4,3-3.42,3.76,0,.58-.74.68-.74.1C5.27,9.81,2.52,8.18,0,7.59V30.14a13.72,13.72,0,0,0,2.11.5c3.53.59,6.88-.27,8.58-2.2,1.12-1.28,1.26-1.34,1.85-.77,1.85,1.8,6.59,2.66,9.91,1.81a6,6,0,0,0,4.31-3.58c.47-1,.59-1,2-.67a5.06,5.06,0,0,0,5.44-1.45C35.42,22.48,35.45,22.39,35.13,20.36Z" fill="#fff"/><polyline points="0.5 3.5 0.5 0.5 3.5 0.5" fill="none" stroke="#bd6055" stroke-miterlimit="10"/><line x1="6.5" y1="0.5" x2="17" y2="0.5" fill="none" stroke="#bd6055" stroke-miterlimit="10" stroke-dasharray="3 3 3 3"/><line x1="18.5" y1="0.5" x2="35" y2="0.5" fill="none" stroke="#bd6055" stroke-miterlimit="10" stroke-dasharray="3 3 3 3 3 3"/><polyline points="36.5 0.5 39.5 0.5 39.5 3.5" fill="none" stroke="#bd6055" stroke-miterlimit="10"/><line x1="39.5" y1="7.05" x2="39.5" y2="19.45" fill="none" stroke="#bd6055" stroke-miterlimit="10" stroke-dasharray="3.55 3.55 3.55 3.55"/><line x1="39.5" y1="21.23" x2="39.5" y2="40.73" fill="none" stroke="#bd6055" stroke-miterlimit="10" stroke-dasharray="3.55 3.55 3.55 3.55 3.55 3.55"/><polyline points="39.5 42.5 39.5 45.5 36.5 45.5" fill="none" stroke="#bd6055" stroke-miterlimit="10"/><line x1="33.5" y1="45.5" x2="23" y2="45.5" fill="none" stroke="#bd6055" stroke-miterlimit="10" stroke-dasharray="3 3 3 3"/><line x1="21.5" y1="45.5" x2="5" y2="45.5" fill="none" stroke="#bd6055" stroke-miterlimit="10" stroke-dasharray="3 3 3 3 3 3"/><polyline points="3.5 45.5 0.5 45.5 0.5 42.5" fill="none" stroke="#bd6055" stroke-miterlimit="10"/><line x1="0.5" y1="38.95" x2="0.5" y2="26.55" fill="none" stroke="#bd6055" stroke-miterlimit="10" stroke-dasharray="3.55 3.55 3.55 3.55"/><line x1="0.5" y1="24.77" x2="0.5" y2="5.27" fill="none" stroke="#bd6055" stroke-miterlimit="10" stroke-dasharray="3.55 3.55 3.55 3.55 3.55 3.55"/><polyline points="39.5 3.5 39.5 0.5 42.5 0.5" fill="none" stroke="#bd6055" stroke-miterlimit="10"/><line x1="45.5" y1="0.5" x2="56" y2="0.5" fill="none" stroke="#bd6055" stroke-miterlimit="10" stroke-dasharray="3 3 3 3"/><line x1="57.5" y1="0.5" x2="74" y2="0.5" fill="none" stroke="#bd6055" stroke-miterlimit="10" stroke-dasharray="3 3 3 3 3 3"/><polyline points="75.5 0.5 78.5 0.5 78.5 3.5" fill="none" stroke="#bd6055" stroke-miterlimit="10"/><line x1="78.5" y1="7.05" x2="78.5" y2="19.45" fill="none" stroke="#bd6055" stroke-miterlimit="10" stroke-dasharray="3.55 3.55 3.55 3.55"/><line x1="78.5" y1="21.23" x2="78.5" y2="40.73" fill="none" stroke="#bd6055" stroke-miterlimit="10" stroke-dasharray="3.55 3.55 3.55 3.55 3.55 3.55"/><polyline points="78.5 42.5 78.5 45.5 75.5 45.5" fill="none" stroke="#bd6055" stroke-miterlimit="10"/><line x1="72.5" y1="45.5" x2="62" y2="45.5" fill="none" stroke="#bd6055" stroke-miterlimit="10" stroke-dasharray="3 3 3 3"/><line x1="60.5" y1="45.5" x2="44" y2="45.5" fill="none" stroke="#bd6055" stroke-miterlimit="10" stroke-dasharray="3 3 3 3 3 3"/><polyline points="42.5 45.5 39.5 45.5 39.5 42.5" fill="none" stroke="#bd6055" stroke-miterlimit="10"/><line x1="39.5" y1="38.95" x2="39.5" y2="26.55" fill="none" stroke="#bd6055" stroke-miterlimit="10" stroke-dasharray="3.55 3.55 3.55 3.55"/><line x1="39.5" y1="24.77" x2="39.5" y2="5.27" fill="none" stroke="#bd6055" stroke-miterlimit="10" stroke-dasharray="3.55 3.55 3.55 3.55 3.55 3.55"/><polyline points="78.5 3.5 78.5 0.5 81.5 0.5" fill="none" stroke="#bd6055" stroke-miterlimit="10"/><line x1="84.5" y1="0.5" x2="95" y2="0.5" fill="none" stroke="#bd6055" stroke-miterlimit="10" stroke-dasharray="3 3 3 3"/><line x1="96.5" y1="0.5" x2="113" y2="0.5" fill="none" stroke="#bd6055" stroke-miterlimit="10" stroke-dasharray="3 3 3 3 3 3"/><polyline points="114.5 0.5 117.5 0.5 117.5 3.5" fill="none" stroke="#bd6055" stroke-miterlimit="10"/><line x1="117.5" y1="7.05" x2="117.5" y2="19.45" fill="none" stroke="#bd6055" stroke-miterlimit="10" stroke-dasharray="3.55 3.55 3.55 3.55"/><line x1="117.5" y1="21.23" x2="117.5" y2="40.73" fill="none" stroke="#bd6055" stroke-miterlimit="10" stroke-dasharray="3.55 3.55 3.55 3.55 3.55 3.55"/><polyline points="117.5 42.5 117.5 45.5 114.5 45.5" fill="none" stroke="#bd6055" stroke-miterlimit="10"/><line x1="111.5" y1="45.5" x2="101" y2="45.5" fill="none" stroke="#bd6055" stroke-miterlimit="10" stroke-dasharray="3 3 3 3"/><line x1="99.5" y1="45.5" x2="83" y2="45.5" fill="none" stroke="#bd6055" stroke-miterlimit="10" stroke-dasharray="3 3 3 3 3 3"/><polyline points="81.5 45.5 78.5 45.5 78.5 42.5" fill="none" stroke="#bd6055" stroke-miterlimit="10"/><line x1="78.5" y1="38.95" x2="78.5" y2="26.55" fill="none" stroke="#bd6055" stroke-miterlimit="10" stroke-dasharray="3.55 3.55 3.55 3.55"/><line x1="78.5" y1="24.77" x2="78.5" y2="5.27" fill="none" stroke="#bd6055" stroke-miterlimit="10" stroke-dasharray="3.55 3.55 3.55 3.55 3.55 3.55"/><polyline points="117.5 3.5 117.5 0.5 120.5 0.5" fill="none" stroke="#bd6055" stroke-miterlimit="10"/><line x1="123.5" y1="0.5" x2="134" y2="0.5" fill="none" stroke="#bd6055" stroke-miterlimit="10" stroke-dasharray="3 3 3 3"/><line x1="135.5" y1="0.5" x2="152" y2="0.5" fill="none" stroke="#bd6055" stroke-miterlimit="10" stroke-dasharray="3 3 3 3 3 3"/><polyline points="153.5 0.5 156.5 0.5 156.5 3.5" fill="none" stroke="#bd6055" stroke-miterlimit="10"/><line x1="156.5" y1="7.05" x2="156.5" y2="19.45" fill="none" stroke="#bd6055" stroke-miterlimit="10" stroke-dasharray="3.55 3.55 3.55 3.55"/><line x1="156.5" y1="21.23" x2="156.5" y2="40.73" fill="none" stroke="#bd6055" stroke-miterlimit="10" stroke-dasharray="3.55 3.55 3.55 3.55 3.55 3.55"/><polyline points="156.5 42.5 156.5 45.5 153.5 45.5" fill="none" stroke="#bd6055" stroke-miterlimit="10"/><line x1="150.5" y1="45.5" x2="140" y2="45.5" fill="none" stroke="#bd6055" stroke-miterlimit="10" stroke-dasharray="3 3 3 3"/><line x1="138.5" y1="45.5" x2="122" y2="45.5" fill="none" stroke="#bd6055" stroke-miterlimit="10" stroke-dasharray="3 3 3 3 3 3"/><polyline points="120.5 45.5 117.5 45.5 117.5 42.5" fill="none" stroke="#bd6055" stroke-miterlimit="10"/><line x1="117.5" y1="38.95" x2="117.5" y2="26.55" fill="none" stroke="#bd6055" stroke-miterlimit="10" stroke-dasharray="3.55 3.55 3.55 3.55"/><line x1="117.5" y1="24.77" x2="117.5" y2="5.27" fill="none" stroke="#bd6055" stroke-miterlimit="10" stroke-dasharray="3.55 3.55 3.55 3.55 3.55 3.55"/><polyline points="156.5 3.5 156.5 0.5 159.5 0.5" fill="none" stroke="#bd6055" stroke-miterlimit="10"/><line x1="162.5" y1="0.5" x2="173" y2="0.5" fill="none" stroke="#bd6055" stroke-miterlimit="10" stroke-dasharray="3 3 3 3"/><line x1="174.5" y1="0.5" x2="191" y2="0.5" fill="none" stroke="#bd6055" stroke-miterlimit="10" stroke-dasharray="3 3 3 3 3 3"/><polyline points="192.5 0.5 195.5 0.5 195.5 3.5" fill="none" stroke="#bd6055" stroke-miterlimit="10"/><line x1="195.5" y1="7.05" x2="195.5" y2="19.45" fill="none" stroke="#bd6055" stroke-miterlimit="10" stroke-dasharray="3.55 3.55 3.55 3.55"/><line x1="195.5" y1="21.23" x2="195.5" y2="40.73" fill="none" stroke="#bd6055" stroke-miterlimit="10" stroke-dasharray="3.55 3.55 3.55 3.55 3.55 3.55"/><polyline points="195.5 42.5 195.5 45.5 192.5 45.5" fill="none" stroke="#bd6055" stroke-miterlimit="10"/><line x1="189.5" y1="45.5" x2="179" y2="45.5" fill="none" stroke="#bd6055" stroke-miterlimit="10" stroke-dasharray="3 3 3 3"/><line x1="177.5" y1="45.5" x2="161" y2="45.5" fill="none" stroke="#bd6055" stroke-miterlimit="10" stroke-dasharray="3 3 3 3 3 3"/><polyline points="159.5 45.5 156.5 45.5 156.5 42.5" fill="none" stroke="#bd6055" stroke-miterlimit="10"/><line x1="156.5" y1="38.95" x2="156.5" y2="26.55" fill="none" stroke="#bd6055" stroke-miterlimit="10" stroke-dasharray="3.55 3.55 3.55 3.55"/><line x1="156.5" y1="24.77" x2="156.5" y2="5.27" fill="none" stroke="#bd6055" stroke-miterlimit="10" stroke-dasharray="3.55 3.55 3.55 3.55 3.55 3.55"/><polyline points="0.5 48.5 0.5 45.5 3.5 45.5" fill="none" stroke="#bd6055" stroke-miterlimit="10"/><line x1="6.5" y1="45.5" x2="17" y2="45.5" fill="none" stroke="#bd6055" stroke-miterlimit="10" stroke-dasharray="3 3 3 3"/><line x1="18.5" y1="45.5" x2="35" y2="45.5" fill="none" stroke="#bd6055" stroke-miterlimit="10" stroke-dasharray="3 3 3 3 3 3"/><polyline points="36.5 45.5 39.5 45.5 39.5 48.5" fill="none" stroke="#bd6055" stroke-miterlimit="10"/><line x1="39.5" y1="52.05" x2="39.5" y2="64.45" fill="none" stroke="#bd6055" stroke-miterlimit="10" stroke-dasharray="3.55 3.55 3.55 3.55"/><line x1="39.5" y1="66.23" x2="39.5" y2="85.73" fill="none" stroke="#bd6055" stroke-miterlimit="10" stroke-dasharray="3.55 3.55 3.55 3.55 3.55 3.55"/><polyline points="39.5 87.5 39.5 90.5 36.5 90.5" fill="none" stroke="#bd6055" stroke-miterlimit="10"/><line x1="33.5" y1="90.5" x2="23" y2="90.5" fill="none" stroke="#bd6055" stroke-miterlimit="10" stroke-dasharray="3 3 3 3"/><line x1="21.5" y1="90.5" x2="5" y2="90.5" fill="none" stroke="#bd6055" stroke-miterlimit="10" stroke-dasharray="3 3 3 3 3 3"/><polyline points="3.5 90.5 0.5 90.5 0.5 87.5" fill="none" stroke="#bd6055" stroke-miterlimit="10"/><line x1="0.5" y1="83.95" x2="0.5" y2="71.55" fill="none" stroke="#bd6055" stroke-miterlimit="10" stroke-dasharray="3.55 3.55 3.55 3.55"/><line x1="0.5" y1="69.77" x2="0.5" y2="50.27" fill="none" stroke="#bd6055" stroke-miterlimit="10" stroke-dasharray="3.55 3.55 3.55 3.55 3.55 3.55"/><polyline points="39.5 48.5 39.5 45.5 42.5 45.5" fill="none" stroke="#bd6055" stroke-miterlimit="10"/><line x1="45.5" y1="45.5" x2="56" y2="45.5" fill="none" stroke="#bd6055" stroke-miterlimit="10" stroke-dasharray="3 3 3 3"/><line x1="57.5" y1="45.5" x2="74" y2="45.5" fill="none" stroke="#bd6055" stroke-miterlimit="10" stroke-dasharray="3 3 3 3 3 3"/><polyline points="75.5 45.5 78.5 45.5 78.5 48.5" fill="none" stroke="#bd6055" stroke-miterlimit="10"/><line x1="78.5" y1="52.05" x2="78.5" y2="64.45" fill="none" stroke="#bd6055" stroke-miterlimit="10" stroke-dasharray="3.55 3.55 3.55 3.55"/><line x1="78.5" y1="66.23" x2="78.5" y2="85.73" fill="none" stroke="#bd6055" stroke-miterlimit="10" stroke-dasharray="3.55 3.55 3.55 3.55 3.55 3.55"/><polyline points="78.5 87.5 78.5 90.5 75.5 90.5" fill="none" stroke="#bd6055" stroke-miterlimit="10"/><line x1="72.5" y1="90.5" x2="62" y2="90.5" fill="none" stroke="#bd6055" stroke-miterlimit="10" stroke-dasharray="3 3 3 3"/><line x1="60.5" y1="90.5" x2="44" y2="90.5" fill="none" stroke="#bd6055" stroke-miterlimit="10" stroke-dasharray="3 3 3 3 3 3"/><polyline points="42.5 90.5 39.5 90.5 39.5 87.5" fill="none" stroke="#bd6055" stroke-miterlimit="10"/><line x1="39.5" y1="83.95" x2="39.5" y2="71.55" fill="none" stroke="#bd6055" stroke-miterlimit="10" stroke-dasharray="3.55 3.55 3.55 3.55"/><line x1="39.5" y1="69.77" x2="39.5" y2="50.27" fill="none" stroke="#bd6055" stroke-miterlimit="10" stroke-dasharray="3.55 3.55 3.55 3.55 3.55 3.55"/><polyline points="78.5 48.5 78.5 45.5 81.5 45.5" fill="none" stroke="#bd6055" stroke-miterlimit="10"/><line x1="84.5" y1="45.5" x2="95" y2="45.5" fill="none" stroke="#bd6055" stroke-miterlimit="10" stroke-dasharray="3 3 3 3"/><line x1="96.5" y1="45.5" x2="113" y2="45.5" fill="none" stroke="#bd6055" stroke-miterlimit="10" stroke-dasharray="3 3 3 3 3 3"/><polyline points="114.5 45.5 117.5 45.5 117.5 48.5" fill="none" stroke="#bd6055" stroke-miterlimit="10"/><line x1="117.5" y1="52.05" x2="117.5" y2="64.45" fill="none" stroke="#bd6055" stroke-miterlimit="10" stroke-dasharray="3.55 3.55 3.55 3.55"/><line x1="117.5" y1="66.23" x2="117.5" y2="85.73" fill="none" stroke="#bd6055" stroke-miterlimit="10" stroke-dasharray="3.55 3.55 3.55 3.55 3.55 3.55"/><polyline points="117.5 87.5 117.5 90.5 114.5 90.5" fill="none" stroke="#bd6055" stroke-miterlimit="10"/><line x1="111.5" y1="90.5" x2="101" y2="90.5" fill="none" stroke="#bd6055" stroke-miterlimit="10" stroke-dasharray="3 3 3 3"/><line x1="99.5" y1="90.5" x2="83" y2="90.5" fill="none" stroke="#bd6055" stroke-miterlimit="10" stroke-dasharray="3 3 3 3 3 3"/><polyline points="81.5 90.5 78.5 90.5 78.5 87.5" fill="none" stroke="#bd6055" stroke-miterlimit="10"/><line x1="78.5" y1="83.95" x2="78.5" y2="71.55" fill="none" stroke="#bd6055" stroke-miterlimit="10" stroke-dasharray="3.55 3.55 3.55 3.55"/><line x1="78.5" y1="69.77" x2="78.5" y2="50.27" fill="none" stroke="#bd6055" stroke-miterlimit="10" stroke-dasharray="3.55 3.55 3.55 3.55 3.55 3.55"/><polyline points="117.5 48.5 117.5 45.5 120.5 45.5" fill="none" stroke="#bd6055" stroke-miterlimit="10"/><line x1="123.5" y1="45.5" x2="134" y2="45.5" fill="none" stroke="#bd6055" stroke-miterlimit="10" stroke-dasharray="3 3 3 3"/><line x1="135.5" y1="45.5" x2="152" y2="45.5" fill="none" stroke="#bd6055" stroke-miterlimit="10" stroke-dasharray="3 3 3 3 3 3"/><polyline points="153.5 45.5 156.5 45.5 156.5 48.5" fill="none" stroke="#bd6055" stroke-miterlimit="10"/><line x1="156.5" y1="52.05" x2="156.5" y2="64.45" fill="none" stroke="#bd6055" stroke-miterlimit="10" stroke-dasharray="3.55 3.55 3.55 3.55"/><line x1="156.5" y1="66.23" x2="156.5" y2="85.73" fill="none" stroke="#bd6055" stroke-miterlimit="10" stroke-dasharray="3.55 3.55 3.55 3.55 3.55 3.55"/><polyline points="156.5 87.5 156.5 90.5 153.5 90.5" fill="none" stroke="#bd6055" stroke-miterlimit="10"/><line x1="150.5" y1="90.5" x2="140" y2="90.5" fill="none" stroke="#bd6055" stroke-miterlimit="10" stroke-dasharray="3 3 3 3"/><line x1="138.5" y1="90.5" x2="122" y2="90.5" fill="none" stroke="#bd6055" stroke-miterlimit="10" stroke-dasharray="3 3 3 3 3 3"/><polyline points="120.5 90.5 117.5 90.5 117.5 87.5" fill="none" stroke="#bd6055" stroke-miterlimit="10"/><line x1="117.5" y1="83.95" x2="117.5" y2="71.55" fill="none" stroke="#bd6055" stroke-miterlimit="10" stroke-dasharray="3.55 3.55 3.55 3.55"/><line x1="117.5" y1="69.77" x2="117.5" y2="50.27" fill="none" stroke="#bd6055" stroke-miterlimit="10" stroke-dasharray="3.55 3.55 3.55 3.55 3.55 3.55"/><polyline points="156.5 48.5 156.5 45.5 159.5 45.5" fill="none" stroke="#bd6055" stroke-miterlimit="10"/><line x1="162.5" y1="45.5" x2="173" y2="45.5" fill="none" stroke="#bd6055" stroke-miterlimit="10" stroke-dasharray="3 3 3 3"/><line x1="174.5" y1="45.5" x2="191" y2="45.5" fill="none" stroke="#bd6055" stroke-miterlimit="10" stroke-dasharray="3 3 3 3 3 3"/><polyline points="192.5 45.5 195.5 45.5 195.5 48.5" fill="none" stroke="#bd6055" stroke-miterlimit="10"/><line x1="195.5" y1="52.05" x2="195.5" y2="64.45" fill="none" stroke="#bd6055" stroke-miterlimit="10" stroke-dasharray="3.55 3.55 3.55 3.55"/><line x1="195.5" y1="66.23" x2="195.5" y2="85.73" fill="none" stroke="#bd6055" stroke-miterlimit="10" stroke-dasharray="3.55 3.55 3.55 3.55 3.55 3.55"/><polyline points="195.5 87.5 195.5 90.5 192.5 90.5" fill="none" stroke="#bd6055" stroke-miterlimit="10"/><line x1="189.5" y1="90.5" x2="179" y2="90.5" fill="none" stroke="#bd6055" stroke-miterlimit="10" stroke-dasharray="3 3 3 3"/><line x1="177.5" y1="90.5" x2="161" y2="90.5" fill="none" stroke="#bd6055" stroke-miterlimit="10" stroke-dasharray="3 3 3 3 3 3"/><polyline points="159.5 90.5 156.5 90.5 156.5 87.5" fill="none" stroke="#bd6055" stroke-miterlimit="10"/><line x1="156.5" y1="83.95" x2="156.5" y2="71.55" fill="none" stroke="#bd6055" stroke-miterlimit="10" stroke-dasharray="3.55 3.55 3.55 3.55"/><line x1="156.5" y1="69.77" x2="156.5" y2="50.27" fill="none" stroke="#bd6055" stroke-miterlimit="10" stroke-dasharray="3.55 3.55 3.55 3.55 3.55 3.55"/><polyline points="0.5 93.5 0.5 90.5 3.5 90.5" fill="none" stroke="#bd6055" stroke-miterlimit="10"/><line x1="6.5" y1="90.5" x2="17" y2="90.5" fill="none" stroke="#bd6055" stroke-miterlimit="10" stroke-dasharray="3 3 3 3"/><line x1="18.5" y1="90.5" x2="35" y2="90.5" fill="none" stroke="#bd6055" stroke-miterlimit="10" stroke-dasharray="3 3 3 3 3 3"/><polyline points="36.5 90.5 39.5 90.5 39.5 93.5" fill="none" stroke="#bd6055" stroke-miterlimit="10"/><line x1="39.5" y1="97.05" x2="39.5" y2="109.45" fill="none" stroke="#bd6055" stroke-miterlimit="10" stroke-dasharray="3.55 3.55 3.55 3.55"/><line x1="39.5" y1="111.23" x2="39.5" y2="130.73" fill="none" stroke="#bd6055" stroke-miterlimit="10" stroke-dasharray="3.55 3.55 3.55 3.55 3.55 3.55"/><polyline points="39.5 132.5 39.5 135.5 36.5 135.5" fill="none" stroke="#bd6055" stroke-miterlimit="10"/><line x1="33.5" y1="135.5" x2="23" y2="135.5" fill="none" stroke="#bd6055" stroke-miterlimit="10" stroke-dasharray="3 3 3 3"/><line x1="21.5" y1="135.5" x2="5" y2="135.5" fill="none" stroke="#bd6055" stroke-miterlimit="10" stroke-dasharray="3 3 3 3 3 3"/><polyline points="3.5 135.5 0.5 135.5 0.5 132.5" fill="none" stroke="#bd6055" stroke-miterlimit="10"/><line x1="0.5" y1="128.95" x2="0.5" y2="116.55" fill="none" stroke="#bd6055" stroke-miterlimit="10" stroke-dasharray="3.55 3.55 3.55 3.55"/><line x1="0.5" y1="114.77" x2="0.5" y2="95.27" fill="none" stroke="#bd6055" stroke-miterlimit="10" stroke-dasharray="3.55 3.55 3.55 3.55 3.55 3.55"/><polyline points="39.5 93.5 39.5 90.5 42.5 90.5" fill="none" stroke="#bd6055" stroke-miterlimit="10"/><line x1="45.5" y1="90.5" x2="56" y2="90.5" fill="none" stroke="#bd6055" stroke-miterlimit="10" stroke-dasharray="3 3 3 3"/><line x1="57.5" y1="90.5" x2="74" y2="90.5" fill="none" stroke="#bd6055" stroke-miterlimit="10" stroke-dasharray="3 3 3 3 3 3"/><polyline points="75.5 90.5 78.5 90.5 78.5 93.5" fill="none" stroke="#bd6055" stroke-miterlimit="10"/><line x1="78.5" y1="97.05" x2="78.5" y2="109.45" fill="none" stroke="#bd6055" stroke-miterlimit="10" stroke-dasharray="3.55 3.55 3.55 3.55"/><line x1="78.5" y1="111.23" x2="78.5" y2="130.73" fill="none" stroke="#bd6055" stroke-miterlimit="10" stroke-dasharray="3.55 3.55 3.55 3.55 3.55 3.55"/><polyline points="78.5 132.5 78.5 135.5 75.5 135.5" fill="none" stroke="#bd6055" stroke-miterlimit="10"/><line x1="72.5" y1="135.5" x2="62" y2="135.5" fill="none" stroke="#bd6055" stroke-miterlimit="10" stroke-dasharray="3 3 3 3"/><line x1="60.5" y1="135.5" x2="44" y2="135.5" fill="none" stroke="#bd6055" stroke-miterlimit="10" stroke-dasharray="3 3 3 3 3 3"/><polyline points="42.5 135.5 39.5 135.5 39.5 132.5" fill="none" stroke="#bd6055" stroke-miterlimit="10"/><line x1="39.5" y1="128.95" x2="39.5" y2="116.55" fill="none" stroke="#bd6055" stroke-miterlimit="10" stroke-dasharray="3.55 3.55 3.55 3.55"/><line x1="39.5" y1="114.77" x2="39.5" y2="95.27" fill="none" stroke="#bd6055" stroke-miterlimit="10" stroke-dasharray="3.55 3.55 3.55 3.55 3.55 3.55"/><polyline points="78.5 93.5 78.5 90.5 81.5 90.5" fill="none" stroke="#bd6055" stroke-miterlimit="10"/><line x1="84.5" y1="90.5" x2="95" y2="90.5" fill="none" stroke="#bd6055" stroke-miterlimit="10" stroke-dasharray="3 3 3 3"/><line x1="96.5" y1="90.5" x2="113" y2="90.5" fill="none" stroke="#bd6055" stroke-miterlimit="10" stroke-dasharray="3 3 3 3 3 3"/><polyline points="114.5 90.5 117.5 90.5 117.5 93.5" fill="none" stroke="#bd6055" stroke-miterlimit="10"/><line x1="117.5" y1="97.05" x2="117.5" y2="109.45" fill="none" stroke="#bd6055" stroke-miterlimit="10" stroke-dasharray="3.55 3.55 3.55 3.55"/><line x1="117.5" y1="111.23" x2="117.5" y2="130.73" fill="none" stroke="#bd6055" stroke-miterlimit="10" stroke-dasharray="3.55 3.55 3.55 3.55 3.55 3.55"/><polyline points="117.5 132.5 117.5 135.5 114.5 135.5" fill="none" stroke="#bd6055" stroke-miterlimit="10"/><line x1="111.5" y1="135.5" x2="101" y2="135.5" fill="none" stroke="#bd6055" stroke-miterlimit="10" stroke-dasharray="3 3 3 3"/><line x1="99.5" y1="135.5" x2="83" y2="135.5" fill="none" stroke="#bd6055" stroke-miterlimit="10" stroke-dasharray="3 3 3 3 3 3"/><polyline points="81.5 135.5 78.5 135.5 78.5 132.5" fill="none" stroke="#bd6055" stroke-miterlimit="10"/><line x1="78.5" y1="128.95" x2="78.5" y2="116.55" fill="none" stroke="#bd6055" stroke-miterlimit="10" stroke-dasharray="3.55 3.55 3.55 3.55"/><line x1="78.5" y1="114.77" x2="78.5" y2="95.27" fill="none" stroke="#bd6055" stroke-miterlimit="10" stroke-dasharray="3.55 3.55 3.55 3.55 3.55 3.55"/><polyline points="117.5 93.5 117.5 90.5 120.5 90.5" fill="none" stroke="#bd6055" stroke-miterlimit="10"/><line x1="123.5" y1="90.5" x2="134" y2="90.5" fill="none" stroke="#bd6055" stroke-miterlimit="10" stroke-dasharray="3 3 3 3"/><line x1="135.5" y1="90.5" x2="152" y2="90.5" fill="none" stroke="#bd6055" stroke-miterlimit="10" stroke-dasharray="3 3 3 3 3 3"/><polyline points="153.5 90.5 156.5 90.5 156.5 93.5" fill="none" stroke="#bd6055" stroke-miterlimit="10"/><line x1="156.5" y1="97.05" x2="156.5" y2="109.45" fill="none" stroke="#bd6055" stroke-miterlimit="10" stroke-dasharray="3.55 3.55 3.55 3.55"/><line x1="156.5" y1="111.23" x2="156.5" y2="130.73" fill="none" stroke="#bd6055" stroke-miterlimit="10" stroke-dasharray="3.55 3.55 3.55 3.55 3.55 3.55"/><polyline points="156.5 132.5 156.5 135.5 153.5 135.5" fill="none" stroke="#bd6055" stroke-miterlimit="10"/><line x1="150.5" y1="135.5" x2="140" y2="135.5" fill="none" stroke="#bd6055" stroke-miterlimit="10" stroke-dasharray="3 3 3 3"/><line x1="138.5" y1="135.5" x2="122" y2="135.5" fill="none" stroke="#bd6055" stroke-miterlimit="10" stroke-dasharray="3 3 3 3 3 3"/><polyline points="120.5 135.5 117.5 135.5 117.5 132.5" fill="none" stroke="#bd6055" stroke-miterlimit="10"/><line x1="117.5" y1="128.95" x2="117.5" y2="116.55" fill="none" stroke="#bd6055" stroke-miterlimit="10" stroke-dasharray="3.55 3.55 3.55 3.55"/><line x1="117.5" y1="114.77" x2="117.5" y2="95.27" fill="none" stroke="#bd6055" stroke-miterlimit="10" stroke-dasharray="3.55 3.55 3.55 3.55 3.55 3.55"/><polyline points="156.5 93.5 156.5 90.5 159.5 90.5" fill="none" stroke="#bd6055" stroke-miterlimit="10"/><line x1="162.5" y1="90.5" x2="173" y2="90.5" fill="none" stroke="#bd6055" stroke-miterlimit="10" stroke-dasharray="3 3 3 3"/><line x1="174.5" y1="90.5" x2="191" y2="90.5" fill="none" stroke="#bd6055" stroke-miterlimit="10" stroke-dasharray="3 3 3 3 3 3"/><polyline points="192.5 90.5 195.5 90.5 195.5 93.5" fill="none" stroke="#bd6055" stroke-miterlimit="10"/><line x1="195.5" y1="97.05" x2="195.5" y2="109.45" fill="none" stroke="#bd6055" stroke-miterlimit="10" stroke-dasharray="3.55 3.55 3.55 3.55"/><line x1="195.5" y1="111.23" x2="195.5" y2="130.73" fill="none" stroke="#bd6055" stroke-miterlimit="10" stroke-dasharray="3.55 3.55 3.55 3.55 3.55 3.55"/><polyline points="195.5 132.5 195.5 135.5 192.5 135.5" fill="none" stroke="#bd6055" stroke-miterlimit="10"/><line x1="189.5" y1="135.5" x2="179" y2="135.5" fill="none" stroke="#bd6055" stroke-miterlimit="10" stroke-dasharray="3 3 3 3"/><line x1="177.5" y1="135.5" x2="161" y2="135.5" fill="none" stroke="#bd6055" stroke-miterlimit="10" stroke-dasharray="3 3 3 3 3 3"/><polyline points="159.5 135.5 156.5 135.5 156.5 132.5" fill="none" stroke="#bd6055" stroke-miterlimit="10"/><line x1="156.5" y1="128.95" x2="156.5" y2="116.55" fill="none" stroke="#bd6055" stroke-miterlimit="10" stroke-dasharray="3.55 3.55 3.55 3.55"/><line x1="156.5" y1="114.77" x2="156.5" y2="95.27" fill="none" stroke="#bd6055" stroke-miterlimit="10" stroke-dasharray="3.55 3.55 3.55 3.55 3.55 3.55"/><polyline points="0.5 138.5 0.5 135.5 3.5 135.5" fill="none" stroke="#bd6055" stroke-miterlimit="10"/><line x1="6.5" y1="135.5" x2="17" y2="135.5" fill="none" stroke="#bd6055" stroke-miterlimit="10" stroke-dasharray="3 3 3 3"/><line x1="18.5" y1="135.5" x2="35" y2="135.5" fill="none" stroke="#bd6055" stroke-miterlimit="10" stroke-dasharray="3 3 3 3 3 3"/><polyline points="36.5 135.5 39.5 135.5 39.5 138.5" fill="none" stroke="#bd6055" stroke-miterlimit="10"/><line x1="39.5" y1="142.05" x2="39.5" y2="154.45" fill="none" stroke="#bd6055" stroke-miterlimit="10" stroke-dasharray="3.55 3.55 3.55 3.55"/><line x1="39.5" y1="156.23" x2="39.5" y2="175.73" fill="none" stroke="#bd6055" stroke-miterlimit="10" stroke-dasharray="3.55 3.55 3.55 3.55 3.55 3.55"/><polyline points="39.5 177.5 39.5 180.5 36.5 180.5" fill="none" stroke="#bd6055" stroke-miterlimit="10"/><line x1="33.5" y1="180.5" x2="23" y2="180.5" fill="none" stroke="#bd6055" stroke-miterlimit="10" stroke-dasharray="3 3 3 3"/><line x1="21.5" y1="180.5" x2="5" y2="180.5" fill="none" stroke="#bd6055" stroke-miterlimit="10" stroke-dasharray="3 3 3 3 3 3"/><polyline points="3.5 180.5 0.5 180.5 0.5 177.5" fill="none" stroke="#bd6055" stroke-miterlimit="10"/><line x1="0.5" y1="173.95" x2="0.5" y2="161.55" fill="none" stroke="#bd6055" stroke-miterlimit="10" stroke-dasharray="3.55 3.55 3.55 3.55"/><line x1="0.5" y1="159.77" x2="0.5" y2="140.27" fill="none" stroke="#bd6055" stroke-miterlimit="10" stroke-dasharray="3.55 3.55 3.55 3.55 3.55 3.55"/><polyline points="39.5 138.5 39.5 135.5 42.5 135.5" fill="none" stroke="#bd6055" stroke-miterlimit="10"/><line x1="45.5" y1="135.5" x2="56" y2="135.5" fill="none" stroke="#bd6055" stroke-miterlimit="10" stroke-dasharray="3 3 3 3"/><line x1="57.5" y1="135.5" x2="74" y2="135.5" fill="none" stroke="#bd6055" stroke-miterlimit="10" stroke-dasharray="3 3 3 3 3 3"/><polyline points="75.5 135.5 78.5 135.5 78.5 138.5" fill="none" stroke="#bd6055" stroke-miterlimit="10"/><line x1="78.5" y1="142.05" x2="78.5" y2="154.45" fill="none" stroke="#bd6055" stroke-miterlimit="10" stroke-dasharray="3.55 3.55 3.55 3.55"/><line x1="78.5" y1="156.23" x2="78.5" y2="175.73" fill="none" stroke="#bd6055" stroke-miterlimit="10" stroke-dasharray="3.55 3.55 3.55 3.55 3.55 3.55"/><polyline points="78.5 177.5 78.5 180.5 75.5 180.5" fill="none" stroke="#bd6055" stroke-miterlimit="10"/><line x1="72.5" y1="180.5" x2="62" y2="180.5" fill="none" stroke="#bd6055" stroke-miterlimit="10" stroke-dasharray="3 3 3 3"/><line x1="60.5" y1="180.5" x2="44" y2="180.5" fill="none" stroke="#bd6055" stroke-miterlimit="10" stroke-dasharray="3 3 3 3 3 3"/><polyline points="42.5 180.5 39.5 180.5 39.5 177.5" fill="none" stroke="#bd6055" stroke-miterlimit="10"/><line x1="39.5" y1="173.95" x2="39.5" y2="161.55" fill="none" stroke="#bd6055" stroke-miterlimit="10" stroke-dasharray="3.55 3.55 3.55 3.55"/><line x1="39.5" y1="159.77" x2="39.5" y2="140.27" fill="none" stroke="#bd6055" stroke-miterlimit="10" stroke-dasharray="3.55 3.55 3.55 3.55 3.55 3.55"/><polyline points="78.5 138.5 78.5 135.5 81.5 135.5" fill="none" stroke="#bd6055" stroke-miterlimit="10"/><line x1="84.5" y1="135.5" x2="95" y2="135.5" fill="none" stroke="#bd6055" stroke-miterlimit="10" stroke-dasharray="3 3 3 3"/><line x1="96.5" y1="135.5" x2="113" y2="135.5" fill="none" stroke="#bd6055" stroke-miterlimit="10" stroke-dasharray="3 3 3 3 3 3"/><polyline points="114.5 135.5 117.5 135.5 117.5 138.5" fill="none" stroke="#bd6055" stroke-miterlimit="10"/><line x1="117.5" y1="142.05" x2="117.5" y2="154.45" fill="none" stroke="#bd6055" stroke-miterlimit="10" stroke-dasharray="3.55 3.55 3.55 3.55"/><line x1="117.5" y1="156.23" x2="117.5" y2="175.73" fill="none" stroke="#bd6055" stroke-miterlimit="10" stroke-dasharray="3.55 3.55 3.55 3.55 3.55 3.55"/><polyline points="117.5 177.5 117.5 180.5 114.5 180.5" fill="none" stroke="#bd6055" stroke-miterlimit="10"/><line x1="111.5" y1="180.5" x2="101" y2="180.5" fill="none" stroke="#bd6055" stroke-miterlimit="10" stroke-dasharray="3 3 3 3"/><line x1="99.5" y1="180.5" x2="83" y2="180.5" fill="none" stroke="#bd6055" stroke-miterlimit="10" stroke-dasharray="3 3 3 3 3 3"/><polyline points="81.5 180.5 78.5 180.5 78.5 177.5" fill="none" stroke="#bd6055" stroke-miterlimit="10"/><line x1="78.5" y1="173.95" x2="78.5" y2="161.55" fill="none" stroke="#bd6055" stroke-miterlimit="10" stroke-dasharray="3.55 3.55 3.55 3.55"/><line x1="78.5" y1="159.77" x2="78.5" y2="140.27" fill="none" stroke="#bd6055" stroke-miterlimit="10" stroke-dasharray="3.55 3.55 3.55 3.55 3.55 3.55"/><polyline points="117.5 138.5 117.5 135.5 120.5 135.5" fill="none" stroke="#bd6055" stroke-miterlimit="10"/><line x1="123.5" y1="135.5" x2="134" y2="135.5" fill="none" stroke="#bd6055" stroke-miterlimit="10" stroke-dasharray="3 3 3 3"/><line x1="135.5" y1="135.5" x2="152" y2="135.5" fill="none" stroke="#bd6055" stroke-miterlimit="10" stroke-dasharray="3 3 3 3 3 3"/><polyline points="153.5 135.5 156.5 135.5 156.5 138.5" fill="none" stroke="#bd6055" stroke-miterlimit="10"/><line x1="156.5" y1="142.05" x2="156.5" y2="154.45" fill="none" stroke="#bd6055" stroke-miterlimit="10" stroke-dasharray="3.55 3.55 3.55 3.55"/><line x1="156.5" y1="156.23" x2="156.5" y2="175.73" fill="none" stroke="#bd6055" stroke-miterlimit="10" stroke-dasharray="3.55 3.55 3.55 3.55 3.55 3.55"/><polyline points="156.5 177.5 156.5 180.5 153.5 180.5" fill="none" stroke="#bd6055" stroke-miterlimit="10"/><line x1="150.5" y1="180.5" x2="140" y2="180.5" fill="none" stroke="#bd6055" stroke-miterlimit="10" stroke-dasharray="3 3 3 3"/><line x1="138.5" y1="180.5" x2="122" y2="180.5" fill="none" stroke="#bd6055" stroke-miterlimit="10" stroke-dasharray="3 3 3 3 3 3"/><polyline points="120.5 180.5 117.5 180.5 117.5 177.5" fill="none" stroke="#bd6055" stroke-miterlimit="10"/><line x1="117.5" y1="173.95" x2="117.5" y2="161.55" fill="none" stroke="#bd6055" stroke-miterlimit="10" stroke-dasharray="3.55 3.55 3.55 3.55"/><line x1="117.5" y1="159.77" x2="117.5" y2="140.27" fill="none" stroke="#bd6055" stroke-miterlimit="10" stroke-dasharray="3.55 3.55 3.55 3.55 3.55 3.55"/><polyline points="156.5 138.5 156.5 135.5 159.5 135.5" fill="none" stroke="#bd6055" stroke-miterlimit="10"/><line x1="162.5" y1="135.5" x2="173" y2="135.5" fill="none" stroke="#bd6055" stroke-miterlimit="10" stroke-dasharray="3 3 3 3"/><line x1="174.5" y1="135.5" x2="191" y2="135.5" fill="none" stroke="#bd6055" stroke-miterlimit="10" stroke-dasharray="3 3 3 3 3 3"/><polyline points="192.5 135.5 195.5 135.5 195.5 138.5" fill="none" stroke="#bd6055" stroke-miterlimit="10"/><line x1="195.5" y1="142.05" x2="195.5" y2="154.45" fill="none" stroke="#bd6055" stroke-miterlimit="10" stroke-dasharray="3.55 3.55 3.55 3.55"/><line x1="195.5" y1="156.23" x2="195.5" y2="175.73" fill="none" stroke="#bd6055" stroke-miterlimit="10" stroke-dasharray="3.55 3.55 3.55 3.55 3.55 3.55"/><polyline points="195.5 177.5 195.5 180.5 192.5 180.5" fill="none" stroke="#bd6055" stroke-miterlimit="10"/><line x1="189.5" y1="180.5" x2="179" y2="180.5" fill="none" stroke="#bd6055" stroke-miterlimit="10" stroke-dasharray="3 3 3 3"/><line x1="177.5" y1="180.5" x2="161" y2="180.5" fill="none" stroke="#bd6055" stroke-miterlimit="10" stroke-dasharray="3 3 3 3 3 3"/><polyline points="159.5 180.5 156.5 180.5 156.5 177.5" fill="none" stroke="#bd6055" stroke-miterlimit="10"/><line x1="156.5" y1="173.95" x2="156.5" y2="161.55" fill="none" stroke="#bd6055" stroke-miterlimit="10" stroke-dasharray="3.55 3.55 3.55 3.55"/><line x1="156.5" y1="159.77" x2="156.5" y2="140.27" fill="none" stroke="#bd6055" stroke-miterlimit="10" stroke-dasharray="3.55 3.55 3.55 3.55 3.55 3.55"/><polyline points="0.5 183.5 0.5 180.5 3.5 180.5" fill="none" stroke="#bd6055" stroke-miterlimit="10"/><line x1="6.5" y1="180.5" x2="17" y2="180.5" fill="none" stroke="#bd6055" stroke-miterlimit="10" stroke-dasharray="3 3 3 3"/><line x1="18.5" y1="180.5" x2="35" y2="180.5" fill="none" stroke="#bd6055" stroke-miterlimit="10" stroke-dasharray="3 3 3 3 3 3"/><polyline points="36.5 180.5 39.5 180.5 39.5 183.5" fill="none" stroke="#bd6055" stroke-miterlimit="10"/><line x1="39.5" y1="187.05" x2="39.5" y2="199.45" fill="none" stroke="#bd6055" stroke-miterlimit="10" stroke-dasharray="3.55 3.55 3.55 3.55"/><line x1="39.5" y1="201.23" x2="39.5" y2="220.73" fill="none" stroke="#bd6055" stroke-miterlimit="10" stroke-dasharray="3.55 3.55 3.55 3.55 3.55 3.55"/><polyline points="39.5 222.5 39.5 225.5 36.5 225.5" fill="none" stroke="#bd6055" stroke-miterlimit="10"/><line x1="33.5" y1="225.5" x2="23" y2="225.5" fill="none" stroke="#bd6055" stroke-miterlimit="10" stroke-dasharray="3 3 3 3"/><line x1="21.5" y1="225.5" x2="5" y2="225.5" fill="none" stroke="#bd6055" stroke-miterlimit="10" stroke-dasharray="3 3 3 3 3 3"/><polyline points="3.5 225.5 0.5 225.5 0.5 222.5" fill="none" stroke="#bd6055" stroke-miterlimit="10"/><line x1="0.5" y1="218.95" x2="0.5" y2="206.55" fill="none" stroke="#bd6055" stroke-miterlimit="10" stroke-dasharray="3.55 3.55 3.55 3.55"/><line x1="0.5" y1="204.77" x2="0.5" y2="185.27" fill="none" stroke="#bd6055" stroke-miterlimit="10" stroke-dasharray="3.55 3.55 3.55 3.55 3.55 3.55"/><polyline points="39.5 183.5 39.5 180.5 42.5 180.5" fill="none" stroke="#bd6055" stroke-miterlimit="10"/><line x1="45.5" y1="180.5" x2="56" y2="180.5" fill="none" stroke="#bd6055" stroke-miterlimit="10" stroke-dasharray="3 3 3 3"/><line x1="57.5" y1="180.5" x2="74" y2="180.5" fill="none" stroke="#bd6055" stroke-miterlimit="10" stroke-dasharray="3 3 3 3 3 3"/><polyline points="75.5 180.5 78.5 180.5 78.5 183.5" fill="none" stroke="#bd6055" stroke-miterlimit="10"/><line x1="78.5" y1="187.05" x2="78.5" y2="199.45" fill="none" stroke="#bd6055" stroke-miterlimit="10" stroke-dasharray="3.55 3.55 3.55 3.55"/><line x1="78.5" y1="201.23" x2="78.5" y2="220.73" fill="none" stroke="#bd6055" stroke-miterlimit="10" stroke-dasharray="3.55 3.55 3.55 3.55 3.55 3.55"/><polyline points="78.5 222.5 78.5 225.5 75.5 225.5" fill="none" stroke="#bd6055" stroke-miterlimit="10"/><line x1="72.5" y1="225.5" x2="62" y2="225.5" fill="none" stroke="#bd6055" stroke-miterlimit="10" stroke-dasharray="3 3 3 3"/><line x1="60.5" y1="225.5" x2="44" y2="225.5" fill="none" stroke="#bd6055" stroke-miterlimit="10" stroke-dasharray="3 3 3 3 3 3"/><polyline points="42.5 225.5 39.5 225.5 39.5 222.5" fill="none" stroke="#bd6055" stroke-miterlimit="10"/><line x1="39.5" y1="218.95" x2="39.5" y2="206.55" fill="none" stroke="#bd6055" stroke-miterlimit="10" stroke-dasharray="3.55 3.55 3.55 3.55"/><line x1="39.5" y1="204.77" x2="39.5" y2="185.27" fill="none" stroke="#bd6055" stroke-miterlimit="10" stroke-dasharray="3.55 3.55 3.55 3.55 3.55 3.55"/><polyline points="78.5 183.5 78.5 180.5 81.5 180.5" fill="none" stroke="#bd6055" stroke-miterlimit="10"/><line x1="84.5" y1="180.5" x2="95" y2="180.5" fill="none" stroke="#bd6055" stroke-miterlimit="10" stroke-dasharray="3 3 3 3"/><line x1="96.5" y1="180.5" x2="113" y2="180.5" fill="none" stroke="#bd6055" stroke-miterlimit="10" stroke-dasharray="3 3 3 3 3 3"/><polyline points="114.5 180.5 117.5 180.5 117.5 183.5" fill="none" stroke="#bd6055" stroke-miterlimit="10"/><line x1="117.5" y1="187.05" x2="117.5" y2="199.45" fill="none" stroke="#bd6055" stroke-miterlimit="10" stroke-dasharray="3.55 3.55 3.55 3.55"/><line x1="117.5" y1="201.23" x2="117.5" y2="220.73" fill="none" stroke="#bd6055" stroke-miterlimit="10" stroke-dasharray="3.55 3.55 3.55 3.55 3.55 3.55"/><polyline points="117.5 222.5 117.5 225.5 114.5 225.5" fill="none" stroke="#bd6055" stroke-miterlimit="10"/><line x1="111.5" y1="225.5" x2="101" y2="225.5" fill="none" stroke="#bd6055" stroke-miterlimit="10" stroke-dasharray="3 3 3 3"/><line x1="99.5" y1="225.5" x2="83" y2="225.5" fill="none" stroke="#bd6055" stroke-miterlimit="10" stroke-dasharray="3 3 3 3 3 3"/><polyline points="81.5 225.5 78.5 225.5 78.5 222.5" fill="none" stroke="#bd6055" stroke-miterlimit="10"/><line x1="78.5" y1="218.95" x2="78.5" y2="206.55" fill="none" stroke="#bd6055" stroke-miterlimit="10" stroke-dasharray="3.55 3.55 3.55 3.55"/><line x1="78.5" y1="204.77" x2="78.5" y2="185.27" fill="none" stroke="#bd6055" stroke-miterlimit="10" stroke-dasharray="3.55 3.55 3.55 3.55 3.55 3.55"/><polyline points="117.5 183.5 117.5 180.5 120.5 180.5" fill="none" stroke="#bd6055" stroke-miterlimit="10"/><line x1="123.5" y1="180.5" x2="134" y2="180.5" fill="none" stroke="#bd6055" stroke-miterlimit="10" stroke-dasharray="3 3 3 3"/><line x1="135.5" y1="180.5" x2="152" y2="180.5" fill="none" stroke="#bd6055" stroke-miterlimit="10" stroke-dasharray="3 3 3 3 3 3"/><polyline points="153.5 180.5 156.5 180.5 156.5 183.5" fill="none" stroke="#bd6055" stroke-miterlimit="10"/><line x1="156.5" y1="187.05" x2="156.5" y2="199.45" fill="none" stroke="#bd6055" stroke-miterlimit="10" stroke-dasharray="3.55 3.55 3.55 3.55"/><line x1="156.5" y1="201.23" x2="156.5" y2="220.73" fill="none" stroke="#bd6055" stroke-miterlimit="10" stroke-dasharray="3.55 3.55 3.55 3.55 3.55 3.55"/><polyline points="156.5 222.5 156.5 225.5 153.5 225.5" fill="none" stroke="#bd6055" stroke-miterlimit="10"/><line x1="150.5" y1="225.5" x2="140" y2="225.5" fill="none" stroke="#bd6055" stroke-miterlimit="10" stroke-dasharray="3 3 3 3"/><line x1="138.5" y1="225.5" x2="122" y2="225.5" fill="none" stroke="#bd6055" stroke-miterlimit="10" stroke-dasharray="3 3 3 3 3 3"/><polyline points="120.5 225.5 117.5 225.5 117.5 222.5" fill="none" stroke="#bd6055" stroke-miterlimit="10"/><line x1="117.5" y1="218.95" x2="117.5" y2="206.55" fill="none" stroke="#bd6055" stroke-miterlimit="10" stroke-dasharray="3.55 3.55 3.55 3.55"/><line x1="117.5" y1="204.77" x2="117.5" y2="185.27" fill="none" stroke="#bd6055" stroke-miterlimit="10" stroke-dasharray="3.55 3.55 3.55 3.55 3.55 3.55"/><polyline points="156.5 183.5 156.5 180.5 159.5 180.5" fill="none" stroke="#bd6055" stroke-miterlimit="10"/><line x1="162.5" y1="180.5" x2="173" y2="180.5" fill="none" stroke="#bd6055" stroke-miterlimit="10" stroke-dasharray="3 3 3 3"/><line x1="174.5" y1="180.5" x2="191" y2="180.5" fill="none" stroke="#bd6055" stroke-miterlimit="10" stroke-dasharray="3 3 3 3 3 3"/><polyline points="192.5 180.5 195.5 180.5 195.5 183.5" fill="none" stroke="#bd6055" stroke-miterlimit="10"/><line x1="195.5" y1="187.05" x2="195.5" y2="199.45" fill="none" stroke="#bd6055" stroke-miterlimit="10" stroke-dasharray="3.55 3.55 3.55 3.55"/><line x1="195.5" y1="201.23" x2="195.5" y2="220.73" fill="none" stroke="#bd6055" stroke-miterlimit="10" stroke-dasharray="3.55 3.55 3.55 3.55 3.55 3.55"/><polyline points="195.5 222.5 195.5 225.5 192.5 225.5" fill="none" stroke="#bd6055" stroke-miterlimit="10"/><line x1="189.5" y1="225.5" x2="179" y2="225.5" fill="none" stroke="#bd6055" stroke-miterlimit="10" stroke-dasharray="3 3 3 3"/><line x1="177.5" y1="225.5" x2="161" y2="225.5" fill="none" stroke="#bd6055" stroke-miterlimit="10" stroke-dasharray="3 3 3 3 3 3"/><polyline points="159.5 225.5 156.5 225.5 156.5 222.5" fill="none" stroke="#bd6055" stroke-miterlimit="10"/><line x1="156.5" y1="218.95" x2="156.5" y2="206.55" fill="none" stroke="#bd6055" stroke-miterlimit="10" stroke-dasharray="3.55 3.55 3.55 3.55"/><line x1="156.5" y1="204.77" x2="156.5" y2="185.27" fill="none" stroke="#bd6055" stroke-miterlimit="10" stroke-dasharray="3.55 3.55 3.55 3.55 3.55 3.55"/></g></g></g></svg>