<svg viewBox="0 0 700 700" xmlns="http://www.w3.org/2000/svg"><g stroke="#000"><path d="m.736328.736298h698.52734v698.5274h-698.52734z" fill="#fdd775" stroke-width="1.472625"/><path d="m50 50h598.93866" stroke-width="1.730518"/><path d="m50 150h600" stroke-width="1.732051"/><path d="m50 250h599.87543" stroke-width="1.731871"/><path d="m50 350h600.70929" stroke-width="1.733074"/><path d="m50 450h599.87543" stroke-width="1.731871"/><path d="m50 550h600.70929" stroke-width="1.733074"/><path d="m50 650h600" stroke-width="1.732051"/><path d="m50 50v600" stroke-width="1.632993"/><path d="m150 49.76416v600.23584" stroke-width="2.449971"/><path d="m250 50.35376v599.64624" stroke-width="2.448767"/><path d="m350 50.35376v599.64624" stroke-width="2.448767"/><path d="m450 50.35376v599.64624" stroke-width="2.448767"/><path d="m550 49.76416v600.23584" stroke-width="2.449971"/><path d="m650 49.17453v600.82547" stroke-width="2.451174"/><g stroke-width="2"><path d="m251.17924 50.70755 200.00002 200.00003"/><path d="m250.58961 250.11792 200.00002-200"/><path d="m250 450 200 200"/><path d="m250 650 200-200"/></g></g></svg>