<?xml version="1.0" encoding="UTF-8" standalone="no"?>
<svg
   viewBox="0 0 800 800"
   version="1.1"
   id="svg19"
   sodipodi:docname="sinting.svg"
   inkscape:version="1.2.2 (b0a8486541, 2022-12-01)"
   xmlns:inkscape="http://www.inkscape.org/namespaces/inkscape"
   xmlns:sodipodi="http://sodipodi.sourceforge.net/DTD/sodipodi-0.dtd"
   xmlns="http://www.w3.org/2000/svg"
   xmlns:svg="http://www.w3.org/2000/svg">
  <defs
     id="defs23" />
  <sodipodi:namedview
     id="namedview21"
     pagecolor="#ffffff"
     bordercolor="#666666"
     borderopacity="1.0"
     inkscape:showpageshadow="2"
     inkscape:pageopacity="0.0"
     inkscape:pagecheckerboard="0"
     inkscape:deskcolor="#d1d1d1"
     showgrid="false"
     inkscape:zoom="1"
     inkscape:cx="108"
     inkscape:cy="880"
     inkscape:window-width="2494"
     inkscape:window-height="1371"
     inkscape:window-x="0"
     inkscape:window-y="0"
     inkscape:window-maximized="1"
     inkscape:current-layer="svg19" />
  <g
     id="g1322"
     style="fill:#00ff00;fill-opacity:1">
    <g
       id="g1225"
       style="fill:#00ff00;fill-opacity:1">
      <path
         d="M 100,0 H 0 v 100 h 100 z"
         fill="#b58863"
         id="path2"
         style="fill:#00ff00;stroke-width:0.125;fill-opacity:1" />
      <path
         d="M 300,0 H 200 v 100 h 100 z"
         fill="#b58863"
         id="path2-5"
         style="fill:#00ff00;stroke-width:0.125;fill-opacity:1" />
      <path
         d="M 100,200 H 0 v 100 h 100 z"
         fill="#b58863"
         id="path2-2"
         style="fill:#00ff00;stroke-width:0.125;fill-opacity:1" />
      <path
         d="M 400,300 H 300 v 100 h 100 z"
         fill="#b58863"
         id="path2-3-3-0"
         style="fill:#00ff00;stroke-width:0.125;fill-opacity:1" />
      <path
         d="M 500,0 H 400 v 100 h 100 z"
         fill="#b58863"
         id="path2-6"
         style="fill:#00ff00;stroke-width:0.125;fill-opacity:1" />
      <path
         d="M 700,0 H 600 v 100 h 100 z"
         fill="#b58863"
         id="path2-5-2"
         style="fill:#00ff00;stroke-width:0.125;fill-opacity:1" />
      <path
         d="M 800,100 H 700 v 100 h 100 z"
         fill="#b58863"
         id="path2-3-3-06"
         style="fill:#00ff00;stroke-width:0.125;fill-opacity:1" />
      <path
         d="M 800,300 H 700 v 100 h 100 z"
         fill="#b58863"
         id="path2-3-3-0-6"
         style="fill:#00ff00;stroke-width:0.125;fill-opacity:1" />
      <path
         d="M 100,400 H 0 v 100 h 100 z"
         fill="#b58863"
         id="path2-7"
         style="fill:#00ff00;stroke-width:0.125;fill-opacity:1" />
      <path
         d="M 100,600 H 0 v 100 h 100 z"
         fill="#b58863"
         id="path2-2-3"
         style="fill:#00ff00;stroke-width:0.125;fill-opacity:1" />
      <path
         d="M 200,700 H 100 v 100 h 100 z"
         fill="#b58863"
         id="path2-3-9-0"
         style="fill:#00ff00;stroke-width:0.125;fill-opacity:1" />
      <path
         d="M 400,700 H 300 v 100 h 100 z"
         fill="#b58863"
         id="path2-3-3-0-4"
         style="fill:#00ff00;stroke-width:0.125;fill-opacity:1" />
      <path
         d="M 500,400 H 400 v 100 h 100 z"
         fill="#b58863"
         id="path2-6-4"
         style="fill:#00ff00;stroke-width:0.125;fill-opacity:1" />
      <path
         d="M 800,500 H 700 v 100 h 100 z"
         fill="#b58863"
         id="path2-3-3-06-8"
         style="fill:#00ff00;stroke-width:0.125;fill-opacity:1" />
      <path
         d="M 600,700 H 500 v 100 h 100 z"
         fill="#b58863"
         id="path2-3-9-4-6"
         style="fill:#00ff00;stroke-width:0.125;fill-opacity:1" />
    </g>
    <path
       d="M 800,700 H 700 v 100 h 100 z"
       fill="#b58863"
       id="path2-3-9-4-6-7"
       style="fill:#00ff00;stroke-width:0.125;fill-opacity:1" />
  </g>
  <g
     id="g1243"
     style="fill:#008000;fill-opacity:1">
    <path
       d="M 300,100 H 200 v 100 h 100 z"
       fill="#b58863"
       id="path2-3-6-5"
       style="fill:#008000;stroke-width:0.125;fill-opacity:1" />
    <path
       d="M 200,200 H 100 v 100 h 100 z"
       fill="#b58863"
       id="path2-3-7-2"
       style="fill:#008000;stroke-width:0.125;fill-opacity:1" />
    <path
       d="M 300,300 H 200 v 100 h 100 z"
       fill="#b58863"
       id="path2-3-6-5-9"
       style="fill:#008000;stroke-width:0.125;fill-opacity:1" />
    <path
       d="M 400,200 H 300 v 100 h 100 z"
       fill="#b58863"
       id="path2-3-7-6-3"
       style="fill:#008000;stroke-width:0.125;fill-opacity:1" />
    <path
       d="M 500,100 H 400 v 100 h 100 z"
       fill="#b58863"
       id="path2-3-6-0"
       style="fill:#008000;stroke-width:0.125;fill-opacity:1" />
    <path
       d="M 700,100 H 600 v 100 h 100 z"
       fill="#b58863"
       id="path2-3-6-5-1"
       style="fill:#008000;stroke-width:0.125;fill-opacity:1" />
    <path
       d="M 600,200 H 500 v 100 h 100 z"
       fill="#b58863"
       id="path2-3-7-2-6"
       style="fill:#008000;stroke-width:0.125;fill-opacity:1" />
    <path
       d="M 700,300 H 600 v 100 h 100 z"
       fill="#b58863"
       id="path2-3-6-5-9-9"
       style="fill:#008000;stroke-width:0.125;fill-opacity:1" />
    <path
       d="M 200,400 H 100 v 100 h 100 z"
       fill="#b58863"
       id="path2-3-7-5"
       style="fill:#008000;stroke-width:0.125;fill-opacity:1" />
    <path
       d="M 300,500 H 200 v 100 h 100 z"
       fill="#b58863"
       id="path2-3-6-5-4"
       style="fill:#008000;stroke-width:0.125;fill-opacity:1" />
    <path
       d="M 200,600 H 100 v 100 h 100 z"
       fill="#b58863"
       id="path2-3-7-2-68"
       style="fill:#008000;stroke-width:0.125;fill-opacity:1" />
    <path
       d="M 400,600 H 300 v 100 h 100 z"
       fill="#b58863"
       id="path2-3-7-6-3-1"
       style="fill:#008000;stroke-width:0.125;fill-opacity:1" />
    <path
       d="M 500,500 H 400 v 100 h 100 z"
       fill="#b58863"
       id="path2-3-6-0-2"
       style="fill:#008000;stroke-width:0.125;fill-opacity:1" />
    <path
       d="M 600,400 H 500 v 100 h 100 z"
       fill="#b58863"
       id="path2-3-7-63-0"
       style="fill:#008000;stroke-width:0.125;fill-opacity:1" />
    <path
       d="M 700,500 H 600 v 100 h 100 z"
       fill="#b58863"
       id="path2-3-6-5-1-9"
       style="fill:#008000;stroke-width:0.125;fill-opacity:1" />
    <path
       d="M 600,600 H 500 v 100 h 100 z"
       fill="#b58863"
       id="path2-3-7-2-6-9"
       style="fill:#008000;stroke-width:0.125;fill-opacity:1" />
  </g>
  <g
     id="g1261"
     style="fill:#ff0000;fill-opacity:1">
    <path
       d="M 200,100 H 100 v 100 h 100 z"
       fill="#b58863"
       id="path2-3"
       style="fill:#ff0000;stroke-width:0.125;fill-opacity:1" />
    <path
       d="M 400,100 H 300 v 100 h 100 z"
       fill="#b58863"
       id="path2-3-3"
       style="fill:#ff0000;stroke-width:0.125;fill-opacity:1" />
    <path
       d="M 200,300 H 100 v 100 h 100 z"
       fill="#b58863"
       id="path2-3-9"
       style="fill:#ff0000;stroke-width:0.125;fill-opacity:1" />
    <path
       d="M 300,200 H 200 v 100 h 100 z"
       fill="#b58863"
       id="path2-5-7"
       style="fill:#ff0000;stroke-width:0.125;fill-opacity:1" />
    <path
       d="M 600,100 H 500 v 100 h 100 z"
       fill="#b58863"
       id="path2-3-1"
       style="fill:#ff0000;stroke-width:0.125;fill-opacity:1" />
    <path
       d="M 500,200 H 400 v 100 h 100 z"
       fill="#b58863"
       id="path2-2-5"
       style="fill:#ff0000;stroke-width:0.125;fill-opacity:1" />
    <path
       d="M 600,300 H 500 v 100 h 100 z"
       fill="#b58863"
       id="path2-3-9-4"
       style="fill:#ff0000;stroke-width:0.125;fill-opacity:1" />
    <path
       d="M 700,200 H 600 v 100 h 100 z"
       fill="#b58863"
       id="path2-5-7-5"
       style="fill:#ff0000;stroke-width:0.125;fill-opacity:1" />
    <path
       d="M 200,500 H 100 v 100 h 100 z"
       fill="#b58863"
       id="path2-3-4"
       style="fill:#ff0000;stroke-width:0.125;fill-opacity:1" />
    <path
       d="M 300,400 H 200 v 100 h 100 z"
       fill="#b58863"
       id="path2-5-4"
       style="fill:#ff0000;stroke-width:0.125;fill-opacity:1" />
    <path
       d="M 400,500 H 300 v 100 h 100 z"
       fill="#b58863"
       id="path2-3-3-7"
       style="fill:#ff0000;stroke-width:0.125;fill-opacity:1" />
    <path
       d="M 300,600 H 200 v 100 h 100 z"
       fill="#b58863"
       id="path2-5-7-8"
       style="fill:#ff0000;stroke-width:0.125;fill-opacity:1" />
    <path
       d="M 600,500 H 500 v 100 h 100 z"
       fill="#b58863"
       id="path2-3-1-9"
       style="fill:#ff0000;stroke-width:0.125;fill-opacity:1" />
    <path
       d="M 700,400 H 600 v 100 h 100 z"
       fill="#b58863"
       id="path2-5-2-6"
       style="fill:#ff0000;stroke-width:0.125;fill-opacity:1" />
    <path
       d="M 500,600 H 400 v 100 h 100 z"
       fill="#b58863"
       id="path2-2-5-6"
       style="fill:#ff0000;stroke-width:0.125;fill-opacity:1" />
    <path
       d="M 700,600 H 600 v 100 h 100 z"
       fill="#b58863"
       id="path2-5-7-5-5"
       style="fill:#ff0000;stroke-width:0.125;fill-opacity:1" />
  </g>
  <g
     id="g1340"
     style="fill:#800000;fill-opacity:1">
    <path
       d="M 100,100 H 0 v 100 h 100 z"
       fill="#b58863"
       id="path2-3-6"
       style="fill:#800000;stroke-width:0.125;fill-opacity:1" />
    <path
       d="M 200,0 H 100 v 100 h 100 z"
       fill="#b58863"
       id="path2-3-7"
       style="fill:#800000;stroke-width:0.125;fill-opacity:1" />
    <path
       d="M 400,0 H 300 v 100 h 100 z"
       fill="#b58863"
       id="path2-3-7-6"
       style="fill:#800000;stroke-width:0.125;fill-opacity:1" />
    <path
       d="M 100,300 H 0 v 100 h 100 z"
       fill="#b58863"
       id="path2-3-6-1"
       style="fill:#800000;stroke-width:0.125;fill-opacity:1" />
    <path
       d="M 600,0 H 500 v 100 h 100 z"
       fill="#b58863"
       id="path2-3-7-63"
       style="fill:#800000;stroke-width:0.125;fill-opacity:1" />
    <path
       d="M 800,0 H 700 v 100 h 100 z"
       fill="#b58863"
       id="path2-3-7-6-5"
       style="fill:#800000;stroke-width:0.125;fill-opacity:1" />
    <path
       d="M 500,300 H 400 v 100 h 100 z"
       fill="#b58863"
       id="path2-3-6-1-7"
       style="fill:#800000;stroke-width:0.125;fill-opacity:1" />
    <path
       d="M 800,200 H 700 v 100 h 100 z"
       fill="#b58863"
       id="path2-3-7-6-3-3"
       style="fill:#800000;stroke-width:0.125;fill-opacity:1" />
    <path
       d="M 100,500 H 0 v 100 h 100 z"
       fill="#b58863"
       id="path2-3-6-52"
       style="fill:#800000;stroke-width:0.125;fill-opacity:1" />
    <path
       d="M 400,400 H 300 v 100 h 100 z"
       fill="#b58863"
       id="path2-3-7-6-4"
       style="fill:#800000;stroke-width:0.125;fill-opacity:1" />
    <path
       d="M 100,700 H 0 v 100 h 100 z"
       fill="#b58863"
       id="path2-3-6-1-78"
       style="fill:#800000;stroke-width:0.125;fill-opacity:1" />
    <path
       d="M 300,700 H 200 v 100 h 100 z"
       fill="#b58863"
       id="path2-3-6-5-9-3"
       style="fill:#800000;stroke-width:0.125;fill-opacity:1" />
    <path
       d="M 800,400 H 700 v 100 h 100 z"
       fill="#b58863"
       id="path2-3-7-6-5-2"
       style="fill:#800000;stroke-width:0.125;fill-opacity:1" />
    <path
       d="M 500,700 H 400 v 100 h 100 z"
       fill="#b58863"
       id="path2-3-6-1-7-4"
       style="fill:#800000;stroke-width:0.125;fill-opacity:1" />
    <path
       d="M 700,700 H 600 v 100 h 100 z"
       fill="#b58863"
       id="path2-3-6-5-9-9-4"
       style="fill:#800000;stroke-width:0.125;fill-opacity:1" />
    <path
       d="M 800,600 H 700 v 100 h 100 z"
       fill="#b58863"
       id="path2-3-7-6-3-3-8"
       style="fill:#800000;stroke-width:0.125;fill-opacity:1" />
  </g>
</svg>
