<?xml version="1.0" encoding="UTF-8" standalone="no"?>
<svg
   xmlns:dc="http://purl.org/dc/elements/1.1/"
   xmlns:cc="http://creativecommons.org/ns#"
   xmlns:rdf="http://www.w3.org/1999/02/22-rdf-syntax-ns#"
   xmlns:svg="http://www.w3.org/2000/svg"
   xmlns="http://www.w3.org/2000/svg"
   xmlns:sodipodi="http://sodipodi.sourceforge.net/DTD/sodipodi-0.dtd"
   xmlns:inkscape="http://www.inkscape.org/namespaces/inkscape"
   version="1.1"
   viewBox="0 0 900 1000"
   id="svg11724"
   sodipodi:docname="xiangqi.svg"
   inkscape:version="1.0.1 (3bc2e813f5, 2020-09-07)">
  <metadata
     id="metadata11730">
    <rdf:RDF>
      <cc:Work
         rdf:about="">
        <dc:format>image/svg+xml</dc:format>
        <dc:type
           rdf:resource="http://purl.org/dc/dcmitype/StillImage" />
        <dc:title></dc:title>
      </cc:Work>
    </rdf:RDF>
  </metadata>
  <defs
     id="defs11728">
    <inkscape:path-effect
       oposite_fuse="false"
       fuse_paths="false"
       discard_orig_path="false"
       mode="free"
       is_visible="true"
       id="path-effect12293"
       center_point="149.93674,249.86762"
       end_point="142.25894,249.87674"
       start_point="157.61453,249.8585"
       effect="mirror_symmetry" />
    <inkscape:path-effect
       oposite_fuse="false"
       fuse_paths="false"
       discard_orig_path="false"
       mode="free"
       is_visible="true"
       id="path-effect12291"
       center_point="149.99842,234.45834"
       end_point="149.99842,244.91425"
       start_point="149.99842,224.00243"
       effect="mirror_symmetry" />
    <inkscape:path-effect
       effect="mirror_symmetry"
       start_point="157.5209,249.93842"
       end_point="142.25894,249.87674"
       center_point="149.88992,249.90758"
       id="path-effect12287"
       is_visible="true"
       mode="free"
       discard_orig_path="false"
       fuse_paths="false"
       oposite_fuse="false" />
    <inkscape:path-effect
       effect="mirror_symmetry"
       start_point="149.99842,224.00243"
       end_point="149.99842,244.91425"
       center_point="149.99842,234.45834"
       id="path-effect12285"
       is_visible="true"
       mode="free"
       discard_orig_path="false"
       fuse_paths="false"
       oposite_fuse="false" />
  </defs>
  <sodipodi:namedview
     pagecolor="#ffffff"
     bordercolor="#666666"
     borderopacity="1"
     objecttolerance="10"
     gridtolerance="10"
     guidetolerance="10"
     inkscape:pageopacity="0"
     inkscape:pageshadow="2"
     inkscape:window-width="3840"
     inkscape:window-height="2050"
     id="namedview11726"
     showgrid="false"
     inkscape:zoom="1.3350176"
     inkscape:cx="337.17285"
     inkscape:cy="458.49253"
     inkscape:window-x="-12"
     inkscape:window-y="-12"
     inkscape:window-maximized="1"
     inkscape:current-layer="svg11724"
     inkscape:document-rotation="0" />
  <path
     id="rect17904"
     style="fill:#e5dec6;fill-opacity:1;stroke:#df4a4a;stroke-width:3;stroke-linecap:round;stroke-linejoin:round;paint-order:stroke fill markers"
     d="M 0,0 H 900 V 1000 H 0 Z" />
  <rect
     width="900"
     height="1000"
     style="fill:none;stroke-width:2;stroke:black"
     id="rect11662" />
  <line
     x1="50"
     y1="50"
     x2="850"
     y2="50"
     style="stroke-width:2;stroke:black"
     id="line11664" />
  <line
     x1="50"
     y1="150"
     x2="850"
     y2="150"
     style="stroke-width:2;stroke:black"
     id="line11666" />
  <line
     x1="50"
     y1="250"
     x2="850"
     y2="250"
     style="stroke-width:2;stroke:black"
     id="line11668" />
  <line
     x1="50"
     y1="350"
     x2="850"
     y2="350"
     style="stroke-width:2;stroke:black"
     id="line11670" />
  <line
     x1="50"
     y1="450"
     x2="850"
     y2="450"
     style="stroke-width:2;stroke:black"
     id="line11672" />
  <line
     x1="50"
     y1="550"
     x2="850"
     y2="550"
     style="stroke-width:2;stroke:black"
     id="line11674" />
  <line
     x1="50"
     y1="650"
     x2="850"
     y2="650"
     style="stroke-width:2;stroke:black"
     id="line11676" />
  <line
     x1="50"
     y1="750"
     x2="850"
     y2="750"
     style="stroke-width:2;stroke:black"
     id="line11678" />
  <line
     x1="50"
     y1="850"
     x2="850"
     y2="850"
     style="stroke-width:2;stroke:black"
     id="line11680" />
  <line
     x1="50"
     y1="950"
     x2="850"
     y2="950"
     style="stroke-width:2;stroke:black"
     id="line11682" />
  <line
     x1="50"
     y1="50"
     x2="50"
     y2="950"
     style="stroke-width:2;stroke:black"
     id="line11684" />
  <line
     x1="150"
     y1="50"
     x2="150"
     y2="450"
     style="stroke-width:2;stroke:black"
     id="line11686" />
  <line
     x1="250"
     y1="50"
     x2="250"
     y2="450"
     style="stroke-width:2;stroke:black"
     id="line11688" />
  <line
     x1="350"
     y1="50"
     x2="350"
     y2="450"
     style="stroke-width:2;stroke:black"
     id="line11690" />
  <line
     x1="450"
     y1="50"
     x2="450"
     y2="450"
     style="stroke-width:2;stroke:black"
     id="line11692" />
  <line
     x1="550"
     y1="50"
     x2="550"
     y2="450"
     style="stroke-width:2;stroke:black"
     id="line11694" />
  <line
     x1="650"
     y1="50"
     x2="650"
     y2="450"
     style="stroke-width:2;stroke:black"
     id="line11696" />
  <line
     x1="750"
     y1="50"
     x2="750"
     y2="450"
     style="stroke-width:2;stroke:black"
     id="line11698" />
  <line
     x1="850"
     y1="50"
     x2="850"
     y2="950"
     style="stroke-width:2;stroke:black"
     id="line11700" />
  <line
     x1="150"
     y1="550"
     x2="150"
     y2="950"
     style="stroke-width:2;stroke:black"
     id="line11702" />
  <line
     x1="250"
     y1="550"
     x2="250"
     y2="950"
     style="stroke-width:2;stroke:black"
     id="line11704" />
  <line
     x1="350"
     y1="550"
     x2="350"
     y2="950"
     style="stroke-width:2;stroke:black"
     id="line11706" />
  <line
     x1="450"
     y1="550"
     x2="450"
     y2="950"
     style="stroke-width:2;stroke:black"
     id="line11708" />
  <line
     x1="550"
     y1="550"
     x2="550"
     y2="950"
     style="stroke-width:2;stroke:black"
     id="line11710" />
  <line
     x1="650"
     y1="550"
     x2="650"
     y2="950"
     style="stroke-width:2;stroke:black"
     id="line11712" />
  <line
     x1="750"
     y1="550"
     x2="750"
     y2="950"
     style="stroke-width:2;stroke:black"
     id="line11714" />
  <line
     x1="350"
     y1="50"
     x2="550"
     y2="250"
     style="stroke-width:2;stroke:black"
     id="line11716" />
  <line
     x1="350"
     y1="250"
     x2="550"
     y2="50"
     style="stroke-width:2;stroke:black"
     id="line11718" />
  <line
     x1="350"
     y1="750"
     x2="550"
     y2="950"
     style="stroke-width:2;stroke:black"
     id="line11720" />
  <line
     x1="350"
     y1="950"
     x2="550"
     y2="750"
     style="stroke-width:2;stroke:black"
     id="line11722" />
  <path
     style="fill:none;stroke:#000000;stroke-width:2;stroke-linecap:butt;stroke-linejoin:miter;stroke-miterlimit:4;stroke-dasharray:none;stroke-opacity:1"
     d="m 144.47415,223.06611 v 20.91182 h -20.91182 m 31.96036,-20.91182 v 20.91182 h 20.91182 m -32.17713,32.72647 0.16902,-20.91114 -20.91114,-0.16902 m 31.79029,21.16946 0.16903,-20.91114 20.91114,0.16903"
     id="path12275"
     inkscape:connector-curvature="0"
     inkscape:path-effect="#path-effect12285;#path-effect12287"
     inkscape:original-d="m 144.47415,223.06611 v 20.91182 h -20.91182"
     sodipodi:nodetypes="ccc" />
  <path
     sodipodi:nodetypes="ccc"
     inkscape:original-d="m 144.47415,223.06611 v 20.91182 h -20.91182"
     inkscape:path-effect="#path-effect12291;#path-effect12293"
     inkscape:connector-curvature="0"
     id="path12289"
     d="m 144.47415,223.06611 v 20.91182 h -20.91182 m 31.96036,-20.91182 v 20.91182 h 20.91182 m -31.89667,32.7041 -0.0497,-20.91176 -20.91176,0.0497 m 32.00995,20.83583 -0.0497,-20.91176 20.91176,-0.0497"
     style="fill:none;stroke:#000000;stroke-width:2;stroke-linecap:butt;stroke-linejoin:miter;stroke-miterlimit:4;stroke-dasharray:none;stroke-opacity:1"
     transform="translate(100.04217,99.996729)" />
  <path
     sodipodi:nodetypes="ccc"
     inkscape:original-d="m 144.47415,223.06611 v 20.91182 h -20.91182"
     inkscape:path-effect="#path-effect12291;#path-effect12293"
     inkscape:connector-curvature="0"
     id="path12289-0"
     d="m 144.47415,223.06611 v 20.91182 h -20.91182 m 31.96036,-20.91182 v 20.91182 h 20.91182 m -31.89667,32.7041 -0.0497,-20.91176 -20.91176,0.0497 m 32.00995,20.83583 -0.0497,-20.91176 20.91176,-0.0497"
     style="fill:none;stroke:#000000;stroke-width:2;stroke-linecap:butt;stroke-linejoin:miter;stroke-miterlimit:4;stroke-dasharray:none;stroke-opacity:1"
     transform="translate(300.02323,99.887359)" />
  <path
     sodipodi:nodetypes="ccc"
     inkscape:original-d="m 144.47415,223.06611 v 20.91182 h -20.91182"
     inkscape:path-effect="#path-effect12291;#path-effect12293"
     inkscape:connector-curvature="0"
     id="path12289-6"
     d="m 144.47415,223.06611 v 20.91182 h -20.91182 m 31.96036,-20.91182 v 20.91182 h 20.91182 m -31.89667,32.7041 -0.0497,-20.91176 -20.91176,0.0497 m 32.00995,20.83583 -0.0497,-20.91176 20.91176,-0.0497"
     style="fill:none;stroke:#000000;stroke-width:2;stroke-linecap:butt;stroke-linejoin:miter;stroke-miterlimit:4;stroke-dasharray:none;stroke-opacity:1"
     transform="translate(499.89758,100.15219)" />
  <path
     sodipodi:nodetypes="ccc"
     inkscape:original-d="m 144.47415,223.06611 v 20.91182 h -20.91182"
     inkscape:path-effect="#path-effect12291;#path-effect12293"
     inkscape:connector-curvature="0"
     id="path12289-67"
     d="m 144.47415,223.06611 v 20.91182 h -20.91182 m 31.96036,-20.91182 v 20.91182 h 20.91182 m -31.89667,32.7041 -0.0497,-20.91176 -20.91176,0.0497 m 32.00995,20.83583 -0.0497,-20.91176 20.91176,-0.0497"
     style="fill:none;stroke:#000000;stroke-width:2;stroke-linecap:butt;stroke-linejoin:miter;stroke-miterlimit:4;stroke-dasharray:none;stroke-opacity:1"
     transform="translate(600.1129,-0.01103638)" />
  <path
     sodipodi:nodetypes="ccc"
     inkscape:original-d="m 144.47415,223.06611 v 20.91182 h -20.91182"
     inkscape:path-effect="#path-effect12291;#path-effect12293"
     inkscape:connector-curvature="0"
     id="path12289-67-7"
     d="m 144.47415,223.06611 v 20.91182 h -20.91182 m 31.96036,-20.91182 v 20.91182 h 20.91182 m -31.89667,32.7041 -0.0497,-20.91176 -20.91176,0.0497 m 32.00995,20.83583 -0.0497,-20.91176 20.91176,-0.0497"
     style="fill:none;stroke:#000000;stroke-width:2;stroke-linecap:butt;stroke-linejoin:miter;stroke-miterlimit:4;stroke-dasharray:none;stroke-opacity:1"
     transform="translate(600.1576,500.18665)" />
  <path
     sodipodi:nodetypes="ccc"
     inkscape:original-d="m 144.47415,223.06611 v 20.91182 h -20.91182"
     inkscape:path-effect="#path-effect12291;#path-effect12293"
     inkscape:connector-curvature="0"
     id="path12289-67-9"
     d="m 144.47415,223.06611 v 20.91182 h -20.91182 m 31.96036,-20.91182 v 20.91182 h 20.91182 m -31.89667,32.7041 -0.0497,-20.91176 -20.91176,0.0497 m 32.00995,20.83583 -0.0497,-20.91176 20.91176,-0.0497"
     style="fill:none;stroke:#000000;stroke-width:2;stroke-linecap:butt;stroke-linejoin:miter;stroke-miterlimit:4;stroke-dasharray:none;stroke-opacity:1"
     transform="translate(500.16784,400.0353)" />
  <path
     sodipodi:nodetypes="ccc"
     inkscape:original-d="m 144.47415,223.06611 v 20.91182 h -20.91182"
     inkscape:path-effect="#path-effect12291;#path-effect12293"
     inkscape:connector-curvature="0"
     id="path12289-67-1"
     d="m 144.47415,223.06611 v 20.91182 h -20.91182 m 31.96036,-20.91182 v 20.91182 h 20.91182 m -31.89667,32.7041 -0.0497,-20.91176 -20.91176,0.0497 m 32.00995,20.83583 -0.0497,-20.91176 20.91176,-0.0497"
     style="fill:none;stroke:#000000;stroke-width:2;stroke-linecap:butt;stroke-linejoin:miter;stroke-miterlimit:4;stroke-dasharray:none;stroke-opacity:1"
     transform="translate(300.09377,400.07793)" />
  <path
     sodipodi:nodetypes="ccc"
     inkscape:original-d="m 144.47415,223.06611 v 20.91182 h -20.91182"
     inkscape:path-effect="#path-effect12291;#path-effect12293"
     inkscape:connector-curvature="0"
     id="path12289-67-6"
     d="m 144.47415,223.06611 v 20.91182 h -20.91182 m 31.96036,-20.91182 v 20.91182 h 20.91182 m -31.89667,32.7041 -0.0497,-20.91176 -20.91176,0.0497 m 32.00995,20.83583 -0.0497,-20.91176 20.91176,-0.0497"
     style="fill:none;stroke:#000000;stroke-width:2;stroke-linecap:butt;stroke-linejoin:miter;stroke-miterlimit:4;stroke-dasharray:none;stroke-opacity:1"
     transform="translate(99.985855,399.94637)" />
  <path
     sodipodi:nodetypes="ccc"
     inkscape:original-d="m 144.47415,223.06611 v 20.91182 h -20.91182"
     inkscape:path-effect="#path-effect12291;#path-effect12293"
     inkscape:connector-curvature="0"
     id="path12289-67-7-1"
     d="m 144.47415,223.06611 v 20.91182 h -20.91182 m 31.96036,-20.91182 v 20.91182 h 20.91182 m -31.89667,32.7041 -0.0497,-20.91176 -20.91176,0.0497 m 32.00995,20.83583 -0.0497,-20.91176 20.91176,-0.0497"
     style="fill:none;stroke:#000000;stroke-width:2;stroke-linecap:butt;stroke-linejoin:miter;stroke-miterlimit:4;stroke-dasharray:none;stroke-opacity:1"
     transform="translate(-0.08129414,500.28748)" />
  <path
     transform="translate(-100.29329,100.43567)"
     style="fill:none;stroke:#000000;stroke-width:2;stroke-linecap:butt;stroke-linejoin:miter;stroke-miterlimit:4;stroke-dasharray:none;stroke-opacity:1"
     d="m 155.52269,223.06611 v 20.91182 h 20.91182 m -20.84819,32.67787 -0.0497,-20.91176 20.91176,-0.0497"
     id="path12289-67-7-3"
     inkscape:connector-curvature="0"
     sodipodi:nodetypes="cccccc" />
  <path
     style="fill:none;stroke:#000000;stroke-width:2;stroke-linecap:butt;stroke-linejoin:miter;stroke-miterlimit:4;stroke-dasharray:none;stroke-opacity:1"
     d="m 55.43064,623.09575 v 20.91182 h 20.91182 m -20.84819,32.67787 -0.0497,-20.91176 20.91176,-0.0497"
     id="path12289-67-7-3-7"
     inkscape:connector-curvature="0"
     sodipodi:nodetypes="cccccc" />
  <path
     style="fill:none;stroke:#000000;stroke-width:2;stroke-linecap:butt;stroke-linejoin:miter;stroke-miterlimit:4;stroke-dasharray:none;stroke-opacity:1"
     d="m 844.70919,323.47028 v 20.91182 h -20.91182 m 20.84819,32.67787 0.0497,-20.91176 -20.91176,-0.0497"
     id="path12289-67-7-3-5"
     inkscape:connector-curvature="0"
     sodipodi:nodetypes="cccccc" />
  <path
     style="fill:none;stroke:#000000;stroke-width:2;stroke-linecap:butt;stroke-linejoin:miter;stroke-miterlimit:4;stroke-dasharray:none;stroke-opacity:1"
     d="m 844.9604,623.64932 v 20.91182 h -20.91182 m 20.84819,32.67787 0.0497,-20.91176 -20.91176,-0.0497"
     id="path12289-67-7-3-5-4"
     inkscape:connector-curvature="0"
     sodipodi:nodetypes="cccccc" />
</svg>
