<?xml version="1.0" encoding="UTF-8" standalone="no"?>
<svg version="1.1" xmlns="http://www.w3.org/2000/svg" xmlns:xlink="http://www.w3.org/1999/xlink" viewBox="0 0 900 1000">
    <rect width="900" height="1000" style="fill:#FDD775;stroke-width:2;stroke:black"/>

    <line x1="50" y1="50" x2="850" y2="50" style="stroke-width:2;stroke:black"/>
    <line x1="50" y1="150" x2="850" y2="150" style="stroke-width:2;stroke:black"/>
    <line x1="50" y1="250" x2="850" y2="250" style="stroke-width:2;stroke:black"/>
    <line x1="50" y1="350" x2="850" y2="350" style="stroke-width:2;stroke:black"/>
    <line x1="50" y1="450" x2="850" y2="450" style="stroke-width:2;stroke:black"/>
    <line x1="50" y1="550" x2="850" y2="550" style="stroke-width:2;stroke:black"/>
    <line x1="50" y1="650" x2="850" y2="650" style="stroke-width:2;stroke:black"/>
    <line x1="50" y1="750" x2="850" y2="750" style="stroke-width:2;stroke:black"/>
    <line x1="50" y1="850" x2="850" y2="850" style="stroke-width:2;stroke:black"/>
    <line x1="50" y1="950" x2="850" y2="950" style="stroke-width:2;stroke:black"/>

    <line x1="50" y1="50" x2="50" y2="950" style="stroke-width:2;stroke:black"/>
    <line x1="150" y1="50" x2="150" y2="450" style="stroke-width:2;stroke:black"/>
    <line x1="250" y1="50" x2="250" y2="450" style="stroke-width:2;stroke:black"/>
    <line x1="350" y1="50" x2="350" y2="450" style="stroke-width:2;stroke:black"/>
    <line x1="450" y1="50" x2="450" y2="450" style="stroke-width:2;stroke:black"/>
    <line x1="550" y1="50" x2="550" y2="450" style="stroke-width:2;stroke:black"/>
    <line x1="650" y1="50" x2="650" y2="450" style="stroke-width:2;stroke:black"/>
    <line x1="750" y1="50" x2="750" y2="450" style="stroke-width:2;stroke:black"/>
    <line x1="850" y1="50" x2="850" y2="950" style="stroke-width:2;stroke:black"/>

    <line x1="150" y1="550" x2="150" y2="950" style="stroke-width:2;stroke:black"/>
    <line x1="250" y1="550" x2="250" y2="950" style="stroke-width:2;stroke:black"/>
    <line x1="350" y1="550" x2="350" y2="950" style="stroke-width:2;stroke:black"/>
    <line x1="450" y1="550" x2="450" y2="950" style="stroke-width:2;stroke:black"/>
    <line x1="550" y1="550" x2="550" y2="950" style="stroke-width:2;stroke:black"/>
    <line x1="650" y1="550" x2="650" y2="950" style="stroke-width:2;stroke:black"/>
    <line x1="750" y1="550" x2="750" y2="950" style="stroke-width:2;stroke:black"/>

    <line x1="350" y1="50" x2="550" y2="250" style="stroke-width:2;stroke:black"/>
    <line x1="350" y1="250" x2="550" y2="50" style="stroke-width:2;stroke:black"/>

    <line x1="350" y1="750" x2="550" y2="950" style="stroke-width:2;stroke:black"/>
    <line x1="350" y1="950" x2="550" y2="750" style="stroke-width:2;stroke:black"/>

</svg>
