<?xml version="1.0" encoding="UTF-8"?>
<svg width="270mm" height="270mm" version="1.1" viewBox="0 0 270 270" xmlns="http://www.w3.org/2000/svg">
<path d="m-2.088e-6 0v270h270v-270z" fill="#ffcd82"/>
<rect x="15" y="15" width="240" height="30" fill="#d2d2d2" style="paint-order:fill markers stroke"/>
<rect x="75" y="75" width="120" height="120" fill="#d2d2d2" style="paint-order:fill markers stroke"/>
<rect x="15" y="225" width="240" height="30" fill="#d2d2d2" style="paint-order:fill markers stroke"/>
<g transform="translate(-27.391 280.66)">
<g transform="translate(-81.069 -160.67)">
<g transform="rotate(-45 339.44 192.48)">
<g transform="translate(-20.275 -33.956)">
<path d="m396.83-116.01h41.013v0.6h-41.013z" fill="#f8f8f8" style="paint-order:fill markers stroke"/>
<path d="m396.83-115.41h41.013v0.6h-41.013z" fill="#acacac" style="paint-order:fill markers stroke"/>
</g>
<g transform="rotate(90 424.18 -142.53)">
<path d="m396.83-116.01h41.013v0.6h-41.013z" fill="#f8f8f8" style="paint-order:fill markers stroke"/>
<path d="m396.83-115.41h41.013v0.6h-41.013z" fill="#acacac" style="paint-order:fill markers stroke"/>
</g>
</g>
</g>
<g transform="translate(-51.069 -160.67)">
<g transform="rotate(-45 339.44 192.48)">
<g transform="translate(-20.275 -33.956)">
<path d="m396.83-116.01h41.013v0.6h-41.013z" fill="#f8f8f8" style="paint-order:fill markers stroke"/>
<path d="m396.83-115.41h41.013v0.6h-41.013z" fill="#acacac" style="paint-order:fill markers stroke"/>
</g>
<g transform="rotate(90 424.18 -142.53)">
<path d="m396.83-116.01h41.013v0.6h-41.013z" fill="#f8f8f8" style="paint-order:fill markers stroke"/>
<path d="m396.83-115.41h41.013v0.6h-41.013z" fill="#acacac" style="paint-order:fill markers stroke"/>
</g>
</g>
</g>
<g transform="translate(-21.069 -160.67)">
<g transform="rotate(-45 339.44 192.48)">
<g transform="translate(-20.275 -33.956)">
<path d="m396.83-116.01h41.013v0.6h-41.013z" fill="#f8f8f8" style="paint-order:fill markers stroke"/>
<path d="m396.83-115.41h41.013v0.6h-41.013z" fill="#acacac" style="paint-order:fill markers stroke"/>
</g>
<g transform="rotate(90 424.18 -142.53)">
<path d="m396.83-116.01h41.013v0.6h-41.013z" fill="#f8f8f8" style="paint-order:fill markers stroke"/>
<path d="m396.83-115.41h41.013v0.6h-41.013z" fill="#acacac" style="paint-order:fill markers stroke"/>
</g>
</g>
</g>
<g transform="translate(8.9308 -160.67)">
<g transform="rotate(-45 339.44 192.48)">
<g transform="translate(-20.275 -33.956)">
<path d="m396.83-116.01h41.013v0.6h-41.013z" fill="#f8f8f8" style="paint-order:fill markers stroke"/>
<path d="m396.83-115.41h41.013v0.6h-41.013z" fill="#acacac" style="paint-order:fill markers stroke"/>
</g>
<g transform="rotate(90 424.18 -142.53)">
<path d="m396.83-116.01h41.013v0.6h-41.013z" fill="#f8f8f8" style="paint-order:fill markers stroke"/>
<path d="m396.83-115.41h41.013v0.6h-41.013z" fill="#acacac" style="paint-order:fill markers stroke"/>
</g>
</g>
</g>
<g transform="translate(38.931 -160.67)">
<g transform="rotate(-45 339.44 192.48)">
<g transform="translate(-20.275 -33.956)">
<path d="m396.83-116.01h41.013v0.6h-41.013z" fill="#f8f8f8" style="paint-order:fill markers stroke"/>
<path d="m396.83-115.41h41.013v0.6h-41.013z" fill="#acacac" style="paint-order:fill markers stroke"/>
</g>
<g transform="rotate(90 424.18 -142.53)">
<path d="m396.83-116.01h41.013v0.6h-41.013z" fill="#f8f8f8" style="paint-order:fill markers stroke"/>
<path d="m396.83-115.41h41.013v0.6h-41.013z" fill="#acacac" style="paint-order:fill markers stroke"/>
</g>
</g>
</g>
<g transform="translate(68.931 -160.67)">
<g transform="rotate(-45 339.44 192.48)">
<g transform="translate(-20.275 -33.956)">
<path d="m396.83-116.01h41.013v0.6h-41.013z" fill="#f8f8f8" style="paint-order:fill markers stroke"/>
<path d="m396.83-115.41h41.013v0.6h-41.013z" fill="#acacac" style="paint-order:fill markers stroke"/>
</g>
<g transform="rotate(90 424.18 -142.53)">
<path d="m396.83-116.01h41.013v0.6h-41.013z" fill="#f8f8f8" style="paint-order:fill markers stroke"/>
<path d="m396.83-115.41h41.013v0.6h-41.013z" fill="#acacac" style="paint-order:fill markers stroke"/>
</g>
</g>
</g>
<g transform="translate(98.931 -160.67)">
<g transform="rotate(-45 339.44 192.48)">
<g transform="translate(-20.275 -33.956)">
<path d="m396.83-116.01h41.013v0.6h-41.013z" fill="#f8f8f8" style="paint-order:fill markers stroke"/>
<path d="m396.83-115.41h41.013v0.6h-41.013z" fill="#acacac" style="paint-order:fill markers stroke"/>
</g>
<g transform="rotate(90 424.18 -142.53)">
<path d="m396.83-116.01h41.013v0.6h-41.013z" fill="#f8f8f8" style="paint-order:fill markers stroke"/>
<path d="m396.83-115.41h41.013v0.6h-41.013z" fill="#acacac" style="paint-order:fill markers stroke"/>
</g>
</g>
</g>
<g transform="translate(128.93 -160.67)">
<g transform="rotate(-45 339.44 192.48)">
<g transform="translate(-20.275 -33.956)">
<path d="m396.83-116.01h41.013v0.6h-41.013z" fill="#f8f8f8" style="paint-order:fill markers stroke"/>
<path d="m396.83-115.41h41.013v0.6h-41.013z" fill="#acacac" style="paint-order:fill markers stroke"/>
</g>
<g transform="rotate(90 424.18 -142.53)">
<path d="m396.83-116.01h41.013v0.6h-41.013z" fill="#f8f8f8" style="paint-order:fill markers stroke"/>
<path d="m396.83-115.41h41.013v0.6h-41.013z" fill="#acacac" style="paint-order:fill markers stroke"/>
</g>
</g>
</g>
<g transform="translate(-81.069 -130.67)">
<g transform="rotate(-45 339.44 192.48)">
<g transform="translate(-20.275 -33.956)">
<path d="m396.83-116.01h41.013v0.6h-41.013z" fill="#fff7ec" style="paint-order:fill markers stroke"/>
<path d="m396.83-115.41h41.013v0.6h-41.013z" fill="#fea217" style="paint-order:fill markers stroke"/>
</g>
<g transform="rotate(90 424.18 -142.53)">
<path d="m396.83-116.01h41.013v0.6h-41.013z" fill="#fff7ec" style="paint-order:fill markers stroke"/>
<path d="m396.83-115.41h41.013v0.6h-41.013z" fill="#fea217" style="paint-order:fill markers stroke"/>
</g>
</g>
</g>
<g transform="translate(-51.069 -130.67)">
<g transform="rotate(-45 339.44 192.48)">
<g transform="translate(-20.275 -33.956)">
<path d="m396.83-116.01h41.013v0.6h-41.013z" fill="#fff7ec" style="paint-order:fill markers stroke"/>
<path d="m396.83-115.41h41.013v0.6h-41.013z" fill="#fea217" style="paint-order:fill markers stroke"/>
</g>
<g transform="rotate(90 424.18 -142.53)">
<path d="m396.83-116.01h41.013v0.6h-41.013z" fill="#fff7ec" style="paint-order:fill markers stroke"/>
<path d="m396.83-115.41h41.013v0.6h-41.013z" fill="#fea217" style="paint-order:fill markers stroke"/>
</g>
</g>
</g>
<g transform="translate(-21.069 -130.67)">
<g transform="rotate(-45 339.44 192.48)">
<g transform="translate(-20.275 -33.956)">
<path d="m396.83-116.01h41.013v0.6h-41.013z" fill="#fff7ec" style="paint-order:fill markers stroke"/>
<path d="m396.83-115.41h41.013v0.6h-41.013z" fill="#fea217" style="paint-order:fill markers stroke"/>
</g>
<g transform="rotate(90 424.18 -142.53)">
<path d="m396.83-116.01h41.013v0.6h-41.013z" fill="#fff7ec" style="paint-order:fill markers stroke"/>
<path d="m396.83-115.41h41.013v0.6h-41.013z" fill="#fea217" style="paint-order:fill markers stroke"/>
</g>
</g>
</g>
<g transform="translate(8.9308 -130.67)">
<g transform="rotate(-45 339.44 192.48)">
<g transform="translate(-20.275 -33.956)">
<path d="m396.83-116.01h41.013v0.6h-41.013z" fill="#fff7ec" style="paint-order:fill markers stroke"/>
<path d="m396.83-115.41h41.013v0.6h-41.013z" fill="#fea217" style="paint-order:fill markers stroke"/>
</g>
<g transform="rotate(90 424.18 -142.53)">
<path d="m396.83-116.01h41.013v0.6h-41.013z" fill="#fff7ec" style="paint-order:fill markers stroke"/>
<path d="m396.83-115.41h41.013v0.6h-41.013z" fill="#fea217" style="paint-order:fill markers stroke"/>
</g>
</g>
</g>
<g transform="translate(38.931 -130.67)">
<g transform="rotate(-45 339.44 192.48)">
<g transform="translate(-20.275 -33.956)">
<path d="m396.83-116.01h41.013v0.6h-41.013z" fill="#fff7ec" style="paint-order:fill markers stroke"/>
<path d="m396.83-115.41h41.013v0.6h-41.013z" fill="#fea217" style="paint-order:fill markers stroke"/>
</g>
<g transform="rotate(90 424.18 -142.53)">
<path d="m396.83-116.01h41.013v0.6h-41.013z" fill="#fff7ec" style="paint-order:fill markers stroke"/>
<path d="m396.83-115.41h41.013v0.6h-41.013z" fill="#fea217" style="paint-order:fill markers stroke"/>
</g>
</g>
</g>
<g transform="translate(68.931 -130.67)">
<g transform="rotate(-45 339.44 192.48)">
<g transform="translate(-20.275 -33.956)">
<path d="m396.83-116.01h41.013v0.6h-41.013z" fill="#fff7ec" style="paint-order:fill markers stroke"/>
<path d="m396.83-115.41h41.013v0.6h-41.013z" fill="#fea217" style="paint-order:fill markers stroke"/>
</g>
<g transform="rotate(90 424.18 -142.53)">
<path d="m396.83-116.01h41.013v0.6h-41.013z" fill="#fff7ec" style="paint-order:fill markers stroke"/>
<path d="m396.83-115.41h41.013v0.6h-41.013z" fill="#fea217" style="paint-order:fill markers stroke"/>
</g>
</g>
</g>
<g transform="translate(98.931 -130.67)">
<g transform="rotate(-45 339.44 192.48)">
<g transform="translate(-20.275 -33.956)">
<path d="m396.83-116.01h41.013v0.6h-41.013z" fill="#fff7ec" style="paint-order:fill markers stroke"/>
<path d="m396.83-115.41h41.013v0.6h-41.013z" fill="#fea217" style="paint-order:fill markers stroke"/>
</g>
<g transform="rotate(90 424.18 -142.53)">
<path d="m396.83-116.01h41.013v0.6h-41.013z" fill="#fff7ec" style="paint-order:fill markers stroke"/>
<path d="m396.83-115.41h41.013v0.6h-41.013z" fill="#fea217" style="paint-order:fill markers stroke"/>
</g>
</g>
</g>
<g transform="translate(128.93 -130.67)">
<g transform="rotate(-45 339.44 192.48)">
<g transform="translate(-20.275 -33.956)">
<path d="m396.83-116.01h41.013v0.6h-41.013z" fill="#fff7ec" style="paint-order:fill markers stroke"/>
<path d="m396.83-115.41h41.013v0.6h-41.013z" fill="#fea217" style="paint-order:fill markers stroke"/>
</g>
<g transform="rotate(90 424.18 -142.53)">
<path d="m396.83-116.01h41.013v0.6h-41.013z" fill="#fff7ec" style="paint-order:fill markers stroke"/>
<path d="m396.83-115.41h41.013v0.6h-41.013z" fill="#fea217" style="paint-order:fill markers stroke"/>
</g>
</g>
</g>
<g transform="translate(-81.069 -100.67)">
<g transform="rotate(-45 339.44 192.48)">
<g transform="translate(-20.275 -33.956)">
<path d="m396.83-116.01h41.013v0.6h-41.013z" fill="#fff7ec" style="paint-order:fill markers stroke"/>
<path d="m396.83-115.41h41.013v0.6h-41.013z" fill="#fea217" style="paint-order:fill markers stroke"/>
</g>
<g transform="rotate(90 424.18 -142.53)">
<path d="m396.83-116.01h41.013v0.6h-41.013z" fill="#fff7ec" style="paint-order:fill markers stroke"/>
<path d="m396.83-115.41h41.013v0.6h-41.013z" fill="#fea217" style="paint-order:fill markers stroke"/>
</g>
</g>
</g>
<g transform="translate(-51.069 -100.67)">
<g transform="rotate(-45 339.44 192.48)">
<g transform="translate(-20.275 -33.956)">
<path d="m396.83-116.01h41.013v0.6h-41.013z" fill="#fff7ec" style="paint-order:fill markers stroke"/>
<path d="m396.83-115.41h41.013v0.6h-41.013z" fill="#fea217" style="paint-order:fill markers stroke"/>
</g>
<g transform="rotate(90 424.18 -142.53)">
<path d="m396.83-116.01h41.013v0.6h-41.013z" fill="#fff7ec" style="paint-order:fill markers stroke"/>
<path d="m396.83-115.41h41.013v0.6h-41.013z" fill="#fea217" style="paint-order:fill markers stroke"/>
</g>
</g>
</g>
<g transform="translate(98.931 -100.67)">
<g transform="rotate(-45 339.44 192.48)">
<g transform="translate(-20.275 -33.956)">
<path d="m396.83-116.01h41.013v0.6h-41.013z" fill="#fff7ec" style="paint-order:fill markers stroke"/>
<path d="m396.83-115.41h41.013v0.6h-41.013z" fill="#fea217" style="paint-order:fill markers stroke"/>
</g>
<g transform="rotate(90 424.18 -142.53)">
<path d="m396.83-116.01h41.013v0.6h-41.013z" fill="#fff7ec" style="paint-order:fill markers stroke"/>
<path d="m396.83-115.41h41.013v0.6h-41.013z" fill="#fea217" style="paint-order:fill markers stroke"/>
</g>
</g>
</g>
<g transform="translate(128.93 -100.67)">
<g transform="rotate(-45 339.44 192.48)">
<g transform="translate(-20.275 -33.956)">
<path d="m396.83-116.01h41.013v0.6h-41.013z" fill="#fff7ec" style="paint-order:fill markers stroke"/>
<path d="m396.83-115.41h41.013v0.6h-41.013z" fill="#fea217" style="paint-order:fill markers stroke"/>
</g>
<g transform="rotate(90 424.18 -142.53)">
<path d="m396.83-116.01h41.013v0.6h-41.013z" fill="#fff7ec" style="paint-order:fill markers stroke"/>
<path d="m396.83-115.41h41.013v0.6h-41.013z" fill="#fea217" style="paint-order:fill markers stroke"/>
</g>
</g>
</g>
<g transform="translate(-81.069 -70.671)">
<g transform="rotate(-45 339.44 192.48)">
<g transform="translate(-20.275 -33.956)">
<path d="m396.83-116.01h41.013v0.6h-41.013z" fill="#fff7ec" style="paint-order:fill markers stroke"/>
<path d="m396.83-115.41h41.013v0.6h-41.013z" fill="#fea217" style="paint-order:fill markers stroke"/>
</g>
<g transform="rotate(90 424.18 -142.53)">
<path d="m396.83-116.01h41.013v0.6h-41.013z" fill="#fff7ec" style="paint-order:fill markers stroke"/>
<path d="m396.83-115.41h41.013v0.6h-41.013z" fill="#fea217" style="paint-order:fill markers stroke"/>
</g>
</g>
</g>
<g transform="translate(-51.069 -70.671)">
<g transform="rotate(-45 339.44 192.48)">
<g transform="translate(-20.275 -33.956)">
<path d="m396.83-116.01h41.013v0.6h-41.013z" fill="#fff7ec" style="paint-order:fill markers stroke"/>
<path d="m396.83-115.41h41.013v0.6h-41.013z" fill="#fea217" style="paint-order:fill markers stroke"/>
</g>
<g transform="rotate(90 424.18 -142.53)">
<path d="m396.83-116.01h41.013v0.6h-41.013z" fill="#fff7ec" style="paint-order:fill markers stroke"/>
<path d="m396.83-115.41h41.013v0.6h-41.013z" fill="#fea217" style="paint-order:fill markers stroke"/>
</g>
</g>
</g>
<g transform="translate(98.931 -70.671)">
<g transform="rotate(-45 339.44 192.48)">
<g transform="translate(-20.275 -33.956)">
<path d="m396.83-116.01h41.013v0.6h-41.013z" fill="#fff7ec" style="paint-order:fill markers stroke"/>
<path d="m396.83-115.41h41.013v0.6h-41.013z" fill="#fea217" style="paint-order:fill markers stroke"/>
</g>
<g transform="rotate(90 424.18 -142.53)">
<path d="m396.83-116.01h41.013v0.6h-41.013z" fill="#fff7ec" style="paint-order:fill markers stroke"/>
<path d="m396.83-115.41h41.013v0.6h-41.013z" fill="#fea217" style="paint-order:fill markers stroke"/>
</g>
</g>
</g>
<g transform="translate(128.93 -70.671)">
<g transform="rotate(-45 339.44 192.48)">
<g transform="translate(-20.275 -33.956)">
<path d="m396.83-116.01h41.013v0.6h-41.013z" fill="#fff7ec" style="paint-order:fill markers stroke"/>
<path d="m396.83-115.41h41.013v0.6h-41.013z" fill="#fea217" style="paint-order:fill markers stroke"/>
</g>
<g transform="rotate(90 424.18 -142.53)">
<path d="m396.83-116.01h41.013v0.6h-41.013z" fill="#fff7ec" style="paint-order:fill markers stroke"/>
<path d="m396.83-115.41h41.013v0.6h-41.013z" fill="#fea217" style="paint-order:fill markers stroke"/>
</g>
</g>
</g>
<g transform="translate(-81.069 -40.671)">
<g transform="rotate(-45 339.44 192.48)">
<g transform="translate(-20.275 -33.956)">
<path d="m396.83-116.01h41.013v0.6h-41.013z" fill="#fff7ec" style="paint-order:fill markers stroke"/>
<path d="m396.83-115.41h41.013v0.6h-41.013z" fill="#fea217" style="paint-order:fill markers stroke"/>
</g>
<g transform="rotate(90 424.18 -142.53)">
<path d="m396.83-116.01h41.013v0.6h-41.013z" fill="#fff7ec" style="paint-order:fill markers stroke"/>
<path d="m396.83-115.41h41.013v0.6h-41.013z" fill="#fea217" style="paint-order:fill markers stroke"/>
</g>
</g>
</g>
<g transform="translate(-51.069 -40.671)">
<g transform="rotate(-45 339.44 192.48)">
<g transform="translate(-20.275 -33.956)">
<path d="m396.83-116.01h41.013v0.6h-41.013z" fill="#fff7ec" style="paint-order:fill markers stroke"/>
<path d="m396.83-115.41h41.013v0.6h-41.013z" fill="#fea217" style="paint-order:fill markers stroke"/>
</g>
<g transform="rotate(90 424.18 -142.53)">
<path d="m396.83-116.01h41.013v0.6h-41.013z" fill="#fff7ec" style="paint-order:fill markers stroke"/>
<path d="m396.83-115.41h41.013v0.6h-41.013z" fill="#fea217" style="paint-order:fill markers stroke"/>
</g>
</g>
</g>
<g transform="translate(98.931 -40.671)">
<g transform="rotate(-45 339.44 192.48)">
<g transform="translate(-20.275 -33.956)">
<path d="m396.83-116.01h41.013v0.6h-41.013z" fill="#fff7ec" style="paint-order:fill markers stroke"/>
<path d="m396.83-115.41h41.013v0.6h-41.013z" fill="#fea217" style="paint-order:fill markers stroke"/>
</g>
<g transform="rotate(90 424.18 -142.53)">
<path d="m396.83-116.01h41.013v0.6h-41.013z" fill="#fff7ec" style="paint-order:fill markers stroke"/>
<path d="m396.83-115.41h41.013v0.6h-41.013z" fill="#fea217" style="paint-order:fill markers stroke"/>
</g>
</g>
</g>
<g transform="translate(128.93 -40.671)">
<g transform="rotate(-45 339.44 192.48)">
<g transform="translate(-20.275 -33.956)">
<path d="m396.83-116.01h41.013v0.6h-41.013z" fill="#fff7ec" style="paint-order:fill markers stroke"/>
<path d="m396.83-115.41h41.013v0.6h-41.013z" fill="#fea217" style="paint-order:fill markers stroke"/>
</g>
<g transform="rotate(90 424.18 -142.53)">
<path d="m396.83-116.01h41.013v0.6h-41.013z" fill="#fff7ec" style="paint-order:fill markers stroke"/>
<path d="m396.83-115.41h41.013v0.6h-41.013z" fill="#fea217" style="paint-order:fill markers stroke"/>
</g>
</g>
</g>
<g transform="translate(-81.069 -10.671)">
<g transform="rotate(-45 339.44 192.48)">
<g transform="translate(-20.275 -33.956)">
<path d="m396.83-116.01h41.013v0.6h-41.013z" fill="#fff7ec" style="paint-order:fill markers stroke"/>
<path d="m396.83-115.41h41.013v0.6h-41.013z" fill="#fea217" style="paint-order:fill markers stroke"/>
</g>
<g transform="rotate(90 424.18 -142.53)">
<path d="m396.83-116.01h41.013v0.6h-41.013z" fill="#fff7ec" style="paint-order:fill markers stroke"/>
<path d="m396.83-115.41h41.013v0.6h-41.013z" fill="#fea217" style="paint-order:fill markers stroke"/>
</g>
</g>
</g>
<g transform="translate(-51.069 -10.671)">
<g transform="rotate(-45 339.44 192.48)">
<g transform="translate(-20.275 -33.956)">
<path d="m396.83-116.01h41.013v0.6h-41.013z" fill="#fff7ec" style="paint-order:fill markers stroke"/>
<path d="m396.83-115.41h41.013v0.6h-41.013z" fill="#fea217" style="paint-order:fill markers stroke"/>
</g>
<g transform="rotate(90 424.18 -142.53)">
<path d="m396.83-116.01h41.013v0.6h-41.013z" fill="#fff7ec" style="paint-order:fill markers stroke"/>
<path d="m396.83-115.41h41.013v0.6h-41.013z" fill="#fea217" style="paint-order:fill markers stroke"/>
</g>
</g>
</g>
<g transform="translate(98.931 -10.671)">
<g transform="rotate(-45 339.44 192.48)">
<g transform="translate(-20.275 -33.956)">
<path d="m396.83-116.01h41.013v0.6h-41.013z" fill="#fff7ec" style="paint-order:fill markers stroke"/>
<path d="m396.83-115.41h41.013v0.6h-41.013z" fill="#fea217" style="paint-order:fill markers stroke"/>
</g>
<g transform="rotate(90 424.18 -142.53)">
<path d="m396.83-116.01h41.013v0.6h-41.013z" fill="#fff7ec" style="paint-order:fill markers stroke"/>
<path d="m396.83-115.41h41.013v0.6h-41.013z" fill="#fea217" style="paint-order:fill markers stroke"/>
</g>
</g>
</g>
<g transform="translate(128.93 -10.671)">
<g transform="rotate(-45 339.44 192.48)">
<g transform="translate(-20.275 -33.956)">
<path d="m396.83-116.01h41.013v0.6h-41.013z" fill="#fff7ec" style="paint-order:fill markers stroke"/>
<path d="m396.83-115.41h41.013v0.6h-41.013z" fill="#fea217" style="paint-order:fill markers stroke"/>
</g>
<g transform="rotate(90 424.18 -142.53)">
<path d="m396.83-116.01h41.013v0.6h-41.013z" fill="#fff7ec" style="paint-order:fill markers stroke"/>
<path d="m396.83-115.41h41.013v0.6h-41.013z" fill="#fea217" style="paint-order:fill markers stroke"/>
</g>
</g>
</g>
<g transform="translate(-21.069 -100.67)">
<g transform="rotate(-45 339.44 192.48)">
<g transform="translate(-20.275 -33.956)">
<path d="m396.83-116.01h41.013v0.6h-41.013z" fill="#f8f8f8" style="paint-order:fill markers stroke"/>
<path d="m396.83-115.41h41.013v0.6h-41.013z" fill="#acacac" style="paint-order:fill markers stroke"/>
</g>
<g transform="rotate(90 424.18 -142.53)">
<path d="m396.83-116.01h41.013v0.6h-41.013z" fill="#f8f8f8" style="paint-order:fill markers stroke"/>
<path d="m396.83-115.41h41.013v0.6h-41.013z" fill="#acacac" style="paint-order:fill markers stroke"/>
</g>
</g>
</g>
<g transform="translate(8.9308 -100.67)">
<g transform="rotate(-45 339.44 192.48)">
<g transform="translate(-20.275 -33.956)">
<path d="m396.83-116.01h41.013v0.6h-41.013z" fill="#f8f8f8" style="paint-order:fill markers stroke"/>
<path d="m396.83-115.41h41.013v0.6h-41.013z" fill="#acacac" style="paint-order:fill markers stroke"/>
</g>
<g transform="rotate(90 424.18 -142.53)">
<path d="m396.83-116.01h41.013v0.6h-41.013z" fill="#f8f8f8" style="paint-order:fill markers stroke"/>
<path d="m396.83-115.41h41.013v0.6h-41.013z" fill="#acacac" style="paint-order:fill markers stroke"/>
</g>
</g>
</g>
<g transform="translate(38.931 -100.67)">
<g transform="rotate(-45 339.44 192.48)">
<g transform="translate(-20.275 -33.956)">
<path d="m396.83-116.01h41.013v0.6h-41.013z" fill="#f8f8f8" style="paint-order:fill markers stroke"/>
<path d="m396.83-115.41h41.013v0.6h-41.013z" fill="#acacac" style="paint-order:fill markers stroke"/>
</g>
<g transform="rotate(90 424.18 -142.53)">
<path d="m396.83-116.01h41.013v0.6h-41.013z" fill="#f8f8f8" style="paint-order:fill markers stroke"/>
<path d="m396.83-115.41h41.013v0.6h-41.013z" fill="#acacac" style="paint-order:fill markers stroke"/>
</g>
</g>
</g>
<g transform="translate(68.931 -100.67)">
<g transform="rotate(-45 339.44 192.48)">
<g transform="translate(-20.275 -33.956)">
<path d="m396.83-116.01h41.013v0.6h-41.013z" fill="#f8f8f8" style="paint-order:fill markers stroke"/>
<path d="m396.83-115.41h41.013v0.6h-41.013z" fill="#acacac" style="paint-order:fill markers stroke"/>
</g>
<g transform="rotate(90 424.18 -142.53)">
<path d="m396.83-116.01h41.013v0.6h-41.013z" fill="#f8f8f8" style="paint-order:fill markers stroke"/>
<path d="m396.83-115.41h41.013v0.6h-41.013z" fill="#acacac" style="paint-order:fill markers stroke"/>
</g>
</g>
</g>
<g transform="translate(-21.069 -70.671)">
<g transform="rotate(-45 339.44 192.48)">
<g transform="translate(-20.275 -33.956)">
<path d="m396.83-116.01h41.013v0.6h-41.013z" fill="#f8f8f8" style="paint-order:fill markers stroke"/>
<path d="m396.83-115.41h41.013v0.6h-41.013z" fill="#acacac" style="paint-order:fill markers stroke"/>
</g>
<g transform="rotate(90 424.18 -142.53)">
<path d="m396.83-116.01h41.013v0.6h-41.013z" fill="#f8f8f8" style="paint-order:fill markers stroke"/>
<path d="m396.83-115.41h41.013v0.6h-41.013z" fill="#acacac" style="paint-order:fill markers stroke"/>
</g>
</g>
</g>
<g transform="translate(8.9308 -70.671)">
<g transform="rotate(-45 339.44 192.48)">
<g transform="translate(-20.275 -33.956)">
<path d="m396.83-116.01h41.013v0.6h-41.013z" fill="#f8f8f8" style="paint-order:fill markers stroke"/>
<path d="m396.83-115.41h41.013v0.6h-41.013z" fill="#acacac" style="paint-order:fill markers stroke"/>
</g>
<g transform="rotate(90 424.18 -142.53)">
<path d="m396.83-116.01h41.013v0.6h-41.013z" fill="#f8f8f8" style="paint-order:fill markers stroke"/>
<path d="m396.83-115.41h41.013v0.6h-41.013z" fill="#acacac" style="paint-order:fill markers stroke"/>
</g>
</g>
</g>
<g transform="translate(38.931 -70.671)">
<g transform="rotate(-45 339.44 192.48)">
<g transform="translate(-20.275 -33.956)">
<path d="m396.83-116.01h41.013v0.6h-41.013z" fill="#f8f8f8" style="paint-order:fill markers stroke"/>
<path d="m396.83-115.41h41.013v0.6h-41.013z" fill="#acacac" style="paint-order:fill markers stroke"/>
</g>
<g transform="rotate(90 424.18 -142.53)">
<path d="m396.83-116.01h41.013v0.6h-41.013z" fill="#f8f8f8" style="paint-order:fill markers stroke"/>
<path d="m396.83-115.41h41.013v0.6h-41.013z" fill="#acacac" style="paint-order:fill markers stroke"/>
</g>
</g>
</g>
<g transform="translate(68.931 -70.671)">
<g transform="rotate(-45 339.44 192.48)">
<g transform="translate(-20.275 -33.956)">
<path d="m396.83-116.01h41.013v0.6h-41.013z" fill="#f8f8f8" style="paint-order:fill markers stroke"/>
<path d="m396.83-115.41h41.013v0.6h-41.013z" fill="#acacac" style="paint-order:fill markers stroke"/>
</g>
<g transform="rotate(90 424.18 -142.53)">
<path d="m396.83-116.01h41.013v0.6h-41.013z" fill="#f8f8f8" style="paint-order:fill markers stroke"/>
<path d="m396.83-115.41h41.013v0.6h-41.013z" fill="#acacac" style="paint-order:fill markers stroke"/>
</g>
</g>
</g>
<g transform="translate(-21.069 -40.671)">
<g transform="rotate(-45 339.44 192.48)">
<g transform="translate(-20.275 -33.956)">
<path d="m396.83-116.01h41.013v0.6h-41.013z" fill="#f8f8f8" style="paint-order:fill markers stroke"/>
<path d="m396.83-115.41h41.013v0.6h-41.013z" fill="#acacac" style="paint-order:fill markers stroke"/>
</g>
<g transform="rotate(90 424.18 -142.53)">
<path d="m396.83-116.01h41.013v0.6h-41.013z" fill="#f8f8f8" style="paint-order:fill markers stroke"/>
<path d="m396.83-115.41h41.013v0.6h-41.013z" fill="#acacac" style="paint-order:fill markers stroke"/>
</g>
</g>
</g>
<g transform="translate(8.9308 -40.671)">
<g transform="rotate(-45 339.44 192.48)">
<g transform="translate(-20.275 -33.956)">
<path d="m396.83-116.01h41.013v0.6h-41.013z" fill="#f8f8f8" style="paint-order:fill markers stroke"/>
<path d="m396.83-115.41h41.013v0.6h-41.013z" fill="#acacac" style="paint-order:fill markers stroke"/>
</g>
<g transform="rotate(90 424.18 -142.53)">
<path d="m396.83-116.01h41.013v0.6h-41.013z" fill="#f8f8f8" style="paint-order:fill markers stroke"/>
<path d="m396.83-115.41h41.013v0.6h-41.013z" fill="#acacac" style="paint-order:fill markers stroke"/>
</g>
</g>
</g>
<g transform="translate(38.931 -40.671)">
<g transform="rotate(-45 339.44 192.48)">
<g transform="translate(-20.275 -33.956)">
<path d="m396.83-116.01h41.013v0.6h-41.013z" fill="#f8f8f8" style="paint-order:fill markers stroke"/>
<path d="m396.83-115.41h41.013v0.6h-41.013z" fill="#acacac" style="paint-order:fill markers stroke"/>
</g>
<g transform="rotate(90 424.18 -142.53)">
<path d="m396.83-116.01h41.013v0.6h-41.013z" fill="#f8f8f8" style="paint-order:fill markers stroke"/>
<path d="m396.83-115.41h41.013v0.6h-41.013z" fill="#acacac" style="paint-order:fill markers stroke"/>
</g>
</g>
</g>
<g transform="translate(68.931 -40.671)">
<g transform="rotate(-45 339.44 192.48)">
<g transform="translate(-20.275 -33.956)">
<path d="m396.83-116.01h41.013v0.6h-41.013z" fill="#f8f8f8" style="paint-order:fill markers stroke"/>
<path d="m396.83-115.41h41.013v0.6h-41.013z" fill="#acacac" style="paint-order:fill markers stroke"/>
</g>
<g transform="rotate(90 424.18 -142.53)">
<path d="m396.83-116.01h41.013v0.6h-41.013z" fill="#f8f8f8" style="paint-order:fill markers stroke"/>
<path d="m396.83-115.41h41.013v0.6h-41.013z" fill="#acacac" style="paint-order:fill markers stroke"/>
</g>
</g>
</g>
<g transform="translate(-21.069 -10.671)">
<g transform="rotate(-45 339.44 192.48)">
<g transform="translate(-20.275 -33.956)">
<path d="m396.83-116.01h41.013v0.6h-41.013z" fill="#f8f8f8" style="paint-order:fill markers stroke"/>
<path d="m396.83-115.41h41.013v0.6h-41.013z" fill="#acacac" style="paint-order:fill markers stroke"/>
</g>
<g transform="rotate(90 424.18 -142.53)">
<path d="m396.83-116.01h41.013v0.6h-41.013z" fill="#f8f8f8" style="paint-order:fill markers stroke"/>
<path d="m396.83-115.41h41.013v0.6h-41.013z" fill="#acacac" style="paint-order:fill markers stroke"/>
</g>
</g>
</g>
<g transform="translate(8.9308 -10.671)">
<g transform="rotate(-45 339.44 192.48)">
<g transform="translate(-20.275 -33.956)">
<path d="m396.83-116.01h41.013v0.6h-41.013z" fill="#f8f8f8" style="paint-order:fill markers stroke"/>
<path d="m396.83-115.41h41.013v0.6h-41.013z" fill="#acacac" style="paint-order:fill markers stroke"/>
</g>
<g transform="rotate(90 424.18 -142.53)">
<path d="m396.83-116.01h41.013v0.6h-41.013z" fill="#f8f8f8" style="paint-order:fill markers stroke"/>
<path d="m396.83-115.41h41.013v0.6h-41.013z" fill="#acacac" style="paint-order:fill markers stroke"/>
</g>
</g>
</g>
<g transform="translate(38.931 -10.671)">
<g transform="rotate(-45 339.44 192.48)">
<g transform="translate(-20.275 -33.956)">
<path d="m396.83-116.01h41.013v0.6h-41.013z" fill="#f8f8f8" style="paint-order:fill markers stroke"/>
<path d="m396.83-115.41h41.013v0.6h-41.013z" fill="#acacac" style="paint-order:fill markers stroke"/>
</g>
<g transform="rotate(90 424.18 -142.53)">
<path d="m396.83-116.01h41.013v0.6h-41.013z" fill="#f8f8f8" style="paint-order:fill markers stroke"/>
<path d="m396.83-115.41h41.013v0.6h-41.013z" fill="#acacac" style="paint-order:fill markers stroke"/>
</g>
</g>
</g>
<g transform="translate(68.931 -10.671)">
<g transform="rotate(-45 339.44 192.48)">
<g transform="translate(-20.275 -33.956)">
<path d="m396.83-116.01h41.013v0.6h-41.013z" fill="#f8f8f8" style="paint-order:fill markers stroke"/>
<path d="m396.83-115.41h41.013v0.6h-41.013z" fill="#acacac" style="paint-order:fill markers stroke"/>
</g>
<g transform="rotate(90 424.18 -142.53)">
<path d="m396.83-116.01h41.013v0.6h-41.013z" fill="#f8f8f8" style="paint-order:fill markers stroke"/>
<path d="m396.83-115.41h41.013v0.6h-41.013z" fill="#acacac" style="paint-order:fill markers stroke"/>
</g>
</g>
</g>
<g transform="translate(-81.069 19.329)">
<g transform="rotate(-45 339.44 192.48)">
<g transform="translate(-20.275 -33.956)">
<path d="m396.83-116.01h41.013v0.6h-41.013z" fill="#fff7ec" style="paint-order:fill markers stroke"/>
<path d="m396.83-115.41h41.013v0.6h-41.013z" fill="#fea217" style="paint-order:fill markers stroke"/>
</g>
<g transform="rotate(90 424.18 -142.53)">
<path d="m396.83-116.01h41.013v0.6h-41.013z" fill="#fff7ec" style="paint-order:fill markers stroke"/>
<path d="m396.83-115.41h41.013v0.6h-41.013z" fill="#fea217" style="paint-order:fill markers stroke"/>
</g>
</g>
</g>
<g transform="translate(-51.069 19.329)">
<g transform="rotate(-45 339.44 192.48)">
<g transform="translate(-20.275 -33.956)">
<path d="m396.83-116.01h41.013v0.6h-41.013z" fill="#fff7ec" style="paint-order:fill markers stroke"/>
<path d="m396.83-115.41h41.013v0.6h-41.013z" fill="#fea217" style="paint-order:fill markers stroke"/>
</g>
<g transform="rotate(90 424.18 -142.53)">
<path d="m396.83-116.01h41.013v0.6h-41.013z" fill="#fff7ec" style="paint-order:fill markers stroke"/>
<path d="m396.83-115.41h41.013v0.6h-41.013z" fill="#fea217" style="paint-order:fill markers stroke"/>
</g>
</g>
</g>
<g transform="translate(-21.069 19.329)">
<g transform="rotate(-45 339.44 192.48)">
<g transform="translate(-20.275 -33.956)">
<path d="m396.83-116.01h41.013v0.6h-41.013z" fill="#fff7ec" style="paint-order:fill markers stroke"/>
<path d="m396.83-115.41h41.013v0.6h-41.013z" fill="#fea217" style="paint-order:fill markers stroke"/>
</g>
<g transform="rotate(90 424.18 -142.53)">
<path d="m396.83-116.01h41.013v0.6h-41.013z" fill="#fff7ec" style="paint-order:fill markers stroke"/>
<path d="m396.83-115.41h41.013v0.6h-41.013z" fill="#fea217" style="paint-order:fill markers stroke"/>
</g>
</g>
</g>
<g transform="translate(8.9308 19.329)">
<g transform="rotate(-45 339.44 192.48)">
<g transform="translate(-20.275 -33.956)">
<path d="m396.83-116.01h41.013v0.6h-41.013z" fill="#fff7ec" style="paint-order:fill markers stroke"/>
<path d="m396.83-115.41h41.013v0.6h-41.013z" fill="#fea217" style="paint-order:fill markers stroke"/>
</g>
<g transform="rotate(90 424.18 -142.53)">
<path d="m396.83-116.01h41.013v0.6h-41.013z" fill="#fff7ec" style="paint-order:fill markers stroke"/>
<path d="m396.83-115.41h41.013v0.6h-41.013z" fill="#fea217" style="paint-order:fill markers stroke"/>
</g>
</g>
</g>
<g transform="translate(38.931 19.329)">
<g transform="rotate(-45 339.44 192.48)">
<g transform="translate(-20.275 -33.956)">
<path d="m396.83-116.01h41.013v0.6h-41.013z" fill="#fff7ec" style="paint-order:fill markers stroke"/>
<path d="m396.83-115.41h41.013v0.6h-41.013z" fill="#fea217" style="paint-order:fill markers stroke"/>
</g>
<g transform="rotate(90 424.18 -142.53)">
<path d="m396.83-116.01h41.013v0.6h-41.013z" fill="#fff7ec" style="paint-order:fill markers stroke"/>
<path d="m396.83-115.41h41.013v0.6h-41.013z" fill="#fea217" style="paint-order:fill markers stroke"/>
</g>
</g>
</g>
<g transform="translate(68.931 19.329)">
<g transform="rotate(-45 339.44 192.48)">
<g transform="translate(-20.275 -33.956)">
<path d="m396.83-116.01h41.013v0.6h-41.013z" fill="#fff7ec" style="paint-order:fill markers stroke"/>
<path d="m396.83-115.41h41.013v0.6h-41.013z" fill="#fea217" style="paint-order:fill markers stroke"/>
</g>
<g transform="rotate(90 424.18 -142.53)">
<path d="m396.83-116.01h41.013v0.6h-41.013z" fill="#fff7ec" style="paint-order:fill markers stroke"/>
<path d="m396.83-115.41h41.013v0.6h-41.013z" fill="#fea217" style="paint-order:fill markers stroke"/>
</g>
</g>
</g>
<g transform="translate(98.931 19.329)">
<g transform="rotate(-45 339.44 192.48)">
<g transform="translate(-20.275 -33.956)">
<path d="m396.83-116.01h41.013v0.6h-41.013z" fill="#fff7ec" style="paint-order:fill markers stroke"/>
<path d="m396.83-115.41h41.013v0.6h-41.013z" fill="#fea217" style="paint-order:fill markers stroke"/>
</g>
<g transform="rotate(90 424.18 -142.53)">
<path d="m396.83-116.01h41.013v0.6h-41.013z" fill="#fff7ec" style="paint-order:fill markers stroke"/>
<path d="m396.83-115.41h41.013v0.6h-41.013z" fill="#fea217" style="paint-order:fill markers stroke"/>
</g>
</g>
</g>
<g transform="translate(128.93 19.329)">
<g transform="rotate(-45 339.44 192.48)">
<g transform="translate(-20.275 -33.956)">
<path d="m396.83-116.01h41.013v0.6h-41.013z" fill="#fff7ec" style="paint-order:fill markers stroke"/>
<path d="m396.83-115.41h41.013v0.6h-41.013z" fill="#fea217" style="paint-order:fill markers stroke"/>
</g>
<g transform="rotate(90 424.18 -142.53)">
<path d="m396.83-116.01h41.013v0.6h-41.013z" fill="#fff7ec" style="paint-order:fill markers stroke"/>
<path d="m396.83-115.41h41.013v0.6h-41.013z" fill="#fea217" style="paint-order:fill markers stroke"/>
</g>
</g>
</g>
<g transform="translate(-81.069 49.329)">
<g transform="rotate(-45 339.44 192.48)">
<g transform="translate(-20.275 -33.956)">
<path d="m396.83-116.01h41.013v0.6h-41.013z" fill="#f8f8f8" style="paint-order:fill markers stroke"/>
<path d="m396.83-115.41h41.013v0.6h-41.013z" fill="#acacac" style="paint-order:fill markers stroke"/>
</g>
<g transform="rotate(90 424.18 -142.53)">
<path d="m396.83-116.01h41.013v0.6h-41.013z" fill="#f8f8f8" style="paint-order:fill markers stroke"/>
<path d="m396.83-115.41h41.013v0.6h-41.013z" fill="#acacac" style="paint-order:fill markers stroke"/>
</g>
</g>
</g>
<g transform="translate(-51.069 49.329)">
<g transform="rotate(-45 339.44 192.48)">
<g transform="translate(-20.275 -33.956)">
<path d="m396.83-116.01h41.013v0.6h-41.013z" fill="#f8f8f8" style="paint-order:fill markers stroke"/>
<path d="m396.83-115.41h41.013v0.6h-41.013z" fill="#acacac" style="paint-order:fill markers stroke"/>
</g>
<g transform="rotate(90 424.18 -142.53)">
<path d="m396.83-116.01h41.013v0.6h-41.013z" fill="#f8f8f8" style="paint-order:fill markers stroke"/>
<path d="m396.83-115.41h41.013v0.6h-41.013z" fill="#acacac" style="paint-order:fill markers stroke"/>
</g>
</g>
</g>
<g transform="translate(-21.069 49.329)">
<g transform="rotate(-45 339.44 192.48)">
<g transform="translate(-20.275 -33.956)">
<path d="m396.83-116.01h41.013v0.6h-41.013z" fill="#f8f8f8" style="paint-order:fill markers stroke"/>
<path d="m396.83-115.41h41.013v0.6h-41.013z" fill="#acacac" style="paint-order:fill markers stroke"/>
</g>
<g transform="rotate(90 424.18 -142.53)">
<path d="m396.83-116.01h41.013v0.6h-41.013z" fill="#f8f8f8" style="paint-order:fill markers stroke"/>
<path d="m396.83-115.41h41.013v0.6h-41.013z" fill="#acacac" style="paint-order:fill markers stroke"/>
</g>
</g>
</g>
<g transform="translate(8.9308 49.329)">
<g transform="rotate(-45 339.44 192.48)">
<g transform="translate(-20.275 -33.956)">
<path d="m396.83-116.01h41.013v0.6h-41.013z" fill="#f8f8f8" style="paint-order:fill markers stroke"/>
<path d="m396.83-115.41h41.013v0.6h-41.013z" fill="#acacac" style="paint-order:fill markers stroke"/>
</g>
<g transform="rotate(90 424.18 -142.53)">
<path d="m396.83-116.01h41.013v0.6h-41.013z" fill="#f8f8f8" style="paint-order:fill markers stroke"/>
<path d="m396.83-115.41h41.013v0.6h-41.013z" fill="#acacac" style="paint-order:fill markers stroke"/>
</g>
</g>
</g>
<g transform="translate(38.931 49.329)">
<g transform="rotate(-45 339.44 192.48)">
<g transform="translate(-20.275 -33.956)">
<path d="m396.83-116.01h41.013v0.6h-41.013z" fill="#f8f8f8" style="paint-order:fill markers stroke"/>
<path d="m396.83-115.41h41.013v0.6h-41.013z" fill="#acacac" style="paint-order:fill markers stroke"/>
</g>
<g transform="rotate(90 424.18 -142.53)">
<path d="m396.83-116.01h41.013v0.6h-41.013z" fill="#f8f8f8" style="paint-order:fill markers stroke"/>
<path d="m396.83-115.41h41.013v0.6h-41.013z" fill="#acacac" style="paint-order:fill markers stroke"/>
</g>
</g>
</g>
<g transform="translate(68.931 49.329)">
<g transform="rotate(-45 339.44 192.48)">
<g transform="translate(-20.275 -33.956)">
<path d="m396.83-116.01h41.013v0.6h-41.013z" fill="#f8f8f8" style="paint-order:fill markers stroke"/>
<path d="m396.83-115.41h41.013v0.6h-41.013z" fill="#acacac" style="paint-order:fill markers stroke"/>
</g>
<g transform="rotate(90 424.18 -142.53)">
<path d="m396.83-116.01h41.013v0.6h-41.013z" fill="#f8f8f8" style="paint-order:fill markers stroke"/>
<path d="m396.83-115.41h41.013v0.6h-41.013z" fill="#acacac" style="paint-order:fill markers stroke"/>
</g>
</g>
</g>
<g transform="translate(98.931 49.329)">
<g transform="rotate(-45 339.44 192.48)">
<g transform="translate(-20.275 -33.956)">
<path d="m396.83-116.01h41.013v0.6h-41.013z" fill="#f8f8f8" style="paint-order:fill markers stroke"/>
<path d="m396.83-115.41h41.013v0.6h-41.013z" fill="#acacac" style="paint-order:fill markers stroke"/>
</g>
<g transform="rotate(90 424.18 -142.53)">
<path d="m396.83-116.01h41.013v0.6h-41.013z" fill="#f8f8f8" style="paint-order:fill markers stroke"/>
<path d="m396.83-115.41h41.013v0.6h-41.013z" fill="#acacac" style="paint-order:fill markers stroke"/>
</g>
</g>
</g>
<g transform="translate(128.93 49.329)">
<g transform="rotate(-45 339.44 192.48)">
<g transform="translate(-20.275 -33.956)">
<path d="m396.83-116.01h41.013v0.6h-41.013z" fill="#f8f8f8" style="paint-order:fill markers stroke"/>
<path d="m396.83-115.41h41.013v0.6h-41.013z" fill="#acacac" style="paint-order:fill markers stroke"/>
</g>
<g transform="rotate(90 424.18 -142.53)">
<path d="m396.83-116.01h41.013v0.6h-41.013z" fill="#f8f8f8" style="paint-order:fill markers stroke"/>
<path d="m396.83-115.41h41.013v0.6h-41.013z" fill="#acacac" style="paint-order:fill markers stroke"/>
</g>
</g>
</g>
</g>
<path d="m187.5 252.5 5-1e-5v-5" fill="none" stroke="#000" stroke-miterlimit="10"/>
<path d="m137.5 247.5 1e-5 5h5" fill="none" stroke="#000" stroke-miterlimit="10"/>
<path d="m82.5 17.5h-5v5" fill="none" stroke="#000" stroke-miterlimit="10"/>
<path d="m132.5 22.5v-5h-5" fill="none" stroke="#000" stroke-miterlimit="10"/>
<path d="m255 255h-240v-240h240z" fill="none" stroke="#000" stroke-miterlimit="10"/>
<path d="m45 14.5v241" fill="none" stroke="#000"/>
<path d="m75 14.5v241" fill="none" stroke="#000"/>
<path d="m105 14.5v241" fill="none" stroke="#000"/>
<path d="m135 14.5v241" fill="none" stroke="#000"/>
<path d="m165 14.5v241" fill="none" stroke="#000"/>
<path d="m195 14.5v241" fill="none" stroke="#000"/>
<path d="m225 14.5v241" fill="none" stroke="#000"/>
<path d="m14.5 45h241" fill="none" stroke="#000"/>
<path d="m14.5 75h241" fill="none" stroke="#000"/>
<path d="m14.5 105h241" fill="none" stroke="#000"/>
<path d="m14.5 135h241" fill="none" stroke="#000"/>
<path d="m14.5 165h241" fill="none" stroke="#000"/>
<path d="m14.5 195h241" fill="none" stroke="#000"/>
<path d="m14.5 225h241" fill="none" stroke="#000"/>
</svg>
