<svg viewBox="0 0 900 1000" xmlns="http://www.w3.org/2000/svg" xmlns:xlink="http://www.w3.org/1999/xlink"><filter id="a" color-interpolation-filters="sRGB" height="1.00336" width="1.003733" x="-.001867" y="-.00168"><feTurbulence baseFrequency=".3" numOctaves="10" result="result1" type="turbulence"/><feColorMatrix in="SourceGraphic" result="result0" type="luminanceToAlpha"/><feColorMatrix result="result2" values="1 0 0 0 0 0 1 0 0 0 0 0 1 0 0 0 0 0 0.4 0"/><feComposite in="result2" in2="result1" operator="over"/><feColorMatrix result="result91" values="1 0 0 0 0 0 1 0 0 0 0 0 1 0 0 0 0 0 10 -4"/><feComposite in="SourceGraphic" in2="result91" operator="out"/><feGaussianBlur stdDeviation=".70000003"/><feColorMatrix values="1 0 0 0 0 0 1 0 0 0 0 0 1 0 0 0 0 0 1 0"/></filter><radialGradient id="b" cx="431.53162" cy="498.01984" gradientTransform="matrix(1.5533003 -.01800743 .01331651 1.148667 -226.93013 -64.288213)" gradientUnits="userSpaceOnUse" r="450"><stop offset="0" stop-color="#f1d8b0"/><stop offset=".89999998" stop-color="#e3b885"/><stop offset="1" stop-color="#dfae78"/></radialGradient><path d="m0 0h900v1000h-900z" fill="url(#b)"/><g stroke="#8d643f" stroke-width="3.5"><path d="m50 50h800" opacity=".923237"/><path d="m50 150h800" opacity=".923237"/><path d="m50 250h800" opacity=".923237"/><path d="m50 350h800" opacity=".923237"/><path d="m50 450h800" opacity=".923237"/><path d="m50 550h800" opacity=".923237"/><path d="m50 650h800" opacity=".923237"/><path d="m50 750h800" opacity=".923237"/><path d="m50 850h800" opacity=".923237"/><path d="m50 950h800" opacity=".923237"/><path d="m50 50v900" opacity=".923237"/><path d="m150 50v400" opacity=".923237"/><path d="m250 50v400" opacity=".923237"/><path d="m350 50v400" opacity=".923237"/><path d="m450 50v400" opacity=".923237"/><path d="m550 50v400" opacity=".923237"/><path d="m650 50v400" opacity=".923237"/><path d="m750 50v400" opacity=".923237"/><path d="m850 50v900" opacity=".923237"/><path d="m150 550v400" opacity=".923237"/><path d="m250 550v400" opacity=".923237"/><path d="m350 550v400" opacity=".923237"/><path d="m450 550v400" opacity=".923237"/><path d="m550 550v400" opacity=".923237"/><path d="m650 550v400" opacity=".923237"/><path d="m750 550v400" opacity=".923237"/><path d="m350 50 200 200" opacity=".923237"/><path d="m350 250 200-200" opacity=".923237"/><path d="m350 750 200 200" opacity=".923237"/><path d="m350 950 200-200" opacity=".923237"/><path d="m144.47415 223.06611v20.91182h-20.91182m31.96036-20.91182v20.91182h20.91182m-32.17713 32.72647.16902-20.91114-20.91114-.16902m31.79029 21.16946.16903-20.91114 20.91114.16903" fill="none" opacity=".923237"/><path d="m144.47415 223.06611v20.91182h-20.91182m31.96036-20.91182v20.91182h20.91182m-31.89667 32.7041-.0497-20.91176-20.91176.0497m32.00995 20.83583-.0497-20.91176 20.91176-.0497" fill="none" opacity=".923237" transform="translate(100.04217 99.996729)"/><path d="m144.47415 223.06611v20.91182h-20.91182m31.96036-20.91182v20.91182h20.91182m-31.89667 32.7041-.0497-20.91176-20.91176.0497m32.00995 20.83583-.0497-20.91176 20.91176-.0497" fill="none" opacity=".923237" transform="translate(300.02323 99.887359)"/><path d="m144.47415 223.06611v20.91182h-20.91182m31.96036-20.91182v20.91182h20.91182m-31.89667 32.7041-.0497-20.91176-20.91176.0497m32.00995 20.83583-.0497-20.91176 20.91176-.0497" fill="none" opacity=".923237" transform="translate(499.89758 100.15219)"/><path d="m144.47415 223.06611v20.91182h-20.91182m31.96036-20.91182v20.91182h20.91182m-31.89667 32.7041-.0497-20.91176-20.91176.0497m32.00995 20.83583-.0497-20.91176 20.91176-.0497" fill="none" opacity=".923237" transform="translate(600.1129 -.011036)"/><path d="m144.47415 223.06611v20.91182h-20.91182m31.96036-20.91182v20.91182h20.91182m-31.89667 32.7041-.0497-20.91176-20.91176.0497m32.00995 20.83583-.0497-20.91176 20.91176-.0497" fill="none" opacity=".923237" transform="translate(600.1576 500.18665)"/><path d="m144.47415 223.06611v20.91182h-20.91182m31.96036-20.91182v20.91182h20.91182m-31.89667 32.7041-.0497-20.91176-20.91176.0497m32.00995 20.83583-.0497-20.91176 20.91176-.0497" fill="none" opacity=".923237" transform="translate(500.16784 400.0353)"/><path d="m144.47415 223.06611v20.91182h-20.91182m31.96036-20.91182v20.91182h20.91182m-31.89667 32.7041-.0497-20.91176-20.91176.0497m32.00995 20.83583-.0497-20.91176 20.91176-.0497" fill="none" opacity=".923237" transform="translate(300.09377 400.07793)"/><path d="m144.47415 223.06611v20.91182h-20.91182m31.96036-20.91182v20.91182h20.91182m-31.89667 32.7041-.0497-20.91176-20.91176.0497m32.00995 20.83583-.0497-20.91176 20.91176-.0497" fill="none" opacity=".923237" transform="translate(99.985855 399.94637)"/><path d="m144.47415 223.06611v20.91182h-20.91182m31.96036-20.91182v20.91182h20.91182m-31.89667 32.7041-.0497-20.91176-20.91176.0497m32.00995 20.83583-.0497-20.91176 20.91176-.0497" fill="none" opacity=".923237" transform="translate(-.081294 500.28748)"/><path d="m155.52269 223.06611v20.91182h20.91182m-20.84819 32.67787-.0497-20.91176 20.91176-.0497" fill="none" opacity=".923237" transform="translate(-100.29329 100.43567)"/><path d="m55.43064 623.09575v20.91182h20.91182m-20.84819 32.67787-.0497-20.91176 20.91176-.0497" fill="none" opacity=".923237"/><path d="m844.70919 323.47028v20.91182h-20.91182m20.84819 32.67787.0497-20.91176-20.91176-.0497" fill="none" opacity=".923237"/><path d="m844.9604 623.64932v20.91182h-20.91182m20.84819 32.67787.0497-20.91176-20.91176-.0497" fill="none" opacity=".923237"/></g><path d="m.000025-.000016h900v1000h-900z" fill="#784421" filter="url(#a)" opacity=".072125" transform="matrix(.99627991 0 0 .99664559 -.005937 3.360406)"/><path d="m222.92108 535.45578c-.74556-.16798-2.04332-.72596-3.90721-1.67992-7.41876-3.79702-16.7876-6.47443-26.8882-7.68407-2.78073-.33301-8.49747-.71392-10.7593-.71689-2.38203-.004-4.6438.62839-6.54121 1.82644-2.04929 1.29397-2.50345 1.53828-3.29722 1.77354-1.09926.32582-1.7572.11646-2.74554-.87362-.84456-.84612-1.52204-2.41332-1.5016-3.4737.0261-1.35058 1.35-3.26178 2.41774-3.48997.23963-.0512.74659-.20399 1.1267-.33952 1.27042-.45299 3.91922-3.41188 5.52853-6.17574.87666-1.50547 1.436-1.90436 2.77675-1.98013 1.38526-.0783 2.33863.19157 2.99471.84759.4312.43126.52787.65152.52787 1.20283 0 .88073-.42742 1.55194-1.50785 2.36764-1.08583.81986-2.51613 3.02345-2.44503 3.76713l.0459.47843 1.834-.0797c2.88507-.12544 4.93656-.0753 8.37151.20466 1.75371.14293 3.2475.20088 3.31963.12877.0721-.0721.10702-2.84986.0777-6.17278-.048-5.40231-.0862-6.15561-.36277-7.11815-.36325-1.26413-.0521-1.19206-3.59162-.83134-1.27185.1296-3.89124.34342-5.82089.47516-4.14143.28273-5.59003.45239-6.77783.79385-1.96214.56407-3.21986.44107-3.51838-.34408-.39932-1.05035.0507-2.38983 1.01405-3.01847 1.2512-.81646 3.1092-1.12062 7.68738-1.25849 2.96921-.0894 5.74794-.26454 8.93071-.56286 3.49543-.32763 8.00682-.51715 15.30977-.64314 4.21021-.0726 7.96157-.18023 8.33648-.23911.83962-.13188 2.03475.22932 3.03434.91704.97874.67337 1.37956 1.60383 1.2569 2.9175-.10627 1.13796-.37655 1.85493-1.44298 3.82726-.42681.78942-1.25999 2.33236-1.85148 3.42877-1.14021 2.11365-1.54069 2.52132-2.29146 2.33289-.97175-.24389-2.32416-1.94336-2.33376-2.93267 0-.19832.34693-.91974.77525-1.60314 1.53548-2.45004 1.95652-3.65032 1.48144-4.22282-.52347-.63076-3.96919-.85693-10.27256-.67427l-4.10523.11896-.1433.58006c-.17997.72847-.55604 6.07637-.43578 6.19663.0487.0489.39595.0113.7712-.0836.81776-.20676 4.10969-.43335 6.1046-.42018 1.73204.0114 2.75714.39207 3.27376 1.21562.40144.63991.35043 1.72135-.10525 2.23074-.28028.31338-.40993.32755-2.19149.23962-1.70372-.0841-7.22793.23384-7.93105.45646-.29023.0919-.46177 1.5363-.4615 3.88587v1.37136l3.22926.36072c1.77606.19839 4.55686.61294 6.17955.92123 6.51803 1.23831 10.74174 1.67415 16.34637 1.68675 5.61692.0126 9.22252-.44055 13.69848-1.72171 2.76577-.79164 3.88451-.11249 2.96014 1.797-.60939 1.25877-6.02596 6.15064-8.92399 8.05952-2.02625 1.33467-4.30399 2.23233-5.57529 2.19722-.31052-.009-1.06692-.12877-1.6809-.26711zm78.56408-4.18879c-3.3369-.32117-7.77925-1.31688-10.00016-2.24144-2.22302-.92546-4.01966-2.42048-4.31291-3.58897-.14294-.56959.20652-1.26229.7974-1.58049.49632-.26728.57374-.26512 1.94205.0542 2.46952.57631 6.07436 1.02999 7.40004.93131.66088-.0492 2.20403-.16512 3.42926-.25762 2.27377-.17165 4.09118-.56568 5.18648-1.12446 1.05141-.53638 2.65374-2.01116 3.03029-2.78903.83517-1.72522.84634-1.85078.92053-10.3686.0583-6.66175-.18409-21.08658-.35688-21.25933-.0274-.0276-1.72628-.0911-3.77488-.14105-7.70919-.18799-15.75044.61291-21.91791 2.183-3.24428.82593-4.7583 1.34551-5.83213 2.00153-1.03634.63308-1.72389.69906-2.48.23802-1.53075-.93337-1.25355-3.06717.65203-5.01829 1.36187-1.39444 3.04051-2.25129 5.16515-2.63656 1.89015-.34275 18.49694-.95591 26.03061-.9611 6.22239-.005 14.60124-.37739 16.10716-.71723.57011-.12867 2.08481-.39444 3.36591-.59061 3.51792-.53868 4.14753-.25277 3.59827 1.63409-.33925 1.16539-1.75618 3.51537-2.73807 4.54104-1.65224 1.72597-3.43523 1.88854-8.13333.74164-1.40334-.3426-2.89248-.6732-3.30914-.73466l-.75748-.11177v14.66476c0 9.13116-.0638 15.28794-.16819 16.31629-.54165 5.31961-2.06698 8.10981-5.30611 9.70632-.7169.35335-1.80582.74792-2.41981.87682-1.46053.30664-4.24626.41236-6.11818.23218zm-42.05974-2.7678c-1.76557-.82212-2.65135-3.31192-1.81289-5.09571.59459-1.26492 1.13624-1.62374 3.99485-2.64632 1.43996-.51513 3.15644-1.16858 3.81431-1.4521 1.79773-.77479 3.82076-1.42799 4.42274-1.42799.35592 0 .66679.13126.92698.39144.682.68204.56469 1.03331-1.25396 3.75496-3.82191 5.71959-7.14148 7.8496-10.09203 6.47572zm23.14903-14.76677c-.71971-.13853-1.23038-.67924-1.50401-1.59251-.27809-.92821-.21844-1.49249.29421-2.78295.26054-.65585.54706-1.64448.63667-2.19696.24224-1.49261.20192-4.52234-.0738-5.54959-.36229-1.34961-.31368-1.94252.19931-2.4319.74309-.70891 1.09344-.76028 4.46977-.65537 3.68377.11446 10.54244-.17128 11.91652-.49646.89502-.21182 1.0004-.2056 1.63091.0963.84559.40489 1.41734 1.07526 1.65429 1.93978.25376.92587.21899 1.39966-.14954 2.03739-.49063.84913-.70359 2.25496-.72299 4.773-.0137 1.77438.0425 2.47941.24251 3.03007.39752 1.09595.18601 2.13795-.57566 2.83597-.66095.60573-.70086.60748-2.95665.12914-.86685-.18381-2.07405-.25333-4.38565-.25254-3.80616.002-6.44229.29288-7.85105.86844-1.00357.40999-1.67686.46915-2.82488.24819zm9.67414-4.62949c1.99265-.0895 3.7356-.20589 3.87321-.2587.59677-.22901.71683-.89052.71683-3.95101 0-2.89675-.007-2.9564-.35879-3.15147-.4722-.26166-4.80683-.26961-7.37584-.0135-2.67267.26642-2.55001.0788-2.68507 4.11061-.0788 2.35386-.0569 3.21331.0859 3.38548.14604.17597.42049.20827 1.15618.13602.53054-.0521 2.59498-.16793 4.58764-.2574zm-36.39552-.15084c-1.82166-.24523-3.3086-1.22864-3.73554-2.47052-.24903-.72431-.0742-1.91269.43531-2.95744.29784-.61083.46856-.75964 1.14727-.9999 1.12999-.40003 4.43069-.25032 6.85749.31103 1.33239.3082 2.27199.41501 3.90722.44418 2.66629.0476 2.48899.0226 2.87054.40417.44964.44959.39651 1.01696-.15386 1.64375-.57456.65444-1.72806 1.27665-4.15198 2.23972-2.88981 1.14816-5.3742 1.62764-7.17645 1.38501zm-92.81559-5.42713c-1.30942-.17369-1.75426-.61246-1.75426-1.73037 0-1.43854 1.23955-4.10727 2.44668-5.26751.41165-.39566.67926-.52643 1.01022-.49369 1.54877.15319 2.74108.0222 4.15809-.45679 1.66642-.56331 5.51756-2.24861 9.51034-4.16184l2.69268-1.29026-.10119-.73813c-.0556-.40595-.10114-.97927-.10114-1.27402 0-.53314-.007-.5359-.75755-.53497-1.10181.002-3.66437.41204-5.86079.93924-2.6593.63833-3.84078.74239-4.66855.41116-.61096-.24444-.66951-.32276-.834-1.11526-.22742-1.09529-.011-1.94594.68296-2.68151.42098-.44632.73123-.59213 1.71011-.80363 1.30941-.28294 4.98496-.57432 7.27587-.57681.80034-.00068 1.68693-.0479 1.97009-.10456l.51498-.10298-.10305-1.2127c-.0569-.66699-.1869-1.55982-.28948-1.98409-.25711-1.06363.1381-1.83565 1.11197-2.1723 1.38374-.47837 4.22521.43613 4.88952 1.57363.30401.52053.30641.58364.0603 1.59392-.14075.57857-.29976 1.25363-.35337 1.50011l-.0975.44815 3.89775-.0494 3.89776-.0495.41357.38663c.46658.43615.56161 1.38098.20967 2.08526-.26102.52241-1.15042.95724-1.94904.9529-.58615-.004-4.88918.4071-6.09994.58162l-.51834.0747v1.80498 1.80498l.91696.4087c1.17168.52221 3.38833 1.14615 5.22288 1.47012 3.02742.53461 3.47767 1.01451 2.87047 3.05922-.13616.45851-.49996 1.09968-.84394 1.48729-.59493.67034-.62077.68108-1.60795.66709-1.29372-.0184-2.43619-.54401-4.86779-2.23976l-1.81802-1.26787-.0746 2.57513c-.0411 1.41632-.15769 2.8386-.25931 3.16062-.26328.83474-.96249 1.52092-1.68851 1.65713-1.49872.28116-2.09172-.58097-2.33218-3.39082-.0886-1.03503-.21076-2.44048-.27158-3.12323l-.11045-1.24138-2.71114 1.93247c-6.53428 4.65758-11.32212 7.22124-14.03394 7.51454-.35091.0379-.96085.0262-1.35556-.0262zm47.63957-2.59233c-.14549-.10963-.37388-.46458-.50751-.78876-.25711-.62388-.56112-3.46811-.56345-5.27136 0-.59206-.048-1.07646-.10435-1.07646-.10607 0-2.23387 1.28663-4.76104 2.87893-2.35817 1.4858-4.02419 2.25843-5.45963 2.53197-.58107.11072-.74802.0751-1.19608-.25518-.66096-.48723-.79396-.99424-.59219-2.25735.20912-1.30895.65506-2.23639 1.55858-3.24136l.72993-.81184.9051.0821c1.48563.13472 2.30195-.11972 5.60916-1.74841l3.14967-1.55107v-1.10376-1.10376l-.96517.1092c-.53081.0601-1.98402.27938-3.2294.48739-3.51209.58663-4.28253.63877-4.87924.33019-.952-.4923-1.13815-2.14542-.36188-3.21394.60768-.83649.76174-.94503 1.7808-1.2544.77915-.23652 4.39793-.53556 6.73792-.55677l.75749-.007v-1.19285c0-.71879-.10086-1.44497-.25382-1.82722-.31327-.7829-.10566-1.58254.54446-2.09746.9158-.7253 3.94026-.088 5.17146 1.08971.53287.50975.58121 1.25187.11963 1.83865-.22488.28587-.31895.64696-.31895 1.22402v.81853l2.51175-.12604c4.16056-.20878 6.25736-.1599 6.85277.15974.65875.35364.89139.79653.75515 1.43795-.29996 1.41213-1.40657 1.75142-7.40086 2.26919-1.61843.13979-2.99991.28957-3.06992.33284-.0701.0433-.12732.53058-.12732 1.08292v1.00424l1.63462.76037c3.21219 1.49415 7.0398 2.70123 11.88167 3.74698 3.93403.84967 4.13225.98923 3.85456 2.71348-.2026 1.25837-.59081 2.0214-1.40033 2.75278-2.14219 1.93531-5.19065.90342-13.84561-4.68666-1.06794-.68977-1.97407-1.25413-2.01357-1.25413-.0398 0-.10798 1.27383-.15221 2.83072-.0902 3.17542-.29688 4.06484-1.10194 4.74224-.36202.30461-.65773.40089-1.23113.40089-.41508 0-.8737-.0897-1.01912-.19934zm52.11325-9.77985c-.17545-.0429-1.14426-.26586-2.15296-.49541-1.21453-.2764-2.01542-.55161-2.37119-.81486-.71875-.53173-1.17065-1.59702-1.19211-2.81004-.0322-1.80837 1.34789-3.70637 3.19786-4.39854.47069-.17612 1.0146-.31865 1.20871-.31672.60287.006 1.60767.55734 2.15809 1.18419 1.53945 1.75338 3.30674 2.91556 5.69014 3.7419 1.93835.67202 2.11751.77908 2.31737 1.38467.13767.41718.12177.62247-.0782 1.00921-.31018.59983-.91683.9235-2.29276 1.22327-1.04559.22779-5.86162.4449-6.48492.29233z" fill="#8e6540" stroke-width=".159477"/><path d="m600.35116 535.31225c-.1852-.0391-.544-.28745-.7973-.55206-.432-.45121-.4603-.56219-.4565-1.78591.01-1.11313.071-1.43837.4607-2.21415.5043-1.00436 1.2417-1.84088 1.8146-2.05869.205-.0779 1.4024-.14175 2.6608-.14175 4.2658 0 6.3693-.71351 8.8869-3.01444.8495-.77636 2.0576-2.76322 1.8229-2.99789-.181-.18101-6.4303.25722-8.5456.59924-4.5919.74247-8.1388 1.82063-11.4556 3.48218-1.2766.6395-2.4684 1.13353-2.7345 1.13353-.2691 0-.6638-.16555-.9191-.38563-.4254-.36664-.4469-.45105-.438-1.71438.01-1.01311.093-1.51514.3618-2.11342.4836-1.07658 1.347-2.08811 2.3205-2.71859.7153-.46327.9858-.53975 2.1779-.61574.7487-.0477 2.6145-.33682 4.1465-.64243 4.3093-.85973 6.5826-1.0852 13.2555-1.31464l2.8155-.0968.065-1.45865c.036-.80227.025-1.50399-.025-1.55938-.119-.13322-8.9181.28124-10.8547.51131-.8332.099-2.2327.21261-3.1097.25251-1.4023.0638-1.6569.0336-2.1088-.25045-.2828-.17767-.5612-.51089-.6189-.74052-.1294-.51554.4349-1.79096 1.0554-2.38543.5407-.51802 1.431-.64956 5.3402-.78901 1.5788-.0563 4.4135-.20614 6.2993-.33292 1.8858-.1268 3.5544-.23074 3.7078-.23099.2434 0 .2789-.16876.277-1.31614 0-1.79853-.089-2.07238-.6166-1.96269-.2298.0478-1.4794.15585-2.7768.24018-2.4628.16003-5.0893.55723-7.9273 1.19884-.921.20822-2.1547.46839-2.7415.57818-1.2464.23316-1.3644.17647-1.8693-.89748-.2992-.63652-.3155-.81485-.163-1.786.4987-3.17715.275-5.19779-.7043-6.35984-.2872-.34082-.6433-.7971-.7913-1.01397-.5751-.84257-.1867-1.93557 1.0379-2.92099l.5895-.47434 4.1151-.0443c4.5203-.0487 10.5132-.27101 10.6162-.39388.036-.0429-.01-.67711-.099-1.40928l-.1641-1.33125-1.9231.0934c-3.2862.15955-3.5834.21897-4.1616.83206-.6096.64636-1.1744.69998-2.2159.21041-1.0784-.50694-1.2588-1.02584-1.0628-3.05701.087-.89978.198-2.26389.2469-3.03137l.089-1.39543h-.4647c-.2556 0-1.3504.11617-2.4329.25814-2.2167.29071-4.7054.22081-5.6111-.15764-.3072-.12833-.6802-.41917-.829-.6463-.2334-.35609-.2422-.4816-.064-.91161.7631-1.84249 2.2231-2.37003 6.5587-2.37003 1.3872 0 2.5223-.0603 2.5223-.13397 0-.0737-.145-.70106-.3223-1.39418-.3842-1.50222-.2766-1.92794.6107-2.41428 1.1825-.64816 2.555-.55111 4.2232.29856.8215.41841.9636.79593.7893 2.09672l-.1432 1.06871h7.6888 7.6889l-.3996-1.59317c-.3747-1.49471-.3834-1.61773-.1393-1.99014.6888-1.05135 2.7823-1.30474 4.4298-.53615 1.2497.58298 1.4441.93138 1.3806 2.47433l-.051 1.24644 3.668.094c4.4223.11334 4.9803.25813 5.5979 1.45262.5296 1.02412-.025 1.89731-1.3906 2.19022-.4368.0937-2.4332.17036-4.4363.17036h-3.6421l-.062 2.75098c-.056 2.483-.098 2.82519-.4331 3.51284-.613 1.25822-1.4988 1.52218-2.7951.8329-.7141-.37967-.8769-.39861-3.4127-.39693-1.4645.002-2.9139.0433-3.2209.094l-.5582.0923.054 1.46085c.029.80348.108 1.51757.1738 1.58685.066.0693 2.5174.048 5.4479-.0473 4.6513-.15132 5.4567-.21519 6.3401-.50287 1.3823-.45012 2.5335-.35575 3.9066.32018 1.4118.69504 2.1781 1.58621 2.1781 2.53287 0 .82625-.2867 1.44396-1.1551 2.48872-.7336.88258-1.1332 2.01103-1.3987 3.9499-.2235 1.63232-.4464 2.18811-1.0972 2.73563-.8272.69613-1.3589.72247-5.5986.27753-1.7633-.18505-5.4784-.19633-7.4954-.0227l-1.1961.10296v1.59476 1.59476l2.5516-.005c1.4035-.003 4.6329-.0387 7.1765-.0797 4.1036-.0661 4.6918-.0441 5.2194.19501.6711.30422 1.2379 1.11007 1.2388 1.76133 0 .70965-.7579 1.41669-1.6835 1.56862-.4333.0711-3.8492.13353-7.5911.13877l-6.8033.01-.1019 1.39542c-.056.76748-.1345 1.55247-.1744 1.7444-.096.4626.027.47535 6.6267.68212 2.9384.0921 7.5063.24866 10.151.34797 5.3497.20089 7.0857.10702 10.7339-.58043 1.1673-.21998 2.364-.39994 2.6593-.39994 1.0029 0 1.4608.90965.9472 1.88178-.5606 1.06109-5.5298 5.33946-6.9388 5.9741-1.1142.50186-2.6688.3202-6.2297-.72792-3.2133-.94579-6.3729-1.57577-9.7281-1.93968-2.7068-.29358-8.5176-.63372-8.8231-.51647-.1331.0511-.3411.58921-.4948 1.27984-.54 2.4272-1.9525 4.70219-4.2905 6.91029-2.579 2.43572-6.211 3.8369-11.2876 4.35469-.9113.0929-1.8722.19662-2.1353.2304-.2632.0338-.6301.0295-.8153-.01zm7.9121-30.51447c.3947-.08 2.1786-.23588 3.9642-.34644l3.2466-.20102-.1044-1.99891c-.1521-2.91286-.1401-2.87617-.9394-2.87516-1.3085.002-6.7532.32208-8.2402.48501-1.9266.2111-2.3454.37367-2.4743.96022-.1013.46141.1311 2.42809.4181 3.53759l.1548.59803 1.6284-.007c.8957-.005 1.9515-.0723 2.3462-.15238zm22.4019-.85817c.7441-.74414 1.3444-3.79504.8306-4.22147-.3547-.29437-2.6054-.48005-7.329-.60465l-4.1108-.10844.044 2.45774.044 2.45771 4.425.0926c2.4337.0509 4.473.14059 4.5318.19934.2574.25749 1.1978.0935 1.5641-.27278zm-19.4808-13.81731c.6301-.0833 4.1596-.23151 7.8436-.3293 3.6839-.0978 6.7232-.20184 6.7542-.2312.076-.0718-.2315-3.25277-.3228-3.34401-.04-.0396-.6774-.002-1.4176.0861-.7403.0869-3.9653.22654-7.1668.31042-3.2014.0839-6.1934.20014-6.6485.25833l-.8277.10581-.049 1.7408-.049 1.74078.3694-.0931c.2032-.0512.885-.16124 1.515-.24458zm21.3991 44.08245c-3.2236-.31779-5.8353-1.37123-6.9993-2.82334-.4159-.51876-.4959-.76924-.5497-1.72273-.078-1.37615.2441-2.31846 1.0267-3.00562 1.5022-1.31893 2.9033-1.12818 3.9709.5406.7253 1.13385 1.7424 1.97584 3.4948 2.89296 2.6187 1.37062 3.6932 2.31496 3.4952 3.07205-.2043.78142-2.2449 1.26232-4.4386 1.04608zm76.9979-.37167c-.9273-.2405-1.6428-1.37194-2.0976-3.31673-.269-1.15057-.2802-1.77404-.1571-8.73443.1406-7.94517.1205-8.28791-.5924-10.07424-.511-1.28064-.4997-1.72432.058-2.28245 1.1793-1.17924 3.9246-.97945 5.424.3947.5339.48924.5609.56431.5355 1.48722-.015.53459-.114 1.28009-.2206 1.65672-.1399.49405-.202 3.14937-.2229 9.5357-.02 6.16235-.086 9.05875-.215 9.535-.3407 1.25232-1.4783 2.06671-2.5124 1.79851zm-27.8254-1.4324c-.3213-.065-.7699-.23995-.9967-.38857-.8746-.57304-.3468-1.25961 1.5991-2.08031 5.2317-2.20646 7.5354-4.34511 8.435-7.83092.6325-2.45059.6874-6.73808.1241-9.68797-.3307-1.73169-.2238-2.111.7374-2.61902.9044-.47792 1.7863-.47168 2.8426.0201 1.1513.536 1.5265 1.15693 1.4018 2.31957-.051.48241-.1581 3.60417-.2361 6.93723-.1506 6.43365-.263 7.43095-1.0248 9.09482-1.0109 2.20804-3.1909 3.45608-6.9364 3.97096-2.0844.28655-5.1606.4232-5.946.2641zm-104.0326-4.77934c-1.18799-.30944-1.89042-.89931-2.24078-1.88181-.42551-1.19296-.18471-2.51628.61378-3.37339.40308-.43263 1.6576-1.09547 3.3354-1.76228.6392-.25406 2.3822-1.04829 3.8733-1.76496 2.7653-1.32911 3.2459-1.44682 3.8521-.94369.3725.30912.241.7513-.7676 2.58225-1.9705 3.57709-3.9545 6.02696-5.5156 6.81088-.8074.40546-2.2763.56069-3.1506.333zm150.6251-8.20395c-1.1559-.38676-2.8717-1.43977-4.7141-2.89317-7.6405-6.02736-11.5496-8.75229-15.0601-10.49818-2.8588-1.42176-4.4685-1.87895-6.9373-1.97032l-1.9137-.0708-1.1163.79969c-5.2088 3.73129-8.3617 5.38655-14.87 7.8065-5.3758 1.99887-11.1229 3.61428-14.2662 4.00993-.8489.10684-2.2835.16665-3.1879.13287-2.6655-.0995-3.8678-.89949-3.8639-2.57107 0-1.29537.6436-2.50288 2.055-3.87368 1.5069-1.46358 2.3685-1.90797 3.2426-1.67256.3453.093.8051.30841 1.0216.47875.6762.53191 2.3082.73621 4.0026.50106 4.3472-.60327 15.0777-3.84246 19.3868-5.85224 2.3363-1.08967 5.397-3.25241 4.6028-3.25241-.1416 0-.3019.0717-.3561.15947-.054.0877-.507.15955-1.0061.15963-3.0145 0-7.4898.66922-9.8073 1.46559-2.1577.7415-2.7563.75157-4.1497.0699-.72-.3523-.883-.51461-1.0389-1.03508-.3758-1.25453-.257-1.8176.6711-3.18077 1.4796-2.1729 1.9034-4.18375 1.9223-9.12106.014-3.51065-.032-3.77164-.8715-5.02353-.609-.90799-.6677-1.21142-.3879-2.00448.312-.88444.9193-1.53811 1.7962-1.93352.6013-.27117.7933-.28665 1.5947-.12852.5011.0989 1.3776.33666 1.9477.52839 1.2678.42632 3.0209.44979 10.2065.13657 2.6753-.11661 7.1605-.27062 9.9673-.34224 5.2791-.13471 5.5846-.17245 7.6507-.9455 1.6694-.62462 2.8067-.40406 4.2296.82025 1.2673 1.09039 1.4239 2.14356.5767 3.87862-.9116 1.86702-1.372 4.69696-1.4164 8.70632-.02 1.82376.034 2.48219.2686 3.24488.3835 1.24869.3439 2.04933-.1422 2.87891-.4332.73925-1.5575 1.56946-2.5129 1.85573-.6789.20339-3.2219.0191-6.1024-.44218-1.6773-.2686-4.7412-.24007-5.4918.0512-.3389.13145-.2777.16236.4784.24186 1.1737.12338 3.5911.91837 5.7678 1.89677 4.1002 1.84298 13.0802 5.60724 16.2523 6.81271 3.725 1.41558 7.4594 2.08375 12.4705 2.23127l3.4825.1025.379.44069c.6289.73131.2444 1.2732-1.9218 2.70832-1.7708 1.17318-6.942 3.75995-8.4523 4.22803-1.1148.34554-2.9056.68398-3.5085.66309-.1754-.006-.5705-.0952-.878-.19813zm-38.2577-21.78902c1.0173-.16783 3.2779-.42366 5.0235-.56852 1.7455-.14485 3.186-.27548 3.201-.29026.015-.0148.079-.9746.1417-2.13287l.1145-2.10594-.5404.0779c-.2973.0429-2.6893.29296-5.3155.55577-2.6263.2628-4.785.49395-4.7972.51367-.1145.18578-.5575 3.9688-.4794 4.09509.1412.2285.5107.20831 2.6518-.14487zm18.0371-1.09628c3.0212-.0683 4.7985-.16901 4.9077-.27823.2229-.22314.4804-1.81521.4815-2.97844v-.917h-3.2294c-1.7761 0-4.252.0474-5.5019.10456l-2.2726.10396v2.14672 2.14672l.4386-.11093c.2412-.061 2.57-.1591 5.1751-.21795zm-13.1678-7.70594 3.6892-.18834-.073-.65146c-.1239-1.10511-.4912-3.02136-.6658-3.47333-.1428-.36943-.2398-.42043-.6917-.36348-.2891.0364-1.6021.14187-2.9177.23433-5.5959.39321-5.3853.36023-5.819.91159-.2747.34918-.3209.64609-.3209 2.06095v1.653l1.5549.003c.8552.002 3.215-.0822 5.244-.1858zm18.8307-2.16903c.1588-1.77163.096-2.15347-.3879-2.35052-.5476-.22306-5.7272-.44223-7.7261-.32692-1.9953.11511-2.0223.12181-2.1802.53981-.1453.38456-.504 2.93538-.504 3.58372 0 .24604.4414.26828 5.3222.26828h5.3223zm-136.87014 22.60444c-2.28788-.41469-3.27478-1.57742-2.92553-3.44671.21289-1.13982.62771-1.85858 1.25643-2.17732.75139-.38092 2.73404-.27341 5.50194.29838 1.7284.35705 2.5147.43116 4.7277.44566 2.372.0155 2.6902.0497 2.9902.32117.4271.3865.4271.89256-.0001 1.43558-.5843.74279-4.0977 2.27543-6.6551 2.90309-1.1639.28563-3.8643.40708-4.89554.22015zm5.66684-16.60161c-4.6502-.57097-4.9641-.69405-5.42488-2.1272-.69913-2.17461.39658-4.34262 2.61258-5.16926 1.1701-.43647 1.6844-.2435 3.065 1.14997 1.2933 1.30531 2.6071 2.07273 4.9628 2.89898 2.105.73828 2.7102 1.46327 2.031 2.43298-.5267.75194-1.0975.8971-3.6583.93033-1.3157.017-2.9304-.035-3.5882-.1158z" fill="#8e6540" stroke-width=".159477"/><path d="m37.851715 39.009155h824.29657v921.98169h-824.29657z" style="opacity:.867446;fill:none;stroke:#8e6540;stroke-width:8.77937;stroke-linecap:round;stroke-linejoin:round"/></svg>