<svg viewBox="0 0 900 1000" xmlns="http://www.w3.org/2000/svg"><path d="m0 0h900v1000h-900z" fill="#262421"/><g stroke="#fff"><path d="m50 50h800" stroke-width="2"/><path d="m50 150h800" stroke-width="2"/><path d="m50 250h800" stroke-width="2"/><path d="m50 350h800" stroke-width="2"/><path d="m50 450h800" stroke-width="2"/><path d="m50 550h800" stroke-width="2"/><path d="m50 650h800" stroke-width="2"/><path d="m50 750h800" stroke-width="2"/><path d="m50 850h800" stroke-width="2"/><path d="m50 950h800" stroke-width="2"/><path d="m50 50v900" stroke-width="2"/><path d="m150 50v400" stroke-width="2"/><path d="m250 50v400" stroke-width="2"/><path d="m350 50v400" stroke-width="2"/><path d="m450 50v400" stroke-width="2"/><path d="m550 50v400" stroke-width="2"/><path d="m650 50v400" stroke-width="2"/><path d="m750 50v400" stroke-width="2"/><path d="m850 50v900" stroke-width="2"/><path d="m150 550v400" stroke-width="2"/><path d="m250 550v400" stroke-width="2"/><path d="m350 550v400" stroke-width="2"/><path d="m450 550v400" stroke-width="2"/><path d="m550 550v400" stroke-width="2"/><path d="m650 550v400" stroke-width="2"/><path d="m750 550v400" stroke-width="2"/><path d="m350 50 200 200" stroke-width="2"/><path d="m350 250 200-200" stroke-width="2"/><path d="m350 750 200 200" stroke-width="2"/><path d="m350 950 200-200" stroke-width="2"/><path d="m144.47 223.07v20.912h-20.912m31.96-20.912v20.912h20.912m-32.177 32.726.16902-20.911-20.911-.16902m31.79 21.169.16903-20.911 20.911.16903" fill="none" stroke-width="2"/><path d="m144.47 223.07v20.912h-20.912m31.96-20.912v20.912h20.912m-31.897 32.704-.0497-20.912-20.912.0497m32.01 20.836-.0497-20.912 20.912-.0497" fill="none" stroke-width="2" transform="translate(100.04 99.997)"/><path d="m144.47 223.07v20.912h-20.912m31.96-20.912v20.912h20.912m-31.897 32.704-.0497-20.912-20.912.0497m32.01 20.836-.0497-20.912 20.912-.0497" fill="none" stroke-width="2" transform="translate(300.02 99.887)"/><path d="m144.47 223.07v20.912h-20.912m31.96-20.912v20.912h20.912m-31.897 32.704-.0497-20.912-20.912.0497m32.01 20.836-.0497-20.912 20.912-.0497" fill="none" stroke-width="2" transform="translate(499.9 100.15)"/><path d="m144.47 223.07v20.912h-20.912m31.96-20.912v20.912h20.912m-31.897 32.704-.0497-20.912-20.912.0497m32.01 20.836-.0497-20.912 20.912-.0497" fill="none" stroke-width="2" transform="translate(600.11 -.011036)"/><path d="m144.47 223.07v20.912h-20.912m31.96-20.912v20.912h20.912m-31.897 32.704-.0497-20.912-20.912.0497m32.01 20.836-.0497-20.912 20.912-.0497" fill="none" stroke-width="2" transform="translate(600.16 500.19)"/><path d="m144.47 223.07v20.912h-20.912m31.96-20.912v20.912h20.912m-31.897 32.704-.0497-20.912-20.912.0497m32.01 20.836-.0497-20.912 20.912-.0497" fill="none" stroke-width="2" transform="translate(500.17 400.04)"/><path d="m144.47 223.07v20.912h-20.912m31.96-20.912v20.912h20.912m-31.897 32.704-.0497-20.912-20.912.0497m32.01 20.836-.0497-20.912 20.912-.0497" fill="none" stroke-width="2" transform="translate(300.09 400.08)"/><path d="m144.47 223.07v20.912h-20.912m31.96-20.912v20.912h20.912m-31.897 32.704-.0497-20.912-20.912.0497m32.01 20.836-.0497-20.912 20.912-.0497" fill="none" stroke-width="2" transform="translate(99.986 399.95)"/><path d="m144.47 223.07v20.912h-20.912m31.96-20.912v20.912h20.912m-31.897 32.704-.0497-20.912-20.912.0497m32.01 20.836-.0497-20.912 20.912-.0497" fill="none" stroke-width="2" transform="translate(-.081294 500.29)"/><path d="m155.52 223.07v20.912h20.912m-20.848 32.678-.0497-20.912 20.912-.0497" fill="none" stroke-width="2" transform="translate(-100.29 100.44)"/><path d="m55.431 623.1v20.912h20.912m-20.848 32.678-.0497-20.912 20.912-.0497" fill="none" stroke-width="2"/><path d="m844.71 323.47v20.912h-20.912m20.848 32.678.0497-20.912-20.912-.0497" fill="none" stroke-width="2"/><path d="m844.96 623.65v20.912h-20.912m20.848 32.678.0497-20.912-20.912-.0497" fill="none" stroke-width="2"/><text style="fill:#fff;font-family:KaiTi;font-size:67.197;letter-spacing:0;stroke-width:2.5199;word-spacing:0" x="130.01181" y="522.7677"><tspan fill="#fff" stroke="#fff" stroke-width="2.5199" x="130.01181" y="522.7677">楚河</tspan></text><text style="fill:#fff;font-family:KaiTi;font-size:67.053;letter-spacing:0;stroke-width:2.5145;word-spacing:0" x="631.64807" y="523.88391"><tspan fill="#fff" stroke="#fff" stroke-width="2.5145" x="631.64807" y="523.88391">漢界</tspan></text></g></svg>