<svg height="540" viewBox="0 0 364 540" width="364" xmlns="http://www.w3.org/2000/svg"><path d="m0 0h363.98526v540h-363.98526z" fill="#fdd775"/><path d="m-.00000038 0v539.88774m51.99999938-539.88774v539.88774m52.000001-539.88774v539.88774m52-539.88774v539.88774m52-539.88774v539.88774m52-539.88774v539.88774m52-539.88774v539.88774m52-539.88774v539.88774m-364.00000038-539.88774h363.98526038m-363.98526038 60h363.98526038m-363.98526038 60h363.98526038m-363.98526038 60h363.98526038m-363.98526038 60h363.98526038m-363.98526038 60h363.98526038m-363.98526038 60h363.98526038m-363.98526038 60h363.98526038m-363.98526038 60h363.98526038m-363.98526038 60h363.98526038" fill="none" stroke="#000"/><circle cx="104.00002" cy="119.99999" r="4"/><circle cx="104.00002" cy="420" r="4"/><circle cx="260" cy="119.99999" r="4"/><circle cx="260" cy="420" r="4"/></svg>
