<?xml version="1.0" encoding="UTF-8" standalone="no"?>
<svg
   xmlns:dc="http://purl.org/dc/elements/1.1/"
   xmlns:cc="http://creativecommons.org/ns#"
   xmlns:rdf="http://www.w3.org/1999/02/22-rdf-syntax-ns#"
   xmlns:svg="http://www.w3.org/2000/svg"
   xmlns="http://www.w3.org/2000/svg"
   xmlns:sodipodi="http://sodipodi.sourceforge.net/DTD/sodipodi-0.dtd"
   xmlns:inkscape="http://www.inkscape.org/namespaces/inkscape"
   inkscape:version="1.0 (4035a4fb49, 2020-05-01)"
   sodipodi:docname="bA.svg"
   id="svg845"
   version="1.1"
   height="45"
   width="45">
  <metadata
     id="metadata851">
    <rdf:RDF>
      <cc:Work
         rdf:about="">
        <dc:format>image/svg+xml</dc:format>
        <dc:type
           rdf:resource="http://purl.org/dc/dcmitype/StillImage" />
        <dc:title></dc:title>
      </cc:Work>
    </rdf:RDF>
  </metadata>
  <defs
     id="defs849" />
  <sodipodi:namedview
     inkscape:current-layer="svg845"
     inkscape:window-maximized="1"
     inkscape:window-y="-8"
     inkscape:window-x="-8"
     inkscape:cy="25.114625"
     inkscape:cx="-20.150578"
     inkscape:zoom="4.6944444"
     showgrid="false"
     id="namedview847"
     inkscape:window-height="1017"
     inkscape:window-width="1920"
     inkscape:pageshadow="2"
     inkscape:pageopacity="0"
     guidetolerance="10"
     gridtolerance="10"
     objecttolerance="10"
     borderopacity="1"
     bordercolor="#666666"
     pagecolor="#ffffff" />
  <g
     transform="translate(40.750144,0.4260355)"
     id="g2731">
    <g
       id="g7037"
       transform="matrix(0.82672316,0,0,0.82672316,-39.261041,0.97341511)">
      <g
         style="stroke-width:2.70321;stroke-miterlimit:4;stroke-dasharray:none"
         transform="matrix(-0.60837538,-0.14918007,0.14918007,-0.60837538,-12.414484,26.315252)"
         id="g7043">
        <path
           sodipodi:nodetypes="cssscssscssscsssc"
           inkscape:connector-curvature="0"
           id="path7011"
           d="m -44.78937,23.428011 c 10.583091,-6.287087 9.317031,-13.396134 4.827963,-19.3089508 -2.971884,-3.91444524 -4.982227,-6.3600374 -6.010732,-9.9974413 -0.764853,-2.7049729 -1.579833,-5.5911139 -0.367318,-8.1586979 1.211123,-2.564638 4.495411,-4.824611 7.346402,-6.0605 -1.381343,3.971525 -1.91983,6.144396 -1.90897,9.242605 0.04212,12.0158681 17.715025,14.9853983 11.24112,28.974147 -2.461885,5.319616 -4.770932,6.222892 -6.002987,7.72006 -0.488807,0.593988 -0.8057,1.674992 -1.609713,2.477768 -0.323924,1.089018 -0.693719,1.159738 -0.983843,1.872184 -0.731269,1.795751 -1.916857,5.651472 -3.943424,9.100052 -7.750235,13.188465 -22.842717,-0.632875 -31.646571,5.11235 -2.952236,1.926572 -4.448141,2.918014 -6.840554,5.43223 -0.341537,-3.939814 0.680646,-8.072107 3.156125,-10.640617 1.417,-1.470252 3.519151,-2.506755 5.557988,-2.671131 5.692635,-0.458953 7.252506,1.031643 11.995933,0.980851 13.125114,-0.140541 14.033902,-1.442335 15.188581,-14.074909 z"
           style="fill:#ffd42a;fill-opacity:1;stroke:#000000;stroke-width:2.89655;stroke-linecap:butt;stroke-linejoin:round;stroke-miterlimit:4;stroke-dasharray:none;stroke-opacity:1" />
        <path
           sodipodi:nodetypes="ccc"
           inkscape:connector-curvature="0"
           id="path7026"
           d="m -45.996129,-10.153971 -40.645463,8.7190789 11.386508,39.3179631"
           style="fill:none;stroke:#000000;stroke-width:2.70321;stroke-linecap:butt;stroke-linejoin:miter;stroke-miterlimit:4;stroke-dasharray:none;stroke-opacity:1" />
        <path
           sodipodi:nodetypes="cc"
           inkscape:connector-curvature="0"
           id="path7028"
           d="M -87.383881,-2.0626862 -33.757224,30.115606"
           style="fill:none;stroke:#000000;stroke-width:2.70321;stroke-linecap:butt;stroke-linejoin:miter;stroke-miterlimit:4;stroke-dasharray:none;stroke-opacity:1" />
        <path
           sodipodi:nodetypes="ccccc"
           inkscape:connector-curvature="0"
           id="path7030"
           d="m -33.757224,30.115606 -0.152441,3.622242 9.95057,2.6798 -6.489361,-7.775959 -3.308768,1.473917"
           style="fill:#000000;fill-opacity:1;stroke:#000000;stroke-width:2.70321;stroke-linecap:butt;stroke-linejoin:round;stroke-miterlimit:4;stroke-dasharray:none;stroke-opacity:1" />
      </g>
    </g>
    <path
       style="fill:#ffd42a;fill-opacity:1;stroke:#000000;stroke-width:1.5;stroke-linecap:butt;stroke-linejoin:round;stroke-miterlimit:4;stroke-dasharray:none;stroke-opacity:1"
       d="m -10.011834,30.301775 -0.05326,2.715976 3.9408286,3.940829 v -2.822485 h 2.5029586 L -7.535503,30.221893 Z"
       id="path2722" />
  </g>
</svg>
