<?xml version="1.0" encoding="UTF-8" standalone="no"?>
<svg
   xmlns:dc="http://purl.org/dc/elements/1.1/"
   xmlns:cc="http://creativecommons.org/ns#"
   xmlns:rdf="http://www.w3.org/1999/02/22-rdf-syntax-ns#"
   xmlns:svg="http://www.w3.org/2000/svg"
   xmlns="http://www.w3.org/2000/svg"
   xmlns:sodipodi="http://sodipodi.sourceforge.net/DTD/sodipodi-0.dtd"
   xmlns:inkscape="http://www.inkscape.org/namespaces/inkscape"
   width="45"
   height="45"
   version="1.1"
   id="svg12832"
   sodipodi:docname="bB.svg"
   inkscape:version="1.0.1 (3bc2e813f5, 2020-09-07)">
  <metadata
     id="metadata12838">
    <rdf:RDF>
      <cc:Work
         rdf:about="">
        <dc:format>image/svg+xml</dc:format>
        <dc:type
           rdf:resource="http://purl.org/dc/dcmitype/StillImage" />
        <dc:title></dc:title>
      </cc:Work>
    </rdf:RDF>
  </metadata>
  <defs
     id="defs12836" />
  <sodipodi:namedview
     pagecolor="#ffffff"
     bordercolor="#666666"
     borderopacity="1"
     objecttolerance="10"
     gridtolerance="10"
     guidetolerance="10"
     inkscape:pageopacity="0"
     inkscape:pageshadow="2"
     inkscape:window-width="1678"
     inkscape:window-height="1767"
     id="namedview12834"
     showgrid="false"
     inkscape:zoom="15.839192"
     inkscape:cx="18.875631"
     inkscape:cy="27.590281"
     inkscape:window-x="6709"
     inkscape:window-y="1097"
     inkscape:window-maximized="0"
     inkscape:current-layer="svg12832" />
  <g
     fill="none"
     fill-rule="evenodd"
     stroke="#000"
     stroke-width="1.5"
     stroke-linecap="round"
     stroke-linejoin="round"
     id="g12830">
    <g
       fill="#fff"
       stroke-linecap="butt"
       id="g12826">
      <path
         d="M9 36c3.39-.97 10.11.43 13.5-2 3.39 2.43 10.11 1.03 13.5 2 0 0 1.65.54 3 2-.68.97-1.65.99-3 .5-3.39-.97-10.11.46-13.5-1-3.39 1.46-10.11.03-13.5 1-1.354.49-2.323.47-3-.5 1.354-1.94 3-2 3-2z"
         id="path12820"
         style="fill:#ffd42a;fill-opacity:1" />
      <path
         d="M15 32c2.5 2.5 12.5 2.5 15 0 .5-1.5 0-2 0-2 0-2.5-2.5-4-2.5-4 5.5-1.5 6-11.5-5-15.5-11 4-10.5 14-5 15.5 0 0-2.5 1.5-2.5 4 0 0-.5.5 0 2z"
         id="path12822"
         style="fill:#ffd42a;fill-opacity:1" />
      <path
         d="M25 8a2.5 2.5 0 1 1-5 0 2.5 2.5 0 1 1 5 0z"
         id="path12824"
         style="fill:#ffd42a;fill-opacity:1" />
    </g>
    <path
       d="M17.5 26h10M15 30h15m-7.5-14.5v5M20 18h5"
       stroke-linejoin="miter"
       id="path12828" />
  </g>
</svg>
