<?xml version="1.0" encoding="UTF-8" standalone="no"?>
<svg
   xmlns:dc="http://purl.org/dc/elements/1.1/"
   xmlns:cc="http://creativecommons.org/ns#"
   xmlns:rdf="http://www.w3.org/1999/02/22-rdf-syntax-ns#"
   xmlns:svg="http://www.w3.org/2000/svg"
   xmlns="http://www.w3.org/2000/svg"
   xmlns:sodipodi="http://sodipodi.sourceforge.net/DTD/sodipodi-0.dtd"
   xmlns:inkscape="http://www.inkscape.org/namespaces/inkscape"
   width="45"
   height="45"
   version="1.1"
   id="svg11575"
   sodipodi:docname="bN.svg"
   inkscape:version="1.0.1 (3bc2e813f5, 2020-09-07)">
  <metadata
     id="metadata11581">
    <rdf:RDF>
      <cc:Work
         rdf:about="">
        <dc:format>image/svg+xml</dc:format>
        <dc:type
           rdf:resource="http://purl.org/dc/dcmitype/StillImage" />
        <dc:title></dc:title>
      </cc:Work>
    </rdf:RDF>
  </metadata>
  <defs
     id="defs11579" />
  <sodipodi:namedview
     pagecolor="#ffffff"
     bordercolor="#666666"
     borderopacity="1"
     objecttolerance="10"
     gridtolerance="10"
     guidetolerance="10"
     inkscape:pageopacity="0"
     inkscape:pageshadow="2"
     inkscape:window-width="1678"
     inkscape:window-height="1767"
     id="namedview11577"
     showgrid="false"
     inkscape:zoom="15.839192"
     inkscape:cx="14.025343"
     inkscape:cy="17.440985"
     inkscape:window-x="6709"
     inkscape:window-y="1097"
     inkscape:window-maximized="0"
     inkscape:current-layer="svg11575" />
  <g
     fill="none"
     fill-rule="evenodd"
     stroke="#000"
     stroke-width="1.5"
     stroke-linecap="round"
     stroke-linejoin="round"
     id="g11573">
    <path
       d="M22 10c10.5 1 16.5 8 16 29H15c0-9 10-6.5 8-21"
       fill="#fff"
       id="path11567"
       style="fill:#ffd42a;fill-opacity:1" />
    <path
       d="M24 18c.38 2.91-5.55 7.37-8 9-3 2-2.82 4.34-5 4-1.042-.94 1.41-3.04 0-3-1 0 .19 1.23-1 2-1 0-4.003 1-4-4 0-2 6-12 6-12s1.89-1.9 2-3.5c-.73-.994-.5-2-.5-3 1-1 3 2.5 3 2.5h2s.78-1.992 2.5-3c1 0 1 3 1 3"
       fill="#fff"
       id="path11569"
       style="fill:#ffd42a;fill-opacity:1" />
    <path
       d="M9.5 25.5a.5.5 0 1 1-1 0 .5.5 0 1 1 1 0zm5.433-9.75a.5 1.5 30 1 1-.866-.5.5 1.5 30 1 1 .866.5z"
       fill="#000"
       id="path11571" />
  </g>
</svg>
