<?xml version="1.0" encoding="utf-8"?>
<!-- Generator: Adobe Illustrator 24.0.2, SVG Export Plug-In . SVG Version: 6.00 Build 0)  -->
<svg version="1.1" id="Capa_1" xmlns="http://www.w3.org/2000/svg" xmlns:xlink="http://www.w3.org/1999/xlink" x="0px" y="0px"
	 viewBox="0 0 45 45" style="enable-background:new 0 0 45 45;" xml:space="preserve">
<style type="text/css">
	
		.st0{fill-rule:evenodd;clip-rule:evenodd;fill:#FFD42A;stroke:#1F1A17;stroke-width:1.5;stroke-linecap:round;stroke-linejoin:round;}
	
		.st1{opacity:0.98;fill-rule:evenodd;clip-rule:evenodd;fill:#FFD42A;stroke:#1F1A17;stroke-width:1.5;stroke-linecap:round;stroke-linejoin:round;enable-background:new    ;}
	.st2{fill:none;stroke:#1F1A17;stroke-width:1.4577;stroke-linecap:round;stroke-linejoin:round;}
</style>
<g>
	<g transform="translate(.008287)">
		<path class="st0" d="M33,5.6l-0.1,10.2l-3.2-3.1"/>
		<path class="st0" d="M12,5.6l0.1,10.2l3.2-3.1"/>
	</g>
	<path class="st0" d="M15.6,31.3c1.9-12.5,2.7-15.5-3.3-25.9c7.4-0.7,12.9-0.7,20.3,0c-5.9,10.4-5.2,13.4-3.3,25.9
		C26,31.6,19.1,31.6,15.6,31.3z"/>
	<path class="st0" d="M35.9,39c0-4.5-2.3-7.3-3.8-8.2c-4.3,0.8-14.9,0.8-19.2,0c-1.5,0.9-3.8,3.7-3.8,8.2C13.5,40,31.5,40.1,35.9,39
		z"/>
	<path class="st1" d="M22.5,9.3c3.5-0.1,3.5,7.9,0,7.9C19,17.2,19,9.2,22.5,9.3z"/>
</g>
<path class="st2" d="M19.4,31.1l3.1-4.5l3.2,4.5"/>
</svg>
