<svg height="45" width="45" xmlns="http://www.w3.org/2000/svg"><g stroke="#000" transform="translate(40.750144 .426036)"><g stroke-width="2.70321" transform="matrix(-.50295802 -.12333062 .12333062 -.50295802 -49.524382 22.728843)"><path d="m-44.78937 23.428011c10.583091-6.287087 9.317031-13.396134 4.827963-19.3089508-2.971884-3.91444524-4.982227-6.3600374-6.010732-9.9974413-.764853-2.7049729-1.579833-5.5911139-.367318-8.1586979 1.211123-2.564638 4.495411-4.824611 7.346402-6.0605-1.381343 3.971525-1.91983 6.144396-1.90897 9.242605.04212 12.0158681 17.715025 14.9853983 11.24112 28.974147-2.461885 5.319616-4.770932 6.222892-6.002987 7.72006-.488807.593988-.8057 1.674992-1.609713 2.477768-.323924 1.089018-.693719 1.159738-.983843 1.872184-.731269 1.795751-1.916857 5.651472-3.943424 9.100052-7.750235 13.188465-22.842717-.632875-31.646571 5.11235-2.952236 1.926572-4.448141 2.918014-6.840554 5.43223-.341537-3.939814.680646-8.072107 3.156125-10.640617 1.417-1.470252 3.519151-2.506755 5.557988-2.671131 5.692635-.458953 7.252506 1.031643 11.995933.980851 13.125114-.140541 14.033902-1.442335 15.188581-14.074909z" fill="#fff" stroke-linejoin="round" stroke-width="2.89655"/><g stroke-width="2.70321"><path d="m-45.996129-10.153971-40.645463 8.7190789 11.386508 39.3179631" fill="none"/><path d="m-87.383881-2.0626862 53.626657 32.1782922" fill="none"/><path d="m-33.757224 30.115606-.152441 3.622242 9.95057 2.6798-6.489361-7.775959z" stroke-linejoin="round"/></g></g><path d="m-10.011834 30.301775-.05326 2.715976 3.9408286 3.940829v-2.822485h2.5029586l-3.9141962-3.914202z" fill="#fff" stroke-linejoin="round" stroke-width="1.5"/></g></svg>