<svg height="45" width="45" xmlns="http://www.w3.org/2000/svg"><g stroke="#000" stroke-linejoin="round" transform="translate(-42.41424 1.658986)"><g stroke-width="1.8666" transform="matrix(-.80360207 0 0 .80360207 51.743793 -2.057947)"><path d="m-33.341482 7.3481511c-1.851288 1.8280395-5.085662 3.0240319-2.498332 11.7139289 2.598331 8.726844 2.469529 11.012435 2.640115 13.887507.09933 1.674097-.803796 4.228033-1.364365 5.401411-.684927.738402-.73666 1.278228-.894128 1.781952.773353.456546 1.699071-.76773 2.692405-1.910666 4.524038-5.205382 3.253956-9.212176 3.627386-19.864742.133702-3.814036 5.223673-5.883918 8.139179-1.273777 1.19366-.906392 2.932489-2.259748 5.176173-3.371919-.235972-10.6165179-14.94891-8.900951-17.518433-6.3636949z"/><g fill="#fff"><path d="m-15.823049 13.711846c-8.997651 4.748722-10.294025 10.611865-9.891404 15.850565 3.314919-1.802247 7.136138-3.309793 12.210443-4.087981 3.849297-.421056 8.3372316.229578 12.1865274 1.865265 1.45135284.08704 2.6660938-.02612 4.1174608-.347092.5935041-.385658.5320641-.462791.5206033-.848449l-2.1770434-1.118409c-.47615333-.347733-1.43388872-.703171-2.00434206-1.675206-2.28959734-3.901262-7.51884734-9.91644-14.96224504-9.638693z"/><path d="m-2.8948922 29.829566c-3.3460568-1.248858-14.5565848-2.016622-22.0184188 2.527437-.607376 5.658152 1.780647 11.870654-2.552256 16.06411 8.149139 2.316799 11.339226-4.775666 13.564266-8.952638.676365 1.056106 2.168804 4.79081-.114509 7.378565 4.88054-2.125081 8.3640305-2.176909 11.2411138-4.553628z"/></g></g><path d="m55.524194 13.116359c.708525.24208 1.417051.491495 2.125576 2.488479 1.207876-1.367008 2.710959-2.606136 5.028801-2.384792 2.171873.207404 3.436903 2.122868 4.302996 3.473502 1.11851-.889272 2.458723-1.40904 3.991935-1.607143" fill="none" stroke-width="1.5"/></g></svg>