<?xml version="1.0" encoding="UTF-8" standalone="no"?>
<!-- Created with Inkscape (http://www.inkscape.org/) -->

<svg
   width="30mm"
   height="34mm"
   viewBox="0 0 30 34"
   version="1.1"
   id="svg1"
   xmlns="http://www.w3.org/2000/svg"
   xmlns:svg="http://www.w3.org/2000/svg">
  <defs
     id="defs1">
    <clipPath
       clipPathUnits="userSpaceOnUse"
       id="clipPath1674">
      <path
         d="M 0,2834.646 H 2834.646 V 0 H 0 Z"
         transform="translate(-1170.7737,-1476.2824)"
         id="path1674" />
    </clipPath>
  </defs>
  <g
     id="layer1">
    <path
       id="path5321"
       d="m 0,0 -22.28,7.578 c -0.3,0.102 -0.625,0.102 -0.924,0 L -45.484,0 c -0.502,-0.171 -0.868,-0.604 -0.949,-1.125 l -10.308,-66.12 c -0.134,-0.86 0.535,-1.636 1.411,-1.636 h 32.588 32.588 c 0.875,0 1.545,0.776 1.41,1.636 L 0.948,-1.125 C 0.867,-0.604 0.502,-0.171 0,0"
       style="font-variation-settings:normal;fill:#ffffff;fill-opacity:0.501961;fill-rule:nonzero;stroke:#000000;stroke-width:0;stroke-linecap:butt;stroke-linejoin:miter;stroke-miterlimit:10;stroke-dasharray:none;stroke-dashoffset:0;stroke-opacity:1;stop-color:#000000"
       transform="matrix(0.33219911,0,0,-0.33709845,22.555042,6.6803862)"
       clip-path="url(#clipPath1674)" />
    <text
       xml:space="preserve"
       style="font-size:20.9672px;line-height:0.9;font-family:KaiTi;-inkscape-font-specification:KaiTi;text-align:center;text-decoration-color:#000000;text-anchor:middle;fill:#000000;fill-opacity:1;stroke:none;stroke-width:0.599996;stroke-miterlimit:10;stroke-opacity:1;-inkscape-stroke:none"
       x="15.21619"
       y="24.780525"
       id="text5319"><tspan
         x="15.21619"
         y="24.780525"
         style="font-style:normal;font-variant:normal;font-weight:normal;font-stretch:normal;line-height:0.9;font-family:sans-serif;-inkscape-font-specification:sans-serif;fill:#000000;fill-opacity:1;stroke-width:0.599996"
         id="tspan5319">?</tspan></text>
    <path
       id="path5320"
       d="m 0,0 -22.28,7.578 c -0.3,0.102 -0.625,0.102 -0.924,0 L -45.484,0 c -0.502,-0.171 -0.868,-0.604 -0.949,-1.125 l -10.308,-66.12 c -0.134,-0.86 0.535,-1.636 1.411,-1.636 h 32.588 32.588 c 0.875,0 1.545,0.776 1.41,1.636 L 0.948,-1.125 C 0.867,-0.604 0.502,-0.171 0,0"
       style="font-variation-settings:normal;fill:none;fill-opacity:0.501961;fill-rule:nonzero;stroke:#000000;stroke-width:3.40157;stroke-linecap:butt;stroke-linejoin:miter;stroke-miterlimit:10;stroke-dasharray:6.80315, 3.40157;stroke-dashoffset:0;stroke-opacity:1;stop-color:#000000"
       transform="matrix(0.35277776,0,0,-0.35277776,23.02301,6.2003262)"
       clip-path="url(#clipPath1674)" />
  </g>
</svg>
