<svg height="45" width="45" xmlns="http://www.w3.org/2000/svg"><g stroke="#000"><path d="m14.827901 26.613205c-1.036574.674607-2.274904 1.080206-2.541577 2.781348-1.066277 1.1864-2.235649 2.295478-2.253852 4.267933l1.816446-.109958s-.617588 1.452677-.377818 1.452677c.239771 0 1.246812.527497 1.246812.527497l-.679588.625815c.475122.656878-.08557 1.847547 1.111176 2.34735l2.445669.191817-.04796 2.302278 9.638811-.000472.287726-1.198857-4.016365-1.837403.697632-9.639702z" fill="#80bc57" stroke-width="1.5"/><path d="m25.342541 28.678931 3.017884-6.340946c-3.744274-2.015425-7.878706-3.414924-12.037625-3.560424l-1.494899 7.835644z" fill="#80bc57" stroke-width="1.5"/><path d="m25.749446 29.357108c.04365 2.378585-.362381 4.244033.16501 6.863084.477914.415288 1.098415.594277 1.666066.291671 0 0-.175544-1.835812.508633-2.237982.431394-.25358 1.287258-.0065 1.42417.474724.11241.395167-.27682 1.704563-.03391 1.898893 0 0 1.424169.644268 1.424169.881629s-.50741 1.612387-1.390259 2.136256c-1.257731.746318-4.039577.135246-4.039577.135246-1.608728-.390762-3.151338-.847642-4.378124-1.620346l.866538-9.31155z" fill="#80bc57" stroke-width="1.5"/><path d="m27.517526 21.755717s1.423042-2.498759 1.622802-2.537342c2.275537-.439533 2.410265 13.397506 2.407526 14.580785.371251.719969.937178 1.333052 1.525896.678178l.712084-1.898893 1.186808 2.678795c1.128527.980421 1.874724 1.137362 1.831074-.406905l-.271269-2.03453 1.118991 2.03453c.609409.425871 1.331121 1.282237 1.424169-.271272-.06781-.745993-.02146-1.149487-.203453-2.237981l1.559806 2.136256c1.022553 1.140873 1.141768.475069 1.186808-.33909.763048-10.058464-.846012-22.939912-8.138111-26.347139 0 0-2.343196-1.188999-5.15414-.678177-1.399808.254382-4.692311 4.644818-4.692311 4.644818.06199-1.333566-.628408-5.768236-5.249338-6.552683-2.970219-.504223-5.851193-.504309-5.773441-.309932-4.2203816.2938308-7.4968503.5389754-8.8572452 2.8456274-.4107471.6964525-.0159489 2.6661066.0154397 2.7789906.5182978-.013947 2.0972041-2.3610616 7.5281205-2.5973621-1.9725358.089438-3.0302391.2306334-5.7415237 2.2646671-1.695763 2.144843.2505064 2.464865 1.1353394 2.201152l5.2077853-2.542384c-1.825466.939525-3.1851349 2.328845-4.3630079 3.754064-.112467.04325.4493134 2.399831 1.5023634 1.95391.88531-.374891 2.1422755-3.451038 4.9029325-2.986574 2.431585.4091 4.189113 5.999164 2.788361 6.306248 3.810615.24408 7.487978 1.10498 10.787534 2.882243z" fill="#80bc57" stroke-width="1.5"/><path d="m29.479418 36.647502s-.746149 1.430482-1.44137 1.725441c-2.009207.227369-3.373317-.414353-4.533828-1.583946l.329342-7.122715" fill="none" stroke-width="1.14599"/><path d="m33.785834 32.578445s1.125065-12.428031-2.577067-16.106683c-.469436-.466457-1.504871-.793184-2.102348-.508632-1.588909.756731-3.055063 5.148686-3.255246 4.81505" fill="none" stroke-width="1.4"/><path d="m36.600264 33.324435s1.041545-15.616669-3.729967-19.463652c-.932888-.752131-2.652862-1.44073-3.729969-.915542-2.094451 1.021236-5.289775 6.917397-5.289775 6.917397" fill="none" stroke-width="1.4"/><path d="m38.872154 32.341082s1.071602-16.456331-4.47596-20.95564c-1.487912-1.20676-5.296897-2.144925-6.578309-.983359-2.551304 2.312682-5.730589 9.053649-5.730589 9.053649" fill="none" stroke-width="1.4"/><path d="m11.058156 7.976191s1.717638-.502523 4.647963.043259c2.132228.397134 3.594948 1.013776 4.769662 2.837005 1.41639 2.198325.296112 8.267042.296112 8.267042" fill="none" stroke-width="1.4"/><path d="m10.420989 10.482161c1.841451-.890461 1.658624-.710531 3.417689-.776291 1.629085-.0609 3.114818.712573 4.12549 2.115851 1.386786 1.925501 1.186808 7.019122 1.186808 7.019122" fill="none" stroke-width="1.4"/><ellipse cx="15.524669" cy="30.11865" fill="#80bc57" rx="1.04172" ry=".220971" stroke-linecap="square" stroke-width="1.4"/><path d="m14.801079 24.519491c4.075601.345822 7.717504 1.55904 11.294643 2.901785" fill="none"/><ellipse cx="-24.25746" cy="26.847857" rx="3.153519" ry="2.746613" stroke-linecap="square" stroke-width="1.5" transform="scale(-1 1)"/><path d="m15.9375 21.026786c4.075601.345822 7.717504 1.55904 11.294643 2.901785" fill="none"/></g><path d="m19.995573 18.468667-.116033-.01348-.02732-1.147239c-.05327-2.237133-.355958-3.99445-.89671-5.206012-.323241-.724225-1.161469-1.682527-1.906989-2.18016-.7013-.4681156-1.468458-.7668359-2.270541-.8841159-.572727-.083744-2.504305-.029144-2.969944.083951-.363475.088281-1.167286.4279846-1.651786.6980711-.147321.082125-1.0611411.534922-2.0307104 1.006215l-1.7628533.856896-.3211958-.01622c-.1766578-.0089-.3358113-.03084-.3536744-.0487-.054335-.05434.062655-.353894.2390698-.612155.1835002-.268634.3705018-.422885 1.1043641-.91095 1.3612445-.9053138 2.1556161-1.2185398 3.356793-1.3236054.314478-.027507.792761-.093745 1.06285-.1471964.432948-.085681.633738-.096963 1.696428-.095317 1.003688.00155 1.306286.017745 1.808596.096771 2.140185.3367066 3.285048.8073912 4.180818 1.7188488 1.04202 1.06027 1.315626 1.956358 1.312788 4.299533-.000684.565254-.02191 1.278424-.04716 1.584822-.0633.768027-.228048 2.154624-.262449 2.208873-.01557.02455-.08052.03858-.144343.03117z" fill="#517f33" stroke-dasharray=".133929 .066964" stroke-linejoin="round" stroke-width=".044643"/><path d="m37.82999 33.563797-.434374-.788881-.0066-2.927637c-.0067-2.954827-.02786-3.524237-.205018-5.516922-.421151-4.737167-1.391959-8.077969-2.928161-10.076557-.997738-1.298051-2.684189-2.187264-4.166511-2.196871-.756137-.0049-1.186917.131883-1.804444.572955-1.174445.838857-2.917598 3.131625-4.578844 6.022552-.309671.538894-.335409.570433-.443708.543716-.06323-.0156-.132523-.0455-.153978-.06645-.04347-.04243.652992-1.418268 1.356712-2.680136 1.344637-2.411124 2.744078-4.452754 3.643355-5.315251.411058-.394247.660725-.48958 1.363381-.520599 1.34625-.05943 3.108612.429762 4.238725 1.176575.162419.107332.487971.395877.723449.641211 1.720927 1.792961 2.895488 5.240908 3.445094 10.113137.270634 2.399162.352564 4.2437.32661 7.353201-.01795 2.150213-.01277 2.400635.05012 2.424877.05951.02294.05661.03434-.01915.07526-.04911.02652-.09531.05296-.102678.05875-.0074.0058.01689.289101.0539.629577.06227.57282.109609 1.266369.08643 1.266369-.0054 0-.205371-.354997-.444277-.788882z" fill="#517f33" stroke-dasharray=".133929 .066964" stroke-linejoin="round" stroke-width=".044643"/><path d="m32.402296 33.720017c-.05452-.08344-.07392-.346069-.09835-1.331624-.173581-7.002254-.749049-11.453917-1.682658-13.016574-.197902-.331244-.510829-.653187-.758859-.780722-.298988-.153737-.816778-.174306-1.087597-.04321-.282252.136636-.639387.625162-1.409153 1.927587l-.149094.252264-.148471-.0708c-.08166-.03894-.148471-.09659-.148471-.128111 0-.09068.930118-1.907101 1.250213-2.441525.372179-.621383.815033-1.171945 1.095668-1.362148.20666-.140066.239442-.148398.502498-.127716.385618.03032.788662.233573 1.062099.535618 1.324245 1.462793 2.111666 4.504273 2.342983 9.049975.0586 1.151506.03134 4.526172-.04438 5.494648-.04118.52675-.06084.606962-.316641 1.292171-.339313.908903-.324178.881195-.409792.750162z" fill="#517f33" stroke-dasharray=".133929 .066964" stroke-linejoin="round" stroke-width=".044643"/><path d="m20.3125 24.973035c-1.008296-.279691-2.619387-.606482-4.065325-.824605l-.159075-.024.235629-1.231032c.129596-.677068.246886-1.24229.260645-1.256049.04224-.04224 1.717258.21063 2.647318.399661 1.350877.274561 2.900999.6874 4.384379 1.167678.371452.120265.383674.109157-.24573.223337-.425484.07719-.867725.247141-1.292432.496685-.338136.198677-.921861.725168-1.118339 1.008686-.06792.09801-.135833.176285-.150909.173936-.01508-.0023-.238348-.06278-.496161-.1343z" fill="#517f33" stroke-dasharray=".133929 .066964" stroke-linejoin="round" stroke-width=".044643"/><path d="m26.428571 23.074082c-.78572-.302547-3.054085-1.056984-3.928571-1.306606-1.944115-.554949-3.747508-.940244-5.257376-1.123237-.2513-.03046-.45691-.07622-.45691-.101703 0-.02548.0334-.233309.07422-.461842.05928-.331913.08946-.415515.149995-.415515.433763 0 2.654493.290328 3.417107.446737 1.368727.28072 3.480636.988045 5.131001 1.718484.500896.221693 1.709352.806876 1.75747.851038.03745.03437-.26203.599422-.315393.59507-.03198-.0026-.289175-.0937-.571542-.202426z" fill="#517f33" stroke-dasharray=".133929 .066964" stroke-linejoin="round" stroke-width=".044643"/><path d="m17.991071 26.448912c-1.215401-.241871-2.222288-.440819-2.237526-.442107-.02451-.0021.122015-.803496.152469-.83395.0227-.0227 1.18502.16009 1.892325.297588.388369.0755 1.133561.240644 1.655982.366991l.949856.229722-.02565.269993c-.0426.448394-.06755.560375-.123855.555851-.02958-.0024-1.048201-.202217-2.263603-.444088z" fill="#80bc57" stroke-dasharray=".133929 .066964" stroke-linejoin="round" stroke-width=".044643"/><path d="m20.022321 24.880819c-.746897-.197345-2.577137-.570812-3.381696-.690048-.297466-.04408-.523515-.09834-.522154-.125326.0013-.02617.106788-.569909.234375-1.208302l.231975-1.160714.160738-.01346c.20102-.01683 1.421334.169469 2.45087.374162 1.232344.245016 3.571105.867598 4.486607 1.194343l.178571.06373-.178571.03107c-.881351.153338-1.510817.431818-2.100385.929223-.219788.18543-.479576.439367-.577306.564305s-.208221.225088-.245536.222554c-.03731-.0025-.369184-.08423-.737488-.181539z" fill="#80bc57" stroke-dasharray=".133929 .066964" stroke-linejoin="round" stroke-width=".044643"/><path d="m26.495536 23.075797c-.72829-.280001-3.28763-1.125068-4.163536-1.374756-1.580756-.450615-3.385216-.842722-4.742714-1.030586-.282366-.03908-.570994-.08247-.641396-.09643l-.128003-.02538.03033-.268123c.01668-.147468.0542-.340589.08336-.429159.05233-.158936.05593-.160882.276239-.149319.830925.04361 2.96425.363899 3.794643.569712 1.171548.290369 2.988716.910227 4.233313 1.444035.823232.353084 2.039009.950824 2.039009 1.002484 0 .113614-.24235.518132-.30864.515166-.03895-.0017-.251628-.07268-.47261-.157641z" fill="#80bc57" stroke-dasharray=".133929 .066964" stroke-linejoin="round" stroke-width=".044643"/><path d="m19.924163 24.841965c-.78273-.197401-1.897668-.429301-2.975507-.618887-.41373-.07277-.763997-.144074-.77837-.158447-.02273-.02273.371261-2.141092.425932-2.290077.03127-.08521.397222-.06855 1.171639.05334 1.652171.260047 3.691073.744996 5.491072 1.30604l.513392.16002-.506183.12483c-.852009.210115-1.477321.578916-2.144679 1.264906-.217898.223982-.361486.337067-.424107.334012-.05207-.0025-.400005-.08162-.773189-.175738z" fill="#517f33" stroke-dasharray=".133929 .066964" stroke-linejoin="round" stroke-width=".044643"/></svg>