<svg height="45" width="45" xmlns="http://www.w3.org/2000/svg"><g stroke="#000" transform="matrix(1.1514001 0 0 1.1514001 -52.559324 -7.692078)"><g fill="#80bc57"><path d="m69.726382 27.584634c1.265677-3.740973 7.315329-3.893965 11.62946-5.348597-5.391069-3.639667-11.862825-6.537216-16.166229-6.581508-4.303404.04429-10.77516 2.941841-16.166229 6.581508 4.314131 1.454632 10.363783 1.607624 11.62946 5.348597" stroke-width="1.302762"/><g stroke-width="1.820366" transform="matrix(.71565912 0 0 .71565912 2.952829 7.145478)"><path d="m82.142858 36.607143-8.392857 7.232143c3.453582 3.316315 7.554904 5.267857 13.214286 5.267857s9.760704-1.951542 13.214283-5.267857l-8.392854-7.232143"/><ellipse cx="86.964287" cy="31.25" rx="7.142857" ry="9.285714" stroke-linecap="square"/></g><path d="m66.010362 30.029457 2.146574-7.197337-2.967323-3.282996-2.967323 3.282996 2.146574 7.197337h.820749z" stroke-width="1.302762"/></g><g fill="none" stroke-width=".868508"><path d="m57.745536 17.544643c3.689995.997786 4.403762 3.535 4.6875 6.294643"/><path d="m72.729106 17.544643c-3.689995.997786-4.403762 3.535-4.6875 6.294643"/><path d="m57.29459 37.045049c5.053552 3.20185 10.28905 3.856466 15.846768 0"/></g></g><g stroke-width=".053763"><path d="m16.636403 21.635239c-.257869-.270816-1.091144-.879527-1.600879-1.169448-1.443996-.8213-2.972114-1.30836-7.2789802-2.320041-.8938472-.209964-1.714606-.412714-1.8239085-.450556l-.1987318-.0688.7755213-.475623c2.0605005-1.263694 5.0977762-2.857119 6.9583172-3.650494l.806452-.343888.339362.127645c.819227.308135 1.575876.756079 2.120497 1.255352.799088.732554 1.428722 1.886156 1.726762 3.16374l.07569.324433-.159812.19388-.159813.19388.159141.533809.15914.533809-.132903.124125c-.413617.386295-1.385725 1.746446-1.495586 2.092587-.04398.138578-.08667.128405-.270264-.06441z" fill="#80bc57"/><path d="m16.478495 21.499744c-.414295-.380662-1.312657-.985529-1.903467-1.281605-1.388413-.695781-2.8553-1.141635-6.8184842-2.072446-.8938472-.209933-1.714606-.412657-1.8239085-.450499l-.1987318-.0688.7755213-.475623c1.3447393-.824722 2.7721634-1.62044 4.1995082-2.341018 1.533388-.774113 3.396969-1.621446 3.569888-1.623157.197595-.002 1.224021.466725 1.692404.772774.249429.162981.592701.423961.762828.579956.799193.732807 1.42873 1.886255 1.726762 3.1638l.07569.324433-.15728.190808-.157279.190807.152767.526597.152766.526598-.398655.456761c-.40684.46614-1.000646 1.317606-1.171853 1.680335-.05234.110887-.108825.200502-.125526.199144-.0167-.0014-.175526-.135846-.352945-.298862z" fill="#528033"/><path d="m28.093333 21.699646c-.109861-.346141-1.081969-1.706292-1.495586-2.092587l-.132903-.124125.158462-.531533.158461-.531532-.115414-.156107-.115415-.156107.139087-.550201c.515649-2.03981 1.614192-3.341302 3.500534-4.147236.272-.116211.532238-.211293.578305-.211293.14895 0 2.124092.903695 3.532211 1.616107 2.160363 1.092996 5.032688 2.767548 4.885536 2.848243-.04054.02223-.763224.202781-1.605966.401222-3.692041.869369-5.113253 1.268571-6.327712 1.777385-1.102883.462066-1.895442.936601-2.642515 1.582171-.239966.207362-.447235.377022-.460597.377022-.01336 0-.03878-.04564-.05649-.101429z" fill="#528033"/><path d="m21.586022 33.043357c-.807678-.219136-1.368153-.546826-2.042368-1.1941-1.213803-1.165299-1.982322-2.945015-2.116662-4.901711-.115287-1.679176.180373-3.195134.891972-4.573471.22878-.443137.698591-1.14456.738396-1.102418.0097.01027.420692 1.373504.91332 3.029418.492629 1.655914.920374 3.089382.950545 3.185484l.05486.174731h1.523915 1.523919l.05534-.174731c.03044-.0961.458182-1.52957.950545-3.185484s.903139-3.019152.912836-3.029418c.03999-.04234.510156.660314.741315 1.107882 1.011907 1.959238 1.197059 4.514439.483567 6.673494-.629845 1.905933-1.978508 3.420308-3.484727 3.912898-.588913.192597-1.542503.227809-2.096774.07743z" fill="#385823"/><path d="m21.55914 33.006079c-.424742-.112387-1.102739-.450488-1.488396-.742228-2.568205-1.942784-3.41534-6.342926-1.851243-9.615635.231409-.4842.729567-1.277248.802311-1.277248.02502 0 .46704 1.415107.982268 3.144682l.93678 3.144683 1.55914.000082 1.55914.000082.936914-3.144764c.515304-1.729621.957324-3.144765.982269-3.144765.02494 0 .167903.1875.317687.416666 1.508094 2.307367 1.692378 5.683582.44741 8.19689-.775362 1.565279-1.984769 2.669188-3.290003 3.00301-.49509.126623-1.450473.135976-1.894277.01855z" fill="#3d6026" stroke-dasharray=".16129 .080645" stroke-linejoin="round"/></g></svg>