<svg height="45" width="45" xmlns="http://www.w3.org/2000/svg"><path d="m70.035274 44.038386c-.776783 1.752435.756269 2.882784 2.521688 3.638071-.460869-.943188-.58636-2.096712.182034-2.096489 3.992575.0012 4.838657-1.290017 6.021389-2.09324 3.373409-.284963 4.837743.702448 6.468345 1.000304 3.567758.651708 3.464576 3.830761 2.709372 7.248196-5.86098 3.488589-7.989552 7.362033-7.116352 11.809667l28.57973-.21175c-3.18819-7.410485 6.22815-20.5325-2.10157-21.332014-1.62939-4.495092-5.35835-7.986728-9.792595-9.756007-1.966177-.784511-7.632607-1.800098-10.295947-1.660523-3.482823.18252-7.817452 3.471906-14.391257 8.326803-2.263037 1.671301-2.459646 3.292629-2.784837 5.126982z" fill="#80bc57" stroke="#000" stroke-linejoin="round" stroke-width="1.8442" transform="matrix(.73466667 0 0 .90048402 -42.827324 -18.189777)"/><path d="m20.612658 16.149559c-1.571662-.177038-2.946813-3.015068.000023-2.926573 2.478191.139665 2.744017 3.062756-.000023 2.926573z" stroke-width="2.36645"/><g fill="none" stroke="#000"><path d="m11.392286 16.222872c3.113175 1.091465 3.384738 3.162796 3.739193 5.205544" stroke-width="1.5"/><path d="m36.287482 19.709335c-5.2102-.215825-10.614694 2.898538-14.847807 9.054811" stroke-width="1.5"/><path d="m10.200066 23.010301c1.070683-1.883.876637-3.059004 3.931644-4.346707" stroke-width="1.4"/><path d="m20.820475 17.014909c-2.738358-.308459-5.134329-5.253251.00004-5.099063 4.317832.243342 4.78099 5.336339-.00004 5.099063z"/><g stroke-width="1.5"><path d="m30.354158 11.672803c-2.799997 2.567388-3.742884 7.112478-10.49081 10.34613"/><path d="m14.544939 13.840052c2.96654 1.568029 3.494714 5.508957 3.849169 7.551705"/></g></g><g fill="#538134" stroke-dasharray=".16129 .080645" stroke-linejoin="round" stroke-width=".053763"><path d="m22.795547 25.344149c-.000535-1.217734-.387854-2.506273-.951176-3.164387-.104766-.122396-.18156-.228411-.170653-.235591.01091-.0072.177088-.106662.369293-.221074 1.126803-.670739 2.236241-1.523662 3.220372-2.475785 1.123549-1.087006 1.88302-2.024475 3.310206-4.086022.657579-.949862 1.260276-1.765954 1.664707-2.254127l.130361-.157353.286102.221191c1.468758 1.135524 2.801836 2.759424 3.699817 4.506964.247857.482346.661204 1.426296.633041 1.445657-.008.0055-.349427.05012-.758785.09919-2.337847.280261-4.621473 1.149214-6.813705 2.592717-1.320932.869785-2.436817 1.81435-3.755976 3.179327l-.863452.893442z"/><path d="m9.4540317 22.947672c-.1911116-.217671-.2701568-.455184-.245004-.736181.035896-.40102.3435675-2.08108.4470605-2.441205.2504994-.871663.6516368-1.479133 1.5138058-2.292459l.385314-.363487.391751.198341c.461141.233472.677149.384807 1.021832.715891l.253738.243727-.44191.240029c-.861146.467741-1.583905 1.100762-2.00066 1.752255-.244908.382852-1.2184236 2.393453-1.1850421 2.447465.013291.02151.00643.105415-.015247.186467-.037654.140795-.043257.142988-.1256383.04916z"/><path d="m11.55914 21.924322c0-.0114.08897-.200656.19771-.420572.370933-.750178.848975-1.218578 1.763957-1.728383l.403165-.224634.07888.278397c.04338.153118.10813.398164.143882.544545l.065.266149-.325821.298368c-.408579.374151-.814515.619801-1.290128.780712-.341959.115693-1.036649.25335-1.036649.205418z"/></g></svg>