<?xml version="1.0" encoding="UTF-8" standalone="no"?>
<svg
   height="45"
   width="45"
   version="1.1"
   id="svg8"
   sodipodi:docname="GV2b.svg"
   inkscape:version="1.3.2 (091e20e, 2023-11-25, custom)"
   xmlns:inkscape="http://www.inkscape.org/namespaces/inkscape"
   xmlns:sodipodi="http://sodipodi.sourceforge.net/DTD/sodipodi-0.dtd"
   xmlns="http://www.w3.org/2000/svg"
   xmlns:svg="http://www.w3.org/2000/svg">
  <defs
     id="defs8" />
  <sodipodi:namedview
     id="namedview8"
     pagecolor="#505050"
     bordercolor="#eeeeee"
     borderopacity="1"
     inkscape:showpageshadow="0"
     inkscape:pageopacity="0"
     inkscape:pagecheckerboard="0"
     inkscape:deskcolor="#505050"
     inkscape:zoom="18.6"
     inkscape:cx="22.5"
     inkscape:cy="22.5"
     inkscape:window-width="1835"
     inkscape:window-height="1051"
     inkscape:window-x="-9"
     inkscape:window-y="-9"
     inkscape:window-maximized="1"
     inkscape:current-layer="svg8" />
  <path
     d="m70.035274 44.038386c-.776783 1.752435.756269 2.882784 2.521688 3.638071-.460869-.943188-.58636-2.096712.182034-2.096489 3.992575.0012 4.838657-1.290017 6.021389-2.09324 3.373409-.284963 4.837743.702448 6.468345 1.000304 3.567758.651708 3.464576 3.830761 2.709372 7.248196-5.86098 3.488589-7.989552 7.362033-7.116352 11.809667l28.57973-.21175c-3.18819-7.410485 6.22815-20.5325-2.10157-21.332014-1.62939-4.495092-5.35835-7.986728-9.792595-9.756007-1.966177-.784511-7.632607-1.800098-10.295947-1.660523-3.482823.18252-7.817452 3.471906-14.391257 8.326803-2.263037 1.671301-2.459646 3.292629-2.784837 5.126982z"
     fill="#80bc57"
     stroke="#000"
     stroke-linejoin="round"
     stroke-width="1.8442"
     transform="matrix(.73466667 0 0 .90048402 -42.827324 -18.189777)"
     id="path1" />
  <path
     d="m20.612658 16.149559c-1.571662-.177038-2.946813-3.015068.000023-2.926573 2.478191.139665 2.744017 3.062756-.000023 2.926573z"
     stroke-width="2.36645"
     id="path2" />
  <g
     fill="none"
     stroke="#000"
     id="g8">
    <path
       d="m11.392286 16.222872c3.113175 1.091465 3.384738 3.162796 3.739193 5.205544"
       stroke-width="1.5"
       id="path3" />
    <path
       d="m36.287482 19.709335c-5.2102-.215825-10.614694 2.898538-14.847807 9.054811"
       stroke-width="1.5"
       id="path4" />
    <path
       d="m10.200066 23.010301c1.070683-1.883.876637-3.059004 3.931644-4.346707"
       stroke-width="1.4"
       id="path5" />
    <path
       d="m20.820475 17.014909c-2.738358-.308459-5.134329-5.253251.00004-5.099063 4.317832.243342 4.78099 5.336339-.00004 5.099063z"
       id="path6" />
    <path
       d="m30.354158 11.672803c-2.799997 2.567388-3.742884 7.112478-10.49081 10.34613"
       stroke-width="1.5"
       id="path7" />
    <path
       d="m14.544939 13.840052c2.96654 1.568029 3.494714 5.508957 3.849169 7.551705"
       stroke-width="1.5"
       id="path8" />
  </g>
  <path
     style="fill:#538134;fill-opacity:1;stroke-width:0.0537634;stroke-linejoin:round;stroke-dasharray:0.16129, 0.0806452"
     d="m 22.795547,25.344149 c -5.35e-4,-1.217734 -0.387854,-2.506273 -0.951176,-3.164387 -0.104766,-0.122396 -0.18156,-0.228411 -0.170653,-0.235591 0.01091,-0.0072 0.177088,-0.106662 0.369293,-0.221074 1.126803,-0.670739 2.236241,-1.523662 3.220372,-2.475785 1.123549,-1.087006 1.88302,-2.024475 3.310206,-4.086022 0.657579,-0.949862 1.260276,-1.765954 1.664707,-2.254127 l 0.130361,-0.157353 0.286102,0.221191 c 1.468758,1.135524 2.801836,2.759424 3.699817,4.506964 0.247857,0.482346 0.661204,1.426296 0.633041,1.445657 -0.008,0.0055 -0.349427,0.05012 -0.758785,0.09919 -2.337847,0.280261 -4.621473,1.149214 -6.813705,2.592717 -1.320932,0.869785 -2.436817,1.81435 -3.755976,3.179327 l -0.863452,0.893442 z"
     id="path9" />
  <path
     style="fill:#538134;fill-opacity:1;stroke-width:0.0537634;stroke-linejoin:round;stroke-dasharray:0.16129, 0.0806452"
     d="m 9.4540317,22.947672 c -0.1911116,-0.217671 -0.2701568,-0.455184 -0.245004,-0.736181 0.035896,-0.40102 0.3435675,-2.08108 0.4470605,-2.441205 0.2504994,-0.871663 0.6516368,-1.479133 1.5138058,-2.292459 l 0.385314,-0.363487 0.391751,0.198341 c 0.461141,0.233472 0.677149,0.384807 1.021832,0.715891 l 0.253738,0.243727 -0.44191,0.240029 c -0.861146,0.467741 -1.583905,1.100762 -2.00066,1.752255 -0.244908,0.382852 -1.2184236,2.393453 -1.1850421,2.447465 0.013291,0.02151 0.00643,0.105415 -0.015247,0.186467 -0.037654,0.140795 -0.043257,0.142988 -0.1256383,0.04916 z"
     id="path10" />
  <path
     style="fill:#538134;fill-opacity:1;stroke-width:0.0537634;stroke-linejoin:round;stroke-dasharray:0.16129, 0.0806452"
     d="m 11.55914,21.924322 c 0,-0.0114 0.08897,-0.200656 0.19771,-0.420572 0.370933,-0.750178 0.848975,-1.218578 1.763957,-1.728383 l 0.403165,-0.224634 0.07888,0.278397 c 0.04338,0.153118 0.10813,0.398164 0.143882,0.544545 l 0.065,0.266149 -0.325821,0.298368 c -0.408579,0.374151 -0.814515,0.619801 -1.290128,0.780712 -0.341959,0.115693 -1.036649,0.25335 -1.036649,0.205418 z"
     id="path11" />
</svg>
