<svg height="45" width="45" xmlns="http://www.w3.org/2000/svg"><g fill="#f4eed7" stroke="#000" transform="translate(-98.48987 .018884)"><g transform="matrix(1.1566793 0 0 1.1566793 -1.402737 -5.554048)"><path d="m107.68705 19.55744c.34296.205779 6.53629-5.760884 5.24026-6.74348-.9867-.748077-14.243829 2.970797-14.500572 4.911921-2.610355 1.178247-2.549057 3.667941-3.219861 5.492705l-5.555839 3.661803c-.09071 1.228069.427461 1.760265 1.515229 1.641498 1.422836 3.563254 2.817798 3.196561 4.545686 4.166879-.890492-1.263105-1.384082-2.628441-.552892-3.219861 2.213406-1.574914 5.435729-2.125629 6.357249.39465.60203 1.646498-1.34855 5.143213-3.468379 4.719247l-2.209709-.441942s1.273464 2.577701 2.462247 3.219861c1.021073.551566 2.384801.657448 3.472401.252539.1368-1.376484 1.72671-2.947108 3.21986-3.219862 3.97495-.726105 11.04854 4.987629 11.04854 4.987629s2.84282-2.540704 4.68906-5.975636c1.92302-3.577768.0631-14.578912-1.848-14.101146l-6.43972-1.641498-3.05924 1.230852" fill="#f4eed7" stroke-linecap="round" stroke-width="1.29682"/><path d="m102.6502 20.110572c-.33256-.543366-2.38517.429049-3.125636.803475-1.242529 1.036679-1.214905 1.139317-1.230178 1.869183.417715-.545574 1.418576-.0024 3.440824-1.350237z" fill="#000"/></g><path d="m122.03906 13.180195c.77664.69448.41691 1.210389.38964 1.904869l3.84037-3.862039z"/></g><path d="m33.709677 38.568546c-.728303-.554843-2.665183-1.842935-3.628074-2.412792-.972559-.57558-2.304421-1.265681-3.119237-1.616225-.864172-.371777-2.236541-.824621-2.930108-.966855-.804002-.16488-2.034834-.202652-2.63786-.08095-1.276897.257703-2.516744 1.072545-3.421979 2.248965-.275988.358667-.669879 1.087637-.772165 1.429037-.06349.211918-.07194.217855-.366493.257548-.845417.113927-1.738964-.01698-2.457881-.360091-.356741-.170258-.508795-.285496-.836895-.634268-.379389-.403295-1.036023-1.292508-.989096-1.339435.01196-.01196.211278.0159.442921.06191.694482.13795.946808.154624 1.362901.09006.769676-.119419 1.392486-.451834 2.099543-1.120599 1.163311-1.10031 1.990025-2.915316 1.984673-4.357239-.0028-.743874-.409909-1.727528-.966437-2.334881-1.56856-1.711807-4.653184-1.578851-7.5151615.323926-.7371927.490121-.9858675.905205-1.0218776 1.705706-.01392.309438.00652.605004.056705.819892.044206.189296.056449.336022.028038.336022-.027738 0-.1636123-.06492-.3019423-.144271-.981721-.563137-1.6817149-1.499091-2.3799316-3.182182l-.2593432-.62516-.5183405.01779c-.733682.02519-.9339989-.08547-.9560234-.528147-.00882-.177359-.00386-.180927 3.1321767-2.252999l3.1410154-2.075359.128257-.376344c.07054-.206989.260274-.869312.421629-1.471828.36395-1.359029.512949-1.798953.793568-2.343035.440953-.854945 1.075967-1.472144 1.960859-1.905848.454158-.222593.4851-.248468.514328-.430108.04595-.285531.146043-.395532.693553-.762186 1.690776-1.132268 6.013332-2.721564 10.360792-3.809403 1.7292-.432688 3.467204-.7550899 4.0742-.7557698l.28298-.0003169-.08421.2016127c-.365589.875264-1.760625 2.6159-3.436382 4.287697-1.097598 1.095005-1.849496 1.745012-2.195691 1.89815-.467019.206585-.633395.724632-.369734 1.151245.126151.204117.433599.364935.695879.363996.228672-.000818.646139-.221144 1.093336-.577029.290235-.230972.430691-.311666.483871-.277992.228513.144699.54873.05493 2.241976-.628529l1.683174-.679391 3.639407.930198c2.001673.511609 3.693319.933683 3.759213.937941.18862.01219.314796.163632.601715.722203.755014 1.469858 1.378916 4.320992 1.617138 7.390071.06969.897875.06908 3.06577-.0011 3.822838-.151617 1.635966-.429185 2.638624-1.004633 3.629032-1.081782 1.861866-2.444065 3.651828-4.058503 5.332639l-.500244.520811zm-19.949907-16.68459c.302527-.397964.59042-.736365.639763-.752002.04934-.01564.36794-.07842.707994-.139519 1.015727-.182498 1.895146-.525294 2.777968-1.082846.303927-.191948.39964-.303879.99246-1.160629.360853-.521507.656095-.975405.656095-1.008662 0-.136705-.35974-.570508-.556235-.670752-.441896-.225438-1.335219-.111199-2.391793.305866-1.148517.453358-1.677532.744563-2.23572 1.230689-.878977.765502-1.057862 1.05826-1.128368 1.846656-.04486.501649-.06868 2.15477-.03105 2.15477.01036 0 .266361-.325607.568888-.723571zm14.134674-10.691497c-.157804-.226037-.311111-.410842-.340681-.410678-.09682.000538-4.886715 2.238145-4.897676 2.287961-.0059.0267.141035.181602.326463.344236.533317.467758.539942.487805.466581 1.411918-.03412.429794-.06203.959274-.06203 1.176623v.39518l2.397132-2.397132 2.397132-2.397132z" fill="#e9ddae" stroke-width=".053763"/></svg>