<svg height="45" width="45" xmlns="http://www.w3.org/2000/svg"><g fill="#f4eed7" stroke="#000" stroke-width="1.5" transform="translate(0 3.231647)"><path d="m22.355324 19.062004c-3.445086 0-6.23545 2.790364-6.23545 6.23545 0 1.387387.45207 2.665654 1.215913 3.710092-3.039782 1.745926-5.113069 5.003949-5.113069 8.760807h20.265211c0-3.756858-2.073287-7.014881-5.113068-8.760807.763842-1.044438 1.215912-2.322705 1.215912-3.710092 0-3.445086-2.790363-6.23545-6.235449-6.23545z" stroke-linecap="round"/><path d="m20.580357 16.651786c-5.236177-1.976613-8.126057 4.030283-12.9427113 7.932198 0 0 4.1881673-10.376044 7.4962823-12.039341 4.026265-2.024377 5.458103 4.095469 5.446429 4.107143z"/><path d="m21.917994 17.38986c-2.300357-4.592869-8.593068-7.9891315-14.6810871-8.9686889 0 0 11.4635891-.3074536 14.2219381 2.1627069 1.723442 1.543378.459149 6.805982.459149 6.805982z"/><path d="m22.672252 17.634181c-.214509-4.733387-1.70744-9.8781377-5.161832-14.6741307 0 0 7.264379 5.083594 8.325919 8.6308907.663261 2.216383-3.164087 6.04324-3.164087 6.04324z"/><path d="m23.138492 17.656308c3.902322-3.131624 2.768079-8.1040736 1.271121-14.3764489.415409-.3323268 7.382486 7.4086829 4.53732 11.6665039-1.285367 1.923565-5.808441 2.709945-5.808441 2.709945z"/><ellipse cx="22.355324" cy="20.491072" rx="2.745536" ry="6.25" stroke-linecap="square"/></g><g fill="#e5d7a0" stroke-dasharray=".267857 .133929" stroke-linejoin="round" stroke-width=".089286"><path d="m20.258237 17.036785c-1.380729-1.431452-3.775292-3.048517-6.059792-4.092218-.768391-.351049-.730222-.358985.846745-.176065 3.109281.360662 5.449745 1.035311 5.682483 1.638.132055.341965.610372 2.175211.611044 2.341948.000313.07772-.15443.265867-.343873.418107l-.344441.2768z"/><path d="m25.535714 19.370729c0-.02547.09995-.243557.222119-.484638.331674-.654528.644137-1.825376.765639-2.868971.170307-1.462792.0015-3.477299-.496689-5.927834-.10982-.5401789-.188384-.9953803-.174586-1.0115591.06887-.080755 1.358231 1.9314321 1.817223 2.8359751 1.235514 2.434849 1.474467 4.287041.722855 5.603063-.282245.494192-.672872.838879-1.427989 1.260045-.530359.295807-1.428572.669233-1.428572.593919z"/></g></svg>