<svg height="45" width="45" xmlns="http://www.w3.org/2000/svg"><g fill="#f4eed7" stroke="#000" transform="matrix(1.1514001 0 0 1.1514001 -52.559324 -7.692078)"><path d="m69.726382 27.584634c1.265677-3.740973 7.315329-3.893965 11.62946-5.348597-5.391069-3.639667-11.862825-6.537216-16.166229-6.581508-4.303404.04429-10.77516 2.941841-16.166229 6.581508 4.314131 1.454632 10.363783 1.607624 11.62946 5.348597" stroke-width="1.302762"/><g stroke-width="1.820366" transform="matrix(.71565912 0 0 .71565912 2.952829 7.145478)"><path d="m82.142858 36.607143-8.392857 7.232143c3.453582 3.316315 7.554904 5.267857 13.214286 5.267857s9.760704-1.951542 13.214283-5.267857l-8.392854-7.232143"/><ellipse cx="86.964287" cy="31.25" rx="7.142857" ry="9.285714" stroke-linecap="square"/></g><path d="m66.010362 30.029457 2.146574-7.197337-2.967323-3.282996-2.967323 3.282996 2.146574 7.197337h.820749z" stroke-width="1.302762"/><g stroke-width=".868508"><path d="m57.745536 17.544643c3.689995.997786 4.403762 3.535 4.6875 6.294643"/><path d="m72.729106 17.544643c-3.689995.997786-4.403762 3.535-4.6875 6.294643"/><path d="m57.29459 37.045049c5.053552 3.20185 10.28905 3.856466 15.846768 0"/></g></g><g stroke-width=".053763"><path d="m16.451613 21.4724c-1.029526-.953342-2.654647-1.740139-4.973118-2.407722-.532695-.153384-2.2838632-.585873-3.9434475-.973919-.7791109-.182173-1.5029353-.361125-1.6084986-.397672l-.1919332-.06645.9364556-.569417c2.109289-1.282566 4.9296867-2.757523 6.7966707-3.554394l.806452-.344211.343502.128088c.909361.339089 1.660662.808274 2.265643 1.414887.82733.829561 1.316551 1.81641 1.638373 3.304902.172804.799253.170394.849925-.02743.576842-.159683-.220435-.271895-.286491-.26486-.155916.002.03696.06986.28493.150818.55104l.147197.483835-.419321.475125c-.443432.502444-.919609 1.183416-1.124607 1.60828-.06777.140457-.136544.254235-.15283.25284-.01628-.0014-.186867-.148158-.379071-.326139z" fill="#dcc76d"/><path d="m28.016486 21.545699c-.205025-.424921-.681196-1.10586-1.124799-1.608498l-.419513-.475342.15072-.506309c.0829-.27847.142688-.514341.13287-.524159-.0098-.0098-.08453.07297-.166021.183982l-.148171.201831.03659-.268817c.06588-.48399.391956-1.666545.571904-2.074062.413606-.936665.928428-1.62759 1.622373-2.177331.423823-.335751 1.288112-.817379 1.828125-1.018729.255764-.09536.262014-.09505.564516.0279 1.26073.512431 3.514049 1.612875 5.085212 2.483444.91914.509287 2.96477 1.722504 3.060528 1.81513.05552.0537-.346543.160709-2.624797.698596-1.005377.237365-2.15457.518259-2.553764.624208-2.607811.692131-4.329089 1.496966-5.534545 2.587842-.173635.157131-.325219.285692-.336854.285692-.01163 0-.0766-.114919-.144373-.255376z" fill="#dcc76d"/><path d="m21.586022 33.043357c-.834327-.226366-1.538572-.659875-2.204773-1.35718-1.397747-1.463004-2.100232-3.635197-1.953663-6.041024.06765-1.110473.331416-2.111692.821486-3.118271.25325-.520165.759772-1.306955.808093-1.255225.0096.01027.384522 1.252537.833183 2.760601.448661 1.508065.876081 2.941532.949824 3.185484l.134077.443548h1.526464 1.526465l.100799-.336021c.05544-.184812.485206-1.627066.955038-3.205008l.854238-2.868986.174521.207696c.619546.737319 1.236014 2.313631 1.414428 3.616704.09932.725432.07546 1.975891-.05183 2.716298-.285225 1.659026-.950247 2.993495-2.0113 4.035984-.608228.597586-1.074968.895109-1.780278 1.134836-.582024.197824-1.530297.234259-2.096774.08056z" fill="#af962a"/></g></svg>