<?xml version="1.0" encoding="UTF-8" standalone="no"?>
<svg
   height="45"
   width="45"
   version="1.1"
   id="svg7"
   sodipodi:docname="WS2.svg"
   inkscape:version="1.3.2 (091e20e, 2023-11-25, custom)"
   xmlns:inkscape="http://www.inkscape.org/namespaces/inkscape"
   xmlns:sodipodi="http://sodipodi.sourceforge.net/DTD/sodipodi-0.dtd"
   xmlns="http://www.w3.org/2000/svg"
   xmlns:svg="http://www.w3.org/2000/svg">
  <defs
     id="defs7" />
  <sodipodi:namedview
     id="namedview7"
     pagecolor="#505050"
     bordercolor="#eeeeee"
     borderopacity="1"
     inkscape:showpageshadow="0"
     inkscape:pageopacity="0"
     inkscape:pagecheckerboard="0"
     inkscape:deskcolor="#505050"
     inkscape:zoom="18.6"
     inkscape:cx="22.5"
     inkscape:cy="22.526882"
     inkscape:window-width="1835"
     inkscape:window-height="1051"
     inkscape:window-x="-9"
     inkscape:window-y="-9"
     inkscape:window-maximized="1"
     inkscape:current-layer="svg7" />
  <g
     fill="#f4eed7"
     stroke="#000"
     transform="matrix(1.1514001 0 0 1.1514001 -52.559324 -7.692078)"
     id="g7">
    <path
       d="m69.726382 27.584634c1.265677-3.740973 7.315329-3.893965 11.62946-5.348597-5.391069-3.639667-11.862825-6.537216-16.166229-6.581508-4.303404.04429-10.77516 2.941841-16.166229 6.581508 4.314131 1.454632 10.363783 1.607624 11.62946 5.348597"
       stroke-width="1.302762"
       id="path1" />
    <g
       stroke-width="1.820366"
       transform="matrix(.71565912 0 0 .71565912 2.952829 7.145478)"
       id="g2">
      <path
         d="m82.142858 36.607143-8.392857 7.232143c3.453582 3.316315 7.554904 5.267857 13.214286 5.267857s9.760704-1.951542 13.214283-5.267857l-8.392854-7.232143"
         id="path2" />
      <ellipse
         cx="86.964287"
         cy="31.25"
         rx="7.142857"
         ry="9.285714"
         stroke-linecap="square"
         id="ellipse2" />
    </g>
    <path
       d="m66.010362 30.029457 2.146574-7.197337-2.967323-3.282996-2.967323 3.282996 2.146574 7.197337h.820749z"
       stroke-width="1.302762"
       id="path3" />
    <g
       stroke-width=".868508"
       id="g6">
      <path
         d="m57.745536 17.544643c3.689995.997786 4.403762 3.535 4.6875 6.294643"
         id="path4" />
      <path
         d="m72.729106 17.544643c-3.689995.997786-4.403762 3.535-4.6875 6.294643"
         id="path5" />
      <path
         d="m57.29459 37.045049c5.053552 3.20185 10.28905 3.856466 15.846768 0"
         id="path6" />
    </g>
  </g>
  <path
     style="fill:#dcc76d;fill-opacity:1;stroke-width:0.0537634"
     d="M 16.451613,21.4724 C 15.422087,20.519058 13.796966,19.732261 11.478495,19.064678 10.9458,18.911294 9.1946318,18.478805 7.5350475,18.090759 6.7559366,17.908586 6.0321122,17.729634 5.9265489,17.693087 L 5.7346157,17.626637 6.6710713,17.05722 c 2.109289,-1.282566 4.9296867,-2.757523 6.7966707,-3.554394 l 0.806452,-0.344211 0.343502,0.128088 c 0.909361,0.339089 1.660662,0.808274 2.265643,1.414887 0.82733,0.829561 1.316551,1.81641 1.638373,3.304902 0.172804,0.799253 0.170394,0.849925 -0.02743,0.576842 -0.159683,-0.220435 -0.271895,-0.286491 -0.26486,-0.155916 0.002,0.03696 0.06986,0.28493 0.150818,0.55104 l 0.147197,0.483835 -0.419321,0.475125 c -0.443432,0.502444 -0.919609,1.183416 -1.124607,1.60828 -0.06777,0.140457 -0.136544,0.254235 -0.15283,0.25284 -0.01628,-0.0014 -0.186867,-0.148158 -0.379071,-0.326139 z"
     id="path7" />
  <path
     style="fill:#dcc76d;fill-opacity:1;stroke-width:0.0537634"
     d="m 28.016486,21.545699 c -0.205025,-0.424921 -0.681196,-1.10586 -1.124799,-1.608498 l -0.419513,-0.475342 0.15072,-0.506309 c 0.0829,-0.27847 0.142688,-0.514341 0.13287,-0.524159 -0.0098,-0.0098 -0.08453,0.07297 -0.166021,0.183982 l -0.148171,0.201831 0.03659,-0.268817 c 0.06588,-0.48399 0.391956,-1.666545 0.571904,-2.074062 0.413606,-0.936665 0.928428,-1.62759 1.622373,-2.177331 0.423823,-0.335751 1.288112,-0.817379 1.828125,-1.018729 0.255764,-0.09536 0.262014,-0.09505 0.564516,0.0279 1.26073,0.512431 3.514049,1.612875 5.085212,2.483444 0.91914,0.509287 2.96477,1.722504 3.060528,1.81513 0.05552,0.0537 -0.346543,0.160709 -2.624797,0.698596 -1.005377,0.237365 -2.15457,0.518259 -2.553764,0.624208 -2.607811,0.692131 -4.329089,1.496966 -5.534545,2.587842 -0.173635,0.157131 -0.325219,0.285692 -0.336854,0.285692 -0.01163,0 -0.0766,-0.114919 -0.144373,-0.255376 z"
     id="path8" />
  <path
     style="fill:#af962a;fill-opacity:1;stroke-width:0.0537634"
     d="m 21.586022,33.043357 c -0.834327,-0.226366 -1.538572,-0.659875 -2.204773,-1.35718 -1.397747,-1.463004 -2.100232,-3.635197 -1.953663,-6.041024 0.06765,-1.110473 0.331416,-2.111692 0.821486,-3.118271 0.25325,-0.520165 0.759772,-1.306955 0.808093,-1.255225 0.0096,0.01027 0.384522,1.252537 0.833183,2.760601 0.448661,1.508065 0.876081,2.941532 0.949824,3.185484 l 0.134077,0.443548 h 1.526464 1.526465 l 0.100799,-0.336021 c 0.05544,-0.184812 0.485206,-1.627066 0.955038,-3.205008 l 0.854238,-2.868986 0.174521,0.207696 c 0.619546,0.737319 1.236014,2.313631 1.414428,3.616704 0.09932,0.725432 0.07546,1.975891 -0.05183,2.716298 -0.285225,1.659026 -0.950247,2.993495 -2.0113,4.035984 -0.608228,0.597586 -1.074968,0.895109 -1.780278,1.134836 -0.582024,0.197824 -1.530297,0.234259 -2.096774,0.08056 z"
     id="path9" />
</svg>
