<svg height="45" width="45" xmlns="http://www.w3.org/2000/svg"><path d="m70.035274 44.038386c-.776783 1.752435.756269 2.882784 2.521688 3.638071-.460869-.943188-.58636-2.096712.182034-2.096489 3.992575.0012 4.838657-1.290017 6.021389-2.09324 3.373409-.284963 4.837743.702448 6.468345 1.000304 3.567758.651708 3.464576 3.830761 2.709372 7.248196-5.86098 3.488589-7.989552 7.362033-7.116352 11.809667l28.57973-.21175c-3.18819-7.410485 6.22815-20.5325-2.10157-21.332014-1.62939-4.495092-5.35835-7.986728-9.792595-9.756007-1.966177-.784511-7.632607-1.800098-10.295947-1.660523-3.482823.18252-7.817452 3.471906-14.391257 8.326803-2.263037 1.671301-2.459646 3.292629-2.784837 5.126982z" fill="#f4eed7" stroke="#000" stroke-linejoin="round" stroke-width="1.8442" transform="matrix(.73466667 0 0 .90048402 -42.827324 -18.189777)"/><path d="m20.612658 16.149559c-1.571662-.177038-2.946813-3.015068.000023-2.926573 2.478191.139665 2.744017 3.062756-.000023 2.926573z" stroke-width="2.36645"/><g fill="none" stroke="#000"><path d="m11.392286 16.222872c3.113175 1.091465 3.384738 3.162796 3.739193 5.205544" stroke-width="1.5"/><path d="m36.287482 19.709335c-5.2102-.215825-10.614694 2.898538-14.847807 9.054811" stroke-width="1.5"/><path d="m10.200066 23.010301c1.070683-1.883.876637-3.059004 3.931644-4.346707" stroke-width="1.4"/><path d="m20.820475 17.014909c-2.738358-.308459-5.134329-5.253251.00004-5.099063 4.317832.243342 4.78099 5.336339-.00004 5.099063z"/><g stroke-width="1.5"><path d="m30.354158 11.672803c-2.799997 2.567388-3.742884 7.112478-10.49081 10.34613"/><path d="m14.544939 13.840052c2.96654 1.568029 3.494714 5.508957 3.849169 7.551705"/></g></g><g fill="#dbc77b" stroke-dasharray=".16129 .080645" stroke-linejoin="round" stroke-width=".053763"><path d="m22.795547 25.334327c-.000545-1.205274-.389903-2.498844-.948601-3.151557l-.187909-.219529.205428-.119407c.597441-.347269 1.853021-1.236123 2.440394-1.72761 1.509939-1.263451 2.563895-2.486478 4.269963-4.954934.701473-1.014938 1.363086-1.90688 1.668789-2.249749l.136394-.152976.302808.233615c1.1334.874411 2.306702 2.197862 3.136992 3.538434.413272.667263 1.23066 2.34578 1.166665 2.395763-.0073.0057-.279481.03954-.60475.07511-2.551669.27908-5.02778 1.249395-7.390616 2.896166-1.012225.705467-1.875878 1.447408-3.02605 2.599596l-1.169355 1.171405z"/><path d="m9.4540317 22.947672c-.2659072-.302861-.3190198-.64954-.181965-1.187731.043185-.16958.1262306-.611412.1845458-.981849.240656-1.528724.6278205-2.27009 1.7359135-3.324033l.359193-.341639.493755.260335c.281233.148282.642841.396945.840126.577722l.346372.317386-.443816.237137c-.806388.430862-1.542377 1.064129-1.976988 1.701059-.215309.31554-1.2515662 2.448849-1.216831 2.505051.01361.02202.00701.106353-.014667.187405-.037654.140795-.043257.142988-.1256383.04916z"/><path d="m11.55914 21.926003c0-.01105.08194-.182799.182092-.381672.269867-.535884.639184-.995735 1.044089-1.300034.410559-.308549 1.062946-.667898 1.133446-.624327.02606.0161.101695.249112.168084.517795l.120708.488515-.208618.215115c-.329195.339447-.941034.720226-1.400678.871715-.385245.126969-1.039123.260933-1.039123.212893z"/></g></svg>