<?xml version="1.0" encoding="UTF-8" standalone="no"?>
<svg
   height="45"
   width="45"
   version="1.1"
   id="svg8"
   sodipodi:docname="WV2b.svg"
   inkscape:version="1.3.2 (091e20e, 2023-11-25, custom)"
   xmlns:inkscape="http://www.inkscape.org/namespaces/inkscape"
   xmlns:sodipodi="http://sodipodi.sourceforge.net/DTD/sodipodi-0.dtd"
   xmlns="http://www.w3.org/2000/svg"
   xmlns:svg="http://www.w3.org/2000/svg">
  <defs
     id="defs8" />
  <sodipodi:namedview
     id="namedview8"
     pagecolor="#505050"
     bordercolor="#eeeeee"
     borderopacity="1"
     inkscape:showpageshadow="0"
     inkscape:pageopacity="0"
     inkscape:pagecheckerboard="0"
     inkscape:deskcolor="#505050"
     inkscape:zoom="18.6"
     inkscape:cx="22.5"
     inkscape:cy="22.5"
     inkscape:window-width="1835"
     inkscape:window-height="1051"
     inkscape:window-x="-9"
     inkscape:window-y="-9"
     inkscape:window-maximized="1"
     inkscape:current-layer="svg8" />
  <path
     d="m70.035274 44.038386c-.776783 1.752435.756269 2.882784 2.521688 3.638071-.460869-.943188-.58636-2.096712.182034-2.096489 3.992575.0012 4.838657-1.290017 6.021389-2.09324 3.373409-.284963 4.837743.702448 6.468345 1.000304 3.567758.651708 3.464576 3.830761 2.709372 7.248196-5.86098 3.488589-7.989552 7.362033-7.116352 11.809667l28.57973-.21175c-3.18819-7.410485 6.22815-20.5325-2.10157-21.332014-1.62939-4.495092-5.35835-7.986728-9.792595-9.756007-1.966177-.784511-7.632607-1.800098-10.295947-1.660523-3.482823.18252-7.817452 3.471906-14.391257 8.326803-2.263037 1.671301-2.459646 3.292629-2.784837 5.126982z"
     fill="#f4eed7"
     stroke="#000"
     stroke-linejoin="round"
     stroke-width="1.8442"
     transform="matrix(.73466667 0 0 .90048402 -42.827324 -18.189777)"
     id="path1" />
  <path
     d="m20.612658 16.149559c-1.571662-.177038-2.946813-3.015068.000023-2.926573 2.478191.139665 2.744017 3.062756-.000023 2.926573z"
     stroke-width="2.36645"
     id="path2" />
  <g
     fill="none"
     stroke="#000"
     id="g8">
    <path
       d="m11.392286 16.222872c3.113175 1.091465 3.384738 3.162796 3.739193 5.205544"
       stroke-width="1.5"
       id="path3" />
    <path
       d="m36.287482 19.709335c-5.2102-.215825-10.614694 2.898538-14.847807 9.054811"
       stroke-width="1.5"
       id="path4" />
    <path
       d="m10.200066 23.010301c1.070683-1.883.876637-3.059004 3.931644-4.346707"
       stroke-width="1.4"
       id="path5" />
    <path
       d="m20.820475 17.014909c-2.738358-.308459-5.134329-5.253251.00004-5.099063 4.317832.243342 4.78099 5.336339-.00004 5.099063z"
       id="path6" />
    <path
       d="m30.354158 11.672803c-2.799997 2.567388-3.742884 7.112478-10.49081 10.34613"
       stroke-width="1.5"
       id="path7" />
    <path
       d="m14.544939 13.840052c2.96654 1.568029 3.494714 5.508957 3.849169 7.551705"
       stroke-width="1.5"
       id="path8" />
  </g>
  <path
     style="fill:#dbc77b;fill-opacity:1;stroke-width:0.0537634;stroke-linejoin:round;stroke-dasharray:0.16129, 0.0806452"
     d="m 22.795547,25.334327 c -5.45e-4,-1.205274 -0.389903,-2.498844 -0.948601,-3.151557 l -0.187909,-0.219529 0.205428,-0.119407 c 0.597441,-0.347269 1.853021,-1.236123 2.440394,-1.72761 1.509939,-1.263451 2.563895,-2.486478 4.269963,-4.954934 0.701473,-1.014938 1.363086,-1.90688 1.668789,-2.249749 l 0.136394,-0.152976 0.302808,0.233615 c 1.1334,0.874411 2.306702,2.197862 3.136992,3.538434 0.413272,0.667263 1.23066,2.34578 1.166665,2.395763 -0.0073,0.0057 -0.279481,0.03954 -0.60475,0.07511 -2.551669,0.27908 -5.02778,1.249395 -7.390616,2.896166 -1.012225,0.705467 -1.875878,1.447408 -3.02605,2.599596 l -1.169355,1.171405 z"
     id="path9" />
  <path
     style="fill:#dbc77b;fill-opacity:1;stroke-width:0.0537634;stroke-linejoin:round;stroke-dasharray:0.16129, 0.0806452"
     d="m 9.4540317,22.947672 c -0.2659072,-0.302861 -0.3190198,-0.64954 -0.181965,-1.187731 0.043185,-0.16958 0.1262306,-0.611412 0.1845458,-0.981849 0.240656,-1.528724 0.6278205,-2.27009 1.7359135,-3.324033 l 0.359193,-0.341639 0.493755,0.260335 c 0.281233,0.148282 0.642841,0.396945 0.840126,0.577722 l 0.346372,0.317386 -0.443816,0.237137 c -0.806388,0.430862 -1.542377,1.064129 -1.976988,1.701059 -0.215309,0.31554 -1.2515662,2.448849 -1.216831,2.505051 0.01361,0.02202 0.00701,0.106353 -0.014667,0.187405 -0.037654,0.140795 -0.043257,0.142988 -0.1256383,0.04916 z"
     id="path10" />
  <path
     style="fill:#dbc77b;fill-opacity:1;stroke-width:0.0537634;stroke-linejoin:round;stroke-dasharray:0.16129, 0.0806452"
     d="m 11.55914,21.926003 c 0,-0.01105 0.08194,-0.182799 0.182092,-0.381672 0.269867,-0.535884 0.639184,-0.995735 1.044089,-1.300034 0.410559,-0.308549 1.062946,-0.667898 1.133446,-0.624327 0.02606,0.0161 0.101695,0.249112 0.168084,0.517795 l 0.120708,0.488515 -0.208618,0.215115 c -0.329195,0.339447 -0.941034,0.720226 -1.400678,0.871715 -0.385245,0.126969 -1.039123,0.260933 -1.039123,0.212893 z"
     id="path11" />
</svg>
