<?xml version="1.0" encoding="UTF-8" standalone="no"?>
<svg
   xmlns:dc="http://purl.org/dc/elements/1.1/"
   xmlns:cc="http://creativecommons.org/ns#"
   xmlns:rdf="http://www.w3.org/1999/02/22-rdf-syntax-ns#"
   xmlns:svg="http://www.w3.org/2000/svg"
   xmlns="http://www.w3.org/2000/svg"
   xmlns:sodipodi="http://sodipodi.sourceforge.net/DTD/sodipodi-0.dtd"
   xmlns:inkscape="http://www.inkscape.org/namespaces/inkscape"
   width="45"
   height="45"
   version="1.1"
   id="svg4060"
   sodipodi:docname="bE.svg"
   inkscape:version="1.0 (4035a4fb49, 2020-05-01)">
  <metadata
     id="metadata4066">
    <rdf:RDF>
      <cc:Work
         rdf:about="">
        <dc:format>image/svg+xml</dc:format>
        <dc:type
           rdf:resource="http://purl.org/dc/dcmitype/StillImage" />
        <dc:title />
      </cc:Work>
    </rdf:RDF>
  </metadata>
  <defs
     id="defs4064" />
  <sodipodi:namedview
     inkscape:document-rotation="0"
     pagecolor="#ffffff"
     bordercolor="#666666"
     borderopacity="1"
     objecttolerance="10"
     gridtolerance="10"
     guidetolerance="10"
     inkscape:pageopacity="0"
     inkscape:pageshadow="2"
     inkscape:window-width="1920"
     inkscape:window-height="1017"
     id="namedview4062"
     showgrid="false"
     inkscape:zoom="6.819652"
     inkscape:cx="51.655493"
     inkscape:cy="14.791416"
     inkscape:window-x="1912"
     inkscape:window-y="-8"
     inkscape:window-maximized="1"
     inkscape:current-layer="svg4060" />
  <g
     id="g4673"
     transform="translate(-62.156753)">
    <g
       id="g3396"
       style="fill:#ffffff;fill-opacity:1;stroke:#000000;stroke-width:1.82675;stroke-miterlimit:4;stroke-dasharray:none"
       transform="matrix(0.78701404,0,0,0.85672389,-10.702726,18.80371)">
      <path
         d="m 117.63203,21.886427 c 7.23259,1.359937 17.07482,-1.618798 20.56417,-6.328408 1.23242,-1.701397 2.45362,-3.499193 3.1594,-5.47708 -1.59003,-10.41332559 -15.94052,-23.281784 -25.31542,-13.9974803 -2.58005,2.5935278 -4.77065,5.6765683 -5.75899,9.2389526 -0.61261,1.2845085 -0.47129,3.3554695 -2.13001,3.798128 -7.84453,-1.4831606 2.14316,-7.2180408 3.46648,-11.4673771 0.83382,-2.4478518 -1.66065,-4.3395847 -3.90475,-4.2811976 -2.45468,-0.3110358 -4.54346,1.6903815 -5.01059,3.9843718 -1.40365,6.281563 4.25077,3.49043677 4.02142,-0.046254 2.51624,-0.1513581 0.3508,2.97101397 -0.93604,3.38475034 -7.198112,4.20058586 -5.54145,13.49325526 -0.13862,17.71798826 4.25402,2.556835 10.95123,2.45371 14.25719,-0.679115 1.39498,-2.144332 0.56033,-4.945293 1.62141,-7.239066 0.87444,-2.1704632 2.44796,-3.9552378 3.96252,-5.7002096 1.03059,-0.2537833 -1.24069,1.6967759 -1.67768,2.1823768 -1.29133,1.4194017 -2.39023,3.3020638 -2.55189,5.2970008 -0.1609,3.386841 -1.06627,7.11711 -3.6286,9.612619 z"
         style="fill:#000000;fill-opacity:1;stroke:#000000;stroke-width:1.82675;stroke-linecap:butt;stroke-linejoin:round;stroke-miterlimit:4;stroke-dasharray:none;stroke-opacity:1"
         id="path3392"
         sodipodi:nodetypes="cccccccccccccccccc" />
      <path
         sodipodi:nodetypes="ccccc"
         inkscape:connector-curvature="0"
         id="path3394"
         d="m 110.25678,13.980327 c -1.32838,4.066443 -5.39266,5.403818 -7.94281,7.881955 -0.20576,0.304421 0.14574,0.397532 1,0.3 3.90473,-1.863513 10.66335,-3.572775 11.90372,-7.212532 -0.78642,-0.41302 -3.77285,-0.953263 -4.96091,-0.969423 z"
         style="fill:#ececec;fill-opacity:1;stroke:#000000;stroke-width:1.82675;stroke-linecap:butt;stroke-linejoin:miter;stroke-miterlimit:4;stroke-dasharray:none;stroke-opacity:1" />
    </g>
    <path
       style="stroke:#ececec;stroke-width:1.5;stroke-miterlimit:4;stroke-dasharray:none;stroke-opacity:1;fill:#ececec;fill-opacity:1"
       d="m 80.817419,23.687114 c -1.00278,-1.900395 -1.87649,-1.351261 -0.866,0.544288 1.00278,1.900395 1.87649,1.351261 0.866,-0.544288 z"
       fill="#000000"
       id="path3408-4"
       sodipodi:nodetypes="ccc" />
  </g>
  <path
     style="fill:none;stroke:#ececec;stroke-width:1.5;stroke-linecap:butt;stroke-linejoin:miter;stroke-miterlimit:4;stroke-dasharray:none;stroke-opacity:1"
     d="m 20.628628,35.316316 c 1.030184,-0.961417 1.693579,-4.007576 1.953169,-6.50253 0.192719,-1.852247 2.366316,-4.717102 3.907813,-6.489113"
     id="path4675"
     sodipodi:nodetypes="csc" />
</svg>
