<?xml version="1.0" encoding="UTF-8" standalone="no"?>
<svg
   xmlns:dc="http://purl.org/dc/elements/1.1/"
   xmlns:cc="http://creativecommons.org/ns#"
   xmlns:rdf="http://www.w3.org/1999/02/22-rdf-syntax-ns#"
   xmlns:svg="http://www.w3.org/2000/svg"
   xmlns="http://www.w3.org/2000/svg"
   xmlns:sodipodi="http://sodipodi.sourceforge.net/DTD/sodipodi-0.dtd"
   xmlns:inkscape="http://www.inkscape.org/namespaces/inkscape"
   inkscape:version="1.0 (4035a4fb49, 2020-05-01)"
   sodipodi:docname="bK.svg"
   id="svg1957"
   version="1.1"
   height="45"
   width="45">
  <metadata
     id="metadata1963">
    <rdf:RDF>
      <cc:Work
         rdf:about="">
        <dc:format>image/svg+xml</dc:format>
        <dc:type
           rdf:resource="http://purl.org/dc/dcmitype/StillImage" />
        <dc:title></dc:title>
      </cc:Work>
    </rdf:RDF>
  </metadata>
  <defs
     id="defs1961" />
  <sodipodi:namedview
     inkscape:current-layer="svg1957"
     inkscape:window-maximized="1"
     inkscape:window-y="-8"
     inkscape:window-x="1912"
     inkscape:cy="18.108184"
     inkscape:cx="14.3144"
     inkscape:zoom="13.639304"
     showgrid="false"
     id="namedview1959"
     inkscape:window-height="1017"
     inkscape:window-width="1920"
     inkscape:pageshadow="2"
     inkscape:pageopacity="0"
     guidetolerance="10"
     gridtolerance="10"
     objecttolerance="10"
     borderopacity="1"
     bordercolor="#666666"
     pagecolor="#ffffff" />
  <g
     transform="translate(42.652773,0.49408182)"
     id="g3205">
    <g
       id="g2299"
       transform="matrix(0.78995423,0,0,0.78995423,-56.387423,-17.143233)">
      <path
         sodipodi:nodetypes="ccccc"
         inkscape:connector-curvature="0"
         id="path7039-8"
         d="m 46.213835,59.000144 c -4.337713,-0.106113 -8.805939,0.133592 -14.547379,-0.393637 -3.058483,-4.365293 -7.669835,-20.160522 -6.59342,-27.568225 8.133658,-4.954192 35.196714,-5.374469 41.572966,0.164983 1.076415,7.407703 -2.923901,22.91519 -5.982386,27.280482"
         style="fill:#000000;fill-opacity:1;stroke:none;stroke-width:1.15365;stroke-linecap:butt;stroke-linejoin:miter;stroke-miterlimit:4;stroke-dasharray:none;stroke-opacity:1" />
      <path
         sodipodi:nodetypes="ccccccc"
         inkscape:connector-curvature="0"
         id="path7043-7"
         d="m 31.268708,57.912189 c 0.303804,3.771269 0.984734,7.129255 2.001421,10.900524 4.677097,2.079376 8.290066,2.312316 12.581636,2.411335 4.291572,-0.07951 9.098353,-0.716921 13.005531,-2.521323 1.016687,-3.771269 2.010052,-7.461209 2.358048,-11.14409 l -15.014146,1.158821 z"
         style="fill:#000000;fill-opacity:1;stroke:none;stroke-width:0.624152;stroke-linecap:butt;stroke-linejoin:miter;stroke-miterlimit:4;stroke-dasharray:none;stroke-opacity:1" />
      <path
         sodipodi:nodetypes="cc"
         inkscape:connector-curvature="0"
         id="path7088-5"
         d="M 50.482706,37.019363 48.205791,48.804009"
         style="fill:none;fill-opacity:1;stroke:#ececec;stroke-width:1.89884;stroke-linecap:butt;stroke-linejoin:miter;stroke-miterlimit:4;stroke-dasharray:none;stroke-opacity:1" />
      <path
         style="fill:none;fill-opacity:1;stroke:#ececec;stroke-width:1.89884;stroke-linecap:butt;stroke-linejoin:miter;stroke-miterlimit:4;stroke-dasharray:none;stroke-opacity:1"
         d="m 42.155289,37.590934 1.420123,10.899289"
         id="path7090-2"
         inkscape:connector-curvature="0"
         sodipodi:nodetypes="cc" />
      <path
         sodipodi:nodetypes="ccc"
         inkscape:connector-curvature="0"
         id="path8714"
         d="m 26.537705,31.904655 c 2.719145,3.377296 4.42211,4.930889 5.109717,6.072702 1.61736,6.763907 2.387096,11.649126 3.989124,18.475011"
         style="fill:none;fill-opacity:1;stroke:#ececec;stroke-width:1.89884;stroke-linecap:round;stroke-linejoin:miter;stroke-miterlimit:4;stroke-dasharray:none;stroke-opacity:1" />
      <path
         style="fill:none;fill-opacity:1;stroke:#ececec;stroke-width:1.89884;stroke-linecap:round;stroke-linejoin:miter;stroke-miterlimit:4;stroke-dasharray:none;stroke-opacity:1"
         d="m 65.380592,31.978828 c -4.844145,6.252297 -4.109662,5.649157 -4.79727,6.79097 -1.622031,6.851331 -2.218557,11.130813 -3.849643,17.899632"
         id="path8716"
         inkscape:connector-curvature="0"
         sodipodi:nodetypes="ccc" />
      <path
         sodipodi:nodetypes="cccc"
         inkscape:connector-curvature="0"
         id="path8718"
         d="m 31.66271,37.833441 c 5.355804,-5.075728 7.816328,-1.155853 10.503881,-0.329965 3.303382,-3.841535 4.660648,-3.822774 8.4727,-0.241951 2.914409,-2.839336 7.470518,-2.8371 10.2803,0.241951"
         style="fill:none;fill-opacity:1;stroke:#ececec;stroke-width:1.89884;stroke-linecap:butt;stroke-linejoin:miter;stroke-miterlimit:4;stroke-dasharray:none;stroke-opacity:1" />
      <path
         sodipodi:nodetypes="ccccc"
         inkscape:connector-curvature="0"
         id="path8722"
         d="m 39.634611,55.84006 c -2.592578,-3.914807 -2.216812,-4.060205 2.728774,-4.998649 -0.745516,-5.002369 7.894027,-4.950468 7.477698,0.03804 4.271036,0.485973 5.581838,0.95303 2.944534,4.710005 -5.800933,-1.120762 -7.751755,-1.117524 -13.151006,0.250604 z"
         style="display:inline;fill:#ececec;fill-opacity:1;stroke:none;stroke-width:2;stroke-linecap:butt;stroke-linejoin:miter;stroke-miterlimit:4;stroke-dasharray:none;stroke-opacity:1" />
      <path
         d="m 48.653218,60.585037 a 2.7839172,2.7839172 0 0 1 -2.60184,2.777957 2.7839172,2.7839172 0 0 1 -2.942178,-2.414583 2.7839172,2.7839172 0 0 1 2.216986,-3.093799 2.7839172,2.7839172 0 0 1 3.232172,2.009894"
         sodipodi:arc-type="arc"
         sodipodi:open="true"
         sodipodi:end="6.0213859"
         sodipodi:start="0"
         sodipodi:ry="2.7839172"
         sodipodi:rx="2.7839172"
         sodipodi:cy="60.585037"
         sodipodi:cx="45.869301"
         sodipodi:type="arc"
         style="opacity:1;fill:#ececec;fill-opacity:1;stroke:none;stroke-width:1.53582;stroke-linecap:square;stroke-linejoin:miter;stroke-miterlimit:4;stroke-dasharray:none;stroke-opacity:1;paint-order:normal"
         id="ellipse1567" />
    </g>
    <path
       style="stroke-width:1.5;stroke-linecap:round;stroke-linejoin:round;stroke-miterlimit:4;stroke-dasharray:none"
       sodipodi:nodetypes="cc"
       d="m -30.688318,28.661648 c 7.44776,-2.590974 13.975914,-2.590974 21.4236742,0"
       fill="none"
       stroke="#ececec"
       id="path9340-5" />
    <path
       id="path1764"
       stroke="#ececec"
       fill="none"
       d="m -29.43275,36.183756 c 6.756613,-2.080878 12.09277,-2.052437 18.849382,0"
       sodipodi:nodetypes="cc"
       style="stroke-width:1.5;stroke-linecap:round;stroke-linejoin:round;stroke-miterlimit:4;stroke-dasharray:none" />
  </g>
</svg>
