<svg height="45" width="45" xmlns="http://www.w3.org/2000/svg"><g transform="translate(42.652773 .494082)"><g transform="matrix(.78995423 0 0 .78995423 -56.387423 -17.143233)"><path d="m46.213835 59.000144c-4.337713-.106113-8.805939.133592-14.547379-.393637-3.058483-4.365293-7.669835-20.160522-6.59342-27.568225 8.133658-4.954192 35.196714-5.374469 41.572966.164983 1.076415 7.407703-2.923901 22.91519-5.982386 27.280482"/><path d="m31.268708 57.912189c.303804 3.771269.984734 7.129255 2.001421 10.900524 4.677097 2.079376 8.290066 2.312316 12.581636 2.411335 4.291572-.07951 9.098353-.716921 13.005531-2.521323 1.016687-3.771269 2.010052-7.461209 2.358048-11.14409l-15.014146 1.158821z"/><g fill="none" stroke="#ececec" stroke-width="1.89884"><path d="m50.482706 37.019363-2.276915 11.784646"/><path d="m42.155289 37.590934 1.420123 10.899289"/><path d="m26.537705 31.904655c2.719145 3.377296 4.42211 4.930889 5.109717 6.072702 1.61736 6.763907 2.387096 11.649126 3.989124 18.475011" stroke-linecap="round"/><path d="m65.380592 31.978828c-4.844145 6.252297-4.109662 5.649157-4.79727 6.79097-1.622031 6.851331-2.218557 11.130813-3.849643 17.899632" stroke-linecap="round"/><path d="m31.66271 37.833441c5.355804-5.075728 7.816328-1.155853 10.503881-.329965 3.303382-3.841535 4.660648-3.822774 8.4727-.241951 2.914409-2.839336 7.470518-2.8371 10.2803.241951"/></g><path d="m39.634611 55.84006c-2.592578-3.914807-2.216812-4.060205 2.728774-4.998649-.745516-5.002369 7.894027-4.950468 7.477698.03804 4.271036.485973 5.581838.95303 2.944534 4.710005-5.800933-1.120762-7.751755-1.117524-13.151006.250604z" fill="#ececec"/><path d="m48.653218 60.585037a2.7839172 2.7839172 0 0 1 -2.60184 2.777957 2.7839172 2.7839172 0 0 1 -2.942178-2.414583 2.7839172 2.7839172 0 0 1 2.216986-3.093799 2.7839172 2.7839172 0 0 1 3.232172 2.009894" fill="#ececec"/></g><g fill="none" stroke="#ececec" stroke-linecap="round" stroke-linejoin="round" stroke-width="1.5"><path d="m-30.688318 28.661648c7.44776-2.590974 13.975914-2.590974 21.4236742 0"/><path d="m-29.43275 36.183756c6.756613-2.080878 12.09277-2.052437 18.849382 0"/></g></g></svg>