<svg height="45" width="45" xmlns="http://www.w3.org/2000/svg"><g transform="translate(-44.155826)"><rect height="19.228796" ry="1.737164" width="30.193336" x="51.559162" y="13.690013"/><g transform="matrix(.86355122 0 0 .86355122 42.713486 -.190083)"><circle cx="27.725443" cy="34.546993" r="14.910736"/><circle cx="27.725443" cy="34.546993" fill="none" r="11.022715" stroke="#ececec" stroke-linecap="round" stroke-linejoin="round" stroke-width="2.64769"/><g fill="#ececec"><path d="m16.877615 33.561227h21.695661v2.082327h-21.695661z"/><path d="m20.791084 26.195602 15.341149 15.34115-1.472427 1.472427-15.341149-15.34115z"/><path d="m34.659806 26.195602-15.341149 15.34115 1.472427 1.472427 15.341149-15.34115z"/><path d="m28.766608 23.754559v21.695663h-2.082327v-21.695663z"/></g></g><path d="m53.150259 16.562777h27.011138" fill="#ececec" stroke="#ececec" stroke-linecap="square" stroke-linejoin="bevel" stroke-width="2"/><g stroke="#000"><path d="m66.655826 15.317436v-7.4656766" fill="none" stroke-width="1.66847"/><path d="m49.720915 9.6860374c9.081491-.259818 15.667131-.813265 33.869823 0 0 0-11.470786-4.1538465-17.14793-4.1538465s-16.721894 4.1538465-16.721893 4.1538465z" stroke-linejoin="round"/></g></g></svg>