<svg height="92" width="92" xmlns="http://www.w3.org/2000/svg" xmlns:xlink="http://www.w3.org/1999/xlink"><filter id="a" color-interpolation-filters="sRGB" height="1.5" width="1.5" x="0" y="0"><feOffset dx="1" dy="1" in="SourceAlpha" result="offOut"/><feGaussianBlur in="offOut" result="blurOut" stdDeviation="1"/></filter><linearGradient id="b" gradientUnits="userSpaceOnUse" x1="10.900002" x2="10.900002" y1="4.900002" y2="83.099998"><stop offset=".1" stop-color="#fff" stop-opacity=".6"/><stop offset=".6" stop-color="#321e14" stop-opacity=".3"/></linearGradient><g transform="translate(-4 2)"><g><circle cx="50" cy="49" filter="url(#a)" opacity=".3" r="39"/><circle cx="50" cy="44" fill="#302010" r="39"/><circle cx="50" cy="44" fill="url(#b)" r="39.099998"/><circle cx="50" cy="44" fill="none" r="39" stroke="#421"/><circle cx="50" cy="44" fill="#483420" r="34.049999"/></g><path d="m33.757812 29.8125h14.601563c-.437519-1.093719-.984393-2.13278-1.640625-3.117188l3.117187-.984375c.984354 1.203159 1.804665 2.570345 2.460938 4.101563h14.273437v3.117187h-32.8125zm8.203125 3.9375 3.445313.820312c-.437516 1.4219-1.039078 2.789086-1.804688 4.101563 2.078109 1.421895 4.046857 3.062518 5.90625 4.921875l-2.296875 2.625c-1.640641-1.859359-3.335952-3.445295-5.085937-4.757813-1.859386 2.843766-3.828134 5.140639-5.90625 6.890625l-2.296875-2.460937c3.499992-3.171858 6.179676-7.218729 8.039062-12.140625m16.40625 0 3.117188.65625c-.546907 1.750024-1.203156 3.390647-1.96875 4.921875 2.515592 1.640644 4.867152 3.500017 7.054687 5.578125l-2.296875 2.460937c-1.968783-2.07811-4.101593-3.882795-6.398437-5.414062-1.312528 2.078141-2.789089 3.882827-4.429688 5.414062l-2.132812-2.460937c3.062475-2.953107 5.414035-6.671853 7.054687-11.15625m-26.90625 16.078125h17.226563v-3.117188h3.28125v3.117188h16.570312v3.117187h-16.570312v10.992188h-3.28125v-10.992188h-17.226563z" fill="#fff" stroke="#fff" stroke-width="1.25"/></g></svg>