<svg height="92" width="92" xmlns="http://www.w3.org/2000/svg" xmlns:xlink="http://www.w3.org/1999/xlink"><filter id="a" color-interpolation-filters="sRGB" height="1.5" width="1.5" x="0" y="0"><feOffset dx="1" dy="1" in="SourceAlpha" result="offOut"/><feGaussianBlur in="offOut" result="blurOut" stdDeviation="1"/></filter><linearGradient id="b" gradientUnits="userSpaceOnUse" x1="10.900002" x2="10.900002" y1="4.900002" y2="83.099998"><stop offset=".1" stop-color="#fff" stop-opacity=".6"/><stop offset=".6" stop-color="#321e14" stop-opacity=".3"/></linearGradient><g transform="translate(-4 2)"><g><circle cx="50" cy="49" filter="url(#a)" opacity=".3" r="39"/><circle cx="50" cy="44" fill="#302010" r="39"/><circle cx="50" cy="44" fill="url(#b)" r="39.099998"/><circle cx="50" cy="44" fill="none" r="39" stroke="#421"/><circle cx="50" cy="44" fill="#483420" r="34.049999"/></g><path d="m41.960937 26.039062h3.117188v37.734375h-3.117188v-14.929687h-4.265625c-.218758 7.546879-1.859381 12.523436-4.921875 14.929687l-1.96875-2.625c2.406246-1.859374 3.664058-5.960932 3.773438-12.304687h-3.445313v-2.953125h10.828125v-5.578125h-8.859375v-13.125h3.117188v10.171875h5.742187zm12.632813-.492187 3.117187.820312-.984375 2.132813h10.828125v2.953125c-2.73441 7.109396-9.187529 11.757829-19.359375 13.945312l-1.476562-3.117187c9.078098-1.531231 14.874967-5.140602 17.390625-10.828125h-9.023438l-.328125.328125c1.312473.875027 2.46091 1.804714 3.445313 2.789062l-1.804688 2.132813c-.984401-.984351-2.023462-1.914037-3.117187-2.789063-.437524.546901-.875023 1.039088-1.3125 1.476563.874976.656274 1.6406 1.421898 2.296875 2.296875l-1.476563 1.804687c-.875022-.874978-1.750022-1.69529-2.625-2.460937-.43752.437523-.929707.875022-1.476562 1.3125l-2.296875-2.296875c3.718729-3.171848 6.453101-6.671844 8.203125-10.5m-8.039063 21.164062h15.421875v-4.757812h3.28125v4.757812h3.9375v3.117188h-3.9375v9.1875c-.000036 1.749999-.32816 2.980467-.984375 3.691406-.656284.710934-1.914095 1.066403-3.773437 1.066406-1.31253-.000003-2.570341-.164066-3.773438-.492187l-.65625-3.609375c1.203097.4375 2.460908.65625 3.773438.65625.874968 0 1.449186-.136719 1.722656-.410156.273405-.273437.410124-.847656.410156-1.722657v-8.367187h-15.421875zm5.742188 4.429688c1.6406 1.859382 2.953099 3.82813 3.9375 5.90625l-2.625 1.476562c-.984399-1.968746-2.24221-3.882807-3.773438-5.742187z" fill="#fff" stroke="#fff" stroke-width="1.25"/></g></svg>