<svg height="92" width="92" xmlns="http://www.w3.org/2000/svg" xmlns:xlink="http://www.w3.org/1999/xlink"><filter id="a" color-interpolation-filters="sRGB" height="1.5" width="1.5" x="0" y="0"><feOffset dx="1" dy="1" in="SourceAlpha" result="offOut"/><feGaussianBlur in="offOut" result="blurOut" stdDeviation="1"/></filter><linearGradient id="b" gradientUnits="userSpaceOnUse" x1="10.900002" x2="10.900002" y1="4.900002" y2="83.099998"><stop offset=".1" stop-color="#fff" stop-opacity=".6"/><stop offset=".6" stop-color="#321e14" stop-opacity=".3"/></linearGradient><g transform="translate(-4 2)"><g><circle cx="50" cy="49" filter="url(#a)" opacity=".3" r="39"/><circle cx="50" cy="44" fill="#302010" r="39"/><circle cx="50" cy="44" fill="url(#b)" r="39.099998"/><circle cx="50" cy="44" fill="none" r="39" stroke="#421"/><circle cx="50" cy="44" fill="#483420" r="34.049999"/></g><path d="m49.835937 25.875 2.789063.65625c-.218773 1.312532-.492211 2.570343-.820313 3.773437h14.765625c-.000037 11.921893-.328162 18.94923-.984375 21.082032-.656285 2.132819-1.859409 3.199224-3.609375 3.199218-.437532.000006-.875032-.05468-1.3125-.164062l-.820312-3.117188c.984343.109384 1.69528.164072 2.132812.164063.437467.000009.765592-.765616.984375-2.296875.218716-1.531238.328091-6.781232.328125-15.75h-12.796875c-1.31252 3.281273-2.734393 5.906271-4.265625 7.875l-2.460937-2.296875c2.734358-3.499975 4.757793-7.874971 6.070312-13.125m9.679688 12.796875v12.140625h-7.875v8.039062c-.000023.546876.218727.875001.65625.984375.437476.109376 2.351537.164063 5.742187.164063 4.046842 0 6.316371-.246094 6.808594-.738281.492151-.492187.792932-1.777341.902344-3.855469l3.28125 1.148437c-.43754 2.734376-1.093789 4.539062-1.96875 5.414063-.765662.765622-3.773472 1.148434-9.023438 1.148437-4.812524-.000003-7.628927-.218752-8.449218-.65625-.820333-.437502-1.230488-1.421876-1.230469-2.953125v-20.835937zm-7.875 9.1875h4.59375v-6.070313h-4.59375zm-20.507813-19.195313h13.289063v3.117188h-5.742188c-.765633 3.828149-1.640633 7.109396-2.625 9.84375h7.054688v18.703125h-2.953125v-1.640625h-3.117188v3.773437h-2.953125v-16.078125c-.656254 1.531263-1.257816 2.734386-1.804687 3.609375l-2.132813-2.625c2.187497-3.937483 3.937495-9.13279 5.25-15.585937h-4.265625zm5.90625 27.070313h3.117188v-11.15625h-3.117188z" fill="#fff" stroke="#fff" stroke-width="1.25"/></g></svg>