<svg height="92" width="92" xmlns="http://www.w3.org/2000/svg" xmlns:xlink="http://www.w3.org/1999/xlink"><filter id="a" color-interpolation-filters="sRGB" height="1.5" width="1.5" x="0" y="0"><feOffset dx="1" dy="1" in="SourceAlpha" result="offOut"/><feGaussianBlur in="offOut" result="blurOut" stdDeviation="1"/></filter><linearGradient id="b" gradientUnits="userSpaceOnUse" x1="10.900002" x2="10.900002" y1="4.900002" y2="83.099998"><stop offset=".1" stop-color="#fff" stop-opacity=".6"/><stop offset=".6" stop-color="#321e14" stop-opacity=".3"/></linearGradient><g transform="translate(-4 2)"><g><circle cx="50" cy="49" filter="url(#a)" opacity=".3" r="39"/><circle cx="50" cy="44" fill="#302010" r="39"/><circle cx="50" cy="44" fill="url(#b)" r="39.099998"/><circle cx="50" cy="44" fill="none" r="39" stroke="#421"/><circle cx="50" cy="44" fill="#483420" r="34.049999"/></g><path d="m33.921875 49.5v-22.3125h32.648437v2.953125h-14.765625v3.445312h13.453125v2.953125h-13.453125v3.445313h13.453125v2.953125h-13.453125v3.445312h16.242188c-.109414 7.546882-.628945 12.332033-1.558594 14.355469-.929724 2.023435-2.433629 3.035153-4.511719 3.035156-1.312531-.000003-3.281279-.218753-5.90625-.65625l-.65625-3.609375c2.843721.437501 5.031219.65625 6.5625.65625.656217 0 1.148404-.546874 1.476563-1.640625.32809-1.093747.601527-4.101556.820312-9.023437zm14.4375-19.359375h-11.15625v3.445312h11.15625zm-11.15625 6.398437v3.445313h11.15625v-3.445313zm0 6.398438v3.445312h11.15625v-3.445312zm19.851562 7.710937c1.640596 1.968758 3.007782 4.156256 4.101563 6.5625l-3.117188 1.476563c-.984403-2.515621-2.242214-4.757806-3.773437-6.726563zm-22.804687.984375 3.445312 1.148438c-1.203132 3.718753-2.625006 6.890625-4.265625 9.515625l-3.28125-1.804688c1.859372-2.953122 3.226559-5.906244 4.101563-8.859375m15.421875.328125c1.859352 2.296881 3.117164 4.593754 3.773437 6.890625l-3.28125.984375c-.65627-2.515622-1.859394-4.921869-3.609375-7.21875zm-7.054688.328125c1.42186 2.625006 2.351547 5.30469 2.789063 8.039063l-3.609375.984375c-.328137-2.953123-1.148449-5.687496-2.460938-8.203125z" fill="#fff" stroke="#fff" stroke-width="1.25"/></g></svg>