<svg height="92" width="92" xmlns="http://www.w3.org/2000/svg" xmlns:xlink="http://www.w3.org/1999/xlink"><filter id="a" color-interpolation-filters="sRGB" height="1.5" width="1.5" x="0" y="0"><feOffset dx="1" dy="0" in="SourceAlpha" result="offOut"/><feGaussianBlur in="offOut" result="blurOut" stdDeviation="1"/></filter><linearGradient id="b" gradientUnits="userSpaceOnUse" x1="10.900002" x2="10.900002" y1="4.900002" y2="83.099998"><stop offset=".2" stop-color="#fff" stop-opacity=".6"/><stop offset=".5" stop-color="#dc0000" stop-opacity=".5"/></linearGradient><g transform="translate(-4 2)"><g><circle cx="50" cy="49.5" filter="url(#a)" opacity=".5" r="39"/><circle cx="50" cy="44" fill="#e21" r="39"/><circle cx="50" cy="44" fill="url(#b)" r="39.099998"/><circle cx="50" cy="44" fill="none" r="39.099998" stroke="#a00"/><circle cx="50" cy="44" fill="#e21" r="33.5"/></g><path d="m61.484375 27.023437 2.953125 2.953125c-8.640652 1.531279-16.296894 2.460966-22.96875 2.789063v4.757812h24.445312v3.117188h-7.875v9.1875h10.664063v3.117187h-37.242188v-3.117187h6.398438v-19.851563c8.968732-.546844 16.843724-1.531218 23.625-2.953125m-20.015625 22.804688h13.289062v-9.1875h-13.289062zm.820312 4.265625 2.789063 2.132812c-3.062513 2.953126-6.781259 5.468749-11.15625 7.546875l-2.460938-3.28125c4.046869-1.531248 7.65624-3.664059 10.828125-6.398437m14.765625.164062c3.937469 1.859379 7.601527 4.101565 10.992188 6.726563l-2.625 2.789062c-3.171908-2.734376-6.671905-4.976561-10.5-6.726562z" fill="#fff" stroke="#fff" stroke-width="1.25"/></g></svg>