<?xml version="1.0" encoding="UTF-8" standalone="no"?>
<svg
   xmlns:dc="http://purl.org/dc/elements/1.1/"
   xmlns:cc="http://creativecommons.org/ns#"
   xmlns:rdf="http://www.w3.org/1999/02/22-rdf-syntax-ns#"
   xmlns:svg="http://www.w3.org/2000/svg"
   xmlns="http://www.w3.org/2000/svg"
   xmlns:xlink="http://www.w3.org/1999/xlink"
   xmlns:sodipodi="http://sodipodi.sourceforge.net/DTD/sodipodi-0.dtd"
   xmlns:inkscape="http://www.inkscape.org/namespaces/inkscape"
   width="92" height="92"
   id="svg2"
   version="1.1"
   inkscape:version="0.48.5 r10040"
   sodipodi:docname="red_horse.svg">
  <metadata
     id="metadata12">
    <rdf:RDF>
      <cc:Work
         rdf:about="">
        <dc:format>image/svg+xml</dc:format>
        <dc:type
           rdf:resource="http://purl.org/dc/dcmitype/StillImage" />
        <dc:title />
      </cc:Work>
    </rdf:RDF>
  </metadata>
  <defs
     id="defs10">
    <filter
       height="1.5"
       width="1.5"
       y="0"
       x="0"
       id="f1"
       color-interpolation-filters="sRGB">
      <feOffset
         id="feOffset3039"
         dy="0"
         dx="1"
         in="SourceAlpha"
         result="offOut" />
      <feGaussianBlur
         id="feGaussianBlur3041"
         stdDeviation="1"
         in="offOut"
         result="blurOut" />
      <!--
      <feBlend in="SourceGraphic" in2="blurOut" mode="normal" />
-->
    </filter>
    <linearGradient
       y2="1"
       x2="0"
       y1="0"
       x1="0"
       id="grad1">
      <stop
         id="stop3034"
         style="stop-color:rgb(255,255,255);stop-opacity:0.6"
         offset="20%" />
      <stop
         id="stop3036"
         style="stop-color:rgb(220,0,0);stop-opacity:0.5"
         offset="50%" />
    </linearGradient>
    <linearGradient
       y2="1"
       x2="0"
       y1="0"
       x1="0"
       id="grad0">
      <stop
         id="stop3029"
         style="stop-color:rgb(0,0,0);stop-opacity:0.3"
         offset="20%" />
      <stop
         id="stop3031"
         style="stop-color:rgb(0,0,0);stop-opacity:0.6"
         offset="100%" />
    </linearGradient>
    <linearGradient
       inkscape:collect="always"
       xlink:href="#grad1"
       id="linearGradient3085"
       x1="10.900002"
       y1="4.9000015"
       x2="10.900002"
       y2="83.099998"
       gradientUnits="userSpaceOnUse" />
  </defs>
  <sodipodi:namedview
     pagecolor="#ffffff"
     bordercolor="#666666"
     borderopacity="1"
     objecttolerance="10"
     gridtolerance="10"
     guidetolerance="10"
     inkscape:pageopacity="0"
     inkscape:pageshadow="2"
     inkscape:window-width="1920"
     inkscape:window-height="1024"
     id="namedview8"
     showgrid="false"
     inkscape:zoom="2.6222222"
     inkscape:cx="-49.381356"
     inkscape:cy="45"
     inkscape:window-x="0"
     inkscape:window-y="0"
     inkscape:window-maximized="1"
     inkscape:current-layer="svg2"
     fit-margin-top="0"
     fit-margin-left="0"
     fit-margin-right="0"
     fit-margin-bottom="0" />
  <g
     id="use4"
     transform="translate(-4,2)">
    <circle
       d="m 89,49.5 c 0,21.539105 -17.460895,39 -39,39 -21.539105,0 -39,-17.460895 -39,-39 0,-21.539105 17.460895,-39 39,-39 21.539105,0 39,17.460895 39,39 z"
       style="opacity:0.5;fill:#000000;filter:url(#f1)"
       sodipodi:ry="39"
       sodipodi:rx="39"
       sodipodi:cy="49.5"
       sodipodi:cx="50"
       cx="50"
       cy="49.5"
       r="39"
       id="circle3075" />
    <circle
       d="M 89,44 C 89,65.539105 71.539105,83 50,83 28.460895,83 11,65.539105 11,44 11,22.460895 28.460895,5 50,5 71.539105,5 89,22.460895 89,44 z"
       style="fill:#ee2211"
       sodipodi:ry="39"
       sodipodi:rx="39"
       sodipodi:cy="44"
       sodipodi:cx="50"
       cx="50"
       cy="44"
       r="39"
       id="circle3077" />
    <circle
       d="M 89.099998,44 C 89.099998,65.594333 71.594333,83.099998 50,83.099998 28.405667,83.099998 10.900002,65.594333 10.900002,44 10.900002,22.405667 28.405667,4.9000015 50,4.9000015 71.594333,4.9000015 89.099998,22.405667 89.099998,44 z"
       style="fill:url(#linearGradient3085)"
       sodipodi:ry="39.099998"
       sodipodi:rx="39.099998"
       sodipodi:cy="44"
       sodipodi:cx="50"
       cx="50"
       cy="44"
       r="39.099998"
       id="circle3079" />
    <circle
       d="M 89.099998,44 C 89.099998,65.594333 71.594333,83.099998 50,83.099998 28.405667,83.099998 10.900002,65.594333 10.900002,44 10.900002,22.405667 28.405667,4.9000015 50,4.9000015 71.594333,4.9000015 89.099998,22.405667 89.099998,44 z"
       style="fill:none;stroke:#aa0000;stroke-width:1"
       sodipodi:ry="39.099998"
       sodipodi:rx="39.099998"
       sodipodi:cy="44"
       sodipodi:cx="50"
       cx="50"
       cy="44"
       r="39.099998"
       id="circle3081" />
    <circle
       d="M 83.5,44 C 83.5,62.501539 68.501539,77.5 50,77.5 31.498461,77.5 16.5,62.501539 16.5,44 16.5,25.498461 31.498461,10.5 50,10.5 68.501539,10.5 83.5,25.498461 83.5,44 z"
       style="fill:#ee2211"
       sodipodi:ry="33.5"
       sodipodi:rx="33.5"
       sodipodi:cy="44"
       sodipodi:cx="50"
       cx="50"
       cy="44"
       r="33.5"
       id="circle3083" />
  </g>
  <g
     style="font-size:42px;font-weight:normal;text-anchor:middle;fill:#ffffff;stroke:#ffffff;stroke-width:1.25;font-family:'WenQuanYi Micro Hei, Arial'"
     id="text6"
     transform="translate(-4,2)">
    <path
       d="m 39.335937,26.039062 3.28125,0.984375 c -0.875012,2.515656 -1.859386,5.031278 -2.953125,7.546875 l 0,29.203125 -3.28125,0 0,-22.96875 C 35.070306,42.88283 33.70312,44.79689 32.28125,46.546875 l -1.640625,-3.28125 c 4.046869,-5.468728 6.945304,-11.21091 8.695312,-17.226563 m 27.5625,1.3125 0,2.789063 -8.859375,0 0,3.28125 7.875,0 0,2.953125 -7.875,0 0,3.28125 7.875,0 0,2.953125 -7.875,0 0,3.117187 9.679688,0 c -0.218789,8.421881 -0.82035,13.535157 -1.804688,15.339844 -0.98441,1.804685 -2.734409,2.707028 -5.25,2.707031 -1.31253,-3e-6 -3.390653,-0.164066 -6.234375,-0.492187 L 53.773437,60 c 3.281222,0.328125 5.523408,0.492187 6.726563,0.492187 1.203092,0 1.968717,-0.546874 2.296875,-1.640625 0.546841,-1.421872 0.98434,-4.812494 1.3125,-10.171875 l -19.851563,0 0,-21.328125 22.640625,0 m -11.976562,6.070313 0,-3.28125 -7.546875,0 0,3.28125 7.546875,0 m 0,6.234375 0,-3.28125 -7.546875,0 0,3.28125 7.546875,0 m -7.546875,2.953125 0,3.117187 7.546875,0 0,-3.117187 -7.546875,0 m 13.289062,7.382812 c 0.874968,1.750009 1.47653,3.718757 1.804688,5.90625 l -2.789063,0.984375 C 59.242157,54.695318 58.640595,52.671882 57.875,50.8125 l 2.789062,-0.820313 m -4.921875,0.65625 c 0.984348,2.187508 1.640597,4.375005 1.96875,6.5625 L 54.59375,58.03125 c -0.32815,-2.296871 -0.929712,-4.484369 -1.804688,-6.5625 l 2.953125,-0.820313 m -12.46875,0.65625 2.953125,0.820313 c -0.437516,3.17188 -1.367203,6.070314 -2.789062,8.695312 L 40.484375,59.34375 c 1.531237,-2.624997 2.460924,-5.304682 2.789062,-8.039063 m 7.21875,0.164063 c 0.874978,2.406256 1.47654,4.812504 1.804688,7.21875 l -3.117188,0.820312 c -0.328144,-2.624996 -0.875019,-5.031244 -1.640625,-7.21875 l 2.953125,-0.820312"
       style="font-size:42px;font-weight:normal;text-anchor:middle;fill:#ffffff;stroke:#ffffff;stroke-width:1.25;font-family:'WenQuanYi Micro Hei, Arial'"
       id="path3088"
       inkscape:connector-curvature="0" />
  </g>
</svg>

