<svg height="92" width="92" xmlns="http://www.w3.org/2000/svg" xmlns:xlink="http://www.w3.org/1999/xlink"><filter id="a" color-interpolation-filters="sRGB" height="1.5" width="1.5" x="0" y="0"><feOffset dx="1" dy="0" in="SourceAlpha" result="offOut"/><feGaussianBlur in="offOut" result="blurOut" stdDeviation="1"/></filter><linearGradient id="b" gradientUnits="userSpaceOnUse" x1="10.900002" x2="10.900002" y1="4.900002" y2="83.099998"><stop offset=".2" stop-color="#fff" stop-opacity=".6"/><stop offset=".5" stop-color="#dc0000" stop-opacity=".5"/></linearGradient><g transform="translate(-4 2)"><g><circle cx="50" cy="49.5" filter="url(#a)" opacity=".5" r="39"/><circle cx="50" cy="44" fill="#e21" r="39"/><circle cx="50" cy="44" fill="url(#b)" r="39.099998"/><circle cx="50" cy="44" fill="none" r="39.099998" stroke="#a00"/><circle cx="50" cy="44" fill="#e21" r="33.5"/></g><path d="m56.890625 25.875h3.28125v6.070312h7.382812v20.34375c-.000038 1.421882-.300819 2.460943-.902343 3.117188-.6016.656254-1.503943.984379-2.707032.984375-.656284.000004-1.421908-.05468-2.296875-.164063l-.820312-3.28125c1.312467.109382 2.296841.16407 2.953125.164063.32809.000007.492152-.546868.492187-1.640625v-16.40625h-4.101562v28.710937h-3.28125v-28.710937h-4.101563v21.164062h-3.117187v-24.28125h7.21875zm-17.71875 0 3.609375.820312c-.437513 1.203158-.984388 2.351594-1.640625 3.445313h5.578125v12.632812h-10.992188v3.609375h11.648438v15.75h-3.28125v-2.789062h-8.367188v3.9375h-3.28125v-33.140625h5.085938c.765616-1.421844 1.31249-2.843717 1.640625-4.265625m-3.445313 13.945312h7.710938v-6.726562h-7.710938zm0 9.679688v6.890625h8.367188v-6.890625z" fill="#fff" stroke="#fff" stroke-width="1.25"/></g></svg>