<svg height="92" width="92" xmlns="http://www.w3.org/2000/svg" xmlns:xlink="http://www.w3.org/1999/xlink"><filter id="a" color-interpolation-filters="sRGB" height="1.5" width="1.5" x="0" y="0"><feOffset dx="1" dy="0" in="SourceAlpha" result="offOut"/><feGaussianBlur in="offOut" result="blurOut" stdDeviation="1"/></filter><linearGradient id="b" gradientUnits="userSpaceOnUse" x1="10.900002" x2="10.900002" y1="4.900002" y2="83.099998"><stop offset=".2" stop-color="#fff" stop-opacity=".6"/><stop offset=".5" stop-color="#dc0000" stop-opacity=".5"/></linearGradient><g transform="translate(-4 2)"><g><circle cx="50" cy="49.5" filter="url(#a)" opacity=".5" r="39"/><circle cx="50" cy="44" fill="#e21" r="39"/><circle cx="50" cy="44" fill="url(#b)" r="39.099998"/><circle cx="50" cy="44" fill="none" r="39.099998" stroke="#a00"/><circle cx="50" cy="44" fill="#e21" r="33.5"/></g><path d="m37.53125 26.039062h2.953125v8.367188c1.640612-1.531223 2.953111-3.117159 3.9375-4.757813l2.460937 1.96875c-1.640641 2.515651-3.773451 4.757837-6.398437 6.726563v4.757812c-.000011 1.968765-.109386 3.937513-.328125 5.90625 2.296862 2.953134 4.320297 5.796881 6.070312 8.53125l-2.132812 3.117188c-1.531264-2.953123-3.117199-5.632808-4.757813-8.039063-1.312509 4.484378-3.281257 8.148437-5.90625 10.992188l-2.789062-2.132813c4.593744-5.031246 6.890616-11.15624 6.890625-18.375zm-4.757813 7.382813 3.117188.65625c-.328132 4.812521-1.148443 9.023454-2.460938 12.632812l-2.953125-1.804687c1.203123-3.390607 1.968747-7.218728 2.296875-11.484375m17.0625-7.546875 2.789063.65625c-.218773 1.312532-.492211 2.570343-.820313 3.773437h14.765625c-.000037 11.921893-.328162 18.94923-.984375 21.082032-.656285 2.132819-1.859409 3.199224-3.609375 3.199218-.437532.000006-.875032-.05468-1.3125-.164062l-.820312-3.117188c.984343.109384 1.69528.164072 2.132812.164063.437467.000009.765592-.765616.984375-2.296875.218716-1.531238.328091-6.781232.328125-15.75h-12.796875c-1.31252 3.281273-2.734393 5.906271-4.265625 7.875l-2.460937-2.296875c2.734358-3.499975 4.757793-7.874971 6.070312-13.125m9.679688 12.796875v12.140625h-7.875v8.039062c-.000023.546876.218727.875001.65625.984375.437476.109376 2.351537.164063 5.742187.164063 4.046842 0 6.316371-.246094 6.808594-.738281.492151-.492187.792932-1.777341.902344-3.855469l3.28125 1.148437c-.43754 2.734376-1.093789 4.539062-1.96875 5.414063-.765662.765622-3.773472 1.148434-9.023438 1.148437-4.812524-.000003-7.628927-.218752-8.449218-.65625-.820333-.437502-1.230488-1.421876-1.230469-2.953125v-20.835937zm-7.875 9.1875h4.59375v-6.070313h-4.59375z" fill="#fff" stroke="#fff" stroke-width="1.25"/></g></svg>