<?xml version="1.0" encoding="UTF-8" standalone="no"?>
<svg
   xmlns:dc="http://purl.org/dc/elements/1.1/"
   xmlns:cc="http://creativecommons.org/ns#"
   xmlns:rdf="http://www.w3.org/1999/02/22-rdf-syntax-ns#"
   xmlns:svg="http://www.w3.org/2000/svg"
   xmlns="http://www.w3.org/2000/svg"
   xmlns:xlink="http://www.w3.org/1999/xlink"
   xmlns:sodipodi="http://sodipodi.sourceforge.net/DTD/sodipodi-0.dtd"
   xmlns:inkscape="http://www.inkscape.org/namespaces/inkscape"
   width="177.17"
   height="177.17"
   shape-rendering="geometricPrecision"
   image-rendering="optimizeQuality"
   fill-rule="evenodd"
   clip-rule="evenodd"
   viewBox="0 0 50 50"
   version="1.1"
   id="svg10137"
   sodipodi:docname="bM.svg"
   inkscape:version="0.92.4 (5da689c313, 2019-01-14)"
   inkscape:export-filename="D:\Pictures\Chess Variants\Chess\pieces\Shogun\BlackMortar.png"
   inkscape:export-xdpi="198.53"
   inkscape:export-ydpi="198.53">
  <metadata
     id="metadata10141">
    <rdf:RDF>
      <cc:Work
         rdf:about="">
        <dc:format>image/svg+xml</dc:format>
        <dc:type
           rdf:resource="http://purl.org/dc/dcmitype/StillImage" />
        <dc:title></dc:title>
      </cc:Work>
    </rdf:RDF>
  </metadata>
  <sodipodi:namedview
     pagecolor="#ffffff"
     bordercolor="#666666"
     borderopacity="1"
     objecttolerance="10"
     gridtolerance="10"
     guidetolerance="10"
     inkscape:pageopacity="0"
     inkscape:pageshadow="2"
     inkscape:window-width="1920"
     inkscape:window-height="1017"
     id="namedview10139"
     showgrid="false"
     inkscape:zoom="2.6641079"
     inkscape:cx="-17.005271"
     inkscape:cy="117.34301"
     inkscape:window-x="-8"
     inkscape:window-y="-8"
     inkscape:window-maximized="1"
     inkscape:current-layer="svg10137" />
  <defs
     id="defs10131">
    <linearGradient
       id="0"
       x1="21.376"
       x2="77.64"
       gradientUnits="userSpaceOnUse"
       gradientTransform="translate(5.0935658,27.115748)">
      <stop
         stop-color="#fff"
         id="stop10126" />
      <stop
         offset="1"
         stop-color="#fff"
         stop-opacity="0"
         id="stop10128" />
    </linearGradient>
    <linearGradient
       gradientTransform="translate(17.679678,31.473797)"
       id="0-2"
       x1="21.190001"
       y1="37.551998"
       x2="77.739998"
       y2="37.429001"
       gradientUnits="userSpaceOnUse"
       xlink:href="#linearGradient940">
      <stop
         stop-color="#fff"
         id="stop15856" />
      <stop
         offset="1"
         stop-color="#fff"
         stop-opacity="0"
         id="stop15858" />
    </linearGradient>
    <linearGradient
       inkscape:collect="always"
       xlink:href="#linearGradient940"
       id="linearGradient16471"
       x1="93.92865"
       y1="104.95064"
       x2="144.68373"
       y2="104.95064"
       gradientUnits="userSpaceOnUse" />
    <linearGradient
       id="linearGradient940"
       inkscape:collect="always">
      <stop
         id="stop936"
         offset="0"
         style="stop-color:#ffe680;stop-opacity:1" />
      <stop
         id="stop938"
         offset="1"
         style="stop-color:#b89200;stop-opacity:1" />
    </linearGradient>
    <linearGradient
       inkscape:collect="always"
       xlink:href="#linearGradient940"
       id="linearGradient2946"
       x1="29.989677"
       y1="45.766796"
       x2="55.364677"
       y2="45.766796"
       gradientUnits="userSpaceOnUse" />
  </defs>
  <g
     id="g10710"
     transform="matrix(0.88963841,-0.16235103,0.16235103,0.88963841,0.63252059,6.8524838)">
    <path
       sodipodi:nodetypes="cccsssc"
       inkscape:connector-curvature="0"
       id="path10688"
       d="M 20.598979,27.528386 6.5916734,17.715781 16.01534,5.8058262 36.104392,18.38993 c 3.359829,2.104651 5.245889,8.165002 3.071121,11.01109 -2.01284,2.634176 -6.336052,4.927633 -9.812605,2.996215 z"
       style="fill:#1f1a17;fill-opacity:1;stroke:#1f1a17;stroke-width:1.87242186;stroke-linecap:butt;stroke-linejoin:miter;stroke-miterlimit:4;stroke-dasharray:none;stroke-opacity:1" />
    <path
       sodipodi:nodetypes="ccsccsc"
       inkscape:connector-curvature="0"
       id="path10690"
       d="M 12.658898,22.245762 22.82839,9.5868642 c 0,0 1.215432,-0.7616529 1.747881,-0.4766949 0.639924,0.342477 0.688559,2.0656777 0.688559,2.0656777 l -10.169491,12.76483 c 0,0 -1.726503,0.81767 -2.330509,0.317797 -0.517574,-0.428342 -0.105932,-2.012712 -0.105932,-2.012712 z"
       style="fill:#ffe680;stroke:#1f1a17;stroke-width:1.56035157;stroke-linecap:butt;stroke-linejoin:miter;stroke-miterlimit:4;stroke-dasharray:none;stroke-opacity:1" />
    <path
       sodipodi:nodetypes="ccsccsc"
       inkscape:connector-curvature="0"
       id="path10690-3"
       d="M 3.5726054,15.914934 13.212436,3.9975604 c 0,0 1.480263,-1.1324157 2.012712,-0.8474577 0.639924,0.342477 0.790192,2.6557235 0.790192,2.6557235 L 6.5916734,17.715781 c 0,0 -2.30913,0.711738 -2.913136,0.211865 -0.517574,-0.428342 -0.105932,-2.012712 -0.105932,-2.012712 z"
       style="fill:#ffe680;stroke:#1f1a17;stroke-width:1.69328892;stroke-linecap:butt;stroke-linejoin:miter;stroke-miterlimit:4;stroke-dasharray:none;stroke-opacity:1" />
  </g>
  <path
     style="fill:#1f1a17;fill-opacity:1;stroke:#1f1a17;stroke-width:1.69328892;stroke-linecap:butt;stroke-linejoin:round;stroke-miterlimit:4;stroke-dasharray:none;stroke-opacity:1"
     d="m 21.590698,33.741618 2.202811,-8.650492 c 0.995427,-3.909066 11.466536,-3.745608 12.470169,0 l 2.339932,8.732741 v 3.958562 H 21.533158 Z"
     id="path10686"
     inkscape:connector-curvature="0"
     sodipodi:nodetypes="csscccc" />
  <g
     id="g16445"
     transform="translate(-12.586112,-4.358049)">
    <path
       sodipodi:nodetypes="ccccccccccccccc"
       style="fill:#1f1a17;stroke-width:1"
       inkscape:connector-curvature="0"
       id="path15863"
       d="m 46.087678,40.693797 h 4.216 v -3.395 h 6.796 v 9.295 l -5.5,4.243 h -17.81 l -5.508,-4.243 v -9.295 h 6.774 v 3.395 h 4.242 v -3.395 h 6.79 z" />
    <path
       sodipodi:nodetypes="cccccccc"
       style="fill:url(#linearGradient2946);stroke-width:1;fill-opacity:1.0"
       inkscape:connector-curvature="0"
       id="path15865"
       d="m 42.689678,44.513797 h -12.7 v 1.143 l 1.812,1.363 h 21.802 l 1.761,-1.363 v -1.143 h -12.675" />
  </g>
  <path
     style="fill:url(#linearGradient16471);fill-opacity:1.0;stroke:none;stroke-width:5.5186615;stroke-linecap:butt;stroke-linejoin:round;stroke-miterlimit:4;stroke-dasharray:none;stroke-opacity:1"
     d="m 106.4043,79.591797 c -9.346101,-0.06659 -18.688431,2.985376 -20.31055,9.355469 l -7.179688,28.193354 -0.1875,13.16993 h 15.76286 l 0.160342,-13.5883 23.695976,-0.0361 -0.0349,13.62441 h 3.3841 12.66639 V 117.4082 l -7.625,-28.460934 c -1.63549,-6.103727 -10.98594,-9.288878 -20.33203,-9.355469 z m 0.0273,4.974609 c 7.51314,0.05353 15.02901,2.612869 16.34375,7.519532 l 5.00478,18.749942 -42.695426,-0.21484 5.018812,-18.535102 c 1.303989,-5.120789 8.814985,-7.573063 16.328124,-7.519532 z"
     transform="scale(0.28221482)"
     id="path16460"
     inkscape:connector-curvature="0"
     sodipodi:nodetypes="scccccccccccscccccsc" />
</svg>
