<?xml version="1.0" encoding="UTF-8"?>
<svg id="svg3" width="100mm" height="100mm" version="1.1" xml:space="preserve" xmlns="http://www.w3.org/2000/svg" xmlns:xlink="http://www.w3.org/1999/xlink"><defs id="defs3"><linearGradient id="linearGradient10" x1="11.558" x2="29.346" y1="14.482" y2="14.782" gradientUnits="userSpaceOnUse"><stop id="stop3" stop-color="#fad028" offset="0"/><stop id="stop4" stop-color="#856a02" offset="1"/></linearGradient><linearGradient id="linearGradient24" x1="78.384" x2="313.15" y1="130.83" y2="130.83" gradientTransform="matrix(1.013 0 0 1.013 -4.5651 58.441)" gradientUnits="userSpaceOnUse"><stop id="stop15" stop-color="#fad028" offset="0"/><stop id="stop16" stop-color="#856a02" offset="1"/></linearGradient></defs><g id="g17" transform="translate(-1163.9)"><g id="use8" transform="rotate(45 1167.6 639.88)" stroke="#000"><g id="g18" transform="matrix(.96355 0 0 .96355 788.68 14.394)"><path id="path17" transform="matrix(1.0685 0 0 1.0685 -12.399 -12.41)" d="m43.173 181.19c0.0323-18.466 2.2625-36.018 11.709-52.51 1.9809-2.3614 5.7765-1.5983 8.1152-0.32197 9.7578 5.3253 18.572 5.707 32.594 10.898 3.726-4.3919 12.27-8.6005 14.612 1.9987 38.914 6.7174 68.786 3.7926 92.774-0.25923 4.151-7.608 6.5047-8.653 10.936-2.1144 44.117-14.896 88.511-3.281 103.67 19.118 0 14.404 0.1042 12.083-0.15002 22.482-0.0573 2.3425 6.687-9.3727 6.9394 0.56326-0.24208 9.9362-6.9985-1.772-6.9388 0.57044 0.26499 10.398 0.15838 8.0775 0.1733 22.482-15.139 22.415-59.521 34.075-103.65 19.225-4.4245 6.5432-6.7793 5.5006-10.938-2.1031-23.991-4.027-53.867-6.9208-92.774-0.16315-2.3309 10.602-10.879 6.4018-14.61 2.0138-14.016 5.2059-22.831 5.5968-32.583 10.932-2.3373 1.2787-6.1322 2.0458-8.1155-0.31357-9.4631-16.483-11.712-34.032-11.763-52.498z" fill="url(#linearGradient24)" stroke-width="11.339"/><path id="path18" d="m97.036 227.9c-7.8541-30.498-10.973-66.184 2.1064-91.609" fill="none" stroke-width="12.115"/></g><path id="path19" d="m842.36 138.11c-16.721 38.897-11.717 71.625-0.46184 102.01" fill="none" stroke-width="11.339"/><path id="path20" transform="translate(775.91)" d="m214.75 146.95c-8.3191 27.411-6.2598 56.356-0.36673 85.209m0.36673-1.1537c-8.3191-27.411-6.2598-56.356-0.36673-85.209" fill="none" stroke-width="11.339"/><path id="path21" d="m1094.1 155.93c0.7451 22.701 0.4139 45.015 0 65.974" fill="none" stroke-width="11.339"/></g><g id="g8" transform="matrix(1.1379 0 0 1.1379 1154 -86.587)"><g id="g2-9-8" transform="matrix(.74692 0 0 .74692 44.38 85.666)"><g id="g6-2-5" transform="translate(22,-16)"><g id="g5-8-9" transform="translate(266.24 137.64)"><g id="g26"/></g></g></g></g></g><g id="use29" transform="translate(-1544 -27.62)" fill="none" stroke="#000" stroke-width="15.18"><path id="circle30" transform="matrix(.84992 0 0 .84992 1449.5 114.28)" d="m371.3 178.86a65.205 65.205 0 0 1-65.205 65.205 65.205 65.205 0 0 1-65.205-65.205 65.205 65.205 0 0 1 65.205-65.205 65.205 65.205 0 0 1 65.205 65.205z"/><path id="path30" transform="matrix(.84776 -.060636 .060636 .84776 2013.9 316.69)" d="m-352.62-86.179 44.216 51.458-44.612-51.115-5.1209 67.652 4.5981-67.689-51.458 44.216 51.115-44.612-67.652-5.1209 67.689 4.5981-44.216-51.458 44.612 51.115 5.1209-67.652-4.5981 67.689 51.458-44.216-51.115 44.612 67.652 5.1209z"/></g></svg>
