<?xml version="1.0" encoding="UTF-8"?>
<!-- Created with Inkscape (http://www.inkscape.org/) -->
<svg id="svg1" width="100mm" height="100mm" version="1.1" viewBox="0 0 100 100" xml:space="preserve" xmlns="http://www.w3.org/2000/svg" xmlns:xlink="http://www.w3.org/1999/xlink"><defs id="defs1"><linearGradient id="linearGradient12"><stop id="stop11" stop-color="#fad028" offset="0"/><stop id="stop12" stop-color="#856a02" offset="1"/></linearGradient><linearGradient id="linearGradient7" x1="41.682" x2="61.967" y1="367.81" y2="367.81" gradientTransform="scale(1.3504 .74054)" gradientUnits="userSpaceOnUse"><stop id="stop5" stop-color="#fad028" offset="0"/><stop id="stop6" stop-color="#856a02" offset="1"/></linearGradient><linearGradient id="linearGradient8" x1="55.188" x2="84.777" y1="287.6" y2="287.6" gradientUnits="userSpaceOnUse" xlink:href="#linearGradient12"/></defs><g id="g1" transform="translate(0,-1.5875)"><g id="g5-3-1-8-8" transform="matrix(2.7577 0 0 2.7577 -142.99 -733.89)" stroke="#000" stroke-width="1.0879"><path id="path4-08-2-0-8-7-0-3" d="m62.417 286.36c-1.9018 1.3272-3.3405 5.2833-3.3405 12.248 1.4531 0 0.73632-2.452 10.906-2.4772 10.169 0.0252 9.4525 2.4772 10.906 2.4772 0-6.9645-1.4387-10.921-3.3405-12.248" fill="url(#linearGradient8)"/><path id="path5-5-8-62-1-9-1-8" d="m64.391 285.03c-0.99798 0.0126-1.73 0.28969-1.7617 1.0879-0.2104 5.3019 2.4405 11.134 7.3535 11.92 4.913-0.78586 7.5639-6.6181 7.3535-11.92-0.09215-2.3221-6.1152-0.23723-7.3535-0.0449-0.81266-0.1262-3.6866-1.067-5.5918-1.043z" fill="url(#linearGradient8)"/><path id="path3-11-6-36-56-5-2-7" d="m64.943 284.76c-1.793-1.622-4.9076-1.8516-7.2725-1.8327l0.0073 2.6503c4.8985 0.16169 5.904 1.6886 12.304 1.9069 6.4001-0.21828 7.4056-1.7452 12.304-1.9069l0.0073-2.6503c-2.3649-0.019-5.4795 0.21065-7.2725 1.8327" fill="url(#linearGradient8)"/><path id="path16-5" d="m59.979 272.99c-0.76783 0.0243-1.6085 0.56028-2.9062 1.6992 6.4045 4.559 3.3241 12.279 12.885 12.098 0.0084-1.7e-4 0.017 1.4e-4 0.02539 0 0.0084 1.4e-4 0.01697-1.7e-4 0.02539 0 9.5607 0.18123 6.4803-7.5386 12.885-12.098-1.2977-1.1389-2.1384-1.6749-2.9062-1.6992-0.76782-0.0242-1.463 0.46312-2.4688 1.377-1.1133-0.51476-2.0514-0.71557-3.4609 1.4961 2.47 0.85385 1.8747 7.0366-3.6777 7.8086-0.13348 0.0186-0.26624 0.0333-0.39648 0.0449-0.13024-0.0116-0.263-0.0263-0.39648-0.0449-5.5525-0.77202-6.1477-6.9547-3.6777-7.8086-1.4096-2.2117-2.3476-2.0109-3.4609-1.4961-1.0058-0.91383-1.7009-1.4012-2.4688-1.377z" fill="url(#linearGradient7)"/></g></g></svg>
