<?xml version="1.0" encoding="UTF-8"?>
<!-- Created with Inkscape (http://www.inkscape.org/) -->
<svg id="svg1" width="100mm" height="100mm" version="1.1" viewBox="0 0 100 100" xml:space="preserve" xmlns="http://www.w3.org/2000/svg" xmlns:xlink="http://www.w3.org/1999/xlink"><defs id="defs1"><linearGradient id="linearGradient11"><stop id="stop12" stop-color="#fad028" offset="0"/><stop id="stop11" stop-color="#856a02" offset="1"/></linearGradient><linearGradient id="linearGradient12" x1="8.8172" x2="46.837" y1="25.118" y2="25.118" gradientUnits="userSpaceOnUse" xlink:href="#linearGradient11"/><linearGradient id="linearGradient18" x1="20.806" x2="40.089" y1="31.732" y2="31.732" gradientUnits="userSpaceOnUse" xlink:href="#linearGradient11"/><linearGradient id="linearGradient21" x1="15.535" x2="46.837" y1="24.941" y2="25.118" gradientUnits="userSpaceOnUse" xlink:href="#linearGradient11"/></defs><g id="layer1" transform="translate(-125.15 -166.69)"><g id="g1" transform="matrix(1.1143 0 0 1.1143 -19.912 -29.025)" stroke="#1f1a17"><g id="g3" transform="matrix(1.5768 0 0 1.5768 131.27 184.49)" clip-rule="evenodd" fill="url(#linearGradient12)" fill-rule="evenodd" image-rendering="optimizeQuality" shape-rendering="geometricPrecision" stroke-width="1.7074"><path id="path4" transform="translate(-.058382)" d="m27.807 1.4018c-0.25796 14.216-4.8 25.687-14.542 31.126 4.5223 1.4536 12.044 5.0193 14.564 7.7298 2.5197-2.7104 10.042-6.2762 14.564-7.7298-9.7425-5.4384-14.285-16.91-14.542-31.126" fill="url(#linearGradient18)"/><g id="g7" stroke-linecap="square"><path id="path5" d="m26.705 45.01 2.1923 0.0031 0.04609-4.9734-2.2312-0.0382z" fill="#1f1a17"/><path id="path7" d="m27.384 2.3663c-4.3524 4.2433-11.148 9.1227-10.391 16.478 0.31592 3.0682 3.7197 6.7976 7.3496 8.1039 8.4978 3.0581 21.478 4.2999 22.732 4.3162-1.0316-1.0274-4.1173-2.6974-4.4753-2.9589l4.8081-0.85143c-0.50089-0.49458-3.4853-1.4636-4.717-1.6679-6.5491-1.0865-14.17-1.1768-18.551-4.2054-3.9857-2.7555-4.7882-6.7808-0.70532-13.02 4.0829-6.2393 4.0334-6.2792 3.9498-6.1941z" fill="url(#linearGradient21)"/></g></g><path id="path20" d="m175.15 235.9v-7.0079" fill="#1f1a17" stroke-width="2.6924"/><path id="path21" d="m175.15 222.11v-2.8328" fill="#1f1a17" stroke-width="2.6924"/></g></g></svg>
