<?xml version="1.0" encoding="UTF-8"?>
<svg id="svg3" width="100mm" height="100mm" version="1.1" xml:space="preserve" xmlns="http://www.w3.org/2000/svg" xmlns:xlink="http://www.w3.org/1999/xlink"><defs id="defs3"><linearGradient id="linearGradient111" x1="78.384" x2="313.15" y1="130.83" y2="130.83" gradientTransform="matrix(1.013 0 0 1.013 -4.5651 58.441)" gradientUnits="userSpaceOnUse"><stop id="stop15" stop-color="#fad028" offset="0"/><stop id="stop16" stop-color="#856a02" offset="1"/></linearGradient></defs><g id="g34" transform="translate(-388.79 -389.07)"><g id="use33" transform="translate(-387.2 25.634)"><path id="path105" d="m861.34 649.6 11.799-47.819-46.134 17.246 35.778-33.849-48.135-10.434 48.399-9.1322-34.853-34.801 45.653 18.484-10.505-48.119c62.394 59.847 50.232 107.43-2.001 148.42z" fill="#ac8c0f" stroke="#000" stroke-width="4.469"/><g id="g110" transform="matrix(.77391 0 0 .77391 251.67 429.86)"><g id="g106" transform="matrix(.96355 0 0 .96355 788.68 14.394)"/><g id="g108" stroke="#000"><path id="path106" transform="matrix(1.0296 0 0 1.0296 776.73 2.4355)" d="m43.173 181.19c0.0323-18.466 2.2625-36.018 11.709-52.51 1.9809-2.3614 5.7765-1.5983 8.1152-0.32197 9.7578 5.3253 18.572 5.707 32.594 10.898 3.726-4.3919 12.27-8.6005 14.612 1.9987 38.914 6.7174 68.786 3.7926 92.774-0.25923 4.151-7.608 6.5047-8.653 10.936-2.1144 44.117-14.896 88.511-3.281 103.67 19.118 0 14.404 0.1042 12.083-0.15002 22.482-0.0573 2.3425 6.687-9.3727 6.9394 0.56326-0.24208 9.9362-6.9985-1.772-6.9388 0.57044 0.26499 10.398 0.15838 8.0775 0.1733 22.482-15.139 22.415-59.521 34.075-103.65 19.225-4.4245 6.5432-6.7793 5.5006-10.938-2.1031-23.991-4.027-53.867-6.9208-92.774-0.16315-2.3309 10.602-10.879 6.4018-14.61 2.0138-14.016 5.2059-22.831 5.5968-32.583 10.932-2.3373 1.2787-6.1322 2.0458-8.1155-0.31357-9.4631-16.483-11.712-34.032-11.763-52.498z" fill="url(#linearGradient111)" stroke-width="11.339"/><path id="path107" transform="matrix(.96355 0 0 .96355 788.68 14.394)" d="m97.036 227.9c-7.8541-30.498-10.973-66.184 2.1064-91.609" fill="none" stroke-width="12.115"/><path id="path108" d="m842.36 138.11c-16.721 38.897-11.717 71.625-0.46184 102.01" fill="none" stroke-width="11.339"/></g><path id="path109" transform="translate(775.91)" d="m214.75 146.95c-8.3191 27.411-6.2598 56.356-0.36673 85.209m0.36673-1.1537c-8.3191-27.411-6.2598-56.356-0.36673-85.209" fill="none" stroke="#000" stroke-width="11.339"/><path id="path110" d="m1094.1 155.93c0.7451 22.701 0.4139 45.015 0 65.974" fill="none" stroke="#000" stroke-width="11.339"/></g></g><g id="use34" transform="matrix(.57102 -.57102 .57265 .57265 -495.7 1465.3)" fill="none" stroke="#000" stroke-width="15.18"><path id="path111" transform="matrix(.84992 0 0 .84992 1449.5 114.28)" d="m371.3 178.86a65.205 65.205 0 0 1-65.205 65.205 65.205 65.205 0 0 1-65.205-65.205 65.205 65.205 0 0 1 65.205-65.205 65.205 65.205 0 0 1 65.205 65.205z"/><path id="path112" transform="matrix(.84776 -.060636 .060636 .84776 2013.9 316.69)" d="m-352.62-86.179 44.216 51.458-44.612-51.115-5.1209 67.652 4.5981-67.689-51.458 44.216 51.115-44.612-67.652-5.1209 67.689 4.5981-44.216-51.458 44.612 51.115 5.1209-67.652-4.5981 67.689 51.458-44.216-51.115 44.612 67.652 5.1209z"/></g></g></svg>
