<?xml version="1.0" encoding="UTF-8"?>
<!-- Created with Inkscape (http://www.inkscape.org/) -->
<svg id="svg1" width="100mm" height="100mm" version="1.1" viewBox="0 0 100 100" xmlns="http://www.w3.org/2000/svg" xmlns:xlink="http://www.w3.org/1999/xlink">
 <defs id="defs1">
  <linearGradient id="linearGradient4" x1="299.74" x2="356.19" y1="98.591" y2="98.591" gradientUnits="userSpaceOnUse">
   <stop id="stop3" stop-color="#fad028" offset="0"/>
   <stop id="stop4" stop-color="#856a02" offset="1"/>
  </linearGradient>
 </defs>
 <g id="layer1" transform="translate(-43.376 -75.166)">
  <g id="g2">
   <g id="g11" transform="matrix(1.6079 0 0 1.6079 -433.96 -33.607)" stroke-width="1.8658">
    <g id="g1" transform="matrix(.88079 0 0 .88079 38.704 11.377)" fill="url(#linearGradient4)" stroke="#000">
     <path id="path2-4-9" d="m326.18 94.185c0.27004-7.8515 1.5599-13.897-2.0466-16.815 2.6734-1.1653 2.3144-3.0078 3.84-5.1412 1.5256 2.1334 1.1665 3.9759 3.84 5.1412-3.6064 2.9179-2.3166 8.9634-2.0466 16.815v5.3e-5c-0.63356 0.20543-1.2056 0.30632-1.7934 0.31067-0.58778-0.0041-1.1598-0.10525-1.7934-0.31067z" stroke-width="2.1183"/>
     <path id="path5-86-3" d="m311.91 113.29c11.052 4.4974 21.736 4.6408 32.015 0l-6.0391-17.138c-6.0387 2.4006-13.792 2.9011-19.843-0.1365z" stroke-width="2.1183"/>
     <path id="path4-7-9" d="m316.99 95.182-5.5984 11.653-0.89983-0.84531-4.1723 7.4927-0.74866-1.2128c-1.8196 2.5523-2.7776 3.9777-4.5972 6.53 1.4613 2.4963 4.5361 6.033 7.3969 6.7259 1.3664-3.1381 8.5454-23.772 10.488-28.816m20.068-1.5271 5.5984 11.653 0.89984-0.84531 4.1723 7.4927 0.74867-1.2128c1.8196 2.5523 2.7776 3.9777 4.5972 6.53-1.4613 2.4963-4.5361 6.033-7.3969 6.7259-1.3664-3.1381-8.5454-23.772-10.488-28.816" stroke-width="2.1183"/>
     <path id="path10-4-0" d="m318.19 93.209c8.8079-7.8506 12.056-7.1978 20.429 0.12787-4.2974 1.7544-4.62 1.55-10.047 2.5229-5.0143-1.0216-4.1484-0.1809-10.382-2.6507z" stroke-width="2.1183"/>
     <path id="path3-30-8" transform="matrix(1.4999 0 0 1.4999 -145.2 -34.248)" d="m301.43 70.299c-0.18862 9.7857 3.2186 17.668 13.998 17.732 10.779-0.06432 14.185-7.9467 13.996-17.732-0.75439 10.653-5.414 13.521-13.996 14.158-8.5821-0.63767-13.244-3.5052-13.998-14.158z" stroke-width="1.4122"/>
    </g>
   </g>
  </g>
 </g>
</svg>
