<?xml version="1.0" encoding="UTF-8"?>
<!-- Created with Inkscape (http://www.inkscape.org/) -->
<svg id="svg1" width="100mm" height="100mm" version="1.1" viewBox="0 0 100 100" xml:space="preserve" xmlns="http://www.w3.org/2000/svg" xmlns:xlink="http://www.w3.org/1999/xlink"><defs id="defs1"><linearGradient id="linearGradient1"><stop id="stop1" stop-color="#ffffff" offset="0"/><stop id="stop2" stop-color="#999999ff" offset="1"/></linearGradient><linearGradient id="linearGradient5" x1="302.63" x2="320.85" y1="122.44" y2="135.76" gradientUnits="userSpaceOnUse" xlink:href="#linearGradient1"/><linearGradient id="linearGradient6" x1="302.63" x2="320.85" y1="122.44" y2="135.76" gradientTransform="translate(.79734)" gradientUnits="userSpaceOnUse" xlink:href="#linearGradient1"/></defs><g id="layer1" transform="translate(-80.072 -72.833)"><g id="g9" transform="matrix(1.991 0 0 1.991 -481.4 -121.73)" clip-rule="evenodd" fill-rule="evenodd" shape-rendering="geometricPrecision" stroke-width="1.5068"><path id="path1517-2" d="m321.32 142.06c0-14.575-0.86845-28.486-15.231-30.935-0.83655 3.635-0.98521-2.3236-1.108-3.5874-0.21763-1.1615-0.95424-1.9696-1.5282-2.7329-1.1747 1.2385-2.9958 4.8116-3.083 6.455l-1.3342-0.32313c-1.3064-4.2886-1.7797-4.1904-5.3507-5.7945 0.32484 2.7084 1.3747 7.0242 1.2065 7.2048-4.4415 4.4415 0.48941 3.3345-2.4927 11.18-0.64346 2.2389-2.0731 6.5561 1.8086 8.7338 4.6673 1.5332 4.5852-4.3235 8.1372-7.2041 5.7094-2.7532 2.19-2.6182 3.7027-4.0137 0.97697 0.5945-0.28452 1.6286 0.26753 3.4136 2.4373 7.3087-4.4745 11.123-4.4665 17.605z" fill="url(#linearGradient5)" image-rendering="optimizeQuality" stroke="#000"/><path id="path11999-4" d="m297.44 118.64 5.3264-1.5268" fill="url(#linearGradient6)" image-rendering="optimizeQuality" stroke="#1f1a17"/></g></g></svg>
