<?xml version="1.0" encoding="UTF-8"?>
<!-- Created with Inkscape (http://www.inkscape.org/) -->
<svg id="svg1" width="100mm" height="100mm" version="1.1" viewBox="0 0 100 100" xml:space="preserve" xmlns="http://www.w3.org/2000/svg" xmlns:xlink="http://www.w3.org/1999/xlink"><defs id="defs1"><linearGradient id="linearGradient5"><stop id="stop4" stop-color="#ffffff" offset="0"/><stop id="stop5" stop-color="#999999ff" offset="1"/></linearGradient><linearGradient id="linearGradient2" x1="299.8" x2="314.76" y1="122.2" y2="133.49" gradientUnits="userSpaceOnUse" xlink:href="#linearGradient5"/><linearGradient id="linearGradient7" x1="297.15" x2="316.33" y1="119.21" y2="133.65" gradientUnits="userSpaceOnUse" xlink:href="#linearGradient5"/></defs><g id="layer1" transform="translate(-80.072 -72.833)"><g id="g13"><path id="use1" d="m118.41 99.325c-1.6012-1.2466-4.0034-2.9776-8.0914-2.6075 5.8534 4.4255 9.1223 14.586 3.8691 16.493l3.9992 0.80819c-1.3368-0.0389 1.907 0.30712 0.7858-0.0581 3.1295-2.0828 4.4147-9.4906 4.7131-14.343 0.39698-6.4568-2.0554-11.964-3.5718-12.736 0.0475 2.7875-0.53242 9.6433-1.7039 12.444z" fill="#999999ff" stroke="#000" stroke-width="3.1153"/><path id="use1-9" d="m129.97 97.953c3.377-0.04529 4.7486 0.95502 5.4582 1.7947 2.5268-2.7021 2.7778-11.258 2.9398-12.478 2.3073 1.8667 6.0186 25.878-18.066 30.353 3.9443-0.68841-4.4769-0.21875-0.35798-3.2986 7.6272-4.3087 11.774-6.5703 12.492-9.5002 0.57874-2.3625-0.57347-5.1584-2.4651-6.8706z" fill="#999999ff" stroke="#000" stroke-width="3.1153"/><g id="g9" transform="matrix(1.9781 0 0 1.9781 -474.91 -106.78)" fill="url(#linearGradient2)" stroke-width="1.3956"><path id="path1517-2" d="m316.44 135.48c0-25.274-14.051-20.802-11.168-22.868 1.1407-1.8936 1.4606-4.6556 0.0241-6.3659-4.3444 2.2837-3.293 3.1467-4.2697 4.893l-1.9899-0.20923c-1.5001-3.1322-1.2845-4.0982-3.9825-4.8-0.65791 0.70274-0.26373 5.9261-0.16173 6.2103-1.0825 1.3314-1.7301 3.0322-1.6765 3.8613 0.12155 1.8794 1.1763 1.9599-0.3753 6.0419-0.29086 1.5873-0.37323 3.8928 1.9022 4.8217s2.762 0.42468 6.3139-2.456c2.0486-1.2135 3.3652-0.64129 4.0042-3.5572 0.61219 0.62885-1.1335 2.1606-1.2875 2.4383 0.47299 6.3414-4.602 6.0335-4.2955 12.036z" clip-rule="evenodd" fill="url(#linearGradient7)" fill-rule="evenodd" image-rendering="optimizeQuality" shape-rendering="geometricPrecision" stroke="#000" stroke-width="1.3956"/></g><path id="path12" d="m104.54 140.55c1.7147 1.0404 5.4118 1.2256 7.0859 4.9238" stroke="#000" stroke-width="3.1758"/></g><path id="path13-9" d="m124.11 121.91-3.6841 2.2483-1.1081 4.6703c1.3186-0.46598 3.6784-1.7779 4.2519-2.3546 0.32617-0.95207 0.61465-3.8952 0.54033-4.5639zm0.15308-0.24788-3.6841 2.2483-1.1081 4.6703c1.3186-0.46596 3.6784-1.7779 4.2519-2.3546 0.32617-0.95209 0.61464-3.8952 0.54032-4.564z" fill="#1f1a17" fill-opacity=".99216" opacity=".99" stroke-width="1.0797"/></g></svg>
