<?xml version="1.0" encoding="UTF-8" standalone="no"?>
<svg
   viewBox="0 0 60 60"
   version="1.1"
   id="svg225"
   sodipodi:docname="b+b.svg"
   xml:space="preserve"
   inkscape:version="1.2.2 (732a01da63, 2022-12-09)"
   xmlns:inkscape="http://www.inkscape.org/namespaces/inkscape"
   xmlns:sodipodi="http://sodipodi.sourceforge.net/DTD/sodipodi-0.dtd"
   xmlns="http://www.w3.org/2000/svg"
   xmlns:svg="http://www.w3.org/2000/svg"><sodipodi:namedview
     id="namedview227"
     pagecolor="#ffffff"
     bordercolor="#000000"
     borderopacity="0.25"
     inkscape:showpageshadow="2"
     inkscape:pageopacity="0.0"
     inkscape:pagecheckerboard="0"
     inkscape:deskcolor="#d1d1d1"
     showgrid="false"
     inkscape:zoom="8.7445541"
     inkscape:cx="38.309558"
     inkscape:cy="38.766985"
     inkscape:window-width="1920"
     inkscape:window-height="974"
     inkscape:window-x="-11"
     inkscape:window-y="-11"
     inkscape:window-maximized="1"
     inkscape:current-layer="g223" /><defs
     id="defs211"><filter
       id="a"
       color-interpolation-filters="sRGB"
       x="-0.045154372"
       y="-0.034558231"
       width="1.1843804"
       height="1.1123142"><feFlood
         flood-opacity=".498"
         flood-color="#000"
         result="flood"
         id="feFlood200" /><feComposite
         in="flood"
         in2="SourceGraphic"
         operator="in"
         result="composite1"
         id="feComposite202" /><feGaussianBlur
         in="composite1"
         stdDeviation="1"
         result="blur"
         id="feGaussianBlur204" /><feOffset
         dx="5"
         dy="3"
         result="offset"
         id="feOffset206" /><feComposite
         in="SourceGraphic"
         in2="offset"
         result="composite2"
         id="feComposite208" /></filter><filter
       id="a-6"
       color-interpolation-filters="sRGB"
       x="-0.045154372"
       y="-0.034558231"
       width="1.1843804"
       height="1.1123142"><feFlood
         flood-opacity=".498"
         flood-color="#000"
         result="flood"
         id="feFlood5194" /><feComposite
         in="flood"
         in2="SourceGraphic"
         operator="in"
         result="composite1"
         id="feComposite5196" /><feGaussianBlur
         in="composite1"
         stdDeviation="1"
         result="blur"
         id="feGaussianBlur5198" /><feOffset
         dx="5"
         dy="3"
         result="offset"
         id="feOffset5200" /><feComposite
         in="SourceGraphic"
         in2="offset"
         result="composite2"
         id="feComposite5202" /></filter></defs><g
     opacity=".99"
     id="g223"><path
       style="fill:#b1926e;fill-opacity:1;stroke:#b1926e;stroke-width:1.43434;stroke-linecap:square;stroke-linejoin:round;stroke-dasharray:none;stroke-opacity:1;paint-order:stroke fill markers;stop-color:#000000"
       d="M 48.97499,10.148178 V 5.088176 h -37.95 v 5.060002 z"
       id="path3328"
       sodipodi:nodetypes="ccccc" /><path
       style="fill:#b1926e;fill-opacity:1;stroke:#b1926e;stroke-width:1.43434;stroke-linecap:square;stroke-linejoin:round;stroke-dasharray:none;stroke-opacity:1;paint-order:stroke fill markers;stop-color:#000000"
       d="m 48.97499,10.148178 h -37.95 l 5.06,41.744823 13.915,4.688891 13.915,-4.688891 z"
       id="path3326-9"
       sodipodi:nodetypes="cccccc" /><text
       xml:space="preserve"
       style="font-size:20.24px;font-family:sans-serif;-inkscape-font-specification:sans-serif;fill:none;stroke:#000000;stroke-width:1.43434;stroke-linecap:square;stroke-linejoin:round;stroke-dasharray:none;paint-order:stroke fill markers;stop-color:#000000"
       x="-36.918346"
       y="-28.99551"
       id="text542"
       transform="scale(-1)"><tspan
         sodipodi:role="line"
         id="tspan540"
         x="-36.918346"
         y="-28.99551"
         style="font-style:normal;font-variant:normal;font-weight:normal;font-stretch:normal;font-family:Forte;-inkscape-font-specification:Forte;fill:#000000;fill-opacity:1;stroke-width:1.43434" /></text><path
       style="fill:#feea99;fill-opacity:1;stroke:#b1926e;stroke-width:1.43434;stroke-linecap:square;stroke-linejoin:round;stroke-dasharray:none;stroke-opacity:1;paint-order:stroke fill markers;stop-color:#000000"
       d="m 48.97499,5.088176 -37.95,-6e-6 5.06,41.744829 13.915,4.688891 13.915,-4.688891 z"
       id="path3326"
       sodipodi:nodetypes="cccccc" /><g
       aria-label="馬"
       id="text10863"
       style="font-size:26.4px;font-family:Forte;-inkscape-font-specification:Forte;fill:#1919cd;stroke:#1919cd;stroke-width:0.415748;stroke-linecap:square;stroke-linejoin:round;paint-order:stroke fill markers;stop-color:#000000"
       transform="matrix(-1.15,0,0,-1.15,64.5,61.432154)"><path
         d="m 28.957123,36.16674 q 0.154688,-0.360937 0.154688,-0.773437 1.392187,-1.624219 2.371874,-1.624219 0.489844,0 1.753125,0.721875 1.882032,1.185938 2.810157,1.185938 -0.4125,0.61875 -1.134375,1.366406 -0.928125,0.20625 -1.417969,0.20625 -3.016406,0 -4.5375,-1.082813 z m -1.830469,-2.964843 q 0.799219,-0.180469 2.346094,-0.850781 0.979687,-0.541407 1.572656,-1.65 2.913281,-0.747657 6.780469,-0.747657 -0.20625,2.552344 -1.211719,4.640625 -0.128906,-1.108594 -0.850781,-1.753125 -0.902344,-0.670312 -2.217188,-0.670312 -2.320312,0 -3.325781,1.057031 -1.2375,0.670312 -2.165625,0.953906 -0.541406,-0.721875 -0.928125,-0.979687 z m -0.850781,-7.347656 q 0.02578,-1.2375 0.20625,-2.500782 1.469531,0.541407 2.010938,0.541407 0.489843,0 0.850781,-0.05156 l -1.907813,1.366406 2.294531,-0.721875 v 0.799219 q -1.753124,0.360938 -3.454687,0.567188 z m -0.128906,-5.207813 q 0.928125,0.232031 1.366406,0.232031 0.489844,0 1.727344,-0.180468 -0.103125,0.309375 -0.103125,0.438281 0,0.257812 0.592968,0.464062 v 0.541407 q -1.727343,0.489843 -3.145312,0.489843 -0.05156,-1.160156 -0.438281,-1.985156 z m -0.05156,9.075 q 0,-0.541406 0.103125,-2.861719 1.624219,0.567188 2.010938,0.567188 0.4125,0 0.928125,-0.07734 -0.953906,0.721875 -2.397656,1.598438 1.160156,-0.128907 2.990624,-0.902344 l -0.103125,1.03125 q -2.887499,0.61875 -3.532031,0.644531 z m -4.357031,5.207812 q -0.309375,-1.340625 -0.61875,-1.340625 -0.670312,0 -0.953906,0.670313 -0.489844,1.108594 -0.489844,1.830469 0,1.211718 0.644531,1.85625 1.057032,0.825 1.959375,0.825 0.979688,0 1.366407,-1.753125 0.4125,-0.928125 0.876562,-1.933594 0.360938,-0.4125 0.696094,-0.4125 0.438281,0 0.979687,1.005469 0.799219,1.108593 1.675782,1.108593 0.438281,0 0.773437,-0.309375 1.701562,2.242969 4.563281,3.7125 0.4125,0.876563 1.185938,0.876563 1.546875,0 3.3,-1.804688 1.572656,-1.753125 2.784375,-7.270312 0.541406,-0.696094 0.541406,-1.160156 0,-0.721875 -0.876563,-1.65 -0.953906,-1.005469 -1.546875,-1.005469 -0.464062,0 -1.134375,0.07734 -2.552343,0.103125 -5.955468,0.489844 l 0.128906,-1.546875 q 1.366406,-0.592969 2.552344,-0.825 1.057031,-0.232032 1.057031,-0.773438 0,-0.902344 -1.727344,-1.2375 -0.360937,0 -1.804687,0.438281 l 0.128906,-1.057031 q 1.03125,-0.360937 2.165625,-0.670312 1.005469,-0.283594 1.005469,-0.773438 0,-0.799219 -1.469532,-0.928125 -0.335156,0 -1.572656,0.180469 0,-0.747656 -0.232031,-1.185938 2.191406,-0.257812 3.403125,-0.515625 1.03125,-0.309375 1.03125,-0.902343 0,-0.773438 -0.747656,-1.289063 -0.825,-0.592969 -1.830469,-0.592969 -0.4125,0 -1.2375,0.696094 -3.91875,1.082813 -6.419531,1.263281 -0.850781,-0.283593 -1.057031,-0.283593 -0.360938,0 -0.360938,0.283593 0,0.154688 0.103125,0.4125 -1.03125,0 -1.03125,0.438282 0,0.360937 0.644531,0.928125 0,1.392187 -0.386718,4.305468 -0.335157,2.371875 -0.360938,4.253907 0,1.03125 0.4125,2.010937 0.696094,1.082813 1.495313,1.082813 0.721875,0 1.082812,-1.03125 0.567188,0.20625 1.959375,0.20625 -0.773437,0.773437 -1.830469,1.366406 -0.360937,-0.05156 -0.567187,-0.05156 -0.4125,0 -1.366406,1.108594 -1.314844,0.953906 -2.475,1.44375 z"
         style="font-family:'EPSON 太行書体Ｂ';-inkscape-font-specification:'EPSON 太行書体Ｂ'"
         id="path305" /></g></g></svg>
