<svg viewBox="0 0 60 60" xmlns="http://www.w3.org/2000/svg"><g stroke-linecap="square" stroke-linejoin="round"><g stroke-width="1.43434"><g opacity=".9801" transform="translate(.00001 .000318)"><path d="m48.97499 10.148178v-5.060002h-37.95v5.060002z" fill="#b1926e" stroke="#b1926e"/><path d="m48.97499 10.148178h-37.95l5.06 41.744823 13.915 4.688891 13.915-4.688891z" fill="#b1926e" stroke="#b1926e"/><text fill="none" stroke="#000" transform="scale(-1)" x="-36.918346" y="-28.99551"><tspan fill="#000" stroke-width="1.43434" x="-36.918346" y="-28.99551"/></text></g><text fill="none" opacity=".99" stroke="#000" transform="scale(-1)" x="-36.918346" y="-28.22534"><tspan fill="#000" stroke-width="1.43434" x="-36.918346" y="-28.22534"/></text><path d="m48.975 5.088491h-37.95l5.06 41.744823 13.915 4.688891 13.915-4.688891z" fill="#feea99" opacity=".99" stroke="#b1926e"/></g><path d="m32.231342 22.219084q-.928125-1.263281-1.417969-1.263281-.309375 0-.309375.464063 0 .464062.257812 1.289062.154688 2.294531.61875 3.50625.592969 1.44375 1.753125 1.44375.747657 0 .747657-.61875 0-.257812-.309375-1.185937-.438282-1.392188-.747657-2.68125.103125-.386719 1.2375-.825 1.314844-.515625 3.841407-.515625-1.624219 2.139843-3.351563 2.913281-.567187.257812-.567187.902344 0 .928125.567187.928125.20625 0 .644531-.103125.592969-.128907 1.65-.128907 2.165625 0 2.165625-.953906 0-.464062-.154687-.953906.825-.567188 1.65-1.340625.799219-.541406.799219-1.185938 0-.489843-.979688-1.392187-.902344-.825-1.521094-.825-.4125 0-1.005468.438281-1.804688.154688-4.099219 1.057031-1.005469.464063-1.469531 1.03125zm-4.898438 14.669531.4125.283594-1.366406.180469zm.902344-.489843 1.005469-.541407v.825zm-1.753125-1.005469q1.44375-.541406 2.68125-.825-.979687.747656-1.959375 1.289062-.464062-.232031-.721875-.464062zm-2.036719-11.111719q1.082813-.592968 1.624219-.953906.438281.02578.670313.02578v1.521094q-1.03125-.644531-1.314844-.644531-.360938 0-.979688.05156zm1.985157-3.892968q.386718.464062.386718 1.727343-1.005468-.360937-1.417968-.360937-.309375 0-.876563.103125.20625-.61875 1.005469-1.289063zm-2.835938 3.867187q.154688-.61875.4125-1.211719l.747656.232032zm-.464062 2.578125.154687-1.211719.799219.154688zm-.103125 1.289063.02578-.592969 1.959375-1.289063q.876562-.309375 1.727344-.670312v.386719q-2.217188 1.417968-3.712499 2.165625zm-3.274219 1.082812q-.61875.128906-.61875 1.289063.103125 1.082812.773437 1.082812.464063 0 1.417969-.644531 2.423438-1.289063 5.182031-3.171094-.309375.773438-.309375 1.160156 0 .515625.592969 1.263282l-1.495312.309375q-.515625-.309375-.721875-.309375-.4125 0-.4125.489843 0 .592969 1.03125 1.005469 1.160156.438281 1.85625.438281.61875 0 1.959375-.386718.154687.283593.154687.824999-2.088281.644532-3.841406 1.366407-.850781.360937-.850781 1.108593 0 .309375.592968.541407.670313.309375 1.340625.721875-2.603906 1.495312-4.176562 1.85625-.438281-.20625-.747656-.20625-.644532 0-.644532.670312 0 .567188.979688 1.03125 1.289062.515625 1.907812.515625.567188 0 2.191407-.61875 3.248437-1.03125 5.517187-1.03125 2.578125 0 6.548437.386719 1.778907 0 1.778907-1.314844 0-.928125-.773438-1.44375-1.392187-.799219-1.830469-.799219-.438281 0-1.495312.825-2.8875.4125-4.357031.567188l.20625-1.985156q.438281-.232032.928125-.386719 2.165625-.61875 2.165625-1.211719 0-.438281-.670313-.902343-.592969-.386719-.953906-.386719-.283594 0-1.160156.20625 0-.592969-.360938-1.03125 1.469531-.232031 2.475-.489844 1.185938-.283594 1.185938-1.185937 0-.773438-.747657-1.082813-.825-.309375-1.521093-.309375-.489844 0-1.314844 1.005469-1.263281.438281-2.835937.773437v-3.944531l1.675781-3.09375-1.675781 1.882031q.232031-2.810156.232031-3.274218 0-.953907-.825-1.314844 2.603906-.670313 2.603906-1.44375 0-.928125-.850781-1.495313-.541406-.360937-1.263281-.360937-.61875 0-1.2375.928125-3.764063 1.082812-7.167188 1.882031-.515625-.257812-.696094-.257812-.4125 0-.4125.386718 0 .464063.799219 1.03125.876563.515625 1.598438.515625.438281 0 2.0625-.180468-1.804688 1.65-2.68125 7.760156-.567188.309375-1.108594.438281z" fill="#1919cd" opacity=".99" stroke="#1919cd" stroke-width=".415748" transform="matrix(-1.15 0 0 -1.15 64.50001 61.432469)"/></g></svg>