<svg viewBox="0 0 60 60" xmlns="http://www.w3.org/2000/svg"><g stroke-linecap="square" stroke-linejoin="round"><g stroke-width="1.43434"><g opacity=".9801" transform="translate(.00001 .000318)"><path d="m48.97499 10.148178v-5.060002h-37.95v5.060002z" fill="#b1926e" stroke="#b1926e"/><path d="m48.97499 10.148178h-37.95l5.06 41.744823 13.915 4.688891 13.915-4.688891z" fill="#b1926e" stroke="#b1926e"/><text fill="none" stroke="#000" transform="scale(-1)" x="-36.918346" y="-28.99551"><tspan fill="#000" stroke-width="1.43434" x="-36.918346" y="-28.99551"/></text></g><text fill="none" opacity=".99" stroke="#000" transform="scale(-1)" x="-36.918346" y="-28.22534"><tspan fill="#000" stroke-width="1.43434" x="-36.918346" y="-28.22534"/></text><path d="m48.975 5.088491h-37.95l5.06 41.744823 13.915 4.688891 13.915-4.688891z" fill="#feea99" opacity=".99" stroke="#b1926e"/></g><path d="m31.187494 27.401069-.237187-.266836v-.177891l.830156-.207538zm-6.493008 5.218125q-1.423125.355781-3.765352 2.075391-1.393475 1.037695-3.379921 1.986445-.800508.326133-.800508 1.156289.118594 1.274883 2.342227 1.512071.622617 0 1.334179-.444727l3.024141-.859805.56332.05929q.38543 0 .38543-.444725 0-.741212-2.520118-1.92715 1.245235-1.630663 2.816602-3.113085zm4.328673-8.746288v.9191l-.859806-.770858zm2.312577 10.940273-1.51207 2.105038-1.423125.326133q.592968-1.067344 1.482422-2.016094zm.652266-11.592539-.978399.889452v-.652265zm-5.396016 7.76789q.38543 0 .38543-.56332 0-.266837-.56332-.652266-.681914-.444727-1.482422-.444727-.711563 0-1.601015.474375-.474375.237188-1.008048.415079-.17789-.919102-.533671-1.393477 0-7.797538.148242-9.279961h1.245234q3.765351 0 5.366368 1.660313-1.452775-2.490469-2.520118-3.439219-.978399-.919102-3.587461-2.134687-.681914-.94875-1.334179-.94875-.919102 0-1.689961 1.660312-.711563 1.660313-.711563 2.223633 0 9.250313.20754 9.902578.355781 1.008047 1.808554 2.223633-.77086.237187-3.646758.830156-1.482421.237188-1.482421 1.363828 0 .830156.830156 1.363828 1.12664.711563 1.778906.711563.474375 0 1.927148-1.71961 3.854297-1.630663 5.455313-2.371875zm.622617-.326132q-1.008046.74121-1.008046 1.245233 0 .415079.415077.800509.622618.533671 1.008048.533671.326133 0 1.096992-.296484 1.215585-.296485 3.113085-.859804-.118593.385429-.94875 1.215585-1.601015.563321-5.48496 1.037696-1.008047.05929-1.008047.652265 0 1.245235 1.986445 1.245235l-.207538.415077q-.741212.711563-.741212.978399 0 .355781.889454 1.126641.622616.533671 1.008046.533671.296485 0 .919102-.622617l.592968-.118594q-.296483.474375-.296483.94875 0 .741211 1.037694 1.393477.652266.355782 1.215587.355782.355781 0 .652265-.237188.533672-.385429.533672-.592969 0-.504023-.800508-.94875l.415078-1.363828.94875-.17789 1.245235.08894q.355781 0 .355781-.355782 0-.800508-1.808554-1.423125.533671-1.096993 1.067343-1.956797l2.312578-.859805q.148242.474375 1.185937 1.986446-2.253281 1.482421-2.253281 2.342226 0 .830156 1.541719 2.371875.415079.38543 1.689961.38543.533672 0 .533672-.592968 0-.415079-.385429-1.15629 1.601015-2.193985 3.646757-3.883945.56332-.38543.56332-.681915 0-.74121-1.156289-.74121-.919102 0-2.609063.978398l-.148242-.355782q1.867852-4.476913 5.573907-9.398554.355781-.444727.355781-.741211 0-.385429-.533672-.385429-1.393476 0-4.121132 2.994492l-.20754-.741211.474375-4.56586q.800508-1.452773.800508-1.749257 0-.94875-.355781-2.016093-.533672-1.541719-1.541719-1.541719-1.008047 0-1.334179 2.905546-.118594.77086-.118594 5.336719 0 2.638711.978398 3.97289-1.482422 1.838204-2.609062 3.883946-.38543-.08894-.592969-.08894-.474375 0-1.601016.415078 1.008047-1.541718 1.601016-2.490468.563321-.859805.563321-1.749259 0-.74121-.355782-1.12664-.355781-.355781-.592968-.355781-.741212 0-1.008048.859805-.592969 2.63871-1.067344 2.905546-1.660312.889454-3.083437 1.185937.563321-.9191 3.083437-2.164335.474375-.20754.474375-.474375 0-.889453-.56332-.889453-.237188 0-1.423125.38543.56332-.94875 3.765352-2.371875.355781-.08894.56332-.38543.17789-.266837.17789-.859805 0-.652265-.711562-.652265-.533671 0-3.854296 1.067343 1.423125-1.245234 3.498515-2.431171 1.51207-.385431 1.689961-.622618.592969-.830156.592969-1.423125 0-.859804-.800508-.859804-.592969 0-3.024141 1.304531-.800507.237187-1.927148.474375v-.978398q.830156-1.185938.830156-1.423125 0-.77086-.622617-1.956798-.415079-.770859-1.185937-.770859-1.037696 0-1.037696 1.749258 0 1.838203-.05929 3.706055-.385431.05929-.830156.05929-.533673 0-1.71961-.05929-.266836 0-.592969.17789-.652265.444727-.652265.889454 0 .711562 1.245234 1.037694 1.482422.533673 2.549766 1.215587v.533671q-2.431172.652266-2.431172 1.393477 0 .444727.533672.711563.474375.237187.830156.237187.681913 0 1.33418-.592969.296483.415078.711562.711563-.830156.444727-2.016094.859804-.889453.266836-.889453 1.008048 0 .118593.118593.474375z" fill="#1919cd" opacity=".99" stroke="#1919cd" stroke-width=".47811"/></g></svg>