<svg viewBox="0 0 60 60" xmlns="http://www.w3.org/2000/svg"><g stroke-linecap="square" stroke-linejoin="round"><g stroke-width="1.43434"><g opacity=".9801"><path d="m48.97499 10.148178v-5.060002h-37.95v5.060002z" fill="#b1926e" stroke="#b1926e"/><path d="m48.97499 10.148178h-37.95l5.06 41.744823 13.915 4.688891 13.915-4.688891z" fill="#b1926e" stroke="#b1926e"/><text fill="none" stroke="#000" transform="scale(-1)" x="-36.918346" y="-28.99551"><tspan fill="#000" stroke-width="1.43434" x="-36.918346" y="-28.99551"/></text></g><text fill="none" opacity=".99" stroke="#000" transform="scale(-1)" x="-36.918346" y="-28.05551"><tspan fill="#000" stroke-width="1.43434" x="-36.918346" y="-28.05551"/></text><path d="m48.97499 5.08817h-37.95l5.06 41.744822 13.915 4.688893 13.915-4.688893z" fill="#feea99" opacity=".99" stroke="#b1926e"/></g><path d="m-28.753431-33.684374q.02965-.94875.02965-1.245235 0-.38543-.504024-1.12664 2.431172-.326133 4.832695-.444727l.02965 7.323164q-1.274883-.474375-1.778906-.474375-.38543 0-1.482422.741211l-1.423125.296484.237187-1.867851q.889453-.830156 2.342227-1.423125 1.452773-.415078 1.452773-1.185938 0-.770859-1.719609-1.037695-.830156 0-2.016094.444727zm-4.951289 5.929687q1.274883-.919101 2.520117-1.51207v1.126641q-1.156289.237187-2.520117.385429zm-1.541719-6.552305q1.660313-.711562 3.61711-1.215586.148242.859805.56332 1.304532l.0593 1.304531q-1.927149.681914-3.735703.681914-.177891-1.156289-.504024-2.075391zm.02965 6.226172q.118593-1.334179.355781-3.142734 1.067344.533672 2.045742.533672.38543 0 1.778906-.207539v.326133q-1.482422 1.037695-3.290976 2.401523zm-.77086-7.293515-.385429-.444727 2.609062-2.964844q2.520117-1.927148 5.751797-2.698008-1.452773 2.223633-5.069883 4.921641-1.482422.56332-2.905547 1.185938zm4.476914-6.937735q.38543-.770859.38543-1.601016 0-1.334179-2.075391-1.838203-.592968 0-.592968.800508 0 .237188.385429.889453-1.334179 2.460821-4.091484 5.188477l-1.482422.415078q-1.689961 1.067344-1.986445 4.18043 0 1.215586 1.245234 1.215586.800508 0 2.371875-1.689961.207539.830156.326133 1.927148-.622617 4.714102-1.215586 9.131719-.770859 1.067344-.770859 1.571367 0 1.245235.74121 2.609063.444727.859805 1.660313.859805.94875 0 1.067344-2.66836.0593-1.927148.207539-5.662851.681914.978398 1.51207.978398 1.393477 0 6.018633-.889453 2.638711-.02965 3.439219-.237188v4.625157q-4.210078 0-6.819141-2.431172 2.105039 4.328672 6.344766 6.463359.38543 1.156289 1.393477 1.156289 1.067343 0 1.630664-1.185937.889453-1.660313.889453-4.417617-.326133-6.07793-.355782-7.649297 0-1.541719.148243-3.735704.800508-.978398.800508-1.808554 0-.681914-1.008047-1.452774-1.571368-1.156289-2.223633-1.156289-.415078 0-1.156289.415078-1.956797.237188-3.913594.504024 2.105039-1.185938 4.121133-2.66836 1.51207-.296484 1.51207-1.096992 0-.652266-.919101-1.33418-1.037696-.800507-1.71961-.800507-.415078 0-1.245234.385429-2.549766.355781-4.625157 1.008047z" opacity=".99" stroke="#000" stroke-width=".47811" transform="matrix(-1 0 0 -1 0 -3.229835)"/></g></svg>