<?xml version="1.0" encoding="UTF-8" standalone="no"?>
<svg
   viewBox="0 0 60 60"
   version="1.1"
   id="svg225"
   sodipodi:docname="bk.svg"
   xml:space="preserve"
   inkscape:version="1.2.2 (732a01da63, 2022-12-09)"
   xmlns:inkscape="http://www.inkscape.org/namespaces/inkscape"
   xmlns:sodipodi="http://sodipodi.sourceforge.net/DTD/sodipodi-0.dtd"
   xmlns="http://www.w3.org/2000/svg"
   xmlns:svg="http://www.w3.org/2000/svg"><sodipodi:namedview
     id="namedview227"
     pagecolor="#ffffff"
     bordercolor="#000000"
     borderopacity="0.25"
     inkscape:showpageshadow="2"
     inkscape:pageopacity="0.0"
     inkscape:pagecheckerboard="0"
     inkscape:deskcolor="#d1d1d1"
     showgrid="false"
     inkscape:zoom="8.7445541"
     inkscape:cx="44.48483"
     inkscape:cy="26.416441"
     inkscape:window-width="1920"
     inkscape:window-height="974"
     inkscape:window-x="-11"
     inkscape:window-y="-11"
     inkscape:window-maximized="1"
     inkscape:current-layer="g223" /><defs
     id="defs211"><filter
       id="a"
       color-interpolation-filters="sRGB"
       x="-0.045154372"
       y="-0.034558231"
       width="1.1843804"
       height="1.1123142"><feFlood
         flood-opacity=".498"
         flood-color="#000"
         result="flood"
         id="feFlood200" /><feComposite
         in="flood"
         in2="SourceGraphic"
         operator="in"
         result="composite1"
         id="feComposite202" /><feGaussianBlur
         in="composite1"
         stdDeviation="1"
         result="blur"
         id="feGaussianBlur204" /><feOffset
         dx="5"
         dy="3"
         result="offset"
         id="feOffset206" /><feComposite
         in="SourceGraphic"
         in2="offset"
         result="composite2"
         id="feComposite208" /></filter><filter
       id="a-6"
       color-interpolation-filters="sRGB"
       x="-0.045154372"
       y="-0.034558231"
       width="1.1843804"
       height="1.1123142"><feFlood
         flood-opacity=".498"
         flood-color="#000"
         result="flood"
         id="feFlood5194" /><feComposite
         in="flood"
         in2="SourceGraphic"
         operator="in"
         result="composite1"
         id="feComposite5196" /><feGaussianBlur
         in="composite1"
         stdDeviation="1"
         result="blur"
         id="feGaussianBlur5198" /><feOffset
         dx="5"
         dy="3"
         result="offset"
         id="feOffset5200" /><feComposite
         in="SourceGraphic"
         in2="offset"
         result="composite2"
         id="feComposite5202" /></filter></defs><g
     opacity=".99"
     id="g223"><path
       style="fill:#b1926e;fill-opacity:1;stroke:#b1926e;stroke-width:1.56472;stroke-linecap:square;stroke-linejoin:round;stroke-dasharray:none;stroke-opacity:1;paint-order:stroke fill markers;stop-color:#000000"
       d="m 50.7,8.16036 v -5.52 H 9.3000001 v 5.52 z"
       id="path3328-1"
       sodipodi:nodetypes="ccccc" /><path
       style="fill:#b1926e;fill-opacity:1;stroke:#b1926e;stroke-width:1.56472;stroke-linecap:square;stroke-linejoin:round;stroke-dasharray:none;stroke-opacity:1;paint-order:stroke fill markers;stop-color:#000000"
       d="M 50.700004,8.3455612 H 9.300001 l 5.52,45.5398068 15.18,5.115155 15.180003,-5.115155 z"
       id="path3326-9-4"
       sodipodi:nodetypes="cccccc" /><text
       xml:space="preserve"
       style="font-size:18.4px;font-family:sans-serif;-inkscape-font-specification:sans-serif;fill:none;stroke:#000000;stroke-width:1.30394;stroke-linecap:square;stroke-linejoin:round;stroke-dasharray:none;paint-order:stroke fill markers;stop-color:#000000"
       x="-36.289406"
       y="-28.370817"
       id="text542-9"
       transform="scale(-1)"><tspan
         sodipodi:role="line"
         id="tspan540-3"
         x="-36.289406"
         y="-28.370817"
         style="font-style:normal;font-variant:normal;font-weight:normal;font-stretch:normal;font-family:Forte;-inkscape-font-specification:Forte;fill:#000000;fill-opacity:1;stroke-width:1.30394" /></text><path
       style="fill:#feea99;fill-opacity:1;stroke:#b1926e;stroke-width:1.56472;stroke-linecap:square;stroke-linejoin:round;stroke-dasharray:none;stroke-opacity:1;paint-order:stroke fill markers;stop-color:#000000"
       d="M 50.7,2.64036 H 9.3000001 L 14.82,48.180167 30,53.295322 45.18,48.180167 Z"
       id="path3326-9"
       sodipodi:nodetypes="cccccc" /><g
       aria-label="陰"
       id="text10863-9"
       style="font-size:24px;font-family:Forte;-inkscape-font-specification:Forte;fill:#1919cd;stroke:#1919cd;stroke-width:0.377953;stroke-linecap:square;stroke-linejoin:round;paint-order:stroke fill markers;stop-color:#000000"
       transform="matrix(-1.38,0,0,-1.38,71.400013,68.695724)"><path
         d="m 30.433601,25.751038 0.914063,-1.664063 q 0.820312,0.46875 1.523437,0.960938 -0.515625,0 -1.3125,0.421875 -0.398437,0.140625 -1.125,0.28125 z m 3.5625,10.570312 q -1.875,0.820313 -2.953125,0.9375 0.984375,-1.007812 2.273438,-1.6875 0.375,0.375 0.679687,0.75 z m -5.109375,-7.898437 1.171875,-1.96875 q 0.351563,0.28125 0.726563,0.539062 -1.265625,1.382813 -1.898438,1.429688 z m -3.140625,7.5 q 0,0.46875 0.164063,0.679687 0.46875,0.609375 0.9375,0.609375 0.28125,0 0.65625,-0.1875 3.023437,-1.335937 3.492187,-1.382812 -0.914062,0.820312 -2.039062,1.59375 -0.632813,0.117187 -0.890625,0.515625 -0.28125,0.398437 -0.28125,0.9375 0,1.054687 0.492187,1.054687 0.445313,0 1.359375,-0.304687 3.375,-0.890625 5.015625,-2.226563 0.773438,1.265625 1.59375,2.320313 0.375,0.421875 0.984375,0.421875 1.101563,0 1.101563,-1.335938 0,-1.382812 -1.078125,-2.460937 -0.9375,-0.679688 -2.882813,-1.171875 l 1.195313,-0.515625 q 0.796875,-0.328125 0.796875,-0.773438 0,-0.398437 -0.632813,-0.773437 -0.492187,-0.257813 -0.984375,-0.257813 -0.398437,0 -0.984375,0.515625 -2.226562,1.007813 -4.453125,1.546875 1.242188,-0.984375 3.445313,-1.78125 1.078125,-0.140625 1.078125,-0.632812 0,-0.914063 -1.078125,-0.914063 -0.398438,0 -0.890625,0.140625 -0.890625,0.210938 -1.078125,0.210938 -0.867188,-0.04687 -1.171875,-0.04687 -0.46875,0 -0.46875,0.46875 0,0.515625 1.21875,0.914062 -1.148438,1.148438 -2.8125,2.109375 -1.734375,0.164063 -1.804688,0.726563 z m -4.335937,-11.8125 q 0.703125,0 3.023437,-1.5 -0.398437,0.773437 -0.9375,1.59375 -0.398437,0 -0.492187,0.234375 -0.1875,0.421875 -0.1875,0.820312 0,0.679688 0.445312,0.914063 0.164063,0 0.46875,-0.07031 0.726563,0.84375 0.84375,2.273438 -1.054687,-0.164063 -2.0625,-0.9375 0.09375,-0.679688 0.09375,-1.21875 0,-0.984375 -1.195312,-2.109375 z m -0.726563,-1.734375 q -0.65625,-0.04687 -0.890625,-0.04687 -0.421875,0 -0.421875,0.445312 0,0.679688 1.265625,1.195313 -0.304687,0.210937 -0.304687,0.445312 0,0.398438 0.492187,0.9375 -0.328125,6.820313 -0.84375,10.40625 -0.515625,0.46875 -0.515625,1.171875 0,1.007813 0.632813,2.179688 0.398437,0.679687 1.03125,0.679687 0.867187,0 1.03125,-0.75 0.28125,-1.453125 0.28125,-2.507812 -0.07031,-2.8125 -0.07031,-3.210938 0,-0.75 0.09375,-3.984375 0.703125,0.65625 1.101563,1.242188 0.539062,0.9375 0.773437,0.9375 h 0.445313 q -0.304688,0.398437 -0.890625,0.84375 -0.257813,0.117187 -0.257813,0.234375 0,0.164062 0.1875,0.164062 0.773438,0 1.828125,-0.515625 1.242188,-0.75 2.601563,-2.671875 0.257812,0.773438 0.75,0.773438 0.1875,0 0.984375,-0.421875 1.523437,-0.75 1.96875,-0.84375 -0.773438,1.265625 -2.648438,2.226562 0.421875,0.09375 0.820313,0.09375 1.875,0 4.382812,-2.226562 0.703125,-0.304688 0.703125,-0.679688 0,-0.398437 -0.726562,-0.773437 -0.539063,-0.28125 -0.796875,-0.28125 -0.210938,0 -0.679688,0.1875 l -2.74219,0.726557 q 1.242187,-0.9375 2.8125,-1.945312 0.679687,-0.28125 0.679687,-0.75 1.617188,1.078125 3.445313,2.53125 1.382812,1.101562 2.296875,1.101562 0.351562,0 0.75,-0.398437 0.375,-0.421875 0.375,-0.84375 0,-1.382813 -2.390625,-3.515625 -1.148438,-0.960938 -6.046875,-1.875 l 0.421875,-0.773438 q 0.65625,-0.867187 0.65625,-1.21875 0,-0.398437 -0.210938,-0.632812 -0.867187,-0.960938 -1.265625,-0.960938 -0.1875,0 -0.5625,0.257813 -0.75,0.492187 -0.75,0.703125 0,0.257812 0.492188,0.585937 -0.328125,0.84375 -0.726563,1.664063 -0.304687,-0.04687 -0.445312,-0.04687 -0.773438,0 -0.773438,0.5625 0,0.28125 0.679688,0.539062 -1.992188,4.054688 -3.515625,6.28125 0,-1.710937 -0.515625,-2.953125 -0.46875,-0.960937 -1.101563,-1.40625 l 1.945313,-1.945312 q 0.890625,-0.375 0.890625,-0.960938 0,-0.609375 -1.171875,-1.523437 -0.539063,-0.421875 -0.984375,-0.421875 -0.445313,0 -0.914063,0.585937 -2.25,0.914063 -3.65625,1.382813 z"
         style="font-family:'EPSON 太行書体Ｂ';-inkscape-font-specification:'EPSON 太行書体Ｂ'"
         id="path5289-7" /></g></g></svg>
