<svg viewBox="0 0 60 60" xmlns="http://www.w3.org/2000/svg"><g stroke-linecap="square" stroke-linejoin="round"><g stroke-width="1.43434"><g opacity=".9801"><path d="m48.97499 10.148178v-5.060002h-37.95v5.060002z" fill="#b1926e" stroke="#b1926e"/><path d="m48.97499 10.148178h-37.95l5.06 41.744823 13.915 4.688891 13.915-4.688891z" fill="#b1926e" stroke="#b1926e"/><text fill="none" stroke="#000" transform="scale(-1)" x="-36.918346" y="-28.99551"><tspan fill="#000" stroke-width="1.43434" x="-36.918346" y="-28.99551"/></text></g><text fill="none" opacity=".99" stroke="#000" transform="scale(-1)" x="-36.918346" y="-28.055508"><tspan fill="#000" stroke-width="1.43434" x="-36.918346" y="-28.055508"/></text><path d="m48.97499 5.08817h-37.95l5.06 41.744822 13.915 4.688893 13.915-4.688893z" fill="#feea99" opacity=".99" stroke="#b1926e"/></g><path d="m31.899405 31.732366q.953907-.515625 2.0625-.902344-.128906.773437-.644531 1.727343-.541406.515625-.850781.850782-.386719-.799219-.567188-1.675781zm-.20625-.876563q-.154687-1.2375-.360937-1.2375-.283594 0-.696094.747656-.438281.696094-.438281 1.366407 0 1.546874.541406 2.758593.515625.799219 1.108594.799219.696094 0 .799219-.876563.283593.05156.567187.05156.902344 0 2.139844-1.211719.928125-1.185937 1.417969-3.532031l-.464063.721875q0-.335156-.61875-1.005469-.386719-.360937-.747656-.360937-.489844 0-1.108594.515625-1.392187.592969-2.139844 1.263281zm-9.564843-4.898437q.07734-1.108594.20625-2.139844.515625.154687 1.211719.154687.257812 0 .747656-.05156-.979688 1.082812-2.165625 2.036719zm-.103125 3.815625-.02578-.386719q1.005468-.515625 2.036718-1.314844l-.05156.979688q-1.005469.438281-1.959375.721875zm2.114062-4.150782q-.335156.103125-.850781.232032.489844-.438282.928125-.953907zm-2.191406 3.351563.103125-1.830469q1.134375 0 2.088281-.154687-1.005468 1.134375-2.191406 1.985156zm-.360937-8.121094q.825.180469 1.366406.180469.4125 0 .876562-.07734.07734.309375.438282.464063v.773437q-.979688.541406-1.830469.644531v-.489843q0-.799219-.850781-1.495313zm7.502343 7.192969q0 .464062.61875.799219.799219.489843 1.546875.489843.876563 0 2.088281-.360937 1.907813-.515625 3.635157-.850781.02578.489843.541406.799218l-.360938 8.45625q-1.134375.128906-2.26875.128906-2.732812 0-4.666406-1.495312 3.325781 3.7125 6.39375 4.769531.232031.747656.773438.747656 1.082812 0 1.804687-1.624218.489844-1.057032.489844-3.91875 0-1.701563-.05156-5.517188.02578-.567187.02578-1.160156 0-.850781-.567188-1.44375 1.546875-.07734 2.732813-.07734.979687 0 .979687-.747656 0-1.2375-2.242969-1.727344-.232031-1.727343-1.289062-2.346093-.953906-.541407-3.764063-.541407l.07734-.257812q1.572656-.464063 3.016406-.850781 1.2375-.309375 1.2375-1.289063 0-1.03125-2.191406-1.289062-.515625 0-1.417969.825l.154688-.773438q.335156-.850781.335156-1.211719 0-.592968-.61875-.773437-.721875-.232031-1.598437-.232031-1.057032.335156-1.057032 1.03125 0 .541406.825.670312 0 .953906-.103125 1.959375-1.675781.489844-3.454687.928125-.515625-.232031-.721875-.232031-.438281 0-.438281.4125 0 .386719.4125.721875.953906.721875 1.598437.721875.799219 0 2.242969-.283594-.979688 2.500781-3.428906 3.660938-.515625.128906-.515625.360937 0 .232031.335156.232031 1.44375 0 3.377344-1.03125.825-.464062 1.624218-2.371875 1.134375.592969 2.139844 1.366407-.928125.515625-1.985156.799218 1.366406.20625 3.3.309375l.438281.386719q-4.150781.541406-8.791406 1.65l-.773435-.180473q-.438281 0-.438281.360938zm-2.397656 1.289062q-.515625 4.279688-1.778906 6.6-.902344.128906-1.495313.128906-1.03125 0-2.475-.721875.928125-.747656 1.753125-1.289062 1.778907-1.314844 3.867188-3.996094-4.125 2.552344-7.502344 3.867188-.876562-.515625-1.417969-.515625-.464062 0-.464062.644531 0 .670312.438281 1.134375 1.03125 1.057031 1.572656 1.057031.4125 0 1.340625-.592969 1.933594 1.985157 3.377344 2.964844.232031 1.160156.799219 1.160156.696094 0 2.165625-1.546875 1.211719-1.134375 1.933593-7.760156.489844-.773437.489844-1.263281 0-.61875-.670312-1.03125-.953906-.644531-1.314844-.644531-.567187 0-.953906.541406l-.592969.309375.128906-1.495312q.799219-.541407 1.727344-.902344.696094-.232031.696094-.592969 0-.696094-1.057031-.902344-.309375 0-1.366407.4125.05156-.721875.20625-1.44375.464063-.335156 1.263282-.644531.541406-.257812.541406-.773437 0-.799219-1.727344-.850782-.283594-.4125-.799219-.567187 1.03125-.309375 2.26875-.644531.953906-.283594.953906-.953907 0-.876562-.876562-1.314843-.567187-.20625-1.185937-.20625-.438282 0-1.417969 1.005468-1.314844.541407-3.609375 1.03125-.644531.05156-.644531.283594 0 .128906.05156.283594-.515625-.592969-.644531-.592969-.438281 0-.438281.4125 0 .850781.464062 1.598438-.283594 3.660937-.283594 6.342187 0 1.185938.825 2.26875-1.624218.257813-1.624218 1.211719.103125 1.057031.928125 1.057031.283593 0 1.314843-.61875 2.578125-1.289062 5.233594-2.449219z" opacity=".99" stroke="#000" stroke-width=".415748" transform="matrix(-1.15 0 0 -1.15 64.5 61.432149)"/></g></svg>