<svg viewBox="0 0 60 60" xmlns="http://www.w3.org/2000/svg"><g stroke-linecap="square" stroke-linejoin="round"><g stroke-width="1.43434"><g opacity=".9801" transform="translate(.00001 .000317)"><path d="m48.97499 10.148178v-5.060002h-37.95v5.060002z" fill="#b1926e" stroke="#b1926e"/><path d="m48.97499 10.148178h-37.95l5.06 41.744823 13.915 4.688891 13.915-4.688891z" fill="#b1926e" stroke="#b1926e"/><text fill="none" stroke="#000" transform="scale(-1)" x="-36.918346" y="-28.99551"><tspan fill="#000" stroke-width="1.43434" x="-36.918346" y="-28.99551"/></text></g><text fill="none" opacity=".99" stroke="#000" transform="scale(-1)" x="-36.918346" y="-28.22534"><tspan fill="#000" stroke-width="1.43434" x="-36.918346" y="-28.22534"/></text><path d="m48.975 5.088493h-37.95l5.06 41.744822 13.915 4.688893 13.915-4.688893z" fill="#feea99" opacity=".99" stroke="#b1926e"/></g><path d="m27.94253 33.511272 2.500781-4.357031q.773438.283593 2.964844.283593 1.082813 0 1.082813.876563 0 .464062-.515625 1.675781-1.417969 3.274219-2.165625 3.91875-1.624219-.20625-2.475-.825-.438281-.335156-1.392188-1.572656zm-1.985156-11.653125q2.139844 0 4.357031-.489844 1.340625.257813 1.598438.257813 1.314843 0 1.314843-1.44375 0-1.185938-.670312-1.882032-1.366406-1.289062-2.784375-1.289062-2.165625.335156-2.165625 1.2375 0 .489844 1.134375 1.082812l.670313.386719q-1.2375 1.211719-3.454688 2.139844zm-5.439844 2.784375q-.825-.257813-1.005468-.257813-.567188 0-.567188.489844 0 .438281 1.160156 1.314844 1.624219 1.082812 2.964844 1.082812.670313 0 2.114063-.464062 4.821093-2.088281 8.765624-2.294531-1.160156.902343-2.861718 2.320312-1.2375-1.2375-1.830469-1.2375-1.340625.232031-1.340625 1.160156 0 .489844.670313.799219-1.289063 2.397656-2.758594 4.692188-2.088281 3.274218-3.635156 4.537499-1.546875 1.03125-1.546875 1.289063 0 .283594.438281.283594 1.417969 0 3.609375-1.2375 1.417969-.825 2.732812-2.784375 1.314844 3.274218 2.088282 4.5375 0 1.495312 1.211718 1.495312 2.526563 0 4.511719-3.7125 1.959375-4.485937 1.959375-6.290625 0-1.03125-.541406-1.804687-.515625-.721875-1.624219-.876563-1.160156-.128906-3.171094-.20625 3.248438-2.346093 6.625781-3.042187 1.933594 0 1.933594-1.160156 0-.979688-.979687-1.521094-1.263282-.567188-1.701563-.567188-.541406 0-1.495312.747657-1.907813.4125-5.903907 1.082812-4.563281.592969-9.822656 1.624219z" opacity=".99" stroke="#000" stroke-width=".415748" transform="matrix(-1.15 0 0 -1.15 64.50001 61.432472)"/></g></svg>