<svg viewBox="0 0 60 60" xmlns="http://www.w3.org/2000/svg"><g opacity=".99" stroke-linecap="square" stroke-linejoin="round"><g stroke-width="1.43434"><text fill="none" stroke="#000" x="23.081652" y="31.774658"><tspan fill="#000" stroke-width="1.43434" x="23.081652" y="31.774658"/></text><path d="m11.02501 49.681996h37.95l-5.06-41.7448234-13.915-4.6888921-13.915 4.6888921z" fill="#feea99" stroke="#b1926e"/><path d="m11.025 49.851506v5.06h37.95v-5.06z" fill="#b1926e" stroke="#b1926e"/></g><path d="m28.957123 36.16674q.154688-.360937.154688-.773437 1.392187-1.624219 2.371874-1.624219.489844 0 1.753125.721875 1.882032 1.185938 2.810157 1.185938-.4125.61875-1.134375 1.366406-.928125.20625-1.417969.20625-3.016406 0-4.5375-1.082813zm-1.830469-2.964843q.799219-.180469 2.346094-.850781.979687-.541407 1.572656-1.65 2.913281-.747657 6.780469-.747657-.20625 2.552344-1.211719 4.640625-.128906-1.108594-.850781-1.753125-.902344-.670312-2.217188-.670312-2.320312 0-3.325781 1.057031-1.2375.670312-2.165625.953906-.541406-.721875-.928125-.979687zm-.850781-7.347656q.02578-1.2375.20625-2.500782 1.469531.541407 2.010938.541407.489843 0 .850781-.05156l-1.907813 1.366406 2.294531-.721875v.799219q-1.753124.360938-3.454687.567188zm-.128906-5.207813q.928125.232031 1.366406.232031.489844 0 1.727344-.180468-.103125.309375-.103125.438281 0 .257812.592968.464062v.541407q-1.727343.489843-3.145312.489843-.05156-1.160156-.438281-1.985156zm-.05156 9.075q0-.541406.103125-2.861719 1.624219.567188 2.010938.567188.4125 0 .928125-.07734-.953906.721875-2.397656 1.598438 1.160156-.128907 2.990624-.902344l-.103125 1.03125q-2.887499.61875-3.532031.644531zm-4.357031 5.207812q-.309375-1.340625-.61875-1.340625-.670312 0-.953906.670313-.489844 1.108594-.489844 1.830469 0 1.211718.644531 1.85625 1.057032.825 1.959375.825.979688 0 1.366407-1.753125.4125-.928125.876562-1.933594.360938-.4125.696094-.4125.438281 0 .979687 1.005469.799219 1.108593 1.675782 1.108593.438281 0 .773437-.309375 1.701562 2.242969 4.563281 3.7125.4125.876563 1.185938.876563 1.546875 0 3.3-1.804688 1.572656-1.753125 2.784375-7.270312.541406-.696094.541406-1.160156 0-.721875-.876563-1.65-.953906-1.005469-1.546875-1.005469-.464062 0-1.134375.07734-2.552343.103125-5.955468.489844l.128906-1.546875q1.366406-.592969 2.552344-.825 1.057031-.232032 1.057031-.773438 0-.902344-1.727344-1.2375-.360937 0-1.804687.438281l.128906-1.057031q1.03125-.360937 2.165625-.670312 1.005469-.283594 1.005469-.773438 0-.799219-1.469532-.928125-.335156 0-1.572656.180469 0-.747656-.232031-1.185938 2.191406-.257812 3.403125-.515625 1.03125-.309375 1.03125-.902343 0-.773438-.747656-1.289063-.825-.592969-1.830469-.592969-.4125 0-1.2375.696094-3.91875 1.082813-6.419531 1.263281-.850781-.283593-1.057031-.283593-.360938 0-.360938.283593 0 .154688.103125.4125-1.03125 0-1.03125.438282 0 .360937.644531.928125 0 1.392187-.386718 4.305468-.335157 2.371875-.360938 4.253907 0 1.03125.4125 2.010937.696094 1.082813 1.495313 1.082813.721875 0 1.082812-1.03125.567188.20625 1.959375.20625-.773437.773437-1.830469 1.366406-.360937-.05156-.567187-.05156-.4125 0-1.366406 1.108594-1.314844.953906-2.475 1.44375z" fill="#1919cd" stroke="#1919cd" stroke-width=".415748" transform="matrix(1.15 0 0 1.15 -4.5 -6.661984)"/></g></svg>