<svg viewBox="0 0 60 60" xmlns="http://www.w3.org/2000/svg"><g opacity=".99" stroke-linecap="square" stroke-linejoin="round"><g stroke-width="1.43434"><text fill="none" stroke="#000" x="23.081652" y="31.774658"><tspan fill="#000" stroke-width="1.43434" x="23.081652" y="31.774658"/></text><path d="m11.02501 49.681996h37.95l-5.06-41.7448234-13.915-4.6888921-13.915 4.6888921z" fill="#feea99" stroke="#b1926e"/><path d="m11.025 49.851506v5.06h37.95v-5.06z" fill="#b1926e" stroke="#b1926e"/></g><path d="m26.940593 24.848772q2.036719-1.572656 3.454687-2.242969 1.185938-.464062 2.552344-.747656-1.727344 2.242969-3.686719 4.485937-.670312-1.108593-2.320312-1.495312zm-8.095313 11.395312q-.541406.20625-.541406.489844 0 .386719.438281.386719.902344 0 2.26875-.438282 2.552344-.850781 5.336719-3.351562.20625 3.686719.515625 4.95.902344 1.959375 2.165625 1.959375.825 0 .902344-.928125 0-.360938-.360938-1.417969-.721875-2.423437-1.03125-3.764062.257813-.232032.644532-.232032.979687.257813 1.314843.257813.489844 0 1.392188-.309375 3.3-1.2375 4.5375-1.2375-1.314844 2.346094-3.067969 3.583594-1.44375.489843-1.959375.721875-.773437.335156-.773437 1.057031 0 1.289062 1.03125 1.289062.386718 0 1.572656-.180468 2.010937-.128907 3.50625-.154688 1.2375 0 1.2375-1.263281 0-.61875-.747657-1.366406 1.185938-.902344 2.810157-2.397657.696093-.20625.696093-.773437 0-.696094-1.03125-1.675781-1.160156-1.057031-1.830468-1.057031-.464063 0-1.417969.4125-6.6 1.2375-8.198437 2.191406l-.670313-.953906q7.141406-7.760157 8.946094-9.358594 1.340625-.335156 1.340625-1.160156 0-.773438-.799219-1.546875-1.082813-1.005469-1.778906-1.005469-.515625 0-1.469532.61875-1.933593.541406-3.609374 1.082812.309375-.876562.309375-1.546875 0-.515625-.464063-1.314843-.438281-.825-.825-.825-.567187 0-.567187.592968 0 .438282.07734.747657-1.44375 2.320312-3.7125 4.176562-.876562.128906-1.185937.515625-.696094 1.211719-.696094 1.959375.154688 1.521094 1.263281 1.521094.360938 0 .902344-.386719.438281.154688.825.4125.773438.953906 1.211719 2.036719-4.279688 5.207812-8.507813 7.682812z" fill="#1919cd" stroke="#1919cd" stroke-width=".415748" transform="matrix(1.15 0 0 1.15 -4.5 -6.661984)"/></g></svg>