<svg viewBox="0 0 60 60" xmlns="http://www.w3.org/2000/svg"><g opacity=".99" stroke-linecap="square" stroke-linejoin="round"><g stroke-width="1.43434"><text fill="none" stroke="#000" x="23.081652" y="31.774658"><tspan fill="#000" stroke-width="1.43434" x="23.081652" y="31.774658"/></text><path d="m11.02501 49.681996h37.95l-5.06-41.7448234-13.915-4.6888921-13.915 4.6888921z" fill="#feea99" stroke="#b1926e"/><path d="m11.025 49.851506v5.06h37.95v-5.06z" fill="#b1926e" stroke="#b1926e"/></g><path d="m28.967405 29.592522.20625.232031v.154688l-.721875.180468zm5.646094-4.5375q1.2375-.309375 3.274219-1.804688 1.211718-.902343 2.939062-1.727343.696094-.283594.696094-1.005469-.103125-1.108594-2.036719-1.314844-.541406 0-1.160156.386719l-2.629688.747656-.489843-.05156q-.335157 0-.335157.386718 0 .644532 2.191407 1.675782-1.082813 1.417968-2.449219 2.707031zm-3.764063 7.605468v-.799218l.747657.670312zm-2.010937-9.513281 1.314844-1.830468 1.2375-.283594q-.515625.928125-1.289063 1.753125zm-.567188 10.080469.850782-.773437v.567187zm4.692188-6.754687q-.335156 0-.335156.489843 0 .232032.489843.567188.592969.386719 1.289063.386719.61875 0 1.392187-.4125.4125-.20625.876563-.360938.154687.799219.464062 1.211719 0 6.780468-.128906 8.069531h-1.082812q-3.274219 0-4.666407-1.44375 1.263282 2.165625 2.191407 2.990625.850781.799219 3.119531 1.85625.592969.825 1.160156.825.799219 0 1.469531-1.44375.61875-1.44375.61875-1.933594 0-8.04375-.180469-8.610937-.309375-.876563-1.572656-1.933594.670313-.20625 3.171094-.721875 1.289062-.20625 1.289062-1.185937 0-.721875-.721875-1.185938-.979687-.61875-1.546875-.61875-.4125 0-1.675781 1.495313-3.351562 1.417968-4.74375 2.0625zm-.541406.283593q.876562-.644531.876562-1.082812 0-.360938-.360937-.696094-.541407-.464062-.876563-.464062-.283594 0-.953906.257812-1.057031.257813-2.707031.747656.103125-.335156.825-1.057031 1.392187-.489844 4.769531-.902344.876562-.05156.876562-.567187 0-1.082813-1.727343-1.082813l.180468-.360937q.644532-.61875.644532-.850781 0-.309375-.773438-.979688-.541406-.464062-.876562-.464062-.257813 0-.799219.541406l-.515625.103125q.257812-.4125.257812-.825 0-.644531-.902343-1.211719-.567188-.309375-1.057032-.309375-.309375 0-.567187.20625-.464063.335156-.464063.515625 0 .438281.696094.825l-.360937 1.185938-.825.154687-1.082813-.07734q-.309375 0-.309375.309375 0 .696094 1.572656 1.2375-.464062.953907-.928125 1.701563l-2.010937.747656q-.128906-.4125-1.03125-1.727344 1.959375-1.289062 1.959375-2.036718 0-.721875-1.340625-2.0625-.360938-.335157-1.469531-.335157-.464063 0-.464063.515625 0 .360938.335156 1.005469-1.392187 1.907813-3.171093 3.377344-.489844.335156-.489844.592969 0 .644531 1.005469.644531.799219 0 2.26875-.850781l.128906.309375q-1.624219 3.892968-4.846875 8.172656-.309375.386719-.309375.644531 0 .335156.464063.335156 1.211718 0 3.583593-2.603906l.180469.644531-.4125 3.970313q-.696094 1.263281-.696094 1.521093 0 .825.309375 1.753125.464063 1.340625 1.340625 1.340625.876563 0 1.160156-2.526562.103125-.670313.103125-4.640625 0-2.294531-.850781-3.454687 1.289063-1.598438 2.26875-3.377344.335156.07734.515625.07734.4125 0 1.392188-.360938-.876563 1.340625-1.392188 2.165625-.489844.747656-.489844 1.521094 0 .644531.309375.979687.309375.309375.515625.309375.644532 0 .876563-.747656.515625-2.294531.928125-2.526562 1.44375-.773438 2.68125-1.03125-.489844.799218-2.68125 1.882031-.4125.180469-.4125.4125 0 .773437.489844.773437.20625 0 1.2375-.335156-.489844.825-3.274219 2.0625-.309375.07734-.489844.335156-.154687.232032-.154687.747657 0 .567187.61875.567187.464062 0 3.351562-.928125-1.2375 1.082812-3.042187 2.114062-1.314844.335157-1.469532.541407-.515625.721875-.515625 1.2375 0 .747656.696094.747656.515625 0 2.629688-1.134375.696093-.20625 1.675781-.4125v.850781q-.721875 1.03125-.721875 1.2375 0 .670313.541406 1.701563.360938.670312 1.03125.670312.902344 0 .902344-1.521094 0-1.598437.05156-3.222656.335157-.05156.721875-.05156.464063 0 1.495313.05156.232031 0 .515625-.154687.567187-.386719.567187-.773438 0-.61875-1.082812-.902343-1.289063-.464063-2.217188-1.057032v-.464062q2.114063-.567188 2.114063-1.211719 0-.386719-.464063-.61875-.4125-.20625-.721875-.20625-.592968 0-1.160156.515625-.257812-.360937-.61875-.61875.721875-.386719 1.753125-.747656.773438-.232031.773438-.876563 0-.103125-.103125-.4125z" fill="#1919cd" stroke="#1919cd" stroke-width=".415748" transform="matrix(1.15 0 0 1.15 -4.5 -6.661984)"/></g></svg>