<?xml version="1.0" encoding="UTF-8" standalone="no"?>
<svg
   viewBox="0 0 60 60"
   version="1.1"
   id="svg225"
   sodipodi:docname="w+n.svg"
   xml:space="preserve"
   inkscape:version="1.2.2 (732a01da63, 2022-12-09)"
   xmlns:inkscape="http://www.inkscape.org/namespaces/inkscape"
   xmlns:sodipodi="http://sodipodi.sourceforge.net/DTD/sodipodi-0.dtd"
   xmlns="http://www.w3.org/2000/svg"
   xmlns:svg="http://www.w3.org/2000/svg"><sodipodi:namedview
     id="namedview227"
     pagecolor="#ffffff"
     bordercolor="#000000"
     borderopacity="0.25"
     inkscape:showpageshadow="2"
     inkscape:pageopacity="0.0"
     inkscape:pagecheckerboard="0"
     inkscape:deskcolor="#d1d1d1"
     showgrid="false"
     inkscape:zoom="12.366667"
     inkscape:cx="27.816711"
     inkscape:cy="27.978436"
     inkscape:window-width="1920"
     inkscape:window-height="974"
     inkscape:window-x="-11"
     inkscape:window-y="-11"
     inkscape:window-maximized="1"
     inkscape:current-layer="g223" /><defs
     id="defs211"><filter
       id="a"
       color-interpolation-filters="sRGB"
       x="-0.045154372"
       y="-0.034558231"
       width="1.1843804"
       height="1.1123142"><feFlood
         flood-opacity=".498"
         flood-color="#000"
         result="flood"
         id="feFlood200" /><feComposite
         in="flood"
         in2="SourceGraphic"
         operator="in"
         result="composite1"
         id="feComposite202" /><feGaussianBlur
         in="composite1"
         stdDeviation="1"
         result="blur"
         id="feGaussianBlur204" /><feOffset
         dx="5"
         dy="3"
         result="offset"
         id="feOffset206" /><feComposite
         in="SourceGraphic"
         in2="offset"
         result="composite2"
         id="feComposite208" /></filter><filter
       id="a-6"
       color-interpolation-filters="sRGB"
       x="-0.045154372"
       y="-0.034558231"
       width="1.1843804"
       height="1.1123142"><feFlood
         flood-opacity=".498"
         flood-color="#000"
         result="flood"
         id="feFlood5194" /><feComposite
         in="flood"
         in2="SourceGraphic"
         operator="in"
         result="composite1"
         id="feComposite5196" /><feGaussianBlur
         in="composite1"
         stdDeviation="1"
         result="blur"
         id="feGaussianBlur5198" /><feOffset
         dx="5"
         dy="3"
         result="offset"
         id="feOffset5200" /><feComposite
         in="SourceGraphic"
         in2="offset"
         result="composite2"
         id="feComposite5202" /></filter></defs><g
     opacity=".99"
     id="g223"><text
       xml:space="preserve"
       style="font-size:20.24px;font-family:sans-serif;-inkscape-font-specification:sans-serif;fill:none;stroke:#000000;stroke-width:1.43434;stroke-linecap:square;stroke-linejoin:round;stroke-dasharray:none;paint-order:stroke fill markers;stop-color:#000000"
       x="23.081652"
       y="31.774658"
       id="text542"><tspan
         sodipodi:role="line"
         id="tspan540"
         x="23.081652"
         y="31.774658"
         style="font-style:normal;font-variant:normal;font-weight:normal;font-stretch:normal;font-family:Forte;-inkscape-font-specification:Forte;fill:#000000;fill-opacity:1;stroke-width:1.43434" /></text><path
       style="fill:#feea99;fill-opacity:1;stroke:#b1926e;stroke-width:1.43434;stroke-linecap:square;stroke-linejoin:round;stroke-dasharray:none;stroke-opacity:1;paint-order:stroke fill markers;stop-color:#000000"
       d="m 11.02501,49.681996 h 37.95 l -5.06,-41.7448234 -13.915,-4.6888921 -13.915,4.6888921 z"
       id="path3326"
       sodipodi:nodetypes="cccccc" /><path
       style="fill:#b1926e;fill-opacity:1;stroke:#b1926e;stroke-width:1.43434;stroke-linecap:square;stroke-linejoin:round;stroke-dasharray:none;stroke-opacity:1;paint-order:stroke fill markers;stop-color:#000000"
       d="m 11.025,49.851506 v 5.06 h 37.95 v -5.06 z"
       id="path3328"
       sodipodi:nodetypes="ccccc" /><g
       aria-label="衛"
       id="text10863"
       style="font-size:26.4px;font-family:Forte;-inkscape-font-specification:Forte;fill:#1919cd;stroke:#1919cd;stroke-width:0.415748;stroke-linecap:square;stroke-linejoin:round;paint-order:stroke fill markers;stop-color:#000000"
       transform="matrix(1.15,0,0,1.15,-4.5000001,-6.6619842)"><path
         d="m 28.967405,29.592522 0.20625,0.232031 v 0.154688 l -0.721875,0.180468 z m 5.646094,-4.5375 q 1.2375,-0.309375 3.274219,-1.804688 1.211718,-0.902343 2.939062,-1.727343 0.696094,-0.283594 0.696094,-1.005469 -0.103125,-1.108594 -2.036719,-1.314844 -0.541406,0 -1.160156,0.386719 l -2.629688,0.747656 -0.489843,-0.05156 q -0.335157,0 -0.335157,0.386718 0,0.644532 2.191407,1.675782 -1.082813,1.417968 -2.449219,2.707031 z m -3.764063,7.605468 v -0.799218 l 0.747657,0.670312 z m -2.010937,-9.513281 1.314844,-1.830468 1.2375,-0.283594 q -0.515625,0.928125 -1.289063,1.753125 z m -0.567188,10.080469 0.850782,-0.773437 v 0.567187 z m 4.692188,-6.754687 q -0.335156,0 -0.335156,0.489843 0,0.232032 0.489843,0.567188 0.592969,0.386719 1.289063,0.386719 0.61875,0 1.392187,-0.4125 0.4125,-0.20625 0.876563,-0.360938 0.154687,0.799219 0.464062,1.211719 0,6.780468 -0.128906,8.069531 h -1.082812 q -3.274219,0 -4.666407,-1.44375 1.263282,2.165625 2.191407,2.990625 0.850781,0.799219 3.119531,1.85625 0.592969,0.825 1.160156,0.825 0.799219,0 1.469531,-1.44375 0.61875,-1.44375 0.61875,-1.933594 0,-8.04375 -0.180469,-8.610937 -0.309375,-0.876563 -1.572656,-1.933594 0.670313,-0.20625 3.171094,-0.721875 1.289062,-0.20625 1.289062,-1.185937 0,-0.721875 -0.721875,-1.185938 -0.979687,-0.61875 -1.546875,-0.61875 -0.4125,0 -1.675781,1.495313 -3.351562,1.417968 -4.74375,2.0625 z m -0.541406,0.283593 q 0.876562,-0.644531 0.876562,-1.082812 0,-0.360938 -0.360937,-0.696094 -0.541407,-0.464062 -0.876563,-0.464062 -0.283594,0 -0.953906,0.257812 -1.057031,0.257813 -2.707031,0.747656 0.103125,-0.335156 0.825,-1.057031 1.392187,-0.489844 4.769531,-0.902344 0.876562,-0.05156 0.876562,-0.567187 0,-1.082813 -1.727343,-1.082813 l 0.180468,-0.360937 q 0.644532,-0.61875 0.644532,-0.850781 0,-0.309375 -0.773438,-0.979688 -0.541406,-0.464062 -0.876562,-0.464062 -0.257813,0 -0.799219,0.541406 l -0.515625,0.103125 q 0.257812,-0.4125 0.257812,-0.825 0,-0.644531 -0.902343,-1.211719 -0.567188,-0.309375 -1.057032,-0.309375 -0.309375,0 -0.567187,0.20625 -0.464063,0.335156 -0.464063,0.515625 0,0.438281 0.696094,0.825 l -0.360937,1.185938 -0.825,0.154687 -1.082813,-0.07734 q -0.309375,0 -0.309375,0.309375 0,0.696094 1.572656,1.2375 -0.464062,0.953907 -0.928125,1.701563 l -2.010937,0.747656 q -0.128906,-0.4125 -1.03125,-1.727344 1.959375,-1.289062 1.959375,-2.036718 0,-0.721875 -1.340625,-2.0625 -0.360938,-0.335157 -1.469531,-0.335157 -0.464063,0 -0.464063,0.515625 0,0.360938 0.335156,1.005469 -1.392187,1.907813 -3.171093,3.377344 -0.489844,0.335156 -0.489844,0.592969 0,0.644531 1.005469,0.644531 0.799219,0 2.26875,-0.850781 l 0.128906,0.309375 q -1.624219,3.892968 -4.846875,8.172656 -0.309375,0.386719 -0.309375,0.644531 0,0.335156 0.464063,0.335156 1.211718,0 3.583593,-2.603906 l 0.180469,0.644531 -0.4125,3.970313 q -0.696094,1.263281 -0.696094,1.521093 0,0.825 0.309375,1.753125 0.464063,1.340625 1.340625,1.340625 0.876563,0 1.160156,-2.526562 0.103125,-0.670313 0.103125,-4.640625 0,-2.294531 -0.850781,-3.454687 1.289063,-1.598438 2.26875,-3.377344 0.335156,0.07734 0.515625,0.07734 0.4125,0 1.392188,-0.360938 -0.876563,1.340625 -1.392188,2.165625 -0.489844,0.747656 -0.489844,1.521094 0,0.644531 0.309375,0.979687 0.309375,0.309375 0.515625,0.309375 0.644532,0 0.876563,-0.747656 0.515625,-2.294531 0.928125,-2.526562 1.44375,-0.773438 2.68125,-1.03125 -0.489844,0.799218 -2.68125,1.882031 -0.4125,0.180469 -0.4125,0.4125 0,0.773437 0.489844,0.773437 0.20625,0 1.2375,-0.335156 -0.489844,0.825 -3.274219,2.0625 -0.309375,0.07734 -0.489844,0.335156 -0.154687,0.232032 -0.154687,0.747657 0,0.567187 0.61875,0.567187 0.464062,0 3.351562,-0.928125 -1.2375,1.082812 -3.042187,2.114062 -1.314844,0.335157 -1.469532,0.541407 -0.515625,0.721875 -0.515625,1.2375 0,0.747656 0.696094,0.747656 0.515625,0 2.629688,-1.134375 0.696093,-0.20625 1.675781,-0.4125 v 0.850781 q -0.721875,1.03125 -0.721875,1.2375 0,0.670313 0.541406,1.701563 0.360938,0.670312 1.03125,0.670312 0.902344,0 0.902344,-1.521094 0,-1.598437 0.05156,-3.222656 0.335157,-0.05156 0.721875,-0.05156 0.464063,0 1.495313,0.05156 0.232031,0 0.515625,-0.154687 0.567187,-0.386719 0.567187,-0.773438 0,-0.61875 -1.082812,-0.902343 -1.289063,-0.464063 -2.217188,-1.057032 v -0.464062 q 2.114063,-0.567188 2.114063,-1.211719 0,-0.386719 -0.464063,-0.61875 -0.4125,-0.20625 -0.721875,-0.20625 -0.592968,0 -1.160156,0.515625 -0.257812,-0.360937 -0.61875,-0.61875 0.721875,-0.386719 1.753125,-0.747656 0.773438,-0.232031 0.773438,-0.876563 0,-0.103125 -0.103125,-0.4125 z"
         style="font-family:'EPSON 太行書体Ｂ';-inkscape-font-specification:'EPSON 太行書体Ｂ'"
         id="path305" /></g></g></svg>
