<?xml version="1.0" encoding="UTF-8" standalone="no"?>
<svg
   viewBox="0 0 60 60"
   version="1.1"
   id="svg225"
   sodipodi:docname="w+p.svg"
   xml:space="preserve"
   inkscape:version="1.2.2 (732a01da63, 2022-12-09)"
   xmlns:inkscape="http://www.inkscape.org/namespaces/inkscape"
   xmlns:sodipodi="http://sodipodi.sourceforge.net/DTD/sodipodi-0.dtd"
   xmlns="http://www.w3.org/2000/svg"
   xmlns:svg="http://www.w3.org/2000/svg"><sodipodi:namedview
     id="namedview227"
     pagecolor="#ffffff"
     bordercolor="#000000"
     borderopacity="0.25"
     inkscape:showpageshadow="2"
     inkscape:pageopacity="0.0"
     inkscape:pagecheckerboard="0"
     inkscape:deskcolor="#d1d1d1"
     showgrid="false"
     inkscape:zoom="12.366667"
     inkscape:cx="26.684635"
     inkscape:cy="34.447438"
     inkscape:window-width="1920"
     inkscape:window-height="974"
     inkscape:window-x="-11"
     inkscape:window-y="-11"
     inkscape:window-maximized="1"
     inkscape:current-layer="g223" /><defs
     id="defs211"><filter
       id="a"
       color-interpolation-filters="sRGB"
       x="-0.045154372"
       y="-0.034558231"
       width="1.1843804"
       height="1.1123142"><feFlood
         flood-opacity=".498"
         flood-color="#000"
         result="flood"
         id="feFlood200" /><feComposite
         in="flood"
         in2="SourceGraphic"
         operator="in"
         result="composite1"
         id="feComposite202" /><feGaussianBlur
         in="composite1"
         stdDeviation="1"
         result="blur"
         id="feGaussianBlur204" /><feOffset
         dx="5"
         dy="3"
         result="offset"
         id="feOffset206" /><feComposite
         in="SourceGraphic"
         in2="offset"
         result="composite2"
         id="feComposite208" /></filter><filter
       id="a-6"
       color-interpolation-filters="sRGB"
       x="-0.045154372"
       y="-0.034558231"
       width="1.1843804"
       height="1.1123142"><feFlood
         flood-opacity=".498"
         flood-color="#000"
         result="flood"
         id="feFlood5194" /><feComposite
         in="flood"
         in2="SourceGraphic"
         operator="in"
         result="composite1"
         id="feComposite5196" /><feGaussianBlur
         in="composite1"
         stdDeviation="1"
         result="blur"
         id="feGaussianBlur5198" /><feOffset
         dx="5"
         dy="3"
         result="offset"
         id="feOffset5200" /><feComposite
         in="SourceGraphic"
         in2="offset"
         result="composite2"
         id="feComposite5202" /></filter></defs><g
     opacity=".99"
     id="g223"><text
       xml:space="preserve"
       style="font-size:17.6px;font-family:sans-serif;-inkscape-font-specification:sans-serif;fill:none;stroke:#000000;stroke-width:1.24725;stroke-linecap:square;stroke-linejoin:round;stroke-dasharray:none;paint-order:stroke fill markers;stop-color:#000000"
       x="23.984045"
       y="32.923134"
       id="text542"><tspan
         sodipodi:role="line"
         id="tspan540"
         x="23.984045"
         y="32.923134"
         style="font-style:normal;font-variant:normal;font-weight:normal;font-stretch:normal;font-family:Forte;-inkscape-font-specification:Forte;fill:#000000;fill-opacity:1;stroke-width:1.24725" /></text><path
       style="fill:#feea99;fill-opacity:1;stroke:#b1926e;stroke-width:1.24725;stroke-linecap:square;stroke-linejoin:round;stroke-dasharray:none;stroke-opacity:1;paint-order:stroke fill markers;stop-color:#000000"
       d="m 13.500009,48.494765 h 33 l -4.4,-36.299846 -12.1,-4.0772975 -12.1,4.0772975 z"
       id="path3326"
       sodipodi:nodetypes="cccccc" /><path
       style="fill:#b1926e;fill-opacity:1;stroke:#b1926e;stroke-width:1.24725;stroke-linecap:square;stroke-linejoin:round;stroke-dasharray:none;stroke-opacity:1;paint-order:stroke fill markers;stop-color:#000000"
       d="m 13.5,48.642165 v 4.4 h 33 v -4.4 z"
       id="path3328"
       sodipodi:nodetypes="ccccc" /><g
       aria-label="哨"
       id="text10863"
       style="font-size:24px;font-family:Forte;-inkscape-font-specification:Forte;stroke:#000000;stroke-width:0.377953;stroke-linecap:square;stroke-linejoin:round;paint-order:stroke fill markers;stop-color:#000000"
       transform="matrix(1.1,0,0,1.1,-3,-4.1578351)"><path
         d="m 32.460945,32.629944 q 1.335938,-0.960938 2.53125,-1.945313 0.585938,-0.1875 1.171875,-0.5625 l 0.04687,2.90625 q -0.867187,-0.703125 -1.59375,-0.703125 -0.304687,0 -0.773437,0.304688 z m -0.585937,-8.929688 1.03125,-1.289062 0.140625,2.085937 q -0.585938,-0.328125 -1.171875,-0.796875 z m -0.234375,6.5625 0.117187,-1.640625 q 2.132813,-0.914062 4.359375,-1.335937 l 0.04687,2.273437 q -0.796875,-0.632812 -1.546875,-0.632812 -0.515625,0 -1.570312,0.703125 z m -0.1875,2.53125 0.117187,-1.570312 q 0.867188,-0.257813 1.78125,-0.351563 -0.867187,0.960938 -1.898437,1.921875 z m 1.429687,-11.015625 -2.460937,1.40625 -0.679688,-0.84375 q 0,-0.796875 -0.421875,-0.796875 -0.515625,0 -0.796875,0.703125 -0.28125,0.65625 -0.28125,1.101563 0,0.84375 0.75,1.59375 0.585938,0.609375 1.429688,0.609375 0.773437,0 0.867187,-1.289063 l 0.257813,-0.210937 1.3125,2.015625 0.117187,0.773437 -1.429687,0.492188 v -0.304688 q 0,-0.65625 -0.398438,-0.65625 -0.515625,0 -1.03125,2.671875 -0.492187,2.390625 -0.9375,6.585938 -0.585937,1.101562 -0.585937,1.476562 0,0.84375 0.65625,2.085938 0.445312,0.679687 0.960937,0.679687 0.960938,0 1.054688,-2.15625 l 0.117187,-3.960937 q 0.914063,0.703125 3.257813,0.703125 0.703125,0 1.59375,-0.46875 l 0.04687,2.953125 q -2.296875,0 -4.570313,-1.945313 1.523438,3.351563 4.3125,4.992188 0.28125,0.820312 1.125,0.820312 0.515625,0 1.03125,-0.796875 0.75,-1.21875 0.75,-2.296875 0,-1.03125 -0.140625,-2.71875 -0.164062,-1.640625 -0.164062,-2.976562 0,-1.640625 0.234375,-3.304688 0.421875,-0.609375 0.421875,-1.078125 0,-0.539062 -0.914063,-1.3125 -0.984375,-0.796875 -1.734375,-0.796875 -0.351562,0 -0.5625,0.304688 l -1.007812,0.328125 v -0.726563 q 5.367187,-2.460937 5.367187,-3.46875 0,-0.257812 -0.75,-1.21875 -0.632812,-0.84375 -1.101562,-0.84375 -0.914063,0 -1.617188,0.328125 0,0.515625 0.46875,1.171875 -1.078125,1.617188 -2.273437,2.695313 l 0.234375,-2.109375 q 0.492187,-1.21875 0.492187,-1.476563 0,-0.679687 -0.492187,-1.101562 -1.453125,-1.195313 -1.992188,-1.195313 -1.59375,0.210938 -1.59375,0.75 0,0.28125 1.007813,1.289063 z m -11.25,5.367188 q 1.734375,-0.65625 3.914063,-1.125 -0.28125,1.3125 -1.921875,2.953125 -0.585938,0.726562 -0.820313,1.359375 -0.609375,-2.484375 -1.171875,-3.1875 z m -1.59375,-1.664063 q -0.46875,0 -0.46875,0.890625 0,0.257813 0.398438,1.453125 0.65625,5.179688 2.53125,5.179688 0.65625,0 0.726562,-0.914063 l -0.04687,-0.375 q 0.398438,0 0.9375,-0.304687 1.851563,-0.726563 2.601563,-1.3125 1.523437,-1.664063 2.179687,-3.351563 -0.773437,0.84375 -1.640625,1.359375 l 0.632813,-0.820312 q 0.820312,-0.539063 0.820312,-1.03125 -0.421875,-1.546875 -1.875,-2.039063 -0.398437,0 -1.335937,0.351563 -3.445313,0.585937 -4.359375,1.945312 L 20.69532,26.090881 q -0.351562,-0.609375 -0.65625,-0.609375 z"
         style="font-family:'EPSON 太行書体Ｂ';-inkscape-font-specification:'EPSON 太行書体Ｂ';fill:#1919cd;stroke:#1919cd"
         id="path1709" /></g></g></svg>
