<svg viewBox="0 0 60 60" xmlns="http://www.w3.org/2000/svg"><g opacity=".99" stroke-linecap="square" stroke-linejoin="round"><g stroke-width="1.24725"><text fill="none" stroke="#000" x="23.984045" y="32.923134"><tspan fill="#000" stroke-width="1.24725" x="23.984045" y="32.923134"/></text><path d="m13.500009 48.494765h33l-4.4-36.299846-12.1-4.0772975-12.1 4.0772975z" fill="#feea99" stroke="#b1926e"/><path d="m13.5 48.642165v4.4h33v-4.4z" fill="#b1926e" stroke="#b1926e"/></g><path d="m32.460945 32.629944q1.335938-.960938 2.53125-1.945313.585938-.1875 1.171875-.5625l.04687 2.90625q-.867187-.703125-1.59375-.703125-.304687 0-.773437.304688zm-.585937-8.929688 1.03125-1.289062.140625 2.085937q-.585938-.328125-1.171875-.796875zm-.234375 6.5625.117187-1.640625q2.132813-.914062 4.359375-1.335937l.04687 2.273437q-.796875-.632812-1.546875-.632812-.515625 0-1.570312.703125zm-.1875 2.53125.117187-1.570312q.867188-.257813 1.78125-.351563-.867187.960938-1.898437 1.921875zm1.429687-11.015625-2.460937 1.40625-.679688-.84375q0-.796875-.421875-.796875-.515625 0-.796875.703125-.28125.65625-.28125 1.101563 0 .84375.75 1.59375.585938.609375 1.429688.609375.773437 0 .867187-1.289063l.257813-.210937 1.3125 2.015625.117187.773437-1.429687.492188v-.304688q0-.65625-.398438-.65625-.515625 0-1.03125 2.671875-.492187 2.390625-.9375 6.585938-.585937 1.101562-.585937 1.476562 0 .84375.65625 2.085938.445312.679687.960937.679687.960938 0 1.054688-2.15625l.117187-3.960937q.914063.703125 3.257813.703125.703125 0 1.59375-.46875l.04687 2.953125q-2.296875 0-4.570313-1.945313 1.523438 3.351563 4.3125 4.992188.28125.820312 1.125.820312.515625 0 1.03125-.796875.75-1.21875.75-2.296875 0-1.03125-.140625-2.71875-.164062-1.640625-.164062-2.976562 0-1.640625.234375-3.304688.421875-.609375.421875-1.078125 0-.539062-.914063-1.3125-.984375-.796875-1.734375-.796875-.351562 0-.5625.304688l-1.007812.328125v-.726563q5.367187-2.460937 5.367187-3.46875 0-.257812-.75-1.21875-.632812-.84375-1.101562-.84375-.914063 0-1.617188.328125 0 .515625.46875 1.171875-1.078125 1.617188-2.273437 2.695313l.234375-2.109375q.492187-1.21875.492187-1.476563 0-.679687-.492187-1.101562-1.453125-1.195313-1.992188-1.195313-1.59375.210938-1.59375.75 0 .28125 1.007813 1.289063zm-11.25 5.367188q1.734375-.65625 3.914063-1.125-.28125 1.3125-1.921875 2.953125-.585938.726562-.820313 1.359375-.609375-2.484375-1.171875-3.1875zm-1.59375-1.664063q-.46875 0-.46875.890625 0 .257813.398438 1.453125.65625 5.179688 2.53125 5.179688.65625 0 .726562-.914063l-.04687-.375q.398438 0 .9375-.304687 1.851563-.726563 2.601563-1.3125 1.523437-1.664063 2.179687-3.351563-.773437.84375-1.640625 1.359375l.632813-.820312q.820312-.539063.820312-1.03125-.421875-1.546875-1.875-2.039063-.398437 0-1.335937.351563-3.445313.585937-4.359375 1.945312l-.445318-.421875q-.351562-.609375-.65625-.609375z" fill="#1919cd" stroke="#1919cd" stroke-width=".377953" transform="matrix(1.1 0 0 1.1 -3 -4.157835)"/></g></svg>