<svg viewBox="0 0 60 60" xmlns="http://www.w3.org/2000/svg"><g opacity=".99" stroke-linecap="square" stroke-linejoin="round"><g stroke-width="1.43434"><text fill="none" stroke="#000" x="23.081652" y="31.774658"><tspan fill="#000" stroke-width="1.43434" x="23.081652" y="31.774658"/></text><path d="m11.02501 49.681996h37.95l-5.06-41.7448234-13.915-4.6888921-13.915 4.6888921z" fill="#feea99" stroke="#b1926e"/><path d="m11.025 49.851506v5.06h37.95v-5.06z" fill="#b1926e" stroke="#b1926e"/></g><path d="m34.494218 20.233928.180469-1.185937q.541406.283593.902344.644531-.541407.541406-1.082813.541406zm.309375-1.417969q.103125-.283593.103125-.464062 0-.644531-1.263281-1.340625-.825-.464063-1.185938-.464063-1.65.309375-1.65.979688 0 .515625 1.185938 1.314844 0 2.578125-.07734 5.15625-.670312.335156-.670312.592968 0 .61875 1.495312.773438l2.758594-.283594q-.386719.567188-1.185938 1.366406-.876562.4125-1.753125.721875l-.309375-.20625q-.386718-.799218-.773437-.799218-.438281 0-.438281.799218 0 .438282.4125 1.701563-.592969 6.548437-.592969 6.883593 0 2.732813 1.727344 3.867188 1.65 1.108594 6.058593 1.108594 4.563282 0 4.563282-2.191407 0-.825-.928125-1.314843-1.727344-4.228125-4.434375-6.007031 1.082812 1.572656 1.417968 6.135937-2.165625.515625-4.150781.515625-2.423437 0-2.423437-.850781.02578-1.263282 1.03125-6.110156l1.263281-.360938q-.644531 1.701563-.644531 2.010938 0 .438281.773437.799218-1.005469 1.521094-1.005469 2.010938 0 .721875 2.088282 1.211718-.386719.464063-.902344.902344 1.005469-.103125 2.320312-.335156.979688 0 .979688-.773438 0-.4125-.4125-.876562-.567188-.567188-1.057031-.567188-.799219 0-1.65-.128906l.696093-.721875q1.160157-.360937 1.160157-1.134375 0-.799218-1.469532-1.289062l1.211719-1.2375q.825-.386719.825-.928125-.103125-.850781-1.314844-1.005469-.4125 0-.876562.309375-.928125.541406-1.804688.953906 0-.670312-.283593-1.160156.876562-.438281 3.016406-.696094 1.417969-.20625 1.417969-.825 0-.386718-.360938-.721875.721875-.515625 1.340625-1.160156.773438-.360937.773438-.747656 0-.464063-.464063-.928125-.928125-.928125-1.624219-.928125-.541406 0-1.108593.592969l-2.990625.979687q.438281-1.082812.670312-2.165625.670313.283594 1.2375.283594 3.557813-.309375 3.557813-1.65 0-1.469531-1.933594-1.469531-.180469 0-.438281.07734-.928125 0-1.907813-.20625zm-10.853906 12.091407q.489844-1.134375 2.526563-1.882032.103125 1.521094.103125 3.351563-1.057032.902343-2.242969 1.314843.489844-.747656 1.2375-1.598437.928125-.489844.928125-.902344-.07734-.592968-.953906-.696093-.283594 0-1.598438.4125zm-.696094 3.196874q.07734-.953906.283594-1.856249.283594.05156.567188.05156.257812 0 .644531-.02578-.489844.773437-1.082813 1.546875zm-4.279687-6.290624q-.386719-.232032-.567188-.232032-.489843 0-.489843.386719 0 .541406.541406.928125 1.134375.567188 1.727344.567188.979687 0 3.635156-1.624219-2.191406 3.067969-2.913281 8.6625-.464063.953906-.464063 1.263281.283594 2.655469 1.495313 2.655469.592968 0 .825-.438282.335156-1.753125.386718-4.666406.309375.464063.696094.464063.541406 0 2.732813-2.0625 0 1.701562-.232032 3.789843-1.624218-.257812-3.067968-1.289062.902343 1.830469 2.655468 3.480469.360938 1.108593 1.185938 1.108593 1.211719 0 1.907812-2.68125-.335156-5.774999-.335156-6.548437 0-.232031.180469-1.546875.335156-.670312.335156-1.03125 0-.541406-.876562-1.185937-.747657-.464063-1.211719-.464063-.386719 0-2.0625 1.005469.515625-1.160156 2.629687-1.85625l2.320313-.515625q.309375-.103125.309375-.773438 0-.902343-1.753125-1.005468-.257813 0-1.211719.721875l-2.294531.696093q1.160156-.799218 2.449219-1.495312 1.778906-.464063 1.778906-1.03125 0-.876563-1.289063-1.03125-.438281 0-1.082812.386719l-.928125.257812q.721875-.592969 2.784375-1.392187.799219-.257813.799219-.721875 0-.747657-1.211719-1.2375 0-1.289063-.696094-1.959375-.61875-.61875-1.469531-.61875-2.449219 0-2.449219.799218 0 .360938 1.108594.928125l.4125.309375-2.114063 1.2375 2.707032-.335156.696093.05156-.592968.61875-4.460157 1.44375-1.263281.103125q-.257812.05156-.257812.4125 0 .257812.489843.464062 1.057032.360938 1.469532.360938.386718 0 2.088281-.360938-.696094.644531-1.289063 1.108594-.438281.4125-.438281.979687 0 .876563.464063.876563.438281 0 2.010937-1.469531.799219-.386719 1.598438-.644532-2.320313 2.114063-4.640625 3.145313z" fill="#1919cd" stroke="#1919cd" stroke-width=".415748" transform="matrix(1.15 0 0 1.15 -4.5 -6.661984)"/></g></svg>