<svg viewBox="0 0 60 60" xmlns="http://www.w3.org/2000/svg"><g opacity=".99" stroke-linecap="square" stroke-linejoin="round"><g stroke-width="1.43434"><text fill="none" stroke="#000" x="23.081652" y="31.774658"><tspan fill="#000" stroke-width="1.43434" x="23.081652" y="31.774658"/></text><path d="m11.02501 49.681996h37.95l-5.06-41.7448234-13.915-4.6888921-13.915 4.6888921z" fill="#feea99" stroke="#b1926e"/><path d="m11.025 49.851506v5.06h37.95v-5.06z" fill="#b1926e" stroke="#b1926e"/></g><path d="m27.924618 29.695686q-1.546875 6.213282-6.651562 8.017969-.876563.283594-.876563.747656 0 .464063.592969.464063 7.167187-.799219 8.559375-6.007031 3.50625 2.114062 8.172656 5.775 1.572656 1.314843 2.629687 1.314843 1.495313 0 1.495313-1.521093 0-1.778907-2.732813-4.253907-2.732812-1.933593-9.178125-2.939062.257813-1.160156.489844-2.346094 2.578125-.61875 4.563281-1.366406 1.314844-.464062 1.314844-1.289062 0-1.160157-1.366406-1.624219-.489844-.103125-1.289063-.103125-1.211718-.386719-2.449218-.721875.747656.670312 1.469531 1.417969-.953906.489843-1.882031.799218.232031-.567187.232031-1.495312 0-.592969-.489844-.979688 2.165625-1.160156 4.717969-1.830468 1.005469-.232032 1.005469-.876563 0-.696094-.747657-1.263281-1.005468-.773438-1.778906-.773438-.799219 0-2.0625.61875-3.557812 1.03125-6.316406 1.392188l-1.108594-.335156q-.541406 0-.541406.515625 0 .438281.567188.850781 1.65 1.082812 2.784374 1.082812.4125 0 .825-.07734 0 .438281.128907.721875-1.85625 1.134375-3.892969 2.242968 1.882031-.386718 4.408594-1.340625v.721875q-.07734.747657-.20625 1.44375-2.861719.773438-4.924219 1.005469l-.902344-.360938q-.567187 0-.876562 1.314844 0 .515625.541406 1.005469.928125.876562 1.985156.876562.721875 0 3.789844-.825z" fill="#1919cd" stroke="#1919cd" stroke-width=".415748" transform="matrix(1.15 0 0 1.15 -4.5 -6.661984)"/></g></svg>