<?xml version="1.0" encoding="UTF-8" standalone="no"?>
<svg
   viewBox="0 0 60 60"
   version="1.1"
   id="svg225"
   sodipodi:docname="wb.svg"
   xml:space="preserve"
   inkscape:version="1.2.2 (732a01da63, 2022-12-09)"
   xmlns:inkscape="http://www.inkscape.org/namespaces/inkscape"
   xmlns:sodipodi="http://sodipodi.sourceforge.net/DTD/sodipodi-0.dtd"
   xmlns="http://www.w3.org/2000/svg"
   xmlns:svg="http://www.w3.org/2000/svg"><sodipodi:namedview
     id="namedview227"
     pagecolor="#ffffff"
     bordercolor="#000000"
     borderopacity="0.25"
     inkscape:showpageshadow="2"
     inkscape:pageopacity="0.0"
     inkscape:pagecheckerboard="0"
     inkscape:deskcolor="#d1d1d1"
     showgrid="false"
     inkscape:zoom="12.366667"
     inkscape:cx="27.816711"
     inkscape:cy="34.447438"
     inkscape:window-width="1920"
     inkscape:window-height="974"
     inkscape:window-x="-11"
     inkscape:window-y="-11"
     inkscape:window-maximized="1"
     inkscape:current-layer="g223" /><defs
     id="defs211"><filter
       id="a"
       color-interpolation-filters="sRGB"
       x="-0.045154372"
       y="-0.034558231"
       width="1.1843804"
       height="1.1123142"><feFlood
         flood-opacity=".498"
         flood-color="#000"
         result="flood"
         id="feFlood200" /><feComposite
         in="flood"
         in2="SourceGraphic"
         operator="in"
         result="composite1"
         id="feComposite202" /><feGaussianBlur
         in="composite1"
         stdDeviation="1"
         result="blur"
         id="feGaussianBlur204" /><feOffset
         dx="5"
         dy="3"
         result="offset"
         id="feOffset206" /><feComposite
         in="SourceGraphic"
         in2="offset"
         result="composite2"
         id="feComposite208" /></filter><filter
       id="a-6"
       color-interpolation-filters="sRGB"
       x="-0.045154372"
       y="-0.034558231"
       width="1.1843804"
       height="1.1123142"><feFlood
         flood-opacity=".498"
         flood-color="#000"
         result="flood"
         id="feFlood5194" /><feComposite
         in="flood"
         in2="SourceGraphic"
         operator="in"
         result="composite1"
         id="feComposite5196" /><feGaussianBlur
         in="composite1"
         stdDeviation="1"
         result="blur"
         id="feGaussianBlur5198" /><feOffset
         dx="5"
         dy="3"
         result="offset"
         id="feOffset5200" /><feComposite
         in="SourceGraphic"
         in2="offset"
         result="composite2"
         id="feComposite5202" /></filter></defs><g
     opacity=".99"
     id="g223"><text
       xml:space="preserve"
       style="font-size:20.24px;font-family:sans-serif;-inkscape-font-specification:sans-serif;fill:none;stroke:#000000;stroke-width:1.43434;stroke-linecap:square;stroke-linejoin:round;stroke-dasharray:none;paint-order:stroke fill markers;stop-color:#000000"
       x="23.081652"
       y="31.774658"
       id="text542"><tspan
         sodipodi:role="line"
         id="tspan540"
         x="23.081652"
         y="31.774658"
         style="font-style:normal;font-variant:normal;font-weight:normal;font-stretch:normal;font-family:Forte;-inkscape-font-specification:Forte;fill:#000000;fill-opacity:1;stroke-width:1.43434" /></text><path
       style="fill:#feea99;fill-opacity:1;stroke:#b1926e;stroke-width:1.43434;stroke-linecap:square;stroke-linejoin:round;stroke-dasharray:none;stroke-opacity:1;paint-order:stroke fill markers;stop-color:#000000"
       d="m 11.02501,49.681996 h 37.95 l -5.06,-41.7448234 -13.915,-4.6888921 -13.915,4.6888921 z"
       id="path3326"
       sodipodi:nodetypes="cccccc" /><path
       style="fill:#b1926e;fill-opacity:1;stroke:#b1926e;stroke-width:1.43434;stroke-linecap:square;stroke-linejoin:round;stroke-dasharray:none;stroke-opacity:1;paint-order:stroke fill markers;stop-color:#000000"
       d="m 11.025,49.851506 v 5.06 h 37.95 v -5.06 z"
       id="path3328"
       sodipodi:nodetypes="ccccc" /><g
       aria-label="角"
       id="text10863"
       style="font-size:26.4px;font-family:Forte;-inkscape-font-specification:Forte;stroke:#000000;stroke-width:0.415748;stroke-linecap:square;stroke-linejoin:round;paint-order:stroke fill markers;stop-color:#000000"
       transform="matrix(1.15,0,0,1.15,-4.5000001,-6.6619842)"><path
         d="m 31.08397,26.937053 q 0.02578,-0.825 0.02578,-1.082812 0,-0.335157 -0.438281,-0.979688 2.114063,-0.283594 4.202344,-0.386719 l 0.02578,6.367969 q -1.108594,-0.4125 -1.546875,-0.4125 -0.335156,0 -1.289062,0.644531 l -1.2375,0.257813 0.20625,-1.624219 q 0.773437,-0.721875 2.036718,-1.2375 1.263282,-0.360937 1.263282,-1.03125 0,-0.670312 -1.495313,-0.902344 -0.721875,0 -1.753125,0.386719 z m -4.305469,5.15625 q 1.108594,-0.799219 2.191407,-1.314844 v 0.979688 q -1.005469,0.20625 -2.191407,0.335156 z m -1.340625,-5.697656 q 1.44375,-0.61875 3.145313,-1.057031 0.128906,0.747656 0.489844,1.134375 l 0.05156,1.134375 q -1.675781,0.592968 -3.248437,0.592968 -0.154688,-1.005468 -0.438282,-1.804687 z m 0.02578,5.414062 q 0.103125,-1.160156 0.309375,-2.732812 0.928125,0.464062 1.778906,0.464062 0.335156,0 1.546875,-0.180468 v 0.283593 q -1.289063,0.902344 -2.861719,2.088282 z m -0.670313,-6.342187 -0.335156,-0.386719 2.26875,-2.578125 q 2.191406,-1.675781 5.001562,-2.346094 -1.263281,1.933594 -4.408593,4.279688 -1.289063,0.489844 -2.526563,1.03125 z m 3.892969,-6.032813 q 0.335156,-0.670312 0.335156,-1.392187 0,-1.160156 -1.804687,-1.598438 -0.515625,0 -0.515625,0.696094 0,0.20625 0.335156,0.773438 -1.160156,2.139843 -3.557813,4.511718 l -1.289062,0.360938 q -1.469531,0.928125 -1.727344,3.635156 0,1.057031 1.082813,1.057031 0.696093,0 2.0625,-1.469531 0.180468,0.721875 0.283593,1.675781 -0.541406,4.099219 -1.057031,7.940625 -0.670312,0.928125 -0.670312,1.366406 0,1.082813 0.644531,2.26875 0.386719,0.747657 1.44375,0.747657 0.825,0 0.928125,-2.320313 0.05156,-1.675781 0.180469,-4.924219 0.592968,0.850782 1.314843,0.850782 1.211719,0 5.233594,-0.773438 2.294531,-0.02578 2.990625,-0.20625 v 4.021875 q -3.660937,0 -5.929687,-2.114062 1.830468,3.764062 5.517187,5.620312 0.335156,1.005469 1.211719,1.005469 0.928125,0 1.417968,-1.03125 0.773438,-1.44375 0.773438,-3.841406 -0.283594,-5.285156 -0.309375,-6.651563 0,-1.340625 0.128906,-3.248437 0.696094,-0.850781 0.696094,-1.572656 0,-0.592969 -0.876563,-1.263282 -1.366406,-1.005468 -1.933593,-1.005468 -0.360938,0 -1.005469,0.360937 -1.701562,0.20625 -3.403125,0.438281 1.830469,-1.03125 3.583594,-2.320312 1.314843,-0.257813 1.314843,-0.953906 0,-0.567188 -0.799218,-1.160157 -0.902344,-0.696093 -1.495313,-0.696093 -0.360937,0 -1.082812,0.335156 -2.217188,0.309375 -4.021875,0.876562 z"
         style="font-family:'EPSON 太行書体Ｂ';-inkscape-font-specification:'EPSON 太行書体Ｂ'"
         id="path305" /></g></g></svg>
