<svg viewBox="0 0 60 60" xmlns="http://www.w3.org/2000/svg"><g opacity=".99" stroke-linecap="square" stroke-linejoin="round"><g stroke-width="1.43434"><text fill="none" stroke="#000" x="23.081652" y="31.774658"><tspan fill="#000" stroke-width="1.43434" x="23.081652" y="31.774658"/></text><path d="m11.02501 49.681996h37.95l-5.06-41.7448234-13.915-4.6888921-13.915 4.6888921z" fill="#feea99" stroke="#b1926e"/><path d="m11.025 49.851506v5.06h37.95v-5.06z" fill="#b1926e" stroke="#b1926e"/></g><path d="m31.08397 26.937053q.02578-.825.02578-1.082812 0-.335157-.438281-.979688 2.114063-.283594 4.202344-.386719l.02578 6.367969q-1.108594-.4125-1.546875-.4125-.335156 0-1.289062.644531l-1.2375.257813.20625-1.624219q.773437-.721875 2.036718-1.2375 1.263282-.360937 1.263282-1.03125 0-.670312-1.495313-.902344-.721875 0-1.753125.386719zm-4.305469 5.15625q1.108594-.799219 2.191407-1.314844v.979688q-1.005469.20625-2.191407.335156zm-1.340625-5.697656q1.44375-.61875 3.145313-1.057031.128906.747656.489844 1.134375l.05156 1.134375q-1.675781.592968-3.248437.592968-.154688-1.005468-.438282-1.804687zm.02578 5.414062q.103125-1.160156.309375-2.732812.928125.464062 1.778906.464062.335156 0 1.546875-.180468v.283593q-1.289063.902344-2.861719 2.088282zm-.670313-6.342187-.335156-.386719 2.26875-2.578125q2.191406-1.675781 5.001562-2.346094-1.263281 1.933594-4.408593 4.279688-1.289063.489844-2.526563 1.03125zm3.892969-6.032813q.335156-.670312.335156-1.392187 0-1.160156-1.804687-1.598438-.515625 0-.515625.696094 0 .20625.335156.773438-1.160156 2.139843-3.557813 4.511718l-1.289062.360938q-1.469531.928125-1.727344 3.635156 0 1.057031 1.082813 1.057031.696093 0 2.0625-1.469531.180468.721875.283593 1.675781-.541406 4.099219-1.057031 7.940625-.670312.928125-.670312 1.366406 0 1.082813.644531 2.26875.386719.747657 1.44375.747657.825 0 .928125-2.320313.05156-1.675781.180469-4.924219.592968.850782 1.314843.850782 1.211719 0 5.233594-.773438 2.294531-.02578 2.990625-.20625v4.021875q-3.660937 0-5.929687-2.114062 1.830468 3.764062 5.517187 5.620312.335156 1.005469 1.211719 1.005469.928125 0 1.417968-1.03125.773438-1.44375.773438-3.841406-.283594-5.285156-.309375-6.651563 0-1.340625.128906-3.248437.696094-.850781.696094-1.572656 0-.592969-.876563-1.263282-1.366406-1.005468-1.933593-1.005468-.360938 0-1.005469.360937-1.701562.20625-3.403125.438281 1.830469-1.03125 3.583594-2.320312 1.314843-.257813 1.314843-.953906 0-.567188-.799218-1.160157-.902344-.696093-1.495313-.696093-.360937 0-1.082812.335156-2.217188.309375-4.021875.876562z" stroke="#000" stroke-width=".415748" transform="matrix(1.15 0 0 1.15 -4.5 -6.661984)"/></g></svg>