<?xml version="1.0" encoding="UTF-8" standalone="no"?>
<svg
   viewBox="0 0 60 60"
   version="1.1"
   id="svg225"
   sodipodi:docname="wk.svg"
   xml:space="preserve"
   inkscape:version="1.2.2 (732a01da63, 2022-12-09)"
   xmlns:inkscape="http://www.inkscape.org/namespaces/inkscape"
   xmlns:sodipodi="http://sodipodi.sourceforge.net/DTD/sodipodi-0.dtd"
   xmlns="http://www.w3.org/2000/svg"
   xmlns:svg="http://www.w3.org/2000/svg"><sodipodi:namedview
     id="namedview227"
     pagecolor="#ffffff"
     bordercolor="#000000"
     borderopacity="0.25"
     inkscape:showpageshadow="2"
     inkscape:pageopacity="0.0"
     inkscape:pagecheckerboard="0"
     inkscape:deskcolor="#d1d1d1"
     showgrid="false"
     inkscape:zoom="12.366667"
     inkscape:cx="27.816711"
     inkscape:cy="34.447438"
     inkscape:window-width="1920"
     inkscape:window-height="974"
     inkscape:window-x="-11"
     inkscape:window-y="-11"
     inkscape:window-maximized="1"
     inkscape:current-layer="g223" /><defs
     id="defs211"><filter
       id="a"
       color-interpolation-filters="sRGB"
       x="-0.045154372"
       y="-0.034558231"
       width="1.1843804"
       height="1.1123142"><feFlood
         flood-opacity=".498"
         flood-color="#000"
         result="flood"
         id="feFlood200" /><feComposite
         in="flood"
         in2="SourceGraphic"
         operator="in"
         result="composite1"
         id="feComposite202" /><feGaussianBlur
         in="composite1"
         stdDeviation="1"
         result="blur"
         id="feGaussianBlur204" /><feOffset
         dx="5"
         dy="3"
         result="offset"
         id="feOffset206" /><feComposite
         in="SourceGraphic"
         in2="offset"
         result="composite2"
         id="feComposite208" /></filter><filter
       id="a-6"
       color-interpolation-filters="sRGB"
       x="-0.045154372"
       y="-0.034558231"
       width="1.1843804"
       height="1.1123142"><feFlood
         flood-opacity=".498"
         flood-color="#000"
         result="flood"
         id="feFlood5194" /><feComposite
         in="flood"
         in2="SourceGraphic"
         operator="in"
         result="composite1"
         id="feComposite5196" /><feGaussianBlur
         in="composite1"
         stdDeviation="1"
         result="blur"
         id="feGaussianBlur5198" /><feOffset
         dx="5"
         dy="3"
         result="offset"
         id="feOffset5200" /><feComposite
         in="SourceGraphic"
         in2="offset"
         result="composite2"
         id="feComposite5202" /></filter></defs><g
     opacity=".99"
     id="g223"><text
       xml:space="preserve"
       style="font-size:22.08px;font-family:sans-serif;-inkscape-font-specification:sans-serif;fill:none;stroke:#000000;stroke-width:1.56472;stroke-linecap:square;stroke-linejoin:round;stroke-dasharray:none;paint-order:stroke fill markers;stop-color:#000000"
       x="22.452713"
       y="32.11898"
       id="text542"><tspan
         sodipodi:role="line"
         id="tspan540"
         x="22.452713"
         y="32.11898"
         style="font-style:normal;font-variant:normal;font-weight:normal;font-stretch:normal;font-family:Forte;-inkscape-font-specification:Forte;fill:#000000;fill-opacity:1;stroke-width:1.56472" /></text><path
       style="fill:#feea99;fill-opacity:1;stroke:#b1926e;stroke-width:1.56472;stroke-linecap:square;stroke-linejoin:round;stroke-dasharray:none;stroke-opacity:1;paint-order:stroke fill markers;stop-color:#000000"
       d="M 9.3000114,51.654317 H 50.700011 l -5.52,-45.5398065 -15.18,-5.1151548 -15.18,5.1151548 z"
       id="path3326"
       sodipodi:nodetypes="cccccc" /><path
       style="fill:#b1926e;fill-opacity:1;stroke:#b1926e;stroke-width:1.56472;stroke-linecap:square;stroke-linejoin:round;stroke-dasharray:none;stroke-opacity:1;paint-order:stroke fill markers;stop-color:#000000"
       d="m 9.2999999,51.839237 v 5.52 H 50.7 v -5.52 z"
       id="path3328"
       sodipodi:nodetypes="ccccc" /><g
       aria-label="陽"
       id="text10863"
       style="font-size:28.8px;font-family:Forte;-inkscape-font-specification:Forte;fill:#1919cd;stroke:#1919cd;stroke-width:0.453544;stroke-linecap:square;stroke-linejoin:round;paint-order:stroke fill markers;stop-color:#000000"
       transform="matrix(1.15,0,0,1.15,-4.5000001,-7.1374194)"><path
         d="m 33.234384,37.607169 q 4.1625,-4.1625 4.1625,-5.034374 0,-0.646875 -0.9,-1.35 l 2.64375,0.02812 q -1.265625,4.021874 -4.44375,7.031249 -0.759375,-0.253125 -1.4625,-0.675 z M 31.912509,24.304045 q 1.51875,-2.025 3.31875,-2.784375 l -0.196875,2.221875 q -0.39375,-0.196875 -0.73125,-0.196875 -0.196875,0 -0.50625,0.16875 -1.153125,0.590625 -1.884375,0.590625 z m -0.225,-0.73125 v -1.29375 l 1.06875,0.05625 z m -0.39375,-4.66875 q 0.478125,0.08438 0.73125,0.08438 0.365625,0 1.18125,-0.196875 1.29375,-0.39375 2.109375,-0.39375 l -0.05625,2.053125 q -0.534375,-0.28125 -1.18125,-0.28125 -0.28125,0 -1.0125,0.3375 -0.871875,0.39375 -1.490625,0.39375 0,-1.2375 -0.28125,-1.996875 z m 2.221875,12.76875 q 1.125,-0.253125 2.25,-0.39375 -0.5625,0.16875 -1.996875,0.871875 z m -2.8125,4.359374 q 1.96875,-1.603125 3.15,-3.009375 l 0.84375,-0.140624 q -0.703125,1.349999 -3.09375,3.937499 z m -0.45,-8.128124 q 2.503125,-2.109375 4.190625,-2.446875 l 0.309375,0.590625 V 26.41342 Z M 18.975009,20.11342 q -0.5625,-0.16875 -0.7875,-0.16875 -0.534375,0 -0.534375,0.61875 0,0.646875 1.209375,1.040625 1.0125,0.3375 1.434375,0.3375 0.534375,0 1.29375,-0.50625 1.153125,-0.815625 2.671875,-1.575 -0.590625,1.209375 -1.153125,1.96875 -1.18125,0.871875 -1.18125,1.884375 0,0.871875 1.096875,0.928125 1.265625,0.95625 1.265625,2.925 -1.321875,-0.3375 -2.41875,-1.040625 0,-1.35 -0.140625,-2.165625 -0.140625,-0.590625 -0.61875,-1.096875 -0.73125,-0.7875 -1.40625,-0.7875 -0.16875,0 -0.45,0.196875 -0.225,0.16875 -0.225,0.365625 0,0.478125 0.590625,1.040625 0,5.0625 -0.871875,12.374999 -0.478125,0.871875 -0.478125,1.40625 0,0.984375 0.590625,2.221875 0.534375,1.18125 1.4625,1.18125 1.378125,0 1.51875,-1.940625 0,-1.096875 -0.140625,-2.7 0,-3.515625 0.1125,-8.296874 0.84375,1.265625 1.771875,2.53125 0.140625,1.18125 1.0125,1.18125 0.646875,0 1.35,-0.73125 0.225,0.140625 0.45,0.140625 0.534375,0 2.19375,-0.815625 1.63125,-0.95625 4.89375,-1.996875 -2.559375,1.8 -4.5,2.728125 -1.125,0.05625 -1.63125,0.675 -1.040625,1.293749 -1.040625,1.828124 0.16875,0.871875 0.815625,0.871875 0.45,0 1.8,-0.928125 2.053125,-1.349999 3.09375,-1.603124 l 0.140625,0.421875 q -0.928125,0.815624 -2.278125,1.828124 -1.35,0.28125 -1.771875,0.95625 -0.50625,0.871875 -0.50625,1.434375 0.05625,0.703125 0.646875,0.703125 0.45,0 1.828125,-0.815625 l 0.45,1.040625 q -1.125,0.95625 -2.728125,1.715625 l 0.05625,0.253125 q 1.546875,-0.05625 3.403125,-0.73125 0.421875,0.675 1.06875,1.434375 0.140625,1.4625 1.828125,1.4625 1.603125,0 3.31875,-1.546875 1.940625,-1.771875 3.965625,-6.6375 0.9,-0.899999 0.9,-1.546874 0,-0.871875 -0.9,-1.85625 -0.815625,-0.7875 -3.290625,-0.7875 -1.209375,0 -3.515625,0.196875 1.828125,-1.35 5.625,-2.64375 1.434375,-0.3375 1.434375,-0.984375 0,-0.928125 -0.9,-1.35 -0.7875,-0.3375 -1.51875,-0.3375 -0.703125,0 -1.715625,1.096875 l -0.421875,0.05625 q 0.9,-1.434375 1.153125,-6.075 0.421875,-0.534375 0.421875,-1.040625 0,-0.646875 -1.2375,-1.546875 -0.84375,-0.61875 -1.63125,-0.61875 -0.365625,0 -1.153125,0.45 -3.375,0.815625 -4.134375,1.40625 -0.928125,-0.7875 -1.209375,-0.7875 -0.365625,0 -0.365625,0.5625 0,0.421875 0.61875,2.165625 -0.1125,1.575 -0.1125,3.684375 0,2.08125 1.51875,2.671875 -1.378125,1.265625 -2.728125,2.053125 -0.815625,0.365625 -1.85625,0.5625 0.1125,-0.815625 0.1125,-1.434375 0,-2.08125 -2.1375,-4.5 1.434375,-0.84375 2.41875,-1.74375 1.18125,-0.28125 1.18125,-1.096875 0,-0.675 -0.7875,-1.51875 -1.040625,-1.18125 -1.6875,-1.18125 -0.50625,0 -1.575,0.7875 -2.221875,0.61875 -4.978125,1.74375 z"
         style="font-family:'EPSON 太行書体Ｂ';-inkscape-font-specification:'EPSON 太行書体Ｂ'"
         id="path5502" /></g></g></svg>
