<svg viewBox="0 0 60 60" xmlns="http://www.w3.org/2000/svg"><g stroke-linecap="square" stroke-linejoin="round"><g stroke-width="1.56472"><text fill="none" opacity=".99" stroke="#000" transform="scale(-1)" x="-37.547287" y="-27.880617"><tspan fill="#000" stroke-width="1.56472" x="-37.547287" y="-27.880617"/></text><path d="m50.7 8.16036v-5.52h-41.3999999v5.52z" fill="#b1926e" opacity=".9801" stroke="#b1926e"/><path d="m50.700004 8.3455612h-41.400003l5.52 45.5398068 15.18 5.115155 15.180003-5.115155z" fill="#b1926e" opacity=".9801" stroke="#b1926e"/></g><text fill="none" opacity=".9801" stroke="#000" stroke-width="1.30394" transform="scale(-1)" x="-36.289406" y="-28.370817"><tspan fill="#000" stroke-width="1.30394" x="-36.289406" y="-28.370817"/></text><path d="m50.700001 2.64036h-41.4000015l5.5200005 45.539807 15.18 5.115155 15.180001-5.115155z" fill="#feea99" opacity=".99" stroke="#b1926e" stroke-width="1.56472"/><path d="m33.234384 37.607169q4.1625-4.1625 4.1625-5.034374 0-.646875-.9-1.35l2.64375.02812q-1.265625 4.021874-4.44375 7.031249-.759375-.253125-1.4625-.675zm-1.321875-13.303124q1.51875-2.025 3.31875-2.784375l-.196875 2.221875q-.39375-.196875-.73125-.196875-.196875 0-.50625.16875-1.153125.590625-1.884375.590625zm-.225-.73125v-1.29375l1.06875.05625zm-.39375-4.66875q.478125.08438.73125.08438.365625 0 1.18125-.196875 1.29375-.39375 2.109375-.39375l-.05625 2.053125q-.534375-.28125-1.18125-.28125-.28125 0-1.0125.3375-.871875.39375-1.490625.39375 0-1.2375-.28125-1.996875zm2.221875 12.76875q1.125-.253125 2.25-.39375-.5625.16875-1.996875.871875zm-2.8125 4.359374q1.96875-1.603125 3.15-3.009375l.84375-.140624q-.703125 1.349999-3.09375 3.937499zm-.45-8.128124q2.503125-2.109375 4.190625-2.446875l.309375.590625v.365625zm-11.278125-7.790625q-.5625-.16875-.7875-.16875-.534375 0-.534375.61875 0 .646875 1.209375 1.040625 1.0125.3375 1.434375.3375.534375 0 1.29375-.50625 1.153125-.815625 2.671875-1.575-.590625 1.209375-1.153125 1.96875-1.18125.871875-1.18125 1.884375 0 .871875 1.096875.928125 1.265625.95625 1.265625 2.925-1.321875-.3375-2.41875-1.040625 0-1.35-.140625-2.165625-.140625-.590625-.61875-1.096875-.73125-.7875-1.40625-.7875-.16875 0-.45.196875-.225.16875-.225.365625 0 .478125.590625 1.040625 0 5.0625-.871875 12.374999-.478125.871875-.478125 1.40625 0 .984375.590625 2.221875.534375 1.18125 1.4625 1.18125 1.378125 0 1.51875-1.940625 0-1.096875-.140625-2.7 0-3.515625.1125-8.296874.84375 1.265625 1.771875 2.53125.140625 1.18125 1.0125 1.18125.646875 0 1.35-.73125.225.140625.45.140625.534375 0 2.19375-.815625 1.63125-.95625 4.89375-1.996875-2.559375 1.8-4.5 2.728125-1.125.05625-1.63125.675-1.040625 1.293749-1.040625 1.828124.16875.871875.815625.871875.45 0 1.8-.928125 2.053125-1.349999 3.09375-1.603124l.140625.421875q-.928125.815624-2.278125 1.828124-1.35.28125-1.771875.95625-.50625.871875-.50625 1.434375.05625.703125.646875.703125.45 0 1.828125-.815625l.45 1.040625q-1.125.95625-2.728125 1.715625l.05625.253125q1.546875-.05625 3.403125-.73125.421875.675 1.06875 1.434375.140625 1.4625 1.828125 1.4625 1.603125 0 3.31875-1.546875 1.940625-1.771875 3.965625-6.6375.9-.899999.9-1.546874 0-.871875-.9-1.85625-.815625-.7875-3.290625-.7875-1.209375 0-3.515625.196875 1.828125-1.35 5.625-2.64375 1.434375-.3375 1.434375-.984375 0-.928125-.9-1.35-.7875-.3375-1.51875-.3375-.703125 0-1.715625 1.096875l-.421875.05625q.9-1.434375 1.153125-6.075.421875-.534375.421875-1.040625 0-.646875-1.2375-1.546875-.84375-.61875-1.63125-.61875-.365625 0-1.153125.45-3.375.815625-4.134375 1.40625-.928125-.7875-1.209375-.7875-.365625 0-.365625.5625 0 .421875.61875 2.165625-.1125 1.575-.1125 3.684375 0 2.08125 1.51875 2.671875-1.378125 1.265625-2.728125 2.053125-.815625.365625-1.85625.5625.1125-.815625.1125-1.434375 0-2.08125-2.1375-4.5 1.434375-.84375 2.41875-1.74375 1.18125-.28125 1.18125-1.096875 0-.675-.7875-1.51875-1.040625-1.18125-1.6875-1.18125-.50625 0-1.575.7875-2.221875.61875-4.978125 1.74375z" fill="#1919cd" opacity=".99" stroke="#1919cd" stroke-width=".453544" transform="matrix(-1.15 0 0 -1.15 64.500011 61.432095)"/></g></svg>