<svg viewBox="0 0 60 60" xmlns="http://www.w3.org/2000/svg"><g opacity=".99" stroke-linecap="square" stroke-linejoin="round"><g stroke-width="1.43434"><text fill="none" stroke="#000" x="23.081652" y="31.774658"><tspan fill="#000" stroke-width="1.43434" x="23.081652" y="31.774658"/></text><path d="m11.02501 49.681996h37.95l-5.06-41.7448234-13.915-4.6888921-13.915 4.6888921z" fill="#feea99" stroke="#b1926e"/><path d="m11.025 49.851506v5.06h37.95v-5.06z" fill="#b1926e" stroke="#b1926e"/></g><path d="m27.232999 33.511272.02578-1.521094q.825.309375 1.804687.309375-1.03125 1.03125-1.830469 1.211719zm-.02578 3.50625v-1.753125q.541406.257812 1.701562.257812-.747656.825-1.701562 1.495313zm-.825-14.128125q.644531.07734.979688.07734 4.228124-.360938 8.404687-3.09375.696094-.515625.696094-.799219 0-.721875-.670313-1.366406-1.03125-1.03125-1.882031-1.03125-1.495313.20625-1.495313.61875 0 .438281.773438 1.108593-2.758594 3.067969-6.80625 4.485938zm-.438281 6.39375q.876562-.309375 1.753125-.696094 0 .489844 1.675781.670313.541406 0 1.340625-.232032 1.598437-.386718 2.578125-.489843.103125 2.0625.103125 4.202343 0 1.959375-.180469 3.841406-.696094-.283593-1.082812-.283593-.283594 0-1.134375.515625-1.804688.438281-3.377344.438281 1.85625-1.160156 3.428906-1.985156 1.598438-.489844 1.598438-1.057032 0-.721875-1.572657-.928125-.386718 0-1.134375.360938-1.314843.360937-2.732812.541406v-.360937q1.882031-.592969 4.485937-2.242969 1.057032-.309375 1.057032-.696094 0-.747656-1.2375-.953906-.438282 0-1.289063.386719-1.804687.515625-3.042187.747656-.386719-.979687-1.2375-1.778906zm.515625-10.957031q0-.489844-.4125-.489844-.438281 0-.747656.541406-.309375.721875-.309375 1.546875 0 1.005469 1.392187 1.675781.670313.335157 1.160156.335157 1.005469 0 1.2375-1.289063 2.784375-2.165625 3.067969-3.171094-2.217188 1.572657-3.892969 2.217188-1.160156-.4125-1.495312-1.366406zm-7.064063 6.832031-.799218-.4125q-.489844 0-.541407.592969 0 .489843.850782 1.2375 1.314843 1.03125 2.191406 1.03125 1.005469 0 2.371875-.592969 1.85625-.825 4.228125-1.572656l.360937.541406q-.928125 1.546875-2.578125 2.655469-1.082812.232031-1.082812.953906 0 .257812.670312 1.417969 0 2.423437-.232031 4.614843-.283594 1.160156-.283594 1.624219 0 .902344.799219 1.985156.515625.541406 1.134375.541406.541406 0 .747656-1.082812.489844.154687.979688.154687 3.867187-.154687 4.872656-.592968.902344 1.598437 1.366406 1.598437.670313 0 1.2375-.902344.644531-1.392187.644531-2.475 0-2.8875-.07734-5.929687.567187-.953906.567187-1.469531 0-.670313-1.057031-1.753125-.953906-.876563-1.65-.876563-.335156 0-.953906.438282-2.26875.438281-4.099219.902343 1.392187-1.03125 1.392187-1.546875 0-.567187-.928125-1.314843 3.50625-.592969 6.986719-.592969.953906 0 2.371875.05156 1.778906 0 1.778906-1.263281 0-1.005469-1.2375-1.727344-1.2375-.670312-1.830468-.670312-.464063 0-1.907813 1.185937-10.338281 1.778907-16.29375 3.248438z" stroke="#000" stroke-width=".415748" transform="matrix(1.15 0 0 1.15 -4.5 -6.661984)"/></g></svg>