<svg viewBox="0 0 60 60" xmlns="http://www.w3.org/2000/svg"><g opacity=".99" stroke-linecap="square" stroke-linejoin="round"><g stroke-width="1.24725"><text fill="none" stroke="#000" x="23.984045" y="32.923134"><tspan fill="#000" stroke-width="1.24725" x="23.984045" y="32.923134"/></text><path d="m13.500009 48.494765h33l-4.4-36.299846-12.1-4.0772975-12.1 4.0772975z" fill="#feea99" stroke="#b1926e"/><path d="m13.5 48.642165v4.4h33v-4.4z" fill="#b1926e" stroke="#b1926e"/></g><path d="m26.027351 28.985413q1.523438-.703125 3.445313-1.3125.351562.726562.351562 1.359375 0 .679687-.117187 2.648437-1.101563-.164062-1.570313-.5625.703125-.679687 1.429688-1.570312-1.289063.726562-2.179688 1.148437l-.679687-.421875.28125.609375-.773438.304688q.164063-.84375.164063-1.101563 0-.351562-.351563-1.101562zm-1.054687-2.179688q-1.734375.539063-3.585938.9375-.796875-.304687-1.007812-.304687-.375 0-.375.375 0 .445312 1.359375 1.453125 1.195312.65625 1.828125.65625.585937 0 1.476562-.304688-.867187 1.40625-.867187 2.085938 0 .9375.492187 1.945312.539063.726563 1.101563.726563.515625 0 .867187-1.21875l1.359375-1.382813q.46875.867188 1.335938 1.5.328125 1.03125 1.125 1.289063-3.773438 3.1875-7.125 4.6875-1.359375.351562-1.359375.75 0 .28125.867187.28125 3.375-.257813 5.859375-1.523438 2.695313-1.734375 7.03125-5.90625.890625-.9375.890625-1.335937 0-.445313-.09375-1.03125.445313.445312.796875.890625.445313.609375 1.125.609375 1.125 0 1.125-1.476563 0-1.359375-1.546875-2.25-1.476562-.773437-3.375-.773437-.820312 0-.820312.375 0 .304687.796875 1.03125-.679688.28125-.679688.609375 0 .28125.46875.820312l-2.109375 2.25q.1875-1.242187.1875-3.328125 0-.984375-.46875-1.476562-.421875-.304688-.492187-.515625 1.945312-.328125 3.773437-.328125.9375 0 3.9375.234375 1.125 0 1.125-1.101563 0-.65625-.5625-1.054687-1.3125-.820313-1.851562-.820313-.421875 0-1.265625.679688-2.71875.375-4.6875.5625l.257812-2.15625q.75.28125 1.195313.28125.84375 0 2.085937-.28125 1.617188-.421875 1.617188-1.289063 0-.65625-.679688-.984375-.820312-.328125-1.546875-.328125-.28125 0-.914062.632813-.65625.445312-1.617188.632812l.07031-.515625q.304687-.65625.304687-1.054687 0-.421875-.9375-.9375-1.171875-.679688-1.78125-.679688-1.476562.234375-1.476562.796875 0 .351563 1.195312 1.171875l.07031 5.085938-2.273438.46875q.65625-1.78125.65625-2.578125 0-.9375-1.03125-1.429688-1.265625-.492187-1.59375-.796875-.257812-.539062-.539062-.539062-.398438 0-.398438.867187 0 .609375 1.007813 1.710938.09375 1.054687.09375 1.617187 0 .679688-.421875 1.6875z" stroke="#000" stroke-width=".377953" transform="matrix(1.1 0 0 1.1 -3 -4.157835)"/></g></svg>