<svg viewBox="0 0 60 60" xmlns="http://www.w3.org/2000/svg"><g opacity=".99" stroke-linecap="square" stroke-linejoin="round"><g stroke-width="1.43434"><text fill="none" stroke="#000" x="23.081652" y="31.774658"><tspan fill="#000" stroke-width="1.43434" x="23.081652" y="31.774658"/></text><path d="m11.02501 49.681996h37.95l-5.06-41.7448234-13.915-4.6888921-13.915 4.6888921z" fill="#feea99" stroke="#b1926e"/><path d="m11.025 49.851506v5.06h37.95v-5.06z" fill="#b1926e" stroke="#b1926e"/></g><path d="m35.828499 31.526116-.128907-1.057032q.541407.438282 1.057032 1.03125zm-5.955469-7.657032q0 .489844 1.108594.670313 2.114062.592969 7.270312 3.609375.670313.360937 1.082813.360937 1.005468 0 1.108593-1.134375 0-1.546875-1.959375-2.990625-1.701562-1.134375-6.1875-1.134375-2.423437 0-2.423437.61875zm-2.139844 11.75625.02578-.541406.02578-.515625.696093-.20625q-.309375.61875-.747656 1.263281zm-6.342187-1.907812q-.489844 0-.592969.386718 0 .360938.696094.825 1.185937.799219 1.701562.799219.747656 0 2.088281-.309375 0 2.139844.386719 2.68125.567188.850781 1.392188.850781.876562 0 1.108593-1.959375.489844-1.44375.876563-2.784375 2.010937-.464062 3.944531-.696093-.20625 5.053125-1.727344 8.378906 2.603907-1.2375 3.557813-3.274219.773437-1.985156.979687-5.233594 1.44375 0 2.8875.128907 1.211719 0 1.211719-.825 0-1.211719-2.449219-1.727344-.902343-.464062-1.830468-.876562-.154688-.360938-.773438-.825-.876562-.61875-1.521094-.61875-.953906.232031-.953906.644531 0 .438281.773438.850781-.02578.902344-.05156 1.701563-2.707031.4125-5.388281.928124-.335156-2.707031-1.44375-2.964843-.489844 0-.489844.309375l.103125.825q-.283594 1.44375-.386719 2.294531-1.778906.4125-3.428906.721875zm-.464063-3.274219q-.309375-.747656-.309375-1.598437-.386718.747656-.928125 1.933593-.876562.928125-.876562 1.263282 0 .773437.721875.773437.928125 0 2.371875-.61875 1.882031-1.082812 4.305468-3.996094.799219 1.005469 1.727344 1.005469.721875 0 1.44375-.103125-.05156.61875-.154687 1.263281-.850782 0-1.727344-.103125.515625.567188 1.546875 1.2375.232031.515625.696094.515625.670312 0 1.005468-.541406.541407-.876562.850782-2.835937 1.160156-.232032 1.830468-.644532.592969-.4125.592969-.747656 0-.773437-2.165625-1.082812 0-.670313-.20625-.850782-.850781-.696093-1.830469-.696093-1.211718.257812-1.211718.850781 0 .257812.721875.696094l.05156 1.082812q-1.2375.386719-2.114062.592969l-.592969-.257813q1.314844-1.830468 3.016406-4.511718 4.099219-1.057032 5.285156-1.598438 1.108594-.541406 1.108594-1.289062 0-.850782-1.495312-1.082813-1.495313-.02578-2.191407-.232031l.05156-.360938q0-.541406-1.057031-1.469531-.670313-.592969-1.572657-.592969-1.2375.309375-1.2375.799219 0 .309375.747657 1.082813-.360938 1.082812-.747657 2.088281-3.067968 1.185937-5.078906 1.675781l-1.03125-.180469q-.515625 0-.515625.644532 0 .515625 1.057032.953906 1.185937.515625 2.088281.515625.4125 0 1.65-.103125-2.294532 3.50625-5.826563 6.522656z" fill="#1919cd" stroke="#1919cd" stroke-width=".415748" transform="matrix(1.15 0 0 1.15 -4.5 -6.661984)"/></g></svg>