<?xml version="1.0" encoding="UTF-8" standalone="no"?>
<svg
   viewBox="0 0 60 60"
   version="1.1"
   id="svg225"
   sodipodi:docname="wq.svg"
   xml:space="preserve"
   inkscape:version="1.2.2 (732a01da63, 2022-12-09)"
   xmlns:inkscape="http://www.inkscape.org/namespaces/inkscape"
   xmlns:sodipodi="http://sodipodi.sourceforge.net/DTD/sodipodi-0.dtd"
   xmlns="http://www.w3.org/2000/svg"
   xmlns:svg="http://www.w3.org/2000/svg"><sodipodi:namedview
     id="namedview227"
     pagecolor="#ffffff"
     bordercolor="#000000"
     borderopacity="0.25"
     inkscape:showpageshadow="2"
     inkscape:pageopacity="0.0"
     inkscape:pagecheckerboard="0"
     inkscape:deskcolor="#d1d1d1"
     showgrid="false"
     inkscape:zoom="12.366667"
     inkscape:cx="27.816711"
     inkscape:cy="27.978436"
     inkscape:window-width="1920"
     inkscape:window-height="974"
     inkscape:window-x="-11"
     inkscape:window-y="-11"
     inkscape:window-maximized="1"
     inkscape:current-layer="g223" /><defs
     id="defs211"><filter
       id="a"
       color-interpolation-filters="sRGB"
       x="-0.045154372"
       y="-0.034558231"
       width="1.1843804"
       height="1.1123142"><feFlood
         flood-opacity=".498"
         flood-color="#000"
         result="flood"
         id="feFlood200" /><feComposite
         in="flood"
         in2="SourceGraphic"
         operator="in"
         result="composite1"
         id="feComposite202" /><feGaussianBlur
         in="composite1"
         stdDeviation="1"
         result="blur"
         id="feGaussianBlur204" /><feOffset
         dx="5"
         dy="3"
         result="offset"
         id="feOffset206" /><feComposite
         in="SourceGraphic"
         in2="offset"
         result="composite2"
         id="feComposite208" /></filter><filter
       id="a-6"
       color-interpolation-filters="sRGB"
       x="-0.045154372"
       y="-0.034558231"
       width="1.1843804"
       height="1.1123142"><feFlood
         flood-opacity=".498"
         flood-color="#000"
         result="flood"
         id="feFlood5194" /><feComposite
         in="flood"
         in2="SourceGraphic"
         operator="in"
         result="composite1"
         id="feComposite5196" /><feGaussianBlur
         in="composite1"
         stdDeviation="1"
         result="blur"
         id="feGaussianBlur5198" /><feOffset
         dx="5"
         dy="3"
         result="offset"
         id="feOffset5200" /><feComposite
         in="SourceGraphic"
         in2="offset"
         result="composite2"
         id="feComposite5202" /></filter></defs><g
     opacity=".99"
     id="g223"><text
       xml:space="preserve"
       style="font-size:20.24px;font-family:sans-serif;-inkscape-font-specification:sans-serif;fill:none;stroke:#000000;stroke-width:1.43434;stroke-linecap:square;stroke-linejoin:round;stroke-dasharray:none;paint-order:stroke fill markers;stop-color:#000000"
       x="23.081652"
       y="31.774658"
       id="text542"><tspan
         sodipodi:role="line"
         id="tspan540"
         x="23.081652"
         y="31.774658"
         style="font-style:normal;font-variant:normal;font-weight:normal;font-stretch:normal;font-family:Forte;-inkscape-font-specification:Forte;fill:#000000;fill-opacity:1;stroke-width:1.43434" /></text><path
       style="fill:#feea99;fill-opacity:1;stroke:#b1926e;stroke-width:1.43434;stroke-linecap:square;stroke-linejoin:round;stroke-dasharray:none;stroke-opacity:1;paint-order:stroke fill markers;stop-color:#000000"
       d="m 11.02501,49.681996 h 37.95 l -5.06,-41.7448234 -13.915,-4.6888921 -13.915,4.6888921 z"
       id="path3326"
       sodipodi:nodetypes="cccccc" /><path
       style="fill:#b1926e;fill-opacity:1;stroke:#b1926e;stroke-width:1.43434;stroke-linecap:square;stroke-linejoin:round;stroke-dasharray:none;stroke-opacity:1;paint-order:stroke fill markers;stop-color:#000000"
       d="m 11.025,49.851506 v 5.06 h 37.95 v -5.06 z"
       id="path3328"
       sodipodi:nodetypes="ccccc" /><g
       aria-label="奔"
       id="text10863"
       style="font-size:26.4px;font-family:Forte;-inkscape-font-specification:Forte;fill:#1919cd;stroke:#1919cd;stroke-width:0.415748;stroke-linecap:square;stroke-linejoin:round;paint-order:stroke fill markers;stop-color:#000000"
       transform="matrix(1.15,0,0,1.15,-4.5000001,-6.6619842)"><path
         d="m 35.828499,31.526116 -0.128907,-1.057032 q 0.541407,0.438282 1.057032,1.03125 z M 29.87303,23.869084 q 0,0.489844 1.108594,0.670313 2.114062,0.592969 7.270312,3.609375 0.670313,0.360937 1.082813,0.360937 1.005468,0 1.108593,-1.134375 0,-1.546875 -1.959375,-2.990625 -1.701562,-1.134375 -6.1875,-1.134375 -2.423437,0 -2.423437,0.61875 z m -2.139844,11.75625 0.02578,-0.541406 0.02578,-0.515625 0.696093,-0.20625 q -0.309375,0.61875 -0.747656,1.263281 z m -6.342187,-1.907812 q -0.489844,0 -0.592969,0.386718 0,0.360938 0.696094,0.825 1.185937,0.799219 1.701562,0.799219 0.747656,0 2.088281,-0.309375 0,2.139844 0.386719,2.68125 0.567188,0.850781 1.392188,0.850781 0.876562,0 1.108593,-1.959375 0.489844,-1.44375 0.876563,-2.784375 2.010937,-0.464062 3.944531,-0.696093 -0.20625,5.053125 -1.727344,8.378906 2.603907,-1.2375 3.557813,-3.274219 0.773437,-1.985156 0.979687,-5.233594 1.44375,0 2.8875,0.128907 1.211719,0 1.211719,-0.825 0,-1.211719 -2.449219,-1.727344 -0.902343,-0.464062 -1.830468,-0.876562 -0.154688,-0.360938 -0.773438,-0.825 -0.876562,-0.61875 -1.521094,-0.61875 -0.953906,0.232031 -0.953906,0.644531 0,0.438281 0.773438,0.850781 -0.02578,0.902344 -0.05156,1.701563 -2.707031,0.4125 -5.388281,0.928124 -0.335156,-2.707031 -1.44375,-2.964843 -0.489844,0 -0.489844,0.309375 l 0.103125,0.825 q -0.283594,1.44375 -0.386719,2.294531 -1.778906,0.4125 -3.428906,0.721875 z m -0.464063,-3.274219 q -0.309375,-0.747656 -0.309375,-1.598437 -0.386718,0.747656 -0.928125,1.933593 -0.876562,0.928125 -0.876562,1.263282 0,0.773437 0.721875,0.773437 0.928125,0 2.371875,-0.61875 1.882031,-1.082812 4.305468,-3.996094 0.799219,1.005469 1.727344,1.005469 0.721875,0 1.44375,-0.103125 -0.05156,0.61875 -0.154687,1.263281 -0.850782,0 -1.727344,-0.103125 0.515625,0.567188 1.546875,1.2375 0.232031,0.515625 0.696094,0.515625 0.670312,0 1.005468,-0.541406 0.541407,-0.876562 0.850782,-2.835937 1.160156,-0.232032 1.830468,-0.644532 0.592969,-0.4125 0.592969,-0.747656 0,-0.773437 -2.165625,-1.082812 0,-0.670313 -0.20625,-0.850782 -0.850781,-0.696093 -1.830469,-0.696093 -1.211718,0.257812 -1.211718,0.850781 0,0.257812 0.721875,0.696094 l 0.05156,1.082812 q -1.2375,0.386719 -2.114062,0.592969 l -0.592969,-0.257813 q 1.314844,-1.830468 3.016406,-4.511718 4.099219,-1.057032 5.285156,-1.598438 1.108594,-0.541406 1.108594,-1.289062 0,-0.850782 -1.495312,-1.082813 -1.495313,-0.02578 -2.191407,-0.232031 l 0.05156,-0.360938 q 0,-0.541406 -1.057031,-1.469531 -0.670313,-0.592969 -1.572657,-0.592969 -1.2375,0.309375 -1.2375,0.799219 0,0.309375 0.747657,1.082813 -0.360938,1.082812 -0.747657,2.088281 -3.067968,1.185937 -5.078906,1.675781 l -1.03125,-0.180469 q -0.515625,0 -0.515625,0.644532 0,0.515625 1.057032,0.953906 1.185937,0.515625 2.088281,0.515625 0.4125,0 1.65,-0.103125 -2.294532,3.50625 -5.826563,6.522656 z"
         style="font-family:'EPSON 太行書体Ｂ';-inkscape-font-specification:'EPSON 太行書体Ｂ'"
         id="path1144" /></g></g></svg>
