<?xml version="1.0" encoding="UTF-8" standalone="no"?>
<svg
   viewBox="0 0 60 60"
   version="1.1"
   id="svg225"
   sodipodi:docname="wr.svg"
   xml:space="preserve"
   inkscape:version="1.2.2 (732a01da63, 2022-12-09)"
   xmlns:inkscape="http://www.inkscape.org/namespaces/inkscape"
   xmlns:sodipodi="http://sodipodi.sourceforge.net/DTD/sodipodi-0.dtd"
   xmlns="http://www.w3.org/2000/svg"
   xmlns:svg="http://www.w3.org/2000/svg"><sodipodi:namedview
     id="namedview227"
     pagecolor="#ffffff"
     bordercolor="#000000"
     borderopacity="0.25"
     inkscape:showpageshadow="2"
     inkscape:pageopacity="0.0"
     inkscape:pagecheckerboard="0"
     inkscape:deskcolor="#d1d1d1"
     showgrid="false"
     inkscape:zoom="12.366667"
     inkscape:cx="27.816711"
     inkscape:cy="27.978436"
     inkscape:window-width="1920"
     inkscape:window-height="974"
     inkscape:window-x="-11"
     inkscape:window-y="-11"
     inkscape:window-maximized="1"
     inkscape:current-layer="g223" /><defs
     id="defs211"><filter
       id="a"
       color-interpolation-filters="sRGB"
       x="-0.045154372"
       y="-0.034558231"
       width="1.1843804"
       height="1.1123142"><feFlood
         flood-opacity=".498"
         flood-color="#000"
         result="flood"
         id="feFlood200" /><feComposite
         in="flood"
         in2="SourceGraphic"
         operator="in"
         result="composite1"
         id="feComposite202" /><feGaussianBlur
         in="composite1"
         stdDeviation="1"
         result="blur"
         id="feGaussianBlur204" /><feOffset
         dx="5"
         dy="3"
         result="offset"
         id="feOffset206" /><feComposite
         in="SourceGraphic"
         in2="offset"
         result="composite2"
         id="feComposite208" /></filter><filter
       id="a-6"
       color-interpolation-filters="sRGB"
       x="-0.045154372"
       y="-0.034558231"
       width="1.1843804"
       height="1.1123142"><feFlood
         flood-opacity=".498"
         flood-color="#000"
         result="flood"
         id="feFlood5194" /><feComposite
         in="flood"
         in2="SourceGraphic"
         operator="in"
         result="composite1"
         id="feComposite5196" /><feGaussianBlur
         in="composite1"
         stdDeviation="1"
         result="blur"
         id="feGaussianBlur5198" /><feOffset
         dx="5"
         dy="3"
         result="offset"
         id="feOffset5200" /><feComposite
         in="SourceGraphic"
         in2="offset"
         result="composite2"
         id="feComposite5202" /></filter></defs><g
     opacity=".99"
     id="g223"><text
       xml:space="preserve"
       style="font-size:20.24px;font-family:sans-serif;-inkscape-font-specification:sans-serif;fill:none;stroke:#000000;stroke-width:1.43434;stroke-linecap:square;stroke-linejoin:round;stroke-dasharray:none;paint-order:stroke fill markers;stop-color:#000000"
       x="23.081652"
       y="31.774658"
       id="text542"><tspan
         sodipodi:role="line"
         id="tspan540"
         x="23.081652"
         y="31.774658"
         style="font-style:normal;font-variant:normal;font-weight:normal;font-stretch:normal;font-family:Forte;-inkscape-font-specification:Forte;fill:#000000;fill-opacity:1;stroke-width:1.43434" /></text><path
       style="fill:#feea99;fill-opacity:1;stroke:#b1926e;stroke-width:1.43434;stroke-linecap:square;stroke-linejoin:round;stroke-dasharray:none;stroke-opacity:1;paint-order:stroke fill markers;stop-color:#000000"
       d="m 11.02501,49.681996 h 37.95 l -5.06,-41.7448234 -13.915,-4.6888921 -13.915,4.6888921 z"
       id="path3326"
       sodipodi:nodetypes="cccccc" /><path
       style="fill:#b1926e;fill-opacity:1;stroke:#b1926e;stroke-width:1.43434;stroke-linecap:square;stroke-linejoin:round;stroke-dasharray:none;stroke-opacity:1;paint-order:stroke fill markers;stop-color:#000000"
       d="m 11.025,49.851506 v 5.06 h 37.95 v -5.06 z"
       id="path3328"
       sodipodi:nodetypes="ccccc" /><g
       aria-label="方"
       id="text10863"
       style="font-size:26.4px;font-family:Forte;-inkscape-font-specification:Forte;stroke:#000000;stroke-width:0.415748;stroke-linecap:square;stroke-linejoin:round;paint-order:stroke fill markers;stop-color:#000000"
       transform="matrix(1.15,0,0,1.15,-4.5000001,-6.6619842)"><path
         d="m 27.94253,33.511272 2.500781,-4.357031 q 0.773438,0.283593 2.964844,0.283593 1.082813,0 1.082813,0.876563 0,0.464062 -0.515625,1.675781 -1.417969,3.274219 -2.165625,3.91875 -1.624219,-0.20625 -2.475,-0.825 -0.438281,-0.335156 -1.392188,-1.572656 z M 25.957374,21.858147 q 2.139844,0 4.357031,-0.489844 1.340625,0.257813 1.598438,0.257813 1.314843,0 1.314843,-1.44375 0,-1.185938 -0.670312,-1.882032 -1.366406,-1.289062 -2.784375,-1.289062 -2.165625,0.335156 -2.165625,1.2375 0,0.489844 1.134375,1.082812 l 0.670313,0.386719 q -1.2375,1.211719 -3.454688,2.139844 z m -5.439844,2.784375 q -0.825,-0.257813 -1.005468,-0.257813 -0.567188,0 -0.567188,0.489844 0,0.438281 1.160156,1.314844 1.624219,1.082812 2.964844,1.082812 0.670313,0 2.114063,-0.464062 4.821093,-2.088281 8.765624,-2.294531 -1.160156,0.902343 -2.861718,2.320312 -1.2375,-1.2375 -1.830469,-1.2375 -1.340625,0.232031 -1.340625,1.160156 0,0.489844 0.670313,0.799219 -1.289063,2.397656 -2.758594,4.692188 -2.088281,3.274218 -3.635156,4.537499 -1.546875,1.03125 -1.546875,1.289063 0,0.283594 0.438281,0.283594 1.417969,0 3.609375,-1.2375 1.417969,-0.825 2.732812,-2.784375 1.314844,3.274218 2.088282,4.5375 0,1.495312 1.211718,1.495312 2.526563,0 4.511719,-3.7125 1.959375,-4.485937 1.959375,-6.290625 0,-1.03125 -0.541406,-1.804687 -0.515625,-0.721875 -1.624219,-0.876563 -1.160156,-0.128906 -3.171094,-0.20625 3.248438,-2.346093 6.625781,-3.042187 1.933594,0 1.933594,-1.160156 0,-0.979688 -0.979687,-1.521094 -1.263282,-0.567188 -1.701563,-0.567188 -0.541406,0 -1.495312,0.747657 -1.907813,0.4125 -5.903907,1.082812 -4.563281,0.592969 -9.822656,1.624219 z"
         style="font-family:'EPSON 太行書体Ｂ';-inkscape-font-specification:'EPSON 太行書体Ｂ'"
         id="path305" /></g></g></svg>
