<svg height="92" width="92" xmlns="http://www.w3.org/2000/svg"><g><circle cx="45.999996" cy="46" fill="#fedaa4" r="36.919033" stroke="#000" stroke-linecap="round" stroke-linejoin="bevel" stroke-width="2.27194"/><g stroke="#c00"><circle cx="45.999939" cy="45.999977" fill="none" r="33.066902" stroke-linecap="round" stroke-linejoin="bevel" stroke-width="2.27194"/><g stroke-linejoin="round" transform="translate(2.288136 -1.334746)"><g fill="none"><path d="m47.064588 53.683811c1.948125 2.351345 2.686542 6.462037 1.885289 10.220845l-25.32568-.268075c-5.1869-.05498 1.57106-13.907083 1.57106-13.907083" stroke-width="2.27194"/><path d="m40.277558 45.037955s-1.164733 5.674796-4.713215 7.204877c-3.548483 1.530081-14.453877-3.015986-14.453877-3.015986s7.963534-18.259428 10.211988-19.436405 8.012468.502671 8.012468.502671c13.712891-7.82814 16.862772 6.982704 18.77669 17.349531.527326 4.989282 9.782247 14.906139 6.424641 18.200979l-2.912033.234291c-8.56514 2.630333 9.675021-1.123141-9.473328-13.467284 0 0-3.140326.923427-5.71457.732219-2.574227-.191228-6.158764-8.304932-6.158764-8.304932z" stroke-width="2.27194"/><path d="m50.174012 48.390196c4.939804 4.666342 13.152163 5.105119 19.048856 6.256559-6.758428-2.053547-14.465314-4.630902-17.016322-9.753045z" stroke-width="1.542795"/></g><ellipse cx="38.413113" cy="-50.401497" fill="#a00" rx=".851953" ry=".79883" stroke-linecap="round" stroke-width="1.839041" transform="rotate(90)"/></g></g></g></svg>