<svg height="92" width="92" xmlns="http://www.w3.org/2000/svg"><g><circle cx="45.9999978" cy="45.99999995" fill="#fedaa4" r="36.9190315" stroke="#000" stroke-linecap="round" stroke-linejoin="bevel" stroke-width="2.2719404"/><g fill="none" stroke="#c00"><circle cx="45.99994100149" cy="45.9999772306" r="33.06689975329" stroke-linecap="round" stroke-linejoin="bevel" stroke-width="2.27194019939"/><g stroke-width="1.010084" transform="matrix(-.53812597093 1.79183667635 -1.79183667635 -.53812597093 878.14369067998 -424.73287422343)"><path d="m378.25463 342.35677c-6.15812-1.89574-26.27581-4.43582-13.98614 10.57576"/><path d="m375.15587 341.89173 5.33321 17.72168"/><path d="m377.0299 349.03315-14.29067 4.06422"/><path d="m378.39052 352.59164-14.35136 4.24992"/><path d="m358.85038 354.86948c-.37247-.76392-.74495-1.52783-1.11743-2.29175 1.12757-.30123 2.08147-.58618 3.20905-.88742.15011.92355.23394 1.54428.38405 2.46783l1.61096-1.51447c.42075 1.52823.8415 3.05646 1.26225 4.58468-.84274-.1665-1.28389-.41775-2.12662-.58426.45056.94077.49945 1.60774.95002 2.54851-1.02142.21136-2.04609.53127-3.06751.74263-.0975-.90859-.22629-1.5568-.32382-2.46539-.68309.43359-1.33158.85681-2.01467 1.2904l-1.20748-4.02063c.7409.0532 1.7003.0766 2.4412.12987z" stroke-linejoin="round"/></g><path d="m31.703728 68.833207c-6.710701-10.014198-21.936773-44.458981 11.574917-30.51602" stroke-width="1.889764"/><path d="m62.325685 68.199341-31.816182.02238" stroke-width="1.889764"/></g></g></svg>