<?xml version="1.0" encoding="UTF-8" standalone="no"?>
<svg
   xmlns:dc="http://purl.org/dc/elements/1.1/"
   xmlns:cc="http://creativecommons.org/ns#"
   xmlns:rdf="http://www.w3.org/1999/02/22-rdf-syntax-ns#"
   xmlns:svg="http://www.w3.org/2000/svg"
   xmlns="http://www.w3.org/2000/svg"
   xmlns:sodipodi="http://sodipodi.sourceforge.net/DTD/sodipodi-0.dtd"
   xmlns:inkscape="http://www.inkscape.org/namespaces/inkscape"
   width="92"
   height="92"
   id="svg2"
   version="1.1"
   inkscape:version="1.0.1 (3bc2e813f5, 2020-09-07)"
   sodipodi:docname="BC.svg">
  <metadata
     id="metadata12">
    <rdf:RDF>
      <cc:Work
         rdf:about="">
        <dc:format>image/svg+xml</dc:format>
        <dc:type
           rdf:resource="http://purl.org/dc/dcmitype/StillImage" />
        <dc:title></dc:title>
      </cc:Work>
    </rdf:RDF>
  </metadata>
  <defs
     id="defs10" />
  <sodipodi:namedview
     pagecolor="#ffffff"
     bordercolor="#666666"
     borderopacity="1"
     objecttolerance="10"
     gridtolerance="10"
     guidetolerance="10"
     inkscape:pageopacity="0"
     inkscape:pageshadow="2"
     inkscape:window-width="3840"
     inkscape:window-height="2050"
     id="namedview8"
     showgrid="false"
     inkscape:zoom="3.7083822"
     inkscape:cx="126.30832"
     inkscape:cy="7.209259"
     inkscape:window-x="3828"
     inkscape:window-y="-12"
     inkscape:window-maximized="1"
     inkscape:current-layer="layer2"
     fit-margin-top="0"
     fit-margin-left="0"
     fit-margin-right="0"
     fit-margin-bottom="0"
     inkscape:pagecheckerboard="false"
     inkscape:snap-nodes="false"
     inkscape:document-rotation="0"
     showguides="false" />
  <g
     inkscape:groupmode="layer"
     id="layer1"
     inkscape:label="Background"
     style="display:inline" />
  <g
     inkscape:groupmode="layer"
     id="layer2"
     inkscape:label="Symbol"
     style="display:inline">
    <g
       id="g24262"
       transform="translate(0.6186409,-2.3347435)"
       style="display:inline;">
      <circle
         style="color:#000000;display:inline;overflow:visible;visibility:visible;fill:#e6e6e6;fill-opacity:1;fill-rule:nonzero;stroke:#333333;stroke-width:3;stroke-linecap:round;stroke-linejoin:miter;stroke-miterlimit:10;stroke-dasharray:none;stroke-dashoffset:0;stroke-opacity:1;marker:none;enable-background:accumulate"
         id="circle4376-8-9"
         cx="45.381359"
         cy="48.334743"
         r="40.79224" />
    </g>
    <path
       style="display:inline;fill:#333333;stroke-width:0.571313"
       d="m 47.010983,70.809257 c -1.24115,-0.29065 -2.7072,-0.93646 -3.25784,-1.43479 -1.68699,-1.52666 -2.36424,-6.56867 -1.91909,-14.28665 l 0.40441,-7.01121 4.08586,-0.16668 4.0859,-0.16668 0.17007,-3.57071 0.17008,-3.5707 h -4.29203 c -3.86116,0 -4.36282,0.12926 -4.99721,1.28545 -0.46353,0.84484 -0.78766,5.06884 -0.94564,12.32315 l -0.24038,11.0377 -4.07351,-0.18256 -4.0735,-0.18255 -0.17903,1.85673 c -0.15549,1.61212 -0.39068,1.85681 -1.78536,1.85681 -0.88347,0 -2.40975,-0.16063 -3.39169,-0.35716 l -1.78521,-0.35717 v -4.96044 -4.96044 l -2.53584,-1.78745 -2.53586,-1.78742 1.37804,-4.46419 c 0.75792,-2.45533 2.51923,-7.85699 3.91401,-12.00374 l 2.53598,-7.53951 -2.37798,-0.1731 c -2.35769,-0.17159 -2.37946,-0.19389 -2.55364,-2.60134 l -0.17575,-2.42804 h 2.51408 c 1.38273,0 5.62172,-0.16706 9.41996,-0.37153 l 6.90587,-0.37115 0.18255,2.21344 0.18255,2.21345 3.05352,-4.1274 c 1.67939,-2.27002 3.20814,-4.12736 3.39719,-4.12736 0.18897,0 1.32159,0.67767 2.51682,1.50599 2.14863,1.48899 2.71083,2.6648 1.6018,3.35018 -1.71462,1.0597 0.11188,1.42832 7.07815,1.42832 10.60256,0 10.28587,-0.30766 10.54477,10.24032 0.21581,8.79285 -0.53616,16.2367 -1.90836,18.89023 -0.95149,1.84003 -0.97273,1.82196 2.85321,2.42842 1.01344,0.16063 1.13801,0.60579 1.10161,3.93718 -0.0461,4.21239 -1.35099,7.15188 -3.70378,8.34258 -1.6619,0.84102 -17.85774,0.90195 -21.36442,0.0801 z m 17.39645,-9.92584 c 0,-1.37185 -0.14173,-1.42828 -3.58775,-1.42828 h -3.58779 l -1.12559,-2.92184 c -1.12667,-2.92475 -2.7823,-4.24887 -4.49219,-3.59274 -1.12082,0.43011 -1.34343,1.6696 -1.04171,5.80044 l 0.26078,3.57071 h 6.78713 6.78712 z m -30.63979,-2.71377 c 0.56561,-2.1106 0.41174,-15.85399 -0.17749,-15.85399 -0.93005,0 -1.03751,0.66138 -1.4618,8.99819 -0.3578,7.03034 -0.29771,8.14125 0.44024,8.14125 0.47001,0 1.0096,-0.57845 1.19906,-1.28545 z m 27.28006,-10.14626 c 0.19464,-2.3537 0.38744,-6.91464 0.42848,-10.13544 l 0.0748,-5.85596 h -6.82337 c -6.40343,0 -6.87814,0.0782 -7.71274,1.26973 -0.48918,0.69834 -0.88939,1.46963 -0.88939,1.71394 0,0.24416 2.35785,0.44421 5.23967,0.44421 7.39567,0 7.32926,-0.0865 7.32926,9.55713 0,6.99258 0.0881,7.64939 0.99984,7.47599 0.80647,-0.15345 1.06817,-1.01742 1.3536,-4.4696 z m -22.69321,-14.42029 2.10351,-2.99943 -1.59403,-0.32731 c -0.87669,-0.17991 -2.01814,-0.12057 -2.5365,0.13228 -0.98985,0.48261 -2.90993,5.29319 -2.34012,5.86299 0.95287,0.9529 2.48319,0.0189 4.36714,-2.66857 z"
       id="path851-0"
       sodipodi:nodetypes="scccccccscsccccsccccccscccccsccccssccsscsccsssscccccccssssssscccscssscccccccccc" />
  </g>
</svg>
