<svg height="92" width="92" xmlns="http://www.w3.org/2000/svg"><g><circle cx="46" cy="45.999999" fill="#e6e6e6" r="40.79224" stroke="#333" stroke-linecap="round" stroke-miterlimit="10" stroke-width="3"/><path d="m56.898841 69.458965c-.44043-1.05456-.98154-2.88155-1.20242-4.05986l-.40158-2.14246h3.2058 3.20583v-5.42748-5.42751h-4.70638c-2.58852 0-10.57905.40785-17.75675.90625-7.17766.49845-13.19395.76264-13.36955.58708-.30538-.30539.63799-20.09625 1.37133-28.77363l.34998-4.14204h4.23859c2.33125 0 4.67161.22443 5.20086.49874.55975.29012 7.39381.16993 16.3384-.28743 8.45689-.43238 15.49372-.66857 15.63742-.52486.14362.14381.0832 1.68705-.13455 3.42966l-.39587 3.16834h-7.38599-7.38599v1.50469 1.50467l5.71314-.27511 5.71317-.27508v2.72416 2.72418l-3.57071.33509c-1.96392.1844-4.59908.39757-5.856.47396-1.80801.10991-2.28525.36356-2.28525 1.21487 0 .99123.46371 1.06737 5.88861.96657l5.8887-.10949-.17575 2.74695-.17537 2.74698-5.856.16283c-5.38511.14963-5.85596.25307-5.85596 1.28545 0 1.04208.4202 1.12364 5.85596 1.13629 11.83816.0276 12.43891.56304 12.39386 11.04747-.0506 11.78283-1.26119 13.63385-9.15118 13.99212l-4.53573.20598zm-13.80253-23.15165c.58616-1.52749-.29783-1.85134-4.09966-1.50207-2.98348.27409-3.57071.50287-3.57071 1.3913 0 .92595.47173 1.06328 3.65243 1.06328 2.88238 0 3.72948-.20081 4.01794-.95251zm.22488-8.61702c.17348-1.22115-.004-1.28546-3.57075-1.28546-3.64135 0-3.75326.0434-3.75326 1.45555 0 1.42274.0805 1.45172 3.57071 1.28545 3.20712-.15288 3.58934-.301 3.7533-1.45554zm.32164-7.58937c.27741-.26131.35414-.86685.17007-1.34572-.25058-.65299-1.09073-.83828-3.3609-.74122-3.54051.15137-4.45512.60223-4.45512 2.19618 0 1.09084.22753 1.13958 3.57071.76543 1.96392-.21978 3.79767-.61337 4.07508-.87467zm-19.35788 39.58655c-1.88537-.48219-3.52452-.95898-3.64263-1.05952-.47868-.4075 4.78435-12.22707 5.44449-12.22707.76977 0 6.48385 1.17532 6.47966 1.33278-.0265 1.05252-3.98945 12.64456-4.34759 12.72166-.27818.0597-2.04862-.28573-3.93393-.76785zm11.85105-1.74482c-3.353-.1595-3.55706-.24831-3.2903-1.42832.31975-1.41422 1.42658-8.45239 1.43327-9.11365.002-.23584 1.44231-.42849 3.19986-.42849h3.19555l-.40728 5.57035c-.22412 3.06364-.44077 5.5703-.48177 5.5703-.0412 0-1.68322-.0767-3.64933-.17008zm6.14567-5.48183c0-6.07699-.0113-6.05994 4.61726-6.05994h2.80985v5.71313 5.71318h-3.71354-3.71357zm9.43196-3.16524c-.2245-1.63234-.31635-3.05968-.20447-3.17185.11225-.11225 1.73431-.28876 3.60472-.39194l3.40067-.18784.47818 2.78392c.26306 1.5312.38181 2.88034.26419 2.99811-.11754.11755-1.77135.37682-3.67468.57581l-3.46057.3617z" fill="#333" stroke-width=".571313"/></g></svg>