<svg height="92" width="92" xmlns="http://www.w3.org/2000/svg"><g><circle cx="46" cy="45.999999" fill="#e6e6e6" r="40.79224" stroke="#333" stroke-linecap="round" stroke-miterlimit="10" stroke-width="3"/><path d="m34.076736 71.012593-2.127349-.22337-.15791-8.39331c-.14975-7.9598-.21695-8.39331-1.300551-8.39331-1.01258 0-1.223479.61769-1.85308 5.42748-.39077 2.98515-.90494 6.69955-1.14263 8.2543l-.43218 2.82686-3.42789-.16101c-1.88534-.0884-3.47764-.21052-3.53843-.27137-.0608-.0608.71292-5.24523 1.71939-11.52128l1.82994-11.41097 4.13658-.16781 4.13659-.16781v-2.26027-2.26023h-5.4275-5.42749v-3.10428c0-2.8478.11353-3.11921 1.37442-3.28505l1.37441-.18066-2.14771-5.71317-2.147699-5.71314 3.20138-1.1853c1.76076-.65189 3.358389-1.03755 3.55029-.85697.19188.18067 1.45231 3.22969 2.80093 6.77579 1.34861 3.54607 2.63715 6.56186 2.86344 6.70171.22628.13984.58336-1.60456.79349-3.87651 1.11023-12.00318.95839-11.27226 2.34176-11.27226.702879 0 2.08138.16063 3.06334.35717 1.502809.30047 1.785359.61701 1.785359 1.9996 0 .90338.203491 1.6425.45221 1.6425.24873 0 3.52664-.40792 7.28429-.90652 3.75761-.49855 9.907107-1.22456 13.665507-1.61332l6.83345-.70685 1.245362 1.34377c.684941.73905 1.37114 1.82472 1.524869 2.41262.342387 1.30935-.574171 1.52769-9.782578 2.33061-3.66.31899-9.3332 1.00173-12.60707 1.51684-5.94606.93562-5.95359.93532-6.94736-.29178-.54717-.67574-1.11332-1.22861-1.25808-1.22861-.82794 0-1.6816 18.11717-1.42959 30.33997l.28142 13.65131-1.488-.096c-.8184-.0529-2.44532-.19653-3.61535-.31937zm19.58194-3.90871c-.64466-2.08713-1.172089-3.89624-1.172089-4.02028 0-.12397 1.38648-.22564 3.081096-.22564 3.694703 0 3.774693-.13417 3.774693-6.33116v-4.52383l-4.713381.0264-4.713338.0265 2.42809 2.1337c1.33544 1.1735 2.416587 2.38371 2.402485 2.68936-.01512.30576-1.148845 1.80899-2.521695 3.34072l-2.49612 2.78502-3.59219-2.78502c-1.97572-1.53207-3.95105-3.05726-4.38964-3.38959-.65961-.49981-.53219-.91952.7372-2.42812 1.5226-1.80949 1.36973-2.0942-.99503-1.85367-.83393.085-.99981-.37811-.99981-2.79073v-2.89251l2.4281-.0775c1.33545-.0423 5.5132-.23547 9.28387-.42845l6.855799-.35112.180737-1.57111c.177071-1.53819.260824-1.5713 3.99919-1.57988 4.054396-.008 4.040817-.75454-.02646-1.44166-1.184781-.20032-2.15029-.5342-2.14556-.74222.0042-.20826.6474-2.435 1.428208-4.94881.780802-2.51376 1.419682-5.02042 1.419723-5.5703.00008-1.22854.434918-1.23749 4.380839-.0903 2.517801.73194 3.053008 1.09429 2.742392 1.85677-1.338463 3.28554-3.478523 10.9454-3.057994 10.9454.277947 0 .505361.6427.505361 1.42824 0 1.25148.247559 1.42829 1.999589 1.42829h1.999612v3.20885c0 3.17416-.01738 3.20568-1.5349 2.91542-2.92264-.55869-3.035611-.27704-3.035611 7.56396 0 6.6389-.115313 7.45278-1.306401 9.22277l-1.306397 1.94124-5.234291.16403-5.234271.16403zm-10.56662-23.74817c-.62838-1.8305-2.490799-10.50856-2.29688-10.70245.11682-.11679 1.65222-.54712 3.41198-.95618 3.122421-.72582 3.2115-.71241 3.69413.55702.73537 1.93414 2.53132 10.56847 2.25413 10.83697-.13191.12775-1.714889.41484-3.51783.63802-2.53303.3137-3.338849.22866-3.54553-.37342zm8.603041-6.60782c-.5573-2.45023-1.12792-4.87087-1.268061-5.37925-.201449-.7307.347981-1.00422 2.6233-1.30602 1.582919-.21014 3.226778-.5156 3.652976-.67918.851071-.32655 1.060823.22866 2.377951 6.29544.47252 2.17652.660321 4.13968.417282 4.3626-.242986.22299-1.870212.5754-3.616033.78335l-3.174166.37802z" fill="#333" stroke-width=".571313"/></g></svg>