<?xml version="1.0" encoding="UTF-8" standalone="no"?>
<svg
   xmlns:dc="http://purl.org/dc/elements/1.1/"
   xmlns:cc="http://creativecommons.org/ns#"
   xmlns:rdf="http://www.w3.org/1999/02/22-rdf-syntax-ns#"
   xmlns:svg="http://www.w3.org/2000/svg"
   xmlns="http://www.w3.org/2000/svg"
   xmlns:sodipodi="http://sodipodi.sourceforge.net/DTD/sodipodi-0.dtd"
   xmlns:inkscape="http://www.inkscape.org/namespaces/inkscape"
   width="92"
   height="92"
   id="svg2"
   version="1.1"
   inkscape:version="1.0.1 (3bc2e813f5, 2020-09-07)"
   sodipodi:docname="RA.svg">
  <metadata
     id="metadata12">
    <rdf:RDF>
      <cc:Work
         rdf:about="">
        <dc:format>image/svg+xml</dc:format>
        <dc:type
           rdf:resource="http://purl.org/dc/dcmitype/StillImage" />
        <dc:title></dc:title>
      </cc:Work>
    </rdf:RDF>
  </metadata>
  <defs
     id="defs10" />
  <sodipodi:namedview
     pagecolor="#ffffff"
     bordercolor="#666666"
     borderopacity="1"
     objecttolerance="10"
     gridtolerance="10"
     guidetolerance="10"
     inkscape:pageopacity="0"
     inkscape:pageshadow="2"
     inkscape:window-width="3840"
     inkscape:window-height="2050"
     id="namedview8"
     showgrid="false"
     inkscape:zoom="2.6222222"
     inkscape:cx="-37.075589"
     inkscape:cy="74.751313"
     inkscape:window-x="-12"
     inkscape:window-y="-12"
     inkscape:window-maximized="1"
     inkscape:current-layer="layer2"
     fit-margin-top="0"
     fit-margin-left="0"
     fit-margin-right="0"
     fit-margin-bottom="0"
     inkscape:pagecheckerboard="false"
     inkscape:snap-nodes="false"
     inkscape:document-rotation="0" />
  <g
     inkscape:groupmode="layer"
     id="layer1"
     inkscape:label="Background"
     style="display:inline" />
  <g
     inkscape:groupmode="layer"
     id="layer2"
     inkscape:label="Symbol"
     style="display:inline">
    <g
       id="g24262"
       transform="translate(0.6186409,-2.3347435)"
       style="display:inline;">
      <circle
         style="color:#000000;display:inline;overflow:visible;visibility:visible;fill:#ffe6d5;fill-opacity:1;fill-rule:nonzero;stroke:#df4a4a;stroke-width:3;stroke-linecap:round;stroke-linejoin:miter;stroke-miterlimit:10;stroke-dasharray:none;stroke-dashoffset:0;stroke-opacity:1;marker:none;enable-background:accumulate"
         id="circle4376-8-9"
         cx="45.381359"
         cy="48.334743"
         r="40.79224" />
    </g>
    <path
       style="display:inline;fill:#df4a4a;stroke-width:0.571313;fill-opacity:1"
       d="m 27.04672,60.40327 c 0.184857,-11.52873 0.15137,-11.9762 -0.807031,-10.79168 l -0.99981,1.23575 -1.130018,-1.3488 c -0.621532,-0.74181 -1.820251,-2.32268 -2.66383,-3.51308 l -1.533751,-2.16452 1.329331,-2.40618 c 1.413778,-2.55905 8.962251,-15.1425 11.04121,-18.40597 0.68262,-1.07155 1.385061,-1.95917 1.56096,-1.97248 0.175975,-0.0129 1.632042,1.09594 3.235911,2.46498 l 2.916121,2.48914 -1.46143,2.4507 c -1.05631,1.77136 -1.539772,3.54609 -1.74415,6.40248 l -0.282747,3.95179 5.078381,-0.40189 c 8.077763,-0.63926 7.587443,-0.0939 7.774873,-8.64812 l 0.16003,-7.30496 4.42768,-0.16691 4.4277,-0.1669 -2e-5,7.30829 v 7.30831 l 6.85578,-0.20296 6.85581,-0.20296 v 3.77373 3.77373 l -5.57032,0.009 c -8.84241,0.0129 -8.14127,-0.78734 -8.14127,9.28543 v 8.58871 l 6.28448,-0.33147 6.28448,-0.33146 v 3.90587 3.90588 l -2.71377,0.31635 c -1.49255,0.17423 -7.46994,0.46276 -13.28307,0.64161 -5.81313,0.17877 -12.176159,0.47618 -14.14007,0.66074 l -3.570708,0.33562 v -3.43333 c 0,-4.06933 -0.01512,-4.05936 6.712947,-4.53482 l 4.713351,-0.33298 v -8.81636 -8.81631 l -5.855978,0.40882 c -3.220792,0.22488 -6.04487,0.69538 -6.27572,1.0456 -0.230853,0.35021 -0.423681,6.35707 -0.428493,13.34851 l -0.0091,12.7118 h -4.620462 -4.620419 z"
       id="path851-0"
       sodipodi:nodetypes="ccccccsscscsscscccccccccccscccccccccscccccsccccc" />
  </g>
</svg>
