<?xml version="1.0" encoding="UTF-8" standalone="no"?>
<svg
   xmlns:dc="http://purl.org/dc/elements/1.1/"
   xmlns:cc="http://creativecommons.org/ns#"
   xmlns:rdf="http://www.w3.org/1999/02/22-rdf-syntax-ns#"
   xmlns:svg="http://www.w3.org/2000/svg"
   xmlns="http://www.w3.org/2000/svg"
   xmlns:sodipodi="http://sodipodi.sourceforge.net/DTD/sodipodi-0.dtd"
   xmlns:inkscape="http://www.inkscape.org/namespaces/inkscape"
   width="92"
   height="92"
   id="svg2"
   version="1.1"
   inkscape:version="1.0.1 (3bc2e813f5, 2020-09-07)"
   sodipodi:docname="RC.svg">
  <metadata
     id="metadata12">
    <rdf:RDF>
      <cc:Work
         rdf:about="">
        <dc:format>image/svg+xml</dc:format>
        <dc:type
           rdf:resource="http://purl.org/dc/dcmitype/StillImage" />
        <dc:title></dc:title>
      </cc:Work>
    </rdf:RDF>
  </metadata>
  <defs
     id="defs10" />
  <sodipodi:namedview
     pagecolor="#ffffff"
     bordercolor="#666666"
     borderopacity="1"
     objecttolerance="10"
     gridtolerance="10"
     guidetolerance="10"
     inkscape:pageopacity="0"
     inkscape:pageshadow="2"
     inkscape:window-width="3840"
     inkscape:window-height="2050"
     id="namedview8"
     showgrid="false"
     inkscape:zoom="1.3111111"
     inkscape:cx="204.54256"
     inkscape:cy="-111.78364"
     inkscape:window-x="-12"
     inkscape:window-y="-12"
     inkscape:window-maximized="1"
     inkscape:current-layer="layer2"
     fit-margin-top="0"
     fit-margin-left="0"
     fit-margin-right="0"
     fit-margin-bottom="0"
     inkscape:pagecheckerboard="false"
     inkscape:snap-nodes="false"
     inkscape:document-rotation="0"
     showguides="false" />
  <g
     inkscape:groupmode="layer"
     id="layer1"
     inkscape:label="Background"
     style="display:inline" />
  <g
     inkscape:groupmode="layer"
     id="layer2"
     inkscape:label="Symbol"
     style="display:inline">
    <g
       id="g24262"
       transform="translate(0.6186409,-2.3347435)"
       style="display:inline;">
      <circle
         style="color:#000000;display:inline;overflow:visible;visibility:visible;fill:#ffe6d5;fill-opacity:1;fill-rule:nonzero;stroke:#df4a4a;stroke-width:3;stroke-linecap:round;stroke-linejoin:miter;stroke-miterlimit:10;stroke-dasharray:none;stroke-dashoffset:0;stroke-opacity:1;marker:none;enable-background:accumulate"
         id="circle4376-8-9"
         cx="45.381359"
         cy="48.334743"
         r="40.79224" />
    </g>
    <path
       style="display:inline;fill:#df4a4a;stroke-width:0.571313;fill-opacity:1"
       d="m 25.15224,69.852635 c 5.7e-4,-0.39277 0.76978,-10.99782 1.70929,-23.56675 0.93952,-12.56894 1.71027,-23.30257 1.71284,-23.85242 0.004,-0.85043 0.56633,-0.99983 3.7637,-0.99983 h 3.75904 l -0.36057,3.8564 c -0.19805,2.121 -0.48064,4.43482 -0.6277,5.14186 -0.2914,1.40054 0.35603,1.61526 2.08293,0.69101 0.94836,-0.50755 1.2889,-0.29253 2.3297,1.47164 l 1.21901,2.06607 3.4887,-5.45374 c 1.91883,-2.99951 3.76048,-5.89013 4.09258,-6.4235 0.55359,-0.88905 0.84926,-0.83622 3.55219,0.63489 l 2.9483,1.60467 -1.13137,1.58884 -1.13136,1.58884 7.70128,0.18708 c 6.46968,0.15723 7.86418,0.35037 8.71986,1.20737 0.89307,0.89439 1.04001,2.37279 1.19263,11.99763 0.15383,9.69029 0.0533,11.2072 -0.85697,12.93653 -1.45372,2.76207 -3.62642,4.15498 -6.98434,4.4776 -3.40225,0.32693 -4.14826,-0.14589 -5.18468,-3.28622 -0.7087,-2.14745 -0.89654,-2.29342 -2.95068,-2.29342 h -2.19386 v 4.85616 4.85617 h 6.8558 c 7.3101,0 7.19115,0.0499 6.96782,-2.91606 -0.0711,-0.94375 0.0113,-0.94787 4.60135,-0.22601 2.06105,0.32428 2.14242,0.42361 2.14242,2.61482 0,2.9802 -1.2641,5.91912 -3.0489,7.08858 -1.22347,0.80164 -2.96425,0.9114 -12.03379,0.75859 l -10.60335,-0.17877 -1.58272,-1.58252 c -1.57912,-1.57898 -1.58309,-1.60309 -1.76485,-10.71217 l -0.18217,-9.1296 h 4.32419 4.3242 v -3.71357 -3.71354 h -3.61705 c -3.26411,0 -3.69086,0.13795 -4.37408,1.41468 l -0.75715,1.41467 -2.05316,-1.16371 c -3.81978,-2.16495 -4.30579,-2.67202 -3.49629,-3.6474 1.10574,-1.33232 -0.059,-1.0385 -1.98478,0.50075 -1.64878,1.31777 -1.72479,1.58238 -1.9996,6.95947 -0.33902,6.63243 -0.0915,7.11171 5.10543,9.88154 1.90537,1.01556 3.46431,2.02197 3.46431,2.2365 0,0.21467 -0.92145,1.72792 -2.04767,3.36313 l -2.04767,2.97313 -2.33908,-1.6944 c -2.8552,-2.06831 -3.25697,-1.65929 -3.26921,3.32799 l -0.008,3.57075 h -3.71354 c -2.59056,0 -3.71323,-0.21582 -3.71244,-0.71415 z m 37.13442,-26.70898 v -9.71236 h -1.91342 c -1.05237,0 -3.82409,-0.16139 -6.15938,-0.35906 l -4.24596,-0.35906 -0.82091,1.64436 c -0.45151,0.90445 -0.92149,1.85719 -1.04444,2.11726 -0.12283,0.26003 0.93075,0.29971 2.34161,0.0881 3.41136,-0.51156 8.81711,0.62695 9.55903,2.0132 0.31332,0.58534 0.5695,4.03768 0.5695,7.67192 0,5.4926 0.14475,6.60767 0.857,6.60767 0.72813,0 0.85697,-1.46003 0.85697,-9.71236 z m -42.54311,-0.71414 c 0.17234,-2.27815 0.44987,-5.49177 0.61644,-7.14146 l 0.30274,-2.99939 h 2.81945 2.81945 l -0.3137,4.14202 c -0.17272,2.27811 -0.44984,5.49177 -0.6164,7.14142 l -0.30274,2.99943 H 22.2493 19.42985 Z"
       id="path851-0-1"
       sodipodi:nodetypes="cssscccscccsscccssccssscccsscssccsscccccsccssssssscsccsccccsccsccsssccccccccccccc" />
  </g>
</svg>
