<svg height="92" width="92" xmlns="http://www.w3.org/2000/svg"><g><circle cx="46" cy="45.999999" fill="#ffe6d5" r="40.79224" stroke="#df4a4a" stroke-linecap="round" stroke-miterlimit="10" stroke-width="3"/><path d="m25.916801 66.149998c-.0385-3.5834-.23131-9.51862-.42848-13.18944-.34772-6.47241-.38279-6.61004-1.16232-4.55349l-.80387 2.1206-2.48341-4.29426c-2.21469-3.8296-2.40341-4.43377-1.72498-5.61661.41711-.72729 3.035-5.75587 5.81749-11.17467 2.78252-5.41876 5.12499-9.95296 5.20557-10.07595.20787-.31749 6.11633 1.86387 6.7217 2.48155.28006.28552-.28914 1.94347-1.28549 3.74521l-1.7878 3.23268v21.91978 21.91981h-3.99919-3.99922zm35.8993 4.20695c-.34096-1.05456-.75987-2.88155-.93085-4.05986l-.31088-2.14246h2.48177 2.48179v-5.42748-5.42751h-3.64344c-2.00391 0-8.18978.40785-13.7464.90625-5.55659.49845-10.2141.76264-10.35004.58708-.23641-.30539.4939-20.09625 1.06161-28.77363l.27094-4.14204h3.28131c1.80473 0 3.61653.22443 4.02624.49874.43334.29011 5.72393.16992 12.64838-.28744 6.54691-.43237 11.99447-.66856 12.10572-.52486.11118.14382.0644 1.68706-.10416 3.42966l-.30647 3.16835h-5.71786-5.71787v1.50469 1.50467l4.42283-.27512 4.42285-.27507v2.72416 2.72417l-2.76426.3351c-1.52037.1844-3.56038.39756-4.53343.47396-1.39967.10991-1.76913.36355-1.76913 1.21487 0 .99123.35898 1.06736 4.55867.96657l4.55874-.1095-.13605 2.74697-.13577 2.74698-4.53342.16282c-4.16889.14963-4.5334.25307-4.5334 1.28545 0 1.04208.3253 1.12364 4.5334 1.13629 9.16451.0276 9.62959.56304 9.59471 11.04747-.0392 11.78283-.97635 13.63381-7.08439 13.99212l-3.51134.20598zm-10.68523-23.15165c.45377-1.52749-.23057-1.85134-3.17375-1.50207-2.30967.27409-2.76427.50288-2.76427 1.3913 0 .92595.36519 1.06328 2.82753 1.06328 2.23139 0 2.88718-.2008 3.11049-.95251zm.17409-8.61703c.1343-1.22115-.003-1.28545-2.7643-1.28545-2.81895 0-2.90559.0434-2.90559 1.45554 0 1.42275.0623 1.45172 2.76427 1.28546 2.48279-.15288 2.77869-.301 2.90562-1.45555zm.249-7.58936c.21475-.26132.27415-.86685.13166-1.34572-.19399-.65299-.84439-.83829-2.60185-.74122-2.74088.15137-3.44893.60223-3.44893 2.19618 0 1.09084.17614 1.13957 2.76427.76543 1.52037-.21978 2.93997-.61337 3.15472-.87467zm-14.98591 39.58655c-1.45956-.48219-2.72851-.95898-2.81995-1.05951-.37057-.40751 3.70381-12.22708 4.21486-12.22708.59592 0 5.01947 1.17532 5.01623 1.33278-.0205 1.05252-3.08844 12.64456-3.36569 12.72166-.21535.0597-1.58594-.28573-3.04545-.76785zm9.17449-1.74482c-2.59572-.15949-2.7537-.24831-2.54719-1.42832.24754-1.41422 1.10439-8.45238 1.10957-9.11365.002-.23584 1.11657-.42849 2.47717-.42849h2.47384l-.3153 5.57035c-.1735 3.06365-.34122 5.5703-.37296 5.5703-.0319 0-1.30306-.0767-2.82513-.17008zm4.75767-5.48183c0-6.05878-.009-6.05994 3.57446-6.05994h2.17524v5.71314 5.71317h-2.87483-2.87487zm7.30176-3.16524c-.1738-1.63234-.2449-3.05968-.15829-3.17185.0869-.11225 1.34262-.28876 2.7906-.39194l2.63263-.18784.37018 2.78392c.20365 1.5312.29558 2.88034.20452 2.99811-.091.11755-1.37129.37682-2.84475.57581l-2.67901.36171z" fill="#df4a4a" stroke-width=".571313"/></g></svg>