<svg height="92" width="92" xmlns="http://www.w3.org/2000/svg"><g><circle cx="46" cy="45.999999" fill="#ffe6d5" r="40.79224" stroke="#df4a4a" stroke-linecap="round" stroke-miterlimit="10" stroke-width="3"/><path d="m25.536779 65.9461c-.0385-3.54713-.23131-9.42229-.42848-13.05597-.34772-6.40692-.38279-6.54316-1.16232-4.50742l-.80387 2.09914-2.48341-4.2508c-2.206-3.77596-2.40341-4.38891-1.72498-5.55978.41711-.71993 3.035-5.69764 5.81749-11.06161 2.78252-5.363929 5.125-9.852241 5.20558-9.973992.20787-.314273 6.11633 1.84501 6.7217 2.456441.28006.282632-.28914 1.92381-1.28549 3.707311l-1.7878 3.19998v21.69798 21.69802h-3.99919-3.99923zm23.56811 3.58654c-.50996.26068-.27238-2.53961-.27564-4.07244l-.006-2.78698-6.37052.38297c-3.50378.21052-6.92376.52113-7.59989.68996-1.22298.30538-1.22943.29027-1.22943-2.88068 0-1.75317.0503-3.19514.1118-3.20436.97869-.14627 14.57442-1.67607 14.97628-1.68492.30734-.008.55881-.52648.55881-1.15491 0-1.34384-1.20632-1.43217-8.03514-.58835-2.32937.28762-4.29713.44417-4.37281.34733-.0757-.0968.31643-4.73816.87134-10.31429 1.16989-11.7556.93953-11.35554 6.39551-11.10684 4.61888.21052 5.58816.0594 5.58816-.87123 0-.45278-.15084-.93651-.33529-1.07492-.18455-.13841-3.25231.0948-6.81758.51847-3.56524.42359-6.73373.77875-7.04111.78927-.3732.0128-.55881-.91255-.55881-2.78583v-2.80498l3.01763-.60007c1.66387-.33087 4.52639-.75238 6.3705-.93854 5.49937-.555128 5.74513-.672168 6.07082-2.890888.26646-1.81477.40658-1.9551 1.91416-1.91584 3.45815.0901 5.20315.74643 5.20315 1.95725 0 1.08931.33896 1.149926 7.2646 1.2996l7.26463.157v3.128068 3.12808l-6.3705.009c-6.44662.009-8.38229.28531-8.38229 1.20145 0 .27757 1.92118.50467 4.26921.50467 6.71543 0 8.07167 1.52633 8.48805 9.55248.12688 2.44461.31841 5.86825.42571 7.60807l.19519 3.16328-6.30629.13871c-3.46844.0764-6.4785.27477-6.68899.44114-.21057.1663-.38273.77704-.38273 1.35727 0 1.12191.41003 1.13325 12.62929.35036l3.46469-.22186v3.65953 3.65953l-5.69995.004c-3.13498.002-6.75612.16705-8.04698.3651l-2.34705.36019v4.20529 4.20529h-3.97133c-3.74053 0-3.3165-1.75799-4.2409-1.28545zm-.54187-21.34263c0 1.52726.7698-1.93847-1.02633-1.93847-1.65075 0-3.06283 1.10718-2.43516 1.90934.36921.47181 3.46149-1.23612 3.46149.0291zm13.67171-1.96833c0-1.05526-.23423-1.15523-2.34286-.99981-1.81071.13346-2.37663.39978-2.49155 1.17249-.12717.85534.21116.99979 2.34283.99979 2.2147 0 2.49158-.1302 2.49158-1.17247zm-14.04566-5.11199c0-.76507 1.08111-.31816 1.08111-1.08826 0-.94807-.24488-1.04834-1.9-.77836-2.26347.36918-2.31331.41043-1.95144 1.6156.17095.56907.56051.80459.98591.59596.38684-.18982 1.78442.40065 1.78442-.34493zm13.59861-1.9996c0-.64751-.5464-.85698-2.23529-.85698-1.68884 0-2.23524.20946-2.23524.85698 0 .64749.5464.85697 2.23524.85697 1.68889 0 2.23529-.20946 2.23529-.85697z" fill="#df4a4a" stroke-width=".571313"/></g></svg>