<svg viewBox="0 0 72 72" xmlns="http://www.w3.org/2000/svg"><path d="m58.4953 11.21s-10.4076 2.3754-15.5743 6.7088c0 0-9-2.5-13.8333.1667 0 0-9.6549-6.7318-15.6549-6.7318 0 0-5.0326 3.75.3216 21.0651 0 0-2.6667 10.6667 1.6667 16.3333s9.8333 9.5 9.8333 9.5l8.7917 4.0417 3.9583.1667 9.9167-4.375s6.6667-4.8333 8.8333-9.5c2.1667-4.6667 2.1667-13.8333 2.1667-13.8333l-1-3.3333 2.8333-11.0208z" fill="#3f3f3f"/><path d="m30.8377 47.3355s-7.625 2.75-1.375 9.25c0 0-.9739 4.625 3.8034 5.4849h5.1966c2.0529.0031 4.5833-1.0683 3.7404-5.3628 0 0 7.5513-6.3722-1.3654-9.3722l-4.875 2z" fill="#3f3f3f"/><ellipse cx="45.0854" cy="38.1033" rx="1.6461" ry="2.8119"/><ellipse cx="26.8427" cy="38.1033" rx="1.6461" ry="2.8119"/><g style="fill:none;stroke:#000;stroke-linecap:round;stroke-linejoin:round;stroke-miterlimit:10;stroke-width:2"><path d="m31.9328 47.2287 4.1042 2.7917 3.8125-2.7917"/><path d="m36.037 50.0204v4.2708s-1.1042 3.6875-5.5417 2.875"/><path d="m15.8717 48.4759c-4.8928-7.2535-2.0014-15.8722-2.0014-15.8722s-5.25-14.875-.4375-21.25c0 0 9.1875 1.5 15.6875 7.375 4.5946-1.9379 9.1575-2.0128 13.6875-.1437 6.5-5.875 15.6875-7.375 15.6875-7.375 4.8125 6.375-.4375 21.25-.4375 21.25s2.8914 8.6187-2.0014 15.8722"/><path d="m14.7453 15.1037s12.8125 6.1875 10.0625 11.8125"/><path d="m24.8491 50.8753s-9.3615-.458-13.6525 7.5243"/><path d="m35.8911 49.8767v4.2708s1.1042 3.6875 5.5417 2.875"/><path d="m57.1828 14.96s-12.8125 6.1875-10.0625 11.8125"/><path d="m47.2048 54.6836s8.2116 2.2454 8.6795 11.2958"/><path d="m48.079 50.7316s9.3615-.458 13.6525 7.5243"/><path d="m31.3859 60.7598c3.88 1.6845 5.6481 1.8093 9.3021 0"/><path d="m25.4446 54.6836s-8.2116 2.2454-8.6795 11.2958"/></g></svg>