<svg viewBox="0 0 72 72" xmlns="http://www.w3.org/2000/svg"><path d="m23.5 14.5855-4.5 1.75-7.25 8.5-4.5 10.75 2 5.25c1.2554 3.7911 3.5231 7.1832 7.25 10l2.5-3.3333s3.8218 7.7098 10.7384 8.9598c0 0 10.2616 1.936 15.5949-.8765 3.4203-1.8037 4.4167-4.4167 4.4167-4.4167l3.4167-3.4167 1.5833 2.3333 2.0833-.0833 5.4167-7.25 1.75-5.4166-.1667-4.5-2.3333-5.5-4.8333-7.4167s-2.6667-4.9167-8.1667-3.9167c0 0-6.5-4.8333-11.8333-4.0833s-4.5834-1.25-13.1667 2.6667z" fill="#f4aa41"/><path d="m36 47.2521-3.0833 2.4167h-2.5l-.0834 3.8333.75 3.5 1.0834 1.9167 2.8333 1.5 4.5833-.5833 1.5834-1.75 1-4.25-.25-4-2 .25z" fill="#ea5a47"/><path d="m32.5 36.9188-1.5833 3.75 2.1666 1.25 1.25.5 4.3334.1667 2.9166-2.25-1.75-3.25z" fill="#3f3f3f"/><path d="m29.5059 30.1088s-1.8051 1.2424-2.7484.6679c-.9434-.5745-1.2424-1.8051-.6679-2.7484s1.805-1.2424 2.7484-.6679.6679 2.7484.6679 2.7484z"/><path d="m33.1089 37.006h6.1457c.4011 0 .7634.2397.9203.6089l1.1579 2.7245-2.1792 1.1456c-.6156.3236-1.3654-.0645-1.4567-.754" style="fill:none;stroke:#000;stroke-linecap:round;stroke-linejoin:round;stroke-miterlimit:10;stroke-width:2"/><path d="m34.7606 40.763c-.1132.6268-.7757.9895-1.3647.7471l-2.3132-.952 1.0899-2.9035c.1465-.3901.5195-.6486.9362-.6486" style="fill:none;stroke:#000;stroke-linecap:round;stroke-linejoin:round;stroke-miterlimit:10;stroke-width:2"/><path d="m30.4364 50.0268s-.7187 8.7934 3.0072 9.9375c2.6459.8125 5.1497.5324 6.0625-.25.875-.75 2.6323-4.4741 1.8267-9.6875" style="fill:none;stroke:#000;stroke-linecap:round;stroke-linejoin:round;stroke-miterlimit:10;stroke-width:2"/><path d="m44.2636 30.1088s1.805 1.2424 2.7484.6679 1.2424-1.8051.6679-2.7484c-.5745-.9434-1.805-1.2424-2.7484-.6679s-.6679 2.7484-.6679 2.7484z"/><g style="fill:none;stroke:#000;stroke-linecap:round;stroke-linejoin:round;stroke-miterlimit:10;stroke-width:2"><path d="m25.6245 42.8393c-.475 3.6024 2.2343 5.7505 4.2847 6.8414 1.1968.6367 2.6508.5182 3.7176-.3181l2.581-2.0233 2.581 2.0233c1.0669.8363 2.5209.9548 3.7176.3181 2.0504-1.0909 4.7597-3.239 4.2847-6.8414"/><path d="m19.9509 28.3572c-2.3166 5.1597-.5084 13.0249.119 15.3759.122.4571.0755.9355-.1271 1.3631l-1.9874 4.1937c-.623 1.3146-2.3934 1.5533-3.331.4409-3.1921-3.7871-8.5584-11.3899-6.5486-16.686 7.0625-18.6104 15.8677-18.1429 15.8677-18.1429 2.8453-1.9336 13.1042-6.9375 24.8125.875 0 0 8.6323-1.7175 14.9375 16.9375 1.8036 5.3362-3.4297 12.8668-6.5506 16.6442-.9312 1.127-2.7162.8939-3.3423-.4272l-1.9741-4.1656c-.2026-.4275-.2491-.906-.1271-1.3631.6275-2.3509 2.4356-10.2161.119-15.3759"/><path d="m52.6309 46.4628s-3.0781 6.7216-7.8049 8.2712"/><path d="m19.437 46.969s3.0781 6.0823 7.8049 7.632"/><path d="m36.2078 47.3393v-3.03"/></g></svg>