<?xml version="1.0" encoding="UTF-8" standalone="no"?>
<svg
   xmlns:dc="http://purl.org/dc/elements/1.1/"
   xmlns:cc="http://creativecommons.org/ns#"
   xmlns:rdf="http://www.w3.org/1999/02/22-rdf-syntax-ns#"
   xmlns:svg="http://www.w3.org/2000/svg"
   xmlns="http://www.w3.org/2000/svg"
   xmlns:sodipodi="http://sodipodi.sourceforge.net/DTD/sodipodi-0.dtd"
   xmlns:inkscape="http://www.inkscape.org/namespaces/inkscape"
   width="92"
   height="92"
   id="svg2"
   version="1.1"
   inkscape:version="0.92.4 (5da689c313, 2019-01-14)"
   sodipodi:docname="black_horse.svg">
  <metadata
     id="metadata12">
    <rdf:RDF>
      <cc:Work
         rdf:about="">
        <dc:format>image/svg+xml</dc:format>
        <dc:type
           rdf:resource="http://purl.org/dc/dcmitype/StillImage" />
        <dc:title />
      </cc:Work>
    </rdf:RDF>
  </metadata>
  <defs
     id="defs10">
    <filter
       height="1.5"
       width="1.5"
       y="0"
       x="0"
       id="f1"
       color-interpolation-filters="sRGB">
      <feOffset
         id="feOffset3039"
         dy="0"
         dx="1"
         in="SourceAlpha"
         result="offOut" />
      <feGaussianBlur
         id="feGaussianBlur3041"
         stdDeviation="1"
         in="offOut"
         result="blurOut" />
      <!--
      <feBlend in="SourceGraphic" in2="blurOut" mode="normal" />
-->
    </filter>
    <linearGradient
       y2="1"
       x2="0"
       y1="0"
       x1="0"
       id="grad1">
      <stop
         id="stop3034"
         style="stop-color:rgb(255,255,255);stop-opacity:0.6"
         offset="20%" />
      <stop
         id="stop3036"
         style="stop-color:rgb(220,0,0);stop-opacity:0.5"
         offset="50%" />
    </linearGradient>
    <linearGradient
       y2="1"
       x2="0"
       y1="0"
       x1="0"
       id="grad0">
      <stop
         id="stop3029"
         style="stop-color:rgb(0,0,0);stop-opacity:0.3"
         offset="20%" />
      <stop
         id="stop3031"
         style="stop-color:rgb(0,0,0);stop-opacity:0.6"
         offset="100%" />
    </linearGradient>
    <inkscape:path-effect
       effect="mirror_symmetry"
       start_point="274.21267,350.55066"
       end_point="273.50284,477.30227"
       center_point="273.85776,413.92646"
       id="path-effect4557-0-4"
       is_visible="true"
       mode="free"
       discard_orig_path="false"
       fuse_paths="true"
       oposite_fuse="false" />
    <filter
       style="color-interpolation-filters:sRGB;"
       inkscape:label="Drop Shadow"
       id="filter20977">
      <feFlood
         flood-opacity="1"
         flood-color="rgb(91,93,90)"
         result="flood"
         id="feFlood20967" />
      <feComposite
         in="flood"
         in2="SourceGraphic"
         operator="in"
         result="composite1"
         id="feComposite20969" />
      <feGaussianBlur
         in="composite1"
         stdDeviation="0"
         result="blur"
         id="feGaussianBlur20971" />
      <feOffset
         dx="0"
         dy="4"
         result="offset"
         id="feOffset20973" />
      <feComposite
         in="SourceGraphic"
         in2="offset"
         operator="over"
         result="composite2"
         id="feComposite20975" />
    </filter>
  </defs>
  <sodipodi:namedview
     pagecolor="#ffffff"
     bordercolor="#666666"
     borderopacity="1"
     objecttolerance="10"
     gridtolerance="10"
     guidetolerance="10"
     inkscape:pageopacity="0"
     inkscape:pageshadow="2"
     inkscape:window-width="1920"
     inkscape:window-height="1017"
     id="namedview8"
     showgrid="false"
     inkscape:zoom="5.2444444"
     inkscape:cx="-10.180329"
     inkscape:cy="70.087756"
     inkscape:window-x="-8"
     inkscape:window-y="-8"
     inkscape:window-maximized="1"
     inkscape:current-layer="layer2"
     fit-margin-top="0"
     fit-margin-left="0"
     fit-margin-right="0"
     fit-margin-bottom="0"
     inkscape:pagecheckerboard="false" />
  <g
     inkscape:groupmode="layer"
     id="layer1"
     inkscape:label="Background"
     style="display:inline">
    <g
       id="g24262"
       transform="translate(0.6186409,-2.3347435)"
       style="filter:url(#filter20977)">
      <g
         id="g25621">
        <circle
           style="color:#000000;display:inline;overflow:visible;visibility:visible;opacity:1;fill:#ffffff;fill-opacity:1;fill-rule:nonzero;stroke:#ffffff;stroke-width:0.32569826;stroke-linecap:round;stroke-linejoin:miter;stroke-miterlimit:10;stroke-dasharray:none;stroke-dashoffset:0;stroke-opacity:0.48743723;marker:none;enable-background:accumulate"
           id="circle4376-8-9"
           cx="45.381359"
           cy="48.334743"
           r="40.79224" />
        <circle
           r="32.643799"
           cy="48.334743"
           cx="45.381359"
           id="circle24066-6"
           style="color:#000000;display:inline;overflow:visible;visibility:visible;opacity:1;fill:none;fill-opacity:1;fill-rule:nonzero;stroke:#000000;stroke-width:3;stroke-linecap:round;stroke-linejoin:miter;stroke-miterlimit:10;stroke-dasharray:none;stroke-dashoffset:0;stroke-opacity:1;marker:none;enable-background:accumulate" />
      </g>
    </g>
  </g>
  <g
     inkscape:groupmode="layer"
     id="layer2"
     inkscape:label="Symbol"
     style="display:inline">
    <g
       aria-label="馬"
       style="font-style:normal;font-variant:normal;font-weight:500;font-stretch:normal;font-size:53.33333206px;line-height:1.25;font-family:'cwTeX Q Kai';-inkscape-font-specification:'cwTeX Q Kai, Medium';font-variant-ligatures:normal;font-variant-caps:normal;font-variant-numeric:normal;font-feature-settings:normal;text-align:start;letter-spacing:0px;word-spacing:0px;writing-mode:lr-tb;text-anchor:start;display:inline;fill:#000000;fill-opacity:1;stroke:#000000;stroke-width:1;stroke-miterlimit:4;stroke-dasharray:none;stroke-opacity:1"
       id="text32186">
      <path
         d="m 60.166667,42.822916 q 1.354167,0 2.552083,0.78125 1.25,0.729167 1.875,1.875 0,0.3125 -0.78125,1.197916 -1.354166,2.03125 -3.958333,16.09375 -0.416667,1.770833 -1.927083,3.125 -1.510417,1.40625 -2.65625,1.770833 -0.46875,-0.05208 -0.885417,-0.833333 -0.416666,-0.729167 -1.40625,-2.291667 -0.989583,-1.5625 -2.447916,-3.020833 v -0.260417 q 0.416666,0 1.354166,0.260417 0.989584,0.208333 1.770834,0.46875 0.781249,0.208333 0.885416,0.260417 1.510417,-0.208334 2.552083,-3.020834 l 0.3125,-0.885416 q 0.625,-1.875 1.40625,-5.885417 0.78125,-4.0625 0.78125,-5.625 0,-1.145833 -0.677083,-1.510416 -0.625,-0.416667 -2.239583,-0.416667 -1.197917,0 -4.0625,0.260417 h -0.46875 q -8.125,0.729166 -16.71875,3.385416 -1.09375,-0.572916 -1.666666,-1.458333 1.354166,-7.65625 1.354166,-12.760416 0,-3.75 -0.520833,-5.625 0,-0.15625 -0.520833,-0.989583 -0.520834,-0.885417 -0.520834,-1.354167 0,-0.520833 0.416667,-0.78125 0.989583,0 2.96875,1.197917 l 0.625,0.364583 q 5.260416,-0.260417 11.041666,-1.510417 l 4.166667,-1.041666 0.9375,-0.104167 q 0.104167,0 0.208333,0 0.15625,-0.05208 0.208334,-0.05208 1.562499,0 2.291666,0.989583 0.05208,0.572917 -0.46875,0.78125 -0.520833,0.208333 -2.1875,0.46875 -0.520833,0.05208 -0.833333,0.104167 l -6.09375,1.25 q 1.041667,0.572916 1.041667,2.1875 0,0.104166 -0.05208,0.3125 0,0.208333 0,0.3125 l -0.15625,1.354166 2.708334,-0.625 q 0.208333,-0.05208 0.572916,-0.05208 0.677084,0 1.354167,0.364583 0.677083,0.3125 0.729167,0.677083 l -0.364584,0.364584 -5,1.25 q -0.260416,1.822916 -0.260416,4.010416 l 3.489583,-0.885416 q 0.104167,0 0.260417,0 0.15625,-0.05208 0.208333,-0.05208 1.041667,0 1.822917,0.677084 0.104166,0.677083 -0.78125,1.041666 -0.885417,0.364584 -2.604167,0.625 -1.71875,0.260417 -2.395833,0.46875 l -0.15625,4.114584 7.187499,-0.9375 Q 55.010417,43.187499 56,43.187499 l 4.114584,-0.364583 z m -22.760416,2.03125 q 0.260417,0.46875 1.614583,0.46875 1.354167,0 3.489583,-0.416667 2.1875,-0.416666 2.552084,-0.416666 v -3.854167 l -3.28125,0.15625 -1.40625,-0.416667 q -0.260417,-0.15625 -0.364583,-0.572916 0.468749,-0.208334 2.239583,-0.46875 1.822916,-0.260417 2.8125,-0.520834 v -4.010416 q -1.197917,0.260416 -1.927084,0.260416 -2.1875,0 -2.552083,-1.09375 0.364583,-0.15625 4.479167,-0.989583 -0.260417,-3.645833 -0.729167,-4.53125 -4.21875,0.364584 -5.78125,0.364584 -1.041666,1.927083 -1.302083,10.729166 v 0.885417 q 0,3.958333 0.15625,4.427083 z m 10.729166,3.385416 q 1.614584,1.09375 2.1875,1.5625 0.572917,0.416667 1.145834,1.197917 0.572916,0.78125 0.677083,1.71875 -0.416667,1.666667 -1.145833,1.666667 -0.416667,0 -1.041667,-0.520834 -0.572917,-0.572916 -1.40625,-2.03125 -0.78125,-1.510416 -1.302083,-3.59375 z m -3.802083,5.208334 q 0,1.458333 -0.833333,1.770833 -1.145834,0 -2.135417,-2.03125 -0.9375,-2.03125 -0.9375,-3.177083 0.05208,-0.05208 0.260417,-0.05208 0.78125,0 2.1875,1.09375 1.458333,1.041667 1.458333,2.395834 z m -7.395833,3.385416 q -0.833333,-0.15625 -1.510417,-1.666666 -0.625,-1.510417 -0.625,-2.916667 0,-0.677083 0.260417,-1.09375 1.197917,0 2.03125,1.666667 0.833333,1.666666 0.833333,3.125 -0.416666,0.625 -0.989583,0.885416 z m -7.291667,-6.979166 q 0.520834,0 0.885417,1.5625 0.416667,1.510416 0.416667,2.916666 0,2.03125 -0.572917,3.645834 -0.572917,1.614583 -1.927083,1.614583 -1.09375,-1.197917 -1.09375,-2.708333 0,-0.9375 0.416666,-2.083334 l 1.145834,-3.333333 q 0,-0.05208 0.104166,-0.572917 0.104167,-0.572916 0.208334,-0.78125 0.15625,-0.260416 0.416666,-0.260416 z"
         style=""
         id="path35406" />
    </g>
  </g>
</svg>
