<?xml version="1.0" encoding="UTF-8" standalone="no"?>
<svg
   xmlns:dc="http://purl.org/dc/elements/1.1/"
   xmlns:cc="http://creativecommons.org/ns#"
   xmlns:rdf="http://www.w3.org/1999/02/22-rdf-syntax-ns#"
   xmlns:svg="http://www.w3.org/2000/svg"
   xmlns="http://www.w3.org/2000/svg"
   xmlns:sodipodi="http://sodipodi.sourceforge.net/DTD/sodipodi-0.dtd"
   xmlns:inkscape="http://www.inkscape.org/namespaces/inkscape"
   width="92"
   height="92"
   id="svg2"
   version="1.1"
   inkscape:version="0.92.4 (5da689c313, 2019-01-14)"
   sodipodi:docname="black_pawn.svg">
  <metadata
     id="metadata12">
    <rdf:RDF>
      <cc:Work
         rdf:about="">
        <dc:format>image/svg+xml</dc:format>
        <dc:type
           rdf:resource="http://purl.org/dc/dcmitype/StillImage" />
        <dc:title />
      </cc:Work>
    </rdf:RDF>
  </metadata>
  <defs
     id="defs10">
    <filter
       height="1.5"
       width="1.5"
       y="0"
       x="0"
       id="f1"
       color-interpolation-filters="sRGB">
      <feOffset
         id="feOffset3039"
         dy="0"
         dx="1"
         in="SourceAlpha"
         result="offOut" />
      <feGaussianBlur
         id="feGaussianBlur3041"
         stdDeviation="1"
         in="offOut"
         result="blurOut" />
      <!--
      <feBlend in="SourceGraphic" in2="blurOut" mode="normal" />
-->
    </filter>
    <linearGradient
       y2="1"
       x2="0"
       y1="0"
       x1="0"
       id="grad1">
      <stop
         id="stop3034"
         style="stop-color:rgb(255,255,255);stop-opacity:0.6"
         offset="20%" />
      <stop
         id="stop3036"
         style="stop-color:rgb(220,0,0);stop-opacity:0.5"
         offset="50%" />
    </linearGradient>
    <linearGradient
       y2="1"
       x2="0"
       y1="0"
       x1="0"
       id="grad0">
      <stop
         id="stop3029"
         style="stop-color:rgb(0,0,0);stop-opacity:0.3"
         offset="20%" />
      <stop
         id="stop3031"
         style="stop-color:rgb(0,0,0);stop-opacity:0.6"
         offset="100%" />
    </linearGradient>
    <inkscape:path-effect
       effect="mirror_symmetry"
       start_point="274.21267,350.55066"
       end_point="273.50284,477.30227"
       center_point="273.85776,413.92646"
       id="path-effect4557-0-4"
       is_visible="true"
       mode="free"
       discard_orig_path="false"
       fuse_paths="true"
       oposite_fuse="false" />
    <filter
       style="color-interpolation-filters:sRGB;"
       inkscape:label="Drop Shadow"
       id="filter22209">
      <feFlood
         flood-opacity="1"
         flood-color="rgb(91,93,90)"
         result="flood"
         id="feFlood22199" />
      <feComposite
         in="flood"
         in2="SourceGraphic"
         operator="in"
         result="composite1"
         id="feComposite22201" />
      <feGaussianBlur
         in="composite1"
         stdDeviation="0"
         result="blur"
         id="feGaussianBlur22203" />
      <feOffset
         dx="0"
         dy="4"
         result="offset"
         id="feOffset22205" />
      <feComposite
         in="SourceGraphic"
         in2="offset"
         operator="over"
         result="composite2"
         id="feComposite22207" />
    </filter>
  </defs>
  <sodipodi:namedview
     pagecolor="#ffffff"
     bordercolor="#666666"
     borderopacity="1"
     objecttolerance="10"
     gridtolerance="10"
     guidetolerance="10"
     inkscape:pageopacity="0"
     inkscape:pageshadow="2"
     inkscape:window-width="1920"
     inkscape:window-height="1017"
     id="namedview8"
     showgrid="false"
     inkscape:zoom="5.2444444"
     inkscape:cx="-22.259601"
     inkscape:cy="64.771609"
     inkscape:window-x="-8"
     inkscape:window-y="-8"
     inkscape:window-maximized="1"
     inkscape:current-layer="layer2"
     fit-margin-top="0"
     fit-margin-left="0"
     fit-margin-right="0"
     fit-margin-bottom="0"
     inkscape:pagecheckerboard="false" />
  <g
     inkscape:groupmode="layer"
     id="layer1"
     inkscape:label="Background"
     style="display:inline">
    <g
       id="g24262"
       transform="translate(0.6186409,-2.3347435)"
       style="filter:url(#filter22209)">
      <g
         id="g25621">
        <circle
           style="color:#000000;display:inline;overflow:visible;visibility:visible;opacity:1;fill:#ffffff;fill-opacity:1;fill-rule:nonzero;stroke:#ffffff;stroke-width:0.32569826;stroke-linecap:round;stroke-linejoin:miter;stroke-miterlimit:10;stroke-dasharray:none;stroke-dashoffset:0;stroke-opacity:0.48743723;marker:none;enable-background:accumulate"
           id="circle4376-8-9"
           cx="45.381359"
           cy="48.334743"
           r="40.79224" />
        <circle
           r="32.643799"
           cy="48.334743"
           cx="45.381359"
           id="circle24066-6"
           style="color:#000000;display:inline;overflow:visible;visibility:visible;opacity:1;fill:none;fill-opacity:1;fill-rule:nonzero;stroke:#000000;stroke-width:3;stroke-linecap:round;stroke-linejoin:miter;stroke-miterlimit:10;stroke-dasharray:none;stroke-dashoffset:0;stroke-opacity:1;marker:none;enable-background:accumulate" />
      </g>
    </g>
  </g>
  <g
     inkscape:groupmode="layer"
     id="layer2"
     inkscape:label="Symbol"
     style="display:inline">
    <g
       aria-label="å’"
       style="font-style:normal;font-variant:normal;font-weight:500;font-stretch:normal;font-size:53.33333206px;line-height:1.25;font-family:'cwTeX Q Kai';-inkscape-font-specification:'cwTeX Q Kai, Medium';font-variant-ligatures:normal;font-variant-caps:normal;font-variant-numeric:normal;font-feature-settings:normal;text-align:start;letter-spacing:0px;word-spacing:0px;writing-mode:lr-tb;text-anchor:start;display:inline;fill:#000000;fill-opacity:1;stroke:#000000;stroke-width:1;stroke-miterlimit:4;stroke-dasharray:none;stroke-opacity:1"
       id="text32186">
      <path
         d="m 48.291667,28.083333 q -0.989583,0 -3.125,-1.614583 -2.083333,-1.614584 -2.083333,-2.708334 0,-0.15625 0.208333,-0.260416 l 0.260417,-0.104167 q 2.1875,0.208333 3.4375,0.729167 1.302083,0.520833 2.291667,1.822916 0,1.25 -0.260417,1.71875 -0.208333,0.416667 -0.729167,0.416667 z m 8.177083,0.05208 q 2.1875,0 2.96875,1.302084 -0.104166,1.09375 -3.177083,1.458333 -8.333333,1.354166 -12.864583,1.875 l -4.479166,0.677083 q -0.3125,0.05208 -0.9375,0.05208 -3.697917,0 -3.90625,-1.5625 l 0.46875,-0.3125 q 6.822916,-0.3125 14.687499,-1.979166 l 5.677083,-1.354167 q 0.885417,-0.15625 1.5625,-0.15625 z m -15.104166,8.385417 q -0.208333,0.416666 -1.302083,1.875 -1.041667,1.40625 -1.40625,2.03125 l 3.125,1.510416 q 1.145833,0.78125 1.145833,1.979167 0.05208,1.145833 -0.625,1.458333 -1.041667,0 -3.489583,-3.072916 l -0.78125,-0.9375 q -4.322917,4.322916 -5.885417,4.322916 h -0.15625 l 0.104167,-0.46875 q 2.708333,-2.65625 4.0625,-4.739583 1.40625,-2.135417 1.40625,-4.53125 0,-0.9375 0.15625,-1.197917 0.15625,-0.3125 0.572917,-0.3125 0.885416,0 1.770833,0.729167 0.885416,0.729167 1.302083,1.354167 z M 61.9375,46.260416 q 1.354167,0 3.333334,1.197916 2.03125,1.197917 2.03125,2.03125 v 0.208334 q 0,0.15625 -0.05208,0.208333 l -0.46875,0.3125 -18.749999,0.260417 q -0.104167,1.354166 -0.104167,8.593749 0,9.53125 -1.927083,9.53125 -0.46875,-0.364583 -0.677084,-1.041666 -0.15625,-0.625 -0.208333,-2.03125 -0.05208,-1.40625 -0.05208,-3.020834 0.05208,-1.666666 0,-4.947916 -0.05208,-3.333333 -0.260417,-6.875 -5.625,0.364583 -11.25,1.458333 l -4.84375,1.09375 q -0.104166,0 -0.208333,0.05208 -0.104167,0 -0.416667,0 -1.041666,0 -2.031249,-0.572917 -0.9375,-0.625 -1.40625,-1.458333 0,-0.46875 0.625,-0.46875 l 19.531249,-1.979167 q 0,-3.59375 -1.09375,-5.46875 v -0.05208 q 0,-1.041667 0.9375,-1.041667 0.677083,0 1.510417,0.416667 5.520833,-5 5.520833,-10.46875 0.260417,-0.208333 0.729167,-0.208333 0.729166,0 1.666666,0.677083 0.989583,0.677083 1.302083,1.145833 l -0.104166,0.677084 q -1.770833,2.083333 -3.072917,4.21875 l 3.489583,1.354166 q 2.552084,1.25 2.552084,3.020834 0,0.572916 -0.208334,1.041666 -0.3125,0.104167 -1.041666,0.104167 l -5.364583,-4.583333 -0.15625,-0.15625 q -1.875,2.135416 -4.635417,3.541666 l 1.354167,0.885417 q 0.260416,0.260417 0.260416,0.625 0,0.364583 -0.208333,1.875 -0.208333,1.458333 -0.208333,1.927083 h 0.260416 q 0.885417,0 3.4375,-0.364583 2.552084,-0.364584 5.625,-0.885417 3.125,-0.572917 3.4375,-0.625 z"
         style=""
         id="path36662" />
    </g>
  </g>
</svg>
