<?xml version="1.0" encoding="UTF-8" standalone="no"?>
<svg
   xmlns:dc="http://purl.org/dc/elements/1.1/"
   xmlns:cc="http://creativecommons.org/ns#"
   xmlns:rdf="http://www.w3.org/1999/02/22-rdf-syntax-ns#"
   xmlns:svg="http://www.w3.org/2000/svg"
   xmlns="http://www.w3.org/2000/svg"
   xmlns:sodipodi="http://sodipodi.sourceforge.net/DTD/sodipodi-0.dtd"
   xmlns:inkscape="http://www.inkscape.org/namespaces/inkscape"
   width="92"
   height="92"
   id="svg2"
   version="1.1"
   inkscape:version="0.92.4 (5da689c313, 2019-01-14)"
   sodipodi:docname="black_king.svg">
  <metadata
     id="metadata12">
    <rdf:RDF>
      <cc:Work
         rdf:about="">
        <dc:format>image/svg+xml</dc:format>
        <dc:type
           rdf:resource="http://purl.org/dc/dcmitype/StillImage" />
        <dc:title />
      </cc:Work>
    </rdf:RDF>
  </metadata>
  <defs
     id="defs10">
    <filter
       height="1.5"
       width="1.5"
       y="0"
       x="0"
       id="f1"
       color-interpolation-filters="sRGB">
      <feOffset
         id="feOffset3039"
         dy="0"
         dx="1"
         in="SourceAlpha"
         result="offOut" />
      <feGaussianBlur
         id="feGaussianBlur3041"
         stdDeviation="1"
         in="offOut"
         result="blurOut" />
      <!--
      <feBlend in="SourceGraphic" in2="blurOut" mode="normal" />
-->
    </filter>
    <linearGradient
       y2="1"
       x2="0"
       y1="0"
       x1="0"
       id="grad1">
      <stop
         id="stop3034"
         style="stop-color:rgb(255,255,255);stop-opacity:0.6"
         offset="20%" />
      <stop
         id="stop3036"
         style="stop-color:rgb(220,0,0);stop-opacity:0.5"
         offset="50%" />
    </linearGradient>
    <linearGradient
       y2="1"
       x2="0"
       y1="0"
       x1="0"
       id="grad0">
      <stop
         id="stop3029"
         style="stop-color:rgb(0,0,0);stop-opacity:0.3"
         offset="20%" />
      <stop
         id="stop3031"
         style="stop-color:rgb(0,0,0);stop-opacity:0.6"
         offset="100%" />
    </linearGradient>
    <inkscape:path-effect
       effect="mirror_symmetry"
       start_point="274.21267,350.55066"
       end_point="273.50284,477.30227"
       center_point="273.85776,413.92646"
       id="path-effect4557-0-4"
       is_visible="true"
       mode="free"
       discard_orig_path="false"
       fuse_paths="true"
       oposite_fuse="false" />
    <filter
       style="color-interpolation-filters:sRGB;"
       inkscape:label="Drop Shadow"
       id="filter21584">
      <feFlood
         flood-opacity="1"
         flood-color="rgb(91,93,90)"
         result="flood"
         id="feFlood21574" />
      <feComposite
         in="flood"
         in2="SourceGraphic"
         operator="in"
         result="composite1"
         id="feComposite21576" />
      <feGaussianBlur
         in="composite1"
         stdDeviation="0"
         result="blur"
         id="feGaussianBlur21578" />
      <feOffset
         dx="0"
         dy="4"
         result="offset"
         id="feOffset21580" />
      <feComposite
         in="SourceGraphic"
         in2="offset"
         operator="over"
         result="composite2"
         id="feComposite21582" />
    </filter>
  </defs>
  <sodipodi:namedview
     pagecolor="#ffffff"
     bordercolor="#666666"
     borderopacity="1"
     objecttolerance="10"
     gridtolerance="10"
     guidetolerance="10"
     inkscape:pageopacity="0"
     inkscape:pageshadow="2"
     inkscape:window-width="1920"
     inkscape:window-height="1017"
     id="namedview8"
     showgrid="false"
     inkscape:zoom="5.2444444"
     inkscape:cx="-31.839307"
     inkscape:cy="43.677113"
     inkscape:window-x="-8"
     inkscape:window-y="-8"
     inkscape:window-maximized="1"
     inkscape:current-layer="layer2"
     fit-margin-top="0"
     fit-margin-left="0"
     fit-margin-right="0"
     fit-margin-bottom="0"
     inkscape:pagecheckerboard="false" />
  <g
     inkscape:groupmode="layer"
     id="layer1"
     inkscape:label="Background"
     style="display:inline">
    <g
       id="g24262"
       transform="translate(0.6186409,-2.3347435)"
       style="filter:url(#filter21584)">
      <g
         id="g25621">
        <circle
           style="color:#000000;display:inline;overflow:visible;visibility:visible;opacity:1;fill:#ffffff;fill-opacity:1;fill-rule:nonzero;stroke:#ffffff;stroke-width:0.32569826;stroke-linecap:round;stroke-linejoin:miter;stroke-miterlimit:10;stroke-dasharray:none;stroke-dashoffset:0;stroke-opacity:0.48743723;marker:none;enable-background:accumulate"
           id="circle4376-8-9"
           cx="45.381359"
           cy="48.334743"
           r="40.79224" />
        <circle
           r="32.643799"
           cy="48.334743"
           cx="45.381359"
           id="circle24066-6"
           style="color:#000000;display:inline;overflow:visible;visibility:visible;opacity:1;fill:none;fill-opacity:1;fill-rule:nonzero;stroke:#000000;stroke-width:3;stroke-linecap:round;stroke-linejoin:miter;stroke-miterlimit:10;stroke-dasharray:none;stroke-dashoffset:0;stroke-opacity:1;marker:none;enable-background:accumulate" />
      </g>
    </g>
  </g>
  <g
     inkscape:groupmode="layer"
     id="layer2"
     inkscape:label="Symbol"
     style="display:inline">
    <g
       aria-label="將"
       style="font-style:normal;font-variant:normal;font-weight:500;font-stretch:normal;font-size:53.33333206px;line-height:1.25;font-family:'cwTeX Q Kai';-inkscape-font-specification:'cwTeX Q Kai, Medium';font-variant-ligatures:normal;font-variant-caps:normal;font-variant-numeric:normal;font-feature-settings:normal;text-align:start;letter-spacing:0px;word-spacing:0px;writing-mode:lr-tb;text-anchor:start;display:inline;fill:#000000;fill-opacity:1;stroke:#000000;stroke-width:1;stroke-miterlimit:4;stroke-dasharray:none;stroke-opacity:1"
       id="text32186"
       transform="translate(1.5254237,-0.19067797)">
      <path
         d="m 52.562501,30.739583 q 5.052083,-0.3125 7.291666,-1.40625 1.458333,0 3.854167,1.979166 l -0.05208,0.625 q -1.25,0.78125 -4.322916,3.541667 -3.072917,2.760417 -6.5625,5.46875 -3.489583,2.65625 -6.614583,3.958333 -2.1875,0.9375 -3.854167,0.9375 h -0.3125 l 8.177083,-5.416666 q 5.625,-4.0625 8.177083,-8.125 0.05208,-0.520834 -0.625,-0.520834 h -0.208333 q -0.46875,0 -1.979167,0.15625 -1.510416,0.104167 -1.822916,0.104167 -1.354167,0 -2.03125,-0.572917 -3.4375,2.65625 -5.364583,3.489584 l -0.729167,-0.05208 q 0.208333,-0.520833 1.979167,-2.1875 Q 49.333334,31 50.947917,29.125 q 1.666667,-1.927084 1.71875,-3.229167 L 52.614584,24.75 q 0.104167,-0.364584 0.572917,-0.364584 0.885416,0 2.708333,2.447917 v 0.833333 z m 0.3125,6.145833 q -0.520834,0 -1.40625,-0.729167 -0.833334,-0.78125 -1.458334,-1.666666 0,-0.625 0.260417,-0.729167 1.145833,0.05208 1.875,0.364583 0.729167,0.3125 0.833333,0.46875 0.104167,0.104167 0.416667,0.572917 l 0.208333,0.833333 q -0.15625,0.885417 -0.729166,0.885417 z m -3.854167,2.083333 q 0,1.197917 -0.833333,1.197917 -0.520834,0 -1.197917,-0.46875 l -0.572917,-0.364583 -1.5625,-1.510417 q -0.46875,-0.572917 -0.46875,-1.302083 0.520834,-0.104167 0.833334,-0.104167 1.197916,0 2.5,0.833333 1.302083,0.78125 1.302083,1.71875 z m 5.3125,23.072916 q 1.145833,-0.833333 1.145833,-3.697916 0.05208,-0.677083 0.05208,-2.5 0,-3.645833 -0.208333,-8.072917 -3.072916,0.208334 -7.239583,1.25 l -2.916667,0.833334 q -0.15625,0.05208 -0.3125,0.05208 h -0.364583 q -1.041667,0 -1.71875,-0.416667 l -0.677083,-0.572916 q -0.208334,-0.208334 -0.260417,-0.3125 l 0.15625,-0.260417 13.229166,-2.03125 q 0,-2.604166 -1.458333,-4.6875 0,-0.520833 0.416667,-0.677083 2.8125,0.416667 4.427083,2.395833 0,0.05208 -0.416667,1.5625 l -0.104166,0.677083 5.260416,-0.937499 q 0.3125,-0.05208 0.885417,-0.05208 1.614583,0 2.65625,0.625 1.041667,0.625 1.145833,1.40625 -0.677083,0.625 -9.114583,0.833333 h -0.989583 l 0.15625,9.895834 0.260416,4.583333 q 0,2.1875 -0.677083,3.697916 -0.625,1.510417 -1.302083,1.822917 -0.416667,0 -0.729167,-0.208333 -0.260417,-0.15625 -0.572917,-0.520834 -0.3125,-0.3125 -1.197916,-1.25 Q 52.979164,64.541666 51.781248,63.5 50.739581,62.5625 50.010414,61.78125 l 0.15625,-0.208334 z m -5.625,-4.218749 q -2.864583,-2.447917 -4.166667,-4.53125 -0.208333,-0.260417 -0.05208,-1.25 0.208333,-0.104167 0.46875,-0.104167 0.989583,0 2.916667,1.197917 1.979166,1.197916 2.239583,1.875 0.15625,0.364583 0.15625,1.354166 0,0.833334 -0.364583,1.145834 -0.3125,0.3125 -1.197917,0.3125 z M 37.822918,37.562499 q 0,-1.041666 0,-2.65625 0.05208,-1.614583 0.05208,-1.875 0,-4.010416 -1.666667,-5.989583 -0.364583,-0.833333 0.885417,-0.9375 h 0.572917 q 2.239583,1.302084 3.541666,2.395834 0,0.572916 -0.3125,1.302083 -0.3125,0.677083 -0.677083,2.8125 -0.3125,2.135416 -0.3125,6.197916 v 0.729167 0.572917 q 0,11.354166 -0.260417,17.447916 -0.260416,6.09375 -0.260416,6.302083 -0.260417,1.041667 -1.09375,1.510417 -1.71875,-0.9375 -1.71875,-3.958334 0,-0.9375 0.15625,-2.03125 l 0.520833,-3.489583 0.520833,-8.854166 h -0.05208 q -1.041667,0 -4.739583,1.458333 l -1.09375,0.46875 1.25,1.197917 0.364583,0.78125 q 0.05208,0.15625 0.05208,0.46875 -2.96875,6.354166 -4.947916,9.166666 -1.979167,2.760417 -3.90625,3.385417 v -0.46875 q 5.677083,-8.072917 5.677083,-13.59375 -0.104167,-0.104167 -0.260417,-0.104167 -0.46875,0 -1.875,0.625 -1.354166,0.625 -1.614583,0.677084 l -1.927083,-1.354167 q -0.46875,-0.3125 -0.729167,-0.9375 0.05208,-0.3125 0.104167,-0.416667 0.05208,-0.15625 0.260417,-0.208333 0.260416,-0.05208 0.520833,-0.05208 0.260417,-0.05208 0.833333,-0.104167 0.625,-0.05208 1.25,-0.15625 l 10.729167,-2.135417 q 0.208333,-2.447916 0.208333,-4.479166 0,-1.145833 -0.05208,-1.5625 -4.21875,1.614583 -6.875,2.8125 -1.354167,0 -1.354167,-1.71875 0,-0.78125 0.3125,-2.239583 0.364583,-1.510417 0.364583,-1.822917 0,-3.177083 -1.354166,-5.260417 0,-0.416666 0.364583,-0.572916 1.822917,0.104167 3.4375,1.822916 l -0.364583,5.989584 v 0.46875 l 0.208333,0.15625 5.260417,-0.9375 z"
         id="path36036"
         inkscape:connector-curvature="0" />
    </g>
  </g>
</svg>
