<?xml version="1.0" encoding="UTF-8" standalone="no"?>
<svg
   xmlns:dc="http://purl.org/dc/elements/1.1/"
   xmlns:cc="http://creativecommons.org/ns#"
   xmlns:rdf="http://www.w3.org/1999/02/22-rdf-syntax-ns#"
   xmlns:svg="http://www.w3.org/2000/svg"
   xmlns="http://www.w3.org/2000/svg"
   xmlns:sodipodi="http://sodipodi.sourceforge.net/DTD/sodipodi-0.dtd"
   xmlns:inkscape="http://www.inkscape.org/namespaces/inkscape"
   width="92"
   height="92"
   id="svg2"
   version="1.1"
   inkscape:version="0.92.4 (5da689c313, 2019-01-14)"
   sodipodi:docname="red_pawn.svg">
  <metadata
     id="metadata12">
    <rdf:RDF>
      <cc:Work
         rdf:about="">
        <dc:format>image/svg+xml</dc:format>
        <dc:type
           rdf:resource="http://purl.org/dc/dcmitype/StillImage" />
        <dc:title></dc:title>
      </cc:Work>
    </rdf:RDF>
  </metadata>
  <defs
     id="defs10">
    <filter
       height="1.5"
       width="1.5"
       y="0"
       x="0"
       id="f1"
       color-interpolation-filters="sRGB">
      <feOffset
         id="feOffset3039"
         dy="0"
         dx="1"
         in="SourceAlpha"
         result="offOut" />
      <feGaussianBlur
         id="feGaussianBlur3041"
         stdDeviation="1"
         in="offOut"
         result="blurOut" />
      <!--
      <feBlend in="SourceGraphic" in2="blurOut" mode="normal" />
-->
    </filter>
    <linearGradient
       y2="1"
       x2="0"
       y1="0"
       x1="0"
       id="grad1">
      <stop
         id="stop3034"
         style="stop-color:rgb(255,255,255);stop-opacity:0.6"
         offset="20%" />
      <stop
         id="stop3036"
         style="stop-color:rgb(220,0,0);stop-opacity:0.5"
         offset="50%" />
    </linearGradient>
    <linearGradient
       y2="1"
       x2="0"
       y1="0"
       x1="0"
       id="grad0">
      <stop
         id="stop3029"
         style="stop-color:rgb(0,0,0);stop-opacity:0.3"
         offset="20%" />
      <stop
         id="stop3031"
         style="stop-color:rgb(0,0,0);stop-opacity:0.6"
         offset="100%" />
    </linearGradient>
    <inkscape:path-effect
       effect="mirror_symmetry"
       start_point="274.21267,350.55066"
       end_point="273.50284,477.30227"
       center_point="273.85776,413.92646"
       id="path-effect4557-0-4"
       is_visible="true"
       mode="free"
       discard_orig_path="false"
       fuse_paths="true"
       oposite_fuse="false" />
    <filter
       style="color-interpolation-filters:sRGB;"
       inkscape:label="Drop Shadow"
       id="filter23676">
      <feFlood
         flood-opacity="1"
         flood-color="rgb(91,93,90)"
         result="flood"
         id="feFlood23666" />
      <feComposite
         in="flood"
         in2="SourceGraphic"
         operator="in"
         result="composite1"
         id="feComposite23668" />
      <feGaussianBlur
         in="composite1"
         stdDeviation="0"
         result="blur"
         id="feGaussianBlur23670" />
      <feOffset
         dx="0"
         dy="4"
         result="offset"
         id="feOffset23672" />
      <feComposite
         in="SourceGraphic"
         in2="offset"
         operator="over"
         result="composite2"
         id="feComposite23674" />
    </filter>
  </defs>
  <sodipodi:namedview
     pagecolor="#ffffff"
     bordercolor="#666666"
     borderopacity="1"
     objecttolerance="10"
     gridtolerance="10"
     guidetolerance="10"
     inkscape:pageopacity="0"
     inkscape:pageshadow="2"
     inkscape:window-width="1920"
     inkscape:window-height="1017"
     id="namedview8"
     showgrid="false"
     inkscape:zoom="3.7083822"
     inkscape:cx="-1.0314491"
     inkscape:cy="18.242572"
     inkscape:window-x="-8"
     inkscape:window-y="-8"
     inkscape:window-maximized="1"
     inkscape:current-layer="layer1"
     fit-margin-top="0"
     fit-margin-left="0"
     fit-margin-right="0"
     fit-margin-bottom="0"
     inkscape:pagecheckerboard="false" />
  <g
     inkscape:groupmode="layer"
     id="layer1"
     inkscape:label="Background"
     style="display:inline">
    <g
       id="g24262"
       transform="translate(0.6186409,-2.3347435)"
       style="filter:url(#filter23676)">
      <g
         id="g25621">
        <circle
           style="color:#000000;display:inline;overflow:visible;visibility:visible;opacity:1;fill:#ffffff;fill-opacity:1;fill-rule:nonzero;stroke:#ffffff;stroke-width:0.32569826;stroke-linecap:round;stroke-linejoin:miter;stroke-miterlimit:10;stroke-dasharray:none;stroke-dashoffset:0;stroke-opacity:0.48743723;marker:none;enable-background:accumulate"
           id="circle4376-8-9"
           cx="45.381359"
           cy="48.334743"
           r="40.79224" />
        <circle
           r="32.643799"
           cy="48.334743"
           cx="45.381359"
           id="circle24066-6"
           style="color:#000000;display:inline;overflow:visible;visibility:visible;opacity:1;fill:none;fill-opacity:1;fill-rule:nonzero;stroke:#d40000;stroke-width:3;stroke-linecap:round;stroke-linejoin:miter;stroke-miterlimit:10;stroke-dasharray:none;stroke-dashoffset:0;stroke-opacity:1;marker:none;enable-background:accumulate" />
      </g>
    </g>
    <g
       aria-label="兵"
       style="font-style:normal;font-variant:normal;font-weight:500;font-stretch:normal;font-size:53.33333206px;line-height:1.25;font-family:'cwTeX Q Kai';-inkscape-font-specification:'cwTeX Q Kai, Medium';font-variant-ligatures:normal;font-variant-caps:normal;font-variant-numeric:normal;font-feature-settings:normal;text-align:start;letter-spacing:0px;word-spacing:0px;writing-mode:lr-tb;text-anchor:start;display:inline;fill:#d40000;fill-opacity:1;stroke:#d40000;stroke-width:1;stroke-miterlimit:4;stroke-dasharray:none;stroke-opacity:1"
       id="text32186">
      <path
         d="m 50.791667,40.583333 q 0.572917,0.416666 0.885417,0.729166 0.364583,0.260417 0.416667,0.364584 0.05208,0.05208 0.104166,0.208333 0.05208,0.104167 0.104167,0.15625 -0.05208,0.260417 -0.885417,2.5 -0.833333,2.239583 -1.354166,4.6875 h 0.729166 l 10.572917,-1.71875 q 0.05208,0 0.208333,0 0.15625,-0.05208 0.208333,-0.05208 1.40625,0 2.96875,1.041667 1.614584,0.989583 1.614584,2.03125 L 65.6875,50.947916 q -20.833333,0 -33.802082,2.5 -2.65625,0.677083 -3.125,0.677083 h -0.208334 q -1.770833,0 -2.916666,-1.71875 0,-0.416667 0.208333,-0.416667 l 12.34375,-1.25 v -0.46875 q 0,-2.291666 -1.40625,-11.458333 -0.260417,-1.510416 -2.447917,-6.09375 0,-0.677083 0.833334,-0.677083 1.197916,0 4.010416,1.40625 2.96875,-1.354167 4.635417,-2.135417 1.71875,-0.781249 3.697916,-1.979166 1.979167,-1.25 2.395834,-2.135417 l 0.260416,-0.729166 0.15625,-0.15625 1.09375,0.05208 3.072917,1.614583 q 1.354166,0.989584 1.354166,1.302084 0,0.833333 -1.822916,1.09375 -2.395833,0.520833 -6.71875,1.979166 -4.322917,1.40625 -7.5,2.083333 v 5.260417 q 3.125,-0.15625 8.958333,-1.458333 5.885417,-1.354167 6.927083,-1.354167 1.510417,0 2.239584,0.572917 0.729166,0.572916 0.572916,1.197916 -0.9375,0.572917 -5.989583,1.510417 z m -2.65625,0.46875 q -5.052083,0.78125 -6.302083,0.78125 h -0.625 q -0.833333,0 -1.25,-0.05208 0.625,7.552083 0.833333,8.59375 0.572917,-0.104167 3.4375,-0.416667 2.916667,-0.364583 3.75,-0.46875 l 0.416667,-5.677083 q 0,-1.354166 -0.260417,-2.760416 z m 12.760417,22.447916 q 0,1.197916 -0.885417,2.083333 -0.885417,0 -1.71875,-0.677083 -0.833333,-0.677084 -1.666667,-1.770834 -0.833333,-1.145833 -1.041666,-1.354166 -1.770833,-1.979167 -6.25,-6.510417 -0.15625,-0.78125 0.104167,-1.302083 5.989583,2.8125 8.697916,4.84375 2.760417,2.03125 2.760417,4.6875 z m -21.40625,-9.53125 q 0.625,0 1.927083,1.25 1.302084,1.25 1.302084,2.239583 0,0.15625 -0.05208,0.260417 -0.05208,0.104167 -0.520833,0.364583 -0.416667,0.208334 -1.302083,0.572917 l -6.770833,4.166666 q -3.541667,1.979167 -5.104167,1.979167 -0.520833,0 -0.78125,-0.208333 l 0.05208,-0.416667 q 7.916667,-5.677083 10.520834,-8.59375 -0.208334,-1.614583 0.729166,-1.614583 z"
         style=""
         id="path37336" />
    </g>
  </g>
  <g
     inkscape:groupmode="layer"
     id="layer2"
     inkscape:label="Symbol"
     style="display:inline" />
</svg>
