<svg height="92" width="92" xmlns="http://www.w3.org/2000/svg" xmlns:xlink="http://www.w3.org/1999/xlink"><filter id="a" color-interpolation-filters="sRGB"><feFlood flood-color="#5b5d5a" result="flood"/><feComposite in="flood" in2="SourceGraphic" operator="in" result="composite1"/><feGaussianBlur in="composite1" result="blur" stdDeviation="0"/><feOffset dx="0" dy="4" result="offset"/><feComposite in="SourceGraphic" in2="offset" operator="over" result="composite2"/></filter><g><g filter="url(#a)" stroke-linecap="round" stroke-miterlimit="10" transform="translate(.618641 -2.334744)"><circle cx="45.381359" cy="48.334743" fill="#fff" r="40.79224" stroke="#fff" stroke-opacity=".487437" stroke-width=".325698"/><circle cx="45.381359" cy="48.334743" fill="none" r="32.643799" stroke="#d40000" stroke-width="3"/></g><g fill="#d40000" stroke="#d40000"><path d="m60.84375 50.062499c.9375 0 2.048611.399306 3.333334 1.197917 1.284722.798611 1.927083 1.510416 1.927083 2.135416 0 .138889-.01736.243056-.05208.3125l-.625.364584c-10 .104167-15.364583.173611-16.09375.208333l-1.71875.104167-.15625.208333c0 7.083333-.208333 11.440972-.625 13.072916l-.416667.989584-.05208.104166c-1.284722-.03472-1.927083-2.829859-1.927083-8.385416 0-2.1875.06944-4.045139.208333-5.572917l-.208333-.15625c-3.298611.173611-6.614584.625-9.947917 1.354167l-.900295.419602h-.104167c-.03472 0-.104164.01736-.208333.05208h-.260417c-1.388889 0-2.569444-.711806-3.541666-2.135416l.3125-.364584 14.806545-1.305018c.104167-.416667.15625-1.145833.15625-2.1875 0-.138889-.01736-.399306-.05208-.78125v-.9375c-.625.03472-2.309028.243053-5.052083.625l-.46875.833333-.05208.05208c-1.388889-.138889-2.326389-1.302083-2.8125-3.489583l-1.145833-5.15625c-.520833-1.701389-1.232639-3.142361-2.135417-4.322916.06945-.173611.208334-.329861.416667-.46875.416667 0 1.302083.225694 2.65625.677083 2.881944-.347222 5.677083-.815972 8.385416-1.40625l.104167-3.541667-3.958334.3125c-1.701389-.03472-2.8125-.451387-3.333333-1.25.03472-.243055.277776-.399305.729167-.46875l2.08332-.156243 4.375-.625c0-1.388889-.121528-2.517362-.364583-3.385417-.208333-.902778-.434028-1.493056-.677084-1.770833-.243055-.3125-.555555-.607639-.9375-.885417v-.46875c.138889-.208333.503473-.451389 1.09375-.729167 2.534723.347223 4.218751 1.180556 5.052084 2.5 0 .243056-.121528.625001-.364584 1.145834-.208333.486111-.329861.781249-.364583.885416l-.3125 1.875c.590278-.03472 1.545139-.260414 2.864583-.677083 1.319445-.416667 2.413195-.625 3.28125-.625 1.006945 0 1.927084.347222 2.760417 1.041667 0 .451389-.434028.833333-1.302084 1.145833-.833333.3125-2.499999.659722-4.999999 1.041666l-2.604167.46875-.208333 3.59375 7.135416-.9375c.381945-.03472.9375-.05208 1.666667-.05208l2.916666 1.61458c.694445.451389 1.215278.972223 1.5625 1.5625 0 .3125-.121528.572917-.364583.78125-.208333.173611-.590278.555556-1.145833 1.145834-.520833.590277-1.059028 1.423611-1.614584 2.5l-2.1875 5.364583-.677083 1.09375c-.243055.243055-.763889.364583-1.5625.364583-.243055-.243055-.399305-.555555-.46875-.9375-1.041667 0-2.743055.104167-5.104166.3125l-.104167 3.802083h.364583c.972223 0 4.826389-.590278 11.5625-1.770833.868055-.208333 1.354166-.3125 1.458333-.3125zm-8.124999-13.125c-.972223 0-2.725695.190972-5.260417.572917v3.28125l2.604167-.15625c.625.03472 1.197917.381942 1.71875 1.041667 0 .381944-.05208.590277-.15625.625l-4.166667.625v3.541666c1.979167-.3125 3.107639-.46875 3.385417-.46875.833333 0 1.493055.173611 1.979166.520833 1.284722-3.784722 2.03125-6.857638 2.239583-9.218749-.138889-.243056-.920138-.364584-2.343749-.364584zm-8.125 10.104167v-3.697917l-2.708334.3125c-.659722-.03472-1.163194-.277775-1.510416-.729166 0-.347223.06944-.538195.208333-.572917l.625-.104167c.208333-.03472 1.336806-.277775 3.385417-.729166v-3.541667c-2.881945.381945-5.190972.868056-6.927083 1.458333l1.041666 5.3125c.173611 1.041667.416667 2.048611.729167 3.020833z" stroke-width="1.11112" transform="matrix(.80998676 0 0 1 13.380713 -.572034)"/><path d="m32.149959 38.621819c-2.604167 3.229167-4.739583 5.208333-6.40625 5.9375h-.572916v-.520834c4.791667-5.312499 8.159722-9.999999 10.104166-14.062499.694445-1.25 1.041667-2.083333 1.041667-2.5 0-.277778-.06944-.677084-.208333-1.197917-.104167-.555555-.138889-.972222-.104167-1.25l.3125-.260416c1.076389.03472 1.979166.434025 2.708333 1.197916.729167.729167 1.145833 1.40625 1.25 2.03125l-6.822916 9.270833 1.458333 1.510417c.555555.555555.833333 1.215278.833333 1.979167 0 .06944-.05208.364583-.15625.885416-.06944.520833-.156249 1.736111-.260416 3.645833-.06944 1.875-.121528 12.427025-.15625 15.829803 0 .763888-.01736 1.302083-.05208 1.614583v.625.833334c0 .17361-.01736.468749-.05208.885416 0 .381944-.01736.711805-.05208.989583-.03472.243056-.0868.555556-.15625.9375-.06945.347222-.15625.642361-.260417.885417-.104167.243055-.225694.486111-.364583.729167-.138889.208333-.312501.381944-.520834.520833-.590277-.277778-1.059027-.781251-1.40625-1.510417-.347222-.763889-.520833-1.5625-.520833-2.395833 0-.243056.243056-1.666667.729167-4.270833.520833-2.638889.78125-13.486052.78125-16.715219 0-2.083333-.381945-3.958333-1.145834-5.625z"/></g></g></svg>