<svg height="92" width="92" xmlns="http://www.w3.org/2000/svg" xmlns:xlink="http://www.w3.org/1999/xlink"><filter id="a" color-interpolation-filters="sRGB"><feFlood flood-color="#5b5d5a" result="flood"/><feComposite in="flood" in2="SourceGraphic" operator="in" result="composite1"/><feGaussianBlur in="composite1" result="blur" stdDeviation="0"/><feOffset dx="0" dy="4" result="offset"/><feComposite in="SourceGraphic" in2="offset" operator="over" result="composite2"/></filter><g><g filter="url(#a)" stroke-linecap="round" stroke-miterlimit="10" transform="translate(.618641 -2.334744)"><circle cx="45.381359" cy="48.334743" fill="#fff" r="40.79224" stroke="#fff" stroke-opacity=".487437" stroke-width=".325698"/><circle cx="45.381359" cy="48.334743" fill="none" r="32.643799" stroke="#d40000" stroke-width="3"/></g><path d="m56.46875 33.239583q1.458334 0 2.291667.9375 0 .364583-1.041667.729166-.989583.364584-2.135416.625l-1.197917.260417q-.208333.833333-.260416 3.229167l2.708333-.520834q.78125-.05208 1.354166.3125.572917.364584.46875.833334l-.46875.416666-4.010416.885417-.260417 4.322916q4.010417-.260416 7.708333-1.927083h.15625q1.614584 0 3.385417 1.770833l.729167.729167v.15625q0 .46875-.46875 1.354167-.416667.885416-.46875.989583-.572917 2.135417-.989584 4.84375-.416666 2.65625-.677083 4.375-.260417 1.71875-.729167 3.4375-.46875 1.71875-1.40625 2.8125-.9375 1.09375-2.5 1.71875l-.729166-.104167q-1.041667-2.135417-4.114583-5.677083v-.260417h.104166q.885417 0 2.34375.46875 1.510417.46875 2.291667.46875.416666 0 .625-.05208 2.291666-4.427083 3.020833-13.072917-.15625-.885416-.625-1.041666-.46875-.208334-1.927083-.208334-2.1875 0-5.989583.78125-3.802084.729167-6.875 1.822917l-1.666667.9375q-.78125.15625-1.354167-.3125-.520833-.520833-.520833-.989583 0-.885417.520833-3.697917l.15625-.78125q.260417-4.010416.260417-8.125 0-5.364583-.833333-7.187499.208333-.520834.78125-.520834.46875 0 1.354166.46875.9375.46875 1.458334 1.09375 3.28125-.625 5.625-1.25 2.395833-.625 3.281249-.989583.885417-.364583 1.666667-.572917.78125-.208333 1.510417-.208333 1.145833 0 1.927083.9375.052083.572914-.677083.83333l-6.927083 1.927084 1.145833 1.041666q.15625.15625.260416.46875l-.3125 1.822917.05208.208333.989583-.364583q.46875-.15625.989583-.15625zm-9.895833 13.229166q.520834 0 2.708334-.364583 2.239583-.364584 2.65625-.416667v-4.166666q-1.770834 0-2.604167-.3125-.833333-.3125-.885417-.520834-.05208-.260416.05208-.416666.625-.260417 2.96875-.572917.3125 0 .46875-.05208v-3.177084q-2.135417 0-2.8125-.364583l-.677084-.572917q-.05208-.05208-.05208-.15625.520833-.3125 1.927083-.520833 1.40625-.260417 1.5625-.3125l-.05208-2.1875q-.15625-.833333-.46875-1.5625-1.197917.260417-1.979167.260417-.416666 0-1.145833-.104167l-.989585-.260419q-.9375 3.749999-1.041667 12.447916v2.864583zm13.020833 7.03125q0 .729167-.260416 1.197917-.208334.416666-.520834.46875-.260416 0-.46875-.05208-.260416-.208333-1.979166-2.34375-1.666667-2.135416-1.875-2.5l-.05208-.625.15625-.3125q5 1.71875 5 4.166667zm-6.718749 2.395833q-.729167 0-1.614584-1.822916-.885416-1.875-.885416-3.125v-.208334q.260416-.260416.677083 0 .46875.208334.520833.416667l1.614584 1.5625q.677083.833333.677083 1.71875 0 .572917-.208333.9375-.208334.364583-.416667.46875-.208333.05208-.364583.05208zm-6.927084-4.479166q.104167.104166.520834.625.46875.520833.78125.9375.3125.364583.677083.9375.364583.520833.572917 1.09375.208333.520833.208333 1.041666 0 .885417-.364583 1.302084-.364584.416666-.989584.3125-.677083-.677084-1.354166-2.447917-.625-1.822917-.625-3.177083.260416-.625.572916-.625zm-12.864583-11.71875q-3.90625 4.84375-6.40625 5.9375h-.572916v-.520834q7.1875-7.968749 10.104166-14.062499 1.041667-1.875 1.041667-2.5 0-.416667-.208333-1.197917-.15625-.833333-.104167-1.25l.3125-.260416q1.614583.05208 2.708333 1.197916 1.09375 1.09375 1.25 2.03125l-6.822916 9.270833 1.458333 1.510417q.833333.833333.833333 1.979167 0 .104166-.15625.885416-.104166.78125-.260416 3.645833-.104167 2.8125-.15625 7.916667 0 1.145833-.05208 1.614583 0 .104167 0 .625 0 .520834 0 .833334 0 .260416-.05208.885416 0 .572917-.05208.989583-.05208.364584-.15625.9375-.104167.520834-.260417.885417-.15625.364583-.364583.729167-.208334.3125-.520834.520833-.885416-.416667-1.40625-1.510417-.520833-1.145833-.520833-2.395833 0-.364583.729167-4.270833.78125-3.958333.78125-8.802083 0-3.125-1.145834-5.625zm7.083334 20.624999q-.15625 0-.364584-.104166-.208333-.15625-.46875-.572917-.208333-.46875-.208333-1.09375 0-1.041666.625-2.604166.625-1.614584.625-1.71875l.989583-3.177084q.15625-.260416.364583-.260416.3125 0 .729167 1.302083l.15625.677083v.833334q0 2.552083-.572917 4.21875-.520833 1.614583-1.041666 2.083333-.46875.416666-.833333.416666z" fill="#d40000" stroke="#d40000"/></g></svg>