<?xml version="1.0" encoding="UTF-8" standalone="no"?>
<svg
   xmlns:dc="http://purl.org/dc/elements/1.1/"
   xmlns:cc="http://creativecommons.org/ns#"
   xmlns:rdf="http://www.w3.org/1999/02/22-rdf-syntax-ns#"
   xmlns:svg="http://www.w3.org/2000/svg"
   xmlns="http://www.w3.org/2000/svg"
   xmlns:sodipodi="http://sodipodi.sourceforge.net/DTD/sodipodi-0.dtd"
   xmlns:inkscape="http://www.inkscape.org/namespaces/inkscape"
   width="92"
   height="92"
   id="svg2"
   version="1.1"
   inkscape:version="0.92.4 (5da689c313, 2019-01-14)"
   sodipodi:docname="red_king.svg">
  <metadata
     id="metadata12">
    <rdf:RDF>
      <cc:Work
         rdf:about="">
        <dc:format>image/svg+xml</dc:format>
        <dc:type
           rdf:resource="http://purl.org/dc/dcmitype/StillImage" />
        <dc:title></dc:title>
      </cc:Work>
    </rdf:RDF>
  </metadata>
  <defs
     id="defs10">
    <filter
       height="1.5"
       width="1.5"
       y="0"
       x="0"
       id="f1"
       color-interpolation-filters="sRGB">
      <feOffset
         id="feOffset3039"
         dy="0"
         dx="1"
         in="SourceAlpha"
         result="offOut" />
      <feGaussianBlur
         id="feGaussianBlur3041"
         stdDeviation="1"
         in="offOut"
         result="blurOut" />
      <!--
      <feBlend in="SourceGraphic" in2="blurOut" mode="normal" />
-->
    </filter>
    <linearGradient
       y2="1"
       x2="0"
       y1="0"
       x1="0"
       id="grad1">
      <stop
         id="stop3034"
         style="stop-color:rgb(255,255,255);stop-opacity:0.6"
         offset="20%" />
      <stop
         id="stop3036"
         style="stop-color:rgb(220,0,0);stop-opacity:0.5"
         offset="50%" />
    </linearGradient>
    <linearGradient
       y2="1"
       x2="0"
       y1="0"
       x1="0"
       id="grad0">
      <stop
         id="stop3029"
         style="stop-color:rgb(0,0,0);stop-opacity:0.3"
         offset="20%" />
      <stop
         id="stop3031"
         style="stop-color:rgb(0,0,0);stop-opacity:0.6"
         offset="100%" />
    </linearGradient>
    <inkscape:path-effect
       effect="mirror_symmetry"
       start_point="274.21267,350.55066"
       end_point="273.50284,477.30227"
       center_point="273.85776,413.92646"
       id="path-effect4557-0-4"
       is_visible="true"
       mode="free"
       discard_orig_path="false"
       fuse_paths="true"
       oposite_fuse="false" />
    <filter
       style="color-interpolation-filters:sRGB;"
       inkscape:label="Drop Shadow"
       id="filter23676">
      <feFlood
         flood-opacity="1"
         flood-color="rgb(91,93,90)"
         result="flood"
         id="feFlood23666" />
      <feComposite
         in="flood"
         in2="SourceGraphic"
         operator="in"
         result="composite1"
         id="feComposite23668" />
      <feGaussianBlur
         in="composite1"
         stdDeviation="0"
         result="blur"
         id="feGaussianBlur23670" />
      <feOffset
         dx="0"
         dy="4"
         result="offset"
         id="feOffset23672" />
      <feComposite
         in="SourceGraphic"
         in2="offset"
         operator="over"
         result="composite2"
         id="feComposite23674" />
    </filter>
  </defs>
  <sodipodi:namedview
     pagecolor="#ffffff"
     bordercolor="#666666"
     borderopacity="1"
     objecttolerance="10"
     gridtolerance="10"
     guidetolerance="10"
     inkscape:pageopacity="0"
     inkscape:pageshadow="2"
     inkscape:window-width="1920"
     inkscape:window-height="1017"
     id="namedview8"
     showgrid="false"
     inkscape:zoom="3.7083822"
     inkscape:cx="-1.0314491"
     inkscape:cy="18.242572"
     inkscape:window-x="-8"
     inkscape:window-y="-8"
     inkscape:window-maximized="1"
     inkscape:current-layer="layer1"
     fit-margin-top="0"
     fit-margin-left="0"
     fit-margin-right="0"
     fit-margin-bottom="0"
     inkscape:pagecheckerboard="false" />
  <g
     inkscape:groupmode="layer"
     id="layer1"
     inkscape:label="Background"
     style="display:inline">
    <g
       id="g24262"
       transform="translate(0.6186409,-2.3347435)"
       style="filter:url(#filter23676)">
      <g
         id="g25621">
        <circle
           style="color:#000000;display:inline;overflow:visible;visibility:visible;opacity:1;fill:#ffffff;fill-opacity:1;fill-rule:nonzero;stroke:#ffffff;stroke-width:0.32569826;stroke-linecap:round;stroke-linejoin:miter;stroke-miterlimit:10;stroke-dasharray:none;stroke-dashoffset:0;stroke-opacity:0.48743723;marker:none;enable-background:accumulate"
           id="circle4376-8-9"
           cx="45.381359"
           cy="48.334743"
           r="40.79224" />
        <circle
           r="32.643799"
           cy="48.334743"
           cx="45.381359"
           id="circle24066-6"
           style="color:#000000;display:inline;overflow:visible;visibility:visible;opacity:1;fill:none;fill-opacity:1;fill-rule:nonzero;stroke:#d40000;stroke-width:3;stroke-linecap:round;stroke-linejoin:miter;stroke-miterlimit:10;stroke-dasharray:none;stroke-dashoffset:0;stroke-opacity:1;marker:none;enable-background:accumulate" />
      </g>
    </g>
    <g
       aria-label="帥"
       style="font-style:normal;font-variant:normal;font-weight:500;font-stretch:normal;font-size:53.33333206px;line-height:1.25;font-family:'cwTeX Q Kai';-inkscape-font-specification:'cwTeX Q Kai, Medium';font-variant-ligatures:normal;font-variant-caps:normal;font-variant-numeric:normal;font-feature-settings:normal;text-align:start;letter-spacing:0px;word-spacing:0px;writing-mode:lr-tb;text-anchor:start;display:inline;fill:#d40000;fill-opacity:1;stroke:#d40000;stroke-width:1;stroke-miterlimit:4;stroke-dasharray:none;stroke-opacity:1"
       id="text32186">
      <path
         d="m 55.895834,26.572916 q 0,0.416667 -0.3125,1.09375 -0.3125,0.677084 -0.625,2.708334 -0.3125,1.979166 -0.3125,5.677083 v 0.78125 0.625 q 3.229166,-0.416667 5.46875,-1.40625 1.041666,0 3.125,1.145833 l 0.9375,0.416667 q 0.05208,0.05208 0.05208,0.260416 0,0.208334 -0.3125,1.354167 -0.3125,1.09375 -0.3125,2.708333 l 0.260417,5.989583 q -0.05208,1.770834 -0.729167,3.541667 -0.625,1.770833 -1.25,2.135417 l -0.625,0.15625 q -0.260417,0 -0.46875,-0.05208 -0.15625,-0.104166 -0.364583,-0.208333 -0.208334,-0.15625 -0.625,-0.520833 -0.416667,-0.364584 -0.885417,-0.78125 -0.416667,-0.416667 -1.354167,-1.25 -0.9375,-0.885417 -1.979166,-1.770834 0.208333,-0.15625 0.729166,-0.15625 0.572917,0 1.510417,0.208334 0.9375,0.208333 1.302083,0.208333 1.09375,0 1.458334,-1.71875 0.364583,-1.71875 0.364583,-6.822916 0,-1.614584 -0.416667,-2.03125 -0.364583,-0.416667 -1.5625,-0.416667 -1.40625,0 -2.760416,0.260417 -1.302084,0.208333 -1.510417,0.208333 l -0.15625,0.15625 -0.15625,20.416666 q 0,7.760417 -1.25,8.28125 -1.510416,-0.260417 -1.510416,-7.864583 l 0.3125,-17.916666 q 0,-1.5625 -0.05208,-2.34375 -0.46875,0 -3.333333,0.46875 l -1.041667,0.15625 q -0.208333,0.260416 -0.260416,5.677083 0,5.989583 -1.822917,6.25 -1.354167,-1.666667 -1.354167,-3.75 1.145834,-2.8125 1.145834,-5.364583 0,-1.458334 -0.3125,-2.447917 -0.260417,-0.989583 -0.520834,-1.458333 -0.260416,-0.46875 -0.260416,-0.625 0,-0.572917 0.625,-0.572917 0.46875,0 1.197916,0.260417 0.729167,0.260416 0.989584,0.520833 l 4.895833,-0.677083 0.15625,-9.635417 q 0,-1.458333 -1.927083,-3.072916 v -0.05208 q 0,-1.041666 1.041666,-1.041666 1.145834,0 2.708334,0.833333 1.562499,0.78125 2.083333,1.458333 z m -24.010416,9.583333 q 1.40625,0 3.697916,-1.145833 2.291667,-1.145833 3.645834,-1.145833 1.822916,0 3.697916,1.979166 l 0.104167,0.3125 v 0.05208 q 0,0.260416 -1.041667,1.302083 l -0.572917,0.677083 q -0.885416,1.510417 -1.302083,2.916667 l 0.989583,0.833333 0.15625,0.572917 q -1.302083,0.572917 -9.062499,1.5625 l -1.041667,0.104167 -0.15625,4.531249 q 1.041667,-0.104166 3.489583,-1.041666 2.5,-0.989584 4.0625,-0.989584 1.458334,0 2.916667,0.78125 1.510416,0.78125 1.510416,1.5625 0,0.208334 -0.364583,0.677084 -0.3125,0.46875 -0.78125,0.989583 -0.416667,0.520833 -0.520833,0.729167 l -1.09375,2.395833 q -0.05208,0.05208 -0.05208,0.208333 0,0.15625 -0.05208,0.260417 1.09375,0.729167 1.145833,1.09375 v 0.260417 l -0.46875,0.3125 -9.010416,1.197916 h -0.885417 q -0.260416,3.90625 -1.458333,4.010417 -1.614583,-1.145834 -1.614583,-3.333333 0,-0.15625 0.677083,-3.854167 0.677083,-3.75 0.677083,-9.114583 0,-5.885417 -1.40625,-9.583333 0.416667,-0.260417 0.833334,-0.260417 0.989583,0 2.135416,1.145833 0.9375,-0.885416 2.1875,-4.427083 1.25,-3.59375 1.25,-5 v -0.3125 l -0.15625,-0.572916 q 0.520834,-0.364584 1.302084,-0.364584 0.572916,0 1.354166,0.260417 0.78125,0.260417 1.302084,0.46875 l 0.520833,0.260417 0.416667,0.46875 -0.05208,0.520833 q -0.9375,0.885417 -3.59375,4.375 -2.604166,3.4375 -3.489583,4.322916 z m -0.677084,6.5625 q 4.791667,-1.09375 6.71875,-1.875 l 0.833334,-3.020833 q 0.104166,-0.729167 0.104166,-0.885417 0,-0.9375 -0.572916,-0.9375 -0.15625,0 -0.260417,0.05208 l -5.260417,1.40625 q -1.40625,0.260416 -1.40625,0.833333 z m 7.1875,7.395833 q 0,-0.729166 -0.260416,-0.9375 -0.208334,-0.260416 -0.833334,-0.260416 -0.78125,0 -3.020833,0.520833 -2.1875,0.520833 -3.229167,0.677083 l -0.05208,5.416667 q 4.947917,-0.989583 6.666667,-1.458333 0.729166,-2.760417 0.729166,-3.958334 z"
         style=""
         id="path37331" />
    </g>
  </g>
  <g
     inkscape:groupmode="layer"
     id="layer2"
     inkscape:label="Symbol"
     style="display:inline" />
</svg>
