<?xml version="1.0" encoding="UTF-8" standalone="no"?>
<svg
   width="177.17"
   height="177.17"
   shape-rendering="geometricPrecision"
   image-rendering="optimizeQuality"
   fill-rule="evenodd"
   clip-rule="evenodd"
   viewBox="0 0 50 50"
   version="1.1"
   id="svg487"
   sodipodi:docname="bCaptain.svg"
   inkscape:version="1.2.2 (b0a8486541, 2022-12-01)"
   xml:space="preserve"
   xmlns:inkscape="http://www.inkscape.org/namespaces/inkscape"
   xmlns:sodipodi="http://sodipodi.sourceforge.net/DTD/sodipodi-0.dtd"
   xmlns:xlink="http://www.w3.org/1999/xlink"
   xmlns="http://www.w3.org/2000/svg"
   xmlns:svg="http://www.w3.org/2000/svg"><defs
     id="defs491"><linearGradient
       inkscape:collect="always"
       id="linearGradient12214"><stop
         style="stop-color:#e6e6e6;stop-opacity:1"
         offset="0"
         id="stop12210" /><stop
         style="stop-color:#aba9a8;stop-opacity:1"
         offset="1"
         id="stop12212" /></linearGradient><linearGradient
       inkscape:collect="always"
       id="linearGradient11261"><stop
         style="stop-color:#e6e6e6;stop-opacity:1;"
         offset="0"
         id="stop11257" /><stop
         style="stop-color:#e6e6e6;stop-opacity:0;"
         offset="1"
         id="stop11259" /></linearGradient><linearGradient
       id="0"
       x1="21.253"
       y1="37.591999"
       x2="77.639999"
       y2="37.469002"
       gradientUnits="userSpaceOnUse"
       gradientTransform="translate(-64.596136,0.37123948)"><stop
         stop-color="#fff"
         id="stop597" /><stop
         offset="1"
         stop-color="#fff"
         stop-opacity="0"
         id="stop599" /></linearGradient><linearGradient
       id="0-7"
       x1="21.253"
       y1="37.220001"
       x2="77.760002"
       y2="37.360001"
       gradientUnits="userSpaceOnUse"
       gradientTransform="translate(-64.654373,-44.553574)"><stop
         stop-color="#fff"
         id="stop3272" /><stop
         offset="1"
         stop-color="#fff"
         stop-opacity="0"
         id="stop3274" /></linearGradient><linearGradient
       id="0-2"
       x1="21.253"
       y1="37.591999"
       x2="77.639999"
       y2="37.469002"
       gradientUnits="userSpaceOnUse"
       gradientTransform="translate(-153.56432,-31.051347)"><stop
         stop-color="#fff"
         id="stop4098" /><stop
         offset="1"
         stop-color="#fff"
         stop-opacity="0"
         id="stop4100" /></linearGradient><linearGradient
       id="0-9"
       x1="21.129999"
       y1="37.220001"
       x2="77.760002"
       y2="37.469002"
       gradientUnits="userSpaceOnUse"
       gradientTransform="translate(-47.896189,77.413195)"><stop
         stop-color="#fff"
         id="stop9248" /><stop
         offset="1"
         stop-color="#fff"
         stop-opacity="0"
         id="stop9250" /></linearGradient><linearGradient
       inkscape:collect="always"
       xlink:href="#linearGradient11261"
       id="linearGradient11263"
       x1="27.894026"
       y1="24.891678"
       x2="40.880329"
       y2="24.891678"
       gradientUnits="userSpaceOnUse" /><linearGradient
       inkscape:collect="always"
       xlink:href="#linearGradient12214"
       id="linearGradient14702"
       gradientUnits="userSpaceOnUse"
       x1="25.181875"
       y1="25.17498"
       x2="43.313152"
       y2="25.253242"
       gradientTransform="translate(-0.130022,1.0441524)" /><linearGradient
       inkscape:collect="always"
       xlink:href="#linearGradient12214"
       id="linearGradient14770"
       gradientUnits="userSpaceOnUse"
       gradientTransform="matrix(1,0,0,-1,-0.130022,49.623217)"
       x1="25.181875"
       y1="25.17498"
       x2="43.313152"
       y2="25.253242" /></defs><sodipodi:namedview
     id="namedview489"
     pagecolor="#ffffff"
     bordercolor="#666666"
     borderopacity="1.0"
     inkscape:showpageshadow="2"
     inkscape:pageopacity="0.0"
     inkscape:pagecheckerboard="0"
     inkscape:deskcolor="#d1d1d1"
     showgrid="false"
     inkscape:zoom="0.63745274"
     inkscape:cx="311.39564"
     inkscape:cy="52.552916"
     inkscape:window-width="3840"
     inkscape:window-height="2036"
     inkscape:window-x="-12"
     inkscape:window-y="-12"
     inkscape:window-maximized="1"
     inkscape:current-layer="svg487" /><path
     id="path8244"
     style="fill:#1f1a17;fill-opacity:1;stroke:none;stroke-width:0.617461;stroke-linecap:round;stroke-linejoin:round;stroke-dasharray:none;stroke-opacity:1;paint-order:stroke fill markers"
     d="M 24.999899,3.9992154 A 17.919813,21.229329 0 0 0 7.777108,19.381882 6.0216842,5.7933741 0 0 1 13.75575,25.172189 6.0216842,5.7933741 0 0 1 7.753191,30.964106 17.919813,21.229329 0 0 0 24.999899,46.457922 17.919813,21.229329 0 0 0 42.246809,30.964106 6.0216842,5.7933741 0 0 1 36.244249,25.172189 6.0216842,5.7933741 0 0 1 42.225702,19.381681 17.919813,21.229329 0 0 0 24.999899,3.9992154 Z" /><path
     id="path8614"
     style="color:#000000;fill:url(#linearGradient11263);fill-opacity:1;-inkscape-stroke:none"
     d="M 24.011962,9.4767733 V 23.870854 h -7.186005 v 2.25827 h 7.186005 v 14.177361 h 1.976055 V 26.129124 h 7.144665 v -2.25827 H 25.988017 V 9.4767733 Z"
     sodipodi:nodetypes="ccccccccccccc" /><g
     id="g14774"
     transform="translate(7.8e-5,-0.10511615)"><path
       style="color:#000000;fill:url(#linearGradient14702);fill-opacity:1;-inkscape-stroke:none"
       d="M 25.030134,6.3752097 C 19.06408,6.3646457 13.837435,9.1903369 10.106195,17.852697 l 1.659467,0.761552 c 4.044823,-8.347694 8.154426,-10.5547251 13.262519,-10.54568 5.108093,0.00905 9.399214,2.208417 13.151377,10.545701 l 1.714091,-0.617041 C 36.214327,9.3366719 30.996189,6.385774 25.030134,6.3752097 Z"
       id="path12198"
       sodipodi:nodetypes="sccsccs" /><path
       style="color:#000000;fill:url(#linearGradient14770);fill-opacity:1;-inkscape-stroke:none"
       d="M 25.030134,44.29216 C 19.06408,44.302724 13.837435,41.477032 10.106195,32.814672 l 1.659467,-0.761552 c 4.044823,8.347694 8.154426,10.554725 13.262519,10.54568 5.108093,-0.0091 9.399214,-2.208417 13.151377,-10.545701 l 1.714091,0.617041 c -3.679322,8.660557 -8.89746,11.611455 -14.863515,11.62202 z"
       id="path14768"
       sodipodi:nodetypes="sccsccs" /></g></svg>
