<svg clip-rule="evenodd" fill-rule="evenodd" height="177.17" image-rendering="optimizeQuality" shape-rendering="geometricPrecision" viewBox="0 0 50 50" width="177.17" xmlns="http://www.w3.org/2000/svg"><g transform="matrix(.66521786 .66396307 -.66396307 .66521786 94.268014 31.287113)"><path d="m-53.700966 74.162042s.82982-4.708091.539901-5.090478c-.289929-.382392-2.53988-.270887-2.53988-.270887.623135-3.232934 2.3551-5.432952.674346-11.546305l5.425503-.423613-.426405-2.125514-3.886064-.233413-.81717-28.342417c-.256803-1.273997-1.738826-2.991442-2.804794-4.567614-1.065968 1.576172-2.54799 3.293617-2.804793 4.567614l-.817171 28.342417-3.886064.233413-.426404 2.125514 5.425503.423613c-1.680754 6.113353.05121 8.313371.674346 11.546305 0 0-2.249952-.111505-2.539881.270887-.289919.382387.539902 5.090478.539902 5.090478h3.834562z" fill="#1f1a17"/><path d="m-57.535529 24.777999.000001 29.291679" fill="none" stroke="#fff" stroke-width=".846644"/></g><g transform="matrix(-.66521786 .66396307 .66396307 .66521786 -44.268014 31.287113)"><path d="m-53.700966 74.162042s.82982-4.708091.539901-5.090478c-.289929-.382392-2.53988-.270887-2.53988-.270887.623135-3.232934 2.3551-5.432952.674346-11.546305l5.425503-.423613-.426405-2.125514-3.886064-.233413-.81717-28.342417c-.256803-1.273997-1.738826-2.991442-2.804794-4.567614-1.065968 1.576172-2.54799 3.293617-2.804793 4.567614l-.817171 28.342417-3.886064.233413-.426404 2.125514 5.425503.423613c-1.680754 6.113353.05121 8.313371.674346 11.546305 0 0-2.249952-.111505-2.539881.270887-.289919.382387.539902 5.090478.539902 5.090478h3.834562z" fill="#1f1a17"/><path d="m-57.535529 24.777999.000001 29.291679" fill="none" stroke="#fff" stroke-width=".846644"/></g></svg>