<?xml version="1.0" encoding="UTF-8" standalone="no"?>
<svg
   width="177.17"
   height="177.17"
   shape-rendering="geometricPrecision"
   image-rendering="optimizeQuality"
   fill-rule="evenodd"
   clip-rule="evenodd"
   viewBox="0 0 50 50"
   version="1.1"
   id="svg487"
   sodipodi:docname="bLieutenant.svg"
   inkscape:version="1.2.2 (b0a8486541, 2022-12-01)"
   xml:space="preserve"
   xmlns:inkscape="http://www.inkscape.org/namespaces/inkscape"
   xmlns:sodipodi="http://sodipodi.sourceforge.net/DTD/sodipodi-0.dtd"
   xmlns="http://www.w3.org/2000/svg"
   xmlns:svg="http://www.w3.org/2000/svg"><g
     id="g42578"
     transform="matrix(0.66521786,0.66396307,-0.66396307,0.66521786,94.268014,31.287113)"><path
       style="fill:#1f1a17;fill-opacity:1;stroke:none;stroke-width:0.184878px;stroke-linecap:butt;stroke-linejoin:miter;stroke-opacity:1"
       d="m -53.700966,74.162042 c 0,0 0.82982,-4.708091 0.539901,-5.090478 -0.289929,-0.382392 -2.53988,-0.270887 -2.53988,-0.270887 0.623135,-3.232934 2.3551,-5.432952 0.674346,-11.546305 l 5.425503,-0.423613 -0.426405,-2.125514 -3.886064,-0.233413 -0.81717,-28.342417 c -0.256803,-1.273997 -1.738826,-2.991442 -2.804794,-4.567614 -1.065968,1.576172 -2.54799,3.293617 -2.804793,4.567614 l -0.817171,28.342417 -3.886064,0.233413 -0.426404,2.125514 5.425503,0.423613 c -1.680754,6.113353 0.05121,8.313371 0.674346,11.546305 0,0 -2.249952,-0.111505 -2.539881,0.270887 -0.289919,0.382387 0.539902,5.090478 0.539902,5.090478 h 3.834562 z"
       id="path40829"
       sodipodi:nodetypes="cscccccccccccccsccc" /><path
       style="fill:none;stroke:#ffffff;stroke-width:0.846644;stroke-linecap:butt;stroke-linejoin:miter;stroke-dasharray:none;stroke-opacity:1"
       d="m -57.535529,24.777999 10e-7,29.291679"
       id="path40900"
       sodipodi:nodetypes="cc" /></g><defs
     id="defs491"><linearGradient
       id="0"
       x1="21.253"
       y1="37.591999"
       x2="77.639999"
       y2="37.469002"
       gradientUnits="userSpaceOnUse"
       gradientTransform="translate(-64.596136,0.37123948)"><stop
         stop-color="#fff"
         id="stop597" /><stop
         offset="1"
         stop-color="#fff"
         stop-opacity="0"
         id="stop599" /></linearGradient><linearGradient
       id="0-7"
       x1="21.253"
       y1="37.220001"
       x2="77.760002"
       y2="37.360001"
       gradientUnits="userSpaceOnUse"
       gradientTransform="translate(-64.654373,-44.553574)"><stop
         stop-color="#fff"
         id="stop3272" /><stop
         offset="1"
         stop-color="#fff"
         stop-opacity="0"
         id="stop3274" /></linearGradient><linearGradient
       id="0-2"
       x1="21.253"
       y1="37.591999"
       x2="77.639999"
       y2="37.469002"
       gradientUnits="userSpaceOnUse"
       gradientTransform="translate(-153.56432,-31.051347)"><stop
         stop-color="#fff"
         id="stop4098" /><stop
         offset="1"
         stop-color="#fff"
         stop-opacity="0"
         id="stop4100" /></linearGradient><linearGradient
       id="0-9"
       x1="21.129999"
       y1="37.220001"
       x2="77.760002"
       y2="37.469002"
       gradientUnits="userSpaceOnUse"
       gradientTransform="translate(-47.896189,77.413195)"><stop
         stop-color="#fff"
         id="stop9248" /><stop
         offset="1"
         stop-color="#fff"
         stop-opacity="0"
         id="stop9250" /></linearGradient></defs><sodipodi:namedview
     id="namedview489"
     pagecolor="#ffffff"
     bordercolor="#666666"
     borderopacity="1.0"
     inkscape:showpageshadow="2"
     inkscape:pageopacity="0.0"
     inkscape:pagecheckerboard="0"
     inkscape:deskcolor="#d1d1d1"
     showgrid="false"
     inkscape:zoom="0.90149431"
     inkscape:cx="-765.95048"
     inkscape:cy="97.061067"
     inkscape:window-width="3840"
     inkscape:window-height="2036"
     inkscape:window-x="3828"
     inkscape:window-y="-12"
     inkscape:window-maximized="1"
     inkscape:current-layer="svg487" /><g
     id="g42584"
     transform="matrix(-0.66521786,0.66396307,0.66396307,0.66521786,-44.268014,31.287113)"><path
       style="fill:#1f1a17;fill-opacity:1;stroke:none;stroke-width:0.184878px;stroke-linecap:butt;stroke-linejoin:miter;stroke-opacity:1"
       d="m -53.700966,74.162042 c 0,0 0.82982,-4.708091 0.539901,-5.090478 -0.289929,-0.382392 -2.53988,-0.270887 -2.53988,-0.270887 0.623135,-3.232934 2.3551,-5.432952 0.674346,-11.546305 l 5.425503,-0.423613 -0.426405,-2.125514 -3.886064,-0.233413 -0.81717,-28.342417 c -0.256803,-1.273997 -1.738826,-2.991442 -2.804794,-4.567614 -1.065968,1.576172 -2.54799,3.293617 -2.804793,4.567614 l -0.817171,28.342417 -3.886064,0.233413 -0.426404,2.125514 5.425503,0.423613 c -1.680754,6.113353 0.05121,8.313371 0.674346,11.546305 0,0 -2.249952,-0.111505 -2.539881,0.270887 -0.289919,0.382387 0.539902,5.090478 0.539902,5.090478 h 3.834562 z"
       id="path42580"
       sodipodi:nodetypes="cscccccccccccccsccc" /><path
       style="fill:none;stroke:#ffffff;stroke-width:0.846644;stroke-linecap:butt;stroke-linejoin:miter;stroke-dasharray:none;stroke-opacity:1"
       d="m -57.535529,24.777999 10e-7,29.291679"
       id="path42582"
       sodipodi:nodetypes="cc" /></g></svg>
