<?xml version="1.0" encoding="UTF-8" standalone="no"?>
<svg
   clip-rule="evenodd"
   fill-rule="evenodd"
   height="50mm"
   image-rendering="optimizeQuality"
   shape-rendering="geometricPrecision"
   text-rendering="geometricPrecision"
   viewBox="0 0 50 50"
   width="50mm"
   version="1.1"
   id="svg157"
   sodipodi:docname="bP spartan.svg"
   inkscape:version="1.2.1 (9c6d41e410, 2022-07-14)"
   xmlns:inkscape="http://www.inkscape.org/namespaces/inkscape"
   xmlns:sodipodi="http://sodipodi.sourceforge.net/DTD/sodipodi-0.dtd"
   xmlns:xlink="http://www.w3.org/1999/xlink"
   xmlns="http://www.w3.org/2000/svg"
   xmlns:svg="http://www.w3.org/2000/svg">
  <defs
     id="defs161">
    <linearGradient
       inkscape:collect="always"
       id="linearGradient6014">
      <stop
         style="stop-color:#ffffff;stop-opacity:1;"
         offset="0"
         id="stop6010" />
      <stop
         style="stop-color:#e5e5e5;stop-opacity:1;"
         offset="1"
         id="stop6012" />
    </linearGradient>
    <linearGradient
       inkscape:collect="always"
       id="linearGradient3375">
      <stop
         style="stop-color:#ffffff;stop-opacity:1;"
         offset="0"
         id="stop3371" />
      <stop
         style="stop-color:#e6e6e6;stop-opacity:1;"
         offset="1"
         id="stop3373" />
    </linearGradient>
    <linearGradient
       inkscape:collect="always"
       id="linearGradient2048">
      <stop
         style="stop-color:#ffffff;stop-opacity:1;"
         offset="0"
         id="stop2044" />
      <stop
         style="stop-color:#000000;stop-opacity:0;"
         offset="1"
         id="stop2046" />
    </linearGradient>
    <linearGradient
       inkscape:collect="always"
       id="linearGradient2038">
      <stop
         style="stop-color:#ffffff;stop-opacity:1;"
         offset="0"
         id="stop2034" />
      <stop
         style="stop-color:#ffffff;stop-opacity:0.81283414;"
         offset="1"
         id="stop2036" />
    </linearGradient>
    <inkscape:path-effect
       effect="bspline"
       id="path-effect1837"
       is_visible="true"
       lpeversion="1"
       weight="33.333333"
       steps="2"
       helper_size="0"
       apply_no_weight="true"
       apply_with_weight="true"
       only_selected="false" />
    <inkscape:path-effect
       effect="bspline"
       id="path-effect1837-1"
       is_visible="true"
       lpeversion="1"
       weight="33.333333"
       steps="2"
       helper_size="0"
       apply_no_weight="true"
       apply_with_weight="true"
       only_selected="false" />
    <linearGradient
       inkscape:collect="always"
       xlink:href="#linearGradient2038"
       id="linearGradient2040"
       x1="24.023004"
       y1="22.361488"
       x2="25.976996"
       y2="22.361488"
       gradientUnits="userSpaceOnUse"
       gradientTransform="matrix(1.0862906,0,0,0.90540642,-2.1572539,3.0635763)" />
    <linearGradient
       inkscape:collect="always"
       xlink:href="#linearGradient2048"
       id="linearGradient2042"
       x1="20.757964"
       y1="35.81911"
       x2="29.221674"
       y2="35.81911"
       gradientUnits="userSpaceOnUse" />
    <linearGradient
       inkscape:collect="always"
       xlink:href="#linearGradient3375"
       id="linearGradient3377"
       x1="24.023004"
       y1="22.361488"
       x2="25.976996"
       y2="22.361488"
       gradientUnits="userSpaceOnUse"
       gradientTransform="matrix(1.0862906,0,0,0.90540642,-2.1572539,3.0635763)" />
    <linearGradient
       inkscape:collect="always"
       xlink:href="#linearGradient6014"
       id="linearGradient6016"
       x1="20.757964"
       y1="35.81911"
       x2="29.221674"
       y2="35.81911"
       gradientUnits="userSpaceOnUse" />
  </defs>
  <sodipodi:namedview
     id="namedview159"
     pagecolor="#ffffff"
     bordercolor="#000000"
     borderopacity="0.25"
     inkscape:showpageshadow="2"
     inkscape:pageopacity="0.0"
     inkscape:pagecheckerboard="0"
     inkscape:deskcolor="#d1d1d1"
     inkscape:document-units="mm"
     showgrid="false"
     inkscape:zoom="2.6564167"
     inkscape:cx="66.254666"
     inkscape:cy="96.370423"
     inkscape:window-width="1366"
     inkscape:window-height="705"
     inkscape:window-x="-8"
     inkscape:window-y="-8"
     inkscape:window-maximized="1"
     inkscape:current-layer="svg157" />
  <path
     d="M 25,46.448 H 11.606 c -0.658745,-1.599443 1.300837,-6.138618 1.300837,-6.138618 l 3.096007,-7.42039 c 0,0 1.182156,-3.555992 3.908156,-4.568992 -1.158016,-0.517874 -2.148758,-1.348283 -2.861,-2.398 -0.737,-1.071 -1.1,-2.283 -1.1,-3.634 0,-1.69 0.575,-3.156 1.735,-4.392 1.151,-1.244 2.574,-1.961 4.267,-2.15 -1.346,-0.981 -2.015,-2.283 -2.015,-3.89 0,-1.351 0.491,-2.513 1.482,-3.477 0.982,-0.964 2.176,-1.442 3.581,-1.442 1.389,0 2.582,0.478 3.573,1.442 0.991,0.964 1.49,2.126 1.49,3.477 0,1.607 -0.669,2.909 -2.015,3.89 1.693,0.189 3.116,0.906 4.267,2.15 1.16,1.236 1.736,2.703 1.736,4.392 0,1.351 -0.373,2.563 -1.126,3.634 -0.720627,1.042497 -1.709446,1.871005 -2.862,2.398 2.726,1.013 2.642215,1.573667 3.908155,3.572976 1.039107,2.330247 2.326126,5.077682 2.998407,7.619594 C 37.414201,41.193765 39.038,44.825 38.394,46.448 Z"
     fill="#1f1a17"
     id="path155"
     sodipodi:nodetypes="ccccccsccscsssccscccscc" />
  <path
     style="fill:url(#linearGradient2040);fill-opacity:1;fill-rule:evenodd;stroke:url(#linearGradient3377);stroke-width:2.47336;stroke-dasharray:none;stroke-opacity:1"
     d="m 25.09056,5.5867952 c -0.03031,9.7653238 -0.06052,19.4990488 -0.09089,25.4053748 -0.03037,5.906326 -0.06056,7.985385 -0.09028,10.032952"
     id="path1835"
     inkscape:path-effect="#path-effect1837"
     inkscape:original-d="M 25.09056,5.5867952 C 25.07057,15.352151 25.04027,25.085876 24.99993,34.78798 c -0.02001,2.11067 -0.05028,4.189728 -0.09054,6.237142" />
  <path
     style="fill:url(#linearGradient2042);fill-rule:evenodd;stroke:url(#linearGradient6016);stroke-width:2.397;stroke-dasharray:none;stroke-opacity:1;fill-opacity:1"
     d="m 29.220722,35.870223 c -2.316791,-0.0026 -4.626104,-0.0053 -6.026954,-0.02282 -1.400851,-0.01754 -1.894109,-0.04958 -2.380812,-0.08119"
     id="path1835-5"
     inkscape:path-effect="#path-effect1837-1"
     inkscape:original-d="m 29.220722,35.870223 c -2.316806,0.01063 -4.626119,0.0079 -6.927936,-0.0079 -0.500771,-0.01857 -0.994044,-0.05038 -1.47983,-0.09611" />
</svg>
