<svg height="92" width="92" xmlns="http://www.w3.org/2000/svg" xmlns:xlink="http://www.w3.org/1999/xlink"><linearGradient id="a"><stop offset="0" stop-color="#1a1a1a"/><stop offset="1" stop-color="#333"/></linearGradient><filter id="b" color-interpolation-filters="sRGB"><feFlood flood-color="#5b5d5a" result="flood"/><feComposite in="flood" in2="SourceGraphic" operator="in" result="composite1"/><feGaussianBlur in="composite1" result="blur" stdDeviation="0"/><feOffset dx="0" dy="4" result="offset"/><feComposite in="SourceGraphic" in2="offset" operator="over" result="composite2"/></filter><linearGradient id="c" gradientUnits="userSpaceOnUse" x1="-1229.7834" x2="-1172.392" xlink:href="#a" y1="211.83962" y2="216.00209"/><linearGradient id="d" gradientUnits="userSpaceOnUse" x1="1223.7153" x2="1063.5491" y1="317.64001" y2="312.49503"><stop offset="0"/><stop offset="1" stop-color="#666"/></linearGradient><linearGradient id="e" gradientUnits="userSpaceOnUse" x1="1199.5466" x2="1120.0472" y1="332.41699" y2="332.67651"><stop offset="0"/><stop offset="1" stop-color="#4d4d4d"/></linearGradient><linearGradient id="f" gradientUnits="userSpaceOnUse" x1="-693.8269" x2="-670.8267" xlink:href="#a" y1="1165.79072" y2="1142.34656"/><linearGradient id="g" gradientUnits="userSpaceOnUse" x1="-1191.2941" x2="-1177.0736" xlink:href="#a" y1="346.604526" y2="346.377536"/><linearGradient id="h" gradientUnits="userSpaceOnUse" x1="345.873224" x2="345.783874" xlink:href="#a" y1="1203.8129" y2="1165.1777"/><linearGradient id="i" gradientUnits="userSpaceOnUse" x1="-1168.77682" x2="-1129.58266" xlink:href="#a" y1="-696.618" y2="-655.2563"/><linearGradient id="j" gradientUnits="userSpaceOnUse" x1="11.23756" x2="93.277786" y1="48.334743" y2="48.334743"><stop offset="0"/><stop offset="1" stop-color="#808080"/></linearGradient><linearGradient id="k" gradientUnits="userSpaceOnUse" x1="1011.8751" x2="1022.389" y1="677.90155" y2="677.90155"><stop offset="0" stop-color="#464646"/><stop offset="1" stop-color="#404040"/></linearGradient><g filter="url(#b)" stroke-linecap="round" stroke-miterlimit="10" transform="translate(-.392582 -2.739233)"><circle cx="45.381359" cy="48.334743" fill="#fff" r="40.79224" stroke="#fff" stroke-opacity=".487437" stroke-width=".325698"/><circle cx="45.381359" cy="48.334743" fill="none" r="32.643799" stroke="url(#j)" stroke-width="3"/></g><g><g transform="matrix(-.43870169866 0 0 .36737090739 558.22751963189 -72.39965044586)"><g stroke-miterlimit="10" transform="matrix(.91849155 -.04088349 .02866942 .91849155 95.269582 54.832886)"><path d="m1213.6335 288.03625-92.5944 36.18456s-8.0242 8.93392-2.8931 21.42532l.063.30499.063.30498c4.9395 12.5585 16.4998 12.34665 16.4998 12.34665 37.098-28.13428 66.1489-38.4485 87.024-50.31774-.192-4.06467-1.8458-7.47907-2.8249-11.1936-1.3824-3.19489-2.9322-6.31529-5.3374-9.05516z" fill="url(#d)" stroke="url(#d)" stroke-width="2.653304"/><ellipse cx="1017.132" cy="677.90155" fill="#444" rx="3.753881" ry="3.661743" stroke="url(#k)" stroke-width="3.006102" transform="matrix(.95110508 -.30886749 .22204229 .97503704 0 0)"/></g><g stroke-linecap="square"><path d="m1188.053 314.76933-.1997 22.82133-37.6537 4.53206c-16.1431 26.71247-25.0217 28.93186-41.2475 19.47896 18.33-6.79184 27.9258-27.84095 38.5459-46.51534z" fill="url(#e)" stroke="#fff" stroke-width="1.831596"/><ellipse cx="-1207.3654" cy="214.17735" fill="url(#c)" rx="27.158773" ry="32.340363" stroke="#fff" stroke-linejoin="bevel" stroke-width="1.993242" transform="matrix(-.99442868 -.10541155 -.07412913 .99724865 0 0)"/><ellipse cx="1184.762" cy="340.7244" fill="#fff" rx="17.729818" ry="21.17234" stroke="#fff" stroke-width="2.057922"/><path d="m-684.76074 1132.5303h2.920022v41.437584h-2.920022z" fill="url(#f)" stroke="url(#f)" stroke-width="2.221077" transform="matrix(-.62961158 .77691007 .65434208 .75619868 0 0)"/><path d="m-1155.4326-703.56848h2.902706v41.684681h-2.902706z" fill="url(#i)" stroke="url(#i)" stroke-width="2.221074" transform="matrix(-.65516628 -.75548471 -.62877406 .77758805 0 0)"/><path d="m343.79016 1165.2843h3.156975v37.732437h-3.156975z" fill="url(#h)" stroke="url(#h)" stroke-width="2.20377" transform="matrix(.0023305 .99999728 .99999448 -.00332335 0 0)"/><path d="m-1184.9684 323.77573h2.643678v45.058598h-2.643678z" fill="url(#g)" stroke="url(#g)" stroke-width="2.203771" transform="matrix(-.99998924 .00463819 .00325253 .99999471 0 0)"/></g></g><g fill="#fff"><path d="m22.842257 27.955901.941505-1.248369 36.855235 13.600363c1.821114 2.168357 1.576891 3.648268 1.561961 5.204611-.471664-.266727-1.510984-4.153732-2.598166-4.522126-15.40737-5.220824-25.233439-10.000327-34.622707-12.695237-.739352-.212209-1.4081-.140033-2.137828-.339242z"/><path d="m50.980825 44.393132h3.193856l2.383475 3.622881c-1.016949-.699152-2.352926-2.17202-2.907839-2.71716-2.192706-.456565-3.846922-.08219-5.815678-1.096399z"/></g></g></svg>