<svg height="92" width="92" xmlns="http://www.w3.org/2000/svg" xmlns:xlink="http://www.w3.org/1999/xlink"><linearGradient id="a"><stop offset="0" stop-color="#c83737"/><stop offset="1" stop-color="#de8787"/></linearGradient><filter id="b" color-interpolation-filters="sRGB"><feFlood flood-color="#5b5d5a" result="flood"/><feComposite in="flood" in2="SourceGraphic" operator="in" result="composite1"/><feGaussianBlur in="composite1" result="blur" stdDeviation="0"/><feOffset dx="0" dy="4" result="offset"/><feComposite in="SourceGraphic" in2="offset" operator="over" result="composite2"/></filter><linearGradient id="c" gradientUnits="userSpaceOnUse" x1="43.748154" x2="103.16923" y1="47.572033" y2="47.572033"><stop offset="0" stop-color="#c83737"/><stop offset="1" stop-color="#e9afaf"/></linearGradient><linearGradient id="d" gradientUnits="userSpaceOnUse" x1="-34.31004" x2=".823352" y1="64.939568" y2="64.939568"><stop offset="0"/><stop offset="1" stop-color="#4d4d4d"/></linearGradient><linearGradient id="e" gradientUnits="userSpaceOnUse" x1="-25.710474" x2=".823352" xlink:href="#a" y1="64.939568" y2="64.939568"/><linearGradient id="f" gradientUnits="userSpaceOnUse" x1="-23.886318" x2="3.950468" xlink:href="#a" y1="64.939568" y2="64.939568"/><g><g filter="url(#b)" stroke-linecap="round" stroke-miterlimit="10" transform="translate(.618641 -2.334744)"><circle cx="45.381359" cy="48.334743" fill="#fff" r="40.79224" stroke="#fff" stroke-opacity=".487437" stroke-width=".325698"/><circle cx="45.381359" cy="48.334743" fill="none" r="32.643799" stroke="url(#c)" stroke-width="3"/></g><path d="m53.380882 55.673609c-.109046-1.025935.510246-3.474635 3.77523-3.606694 1.749162-3.263349 4.571668-3.176384 6.53924 0 1.89631.17075 3.401249.839608 3.337034 3.505572" fill="none" stroke="#fff" stroke-width=".6"/></g><g transform="translate(.003747 1.74569)"><g fill="url(#d)" stroke="url(#d)" stroke-linejoin="round" stroke-width="1.312941" transform="matrix(.73170801 0 0 .89061254 62.92896554486 -14.91894161942)"><path d="m-22.715841 41.496901c-6.709808 7.383569-10.663816 12.802391-14.029253 18.972935 9.833495-1.692893 19.278926-2.323037 27.646001 0-2.69856-4.464975-7.002481-10.253202-13.616748-18.972935z" fill="url(#e)" stroke="url(#e)"/><path d="m-26.817667 60.896469c1.31085 8.861829-3.645845 14.386908-11.545204 19.081976-5.236973 2.010186-7.708873 4.499726-7.614698 9.332185 12.369865 3.211336 31.696805 2.290793 45.67493078-.116941-.002369-3.821858-2.08387088-9.351048-7.28998228-9.958106-10.3223275-4.971535-10.9033515-10.063579-11.0201045-18.30082-3.173543-.438952-5.925438-.207767-8.204942-.03829z" fill="url(#f)" stroke="url(#f)"/></g><g fill="#fff"><path d="m37.364676 36.197364-1.389805 2.974841 2.603272-.615322c-.516847-.05328-1.134816.02931-1.651663-.18539-.03118-.693179.308827-1.521087.438196-2.174129z"/><path d="m42.066862 48.315182c-.970796 1.874384-4.188748 6.060346-7.208317 7.995683-3.889337 1.575798-5.791152 4.885757-5.571735 8.311361l.881332.37813c-.117629-2.366189.54481-4.864987 2.662886-6.640362 3.833557-2.202021 8.236266-5.603108 9.235834-10.044812z"/></g></g></svg>