<?xml version="1.0" encoding="utf-8"?>
<!-- Generator: Adobe Illustrator 24.0.2, SVG Export Plug-In . SVG Version: 6.00 Build 0)  -->
<svg version="1.1" id="Capa_1" xmlns="http://www.w3.org/2000/svg" xmlns:xlink="http://www.w3.org/1999/xlink" x="0px" y="0px"
	 viewBox="0 0 60 60" style="enable-background:new 0 0 60 60;" xml:space="preserve">
<style type="text/css">
	.st0{fill:#38372F;fill-opacity:0.9922;stroke:#393830;stroke-width:1.048;stroke-opacity:0.9922;enable-background:new    ;}
	.st1{fill:#EC5A5A;stroke:#EC5A5A;stroke-width:2.9069;stroke-miterlimit:10;}
	.st2{fill:#EC5A5A;stroke:#EC5A5A;stroke-width:3.2934;stroke-miterlimit:10;}
	.st3{fill:#EC5A5A;stroke:#EC5A5A;stroke-width:0.4914;stroke-linecap:square;}
	.st4{opacity:0.98;fill:#EC5A5A;enable-background:new    ;}
	.st5{fill:#EC5A5A;stroke:#38372F;stroke-width:0.449;stroke-linecap:square;stroke-linejoin:bevel;stroke-opacity:0.9882;}
	.st6{fill:#38372F;fill-opacity:0.9882;stroke:#38372F;stroke-width:0.4636;stroke-linecap:square;stroke-opacity:0.9882;}
	.st7{fill:#EC5A5A;stroke:#EC5A5A;stroke-width:0.4965;stroke-linecap:square;}
</style>
<path class="st0" d="M30,6.3L15.7,11L9,53.7h42L44.3,11L30,6.3z"/>
<g id="Capa_1_1_">
	<g id="Capa_5">
		<g transform="matrix(-.22736199 .07959256 .06665119 .19039403 269.58419 -123.49968)">
			<path class="st1" d="M1199.3,300.8l-97.3,37.5c0,0-8.5,9.8-2.8,23.8l0.1,0.4l0.1,0.4c5.4,14,17.9,14,17.9,14
				c39.6-30.7,68.8-40.5,91.2-53.3c-0.2-4.5-2.1-8.4-3.2-12.5C1203.7,307.4,1201.9,304,1199.3,300.8L1199.3,300.8z"/>
			<path class="st2" d="M1098.8,363.5c2.2,0.5,3.9,1,3.9,1S1101,364.1,1098.8,363.5c-2.2-0.5-3.9-1-3.9-1S1096.7,363,1098.8,363.5z"
				/>
		</g>
		<path class="st3" d="M25.3,34.3v5.5l11.1,1.1c4.7,6.6,5.5,6.7,11.3,6.3c-5.4-1.7-7.4-8.3-10.5-12.9C37.2,34.3,25.3,34.3,25.3,34.3
			z"/>
		<path class="st4" d="M24.2,13.7L22.8,19L20,17.4l1.7,2.8l-5.3,1.4l5.3,1.4L20,25.9l2.8-1.7l1.4,5.3l1.4-5.3l2.8,1.7L26.8,23
			l5.3-1.4l-5.3-1.4l1.7-2.8L25.6,19L24.2,13.7z M24.2,18.2l0.6,2.2l1.3-0.7L25.3,21l2.2,0.6l-2.2,0.6l0.7,1.3l-1.3-0.7L24.1,25
			l-0.6-2.2l-1.3,0.7l0.7-1.3l-2.2-0.6l2.2-0.6l-0.7-1.3l1.3,0.7L24.2,18.2z"/>
		<g>
			<circle class="st5" cx="29.3" cy="41" r="6.7"/>
			<circle class="st6" cx="29.3" cy="41" r="4.4"/>
			<path class="st7" d="M26.1,37.6L25.6,38l6.7,6.5l0.5-0.5L26.1,37.6z"/>
			<path class="st7" d="M32.8,37.9l-0.5-0.5L26,44.2l0.5,0.5L32.8,37.9z"/>
			<path class="st7" d="M24.7,40.7v0.7H34v-0.7H24.7z"/>
			<path class="st7" d="M29.5,36.4h-0.7v9.3h0.7V36.4z"/>
		</g>
	</g>
</g>
</svg>
