<?xml version="1.0" encoding="utf-8"?>
<!-- Generator: Adobe Illustrator 24.0.2, SVG Export Plug-In . SVG Version: 6.00 Build 0)  -->
<svg version="1.1" id="Capa_1" xmlns="http://www.w3.org/2000/svg" xmlns:xlink="http://www.w3.org/1999/xlink" x="0px" y="0px"
	 viewBox="0 0 60 60" style="enable-background:new 0 0 60 60;" xml:space="preserve">
<style type="text/css">
	.st0{fill:#38372F;fill-opacity:0.9922;stroke:#393830;stroke-width:0.9822;stroke-opacity:0.9922;enable-background:new    ;}
	.st1{fill:#B2B2B2;stroke:#B2B2B2;stroke-width:1.313;stroke-linejoin:round;}
</style>
<path class="st0" d="M30,8.7l-12.8,4.2l-6,38.3h37.7l-6-38.3L30,8.7z"/>
<g transform="matrix(.44607 0 0 .54295 40.302 -5.138)">
	<path class="st1" d="M-23.4,37.9c-2.1,9.1-4.3,14.4-13.4,20.6c8.9,3.1,18.7,2.9,26.8,0C-19,52.4-21.2,47-23.4,37.9z"/>
	<path class="st1" d="M-26.8,58.5c-0.1,8.8-0.4,15.8-11.5,21.4c-5.2,2.8-7,4.5-7.6,9.3c6.8,1.5,14.8,2.2,22.9,2.2
		c8,0,16.1-0.7,22.9-2.2c-0.7-4.9-2.4-6.5-7.6-9.3C-19,74.4-19.3,67.3-19.4,58.5c-1.2,0-2.5,0-3.7,0S-25.6,58.6-26.8,58.5z"/>
</g>
</svg>
