<?xml version="1.0" encoding="utf-8"?>
<!-- Generator: Adobe Illustrator 24.0.2, SVG Export Plug-In . SVG Version: 6.00 Build 0)  -->
<svg version="1.1" id="Capa_1" xmlns="http://www.w3.org/2000/svg" xmlns:xlink="http://www.w3.org/1999/xlink" x="0px" y="0px"
	 viewBox="0 0 60 60" style="enable-background:new 0 0 60 60;" xml:space="preserve">
<style type="text/css">
	.st0{fill:#38372F;fill-opacity:0.9922;stroke:#393830;stroke-width:1.048;stroke-opacity:0.9922;enable-background:new    ;}
	.st1{fill:none;stroke:#38372F;stroke-width:0.691;}
	.st2{fill:none;stroke:#FFFFFF;stroke-width:0.691;}
	.st3{fill:#B2B2B2;stroke:#B2B2B2;stroke-width:0.635;stroke-linecap:round;stroke-linejoin:round;}
	.st4{fill:#B2B2B2;stroke:#B2B2B2;stroke-width:0.691;stroke-linecap:round;stroke-linejoin:round;}
	.st5{fill:#B2B2B2;stroke:#B2B2B2;stroke-width:0.565;stroke-linejoin:round;}
	.st6{fill:#B2B2B2;stroke:#B2B2B2;stroke-width:0.565;}
	.st7{fill:#B2B2B2;stroke:#B2B2B2;stroke-width:0.754;}
	.st8{fill:#B2B2B2;stroke:#B2B2B2;stroke-width:0.691;stroke-linejoin:round;}
	.st9{fill:#B2B2B2;stroke:#B2B2B2;stroke-width:0.565;stroke-linecap:round;stroke-linejoin:round;}
	.st10{fill:#B2B2B2;stroke:#B2B2B2;stroke-width:0.691;}
	.st11{fill:none;stroke:#38372F;stroke-width:1.005;}
	.st12{fill:none;stroke:#B2B2B2;stroke-width:0.691;}
	.st13{fill:#FFFFFF;stroke:#38372F;stroke-width:0.88;}
	.st14{fill:#FFFFFF;stroke:#38372F;stroke-width:0.691;}
	.st15{fill:none;stroke:#38372F;stroke-width:0.691;stroke-linejoin:bevel;}
	.st16{fill:none;stroke:#38372F;stroke-linejoin:bevel;}
	.st17{fill:#FFFFFF;stroke:#38372F;stroke-width:1.131;}
</style>
<path class="st0" d="M30,6.3L15.7,11L9,53.7h42L44.3,11L30,6.3z"/>
<path class="st1" d="M20.7,44.1L20.4,41"/>
<path class="st2" d="M24.2,41.2h11.3"/>
<path class="st3" d="M34.9,40.5c0-0.1,0-0.1,0-0.2c0-0.2-0.1-0.4-0.2-0.6c-0.1-0.2-0.1-0.4-0.2-0.6c-0.1-0.2-0.2-0.4-0.3-0.5
	c-0.1-0.2-0.2-0.4-0.3-0.5c-0.1-0.2-0.2-0.3-0.3-0.5c-0.1-0.2-0.2-0.3-0.4-0.4c-0.1-0.1-0.3-0.3-0.4-0.4c-0.1-0.1-0.3-0.2-0.4-0.3
	c-0.1-0.1-0.3-0.2-0.5-0.3c-0.2-0.1-0.3-0.2-0.5-0.2c-0.2-0.1-0.3-0.1-0.5-0.2c-0.2,0-0.3-0.1-0.5-0.1c-0.2,0-0.3,0-0.5,0
	c-0.1,0-0.2,0-0.4,0c-0.2,0-0.3,0-0.5,0.1c-0.2,0-0.3,0.1-0.5,0.1c-0.2,0.1-0.3,0.1-0.5,0.2c-0.2,0.1-0.3,0.2-0.5,0.3
	c-0.2,0.1-0.3,0.2-0.4,0.3c-0.1,0.1-0.3,0.2-0.4,0.4c-0.1,0.1-0.3,0.3-0.4,0.4c-0.1,0.1-0.2,0.3-0.3,0.5c-0.1,0.2-0.2,0.3-0.3,0.5
	c-0.1,0.2-0.2,0.4-0.3,0.5c-0.1,0.2-0.2,0.4-0.2,0.6c-0.1,0.2-0.1,0.4-0.2,0.6c0,0.1,0,0.2-0.1,0.3L34.9,40.5z"/>
<path class="st4" d="M18.3,23.7v17.6H21c0-0.1,0-0.2,0-0.3c0.1-0.3,0.1-0.6,0.2-0.9c0.1-0.3,0.2-0.6,0.3-0.9
	c0.1-0.3,0.3-0.6,0.4-0.8c0.1-0.3,0.3-0.5,0.5-0.8c0.2-0.3,0.4-0.5,0.6-0.7c0.2-0.2,0.4-0.5,0.6-0.7c0.2-0.2,0.5-0.4,0.7-0.6
	c0.2-0.2,0.5-0.4,0.8-0.5c0.3-0.2,0.5-0.3,0.8-0.5c0.3-0.1,0.6-0.3,0.8-0.4c0.3-0.1,0.6-0.2,0.9-0.3c0.3-0.1,0.6-0.2,0.9-0.2
	c0.3-0.1,0.6-0.1,0.9-0.1c0.2,0,0.4,0,0.7,0c0.3,0,0.6,0,0.9,0c0.3,0,0.6,0.1,0.9,0.1c0.3,0.1,0.6,0.1,0.9,0.2
	c0.3,0.1,0.6,0.2,0.9,0.3c0.3,0.1,0.6,0.3,0.8,0.4c0.3,0.1,0.5,0.3,0.8,0.5c0.3,0.2,0.5,0.4,0.7,0.6c0.2,0.2,0.5,0.4,0.7,0.6
	c0.2,0.2,0.4,0.5,0.6,0.7c0.2,0.2,0.4,0.5,0.5,0.8c0.2,0.3,0.3,0.5,0.5,0.8c0.1,0.3,0.3,0.6,0.4,0.8c0.1,0.3,0.2,0.6,0.3,0.9
	c0.1,0.3,0.1,0.6,0.2,0.9c0,0,0,0,0,0h2.5V23.7L18.3,23.7z"/>
<path class="st5" d="M40.6,42.4h2.8l-0.6-1.1l-0.5,0l-1.7,0c0,0.3,0.1,0.6,0.1,0.9L40.6,42.4z M19.5,41.3l-1.7,0l-0.6,0l-0.6,1.2
	h2.8c0-0.2,0-0.4,0-0.6C19.4,41.7,19.4,41.5,19.5,41.3z"/>
<path class="st6" d="M40.5,44.3l2.8,0l0-1.6l-2.7,0c0,0.1,0,0.2,0,0.3c0,0.3,0,0.5,0,0.8C40.6,44,40.6,44.1,40.5,44.3z M19.5,42.6
	l-2.9,0l0,1.7l3,0c0-0.2-0.1-0.5-0.1-0.8c0-0.2,0-0.4,0-0.6C19.5,42.8,19.5,42.7,19.5,42.6z"/>
<path class="st7" d="M25,41.1c0,0.2,0,0.4,0,0.6c0,0.2,0,0.5,0,0.7c0,0.3,0,0.7,0.1,1c0,0.2,0,0.4,0.1,0.7l9.8-0.1
	c0-0.1,0-0.2,0-0.3c0-0.3,0.1-0.7,0.1-1c0-0.3,0-0.7,0-1c0-0.2,0-0.4,0-0.6L25,41.1z"/>
<path class="st8" d="M18.3,23.7c-1.8-1.4-2-2.1-2.6-3.7c9.7,1,19.5,1.1,28.6,0c-0.7,2.2-0.8,2.5-2.6,3.7H18.3z"/>
<path class="st9" d="M30,32.9c-5.1,0-9.2,4.1-9.2,9.2c0,5.1,4.1,9.2,9.2,9.2l0,0c5.1,0,9.2-4.1,9.2-9.2c0,0,0,0,0,0
	C39.2,37,35.1,32.9,30,32.9z M30,35.8c3.4,0,6.1,2.8,6.1,6.3l0,0c0,3.5-2.7,6.3-6.1,6.3c0,0,0,0,0,0c-3.4,0-6.1-2.8-6.1-6.3
	C23.9,38.6,26.6,35.8,30,35.8L30,35.8z"/>
<path class="st10" d="M30.1,42.6v6.5"/>
<path class="st11" d="M17.2,24.5h25.7"/>
<path class="st12" d="M25.6,47l4.4-4.4l4.6,4.6"/>
<g>
	<path class="st13" d="M15.9,42.7h4"/>
	<path class="st14" d="M24.7,42.7h10.7"/>
	<path class="st13" d="M40.2,42.7h3.9"/>
	<path class="st1" d="M30,44.6v-8.7"/>
	<path class="st14" d="M31.7,44.3l-6-6.3"/>
	<path class="st1" d="M28.2,44.3l6.1-6.2"/>
	<path class="st15" d="M34.8,44.8c1.5-2.4,1.1-5.5-1-7.4c-2.1-1.9-5.3-1.8-7.5,0c-2.1,1.9-2.5,5-1,7.4"/>
	<path class="st1" d="M24.7,41.1h10.6"/>
	<path class="st16" d="M39.7,44.7c1-4-0.6-8.2-4-10.6c-3.4-2.3-7.9-2.3-11.3,0c-3.4,2.4-5,6.6-4,10.6"/>
	<path class="st17" d="M16.5,40.4h3.7 M39.8,40.4h3.6"/>
</g>
</svg>
