<?xml version="1.0" encoding="utf-8"?>
<!-- Generator: Adobe Illustrator 24.0.2, SVG Export Plug-In . SVG Version: 6.00 Build 0)  -->
<svg version="1.1" id="Capa_1" xmlns="http://www.w3.org/2000/svg" xmlns:xlink="http://www.w3.org/1999/xlink" x="0px" y="0px"
	 viewBox="0 0 60 60" style="enable-background:new 0 0 60 60;" xml:space="preserve">
<style type="text/css">
	.st0{fill:#38372F;fill-opacity:0.9922;stroke:#393830;stroke-width:1.048;stroke-opacity:0.9922;}
	.st1{fill:#B2B2B2;stroke:#B2B2B2;stroke-width:1.05;}
	.st2{fill:#B2B2B2;stroke:#B2B2B2;stroke-width:0.654;}
	.st3{fill:none;stroke:#B2B2B2;stroke-width:0.654;}
	.st4{fill:none;stroke:#38372F;stroke-miterlimit:10;stroke-opacity:0.9922;}
	.st5{fill:none;stroke:#38372F;stroke-width:1.05;}
</style>
<path class="st0" d="M30,53.7L44.3,49L51,6.3H9L15.7,49L30,53.7z"/>
<g>
	<g>
		<path class="st1" d="M17.8,32.3l2.9-0.3"/>
		<path class="st2" d="M12.9,18.3c7.3,0.5,14.2,0.1,24.1,0 M36.3,23.6c-4.3,7.1-10.9,4.8-15.5,4.7C17,26,16.4,25.8,15,24.1
			c-1.5-2-1.9-3.4-2-5.9c7.4-2.7,14.9-3.2,23.8-0.5C36.9,20,36.5,21.8,36.3,23.6z"/>
		<g>
			<path class="st3" d="M36.2,31.7c1.1-5.2,1.3-9.9,1.8-15.1c0.8-3.9,6.1-7.9,9.1-7.1c-1.2,6.9-0.9,17-4.7,29.4
				c-2.7,1.4-4.8,1.3-7.4,0.7c-2.8-1.4-4.2-4.5-5.3-7.3l0.3-3.7c1.7-0.7,2.6-1.4,3.9-2.1L36.2,31.7z"/>
			<path class="st3" d="M33.8,26.7c1.6,3.3,2,5,4,8.2c1.3,1.6,2.9,3.4,4.6,3.9"/>
		</g>
		<path class="st2" d="M21.1,28.3l-1.7,13.4c-0.6,3.6,0.2,5.6,3.2,5c2.8-0.8,4.5-3.4,6-6.7L30,28.5C25.1,29,23.5,28.7,21.1,28.3
			L21.1,28.3z"/>
	</g>
	<path class="st4" d="M13.4,22.2c0.2-0.1,0.3-0.1,0.7,0.1c5.4,1.7,10.4,3.6,22,1c0.1,0,0.4-0.1,0.6-0.1"/>
	<path class="st1" d="M26.2,31.6l6.2-0.4"/>
</g>
<path class="st5" d="M12.6,18.6c0.2,0,0.7,0.1,0.8,0.1c7.3,1.8,14.5,2.2,22.9-0.5c0.2-0.1,0.6-0.1,0.8-0.1 M20.7,29.2
	c4.2,0.5,6.2,0.5,9.1,0.2c0.4,0,0.5-0.1,0.6-0.1"/>
</svg>
