<?xml version="1.0" encoding="utf-8"?>
<!-- Generator: Adobe Illustrator 24.0.2, SVG Export Plug-In . SVG Version: 6.00 Build 0)  -->
<svg version="1.1" id="Capa_1" xmlns="http://www.w3.org/2000/svg" xmlns:xlink="http://www.w3.org/1999/xlink" x="0px" y="0px"
	 viewBox="0 0 60 60" style="enable-background:new 0 0 60 60;" xml:space="preserve">
<style type="text/css">
	.st0{fill:#38372F;fill-opacity:0.9922;stroke:#393830;stroke-width:1.048;stroke-opacity:0.9922;enable-background:new    ;}
	.st1{fill:#38372F;stroke:#B2B2B2;stroke-width:0.604;}
	.st2{fill:#B2B2B2;stroke:#B2B2B2;stroke-width:0.604;}
	.st3{fill:none;stroke:#38372F;stroke-width:1.2;}
	.st4{fill:none;stroke:#38372F;stroke-width:0.7;}
	.st5{fill:none;stroke:#38372F;}
	.st6{fill:none;stroke:#38372F;stroke-width:0.998;}
</style>
<path class="st0" d="M30,6.3L15.7,11L9,53.7h42L44.3,11L30,6.3z"/>
<g>
	<path class="st1" d="M19.1,14.7c4.3,5,1.9,9.5,3.2,11.6c1.7,3.5,4.3,4.2,7.8,4.2c0.1,0,0.1,0,0.2,0c0.1,0,0.1,0,0.2,0
		c3.5,0,6-0.7,7.8-4.2c1.2-2.1-1.1-6.6,3.2-11.6c-0.7-0.4-2.6,1.8-3.8,1.8c-1.5-1.1-2.8,0.2-3.1,1.2c2.3-0.8,4.2,8.5-2.7,9.7
		c-0.4,0.1-1,0.2-1.5,0.2c-0.5,0-1.1-0.1-1.5-0.2c-7-1.2-5-10.5-2.7-9.7c-0.3-1-1.6-2.2-3.1-1.2C21.6,16.5,19.8,14.3,19.1,14.7z"/>
	<path class="st2" d="M22.2,26.7c-1.7-1.7-2.1-1.6-4.4-1.3l-2.1,3.7c3.7-0.5,7.4,0.2,6.9,7.5c0.5-1.9,1.7-4.4,2.4-7.1 M38.2,26.7
		c1.7-1.7,2.1-1.6,4.4-1.3l2.1,3.7c-3.7-0.5-7.4,0.2-6.9,7.5c-0.5-1.9-1.7-4.4-2.4-7.1"/>
	<path class="st2" d="M21.8,30l-2.2,5.6c-0.2-0.1,0.4,0.7-0.4,0.1c-0.8,1.6-1.1,2.1-2,3.8c1.3,1.2,1.5,1.3,2.8,1.8
		c0.8-1.8,1.5-3,2.7-5.9 M38.8,31.1l1.8,4.5c0.2-0.1-0.4,0.7,0.4,0.1c0.8,1.6,1.1,2.1,2,3.8c-1.3,1.2-1.5,1.3-2.8,1.8
		c-0.8-1.8-1.5-3-2.7-5.9"/>
	<path class="st2" d="M20.8,39.6c6.5,2.7,12.7,2.8,18.7,0L36,29.4c-4.9,2.1-7.7,1.8-11.8,0.4L20.8,39.6z"/>
</g>
<path class="st2" d="M25.3,25.1c3-2.5,7.3-2.1,9.7,0.1C32.9,28.1,26.7,27.2,25.3,25.1z"/>
<ellipse class="st1" cx="30.2" cy="24" rx="3.5" ry="3.3"/>
<path class="st2" d="M26.3,41.3L25,46.7l-0.8-0.3l-0.9,2.7c4.4,1.8,9.8,1.7,13.4,0l-0.9-2.7l-0.7,0.3l-1.2-5"/>
<path class="st3" d="M24,32.2c4.2,1.4,7.5,1.8,12.1,0"/>
<path class="st4" d="M20.6,31.5c0.3,0.1,0.4,0.3,0.4,0.4c1.7,2.8,1.3,2.9,1.7,4.2 M39.6,31.7c-0.3,0.1-0.4,0.3-0.4,0.4
	c-1.7,2.8-1.4,2.8-1.7,4.2"/>
<path class="st5" d="M21.4,40.5l3.6-10.9 M34.9,29.7l4,10.8"/>
<path class="st6" d="M18.8,35.3c0.2,0.1,0.4,0.3,0.5,0.5l2.7,2.5 M41.4,35.3c-0.2,0.1-0.4,0.3-0.5,0.5l-2.7,2.5"/>
<path class="st6" d="M25.6,42.1c0.1,0,0.1,0,0.2,0.1c2.7,0.7,5.9,0.7,8.5,0.1c0,0,0,0,0.2,0 M24.8,45.7c0.1,0,0.1,0,0.2,0.1
	c2.9,1,7.7,0.8,10.2,0c0.1,0,0,0,0.2-0.1"/>
</svg>
