<?xml version="1.0" encoding="utf-8"?>
<!-- Generator: Adobe Illustrator 24.0.2, SVG Export Plug-In . SVG Version: 6.00 Build 0)  -->
<svg version="1.1" id="Capa_1" xmlns="http://www.w3.org/2000/svg" xmlns:xlink="http://www.w3.org/1999/xlink" x="0px" y="0px"
	 viewBox="0 0 60 60" style="enable-background:new 0 0 60 60;" xml:space="preserve">
<style type="text/css">
	.st0{fill:#38372F;fill-opacity:0.9922;stroke:#393830;stroke-width:1.048;stroke-opacity:0.9922;enable-background:new    ;}
	.st1{fill:#EC5A5A;stroke:#EC5A5A;stroke-width:0.626;stroke-linecap:square;}
	.st2{fill:#38372F;stroke:#EC5A5A;stroke-width:0.626;stroke-linecap:square;}
	.st3{fill:none;stroke:#38372F;stroke-width:0.889;}
</style>
<path class="st0" d="M30,6.3L15.7,11L9,53.7h42L44.3,11L30,6.3z"/>
<g>
	<g>
		<path class="st1" d="M28.9,27.4c0.2-4.7-0.2-8.8-2.4-10.5c1.6-0.7,2.5-2.4,3.4-3.6c0.9,1.3,1.8,2.9,3.4,3.6
			c-2.1,1.7-2.5,5.9-2.4,10.5c-0.3,0.1-0.7,0.2-1.1,0.2C29.6,27.6,29.3,27.6,28.9,27.4L28.9,27.4z"/>
		<path class="st1" d="M23.5,28.9l-3.3,6.9l-0.5-0.5l-2.4,4.2L16.7,39l-2.2,3.2c0.9,1.5,2.5,3,4.2,3.4c0.8-1.9,4.6-12.8,5.8-15.8
			 M36.5,28.9l3.3,6.9l0.5-0.5l2.4,4.2l0.5-0.5l2.2,3.2c-0.9,1.5-2.5,3-4.2,3.4c-0.8-1.9-4.6-12.8-5.8-15.8"/>
		<path class="st1" d="M20.6,40.1c6.6,2.7,12.9,2.8,19,0L36,30c-3.6,1.4-8.2,1.7-11.8-0.1L20.6,40.1z"/>
	</g>
</g>
<g>
	<path class="st1" d="M24.2,25.7c5.2-4.7,7.1-4.3,12.1,0.1c-2.5,1-2.7,0.9-6,1.5C27.4,26.7,27.9,27.2,24.2,25.7z"/>
	<ellipse class="st2" cx="30" cy="23.5" rx="3.8" ry="3.9"/>
	<path class="st1" d="M25.7,42.1l-1.4,4.6l-0.6-0.1l-0.9,2.8c4.5,1.9,10.4,1.8,14.1,0l-0.9-2.8l-0.6,0.1l-1.3-4.6"/>
</g>
<path class="st3" d="M24,32.3c3.8,1.9,8.4,2,12.1,0"/>
<path class="st3" d="M20.2,34.7c0.2,0.1,0.3,0.2,0.3,0.2l2,1.6 M39.8,34.7c-1.4,0.7-1.7,0.9-2.6,1.3 M17.4,38.4l3.8,2.4 M42.7,38.4
	l-3.8,2.4 M20.9,40.7l4-10.8 M35.3,29.9l3.8,10.9"/>
<path class="st3" d="M25.1,42.5c2.8,0.7,7,0.6,9.7,0 M24.1,45.8c2.9,0.6,9,0.6,11.7,0"/>
<path class="st2" d="M19.3,15c-0.2,8.7,1.2,16.1,10.8,15.8c9.6,0.4,11-7,10.8-15.8c-0.7,9.5-3.1,12-10.8,12.6
	C22.4,27,19.9,24.5,19.3,15z"/>
</svg>
