<?xml version="1.0" encoding="utf-8"?>
<!-- Generator: Adobe Illustrator 24.0.2, SVG Export Plug-In . SVG Version: 6.00 Build 0)  -->
<svg version="1.1" id="Capa_1" xmlns="http://www.w3.org/2000/svg" xmlns:xlink="http://www.w3.org/1999/xlink" x="0px" y="0px"
	 viewBox="0 0 60 60" style="enable-background:new 0 0 60 60;" xml:space="preserve">
<style type="text/css">
	.st0{fill:#38372F;fill-opacity:0.9922;stroke:#393830;stroke-width:1.048;stroke-opacity:0.9922;}
	.st1{fill:#EC5A5A;}
</style>
<path class="st0" d="M30,53.7L44.3,49L51,6.3H9L15.7,49L30,53.7z"/>
<path class="st1" d="M39.8,46.5c0.1,0,0.2,0,0.3,0s0.1,0,0.2-0.1c-0.5-0.6-4.5-3.4-2.3-4.2c0,0,0,0,0.1,0c0.9,0,1.8,0.9,1.8,1
	c0.1,0.1,0.4,0.2,0.8,0.1c1,0,2.5-0.9,0.9-1.2c-1.4-0.5-2.6-0.8-3.5-1.4l0,0c-0.6-0.6-1.9-1.8-2.5-2.4l-1.1-1
	c-0.3-0.3-0.9-0.7-1.5-1.1c-0.3-0.2-0.6-0.3-0.9-0.4c-0.3-0.1-0.4-0.1-0.6,0c0,0.1,0,0.3,0,0.4c0.1,0.3,0.3,0.8,0.6,1.2
	c0.3,0.4,0.5,0.9,0.8,1.2c0.1,0.1,0.2,0.3,0.2,0.4c0,0,4.3,1.1,2.9,2.8C33.7,44.7,38.2,46.4,39.8,46.5L39.8,46.5z M20.2,46.5
	L20.2,46.5c1.5-0.1,6.1-1.8,3.8-4.6c-1.4-1.7,2.9-2.8,2.9-2.8c0.1-0.1,0.1-0.2,0.2-0.4c0.2-0.3,0.5-0.7,0.8-1.2
	c0.3-0.4,0.5-0.9,0.6-1.2c0-0.1,0.1-0.3,0-0.4c-0.1,0-0.3,0-0.6,0c-0.3,0.1-0.6,0.2-0.9,0.4c-0.6,0.3-1.2,0.8-1.5,1.1l-1.1,1
	c-0.6,0.6-1.9,1.7-2.5,2.4l0,0c-0.9,0.6-2,0.9-3.5,1.4c-1.6,0.3-0.1,1.2,0.9,1.2c0.3,0,0.7,0,0.8-0.1c0.1-0.1,1-1,1.8-1
	c0,0,0,0,0.1,0c2.2,0.8-1.8,3.6-2.3,4.2c0.1,0,0.1,0,0.2,0.1C20,46.5,20.1,46.5,20.2,46.5L20.2,46.5z M40.1,38.5
	c0.7-1.6,1-2.4-1-4.8c1.3,0.3,2.8,3,3.4,3.5c1-2.6-0.3-3.8-1.9-4.6c1.6-0.3,2.5,0.4,4.1,0.9c-0.9-1.6-2-4.1-4.6-2.9
	c1-1.4,2.7-2,4.2-2.9c-1.5-0.3-3.1-1-4.4,0.3c0.7-1.2,1.8-2.3,2.8-3.3c-0.4,0.1-0.9,0.1-1.3,0.2c-0.7,0.8-1.5,1.3-2.3,1.6
	c0,0.4-0.1,0.9-0.2,1.2c-0.1,0.2-0.1,0.3-0.1,0.4c0.2,0,0.4,0.1,0.6,0.2c0.2,0.1,0.4,0.3,0.5,0.6c0.1,0.3,0.1,0.6,0,0.9l-0.5,1.8
	c-0.1,0.5-0.6,0.8-1.1,1c-0.4,0.2-0.7,0.3-1.1,0.5c0.1,0.4,0.1,0.8,0.1,1.2L40.1,38.5z M19.9,38.5l2.8-4.1c0-0.4,0.1-0.8,0.1-1.2
	c-0.3-0.1-0.7-0.3-1.1-0.5c-0.5-0.2-0.9-0.5-1.1-1l-0.5-1.8c-0.1-0.3-0.1-0.6,0-0.9s0.3-0.4,0.5-0.6c0.2-0.1,0.4-0.2,0.6-0.2
	c-0.1-0.1-0.1-0.2-0.1-0.4c-0.1-0.4-0.2-0.8-0.2-1.2c-0.8-0.4-1.6-0.9-2.3-1.6c-0.4-0.1-0.9-0.2-1.3-0.2c1.1,1,2.2,2.1,2.8,3.3
	c-1.3-1.3-2.9-0.6-4.4-0.3c1.5,0.9,3.2,1.5,4.2,2.9c-2.7-1.1-3.7,1.3-4.6,2.9c1.6-0.5,2.5-1.2,4.1-0.9c-1.6,0.8-2.9,2-1.9,4.6
	c0.6-0.5,2.1-3.2,3.4-3.5C18.9,36.1,19.2,37,19.9,38.5L19.9,38.5z M28.6,38.2c0.3,0,0.5,0,0.5,0l0,0l0.9-0.1l0.9,0.1l0,0
	c0.2,0,0.3,0,0.5,0c0-0.1-0.1-0.1-0.1-0.1c-0.3-0.5-0.5-0.9-0.7-1.5c-0.1-0.3-0.1-0.4-0.1-0.8l0,0c0-0.1,0-0.1,0-0.1l0,0
	c0.2-1,1-1,1.8-0.8l0,0c0.4,0.1,0.8,0.3,1.1,0.5c0.7,0.4,1.3,0.9,1.7,1.2l0,0l1.1,1l0.1,0.1v-0.1l0,0c0.5-1.3,0.3-3,0.1-4.7v-0.3
	l0.3-0.1c0.4-0.2,0.9-0.3,1.3-0.6c0.4-0.2,0.6-0.5,0.7-0.5l0.3-1.7c0.1-0.2,0-0.3,0-0.4c0-0.1-0.1-0.1-0.1-0.1
	c-0.1-0.1-0.4-0.1-0.6-0.2c-0.4,0-0.8,0-1.3,0c-0.6-0.1-1.2-0.2-1.6-0.7v-0.1v-0.1c-0.2-0.4-0.3-0.8-0.4-1.3h0.7
	c0.3,0,3.7,0.1,5.7-2.6c0.8-1,1.5-1.8,2.3-2.1c0.4-0.2,0.5-0.3,0.8-0.4c0.2,0,0.5,0.1,0.8,0.2L45,21.2c-0.9-0.3-1.7-0.2-2.4,0.3
	c-0.7,0.5-1.4,1.3-2.1,2.1c-0.9,1.1-2.3,1.7-3.4,1.9c-1,0.2-1.6,0.2-1.8,0.2h-0.7c0-0.1-0.1-0.2-0.2-0.3c-0.1-0.1-0.2-0.2-0.3-0.3
	c-1.4,0.3-2.8,0.5-4.2,0.6l0,0l0,0c-1.1-0.1-2.7-0.3-4.2-0.6c-0.1,0-0.2,0.1-0.3,0.3c-0.1,0.1-0.1,0.2-0.2,0.3h-0.7
	c-0.2,0-0.8,0-1.8-0.2c-1.2-0.3-2.6-0.8-3.4-1.9c-0.7-0.9-1.3-1.7-2.1-2.1c-0.7-0.5-1.5-0.6-2.4-0.3l-0.3,0.7
	c0.3-0.1,0.6-0.2,0.8-0.2c0.3,0,0.5,0.2,0.8,0.4c0.8,0.4,1.6,1.1,2.3,2.1c2,2.7,5.4,2.6,5.7,2.6H25c-0.1,0.4-0.2,0.8-0.4,1.3v0.1
	l0,0c-0.4,0.5-1.1,0.7-1.7,0.8c-0.5,0.1-1.1,0.1-1.5,0.1c-0.1,0-0.2,0.1-0.3,0.1S21,29.3,21,29.3c0,0.1,0,0.2,0,0.4l0.5,1.8
	c0,0,0.3,0.3,0.7,0.5s0.9,0.4,1.3,0.6l0.3,0.1V33c-0.2,1.7-0.4,3.4,0.1,4.7l0,0l0,0l1.1-1l0,0c0.3-0.3,1-0.8,1.7-1.2
	c0.4-0.2,0.7-0.4,1.1-0.5l0,0c0.8-0.2,1.7-0.2,1.8,0.8l0,0c0,0,0,0,0,0.1l0,0c0.1,0.4,0,0.5-0.1,0.8c-0.2,0.5-0.4,1-0.7,1.5
	C28.7,38.1,28.6,38.2,28.6,38.2z M34.1,34.7c-0.7-0.1-1-1-3-2.5c0.5-0.9,1.3-1.3,2.6-1c1.3,0.5,2.5,1.2,1.7,2.8
	c-0.3,0.5-0.6,0.7-1,0.8C34.3,34.7,34.1,34.6,34.1,34.7L34.1,34.7z M25.9,34.7c-0.1,0-0.2,0-0.3,0c-0.4-0.1-0.7-0.3-1-0.8
	c-0.8-1.6,0.5-2.3,1.7-2.8c1.3-0.2,2.1,0.2,2.6,1C26.8,33.7,26.5,34.6,25.9,34.7z M32,28.5c-0.7-0.1-1-1.1-1.4-1.7l0.8,0.6l1,0.1
	C32.4,28,32.9,28.4,32,28.5z M28,28.5c-0.8-0.1-0.4-0.5-0.5-0.9l1-0.1l0.8-0.6C28.9,27.4,28.7,28.4,28,28.5z M22.1,28.2
	c0.3,0,0.5,0,0.8,0c0.5-0.1,0.9-0.2,1.1-0.5c0-0.1,0.1-0.2,0.1-0.3c-0.8,0-1.6-0.2-2.3-0.4c0,0.2,0.1,0.4,0.1,0.7
	C22,28,22,28.1,22.1,28.2z M38,28.1c0-0.1,0.1-0.2,0.2-0.5c0.1-0.2,0.1-0.4,0.1-0.7c-0.7,0.2-1.5,0.4-2.3,0.4c0,0.1,0.1,0.2,0.1,0.3
	c0.2,0.3,0.6,0.4,1,0.4C37.4,28.2,37.7,28.2,38,28.1z M35.3,25.4c0.6,0,1.2-0.1,1.8-0.2c0.2-0.1,0.5-0.1,0.7-0.2
	c-0.1-0.2-0.2-0.4-0.4-0.6c0,0-0.3-0.2-0.6-0.3s-0.5-0.2-0.5-0.2l-0.2-0.1v-0.3c-0.6-3.6-1.3-5-2.2-7.7c-0.1-0.2-0.2-0.3-0.4-0.5
	l-0.6-7.7l-0.8,5.8L31,8.3l-1,5l-1-5l-1.1,5.2l-0.8-5.9l-0.6,7.7c-0.1,0.1-0.3,0.3-0.4,0.5c-0.9,2.7-1.7,4.1-2.2,7.7v0.3l-0.2,0.1
	c0,0-0.2,0.1-0.5,0.2s-0.6,0.3-0.6,0.3c-0.1,0.2-0.2,0.4-0.4,0.6c0.2,0.1,0.4,0.1,0.7,0.2c0.6,0.1,1.2,0.2,1.8,0.2
	c0-0.1,0.1-0.2,0.1-0.2c0.2-0.3,0.4-0.5,0.8-0.6c0-3.9,0-3.5,1-7.3v-0.2l0.2-0.1c0.9-0.6,2.1-0.9,3.2-0.9c1.2,0,2.3,0.3,3.2,0.9
	l0.1,0.1v0.1c1,3.7,1.1,3.3,1,7.2l0,0c0.3,0.1,0.6,0.3,0.8,0.6C35.3,25.2,35.3,25.3,35.3,25.4z M30,25.2c0.9-0.1,2.2-0.2,3.5-0.5
	l-0.6-3.1l-0.8,1.6L31,22l-1,1.1L29,22l-1.1,1.2l-0.8-1.6l-0.6,3.2C27.7,24.9,28.8,25,30,25.2z M30,19.9l1-1l0.9,0.9l0.4-2.3
	c-0.7-0.4-1.5-0.6-2.4-0.6s-1.7,0.2-2.4,0.5l0.4,2.3l1.1-0.8L30,19.9z"/>
</svg>
