<?xml version="1.0" encoding="utf-8"?>
<!-- Generator: Adobe Illustrator 24.0.2, SVG Export Plug-In . SVG Version: 6.00 Build 0)  -->
<svg version="1.1" id="Capa_1" xmlns="http://www.w3.org/2000/svg" xmlns:xlink="http://www.w3.org/1999/xlink" x="0px" y="0px"
	 viewBox="0 0 60 60" style="enable-background:new 0 0 60 60;" xml:space="preserve">
<style type="text/css">
	.st0{fill:#38372F;fill-opacity:0.9922;stroke:#393830;stroke-width:1.048;stroke-opacity:0.9922;}
	.st1{fill:#EC5A5A;stroke:#EC5A5A;stroke-width:1.316;stroke-linejoin:round;}
	.st2{fill:#38372F;stroke:#38372F;stroke-width:1.316;}
	.st3{fill:#38372F;stroke:#EC5A5A;stroke-width:0.877;}
	.st4{fill:#EC5A5A;stroke:#EC5A5A;stroke-width:1.316;}
	.st5{fill:#EC5A5A;stroke:#EC5A5A;stroke-width:0.877;}
	.st6{fill:none;stroke:#38372F;stroke-width:1.05;}
	.st7{fill:none;stroke:#38372F;stroke-width:0.877;}
</style>
<path class="st0" d="M30,53.7L44.3,49L51,6.3H9L15.7,49L30,53.7z"/>
<g>
	<g>
		<path class="st1" d="M27.3,38.3c-3.9-0.3-2.2-0.8-5.2-2l-4-2.1l0.5-3c-0.4-3.8-2.1-6.3-4.1-9.3l-1-0.7c1.6-0.7,2.1-1.2,2.2-1.6
			c0.5-0.9,1.5-1,2.4-1.3l-0.7,3.5l4.2,5c-0.5-3,1.1-3.5,0.6-6.5l-1.4-3.5l1.2-0.4l1.6,2.5c0.1,2.9,0.7,5.3,1.3,8.2
			c2.5-0.5,3.1-2.1,5.6,1.5c-1.2-2.7,0.2-5.1-0.8-7.9c-4.7-4-5-7-6.5-10.1c8.6-2.8,17.7,1.8,24.2-0.6c-0.7,1-2.8,4.5-7,6.3
			c2.2,0.6,2,1.9,6.4,0.7c-1,1.5-6.1,7.3-7.5,5.8c2.2,0.2,4,1.5,6.7,0.4c-3.1,3.8-5.3,3.4-7.8,4.5l3.2,0.2l3.2,0.2
			c-2,3.4-5.7,4-9.2,5.1c1.8,0.6,4.5,0.4,7.1,0.2c-3.2,2.6-7.1,4-11.5,5.1"/>
		<path class="st2" d="M22.2,32.5c-0.3-0.5-0.1-0.9-1-2.4c0.4-0.2,0.7,0,1.2,0.5C23,31.4,23,31.5,22.2,32.5z"/>
	</g>
	<path class="st3" d="M18,34.2c-0.2,1.7,4.8,4.6,5.1,6.9l-1.8,2.5l3.2-1c1.9,0.3,7.6,2.9,9.8,5.1c0.4,0.4,0.8,1.4,0.8,1.7
		c1-1.4,1.2-1.4,1.7-2.7c-1.5-1.7-5.6-3.3-7.5-4.2c-3.4-2.2-5-5.3-7.9-7.8L18,34.2z"/>
	<path class="st4" d="M24.3,34.7c1.3,0.9,2.7,4,3.9,5.3c1.2,1.3,1.8,0.5,3.6,1.5c-0.1,0-1.1-2-1.2-3.8c-0.1-1,0.7-2.1,0.7-2.3
		c-0.3-2.1-4.1-2.3-4.9-3"/>
	<path class="st5" d="M18,18.6l1.7,0.9L18,20.2"/>
	<path class="st6" d="M31,35.2c8.7-2.3,5.4-19.1,8.1-24.6c0.1-0.3,0.1-0.3,0.2-0.7"/>
	<path class="st7" d="M29,25.7c0.5,0.7,1.2,2.5,1.7,4.6 M24.1,34.6c1.5,1.5,2.1,2.7,2.1,4.3 M26.4,32.4c0.3,0.1,4,2.1,4.6,2.8
		c-0.8,1.3,0.1,2.3,0,3.5"/>
	<path class="st5" d="M21.3,16.9l-1.7,0.9l1.7,0.7"/>
</g>
<path class="st7" d="M34.8,33.5c1.1,0,2.6-0.1,3.7-0.7 M37.2,28.4c2.5-0.3,3.2-0.4,4.5-1 M37.8,23.4c0.9,0,2,0,4.5-0.9 M38.3,16.9
	c1.4,0.2,2.3-0.3,3.7-0.7"/>
</svg>
