<?xml version="1.0" encoding="utf-8"?>
<!-- Generator: Adobe Illustrator 24.0.2, SVG Export Plug-In . SVG Version: 6.00 Build 0)  -->
<svg version="1.1" id="Capa_1" xmlns="http://www.w3.org/2000/svg" xmlns:xlink="http://www.w3.org/1999/xlink" x="0px" y="0px"
	 viewBox="0 0 60 60" style="enable-background:new 0 0 60 60;" xml:space="preserve">
<style type="text/css">
	.st0{fill:#E2D9BA;stroke:#393830;stroke-width:1.048;stroke-opacity:0.9922;enable-background:new    ;}
	.st1{fill:#38372F;fill-opacity:0.9804;enable-background:new    ;}
</style>
<path class="st0" d="M30,53.7L44.3,49L51,6.3H9L15.7,49L30,53.7z"/>
<path class="st1" d="M30,47.3l0.3-0.4c0.9-1.2,1.7-2.7,3.1-3.3l0.6-0.2L33.5,43c-0.9-0.7-1.5-2-1.8-3.8c-0.1-0.4-0.1-0.8-0.2-1.2
	c1.3-0.5,2.5-1.4,3.6-2.4c-0.4-0.2-1-0.6-1.7-1c-1.2-0.6-2.7-0.9-3.5-0.9s-2.3,0.2-3.5,0.9c-0.7,0.4-1.3,0.7-1.7,1
	c1.1,1,2.3,1.8,3.6,2.4c0,0.4-0.1,0.8-0.2,1.2c-0.3,1.7-0.9,3-1.8,3.8L26,43.3l0.6,0.2c1.4,0.6,2.2,2.1,3.1,3.3L30,47.3z M40,45.1
	h0.6c0.1-4.2-0.2-8.1-1.7-11c-0.5-1-1.2-1.9-2.1-2.6c-0.4-0.1-1.2-0.4-2.3-0.8c-1.5-0.4-3.3-0.9-4.5-0.9c-1.1,0-3,0.4-4.5,0.9
	c-0.8,0.2-1.5,0.5-2.3,0.8c-0.9,0.7-1.6,1.6-2.1,2.6c-1.5,2.9-1.8,6.8-1.7,11H20c0.3-4.5,1.1-7.3,2.6-9c0.4-0.4,0.8-0.8,1.3-1.1l0,0
	c0,0,1-0.7,2.2-1.3c1.3-0.7,2.7-1,3.9-1c1.2,0,2.7,0.3,3.9,1c1.3,0.7,2.3,1.3,2.3,1.3l0,0c0.5,0.3,0.9,0.6,1.3,1.1
	C39,37.9,39.7,40.6,40,45.1z M37.2,30.6c2.3-5,6.5-10.7,8.4-13.3l0.2-0.3l-0.2-0.3c-0.9-1.5-2.6-3.5-4.4-4l-0.3-0.1L40.7,13
	c-0.3,0.8-1.2,4.8-2.2,7.5l0,0l-3,9.6C36.4,30.3,36.9,30.5,37.2,30.6z M22.8,30.6c0.3-0.1,0.7-0.3,1.7-0.6l-3.1-9.8
	c-0.9-2.6-1.8-6.5-2.1-7.3l-0.1-0.3l-0.3,0.1c-1.8,0.4-3.5,2.5-4.4,4L14.3,17l0.2,0.3C16.4,19.9,20.5,25.6,22.8,30.6L22.8,30.6z
	 M25.4,29.7c1.5-0.4,3.2-0.9,4.6-0.9c1.3,0,3,0.4,4.5,0.9l0.6-1.9c-0.3-0.1-0.9-0.3-1.7-0.6c-1.2-0.3-2.6-0.7-3.4-0.7
	c-0.9,0-2.3,0.3-3.4,0.7c-0.8,0.2-1.4,0.4-1.7,0.6L25.4,29.7z M35.4,27l2.2-7c-2.1-0.9-5.4-2.2-7.6-2.2s-5.5,1.2-7.6,2.1l2.2,7
	c0.4-0.1,0.9-0.3,1.7-0.6c1.2-0.4,2.6-0.7,3.7-0.7s2.5,0.4,3.7,0.7C34.5,26.7,35,26.9,35.4,27L35.4,27z"/>
</svg>
