<?xml version="1.0" encoding="utf-8"?>
<!-- Generator: Adobe Illustrator 24.0.2, SVG Export Plug-In . SVG Version: 6.00 Build 0)  -->
<svg version="1.1" id="Capa_1" xmlns="http://www.w3.org/2000/svg" xmlns:xlink="http://www.w3.org/1999/xlink" x="0px" y="0px"
	 viewBox="0 0 60 60" style="enable-background:new 0 0 60 60;" xml:space="preserve">
<style type="text/css">
	.st0{fill:#E2D9BA;stroke:#393830;stroke-width:1.048;stroke-opacity:0.9922;}
	.st1{fill:#38372F;stroke:#38372F;stroke-width:1.05;}
	.st2{fill:#38372F;stroke:#38372F;stroke-width:0.654;}
	.st3{fill:none;stroke:#38372F;stroke-width:0.654;}
	.st4{fill:none;stroke:#E2D9BA;stroke-miterlimit:10;stroke-opacity:0.9922;}
	.st5{fill:none;stroke:#E2D9BA;stroke-width:1.05;}
</style>
<path class="st0" d="M30,6.3L15.7,11L9,53.7h42L44.3,11L30,6.3z"/>
<g>
	<g>
		<path class="st1" d="M42.2,27.7L39.3,28"/>
		<path class="st2" d="M47.1,41.7c-7.3-0.5-14.2-0.1-24.1,0 M23.7,36.4c4.3-7.1,10.9-4.8,15.5-4.7c3.8,2.3,4.4,2.5,5.8,4.2
			c1.5,2,1.9,3.4,2,5.9c-7.4,2.7-14.9,3.2-23.8,0.5C23.1,40,23.5,38.2,23.7,36.4z"/>
		<g>
			<path class="st3" d="M23.8,28.3c-1.1,5.2-1.3,9.9-1.8,15.1c-0.8,3.9-6.1,7.9-9.1,7.1c1.2-6.9,0.9-17,4.7-29.4
				c2.7-1.4,4.8-1.3,7.4-0.7c2.8,1.4,4.2,4.5,5.3,7.3L30,31.5c-1.7,0.7-2.6,1.4-3.9,2.1L23.8,28.3z"/>
			<path class="st3" d="M26.2,33.3c-1.6-3.3-2-5-4-8.2c-1.3-1.6-2.9-3.4-4.6-3.9"/>
		</g>
		<path class="st2" d="M38.9,31.7l1.7-13.4c0.6-3.6-0.2-5.6-3.2-5c-2.8,0.8-4.5,3.4-6,6.7L30,31.5C34.9,31,36.5,31.3,38.9,31.7
			L38.9,31.7z"/>
	</g>
	<path class="st4" d="M46.6,37.8c-0.2,0.1-0.3,0.1-0.7-0.1c-5.4-1.7-10.4-3.6-22-1c-0.1,0-0.4,0.1-0.6,0.1"/>
	<path class="st1" d="M33.8,28.4l-6.2,0.4"/>
</g>
<path class="st5" d="M47.4,41.4c-0.2,0-0.7-0.1-0.8-0.1c-7.3-1.8-14.5-2.2-22.9,0.5c-0.2,0.1-0.6,0.1-0.8,0.1 M39.3,30.8
	c-4.2-0.5-6.2-0.5-9.1-0.2c-0.4,0-0.5,0.1-0.6,0.1"/>
</svg>
