<?xml version="1.0" encoding="utf-8"?>
<!-- Generator: Adobe Illustrator 24.0.2, SVG Export Plug-In . SVG Version: 6.00 Build 0)  -->
<svg version="1.1" id="Capa_1" xmlns="http://www.w3.org/2000/svg" xmlns:xlink="http://www.w3.org/1999/xlink" x="0px" y="0px"
	 viewBox="0 0 60 60" style="enable-background:new 0 0 60 60;" xml:space="preserve">
<style type="text/css">
	.st0{fill:#E2D9BA;stroke:#393830;stroke-width:1.048;stroke-opacity:0.9922;}
	.st1{fill:#38372F;stroke:#38372F;stroke-width:0.5;}
	.st2{fill:#E2D9BA;stroke:#38372F;stroke-width:0.88;}
	.st3{fill:none;stroke:#38372F;stroke-width:0.457;}
	.st4{fill:#38372F;stroke:#38372F;stroke-width:0.499;}
	.st5{fill:#38372F;}
</style>
<path class="st0" d="M30,6.3L15.7,11L9,53.7h42L44.3,11L30,6.3z"/>
<g>
	<path class="st1" d="M29.2,50.9V24h1.5v26.9H29.2z"/>
	<path class="st2" d="M29.4,24.6L28,23.7l0.3-11.3L30,9.5l1.8,2.8L32,23.6l-1.4,0.9L29.4,24.6z"/>
	<path class="st3" d="M30,10v10.6l1.7,1.3 M30,20.6l-1.7,1.5"/>
</g>
<path class="st4" d="M21.7,41h16.6v1.5H21.6V41H21.7z"/>
<path class="st5" d="M30,32.1c-5.3,0-9.6,4.3-9.6,9.6s4.3,9.6,9.6,9.6s9.6-4.3,9.6-9.6S35.3,32.1,30,32.1z M30,34.2
	c4.1,0,7.5,3.4,7.5,7.5s-3.4,7.5-7.5,7.5l0,0c-4.1,0-7.5-3.4-7.5-7.5S25.9,34.2,30,34.2L30,34.2L30,34.2z"/>
<path class="st4" d="M23.6,47.1l11.8-11.8l1.1,1.1L24.7,48.2L23.6,47.1z"/>
<path class="st4" d="M24.6,35.3l11.8,11.8l-1.1,1.1L23.5,36.4L24.6,35.3z"/>
</svg>
