<?xml version="1.0" encoding="utf-8"?>
<!-- Generator: Adobe Illustrator 24.0.2, SVG Export Plug-In . SVG Version: 6.00 Build 0)  -->
<svg version="1.1" id="Capa_1" xmlns="http://www.w3.org/2000/svg" xmlns:xlink="http://www.w3.org/1999/xlink" x="0px" y="0px"
	 viewBox="0 0 60 60" style="enable-background:new 0 0 60 60;" xml:space="preserve">
<style type="text/css">
	.st0{fill:#E2D9BA;stroke:#393830;stroke-width:1.048;stroke-opacity:0.9922;enable-background:new    ;}
	.st1{fill:#C80E0E;stroke:#C80E0E;stroke-width:0.5;}
	.st2{fill:#E2D9BA;}
	.st3{fill:#C80E0E;}
</style>
<path class="st0" d="M30,53.7L44.3,49L51,6.3H9L15.7,49L30,53.7z"/>
<path class="st1" d="M29.4,19.3v19.1h1.1V19.3H29.4z"/>
<path class="st2" d="M29.6,37.5l-0.7,0.3l0.1,4.3l0.9,1.1l0.9-1.1l0.1-4.3l-0.7-0.4L29.6,37.5z"/>
<path class="st3" d="M28.8,42.2l1.1,1.4l1.2-1.4l0.1-4.6l-0.9-0.4l-0.8,0l-0.9,0.4L28.8,42.2z M29.7,42.6l-0.4-0.5l-0.1-3.3l0.5,0.3
	V42.6z M30.2,42.6v-3.4l0.5-0.3l-0.1,3.2L30.2,42.6z M29.7,37.7l0.5,0l0.5,0.3l0,0.3l0,0L30,38.7l-0.7-0.5l-0.1,0.1l0-0.3L29.7,37.7
	z"/>
<path class="st3" d="M30,36.7c-4.9,0-8.9-4-8.9-8.9l0,0c0-4.9,4-8.9,8.9-8.9l0,0c4.9,0,8.9,4,8.9,8.9C38.8,32.7,34.8,36.7,30,36.7
	L30,36.7z M30,34.8c3.8,0,6.9-3.1,6.9-6.9c0-3.8-3.1-6.9-6.9-6.9s-6.9,3.1-6.9,6.9S26.1,34.8,30,34.8C29.9,34.8,29.9,34.8,30,34.8z"
	/>
<g>
	<path class="st1" d="M29.4,36.3V17.2h1.1v19.1H29.4z"/>
	<g transform="matrix(-.0533 0 0 -.03892 50.28 93.43)">
		<path class="st2" d="M387.6,1934.4l13.5,8.6l-2.6,111.3l-16.7,28.6l-17.5-27.8l-2.4-111.2l13.4-9.2L387.6,1934.4z"/>
		<path class="st3" d="M388.6,1928l-13.4,0.3l-18.1,11.7l2.5,117.6l22.3,35.4l21.2-36.3l2.7-117.7L388.6,1928z M376.4,1941.1
			l10.2-0.3l9.7,6.2l-0.2,8.5l-1-2.1l-13.9,12.4l-14-11.1l-0.4,1l-0.2-7.9L376.4,1941.1z M367.1,1969.5l9.6,7.6v87.9l-7.8-12.3
			L367.1,1969.5z M386.1,2065.3v-88.4l9.7-8.7l-2,83.7L386.1,2065.3z"/>
	</g>
	<path class="st1" d="M23.5,22.5l13.3,13.2l0.8-0.7L24.3,21.7L23.5,22.5z"/>
	<path class="st1" d="M36.4,22.2L22.9,35.7l-0.8-0.8l13.5-13.5L36.4,22.2z"/>
	<path class="st1" d="M39,27.3H19.9v1.1H39V27.3z"/>
	<g transform="matrix(0 -.0533 -.03892 0 91.316 52.392)">
		<path class="st2" d="M466.8,1825.8l13.5,8.6l-2.6,111.3l-16.7,28.6l-17.5-27.8l-2.4-111.2l13.4-9.2L466.8,1825.8z"/>
		<path class="st3" d="M438.9,1948.9l-2.5-117.6l16.1-11l15.4-1l17.3,11l-2.7,117.7l-21.2,36.3L438.9,1948.9z M455.9,1956.3v-87.9
			l-9.6-7.6l1.8,83.1L455.9,1956.3z M465.8,1832.2l-10.2,0.3l-9.8,6.7l0.2,7.9l0.4-0.9l14,11.1l13.9-12.4l1,2l0.2-8.5L465.8,1832.2z
			 M473.1,1943.3l2-83.7l-9.7,8.7v88.4L473.1,1943.3z"/>
	</g>
	<path class="st1" d="M20.9,27.3H40v1.1H20.9V27.3z"/>
	<g transform="matrix(0 -.0533 .03892 0 -31.316 52.392)">
		<path class="st2" d="M466.8,1825.8l13.5,8.6l-2.6,111.3l-16.7,28.6l-17.5-27.8l-2.4-111.2l13.4-9.2L466.8,1825.8z"/>
		<path class="st3" d="M454.4,1819.7l-18.1,11.7l2.5,117.6l22.3,35.4l21.2-36.3l2.7-117.7l-17.3-11L454.4,1819.7z M448.2,1944
			l-1.8-83.1l9.6,7.6v87.9L448.2,1944z M465.3,1956.6v-88.4l9.7-8.7l-2,83.7L465.3,1956.6z M475.5,1838.4l-0.2,8.5l-1-2l-13.9,12.3
			l-14-11.1l-0.4,1l-0.2-7.9l9.8-6.7l10.2-0.3L475.5,1838.4z"/>
	</g>
	<path class="st2" d="M37,34.7l0.7-0.3l3,3.2l0.2,1.4l-1.4-0.1l-3.2-3l0.3-0.8L37,34.7z"/>
	<path class="st3" d="M39.4,39.2l1.8,0.1L41,37.5l-3.1-3.3l-0.9,0.3L36.4,35L36,36L39.4,39.2z M37.2,36.5l0.6-0.2l2.4,2.4l-0.6,0
		L37.2,36.5z M40.6,38.4l-2.4-2.4l0.1-0.6l2.2,2.4L40.6,38.4z M36.8,35.3l0.4-0.4l0.5-0.2l0.2,0.2l-0.1,0l-0.2,0.9L36.8,36l0,0
		l-0.2-0.2L36.8,35.3z"/>
	<g transform="matrix(-.03769 -.03769 -.02752 .02752 87.985 2.873)">
		<path class="st2" d="M445.3,1767.6l13.5,8.6l-2.6,111.3l-16.7,28.6l-17.5-27.8l-2.4-111.2l13.4-9.2L445.3,1767.6z"/>
		<path class="st3" d="M417.4,1890.8l-2.6-117.6l16.1-11l14.3-1l18.4,11l-2.8,117.7l-21.2,36.3L417.4,1890.8z M426.7,1885.9
			l7.8,12.3l0-87.9l-9.6-7.6L426.7,1885.9z M454,1780.3l-9.7-6.2l-10.1,0.3l-9.8,6.7l0.2,7.9l0.4-1l14,11.1l13.9-12.3l1,2
			L454,1780.3z M453.6,1801.5l-9.7,8.7l0,88.4l7.8-13.3L453.6,1801.5z"/>
	</g>
</g>
</svg>
