<?xml version="1.0" encoding="utf-8"?>
<!-- Generator: Adobe Illustrator 24.0.2, SVG Export Plug-In . SVG Version: 6.00 Build 0)  -->
<svg version="1.1" id="Capa_1" xmlns="http://www.w3.org/2000/svg" xmlns:xlink="http://www.w3.org/1999/xlink" x="0px" y="0px"
	 viewBox="0 0 60 60" style="enable-background:new 0 0 60 60;" xml:space="preserve">
<style type="text/css">
	.st0{fill:#E2D9BA;stroke:#393830;stroke-width:1.048;stroke-opacity:0.9922;}
	.st1{fill:#C80E0E;fill-opacity:0.9922;}
</style>
<path class="st0" d="M30,6.3L15.7,11L9,53.7h42L44.3,11L30,6.3z"/>
<path class="st1" d="M20.2,13.5c-0.1,0-0.2,0-0.3,0s-0.1,0-0.2,0.1c0.5,0.6,4.5,3.4,2.3,4.2c0,0,0,0-0.1,0c-0.9,0-1.8-0.9-1.8-1
	c-0.1-0.1-0.4-0.2-0.8-0.1c-1,0-2.5,0.9-0.9,1.2c1.4,0.5,2.6,0.8,3.5,1.4l0,0c0.6,0.6,1.9,1.8,2.5,2.4l1.1,1
	c0.3,0.3,0.9,0.7,1.5,1.1c0.3,0.2,0.6,0.3,0.9,0.4c0.3,0.1,0.4,0.1,0.6,0c0-0.1,0-0.3,0-0.4c-0.1-0.3-0.3-0.8-0.6-1.2
	c-0.3-0.4-0.5-0.9-0.8-1.2c-0.1-0.2-0.2-0.3-0.2-0.4c0,0-4.3-1.1-2.9-2.8C26.3,15.3,21.8,13.6,20.2,13.5L20.2,13.5z M39.8,13.5
	L39.8,13.5c-1.5,0.1-6.1,1.8-3.8,4.6c1.4,1.7-2.9,2.8-2.9,2.8C33,21,33,21.1,32.9,21.3c-0.2,0.3-0.5,0.7-0.8,1.2
	c-0.3,0.4-0.5,0.9-0.6,1.2c0,0.1-0.1,0.3,0,0.4c0.1,0,0.3,0,0.6,0c0.3-0.1,0.6-0.2,0.9-0.4c0.6-0.3,1.2-0.8,1.5-1.1l1.1-1
	c0.6-0.6,1.9-1.7,2.5-2.4l0,0c0.9-0.6,2-0.9,3.5-1.4c1.6-0.3,0.1-1.2-0.9-1.2c-0.3,0-0.7,0-0.8,0.1s-1,1-1.8,1c0,0,0,0-0.1,0
	c-2.2-0.8,1.8-3.6,2.3-4.2c-0.1,0-0.1,0-0.2-0.1C40,13.5,39.9,13.5,39.8,13.5L39.8,13.5z M19.9,21.5c-0.7,1.6-1,2.4,1,4.8
	c-1.3-0.3-2.8-3-3.4-3.5c-1,2.6,0.3,3.8,1.9,4.6c-1.6,0.3-2.5-0.4-4.1-0.9c0.9,1.6,2,4.1,4.6,2.9c-1,1.4-2.7,2-4.2,2.9
	c1.5,0.3,3.1,1,4.4-0.3c-0.7,1.2-1.8,2.3-2.8,3.3c0.4-0.1,0.9-0.1,1.3-0.2c0.7-0.8,1.5-1.3,2.3-1.6c0-0.4,0.1-0.9,0.2-1.2
	c0.1-0.2,0.1-0.3,0.1-0.4c-0.2,0-0.4-0.1-0.6-0.2c-0.2-0.1-0.4-0.3-0.5-0.6s-0.1-0.6,0-0.9l0.5-1.8c0.1-0.5,0.6-0.8,1.1-1
	c0.4-0.2,0.7-0.3,1.1-0.5c-0.1-0.4-0.1-0.8-0.1-1.2L19.9,21.5z M40.1,21.5l-2.8,4.1c0,0.4-0.1,0.8-0.1,1.2c0.3,0.1,0.7,0.3,1.1,0.5
	c0.5,0.2,0.9,0.5,1.1,1l0.5,1.8c0.1,0.3,0.1,0.6,0,0.9s-0.3,0.4-0.5,0.6c-0.2,0.1-0.4,0.2-0.6,0.2c0.1,0.1,0.1,0.2,0.1,0.4
	c0.1,0.4,0.2,0.8,0.2,1.2c0.8,0.4,1.6,0.9,2.3,1.6c0.4,0.1,0.9,0.2,1.3,0.2c-1.1-1-2.2-2.1-2.8-3.3c1.3,1.3,2.9,0.6,4.4,0.3
	c-1.5-0.9-3.2-1.5-4.2-2.9c2.7,1.1,3.7-1.3,4.6-2.9c-1.6,0.5-2.5,1.2-4.1,0.9c1.6-0.8,2.9-2,1.9-4.6c-0.6,0.5-2.1,3.2-3.4,3.5
	C41.1,23.9,40.8,23,40.1,21.5L40.1,21.5z M31.4,21.8c-0.3,0-0.5,0-0.5,0l0,0L30,21.9l-0.9-0.1l0,0c-0.2,0-0.3,0-0.5,0
	c0,0.1,0.1,0.1,0.1,0.1c0.3,0.5,0.5,0.9,0.7,1.5c0.1,0.3,0.1,0.4,0.1,0.8l0,0c0,0.1,0,0.1,0,0.1l0,0c-0.2,1-1,1-1.8,0.8l0,0
	c-0.4-0.1-0.8-0.3-1.1-0.5c-0.7-0.4-1.3-0.9-1.7-1.2l0,0l-1.1-1l-0.1-0.1v0.1l0,0c-0.5,1.3-0.3,3-0.1,4.7v0.3l-0.3,0.1
	c-0.4,0.2-0.9,0.3-1.3,0.6c-0.4,0.2-0.6,0.5-0.7,0.5l-0.5,1.8c-0.1,0.2,0,0.3,0,0.4c0,0.1,0.1,0.1,0.1,0.1c0.1,0.1,0.4,0.1,0.6,0.2
	c0.4,0,0.8,0,1.3,0c0.6,0.1,1.2,0.2,1.6,0.7v0.1V32c0.2,0.4,0.3,0.8,0.4,1.3h-0.7c-0.3,0-3.7-0.1-5.7,2.6c-0.8,1-1.5,1.8-2.3,2.1
	c-0.4,0.2-0.5,0.3-0.8,0.4c-0.2,0-0.5-0.1-0.8-0.2l0.3,0.7c0.9,0.3,1.7,0.2,2.4-0.3s1.4-1.3,2.1-2.1c0.9-1.1,2.3-1.7,3.4-1.9
	c1-0.2,1.6-0.2,1.8-0.2h0.7c0,0.1,0.1,0.2,0.2,0.3c0.1,0.1,0.2,0.2,0.3,0.3c1.4-0.3,2.8-0.5,4.2-0.6l0,0l0,0
	c1.1,0.1,2.7,0.3,4.2,0.6c0.1,0,0.2-0.1,0.3-0.3c0.1-0.1,0.1-0.2,0.2-0.3h0.7c0.2,0,0.8,0,1.8,0.2c1.2,0.3,2.6,0.8,3.4,1.9
	c0.7,0.9,1.3,1.7,2.1,2.1c0.7,0.5,1.5,0.6,2.4,0.3l0.4-0.9c-0.3,0.1-0.6,0.2-0.8,0.2c-0.3,0-0.5-0.2-0.8-0.4
	c-0.8-0.4-1.6-1.1-2.3-2.1c-2-2.7-5.4-2.6-5.7-2.6H35c0.1-0.4,0.2-0.8,0.4-1.3v-0.1l0,0c0.4-0.5,1.1-0.7,1.7-0.8
	c0.5-0.1,1.1-0.1,1.5-0.1c0.1,0,0.2-0.1,0.3-0.1s0.1-0.1,0.1-0.2c0-0.1,0-0.2,0-0.4l-0.5-1.8c0,0-0.3-0.3-0.7-0.5
	c-0.4-0.2-0.9-0.4-1.3-0.6l-0.3-0.1v-0.3c0.2-1.7,0.4-3.4-0.1-4.7l0,0l0,0l-1.1,1l0,0c-0.4,0.3-1,0.8-1.7,1.2
	c-0.4,0.2-0.7,0.4-1.1,0.5l0,0C31.4,25,30.5,25,30.4,24l0,0c0,0,0,0,0-0.1l0,0c-0.1-0.4,0-0.5,0.1-0.8c0.2-0.5,0.4-1,0.7-1.5
	C31.3,21.9,31.4,21.8,31.4,21.8z M25.9,25.3c0.7,0.1,1,1,3,2.5c-0.5,0.9-1.3,1.3-2.6,1c-1.3-0.5-2.5-1.2-1.7-2.8
	c0.3-0.5,0.6-0.7,1-0.8C25.7,25.3,25.9,25.4,25.9,25.3L25.9,25.3z M34.1,25.3c0.1,0,0.2,0,0.3,0c0.4,0.1,0.7,0.3,1,0.8
	c0.8,1.6-0.5,2.3-1.7,2.8c-1.3,0.2-2.1-0.2-2.6-1C33.2,26.3,33.5,25.4,34.1,25.3z M28,31.5c0.7,0.1,0.9,1.1,1.4,1.7l-0.8-0.6l-1-0.1
	C27.6,32,27.1,31.6,28,31.5z M32,31.5c0.8,0.1,0.4,0.5,0.5,0.9l-1,0.1l-0.8,0.6C31.1,32.6,31.3,31.6,32,31.5z M37.9,31.8
	c-0.3,0-0.5,0-0.8,0c-0.5,0.1-0.9,0.2-1.1,0.5c0,0.1-0.1,0.2-0.1,0.3c0.8,0,1.6,0.2,2.3,0.4c0-0.2-0.1-0.4-0.1-0.7
	C38,32,38,31.9,37.9,31.8z M22,31.9c0,0.1-0.1,0.2-0.2,0.5c-0.1,0.2-0.1,0.4-0.1,0.7c0.7-0.2,1.5-0.4,2.3-0.4c0-0.1-0.1-0.2-0.1-0.3
	c-0.2-0.3-0.6-0.4-1-0.4C22.6,31.8,22.3,31.8,22,31.9z M24.7,34.6c-0.6,0-1.2,0.1-1.8,0.2c-0.2,0.1-0.5,0.1-0.7,0.2
	c0.1,0.2,0.2,0.4,0.4,0.6c0,0,0.3,0.2,0.6,0.3s0.5,0.2,0.5,0.2l0.2,0.1v0.3c0.6,3.6,1.3,5,2.2,7.7c0.1,0.2,0.2,0.3,0.4,0.5l0.6,7.7
	l0.8-5.8l1.1,5.1l1-5l1,5l1.1-5.2l0.8,5.9l0.6-7.7c0.1-0.1,0.3-0.3,0.4-0.5c0.9-2.7,1.7-4.1,2.2-7.7v-0.3l0.2-0.1
	c0,0,0.2-0.1,0.5-0.2c0.3-0.1,0.6-0.3,0.6-0.3c0.1-0.2,0.2-0.4,0.4-0.6c-0.2-0.1-0.4-0.1-0.7-0.2c-0.6-0.1-1.2-0.2-1.8-0.2
	c0,0.1-0.1,0.2-0.1,0.2c-0.2,0.3-0.4,0.5-0.8,0.6c0,3.9,0,3.5-1,7.3v0.2L33.3,43c-0.9,0.6-2.1,0.9-3.2,0.9c-1.2,0-2.3-0.3-3.2-0.9
	l-0.1-0.1v-0.1c-1-3.7-1.1-3.3-1-7.2l0,0c-0.3-0.1-0.6-0.3-0.8-0.6C24.7,34.8,24.7,34.7,24.7,34.6z M30,34.8
	c-0.9,0.1-2.2,0.2-3.5,0.5l0.6,3.1l0.8-1.6l1.1,1.3l1-1.1l1,1.1l1.1-1.2l0.8,1.6l0.6-3.2C32.3,35.1,31.2,35,30,34.8z M30,40.1l-1,1
	l-0.9-0.9l-0.4,2.3c0.6,0.3,1.4,0.5,2.3,0.5s1.7-0.2,2.4-0.5L32,40.2l-0.9,0.9L30,40.1z"/>
</svg>
