<?xml version="1.0" encoding="utf-8"?>
<!-- Generator: Adobe Illustrator 24.0.2, SVG Export Plug-In . SVG Version: 6.00 Build 0)  -->
<svg version="1.1" id="Capa_1" xmlns="http://www.w3.org/2000/svg" xmlns:xlink="http://www.w3.org/1999/xlink" x="0px" y="0px"
	 viewBox="0 0 60 60" style="enable-background:new 0 0 60 60;" xml:space="preserve">
<style type="text/css">
	.st0{fill:#E2D9BA;stroke:#393830;stroke-width:1.048;stroke-opacity:0.9922;enable-background:new    ;}
	
		.st1{opacity:0.99;fill:#38372F;fill-opacity:0.9922;stroke:#38372F;stroke-width:0.1227;stroke-opacity:0.9922;enable-background:new    ;}
	
		.st2{opacity:0.99;fill:#E2D9BA;fill-opacity:0.9882;stroke:#38372F;stroke-width:0.4908;stroke-linecap:round;stroke-opacity:0.9922;enable-background:new    ;}
	
		.st3{opacity:0.99;fill:none;stroke:#38372F;stroke-width:0.4733;stroke-linecap:round;stroke-linejoin:round;stroke-opacity:0.9922;enable-background:new    ;}
	
		.st4{opacity:0.99;fill:none;stroke:#38372F;stroke-width:0.4838;stroke-linecap:round;stroke-opacity:0.9922;enable-background:new    ;}
	
		.st5{opacity:0.99;fill:none;stroke:#38372F;stroke-width:0.4923;stroke-linecap:round;stroke-opacity:0.9922;enable-background:new    ;}
	.st6{fill:#E2D9BA;fill-opacity:0.9922;}
</style>
<path class="st0" d="M30,53.7L44.3,49L51,6.3H9L15.7,49L30,53.7z"/>
<g id="Capa_1_1_">
	<g id="Capa_5">
		<g transform="translate(39.6875 -.6875)">
			<g>
				<path class="st1" d="M-25.6,24.6l-0.2-1.7c0,0-0.8-1.4-0.8-2.2c0-0.7,0.9-2.4,0.9-2.4c0-0.5,0.1-1.5,0.4-2.1
					c0.8-0.2,0.9-0.1,2-0.2c0.2-0.1,0.1-0.5,0.4-0.5c2.9-0.8,4.6-0.8,6.3-0.8c2.2,0,6.6,1.1,6.6,1.1c3.1,1.2,6.4,2,10.3,1.4l1.3,0.4
					c0.7-0.1,0.9-0.4,0.9-0.7l2.8-0.1c1.7,3.2,1.8,6.3,0,9.3l-0.4,1.3H3.5L2.9,27l-0.1-0.8l-1.2-0.6c-3.8-0.5-7.3-0.5-10.5,0.1
					l-3.9,1.1l-0.1,1.2l-2.5,0.1l-0.1-1.1c0,0-3.4-0.1-5.1-0.5c-0.7-0.1-2.1-0.6-2.1-0.6l-0.2-0.6L-25.6,24.6z"/>
				<path class="st2" d="M-9.8,25.9c-0.2,0.2-0.7,0.1-0.7,0c1.1-3.5,1.5-7,0-10.3c0-0.1,0.6-0.1,0.7,0C-8.3,18.9-8.9,22.4-9.8,25.9
					L-9.8,25.9z"/>
				<path class="st3" d="M-0.3,25.4c0,0.1-0.2,0.1-0.2,0c1.2-3,1.8-5.8,0-8.4c0-0.1,0.1-0.1,0.2,0C1.5,19.6,1,22.4-0.3,25.4
					L-0.3,25.4z"/>
				<path class="st3" d="M0.6,25.4c-0.1,0.1-0.2,0.1-0.2-0.1c1.2-3,1.8-5.4,0.1-8.1c0-0.1,0.1-0.1,0.2,0C2.3,19.8,1.7,22.8,0.6,25.4
					L0.6,25.4z"/>
				<path class="st4" d="M3.6,25.7c0,0.1-0.4,0.1-0.4,0c1.2-3.1,1.8-6.1,0.1-8.9c0-0.1,0.2-0.1,0.4,0C5.4,19.6,4.9,22.7,3.6,25.7
					L3.6,25.7z"/>
				<path class="st5" d="M4.5,25.7c-0.1,0.1-0.4,0.1-0.4,0c1.2-3.2,1.8-6,0.1-9c0-0.1,0.2-0.1,0.4,0C6.2,19.6,5.9,22.6,4.5,25.7
					L4.5,25.7z"/>
			</g>
			<path class="st6" d="M-15.6,26c-2.1,0.2-5-0.1-7.4-1.2c-0.1-1.7-0.5-2.1-0.1-4.8c2.4-0.2,4.7-0.5,8.1,0.1
				C-14.4,21.3-15.4,24.9-15.6,26L-15.6,26z"/>
		</g>
	</g>
</g>
</svg>
