<?xml version="1.0" encoding="UTF-8" standalone="no"?>
<svg
   xmlns:dc="http://purl.org/dc/elements/1.1/"
   xmlns:cc="http://creativecommons.org/ns#"
   xmlns:rdf="http://www.w3.org/1999/02/22-rdf-syntax-ns#"
   xmlns:svg="http://www.w3.org/2000/svg"
   xmlns="http://www.w3.org/2000/svg"
   xmlns:sodipodi="http://sodipodi.sourceforge.net/DTD/sodipodi-0.dtd"
   xmlns:inkscape="http://www.inkscape.org/namespaces/inkscape"
   width="52.157"
   height="60"
   version="1.1"
   id="svg1717"
   sodipodi:docname="0FUKyoto.svg"
   inkscape:version="0.92.4 (5da689c313, 2019-01-14)">
  <metadata
     id="metadata1723">
    <rdf:RDF>
      <cc:Work
         rdf:about="">
        <dc:format>image/svg+xml</dc:format>
        <dc:type
           rdf:resource="http://purl.org/dc/dcmitype/StillImage" />
        <dc:title></dc:title>
      </cc:Work>
    </rdf:RDF>
  </metadata>
  <defs
     id="defs1721">
    <filter
       style="color-interpolation-filters:sRGB"
       inkscape:label="Drop Shadow"
       id="filter1552">
      <feFlood
         flood-opacity="0.498039"
         flood-color="rgb(0,0,0)"
         result="flood"
         id="feFlood1542" />
      <feComposite
         in="flood"
         in2="SourceGraphic"
         operator="in"
         result="composite1"
         id="feComposite1544" />
      <feGaussianBlur
         in="composite1"
         stdDeviation="2.5"
         result="blur"
         id="feGaussianBlur1546" />
      <feOffset
         dx="4.57967e-15"
         dy="4.41314e-15"
         result="offset"
         id="feOffset1548" />
      <feComposite
         in="SourceGraphic"
         in2="offset"
         operator="over"
         result="composite2"
         id="feComposite1550" />
    </filter>
    <filter
       style="color-interpolation-filters:sRGB"
       inkscape:label="Drop Shadow"
       id="filter1540">
      <feFlood
         flood-opacity="0.498039"
         flood-color="rgb(0,0,0)"
         result="flood"
         id="feFlood1530" />
      <feComposite
         in="flood"
         in2="SourceGraphic"
         operator="in"
         result="composite1"
         id="feComposite1532" />
      <feGaussianBlur
         in="composite1"
         stdDeviation="2.5"
         result="blur"
         id="feGaussianBlur1534" />
      <feOffset
         dx="4.57967e-15"
         dy="4.41314e-15"
         result="offset"
         id="feOffset1536" />
      <feComposite
         in="SourceGraphic"
         in2="offset"
         operator="over"
         result="composite2"
         id="feComposite1538" />
    </filter>
    <filter
       id="drop-shadow-9">
      <feGaussianBlur
         in="SourceAlpha"
         result="blur"
         stdDeviation="2"
         id="feGaussianBlur5056" />
      <feOffset
         result="offsetBlur"
         dx="2"
         dy="2"
         id="feOffset5058" />
      <feBlend
         in="SourceGraphic"
         in2="offsetBlur"
         mode="normal"
         id="feBlend5060" />
    </filter>
    <filter
       id="drop-shadow-2">
      <feGaussianBlur
         in="SourceAlpha"
         result="blur"
         stdDeviation="2"
         id="feGaussianBlur6807" />
      <feOffset
         result="offsetBlur"
         dx="2"
         dy="2"
         id="feOffset6809" />
      <feBlend
         in="SourceGraphic"
         in2="offsetBlur"
         mode="normal"
         id="feBlend6811" />
    </filter>
    <filter
       id="drop-shadow-2-8">
      <feGaussianBlur
         in="SourceAlpha"
         result="blur"
         stdDeviation="2"
         id="feGaussianBlur6807-2" />
      <feOffset
         result="offsetBlur"
         dx="2"
         dy="2"
         id="feOffset6809-8" />
      <feBlend
         in="SourceGraphic"
         in2="offsetBlur"
         mode="normal"
         id="feBlend6811-0" />
    </filter>
    <filter
       id="drop-shadow-6">
      <feGaussianBlur
         in="SourceAlpha"
         result="blur"
         stdDeviation="2"
         id="feGaussianBlur5056-9" />
      <feOffset
         result="offsetBlur"
         dx="2"
         dy="2"
         id="feOffset5058-0" />
      <feBlend
         in="SourceGraphic"
         in2="offsetBlur"
         mode="normal"
         id="feBlend5060-9" />
    </filter>
  </defs>
  <sodipodi:namedview
     pagecolor="#ffffff"
     bordercolor="#666666"
     borderopacity="1"
     objecttolerance="10"
     gridtolerance="10"
     guidetolerance="10"
     inkscape:pageopacity="0"
     inkscape:pageshadow="2"
     inkscape:window-width="1920"
     inkscape:window-height="1017"
     id="namedview1719"
     showgrid="false"
     inkscape:zoom="11.125147"
     inkscape:cx="-18.480091"
     inkscape:cy="19.679961"
     inkscape:window-x="1912"
     inkscape:window-y="-8"
     inkscape:window-maximized="1"
     inkscape:current-layer="layer3"
     inkscape:snap-nodes="false" />
  <!--
Created by Hari Seldon and modified by orangain, licensed under Creative Commons Attribution-Share Alike 3.0 Unported.
See: https://creativecommons.org/licenses/by-sa/3.0/deed.en

Original file is available at: https://commons.wikimedia.org/wiki/File:Shogi_gyokusho(svg).svg
-->
  <filter
     id="drop-shadow">
    <feGaussianBlur
       in="SourceAlpha"
       result="blur"
       stdDeviation="2"
       id="feGaussianBlur1692" />
    <feOffset
       result="offsetBlur"
       dx="2"
       dy="2"
       id="feOffset1694" />
    <feBlend
       in="SourceGraphic"
       in2="offsetBlur"
       mode="normal"
       id="feBlend1696" />
  </filter>
  <g
     inkscape:groupmode="layer"
     id="layer3"
     inkscape:label="Koma">
    <g
       transform="matrix(1.3333333,0,0,-1.3333333,-70.30806,375.85074)"
       style="display:inline"
       id="g9438">
      <g
         style="fill:#ffd5e5;fill-opacity:1;filter:url(#drop-shadow-6)"
         id="g5765"
         transform="matrix(0.75000002,0,0,-0.75000002,80.451421,282.09707)">
        <path
           style="fill:#feec99;fill-opacity:1"
           inkscape:connector-curvature="0"
           id="path5763"
           d="m -10.959999,6.2374999 c -4.319,1 -8.69,2.088 -12.838,3.608 -1.492,6.3310001 -2.103,12.8800001 -3.191,19.3050001 -1.285,8.332 -2.439,16.689 -3.86,24.997 4.847,0.346 10,0.05 14.963,0.148 H 9.0850008 c -0.585,-5.657 -1.718,-11.523 -2.502,-17.26 -1.462,-8.96 -2.486,-18.012 -4.288,-26.903 -0.885,-1.0930001 -2.79899998,-0.9570001 -4.037,-1.5640001 -3.053,-0.81 -6.099,-1.875 -9.2179998,-2.332 z" />
      </g>
    </g>
    <g
       aria-label="歩"
       style="font-style:normal;font-variant:normal;font-weight:normal;font-stretch:normal;font-size:26.66666603px;line-height:1.25;font-family:KaiTi;-inkscape-font-specification:KaiTi;letter-spacing:0px;word-spacing:0px;fill:#000000;fill-opacity:1;stroke:#000000;stroke-width:1;stroke-miterlimit:4;stroke-dasharray:none;stroke-opacity:1"
       id="text2778"
       transform="translate(1.4894164,2.6755954)">
      <path
         d="m 26.478477,21.406204 c 1.333333,-0.25 2.375,-0.541667 3.125,-0.875 0.75,-0.333333 1.458333,-0.291667 2.125,0.125 0.666667,0.416667 0.458333,0.875 -0.625,1.375 -1.083333,0.416667 -2.625,0.583333 -4.625,0.5 l -0.125,3.875 c 2.666667,-0.416667 4.666667,-0.75 6,-1 1.416667,-0.25 2.375,-0.166667 2.875,0.25 0.5,0.416667 0.75,0.75 0.75,1 0.08333,0.25 -0.5,0.375 -1.75,0.375 -1.25,0 -2.666667,0.08333 -4.25,0.25 -1.5,0.166667 -3.416667,0.416667 -5.75,0.75 0.583333,0.166667 1.083333,0.416667 1.5,0.75 0.416667,0.333333 0.5,0.75 0.25,1.25 -0.25,0.5 -0.333333,1.375 -0.25,2.625 0.08333,1.25 0.08333,2.291667 0,3.125 -0.08333,0.833333 -0.25,1.416667 -0.5,1.75 -0.166667,0.25 -0.458333,0.08333 -0.875,-0.5 -0.416667,-0.583333 -0.541667,-1.208333 -0.375,-1.875 0.166667,-0.75 0.208333,-1.75 0.125,-3 0,-1.25 -0.08333,-2.125 -0.25,-2.625 -0.166667,-0.5 -0.333333,-0.958333 -0.5,-1.375 -4.416667,0.916667 -6.916667,1.458333 -7.5,1.625 -0.583333,0.166667 -1.291667,0 -2.125,-0.5 -0.75,-0.583333 -0.708333,-0.875 0.125,-0.875 0.916667,0 2.708333,-0.25 5.375,-0.75 -0.166667,-2.666667 -0.458333,-4.25 -0.875,-4.75 -0.416667,-0.5 -0.541667,-0.833333 -0.375,-1 0.166667,-0.166667 0.708333,-0.125 1.625,0.125 1,0.166667 1.416667,0.583333 1.25,1.25 -0.166667,0.666667 -0.208333,2.041667 -0.125,4.125 1.25,-0.25 2.625,-0.5 4.125,-0.75 0,-3 -0.08333,-5.166667 -0.25,-6.5 -0.08333,-1.416667 -0.291667,-2.375 -0.625,-2.875 -0.333333,-0.5 -0.25,-0.708333 0.25,-0.625 0.5,0 1.125,0.166667 1.875,0.5 0.75,0.25 1,0.583333 0.75,1 -0.25,0.333333 -0.375,1.416667 -0.375,3.25 z m 6.088467,9.516873 c 0.666667,0.583333 0.75,1 0.25,1.25 -0.416667,0.25 -2.213467,2.399794 -2.963467,3.483127 -0.666667,1 -1.708333,2.166667 -3.125,3.5 -1.333333,1.333333 -1.992333,1.759594 -4.925847,3.622881 -2.445691,1.070227 -2.155656,1.003538 -4.6079,1.792857 -0.902589,0.133717 -1.524769,0.224717 -1.779502,0.226578 -0.380272,0.0028 0.05833,-0.193088 1.605353,-0.742033 2.666667,-0.833333 3.603484,-1.733616 5.686817,-3.150283 2.166667,-1.416667 3.062746,-3.041667 4.396079,-4.875 1.416667,-1.916667 3.2968,-4.69146 3.213467,-5.358127 -0.712535,-0.974716 -0.594091,-1.221439 0.625,-0.875 0.506973,0.144071 1.041667,0.541667 1.625,1.125 z m -0.90165,5.973192 c 1.333333,0.333333 2.25,0.75 2.75,1.25 0.583333,0.5 0.75676,1.202668 0.625,2.125 -0.118437,0.829072 -0.541667,0.916667 -1.375,0.25 -0.75,-0.666667 -1.5,-1.25 -2.25,-1.75 -0.75,-0.583333 -1.375,-1.083333 -1.875,-1.5 -0.5,-0.5 -0.625,-0.791667 -0.375,-0.875 0.333333,-0.08333 1.166667,0.08333 2.5,0.5 z M 18.978477,32.156204 c 0.416667,-0.833333 0.708333,-1.25 0.875,-1.25 0.25,-0.08333 0.333333,0.5 0.25,1.75 0,1.25 -0.458333,2.541667 -1.375,3.875 -0.916667,1.25 -1.5,1.375 -1.75,0.375 -0.166667,-1 0.04167,-1.833333 0.625,-2.5 0.583333,-0.75 1.041667,-1.5 1.375,-2.25 z"
         style="font-style:normal;font-variant:normal;font-weight:normal;font-stretch:normal;font-size:32px;font-family:KaiTi;-inkscape-font-specification:KaiTi;stroke:#000000;stroke-width:1;stroke-miterlimit:4;stroke-dasharray:none;stroke-opacity:1"
         id="path10836"
         inkscape:connector-curvature="0"
         sodipodi:nodetypes="cssccccscsccsssscsccscscscsscscccsccccccccccsccccscccscccccccccccc" />
    </g>
  </g>
  <g
     inkscape:groupmode="layer"
     id="layer2"
     inkscape:label="Rook"
     style="display:inline" />
  <g
     inkscape:groupmode="layer"
     id="layer1"
     inkscape:label="Pawn"
     style="display:inline" />
</svg>
