<?xml version="1.0" encoding="UTF-8" standalone="no"?>
<svg
   height="60"
   width="52.101"
   version="1.1"
   id="svg2"
   sodipodi:docname="0TA.svg"
   inkscape:version="1.3 (0e150ed6c4, 2023-07-21)"
   xmlns:inkscape="http://www.inkscape.org/namespaces/inkscape"
   xmlns:sodipodi="http://sodipodi.sourceforge.net/DTD/sodipodi-0.dtd"
   xmlns="http://www.w3.org/2000/svg"
   xmlns:svg="http://www.w3.org/2000/svg">
  <defs
     id="defs2">
    <filter
       inkscape:label="Colorize"
       inkscape:menu="Bumps"
       inkscape:menu-tooltip="Bumps effect with a bevel, color flood and complex lighting"
       style="color-interpolation-filters:sRGB"
       id="filter13502"
       x="-0.43141105"
       y="-0.45548095"
       width="1.8628221"
       height="1.9109619">
      <feGaussianBlur
         stdDeviation="5"
         result="result8"
         id="feGaussianBlur13468" />
      <feComposite
         result="result6"
         in="SourceGraphic"
         operator="in"
         in2="result8"
         id="feComposite13470" />
      <feComposite
         operator="in"
         result="result11"
         in2="result6"
         id="feComposite13472" />
      <feFlood
         result="result10"
         flood-opacity="1"
         flood-color="rgb(255,255,255)"
         id="feFlood13474" />
      <feBlend
         mode="multiply"
         in="result10"
         in2="result11"
         result="result12"
         id="feBlend13476" />
      <feComposite
         result="fbSourceGraphic"
         operator="in"
         in2="SourceGraphic"
         in="result12"
         id="feComposite13478" />
      <feFlood
         result="result6"
         flood-color="rgb(75,101,154)"
         id="feFlood13480" />
      <feComposite
         k4="0"
         k3="0.3"
         k2="0.3"
         k1="0.5"
         operator="arithmetic"
         result="result2"
         in="fbSourceGraphic"
         in2="result6"
         id="feComposite13482" />
      <feColorMatrix
         result="fbSourceGraphicAlpha"
         in="result2"
         values="1 0 0 -1 0 1 0 1 -1 0 1 0 0 -1 0 -0.8 -1 0 3.9 -2.7 "
         type="matrix"
         id="feColorMatrix13484" />
      <feGaussianBlur
         result="result0"
         in="fbSourceGraphicAlpha"
         stdDeviation="0.5"
         id="feGaussianBlur13486" />
      <feDiffuseLighting
         lighting-color="#ffffff"
         diffuseConstant="0.69999999"
         surfaceScale="50"
         result="result13"
         in="result0"
         id="feDiffuseLighting13490">
        <feDistantLight
           elevation="20"
           azimuth="225"
           id="feDistantLight13488" />
      </feDiffuseLighting>
      <feSpecularLighting
         specularExponent="20"
         specularConstant="0.69999999"
         surfaceScale="10"
         lighting-color="#ffffff"
         result="result1"
         in="result0"
         id="feSpecularLighting13494">
        <feDistantLight
           elevation="45"
           azimuth="225"
           id="feDistantLight13492" />
      </feSpecularLighting>
      <feBlend
         mode="screen"
         result="result5"
         in2="SourceGraphic"
         in="result13"
         id="feBlend13496" />
      <feComposite
         k4="0"
         k1="0"
         in="result1"
         k3="1"
         k2="1"
         operator="arithmetic"
         in2="result5"
         result="result9"
         id="feComposite13498" />
      <feComposite
         in2="SourceGraphic"
         operator="in"
         id="feComposite13500"
         result="fbSourceGraphic" />
      <feColorMatrix
         result="fbSourceGraphicAlpha"
         in="fbSourceGraphic"
         values="0 0 0 -1 0 0 0 0 -1 0 0 0 0 -1 0 0 0 0 1 0"
         id="feColorMatrix13604" />
      <feComposite
         k4="0"
         k3="0"
         in2="fbSourceGraphic"
         id="feComposite13606"
         operator="arithmetic"
         k1="0"
         k2="1"
         result="composite1"
         in="fbSourceGraphic" />
      <feColorMatrix
         id="feColorMatrix13608"
         in="composite1"
         values="1"
         type="saturate"
         result="colormatrix1" />
      <feFlood
         id="feFlood13610"
         flood-opacity="0.627451"
         flood-color="rgb(255,0,0)"
         result="flood1" />
      <feBlend
         in2="colormatrix1"
         id="feBlend13612"
         in="flood1"
         mode="multiply"
         result="blend1" />
      <feBlend
         in2="blend1"
         id="feBlend13614"
         mode="screen"
         result="blend2" />
      <feColorMatrix
         id="feColorMatrix13616"
         in="blend2"
         values="1"
         type="saturate"
         result="colormatrix2" />
      <feComposite
         in2="fbSourceGraphic"
         id="feComposite13618"
         in="colormatrix2"
         operator="in"
         result="composite2" />
    </filter>
  </defs>
  <sodipodi:namedview
     id="namedview2"
     pagecolor="#ffffff"
     bordercolor="#666666"
     borderopacity="1.0"
     inkscape:showpageshadow="2"
     inkscape:pageopacity="0.0"
     inkscape:pagecheckerboard="0"
     inkscape:deskcolor="#d1d1d1"
     inkscape:zoom="7.5333333"
     inkscape:cx="-59.20354"
     inkscape:cy="50.575221"
     inkscape:window-width="3840"
     inkscape:window-height="2054"
     inkscape:window-x="-11"
     inkscape:window-y="-11"
     inkscape:window-maximized="1"
     inkscape:current-layer="svg2" />
  <filter
     id="a"
     x="-0.1200879"
     y="-0.099474059"
     width="1.2902124"
     height="1.2403956">
    <feGaussianBlur
       in="SourceAlpha"
       result="blur"
       stdDeviation="2"
       id="feGaussianBlur1" />
    <feOffset
       dx="2"
       dy="2"
       result="offsetBlur"
       id="feOffset1" />
    <feBlend
       in="SourceGraphic"
       in2="offsetBlur"
       mode="normal"
       id="feBlend1" />
  </filter>
  <g
     filter="url(#a)"
     transform="translate(5 5)"
     id="g1">
    <path
       d="m18.495 1.628c-3.456.929-6.977 1.698-10.327 2.948-.609.259-.384 1.123-.596 1.636-2.415 14.123-4.33 28.348-6.626 42.488-.206.557.615.452.937.48 8.671.116 17.344.02 26.016.01 4.197-.052 8.399.036 12.592-.132.81.018.103-1.093.187-1.573-2.01-13.24-3.891-26.51-6.066-39.72-.253-1.05-.266-2.217-.749-3.182-1.952-.847-4.093-1.218-6.133-1.84-2.23-.596-4.46-1.222-6.702-1.76z"
       fill="#feec99"
       id="path1" />
  </g>
  <path
     id="path7108-1"
     style="font-style:normal;font-variant:normal;font-weight:normal;font-stretch:normal;font-size:34.6667px;line-height:1.25;font-family:'cwTeX Q Kai';-inkscape-font-specification:'cwTeX Q Kai';letter-spacing:0px;word-spacing:0px;opacity:0.99;fill:#fd0000;fill-opacity:1;stroke:none;stroke-width:1.02532;stroke-miterlimit:4;stroke-dasharray:none;stroke-opacity:1"
     d="m 23.203212,17.282618 c -0.09125,0.0087 -0.179332,0.03155 -0.285226,0.06271 -0.534749,0.157344 -1.223666,0.580856 -1.381586,0.851607 -0.130351,0.223387 -0.130586,0.239106 -0.0121,0.58055 0.08972,0.258575 0.237538,0.461626 0.560321,0.774739 0.24087,0.233634 0.480109,0.527154 0.532,0.651346 0.149463,0.357546 0.203066,2.682039 0.109229,4.761718 -0.09679,2.146375 -0.117267,2.278812 -0.347924,2.310059 -0.09249,0.01255 -1.166504,0.22287 -2.38693,0.467272 -4.419926,0.885132 -4.648247,0.92266 -5.429248,0.86779 l -0.6473,-0.04653 v 0.358038 c 0,0.414713 0.117976,0.696401 0.455133,1.090301 0.287769,0.336194 0.609424,0.562982 1.464525,1.035683 0.352467,0.194841 0.804821,0.446374 1.005344,0.558298 0.467847,0.261158 0.661295,0.238366 1.814468,-0.22251 1.186488,-0.474215 3.372434,-1.061584 3.495432,-0.938589 0.03629,0.03633 -0.264237,1.397248 -0.418723,1.895383 -0.871519,2.810159 -1.571509,4.349053 -2.872401,6.315241 -1.706605,2.579337 -4.252265,5.022256 -7.385319,7.089981 -0.949289,0.626496 -1.108504,0.756162 -1.108504,0.904202 v 0.173961 l 0.63112,-0.01618 c 0.957551,-0.02429 2.908192,-0.538627 4.264104,-1.124686 1.922497,-0.830931 3.464569,-1.90355 4.980174,-3.461044 0.455584,-0.468173 0.881535,-0.932347 0.946684,-1.031638 0.06511,-0.09935 0.142786,-0.18003 0.173969,-0.18003 0.129355,0 0.890208,0.783166 1.207618,1.244033 0.34894,0.506679 0.818006,1.440834 0.972974,1.931793 0.201528,0.638441 0.385155,0.888836 1.025572,1.405859 0.414326,0.334496 0.613157,0.426875 1.12873,0.529979 0.809384,0.161884 1.665111,-0.378757 1.929768,-1.219761 0.126249,-0.401224 0.165438,-1.039471 0.085,-1.399791 -0.09422,-0.421899 -0.32915,-1.024191 -0.505701,-1.296628 -0.381934,-0.589326 -1.17767,-1.255867 -1.895379,-1.587911 -0.915358,-0.423468 -1.549227,-0.609601 -2.744974,-0.803061 l -0.260935,-0.04046 0.121368,-0.184076 c 1.2092,-1.824357 2.302361,-4.316998 2.755074,-6.278832 0.04552,-0.197257 0.106429,-0.372435 0.135528,-0.390403 0.02902,-0.01794 0.199467,0.312558 0.378273,0.734282 0.59067,1.393094 2.663809,5.368181 3.444862,6.604506 0.03557,0.05632 0.177248,0.302075 0.315555,0.54616 1.088763,1.921388 3.049454,4.736295 3.766495,5.406997 0.571302,0.534389 0.704953,0.574926 2.132045,0.665507 0.694708,0.04409 1.340348,0.0917 1.434185,0.105184 0.09393,0.01303 0.679055,0.01218 1.298649,-0.004 2.172132,-0.05701 3.289924,-0.227459 3.380132,-0.511773 0.02317,-0.07303 0.08397,-0.131483 0.135528,-0.131483 0.14696,0 0.181924,-0.115435 0.0688,-0.228579 -0.0567,-0.05666 -0.10317,-0.146307 -0.10317,-0.198237 0,-0.116909 -0.269496,-0.370988 -0.710007,-0.66753 -0.184231,-0.12402 -0.895572,-0.642505 -1.579824,-1.153006 -0.684262,-0.510491 -1.479577,-1.096161 -1.76794,-1.302697 -0.64086,-0.459004 -2.203622,-1.68218 -2.662036,-2.083503 -0.04285,-0.03754 -0.276674,-0.236029 -0.51986,-0.440974 -1.987452,-1.675025 -4.343263,-4.583524 -6.885683,-8.50191 -0.69347,-1.068768 -1.235939,-1.960627 -1.235939,-2.028887 0,-0.07148 0.173874,-0.1093 1.272348,-0.283195 2.830414,-0.448052 4.959577,-0.652003 6.986822,-0.665509 0.98458,-0.0066 1.05221,-0.01491 1.387657,-0.190145 0.977494,-0.510642 0.991745,-1.668729 0.03036,-2.490091 -0.281965,-0.240884 -0.584887,-0.396575 -1.328988,-0.685734 -1.923585,-0.747512 -2.055462,-0.754066 -2.977589,-0.165871 -0.491727,0.313656 -0.854672,0.436166 -1.685012,0.564366 -0.356741,0.05508 -0.908665,0.148249 -1.227849,0.20835 -0.319194,0.06014 -0.750272,0.138583 -0.956794,0.173963 -0.206542,0.03537 -0.481741,0.09551 -0.61292,0.133506 -0.13119,0.038 -0.303024,0.06878 -0.380282,0.06878 -0.162484,0 -0.159377,-0.03232 0.143616,-2.465818 0.236759,-1.901526 0.329305,-2.340623 0.56032,-2.641801 0.365387,-0.476403 0.433253,-0.801796 0.277126,-1.322926 -0.216118,-0.721314 -1.666237,-1.810397 -3.094918,-2.324218 -0.828647,-0.298052 -1.121861,-0.388296 -1.395736,-0.362084 z"
     sodipodi:nodetypes="cscssccssccssscccscssccsscsssscscsscccsssscssccsscssssscsscsssssscsssscsccc" />
</svg>
