<?xml version="1.0" encoding="UTF-8" standalone="no"?>
<svg
   xmlns:dc="http://purl.org/dc/elements/1.1/"
   xmlns:cc="http://creativecommons.org/ns#"
   xmlns:rdf="http://www.w3.org/1999/02/22-rdf-syntax-ns#"
   xmlns:svg="http://www.w3.org/2000/svg"
   xmlns="http://www.w3.org/2000/svg"
   xmlns:sodipodi="http://sodipodi.sourceforge.net/DTD/sodipodi-0.dtd"
   xmlns:inkscape="http://www.inkscape.org/namespaces/inkscape"
   inkscape:version="1.0 (4035a4fb49, 2020-05-01)"
   sodipodi:docname="0TOKyoto.svg"
   id="svg1717"
   version="1.1"
   height="60"
   width="52.157">
  <metadata
     id="metadata1723">
    <rdf:RDF>
      <cc:Work
         rdf:about="">
        <dc:format>image/svg+xml</dc:format>
        <dc:type
           rdf:resource="http://purl.org/dc/dcmitype/StillImage" />
        <dc:title />
      </cc:Work>
    </rdf:RDF>
  </metadata>
  <defs
     id="defs1721">
    <filter
       id="drop-shadow-6">
      <feGaussianBlur
         id="feGaussianBlur5056-9"
         stdDeviation="2"
         result="blur"
         in="SourceAlpha" />
      <feOffset
         id="feOffset5058-0"
         dy="2"
         dx="2"
         result="offsetBlur" />
      <feBlend
         id="feBlend5060-9"
         mode="normal"
         in2="offsetBlur"
         in="SourceGraphic" />
    </filter>
  </defs>
  <sodipodi:namedview
     inkscape:document-rotation="0"
     inkscape:snap-nodes="false"
     inkscape:current-layer="layer3"
     inkscape:window-maximized="1"
     inkscape:window-y="-8"
     inkscape:window-x="-8"
     inkscape:cy="19.679961"
     inkscape:cx="-18.480091"
     inkscape:zoom="10.666584"
     showgrid="false"
     id="namedview1719"
     inkscape:window-height="705"
     inkscape:window-width="1366"
     inkscape:pageshadow="2"
     inkscape:pageopacity="0"
     guidetolerance="10"
     gridtolerance="10"
     objecttolerance="10"
     borderopacity="1"
     bordercolor="#666666"
     pagecolor="#ffffff" />
  <!--
Created by Hari Seldon and modified by orangain, licensed under Creative Commons Attribution-Share Alike 3.0 Unported.
See: https://creativecommons.org/licenses/by-sa/3.0/deed.en

Original file is available at: https://commons.wikimedia.org/wiki/File:Shogi_gyokusho(svg).svg
-->
  <filter
     id="drop-shadow">
    <feGaussianBlur
       id="feGaussianBlur1692"
       stdDeviation="2"
       result="blur"
       in="SourceAlpha" />
    <feOffset
       id="feOffset1694"
       dy="2"
       dx="2"
       result="offsetBlur" />
    <feBlend
       id="feBlend1696"
       mode="normal"
       in2="offsetBlur"
       in="SourceGraphic" />
  </filter>
  <g
     inkscape:label="Koma"
     id="layer3"
     inkscape:groupmode="layer">
    <g
       id="g9438"
       style="display:inline"
       transform="matrix(1.3333333,0,0,-1.3333333,-70.30806,375.85074)">
      <g
         transform="matrix(0.75000002,0,0,-0.75000002,80.451421,282.09707)"
         id="g5765"
         style="fill:#ffd5e5;fill-opacity:1;filter:url(#drop-shadow-6)">
        <path
           d="m -10.959999,6.2374999 c -4.319,1 -8.69,2.088 -12.838,3.608 -1.492,6.3310001 -2.103,12.8800001 -3.191,19.3050001 -1.285,8.332 -2.439,16.689 -3.86,24.997 4.847,0.346 10,0.05 14.963,0.148 H 9.0850008 c -0.585,-5.657 -1.718,-11.523 -2.502,-17.26 -1.462,-8.96 -2.486,-18.012 -4.288,-26.903 -0.885,-1.0930001 -2.79899998,-0.9570001 -4.037,-1.5640001 -3.053,-0.81 -6.099,-1.875 -9.2179998,-2.332 z"
           id="path5763"
           inkscape:connector-curvature="0"
           style="fill:#feec99;fill-opacity:1" />
      </g>
    </g>
    <g
       transform="matrix(1.2628892,0,0,1.2628892,31.177772,16.518588)"
       id="text33100"
       style="font-style:normal;font-variant:normal;font-weight:normal;font-stretch:normal;font-size:26.66666603px;line-height:1.25;font-family:KaiTi;-inkscape-font-specification:KaiTi;letter-spacing:0px;word-spacing:0px;opacity:1;fill:#000000;fill-opacity:1;stroke:#000000;stroke-width:0.45750472;stroke-miterlimit:4;stroke-dasharray:none;stroke-opacity:1"
       aria-label="ã¨">
      <path
         inkscape:connector-curvature="0"
         id="path33102"
         style="font-style:normal;font-variant:normal;font-weight:normal;font-stretch:normal;font-family:'cwTeX Q Kai';-inkscape-font-specification:'cwTeX Q Kai';fill:#000000;stroke:#000000;stroke-width:0.45750472;stroke-miterlimit:4;stroke-dasharray:none;stroke-opacity:1"
         d="m 0.64971757,9.6844091 q 0.57291663,0 0.93749993,0.2864584 0.3645834,0.2864585 0.3645834,0.7031245 0,0.416667 -0.46875,0.651042 -0.46875,0.234375 -2.2395833,0.755208 l -0.3645833,0.104167 q -2.0833333,0.703125 -3.6979166,1.536458 -1.6145833,0.833334 -2.5260416,1.588542 -0.9114583,0.755208 -1.484375,1.5625 -0.5729166,0.78125 -0.7552083,1.354167 -0.1822916,0.546875 -0.1822916,1.041666 0,2.578125 5.2343748,2.578125 0.7291667,0 1.1197917,-0.02604 -0.390625,0.02604 -0.625,0.02604 0.15625,-0.07813 0.3385416,0 0.1822917,0.07813 1.2239583,-0.05208 1.0677084,-0.130208 2.39583332,-0.546875 0.83333331,-0.234375 1.35416668,-0.234375 0.9114583,0 1.4583333,0.859375 0,0.520833 -0.46875,0.833333 -0.46875,0.3125 -1.84895833,0.494792 -1.3802083,0.208333 -3.93229157,0.234375 h -2.3958333 q -0.5208333,0 -1.2499999,-0.208334 -0.7291667,-0.182291 -1.6145833,-0.598958 -0.859375,-0.442708 -1.4583335,-1.302083 -0.572916,-0.885417 -0.572916,-2.057292 0,-1.796875 1.1718745,-3.203125 1.1979166,-1.40625 3.4114582,-3.020833 -1.4322916,-1.09375 -1.4322916,-3.4114582 v -0.078125 l 0.1302083,-2.9166666 q -0.026042,-0.859375 -0.3125,-1.3802083 -0.2604166,-0.546875 -0.5729166,-0.703125 -0.3125,-0.1822916 -0.703125,-0.3645833 -0.390625,-0.1822917 -0.546875,-0.3645833 -0.026042,-0.2604167 0.2864583,-0.390625 0.3125,-0.1302083 0.4947917,-0.1302083 2.2656249,0.3645833 2.9166666,1.7968749 -0.3645833,2.1354166 -0.3645833,4.0624999 0,3.0208332 1.1979166,3.0208332 0.2083333,0 2.5520833,-1.015625 2.36979159,-1.041667 3.22916657,-1.4843749 z" />
    </g>
  </g>
  <g
     style="display:inline"
     inkscape:label="Rook"
     id="layer2"
     inkscape:groupmode="layer" />
  <g
     style="display:inline"
     inkscape:label="Pawn"
     id="layer1"
     inkscape:groupmode="layer" />
</svg>
