<svg height="60" width="51.988" xmlns="http://www.w3.org/2000/svg" xmlns:xlink="http://www.w3.org/1999/xlink"><filter id="a"><feGaussianBlur in="SourceAlpha" result="blur" stdDeviation="2"/><feOffset dx="2" dy="2" result="offsetBlur"/><feBlend in="SourceGraphic" in2="offsetBlur" mode="normal"/></filter><g filter="url(#a)" transform="matrix(.86 0 0 .86 7 8)"><path d="m7.507 4.392-6.744 44.72 40.64.178-7.454-44.898-12.6-3.727z" fill="#feec99" transform="matrix(-1 0 0 -1 41.988 50)"/></g><path d="m26.478477 21.406204c1.333333-.25 2.375-.541667 3.125-.875s1.458333-.291667 2.125.125.458333.875-.625 1.375c-1.083333.416667-2.625.583333-4.625.5l-.125 3.875c2.666667-.416667 4.666667-.75 6-1 1.416667-.25 2.375-.166667 2.875.25s.75.75.75 1c.08333.25-.5.375-1.75.375s-2.666667.08333-4.25.25c-1.5.166667-3.416667.416667-5.75.75.583333.166667 1.083333.416667 1.5.75s.5.75.25 1.25-.333333 1.375-.25 2.625c.08333 1.25.08333 2.291667 0 3.125s-.25 1.416667-.5 1.75c-.166667.25-.458333.08333-.875-.5-.416667-.583333-.541667-1.208333-.375-1.875.166667-.75.208333-1.75.125-3 0-1.25-.08333-2.125-.25-2.625-.166667-.5-.333333-.958333-.5-1.375-4.416667.916667-6.916667 1.458333-7.5 1.625s-1.291667 0-2.125-.5c-.75-.583333-.708333-.875.125-.875.916667 0 2.708333-.25 5.375-.75-.166667-2.666667-.458333-4.25-.875-4.75s-.541667-.833333-.375-1 .708333-.125 1.625.125c1 .166667 1.416667.583333 1.25 1.25s-.208333 2.041667-.125 4.125c1.25-.25 2.625-.5 4.125-.75 0-3-.08333-5.166667-.25-6.5-.08333-1.416667-.291667-2.375-.625-2.875s-.25-.708333.25-.625c.5 0 1.125.166667 1.875.5.75.25 1 .583333.75 1-.25.333333-.375 1.416667-.375 3.25zm6.088467 9.516873c.666667.583333.75 1 .25 1.25-.416667.25-2.213467 2.399794-2.963467 3.483127-.666667 1-1.708333 2.166667-3.125 3.5-1.333333 1.333333-1.992333 1.759594-4.925847 3.622881-2.445691 1.070227-2.155656 1.003538-4.6079 1.792857-.987654.146319-1.639553.24149-1.84166.224691-.258317-.02147.218151-.225857 1.667511-.740146 2.666667-.833333 3.603484-1.733616 5.686817-3.150283 2.166667-1.416667 3.062746-3.041667 4.396079-4.875 1.416667-1.916667 3.2968-4.69146 3.213467-5.358127-.712535-.974716-.594091-1.221439.625-.875.506973.144071 1.041667.541667 1.625 1.125zm-.90165 5.973192c1.333333.333333 2.25.75 2.75 1.25.583333.5.75676 1.202668.625 2.125-.118437.829072-.541667.916667-1.375.25-.75-.666667-1.5-1.25-2.25-1.75-.75-.583333-1.375-1.083333-1.875-1.5-.5-.5-.625-.791667-.375-.875.333333-.08333 1.166667.08333 2.5.5zm-12.686817-4.740065c.416667-.833333.708333-1.25.875-1.25.25-.08333.333333.5.25 1.75 0 1.25-.458333 2.541667-1.375 3.875-.916667 1.25-1.5 1.375-1.75.375-.166667-1 .04167-1.833333.625-2.5.583333-.75 1.041667-1.5 1.375-2.25z" stroke="#000" transform="matrix(-1 0 0 -1 50.26705 57.666884)"/></svg>