<?xml version="1.0" encoding="UTF-8" standalone="no"?>
<svg
   xmlns:dc="http://purl.org/dc/elements/1.1/"
   xmlns:cc="http://creativecommons.org/ns#"
   xmlns:rdf="http://www.w3.org/1999/02/22-rdf-syntax-ns#"
   xmlns:svg="http://www.w3.org/2000/svg"
   xmlns="http://www.w3.org/2000/svg"
   xmlns:sodipodi="http://sodipodi.sourceforge.net/DTD/sodipodi-0.dtd"
   xmlns:inkscape="http://www.inkscape.org/namespaces/inkscape"
   inkscape:version="1.0 (4035a4fb49, 2020-05-01)"
   sodipodi:docname="1FUKyoto.svg"
   id="svg1717"
   version="1.1"
   height="60"
   width="52.157">
  <metadata
     id="metadata1723">
    <rdf:RDF>
      <cc:Work
         rdf:about="">
        <dc:format>image/svg+xml</dc:format>
        <dc:type
           rdf:resource="http://purl.org/dc/dcmitype/StillImage" />
        <dc:title />
      </cc:Work>
    </rdf:RDF>
  </metadata>
  <defs
     id="defs1721">
    <filter
       id="drop-shadow-2-88">
      <feGaussianBlur
         id="feGaussianBlur6807-1"
         stdDeviation="2"
         result="blur"
         in="SourceAlpha" />
      <feOffset
         id="feOffset6809-5"
         dy="2"
         dx="2"
         result="offsetBlur" />
      <feBlend
         id="feBlend6811-7"
         mode="normal"
         in2="offsetBlur"
         in="SourceGraphic" />
    </filter>
  </defs>
  <sodipodi:namedview
     inkscape:document-rotation="0"
     inkscape:current-layer="g8876"
     inkscape:window-maximized="1"
     inkscape:window-y="-8"
     inkscape:window-x="-8"
     inkscape:cy="29.307675"
     inkscape:cx="-16.719423"
     inkscape:zoom="7.5424136"
     showgrid="false"
     id="namedview1719"
     inkscape:window-height="705"
     inkscape:window-width="1366"
     inkscape:pageshadow="2"
     inkscape:pageopacity="0"
     guidetolerance="10"
     gridtolerance="10"
     objecttolerance="10"
     borderopacity="1"
     bordercolor="#666666"
     pagecolor="#ffffff" />
  <!--
Created by Hari Seldon and modified by orangain, licensed under Creative Commons Attribution-Share Alike 3.0 Unported.
See: https://creativecommons.org/licenses/by-sa/3.0/deed.en

Original file is available at: https://commons.wikimedia.org/wiki/File:Shogi_gyokusho(svg).svg
-->
  <filter
     id="drop-shadow">
    <feGaussianBlur
       id="feGaussianBlur1692"
       stdDeviation="2"
       result="blur"
       in="SourceAlpha" />
    <feOffset
       id="feOffset1694"
       dy="2"
       dx="2"
       result="offsetBlur" />
    <feBlend
       id="feBlend1696"
       mode="normal"
       in2="offsetBlur"
       in="SourceGraphic" />
  </filter>
  <g
     transform="matrix(1,0,0,-1,-95.640972,81.118732)"
     id="g8876"
     style="display:inline">
    <g
       style="fill:#feec99;fill-opacity:1;filter:url(#drop-shadow-2-88)"
       transform="matrix(0.98185054,0,0,-0.98185054,-4.3605036,104.33768)"
       id="g7764">
      <g
         transform="rotate(180,45.578499,23.8125)"
         id="g7762"
         style="fill:#feec99;fill-opacity:1">
        <path
           style="fill:#feec99;fill-opacity:1"
           inkscape:connector-curvature="0"
           d="m -37.299339,-31.009999 c -4.096,1.034 -8.171,2.152 -12.207999,3.395 -0.467,0.163 -1.13,0.263 -1.201,0.865 -0.709,3.416 -1.178,6.885 -1.737,10.331 -1.73,11.2549998 -3.378,22.5279998 -5.1,33.78 0.155,0.682 1.013,0.424 1.51,0.48 12.893999,0.025 25.787999,0.03 38.679999,-0.033 0.672,-0.156 0.28,-0.952 0.279,-1.409 -2.011,-13.1200002 -3.876,-26.2630002 -5.998,-39.366 -0.277,-1.356 -0.348,-2.782 -0.816,-4.087 -0.347,-0.497 -1.073,-0.468 -1.588,-0.704 -3.832,-1.137 -7.673,-2.267 -11.55,-3.231 -0.09,-0.017 -0.18,-0.032 -0.271,-0.021 z"
           id="path7760"
           sodipodi:nodetypes="ccccccccccccc" />
      </g>
    </g>
    <g
       transform="matrix(-1,0,0,1,146.30856,22.307497)"
       id="text2778"
       style="font-style:normal;font-variant:normal;font-weight:normal;font-stretch:normal;font-size:26.66666603px;line-height:1.25;font-family:KaiTi;-inkscape-font-specification:KaiTi;letter-spacing:0px;word-spacing:0px;fill:#000000;fill-opacity:1;stroke:#000000;stroke-width:1;stroke-miterlimit:4;stroke-dasharray:none;stroke-opacity:1"
       aria-label="歩">
      <path
         sodipodi:nodetypes="cssccccscsccsssscsccscscscsscscccsccccccccccsccccscccscccccccccccc"
         inkscape:connector-curvature="0"
         id="path10836"
         style="font-style:normal;font-variant:normal;font-weight:normal;font-stretch:normal;font-size:32px;font-family:KaiTi;-inkscape-font-specification:KaiTi;stroke:#000000;stroke-width:1;stroke-miterlimit:4;stroke-dasharray:none;stroke-opacity:1"
         d="m 26.478477,21.406204 c 1.333333,-0.25 2.375,-0.541667 3.125,-0.875 0.75,-0.333333 1.458333,-0.291667 2.125,0.125 0.666667,0.416667 0.458333,0.875 -0.625,1.375 -1.083333,0.416667 -2.625,0.583333 -4.625,0.5 l -0.125,3.875 c 2.666667,-0.416667 4.666667,-0.75 6,-1 1.416667,-0.25 2.375,-0.166667 2.875,0.25 0.5,0.416667 0.75,0.75 0.75,1 0.08333,0.25 -0.5,0.375 -1.75,0.375 -1.25,0 -2.666667,0.08333 -4.25,0.25 -1.5,0.166667 -3.416667,0.416667 -5.75,0.75 0.583333,0.166667 1.083333,0.416667 1.5,0.75 0.416667,0.333333 0.5,0.75 0.25,1.25 -0.25,0.5 -0.333333,1.375 -0.25,2.625 0.08333,1.25 0.08333,2.291667 0,3.125 -0.08333,0.833333 -0.25,1.416667 -0.5,1.75 -0.166667,0.25 -0.458333,0.08333 -0.875,-0.5 -0.416667,-0.583333 -0.541667,-1.208333 -0.375,-1.875 0.166667,-0.75 0.208333,-1.75 0.125,-3 0,-1.25 -0.08333,-2.125 -0.25,-2.625 -0.166667,-0.5 -0.333333,-0.958333 -0.5,-1.375 -4.416667,0.916667 -6.916667,1.458333 -7.5,1.625 -0.583333,0.166667 -1.291667,0 -2.125,-0.5 -0.75,-0.583333 -0.708333,-0.875 0.125,-0.875 0.916667,0 2.708333,-0.25 5.375,-0.75 -0.166667,-2.666667 -0.458333,-4.25 -0.875,-4.75 -0.416667,-0.5 -0.541667,-0.833333 -0.375,-1 0.166667,-0.166667 0.708333,-0.125 1.625,0.125 1,0.166667 1.416667,0.583333 1.25,1.25 -0.166667,0.666667 -0.208333,2.041667 -0.125,4.125 1.25,-0.25 2.625,-0.5 4.125,-0.75 0,-3 -0.08333,-5.166667 -0.25,-6.5 -0.08333,-1.416667 -0.291667,-2.375 -0.625,-2.875 -0.333333,-0.5 -0.25,-0.708333 0.25,-0.625 0.5,0 1.125,0.166667 1.875,0.5 0.75,0.25 1,0.583333 0.75,1 -0.25,0.333333 -0.375,1.416667 -0.375,3.25 z m 6.088467,9.516873 c 0.666667,0.583333 0.75,1 0.25,1.25 -0.416667,0.25 -2.213467,2.399794 -2.963467,3.483127 -0.666667,1 -1.708333,2.166667 -3.125,3.5 -1.333333,1.333333 -1.992333,1.759594 -4.925847,3.622881 -2.445691,1.070227 -2.155656,1.003538 -4.6079,1.792857 -0.902589,0.133717 -1.524769,0.224717 -1.779502,0.226578 -0.380272,0.0028 0.05833,-0.193088 1.605353,-0.742033 2.666667,-0.833333 3.603484,-1.733616 5.686817,-3.150283 2.166667,-1.416667 3.062746,-3.041667 4.396079,-4.875 1.416667,-1.916667 3.2968,-4.69146 3.213467,-5.358127 -0.712535,-0.974716 -0.594091,-1.221439 0.625,-0.875 0.506973,0.144071 1.041667,0.541667 1.625,1.125 z m -0.90165,5.973192 c 1.333333,0.333333 2.25,0.75 2.75,1.25 0.583333,0.5 0.75676,1.202668 0.625,2.125 -0.118437,0.829072 -0.541667,0.916667 -1.375,0.25 -0.75,-0.666667 -1.5,-1.25 -2.25,-1.75 -0.75,-0.583333 -1.375,-1.083333 -1.875,-1.5 -0.5,-0.5 -0.625,-0.791667 -0.375,-0.875 0.333333,-0.08333 1.166667,0.08333 2.5,0.5 z M 18.978477,32.156204 c 0.416667,-0.833333 0.708333,-1.25 0.875,-1.25 0.25,-0.08333 0.333333,0.5 0.25,1.75 0,1.25 -0.458333,2.541667 -1.375,3.875 -0.916667,1.25 -1.5,1.375 -1.75,0.375 -0.166667,-1 0.04167,-1.833333 0.625,-2.5 0.583333,-0.75 1.041667,-1.5 1.375,-2.25 z" />
    </g>
  </g>
</svg>
