<?xml version="1.0" encoding="UTF-8" standalone="no"?>
<svg
   xmlns:dc="http://purl.org/dc/elements/1.1/"
   xmlns:cc="http://creativecommons.org/ns#"
   xmlns:rdf="http://www.w3.org/1999/02/22-rdf-syntax-ns#"
   xmlns:svg="http://www.w3.org/2000/svg"
   xmlns="http://www.w3.org/2000/svg"
   xmlns:sodipodi="http://sodipodi.sourceforge.net/DTD/sodipodi-0.dtd"
   xmlns:inkscape="http://www.inkscape.org/namespaces/inkscape"
   width="52.157"
   height="60"
   version="1.1"
   id="svg889"
   sodipodi:docname="1BlackKing1.svg"
   inkscape:version="0.92.4 (5da689c313, 2019-01-14)">
  <metadata
     id="metadata895">
    <rdf:RDF>
      <cc:Work
         rdf:about="">
        <dc:format>image/svg+xml</dc:format>
        <dc:type
           rdf:resource="http://purl.org/dc/dcmitype/StillImage" />
        <dc:title></dc:title>
      </cc:Work>
    </rdf:RDF>
  </metadata>
  <defs
     id="defs893" />
  <sodipodi:namedview
     pagecolor="#ffffff"
     bordercolor="#666666"
     borderopacity="1"
     objecttolerance="10"
     gridtolerance="10"
     guidetolerance="10"
     inkscape:pageopacity="0"
     inkscape:pageshadow="2"
     inkscape:window-width="1920"
     inkscape:window-height="1017"
     id="namedview891"
     showgrid="false"
     inkscape:zoom="7.8666667"
     inkscape:cx="47.370332"
     inkscape:cy="13.658857"
     inkscape:window-x="-8"
     inkscape:window-y="-8"
     inkscape:window-maximized="1"
     inkscape:current-layer="svg889" />
  <!--
Created by Hari Seldon and modified by orangain, licensed under Creative Commons Attribution-Share Alike 3.0 Unported.
See: https://creativecommons.org/licenses/by-sa/3.0/deed.en

Original file is available at: https://commons.wikimedia.org/wiki/File:Shogi_gyokusho(svg).svg
-->
  <filter
     id="drop-shadow">
    <feGaussianBlur
       in="SourceAlpha"
       result="blur"
       stdDeviation="2"
       id="feGaussianBlur862" />
    <feOffset
       result="offsetBlur"
       dx="2"
       dy="2"
       id="feOffset864" />
    <feBlend
       in="SourceGraphic"
       in2="offsetBlur"
       mode="normal"
       id="feBlend866" />
  </filter>
  <g
     filter="url(#drop-shadow)"
     transform="translate(5 5)"
     id="g887">
    <g
       transform="rotate(180 21.0785 25)"
       id="g885">
      <path
         d="M20.915 1.05c-4.319 1 -8.69 2.088 -12.838 3.608 -1.492 6.331 -2.103 12.88 -3.191 19.305 -1.285 8.332 -2.439 16.689 -3.86 24.997 4.847 0.346 10 0.05 14.963 0.148l24.971 0c-0.585 -5.657 -1.718 -11.523 -2.502 -17.26 -1.462 -8.96 -2.486 -18.012 -4.288 -26.903 -0.885 -1.093 -2.799 -0.957 -4.037 -1.564 -3.053 -0.81 -6.099 -1.875 -9.218 -2.332z"
         fill="#FEEC99"
         id="path869" />
    </g>
  </g>
  <g
     aria-label="玉"
     transform="scale(-1)"
     style="font-style:normal;font-variant:normal;font-weight:normal;font-stretch:normal;font-size:39.58657074px;line-height:1.25;font-family:KaiTi;-inkscape-font-specification:KaiTi;letter-spacing:0px;word-spacing:0px;fill:#000000;fill-opacity:1;stroke:none;stroke-width:1;stroke-miterlimit:4;stroke-dasharray:none"
     id="text916">
    <path
       d="m -13.974335,-21.42408 q -0.291667,0.375 -0.458333,0.416667 -0.708334,0 -1.833334,-0.958334 l -2.958333,-2.75 q -0.125,-0.125 -0.125,-0.875 0.166666,-0.125 0.541666,-0.125 0.75,0 2.250001,0.583333 1.541666,0.541667 1.958333,0.958334 0.625,0.541666 0.625,2.75 z m -3.458333,-17.125001 q 0,0.708334 -0.958334,1.083334 -0.958333,0.333333 -1.625,0.333333 l -6.083333,1.041667 q 1.041666,0.75 1.041666,2.166666 v -0.458333 q -0.04167,0 -0.08333,1.5 l -0.08333,4.25 3.208333,-0.625 q 0.208333,-0.04167 0.625,-0.04167 1.541667,0 2.083333,0.875 0.125,0.416666 -0.333333,0.708333 -0.25,0.208333 -5.541667,1.25 l -0.166666,0.166667 q -0.333334,7.416667 -0.333334,7.458333 0,0.666667 0.04167,0.958334 l 8.416667,-0.791667 q 1.75,-0.25 3.375,-0.708333 0.875,0.166666 2.291667,0.958333 1.416666,0.791667 1.7499997,1.333333 0.1666667,0.208334 0.1666667,0.916667 -0.2916667,0.25 -1.1666664,0.25 -0.458334,0 -2.333334,-0.25 -1.875,-0.25 -4.5,-0.25 -2.875,0 -7.125,0.375 -4.25,0.375 -7.083334,0.75 l -2.791666,0.375 q -0.666667,0.08333 -2.208334,0.583333 -1.541666,0.5 -2.541666,0.5 -0.958334,0 -2.041667,-0.708333 -1.083334,-0.708333 -1.083334,-1.416667 0,-0.541666 0.375,-0.541666 3.416667,0 3.875001,-0.04167 l 10.458333,-1.083333 0.04167,-8.291667 -3.333334,0.458333 h -0.416666 q -1.958334,0 -2.916667,-1.083333 0.04167,-0.375 0.833333,-0.5 0.833334,-0.125 2.583334,-0.25 1.75,-0.166667 3.25,-0.541667 v -4.458333 q -0.125,-2.333334 -0.75,-3.333334 l -3.666667,0.166667 -1.291667,-0.208334 q -1.125,-0.291666 -1.75,-1.125 0.125,-0.583333 4.458334,-0.833333 h 0.375 q 2.958333,-0.333333 6.125,-1.125 3.166667,-0.791667 4.083333,-0.791667 2.041667,0 2.750001,1 z"
       style="font-style:normal;font-variant:normal;font-weight:normal;font-stretch:normal;font-size:42.66666794px;font-family:'cwTeX Q Kai';-inkscape-font-specification:'cwTeX Q Kai';fill:#000000;stroke:#000000;stroke-width:1;stroke-miterlimit:4;stroke-dasharray:none;stroke-opacity:1"
       id="path1461" />
  </g>
</svg>
