<svg height="60" width="52.157" xmlns="http://www.w3.org/2000/svg" xmlns:xlink="http://www.w3.org/1999/xlink"><filter id="a"><feGaussianBlur in="SourceAlpha" result="blur" stdDeviation="2"/><feOffset dx="2" dy="2" result="offsetBlur"/><feBlend in="SourceGraphic" in2="offsetBlur" mode="normal"/></filter><g filter="url(#a)" transform="translate(5 5)"><path d="m20.915 1.05c-4.319 1-8.69 2.088-12.838 3.608-1.492 6.331-2.103 12.88-3.191 19.305-1.285 8.332-2.439 16.689-3.86 24.997 4.847.346 10 .05 14.963.148h24.971c-.585-5.657-1.718-11.523-2.502-17.26-1.462-8.96-2.486-18.012-4.288-26.903-.885-1.093-2.799-.957-4.037-1.564-3.053-.81-6.099-1.875-9.218-2.332z" fill="#feec99" transform="matrix(-1 0 0 -1 42.157 50)"/></g><g stroke="#000" transform="matrix(-1 0 0 -1 30.652528 21.480834)"><path d="m18.654366.07035874q-.291667.375-.458333.416666-.708334 0-1.833334-.958333l-2.958333-2.75000004q-.125-.125-.125-.875.166666-.125.541666-.125.75 0 2.25.583333 1.541667.541667 1.958334.958334.625.541666.625 2.75000004z"/><path d="m20.8285 24.613991c-1.722222 0-4.415094-.628931-5.248427-1.462264 0-.194444 1.498424-.121069 1.665094-.204402.194445-.08333.611111-.152778 1.25-.208334.666667-.08333 1.430556-.166667 2.291667-.25.888889-.08333 2.222222-.277778 4-.583333s3.694445-.694444 5.75-1.166667c.416667-.111111.902778-.166666 1.458333-.166666 1.222223 0 2.152778.375 2.791667 1.125.02778.277777-.02778.499999-.166667.666666-.138889.138889-.458333.277778-.958333.416667-.5.111111-1.027778.208334-1.583333.291667-.527778.05555-1.375.180553-2.541667.375-1.166667.194444-2.305556.402777-3.416667.625.694445.361111 1.041667.916666 1.041667 1.666666l-.208333 2.25-.125 4.041667v.04167l4.00393-.579403c.166667-.02778 1.308701-.253934 1.586479-.253934 1.083333 0 1.875.347222 2.375 1.041666-.02778.38889-.541669.722223-1.541667 1-1 .277778-3.243187.5-4.465409.666667-1.222222.138889-1.861111.222222-1.916667.25l-.125.208333-.25 8.208334c3.25-.222222 5.930556-.472222 8.041667-.75l3.583334-.625h.166666.125c.805556 0 1.652778.430556 2.541667 1.291667.916667.833333 1.375 1.472222 1.375 1.916666-.111111.194445-.388889.291667-.833333.291667-.416667 0-2.236111-.152778-5.458334-.458333l-2.666667-.166667c-2.305555 0-5.527778.194444-9.666667.583333s-6.356918.784068-7.856918 1.25629l-1.875.541667c-.02778 0-.08334.01389-.166667.04167h-.166667c-.555555 0-1.152777-.208333-1.791666-.625s-1.111112-.888889-1.416667-1.416666c0-.305556.08333-.527778.25-.666667l.190252.03538c1.611269.299616 3.833333-.166667 6.583333-.5s5-.5 6.75-.5h.166667l.125-8.25-3.75.25c-1.222222-.02778-2.917191-.233493-3.528302-.900158 0-.305555.180556-.472222.541667-.5l2.653302-.266509 4.041666-.541667v-6.083333c0-.805556-.263889-1.513889-.791666-2.125-1 .111111-1.944445.166666-2.833334.166666z" transform="translate(-21.91312 -38.895837)"/></g></svg>