<svg height="60" width="52.172" xmlns="http://www.w3.org/2000/svg" xmlns:xlink="http://www.w3.org/1999/xlink"><filter id="a"><feGaussianBlur in="SourceAlpha" result="blur" stdDeviation="2"/><feOffset dx="2" dy="2" result="offsetBlur"/><feBlend in="SourceGraphic" in2="offsetBlur" mode="normal"/></filter><g filter="url(#a)" transform="translate(5 5)"><path d="m7.635 4.498-6.729 44.856 40.488-.236-6.846-44.502-14.047-3.895z" fill="#feec99" transform="matrix(-1 0 0 -1 42.172 50)"/></g><path d="m31.617189 31.573382q.338542-.03385 2.098958-.473959 1.760417-.440104 2.640625-.440104 1.45573 0 2.369792.914063.101563.101562.03385.203125-.03385.101562-.06771.16927-.03385.03385-.169271.101563-.135417.06771-.169271.101562-.135416.03386-1.794271.03386h-.270833q-3.859375.16927-8.361979 1.320312l-1.828119.575516h-.06771-.203125q-.575521 0-1.21875-.440104l-.40625-.338542q.440104-.507812 6.026042-1.354167l.101563-.101562v-3.317709l-2.4375.270834q-.947916-.06771-1.726562-.744792 0-.236979.338542-.338542.372395-.101562 1.591145-.304687 1.286459-.203125 2.166667-.372396l-.06771-3.65625q-.101561-1.489583-.609373-2.403646-.473959-.947917-.473959-1.151042.135417-.236979.677084-.236979.169271 0 .40625.03385.270833.03385.338542.03385l1.38802.609376q.338542.236979.541667.541666-.507812 2.708334-.575521 5.721355l2.572917-.710938q.169271-.03385.507813-.03385.947916 0 1.455729.643229 0 .440104-.778646.744792-.744792.304687-3.013021.710937l-.744792.169271-.101562.101563zm6.195313 9.682292q1.658854 0 3.013021 1.38802 0 .744792-1.320313.744792-.169271 0-.609375-.03385-.440104-.03385-.541667-.03385-6.838542.03385-11.239583.846354l-2.335938.541667h-.03385q-.03385 0-.135417 0-.101562.03385-.135417.03385-.541666 0-1.117187-.304688-.575521-.338541-.778646-.744791 0-.203125.473958-.270834l7.210938-.880208.06771-3.960938q-1.117188.203125-2.031251.203125-2.369791 0-2.369791-.846354.338541-.101562 2.098958-.372396 1.760417-.304687 2.302084-.473958-.304688-2.369792-.304688-2.4375l-.304688-1.049479q0-.203125.338542-.338542.947917 0 2.098959 1.21875l-.135417 1.963542v.03385q.135417 0 .914062-.270833.778646-.270834 1.489584-.270834 1.252604 0 1.794271.744792 0 .270833-.203125.40625l-4.096355 1.049479-.203125 4.130209h.101563q1.083333 0 3.046875-.507813 1.997396-.507812 2.945313-.507812zm-20.14323-21.497397q0-.40625.981771-.40625h.203125l1.658854.981771q.677083.575521.8125 1.083333-.778646 2.539063-.778646 6.533855l2.098958-.575521q.169271-.03385.473959-.03385.541666 0 1.015625.203125.507812.203125.575521.507812-.270834.338542-1.21875.710938-.914063.338541-1.895834.609375-.981771.270833-1.015625.270833l-.101562 3.25 1.963541.609375q.64323.304688 1.015625.778646l.203125 1.117188q-.06771.372395-.609375.372395-.03385 0-.135416 0-.101563-.03385-.169271-.03385l-2.200521-1.760416q-.169271 7.007812-.169271 11.307292 0 1.049479-1.049479 1.895833-.473958-.06771-.914063-.947917-.40625-.880208-.40625-2.132812 0-.846354.203125-1.794271l.23698-.981771q.440104-1.523438.440104-5.044271 0-.8125-.03385-1.658854 0-.846355 0-1.354167-1.083334 2.234375-3.351563 4.841146-2.268229 2.606771-3.25 2.640625v-.236979q4.638021-5.890625 6.466146-10.291667l-3.385417.609375q-.270833.03385-.710937.03385-1.286459 0-1.794271-.609375l.304687-.270833 5.890625-1.421875v-1.083334-2.471354q0-2.505208-.677083-3.960938l-.575525-1.015629q-.101562-.135416-.101562-.270833z" stroke="#000" transform="matrix(-1 0 0 -1 52.116592 60.228116)"/></svg>