<?xml version="1.0" encoding="UTF-8" standalone="no"?>
<svg
   height="60"
   width="52.101"
   version="1.1"
   id="svg2"
   sodipodi:docname="1SU.svg"
   inkscape:version="1.3 (0e150ed6c4, 2023-07-21)"
   xmlns:inkscape="http://www.inkscape.org/namespaces/inkscape"
   xmlns:sodipodi="http://sodipodi.sourceforge.net/DTD/sodipodi-0.dtd"
   xmlns="http://www.w3.org/2000/svg"
   xmlns:svg="http://www.w3.org/2000/svg">
  <defs
     id="defs2">
    <filter
       id="a-8"
       x="-0.1200879"
       y="-0.099474059"
       width="1.2902124"
       height="1.2403956">
      <feGaussianBlur
         in="SourceAlpha"
         result="blur"
         stdDeviation="2"
         id="feGaussianBlur1-1" />
      <feOffset
         dx="2"
         dy="2"
         result="offsetBlur"
         id="feOffset1-6" />
      <feBlend
         in="SourceGraphic"
         in2="offsetBlur"
         mode="normal"
         id="feBlend1-4" />
    </filter>
  </defs>
  <sodipodi:namedview
     id="namedview2"
     pagecolor="#ffffff"
     bordercolor="#666666"
     borderopacity="1.0"
     inkscape:showpageshadow="2"
     inkscape:pageopacity="0.0"
     inkscape:pagecheckerboard="0"
     inkscape:deskcolor="#d1d1d1"
     inkscape:zoom="7.5333333"
     inkscape:cx="-31.725664"
     inkscape:cy="47.123894"
     inkscape:window-width="3840"
     inkscape:window-height="2054"
     inkscape:window-x="-11"
     inkscape:window-y="-11"
     inkscape:window-maximized="1"
     inkscape:current-layer="svg2" />
  <filter
     id="a"
     x="-0.1200879"
     y="-0.099474059"
     width="1.2902124"
     height="1.2403956">
    <feGaussianBlur
       in="SourceAlpha"
       result="blur"
       stdDeviation="2"
       id="feGaussianBlur1" />
    <feOffset
       dx="2"
       dy="2"
       result="offsetBlur"
       id="feOffset1" />
    <feBlend
       in="SourceGraphic"
       in2="offsetBlur"
       mode="normal"
       id="feBlend1" />
  </filter>
  <g
     filter="url(#a)"
     transform="translate(5 5)"
     id="g1">
    <path
       d="m18.495 1.628c-3.456.929-6.977 1.698-10.327 2.948-.609.259-.384 1.123-.596 1.636-2.415 14.123-4.33 28.348-6.626 42.488-.206.557.615.452.937.48 8.671.116 17.344.02 26.016.01 4.197-.052 8.399.036 12.592-.132.81.018.103-1.093.187-1.573-2.01-13.24-3.891-26.51-6.066-39.72-.253-1.05-.266-2.217-.749-3.182-1.952-.847-4.093-1.218-6.133-1.84-2.23-.596-4.46-1.222-6.702-1.76z"
       fill="#feec99"
       transform="matrix(-1 0 0 -1 42.101 50)"
       id="path1" />
  </g>
  <path
     style="fill:#000000;stroke-width:0.121081"
     d="m 28.913229,12.602001 c 0.556658,0.30977 0.61748,0.391422 0.881471,1.183397 0.280603,0.841811 0.294073,0.857811 1.293525,1.536713 0.555483,0.377324 1.429892,1.115025 1.943131,1.639334 l 0.933166,0.953291 0.53274,-0.283262 c 1.684271,-0.766703 3.531248,-1.227795 5.369992,-1.451511 1.022233,-0.115653 0.999744,0.155328 -0.05469,0.658999 -0.435852,0.208196 -0.813176,0.378538 -0.838496,0.378538 -0.02529,0 -0.627581,0.330156 -1.338363,0.733681 -1.410018,0.800491 -2.482226,1.499306 -3.324084,2.166469 -2.26783,1.797236 -5.248775,4.548951 -5.173271,4.77546 0.08769,0.263066 0.325772,0.176945 1.040202,-0.37626 0.411506,-0.318646 0.950672,-0.729982 1.198146,-0.914084 0.45516,-0.338598 2.394997,-1.315872 3.174278,-1.599175 0.233083,-0.08473 0.668977,-0.264887 0.968648,-0.400335 1.053198,-0.476029 3.275902,-1.037208 3.443667,-0.869442 0.161737,0.161739 0.02191,0.278799 -1.799265,1.506365 -1.765614,1.19011 -2.283464,1.548187 -2.370885,1.639397 -0.03331,0.03474 -0.441067,0.358968 -0.906151,0.720509 -2.145307,1.667685 -3.182511,2.735594 -2.915892,3.002208 0.03263,0.03263 0.322452,-0.109524 0.644054,-0.315898 2.087664,-1.042846 4.427193,-2.507574 6.841379,-2.574276 1.63647,-0.02461 1.597173,0.24924 -0.156919,1.093611 -0.735223,0.35391 -1.527697,0.773047 -1.76105,0.931407 -1.518214,0.933775 -3.117072,1.915912 -4.513756,3.157655 -0.718792,0.686348 -0.76524,0.757653 -0.440312,0.675982 0.199781,-0.05023 0.648962,-0.08505 0.998172,-0.0774 l 0.63493,0.0139 0.12649,-0.469768 c 0.153406,-0.569705 0.415498,-0.610631 0.96256,-0.150304 0.451168,0.37963 1.089159,1.447228 1.090762,1.825244 5.2e-4,0.147375 0.11161,0.556024 0.246641,0.908108 0.267556,0.697678 0.284422,0.737256 0.833165,1.955376 0.42639,0.94651 0.448795,1.12779 0.185819,1.503247 -0.226303,0.323085 -0.576393,0.335254 -1.13185,0.03935 -0.372402,-0.198387 -0.465995,-0.203356 -0.968649,-0.05148 -0.306031,0.09249 -1.101284,0.251564 -1.767232,0.353504 -0.665942,0.101941 -1.688903,0.258028 -2.273243,0.346864 -0.58434,0.08884 -1.141659,0.227276 -1.238489,0.307639 -0.09683,0.08036 -0.416711,0.508193 -0.710846,0.950732 -0.294134,0.442544 -0.781014,1.077058 -1.081961,1.410026 l -0.547165,0.605408 0.806936,0.07974 c 0.443814,0.04388 1.009507,0.166448 1.257101,0.272427 0.708409,0.303231 0.93048,0.241004 1.944302,-0.54485 1.223428,-0.94833 2.939263,-2.083756 3.817618,-2.526238 0.868888,-0.437719 3.516786,-1.541346 3.833247,-1.597677 0.375175,-0.06679 0.364106,0.329826 -0.01848,0.661321 -0.187218,0.162233 -0.74856,0.642383 -1.247431,1.067009 -2.71688,2.312551 -5.170023,5.055812 -5.575795,6.235212 -0.223398,0.649316 -0.223158,0.661327 0.02139,1.075794 0.136013,0.230534 0.227358,0.478985 0.202976,0.55212 -0.08326,0.24979 -1.283792,0.234218 -2.134352,-0.02768 -1.472869,-0.453514 -1.742527,-0.662601 -2.285291,-1.771973 -0.315649,-0.645161 -0.319026,-0.674524 -0.117808,-1.025125 0.205537,-0.358127 0.205006,-0.360364 -0.06819,-0.287541 -0.151438,0.04038 -0.656746,0.165787 -1.122908,0.278715 -0.493681,0.119594 -1.09289,0.372885 -1.435117,0.60663 -0.444642,0.303694 -0.66551,0.383017 -0.908106,0.326141 -0.56569,-0.132638 -1.702982,-0.792776 -2.26091,-1.312344 -0.487535,-0.45402 -0.54181,-0.559443 -0.54181,-1.052469 0,-0.651542 0.171438,-0.839072 1.02919,-1.125801 0.332968,-0.111309 0.877833,-0.354842 1.210808,-0.541192 1.092297,-0.611303 3.267022,-1.945468 3.171165,-1.945468 -0.05157,0 -0.486536,0.07738 -0.966541,0.17197 -0.480005,0.09458 -1.19965,0.205506 -1.599218,0.246489 -1.786436,0.183253 -2.509438,0.344866 -2.816692,0.629623 -0.438803,0.406666 -0.84219,0.349783 -1.784386,-0.251622 -2.070313,-1.321482 -2.239999,-1.505073 -2.239999,-2.423552 0,-0.511714 0.03674,-0.582201 0.421609,-0.809288 0.305089,-0.180006 0.551813,-0.505158 0.892713,-1.176461 0.259105,-0.510231 0.559421,-1.091157 0.667373,-1.290944 0.107947,-0.199781 0.196607,-0.423054 0.197018,-0.496159 0.001,-0.225932 1.403725,-1.484515 1.75148,-1.571796 0.404209,-0.101447 0.95392,0.263856 1.014472,0.674155 l 0.04091,0.277033 2.380732,-0.08353 c 2.141263,-0.07512 2.396959,-0.10653 2.542048,-0.312214 0.08872,-0.125776 0.29298,-0.381785 0.453905,-0.568898 0.160927,-0.18712 0.292658,-0.370597 0.29274,-0.407723 8.3e-5,-0.03711 -0.210081,-0.16026 -0.467025,-0.273625 -0.256945,-0.113364 -0.597486,-0.320109 -0.756758,-0.459432 -0.159271,-0.139324 -0.513088,-0.414665 -0.786264,-0.611875 -0.506355,-0.365538 -1.743314,-1.883569 -1.743314,-2.139437 0,-0.247114 -0.211907,-0.154306 -0.809934,0.354712 -1.201597,1.022768 -2.693919,2.698098 -2.774736,3.115007 -0.08931,0.460671 -0.588822,1.111349 -0.853171,1.111349 -0.346963,0 -1.442783,-0.627135 -2.075456,-1.187774 -0.746655,-0.661649 -1.038567,-1.311235 -0.842284,-1.87431 0.09314,-0.267187 0.304824,-0.439755 0.863804,-0.7042 0.407234,-0.192656 0.806604,-0.350325 0.887483,-0.350376 0.08088,-5.2e-5 0.380556,-0.129972 0.665943,-0.288707 0.285391,-0.158735 1.050137,-0.463454 1.699432,-0.677158 0.649298,-0.213702 1.180539,-0.432641 1.180539,-0.48653 0,-0.05389 -0.340541,-0.34673 -0.756757,-0.650757 -0.416215,-0.304026 -0.81124,-0.597218 -0.877834,-0.651535 -0.800884,-0.653234 -3.404311,-2.237951 -4.422084,-2.691738 -0.364953,-0.16272 -0.762492,-0.391022 -0.983381,-0.564744 -0.09035,-0.07106 -0.709128,-0.418376 -1.375071,-0.771825 -0.665947,-0.353452 -1.347029,-0.715124 -1.513514,-0.803716 -0.166484,-0.08859 -0.360536,-0.161414 -0.431225,-0.161824 -0.07068,-3.64e-4 -0.252308,-0.116073 -0.403606,-0.25703 -0.322232,-0.300207 -0.241597,-0.426565 0.437428,-0.685452 0.791241,-0.301671 2.331786,-0.52169 4.143604,-0.591784 1.724839,-0.06673 1.756755,-0.06325 2.37151,0.258377 1.158822,0.606275 2.393086,1.955026 4.590914,5.016766 0.195909,0.272917 0.392079,0.496212 0.435935,0.496212 0.04387,0 0.009,-0.395027 -0.07739,-0.877837 -0.308858,-1.725452 -0.141942,-4.734624 0.3241,-5.84293 0.683382,-1.625172 0.977318,-2.115974 1.776121,-2.965712 0.707717,-0.752838 0.995502,-0.965197 1.683141,-1.242005 1.015956,-0.408972 1.271506,-0.406862 2.032786,0.01678 z m -0.842545,4.466003 c -0.163356,0.117621 -0.344049,0.540983 -0.719479,1.685744 -0.170621,0.520252 -0.365647,1.109372 -0.43339,1.309155 -0.162482,0.479167 -0.387582,2.836536 -0.294025,3.079245 0.06423,0.166631 0.08796,0.163672 0.193385,-0.02413 0.06609,-0.117734 0.702643,-0.674605 1.414555,-1.23749 0.711917,-0.562885 1.44716,-1.167573 1.633879,-1.343749 0.574087,-0.541684 1.490709,-1.175512 2.509303,-1.735141 0.535342,-0.294123 0.930663,-0.571425 0.878489,-0.616226 -0.05216,-0.0448 -0.723829,-0.281469 -1.492582,-0.525926 -1.745723,-0.555126 -3.377405,-0.816668 -3.690135,-0.591493 z m -1.318448,7.384085 c 0.32228,1.409587 0.881342,2.400885 2.196059,3.89394 l 0.470158,0.533942 0.40474,-0.361634 0.404736,-0.361633 -0.453291,-0.280151 c -0.829133,-0.512428 -1.46294,-1.737615 -1.035545,-2.001763 0.168723,-0.104272 0.151898,-0.423782 -0.02232,-0.423782 -0.301576,0 -1.155789,-0.499589 -1.550469,-0.906794 -0.22661,-0.233804 -0.429612,-0.425097 -0.451116,-0.425097 -0.0215,0 -0.0047,0.149837 0.03705,0.332972 z m 4.650638,7.974603 c -1.061851,0.250576 -1.736828,0.398616 -1.846482,0.404986 -0.134213,0.0078 -0.110273,0.836616 0.04674,1.618468 l 0.137554,0.684932 0.49812,-0.07381 c 0.273969,-0.04059 0.825037,-0.148223 1.224606,-0.239173 0.399567,-0.09094 0.845537,-0.166161 0.991036,-0.167145 0.145502,-10e-4 0.401369,-0.0538 0.568592,-0.117387 0.29542,-0.112319 0.298741,-0.126224 0.11706,-0.490413 -0.102841,-0.206146 -0.247749,-0.729549 -0.322014,-1.163111 -0.121462,-0.709107 -0.159802,-0.781008 -0.381608,-0.715689 -0.135618,0.03991 -0.600743,0.156189 -1.033608,0.258337 z m -7.204318,1.185255 c -0.717777,0.102748 -1.22792,0.118075 -1.494596,0.04492 -0.222675,-0.06108 -0.425907,-0.09004 -0.451621,-0.06433 -0.04762,0.04762 -0.657022,2.33623 -0.657022,2.467394 0,0.09249 1.505609,-0.0021 3.227819,-0.202373 l 1.351062,-0.157274 -0.118859,-0.311667 c -0.108717,-0.285058 -0.07698,-0.86309 0.0954,-1.737448 0.06489,-0.329128 0.05669,-0.334598 -0.3981,-0.265631 -0.255395,0.03872 -0.954727,0.140619 -1.554082,0.22641 z"
     id="path1-7"
     sodipodi:nodetypes="sssscssssssssssssssssssssssscsscsssssssssscssssssssssssssssssssssssssssssssscsssssssssssssssssssssssscsssssscssssssssssssssscscccssssscssscssssssssssssscssss" />
</svg>
