<?xml version="1.0" encoding="UTF-8" standalone="no"?>
<svg
   height="60"
   width="52.101"
   version="1.1"
   id="svg2"
   sodipodi:docname="1TA.svg"
   inkscape:version="1.3 (0e150ed6c4, 2023-07-21)"
   xmlns:inkscape="http://www.inkscape.org/namespaces/inkscape"
   xmlns:sodipodi="http://sodipodi.sourceforge.net/DTD/sodipodi-0.dtd"
   xmlns="http://www.w3.org/2000/svg"
   xmlns:svg="http://www.w3.org/2000/svg">
  <defs
     id="defs2" />
  <sodipodi:namedview
     id="namedview2"
     pagecolor="#ffffff"
     bordercolor="#666666"
     borderopacity="1.0"
     inkscape:showpageshadow="2"
     inkscape:pageopacity="0.0"
     inkscape:pagecheckerboard="0"
     inkscape:deskcolor="#d1d1d1"
     inkscape:zoom="15.066667"
     inkscape:cx="14.933628"
     inkscape:cy="41.150442"
     inkscape:window-width="3840"
     inkscape:window-height="2054"
     inkscape:window-x="-11"
     inkscape:window-y="-11"
     inkscape:window-maximized="1"
     inkscape:current-layer="svg2" />
  <filter
     id="a"
     x="-0.1200879"
     y="-0.099474059"
     width="1.2902124"
     height="1.2403956">
    <feGaussianBlur
       in="SourceAlpha"
       result="blur"
       stdDeviation="2"
       id="feGaussianBlur1" />
    <feOffset
       dx="2"
       dy="2"
       result="offsetBlur"
       id="feOffset1" />
    <feBlend
       in="SourceGraphic"
       in2="offsetBlur"
       mode="normal"
       id="feBlend1" />
  </filter>
  <g
     filter="url(#a)"
     transform="translate(5 5)"
     id="g1">
    <path
       d="m18.495 1.628c-3.456.929-6.977 1.698-10.327 2.948-.609.259-.384 1.123-.596 1.636-2.415 14.123-4.33 28.348-6.626 42.488-.206.557.615.452.937.48 8.671.116 17.344.02 26.016.01 4.197-.052 8.399.036 12.592-.132.81.018.103-1.093.187-1.573-2.01-13.24-3.891-26.51-6.066-39.72-.253-1.05-.266-2.217-.749-3.182-1.952-.847-4.093-1.218-6.133-1.84-2.23-.596-4.46-1.222-6.702-1.76z"
       fill="#feec99"
       transform="matrix(-1 0 0 -1 42.101 50)"
       id="path1" />
  </g>
  <path
     id="path7108-1"
     style="font-style:normal;font-variant:normal;font-weight:normal;font-stretch:normal;font-size:34.6667px;line-height:1.25;font-family:'cwTeX Q Kai';-inkscape-font-specification:'cwTeX Q Kai';letter-spacing:0px;word-spacing:0px;opacity:0.99;fill:#fd0000;fill-opacity:1;stroke:none;stroke-width:1.02532;stroke-miterlimit:4;stroke-dasharray:none;stroke-opacity:1"
     d="m 28.89779,42.639115 c 0.09125,-0.009 0.179332,-0.0315 0.285226,-0.0627 0.534749,-0.15734 1.223666,-0.58085 1.381586,-0.8516 0.130351,-0.22339 0.130586,-0.23911 0.0121,-0.58055 -0.08972,-0.25858 -0.237538,-0.46163 -0.560321,-0.77474 -0.24087,-0.23364 -0.480109,-0.52716 -0.532,-0.65135 -0.149463,-0.35754 -0.203066,-2.68204 -0.109229,-4.761716 0.09679,-2.146375 0.117267,-2.278812 0.347924,-2.310059 0.09249,-0.01255 1.166504,-0.22287 2.38693,-0.467272 4.419926,-0.885132 4.648247,-0.92266 5.429248,-0.86779 l 0.6473,0.04653 V 30.99983 c 0,-0.414713 -0.117976,-0.696401 -0.455133,-1.090301 -0.287769,-0.336194 -0.609424,-0.562982 -1.464525,-1.035683 -0.352467,-0.194841 -0.804821,-0.446374 -1.005344,-0.558298 -0.467847,-0.261158 -0.661295,-0.238366 -1.814468,0.22251 -1.186488,0.474215 -3.372434,1.061584 -3.495432,0.938589 -0.03629,-0.03633 0.264237,-1.397248 0.418723,-1.895383 0.871519,-2.810159 1.571509,-4.349053 2.872401,-6.315237 1.706605,-2.57934 4.252265,-5.02226 7.385319,-7.08998 0.949289,-0.6265 1.108504,-0.75617 1.108504,-0.90421 v -0.17396 l -0.63112,0.0162 c -0.957551,0.0243 -2.908192,0.53863 -4.264104,1.12469 -1.922497,0.83093 -3.464569,1.90355 -4.980174,3.46104 -0.455584,0.46817 -0.881535,0.93235 -0.946684,1.03164 -0.06511,0.0994 -0.142786,0.18003 -0.173969,0.18003 -0.129355,0 -0.890208,-0.78317 -1.207618,-1.24403 -0.34894,-0.50668 -0.818006,-1.44084 -0.972974,-1.9318 -0.201528,-0.63844 -0.385155,-0.88883 -1.025572,-1.40585 -0.414326,-0.3345 -0.613157,-0.42688 -1.12873,-0.52998 -0.809384,-0.16189 -1.665111,0.37875 -1.929768,1.21976 -0.126249,0.40122 -0.165438,1.03947 -0.085,1.39979 0.09422,0.4219 0.32915,1.02419 0.505701,1.29663 0.381934,0.58932 1.17767,1.25586 1.895379,1.58791 0.915358,0.42347 1.549227,0.6096 2.744974,0.80306 l 0.260935,0.0405 -0.121368,0.18407 c -1.2092,1.824361 -2.302361,4.317002 -2.755074,6.278836 -0.04552,0.197257 -0.106429,0.372435 -0.135528,0.390403 -0.02902,0.01794 -0.199467,-0.312558 -0.378273,-0.734282 -0.59067,-1.393094 -2.663809,-5.368177 -3.444862,-6.604507 -0.03557,-0.0563 -0.177248,-0.30207 -0.315555,-0.54616 -1.088763,-1.92139 -3.049454,-4.73629 -3.766495,-5.407 -0.571302,-0.53438 -0.704953,-0.57492 -2.132045,-0.6655 -0.694708,-0.0441 -1.340348,-0.0917 -1.434185,-0.10519 -0.09393,-0.013 -0.679055,-0.0122 -1.298649,0.004 -2.172132,0.057 -3.289924,0.22746 -3.380132,0.51178 -0.02317,0.073 -0.08397,0.13148 -0.135528,0.13148 -0.14696,0 -0.181924,0.11543 -0.0688,0.22858 0.0567,0.0567 0.10317,0.1463 0.10317,0.19823 0,0.11691 0.269496,0.37099 0.710007,0.66753 0.184231,0.12402 0.895572,0.64251 1.579824,1.15301 0.684262,0.51049 1.479577,1.09616 1.76794,1.3027 0.64086,0.459 2.203622,1.68218 2.662036,2.0835 0.04285,0.0375 0.276674,0.23603 0.51986,0.44097 1.987452,1.67503 4.343263,4.583529 6.885683,8.501915 0.69347,1.068768 1.235939,1.960627 1.235939,2.028887 0,0.07148 -0.173874,0.1093 -1.272348,0.283195 -2.830414,0.448052 -4.959577,0.652003 -6.986822,0.665509 -0.98458,0.0066 -1.05221,0.01491 -1.387657,0.190145 -0.977494,0.510642 -0.991745,1.668729 -0.03036,2.490091 0.281965,0.240884 0.584887,0.396575 1.328988,0.685734 1.923585,0.747512 2.055462,0.754066 2.977589,0.165871 0.491727,-0.313656 0.854672,-0.436166 1.685012,-0.564366 0.356741,-0.05508 0.908665,-0.148249 1.227849,-0.20835 0.319194,-0.06015 0.750272,-0.138593 0.956794,-0.173973 0.206542,-0.03537 0.481741,-0.09551 0.61292,-0.133506 0.13119,-0.038 0.303024,-0.06878 0.380282,-0.06878 0.162484,0 0.159377,0.03232 -0.143616,2.465816 -0.236759,1.90153 -0.329305,2.34062 -0.56032,2.6418 -0.365387,0.47641 -0.433253,0.8018 -0.277126,1.32293 0.216118,0.72131 1.666237,1.8104 3.094918,2.32422 0.828647,0.29805 1.121861,0.38829 1.395736,0.36208 z"
     sodipodi:nodetypes="cscssccssccssscccscssccsscsssscscsscccsssscssccsscssssscsscsssssscsssscsccc" />
</svg>
