<svg height="60" width="52.157" xmlns="http://www.w3.org/2000/svg" xmlns:xlink="http://www.w3.org/1999/xlink"><filter id="a"><feGaussianBlur in="SourceAlpha" result="blur" stdDeviation="2"/><feOffset dx="2" dy="2" result="offsetBlur"/><feBlend in="SourceGraphic" in2="offsetBlur" mode="normal"/></filter><g transform="matrix(1 0 0 -1 -95.640972 81.118732)"><g fill="#feec99" filter="url(#a)" transform="matrix(.98185054 0 0 -.98185054 -4.360504 104.33768)"><path d="m-37.299339-31.009999c-4.096 1.034-8.171 2.152-12.207999 3.395-.467.163-1.13.263-1.201.865-.709 3.416-1.178 6.885-1.737 10.331-1.73 11.2549998-3.378 22.5279998-5.1 33.78.155.682 1.013.424 1.51.48 12.893999.025 25.787999.03 38.679999-.033.672-.156.28-.952.279-1.409-2.011-13.1200002-3.876-26.2630002-5.998-39.366-.277-1.356-.348-2.782-.816-4.087-.347-.497-1.073-.468-1.588-.704-3.832-1.137-7.673-2.267-11.55-3.231-.09-.017-.18-.032-.271-.021z" fill="#feec99" transform="matrix(-1 0 0 -1 91.156998 47.625)"/></g><path d="m.64971757 9.6844091q.57291663 0 .93749993.2864584.3645834.2864585.3645834.7031245 0 .416667-.46875.651042-.46875.234375-2.2395833.755208l-.3645833.104167q-2.0833333.703125-3.6979166 1.536458-1.6145833.833334-2.5260416 1.588542-.9114583.755208-1.484375 1.5625-.5729166.78125-.7552083 1.354167-.1822916.546875-.1822916 1.041666 0 2.578125 5.2343748 2.578125.7291667 0 1.1197917-.02604-.390625.02604-.625.02604.15625-.07813.3385416 0 .1822917.07813 1.2239583-.05208 1.0677084-.130208 2.39583332-.546875.83333331-.234375 1.35416668-.234375.9114583 0 1.4583333.859375 0 .520833-.46875.833333-.46875.3125-1.84895833.494792-1.3802083.208333-3.93229157.234375h-2.3958333q-.5208333 0-1.2499999-.208334-.7291667-.182291-1.6145833-.598958-.859375-.442708-1.4583335-1.302083-.572916-.885417-.572916-2.057292 0-1.796875 1.1718745-3.203125 1.1979166-1.40625 3.4114582-3.020833-1.4322916-1.09375-1.4322916-3.4114582v-.078125l.1302083-2.9166666q-.026042-.859375-.3125-1.3802083-.2604166-.546875-.5729166-.703125-.3125-.1822916-.703125-.3645833-.390625-.1822917-.546875-.3645833-.026042-.2604167.2864583-.390625.3125-.1302083.4947917-.1302083 2.2656249.3645833 2.9166666 1.7968749-.3645833 2.1354166-.3645833 4.0624999 0 3.0208332 1.1979166 3.0208332.2083333 0 2.5520833-1.015625 2.36979159-1.041667 3.22916657-1.4843749z" stroke="#000" stroke-width=".457505" transform="matrix(-1.2628892 0 0 1.2628892 116.6202 37.158506)"/></g></svg>