<svg height="60" width="52.157" xmlns="http://www.w3.org/2000/svg" xmlns:xlink="http://www.w3.org/1999/xlink"><filter id="a"><feGaussianBlur in="SourceAlpha" result="blur" stdDeviation="2"/><feOffset dx="2" dy="2" result="offsetBlur"/><feBlend in="SourceGraphic" in2="offsetBlur" mode="normal"/></filter><g transform="translate(-370.49716 -77.135214)"><g fill="#ffd5e5" filter="url(#a)" transform="matrix(1.00000000167 0 0 1.00000000167 407.45765865162 76.85653273657)"><path d="m-10.959999 6.2374999c-4.319 1-8.69 2.088-12.838 3.608-1.492 6.3310001-2.103 12.8800001-3.191 19.3050001-1.285 8.332-2.439 16.689-3.86 24.997 4.847.346 10 .05 14.963.148h24.9709998c-.585-5.657-1.718-11.523-2.502-17.26-1.462-8.96-2.486-18.012-4.288-26.903-.885-1.0930001-2.79899998-.9570001-4.037-1.5640001-3.053-.81-6.099-1.875-9.2179998-2.332z" fill="#feec99"/></g><g opacity=".5" transform="matrix(1.0885728 0 0 1.0885728 368.187319 75.433156)"><g opacity="1" stroke="#c83737" stroke-width="4.938272" transform="matrix(.08856987 0 0 .08856987 -7.546046 -92.942195)"><path d="m372.13918 1585.4711v-265.4503h15v265.4503z" fill="#c83737"/><g><path d="m373.444 1325.1424-13.45088-8.5711 2.65158-111.3407 16.68695-28.5677 17.54212 27.7552 2.37276 111.2472-13.38185 9.2233z" fill="#e6e6e6" opacity="1" stroke-width="8.693702"/><g fill="none" stroke-width="4.516209"><path d="m379.55142 1181.0173v105.0984l16.53494 13.1272"/><path d="m379.55142 1286.1157-16.3174 14.4958"/></g></g></g><g fill="#c83737"><g transform="translate(-.508475 -2.894278)"><path d="m19.295321 41.674955h14.583302v1.328548h-14.583302z" opacity="1" stroke="#c83737" stroke-width=".437382"/><path d="m26.586972 33.935709a8.4032872 8.4032872 0 0 0 -8.403519 8.403519 8.4032872 8.4032872 0 0 0 8.403519 8.40352 8.4032872 8.4032872 0 0 0 8.403519-8.40352 8.4032872 8.4032872 0 0 0 -8.403519-8.403519zm0 1.832411a6.570505 6.570505 0 0 1 6.569866 6.571108 6.570505 6.570505 0 0 1 -6.569866 6.569864 6.570505 6.570505 0 0 1 -6.571107-6.569864 6.570505 6.570505 0 0 1 6.571107-6.571108z" opacity="1"/></g><path d="m20.452808 44.131214 10.311952-10.311951.939425.939425-10.311951 10.311952z" opacity="1" stroke="#c83737" stroke-width=".437382"/><path d="m21.392234 33.819263 10.311951 10.311951-.939425.939426-10.311952-10.311952z" opacity="1" stroke="#c83737" stroke-width=".437382"/></g></g><g stroke="#000"><g stroke-linejoin="round" stroke-width="1.312941" transform="matrix(.46731468689 0 0 .56880108943 407.36842925418 76.0843215241)"><path d="m-23.355851 44.732625c-4.132306 8.932558-4.332216 7.649629-13.389243 13.799134 8.912868 3.135271 18.70037 2.896518 26.778486 0-9.057027-6.149505-9.438551-5.164998-13.389243-13.799134z"/><path d="m-26.817667 58.549927c-.101781 8.756321-.371109 15.836633-11.545204 21.428518-5.232221 2.785963-6.963446 4.475105-7.614698 9.332185 6.784589 1.493568 14.836273 2.210393 22.882279 2.179259 8.046006.03113 16.0976895-.685691 22.882279-2.179259-.651252-4.85708-2.382477-6.546222-7.614698-9.332185-11.174095-5.591885-11.443423-12.672197-11.545204-21.428518v.000004c-1.240718.01919-2.481542.02015-3.722377.01942-1.240835.000729-2.481659-.000233-3.722377-.01942z"/></g><g fill="#fd5" transform="matrix(.66146315967 0 0 .66146315967 -5.52953819249 20.8512850013)"><path d="m89.878164 104.45867c71.228006 71.22916 31.757136 135.82089 52.509626 165.37853 28.87071 49.94709 71.08258 59.60515 129.34256 59.36887 1.13228-.005 2.26995-.0394 3.41266-.10377 1.14271.0644 2.28038.0992 3.41266.10377 58.25998.23628 100.47185-9.42178 129.34256-59.36887 20.75249-29.55764-18.71838-94.14937 52.50963-165.37853-11.60482-5.014637-42.72517 25.60524-62.89753 25.52484-25.61193-15.17069-47.03143 3.07994-52.25128 16.77733 37.83854-11.30105 70.07869 121.46792-45.53806 137.91415-7.06656 1.97083-16.16354 2.51444-24.57798 2.71917-8.41444-.20473-17.51142-.74834-24.57798-2.71917-115.61675-16.44623-83.3766-149.2152-45.53806-137.91415-5.21985-13.69739-26.63935-31.94802-52.25128-16.77733-20.17236.0804-51.29271-30.539477-62.897526-25.52484z" stroke-width="13.426564" transform="matrix(.06852995 0 0 .08094496 589.01947 105.57931)"/><ellipse cx="608" cy="124.95992" rx="3.94691" ry="3.818154"/></g></g></g></svg>