<svg height="60" width="52.157" xmlns="http://www.w3.org/2000/svg" xmlns:xlink="http://www.w3.org/1999/xlink"><filter id="a"><feGaussianBlur in="SourceAlpha" result="blur" stdDeviation="2"/><feOffset dx="2" dy="2" result="offsetBlur"/><feBlend in="SourceGraphic" in2="offsetBlur" mode="normal"/></filter><g transform="matrix(1 0 0 -1 -95.640972 81.118732)"><g fill="#feec99" filter="url(#a)" transform="matrix(.98185054 0 0 -.98185054 -4.360504 104.33768)"><path d="m-37.299339-31.009999c-4.096 1.034-8.171 2.152-12.207999 3.395-.467.163-1.13.263-1.201.865-.709 3.416-1.178 6.885-1.737 10.331-1.73 11.2549998-3.378 22.5279998-5.1 33.78.155.682 1.013.424 1.51.48 12.893999.025 25.787999.03 38.679999-.033.672-.156.28-.952.279-1.409-2.011-13.1200002-3.876-26.2630002-5.998-39.366-.277-1.356-.348-2.782-.816-4.087-.347-.497-1.073-.468-1.588-.704-3.832-1.137-7.673-2.267-11.55-3.231-.09-.017-.18-.032-.271-.021z" fill="#feec99" transform="matrix(-1 0 0 -1 91.156998 47.625)"/></g><g fill="#c83737" opacity=".51" stroke="#c83737" stroke-linejoin="round" stroke-width="1.312941" transform="matrix(.46731469 0 0 .56880109 132.51224359325 8.45999659456)"><path d="m-23.355851 37.943536c-2.134544 9.081768-4.332216 14.438718-13.389243 20.588223 8.912868 3.135271 18.70037 2.896518 26.778486 0-9.057027-6.149505-11.254699-11.506455-13.389243-20.588223z"/><path d="m-26.817667 58.549927c-.101781 8.756321-.371109 15.836633-11.545204 21.428518-5.232221 2.785963-6.963446 4.475105-7.614698 9.332185 6.784589 1.493568 14.836273 2.210393 22.882279 2.179259 8.046006.03113 16.0976895-.685691 22.882279-2.179259-.651252-4.85708-2.382477-6.546222-7.614698-9.332185-11.174095-5.591885-11.443423-12.672197-11.545204-21.428518v.000004c-1.240718.01919-2.481542.02015-3.722377.01942-1.240835.000729-2.481659-.000233-3.722377-.01942z"/></g><g transform="matrix(-.62701922 0 0 .62701922 187.02954 4.115755)"><path d="m68.00378 224.07843-.331456 3.32285" fill="none" stroke="#ffffe5" stroke-width=".75" transform="matrix(1.3333333 0 0 -1.3333333 0 396.85067)"/><path d="m71.848674 227.16926h12.230738" fill="none" stroke="#fff" stroke-width=".75" transform="matrix(1.3333333 0 0 -1.3333333 0 396.85067)"/><path d="m112.98209 92.87612a8.7982826 9.129591 0 0 0 -.0508-.23242 8.7982826 9.129591 0 0 0 -.27734-.86719 8.7982826 9.129591 0 0 0 -.35938-.83203 8.7982826 9.129591 0 0 0 -.4375-.79101 8.7982826 9.129591 0 0 0 -.51172-.74415 8.7982826 9.129591 0 0 0 -.58008-.68554 8.7982826 9.129591 0 0 0 -.64453-.6211 8.7982826 9.129591 0 0 0 -.69922-.55273 8.7982826 9.129591 0 0 0 -.75-.47656 8.7982826 9.129591 0 0 0 -.79101-.39649 8.7982826 9.129591 0 0 0 -.82617-.3125 8.7982826 9.129591 0 0 0 -.85352-.22656 8.7982826 9.129591 0 0 0 -.86914-.13672 8.7982826 9.129591 0 0 0 -.87891-.0449 8.7982826 9.129591 0 0 0 -.62109.0215 8.7982826 9.129591 0 0 0 -.87305.11133 8.7982826 9.129591 0 0 0 -.85937.19922 8.7982826 9.129591 0 0 0 -.83399.28711 8.7982826 9.129591 0 0 0 -.80273.37305 8.7982826 9.129591 0 0 0 -.76367.45508 8.7982826 9.129591 0 0 0 -.71485.53125 8.7982826 9.129591 0 0 0 -.66015.60156 8.7982826 9.129591 0 0 0 -.59961.66797 8.7982826 9.129591 0 0 0 -.5332.72656 8.7982826 9.129591 0 0 0 -.45899.77734 8.7982826 9.129591 0 0 0 -.38281.82227 8.7982826 9.129591 0 0 0 -.30078.85742 8.7982826 9.129591 0 0 0 -.1211.48828z" stroke="#000" stroke-linecap="round" stroke-linejoin="round"/><path d="m87.30581 68.52394v25.45703h3.91211a13.346641 13.346641 0 0 1 .0664-.44336 13.346641 13.346641 0 0 1 .33008-1.29101 13.346641 13.346641 0 0 1 .45703-1.25391 13.346641 13.346641 0 0 1 .58008-1.20117 13.346641 13.346641 0 0 1 .69727-1.13672 13.346641 13.346641 0 0 1 .80859-1.0625 13.346641 13.346641 0 0 1 .90821-.97656 13.346641 13.346641 0 0 1 1.0039-.88086 13.346641 13.346641 0 0 1 1.08399-.77539 13.346641 13.346641 0 0 1 1.1582-.66406 13.346641 13.346641 0 0 1 1.2168-.54493 13.346641 13.346641 0 0 1 1.26562-.41992 13.346641 13.346641 0 0 1 1.30274-.29297 13.346641 13.346641 0 0 1 1.32422-.16015 13.346641 13.346641 0 0 1 .94336-.0332 13.346641 13.346641 0 0 1 1.33398.0664 13.346641 13.346641 0 0 1 1.31836.19922 13.346641 13.346641 0 0 1 1.29297.33008 13.346641 13.346641 0 0 1 1.25195.45703 13.346641 13.346641 0 0 1 1.20313.58008 13.346641 13.346641 0 0 1 1.13671.69726 13.346641 13.346641 0 0 1 1.0625.8086 13.346641 13.346641 0 0 1 .97461.9082 13.346641 13.346641 0 0 1 .88086 1.00195 13.346641 13.346641 0 0 1 .77735 1.08594 13.346641 13.346641 0 0 1 .66211 1.15625 13.346641 13.346641 0 0 1 .54492 1.21875 13.346641 13.346641 0 0 1 .42187 1.26562 13.346641 13.346641 0 0 1 .29102 1.30274 13.346641 13.346641 0 0 1 .008.0586h3.54688v-25.45703z" stroke="#000" stroke-linecap="round" stroke-linejoin="round"/><path d="m117.69253 95.65871h5.76367l-1.3125-1.66211-1.07226-.0312-3.54883.002c.0726.42367.1248.8506.15625 1.2793.007.13729.0112.27468.0137.41211z" stroke="#000" stroke-linejoin="round"/><path d="m91.21792 93.97511-3.82813.002-1.32904-.008-1.31744 1.68946h6.30273c.005-.26726.018-.5343.0391-.80078.0344-.29567.0787-.59011.13281-.88282z" stroke="#000" stroke-linejoin="round"/><path d="m117.50262 98.29966 5.98042-.0137-.008-2.29145-5.81074.003a13.483042 11.720541 0 0 1 .0197.47339 13.483042 11.720541 0 0 1 -.0671 1.16974 13.483042 11.720541 0 0 1 -.11443.65863z" stroke="#000" stroke-width=".94188"/><path d="m91.0692 95.96897-6.34759.005.0157 2.40761 6.48691-.0158a13.408385 11.991536 0 0 1 -.14717-1.08448 13.408385 11.991536 0 0 1 -.0334-.84758 13.408385 11.991536 0 0 1 .0255-.46503z" stroke="#000" stroke-width=".950066"/><path d="m95.72973 93.80371a8.6610679 15.056855 0 0 0 -.025.86004 8.6610679 15.056855 0 0 0 .0211 1.06622 8.6610679 15.056855 0 0 0 .10383 1.49461 8.6610679 15.056855 0 0 0 .12497.96635l16.83101-.074a8.6610679 15.056855 0 0 0 .0673-.46064 8.6610679 15.056855 0 0 0 .13074-1.48818 8.6610679 15.056855 0 0 0 .0423-1.50428 8.6610679 15.056855 0 0 0 -.0173-.88261z" stroke="#000" stroke-width="1.274173"/><path d="m87.26197 68.54669c-2.66877-1.95465-2.44142-2.435923-3.80698-5.387473 14.02499 1.45048 28.1694 1.602391 41.40918-.05405-.95473 3.134827-1.13136 3.60426-3.72737 5.41942z" stroke="#000" stroke-linejoin="round"/><path d="m104.18763 81.82779a13.346641 13.346641 0 0 0 -13.34571 13.34571 13.346641 13.346641 0 0 0 13.34571 13.34765 13.346641 13.346641 0 0 0 13.34765-13.34765 13.346641 13.346641 0 0 0 -13.34765-13.34571zm0 4.2168a8.7982826 9.129591 0 0 1 8.79883 9.12891 8.7982826 9.129591 0 0 1 -8.79883 9.1289 8.7982826 9.129591 0 0 1 -8.79687-9.1289 8.7982826 9.129591 0 0 1 8.79687-9.12891z" stroke="#000" stroke-linecap="round" stroke-linejoin="round" stroke-width=".833856"/><path d="m104.27673 95.96917v9.41336" fill="none" stroke="#000"/><path d="m87.39452 68.87906 33.49924.17494" fill="#fff" stroke="#fff"/><path d="m97.82438 102.28894 6.31977-6.40816 6.60703 6.60703" fill="none" stroke="#000"/><g stroke="#fff"><path d="m84.63241 96.09071h5.7652" fill="#fff" stroke-width="1.001706"/><path d="m96.10074 96.09071h16.1875" fill="#fff" stroke-width="1.001706"/><path d="m117.96123 96.09071h5.63941" fill="#fff" stroke-width="1.001706"/><path d="m104.23253 98.48434v-12.19369" fill="none"/><path d="m106.51056 98.28266-8.52763-8.87352" fill="#fff"/><path d="m101.63748 98.45309 8.82643-8.98046" fill="none"/><path d="m111.16703-98.397494a8.1080236 8.1080236 0 0 1 -2.0124 10.111694 8.1080236 8.1080236 0 0 1 -10.30993-.03832 8.1080236 8.1080236 0 0 1 -1.937175-10.126374" fill="none" stroke-linejoin="bevel" stroke-width=".981089" transform="scale(1 -1)"/><path d="m95.874998 93.788185h16.062502" fill="none"/><path d="m118.10483-98.321867a14.14122 14.14122 0 0 1 -6.05721 14.582032 14.14122 14.14122 0 0 1 -15.789587-.119559 14.14122 14.14122 0 0 1 -5.835693-14.672085" fill="none" stroke-linejoin="bevel" stroke-width=".977043" transform="scale(1 -1)"/><path d="m87.00741 93.65321h3.29645" fill="#fff"/><path d="m118.03866 93.68446h3.29645" fill="#fff"/></g></g></g></svg>