<svg height="60" width="52.157" xmlns="http://www.w3.org/2000/svg" xmlns:xlink="http://www.w3.org/1999/xlink"><filter id="a"><feGaussianBlur in="SourceAlpha" result="blur" stdDeviation="2"/><feOffset dx="2" dy="2" result="offsetBlur"/><feBlend in="SourceGraphic" in2="offsetBlur" mode="normal"/></filter><g transform="matrix(1 0 0 -1 -95.640972 81.118732)"><g fill="#feec99" filter="url(#a)" transform="matrix(.98185054 0 0 -.98185054 -4.360504 104.33768)"><path d="m-37.299339-31.009999c-4.096 1.034-8.171 2.152-12.207999 3.395-.467.163-1.13.263-1.201.865-.709 3.416-1.178 6.885-1.737 10.331-1.73 11.2549998-3.378 22.5279998-5.1 33.78.155.682 1.013.424 1.51.48 12.893999.025 25.787999.03 38.679999-.033.672-.156.28-.952.279-1.409-2.011-13.1200002-3.876-26.2630002-5.998-39.366-.277-1.356-.348-2.782-.816-4.087-.347-.497-1.073-.468-1.588-.704-3.832-1.137-7.673-2.267-11.55-3.231-.09-.017-.18-.032-.271-.021z" fill="#feec99" transform="matrix(-1 0 0 -1 91.156998 47.625)"/></g><g opacity=".469" transform="matrix(-.70055036 0 0 .70055036 342.73495 -15.524924)"><g transform="translate(-.190919)"><g stroke="#000" transform="translate(31.466251 -52.325905)"><g stroke="#c83737"><path d="m282.83014 136.55533c.20417-5.88578-.28226-11.14236-3.00897-13.32971 2.0213-.87359 3.21146-2.97937 4.36491-4.57868 1.15345 1.59931 2.34361 3.70509 4.36491 4.57868-2.72671 2.18735-3.21314 7.44393-3.00897 13.32971v.00004c-.47902.154-.91154.22963-1.35594.23289-.4444-.003-.87692-.0789-1.35594-.23289z" fill="#c83737" transform="matrix(.88178822 0 0 .88934863 33.594141 15.217364)"/><path d="m97.158521 111.62733c-2.763804 121.39014 19.614709 224.19206 177.984489 219.0751 158.36978 5.11696 180.74829-97.68496 177.98449-219.0751-11.06507 132.28681-51.513 167.40345-177.98449 175.0379-126.47149-7.63445-166.91942-42.75109-177.984489-175.0379z" fill="#ccc" stroke-width="10.741251" transform="matrix(.06852995 0 0 .08094496 265.43337 113.5891)"/><path d="m166.79579 305.11894-54.46388 95.97506-8.75401-6.96231-40.589685 61.71251-7.283307-9.9888c-17.702449 21.02166-27.021349 32.76168-44.723798 53.78334 14.215968 20.56041 44.129031 49.69009 71.960742 55.39697 13.292856-25.8462 83.133858-195.79358 102.033538-237.33888m195.23448-12.57789 54.46388 95.97506 8.75401-6.96231 40.58969 61.71251 7.2833-9.9888c17.70245 21.02166 27.02135 32.76168 44.7238 53.78334-14.21597 20.56041-44.12903 49.69009-71.96074 55.39697-13.29286-25.8462-83.13386-195.79358-102.03354-237.33888" fill="#c83737" stroke-width="13.426564" transform="matrix(.06852995 0 0 .08094496 265.43337 113.5891)"/><path d="m273.59596 150.94137c7.36818 2.99836 14.49096 3.09401 21.34407 0l-4.02618-11.42603c-4.02592 1.60044-9.1948 1.93413-13.22891-.091z" fill="#c83737" stroke-width=".985192"/></g><path d="m277.40633 142.09248c4.27412 2.18112 9.43959 2.24116 13.60743-.0312" fill="none" stroke="#fff"/></g><g fill="none" stroke="#fff"><path d="m305.38637 89.887027c2.9497 1.930803 1.52329 1.133877 2.58145 1.911579m19.45159-1.999967c-2.9497 1.930803-1.83265.736129-2.89081 1.513831" transform="translate(-.795495 2.740039)"/><path d="m303.46433 92.472532 4.1095 2.131956m24.46328-2.131956-4.1095 2.131956" transform="translate(-2.069544 4.683662)"/><path d="m305.43749 99.100685 4.50536-11.901808m11.65089-.223192 4.25 12.265625"/></g></g><path d="m308.93871 82.397114c5.87216-5.233942 8.03769-4.798704 13.61977.08525-2.86506 1.169669-3.08015 1.033401-6.69829 1.68198-2.51513-.679778-.54627-.174205-3.60898-.454728z" fill="#c83737" stroke="#c83737"/></g><g transform="matrix(.77823846 0 0 .77823846 -12.404353 -9.583197)"><g stroke-width=".6" transform="matrix(1.3333333 0 0 -1.3333333 -.729282 396.85067)"><path d="m118.60844 240.09519 2.67478-.26751" fill="none" stroke="#000" stroke-width=".963715"/><g stroke-width=".6"><g stroke="#000"><path d="m114.12377 227.21925c6.70858.47145 12.9961.0676 22.13114.00078m-.68919 4.89257c-3.94553 6.47303-10.01346 4.3595-14.24184 4.30206-3.53388-2.09503-4.05315-2.26484-5.34821-3.84263-1.3691-1.83911-1.71727-3.11737-1.82673-5.37509 6.82666-2.46 13.64966-2.96499 21.81871-.47024.12545 2.0048-.17388 3.70643-.40193 5.3859z" stroke-width=".6"/><g stroke-width="1.554452" transform="matrix(.38598818 0 0 -.38598818 -302.31995890134 294.27844975369)"><path d="m1134.2935 141.96442c2.5462 12.29332 3.1852 23.55617 4.1977 35.94324 1.9427 9.21372 14.4008 18.84221 21.5403 16.84207-2.9324-16.41167-2.0318-40.45637-11.142-69.99753-5.6096-.79271-11.3765-1.12223-17.4929-1.75684-2.0378.10556-3.5421.51539-4.9542 1.45521-1.8957 2.68042-6.0037 11.52099-7.6923 15.8671l.8046 9.0439c3.9859 1.63157 6.2216 3.26314 9.1883 4.89471z" fill="#e6e6e6"/><path d="m1128.5077 153.78689c3.687-7.95951 4.7699-11.87437 9.4069-19.42671 1.8791-2.31598 3.7892-4.58542 5.961-6.46235 2.4698-.79915 3.0834-1.78406 5.5532-.94924" fill="none"/></g><path d="m121.6349 236.4114-1.59644 12.29524c-.57482 3.32753.18894 5.11782 2.96111 4.60161 2.55408-.72649 4.17288-3.15936 5.47802-6.16442l1.29757-10.54107c-4.45943.42362-5.93175.11668-8.14026-.19136z" stroke-width=".6"/></g><path d="m114.54599 230.80364c.1922-.076.28172-.0623.6685.0624 4.96534 1.60019 9.50674 3.31691 20.20183.88876.0996-.0226.34425-.0966.52144-.0774" fill="none" stroke="#fff" stroke-width=".963715"/></g><path d="m126.31358 239.41157 5.67198-.3317" fill="none" stroke="#000" stroke-width=".963715"/></g><g fill="none" stroke="#fff" stroke-width="1.284953"><path d="m151.09502 93.550953c.27883.02426.8801-.147211 1.00137-.177081 8.97454-2.21056 17.80113-2.648229 27.99307.597059.25245.08038.75606.09065 1.02577.112359"/><path d="m160.92364 80.518445c5.12147-.579576 7.62988-.658679 11.07811-.247688.44048.0525.57399.10651.70272.09169"/></g></g></g></svg>