<svg viewBox="0 0 45 45" xmlns="http://www.w3.org/2000/svg" width="45" height="45"><g stroke="#ffffff"><path d="M6.483 20.212c-1.902 -4.131 -1.464 -8.263 0.191 -11.441C8.072 13.663 10.805 15.943 12.013 16.97" fill="#000000" stroke-width="1.318359375"/><path d="M40.614 9.534v28.411c-0.255 1.777 -0.96 2.204 -1.716 2.479h-10.487c-0.507 -3.467 -2.998 -4.623 -3.212 -8.008H13.729c-0.985 -0.849 -0.772 -1.359 -6.674 -1.716l-2.669 -4.386c0.086 -1.399 1.753 -1.001 2.097 -6.102 2.092 0.167 3.94 -1.401 5.53 -3.242 3.497 0.446 5.639 0.214 8.199 0.191 2.107 -4.029 5.65 -5.368 8.771 -5.339 -0.428 -3.404 -1.288 -4.286 1.907 -7.436 2.561 1.643 3.086 2.684 3.623 5.339l3.432 0.191c0.89 -1.795 1.78 -1.062 2.67 -0.381z" fill="#000000" stroke-width="1.64794921875"/><g fill="none" stroke-linecap="round"><path d="M11.822 30.89c2.199 -0.494 3.619 -0.941 4.576 -2.097" stroke-width="1.64794921875"/><path d="M26.123 16.589c0.826 0.932 0.89 0.575 1.716 0" stroke-width="1.318359375"/></g></g></svg>