<?xml version="1.0" encoding="UTF-8" standalone="no"?>
<!DOCTYPE svg PUBLIC "-//W3C//DTD SVG 1.1//EN" "http://www.w3.org/Graphics/SVG/1.1/DTD/svg11.dtd">
<svg xmlns="http://www.w3.org/2000/svg" version="1.1" width="45" height="45">
<g>
  <title>Giraffe</title>
  <g style="opacity:1; fill:none; fill-opacity:1; fill-rule:evenodd; stroke-width:1.5; stroke-linecap:round; stroke-linejoin:round; stroke-miterlimit:4; stroke-dasharray:none; stroke-opacity:1;">
    <g stroke="#000000" stroke-dashoffset="0">
      <path id="Hor_1" d="m17.6,4.8l3,0"/>
      <path id="Ver_1" d="m19.2,9.9l0,-7.7"/>
      <path id="Head" d="m39.5,40.1003l0,-5.478001c-6.243401,-2.459599 -4.459599,-20.018399 -8.919201,-24.117703c1.059601,-1.09367 4.459602,-2.45955 1.783901,-3.279408c-5.351601,-1.63971 -3.567801,0 -7.135401,1.63972c-3.567699,0 -10.703099,-3.27943 -12.486899,6.55879c-1.7838,3.279499 -5.35153,3.279499 -7.13536,6.558897c-1.12738,2.066 1.78383,6.558805 7.13536,1.6397c5.351501,0 8.9192,0 10.703,-3.2794c1.783899,3.2794 4.567699,4.3603 4.567699,20.757404l11.4869,0l0,-1z" style="fill:#000000;"/>
      <path id="Hor_2" d="m21.1,5.9l3,0"/>
      <path id="Ver_2" d="m22.7,11l0,-7.7"/>
    </g>
    <path id="Eye" d="m16.37441,14.57421a0.433,1.299 0 1 1 -0.866,-0.5a0.433,1.299 0 1 1 0.866,0.5z" fill="#ffffff" stroke="#ffffff"/>
    <path id="Dot_1" d="m31.1,22.5a1.73,2.5 0 1 1 -3.46,0a1.73,2.5 0 1 1 3.46,0z" fill="#ffffff" stroke="#ffffff"/>
    <path id="Dot_2" d="m33.3,30.5a1.73,2.5 0 1 1 -3.46,0a1.73,2.5 0 1 1 3.46,0z" fill="#ffffff" stroke="#ffffff"/>
    <path id="Dot_3" d="m37.1,36.5a1.73,2.5 0 1 1 -3.46,0a1.73,2.5 0 1 1 3.46,0z" fill="#ffffff" stroke="#ffffff"/>
  </g>
</g>
</svg>
