<svg width="45" height="45" xmlns="http://www.w3.org/2000/svg" version="1.1">
 <g>
  <title>Layer 1</title>
  <path stroke="null" stroke-width="2" fill="#000000" opacity="NaN" d="m21.99136,43.96335c0,0 -10.41665,-2.41135 -10.45634,-2.47275c0.03968,0.0614 -7.36493,-7.17266 -7.40461,-7.23406c0.03968,0.0614 -1.59184,-6.41118 -1.59184,-6.41118c0,0 -0.251,-8.24937 -0.29069,-8.31076c0.03968,0.0614 1.0437,-5.90353 1.00401,-5.96493c0.03968,0.0614 2.67523,-2.98452 2.63554,-3.04592c0.03968,0.0614 2.92623,-2.98452 2.88655,-3.04592c0.03968,0.0614 2.67523,-2.98452 2.63554,-3.04592c0.03968,0.0614 1.0437,-0.31934 1.5457,-0.57317c0.50201,-0.25383 3.13755,-0.38074 3.09786,-0.44214c0.03968,0.0614 3.17723,-0.44626 3.13755,-0.50765c0.03968,0.0614 2.67523,-1.96922 2.63554,-2.03061c0.03968,0.0614 2.04771,0.56905 2.04771,0.56905c0,0 1.63153,1.52296 1.59184,1.46156c0.03968,0.0614 2.67523,0.44214 2.63554,0.38074c0.03968,0.0614 0.9182,0.56905 1.2947,0.69596c0.37651,0.12691 2.00803,0.50765 1.96835,0.44626c0.03968,0.0614 2.04771,0.0614 2.00803,0c0.03968,0.0614 1.2947,1.0767 1.5457,1.33053c0.251,0.25383 1.50602,2.41135 1.46634,2.34996c0.03968,0.0614 1.67121,1.45744 1.63153,1.39605c0.03968,0.0614 1.2947,1.0767 1.42021,1.33053c0.1255,0.25383 1.50602,1.77679 1.46634,1.71539c0.03968,0.0614 0.41619,1.9651 0.54169,2.09201c0.1255,0.12691 1.00401,1.9037 1.00401,2.15753c0,0.25383 0.50201,2.66518 0.46232,2.60378c0.03968,0.0614 0.16519,1.71127 0.1255,1.64987c0.03968,0.0614 0.41619,1.71127 0.37651,1.64987c0.03968,0.0614 0.41619,1.20362 0.41619,1.58436c0,0.38074 0,1.64987 -0.03968,1.58848c0.03968,0.0614 -1.71734,3.99571 -1.75703,3.93431c0.03968,0.0614 -1.08983,3.48806 -1.12952,3.42666c0.03968,0.0614 -3.97637,4.24954 -3.97637,4.24954c0,0 -2.00803,2.91901 -2.00803,2.91901c0,0 -1.12952,2.15753 -1.1692,2.09613c0.03968,0.0614 -5.4824,0.0614 -5.4824,0.0614c0,0 -6.27509,1.39605 -6.27509,1.39605l0.00002,-0.00002z" id="svg_14"/>
  <rect stroke="null" id="svg_4" height="3.04108" width="1.10585" y="21.31122" x="1.90363" stroke-width="2" fill="#000000"/>
  <path d="m25,0c1.68076,0.63029 3.34796,1.29788 5,2c0.86625,0.10312 1.7325,0.20625 2.625,0.3125c3.3148,0.95955 3.70148,2.75883 5.375,5.6875c0.88687,0.47438 1.77375,0.94875 2.6875,1.4375c0.76312,0.51563 1.52625,1.03125 2.3125,1.5625c0.1875,3 0.1875,3 0,6c0.66,0.99 1.32,1.98 2,3c0.40977,3.89283 -0.48988,6.44678 -2,10c-0.10312,0.86625 -0.20625,1.7325 -0.3125,2.625c-0.95955,3.3148 -2.75883,3.70148 -5.6875,5.375c-0.71156,1.33031 -0.71156,1.33031 -1.4375,2.6875c-0.51562,0.76313 -1.03125,1.52625 -1.5625,2.3125c-3,0.1875 -3,0.1875 -6,0c-0.99,0.66 -1.98,1.32 -3,2c-3.89283,0.40977 -6.44678,-0.48988 -10,-2c-1.29937,-0.15469 -1.29937,-0.15469 -2.625,-0.3125c-3.3148,-0.95955 -3.70148,-2.75883 -5.375,-5.6875c-0.88687,-0.47438 -1.77375,-0.94875 -2.6875,-1.4375c-0.76312,-0.51562 -1.52625,-1.03125 -2.3125,-1.5625c-0.1875,-3 -0.1875,-3 0,-6c-0.66,-0.99 -1.32,-1.98 -2,-3c-0.40977,-3.89283 0.48988,-6.44678 2,-10c0.10312,-0.86625 0.20625,-1.7325 0.3125,-2.625c0.95955,-3.3148 2.75883,-3.70148 5.6875,-5.375c0.47437,-0.88687 0.94875,-1.77375 1.4375,-2.6875c0.51562,-0.76313 1.03125,-1.52625 1.5625,-2.3125c3,-0.1875 3,-0.1875 6,0c3.29365,-2.19577 4.18985,-2.36287 8,-2zm-3,2c-0.66,0.66 -1.32,1.32 -2,2c-1.94906,0.15469 -1.94906,0.15469 -3.9375,0.3125c-2.13996,0.15391 -2.13996,0.15391 -4.0625,0.6875c-1.80787,2.37402 -1.80787,2.37402 -3,5c-0.70125,0.26812 -1.4025,0.53625 -2.125,0.8125c-0.61875,0.39188 -1.2375,0.78375 -1.875,1.1875c-0.64741,3.61822 -0.64741,3.61822 -0.72656,6.02734c-0.27344,1.97266 -0.27344,1.97266 -2.27344,4.97266c0.66,0.66 1.32,1.32 2,2c0.15469,1.94906 0.15469,1.94906 0.3125,3.9375c0.15391,2.13996 0.15391,2.13996 0.6875,4.0625c2.37402,1.80787 2.37402,1.80787 5,3c0.26812,0.70125 0.53625,1.4025 0.8125,2.125c0.39188,0.61875 0.78375,1.2375 1.1875,1.875c3.61822,0.64741 3.61822,0.64741 6.02734,0.72656c1.97266,0.27344 1.97266,0.27344 4.97266,2.27344c0.66,-0.66 1.32,-1.32 2,-2c1.94906,-0.15469 1.94906,-0.15469 3.9375,-0.3125c2.13996,-0.15391 2.13996,-0.15391 4.0625,-0.6875c1.80787,-2.37402 1.80787,-2.37402 3,-5c0.70125,-0.26812 1.4025,-0.53625 2.125,-0.8125c0.92812,-0.58781 0.92812,-0.58781 1.875,-1.1875c0.64741,-3.61822 0.64741,-3.61822 0.72656,-6.02734c0.27344,-1.97266 0.27344,-1.97266 2.27344,-4.97266c-0.66,-0.66 -1.32,-1.32 -2,-2c-0.15469,-1.94906 -0.15469,-1.94906 -0.3125,-3.9375c-0.15391,-2.13996 -0.15391,-2.13996 -0.6875,-4.0625c-2.37402,-1.80787 -2.37402,-1.80787 -5,-3c-0.26812,-0.70125 -0.53625,-1.4025 -0.8125,-2.125c-0.39188,-0.61875 -0.78375,-1.2375 -1.1875,-1.875c-3.61822,-0.64741 -3.61822,-0.64741 -6.02734,-0.72656c-1.97266,-0.27344 -1.97266,-0.27344 -4.97266,-2.27344z" fill="#ffffff" id="svg_1"/>
  <path d="m20,5c1.65,0 3.3,0 5,0c0.22331,1.58129 0.42805,3.16521 0.625,4.75c0.17402,1.32258 0.17402,1.32258 0.35156,2.67188c0.02552,2.80672 -0.52812,4.21197 -1.97656,6.57812c0.66,0 1.32,0 2,0c0,0.66 0,1.32 0,2c0.99,-0.66 1.98,-1.32 3,-2c2.69922,0.02344 2.69922,0.02344 5.6875,0.375c1.4908,0.16629 1.4908,0.16629 3.01172,0.33594c0.75926,0.09539 1.51851,0.19078 2.30078,0.28906c0,1.65 0,3.3 0,5c-1.76914,0.22227 -3.54044,0.42734 -5.3125,0.625c-0.98613,0.11602 -1.97227,0.23203 -2.98828,0.35156c-2.69922,0.02344 -2.69922,0.02344 -5.69922,-1.97656c0,0.66 0,1.32 0,2c-0.66,0 -1.32,0 -2,0c0.35062,0.825 0.70125,1.65 1.0625,2.5c1.16086,4.33387 0.69455,7.1091 -0.0625,11.5c-1.65,0 -3.3,0 -5,0c-0.22331,-1.58129 -0.42805,-3.16521 -0.625,-4.75c-0.11602,-0.88172 -0.23203,-1.76344 -0.35156,-2.67187c-0.02552,-2.80673 0.52812,-4.21198 1.97656,-6.57813c-0.66,0 -1.32,0 -2,0c0,-0.66 0,-1.32 0,-2c-0.99,0.66 -1.98,1.32 -3,2c-2.69922,-0.02344 -2.69922,-0.02344 -5.6875,-0.375c-1.4908,-0.16629 -1.4908,-0.16629 -3.01172,-0.33594c-0.75926,-0.09539 -1.51851,-0.19078 -2.30078,-0.28906c0,-1.65 0,-3.3 0,-5c1.58129,-0.22331 3.16521,-0.42805 4.75,-0.625c0.88172,-0.11602 1.76344,-0.23203 2.67187,-0.35156c2.80673,-0.02552 4.21198,0.52812 6.57813,1.97656c0,-0.66 0,-1.32 0,-2c0.66,0 1.32,0 2,0c-0.35062,-0.825 -0.70125,-1.65 -1.0625,-2.5c-1.16086,-4.33387 -0.69455,-7.1091 0.0625,-11.5zm2,2c0,2.64 0,5.28 0,8c0.33,0 0.66,0 1,0c0,-2.64 0,-5.28 0,-8c-0.33,0 -0.66,0 -1,0zm-1,14c0,0.99 0,1.98 0,3c0.99,0 1.98,0 3,0c0,-0.99 0,-1.98 0,-3c-0.99,0 -1.98,0 -3,0zm-14,1c0,0.33 0,0.66 0,1c2.64,0 5.28,0 8,0c0,-0.33 0,-0.66 0,-1c-2.64,0 -5.28,0 -8,0zm23,0c0,0.33 0,0.66 0,1c2.64,0 5.28,0 8,0c0,-0.33 0,-0.66 0,-1c-2.64,0 -5.28,0 -8,0zm-8,8c0,2.64 0,5.28 0,8c0.33,0 0.66,0 1,0c0,-2.64 0,-5.28 0,-8c-0.33,0 -0.66,0 -1,0z" fill="#ffffff" id="svg_2"/>
  <path fill="#000000" stroke="#000000" d="m11.95996,53.86509c0,0 -4.76811,-4.89359 -4.80779,-4.9292" id="svg_7"/>
  <path fill="#ffffff" stroke="#000" opacity="NaN" d="m20.49237,54.61795" id="svg_8"/>
  <path fill="#181818" opacity="NaN" d="m22.62548,38.95846" id="svg_10"/>
  <path fill="#ffffff" opacity="NaN" d="m18.23379,22.39555c0,0 0.87834,1.75667 0.87834,1.88215" id="svg_13"/>
  <path fill="#171717" stroke="#ffffff" opacity="NaN" d="m32.66361,20.76435" id="svg_23"/>
  <path fill="#171717" stroke="#ffffff" opacity="NaN" d="m36.30243,21.14078" id="svg_26"/>
  <path fill="#ffffff" stroke="#ffffff" opacity="NaN" d="m35.04766,20.13697" id="svg_28"/>
  <path fill="#ffffff" opacity="NaN" d="m9.19948,20.38792" id="svg_32" stroke="#ffffff"/>
  <g id="svg_40" stroke="null" transform="rotate(-90.1659 12.8308 13.3402)">
   <line fill="none" x1="13.05381" y1="18.03303" x2="17.66169" y2="18.03303" id="svg_36" stroke="#ffffff"/>
   <path fill="#000000" opacity="NaN" d="m17.21577,18.1836c-0.95335,-9.15979 -8.5802,-9.15979 -9.21577,-9.15979" id="svg_37" stroke="#ffffff"/>
   <path fill="#000000" opacity="NaN" d="m13.64837,17.93265c-0.53818,-5.17085 -4.84366,-5.17085 -5.20245,-5.17085" id="svg_38" stroke="#ffffff"/>
   <line fill="none" x1="8.29728" y1="8.49681" x2="8.29728" y2="13.25426" id="svg_39" stroke="#ffffff"/>
  </g>
  <g id="svg_45" stroke="null" transform="rotate(-0.121801 32.1617 13.2503)">
   <line fill="none" x1="32.38466" y1="17.94315" x2="36.99255" y2="17.94315" id="svg_41" stroke="#ffffff"/>
   <path fill="#000000" opacity="NaN" d="m36.54663,18.09372c-0.95336,-9.15979 -8.5802,-9.15979 -9.21577,-9.15979" id="svg_42" stroke="#ffffff"/>
   <path fill="#000000" opacity="NaN" d="m32.97923,17.84277c-0.53818,-5.17085 -4.84366,-5.17085 -5.20245,-5.17085" id="svg_43" stroke="#ffffff"/>
   <line fill="none" x1="27.62814" y1="8.40693" x2="27.62814" y2="13.16438" id="svg_44" stroke="#ffffff"/>
  </g>
  <g id="svg_55" stroke="null" transform="rotate(-179.678 12.7054 31.8434)">
   <line fill="none" x1="12.92833" y1="36.53623" x2="17.53622" y2="36.53623" id="svg_51" stroke="#ffffff"/>
   <path fill="#000000" opacity="NaN" d="m17.09029,36.68679c-0.95336,-9.15979 -8.5802,-9.15979 -9.21577,-9.15979" id="svg_52" stroke="#ffffff"/>
   <path fill="#000000" opacity="NaN" d="m13.52289,36.43584c-0.53818,-5.17085 -4.84366,-5.17085 -5.20245,-5.17085" id="svg_53" stroke="#ffffff"/>
   <line fill="none" x1="8.1718" y1="27" x2="8.1718" y2="31.75746" id="svg_54" stroke="#ffffff"/>
  </g>
  <g id="svg_60" stroke="null">
   <line transform="rotate(90.1232 27.2581 34.3602)" fill="none" x1="24.95411" y1="34.36024" x2="29.56199" y2="34.36024" id="svg_56" stroke="#ffffff"/>
   <path transform="rotate(90.1232 31.6933 31.6199)" fill="#000000" opacity="NaN" d="m36.30117,36.19979c-0.95336,-9.15979 -8.5802,-9.15979 -9.21577,-9.15979" id="svg_57" stroke="#ffffff"/>
   <path transform="rotate(90.1232 29.9531 30.0554)" fill="#000000" opacity="NaN" d="m32.55435,32.64084c-0.53818,-5.17085 -4.84366,-5.17085 -5.20245,-5.17085" id="svg_58" stroke="#ffffff"/>
   <line transform="rotate(90.1232 34.4307 27.3152)" fill="none" x1="34.43071" y1="24.93644" x2="34.43071" y2="29.6939" id="svg_59" stroke="#ffffff"/>
  </g>
 </g>

</svg>