<?xml version="1.0" encoding="UTF-8" standalone="no"?>
<svg
   xmlns:dc="http://purl.org/dc/elements/1.1/"
   xmlns:cc="http://creativecommons.org/ns#"
   xmlns:rdf="http://www.w3.org/1999/02/22-rdf-syntax-ns#"
   xmlns:svg="http://www.w3.org/2000/svg"
   xmlns="http://www.w3.org/2000/svg"
   xmlns:sodipodi="http://sodipodi.sourceforge.net/DTD/sodipodi-0.dtd"
   xmlns:inkscape="http://www.inkscape.org/namespaces/inkscape"
   width="45"
   height="45"
   version="1.1"
   id="svg2118"
   sodipodi:docname="bBS.svg"
   inkscape:version="1.0.1 (3bc2e813f5, 2020-09-07)">
  <metadata
     id="metadata2124">
    <rdf:RDF>
      <cc:Work
         rdf:about="">
        <dc:format>image/svg+xml</dc:format>
        <dc:type
           rdf:resource="http://purl.org/dc/dcmitype/StillImage" />
        <dc:title />
      </cc:Work>
    </rdf:RDF>
  </metadata>
  <defs
     id="defs2122" />
  <sodipodi:namedview
     pagecolor="#ffffff"
     bordercolor="#666666"
     borderopacity="1"
     objecttolerance="10"
     gridtolerance="10"
     guidetolerance="10"
     inkscape:pageopacity="0"
     inkscape:pageshadow="2"
     inkscape:window-width="3840"
     inkscape:window-height="2050"
     id="namedview2120"
     showgrid="false"
     inkscape:zoom="3.959798"
     inkscape:cx="-125.19168"
     inkscape:cy="10.493778"
     inkscape:window-x="3828"
     inkscape:window-y="-12"
     inkscape:window-maximized="1"
     inkscape:current-layer="svg2118"
     inkscape:document-rotation="0" />
  <g
     fill="none"
     fill-rule="evenodd"
     stroke="#000"
     stroke-width="1.5"
     stroke-linecap="round"
     stroke-linejoin="round"
     id="g2116">
    <g
       fill="#000"
       stroke-linecap="butt"
       id="g2112">
      <path
         d="m 35.999995,8.3163007 c -3.39,0.97 -10.11,-0.43 -13.5,2.0000003 -3.39,-2.4300003 -10.11,-1.0300003 -13.4999997,-2.0000003 0,0 -1.65,-0.54 -3,-2 0.68,-0.97 1.65,-0.99 3,-0.5 3.3899997,0.97 10.1099997,-0.46 13.4999997,1 3.39,-1.46 10.11,-0.03 13.5,-1 1.354,-0.49 2.323,-0.47 3,0.5 -1.354,1.94 -3,2 -3,2 z"
         id="path2106" />
      <path
         d="m 29.999995,12.316301 c -2.5,-2.5000003 -12.5,-2.5000003 -15,0 -0.5,1.5 0,2 0,2 0,2.5 2.5,4 2.5,4 -5.5,1.5 -6,11.5 5,15.5 11,-4 10.5,-14 5,-15.5 0,0 2.5,-1.5 2.5,-4 0,0 0.5,-0.5 0,-2 z"
         id="path2108" />
      <path
         d="m 19.999995,36.316301 a -2.5,-2.5 0 1 1 5,0 -2.5,-2.5 0 1 1 -5,0 z"
         id="path2110" />
    </g>
    <path
       d="m 27.499995,18.316301 h -10 m 12.5,-4 h -15"
       stroke="#ececec"
       stroke-linejoin="miter"
       id="path2114"
       sodipodi:nodetypes="cccc" />
  </g>
  <path
     id="path2176-6"
     style="fill:#3e588a;fill-opacity:1;stroke:none;stroke-width:0.651777;stroke-linecap:butt;stroke-linejoin:round;stroke-miterlimit:4;stroke-dasharray:none;stroke-opacity:1;paint-order:normal"
     d="m 22.499995,32.377741 c 1.15332,-2.766482 4.426758,-5.166165 5.510385,-6.058489 -2.177796,0.138362 -3.895198,0.555678 -4.64325,0.549764 0.352798,-4.656068 4.370272,-3.664518 4.371512,-6.685584 -1.524366,0 -3.366686,0.0081 -5.238647,0.01616 -1.87196,-0.0081 -3.714279,-0.01616 -5.238647,-0.01616 0.0013,3.021066 4.018713,2.029516 4.371511,6.685584 -0.748053,0.0059 -2.465453,-0.411402 -4.643249,-0.549764 1.083626,0.892324 4.357065,3.292007 5.510385,6.058489 z"
     sodipodi:nodetypes="ccccccc" />
</svg>
