<svg height="45" width="45" xmlns="http://www.w3.org/2000/svg"><g style="fill:none;fill-rule:evenodd;stroke:#000;stroke-width:1.5;stroke-linecap:round;stroke-linejoin:round"><g style="fill:none;fill-rule:evenodd;stroke:#000;stroke-width:1.5;stroke-linecap:round;stroke-linejoin:round" transform="matrix(.66106567 0 0 .66106567 -.178114 -1.633082)"><path d="m22 10c10.5 1 16.5 8 16 29h-23c0-9 10-6.5 8-21" fill="#3e588a" stroke="#3e588a"/><path d="m24 18c.38 2.91-5.55 7.37-8 9-3 2-2.82 4.34-5 4-1.042-.94 1.41-3.04 0-3-1 0 .19 1.23-1 2-1 0-4.003 1-4-4 0-2 6-12 6-12s1.89-1.9 2-3.5c-.73-.994-.5-2-.5-3 1-1 3 2.5 3 2.5h2s.78-1.992 2.5-3c1 0 1 3 1 3" fill="#3e588a" stroke="#3e588a"/><g fill="#ececec"><path d="m9.5 25.5a.5.5 0 1 1 -1 0 .5.5 0 1 1 1 0zm5.433-9.75a.5 1.5 30 1 1 -.866-.5.5 1.5 30 1 1 .866.5z" stroke="#ececec"/><path d="m24.55 10.4-.45 1.45.5.15c3.15 1 5.65 2.49 7.9 6.75s3.25 10.31 2.75 20.25l-.05.5h2.25l.05-.5c.5-10.06-.88-16.85-3.25-21.34s-5.79-6.64-9.19-7.16z" stroke="none"/></g></g><path d="m22.5 19.198s4.5-7.5 3-10.5c0 0-1-2.5-3-2.5s-3 2.5-3 2.5c-1.5 3 3 10.5 3 10.5" fill="#000" stroke-linecap="butt" stroke-linejoin="miter"/><path d="m11.5 37c5.5 3.5 15.5 3.5 21 0v-7s9-4.5 6-10.5c-4-6.5-13.5-4.257-16.5-4.257s-12.5-2.243-15.5 4.257c-3 6 5 10 5 10z" fill="#000"/><g stroke="#ededed"><path d="m32 29.5s8.5-4 6.03-9.65c-3.88-5.85-13.03-3.554632-15.53-3.554632s-12.594-2.295368-15.503 3.554632c-2.497 5.65 4.853 9 4.853 9"/><path d="m11.5 30c5.5-3 15.5-3 21 0m-21 3.5c5.5-3 15.5-3 21 0m-21 3.5c5.5-3 15.5-3 21 0"/></g></g></svg>