<?xml version="1.0" encoding="UTF-8" standalone="no"?>
<svg
   xmlns:dc="http://purl.org/dc/elements/1.1/"
   xmlns:cc="http://creativecommons.org/ns#"
   xmlns:rdf="http://www.w3.org/1999/02/22-rdf-syntax-ns#"
   xmlns:svg="http://www.w3.org/2000/svg"
   xmlns="http://www.w3.org/2000/svg"
   xmlns:sodipodi="http://sodipodi.sourceforge.net/DTD/sodipodi-0.dtd"
   xmlns:inkscape="http://www.inkscape.org/namespaces/inkscape"
   width="45"
   height="45"
   version="1.1"
   id="svg4139"
   sodipodi:docname="bMN.svg"
   inkscape:version="1.0.1 (3bc2e813f5, 2020-09-07)">
  <metadata
     id="metadata4145">
    <rdf:RDF>
      <cc:Work
         rdf:about="">
        <dc:format>image/svg+xml</dc:format>
        <dc:type
           rdf:resource="http://purl.org/dc/dcmitype/StillImage" />
        <dc:title></dc:title>
      </cc:Work>
    </rdf:RDF>
  </metadata>
  <defs
     id="defs4143" />
  <sodipodi:namedview
     pagecolor="#ffffff"
     bordercolor="#666666"
     borderopacity="1"
     objecttolerance="10"
     gridtolerance="10"
     guidetolerance="10"
     inkscape:pageopacity="0"
     inkscape:pageshadow="2"
     inkscape:window-width="1918"
     inkscape:window-height="2037"
     id="namedview4141"
     showgrid="false"
     inkscape:zoom="7.919596"
     inkscape:cx="55.945226"
     inkscape:cy="33.689137"
     inkscape:window-x="5749"
     inkscape:window-y="0"
     inkscape:window-maximized="0"
     inkscape:current-layer="g4137"
     inkscape:document-rotation="0" />
  <g
     fill="none"
     fill-rule="evenodd"
     stroke="#000"
     stroke-width="1.5"
     stroke-linecap="round"
     stroke-linejoin="round"
     id="g4137">
    <g
       fill="none"
       fill-rule="evenodd"
       stroke="#000000"
       stroke-width="1.5"
       stroke-linecap="round"
       stroke-linejoin="round"
       id="g5777"
       transform="matrix(0.66106567,0,0,0.66106567,-0.17811383,-1.633082)">
      <path
         d="m 22,10 c 10.5,1 16.5,8 16,29 H 15 c 0,-9 10,-6.5 8,-21"
         fill="#000000"
         id="path5769"
         style="fill:#3e588a;fill-opacity:1;stroke:#3e588a;stroke-opacity:1" />
      <path
         d="m 24,18 c 0.38,2.91 -5.55,7.37 -8,9 -3,2 -2.82,4.34 -5,4 -1.042,-0.94 1.41,-3.04 0,-3 -1,0 0.19,1.23 -1,2 -1,0 -4.003,1 -4,-4 0,-2 6,-12 6,-12 0,0 1.89,-1.9 2,-3.5 -0.73,-0.994 -0.5,-2 -0.5,-3 1,-1 3,2.5 3,2.5 h 2 c 0,0 0.78,-1.992 2.5,-3 1,0 1,3 1,3"
         fill="#000000"
         id="path5771"
         style="fill:#3e588a;fill-opacity:1;stroke:#3e588a;stroke-opacity:1" />
      <path
         d="m 9.5,25.5 a 0.5,0.5 0 1 1 -1,0 0.5,0.5 0 1 1 1,0 z m 5.433,-9.75 a 0.5,1.5 30 1 1 -0.866,-0.5 0.5,1.5 30 1 1 0.866,0.5 z"
         fill="#ececec"
         stroke="#ececec"
         id="path5773" />
      <path
         d="M 24.55,10.4 24.1,11.85 24.6,12 c 3.15,1 5.65,2.49 7.9,6.75 2.25,4.26 3.25,10.31 2.75,20.25 l -0.05,0.5 h 2.25 L 37.5,39 C 38,28.94 36.62,22.15 34.25,17.66 31.88,13.17 28.46,11.02 25.06,10.5 Z"
         fill="#ececec"
         stroke="none"
         id="path5775" />
    </g>
    <path
       d="m 22.5,19.198 c 0,0 4.5,-7.5 3,-10.5 0,0 -1,-2.5 -3,-2.5 -2,0 -3,2.5 -3,2.5 -1.5,3 3,10.5 3,10.5"
       fill="#000000"
       stroke-linecap="butt"
       stroke-linejoin="miter"
       id="path4127"
       sodipodi:nodetypes="ccscc" />
    <path
       d="m 11.5,37 c 5.5,3.5 15.5,3.5 21,0 v -7 c 0,0 9,-4.5 6,-10.5 C 34.5,13 25,15.243 22,15.243 19,15.243 9.5,13 6.5,19.5 c -3,6 5,10 5,10 z"
       fill="#000"
       id="path4129"
       sodipodi:nodetypes="cccccccc" />
    <path
       d="m 32,29.5 c 0,0 8.5,-4 6.03,-9.65 C 34.15,14 25,16.295368 22.5,16.295368 20,16.295368 9.906,14 6.997,19.85 c -2.497,5.65 4.853,9 4.853,9"
       stroke="#ececec"
       id="path4133"
       sodipodi:nodetypes="ccccc"
       style="stroke:#ededed;stroke-opacity:1" />
    <path
       d="M11.5 30c5.5-3 15.5-3 21 0m-21 3.5c5.5-3 15.5-3 21 0m-21 3.5c5.5-3 15.5-3 21 0"
       stroke="#ececec"
       id="path4135"
       style="stroke:#ededed;stroke-opacity:1" />
  </g>
</svg>
