<svg height="45" width="45" xmlns="http://www.w3.org/2000/svg"><g stroke-linecap="round"><g fill-rule="evenodd" stroke="#000" stroke-linejoin="round" stroke-width="1.5"><g stroke-linecap="butt"><path d="m36 9h-27v3h27zm-3.5 7-1.5 2.5h-17l-1.5-2.5zm.5-4v4h-21v-4z"/><path d="m31 18.5v13h-17v-13z" stroke-linejoin="miter"/><path d="m31 31.5 3 2.5h-23l3-2.5zm3 2.5v5h-4v-2h-5v2h-5v-2h-5v2h-4v-5z"/></g><path d="m33 12.5h-21m20 4h-19m18 2h-17m17 13h-17m20 2.5h-23" fill="none" stroke="#ececec" stroke-linejoin="miter" stroke-width="1"/></g><path d="m22.5 30.25349c.93471 0 1.691783-.757073 1.691783-1.691782 0-.376422-.122654-.723238-.329898-1.006611.824744-.473698 1.387261-1.357655 1.387261-2.376953 0-.85858-.397569-1.62411-1.019299-2.127417 1.268837-.448321 3.134027-2.347346 3.134027-5.697075h-9.727747c0 3.349729 1.865189 5.248754 3.134025 5.697075-.621729.503307-1.019298 1.268837-1.019298 2.127417 0 1.019298.562517 1.903255 1.387261 2.376953-.207243.283373-.329897.630189-.329897 1.006611 0 .934709.757073 1.691782 1.691782 1.691782z" fill="#3e588a" stroke="#3e588a" stroke-width=".634419"/></g></svg>