<?xml version="1.0" encoding="UTF-8" standalone="no"?>
<svg
   xmlns:dc="http://purl.org/dc/elements/1.1/"
   xmlns:cc="http://creativecommons.org/ns#"
   xmlns:rdf="http://www.w3.org/1999/02/22-rdf-syntax-ns#"
   xmlns:svg="http://www.w3.org/2000/svg"
   xmlns="http://www.w3.org/2000/svg"
   xmlns:sodipodi="http://sodipodi.sourceforge.net/DTD/sodipodi-0.dtd"
   xmlns:inkscape="http://www.inkscape.org/namespaces/inkscape"
   inkscape:version="1.0.1 (3bc2e813f5, 2020-09-07)"
   sodipodi:docname="bSB.svg"
   id="svg3845"
   version="1.1"
   height="45"
   width="45">
  <metadata
     id="metadata3851">
    <rdf:RDF>
      <cc:Work
         rdf:about="">
        <dc:format>image/svg+xml</dc:format>
        <dc:type
           rdf:resource="http://purl.org/dc/dcmitype/StillImage" />
        <dc:title></dc:title>
      </cc:Work>
    </rdf:RDF>
  </metadata>
  <defs
     id="defs3849">
    <inkscape:path-effect
       split_items="false"
       oposite_fuse="false"
       fuse_paths="true"
       discard_orig_path="false"
       mode="free"
       lpeversion="1"
       is_visible="true"
       id="path-effect4448"
       center_point="-103.61098,72.03113"
       end_point="-103.61098,147.39645"
       start_point="-103.61098,-3.3341899"
       effect="mirror_symmetry" />
    <inkscape:path-effect
       effect="mirror_symmetry"
       start_point="-103.61098,-3.3341899"
       end_point="-103.61098,147.39645"
       center_point="-103.61098,72.03113"
       id="path-effect4256"
       is_visible="true"
       lpeversion="1"
       mode="free"
       discard_orig_path="false"
       fuse_paths="true"
       oposite_fuse="false"
       split_items="false" />
  </defs>
  <sodipodi:namedview
     inkscape:current-layer="svg3845"
     inkscape:window-maximized="1"
     inkscape:window-y="-12"
     inkscape:window-x="3828"
     inkscape:cy="51.618824"
     inkscape:cx="3.7216219"
     inkscape:zoom="4.8222222"
     showgrid="false"
     id="namedview3847"
     inkscape:window-height="2050"
     inkscape:window-width="3840"
     inkscape:pageshadow="2"
     inkscape:pageopacity="0"
     guidetolerance="10"
     gridtolerance="10"
     objecttolerance="10"
     borderopacity="1"
     bordercolor="#666666"
     pagecolor="#ffffff"
     inkscape:document-rotation="0" />
  <g
     fill="none"
     fill-rule="evenodd"
     stroke="#000000"
     stroke-width="1.5"
     stroke-linecap="round"
     stroke-linejoin="round"
     id="g2116"
     transform="matrix(0.83211331,0,0,0.83211331,3.7774503,-0.33748681)">
    <g
       fill="#000000"
       stroke-linecap="butt"
       id="g2112">
      <path
         d="m 9,36 c 3.39,-0.97 10.11,0.43 13.5,-2 3.39,2.43 10.11,1.03 13.5,2 0,0 1.65,0.54 3,2 -0.68,0.97 -1.65,0.99 -3,0.5 -3.39,-0.97 -10.11,0.46 -13.5,-1 C 19.11,38.96 12.39,37.53 9,38.5 7.646,38.99 6.677,38.97 6,38 7.354,36.06 9,36 9,36 Z"
         id="path2106"
         style="fill:#3e588a;fill-opacity:1;stroke:#3e588a;stroke-opacity:1" />
      <path
         d="m 15,32 c 2.5,2.5 12.5,2.5 15,0 0.5,-1.5 0,-2 0,-2 0,-2.5 -2.5,-4 -2.5,-4 5.5,-1.5 6,-11.5 -5,-15.5 -11,4 -10.5,14 -5,15.5 0,0 -2.5,1.5 -2.5,4 0,0 -0.5,0.5 0,2 z"
         id="path2108"
         style="fill:#3e588a;fill-opacity:1;stroke:#3e588a;stroke-opacity:1" />
      <path
         d="m 25,8 a 2.5,2.5 0 1 1 -5,0 2.5,2.5 0 1 1 5,0 z"
         id="path2110"
         style="fill:#3e588a;fill-opacity:1;stroke:#3e588a;stroke-opacity:1" />
    </g>
    <path
       d="m 17.5,26 h 10 M 15,30 h 15"
       stroke="#ececec"
       stroke-linejoin="miter"
       id="path2114"
       sodipodi:nodetypes="cccc" />
  </g>
  <path
     inkscape:path-effect="#path-effect4448"
     inkscape:original-d="M -99.745078,-1.3007197 C -105.01077,33.87678 -149.43162,66.260788 -162.80489,77.273131 c 23.39443,-1.486303 41.84318,-5.969219 49.87893,-5.905687 -3.78985,50.016626 -46.94654,39.365156 -46.95985,71.818166 33.16237,0 80.332875,-0.35352 115.78722,-0.35352 -0.006,-11.54918 -5.174356,-28.25734 -18.099609,-30.09179 -44.142831,-81.107313 6.642805,-43.090295 -37.546879,-114.0410197 z"
     transform="matrix(0.21423887,0,0,0.21423887,44.697499,8.8984368)"
     id="path2176-6"
     style="fill:#000000;fill-opacity:1;stroke:#000000;stroke-width:7.00153058;stroke-linecap:butt;stroke-linejoin:round;stroke-miterlimit:4;stroke-dasharray:none;stroke-opacity:1;paint-order:normal"
     d="m -103.61098,12.19137 c -12.38926,29.718231 -47.55333,55.496217 -59.19391,65.081761 23.39443,-1.486303 41.84318,-5.969219 49.87893,-5.905687 -3.78985,50.016626 -46.94654,39.365156 -46.95985,71.818166 16.37512,0 36.16578,-0.0862 56.27483,-0.17347 20.10905,0.0873 39.899706,0.17347 56.27483,0.17347 -0.01331,-32.45301 -43.17,-21.80154 -46.95985,-71.818166 8.03575,-0.06353 26.4845,4.419384 49.87893,5.905687 -11.64058,-9.585544 -46.804652,-35.36353 -59.19391,-65.081761 z"
     sodipodi:nodetypes="ccccccc" />
</svg>
