<svg height="45" width="45" xmlns="http://www.w3.org/2000/svg" xmlns:xlink="http://www.w3.org/1999/xlink"><filter id="a" color-interpolation-filters="sRGB" height="1.000022" width="1.000022" x="-.000011" y="-.000011"><feGaussianBlur stdDeviation=".00002475"/></filter><g fill-rule="evenodd" stroke="#000" stroke-linecap="round" stroke-linejoin="round" stroke-width="1.5" transform="matrix(.6453104 .37257013 -.37257013 .6453104 17.519228 -4.693523)"><g fill="#d35f5f"><g stroke="none"><circle cx="-49.026875" cy="-43.11132" r="2.75" transform="scale(-1)"/><circle cx="22.5" cy="8" filter="url(#a)" r="2.75" transform="matrix(-1 0 0 -1 55.026876 55.111322)"/><circle cx="-16.026876" cy="-43.11132" r="2.75" transform="scale(-1)"/></g><path d="m46.026876 29.111321c-8.5 1.5-21 1.5-27 0l-2.5 12.5 7.5-11.5 2 5 3.5-4.5 3 14.5 3-14.5 3.5 4.5 2-5 7.5 11.5z" stroke="#d35f5f" stroke-linecap="butt"/><path d="m46.026876 29.111321c0-2-1.5-2-2.5-4-1-1.5-1-1-.5-3.5 1.5-1 1.5-2.5 1.5-2.5h-23.5s-.5 1.5 1 2.5c.5 2.5.5 2-.5 3.5-1 2-2.5 2-2.5 4 8.5 1.5 18.5 1.5 27 0z" stroke="#d35f5f" stroke-linecap="butt"/></g><path d="m44.026876 26.111321c-7.44776 2.590974-15.55224 2.590974-23 0m21.5-2.5c-6.946703 1.120144-13.557044.894841-20 0" fill="none" stroke="#ececec"/></g><g fill="#fff"><path d="m25.977028 17.42053 17.906034 15.25124 5.989759-5.634783c-1.05688-1.056879-14.521359-17.4540173-14.521359-17.4540173-7.338306-9.86993597-17.191534.6853233-9.374434 7.8375603z" stroke="#000" stroke-linejoin="round" stroke-width="1.63061" transform="matrix(.88855673 -.23808806 .23808806 .88855673 -6.419073 11.561755)"/><path d="m23.946644 12.996597-8.12929-.174823c-1.58485-4.788575-4.833626-6.803941-8.1292837-8.741167 7.0671987 0 7.8382017 1.80317 10.2271677 4.25575l5.943993.285641z" stroke="#1a1a1a" stroke-width="1.5"/><circle cx="-28.091852" cy="-10.909138" r="6.92265" stroke="#000" stroke-linecap="round" stroke-linejoin="round" stroke-width="1.5" transform="scale(-1)"/></g><circle cx="-28.091852" cy="-10.909138" r="1.696525" transform="scale(-1)"/></svg>