<svg height="45" width="45" xmlns="http://www.w3.org/2000/svg"><g fill="#d35f5f" transform="matrix(.31149041 0 0 .31149041 -30.492973 1.587131)"><path d="m33.393565 24.996743-17.906034-15.2512399-5.9897591 5.6347829c1.0568801 1.056879 14.5213591 17.454017 14.5213591 17.454017 7.338306 9.869936 17.191534-.685323 9.374434-7.83756z" transform="matrix(1.9382789 -.51936028 .51936028 1.9382789 99.026581 16.67806)"/><circle cx="160.85179" cy="69.483444" r="15.100924"/><path d="m169.89406 64.929903 17.73306.381356c3.45716 10.445697 10.54397 14.841974 17.73305 19.067797-15.41624 0-17.09809-3.933397-22.30933-9.283403l-12.9661-.623091z"/><circle cx="160.85179" cy="69.483444" r="10.97773" stroke="#eaeaea" stroke-linecap="round" stroke-linejoin="round" stroke-width="3.89722"/></g><g style="fill:#fff;fill-rule:evenodd;stroke:#000;stroke-width:1.5;stroke-linecap:round;stroke-linejoin:round" transform="translate(0 3)"><path d="m8 12c0 2.666666-4 2.666666-4 0 0-2.6666655 4-2.6666655 4 0zm16.5-4.5c0 2.666666-4 2.666666-4 0 0-2.6666655 4-2.6666655 4 0zm16.5 4.5c0 2.666666-4 2.666666-4 0 0-2.6666655 4-2.6666655 4 0z"/><path d="m9 26c8.5-1.5 21-1.5 27 0l2-12-7 11-2-5-3.5 4.5-3-15-3 15-3.5-4.5-2 5-7-11z" stroke-linecap="butt"/><path d="m9 26c0 2 1.5 2 2.5 4 1 1.5 1 1 .5 3.5-1.5 1-1.5 2.5-1.5 2.5h23.5s.5-1.5-1-2.5c-.5-2.5-.5-2 .5-3.5 1-2 2.5-2 2.5-4-8.5-1.5-18.5-1.5-27 0z" stroke-linecap="butt"/><path d="m11.5 30c3.5-1 18.5-1 22 0m-21.5 3.5c6-1 15-1 21 0" fill="none"/></g></svg>