<svg height="45" width="45" xmlns="http://www.w3.org/2000/svg"><g stroke="#000" stroke-linecap="round" stroke-width="1.5"><g fill="#d35f5f" fill-rule="evenodd" stroke-linejoin="round" transform="matrix(.98945123108 0 0 .98945123108 .23734782549 -1.49936769647)"><g stroke="#d35f5f" stroke-linecap="butt"><path d="m36 11.444467h-27v3h27zm-3.5 7-1.5 2.5h-17l-1.5-2.5zm.5-4v4h-21v-4z"/><path d="m31 20.944467v13h-17v-13z" stroke-linejoin="miter"/><path d="m31 33.944467 3 2.5h-23l3-2.5zm3 2.5v5h-4v-2h-5v2h-5v-2h-5v2h-4v-5z"/></g><path d="m33 14.944467h-21m20 4h-19m18 2h-17m17 13h-17m20 2.5h-23" stroke="#ececec" stroke-linejoin="miter" stroke-width="1"/></g><path d="m22.5 37.913605c2.21 0 4-1.79 4-4 0-.89-.29-1.71-.78-2.38 1.95-1.12 3.28-3.21 3.28-5.62 0-2.03-.94-3.84-2.41-5.03 3-1.06 7.41-5.55 7.41-13.47h-23c0 7.92 4.41 12.41 7.41 13.47-1.47 1.19-2.41 3-2.41 5.03 0 2.41 1.33 4.5 3.28 5.62-.49.67-.78 1.49-.78 2.38 0 2.21 1.79 4 4 4z" fill="#fff"/></g></svg>