<?xml version="1.0" encoding="UTF-8" standalone="no"?>
<svg
   xmlns:dc="http://purl.org/dc/elements/1.1/"
   xmlns:cc="http://creativecommons.org/ns#"
   xmlns:rdf="http://www.w3.org/1999/02/22-rdf-syntax-ns#"
   xmlns:svg="http://www.w3.org/2000/svg"
   xmlns="http://www.w3.org/2000/svg"
   xmlns:sodipodi="http://sodipodi.sourceforge.net/DTD/sodipodi-0.dtd"
   xmlns:inkscape="http://www.inkscape.org/namespaces/inkscape"
   width="45"
   height="45"
   version="1.1"
   id="svg3449"
   sodipodi:docname="wRP.svg"
   inkscape:version="1.0.1 (3bc2e813f5, 2020-09-07)">
  <metadata
     id="metadata3455">
    <rdf:RDF>
      <cc:Work
         rdf:about="">
        <dc:format>image/svg+xml</dc:format>
        <dc:type
           rdf:resource="http://purl.org/dc/dcmitype/StillImage" />
        <dc:title></dc:title>
      </cc:Work>
    </rdf:RDF>
  </metadata>
  <defs
     id="defs3453" />
  <sodipodi:namedview
     pagecolor="#ffffff"
     bordercolor="#666666"
     borderopacity="1"
     objecttolerance="10"
     gridtolerance="10"
     guidetolerance="10"
     inkscape:pageopacity="0"
     inkscape:pageshadow="2"
     inkscape:window-width="3840"
     inkscape:window-height="2050"
     id="namedview3451"
     showgrid="false"
     inkscape:zoom="11.2"
     inkscape:cx="-5.2560949"
     inkscape:cy="16.191539"
     inkscape:window-x="3828"
     inkscape:window-y="-12"
     inkscape:window-maximized="1"
     inkscape:current-layer="svg3449" />
  <g
     fill="#fff"
     fill-rule="evenodd"
     stroke="#000"
     stroke-width="1.5"
     stroke-linecap="round"
     stroke-linejoin="round"
     id="g3447">
    <path
       d="M9 39h27v-3H9v3zm3-3v-4h21v4H12zm-1-22V9h4v2h5V9h5v2h5V9h4v5"
       stroke-linecap="butt"
       id="path3437" />
    <path
       d="M34 14l-3 3H14l-3-3"
       id="path3439" />
    <path
       d="M31 17v12.5H14V17"
       stroke-linecap="butt"
       stroke-linejoin="miter"
       id="path3441" />
    <path
       d="M31 29.5l1.5 2.5h-20l1.5-2.5"
       id="path3443" />
    <path
       d="M11 14h23"
       fill="none"
       stroke-linejoin="miter"
       id="path3445" />
  </g>
  <path
     d="m 22.5,18.072916 c -0.93471,0 -1.691783,0.757073 -1.691783,1.691782 0,0.376422 0.122654,0.723238 0.329898,1.006611 -0.824744,0.473698 -1.387261,1.357655 -1.387261,2.376953 0,0.85858 0.397569,1.62411 1.019299,2.127417 -1.268837,0.448321 -3.134027,2.347346 -3.134027,5.697075 h 9.727747 c 0,-3.349729 -1.865189,-5.248754 -3.134025,-5.697075 0.621729,-0.503307 1.019298,-1.268837 1.019298,-2.127417 0,-1.019298 -0.562517,-1.903255 -1.387261,-2.376953 0.207243,-0.283373 0.329897,-0.630189 0.329897,-1.006611 0,-0.934709 -0.757073,-1.691782 -1.691782,-1.691782 z"
     stroke="#000000"
     stroke-width="0.634419"
     stroke-linecap="round"
     id="path4028"
     style="fill:#d35f5f;fill-opacity:1;stroke:#d35f5f;stroke-opacity:1" />
</svg>
