<svg height="45" width="45" xmlns="http://www.w3.org/2000/svg"><g stroke-linecap="round"><g fill="#fff" fill-rule="evenodd" stroke="#000" stroke-linejoin="round" stroke-width="1.5"><path d="m9 39h27v-3h-27zm3-3v-4h21v4zm-1-22v-5h4v2h5v-2h5v2h5v-2h4v5" stroke-linecap="butt"/><path d="m34 14-3 3h-17l-3-3"/><path d="m31 17v12.5h-17v-12.5" stroke-linecap="butt" stroke-linejoin="miter"/><path d="m31 29.5 1.5 2.5h-20l1.5-2.5"/><path d="m11 14h23" fill="none" stroke-linejoin="miter"/></g><path d="m22.5 18.072916c-.93471 0-1.691783.757073-1.691783 1.691782 0 .376422.122654.723238.329898 1.006611-.824744.473698-1.387261 1.357655-1.387261 2.376953 0 .85858.397569 1.62411 1.019299 2.127417-1.268837.448321-3.134027 2.347346-3.134027 5.697075h9.727747c0-3.349729-1.865189-5.248754-3.134025-5.697075.621729-.503307 1.019298-1.268837 1.019298-2.127417 0-1.019298-.562517-1.903255-1.387261-2.376953.207243-.283373.329897-.630189.329897-1.006611 0-.934709-.757073-1.691782-1.691782-1.691782z" fill="#d35f5f" stroke="#d35f5f" stroke-width=".634419"/></g></svg>