<svg height="60" width="55" xmlns="http://www.w3.org/2000/svg" xmlns:xlink="http://www.w3.org/1999/xlink"><filter id="a" height="1.232913" width="1.284531" x="-.117737" y="-.096378"><feGaussianBlur in="SourceAlpha" result="blur" stdDeviation="2"/><feOffset dx="2" dy="2" result="offsetBlur"/><feBlend in="SourceGraphic" in2="offsetBlur" mode="normal"/></filter><linearGradient id="b" gradientUnits="userSpaceOnUse" spreadMethod="repeat" x1="148.57835" x2="130.3233" y1="49.825951" y2="49.825951"><stop offset="0" stop-color="#dfb459"/><stop offset=".04123921" stop-color="#dead54"/><stop offset=".08247842" stop-color="#e1b85f"/><stop offset=".16495684" stop-color="#dba84d"/><stop offset=".3052367" stop-color="#dfb765"/><stop offset=".53886235" stop-color="#d8a94e"/><stop offset=".58579648" stop-color="#d5ab53"/><stop offset=".83974683" stop-color="#e0bf6e"/><stop offset=".92426348" stop-color="#daae52"/><stop offset=".96230692" stop-color="#d9af57"/><stop offset="1" stop-color="#e1b663"/></linearGradient><linearGradient id="c" gradientUnits="userSpaceOnUse" spreadMethod="repeat" x1="148.57835" x2="130.3233" y1="49.825951" y2="49.825951"><stop offset="0" stop-color="#e5c37b"/><stop offset=".04234359" stop-color="#e4bd76"/><stop offset=".09289452" stop-color="#e7c781"/><stop offset=".16495684" stop-color="#e2b86e"/><stop offset=".3052367" stop-color="#e6c686"/><stop offset=".53886235" stop-color="#dfb96f"/><stop offset=".58579648" stop-color="#ddbb73"/><stop offset=".83974683" stop-color="#e7ce8f"/><stop offset=".92426348" stop-color="#e1bd73"/><stop offset=".96230692" stop-color="#e0bf78"/><stop offset="1" stop-color="#e7c685"/></linearGradient><g fill="url(#b)" filter="url(#a)" transform="matrix(.98185054 0 0 .98185054 -100.00148 -23.218948)"><g fill="url(#b)" transform="matrix(-1 0 0 -1 91.156998 47.625)"><path d="m46.001953 6.0566406-.136719.9550782.705078.0097656zm.568359.9648438h-39.460937l6.292969 43.2031246-.445313-.11914.56836.96289 12.90039 3.863282c.088367.016691.176277.032284.265625.021484l13.166016-4.183594z" fill="#876419" stroke-width=".981851" transform="matrix(-1.018485 0 0 -1.018485 -10.693005 23.976851)"/><path d="m-37.299339-31.009999-13.408999 4.26-6.837 44.557887 40.189999.000113-6.535-44.862-13.138-3.935c-.09-.017-.18-.032-.271-.021z" fill="url(#c)"/></g></g><path d="m26.123444 53.988868.302339.942775 13.431641-4.16211-.568347-.963348z" fill="#ac812a"/></svg>