<?xml version="1.0" encoding="UTF-8" standalone="no"?>
<svg
   width="177.17"
   height="177.17"
   shape-rendering="geometricPrecision"
   image-rendering="optimizeQuality"
   fill-rule="evenodd"
   clip-rule="evenodd"
   viewBox="0 0 50 50"
   version="1.1"
   id="svg4"
   sodipodi:docname="wK.svg"
   xml:space="preserve"
   inkscape:version="1.3 (0e150ed6c4, 2023-07-21)"
   xmlns:inkscape="http://www.inkscape.org/namespaces/inkscape"
   xmlns:sodipodi="http://sodipodi.sourceforge.net/DTD/sodipodi-0.dtd"
   xmlns:xlink="http://www.w3.org/1999/xlink"
   xmlns="http://www.w3.org/2000/svg"
   xmlns:svg="http://www.w3.org/2000/svg"><sodipodi:namedview
     id="namedview4"
     pagecolor="#ffffff"
     bordercolor="#666666"
     borderopacity="1.0"
     inkscape:showpageshadow="2"
     inkscape:pageopacity="0.0"
     inkscape:pagecheckerboard="0"
     inkscape:deskcolor="#d1d1d1"
     inkscape:zoom="0.89251428"
     inkscape:cx="-513.71727"
     inkscape:cy="294.11294"
     inkscape:window-width="3840"
     inkscape:window-height="2036"
     inkscape:window-x="-12"
     inkscape:window-y="-12"
     inkscape:window-maximized="1"
     inkscape:current-layer="svg4" /><defs
     id="defs2"><linearGradient
       id="0"
       x1="21.376"
       x2="77.64"
       gradientUnits="userSpaceOnUse"
       gradientTransform="translate(38.655698)"><stop
         stop-color="#fff"
         id="stop1" /><stop
         offset="1"
         stop-color="#fff"
         stop-opacity="0"
         id="stop2" /></linearGradient><linearGradient
       id="0-2"
       gradientUnits="userSpaceOnUse"
       x1="21.129999"
       y1="37.349998"
       x2="77.760002"
       y2="37.469002"
       gradientTransform="matrix(1,0,0,0.97324,-46.737998,25.065416)"><stop
         stop-color="#fff"
         id="stop1-8"
         style="stop-color:#fdf9eb;stop-opacity:1;"
         offset="0" /><stop
         offset="1"
         stop-color="#fff"
         stop-opacity="0"
         id="stop2-7"
         style="stop-color:#f8c420;stop-opacity:1" /></linearGradient><linearGradient
       inkscape:collect="always"
       xlink:href="#0-2"
       id="linearGradient14"
       x1="-1.435465"
       y1="87.449394"
       x2="20.855898"
       y2="87.449394"
       gradientUnits="userSpaceOnUse"
       gradientTransform="matrix(0.99853773,0,0,1.0914708,24.569341,-57.067292)" /><linearGradient
       inkscape:collect="always"
       xlink:href="#0-2"
       id="linearGradient15"
       x1="-2.0709248"
       y1="76.704903"
       x2="20.689247"
       y2="76.704903"
       gradientUnits="userSpaceOnUse"
       gradientTransform="matrix(0.99853773,0,0,1.0914708,24.569341,-57.067292)" /></defs><path
     d="m 25.849225,18.143965 h -1.761 v -3.251 h -2.066 c -0.559,0 -0.838,-0.271 -0.838,-0.821 v -0.025 c 0,-0.542 0.279,-0.813 0.838,-0.813 h 2.066 v -2.108 c 0,-0.584 0.296,-0.872 0.889,-0.872 0.576,0 0.872,0.288 0.872,0.872 v 2.108 h 2.134 c 0.542,0 0.813,0.271 0.813,0.813 v 0.025 c 0,0.55 -0.271,0.821 -0.813,0.821 l -2.117,0.025 -0.017,3.226"
     id="path13"
     style="fill:#ab0e09;fill-opacity:1" /><path
     style="fill:url(#linearGradient15);stroke:#ab0e09;stroke-width:1.69328895;stroke-linecap:butt;stroke-linejoin:miter;stroke-dasharray:none;stroke-opacity:1"
     d="M 44.408816,34.702575 C 40.766293,18.985559 32.159987,19.303394 24.990238,19.303394 c -7.169748,0 -15.7760538,-0.317835 -19.4185756,15.399181"
     id="path8"
     sodipodi:nodetypes="ccc" /><path
     style="fill:url(#linearGradient14);stroke:#ab0e09;stroke-width:1.69328895;stroke-linecap:butt;stroke-linejoin:miter;stroke-dasharray:none;stroke-opacity:1"
     d="m 44.542563,42.110825 c -0.02686,-2.655898 0.0244,-5.354491 -0.190379,-7.907678 C 43.409982,32.915774 31.009943,31.208276 25,31.208276 c -6.009944,0 -18.4099829,1.707498 -19.3521862,2.994871 -0.2147924,2.553187 -0.1635225,5.25178 -0.1903782,7.907678 C 12.793715,44.772692 18.590228,45.554052 25,45.554052 c 6.409769,0 12.206282,-0.781411 19.542563,-3.443227 z"
     id="path9"
     sodipodi:nodetypes="ccscccc" /><path
     style="fill:none;stroke:#ab0e09;stroke-width:1.69328895;stroke-linecap:butt;stroke-linejoin:miter;stroke-dasharray:none;stroke-opacity:1"
     d="M 44.885243,41.777884 C 39.976969,40.387205 31.855408,39.818584 25,39.94907 18.144591,39.818579 10.02303,40.387205 5.1147555,41.777884"
     id="path10"
     sodipodi:nodetypes="ccc" /><g
     id="g12"
     transform="matrix(0.99853773,0,0,1.0914708,24.2744,-57.067291)"
     style="stroke-width:1.62196984;stroke-dasharray:none"><path
       style="fill:none;stroke:#ab0e09;stroke-width:1.62196984;stroke-linecap:butt;stroke-linejoin:miter;stroke-dasharray:none;stroke-opacity:1"
       d="M -3.2979316,70.234766 V 81.190607"
       id="path11" /><path
       style="fill:none;stroke:#ab0e09;stroke-width:1.62196984;stroke-linecap:butt;stroke-linejoin:miter;stroke-dasharray:none;stroke-opacity:1"
       d="M 4.7512579,70.234766 V 81.190607"
       id="path12" /></g></svg>
