<?xml version="1.0" encoding="UTF-8" standalone="no"?>
<svg
   xmlns:dc="http://purl.org/dc/elements/1.1/"
   xmlns:cc="http://creativecommons.org/ns#"
   xmlns:rdf="http://www.w3.org/1999/02/22-rdf-syntax-ns#"
   xmlns:svg="http://www.w3.org/2000/svg"
   xmlns="http://www.w3.org/2000/svg"
   xmlns:sodipodi="http://sodipodi.sourceforge.net/DTD/sodipodi-0.dtd"
   xmlns:inkscape="http://www.inkscape.org/namespaces/inkscape"
   id="svg2"
   height="100%"
   width="100%"
   version="1.1"
   viewBox="0 0 2048 2048"
   inkscape:version="0.92.3 (2405546, 2018-03-11)"
   sodipodi:docname="wfrog.svg">
  <defs
     id="defs9">
    <inkscape:perspective
       sodipodi:type="inkscape:persp3d"
       inkscape:vp_x="0 : 1024 : 1"
       inkscape:vp_y="0 : 1000 : 0"
       inkscape:vp_z="2048 : 1024 : 1"
       inkscape:persp3d-origin="1024 : 682.66667 : 1"
       id="perspective10" />
    <inkscape:perspective
       id="perspective2845"
       inkscape:persp3d-origin="0.5 : 0.33333333 : 1"
       inkscape:vp_z="1 : 0.5 : 1"
       inkscape:vp_y="0 : 1000 : 0"
       inkscape:vp_x="0 : 0.5 : 1"
       sodipodi:type="inkscape:persp3d" />
    <inkscape:perspective
       id="perspective3641"
       inkscape:persp3d-origin="0.5 : 0.33333333 : 1"
       inkscape:vp_z="1 : 0.5 : 1"
       inkscape:vp_y="0 : 1000 : 0"
       inkscape:vp_x="0 : 0.5 : 1"
       sodipodi:type="inkscape:persp3d" />
    <inkscape:perspective
       id="perspective3641-5"
       inkscape:persp3d-origin="0.5 : 0.33333333 : 1"
       inkscape:vp_z="1 : 0.5 : 1"
       inkscape:vp_y="0 : 1000 : 0"
       inkscape:vp_x="0 : 0.5 : 1"
       sodipodi:type="inkscape:persp3d" />
    <inkscape:perspective
       id="perspective3703"
       inkscape:persp3d-origin="0.5 : 0.33333333 : 1"
       inkscape:vp_z="1 : 0.5 : 1"
       inkscape:vp_y="0 : 1000 : 0"
       inkscape:vp_x="0 : 0.5 : 1"
       sodipodi:type="inkscape:persp3d" />
    <inkscape:perspective
       id="perspective2830"
       inkscape:persp3d-origin="0.5 : 0.33333333 : 1"
       inkscape:vp_z="1 : 0.5 : 1"
       inkscape:vp_y="0 : 1000 : 0"
       inkscape:vp_x="0 : 0.5 : 1"
       sodipodi:type="inkscape:persp3d" />
  </defs>
  <sodipodi:namedview
     pagecolor="#ffffff"
     bordercolor="#666666"
     borderopacity="1"
     objecttolerance="10"
     gridtolerance="10"
     guidetolerance="10"
     inkscape:pageopacity="0"
     inkscape:pageshadow="2"
     inkscape:window-width="1036"
     inkscape:window-height="654"
     id="namedview7"
     showgrid="false"
     inkscape:zoom="0.16296601"
     inkscape:cx="247.51526"
     inkscape:cy="1119.5509"
     inkscape:window-x="725"
     inkscape:window-y="304"
     inkscape:window-maximized="0"
     inkscape:current-layer="layer2"
     inkscape:measure-start="-264.678,1533.83"
     inkscape:measure-end="0,0"
     showguides="false" />
  <metadata
     id="metadata12">
    <rdf:RDF>
      <cc:Work
         rdf:about="">
        <dc:format>image/svg+xml</dc:format>
        <dc:type
           rdf:resource="http://purl.org/dc/dcmitype/StillImage" />
        <dc:title />
      </cc:Work>
    </rdf:RDF>
  </metadata>
  <g
     inkscape:groupmode="layer"
     id="layer2"
     inkscape:label="frog"
     style="display:inline">
    <path
       style="fill:#f9f9f9;fill-opacity:1;stroke:#000000;stroke-width:70;stroke-linecap:butt;stroke-linejoin:miter;stroke-miterlimit:4;stroke-dasharray:none;stroke-opacity:1"
       d="m 719.21196,1114.9499 c 0,0 -41.02336,-10.3957 -66.60011,-19.1533 -12.25861,-4.1974 -40.81677,-23.8192 -55.78457,-34.2916 -16.27039,-11.3838 -30.43081,-23.8348 -45.29338,-37.0037 -17.3542,-15.3766 -28.92043,-28.28748 -42.22526,-47.2767 -14.70644,-20.98966 -27.498,-43.62423 -36.81749,-67.49874 -9.20001,-23.56841 -18.01765,-48.3376 -18.40875,-73.63498 -0.37211,-24.06881 3.40555,-51.2559 12.27251,-73.63498 8.78656,-22.17619 22.29979,-45.10053 41.41967,-64.43062 24.67749,-24.94879 54.15014,-46.88695 79.77123,-62.89655 31.14549,-19.46157 60.99098,-31.38972 85.90749,-38.35155 48.28906,-13.49227 91.24334,-13.57855 136.53153,-13.80657 29.81643,-0.15011 67.53587,8.88719 95.11186,19.94282 26.11761,10.47095 52.16037,21.52027 76.70311,35.28343 19.6447,11.01643 41.5389,27.88704 56.7603,44.4878 13.42,14.63619 22.3748,22.63799 32.2153,39.88562 15.6457,27.42237 44.4878,93.57779 44.4878,93.57779 0,0 12.7778,-19.80647 19.9428,-29.14718 11.4775,-14.96274 22.656,-30.50105 36.8175,-42.95374 17.7975,-15.64993 37.7675,-29.43354 59.4562,-38.98699 27.3259,-12.03651 57.0809,-19.28533 86.8061,-22.11229 38.3352,-3.64579 80.266,-0.8046 115.3179,6.90328 34.2605,7.53383 59.29,21.21666 82.0724,41.28807 14.7968,12.29513 48.7201,46.13767 59.1703,74.77423 11.8762,32.5443 15.1395,59.48346 15.7129,88.84401 0.7214,36.93807 -3.5511,70.0713 -19.0442,109.55384 -12.4703,31.7794 -34.4259,52.9525 -50.0977,71.4656 -20.5805,24.3119 -28.5256,27.4058 -63.2913,44.8825 -55.3892,19.7035 -66.4092,22.5684 -94.3448,26.8461 -18.2304,2.7916 -46.4621,5.2224 -64.4626,4.6022 13.841,8.5393 36.58,28.9148 49.5872,48.0212 10.3833,15.2521 18.6346,32.3297 23.4443,50.1427 5.7469,21.2844 5.6893,34.0199 5.9502,65.8717 0,12.2725 -0.5424,42.2413 -0.5424,42.2413 15.6235,-13.4463 58.8731,-27.7431 70.1043,-31.7661 19.517,-6.9909 71.3931,-7.1922 91.0653,-3.0681 21.2708,4.4592 48.4311,17.6947 63.2076,29.7985 11.3894,9.3293 31.1107,27.7083 39.6994,40.0717 6.7076,9.6555 20.6717,28.8516 24.9014,45.6657 4.0742,16.1964 4.6185,32.5127 4.6633,44.3788 0.072,19.012 -3.0827,26.5753 -8.678,46.4102 -3.1504,11.1681 -15.3676,30.2372 -26.392,41.601 -9.8069,10.1088 -30.5337,24.3589 -30.5337,24.3589 -11.1697,7.6997 -33.7789,21.0865 -53.4403,30.0571 -40.6751,12.2397 -68.0976,19.9603 -81.1286,24.182 29.1564,7.6444 68.1493,15.0585 99.8936,17.8346 38.2537,3.3454 68.4007,-4.4768 105.5552,1.5726 24.2127,3.9423 47.0103,16.4765 66.2052,31.6344 12.9882,10.2565 25.5068,23.0779 31.2077,38.6147 5.2682,14.3575 6.7352,31.6563 1.0848,45.8677 -6.6339,16.6848 -23.8422,31.0019 -37.9023,38.2744 -34.5988,17.8961 -75.5701,29.433 -90.9909,31.3938 -56.2456,7.1519 -236.5713,3.75 -302.4415,-0.5583 -12.9088,-0.8443 -25.1833,-6.6161 -36.8175,-12.2725 -9.9179,-4.822 -18.8799,-11.4886 -27.6131,-18.2227 -9.7852,-7.5452 -20.6405,-14.5301 -27.6132,-24.7311 -4.9309,-7.2138 -9.2043,-24.545 -9.2043,-24.545 l -368.17496,3.0682 c -1.79727,13.4193 -10.31732,24.4897 -18.40874,34.834 -7.95594,10.1712 -18.20727,18.1276 -28.88398,25.8159 -15.74533,11.3383 -33.09889,20.5782 -51.81783,22.1894 0,0 -339.7809,-0.343 -418.28579,-1.6112 -18.09291,-4.4978 -44.81815,-12.4911 -59.96937,-26.0019 -15.92073,-14.197 -28.12378,-27.3397 -35.54664,-44.9372 -5.9879,-14.1955 -9.49178,-30.8415 -5.95013,-45.8357 3.17006,-13.421 12.75305,-25.2138 23.11995,-34.3077 13.38846,-11.7445 32.69519,-23.5898 47.81913,-23.8325 66.64244,-1.0691 135.14617,0.8987 135.14617,0.8987 52.45354,2.7117 121.25267,-4.1246 143.43095,-10.3211 -30.61409,-8.9043 -60.74399,-10.0335 -93.65488,-15.867 0,0 -33.35078,-8.3108 -48.31362,-16.3935 -16.32343,-8.8177 -32.4024,-19.6776 -43.85236,-34.2757 -11.40294,-14.5381 -18.92851,-32.4694 -22.74774,-50.547 -3.96761,-18.7798 -3.72872,-38.8307 0.37223,-57.5819 4.52618,-20.6955 15.06493,-39.8728 26.15615,-57.9221 8.69332,-14.147 18.4583,-28.2012 31.23958,-38.8008 16.18332,-13.4209 33.87828,-23.8308 55.59846,-29.7826 25.88653,-2.969 90.52289,-4.371 90.52289,-4.371 0,0 -21.14973,-15.6418 -43.45947,-35.1115 -19.06613,-16.6389 -20.00757,-33.5533 -20.00864,-47.1375 0.14813,-17.1431 4.45623,-37.5371 12.08638,-54.5137 7.82124,-17.4018 20.05497,-32.8893 33.56327,-46.3622 20.65246,-20.5984 45.33228,-36.8591 71.01617,-51.1279 21.22119,-11.5055 47.47131,-15.2861 65.62438,-20.1515 z"
       id="path830"
       inkscape:connector-curvature="0"
       sodipodi:nodetypes="cssssssssssssssscaaaascsssscscsaccsssssssscccssaaasssaaaccasccsaaascccaaaaaaccscaacc" />
    <path
       style="fill:none;stroke:#000000;stroke-width:50;stroke-linecap:butt;stroke-linejoin:miter;stroke-miterlimit:4;stroke-dasharray:none;stroke-opacity:1"
       d="m 719.21196,1114.9499 c 35.7881,1.141 68.42986,1.421 100.85584,-0.916 40.66138,-2.9305 89.4661,-9.1119 114.64277,-16.496 22.87404,-6.7087 55.63912,-24.8361 82.05243,-44.9078 22.8967,-17.3994 46.2149,-35.9556 63.907,-58.89394 10.5851,-13.72395 21.1612,-28.77566 24.3682,-45.93158 3.5381,-18.92701 3.7424,-35.22754 4.5251,-52.91192 0.8719,-19.69987 0.9468,-37.55418 0.1862,-59.15718 -0.8822,-25.05773 -2.9236,-11.15007 -5.3692,-45.40515 -0.5475,-7.66782 -4.7551,-23.07608 -9.8173,-28.86139"
       id="path832"
       inkscape:connector-curvature="0"
       sodipodi:nodetypes="csssasassc" />
    <path
       style="fill:none;stroke:#000000;stroke-width:50;stroke-linecap:butt;stroke-linejoin:miter;stroke-miterlimit:4;stroke-dasharray:none;stroke-opacity:1"
       d="m 1329.2648,1146.7385 c -28.3801,-3.0682 -61.0199,-10.1008 -86.6744,-26.8461 -12.6577,-8.262 -39.846,-16.407 -56.5517,-33.9196 -10.2368,-10.7312 -21.9044,-24.4187 -35.8097,-40.9862 -8.5026,-10.1305 -17.9415,-29.8386 -22.0738,-39.5294 -9.0673,-21.26406 -16.6556,-36.69147 -18.8422,-56.38809 -1.9939,-17.96082 -1.9316,-35.43712 -1.3479,-53.14981 0.8793,-26.68698 7.2981,-79.77123 7.2981,-79.77123 v 0"
       id="path834"
       inkscape:connector-curvature="0"
       sodipodi:nodetypes="csssssacc" />
    <path
       style="fill:none;stroke:#000000;stroke-width:50;stroke-linecap:butt;stroke-linejoin:miter;stroke-miterlimit:4;stroke-dasharray:none;stroke-opacity:1"
       d="m 823.86442,1113.4915 124.20338,-15.7288 c 31.09603,-1.4463 62.1921,-2.8927 93.2881,-4.339 28.7458,0.5424 53.695,5.9661 79.7289,8.1356 0,0 41.7626,7.0508 54.7796,11.3898 8.2327,2.7442 123.4543,39.1586 123.4543,39.1586 l 34.9186,25.9262 v 0"
       id="path836"
       inkscape:connector-curvature="0"
       sodipodi:nodetypes="ccccsccc" />
    <path
       style="fill:none;stroke:#000000;stroke-width:1px;stroke-linecap:butt;stroke-linejoin:miter;stroke-opacity:1"
       d="m 635.10174,1391.4214 -56.7603,-27.6131"
       id="path838"
       inkscape:connector-curvature="0" />
    <path
       style="fill:none;stroke:#000000;stroke-width:1px;stroke-linecap:butt;stroke-linejoin:miter;stroke-opacity:1"
       d="m 600.38987,1369.3542 63.47454,27.7983"
       id="path840"
       inkscape:connector-curvature="0" />
    <path
       style="fill:none;stroke:#000000;stroke-width:1px;stroke-linecap:butt;stroke-linejoin:miter;stroke-opacity:1"
       d="m 685.55933,1421.0169 52.06779,10.8475"
       id="path842"
       inkscape:connector-curvature="0" />
    <path
       style="fill:none;stroke:#000000;stroke-width:1px;stroke-linecap:butt;stroke-linejoin:miter;stroke-opacity:1"
       d="m 874.30509,1444.8814 75.9322,2.1694"
       id="path844"
       inkscape:connector-curvature="0" />
    <path
       style="fill:none;stroke:#000000;stroke-width:1px;stroke-linecap:butt;stroke-linejoin:miter;stroke-opacity:1"
       d="m 1004.4746,1457.8983 c 9.4011,0 8.6779,-2.8927 8.6779,2.1695"
       id="path846"
       inkscape:connector-curvature="0" />
    <path
       style="fill:none;stroke:#000000;stroke-width:1px;stroke-linecap:butt;stroke-linejoin:miter;stroke-opacity:1"
       d="m 1082.5763,1466.5763 67.2542,4.339"
       id="path848"
       inkscape:connector-curvature="0" />
    <path
       style="fill:none;stroke:#000000;stroke-width:1px;stroke-linecap:butt;stroke-linejoin:miter;stroke-opacity:1"
       d="m 1191.0509,1464.4068 c 4.3389,0 8.6779,0 13.0169,0"
       id="path850"
       inkscape:connector-curvature="0" />
    <path
       style="fill:none;stroke:#000000;stroke-width:1px;stroke-linecap:butt;stroke-linejoin:miter;stroke-opacity:1"
       d="m 1266.9831,1444.8814 c 4.3389,0 8.6779,0 13.0169,0"
       id="path852"
       inkscape:connector-curvature="0" />
    <path
       style="fill:none;stroke:#000000;stroke-width:1px;stroke-linecap:butt;stroke-linejoin:miter;stroke-opacity:1"
       d="m 1327.7288,1429.6949 c -0.6204,-10.2271 8.2907,2.5568 10.8475,0 2.8926,-2.8926 -3.6158,-2.1695 2.1695,-2.1695"
       id="path854"
       inkscape:connector-curvature="0" />
    <path
       style="fill:none;stroke:#000000;stroke-width:50;stroke-linecap:butt;stroke-linejoin:miter;stroke-miterlimit:4;stroke-dasharray:none;stroke-opacity:1"
       d="m 600.38987,1369.3542 c 21.15818,9.2661 27.11301,17.1401 48.27119,26.4062 13.42338,8.3167 41.50773,19.6526 58.72772,26.8846 l 44.56489,11.6371 c 26.7455,4.2459 69.21983,12.8307 93.25347,13.8225 0,0 41.43608,3.2114 88.35614,4.9585 37.65192,1.4019 150.64012,5.3776 150.64012,5.3776 0,0 89.6854,-1.5556 114.9679,-3.5803 30.9069,-2.4751 67.8118,-9.979 67.8118,-9.979 27.1316,-8.4224 62.6712,-14.2237 77.2887,-30.6351 17.1228,-14.824 24.9482,-45.0656 31.9521,-78.8726"
       id="path858"
       inkscape:connector-curvature="0"
       sodipodi:nodetypes="cccccscsccc" />
    <path
       style="fill:none;stroke:#000000;stroke-width:50;stroke-linecap:butt;stroke-linejoin:miter;stroke-miterlimit:4;stroke-dasharray:none;stroke-opacity:1"
       d="m 540.20339,1278.9152 c 65.08475,1.0848 121.76624,-3.6462 182.23729,2.1696 12.07212,1.161 24.35611,2.4836 35.79661,6.5084 20.51137,6.342 33.45226,11.6325 53.02095,16.4573 15.84059,3.2494 29.92601,9.0615 45.42772,13.6637 14.25334,4.2316 29.79252,8.8603 45.05549,11.6145 16.60005,2.9955 33.51403,3.9285 50.32698,5.2921 16.71798,1.3559 33.46399,2.791 50.23667,2.8707 15.2035,0.072 30.4364,-0.6045 45.5593,-2.1695 18.2118,-1.8847 36.2672,-5.1711 54.2373,-8.6779 14.2044,-2.772 27.935,-8.0461 42.3051,-9.7627 32.6737,-3.9031 65.806,-1.1571 98.7119,-1.0848 23.5055,0.052 47.0291,-0.026 70.5084,1.0848 22.8257,1.0803 68.339,5.4237 68.339,5.4237"
       id="path863"
       inkscape:connector-curvature="0"
       sodipodi:nodetypes="caccsaaaaaaaac" />
    <path
       style="fill:none;stroke:#000000;stroke-width:50;stroke-linecap:butt;stroke-linejoin:miter;stroke-miterlimit:4;stroke-dasharray:none;stroke-opacity:1"
       d="m 783.18645,1455.7288 c 1.08475,28.9266 2.16949,57.8531 3.25424,86.7797 1.58857,27.4802 6.24526,58.7956 13.20306,84.7417 12.84922,26.9995 24.93142,58.6012 40.08174,85.6008 l 34.68995,65.1541"
       id="path865"
       inkscape:connector-curvature="0"
       sodipodi:nodetypes="ccccc" />
    <path
       style="fill:none;stroke:#000000;stroke-width:50;stroke-linecap:butt;stroke-linejoin:miter;stroke-miterlimit:4;stroke-dasharray:none;stroke-opacity:1"
       d="m 1004.4746,1457.8983 c 3.0734,26.7571 4.6128,49.6789 7.6862,76.436 1.0356,21.1034 2.8382,46.8089 1.5727,65.6112 -2.3056,39.0013 -3.6416,55.7199 -5.4624,83.5799 -4.0325,17.192 -24.3748,96.3563 -24.3748,96.3563"
       id="path867"
       inkscape:connector-curvature="0"
       sodipodi:nodetypes="ccccc" />
    <path
       style="fill:none;stroke:#000000;stroke-width:50;stroke-linecap:butt;stroke-linejoin:miter;stroke-miterlimit:4;stroke-dasharray:none;stroke-opacity:1"
       d="m 1121.6271,1464.4068 c 0,0 -6.4133,130.4862 0,195.2542 1.0901,11.0085 2.331,22.2992 6.5085,32.5424 5.3291,13.0667 15.6164,23.5135 23.0974,35.4789 6.7062,10.7263 18.505,19.9334 19.5254,32.5423 0.4173,5.1567 -5.7414,14.4195 -5.7414,14.4195"
       id="path869"
       inkscape:connector-curvature="0"
       sodipodi:nodetypes="caaaac" />
    <path
       style="fill:none;stroke:#000000;stroke-width:50;stroke-linecap:butt;stroke-linejoin:miter;stroke-miterlimit:4;stroke-dasharray:none;stroke-opacity:1"
       d="m 1266.9831,1444.8814 c 0,0 -6.4751,82.6597 -2.1695,123.661 2.0153,19.1909 6.4869,38.2489 13.0169,56.4068 3.8305,10.6514 11.3137,19.7366 15.1864,30.3728 2.9255,8.0348 5.0171,16.4512 5.9662,24.9492 0.793,7.1003 0.8056,14.3676 -0.2633,21.4316 -1.7627,11.6497 -3.6232,24.01 -10.0419,33.8904 -11.0038,16.9385 -46.0875,39.3437 -46.0875,39.3437"
       id="path871"
       inkscape:connector-curvature="0"
       sodipodi:nodetypes="caaaaaac" />
  </g>
  <path
     style="fill:#000000;stroke:#000000;stroke-width:1px;stroke-linecap:butt;stroke-linejoin:miter;stroke-opacity:1"
     d="m 856.62616,940.79063 c -19.07923,1.35123 -38.47154,2.50125 -57.37976,-0.38352 -7.79548,-1.18933 -15.60245,-3.32086 -22.62742,-6.90329 -6.42316,-3.27553 -12.31258,-7.79291 -17.2582,-13.03952 -3.16163,-3.35404 -5.63581,-7.36949 -7.67031,-11.50547 -2.85935,-5.81285 -5.18706,-12.01508 -6.22931,-18.40874 -1.6043,-9.84155 -1.96998,-20.15852 0.0931,-29.91422 1.18432,-5.6004 3.72598,-10.96264 6.90328,-15.72413 2.25843,-3.38447 4.94414,-6.73456 8.43734,-8.82086 6.60349,-3.94391 14.59994,-5.2816 22.2439,-6.13625 10.93785,-1.22293 22.58225,-2.06736 32.98234,1.53406 4.15666,1.4394 7.5444,4.64576 10.73843,7.67031 2.37747,2.25132 4.07518,5.12614 6.13625,7.67031 3.43476,4.23983 6.47549,8.84659 10.38217,12.65601 5.21275,5.08297 10.96143,9.72136 17.23095,13.42305 3.35346,1.97998 7.36699,2.653 10.73844,4.60219 4.42693,2.55942 9.22679,5.09682 12.2725,9.20437 3.56491,4.80776 5.07716,10.98388 6.13624,16.87468 0.55456,3.08455 0.42585,6.28853 0.0658,9.40178 -0.63462,5.48742 -1.27689,11.24368 -3.89531,16.10766 -1.83688,3.41219 -4.49821,6.69908 -7.92787,8.50314 -6.37487,3.35328 -14.1875,2.67958 -21.37252,3.18844 z"
     id="path877"
     inkscape:connector-curvature="0"
     sodipodi:nodetypes="aaaaaaaaaaaaaaaaaaaaaa" />
  <path
     style="fill:#000000;stroke:#000000;stroke-width:1px;stroke-linecap:butt;stroke-linejoin:miter;stroke-opacity:1"
     d="m 1334.6341,989.11358 c -15.5836,0.24875 -23.0509,-0.56883 -34.1329,-7.67031 -4.6371,-2.97148 -10.9907,-10.3007 -14.3549,-16.87469 -3.6584,-7.14875 -4.5186,-15.45938 -5.7527,-23.39444 -1.4571,-9.36899 -2.4501,-18.9135 -1.9176,-28.38015 0.6422,-11.41617 -0.3729,-24.34864 6.1362,-33.74937 3.6836,-5.32011 10.6122,-7.65973 16.6561,-9.9714 3.7702,-1.442 7.8615,-2.03064 11.8889,-2.3011 4.4716,-0.30028 9.2178,-0.78251 13.4231,0.76703 4.3664,1.60891 7.9956,4.99059 11.1219,8.43735 3.0181,3.32742 4.5579,7.7487 7.0622,11.47821 3.3906,5.04953 6.3723,10.52624 10.7656,14.73245 3.2746,3.13504 7.9105,4.55033 11.3194,7.5387 4.0875,3.58325 8.1392,7.49844 10.7384,12.2725 3.5602,6.5391 5.7153,14.04335 6.1363,21.47687 0.3518,6.21094 -1.5685,12.3713 -3.0681,18.40875 -1.0719,4.31574 -1.9442,8.83486 -4.2187,12.65601 -2.7757,4.66315 -6.2426,9.51389 -11.122,11.88898 -9.2307,4.49311 -21.2008,2.53328 -30.6812,2.68461 z"
     id="path879"
     inkscape:connector-curvature="0"
     sodipodi:nodetypes="ssaaaaaaaaaaaaaaaas" />
</svg>
