<?xml version="1.0" encoding="UTF-8" standalone="no"?>
<svg
   xmlns:dc="http://purl.org/dc/elements/1.1/"
   xmlns:cc="http://creativecommons.org/ns#"
   xmlns:rdf="http://www.w3.org/1999/02/22-rdf-syntax-ns#"
   xmlns:svg="http://www.w3.org/2000/svg"
   xmlns="http://www.w3.org/2000/svg"
   xmlns:sodipodi="http://sodipodi.sourceforge.net/DTD/sodipodi-0.dtd"
   xmlns:inkscape="http://www.inkscape.org/namespaces/inkscape"
   id="svg2"
   height="100%"
   width="100%"
   version="1.1"
   viewBox="0 0 2048 2048"
   inkscape:version="0.92.3 (2405546, 2018-03-11)"
   sodipodi:docname="whalflingrook.svg">
  <defs
     id="defs13">
    <inkscape:perspective
       sodipodi:type="inkscape:persp3d"
       inkscape:vp_x="0 : 1024 : 1"
       inkscape:vp_y="0 : 1000 : 0"
       inkscape:vp_z="2048 : 1024 : 1"
       inkscape:persp3d-origin="1024 : 682.66667 : 1"
       id="perspective14" />
    <inkscape:perspective
       id="perspective2828"
       inkscape:persp3d-origin="0.5 : 0.33333333 : 1"
       inkscape:vp_z="1 : 0.5 : 1"
       inkscape:vp_y="0 : 1000 : 0"
       inkscape:vp_x="0 : 0.5 : 1"
       sodipodi:type="inkscape:persp3d" />
    <inkscape:perspective
       id="perspective3620"
       inkscape:persp3d-origin="0.5 : 0.33333333 : 1"
       inkscape:vp_z="1 : 0.5 : 1"
       inkscape:vp_y="0 : 1000 : 0"
       inkscape:vp_x="0 : 0.5 : 1"
       sodipodi:type="inkscape:persp3d" />
    <inkscape:perspective
       id="perspective3648"
       inkscape:persp3d-origin="0.5 : 0.33333333 : 1"
       inkscape:vp_z="1 : 0.5 : 1"
       inkscape:vp_y="0 : 1000 : 0"
       inkscape:vp_x="0 : 0.5 : 1"
       sodipodi:type="inkscape:persp3d" />
    <inkscape:perspective
       id="perspective3705"
       inkscape:persp3d-origin="0.5 : 0.33333333 : 1"
       inkscape:vp_z="1 : 0.5 : 1"
       inkscape:vp_y="0 : 1000 : 0"
       inkscape:vp_x="0 : 0.5 : 1"
       sodipodi:type="inkscape:persp3d" />
    <inkscape:perspective
       id="perspective3735"
       inkscape:persp3d-origin="0.5 : 0.33333333 : 1"
       inkscape:vp_z="1 : 0.5 : 1"
       inkscape:vp_y="0 : 1000 : 0"
       inkscape:vp_x="0 : 0.5 : 1"
       sodipodi:type="inkscape:persp3d" />
    <inkscape:perspective
       id="perspective2827"
       inkscape:persp3d-origin="0.5 : 0.33333333 : 1"
       inkscape:vp_z="1 : 0.5 : 1"
       inkscape:vp_y="0 : 1000 : 0"
       inkscape:vp_x="0 : 0.5 : 1"
       sodipodi:type="inkscape:persp3d" />
  </defs>
  <sodipodi:namedview
     pagecolor="#ffffff"
     bordercolor="#666666"
     borderopacity="1"
     objecttolerance="10"
     gridtolerance="10"
     guidetolerance="10"
     inkscape:pageopacity="0"
     inkscape:pageshadow="2"
     inkscape:window-width="1767"
     inkscape:window-height="936"
     id="namedview11"
     showgrid="false"
     inkscape:zoom="0.32593203"
     inkscape:cx="1282.6861"
     inkscape:cy="1262.6441"
     inkscape:window-x="4"
     inkscape:window-y="24"
     inkscape:window-maximized="0"
     inkscape:current-layer="svg2" />
  <metadata
     id="metadata12">
    <rdf:RDF>
      <cc:Work
         rdf:about="">
        <dc:format>image/svg+xml</dc:format>
        <dc:type
           rdf:resource="http://purl.org/dc/dcmitype/StillImage" />
        <dc:title />
      </cc:Work>
    </rdf:RDF>
  </metadata>
  <path
     inkscape:connector-curvature="0"
     style="fill:#f9f9f9;stroke-width:0.49991873"
     d="M 1024.0656,1318.1483 H 703.6697 l 14.49529,-132 79.47415,-59 24.99187,-329.49999 -74.47578,-53.5 -8.49723,-170.5 h 144.45302 v 73.5 h 68.47773 v -73.5 h 142.95355 v 73.5 h 68.4777 v -73.5 h 144.453 l -8.4972,170.5 -74.4758,53.5 24.9919,329.49999 79.4742,59 14.4952,132 z"
     id="path6-3"
     sodipodi:nodetypes="cccccccccccccccccccccc" />
  <g
     id="g3764">
    <rect
       y="1400.2207"
       x="649.35858"
       height="413.47424"
       width="747.79401"
       id="rect3741"
       style="fill:#f9f9f9;fill-opacity:1;stroke:#000000;stroke-width:75;stroke-linecap:round;stroke-linejoin:miter;stroke-miterlimit:4;stroke-dasharray:none;stroke-opacity:1" />
    <g
       id="g3343"
       transform="matrix(0.5,0,0,0.5,512,396.64831)">
      <g
         id="g3339">
        <g
           style="fill:#000000"
           transform="matrix(1,0,0,-1,0,2048)"
           id="g4">
          <path
             style="fill:#000000"
             d="M 1024,547 H 643 l 5,74 h 752 l 5,-74 z m 0,661 -335.79661,0.5424 L 697,1282 h 654 l 7.7119,-72.9153 z m 0,-1003 H 383 l 29,264 159,118 50,659 -149,107 -17,341 h 289 v -147 h 137 v 147 h 286 v -147 h 137 v 147 h 289 l -17,-341 -149,-107 50,-659 159,-118 29,-264 z m 0,74 h 557 l -15,149 -161,119 -54,735 152,109 13,230 h -138 v -148 h -285 v 148 H 955 V 1473 H 670 v 148 H 532 L 545,1391 697,1282 643,547 482,428 467,279 Z"
             id="path6"
             inkscape:connector-curvature="0"
             sodipodi:nodetypes="cccccccccccccccccccccccccccccccccccccccccccccccccccccccc" />
        </g>
      </g>
    </g>
  </g>
</svg>
