<?xml version="1.0" encoding="UTF-8" standalone="no"?>
<svg
   xmlns:dc="http://purl.org/dc/elements/1.1/"
   xmlns:cc="http://creativecommons.org/ns#"
   xmlns:rdf="http://www.w3.org/1999/02/22-rdf-syntax-ns#"
   xmlns:svg="http://www.w3.org/2000/svg"
   xmlns="http://www.w3.org/2000/svg"
   xmlns:sodipodi="http://sodipodi.sourceforge.net/DTD/sodipodi-0.dtd"
   xmlns:inkscape="http://www.inkscape.org/namespaces/inkscape"
   id="svg2"
   height="100%"
   width="100%"
   version="1.1"
   viewBox="0 0 2048 2048"
   inkscape:version="0.92.3 (2405546, 2018-03-11)"
   sodipodi:docname="wpaovao.svg">
  <defs
     id="defs14">
    <inkscape:perspective
       sodipodi:type="inkscape:persp3d"
       inkscape:vp_x="0 : 1024 : 1"
       inkscape:vp_y="0 : 1000 : 0"
       inkscape:vp_z="2048 : 1024 : 1"
       inkscape:persp3d-origin="1024 : 682.66667 : 1"
       id="perspective15" />
    <inkscape:perspective
       id="perspective2829"
       inkscape:persp3d-origin="0.5 : 0.33333333 : 1"
       inkscape:vp_z="1 : 0.5 : 1"
       inkscape:vp_y="0 : 1000 : 0"
       inkscape:vp_x="0 : 0.5 : 1"
       sodipodi:type="inkscape:persp3d" />
  </defs>
  <sodipodi:namedview
     pagecolor="#ffffff"
     bordercolor="#666666"
     borderopacity="1"
     objecttolerance="10"
     gridtolerance="10"
     guidetolerance="10"
     inkscape:pageopacity="0"
     inkscape:pageshadow="2"
     inkscape:window-width="1699"
     inkscape:window-height="932"
     id="namedview12"
     showgrid="false"
     inkscape:zoom="0.16296602"
     inkscape:cx="1534.5012"
     inkscape:cy="717.18757"
     inkscape:window-x="4"
     inkscape:window-y="24"
     inkscape:window-maximized="0"
     inkscape:current-layer="svg2" />
  <metadata
     id="metadata12">
    <rdf:RDF>
      <cc:Work
         rdf:about="">
        <dc:format>image/svg+xml</dc:format>
        <dc:type
           rdf:resource="http://purl.org/dc/dcmitype/StillImage" />
        <dc:title />
      </cc:Work>
    </rdf:RDF>
  </metadata>
  <path
     sodipodi:nodetypes="ccscssssssscccccscscccccscscccccssssssscsccc"
     id="path6-3"
     d="m 1822.6918,1353.8275 c -23.6376,105.3328 -47.2751,133.9624 -92.3895,199.4096 -284.1695,-6.5763 -380.5195,-18.1664 -537.3989,5.7874 -123.5599,18.8665 -311.13081,100.6097 -460.46421,197.943 1.3334,8 2,14.3333 2,19 0,36 -12.8333,66.8333 -38.5,92.5 -25.6666,25.6667 -56.5,38.5 -92.5,38.5 -36,0 -66.8333,-12.8333 -92.5,-38.5 -25.6666,-25.6667 -38.5,-56.5 -38.5,-92.5 0,-36 12.8334,-66.8333 38.5,-92.5 25.6667,-25.6667 56.5,-38.5 92.5,-38.5 13.3334,0 26,2 38,6 9.3334,2.6667 20.3334,7.6667 33,15 l 139,-196 -486,-100 c -20.6666,42.6667 -55,66.6667 -103,72 -29.3333,3.3333 -59.6666,-6.3333 -91,-29 -31.3333,-22.6667 -49.000003,-52 -53.000003,-88 -3.3333,-36 6.3334,-68 29.000003,-96 22.6667,-28 52,-44 88,-48 45.3334,-4.6667 83.3334,10.6667 114,46 l 412,-198 -412,-197.99991 c -30.6666,36 -68.6666,51.33333 -114,46 -36,-4 -65.3333,-20 -88,-48 -22.666603,-28 -32.333303,-60 -29.000003,-96 4,-36 21.666703,-65.16667 53.000003,-87.5 31.3334,-22.33333 61.6667,-32.16667 91,-29.5 48,6 82.3334,30 103,72 l 486,-100 -139,-196 c -12.6666,8 -23.6666,13 -33,15 -12,4 -24.6666,6 -38,6 -36,0 -66.8333,-12.83333 -92.5,-38.5 -25.6666,-25.66667 -38.5,-56.5 -38.5,-92.5 0,-36 12.8334,-66.83332 38.5,-92.49999 25.6667,-25.66667 56.5,-38.5 92.5,-38.5 36,0 66.8334,12.83333 92.5,38.5 25.6667,25.66667 38.5,56.49999 38.5,92.49999 0,4.66667 -0.6666,11 -2,19 149.3334,98 303.84431,209.55121 456.16261,237.71186 168.7421,31.19708 339.3175,34.82953 510.5832,49.73013 90.9045,58.98732 100.8763,87.68051 126.6807,212.85567 14.2826,251.68605 16.2927,365.30675 -3.1739,552.56225 z"
     style="fill:#f9f9f9;fill-opacity:1"
     inkscape:connector-curvature="0" />
  <g
     id="g3618">
    <path
       sodipodi:nodetypes="cccccc"
       id="path3616"
       d="m 1655.5255,1506.6102 97.8304,85.7966 13.017,264.6779 H 902.50852 l 4.33898,-182.2373 47.72881,-91.1186"
       style="fill:#f9f9f9;fill-opacity:1;stroke:#000000;stroke-width:75;stroke-linecap:butt;stroke-linejoin:miter;stroke-miterlimit:4;stroke-dasharray:none;stroke-opacity:1"
       inkscape:connector-curvature="0" />
    <path
       sodipodi:nodetypes="cscccccccsccccscssssssscccccscscccccscscccccssssssscsccccsssccsssccsssccsssc"
       id="path6"
       d="M 1714.5031,677.67914 C 1632.2307,654.07332 1326.8172,656.6407 1083.3356,590.8232 1008.7025,570.64852 853.4392,460.30093 783.4392,418.9676 l 155,220 -601,123 555,267 -555,267 601,123 -155,220 c 70,-40.6667 230.703,-123.5843 298.9339,-141.7536 207.0403,-55.133 536.2358,-21.7058 618.5083,-30.6377 69.9939,-137.1726 80.1594,-639.45204 13.6217,-788.89716 z m 108.1887,676.14836 c -23.6376,105.3328 -47.2751,133.9624 -92.3895,199.4096 -284.1695,-6.5763 -380.5195,-18.1663 -537.3989,5.7875 -123.5599,18.8664 -311.13087,100.6097 -460.4642,197.943 1.33333,8 2,14.3333 2,19 0,36 -12.83333,66.8333 -38.5,92.5 -25.66667,25.6667 -56.5,38.5 -92.5,38.5 -36,0 -66.83333,-12.8333 -92.5,-38.5 -25.66667,-25.6667 -38.5,-56.5 -38.5,-92.5 0,-36 12.83333,-66.8333 38.5,-92.5 25.66667,-25.6667 56.5,-38.5 92.5,-38.5 13.33333,0 26,2 38,6 9.33333,2.6667 20.33333,7.6667 33,15 l 139,-196 -486,-100 c -20.66667,42.6667 -55,66.6667 -103,72 -29.33333,3.3333 -59.66667,-6.3333 -91,-29 -31.33333,-22.6667 -49,-52 -53,-88 -3.333333,-36 6.333333,-68 29,-96 22.66667,-28 52,-44 88,-48 45.33333,-4.6667 83.33333,10.6667 114,46 l 412,-198 -412,-198 c -30.66667,36 -68.66667,51.33333 -114,46 -36,-4 -65.33333,-20 -88,-48 -22.666667,-28 -32.333333,-60 -29,-96 4,-36 21.66667,-65.16667 53,-87.5 31.33333,-22.33333 61.66667,-32.16667 91,-29.5 48,6 82.33333,30 103,72 l 486,-100 -139,-196 c -12.66667,8 -23.66667,13 -33,15 -12,4 -24.66667,6 -38,6 -36,0 -66.83333,-12.83333 -92.5,-38.5 -25.66667,-25.66667 -38.5,-56.5 -38.5,-92.5 0,-36 12.83333,-66.83333 38.5,-92.5 25.66667,-25.66667 56.5,-38.5 92.5,-38.5 36,0 66.83333,12.83333 92.5,38.5 25.66667,25.66667 38.5,56.5 38.5,92.5 0,4.66667 -0.66667,11 -2,19 149.33333,98 303.8443,209.55121 456.1626,237.71186 168.7421,31.19708 339.3175,34.82953 510.5832,49.73013 90.9045,58.98732 100.8763,87.68051 126.6807,212.85567 14.2826,251.68614 16.2927,365.30674 -3.1739,552.56224 z M 541.4392,1776.9676 c 0,41.3333 20.66667,62 62,62 41.33333,0 62,-20.6667 62,-62 0,-42 -20.66667,-63 -62,-63 -41.33333,0 -62,21 -62,63 z m -394,-466 c 0,41.3333 20.66667,62 62,62 41.33333,0 62,-20.6667 62,-62 0,-41.3333 -20.66667,-62 -62,-62 -41.33333,0 -62,20.6667 -62,62 z m 394,-1030 c 0,42 20.66667,63 62,63 41.33333,0 62,-21 62,-63 0,-41.33333 -20.66667,-62 -62,-62 -41.33333,0 -62,20.66667 -62,62 z m -394,466 c 0,41.33333 20.66667,62 62,62 41.33333,0 62,-20.66667 62,-62 0,-41.33333 -20.66667,-62 -62,-62 -41.33333,0 -62,20.66667 -62,62 z"
       style="fill:#000000;fill-opacity:1"
       inkscape:connector-curvature="0" />
  </g>
</svg>
