<?xml version="1.0" encoding="UTF-8" standalone="no"?>
<svg
   xmlns:dc="http://purl.org/dc/elements/1.1/"
   xmlns:cc="http://creativecommons.org/ns#"
   xmlns:rdf="http://www.w3.org/1999/02/22-rdf-syntax-ns#"
   xmlns:svg="http://www.w3.org/2000/svg"
   xmlns="http://www.w3.org/2000/svg"
   xmlns:sodipodi="http://sodipodi.sourceforge.net/DTD/sodipodi-0.dtd"
   xmlns:inkscape="http://www.inkscape.org/namespaces/inkscape"
   id="svg2"
   height="100%"
   width="100%"
   version="1.1"
   viewBox="0 0 2048 2048"
   inkscape:version="0.92.3 (2405546, 2018-03-11)"
   sodipodi:docname="wtiger.svg">
  <defs
     id="defs9">
    <inkscape:perspective
       sodipodi:type="inkscape:persp3d"
       inkscape:vp_x="0 : 1024 : 1"
       inkscape:vp_y="0 : 1000 : 0"
       inkscape:vp_z="2048 : 1024 : 1"
       inkscape:persp3d-origin="1024 : 682.66667 : 1"
       id="perspective10" />
    <inkscape:perspective
       id="perspective2824"
       inkscape:persp3d-origin="0.5 : 0.33333333 : 1"
       inkscape:vp_z="1 : 0.5 : 1"
       inkscape:vp_y="0 : 1000 : 0"
       inkscape:vp_x="0 : 0.5 : 1"
       sodipodi:type="inkscape:persp3d" />
  </defs>
  <sodipodi:namedview
     pagecolor="#ffffff"
     bordercolor="#666666"
     borderopacity="1"
     objecttolerance="10"
     gridtolerance="10"
     guidetolerance="10"
     inkscape:pageopacity="0"
     inkscape:pageshadow="2"
     inkscape:window-width="1278"
     inkscape:window-height="899"
     id="namedview7"
     showgrid="false"
     inkscape:zoom="0.32593204"
     inkscape:cx="885.37654"
     inkscape:cy="624.68578"
     inkscape:window-x="5"
     inkscape:window-y="28"
     inkscape:window-maximized="0"
     inkscape:current-layer="layer2" />
  <metadata
     id="metadata12">
    <rdf:RDF>
      <cc:Work
         rdf:about="">
        <dc:format>image/svg+xml</dc:format>
        <dc:type
           rdf:resource="http://purl.org/dc/dcmitype/StillImage" />
        <dc:title />
      </cc:Work>
    </rdf:RDF>
  </metadata>
  <g
     inkscape:groupmode="layer"
     id="layer2"
     inkscape:label="Layer 2"
     style="display:inline">
    <path
       style="fill:#f9f9f9;fill-opacity:1;stroke:#000000;stroke-width:75;stroke-linecap:butt;stroke-linejoin:miter;stroke-miterlimit:4;stroke-dasharray:none;stroke-opacity:1"
       d="m 225.62711,919.86443 c 0,0 91.65129,-53.76337 138.84746,-78.10169 48.30356,-24.90938 100.52919,-42.12783 147.52542,-69.42373 56.55777,-32.84935 103.13457,-81.47339 160.54237,-112.81355 37.01125,-20.20524 75.82248,-39.36756 117.15254,-47.72881 57.41755,-11.61583 119.56435,14.48153 175.7288,-2.1695 40.2015,-11.91851 106.3051,-67.25423 106.3051,-67.25423 l 117.1525,-34.71187 182.2373,-26.03389 117.1526,-8.67797 -13.017,86.77966 -43.3898,91.11864 -52.0678,56.40678 -65.0848,47.72881 -15.1864,43.38983 158.3729,-121.49152 91.1186,47.72881 91.1187,47.72881 c 56.4068,36.88136 72.5556,43.9801 102.9285,65.67502 67.583,55.07123 89.3849,93.69681 107.9483,137.88496 30.0159,127.77631 9.5227,479.31941 3.286,843.18771 l -458.2361,-2.3237 c 0,0 -73.3856,-37.0287 -162.2119,-119.9123 -27.938,-26.0688 -93.5343,-69.4081 -127.4097,-87.088 -69.697,-36.3754 -105.4253,-37.4695 -160.54242,-43.3898 -28.79704,-3.0932 -61.10631,-2.302 -89.84778,1.2709 -29.27409,3.6391 -57.42963,7.0271 -83.71154,20.424 -22.79725,11.6206 -42.13623,30.8286 -56.40677,52.0678 -19.5478,29.0935 -24.94915,62.9152 -24.94915,62.9152 l 11.9322,88.9492 -92.20339,-55.322 c -26.39548,-19.1638 -50.62147,-42.6667 -75.9322,-73.7627 -20.97175,-22.0565 -32.18079,-39.774 -46.64407,-66.1695 -12.29378,-27.8419 -29.75664,-42.0251 -28.20339,-119.3221 l 2.16949,-49.8983 28.20339,-65.0847 21.69492,41.2204 c 23.40893,30.1051 60.74576,31.096 95.45762,43.3898 40.49718,1.4463 80.99435,9.4011 128,-6.5085 32.54237,-25.3107 43.38983,-52.791 45.55932,-78.1017 0.72316,-38.3277 -7.60386,-58.664 -15.18644,-80.2712 -9.77335,-24.763 -33.7255,-52.331 -51.16917,-74.0259 -32.54237,-33.9887 -63.81388,-48.1888 -115.88167,-49.6351 -43.38983,-1.4463 -60.74577,-0.3509 -91.11865,8.678 l -67.25423,34.7118 -54.23729,91.1187 -47.72881,-86.7797 -60.74576,-47.7288 -34.71187,-86.7797 v -73.76267 l -13.01694,-26.0339 -8.67797,-26.0339 z"
       id="path853"
       inkscape:connector-curvature="0"
       sodipodi:nodetypes="csssssccccccccccccccccssssssccccccccccccccccccccccccc" />
  </g>
  <g
     inkscape:groupmode="layer"
     id="layer3"
     inkscape:label="Layer 3"
     style="display:inline">
    <path
       style="fill:#000000;stroke:#000000;stroke-width:1px;stroke-linecap:butt;stroke-linejoin:miter;stroke-opacity:1"
       d="m 644.33897,849.35596 c 0,0 20.01855,-24.78067 30.37288,-36.88135 11.32309,-13.23283 20.65139,-28.77352 34.71186,-39.05085 11.5001,-8.40586 25.62243,-12.6032 39.05085,-17.35593 14.46959,-5.12123 29.42073,-8.93587 44.47457,-11.93221 13.59192,-2.70535 27.36686,-5.0492 41.22034,-5.42372 14.13819,-0.38222 31.31435,-5.64735 42.30509,3.25423 4.97904,4.03261 5.42372,18.44068 5.42372,18.44068 0,0 -12.22563,13.59815 -20.61016,15.18644 -11.03036,2.08949 -21.41103,-7.21928 -32.54238,-8.67797 -6.4533,-0.84566 -13.06291,-0.77215 -19.52542,0 -12.19111,1.45662 -24.48741,3.89813 -35.79661,8.67797 -10.62652,4.4913 -20.33303,11.16738 -29.28813,18.44068 -11.71106,9.51168 -22.74007,20.22876 -31.45763,32.54237 -2.33588,3.29945 -5.42373,10.84746 -5.42373,10.84746 z"
       id="path861"
       inkscape:connector-curvature="0"
       sodipodi:nodetypes="csssssscsssssscc" />
    <path
       style="display:inline;fill:#000000;stroke:#000000;stroke-width:1px;stroke-linecap:butt;stroke-linejoin:miter;stroke-opacity:1"
       d="m 698.13922,848.73563 110.42055,-10.66134 c 37.31379,-6.84876 62.69538,-20.20601 85.90748,-36.81749 13.23316,-13.54335 25.38159,-23.83247 42.95374,-27.61312 25.87789,-4.92742 20.29815,-10.9396 35.32858,-20.20601 l 11.65035,-22.00328 -44.12886,0.86671 -33.92749,4.33897 -34.08768,-0.0432 -38.08642,2.11499 -17.67619,7.69089 -30.71317,6.32237 c 0,0 50.17023,5.51533 57.95406,25.07139 2.88034,7.23655 -3.77321,15.89417 -9.20437,21.47687 -10.2107,10.4956 -25.8914,14.09856 -39.88562,18.40875 -11.89057,3.66227 -24.58706,3.85272 -36.81749,6.13625 -29.77218,5.55872 -113.48772,25.53758 -113.48772,25.53758 z"
       id="path857"
       inkscape:connector-curvature="0"
       sodipodi:nodetypes="ccccccccccccsssscc" />
    <path
       style="display:inline;fill:#000000;stroke:#000000;stroke-width:1px;stroke-linecap:butt;stroke-linejoin:miter;stroke-opacity:1"
       d="m 1392.8135,961.08477 c 0,0 36.0929,-33.91699 49.8983,-54.23729 13.0868,-19.26268 24.1747,-40.46757 30.3729,-62.91524 5.4108,-19.59586 6.1971,-40.43135 5.4238,-60.74577 -1.0877,-28.57173 -22.8275,-57.38173 -14.1017,-84.61017 1.8726,-5.84352 13.0169,-13.01695 13.0169,-13.01695 l 67.2542,35.79661 c 0,0 2.6476,10.04504 3.2543,15.18644 1.7801,15.08609 2.5276,30.43726 1.0847,45.55932 -1.6168,16.9443 -3.7373,34.43322 -10.8474,49.89831 -7.0083,15.24368 -19.0242,27.77871 -30.3729,40.13559 -13.1621,14.33132 -28.1471,26.95601 -43.3899,39.05085 -22.7868,18.08088 -71.5932,49.8983 -71.5932,49.8983 z"
       id="path863"
       inkscape:connector-curvature="0"
       sodipodi:nodetypes="cssssccsssssc" />
    <path
       style="fill:#000000;stroke:#000000;stroke-width:1px;stroke-linecap:butt;stroke-linejoin:miter;stroke-opacity:1"
       d="m 1448.1547,1092.2793 c 0,0 41.9369,-26.1999 61.3624,-41.4197 22.7985,-17.8625 44.8676,-36.9373 64.4306,-58.29435 16.0266,-17.49632 32.4833,-35.46844 42.9538,-56.76029 10.2914,-20.92778 15.3132,-44.38376 18.4087,-67.49874 2.8507,-21.28684 -1.6288,-43.0156 1e-4,-64.43061 0.8065,-10.60391 4.8253,-31.5366 4.8253,-31.5366 l 39.6624,22.33223 63.2661,43.34279 c 0,0 0.2907,19.40506 -1.9036,28.75812 -3.0368,12.94375 -9.4084,24.91911 -15.3406,36.8175 -7.6697,15.38346 -15.6716,30.80718 -26.0791,44.4878 -14.6695,19.28301 -32.0021,36.658 -50.624,52.15815 -19.8388,16.513 -41.6728,30.7741 -64.4306,42.9537 -23.4441,12.5469 -48.5646,21.8196 -73.635,30.6812 -20.5963,7.2801 -62.8965,18.4088 -62.8965,18.4088 z"
       id="path865"
       inkscape:connector-curvature="0"
       sodipodi:nodetypes="cssssscccssssssc" />
    <path
       style="fill:#000000;stroke:#000000;stroke-width:1px;stroke-linecap:butt;stroke-linejoin:miter;stroke-opacity:1"
       d="m 1560.1412,1236.4811 c 0,0 55.7952,-27.0622 81.3053,-44.4878 17.0839,-11.6699 32.2166,-26.002 47.5559,-39.8856 22.2523,-20.1406 47.9055,-37.842 64.4307,-62.8966 13.2805,-20.1352 19.5914,-44.267 26.079,-67.4987 6.2862,-22.51048 10.6072,-45.72044 12.2724,-69.03277 1.0936,-15.31013 -15.8064,-40.37428 -1.534,-46.02186 28.553,-11.29842 60.7619,69.24122 60.7619,69.24122 l 17.4753,87.23311 c 0,0 -9.6201,7.7571 -13.8066,12.2725 -9.1786,9.8998 -16.0043,21.7601 -24.5449,32.2153 -13.7555,16.8389 -26.1953,35.2367 -42.9538,49.09 -18.7241,15.4782 -40.7711,26.786 -62.8966,36.8175 -26.5093,12.0191 -54.6673,20.2959 -82.8393,27.6131 -26.6942,6.9334 -81.3053,15.3406 -81.3053,15.3406 z"
       id="path867"
       inkscape:connector-curvature="0"
       sodipodi:nodetypes="cssssssccsssssc" />
  </g>
  <path
     style="fill:#000000;stroke:#000000;stroke-width:1px;stroke-linecap:butt;stroke-linejoin:miter;stroke-opacity:1"
     d="m 242.98304,1071.7288 86.77966,-54.2372 52.0678,-84.61022 32.54237,-26.0339 -73.76271,-6.50847 -93.28813,21.69492 -26.0339,23.8644 z"
     id="path855"
     inkscape:connector-curvature="0" />
</svg>
