<?xml version="1.0" encoding="UTF-8" standalone="no"?>
<svg
   height="60"
   width="52.157"
   version="1.1"
   id="svg22"
   sodipodi:docname="0FU.svg"
   inkscape:version="1.3 (0e150ed6c4, 2023-07-21)"
   xmlns:inkscape="http://www.inkscape.org/namespaces/inkscape"
   xmlns:sodipodi="http://sodipodi.sourceforge.net/DTD/sodipodi-0.dtd"
   xmlns:xlink="http://www.w3.org/1999/xlink"
   xmlns="http://www.w3.org/2000/svg"
   xmlns:svg="http://www.w3.org/2000/svg">
  <defs
     id="defs22">
    <filter
       id="a-1"
       color-interpolation-filters="sRGB"
       x="-0.045153955"
       y="-0.035524804"
       width="1.1843787"
       height="1.1154556">
      <feFlood
         flood-opacity=".498039"
         result="flood"
         id="feFlood1-0" />
      <feComposite
         in="flood"
         in2="SourceGraphic"
         operator="in"
         result="composite1"
         id="feComposite1-6" />
      <feGaussianBlur
         in="composite1"
         result="blur"
         stdDeviation="1"
         id="feGaussianBlur1-3" />
      <feOffset
         dx="5"
         dy="3"
         result="offset"
         id="feOffset1-1" />
      <feComposite
         in="SourceGraphic"
         in2="offset"
         operator="over"
         result="composite2"
         id="feComposite2-5" />
    </filter>
    <linearGradient
       id="b-7"
       gradientTransform="matrix(-1.3225056,0,0,-1.3130648,557.89662,217.53053)"
       gradientUnits="userSpaceOnUse"
       spreadMethod="repeat"
       x1="-57.491947"
       x2="-36.526402"
       y1="15.247723"
       y2="15.247723">
      <stop
         offset="0"
         stop-color="#e5c37b"
         id="stop2" />
      <stop
         offset=".04234359"
         stop-color="#e4bd76"
         id="stop3" />
      <stop
         offset=".09289452"
         stop-color="#e7c781"
         id="stop4" />
      <stop
         offset=".16495684"
         stop-color="#e2b86e"
         id="stop5" />
      <stop
         offset=".3052367"
         stop-color="#e6c686"
         id="stop6" />
      <stop
         offset=".53886235"
         stop-color="#dfb96f"
         id="stop7" />
      <stop
         offset=".58579648"
         stop-color="#ddbb73"
         id="stop8" />
      <stop
         offset=".83974683"
         stop-color="#e7ce8f"
         id="stop9" />
      <stop
         offset=".92426348"
         stop-color="#e1bd73"
         id="stop10-7" />
      <stop
         offset=".96230692"
         stop-color="#e0bf78"
         id="stop11-3" />
      <stop
         offset="1"
         stop-color="#e7c685"
         id="stop12-4" />
    </linearGradient>
    <linearGradient
       inkscape:collect="always"
       xlink:href="#b-7"
       id="linearGradient23"
       x1="580.849"
       y1="41.890236"
       x2="602.27643"
       y2="41.890236"
       gradientUnits="userSpaceOnUse"
       spreadMethod="repeat" />
  </defs>
  <sodipodi:namedview
     id="namedview22"
     pagecolor="#ffffff"
     bordercolor="#666666"
     borderopacity="1.0"
     inkscape:showpageshadow="2"
     inkscape:pageopacity="0.0"
     inkscape:pagecheckerboard="0"
     inkscape:deskcolor="#d1d1d1"
     showgrid="false"
     inkscape:zoom="5.3268711"
     inkscape:cx="-114.88921"
     inkscape:cy="92.174185"
     inkscape:window-width="3840"
     inkscape:window-height="2054"
     inkscape:window-x="-11"
     inkscape:window-y="-11"
     inkscape:window-maximized="1"
     inkscape:current-layer="svg22" />
  <filter
     id="a"
     color-interpolation-filters="sRGB"
     x="-0.04515353"
     y="-0.03455844"
     width="1.1843769"
     height="1.1123149">
    <feFlood
       flood-opacity=".498039"
       result="flood"
       id="feFlood1" />
    <feComposite
       in="flood"
       in2="SourceGraphic"
       operator="in"
       result="composite1"
       id="feComposite1" />
    <feGaussianBlur
       in="composite1"
       result="blur"
       stdDeviation="1"
       id="feGaussianBlur1" />
    <feOffset
       dx="5"
       dy="3"
       result="offset"
       id="feOffset1" />
    <feComposite
       in="SourceGraphic"
       in2="offset"
       operator="over"
       result="composite2"
       id="feComposite2" />
  </filter>
  <filter
     id="b"
     color-interpolation-filters="sRGB"
     x="-0.60118696"
     y="-0.4865595"
     width="2.2022115"
     height="1.9730881">
    <feGaussianBlur
       result="result8"
       stdDeviation="5"
       id="feGaussianBlur2" />
    <feComposite
       in="SourceGraphic"
       in2="result8"
       operator="in"
       result="result6"
       id="feComposite3" />
    <feComposite
       in2="result6"
       operator="in"
       result="result11"
       id="feComposite4" />
    <feFlood
       flood-color="#fff"
       result="result10"
       id="feFlood4" />
    <feBlend
       in="result10"
       in2="result11"
       mode="multiply"
       result="result12"
       id="feBlend4" />
    <feComposite
       in="result12"
       in2="SourceGraphic"
       operator="in"
       result="fbSourceGraphic"
       id="feComposite5" />
    <feFlood
       flood-color="#4b659a"
       result="result6"
       id="feFlood5" />
    <feComposite
       in="fbSourceGraphic"
       in2="result6"
       k1="0.5"
       k2="0.3"
       k3="0.3"
       k4="0"
       operator="arithmetic"
       result="result2"
       id="feComposite6" />
    <feColorMatrix
       in="result2"
       result="fbSourceGraphicAlpha"
       type="matrix"
       values="1 0 0 -1 0 1 0 1 -1 0 1 0 0 -1 0 -0.8 -1 0 3.9 -2.7"
       id="feColorMatrix6" />
    <feGaussianBlur
       in="fbSourceGraphicAlpha"
       result="result0"
       stdDeviation=".5"
       id="feGaussianBlur6" />
    <feDiffuseLighting
       diffuseConstant="0.69999999"
       in="result0"
       result="result13"
       surfaceScale="50"
       id="feDiffuseLighting6">
      <feDistantLight
         azimuth="225"
         elevation="20"
         id="feDistantLight6" />
    </feDiffuseLighting>
    <feSpecularLighting
       in="result0"
       result="result1"
       specularConstant="0.69999999"
       specularExponent="20"
       surfaceScale="10"
       id="feSpecularLighting7">
      <feDistantLight
         azimuth="225"
         elevation="45"
         id="feDistantLight7" />
    </feSpecularLighting>
    <feBlend
       in="result13"
       in2="SourceGraphic"
       mode="screen"
       result="result5"
       id="feBlend7" />
    <feComposite
       in="result1"
       in2="result5"
       k1="0"
       k2="1"
       k3="1"
       k4="0"
       operator="arithmetic"
       result="result9"
       id="feComposite7" />
    <feComposite
       in2="SourceGraphic"
       operator="in"
       result="fbSourceGraphic"
       id="feComposite8" />
    <feColorMatrix
       in="fbSourceGraphic"
       result="fbSourceGraphicAlpha"
       values="0 0 0 -1 0 0 0 0 -1 0 0 0 0 -1 0 0 0 0 1 0"
       id="feColorMatrix8" />
    <feComposite
       in="fbSourceGraphic"
       in2="fbSourceGraphic"
       k1="0"
       k2="1"
       k3="0"
       k4="0"
       operator="arithmetic"
       result="composite1"
       id="feComposite9" />
    <feColorMatrix
       in="composite1"
       result="colormatrix1"
       type="saturate"
       values="1"
       id="feColorMatrix9" />
    <feFlood
       flood-opacity=".666667"
       result="flood1"
       id="feFlood9" />
    <feBlend
       in="flood1"
       in2="colormatrix1"
       mode="multiply"
       result="blend1"
       id="feBlend9" />
    <feBlend
       in2="blend1"
       mode="screen"
       result="blend2"
       id="feBlend10" />
    <feColorMatrix
       in="blend2"
       result="colormatrix2"
       type="saturate"
       values="1"
       id="feColorMatrix10" />
    <feComposite
       in="colormatrix2"
       in2="fbSourceGraphic"
       operator="in"
       result="composite2"
       id="feComposite10" />
  </filter>
  <linearGradient
     id="c"
     gradientTransform="matrix(1.330983,0,0,1.3285178,621.90854,1.64673)"
     gradientUnits="userSpaceOnUse"
     spreadMethod="repeat"
     x1="-29.351486"
     x2="-11.017649"
     y1="30.266771"
     y2="30.266771"
     xlink:href="#b-7">
    <stop
       offset="0"
       stop-color="#dfb459"
       id="stop10" />
    <stop
       offset=".0762229"
       stop-color="#dead54"
       id="stop11" />
    <stop
       offset=".12290344"
       stop-color="#e1b85f"
       id="stop12" />
    <stop
       offset=".21163738"
       stop-color="#dba84d"
       id="stop13" />
    <stop
       offset=".3052367"
       stop-color="#dfb765"
       id="stop14" />
    <stop
       offset=".53886235"
       stop-color="#d8a94e"
       id="stop15" />
    <stop
       offset=".58579648"
       stop-color="#d5ab53"
       id="stop16" />
    <stop
       offset=".83974683"
       stop-color="#e0bf6e"
       id="stop17" />
    <stop
       offset=".92426348"
       stop-color="#daae52"
       id="stop18" />
    <stop
       offset=".96230692"
       stop-color="#d9af57"
       id="stop19" />
    <stop
       offset="1"
       stop-color="#e1b663"
       id="stop20" />
  </linearGradient>
  <g
     filter="url(#a)"
     opacity=".99"
     transform="matrix(.63 0 0 .63 -356.5989379 1.82371604)"
     id="g21">
    <path
       d="m580.84851 73.779528v5.668522l53.15149-.000501v-5.668745z"
       fill="#c3983c"
       fill-opacity=".992157"
       opacity="1"
       id="path20" />
    <path
       d="m607.42465 10.00047-17.38061 5.65228-9.19504 58.12725 53.1515-.00072-9.19682-58.12618z"
       fill="url(#c)"
       opacity="1"
       stroke-width="1.34037"
       id="path21"
       style="fill:url(#linearGradient23);fill-opacity:1" />
  </g>
  <g
     filter="url(#b)"
     opacity=".99"
     stroke="#000"
     transform="matrix(.8528625 0 0 .8528625 4.4772524 3.27588242)"
     id="g22">
    <path
       d="m26.478477 21.406204c1.333333-.25 2.375-.541667 3.125-.875s1.458333-.291667 2.125.125.458333.875-.625 1.375c-1.083333.416667-2.625.583333-4.625.5l-.125 3.875c2.666667-.416667 4.666667-.75 6-1 1.416667-.25 2.375-.166667 2.875.25s.75.75.75 1c.08333.25-.5.375-1.75.375s-2.666667.08333-4.25.25c-1.5.166667-3.416667.416667-5.75.75.583333.166667 1.083333.416667 1.5.75s.5.75.25 1.25-.333333 1.375-.25 2.625c.08333 1.25.08333 2.291667 0 3.125s-.25 1.416667-.5 1.75c-.166667.25-.458333.08333-.875-.5-.416667-.583333-.541667-1.208333-.375-1.875.166667-.75.208333-1.75.125-3 0-1.25-.08333-2.125-.25-2.625-.166667-.5-.333333-.958333-.5-1.375-4.416667.916667-6.916667 1.458333-7.5 1.625s-1.291667 0-2.125-.5c-.75-.583333-.708333-.875.125-.875.916667 0 2.708333-.25 5.375-.75-.166667-2.666667-.458333-4.25-.875-4.75s-.541667-.833333-.375-1 .708333-.125 1.625.125c1 .166667 1.416667.583333 1.25 1.25s-.208333 2.041667-.125 4.125c1.25-.25 2.625-.5 4.125-.75 0-3-.08333-5.166667-.25-6.5-.08333-1.416667-.291667-2.375-.625-2.875s-.25-.708333.25-.625c.5 0 1.125.166667 1.875.5.75.25 1 .583333.75 1-.25.333333-.375 1.416667-.375 3.25zm6.088467 9.516873c.666667.583333.75 1 .25 1.25-.416667.25-2.213467 2.399794-2.963467 3.483127-.666667 1-1.708333 2.166667-3.125 3.5-1.333333 1.333333-1.992333 1.759594-4.925847 3.622881-2.445691 1.070227-2.155656 1.003538-4.6079 1.792857-.902589.133717-1.524769.224717-1.779502.226578-.380272.0028.05833-.193088 1.605353-.742033 2.666667-.833333 3.603484-1.733616 5.686817-3.150283 2.166667-1.416667 3.062746-3.041667 4.396079-4.875 1.416667-1.916667 3.2968-4.69146 3.213467-5.358127-.712535-.974716-.594091-1.221439.625-.875.506973.144071 1.041667.541667 1.625 1.125zm-.90165 5.973192c1.333333.333333 2.25.75 2.75 1.25.583333.5.75676 1.202668.625 2.125-.118437.829072-.541667.916667-1.375.25-.75-.666667-1.5-1.25-2.25-1.75-.75-.583333-1.375-1.083333-1.875-1.5-.5-.5-.625-.791667-.375-.875.333333-.08333 1.166667.08333 2.5.5zm-12.686817-4.740065c.416667-.833333.708333-1.25.875-1.25.25-.08333.333333.5.25 1.75 0 1.25-.458333 2.541667-1.375 3.875-.916667 1.25-1.5 1.375-1.75.375-.166667-1 .04167-1.833333.625-2.5.583333-.75 1.041667-1.5 1.375-2.25z"
       stroke="#000"
       id="path22" />
  </g>
</svg>
