<svg height="60" width="52.157" xmlns="http://www.w3.org/2000/svg" xmlns:xlink="http://www.w3.org/1999/xlink"><filter id="a" color-interpolation-filters="sRGB"><feFlood flood-opacity=".498039" result="flood"/><feComposite in="flood" in2="SourceGraphic" operator="in" result="composite1"/><feGaussianBlur in="composite1" result="blur" stdDeviation="1"/><feOffset dx="5" dy="3" result="offset"/><feComposite in="SourceGraphic" in2="offset" operator="over" result="composite2"/></filter><filter id="b" color-interpolation-filters="sRGB"><feGaussianBlur result="result8" stdDeviation="5"/><feComposite in="SourceGraphic" in2="result8" operator="in" result="result6"/><feComposite in2="result6" operator="in" result="result11"/><feFlood flood-color="#fff" result="result10"/><feBlend in="result10" in2="result11" mode="multiply" result="result12"/><feComposite in="result12" in2="SourceGraphic" operator="in" result="fbSourceGraphic"/><feFlood flood-color="#4b659a" result="result6"/><feComposite in="fbSourceGraphic" in2="result6" k1="0.5" k2="0.3" k3="0.3" k4="0" operator="arithmetic" result="result2"/><feColorMatrix in="result2" result="fbSourceGraphicAlpha" type="matrix" values="1 0 0 -1 0 1 0 1 -1 0 1 0 0 -1 0 -0.8 -1 0 3.9 -2.7"/><feGaussianBlur in="fbSourceGraphicAlpha" result="result0" stdDeviation=".5"/><feDiffuseLighting diffuseConstant="0.69999999" in="result0" result="result13" surfaceScale="50"><feDistantLight azimuth="225" elevation="20"/></feDiffuseLighting><feSpecularLighting in="result0" result="result1" specularConstant="0.69999999" specularExponent="20" surfaceScale="10"><feDistantLight azimuth="225" elevation="45"/></feSpecularLighting><feBlend in="result13" in2="SourceGraphic" mode="screen" result="result5"/><feComposite in="result1" in2="result5" k1="0" k2="1" k3="1" k4="0" operator="arithmetic" result="result9"/><feComposite in2="SourceGraphic" operator="in" result="fbSourceGraphic"/><feColorMatrix in="fbSourceGraphic" result="fbSourceGraphicAlpha" values="0 0 0 -1 0 0 0 0 -1 0 0 0 0 -1 0 0 0 0 1 0"/><feComposite in="fbSourceGraphic" in2="fbSourceGraphic" k1="0" k2="1" k3="0" k4="0" operator="arithmetic" result="composite1"/><feColorMatrix in="composite1" result="colormatrix1" type="saturate" values="1"/><feFlood flood-opacity=".666667" result="flood1"/><feBlend in="flood1" in2="colormatrix1" mode="multiply" result="blend1"/><feBlend in2="blend1" mode="screen" result="blend2"/><feColorMatrix in="blend2" result="colormatrix2" type="saturate" values="1"/><feComposite in="colormatrix2" in2="fbSourceGraphic" operator="in" result="composite2"/></filter><linearGradient id="c" gradientTransform="matrix(1.330983 0 0 1.3285178 621.90854 1.64673)" gradientUnits="userSpaceOnUse" spreadMethod="repeat" x1="-29.351486" x2="-11.017649" y1="30.266771" y2="30.266771"><stop offset="0" stop-color="#dfb459"/><stop offset=".0762229" stop-color="#dead54"/><stop offset=".12290344" stop-color="#e1b85f"/><stop offset=".21163738" stop-color="#dba84d"/><stop offset=".3052367" stop-color="#dfb765"/><stop offset=".53886235" stop-color="#d8a94e"/><stop offset=".58579648" stop-color="#d5ab53"/><stop offset=".83974683" stop-color="#e0bf6e"/><stop offset=".92426348" stop-color="#daae52"/><stop offset=".96230692" stop-color="#d9af57"/><stop offset="1" stop-color="#e1b663"/></linearGradient><g filter="url(#a)" opacity=".99" transform="matrix(.63 0 0 .63 -356.5989379 1.82371604)"><path d="m580.84851 73.779528v5.668522l53.15149-.000501v-5.668745z" fill="#c3983c" fill-opacity=".992157" opacity="1"/><path d="m607.42465 10.00047-17.38061 5.65228-9.19504 58.12725 53.1515-.00072-9.19682-58.12618z" fill="url(#c)" opacity="1" stroke-width="1.34037"/></g><g filter="url(#b)" opacity=".99" stroke="#000" transform="matrix(.8528625 0 0 .8528625 4.4772524 3.27588242)"><path d="m26.478477 21.406204c1.333333-.25 2.375-.541667 3.125-.875s1.458333-.291667 2.125.125.458333.875-.625 1.375c-1.083333.416667-2.625.583333-4.625.5l-.125 3.875c2.666667-.416667 4.666667-.75 6-1 1.416667-.25 2.375-.166667 2.875.25s.75.75.75 1c.08333.25-.5.375-1.75.375s-2.666667.08333-4.25.25c-1.5.166667-3.416667.416667-5.75.75.583333.166667 1.083333.416667 1.5.75s.5.75.25 1.25-.333333 1.375-.25 2.625c.08333 1.25.08333 2.291667 0 3.125s-.25 1.416667-.5 1.75c-.166667.25-.458333.08333-.875-.5-.416667-.583333-.541667-1.208333-.375-1.875.166667-.75.208333-1.75.125-3 0-1.25-.08333-2.125-.25-2.625-.166667-.5-.333333-.958333-.5-1.375-4.416667.916667-6.916667 1.458333-7.5 1.625s-1.291667 0-2.125-.5c-.75-.583333-.708333-.875.125-.875.916667 0 2.708333-.25 5.375-.75-.166667-2.666667-.458333-4.25-.875-4.75s-.541667-.833333-.375-1 .708333-.125 1.625.125c1 .166667 1.416667.583333 1.25 1.25s-.208333 2.041667-.125 4.125c1.25-.25 2.625-.5 4.125-.75 0-3-.08333-5.166667-.25-6.5-.08333-1.416667-.291667-2.375-.625-2.875s-.25-.708333.25-.625c.5 0 1.125.166667 1.875.5.75.25 1 .583333.75 1-.25.333333-.375 1.416667-.375 3.25zm6.088467 9.516873c.666667.583333.75 1 .25 1.25-.416667.25-2.213467 2.399794-2.963467 3.483127-.666667 1-1.708333 2.166667-3.125 3.5-1.333333 1.333333-1.992333 1.759594-4.925847 3.622881-2.445691 1.070227-2.155656 1.003538-4.6079 1.792857-.902589.133717-1.524769.224717-1.779502.226578-.380272.0028.05833-.193088 1.605353-.742033 2.666667-.833333 3.603484-1.733616 5.686817-3.150283 2.166667-1.416667 3.062746-3.041667 4.396079-4.875 1.416667-1.916667 3.2968-4.69146 3.213467-5.358127-.712535-.974716-.594091-1.221439.625-.875.506973.144071 1.041667.541667 1.625 1.125zm-.90165 5.973192c1.333333.333333 2.25.75 2.75 1.25.583333.5.75676 1.202668.625 2.125-.118437.829072-.541667.916667-1.375.25-.75-.666667-1.5-1.25-2.25-1.75-.75-.583333-1.375-1.083333-1.875-1.5-.5-.5-.625-.791667-.375-.875.333333-.08333 1.166667.08333 2.5.5zm-12.686817-4.740065c.416667-.833333.708333-1.25.875-1.25.25-.08333.333333.5.25 1.75 0 1.25-.458333 2.541667-1.375 3.875-.916667 1.25-1.5 1.375-1.75.375-.166667-1 .04167-1.833333.625-2.5.583333-.75 1.041667-1.5 1.375-2.25z" stroke="#000"/></g></svg>