<svg height="60" width="52.157" xmlns="http://www.w3.org/2000/svg" xmlns:xlink="http://www.w3.org/1999/xlink"><filter id="a" color-interpolation-filters="sRGB"><feFlood flood-opacity=".498039" result="flood"/><feComposite in="flood" in2="SourceGraphic" operator="in" result="composite1"/><feGaussianBlur in="composite1" result="blur" stdDeviation="1"/><feOffset dx="5" dy="3" result="offset"/><feComposite in="SourceGraphic" in2="offset" operator="over" result="composite2"/></filter><linearGradient id="b" gradientTransform="matrix(-1.5074238 0 0 -1.4274842 309.25481 215.22473)" gradientUnits="userSpaceOnUse" spreadMethod="repeat" x1="148.36755" x2="129.50363" y1="49.818771" y2="49.818771"><stop offset="0" stop-color="#e5c37b"/><stop offset=".04234359" stop-color="#e4bd76"/><stop offset=".09289452" stop-color="#e7c781"/><stop offset=".16495684" stop-color="#e2b86e"/><stop offset=".3052367" stop-color="#e6c686"/><stop offset=".53886235" stop-color="#dfb96f"/><stop offset=".58579648" stop-color="#ddbb73"/><stop offset=".83974683" stop-color="#e7ce8f"/><stop offset=".92426348" stop-color="#e1bd73"/><stop offset=".96230692" stop-color="#e0bf78"/><stop offset="1" stop-color="#e7c685"/></linearGradient><filter id="c" color-interpolation-filters="sRGB"><feGaussianBlur result="result8" stdDeviation="5"/><feComposite in="SourceGraphic" in2="result8" operator="in" result="result6"/><feComposite in2="result6" operator="in" result="result11"/><feFlood flood-color="#fff" result="result10"/><feBlend in="result10" in2="result11" mode="multiply" result="result12"/><feComposite in="result12" in2="SourceGraphic" operator="in" result="fbSourceGraphic"/><feFlood flood-color="#4b659a" result="result6"/><feComposite in="fbSourceGraphic" in2="result6" k1="0.5" k2="0.3" k3="0.3" k4="0" operator="arithmetic" result="result2"/><feColorMatrix in="result2" result="fbSourceGraphicAlpha" type="matrix" values="1 0 0 -1 0 1 0 1 -1 0 1 0 0 -1 0 -0.8 -1 0 3.9 -2.7"/><feGaussianBlur in="fbSourceGraphicAlpha" result="result0" stdDeviation=".5"/><feDiffuseLighting diffuseConstant="0.69999999" in="result0" result="result13" surfaceScale="50"><feDistantLight azimuth="225" elevation="20"/></feDiffuseLighting><feSpecularLighting in="result0" result="result1" specularConstant="0.69999999" specularExponent="20" surfaceScale="10"><feDistantLight azimuth="225" elevation="45"/></feSpecularLighting><feBlend in="result13" in2="SourceGraphic" mode="screen" result="result5"/><feComposite in="result1" in2="result5" k1="0" k2="1" k3="1" k4="0" operator="arithmetic" result="result9"/><feComposite in2="SourceGraphic" operator="in" result="fbSourceGraphic"/><feColorMatrix in="fbSourceGraphic" result="fbSourceGraphicAlpha" values="0 0 0 -1 0 0 0 0 -1 0 0 0 0 -1 0 0 0 0 1 0"/><feComposite in="fbSourceGraphic" in2="fbSourceGraphic" k1="0" k2="1" k3="0" k4="0" operator="arithmetic" result="composite1"/><feColorMatrix in="composite1" result="colormatrix1" type="saturate" values="1"/><feFlood flood-opacity=".666667" result="flood1"/><feBlend in="flood1" in2="colormatrix1" mode="multiply" result="blend1"/><feBlend in2="blend1" mode="screen" result="blend2"/><feColorMatrix in="blend2" result="colormatrix2" type="saturate" values="1"/><feComposite in="colormatrix2" in2="fbSourceGraphic" operator="in" result="composite2"/></filter><g filter="url(#a)" opacity=".99" transform="matrix(.63 0 0 .63 -204.055309 -112.71862655)"><path d="m363.94386 259.87022 1.24185 1.65885 18.68146-5.93432-.86315-1.63067z" fill="none" opacity="1" transform="matrix(1.1001284 0 0 1.0507274 -34.799654 -13.593421)"/><path d="m345.26768 257.18883v-3.77953l20.02335 6.0808 20.40273-6.08109v3.77954l-20.40273 6.08108z" fill="#c3983c" fill-opacity=".992157" opacity="1"/><path d="m365.29104 259.49102 20.40272-6.08109 10.30624-63.60561-61.41732-.00023 10.68496 63.60613z" fill="url(#b)" opacity="1" stroke-width="1.48632"/></g><g filter="url(#c)" opacity=".99" stroke="#000" stroke-width=".866667" transform="matrix(-.945 0 0 -.945 50.6851154 59.5772101)"><path d="m33.825458 31.442181q0-.57552.06771-.744791.101562-.203125.338541-.203125.609375 0 1.929688 1.151041l.40625.338542q0 .135417-.03385.236979 0 .06771-.101563.169271-.101562.101563-.236979.203125-.135416.101563-.440104.270834-.270833.16927-.609375.372395-.304688.203125-.880208.575521-.575521.372396-1.184896.778646-.880209.609375-1.692709.981771 1.929688 1.557292 2.877605 2.132813.947916.541666 1.963541.880208l3.960938 1.151042q.270833.135416.40625.16927v.23698q-1.591146.609375-4.197917.98177-2.268229-.778645-4.705729-3.41927l-2.505209-2.776042-.778645-.744792q-.135417-.101562-.778646-.575521l-.270834 7.95573-.06771.06771.135417.169271 3.080729-1.861979q.304687-.169271.914063-.372396l.101562.135416-.203125.40625q-.169271.304688-1.828125 1.86198-1.625 1.557291-1.997396 1.997396l-1.320313 1.760416q-.304687.304688-.778645.304688-.947917-.846354-.947917-2.132813 1.489583-1.591146 1.625-5.145833l.101562-2.84375q.23698-3.013021.23698-4.70573 0-5.213542-1.388021-8.125v-.135417q0-.473958.372396-.473958.338541 0 .98177.372396.64323.338541.880209.575521 3.486979-1.184896 4.841146-1.929688.846354 0 1.861979.609375 1.049479.609375 1.049479 1.151042 0 .236979-.135416.473958-.135417.203125-.338542.473959-.169271.236979-.440104 1.184895-.236979.947917-.440104 2.4375-.372396 2.979167-1.591146 3.690105-.473959 0-.914063-.473959-.40625-.507812-.440104-.507812l-.169271.06771q-.507812.203125-1.523437.473959-1.015625.236979-1.388021.372395v1.388021q.914062 0 2.674479 1.760417l.710937.710938 2.132813-2.67448q.338542-.473958.677083-1.184896zm-2.03125-8.497396-3.994791 1.45573q-.169271.507812-.270834 2.4375v.236979l1.455729-.677084q.23698-.135416.677084-.135416 1.083333 0 1.286458.507812l-.236979.270834-3.080729.947916v2.471355l2.03125-.8125q.338541-.06771.507812-.06771.507813 0 .846354.236979l.372396-.541666.778646-4.536459q.03385-.40625.03385-1.015625 0-.778646-.40625-.778646zm-7.244792 11.984376q0 .03385-.304687.203125-.304688.169271-1.184896.744791-.846354.541667-1.895833 1.354167h-.270834v-.236979l1.320313-1.794271q.473958-.778646.473958-1.523437.135417-.135417.338542-.135417.40625 0 .947917.507812.57552.473959.57552.880209zm-2.369791-3.757813q1.421875 0 1.421875.710938v.03385l-.304688.236979-2.911458.880208q-.169271.270834-.40625 5.552084.846354-.169271 4.164062-1.184896l.372396.06771q-.135416.609375-1.523437 1.184896l-6.093751 2.471354q-.270833.06771-2.302083 1.354167l-.473958-.06771-1.86198-1.286459-.06771-.609375q.236979-.270833.947917-.270833.880208 0 .981771-.03385l4.502604-1.21875.203125-5.518229q-1.828125.203125-2.572917.203125-1.286458 0-1.286458-.609375.338542-.23698 3.791667-.914063 0-1.557292-.203125-2.302083-1.760417 0-2.539063-.304688l-2.234375 2.606771q-.981769.981771-1.929686 1.388021l-.372395-.06771.101562-.304688q5.315104-6.330729 7.177084-10.427084l.575521-1.320312q.101562-.236979.101562-.507813 0-.101562-.169271-.744791-.169271-.677084-.169271-.947917.101563-.135417.40625-.135417.64323 0 1.523438.609375.880208.575521.880208 1.083334 0 .16927-.03385.236979l-.778646 1.151041v.06771l1.794271.507812q1.117188.40625 1.252604 1.21875v.203125l-.03385.507813-.203125.338542-.541666-.03385-2.065105-1.591146q-.473958-.338541-.710937-.440104-1.625 2.945313-3.994792 5.92448.541667-.101563 2.539063-.778646 2.03125-.677084 2.640625-.677084.914062 0 1.354166.575521 0 .372396-.40625.507813l-2.911458.914062-.06771.03385q.744791.236979.744791 1.591145v.101563.40625q.609375-.372396 1.692709-.372396zm-4.908855 5.958334q0 1.117187-.338541 1.252604-.981771-.236979-1.963542-2.065104l-.203125-.338542q0-.440104.203125-.507813 1.828125.8125 2.302083 1.658855z" stroke="#000" stroke-width=".866667"/></g></svg>