<svg height="60" width="52.157" xmlns="http://www.w3.org/2000/svg" xmlns:xlink="http://www.w3.org/1999/xlink"><filter id="a" color-interpolation-filters="sRGB"><feFlood flood-opacity=".498039" result="flood"/><feComposite in="flood" in2="SourceGraphic" operator="in" result="composite1"/><feGaussianBlur in="composite1" result="blur" stdDeviation="1"/><feOffset dx="5" dy="3" result="offset"/><feComposite in="SourceGraphic" in2="offset" operator="over" result="composite2"/></filter><linearGradient id="b"><stop offset="0" stop-color="#e5c37b"/><stop offset=".04234359" stop-color="#e4bd76"/><stop offset=".09289452" stop-color="#e7c781"/><stop offset=".16495684" stop-color="#e2b86e"/><stop offset=".3052367" stop-color="#e6c686"/><stop offset=".53886235" stop-color="#dfb96f"/><stop offset=".58579648" stop-color="#ddbb73"/><stop offset=".83974683" stop-color="#e7ce8f"/><stop offset=".92426348" stop-color="#e1bd73"/><stop offset=".96230692" stop-color="#e0bf78"/><stop offset="1" stop-color="#e7c685"/></linearGradient><linearGradient id="c" gradientTransform="matrix(-1.5869502 0 0 -1.4758723 140.72629 216.45305)" gradientUnits="userSpaceOnUse" spreadMethod="repeat" x1="148.57835" x2="130.3233" xlink:href="#b" y1="49.825951" y2="49.825951"/><filter id="d" color-interpolation-filters="sRGB"><feGaussianBlur result="result8" stdDeviation="5"/><feComposite in="SourceGraphic" in2="result8" operator="in" result="result6"/><feComposite in2="result6" operator="in" result="result11"/><feFlood flood-color="#fff" result="result10"/><feBlend in="result10" in2="result11" mode="multiply" result="result12"/><feComposite in="result12" in2="SourceGraphic" operator="in" result="fbSourceGraphic"/><feFlood flood-color="#4b659a" result="result6"/><feComposite in="fbSourceGraphic" in2="result6" k1="0.5" k2="0.3" k3="0.3" k4="0" operator="arithmetic" result="result2"/><feColorMatrix in="result2" result="fbSourceGraphicAlpha" type="matrix" values="1 0 0 -1 0 1 0 1 -1 0 1 0 0 -1 0 -0.8 -1 0 3.9 -2.7"/><feGaussianBlur in="fbSourceGraphicAlpha" result="result0" stdDeviation=".5"/><feDiffuseLighting diffuseConstant="0.69999999" in="result0" result="result13" surfaceScale="50"><feDistantLight azimuth="225" elevation="20"/></feDiffuseLighting><feSpecularLighting in="result0" result="result1" specularConstant="0.69999999" specularExponent="20" surfaceScale="10"><feDistantLight azimuth="225" elevation="45"/></feSpecularLighting><feBlend in="result13" in2="SourceGraphic" mode="screen" result="result5"/><feComposite in="result1" in2="result5" k1="0" k2="1" k3="1" k4="0" operator="arithmetic" result="result9"/><feComposite in2="SourceGraphic" operator="in" result="fbSourceGraphic"/><feColorMatrix in="fbSourceGraphic" result="fbSourceGraphicAlpha" values="0 0 0 -1 0 0 0 0 -1 0 0 0 0 -1 0 0 0 0 1 0"/><feComposite in="fbSourceGraphic" in2="fbSourceGraphic" k1="0" k2="1" k3="0" k4="0" operator="arithmetic" result="composite1"/><feColorMatrix in="composite1" result="colormatrix1" type="saturate" values="1"/><feFlood flood-opacity=".666667" result="flood1"/><feBlend in="flood1" in2="colormatrix1" mode="multiply" result="blend1"/><feBlend in2="blend1" mode="screen" result="blend2"/><feColorMatrix in="blend2" result="colormatrix2" type="saturate" values="1"/><feComposite in="colormatrix2" in2="fbSourceGraphic" operator="in" result="composite2"/></filter><linearGradient gradientUnits="userSpaceOnUse" spreadMethod="repeat" x1="148.57835" x2="130.3233" xlink:href="#b" y1="49.825951" y2="49.825951"/><g filter="url(#a)" opacity=".99" transform="matrix(.63001101 0 0 .6300002 -100.0227836749 -112.64726596432)"><path d="m178.81047 259.20188v-3.77953l21.34598 6.79812 21.34565-6.79801v3.77954l-21.34565 6.798z" fill="#c3983c" fill-opacity=".992157" opacity="1"/><path d="m200.15829 262.21984 21.34565-6.79801 10.54394-65.25095-63.77953-.00017 10.54396 65.25101z" fill="url(#c)" opacity="1" stroke-width="1.57525"/></g><g filter="url(#d)" opacity=".99" transform="matrix(-.945016515 0 0 -.9450003 49.8842795137 59.19240758794)"><path d="m23.867525 18.750001q1.166667 0 3.354167-.4375 2.333333-.4375 3.062499-.729167.875-.4375 1.895834-.145833 1.020833.291667 2.1875 1.166667 1.3125.729166-.729167 1.3125-2.041667.583333-7 5.541666 3.645833-.729167 4.375-1.166667.875-.4375 1.895833-.145833 1.020834.291667 2.479167 1.166667 1.458333.875.875 1.604166-.4375.729167-.583333 3.0625 0 2.333333.291666 7.145833.4375 4.666667.291667 6.5625-.145833 1.75-1.604167 2.916667-1.458333 1.3125-1.895833 0-.4375-1.3125-2.041667-2.770834-1.604166-1.458333.145834-.875 1.895833.4375 2.479166.291667.729167-.291667.583334-4.520833-.145834-4.229167-.4375-7.583333-.145834-3.354167-.4375-4.229167-.291667-1.020833-1.3125-1.020833-.875-.145833-5.979167.729167 1.3125.875 1.020834 1.604166-.145834.583334-.145834 2.333333l2.333333-.583333q1.166667-.291666 1.75.291667.729167.583333-.583333 1.020833-1.3125.4375-3.5.875v3.645833q1.75-.291666 2.770833-.4375 1.166667-.291666 2.041667.291667.875.583333-.583333 1.020833-1.458334.291667-4.229167.875.145834 2.770833-.145833 5.395833-.145833 2.479167-.729167 2.625-.583333.145834-.729166-2.041666 0-2.333334-.145834-5.6875-1.604166.291667-2.479166.4375-.875.145833-2.041667-.583333-1.166667-.729167 0-.875 1.3125-.145834 4.520833-.729167v-3.5q-2.916666.4375-3.791666-.145833-.875-.583334.145833-.729167 1.020833-.291667 3.645833-.875 0-3.208333-.729166-3.9375l-4.375.583334q-.291667 5.833333-.729167 8.895833-.4375 2.916666-1.3125 5.541666-.875 2.479167-3.645833 3.791667-2.625 1.458333-.583333-.583334 2.041666-1.895833 2.916666-4.958333.875-3.0625 1.020834-7.4375.291666-4.374999-.291667-5.395833-.583333-1.166666.291667-1.020833.875.145833 1.749999.145833.875 0 5.6875-.729166 2.333334-2.916667 3.645834-4.375 1.312499-1.458333.874999-1.75-.4375-.4375-1.458333-.145833-.875.145833-2.1875.4375-1.166666.145833-2.625-.4375-3.645833 3.937499-6.708333 5.541666-3.0625 1.458333-.875-.291667 2.1875-1.75 3.9375-3.791666 1.75-2.1875 2.1875-3.208333.583333-1.166667.4375-2.1875 0-1.020834 1.166667-.583334 1.166666.4375 1.895833 1.020834.875.583333.145833 1.166666-.583333.583334-1.458333 1.604167z" stroke="#000"/></g></svg>