<svg height="60" width="52.157" xmlns="http://www.w3.org/2000/svg" xmlns:xlink="http://www.w3.org/1999/xlink"><linearGradient id="a"><stop offset="0" stop-color="#e5c37b"/><stop offset=".04234359" stop-color="#e4bd76"/><stop offset=".09289452" stop-color="#e7c781"/><stop offset=".16495684" stop-color="#e2b86e"/><stop offset=".3052367" stop-color="#e6c686"/><stop offset=".53886235" stop-color="#dfb96f"/><stop offset=".58579648" stop-color="#ddbb73"/><stop offset=".83974683" stop-color="#e7ce8f"/><stop offset=".92426348" stop-color="#e1bd73"/><stop offset=".96230692" stop-color="#e0bf78"/><stop offset="1" stop-color="#e7c685"/></linearGradient><filter id="b" color-interpolation-filters="sRGB"><feFlood flood-opacity=".498039" result="flood"/><feComposite in="flood" in2="SourceGraphic" operator="in" result="composite1"/><feGaussianBlur in="composite1" result="blur" stdDeviation="1"/><feOffset dx="5" dy="3" result="offset"/><feComposite in="SourceGraphic" in2="offset" operator="over" result="composite2"/></filter><filter id="c" color-interpolation-filters="sRGB"><feGaussianBlur result="result8" stdDeviation="5"/><feComposite in="SourceGraphic" in2="result8" operator="in" result="result6"/><feComposite in2="result6" operator="in" result="result11"/><feFlood flood-color="#fff" result="result10"/><feBlend in="result10" in2="result11" mode="multiply" result="result12"/><feComposite in="result12" in2="SourceGraphic" operator="in" result="fbSourceGraphic"/><feFlood flood-color="#4b659a" result="result6"/><feComposite in="fbSourceGraphic" in2="result6" k1="0.5" k2="0.3" k3="0.3" k4="0" operator="arithmetic" result="result2"/><feColorMatrix in="result2" result="fbSourceGraphicAlpha" type="matrix" values="1 0 0 -1 0 1 0 1 -1 0 1 0 0 -1 0 -0.8 -1 0 3.9 -2.7"/><feGaussianBlur in="fbSourceGraphicAlpha" result="result0" stdDeviation=".5"/><feDiffuseLighting diffuseConstant="0.69999999" in="result0" result="result13" surfaceScale="50"><feDistantLight azimuth="225" elevation="20"/></feDiffuseLighting><feSpecularLighting in="result0" result="result1" specularConstant="0.69999999" specularExponent="20" surfaceScale="10"><feDistantLight azimuth="225" elevation="45"/></feSpecularLighting><feBlend in="result13" in2="SourceGraphic" mode="screen" result="result5"/><feComposite in="result1" in2="result5" k1="0" k2="1" k3="1" k4="0" operator="arithmetic" result="result9"/><feComposite in2="SourceGraphic" operator="in" result="fbSourceGraphic"/><feColorMatrix in="fbSourceGraphic" result="fbSourceGraphicAlpha" values="0 0 0 -1 0 0 0 0 -1 0 0 0 0 -1 0 0 0 0 1 0"/><feComposite in="fbSourceGraphic" in2="fbSourceGraphic" k1="0" k2="1" k3="0" k4="0" operator="arithmetic" result="composite1"/><feColorMatrix in="composite1" result="colormatrix1" type="saturate" values="1"/><feFlood flood-opacity=".666667" result="flood1"/><feBlend in="flood1" in2="colormatrix1" mode="multiply" result="blend1"/><feBlend in2="blend1" mode="screen" result="blend2"/><feColorMatrix in="blend2" result="colormatrix2" type="saturate" values="1"/><feComposite in="colormatrix2" in2="fbSourceGraphic" operator="in" result="composite2"/></filter><linearGradient gradientUnits="userSpaceOnUse" spreadMethod="repeat" x1="148.57835" x2="130.3233" xlink:href="#a" y1="49.825951" y2="49.825951"/><linearGradient id="d" gradientTransform="matrix(-1.6457262 0 0 -1.5242603 -22.56214 214.95269)" gradientUnits="userSpaceOnUse" spreadMethod="repeat" x1="148.57835" x2="130.3233" xlink:href="#a" y1="49.825951" y2="49.825951"/><g filter="url(#b)" opacity=".99" transform="matrix(.63 0 0 .63 1.46385433 -112.9497288)"><path d="m16.26352 258.3741v-3.77953l22.764228 7.6259 22.856448-7.65493v3.77954l-22.856448 7.65492z" fill="#c3983c" fill-opacity=".992157" opacity="1"/><path d="m39.02775 262.22 22.85645-7.65493 10.25753-66.75623-66.14173-.00018 10.26352 66.78544z" fill="url(#d)" opacity="1" stroke-width="1.59796"/></g><g filter="url(#c)" stroke="#000" stroke-width=".847934" transform="matrix(-1.057317975 0 0 -1.060183341 30.80060065 21.88680744)"><path d="m20.8285 24.613991c-1.722222 0-4.415094-.628931-5.248427-1.462264 0-.194444 1.498424-.121069 1.665094-.204402.194445-.08333.611111-.152778 1.25-.208334.666667-.08333 1.430556-.166667 2.291667-.25.888889-.08333 2.222222-.277778 4-.583333s3.694445-.694444 5.75-1.166667c.416667-.111111.902778-.166666 1.458333-.166666 1.222223 0 2.152778.375 2.791667 1.125.02778.277777-.02778.499999-.166667.666666-.138889.138889-.458333.277778-.958333.416667-.5.111111-1.027778.208334-1.583333.291667-.527778.05555-1.375.180553-2.541667.375-1.166667.194444-2.305556.402777-3.416667.625.694445.361111 1.041667.916666 1.041667 1.666666l-.208333 2.25-.125 4.041667v.04167l4.00393-.579403c.166667-.02778 1.308701-.253934 1.586479-.253934 1.083333 0 1.875.347222 2.375 1.041666-.02778.38889-.541669.722223-1.541667 1-1 .277778-3.243187.5-4.465409.666667-1.222222.138889-1.861111.222222-1.916667.25l-.125.208333-.25 8.208334c3.25-.222222 5.930556-.472222 8.041667-.75l3.583334-.625h.166666.125c.805556 0 1.652778.430556 2.541667 1.291667.916667.833333 1.375 1.472222 1.375 1.916666-.111111.194445-.388889.291667-.833333.291667-.416667 0-2.236111-.152778-5.458334-.458333l-2.666667-.166667c-2.305555 0-5.527778.194444-9.666667.583333s-6.356918.784068-7.856918 1.25629l-1.875.541667c-.02778 0-.08334.01389-.166667.04167h-.166667c-.555555 0-1.152777-.208333-1.791666-.625s-1.111112-.888889-1.416667-1.416666c0-.305556.08333-.527778.25-.666667l.190252.03538c1.611269.299616 3.833333-.166667 6.583333-.5s5-.5 6.75-.5h.166667l.125-8.25-3.75.25c-1.222222-.02778-2.917191-.233493-3.528302-.900158 0-.305555.180556-.472222.541667-.5l2.653302-.266509 4.041666-.541667v-6.083333c0-.805556-.263889-1.513889-.791666-2.125-1 .111111-1.944445.166666-2.833334.166666z" stroke="#000" stroke-width=".847934" transform="translate(-21.91312 -38.895837)"/></g></svg>