<svg clip-rule="evenodd" fill-rule="evenodd" height="177.17" image-rendering="optimizeQuality" shape-rendering="geometricPrecision" viewBox="0 0 50 50" width="177.17" xmlns="http://www.w3.org/2000/svg" xmlns:xlink="http://www.w3.org/1999/xlink"><linearGradient id="a"><stop offset="0" stop-color="#fff"/><stop offset="1" stop-color="#e6e6e6"/></linearGradient><linearGradient id="b" gradientUnits="userSpaceOnUse" x1="1.793643" x2="12.63324" y1="74.318817" y2="73.869385"><stop offset="0" stop-color="#fff"/><stop offset="1" stop-color="#b3b3b3"/></linearGradient><linearGradient id="c" gradientUnits="userSpaceOnUse" x1="-2.508196" x2="1.752626" xlink:href="#a" y1="74.568955" y2="74.568955"/><linearGradient id="d"><stop offset="0" stop-color="#ffe680"/><stop offset="1" stop-color="#b89200"/></linearGradient><linearGradient id="e" gradientUnits="userSpaceOnUse" x1="-8.845038" x2="7.222165" xlink:href="#d" y1="91.81409" y2="91.81409"/><linearGradient id="f" gradientUnits="userSpaceOnUse" x1="-5.962714" x2="4.815122" xlink:href="#d" y1="85.976685" y2="85.976685"/><linearGradient id="g" gradientUnits="userSpaceOnUse" x1="-2.455736" x2="1.805086" xlink:href="#a" y1="74.568955" y2="74.568955"/><linearGradient id="h" gradientUnits="userSpaceOnUse" x1="-5.811293" x2="4.527886" y1="74.703705" y2="74.703705"><stop offset="0" stop-color="#ffe680"/><stop offset="1" stop-color="#ffe680" stop-opacity="0"/></linearGradient><linearGradient id="i" gradientUnits="userSpaceOnUse" x1="-6.049632" x2="4.810146" xlink:href="#d" y1="72.505302" y2="72.505302"/><linearGradient id="j" gradientUnits="userSpaceOnUse" x1="-5.811293" x2="4.527886" xlink:href="#d" y1="74.703705" y2="74.703705"/><linearGradient id="k" gradientUnits="userSpaceOnUse" x1="-6.499335" x2="4.384012" xlink:href="#d" y1="72.549019" y2="72.549019"/><linearGradient id="l" gradientUnits="userSpaceOnUse" x1="-6.027205" x2="5.717554" xlink:href="#d" y1="68.83271" y2="68.83271"/><linearGradient id="m" gradientUnits="userSpaceOnUse" x1="-5.357782" x2="4.888869" xlink:href="#d" y1="72.461586" y2="72.461586"/><linearGradient id="n" gradientUnits="userSpaceOnUse" x1="-5.652663" x2="4.781251" xlink:href="#d" y1="80.305206" y2="80.305206"/><g fill="url(#b)" transform="translate(25.211864 -48.303673)"><path d="m.5859365 56.17703c.7960066-1.020015-.3788487-2.345177-1.3068235-2.345578-.7032446.06761-2.4032857 1.12243-1.3068233 2.479612-1.5679946 6.247019-4.6143343 11.207329-10.9907077 13.269271.772685 5.835682 4.7398273 9.845965 7.5058526 14.542581-.402536.380608-1.2797124.749544-1.8262037 1.189546.084992.995123.2798869 1.916985 1.2900669 2.295318l-1.8094413 2.479607s-1.3033945-.221657-1.7187392.177365c-.26616.255694-.1577336 1.095956-.1577336 1.095956l-2.6806577 2.546622h19.0360371 4.0846579l-2.2785577-2.479606s.06342-.993607-.268067-1.273321c-.4442301-.374822-1.7424273-.06704-1.7424273-.06704l-1.8094474-2.747666c.7128332-.34693 1.4409757-.672792 1.4576084-1.976998-.529628-.512006-1.1706496-.799362-1.6586569-1.172787 2.4587172-4.724947 6.4543829-8.785262 6.8356849-14.408548-5.1812397-3.053521-9.3828802-6.997612-10.6556275-13.604334z" fill="#1f1a17" stroke="#1f1a17" stroke-width="1.693289"/><path d="m-4.2776582 87.274357c-1.2293684-.970178-1.2467044-1.677847-.058033-2.542373l7.587461-.105932c1.3453266.890535 1.3025035 1.573618.068806 2.701271z" fill="url(#f)"/><path d="m-6.6209876 90.559427-2.823294 2.50933h17.1907845l-2.541118-2.50933z" fill="url(#e)"/><g stroke-width="1.693289"><circle cx="-5.252363" cy="72.549019" fill="#f9df75" r=".699949" stroke="url(#k)" stroke-linecap="square"/><circle cx="3.754255" cy="72.461586" fill="#be990b" r=".699949" stroke="url(#m)" stroke-linecap="square"/><circle cx="-.810248" cy="68.83271" fill="#dfc046" r=".699949" stroke="url(#l)" stroke-linecap="square"/><circle cx="-.810233" cy="80.305206" fill="url(#c)" r=".699949" stroke="url(#n)" stroke-linecap="square"/><path d="m-4.3429314 72.103065h7.2577571v.80447h-7.2752471z" fill="url(#g)" stroke="url(#i)"/><path d="m-.5134593 69.856275v9.75254h-.5935622v-9.77604z" fill="url(#h)" stroke="url(#j)"/></g></g></svg>