<svg clip-rule="evenodd" fill-rule="evenodd" height="177.17" image-rendering="optimizeQuality" shape-rendering="geometricPrecision" viewBox="0 0 50 50" width="177.17" xmlns="http://www.w3.org/2000/svg" xmlns:xlink="http://www.w3.org/1999/xlink"><linearGradient id="a" gradientUnits="userSpaceOnUse" x1="93.92865" x2="144.68373" xlink:href="#b" y1="104.95064" y2="104.95064"/><linearGradient id="b"><stop offset="0" stop-color="#ffe680"/><stop offset="1" stop-color="#b89200"/></linearGradient><linearGradient id="c" gradientUnits="userSpaceOnUse" x1="29.989677" x2="55.364677" xlink:href="#b" y1="45.766796" y2="45.766796"/><g stroke="#1f1a17" transform="matrix(.88963841 -.16235103 .16235103 .88963841 .632521 6.852484)"><path d="m20.598979 27.528386-14.0073056-9.812605 9.4236666-11.9099548 20.089052 12.5841038c3.359829 2.104651 5.245889 8.165002 3.071121 11.01109-2.01284 2.634176-6.336052 4.927633-9.812605 2.996215z" fill="#1f1a17" stroke-width="1.872422"/><g fill="#ffe680"><path d="m12.658898 22.245762 10.169492-12.6588978s1.215432-.7616529 1.747881-.4766949c.639924.342477.688559 2.0656777.688559 2.0656777l-10.169491 12.76483s-1.726503.81767-2.330509.317797c-.517574-.428342-.105932-2.012712-.105932-2.012712z" stroke-width="1.560352"/><path d="m3.5726054 15.914934 9.6398306-11.9173736s1.480263-1.1324157 2.012712-.8474577c.639924.342477.790192 2.6557235.790192 2.6557235l-9.4236666 11.9099548s-2.30913.711738-2.913136.211865c-.517574-.428342-.105932-2.012712-.105932-2.012712z" stroke-width="1.693289"/></g></g><path d="m21.590698 33.741618 2.202811-8.650492c.995427-3.909066 11.466536-3.745608 12.470169 0l2.339932 8.732741v3.958562h-17.070452z" fill="#1f1a17" stroke="#1f1a17" stroke-linejoin="round" stroke-width="1.693289"/><g transform="translate(-12.586112 -4.358049)"><path d="m46.087678 40.693797h4.216v-3.395h6.796v9.295l-5.5 4.243h-17.81l-5.508-4.243v-9.295h6.774v3.395h4.242v-3.395h6.79z" fill="#1f1a17"/><path d="m42.689678 44.513797h-12.7v1.143l1.812 1.363h21.802l1.761-1.363v-1.143z" fill="url(#c)"/></g><path d="m106.4043 79.591797c-9.346101-.06659-18.688431 2.985376-20.31055 9.355469l-7.179688 28.193354-.1875 13.16993h15.76286l.160342-13.5883 23.695976-.0361-.0349 13.62441h3.3841 12.66639v-12.90236l-7.625-28.460934c-1.63549-6.103727-10.98594-9.288878-20.33203-9.355469zm.0273 4.974609c7.51314.05353 15.02901 2.612869 16.34375 7.519532l5.00478 18.749942-42.695426-.21484 5.018812-18.535102c1.303989-5.120789 8.814985-7.573063 16.328124-7.519532z" fill="url(#a)" transform="scale(.28221482)"/></svg>