<svg height="92" width="92" xmlns="http://www.w3.org/2000/svg" xmlns:xlink="http://www.w3.org/1999/xlink"><filter id="a" color-interpolation-filters="sRGB"><feFlood flood-opacity=".498039" result="flood"/><feComposite in="flood" in2="SourceGraphic" operator="in" result="composite1"/><feGaussianBlur in="composite1" result="blur" stdDeviation="1"/><feOffset dx="0" dy="4" result="offset"/><feComposite in="SourceGraphic" in2="offset" operator="over" result="composite2"/></filter><linearGradient id="b" gradientUnits="userSpaceOnUse" spreadMethod="pad" x1="324.01596" x2="330.45486" y1="636.04993" y2="604.45496"><stop offset="0" stop-color="#e5e6e9"/><stop offset="1" stop-color="#f8fbfd"/></linearGradient><filter id="c" color-interpolation-filters="sRGB"><feFlood flood-color="#d3d6dd" flood-opacity=".498039" result="flood"/><feComposite in="flood" in2="SourceGraphic" operator="in" result="composite1"/><feGaussianBlur in="composite1" result="blur" stdDeviation=".5"/><feOffset dx="0" dy="1" result="offset"/><feComposite in="SourceGraphic" in2="offset" operator="over" result="composite2"/></filter><filter id="d" color-interpolation-filters="sRGB"><feFlood flood-opacity=".498039" result="flood"/><feComposite in="flood" in2="SourceGraphic" operator="in" result="composite1"/><feGaussianBlur in="composite1" result="blur" stdDeviation="1"/><feOffset dx="1.9" dy="4" result="offset"/><feComposite in="SourceGraphic" in2="offset" operator="over" result="composite2"/></filter><filter id="e" color-interpolation-filters="sRGB"><feFlood flood-opacity=".498039" result="flood"/><feComposite in="flood" in2="SourceGraphic" operator="out" result="composite1"/><feGaussianBlur in="composite1" result="blur" stdDeviation="1"/><feOffset dx="0" dy="1.5" result="offset"/><feComposite in="offset" in2="SourceGraphic" operator="atop" result="composite2"/></filter><g><g transform="matrix(.92134831 0 0 .92134831 3.27597350733 6.0659838754)"><path d="m289.651 594.574 20.122-20.123h28.459l20.127 20.123v28.463l-.064.065-20.063 20.058h-28.377-.082l-20.122-20.123z" fill="url(#b)" filter="url(#d)" stroke="#f6f9fb" stroke-opacity=".996078" stroke-width="2.439709" transform="matrix(1.0406257 0 0 1.0106842 -290.86517 -573.58171)"/><g fill="#b9abab" filter="url(#a)" transform="matrix(.89519543 0 0 .89519543 5.119685 4.835619)"><path d="m358.295 623.102.004.003v6.309l.043.043-19.881 19.877h-.229v-6.088-.086z" fill="#877a7a" fill-opacity=".968627" transform="matrix(1.2582555 -.01787195 .0164438 1.147024 -373.7306 -650.44484)"/><path d="m309.867 649.406h-.012v-.144-6.016-.086h28.377v.086 6.088.072h-.056z" fill="#9a8d8d" transform="matrix(1.1666454 0 0 1.1368627 -332.02449 -649.97198)"/><path d="m309.727 649.262-20.076-20.076v-6.149l20.122 20.123h.082v.086 6.016z" fill="#b9abab" transform="matrix(1.2329472 0 0 1.1618787 -352.46822 -666.04755)"/></g><g fill="none"><path d="m358.359 594.574v28.463l-.064.065-20.063 20.058h-28.377-.082l-20.122-20.123v-28.463l20.122-20.123h28.459z" transform="matrix(1.0401085 0 0 1.0401085 -290.69762 -590.4668)"/><path d="m289.651 623.037v6.149.156" transform="matrix(1.0401085 0 0 1.0401085 -290.69762 -590.4668)"/><path d="m309.855 643.246v6.016.144.143" transform="matrix(1.0401085 0 0 1.0401085 -290.69762 -590.4668)"/><path d="m338.232 643.246v6.088.072.143" transform="matrix(1.0401085 0 0 1.0401085 -290.69762 -590.4668)"/><path d="m81.972214 57.629997v6.562065"/><path d="m289.589 629.125.062.061 20.076 20.076" transform="matrix(1.0401085 0 0 1.0401085 -290.69762 -590.4668)"/><path d="m338.461 649.334 19.881-19.877.068-.072" transform="matrix(1.0401085 0 0 1.0401085 -290.69762 -590.4668)"/><path d="m31.597679 84.985924h29.444424"/><path d="m7.9303813 25.454918 21.7132037-21.225766 32.194805.073223 22.584524 21.225766" filter="url(#c)" stroke="#dadde2" transform="matrix(.89519543 0 0 .89519543 5.119685 4.835619)"/><path d="m12.449098 27.299429-.223799 28.310556" stroke="#e6e6e6" stroke-width=".895195"/><path d="m80.548535 27.417774-.223799 28.310556" stroke="#e6e6e6" stroke-width=".895195"/></g></g><g fill="#112d94" filter="url(#e)" transform="matrix(1.5343938 0 0 1.5343938 73.281618 -41.300865)"><path d="m41.119141 17.173828c-.877281 2.130268-2.132735 4.574927-1.613282 6.433594-.990512-.463415-1.982143.301276-2.972656.779297-6.402146 10.625764-5.940556 10.039686-11.884765 14.888672-.633307 1.66405-1.016854 3.011198.08984 5.49414.511466.675447 2.711738 1.721091 4.609375 2.119141 1.268614-.901305 2.396319-1.944402 3.259766-3.087891l1.138672.859375c-.976014 1.292563-2.233494 2.47668-3.675782 3.482422-.0463.07584-.105397.172548-.109374.228516.888153.900466 1.302879.540407 2.25.810547 2.529064-2.717881 5.004332-5.107454 7.294921-6.394532 3.001551-1.504327 6.002356-.865181 9.003907-1.080078 2.23457.33304 3.665751-1.24354 3.80664-1.261719-1.079292 1.699473-1.85782 3.741887-4.796875 5.673829-1.813024-.436793-2.828325-.275668-3.691406 0-6.492373 4.955559-8.851654 13.805031-8.824219 17.378906 8.759213 3.422899 17.958611 1.776231 27.19336-.269531-2.453496-1.891951-2.38391-4.098834-3.060547-6.212891-.603615-5.168328.592245-5.265368 1.349609-10.085937.53601-9.615521-.664599-17.82746-8.478516-22.910157-1.405489-.617432-4.267283-.530648-5.75-.453125.01245-.285336.0059-.561893-.01367-.832031.905188-.102804 2.143381-.356078 2.800781-.294922 12.047465 2.870431 12.995517 13.224664 12.716797 24.253906-1.740748 7.527807-3.453711 13.226107 3.263672 15.183594.199485-2.446338-1.206674-5.249528-.634766-8.462891 2.667826-14.989634 2.18794-36.828817-19.318359-34.998046-.11342-.336583-.231037-.670215-.324219-1.021485-.01031-.01005-1.571839 2.249-1.802735 3.570313-.335114-1.416464-1.123396-2.373137-1.826171-3.791016zm.169921 11.740234c.317042-.0099.659579-.0084 1.033204.0039l-.02539.767578-.02539.767578c-.344101-.01135-.652555-.01183-.929687-.002l-.402344.322266a1.4858844 1.5549473 0 0 1 .0332.03711 1.4858844 1.5549473 0 0 1 .06836.08008 1.4858844 1.5549473 0 0 1 .06055.08398 1.4858844 1.5549473 0 0 1 .05664.08789 1.4858844 1.5549473 0 0 1 .04883.09375 1.4858844 1.5549473 0 0 1 .04297.09375 1.4858844 1.5549473 0 0 1 .03906.09961 1.4858844 1.5549473 0 0 1 .0293.101563 1.4858844 1.5549473 0 0 1 .02539.101562 1.4858844 1.5549473 0 0 1 .01758.105469 1.4858844 1.5549473 0 0 1 .0098.105469 1.4858844 1.5549473 0 0 1 .0039.105469 1.4858844 1.5549473 0 0 1 0 .0039 1.4858844 1.5549473 0 0 1 -.0039.105469 1.4858844 1.5549473 0 0 1 -.0098.105468 1.4858844 1.5549473 0 0 1 -.01758.105469 1.4858844 1.5549473 0 0 1 -.02539.101563 1.4858844 1.5549473 0 0 1 -.0293.101562 1.4858844 1.5549473 0 0 1 -.03906.09961 1.4858844 1.5549473 0 0 1 -.04297.0957 1.4858844 1.5549473 0 0 1 -.05078.0918 1.4858844 1.5549473 0 0 1 -.05469.08789 1.4858844 1.5549473 0 0 1 -.06055.08398 1.4858844 1.5549473 0 0 1 -.06836.08008 1.4858844 1.5549473 0 0 1 -.07031.07617 1.4858844 1.5549473 0 0 1 -.07617.06836 1.4858844 1.5549473 0 0 1 -.08203.06445 1.4858844 1.5549473 0 0 1 -.08398.05859 1.4858844 1.5549473 0 0 1 -.08789.05078 1.4858844 1.5549473 0 0 1 -.0918.04492 1.4858844 1.5549473 0 0 1 -.0957.03906 1.4858844 1.5549473 0 0 1 -.0957.0332 1.4858844 1.5549473 0 0 1 -.09766.02344 1.4858844 1.5549473 0 0 1 -.101562.01953 1.4858844 1.5549473 0 0 1 -.09961.0098 1.4858844 1.5549473 0 0 1 -.101562.0039 1.4858844 1.5549473 0 0 1 -.02734 0 1.4858844 1.5549473 0 0 1 -.101562-.0059 1.4858844 1.5549473 0 0 1 -.101563-.01367 1.4858844 1.5549473 0 0 1 -.09961-.01953 1.4858844 1.5549473 0 0 1 -.09766-.02734 1.4858844 1.5549473 0 0 1 -.0957-.0332 1.4858844 1.5549473 0 0 1 -.09375-.04102 1.4858844 1.5549473 0 0 1 -.08984-.04687 1.4858844 1.5549473 0 0 1 -.08789-.05273 1.4858844 1.5549473 0 0 1 -.08398-.06055 1.4858844 1.5549473 0 0 1 -.07813-.06641 1.4858844 1.5549473 0 0 1 -.07617-.07031 1.4858844 1.5549473 0 0 1 -.07031-.07617c-.126513.414961-.354721.858666-.78125 1.201172l-.478515-.597656-.480469-.59961c.214448-.172205.273778-.337567.333984-.693359.0602-.355792.05778-.853556.248047-1.417969.19027-.564413.663692-1.164464 1.425781-1.486328.571567-.241397 1.28521-.372609 2.236328-.402344z" fill="#11911c" transform="matrix(.65172318 0 0 .65172318 -48.46171 29.067301)"/></g></g></svg>