<?xml version="1.0" encoding="UTF-8" standalone="no"?>
<svg
   xmlns:dc="http://purl.org/dc/elements/1.1/"
   xmlns:cc="http://creativecommons.org/ns#"
   xmlns:rdf="http://www.w3.org/1999/02/22-rdf-syntax-ns#"
   xmlns:svg="http://www.w3.org/2000/svg"
   xmlns="http://www.w3.org/2000/svg"
   xmlns:xlink="http://www.w3.org/1999/xlink"
   xmlns:sodipodi="http://sodipodi.sourceforge.net/DTD/sodipodi-0.dtd"
   xmlns:inkscape="http://www.inkscape.org/namespaces/inkscape"
   width="92"
   height="92"
   id="svg2"
   version="1.1"
   inkscape:version="1.0 (4035a4fb49, 2020-05-01)"
   sodipodi:docname="blue_horse.svg">
  <metadata
     id="metadata12">
    <rdf:RDF>
      <cc:Work
         rdf:about="">
        <dc:format>image/svg+xml</dc:format>
        <dc:type
           rdf:resource="http://purl.org/dc/dcmitype/StillImage" />
        <dc:title></dc:title>
      </cc:Work>
    </rdf:RDF>
  </metadata>
  <defs
     id="defs10">
    <linearGradient
       inkscape:collect="always"
       id="linearGradient3671">
      <stop
         style="stop-color:#e5e6e9;stop-opacity:1"
         offset="0"
         id="stop3667" />
      <stop
         style="stop-color:#f8fbfd;stop-opacity:1"
         offset="1"
         id="stop3669" />
    </linearGradient>
    <filter
       height="1.5"
       width="1.5"
       y="0"
       x="0"
       id="f1"
       color-interpolation-filters="sRGB">
      <feOffset
         id="feOffset3039"
         dy="0"
         dx="1"
         in="SourceAlpha"
         result="offOut" />
      <feGaussianBlur
         id="feGaussianBlur3041"
         stdDeviation="1"
         in="offOut"
         result="blurOut" />
      <!--
      <feBlend in="SourceGraphic" in2="blurOut" mode="normal" />
-->
    </filter>
    <linearGradient
       y2="1"
       x2="0"
       y1="0"
       x1="0"
       id="grad1">
      <stop
         id="stop3034"
         style="stop-color:rgb(255,255,255);stop-opacity:0.6"
         offset="20%" />
      <stop
         id="stop3036"
         style="stop-color:rgb(220,0,0);stop-opacity:0.5"
         offset="50%" />
    </linearGradient>
    <linearGradient
       y2="1"
       x2="0"
       y1="0"
       x1="0"
       id="grad0">
      <stop
         id="stop3029"
         style="stop-color:rgb(0,0,0);stop-opacity:0.3"
         offset="20%" />
      <stop
         id="stop3031"
         style="stop-color:rgb(0,0,0);stop-opacity:0.6"
         offset="100%" />
    </linearGradient>
    <inkscape:path-effect
       effect="mirror_symmetry"
       start_point="274.21267,350.55066"
       end_point="273.50284,477.30227"
       center_point="273.85776,413.92646"
       id="path-effect4557-0-4"
       is_visible="true"
       mode="free"
       discard_orig_path="false"
       fuse_paths="true"
       oposite_fuse="false" />
    <filter
       style="color-interpolation-filters:sRGB;"
       inkscape:label="Drop Shadow"
       id="filter18479">
      <feFlood
         flood-opacity="1"
         flood-color="rgb(91,93,90)"
         result="flood"
         id="feFlood18469" />
      <feComposite
         in="flood"
         in2="SourceGraphic"
         operator="in"
         result="composite1"
         id="feComposite18471" />
      <feGaussianBlur
         in="composite1"
         stdDeviation="0"
         result="blur"
         id="feGaussianBlur18473" />
      <feOffset
         dx="0"
         dy="4"
         result="offset"
         id="feOffset18475" />
      <feComposite
         in="SourceGraphic"
         in2="offset"
         operator="over"
         result="composite2"
         id="feComposite18477" />
    </filter>
    <filter
       style="color-interpolation-filters:sRGB"
       inkscape:label="Drop Shadow"
       id="filter18479-1">
      <feFlood
         flood-opacity="1"
         flood-color="rgb(91,93,90)"
         result="flood"
         id="feFlood18469-6" />
      <feComposite
         in="flood"
         in2="SourceGraphic"
         operator="in"
         result="composite1"
         id="feComposite18471-2" />
      <feGaussianBlur
         in="composite1"
         stdDeviation="0"
         result="blur"
         id="feGaussianBlur18473-4" />
      <feOffset
         dx="0"
         dy="4"
         result="offset"
         id="feOffset18475-8" />
      <feComposite
         in="SourceGraphic"
         in2="offset"
         operator="over"
         result="composite2"
         id="feComposite18477-8" />
    </filter>
    <filter
       style="color-interpolation-filters:sRGB;"
       inkscape:label="Drop Shadow"
       id="filter3592">
      <feFlood
         flood-opacity="0.498039"
         flood-color="rgb(0,0,0)"
         result="flood"
         id="feFlood3582" />
      <feComposite
         in="flood"
         in2="SourceGraphic"
         operator="in"
         result="composite1"
         id="feComposite3584" />
      <feGaussianBlur
         in="composite1"
         stdDeviation="1"
         result="blur"
         id="feGaussianBlur3586" />
      <feOffset
         dx="-1.38778e-16"
         dy="4"
         result="offset"
         id="feOffset3588" />
      <feComposite
         in="SourceGraphic"
         in2="offset"
         operator="over"
         result="composite2"
         id="feComposite3590" />
    </filter>
    <linearGradient
       inkscape:collect="always"
       xlink:href="#linearGradient3671"
       id="linearGradient3673"
       x1="324.01596"
       y1="636.04993"
       x2="330.45486"
       y2="604.45496"
       gradientUnits="userSpaceOnUse"
       spreadMethod="pad" />
    <filter
       style="color-interpolation-filters:sRGB;"
       inkscape:label="Drop Shadow"
       id="filter3858">
      <feFlood
         flood-opacity="0.498039"
         flood-color="rgb(211,214,221)"
         result="flood"
         id="feFlood3848" />
      <feComposite
         in="flood"
         in2="SourceGraphic"
         operator="in"
         result="composite1"
         id="feComposite3850" />
      <feGaussianBlur
         in="composite1"
         stdDeviation="0.5"
         result="blur"
         id="feGaussianBlur3852" />
      <feOffset
         dx="-1.38778e-16"
         dy="1"
         result="offset"
         id="feOffset3854" />
      <feComposite
         in="SourceGraphic"
         in2="offset"
         operator="over"
         result="composite2"
         id="feComposite3856" />
    </filter>
    <filter
       style="color-interpolation-filters:sRGB;"
       inkscape:label="Drop Shadow"
       id="filter4473">
      <feFlood
         flood-opacity="0.498039"
         flood-color="rgb(0,0,0)"
         result="flood"
         id="feFlood4463" />
      <feComposite
         in="flood"
         in2="SourceGraphic"
         operator="in"
         result="composite1"
         id="feComposite4465" />
      <feGaussianBlur
         in="composite1"
         stdDeviation="1"
         result="blur"
         id="feGaussianBlur4467" />
      <feOffset
         dx="1.9"
         dy="4"
         result="offset"
         id="feOffset4469" />
      <feComposite
         in="SourceGraphic"
         in2="offset"
         operator="over"
         result="composite2"
         id="feComposite4471" />
    </filter>
    <filter
       style="color-interpolation-filters:sRGB;"
       inkscape:label="Drop Shadow"
       id="filter5784">
      <feFlood
         flood-opacity="0.498039"
         flood-color="rgb(0,0,0)"
         result="flood"
         id="feFlood5774" />
      <feComposite
         in="flood"
         in2="SourceGraphic"
         operator="out"
         result="composite1"
         id="feComposite5776" />
      <feGaussianBlur
         in="composite1"
         stdDeviation="2"
         result="blur"
         id="feGaussianBlur5778" />
      <feOffset
         dx="-6.38378e-16"
         dy="-2.41474e-15"
         result="offset"
         id="feOffset5780" />
      <feComposite
         in="offset"
         in2="SourceGraphic"
         operator="atop"
         result="composite2"
         id="feComposite5782" />
    </filter>
    <filter
       style="color-interpolation-filters:sRGB;"
       inkscape:label="Drop Shadow"
       id="filter5909">
      <feFlood
         flood-opacity="0.498039"
         flood-color="rgb(0,0,0)"
         result="flood"
         id="feFlood5899" />
      <feComposite
         in="flood"
         in2="SourceGraphic"
         operator="out"
         result="composite1"
         id="feComposite5901" />
      <feGaussianBlur
         in="composite1"
         stdDeviation="2"
         result="blur"
         id="feGaussianBlur5903" />
      <feOffset
         dx="-6.38378e-16"
         dy="-2.41474e-15"
         result="offset"
         id="feOffset5905" />
      <feComposite
         in="offset"
         in2="SourceGraphic"
         operator="atop"
         result="composite2"
         id="feComposite5907" />
    </filter>
    <filter
       style="color-interpolation-filters:sRGB;"
       inkscape:label="Drop Shadow"
       id="filter6983">
      <feFlood
         flood-opacity="0.498039"
         flood-color="rgb(0,0,0)"
         result="flood"
         id="feFlood6973" />
      <feComposite
         in="flood"
         in2="SourceGraphic"
         operator="out"
         result="composite1"
         id="feComposite6975" />
      <feGaussianBlur
         in="composite1"
         stdDeviation="1"
         result="blur"
         id="feGaussianBlur6977" />
      <feOffset
         dx="-6.38378e-16"
         dy="1.8"
         result="offset"
         id="feOffset6979" />
      <feComposite
         in="offset"
         in2="SourceGraphic"
         operator="atop"
         result="composite2"
         id="feComposite6981" />
    </filter>
    <filter
       style="color-interpolation-filters:sRGB;"
       inkscape:label="Drop Shadow"
       id="filter7360">
      <feFlood
         flood-opacity="0.498039"
         flood-color="rgb(0,0,0)"
         result="flood"
         id="feFlood7350" />
      <feComposite
         in="flood"
         in2="SourceGraphic"
         operator="out"
         result="composite1"
         id="feComposite7352" />
      <feGaussianBlur
         in="composite1"
         stdDeviation="1"
         result="blur"
         id="feGaussianBlur7354" />
      <feOffset
         dx="-6.38378e-16"
         dy="1"
         result="offset"
         id="feOffset7356" />
      <feComposite
         in="offset"
         in2="SourceGraphic"
         operator="atop"
         result="composite2"
         id="feComposite7358" />
    </filter>
    <filter
       style="color-interpolation-filters:sRGB;"
       inkscape:label="Drop Shadow"
       id="filter2469">
      <feFlood
         flood-opacity="0.498039"
         flood-color="rgb(0,0,0)"
         result="flood"
         id="feFlood2459" />
      <feComposite
         in="flood"
         in2="SourceGraphic"
         operator="out"
         result="composite1"
         id="feComposite2461" />
      <feGaussianBlur
         in="composite1"
         stdDeviation="1"
         result="blur"
         id="feGaussianBlur2463" />
      <feOffset
         dx="-6.38378e-16"
         dy="0.8"
         result="offset"
         id="feOffset2465" />
      <feComposite
         in="offset"
         in2="SourceGraphic"
         operator="atop"
         result="composite2"
         id="feComposite2467" />
    </filter>
    <filter
       style="color-interpolation-filters:sRGB;"
       inkscape:label="Drop Shadow"
       id="filter2740">
      <feFlood
         flood-opacity="0.498039"
         flood-color="rgb(0,0,0)"
         result="flood"
         id="feFlood2730" />
      <feComposite
         in="flood"
         in2="SourceGraphic"
         operator="out"
         result="composite1"
         id="feComposite2732" />
      <feGaussianBlur
         in="composite1"
         stdDeviation="1"
         result="blur"
         id="feGaussianBlur2734" />
      <feOffset
         dx="-6.38378e-16"
         dy="0.8"
         result="offset"
         id="feOffset2736" />
      <feComposite
         in="offset"
         in2="SourceGraphic"
         operator="atop"
         result="composite2"
         id="feComposite2738" />
    </filter>
    <filter
       style="color-interpolation-filters:sRGB"
       inkscape:label="Drop Shadow"
       id="filter6830">
      <feFlood
         flood-opacity="0.498039"
         flood-color="rgb(0,0,0)"
         result="flood"
         id="feFlood6820" />
      <feComposite
         in="flood"
         in2="SourceGraphic"
         operator="out"
         result="composite1"
         id="feComposite6822" />
      <feGaussianBlur
         in="composite1"
         stdDeviation="1"
         result="blur"
         id="feGaussianBlur6824" />
      <feOffset
         dx="0"
         dy="1.5"
         result="offset"
         id="feOffset6826" />
      <feComposite
         in="offset"
         in2="SourceGraphic"
         operator="atop"
         result="composite2"
         id="feComposite6828" />
    </filter>
  </defs>
  <sodipodi:namedview
     pagecolor="#ffffff"
     bordercolor="#666666"
     borderopacity="1"
     objecttolerance="10"
     gridtolerance="10"
     guidetolerance="10"
     inkscape:pageopacity="0"
     inkscape:pageshadow="2"
     inkscape:window-width="1920"
     inkscape:window-height="1017"
     id="namedview8"
     showgrid="false"
     inkscape:zoom="11.313708"
     inkscape:cx="54.04828"
     inkscape:cy="51.500986"
     inkscape:window-x="-8"
     inkscape:window-y="-8"
     inkscape:window-maximized="1"
     inkscape:current-layer="layer1"
     fit-margin-top="0"
     fit-margin-left="0"
     fit-margin-right="0"
     fit-margin-bottom="0"
     inkscape:pagecheckerboard="true"
     showguides="false"
     inkscape:snap-global="false"
     inkscape:document-rotation="0" />
  <g
     inkscape:groupmode="layer"
     id="layer1"
     inkscape:label="Background"
     style="display:inline">
    <g
       transform="translate(-122.64769,-947.92267)"
       style="font-style:normal;font-weight:normal;font-size:40px;line-height:125%;font-family:Sans;letter-spacing:0px;word-spacing:0px;fill:#b40000;fill-opacity:1;stroke:none"
       id="text2985-2" />
    <g
       id="g34055"
       transform="matrix(0.92134831,0,0,0.92134831,3.6179777,3.6179777)">
      <g
         transform="translate(-0.3712002,2.6569817)"
         id="g7021">
        <polygon
           id="polygon3242"
           points="289.651,594.574 309.773,574.451 338.232,574.451 358.359,594.574 358.359,623.037 358.295,623.102 338.232,643.16 309.855,643.16 309.773,643.16 289.651,623.037 "
           style="fill:url(#linearGradient3673);fill-opacity:1;stroke:#f6f9fb;stroke-width:2.43970871;stroke-opacity:0.99607843;filter:url(#filter4473)"
           transform="matrix(1.0406257,0,0,1.0106842,-290.86517,-573.58171)" />
        <g
           id="g2351"
           style="fill:#b9abab;fill-opacity:1"
           transform="matrix(0.89519543,0,0,0.89519543,5.1196852,4.8356187)">
          <g
             id="g2776"
             style="filter:url(#filter3592)">
            <polygon
               transform="matrix(1.2582555,-0.01787195,0.0164438,1.147024,-373.7306,-650.44484)"
               id="polygon3244"
               points="358.295,623.102 358.299,623.105 358.299,629.414 358.342,629.457 338.461,649.334 338.232,649.334 338.232,643.246 338.232,643.16 "
               style="fill:#877a7a;fill-opacity:0.96862745;stroke:none" />
            <polygon
               id="polygon3246"
               points="309.867,649.406 309.855,649.406 309.855,649.262 309.855,643.246 309.855,643.16 338.232,643.16 338.232,643.246 338.232,649.334 338.232,649.406 338.176,649.406 "
               style="fill:#9a8d8d;fill-opacity:1;stroke:none"
               transform="matrix(1.1666454,0,0,1.1368627,-332.02449,-649.97198)" />
            <polygon
               transform="matrix(1.2329472,0,0,1.1618787,-352.46822,-666.04755)"
               id="polygon3248"
               points="309.727,649.262 289.651,629.186 289.651,623.037 309.773,643.16 309.855,643.16 309.855,643.246 309.855,649.262 "
               style="fill:#b9abab;fill-opacity:1;stroke:none" />
          </g>
        </g>
        <polygon
           id="polygon3252"
           points="358.359,594.574 358.359,623.037 358.295,623.102 338.232,643.16 309.855,643.16 309.773,643.16 289.651,623.037 289.651,594.574 309.773,574.451 338.232,574.451 "
           style="fill:none;stroke:none;stroke-width:0.25"
           transform="matrix(1.0401085,0,0,1.0401085,-290.69762,-590.4668)" />
        <polyline
           id="polyline3254"
           points="289.651,623.037 289.651,629.186 289.651,629.342    "
           style="fill:none;stroke:none;stroke-width:0.25"
           transform="matrix(1.0401085,0,0,1.0401085,-290.69762,-590.4668)" />
        <polyline
           id="polyline3256"
           points="309.855,643.246 309.855,649.262 309.855,649.406      309.855,649.549    "
           style="fill:none;stroke:none;stroke-width:0.25"
           transform="matrix(1.0401085,0,0,1.0401085,-290.69762,-590.4668)" />
        <polyline
           id="polyline3258"
           points="338.232,643.246 338.232,649.334 338.232,649.406      338.232,649.549    "
           style="fill:none;stroke:none;stroke-width:0.25"
           transform="matrix(1.0401085,0,0,1.0401085,-290.69762,-590.4668)" />
        <line
           id="line3260"
           y2="64.192062"
           x2="81.972214"
           y1="57.629997"
           x1="81.972214"
           style="fill:none;stroke:none;stroke-width:0.26002711;stroke-miterlimit:4;stroke-dasharray:none" />
        <polyline
           id="polyline3262"
           points="289.589,629.125 289.651,629.186 309.727,649.262    "
           style="fill:none;stroke:none;stroke-width:0.25;stroke-miterlimit:4;stroke-dasharray:none"
           transform="matrix(1.0401085,0,0,1.0401085,-290.69762,-590.4668)" />
        <polyline
           id="polyline3264"
           points="338.461,649.334 358.342,629.457 358.41,629.385    "
           style="fill:none;stroke:none;stroke-width:0.25;stroke-miterlimit:4;stroke-dasharray:none"
           transform="matrix(1.0401085,0,0,1.0401085,-290.69762,-590.4668)" />
        <line
           id="line3266"
           y2="84.985924"
           x2="61.042103"
           y1="84.985924"
           x1="31.597679"
           style="fill:none;stroke:none;stroke-width:0.26002711;stroke-miterlimit:4;stroke-dasharray:none" />
        <path
           style="display:inline;fill:none;fill-opacity:0;fill-rule:evenodd;stroke:#dadde2;stroke-width:1px;stroke-linecap:butt;stroke-linejoin:miter;stroke-opacity:1;filter:url(#filter3858)"
           d="M 7.9303813,25.454918 29.643585,4.229152 61.83839,4.302375 84.422914,25.528141"
           id="path3703-3"
           inkscape:connector-curvature="0"
           sodipodi:nodetypes="cccc"
           transform="matrix(0.89519543,0,0,0.89519543,5.1196852,4.8356187)" />
        <path
           style="fill:none;fill-rule:evenodd;stroke:#e6e6e6;stroke-width:0.89519542px;stroke-linecap:butt;stroke-linejoin:miter;stroke-opacity:1"
           d="M 12.449098,27.299429 12.225299,55.609985"
           id="path4475"
           inkscape:connector-curvature="0" />
        <path
           style="display:inline;fill:none;fill-rule:evenodd;stroke:#e6e6e6;stroke-width:0.89519542px;stroke-linecap:butt;stroke-linejoin:miter;stroke-opacity:1"
           d="M 80.548535,27.417774 80.324736,55.72833"
           id="path4475-2"
           inkscape:connector-curvature="0" />
      </g>
    </g>
    <g
       transform="matrix(1.5343938,0,0,1.5343938,73.281618,-41.300865)"
       id="g4496"
       style="display:inline;fill:#112d94;fill-opacity:1;filter:url(#filter6830)">
      <path
         id="path10969"
         style="fill:#11911c;fill-opacity:1;stroke:none;stroke-width:0.306499;stroke-linecap:butt;stroke-linejoin:miter;stroke-miterlimit:4;stroke-dasharray:none;stroke-opacity:1"
         d="m 41.119141,17.173828 c -0.877281,2.130268 -2.132735,4.574927 -1.613282,6.433594 -0.990512,-0.463415 -1.982143,0.301276 -2.972656,0.779297 -6.402146,10.625764 -5.940556,10.039686 -11.884765,14.888672 -0.633307,1.66405 -1.016854,3.011198 0.08984,5.49414 0.511466,0.675447 2.711738,1.721091 4.609375,2.119141 1.268614,-0.901305 2.396319,-1.944402 3.259766,-3.087891 l 1.138672,0.859375 c -0.976014,1.292563 -2.233494,2.47668 -3.675782,3.482422 -0.0463,0.07584 -0.105397,0.172548 -0.109374,0.228516 0.888153,0.900466 1.302879,0.540407 2.25,0.810547 2.529064,-2.717881 5.004332,-5.107454 7.294921,-6.394532 3.001551,-1.504327 6.002356,-0.865181 9.003907,-1.080078 2.23457,0.33304 3.665751,-1.24354 3.80664,-1.261719 -1.079292,1.699473 -1.85782,3.741887 -4.796875,5.673829 -1.813024,-0.436793 -2.828325,-0.275668 -3.691406,0 -6.492373,4.955559 -8.851654,13.805031 -8.824219,17.378906 8.759213,3.422899 17.958611,1.776231 27.19336,-0.269531 -2.453496,-1.891951 -2.38391,-4.098834 -3.060547,-6.212891 -0.603615,-5.168328 0.592245,-5.265368 1.349609,-10.085937 0.53601,-9.615521 -0.664599,-17.82746 -8.478516,-22.910157 -1.405489,-0.617432 -4.267283,-0.530648 -5.75,-0.453125 0.01245,-0.285336 0.0059,-0.561893 -0.01367,-0.832031 0.905188,-0.102804 2.143381,-0.356078 2.800781,-0.294922 12.047465,2.870431 12.995517,13.224664 12.716797,24.253906 -1.740748,7.527807 -3.453711,13.226107 3.263672,15.183594 0.199485,-2.446338 -1.206674,-5.249528 -0.634766,-8.462891 2.667826,-14.989634 2.18794,-36.828817 -19.318359,-34.998046 -0.11342,-0.336583 -0.231037,-0.670215 -0.324219,-1.021485 -0.01031,-0.01005 -1.571839,2.249 -1.802735,3.570313 -0.335114,-1.416464 -1.123396,-2.373137 -1.826171,-3.791016 z m 0.169921,11.740234 c 0.317042,-0.0099 0.659579,-0.0084 1.033204,0.0039 l -0.02539,0.767578 -0.02539,0.767578 c -0.344101,-0.01135 -0.652555,-0.01183 -0.929687,-0.002 l -0.402344,0.322266 a 1.4858844,1.5549473 0 0 1 0.0332,0.03711 1.4858844,1.5549473 0 0 1 0.06836,0.08008 1.4858844,1.5549473 0 0 1 0.06055,0.08398 1.4858844,1.5549473 0 0 1 0.05664,0.08789 1.4858844,1.5549473 0 0 1 0.04883,0.09375 1.4858844,1.5549473 0 0 1 0.04297,0.09375 1.4858844,1.5549473 0 0 1 0.03906,0.09961 1.4858844,1.5549473 0 0 1 0.0293,0.101563 1.4858844,1.5549473 0 0 1 0.02539,0.101562 1.4858844,1.5549473 0 0 1 0.01758,0.105469 1.4858844,1.5549473 0 0 1 0.0098,0.105469 1.4858844,1.5549473 0 0 1 0.0039,0.105469 1.4858844,1.5549473 0 0 1 0,0.0039 1.4858844,1.5549473 0 0 1 -0.0039,0.105469 1.4858844,1.5549473 0 0 1 -0.0098,0.105468 1.4858844,1.5549473 0 0 1 -0.01758,0.105469 1.4858844,1.5549473 0 0 1 -0.02539,0.101563 1.4858844,1.5549473 0 0 1 -0.0293,0.101562 1.4858844,1.5549473 0 0 1 -0.03906,0.09961 1.4858844,1.5549473 0 0 1 -0.04297,0.0957 1.4858844,1.5549473 0 0 1 -0.05078,0.0918 1.4858844,1.5549473 0 0 1 -0.05469,0.08789 1.4858844,1.5549473 0 0 1 -0.06055,0.08398 1.4858844,1.5549473 0 0 1 -0.06836,0.08008 1.4858844,1.5549473 0 0 1 -0.07031,0.07617 1.4858844,1.5549473 0 0 1 -0.07617,0.06836 1.4858844,1.5549473 0 0 1 -0.08203,0.06445 1.4858844,1.5549473 0 0 1 -0.08398,0.05859 1.4858844,1.5549473 0 0 1 -0.08789,0.05078 1.4858844,1.5549473 0 0 1 -0.0918,0.04492 1.4858844,1.5549473 0 0 1 -0.0957,0.03906 1.4858844,1.5549473 0 0 1 -0.0957,0.0332 1.4858844,1.5549473 0 0 1 -0.09766,0.02344 1.4858844,1.5549473 0 0 1 -0.101562,0.01953 1.4858844,1.5549473 0 0 1 -0.09961,0.0098 1.4858844,1.5549473 0 0 1 -0.101562,0.0039 1.4858844,1.5549473 0 0 1 -0.02734,0 1.4858844,1.5549473 0 0 1 -0.101562,-0.0059 1.4858844,1.5549473 0 0 1 -0.101563,-0.01367 1.4858844,1.5549473 0 0 1 -0.09961,-0.01953 1.4858844,1.5549473 0 0 1 -0.09766,-0.02734 1.4858844,1.5549473 0 0 1 -0.0957,-0.0332 1.4858844,1.5549473 0 0 1 -0.09375,-0.04102 1.4858844,1.5549473 0 0 1 -0.08984,-0.04687 1.4858844,1.5549473 0 0 1 -0.08789,-0.05273 1.4858844,1.5549473 0 0 1 -0.08398,-0.06055 1.4858844,1.5549473 0 0 1 -0.07813,-0.06641 1.4858844,1.5549473 0 0 1 -0.07617,-0.07031 1.4858844,1.5549473 0 0 1 -0.07031,-0.07617 c -0.126513,0.414961 -0.354721,0.858666 -0.78125,1.201172 l -0.478515,-0.597656 -0.480469,-0.59961 c 0.214448,-0.172205 0.273778,-0.337567 0.333984,-0.693359 0.0602,-0.355792 0.05778,-0.853556 0.248047,-1.417969 0.19027,-0.564413 0.663692,-1.164464 1.425781,-1.486328 0.571567,-0.241397 1.28521,-0.372609 2.236328,-0.402344 z"
         transform="matrix(0.65172318,0,0,0.65172318,-48.46171,29.067301)" />
      <g
         id="g10960"
         style="opacity:1;fill:#112d94;fill-opacity:1" />
    </g>
  </g>
  <g
     inkscape:groupmode="layer"
     id="layer2"
     inkscape:label="Symbol"
     style="display:inline" />
</svg>
