<svg height="92" width="92" xmlns="http://www.w3.org/2000/svg" xmlns:xlink="http://www.w3.org/1999/xlink"><filter id="a" color-interpolation-filters="sRGB"><feFlood flood-opacity=".498039" result="flood"/><feComposite in="flood" in2="SourceGraphic" operator="in" result="composite1"/><feGaussianBlur in="composite1" result="blur" stdDeviation="1"/><feOffset dx="0" dy="4" result="offset"/><feComposite in="SourceGraphic" in2="offset" operator="over" result="composite2"/></filter><linearGradient id="b" gradientUnits="userSpaceOnUse" spreadMethod="pad" x1="324.01596" x2="330.45486" y1="636.04993" y2="604.45496"><stop offset="0" stop-color="#e5e6e9"/><stop offset="1" stop-color="#f8fbfd"/></linearGradient><filter id="c" color-interpolation-filters="sRGB"><feFlood flood-color="#d3d6dd" flood-opacity=".498039" result="flood"/><feComposite in="flood" in2="SourceGraphic" operator="in" result="composite1"/><feGaussianBlur in="composite1" result="blur" stdDeviation=".5"/><feOffset dx="0" dy="1" result="offset"/><feComposite in="SourceGraphic" in2="offset" operator="over" result="composite2"/></filter><filter id="d" color-interpolation-filters="sRGB"><feFlood flood-opacity=".498039" result="flood"/><feComposite in="flood" in2="SourceGraphic" operator="in" result="composite1"/><feGaussianBlur in="composite1" result="blur" stdDeviation="1"/><feOffset dx="1.9" dy="4" result="offset"/><feComposite in="SourceGraphic" in2="offset" operator="over" result="composite2"/></filter><filter id="e" color-interpolation-filters="sRGB"><feFlood flood-opacity=".498039" result="flood"/><feComposite in="flood" in2="SourceGraphic" operator="out" result="composite1"/><feGaussianBlur in="composite1" result="blur" stdDeviation="1"/><feOffset dx="0" dy="1.5" result="offset"/><feComposite in="offset" in2="SourceGraphic" operator="atop" result="composite2"/></filter><g><g transform="matrix(.92134831 0 0 .92134831 3.27597350733 6.0659838754)"><path d="m289.651 594.574 20.122-20.123h28.459l20.127 20.123v28.463l-.064.065-20.063 20.058h-28.377-.082l-20.122-20.123z" fill="url(#b)" filter="url(#d)" stroke="#f6f9fb" stroke-opacity=".996078" stroke-width="2.439709" transform="matrix(1.0406257 0 0 1.0106842 -290.86517 -573.58171)"/><g fill="#b9abab" filter="url(#a)" transform="matrix(.89519543 0 0 .89519543 5.119685 4.835619)"><path d="m358.295 623.102.004.003v6.309l.043.043-19.881 19.877h-.229v-6.088-.086z" fill="#877a7a" fill-opacity=".968627" transform="matrix(1.2582555 -.01787195 .0164438 1.147024 -373.7306 -650.44484)"/><path d="m309.867 649.406h-.012v-.144-6.016-.086h28.377v.086 6.088.072h-.056z" fill="#9a8d8d" transform="matrix(1.1666454 0 0 1.1368627 -332.02449 -649.97198)"/><path d="m309.727 649.262-20.076-20.076v-6.149l20.122 20.123h.082v.086 6.016z" fill="#b9abab" transform="matrix(1.2329472 0 0 1.1618787 -352.46822 -666.04755)"/></g><g fill="none"><path d="m358.359 594.574v28.463l-.064.065-20.063 20.058h-28.377-.082l-20.122-20.123v-28.463l20.122-20.123h28.459z" transform="matrix(1.0401085 0 0 1.0401085 -290.69762 -590.4668)"/><path d="m289.651 623.037v6.149.156" transform="matrix(1.0401085 0 0 1.0401085 -290.69762 -590.4668)"/><path d="m309.855 643.246v6.016.144.143" transform="matrix(1.0401085 0 0 1.0401085 -290.69762 -590.4668)"/><path d="m338.232 643.246v6.088.072.143" transform="matrix(1.0401085 0 0 1.0401085 -290.69762 -590.4668)"/><path d="m81.972214 57.629997v6.562065"/><path d="m289.589 629.125.062.061 20.076 20.076" transform="matrix(1.0401085 0 0 1.0401085 -290.69762 -590.4668)"/><path d="m338.461 649.334 19.881-19.877.068-.072" transform="matrix(1.0401085 0 0 1.0401085 -290.69762 -590.4668)"/><path d="m31.597679 84.985924h29.444424"/><path d="m7.9303813 25.454918 21.7132037-21.225766 32.194805.073223 22.584524 21.225766" filter="url(#c)" stroke="#dadde2" transform="matrix(.89519543 0 0 .89519543 5.119685 4.835619)"/><path d="m12.449098 27.299429-.223799 28.310556" stroke="#e6e6e6" stroke-width=".895195"/><path d="m80.548535 27.417774-.223799 28.310556" stroke="#e6e6e6" stroke-width=".895195"/></g></g><g fill="#11911c" filter="url(#e)" transform="matrix(1.1776506 0 0 1.1776506 -53.778664 4.229225)"><path d="m49.193359 25.318359c-4.233871.06198-7.450226 2.188991-10.132812 5.402344-3.054284 3.109914-5.17778 7.000787-6.242188 11.777344-1.055716 1.941697-1.93648 2.285634-2.826171 2.708984-2.696563-.754535-3.577666-1.916029-2.94336-3.416015.415228-2.130358 4.107318-3.946126 6.476563-5.888672 1.881461-3.118857 2.762763-6.116979-.707032-8.595703-10.314229-2.416335-8.311098 5.541515-6.123047 7.300781 1.460077-.642687 2.357432-1.44021 2.826172-2.355469-.305612-.513141-1.156653-.960991 0-1.648437.634401.05414.964792.336792 1.177735.707031 0 1.17765.592879 1.349342-4.240235 4.710937-2.847512 1.36672-3.053329 3.519073-4.121093 5.416016-1.964512 10.289657 2.295702 13.37563 7.654297 15.191406 1.018526-.849319 1.318365-2.050431 1.765624-3.179687 1.52592.331617 2.96197.455327 5.064454 2.121093.510311-.47106 1.020938-.943002 1.53125-1.414062l1.294922.589844-1.058594.58789c-.729802 1.014552-1.686498 1.894653-2.945313 2.591797l2.826172.351563c1.280106-.475287 2.27683-1.197675 3.179688-2.001953l1.53125-.470703c1.429491-3.499436 2.817039-7.009736 3.416015-10.716797-.09492-1.159322-.120301-2.084157-.824218-5.298829l.824218-2.708984 4.945313-5.535156-3.767578 5.888672-.707032 2.472656c-.111288 1.801403.184355 3.332165.707032 4.710938l-.236329 2.472656c-1.293013 3.648053-2.779626 7.144857-3.0625 11.1875.147338.911115.476394 1.700333 1.53125 2.001953 13.225148-.4997 19.819273-6.161754 23.90625-13.777344l.236329-2.472656c-2.481393-10.472616-9.599369-15.840231-19.078125-18.607422-.64773-.07828-1.274068-.11237-1.878907-.103516zm-9.074218 10.865235c.628465.196146 1.127209.436078 1.53125.707031-.348826-.0485-.668839-.201753-1.021485-.236328-.352646-.03457-.736716.04838-1.214844.470703-.524101.0854-.920462.105646-1.296874.117188.209933-.273398.469878-.507589.796874-.689454.326998-.181864.720994-.31011 1.205079-.36914zm-.470703 1.412109 2.826171 1.296875c.323112.278593.600298.576109.804688.90625.20439.330142.336069.692856.373047 1.095703-.584362-.375156-1.126016-.772584-2.119141-.943359-.916342.175776-1.844177.380171-2.591797.11914-.429854-.552996-.586456-.882333-.646484-1.128906-.06003-.246572-.02197-.411483-.05859-.638672.194042-.184434.346356-.435769.550781-.603515.204426-.167747.459891-.252346.861329-.103516zm-7.066407 17.150391c-1.564367 4.788849-4.768298 7.444901-7.771484 10.363281-.242314.358502.171714.468374 1.177734.353516 4.598408-2.194568 8.07834-5.135513 9.539063-9.421875-.926128-.486394-1.546193-1.275891-2.945313-1.294922z" fill="#11911c" transform="matrix(.8491483 0 0 .8491483 45.966239 -3.35983)"/></g></g></svg>