<svg height="60" width="52.157" xmlns="http://www.w3.org/2000/svg" xmlns:xlink="http://www.w3.org/1999/xlink"><filter id="a"><feGaussianBlur in="SourceAlpha" result="blur" stdDeviation="2"/><feOffset dx="2" dy="2" result="offsetBlur"/><feBlend in="SourceGraphic" in2="offsetBlur" mode="normal"/></filter><g filter="url(#a)" transform="matrix(.84305669 0 0 .84305669 35.252642 4.483395)"><path d="m-10.959999 6.2374999-12.838 3.608-7.051 44.4505441 39.9339998-.000544-6.79-44.163c-4.4180445-1.2973327-8.838599-2.6001051-13.2549998-3.8950001z" fill="#fee572"/></g><g stroke="#000" stroke-linejoin="round" stroke-width="1.312941" transform="matrix(.42483153 0 0 .5170919 35.89010789997 -3.46479700494)"><path d="m-23.355851 37.943536c-2.134544 9.081768-4.332216 14.438718-13.389243 20.588223 8.912868 3.135271 18.70037 2.896518 26.778486 0-9.057027-6.149505-11.254699-11.506455-13.389243-20.588223z"/><path d="m-26.817667 58.549927c-.101781 8.756321-.371109 15.836633-11.545204 21.428518-5.232221 2.785963-6.963446 4.475105-7.614698 9.332185 6.784589 1.493568 14.836273 2.210393 22.882279 2.179259 8.046006.03113 16.0976895-.685691 22.882279-2.179259-.651252-4.85708-2.382477-6.546222-7.614698-9.332185-11.174095-5.591885-11.443423-12.672197-11.545204-21.428518v.000004c-1.240718.01919-2.481542.02015-3.722377.01942-1.240835.000729-2.481659-.000233-3.722377-.01942z"/></g></svg>