<svg height="60" width="52.157" xmlns="http://www.w3.org/2000/svg" xmlns:xlink="http://www.w3.org/1999/xlink"><filter id="a"><feGaussianBlur in="SourceAlpha" result="blur" stdDeviation="2"/><feOffset dx="2" dy="2" result="offsetBlur"/><feBlend in="SourceGraphic" in2="offsetBlur" mode="normal"/></filter><g fill="#fdc9dd" filter="url(#a)" transform="translate(36.9605 -.278679)"><path d="m-10.959999 6.2374999-12.838 3.608-7.051 44.4501791 39.9339998-.000179-6.79-44.163z" fill="#fdc9dd"/></g><g transform="matrix(-.77823846 0 0 .77823846 160.20282 -31.954198)"><g stroke-width=".6" transform="matrix(1.3333333 0 0 -1.3333333 -.729282 396.85067)"><path d="m118.60844 240.09519 2.67478-.26751" fill="none" stroke="#000" stroke-width=".963715"/><g stroke-width=".6"><g stroke="#000"><path d="m114.12377 227.21925c6.70858.47145 12.9961.0676 22.13114.00078m-.68919 4.89257c-3.94553 6.47303-10.01346 4.3595-14.24184 4.30206-3.53388-2.09503-4.05315-2.26484-5.34821-3.84263-1.3691-1.83911-1.71727-3.11737-1.82673-5.37509 6.82666-2.46 13.64966-2.96499 21.81871-.47024.12545 2.0048-.17388 3.70643-.40193 5.3859z" stroke-width=".6"/><g stroke-width="1.554452" transform="matrix(.38598818 0 0 -.38598818 -302.31995890134 294.27844975369)"><path d="m1134.2935 141.96442c2.5462 12.29332 3.1852 23.55617 4.1977 35.94324 1.9427 9.21372 14.4008 18.84221 21.5403 16.84207-2.9324-16.41167-2.0318-40.45637-11.142-69.99753-5.6096-.79271-11.3765-1.12223-17.4929-1.75684-2.0378.10556-3.5421.51539-4.9542 1.45521-1.8957 2.68042-6.0037 11.52099-7.6923 15.8671l.8046 9.0439c3.9859 1.63157 6.2216 3.26314 9.1883 4.89471z" fill="#e6e6e6"/><path d="m1128.5077 153.78689c3.687-7.95951 4.7699-11.87437 9.4069-19.42671 1.8791-2.31598 3.7892-4.58542 5.961-6.46235 2.4698-.79915 3.0834-1.78406 5.5532-.94924" fill="none"/></g><path d="m121.6349 236.4114-1.59644 12.29524c-.57482 3.32753.18894 5.11782 2.96111 4.60161 2.55408-.72649 4.17288-3.15936 5.47802-6.16442l1.29757-10.54107c-4.45943.42362-5.93175.11668-8.14026-.19136z" stroke-width=".6"/></g><path d="m114.54599 230.80364c.1922-.076.28172-.0623.6685.0624 4.96534 1.60019 9.50674 3.31691 20.20183.88876.0996-.0226.34425-.0966.52144-.0774" fill="none" stroke="#fff" stroke-width=".963715"/></g><path d="m126.31358 239.41157 5.67198-.3317" fill="none" stroke="#000" stroke-width=".963715"/></g><g fill="none" stroke="#fff" stroke-width="1.284953"><path d="m151.09502 93.550953c.27883.02426.8801-.147211 1.00137-.177081 8.97454-2.21056 17.80113-2.648229 27.99307.597059.25245.08038.75606.09065 1.02577.112359"/><path d="m160.92364 80.518445c5.12147-.579576 7.62988-.658679 11.07811-.247688.44048.0525.57399.10651.70272.09169"/></g></g></svg>