<svg height="60" width="52.157" xmlns="http://www.w3.org/2000/svg" xmlns:xlink="http://www.w3.org/1999/xlink"><filter id="a"><feGaussianBlur in="SourceAlpha" result="blur" stdDeviation="2"/><feOffset dx="2" dy="2" result="offsetBlur"/><feBlend in="SourceGraphic" in2="offsetBlur" mode="normal"/></filter><g filter="url(#a)" transform="matrix(.91071172 0 0 .91071172 35.98886 2.874284)"><path d="m-10.959999 6.2374999c-4.319 1-8.69 2.088-12.838 3.608l-7.051 44.4501841 39.9339998-.000184-6.79-44.163c-4.4180445-1.2973327-8.838599-2.6001051-13.2549998-3.8950001z" fill="#fee572"/></g><g transform="matrix(1.1383583 0 0 1.1383583 -2.681382 -8.614948)"><g transform="matrix(.70055036 0 0 .70055036 -244.80436 -23.951026)"><g stroke-width="1.386344" transform="matrix(.57705753 0 0 .57705753 442.02738 27.098826)"><path d="m-112.14407 62.364407c-1.60042 3.019221-.97881 6.472265-.97881 9.788135-2.63655 5.43328-4.42105 9.610707-4.05509 14.542373-3.42623 3.817142-6.43917 7.882263-8.38983 12.584746-.5563 2.330509-1.03731 4.661019-.13983 6.991529l1.25848.69915c1.62281 3.36412 2.10136 4.10929 5.73305 3.63559l.69915-3.49576.97881-1.67797-.69915 4.47458.97882 2.37712c5.56198-1.79145 5.43612-4.78392 8.35427-9.28613 4.41588-2.03977 6.33241-3.073074 10.662675-4.696923l1.957627-1.258474 2.936441-4.894068-2.65678 4.754237.699152 3.076271s.139831 2.796607 0 3.495767c-.294711 4.50663-4.287614 9.94882-7.518745 12.72909-4.41838 3.3646-5.27045 6.49044-5.90498 11.88108 21.569882 11.97113 32.153352 6.36401 42.08898-.27966-.434978-2.47227-.77116-4.23377-1.702104-7.63819-2.387924-8.0077-2.831998-13.06774-3.191964-26.899951-.666509-10.140918-11.048936-24.3155-24.247991-23.642768l-6.514721-10.056384c-2.7431 2.441895-2.34212 6.067326-2.79661 9.508474l-2.09746-.279661z" stroke="#000" stroke-width="1.386344"/><g stroke="#fff"><path d="m-95.838861 96.831416c1.503563-2.62438 1.69516-6.972687 1.543213-8.543845" fill="none" stroke-width="1.731568"/><path d="m-108.57407 80.454025c-3.30499-.203236-3.02905 1.490129-3.90984 4.357502 3.36607.262252 3.05167-1.430004 3.90984-4.357502z" fill="#fff" stroke-width="1.984072"/><path d="m-93.159425 74.220209c1.993886-1.136997 5.954671 1.094626 7.399151 2.314543 4.78472 4.040876 10.222665 9.277577 10.30886 16.01737 1.315854 10.469988.825136 25.072578 4.796708 33.888458" fill="none" stroke-width="2.968402"/></g></g><path d="m373.99999 91.163185 2.125-3" fill="none" stroke="#fff" stroke-width=".999214"/></g><path d="m15.075681 36.961255c-.361906-.675822.138456-.84001.949351-1.607275" fill="none" stroke="#fff" stroke-width=".7"/></g></svg>