<svg height="60" width="52.157" xmlns="http://www.w3.org/2000/svg" xmlns:xlink="http://www.w3.org/1999/xlink"><filter id="a"><feGaussianBlur in="SourceAlpha" result="blur" stdDeviation="2"/><feOffset dx="2" dy="2" result="offsetBlur"/><feBlend in="SourceGraphic" in2="offsetBlur" mode="normal"/></filter><g filter="url(#a)" transform="matrix(.84305669 0 0 .84305669 35.25264 4.473357)"><path d="m-10.959999 6.2374999-12.838 3.608-7.051 44.4505441 39.9339998-.000544-6.79-44.163c-4.4180445-1.2973327-8.838599-2.6001051-13.2549998-3.8950001z" fill="#fee572"/></g><g stroke="#f00"><g fill="#f00" stroke-linejoin="round" stroke-width="1.312941" transform="matrix(.42483153308 0 0 .51709189893 35.89010892423 -2.82465333501)"><path d="m-23.355851 44.732625c-4.132306 8.932558-4.332216 7.649629-13.389243 13.799134 8.912868 3.135271 18.70037 2.896518 26.778486 0-9.057027-6.149505-9.438551-5.164998-13.389243-13.799134z"/><path d="m-26.817667 58.549927c-.101781 8.756321-.371109 15.836633-11.545204 21.428518-5.232221 2.785963-6.963446 4.475105-7.614698 9.332185 6.784589 1.493568 14.836273 2.210393 22.882279 2.179259 8.046006.03113 16.0976895-.685691 22.882279-2.179259-.651252-4.85708-2.382477-6.546222-7.614698-9.332185-11.174095-5.591885-11.443423-12.672197-11.545204-21.428518v.000004c-1.240718.01919-2.481542.02015-3.722377.01942-1.240835.000729-2.481659-.000233-3.722377-.01942z"/></g><g fill="#fd5" transform="matrix(.60133014452 0 0 .60133014452 -339.47167926611 -53.0365046662)"><path d="m89.878164 104.45867c71.228006 71.22916 31.757136 135.82089 52.509626 165.37853 28.87071 49.94709 71.08258 59.60515 129.34256 59.36887 1.13228-.005 2.26995-.0394 3.41266-.10377 1.14271.0644 2.28038.0992 3.41266.10377 58.25998.23628 100.47185-9.42178 129.34256-59.36887 20.75249-29.55764-18.71838-94.14937 52.50963-165.37853-11.60482-5.014637-42.72517 25.60524-62.89753 25.52484-25.61193-15.17069-47.03143 3.07994-52.25128 16.77733 37.83854-11.30105 70.07869 121.46792-45.53806 137.91415-7.06656 1.97083-16.16354 2.51444-24.57798 2.71917-8.41444-.20473-17.51142-.74834-24.57798-2.71917-115.61675-16.44623-83.3766-149.2152-45.53806-137.91415-5.21985-13.69739-26.63935-31.94802-52.25128-16.77733-20.17236.0804-51.29271-30.539477-62.897526-25.52484z" stroke-width="13.426564" transform="matrix(.06852995 0 0 .08094496 589.01947 105.57931)"/><ellipse cx="608" cy="124.95992" rx="3.94691" ry="3.818154"/></g></g></svg>