<svg height="60" width="52.157" xmlns="http://www.w3.org/2000/svg" xmlns:xlink="http://www.w3.org/1999/xlink"><filter id="a"><feGaussianBlur in="SourceAlpha" result="blur" stdDeviation="2"/><feOffset dx="2" dy="2" result="offsetBlur"/><feBlend in="SourceGraphic" in2="offsetBlur" mode="normal"/></filter><g transform="matrix(1 0 0 -1 34.434925 93.267291)"><g fill="#fecb00" filter="url(#a)" transform="matrix(.98185054 0 0 -.98185054 -134.62961 116.48624)"><path d="m-37.299339-31.009999-13.408999 4.26-6.837 44.557885 40.189999.000115-6.535-44.862-13.138-3.935c-.09-.017-.18-.032-.271-.021z" fill="#fff" transform="matrix(-1 0 0 -1 91.156998 47.625)"/></g><path d="m-9.8502345 53.78679v8.699315h-6.2686895l-1.0002 2.665918h7.2688895v9.821808h-12.0366895l-1.00017 3.086853h29.0613395l-1.00017-3.086853h-11.90089v-9.821808h7.45873005l-.99984-2.665918h-6.45889005v-8.699315h8.53389l.9995-3.086853h-22.2384095l.99991 3.086853z" fill="#1a1a1a" opacity=".99" stroke="#000" stroke-linejoin="round" stroke-width=".514"/></g></svg>