<svg height="60" width="52.157" xmlns="http://www.w3.org/2000/svg" xmlns:xlink="http://www.w3.org/1999/xlink"><filter id="a"><feGaussianBlur in="SourceAlpha" result="blur" stdDeviation="2"/><feOffset dx="2" dy="2" result="offsetBlur"/><feBlend in="SourceGraphic" in2="offsetBlur" mode="normal"/></filter><g fill="#fdd3e3" filter="url(#a)" transform="matrix(.98185054 0 0 .98185054 -100.00148 -23.218948)"><path d="m-37.299339-31.009999-13.408999 4.26-6.837 44.557887 40.189999.000113-6.535-44.862-13.138-3.935c-.09-.017-.18-.032-.271-.021z" fill="#fdd3e3" transform="matrix(-1 0 0 -1 91.156998 47.625)"/></g><g transform="matrix(.83546038 0 0 -.83546038 -628.3412 188.14682)"><g stroke="#f00" transform="translate(4.121665 59.000004)"><g stroke="#f00"><g stroke-width="2.599394" transform="matrix(.57705753 0 0 .57705753 833.72141 78.925308)"><path d="m-99.869869 72.613761c-7.779571.585533-4.396091 1.588995-10.238971 4.007947l-7.9946 4.071814.92547 6.001393c-.77162 7.488641-4.08646 12.458035-8.18707 18.444855l-1.90602 1.3852c3.13117 1.46188 4.20218 2.34296 4.36004 3.24198 1.0049 1.73091 2.90632 1.96241 4.68934 2.61358l-1.40356-6.87865 8.35729-9.826813c-1.06856 5.909803 2.17058 6.922683 1.10588 12.802873l-2.84591 6.8277 2.46723.7131 3.25042-4.84479c.26499-5.69802 1.45183-10.40982 2.60785-16.125345 4.941082.959034 6.067067 4.202936 11.109985-2.96622-2.428058 5.368292.319467 10.071535-1.610087 15.629045-9.266908 7.89492-9.809298 13.85164-12.776998 19.93646 16.922061 5.51965 34.88504-3.64485 47.788999 1.18747-1.394815-1.91918-5.584929-8.81125-13.797994-12.36746 4.417856-1.13734 3.962697-3.66213 12.547802-1.40576-1.981522-3.0243-11.977189-14.32996-14.77873-11.53173 4.379556-.312 7.876955-3.04993 13.17269-.84243-6.098267-7.596403-10.395058-6.791101-15.393664-8.883915l6.317277-.304444 6.395909-.308233c-3.868141-6.756051-11.320552-7.972724-18.227333-10.032692 3.53372-1.207193 8.843849-.848945 13.9911-.330365-6.280517-5.071055-14.011653-7.9172-22.741995-10.130099" fill="#f00" stroke="#f00" stroke-linejoin="round"/><path d="m-109.93466 84.098408c-.65031 1.030186-.2801 1.823044-2.0241 4.697906.79591.469213 1.45281.05645 2.31512-.895721 1.3323-1.578995 1.35473-1.792373-.29099-3.802185z" fill="#fff" stroke="#fff"/></g><path d="m765.51642 125.46208c-.23169-1.97595 5.47366-5.25803 5.85669-7.8125l-2-2.875 3.625 1.1875c2.19833-.36277 8.68963-3.3176 11.16637-5.76161.40432-.39897.87725-1.57719.89613-1.98839 1.09223 1.59996 1.31228 1.54257 1.91678 3.04525-1.76571 1.9765-6.34593 3.785-8.54178 4.81413-3.83435 2.45525-5.71045 5.9907-8.98559 8.93505z" fill="#fff"/><path d="m772.68561 124.96208c1.47948-1.04242 3.05184-4.56422 4.46541-6.08964 1.40551-1.51672 2.00578-.56992 4.15959-1.66036-.12942-.0555-1.26 2.28736-1.40493 4.3248-.0827 1.16304.78772 2.39509.75716 2.60025-.35746 2.40011-4.69412 2.58767-5.53973 3.44995" fill="#f00" stroke-width="1.5"/><path d="m765.48285 143.26451 1.94899-1.01647-1.98873-.84728" fill="#f00"/></g><path d="m780.32493 124.39281c9.96187 2.57909 6.12399 21.80252 9.23529 28.04287.14947.29979.16056.34675.22537.78516" fill="none" stroke="#fff" stroke-width="1.196945"/><path d="m778.00762 135.16063c.5598-.81951 1.40396-2.88479 1.96375-5.28773" fill="none" stroke="#fff"/><path d="m772.41547 125.06331c1.76518-1.69811 2.43474-3.03044 2.41396-4.9259" fill="none" stroke="#fff"/><path d="m775.11001 127.5748c.31956-.076 4.56428-2.43096 5.21492-3.18199-.94673-1.51043.0945-2.66885-.00001-3.97747" fill="none" stroke="#fff"/><path d="m769.30229 145.20201-1.94899-1.01647 1.98873-.84728" fill="#f00" stroke="#f00"/></g><g fill="none" stroke="#fff"><path d="m788.77762 185.24897c1.20797-.004 3.01257.14431 4.22055.83969"/><path d="m791.51765 191.08261c2.83799.29966 3.64163.49582 5.17073 1.17114"/><path d="m792.22476 196.82785c1.05457.0264 2.29574.0577 5.12653.97227"/><path d="m792.75508 204.25247c1.62046-.22079 2.6222.33721 4.24266.79549"/></g></g></svg>