<svg height="31.358999mm" viewBox="0 0 27.117003 31.358999" width="27.117002mm" xmlns="http://www.w3.org/2000/svg" xmlns:xlink="http://www.w3.org/1999/xlink"><clipPath id="a"><path d="m0 2834.646h2834.646v-2834.646h-2834.646z" transform="translate(-101.8765 -1555.7911)"/></clipPath><linearGradient id="b" gradientUnits="userSpaceOnUse" x1="853.4118" x2="853.4118" y1="8.19215" y2="-67.2094"><stop offset="0" stop-color="#ffdba6"/><stop offset="1" stop-color="#f2c478"/></linearGradient><g clip-path="url(#a)" stroke-miterlimit="10" transform="matrix(.35277776 0 0 -.35277776 19.49824 6.831264)"><path d="m0 0-16.217 5.989c-.397.146-.844.146-1.241 0l-16.216-5.989c-.531-.196-.903-.627-.975-1.131l-7.687-53.534c-.122-.848.627-1.598 1.595-1.598h23.904 23.903c.969 0 1.717.75 1.596 1.598l-7.687 53.534c-.073.504-.444.935-.975 1.131" fill="url(#b)"/><path d="m-40.740234-57.113281c-1.406573 0-2.637944 1.165724-2.4375 2.568359l7.6875 53.5351564c.120395.84276505.731595 1.5150809 1.521484 1.8066406l16.216797 5.9902344c.591076.2173731 1.237049.2173731 1.828125 0l16.21874988-5.9902344c.79021412-.29167981 1.39975132-.96618242 1.52148432-1.8066406l7.6875001-53.5351564c.2001345-1.402596-1.0297011-2.568359-2.4375001-2.568359h-23.9042972zm0 1.701172h23.902343 23.9042972c.5301992 0 .7957715.333551.7539063.626953l-7.6875 53.5332029c-.0242668.1675408-.1559496.3547583-.42773438.4550781l-16.21679712 5.9882812c-.202585.07396-.450026.074404-.652343 0l-16.214844-5.9882812c-.27211-.1004399-.40413-.2898442-.427735-.4550781l-7.6875-53.5332029c-.04208-.292456.225161-.626953.753907-.626953z" fill="#4d3608"/></g><path d="m308.73535 15.153018q-.0988-.428173-.29642-.757537.95515-.03294 2.10793-.329364.92222-.230555 1.61388-.724601.69167-.46111 1.35039-1.185711l.59286.46111q-.75754.757537-.98809.922219-.46111.362301-1.15278.691665-.46111.263491-1.4492.559919-.79047.197618-1.77857.3623zm6.7849-2.832531-.49404.592856q-.95516-.856347-1.77857-1.350393l.42818-.559919q1.0869.691665 1.84443 1.317456zm-6.94958.92222q-.0988-.197619-.16468-.263492l-.32936-.3623q.65872-.46111.85634-.658728.3623-.296428.9881-.988092l.62579.494046q-.13175.131745-.26349.263491-.13175.131746-.2635.263491-.65872.658728-.7246.691665-.52698.428173-.7246.559919zm2.86547-3.161895v-2.56904h.7246v.9880922h2.56904v.6916645h-2.56904v.8892833h3.29364v.724601h-3.29364v1.910311q0 .263491-.23055.46111-.19762.164682-1.02103.329364-.0329-.329364-.32937-.790474h.7246q.0329 0 .0988-.06587.0329-.03294.0329-.09881v-1.745629h-3.39245v-.724601h1.28452v-1.8773774h.75754v1.8773754z" stroke-width=".35424" transform="matrix(.99587063 0 0 1.0041465 -296.93601 0)"/><g stroke-miterlimit="10"><path d="m-.63867187 11.337891v11.339843h1.27734374v-11.339843z" transform="matrix(.35277776 0 0 -.35277776 13.55845 24.679473)"/><path d="m-22.677734-.63867187v1.27734374h22.677734v-1.27734374z" transform="matrix(.35277776 0 0 -.35277776 17.55846 20.679476)"/></g></svg>