<?xml version="1.0" encoding="UTF-8" standalone="no"?>
<!-- Created with Inkscape (http://www.inkscape.org/) -->

<svg
   width="27.117002mm"
   height="31.358999mm"
   viewBox="0 0 27.117003 31.358999"
   version="1.1"
   id="svg1"
   xmlns:xlink="http://www.w3.org/1999/xlink"
   xmlns="http://www.w3.org/2000/svg"
   xmlns:svg="http://www.w3.org/2000/svg">
  <defs
     id="defs1">
    <linearGradient
       id="linearGradient69">
      <stop
         style="stop-color:#ffdba6;stop-opacity:1;"
         offset="0"
         id="stop69" />
      <stop
         style="stop-color:#f2c478;stop-opacity:1;"
         offset="1"
         id="stop68" />
    </linearGradient>
    <clipPath
       clipPathUnits="userSpaceOnUse"
       id="clipPath1330-86-6-46">
      <path
         d="M 0,2834.646 H 2834.646 V 0 H 0 Z"
         transform="translate(-461.11531,-1560.2174)"
         id="path1330-98-2-4" />
    </clipPath>
    <linearGradient
       xlink:href="#linearGradient69"
       id="linearGradient1"
       gradientUnits="userSpaceOnUse"
       gradientTransform="translate(1433.4092,-720.91338)"
       x1="-1283.1606"
       y1="735.85059"
       x2="-1283.1606"
       y2="646.95892" />
  </defs>
  <g
     id="path1329-5-1-8"
     clip-path="url(#clipPath1330-86-6-46)"
     transform="matrix(0.35277776,0,0,-0.35277776,21.229644,5.2695153)">
    <path
       style="color:#000000;fill:url(#linearGradient1);stroke-miterlimit:10;-inkscape-stroke:none"
       d="m 0,0 -21.223,7.255 c -0.337,0.115 -0.707,0.115 -1.044,0 L -43.49,0 c -0.512,-0.175 -0.879,-0.593 -0.956,-1.088 L -54.328,-64.8 c -0.128,-0.823 0.569,-1.559 1.477,-1.559 h 31.106 31.106 c 0.907,0 1.605,0.736 1.477,1.559 L 0.955,-1.088 C 0.879,-0.593 0.512,-0.175 0,0"
       id="path1" />
    <path
       style="color:#000000;fill:#4d3608;stroke-miterlimit:10;-inkscape-stroke:none"
       d="m -52.851562,-67.208984 c -1.367537,0 -2.528283,1.176762 -2.316407,2.539062 l 9.88086,63.71289075 c 0.128904,0.82867416 0.735013,1.49290547 1.521484,1.76171875 l 21.224609,7.2558594 c 0.517057,0.1764437 1.07474,0.1764437 1.591797,0 h 0.002 L 0.27539063,0.8046875 C 1.0612847,0.53607135 1.6668921,-0.12796836 1.7949219,-0.95703125 v -0.001953 L 11.677734,-64.669922 c 0.21198,-1.362964 -0.949363,-2.539062 -2.3164059,-2.539062 H -21.744141 Z m 0,1.701172 h 31.107421 31.1054691 c 0.4469549,0 0.6807389,0.293137 0.6367188,0.576171 v 0.002 L 0.11523437,-1.2167969 c -0.02457878,0.1600856 -0.15309689,0.33092303 -0.390625,0.4121094 L -21.498047,6.4511719 v -0.00195 c -0.156942,0.053556 -0.337198,0.053556 -0.49414,0 v 0.00195 l -21.222657,-7.2558594 c -0.237528,-0.0811864 -0.36553,-0.2527376 -0.390625,-0.4140625 l -9.882812,-63.710937 v -0.002 c -0.04412,-0.283698 0.188257,-0.576171 0.636719,-0.576171 z"
       id="path2" />
  </g>
  <path
     style="stroke-width:0.352777"
     d="m 9.4656473,11.671686 0.421679,0.231511 -0.37207,1.190623 q -0.07442,-0.09922 -0.396874,-0.264582 z m -1.11621,1.223697 -0.496093,0.198437 q -0.223242,-0.892967 -0.297656,-1.223696 l 0.471289,-0.231511 q 0.04961,0.165365 0.32246,1.25677 z m 3.3486287,-1.124478 v -1.190623 h -0.446484 v 1.190623 z m -0.917772,1.15755 V 9.9518969 h 1.389061 v 2.7450491 h -0.471289 v -0.231511 h -0.446484 v 0.46302 z M 10.70588,9.1912207 V 8.5959089 h 1.587498 V 9.1912207 Z M 9.9865443,14.416735 V 7.239921 h 3.0509727 v 6.217701 q 0,0.562239 -0.17363,0.694531 -0.198441,0.264582 -0.768946,0.363801 -0.04961,-0.429947 -0.07442,-0.562239 -0.0248,-0.132292 -0.148827,-0.330729 h 0.545703 q 0.04962,0 0.07439,-0.03307 V 13.523774 7.9344572 H 10.507413 V 14.416741 Z M 8.0765863,9.2904393 h 1.43867 v 0.6283846 h -0.471288 v 0.6614581 h 0.669726 v 0.628384 h -0.669726 v 2.18281 q 0.446483,-0.09922 0.669726,-0.165364 v 0.69453 l -0.545703,0.165365 -1.537889,0.429947 -0.09922,-0.826823 q 0.248047,-0.03307 0.545703,-0.06614 0.297656,-0.06614 0.396874,-0.06614 v -2.348183 h -0.843358 v -0.628384 h 0.843358 V 9.9188239 H 8.0269773 V 9.356585 L 7.7789303,9.7534596 Q 7.6301023,9.4227308 7.4068603,9.125075 7.8285393,8.5297631 8.1510003,7.9344514 8.2502193,7.769087 8.6470933,6.8430465 l 0.471289,0.3968745 -0.07442,0.1984372 q 0.173633,0.1322915 0.892968,0.9260406 L 9.5400613,8.9597105 Q 9.3416233,8.6951276 8.7463123,8.03367 8.2998273,8.8935648 8.0765863,9.2904393 Z m 5.9779217,-0.793749 0.520897,0.066146 q -0.02477,0.3307287 -0.02477,0.6283846 0,0.2976558 -0.02477,0.4299473 -0.02477,0.1984374 -0.04962,0.4299478 0,0.198437 -0.07439,0.661457 l -0.496094,-0.09922 q 0.148826,-1.0914044 0.148826,-2.1166636 z m 3.571869,2.8773407 v -1.124478 h -0.669723 v 1.124478 z M 16.807828,8.9266377 16.609386,9.621168 h 1.5627 v 2.41432 h -1.215432 v 1.455207 q 0,0.165364 0.09922,0.198436 0.09922,0.06614 0.471282,0.06614 h 1.215432 q 0.173629,0 0.248047,-0.09922 0.07439,-0.06614 0.198441,-0.661457 0.173629,0.23151 0.520897,0.429948 -0.148835,0.562239 -0.248047,0.727603 -0.148826,0.198437 -0.248047,0.23151 -0.07439,0.03307 -0.520897,0.03307 h -1.314653 q -0.471282,0 -0.545699,-0.03307 -0.17363,-0.09921 -0.297653,-0.264583 -0.124024,-0.165364 -0.124024,-0.396875 v -3.571861 q -0.223244,0.529166 -0.297662,0.628385 -0.124023,-0.23151 -0.421676,-0.628385 0.396874,-0.760676 0.595315,-1.4221336 0.248047,-0.793749 0.421676,-1.8190082 l 0.5457,0.1653644 -0.248047,1.1906235 h 2.356446 q 0,2.7781219 -0.09922,3.7041619 -0.04962,0.562239 -0.198432,0.727604 -0.124024,0.165364 -0.595315,0.231509 -0.07439,-0.330728 -0.198441,-0.727602 h 0.27285 q 0.09922,0 0.124023,-0.03307 0.02477,-0.03307 0.07439,-0.529167 0,0 0.04962,-2.711975 z M 14.798649,6.9091922 h 0.545699 v 1.8851539 q 0.07439,-0.099219 0.124024,-0.1653643 0.04962,-0.099219 0.124023,-0.1653644 0.07439,-0.099219 0.124024,-0.1984373 0.07439,-0.099219 0.173638,-0.2315101 l 0.372071,0.5622389 -0.942582,1.1244778 q -0.04962,1.1906233 -0.09922,1.7197893 0.471291,1.091405 0.818559,1.71979 l -0.421686,0.529165 q -0.322455,-0.595311 -0.570502,-1.289842 -0.27285,1.157552 -0.793747,2.050519 -0.248047,-0.46302 -0.396874,-0.628385 0.471283,-0.793749 0.620109,-1.422134 0.148835,-0.529165 0.272859,-1.785935 0.04962,-0.9260401 0.04962,-3.7041618 z"
     id="text1328-5-0-9-7-0"
     aria-label="銅炮" />
  <path
     style="color:#000000;fill:#000000 icc-color(sRGB-IEC61966-2, 0.1, 0, 0, 0);stroke-width:0.352778;stroke-miterlimit:10;-inkscape-stroke:none"
     d="m 16.35426,23.793774 -5.910345,-5.910345 0.318635,-0.318636 5.910346,5.910345 z"
     id="path1317-1-0-34" />
  <path
     style="color:#000000;fill:#000000 icc-color(sRGB-IEC61966-2, 0.1, 0, 0, 0);stroke-width:0.352778;stroke-miterlimit:10;-inkscape-stroke:none"
     d="m 10.762577,23.79375 -0.318635,-0.318636 5.910345,-5.910345 0.318636,0.318636 z"
     id="path1323-3-0-7" />
  <path
     style="color:#000000;fill:#000000;stroke-width:0.559289;stroke-miterlimit:10;-inkscape-stroke:none"
     d="m 16.412527,16.143604 1.681135,1.682247 -0.317875,0.317879 -1.682228,-1.681154 z"
     id="path4451-7-08-5-0-09" />
  <path
     style="color:#000000;fill:#000000;stroke-width:0.559289;stroke-miterlimit:10;-inkscape-stroke:none"
     d="m 9.3414843,23.214646 1.6811347,1.682247 -0.317875,0.317879 -1.6822277,-1.681154 z"
     id="path4451-7-08-1-97" />
  <path
     style="color:#000000;fill:#000000;stroke-width:0.559289;stroke-miterlimit:10;-inkscape-stroke:none"
     d="m 18.094538,23.533854 -1.682247,1.681135 -0.317879,-0.317875 1.681154,-1.682228 z"
     id="path4451-7-08-5-4-29-82" />
  <path
     style="color:#000000;fill:#000000;stroke-width:0.559289;stroke-miterlimit:10;-inkscape-stroke:none"
     d="m 9.3413783,18.143976 -0.318968,-0.318972 1.6822277,-1.681154 0.317875,0.317879 z"
     id="path4449-0-4-3-4-95" />
  <path
     style="color:#000000;fill:#000000;stroke-width:0.393104;stroke-miterlimit:10;-inkscape-stroke:none"
     d="m 10.827945,18.918364 h -0.449524 v -1.419149 h 1.419149 l -5.43e-4,0.450067 -0.969082,-5.43e-4 z"
     id="path4671-0-44-2" />
  <path
     style="color:#000000;fill:#000000;stroke-width:0.393104;stroke-miterlimit:10;-inkscape-stroke:none"
     d="m 16.73834,23.859778 h -1.419149 l 5.43e-4,-0.450067 0.969082,5.43e-4 v -0.969625 h 0.449524 z"
     id="path4673-4-0-0" />
  <path
     style="color:#000000;fill:#000000;stroke-width:0.393104;stroke-miterlimit:10;-inkscape-stroke:none"
     d="m 15.319514,17.949061 v -0.449524 h 1.419149 l -10e-7,1.419149 -0.450066,-5.43e-4 5.43e-4,-0.969082 z"
     id="path4671-0-44-9-85" />
  <path
     style="color:#000000;fill:#000000;stroke-width:0.393104;stroke-miterlimit:10;-inkscape-stroke:none"
     d="m 10.378099,23.859456 v -1.419149 l 0.450067,5.43e-4 -5.43e-4,0.969082 h 0.969625 v 0.449524 z"
     id="path4673-4-0-6-7" />
</svg>
