<?xml version="1.0" encoding="UTF-8" standalone="no"?>
<!-- Created with Inkscape (http://www.inkscape.org/) -->

<svg
   width="30mm"
   height="34mm"
   viewBox="0 0 30 34"
   version="1.1"
   id="svg1"
   xmlns:xlink="http://www.w3.org/1999/xlink"
   xmlns="http://www.w3.org/2000/svg"
   xmlns:svg="http://www.w3.org/2000/svg">
  <defs
     id="defs1">
    <linearGradient
       id="linearGradient22">
      <stop
         style="stop-color:#ffdba6;stop-opacity:1;"
         offset="0"
         id="stop21" />
      <stop
         style="stop-color:#f2c478;stop-opacity:1;"
         offset="1"
         id="stop22" />
    </linearGradient>
    <clipPath
       clipPathUnits="userSpaceOnUse"
       id="clipPath1330-86-6-46-0">
      <path
         d="M 0,2834.646 H 2834.646 V 0 H 0 Z"
         transform="translate(-461.11531,-1560.2174)"
         id="path1330-98-2-4-8" />
    </clipPath>
    <linearGradient
       xlink:href="#linearGradient22"
       id="linearGradient171"
       gradientUnits="userSpaceOnUse"
       gradientTransform="translate(-311.81167,-212.60334)"
       x1="289.06915"
       y1="220.19536"
       x2="289.06967"
       y2="143.72234" />
  </defs>
  <g
     id="layer1"
     transform="translate(-360)">
    <g
       id="path1329-5-1-8"
       clip-path="url(#clipPath1330-86-6-46-0)"
       transform="matrix(0.35277776,0,0,-0.35277776,382.67115,6.5900155)">
      <path
         style="color:#000000;fill:url(#linearGradient171);stroke-miterlimit:10;-inkscape-stroke:none"
         d="m 0,0 -21.223,7.255 c -0.337,0.115 -0.707,0.115 -1.044,0 L -43.49,0 c -0.512,-0.175 -0.879,-0.593 -0.956,-1.088 L -54.328,-64.8 c -0.128,-0.823 0.569,-1.559 1.477,-1.559 h 31.106 31.106 c 0.907,0 1.605,0.736 1.477,1.559 L 0.955,-1.088 C 0.879,-0.593 0.512,-0.175 0,0"
         id="path289" />
      <path
         style="color:#000000;fill:#4d3608;stroke-miterlimit:10;-inkscape-stroke:none"
         d="m -52.851562,-67.208984 c -1.367537,0 -2.528283,1.176762 -2.316407,2.539062 l 9.88086,63.71289075 c 0.128904,0.82867416 0.735013,1.49290547 1.521484,1.76171875 l 21.224609,7.2558594 c 0.517057,0.1764437 1.07474,0.1764437 1.591797,0 h 0.002 L 0.27539063,0.8046875 C 1.0612847,0.53607135 1.6668921,-0.12796836 1.7949219,-0.95703125 v -0.001953 L 11.677734,-64.669922 c 0.21198,-1.362964 -0.949363,-2.539062 -2.3164059,-2.539062 H -21.744141 Z m 0,1.701172 h 31.107421 31.1054691 c 0.4469549,0 0.6807389,0.293137 0.6367188,0.576171 v 0.002 L 0.11523437,-1.2167969 c -0.02457878,0.1600856 -0.15309689,0.33092303 -0.390625,0.4121094 L -21.498047,6.4511719 v -0.00195 c -0.156942,0.053556 -0.337198,0.053556 -0.49414,0 v 0.00195 l -21.222657,-7.2558594 c -0.237528,-0.0811864 -0.36553,-0.2527376 -0.390625,-0.4140625 l -9.882812,-63.710937 v -0.002 c -0.04412,-0.283698 0.188257,-0.576171 0.636719,-0.576171 z"
         id="path290" />
    </g>
    <path
       style="stroke-width:0.352777"
       d="m 428.28671,11.25156 0.48691,0.200493 -0.42963,1.031111 q -0.0859,-0.08593 -0.45827,-0.229136 z m -1.28889,1.059752 -0.57284,0.171852 q -0.25777,-0.773333 -0.3437,-1.059753 l 0.5442,-0.200493 q 0.0573,0.143209 0.37234,1.088394 z m 3.86667,-0.973827 v -1.03111 h -0.51556 v 1.03111 z m -1.05976,1.002469 V 9.7621781 h 1.60395 V 12.13946 h -0.54419 v -0.200494 h -0.51556 v 0.400988 z m -0.0859,-3.2365408 V 8.5878581 h 1.83308 v 0.5155551 z m -0.83062,4.5254288 V 7.413538 h 3.52296 v 5.384687 q 0,0.486913 -0.20049,0.601481 -0.22914,0.229136 -0.8879,0.315062 -0.0573,-0.372346 -0.0859,-0.486914 -0.0286,-0.114567 -0.17185,-0.286419 h 0.63012 q 0.0573,0 0.0859,-0.02864 v -0.05728 -4.84049 h -2.29136 v 5.613823 z m -2.20543,-4.4395029 h 1.66123 v 0.5441971 h -0.54419 v 0.5728388 h 0.77333 v 0.544197 h -0.77333 v 1.890369 q 0.51555,-0.08593 0.77333,-0.14321 v 0.601481 l -0.63012,0.14321 -1.7758,0.372346 -0.11457,-0.716049 q 0.28642,-0.02864 0.63012,-0.05728 0.3437,-0.05728 0.45827,-0.05728 V 10.85058 h -0.97382 v -0.544197 h 0.97382 V 9.7335362 H 426.6255 V 9.246623 l -0.28642,0.3437034 q -0.17185,-0.2864195 -0.42963,-0.5441971 0.48691,-0.5155551 0.85926,-1.0311103 0.11456,-0.1432097 0.57284,-0.9451844 l 0.54419,0.3437034 -0.0859,0.1718517 q 0.20049,0.1145679 1.03111,0.8019747 l -0.45827,0.5155551 q -0.22914,-0.2291356 -0.91655,-0.8019746 -0.51555,0.7446907 -0.77333,1.0883942 z m 6.90271,-0.6874069 0.60148,0.057284 q -0.0286,0.2864195 -0.0286,0.5441971 0,0.2577776 -0.0286,0.3723454 -0.0286,0.1718517 -0.0573,0.3723454 0,0.1718519 -0.0859,0.5728389 l -0.57284,-0.08593 q 0.17185,-0.9451842 0.17185,-1.8330847 z m 4.12444,2.4918498 v -0.973826 h -0.77333 v 0.973826 z m -0.94518,-2.1195044 -0.22914,0.601481 h 1.80444 v 2.0908624 h -1.40345 v 1.260246 q 0,0.14321 0.11457,0.171852 0.11456,0.05728 0.54419,0.05728 h 1.40346 q 0.20049,0 0.28642,-0.08593 0.0859,-0.05728 0.22914,-0.572839 0.20049,0.200493 0.60148,0.372345 -0.17186,0.486913 -0.28642,0.630123 -0.17186,0.171852 -0.28642,0.200494 -0.0859,0.02864 -0.60148,0.02864 h -1.51803 q -0.54419,0 -0.63012,-0.02864 -0.20049,-0.08593 -0.3437,-0.229136 -0.14321,-0.14321 -0.14321,-0.343703 V 9.9340298 q -0.25778,0.4582712 -0.34371,0.5441972 -0.14321,-0.200494 -0.48691,-0.5441972 0.45827,-0.6587649 0.68741,-1.2316039 0.28642,-0.6874069 0.48691,-1.5753074 l 0.63012,0.1432098 -0.28642,1.0311103 h 2.72099 q 0,2.4059244 -0.11457,3.2078984 -0.0573,0.486913 -0.22913,0.630123 -0.14321,0.14321 -0.68741,0.200494 -0.0859,-0.28642 -0.22914,-0.630123 h 0.31506 q 0.11457,0 0.14321,-0.02864 0.0287,-0.02864 0.0859,-0.458271 0,0 0.0573,-2.3486404 z m -2.32,-1.7471591 h 0.63012 v 1.6325913 q 0.0859,-0.085926 0.14321,-0.1432098 0.0573,-0.085926 0.14321,-0.1432097 0.0859,-0.085926 0.14321,-0.1718517 0.0859,-0.085926 0.2005,-0.2004937 l 0.42962,0.4869132 -1.08839,0.9738263 q -0.0573,1.0311106 -0.11457,1.4893816 0.5442,0.945184 0.94519,1.489381 l -0.48692,0.458272 q -0.37234,-0.515555 -0.65876,-1.117036 -0.31506,1.002468 -0.91654,1.775801 -0.28642,-0.400988 -0.45827,-0.544197 0.54419,-0.687407 0.71604,-1.231604 0.17186,-0.458272 0.31507,-1.546666 0.0573,-0.8019745 0.0573,-3.2078985 z"
       id="text1328-5-0-9-7-0"
       transform="scale(0.86602543,1.1547005)"
       aria-label="銅炮" />
    <path
       style="color:#000000;fill:#000000 icc-color(sRGB-IEC61966-2, 0.1, 0, 0, 0);stroke-miterlimit:10;-inkscape-stroke:none"
       d="M -0.63867187,0 V 23.693359 H 0.63867187 V 0 Z"
       id="path3789"
       transform="matrix(0.24945156,0.24945156,0.24945156,-0.24945156,371.74522,26.455462)" />
    <path
       style="color:#000000;fill:#000000 icc-color(sRGB-IEC61966-2, 0.1, 0, 0, 0);stroke-miterlimit:10;-inkscape-stroke:none"
       d="M -23.693359,-0.63867187 V 0.63867187 H 0 v -1.27734374 z"
       id="path3791"
       transform="matrix(0.24945156,0.24945156,0.24945156,-0.24945156,377.6556,26.455488)" />
    <path
       style="color:#000000;fill:#000000;stroke-miterlimit:10;-inkscape-stroke:none"
       d="M -0.28515625,-0.28515625 -3.2910156,2.7226563 -2.7226563,3.2910156 0.28515625,0.28515625 Z"
       id="path3793"
       transform="matrix(0,-0.55928609,-0.55929249,0,379.07657,26.1949)" />
    <path
       style="color:#000000;fill:#000000;stroke-miterlimit:10;-inkscape-stroke:none"
       d="M -0.28515625,-0.28515625 -3.2910156,2.7226563 -2.7226563,3.2910156 0.28515625,0.28515625 Z"
       id="path3795"
       transform="matrix(0,-0.55928609,-0.55929249,0,372.00557,19.123911)" />
    <path
       style="color:#000000;fill:#000000;stroke-miterlimit:10;-inkscape-stroke:none"
       d="M -0.28515625,-0.28515625 -3.2910156,2.7226563 -2.7226563,3.2910156 0.28515625,0.28515625 Z"
       id="path3797"
       transform="matrix(0.55928609,0,0,-0.55929249,372.00526,27.876989)" />
    <path
       style="color:#000000;fill:#000000;stroke-miterlimit:10;-inkscape-stroke:none"
       d="M 0.28515625,-0.28515625 -0.28515625,0.28515625 2.7226563,3.2910156 3.2910156,2.7226563 Z"
       id="path3799"
       transform="matrix(0,0.55928609,0.55929249,0,377.39522,19.123752)" />
    <path
       style="color:#000000;fill:#000000;stroke-miterlimit:10;-inkscape-stroke:none"
       d="M 0.40429688,-0.40429688 -0.40429688,0.40429688 2.1484375,2.9570313 4.7011719,0.40429688 3.890625,-0.40429688 2.1484375,1.3398437 Z"
       id="path3801"
       transform="matrix(0.27796635,0.27796635,0.27796648,-0.27796648,376.46132,20.545094)" />
    <path
       style="color:#000000;fill:#000000;stroke-miterlimit:10;-inkscape-stroke:none"
       d="m -2.1484375,-2.9570313 -2.5527344,2.55273442 0.8105469,0.80859376 1.7421875,-1.74414058 1.74414062,1.74414058 0.80859376,-0.80859376 z"
       id="path3803"
       transform="matrix(0.27796635,0.27796635,0.27796648,-0.27796648,372.93905,26.455488)" />
    <path
       style="color:#000000;fill:#000000;stroke-miterlimit:10;-inkscape-stroke:none"
       d="M 0.40429688,-0.40429688 -0.40429688,0.40429688 2.1484375,2.9570313 4.7011719,0.40429688 3.890625,-0.40429688 2.1484375,1.3398437 Z"
       id="path3805"
       transform="matrix(-0.27796635,0.27796635,0.27796648,0.27796648,377.65538,25.261424)" />
    <path
       style="color:#000000;fill:#000000;stroke-miterlimit:10;-inkscape-stroke:none"
       d="m -2.1484375,-2.9570313 -2.5527344,2.55273442 0.8105469,0.80859376 1.7421875,-1.74414058 1.74414062,1.74414058 0.80859376,-0.80859376 z"
       id="path3807"
       transform="matrix(-0.27796635,0.27796635,0.27796648,0.27796648,371.74498,21.739158)" />
  </g>
</svg>
