<?xml version="1.0" encoding="UTF-8" standalone="no"?>
<!-- Created with Inkscape (http://www.inkscape.org/) -->

<svg
   width="30mm"
   height="34mm"
   viewBox="0 0 30 34"
   version="1.1"
   id="svg1"
   sodipodi:docname="shoshogi.svg"
   inkscape:version="1.4.2 (f4327f4, 2025-05-13)"
   inkscape:export-batch-path="C:\Users\Event\Documents\All My Files\Art\Chess Pieces\Pieces"
   inkscape:export-batch-name=""
   xmlns:inkscape="http://www.inkscape.org/namespaces/inkscape"
   xmlns:sodipodi="http://sodipodi.sourceforge.net/DTD/sodipodi-0.dtd"
   xmlns:xlink="http://www.w3.org/1999/xlink"
   xmlns="http://www.w3.org/2000/svg"
   xmlns:svg="http://www.w3.org/2000/svg">
  <sodipodi:namedview
     id="namedview1"
     pagecolor="#505050"
     bordercolor="#eeeeee"
     borderopacity="1"
     inkscape:showpageshadow="0"
     inkscape:pageopacity="0"
     inkscape:pagecheckerboard="0"
     inkscape:deskcolor="#505050"
     inkscape:document-units="mm"
     inkscape:zoom="1.1101511"
     inkscape:cx="242.30935"
     inkscape:cy="71.61187"
     inkscape:window-width="1920"
     inkscape:window-height="1009"
     inkscape:window-x="1912"
     inkscape:window-y="-8"
     inkscape:window-maximized="1"
     inkscape:current-layer="svg1">
    <inkscape:page
       x="0"
       y="0"
       width="30"
       height="34"
       id="page1"
       margin="0"
       bleed="0"
       inkscape:label="0_ELEPHANT" />
  </sodipodi:namedview>
  <defs
     id="defs1">
    <linearGradient
       id="linearGradient22">
      <stop
         style="stop-color:#ffdba6;stop-opacity:1;"
         offset="0"
         id="stop21" />
      <stop
         style="stop-color:#f2c478;stop-opacity:1;"
         offset="1"
         id="stop22" />
    </linearGradient>
    <linearGradient
       inkscape:collect="always"
       xlink:href="#linearGradient22"
       id="linearGradient2795"
       gradientUnits="userSpaceOnUse"
       gradientTransform="translate(-311.81167,-212.60334)"
       x1="289.06915"
       y1="220.19536"
       x2="289.06967"
       y2="143.72234" />
    <clipPath
       clipPathUnits="userSpaceOnUse"
       id="clipPath1316-31-6">
      <path
         d="M 0,2834.646 H 2834.646 V 0 H 0 Z"
         transform="translate(-531.98141,-1560.2174)"
         id="path1316-2-1" />
    </clipPath>
  </defs>
  <g
     id="g24">
    <path
       id="path1315-19-1"
       d="m 0,0 -21.223,7.255 c -0.337,0.115 -0.707,0.115 -1.044,0 L -43.49,0 c -0.512,-0.175 -0.879,-0.593 -0.956,-1.088 L -54.328,-64.8 c -0.128,-0.823 0.569,-1.559 1.477,-1.559 h 31.106 31.106 c 0.907,0 1.605,0.736 1.477,1.559 L 0.955,-1.088 C 0.879,-0.593 0.512,-0.175 0,0"
       style="font-variation-settings:normal;vector-effect:none;fill:url(#linearGradient2795);fill-opacity:1;fill-rule:nonzero;stroke:none;stroke-width:1.70079;stroke-linecap:butt;stroke-linejoin:miter;stroke-miterlimit:10;stroke-dasharray:none;stroke-dashoffset:0;stroke-opacity:1;-inkscape-stroke:none;stop-color:#000000"
       transform="matrix(0.35277776,0,0,-0.35277776,22.671156,6.5899252)"
       clip-path="url(#clipPath1316-31-6)"
       sodipodi:nodetypes="ccccccscsccc" />
    <g
       id="path21"
       clip-path="url(#clipPath1316-31-6)"
       style="opacity:1"
       transform="matrix(0.35277776,0,0,-0.35277776,22.671156,6.5899252)">
      <path
         style="baseline-shift:baseline;display:inline;overflow:visible;vector-effect:none;fill:#4d3608;stroke-miterlimit:10;enable-background:accumulate;stop-color:#000000;stop-opacity:1"
         d="m -52.851562,-67.208984 c -1.367538,0 -2.528283,1.176761 -2.316407,2.539062 l 9.88086,63.71289075 c 0.128905,0.82867499 0.735012,1.4929052 1.521484,1.76171875 l 21.224609,7.2558594 c 0.517058,0.1764439 1.07474,0.1764439 1.591797,0 h 0.002 L 0.27539063,0.8046875 C 1.0612855,0.53607108 1.666892,-0.12796753 1.7949219,-0.95703125 v -0.001953 L 11.677734,-64.669922 c 0.21198,-1.362966 -0.949361,-2.539062 -2.3164059,-2.539062 H -21.744141 Z m 0,1.701172 h 31.107421 31.1054691 c 0.4469554,0 0.6807389,0.293137 0.6367188,0.576171 v 0.002 L 0.11523437,-1.2167969 c -0.02457881,0.1600857 -0.15309665,0.33092295 -0.390625,0.4121094 L -21.498047,6.4511719 v -0.00195 c -0.156943,0.053556 -0.337198,0.053556 -0.49414,0 v 0.00195 l -21.222657,-7.2558594 c -0.237528,-0.0811865 -0.36553,-0.2527375 -0.390625,-0.4140625 l -9.882812,-63.710937 v -0.002 c -0.04412,-0.283699 0.188256,-0.576171 0.636719,-0.576171 z"
         id="path23" />
    </g>
  </g>
  <path
     style="baseline-shift:baseline;display:inline;overflow:visible;opacity:1;vector-effect:none;fill:#000000 icc-color(sRGB-IEC61966-2, 0.1, 0, 0, 0);stroke-width:0.352778;stroke-miterlimit:10;enable-background:accumulate;stop-color:#000000;stop-opacity:1"
     d="m 14.775313,22.999791 -6.89e-4,-4.1789 h 0.450618 v 4.1789 z"
     id="path1317-86-8" />
  <path
     style="baseline-shift:baseline;display:inline;overflow:visible;opacity:1;vector-effect:none;fill:#000000 icc-color(sRGB-IEC61966-2, 0.1, 0, 0, 0);stroke-width:0.352778;stroke-miterlimit:10;enable-background:accumulate;stop-color:#000000;stop-opacity:1"
     d="M 10.820722,23.225438 V 22.77482 h 8.35849 v 0.450618 z"
     id="path1323-8-4" />
  <path
     style="font-size:8.46667px;font-family:Osaka;fill:#000000 icc-color(sRGB-IEC61966-2, 0.1, 0, 0, 0);stroke-width:0.352777"
     d="M 14.669255,10.743353 V 10.14804 H 12.91639 v 0.595313 z m 2.745053,0 V 10.14804 h -2.017449 v 0.595313 z M 15.297641,9.0897062 h -1.852084 l -0.529167,0.463021 h 1.885157 q 0.165364,-0.1322917 0.496094,-0.463021 z m -0.892969,-1.0252608 -0.33073,0.3968752 h 1.91823 l 0.132292,-0.066146 0.429948,0.463021 q -0.264583,0.2645835 -0.463021,0.4299481 -0.165365,0.1653647 -0.297656,0.2645834 h 2.414323 v 1.7859379 h -1.819011 q 0.06615,0.56224 0.297657,1.058334 0.330729,-0.23151 0.661458,-0.463021 0.33073,-0.23151 0.628386,-0.429948 l 0.56224,0.595313 q -0.992188,0.628386 -1.521355,0.926042 0.760677,1.058334 1.819011,1.587501 -0.396875,0.396875 -0.56224,0.694531 -0.859896,-0.595313 -1.157552,-0.926042 -0.396875,-0.363802 -0.694532,-0.892969 -0.330729,-0.496094 -0.496094,-0.992188 -0.165364,-0.363802 -0.297656,-1.157553 h -0.628386 l -0.23151,0.165365 q 0.529167,0.628386 0.79375,1.256771 0.231511,0.56224 0.231511,1.422136 0,0.429949 -0.165365,0.760678 -0.132292,0.297656 -0.463021,0.396875 -0.363802,0.132292 -1.091407,0.165365 -0.06615,-0.463021 -0.198437,-0.760678 h 0.760677 q 0.231511,0 0.264584,-0.09922 0.132291,-0.132291 0.132291,-0.496094 0,-0.198437 -0.03307,-0.363802 -1.223698,0.661459 -1.620573,0.826824 -0.496094,0.23151 -1.719793,0.595312 -0.297656,-0.628385 -0.363802,-0.694531 1.951303,-0.463021 3.538804,-1.488282 0,0 -0.132292,-0.330729 -0.79375,0.463021 -1.256771,0.661458 -0.33073,0.132292 -1.521355,0.529167 -0.06615,-0.198438 -0.396875,-0.628386 1.554427,-0.363802 2.877345,-1.091406 l -0.231511,-0.297657 q -1.190625,0.628386 -2.546616,0.992188 -0.132291,-0.363802 -0.396875,-0.694531 1.521355,-0.33073 2.414324,-0.826824 h -1.455212 v -1.25677 Q 11.79191,10.37955 11.692691,10.445696 11.527327,10.214186 11.163524,9.8503836 12.651806,8.8581957 13.610921,7.799862 Z"
     id="text1328-86-9"
     aria-label="象" />
  <path
     style="baseline-shift:baseline;display:inline;overflow:visible;opacity:1;vector-effect:none;fill:#000000 icc-color(sRGB-IEC61966-2, 0.1, 0, 0, 0);stroke-width:0.352778;stroke-miterlimit:10;enable-background:accumulate;stop-color:#000000;stop-opacity:1"
     d="m 11.885457,25.796066 5.910345,-5.910345 0.318636,0.318636 -5.910345,5.910345 z"
     id="path2796-3" />
  <path
     style="baseline-shift:baseline;display:inline;overflow:visible;opacity:1;vector-effect:none;fill:#000000 icc-color(sRGB-IEC61966-2, 0.1, 0, 0, 0);stroke-width:0.352778;stroke-miterlimit:10;enable-background:accumulate;stop-color:#000000;stop-opacity:1"
     d="m 11.885481,20.204376 0.318636,-0.318636 5.910345,5.910345 -0.318636,0.318636 z"
     id="path2798-7" />
</svg>
