<?xml version="1.0" encoding="UTF-8" standalone="no"?>
<!-- Created with Inkscape (http://www.inkscape.org/) -->

<svg
   width="26mm"
   height="30mm"
   viewBox="0 0 26 30"
   version="1.1"
   id="svg1"
   xmlns:xlink="http://www.w3.org/1999/xlink"
   xmlns="http://www.w3.org/2000/svg"
   xmlns:svg="http://www.w3.org/2000/svg">
  <defs
     id="defs1">
    <linearGradient
       id="linearGradient22">
      <stop
         style="stop-color:#ffdba6;stop-opacity:1;"
         offset="0"
         id="stop21" />
      <stop
         style="stop-color:#f2c478;stop-opacity:1;"
         offset="1"
         id="stop22" />
    </linearGradient>
    <clipPath
       clipPathUnits="userSpaceOnUse"
       id="clipPath1306">
      <path
         d="M 0,2834.646 H 2834.646 V 0 H 0 Z"
         transform="translate(-603.84452,-1561.3219)"
         id="path1306" />
    </clipPath>
    <linearGradient
       xlink:href="#linearGradient22"
       id="linearGradient8"
       gradientUnits="userSpaceOnUse"
       gradientTransform="translate(-311.81167,-212.60334)"
       x1="289.06915"
       y1="220.19536"
       x2="289.06967"
       y2="143.72234" />
  </defs>
  <g
     id="layer1"
     transform="translate(-216)">
    <g
       id="path2506"
       clip-path="url(#clipPath1306)"
       transform="matrix(0.35277776,0,0,-0.35277776,237.02277,4.2003246)">
      <path
         style="fill:url(#linearGradient8);stroke-miterlimit:10"
         d="m 0,0 -22.28,7.578 c -0.3,0.102 -0.625,0.102 -0.924,0 L -45.484,0 c -0.502,-0.171 -0.868,-0.604 -0.949,-1.125 l -10.308,-66.12 c -0.134,-0.86 0.535,-1.636 1.411,-1.636 h 32.588 32.588 c 0.875,0 1.545,0.776 1.41,1.636 L 0.948,-1.125 C 0.867,-0.604 0.502,-0.171 0,0"
         id="path20" />
      <path
         style="fill:#4d3608;stroke-miterlimit:10"
         d="m -55.330078,-69.730469 c -1.378212,0 -2.464222,1.254865 -2.251953,2.617188 l 10.308594,66.11914037 c 0.129751,0.83457482 0.718286,1.52722461 1.515625,1.79882813 l 22.279296,7.578125 c 0.47722,0.1627974 0.995439,0.1622541 1.472657,0 L 0.2734375,0.8046875 C 1.0711028,0.53297283 1.6594742,-0.16061568 1.7890625,-0.99414063 L 12.095703,-67.113281 c 0.214001,-1.363265 -0.872214,-2.617188 -2.2499999,-2.617188 H -22.742187 Z m 0,1.699219 h 32.587891 32.5878901 c 0.3722139,0 0.6263119,0.297561 0.5703129,0.654297 L 0.10742187,-1.2558594 c -0.03241166,0.2084751 -0.17452466,0.38088657 -0.38085937,0.4511719 l -22.2812495,7.578125 c -0.122783,0.041746 -0.25422,0.041203 -0.375,0 l -22.279297,-7.578125 c -0.206661,-0.0703965 -0.350564,-0.2437467 -0.382813,-0.4511719 L -55.900391,-67.376953 c -0.05459,-0.356865 0.197159,-0.654297 0.570313,-0.654297 z"
         id="path21" />
    </g>
    <path
       style="stroke-width:0.352777"
       d="M 228.66927,8.6314085 V 8.0360958 h -1.75287 v 0.5953127 z m 2.74505,0 V 8.0360958 h -2.01745 V 8.6314085 Z M 229.29765,6.977762 h -1.85208 l -0.52917,0.463021 h 1.88516 q 0.16537,-0.1322917 0.49609,-0.463021 z m -0.89296,-1.0252608 -0.33073,0.3968752 h 1.91823 l 0.13229,-0.066146 0.42995,0.463021 q -0.26459,0.2645835 -0.46302,0.4299481 -0.16537,0.1653647 -0.29766,0.2645834 h 2.41432 v 1.7859383 h -1.81901 q 0.0661,0.5622398 0.29766,1.0583338 0.33073,-0.23151 0.66146,-0.4630211 0.33073,-0.2315105 0.62838,-0.4299481 l 0.56224,0.5953127 q -0.99219,0.6283855 -1.52135,0.9260425 0.76067,1.058333 1.81901,1.5875 -0.39688,0.396875 -0.56224,0.694532 -0.8599,-0.595313 -1.15755,-0.926042 -0.39688,-0.363802 -0.69454,-0.892969 -0.33072,-0.496094 -0.49609,-0.992188 -0.16536,-0.363802 -0.29766,-1.1575528 H 229 l -0.23151,0.1653646 q 0.52916,0.6283862 0.79375,1.2567712 0.23151,0.56224 0.23151,1.422136 0,0.429948 -0.16537,0.760678 -0.13229,0.297656 -0.46302,0.396875 -0.3638,0.132291 -1.0914,0.165364 -0.0661,-0.463021 -0.19844,-0.760677 h 0.76068 q 0.23151,0 0.26458,-0.09922 0.13229,-0.132291 0.13229,-0.496094 0,-0.198437 -0.0331,-0.363802 -1.2237,0.661459 -1.62057,0.826823 -0.4961,0.231511 -1.7198,0.595313 -0.29765,-0.628386 -0.3638,-0.694531 1.9513,-0.463021 3.5388,-1.488282 0,0 -0.13229,-0.33073 -0.79375,0.463021 -1.25677,0.661459 -0.33073,0.132292 -1.52135,0.529167 -0.0661,-0.198438 -0.39688,-0.628386 1.55443,-0.363802 2.87735,-1.091406 l -0.23151,-0.297657 q -1.19063,0.628386 -2.54662,0.992188 -0.13229,-0.363802 -0.39688,-0.694531 1.52136,-0.3307299 2.41433,-0.8268238 H 226.1888 V 7.9699499 q -0.39688,0.2976564 -0.49609,0.3638023 -0.16537,-0.2315106 -0.52917,-0.5953128 1.48828,-0.9921879 2.4474,-2.0505216 z"
       id="text2506"
       aria-label="象" />
    <path
       style="stroke-miterlimit:10"
       d="m -0.63671875,12.755859 -0.001953,12.75586 h 1.27734374 v -12.75586 z"
       id="path2526"
       transform="matrix(0.35277776,0,0,-0.35277776,228.99987,25.49997)" />
    <path
       style="stroke-miterlimit:10"
       d="M -25.511719,-0.63867187 V 0.63867187 H 0 v -1.27734374 z"
       id="path2536"
       transform="matrix(0.35277776,0,0,-0.35277776,233.49987,20.999963)" />
    <path
       style="stroke-miterlimit:10"
       d="M -0.45117188,-0.45117188 -18.490234,17.587891 -17.589844,18.490234 0.45117188,0.45117188 Z"
       id="path2538"
       transform="matrix(0.35277776,0,0,-0.35277776,232.18183,24.181948)" />
    <path
       style="stroke-miterlimit:10"
       d="m -17.589844,-18.490234 -0.90039,0.902343 18.03906212,18.03906288 0.90234376,-0.90234376 z"
       id="path2540"
       transform="matrix(0.35277776,0,0,-0.35277776,232.18183,17.818005)" />
  </g>
</svg>
