<?xml version="1.0" encoding="UTF-8" standalone="no"?>
<!-- Created with Inkscape (http://www.inkscape.org/) -->

<svg
   width="27.117002mm"
   height="31.358999mm"
   viewBox="0 0 27.117003 31.358999"
   version="1.1"
   id="svg1"
   xmlns:xlink="http://www.w3.org/1999/xlink"
   xmlns="http://www.w3.org/2000/svg"
   xmlns:svg="http://www.w3.org/2000/svg">
  <defs
     id="defs1">
    <linearGradient
       id="linearGradient22">
      <stop
         style="stop-color:#ffdba6;stop-opacity:1;"
         offset="0"
         id="stop21" />
      <stop
         style="stop-color:#f2c478;stop-opacity:1;"
         offset="1"
         id="stop22" />
    </linearGradient>
    <clipPath
       clipPathUnits="userSpaceOnUse"
       id="clipPath1374-00-0-1">
      <path
         d="M 0,2834.646 H 2834.646 V 0 H 0 Z"
         transform="translate(-461.11531,-1475.1781)"
         id="path1374-9-6-4" />
    </clipPath>
    <linearGradient
       xlink:href="#linearGradient22"
       id="linearGradient5"
       gradientUnits="userSpaceOnUse"
       gradientTransform="translate(198.16814,-976.03158)"
       x1="234.38948"
       y1="984.22375"
       x2="234.38948"
       y2="908.8222" />
  </defs>
  <g
     id="layer1"
     transform="translate(-148.46802)">
    <g
       id="path1373-4-6-7"
       clip-path="url(#clipPath1374-00-0-1)"
       transform="matrix(0.35277776,0,0,-0.35277776,169.69765,5.2695153)">
      <path
         style="color:#000000;fill:url(#linearGradient5);stroke-miterlimit:10;-inkscape-stroke:none"
         d="m 0,0 -21.223,7.255 c -0.337,0.115 -0.707,0.115 -1.044,0 L -43.49,0 c -0.512,-0.175 -0.879,-0.592 -0.956,-1.088 L -54.328,-64.8 c -0.128,-0.823 0.569,-1.559 1.477,-1.559 h 31.106 31.106 c 0.907,0 1.605,0.736 1.477,1.559 L 0.955,-1.088 C 0.879,-0.592 0.512,-0.175 0,0"
         id="path33" />
      <path
         style="color:#000000;fill:#4d3608;stroke-miterlimit:10;-inkscape-stroke:none"
         d="m -52.851562,-67.208984 c -1.367537,0 -2.528283,1.176762 -2.316407,2.539062 l 9.88086,63.71289075 c 0.128752,0.82936477 0.735951,1.49322613 1.521484,1.76171875 l 21.224609,7.2558594 c 0.517057,0.1764437 1.07474,0.1764437 1.591797,0 h 0.002 L 0.27539063,0.8046875 C 1.060348,0.53639151 1.6670432,-0.12728558 1.7949219,-0.95703125 v -0.001953 L 11.677734,-64.669922 c 0.21198,-1.362964 -0.949363,-2.539062 -2.3164059,-2.539062 H -21.744141 Z m 0,1.701172 h 31.107421 31.1054691 c 0.4469549,0 0.6807389,0.293137 0.6367188,0.576171 v 0.002 L 0.11523437,-1.2167969 c -0.02473099,0.1614023 -0.15215872,0.33060237 -0.390625,0.4121094 L -21.498047,6.4511719 v -0.00195 c -0.156942,0.053556 -0.337198,0.053556 -0.49414,0 v 0.00195 l -21.222657,-7.2558594 c -0.238466,-0.081507 -0.365377,-0.2514283 -0.390625,-0.4140625 l -9.882812,-63.710937 v -0.002 c -0.04412,-0.283698 0.188257,-0.576171 0.636719,-0.576171 z"
         id="path34" />
    </g>
    <path
       style="fill:#ff0000;stroke-width:0.352777"
       d="m 162.04304,7.1867342 q -1.25677,0 -2.11666,0.8598962 -0.8599,0.8598962 -0.8599,2.0835946 0,1.223698 0.8599,2.083595 0.85989,0.892969 2.11666,0.892969 1.25677,0 2.0836,-0.892969 0.85989,-0.859897 0.85989,-2.083595 0,-1.2236984 -0.85989,-2.0835946 -0.8599,-0.8598962 -2.0836,-0.8598962 z m 0,-0.7276044 q 1.48828,0 2.61276,1.0583337 1.09141,1.0914067 1.09141,2.6458345 0,1.554428 -1.09141,2.645834 -1.0914,1.091407 -2.61276,1.091407 -1.55443,0 -2.64583,-1.091407 -1.09141,-1.091406 -1.09141,-2.645834 0,-1.5213549 1.09141,-2.6127615 1.0914,-1.0914067 2.64583,-1.0914067 z"
       id="text1374-8-4-4"
       aria-label="〇" />
    <path
       style="color:#000000;fill:#ff0000;stroke-miterlimit:10;-inkscape-stroke:none"
       d="M -0.63867187,0 V 14.173828 H 0.63867187 V 0 Z"
       id="path1411-6-7-1"
       transform="matrix(0,-0.35277776,-0.35277776,0,164.52664,20.679853)" />
    <path
       style="color:#000000;fill:#ff0000;stroke-miterlimit:10;-inkscape-stroke:none"
       d="M -14.173828,-0.63867187 V 0.63867187 H 0 v -1.27734374 z"
       id="path1413-7-2-9"
       transform="matrix(0,-0.35277776,-0.35277776,0,162.02659,18.179885)" />
    <path
       style="color:#000000;fill:#ff0000;stroke-miterlimit:10;-inkscape-stroke:none"
       d="M -0.63867187,0 V 23.693359 H 0.63867187 V 0 Z"
       id="path1317-1-0-3"
       transform="matrix(0.24945155,-0.24945155,-0.24945155,-0.24945155,164.98168,23.634773)" />
    <path
       style="color:#000000;fill:#ff0000;stroke-miterlimit:10;-inkscape-stroke:none"
       d="M -23.693359,-0.63867187 V 0.63867187 H 0 v -1.27734374 z"
       id="path1323-3-0-1"
       transform="matrix(0.24945155,-0.24945155,-0.24945155,-0.24945155,164.98171,17.724405)" />
    <path
       style="color:#000000;fill:#ff0000;stroke-miterlimit:10;-inkscape-stroke:none"
       d="M -0.28515625,-0.28515625 -3.2910156,2.7226563 -2.7226563,3.2910156 0.28515625,0.28515625 Z"
       id="path4451-7-08-5-0-7"
       transform="matrix(-0.55928609,0,0,0.55929249,164.72114,16.303407)" />
    <path
       style="color:#000000;fill:#ff0000;stroke-miterlimit:10;-inkscape-stroke:none"
       d="M -0.28515625,-0.28515625 -3.2910156,2.7226563 -2.7226563,3.2910156 0.28515625,0.28515625 Z"
       id="path4451-7-08-1-1"
       transform="matrix(-0.55928609,0,0,0.55929249,157.6501,23.374449)" />
    <path
       style="color:#000000;fill:#ff0000;stroke-miterlimit:10;-inkscape-stroke:none"
       d="M -0.28515625,-0.28515625 -3.2910156,2.7226563 -2.7226563,3.2910156 0.28515625,0.28515625 Z"
       id="path4451-7-08-5-4-29-9"
       transform="matrix(0,-0.55928609,-0.55929249,0,166.40315,23.374688)" />
    <path
       style="color:#000000;fill:#ff0000;stroke-miterlimit:10;-inkscape-stroke:none"
       d="M 0.28515625,-0.28515625 -0.28515625,0.28515625 2.7226563,3.2910156 3.2910156,2.7226563 Z"
       id="path4449-0-4-3-4-4"
       transform="matrix(0.55928609,0,0,-0.55929249,157.65001,17.984808)" />
    <path
       style="color:#000000;fill:#ff0000;stroke-miterlimit:10;-inkscape-stroke:none"
       d="M 0.40429688,-0.40429688 -0.40429688,0.40429688 2.1484375,2.9570313 4.7011719,0.40429688 3.890625,-0.40429688 2.1484375,1.3398437 Z"
       id="path4671-0-44-6"
       transform="matrix(0.27796635,-0.27796635,-0.27796648,-0.27796648,159.0713,18.918681)" />
    <path
       style="color:#000000;fill:#ff0000;stroke-miterlimit:10;-inkscape-stroke:none"
       d="m -2.1484375,-2.9570313 -2.5527344,2.55273442 0.8105469,0.80859376 1.7421875,-1.74414058 1.74414062,1.74414058 0.80859376,-0.80859376 z"
       id="path4673-4-0-65"
       transform="matrix(0.27796635,-0.27796635,-0.27796648,-0.27796648,164.98169,22.440947)" />
    <path
       style="color:#000000;fill:#ff0000;stroke-miterlimit:10;-inkscape-stroke:none"
       d="M 0.40429688,-0.40429688 -0.40429688,0.40429688 2.1484375,2.9570313 4.7011719,0.40429688 3.890625,-0.40429688 2.1484375,1.3398437 Z"
       id="path4671-0-44-9-5"
       transform="matrix(0.27796635,0.27796635,0.27796648,-0.27796648,163.78763,17.724616)" />
    <path
       style="color:#000000;fill:#ff0000;stroke-miterlimit:10;-inkscape-stroke:none"
       d="m -2.1484375,-2.9570313 -2.5527344,2.55273442 0.8105469,0.80859376 1.7421875,-1.74414058 1.74414062,1.74414058 0.80859376,-0.80859376 z"
       id="path4673-4-0-6-9"
       transform="matrix(0.27796635,0.27796635,0.27796648,-0.27796648,160.26535,23.635011)" />
  </g>
</svg>
