<svg height="31.358999mm" viewBox="0 0 27.117003 31.358999" width="27.117002mm" xmlns="http://www.w3.org/2000/svg" xmlns:xlink="http://www.w3.org/1999/xlink"><clipPath id="a"><path d="m0 2834.646h2834.646v-2834.646h-2834.646z" transform="translate(-531.98141 -1475.1781)"/></clipPath><clipPath id="b"><path d="m0 2834.646h2834.646v-2834.646h-2834.646z" transform="translate(-494.73181 -43.851026)"/></clipPath><clipPath id="c"><path d="m0 2834.646h2834.646v-2834.646h-2834.646z" transform="translate(-494.73181 -43.851026)"/></clipPath><clipPath id="d"><path d="m0 2834.646h2834.646v-2834.646h-2834.646z" transform="translate(-494.73181 -43.851026)"/></clipPath><clipPath id="e"><path d="m0 2834.646h2834.646v-2834.646h-2834.646z" transform="translate(-491.72521 -43.851026)"/></clipPath><clipPath id="f"><path d="m0 2834.646h2834.646v-2834.646h-2834.646z" transform="translate(-1148.7975 -1175.6119)"/></clipPath><clipPath id="g"><path d="m0 2834.646h2834.646v-2834.646h-2834.646z" transform="translate(-1148.7975 -1175.6119)"/></clipPath><clipPath id="h"><path d="m0 2834.646h2834.646v-2834.646h-2834.646z" transform="translate(-1148.7975 -1175.6119)"/></clipPath><clipPath id="i"><path d="m0 2834.646h2834.646v-2834.646h-2834.646z" transform="translate(-1148.7975 -1175.6119)"/></clipPath><linearGradient id="j" gradientUnits="userSpaceOnUse" x1="748.19823" x2="748.19823" y1="8.19215" y2="-67.2094"><stop offset="0" stop-color="#ffdba6"/><stop offset="1" stop-color="#f2c478"/></linearGradient><g clip-path="url(#a)" stroke-miterlimit="10" transform="matrix(.35277776 0 0 -.35277776 21.22964 5.269515)"><path d="m0 0-21.223 7.255c-.337.115-.707.115-1.044 0l-21.223-7.255c-.512-.175-.879-.592-.956-1.088l-9.882-63.712c-.128-.823.569-1.559 1.477-1.559h31.106 31.106c.907 0 1.605.736 1.477 1.559l-9.883 63.712c-.076.496-.443.913-.955 1.088" fill="url(#j)"/><path d="m-52.851562-67.208984c-1.367537 0-2.528283 1.176762-2.316407 2.539062l9.88086 63.71289075c.128752.82936477.735951 1.49322613 1.521484 1.76171875l21.224609 7.2558594c.517057.1764437 1.07474.1764437 1.591797 0h.002l21.22260963-7.2558594c.78495737-.26829599 1.39165257-.93197308 1.51953127-1.76171875v-.001953l9.8828121-63.71093775c.21198-1.362964-.949363-2.539062-2.3164059-2.539062h-31.1054691zm0 1.701172h31.107421 31.1054691c.4469549 0 .6807389.293137.6367188.576171v.002l-9.88281253 63.7128441c-.02473099.1614023-.15215872.33060237-.390625.4121094l-21.22265637 7.2558594v-.00195c-.156942.053556-.337198.053556-.49414 0v.00195l-21.222657-7.2558594c-.238466-.081507-.365377-.2514283-.390625-.4140625l-9.882812-63.710937v-.002c-.04412-.283698.188257-.576171.636719-.576171z" fill="#4d3608"/></g><g fill="#f00"><path d="m192.88611 11.549459v-1.6136381h.5145v1.6136381h1.12253q0 .584651.0234.912056l.60804-.561265.37418.35079-.49111.420949.60804.233861-.23386.444335q-.0468-.02339-.30402-.11693-.23386-.116931-.46772-.210475.18709.444335.42095.701582.18709.187088.25724.187088.0234 0 .0702-.04677.0702-.11693.14032-.397563.11693.09355.44433.280633-.11693.420949-.25724.537879-.14032.140317-.30402.140317-.25725 0-.63143-.257247-.3274-.233861-.51449-.701582-.21047-.514493-.23386-1.426549h-.63142v2.408764h-.5145v-2.408764h-.79512q-.0468.724968-.11693.982214-.11693.374177-.23386.584652-.28063.374177-.30402.420949-.0468.07016-.49111.444335-.23386-.327405-.37418-.444335.39757-.304019.56127-.514494.21047-.304018.30402-.584651.0935-.304019.14032-.88867h-.91206v-.491107h.91206v-.748354q-.14032.04677-.79513.210474-.14032-.327404-.23386-.491107.49111-.07016.77174-.140316.23386-.07016 1.07576-.350791l.25724.420949q-.28063.11693-.53788.210475v.88867zm1.16931-1.7539544h-3.25066v-.4911072h3.74176q-.0234.2104745.0234.7015816.14032-.1637023.30402-.3274047.1637-.1870884.3274-.3507908l.37418.3741769q-.1637.1403163-.3274.2806326-.14032.11693-.28064.233861.0702.02339.23386.09354.18709.04677.49111.140316l-.21047.420949-.81852-.304019q.18709.350791.46773.631424.1637.163702.28063.163702.0234 0 .0702-.04677 0 0 .11693-.327405.1637.163703.46772.280633-.18709.444335-.25725.514493-.11693.116931-.23386.116931-.25725 0-.65481-.257247-.42095-.257247-.58465-.631424-.21047-.374176-.28063-1.2160744z" stroke-width=".352777" transform="matrix(1.4142136 0 0 .70710676 -259.819 0)"/><path d="m190.54191 18.166866.46284-.146163q.26797.657733.29233.876977l-.43849.194884q-.0974-.389768-.31668-.925698zm1.90011-.170524.46285.194884-.38977.828256q-.0974-.02436-.19488-.09744-.0487-.02436-.0974-.04872-.0487-.02436-.1218-.02436.0731-.170523.14616-.365407.0974-.194884.19488-.48721zm2.7771-1.120581v-.560291h-1.43727v.560291zm0-1.02314v-.560291h-1.43727v.560291zm-1.99756 3.678431v-4.750291h2.53349v2.60657h-.90134q.0487.462849.0487.487209.0244.09744.0731.341047l.85262-.633372.34104.487209q-.29232.170523-.99878.633372.0975.243605.24361.414128.19488.243605.29233.341047.0974.04872.19488.121802.0974.04872.31669.194884-.14617.146163-.21925.194883-.0487.04872-.0974.09744-.0244.02436-.0731.07308-.0244.04872-.0731.09744-.53593-.414128-.73082-.682094-.31668-.365407-.46285-.803895-.21924-.633372-.2436-1.364186h-.53593v1.997558q.21924-.07308.41413-.121802.19488-.04872.38976-.09744l.0244.53593q-1.51034.438489-1.68087.48721l-.14616-.560291zm-1.60779-5.042617.51157.267965-.0731.121803.43849.341046q.0487.02436.17053.146163l.3654.292326-.38976.462848q-.63338-.584651-.63338-.584651-.0731-.07308-.14616-.121802-.0487-.04872-.0974-.07308-.41413.657733-.68209.925698h1.53471v.462849h-.60902v.51157h.75518v.462849h-.75518v1.55907q.48721-.09744.73082-.170523v.511569q-.51157.146163-1.1693.292326l-.9257.219244-.14617-.584651.99878-.146163v-1.680872h-.85261v-.462849h.85261v-.51157h-.48721v-.365407l-.29232.316686q-.19488-.341046-.31669-.51157.6821-.682093 1.21803-1.680872z" stroke-width=".352777" transform="matrix(1.4142136 0 0 .70710676 -259.819 0)"/><g clip-path="url(#b)" stroke-miterlimit="10" transform="matrix(-.39547498 -.39547498 -.3954795 .3954795 19.05847 19.490287)"><path d="m0 0-3.007 3.007"/><path d="m-.28515625-.28515625-3.00585935 3.00781255.5683593.5683593 3.00781255-3.00585935z"/></g><g clip-path="url(#c)" stroke-miterlimit="10" transform="matrix(-.39547498 -.39547498 -.3954795 .3954795 8.05852 19.490287)"><path d="m0 0-3.007 3.007"/><path d="m-.28515625-.28515625-3.00585935 3.00781255.5683593.5683593 3.00781255-3.00585935z"/></g><g clip-path="url(#d)" stroke-miterlimit="10" transform="matrix(.39547498 -.39547498 -.3954795 -.3954795 14.74769 26.179853)"><path d="m0 0-3.007 3.007"/><path d="m-.28515625-.28515625-3.00585935 3.00781255.5683593.5683593 3.00781255-3.00585935z"/></g><g clip-path="url(#e)" stroke-miterlimit="10" transform="matrix(.39547498 .39547498 .3954795 -.3954795 12.3695 15.179113)"><path d="m0 0 3.007 3.007"/><path d="m.28515625-.28515625-.5703125.5703125 3.00781255 3.00585935.5683593-.5683593z"/></g><path d="m-.63867187-.91015625v25.51171825h1.27734374v-25.51171825z" stroke-miterlimit="10" transform="matrix(.35277776 0 0 -.35277776 13.55864 24.858577)"/><path d="m-.28515625-.28515625-3.00585935 3.00781255.5683593.5683593 3.00781255-3.00585935z" stroke-miterlimit="10" transform="matrix(.39547498 .39547498 .3954795 -.3954795 9.05848 21.868573)"/><path d="m.28515625-.28515625-.5703125.5703125 3.00781255 3.00585935.5683593-.5683593z" stroke-miterlimit="10" transform="matrix(-.39547498 .39547498 .3954795 .3954795 18.05848 19.490393)"/><path d="m-.28515625-.28515625-3.00585935 3.00781255.5683593.5683593 3.00781255-3.00585935z" stroke-miterlimit="10" transform="matrix(.39547498 -.39547498 -.3954795 -.3954795 14.74769 25.17949)"/><path d="m.28515625-.28515625-.5703125.5703125 3.00781255 3.00585935.5683593-.5683593z" stroke-miterlimit="10" transform="matrix(.39547498 .39547498 .3954795 -.3954795 12.3695 16.179503)"/><path d="m-24.603516-.63867187v1.27734374h25.51171913v-1.27734374z" stroke-miterlimit="10" transform="matrix(.35277776 0 0 -.35277776 17.73793 20.679324)"/><path clip-path="url(#f)" d="m0 0c-.423-.423-1.109-.423-1.532 0s-.423 1.109 0 1.532 1.109.423 1.532 0 .423-1.109 0-1.532z" transform="matrix(.36130079 .36130079 .35669982 -.35669982 12.06201 22.729528)"/><path clip-path="url(#g)" d="m0 0c-.423-.423-1.109-.423-1.532 0s-.423 1.109 0 1.532 1.109.423 1.532 0 .423-1.109 0-1.532z" transform="matrix(.36130079 .36130079 .35669982 -.35669982 15.06201 19.72947)"/><path clip-path="url(#h)" d="m0 0c-.423-.423-1.109-.423-1.532 0s-.423 1.109 0 1.532 1.109.423 1.532 0 .423-1.109 0-1.532z" transform="matrix(.36130079 -.36130079 -.35669982 -.35669982 15.60847 22.175966)"/><path clip-path="url(#i)" d="m0 0c-.423-.423-1.109-.423-1.532 0s-.423 1.109 0 1.532 1.109.423 1.532 0 .423-1.109 0-1.532z" transform="matrix(.36130079 -.36130079 -.35669982 -.35669982 12.60848 19.175962)"/></g></svg>