<?xml version="1.0" encoding="UTF-8" standalone="no"?>
<!-- Created with Inkscape (http://www.inkscape.org/) -->

<svg
   width="30mm"
   height="34mm"
   viewBox="0 0 30 34"
   version="1.1"
   id="svg1"
   xmlns:xlink="http://www.w3.org/1999/xlink"
   xmlns="http://www.w3.org/2000/svg"
   xmlns:svg="http://www.w3.org/2000/svg">
  <defs
     id="defs1">
    <linearGradient
       id="linearGradient22">
      <stop
         style="stop-color:#ffdba6;stop-opacity:1;"
         offset="0"
         id="stop21" />
      <stop
         style="stop-color:#f2c478;stop-opacity:1;"
         offset="1"
         id="stop22" />
    </linearGradient>
    <clipPath
       clipPathUnits="userSpaceOnUse"
       id="clipPath1374-00-0-1-6-1">
      <path
         d="M 0,2834.646 H 2834.646 V 0 H 0 Z"
         transform="translate(-461.11531,-1475.1781)"
         id="path1374-9-6-4-7-06" />
    </clipPath>
    <clipPath
       clipPathUnits="userSpaceOnUse"
       id="clipPath2004-1-8-2-55-5-4-2-28-4-2-8-8-62">
      <path
         d="M 0,2834.646 H 2834.646 V 0 H 0 Z"
         transform="translate(-1148.7975,-1175.6119)"
         id="path2004-0-0-7-1-8-7-0-6-1-8-7-4-55" />
    </clipPath>
    <linearGradient
       xlink:href="#linearGradient22"
       id="linearGradient175"
       gradientUnits="userSpaceOnUse"
       gradientTransform="translate(-311.81167,-212.60334)"
       x1="289.06915"
       y1="220.19536"
       x2="289.06967"
       y2="143.72234" />
  </defs>
  <g
     id="layer1"
     transform="translate(-576)">
    <g
       id="path1373-4-6-7-2"
       clip-path="url(#clipPath1374-00-0-1-6-1)"
       transform="matrix(0.35277776,0,0,-0.35277776,598.67115,6.5900155)">
      <path
         style="color:#000000;fill:url(#linearGradient175);stroke-miterlimit:10;-inkscape-stroke:none"
         d="m 0,0 -21.223,7.255 c -0.337,0.115 -0.707,0.115 -1.044,0 L -43.49,0 c -0.512,-0.175 -0.879,-0.592 -0.956,-1.088 L -54.328,-64.8 c -0.128,-0.823 0.569,-1.559 1.477,-1.559 h 31.106 31.106 c 0.907,0 1.605,0.736 1.477,1.559 L 0.955,-1.088 C 0.879,-0.592 0.512,-0.175 0,0"
         id="path297" />
      <path
         style="color:#000000;fill:#4d3608;stroke-miterlimit:10;-inkscape-stroke:none"
         d="m -52.851562,-67.208984 c -1.367537,0 -2.528283,1.176762 -2.316407,2.539062 l 9.88086,63.71289075 c 0.128752,0.82936477 0.735951,1.49322613 1.521484,1.76171875 l 21.224609,7.2558594 c 0.517057,0.1764437 1.07474,0.1764437 1.591797,0 h 0.002 L 0.27539063,0.8046875 C 1.060348,0.53639151 1.6670432,-0.12728558 1.7949219,-0.95703125 v -0.001953 L 11.677734,-64.669922 c 0.21198,-1.362964 -0.949363,-2.539062 -2.3164059,-2.539062 H -21.744141 Z m 0,1.701172 h 31.107421 31.1054691 c 0.4469549,0 0.6807389,0.293137 0.6367188,0.576171 v 0.002 L 0.11523437,-1.2167969 c -0.02473099,0.1614023 -0.15215872,0.33060237 -0.390625,0.4121094 L -21.498047,6.4511719 v -0.00195 c -0.156942,0.053556 -0.337198,0.053556 -0.49414,0 v 0.00195 l -21.222657,-7.2558594 c -0.238466,-0.081507 -0.365377,-0.2514283 -0.390625,-0.4140625 l -9.882812,-63.710937 v -0.002 c -0.04412,-0.283698 0.188257,-0.576171 0.636719,-0.576171 z"
         id="path298" />
    </g>
    <path
       style="fill:#ff0000;stroke-width:0.352777"
       d="M 678.24696,10.106031 V 8.1297361 h 0.63012 v 1.9762949 h 1.37481 q 0,0.716049 0.0286,1.117036 l 0.74469,-0.687407 0.45827,0.429629 -0.60148,0.515556 0.74469,0.286419 -0.28642,0.544197 q -0.0573,-0.02864 -0.37235,-0.14321 -0.28642,-0.143209 -0.57284,-0.257777 0.22914,0.544197 0.51556,0.859258 0.22913,0.229136 0.31506,0.229136 0.0286,0 0.0859,-0.05728 0.0859,-0.14321 0.17185,-0.486913 0.14321,0.114568 0.5442,0.343703 -0.14321,0.515555 -0.31507,0.658765 -0.17185,0.171852 -0.37234,0.171852 -0.31506,0 -0.77333,-0.315062 -0.40099,-0.286419 -0.63013,-0.859258 -0.25777,-0.630123 -0.28642,-1.747159 H 678.877 v 2.950121 h -0.63012 v -2.950121 h -0.97383 q -0.0573,0.8879 -0.14321,1.202962 -0.14321,0.458271 -0.28642,0.716049 -0.3437,0.458271 -0.37234,0.515555 -0.0573,0.08593 -0.60148,0.544197 -0.28642,-0.400987 -0.45828,-0.544197 0.48692,-0.372346 0.68741,-0.630123 0.25778,-0.372346 0.37235,-0.716049 0.11456,-0.372345 0.17185,-1.088394 h -1.11704 v -0.601481 h 1.11704 V 9.1894883 q -0.17185,0.057284 -0.97383,0.2577776 -0.17185,-0.4009873 -0.28642,-0.601481 0.60148,-0.085926 0.94519,-0.1718517 0.28642,-0.085926 1.31753,-0.4296293 l 0.31506,0.5155552 q -0.34371,0.1432097 -0.65877,0.2577775 v 1.0883944 z m 1.4321,-2.1481466 h -3.98124 v -0.601481 h 4.58272 q -0.0286,0.2577776 0.0286,0.8592586 0.17185,-0.2004937 0.37234,-0.4009874 0.2005,-0.2291356 0.40099,-0.4296292 l 0.45827,0.4582712 q -0.20049,0.1718517 -0.40099,0.3437034 -0.17185,0.1432098 -0.3437,0.2864195 0.0859,0.028642 0.28642,0.1145678 0.22914,0.057284 0.60148,0.1718518 l -0.25778,0.5155551 -1.00246,-0.3723454 q 0.22913,0.4296293 0.57284,0.7733327 0.20049,0.2004937 0.3437,0.2004937 0.0286,0 0.0859,-0.057284 0,0 0.14321,-0.4009873 0.2005,0.2004936 0.57284,0.3437034 -0.22913,0.5441967 -0.31506,0.6301227 -0.14321,0.14321 -0.28642,0.14321 -0.31506,0 -0.80197,-0.315061 -0.51556,-0.3150619 -0.71605,-0.7733332 -0.25778,-0.4582712 -0.3437,-1.4893815 z m 3.06468,3.3797506 0.51556,-0.171852 q 0.11457,0.257778 0.37234,1.03111 l -0.54419,0.171852 q -0.11457,-0.486913 -0.34371,-1.03111 z m 2.32,1.002468 q -0.0859,0 -0.51555,-0.200494 l 0.42963,-1.002468 0.54419,0.257778 q -0.31506,0.716048 -0.45827,0.945184 z m 2.03358,-3.7520957 V 7.0986258 h 0.68741 v 1.4893815 h 1.26024 v 0.630123 h -1.28888 l -0.0859,1.0883937 h 1.57531 v 0.601481 h -1.34617 q 0.17185,0.687407 0.28642,0.859259 0.22913,0.429629 0.54419,0.773333 0.11457,0.114568 0.74469,0.630123 -0.20049,0.143209 -0.48691,0.544197 -0.51556,-0.429629 -0.68741,-0.658765 -0.28642,-0.343704 -0.48691,-0.716049 -0.14321,-0.229136 -0.37235,-0.945184 -0.20049,0.630123 -0.37234,0.916542 -0.11457,0.200494 -0.42963,0.572839 -0.14321,0.14321 -0.28642,0.257778 -0.11457,0.14321 -0.22914,0.257777 l -0.51555,0.372346 q 0,0 -0.0859,-0.14321 -0.0573,-0.14321 -0.11456,-0.200494 0,-0.02864 -0.11457,-0.114568 -0.0859,-0.08592 -0.0859,-0.08592 0.80198,-0.544197 1.20296,-1.088395 0.40099,-0.515555 0.51556,-1.231604 h -1.31753 v -0.601481 h 1.4321 l 0.0573,-1.0883937 h -0.80197 q -0.14321,0.3150615 -0.34371,0.8019747 -0.37234,-0.1718518 -0.60148,-0.2577776 0.31506,-0.6587649 0.42963,-1.0597522 0.11457,-0.3437035 0.25778,-1.0597523 l 0.63012,0.1432098 q 0,0.028642 -0.0286,0.1145678 0,0.085926 -0.0286,0.1432098 0,0.028642 -0.11457,0.544197 z M 683.97535,7.0127 l 0.60148,0.3437034 -0.0859,0.1718517 q 0.60148,0.4009873 1.14568,0.9451844 l -0.48691,0.4582713 q -0.63012,-0.601481 -1.00247,-0.8592586 -0.3437,0.5441971 -0.57284,0.8019747 -0.0286,0.057284 -0.0859,0.1145678 -0.0573,0.057284 -0.0859,0.1145678 h 1.74716 v 0.601481 h -0.65877 v 0.5155555 h 0.85926 v 0.544197 h -0.85926 v 1.775801 q 0.71605,-0.14321 0.85926,-0.200494 v 0.658765 l -1.46074,0.343703 -1.05975,0.200494 -0.14321,-0.658765 1.20296,-0.200493 v -1.919011 h -1.03111 v -0.544197 h 1.03111 V 9.7050435 h -0.60148 V 9.2181303 q -0.0859,0.085926 -0.17185,0.2004937 -0.0859,0.085926 -0.20049,0.2004936 -0.11457,-0.3723453 -0.34371,-0.6301229 0.85926,-0.8592586 1.40346,-1.9762947 z"
       id="text1328-5-0-9-7-0-8-5-1"
       transform="scale(0.86602543,1.1547005)"
       aria-label="飛鉄" />
    <path
       id="path3761"
       d="m 0,0 c -0.423,-0.423 -1.109,-0.423 -1.532,0 -0.423,0.423 -0.423,1.109 0,1.532 0.423,0.423 1.109,0.423 1.532,0 C 0.423,1.109 0.423,0.423 0,0 Z"
       style="fill:#ff0000;fill-opacity:1;stroke:none;stroke-width:0.88636;stroke-linecap:butt;stroke-linejoin:miter;stroke-miterlimit:10;stroke-dasharray:none;stroke-opacity:1"
       transform="matrix(0.51095647,0,0,-0.50444971,591.09293,19.644055)"
       clip-path="url(#clipPath2004-1-8-2-55-5-4-2-28-4-2-8-8-62)" />
    <path
       style="color:#000000;fill:#ff0000;stroke-miterlimit:10;-inkscape-stroke:none"
       d="M -0.63867187,-1.4179687 V 25.109375 H 0.63867187 V -1.4179687 Z"
       id="path3763"
       transform="matrix(0.24945156,0.24945156,0.24945156,-0.24945156,587.74633,26.384977)" />
    <path
       style="color:#000000;fill:#ff0000;stroke-miterlimit:10;-inkscape-stroke:none"
       d="M -25.111328,-0.63867187 V 0.63867187 H 1.4160156 v -1.27734374 z"
       id="path3765"
       transform="matrix(0.24945156,0.24945156,0.24945156,-0.24945156,593.65669,26.384977)" />
    <path
       style="color:#000000;fill:#ff0000;stroke-miterlimit:10;-inkscape-stroke:none"
       d="M -0.28515625,-0.28515625 -3.2910156,2.7226563 -2.7226563,3.2910156 0.28515625,0.28515625 Z"
       id="path3767"
       transform="matrix(0,-0.55928609,-0.55929249,0,592.95645,24.003198)" />
    <path
       style="color:#000000;fill:#ff0000;stroke-miterlimit:10;-inkscape-stroke:none"
       d="M -0.28515625,-0.28515625 -3.2910156,2.7226563 -2.7226563,3.2910156 0.28515625,0.28515625 Z"
       id="path3769"
       transform="matrix(0,-0.55928609,-0.55929249,0,590.12821,21.174961)" />
    <path
       style="color:#000000;fill:#ff0000;stroke-miterlimit:10;-inkscape-stroke:none"
       d="M -0.28515625,-0.28515625 -3.2910156,2.7226563 -2.7226563,3.2910156 0.28515625,0.28515625 Z"
       id="path3771"
       transform="matrix(0.55928609,0,0,-0.55929249,590.12768,25.685154)" />
    <path
       style="color:#000000;fill:#ff0000;stroke-miterlimit:10;-inkscape-stroke:none"
       d="M 0.28515625,-0.28515625 -0.28515625,0.28515625 2.7226563,3.2910156 3.2910156,2.7226563 Z"
       id="path3773"
       transform="matrix(0,0.55928609,0.55929249,0,591.27502,21.174564)" />
    <path
       style="color:#000000;fill:#ff0000;stroke-miterlimit:10;-inkscape-stroke:none"
       d="M 0.40429688,-0.40429688 -0.40429688,0.40429688 2.1484375,2.9570313 4.7011719,0.40429688 3.890625,-0.40429688 2.1484375,1.3398437 Z"
       id="path3775"
       transform="matrix(0.27796635,0.27796635,0.27796648,-0.27796648,592.81598,20.121046)" />
    <path
       style="color:#000000;fill:#ff0000;stroke-miterlimit:10;-inkscape-stroke:none"
       d="m -2.1484375,-2.9570313 -2.5527344,2.55273442 0.8105469,0.80859376 1.7421875,-1.74414058 1.74414062,1.74414058 0.80859376,-0.80859376 z"
       id="path3777"
       transform="matrix(0.27796635,0.27796635,0.27796648,-0.27796648,588.58659,26.73854)" />
    <path
       style="color:#000000;fill:#ff0000;stroke-miterlimit:10;-inkscape-stroke:none"
       d="M 0.40429688,-0.40429688 -0.40429688,0.40429688 2.1484375,2.9570313 4.7011719,0.40429688 3.890625,-0.40429688 2.1484375,1.3398437 Z"
       id="path3779"
       transform="matrix(-0.27796635,0.27796635,0.27796648,0.27796648,594.01007,25.544528)" />
    <path
       style="color:#000000;fill:#ff0000;stroke-miterlimit:10;-inkscape-stroke:none"
       d="m -2.1484375,-2.9570313 -2.5527344,2.55273442 0.8105469,0.80859376 1.7421875,-1.74414058 1.74414062,1.74414058 0.80859376,-0.80859376 z"
       id="path3781"
       transform="matrix(-0.27796635,0.27796635,0.27796648,0.27796648,587.3925,21.315058)" />
    <path
       id="path3783"
       d="m 0,0 c -0.423,-0.423 -1.109,-0.423 -1.532,0 -0.423,0.423 -0.423,1.109 0,1.532 0.423,0.423 1.109,0.423 1.532,0 C 0.423,1.109 0.423,0.423 0,0 Z"
       style="fill:#ff0000;fill-opacity:1;stroke:none;stroke-width:0.88636;stroke-linecap:butt;stroke-linejoin:miter;stroke-miterlimit:10;stroke-dasharray:none;stroke-opacity:1"
       transform="matrix(0.51095647,0,0,-0.50444971,595.33558,23.886702)"
       clip-path="url(#clipPath2004-1-8-2-55-5-4-2-28-4-2-8-8-62)" />
    <path
       id="path3785"
       d="m 0,0 c -0.423,-0.423 -1.109,-0.423 -1.532,0 -0.423,0.423 -0.423,1.109 0,1.532 0.423,0.423 1.109,0.423 1.532,0 C 0.423,1.109 0.423,0.423 0,0 Z"
       style="fill:#ff0000;fill-opacity:1;stroke:none;stroke-width:0.88636;stroke-linecap:butt;stroke-linejoin:miter;stroke-miterlimit:10;stroke-dasharray:none;stroke-opacity:1"
       transform="matrix(0.51095647,0,0,-0.50444971,586.85031,23.886675)"
       clip-path="url(#clipPath2004-1-8-2-55-5-4-2-28-4-2-8-8-62)" />
    <path
       id="path3787"
       d="m 0,0 c -0.423,-0.423 -1.109,-0.423 -1.532,0 -0.423,0.423 -0.423,1.109 0,1.532 0.423,0.423 1.109,0.423 1.532,0 C 0.423,1.109 0.423,0.423 0,0 Z"
       style="fill:#ff0000;fill-opacity:1;stroke:none;stroke-width:0.88636;stroke-linecap:butt;stroke-linejoin:miter;stroke-miterlimit:10;stroke-dasharray:none;stroke-opacity:1"
       transform="matrix(0.51095647,0,0,-0.50444971,591.09296,28.129322)"
       clip-path="url(#clipPath2004-1-8-2-55-5-4-2-28-4-2-8-8-62)" />
  </g>
</svg>
