<svg height="31.358999mm" viewBox="0 0 27.117003 31.358999" width="27.117002mm" xmlns="http://www.w3.org/2000/svg" xmlns:xlink="http://www.w3.org/1999/xlink"><clipPath id="a"><path d="m0 2834.646h2834.646v-2834.646h-2834.646z" transform="translate(-461.11531 -1475.1781)"/></clipPath><clipPath id="b"><path d="m0 2834.646h2834.646v-2834.646h-2834.646z" transform="translate(-494.73181 -43.851026)"/></clipPath><clipPath id="c"><path d="m0 2834.646h2834.646v-2834.646h-2834.646z" transform="translate(-494.73181 -43.851026)"/></clipPath><clipPath id="d"><path d="m0 2834.646h2834.646v-2834.646h-2834.646z" transform="translate(-494.73181 -43.851026)"/></clipPath><clipPath id="e"><path d="m0 2834.646h2834.646v-2834.646h-2834.646z" transform="translate(-491.72521 -43.851026)"/></clipPath><clipPath id="f"><path d="m0 2834.646h2834.646v-2834.646h-2834.646z" transform="translate(-1148.7975 -1175.6119)"/></clipPath><clipPath id="g"><path d="m0 2834.646h2834.646v-2834.646h-2834.646z" transform="translate(-1148.7975 -1175.6119)"/></clipPath><clipPath id="h"><path d="m0 2834.646h2834.646v-2834.646h-2834.646z" transform="translate(-1148.7975 -1175.6119)"/></clipPath><clipPath id="i"><path d="m0 2834.646h2834.646v-2834.646h-2834.646z" transform="translate(-1148.7975 -1175.6119)"/></clipPath><linearGradient id="j" gradientUnits="userSpaceOnUse" x1="676.3163" x2="676.3163" y1="14.93721" y2="-73.95446"><stop offset="0" stop-color="#ffdba6"/><stop offset="1" stop-color="#f2c478"/></linearGradient><g clip-path="url(#a)" stroke-miterlimit="10" transform="matrix(.35277776 0 0 -.35277776 21.229636 5.269515)"><path d="m0 0-21.223 7.255c-.337.115-.707.115-1.044 0l-21.223-7.255c-.512-.175-.879-.592-.956-1.088l-9.882-63.712c-.128-.823.569-1.559 1.477-1.559h31.106 31.106c.907 0 1.605.736 1.477 1.559l-9.883 63.712c-.076.496-.443.913-.955 1.088" fill="url(#j)"/><path d="m-52.851562-67.208984c-1.367537 0-2.528283 1.176762-2.316407 2.539062l9.88086 63.71289075c.128752.82936477.735951 1.49322613 1.521484 1.76171875l21.224609 7.2558594c.517057.1764437 1.07474.1764437 1.591797 0h.002l21.22260963-7.2558594c.78495737-.26829599 1.39165257-.93197308 1.51953127-1.76171875v-.001953l9.8828121-63.71093775c.21198-1.362964-.949363-2.539062-2.3164059-2.539062h-31.1054691zm0 1.701172h31.107421 31.1054691c.4469549 0 .6807389.293137.6367188.576171v.002l-9.88281253 63.7128441c-.02473099.1614023-.15215872.33060237-.390625.4121094l-21.22265637 7.2558594v-.00195c-.156942.053556-.337198.053556-.49414 0v.00195l-21.222657-7.2558594c-.238466-.081507-.365377-.2514283-.390625-.4140625l-9.882812-63.710937v-.002c-.04412-.283698.188257-.576171.636719-.576171z" fill="#4d3608"/></g><g fill="#f00"><g clip-path="url(#b)" stroke-miterlimit="10" transform="matrix(0 -.55928609 -.55929249 0 18.288446 23.727668)"><path d="m0 0-3.007 3.007"/><path d="m-.28515625-.28515625-3.00585935 3.00781255.5683593.5683593 3.00781255-3.00585935z"/></g><g clip-path="url(#c)" stroke-miterlimit="10" transform="matrix(0 -.55928609 -.55929249 0 10.510306 15.949527)"><path d="m0 0-3.007 3.007"/><path d="m-.28515625-.28515625-3.00585935 3.00781255.5683593.5683593 3.00781255-3.00585935z"/></g><g clip-path="url(#d)" stroke-miterlimit="10" transform="matrix(.55928609 0 0 -.55929249 10.510016 25.409738)"><path d="m0 0-3.007 3.007"/><path d="m-.28515625-.28515625-3.00585935 3.00781255.5683593.5683593 3.00781255-3.00585935z"/></g><g clip-path="url(#e)" stroke-miterlimit="10" transform="matrix(0 .55928609 .55929249 0 16.607066 15.949394)"><path d="m0 0 3.007 3.007"/><path d="m.28515625-.28515625-.5703125.5703125 3.00781255 3.00585935.5683593-.5683593z"/></g><path d="m10.217156 23.702389 6.36394-6.363937.31864.318635-6.36394 6.363938z" stroke-miterlimit="10" stroke-width=".352778"/><path d="m9.3761764 18.178833 1.6822396-1.681135.31788.317875-1.6811496 1.682228z" stroke-miterlimit="10" stroke-width=".559289"/><path d="m17.421786 22.861162.31896.318972-1.68222 1.681154-.31788-.317879z" stroke-miterlimit="10" stroke-width=".559289"/><path d="m11.057896 24.861853-1.6811396-1.682247.31788-.317879 1.6822196 1.681154z" stroke-miterlimit="10" stroke-width=".559289"/><path d="m15.740196 16.816242.31897-.318968 1.68115 1.682228-.31788.317875z" stroke-miterlimit="10" stroke-width=".559289"/><path d="m10.217186 17.656625.31863-.318635 6.36394 6.363938-.31863.318635z" stroke-miterlimit="10" stroke-width=".352778"/><path clip-path="url(#f)" d="m0 0c-.423-.423-1.109-.423-1.532 0s-.423 1.109 0 1.532 1.109.423 1.532 0 .423-1.109 0-1.532z" transform="matrix(0 .51095647 .50444971 0 11.050686 21.070907)"/><path clip-path="url(#g)" d="m0 0c-.423-.423-1.109-.423-1.532 0s-.423 1.109 0 1.532 1.109.423 1.532 0 .423-1.109 0-1.532z" transform="matrix(0 .51095647 .50444971 0 15.293386 21.070881)"/><path clip-path="url(#h)" d="m0 0c-.423-.423-1.109-.423-1.532 0s-.423 1.109 0 1.532 1.109.423 1.532 0 .423-1.109 0-1.532z" transform="matrix(.51095647 0 0 -.50444971 13.949856 23.187204)"/><path clip-path="url(#i)" d="m0 0c-.423-.423-1.109-.423-1.532 0s-.423 1.109 0 1.532 1.109.423 1.532 0 .423-1.109 0-1.532z" transform="matrix(.51095647 0 0 -.50444971 13.949856 18.944583)"/><path d="m9.9375964 10.348938v-2.2820283h.5456996v2.2820283h1.19062q0 .826822.0248 1.289843l.64492-.79375.39687.496094-.5209.595311.64493.330729-.24805.628385q-.0496-.03307-.32247-.165365-.24804-.165363-.49609-.297655.19844.628384.44649.992185.19843.264584.27285.264584.0248 0 .0744-.06614.0744-.165365.14883-.562239.12402.132292.47128.396874-.12402.595312-.27285.760676-.14883.198438-.32246.198438-.27285 0-.66972-.363802-.34727-.330729-.54571-.992186-.22324-.727603-.24805-2.017446h-.66972v3.406507h-.5456996v-3.406511h-.84336q-.0496 1.025259-.12403 1.389061-.12402.529166-.24804.826821-.29765.529167-.32246.595313-.0496.09921-.52089.628384-.24805-.463021-.39689-.628384.42169-.429949.59532-.727604.22324-.429948.32246-.826822.0992-.429947.14883-1.256769h-.96739v-.694531h.96739v-1.0583329q-.14883.066146-.84336.297656-.14883-.4630203-.24805-.6945304.5209-.099219.81856-.1984373.24805-.099219 1.14101-.4960932l.27285.5953119q-.29766.1653643-.57051.2976558v1.2567691zm1.2402296-2.4804655h-3.4478496v-.6945304h3.9687496q-.0248.2976559.0248.9921863.14883-.2315102.32246-.4630203.17363-.264583.34726-.4960932l.39688.5291661q-.17363.1984372-.34727.3968745-.14883.1653644-.29765.3307287.0744.033073.24804.1322915.19844.066146.5209.1984374l-.22324.5953117-.86816-.4299474q.19843.4960932.49609.8929677.17363.2315099.29766.2315099.0248 0 .0744-.06615 0 0 .12402-.4630199.17364.2315101.4961.3968745-.19844.6283844-.27285.7276034-.12403.165364-.24805.165364-.27285 0-.69453-.363801-.44643-.363802-.62006-.8929679-.22325-.529166-.29766-1.7197896zm2.6541 3.9025995.44648-.198437q.0992.297656.32246 1.190623l-.47128.198438q-.0992-.562239-.29766-1.190624zm2.00917 1.157551q-.0744 0-.44648-.231511l.37208-1.15755.47128.297656q-.27285.826821-.39688 1.091405zm1.76114-4.3325473v-1.7197895h.59531v1.7197895h1.0914v.7276034h-1.1162l-.0744 1.2567689h1.36425v.694531h-1.16581q.14882.793749.24804.992186.19844.496093.47129.892968.0992.132291.64492.727603-.17363.165364-.42168.628385-.44649-.496094-.59531-.760676-.24805-.396875-.42168-.826822-.12402-.264584-.32246-1.091405-.17363.727604-.32246 1.058332-.0992.23151-.37207.661457-.12402.165365-.24805.297657-.0992.165363-.19844.297655l-.44648.429948q0 0-.0744-.165365-.0496-.165364-.0992-.23151 0-.03307-.0992-.132292-.0744-.09922-.0744-.09922.69453-.628385 1.04179-1.25677.34727-.595311.44649-1.422133h-1.14102v-.69453h1.24024l.0496-1.2567695h-.69453q-.12402.3638016-.29766.9260405-.32245-.198437-.52089-.2976559.27285-.7606761.37207-1.2236965.0992-.3968745.22324-1.2236964l.5457.1653644q0 .033073-.0248.1322915 0 .099219-.0248.1653643 0 .033073-.0992.6283847zm-2.70371-1.8190081.5209.3968745-.0744.1984372q.52089.4630203.99218 1.0914049l-.42167.5291661q-.54571-.6945304-.86817-.9921863-.29765.6283847-.49609.9260406-.0248.066146-.0744.1322915-.0496.066146-.0744.1322915h1.51308v.6945304h-.57051v.595312h.74414v.628384h-.74414v2.050519q.62012-.165365.74414-.23151v.760676l-1.26504.396874-.91777.23151-.12402-.760676 1.04179-.23151v-2.215883h-.89297v-.628384h.89297v-.595312h-.52089v-.5622389q-.0744.099219-.14883.2315101-.0744.099219-.17363.2315101-.0992-.4299474-.29766-.7276032.74414-.9921864 1.21543-2.2820285z" stroke-width=".352777"/></g></svg>