<?xml version="1.0" encoding="UTF-8" standalone="no"?>
<!-- Created with Inkscape (http://www.inkscape.org/) -->

<svg
   width="30mm"
   height="34mm"
   viewBox="0 0 30 34"
   version="1.1"
   id="svg1"
   xmlns:xlink="http://www.w3.org/1999/xlink"
   xmlns="http://www.w3.org/2000/svg"
   xmlns:svg="http://www.w3.org/2000/svg">
  <defs
     id="defs1">
    <linearGradient
       id="linearGradient22">
      <stop
         style="stop-color:#ffdba6;stop-opacity:1;"
         offset="0"
         id="stop21" />
      <stop
         style="stop-color:#f2c478;stop-opacity:1;"
         offset="1"
         id="stop22" />
    </linearGradient>
    <clipPath
       clipPathUnits="userSpaceOnUse"
       id="clipPath1374-00-0-1-17">
      <path
         d="M 0,2834.646 H 2834.646 V 0 H 0 Z"
         transform="translate(-461.11531,-1475.1781)"
         id="path1374-9-6-4-9" />
    </clipPath>
    <clipPath
       clipPathUnits="userSpaceOnUse"
       id="clipPath2004-1-8-2-55-5-4-2-28-4-2-8-8-62">
      <path
         d="M 0,2834.646 H 2834.646 V 0 H 0 Z"
         transform="translate(-1148.7975,-1175.6119)"
         id="path2004-0-0-7-1-8-7-0-6-1-8-7-4-55" />
    </clipPath>
    <linearGradient
       xlink:href="#linearGradient22"
       id="linearGradient173"
       gradientUnits="userSpaceOnUse"
       gradientTransform="translate(-311.81167,-212.60334)"
       x1="289.06915"
       y1="220.19536"
       x2="289.06967"
       y2="143.72234" />
  </defs>
  <g
     id="layer1"
     transform="translate(-432)">
    <g
       id="path1373-4-6-7"
       clip-path="url(#clipPath1374-00-0-1-17)"
       transform="matrix(0.35277776,0,0,-0.35277776,454.67115,6.5899251)">
      <path
         style="color:#000000;fill:url(#linearGradient173);stroke-miterlimit:10;-inkscape-stroke:none"
         d="m 0,0 -21.223,7.255 c -0.337,0.115 -0.707,0.115 -1.044,0 L -43.49,0 c -0.512,-0.175 -0.879,-0.592 -0.956,-1.088 L -54.328,-64.8 c -0.128,-0.823 0.569,-1.559 1.477,-1.559 h 31.106 31.106 c 0.907,0 1.605,0.736 1.477,1.559 L 0.955,-1.088 C 0.879,-0.592 0.512,-0.175 0,0"
         id="path293" />
      <path
         style="color:#000000;fill:#4d3608;stroke-miterlimit:10;-inkscape-stroke:none"
         d="m -52.851562,-67.208984 c -1.367537,0 -2.528283,1.176762 -2.316407,2.539062 l 9.88086,63.71289075 c 0.128752,0.82936477 0.735951,1.49322613 1.521484,1.76171875 l 21.224609,7.2558594 c 0.517057,0.1764437 1.07474,0.1764437 1.591797,0 h 0.002 L 0.27539063,0.8046875 C 1.060348,0.53639151 1.6670432,-0.12728558 1.7949219,-0.95703125 v -0.001953 L 11.677734,-64.669922 c 0.21198,-1.362964 -0.949363,-2.539062 -2.3164059,-2.539062 H -21.744141 Z m 0,1.701172 h 31.107421 31.1054691 c 0.4469549,0 0.6807389,0.293137 0.6367188,0.576171 v 0.002 L 0.11523437,-1.2167969 c -0.02473099,0.1614023 -0.15215872,0.33060237 -0.390625,0.4121094 L -21.498047,6.4511719 v -0.00195 c -0.156942,0.053556 -0.337198,0.053556 -0.49414,0 v 0.00195 l -21.222657,-7.2558594 c -0.238466,-0.081507 -0.365377,-0.2514283 -0.390625,-0.4140625 l -9.882812,-63.710937 v -0.002 c -0.04412,-0.283698 0.188257,-0.576171 0.636719,-0.576171 z"
         id="path294" />
    </g>
    <path
       style="fill:#ff0000;stroke-width:0.352777"
       d="M 512.18489,10.149077 V 8.1727821 h 0.63012 v 1.9762949 h 1.37481 q 0,0.716049 0.0286,1.117036 l 0.74469,-0.687407 0.45828,0.429629 -0.60149,0.515556 0.7447,0.286419 -0.28642,0.544197 q -0.0573,-0.02864 -0.37235,-0.14321 -0.28642,-0.143209 -0.57284,-0.257777 0.22914,0.544197 0.51556,0.859258 0.22913,0.229136 0.31506,0.229136 0.0286,0 0.0859,-0.05728 0.0859,-0.14321 0.17186,-0.486913 0.14321,0.114568 0.54419,0.343703 -0.14321,0.515555 -0.31506,0.658765 -0.17185,0.171852 -0.37234,0.171852 -0.31507,0 -0.77334,-0.315062 -0.40098,-0.286419 -0.63012,-0.859258 -0.25778,-0.630123 -0.28642,-1.747159 h -0.77333 v 2.950121 h -0.63012 V 10.750562 H 511.211 q -0.0573,0.8879 -0.14321,1.202962 -0.14321,0.458271 -0.28642,0.716049 -0.3437,0.458271 -0.37235,0.515555 -0.0573,0.08593 -0.60148,0.544197 -0.28642,-0.400987 -0.45827,-0.544197 0.48691,-0.372346 0.68741,-0.630123 0.25778,-0.372346 0.37234,-0.716049 0.11457,-0.372345 0.17186,-1.088394 h -1.11704 v -0.601481 h 1.11704 V 9.2325343 q -0.17186,0.057284 -0.97383,0.2577776 -0.17185,-0.4009873 -0.28642,-0.601481 0.60148,-0.085926 0.94518,-0.1718517 0.28642,-0.085926 1.31753,-0.4296293 l 0.31507,0.5155552 q -0.34371,0.1432097 -0.65877,0.2577775 v 1.0883944 z m 1.43209,-2.1481466 h -3.98123 v -0.601481 h 4.58271 q -0.0286,0.2577776 0.0286,0.8592586 0.17185,-0.2004937 0.37234,-0.4009874 0.20049,-0.2291356 0.40099,-0.4296292 l 0.45827,0.4582712 q -0.20049,0.1718517 -0.40099,0.3437034 -0.17185,0.1432098 -0.3437,0.2864195 0.0859,0.028642 0.28642,0.1145678 0.22913,0.057284 0.60148,0.1718518 l -0.25778,0.5155551 -1.00247,-0.3723454 q 0.22914,0.4296293 0.57284,0.7733327 0.2005,0.2004937 0.34371,0.2004937 0.0286,0 0.0859,-0.057284 0,0 0.14321,-0.4009873 0.2005,0.2004936 0.57284,0.3437034 -0.22914,0.5441967 -0.31506,0.6301227 -0.14321,0.14321 -0.28642,0.14321 -0.31506,0 -0.80198,-0.315061 -0.51555,-0.315062 -0.71604,-0.7733332 -0.25778,-0.4582712 -0.34371,-1.4893815 z m 5.24148,3.2365406 0.48691,0.200494 -0.42963,1.03111 q -0.0859,-0.08593 -0.45827,-0.229136 z m -1.28889,1.059752 -0.57284,0.171852 q -0.25777,-0.773333 -0.3437,-1.059752 l 0.5442,-0.200494 q 0.0573,0.14321 0.37234,1.088394 z m 3.86667,-0.973826 v -1.03111 h -0.51556 v 1.03111 z m -1.05976,1.002468 V 9.7480895 h 1.60395 v 2.3772825 h -0.54419 v -0.200494 h -0.51556 v 0.400987 z m -0.0859,-3.2365404 V 8.5737694 h 1.83308 v 0.5155552 z m -0.83062,4.5254284 V 7.3994494 h 3.52296 v 5.3846866 q 0,0.486914 -0.20049,0.601481 -0.22914,0.229136 -0.8879,0.315062 -0.0573,-0.372345 -0.0859,-0.486913 -0.0286,-0.114568 -0.17185,-0.28642 h 0.63012 q 0.0573,0 0.0859,-0.02864 V 12.84142 8.0009304 h -2.29136 v 5.6138226 z m -2.20543,-4.4395026 h 1.66123 v 0.5441971 h -0.54419 v 0.5728395 h 0.77333 v 0.544197 h -0.77333 v 1.890369 q 0.51555,-0.08593 0.77333,-0.14321 v 0.601481 l -0.63012,0.14321 -1.7758,0.372345 -0.11457,-0.716049 q 0.28642,-0.02864 0.63012,-0.05728 0.3437,-0.05728 0.45827,-0.05728 v -2.033578 h -0.97382 v -0.544197 h 0.97382 V 9.7194475 h -0.51555 V 9.2325343 l -0.28642,0.3437035 q -0.17185,-0.2864196 -0.42963,-0.5441971 0.48691,-0.5155552 0.85926,-1.0311103 0.11456,-0.1432098 0.57284,-0.9451844 l 0.54419,0.3437034 -0.0859,0.1718517 q 0.20049,0.1145678 1.03111,0.8019747 l -0.45827,0.5155551 q -0.22914,-0.2291356 -0.91655,-0.8019746 -0.51555,0.7446907 -0.77333,1.0883941 z"
       id="text1328-5-0-9-7-0-85"
       transform="scale(0.86602543,1.1547005)"
       aria-label="飛銅" />
    <path
       id="path3857"
       d="m 0,0 c -0.423,-0.423 -1.109,-0.423 -1.532,0 -0.423,0.423 -0.423,1.109 0,1.532 0.423,0.423 1.109,0.423 1.532,0 C 0.423,1.109 0.423,0.423 0,0 Z"
       style="fill:#ff0000;fill-opacity:1;stroke:none;stroke-width:0.88636;stroke-linecap:butt;stroke-linejoin:miter;stroke-miterlimit:10;stroke-dasharray:none;stroke-opacity:1"
       transform="matrix(0.51095647,0,0,-0.50444971,447.09337,19.644308)"
       clip-path="url(#clipPath2004-1-8-2-55-5-4-2-28-4-2-8-8-62)" />
    <path
       style="color:#000000;fill:#ff0000;stroke-miterlimit:10;-inkscape-stroke:none"
       d="M -0.63867187,-1.4179687 V 25.109375 H 0.63867187 V -1.4179687 Z"
       id="path3859"
       transform="matrix(0.24945156,0.24945156,0.24945156,-0.24945156,443.74676,26.38523)" />
    <path
       style="color:#000000;fill:#ff0000;stroke-miterlimit:10;-inkscape-stroke:none"
       d="M -25.111328,-0.63867187 V 0.63867187 H 1.4160156 v -1.27734374 z"
       id="path3861"
       transform="matrix(0.24945156,0.24945156,0.24945156,-0.24945156,449.65713,26.38523)" />
    <path
       style="color:#000000;fill:#ff0000;stroke-miterlimit:10;-inkscape-stroke:none"
       d="M -0.28515625,-0.28515625 -3.2910156,2.7226563 -2.7226563,3.2910156 0.28515625,0.28515625 Z"
       id="path3863"
       transform="matrix(0,-0.55928609,-0.55929249,0,448.95688,24.003451)" />
    <path
       style="color:#000000;fill:#ff0000;stroke-miterlimit:10;-inkscape-stroke:none"
       d="M -0.28515625,-0.28515625 -3.2910156,2.7226563 -2.7226563,3.2910156 0.28515625,0.28515625 Z"
       id="path3865"
       transform="matrix(0,-0.55928609,-0.55929249,0,446.12865,21.175214)" />
    <path
       style="color:#000000;fill:#ff0000;stroke-miterlimit:10;-inkscape-stroke:none"
       d="M -0.28515625,-0.28515625 -3.2910156,2.7226563 -2.7226563,3.2910156 0.28515625,0.28515625 Z"
       id="path3867"
       transform="matrix(0.55928609,0,0,-0.55929249,446.12812,25.685407)" />
    <path
       style="color:#000000;fill:#ff0000;stroke-miterlimit:10;-inkscape-stroke:none"
       d="M 0.28515625,-0.28515625 -0.28515625,0.28515625 2.7226563,3.2910156 3.2910156,2.7226563 Z"
       id="path3869"
       transform="matrix(0,0.55928609,0.55929249,0,447.27546,21.174817)" />
    <path
       style="color:#000000;fill:#ff0000;stroke-miterlimit:10;-inkscape-stroke:none"
       d="M 0.40429688,-0.40429688 -0.40429688,0.40429688 2.1484375,2.9570313 4.7011719,0.40429688 3.890625,-0.40429688 2.1484375,1.3398437 Z"
       id="path3871"
       transform="matrix(0.27796635,0.27796635,0.27796648,-0.27796648,448.81642,20.121299)" />
    <path
       style="color:#000000;fill:#ff0000;stroke-miterlimit:10;-inkscape-stroke:none"
       d="m -2.1484375,-2.9570313 -2.5527344,2.55273442 0.8105469,0.80859376 1.7421875,-1.74414058 1.74414062,1.74414058 0.80859376,-0.80859376 z"
       id="path3873"
       transform="matrix(0.27796635,0.27796635,0.27796648,-0.27796648,444.58702,26.738793)" />
    <path
       style="color:#000000;fill:#ff0000;stroke-miterlimit:10;-inkscape-stroke:none"
       d="M 0.40429688,-0.40429688 -0.40429688,0.40429688 2.1484375,2.9570313 4.7011719,0.40429688 3.890625,-0.40429688 2.1484375,1.3398437 Z"
       id="path3875"
       transform="matrix(-0.27796635,0.27796635,0.27796648,0.27796648,450.01051,25.544781)" />
    <path
       style="color:#000000;fill:#ff0000;stroke-miterlimit:10;-inkscape-stroke:none"
       d="m -2.1484375,-2.9570313 -2.5527344,2.55273442 0.8105469,0.80859376 1.7421875,-1.74414058 1.74414062,1.74414058 0.80859376,-0.80859376 z"
       id="path3877"
       transform="matrix(-0.27796635,0.27796635,0.27796648,0.27796648,443.39293,21.315311)" />
    <path
       id="path3879"
       d="m 0,0 c -0.423,-0.423 -1.109,-0.423 -1.532,0 -0.423,0.423 -0.423,1.109 0,1.532 0.423,0.423 1.109,0.423 1.532,0 C 0.423,1.109 0.423,0.423 0,0 Z"
       style="fill:#ff0000;fill-opacity:1;stroke:none;stroke-width:0.88636;stroke-linecap:butt;stroke-linejoin:miter;stroke-miterlimit:10;stroke-dasharray:none;stroke-opacity:1"
       transform="matrix(0.51095647,0,0,-0.50444971,451.33602,23.886955)"
       clip-path="url(#clipPath2004-1-8-2-55-5-4-2-28-4-2-8-8-62)" />
    <path
       id="path3881"
       d="m 0,0 c -0.423,-0.423 -1.109,-0.423 -1.532,0 -0.423,0.423 -0.423,1.109 0,1.532 0.423,0.423 1.109,0.423 1.532,0 C 0.423,1.109 0.423,0.423 0,0 Z"
       style="fill:#ff0000;fill-opacity:1;stroke:none;stroke-width:0.88636;stroke-linecap:butt;stroke-linejoin:miter;stroke-miterlimit:10;stroke-dasharray:none;stroke-opacity:1"
       transform="matrix(0.51095647,0,0,-0.50444971,442.85074,23.886928)"
       clip-path="url(#clipPath2004-1-8-2-55-5-4-2-28-4-2-8-8-62)" />
    <path
       id="path3883"
       d="m 0,0 c -0.423,-0.423 -1.109,-0.423 -1.532,0 -0.423,0.423 -0.423,1.109 0,1.532 0.423,0.423 1.109,0.423 1.532,0 C 0.423,1.109 0.423,0.423 0,0 Z"
       style="fill:#ff0000;fill-opacity:1;stroke:none;stroke-width:0.88636;stroke-linecap:butt;stroke-linejoin:miter;stroke-miterlimit:10;stroke-dasharray:none;stroke-opacity:1"
       transform="matrix(0.51095647,0,0,-0.50444971,447.0934,28.129575)"
       clip-path="url(#clipPath2004-1-8-2-55-5-4-2-28-4-2-8-8-62)" />
  </g>
</svg>
