<?xml version="1.0" encoding="UTF-8" standalone="no"?>
<!-- Created with Inkscape (http://www.inkscape.org/) -->

<svg
   width="26mm"
   height="30mm"
   viewBox="0 0 26 30"
   version="1.1"
   id="svg1"
   xmlns:xlink="http://www.w3.org/1999/xlink"
   xmlns="http://www.w3.org/2000/svg"
   xmlns:svg="http://www.w3.org/2000/svg">
  <defs
     id="defs1">
    <linearGradient
       id="linearGradient22">
      <stop
         style="stop-color:#ffdba6;stop-opacity:1;"
         offset="0"
         id="stop21" />
      <stop
         style="stop-color:#f2c478;stop-opacity:1;"
         offset="1"
         id="stop22" />
    </linearGradient>
    <clipPath
       clipPathUnits="userSpaceOnUse"
       id="clipPath1374-00-0-1">
      <path
         d="M 0,2834.646 H 2834.646 V 0 H 0 Z"
         transform="translate(-461.11531,-1475.1781)"
         id="path1374-9-6-4" />
    </clipPath>
    <clipPath
       clipPathUnits="userSpaceOnUse"
       id="clipPath2004-1-8-2-55-5-4-2-28-4-2-8-8">
      <path
         d="M 0,2834.646 H 2834.646 V 0 H 0 Z"
         transform="translate(-1148.7975,-1175.6119)"
         id="path2004-0-0-7-1-8-7-0-6-1-8-7-4" />
    </clipPath>
    <linearGradient
       xlink:href="#linearGradient22"
       id="linearGradient5"
       gradientUnits="userSpaceOnUse"
       gradientTransform="translate(1003.4612,-722.83954)"
       x1="167.45578"
       y1="740.27698"
       x2="167.41826"
       y2="655.23761" />
  </defs>
  <g
     id="layer1"
     transform="translate(-432)">
    <g
       id="path1373-4-6-7"
       clip-path="url(#clipPath1374-00-0-1)"
       transform="matrix(0.35277776,0,0,-0.35277776,452.67115,4.5899251)">
      <path
         style="color:#000000;fill:url(#linearGradient5);stroke-miterlimit:10;-inkscape-stroke:none"
         d="m 0,0 -21.223,7.255 c -0.337,0.115 -0.707,0.115 -1.044,0 L -43.49,0 c -0.512,-0.175 -0.879,-0.592 -0.956,-1.088 L -54.328,-64.8 c -0.128,-0.823 0.569,-1.559 1.477,-1.559 h 31.106 31.106 c 0.907,0 1.605,0.736 1.477,1.559 L 0.955,-1.088 C 0.879,-0.592 0.512,-0.175 0,0"
         id="path153" />
      <path
         style="color:#000000;fill:#4d3608;stroke-miterlimit:10;-inkscape-stroke:none"
         d="m -52.851562,-67.208984 c -1.367537,0 -2.528283,1.176762 -2.316407,2.539062 l 9.88086,63.71289075 c 0.128752,0.82936477 0.735951,1.49322613 1.521484,1.76171875 l 21.224609,7.2558594 c 0.517057,0.1764437 1.07474,0.1764437 1.591797,0 h 0.002 L 0.27539063,0.8046875 C 1.060348,0.53639151 1.6670432,-0.12728558 1.7949219,-0.95703125 v -0.001953 L 11.677734,-64.669922 c 0.21198,-1.362964 -0.949363,-2.539062 -2.3164059,-2.539062 H -21.744141 Z m 0,1.701172 h 31.107421 31.1054691 c 0.4469549,0 0.6807389,0.293137 0.6367188,0.576171 v 0.002 L 0.11523437,-1.2167969 c -0.02473099,0.1614023 -0.15215872,0.33060237 -0.390625,0.4121094 L -21.498047,6.4511719 v -0.00195 c -0.156942,0.053556 -0.337198,0.053556 -0.49414,0 v 0.00195 l -21.222657,-7.2558594 c -0.238466,-0.081507 -0.365377,-0.2514283 -0.390625,-0.4140625 l -9.882812,-63.710937 v -0.002 c -0.04412,-0.283698 0.188257,-0.576171 0.636719,-0.576171 z"
         id="path154" />
    </g>
    <path
       style="fill:#ff0000;stroke-width:0.352777"
       d="M 509.8755,8.4170078 V 6.4407131 h 0.63012 v 1.9762947 h 1.37481 q 0,0.7160488 0.0287,1.1170361 l 0.74469,-0.6874068 0.45827,0.4296293 -0.60148,0.5155551 0.74469,0.2864195 -0.28642,0.544197 q -0.0573,-0.02864 -0.37235,-0.14321 -0.28642,-0.143209 -0.57284,-0.257777 0.22914,0.544197 0.51556,0.859258 0.22914,0.229136 0.31506,0.229136 0.0286,0 0.0859,-0.05728 0.0859,-0.14321 0.17185,-0.486913 0.14321,0.114568 0.5442,0.343703 -0.14321,0.515555 -0.31507,0.658765 -0.17185,0.171852 -0.37234,0.171852 -0.31506,0 -0.77333,-0.315062 -0.40099,-0.286419 -0.63013,-0.859258 -0.25777,-0.630123 -0.28642,-1.7471592 h -0.77333 V 11.96861 H 509.8755 V 9.0184888 h -0.97383 q -0.0573,0.8879005 -0.14321,1.2029622 -0.14321,0.458271 -0.28642,0.716049 -0.3437,0.458271 -0.37234,0.515555 -0.0573,0.08593 -0.60148,0.544197 -0.28642,-0.400988 -0.45828,-0.544197 0.48692,-0.372346 0.68741,-0.630123 0.25778,-0.372346 0.37235,-0.716049 0.11456,-0.3723454 0.17185,-1.0883942 h -1.11704 v -0.601481 h 1.11704 V 7.5004653 q -0.17185,0.057284 -0.97383,0.2577776 -0.17185,-0.4009873 -0.28642,-0.601481 0.60148,-0.085926 0.94519,-0.1718517 0.28642,-0.085926 1.31753,-0.4296293 l 0.31506,0.5155551 q -0.34371,0.1432098 -0.65877,0.2577776 v 1.0883942 z m 1.4321,-2.1481464 h -3.98124 v -0.601481 h 4.58272 q -0.0287,0.2577776 0.0286,0.8592586 0.17185,-0.2004937 0.37234,-0.4009874 0.2005,-0.2291356 0.40099,-0.4296293 l 0.45827,0.4582713 q -0.20049,0.1718517 -0.40098,0.3437034 -0.17186,0.1432098 -0.34371,0.2864195 0.0859,0.028642 0.28642,0.1145678 0.22914,0.057284 0.60148,0.1718517 l -0.25778,0.5155552 -1.00246,-0.3723454 q 0.22913,0.4296293 0.57284,0.7733327 0.20049,0.2004937 0.3437,0.2004937 0.0286,0 0.0859,-0.057284 0,0 0.14321,-0.4009874 0.2005,0.2004937 0.57284,0.3437035 -0.22913,0.5441971 -0.31506,0.6301229 -0.14321,0.1432098 -0.28642,0.1432098 -0.31506,0 -0.80197,-0.3150615 -0.51556,-0.3150615 -0.71605,-0.7733327 -0.25778,-0.4582712 -0.3437,-1.4893815 z m 5.24147,3.2365406 0.48692,0.2004936 -0.42963,1.0311104 q -0.0859,-0.08593 -0.45827,-0.229136 z m -1.28889,1.059752 -0.57283,0.171852 q -0.25778,-0.7733328 -0.34371,-1.0597523 l 0.5442,-0.2004937 q 0.0573,0.1432098 0.37234,1.088394 z m 3.86667,-0.9738262 V 8.5602176 h -0.51556 V 9.5913278 Z M 518.0671,10.593796 V 8.0160205 h 1.60395 v 2.3772825 h -0.5442 v -0.200494 h -0.51556 v 0.400987 z M 517.9812,7.3572556 V 6.8417004 h 1.83309 v 0.5155552 z m -0.83062,4.5254284 V 5.6673804 h 3.52296 v 5.3846866 q 0,0.486914 -0.20049,0.601481 -0.22914,0.229136 -0.8879,0.315062 -0.0573,-0.372346 -0.0859,-0.486913 -0.0286,-0.114568 -0.17185,-0.28642 h 0.63013 q 0.0573,0 0.0859,-0.02864 v -0.05728 -4.8404896 h -2.29136 V 11.88269 Z m -2.20543,-4.4395026 h 1.66124 v 0.5441971 h -0.5442 v 0.5728391 h 0.77333 v 0.5441971 h -0.77333 v 1.8903683 q 0.51555,-0.08592 0.77333,-0.143209 v 0.601481 l -0.63012,0.143209 -1.7758,0.372346 -0.11457,-0.716049 q 0.28642,-0.02864 0.63012,-0.05728 0.34371,-0.05728 0.45827,-0.05728 V 9.1044147 H 514.4296 V 8.5602176 h 0.97382 V 7.9873785 h -0.51555 V 7.5004653 l -0.28642,0.3437035 q -0.17185,-0.2864196 -0.42963,-0.5441971 0.48691,-0.5155552 0.85926,-1.0311103 0.11457,-0.1432098 0.57284,-0.9451844 l 0.5442,0.3437034 -0.0859,0.1718517 q 0.20049,0.1145678 1.03111,0.8019747 L 516.635,7.1567619 q -0.22914,-0.2291356 -0.91654,-0.8019747 -0.51556,0.7446908 -0.77334,1.0883942 z"
       id="text1328-5-0-9-7-0-85"
       transform="scale(0.86602543,1.1547005)"
       aria-label="飛銅" />
    <path
       id="path3857"
       d="m 0,0 c -0.423,-0.423 -1.109,-0.423 -1.532,0 -0.423,0.423 -0.423,1.109 0,1.532 0.423,0.423 1.109,0.423 1.532,0 C 0.423,1.109 0.423,0.423 0,0 Z"
       style="fill:#ff0000;fill-opacity:1;stroke:none;stroke-width:0.88636;stroke-linecap:butt;stroke-linejoin:miter;stroke-miterlimit:10;stroke-dasharray:none;stroke-opacity:1"
       transform="matrix(0.51095647,0,0,-0.50444971,445.09338,17.644305)"
       clip-path="url(#clipPath2004-1-8-2-55-5-4-2-28-4-2-8-8)" />
    <path
       style="color:#000000;fill:#ff0000;stroke-miterlimit:10;-inkscape-stroke:none"
       d="M -0.63867187,-1.4179687 V 25.109375 H 0.63867187 V -1.4179687 Z"
       id="path3859"
       transform="matrix(0.24945155,0.24945155,0.24945155,-0.24945155,441.74677,24.385208)" />
    <path
       style="color:#000000;fill:#ff0000;stroke-miterlimit:10;-inkscape-stroke:none"
       d="M -25.111328,-0.63867187 V 0.63867187 H 1.4160156 v -1.27734374 z"
       id="path3861"
       transform="matrix(0.24945155,0.24945155,0.24945155,-0.24945155,447.65714,24.385227)" />
    <path
       style="color:#000000;fill:#ff0000;stroke-miterlimit:10;-inkscape-stroke:none"
       d="M -0.28515625,-0.28515625 -3.2910156,2.7226563 -2.7226563,3.2910156 0.28515625,0.28515625 Z"
       id="path3863"
       transform="matrix(0,-0.55928609,-0.55929249,0,446.95689,22.003437)" />
    <path
       style="color:#000000;fill:#ff0000;stroke-miterlimit:10;-inkscape-stroke:none"
       d="M -0.28515625,-0.28515625 -3.2910156,2.7226563 -2.7226563,3.2910156 0.28515625,0.28515625 Z"
       id="path3865"
       transform="matrix(0,-0.55928609,-0.55929249,0,444.12865,19.1752)" />
    <path
       style="color:#000000;fill:#ff0000;stroke-miterlimit:10;-inkscape-stroke:none"
       d="M -0.28515625,-0.28515625 -3.2910156,2.7226563 -2.7226563,3.2910156 0.28515625,0.28515625 Z"
       id="path3867"
       transform="matrix(0.55928609,0,0,-0.55929249,444.12812,23.685404)" />
    <path
       style="color:#000000;fill:#ff0000;stroke-miterlimit:10;-inkscape-stroke:none"
       d="M 0.28515625,-0.28515625 -0.28515625,0.28515625 2.7226563,3.2910156 3.2910156,2.7226563 Z"
       id="path3869"
       transform="matrix(0,0.55928609,0.55929249,0,445.27546,19.174801)" />
    <path
       style="color:#000000;fill:#ff0000;stroke-miterlimit:10;-inkscape-stroke:none"
       d="M 0.40429688,-0.40429688 -0.40429688,0.40429688 2.1484375,2.9570313 4.7011719,0.40429688 3.890625,-0.40429688 2.1484375,1.3398437 Z"
       id="path3871"
       transform="matrix(0.27796635,0.27796635,0.27796648,-0.27796648,446.81642,18.121283)" />
    <path
       style="color:#000000;fill:#ff0000;stroke-miterlimit:10;-inkscape-stroke:none"
       d="m -2.1484375,-2.9570313 -2.5527344,2.55273442 0.8105469,0.80859376 1.7421875,-1.74414058 1.74414062,1.74414058 0.80859376,-0.80859376 z"
       id="path3873"
       transform="matrix(0.27796635,0.27796635,0.27796648,-0.27796648,442.58703,24.738779)" />
    <path
       style="color:#000000;fill:#ff0000;stroke-miterlimit:10;-inkscape-stroke:none"
       d="M 0.40429688,-0.40429688 -0.40429688,0.40429688 2.1484375,2.9570313 4.7011719,0.40429688 3.890625,-0.40429688 2.1484375,1.3398437 Z"
       id="path3875"
       transform="matrix(-0.27796635,0.27796635,0.27796648,0.27796648,448.01051,23.544767)" />
    <path
       style="color:#000000;fill:#ff0000;stroke-miterlimit:10;-inkscape-stroke:none"
       d="m -2.1484375,-2.9570313 -2.5527344,2.55273442 0.8105469,0.80859376 1.7421875,-1.74414058 1.74414062,1.74414058 0.80859376,-0.80859376 z"
       id="path3877"
       transform="matrix(-0.27796635,0.27796635,0.27796648,0.27796648,441.39294,19.315292)" />
    <path
       id="path3879"
       d="m 0,0 c -0.423,-0.423 -1.109,-0.423 -1.532,0 -0.423,0.423 -0.423,1.109 0,1.532 0.423,0.423 1.109,0.423 1.532,0 C 0.423,1.109 0.423,0.423 0,0 Z"
       style="fill:#ff0000;fill-opacity:1;stroke:none;stroke-width:0.88636;stroke-linecap:butt;stroke-linejoin:miter;stroke-miterlimit:10;stroke-dasharray:none;stroke-opacity:1"
       transform="matrix(0.51095647,0,0,-0.50444971,449.33602,21.886952)"
       clip-path="url(#clipPath2004-1-8-2-55-5-4-2-28-4-2-8-8)" />
    <path
       id="path3881"
       d="m 0,0 c -0.423,-0.423 -1.109,-0.423 -1.532,0 -0.423,0.423 -0.423,1.109 0,1.532 0.423,0.423 1.109,0.423 1.532,0 C 0.423,1.109 0.423,0.423 0,0 Z"
       style="fill:#ff0000;fill-opacity:1;stroke:none;stroke-width:0.88636;stroke-linecap:butt;stroke-linejoin:miter;stroke-miterlimit:10;stroke-dasharray:none;stroke-opacity:1"
       transform="matrix(0.51095647,0,0,-0.50444971,440.85076,21.88692)"
       clip-path="url(#clipPath2004-1-8-2-55-5-4-2-28-4-2-8-8)" />
    <path
       id="path3883"
       d="m 0,0 c -0.423,-0.423 -1.109,-0.423 -1.532,0 -0.423,0.423 -0.423,1.109 0,1.532 0.423,0.423 1.109,0.423 1.532,0 C 0.423,1.109 0.423,0.423 0,0 Z"
       style="fill:#ff0000;fill-opacity:1;stroke:none;stroke-width:0.88636;stroke-linecap:butt;stroke-linejoin:miter;stroke-miterlimit:10;stroke-dasharray:none;stroke-opacity:1"
       transform="matrix(0.51095647,0,0,-0.50444971,445.0934,26.129569)"
       clip-path="url(#clipPath2004-1-8-2-55-5-4-2-28-4-2-8-8)" />
  </g>
</svg>
