<?xml version="1.0" encoding="UTF-8" standalone="no"?>
<!-- Created with Inkscape (http://www.inkscape.org/) -->

<svg
   width="27.117001mm"
   height="31.358999mm"
   viewBox="0 0 27.117001 31.358999"
   version="1.1"
   id="svg1"
   xmlns:xlink="http://www.w3.org/1999/xlink"
   xmlns="http://www.w3.org/2000/svg"
   xmlns:svg="http://www.w3.org/2000/svg">
  <defs
     id="defs1">
    <linearGradient
       id="linearGradient69">
      <stop
         style="stop-color:#ffdba6;stop-opacity:1;"
         offset="0"
         id="stop69" />
      <stop
         style="stop-color:#f2c478;stop-opacity:1;"
         offset="1"
         id="stop68" />
    </linearGradient>
    <clipPath
       clipPathUnits="userSpaceOnUse"
       id="clipPath1316-8-5-2">
      <path
         d="M 0,2834.646 H 2834.646 V 0 H 0 Z"
         transform="translate(-531.98141,-1560.2174)"
         id="path1316-8-2-8" />
    </clipPath>
    <clipPath
       clipPathUnits="userSpaceOnUse"
       id="clipPath4450-7-8-0-58">
      <path
         d="M 0,2834.646 H 2834.646 V 0 H 0 Z"
         transform="translate(-491.72521,-43.851026)"
         id="path4450-9-33-8-2" />
    </clipPath>
    <linearGradient
       xlink:href="#linearGradient69"
       id="linearGradient2"
       gradientUnits="userSpaceOnUse"
       gradientTransform="translate(1222.9821,-720.91338)"
       x1="-1283.1606"
       y1="735.85059"
       x2="-1283.1606"
       y2="646.95892" />
  </defs>
  <g
     id="path1315-1-0-4"
     clip-path="url(#clipPath1316-8-5-2)"
     transform="matrix(0.35277776,0,0,-0.35277776,21.229651,5.2695153)">
    <path
       style="color:#000000;fill:url(#linearGradient2);stroke-miterlimit:10;-inkscape-stroke:none"
       d="m 0,0 -21.223,7.255 c -0.337,0.115 -0.707,0.115 -1.044,0 L -43.49,0 c -0.512,-0.175 -0.879,-0.593 -0.956,-1.088 L -54.328,-64.8 c -0.128,-0.823 0.569,-1.559 1.477,-1.559 h 31.106 31.106 c 0.907,0 1.605,0.736 1.477,1.559 L 0.955,-1.088 C 0.879,-0.593 0.512,-0.175 0,0"
       id="path3" />
    <path
       style="color:#000000;fill:#4d3608;stroke-miterlimit:10;-inkscape-stroke:none"
       d="m -52.851562,-67.208984 c -1.367537,0 -2.528283,1.176762 -2.316407,2.539062 l 9.88086,63.71289075 c 0.128904,0.82867416 0.735013,1.49290547 1.521484,1.76171875 l 21.224609,7.2558594 c 0.517057,0.1764437 1.07474,0.1764437 1.591797,0 h 0.002 L 0.27539063,0.8046875 C 1.0612847,0.53607135 1.6668921,-0.12796836 1.7949219,-0.95703125 v -0.001953 L 11.677734,-64.669922 c 0.21198,-1.362964 -0.949363,-2.539062 -2.3164059,-2.539062 H -21.744141 Z m 0,1.701172 h 31.107421 31.1054691 c 0.4469549,0 0.6807389,0.293137 0.6367188,0.576171 v 0.002 L 0.11523437,-1.2167969 c -0.02457878,0.1600856 -0.15309689,0.33092303 -0.390625,0.4121094 L -21.498047,6.4511719 v -0.00195 c -0.156942,0.053556 -0.337198,0.053556 -0.49414,0 v 0.00195 l -21.222657,-7.2558594 c -0.237528,-0.0811864 -0.36553,-0.2527376 -0.390625,-0.4140625 l -9.882812,-63.710937 v -0.002 c -0.04412,-0.283698 0.188257,-0.576171 0.636719,-0.576171 z"
       id="path4" />
  </g>
  <path
     style="color:#000000;fill:#000000 icc-color(sRGB-IEC61966-2, 0.1, 0, 0, 0);stroke-width:0.352778;stroke-miterlimit:10;-inkscape-stroke:none"
     d="m 13.333357,24.858602 v -8.35849 h 0.450618 v 8.35849 z"
     id="path1317-1-0" />
  <path
     style="color:#000000;fill:#000000 icc-color(sRGB-IEC61966-2, 0.1, 0, 0, 0);stroke-width:0.352778;stroke-miterlimit:10;-inkscape-stroke:none"
     d="m 9.3794549,20.904659 v -0.450618 h 8.3584901 v 0.450618 z"
     id="path1323-3-0" />
  <path
     style="color:#000000;fill:#000000;stroke-width:0.559289;stroke-miterlimit:10;-inkscape-stroke:none"
     d="m 19.284053,19.490311 -7.86e-4,2.37827 -0.449547,3e-6 -7.59e-4,-2.378271 z"
     id="path4451-7-08-5-0" />
  <path
     style="color:#000000;fill:#000000;stroke-width:0.559289;stroke-miterlimit:10;-inkscape-stroke:none"
     d="m 8.2840795,19.490311 -7.86e-4,2.37827 -0.4495464,3e-6 -7.588e-4,-2.378271 z"
     id="path4451-7-08-1" />
  <path
     style="color:#000000;fill:#000000;stroke-width:0.559289;stroke-miterlimit:10;-inkscape-stroke:none"
     d="m 14.747705,26.405427 -2.37827,-7.86e-4 -3e-6,-0.449547 2.378271,-7.59e-4 z"
     id="path4451-7-08-5-4-29" />
  <g
     id="path4449-0-4-3-4"
     clip-path="url(#clipPath4450-7-8-0-58)"
     transform="matrix(0.29660612,0.39547498,0.29660953,-0.3954795,12.666835,15.179139)">
    <path
       style="color:#000000;fill:#000000;stroke-miterlimit:10;-inkscape-stroke:none"
       d="M 0,0 3.007,3.007"
       id="path5" />
    <path
       style="color:#000000;fill:#000000;stroke-miterlimit:10;-inkscape-stroke:none"
       d="m 0.328125,-0.328125 -0.65625,0.65625 3.0058594,3.0078125 0.6582031,-0.6582031 z"
       id="path6" />
  </g>
  <path
     style="color:#000000;fill:#000000;stroke-width:0.393104;stroke-miterlimit:10;-inkscape-stroke:none"
     d="m 12.873126,17.503473 -0.317862,-0.317862 1.00349,-1.00349 1.003489,1.00349 -0.318629,0.317862 -0.68486,-0.685629 z"
     id="path4671-0-44" />
  <path
     style="color:#000000;fill:#000000;stroke-width:0.393104;stroke-miterlimit:10;-inkscape-stroke:none"
     d="m 13.558287,25.17687 -1.003489,-1.00349 0.318629,-0.317862 0.68486,0.685629 0.685628,-0.685629 0.317862,0.317862 z"
     id="path4673-4-0" />
  <path
     style="color:#000000;fill:#000000;stroke-width:0.393104;stroke-miterlimit:10;-inkscape-stroke:none"
     d="m 16.734543,19.994101 0.317862,-0.317862 1.00349,1.00349 -1.00349,1.003489 -0.317862,-0.318629 0.685629,-0.68486 z"
     id="path4671-0-44-9" />
  <path
     style="color:#000000;fill:#000000;stroke-width:0.393104;stroke-miterlimit:10;-inkscape-stroke:none"
     d="m 9.0611463,20.679262 1.0034897,-1.003489 0.317862,0.318629 -0.6856289,0.68486 0.6856289,0.685628 -0.317862,0.317862 z"
     id="path4673-4-0-6" />
  <path
     style="stroke-width:0.352777"
     d="m 8.4369329,12.415842 0.4712887,-0.363801 q 0.1240235,0.198438 0.5457026,1.124477 l -0.5208979,0.33073 Q 8.7345887,12.911936 8.4369329,12.415842 Z M 10.322087,7.9510041 q -0.4464838,0.6614576 -0.4712885,0.6945305 0,0 -0.7937495,0.9921863 h 2.604489 Q 11.016618,8.9101175 10.917399,8.777826 10.892596,8.7447531 10.322087,7.9510041 Z m -0.124024,-1.1244778 0.595312,0.3968746 -0.09922,0.1653643 q 0.570507,0.8929677 1.165819,1.4221338 0.719335,0.7606761 1.513084,1.256769 -0.347265,0.595312 -0.396874,0.727604 -0.471289,-0.330729 -0.967382,-0.8268224 v 0.3638014 h -1.389062 v 0.826822 h 2.23242 v 0.628385 h -2.23242 v 1.918226 h 1.066601 q -0.173632,-0.165363 -0.421679,-0.363801 0.248047,-0.529166 0.496093,-1.355988 l 0.570507,0.396874 q -0.347265,0.892968 -0.570507,1.322915 h 1.364257 v 0.694531 H 7.6431838 V 13.705684 H 10.024431 V 11.787458 H 7.9408397 V 11.159073 H 10.024431 V 10.332251 H 8.7841981 V 9.9353767 Q 8.3873236,10.398397 7.8168165,10.89449 q -0.049609,-0.132291 -0.099219,-0.198437 -0.024805,-0.09922 -0.024805,-0.09922 0,-0.03307 -0.099219,-0.165364 Q 7.5191605,10.266106 7.4447466,10.166887 8.957831,9.0093362 10.198063,6.8265263 Z m 3.819918,1.7528625 0.520898,0.066146 q -0.0248,0.3307287 -0.0248,0.6283846 0,0.297656 -0.0248,0.4299475 -0.0248,0.1984372 -0.04961,0.4299472 0,0.198437 -0.07442,0.661458 l -0.496097,-0.09922 q 0.148828,-1.091405 0.148828,-2.1166642 z m 3.571871,2.8773402 v -1.124478 h -0.669726 v 1.124478 z M 16.771299,9.0093362 16.572861,9.7038666 h 1.562694 v 2.4143204 h -1.215429 v 1.455207 q 0,0.165363 0.09922,0.198436 0.09922,0.06614 0.471288,0.06614 h 1.215429 q 0.173633,0 0.248046,-0.09922 0.07442,-0.06614 0.198438,-0.661458 0.173632,0.231511 0.520897,0.429948 -0.148828,0.562239 -0.248046,0.727604 -0.148828,0.198436 -0.248047,0.231509 -0.07442,0.03307 -0.520898,0.03307 h -1.314646 q -0.471289,0 -0.545703,-0.03307 -0.173633,-0.09921 -0.297656,-0.264582 -0.124024,-0.165365 -0.124024,-0.396875 v -3.571861 q -0.223241,0.529166 -0.297655,0.628384 -0.124024,-0.23151 -0.421679,-0.628384 0.396874,-0.7606765 0.595312,-1.422134 0.248046,-0.7937491 0.421679,-1.8190083 l 0.545702,0.1653645 -0.248047,1.1906234 h 2.356443 q 0,2.7781214 -0.09922,3.7041624 -0.04961,0.562239 -0.198438,0.727603 -0.124023,0.165365 -0.595312,0.231511 -0.07441,-0.330729 -0.198437,-0.727604 h 0.272851 q 0.09922,0 0.124024,-0.03307 0.0248,-0.03307 0.07442,-0.529167 0,0 0.04961,-2.7119755 z M 14.762121,6.9918907 h 0.545702 v 1.885154 q 0.07442,-0.099219 0.124024,-0.1653644 0.04961,-0.099219 0.124023,-0.1653643 0.07442,-0.099219 0.124024,-0.1984374 0.07442,-0.099219 0.173632,-0.23151 l 0.37207,0.5622389 -0.942578,1.1244777 q -0.04961,1.1906238 -0.09922,1.7197898 0.471289,1.091405 0.818554,1.719789 l -0.421679,0.529166 q -0.32246,-0.595312 -0.570507,-1.289842 -0.272851,1.157551 -0.793749,2.050518 -0.248047,-0.46302 -0.396875,-0.628384 0.471288,-0.79375 0.620116,-1.422134 0.148828,-0.529166 0.272852,-1.785935 0.04961,-0.9260406 0.04961,-3.7041623 z"
     id="text1328-5-0-9-7-0-8"
     aria-label="金炮" />
</svg>
