<?xml version="1.0" encoding="UTF-8" standalone="no"?>
<!-- Created with Inkscape (http://www.inkscape.org/) -->

<svg
   width="26mm"
   height="30mm"
   viewBox="0 0 26 30"
   version="1.1"
   id="svg1"
   xmlns:xlink="http://www.w3.org/1999/xlink"
   xmlns="http://www.w3.org/2000/svg"
   xmlns:svg="http://www.w3.org/2000/svg">
  <defs
     id="defs1">
    <linearGradient
       id="linearGradient22">
      <stop
         style="stop-color:#ffdba6;stop-opacity:1;"
         offset="0"
         id="stop21" />
      <stop
         style="stop-color:#f2c478;stop-opacity:1;"
         offset="1"
         id="stop22" />
    </linearGradient>
    <clipPath
       clipPathUnits="userSpaceOnUse"
       id="clipPath1330-86">
      <path
         d="M 0,2834.646 H 2834.646 V 0 H 0 Z"
         transform="translate(-461.11531,-1560.2174)"
         id="path1330-98" />
    </clipPath>
    <linearGradient
       xlink:href="#linearGradient22"
       id="linearGradient15"
       gradientUnits="userSpaceOnUse"
       gradientTransform="translate(1207.5556,-722.83954)"
       x1="167.45578"
       y1="740.27698"
       x2="167.41826"
       y2="655.23761" />
  </defs>
  <g
     id="layer1"
     transform="translate(-504)">
    <g
       id="path1329-5"
       clip-path="url(#clipPath1330-86)"
       transform="matrix(0.35277776,0,0,-0.35277776,524.67115,4.5899251)">
      <path
         style="color:#000000;fill:url(#linearGradient15);stroke-miterlimit:10;-inkscape-stroke:none"
         d="m 0,0 -21.223,7.255 c -0.337,0.115 -0.707,0.115 -1.044,0 L -43.49,0 c -0.512,-0.175 -0.879,-0.593 -0.956,-1.088 L -54.328,-64.8 c -0.128,-0.823 0.569,-1.559 1.477,-1.559 h 31.106 31.106 c 0.907,0 1.605,0.736 1.477,1.559 L 0.955,-1.088 C 0.879,-0.593 0.512,-0.175 0,0"
         id="path133" />
      <path
         style="color:#000000;fill:#4d3608;stroke-miterlimit:10;-inkscape-stroke:none"
         d="m -52.851562,-67.208984 c -1.367537,0 -2.528283,1.176762 -2.316407,2.539062 l 9.88086,63.71289075 c 0.128904,0.82867416 0.735013,1.49290547 1.521484,1.76171875 l 21.224609,7.2558594 c 0.517057,0.1764437 1.07474,0.1764437 1.591797,0 h 0.002 L 0.27539063,0.8046875 C 1.0612847,0.53607135 1.6668921,-0.12796836 1.7949219,-0.95703125 v -0.001953 L 11.677734,-64.669922 c 0.21198,-1.362964 -0.949363,-2.539062 -2.3164059,-2.539062 H -21.744141 Z m 0,1.701172 h 31.107421 31.1054691 c 0.4469549,0 0.6807389,0.293137 0.6367188,0.576171 v 0.002 L 0.11523437,-1.2167969 c -0.02457878,0.1600856 -0.15309689,0.33092303 -0.390625,0.4121094 L -21.498047,6.4511719 v -0.00195 c -0.156942,0.053556 -0.337198,0.053556 -0.49414,0 v 0.00195 l -21.222657,-7.2558594 c -0.237528,-0.0811864 -0.36553,-0.2527376 -0.390625,-0.4140625 l -9.882812,-63.710937 v -0.002 c -0.04412,-0.283698 0.188257,-0.576171 0.636719,-0.576171 z"
         id="path134" />
    </g>
    <path
       style="stroke-width:0.352777"
       d="m 590.06405,9.6052224 0.51556,-0.1718517 q 0.11457,0.2577776 0.37234,1.0311103 l -0.54419,0.171852 q -0.11457,-0.486913 -0.34371,-1.0311106 z m 2.32,1.0024686 q -0.0859,0 -0.51555,-0.200494 l 0.42963,-1.0024682 0.54419,0.2577775 q -0.31506,0.7160487 -0.45827,0.9451847 z m 2.03358,-3.752096 V 5.3662135 h 0.68741 V 6.855595 h 1.26024 v 0.630123 h -1.28888 l -0.0859,1.0883941 h 1.57531 v 0.601481 h -1.34618 q 0.17186,0.6874069 0.28642,0.8592589 0.22914,0.429629 0.5442,0.773332 0.11457,0.114568 0.74469,0.630123 -0.20049,0.14321 -0.48691,0.544197 -0.51556,-0.429629 -0.68741,-0.658764 -0.28642,-0.343704 -0.48691,-0.716049 -0.14321,-0.229136 -0.37235,-0.9451847 -0.20049,0.6301227 -0.37234,0.9165427 -0.11457,0.200493 -0.42963,0.572839 -0.14321,0.14321 -0.28642,0.257777 -0.11457,0.14321 -0.22914,0.257778 l -0.51555,0.372345 q 0,0 -0.0859,-0.143209 -0.0573,-0.14321 -0.11456,-0.200494 0,-0.02864 -0.11457,-0.114568 -0.0859,-0.08593 -0.0859,-0.08593 0.80198,-0.544197 1.20296,-1.088394 0.40099,-0.5155551 0.51556,-1.2316039 h -1.31753 v -0.601481 h 1.4321 l 0.0573,-1.0883941 h -0.80197 q -0.14321,0.3150614 -0.34371,0.8019746 -0.37234,-0.1718517 -0.60148,-0.2577775 0.31506,-0.6587649 0.42963,-1.0597523 0.11457,-0.3437034 0.25778,-1.0597522 l 0.63012,0.1432097 q 0,0.028642 -0.0286,0.1145679 0,0.085926 -0.0286,0.1432097 0,0.028642 -0.11457,0.5441971 z m -3.12197,-1.5753074 0.60148,0.3437035 -0.0859,0.1718517 q 0.60148,0.4009873 1.14568,0.9451844 l -0.48691,0.4582712 q -0.63013,-0.601481 -1.00247,-0.8592585 -0.3437,0.5441971 -0.57284,0.8019746 -0.0286,0.057284 -0.0859,0.1145678 -0.0573,0.057284 -0.0859,0.1145679 h 1.74716 v 0.6014809 h -0.65877 v 0.5155552 h 0.85926 v 0.5441971 h -0.85926 v 1.7758006 q 0.71605,-0.143209 0.85926,-0.200493 v 0.658765 l -1.46074,0.343703 -1.05975,0.200494 -0.14321,-0.658765 1.20296,-0.200494 V 9.0323834 H 590.1787 V 8.4881863 h 1.03111 V 7.9726311 h -0.60148 V 7.485718 q -0.0859,0.085926 -0.17185,0.2004936 -0.0859,0.085926 -0.20049,0.2004937 -0.11457,-0.3723454 -0.34371,-0.630123 0.85926,-0.8592585 1.40346,-1.9762947 z m 6.24394,1.4320977 0.60148,0.057284 q -0.0286,0.2864195 -0.0286,0.544197 0,0.2577776 -0.0286,0.3723454 -0.0286,0.1718517 -0.0573,0.3723454 0,0.1718517 -0.0859,0.572839 l -0.57284,-0.085926 q 0.17185,-0.9451844 0.17185,-1.8330849 z m 4.12444,2.4918498 V 8.2304087 h -0.77333 v 0.9738264 z m -0.94518,-2.1195045 -0.22914,0.601481 h 1.80445 v 2.0908625 h -1.40346 V 11.03732 q 0,0.14321 0.11457,0.171852 0.11457,0.05728 0.5442,0.05728 h 1.40345 q 0.2005,0 0.28642,-0.08593 0.0859,-0.05728 0.22914,-0.572839 0.20049,0.200493 0.60148,0.372345 -0.17185,0.486913 -0.28642,0.630123 -0.17185,0.171852 -0.28642,0.200494 -0.0859,0.02864 -0.60148,0.02864 h -1.51803 q -0.54419,0 -0.63012,-0.02864 -0.20049,-0.08593 -0.3437,-0.229136 -0.14321,-0.14321 -0.14321,-0.343703 V 8.1444829 q -0.25778,0.4582712 -0.3437,0.5441971 -0.14321,-0.2004937 -0.48692,-0.5441971 0.45827,-0.6587649 0.68741,-1.231604 0.28642,-0.6874068 0.48691,-1.5753074 l 0.63012,0.1432098 -0.28641,1.0311103 h 2.72098 q 0,2.405924 -0.11457,3.2078986 -0.0573,0.4869128 -0.22913,0.6301228 -0.14321,0.14321 -0.68741,0.200494 -0.0859,-0.28642 -0.22914,-0.6301231 h 0.31507 q 0.11456,0 0.14321,-0.028642 0.0286,-0.028642 0.0859,-0.4582712 0,0 0.0573,-2.3486401 z m -2.32,-1.7471591 h 0.63012 v 1.6325913 q 0.0859,-0.085926 0.14321,-0.1432097 0.0573,-0.085926 0.14321,-0.1432098 0.0859,-0.085926 0.14321,-0.1718517 0.0859,-0.085926 0.2005,-0.2004937 l 0.42963,0.4869132 -1.0884,0.9738264 q -0.0573,1.0311103 -0.11457,1.4893815 0.5442,0.945184 0.94519,1.489382 l -0.48691,0.458271 q -0.37235,-0.515555 -0.65877,-1.117036 -0.31506,1.002468 -0.91654,1.775801 -0.28642,-0.400988 -0.45827,-0.544197 0.54419,-0.687407 0.71605,-1.231604 0.17185,-0.4582716 0.31506,-1.5466658 0.0573,-0.8019747 0.0573,-3.2078987 z"
       id="text1328-5-0-9-7-0-8-5"
       transform="scale(0.86602543,1.1547005)"
       aria-label="鉄炮" />
    <path
       style="color:#000000;fill:#000000 icc-color(sRGB-IEC61966-2, 0.1, 0, 0, 0);stroke-miterlimit:10;-inkscape-stroke:none"
       d="m -0.63867187,-1.4179687 v 7.5957031 h 1.27734374 v -7.5957031 z m 0,18.9335937 v 7.59375 h 1.27734374 v -7.59375 z"
       id="path3809"
       transform="matrix(0.24945155,0.24945155,0.24945155,-0.24945155,513.74648,24.455209)" />
    <path
       style="color:#000000;fill:#000000 icc-color(sRGB-IEC61966-2, 0.1, 0, 0, 0);stroke-miterlimit:10;-inkscape-stroke:none"
       d="m -25.111328,-0.63867187 v 1.27734374 h 7.595703 v -1.27734374 z m 18.9335936,0 v 1.27734374 h 7.59375 v -1.27734374 z"
       id="path3811"
       transform="matrix(0.24945155,0.24945155,0.24945155,-0.24945155,519.65685,24.455227)" />
    <path
       style="color:#000000;fill:#000000;stroke-miterlimit:10;-inkscape-stroke:none"
       d="M -0.28515625,-0.28515625 -3.2910156,2.7226563 -2.7226563,3.2910156 0.28515625,0.28515625 Z"
       id="path3813"
       transform="matrix(0,-0.55928609,-0.55929249,0,518.95661,22.073438)" />
    <path
       style="color:#000000;fill:#000000;stroke-miterlimit:10;-inkscape-stroke:none"
       d="M -0.28515625,-0.28515625 -3.2910156,2.7226563 -2.7226563,3.2910156 0.28515625,0.28515625 Z"
       id="path3815"
       transform="matrix(0,-0.55928609,-0.55929249,0,516.12837,19.245201)" />
    <path
       style="color:#000000;fill:#000000;stroke-miterlimit:10;-inkscape-stroke:none"
       d="M -0.28515625,-0.28515625 -3.2910156,2.7226563 -2.7226563,3.2910156 0.28515625,0.28515625 Z"
       id="path3817"
       transform="matrix(0.55928609,0,0,-0.55929249,516.12784,23.755404)" />
    <path
       style="color:#000000;fill:#000000;stroke-miterlimit:10;-inkscape-stroke:none"
       d="M 0.28515625,-0.28515625 -0.28515625,0.28515625 2.7226563,3.2910156 3.2910156,2.7226563 Z"
       id="path3819"
       transform="matrix(0,0.55928609,0.55929249,0,517.27518,19.244801)" />
    <path
       style="color:#000000;fill:#000000;stroke-miterlimit:10;-inkscape-stroke:none"
       d="M 0.40429688,-0.40429688 -0.40429688,0.40429688 2.1484375,2.9570313 4.7011719,0.40429688 3.890625,-0.40429688 2.1484375,1.3398437 Z"
       id="path3821"
       transform="matrix(0.27796635,0.27796635,0.27796648,-0.27796648,518.81614,18.191283)" />
    <path
       style="color:#000000;fill:#000000;stroke-miterlimit:10;-inkscape-stroke:none"
       d="m -2.1484375,-2.9570313 -2.5527344,2.55273442 0.8105469,0.80859376 1.7421875,-1.74414058 1.74414062,1.74414058 0.80859376,-0.80859376 z"
       id="path3823"
       transform="matrix(0.27796635,0.27796635,0.27796648,-0.27796648,514.58675,24.80878)" />
    <path
       style="color:#000000;fill:#000000;stroke-miterlimit:10;-inkscape-stroke:none"
       d="M 0.40429688,-0.40429688 -0.40429688,0.40429688 2.1484375,2.9570313 4.7011719,0.40429688 3.890625,-0.40429688 2.1484375,1.3398437 Z"
       id="path3825"
       transform="matrix(-0.27796635,0.27796635,0.27796648,0.27796648,520.01023,23.614768)" />
    <path
       style="color:#000000;fill:#000000;stroke-miterlimit:10;-inkscape-stroke:none"
       d="m -2.1484375,-2.9570313 -2.5527344,2.55273442 0.8105469,0.80859376 1.7421875,-1.74414058 1.74414062,1.74414058 0.80859376,-0.80859376 z"
       id="path3827"
       transform="matrix(-0.27796635,0.27796635,0.27796648,0.27796648,513.39266,19.385292)" />
  </g>
</svg>
