<?xml version="1.0" encoding="UTF-8" standalone="no"?>
<!-- Created with Inkscape (http://www.inkscape.org/) -->

<svg
   width="27.116999mm"
   height="31.358999mm"
   viewBox="0 0 27.116999 31.358999"
   version="1.1"
   id="svg1"
   inkscape:version="1.3.1 (91b66b0783, 2023-11-16)"
   sodipodi:docname="Template.svg"
   inkscape:export-filename="My Sets\Cannon Shogi Prototype\1pawn.svg"
   inkscape:export-xdpi="96"
   inkscape:export-ydpi="96"
   xmlns:inkscape="http://www.inkscape.org/namespaces/inkscape"
   xmlns:sodipodi="http://sodipodi.sourceforge.net/DTD/sodipodi-0.dtd"
   xmlns:xlink="http://www.w3.org/1999/xlink"
   xmlns="http://www.w3.org/2000/svg"
   xmlns:svg="http://www.w3.org/2000/svg">
  <sodipodi:namedview
     id="namedview1"
     pagecolor="#ffffff"
     bordercolor="#999999"
     borderopacity="1"
     inkscape:showpageshadow="2"
     inkscape:pageopacity="0"
     inkscape:pagecheckerboard="0"
     inkscape:deskcolor="#d1d1d1"
     inkscape:document-units="mm"
     inkscape:zoom="2.0737236"
     inkscape:cx="31.103471"
     inkscape:cy="78.361457"
     inkscape:window-width="1920"
     inkscape:window-height="1009"
     inkscape:window-x="-8"
     inkscape:window-y="-8"
     inkscape:window-maximized="1"
     inkscape:current-layer="layer1" />
  <defs
     id="defs1">
    <linearGradient
       id="linearGradient4"
       inkscape:collect="always">
      <stop
         style="stop-color:#f2c478;stop-opacity:1;"
         offset="0"
         id="stop4" />
      <stop
         style="stop-color:#ffdba6;stop-opacity:1;"
         offset="1"
         id="stop3" />
    </linearGradient>
    <clipPath
       clipPathUnits="userSpaceOnUse"
       id="clipPath1278-4">
      <path
         d="M 0,2834.646 H 2834.646 V 0 H 0 Z"
         transform="translate(-101.8765,-1555.7911)"
         id="path1278-7" />
    </clipPath>
    <linearGradient
       inkscape:collect="always"
       xlink:href="#linearGradient4"
       id="linearGradient73"
       gradientUnits="userSpaceOnUse"
       gradientTransform="translate(-210.61498,-223.09116)"
       x1="220.1403"
       y1="165.97786"
       x2="220.1403"
       y2="230.04141" />
  </defs>
  <g
     inkscape:label="Layer 1"
     inkscape:groupmode="layer"
     id="layer1">
    <g
       id="path1277-5"
       clip-path="url(#clipPath1278-4)"
       transform="matrix(0.35277776,0,0,-0.35277776,19.498256,6.8312952)">
      <path
         style="color:#000000;fill:url(#linearGradient73);stroke-miterlimit:10;-inkscape-stroke:none"
         d="m 0,0 -16.217,5.989 c -0.397,0.146 -0.844,0.146 -1.241,0 L -33.674,0 c -0.531,-0.196 -0.903,-0.627 -0.975,-1.131 l -7.687,-53.534 c -0.122,-0.848 0.627,-1.598 1.595,-1.598 h 23.904 23.903 c 0.969,0 1.717,0.75 1.596,1.598 L 0.975,-1.131 C 0.902,-0.627 0.531,-0.196 0,0"
         id="path1" />
      <path
         style="color:#000000;fill:#4d3608;stroke-miterlimit:10;-inkscape-stroke:none"
         d="m -40.740234,-57.113281 c -1.406573,0 -2.637944,1.165724 -2.4375,2.568359 l 7.6875,53.5351564 c 0.120395,0.84276505 0.731595,1.5150809 1.521484,1.8066406 l 16.216797,5.9902344 c 0.591076,0.2173731 1.237049,0.2173731 1.828125,0 L 0.29492188,0.796875 C 1.085136,0.50519519 1.6946732,-0.16930742 1.8164062,-1.0097656 L 9.5039063,-54.544922 c 0.2001345,-1.402596 -1.0297011,-2.568359 -2.4375001,-2.568359 H -16.837891 Z m 0,1.701172 h 23.902343 23.9042972 c 0.5301992,0 0.7957715,0.333551 0.7539063,0.626953 l -7.6875,53.5332029 c -0.0242668,0.1675408 -0.1559496,0.3547583 -0.42773438,0.4550781 L -16.511719,5.1914062 c -0.202585,0.07396 -0.450026,0.074404 -0.652343,0 L -33.378906,-0.796875 c -0.27211,-0.1004399 -0.40413,-0.2898442 -0.427735,-0.4550781 l -7.6875,-53.5332029 c -0.04208,-0.292456 0.225161,-0.626953 0.753907,-0.626953 z"
         id="path2" />
    </g>
    <path
       style="stroke-width:0.35424"
       d="m 10.524466,15.215914 q -0.0984,-0.429948 -0.295204,-0.760678 0.951212,-0.03308 2.099226,-0.33073 0.918412,-0.231511 1.60722,-0.727605 0.688809,-0.463022 1.344816,-1.190628 l 0.590407,0.463022 q -0.754409,0.760678 -0.984011,0.926043 -0.459206,0.363803 -1.148014,0.694533 -0.459206,0.264584 -1.443218,0.562241 -0.78721,0.198437 -1.771222,0.363802 z m 6.756883,-2.844276 -0.492007,0.595313 Q 15.838131,12.107055 15.018121,11.61096 l 0.426405,-0.562241 q 1.082413,0.694532 1.836823,1.322919 z m -6.920885,0.926044 q -0.0984,-0.198438 -0.164002,-0.264584 L 9.8684584,12.669295 q 0.6560076,-0.463022 0.8528096,-0.661459 0.360805,-0.297657 0.984013,-0.992189 l 0.623207,0.496094 q -0.131201,0.132292 -0.262403,0.264584 -0.131202,0.132291 -0.262403,0.264583 -0.656008,0.66146 -0.721609,0.694533 -0.524807,0.429949 -0.721609,0.562241 z m 2.853635,-3.175006 V 7.5429838 h 0.721609 v 0.9921891 h 2.558431 v 0.694533 h -2.558431 v 0.8929701 h 3.28004 v 0.727606 h -3.28004 v 1.918232 q 0,0.264584 -0.229603,0.463022 -0.196802,0.165365 -1.016812,0.33073 -0.0328,-0.33073 -0.328004,-0.793752 h 0.721609 q 0.0328,0 0.0984,-0.06614 0.0328,-0.03308 0.0328,-0.09922 v -1.75287 h -3.37844 v -0.727606 h 1.279215 V 8.2375178 h 0.75441 v 1.8851602 z"
       id="text1280-45"
       aria-label="歩" />
    <path
       style="color:#000000;fill:#000000;stroke-width:0.352778;stroke-miterlimit:10;-inkscape-stroke:none"
       d="m 13.333157,20.679749 v -4.000444 h 0.450618 v 4.000444 z"
       id="path1451-3" />
    <path
       style="color:#000000;fill:#000000;stroke-width:0.352778;stroke-miterlimit:10;-inkscape-stroke:none"
       d="m 9.5582708,20.904817 v -0.450618 h 8.0002002 v 0.450618 z"
       id="path1453-1" />
  </g>
</svg>
