<?xml version="1.0" encoding="UTF-8" standalone="no"?>
<!-- Created with Inkscape (http://www.inkscape.org/) -->

<svg
   width="26mm"
   height="30mm"
   viewBox="0 0 26 30"
   version="1.1"
   id="svg1"
   xmlns:xlink="http://www.w3.org/1999/xlink"
   xmlns="http://www.w3.org/2000/svg"
   xmlns:svg="http://www.w3.org/2000/svg">
  <defs
     id="defs1">
    <linearGradient
       id="linearGradient22">
      <stop
         style="stop-color:#ffdba6;stop-opacity:1;"
         offset="0"
         id="stop21" />
      <stop
         style="stop-color:#f2c478;stop-opacity:1;"
         offset="1"
         id="stop22" />
    </linearGradient>
    <linearGradient
       xlink:href="#linearGradient22"
       id="linearGradient2655"
       gradientUnits="userSpaceOnUse"
       gradientTransform="translate(-311.81167,-212.60334)"
       x1="289.06915"
       y1="220.19536"
       x2="289.06967"
       y2="143.72234" />
    <clipPath
       clipPathUnits="userSpaceOnUse"
       id="clipPath1416">
      <path
         d="M 0,2834.646 H 2834.646 V 0 H 0 Z"
         transform="translate(-674.71072,-1561.3219)"
         id="path1416" />
    </clipPath>
  </defs>
  <g
     id="layer1"
     transform="translate(-288)">
    <g
       id="path2542"
       clip-path="url(#clipPath1416)"
       transform="matrix(0.35277776,0,0,-0.35277776,309.023,4.2003246)">
      <path
         style="fill:url(#linearGradient2655);stroke-miterlimit:10"
         d="m 0,0 -22.28,7.578 c -0.3,0.102 -0.625,0.102 -0.924,0 L -45.484,0 c -0.502,-0.171 -0.868,-0.604 -0.949,-1.125 l -10.308,-66.12 c -0.134,-0.86 0.535,-1.636 1.411,-1.636 h 32.588 32.588 c 0.875,0 1.545,0.776 1.41,1.636 L 0.948,-1.125 C 0.867,-0.604 0.502,-0.171 0,0"
         id="path22" />
      <path
         style="fill:#4d3608;stroke-miterlimit:10"
         d="m -55.330078,-69.730469 c -1.378212,0 -2.464222,1.254865 -2.251953,2.617188 l 10.308594,66.11914037 c 0.129751,0.83457482 0.718286,1.52722461 1.515625,1.79882813 l 22.279296,7.578125 c 0.47722,0.1627974 0.995439,0.1622541 1.472657,0 L 0.2734375,0.8046875 C 1.0711028,0.53297283 1.6594742,-0.16061568 1.7890625,-0.99414063 L 12.095703,-67.113281 c 0.214001,-1.363265 -0.872214,-2.617188 -2.2499999,-2.617188 H -22.742187 Z m 0,1.699219 h 32.587891 32.5878901 c 0.3722139,0 0.6263119,0.297561 0.5703129,0.654297 L 0.10742187,-1.2558594 c -0.03241166,0.2084751 -0.17452466,0.38088657 -0.38085937,0.4511719 l -22.2812495,7.578125 c -0.122783,0.041746 -0.25422,0.041203 -0.375,0 l -22.279297,-7.578125 c -0.206661,-0.0703965 -0.350564,-0.2437467 -0.382813,-0.4511719 L -55.900391,-67.376953 c -0.05459,-0.356865 0.197159,-0.654297 0.570313,-0.654297 z"
         id="path23" />
    </g>
    <path
       style="fill:#ff0000;stroke-width:0.352777"
       d="m 299.99125,11.740262 0.46302,-0.56224 q 0.69453,0.463021 1.35599,0.959115 l -0.46302,0.595313 q -0.66146,-0.56224 -1.35599,-0.992188 z m 1.32291,-5.9862003 -0.0331,1.9843758 h 3.40651 v 0.7606774 h -3.00963 q 0.19843,0.926042 0.76067,1.8520841 0.59532,0.992188 1.05834,1.35599 0.7276,0.595313 1.35599,0.926042 -0.26459,0.264584 -0.56224,0.661459 -0.89297,-0.529167 -1.32292,-0.959115 -0.62839,-0.628386 -1.05833,-1.322917 -0.52917,-0.826824 -0.8599,-1.9513033 -0.29766,0.8929691 -0.56224,1.3890633 -0.3638,0.694531 -0.76068,1.124479 -0.42994,0.496094 -0.92604,0.926042 -0.16536,0.165365 -1.15755,0.826824 -0.0662,-0.132292 -0.13229,-0.231511 -0.0331,-0.06615 -0.0331,-0.06615 0,0 -0.33073,-0.330729 1.02527,-0.628386 1.48829,-1.12448 0.69453,-0.694531 1.12448,-1.455209 0.29765,-0.4960935 0.56224,-1.6205731 h -2.91042 V 7.7384375 h 3.04271 l 0.0661,-1.9843758 z"
       id="text2542"
       aria-label="太" />
    <path
       style="fill:#ff0000;stroke-miterlimit:10"
       d="M -0.63867187,0 V 25.511719 H 0.63867187 V 0 Z"
       id="path2544"
       transform="matrix(0.35277776,0,0,-0.35277776,301.00007,25.49997)" />
    <path
       style="fill:#ff0000;stroke-miterlimit:10"
       d="M -25.511719,-0.63867187 V 0.63867187 H 0 v -1.27734374 z"
       id="path2546"
       transform="matrix(0.35277776,0,0,-0.35277776,305.50008,20.999964)" />
    <path
       style="fill:#ff0000;stroke-miterlimit:10"
       d="M -0.45117188,-0.45117188 -18.490234,17.587891 -17.589844,18.490234 0.45117188,0.45117188 Z"
       id="path2554"
       transform="matrix(0.35277776,0,0,-0.35277776,304.18205,24.181948)" />
    <path
       style="fill:#ff0000;stroke-miterlimit:10"
       d="m -17.589844,-18.490234 -0.90039,0.902343 18.03906212,18.03906288 0.90234376,-0.90234376 z"
       id="path2654"
       transform="matrix(0.35277776,0,0,-0.35277776,304.18205,17.818005)" />
  </g>
</svg>
