<?xml version="1.0" encoding="UTF-8" standalone="no"?>
<!-- Created with Inkscape (http://www.inkscape.org/) -->

<svg
   width="27.117002mm"
   height="31.358999mm"
   viewBox="0 0 27.117003 31.358999"
   version="1.1"
   id="svg1"
   xmlns:xlink="http://www.w3.org/1999/xlink"
   xmlns="http://www.w3.org/2000/svg"
   xmlns:svg="http://www.w3.org/2000/svg">
  <defs
     id="defs1">
    <linearGradient
       id="linearGradient69">
      <stop
         style="stop-color:#ffdba6;stop-opacity:1;"
         offset="0"
         id="stop69" />
      <stop
         style="stop-color:#f2c478;stop-opacity:1;"
         offset="1"
         id="stop68" />
    </linearGradient>
    <clipPath
       clipPathUnits="userSpaceOnUse"
       id="clipPath1316-8">
      <path
         d="M 0,2834.646 H 2834.646 V 0 H 0 Z"
         transform="translate(-531.98141,-1560.2174)"
         id="path1316-8" />
    </clipPath>
    <linearGradient
       xlink:href="#linearGradient69"
       id="linearGradient4"
       gradientUnits="userSpaceOnUse"
       gradientTransform="translate(1328.1956,-720.91338)"
       x1="-1283.1606"
       y1="735.85059"
       x2="-1283.1606"
       y2="646.95892" />
  </defs>
  <g
     id="path1315-1"
     clip-path="url(#clipPath1316-8)"
     transform="matrix(0.35277776,0,0,-0.35277776,21.229648,5.2695153)">
    <path
       style="color:#000000;fill:url(#linearGradient4);stroke-miterlimit:10;-inkscape-stroke:none"
       d="m 0,0 -21.223,7.255 c -0.337,0.115 -0.707,0.115 -1.044,0 L -43.49,0 c -0.512,-0.175 -0.879,-0.593 -0.956,-1.088 L -54.328,-64.8 c -0.128,-0.823 0.569,-1.559 1.477,-1.559 h 31.106 31.106 c 0.907,0 1.605,0.736 1.477,1.559 L 0.955,-1.088 C 0.879,-0.593 0.512,-0.175 0,0"
       id="path9" />
    <path
       style="color:#000000;fill:#4d3608;stroke-miterlimit:10;-inkscape-stroke:none"
       d="m -52.851562,-67.208984 c -1.367537,0 -2.528283,1.176762 -2.316407,2.539062 l 9.88086,63.71289075 c 0.128904,0.82867416 0.735013,1.49290547 1.521484,1.76171875 l 21.224609,7.2558594 c 0.517057,0.1764437 1.07474,0.1764437 1.591797,0 h 0.002 L 0.27539063,0.8046875 C 1.0612847,0.53607135 1.6668921,-0.12796836 1.7949219,-0.95703125 v -0.001953 L 11.677734,-64.669922 c 0.21198,-1.362964 -0.949363,-2.539062 -2.3164059,-2.539062 H -21.744141 Z m 0,1.701172 h 31.107421 31.1054691 c 0.4469549,0 0.6807389,0.293137 0.6367188,0.576171 v 0.002 L 0.11523437,-1.2167969 c -0.02457878,0.1600856 -0.15309689,0.33092303 -0.390625,0.4121094 L -21.498047,6.4511719 v -0.00195 c -0.156942,0.053556 -0.337198,0.053556 -0.49414,0 v 0.00195 l -21.222657,-7.2558594 c -0.237528,-0.0811864 -0.36553,-0.2527376 -0.390625,-0.4140625 l -9.882812,-63.710937 v -0.002 c -0.04412,-0.283698 0.188257,-0.576171 0.636719,-0.576171 z"
       id="path10" />
  </g>
  <path
     style="color:#000000;fill:#000000 icc-color(sRGB-IEC61966-2, 0.1, 0, 0, 0);stroke-width:0.352778;stroke-miterlimit:10;-inkscape-stroke:none"
     d="m 13.333509,24.858444 v -8.35849 h 0.450618 v 8.35849 z"
     id="path1317-1-0-0" />
  <path
     style="color:#000000;fill:#000000 icc-color(sRGB-IEC61966-2, 0.1, 0, 0, 0);stroke-width:0.352778;stroke-miterlimit:10;-inkscape-stroke:none"
     d="m 9.379608,20.904501 v -0.450618 h 8.35849 v 0.450618 z"
     id="path1323-3-0-9" />
  <path
     style="color:#000000;fill:#000000;stroke-width:0.559289;stroke-miterlimit:10;-inkscape-stroke:none"
     d="m 9.1541025,21.868442 7.86e-4,-2.37827 0.4495463,-3e-6 7.589e-4,2.378271 z"
     id="path4451-7-08-5-4-29-3-5" />
  <path
     style="color:#000000;fill:#000000;stroke-width:0.559289;stroke-miterlimit:10;-inkscape-stroke:none"
     d="m 17.512102,19.490259 0.451092,2e-6 -7.59e-4,2.378271 -0.449547,-3e-6 z"
     id="path4449-0-4-3-4-8-3" />
  <path
     style="color:#000000;fill:#000000;stroke-width:0.559289;stroke-miterlimit:10;-inkscape-stroke:none"
     d="m 14.747859,25.083911 -2.37827,-7.86e-4 -3e-6,-0.449547 2.378271,-7.59e-4 z"
     id="path4451-7-08-5-4-29-3" />
  <path
     style="color:#000000;fill:#000000;stroke-width:0.559289;stroke-miterlimit:10;-inkscape-stroke:none"
     d="m 12.369647,16.725909 2e-6,-0.451092 2.378271,7.59e-4 -3e-6,0.449547 z"
     id="path4449-0-4-3-4-8" />
  <path
     style="stroke-width:0.352777"
     d="M 7.5688754,11.770747 8.0401638,11.57231 q 0.2728517,0.892967 0.2976564,1.190623 L 7.8913365,13.027516 Q 7.7921177,12.49835 7.5688754,11.770747 Z m 1.934764,-0.23151 0.4712884,0.264583 -0.3968752,1.124478 q -0.099218,-0.03307 -0.1984367,-0.132292 -0.049606,-0.03307 -0.099219,-0.06614 -0.049606,-0.03307 -0.1240235,-0.03307 0.074418,-0.231511 0.1488282,-0.496093 0.099219,-0.264584 0.1984376,-0.661458 z M 12.33137,10.017885 V 9.2572084 h -1.463475 v 0.7606766 z m 0,-1.3890612 V 7.8681477 H 10.867895 V 8.6288238 Z M 10.297388,13.622829 V 7.1736173 h 2.579684 V 10.712415 H 11.9593 q 0.04961,0.628385 0.04961,0.661458 0.0248,0.132291 0.07442,0.46302 l 0.868162,-0.859895 0.347265,0.661458 q -0.297655,0.231509 -1.016991,0.859894 0.09922,0.330729 0.248047,0.562239 0.198437,0.330729 0.297656,0.463021 0.09922,0.06614 0.198438,0.165364 0.09922,0.06614 0.32246,0.264583 -0.148828,0.198437 -0.223242,0.264583 -0.04961,0.06614 -0.09922,0.132292 -0.0248,0.03307 -0.07442,0.09921 -0.0248,0.06614 -0.07442,0.132292 -0.545702,-0.562239 -0.744139,-0.92604 -0.322461,-0.496094 -0.471289,-1.091406 -0.223242,-0.859895 -0.248046,-1.852081 h -0.545703 v 2.711976 q 0.223243,-0.09922 0.421679,-0.165364 0.198438,-0.06614 0.396875,-0.132292 l 0.0248,0.727603 q -1.537886,0.595314 -1.7115181,0.66146 L 9.8508957,13.755113 Z M 8.6602805,6.7767427 9.1811783,7.1405443 9.1067607,7.3059088 9.5532453,7.768929 q 0.049606,0.033073 0.1736321,0.1984372 L 10.098947,8.3642407 9.7020727,8.9926254 Q 9.0571548,8.1988764 9.0571548,8.1988764 8.9827416,8.0996577 8.9083275,8.033512 8.8587181,7.9673662 8.8091087,7.9342934 8.3874296,8.8272611 8.1145779,9.1910626 H 9.6772714 V 9.8194473 H 9.0571548 v 0.6945307 h 0.7689448 v 0.628384 H 9.0571548 v 2.116664 q 0.496094,-0.132291 0.7441401,-0.23151 v 0.69453 Q 9.2803971,13.920484 8.6106711,14.118921 L 7.6680942,14.416577 7.519266,13.622829 8.536257,13.424391 V 11.142362 H 7.6680942 V 10.513978 H 8.536257 V 9.8194473 H 8.0401638 V 9.3233543 L 7.7425083,9.7533016 Q 7.5440707,9.2902813 7.420048,9.0587711 8.1145779,8.1327307 8.6602805,6.7767427 Z m 5.3826115,1.6536438 0.520897,0.066146 q -0.0248,0.3307289 -0.0248,0.6283847 0,0.2976559 -0.0248,0.4299474 -0.0248,0.1984373 -0.0496,0.4299474 0,0.198437 -0.07442,0.661457 l -0.496093,-0.09922 q 0.148828,-1.0914052 0.148828,-2.1166644 z m 3.57187,2.8773405 v -1.124478 h -0.669726 v 1.124478 z M 16.796209,8.8603339 16.597771,9.5548643 h 1.562694 v 2.4143197 h -1.215429 v 1.455207 q 0,0.165365 0.09922,0.198438 0.09922,0.06614 0.471289,0.06614 h 1.215428 q 0.173633,0 0.248046,-0.09922 0.07442,-0.06614 0.198438,-0.661457 0.173633,0.231509 0.520898,0.429947 -0.148828,0.562239 -0.248047,0.727603 -0.148828,0.198438 -0.248046,0.231511 -0.07442,0.03307 -0.520898,0.03307 h -1.314648 q -0.471288,0 -0.545701,-0.03307 -0.173633,-0.09922 -0.297657,-0.264584 -0.124023,-0.165364 -0.124023,-0.396874 V 10.08403 Q 16.176093,10.613196 16.101679,10.712415 15.977656,10.480905 15.68,10.08403 16.076875,9.3233543 16.275312,8.6618967 16.523358,7.8681477 16.696991,6.8428884 l 0.545703,0.1653644 -0.248047,1.1906236 h 2.356443 q 0,2.7781216 -0.09922,3.7041616 -0.04961,0.562239 -0.198438,0.727604 -0.124023,0.165364 -0.595312,0.23151 -0.07442,-0.330729 -0.198436,-0.727603 h 0.272851 q 0.09922,0 0.124023,-0.03307 0.0248,-0.03307 0.07442,-0.529165 0,0 0.04961,-2.7119768 z M 14.787031,6.8428884 h 0.545702 v 1.885154 q 0.07442,-0.099219 0.124024,-0.1653643 0.04961,-0.099219 0.124023,-0.1653644 0.07442,-0.099219 0.124024,-0.1984373 0.07442,-0.099219 0.173632,-0.2315102 l 0.37207,0.562239 -0.942577,1.1244778 q -0.04961,1.190624 -0.09922,1.71979 0.471288,1.091404 0.818553,1.719789 l -0.421679,0.529167 q -0.322461,-0.595313 -0.570507,-1.289842 -0.272852,1.15755 -0.793749,2.050518 -0.248047,-0.463021 -0.396875,-0.628386 0.471288,-0.793748 0.620117,-1.422132 0.148828,-0.529167 0.272851,-1.785936 0.04961,-0.9260409 0.04961,-3.7041626 z"
     id="text1328-5-0-9-7-0-8-5-7"
     aria-label="銀炮" />
</svg>
