<?xml version="1.0" encoding="UTF-8" standalone="no"?>
<!-- Created with Inkscape (http://www.inkscape.org/) -->

<svg
   width="27.116999mm"
   height="31.358999mm"
   viewBox="0 0 27.116999 31.358999"
   version="1.1"
   id="svg1"
   inkscape:version="1.3.1 (91b66b0783, 2023-11-16)"
   sodipodi:docname="Template.svg"
   inkscape:export-filename="FAIRY CZECH (Mine)\Regular Shogi\0FU.svg"
   inkscape:export-xdpi="96"
   inkscape:export-ydpi="96"
   xmlns:inkscape="http://www.inkscape.org/namespaces/inkscape"
   xmlns:sodipodi="http://sodipodi.sourceforge.net/DTD/sodipodi-0.dtd"
   xmlns="http://www.w3.org/2000/svg"
   xmlns:svg="http://www.w3.org/2000/svg">
  <sodipodi:namedview
     id="namedview1"
     pagecolor="#ffffff"
     bordercolor="#999999"
     borderopacity="1"
     inkscape:showpageshadow="2"
     inkscape:pageopacity="0"
     inkscape:pagecheckerboard="0"
     inkscape:deskcolor="#d1d1d1"
     inkscape:document-units="mm"
     inkscape:zoom="2.0737236"
     inkscape:cx="31.103471"
     inkscape:cy="78.361457"
     inkscape:window-width="1920"
     inkscape:window-height="1009"
     inkscape:window-x="-8"
     inkscape:window-y="-8"
     inkscape:window-maximized="1"
     inkscape:current-layer="layer1" />
  <defs
     id="defs1">
    <clipPath
       clipPathUnits="userSpaceOnUse"
       id="clipPath1278">
      <path
         d="M 0,2834.646 H 2834.646 V 0 H 0 Z"
         transform="translate(-101.8765,-1555.7911)"
         id="path1278" />
    </clipPath>
  </defs>
  <g
     inkscape:label="Layer 1"
     inkscape:groupmode="layer"
     id="layer1">
    <g
       id="path1277"
       clip-path="url(#clipPath1278)"
       transform="matrix(0.35277776,0,0,-0.35277776,19.495754,6.8317079)">
      <path
         style="color:#000000;fill:#ffdb9d;stroke-miterlimit:10;-inkscape-stroke:none"
         d="m 0,0 -16.217,5.989 c -0.397,0.146 -0.844,0.146 -1.241,0 L -33.674,0 c -0.531,-0.196 -0.903,-0.627 -0.975,-1.131 l -7.687,-53.534 c -0.122,-0.848 0.627,-1.598 1.595,-1.598 h 23.904 23.903 c 0.969,0 1.717,0.75 1.596,1.598 L 0.975,-1.131 C 0.902,-0.627 0.531,-0.196 0,0"
         id="path1" />
      <path
         style="color:#000000;fill:#000000 icc-color(sRGB-IEC61966-2, 0.1, 0, 0, 0);stroke-miterlimit:10;-inkscape-stroke:none"
         d="m -40.740234,-56.900391 c -1.297439,0 -2.408506,1.061516 -2.226563,2.326172 l 7.685547,53.5332034 c 0.108296,0.75807314 0.661553,1.37100227 1.386719,1.63867185 l 16.216797,5.99023435 c 0.542556,0.1995297 1.139083,0.1995297 1.68164,0 L 0.22070313,0.59765625 C 0.94611322,0.32989659 1.4959191,-0.28271949 1.6054687,-1.0390625 L 9.2929688,-54.574219 c 0.1803507,-1.263946 -0.9284643,-2.326172 -2.2265626,-2.326172 H -16.837891 Z m 0,1.275391 h 23.902343 23.9042972 c 0.6398998,0 1.0264928,0.437088 0.9648438,0.869141 l -7.6875,53.5332028 c -0.0364502,0.25165593 -0.22786428,0.50076 -0.56445313,0.62499995 L -16.4375,5.390625 c -0.250829,0.092244 -0.547774,0.091794 -0.798828,0 h -0.002 l -16.214844,-5.98828125 c -0.336833,-0.12433002 -0.528749,-0.37312105 -0.564453,-0.62304685 l -7.6875,-53.5351559 c -0.06206,-0.431343 0.326284,-0.869141 0.964844,-0.869141 z"
         id="path2" />
    </g>
    <path
       style="color:#000000;fill:#000000 icc-color(sRGB-IEC61966-2, 0.1, 0, 0, 0);stroke-miterlimit:10;-inkscape-stroke:none"
       d="m -0.42578125,0 v 8.5039063 h 0.8515625 V 0 Z"
       id="path1279"
       transform="matrix(0.35277776,0,0,-0.35277776,13.306091,20.680211)" />
    <path
       style="fill:#231f20 icc-color(sRGB-IEC61966-2, 0.1, 0.13699341, 0.12199402, 0.125);stroke-width:0.35424"
       d="m 10.297942,15.123383 q -0.09881,-0.428174 -0.296428,-0.757538 0.955156,-0.03294 2.10793,-0.329364 0.922219,-0.230555 1.613884,-0.724601 0.691664,-0.461109 1.350392,-1.18571 l 0.592856,0.461109 q -0.757538,0.757538 -0.988093,0.92222 -0.461109,0.3623 -1.152774,0.691664 -0.461109,0.263492 -1.449202,0.559919 -0.790473,0.197619 -1.778565,0.362301 z m 6.784899,-2.832531 -0.494046,0.592855 q -0.955156,-0.856346 -1.778566,-1.350393 l 0.428173,-0.559918 q 1.086902,0.691664 1.844439,1.317456 z M 10.13326,13.213071 Q 10.03445,13.015453 9.9685775,12.94958 L 9.6392134,12.587279 q 0.6587286,-0.461109 0.8563466,-0.658728 0.3623,-0.296427 0.988092,-0.988092 l 0.625792,0.494046 q -0.131746,0.131746 -0.263491,0.263492 -0.131746,0.131745 -0.263492,0.263491 -0.658728,0.658728 -0.724601,0.691664 -0.526982,0.428174 -0.7246,0.559919 z m 2.865467,-3.161895 V 7.4821366 h 0.724601 v 0.9880922 h 2.569039 v 0.6916645 h -2.569039 v 0.8892827 h 3.29364 v 0.724601 h -3.29364 v 1.910312 q 0,0.263491 -0.230555,0.461109 -0.197619,0.164682 -1.021029,0.329364 -0.03294,-0.329364 -0.329364,-0.790473 h 0.724601 q 0.03294,0 0.09881,-0.06587 0.03294,-0.03294 0.03294,-0.09881 v -1.74563 h -3.39245 v -0.724601 h 1.28452 V 8.1738011 h 0.757537 v 1.8773749 z"
       id="text1280"
       transform="scale(0.99587063,1.0041465)"
       aria-label="歩" />
  </g>
</svg>
