<?xml version="1.0" encoding="UTF-8" standalone="no"?>
<!-- Created with Inkscape (http://www.inkscape.org/) -->

<svg
   width="27.116999mm"
   height="31.358999mm"
   viewBox="0 0 27.116999 31.358999"
   version="1.1"
   id="svg1"
   inkscape:version="1.3.1 (91b66b0783, 2023-11-16)"
   sodipodi:docname="Template.svg"
   inkscape:export-filename="FAIRY CZECH (Mine)\Regular Shogi\0NK.svg"
   inkscape:export-xdpi="96"
   inkscape:export-ydpi="96"
   xmlns:inkscape="http://www.inkscape.org/namespaces/inkscape"
   xmlns:sodipodi="http://sodipodi.sourceforge.net/DTD/sodipodi-0.dtd"
   xmlns="http://www.w3.org/2000/svg"
   xmlns:svg="http://www.w3.org/2000/svg">
  <sodipodi:namedview
     id="namedview1"
     pagecolor="#ffffff"
     bordercolor="#999999"
     borderopacity="1"
     inkscape:showpageshadow="2"
     inkscape:pageopacity="0"
     inkscape:pagecheckerboard="0"
     inkscape:deskcolor="#d1d1d1"
     inkscape:document-units="mm"
     inkscape:zoom="2.0737236"
     inkscape:cx="31.103471"
     inkscape:cy="78.361457"
     inkscape:window-width="1920"
     inkscape:window-height="1009"
     inkscape:window-x="-8"
     inkscape:window-y="-8"
     inkscape:window-maximized="1"
     inkscape:current-layer="layer1" />
  <defs
     id="defs1">
    <clipPath
       clipPathUnits="userSpaceOnUse"
       id="clipPath1288">
      <path
         d="M 0,2834.646 H 2834.646 V 0 H 0 Z"
         transform="translate(-318.37961,-1559.11)"
         id="path1288" />
    </clipPath>
  </defs>
  <g
     inkscape:label="Layer 1"
     inkscape:groupmode="layer"
     id="layer1">
    <g
       id="path1287"
       clip-path="url(#clipPath1288)"
       transform="matrix(0.35277776,0,0,-0.35277776,20.873275,5.6606387)">
      <path
         style="color:#000000;fill:#ffdb9d;stroke-miterlimit:10;-inkscape-stroke:none"
         d="m 0,0 -20.266,6.952 c -0.309,0.106 -0.643,0.106 -0.952,0 L -41.484,0 c -0.545,-0.187 -0.946,-0.679 -1.038,-1.274 l -9.381,-60.689 c -0.151,-0.981 0.569,-1.871 1.515,-1.871 h 29.646 29.647 c 0.945,0 1.666,0.89 1.514,1.871 L 1.038,-1.274 C 0.946,-0.679 0.546,-0.187 0,0"
         id="path8" />
      <path
         style="color:#000000;fill:#000000 icc-color(sRGB-IEC61966-2, 0.1, 0, 0, 0);stroke-miterlimit:10;-inkscape-stroke:none"
         d="m -50.388672,-64.472656 c -1.346025,0 -2.350732,1.267795 -2.144531,2.607422 l 9.380859,60.6894528 c 0.126653,0.81911161 0.681951,1.51201151 1.460938,1.77929682 l 20.265625,6.95117188 c 0.442428,0.1517716 0.924759,0.1517716 1.367187,0 L 0.20703125,0.60351562 C 0.98711641,0.3363436 1.5414228,-0.35735932 1.6679687,-1.1757812 L 11.048828,-61.865234 c 0.207665,-1.340259 -0.799083,-2.607422 -2.1445311,-2.607422 H -20.742187 Z m 0,1.277344 h 29.646485 29.6464839 c 0.5445497,0 0.9811004,0.513026 0.8847656,1.134765 L 0.40820313,-1.3710937 c -0.0574539,0.37157683 -0.30332064,0.66075047 -0.61523438,0.76757808 L -20.472656,6.3496094 c -0.175571,0.060228 -0.363492,0.060228 -0.539063,0 l -20.265625,-6.95312502 c -0.311012,-0.10671432 -0.557887,-0.39669098 -0.615234,-0.76757808 l -9.380859,-60.6894533 c -0.0958,-0.622372 0.338792,-1.134766 0.884765,-1.134765 z"
         id="path9" />
    </g>
    <path
       style="color:#000000;fill:#000000 icc-color(sRGB-IEC61966-2, 0.1, 0, 0, 0);stroke-miterlimit:10;-inkscape-stroke:none"
       d="m -0.42578125,0 v 12.755859 h 0.8515625 V 0 Z"
       id="path1289"
       transform="matrix(0.35277776,0,0,-0.35277776,13.556029,21.18033)" />
    <path
       style="color:#000000;fill:#000000 icc-color(sRGB-IEC61966-2, 0.1, 0, 0, 0);stroke-miterlimit:10;-inkscape-stroke:none"
       d="M -0.30078125,-0.30078125 -18.339844,17.738281 -17.740234,18.339844 0.30078125,0.30078125 Z"
       id="path1291"
       transform="matrix(0.35277776,0,0,-0.35277776,16.738014,24.362314)" />
    <path
       style="color:#000000;fill:#000000 icc-color(sRGB-IEC61966-2, 0.1, 0, 0, 0);stroke-miterlimit:10;-inkscape-stroke:none"
       d="m -17.740234,-18.339844 -0.59961,0.601563 18.03906275,18.03906225 0.6015625,-0.6015625 z"
       id="path1293"
       transform="matrix(0.35277776,0,0,-0.35277776,16.738014,17.998424)" />
    <path
       style="fill:#000000 icc-color(sRGB-IEC61966-2, 0.1, 0, 0, 0);stroke-width:0.352777"
       d="m 9.7526123,11.440487 0.6283857,-0.198438 q 0.363802,0.89297 0.396875,1.190626 L 10.18256,12.697258 Q 10.050269,12.168091 9.7526123,11.440487 Z m 2.5796887,-0.23151 0.628386,0.264583 -0.529167,1.12448 q -0.132292,-0.03307 -0.264584,-0.132292 -0.06615,-0.03307 -0.132291,-0.06615 -0.06615,-0.03307 -0.165365,-0.03307 0.09922,-0.23151 0.198437,-0.496094 0.132292,-0.264583 0.264584,-0.661457 z M 16.102615,9.6876218 V 8.9269444 h -1.951303 v 0.7606774 z m 0,-1.3890631 V 7.5378813 h -1.951303 v 0.7606774 z m -2.71198,4.9940123 V 6.8433498 h 3.439584 v 3.5388032 h -1.223698 q 0.06615,0.628386 0.06615,0.661459 0.03307,0.132292 0.09922,0.463021 l 1.157552,-0.859896 0.463021,0.661458 q -0.396875,0.231511 -1.35599,0.859896 0.132292,0.33073 0.330729,0.56224 0.264584,0.33073 0.396875,0.463021 0.132292,0.06615 0.264584,0.165365 0.132292,0.06615 0.429948,0.264583 -0.198438,0.198438 -0.297656,0.264584 -0.06615,0.06615 -0.132292,0.132292 -0.03307,0.03307 -0.09922,0.09922 -0.03307,0.06615 -0.09922,0.132292 -0.727604,-0.56224 -0.992188,-0.926042 -0.429948,-0.496094 -0.628385,-1.091407 -0.297657,-0.859896 -0.33073,-1.852084 h -0.727604 v 2.711981 q 0.297656,-0.09922 0.56224,-0.165365 0.264583,-0.06615 0.529167,-0.132292 l 0.03307,0.727605 q -2.050522,0.595312 -2.282033,0.661458 l -0.198437,-0.760677 z m -2.182814,-6.8460964 0.694532,0.3638023 -0.09922,0.1653646 0.595313,0.463021 q 0.06615,0.033073 0.23151,0.1984376 L 13.12605,8.0339753 12.596883,8.6623609 Q 11.736988,7.8686106 11.736988,7.8686106 11.637769,7.7693918 11.538551,7.703246 11.472401,7.6371 11.406259,7.604027 10.844019,8.4969961 10.480217,8.8607983 h 2.083594 V 9.489184 h -0.826823 v 0.694532 h 1.025261 v 0.628385 h -1.025261 v 2.116668 q 0.661459,-0.132292 0.992188,-0.231511 v 0.694532 q -0.694531,0.198437 -1.587501,0.396875 L 9.8849041,14.086321 9.6864665,13.292571 11.042457,13.094134 V 10.812101 H 9.8849041 V 10.183716 H 11.042457 V 9.4891842 H 10.380998 V 8.9930902 L 9.9841229,9.4230383 Q 9.7195394,8.9600173 9.5541748,8.7285068 10.480217,7.8024648 11.207821,6.4464746 Z"
       id="text1294"
       aria-label="銀" />
  </g>
</svg>
