<?xml version="1.0" encoding="UTF-8" standalone="no"?>
<!-- Created with Inkscape (http://www.inkscape.org/) -->

<svg
   width="27.116999mm"
   height="31.358999mm"
   viewBox="0 0 27.116999 31.358999"
   version="1.1"
   id="svg1"
   xmlns:xlink="http://www.w3.org/1999/xlink"
   xmlns="http://www.w3.org/2000/svg"
   xmlns:svg="http://www.w3.org/2000/svg">
  <defs
     id="defs1">
    <linearGradient
       xlink:href="#linearGradient22"
       id="linearGradient2"
       x1="-545.13501"
       y1="48.789581"
       x2="-545.13501"
       y2="-26.612284"
       gradientUnits="userSpaceOnUse"
       gradientTransform="translate(556.83782,-40.5967)" />
    <linearGradient
       id="linearGradient22">
      <stop
         style="stop-color:#ffdba6;stop-opacity:1;"
         offset="0"
         id="stop21" />
      <stop
         style="stop-color:#f2c478;stop-opacity:1;"
         offset="1"
         id="stop22" />
    </linearGradient>
    <clipPath
       clipPathUnits="userSpaceOnUse"
       id="clipPath1316">
      <path
         d="M 0,2834.646 H 2834.646 V 0 H 0 Z"
         transform="translate(-531.98141,-1560.2174)"
         id="path1316" />
    </clipPath>
  </defs>
  <g
     id="layer1">
    <g
       id="path1315"
       clip-path="url(#clipPath1316)"
       transform="matrix(0.35277776,0,0,-0.35277776,21.23115,5.2700156)">
      <path
         style="color:#000000;fill:url(#linearGradient2);stroke-miterlimit:10;-inkscape-stroke:none"
         d="m 0,0 -21.223,7.255 c -0.337,0.115 -0.707,0.115 -1.044,0 L -43.49,0 c -0.512,-0.175 -0.879,-0.593 -0.956,-1.088 L -54.328,-64.8 c -0.128,-0.823 0.569,-1.559 1.477,-1.559 h 31.106 31.106 c 0.907,0 1.605,0.736 1.477,1.559 L 0.955,-1.088 C 0.879,-0.593 0.512,-0.175 0,0"
         id="path16" />
      <path
         style="color:#000000;fill:#4d3608;stroke-miterlimit:10;-inkscape-stroke:none"
         d="m -52.851562,-67.208984 c -1.367537,0 -2.528283,1.176762 -2.316407,2.539062 l 9.88086,63.71289075 c 0.128904,0.82867416 0.735013,1.49290547 1.521484,1.76171875 l 21.224609,7.2558594 c 0.517057,0.1764437 1.07474,0.1764437 1.591797,0 h 0.002 L 0.27539063,0.8046875 C 1.0612847,0.53607135 1.6668921,-0.12796836 1.7949219,-0.95703125 v -0.001953 L 11.677734,-64.669922 c 0.21198,-1.362964 -0.949363,-2.539062 -2.3164059,-2.539062 H -21.744141 Z m 0,1.701172 h 31.107421 31.1054691 c 0.4469549,0 0.6807389,0.293137 0.6367188,0.576171 v 0.002 L 0.11523437,-1.2167969 c -0.02457878,0.1600856 -0.15309689,0.33092303 -0.390625,0.4121094 L -21.498047,6.4511719 v -0.00195 c -0.156942,0.053556 -0.337198,0.053556 -0.49414,0 v 0.00195 l -21.222657,-7.2558594 c -0.237528,-0.0811864 -0.36553,-0.2527376 -0.390625,-0.4140625 l -9.882812,-63.710937 v -0.002 c -0.04412,-0.283698 0.188257,-0.576171 0.636719,-0.576171 z"
         id="path17" />
    </g>
    <path
       style="color:#000000;fill:#000000 icc-color(sRGB-IEC61966-2, 0.1, 0, 0, 0);stroke-miterlimit:10;-inkscape-stroke:none"
       d="M -0.63867187,0 V 23.693359 H 0.63867187 V 0 Z"
       id="path1317"
       transform="matrix(0.35277776,0,0,-0.35277776,13.559927,24.859474)" />
    <path
       style="color:#000000;fill:#231f20 icc-color(sRGB-IEC61966-2, 0.1, 0.13699341, 0.12199402, 0.125);stroke-miterlimit:10;-inkscape-stroke:none"
       d="M 0.45117188,-0.45117188 -0.45117188,0.45117188 2.3925781,3.2949219 5.2382812,0.45117188 4.3359375,-0.45117188 2.3925781,1.4902344 Z"
       id="path1319"
       transform="matrix(0.35277776,0,0,-0.35277776,12.715588,17.345307)" />
    <path
       style="color:#000000;fill:#000000 icc-color(sRGB-IEC61966-2, 0.1, 0, 0, 0);stroke-miterlimit:10;-inkscape-stroke:none"
       d="m -2.3925781,-3.2949219 -2.8457031,2.84375002 0.9023437,0.90234376 1.9433594,-1.94140628 1.94140622,1.94140628 0.90234376,-0.90234376 z"
       id="path1321"
       transform="matrix(0.35277776,0,0,-0.35277776,14.404265,24.015109)" />
    <path
       style="color:#000000;fill:#000000 icc-color(sRGB-IEC61966-2, 0.1, 0, 0, 0);stroke-miterlimit:10;-inkscape-stroke:none"
       d="M -23.693359,-0.63867187 V 0.63867187 H 0 v -1.27734374 z"
       id="path1323"
       transform="matrix(0.35277776,0,0,-0.35277776,17.739216,20.680222)" />
    <path
       style="color:#000000;fill:#000000 icc-color(sRGB-IEC61966-2, 0.1, 0, 0, 0);stroke-miterlimit:10;-inkscape-stroke:none"
       d="M -0.45117188,-0.45117188 -3.2949219,2.3925781 -0.45117188,5.2382812 0.45117188,4.3359375 -1.4902344,2.3925781 0.45117188,0.45117188 Z"
       id="path1325"
       transform="matrix(0.35277776,0,0,-0.35277776,10.224978,21.52456)" />
    <path
       style="color:#000000;fill:#000000 icc-color(sRGB-IEC61966-2, 0.1, 0, 0, 0);stroke-miterlimit:10;-inkscape-stroke:none"
       d="M 0.45117188,-5.2382812 -0.45117188,-4.3359375 1.4902344,-2.3925781 -0.45117188,-0.45117188 0.45117188,0.45117188 3.2949219,-2.3925781 Z"
       id="path1327"
       transform="matrix(0.35277776,0,0,-0.35277776,16.894878,19.835883)" />
    <path
       style="fill:#000000 icc-color(sRGB-IEC61966-2, 0.1, 0, 0, 0);stroke-width:0.352777"
       d="M 13.030627,10.018758 V 7.7367261 h 0.727605 v 2.2820319 h 1.5875 q 0,0.826824 0.03307,1.289845 l 0.859896,-0.793751 0.529167,0.496094 -0.694531,0.595313 0.859896,0.330729 -0.33073,0.628386 q -0.06614,-0.03307 -0.429948,-0.165365 -0.330729,-0.165364 -0.661458,-0.297656 0.264583,0.628386 0.595313,0.992188 0.264583,0.264583 0.363802,0.264583 0.03307,0 0.09922,-0.06615 0.09922,-0.165364 0.198437,-0.562239 0.165365,0.132291 0.628386,0.396875 -0.165365,0.595312 -0.363802,0.760677 -0.198438,0.198438 -0.429949,0.198438 -0.363802,0 -0.892969,-0.363803 -0.463021,-0.330729 -0.727604,-0.992187 -0.297656,-0.727605 -0.330729,-2.017449 H 13.75823 v 3.406512 H 13.030627 V 10.71329 h -1.12448 q -0.06615,1.025261 -0.165364,1.389063 -0.165365,0.529167 -0.330729,0.826823 -0.396876,0.529167 -0.429949,0.595313 -0.06615,0.09922 -0.694531,0.628385 -0.3307294,-0.463021 -0.529167,-0.628385 0.56224,-0.429948 0.79375,-0.727605 0.297657,-0.429948 0.429948,-0.826823 0.132292,-0.429948 0.198438,-1.256771 H 9.8886987 V 10.018758 H 11.178543 V 8.9604245 Q 10.980105,9.0265704 10.054063,9.2580809 9.8556258,8.7950599 9.7233341,8.5635494 10.417866,8.4643306 10.814741,8.3651118 11.14547,8.265893 12.336096,7.8690178 l 0.363802,0.5953128 Q 12.303023,8.6296952 11.93922,8.7619869 V 10.018758 Z M 14.684274,7.5382885 H 10.087136 V 6.843757 h 5.291669 q -0.03307,0.2976564 0.03307,0.9921879 0.198438,-0.2315105 0.429948,-0.463021 0.231511,-0.2645835 0.463021,-0.496094 l 0.529167,0.5291669 Q 16.6025,7.6044344 16.37099,7.802872 q -0.198438,0.1653646 -0.396875,0.3307293 0.09922,0.033073 0.330729,0.1322917 0.264584,0.066146 0.694532,0.1984376 L 16.701722,9.0596433 15.54417,8.6296952 q 0.264583,0.496094 0.661458,0.8929691 0.231511,0.2315105 0.396875,0.2315105 0.03307,0 0.09922,-0.066146 0,0 0.165365,-0.463021 0.23151,0.2315105 0.661459,0.3968751 -0.264584,0.6283861 -0.363803,0.7276051 -0.165364,0.165364 -0.330729,0.165364 -0.363802,0 -0.926042,-0.363802 Q 15.312659,9.7872478 15.081149,9.2580809 14.783492,8.728914 14.684274,7.5382885 Z"
       id="text1328"
       aria-label="飛" />
  </g>
</svg>
