<?xml version="1.0" encoding="UTF-8" standalone="no"?>
<!-- Created with Inkscape (http://www.inkscape.org/) -->

<svg
   width="27.116999mm"
   height="31.358999mm"
   viewBox="0 0 27.116999 31.358999"
   version="1.1"
   id="svg1"
   xmlns:xlink="http://www.w3.org/1999/xlink"
   xmlns="http://www.w3.org/2000/svg"
   xmlns:svg="http://www.w3.org/2000/svg">
  <defs
     id="defs1">
    <linearGradient
       xlink:href="#linearGradient22"
       id="linearGradient2"
       x1="-460.09558"
       y1="48.789581"
       x2="-460.09558"
       y2="-26.612284"
       gradientUnits="userSpaceOnUse"
       gradientTransform="translate(471.79842,-40.5967)" />
    <linearGradient
       id="linearGradient22">
      <stop
         style="stop-color:#ffdba6;stop-opacity:1;"
         offset="0"
         id="stop21" />
      <stop
         style="stop-color:#f2c478;stop-opacity:1;"
         offset="1"
         id="stop22" />
    </linearGradient>
    <clipPath
       clipPathUnits="userSpaceOnUse"
       id="clipPath1330">
      <path
         d="M 0,2834.646 H 2834.646 V 0 H 0 Z"
         transform="translate(-461.11531,-1560.2174)"
         id="path1330" />
    </clipPath>
  </defs>
  <g
     id="layer1">
    <g
       id="path1329"
       clip-path="url(#clipPath1330)"
       transform="matrix(0.35277776,0,0,-0.35277776,21.23115,5.2700156)">
      <path
         style="color:#000000;fill:url(#linearGradient2);stroke-miterlimit:10;-inkscape-stroke:none"
         d="m 0,0 -21.223,7.255 c -0.337,0.115 -0.707,0.115 -1.044,0 L -43.49,0 c -0.512,-0.175 -0.879,-0.593 -0.956,-1.088 L -54.328,-64.8 c -0.128,-0.823 0.569,-1.559 1.477,-1.559 h 31.106 31.106 c 0.907,0 1.605,0.736 1.477,1.559 L 0.955,-1.088 C 0.879,-0.593 0.512,-0.175 0,0"
         id="path11" />
      <path
         style="color:#000000;fill:#4d3608;stroke-miterlimit:10;-inkscape-stroke:none"
         d="m -52.851562,-67.208984 c -1.367537,0 -2.528283,1.176762 -2.316407,2.539062 l 9.88086,63.71289075 c 0.128904,0.82867416 0.735013,1.49290547 1.521484,1.76171875 l 21.224609,7.2558594 c 0.517057,0.1764437 1.07474,0.1764437 1.591797,0 h 0.002 L 0.27539063,0.8046875 C 1.0612847,0.53607135 1.6668921,-0.12796836 1.7949219,-0.95703125 v -0.001953 L 11.677734,-64.669922 c 0.21198,-1.362964 -0.949363,-2.539062 -2.3164059,-2.539062 H -21.744141 Z m 0,1.701172 h 31.107421 31.1054691 c 0.4469549,0 0.6807389,0.293137 0.6367188,0.576171 v 0.002 L 0.11523437,-1.2167969 c -0.02457878,0.1600856 -0.15309689,0.33092303 -0.390625,0.4121094 L -21.498047,6.4511719 v -0.00195 c -0.156942,0.053556 -0.337198,0.053556 -0.49414,0 v 0.00195 l -21.222657,-7.2558594 c -0.237528,-0.0811864 -0.36553,-0.2527376 -0.390625,-0.4140625 l -9.882812,-63.710937 v -0.002 c -0.04412,-0.283698 0.188257,-0.576171 0.636719,-0.576171 z"
         id="path12" />
    </g>
    <path
       style="fill:#000000 icc-color(sRGB-IEC61966-2, 0.1, 0, 0, 0);stroke-width:0.352777"
       d="m 12.205151,6.3803889 0.793751,0.2315105 -0.396875,0.5622398 h 2.215886 l 0.132292,-0.066146 0.463021,0.496094 q -0.06615,0.033073 -1.058334,1.0252608 h 2.315105 v 4.663283 q 0,0.330729 -0.264584,0.595313 -0.297656,0.264583 -1.289844,0.297656 0,-0.264583 -0.03307,-0.330729 0,-0.03307 -0.06615,-0.165365 -0.06614,-0.06615 -0.165364,-0.264583 h 0.859896 q 0.06615,0 0.09922,-0.03307 0.03307,-0.03307 0.03307,-0.09922 v -0.992188 h -4.233335 q -0.06615,0.231511 -0.429948,1.025261 -0.198438,0.297656 -0.661459,0.760678 -0.231511,-0.33073 -0.5953128,-0.595313 0.6283858,-0.628386 0.7937508,-1.025261 0.165364,-0.496094 0.23151,-0.926042 0.06615,-0.859896 0.06615,-2.5796887 Q 10.485359,9.4561713 10.187703,9.621536 9.9892651,9.2908067 9.6585358,9.0262232 10.38614,8.5632022 10.915307,8.0340353 11.51062,7.3725767 12.205151,6.3803889 Z m -0.859896,2.2489592 h 2.116668 L 14.156454,7.8355978 H 12.07286 q -0.264584,0.2645834 -0.429948,0.463021 -0.165365,0.1984376 -0.297657,0.3307293 z m 2.778126,1.4882819 h 1.719793 V 9.2908067 H 14.123381 Z M 13.362704,9.2908067 H 11.775203 V 10.11763 h 1.587501 z m 0.760677,2.3481783 h 1.719793 v -0.926042 h -1.719793 z m -2.381251,0 h 1.620574 v -0.926042 h -1.587501 q -0.03307,0.297656 -0.03307,0.926042 z"
       id="text1330"
       aria-label="角" />
    <path
       style="color:#000000;fill:#000000 icc-color(sRGB-IEC61966-2, 0.1, 0, 0, 0);stroke-miterlimit:10;-inkscape-stroke:none"
       d="m -0.453125,-0.44921875 -18.84375,19.03906275 0.90625,0.898437 18.84375,-19.03906225 z"
       id="path1331"
       transform="matrix(0.35277776,0,0,-0.35277776,16.884821,25.03857)" />
    <path
       style="color:#000000;fill:#000000 icc-color(sRGB-IEC61966-2, 0.1, 0, 0, 0);stroke-miterlimit:10;-inkscape-stroke:none"
       d="M -0.63867187,0 V 4.484375 H 3.8066406 V 3.2089844 H 0.63867187 V 0 Z"
       id="path1333"
       transform="matrix(0.35277776,0,0,-0.35277776,10.237607,19.678853)" />
    <path
       style="color:#000000;fill:#000000 icc-color(sRGB-IEC61966-2, 0.1, 0, 0, 0);stroke-miterlimit:10;-inkscape-stroke:none"
       d="m -3.8066406,-4.484375 v 1.2753906 h 3.16796873 V 0 h 1.27734374 v -4.484375 z"
       id="path1335"
       transform="matrix(0.35277776,0,0,-0.35277776,16.884821,23.681575)" />
    <path
       style="color:#000000;fill:#000000 icc-color(sRGB-IEC61966-2, 0.1, 0, 0, 0);stroke-miterlimit:10;-inkscape-stroke:none"
       d="m -18.390625,-19.488281 -0.90625,0.898437 18.84375,19.03906275 0.90625,-0.8984375 z"
       id="path1337"
       transform="matrix(0.35277776,0,0,-0.35277776,16.884821,18.321858)" />
    <path
       style="color:#000000;fill:#000000 icc-color(sRGB-IEC61966-2, 0.1, 0, 0, 0);stroke-miterlimit:10;-inkscape-stroke:none"
       d="M -4.4453125,-0.63867187 V 3.8476563 h 1.2753906 V 0.63867187 H 0 v -1.27734374 z"
       id="path1339"
       transform="matrix(0.35277776,0,0,-0.35277776,11.580526,25.03857)" />
    <path
       style="color:#000000;fill:#000000 icc-color(sRGB-IEC61966-2, 0.1, 0, 0, 0);stroke-miterlimit:10;-inkscape-stroke:none"
       d="m 3.1699219,-3.9667969 v 3.32812503 H 0 V 0.63867187 H 4.4453125 V -3.9667969 Z"
       id="path1341"
       transform="matrix(0.35277776,0,0,-0.35277776,15.541868,18.321858)" />
  </g>
</svg>
