<?xml version="1.0" encoding="UTF-8" standalone="no"?>
<!-- Created with Inkscape (http://www.inkscape.org/) -->

<svg
   width="27.116999mm"
   height="31.358999mm"
   viewBox="0 0 27.116999 31.358999"
   version="1.1"
   id="svg1"
   inkscape:version="1.3.1 (91b66b0783, 2023-11-16)"
   sodipodi:docname="Template.svg"
   inkscape:export-filename="FAIRY CZECH (Mine)\Regular Shogi\1KI.svg"
   inkscape:export-xdpi="96"
   inkscape:export-ydpi="96"
   xmlns:inkscape="http://www.inkscape.org/namespaces/inkscape"
   xmlns:sodipodi="http://sodipodi.sourceforge.net/DTD/sodipodi-0.dtd"
   xmlns="http://www.w3.org/2000/svg"
   xmlns:svg="http://www.w3.org/2000/svg">
  <sodipodi:namedview
     id="namedview1"
     pagecolor="#ffffff"
     bordercolor="#999999"
     borderopacity="1"
     inkscape:showpageshadow="2"
     inkscape:pageopacity="0"
     inkscape:pagecheckerboard="0"
     inkscape:deskcolor="#d1d1d1"
     inkscape:document-units="mm"
     inkscape:zoom="2.0737236"
     inkscape:cx="31.103471"
     inkscape:cy="78.361457"
     inkscape:window-width="1920"
     inkscape:window-height="1009"
     inkscape:window-x="-8"
     inkscape:window-y="-8"
     inkscape:window-maximized="1"
     inkscape:current-layer="layer1" />
  <defs
     id="defs1">
    <clipPath
       clipPathUnits="userSpaceOnUse"
       id="clipPath1330">
      <path
         d="M 0,2834.646 H 2834.646 V 0 H 0 Z"
         transform="translate(-461.11531,-1560.2174)"
         id="path1330" />
    </clipPath>
  </defs>
  <g
     inkscape:label="Layer 1"
     inkscape:groupmode="layer"
     id="layer1">
    <g
       id="path1329"
       clip-path="url(#clipPath1330)"
       transform="matrix(0.35277776,0,0,-0.35277776,21.227152,5.269993)">
      <path
         style="color:#000000;fill:#ffdb9d;stroke-miterlimit:10;-inkscape-stroke:none"
         d="m 0,0 -21.223,7.255 c -0.337,0.115 -0.707,0.115 -1.044,0 L -43.49,0 c -0.512,-0.175 -0.879,-0.593 -0.956,-1.088 L -54.328,-64.8 c -0.128,-0.823 0.569,-1.559 1.477,-1.559 h 31.106 31.106 c 0.907,0 1.605,0.736 1.477,1.559 L 0.955,-1.088 C 0.879,-0.593 0.512,-0.175 0,0"
         id="path11" />
      <path
         style="color:#000000;fill:#000000 icc-color(sRGB-IEC61966-2, 0.1, 0, 0, 0);stroke-miterlimit:10;-inkscape-stroke:none"
         d="m -52.851562,-66.996094 c -1.251962,0 -2.296864,1.066348 -2.107422,2.292969 l 9.882812,63.71289062 c 0.115843,0.74470422 0.661838,1.34804365 1.378906,1.59375 l 21.22461,7.25585938 c 0.472042,0.1610827 0.983036,0.1610827 1.455078,0 L 0.20703125,0.60351562 C 0.92488385,0.35815585 1.4713718,-0.2440499 1.5859375,-0.99023438 L 11.46875,-64.701172 c 0.190985,-1.227972 -0.85539,-2.294922 -2.1074219,-2.294922 H -21.744141 Z m 0,1.275391 h 31.107421 31.1054691 c 0.5619667,0 0.9107179,0.404239 0.8457029,0.822266 L 0.32421875,-1.1855469 c -0.0374341,0.24381456 -0.22510363,0.4773914 -0.53125,0.58203128 L -21.429687,6.6523437 c -0.201958,0.068917 -0.428903,0.068917 -0.63086,0 l -21.222656,-7.25585932 c -0.306146,-0.10463988 -0.495132,-0.33728723 -0.533203,-0.58203128 l -9.88086,-63.7128901 c -0.06509,-0.418525 0.282357,-0.822266 0.845704,-0.822266 z"
         id="path12" />
    </g>
    <path
       style="fill:#000000 icc-color(sRGB-IEC61966-2, 0.1, 0, 0, 0);stroke-width:0.352777"
       d="m 12.201154,6.380366 0.79375,0.2315105 -0.396875,0.5622398 h 2.215886 l 0.132292,-0.066146 0.463021,0.496094 q -0.06615,0.033073 -1.058334,1.0252608 h 2.315105 v 4.6632829 q 0,0.33073 -0.264583,0.595313 -0.297657,0.264583 -1.289845,0.297656 0,-0.264583 -0.03307,-0.330729 0,-0.03307 -0.06615,-0.165365 -0.06615,-0.06614 -0.165365,-0.264583 h 0.859896 q 0.06615,0 0.09922,-0.03307 0.03307,-0.03307 0.03307,-0.09922 v -0.99219 h -4.233335 q -0.06615,0.231511 -0.429948,1.025261 -0.198438,0.297657 -0.661459,0.760678 -0.23151,-0.33073 -0.5953126,-0.595313 0.6283856,-0.628386 0.7937506,-1.025261 0.165364,-0.496094 0.23151,-0.926042 0.06615,-0.859896 0.06615,-2.5796885 Q 10.481361,9.4561484 10.183705,9.6215131 9.9852673,9.2907838 9.654538,9.0262004 10.382142,8.5631793 10.911309,8.0340125 11.506622,7.3725539 12.201154,6.380366 Z m -0.859897,2.2489592 h 2.116668 l 0.694531,-0.7937503 h -2.083594 q -0.264584,0.2645834 -0.429948,0.463021 -0.165365,0.1984376 -0.297657,0.3307293 z m 2.778126,1.4882818 h 1.719793 V 9.2907838 H 14.119383 Z M 13.358706,9.2907838 h -1.587501 v 0.8268232 h 1.587501 z m 0.760677,2.3481782 h 1.719793 V 10.71292 h -1.719793 z m -2.38125,0 h 1.620573 V 10.71292 h -1.587501 q -0.03307,0.297656 -0.03307,0.926042 z"
       id="text1330"
       aria-label="角" />
    <path
       style="color:#000000;fill:#000000 icc-color(sRGB-IEC61966-2, 0.1, 0, 0, 0);stroke-miterlimit:10;-inkscape-stroke:none"
       d="M -0.30273438,-0.29882813 -19.144531,18.740234 -18.541016,19.337891 0.30273438,0.29882813 Z"
       id="path1331"
       transform="matrix(0.35277776,0,0,-0.35277776,16.880823,25.038547)" />
    <path
       style="color:#000000;fill:#000000 icc-color(sRGB-IEC61966-2, 0.1, 0, 0, 0);stroke-miterlimit:10;-inkscape-stroke:none"
       d="M -0.42578125,0 V 4.2714844 H 3.8066406 V 3.421875 H 0.42578125 V 0 Z"
       id="path1333"
       transform="matrix(0.35277776,0,0,-0.35277776,10.233609,19.67883)" />
    <path
       style="color:#000000;fill:#000000 icc-color(sRGB-IEC61966-2, 0.1, 0, 0, 0);stroke-miterlimit:10;-inkscape-stroke:none"
       d="m -3.8066406,-4.2714844 v 0.8496094 h 3.38085935 V 0 h 0.8515625 v -4.2714844 z"
       id="path1335"
       transform="matrix(0.35277776,0,0,-0.35277776,16.880823,23.681552)" />
    <path
       style="color:#000000;fill:#000000 icc-color(sRGB-IEC61966-2, 0.1, 0, 0, 0);stroke-miterlimit:10;-inkscape-stroke:none"
       d="m -18.541016,-19.337891 -0.603515,0.597657 18.84179662,19.03906213 0.60546876,-0.59765626 z"
       id="path1337"
       transform="matrix(0.35277776,0,0,-0.35277776,16.880823,18.321835)" />
    <path
       style="color:#000000;fill:#000000 icc-color(sRGB-IEC61966-2, 0.1, 0, 0, 0);stroke-miterlimit:10;-inkscape-stroke:none"
       d="M -4.2324219,-0.42578125 V 3.8476563 h 0.8496094 V 0.42578125 H 0 v -0.8515625 z"
       id="path1339"
       transform="matrix(0.35277776,0,0,-0.35277776,11.576528,25.038547)" />
    <path
       style="color:#000000;fill:#000000 icc-color(sRGB-IEC61966-2, 0.1, 0, 0, 0);stroke-miterlimit:10;-inkscape-stroke:none"
       d="m 3.3828125,-3.8476563 v 3.42187505 H 0 v 0.8515625 H 4.2324219 V -3.8476563 Z"
       id="path1341"
       transform="matrix(0.35277776,0,0,-0.35277776,15.53787,18.321835)" />
  </g>
</svg>
