<?xml version="1.0" encoding="UTF-8" standalone="no"?>
<!-- Created with Inkscape (http://www.inkscape.org/) -->

<svg
   width="27.116999mm"
   height="31.358999mm"
   viewBox="0 0 27.116999 31.358999"
   version="1.1"
   id="svg1"
   inkscape:version="1.3.1 (91b66b0783, 2023-11-16)"
   sodipodi:docname="Template.svg"
   inkscape:export-filename="FAIRY CZECH (Mine)\Regular Shogi\1KE.svg"
   inkscape:export-xdpi="96"
   inkscape:export-ydpi="96"
   xmlns:inkscape="http://www.inkscape.org/namespaces/inkscape"
   xmlns:sodipodi="http://sodipodi.sourceforge.net/DTD/sodipodi-0.dtd"
   xmlns="http://www.w3.org/2000/svg"
   xmlns:svg="http://www.w3.org/2000/svg">
  <sodipodi:namedview
     id="namedview1"
     pagecolor="#ffffff"
     bordercolor="#999999"
     borderopacity="1"
     inkscape:showpageshadow="2"
     inkscape:pageopacity="0"
     inkscape:pagecheckerboard="0"
     inkscape:deskcolor="#d1d1d1"
     inkscape:document-units="mm"
     inkscape:zoom="2.0737236"
     inkscape:cx="31.103471"
     inkscape:cy="78.361457"
     inkscape:window-width="1920"
     inkscape:window-height="1009"
     inkscape:window-x="-8"
     inkscape:window-y="-8"
     inkscape:window-maximized="1"
     inkscape:current-layer="layer1" />
  <defs
     id="defs1">
    <clipPath
       clipPathUnits="userSpaceOnUse"
       id="clipPath1344">
      <path
         d="M 0,2834.646 H 2834.646 V 0 H 0 Z"
         transform="translate(-246.54421,-1557.6502)"
         id="path1344" />
    </clipPath>
  </defs>
  <g
     inkscape:label="Layer 1"
     inkscape:groupmode="layer"
     id="layer1">
    <g
       id="path1343"
       clip-path="url(#clipPath1344)"
       transform="matrix(0.35277776,0,0,-0.35277776,20.531298,6.3557028)">
      <path
         style="color:#000000;fill:#ffdb9d;stroke-miterlimit:10;-inkscape-stroke:none"
         d="m 0,0 -19.243,6.562 c -0.342,0.116 -0.717,0.116 -1.059,0 L -39.545,0 c -0.531,-0.181 -0.912,-0.618 -0.993,-1.139 l -8.982,-57.757 c -0.134,-0.863 0.585,-1.636 1.523,-1.636 h 28.224 28.225 c 0.938,0 1.657,0.773 1.523,1.636 L 0.993,-1.139 C 0.912,-0.618 0.531,-0.181 0,0"
         id="path5" />
      <path
         style="color:#000000;fill:#000000 icc-color(sRGB-IEC61966-2, 0.1, 0, 0, 0);stroke-miterlimit:10;-inkscape-stroke:none"
         d="m -47.996094,-61.169922 c -1.2884,0 -2.35023,1.109222 -2.154297,2.371094 l 8.982422,57.7578124 c 0.119324,0.76750112 0.67842,1.39244378 1.417969,1.64453122 l 19.242188,6.56249998 c 0.476303,0.1615533 0.992446,0.1615533 1.46875,0 h 0.002 L 0.20507813,0.60351562 C 0.94462747,0.35142818 1.5037233,-0.27351448 1.6230469,-1.0410156 L 10.605469,-58.798828 C 10.801402,-60.0607 9.7395725,-61.169922 8.4511719,-61.169922 H -19.773437 Z m 0,1.275391 h 28.222657 28.2246089 c 0.5875975,0 0.9665972,0.436264 0.8945312,0.90039 L 0.36328125,-1.2363281 c -0.0426762,0.27449779 -0.24590979,0.52290028 -0.56835938,0.63281248 L -19.447266,5.9570312 c -0.207695,0.070447 -0.442694,0.070447 -0.65039,0 l -19.242188,-6.56054682 c -0.322449,-0.1099122 -0.525683,-0.35831469 -0.568359,-0.63281248 l -8.982422,-57.7578129 c -0.07207,-0.464126 0.306934,-0.90039 0.894531,-0.90039 z"
         id="path6" />
    </g>
    <path
       style="fill:#000000 icc-color(sRGB-IEC61966-2, 0.1, 0, 0, 0);stroke-width:0.352777"
       d="m 14.448728,12.021594 v -1.025261 h 0.760677 v 1.025261 h 1.68672 v 0.694531 h -1.68672 v 1.157553 h 1.984376 v 0.694531 h -4.960939 v -0.694531 h 2.215886 V 12.716125 H 12.8943 v -0.694531 z m 0,-3.7041684 V 7.2590919 h 0.760677 v 1.0583337 h 1.719793 v 0.6945315 h -1.719793 v 1.0583339 h 1.984376 v 0.727604 h -4.597137 v -0.727604 h 1.852084 V 9.0119571 H 12.8943 V 8.3174256 Z M 10.909925,8.8465925 V 7.2260189 h 0.760677 v 1.6205736 h 0.760677 V 9.541124 h -0.760677 v 0.760677 q 0.496094,0.529167 0.992188,0.992188 -0.132292,0.132292 -0.463021,0.595313 -0.363802,-0.363802 -0.529167,-0.595313 v 3.505731 h -0.760677 v -3.307293 q -0.463021,0.992188 -1.0252613,1.719792 -0.1322917,-0.56224 -0.3307293,-0.926042 0.4299481,-0.56224 0.7276046,-1.091406 0.330729,-0.694532 0.628386,-1.653647 H 9.752372 V 8.8465925 Z"
       id="text1344"
       aria-label="桂" />
    <path
       style="color:#000000;fill:#000000 icc-color(sRGB-IEC61966-2, 0.1, 0, 0, 0);stroke-miterlimit:10;-inkscape-stroke:none"
       d="m -0.42578125,0 c 0,6.8155521 -0.91566265,12.019016 -2.16015625,15.466797 -0.6222468,1.72389 -1.3293502,3.00791 -2.0195312,3.826172 -0.6901811,0.818262 -1.3328358,1.142131 -1.8457032,1.115234 l -0.044922,0.849609 c 0.8886312,0.0466 1.7545419,-0.483591 2.5410156,-1.416015 0.7864737,-0.932424 1.5240449,-2.296582 2.1699219,-4.085938 C -0.49340239,12.177147 0.42578125,6.8914342 0.42578125,0 Z"
       id="path1345"
       transform="matrix(0.35277776,0,0,-0.35277776,13.126846,24.610047)" />
    <path
       style="color:#000000;fill:#000000 icc-color(sRGB-IEC61966-2, 0.1, 0, 0, 0);stroke-miterlimit:10;-inkscape-stroke:none"
       d="m -0.42578125,0 c 0,6.8914342 0.91918364,12.177147 2.21093745,15.755859 0.645877,1.789356 1.3834482,3.153514 2.1699219,4.085938 0.7864737,0.932424 1.6523844,1.462619 2.5410156,1.416015 L 6.4511719,20.408203 C 5.9383045,20.4351 5.2956498,20.111231 4.6054687,19.292969 3.9152877,18.474707 3.2081843,17.190687 2.5859375,15.466797 1.3414439,12.019016 0.42578125,6.8155521 0.42578125,0 Z"
       id="path1347"
       transform="matrix(0.35277776,0,0,-0.35277776,13.985118,24.610047)" />
  </g>
</svg>
