<?xml version="1.0" encoding="UTF-8" standalone="no"?>
<!-- Created with Inkscape (http://www.inkscape.org/) -->

<svg
   width="27.116999mm"
   height="31.358999mm"
   viewBox="0 0 27.116999 31.358999"
   version="1.1"
   id="svg1"
   xmlns:xlink="http://www.w3.org/1999/xlink"
   xmlns="http://www.w3.org/2000/svg"
   xmlns:svg="http://www.w3.org/2000/svg">
  <defs
     id="defs1">
    <linearGradient
       xlink:href="#linearGradient22"
       id="linearGradient2"
       x1="-375.46979"
       y1="48.478031"
       x2="-375.46979"
       y2="-24.086693"
       gradientUnits="userSpaceOnUse"
       gradientTransform="translate(386.75905,-40.596901)" />
    <linearGradient
       id="linearGradient22">
      <stop
         style="stop-color:#ffdba6;stop-opacity:1;"
         offset="0"
         id="stop21" />
      <stop
         style="stop-color:#f2c478;stop-opacity:1;"
         offset="1"
         id="stop22" />
    </linearGradient>
    <clipPath
       clipPathUnits="userSpaceOnUse"
       id="clipPath1296">
      <path
         d="M 0,2834.646 H 2834.646 V 0 H 0 Z"
         transform="translate(-389.24581,-1559.11)"
         id="path1296" />
    </clipPath>
  </defs>
  <g
     id="layer1">
    <g
       id="path1295"
       clip-path="url(#clipPath1296)"
       transform="matrix(0.35277776,0,0,-0.35277776,20.877274,5.6606281)">
      <path
         style="color:#000000;fill:url(#linearGradient2);stroke-miterlimit:10;-inkscape-stroke:none"
         d="m 0,0 -20.266,6.952 c -0.309,0.106 -0.643,0.106 -0.952,0 L -41.484,0 c -0.545,-0.187 -0.946,-0.679 -1.038,-1.274 l -9.381,-60.689 c -0.151,-0.981 0.569,-1.871 1.515,-1.871 h 29.646 29.647 c 0.945,0 1.666,0.89 1.514,1.871 L 1.038,-1.274 C 0.946,-0.679 0.546,-0.187 0,0"
         id="path10" />
      <path
         style="color:#000000;fill:#4d3608;stroke-miterlimit:10;-inkscape-stroke:none"
         d="m -50.388672,-64.683594 c -1.479368,0 -2.580071,1.39044 -2.355469,2.84961 l 9.38086,60.6894528 c 0.138203,0.89381631 0.746532,1.65517134 1.603515,1.9492187 l 20.265625,6.9511719 c 0.486906,0.1670289 1.017001,0.1670289 1.503907,0 L 0.27539063,0.8046875 C 1.133505,0.51079119 1.7408449,-0.25163454 1.8789062,-1.1445312 L 11.259766,-61.832031 c 0.22622,-1.460013 -0.876537,-2.851563 -2.3554691,-2.851563 H -20.742187 Z m 0,1.699219 h 29.646485 29.6464839 c 0.4110655,0 0.7516077,0.38864 0.6738281,0.890625 L 0.19726562,-1.4042969 c -0.0459385,0.2971021 -0.23877171,0.51950609 -0.47265625,0.5996094 L -20.541016,6.1484375 c -0.131094,0.044971 -0.269296,0.044971 -0.40039,0 l -20.265625,-6.953125 c -0.233016,-0.0799523 -0.428813,-0.3034269 -0.47461,-0.5996094 L -51.0625,-62.09375 c -0.07608,-0.501766 0.261798,-0.890625 0.673828,-0.890625 z"
         id="path11" />
    </g>
    <path
       style="color:#000000;fill:#000000 icc-color(sRGB-IEC61966-2, 0.1, 0, 0, 0);stroke-miterlimit:10;-inkscape-stroke:none"
       d="M -0.63867187,0 V 22.677734 H 0.63867187 V 0 Z"
       id="path1297"
       transform="matrix(0.35277776,0,0,-0.35277776,13.559992,24.680148)" />
    <path
       style="color:#000000;fill:#000000 icc-color(sRGB-IEC61966-2, 0.1, 0, 0, 0);stroke-miterlimit:10;-inkscape-stroke:none"
       d="M -22.677734,-0.63867187 V 0.63867187 H 0 v -1.27734374 z"
       id="path1299"
       transform="matrix(0.35277776,0,0,-0.35277776,17.56,20.680151)" />
    <path
       style="color:#000000;fill:#000000 icc-color(sRGB-IEC61966-2, 0.1, 0, 0, 0);stroke-miterlimit:10;-inkscape-stroke:none"
       d="M -0.45117188,-0.45117188 -8.46875,7.5664062 -7.5664062,8.46875 0.45117188,0.45117188 Z"
       id="path1301"
       transform="matrix(0.35277776,0,0,-0.35277776,13.559992,20.680151)" />
    <path
       style="color:#000000;fill:#000000 icc-color(sRGB-IEC61966-2, 0.1, 0, 0, 0);stroke-miterlimit:10;-inkscape-stroke:none"
       d="M -7.5664062,-8.46875 -8.46875,-7.5664062 -0.45117188,0.45117188 0.45117188,-0.45117188 Z"
       id="path1303"
       transform="matrix(0.35277776,0,0,-0.35277776,16.388425,17.851728)" />
    <path
       style="fill:#000000 icc-color(sRGB-IEC61966-2, 0.1, 0, 0, 0);stroke-width:0.352777"
       d="m 10.838367,11.988945 0.654568,-0.378961 q 0.172255,0.206706 0.757921,1.171332 l -0.72347,0.34451 q -0.275607,-0.620117 -0.689019,-1.136881 z m 2.618272,-4.6508768 q -0.620117,0.6890188 -0.654568,0.7234697 0,0 -1.10243,1.0335281 h 3.617348 Q 14.421265,8.3371454 14.283461,8.1993416 14.24901,8.1648907 13.456639,7.3380682 Z m -0.172255,-1.1713319 0.826822,0.4134113 -0.137803,0.1722547 q 0.792371,0.9301753 1.619194,1.4813903 0.999077,0.7923715 2.101507,1.3091356 Q 17.211791,10.163045 17.142889,10.300849 16.488321,9.9563394 15.799302,9.4395754 V 9.8185357 H 13.87005 v 0.8612733 h 3.100584 v 0.654568 H 13.87005 v 1.998154 h 1.48139 q -0.241156,-0.172254 -0.585666,-0.37896 0.34451,-0.551215 0.689019,-1.412488 l 0.792371,0.413411 q -0.482313,0.930175 -0.792371,1.378037 h 1.894801 v 0.72347 H 9.7359373 v -0.72347 h 3.3072897 v -1.998154 h -2.893878 v -0.654568 h 2.893878 V 9.8185357 H 11.32068 V 9.4051244 Q 10.769465,9.8874376 9.9770939,10.404202 9.908192,10.266398 9.8392902,10.197496 q -0.034451,-0.103353 -0.034451,-0.103353 0,-0.03445 -0.1378037,-0.1722545 Q 9.5636827,9.7496338 9.4603298,9.646281 11.561837,8.4404982 13.284384,6.1667363 Z"
       id="text1304"
       aria-label="金" />
  </g>
</svg>
