<?xml version="1.0" encoding="UTF-8" standalone="no"?>
<!-- Created with Inkscape (http://www.inkscape.org/) -->

<svg
   width="27.116997mm"
   height="31.358999mm"
   viewBox="0 0 27.116997 31.358999"
   version="1.1"
   id="svg1"
   xmlns="http://www.w3.org/2000/svg"
   xmlns:svg="http://www.w3.org/2000/svg">
  <defs
     id="defs1">
    <clipPath
       clipPathUnits="userSpaceOnUse"
       id="clipPath1282">
      <path
         d="M 0,2834.646 H 2834.646 V 0 H 0 Z"
         transform="translate(-174.6885,-1556.5424)"
         id="path1282" />
    </clipPath>
  </defs>
  <g
     id="layer1">
    <g
       id="path1281"
       clip-path="url(#clipPath1282)"
       transform="matrix(0.35277776,0,0,-0.35277776,20.182225,6.7465032)">
      <path
         style="color:#000000;fill:#ffdb9d;stroke-miterlimit:10;-inkscape-stroke:none"
         d="m 0,0 -18.208,6.244 c -0.37,0.127 -0.78,0.127 -1.15,0 L -37.566,0 c -0.538,-0.184 -0.92,-0.612 -0.998,-1.116 l -8.551,-55.301 c -0.13,-0.841 0.611,-1.59 1.573,-1.59 h 26.759 26.759 c 0.962,0 1.703,0.749 1.573,1.59 L 0.998,-1.116 C 0.92,-0.612 0.538,-0.184 0,0"
         id="path3" />
      <path
         style="color:#000000;fill:#000000 icc-color(sRGB-IEC61966-2, 0.1, 0, 0, 0);stroke-miterlimit:10;-inkscape-stroke:none"
         d="m -45.542969,-58.644531 c -1.293051,0 -2.397754,1.06512 -2.203125,2.324219 l 8.552735,55.3027339 c 0.117704,0.76054841 0.683624,1.36867598 1.419922,1.62109372 l 18.208984,6.24414058 c 0.506208,0.1737527 1.056183,0.1733188 1.5625,0 L 0.20703125,0.60351562 C 0.94410627,0.35143049 1.5111173,-0.25648005 1.6289062,-1.0175781 L 10.179688,-56.320312 c 0.194628,-1.259099 -0.9100745,-2.324219 -2.2031255,-2.324219 H -18.783203 Z m 0,1.27539 h 26.759766 26.7597655 c 0.6309471,0 1.0067772,0.432569 0.9414063,0.855469 L 0.3671875,-1.2128906 c -0.0382109,0.24690089 -0.23529485,0.49346048 -0.57421875,0.60937498 L -18.414062,5.640625 h -0.002 c -0.233158,0.08003 -0.501217,0.08003 -0.734375,0 l -18.208984,-6.24414062 c -0.338924,-0.1159145 -0.536008,-0.36247409 -0.574219,-0.60937498 l -8.550781,-55.3007814 c -0.06537,-0.4229 0.310459,-0.855469 0.941406,-0.855469 z"
         id="path4" />
    </g>
    <path
       style="fill:#000000 icc-color(sRGB-IEC61966-2, 0.1, 0, 0, 0);stroke-width:0.352777"
       d="m 15.209401,13.840615 v -0.694531 h -3.373439 v 0.694531 z m 0,-1.322917 v -0.529167 h -3.373439 v 0.529167 z m -1.289845,-2.48047 v 1.157553 h -0.727604 v -1.091407 q -0.926042,0.760678 -1.686719,1.256772 h 4.200262 q -0.264584,-0.132292 -0.926042,-0.628386 -0.09922,-0.06615 -0.859897,-0.694532 z m 0,-1.8851558 v 0.727604 h 3.340366 v 0.727605 h -2.811199 q 0.727605,0.6283848 1.389063,0.9591138 0.595313,0.363803 1.68672,0.727605 -0.231511,0.23151 -0.297657,0.363802 0,0 -0.198437,0.330729 -0.496094,-0.23151 -1.025261,-0.496094 v 3.307293 h -0.79375 v -0.330729 h -3.373439 v 0.363802 H 11.075284 V 11.591656 Q 10.413826,11.922385 10.083097,12.054677 9.9177324,11.723948 9.8846594,11.624729 9.8515894,11.558579 9.6531484,11.360146 11.14143,10.830979 12.728931,9.6072812 H 9.8846594 v -0.727605 h 3.3072926 v -0.661458 q -1.190626,0.132291 -2.315105,0.165364 -0.06615,-0.23151 -0.165365,-0.429948 -0.06615,-0.23151 -0.09922,-0.264583 1.885157,-0.09922 3.075783,-0.198438 1.058334,-0.132292 2.083594,-0.330729 l 0.463022,0.661458 q -1.058334,0.198438 -2.315106,0.33073 z"
       id="text1282"
       aria-label="香" />
    <path
       style="color:#000000;fill:#000000 icc-color(sRGB-IEC61966-2, 0.1, 0, 0, 0);stroke-width:0.352778;stroke-miterlimit:10;-inkscape-stroke:none"
       d="m 13.405759,22.860262 v -5.92143 h 0.300413 v 5.92143 z"
       id="path1283" />
    <path
       style="color:#000000;fill:#000000 icc-color(sRGB-IEC61966-2, 0.1, 0, 0, 0);stroke-width:0.352778;stroke-miterlimit:10;-inkscape-stroke:none"
       d="m 12.868219,17.837291 -0.212218,-0.212218 0.899859,-0.897792 0.899858,0.897792 -0.212217,0.212218 -0.687641,-0.686263 z"
       id="path1285" />
  </g>
</svg>
