<svg height="31.358999mm" viewBox="0 0 27.117003 31.358999" width="27.117002mm" xmlns="http://www.w3.org/2000/svg" xmlns:xlink="http://www.w3.org/1999/xlink"><clipPath id="a"><path d="m0 2834.646h2834.646v-2834.646h-2834.646z" transform="translate(-318.37961 -1474.0705)"/></clipPath><linearGradient id="b" gradientUnits="userSpaceOnUse" x1="240.935224" x2="240.935224" y1="8.19215" y2="-67.2094"><stop offset="0" stop-color="#ffdba6"/><stop offset="1" stop-color="#f2c478"/></linearGradient><g transform="translate(-148.46802)"><g stroke-miterlimit="10"><g clip-path="url(#a)" transform="matrix(.35277776 0 0 -.35277776 169.34377 5.660128)"><path d="m0 0-20.266 6.952c-.309.106-.643.106-.952 0l-20.266-6.952c-.545-.187-.946-.679-1.038-1.274l-9.381-60.689c-.151-.981.569-1.871 1.515-1.871h29.646 29.647c.945 0 1.666.89 1.514 1.871l-9.381 60.689c-.092.595-.492 1.087-1.038 1.274" fill="url(#b)"/><path d="m-50.388672-64.683594c-1.479368 0-2.580071 1.39044-2.355469 2.84961l9.38086 60.6894528c.138203.89381631.746532 1.65517134 1.603515 1.9492187l20.265625 6.9511719c.486906.1670289 1.017001.1670289 1.503907 0l20.26562463-6.9511719c.85811437-.29389631 1.46545427-1.05632204 1.60351557-1.9492187l9.3808598-60.6874998c.22622-1.460013-.876537-2.851563-2.3554691-2.851563h-29.6464839zm0 1.699219h29.646485 29.6464839c.4110655 0 .7516077.38864.6738281.890625l-9.38085938 60.6894531c-.0459385.2971021-.23877171.51950609-.47265625.5996094l-20.26562537 6.953125c-.131094.044971-.269296.044971-.40039 0l-20.265625-6.953125c-.233016-.0799523-.428813-.3034269-.47461-.5996094l-9.380859-60.6894531c-.07608-.501766.261798-.890625.673828-.890625z" fill="#4d3608"/></g><g fill="#f00"><path d="m-.63867187 0v22.677734h1.27734374v-22.677734z" transform="matrix(.35277776 0 0 -.35277776 162.02653 25.179446)"/><path d="m-22.677734-.63867187v1.27734374h22.677734v-1.27734374z" transform="matrix(.35277776 0 0 -.35277776 166.02653 21.179422)"/><path d="m-.45117188-.45117188-8.01757812 8.01757808.9023438.9023438 8.01757808-8.01757812z" transform="matrix(.35277776 0 0 -.35277776 162.02653 21.179422)"/><path d="m-7.5664062-8.46875-.9023438.9023438 8.01757812 8.01757808.90234376-.90234376z" transform="matrix(.35277776 0 0 -.35277776 164.85496 18.351)"/></g></g><path d="m161.92297 7.7858886q-.72347.7923716-1.10243 1.1368809-.44786.4478622-1.10243.9301753h4.34082q-1.20578-.9301753-2.13596-2.0670562zm-.17225-1.0335281.79237.3100584-.13781.1722547q.96463 1.0679791 1.99816 1.8258997.82682.551215 1.757.8957243-.31006.3100584-.51677.7579204-.55121-.275607-1.24023-.620117v.482314h-2.03261v1.13688h2.03261v.689019h-2.03261v1.48139h3.20394v.72347h-7.16579v-.72347h3.13503v-1.48139h-2.17041v-.689019h2.17041v-1.13688h-2.17041v-.482314q-.55121.413412-1.03353.654568-.10335-.241156-.44786-.689019 1.37804-.7923711 2.13596-1.4469389.82682-.7234697 1.72255-1.8603506z" fill="#f00" stroke-width=".352777"/></g></svg>