<?xml version="1.0" encoding="UTF-8" standalone="no"?>
<!-- Created with Inkscape (http://www.inkscape.org/) -->

<svg
   width="27.116997mm"
   height="31.358999mm"
   viewBox="0 0 27.116997 31.358999"
   version="1.1"
   id="svg1"
   inkscape:version="1.3.1 (91b66b0783, 2023-11-16)"
   sodipodi:docname="0NG.svg"
   inkscape:export-filename="FAIRY CZECH (Mine)\Regular Shogi\0NG.svg"
   inkscape:export-xdpi="96"
   inkscape:export-ydpi="96"
   xmlns:inkscape="http://www.inkscape.org/namespaces/inkscape"
   xmlns:sodipodi="http://sodipodi.sourceforge.net/DTD/sodipodi-0.dtd"
   xmlns="http://www.w3.org/2000/svg"
   xmlns:svg="http://www.w3.org/2000/svg">
  <sodipodi:namedview
     id="namedview1"
     pagecolor="#ffffff"
     bordercolor="#999999"
     borderopacity="1"
     inkscape:showpageshadow="2"
     inkscape:pageopacity="0"
     inkscape:pagecheckerboard="0"
     inkscape:deskcolor="#d1d1d1"
     inkscape:document-units="mm"
     inkscape:zoom="2.0737236"
     inkscape:cx="31.103471"
     inkscape:cy="78.361457"
     inkscape:window-width="1920"
     inkscape:window-height="1009"
     inkscape:window-x="-8"
     inkscape:window-y="-8"
     inkscape:window-maximized="1"
     inkscape:current-layer="layer1" />
  <defs
     id="defs1">
    <clipPath
       clipPathUnits="userSpaceOnUse"
       id="clipPath1354">
      <path
         d="M 0,2834.646 H 2834.646 V 0 H 0 Z"
         transform="translate(-318.37961,-1474.0705)"
         id="path1354" />
    </clipPath>
  </defs>
  <g
     inkscape:label="Layer 1"
     inkscape:groupmode="layer"
     id="layer1">
    <g
       id="path1353"
       clip-path="url(#clipPath1354)"
       transform="matrix(0.35277776,0,0,-0.35277776,20.873275,5.6606387)">
      <path
         style="color:#000000;fill:#ffdb9d;stroke-miterlimit:10;-inkscape-stroke:none"
         d="m 0,0 -20.266,6.952 c -0.309,0.106 -0.643,0.106 -0.952,0 L -41.484,0 c -0.545,-0.187 -0.946,-0.679 -1.038,-1.274 l -9.381,-60.689 c -0.151,-0.981 0.569,-1.871 1.515,-1.871 h 29.646 29.647 c 0.945,0 1.666,0.89 1.514,1.871 L 1.038,-1.274 C 0.946,-0.679 0.546,-0.187 0,0"
         id="path9" />
      <path
         style="color:#000000;fill:#000000 icc-color(sRGB-IEC61966-2, 0.1, 0, 0, 0);stroke-miterlimit:10;-inkscape-stroke:none"
         d="m -50.388672,-64.472656 c -1.346025,0 -2.350732,1.267795 -2.144531,2.607422 l 9.380859,60.6894528 c 0.126653,0.81911161 0.681951,1.51201151 1.460938,1.77929682 l 20.265625,6.95117188 c 0.442428,0.1517716 0.924759,0.1517716 1.367187,0 L 0.20703125,0.60351562 C 0.98711641,0.3363436 1.5414228,-0.35735932 1.6679687,-1.1757812 L 11.048828,-61.865234 c 0.207665,-1.340259 -0.799083,-2.607422 -2.1445311,-2.607422 H -20.742187 Z m 0,1.277344 h 29.646485 29.6464839 c 0.5445497,0 0.9811004,0.513026 0.8847656,1.134765 L 0.40820313,-1.3710937 c -0.0574539,0.37157683 -0.30332064,0.66075047 -0.61523438,0.76757808 L -20.472656,6.3496094 c -0.175571,0.060228 -0.363492,0.060228 -0.539063,0 l -20.265625,-6.95312502 c -0.311012,-0.10671432 -0.557887,-0.39669098 -0.615234,-0.76757808 l -9.380859,-60.6894533 c -0.0958,-0.622372 0.338792,-1.134766 0.884765,-1.134765 z"
         id="path10" />
    </g>
    <path
       style="fill:#ff0000 icc-color(sRGB-IEC61966-2, 0.1, 1, 0, 0);stroke-width:0.352777"
       d="M 13.489854,7.3727293 Q 12.795323,8.1334067 12.431521,8.464136 12.001573,8.8940841 11.373187,9.3571051 h 4.167189 Q 14.382823,8.464136 13.489854,7.3727293 Z M 13.32449,6.3805414 14.085167,6.6781978 13.952875,6.8435625 q 0.926042,1.0252608 1.91823,1.7528652 0.793751,0.5291669 1.68672,0.8598962 -0.297657,0.2976564 -0.496094,0.7276041 -0.529167,-0.2645831 -1.190626,-0.5953124 v 0.4630214 h -1.951303 v 1.091406 h 1.951303 v 0.661459 h -1.951303 v 1.422136 h 3.075783 v 0.694531 h -6.879169 v -0.694531 h 3.009636 v -1.422136 h -2.083594 v -0.661459 h 2.083594 V 10.051637 H 11.042458 V 9.5886156 Q 10.513291,9.9854908 10.05027,10.217001 9.9510509,9.9854908 9.6203216,9.5555427 10.943239,8.7948653 11.670843,8.1664797 12.464594,7.4719481 13.32449,6.3805414 Z"
       id="text1354"
       aria-label="全" />
    <path
       style="color:#000000;fill:#ff0000 icc-color(sRGB-IEC61966-2, 0.1, 1, 0, 0);stroke-miterlimit:10;-inkscape-stroke:none"
       d="m -0.5,0 v 22.677734 h 1 V 0 Z"
       id="path1427"
       transform="matrix(0.35277776,0,0,-0.35277776,13.55603,25.179957)" />
    <path
       style="color:#000000;fill:#ff0000 icc-color(sRGB-IEC61966-2, 0.1, 1, 0, 0);stroke-miterlimit:10;-inkscape-stroke:none"
       d="m -22.677734,-0.5 v 1 H 0 v -1 z"
       id="path1429"
       transform="matrix(0.35277776,0,0,-0.35277776,17.556035,21.179933)" />
    <path
       style="color:#000000;fill:#ff0000 icc-color(sRGB-IEC61966-2, 0.1, 1, 0, 0);stroke-miterlimit:10;-inkscape-stroke:none"
       d="M -0.35351563,-0.35351563 -8.3710938,7.6640625 -7.6640625,8.3710938 0.35351563,0.35351563 Z"
       id="path1431"
       transform="matrix(0.35277776,0,0,-0.35277776,13.55603,21.179933)" />
    <path
       style="color:#000000;fill:#ff0000 icc-color(sRGB-IEC61966-2, 0.1, 1, 0, 0);stroke-miterlimit:10;-inkscape-stroke:none"
       d="m -7.6640625,-8.3710938 -0.7070313,0.7070313 8.01757817,8.01757813 0.70703126,-0.70703126 z"
       id="path1433"
       transform="matrix(0.35277776,0,0,-0.35277776,16.38446,18.351511)" />
  </g>
</svg>
