<svg height="31.358999mm" viewBox="0 0 27.117003 31.358999" width="27.117002mm" xmlns="http://www.w3.org/2000/svg" xmlns:xlink="http://www.w3.org/1999/xlink"><clipPath id="a"><path d="m0 2834.646h2834.646v-2834.646h-2834.646z" transform="translate(-246.54421 -1472.6108)"/></clipPath><linearGradient id="b" gradientUnits="userSpaceOnUse" x1="30.50809" x2="30.50809" y1="8.19215" y2="-67.2094"><stop offset="0" stop-color="#ffdba6"/><stop offset="1" stop-color="#f2c478"/></linearGradient><g transform="translate(-74.234005)"><g clip-path="url(#a)" stroke-miterlimit="10" transform="matrix(.35277776 0 0 -.35277803 94.767797 6.175217)"><path d="m0 0-19.243 6.562c-.342.116-.717.116-1.059 0l-19.243-6.562c-.531-.181-.912-.618-.993-1.139l-8.982-57.757c-.134-.863.585-1.636 1.523-1.636h28.224 28.225c.938 0 1.657.773 1.523 1.636l-8.982 57.757c-.081.521-.462.958-.993 1.139" fill="url(#b)"/><path d="m-47.996094-61.382812c-1.405202 0-2.57986 1.222357-2.363281 2.617187l8.980469 57.7578125c.132098.84966903.749527 1.53671649 1.558594 1.8125l19.24414 6.5625h.002c.521072.1767378 1.082444.1767378 1.603516 0h.002l19.2421875-6.5625c.00088034-.00030008.001073-.001652.001953-.001953.8076761-.27637896 1.4265454-.96180249 1.5584999-1.810547l8.9804686-57.7578125c.216579-1.39483-.958079-2.617188-2.3632811-2.617187h-28.2246089zm0 1.701171h28.222657 28.2246089c.470796 0 .7350149.323129.6835937.654297l-8.98242185 57.7578128c-.0299016.1923299-.17284885.37862757-.42578125.4648437l.2734375.8046875-.27539063-.8046875-19.24023437 6.5605469c-.162927.055262-.350744.055262-.513672 0l-19.242187-6.5605469c-.252933-.0862161-.39588-.2725138-.425782-.4648437l-8.982421-57.7578128c-.05142-.331168.212797-.654297.683593-.654297z" fill="#4d3608"/></g><g fill="#f00"><path d="m87.327538 11.782339v-.999077h.826823v.999077h2.58382v.723469h-2.58382v1.171332h3.410642v.757921h-7.544755v-.757921h3.30729v-1.171332h-2.549369v-.723469zm0-3.7207015v-1.1368809h.826823v1.1368809h2.58382v.6890188h-2.58382v1.1024299h3.410642v.6890188h-7.510304v-.6890188h3.272839v-1.1024299h-2.549369v-.6890188z" stroke-width=".352777"/><g stroke-miterlimit="10"><path d="m-.63867187 0v22.677734h1.27734374v-22.677734z" transform="matrix(.35277776 0 0 -.35277803 87.7925 24.679566)"/><path d="m-22.677734-.63867187v1.27734374h22.677734v-1.27734374z" transform="matrix(.35277776 0 0 -.35277803 91.79247 20.679569)"/><path d="m-.45117188-.45117188-8.01757812 8.01757808.9023438.9023438 8.01757808-8.01757812z" transform="matrix(.35277776 0 0 -.35277803 87.7925 20.679569)"/><path d="m-7.5664062-8.46875-.9023438.9023438 8.01757812 8.01757808.90234376-.90234376z" transform="matrix(.35277776 0 0 -.35277803 90.620895 17.85112)"/></g></g></g></svg>