<?xml version="1.0" encoding="UTF-8" standalone="no"?>
<!-- Created with Inkscape (http://www.inkscape.org/) -->

<svg
   width="27.116999mm"
   height="31.358999mm"
   viewBox="0 0 27.116999 31.358999"
   version="1.1"
   id="svg1"
   inkscape:version="1.3.1 (91b66b0783, 2023-11-16)"
   sodipodi:docname="Template.svg"
   inkscape:export-filename="FAIRY CZECH (Mine)\Regular Shogi\0OU.svg"
   inkscape:export-xdpi="96"
   inkscape:export-ydpi="96"
   xmlns:inkscape="http://www.inkscape.org/namespaces/inkscape"
   xmlns:sodipodi="http://sodipodi.sourceforge.net/DTD/sodipodi-0.dtd"
   xmlns="http://www.w3.org/2000/svg"
   xmlns:svg="http://www.w3.org/2000/svg">
  <sodipodi:namedview
     id="namedview1"
     pagecolor="#ffffff"
     bordercolor="#999999"
     borderopacity="1"
     inkscape:showpageshadow="2"
     inkscape:pageopacity="0"
     inkscape:pagecheckerboard="0"
     inkscape:deskcolor="#d1d1d1"
     inkscape:document-units="mm"
     inkscape:zoom="2.0737236"
     inkscape:cx="31.103471"
     inkscape:cy="78.361457"
     inkscape:window-width="1920"
     inkscape:window-height="1009"
     inkscape:window-x="-8"
     inkscape:window-y="-8"
     inkscape:window-maximized="1"
     inkscape:current-layer="layer1" />
  <defs
     id="defs1">
    <clipPath
       clipPathUnits="userSpaceOnUse"
       id="clipPath1306">
      <path
         d="M 0,2834.646 H 2834.646 V 0 H 0 Z"
         transform="translate(-603.84452,-1561.3219)"
         id="path1306" />
    </clipPath>
  </defs>
  <g
     inkscape:label="Layer 1"
     inkscape:groupmode="layer"
     id="layer1">
    <g
       id="path1305"
       clip-path="url(#clipPath1306)"
       transform="matrix(0.35277776,0,0,-0.35277776,21.579008,4.880325)">
      <path
         style="color:#000000;fill:#ffdb9d;stroke-miterlimit:10;-inkscape-stroke:none"
         d="m 0,0 -22.28,7.578 c -0.3,0.102 -0.625,0.102 -0.924,0 L -45.484,0 c -0.502,-0.171 -0.868,-0.604 -0.949,-1.125 l -10.308,-66.12 c -0.134,-0.86 0.535,-1.636 1.411,-1.636 h 32.588 32.588 c 0.875,0 1.545,0.776 1.41,1.636 L 0.948,-1.125 C 0.867,-0.604 0.502,-0.171 0,0"
         id="path15" />
      <path
         style="color:#000000;fill:#000000 icc-color(sRGB-IEC61966-2, 0.1, 0, 0, 0);stroke-miterlimit:10;-inkscape-stroke:none"
         d="m -55.330078,-69.519531 c -1.252657,0 -2.233717,1.136307 -2.041016,2.373047 L -47.0625,-1.0273437 c 0.117563,0.75617982 0.649544,1.38440708 1.373047,1.63085932 l 22.279297,7.57812498 c 0.432664,0.1475978 0.903024,0.1471904 1.335937,0 L 0.20507813,0.60351562 C 0.92882591,0.35698002 1.4606839,-0.27195127 1.578125,-1.0273437 L 11.886719,-67.146484 c 0.19425,-1.237447 -0.788928,-2.373047 -2.0410159,-2.373047 H -22.742187 Z m 0,1.27539 h 32.587891 32.5878901 c 0.4979109,0 0.8550459,0.417839 0.7792969,0.900391 L 0.31835938,-1.2226562 c -0.0445588,0.28660643 -0.2431863,0.52367652 -0.52343751,0.61914058 L -22.486328,6.9746094 c -0.166551,0.056162 -0.347012,0.056188 -0.511719,0 l -22.28125,-7.57812502 c -0.280496,-0.0955474 -0.479001,-0.33332155 -0.523437,-0.61914058 L -56.111328,-67.34375 c -0.0753,-0.483258 0.281909,-0.900391 0.78125,-0.900391 z"
         id="path16" />
    </g>
    <path
       style="fill:#000000 icc-color(sRGB-IEC61966-2, 0.1, 0, 0, 0);stroke-width:0.352777"
       d="M 10.381151,7.7239072 V 6.9963028 h 6.416148 V 7.7239072 H 13.919954 V 9.741356 h 2.513543 v 0.760677 h -2.513543 v 2.282033 h 3.340366 v 0.79375 H 9.8519837 v -0.79375 H 13.126204 V 10.502033 H 10.744953 V 9.741356 h 2.381251 V 7.7239072 Z"
       id="text1306"
       aria-label="王" />
    <path
       style="color:#000000;fill:#000000 icc-color(sRGB-IEC61966-2, 0.1, 0, 0, 0);stroke-miterlimit:10;-inkscape-stroke:none"
       d="m -0.42578125,0 v 25.511719 h 0.8515625 V 0 Z"
       id="path1307"
       transform="matrix(0.35277776,0,0,-0.35277776,13.5561,26.179971)" />
    <path
       style="color:#000000;fill:#000000 icc-color(sRGB-IEC61966-2, 0.1, 0, 0, 0);stroke-miterlimit:10;-inkscape-stroke:none"
       d="m -25.511719,-0.42578125 v 0.8515625 H 0 v -0.8515625 z"
       id="path1309"
       transform="matrix(0.35277776,0,0,-0.35277776,18.056099,21.679964)" />
    <path
       style="color:#000000;fill:#000000 icc-color(sRGB-IEC61966-2, 0.1, 0, 0, 0);stroke-miterlimit:10;-inkscape-stroke:none"
       d="M -0.30078125,-0.30078125 -18.339844,17.738281 -17.740234,18.339844 0.30078125,0.30078125 Z"
       id="path1311"
       transform="matrix(0.35277776,0,0,-0.35277776,16.738051,24.861949)" />
    <path
       style="color:#000000;fill:#000000 icc-color(sRGB-IEC61966-2, 0.1, 0, 0, 0);stroke-miterlimit:10;-inkscape-stroke:none"
       d="m -17.740234,-18.339844 -0.59961,0.601563 18.03906275,18.03906225 0.6015625,-0.6015625 z"
       id="path1313"
       transform="matrix(0.35277776,0,0,-0.35277776,16.738051,18.498006)" />
  </g>
</svg>
