<?xml version="1.0" encoding="UTF-8" standalone="no"?>
<!-- Created with Inkscape (http://www.inkscape.org/) -->

<svg
   width="27.116999mm"
   height="31.358999mm"
   viewBox="0 0 27.116999 31.358999"
   version="1.1"
   id="svg1"
   inkscape:version="1.3.1 (91b66b0783, 2023-11-16)"
   sodipodi:docname="Template.svg"
   inkscape:export-filename="FAIRY CZECH (Mine)\Regular Shogi\1HI.svg"
   inkscape:export-xdpi="96"
   inkscape:export-ydpi="96"
   xmlns:inkscape="http://www.inkscape.org/namespaces/inkscape"
   xmlns:sodipodi="http://sodipodi.sourceforge.net/DTD/sodipodi-0.dtd"
   xmlns="http://www.w3.org/2000/svg"
   xmlns:svg="http://www.w3.org/2000/svg">
  <sodipodi:namedview
     id="namedview1"
     pagecolor="#ffffff"
     bordercolor="#999999"
     borderopacity="1"
     inkscape:showpageshadow="2"
     inkscape:pageopacity="0"
     inkscape:pagecheckerboard="0"
     inkscape:deskcolor="#d1d1d1"
     inkscape:document-units="mm"
     inkscape:zoom="2.0737236"
     inkscape:cx="31.103471"
     inkscape:cy="78.361457"
     inkscape:window-width="1920"
     inkscape:window-height="1009"
     inkscape:window-x="-8"
     inkscape:window-y="-8"
     inkscape:window-maximized="1"
     inkscape:current-layer="layer1" />
  <defs
     id="defs1">
    <clipPath
       clipPathUnits="userSpaceOnUse"
       id="clipPath1360">
      <path
         d="M 0,2834.646 H 2834.646 V 0 H 0 Z"
         transform="translate(-531.98141,-1475.1781)"
         id="path1360" />
    </clipPath>
  </defs>
  <g
     inkscape:label="Layer 1"
     inkscape:groupmode="layer"
     id="layer1">
    <g
       id="path1359"
       clip-path="url(#clipPath1360)"
       transform="matrix(0.35277776,0,0,-0.35277776,21.227152,5.269993)">
      <path
         style="color:#000000;fill:#ffdb9d;stroke-miterlimit:10;-inkscape-stroke:none"
         d="m 0,0 -21.223,7.255 c -0.337,0.115 -0.707,0.115 -1.044,0 L -43.49,0 c -0.512,-0.175 -0.879,-0.592 -0.956,-1.088 L -54.328,-64.8 c -0.128,-0.823 0.569,-1.559 1.477,-1.559 h 31.106 31.106 c 0.907,0 1.605,0.736 1.477,1.559 L 0.955,-1.088 C 0.879,-0.592 0.512,-0.175 0,0"
         id="path14" />
      <path
         style="color:#000000;fill:#000000 icc-color(sRGB-IEC61966-2, 0.1, 0, 0, 0);stroke-miterlimit:10;-inkscape-stroke:none"
         d="m -52.851562,-66.996094 c -1.251962,0 -2.296864,1.066348 -2.107422,2.292969 l 9.882812,63.71289062 c 0.115729,0.74547161 0.662539,1.3482841 1.378906,1.59375 l 21.22461,7.25585938 c 0.472042,0.1610827 0.983036,0.1610827 1.455078,0 L 0.20703125,0.60351562 c 0.71656798,-0.24492069 1.26384645,-0.84764165 1.37890625,-1.59375 v -0.001953 L 11.46875,-64.701172 c 0.190985,-1.227972 -0.85539,-2.294922 -2.1074219,-2.294922 H -21.744141 Z m 0,1.275391 h 31.107421 31.1054691 c 0.5619667,0 0.9107179,0.404239 0.8457029,0.822266 L 0.32421875,-1.1855469 c -0.0375483,0.24505211 -0.2244,0.4771509 -0.53125,0.58203128 L -21.429687,6.6523437 c -0.201958,0.068917 -0.428903,0.068917 -0.63086,0 l -21.222656,-7.25585932 c -0.30685,-0.10488038 -0.495017,-0.33605519 -0.533203,-0.58203128 l -9.88086,-63.7128901 c -0.06509,-0.418525 0.282357,-0.822266 0.845704,-0.822266 z"
         id="path15" />
    </g>
    <path
       style="color:#000000;fill:#ff0000 icc-color(sRGB-IEC61966-2, 0.1, 1, 0, 0);stroke-miterlimit:10;-inkscape-stroke:none"
       d="m -0.5,0 v 23.693359 h 1 V 0 Z"
       id="path1361"
       transform="matrix(0.35277776,0,0,-0.35277776,13.555929,24.859478)" />
    <path
       style="color:#000000;fill:#ff0000 icc-color(sRGB-IEC61966-2, 0.1, 1, 0, 0);stroke-miterlimit:10;-inkscape-stroke:none"
       d="M 0.35351563,-0.35351563 -0.35351563,0.35351563 2.3925781,3.0996094 5.140625,0.35351563 4.4335937,-0.35351563 2.3925781,1.6855469 Z"
       id="path1363"
       transform="matrix(0.35277776,0,0,-0.35277776,12.71159,17.345259)" />
    <path
       style="color:#000000;fill:#ff0000 icc-color(sRGB-IEC61966-2, 0.1, 1, 0, 0);stroke-miterlimit:10;-inkscape-stroke:none"
       d="m -2.3925781,-3.0996094 -2.7480469,2.74609377 0.7070313,0.70703126 2.0410156,-2.03906253 2.03906247,2.03906253 0.70703126,-0.70703126 z"
       id="path1365"
       transform="matrix(0.35277776,0,0,-0.35277776,14.400267,24.01514)" />
    <path
       style="color:#000000;fill:#ff0000 icc-color(sRGB-IEC61966-2, 0.1, 1, 0, 0);stroke-miterlimit:10;-inkscape-stroke:none"
       d="m -23.693359,-0.5 v 1 H 0 v -1 z"
       id="path1367"
       transform="matrix(0.35277776,0,0,-0.35277776,17.735218,20.680173)" />
    <path
       style="color:#000000;fill:#ff0000 icc-color(sRGB-IEC61966-2, 0.1, 1, 0, 0);stroke-miterlimit:10;-inkscape-stroke:none"
       d="M -0.35351563,-0.35351563 -3.0996094,2.3925781 -0.35351563,5.140625 0.35351563,4.4335937 -1.6855469,2.3925781 0.35351563,0.35351563 Z"
       id="path1369"
       transform="matrix(0.35277776,0,0,-0.35277776,10.22098,21.524511)" />
    <path
       style="color:#000000;fill:#ff0000 icc-color(sRGB-IEC61966-2, 0.1, 1, 0, 0);stroke-miterlimit:10;-inkscape-stroke:none"
       d="M 0.35351563,-5.140625 -0.35351563,-4.4335937 1.6855469,-2.3925781 -0.35351563,-0.35351563 0.35351563,0.35351563 3.0996094,-2.3925781 Z"
       id="path1371"
       transform="matrix(0.35277776,0,0,-0.35277776,16.89088,19.835887)" />
    <path
       style="fill:#ff0000 icc-color(sRGB-IEC61966-2, 0.1, 1, 0, 0);stroke-width:0.352777"
       d="m 12.36517,12.036103 v -0.496094 h -1.455209 v 0.496094 z m 0,-1.025261 v -0.529167 h -1.455209 v 0.529167 z m -2.182814,3.141929 V 9.7871438 h 2.910418 v 3.5388032 q 0,0.33073 -0.198437,0.529167 -0.264584,0.198438 -0.826824,0.297657 -0.03307,-0.297657 -0.09922,-0.463021 0,-0.03307 -0.06615,-0.132292 -0.06615,-0.06615 -0.165365,-0.165365 h 0.429948 q 0.132292,0 0.165365,-0.03307 0.03307,-0.03307 0.03307,-0.132291 v -0.595313 h -1.455209 v 1.521355 z M 13.853452,8.8280288 V 6.5459967 h 0.79375 v 0.6283857 h 2.381251 V 7.7696951 H 14.647202 V 8.265789 h 2.381251 v 1.6867195 h -2.447397 v 0.4960935 h 2.215886 v 0.429948 h -2.215886 v 0.463022 h 2.215886 v 0.463021 h -2.215886 v 0.463021 h 2.215886 v 0.463021 h -2.215886 v 0.396875 q 0,0.23151 0.132292,0.264583 0.06615,0.06615 0.463021,0.06615 h 0.926042 q 0.330729,0 0.363802,-0.03307 0.297656,-0.09922 0.330729,-0.529167 0.33073,0.231511 0.661459,0.33073 -0.132292,0.496093 -0.363802,0.661458 -0.231511,0.198438 -0.529167,0.198438 h -1.719793 q -0.363802,0 -0.562239,-0.06615 -0.165365,-0.03307 -0.33073,-0.264584 -0.09922,-0.132291 -0.09922,-0.429948 V 9.3902687 h 2.447396 V 8.8280288 Z M 12.001367,8.7288101 12.265951,7.7366222 H 11.075325 Q 11.24069,8.265789 11.372982,8.7288101 Z M 11.273763,7.1743824 V 6.5129238 h 0.79375 v 0.6614586 h 1.322918 v 0.5622398 h -0.396876 l -0.330729,0.9921879 h 0.892969 V 9.3902687 H 9.7854812 V 8.7288101 H 10.67845 q 0,-0.099219 -0.09922,-0.4299481 Q 10.48001,7.9350597 10.413865,7.7366222 H 9.9177729 V 7.1743824 Z"
       id="text1372"
       aria-label="é¾" />
    <path
       style="color:#000000;fill:#ff0000 icc-color(sRGB-IEC61966-2, 0.1, 1, 0, 0);stroke-miterlimit:10;-inkscape-stroke:none"
       d="M -0.35351563,-0.35351563 -14.326172,13.621094 -13.619141,14.328125 0.35351563,0.35351563 Z"
       id="path1389"
       transform="matrix(0.35277776,0,0,-0.35277776,16.020647,23.144793)" />
    <path
       style="color:#000000;fill:#ff0000 icc-color(sRGB-IEC61966-2, 0.1, 1, 0, 0);stroke-miterlimit:10;-inkscape-stroke:none"
       d="m -13.619141,-14.328125 -0.707031,0.707031 13.97265637,13.97460963 0.70703126,-0.70703126 z"
       id="path1391"
       transform="matrix(0.35277776,0,0,-0.35277776,16.020647,18.215261)" />
  </g>
</svg>
