<svg height="31.358999mm" viewBox="0 0 27.116999 31.358999" width="27.116999mm" xmlns="http://www.w3.org/2000/svg" xmlns:xlink="http://www.w3.org/1999/xlink"><linearGradient id="a" gradientUnits="userSpaceOnUse" x1="11.70341" x2="11.70341" y1="8.19215" y2="-67.209395"><stop offset="0" stop-color="#ffdba6"/><stop offset="1" stop-color="#f2c478"/></linearGradient><clipPath id="b"><path d="m0 2834.646h2834.646v-2834.646h-2834.646z" transform="translate(-531.98141 -1475.1781)"/></clipPath><g clip-path="url(#b)" stroke-miterlimit="10" transform="matrix(.35277776 0 0 -.35277776 21.23115 5.270016)"><path d="m0 0-21.223 7.255c-.337.115-.707.115-1.044 0l-21.223-7.255c-.512-.175-.879-.592-.956-1.088l-9.882-63.712c-.128-.823.569-1.559 1.477-1.559h31.106 31.106c.907 0 1.605.736 1.477 1.559l-9.883 63.712c-.076.496-.443.913-.955 1.088" fill="url(#a)"/><path d="m-52.851562-67.208984c-1.367537 0-2.528283 1.176762-2.316407 2.539062l9.88086 63.71289075c.128752.82936477.735951 1.49322613 1.521484 1.76171875l21.224609 7.2558594c.517057.1764437 1.07474.1764437 1.591797 0h.002l21.22260963-7.2558594c.78495737-.26829599 1.39165257-.93197308 1.51953127-1.76171875v-.001953l9.8828121-63.71093775c.21198-1.362964-.949363-2.539062-2.3164059-2.539062h-31.1054691zm0 1.701172h31.107421 31.1054691c.4469549 0 .6807389.293137.6367188.576171v.002l-9.88281253 63.7128441c-.02473099.1614023-.15215872.33060237-.390625.4121094l-21.22265637 7.2558594v-.00195c-.156942.053556-.337198.053556-.49414 0v.00195l-21.222657-7.2558594c-.238466-.081507-.365377-.2514283-.390625-.4140625l-9.882812-63.710937v-.002c-.04412-.283698.188257-.576171.636719-.576171z" fill="#4d3608"/></g><g fill="#f00"><g stroke-miterlimit="10"><path d="m-.63867187 0v23.693359h1.27734374v-23.693359z" transform="matrix(.35277776 0 0 -.35277776 13.559927 24.859501)"/><path d="m.45117188-.45117188-.90234376.90234376 2.84374998 2.84375002 2.8457031-2.84375002-.9023437-.90234376-1.9433594 1.94140628z" transform="matrix(.35277776 0 0 -.35277776 12.715588 17.345282)"/><path d="m-2.3925781-3.2949219-2.8457031 2.84375002.9023437.90234376 1.9433594-1.94140628 1.94140622 1.94140628.90234376-.90234376z" transform="matrix(.35277776 0 0 -.35277776 14.404265 24.015163)"/><path d="m-23.693359-.63867187v1.27734374h23.693359v-1.27734374z" transform="matrix(.35277776 0 0 -.35277776 17.739216 20.680196)"/><path d="m-.45117188-.45117188-2.84375002 2.84374998 2.84375002 2.8457031.90234376-.9023437-1.94140628-1.9433594 1.94140628-1.94140622z" transform="matrix(.35277776 0 0 -.35277776 10.224978 21.524534)"/><path d="m.45117188-5.2382812-.90234376.9023437 1.94140628 1.9433594-1.94140628 1.94140622.90234376.90234376 2.84375002-2.84374998z" transform="matrix(.35277776 0 0 -.35277776 16.894878 19.83591)"/></g><path d="m12.369168 12.036125v-.496094h-1.455208v.496094zm0-1.025261v-.529167h-1.455208v.529167zm-2.182813 3.141928v-4.3656263h2.910418v3.5388033q0 .33073-.198438.529167-.264583.198438-.826823.297656-.03307-.297656-.09922-.463021 0-.03307-.06615-.132291-.06615-.06615-.165364-.165365h.429948q.132292 0 .165365-.03307.03307-.03307.03307-.132292v-.595315h-1.455201v1.521354zm3.671095-5.3247412v-2.2820322h.793751v.6283857h2.381251v.5953127h-2.381251v.496094h2.381251v1.6867194h-2.447397v.4960936h2.215886v.429948h-2.215886v.463021h2.215886v.463021h-2.215886v.463021h2.215886v.463022h-2.215886v.396875q0 .23151.132291.264583.06615.06615.463022.06615h.926042q.330729 0 .363802-.03307.297656-.09922.330729-.529167.330729.231511.661459.330729-.132292.496094-.363803.661459-.23151.198438-.529166.198438h-1.719793q-.363802 0-.56224-.06615-.165364-.03307-.330729-.264584-.09922-.132291-.09922-.429948v-3.9356814h2.447397v-.5622398zm-1.852084-.0992188.264584-.9921879h-1.190626q.165365.5291669.297657.9921879zm-.727604-1.5544277v-.6614586h.79375v.6614586h1.322917v.5622398h-.396875l-.330729.9921879h.892969v.6614586h-3.7703141v-.6614586h.8929691q0-.099219-.09922-.4299481-.09922-.3638022-.165364-.5622398h-.4960933v-.5622398z" stroke-width=".352777"/><g stroke-miterlimit="10"><path d="m-.45117188-.45117188-13.97265612 13.97460988.902344.902343 13.97265588-13.97460912z" transform="matrix(.35277776 0 0 -.35277776 16.024645 23.144816)"/><path d="m-13.521484-14.425781-.902344.902343 13.97265612 13.97460988.90234376-.90234376z" transform="matrix(.35277776 0 0 -.35277776 16.024645 18.215284)"/></g></g></svg>