<svg height="31.358999mm" viewBox="0 0 27.116999 31.358999" width="27.116999mm" xmlns="http://www.w3.org/2000/svg" xmlns:xlink="http://www.w3.org/1999/xlink"><linearGradient id="a" gradientUnits="userSpaceOnUse" x1="9.525333" x2="9.525329" y1="6.95017" y2="-57.114398"><stop offset="0" stop-color="#ffdba6"/><stop offset="1" stop-color="#f2c478"/></linearGradient><clipPath id="b"><path d="m0 2834.646h2834.646v-2834.646h-2834.646z" transform="translate(-101.8765 -1470.7517)"/></clipPath><g clip-path="url(#b)" stroke-miterlimit="10" transform="matrix(.35277776 0 0 -.35277776 19.499755 6.831587)"><path d="m0 0-16.217 5.989c-.397.146-.844.146-1.241 0l-16.216-5.989c-.531-.196-.903-.628-.975-1.131l-7.687-53.534c-.122-.848.627-1.599 1.595-1.599h23.904 23.903c.969 0 1.717.751 1.596 1.599l-7.687 53.534c-.073.503-.444.935-.975 1.131" fill="url(#a)"/><path d="m-40.740234-57.115234c-1.407158 0-2.637958 1.167583-2.4375 2.570312l7.6875 53.5351564c.12054.84210769.730714 1.51475552 1.521484 1.8066406l16.216797 5.9902344c.591076.2173731 1.237049.2173731 1.828125 0l16.21874988-5.9902344c.79109572-.29200518 1.39960602-.96684898 1.52148432-1.8066406l7.6875001-53.5351564c.2001477-1.402689-1.0291161-2.570312-2.4375001-2.570312h-23.9042972zm0 1.701172h23.902343 23.9042972c.5296141 0 .7957583.335596.7539063.628906l-7.6875 53.5312498c-.0241215.1662073-.15683111.35703678-.42773438.4570312l-16.21679712 5.9882812c-.202585.07396-.450026.074404-.652343 0l-16.214844-5.9882812c-.271229-.10011453-.404275-.2911868-.427735-.4550781l-7.6875-53.5332029c-.04206-.292363.225746-.628907.753907-.628906z" fill="#4d3608"/></g><g fill="#f00"><path d="m13.200474 10.709653q.559919-.197619 2.667849-.856347l.296427.82341q-2.536103.592855-3.030149.82341-1.218647.46111-1.64682.92222-.329364.329364-.329364.724601 0 .461109.428173.691664.559919.296428 2.272612.296428.889283 0 1.185711-.03294.526982 0 1.218647-.131745l.03294.82341q-1.778566.09881-2.206739.09881-1.580948 0-2.437294-.296428-.724601-.263491-.955156-.625791-.296428-.395237-.296428-.790474 0-.592855.46111-1.152774.46111-.559919 1.679757-1.086902-.06587-.296427-.164682-1.0539646-.06587-.4611096-.06587-1.1527741 0-.5599189.03294-.9551558l.889283-.032936q-.09881 1.1857106-.09881 1.9761843 0 .1317456.06587.9880922z" stroke-width=".35424" transform="scale(.99587063 1.0041465)"/><g stroke-miterlimit="10"><path d="m-.63867187 0v22.677734h1.27734374v-22.677734z" transform="matrix(.35277776 0 0 -.35277776 13.560002 24.680088)"/><path d="m-22.677734-.63867187v1.27734374h22.677734v-1.27734374z" transform="matrix(.35277776 0 0 -.35277776 17.560007 20.680091)"/><path d="m-.45117188-.45117188-8.01757812 8.01757808.9023438.9023438 8.01757808-8.01757812z" transform="matrix(.35277776 0 0 -.35277776 13.560002 20.680091)"/><path d="m-7.5664062-8.46875-.9023438.9023438 8.01757812 8.01757808.90234376-.90234376z" transform="matrix(.35277776 0 0 -.35277776 16.388432 17.851642)"/></g></g></svg>