<svg height="31.358999mm" viewBox="0 0 27.116999 31.358999" width="27.116999mm" xmlns="http://www.w3.org/2000/svg" xmlns:xlink="http://www.w3.org/1999/xlink"><linearGradient id="a" gradientUnits="userSpaceOnUse" x1="11.70339" x2="11.70339" y1="8.19215" y2="-67.209395"><stop offset="0" stop-color="#ffdba6"/><stop offset="1" stop-color="#f2c478"/></linearGradient><clipPath id="b"><path d="m0 2834.646h2834.646v-2834.646h-2834.646z" transform="translate(-461.11531 -1475.1781)"/></clipPath><g clip-path="url(#b)" stroke-miterlimit="10" transform="matrix(.35277776 0 0 -.35277776 21.23115 5.270016)"><path d="m0 0-21.223 7.255c-.337.115-.707.115-1.044 0l-21.223-7.255c-.512-.175-.879-.592-.956-1.088l-9.882-63.712c-.128-.823.569-1.559 1.477-1.559h31.106 31.106c.907 0 1.605.736 1.477 1.559l-9.883 63.712c-.076.496-.443.913-.955 1.088" fill="url(#a)"/><path d="m-52.851562-67.208984c-1.367537 0-2.528283 1.176762-2.316407 2.539062l9.88086 63.71289075c.128752.82936477.735951 1.49322613 1.521484 1.76171875l21.224609 7.2558594c.517057.1764437 1.07474.1764437 1.591797 0h.002l21.22260963-7.2558594c.78495737-.26829599 1.39165257-.93197308 1.51953127-1.76171875v-.001953l9.8828121-63.71093775c.21198-1.362964-.949363-2.539062-2.3164059-2.539062h-31.1054691zm0 1.701172h31.107421 31.1054691c.4469549 0 .6807389.293137.6367188.576171v.002l-9.88281253 63.7128441c-.02473099.1614023-.15215872.33060237-.390625.4121094l-21.22265637 7.2558594v-.00195c-.156942.053556-.337198.053556-.49414 0v.00195l-21.222657-7.2558594c-.238466-.081507-.365377-.2514283-.390625-.4140625l-9.882812-63.710937v-.002c-.04412-.283698.188257-.576171.636719-.576171z" fill="#4d3608"/></g><g fill="#f00"><path d="m11.477548 12.20149.628386-.132292q.23151.661459.363802 1.289844l-.694532.165365q-.033073-.529167-.297656-1.322917zm-1.091407-.231511.661459.231511q-.231511.859896-.595313 1.620573l-.6614586-.297656q.2645836-.628386.5953126-1.554428zm2.546616.165365.56224-.198438q.23151.363802.496094 1.157553l-.595313.23151q-.132292-.396875-.463021-1.190625zm1.91823.859896-.56224-1.025261.56224-.264583q.297656.429948.595312.992188zm-1.587501-2.14974v-.727605h-1.951303v.727605zm0-1.3559906v-.6614586h-1.951303v.6614586zm0-1.2567714v-.6614586h-1.951303v.6614586zm-2.71198 3.505731v-4.8617211h6.250784v.6945315h-2.778127v.6614586h2.348178v.5953128h-2.348178v.6614586h2.348178v.6283856h-2.348178v.727605h3.04271q-.03307 2.017448-.198438 2.579688-.06615.363802-.297656.463021-.396875.231511-1.322917.363802-.03307-.297656-.297657-.859896h.793751q.264583 0 .297656-.09922.132292-.23151.165365-1.785938h-4.894794v.231511z" stroke-width=".352777"/><g stroke-miterlimit="10"><path d="m-.453125-.44921875-18.84375 19.04101575.90625.896484 18.84375-19.03906225z" transform="matrix(.35277776 0 0 -.35277776 16.884821 25.038597)"/><path d="m-.63867187 0v4.484375h4.44531247v-1.2753906h-3.16796873v-3.2089844z" transform="matrix(.35277776 0 0 -.35277776 10.237607 19.678854)"/><path d="m-3.8066406-4.484375v1.2753906h3.16796873v3.2089844h1.27734374v-4.484375z" transform="matrix(.35277776 0 0 -.35277776 16.884821 23.681602)"/><path d="m-18.390625-19.488281-.90625.896484 18.84375 19.04101575.90625-.8984375z" transform="matrix(.35277776 0 0 -.35277776 16.884821 18.321859)"/><path d="m-4.4453125-.63867187v4.48632817h1.2753906v-3.20898443h3.1699219v-1.27734374z" transform="matrix(.35277776 0 0 -.35277776 11.580526 25.038597)"/><path d="m3.1699219-3.8476563v3.20898443h-3.1699219v1.27734374h4.4453125v-4.48632817z" transform="matrix(.35277776 0 0 -.35277776 15.541868 18.321859)"/><path d="m-.63867187 0v14.173828h1.27734374v-14.173828z" transform="matrix(.35277776 0 0 -.35277776 13.559927 24.180104)"/><path d="m-14.173828-.63867187v1.27734374h14.173828v-1.27734374z" transform="matrix(.35277776 0 0 -.35277776 16.059922 21.680056)"/></g></g></svg>