<?xml version="1.0" encoding="UTF-8" standalone="no"?>
<!-- Created with Inkscape (http://www.inkscape.org/) -->

<svg
   width="27.116999mm"
   height="31.358999mm"
   viewBox="0 0 27.116999 31.358999"
   version="1.1"
   id="svg1"
   xmlns:xlink="http://www.w3.org/1999/xlink"
   xmlns="http://www.w3.org/2000/svg"
   xmlns:svg="http://www.w3.org/2000/svg">
  <defs
     id="defs1">
    <linearGradient
       xlink:href="#linearGradient22"
       id="linearGradient2"
       x1="-460.09503"
       y1="133.8282"
       x2="-460.09503"
       y2="58.426655"
       gradientUnits="userSpaceOnUse"
       gradientTransform="translate(471.79842,-125.63605)" />
    <linearGradient
       id="linearGradient22">
      <stop
         style="stop-color:#ffdba6;stop-opacity:1;"
         offset="0"
         id="stop21" />
      <stop
         style="stop-color:#f2c478;stop-opacity:1;"
         offset="1"
         id="stop22" />
    </linearGradient>
    <clipPath
       clipPathUnits="userSpaceOnUse"
       id="clipPath1374">
      <path
         d="M 0,2834.646 H 2834.646 V 0 H 0 Z"
         transform="translate(-461.11531,-1475.1781)"
         id="path1374" />
    </clipPath>
  </defs>
  <g
     id="layer1">
    <g
       id="path1373"
       clip-path="url(#clipPath1374)"
       transform="matrix(0.35277776,0,0,-0.35277776,21.23115,5.2700156)">
      <path
         style="color:#000000;fill:url(#linearGradient2);stroke-miterlimit:10;-inkscape-stroke:none"
         d="m 0,0 -21.223,7.255 c -0.337,0.115 -0.707,0.115 -1.044,0 L -43.49,0 c -0.512,-0.175 -0.879,-0.592 -0.956,-1.088 L -54.328,-64.8 c -0.128,-0.823 0.569,-1.559 1.477,-1.559 h 31.106 31.106 c 0.907,0 1.605,0.736 1.477,1.559 L 0.955,-1.088 C 0.879,-0.592 0.512,-0.175 0,0"
         id="path12" />
      <path
         style="color:#000000;fill:#4d3608;stroke-miterlimit:10;-inkscape-stroke:none"
         d="m -52.851562,-67.208984 c -1.367537,0 -2.528283,1.176762 -2.316407,2.539062 l 9.88086,63.71289075 c 0.128752,0.82936477 0.735951,1.49322613 1.521484,1.76171875 l 21.224609,7.2558594 c 0.517057,0.1764437 1.07474,0.1764437 1.591797,0 h 0.002 L 0.27539063,0.8046875 C 1.060348,0.53639151 1.6670432,-0.12728558 1.7949219,-0.95703125 v -0.001953 L 11.677734,-64.669922 c 0.21198,-1.362964 -0.949363,-2.539062 -2.3164059,-2.539062 H -21.744141 Z m 0,1.701172 h 31.107421 31.1054691 c 0.4469549,0 0.6807389,0.293137 0.6367188,0.576171 v 0.002 L 0.11523437,-1.2167969 c -0.02473099,0.1614023 -0.15215872,0.33060237 -0.390625,0.4121094 L -21.498047,6.4511719 v -0.00195 c -0.156942,0.053556 -0.337198,0.053556 -0.49414,0 v 0.00195 l -21.222657,-7.2558594 c -0.238466,-0.081507 -0.365377,-0.2514283 -0.390625,-0.4140625 l -9.882812,-63.710937 v -0.002 c -0.04412,-0.283698 0.188257,-0.576171 0.636719,-0.576171 z"
         id="path13" />
    </g>
    <path
       style="fill:#ff0000;stroke-width:0.352777"
       d="m 11.477548,12.20149 0.628386,-0.132292 q 0.23151,0.661459 0.363802,1.289844 l -0.694532,0.165365 Q 11.742131,12.99524 11.477548,12.20149 Z M 10.386141,11.969979 11.0476,12.20149 q -0.231511,0.859896 -0.595313,1.620573 L 9.7908284,13.524407 q 0.2645836,-0.628386 0.5953126,-1.554428 z m 2.546616,0.165365 0.56224,-0.198438 q 0.23151,0.363802 0.496094,1.157553 l -0.595313,0.23151 q -0.132292,-0.396875 -0.463021,-1.190625 z m 1.91823,0.859896 -0.56224,-1.025261 0.56224,-0.264583 q 0.297656,0.429948 0.595312,0.992188 z M 13.263486,10.8455 V 10.117895 H 11.312183 V 10.8455 Z m 0,-1.3559906 V 8.8280508 h -1.951303 v 0.6614586 z m 0,-1.2567714 V 7.5712794 H 11.312183 V 8.232738 Z m -2.71198,3.505731 V 6.8767479 H 16.80229 V 7.5712794 H 14.024163 V 8.232738 h 2.348178 v 0.5953128 h -2.348178 v 0.6614586 h 2.348178 V 10.117895 H 14.024163 V 10.8455 h 3.04271 q -0.03307,2.017448 -0.198438,2.579688 -0.06615,0.363802 -0.297656,0.463021 -0.396875,0.231511 -1.322917,0.363802 -0.03307,-0.297656 -0.297657,-0.859896 h 0.793751 q 0.264583,0 0.297656,-0.09922 0.132292,-0.23151 0.165365,-1.785938 h -4.894794 v 0.231511 z"
       id="text1374"
       aria-label="馬" />
    <path
       style="color:#000000;fill:#ff0000;stroke-miterlimit:10;-inkscape-stroke:none"
       d="m -0.453125,-0.44921875 -18.84375,19.04101575 0.90625,0.896484 18.84375,-19.03906225 z"
       id="path1375"
       transform="matrix(0.35277776,0,0,-0.35277776,16.884821,25.038597)" />
    <path
       style="color:#000000;fill:#ff0000;stroke-miterlimit:10;-inkscape-stroke:none"
       d="M -0.63867187,0 V 4.484375 H 3.8066406 V 3.2089844 H 0.63867187 V 0 Z"
       id="path1377"
       transform="matrix(0.35277776,0,0,-0.35277776,10.237607,19.678854)" />
    <path
       style="color:#000000;fill:#ff0000;stroke-miterlimit:10;-inkscape-stroke:none"
       d="m -3.8066406,-4.484375 v 1.2753906 h 3.16796873 V 0 h 1.27734374 v -4.484375 z"
       id="path1379"
       transform="matrix(0.35277776,0,0,-0.35277776,16.884821,23.681602)" />
    <path
       style="color:#000000;fill:#ff0000;stroke-miterlimit:10;-inkscape-stroke:none"
       d="m -18.390625,-19.488281 -0.90625,0.896484 18.84375,19.04101575 0.90625,-0.8984375 z"
       id="path1381"
       transform="matrix(0.35277776,0,0,-0.35277776,16.884821,18.321859)" />
    <path
       style="color:#000000;fill:#ff0000;stroke-miterlimit:10;-inkscape-stroke:none"
       d="M -4.4453125,-0.63867187 V 3.8476563 h 1.2753906 V 0.63867187 H 0 v -1.27734374 z"
       id="path1383"
       transform="matrix(0.35277776,0,0,-0.35277776,11.580526,25.038597)" />
    <path
       style="color:#000000;fill:#ff0000;stroke-miterlimit:10;-inkscape-stroke:none"
       d="m 3.1699219,-3.8476563 v 3.20898443 H 0 V 0.63867187 H 4.4453125 V -3.8476563 Z"
       id="path1385"
       transform="matrix(0.35277776,0,0,-0.35277776,15.541868,18.321859)" />
    <path
       style="color:#000000;fill:#ff0000;stroke-miterlimit:10;-inkscape-stroke:none"
       d="M -0.63867187,0 V 14.173828 H 0.63867187 V 0 Z"
       id="path1411"
       transform="matrix(0.35277776,0,0,-0.35277776,13.559927,24.180104)" />
    <path
       style="color:#000000;fill:#ff0000;stroke-miterlimit:10;-inkscape-stroke:none"
       d="M -14.173828,-0.63867187 V 0.63867187 H 0 v -1.27734374 z"
       id="path1413"
       transform="matrix(0.35277776,0,0,-0.35277776,16.059922,21.680056)" />
  </g>
</svg>
