<svg height="31.358999mm" viewBox="0 0 27.117003 31.358999" width="27.117002mm" xmlns="http://www.w3.org/2000/svg" xmlns:xlink="http://www.w3.org/1999/xlink"><clipPath id="a"><path d="m0 2834.646h2834.646v-2834.646h-2834.646z" transform="translate(-101.8765 -1555.7911)"/></clipPath><linearGradient id="b" gradientTransform="matrix(-1 0 0 -1 -674.58366 164.075146)" gradientUnits="userSpaceOnUse" x1="222.31836" x2="222.31836" y1="231.2834" y2="155.88185"><stop offset="0" stop-color="#f2c478"/><stop offset="1" stop-color="#ffdba6"/></linearGradient><g transform="translate(-296.93601)"><g clip-path="url(#a)" stroke-miterlimit="10" transform="matrix(-.35277776 0 0 .35277776 304.55486 24.527704)"><path d="m0 0-16.217 5.989c-.397.146-.844.146-1.241 0l-16.216-5.989c-.531-.196-.903-.627-.975-1.131l-7.687-53.534c-.122-.848.627-1.598 1.595-1.598h23.904 23.903c.969 0 1.717.75 1.596 1.598l-7.687 53.534c-.073.504-.444.935-.975 1.131" fill="url(#b)"/><path d="m-40.740234-57.113281c-1.406573 0-2.637944 1.165724-2.4375 2.568359l7.6875 53.5351564c.120395.84276505.731595 1.5150809 1.521484 1.8066406l16.216797 5.9902344c.591076.2173731 1.237049.2173731 1.828125 0l16.21874988-5.9902344c.79021412-.29167981 1.39975132-.96618242 1.52148432-1.8066406l7.6875001-53.5351564c.2001345-1.402596-1.0297011-2.568359-2.4375001-2.568359h-23.9042972zm0 1.701172h23.902343 23.9042972c.5301992 0 .7957715.333551.7539063.626953l-7.6875 53.5332029c-.0242668.1675408-.1559496.3547583-.42773438.4550781l-16.21679712 5.9882812c-.202585.07396-.450026.074404-.652343 0l-16.214844-5.9882812c-.27211-.1004399-.40413-.2898442-.427735-.4550781l-7.6875-53.5332029c-.04208-.292456.225161-.626953.753907-.626953z" fill="#4d3608"/></g><path d="m313.52864 16.143118q.0984.429948.2952.760678-.95121.03308-2.09923.33073-.91841.231511-1.60721.727605-.68882.463022-1.34482 1.190628l-.59041-.463022q.75441-.760678.98401-.926043.45921-.363804 1.14802-.694533.45921-.264584 1.44322-.562241.7872-.198437 1.77122-.363802zm-6.75688 2.844276.492-.595314q.95121.859897 1.77122 1.355992l-.42641.562241q-1.08241-.694533-1.83681-1.322919zm6.92088-.926044q.0984.198438.164.264584l.328.363803q-.656.463022-.8528.661459-.36081.297657-.98402.992189l-.62321-.496094q.13121-.132292.2624-.264584.13121-.132292.26242-.264583.656-.66146.7216-.694533.52481-.429949.72161-.562241zm-2.85364 3.175006v2.579692h-.7216v-.992189h-2.55844v-.694533h2.55844v-.89297h-3.28004v-.727606h3.28004v-1.918232q0-.264584.22959-.463022.19681-.165365 1.01682-.33073.0328.33073.32801.793752h-.72161q-.0328 0-.0984.06614-.0328.03308-.0328.09922v1.752867h3.37844v.727606h-1.27921v1.885162h-.75441v-1.88516z" stroke-width=".35424"/><g stroke-miterlimit="10" stroke-width=".352778"><path d="m310.71996 10.679251v4.000444h-.45062v-4.000444z"/><path d="m314.49484 10.454183v.450618h-8.0002v-.450618z"/></g></g></svg>