<?xml version="1.0" encoding="UTF-8" standalone="no"?>
<!-- Created with Inkscape (http://www.inkscape.org/) -->

<svg
   width="27.117001mm"
   height="31.358999mm"
   viewBox="0 0 27.117001 31.358999"
   version="1.1"
   id="svg1"
   xmlns:xlink="http://www.w3.org/1999/xlink"
   xmlns="http://www.w3.org/2000/svg"
   xmlns:svg="http://www.w3.org/2000/svg">
  <defs
     id="defs1">
    <linearGradient
       id="linearGradient48">
      <stop
         style="stop-color:#f2c478;stop-opacity:1;"
         offset="0"
         id="stop48" />
      <stop
         style="stop-color:#ffdba6;stop-opacity:1;"
         offset="1"
         id="stop47" />
    </linearGradient>
    <clipPath
       clipPathUnits="userSpaceOnUse"
       id="clipPath1330-86-6-46">
      <path
         d="M 0,2834.646 H 2834.646 V 0 H 0 Z"
         transform="translate(-461.11531,-1560.2174)"
         id="path1330-98-2-4" />
    </clipPath>
    <linearGradient
       xlink:href="#linearGradient48"
       id="linearGradient1"
       gradientUnits="userSpaceOnUse"
       gradientTransform="rotate(180,89.597939,458.50774)"
       x1="234.38948"
       y1="984.22375"
       x2="234.38948"
       y2="908.8222" />
  </defs>
  <g
     id="layer1">
    <g
       id="path1329-5-1-8"
       clip-path="url(#clipPath1330-86-6-46)"
       transform="matrix(-0.35277776,0,0,0.35277776,5.8872677,26.089084)">
      <path
         style="color:#000000;fill:url(#linearGradient1);stroke-miterlimit:10;-inkscape-stroke:none"
         d="m 0,0 -21.223,7.255 c -0.337,0.115 -0.707,0.115 -1.044,0 L -43.49,0 c -0.512,-0.175 -0.879,-0.593 -0.956,-1.088 L -54.328,-64.8 c -0.128,-0.823 0.569,-1.559 1.477,-1.559 h 31.106 31.106 c 0.907,0 1.605,0.736 1.477,1.559 L 0.955,-1.088 C 0.879,-0.593 0.512,-0.175 0,0"
         id="path21" />
      <path
         style="color:#000000;fill:#4d3608;stroke-miterlimit:10;-inkscape-stroke:none"
         d="m -52.851562,-67.208984 c -1.367537,0 -2.528283,1.176762 -2.316407,2.539062 l 9.88086,63.71289075 c 0.128904,0.82867416 0.735013,1.49290547 1.521484,1.76171875 l 21.224609,7.2558594 c 0.517057,0.1764437 1.07474,0.1764437 1.591797,0 h 0.002 L 0.27539063,0.8046875 C 1.0612847,0.53607135 1.6668921,-0.12796836 1.7949219,-0.95703125 v -0.001953 L 11.677734,-64.669922 c 0.21198,-1.362964 -0.949363,-2.539062 -2.3164059,-2.539062 H -21.744141 Z m 0,1.701172 h 31.107421 31.1054691 c 0.4469549,0 0.6807389,0.293137 0.6367188,0.576171 v 0.002 L 0.11523437,-1.2167969 c -0.02457878,0.1600856 -0.15309689,0.33092303 -0.390625,0.4121094 L -21.498047,6.4511719 v -0.00195 c -0.156942,0.053556 -0.337198,0.053556 -0.49414,0 v 0.00195 l -21.222657,-7.2558594 c -0.237528,-0.0811864 -0.36553,-0.2527376 -0.390625,-0.4140625 l -9.882812,-63.710937 v -0.002 c -0.04412,-0.283698 0.188257,-0.576171 0.636719,-0.576171 z"
         id="path22" />
    </g>
    <path
       style="fill:#000000 icc-color(sRGB-IEC61966-2, 0.1, 0, 0, 0);stroke-width:0.352777"
       d="m 13.63401,24.172199 q 1.256772,0 2.116668,-0.859896 0.859896,-0.859896 0.859896,-2.083595 0,-1.223699 -0.859896,-2.083595 -0.859896,-0.892969 -2.116668,-0.892969 -1.256771,0 -2.083594,0.892969 -0.859896,0.859896 -0.859896,2.083595 0,1.223699 0.859896,2.083595 0.859896,0.859896 2.083594,0.859896 z m 0,0.727604 q -1.488282,0 -2.612761,-1.058333 -1.0914073,-1.091407 -1.0914073,-2.645835 0,-1.554428 1.0914073,-2.645835 1.091407,-1.091406 2.612761,-1.091406 1.554428,0 2.645835,1.091406 1.091406,1.091407 1.091406,2.645835 0,1.521355 -1.091406,2.612762 -1.091407,1.091406 -2.645835,1.091406 z"
       id="text1330-1-8-2"
       aria-label="〇" />
    <path
       style="color:#000000;fill:#000000 icc-color(sRGB-IEC61966-2, 0.1, 0, 0, 0);stroke-width:0.352778;stroke-miterlimit:10;-inkscape-stroke:none"
       d="m 10.854686,7.5648268 5.910346,5.9103452 -0.318636,0.318635 -5.910345,-5.9103448 z"
       id="path1317-1-0-34" />
    <path
       style="color:#000000;fill:#000000 icc-color(sRGB-IEC61966-2, 0.1, 0, 0, 0);stroke-width:0.352778;stroke-miterlimit:10;-inkscape-stroke:none"
       d="M 16.44637,7.5648497 16.765006,7.883485 10.85466,13.79383 10.536025,13.475195 Z"
       id="path1323-3-0-7" />
    <path
       style="color:#000000;fill:#000000;stroke-width:0.559289;stroke-miterlimit:10;-inkscape-stroke:none"
       d="M 10.796423,15.214996 9.1152874,13.532749 9.4331629,13.21487 11.115391,14.896025 Z"
       id="path4451-7-08-5-0-09" />
    <path
       style="color:#000000;fill:#000000;stroke-width:0.559289;stroke-miterlimit:10;-inkscape-stroke:none"
       d="M 17.867466,8.1439532 16.186331,6.4617063 16.504206,6.1438272 18.186434,7.8249817 Z"
       id="path4451-7-08-1-97" />
    <path
       style="color:#000000;fill:#000000;stroke-width:0.559289;stroke-miterlimit:10;-inkscape-stroke:none"
       d="M 9.1144149,7.8247456 10.796662,6.1436102 11.114541,6.4614857 9.4333864,8.1437134 Z"
       id="path4451-7-08-5-4-29-82" />
    <path
       style="color:#000000;fill:#000000;stroke-width:0.559289;stroke-miterlimit:10;-inkscape-stroke:none"
       d="m 17.867556,13.214624 0.318968,0.318971 -1.682228,1.681155 -0.317876,-0.317879 z"
       id="path4449-0-4-3-4-95" />
    <path
       style="color:#000000;fill:#000000;stroke-width:0.393104;stroke-miterlimit:10;-inkscape-stroke:none"
       d="m 16.380992,12.440236 0.449524,10e-7 v 1.419148 h -1.419149 l 5.43e-4,-0.450067 0.969082,5.43e-4 z"
       id="path4671-0-44-2" />
    <path
       style="color:#000000;fill:#000000;stroke-width:0.393104;stroke-miterlimit:10;-inkscape-stroke:none"
       d="m 10.470593,7.4988216 1.419149,3e-7 -5.42e-4,0.4500667 -0.969083,-5.431e-4 1e-6,0.969625 -0.449524,-10e-8 z"
       id="path4673-4-0-0" />
    <path
       style="color:#000000;fill:#000000;stroke-width:0.393104;stroke-miterlimit:10;-inkscape-stroke:none"
       d="m 11.889415,13.409539 v 0.449523 l -1.419149,1e-6 v -1.419149 l 0.450067,5.43e-4 -5.43e-4,0.969082 z"
       id="path4671-0-44-9-85" />
    <path
       style="color:#000000;fill:#000000;stroke-width:0.393104;stroke-miterlimit:10;-inkscape-stroke:none"
       d="m 16.830843,7.4991432 -1e-6,1.4191489 -0.450066,-5.428e-4 5.43e-4,-0.9690821 -0.969625,2e-7 V 7.4991436 Z"
       id="path4673-4-0-6-7" />
  </g>
</svg>
