<?xml version="1.0" encoding="UTF-8" standalone="no"?>
<!-- Created with Inkscape (http://www.inkscape.org/) -->

<svg
   width="27.117002mm"
   height="31.358999mm"
   viewBox="0 0 27.117003 31.358999"
   version="1.1"
   id="svg1"
   xmlns:xlink="http://www.w3.org/1999/xlink"
   xmlns="http://www.w3.org/2000/svg"
   xmlns:svg="http://www.w3.org/2000/svg">
  <defs
     id="defs1">
    <linearGradient
       id="linearGradient89">
      <stop
         style="stop-color:#f2c478;stop-opacity:1;"
         offset="0"
         id="stop89" />
      <stop
         style="stop-color:#ffdba6;stop-opacity:1;"
         offset="1"
         id="stop88" />
    </linearGradient>
    <clipPath
       clipPathUnits="userSpaceOnUse"
       id="clipPath1330-86-6-46">
      <path
         d="M 0,2834.646 H 2834.646 V 0 H 0 Z"
         transform="translate(-461.11531,-1560.2174)"
         id="path1330-98-2-4" />
    </clipPath>
    <linearGradient
       xlink:href="#linearGradient89"
       id="linearGradient1"
       gradientUnits="userSpaceOnUse"
       gradientTransform="rotate(180,-738.44971,330.94864)"
       x1="-1283.1606"
       y1="735.85059"
       x2="-1283.1606"
       y2="646.95892" />
  </defs>
  <g
     id="path1329-5-1-8"
     clip-path="url(#clipPath1330-86-6-46)"
     transform="matrix(-0.35277776,0,0,0.35277776,5.8872613,26.089084)">
    <path
       style="color:#000000;font-variation-settings:normal;opacity:1;vector-effect:none;fill:url(#linearGradient1);fill-opacity:1;stroke-width:1;stroke-linecap:butt;stroke-linejoin:miter;stroke-miterlimit:10;stroke-dasharray:none;stroke-dashoffset:0;stroke-opacity:1;-inkscape-stroke:none;stop-color:#000000;stop-opacity:1"
       d="m 0,0 -21.223,7.255 c -0.337,0.115 -0.707,0.115 -1.044,0 L -43.49,0 c -0.512,-0.175 -0.879,-0.593 -0.956,-1.088 L -54.328,-64.8 c -0.128,-0.823 0.569,-1.559 1.477,-1.559 h 31.106 31.106 c 0.907,0 1.605,0.736 1.477,1.559 L 0.955,-1.088 C 0.879,-0.593 0.512,-0.175 0,0"
       id="path1" />
    <path
       style="color:#000000;fill:#4d3608;stroke-miterlimit:10;-inkscape-stroke:none"
       d="m -52.851562,-67.208984 c -1.367537,0 -2.528283,1.176762 -2.316407,2.539062 l 9.88086,63.71289075 c 0.128904,0.82867416 0.735013,1.49290547 1.521484,1.76171875 l 21.224609,7.2558594 c 0.517057,0.1764437 1.07474,0.1764437 1.591797,0 h 0.002 L 0.27539063,0.8046875 C 1.0612847,0.53607135 1.6668921,-0.12796836 1.7949219,-0.95703125 v -0.001953 L 11.677734,-64.669922 c 0.21198,-1.362964 -0.949363,-2.539062 -2.3164059,-2.539062 H -21.744141 Z m 0,1.701172 h 31.107421 31.1054691 c 0.4469549,0 0.6807389,0.293137 0.6367188,0.576171 v 0.002 L 0.11523437,-1.2167969 c -0.02457878,0.1600856 -0.15309689,0.33092303 -0.390625,0.4121094 L -21.498047,6.4511719 v -0.00195 c -0.156942,0.053556 -0.337198,0.053556 -0.49414,0 v 0.00195 l -21.222657,-7.2558594 c -0.237528,-0.0811864 -0.36553,-0.2527376 -0.390625,-0.4140625 l -9.882812,-63.710937 v -0.002 c -0.04412,-0.283698 0.188257,-0.576171 0.636719,-0.576171 z"
       id="path2" />
  </g>
  <path
     style="stroke-width:0.352777"
     d="m 17.651258,19.686914 -0.421679,-0.231511 0.37207,-1.190623 q 0.07442,0.09922 0.396874,0.264582 z m 1.11621,-1.223698 0.496093,-0.198436 q 0.223241,0.892967 0.297655,1.223696 l -0.471288,0.231511 q -0.04961,-0.165365 -0.32246,-1.256771 z m -3.34863,1.124479 v 1.190623 h 0.446484 v -1.190623 z m 0.917773,-1.157551 v 2.976559 H 14.94755 v -2.745049 h 0.471288 v 0.23151 h 0.446484 v -0.46302 z m 0.07441,3.737235 v 0.595312 h -1.587499 v -0.595312 z m 0.719335,-5.225514 v 7.176814 h -3.050972 v -6.217701 q 0,-0.562239 0.173629,-0.694531 0.198442,-0.264582 0.768947,-0.363801 0.04961,0.429947 0.07442,0.562239 0.0248,0.132291 0.148827,0.330729 h -0.5457 q -0.04962,0 -0.07439,0.03307 v 0.06614 5.589317 h 1.984375 v -6.482284 z m 1.909959,5.126295 h -1.43867 v -0.628384 h 0.471288 v -0.661458 h -0.669726 v -0.628385 h 0.669726 v -2.18281 q -0.446484,0.09922 -0.669726,0.165365 v -0.69453 l 0.545702,-0.165365 1.537889,-0.429947 0.09922,0.826822 q -0.248046,0.03307 -0.545702,0.06614 -0.297656,0.06614 -0.396875,0.06614 v 2.348182 h 0.843358 v 0.628385 h -0.843358 v 0.661458 h 0.446484 v 0.562239 l 0.24805,-0.396872 q 0.148827,0.330729 0.37207,0.628385 -0.421679,0.595312 -0.744141,1.190623 -0.09922,0.165365 -0.496093,1.091405 l -0.471288,-0.396874 0.07442,-0.198438 q -0.173632,-0.132291 -0.892967,-0.92604 l 0.396871,-0.595312 q 0.198437,0.264583 0.793749,0.926041 0.446484,-0.859895 0.669726,-1.25677 z m -5.977922,0.793749 -0.520897,-0.06615 q 0.02477,-0.330729 0.02477,-0.628385 0,-0.297656 0.02477,-0.429947 0.02477,-0.198438 0.04962,-0.429948 0,-0.198437 0.07439,-0.661457 l 0.496094,0.09922 q -0.148827,1.091405 -0.148827,2.116664 z m -3.5718697,-2.87734 v 1.124478 h 0.6697237 v -1.124478 z m 0.8185497,2.447393 0.198441,-0.69453 H 8.9448153 v -2.414321 h 1.2154317 v -1.455206 q 0,-0.165364 -0.09922,-0.198437 -0.09922,-0.06614 -0.4712817,-0.06614 h -1.215432 q -0.17363,0 -0.248047,0.09922 -0.07439,0.06614 -0.198441,0.661458 -0.17363,-0.231511 -0.520897,-0.429948 0.148835,-0.562239 0.248047,-0.727604 0.148826,-0.198436 0.248047,-0.231509 0.07439,-0.03307 0.520897,-0.03307 h 1.314652 q 0.4712827,0 0.5456997,0.03307 0.17363,0.09921 0.297653,0.264582 0.124024,0.165365 0.124024,0.396876 v 3.571861 q 0.223244,-0.529166 0.297661,-0.628385 0.124024,0.23151 0.421677,0.628385 -0.396874,0.760676 -0.595315,1.422133 -0.248047,0.793749 -0.421676,1.819008 L 9.8625953,24.284041 10.110642,23.093418 H 7.7541953 q 0,-2.778122 0.09922,-3.704163 0.04962,-0.562238 0.198432,-0.727603 0.124024,-0.165365 0.595315,-0.23151 0.07439,0.330729 0.198441,0.727603 h -0.27285 q -0.09922,0 -0.124024,0.03307 -0.02477,0.03307 -0.07439,0.529167 0,0 -0.04962,2.711976 z m 2.009179,2.017445 h -0.5457 v -1.885153 q -0.07439,0.09922 -0.124023,0.165364 -0.04962,0.09922 -0.124024,0.165364 -0.07439,0.09922 -0.124023,0.198438 -0.07439,0.09922 -0.173639,0.23151 l -0.37207,-0.562239 0.942582,-1.124478 q 0.04962,-1.190624 0.09922,-1.71979 -0.471291,-1.091404 -0.818559,-1.719789 l 0.421685,-0.529166 q 0.322456,0.595312 0.570503,1.289842 0.27285,-1.157551 0.793747,-2.050518 0.248047,0.46302 0.396873,0.628384 -0.471282,0.79375 -0.620108,1.422134 -0.148836,0.529166 -0.272859,1.785935 -0.04962,0.926041 -0.04962,3.704162 z"
     id="text1328-5-0-9-7-0"
     aria-label="銅炮" />
  <path
     style="color:#000000;fill:#000000 icc-color(sRGB-IEC61966-2, 0.1, 0, 0, 0);stroke-width:0.352778;stroke-miterlimit:10;-inkscape-stroke:none"
     d="m 10.762644,7.564826 5.910346,5.910345 -0.318636,0.318636 -5.910345,-5.9103456 z"
     id="path1317-1-0-34" />
  <path
     style="color:#000000;fill:#000000 icc-color(sRGB-IEC61966-2, 0.1, 0, 0, 0);stroke-width:0.352778;stroke-miterlimit:10;-inkscape-stroke:none"
     d="M 16.354327,7.5648499 16.672963,7.8834852 10.762617,13.79383 10.443982,13.475195 Z"
     id="path1323-3-0-7" />
  <path
     style="color:#000000;fill:#000000;stroke-width:0.559289;stroke-miterlimit:10;-inkscape-stroke:none"
     d="m 10.704378,15.214995 -1.6811357,-1.682247 0.317876,-0.317879 1.6822277,1.681155 z"
     id="path4451-7-08-5-0-09" />
  <path
     style="color:#000000;fill:#000000;stroke-width:0.559289;stroke-miterlimit:10;-inkscape-stroke:none"
     d="M 17.775421,8.1439534 16.094285,6.4617065 16.412161,6.1438274 18.094389,7.8249819 Z"
     id="path4451-7-08-1-97" />
  <path
     style="color:#000000;fill:#000000;stroke-width:0.559289;stroke-miterlimit:10;-inkscape-stroke:none"
     d="M 9.0223673,7.8247458 10.704614,6.1436104 11.022493,6.4614859 9.3413383,8.1437136 Z"
     id="path4451-7-08-5-4-29-82" />
  <path
     style="color:#000000;fill:#000000;stroke-width:0.559289;stroke-miterlimit:10;-inkscape-stroke:none"
     d="m 17.775527,13.214624 0.318968,0.318971 -1.682228,1.681155 -0.317876,-0.317879 z"
     id="path4449-0-4-3-4-95" />
  <path
     style="color:#000000;fill:#000000;stroke-width:0.393104;stroke-miterlimit:10;-inkscape-stroke:none"
     d="m 16.28896,12.440236 h 0.449524 v 1.419149 l -1.419149,-10e-7 5.43e-4,-0.450066 0.969082,5.43e-4 z"
     id="path4671-0-44-2" />
  <path
     style="color:#000000;fill:#000000;stroke-width:0.393104;stroke-miterlimit:10;-inkscape-stroke:none"
     d="m 10.378564,7.4988218 1.419149,3e-7 -5.42e-4,0.4500667 -0.969083,-5.431e-4 1e-6,0.969625 -0.449524,-10e-8 z"
     id="path4673-4-0-0" />
  <path
     style="color:#000000;fill:#000000;stroke-width:0.393104;stroke-miterlimit:10;-inkscape-stroke:none"
     d="m 11.797391,13.409539 v 0.449524 h -1.419149 v -1.419149 l 0.450067,5.43e-4 -5.43e-4,0.969082 z"
     id="path4671-0-44-9-85" />
  <path
     style="color:#000000;fill:#000000;stroke-width:0.393104;stroke-miterlimit:10;-inkscape-stroke:none"
     d="m 16.738806,7.4991434 -1e-6,1.4191489 -0.450066,-5.428e-4 5.43e-4,-0.9690821 -0.969625,2e-7 V 7.4991438 Z"
     id="path4673-4-0-6-7" />
</svg>
