<svg xmlns="http://www.w3.org/2000/svg" xmlns:xlink="http://www.w3.org/1999/xlink" width="30mm" height="30mm" viewBox="0 0 30 30">
    <defs>
        <linearGradient id="1_ELEPHANT_svg__a">
            <stop offset="0" stop-color="#ffdba6"/>
            <stop offset="1" stop-color="#f2c478"/>
        </linearGradient>
        <linearGradient xlink:href="#1_ELEPHANT_svg__a" id="1_ELEPHANT_svg__b" x1="244.85" x2="244.85" y1="222.989" y2="140.991" gradientTransform="translate(-8957.48 -212.603)" gradientUnits="userSpaceOnUse"/>
    </defs>
    <path fill="url(#1_ELEPHANT_svg__b)" d="m0 0-22.28 7.578c-.3.102-.625.102-.924 0L-45.484 0a1.42 1.42 0 0 1-.949-1.125l-10.308-66.12a1.422 1.422 0 0 1 1.411-1.636H9.846a1.42 1.42 0 0 1 1.41 1.636L.948-1.125A1.42 1.42 0 0 1 0 0" transform="matrix(-.35278 0 0 .35278 6.977 25.8)"/>
    <path fill="#4d3608" d="M26.496 1.2c.486 0 .87.443.795.924l-3.637 23.325a.8.8 0 0 1-.534.635l-7.86 2.673a.8.8 0 0 1-.52 0l-7.86-2.673a.8.8 0 0 1-.534-.635L2.71 2.124a.807.807 0 0 1 .794-.923H15Zm0 .6H3.504a.196.196 0 0 0-.202.23L6.94 25.358a.2.2 0 0 0 .134.159l7.861 2.673a.2.2 0 0 0 .132 0l7.86-2.673a.2.2 0 0 0 .135-.159L26.697 2.03a.196.196 0 0 0-.2-.23"/>
    <path d="M15.397 21.257v.595h1.753v-.595zm-2.745 0v.595h2.017v-.595zm2.116 1.653h1.852l.53-.463h-1.886q-.165.133-.496.463m.893 1.026.331-.397h-1.918l-.133.066-.43-.463q.265-.265.464-.43.165-.166.297-.265h-2.414v-1.786h1.819q-.066-.562-.298-1.058l-.661.463q-.33.232-.629.43l-.562-.595q.992-.629 1.521-.926-.76-1.059-1.819-1.588.397-.397.563-.694.86.595 1.157.926.397.363.695.893.33.496.496.992.165.364.298 1.157h.628l.231-.165q-.529-.628-.793-1.257-.232-.562-.232-1.422 0-.43.166-.76.132-.298.463-.398.363-.132 1.091-.165.066.463.198.76h-.76q-.232 0-.265.1-.132.132-.132.496 0 .199.033.364 1.224-.662 1.62-.827.496-.231 1.72-.595.298.628.364.694-1.951.463-3.539 1.489l.132.33q.794-.463 1.257-.661.331-.132 1.522-.53.066.2.396.63-1.554.363-2.877 1.09l.232.298q1.19-.628 2.546-.992.133.364.397.694-1.521.331-2.414.827h1.455v1.257q.397-.298.496-.364.165.232.53.596-1.489.992-2.448 2.05zM15.225 8.99v4.5h-.45v-4.5Z"/>
    <path d="M19.5 8.765v.45h-9v-.45z"/>
    <path d="m11.977 5.648 6.364 6.364-.318.319-6.364-6.365Z"/>
    <path d="m18.023 5.648.318.319-6.364 6.364-.318-.318z"/>
</svg>
