<svg height="31.358999mm" viewBox="0 0 27.117003 31.358999" width="27.117002mm" xmlns="http://www.w3.org/2000/svg" xmlns:xlink="http://www.w3.org/1999/xlink"><clipPath id="a"><path d="m0 2834.646h2834.646v-2834.646h-2834.646z" transform="translate(-461.11531 -1475.1781)"/></clipPath><clipPath id="b"><path d="m0 2834.646h2834.646v-2834.646h-2834.646z" transform="translate(-494.73181 -43.851026)"/></clipPath><clipPath id="c"><path d="m0 2834.646h2834.646v-2834.646h-2834.646z" transform="translate(-494.73181 -43.851026)"/></clipPath><clipPath id="d"><path d="m0 2834.646h2834.646v-2834.646h-2834.646z" transform="translate(-494.73181 -43.851026)"/></clipPath><clipPath id="e"><path d="m0 2834.646h2834.646v-2834.646h-2834.646z" transform="translate(-491.72521 -43.851026)"/></clipPath><clipPath id="f"><path d="m0 2834.646h2834.646v-2834.646h-2834.646z" transform="translate(-1148.7975 -1175.6119)"/></clipPath><clipPath id="g"><path d="m0 2834.646h2834.646v-2834.646h-2834.646z" transform="translate(-1148.7975 -1175.6119)"/></clipPath><clipPath id="h"><path d="m0 2834.646h2834.646v-2834.646h-2834.646z" transform="translate(-1148.7975 -1175.6119)"/></clipPath><clipPath id="i"><path d="m0 2834.646h2834.646v-2834.646h-2834.646z" transform="translate(-1148.7975 -1175.6119)"/></clipPath><linearGradient id="j" gradientTransform="matrix(-1 0 0 -1 -358.943 164.075146)" gradientUnits="userSpaceOnUse" x1="222.31836" x2="222.31836" y1="231.2834" y2="155.88185"><stop offset="0" stop-color="#f2c478"/><stop offset="1" stop-color="#ffdba6"/></linearGradient><g transform="translate(-185.58501)"><g clip-path="url(#a)" stroke-miterlimit="10" transform="matrix(-.35277776 0 0 .35277776 191.47227 26.089084)"><path d="m0 0-21.223 7.255c-.337.115-.707.115-1.044 0l-21.223-7.255c-.512-.175-.879-.592-.956-1.088l-9.882-63.712c-.128-.823.569-1.559 1.477-1.559h31.106 31.106c.907 0 1.605.736 1.477 1.559l-9.883 63.712c-.076.496-.443.913-.955 1.088" fill="url(#j)"/><path d="m-52.851562-67.208984c-1.367537 0-2.528283 1.176762-2.316407 2.539062l9.88086 63.71289075c.128752.82936477.735951 1.49322613 1.521484 1.76171875l21.224609 7.2558594c.517057.1764437 1.07474.1764437 1.591797 0h.002l21.22260963-7.2558594c.78495737-.26829599 1.39165257-.93197308 1.51953127-1.76171875v-.001953l9.8828121-63.71093775c.21198-1.362964-.949363-2.539062-2.3164059-2.539062h-31.1054691zm0 1.701172h31.107421 31.1054691c.4469549 0 .6807389.293137.6367188.576171v.002l-9.88281253 63.7128441c-.02473099.1614023-.15215872.33060237-.390625.4121094l-21.22265637 7.2558594v-.00195c-.156942.053556-.337198.053556-.49414 0v.00195l-21.222657-7.2558594c-.238466-.081507-.365377-.2514283-.390625-.4140625l-9.882812-63.710937v-.002c-.04412-.283698.188257-.576171.636719-.576171z" fill="#4d3608"/></g><g fill="#f00"><path d="m199.73875 23.1919v1.141014h-.7276v-1.141014h-1.58749q0-.413411-.0331-.644921l-.8599.396874-.52917-.248046.69454-.297656-.8599-.165364.33074-.314193q.0662.01654.42994.08268.33073.08268.66145.148829-.26457-.314193-.5953-.496094-.26458-.132291-.3638-.132291-.0331 0-.0993.03307-.0993.08268-.19844.28112-.16537-.06614-.62838-.198438.16536-.297655.36381-.380337.19843-.09922.42995-.09922.36379 0 .89296.181902.46301.165364.7276.496093.29766.363801.33073 1.008722h.89297v-1.70325h.7276v1.703253h1.12447q.0662-.512629.16538-.69453.16536-.264583.33073-.413411.39687-.264583.42993-.297656.0662-.04961.69454-.314192.33072.23151.52917.314192-.56224.214974-.79376.363802-.29765.214973-.42995.413411-.13223.214974-.19843.628384h1.28984v.347265h-1.28984v.529167q.19843-.03307 1.12447-.148829.19845.231511.33073.347266-.69452.04961-1.0914.09922-.33073.04961-1.52134.248046l-.36381-.297656q.39687-.08268.76068-.148828v-.628385zm-1.65364 1.240233h4.59713v.347265h-5.29166q.0331-.148828-.0331-.496093-.19842.115755-.42994.23151-.23151.132292-.46302.248047l-.52917-.264583q.23152-.09922.46303-.198438.19843-.08268.39687-.165364-.0993-.01654-.33073-.06614-.26458-.03307-.69453-.09922l.29766-.297656 1.15755.214974q-.26459-.248047-.66146-.446485-.2315-.115754-.39687-.115754-.0331 0-.0993.03307 0 0-.16536.23151-.23152-.115755-.66146-.198437.26458-.314193.3638-.363802.16536-.08268.33073-.08268.3638 0 .92604.181901.59531.181901.82682.446483.29766.264583.39688.859895z" stroke-width=".352777"/><path d="m203.0884 18.512686-.62012.103353q-.13774-.155029-.44785-.620117l.65457-.103352q.13774.292832.4134.620116zm-2.79052-.602891q.10337 0 .62011.120578l-.51676.602892-.65456-.15503q.37895-.430636.55121-.56844zm-2.44601 2.256534v.895724h-.82682v-.895724h-1.51584v-.378959h1.55029l.10337-.654568h-1.8948v-.361734h1.6192q-.20671-.413411-.34451-.516764-.27561-.258382-.65457-.465087-.13775-.0689-.89572-.37896.24115-.08613.58567-.327284.62011.258382.82682.396186.3445.206706.58566.430636.17225.137804.44786.56844.24116-.37896.44786-.551214.13775-.120578.51677-.344509.17225-.08613.3445-.155029.13775-.08613.27562-.15503l.6201-.223931q0 0 .10338.08613.0689.08613.13775.120578 0 .01722.13774.0689.10338.05167.10338.05167-.96462.327284-1.44694.654567-.48231.310059-.62012.740695h1.58474v.361738h-1.72254l-.0689.654567h.96462q.17225-.189479.41342-.482312.44785.103353.72347.155029-.37897.396185-.51677.637341-.13774.206706-.31005.637343l-.75792-.08613q0-.01722.0345-.0689 0-.05167.0345-.08613 0-.01722.13775-.327283zm3.75514.9474-.72347-.206705.10338-.103352q-.72347-.241157-1.37804-.568441l.58567-.275607q.75792.361734 1.20579.516764.4134-.327284.68902-.482313.0345-.03445.10338-.0689.0689-.03445.10338-.0689h-2.10151v-.361735h.79237v-.310058h-1.03352v-.327284h1.03352v-1.067978q-.86127.08613-1.03352.120578v-.396185l1.75699-.206706 1.27469-.120578.17225.396186-1.44694.120578v1.154105h1.24024v.327284h-1.24024v.310058h.72347v.292832q.10338-.05168.2067-.120578.10338-.05167.24117-.120578.13774.223931.4134.37896-1.03352.516764-1.68809 1.188556z" stroke-width=".352777"/><g clip-path="url(#b)" stroke-miterlimit="10" transform="matrix(0 .55928609 .55929249 0 194.41346 7.630932)"><path d="m0 0-3.007 3.007"/><path d="m-.28515625-.28515625-3.00585935 3.00781255.5683593.5683593 3.00781255-3.00585935z"/></g><g clip-path="url(#c)" stroke-miterlimit="10" transform="matrix(0 .55928609 .55929249 0 202.1916 15.409073)"><path d="m0 0-3.007 3.007"/><path d="m-.28515625-.28515625-3.00585935 3.00781255.5683593.5683593 3.00781255-3.00585935z"/></g><g clip-path="url(#d)" stroke-miterlimit="10" transform="matrix(-.55928609 0 0 .55929249 202.19188 5.94887)"><path d="m0 0-3.007 3.007"/><path d="m-.28515625-.28515625-3.00585935 3.00781255.5683593.5683593 3.00781255-3.00585935z"/></g><g clip-path="url(#e)" stroke-miterlimit="10" transform="matrix(0 -.55928609 -.55929249 0 196.09482 15.409206)"><path d="m0 0 3.007 3.007"/><path d="m.28515625-.28515625-.5703125.5703125 3.00781255 3.00585935.5683593-.5683593z"/></g><path d="m202.48473 7.6562105-6.36393 6.3639375-.31864-.318635 6.36394-6.3639379z" stroke-miterlimit="10" stroke-width=".352778"/><path d="m203.32571 13.179767-1.68224 1.681135-.31788-.317876 1.68115-1.682227z" stroke-miterlimit="10" stroke-width=".559289"/><path d="m195.28012 8.4974364-.31897-.3189715 1.68223-1.6811545.31788.3178791z" stroke-miterlimit="10" stroke-width=".559289"/><path d="m201.644 6.4967469 1.68114 1.682247-.31788.3178791-1.68223-1.6811546z" stroke-miterlimit="10" stroke-width=".559289"/><path d="m196.96168 14.542358-.31897.318968-1.68115-1.682228.31788-.317876z" stroke-miterlimit="10" stroke-width=".559289"/><path d="m202.4847 13.701973-.31864.318636-6.36393-6.3639383.31863-.3186354z" stroke-miterlimit="10" stroke-width=".352778"/><path clip-path="url(#f)" d="m0 0c-.423-.423-1.109-.423-1.532 0s-.423 1.109 0 1.532 1.109.423 1.532 0 .423-1.109 0-1.532z" transform="matrix(0 -.51095647 -.50444971 0 201.6512 10.287692)"/><path clip-path="url(#g)" d="m0 0c-.423-.423-1.109-.423-1.532 0s-.423 1.109 0 1.532 1.109.423 1.532 0 .423-1.109 0-1.532z" transform="matrix(0 -.51095647 -.50444971 0 197.40851 10.287719)"/><path clip-path="url(#h)" d="m0 0c-.423-.423-1.109-.423-1.532 0s-.423 1.109 0 1.532 1.109.423 1.532 0 .423-1.109 0-1.532z" transform="matrix(-.51095647 0 0 .50444971 198.75204 8.171396)"/><path clip-path="url(#i)" d="m0 0c-.423-.423-1.109-.423-1.532 0s-.423 1.109 0 1.532 1.109.423 1.532 0 .423-1.109 0-1.532z" transform="matrix(-.51095647 0 0 .50444971 198.75203 12.414016)"/></g></g></svg>