<?xml version="1.0" encoding="UTF-8" standalone="no"?>
<!-- Created with Inkscape (http://www.inkscape.org/) -->

<svg
   width="26mm"
   height="30mm"
   viewBox="0 0 26 30"
   version="1.1"
   id="svg1"
   xmlns:xlink="http://www.w3.org/1999/xlink"
   xmlns="http://www.w3.org/2000/svg"
   xmlns:svg="http://www.w3.org/2000/svg">
  <defs
     id="defs1">
    <linearGradient
       id="linearGradient22">
      <stop
         style="stop-color:#ffdba6;stop-opacity:1;"
         offset="0"
         id="stop21" />
      <stop
         style="stop-color:#f2c478;stop-opacity:1;"
         offset="1"
         id="stop22" />
    </linearGradient>
    <clipPath
       clipPathUnits="userSpaceOnUse"
       id="clipPath1360-9-0-1-3">
      <path
         d="M 0,2834.646 H 2834.646 V 0 H 0 Z"
         transform="translate(-531.98141,-1475.1781)"
         id="path1360-2-7-7-6" />
    </clipPath>
    <clipPath
       clipPathUnits="userSpaceOnUse"
       id="clipPath2004-1-8-2-55-5-4-2-28-4-2-8-8-0">
      <path
         d="M 0,2834.646 H 2834.646 V 0 H 0 Z"
         transform="translate(-1148.7975,-1175.6119)"
         id="path2004-0-0-7-1-8-7-0-6-1-8-7-4-0" />
    </clipPath>
    <linearGradient
       xlink:href="#linearGradient22"
       id="linearGradient14"
       gradientUnits="userSpaceOnUse"
       gradientTransform="translate(-1139.5309,-722.83954)"
       x1="167.45578"
       y1="740.27698"
       x2="167.41826"
       y2="655.23761" />
  </defs>
  <g
     id="layer1"
     transform="translate(-324)">
    <g
       id="path86"
       clip-path="url(#clipPath1360-9-0-1-3)"
       transform="matrix(-0.35277776,0,0,0.35277776,329.32884,25.410075)">
      <path
         style="color:#000000;fill:url(#linearGradient14);stroke-miterlimit:10;-inkscape-stroke:none"
         d="m 0,0 -21.223,7.255 c -0.337,0.115 -0.707,0.115 -1.044,0 L -43.49,0 c -0.512,-0.175 -0.879,-0.592 -0.956,-1.088 L -54.328,-64.8 c -0.128,-0.823 0.569,-1.559 1.477,-1.559 h 31.106 31.106 c 0.907,0 1.605,0.736 1.477,1.559 L 0.955,-1.088 C 0.879,-0.592 0.512,-0.175 0,0"
         id="path135" />
      <path
         style="color:#000000;fill:#4d3608;stroke-miterlimit:10;-inkscape-stroke:none"
         d="m -52.851562,-67.208984 c -1.367537,0 -2.528283,1.176762 -2.316407,2.539062 l 9.88086,63.71289075 c 0.128752,0.82936477 0.735951,1.49322613 1.521484,1.76171875 l 21.224609,7.2558594 c 0.517057,0.1764437 1.07474,0.1764437 1.591797,0 h 0.002 L 0.27539063,0.8046875 C 1.060348,0.53639151 1.6670432,-0.12728558 1.7949219,-0.95703125 v -0.001953 L 11.677734,-64.669922 c 0.21198,-1.362964 -0.949363,-2.539062 -2.3164059,-2.539062 H -21.744141 Z m 0,1.701172 h 31.107421 31.1054691 c 0.4469549,0 0.6807389,0.293137 0.6367188,0.576171 v 0.002 L 0.11523437,-1.2167969 c -0.02473099,0.1614023 -0.15215872,0.33060237 -0.390625,0.4121094 L -21.498047,6.4511719 v -0.00195 c -0.156942,0.053556 -0.337198,0.053556 -0.49414,0 v 0.00195 l -21.222657,-7.2558594 c -0.238466,-0.081507 -0.365377,-0.2514283 -0.390625,-0.4140625 l -9.882812,-63.710937 v -0.002 c -0.04412,-0.283698 0.188257,-0.576171 0.636719,-0.576171 z"
         id="path136" />
    </g>
    <path
       style="fill:#ff0000;stroke-width:0.352777"
       d="m -393.28643,-17.606879 v -1.976295 h 0.63012 v 1.976295 h 1.37482 q 0,0.716049 0.0286,1.117036 l 0.74469,-0.687407 0.45827,0.42963 -0.60148,0.515555 0.74469,0.286419 -0.28642,0.544197 q -0.0573,-0.02864 -0.37234,-0.143209 -0.28642,-0.14321 -0.57284,-0.257778 0.22913,0.544197 0.51555,0.859259 0.22914,0.229135 0.31506,0.229135 0.0286,0 0.0859,-0.05728 0.0859,-0.143209 0.17185,-0.486913 0.14321,0.114568 0.5442,0.343704 -0.14321,0.515555 -0.31506,0.658765 -0.17185,0.171851 -0.37235,0.171851 -0.31506,0 -0.77333,-0.315061 -0.40099,-0.28642 -0.63012,-0.859259 -0.25778,-0.630123 -0.28642,-1.747159 h -0.77334 v 2.950121 h -0.63012 v -2.950121 h -0.97382 q -0.0573,0.887901 -0.14321,1.202962 -0.14321,0.458271 -0.28642,0.716049 -0.34371,0.458271 -0.37235,0.515555 -0.0573,0.08593 -0.60148,0.544197 -0.28642,-0.400987 -0.45827,-0.544197 0.48691,-0.372345 0.68741,-0.630123 0.25777,-0.372345 0.37234,-0.716049 0.11457,-0.372345 0.17185,-1.088394 h -1.11703 v -0.601481 h 1.11703 v -0.916542 q -0.17185,0.05728 -0.97382,0.257777 -0.17186,-0.400987 -0.28642,-0.601481 0.60148,-0.08593 0.94518,-0.171851 0.28642,-0.08593 1.31753,-0.42963 l 0.31506,0.515555 q -0.3437,0.14321 -0.65876,0.257778 v 1.088394 z m 1.4321,-2.148146 h -3.98123 v -0.601481 h 4.58271 q -0.0286,0.257777 0.0286,0.859258 0.17185,-0.200493 0.37235,-0.400987 0.20049,-0.229136 0.40098,-0.429629 l 0.45828,0.458271 q -0.2005,0.171852 -0.40099,0.343703 -0.17185,0.14321 -0.3437,0.28642 0.0859,0.02864 0.28641,0.114568 0.22914,0.05728 0.60149,0.171851 l -0.25778,0.515556 -1.00247,-0.372346 q 0.22914,0.429629 0.57284,0.773333 0.20049,0.200494 0.3437,0.200494 0.0286,0 0.0859,-0.05728 0,0 0.14321,-0.400988 0.20049,0.200494 0.57284,0.343704 -0.22914,0.544197 -0.31506,0.630123 -0.14321,0.143209 -0.28642,0.143209 -0.31507,0 -0.80198,-0.315061 -0.51555,-0.315062 -0.71605,-0.773333 -0.25777,-0.458271 -0.3437,-1.489381 z m 3.06469,3.37975 0.5442,-0.171852 q 0.31506,0.773333 0.3437,1.031111 l -0.51556,0.229135 q -0.11456,-0.458271 -0.37234,-1.088394 z m 2.23407,-0.200494 0.5442,0.229136 -0.45827,0.973826 q -0.11457,-0.02864 -0.22914,-0.114567 -0.0573,-0.02864 -0.11457,-0.05728 -0.0573,-0.02864 -0.14321,-0.02864 0.0859,-0.200494 0.17185,-0.42963 0.11457,-0.229135 0.22914,-0.572839 z m 3.26518,-1.317529 v -0.658765 h -1.68987 v 0.658765 z m 0,-1.202962 v -0.658765 h -1.68987 v 0.658765 z m -2.34864,4.324934 v -5.58518 h 2.97877 v 3.064689 h -1.05976 q 0.0573,0.544197 0.0573,0.572839 0.0286,0.114567 0.0859,0.400987 l 1.00247,-0.744691 0.40099,0.572839 q -0.3437,0.200494 -1.17432,0.744691 0.11457,0.28642 0.28642,0.486913 0.22913,0.28642 0.3437,0.400988 0.11457,0.05728 0.22914,0.143209 0.11457,0.05728 0.37234,0.229136 -0.17185,0.171852 -0.25777,0.229136 -0.0573,0.05728 -0.11457,0.114567 -0.0286,0.02864 -0.0859,0.08593 -0.0286,0.05728 -0.0859,0.114568 -0.63013,-0.486913 -0.85926,-0.801975 -0.37235,-0.429629 -0.5442,-0.945184 -0.25778,-0.744691 -0.28642,-1.603949 h -0.63012 v 2.34864 q 0.25778,-0.08593 0.48691,-0.14321 0.22914,-0.05728 0.45827,-0.114568 l 0.0286,0.630123 q -1.7758,0.515555 -1.97629,0.572839 l -0.17185,-0.658765 z m -1.89037,-5.928884 0.60148,0.315062 -0.0859,0.14321 0.51555,0.400987 q 0.0573,0.02864 0.2005,0.171852 l 0.42963,0.343703 -0.45827,0.544197 q -0.74469,-0.687407 -0.74469,-0.687407 -0.0859,-0.08593 -0.17186,-0.14321 -0.0573,-0.05728 -0.11456,-0.08592 -0.48692,0.773332 -0.80198,1.088394 h 1.80444 v 0.544197 h -0.71604 v 0.601481 h 0.8879 v 0.544197 h -0.8879 v 1.833085 q 0.57283,-0.114568 0.85925,-0.200494 v 0.601481 q -0.60148,0.171852 -1.37481,0.343704 l -1.08839,0.257777 -0.17186,-0.687407 1.17432,-0.171851 v -1.976295 h -1.00246 v -0.544197 h 1.00246 v -0.601481 h -0.57283 v -0.429629 l -0.34371,0.372345 q -0.22913,-0.400987 -0.37234,-0.601481 0.80197,-0.801975 1.43209,-1.976295 z"
       id="text86"
       transform="scale(-0.86602543,-1.1547005)"
       aria-label="飛銀" />
    <path
       id="path87"
       d="m 0,0 c -0.423,-0.423 -1.109,-0.423 -1.532,0 -0.423,0.423 -0.423,1.109 0,1.532 0.423,0.423 1.109,0.423 1.532,0 C 0.423,1.109 0.423,0.423 0,0 Z"
       style="fill:#ff0000;fill-opacity:1;stroke:none;stroke-width:0.88636;stroke-linecap:butt;stroke-linejoin:miter;stroke-miterlimit:10;stroke-dasharray:none;stroke-opacity:1"
       transform="matrix(-0.36130079,0.36130079,0.35669982,0.35669982,339.69912,11.453341)"
       clip-path="url(#clipPath2004-1-8-2-55-5-4-2-28-4-2-8-8-0)" />
    <path
       style="color:#000000;fill:#ff0000;stroke-miterlimit:10;-inkscape-stroke:none"
       d="M -0.63867187,-1.4179687 V 25.109375 H 0.63867187 V -1.4179687 Z"
       id="path88"
       transform="matrix(-0.35277776,0,0,0.35277776,337.29901,4.3203788)" />
    <path
       style="color:#000000;fill:#ff0000;stroke-miterlimit:10;-inkscape-stroke:none"
       d="M -25.111328,-0.63867187 V 0.63867187 H 1.4160156 v -1.27734374 z"
       id="path89"
       transform="matrix(-0.35277776,0,0,0.35277776,333.11973,8.4996308)" />
    <path
       style="color:#000000;fill:#ff0000;stroke-miterlimit:10;-inkscape-stroke:none"
       d="M -0.28515625,-0.28515625 -3.2910156,2.7226563 -2.7226563,3.2910156 0.28515625,0.28515625 Z"
       id="path90"
       transform="matrix(0.39547498,0.39547498,0.3954795,-0.3954795,335.29905,9.6886688)" />
    <path
       style="color:#000000;fill:#ff0000;stroke-miterlimit:10;-inkscape-stroke:none"
       d="M -0.28515625,-0.28515625 -3.2910156,2.7226563 -2.7226563,3.2910156 0.28515625,0.28515625 Z"
       id="path91"
       transform="matrix(0.39547498,0.39547498,0.3954795,-0.3954795,339.29878,9.6886688)" />
    <path
       style="color:#000000;fill:#ff0000;stroke-miterlimit:10;-inkscape-stroke:none"
       d="M -0.28515625,-0.28515625 -3.2910156,2.7226563 -2.7226563,3.2910156 0.28515625,0.28515625 Z"
       id="path92"
       transform="matrix(-0.39547498,0.39547498,0.3954795,0.3954795,336.10997,6.4990868)" />
    <path
       style="color:#000000;fill:#ff0000;stroke-miterlimit:10;-inkscape-stroke:none"
       d="M 0.28515625,-0.28515625 -0.28515625,0.28515625 2.7226563,3.2910156 3.2910156,2.7226563 Z"
       id="path93"
       transform="matrix(-0.39547498,-0.39547498,-0.3954795,0.3954795,338.48815,10.499863)" />
    <path
       style="color:#000000;fill:#ff0000;stroke-miterlimit:10;-inkscape-stroke:none"
       d="M 0.40429688,-0.40429688 -0.40429688,0.40429688 2.1484375,2.9570313 4.7011719,0.40429688 3.890625,-0.40429688 2.1484375,1.3398437 Z"
       id="path94"
       transform="matrix(-0.39310378,0,0,0.39310397,338.14348,12.334436)" />
    <path
       style="color:#000000;fill:#ff0000;stroke-miterlimit:10;-inkscape-stroke:none"
       d="m -2.1484375,-2.9570313 -2.5527344,2.55273442 0.8105469,0.80859376 1.7421875,-1.74414058 1.74414062,1.74414058 0.80859376,-0.80859376 z"
       id="path95"
       transform="matrix(-0.39310378,0,0,0.39310397,336.45483,4.6645328)" />
    <path
       style="color:#000000;fill:#ff0000;stroke-miterlimit:10;-inkscape-stroke:none"
       d="M 0.40429688,-0.40429688 -0.40429688,0.40429688 2.1484375,2.9570313 4.7011719,0.40429688 3.890625,-0.40429688 2.1484375,1.3398437 Z"
       id="path96"
       transform="matrix(0,-0.39310378,-0.39310397,0,333.46414,9.3438108)" />
    <path
       style="color:#000000;fill:#ff0000;stroke-miterlimit:10;-inkscape-stroke:none"
       d="m -2.1484375,-2.9570313 -2.5527344,2.55273442 0.8105469,0.80859376 1.7421875,-1.74414058 1.74414062,1.74414058 0.80859376,-0.80859376 z"
       id="path97"
       transform="matrix(0,-0.39310378,-0.39310397,0,341.13417,7.6551598)" />
    <path
       id="path98"
       d="m 0,0 c -0.423,-0.423 -1.109,-0.423 -1.532,0 -0.423,0.423 -0.423,1.109 0,1.532 0.423,0.423 1.109,0.423 1.532,0 C 0.423,1.109 0.423,0.423 0,0 Z"
       style="fill:#ff0000;fill-opacity:1;stroke:none;stroke-width:0.88636;stroke-linecap:butt;stroke-linejoin:miter;stroke-miterlimit:10;stroke-dasharray:none;stroke-opacity:1"
       transform="matrix(-0.36130079,0.36130079,0.35669982,0.35669982,333.69911,11.453341)"
       clip-path="url(#clipPath2004-1-8-2-55-5-4-2-28-4-2-8-8-0)" />
    <path
       id="path99"
       d="m 0,0 c -0.423,-0.423 -1.109,-0.423 -1.532,0 -0.423,0.423 -0.423,1.109 0,1.532 0.423,0.423 1.109,0.423 1.532,0 C 0.423,1.109 0.423,0.423 0,0 Z"
       style="fill:#ff0000;fill-opacity:1;stroke:none;stroke-width:0.88636;stroke-linecap:butt;stroke-linejoin:miter;stroke-miterlimit:10;stroke-dasharray:none;stroke-opacity:1"
       transform="matrix(-0.36130079,0.36130079,0.35669982,0.35669982,339.69912,5.4533748)"
       clip-path="url(#clipPath2004-1-8-2-55-5-4-2-28-4-2-8-8-0)" />
    <path
       id="path100"
       d="m 0,0 c -0.423,-0.423 -1.109,-0.423 -1.532,0 -0.423,0.423 -0.423,1.109 0,1.532 0.423,0.423 1.109,0.423 1.532,0 C 0.423,1.109 0.423,0.423 0,0 Z"
       style="fill:#ff0000;fill-opacity:1;stroke:none;stroke-width:0.88636;stroke-linecap:butt;stroke-linejoin:miter;stroke-miterlimit:10;stroke-dasharray:none;stroke-opacity:1"
       transform="matrix(-0.36130079,0.36130079,0.35669982,0.35669982,333.69911,5.4533748)"
       clip-path="url(#clipPath2004-1-8-2-55-5-4-2-28-4-2-8-8-0)" />
  </g>
</svg>
