<svg height="31.358999mm" viewBox="0 0 27.117003 31.358999" width="27.117002mm" xmlns="http://www.w3.org/2000/svg" xmlns:xlink="http://www.w3.org/1999/xlink"><clipPath id="a"><path d="m0 2834.646h2834.646v-2834.646h-2834.646z" transform="translate(-461.11531 -1475.1781)"/></clipPath><clipPath id="b"><path d="m0 2834.646h2834.646v-2834.646h-2834.646z" transform="translate(-494.73181 -43.851026)"/></clipPath><clipPath id="c"><path d="m0 2834.646h2834.646v-2834.646h-2834.646z" transform="translate(-494.73181 -43.851026)"/></clipPath><clipPath id="d"><path d="m0 2834.646h2834.646v-2834.646h-2834.646z" transform="translate(-494.73181 -43.851026)"/></clipPath><clipPath id="e"><path d="m0 2834.646h2834.646v-2834.646h-2834.646z" transform="translate(-491.72521 -43.851026)"/></clipPath><clipPath id="f"><path d="m0 2834.646h2834.646v-2834.646h-2834.646z" transform="translate(-1148.7975 -1175.6119)"/></clipPath><clipPath id="g"><path d="m0 2834.646h2834.646v-2834.646h-2834.646z" transform="translate(-1148.7975 -1175.6119)"/></clipPath><clipPath id="h"><path d="m0 2834.646h2834.646v-2834.646h-2834.646z" transform="translate(-1148.7975 -1175.6119)"/></clipPath><clipPath id="i"><path d="m0 2834.646h2834.646v-2834.646h-2834.646z" transform="translate(-1148.7975 -1175.6119)"/></clipPath><linearGradient id="j" gradientTransform="matrix(-1 0 0 -1 -1897.75364 661.89728)" gradientUnits="userSpaceOnUse" x1="-1283.1606" x2="-1283.1606" y1="735.85059" y2="646.95892"><stop offset="0" stop-color="#f2c478"/><stop offset="1" stop-color="#ffdba6"/></linearGradient><g clip-path="url(#a)" stroke-miterlimit="10" transform="matrix(-.35277776 0 0 .35277776 5.887257 26.089084)"><path d="m0 0-21.223 7.255c-.337.115-.707.115-1.044 0l-21.223-7.255c-.512-.175-.879-.592-.956-1.088l-9.882-63.712c-.128-.823.569-1.559 1.477-1.559h31.106 31.106c.907 0 1.605.736 1.477 1.559l-9.883 63.712c-.076.496-.443.913-.955 1.088" fill="url(#j)"/><path d="m-52.851562-67.208984c-1.367537 0-2.528283 1.176762-2.316407 2.539062l9.88086 63.71289075c.128752.82936477.735951 1.49322613 1.521484 1.76171875l21.224609 7.2558594c.517057.1764437 1.07474.1764437 1.591797 0h.002l21.22260963-7.2558594c.78495737-.26829599 1.39165257-.93197308 1.51953127-1.76171875v-.001953l9.8828121-63.71093775c.21198-1.362964-.949363-2.539062-2.3164059-2.539062h-31.1054691zm0 1.701172h31.107421 31.1054691c.4469549 0 .6807389.293137.6367188.576171v.002l-9.88281253 63.7128441c-.02473099.1614023-.15215872.33060237-.390625.4121094l-21.22265637 7.2558594v-.00195c-.156942.053556-.337198.053556-.49414 0v.00195l-21.222657-7.2558594c-.238466-.081507-.365377-.2514283-.390625-.4140625l-9.882812-63.710937v-.002c-.04412-.283698.188257-.576171.636719-.576171z" fill="#4d3608"/></g><g fill="#f00"><g clip-path="url(#b)" stroke-miterlimit="10" transform="matrix(0 .55928609 .55929249 0 8.828517 7.630667)"><path d="m0 0-3.007 3.007"/><path d="m-.28515625-.28515625-3.00585935 3.00781255.5683593.5683593 3.00781255-3.00585935z"/></g><g clip-path="url(#c)" stroke-miterlimit="10" transform="matrix(0 .55928609 .55929249 0 16.606657 15.408809)"><path d="m0 0-3.007 3.007"/><path d="m-.28515625-.28515625-3.00585935 3.00781255.5683593.5683593 3.00781255-3.00585935z"/></g><g clip-path="url(#d)" stroke-miterlimit="10" transform="matrix(-.55928609 0 0 .55929249 16.606947 5.948597)"><path d="m0 0-3.007 3.007"/><path d="m-.28515625-.28515625-3.00585935 3.00781255.5683593.5683593 3.00781255-3.00585935z"/></g><g clip-path="url(#e)" stroke-miterlimit="10" transform="matrix(0 -.55928609 -.55929249 0 10.509867 15.408941)"><path d="m0 0 3.007 3.007"/><path d="m.28515625-.28515625-.5703125.5703125 3.00781255 3.00585935.5683593-.5683593z"/></g><path d="m16.899797 7.6559455-6.36393 6.3639375-.31864-.318635 6.36394-6.3639379z" stroke-miterlimit="10" stroke-width=".352778"/><path d="m17.740757 13.179502-1.68224 1.681135-.31788-.317876 1.68115-1.682227z" stroke-miterlimit="10" stroke-width=".559289"/><path d="m9.6951768 8.4971724-.31897-.3189715 1.6822302-1.6811545.31788.3178791z" stroke-miterlimit="10" stroke-width=".559289"/><path d="m16.059067 6.4964829 1.68114 1.682247-.31788.3178791-1.68223-1.6811546z" stroke-miterlimit="10" stroke-width=".559289"/><path d="m11.376737 14.542093-.31897.318968-1.6811502-1.682228.31788-.317876z" stroke-miterlimit="10" stroke-width=".559289"/><path d="m16.899757 13.701709-.31864.318636-6.36393-6.3639383.31863-.3186354z" stroke-miterlimit="10" stroke-width=".352778"/><path clip-path="url(#f)" d="m0 0c-.423-.423-1.109-.423-1.532 0s-.423 1.109 0 1.532 1.109.423 1.532 0 .423-1.109 0-1.532z" transform="matrix(0 -.51095647 -.50444971 0 16.066247 10.287428)"/><path clip-path="url(#g)" d="m0 0c-.423-.423-1.109-.423-1.532 0s-.423 1.109 0 1.532 1.109.423 1.532 0 .423-1.109 0-1.532z" transform="matrix(0 -.51095647 -.50444971 0 11.823577 10.287454)"/><path clip-path="url(#h)" d="m0 0c-.423-.423-1.109-.423-1.532 0s-.423 1.109 0 1.532 1.109.423 1.532 0 .423-1.109 0-1.532z" transform="matrix(-.51095647 0 0 .50444971 13.167107 8.171132)"/><path clip-path="url(#i)" d="m0 0c-.423-.423-1.109-.423-1.532 0s-.423 1.109 0 1.532 1.109.423 1.532 0 .423-1.109 0-1.532z" transform="matrix(-.51095647 0 0 .50444971 13.167107 12.413752)"/><path d="m16.993237 20.959884v2.282028h-.5457v-2.282028h-1.19063q0-.826822-.0248-1.289843l-.64492.793749-.39688-.496093.5209-.595311-.64492-.330729.24805-.628385q.0496.03307.32245.165365.24805.165364.4961.297655-.19844-.628385-.44648-.992186-.19844-.264583-.27286-.264583-.0248 0-.0744.06614-.0744.165365-.14883.562239-.12402-.132292-.47129-.396874.12402-.595312.27285-.760677.14883-.198437.32246-.198437.27285 0 .66973.363802.34726.330728.5457.992186.22324.727603.24804 2.017446h.66973v-3.406507h.54571v3.406511h.84335q.0496-1.025259.12402-1.389061.12403-.529166.24805-.826821.29766-.529167.32246-.595313.0496-.09921.5209-.628384.24805.463021.39687.628384-.42167.429948-.59531.727603-.22324.429949-.32246.826823-.0992.429948-.14882 1.256769h.96737v.694531h-.96737v1.058332q.14882-.06615.84335-.297656.14884.46302.24805.69453-.5209.09922-.81855.198437-.24805.09922-1.14102.496093l-.27285-.595311q.29766-.165365.57051-.297656v-1.256769zm-1.24023 2.480465h3.44785v.694531h-3.96875q.0248-.297656-.0248-.992187-.14882.231511-.32246.463021-.17363.264583-.34727.496093l-.39687-.529166q.17364-.198437.34727-.396875.14882-.165364.29765-.330729-.0744-.03307-.24805-.132291-.19843-.06615-.5209-.198437l.22321-.595312.86817.429947q-.19844-.496093-.4961-.892967-.17363-.23151-.29765-.23151-.0248 0-.0744.06614 0 0-.12402.463021-.17363-.23151-.4961-.396875.19844-.628384.27285-.727603.12403-.165364.24805-.165364.27285 0 .69453.363801.44648.363802.62012.892968.22324.529166.29765 1.719789zm-4.53926-3.737235-.42167-.231509.37207-1.190625q.0744.09922.39687.264584zm1.11622-1.223696.49609-.198438q.22324.892968.29765 1.223696l-.47128.231511q-.0496-.165365-.32246-1.256769zm-3.3486302 1.124477v1.190624h.44648v-1.190624zm.91777-1.15755v2.976559h-1.38906v-2.745049h.47129v.23151h.44648v-.46302zm.0744 3.737235v.595312h-1.5875v-.595312zm.7193302-5.225515v7.176815h-3.0509702v-6.217701q0-.562238.17364-.69453.19843-.264584.76894-.363802.0496.429948.0744.562238.0248.132292.14883.33073h-.5457q-.0496 0-.0744.03307v.06614 5.589316h1.9843702v-6.482284zm1.90996 5.126296h-1.43867v-.628384h.47129v-.661458h-.66973v-.628384h.66973v-2.18281q-.44649.09922-.66973.165364v-.694531l.54571-.165363 1.53789-.429948.0992.826822q-.24805.03307-.54571.06614-.29765.06614-.39687.06614v2.348184h.84336v.628384h-.84336v.661458h.44648v.562239l.24805-.396875q.14883.330729.37207.628385-.42168.595311-.74414 1.190623-.0992.165365-.49609 1.091405l-.47129-.396874.0744-.198438q-.17364-.132291-.89297-.92604l.39687-.595312q.19844.264583.79375.926041.44648-.859895.66972-1.25677z" stroke-width=".352777"/></g></svg>