<?xml version="1.0" encoding="UTF-8" standalone="no"?>
<!-- Created with Inkscape (http://www.inkscape.org/) -->

<svg
   width="26mm"
   height="30mm"
   viewBox="0 0 26 30"
   version="1.1"
   id="svg1"
   xmlns:xlink="http://www.w3.org/1999/xlink"
   xmlns="http://www.w3.org/2000/svg"
   xmlns:svg="http://www.w3.org/2000/svg">
  <defs
     id="defs1">
    <linearGradient
       id="linearGradient22">
      <stop
         style="stop-color:#ffdba6;stop-opacity:1;"
         offset="0"
         id="stop21" />
      <stop
         style="stop-color:#f2c478;stop-opacity:1;"
         offset="1"
         id="stop22" />
    </linearGradient>
    <clipPath
       clipPathUnits="userSpaceOnUse"
       id="clipPath1360-9-0-1">
      <path
         d="M 0,2834.646 H 2834.646 V 0 H 0 Z"
         transform="translate(-531.98141,-1475.1781)"
         id="path1360-2-7-7" />
    </clipPath>
    <clipPath
       clipPathUnits="userSpaceOnUse"
       id="clipPath2004-1-8-2-55-5-4-2-28-4-2-8-8-3">
      <path
         d="M 0,2834.646 H 2834.646 V 0 H 0 Z"
         transform="translate(-1148.7975,-1175.6119)"
         id="path2004-0-0-7-1-8-7-0-6-1-8-7-4-3" />
    </clipPath>
    <linearGradient
       xlink:href="#linearGradient22"
       id="linearGradient10"
       gradientUnits="userSpaceOnUse"
       gradientTransform="translate(-731.342,-722.83954)"
       x1="167.45578"
       y1="740.27698"
       x2="167.41826"
       y2="655.23761" />
  </defs>
  <g
     id="layer1"
     transform="translate(-180)">
    <g
       id="path60"
       clip-path="url(#clipPath1360-9-0-1)"
       transform="matrix(-0.35277776,0,0,0.35277776,185.32884,25.410075)">
      <path
         style="color:#000000;fill:url(#linearGradient10);stroke-miterlimit:10;-inkscape-stroke:none"
         d="m 0,0 -21.223,7.255 c -0.337,0.115 -0.707,0.115 -1.044,0 L -43.49,0 c -0.512,-0.175 -0.879,-0.592 -0.956,-1.088 L -54.328,-64.8 c -0.128,-0.823 0.569,-1.559 1.477,-1.559 h 31.106 31.106 c 0.907,0 1.605,0.736 1.477,1.559 L 0.955,-1.088 C 0.879,-0.592 0.512,-0.175 0,0"
         id="path143" />
      <path
         style="color:#000000;fill:#4d3608;stroke-miterlimit:10;-inkscape-stroke:none"
         d="m -52.851562,-67.208984 c -1.367537,0 -2.528283,1.176762 -2.316407,2.539062 l 9.88086,63.71289075 c 0.128752,0.82936477 0.735951,1.49322613 1.521484,1.76171875 l 21.224609,7.2558594 c 0.517057,0.1764437 1.07474,0.1764437 1.591797,0 h 0.002 L 0.27539063,0.8046875 C 1.060348,0.53639151 1.6670432,-0.12728558 1.7949219,-0.95703125 v -0.001953 L 11.677734,-64.669922 c 0.21198,-1.362964 -0.949363,-2.539062 -2.3164059,-2.539062 H -21.744141 Z m 0,1.701172 h 31.107421 31.1054691 c 0.4469549,0 0.6807389,0.293137 0.6367188,0.576171 v 0.002 L 0.11523437,-1.2167969 c -0.02473099,0.1614023 -0.15215872,0.33060237 -0.390625,0.4121094 L -21.498047,6.4511719 v -0.00195 c -0.156942,0.053556 -0.337198,0.053556 -0.49414,0 v 0.00195 l -21.222657,-7.2558594 c -0.238466,-0.081507 -0.365377,-0.2514283 -0.390625,-0.4140625 l -9.882812,-63.710937 v -0.002 c -0.04412,-0.283698 0.188257,-0.576171 0.636719,-0.576171 z"
         id="path144" />
    </g>
    <path
       style="fill:#ff0000;stroke-width:0.352777"
       d="m -227.03812,-17.520798 v -1.976295 h 0.63012 v 1.976295 h 1.37481 q 0,0.716048 0.0286,1.117036 l 0.74469,-0.687407 0.45827,0.429629 -0.60148,0.515555 0.74469,0.28642 -0.28642,0.544197 q -0.0573,-0.02864 -0.37235,-0.14321 -0.28642,-0.14321 -0.57284,-0.257777 0.22914,0.544197 0.51556,0.859258 0.22914,0.229136 0.31506,0.229136 0.0286,0 0.0859,-0.05728 0.0859,-0.14321 0.17185,-0.486913 0.14321,0.114568 0.5442,0.343703 -0.14321,0.515555 -0.31507,0.658765 -0.17185,0.171852 -0.37234,0.171852 -0.31506,0 -0.77333,-0.315062 -0.40099,-0.286419 -0.63013,-0.859258 -0.25777,-0.630123 -0.28642,-1.747159 h -0.77333 v 2.950121 h -0.63012 v -2.950121 h -0.97383 q -0.0573,0.8879 -0.14321,1.202962 -0.14321,0.458271 -0.28642,0.716048 -0.3437,0.458272 -0.37234,0.515556 -0.0573,0.08592 -0.60148,0.544197 -0.28642,-0.400988 -0.45828,-0.544197 0.48692,-0.372346 0.68741,-0.630123 0.25778,-0.372346 0.37235,-0.716049 0.11456,-0.372346 0.17185,-1.088394 h -1.11704 v -0.601481 h 1.11704 v -0.916543 q -0.17185,0.05728 -0.97383,0.257778 -0.17185,-0.400988 -0.28642,-0.601481 0.60148,-0.08593 0.94519,-0.171852 0.28642,-0.08593 1.31753,-0.429629 l 0.31506,0.515555 q -0.34371,0.14321 -0.65877,0.257777 v 1.088395 z m 1.4321,-2.148147 h -3.98124 v -0.601481 h 4.58272 q -0.0286,0.257778 0.0286,0.859259 0.17185,-0.200494 0.37234,-0.400988 0.2005,-0.229135 0.40099,-0.429629 l 0.45827,0.458271 q -0.20049,0.171852 -0.40098,0.343704 -0.17186,0.14321 -0.34371,0.286419 0.0859,0.02864 0.28642,0.114568 0.22914,0.05728 0.60148,0.171852 l -0.25778,0.515555 -1.00246,-0.372345 q 0.22913,0.429629 0.57284,0.773332 0.20049,0.200494 0.3437,0.200494 0.0286,0 0.0859,-0.05728 0,0 0.14321,-0.400987 0.2005,0.200493 0.57284,0.343703 -0.22913,0.544197 -0.31506,0.630123 -0.14321,0.14321 -0.28642,0.14321 -0.31506,0 -0.80197,-0.315062 -0.51556,-0.315061 -0.71605,-0.773332 -0.25778,-0.458271 -0.3437,-1.489382 z m 4.09579,3.80938 0.5442,-0.315062 q 0.14321,0.171852 0.63012,0.973827 l -0.60148,0.286419 q -0.22913,-0.515555 -0.57284,-0.945184 z m 2.17679,-3.866664 q -0.51555,0.572839 -0.54419,0.601481 0,0 -0.91655,0.859259 h 3.00741 q -0.74469,-0.630123 -0.85926,-0.744691 -0.0286,-0.02864 -0.68741,-0.716049 z m -0.14321,-0.973826 0.68741,0.343703 -0.11457,0.14321 q 0.65877,0.773333 1.34617,1.231604 0.83062,0.658765 1.74716,1.088394 -0.40098,0.515555 -0.45827,0.630123 -0.5442,-0.286419 -1.11703,-0.716049 v 0.315062 h -1.60395 v 0.716049 h 2.57777 v 0.544197 h -2.57777 v 1.661233 h 1.2316 q -0.20049,-0.14321 -0.48691,-0.315061 0.28642,-0.458272 0.57284,-1.17432 l 0.65876,0.343703 q -0.40099,0.773333 -0.65876,1.145678 h 1.5753 v 0.601481 h -6.32987 v -0.601481 h 2.74963 v -1.661233 h -2.40592 v -0.544197 h 2.40592 v -0.716049 h -1.4321 v -0.343704 q -0.45827,0.400988 -1.11703,0.830617 -0.0573,-0.114568 -0.11457,-0.171852 -0.0286,-0.08592 -0.0286,-0.08592 0,-0.02864 -0.11457,-0.14321 -0.0859,-0.14321 -0.17185,-0.229136 1.74716,-1.002468 3.17925,-2.892837 z"
       id="text60"
       transform="scale(-0.86602543,-1.1547005)"
       aria-label="飛金" />
    <path
       id="path61"
       d="m 0,0 c -0.423,-0.423 -1.109,-0.423 -1.532,0 -0.423,0.423 -0.423,1.109 0,1.532 0.423,0.423 1.109,0.423 1.532,0 C 0.423,1.109 0.423,0.423 0,0 Z"
       style="fill:#ff0000;fill-opacity:1;stroke:none;stroke-width:0.88636;stroke-linecap:butt;stroke-linejoin:miter;stroke-miterlimit:10;stroke-dasharray:none;stroke-opacity:1"
       transform="matrix(-0.36130079,0.36130079,0.35669982,0.35669982,195.69868,11.452995)"
       clip-path="url(#clipPath2004-1-8-2-55-5-4-2-28-4-2-8-8-3)" />
    <path
       style="color:#000000;fill:#ff0000;stroke-miterlimit:10;-inkscape-stroke:none"
       d="M -0.63867187,-1.4179687 V 25.109375 H 0.63867187 V -1.4179687 Z"
       id="path62"
       transform="matrix(-0.35277776,0,0,0.35277776,193.29857,4.3200318)" />
    <path
       style="color:#000000;fill:#ff0000;stroke-miterlimit:10;-inkscape-stroke:none"
       d="M -25.111328,-0.63867187 V 0.63867187 H 1.4160156 v -1.27734374 z"
       id="path63"
       transform="matrix(-0.35277776,0,0,0.35277776,189.11929,8.4992838)" />
    <path
       style="color:#000000;fill:#ff0000;stroke-miterlimit:10;-inkscape-stroke:none"
       d="M -0.28515625,-0.28515625 -3.2910156,2.7226563 -2.7226563,3.2910156 0.28515625,0.28515625 Z"
       id="path64"
       transform="matrix(0.39547498,0.39547498,0.3954795,-0.3954795,191.29861,9.6883218)" />
    <path
       style="color:#000000;fill:#ff0000;stroke-miterlimit:10;-inkscape-stroke:none"
       d="M -0.28515625,-0.28515625 -3.2910156,2.7226563 -2.7226563,3.2910156 0.28515625,0.28515625 Z"
       id="path65"
       transform="matrix(0.39547498,0.39547498,0.3954795,-0.3954795,195.29834,9.6883218)" />
    <path
       style="color:#000000;fill:#ff0000;stroke-miterlimit:10;-inkscape-stroke:none"
       d="M -0.28515625,-0.28515625 -3.2910156,2.7226563 -2.7226563,3.2910156 0.28515625,0.28515625 Z"
       id="path66"
       transform="matrix(-0.39547498,0.39547498,0.3954795,0.3954795,192.10953,6.4987408)" />
    <path
       style="color:#000000;fill:#ff0000;stroke-miterlimit:10;-inkscape-stroke:none"
       d="M 0.28515625,-0.28515625 -0.28515625,0.28515625 2.7226563,3.2910156 3.2910156,2.7226563 Z"
       id="path67"
       transform="matrix(-0.39547498,-0.39547498,-0.3954795,0.3954795,194.48771,10.499516)" />
    <path
       style="color:#000000;fill:#ff0000;stroke-miterlimit:10;-inkscape-stroke:none"
       d="M 0.40429688,-0.40429688 -0.40429688,0.40429688 2.1484375,2.9570313 4.7011719,0.40429688 3.890625,-0.40429688 2.1484375,1.3398437 Z"
       id="path68"
       transform="matrix(-0.39310378,0,0,0.39310397,194.14304,12.334089)" />
    <path
       style="color:#000000;fill:#ff0000;stroke-miterlimit:10;-inkscape-stroke:none"
       d="m -2.1484375,-2.9570313 -2.5527344,2.55273442 0.8105469,0.80859376 1.7421875,-1.74414058 1.74414062,1.74414058 0.80859376,-0.80859376 z"
       id="path69"
       transform="matrix(-0.39310378,0,0,0.39310397,192.45439,4.6641858)" />
    <path
       style="color:#000000;fill:#ff0000;stroke-miterlimit:10;-inkscape-stroke:none"
       d="M 0.40429688,-0.40429688 -0.40429688,0.40429688 2.1484375,2.9570313 4.7011719,0.40429688 3.890625,-0.40429688 2.1484375,1.3398437 Z"
       id="path70"
       transform="matrix(0,-0.39310378,-0.39310397,0,189.4637,9.3434638)" />
    <path
       style="color:#000000;fill:#ff0000;stroke-miterlimit:10;-inkscape-stroke:none"
       d="m -2.1484375,-2.9570313 -2.5527344,2.55273442 0.8105469,0.80859376 1.7421875,-1.74414058 1.74414062,1.74414058 0.80859376,-0.80859376 z"
       id="path71"
       transform="matrix(0,-0.39310378,-0.39310397,0,197.13373,7.6548138)" />
    <path
       id="path72"
       d="m 0,0 c -0.423,-0.423 -1.109,-0.423 -1.532,0 -0.423,0.423 -0.423,1.109 0,1.532 0.423,0.423 1.109,0.423 1.532,0 C 0.423,1.109 0.423,0.423 0,0 Z"
       style="fill:#ff0000;fill-opacity:1;stroke:none;stroke-width:0.88636;stroke-linecap:butt;stroke-linejoin:miter;stroke-miterlimit:10;stroke-dasharray:none;stroke-opacity:1"
       transform="matrix(-0.36130079,0.36130079,0.35669982,0.35669982,189.69867,11.452995)"
       clip-path="url(#clipPath2004-1-8-2-55-5-4-2-28-4-2-8-8-3)" />
    <path
       id="path73"
       d="m 0,0 c -0.423,-0.423 -1.109,-0.423 -1.532,0 -0.423,0.423 -0.423,1.109 0,1.532 0.423,0.423 1.109,0.423 1.532,0 C 0.423,1.109 0.423,0.423 0,0 Z"
       style="fill:#ff0000;fill-opacity:1;stroke:none;stroke-width:0.88636;stroke-linecap:butt;stroke-linejoin:miter;stroke-miterlimit:10;stroke-dasharray:none;stroke-opacity:1"
       transform="matrix(-0.36130079,0.36130079,0.35669982,0.35669982,195.69868,5.4530278)"
       clip-path="url(#clipPath2004-1-8-2-55-5-4-2-28-4-2-8-8-3)" />
    <path
       id="path74"
       d="m 0,0 c -0.423,-0.423 -1.109,-0.423 -1.532,0 -0.423,0.423 -0.423,1.109 0,1.532 0.423,0.423 1.109,0.423 1.532,0 C 0.423,1.109 0.423,0.423 0,0 Z"
       style="fill:#ff0000;fill-opacity:1;stroke:none;stroke-width:0.88636;stroke-linecap:butt;stroke-linejoin:miter;stroke-miterlimit:10;stroke-dasharray:none;stroke-opacity:1"
       transform="matrix(-0.36130079,0.36130079,0.35669982,0.35669982,189.69867,5.4530278)"
       clip-path="url(#clipPath2004-1-8-2-55-5-4-2-28-4-2-8-8-3)" />
  </g>
</svg>
