<svg height="31.358999mm" viewBox="0 0 27.117003 31.358999" width="27.117002mm" xmlns="http://www.w3.org/2000/svg" xmlns:xlink="http://www.w3.org/1999/xlink"><clipPath id="a"><path d="m0 2834.646h2834.646v-2834.646h-2834.646z" transform="translate(-461.11531 -1475.1781)"/></clipPath><clipPath id="b"><path d="m0 2834.646h2834.646v-2834.646h-2834.646z" transform="translate(-494.73181 -43.851026)"/></clipPath><clipPath id="c"><path d="m0 2834.646h2834.646v-2834.646h-2834.646z" transform="translate(-494.73181 -43.851026)"/></clipPath><clipPath id="d"><path d="m0 2834.646h2834.646v-2834.646h-2834.646z" transform="translate(-494.73181 -43.851026)"/></clipPath><clipPath id="e"><path d="m0 2834.646h2834.646v-2834.646h-2834.646z" transform="translate(-491.72521 -43.851026)"/></clipPath><clipPath id="f"><path d="m0 2834.646h2834.646v-2834.646h-2834.646z" transform="translate(-1148.7975 -1175.6119)"/></clipPath><clipPath id="g"><path d="m0 2834.646h2834.646v-2834.646h-2834.646z" transform="translate(-1148.7975 -1175.6119)"/></clipPath><clipPath id="h"><path d="m0 2834.646h2834.646v-2834.646h-2834.646z" transform="translate(-1148.7975 -1175.6119)"/></clipPath><clipPath id="i"><path d="m0 2834.646h2834.646v-2834.646h-2834.646z" transform="translate(-1148.7975 -1175.6119)"/></clipPath><linearGradient id="j" gradientTransform="matrix(-1 0 0 -1 61.911204 164.075146)" gradientUnits="userSpaceOnUse" x1="222.31836" x2="222.31836" y1="231.2834" y2="155.88185"><stop offset="0" stop-color="#f2c478"/><stop offset="1" stop-color="#ffdba6"/></linearGradient><g transform="translate(-37.117002)"><g clip-path="url(#a)" stroke-miterlimit="10" transform="matrix(-.35277776 0 0 .35277776 43.004308 26.089284)"><path d="m0 0-21.223 7.255c-.337.115-.707.115-1.044 0l-21.223-7.255c-.512-.175-.879-.592-.956-1.088l-9.882-63.712c-.128-.823.569-1.559 1.477-1.559h31.106 31.106c.907 0 1.605.736 1.477 1.559l-9.883 63.712c-.076.496-.443.913-.955 1.088" fill="url(#j)"/><path d="m-52.851562-67.208984c-1.367537 0-2.528283 1.176762-2.316407 2.539062l9.88086 63.71289075c.128752.82936477.735951 1.49322613 1.521484 1.76171875l21.224609 7.2558594c.517057.1764437 1.07474.1764437 1.591797 0h.002l21.22260963-7.2558594c.78495737-.26829599 1.39165257-.93197308 1.51953127-1.76171875v-.001953l9.8828121-63.71093775c.21198-1.362964-.949363-2.539062-2.3164059-2.539062h-31.1054691zm0 1.701172h31.107421 31.1054691c.4469549 0 .6807389.293137.6367188.576171v.002l-9.88281253 63.7128441c-.02473099.1614023-.15215872.33060237-.390625.4121094l-21.22265637 7.2558594v-.00195c-.156942.053556-.337198.053556-.49414 0v.00195l-21.222657-7.2558594c-.238466-.081507-.365377-.2514283-.390625-.4140625l-9.882812-63.710937v-.002c-.04412-.283698.188257-.576171.636719-.576171z" fill="#4d3608"/></g><g fill="#f00"><path d="m51.270776 23.191345v1.141014h-.727604v-1.141014l-1.587497-.000001q-.000001-.41341-.03308-.64492l-.859896.396874-.529166-.248047.694532-.297656-.859896-.165363.33073-.314193q.06614.01654.429946.08268.330729.08268.661459.148829-.264584-.314193-.595312-.496094-.264584-.132292-.363802-.132292-.03309-.000037-.09921.03311-.09922.08269-.198438.28112-.165364-.06614-.628385-.198438.165366-.297655.363802-.380338.198437-.09922.429948-.09922.363801.000001.892967.1819.46302.165364.727603.496094.297656.363802.330726 1.008723h.892966l.000001-1.703253h.727604v1.703253l1.124478.000001q.06614-.512631.165364-.694531.165364-.264583.330728-.413411.396875-.264584.429948-.297657.06614-.04961.69453-.314191.330729.23151.529166.314192-.562239.214973-.793748.363801-.297657.214974-.429949.413411-.132285.214974-.198436.628385h1.28985l-.000001.347266h-1.289841l-.000001.529166q.198439-.03307 1.124478-.148828.198437.23151.330729.347266-.694531.04961-1.091406.09922-.330728.04961-1.521351.248047l-.363807-.297692q.396875-.08269.760677-.148829v-.628385zm-1.653644 1.240232h4.597131l-.000001.347266h-5.291661q.03308-.148828-.03308-.496093-.198438.115754-.429948.231509-.23151.132287-.463021.248047l-.529167-.264582q.23151-.09922.46302-.19844.198438-.08268.396875-.165364-.09922-.01654-.33073-.06614-.264582-.03307-.69453-.09922l.297658-.297656 1.157548.214973q-.264582-.248046-.661457-.446484-.23151-.115755-.396873-.115755-.03309-.000037-.09921.03311 0 0-.165365.23151-.231509-.115756-.661457-.198437.264583-.314193.363802-.363802.165363-.08269.330719-.08272.363803.000001.926042.181901.595311.1819.826821.446483.297656.264584.396875.859895z" stroke-width=".352777"/><path d="m51.726572 18.564185-.585666-.120578.516764-.620117q.103346.05167.551214.137804zm1.550291-.637342.689017-.103352q.310058.465086.413411.637341l-.654569.120573q-.0689-.08613-.447861-.654567zm-4.650873.585665v.620116l.620116.000001v-.620116zm1.274683-.602891v1.550291l-1.92925.000001v-1.429713h.654568l-.000002.120578h.620116l.000003-.241158zm.103351 1.946477-.000001.310058h-2.204858l.000001-.310059zm.999077-2.721623v3.737924h-4.237462v-3.238384q0-.292833.241158-.361735.275605-.137808 1.067977-.18948.06891.223931.103353.292833.03445.0689.206706.172255h-.75792q-.0689.000002-.103351.01723l.000017.03445-.000001 2.911101h2.756072v-3.376189zm2.652719 2.669946h-1.998151l.000002-.327285.654567.000001.000005-.34451h-.930175l.000002-.327285h.930175v-1.13688q-.620117.05168-.930174.08613l-.000004-.361734.757919-.08613 2.135956-.223931.137803.430637q-.344509.01722-.757919.03445-.413411.03445-.551216.03445l.000001 1.223008h1.171331l-.000003.327285h-1.17133l-.000005.34451.620117-.000001.000001.292833.34451-.206706q.206704.172255.516763.327284-.585666.310059-1.033527.620117-.137801.08613-.689019.56844l-.654567-.206706.10335-.103351q-.241157-.0689-1.240232-.482312l.551214-.310059q.275607.137803 1.102429.482313.620117-.447862.930174-.654567z" stroke-width=".352777"/><g clip-path="url(#b)" stroke-miterlimit="10" transform="matrix(0 .55928609 .55929249 0 45.945577 7.630867)"><path d="m0 0-3.007 3.007"/><path d="m-.28515625-.28515625-3.00585935 3.00781255.5683593.5683593 3.00781255-3.00585935z"/></g><g clip-path="url(#c)" stroke-miterlimit="10" transform="matrix(0 .55928609 .55929249 0 53.723721 15.409008)"><path d="m0 0-3.007 3.007"/><path d="m-.28515625-.28515625-3.00585935 3.00781255.5683593.5683593 3.00781255-3.00585935z"/></g><g clip-path="url(#d)" stroke-miterlimit="10" transform="matrix(-.55928609 0 0 .55929249 53.723999 5.948805)"><path d="m0 0-3.007 3.007"/><path d="m-.28515625-.28515625-3.00585935 3.00781255.5683593.5683593 3.00781255-3.00585935z"/></g><g clip-path="url(#e)" stroke-miterlimit="10" transform="matrix(0 -.55928609 -.55929249 0 47.626939 15.40914)"><path d="m0 0 3.007 3.007"/><path d="m.28515625-.28515625-.5703125.5703125 3.00781255 3.00585935.5683593-.5683593z"/></g><path d="m54.016855 7.6561458-6.363937 6.3639382-.318636-.318636 6.363938-6.3639376z" stroke-miterlimit="10" stroke-width=".352778"/><path d="m54.857828 13.179702-1.682246 1.681135-.31788-.317875 1.681155-1.682229z" stroke-miterlimit="10" stroke-width=".559289"/><path d="m46.812236 8.4973728-.318967-.3189716 1.682227-1.6811546.317876.3178791z" stroke-miterlimit="10" stroke-width=".559289"/><path d="m53.17612 6.4966832 1.681135 1.682247-.317876.317879-1.682227-1.6811546z" stroke-miterlimit="10" stroke-width=".559289"/><path d="m48.493807 14.542292-.318972.318969-1.681154-1.682228.317879-.317876z" stroke-miterlimit="10" stroke-width=".559289"/><path d="m54.01682 13.701909-.318636.318636-6.363938-6.363938.318635-.3186354z" stroke-miterlimit="10" stroke-width=".352778"/><path clip-path="url(#f)" d="m0 0c-.423-.423-1.109-.423-1.532 0s-.423 1.109 0 1.532 1.109.423 1.532 0 .423-1.109 0-1.532z" transform="matrix(0 -.51095647 -.50444971 0 53.183313 10.287628)"/><path clip-path="url(#g)" d="m0 0c-.423-.423-1.109-.423-1.532 0s-.423 1.109 0 1.532 1.109.423 1.532 0 .423-1.109 0-1.532z" transform="matrix(0 -.51095647 -.50444971 0 48.940628 10.287654)"/><path clip-path="url(#h)" d="m0 0c-.423-.423-1.109-.423-1.532 0s-.423 1.109 0 1.532 1.109.423 1.532 0 .423-1.109 0-1.532z" transform="matrix(-.51095647 0 0 .50444971 50.284156 8.171332)"/><path clip-path="url(#i)" d="m0 0c-.423-.423-1.109-.423-1.532 0s-.423 1.109 0 1.532 1.109.423 1.532 0 .423-1.109 0-1.532z" transform="matrix(-.51095647 0 0 .50444971 50.284152 12.413951)"/></g></g></svg>