<?xml version="1.0" encoding="UTF-8" standalone="no"?>
<!-- Created with Inkscape (http://www.inkscape.org/) -->

<svg
   width="27.117002mm"
   height="31.358999mm"
   viewBox="0 0 27.117003 31.358999"
   version="1.1"
   id="svg1"
   xmlns:xlink="http://www.w3.org/1999/xlink"
   xmlns="http://www.w3.org/2000/svg"
   xmlns:svg="http://www.w3.org/2000/svg">
  <defs
     id="defs1">
    <linearGradient
       id="linearGradient48">
      <stop
         style="stop-color:#f2c478;stop-opacity:1;"
         offset="0"
         id="stop48" />
      <stop
         style="stop-color:#ffdba6;stop-opacity:1;"
         offset="1"
         id="stop47" />
    </linearGradient>
    <linearGradient
       xlink:href="#linearGradient48"
       id="linearGradient30"
       gradientUnits="userSpaceOnUse"
       gradientTransform="rotate(180,-278.64948,458.50774)"
       x1="234.38948"
       y1="984.22375"
       x2="234.38948"
       y2="908.8222" />
    <clipPath
       clipPathUnits="userSpaceOnUse"
       id="clipPath1360-9">
      <path
         d="M 0,2834.646 H 2834.646 V 0 H 0 Z"
         transform="translate(-531.98141,-1475.1781)"
         id="path1360-2" />
    </clipPath>
  </defs>
  <g
     id="layer1"
     transform="translate(-259.819)">
    <g
       id="path1359-6"
       clip-path="url(#clipPath1360-9)"
       transform="matrix(-0.35277776,0,0,0.35277776,265.70626,26.089084)">
      <path
         style="color:#000000;font-variation-settings:normal;opacity:1;vector-effect:none;fill:url(#linearGradient30);fill-opacity:1;stroke-width:1;stroke-linecap:butt;stroke-linejoin:miter;stroke-miterlimit:10;stroke-dasharray:none;stroke-dashoffset:0;stroke-opacity:1;-inkscape-stroke:none;stop-color:#000000;stop-opacity:1"
         d="m 0,0 -21.223,7.255 c -0.337,0.115 -0.707,0.115 -1.044,0 L -43.49,0 c -0.512,-0.175 -0.879,-0.592 -0.956,-1.088 L -54.328,-64.8 c -0.128,-0.823 0.569,-1.559 1.477,-1.559 h 31.106 31.106 c 0.907,0 1.605,0.736 1.477,1.559 L 0.955,-1.088 C 0.879,-0.592 0.512,-0.175 0,0"
         id="path39" />
      <path
         style="color:#000000;fill:#4d3608;stroke-miterlimit:10;-inkscape-stroke:none"
         d="m -52.851562,-67.208984 c -1.367537,0 -2.528283,1.176762 -2.316407,2.539062 l 9.88086,63.71289075 c 0.128752,0.82936477 0.735951,1.49322613 1.521484,1.76171875 l 21.224609,7.2558594 c 0.517057,0.1764437 1.07474,0.1764437 1.591797,0 h 0.002 L 0.27539063,0.8046875 C 1.060348,0.53639151 1.6670432,-0.12728558 1.7949219,-0.95703125 v -0.001953 L 11.677734,-64.669922 c 0.21198,-1.362964 -0.949363,-2.539062 -2.3164059,-2.539062 H -21.744141 Z m 0,1.701172 h 31.107421 31.1054691 c 0.4469549,0 0.6807389,0.293137 0.6367188,0.576171 v 0.002 L 0.11523437,-1.2167969 c -0.02473099,0.1614023 -0.15215872,0.33060237 -0.390625,0.4121094 L -21.498047,6.4511719 v -0.00195 c -0.156942,0.053556 -0.337198,0.053556 -0.49414,0 v 0.00195 l -21.222657,-7.2558594 c -0.238466,-0.081507 -0.365377,-0.2514283 -0.390625,-0.4140625 l -9.882812,-63.710937 v -0.002 c -0.04412,-0.283698 0.188257,-0.576171 0.636719,-0.576171 z"
         id="path40" />
    </g>
    <path
       style="fill:#ff0000;stroke-width:0.352777"
       d="m 273.36071,24.172024 q 1.25677,0 2.11666,-0.859896 0.8599,-0.859897 0.8599,-2.083595 0,-1.223698 -0.8599,-2.083594 -0.85989,-0.892969 -2.11666,-0.892969 -1.25677,0 -2.0836,0.892969 -0.85989,0.859896 -0.85989,2.083594 0,1.223698 0.85989,2.083595 0.8599,0.859896 2.0836,0.859896 z m 0,0.727604 q -1.48829,0 -2.61276,-1.058334 -1.09141,-1.091406 -1.09141,-2.645834 0,-1.554427 1.09141,-2.645834 1.0914,-1.091407 2.61276,-1.091407 1.55442,0 2.64583,1.091407 1.09141,1.091407 1.09141,2.645834 0,1.521355 -1.09141,2.612761 -1.09141,1.091407 -2.64583,1.091407 z"
       id="text1372-3"
       aria-label="〇" />
    <path
       style="color:#000000;fill:#ff0000;stroke-width:0.393104;stroke-miterlimit:10;-inkscape-stroke:none"
       d="m 274.0231,13.908687 0.39771,0.210372 c 0,0 -0.1184,0.22493 -0.29329,0.453758 -0.0874,0.114415 -0.18908,0.231847 -0.30865,0.328611 -0.11957,0.09676 -0.26241,0.181964 -0.44147,0.181964 -0.17906,0 -0.3219,-0.0852 -0.44148,-0.181964 -0.11957,-0.09676 -0.2212,-0.214196 -0.30864,-0.328611 -0.1749,-0.228828 -0.2933,-0.453758 -0.2933,-0.453758 l 0.39848,-0.210372 c 0,0 0.10481,0.197436 0.2526,0.3908 0.0739,0.09668 0.15811,0.190274 0.23417,0.251833 0.0761,0.06156 0.1382,0.08215 0.15817,0.08215 0.02,0 0.0821,-0.02059 0.15816,-0.08215 0.0761,-0.06156 0.16105,-0.15515 0.23494,-0.251833 0.14779,-0.193364 0.2526,-0.3908 0.2526,-0.3908 z"
       id="path4671-0-9" />
    <path
       style="color:#000000;fill:#ff0000;stroke-width:0.393104;stroke-miterlimit:10;-inkscape-stroke:none"
       d="m 273.37787,6.2744455 c 0.17906,0 0.3219,0.0852 0.44147,0.1819641 0.11957,0.096764 0.2212,0.2141961 0.30865,0.3286104 0.17489,0.2288286 0.29329,0.4537587 0.29329,0.4537587 l -0.39848,0.210372 c 0,0 -0.10481,-0.197436 -0.2526,-0.3908006 -0.0739,-0.096682 -0.1581,-0.1902739 -0.23417,-0.2518322 -0.0761,-0.061558 -0.1382,-0.082153 -0.15816,-0.082153 -0.02,0 -0.0821,0.020594 -0.15817,0.082153 -0.0761,0.061558 -0.16104,0.1551499 -0.23494,0.2518322 -0.14779,0.1933646 -0.2526,0.3908006 -0.2526,0.3908006 l -0.39771,-0.210372 c 0,0 0.1184,-0.2249301 0.29329,-0.4537587 0.0874,-0.1144143 0.18908,-0.2318462 0.30865,-0.3286104 0.11957,-0.096764 0.26241,-0.1819641 0.44148,-0.1819641 z"
       id="path4673-4-2" />
    <path
       style="color:#000000;fill:#ff0000;stroke-width:0.393104;stroke-miterlimit:10;-inkscape-stroke:none"
       d="m 276.81773,9.6357114 c 0,0 0.22493,0.1183992 0.45376,0.2932924 0.11442,0.087446 0.23185,0.1890762 0.32861,0.3086482 0.0968,0.119571 0.18197,0.262413 0.18197,0.441474 0,0.179061 -0.0852,0.321903 -0.18197,0.441474 -0.0968,0.119572 -0.21419,0.221202 -0.32861,0.308648 -0.22883,0.174893 -0.45376,0.293293 -0.45376,0.293293 l -0.21037,-0.398479 c 0,0 0.19744,-0.104812 0.3908,-0.2526 0.0967,-0.07389 0.19027,-0.158105 0.25183,-0.234173 0.0616,-0.07607 0.0822,-0.1382 0.0822,-0.158163 0,-0.01996 -0.0206,-0.0821 -0.0822,-0.158163 -0.0616,-0.07607 -0.15515,-0.161047 -0.25183,-0.234941 -0.19336,-0.147788 -0.3908,-0.2526 -0.3908,-0.2526 z"
       id="path4679-6-6" />
    <path
       style="color:#000000;fill:#ff0000;stroke-width:0.393104;stroke-miterlimit:10;-inkscape-stroke:none"
       d="m 269.93753,9.6352957 0.21037,0.3984783 c 0,0 -0.19743,0.104812 -0.3908,0.2526 -0.0967,0.07389 -0.19027,0.158106 -0.25183,0.234173 -0.0616,0.07607 -0.0822,0.138201 -0.0822,0.158163 0,0.01996 0.0206,0.0821 0.0822,0.158163 0.0616,0.07607 0.15515,0.161047 0.25183,0.234941 0.19337,0.147789 0.3908,0.2526 0.3908,0.2526 l -0.21037,0.397711 c 0,0 -0.22493,-0.118399 -0.45376,-0.293292 -0.11441,-0.08745 -0.23184,-0.189077 -0.32861,-0.308648 -0.0968,-0.119572 -0.18196,-0.262414 -0.18196,-0.441475 0,-0.179061 0.0852,-0.321902 0.18196,-0.441474 0.0968,-0.119572 0.2142,-0.221201 0.32861,-0.3086478 0.22883,-0.1748933 0.45376,-0.2932925 0.45376,-0.2932925 z"
       id="path4681-8-2" />
    <path
       style="color:#000000;fill:#ff0000;stroke-width:0.352778;stroke-miterlimit:10;-inkscape-stroke:none"
       d="m 271.76872,8.751589 3.53569,3.535683 -0.31864,0.318636 -3.53568,-3.5356836 z"
       id="path1411-6-7-7-3" />
    <path
       style="color:#000000;fill:#ff0000;stroke-width:0.352778;stroke-miterlimit:10;-inkscape-stroke:none"
       d="m 274.98581,8.7514536 0.31864,0.3186354 -3.53569,3.535683 -0.31863,-0.318635 z"
       id="path1413-7-2-7-4" />
    <path
       style="color:#000000;fill:#ff0000;stroke-width:0.352778;stroke-miterlimit:10;-inkscape-stroke:none"
       d="m 273.60258,8.1786457 v 5.0002113 h -0.45062 V 8.1786457 Z"
       id="path1411-6-7-7-5-6" />
    <path
       style="color:#000000;fill:#ff0000;stroke-width:0.352778;stroke-miterlimit:10;-inkscape-stroke:none"
       d="m 275.8775,10.453357 v 0.450619 h -5.00021 v -0.450619 z"
       id="path1413-7-2-7-8-8" />
  </g>
</svg>
