<?xml version="1.0" encoding="UTF-8" standalone="no"?>
<!-- Created with Inkscape (http://www.inkscape.org/) -->

<svg
   width="27.117002mm"
   height="31.358999mm"
   viewBox="0 0 27.117003 31.358999"
   version="1.1"
   id="svg1"
   xmlns:xlink="http://www.w3.org/1999/xlink"
   xmlns="http://www.w3.org/2000/svg"
   xmlns:svg="http://www.w3.org/2000/svg">
  <defs
     id="defs1">
    <linearGradient
       id="linearGradient48">
      <stop
         style="stop-color:#f2c478;stop-opacity:1;"
         offset="0"
         id="stop48" />
      <stop
         style="stop-color:#ffdba6;stop-opacity:1;"
         offset="1"
         id="stop47" />
    </linearGradient>
    <clipPath
       clipPathUnits="userSpaceOnUse"
       id="clipPath1360-9-0-1">
      <path
         d="M 0,2834.646 H 2834.646 V 0 H 0 Z"
         transform="translate(-531.98141,-1475.1781)"
         id="path1360-2-7-7" />
    </clipPath>
    <linearGradient
       xlink:href="#linearGradient48"
       id="linearGradient6"
       gradientUnits="userSpaceOnUse"
       gradientTransform="rotate(180,-173.43594,458.50774)"
       x1="234.38948"
       y1="984.22375"
       x2="234.38948"
       y2="908.8222" />
  </defs>
  <g
     id="layer1"
     transform="translate(-185.58501)">
    <g
       id="path1359-6-5-3"
       clip-path="url(#clipPath1360-9-0-1)"
       transform="matrix(-0.35277776,0,0,0.35277776,191.47227,26.089084)">
      <path
         style="color:#000000;font-variation-settings:normal;opacity:1;vector-effect:none;fill:url(#linearGradient6);fill-opacity:1;stroke-width:1;stroke-linecap:butt;stroke-linejoin:miter;stroke-miterlimit:10;stroke-dasharray:none;stroke-dashoffset:0;stroke-opacity:1;-inkscape-stroke:none;stop-color:#000000;stop-opacity:1"
         d="m 0,0 -21.223,7.255 c -0.337,0.115 -0.707,0.115 -1.044,0 L -43.49,0 c -0.512,-0.175 -0.879,-0.592 -0.956,-1.088 L -54.328,-64.8 c -0.128,-0.823 0.569,-1.559 1.477,-1.559 h 31.106 31.106 c 0.907,0 1.605,0.736 1.477,1.559 L 0.955,-1.088 C 0.879,-0.592 0.512,-0.175 0,0"
         id="path35" />
      <path
         style="color:#000000;fill:#4d3608;stroke-miterlimit:10;-inkscape-stroke:none"
         d="m -52.851562,-67.208984 c -1.367537,0 -2.528283,1.176762 -2.316407,2.539062 l 9.88086,63.71289075 c 0.128752,0.82936477 0.735951,1.49322613 1.521484,1.76171875 l 21.224609,7.2558594 c 0.517057,0.1764437 1.07474,0.1764437 1.591797,0 h 0.002 L 0.27539063,0.8046875 C 1.060348,0.53639151 1.6670432,-0.12728558 1.7949219,-0.95703125 v -0.001953 L 11.677734,-64.669922 c 0.21198,-1.362964 -0.949363,-2.539062 -2.3164059,-2.539062 H -21.744141 Z m 0,1.701172 h 31.107421 31.1054691 c 0.4469549,0 0.6807389,0.293137 0.6367188,0.576171 v 0.002 L 0.11523437,-1.2167969 c -0.02473099,0.1614023 -0.15215872,0.33060237 -0.390625,0.4121094 L -21.498047,6.4511719 v -0.00195 c -0.156942,0.053556 -0.337198,0.053556 -0.49414,0 v 0.00195 l -21.222657,-7.2558594 c -0.238466,-0.081507 -0.365377,-0.2514283 -0.390625,-0.4140625 l -9.882812,-63.710937 v -0.002 c -0.04412,-0.283698 0.188257,-0.576171 0.636719,-0.576171 z"
         id="path36" />
    </g>
    <path
       style="fill:#ff0000;stroke-width:0.352777"
       d="m 199.12687,24.171865 q 1.25677,0 2.11667,-0.859896 0.8599,-0.859896 0.8599,-2.083594 0,-1.223698 -0.8599,-2.083595 -0.8599,-0.892969 -2.11667,-0.892969 -1.25677,0 -2.08359,0.892969 -0.8599,0.859897 -0.8599,2.083595 0,1.223698 0.8599,2.083594 0.85989,0.859896 2.08359,0.859896 z m 0,0.727605 q -1.48828,0 -2.61276,-1.058334 -1.09141,-1.091407 -1.09141,-2.645834 0,-1.554428 1.09141,-2.645834 1.09141,-1.091407 2.61276,-1.091407 1.55443,0 2.64584,1.091407 1.0914,1.091406 1.0914,2.645834 0,1.521355 -1.0914,2.612761 -1.09141,1.091407 -2.64584,1.091407 z"
       id="text1372-3-1-8"
       aria-label="〇" />
    <path
       style="color:#000000;fill:#ff0000;stroke-width:0.352778;stroke-miterlimit:10;-inkscape-stroke:none"
       d="m 197.53487,8.751589 3.53569,3.535683 -0.31864,0.318636 -3.53568,-3.5356836 z"
       id="path1411-6-7" />
    <path
       style="color:#000000;fill:#ff0000;stroke-width:0.352778;stroke-miterlimit:10;-inkscape-stroke:none"
       d="m 200.75197,8.7514526 0.31864,0.3186354 -3.53569,3.535683 -0.31863,-0.318635 z"
       id="path1413-7-2" />
    <path
       style="color:#000000;fill:#ff0000;stroke-width:0.352778;stroke-miterlimit:10;-inkscape-stroke:none"
       d="m 199.36858,6.4996787 v 8.3584903 h -0.45062 V 6.4996787 Z"
       id="path1317-1-0-1" />
    <path
       style="color:#000000;fill:#ff0000;stroke-width:0.352778;stroke-miterlimit:10;-inkscape-stroke:none"
       d="m 203.32247,10.453622 v 0.450619 h -8.35849 v -0.450619 z"
       id="path1323-3-0-2" />
    <path
       style="color:#000000;fill:#ff0000;stroke-width:0.559289;stroke-miterlimit:10;-inkscape-stroke:none"
       d="m 193.91789,11.86797 7.9e-4,-2.3782704 0.44954,-2.6e-6 7.6e-4,2.37827 z"
       id="path4451-7-08-5-0-0" />
    <path
       style="color:#000000;fill:#ff0000;stroke-width:0.559289;stroke-miterlimit:10;-inkscape-stroke:none"
       d="m 203.91785,11.86797 7.9e-4,-2.3782704 0.44954,-2.6e-6 7.6e-4,2.37827 z"
       id="path4451-7-08-1-4" />
    <path
       style="color:#000000;fill:#ff0000;stroke-width:0.559289;stroke-miterlimit:10;-inkscape-stroke:none"
       d="m 197.95422,5.4529201 2.37827,7.86e-4 v 0.4495463 l -2.37827,7.589e-4 z"
       id="path4451-7-08-5-4-29-6" />
    <path
       style="color:#000000;fill:#ff0000;stroke-width:0.559289;stroke-miterlimit:10;-inkscape-stroke:none"
       d="m 200.33242,15.453534 v 0.451091 l -2.37827,-7.59e-4 V 15.45432 Z"
       id="path4449-0-4-3-4-9" />
    <path
       style="color:#000000;fill:#ff0000;stroke-width:0.393104;stroke-miterlimit:10;-inkscape-stroke:none"
       d="m 199.82882,13.854809 0.31786,0.317861 -1.00349,1.00349 -1.00349,-1.00349 0.31863,-0.317861 0.68486,0.685629 z"
       id="path4671-0-44-7" />
    <path
       style="color:#000000;fill:#ff0000;stroke-width:0.393104;stroke-miterlimit:10;-inkscape-stroke:none"
       d="m 199.14366,6.1814109 1.00349,1.0034901 -0.31863,0.3178614 -0.68486,-0.6856286 -0.68563,0.6856286 -0.31786,-0.3178614 z"
       id="path4673-4-0-9" />
    <path
       style="color:#000000;fill:#ff0000;stroke-width:0.393104;stroke-miterlimit:10;-inkscape-stroke:none"
       d="m 195.9674,11.36418 -0.31786,0.317861 -1.00349,-1.003489 1.00349,-1.0034898 0.31786,0.3186291 -0.68563,0.6848607 z"
       id="path4671-0-44-9-8" />
    <path
       style="color:#000000;fill:#ff0000;stroke-width:0.393104;stroke-miterlimit:10;-inkscape-stroke:none"
       d="m 203.6408,10.67902 -1.00349,1.003489 -0.31786,-0.318629 0.68562,-0.68486 -0.68562,-0.6856287 0.31786,-0.3178612 z"
       id="path4673-4-0-6-1" />
  </g>
</svg>
