<?xml version="1.0" encoding="UTF-8" standalone="no"?>
<!-- Created with Inkscape (http://www.inkscape.org/) -->

<svg
   width="27.117002mm"
   height="31.358999mm"
   viewBox="0 0 27.117003 31.358999"
   version="1.1"
   id="svg1"
   xmlns:xlink="http://www.w3.org/1999/xlink"
   xmlns="http://www.w3.org/2000/svg"
   xmlns:svg="http://www.w3.org/2000/svg">
  <defs
     id="defs1">
    <linearGradient
       id="linearGradient48">
      <stop
         style="stop-color:#f2c478;stop-opacity:1;"
         offset="0"
         id="stop48" />
      <stop
         style="stop-color:#ffdba6;stop-opacity:1;"
         offset="1"
         id="stop47" />
    </linearGradient>
    <clipPath
       clipPathUnits="userSpaceOnUse"
       id="clipPath1374-00">
      <path
         d="M 0,2834.646 H 2834.646 V 0 H 0 Z"
         transform="translate(-461.11531,-1475.1781)"
         id="path1374-9" />
    </clipPath>
    <linearGradient
       xlink:href="#linearGradient48"
       id="linearGradient7"
       gradientUnits="userSpaceOnUse"
       gradientTransform="rotate(180,-226.04272,458.50774)"
       x1="234.38948"
       y1="984.22375"
       x2="234.38948"
       y2="908.8222" />
  </defs>
  <g
     id="layer1"
     transform="translate(-222.70201)">
    <g
       id="path1373-4"
       clip-path="url(#clipPath1374-00)"
       transform="matrix(-0.35277776,0,0,0.35277776,228.58927,26.089084)">
      <path
         style="color:#000000;font-variation-settings:normal;opacity:1;vector-effect:none;fill:url(#linearGradient7);fill-opacity:1;stroke-width:1;stroke-linecap:butt;stroke-linejoin:miter;stroke-miterlimit:10;stroke-dasharray:none;stroke-dashoffset:0;stroke-opacity:1;-inkscape-stroke:none;stop-color:#000000;stop-opacity:1"
         d="m 0,0 -21.223,7.255 c -0.337,0.115 -0.707,0.115 -1.044,0 L -43.49,0 c -0.512,-0.175 -0.879,-0.592 -0.956,-1.088 L -54.328,-64.8 c -0.128,-0.823 0.569,-1.559 1.477,-1.559 h 31.106 31.106 c 0.907,0 1.605,0.736 1.477,1.559 L 0.955,-1.088 C 0.879,-0.592 0.512,-0.175 0,0"
         id="path37" />
      <path
         style="color:#000000;fill:#4d3608;stroke-miterlimit:10;-inkscape-stroke:none"
         d="m -52.851562,-67.208984 c -1.367537,0 -2.528283,1.176762 -2.316407,2.539062 l 9.88086,63.71289075 c 0.128752,0.82936477 0.735951,1.49322613 1.521484,1.76171875 l 21.224609,7.2558594 c 0.517057,0.1764437 1.07474,0.1764437 1.591797,0 h 0.002 L 0.27539063,0.8046875 C 1.060348,0.53639151 1.6670432,-0.12728558 1.7949219,-0.95703125 v -0.001953 L 11.677734,-64.669922 c 0.21198,-1.362964 -0.949363,-2.539062 -2.3164059,-2.539062 H -21.744141 Z m 0,1.701172 h 31.107421 31.1054691 c 0.4469549,0 0.6807389,0.293137 0.6367188,0.576171 v 0.002 L 0.11523437,-1.2167969 c -0.02473099,0.1614023 -0.15215872,0.33060237 -0.390625,0.4121094 L -21.498047,6.4511719 v -0.00195 c -0.156942,0.053556 -0.337198,0.053556 -0.49414,0 v 0.00195 l -21.222657,-7.2558594 c -0.238466,-0.081507 -0.365377,-0.2514283 -0.390625,-0.4140625 l -9.882812,-63.710937 v -0.002 c -0.04412,-0.283698 0.188257,-0.576171 0.636719,-0.576171 z"
         id="path38" />
    </g>
    <path
       style="fill:#ff0000;stroke-width:0.352777"
       d="m 236.24373,24.172023 q 1.25677,0 2.11667,-0.859896 0.85989,-0.859897 0.85989,-2.083595 0,-1.223698 -0.85989,-2.083594 -0.8599,-0.892969 -2.11667,-0.892969 -1.25677,0 -2.08359,0.892969 -0.8599,0.859896 -0.8599,2.083594 0,1.223698 0.8599,2.083595 0.85989,0.859896 2.08359,0.859896 z m 0,0.727604 q -1.48828,0 -2.61276,-1.058334 -1.09141,-1.091406 -1.09141,-2.645834 0,-1.554427 1.09141,-2.645834 1.09141,-1.091407 2.61276,-1.091407 1.55443,0 2.64584,1.091407 1.0914,1.091407 1.0914,2.645834 0,1.521355 -1.0914,2.612762 -1.09141,1.091406 -2.64584,1.091406 z"
       id="text1374-8"
       aria-label="〇" />
    <path
       style="color:#000000;fill:#ff0000;stroke-width:0.393104;stroke-miterlimit:10;-inkscape-stroke:none"
       d="m 239.00086,12.506708 0.42998,-0.132468 c 0,0 0.0753,0.24277 0.11346,0.528244 0.0191,0.142738 0.0302,0.297637 0.0141,0.45061 -0.0161,0.152972 -0.0569,0.314222 -0.1835,0.440837 -0.12662,0.126615 -0.28787,0.167374 -0.44084,0.183501 -0.15297,0.01613 -0.30787,0.005 -0.45061,-0.01412 -0.28547,-0.03814 -0.52824,-0.113467 -0.52824,-0.113467 l 0.13301,-0.430522 c 0,0 0.21372,0.0655 0.45495,0.09772 0.12062,0.01611 0.24634,0.02275 0.34366,0.01249 0.0973,-0.01026 0.15581,-0.03963 0.16993,-0.05375 0.0141,-0.01412 0.0435,-0.07261 0.0537,-0.169929 0.0103,-0.09732 0.004,-0.223585 -0.0119,-0.3442 -0.0322,-0.241232 -0.0977,-0.454953 -0.0977,-0.454953 z"
       id="path4671-0-4-1" />
    <path
       style="color:#000000;fill:#ff0000;stroke-width:0.393104;stroke-miterlimit:10;-inkscape-stroke:none"
       d="m 233.14638,7.5647501 c 0.12661,-0.1266152 0.28786,-0.1673738 0.44083,-0.1835012 0.15298,-0.016127 0.30788,-0.00495 0.45061,0.014116 0.28548,0.038138 0.52825,0.1134669 0.52825,0.1134669 l -0.13301,0.4305222 c 0,0 -0.21373,-0.065495 -0.45496,-0.097723 -0.12061,-0.016114 -0.24634,-0.022747 -0.34365,-0.012487 -0.0973,0.01026 -0.15582,0.039631 -0.16993,0.053747 -0.0141,0.014116 -0.0435,0.072612 -0.0537,0.1699287 -0.0103,0.097316 -0.004,0.2235849 0.0119,0.3442006 0.0322,0.2412314 0.0977,0.4549529 0.0977,0.4549529 l -0.42998,0.1324682 c 0,0 -0.0753,-0.2427704 -0.11347,-0.5282448 -0.0191,-0.1427372 -0.0302,-0.2976371 -0.0141,-0.4506096 0.0161,-0.1529725 0.0569,-0.3142221 0.18351,-0.4408369 z"
       id="path4673-4-5-7" />
    <path
       style="color:#000000;fill:#ff0000;stroke-width:0.393104;stroke-miterlimit:10;-inkscape-stroke:none"
       d="m 237.95551,7.509154 c 0,0 0.24277,-0.075329 0.52825,-0.1134666 0.14273,-0.019069 0.29763,-0.030243 0.45061,-0.014115 0.15297,0.016127 0.31422,0.056886 0.44083,0.1835014 0.12662,0.1266152 0.16738,0.2878649 0.18351,0.4408374 0.0161,0.1529725 0.005,0.3078724 -0.0141,0.4506096 -0.0381,0.2854744 -0.11347,0.5282447 -0.11347,0.5282447 L 239.0006,8.8517538 c 0,0 0.0655,-0.2137215 0.0977,-0.4549528 0.0161,-0.1206157 0.0228,-0.2463415 0.0125,-0.3436577 -0.0103,-0.097316 -0.0396,-0.1558129 -0.0537,-0.1699288 -0.0141,-0.014116 -0.0726,-0.043488 -0.16993,-0.053747 -0.0973,-0.01026 -0.22358,-0.00417 -0.3442,0.011944 -0.24123,0.032227 -0.45495,0.097722 -0.45495,0.097723 z"
       id="path4679-6-7-0" />
    <path
       style="color:#000000;fill:#ff0000;stroke-width:0.393104;stroke-miterlimit:10;-inkscape-stroke:none"
       d="m 233.09018,12.373916 0.43052,0.133012 c 0,0 -0.0655,0.213721 -0.0977,0.454952 -0.0161,0.120616 -0.0228,0.246342 -0.0125,0.343658 0.0103,0.09732 0.0396,0.155813 0.0537,0.169929 0.0141,0.01412 0.0726,0.04349 0.16993,0.05375 0.0973,0.01026 0.22358,0.0042 0.3442,-0.01194 0.24123,-0.03223 0.45495,-0.09772 0.45495,-0.09772 l 0.13247,0.429979 c 0,0 -0.24277,0.07533 -0.52824,0.113467 -0.14274,0.01907 -0.29764,0.03024 -0.45061,0.01412 -0.15298,-0.01613 -0.31423,-0.05689 -0.44084,-0.183501 -0.12662,-0.126615 -0.16737,-0.287865 -0.1835,-0.440837 -0.0161,-0.152973 -0.005,-0.307873 0.0141,-0.45061 0.0381,-0.285474 0.11347,-0.528245 0.11347,-0.528245 z"
       id="path4681-8-5-1" />
    <path
       style="color:#000000;fill:#ff0000;stroke-width:0.352778;stroke-miterlimit:10;-inkscape-stroke:none"
       d="m 234.65172,8.751747 3.53569,3.535683 -0.31864,0.318636 -3.53568,-3.5356836 z"
       id="path1411-6-7-7" />
    <path
       style="color:#000000;fill:#ff0000;stroke-width:0.352778;stroke-miterlimit:10;-inkscape-stroke:none"
       d="m 237.86881,8.7516106 0.31864,0.3186354 -3.53569,3.535683 -0.31863,-0.318635 z"
       id="path1413-7-2-7" />
    <path
       style="color:#000000;fill:#ff0000;stroke-width:0.352778;stroke-miterlimit:10;-inkscape-stroke:none"
       d="m 236.48558,8.1788037 v 5.0002113 h -0.45062 V 8.1788037 Z"
       id="path1411-6-7-7-5" />
    <path
       style="color:#000000;fill:#ff0000;stroke-width:0.352778;stroke-miterlimit:10;-inkscape-stroke:none"
       d="m 238.7605,10.453515 v 0.450619 h -5.00021 v -0.450619 z"
       id="path1413-7-2-7-8" />
  </g>
</svg>
