<?xml version="1.0" encoding="UTF-8" standalone="no"?>
<!-- Created with Inkscape (http://www.inkscape.org/) -->

<svg
   width="26mm"
   height="30mm"
   viewBox="0 0 26 30"
   version="1.1"
   id="svg1"
   xmlns:xlink="http://www.w3.org/1999/xlink"
   xmlns="http://www.w3.org/2000/svg"
   xmlns:svg="http://www.w3.org/2000/svg">
  <defs
     id="defs1">
    <linearGradient
       id="linearGradient22">
      <stop
         style="stop-color:#ffdba6;stop-opacity:1;"
         offset="0"
         id="stop21" />
      <stop
         style="stop-color:#f2c478;stop-opacity:1;"
         offset="1"
         id="stop22" />
    </linearGradient>
    <clipPath
       clipPathUnits="userSpaceOnUse"
       id="clipPath1316-8-5-2">
      <path
         d="M 0,2834.646 H 2834.646 V 0 H 0 Z"
         transform="translate(-531.98141,-1560.2174)"
         id="path1316-8-2-8" />
    </clipPath>
    <linearGradient
       xlink:href="#linearGradient22"
       id="linearGradient8"
       gradientUnits="userSpaceOnUse"
       gradientTransform="translate(-527.2475,-722.83954)"
       x1="167.45578"
       y1="740.27698"
       x2="167.41826"
       y2="655.23761" />
  </defs>
  <g
     id="layer1"
     transform="translate(-108)">
    <g
       id="path49"
       clip-path="url(#clipPath1316-8-5-2)"
       transform="matrix(-0.35277776,0,0,0.35277776,113.32884,25.410075)">
      <path
         style="color:#000000;fill:url(#linearGradient8);stroke-miterlimit:10;-inkscape-stroke:none"
         d="m 0,0 -21.223,7.255 c -0.337,0.115 -0.707,0.115 -1.044,0 L -43.49,0 c -0.512,-0.175 -0.879,-0.593 -0.956,-1.088 L -54.328,-64.8 c -0.128,-0.823 0.569,-1.559 1.477,-1.559 h 31.106 31.106 c 0.907,0 1.605,0.736 1.477,1.559 L 0.955,-1.088 C 0.879,-0.593 0.512,-0.175 0,0"
         id="path147" />
      <path
         style="color:#000000;fill:#4d3608;stroke-miterlimit:10;-inkscape-stroke:none"
         d="m -52.851562,-67.208984 c -1.367537,0 -2.528283,1.176762 -2.316407,2.539062 l 9.88086,63.71289075 c 0.128904,0.82867416 0.735013,1.49290547 1.521484,1.76171875 l 21.224609,7.2558594 c 0.517057,0.1764437 1.07474,0.1764437 1.591797,0 h 0.002 L 0.27539063,0.8046875 C 1.0612847,0.53607135 1.6668921,-0.12796836 1.7949219,-0.95703125 v -0.001953 L 11.677734,-64.669922 c 0.21198,-1.362964 -0.949363,-2.539062 -2.3164059,-2.539062 H -21.744141 Z m 0,1.701172 h 31.107421 31.1054691 c 0.4469549,0 0.6807389,0.293137 0.6367188,0.576171 v 0.002 L 0.11523437,-1.2167969 c -0.02457878,0.1600856 -0.15309689,0.33092303 -0.390625,0.4121094 L -21.498047,6.4511719 v -0.00195 c -0.156942,0.053556 -0.337198,0.053556 -0.49414,0 v 0.00195 l -21.222657,-7.2558594 c -0.237528,-0.0811864 -0.36553,-0.2527376 -0.390625,-0.4140625 l -9.882812,-63.710937 v -0.002 c -0.04412,-0.283698 0.188257,-0.576171 0.636719,-0.576171 z"
         id="path148" />
    </g>
    <path
       style="stroke-width:0.352777"
       d="m -145.63256,-15.816872 0.5442,-0.315061 q 0.14321,0.171851 0.63012,0.973826 l -0.60148,0.286419 q -0.22913,-0.515555 -0.57284,-0.945184 z m 2.17679,-3.866664 q -0.51556,0.57284 -0.5442,0.601481 0,0 -0.91654,0.859259 h 3.00741 q -0.7447,-0.630123 -0.85926,-0.744691 -0.0286,-0.02864 -0.68741,-0.716049 z m -0.14321,-0.973826 0.68741,0.343704 -0.11457,0.143209 q 0.65876,0.773333 1.34617,1.231604 0.83062,0.658765 1.74716,1.088394 -0.40099,0.515556 -0.45827,0.630123 -0.5442,-0.286419 -1.11704,-0.716048 v 0.315061 h -1.60395 v 0.716049 h 2.57778 v 0.544197 h -2.57778 v 1.661233 h 1.23161 q -0.2005,-0.14321 -0.48692,-0.315061 0.28642,-0.458272 0.57284,-1.17432 l 0.65877,0.343703 q -0.40099,0.773333 -0.65877,1.145678 h 1.57531 v 0.601481 h -6.32987 v -0.601481 h 2.74963 v -1.661233 h -2.40593 v -0.544197 h 2.40593 v -0.716049 h -1.4321 v -0.343703 q -0.45827,0.400987 -1.11704,0.830616 -0.0573,-0.114568 -0.11457,-0.171851 -0.0286,-0.08593 -0.0286,-0.08593 0,-0.02864 -0.11456,-0.14321 -0.0859,-0.14321 -0.17186,-0.229136 1.74716,-1.002468 3.17926,-2.892837 z m 4.41086,1.518024 0.60148,0.05728 q -0.0286,0.28642 -0.0286,0.544198 0,0.257777 -0.0286,0.372345 -0.0286,0.171852 -0.0573,0.372345 0,0.171852 -0.0859,0.572839 l -0.57284,-0.08593 q 0.17185,-0.945185 0.17185,-1.833085 z m 4.12444,2.491849 v -0.973826 h -0.77333 v 0.973826 z m -0.94518,-2.119504 -0.22914,0.601481 h 1.80444 v 2.090862 h -1.40345 v 1.260246 q 0,0.14321 0.11457,0.171852 0.11456,0.05728 0.54419,0.05728 h 1.40346 q 0.20049,0 0.28642,-0.08593 0.0859,-0.05728 0.22913,-0.572839 0.2005,0.200494 0.60149,0.372345 -0.17186,0.486914 -0.28642,0.630123 -0.17186,0.171852 -0.28642,0.200494 -0.0859,0.02864 -0.60148,0.02864 h -1.51803 q -0.54419,0 -0.63012,-0.02864 -0.20049,-0.08593 -0.3437,-0.229136 -0.14321,-0.143209 -0.14321,-0.343703 v -3.093331 q -0.25778,0.458271 -0.34371,0.544197 -0.14321,-0.200493 -0.48691,-0.544197 0.45827,-0.658765 0.68741,-1.231604 0.28642,-0.687407 0.48691,-1.575307 l 0.63012,0.14321 -0.28642,1.03111 h 2.72099 q 0,2.405924 -0.11457,3.207899 -0.0573,0.486913 -0.22913,0.630123 -0.14321,0.143209 -0.68741,0.200493 -0.0859,-0.286419 -0.22914,-0.630123 h 0.31506 q 0.11457,0 0.14321,-0.02864 0.0286,-0.02864 0.0859,-0.458271 0,0 0.0573,-2.34864 z m -2.32,-1.747159 h 0.63012 v 1.632591 q 0.0859,-0.08593 0.14321,-0.14321 0.0573,-0.08592 0.14321,-0.143209 0.0859,-0.08593 0.14321,-0.171852 0.0859,-0.08593 0.2005,-0.200494 l 0.42962,0.486913 -1.08839,0.973827 q -0.0573,1.03111 -0.11457,1.489381 0.5442,0.945185 0.94519,1.489382 l -0.48692,0.458271 q -0.37234,-0.515555 -0.65876,-1.117036 -0.31506,1.002468 -0.91654,1.775801 -0.28642,-0.400987 -0.45827,-0.544197 0.54419,-0.687407 0.71604,-1.231604 0.17186,-0.458271 0.31507,-1.546665 0.0573,-0.801975 0.0573,-3.207899 z"
       id="text49"
       transform="scale(-0.86602543,-1.1547005)"
       aria-label="金炮" />
    <path
       style="color:#000000;fill:#000000 icc-color(sRGB-IEC61966-2, 0.1, 0, 0, 0);stroke-miterlimit:10;-inkscape-stroke:none"
       d="M -0.63867187,0 V 23.693359 H 0.63867187 V 0 Z"
       id="path50"
       transform="matrix(-0.35277776,0,0,0.35277776,121.29901,4.3207038)" />
    <path
       style="color:#000000;fill:#000000 icc-color(sRGB-IEC61966-2, 0.1, 0, 0, 0);stroke-miterlimit:10;-inkscape-stroke:none"
       d="M -23.693359,-0.63867187 V 0.63867187 H 0 v -1.27734374 z"
       id="path51"
       transform="matrix(-0.35277776,0,0,0.35277776,117.11973,8.4999558)" />
    <path
       style="color:#000000;fill:#000000;stroke-miterlimit:10;-inkscape-stroke:none"
       d="M -0.28515625,-0.28515625 -3.2910156,2.7226563 -2.7226563,3.2910156 0.28515625,0.28515625 Z"
       id="path52"
       transform="matrix(0.39547498,0.39547498,0.3954795,-0.3954795,116.2992,9.6889938)" />
    <path
       style="color:#000000;fill:#000000;stroke-miterlimit:10;-inkscape-stroke:none"
       d="M -0.28515625,-0.28515625 -3.2910156,2.7226563 -2.7226563,3.2910156 0.28515625,0.28515625 Z"
       id="path53"
       transform="matrix(0.39547498,0.39547498,0.3954795,-0.3954795,126.2991,9.6889938)" />
    <path
       style="color:#000000;fill:#000000;stroke-miterlimit:10;-inkscape-stroke:none"
       d="M -0.28515625,-0.28515625 -3.2910156,2.7226563 -2.7226563,3.2910156 0.28515625,0.28515625 Z"
       id="path54"
       transform="matrix(-0.39547498,0.39547498,0.3954795,0.3954795,120.10997,3.4994238)" />
    <path
       style="color:#000000;fill:#000000;stroke-miterlimit:10;-inkscape-stroke:none"
       d="M 0.28515625,-0.28515625 -0.28515625,0.28515625 2.7226563,3.2910156 3.2910156,2.7226563 Z"
       id="path55"
       transform="matrix(-0.39547498,-0.39547498,-0.3954795,0.3954795,122.48815,13.500169)" />
    <path
       style="color:#000000;fill:#000000;stroke-miterlimit:10;-inkscape-stroke:none"
       d="M 0.40429688,-0.40429688 -0.40429688,0.40429688 2.1484375,2.9570313 4.7011719,0.40429688 3.890625,-0.40429688 2.1484375,1.3398437 Z"
       id="path56"
       transform="matrix(-0.39310378,0,0,0.39310397,122.14348,11.834765)" />
    <path
       style="color:#000000;fill:#000000;stroke-miterlimit:10;-inkscape-stroke:none"
       d="m -2.1484375,-2.9570313 -2.5527344,2.55273442 0.8105469,0.80859376 1.7421875,-1.74414058 1.74414062,1.74414058 0.80859376,-0.80859376 z"
       id="path57"
       transform="matrix(-0.39310378,0,0,0.39310397,120.45483,5.1648568)" />
    <path
       style="color:#000000;fill:#000000;stroke-miterlimit:10;-inkscape-stroke:none"
       d="M 0.40429688,-0.40429688 -0.40429688,0.40429688 2.1484375,2.9570313 4.7011719,0.40429688 3.890625,-0.40429688 2.1484375,1.3398437 Z"
       id="path58"
       transform="matrix(0,-0.39310378,-0.39310397,0,117.9642,9.3441358)" />
    <path
       style="color:#000000;fill:#000000;stroke-miterlimit:10;-inkscape-stroke:none"
       d="m -2.1484375,-2.9570313 -2.5527344,2.55273442 0.8105469,0.80859376 1.7421875,-1.74414058 1.74414062,1.74414058 0.80859376,-0.80859376 z"
       id="path59"
       transform="matrix(0,-0.39310378,-0.39310397,0,124.63411,7.6554858)" />
  </g>
</svg>
