<?xml version="1.0" encoding="UTF-8" standalone="no"?>
<!-- Created with Inkscape (http://www.inkscape.org/) -->

<svg
   width="27.117002mm"
   height="31.358999mm"
   viewBox="0 0 27.117003 31.358999"
   version="1.1"
   id="svg1"
   xmlns:xlink="http://www.w3.org/1999/xlink"
   xmlns="http://www.w3.org/2000/svg"
   xmlns:svg="http://www.w3.org/2000/svg">
  <defs
     id="defs1">
    <linearGradient
       id="linearGradient48">
      <stop
         style="stop-color:#f2c478;stop-opacity:1;"
         offset="0"
         id="stop48" />
      <stop
         style="stop-color:#ffdba6;stop-opacity:1;"
         offset="1"
         id="stop47" />
    </linearGradient>
    <clipPath
       clipPathUnits="userSpaceOnUse"
       id="clipPath1316-8-5-2">
      <path
         d="M 0,2834.646 H 2834.646 V 0 H 0 Z"
         transform="translate(-531.98141,-1560.2174)"
         id="path1316-8-2-8" />
    </clipPath>
    <linearGradient
       xlink:href="#linearGradient48"
       id="linearGradient2"
       gradientUnits="userSpaceOnUse"
       gradientTransform="rotate(180,36.991162,458.50774)"
       x1="234.38948"
       y1="984.22375"
       x2="234.38948"
       y2="908.8222" />
  </defs>
  <g
     id="layer1"
     transform="translate(-37.117002)">
    <g
       id="path1315-1-0-4"
       clip-path="url(#clipPath1316-8-5-2)"
       transform="matrix(-0.35277776,0,0,0.35277776,43.004267,26.089084)">
      <path
         style="color:#000000;font-variation-settings:normal;opacity:1;vector-effect:none;fill:url(#linearGradient2);fill-opacity:1;stroke-width:1;stroke-linecap:butt;stroke-linejoin:miter;stroke-miterlimit:10;stroke-dasharray:none;stroke-dashoffset:0;stroke-opacity:1;-inkscape-stroke:none;stop-color:#000000;stop-opacity:1"
         d="m 0,0 -21.223,7.255 c -0.337,0.115 -0.707,0.115 -1.044,0 L -43.49,0 c -0.512,-0.175 -0.879,-0.593 -0.956,-1.088 L -54.328,-64.8 c -0.128,-0.823 0.569,-1.559 1.477,-1.559 h 31.106 31.106 c 0.907,0 1.605,0.736 1.477,1.559 L 0.955,-1.088 C 0.879,-0.593 0.512,-0.175 0,0"
         id="path23" />
      <path
         style="color:#000000;fill:#4d3608;stroke-miterlimit:10;-inkscape-stroke:none"
         d="m -52.851562,-67.208984 c -1.367537,0 -2.528283,1.176762 -2.316407,2.539062 l 9.88086,63.71289075 c 0.128904,0.82867416 0.735013,1.49290547 1.521484,1.76171875 l 21.224609,7.2558594 c 0.517057,0.1764437 1.07474,0.1764437 1.591797,0 h 0.002 L 0.27539063,0.8046875 C 1.0612847,0.53607135 1.6668921,-0.12796836 1.7949219,-0.95703125 v -0.001953 L 11.677734,-64.669922 c 0.21198,-1.362964 -0.949363,-2.539062 -2.3164059,-2.539062 H -21.744141 Z m 0,1.701172 h 31.107421 31.1054691 c 0.4469549,0 0.6807389,0.293137 0.6367188,0.576171 v 0.002 L 0.11523437,-1.2167969 c -0.02457878,0.1600856 -0.15309689,0.33092303 -0.390625,0.4121094 L -21.498047,6.4511719 v -0.00195 c -0.156942,0.053556 -0.337198,0.053556 -0.49414,0 v 0.00195 l -21.222657,-7.2558594 c -0.237528,-0.0811864 -0.36553,-0.2527376 -0.390625,-0.4140625 l -9.882812,-63.710937 v -0.002 c -0.04412,-0.283698 0.188257,-0.576171 0.636719,-0.576171 z"
         id="path24" />
    </g>
    <path
       style="fill:#000000 icc-color(sRGB-IEC61966-2, 0.1, 0, 0, 0);stroke-width:0.352777"
       d="m 51.18789,21.410578 v 0.661458 H 48.839712 V 19.85615 h 1.488282 v -1.488281 q 0,-0.198438 -0.09922,-0.264584 -0.132291,-0.06615 -0.79375,-0.06615 h -1.190625 q -0.496094,0 -0.529167,0.03307 -0.06615,0.06615 -0.09922,0.165365 -0.03307,0.03307 -0.165365,0.661458 -0.264583,-0.165364 -0.727604,-0.330729 0.132292,-0.628386 0.297656,-0.826823 0.132292,-0.198438 0.396875,-0.297656 0.198438,-0.06615 0.793751,-0.06615 h 1.322917 q 0.926042,0 1.190625,0.132291 0.363803,0.165365 0.363803,0.727605 v 2.282043 h -1.521353 v 0.892969 z m 1.322918,-2.017449 v 1.951303 h 0.628385 v -1.951303 z m 1.951302,4.332554 v 0.727604 h -2.778126 v -0.727604 h 0.992188 q 0.198438,-0.926042 0.463021,-1.68672 h -1.35599 v -3.968751 h 0.727605 v 0.628386 h 0.628385 v -1.025261 h 0.694532 v 2.778126 q 0.23151,-0.529167 0.496094,-0.892969 0.03307,0.363802 0.09922,0.496094 0.03307,0.165365 0.198438,0.396875 -0.330729,0.628386 -0.661459,1.488282 -0.264583,0.859896 -0.496093,1.785938 z m -5.886981,-4.762502 q 0.165365,0.529167 0.330729,0.793751 h -0.496094 q -0.165364,0 -0.23151,0.06615 -0.06615,0.06615 -0.09922,0.496094 -0.06615,1.256771 -0.06615,2.645834 h 2.71198 q 0.264589,-0.429953 0.793756,-1.157557 0.23151,0.297656 0.562239,0.595313 -0.562239,0.760677 -0.826823,1.256771 -0.264583,0.429948 -0.628385,1.322917 l -0.727605,-0.396875 q 0.264584,-0.661459 0.463021,-0.959115 h -3.141928 q 0,-2.678907 0.06615,-3.472657 0.09922,-0.628386 0.297656,-0.826823 0.198438,-0.198438 0.992188,-0.363803 z"
       id="text1328-5-0-9"
       aria-label="砲" />
    <path
       style="color:#000000;fill:#000000 icc-color(sRGB-IEC61966-2, 0.1, 0, 0, 0);stroke-width:0.352778;stroke-miterlimit:10;-inkscape-stroke:none"
       d="M 50.900571,6.4999957 V 14.858486 H 50.449952 V 6.4999957 Z"
       id="path1317-1-0" />
    <path
       style="color:#000000;fill:#000000 icc-color(sRGB-IEC61966-2, 0.1, 0, 0, 0);stroke-width:0.352778;stroke-miterlimit:10;-inkscape-stroke:none"
       d="m 54.854463,10.453938 v 0.450619 h -8.35849 v -0.450619 z"
       id="path1323-3-0" />
    <path
       style="color:#000000;fill:#000000;stroke-width:0.559289;stroke-miterlimit:10;-inkscape-stroke:none"
       d="m 45.449882,11.868287 7.86e-4,-2.3782704 0.449546,-2.6e-6 7.59e-4,2.37827 z"
       id="path4451-7-08-5-0" />
    <path
       style="color:#000000;fill:#000000;stroke-width:0.559289;stroke-miterlimit:10;-inkscape-stroke:none"
       d="m 55.449846,11.868287 7.86e-4,-2.3782704 0.449546,-2.6e-6 7.59e-4,2.37827 z"
       id="path4451-7-08-1" />
    <path
       style="color:#000000;fill:#000000;stroke-width:0.559289;stroke-miterlimit:10;-inkscape-stroke:none"
       d="m 49.486215,5.4532361 2.378271,7.86e-4 2e-6,0.4495463 -2.37827,7.589e-4 z"
       id="path4451-7-08-5-4-29" />
    <path
       style="color:#000000;fill:#000000;stroke-width:0.559289;stroke-miterlimit:10;-inkscape-stroke:none"
       d="m 51.864409,15.453851 -3e-6,0.451091 -2.37827,-7.59e-4 3e-6,-0.449546 z"
       id="path4449-0-4-3-4" />
    <path
       style="color:#000000;fill:#000000;stroke-width:0.393104;stroke-miterlimit:10;-inkscape-stroke:none"
       d="m 51.360815,13.855126 0.317861,0.317861 -1.003489,1.00349 -1.00349,-1.00349 0.318629,-0.317861 0.684861,0.685629 z"
       id="path4671-0-44" />
    <path
       style="color:#000000;fill:#000000;stroke-width:0.393104;stroke-miterlimit:10;-inkscape-stroke:none"
       d="M 50.67565,6.1817279 51.679139,7.185218 51.36051,7.5030794 50.67565,6.8174508 49.990021,7.5030794 49.67216,7.185218 Z"
       id="path4673-4-0" />
    <path
       style="color:#000000;fill:#000000;stroke-width:0.393104;stroke-miterlimit:10;-inkscape-stroke:none"
       d="m 47.499394,11.364497 -0.317861,0.317861 -1.00349,-1.003489 1.00349,-1.0034898 0.317861,0.3186291 -0.685628,0.6848607 z"
       id="path4671-0-44-9" />
    <path
       style="color:#000000;fill:#000000;stroke-width:0.393104;stroke-miterlimit:10;-inkscape-stroke:none"
       d="m 55.172792,10.679337 -1.00349,1.003489 -0.317861,-0.318629 0.685629,-0.68486 -0.685629,-0.6856287 0.317861,-0.3178612 z"
       id="path4673-4-0-6" />
  </g>
</svg>
