<?xml version="1.0" encoding="UTF-8" standalone="no"?>
<!-- Created with Inkscape (http://www.inkscape.org/) -->

<svg
   width="30mm"
   height="34mm"
   viewBox="0 0 30 34"
   version="1.1"
   id="svg1"
   xmlns:xlink="http://www.w3.org/1999/xlink"
   xmlns="http://www.w3.org/2000/svg"
   xmlns:svg="http://www.w3.org/2000/svg">
  <defs
     id="defs1">
    <linearGradient
       id="linearGradient22">
      <stop
         style="stop-color:#ffdba6;stop-opacity:1;"
         offset="0"
         id="stop21" />
      <stop
         style="stop-color:#f2c478;stop-opacity:1;"
         offset="1"
         id="stop22" />
    </linearGradient>
    <clipPath
       clipPathUnits="userSpaceOnUse"
       id="clipPath1330-86-5">
      <path
         d="M 0,2834.646 H 2834.646 V 0 H 0 Z"
         transform="translate(-461.11531,-1560.2174)"
         id="path1330-98-11" />
    </clipPath>
    <linearGradient
       xlink:href="#linearGradient22"
       id="linearGradient278"
       gradientUnits="userSpaceOnUse"
       gradientTransform="translate(-311.81167,-212.60334)"
       x1="289.06915"
       y1="220.19536"
       x2="289.06967"
       y2="143.72234" />
  </defs>
  <g
     id="layer1"
     transform="translate(-540)">
    <g
       id="path268"
       clip-path="url(#clipPath1330-86-5)"
       transform="matrix(-0.35277776,0,0,0.35277776,547.32884,27.410165)">
      <path
         style="color:#000000;fill:url(#linearGradient278);stroke-miterlimit:10;-inkscape-stroke:none"
         d="m 0,0 -21.223,7.255 c -0.337,0.115 -0.707,0.115 -1.044,0 L -43.49,0 c -0.512,-0.175 -0.879,-0.593 -0.956,-1.088 L -54.328,-64.8 c -0.128,-0.823 0.569,-1.559 1.477,-1.559 h 31.106 31.106 c 0.907,0 1.605,0.736 1.477,1.559 L 0.955,-1.088 C 0.879,-0.593 0.512,-0.175 0,0"
         id="path313" />
      <path
         style="color:#000000;fill:#4d3608;stroke-miterlimit:10;-inkscape-stroke:none"
         d="m -52.851562,-67.208984 c -1.367537,0 -2.528283,1.176762 -2.316407,2.539062 l 9.88086,63.71289075 c 0.128904,0.82867416 0.735013,1.49290547 1.521484,1.76171875 l 21.224609,7.2558594 c 0.517057,0.1764437 1.07474,0.1764437 1.591797,0 h 0.002 L 0.27539063,0.8046875 C 1.0612847,0.53607135 1.6668921,-0.12796836 1.7949219,-0.95703125 v -0.001953 L 11.677734,-64.669922 c 0.21198,-1.362964 -0.949363,-2.539062 -2.3164059,-2.539062 H -21.744141 Z m 0,1.701172 h 31.107421 31.1054691 c 0.4469549,0 0.6807389,0.293137 0.6367188,0.576171 v 0.002 L 0.11523437,-1.2167969 c -0.02457878,0.1600856 -0.15309689,0.33092303 -0.390625,0.4121094 L -21.498047,6.4511719 v -0.00195 c -0.156942,0.053556 -0.337198,0.053556 -0.49414,0 v 0.00195 l -21.222657,-7.2558594 c -0.237528,-0.0811864 -0.36553,-0.2527376 -0.390625,-0.4140625 l -9.882812,-63.710937 v -0.002 c -0.04412,-0.283698 0.188257,-0.576171 0.636719,-0.576171 z"
         id="path314" />
    </g>
    <path
       style="stroke-width:0.352777"
       d="m -647.77487,-18.10765 0.51555,-0.171852 q 0.11457,0.257778 0.37235,1.03111 l -0.5442,0.171852 q -0.11457,-0.486913 -0.3437,-1.03111 z m 2.31999,1.002468 q -0.0859,0 -0.51555,-0.200493 l 0.42963,-1.002469 0.54419,0.257778 q -0.31506,0.716049 -0.45827,0.945184 z m 2.03358,-3.752095 v -1.489382 h 0.68741 v 1.489382 h 1.26024 v 0.630122 h -1.28888 l -0.0859,1.088395 h 1.57531 v 0.601481 h -1.34617 q 0.17185,0.687406 0.28642,0.859258 0.22913,0.429629 0.54419,0.773333 0.11457,0.114568 0.74469,0.630123 -0.20049,0.14321 -0.48691,0.544197 -0.51555,-0.429629 -0.68741,-0.658765 -0.28642,-0.343703 -0.48691,-0.716049 -0.14321,-0.229135 -0.37234,-0.945184 -0.2005,0.630123 -0.37235,0.916542 -0.11457,0.200494 -0.42963,0.572839 -0.14321,0.14321 -0.28642,0.257778 -0.11457,0.14321 -0.22913,0.257777 l -0.51556,0.372346 q 0,0 -0.0859,-0.14321 -0.0573,-0.14321 -0.11456,-0.200494 0,-0.02864 -0.11457,-0.114567 -0.0859,-0.08593 -0.0859,-0.08593 0.80198,-0.544197 1.20297,-1.088394 0.40098,-0.515556 0.51555,-1.231604 h -1.31753 v -0.601481 h 1.4321 l 0.0573,-1.088395 h -0.80197 q -0.14321,0.315062 -0.34371,0.801975 -0.37234,-0.171852 -0.60148,-0.257777 0.31506,-0.658765 0.42963,-1.059753 0.11457,-0.343703 0.25778,-1.059752 l 0.63012,0.14321 q 0,0.02864 -0.0286,0.114568 0,0.08593 -0.0286,0.143209 0,0.02864 -0.11457,0.544198 z m -3.12197,-1.575308 0.60148,0.343704 -0.0859,0.171851 q 0.60149,0.400988 1.14568,0.945185 l -0.48691,0.458271 q -0.63012,-0.601481 -1.00247,-0.859259 -0.3437,0.544197 -0.57284,0.801975 -0.0286,0.05728 -0.0859,0.114568 -0.0573,0.05728 -0.0859,0.114568 h 1.74716 v 0.601481 h -0.65877 v 0.515555 h 0.85926 v 0.544197 h -0.85926 v 1.775801 q 0.71605,-0.14321 0.85926,-0.200494 v 0.658765 l -1.46074,0.343704 -1.05975,0.200493 -0.14321,-0.658765 1.20296,-0.200493 v -1.919011 h -1.03111 v -0.544197 h 1.03111 v -0.515555 h -0.60148 v -0.486914 q -0.0859,0.08593 -0.17185,0.200494 -0.0859,0.08593 -0.20049,0.200494 -0.11457,-0.372346 -0.34371,-0.630123 0.85926,-0.859259 1.40346,-1.976295 z m 6.24394,1.432098 0.60149,0.05728 q -0.0286,0.286419 -0.0286,0.544197 0,0.257777 -0.0286,0.372345 -0.0286,0.171852 -0.0573,0.372345 0,0.171852 -0.0859,0.57284 l -0.57284,-0.08593 q 0.17185,-0.945185 0.17185,-1.833085 z m 4.12445,2.49185 v -0.973827 h -0.77334 v 0.973827 z m -0.94519,-2.119505 -0.22913,0.601481 h 1.80444 v 2.090863 h -1.40346 v 1.260246 q 0,0.143209 0.11457,0.171851 0.11457,0.05728 0.5442,0.05728 h 1.40345 q 0.2005,0 0.28642,-0.08593 0.0859,-0.05728 0.22914,-0.572839 0.20049,0.200494 0.60148,0.372346 -0.17185,0.486913 -0.28642,0.630123 -0.17185,0.171851 -0.28642,0.200493 -0.0859,0.02864 -0.60148,0.02864 h -1.51802 q -0.5442,0 -0.63013,-0.02864 -0.20049,-0.08593 -0.3437,-0.229135 -0.14321,-0.14321 -0.14321,-0.343704 v -3.093331 q -0.25778,0.458272 -0.3437,0.544197 -0.14321,-0.200493 -0.48692,-0.544197 0.45827,-0.658765 0.68741,-1.231604 0.28642,-0.687406 0.48691,-1.575307 l 0.63013,0.14321 -0.28642,1.03111 h 2.72098 q 0,2.405924 -0.11457,3.207899 -0.0573,0.486913 -0.22913,0.630123 -0.14321,0.143209 -0.68741,0.200493 -0.0859,-0.286419 -0.22913,-0.630123 h 0.31506 q 0.11457,0 0.14321,-0.02864 0.0286,-0.02864 0.0859,-0.458271 0,0 0.0573,-2.34864 z m -2.32,-1.747159 h 0.63013 v 1.632591 q 0.0859,-0.08593 0.14321,-0.143209 0.0573,-0.08593 0.14321,-0.14321 0.0859,-0.08593 0.14321,-0.171852 0.0859,-0.08593 0.20049,-0.200494 l 0.42963,0.486914 -1.0884,0.973826 q -0.0573,1.03111 -0.11456,1.489381 0.54419,0.945185 0.94518,1.489382 l -0.48691,0.458271 q -0.37235,-0.515555 -0.65877,-1.117036 -0.31506,1.002468 -0.91654,1.775801 -0.28642,-0.400987 -0.45827,-0.544197 0.5442,-0.687407 0.71605,-1.231604 0.17185,-0.458271 0.31506,-1.546665 0.0573,-0.801975 0.0573,-3.207899 z"
       id="text268"
       transform="scale(-0.86602543,-1.1547005)"
       aria-label="鉄炮" />
    <path
       style="color:#000000;fill:#000000 icc-color(sRGB-IEC61966-2, 0.1, 0, 0, 0);stroke-miterlimit:10;-inkscape-stroke:none"
       d="m -0.63867187,-1.4179687 v 7.5957031 h 1.27734374 v -7.5957031 z m 0,18.9335937 v 7.59375 h 1.27734374 v -7.59375 z"
       id="path269"
       transform="matrix(-0.24945156,-0.24945156,-0.24945156,0.24945156,558.25351,7.5448776)" />
    <path
       style="color:#000000;fill:#000000 icc-color(sRGB-IEC61966-2, 0.1, 0, 0, 0);stroke-miterlimit:10;-inkscape-stroke:none"
       d="m -25.111328,-0.63867187 v 1.27734374 h 7.595703 v -1.27734374 z m 18.9335936,0 v 1.27734374 h 7.59375 v -1.27734374 z"
       id="path270"
       transform="matrix(-0.24945156,-0.24945156,-0.24945156,0.24945156,552.34315,7.5448516)" />
    <path
       style="color:#000000;fill:#000000;stroke-miterlimit:10;-inkscape-stroke:none"
       d="M -0.28515625,-0.28515625 -3.2910156,2.7226563 -2.7226563,3.2910156 0.28515625,0.28515625 Z"
       id="path271"
       transform="matrix(0,0.55928609,0.55929249,0,553.04339,9.9266566)" />
    <path
       style="color:#000000;fill:#000000;stroke-miterlimit:10;-inkscape-stroke:none"
       d="M -0.28515625,-0.28515625 -3.2910156,2.7226563 -2.7226563,3.2910156 0.28515625,0.28515625 Z"
       id="path272"
       transform="matrix(0,0.55928609,0.55929249,0,555.87163,12.754894)" />
    <path
       style="color:#000000;fill:#000000;stroke-miterlimit:10;-inkscape-stroke:none"
       d="M -0.28515625,-0.28515625 -3.2910156,2.7226563 -2.7226563,3.2910156 0.28515625,0.28515625 Z"
       id="path273"
       transform="matrix(-0.55928609,0,0,0.55929249,555.87216,8.2446746)" />
    <path
       style="color:#000000;fill:#000000;stroke-miterlimit:10;-inkscape-stroke:none"
       d="M 0.28515625,-0.28515625 -0.28515625,0.28515625 2.7226563,3.2910156 3.2910156,2.7226563 Z"
       id="path274"
       transform="matrix(0,-0.55928609,-0.55929249,0,554.72482,12.755291)" />
    <path
       style="color:#000000;fill:#000000;stroke-miterlimit:10;-inkscape-stroke:none"
       d="M 0.40429688,-0.40429688 -0.40429688,0.40429688 2.1484375,2.9570313 4.7011719,0.40429688 3.890625,-0.40429688 2.1484375,1.3398437 Z"
       id="path275"
       transform="matrix(-0.27796635,-0.27796635,-0.27796648,0.27796648,553.18386,13.808809)" />
    <path
       style="color:#000000;fill:#000000;stroke-miterlimit:10;-inkscape-stroke:none"
       d="m -2.1484375,-2.9570313 -2.5527344,2.55273442 0.8105469,0.80859376 1.7421875,-1.74414058 1.74414062,1.74414058 0.80859376,-0.80859376 z"
       id="path276"
       transform="matrix(-0.27796635,-0.27796635,-0.27796648,0.27796648,557.41325,7.1913146)" />
    <path
       style="color:#000000;fill:#000000;stroke-miterlimit:10;-inkscape-stroke:none"
       d="M 0.40429688,-0.40429688 -0.40429688,0.40429688 2.1484375,2.9570313 4.7011719,0.40429688 3.890625,-0.40429688 2.1484375,1.3398437 Z"
       id="path277"
       transform="matrix(0.27796635,-0.27796635,-0.27796648,-0.27796648,551.98977,8.3853266)" />
    <path
       style="color:#000000;fill:#000000;stroke-miterlimit:10;-inkscape-stroke:none"
       d="m -2.1484375,-2.9570313 -2.5527344,2.55273442 0.8105469,0.80859376 1.7421875,-1.74414058 1.74414062,1.74414058 0.80859376,-0.80859376 z"
       id="path278"
       transform="matrix(0.27796635,-0.27796635,-0.27796648,-0.27796648,558.60734,12.614797)" />
  </g>
</svg>
