<?xml version="1.0" encoding="UTF-8" standalone="no"?>
<!-- Created with Inkscape (http://www.inkscape.org/) -->

<svg
   width="27.117002mm"
   height="31.358999mm"
   viewBox="0 0 27.117003 31.358999"
   version="1.1"
   id="svg1"
   xmlns:xlink="http://www.w3.org/1999/xlink"
   xmlns="http://www.w3.org/2000/svg"
   xmlns:svg="http://www.w3.org/2000/svg">
  <defs
     id="defs1">
    <linearGradient
       id="linearGradient89">
      <stop
         style="stop-color:#f2c478;stop-opacity:1;"
         offset="0"
         id="stop89" />
      <stop
         style="stop-color:#ffdba6;stop-opacity:1;"
         offset="1"
         id="stop88" />
    </linearGradient>
    <clipPath
       clipPathUnits="userSpaceOnUse"
       id="clipPath1330-86">
      <path
         d="M 0,2834.646 H 2834.646 V 0 H 0 Z"
         transform="translate(-461.11531,-1560.2174)"
         id="path1330-98" />
    </clipPath>
    <linearGradient
       xlink:href="#linearGradient89"
       id="linearGradient3"
       gradientUnits="userSpaceOnUse"
       gradientTransform="rotate(180,-791.05648,330.94864)"
       x1="-1283.1606"
       y1="735.85059"
       x2="-1283.1606"
       y2="646.95892" />
  </defs>
  <g
     id="path1329-5"
     clip-path="url(#clipPath1330-86)"
     transform="matrix(-0.35277776,0,0,0.35277776,5.8872572,26.089084)">
    <path
       style="color:#000000;font-variation-settings:normal;opacity:1;vector-effect:none;fill:url(#linearGradient3);fill-opacity:1;stroke-width:1;stroke-linecap:butt;stroke-linejoin:miter;stroke-miterlimit:10;stroke-dasharray:none;stroke-dashoffset:0;stroke-opacity:1;-inkscape-stroke:none;stop-color:#000000;stop-opacity:1"
       d="m 0,0 -21.223,7.255 c -0.337,0.115 -0.707,0.115 -1.044,0 L -43.49,0 c -0.512,-0.175 -0.879,-0.593 -0.956,-1.088 L -54.328,-64.8 c -0.128,-0.823 0.569,-1.559 1.477,-1.559 h 31.106 31.106 c 0.907,0 1.605,0.736 1.477,1.559 L 0.955,-1.088 C 0.879,-0.593 0.512,-0.175 0,0"
       id="path7" />
    <path
       style="color:#000000;fill:#4d3608;stroke-miterlimit:10;-inkscape-stroke:none"
       d="m -52.851562,-67.208984 c -1.367537,0 -2.528283,1.176762 -2.316407,2.539062 l 9.88086,63.71289075 c 0.128904,0.82867416 0.735013,1.49290547 1.521484,1.76171875 l 21.224609,7.2558594 c 0.517057,0.1764437 1.07474,0.1764437 1.591797,0 h 0.002 L 0.27539063,0.8046875 C 1.0612847,0.53607135 1.6668921,-0.12796836 1.7949219,-0.95703125 v -0.001953 L 11.677734,-64.669922 c 0.21198,-1.362964 -0.949363,-2.539062 -2.3164059,-2.539062 H -21.744141 Z m 0,1.701172 h 31.107421 31.1054691 c 0.4469549,0 0.6807389,0.293137 0.6367188,0.576171 v 0.002 L 0.11523437,-1.2167969 c -0.02457878,0.1600856 -0.15309689,0.33092303 -0.390625,0.4121094 L -21.498047,6.4511719 v -0.00195 c -0.156942,0.053556 -0.337198,0.053556 -0.49414,0 v 0.00195 l -21.222657,-7.2558594 c -0.237528,-0.0811864 -0.36553,-0.2527376 -0.390625,-0.4140625 l -9.882812,-63.710937 v -0.002 c -0.04412,-0.283698 0.188257,-0.576171 0.636719,-0.576171 z"
       id="path8" />
  </g>
  <path
     style="color:#000000;fill:#000000 icc-color(sRGB-IEC61966-2, 0.1, 0, 0, 0);stroke-width:0.352778;stroke-miterlimit:10;-inkscape-stroke:none"
     d="m 16.672527,7.8833834 -5.91034,5.9103456 -0.31864,-0.318636 5.91035,-5.910345 z"
     id="path1317-1-0-0-4" />
  <path
     style="color:#000000;fill:#000000 icc-color(sRGB-IEC61966-2, 0.1, 0, 0, 0);stroke-width:0.352778;stroke-miterlimit:10;-inkscape-stroke:none"
     d="m 16.672477,13.475067 -0.31864,0.318636 -5.91034,-5.9103456 0.31863,-0.3186354 z"
     id="path1323-3-0-9-5" />
  <path
     style="color:#000000;fill:#000000;stroke-width:0.559289;stroke-miterlimit:10;-inkscape-stroke:none"
     d="m 17.513537,12.952914 -1.68224,1.681135 -0.31788,-0.317876 1.68115,-1.682227 z"
     id="path4451-7-08-5-4-29-3-5-2" />
  <path
     style="color:#000000;fill:#000000;stroke-width:0.559289;stroke-miterlimit:10;-inkscape-stroke:none"
     d="m 9.9219272,8.7245564 -0.31897,-0.3189715 1.6822298,-1.6811545 0.31788,0.3178791 z"
     id="path4449-0-4-3-4-8-3-8" />
  <path
     style="color:#000000;fill:#000000;stroke-width:0.559289;stroke-miterlimit:10;-inkscape-stroke:none"
     d="m 15.831847,6.7238669 1.68114,1.682247 -0.31788,0.3178791 -1.68223,-1.6811546 z"
     id="path4451-7-08-5-4-29-3-6" />
  <path
     style="color:#000000;fill:#000000;stroke-width:0.559289;stroke-miterlimit:10;-inkscape-stroke:none"
     d="m 11.603487,14.315505 -0.31897,0.318968 -1.6811498,-1.682228 0.31788,-0.317876 z"
     id="path4449-0-4-3-4-8-4" />
  <path
     style="stroke-width:0.352777"
     d="m 19.547997,19.587851 -0.44648,0.198436 q -0.0992,-0.297655 -0.32246,-1.190623 l 0.47129,-0.198438 q 0.0992,0.56224 0.29765,1.190625 z m -2.00918,-1.157552 q 0.0744,0 0.44649,0.231511 l -0.37207,1.157551 -0.47129,-0.297656 q 0.27285,-0.826822 0.39687,-1.091406 z m -1.76113,4.332548 v 1.719789 h -0.5953 v -1.719789 h -1.09141 v -0.727604 h 1.11621 l 0.0744,-1.256769 h -1.36425 v -0.69453 h 1.16582 q -0.14883,-0.79375 -0.24805,-0.992187 -0.19844,-0.496093 -0.47129,-0.892967 -0.0992,-0.132292 -0.64492,-0.727603 0.17363,-0.165365 0.42168,-0.628385 0.44649,0.496093 0.59531,0.760676 0.24805,0.396874 0.42168,0.826821 0.12402,0.264584 0.32246,1.091406 0.17363,-0.727604 0.32246,-1.058333 0.0992,-0.231509 0.37207,-0.661457 0.12402,-0.165364 0.24805,-0.297656 0.0992,-0.165364 0.19844,-0.297656 l 0.44648,-0.429947 q 0,0 0.0744,0.165365 0.0496,0.165363 0.0992,0.231509 0,0.03307 0.0992,0.132292 0.0744,0.09922 0.0744,0.09922 -0.69453,0.628385 -1.04179,1.256769 -0.34727,0.595312 -0.44649,1.422134 h 1.14101 v 0.694531 h -1.24022 l -0.0496,1.256769 h 0.69454 q 0.12402,-0.363802 0.29765,-0.926041 0.32247,0.198438 0.5209,0.297656 -0.27285,0.760676 -0.37207,1.223697 -0.0992,0.396874 -0.22325,1.223696 l -0.5457,-0.165364 q 0,-0.03307 0.0248,-0.132292 0,-0.09922 0.0248,-0.165364 0,-0.03307 0.0992,-0.628385 z m 2.70371,1.819008 -0.5209,-0.396875 0.0744,-0.198437 q -0.52089,-0.46302 -0.99219,-1.091405 l 0.42168,-0.529166 q 0.54571,0.694531 0.86817,0.992186 0.29766,-0.628384 0.49609,-0.92604 0.0248,-0.06615 0.0744,-0.132292 0.0496,-0.06615 0.0744,-0.132291 h -1.51308 v -0.694531 h 0.57051 v -0.595311 h -0.74414 v -0.628385 h 0.74414 V 18.19879 q -0.62012,0.165365 -0.74414,0.231509 v -0.760675 l 1.26504,-0.396875 0.91777,-0.231511 0.12402,0.760677 -1.04179,0.23151 v 2.215883 h 0.89296 v 0.628385 h -0.89296 v 0.595311 h 0.52089 v 0.562239 q 0.0744,-0.09922 0.14883,-0.23151 0.0744,-0.09922 0.17364,-0.23151 0.0992,0.429947 0.29765,0.727603 -0.74414,0.992187 -1.21543,2.282029 z m -5.40741,-1.653644 -0.5209,-0.06615 q 0.0248,-0.330729 0.0248,-0.628384 0,-0.297656 0.0248,-0.429948 0.0248,-0.198437 0.0496,-0.429947 0,-0.198437 0.0744,-0.661458 l 0.4961,0.09922 q -0.14883,1.091405 -0.14883,2.116664 z m -3.5718698,-2.87734 v 1.124478 h 0.6697198 v -1.124478 z m 0.8185498,2.447393 0.19844,-0.694531 H 8.9564172 v -2.41432 h 1.2154198 v -1.455207 q 0,-0.165364 -0.0992,-0.198437 -0.0992,-0.06614 -0.4712798,-0.06614 h -1.21543 q -0.17363,0 -0.24805,0.09921 -0.0744,0.06614 -0.19843,0.661458 -0.17364,-0.231509 -0.52091,-0.429947 0.14884,-0.562239 0.24805,-0.727603 0.14883,-0.198438 0.24805,-0.231511 0.0744,-0.03307 0.52089,-0.03307 h 1.31465 q 0.4712898,0 0.5456998,0.03307 0.17363,0.09922 0.29766,0.264584 0.12402,0.165364 0.12402,0.396875 v 3.571872 q 0.22325,-0.529166 0.29766,-0.628385 0.12403,0.231511 0.42168,0.628385 -0.39687,0.760676 -0.59532,1.422134 -0.24804,0.793749 -0.42167,1.819008 L 9.8742072,24.350345 10.122257,23.159721 H 7.7658072 q 0,-2.778122 0.0992,-3.704162 0.0496,-0.562239 0.19844,-0.727603 0.12402,-0.165365 0.59531,-0.231511 0.0744,0.330729 0.19844,0.727603 h -0.27285 q -0.0992,0 -0.12403,0.03307 -0.0248,0.03307 -0.0744,0.529166 0,0 -0.0496,2.711976 z m 2.00918,2.017445 h -0.5457 v -1.885154 q -0.0744,0.09922 -0.12403,0.165364 -0.0496,0.09922 -0.12402,0.165365 -0.0744,0.09922 -0.12402,0.198437 -0.0744,0.09922 -0.17364,0.23151 l -0.37206,-0.562239 0.94257,-1.124477 q 0.0496,-1.190624 0.0992,-1.71979 -0.47129,-1.091405 -0.81856,-1.719789 l 0.42169,-0.529167 q 0.32245,0.595313 0.5705,1.289843 0.27285,-1.157551 0.79375,-2.050518 0.24804,0.46302 0.39688,0.628384 -0.47129,0.793748 -0.62012,1.422134 -0.14883,0.529166 -0.27286,1.785935 -0.0496,0.92604 -0.0496,3.704162 z"
     id="text1328-5-0-9-7-0-8-5"
     aria-label="鉄炮" />
</svg>
