<svg xmlns="http://www.w3.org/2000/svg" xmlns:xlink="http://www.w3.org/1999/xlink" width="30mm" height="30mm" viewBox="0 0 30 30">
    <defs>
        <linearGradient id="1_PRINCE_svg__a">
            <stop offset="0" stop-color="#ffdba6"/>
            <stop offset="1" stop-color="#f2c478"/>
        </linearGradient>
        <linearGradient xlink:href="#1_PRINCE_svg__a" id="1_PRINCE_svg__b" x1="244.85" x2="244.85" y1="222.989" y2="140.991" gradientTransform="translate(8617.32 -212.603)" gradientUnits="userSpaceOnUse"/>
    </defs>
    <path fill="url(#1_PRINCE_svg__b)" d="m0 0-22.28 7.578c-.3.102-.625.102-.924 0L-45.484 0a1.42 1.42 0 0 1-.949-1.125l-10.308-66.12a1.422 1.422 0 0 1 1.411-1.636H9.846a1.42 1.42 0 0 1 1.41 1.636L.948-1.125A1.42 1.42 0 0 1 0 0" transform="matrix(-.35278 0 0 .35278 6.977 25.799)"/>
    <path fill="#4d3608" d="M26.496 1.2c.486 0 .87.442.795.923l-3.637 23.325a.8.8 0 0 1-.534.635l-7.86 2.673a.8.8 0 0 1-.52 0l-7.86-2.673a.8.8 0 0 1-.534-.635L2.71 2.123a.807.807 0 0 1 .794-.923H15zm0 .599H3.504a.196.196 0 0 0-.202.23L6.94 25.357a.2.2 0 0 0 .134.159l7.861 2.673a.2.2 0 0 0 .132 0l7.86-2.673a.2.2 0 0 0 .135-.159L26.697 2.03a.196.196 0 0 0-.2-.23"/>
    <path fill="red" d="m15.982 18.224-.444.539q-.666-.444-1.3-.92l.444-.57q.634.539 1.3.951m-1.268 5.737.032-1.902H11.48v-.729h2.885q-.19-.887-.73-1.775-.57-.95-1.014-1.3-.697-.57-1.3-.887.254-.253.54-.634.855.508 1.267.92.603.602 1.015 1.267.507.793.824 1.87.285-.855.539-1.33.348-.666.729-1.078.412-.476.887-.888.158-.158 1.11-.792.062.126.126.222l.032.063.317.317q-.982.602-1.426 1.078-.666.665-1.078 1.394-.285.476-.54 1.553h2.79v.73H15.54l-.063 1.9zm.511-19.462v9h-.451v-9Z"/>
    <path fill="red" d="M19.5 8.774v.45h-9v-.45Z"/>
    <path fill="red" d="m11.977 5.658 6.364 6.364-.318.318-6.364-6.364z"/>
    <path fill="red" d="m18.023 5.658.318.318-6.364 6.364-.318-.318z"/>
</svg>
