<?xml version="1.0" encoding="UTF-8" standalone="no"?>
<!-- Created with Inkscape (http://www.inkscape.org/) -->

<svg
   width="30mm"
   height="34mm"
   viewBox="0 0 30 34"
   version="1.1"
   id="svg1"
   sodipodi:docname="shoshogi.svg"
   inkscape:version="1.4.2 (f4327f4, 2025-05-13)"
   inkscape:export-batch-path="C:\Users\Event\Documents\All My Files\Art\Chess Pieces\Pieces"
   inkscape:export-batch-name=""
   xmlns:inkscape="http://www.inkscape.org/namespaces/inkscape"
   xmlns:sodipodi="http://sodipodi.sourceforge.net/DTD/sodipodi-0.dtd"
   xmlns:xlink="http://www.w3.org/1999/xlink"
   xmlns="http://www.w3.org/2000/svg"
   xmlns:svg="http://www.w3.org/2000/svg">
  <sodipodi:namedview
     id="namedview1"
     pagecolor="#505050"
     bordercolor="#eeeeee"
     borderopacity="1"
     inkscape:showpageshadow="0"
     inkscape:pageopacity="0"
     inkscape:pagecheckerboard="0"
     inkscape:deskcolor="#505050"
     inkscape:document-units="mm"
     inkscape:zoom="1.1101511"
     inkscape:cx="242.30935"
     inkscape:cy="71.61187"
     inkscape:window-width="1920"
     inkscape:window-height="1009"
     inkscape:window-x="1912"
     inkscape:window-y="-8"
     inkscape:window-maximized="1"
     inkscape:current-layer="svg1">
    <inkscape:page
       x="0"
       y="0"
       width="30"
       height="34"
       id="page3"
       margin="0"
       bleed="0"
       inkscape:label="1_PRINCE" />
  </sodipodi:namedview>
  <defs
     id="defs1">
    <linearGradient
       id="linearGradient22">
      <stop
         style="stop-color:#ffdba6;stop-opacity:1;"
         offset="0"
         id="stop21" />
      <stop
         style="stop-color:#f2c478;stop-opacity:1;"
         offset="1"
         id="stop22" />
    </linearGradient>
    <clipPath
       clipPathUnits="userSpaceOnUse"
       id="clipPath1316-31-6-9-2">
      <path
         d="M 0,2834.646 H 2834.646 V 0 H 0 Z"
         transform="translate(-531.98141,-1560.2174)"
         id="path1316-2-1-9-5" />
    </clipPath>
    <linearGradient
       inkscape:collect="always"
       xlink:href="#linearGradient22"
       id="linearGradient25"
       gradientUnits="userSpaceOnUse"
       gradientTransform="translate(-311.81167,-212.60334)"
       x1="289.06915"
       y1="220.19536"
       x2="289.06967"
       y2="143.72234" />
  </defs>
  <g
     id="g24-2-1"
     transform="rotate(180,14.999982,16.999855)">
    <path
       id="path1315-19-1-6-2"
       d="m 0,0 -21.223,7.255 c -0.337,0.115 -0.707,0.115 -1.044,0 L -43.49,0 c -0.512,-0.175 -0.879,-0.593 -0.956,-1.088 L -54.328,-64.8 c -0.128,-0.823 0.569,-1.559 1.477,-1.559 h 31.106 31.106 c 0.907,0 1.605,0.736 1.477,1.559 L 0.955,-1.088 C 0.879,-0.593 0.512,-0.175 0,0"
       style="font-variation-settings:normal;vector-effect:none;fill:url(#linearGradient25);fill-opacity:1;fill-rule:nonzero;stroke:none;stroke-width:1.70079;stroke-linecap:butt;stroke-linejoin:miter;stroke-miterlimit:10;stroke-dasharray:none;stroke-dashoffset:0;stroke-opacity:1;-inkscape-stroke:none;stop-color:#000000"
       transform="matrix(0.35277776,0,0,-0.35277776,22.671156,6.5899252)"
       clip-path="url(#clipPath1316-31-6-9-2)"
       sodipodi:nodetypes="ccccccscsccc" />
    <g
       id="path21-6-0"
       clip-path="url(#clipPath1316-31-6-9-2)"
       style="opacity:1"
       transform="matrix(0.35277776,0,0,-0.35277776,22.671156,6.5899252)">
      <path
         style="baseline-shift:baseline;display:inline;overflow:visible;vector-effect:none;fill:#4d3608;stroke-miterlimit:10;enable-background:accumulate;stop-color:#000000;stop-opacity:1"
         d="m -52.851562,-67.208984 c -1.367538,0 -2.528283,1.176761 -2.316407,2.539062 l 9.88086,63.71289075 c 0.128905,0.82867499 0.735012,1.4929052 1.521484,1.76171875 l 21.224609,7.2558594 c 0.517058,0.1764439 1.07474,0.1764439 1.591797,0 h 0.002 L 0.27539063,0.8046875 C 1.0612855,0.53607108 1.666892,-0.12796753 1.7949219,-0.95703125 v -0.001953 L 11.677734,-64.669922 c 0.21198,-1.362966 -0.949361,-2.539062 -2.3164059,-2.539062 H -21.744141 Z m 0,1.701172 h 31.107421 31.1054691 c 0.4469554,0 0.6807389,0.293137 0.6367188,0.576171 v 0.002 L 0.11523437,-1.2167969 c -0.02457881,0.1600857 -0.15309665,0.33092295 -0.390625,0.4121094 L -21.498047,6.4511719 v -0.00195 c -0.156943,0.053556 -0.337198,0.053556 -0.49414,0 v 0.00195 l -21.222657,-7.2558594 c -0.237528,-0.0811865 -0.36553,-0.2527375 -0.390625,-0.4140625 l -9.882812,-63.710937 v -0.002 c -0.04412,-0.283699 0.188256,-0.576171 0.636719,-0.576171 z"
         id="path23-0-1" />
    </g>
  </g>
  <path
     style="baseline-shift:baseline;display:inline;overflow:visible;vector-effect:none;fill:#ff0000;stroke-width:0.352778;stroke-miterlimit:10;enable-background:accumulate;stop-color:#000000"
     d="m 15.225316,6.8206171 v 8.3584899 h -0.45062 V 6.8206171 Z"
     id="path1317-86-6" />
  <path
     style="baseline-shift:baseline;display:inline;overflow:visible;vector-effect:none;fill:#ff0000;stroke-width:0.352778;stroke-miterlimit:10;enable-background:accumulate;stop-color:#000000"
     d="m 19.179216,10.774561 v 0.450618 h -8.35849 v -0.450618 z"
     id="path1323-8-40" />
  <path
     style="font-size:8.46667px;font-family:Osaka;fill:#ff0000;stroke-width:0.352777"
     d="m 16.008676,20.147788 -0.46302,0.56224 q -0.69453,-0.463021 -1.35599,-0.959115 l 0.46302,-0.595313 q 0.66146,0.56224 1.35599,0.992188 z m -1.32292,5.9862 0.0331,-1.984375 h -3.40651 v -0.760678 h 3.00964 q -0.19844,-0.926042 -0.76068,-1.852084 -0.59531,-0.992188 -1.05833,-1.35599 -0.72761,-0.595313 -1.35599,-0.926042 0.26458,-0.264584 0.56224,-0.661459 0.89297,0.529167 1.32291,0.959115 0.62839,0.628386 1.05834,1.322917 0.52917,0.826824 0.85989,1.951303 0.29766,-0.892969 0.56224,-1.389063 0.36381,-0.694531 0.76068,-1.124479 0.42995,-0.496094 0.92604,-0.926042 0.16537,-0.165365 1.15756,-0.826824 0.0662,0.132292 0.13229,0.231511 0.0331,0.06615 0.0331,0.06615 0,0 0.33073,0.330729 -1.02526,0.628386 -1.48828,1.12448 -0.69454,0.694531 -1.12448,1.455209 -0.29766,0.496094 -0.56224,1.620573 h 2.91042 v 0.760674 h -3.04271 l -0.0661,1.984375 z"
     id="text1328-86-6"
     aria-label="太" />
  <path
     style="baseline-shift:baseline;display:inline;overflow:visible;vector-effect:none;fill:#ff0000;stroke-width:0.352778;stroke-miterlimit:10;enable-background:accumulate;stop-color:#000000"
     d="m 18.114476,8.2039321 -5.91035,5.9103449 -0.31863,-0.318636 5.91034,-5.9103449 z"
     id="path2796-1" />
  <path
     style="baseline-shift:baseline;display:inline;overflow:visible;vector-effect:none;fill:#ff0000;stroke-width:0.352778;stroke-miterlimit:10;enable-background:accumulate;stop-color:#000000"
     d="m 18.114456,13.795622 -0.31863,0.318636 -5.91035,-5.9103449 0.31864,-0.318636 z"
     id="path2798-8" />
</svg>
