<?xml version="1.0" encoding="UTF-8" standalone="no"?>
<!-- Created with Inkscape (http://www.inkscape.org/) -->

<svg
   width="26mm"
   height="30mm"
   viewBox="0 0 26 30"
   version="1.1"
   id="svg1"
   xmlns:xlink="http://www.w3.org/1999/xlink"
   xmlns="http://www.w3.org/2000/svg"
   xmlns:svg="http://www.w3.org/2000/svg">
  <defs
     id="defs1">
    <linearGradient
       id="linearGradient22">
      <stop
         style="stop-color:#ffdba6;stop-opacity:1;"
         offset="0"
         id="stop21" />
      <stop
         style="stop-color:#f2c478;stop-opacity:1;"
         offset="1"
         id="stop22" />
    </linearGradient>
    <clipPath
       clipPathUnits="userSpaceOnUse"
       id="clipPath1316-8">
      <path
         d="M 0,2834.646 H 2834.646 V 0 H 0 Z"
         transform="translate(-531.98141,-1560.2174)"
         id="path1316-8" />
    </clipPath>
    <linearGradient
       xlink:href="#linearGradient22"
       id="linearGradient12"
       gradientUnits="userSpaceOnUse"
       gradientTransform="translate(-935.4365,-722.83954)"
       x1="167.45578"
       y1="740.27698"
       x2="167.41826"
       y2="655.23761" />
  </defs>
  <g
     id="layer1"
     transform="translate(-252)">
    <g
       id="path75"
       clip-path="url(#clipPath1316-8)"
       transform="matrix(-0.35277776,0,0,0.35277776,257.32884,25.410075)">
      <path
         style="color:#000000;fill:url(#linearGradient12);stroke-miterlimit:10;-inkscape-stroke:none"
         d="m 0,0 -21.223,7.255 c -0.337,0.115 -0.707,0.115 -1.044,0 L -43.49,0 c -0.512,-0.175 -0.879,-0.593 -0.956,-1.088 L -54.328,-64.8 c -0.128,-0.823 0.569,-1.559 1.477,-1.559 h 31.106 31.106 c 0.907,0 1.605,0.736 1.477,1.559 L 0.955,-1.088 C 0.879,-0.593 0.512,-0.175 0,0"
         id="path139" />
      <path
         style="color:#000000;fill:#4d3608;stroke-miterlimit:10;-inkscape-stroke:none"
         d="m -52.851562,-67.208984 c -1.367537,0 -2.528283,1.176762 -2.316407,2.539062 l 9.88086,63.71289075 c 0.128904,0.82867416 0.735013,1.49290547 1.521484,1.76171875 l 21.224609,7.2558594 c 0.517057,0.1764437 1.07474,0.1764437 1.591797,0 h 0.002 L 0.27539063,0.8046875 C 1.0612847,0.53607135 1.6668921,-0.12796836 1.7949219,-0.95703125 v -0.001953 L 11.677734,-64.669922 c 0.21198,-1.362964 -0.949363,-2.539062 -2.3164059,-2.539062 H -21.744141 Z m 0,1.701172 h 31.107421 31.1054691 c 0.4469549,0 0.6807389,0.293137 0.6367188,0.576171 v 0.002 L 0.11523437,-1.2167969 c -0.02457878,0.1600856 -0.15309689,0.33092303 -0.390625,0.4121094 L -21.498047,6.4511719 v -0.00195 c -0.156942,0.053556 -0.337198,0.053556 -0.49414,0 v 0.00195 l -21.222657,-7.2558594 c -0.237528,-0.0811864 -0.36553,-0.2527376 -0.390625,-0.4140625 l -9.882812,-63.710937 v -0.002 c -0.04412,-0.283698 0.188257,-0.576171 0.636719,-0.576171 z"
         id="path140" />
    </g>
    <path
       style="stroke-width:0.352777"
       d="m -312.91181,-16.375541 0.5442,-0.171852 q 0.31506,0.773333 0.3437,1.031111 l -0.51555,0.229135 q -0.11457,-0.458271 -0.37235,-1.088394 z m 2.23408,-0.200494 0.54419,0.229136 -0.45827,0.973826 q -0.11457,-0.02864 -0.22913,-0.114567 -0.0573,-0.02864 -0.11457,-0.05728 -0.0573,-0.02864 -0.14321,-0.02864 0.0859,-0.200494 0.17185,-0.42963 0.11457,-0.229135 0.22914,-0.572839 z m 3.26518,-1.317529 v -0.658765 h -1.68988 v 0.658765 z m 0,-1.202962 v -0.658765 h -1.68988 v 0.658765 z m -2.34864,4.324934 v -5.58518 h 2.97876 v 3.064689 h -1.05975 q 0.0573,0.544197 0.0573,0.572839 0.0286,0.114567 0.0859,0.400987 l 1.00247,-0.744691 0.40098,0.572839 q -0.3437,0.200494 -1.17432,0.744691 0.11457,0.286419 0.28642,0.486913 0.22914,0.28642 0.34371,0.400987 0.11456,0.05728 0.22913,0.14321 0.11457,0.05728 0.37235,0.229136 -0.17185,0.171852 -0.25778,0.229135 -0.0573,0.05728 -0.11457,0.114568 -0.0286,0.02864 -0.0859,0.08593 -0.0286,0.05728 -0.0859,0.114568 -0.63012,-0.486913 -0.85926,-0.801975 -0.37234,-0.429629 -0.5442,-0.945184 -0.25777,-0.744691 -0.28641,-1.603949 h -0.63013 v 2.34864 q 0.25778,-0.08593 0.48692,-0.14321 0.22913,-0.05728 0.45827,-0.114568 l 0.0286,0.630123 q -1.7758,0.515555 -1.9763,0.572839 l -0.17185,-0.658765 z m -1.89037,-5.928884 0.60148,0.315062 -0.0859,0.143209 0.51556,0.400988 q 0.0573,0.02864 0.20049,0.171851 l 0.42963,0.343704 -0.45827,0.544197 q -0.74469,-0.687407 -0.74469,-0.687407 -0.0859,-0.08593 -0.17185,-0.14321 -0.0573,-0.05728 -0.11457,-0.08592 -0.48691,0.773332 -0.80197,1.088394 h 1.80444 v 0.544197 h -0.71605 v 0.601481 h 0.8879 v 0.544197 h -0.8879 v 1.833085 q 0.57284,-0.114568 0.85926,-0.200494 v 0.601481 q -0.60148,0.171852 -1.37482,0.343704 l -1.08839,0.257777 -0.17185,-0.687407 1.17432,-0.171851 v -1.976295 h -1.00247 v -0.544197 h 1.00247 v -0.601481 h -0.57284 v -0.429629 l -0.3437,0.372345 q -0.22914,-0.400987 -0.37235,-0.601481 0.80198,-0.801975 1.4321,-1.976295 z m 6.2153,1.432098 0.60148,0.05728 q -0.0286,0.286419 -0.0286,0.544197 0,0.257777 -0.0286,0.372345 -0.0286,0.171852 -0.0573,0.372346 0,0.171851 -0.0859,0.572839 l -0.57284,-0.08593 q 0.17185,-0.945185 0.17185,-1.833085 z m 4.12444,2.49185 v -0.973827 h -0.77333 v 0.973827 z m -0.94518,-2.119505 -0.22914,0.601481 h 1.80445 v 2.090863 h -1.40346 v 1.260246 q 0,0.143209 0.11457,0.171851 0.11457,0.05728 0.5442,0.05728 h 1.40345 q 0.2005,0 0.28642,-0.08593 0.0859,-0.05728 0.22914,-0.572839 0.20049,0.200494 0.60148,0.372346 -0.17185,0.486913 -0.28642,0.630123 -0.17185,0.171851 -0.28642,0.200493 -0.0859,0.02864 -0.60148,0.02864 h -1.51803 q -0.54419,0 -0.63012,-0.02864 -0.20049,-0.08593 -0.3437,-0.229135 -0.14321,-0.14321 -0.14321,-0.343704 v -3.093331 q -0.25778,0.458272 -0.34371,0.544198 -0.14321,-0.200494 -0.48691,-0.544198 0.45827,-0.658764 0.68741,-1.231604 0.28642,-0.687406 0.48691,-1.575307 l 0.63012,0.14321 -0.28642,1.03111 h 2.72099 q 0,2.405924 -0.11457,3.207899 -0.0573,0.486913 -0.22913,0.630123 -0.14321,0.14321 -0.68741,0.200493 -0.0859,-0.286419 -0.22914,-0.630123 h 0.31507 q 0.11456,0 0.14321,-0.02864 0.0286,-0.02864 0.0859,-0.458272 0,0 0.0573,-2.34864 z m -2.32,-1.747159 h 0.63012 v 1.632591 q 0.0859,-0.08592 0.14321,-0.143209 0.0573,-0.08593 0.14321,-0.14321 0.0859,-0.08593 0.14321,-0.171852 0.0859,-0.08593 0.2005,-0.200494 l 0.42963,0.486914 -1.0884,0.973826 q -0.0573,1.03111 -0.11457,1.489382 0.5442,0.945184 0.94519,1.489381 l -0.48691,0.458271 q -0.37235,-0.515555 -0.65877,-1.117036 -0.31506,1.002469 -0.91654,1.775801 -0.28642,-0.400987 -0.45827,-0.544197 0.54419,-0.687407 0.71605,-1.231604 0.17185,-0.458271 0.31506,-1.546665 0.0573,-0.801975 0.0573,-3.207899 z"
       id="text75"
       transform="scale(-0.86602543,-1.1547005)"
       aria-label="銀炮" />
    <path
       style="color:#000000;fill:#000000 icc-color(sRGB-IEC61966-2, 0.1, 0, 0, 0);stroke-miterlimit:10;-inkscape-stroke:none"
       d="m -0.63867187,-1.4179687 v 7.5957031 h 1.27734374 v -7.5957031 z m 0,18.9335937 v 7.59375 h 1.27734374 v -7.59375 z"
       id="path76"
       transform="matrix(-0.35277776,0,0,0.35277776,265.29886,4.3208628)" />
    <path
       style="color:#000000;fill:#000000 icc-color(sRGB-IEC61966-2, 0.1, 0, 0, 0);stroke-miterlimit:10;-inkscape-stroke:none"
       d="m -25.111328,-0.63867187 v 1.27734374 h 7.595703 v -1.27734374 z m 18.9335936,0 v 1.27734374 h 7.59375 v -1.27734374 z"
       id="path77"
       transform="matrix(-0.35277776,0,0,0.35277776,261.11958,8.5001148)" />
    <path
       style="color:#000000;fill:#000000;stroke-miterlimit:10;-inkscape-stroke:none"
       d="M -0.28515625,-0.28515625 -3.2910156,2.7226563 -2.7226563,3.2910156 0.28515625,0.28515625 Z"
       id="path78"
       transform="matrix(0.39547498,0.39547498,0.3954795,-0.3954795,263.2989,9.6891528)" />
    <path
       style="color:#000000;fill:#000000;stroke-miterlimit:10;-inkscape-stroke:none"
       d="M -0.28515625,-0.28515625 -3.2910156,2.7226563 -2.7226563,3.2910156 0.28515625,0.28515625 Z"
       id="path79"
       transform="matrix(0.39547498,0.39547498,0.3954795,-0.3954795,267.29863,9.6891528)" />
    <path
       style="color:#000000;fill:#000000;stroke-miterlimit:10;-inkscape-stroke:none"
       d="M -0.28515625,-0.28515625 -3.2910156,2.7226563 -2.7226563,3.2910156 0.28515625,0.28515625 Z"
       id="path80"
       transform="matrix(-0.39547498,0.39547498,0.3954795,0.3954795,264.10982,6.4995718)" />
    <path
       style="color:#000000;fill:#000000;stroke-miterlimit:10;-inkscape-stroke:none"
       d="M 0.28515625,-0.28515625 -0.28515625,0.28515625 2.7226563,3.2910156 3.2910156,2.7226563 Z"
       id="path81"
       transform="matrix(-0.39547498,-0.39547498,-0.3954795,0.3954795,266.488,10.500347)" />
    <path
       style="color:#000000;fill:#000000;stroke-miterlimit:10;-inkscape-stroke:none"
       d="M 0.40429688,-0.40429688 -0.40429688,0.40429688 2.1484375,2.9570313 4.7011719,0.40429688 3.890625,-0.40429688 2.1484375,1.3398437 Z"
       id="path82"
       transform="matrix(-0.39310378,0,0,0.39310397,266.14333,12.33492)" />
    <path
       style="color:#000000;fill:#000000;stroke-miterlimit:10;-inkscape-stroke:none"
       d="m -2.1484375,-2.9570313 -2.5527344,2.55273442 0.8105469,0.80859376 1.7421875,-1.74414058 1.74414062,1.74414058 0.80859376,-0.80859376 z"
       id="path83"
       transform="matrix(-0.39310378,0,0,0.39310397,264.45468,4.6650168)" />
    <path
       style="color:#000000;fill:#000000;stroke-miterlimit:10;-inkscape-stroke:none"
       d="M 0.40429688,-0.40429688 -0.40429688,0.40429688 2.1484375,2.9570313 4.7011719,0.40429688 3.890625,-0.40429688 2.1484375,1.3398437 Z"
       id="path84"
       transform="matrix(0,-0.39310378,-0.39310397,0,261.46399,9.3442948)" />
    <path
       style="color:#000000;fill:#000000;stroke-miterlimit:10;-inkscape-stroke:none"
       d="m -2.1484375,-2.9570313 -2.5527344,2.55273442 0.8105469,0.80859376 1.7421875,-1.74414058 1.74414062,1.74414058 0.80859376,-0.80859376 z"
       id="path85"
       transform="matrix(0,-0.39310378,-0.39310397,0,269.13402,7.6556448)" />
  </g>
</svg>
