<?xml version="1.0" encoding="UTF-8" standalone="no"?>
<!-- Created with Inkscape (http://www.inkscape.org/) -->

<svg
   width="27.117002mm"
   height="31.358999mm"
   viewBox="0 0 27.117003 31.358999"
   version="1.1"
   id="svg1"
   xmlns:xlink="http://www.w3.org/1999/xlink"
   xmlns="http://www.w3.org/2000/svg"
   xmlns:svg="http://www.w3.org/2000/svg">
  <defs
     id="defs1">
    <linearGradient
       id="linearGradient89">
      <stop
         style="stop-color:#f2c478;stop-opacity:1;"
         offset="0"
         id="stop89" />
      <stop
         style="stop-color:#ffdba6;stop-opacity:1;"
         offset="1"
         id="stop88" />
    </linearGradient>
    <clipPath
       clipPathUnits="userSpaceOnUse"
       id="clipPath1316-8">
      <path
         d="M 0,2834.646 H 2834.646 V 0 H 0 Z"
         transform="translate(-531.98141,-1560.2174)"
         id="path1316-8" />
    </clipPath>
    <linearGradient
       xlink:href="#linearGradient89"
       id="linearGradient4"
       gradientUnits="userSpaceOnUse"
       gradientTransform="rotate(180,-685.84293,330.94864)"
       x1="-1283.1606"
       y1="735.85059"
       x2="-1283.1606"
       y2="646.95892" />
  </defs>
  <g
     id="path1315-1"
     clip-path="url(#clipPath1316-8)"
     transform="matrix(-0.35277776,0,0,0.35277776,5.8872651,26.089084)">
    <path
       style="color:#000000;font-variation-settings:normal;opacity:1;vector-effect:none;fill:url(#linearGradient4);fill-opacity:1;stroke-width:1;stroke-linecap:butt;stroke-linejoin:miter;stroke-miterlimit:10;stroke-dasharray:none;stroke-dashoffset:0;stroke-opacity:1;-inkscape-stroke:none;stop-color:#000000;stop-opacity:1"
       d="m 0,0 -21.223,7.255 c -0.337,0.115 -0.707,0.115 -1.044,0 L -43.49,0 c -0.512,-0.175 -0.879,-0.593 -0.956,-1.088 L -54.328,-64.8 c -0.128,-0.823 0.569,-1.559 1.477,-1.559 h 31.106 31.106 c 0.907,0 1.605,0.736 1.477,1.559 L 0.955,-1.088 C 0.879,-0.593 0.512,-0.175 0,0"
       id="path9" />
    <path
       style="color:#000000;fill:#4d3608;stroke-miterlimit:10;-inkscape-stroke:none"
       d="m -52.851562,-67.208984 c -1.367537,0 -2.528283,1.176762 -2.316407,2.539062 l 9.88086,63.71289075 c 0.128904,0.82867416 0.735013,1.49290547 1.521484,1.76171875 l 21.224609,7.2558594 c 0.517057,0.1764437 1.07474,0.1764437 1.591797,0 h 0.002 L 0.27539063,0.8046875 C 1.0612847,0.53607135 1.6668921,-0.12796836 1.7949219,-0.95703125 v -0.001953 L 11.677734,-64.669922 c 0.21198,-1.362964 -0.949363,-2.539062 -2.3164059,-2.539062 H -21.744141 Z m 0,1.701172 h 31.107421 31.1054691 c 0.4469549,0 0.6807389,0.293137 0.6367188,0.576171 v 0.002 L 0.11523437,-1.2167969 c -0.02457878,0.1600856 -0.15309689,0.33092303 -0.390625,0.4121094 L -21.498047,6.4511719 v -0.00195 c -0.156942,0.053556 -0.337198,0.053556 -0.49414,0 v 0.00195 l -21.222657,-7.2558594 c -0.237528,-0.0811864 -0.36553,-0.2527376 -0.390625,-0.4140625 l -9.882812,-63.710937 v -0.002 c -0.04412,-0.283698 0.188257,-0.576171 0.636719,-0.576171 z"
       id="path10" />
  </g>
  <path
     style="color:#000000;fill:#000000 icc-color(sRGB-IEC61966-2, 0.1, 0, 0, 0);stroke-width:0.352778;stroke-miterlimit:10;-inkscape-stroke:none"
     d="M 13.783404,6.5001557 V 14.858646 H 13.332785 V 6.5001557 Z"
     id="path1317-1-0-0" />
  <path
     style="color:#000000;fill:#000000 icc-color(sRGB-IEC61966-2, 0.1, 0, 0, 0);stroke-width:0.352778;stroke-miterlimit:10;-inkscape-stroke:none"
     d="m 17.737305,10.454098 v 0.450619 H 9.3788151 v -0.450619 z"
     id="path1323-3-0-9" />
  <path
     style="color:#000000;fill:#000000;stroke-width:0.559289;stroke-miterlimit:10;-inkscape-stroke:none"
     d="m 17.96281,9.4901574 -7.86e-4,2.3782706 -0.449546,2e-6 -7.59e-4,-2.37827 z"
     id="path4451-7-08-5-4-29-3-5" />
  <path
     style="color:#000000;fill:#000000;stroke-width:0.559289;stroke-miterlimit:10;-inkscape-stroke:none"
     d="m 9.6048101,11.868341 -0.451091,-3e-6 7.59e-4,-2.37827 0.449546,2.6e-6 z"
     id="path4449-0-4-3-4-8-3" />
  <path
     style="color:#000000;fill:#000000;stroke-width:0.559289;stroke-miterlimit:10;-inkscape-stroke:none"
     d="m 12.369053,6.2746891 2.378271,7.86e-4 2e-6,0.4495463 -2.37827,7.589e-4 z"
     id="path4451-7-08-5-4-29-3" />
  <path
     style="color:#000000;fill:#000000;stroke-width:0.559289;stroke-miterlimit:10;-inkscape-stroke:none"
     d="m 14.747266,14.632691 -3e-6,0.451091 -2.37827,-7.59e-4 3e-6,-0.449546 z"
     id="path4449-0-4-3-4-8" />
  <path
     style="stroke-width:0.352777"
     d="m 19.548037,19.587853 -0.471288,0.198436 q -0.272852,-0.892966 -0.297656,-1.190623 l 0.446483,-0.264582 q 0.09922,0.529166 0.322461,1.256769 z m -1.934764,0.23151 -0.471288,-0.264583 0.396875,-1.124478 q 0.09922,0.03307 0.198437,0.132291 0.04961,0.03307 0.09922,0.06614 0.04961,0.03307 0.124023,0.03307 -0.07442,0.231511 -0.148828,0.496093 -0.09922,0.264583 -0.198438,0.661458 z m -2.82773,1.521352 v 0.760676 h 1.463474 v -0.760676 z m 0,1.389061 v 0.760676 h 1.463474 v -0.760676 z m 2.033982,-4.994005 v 6.449211 H 14.23984 v -3.538797 h 0.917772 q -0.04961,-0.628385 -0.04961,-0.661458 -0.0248,-0.132291 -0.07442,-0.46302 l -0.868163,0.859895 -0.347265,-0.661458 q 0.297656,-0.23151 1.016991,-0.859894 -0.09922,-0.33073 -0.248047,-0.562239 -0.198437,-0.330729 -0.297655,-0.463021 -0.09922,-0.06614 -0.198438,-0.165365 -0.09922,-0.06614 -0.32246,-0.264582 0.148827,-0.198438 0.223241,-0.264583 0.04961,-0.06614 0.09922,-0.132292 0.0248,-0.03307 0.07442,-0.09921 0.0248,-0.06614 0.07442,-0.132292 0.545703,0.562239 0.744139,0.92604 0.322462,0.496094 0.47129,1.091406 0.223241,0.859895 0.248046,1.852081 h 0.545702 v -2.711977 q -0.223242,0.09922 -0.421679,0.165365 -0.198437,0.06614 -0.396874,0.132292 l -0.0248,-0.727603 q 1.537889,-0.595312 1.711521,-0.661458 l 0.148828,0.760676 z m 1.637107,6.846086 -0.520898,-0.363802 0.07442,-0.165364 -0.446485,-0.46302 q -0.0496,-0.03307 -0.173632,-0.198438 l -0.372069,-0.396874 0.396874,-0.628385 q 0.644918,0.793749 0.644918,0.793749 0.07441,0.09922 0.148827,0.165365 0.04961,0.06614 0.09922,0.09922 0.421679,-0.892967 0.694531,-1.256769 h -1.562694 v -0.628385 h 0.620117 v -0.69453 h -0.768945 v -0.628385 h 0.768945 v -2.116664 q -0.496094,0.132292 -0.74414,0.231511 v -0.694531 q 0.520898,-0.198437 1.190624,-0.396875 l 0.942577,-0.297655 0.148828,0.793748 -1.016991,0.198438 v 2.282028 h 0.868163 v 0.628385 h -0.868163 v 0.69453 h 0.496093 v 0.496093 L 19.374408,21.6053 q 0.198437,0.46302 0.32246,0.694531 -0.69453,0.92604 -1.240233,2.282028 z m -5.382611,-1.653644 -0.520898,-0.06615 q 0.0248,-0.330729 0.0248,-0.628384 0,-0.297656 0.0248,-0.429948 0.0248,-0.198437 0.04961,-0.429947 0,-0.198437 0.07442,-0.661458 l 0.496093,0.09922 q -0.148828,1.091405 -0.148828,2.116664 z m -3.5718709,-2.87734 v 1.124478 h 0.6697259 v -1.124478 z m 0.8185539,2.447393 0.198437,-0.694531 H 8.9564481 v -2.41432 h 1.2154279 v -1.455206 q 0,-0.165365 -0.09922,-0.198438 -0.09922,-0.06614 -0.4712879,-0.06614 h -1.215429 q -0.173632,0 -0.248046,0.09922 -0.07442,0.06614 -0.198437,0.661458 -0.173633,-0.23151 -0.520898,-0.429947 0.148828,-0.562239 0.248047,-0.727604 0.148827,-0.198437 0.248046,-0.23151 0.07442,-0.03307 0.520898,-0.03307 h 1.314647 q 0.4712889,0 0.5457019,0.03307 0.173633,0.09922 0.297656,0.264583 0.124024,0.165365 0.124024,0.396874 v 3.571862 q 0.223241,-0.529166 0.297655,-0.628384 0.124024,0.23151 0.421679,0.628384 -0.396874,0.760676 -0.595312,1.422134 -0.248046,0.793749 -0.421679,1.819008 L 9.8742191,24.350345 10.122266,23.159721 H 7.7658231 q 0,-2.778121 0.09922,-3.704162 0.04961,-0.562238 0.198437,-0.727603 0.124024,-0.165365 0.595312,-0.231511 0.07442,0.33073 0.198437,0.727604 h -0.272851 q -0.09922,0 -0.124023,0.03307 -0.0248,0.03307 -0.07442,0.529166 0,0 -0.04961,2.711976 z m 2.009178,2.017445 h -0.545703 v -1.885154 q -0.07442,0.09922 -0.124023,0.165365 -0.04961,0.09922 -0.124024,0.165364 -0.07442,0.09922 -0.124023,0.198437 -0.07442,0.09922 -0.173632,0.23151 l -0.372071,-0.562238 0.942578,-1.124478 q 0.04961,-1.190624 0.09922,-1.71979 -0.471289,-1.091404 -0.818554,-1.719789 l 0.421679,-0.529167 q 0.322462,0.595313 0.570508,1.289842 0.272851,-1.15755 0.793748,-2.050518 0.248047,0.463021 0.396876,0.628386 -0.471289,0.793748 -0.620117,1.422132 -0.148828,0.529167 -0.272852,1.785936 -0.04961,0.926041 -0.04961,3.704162 z"
     id="text1328-5-0-9-7-0-8-5-7"
     aria-label="銀炮" />
</svg>
