<?xml version="1.0" encoding="UTF-8" standalone="no"?>
<!-- Created with Inkscape (http://www.inkscape.org/) -->

<svg
   width="27.117002mm"
   height="31.358999mm"
   viewBox="0 0 27.117003 31.358999"
   version="1.1"
   id="svg1"
   xmlns:xlink="http://www.w3.org/1999/xlink"
   xmlns="http://www.w3.org/2000/svg"
   xmlns:svg="http://www.w3.org/2000/svg">
  <defs
     id="defs1">
    <linearGradient
       id="linearGradient61">
      <stop
         style="stop-color:#f2c478;stop-opacity:1;"
         offset="0"
         id="stop61" />
      <stop
         style="stop-color:#ffdba6;stop-opacity:1;"
         offset="1"
         id="stop60" />
    </linearGradient>
    <clipPath
       clipPathUnits="userSpaceOnUse"
       id="clipPath1316-8">
      <path
         d="M 0,2834.646 H 2834.646 V 0 H 0 Z"
         transform="translate(-531.98141,-1560.2174)"
         id="path1316-8" />
    </clipPath>
    <linearGradient
       xlink:href="#linearGradient61"
       id="linearGradient7"
       gradientUnits="userSpaceOnUse"
       gradientTransform="rotate(180,-232.07828,82.037573)"
       x1="222.31836"
       y1="231.2834"
       x2="222.31836"
       y2="155.88185" />
  </defs>
  <g
     id="layer1"
     transform="translate(-222.70201)">
    <g
       id="path1315-1"
       clip-path="url(#clipPath1316-8)"
       transform="matrix(-0.35277776,0,0,0.35277776,228.58927,26.089084)">
      <path
         style="color:#000000;font-variation-settings:normal;opacity:1;vector-effect:none;fill:url(#linearGradient7);fill-opacity:1;stroke-width:1;stroke-linecap:butt;stroke-linejoin:miter;stroke-miterlimit:10;stroke-dasharray:none;stroke-dashoffset:0;stroke-opacity:1;-inkscape-stroke:none;stop-color:#000000;stop-opacity:1"
         d="m 0,0 -21.223,7.255 c -0.337,0.115 -0.707,0.115 -1.044,0 L -43.49,0 c -0.512,-0.175 -0.879,-0.593 -0.956,-1.088 L -54.328,-64.8 c -0.128,-0.823 0.569,-1.559 1.477,-1.559 h 31.106 31.106 c 0.907,0 1.605,0.736 1.477,1.559 L 0.955,-1.088 C 0.879,-0.593 0.512,-0.175 0,0"
         id="path21" />
      <path
         style="color:#000000;fill:#4d3608;stroke-miterlimit:10;-inkscape-stroke:none"
         d="m -52.851562,-67.208984 c -1.367537,0 -2.528283,1.176762 -2.316407,2.539062 l 9.88086,63.71289075 c 0.128904,0.82867416 0.735013,1.49290547 1.521484,1.76171875 l 21.224609,7.2558594 c 0.517057,0.1764437 1.07474,0.1764437 1.591797,0 h 0.002 L 0.27539063,0.8046875 C 1.0612847,0.53607135 1.6668921,-0.12796836 1.7949219,-0.95703125 v -0.001953 L 11.677734,-64.669922 c 0.21198,-1.362964 -0.949363,-2.539062 -2.3164059,-2.539062 H -21.744141 Z m 0,1.701172 h 31.107421 31.1054691 c 0.4469549,0 0.6807389,0.293137 0.6367188,0.576171 v 0.002 L 0.11523437,-1.2167969 c -0.02457878,0.1600856 -0.15309689,0.33092303 -0.390625,0.4121094 L -21.498047,6.4511719 v -0.00195 c -0.156942,0.053556 -0.337198,0.053556 -0.49414,0 v 0.00195 l -21.222657,-7.2558594 c -0.237528,-0.0811864 -0.36553,-0.2527376 -0.390625,-0.4140625 l -9.882812,-63.710937 v -0.002 c -0.04412,-0.283698 0.188257,-0.576171 0.636719,-0.576171 z"
         id="path22" />
    </g>
    <path
       style="color:#000000;fill:#000000 icc-color(sRGB-IEC61966-2, 0.1, 0, 0, 0);stroke-width:0.352778;stroke-miterlimit:10;-inkscape-stroke:none"
       d="M 236.48542,6.5001547 V 14.858645 H 236.0348 V 6.5001547 Z"
       id="path1317-1-0-0" />
    <path
       style="color:#000000;fill:#000000 icc-color(sRGB-IEC61966-2, 0.1, 0, 0, 0);stroke-width:0.352778;stroke-miterlimit:10;-inkscape-stroke:none"
       d="m 240.43931,10.454097 v 0.450619 h -8.35849 v -0.450619 z"
       id="path1323-3-0-9" />
    <path
       style="color:#000000;fill:#000000;stroke-width:0.559289;stroke-miterlimit:10;-inkscape-stroke:none"
       d="m 240.66481,9.4901564 -7.8e-4,2.3782706 -0.44955,2e-6 -7.6e-4,-2.37827 z"
       id="path4451-7-08-5-4-29-3-5" />
    <path
       style="color:#000000;fill:#000000;stroke-width:0.559289;stroke-miterlimit:10;-inkscape-stroke:none"
       d="m 232.30681,11.86834 -0.45109,-3e-6 7.6e-4,-2.37827 0.44955,2.6e-6 z"
       id="path4449-0-4-3-4-8-3" />
    <path
       style="color:#000000;fill:#000000;stroke-width:0.559289;stroke-miterlimit:10;-inkscape-stroke:none"
       d="m 235.07106,6.2746881 2.37827,7.86e-4 v 0.4495463 l -2.37827,7.589e-4 z"
       id="path4451-7-08-5-4-29-3" />
    <path
       style="color:#000000;fill:#000000;stroke-width:0.559289;stroke-miterlimit:10;-inkscape-stroke:none"
       d="m 237.44925,14.63269 v 0.451091 l -2.37827,-7.59e-4 v -0.449546 z"
       id="path4449-0-4-3-4-8" />
    <path
       style="stroke-width:0.352777"
       d="m 240.17044,22.471839 -0.65456,0.103353 q -0.37896,-0.465088 -0.41341,-0.620117 l 0.62011,-0.137803 q 0.13788,0.275607 0.44786,0.654567 z m -2.68717,0.120578 -0.65457,-0.137804 0.55122,-0.585665 q 0.13774,0.01722 0.27561,0.0689 0.0689,0.01722 0.13775,0.03445 0.0689,0.01722 0.17225,0.01722 -0.10338,0.120578 -0.2067,0.258382 -0.13775,0.137804 -0.27562,0.344509 z m -3.9274,0.792371 v 0.396186 h 2.03261 v -0.396186 z m 0,0.723468 v 0.396186 h 2.03261 v -0.396186 z m 2.82498,-2.601042 v 3.358963 h -3.5829 v -1.843124 h 1.27469 q -0.0689,-0.327283 -0.0689,-0.344508 -0.0345,-0.0689 -0.10338,-0.241157 l -1.20578,0.447862 -0.48231,-0.344509 q 0.41341,-0.120578 1.41249,-0.447862 -0.13775,-0.172255 -0.34451,-0.292833 -0.27561,-0.172254 -0.41341,-0.241156 -0.13775,-0.03445 -0.27561,-0.08613 -0.13788,-0.03445 -0.44786,-0.137804 0.2067,-0.103353 0.31005,-0.137804 0.0689,-0.03445 0.13788,-0.0689 0.0345,-0.01722 0.10338,-0.05168 0.0345,-0.03445 0.10338,-0.0689 0.75792,0.292833 1.03352,0.482312 0.44787,0.258382 0.65457,0.568441 0.31007,0.447861 0.34452,0.964625 h 0.75792 v -1.41248 q -0.31007,0.05168 -0.58567,0.08613 -0.2756,0.03445 -0.55122,0.0689 l -0.0345,-0.378961 q 2.13595,-0.310058 2.3771,-0.344509 l 0.20672,0.396186 z m 2.27376,3.565668 -0.72347,-0.18948 0.10338,-0.08613 -0.62012,-0.241156 q -0.0689,-0.01723 -0.24115,-0.103353 l -0.51677,-0.206706 0.55122,-0.327283 q 0.89572,0.413411 0.89572,0.413411 0.10337,0.05168 0.2067,0.08613 0.0689,0.03445 0.13788,0.05168 0.58566,-0.465087 0.96462,-0.654568 h -2.1704 v -0.327282 h 0.86127 V 23.12641 h -1.06798 v -0.327284 h 1.06798 v -1.102429 q -0.68902,0.0689 -1.03352,0.120578 v -0.361734 q 0.72346,-0.103353 1.65364,-0.206705 l 1.30913,-0.15503 0.2067,0.413411 -1.41248,0.103353 v 1.188556 h 1.20578 v 0.327284 h -1.20578 v 0.361735 h 0.68901 v 0.258382 l 0.41342,-0.223931 q 0.2756,0.241156 0.44786,0.361734 -0.96463,0.482313 -1.72255,1.188556 z"
       id="text1304-2-2-0-7"
       aria-label="銀" />
    <path
       style="stroke-width:0.352777"
       d="m 239.89829,20.172738 -0.69453,-0.03307 q 0.0331,-0.165364 0.0331,-0.314192 0,-0.148827 0.0331,-0.214974 0.0331,-0.09922 0.0662,-0.214973 0,-0.09922 0.0993,-0.330729 l 0.66145,0.04961 q -0.19843,0.545703 -0.19843,1.058332 z m -4.7625,-1.43867 v 0.562239 h 0.89297 v -0.562239 z m 1.0914,1.223697 0.26459,-0.347266 h -2.08359 v -1.20716 h 1.62057 v -0.727603 q 0,-0.08268 -0.13222,-0.09922 -0.13223,-0.03307 -0.62838,-0.03307 h -1.62058 q -0.2315,0 -0.33073,0.04961 -0.0993,0.03307 -0.26458,0.330729 -0.23151,-0.115756 -0.69452,-0.214974 0.19843,-0.28112 0.33073,-0.363802 0.19843,-0.09922 0.33072,-0.115755 0.0993,-0.01654 0.69453,-0.01654 h 1.75286 q 0.62839,0 0.72761,0.01654 0.23151,0.04961 0.39687,0.132292 0.16536,0.08268 0.16536,0.198437 v 1.785932 q 0.29767,-0.264583 0.39687,-0.314192 0.16537,0.115755 0.56225,0.314192 -0.52917,0.380338 -0.79375,0.711067 -0.33073,0.396874 -0.56224,0.909504 l -0.7276,-0.08268 0.33073,-0.595312 h -3.14193 q 0,-1.389061 0.13223,-1.852081 0.0662,-0.281119 0.26459,-0.363802 0.16536,-0.08268 0.79375,-0.115755 0.0993,0.165364 0.26459,0.363802 h -0.36381 q -0.13223,0 -0.16536,0.01654 -0.0331,0.01654 -0.0993,0.264583 0,0 -0.0662,1.355988 z m 2.67891,1.008722 h -0.7276 V 20.02391 q -0.0993,0.04961 -0.16537,0.08268 -0.0662,0.04961 -0.16536,0.08268 -0.0993,0.04961 -0.16537,0.09922 -0.0993,0.04961 -0.2315,0.115755 l -0.49609,-0.281119 1.25676,-0.562239 q 0.0662,-0.595312 0.13223,-0.859895 -0.62837,-0.545702 -1.0914,-0.859894 l 0.56223,-0.264583 q 0.42995,0.297655 0.76068,0.644921 0.36381,-0.578776 1.05834,-1.02526 0.33073,0.23151 0.52916,0.314192 -0.62838,0.396875 -0.82682,0.711068 -0.19843,0.264583 -0.36379,0.892967 -0.0662,0.46302 -0.0662,1.852081 z"
       id="text1328-5-0-9-7-0-5-0"
       aria-label="炮" />
  </g>
</svg>
