<?xml version="1.0" encoding="UTF-8" standalone="no"?>
<!-- Created with Inkscape (http://www.inkscape.org/) -->

<svg
   width="27.116995mm"
   height="31.358999mm"
   viewBox="0 0 27.116995 31.358999"
   version="1.1"
   id="svg1"
   xmlns="http://www.w3.org/2000/svg"
   xmlns:svg="http://www.w3.org/2000/svg">
  <defs
     id="defs1">
    <clipPath
       clipPathUnits="userSpaceOnUse"
       id="clipPath1278">
      <path
         d="M 0,2834.646 H 2834.646 V 0 H 0 Z"
         transform="translate(-101.8765,-1555.7911)"
         id="path1278" />
    </clipPath>
  </defs>
  <g
     id="path1277"
     clip-path="url(#clipPath1278)"
     transform="matrix(-0.35277776,0,0,0.35277776,7.6162747,24.528047)">
    <path
       style="color:#000000;fill:#ffdb9d;stroke-miterlimit:10;-inkscape-stroke:none"
       d="m 0,0 -16.217,5.989 c -0.397,0.146 -0.844,0.146 -1.241,0 L -33.674,0 c -0.531,-0.196 -0.903,-0.627 -0.975,-1.131 l -7.687,-53.534 c -0.122,-0.848 0.627,-1.598 1.595,-1.598 h 23.904 23.903 c 0.969,0 1.717,0.75 1.596,1.598 L 0.975,-1.131 C 0.902,-0.627 0.531,-0.196 0,0"
       id="path1" />
    <path
       style="color:#000000;fill:#000000 icc-color(sRGB-IEC61966-2, 0.1, 0, 0, 0);stroke-miterlimit:10;-inkscape-stroke:none"
       d="m -40.740234,-56.900391 c -1.297439,0 -2.408506,1.061516 -2.226563,2.326172 l 7.685547,53.5332034 c 0.108296,0.75807314 0.661553,1.37100227 1.386719,1.63867185 l 16.216797,5.99023435 c 0.542556,0.1995297 1.139083,0.1995297 1.68164,0 L 0.22070313,0.59765625 C 0.94611322,0.32989659 1.4959191,-0.28271949 1.6054687,-1.0390625 L 9.2929688,-54.574219 c 0.1803507,-1.263946 -0.9284643,-2.326172 -2.2265626,-2.326172 H -16.837891 Z m 0,1.275391 h 23.902343 23.9042972 c 0.6398998,0 1.0264928,0.437088 0.9648438,0.869141 l -7.6875,53.5332028 c -0.0364502,0.25165593 -0.22786428,0.50076 -0.56445313,0.62499995 L -16.4375,5.390625 c -0.250829,0.092244 -0.547774,0.091794 -0.798828,0 h -0.002 l -16.214844,-5.98828125 c -0.336833,-0.12433002 -0.528749,-0.37312105 -0.564453,-0.62304685 l -7.6875,-53.5351559 c -0.06206,-0.431343 0.326284,-0.869141 0.964844,-0.869141 z"
       id="path2" />
  </g>
  <path
     style="color:#000000;fill:#000000 icc-color(sRGB-IEC61966-2, 0.1, 0, 0, 0);stroke-width:0.352778;stroke-miterlimit:10;-inkscape-stroke:none"
     d="m 13.956144,10.679545 v 2.999989 h -0.300412 v -2.999989 z"
     id="path1279" />
  <path
     style="fill:#231f20 icc-color(sRGB-IEC61966-2, 0.1, 0.13699341, 0.12199402, 0.125);stroke-width:0.35424"
     d="m 16.856612,16.173663 q 0.0984,0.429949 0.295204,0.760679 -0.951212,0.03308 -2.099226,0.330729 -0.918411,0.231511 -1.60722,0.727606 -0.688807,0.463021 -1.344815,1.190627 l -0.590408,-0.463021 q 0.75441,-0.76068 0.984012,-0.926044 0.459206,-0.363803 1.148014,-0.694532 0.459205,-0.264585 1.443218,-0.562241 0.787209,-0.198438 1.771221,-0.363803 z m -6.756882,2.844276 0.492006,-0.595314 q 0.951212,0.859897 1.771222,1.355993 l -0.426405,0.56224 Q 10.854139,19.646326 10.09973,19.017939 Z m 6.920884,-0.926043 q 0.0984,0.198437 0.164002,0.264583 l 0.328004,0.363804 q -0.656008,0.463021 -0.85281,0.661459 -0.360804,0.297656 -0.984012,0.992189 L 15.05259,19.877837 q 0.131202,-0.132293 0.262403,-0.264585 0.131202,-0.132291 0.262404,-0.264584 0.656008,-0.661459 0.721609,-0.694532 0.524806,-0.429949 0.721608,-0.56224 z m -2.853635,3.175006 v 2.579691 H 13.44537 v -0.992189 h -2.55843 v -0.694532 h 2.55843 v -0.89297 h -3.280039 v -0.727606 h 3.280039 v -1.918233 q 0,-0.264584 0.229603,-0.463021 0.196803,-0.165365 1.016813,-0.33073 0.0328,0.33073 0.328004,0.793751 h -0.721609 q -0.0328,0 -0.0984,0.06614 -0.0328,0.03308 -0.0328,0.09922 v 1.752868 h 3.378446 v 0.727608 h -1.279216 v 1.885159 h -0.754409 v -1.885159 z"
     id="text1280"
     aria-label="歩" />
</svg>
