<?xml version="1.0" encoding="UTF-8" standalone="no"?>
<!-- Created with Inkscape (http://www.inkscape.org/) -->

<svg
   width="27.116999mm"
   height="31.358999mm"
   viewBox="0 0 27.116999 31.358999"
   version="1.1"
   id="svg1"
   xmlns:xlink="http://www.w3.org/1999/xlink"
   xmlns="http://www.w3.org/2000/svg"
   xmlns:svg="http://www.w3.org/2000/svg">
  <defs
     id="defs1">
    <linearGradient
       xlink:href="#linearGradient22"
       id="linearGradient2"
       x1="-290.43042"
       y1="-24.086693"
       x2="-290.43042"
       y2="48.478031"
       gradientUnits="userSpaceOnUse"
       gradientTransform="rotate(180,-171.60185,-8.1027805)" />
    <linearGradient
       id="linearGradient22">
      <stop
         style="stop-color:#ffdba6;stop-opacity:1;"
         offset="0"
         id="stop21" />
      <stop
         style="stop-color:#f2c478;stop-opacity:1;"
         offset="1"
         id="stop22" />
    </linearGradient>
    <clipPath
       clipPathUnits="userSpaceOnUse"
       id="clipPath1288">
      <path
         d="M 0,2834.646 H 2834.646 V 0 H 0 Z"
         transform="translate(-318.37961,-1559.11)"
         id="path1288" />
    </clipPath>
  </defs>
  <g
     id="layer1">
    <g
       id="path1287"
       clip-path="url(#clipPath1288)"
       transform="matrix(-0.35277776,0,0,0.35277776,6.2426308,25.699274)">
      <path
         style="color:#000000;fill:url(#linearGradient2);stroke-miterlimit:10;-inkscape-stroke:none"
         d="m 0,0 -20.266,6.952 c -0.309,0.106 -0.643,0.106 -0.952,0 L -41.484,0 c -0.545,-0.187 -0.946,-0.679 -1.038,-1.274 l -9.381,-60.689 c -0.151,-0.981 0.569,-1.871 1.515,-1.871 h 29.646 29.647 c 0.945,0 1.666,0.89 1.514,1.871 L 1.038,-1.274 C 0.946,-0.679 0.546,-0.187 0,0"
         id="path8" />
      <path
         style="color:#000000;fill:#4d3608;stroke-miterlimit:10;-inkscape-stroke:none"
         d="m -50.388672,-64.683594 c -1.479368,0 -2.580071,1.39044 -2.355469,2.84961 l 9.38086,60.6894528 c 0.138203,0.89381631 0.746532,1.65517134 1.603515,1.9492187 l 20.265625,6.9511719 c 0.486906,0.1670289 1.017001,0.1670289 1.503907,0 L 0.27539063,0.8046875 C 1.133505,0.51079119 1.7408449,-0.25163454 1.8789062,-1.1445312 L 11.259766,-61.832031 c 0.22622,-1.460013 -0.876537,-2.851563 -2.3554691,-2.851563 H -20.742187 Z m 0,1.699219 h 29.646485 29.6464839 c 0.4110655,0 0.7516077,0.38864 0.6738281,0.890625 L 0.19726562,-1.4042969 c -0.0459385,0.2971021 -0.23877171,0.51950609 -0.47265625,0.5996094 L -20.541016,6.1484375 c -0.131094,0.044971 -0.269296,0.044971 -0.40039,0 l -20.265625,-6.953125 c -0.233016,-0.0799523 -0.428813,-0.3034269 -0.47461,-0.5996094 L -51.0625,-62.09375 c -0.07608,-0.501766 0.261798,-0.890625 0.673828,-0.890625 z"
         id="path9" />
    </g>
    <path
       style="color:#000000;fill:#000000 icc-color(sRGB-IEC61966-2, 0.1, 0, 0, 0);stroke-width:0.352778;stroke-miterlimit:10;-inkscape-stroke:none"
       d="m 13.785186,10.179583 v 4.499983 h -0.450618 v -4.499983 z"
       id="path1289" />
    <path
       style="color:#000000;fill:#000000 icc-color(sRGB-IEC61966-2, 0.1, 0, 0, 0);stroke-width:0.352778;stroke-miterlimit:10;-inkscape-stroke:none"
       d="m 10.537055,6.8384344 6.36378,6.3637806 -0.317637,0.318326 -6.36447,-6.3637798 z"
       id="path1291" />
    <path
       style="color:#000000;fill:#000000 icc-color(sRGB-IEC61966-2, 0.1, 0, 0, 0);stroke-width:0.352778;stroke-miterlimit:10;-inkscape-stroke:none"
       d="m 16.583198,6.8385455 0.317637,0.3183265 -6.36378,6.36378 -0.318327,-0.318327 z"
       id="path1293" />
    <path
       style="fill:#000000 icc-color(sRGB-IEC61966-2, 0.1, 0, 0, 0);stroke-width:0.352777"
       d="m 17.363292,19.919425 -0.628386,0.198438 q -0.363802,-0.892969 -0.396875,-1.190625 l 0.595313,-0.264584 q 0.132292,0.529167 0.429948,1.256771 z m -2.579689,0.231511 -0.628385,-0.264583 0.529167,-1.12448 q 0.132291,0.03307 0.264583,0.132292 0.06615,0.03307 0.132292,0.06615 0.06615,0.03307 0.165364,0.03307 -0.09922,0.231511 -0.198437,0.496094 -0.132292,0.264584 -0.264584,0.661459 z m -3.770314,1.521355 v 0.760677 h 1.951303 v -0.760677 z m 0,1.389063 v 0.760677 h 1.951303 v -0.760677 z m 2.711981,-4.994013 v 6.449222 h -3.439585 v -3.538804 h 1.223698 q -0.06615,-0.628385 -0.06615,-0.661458 -0.03307,-0.132292 -0.09922,-0.463021 L 10.18646,20.713176 9.7234388,20.051717 q 0.3968752,-0.23151 1.3559902,-0.859896 -0.132291,-0.330729 -0.330729,-0.56224 -0.264583,-0.330729 -0.396875,-0.463021 -0.132292,-0.06615 -0.264584,-0.165364 -0.1322912,-0.06615 -0.4299482,-0.264584 0.198438,-0.198437 0.297657,-0.264583 0.06615,-0.06615 0.1322912,-0.132292 0.03307,-0.03307 0.09922,-0.09922 0.03307,-0.06615 0.09922,-0.132292 0.727604,0.56224 0.992188,0.926042 0.429948,0.496094 0.628386,1.091407 0.297656,0.859896 0.330729,1.852084 h 0.727604 v -2.71198 q -0.297656,0.09922 -0.562239,0.165365 -0.264584,0.06615 -0.529167,0.132291 l -0.03307,-0.727604 q 2.050521,-0.595313 2.282032,-0.661459 l 0.198437,0.760678 z m 2.182813,6.846097 -0.694531,-0.363803 0.09922,-0.165364 -0.595312,-0.463021 q -0.06615,-0.03307 -0.231511,-0.198438 l -0.496094,-0.396875 0.529167,-0.628386 q 0.859894,0.793751 0.859894,0.793751 0.09922,0.09922 0.198438,0.165364 0.06615,0.06615 0.132291,0.09922 0.56224,-0.892969 0.926043,-1.256771 h -2.083595 v -0.628386 h 0.826823 v -0.694531 h -1.025261 v -0.628386 h 1.025261 v -2.116667 q -0.661458,0.132291 -0.992188,0.23151 v -0.694531 q 0.694532,-0.198438 1.587501,-0.396876 l 1.256771,-0.297656 0.198438,0.79375 -1.35599,0.198438 v 2.282032 H 17.231 v 0.628386 h -1.157552 v 0.694531 h 0.661458 v 0.496094 l 0.396875,-0.429948 q 0.264584,0.463021 0.429948,0.694532 -0.926041,0.926042 -1.653646,2.282031 z"
       id="text1294"
       aria-label="銀" />
  </g>
</svg>
