<?xml version="1.0" encoding="UTF-8" standalone="no"?>
<!-- Created with Inkscape (http://www.inkscape.org/) -->

<svg
   width="27.116999mm"
   height="31.358999mm"
   viewBox="0 0 27.116999 31.358999"
   version="1.1"
   id="svg1"
   inkscape:version="1.3.1 (91b66b0783, 2023-11-16)"
   sodipodi:docname="Template.svg"
   inkscape:export-filename="FAIRY CZECH (Mine)\Regular Shogi\0GI.svg"
   inkscape:export-xdpi="96"
   inkscape:export-ydpi="96"
   xmlns:inkscape="http://www.inkscape.org/namespaces/inkscape"
   xmlns:sodipodi="http://sodipodi.sourceforge.net/DTD/sodipodi-0.dtd"
   xmlns="http://www.w3.org/2000/svg"
   xmlns:svg="http://www.w3.org/2000/svg">
  <sodipodi:namedview
     id="namedview1"
     pagecolor="#ffffff"
     bordercolor="#999999"
     borderopacity="1"
     inkscape:showpageshadow="2"
     inkscape:pageopacity="0"
     inkscape:pagecheckerboard="0"
     inkscape:deskcolor="#d1d1d1"
     inkscape:document-units="mm"
     inkscape:zoom="2.0737236"
     inkscape:cx="31.103471"
     inkscape:cy="78.361457"
     inkscape:window-width="1920"
     inkscape:window-height="1009"
     inkscape:window-x="-8"
     inkscape:window-y="-8"
     inkscape:window-maximized="1"
     inkscape:current-layer="layer1" />
  <defs
     id="defs1">
    <clipPath
       clipPathUnits="userSpaceOnUse"
       id="clipPath1288">
      <path
         d="M 0,2834.646 H 2834.646 V 0 H 0 Z"
         transform="translate(-318.37961,-1559.11)"
         id="path1288" />
    </clipPath>
  </defs>
  <g
     inkscape:label="Layer 1"
     inkscape:groupmode="layer"
     id="layer1">
    <g
       id="path1287"
       clip-path="url(#clipPath1288)"
       transform="matrix(-0.35277776,0,0,0.35277776,6.2386193,25.699876)">
      <path
         style="color:#000000;fill:#ffdb9d;stroke-miterlimit:10;-inkscape-stroke:none"
         d="m 0,0 -20.266,6.952 c -0.309,0.106 -0.643,0.106 -0.952,0 L -41.484,0 c -0.545,-0.187 -0.946,-0.679 -1.038,-1.274 l -9.381,-60.689 c -0.151,-0.981 0.569,-1.871 1.515,-1.871 h 29.646 29.647 c 0.945,0 1.666,0.89 1.514,1.871 L 1.038,-1.274 C 0.946,-0.679 0.546,-0.187 0,0"
         id="path8" />
      <path
         style="color:#000000;fill:#000000 icc-color(sRGB-IEC61966-2, 0.1, 0, 0, 0);stroke-miterlimit:10;-inkscape-stroke:none"
         d="m -50.388672,-64.472656 c -1.346025,0 -2.350732,1.267795 -2.144531,2.607422 l 9.380859,60.6894528 c 0.126653,0.81911161 0.681951,1.51201151 1.460938,1.77929682 l 20.265625,6.95117188 c 0.442428,0.1517716 0.924759,0.1517716 1.367187,0 L 0.20703125,0.60351562 C 0.98711641,0.3363436 1.5414228,-0.35735932 1.6679687,-1.1757812 L 11.048828,-61.865234 c 0.207665,-1.340259 -0.799083,-2.607422 -2.1445311,-2.607422 H -20.742187 Z m 0,1.277344 h 29.646485 29.6464839 c 0.5445497,0 0.9811004,0.513026 0.8847656,1.134765 L 0.40820313,-1.3710937 c -0.0574539,0.37157683 -0.30332064,0.66075047 -0.61523438,0.76757808 L -20.472656,6.3496094 c -0.175571,0.060228 -0.363492,0.060228 -0.539063,0 l -20.265625,-6.95312502 c -0.311012,-0.10671432 -0.557887,-0.39669098 -0.615234,-0.76757808 l -9.380859,-60.6894533 c -0.0958,-0.622372 0.338792,-1.134766 0.884765,-1.134765 z"
         id="path9" />
    </g>
    <path
       style="color:#000000;fill:#000000 icc-color(sRGB-IEC61966-2, 0.1, 0, 0, 0);stroke-width:0.352778;stroke-miterlimit:10;-inkscape-stroke:none"
       d="m 13.706071,10.180185 v 4.499983 h -0.300412 v -4.499983 z"
       id="path1289" />
    <path
       style="color:#000000;fill:#000000 icc-color(sRGB-IEC61966-2, 0.1, 0, 0, 0);stroke-width:0.352778;stroke-miterlimit:10;-inkscape-stroke:none"
       d="M 10.479989,6.8920917 16.843769,13.255872 16.63224,13.46809 10.267771,7.1043095 Z"
       id="path1291" />
    <path
       style="color:#000000;fill:#000000 icc-color(sRGB-IEC61966-2, 0.1, 0, 0, 0);stroke-width:0.352778;stroke-miterlimit:10;-inkscape-stroke:none"
       d="M 16.63224,6.8922015 16.843769,7.1044196 10.479989,13.4682 10.267771,13.255982 Z"
       id="path1293" />
    <path
       style="fill:#000000 icc-color(sRGB-IEC61966-2, 0.1, 0, 0, 0);stroke-width:0.352777"
       d="m 17.359282,19.920028 -0.628386,0.198438 q -0.363802,-0.89297 -0.396875,-1.190626 l 0.595313,-0.264583 q 0.132291,0.529167 0.429948,1.256771 z m -2.579689,0.23151 -0.628386,-0.264583 0.529167,-1.12448 q 0.132292,0.03307 0.264584,0.132292 0.06615,0.03307 0.132291,0.06615 0.06615,0.03307 0.165365,0.03307 -0.09922,0.23151 -0.198437,0.496094 -0.132292,0.264583 -0.264584,0.661457 z m -3.770314,1.521355 v 0.760677 h 1.951303 v -0.760677 z m 0,1.389063 v 0.760677 h 1.951303 v -0.760677 z m 2.71198,-4.994012 v 6.449221 h -3.439584 v -3.538803 h 1.223698 q -0.06615,-0.628386 -0.06615,-0.661459 -0.03307,-0.132292 -0.09922,-0.463021 L 10.182451,20.713778 9.7194303,20.05232 q 0.3968747,-0.231511 1.3559897,-0.859896 -0.132292,-0.33073 -0.330729,-0.56224 -0.264584,-0.33073 -0.396875,-0.463021 -0.132292,-0.06615 -0.264584,-0.165365 -0.1322917,-0.06615 -0.4299477,-0.264583 0.198438,-0.198438 0.297656,-0.264584 0.06615,-0.06615 0.1322917,-0.132292 0.03307,-0.03307 0.09922,-0.09922 0.03307,-0.06615 0.09922,-0.132292 0.727604,0.56224 0.992188,0.926042 0.429948,0.496094 0.628385,1.091407 0.297657,0.859896 0.33073,1.852084 h 0.727604 v -2.711981 q -0.297656,0.09922 -0.56224,0.165365 -0.264583,0.06615 -0.529167,0.132292 l -0.03307,-0.727605 q 2.050522,-0.595312 2.282033,-0.661458 l 0.198437,0.760677 z m 2.182814,6.846096 -0.694532,-0.363802 0.09922,-0.165365 -0.595313,-0.463021 q -0.06615,-0.03307 -0.23151,-0.198438 l -0.496094,-0.396875 0.529167,-0.628385 q 0.859895,0.79375 0.859895,0.79375 0.09922,0.09922 0.198437,0.165365 0.06615,0.06615 0.132292,0.09922 0.56224,-0.89297 0.926042,-1.256772 h -2.083594 v -0.628385 h 0.826823 V 21.1768 h -1.025261 v -0.628385 h 1.025261 v -2.116668 q -0.661459,0.132292 -0.992188,0.231511 v -0.694532 q 0.694531,-0.198437 1.587501,-0.396875 l 1.256771,-0.297656 0.198438,0.79375 -1.355991,0.198437 v 2.282033 H 17.22699 V 21.1768 h -1.157553 v 0.694531 h 0.661459 v 0.496094 l 0.396875,-0.429948 q 0.264584,0.463021 0.429949,0.694532 -0.926043,0.926042 -1.653647,2.282031 z"
       id="text1294"
       aria-label="銀" />
  </g>
</svg>
