<?xml version="1.0" encoding="UTF-8" standalone="no"?>
<!-- Created with Inkscape (http://www.inkscape.org/) -->

<svg
   width="27.116999mm"
   height="31.358999mm"
   viewBox="0 0 27.116999 31.358999"
   version="1.1"
   id="svg1"
   xmlns:xlink="http://www.w3.org/1999/xlink"
   xmlns="http://www.w3.org/2000/svg"
   xmlns:svg="http://www.w3.org/2000/svg">
  <defs
     id="defs1">
    <linearGradient
       xlink:href="#linearGradient22"
       id="linearGradient2"
       x1="-545.13501"
       y1="-26.612284"
       x2="-545.13501"
       y2="48.789581"
       gradientUnits="userSpaceOnUse"
       gradientTransform="rotate(180,-300.16402,-9.2097022)" />
    <linearGradient
       id="linearGradient22">
      <stop
         style="stop-color:#ffdba6;stop-opacity:1;"
         offset="0"
         id="stop21" />
      <stop
         style="stop-color:#f2c478;stop-opacity:1;"
         offset="1"
         id="stop22" />
    </linearGradient>
    <clipPath
       clipPathUnits="userSpaceOnUse"
       id="clipPath1316">
      <path
         d="M 0,2834.646 H 2834.646 V 0 H 0 Z"
         transform="translate(-531.98141,-1560.2174)"
         id="path1316" />
    </clipPath>
  </defs>
  <g
     id="layer1">
    <g
       id="path1315"
       clip-path="url(#clipPath1316)"
       transform="matrix(-0.35277776,0,0,0.35277776,5.8887667,26.089585)">
      <path
         style="color:#000000;fill:url(#linearGradient2);stroke-miterlimit:10;-inkscape-stroke:none"
         d="m 0,0 -21.223,7.255 c -0.337,0.115 -0.707,0.115 -1.044,0 L -43.49,0 c -0.512,-0.175 -0.879,-0.593 -0.956,-1.088 L -54.328,-64.8 c -0.128,-0.823 0.569,-1.559 1.477,-1.559 h 31.106 31.106 c 0.907,0 1.605,0.736 1.477,1.559 L 0.955,-1.088 C 0.879,-0.593 0.512,-0.175 0,0"
         id="path16" />
      <path
         style="color:#000000;fill:#4d3608;stroke-miterlimit:10;-inkscape-stroke:none"
         d="m -52.851562,-67.208984 c -1.367537,0 -2.528283,1.176762 -2.316407,2.539062 l 9.88086,63.71289075 c 0.128904,0.82867416 0.735013,1.49290547 1.521484,1.76171875 l 21.224609,7.2558594 c 0.517057,0.1764437 1.07474,0.1764437 1.591797,0 h 0.002 L 0.27539063,0.8046875 C 1.0612847,0.53607135 1.6668921,-0.12796836 1.7949219,-0.95703125 v -0.001953 L 11.677734,-64.669922 c 0.21198,-1.362964 -0.949363,-2.539062 -2.3164059,-2.539062 H -21.744141 Z m 0,1.701172 h 31.107421 31.1054691 c 0.4469549,0 0.6807389,0.293137 0.6367188,0.576171 v 0.002 L 0.11523437,-1.2167969 c -0.02457878,0.1600856 -0.15309689,0.33092303 -0.390625,0.4121094 L -21.498047,6.4511719 v -0.00195 c -0.156942,0.053556 -0.337198,0.053556 -0.49414,0 v 0.00195 l -21.222657,-7.2558594 c -0.237528,-0.0811864 -0.36553,-0.2527376 -0.390625,-0.4140625 l -9.882812,-63.710937 v -0.002 c -0.04412,-0.283698 0.188257,-0.576171 0.636719,-0.576171 z"
         id="path17" />
    </g>
    <path
       style="color:#000000;fill:#000000 icc-color(sRGB-IEC61966-2, 0.1, 0, 0, 0);stroke-width:0.352778;stroke-miterlimit:10;-inkscape-stroke:none"
       d="M 13.785299,6.5001263 V 14.858616 H 13.33468 V 6.5001263 Z"
       id="path1317" />
    <path
       style="color:#000000;fill:#231f20 icc-color(sRGB-IEC61966-2, 0.1, 0.13699341, 0.12199402, 0.125);stroke-width:0.352778;stroke-miterlimit:10;-inkscape-stroke:none"
       d="m 14.245165,13.85513 0.318327,0.318327 -1.003212,1.003211 -1.0039,-1.003211 0.318326,-0.318327 0.685574,0.684885 z"
       id="path1319" />
    <path
       style="color:#000000;fill:#000000 icc-color(sRGB-IEC61966-2, 0.1, 0, 0, 0);stroke-width:0.352778;stroke-miterlimit:10;-inkscape-stroke:none"
       d="M 13.5597,6.1821161 14.563601,7.1853279 14.245274,7.5036547 13.5597,6.8187697 12.874815,7.5036547 12.556488,7.1853279 Z"
       id="path1321" />
    <path
       style="color:#000000;fill:#000000 icc-color(sRGB-IEC61966-2, 0.1, 0, 0, 0);stroke-width:0.352778;stroke-miterlimit:10;-inkscape-stroke:none"
       d="m 17.739191,10.454069 v 0.450619 H 9.3807007 v -0.450619 z"
       id="path1323" />
    <path
       style="color:#000000;fill:#000000 icc-color(sRGB-IEC61966-2, 0.1, 0, 0, 0);stroke-width:0.352778;stroke-miterlimit:10;-inkscape-stroke:none"
       d="m 17.054102,9.6758769 1.003212,1.0032121 -1.003212,1.0039 -0.318327,-0.318326 0.684885,-0.685574 -0.684885,-0.6848853 z"
       id="path1325" />
    <path
       style="color:#000000;fill:#000000 icc-color(sRGB-IEC61966-2, 0.1, 0, 0, 0);stroke-width:0.352778;stroke-miterlimit:10;-inkscape-stroke:none"
       d="m 10.065875,9.6757682 0.318327,0.3183268 -0.6848849,0.685574 0.6848849,0.684885 -0.318327,0.318327 -1.0032115,-1.003212 z"
       id="path1327" />
    <path
       style="fill:#000000 icc-color(sRGB-IEC61966-2, 0.1, 0, 0, 0);stroke-width:0.352777"
       d="m 14.08929,21.340842 v 2.282032 h -0.727605 v -2.282032 h -1.5875 q 0,-0.826824 -0.03307,-1.289845 l -0.859896,0.793751 -0.529167,-0.496094 0.694531,-0.595313 -0.859896,-0.330729 0.33073,-0.628386 q 0.06614,0.03307 0.429948,0.165365 0.330729,0.165364 0.661458,0.297656 -0.264583,-0.628386 -0.595313,-0.992188 -0.264583,-0.264583 -0.363802,-0.264583 -0.03307,0 -0.09922,0.06615 -0.09922,0.165364 -0.198437,0.562239 -0.165365,-0.132291 -0.6283863,-0.396875 0.165365,-0.595312 0.3638023,-0.760677 0.198438,-0.198438 0.429949,-0.198438 0.363802,0 0.892969,0.363803 0.463021,0.330729 0.727604,0.992187 0.297656,0.727605 0.330729,2.017449 h 0.892969 v -3.406512 h 0.727603 v 3.406508 h 1.12448 q 0.06615,-1.025261 0.165364,-1.389063 0.165365,-0.529167 0.330729,-0.826823 0.396876,-0.529167 0.429949,-0.595313 0.06615,-0.09922 0.694531,-0.628385 0.330729,0.463021 0.529167,0.628385 -0.56224,0.429948 -0.79375,0.727605 -0.297657,0.429948 -0.429948,0.826823 -0.132292,0.429948 -0.198438,1.256771 h 1.289844 v 0.694532 h -1.289844 v 1.058334 q 0.198438,-0.06615 1.12448,-0.297657 0.198437,0.463021 0.330729,0.694532 -0.694532,0.09922 -1.091407,0.198437 -0.330729,0.09922 -1.521355,0.496094 L 14.420019,22.89527 q 0.396875,-0.165365 0.760678,-0.297657 v -1.256771 z m -1.653647,2.48047 h 4.597138 v 0.694531 h -5.291669 q 0.03307,-0.297656 -0.03307,-0.992188 -0.198438,0.231511 -0.429948,0.463021 -0.231511,0.264584 -0.463021,0.496094 l -0.529167,-0.529167 q 0.231511,-0.198437 0.463021,-0.396875 0.198438,-0.165364 0.396875,-0.330729 -0.09922,-0.03307 -0.330729,-0.132292 -0.264584,-0.06615 -0.694532,-0.198437 l 0.297654,-0.595313 1.157552,0.429948 q -0.264583,-0.496094 -0.661458,-0.892969 -0.231511,-0.231511 -0.396875,-0.231511 -0.03307,0 -0.09922,0.06615 0,0 -0.165365,0.463021 -0.23151,-0.23151 -0.6614593,-0.396875 0.264584,-0.628386 0.363803,-0.727605 0.1653643,-0.165364 0.3307293,-0.165364 0.363802,0 0.926042,0.363802 0.595314,0.363802 0.826824,0.892969 0.297657,0.529167 0.396875,1.719793 z"
       id="text1328"
       aria-label="飛" />
  </g>
</svg>
