<?xml version="1.0" encoding="UTF-8" standalone="no"?>
<!-- Created with Inkscape (http://www.inkscape.org/) -->

<svg
   width="27.116999mm"
   height="31.358999mm"
   viewBox="0 0 27.116999 31.358999"
   version="1.1"
   id="svg1"
   inkscape:version="1.3.1 (91b66b0783, 2023-11-16)"
   sodipodi:docname="Template.svg"
   inkscape:export-filename="FAIRY CZECH (Mine)\Regular Shogi\0KE.svg"
   inkscape:export-xdpi="96"
   inkscape:export-ydpi="96"
   xmlns:inkscape="http://www.inkscape.org/namespaces/inkscape"
   xmlns:sodipodi="http://sodipodi.sourceforge.net/DTD/sodipodi-0.dtd"
   xmlns="http://www.w3.org/2000/svg"
   xmlns:svg="http://www.w3.org/2000/svg">
  <sodipodi:namedview
     id="namedview1"
     pagecolor="#ffffff"
     bordercolor="#999999"
     borderopacity="1"
     inkscape:showpageshadow="2"
     inkscape:pageopacity="0"
     inkscape:pagecheckerboard="0"
     inkscape:deskcolor="#d1d1d1"
     inkscape:document-units="mm"
     inkscape:zoom="2.0737236"
     inkscape:cx="31.103471"
     inkscape:cy="78.361457"
     inkscape:window-width="1920"
     inkscape:window-height="1009"
     inkscape:window-x="-8"
     inkscape:window-y="-8"
     inkscape:window-maximized="1"
     inkscape:current-layer="layer1" />
  <defs
     id="defs1">
    <clipPath
       clipPathUnits="userSpaceOnUse"
       id="clipPath1344">
      <path
         d="M 0,2834.646 H 2834.646 V 0 H 0 Z"
         transform="translate(-246.54421,-1557.6502)"
         id="path1344" />
    </clipPath>
  </defs>
  <g
     inkscape:label="Layer 1"
     inkscape:groupmode="layer"
     id="layer1">
    <g
       id="path1343"
       clip-path="url(#clipPath1344)"
       transform="matrix(-0.35277776,0,0,0.35277776,6.580729,25.364336)">
      <path
         style="color:#000000;fill:#ffdb9d;stroke-miterlimit:10;-inkscape-stroke:none"
         d="m 0,0 -19.243,6.562 c -0.342,0.116 -0.717,0.116 -1.059,0 L -39.545,0 c -0.531,-0.181 -0.912,-0.618 -0.993,-1.139 l -8.982,-57.757 c -0.134,-0.863 0.585,-1.636 1.523,-1.636 h 28.224 28.225 c 0.938,0 1.657,0.773 1.523,1.636 L 0.993,-1.139 C 0.912,-0.618 0.531,-0.181 0,0"
         id="path5" />
      <path
         style="color:#000000;fill:#000000 icc-color(sRGB-IEC61966-2, 0.1, 0, 0, 0);stroke-miterlimit:10;-inkscape-stroke:none"
         d="m -47.996094,-61.169922 c -1.2884,0 -2.35023,1.109222 -2.154297,2.371094 l 8.982422,57.7578124 c 0.119324,0.76750112 0.67842,1.39244378 1.417969,1.64453122 l 19.242188,6.56249998 c 0.476303,0.1615533 0.992446,0.1615533 1.46875,0 h 0.002 L 0.20507813,0.60351562 C 0.94462747,0.35142818 1.5037233,-0.27351448 1.6230469,-1.0410156 L 10.605469,-58.798828 C 10.801402,-60.0607 9.7395725,-61.169922 8.4511719,-61.169922 H -19.773437 Z m 0,1.275391 h 28.222657 28.2246089 c 0.5875975,0 0.9665972,0.436264 0.8945312,0.90039 L 0.36328125,-1.2363281 c -0.0426762,0.27449779 -0.24590979,0.52290028 -0.56835938,0.63281248 L -19.447266,5.9570312 c -0.207695,0.070447 -0.442694,0.070447 -0.65039,0 l -19.242188,-6.56054682 c -0.322449,-0.1099122 -0.525683,-0.35831469 -0.568359,-0.63281248 l -8.982422,-57.7578129 c -0.07207,-0.464126 0.306934,-0.90039 0.894531,-0.90039 z"
         id="path6" />
    </g>
    <path
       style="fill:#000000 icc-color(sRGB-IEC61966-2, 0.1, 0, 0, 0);stroke-width:0.352777"
       d="m 12.663299,19.698444 v 1.025261 h -0.760677 v -1.025261 h -1.68672 v -0.694531 h 1.68672 V 17.84636 H 9.918246 v -0.694531 h 4.960939 v 0.694531 h -2.215886 v 1.157553 h 1.554428 v 0.694531 z m 0,3.704169 v 1.058334 h -0.760677 v -1.058334 h -1.719793 v -0.694532 h 1.719793 V 21.649747 H 9.918246 v -0.727604 h 4.597137 v 0.727604 h -1.852084 v 1.058334 h 1.554428 v 0.694532 z m 3.538803,-0.529167 v 1.620574 h -0.760677 v -1.620574 h -0.760677 v -0.694532 h 0.760677 v -0.760677 q -0.496094,-0.529167 -0.992188,-0.992188 0.132292,-0.132292 0.463021,-0.595313 0.363802,0.363802 0.529167,0.595313 v -3.505731 h 0.760677 v 3.307293 q 0.463021,-0.992188 1.025261,-1.719792 0.132292,0.56224 0.33073,0.926042 -0.429948,0.56224 -0.727605,1.091406 -0.330729,0.694532 -0.628386,1.653647 h 1.157553 v 0.694532 z"
       id="text1344"
       aria-label="桂" />
    <path
       style="color:#000000;fill:#000000 icc-color(sRGB-IEC61966-2, 0.1, 0, 0, 0);stroke-width:0.352778;stroke-miterlimit:10;-inkscape-stroke:none"
       d="m 14.135387,7.1099914 c 0,2.4043752 0.323026,4.2400416 0.762055,5.4563416 0.219515,0.60815 0.468965,1.061124 0.712446,1.349789 0.24348,0.288664 0.470195,0.402918 0.651123,0.39343 l 0.01585,0.299723 c -0.313489,0.01644 -0.618963,-0.1706 -0.896413,-0.499539 -0.277451,-0.328938 -0.537649,-0.810183 -0.765501,-1.441428 -0.455702,-1.26249 -0.779969,-3.1271719 -0.779969,-5.5583166 z"
       id="path1345" />
    <path
       style="color:#000000;fill:#000000 icc-color(sRGB-IEC61966-2, 0.1, 0, 0, 0);stroke-width:0.352778;stroke-miterlimit:10;-inkscape-stroke:none"
       d="m 13.277115,7.1099914 c 0,2.4311447 -0.324267,4.2958266 -0.779969,5.5583166 -0.227851,0.631245 -0.48805,1.11249 -0.765501,1.441428 -0.27745,0.328939 -0.582924,0.51598 -0.896413,0.499539 l 0.01585,-0.299723 c 0.180928,0.0095 0.407643,-0.104766 0.651123,-0.39343 0.243481,-0.288665 0.492931,-0.741639 0.712446,-1.349789 0.439029,-1.2163 0.762055,-3.0519664 0.762055,-5.4563416 z"
       id="path1347" />
  </g>
</svg>
