<?xml version="1.0" encoding="UTF-8" standalone="no"?>
<!-- Created with Inkscape (http://www.inkscape.org/) -->

<svg
   width="27.116999mm"
   height="31.358999mm"
   viewBox="0 0 27.116999 31.358999"
   version="1.1"
   id="svg1"
   inkscape:version="1.3.1 (91b66b0783, 2023-11-16)"
   sodipodi:docname="Template.svg"
   inkscape:export-filename="My Sets\FCZ Shogi\0KY.svg"
   inkscape:export-xdpi="96"
   inkscape:export-ydpi="96"
   xmlns:inkscape="http://www.inkscape.org/namespaces/inkscape"
   xmlns:sodipodi="http://sodipodi.sourceforge.net/DTD/sodipodi-0.dtd"
   xmlns:xlink="http://www.w3.org/1999/xlink"
   xmlns="http://www.w3.org/2000/svg"
   xmlns:svg="http://www.w3.org/2000/svg">
  <sodipodi:namedview
     id="namedview1"
     pagecolor="#ffffff"
     bordercolor="#999999"
     borderopacity="1"
     inkscape:showpageshadow="2"
     inkscape:pageopacity="0"
     inkscape:pagecheckerboard="0"
     inkscape:deskcolor="#d1d1d1"
     inkscape:document-units="mm"
     inkscape:zoom="2.0737236"
     inkscape:cx="31.103471"
     inkscape:cy="78.361457"
     inkscape:window-width="1920"
     inkscape:window-height="1009"
     inkscape:window-x="-8"
     inkscape:window-y="-8"
     inkscape:window-maximized="1"
     inkscape:current-layer="layer1" />
  <defs
     id="defs1">
    <linearGradient
       inkscape:collect="always"
       xlink:href="#linearGradient22"
       id="linearGradient2"
       x1="-121.22739"
       y1="-18.260918"
       x2="-121.22739"
       y2="47.787552"
       gradientUnits="userSpaceOnUse"
       gradientTransform="rotate(180,-84.603678,-5.534935)" />
    <linearGradient
       id="linearGradient22"
       inkscape:collect="always">
      <stop
         style="stop-color:#ffdba6;stop-opacity:1;"
         offset="0"
         id="stop21" />
      <stop
         style="stop-color:#f2c478;stop-opacity:1;"
         offset="1"
         id="stop22" />
    </linearGradient>
    <clipPath
       clipPathUnits="userSpaceOnUse"
       id="clipPath1282">
      <path
         d="M 0,2834.646 H 2834.646 V 0 H 0 Z"
         transform="translate(-174.6885,-1556.5424)"
         id="path1282" />
    </clipPath>
  </defs>
  <g
     inkscape:label="Layer 1"
     inkscape:groupmode="layer"
     id="layer1">
    <g
       id="path1281"
       clip-path="url(#clipPath1282)"
       transform="matrix(-0.35277776,0,0,0.35277776,6.9336324,24.793291)">
      <path
         style="color:#000000;fill:url(#linearGradient2);stroke-miterlimit:10;-inkscape-stroke:none"
         d="m 0,0 -18.208,6.244 c -0.37,0.127 -0.78,0.127 -1.15,0 L -37.566,0 c -0.538,-0.184 -0.92,-0.612 -0.998,-1.116 l -8.551,-55.301 c -0.13,-0.841 0.611,-1.59 1.573,-1.59 h 26.759 26.759 c 0.962,0 1.703,0.749 1.573,1.59 L 0.998,-1.116 C 0.92,-0.612 0.538,-0.184 0,0"
         id="path4" />
      <path
         style="color:#000000;fill:#4d3608;stroke-miterlimit:10;-inkscape-stroke:none"
         d="m -45.542969,-58.857422 c -1.403402,0 -2.628281,1.171847 -2.412109,2.570313 l 8.550781,55.30078087 c 0.131052,0.8467983 0.759066,1.5162352 1.5625,1.79101563 l 18.207031,6.2441406 c 0.552456,0.1896266 1.15067,0.1896266 1.703125,0 L 0.27539063,0.8046875 C 1.0788247,0.52990707 1.7068385,-0.13952983 1.8378906,-0.98632813 L 10.388672,-56.287109 c 0.216172,-1.398466 -1.008707,-2.570313 -2.4121095,-2.570313 H -18.783203 Z m 0,1.701172 h 26.759766 26.7597655 c 0.5205955,0 0.7762497,0.325843 0.7324219,0.609375 L 0.15820312,-1.2460937 c -0.0249477,0.1612006 -0.1610289,0.348187 -0.43359375,0.4414062 L -18.484375,5.4394531 c -0.187544,0.064373 -0.410112,0.064373 -0.597656,0 l -18.208985,-6.2441406 c -0.272564,-0.0932192 -0.406693,-0.2802056 -0.43164,-0.4414062 l -8.552735,-55.3007813 c -0.04383,-0.283532 0.211827,-0.609375 0.732422,-0.609375 z"
         id="path5" />
    </g>
    <path
       style="fill:#000000 icc-color(sRGB-IEC61966-2, 0.1, 0, 0, 0);stroke-width:0.352777"
       d="m 11.906455,17.699178 v 0.694531 h 3.373439 v -0.694531 z m 0,1.322917 v 0.529167 h 3.373439 v -0.529167 z m 1.289844,2.48047 v -1.157553 h 0.727604 v 1.091407 q 0.926042,-0.760677 1.68672,-1.256771 h -4.200262 q 0.264583,0.132291 0.926042,0.628385 0.09922,0.06615 0.859896,0.694532 z m 0,1.885157 V 22.660117 H 9.8559334 v -0.727604 h 2.8111986 q -0.727604,-0.628386 -1.389063,-0.959115 -0.595313,-0.363802 -1.6867186,-0.727604 0.23151,-0.231511 0.297656,-0.363803 0,0 0.1984376,-0.330729 0.496094,0.231511 1.02526,0.496094 v -3.307293 h 0.793751 v 0.330729 h 3.373439 V 16.70699 h 0.760677 v 3.241147 q 0.661459,-0.330729 0.992188,-0.463021 0.165365,0.330729 0.198438,0.429948 0.03307,0.06615 0.23151,0.264584 -1.488282,0.529167 -3.075783,1.752865 h 2.844273 v 0.727604 h -3.307294 v 0.661459 q 1.190626,-0.132292 2.315106,-0.165365 0.06615,0.231511 0.165364,0.429948 0.06615,0.231511 0.09922,0.264584 -1.885157,0.09922 -3.075783,0.198437 -1.058333,0.132292 -2.083594,0.330729 l -0.463021,-0.661458 q 1.058334,-0.198438 2.315104,-0.330729 z"
       id="text1282"
       aria-label="香" />
    <path
       style="color:#000000;fill:#000000 icc-color(sRGB-IEC61966-2, 0.1, 0, 0, 0);stroke-width:0.352778;stroke-miterlimit:10;-inkscape-stroke:none"
       d="M 13.785201,8.6795317 V 14.600961 H 13.334582 V 8.6795317 Z"
       id="path1283" />
    <path
       style="color:#000000;fill:#000000 icc-color(sRGB-IEC61966-2, 0.1, 0, 0, 0);stroke-width:0.352778;stroke-miterlimit:10;-inkscape-stroke:none"
       d="m 14.194584,13.649448 0.318327,0.318327 -0.952914,0.950846 -0.952913,-0.950846 0.318327,-0.318327 0.634586,0.633898 z"
       id="path1285" />
  </g>
</svg>
