<?xml version="1.0" encoding="UTF-8" standalone="no"?>
<!-- Created with Inkscape (http://www.inkscape.org/) -->

<svg
   width="27.116993mm"
   height="31.358999mm"
   viewBox="0 0 27.116993 31.358999"
   version="1.1"
   id="svg1"
   xmlns="http://www.w3.org/2000/svg"
   xmlns:svg="http://www.w3.org/2000/svg">
  <defs
     id="defs1">
    <clipPath
       clipPathUnits="userSpaceOnUse"
       id="clipPath1354-3">
      <path
         d="M 0,2834.646 H 2834.646 V 0 H 0 Z"
         transform="translate(-318.37961,-1474.0705)"
         id="path1354-2" />
    </clipPath>
  </defs>
  <g
     id="path1353"
     clip-path="url(#clipPath1354-3)"
     transform="matrix(-0.35277776,0,0,0.35277776,6.2386723,25.879619)">
    <path
       style="color:#000000;fill:#ffdb9d;stroke-miterlimit:10;-inkscape-stroke:none"
       d="m 0,0 -20.266,6.952 c -0.309,0.106 -0.643,0.106 -0.952,0 L -41.484,0 c -0.545,-0.187 -0.946,-0.679 -1.038,-1.274 l -9.381,-60.689 c -0.151,-0.981 0.569,-1.871 1.515,-1.871 h 29.646 29.647 c 0.945,0 1.666,0.89 1.514,1.871 L 1.038,-1.274 C 0.946,-0.679 0.546,-0.187 0,0"
       id="path3" />
    <path
       style="color:#000000;fill:#000000 icc-color(sRGB-IEC61966-2, 0.1, 0, 0, 0);stroke-miterlimit:10;-inkscape-stroke:none"
       d="m -50.388672,-64.472656 c -1.346025,0 -2.350732,1.267795 -2.144531,2.607422 l 9.380859,60.6894528 c 0.126653,0.81911161 0.681951,1.51201151 1.460938,1.77929682 l 20.265625,6.95117188 c 0.442428,0.1517716 0.924759,0.1517716 1.367187,0 L 0.20703125,0.60351562 C 0.98711641,0.3363436 1.5414228,-0.35735932 1.6679687,-1.1757812 L 11.048828,-61.865234 c 0.207665,-1.340259 -0.799083,-2.607422 -2.1445311,-2.607422 H -20.742187 Z m 0,1.277344 h 29.646485 29.6464839 c 0.5445497,0 0.9811004,0.513026 0.8847656,1.134765 L 0.40820313,-1.3710937 c -0.0574539,0.37157683 -0.30332064,0.66075047 -0.61523438,0.76757808 L -20.472656,6.3496094 c -0.175571,0.060228 -0.363492,0.060228 -0.539063,0 l -20.265625,-6.95312502 c -0.311012,-0.10671432 -0.557887,-0.39669098 -0.615234,-0.76757808 l -9.380859,-60.6894533 c -0.0958,-0.622372 0.338792,-1.134766 0.884765,-1.134765 z"
       id="path4" />
  </g>
  <path
     style="fill:#ff0000;stroke-width:0.352777"
     d="m 13.622092,24.167529 q 0.694532,-0.760678 1.058334,-1.091407 0.429948,-0.429948 1.058334,-0.892969 h -4.167189 q 1.157552,0.892969 2.050521,1.984376 z m 0.165365,0.992188 -0.760677,-0.297657 0.132291,-0.165364 q -0.926042,-1.025261 -1.91823,-1.752866 -0.79375,-0.529167 -1.6867187,-0.859896 0.297656,-0.297656 0.4960937,-0.727604 0.529167,0.264583 1.190625,0.595312 v -0.463021 h 1.951303 v -1.091406 h -1.951303 v -0.661459 h 1.951303 V 18.31362 h -3.075782 v -0.694531 h 6.879169 v 0.694531 h -3.009636 v 1.422136 h 2.083594 v 0.661459 h -2.083594 v 1.091406 h 2.083594 v 0.463021 q 0.529167,-0.396875 0.992188,-0.628385 0.09922,0.23151 0.429949,0.661458 -1.322918,0.760678 -2.050523,1.389063 -0.79375,0.694532 -1.653646,1.785939 z"
     id="text1354"
     aria-label="全" />
  <path
     style="color:#000000;fill:#ff0000;stroke-width:0.352778;stroke-miterlimit:10;-inkscape-stroke:none"
     d="m 13.732307,6.360301 v 8.0002 h -0.352778 v -8.0002 z"
     id="path1427" />
  <path
     style="color:#000000;fill:#ff0000;stroke-width:0.352778;stroke-miterlimit:10;-inkscape-stroke:none"
     d="m 17.556113,10.183936 v 0.352778 H 9.5559123 v -0.352778 z"
     id="path1429" />
  <path
     style="color:#000000;fill:#ff0000;stroke-width:0.352778;stroke-miterlimit:10;-inkscape-stroke:none"
     d="m 13.680631,10.235613 2.828423,2.828423 -0.249425,0.249425 -2.828423,-2.828424 z"
     id="path1431" />
  <path
     style="color:#000000;fill:#ff0000;stroke-width:0.352778;stroke-miterlimit:10;-inkscape-stroke:none"
     d="m 13.431198,10.235611 0.249425,0.249425 -2.828423,2.828423 -0.249425,-0.249424 z"
     id="path1433" />
</svg>
