<svg height="31.358999mm" viewBox="0 0 27.116999 31.358999" width="27.116999mm" xmlns="http://www.w3.org/2000/svg" xmlns:xlink="http://www.w3.org/1999/xlink"><linearGradient id="a" gradientTransform="matrix(-1 0 0 -1 -256.22524 71.752858)" gradientUnits="userSpaceOnUse" x1="-205.84" x2="-205.84" y1="64.25312" y2="133.13567"><stop offset="0" stop-color="#ffdba6"/><stop offset="1" stop-color="#f2c478"/></linearGradient><clipPath id="b"><path d="m0 2834.646h2834.646v-2834.646h-2834.646z" transform="translate(-246.54421 -1472.6108)"/></clipPath><g clip-path="url(#b)" stroke-miterlimit="10" transform="matrix(-.35277776 0 0 .35277776 6.584729 25.184474)"><path d="m0 0-19.243 6.562c-.342.116-.717.116-1.059 0l-19.243-6.562c-.531-.181-.912-.618-.993-1.139l-8.982-57.757c-.134-.863.585-1.636 1.523-1.636h28.224 28.225c.938 0 1.657.773 1.523 1.636l-8.982 57.757c-.081.521-.462.958-.993 1.139" fill="url(#a)"/><path d="m-47.996094-61.382812c-1.405202 0-2.57986 1.222357-2.363281 2.617187l8.980469 57.7578125c.132098.84966903.749527 1.53671649 1.558594 1.8125l19.24414 6.5625h.002c.521072.1767378 1.082444.1767378 1.603516 0h.002l19.2421875-6.5625c.00088034-.00030008.001073-.001652.001953-.001953.8076761-.27637896 1.4265454-.96180249 1.5584999-1.810547l8.9804686-57.7578125c.216579-1.39483-.958079-2.617188-2.3632811-2.617187h-28.2246089zm0 1.701171h28.222657 28.2246089c.470796 0 .7350149.323129.6835937.654297l-8.98242185 57.7578128c-.0299016.1923299-.17284885.37862757-.42578125.4648437l.2734375.8046875-.27539063-.8046875-19.24023437 6.5605469c-.162927.055262-.350744.055262-.513672 0l-19.242187-6.5605469c-.252933-.0862161-.39588-.2725138-.425782-.4648437l-8.982421-57.7578128c-.05142-.331168.212797-.654297.683593-.654297z" fill="#4d3608"/></g><g fill="#f00"><path d="m16.569905 20.114004h-5.159377l-.09922.09922-.628386-.330729.661459-1.752866q.198438-.463021.595313-1.455209l.79375.264584-.529167 1.223698-.496094 1.223699h4.861721zm-2.976564 3.340366q0 0 1.12448-1.12448.264583-.264583.859896-.760677h-3.935679q.727605.56224 1.058334.892969.429948.363802.892969.992188zm.231511.992188-.793751-.330729.09922-.165365q-1.091406-1.091407-1.256771-1.223699-.694532-.529166-1.12448-.79375-.463021-.264583-1.223698-.529167.396875-.463021.56224-.727604.529167.23151 1.488282.859896v-.661459h4.167188v.595313q.859896-.661458 1.322917-.859896.264583.429948.429948.661459-.760677.396875-1.025261.628385-.727604.529167-1.223698 1.025261-.926042.926042-1.422136 1.521355z" stroke-width=".352777"/><path d="m13.785335 6.6801239v8.0002001h-.450618v-8.0002001z" stroke-miterlimit="10" stroke-width=".352778"/><path d="m17.560255 10.454812v.450618h-8.0002v-.450618z" stroke-miterlimit="10" stroke-width=".352778"/><path d="m13.719189 10.520958 2.828424 2.828423-.318327.318327-2.828423-2.828424z" stroke-miterlimit="10" stroke-width=".352778"/><path d="m13.40089 10.520983.318327.318327-2.828424 2.828423-.318326-.318326z" stroke-miterlimit="10" stroke-width=".352778"/></g></svg>