<svg height="31.358999mm" viewBox="0 0 27.117003 31.358999" width="27.117002mm" xmlns="http://www.w3.org/2000/svg" xmlns:xlink="http://www.w3.org/1999/xlink"><clipPath id="a"><path d="m0 2834.646h2834.646v-2834.646h-2834.646z" transform="translate(-246.54421 -1472.6108)"/></clipPath><linearGradient id="b" gradientUnits="userSpaceOnUse" x1="-495.55968" x2="-495.55968" y1="8.19215" y2="-67.2094"><stop offset="0" stop-color="#ffdba6"/><stop offset="1" stop-color="#f2c478"/></linearGradient><g clip-path="url(#a)" stroke-miterlimit="10" transform="matrix(-.35277776 0 0 .35277803 6.58319 25.183783)"><path d="m0 0-19.243 6.562c-.342.116-.717.116-1.059 0l-19.243-6.562c-.531-.181-.912-.618-.993-1.139l-8.982-57.757c-.134-.863.585-1.636 1.523-1.636h28.224 28.225c.938 0 1.657.773 1.523 1.636l-8.982 57.757c-.081.521-.462.958-.993 1.139" fill="url(#b)"/><path d="m-47.996094-61.382812c-1.405202 0-2.57986 1.222357-2.363281 2.617187l8.980469 57.7578125c.132098.84966903.749527 1.53671649 1.558594 1.8125l19.24414 6.5625h.002c.521072.1767378 1.082444.1767378 1.603516 0h.002l19.2421875-6.5625c.00088034-.00030008.001073-.001652.001953-.001953.8076761-.27637896 1.4265454-.96180249 1.5584999-1.810547l8.9804686-57.7578125c.216579-1.39483-.958079-2.617188-2.3632811-2.617187h-28.2246089zm0 1.701171h28.222657 28.2246089c.470796 0 .7350149.323129.6835937.654297l-8.98242185 57.7578128c-.0299016.1923299-.17284885.37862757-.42578125.4648437l.2734375.8046875-.27539063-.8046875-19.24023437 6.5605469c-.162927.055262-.350744.055262-.513672 0l-19.242187-6.5605469c-.252933-.0862161-.39588-.2725138-.425782-.4648437l-8.982421-57.7578128c-.05142-.331168.212797-.654297.683593-.654297z" fill="#4d3608"/></g><g fill="#f00"><path d="m-125.37446-19.576661v-.999077h.82682v.999077h2.58382v.72347h-2.58382v1.171332h3.41065v.757921h-7.54476v-.757921h3.30729v-1.171332h-2.54937v-.72347zm0-3.720701v-1.136881h.82682v1.136881h2.58382v.689019h-2.58382v1.10243h3.41065v.689019h-7.51031v-.689019h3.27284v-1.10243h-2.54937v-.689019z" stroke-width=".352777" transform="matrix(-1 0 0 -1 -111.351 0)"/><g stroke-miterlimit="10"><path d="m-.63867187 0v22.677734h1.27734374v-22.677734z" transform="matrix(-.35277776 0 0 .35277803 13.55848 6.679433)"/><path d="m-22.677734-.63867187v1.27734374h22.677734v-1.27734374z" transform="matrix(-.35277776 0 0 .35277803 9.55851 10.67943)"/><path d="m-.45117188-.45117188-8.01757812 8.01757808.9023438.9023438 8.01757808-8.01757812z" transform="matrix(-.35277776 0 0 .35277803 13.55848 10.67943)"/><path d="m-7.5664062-8.46875-.9023438.9023438 8.01757812 8.01757808.90234376-.90234376z" transform="matrix(-.35277776 0 0 .35277803 10.73009 13.507879)"/></g></g></svg>