<?xml version="1.0" encoding="UTF-8" standalone="no"?>
<!-- Created with Inkscape (http://www.inkscape.org/) -->

<svg
   width="27.116993mm"
   height="31.358999mm"
   viewBox="0 0 27.116993 31.358999"
   version="1.1"
   id="svg1"
   xmlns="http://www.w3.org/2000/svg"
   xmlns:svg="http://www.w3.org/2000/svg">
  <defs
     id="defs1">
    <clipPath
       clipPathUnits="userSpaceOnUse"
       id="clipPath1388-9">
      <path
         d="M 0,2834.646 H 2834.646 V 0 H 0 Z"
         transform="translate(-246.54421,-1472.6108)"
         id="path1388-8" />
    </clipPath>
  </defs>
  <g
     id="path1387"
     clip-path="url(#clipPath1388-9)"
     transform="matrix(-0.35277776,0,0,0.35277776,6.680329,25.184336)">
    <path
       style="color:#000000;fill:#ffdb9d;stroke-miterlimit:10;-inkscape-stroke:none"
       d="m 0,0 -19.243,6.562 c -0.342,0.116 -0.717,0.116 -1.059,0 L -39.545,0 c -0.531,-0.181 -0.912,-0.618 -0.993,-1.139 l -8.982,-57.757 c -0.134,-0.863 0.585,-1.636 1.523,-1.636 h 28.224 28.225 c 0.938,0 1.657,0.773 1.523,1.636 L 0.993,-1.139 C 0.912,-0.618 0.531,-0.181 0,0"
       id="path3" />
    <path
       style="color:#000000;fill:#000000 icc-color(sRGB-IEC61966-2, 0.1, 0, 0, 0);stroke-miterlimit:10;-inkscape-stroke:none"
       d="m -47.996094,-61.169922 c -1.2884,0 -2.35023,1.109222 -2.154297,2.371094 l 8.982422,57.7578124 c 0.119324,0.76750112 0.67842,1.39244378 1.417969,1.64453122 l 19.242188,6.56249998 c 0.476303,0.1615533 0.992446,0.1615533 1.46875,0 h 0.002 L 0.20507813,0.60351562 C 0.94462747,0.35142818 1.5037233,-0.27351448 1.6230469,-1.0410156 L 10.605469,-58.798828 C 10.801402,-60.0607 9.7395725,-61.169922 8.4511719,-61.169922 H -19.773437 Z m 0,1.275391 h 28.222657 28.2246089 c 0.5875975,0 0.9665972,0.436264 0.8945312,0.90039 L 0.36328125,-1.2363281 c -0.0426762,0.27449779 -0.24590979,0.52290028 -0.56835938,0.63281248 L -19.447266,5.9570312 c -0.207695,0.070447 -0.442694,0.070447 -0.65039,0 l -19.242188,-6.56054682 c -0.322449,-0.1099122 -0.525683,-0.35831469 -0.568359,-0.63281248 l -8.982422,-57.7578129 c -0.07207,-0.464126 0.306934,-0.90039 0.894531,-0.90039 z"
       id="path4" />
  </g>
  <path
     style="fill:#ff0000;stroke-width:0.352777"
     d="m 16.665506,20.113866 h -5.159377 l -0.09922,0.09922 -0.628386,-0.33073 0.661459,-1.752865 q 0.198437,-0.463021 0.595313,-1.455209 l 0.79375,0.264584 -0.529167,1.223698 -0.496094,1.223699 h 4.861721 z m -2.976564,3.340366 q 0,0 1.12448,-1.124479 0.264583,-0.264584 0.859896,-0.760678 h -3.935679 q 0.727605,0.56224 1.058334,0.892969 0.429948,0.363803 0.892969,0.992188 z m 0.231511,0.992188 -0.793751,-0.330729 0.09922,-0.165365 q -1.091407,-1.091406 -1.256771,-1.223698 -0.694532,-0.529167 -1.12448,-0.79375 -0.463021,-0.264584 -1.223698,-0.529167 0.396875,-0.463022 0.56224,-0.727605 0.529166,0.23151 1.488281,0.859896 v -0.661459 h 4.16719 v 0.595314 q 0.859895,-0.661459 1.322916,-0.859897 0.264583,0.429948 0.429948,0.661459 -0.760678,0.396875 -1.025261,0.628386 -0.727604,0.529167 -1.223698,1.02526 -0.926042,0.926043 -1.422136,1.521355 z"
     id="text1388"
     aria-label="今" />
  <path
     style="color:#000000;fill:#ff0000;stroke-width:0.352778;stroke-miterlimit:10;-inkscape-stroke:none"
     d="M 13.832015,6.6799864 V 14.680187 H 13.479237 V 6.6799864 Z"
     id="path1435" />
  <path
     style="color:#000000;fill:#ff0000;stroke-width:0.352778;stroke-miterlimit:10;-inkscape-stroke:none"
     d="m 17.655855,10.503595 v 0.352777 h -8.0002 v -0.352777 z"
     id="path1437" />
  <path
     style="color:#000000;fill:#ff0000;stroke-width:0.352778;stroke-miterlimit:10;-inkscape-stroke:none"
     d="m 13.780338,10.555271 2.828424,2.828423 -0.249425,0.249425 -2.828423,-2.828423 z"
     id="path1439" />
  <path
     style="color:#000000;fill:#ff0000;stroke-width:0.352778;stroke-miterlimit:10;-inkscape-stroke:none"
     d="m 13.530941,10.555297 0.249425,0.249425 -2.828424,2.828423 -0.249424,-0.249425 z"
     id="path1441" />
</svg>
