<?xml version="1.0" encoding="UTF-8" standalone="no"?>
<!-- Created with Inkscape (http://www.inkscape.org/) -->

<svg
   width="27.116999mm"
   height="31.358999mm"
   viewBox="0 0 27.116999 31.358999"
   version="1.1"
   id="svg1"
   inkscape:version="1.3.1 (91b66b0783, 2023-11-16)"
   sodipodi:docname="Template.svg"
   inkscape:export-filename="FAIRY CZECH (Mine)\Regular Shogi\0NY.svg"
   inkscape:export-xdpi="96"
   inkscape:export-ydpi="96"
   xmlns:inkscape="http://www.inkscape.org/namespaces/inkscape"
   xmlns:sodipodi="http://sodipodi.sourceforge.net/DTD/sodipodi-0.dtd"
   xmlns="http://www.w3.org/2000/svg"
   xmlns:svg="http://www.w3.org/2000/svg">
  <sodipodi:namedview
     id="namedview1"
     pagecolor="#ffffff"
     bordercolor="#999999"
     borderopacity="1"
     inkscape:showpageshadow="2"
     inkscape:pageopacity="0"
     inkscape:pagecheckerboard="0"
     inkscape:deskcolor="#d1d1d1"
     inkscape:document-units="mm"
     inkscape:zoom="2.0737236"
     inkscape:cx="31.103471"
     inkscape:cy="78.361457"
     inkscape:window-width="1920"
     inkscape:window-height="1009"
     inkscape:window-x="-8"
     inkscape:window-y="-8"
     inkscape:window-maximized="1"
     inkscape:current-layer="layer1" />
  <defs
     id="defs1">
    <clipPath
       clipPathUnits="userSpaceOnUse"
       id="clipPath1352">
      <path
         d="M 0,2834.646 H 2834.646 V 0 H 0 Z"
         transform="translate(-174.6885,-1471.5031)"
         id="path1352" />
    </clipPath>
  </defs>
  <g
     inkscape:label="Layer 1"
     inkscape:groupmode="layer"
     id="layer1">
    <g
       id="path1351"
       clip-path="url(#clipPath1352)"
       transform="matrix(-0.35277776,0,0,0.35277776,6.9296324,24.793374)">
      <path
         style="color:#000000;fill:#ffdb9d;stroke-miterlimit:10;-inkscape-stroke:none"
         d="m 0,0 -18.208,6.244 c -0.37,0.127 -0.78,0.127 -1.15,0 L -37.566,0 c -0.538,-0.184 -0.92,-0.612 -0.998,-1.116 l -8.551,-55.301 c -0.13,-0.841 0.611,-1.59 1.573,-1.59 h 26.759 26.759 c 0.962,0 1.703,0.749 1.573,1.59 L 0.998,-1.116 C 0.92,-0.612 0.538,-0.184 0,0"
         id="path4" />
      <path
         style="color:#000000;fill:#000000 icc-color(sRGB-IEC61966-2, 0.1, 0, 0, 0);stroke-miterlimit:10;-inkscape-stroke:none"
         d="m -45.542969,-58.644531 c -1.293051,0 -2.397754,1.06512 -2.203125,2.324219 l 8.552735,55.3027339 c 0.117704,0.76054841 0.683624,1.36867598 1.419922,1.62109372 l 18.208984,6.24414058 c 0.506208,0.1737527 1.056183,0.1733188 1.5625,0 L 0.20703125,0.60351562 C 0.94410627,0.35143049 1.5111173,-0.25648005 1.6289062,-1.0175781 L 10.179688,-56.320312 c 0.194628,-1.259099 -0.9100745,-2.324219 -2.2031255,-2.324219 H -18.783203 Z m 0,1.27539 h 26.759766 26.7597655 c 0.6309471,0 1.0067772,0.432569 0.9414063,0.855469 L 0.3671875,-1.2128906 c -0.0382109,0.24690089 -0.23529485,0.49346048 -0.57421875,0.60937498 L -18.414062,5.640625 h -0.002 c -0.233158,0.08003 -0.501217,0.08003 -0.734375,0 l -18.208984,-6.24414062 c -0.338924,-0.1159145 -0.536008,-0.36247409 -0.574219,-0.60937498 l -8.550781,-55.3007814 c -0.06537,-0.4229 0.310459,-0.855469 0.941406,-0.855469 z"
         id="path5" />
    </g>
    <path
       style="fill:#ff0000 icc-color(sRGB-IEC61966-2, 0.1, 1, 0, 0);stroke-width:0.352777"
       d="m 14.019122,20.113671 h 2.116667 v 0.727604 h -4.927866 v -0.727604 h 2.017449 V 17.73242 h -3.141929 v -0.727605 h 6.978388 v 0.727605 h -3.042709 z m -0.132292,4.365626 -0.79375,-0.330729 0.132292,-0.198438 q -0.694532,-0.859896 -1.587501,-1.521354 -0.826823,-0.661459 -1.9513026,-1.256772 0.231511,-0.198437 0.5622396,-0.661458 1.091407,0.661458 2.017449,1.422136 0.826823,0.694531 1.422136,1.455209 0.727604,-0.89297 0.992188,-1.157553 0.496093,-0.496094 1.157552,-1.025261 0.396875,-0.363802 1.091407,-0.760677 0.132291,0.264583 0.529167,0.661459 -0.760678,0.46302 -1.091407,0.694531 -0.760677,0.56224 -1.389063,1.289844 -0.463021,0.56224 -1.091407,1.389063 z"
       id="text1352"
       aria-label="ä»" />
    <path
       style="color:#000000;fill:#ff0000 icc-color(sRGB-IEC61966-2, 0.1, 1, 0, 0);stroke-width:0.352778;stroke-miterlimit:10;-inkscape-stroke:none"
       d="M 13.732246,6.6797888 V 14.679989 H 13.379468 V 6.6797888 Z"
       id="path1443" />
    <path
       style="color:#000000;fill:#ff0000 icc-color(sRGB-IEC61966-2, 0.1, 1, 0, 0);stroke-width:0.352778;stroke-miterlimit:10;-inkscape-stroke:none"
       d="m 17.556053,10.503397 v 0.352778 H 9.5558524 v -0.352778 z"
       id="path1445" />
    <path
       style="color:#000000;fill:#ff0000 icc-color(sRGB-IEC61966-2, 0.1, 1, 0, 0);stroke-width:0.352778;stroke-miterlimit:10;-inkscape-stroke:none"
       d="m 13.68057,10.555073 2.828423,2.828424 -0.249425,0.249425 -2.828423,-2.828424 z"
       id="path1447" />
    <path
       style="color:#000000;fill:#ff0000 icc-color(sRGB-IEC61966-2, 0.1, 1, 0, 0);stroke-width:0.352778;stroke-miterlimit:10;-inkscape-stroke:none"
       d="m 13.431137,10.555099 0.249425,0.249425 -2.828423,2.828423 -0.249425,-0.249425 z"
       id="path1449" />
  </g>
</svg>
