<svg height="31.358999mm" viewBox="0 0 27.116999 31.358999" width="27.116999mm" xmlns="http://www.w3.org/2000/svg" xmlns:xlink="http://www.w3.org/1999/xlink"><linearGradient id="a" gradientTransform="matrix(-1 0 0 -1 -600.32804 66.619946)" gradientUnits="userSpaceOnUse" x1="-545.13495" x2="-545.13495" y1="58.427067" y2="133.82893"><stop offset="0" stop-color="#ffdba6"/><stop offset="1" stop-color="#f2c478"/></linearGradient><clipPath id="b"><path d="m0 2834.646h2834.646v-2834.646h-2834.646z" transform="translate(-531.98141 -1475.1781)"/></clipPath><g clip-path="url(#b)" stroke-miterlimit="10" transform="matrix(-.35277776 0 0 .35277776 5.888767 26.089585)"><path d="m0 0-21.223 7.255c-.337.115-.707.115-1.044 0l-21.223-7.255c-.512-.175-.879-.592-.956-1.088l-9.882-63.712c-.128-.823.569-1.559 1.477-1.559h31.106 31.106c.907 0 1.605.736 1.477 1.559l-9.883 63.712c-.076.496-.443.913-.955 1.088" fill="url(#a)"/><path d="m-52.851562-67.208984c-1.367537 0-2.528283 1.176762-2.316407 2.539062l9.88086 63.71289075c.128752.82936477.735951 1.49322613 1.521484 1.76171875l21.224609 7.2558594c.517057.1764437 1.07474.1764437 1.591797 0h.002l21.22260963-7.2558594c.78495737-.26829599 1.39165257-.93197308 1.51953127-1.76171875v-.001953l9.8828121-63.71093775c.21198-1.362964-.949363-2.539062-2.3164059-2.539062h-31.1054691zm0 1.701172h31.107421 31.1054691c.4469549 0 .6807389.293137.6367188.576171v.002l-9.88281253 63.7128441c-.02473099.1614023-.15215872.33060237-.390625.4121094l-21.22265637 7.2558594v-.00195c-.156942.053556-.337198.053556-.49414 0v.00195l-21.222657-7.2558594c-.238466-.081507-.365377-.2514283-.390625-.4140625l-9.882812-63.710937v-.002c-.04412-.283698.188257-.576171.636719-.576171z" fill="#4d3608"/></g><g fill="#f00"><g stroke-miterlimit="10" stroke-width=".352778"><path d="m13.785299 6.5000993v8.3584897h-.450619v-8.3584897z"/><path d="m14.245165 13.855155.318327.318327-1.003212 1.003211-1.0039-1.003211.318326-.318327.685574.684885z"/><path d="m13.5597 6.1820621 1.003901 1.0032118-.318327.3183268-.685574-.684885-.684885.684885-.318327-.3183268z"/><path d="m17.739191 10.454095v.450619h-8.3584903v-.450619z"/><path d="m17.054102 9.6759029 1.003212 1.0032121-1.003212 1.0039-.318327-.318326.684885-.685574-.684885-.6848853z"/><path d="m10.065875 9.6757412.318327.3183268-.6848849.685574.6848849.684885-.318327.318327-1.0032115-1.003212z"/></g><path d="m14.750749 19.323475v.496094h1.455208v-.496094zm0 1.025261v.529167h1.455208v-.529167zm2.182813-3.141928v4.365627h-2.910418v-3.538804q0-.33073.198438-.529167.264583-.198438.826823-.297656.03307.297656.09922.463021 0 .03307.06615.132291.06615.06615.165364.165365h-.429948q-.132292 0-.165365.03307-.03307.03307-.03307.132292v.595315h1.455201v-1.521354zm-3.671095 5.324741v2.282033h-.793751v-.628386h-2.381251v-.595313h2.381251v-.496094h-2.381251v-1.686719h2.447397v-.496094h-2.215886v-.429948h2.215886v-.463021h-2.215886v-.463021h2.215886v-.463021h-2.215886v-.463022h2.215886v-.396875q0-.23151-.132291-.264583-.06615-.06615-.463022-.06615h-.926042q-.330729 0-.363802.03307-.297656.09922-.330729.529167-.3307293-.231511-.6614593-.330729.132292-.496094.3638033-.661459.23151-.198438.529166-.198438h1.719793q.363802 0 .56224.06615.165364.03307.330729.264584.09922.132291.09922.429948v3.935682h-2.447397v.562239zm1.852084.09922-.264584.992188h1.190626q-.165365-.529167-.297657-.992188zm.727604 1.554428v.661459h-.79375v-.661459h-1.322917v-.56224h.396875l.330729-.992188h-.892969v-.661459h3.770314v.661458h-.892969q0 .09922.09922.429948.09922.363803.165364.56224h.496093v.56224z" stroke-width=".352777"/><g stroke-miterlimit="10" stroke-width=".352778"><path d="m11.254435 8.0556209 4.929242 4.9299311-.318326.318327-4.929243-4.9299313z"/><path d="m15.865351 8.0552216.318326.3183265-4.929242 4.9299319-.318327-.318327z"/></g></g></svg>