<?xml version="1.0" encoding="UTF-8" standalone="no"?>
<!-- Created with Inkscape (http://www.inkscape.org/) -->

<svg
   width="27.116999mm"
   height="31.358999mm"
   viewBox="0 0 27.116999 31.358999"
   version="1.1"
   id="svg1"
   inkscape:version="1.3.1 (91b66b0783, 2023-11-16)"
   sodipodi:docname="Template.svg"
   inkscape:export-filename="FAIRY CZECH (Mine)\Regular Shogi\0TO.svg"
   inkscape:export-xdpi="96"
   inkscape:export-ydpi="96"
   xmlns:inkscape="http://www.inkscape.org/namespaces/inkscape"
   xmlns:sodipodi="http://sodipodi.sourceforge.net/DTD/sodipodi-0.dtd"
   xmlns="http://www.w3.org/2000/svg"
   xmlns:svg="http://www.w3.org/2000/svg">
  <sodipodi:namedview
     id="namedview1"
     pagecolor="#ffffff"
     bordercolor="#999999"
     borderopacity="1"
     inkscape:showpageshadow="2"
     inkscape:pageopacity="0"
     inkscape:pagecheckerboard="0"
     inkscape:deskcolor="#d1d1d1"
     inkscape:document-units="mm"
     inkscape:zoom="2.0737236"
     inkscape:cx="31.103471"
     inkscape:cy="78.361457"
     inkscape:window-width="1920"
     inkscape:window-height="1009"
     inkscape:window-x="-8"
     inkscape:window-y="-8"
     inkscape:window-maximized="1"
     inkscape:current-layer="layer1" />
  <defs
     id="defs1">
    <clipPath
       clipPathUnits="userSpaceOnUse"
       id="clipPath1350">
      <path
         d="M 0,2834.646 H 2834.646 V 0 H 0 Z"
         transform="translate(-101.8765,-1470.7517)"
         id="path1350" />
    </clipPath>
  </defs>
  <g
     inkscape:label="Layer 1"
     inkscape:groupmode="layer"
     id="layer1">
    <g
       id="path1349"
       clip-path="url(#clipPath1350)"
       transform="matrix(-0.35277776,0,0,0.35277776,7.6162747,24.528559)">
      <path
         style="color:#000000;fill:#ffdb9d;stroke-miterlimit:10;-inkscape-stroke:none"
         d="m 0,0 -16.217,5.989 c -0.397,0.146 -0.844,0.146 -1.241,0 L -33.674,0 c -0.531,-0.196 -0.903,-0.628 -0.975,-1.131 l -7.687,-53.534 c -0.122,-0.848 0.627,-1.599 1.595,-1.599 h 23.904 23.903 c 0.969,0 1.717,0.751 1.596,1.599 L 0.975,-1.131 C 0.902,-0.628 0.531,-0.196 0,0"
         id="path2" />
      <path
         style="color:#000000;fill:#000000 icc-color(sRGB-IEC61966-2, 0.1, 0, 0, 0);stroke-miterlimit:10;-inkscape-stroke:none"
         d="m -40.740234,-56.902344 c -1.297878,0 -2.408516,1.0634 -2.226563,2.328125 l 7.685547,53.5332034 c 0.108405,0.75733012 0.660892,1.37075823 1.386719,1.63867185 l 16.216797,5.99023435 c 0.542556,0.1995297 1.139083,0.1995297 1.68164,0 L 0.22070313,0.59765625 C 0.94677435,0.32965256 1.4958101,-0.28346941 1.6054687,-1.0390625 L 9.2929688,-54.574219 c 0.1803606,-1.264015 -0.9280255,-2.328125 -2.2265626,-2.328125 H -16.837891 Z m 0,1.275391 h 23.902343 23.9042972 c 0.639461,0 1.0264829,0.439111 0.9648438,0.871094 l -7.6875,53.5332028 c -0.0363412,0.25040585 -0.22852541,0.50100403 -0.56445313,0.62499995 L -16.4375,5.390625 c -0.250829,0.092244 -0.547774,0.091794 -0.798828,0 h -0.002 l -16.214844,-5.98828125 c -0.336172,-0.12408599 -0.528858,-0.37437802 -0.564453,-0.62304685 l -7.6875,-53.5351559 c -0.06205,-0.431273 0.326723,-0.871094 0.964844,-0.871094 z"
         id="path3" />
    </g>
    <path
       style="fill:#ff0000 icc-color(sRGB-IEC61966-2, 0.1, 1, 0, 0);stroke-width:0.35424"
       d="m 13.970066,20.606089 q -0.557607,0.198437 -2.656833,0.859897 l -0.295204,-0.826825 q 2.525632,-0.595313 3.017638,-0.826824 1.213614,-0.463022 1.640019,-0.926043 0.328004,-0.33073 0.328004,-0.727606 0,-0.463022 -0.426405,-0.694533 -0.557606,-0.297657 -2.263227,-0.297657 -0.885611,0 -1.180815,0.03308 -0.524806,0 -1.213615,0.132292 l -0.0328,-0.826825 q 1.771222,-0.09922 2.197627,-0.09922 1.574419,0 2.427229,0.297657 0.721609,0.264584 0.951212,0.628387 0.295203,0.396875 0.295203,0.793751 0,0.595314 -0.459205,1.157554 -0.459206,0.56224 -1.67282,1.091409 0.0656,0.297656 0.164002,1.058335 0.0656,0.463021 0.0656,1.157554 0,0.56224 -0.0328,0.959116 l -0.88561,0.03307 q 0.0984,-1.190627 0.0984,-1.984379 0,-0.132292 -0.0656,-0.992189 z"
       id="text1350"
       aria-label="ã¨" />
    <path
       style="color:#000000;fill:#ff0000 icc-color(sRGB-IEC61966-2, 0.1, 1, 0, 0);stroke-width:0.352778;stroke-miterlimit:10;-inkscape-stroke:none"
       d="M 13.732416,6.6800589 V 14.680259 H 13.379638 V 6.6800589 Z"
       id="path1451" />
    <path
       style="color:#000000;fill:#ff0000 icc-color(sRGB-IEC61966-2, 0.1, 1, 0, 0);stroke-width:0.352778;stroke-miterlimit:10;-inkscape-stroke:none"
       d="m 17.556222,10.503667 v 0.352778 H 9.5560217 v -0.352778 z"
       id="path1453" />
    <path
       style="color:#000000;fill:#ff0000 icc-color(sRGB-IEC61966-2, 0.1, 1, 0, 0);stroke-width:0.352778;stroke-miterlimit:10;-inkscape-stroke:none"
       d="m 13.680739,10.555343 2.828423,2.828424 -0.249424,0.249425 -2.828424,-2.828424 z"
       id="path1455" />
    <path
       style="color:#000000;fill:#ff0000 icc-color(sRGB-IEC61966-2, 0.1, 1, 0, 0);stroke-width:0.352778;stroke-miterlimit:10;-inkscape-stroke:none"
       d="m 13.431308,10.555369 0.249424,0.249425 -2.828423,2.828423 -0.249425,-0.249425 z"
       id="path1457" />
  </g>
</svg>
