<?xml version="1.0" encoding="UTF-8" standalone="no"?>
<!-- Created with Inkscape (http://www.inkscape.org/) -->

<svg
   width="27.116999mm"
   height="31.358999mm"
   viewBox="0 0 27.116999 31.358999"
   version="1.1"
   id="svg1"
   inkscape:version="1.3.1 (91b66b0783, 2023-11-16)"
   sodipodi:docname="Template.svg"
   inkscape:export-filename="FAIRY CZECH (Mine)\Regular Shogi\0UM.svg"
   inkscape:export-xdpi="96"
   inkscape:export-ydpi="96"
   xmlns:inkscape="http://www.inkscape.org/namespaces/inkscape"
   xmlns:sodipodi="http://sodipodi.sourceforge.net/DTD/sodipodi-0.dtd"
   xmlns="http://www.w3.org/2000/svg"
   xmlns:svg="http://www.w3.org/2000/svg">
  <sodipodi:namedview
     id="namedview1"
     pagecolor="#ffffff"
     bordercolor="#999999"
     borderopacity="1"
     inkscape:showpageshadow="2"
     inkscape:pageopacity="0"
     inkscape:pagecheckerboard="0"
     inkscape:deskcolor="#d1d1d1"
     inkscape:document-units="mm"
     inkscape:zoom="2.0737236"
     inkscape:cx="31.103471"
     inkscape:cy="78.361457"
     inkscape:window-width="1920"
     inkscape:window-height="1009"
     inkscape:window-x="-8"
     inkscape:window-y="-8"
     inkscape:window-maximized="1"
     inkscape:current-layer="layer1" />
  <defs
     id="defs1">
    <clipPath
       clipPathUnits="userSpaceOnUse"
       id="clipPath1374">
      <path
         d="M 0,2834.646 H 2834.646 V 0 H 0 Z"
         transform="translate(-461.11531,-1475.1781)"
         id="path1374" />
    </clipPath>
  </defs>
  <g
     inkscape:label="Layer 1"
     inkscape:groupmode="layer"
     id="layer1">
    <g
       id="path1373"
       clip-path="url(#clipPath1374)"
       transform="matrix(-0.35277776,0,0,0.35277776,5.8848752,26.089492)">
      <path
         style="color:#000000;fill:#ffdb9d;stroke-miterlimit:10;-inkscape-stroke:none"
         d="m 0,0 -21.223,7.255 c -0.337,0.115 -0.707,0.115 -1.044,0 L -43.49,0 c -0.512,-0.175 -0.879,-0.592 -0.956,-1.088 L -54.328,-64.8 c -0.128,-0.823 0.569,-1.559 1.477,-1.559 h 31.106 31.106 c 0.907,0 1.605,0.736 1.477,1.559 L 0.955,-1.088 C 0.879,-0.592 0.512,-0.175 0,0"
         id="path12" />
      <path
         style="color:#000000;fill:#000000 icc-color(sRGB-IEC61966-2, 0.1, 0, 0, 0);stroke-miterlimit:10;-inkscape-stroke:none"
         d="m -52.851562,-66.996094 c -1.251962,0 -2.296864,1.066348 -2.107422,2.292969 l 9.882812,63.71289062 c 0.115729,0.74547161 0.662539,1.3482841 1.378906,1.59375 l 21.22461,7.25585938 c 0.472042,0.1610827 0.983036,0.1610827 1.455078,0 L 0.20703125,0.60351562 c 0.71656798,-0.24492069 1.26384645,-0.84764165 1.37890625,-1.59375 v -0.001953 L 11.46875,-64.701172 c 0.190985,-1.227972 -0.85539,-2.294922 -2.1074219,-2.294922 H -21.744141 Z m 0,1.275391 h 31.107421 31.1054691 c 0.5619667,0 0.9107179,0.404239 0.8457029,0.822266 L 0.32421875,-1.1855469 c -0.0375483,0.24505211 -0.2244,0.4771509 -0.53125,0.58203128 L -21.429687,6.6523437 c -0.201958,0.068917 -0.428903,0.068917 -0.63086,0 l -21.222656,-7.25585932 c -0.30685,-0.10488038 -0.495017,-0.33605519 -0.533203,-0.58203128 l -9.88086,-63.7128901 c -0.06509,-0.418525 0.282357,-0.822266 0.845704,-0.822266 z"
         id="path13" />
    </g>
    <path
       style="fill:#ff0000 icc-color(sRGB-IEC61966-2, 0.1, 1, 0, 0);stroke-width:0.352777"
       d="m 15.638478,19.158017 -0.628386,0.132292 Q 14.778582,18.62885 14.64629,18.000465 L 15.340822,17.8351 q 0.03307,0.529167 0.297656,1.322917 z m 1.091407,0.231511 -0.661459,-0.231511 q 0.23151,-0.859896 0.595313,-1.620573 l 0.661459,0.297656 q -0.264584,0.628386 -0.595313,1.554428 z m -2.546616,-0.165365 -0.56224,0.198438 q -0.23151,-0.363802 -0.496094,-1.157553 l 0.595313,-0.23151 q 0.132292,0.396875 0.463021,1.190625 z m -1.91823,-0.859896 0.56224,1.025261 -0.56224,0.264583 q -0.297656,-0.429948 -0.595313,-0.992188 z m 1.587501,2.14974 v 0.727605 h 1.951303 v -0.727605 z m 0,1.355991 v 0.661459 h 1.951303 v -0.661459 z m 0,1.256771 v 0.661459 h 1.951303 v -0.661459 z m 2.71198,-3.505731 v 4.861721 h -6.250784 v -0.694531 h 2.778126 v -0.661459 h -2.348178 v -0.595312 h 2.348178 v -0.661459 h -2.348178 v -0.628386 h 2.348178 v -0.727605 h -3.042709 q 0.03307,-2.017448 0.198437,-2.579688 0.06615,-0.363802 0.297657,-0.463021 0.396875,-0.231511 1.322917,-0.363802 0.03307,0.297656 0.297656,0.859896 h -0.79375 q -0.264583,0 -0.297656,0.09922 -0.132292,0.23151 -0.165365,1.785938 h 4.894794 v -0.231511 z"
       id="text1374"
       aria-label="馬" />
    <path
       style="color:#000000;fill:#ff0000 icc-color(sRGB-IEC61966-2, 0.1, 1, 0, 0);stroke-width:0.352778;stroke-miterlimit:10;-inkscape-stroke:none"
       d="m 10.356606,6.196888 6.647656,6.716558 -0.250803,0.248736 -6.647656,-6.7172471 z"
       id="path1375" />
    <path
       style="color:#000000;fill:#ff0000 icc-color(sRGB-IEC61966-2, 0.1, 1, 0, 0);stroke-width:0.352778;stroke-miterlimit:10;-inkscape-stroke:none"
       d="m 17.054807,11.680654 v 1.533757 H 15.53552 v -0.352778 h 1.166509 v -1.180979 z"
       id="path1377" />
    <path
       style="color:#000000;fill:#ff0000 icc-color(sRGB-IEC61966-2, 0.1, 1, 0, 0);stroke-width:0.352778;stroke-miterlimit:10;-inkscape-stroke:none"
       d="m 11.574102,6.1441501 v 0.3527777 l -1.166509,6.89e-4 V 7.6779065 H 10.054815 V 6.1448391 Z"
       id="path1379" />
    <path
       style="color:#000000;fill:#ff0000 icc-color(sRGB-IEC61966-2, 0.1, 1, 0, 0);stroke-width:0.352778;stroke-miterlimit:10;-inkscape-stroke:none"
       d="m 16.753459,6.1963792 0.250803,0.2487359 -6.647656,6.7165579 -0.250803,-0.248047 z"
       id="path1381" />
    <path
       style="color:#000000;fill:#ff0000 icc-color(sRGB-IEC61966-2, 0.1, 1, 0, 0);stroke-width:0.352778;stroke-miterlimit:10;-inkscape-stroke:none"
       d="M 17.054786,6.1445226 V 7.678279 H 16.702008 V 6.4973003 H 15.535499 V 6.1445226 Z"
       id="path1383" />
    <path
       style="color:#000000;fill:#ff0000 icc-color(sRGB-IEC61966-2, 0.1, 1, 0, 0);stroke-width:0.352778;stroke-miterlimit:10;-inkscape-stroke:none"
       d="m 10.407648,11.680282 v 1.180979 h 1.166509 v 0.352777 H 10.05487 v -1.533756 z"
       id="path1385" />
    <path
       style="color:#000000;fill:#ff0000 icc-color(sRGB-IEC61966-2, 0.1, 1, 0, 0);stroke-width:0.352778;stroke-miterlimit:10;-inkscape-stroke:none"
       d="M 13.732487,7.1794045 V 12.179616 H 13.379709 V 7.1794045 Z"
       id="path1411" />
    <path
       style="color:#000000;fill:#ff0000 icc-color(sRGB-IEC61966-2, 0.1, 1, 0, 0);stroke-width:0.352778;stroke-miterlimit:10;-inkscape-stroke:none"
       d="M 16.056315,9.5030636 V 9.8558413 H 11.056103 V 9.5030636 Z"
       id="path1413" />
  </g>
</svg>
