<svg height="106.98547" width="110" xmlns="http://www.w3.org/2000/svg" xmlns:xlink="http://www.w3.org/1999/xlink"><linearGradient id="a" gradientUnits="userSpaceOnUse" spreadMethod="pad" x1="324.01596" x2="330.45486" y1="636.04993" y2="604.45496"><stop offset="0" stop-color="#e5e6e9"/><stop offset="1" stop-color="#f8fbfd"/></linearGradient><filter id="b" color-interpolation-filters="sRGB"><feFlood flood-opacity=".498039" result="flood"/><feComposite in="flood" in2="SourceGraphic" operator="in" result="composite1"/><feGaussianBlur in="composite1" result="blur" stdDeviation="1"/><feOffset dx="1.9" dy="4" result="offset"/><feComposite in="SourceGraphic" in2="offset" operator="over" result="composite2"/></filter><filter id="c" color-interpolation-filters="sRGB"><feFlood flood-opacity=".498039" result="flood"/><feComposite in="flood" in2="SourceGraphic" operator="in" result="composite1"/><feGaussianBlur in="composite1" result="blur" stdDeviation="1"/><feOffset dx="0" dy="4" result="offset"/><feComposite in="SourceGraphic" in2="offset" operator="over" result="composite2"/></filter><filter id="d" color-interpolation-filters="sRGB"><feFlood flood-color="#d3d6dd" flood-opacity=".498039" result="flood"/><feComposite in="flood" in2="SourceGraphic" operator="in" result="composite1"/><feGaussianBlur in="composite1" result="blur" stdDeviation=".5"/><feOffset dx="0" dy="1" result="offset"/><feComposite in="SourceGraphic" in2="offset" operator="over" result="composite2"/></filter><filter id="e" color-interpolation-filters="sRGB"><feFlood flood-opacity=".498039" result="flood"/><feComposite in="flood" in2="SourceGraphic" operator="out" result="composite1"/><feGaussianBlur in="composite1" result="blur" stdDeviation="1"/><feOffset dx="0" dy="1.5" result="offset"/><feComposite in="offset" in2="SourceGraphic" operator="atop" result="composite2"/></filter><g transform="translate(9.038058 11.69732)"><g transform="translate(-5.409257 3.924987)"><path d="m289.651 623.037v-28.463l20.122-20.123h28.459l20.127 20.123v28.463l-.064.065-20.063 20.058h-28.377-.082z" fill="url(#a)" filter="url(#b)" stroke="#f6f9fb" stroke-opacity=".996078" stroke-width="2.439709" transform="matrix(1.2861665 0 0 1.2491602 -365.43778 -724.62078)"/><g fill="#b9abab" filter="url(#c)" transform="matrix(1.1064213 0 0 1.1064213 .386182 -9.722985)"><path d="m358.299 623.105v6.309l.043.043-19.881 19.877h-.229v-6.088-.086l20.063-20.058z" fill="#877a7a" fill-opacity=".968627" transform="matrix(1.2582555 -.01787195 .0164438 1.147024 -373.7306 -650.44484)"/><path d="m338.176 649.406h-28.309-.012v-.144-6.016-.086h28.377v.086 6.088.072z" fill="#9a8d8d" transform="matrix(1.1666454 0 0 1.1368627 -332.02449 -649.97198)"/><path d="m309.727 649.262-20.076-20.076v-6.149l20.122 20.123h.082v.086 6.016z" fill="#b9abab" transform="matrix(1.2329472 0 0 1.1618787 -352.46822 -666.04755)"/></g><g fill="none"><path d="m338.232 574.451 20.127 20.123v28.463l-.064.065-20.063 20.058h-28.377-.082l-20.122-20.123v-28.463l20.122-20.123z" transform="matrix(1.2855273 0 0 1.2855273 -365.23071 -745.48998)"/><path d="m289.651 623.037v6.149.156" transform="matrix(1.2855273 0 0 1.2855273 -365.23071 -745.48998)"/><path d="m309.855 643.246v6.016.144.143" transform="matrix(1.2855273 0 0 1.2855273 -365.23071 -745.48998)"/><path d="m338.232 643.246v6.088.072.143" transform="matrix(1.2855273 0 0 1.2855273 -365.23071 -745.48998)"/><path d="m95.372452 55.528488v8.11042"/><path d="m289.589 629.125.062.061 20.076 20.076" transform="matrix(1.2855273 0 0 1.2855273 -365.23071 -745.48998)"/><path d="m338.461 649.334 19.881-19.877.068-.072" transform="matrix(1.2855273 0 0 1.2855273 -365.23071 -745.48998)"/><path d="m33.11179 89.33918h36.391979"/><path d="m7.9303813 25.454918 21.7132037-21.225766 32.194805.073223 22.584524 21.225766" filter="url(#d)" stroke="#dadde2" transform="matrix(1.1064213 0 0 1.1064213 .386182 -9.722985)"/><path d="m9.4450057 18.041274-.2766053 34.990573" stroke="#e6e6e6" stroke-width="1.106421"/><path d="m93.612846 18.187544-.276605 34.990573" stroke="#e6e6e6" stroke-width="1.106421"/></g></g><g fill="#112d94" filter="url(#e)" transform="matrix(.94955747 0 0 .94955747 100.90259 -12.406187)"><path d="m58.615234 64.132812-2.830078 4.009766c1.886038.220912 3.701507.505892 5.482422.814453z" transform="matrix(1.1695906 0 0 1.1695906 -111.08633 3.827383)"/><path d="m33.058594 64.066406-2.847656 5.039063c1.950052-.388541 3.851611-.688682 5.714843-.923828z" transform="matrix(1.1695906 0 0 1.1695906 -111.08633 3.827383)"/><path d="m39.783203 64.029297-2.023437 3.935547c1.379329-.141812 2.730139-.238682 4.0625-.306641z" transform="matrix(1.1695906 0 0 1.1695906 -111.08633 3.827383)"/><path d="m51.738281 63.65625-2.441406 3.962891c1.639296.06864 3.235946.187947 4.800781.341797z" transform="matrix(1.1695906 0 0 1.1695906 -111.08633 3.827383)"/><path d="m39.544922 58.751953c-2.066286.180816-4.131943.442478-6.1875.791016l3.132812 4.300781z" transform="matrix(1.1695906 0 0 1.1695906 -111.08633 3.827383)"/><path d="m39.544922 58.751953-3.054688 5.091797-3.132812-4.300781c2.055557-.348538 4.121214-.6102 6.1875-.791016z" transform="matrix(1.1695906 0 0 1.1695906 -111.08633 3.827383)"/><path d="m52.230469 58.708984 2.96875 5.126954 3.197265-4.345704c-2.017962-.354321-4.079213-.608422-6.166015-.78125z" transform="matrix(1.1695906 0 0 1.1695906 -111.08633 3.827383)"/><path d="m52.230469 58.708984c2.086802.172828 4.148053.426929 6.166015.78125l-3.197265 4.345704z" transform="matrix(1.1695906 0 0 1.1695906 -111.08633 3.827383)"/><path d="m46.292969 58.451172c-2.053106-.0026-4.120613.08995-6.189453.255859l2.291015 4.232422a3.1407409 3.283558 0 0 1 -.002-.08789 3.1407409 3.283558 0 0 1 0-.07422 3.1407409 3.283558 0 0 1 .0078-.154297 3.1407409 3.283558 0 0 1 .01367-.152344 3.1407409 3.283558 0 0 1 .01953-.152344 3.1407409 3.283558 0 0 1 .02734-.152343 3.1407409 3.283558 0 0 1 .03516-.148438 3.1407409 3.283558 0 0 1 .04102-.148437 3.1407409 3.283558 0 0 1 .04687-.146485 3.1407409 3.283558 0 0 1 .05469-.142578 3.1407409 3.283558 0 0 1 .06055-.140625 3.1407409 3.283558 0 0 1 .06641-.138672 3.1407409 3.283558 0 0 1 .07227-.132812 3.1407409 3.283558 0 0 1 .07813-.13086 3.1407409 3.283558 0 0 1 .084029-.126952 3.1407409 3.283558 0 0 1 .08984-.121094 3.1407409 3.283558 0 0 1 .0957-.117187 3.1407409 3.283558 0 0 1 .09961-.113281 3.1407409 3.283558 0 0 1 .105469-.107422 3.1407409 3.283558 0 0 1 .111328-.103516 3.1407409 3.283558 0 0 1 .113281-.0957 3.1407409 3.283558 0 0 1 .119141-.0918 3.1407409 3.283558 0 0 1 .123047-.08594 3.1407409 3.283558 0 0 1 .126953-.07813 3.1407409 3.283558 0 0 1 .128906-.07227 3.1407409 3.283558 0 0 1 .132813-.06641 3.1407409 3.283558 0 0 1 .136718-.06055 3.1407409 3.283558 0 0 1 .136719-.05273 3.1407409 3.283558 0 0 1 .140625-.04687 3.1407409 3.283558 0 0 1 .142578-.03906 3.1407409 3.283558 0 0 1 .144532-.03125 3.1407409 3.283558 0 0 1 .144531-.02539 3.1407409 3.283558 0 0 1 .146484-.01953 3.1407409 3.283558 0 0 1 .148438-.0098 3.1407409 3.283558 0 0 1 .146484-.0039 3.1407409 3.283558 0 0 1 .07031 0 3.1407409 3.283558 0 0 1 .148437.0078 3.1407409 3.283558 0 0 1 .146485.01367 3.1407409 3.283558 0 0 1 .144531.02148 3.1407409 3.283558 0 0 1 .146484.0293 3.1407409 3.283558 0 0 1 .142578.03516 3.1407409 3.283558 0 0 1 .140625.04297 3.1407409 3.283558 0 0 1 .140625.04883 3.1407409 3.283558 0 0 1 .136719.05664 3.1407409 3.283558 0 0 1 .134766.06445 3.1407409 3.283558 0 0 1 .130859.06836 3.1407409 3.283558 0 0 1 .128906.07617 3.1407409 3.283558 0 0 1 .125.08203 3.1407409 3.283558 0 0 1 .119141.08789 3.1407409 3.283558 0 0 1 .117187.09375 3.1407409 3.283558 0 0 1 .113282.09961 3.1407409 3.283558 0 0 1 .107421.105469 3.1407409 3.283558 0 0 1 .103516.109375 3.1407409 3.283558 0 0 1 .09766.115234 3.1407409 3.283558 0 0 1 .0918.121094 3.1407409 3.283558 0 0 1 .08789.123047 3.1407409 3.283558 0 0 1 .08203.128906 3.1407409 3.283558 0 0 1 .07617.13086 3.1407409 3.283558 0 0 1 .06836.136719 3.1407409 3.283558 0 0 1 .06445.138671 3.1407409 3.283558 0 0 1 .05664.142579 3.1407409 3.283558 0 0 1 .05078.144531 3.1407409 3.283558 0 0 1 .04492.146484 3.1407409 3.283558 0 0 1 .03711.148438 3.1407409 3.283558 0 0 1 .03125.15039 3.1407409 3.283558 0 0 1 .02344.152344 3.1407409 3.283558 0 0 1 .01758.152344 3.1407409 3.283558 0 0 1 .0098.154297 3.1407409 3.283558 0 0 1 .0039.154296 3.1407409 3.283558 0 0 1 -.002.126954 3.1407409 3.283558 0 0 1 -.0098.154296l3.101563-4.464843c-1.807525-.137671-3.631953-.214418-5.470643-.216749z" transform="matrix(1.1695906 0 0 1.1695906 -111.08633 3.827383)"/><path d="m46.292969 58.451172c1.83869.0023 3.663118.07908 5.470703.216797l-3.101563 4.464843a3.1407409 3.283558 0 0 0 .0098-.154296 3.1407409 3.283558 0 0 0 .002-.126954 3.1407409 3.283558 0 0 0 -.0039-.154296 3.1407409 3.283558 0 0 0 -.0098-.154297 3.1407409 3.283558 0 0 0 -.01758-.152344 3.1407409 3.283558 0 0 0 -.02344-.152344 3.1407409 3.283558 0 0 0 -.03125-.15039 3.1407409 3.283558 0 0 0 -.03711-.148438 3.1407409 3.283558 0 0 0 -.04492-.146484 3.1407409 3.283558 0 0 0 -.05078-.144531 3.1407409 3.283558 0 0 0 -.05664-.142579 3.1407409 3.283558 0 0 0 -.06445-.138671 3.1407409 3.283558 0 0 0 -.06836-.136719 3.1407409 3.283558 0 0 0 -.07617-.13086 3.1407409 3.283558 0 0 0 -.08203-.128906 3.1407409 3.283558 0 0 0 -.08789-.123047 3.1407409 3.283558 0 0 0 -.0918-.121094 3.1407409 3.283558 0 0 0 -.09766-.115234 3.1407409 3.283558 0 0 0 -.103516-.109375 3.1407409 3.283558 0 0 0 -.107421-.105469 3.1407409 3.283558 0 0 0 -.113282-.09961 3.1407409 3.283558 0 0 0 -.117187-.09375 3.1407409 3.283558 0 0 0 -.119141-.08789 3.1407409 3.283558 0 0 0 -.125-.08203 3.1407409 3.283558 0 0 0 -.128906-.07617 3.1407409 3.283558 0 0 0 -.130859-.06836 3.1407409 3.283558 0 0 0 -.134766-.06445 3.1407409 3.283558 0 0 0 -.136719-.05664 3.1407409 3.283558 0 0 0 -.140625-.04883 3.1407409 3.283558 0 0 0 -.140625-.04297 3.1407409 3.283558 0 0 0 -.142578-.03516 3.1407409 3.283558 0 0 0 -.146484-.0293 3.1407409 3.283558 0 0 0 -.144531-.02148 3.1407409 3.283558 0 0 0 -.146485-.01367 3.1407409 3.283558 0 0 0 -.148437-.0078 3.1407409 3.283558 0 0 0 -.07031 0 3.1407409 3.283558 0 0 0 -.146484.0039 3.1407409 3.283558 0 0 0 -.148438.0098 3.1407409 3.283558 0 0 0 -.146484.01953 3.1407409 3.283558 0 0 0 -.144531.02539 3.1407409 3.283558 0 0 0 -.144532.03125 3.1407409 3.283558 0 0 0 -.142578.03906 3.1407409 3.283558 0 0 0 -.140625.04687 3.1407409 3.283558 0 0 0 -.136719.05273 3.1407409 3.283558 0 0 0 -.136718.06055 3.1407409 3.283558 0 0 0 -.132813.06641 3.1407409 3.283558 0 0 0 -.128906.07227 3.1407409 3.283558 0 0 0 -.126953.07813 3.1407409 3.283558 0 0 0 -.123047.08594 3.1407409 3.283558 0 0 0 -.119141.0918 3.1407409 3.283558 0 0 0 -.113281.0957 3.1407409 3.283558 0 0 0 -.111328.103516 3.1407409 3.283558 0 0 0 -.105469.107422 3.1407409 3.283558 0 0 0 -.09961.113281 3.1407409 3.283558 0 0 0 -.0957.117187 3.1407409 3.283558 0 0 0 -.0899.121046 3.1407409 3.283558 0 0 0 -.08398.126953 3.1407409 3.283558 0 0 0 -.07813.13086 3.1407409 3.283558 0 0 0 -.07227.132812 3.1407409 3.283558 0 0 0 -.06641.138672 3.1407409 3.283558 0 0 0 -.06055.140625 3.1407409 3.283558 0 0 0 -.05469.142578 3.1407409 3.283558 0 0 0 -.04687.146485 3.1407409 3.283558 0 0 0 -.04102.148437 3.1407409 3.283558 0 0 0 -.03516.148438 3.1407409 3.283558 0 0 0 -.02734.152343 3.1407409 3.283558 0 0 0 -.01953.152344 3.1407409 3.283558 0 0 0 -.01367.152344 3.1407409 3.283558 0 0 0 -.0078.154297 3.1407409 3.283558 0 0 0 0 .07422 3.1407409 3.283558 0 0 0 .002.08789l-2.291015-4.232422c2.06884-.165909 4.136347-.258462 6.189453-.255859z" transform="matrix(1.1695906 0 0 1.1695906 -111.08633 3.827383)"/><path d="m45.5 44.878906c-.428396.01345-.913185.208904-1.496094.796875-.582908.587972-1.208726 1.558692-1.759765 2.894531l-.277344.671876-.716797.115234c-1.659269.266307-2.721446.679742-3.433594 1.201172-.712147.52143-1.074266 1.150855-1.332031 1.845703-.427128 1.151387-.401876 2.622186-.519531 4.113281 3.444388-.450233 6.903684-.674364 10.330078-.669922 2.999833.0039 5.971063.192076 8.886719.546875-.100656-1.679117-.2893-2.846259-.53125-3.669922-.241951-.823662-.537206-1.303845-.847657-1.609375-.67371-.663032-2.000288-.913441-4.060546-1.861328l-.429688-.197265-.201172-.427735c-.682581-1.443807-1.405674-2.442411-2.044922-3.023437-.639248-.581027-1.138009-.740015-1.566406-.726563z" transform="matrix(1.1695906 0 0 1.1695906 -111.08633 3.827383)"/><path d="m45.5 44.878906c.428397-.01345.927158.145536 1.566406.726563.639248.581026 1.362341 1.57963 2.044922 3.023437l.201172.427735.429688.197265c2.060258.947887 3.386836 1.198296 4.060546 1.861328.310451.30553.605706.785713.847657 1.609375.24195.823663.430594 1.990805.53125 3.669922-2.915656-.354799-5.886886-.542986-8.886719-.546875-3.426394-.0044-6.88569.219689-10.330078.669922.117655-1.491095.0924-2.961894.519531-4.113281.257765-.694848.619884-1.324273 1.332031-1.845703.712148-.52143 1.774325-.934865 3.433594-1.201172l.716797-.115234.277344-.671876c.551039-1.335839 1.176857-2.306559 1.759765-2.894531.582909-.587971 1.067698-.783421 1.496094-.796875z" transform="matrix(1.1695906 0 0 1.1695906 -111.08633 3.827383)"/><path d="m52.181641 32-2.455079 12.699219c.517017.663728.999705 1.440068 1.455079 2.332031.80128.334991 1.582742.568533 2.328125.880859.745382.312326 1.454686.703436 2.115234 1.353516.593691.584281 1.045535 1.320839 1.382812 2.291016.337278.970177.55999 2.173973.69336 3.691406.211844-.901402 1.184297-5.043981 2.486328-10.464844 1.360982-5.666296 2.71638-11.182718 3.357422-13.365234-.663882-.615415-1.346692-1.202281-2.111328-1.548828-.967799-.438625-1.994702-.664051-3.025391-.679688-1.030688-.01564-2.063823.179674-3.046875.578125-.983052.398452-1.915345 1.001046-2.740234 1.804688z" transform="matrix(1.1695906 0 0 1.1695906 -111.08633 3.827383)"/><path d="m41.449219 32.042969 1.734375 10.992187c.685998-.442391 1.436499-.72885 2.234375-.753906.919427-.02887 1.820377.27233 2.634765.810547l2.28711-11.839844c-.994448-.851395-1.908879-1.535423-2.626953-1.8125-.852646-.329003-1.549558-.330867-2.179688-.189453-.63013.141415-1.264214.491119-1.917969.964844-.653754.473724-1.325362 1.071468-2.03125 1.707031z" transform="matrix(1.1695906 0 0 1.1695906 -111.08633 3.827383)"/><path d="m33.400391 55.373047c.01243-.308801.02337-.538193.04883-.876953.07014-.933252.218877-1.962554.601562-2.994141.371781-1.002192 1.038366-1.94704 2.041016-2.734375.501325-.393667 1.087713-.748435 1.761719-1.050781.674005-.302346 1.436308-.552328 2.292968-.738281.399515-.867743.837224-1.64102 1.324219-2.302735l-2.037111-12.908203c-.699797-.306491-1.411251-.611289-2.023438-.970703-.883851-.518908-1.708817-1.011657-2.5625-1.248047-.426841-.118195-.863553-.198325-1.332031-.203125s-.967575.06567-1.515625.248047c-.54805.182376-1.14499.476591-1.810547.919922-.519229.345861-1.12103.869717-1.732422 1.414062.643763 2.26193 1.788181 7.713598 2.933594 13.355469 1.061513 5.228607 1.790611 8.970216 2.009766 10.089844z" transform="matrix(1.1695906 0 0 1.1695906 -111.08633 3.827383)"/><path d="m18.824219 30.785156c.340842.508981.706424.952069 1.003906 1.136719.329233.20436.474034.231686.802734.02148l.601563-.384765.324219.636718c.496377.970985.994639 1.467667 1.33789 1.605469.343253.137802.650273.09149 1.214844-.394531l.978516.828125c-.491011.809183-.695011 1.487952-.63086 2.011719.03208.261883.121601.512684.308594.763672s.471453.502163.894531.763672l.347656.214843-.04297.40625c-.124546 1.170256-.298953 2.149858-.22461 2.931641.03717.390891.117223.73491.296875 1.066406.179653.331496.458907.650472.894532.990234l.333984.259766-.103516.410156c-.332902 1.320308-.369172 2.198494-.195312 2.875s.559263 1.220956 1.261719 1.888672l.380859.359375-.271484.449219c-.395464.650444-.549392 1.56676-.394532 2.375.07743.40412.221743.771659.435547 1.080078.213805.308419.497102.557718.853516.722656l.484375.222657-.125.517578c-.193861.801996-.377182 1.552571-.257813 1.949219.05968.198322.151019.342329.44336.513671.224579.131627.628045.247799 1.142578.335938.07146-.01404.143341-.02527.214844-.03906l-.0039-.02344v-.0039s-1.078444-5.532755-2.285156-11.476563c-1.16668-5.746622-2.457406-11.741511-2.929687-13.380859-.07629-.01035-.07998-.01532-.197266-.02539-.5528-.04749-1.491288-.104677-2.53125-.5625-.519981-.228912-1.049058-.549427-1.582031-.99414-.532978-.444718-1.070387-1.014465-1.605474-1.740238s-1.067428-1.607599-1.59375-2.679687c-.02237-.04556-.04406-.11586-.06641-.16211.01821 1.356331.31324 3.003369.484375 4.53125z" transform="matrix(1.1695906 0 0 1.1695906 -111.08633 3.827383)"/><path d="m27.015625 58.226562c.562694-.139296 1.123991-.284157 1.689453-.412109-.299182-.274941-.511641-.603041-.615234-.947265-.249456-.828909-.0298-1.595433.15039-2.263672-.412043-.291403-.759797-.645893-1.027343-1.044922-.267547-.399029-.454888-.842596-.544922-1.3125-.183039-.955304-.01386-1.942277.382812-2.81836-.627922-.655223-1.125852-1.33552-1.341797-2.175781-.229026-.891163-.14734-1.924298.136719-3.177734-.423433-.397937-.751619-.823993-.984375-1.265625s-.370082-.89884-.414062-1.361328c-.08948-.941007.08465-1.881237.203125-2.863282-.412128-.307458-.756902-.643907-1.011719-1.007812s-.419677-.755268-.470703-1.171875c-.0555-.453148.0096-.903214.138672-1.351563-.301891.0226-.608548.07067-.896485-.04492-.70621-.283514-1.236691-.945447-1.730468-1.794921-.542417.116231-1.096598.08593-1.53711-.1875-.03676-.02282-.05405-.07527-.08984-.09961 1.440076 9.757437 5.122842 21.160613 7.962891 25.300781z" transform="matrix(1.1695906 0 0 1.1695906 -111.08633 3.827383)"/><path d="m28.042969 66.708984c.07625-.133037.09292-.162302.175781-.30664l.117188.06641c1.437211-2.407914 3.261231-5.507858 3.927734-6.730469-1.668062.307639-3.322731.690427-4.966797 1.107422.128234 1.958871.35519 3.951632.746094 5.863281z" transform="matrix(1.1695906 0 0 1.1695906 -111.08633 3.827383)"/><path d="m61.751953 71.703125c-2.075757-.378361-4.174478-.74306-6.384765-1-2.667368-.310074-5.437966-.511774-8.324219-.554687-2.886253-.04291-5.887328.07344-9.017578.396484-2.584442.266714-5.315637.77782-8.082032 1.355469 5.68466 2.376048 10.235461 2.717067 15.556641 2.839843 5.351185-.09913 11.2938-.90161 16.251953-3.037109z" transform="matrix(1.1695906 0 0 1.1695906 -111.08633 3.827383)"/><path d="m63.197266 68.232422c-.085725-.136894-.13872-.217673-.230469-.365234-1.431088-2.301624-3.335385-5.492788-4.226563-7.085938l-3.644531 4.949219-3.169922-5.47461-2.972656 4.277344-.539063-.375a3.1407409 3.283558 0 0 1 -.04687.105469 3.1407409 3.283558 0 0 1 -.06641.138672 3.1407409 3.283558 0 0 1 -.07227.132812 3.1407409 3.283558 0 0 1 -.07813.13086 3.1407409 3.283558 0 0 1 -.08398.126953 3.1407409 3.283558 0 0 1 -.08984.121093 3.1407409 3.283558 0 0 1 -.0957.117188 3.1407409 3.283558 0 0 1 -.09961.113281 3.1407409 3.283558 0 0 1 -.105469.107422 3.1407409 3.283558 0 0 1 -.111328.103516 3.1407409 3.283558 0 0 1 -.113281.0957 3.1407409 3.283558 0 0 1 -.119141.0918 3.1407409 3.283558 0 0 1 -.123047.08398 3.1407409 3.283558 0 0 1 -.126953.08008 3.1407409 3.283558 0 0 1 -.128906.07227 3.1407409 3.283558 0 0 1 -.132813.06641 3.1407409 3.283558 0 0 1 -.136718.06055 3.1407409 3.283558 0 0 1 -.136719.05273 3.1407409 3.283558 0 0 1 -.140625.04687 3.1407409 3.283558 0 0 1 -.142578.03906 3.1407409 3.283558 0 0 1 -.144531.03125 3.1407409 3.283558 0 0 1 -.144532.02539 3.1407409 3.283558 0 0 1 -.146484.01953 3.1407409 3.283558 0 0 1 -.148437.0098 3.1407409 3.283558 0 0 1 -.146485.0039 3.1407409 3.283558 0 0 1 -.05078 0 3.1407409 3.283558 0 0 1 -.146484-.0059 3.1407409 3.283558 0 0 1 -.146485-.01367 3.1407409 3.283558 0 0 1 -.146484-.02148 3.1407409 3.283558 0 0 1 -.144531-.02734 3.1407409 3.283558 0 0 1 -.144532-.03516 3.1407409 3.283558 0 0 1 -.140625-.04102 3.1407409 3.283558 0 0 1 -.140625-.04883 3.1407409 3.283558 0 0 1 -.136718-.05469 3.1407409 3.283558 0 0 1 -.134766-.0625 3.1407409 3.283558 0 0 1 -.132813-.06836 3.1407409 3.283558 0 0 1 -.128906-.07617 3.1407409 3.283558 0 0 1 -.125-.08203 3.1407409 3.283558 0 0 1 -.121094-.08594 3.1407409 3.283558 0 0 1 -.117187-.09375 3.1407409 3.283558 0 0 1 -.113281-.09961 3.1407409 3.283558 0 0 1 -.107422-.103515 3.1407409 3.283558 0 0 1 -.103516-.109375 3.1407409 3.283558 0 0 1 -.09961-.115235 3.1407409 3.283558 0 0 1 -.09375-.11914 3.1407409 3.283558 0 0 1 -.08789-.123047 3.1407409 3.283558 0 0 1 -.08203-.126953 3.1407409 3.283558 0 0 1 -.07617-.132813 3.1407409 3.283558 0 0 1 -.07031-.134765 3.1407409 3.283558 0 0 1 -.06445-.138672l-.599609.324218-2.271484-4.203124-3.232422 5.386718-3.666016-5.03125c-.883085 1.592493-2.758473 4.796879-4.152344 7.117188-.134189.223377-.216048.354243-.335937.552734.08294.356373.156097.712907.246094 1.076172.06179-.01314.123587-.0276.185546-.04102l4.115235-7.277343 3.814453 5.474609 2.960938-5.755859 3.242187 5.767578c1.388881-.05045 2.755065-.06862 4.09375-.04883.342469.0051.678336.02002 1.017578.0293l3.695301-5.996071 3.208984 5.859375 3.722656-5.271485 3.859375 7.009766c.119266.02208.239964.04368.361328.06445.09168-.344303.166742-.68244.253907-1.019531z" transform="matrix(1.1695906 0 0 1.1695906 -111.08633 3.827383)"/><path d="m64.466797 60.904297c-1.695014-.476227-3.418666-.90583-5.189453-1.242188.603004 1.121478 2.580831 4.396887 4.095703 6.857422l.203125-.117187c.02683.04673.03053.05407.05664.09961.428033-1.813199.664127-3.733115.833985-5.597657z" transform="matrix(1.1695906 0 0 1.1695906 -111.08633 3.827383)"/><path d="m72.1875 32.978516c-.289945.0448-.55876.172524-.863281.107422-.493817.849608-1.026143 1.509425-1.732422 1.792968-.288308.115744-.594204.06771-.896485.04492.129109.44835.194175.898413.138672 1.351563-.05102.416561-.214399.807953-.46875 1.171875-.25435.363921-.599674.700372-1.011718 1.007812.118477.982045.290656 1.924227.201172 2.865234-.04398.462454-.181777.919683-.414063 1.361329-.232286.441645-.559057.867708-.982422 1.265625.284011 1.253322.365731 2.284678.136719 3.175781-.216136.841003-.714979 1.522-1.34375 2.177734.396136.875756.565751 1.861625.382812 2.816407-.0901.470275-.277541.915022-.544922 1.314453-.26738.39943-.614708.753547-1.027343 1.044921.180119.667941.401624 1.433393.152343 2.261719-.123157.40924-.401634.796631-.798828 1.095703.547818.134548 1.085325.288873 1.626954.435547.000028-.03901.01184-.07023.01172-.109375 2.839834-4.086949 6.208432-15.486306 7.433594-25.18164z" transform="matrix(1.1695906 0 0 1.1695906 -111.08633 3.827383)"/><path d="m72.664062 25.667969c-.454643.953044-.918245 2.311139-1.365234 2.972656-.48466.717268-.966233 1.278257-1.443359 1.71875-.477127.440493-.950757.75984-1.421875.992187-.942236.464695-1.812099.514969-2.275391.552735-.04651.0038-.02903.0036-.06641.0078-.512939 1.72494-1.991776 7.701398-3.378906 13.476563-1.434235 5.971274-2.738282 11.53125-2.738282 11.53125l-.04492.220703c.248254.04794.497078.09389.74414.144531.76412-.08123 1.268163-.23946 1.552734-.40625.292341-.171341.383675-.317301.44336-.515625.119369-.396649-.06395-1.147223-.257813-1.949219l-.125-.517578.482422-.222656c.356415-.164939.641176-.414237.855469-.722656s.358117-.67596.435547-1.080078c.15486-.808239.000933-1.724548-.394531-2.375l-.271482-.447254.378907-.361328c.702455-.667717 1.089811-1.212169 1.263671-1.888672.173859-.676502.135637-1.554693-.197265-2.875l-.103516-.410156.333984-.257813c.435625-.339763.716344-.65825.896485-.990234s.259703-.677466.296875-1.068359c.07434-.781788-.100065-1.761385-.22461-2.931641l-.04297-.40625.347656-.214844c.423078-.261508.708027-.512684.894531-.763672.186505-.250988.274565-.501789.306641-.763671.06415-.523765-.139848-1.202543-.63086-2.011719l.978516-.828125c.564572.486012.871591.534286 1.214844.396484.343252-.137803.839559-.636432 1.335937-1.607422l.326172-.636718.603516.384765c.3287.210203.473501.182874.802734-.02148.07817-.04852.177859-.222747.263672-.298828.220981-2.111186.269553-4.032593.224609-5.826172z" transform="matrix(1.1695906 0 0 1.1695906 -111.08633 3.827383)"/><path d="m47.226562 17.126953c-10.894935.176286-22.139501 2.067265-27.755859 5.027344.422078 1.189791.840527 2.25636 1.246094 3.091797.457371.94215.901203 1.680609 1.322265 2.259765.842127 1.158312 1.595791 1.683338 2.195313 1.947266.599523.263928 1.108842.300179 1.707031.351563.251889.02163.54551.0635.865235.144531.690699-.601855 1.379801-1.193798 2.033203-1.603516.85414-.535593 1.674715-.915557 2.458984-1.166015.784269-.250461 1.532253-.370551 2.240234-.384766.707984-.01422 1.376671.07686 2.001954.25 1.097042.303778 2.033358.751381 2.849609 1.195312.816251.443932 1.511811.88343 2.132813 1.171875.611641-.55292 1.2549-1.121882 1.978515-1.605468.723615-.483587 1.528672-.880186 2.462891-1.089844.549973-.123426 1.124945-.165384 1.720703-.117188.767503.06209 1.573242.292447 2.414062.691407.840821.398959 1.716499.965536 2.617188 1.697265 1.070237-.841529 2.258474-1.45709 3.5-1.841797 1.241526-.384706 2.535886-.538531 3.816406-.455078 1.28052.08345 2.547154.403848 3.734375.966797.879331.416956 1.647263 1.107668 2.41211 1.792969.287659-.07321.559175-.117936.765624-.134766.517281-.04217.869817-.06311 1.339844-.294922.470028-.231809 1.118651-.742403 1.890625-1.898437.703731-1.05384 1.530639-2.856252 2.394531-5.257813-3.85467-3.482611-13.815382-4.908635-24.34375-4.738281z" transform="matrix(1.1695906 0 0 1.1695906 -111.08633 3.827383)"/></g></g></svg>