<?xml version="1.0" encoding="UTF-8" standalone="no"?>
<svg
   xmlns:dc="http://purl.org/dc/elements/1.1/"
   xmlns:cc="http://creativecommons.org/ns#"
   xmlns:rdf="http://www.w3.org/1999/02/22-rdf-syntax-ns#"
   xmlns:svg="http://www.w3.org/2000/svg"
   xmlns="http://www.w3.org/2000/svg"
   xmlns:xlink="http://www.w3.org/1999/xlink"
   xmlns:sodipodi="http://sodipodi.sourceforge.net/DTD/sodipodi-0.dtd"
   xmlns:inkscape="http://www.inkscape.org/namespaces/inkscape"
   sodipodi:docname="red_horse.svg"
   inkscape:version="1.0 (4035a4fb49, 2020-05-01)"
   version="1.1"
   id="svg2"
   height="92"
   width="92">
  <metadata
     id="metadata12">
    <rdf:RDF>
      <cc:Work
         rdf:about="">
        <dc:format>image/svg+xml</dc:format>
        <dc:type
           rdf:resource="http://purl.org/dc/dcmitype/StillImage" />
        <dc:title></dc:title>
      </cc:Work>
    </rdf:RDF>
  </metadata>
  <defs
     id="defs10">
    <linearGradient
       id="linearGradient3671"
       inkscape:collect="always">
      <stop
         id="stop3667"
         offset="0"
         style="stop-color:#e5e6e9;stop-opacity:1" />
      <stop
         id="stop3669"
         offset="1"
         style="stop-color:#f8fbfd;stop-opacity:1" />
    </linearGradient>
    <filter
       color-interpolation-filters="sRGB"
       id="f1"
       x="0"
       y="0"
       width="1.5"
       height="1.5">
      <feOffset
         result="offOut"
         in="SourceAlpha"
         dx="1"
         dy="0"
         id="feOffset3039" />
      <feGaussianBlur
         result="blurOut"
         in="offOut"
         stdDeviation="1"
         id="feGaussianBlur3041" />
      <!--
      <feBlend in="SourceGraphic" in2="blurOut" mode="normal" />
-->
    </filter>
    <linearGradient
       id="grad1"
       x1="0"
       y1="0"
       x2="0"
       y2="1">
      <stop
         offset="20%"
         style="stop-color:rgb(255,255,255);stop-opacity:0.6"
         id="stop3034" />
      <stop
         offset="50%"
         style="stop-color:rgb(220,0,0);stop-opacity:0.5"
         id="stop3036" />
    </linearGradient>
    <linearGradient
       id="grad0"
       x1="0"
       y1="0"
       x2="0"
       y2="1">
      <stop
         offset="20%"
         style="stop-color:rgb(0,0,0);stop-opacity:0.3"
         id="stop3029" />
      <stop
         offset="100%"
         style="stop-color:rgb(0,0,0);stop-opacity:0.6"
         id="stop3031" />
    </linearGradient>
    <inkscape:path-effect
       oposite_fuse="false"
       fuse_paths="true"
       discard_orig_path="false"
       mode="free"
       is_visible="true"
       id="path-effect4557-0-4"
       center_point="273.85776,413.92646"
       end_point="273.50284,477.30227"
       start_point="274.21267,350.55066"
       effect="mirror_symmetry" />
    <filter
       id="filter18479"
       inkscape:label="Drop Shadow"
       style="color-interpolation-filters:sRGB;">
      <feFlood
         id="feFlood18469"
         result="flood"
         flood-color="rgb(91,93,90)"
         flood-opacity="1" />
      <feComposite
         id="feComposite18471"
         result="composite1"
         operator="in"
         in2="SourceGraphic"
         in="flood" />
      <feGaussianBlur
         id="feGaussianBlur18473"
         result="blur"
         stdDeviation="0"
         in="composite1" />
      <feOffset
         id="feOffset18475"
         result="offset"
         dy="4"
         dx="0" />
      <feComposite
         id="feComposite18477"
         result="composite2"
         operator="over"
         in2="offset"
         in="SourceGraphic" />
    </filter>
    <filter
       id="filter18479-1"
       inkscape:label="Drop Shadow"
       style="color-interpolation-filters:sRGB">
      <feFlood
         id="feFlood18469-6"
         result="flood"
         flood-color="rgb(91,93,90)"
         flood-opacity="1" />
      <feComposite
         id="feComposite18471-2"
         result="composite1"
         operator="in"
         in2="SourceGraphic"
         in="flood" />
      <feGaussianBlur
         id="feGaussianBlur18473-4"
         result="blur"
         stdDeviation="0"
         in="composite1" />
      <feOffset
         id="feOffset18475-8"
         result="offset"
         dy="4"
         dx="0" />
      <feComposite
         id="feComposite18477-8"
         result="composite2"
         operator="over"
         in2="offset"
         in="SourceGraphic" />
    </filter>
    <filter
       id="filter3592"
       inkscape:label="Drop Shadow"
       style="color-interpolation-filters:sRGB;">
      <feFlood
         id="feFlood3582"
         result="flood"
         flood-color="rgb(0,0,0)"
         flood-opacity="0.498039" />
      <feComposite
         id="feComposite3584"
         result="composite1"
         operator="in"
         in2="SourceGraphic"
         in="flood" />
      <feGaussianBlur
         id="feGaussianBlur3586"
         result="blur"
         stdDeviation="1"
         in="composite1" />
      <feOffset
         id="feOffset3588"
         result="offset"
         dy="4"
         dx="-1.38778e-16" />
      <feComposite
         id="feComposite3590"
         result="composite2"
         operator="over"
         in2="offset"
         in="SourceGraphic" />
    </filter>
    <linearGradient
       spreadMethod="pad"
       gradientUnits="userSpaceOnUse"
       y2="604.45496"
       x2="330.45486"
       y1="636.04993"
       x1="324.01596"
       id="linearGradient3673"
       xlink:href="#linearGradient3671"
       inkscape:collect="always" />
    <filter
       id="filter3858"
       inkscape:label="Drop Shadow"
       style="color-interpolation-filters:sRGB;">
      <feFlood
         id="feFlood3848"
         result="flood"
         flood-color="rgb(211,214,221)"
         flood-opacity="0.498039" />
      <feComposite
         id="feComposite3850"
         result="composite1"
         operator="in"
         in2="SourceGraphic"
         in="flood" />
      <feGaussianBlur
         id="feGaussianBlur3852"
         result="blur"
         stdDeviation="0.5"
         in="composite1" />
      <feOffset
         id="feOffset3854"
         result="offset"
         dy="1"
         dx="-1.38778e-16" />
      <feComposite
         id="feComposite3856"
         result="composite2"
         operator="over"
         in2="offset"
         in="SourceGraphic" />
    </filter>
    <filter
       id="filter4473"
       inkscape:label="Drop Shadow"
       style="color-interpolation-filters:sRGB;">
      <feFlood
         id="feFlood4463"
         result="flood"
         flood-color="rgb(0,0,0)"
         flood-opacity="0.498039" />
      <feComposite
         id="feComposite4465"
         result="composite1"
         operator="in"
         in2="SourceGraphic"
         in="flood" />
      <feGaussianBlur
         id="feGaussianBlur4467"
         result="blur"
         stdDeviation="1"
         in="composite1" />
      <feOffset
         id="feOffset4469"
         result="offset"
         dy="4"
         dx="1.9" />
      <feComposite
         id="feComposite4471"
         result="composite2"
         operator="over"
         in2="offset"
         in="SourceGraphic" />
    </filter>
    <filter
       id="filter5784"
       inkscape:label="Drop Shadow"
       style="color-interpolation-filters:sRGB;">
      <feFlood
         id="feFlood5774"
         result="flood"
         flood-color="rgb(0,0,0)"
         flood-opacity="0.498039" />
      <feComposite
         id="feComposite5776"
         result="composite1"
         operator="out"
         in2="SourceGraphic"
         in="flood" />
      <feGaussianBlur
         id="feGaussianBlur5778"
         result="blur"
         stdDeviation="2"
         in="composite1" />
      <feOffset
         id="feOffset5780"
         result="offset"
         dy="-2.41474e-15"
         dx="-6.38378e-16" />
      <feComposite
         id="feComposite5782"
         result="composite2"
         operator="atop"
         in2="SourceGraphic"
         in="offset" />
    </filter>
    <filter
       id="filter5909"
       inkscape:label="Drop Shadow"
       style="color-interpolation-filters:sRGB;">
      <feFlood
         id="feFlood5899"
         result="flood"
         flood-color="rgb(0,0,0)"
         flood-opacity="0.498039" />
      <feComposite
         id="feComposite5901"
         result="composite1"
         operator="out"
         in2="SourceGraphic"
         in="flood" />
      <feGaussianBlur
         id="feGaussianBlur5903"
         result="blur"
         stdDeviation="2"
         in="composite1" />
      <feOffset
         id="feOffset5905"
         result="offset"
         dy="-2.41474e-15"
         dx="-6.38378e-16" />
      <feComposite
         id="feComposite5907"
         result="composite2"
         operator="atop"
         in2="SourceGraphic"
         in="offset" />
    </filter>
    <filter
       id="filter6983"
       inkscape:label="Drop Shadow"
       style="color-interpolation-filters:sRGB;">
      <feFlood
         id="feFlood6973"
         result="flood"
         flood-color="rgb(0,0,0)"
         flood-opacity="0.498039" />
      <feComposite
         id="feComposite6975"
         result="composite1"
         operator="out"
         in2="SourceGraphic"
         in="flood" />
      <feGaussianBlur
         id="feGaussianBlur6977"
         result="blur"
         stdDeviation="1"
         in="composite1" />
      <feOffset
         id="feOffset6979"
         result="offset"
         dy="1.8"
         dx="-6.38378e-16" />
      <feComposite
         id="feComposite6981"
         result="composite2"
         operator="atop"
         in2="SourceGraphic"
         in="offset" />
    </filter>
    <filter
       id="filter7360"
       inkscape:label="Drop Shadow"
       style="color-interpolation-filters:sRGB;">
      <feFlood
         id="feFlood7350"
         result="flood"
         flood-color="rgb(0,0,0)"
         flood-opacity="0.498039" />
      <feComposite
         id="feComposite7352"
         result="composite1"
         operator="out"
         in2="SourceGraphic"
         in="flood" />
      <feGaussianBlur
         id="feGaussianBlur7354"
         result="blur"
         stdDeviation="1"
         in="composite1" />
      <feOffset
         id="feOffset7356"
         result="offset"
         dy="1"
         dx="-6.38378e-16" />
      <feComposite
         id="feComposite7358"
         result="composite2"
         operator="atop"
         in2="SourceGraphic"
         in="offset" />
    </filter>
    <filter
       id="filter2469"
       inkscape:label="Drop Shadow"
       style="color-interpolation-filters:sRGB;">
      <feFlood
         id="feFlood2459"
         result="flood"
         flood-color="rgb(0,0,0)"
         flood-opacity="0.498039" />
      <feComposite
         id="feComposite2461"
         result="composite1"
         operator="out"
         in2="SourceGraphic"
         in="flood" />
      <feGaussianBlur
         id="feGaussianBlur2463"
         result="blur"
         stdDeviation="1"
         in="composite1" />
      <feOffset
         id="feOffset2465"
         result="offset"
         dy="0.8"
         dx="-6.38378e-16" />
      <feComposite
         id="feComposite2467"
         result="composite2"
         operator="atop"
         in2="SourceGraphic"
         in="offset" />
    </filter>
    <filter
       id="filter2740"
       inkscape:label="Drop Shadow"
       style="color-interpolation-filters:sRGB;">
      <feFlood
         id="feFlood2730"
         result="flood"
         flood-color="rgb(0,0,0)"
         flood-opacity="0.498039" />
      <feComposite
         id="feComposite2732"
         result="composite1"
         operator="out"
         in2="SourceGraphic"
         in="flood" />
      <feGaussianBlur
         id="feGaussianBlur2734"
         result="blur"
         stdDeviation="1"
         in="composite1" />
      <feOffset
         id="feOffset2736"
         result="offset"
         dy="0.8"
         dx="-6.38378e-16" />
      <feComposite
         id="feComposite2738"
         result="composite2"
         operator="atop"
         in2="SourceGraphic"
         in="offset" />
    </filter>
    <filter
       id="filter6830"
       inkscape:label="Drop Shadow"
       style="color-interpolation-filters:sRGB">
      <feFlood
         id="feFlood6820"
         result="flood"
         flood-color="rgb(0,0,0)"
         flood-opacity="0.498039" />
      <feComposite
         id="feComposite6822"
         result="composite1"
         operator="out"
         in2="SourceGraphic"
         in="flood" />
      <feGaussianBlur
         id="feGaussianBlur6824"
         result="blur"
         stdDeviation="1"
         in="composite1" />
      <feOffset
         id="feOffset6826"
         result="offset"
         dy="1.5"
         dx="0" />
      <feComposite
         id="feComposite6828"
         result="composite2"
         operator="atop"
         in2="SourceGraphic"
         in="offset" />
    </filter>
  </defs>
  <sodipodi:namedview
     inkscape:document-rotation="0"
     inkscape:snap-global="false"
     showguides="false"
     inkscape:pagecheckerboard="true"
     fit-margin-bottom="0"
     fit-margin-right="0"
     fit-margin-left="0"
     fit-margin-top="0"
     inkscape:current-layer="layer1"
     inkscape:window-maximized="1"
     inkscape:window-y="-8"
     inkscape:window-x="-8"
     inkscape:cy="51.500986"
     inkscape:cx="54.04828"
     inkscape:zoom="11.313708"
     showgrid="false"
     id="namedview8"
     inkscape:window-height="1017"
     inkscape:window-width="1920"
     inkscape:pageshadow="2"
     inkscape:pageopacity="0"
     guidetolerance="10"
     gridtolerance="10"
     objecttolerance="10"
     borderopacity="1"
     bordercolor="#666666"
     pagecolor="#ffffff" />
  <g
     style="display:inline"
     inkscape:label="Background"
     id="layer1"
     inkscape:groupmode="layer">
    <g
       id="text2985-2"
       style="font-style:normal;font-weight:normal;font-size:40px;line-height:125%;font-family:Sans;letter-spacing:0px;word-spacing:0px;fill:#b40000;fill-opacity:1;stroke:none"
       transform="translate(-122.64769,-947.92267)" />
    <g
       transform="matrix(0.92134831,0,0,0.92134831,3.6179777,3.6179777)"
       id="g34055">
      <g
         id="g7021"
         transform="translate(-0.3712002,2.6569817)">
        <polygon
           transform="matrix(1.0406257,0,0,1.0106842,-290.86517,-573.58171)"
           style="fill:url(#linearGradient3673);fill-opacity:1;stroke:#f6f9fb;stroke-width:2.43970871;stroke-opacity:0.99607843;filter:url(#filter4473)"
           points="289.651,594.574 309.773,574.451 338.232,574.451 358.359,594.574 358.359,623.037 358.295,623.102 338.232,643.16 309.855,643.16 309.773,643.16 289.651,623.037 "
           id="polygon3242" />
        <g
           transform="matrix(0.89519543,0,0,0.89519543,5.1196852,4.8356187)"
           style="fill:#b9abab;fill-opacity:1"
           id="g2351">
          <g
             style="filter:url(#filter3592)"
             id="g2776">
            <polygon
               style="fill:#877a7a;fill-opacity:0.96862745;stroke:none"
               points="358.295,623.102 358.299,623.105 358.299,629.414 358.342,629.457 338.461,649.334 338.232,649.334 338.232,643.246 338.232,643.16 "
               id="polygon3244"
               transform="matrix(1.2582555,-0.01787195,0.0164438,1.147024,-373.7306,-650.44484)" />
            <polygon
               transform="matrix(1.1666454,0,0,1.1368627,-332.02449,-649.97198)"
               style="fill:#9a8d8d;fill-opacity:1;stroke:none"
               points="309.867,649.406 309.855,649.406 309.855,649.262 309.855,643.246 309.855,643.16 338.232,643.16 338.232,643.246 338.232,649.334 338.232,649.406 338.176,649.406 "
               id="polygon3246" />
            <polygon
               style="fill:#b9abab;fill-opacity:1;stroke:none"
               points="309.727,649.262 289.651,629.186 289.651,623.037 309.773,643.16 309.855,643.16 309.855,643.246 309.855,649.262 "
               id="polygon3248"
               transform="matrix(1.2329472,0,0,1.1618787,-352.46822,-666.04755)" />
          </g>
        </g>
        <polygon
           transform="matrix(1.0401085,0,0,1.0401085,-290.69762,-590.4668)"
           style="fill:none;stroke:none;stroke-width:0.25"
           points="358.359,594.574 358.359,623.037 358.295,623.102 338.232,643.16 309.855,643.16 309.773,643.16 289.651,623.037 289.651,594.574 309.773,574.451 338.232,574.451 "
           id="polygon3252" />
        <polyline
           transform="matrix(1.0401085,0,0,1.0401085,-290.69762,-590.4668)"
           style="fill:none;stroke:none;stroke-width:0.25"
           points="289.651,623.037 289.651,629.186 289.651,629.342    "
           id="polyline3254" />
        <polyline
           transform="matrix(1.0401085,0,0,1.0401085,-290.69762,-590.4668)"
           style="fill:none;stroke:none;stroke-width:0.25"
           points="309.855,643.246 309.855,649.262 309.855,649.406      309.855,649.549    "
           id="polyline3256" />
        <polyline
           transform="matrix(1.0401085,0,0,1.0401085,-290.69762,-590.4668)"
           style="fill:none;stroke:none;stroke-width:0.25"
           points="338.232,643.246 338.232,649.334 338.232,649.406      338.232,649.549    "
           id="polyline3258" />
        <line
           style="fill:none;stroke:none;stroke-width:0.26002711;stroke-miterlimit:4;stroke-dasharray:none"
           x1="81.972214"
           y1="57.629997"
           x2="81.972214"
           y2="64.192062"
           id="line3260" />
        <polyline
           transform="matrix(1.0401085,0,0,1.0401085,-290.69762,-590.4668)"
           style="fill:none;stroke:none;stroke-width:0.25;stroke-miterlimit:4;stroke-dasharray:none"
           points="289.589,629.125 289.651,629.186 309.727,649.262    "
           id="polyline3262" />
        <polyline
           transform="matrix(1.0401085,0,0,1.0401085,-290.69762,-590.4668)"
           style="fill:none;stroke:none;stroke-width:0.25;stroke-miterlimit:4;stroke-dasharray:none"
           points="338.461,649.334 358.342,629.457 358.41,629.385    "
           id="polyline3264" />
        <line
           style="fill:none;stroke:none;stroke-width:0.26002711;stroke-miterlimit:4;stroke-dasharray:none"
           x1="31.597679"
           y1="84.985924"
           x2="61.042103"
           y2="84.985924"
           id="line3266" />
        <path
           transform="matrix(0.89519543,0,0,0.89519543,5.1196852,4.8356187)"
           sodipodi:nodetypes="cccc"
           inkscape:connector-curvature="0"
           id="path3703-3"
           d="M 7.9303813,25.454918 29.643585,4.229152 61.83839,4.302375 84.422914,25.528141"
           style="display:inline;fill:none;fill-opacity:0;fill-rule:evenodd;stroke:#dadde2;stroke-width:1px;stroke-linecap:butt;stroke-linejoin:miter;stroke-opacity:1;filter:url(#filter3858)" />
        <path
           inkscape:connector-curvature="0"
           id="path4475"
           d="M 12.449098,27.299429 12.225299,55.609985"
           style="fill:none;fill-rule:evenodd;stroke:#e6e6e6;stroke-width:0.89519542px;stroke-linecap:butt;stroke-linejoin:miter;stroke-opacity:1" />
        <path
           inkscape:connector-curvature="0"
           id="path4475-2"
           d="M 80.548535,27.417774 80.324736,55.72833"
           style="display:inline;fill:none;fill-rule:evenodd;stroke:#e6e6e6;stroke-width:0.89519542px;stroke-linecap:butt;stroke-linejoin:miter;stroke-opacity:1" />
      </g>
    </g>
    <g
       style="display:inline;fill:#e12810;fill-opacity:1;filter:url(#filter6830)"
       id="g4496"
       transform="matrix(1.5343938,0,0,1.5343938,73.281618,-41.300865)">
      <path
         transform="matrix(0.65172318,0,0,0.65172318,-48.46171,29.067301)"
         d="m 41.119141,17.173828 c -0.877281,2.130268 -2.132735,4.574927 -1.613282,6.433594 -0.990512,-0.463415 -1.982143,0.301276 -2.972656,0.779297 -6.402146,10.625764 -5.940556,10.039686 -11.884765,14.888672 -0.633307,1.66405 -1.016854,3.011198 0.08984,5.49414 0.511466,0.675447 2.711738,1.721091 4.609375,2.119141 1.268614,-0.901305 2.396319,-1.944402 3.259766,-3.087891 l 1.138672,0.859375 c -0.976014,1.292563 -2.233494,2.47668 -3.675782,3.482422 -0.0463,0.07584 -0.105397,0.172548 -0.109374,0.228516 0.888153,0.900466 1.302879,0.540407 2.25,0.810547 2.529064,-2.717881 5.004332,-5.107454 7.294921,-6.394532 3.001551,-1.504327 6.002356,-0.865181 9.003907,-1.080078 2.23457,0.33304 3.665751,-1.24354 3.80664,-1.261719 -1.079292,1.699473 -1.85782,3.741887 -4.796875,5.673829 -1.813024,-0.436793 -2.828325,-0.275668 -3.691406,0 -6.492373,4.955559 -8.851654,13.805031 -8.824219,17.378906 8.759213,3.422899 17.958611,1.776231 27.19336,-0.269531 -2.453496,-1.891951 -2.38391,-4.098834 -3.060547,-6.212891 -0.603615,-5.168328 0.592245,-5.265368 1.349609,-10.085937 0.53601,-9.615521 -0.664599,-17.82746 -8.478516,-22.910157 -1.405489,-0.617432 -4.267283,-0.530648 -5.75,-0.453125 0.01245,-0.285336 0.0059,-0.561893 -0.01367,-0.832031 0.905188,-0.102804 2.143381,-0.356078 2.800781,-0.294922 12.047465,2.870431 12.995517,13.224664 12.716797,24.253906 -1.740748,7.527807 -3.453711,13.226107 3.263672,15.183594 0.199485,-2.446338 -1.206674,-5.249528 -0.634766,-8.462891 2.667826,-14.989634 2.18794,-36.828817 -19.318359,-34.998046 -0.11342,-0.336583 -0.231037,-0.670215 -0.324219,-1.021485 -0.01031,-0.01005 -1.571839,2.249 -1.802735,3.570313 -0.335114,-1.416464 -1.123396,-2.373137 -1.826171,-3.791016 z m 0.169921,11.740234 c 0.317042,-0.0099 0.659579,-0.0084 1.033204,0.0039 l -0.02539,0.767578 -0.02539,0.767578 c -0.344101,-0.01135 -0.652555,-0.01183 -0.929687,-0.002 l -0.402344,0.322266 a 1.4858844,1.5549473 0 0 1 0.0332,0.03711 1.4858844,1.5549473 0 0 1 0.06836,0.08008 1.4858844,1.5549473 0 0 1 0.06055,0.08398 1.4858844,1.5549473 0 0 1 0.05664,0.08789 1.4858844,1.5549473 0 0 1 0.04883,0.09375 1.4858844,1.5549473 0 0 1 0.04297,0.09375 1.4858844,1.5549473 0 0 1 0.03906,0.09961 1.4858844,1.5549473 0 0 1 0.0293,0.101563 1.4858844,1.5549473 0 0 1 0.02539,0.101562 1.4858844,1.5549473 0 0 1 0.01758,0.105469 1.4858844,1.5549473 0 0 1 0.0098,0.105469 1.4858844,1.5549473 0 0 1 0.0039,0.105469 1.4858844,1.5549473 0 0 1 0,0.0039 1.4858844,1.5549473 0 0 1 -0.0039,0.105469 1.4858844,1.5549473 0 0 1 -0.0098,0.105468 1.4858844,1.5549473 0 0 1 -0.01758,0.105469 1.4858844,1.5549473 0 0 1 -0.02539,0.101563 1.4858844,1.5549473 0 0 1 -0.0293,0.101562 1.4858844,1.5549473 0 0 1 -0.03906,0.09961 1.4858844,1.5549473 0 0 1 -0.04297,0.0957 1.4858844,1.5549473 0 0 1 -0.05078,0.0918 1.4858844,1.5549473 0 0 1 -0.05469,0.08789 1.4858844,1.5549473 0 0 1 -0.06055,0.08398 1.4858844,1.5549473 0 0 1 -0.06836,0.08008 1.4858844,1.5549473 0 0 1 -0.07031,0.07617 1.4858844,1.5549473 0 0 1 -0.07617,0.06836 1.4858844,1.5549473 0 0 1 -0.08203,0.06445 1.4858844,1.5549473 0 0 1 -0.08398,0.05859 1.4858844,1.5549473 0 0 1 -0.08789,0.05078 1.4858844,1.5549473 0 0 1 -0.0918,0.04492 1.4858844,1.5549473 0 0 1 -0.0957,0.03906 1.4858844,1.5549473 0 0 1 -0.0957,0.0332 1.4858844,1.5549473 0 0 1 -0.09766,0.02344 1.4858844,1.5549473 0 0 1 -0.101562,0.01953 1.4858844,1.5549473 0 0 1 -0.09961,0.0098 1.4858844,1.5549473 0 0 1 -0.101562,0.0039 1.4858844,1.5549473 0 0 1 -0.02734,0 1.4858844,1.5549473 0 0 1 -0.101562,-0.0059 1.4858844,1.5549473 0 0 1 -0.101563,-0.01367 1.4858844,1.5549473 0 0 1 -0.09961,-0.01953 1.4858844,1.5549473 0 0 1 -0.09766,-0.02734 1.4858844,1.5549473 0 0 1 -0.0957,-0.0332 1.4858844,1.5549473 0 0 1 -0.09375,-0.04102 1.4858844,1.5549473 0 0 1 -0.08984,-0.04687 1.4858844,1.5549473 0 0 1 -0.08789,-0.05273 1.4858844,1.5549473 0 0 1 -0.08398,-0.06055 1.4858844,1.5549473 0 0 1 -0.07813,-0.06641 1.4858844,1.5549473 0 0 1 -0.07617,-0.07031 1.4858844,1.5549473 0 0 1 -0.07031,-0.07617 c -0.126513,0.414961 -0.354721,0.858666 -0.78125,1.201172 l -0.478515,-0.597656 -0.480469,-0.59961 c 0.214448,-0.172205 0.273778,-0.337567 0.333984,-0.693359 0.0602,-0.355792 0.05778,-0.853556 0.248047,-1.417969 0.19027,-0.564413 0.663692,-1.164464 1.425781,-1.486328 0.571567,-0.241397 1.28521,-0.372609 2.236328,-0.402344 z"
         style="fill:#e12810;fill-opacity:1;stroke:none;stroke-width:0.306499;stroke-linecap:butt;stroke-linejoin:miter;stroke-miterlimit:4;stroke-dasharray:none;stroke-opacity:1"
         id="path10969" />
      <g
         style="opacity:1;fill:#e12810;fill-opacity:1"
         id="g10960" />
    </g>
  </g>
  <g
     style="display:inline"
     inkscape:label="Symbol"
     id="layer2"
     inkscape:groupmode="layer" />
</svg>
