<svg clip-rule="evenodd" fill-rule="evenodd" height="45" image-rendering="optimizeQuality" shape-rendering="geometricPrecision" viewBox="0 0 12.699667 12.699667" width="45" xmlns="http://www.w3.org/2000/svg"><g stroke="#000"><g fill="#ffd42a" fill-rule="evenodd" stroke-linecap="round" stroke-linejoin="round" stroke-width="1.5" transform="matrix(.28221482 0 0 .28221482 .137857 0)"><path d="m11.5 37c5.5 3.5 15.5 3.5 21 0v-7c-.06756-.0032.146195-3.223252-.096087-7.947463-.251387-4.901746-4.709403-6.925291-10.337732-6.925291-5.798399.10586-10.447079 2.347995-10.409707 6.345366.048544 5.192342.123481 8.015216-.156474 8.027388z"/><path d="m11.5 30c5.5-3 15.5-3 21 0m-21 3.5c5.5-3 15.5-3 21 0m-21 3.5c5.5-3 15.5-3 21 0"/></g><path d="m11.067311 32.377003c-2.3038926-5.916319-4.547942-7.427001-8.4576967-12.686376 2.2435087-1.822839 4.3841442-3.010309 7.1684962-3.422161 3.9745945 5.25596 5.7997985 8.284538 7.5772595 13.875898-1.006793-5.967855-.777829-9.067377-3.369501-14.48397 2.952598-1.454735 4.075711-1.690889 7.422667-1.718933 2.429601 5.958967 3.425287 10.006398 3.554576 16.310146.0027.132479-5.009127.279466-7.459522.428844-1.115361.06799-6.437185 1.634599-6.436279 1.696552m27.882308 0c2.303893-5.916319 4.547942-7.427001 8.457697-12.686376-2.243509-1.822839-4.384144-3.010309-7.168496-3.422161-3.974595 5.25596-5.799799 8.284538-7.57726 13.875898 1.006793-5.967855.777829-9.067377 3.369501-14.48397-2.952598-1.454735-4.075711-1.690889-7.422667-1.718933-2.429601 5.958967-3.425287 10.006398-3.554576 16.310146-.0027.132479 5.009127.279466 7.459522.428844 1.115361.06799 6.437185 1.634599 6.436279 1.696552" fill="#ffd42a" stroke-width="2.0051" transform="matrix(.21112246 0 0 .21112246 1.069985 1.455034)"/><circle cx="6.349833" cy="3.935152" fill="#f7ce2a" r=".759648" stroke-width=".355451"/></g></svg>