<?xml version="1.0" encoding="UTF-8" standalone="no"?>
<svg
   width="52.157"
   height="52.157"
   version="1.1"
   id="svg7210"
   sodipodi:docname="0_GI.svg"
   inkscape:version="1.3 (0e150ed6c4, 2023-07-21)"
   xmlns:inkscape="http://www.inkscape.org/namespaces/inkscape"
   xmlns:sodipodi="http://sodipodi.sourceforge.net/DTD/sodipodi-0.dtd"
   xmlns="http://www.w3.org/2000/svg"
   xmlns:svg="http://www.w3.org/2000/svg"
   xmlns:rdf="http://www.w3.org/1999/02/22-rdf-syntax-ns#"
   xmlns:cc="http://creativecommons.org/ns#"
   xmlns:dc="http://purl.org/dc/elements/1.1/">
  <metadata
     id="metadata7216">
    <rdf:RDF>
      <cc:Work
         rdf:about="">
        <dc:format>image/svg+xml</dc:format>
        <dc:type
           rdf:resource="http://purl.org/dc/dcmitype/StillImage" />
      </cc:Work>
    </rdf:RDF>
  </metadata>
  <defs
     id="defs7214" />
  <sodipodi:namedview
     pagecolor="#ffffff"
     bordercolor="#666666"
     borderopacity="1"
     objecttolerance="10"
     gridtolerance="10"
     guidetolerance="10"
     inkscape:pageopacity="0"
     inkscape:pageshadow="2"
     inkscape:window-width="3840"
     inkscape:window-height="2054"
     id="namedview7212"
     showgrid="false"
     inkscape:zoom="9.6631325"
     inkscape:cx="48.483243"
     inkscape:cy="36.427111"
     inkscape:window-x="-11"
     inkscape:window-y="-11"
     inkscape:window-maximized="1"
     inkscape:current-layer="g13087"
     inkscape:showpageshadow="2"
     inkscape:pagecheckerboard="0"
     inkscape:deskcolor="#d1d1d1" />
  <g
     opacity="0.99"
     id="g13087"
     transform="translate(-1.6031437e-6,-4.0227345e-5)">
    <path
       d="M 26.079965,4.1375703 13.457972,8.0049433 6.7321303,48.040216 H 45.42489 L 38.700017,8.0040063 Z"
       fill="#fee572"
       fill-opacity="0.992"
       stroke="#000000"
       id="path13059"
       style="fill:#38372f;fill-opacity:0.964706;stroke:#38372f;stroke-width:0.953254;stroke-opacity:0.964706" />
    <path
       id="path6292-2-8"
       style="color:#000000;font-style:normal;font-variant:normal;font-weight:normal;font-stretch:normal;font-size:medium;line-height:normal;font-family:sans-serif;font-variant-ligatures:normal;font-variant-position:normal;font-variant-caps:normal;font-variant-numeric:normal;font-variant-alternates:normal;font-variant-east-asian:normal;font-feature-settings:normal;font-variation-settings:normal;text-indent:0;text-align:start;text-decoration:none;text-decoration-line:none;text-decoration-style:solid;text-decoration-color:#000000;letter-spacing:normal;word-spacing:normal;text-transform:none;writing-mode:lr-tb;direction:ltr;text-orientation:mixed;dominant-baseline:auto;baseline-shift:baseline;text-anchor:start;white-space:normal;shape-padding:0;shape-margin:0;inline-size:0;clip-rule:nonzero;display:inline;overflow:visible;visibility:visible;isolation:auto;mix-blend-mode:normal;color-interpolation:sRGB;color-interpolation-filters:linearRGB;solid-color:#000000;solid-opacity:1;vector-effect:none;fill:#afafaf;fill-opacity:0.992157;fill-rule:nonzero;stroke:none;stroke-width:0.686913;stroke-linecap:butt;stroke-linejoin:miter;stroke-miterlimit:4;stroke-dasharray:none;stroke-dashoffset:0;stroke-opacity:1;color-rendering:auto;image-rendering:auto;shape-rendering:auto;text-rendering:auto;enable-background:accumulate;stop-color:#000000"
       d="m 26.08538,10.276737 -0.277112,0.386272 c -0.807496,1.128465 -1.59977,2.503419 -2.843398,3.045589 l -0.520691,0.225121 0.441529,0.359595 c 0.835591,0.676453 1.367835,1.875502 1.658841,3.435781 0.06642,0.355376 0.116239,0.733618 0.159193,1.121931 -1.210632,0.489035 -2.304414,1.253412 -3.330116,2.177715 0.356124,0.225122 0.87159,0.533813 1.546033,0.894769 1.099164,0.588391 2.456147,0.788061 3.167334,0.789014 0.723003,0.0015 2.083191,-0.200214 3.181607,-0.789014 0.684239,-0.366673 1.171477,-0.67373 1.524578,-0.898307 -1.023745,-0.922535 -2.114522,-1.685797 -3.322998,-2.174149 0.04247,-0.387906 0.09147,-0.766828 0.157777,-1.121932 0.29105,-1.560114 0.821541,-2.759409 1.657041,-3.435767 l 0.444148,-0.359595 -0.520695,-0.225122 c -1.243677,-0.541842 -2.038254,-1.91711 -2.845224,-3.045642 z m -9.185183,2.025683 -0.569091,0.02178 c -0.07336,3.833772 0.175048,7.413582 1.560383,10.042315 0.490778,0.931518 1.135069,1.72509 1.9415,2.363883 0.358749,0.129301 1.081248,0.386272 2.138351,0.699319 1.379908,0.410089 3.06117,0.809973 4.105005,0.810926 1.047045,0 2.73336,-0.401244 4.117501,-0.810926 1.032019,-0.305699 1.737805,-0.553277 2.115128,-0.688704 0.812726,-0.640248 1.460463,-1.438068 1.954076,-2.374567 1.385352,-2.628773 1.634299,-6.208515 1.560373,-10.042328 l -0.569035,-0.02178 c -0.292138,4.121489 -0.969626,6.653246 -2.344158,8.21532 -0.337653,0.383551 -0.738789,0.698366 -1.177424,0.978747 l 0.0055,0.009 c 0,0 -0.893518,0.613843 -2.038223,1.227551 -1.144554,0.613842 -2.490623,0.899667 -3.612896,0.898306 -1.112661,-0.0015 -2.45583,-0.287731 -3.600384,-0.900211 -1.144523,-0.613028 -2.068584,-1.224014 -2.068584,-1.224014 l 0.007,-0.01067 c -0.439665,-0.280789 -0.842661,-0.594652 -1.181011,-0.978883 -1.374527,-1.562076 -2.052331,-4.093845 -2.344155,-8.215307 z m 2.610753,13.320579 c -2.128674,4.539079 -5.933514,9.81217 -7.658821,12.200416 l -0.178435,0.244721 0.155461,0.267314 c 0.799509,1.365372 2.383528,3.249151 4.047763,3.652301 l 0.265028,0.06397 0.12304,-0.286097 c 0.310202,-0.713475 1.121592,-4.357553 2.013144,-6.844625 0.0031,0.0015 0.0055,0.0022 0.007,0.0038 l 2.757569,-8.789761 c -0.853145,-0.27099 -1.297305,-0.430915 -1.531764,-0.513669 z m 13.13805,0.0054 c -0.239763,0.08439 -0.673785,0.238188 -1.519279,0.506592 l 2.804089,8.938254 c 0.867276,2.42023 1.652235,5.997014 1.95584,6.694306 l 0.124945,0.2861 0.265029,-0.06398 c 1.664275,-0.402742 3.246757,-2.286925 4.04591,-3.652311 l 0.157777,-0.267316 -0.178466,-0.24472 c -1.725186,-2.389039 -5.526758,-7.66032 -7.655877,-12.196868 z m -2.394297,0.778398 c -1.374421,0.400427 -2.964239,0.791599 -4.178379,0.790782 -1.208772,0 -2.790092,-0.390627 -4.158677,-0.789013 l -0.558543,1.780446 c 0.312817,0.112968 0.825887,0.290997 1.5675,0.511899 1.059134,0.314408 2.350053,0.622689 3.151273,0.622689 0.803908,0 2.099615,-0.307602 3.162001,-0.622689 0.744014,-0.220222 1.258731,-0.399475 1.572833,-0.511899 z m -9.115418,2.483752 -2.005985,6.397296 c 1.899629,0.812696 4.942521,1.979706 6.944808,1.982673 1.993467,0.0031 5.026338,-1.136904 6.969863,-1.955888 l -2.014875,-6.424133 c -0.332428,0.118412 -0.846913,0.296985 -1.583601,0.515437 -1.088998,0.322573 -2.392299,0.651817 -3.371301,0.651817 -0.976484,0 -2.274829,-0.330604 -3.360552,-0.65345 -0.73269,-0.217227 -1.245842,-0.394984 -1.578346,-0.513669 z"
       sodipodi:nodetypes="ccccccccscsccccccccccscssscsccsccscsccccccccccccccccccccccccccsccssscccccccssscssc" />
  </g>
</svg>
