<?xml version="1.0" encoding="UTF-8" standalone="no"?>
<svg
   width="52.157"
   height="52.157"
   version="1.1"
   id="svg98222"
   sodipodi:docname="0GY.svg"
   inkscape:version="1.2.2 (b0a8486541, 2022-12-01)"
   xmlns:inkscape="http://www.inkscape.org/namespaces/inkscape"
   xmlns:sodipodi="http://sodipodi.sourceforge.net/DTD/sodipodi-0.dtd"
   xmlns="http://www.w3.org/2000/svg"
   xmlns:svg="http://www.w3.org/2000/svg"
   xmlns:rdf="http://www.w3.org/1999/02/22-rdf-syntax-ns#"
   xmlns:cc="http://creativecommons.org/ns#"
   xmlns:dc="http://purl.org/dc/elements/1.1/">
  <metadata
     id="metadata98228">
    <rdf:RDF>
      <cc:Work
         rdf:about="">
        <dc:format>image/svg+xml</dc:format>
        <dc:type
           rdf:resource="http://purl.org/dc/dcmitype/StillImage" />
      </cc:Work>
    </rdf:RDF>
  </metadata>
  <defs
     id="defs98226" />
  <sodipodi:namedview
     pagecolor="#ffffff"
     bordercolor="#666666"
     borderopacity="1"
     objecttolerance="10"
     gridtolerance="10"
     guidetolerance="10"
     inkscape:pageopacity="0"
     inkscape:pageshadow="2"
     inkscape:window-width="3840"
     inkscape:window-height="2036"
     id="namedview98224"
     showgrid="false"
     inkscape:zoom="6.8328662"
     inkscape:cx="51.735244"
     inkscape:cy="54.223219"
     inkscape:window-x="3828"
     inkscape:window-y="-12"
     inkscape:window-maximized="1"
     inkscape:current-layer="svg98222"
     inkscape:showpageshadow="2"
     inkscape:pagecheckerboard="0"
     inkscape:deskcolor="#d1d1d1" />
  <g
     transform="translate(-0.11215279,-1.6492188)"
     id="g4297"
     style="fill:#35342f;fill-opacity:1;stroke:#35342f;stroke-opacity:1">
    <g
       id="g3979"
       style="opacity:0.99;fill:#35342f;fill-opacity:1;stroke:#35342f;stroke-opacity:1"
       transform="matrix(0.6,0,0,0.6,2.7481337,3.0646604)">
      <path
         style="opacity:0.99;fill:#35342f;fill-opacity:1;stroke:#35342f;stroke-width:1.58228;stroke-opacity:1"
         inkscape:connector-curvature="0"
         id="path5763-7"
         d="M 39.071206,3.9201414 16.519858,11.313487 6,78.33148 72.141733,78.331207 61.621843,11.313254 Z"
         sodipodi:nodetypes="cccccc" />
    </g>
  </g>
  <path
     id="path8912"
     style="color:#000000;font-style:normal;font-variant:normal;font-weight:normal;font-stretch:normal;font-size:29.072px;line-height:1.25;font-family:MingLiU_HKSCS-ExtB;-inkscape-font-specification:MingLiU_HKSCS-ExtB;font-variant-ligatures:normal;font-variant-position:normal;font-variant-caps:normal;font-variant-numeric:normal;font-variant-alternates:normal;font-variant-east-asian:normal;font-feature-settings:normal;font-variation-settings:normal;text-indent:0;text-align:start;text-decoration:none;text-decoration-line:none;text-decoration-style:solid;text-decoration-color:#000000;letter-spacing:0px;word-spacing:0px;text-transform:none;writing-mode:lr-tb;direction:ltr;text-orientation:mixed;dominant-baseline:auto;baseline-shift:baseline;text-anchor:start;white-space:normal;shape-padding:0;shape-margin:0;inline-size:0;clip-rule:nonzero;display:inline;overflow:visible;visibility:visible;opacity:0.99;isolation:auto;mix-blend-mode:normal;color-interpolation:sRGB;color-interpolation-filters:linearRGB;solid-color:#000000;solid-opacity:1;fill:#b3b3b3;fill-opacity:1;fill-rule:nonzero;stroke:none;stroke-width:0.494738;stroke-linecap:butt;stroke-linejoin:round;stroke-miterlimit:4;stroke-dasharray:none;stroke-dashoffset:0;stroke-opacity:1;color-rendering:auto;image-rendering:auto;shape-rendering:auto;text-rendering:auto;enable-background:accumulate;stop-color:#000000"
     d="m 15.271842,14.553456 c -0.439874,0.01211 -0.659812,0.395887 -0.439874,0.770264 l 0.879749,2.990447 c 0.09667,0.219936 0.217521,0.352141 0.439874,0.352141 h 7.657443 v 7.234993 h -5.633295 c -0.21752,-0.0035 -0.437458,0.169182 -0.437458,0.418122 l -0.879748,2.572348 c -0.09667,0.374861 0.09667,0.770022 0.439874,0.770022 h 6.601744 v 8.280179 H 12.986186 c -0.217519,0.02658 -0.444708,0.190935 -0.444708,0.418123 l -0.879748,2.992717 c -0.07251,0.352142 0.217519,0.681806 0.439874,0.681806 h 27.965144 c 0.217521,-0.04109 0.439875,-0.352142 0.439875,-0.681806 l -0.879749,-2.992717 c -0.07251,-0.262233 -0.21752,-0.418123 -0.437457,-0.418123 H 28.120771 v -8.277979 h 6.469539 c 0.439875,0.0152 0.659812,-0.374861 0.439875,-0.770023 l -0.879749,-2.574426 c -0.07251,-0.262232 -0.217521,-0.418121 -0.444708,-0.418121 h -5.501332 v -7.234971 h 7.723664 c 0.217521,0.01298 0.439875,-0.128095 0.439875,-0.352141 l 0.879748,-2.992693 c 0.09667,-0.374861 -0.09667,-0.770264 -0.439874,-0.770264 l -21.43204,9.06e-4 c -0.01305,-9.06e-4 -0.02417,-0.0011 -0.02417,-9.06e-4 z"
     sodipodi:nodetypes="ccccccccccccccccccccccccccccccccccc" />
</svg>
