<?xml version="1.0" encoding="UTF-8" standalone="no"?>
<svg
   width="52.157"
   height="52.157"
   version="1.1"
   id="svg7210"
   sodipodi:docname="0_KI-1.svg"
   inkscape:version="1.3 (0e150ed6c4, 2023-07-21)"
   xmlns:inkscape="http://www.inkscape.org/namespaces/inkscape"
   xmlns:sodipodi="http://sodipodi.sourceforge.net/DTD/sodipodi-0.dtd"
   xmlns="http://www.w3.org/2000/svg"
   xmlns:svg="http://www.w3.org/2000/svg"
   xmlns:rdf="http://www.w3.org/1999/02/22-rdf-syntax-ns#"
   xmlns:cc="http://creativecommons.org/ns#"
   xmlns:dc="http://purl.org/dc/elements/1.1/">
  <metadata
     id="metadata7216">
    <rdf:RDF>
      <cc:Work
         rdf:about="">
        <dc:format>image/svg+xml</dc:format>
        <dc:type
           rdf:resource="http://purl.org/dc/dcmitype/StillImage" />
      </cc:Work>
    </rdf:RDF>
  </metadata>
  <defs
     id="defs7214">
    <filter
       inkscape:label="Combined Lighting"
       inkscape:menu="Bevels"
       inkscape:menu-tooltip="Basic specular bevel to use for building textures"
       style="color-interpolation-filters:sRGB"
       id="filter5765"
       x="-0.044811471"
       y="-0.041081776"
       width="1.0896229"
       height="1.0821636">
      <feGaussianBlur
         stdDeviation="6"
         in="SourceGraphic"
         result="result0"
         id="feGaussianBlur5747" />
      <feDiffuseLighting
         lighting-color="#ffffff"
         diffuseConstant="1"
         surfaceScale="4"
         result="result5"
         id="feDiffuseLighting5751">
        <feDistantLight
           elevation="45"
           azimuth="235"
           id="feDistantLight5749" />
      </feDiffuseLighting>
      <feComposite
         k1="1.4"
         in2="SourceGraphic"
         in="result5"
         result="fbSourceGraphic"
         operator="arithmetic"
         id="feComposite5753"
         k2="0"
         k3="0"
         k4="0" />
      <feGaussianBlur
         result="result0"
         in="fbSourceGraphic"
         stdDeviation="6"
         id="feGaussianBlur5755" />
      <feSpecularLighting
         specularExponent="25"
         specularConstant="1"
         surfaceScale="4"
         lighting-color="#ffffff"
         result="result1"
         in="result0"
         id="feSpecularLighting5759">
        <feDistantLight
           azimuth="280"
           elevation="45"
           id="feDistantLight5757" />
      </feSpecularLighting>
      <feComposite
         k3="1"
         k2="1"
         operator="arithmetic"
         in="fbSourceGraphic"
         in2="result1"
         result="result4"
         id="feComposite5761"
         k1="0"
         k4="0" />
      <feComposite
         operator="in"
         result="result2"
         in2="SourceGraphic"
         in="result4"
         id="feComposite5763" />
    </filter>
  </defs>
  <sodipodi:namedview
     pagecolor="#ffffff"
     bordercolor="#666666"
     borderopacity="1"
     objecttolerance="10"
     gridtolerance="10"
     guidetolerance="10"
     inkscape:pageopacity="0"
     inkscape:pageshadow="2"
     inkscape:window-width="3840"
     inkscape:window-height="2054"
     id="namedview7212"
     showgrid="false"
     inkscape:zoom="13.665733"
     inkscape:cx="44.161553"
     inkscape:cy="26.270087"
     inkscape:window-x="-11"
     inkscape:window-y="-11"
     inkscape:window-maximized="1"
     inkscape:current-layer="g13087"
     inkscape:showpageshadow="2"
     inkscape:pagecheckerboard="0"
     inkscape:deskcolor="#d1d1d1" />
  <g
     opacity="0.99"
     id="g13087"
     transform="translate(-1.6031437e-6,-4.0227345e-5)">
    <path
       d="M 26.079965,4.1375703 13.457972,8.0049433 6.7321303,48.040216 H 45.42489 L 38.700017,8.0040063 Z"
       fill="#fee572"
       fill-opacity="0.992"
       stroke="#000000"
       id="path13059"
       style="fill:#e2d8bb;fill-opacity:1;stroke:#3d3b32;stroke-width:0.953254;stroke-opacity:1" />
    <path
       id="path7739-8-5"
       style="color:#000000;font-style:normal;font-variant:normal;font-weight:normal;font-stretch:normal;font-size:medium;line-height:normal;font-family:sans-serif;font-variant-ligatures:normal;font-variant-position:normal;font-variant-caps:normal;font-variant-numeric:normal;font-variant-alternates:normal;font-variant-east-asian:normal;font-feature-settings:normal;font-variation-settings:normal;text-indent:0;text-align:start;text-decoration:none;text-decoration-line:none;text-decoration-style:solid;text-decoration-color:#000000;letter-spacing:normal;word-spacing:normal;text-transform:none;writing-mode:lr-tb;direction:ltr;text-orientation:mixed;dominant-baseline:auto;baseline-shift:baseline;text-anchor:start;white-space:normal;shape-padding:0;shape-margin:0;inline-size:0;clip-rule:nonzero;display:inline;overflow:visible;visibility:visible;opacity:0.99;isolation:auto;mix-blend-mode:normal;color-interpolation:sRGB;color-interpolation-filters:linearRGB;solid-color:#000000;solid-opacity:1;vector-effect:none;fill:#3d3b32;fill-opacity:0.992157;fill-rule:nonzero;stroke:none;stroke-width:1.28177;stroke-linecap:butt;stroke-linejoin:miter;stroke-miterlimit:4;stroke-dasharray:none;stroke-dashoffset:0;stroke-opacity:1;color-rendering:auto;image-rendering:auto;shape-rendering:auto;text-rendering:auto;enable-background:accumulate;stop-color:#000000"
       d="m 16.822624,11.401526 c -0.398219,0.119493 -1.708197,0.373903 -0.932324,0.885918 0.323882,0.307763 0.89453,0.757669 1.233557,1.322205 1.535502,2.556987 1.087249,5.617498 1.197711,7.525095 -0.938994,-0.08058 -3.061067,-0.221478 -3.391716,0.573429 l -2.089199,3.621087 c 1.778114,-0.257883 4.012372,-0.61136 5.283182,0.968311 0.862157,0.469081 1.447993,2.791013 2.016724,2.676077 l 1.226473,-3.654183 c 1.17131,0.17646 1.037506,0.820612 0.631924,1.657134 0.753779,0.861878 2.871934,0.929267 4.212189,0.978037 1.262321,-0.14367 3.370764,-0.196747 4.011627,-1.041397 -0.375044,-0.792823 -0.554783,-1.436863 0.58968,-1.595233 l 1.337676,3.816722 c 0.882052,-1.337212 1.480952,-3.034195 3.042699,-3.71892 1.321904,-0.518265 2.759761,-0.277473 4.123523,-0.08753 l -2.381172,-4.127001 c -0.962756,-0.422812 -2.76167,0.03473 -3.153185,-0.07781 0.130331,-2.299799 -0.172554,-4.778018 1.06324,-6.850975 0.462996,-0.876467 1.124683,-1.619076 1.767623,-2.365032 -0.721444,-0.478113 -1.637435,-0.7328 -2.337628,-0.01945 -0.951722,0.909259 -1.987129,1.124764 -3.191142,0.771147 -1.292194,0.160344 -1.931797,1.411076 -2.21656,2.545178 1.097222,-0.01945 1.625462,1.095307 1.723314,2.058227 0.137141,0.919681 0.09671,3.547364 -1.080888,3.053954 0.275114,-2.258268 -2.111614,-4.267545 -4.291698,-3.615516 -1.604917,0.382101 -2.764557,2.039596 -2.567699,3.678097 -1.140326,0.396829 -1.211049,-2.180625 -1.064045,-3.116549 0.09726,-0.964282 0.625672,-2.075678 1.722591,-2.058227 -0.287061,-1.216609 -1.064183,-2.569619 -2.479051,-2.562089 -1.651744,0.867577 -2.513317,-0.905924 -4.007412,-1.240505 z m 1.676141,2.497338 c 0.933575,1.030281 2.034482,-0.197581 2.96318,0.360425 -0.20286,0.779484 -1.157416,1.982641 -1.094196,3.123593 -0.364315,2.593251 1.213689,5.40694 3.827283,6.069182 2.851413,0.985263 6.514218,-0.467135 7.368155,-3.495856 0.542887,-1.843015 0.35081,-4.0956 -0.996405,-5.553389 0.853684,-0.96456 2.000231,0.613584 2.95965,-0.41239 -0.195234,0.833674 -0.981235,2.893166 -0.869756,4.315635 -0.02654,1.460637 0.224814,3.087272 -0.818361,4.2889 -1.196907,1.954353 -3.667677,2.37319 -5.778578,2.271426 -2.094549,0.09726 -4.53653,-0.336525 -5.721556,-2.271426 -1.04348,-1.20174 -0.789905,-2.827861 -0.816999,-4.288345 -0.03057,-1.519064 -0.350838,-3.039725 -1.022361,-4.407824 z m 7.579979,3.933534 c 1.760899,-0.0917 2.861313,2.246971 1.671932,3.547196 -1.043203,1.408463 -3.530022,0.789489 -3.794214,-0.942328 -0.302484,-1.299697 0.787266,-2.639868 2.122282,-2.604965 z m 8.283643,9.387702 c -0.491977,1.169643 -1.746054,2.187753 -1.657855,3.495855 0.220201,0.282477 0.216727,1.470141 0.643843,0.914819 0.667688,-0.63262 1.359843,-1.239673 2.004777,-1.89569 -0.3305,-0.838398 -0.660495,-1.676614 -0.990771,-2.514956 z m -16.475107,0.153257 -0.938021,2.380554 c 0.717515,0.724462 1.484118,1.398542 2.224323,2.099758 0.148255,-0.611916 0.616641,-1.219803 0.24371,-1.84364 -0.407249,-0.931075 -1.04098,-1.747782 -1.52979,-2.636672 z m 3.717516,0.743776 -2.270745,6.569497 c 4.361569,1.398501 9.188481,1.396722 13.537286,-0.05141 l -2.229984,-6.500608 c -2.91691,1.042925 -6.134097,1.128099 -9.036572,-0.01807 z m 14.364797,2.303119 c -0.828044,0.810747 -1.691417,1.585841 -2.535335,2.38054 0.346254,1.018609 0.674678,1.977918 1.156847,2.928693 1.202738,-0.385017 2.258724,-1.090167 3.138381,-1.991395 -0.565081,-1.117399 -1.177979,-2.209345 -1.759893,-3.317838 z m -19.637405,0.01667 c -0.579681,1.10281 -1.18854,2.190045 -1.752882,3.300942 0.883277,0.895923 1.932024,1.612088 3.138391,1.991396 0.476027,-0.94761 0.814499,-1.906401 1.13574,-2.92308 -0.838952,-0.791155 -1.698914,-1.561358 -2.521264,-2.369271 z m 6.010061,6.235945 c -0.118104,0.509374 -0.237041,1.019027 -0.355423,1.528401 2.625765,0.651516 5.4429,0.709456 8.074665,0.05975 l -0.345472,-1.578394 c -2.410511,0.580098 -4.960717,0.527715 -7.373798,-0.01058 z m -1.104756,2.430505 c -0.328885,1.072937 -0.658185,2.146305 -0.987347,3.219284 3.575569,1.910737 8.043181,1.706654 11.656362,0 l -1.048426,-3.219299 c -1.540164,0.59302 -3.064861,0.717515 -4.830025,0.754474 -1.450341,-0.01529 -3.43472,-0.215226 -4.790592,-0.754474 z"
       sodipodi:nodetypes="ccsccccccccccccccccccccccccccccccccccccccccccccccccccccccccccccccccccccscccsscccccccccccc" />
  </g>
</svg>
