<?xml version="1.0" encoding="UTF-8" standalone="no"?>
<svg
   width="52.157"
   height="52.157"
   version="1.1"
   id="svg1884"
   sodipodi:docname="0_LANCE-1.svg"
   inkscape:version="1.2.2 (b0a8486541, 2022-12-01)"
   xmlns:inkscape="http://www.inkscape.org/namespaces/inkscape"
   xmlns:sodipodi="http://sodipodi.sourceforge.net/DTD/sodipodi-0.dtd"
   xmlns="http://www.w3.org/2000/svg"
   xmlns:svg="http://www.w3.org/2000/svg"
   xmlns:rdf="http://www.w3.org/1999/02/22-rdf-syntax-ns#"
   xmlns:cc="http://creativecommons.org/ns#"
   xmlns:dc="http://purl.org/dc/elements/1.1/">
  <metadata
     id="metadata1890">
    <rdf:RDF>
      <cc:Work
         rdf:about="">
        <dc:format>image/svg+xml</dc:format>
        <dc:type
           rdf:resource="http://purl.org/dc/dcmitype/StillImage" />
      </cc:Work>
    </rdf:RDF>
  </metadata>
  <defs
     id="defs1888" />
  <sodipodi:namedview
     pagecolor="#ffffff"
     bordercolor="#666666"
     borderopacity="1"
     objecttolerance="10"
     gridtolerance="10"
     guidetolerance="10"
     inkscape:pageopacity="0"
     inkscape:pageshadow="2"
     inkscape:window-width="3840"
     inkscape:window-height="2036"
     id="namedview1886"
     showgrid="false"
     inkscape:zoom="13.665733"
     inkscape:cx="25.940797"
     inkscape:cy="29.892286"
     inkscape:window-x="3828"
     inkscape:window-y="-12"
     inkscape:window-maximized="1"
     inkscape:current-layer="svg1884"
     inkscape:showpageshadow="2"
     inkscape:pagecheckerboard="0"
     inkscape:deskcolor="#d1d1d1" />
  <path
     d="M 26.08,5.256 14.845,8.985 8.963,46.925 H 43.192 L 37.31,8.985 Z"
     fill="#fee572"
     stroke="#000"
     stroke-width="0.87822"
     opacity="0.99"
     id="path1830"
     style="fill:#e2d9ba;fill-opacity:1;stroke:#38362e;stroke-opacity:0.972549" />
  <path
     id="path1400"
     style="fill:#38362e;fill-opacity:0.96470588;stroke:none;stroke-width:0.492963;stroke-linecap:butt;stroke-linejoin:miter;stroke-miterlimit:4;stroke-dasharray:none;stroke-opacity:1"
     d="m 26.0679,9.0456088 -2.12928,2.6563202 -0.2784,8.69376 1.66752,0.8736 h 0.0408 v 5.2752 c -4.66272,0.3648 -8.25888,4.16544 -8.25888,8.73696 9.6e-5,4.84032 4.01472,8.76288 8.96736,8.76384 4.95264,1.92e-4 8.96832,-3.92352 8.96832,-8.76384 0,-0.05021 -5.76e-4,-0.1056 -0.0014,-0.1632 -0.0407,-2.56512 -1.23936,-4.9824 -3.26688,-6.61344 -0.04061,-0.0312 -0.07632,-0.06461 -0.1344,-0.1056 -1.39488,-1.0848 -3.09216,-1.7376 -4.87008,-1.87584 v -5.2752 h 0.0503 l 1.6608,-0.8736 -0.2496,-8.69472 z m -0.5568,3.0364802 h 1.13568 v 7.29792 H 25.5111 Z m -0.1536,16.372608 v 5.14656 l -3.72384,-3.63936 c 1.06368,-0.8544 2.35872,-1.37184 3.72384,-1.50816 z m 1.41888,0.0015 c 1.36512,0.144 2.65824,0.6528 3.72192,1.50816 l -3.72192,3.63744 z m -6.144,2.4864 3.7584,3.67104 h -5.30304 c 0.1344,-1.34688 0.6624,-2.62368 1.54464,-3.67104 z m 10.868448,7.68e-4 c 0.8832,1.0464 1.40928,2.32128 1.54272,3.66336 l 6.72e-4,0.0066 h -5.30016 z m -12.406272,5.05728 h 5.2272 l -3.68832,3.6048 c -0.864,-1.03104 -1.39392,-2.28288 -1.53792,-3.6048 z m 8.71872,0 h 5.22528 c -0.1536,1.32192 -0.672,2.57376 -1.53792,3.60384 z m -2.45568,0.9504 v 5.14464 c -0.144,-0.01402 -0.2688,-0.0312 -0.4032,-0.0527 -0.0408,-0.0071 -0.09034,-0.01498 -0.144,-0.02304 -1.1664,-0.2112 -2.25984,-0.7008 -3.18048,-1.43328 z m 1.41888,0 3.72192,3.63744 c -1.06272,0.8544 -2.35584,1.36992 -3.72192,1.5072 z"
     sodipodi:nodetypes="cccccccsscscccccccccccccccccccccccccscccccccccccccsscccccc" />
</svg>
