<?xml version="1.0" encoding="UTF-8" standalone="no"?>
<svg
   width="52.157"
   height="52.157"
   version="1.1"
   id="svg7210"
   sodipodi:docname="0_NG.svg"
   inkscape:version="1.3 (0e150ed6c4, 2023-07-21)"
   xmlns:inkscape="http://www.inkscape.org/namespaces/inkscape"
   xmlns:sodipodi="http://sodipodi.sourceforge.net/DTD/sodipodi-0.dtd"
   xmlns="http://www.w3.org/2000/svg"
   xmlns:svg="http://www.w3.org/2000/svg"
   xmlns:rdf="http://www.w3.org/1999/02/22-rdf-syntax-ns#"
   xmlns:cc="http://creativecommons.org/ns#"
   xmlns:dc="http://purl.org/dc/elements/1.1/">
  <metadata
     id="metadata7216">
    <rdf:RDF>
      <cc:Work
         rdf:about="">
        <dc:format>image/svg+xml</dc:format>
        <dc:type
           rdf:resource="http://purl.org/dc/dcmitype/StillImage" />
      </cc:Work>
    </rdf:RDF>
  </metadata>
  <defs
     id="defs7214">
    <filter
       id="0NG_svg__a"
       x="-0.13505243"
       y="-0.11084531"
       width="1.3201161"
       height="1.2628805">
      <feGaussianBlur
         in="SourceAlpha"
         result="blur"
         stdDeviation="2"
         id="feGaussianBlur1" />
      <feOffset
         dx="2"
         dy="2"
         result="offsetBlur"
         id="feOffset1" />
      <feBlend
         in="SourceGraphic"
         in2="offsetBlur"
         id="feBlend1"
         mode="normal" />
    </filter>
  </defs>
  <sodipodi:namedview
     pagecolor="#ffffff"
     bordercolor="#666666"
     borderopacity="1"
     objecttolerance="10"
     gridtolerance="10"
     guidetolerance="10"
     inkscape:pageopacity="0"
     inkscape:pageshadow="2"
     inkscape:window-width="3840"
     inkscape:window-height="2054"
     id="namedview7212"
     showgrid="false"
     inkscape:zoom="9.6631325"
     inkscape:cx="41.65316"
     inkscape:cy="51.225625"
     inkscape:window-x="-11"
     inkscape:window-y="-11"
     inkscape:window-maximized="1"
     inkscape:current-layer="g13087"
     inkscape:showpageshadow="2"
     inkscape:pagecheckerboard="0"
     inkscape:deskcolor="#d1d1d1" />
  <g
     opacity="0.99"
     id="g13087"
     transform="translate(-1.6031437e-6,-4.0227345e-5)">
    <path
       d="m 26.07704,4.1375703 12.621993,3.867373 6.725841,40.0352727 H 6.7321147 L 13.456988,8.0040063 Z"
       fill="#fee572"
       fill-opacity="0.992"
       stroke="#000000"
       id="path13059"
       style="fill:#39372e;fill-opacity:0.94901961;stroke:#39372e;stroke-width:0.953254;stroke-opacity:0.94902" />
    <path
       id="path2-8"
       style="fill:#eb5858;fill-opacity:0.992157;stroke-width:0.945394"
       d="m 26.085803,9.6151429 -0.2862,0.3988351 c -0.832887,1.164701 -1.650175,2.583001 -2.934015,3.142663 l -0.537317,0.232653 0.456074,0.371137 c 0.650246,0.525606 1.117401,1.362941 1.438387,2.429933 -1.09452,0.656482 -1.829835,1.872422 -1.829836,3.247912 0,0.02352 0.0014,0.04674 0.0019,0.07017 -2.76e-4,0.01867 -0.0037,0.03666 -0.0037,0.05539 -2.6e-5,0.06302 0.0037,0.124698 0.0074,0.186492 -0.392699,0.288483 -0.775319,0.603103 -1.148494,0.937998 -0.225054,-0.110667 -0.424516,-0.229602 -0.592712,-0.358212 -0.01928,-0.01515 -0.0424,-0.02901 -0.06093,-0.04431 -0.145479,-0.120081 -0.289582,-0.270806 -0.433916,-0.441303 -0.09455,-0.111617 -0.189262,-0.230119 -0.282508,-0.360058 -0.01074,-0.01497 -0.02067,-0.02727 -0.03139,-0.04247 -0.490071,-0.693786 -0.957355,-1.617778 -1.355297,-2.581343 v -0.0019 c -0.0993,-0.240503 -0.194369,-0.483372 -0.284353,-0.725656 v -0.0019 c -0.08995,-0.242268 -0.175601,-0.483922 -0.254811,-0.721964 v -0.0019 c -0.0059,-0.01759 -0.01082,-0.03415 -0.01662,-0.0517 -0.394911,-1.142651 -0.677798,-2.316583 -0.945384,-3.49349 -5.8e-5,-2.93e-4 -0.0037,-0.02031 -0.0037,-0.02031 v -0.0019 l -1.403304,-0.956464 c 0,0 -0.04056,1.925501 -0.04616,3.140818 -0.0016,0.29439 -0.0025,0.575778 0.0019,0.910302 0.0059,0.428906 0.01689,0.883504 0.03693,1.355296 0.0029,0.07069 0.0022,0.131792 0.0056,0.20311 0.06032,1.276641 0.162341,2.637181 0.40068,3.884938 0.03805,0.199215 0.08001,0.39467 0.125558,0.587173 0.01984,0.08383 0.03957,0.166943 0.06093,0.249271 0.05584,0.215194 0.117497,0.424505 0.184646,0.627794 0.188036,0.569179 0.420009,1.09101 0.714577,1.53071 0.136709,0.204063 0.28724,0.395871 0.446842,0.579786 0.07963,0.09176 0.162756,0.180758 0.247425,0.267736 0.0846,0.08691 0.171163,0.172526 0.26035,0.25481 0.08072,0.07448 0.163292,0.147072 0.247425,0.217882 0.01602,0.01351 0.03187,0.02724 0.04801,0.04062 0.06241,0.05165 0.126107,0.101686 0.190185,0.151409 0.04482,0.03483 0.08921,0.06949 0.134791,0.103401 0.03896,0.02895 0.07869,0.05666 0.118173,0.08493 0.178987,0.128341 0.363843,0.250432 0.552089,0.365598 0.01824,0.01115 0.03523,0.02404 0.05355,0.03508 -0.01626,-0.0058 -0.05185,-0.01884 -0.06647,-0.024 -2.197079,4.682465 -5.177269,3.169872 -6.957436,5.63353 l -0.184645,0.252964 0.160642,0.275122 c 2.152495,3.677971 4.321906,5.985573 5.236541,3.434403 0.0031,0 0.0055,0.0011 0.0074,0.0037 l 3.238679,-8.851897 c 0.02291,0.0098 0.04542,0.01802 0.06832,0.0277 0.229113,0.09647 0.458171,0.186189 0.68688,0.269582 0.04547,0.01671 0.09118,0.03744 0.136638,0.05355 l -0.485618,1.549175 c 0.323325,0.115336 0.85173,0.301193 1.617494,0.528086 1.092871,0.325206 2.424389,0.642565 3.251604,0.642565 0.829105,0 2.166977,-0.317359 3.262684,-0.642565 0.546398,-0.160028 1.086876,-0.336506 1.623032,-0.528086 l -0.487538,-1.556532 c 0.01717,-0.0061 0.03452,-0.01411 0.0517,-0.02031 0.266681,-0.09587 0.534029,-0.202086 0.801361,-0.315743 0.01273,-0.0054 0.02604,-0.0094 0.03878,-0.01478 l 3.288534,9.010693 c 0.853166,2.376776 3.029677,0.07621 5.177457,-3.589505 l 0.162361,-0.2731 -0.184643,-0.252964 c -1.779219,-2.463647 -4.7576,-0.948362 -6.95374,-5.627984 v -0.0019 c -0.02264,0.0079 -0.07362,0.02594 -0.09971,0.03508 0.01188,-0.0071 0.02323,-0.015 0.03508,-0.02216 0.198986,-0.120167 0.394595,-0.247488 0.583479,-0.382216 0.04094,-0.02917 0.08148,-0.05875 0.121866,-0.08863 0.05061,-0.03749 0.0999,-0.07586 0.149562,-0.114481 0.05463,-0.04244 0.109059,-0.08542 0.162489,-0.129252 0.04014,-0.03298 0.07875,-0.06776 0.118173,-0.101555 0.05705,-0.04882 0.114417,-0.09718 0.169874,-0.147716 0.03087,-0.02817 0.06013,-0.05807 0.09047,-0.08679 0.06764,-0.06391 0.134506,-0.127245 0.199417,-0.193878 l 0.0037,-0.0037 c 0.0043,-0.0043 0.0087,-0.0085 0.01292,-0.01292 0.07773,-0.08037 0.153664,-0.162997 0.227113,-0.247424 0.0023,-0.0026 0.0051,-0.0047 0.0074,-0.0074 0.01142,-0.01318 0.02192,-0.02735 0.03324,-0.04062 0.06777,-0.07953 0.133869,-0.160548 0.19757,-0.243732 0.0739,-0.09648 0.14615,-0.193929 0.214189,-0.295432 v -0.0019 c 0.06917,-0.103255 0.136676,-0.209763 0.199416,-0.321283 v -0.0019 c 0.06272,-0.111548 0.122484,-0.228012 0.179106,-0.347134 v -0.0019 c 0.0566,-0.119149 0.109788,-0.241416 0.16064,-0.367445 v -0.0019 c 0.05086,-0.126062 0.100447,-0.255507 0.145873,-0.387755 v -0.0019 c 0.0028,-0.0073 0.0047,-0.01486 0.0076,-0.02216 0.08556,-0.251514 0.162795,-0.512861 0.230806,-0.782896 0.0019,-0.0075 0.0038,-0.01469 0.0057,-0.02216 v -0.0019 c 0.0019,-0.0085 0.0038,-0.01737 0.0057,-0.02585 0.06684,-0.270125 0.12548,-0.547343 0.177259,-0.830903 0.0019,-0.0081 0.0038,-0.01586 0.0057,-0.024 v -0.0019 c 0.05446,-0.300979 0.100003,-0.609015 0.140333,-0.919533 v -0.0019 c 0.04027,-0.310541 0.0745,-0.623485 0.103397,-0.937999 v -0.0019 c 0.02893,-0.314516 0.05351,-0.630618 0.07383,-0.943538 v -0.0019 c 0.02033,-0.312899 0.03725,-0.623031 0.05171,-0.928766 v -0.0019 c 9.4e-5,-0.0019 -8.5e-5,-0.0037 0,-0.0056 0.02874,-0.608619 0.04254,-1.195365 0.04802,-1.73382 1e-5,-0.0012 -9e-6,-0.0026 0,-0.0037 v -0.0019 c 0.01626,-1.624716 -0.04802,-3.862781 -0.04802,-3.862781 l -1.403303,0.956463 c 0,0 7e-6,0.0037 0,0.0037 l -0.0019,-0.0019 c 0,0 -0.330848,1.658687 -0.965694,3.567349 -0.07916,0.237857 -0.16308,0.479889 -0.252964,0.721963 l -0.0019,0.0019 c -0.08992,0.242076 -0.183295,0.485361 -0.282507,0.725656 -0.05615,0.13615 -0.116646,0.268449 -0.175414,0.402527 -0.04538,0.103408 -0.08983,0.208604 -0.136638,0.310204 v 0.0019 c -0.107222,0.232678 -0.218683,0.458772 -0.332361,0.677648 v 0.0019 c -0.113685,0.218827 -0.230272,0.428775 -0.34898,0.627795 v 0.0019 c -0.118708,0.19895 -0.239604,0.386338 -0.361904,0.559476 l -0.0019,0.0019 c -0.113939,0.161406 -0.229397,0.307362 -0.345288,0.441302 -0.0087,0.01001 -0.01718,0.02155 -0.02585,0.03139 v 0.0019 c -0.06207,0.07039 -0.124148,0.136207 -0.186492,0.19757 -0.06265,0.06167 -0.125591,0.118082 -0.188338,0.169874 -0.0191,0.01576 -0.04127,0.03057 -0.06093,0.04616 -0.168067,0.131301 -0.357456,0.253523 -0.565015,0.367445 -0.382794,-0.344633 -0.774404,-0.66813 -1.178037,-0.963849 0.0032,-0.05733 0.0056,-0.113315 0.0056,-0.17172 -1e-6,-0.0062 -0.0018,-0.0122 -0.0019,-0.01846 0.001,-0.03569 0.0037,-0.07118 0.0037,-0.107094 0,-1.369765 -0.729935,-2.580297 -1.816911,-3.23868 0.320949,-1.071431 0.788111,-1.912041 1.440234,-2.439165 l 0.45792,-0.371137 -0.537317,-0.232653 c -1.28384,-0.559662 -2.102974,-1.977962 -2.935861,-3.142663 z m -9.021771,7.3691961 c 0.62907,1.680119 1.410164,3.38823 2.62935,4.394559 1.84782,1.52521 4.963546,2.128961 6.560449,2.128961 1.596903,0 4.40159,-0.636592 6.209623,-2.128961 1.219186,-1.006329 2.000279,-2.71444 2.629349,-4.394559 -0.148257,2.222727 -0.530384,4.618825 -1.185423,5.5966 -0.807363,1.205149 -2.415906,2.110411 -4.023421,2.668126 -1.60752,0.557711 -3.234472,0.777356 -3.805541,0.777357 -0.571069,0 -2.198021,-0.219646 -3.805541,-0.777357 -1.607515,-0.557715 -3.216058,-1.462977 -4.023422,-2.668126 -0.655038,-0.977775 -1.037166,-3.373873 -1.185423,-5.5966 z m 9.014386,0.108941 c 1.25057,0 2.267445,1.031398 2.267445,2.344996 0,1.313597 -1.016875,2.346842 -2.267445,2.346842 -1.25057,0 -2.267445,-1.033245 -2.267445,-2.346842 0,-1.313598 1.016875,-2.344996 2.267445,-2.344996 z m -5.096212,11.728672 -2.069874,6.601071 c 1.960737,0.83855 5.10041,2.042089 7.166086,2.04587 2.058112,0.0028 5.186766,-1.17206 7.191936,-2.018173 l -2.079107,-6.628768 c -0.342233,0.121955 -0.873073,0.306777 -1.63411,0.531779 -1.123123,0.332769 -2.467152,0.672108 -3.478719,0.672108 -1.00684,0 -2.347353,-0.341185 -3.46764,-0.673954 -0.75631,-0.224057 -1.285393,-0.407978 -1.628572,-0.529933 z m 0.736735,8.822354 c -0.29622,1.407653 -0.593518,2.81698 -0.88999,4.224686 3.220479,2.506812 7.244571,2.239064 10.498934,0 l -0.943537,-4.224686 c -1.387211,0.77802 -2.762226,0.941211 -4.352091,0.9897 -1.306311,-0.02007 -3.092085,-0.282229 -4.313316,-0.9897 z" />
  </g>
</svg>
