<?xml version="1.0" encoding="UTF-8" standalone="no"?>
<svg
   width="52.157"
   height="52.157"
   version="1.1"
   id="svg7210"
   sodipodi:docname="0_NK.svg"
   inkscape:version="1.3 (0e150ed6c4, 2023-07-21)"
   xmlns:inkscape="http://www.inkscape.org/namespaces/inkscape"
   xmlns:sodipodi="http://sodipodi.sourceforge.net/DTD/sodipodi-0.dtd"
   xmlns="http://www.w3.org/2000/svg"
   xmlns:svg="http://www.w3.org/2000/svg"
   xmlns:rdf="http://www.w3.org/1999/02/22-rdf-syntax-ns#"
   xmlns:cc="http://creativecommons.org/ns#"
   xmlns:dc="http://purl.org/dc/elements/1.1/">
  <metadata
     id="metadata7216">
    <rdf:RDF>
      <cc:Work
         rdf:about="">
        <dc:format>image/svg+xml</dc:format>
        <dc:type
           rdf:resource="http://purl.org/dc/dcmitype/StillImage" />
      </cc:Work>
    </rdf:RDF>
  </metadata>
  <defs
     id="defs7214" />
  <sodipodi:namedview
     pagecolor="#ffffff"
     bordercolor="#666666"
     borderopacity="1"
     objecttolerance="10"
     gridtolerance="10"
     guidetolerance="10"
     inkscape:pageopacity="0"
     inkscape:pageshadow="2"
     inkscape:window-width="3840"
     inkscape:window-height="2054"
     id="namedview7212"
     showgrid="false"
     inkscape:zoom="6.8328666"
     inkscape:cx="-21.147786"
     inkscape:cy="18.147581"
     inkscape:window-x="3829"
     inkscape:window-y="-11"
     inkscape:window-maximized="1"
     inkscape:current-layer="svg7210"
     inkscape:showpageshadow="2"
     inkscape:pagecheckerboard="0"
     inkscape:deskcolor="#d1d1d1" />
  <g
     opacity="0.99"
     id="g7208"
     transform="rotate(-180,26.078907,26.07844)"
     style="fill:#38362e;fill-opacity:0.97254902;stroke:#38362e;stroke-opacity:0.97254902">
    <path
       d="m -11.427,7.439 -12.666,4.1 -6.756,42.757 H 7.992 L 1.245,11.592 Z"
       fill="#fee572"
       stroke="#000000"
       transform="matrix(-0.95786,0,0,-0.9052,15.132,54.008)"
       opacity="0.99"
       id="path7192"
       style="fill:#38362e;fill-opacity:0.97254902;stroke:#38362e;stroke-opacity:0.97254902" />
  </g>
  <path
     id="path7388-6"
     style="color:#000000;font-style:normal;font-variant:normal;font-weight:normal;font-stretch:normal;font-size:medium;line-height:normal;font-family:sans-serif;font-variant-ligatures:normal;font-variant-position:normal;font-variant-caps:normal;font-variant-numeric:normal;font-variant-alternates:normal;font-variant-east-asian:normal;font-feature-settings:normal;font-variation-settings:normal;text-indent:0;text-align:start;text-decoration:none;text-decoration-line:none;text-decoration-style:solid;text-decoration-color:#000000;letter-spacing:normal;word-spacing:normal;text-transform:none;writing-mode:lr-tb;direction:ltr;text-orientation:mixed;dominant-baseline:auto;baseline-shift:baseline;text-anchor:start;white-space:normal;shape-padding:0;shape-margin:0;inline-size:0;clip-rule:nonzero;display:inline;overflow:visible;visibility:visible;opacity:0.99;isolation:auto;mix-blend-mode:normal;color-interpolation:sRGB;color-interpolation-filters:linearRGB;solid-color:#000000;solid-opacity:1;vector-effect:none;fill:#ec5959;fill-opacity:1;fill-rule:nonzero;stroke:none;stroke-width:0.562479;stroke-linecap:butt;stroke-linejoin:miter;stroke-miterlimit:4;stroke-dasharray:none;stroke-dashoffset:0;stroke-opacity:1;color-rendering:auto;image-rendering:auto;shape-rendering:auto;text-rendering:auto;enable-background:accumulate;stop-color:#000000"
     d="m 16.921947,9.5208639 0.07407,0.6514461 c 0,0 0.05823,0.537559 0.22981,1.13196 0.132678,0.459636 0.297285,0.997695 0.687532,1.361769 -0.275629,0.586399 -0.415938,1.273685 -0.415938,2.024611 0,0.700961 0.119051,1.348594 0.35896,1.908755 v 0.0019 c -0.03722,0.08598 -0.06302,0.168534 -0.07977,0.254501 -0.01652,0.08482 -0.02667,0.172779 -0.03419,0.265897 -0.03165,0.391468 0.0025,0.877663 0.115855,1.388358 0.04617,0.20799 0.107001,0.418492 0.182329,0.626755 -0.429941,1.198795 -0.671146,2.352003 -0.598268,3.608594 -1.474429,1.652713 -2.785832,3.420789 -3.63898,5.477465 l -0.0095,0.02088 -0.0037,0.02088 c -0.243663,1.020972 -0.476584,2.107963 -0.05128,3.213548 l 0.03609,0.09687 0.56408,0.311478 c 0.329122,0.681983 0.564609,1.157145 0.970522,1.443437 0.357884,0.25272 0.808095,0.301399 1.422544,0.248804 l 1.89926,-2.67036 0.763503,0.543189 -1.802398,2.533611 0.148143,0.358961 0.246904,-0.07977 c 1.255764,-0.404369 1.924506,-0.982593 2.398764,-1.69034 0.461415,-0.688568 0.766544,-1.480913 1.352273,-2.402563 1.858557,-0.860578 2.703636,-1.314436 4.546827,-2.005618 l 0.0228,-0.0076 -0.05697,-0.03229 c 0.262568,-0.458237 0.551734,-1.482967 0.731214,-2.43485 0.09034,-0.47596 0.158776,-0.940035 0.199423,-1.319986 0.0404,-0.380123 0.04821,-0.697408 0.03988,-0.786293 l 0.934434,-0.08927 c 0.02496,0.253138 0.0011,0.567208 -0.04368,0.976219 -0.04398,0.408885 -0.114184,0.892098 -0.208918,1.392158 -0.176271,0.936451 -0.415468,1.906084 -0.767301,2.58869 l 0.04748,0.218416 c 0,0.01914 0.01566,0.290432 0.0228,0.617258 0.0075,0.33821 -0.0057,0.750895 -0.01899,0.814783 l -0.0037,0.01899 v 0.0171 c -0.07588,1.155517 -0.795446,2.535673 -1.658054,3.688362 1.755585,1.200706 4.034787,2.025902 6.307441,2.203141 1.209155,0.09429 2.405356,0.01003 3.526925,-0.277292 -0.507965,-3.318132 -0.404053,-6.985101 -0.790092,-10.071774 -0.472657,-2.80834 -1.39367,-4.073929 -3.424365,-5.788943 -0.259359,-0.219022 -0.783758,-0.571871 -1.261108,-0.816681 -0.238318,-0.122452 -0.46878,-0.219717 -0.634353,-0.267795 -0.165579,-0.04813 -0.262255,-0.0054 -0.144343,-0.05128 l -0.452143,-1.150978 c 0.186968,-0.07309 0.349732,-0.09165 0.503303,-0.07977 h 0.0019 c 0.153331,0.01211 0.294674,0.05383 0.43683,0.09497 0.283487,0.0826 0.569527,0.206963 0.854667,0.353261 0.570421,0.292572 1.12465,0.659893 1.494717,0.972421 2.136177,1.804098 3.338955,3.50289 3.8479,6.53915 l 0.0019,0.0133 0.0019,0.01139 c 0.395819,3.149693 0.354917,6.731417 0.784395,9.834366 0.762267,-0.321388 1.474664,-0.753217 2.110077,-1.312388 -0.360429,-2.087481 -0.481958,-4.374122 -0.584972,-8.330154 v -0.0037 -0.0058 c -0.151609,-2.297162 -1.381642,-4.985645 -3.30851,-7.089937 -1.887577,-2.061289 -4.469738,-3.542591 -7.374825,-3.460451 -0.116661,-0.911421 2.180921,-0.763399 3.336999,-0.928737 -0.855767,-0.658538 -2.849421,-1.61245 -4.096703,-1.942943 0.247661,-0.43762 0.0281,-0.06323 0.05697,-0.129149 0.139367,-0.319177 0.233609,-0.529893 0.233609,-0.529893 l 0.46152,-1.016105 -1.057888,0.353263 c -0.157977,0.05266 -0.310627,0.09682 -0.45962,0.136746 -0.118053,0.0316 -0.234602,0.05978 -0.347564,0.08166 -0.101242,0.01961 -0.202562,0.03682 -0.300084,0.04748 -0.114764,0.01255 -0.226027,0.01856 -0.336168,0.0171 -0.0966,-0.0012 -0.191434,-0.0094 -0.28489,-0.02279 -0.02468,-0.0035 -0.0496,-0.007 -0.07407,-0.01139 -0.09423,-0.017 -0.18771,-0.03925 -0.279191,-0.07028 -0.102604,-0.03479 -0.202291,-0.07885 -0.301983,-0.132949 -0.09969,-0.0541 -0.198935,-0.118542 -0.296284,-0.193723 l -0.04179,-0.03229 -0.04748,-0.02279 c -0.132405,-0.06278 -0.26435,-0.11088 -0.395045,-0.146245 -0.0084,-0.0022 -0.01635,-0.0055 -0.02469,-0.0076 -0.05411,-0.01391 -0.107959,-0.02535 -0.161437,-0.03419 -0.0076,-0.0012 -0.01525,-0.0026 -0.0228,-0.0037 -0.0045,-6.88e-4 -0.0088,-0.0012 -0.01329,-0.0019 -0.06143,-0.0088 -0.122076,-0.0153 -0.18233,-0.0171 -0.06865,-0.002 -0.136485,0.0019 -0.203219,0.0095 -0.01584,0.0018 -0.03177,0.0033 -0.04748,0.0058 -0.06753,0.01003 -0.134436,0.02501 -0.199423,0.04558 -0.09591,0.03036 -0.185095,0.07063 -0.267795,0.119655 -0.08271,0.04902 -0.157763,0.105686 -0.227911,0.169033 l -0.0019,0.0019 c -0.06937,0.06287 -0.134117,0.132466 -0.191825,0.20512 -0.05826,0.07335 -0.110609,0.150798 -0.157638,0.22981 l -0.146244,0.246904 0.146244,0.248803 c 0,0 0.08537,0.143867 0.208918,0.377952 0.06177,0.117044 0.133814,0.256698 0.208918,0.412141 0.0751,0.155439 0.153081,0.326678 0.22981,0.507101 0.05085,0.119587 0.09742,0.244985 0.142446,0.370356 0.01506,0.04184 0.0313,0.08327 0.04558,0.125352 0.04492,0.132762 0.08601,0.266713 0.121554,0.396945 0.08064,0.295507 0.13461,0.575323 0.148141,0.799588 l -0.163336,-0.0228 -0.664741,-0.784394 c -0.06381,-0.524958 -0.201779,-1.010248 -0.417838,-1.43584 -0.199702,-0.393389 -0.505191,-0.785037 -0.92114,-1.014206 l 0.03229,-1.8023981 -0.659042,0.2279112 c -0.528924,0.1841379 -0.768363,0.1490649 -1.057842,0.058822 -0.289478,-0.090252 -0.644578,-0.2947243 -1.17944,-0.3931459 z m 1.200332,1.3256851 c 0.111731,0.04402 0.200902,0.07237 0.334269,0.113955 0.258166,0.08049 0.657948,-0.01015 1.012306,-0.03989 l -0.0076,0.442528 c -0.378786,0.0449 -0.693049,0.216663 -0.94773,0.452024 -0.124196,-0.191567 -0.265807,-0.477624 -0.353263,-0.780596 -0.02802,-0.09708 -0.01651,-0.09657 -0.03798,-0.188026 z m 4.594308,0.659043 c 0.09188,-0.0074 0.226322,0.01696 0.427333,0.108257 0.800936,0.584672 1.692437,0.579379 2.567799,0.423536 -0.125184,0.286031 -0.157875,0.345347 -0.33047,0.765401 -0.359651,0.875291 -0.750414,1.884131 -0.894551,2.586792 -0.148123,0.722084 -0.192969,1.520626 -0.326673,2.195543 -0.132884,0.670782 -0.34723,1.163856 -0.700827,1.403553 -0.02208,0.0042 -0.276196,0.1256 -0.552685,0.224113 -0.31599,0.112587 -0.718607,0.243307 -1.12626,0.364657 -0.407656,0.121353 -0.822837,0.233425 -1.156649,0.30768 -0.333814,0.07426 -0.651529,0.08515 -0.586872,0.09497 -0.308421,-0.04682 -0.545691,-0.22434 -0.759704,-0.529894 -0.214012,-0.305553 -0.375923,-0.731159 -0.469116,-1.150951 -0.04257,-0.191721 -0.02747,-0.325243 -0.04368,-0.501405 0.182403,0.124792 0.354774,0.261627 0.565979,0.345666 0.649393,0.258391 1.469484,0.311837 2.13097,-0.157638 0.484187,-0.343645 0.941807,-0.795385 1.312388,-1.263008 0.370581,-0.467622 0.658642,-0.93162 0.761603,-1.409251 0.184905,-0.85777 -0.166107,-1.790783 -0.501404,-2.579194 -0.255937,-0.601807 -0.421261,-0.873129 -0.537491,-1.078779 0.04455,-0.03796 0.0944,-0.119548 0.136747,-0.132949 0.02363,-0.0075 0.05136,-0.0145 0.08357,-0.0171 z m -3.063505,0.774897 c 0.676284,-0.0014 1.224935,1.077989 1.225022,2.410161 -8.7e-5,1.332172 -0.548739,2.411612 -1.225022,2.41016 -0.675542,-6.13e-4 -1.223036,-1.079448 -1.223123,-2.41016 8.7e-5,-1.330711 0.547581,-2.409547 1.223123,-2.410161 z m 2.138566,8.305463 c -0.108126,0.45136 -0.184716,0.862008 -0.402643,1.228821 -0.136453,0.230124 -0.361435,0.435086 -0.645749,0.539389 -0.284428,0.104006 -0.609255,0.124253 -1.010405,0.09306 l -0.526096,-0.03988 0.15574,-0.503304 c 0.159093,-0.517296 0.369304,-0.632549 0.602065,-0.955327 0.07059,0.0071 0.137298,0.0086 0.203222,0.0058 0.0031,-1.33e-4 0.0064,1.51e-4 0.0095,0 0.0037,-1.97e-4 0.0076,-0.0016 0.01139,-0.0019 0.06099,-0.0036 0.123088,-0.009 0.184229,-0.01899 0.0036,-5.99e-4 0.0077,-0.0012 0.01139,-0.0019 0.02097,-0.0034 0.04708,-0.01118 0.06837,-0.0152 0.118194,-0.02276 0.240473,-0.04982 0.383651,-0.08166 0.282115,-0.06276 0.601741,-0.149198 0.92494,-0.241206 0.01013,-0.0029 0.02029,-0.0047 0.03038,-0.0076 z m -5.921891,7.659714 0.541288,0.571676 c -0.456183,0.431647 -0.817931,0.704702 -0.951528,0.867962 -0.06655,0.08177 -0.07358,0.111016 -0.07597,0.144344 -0.0022,0.0334 0.0068,0.106258 0.08357,0.248803 l -0.695129,0.370356 c -0.118859,-0.221083 -0.189242,-0.443785 -0.172833,-0.674238 0.01664,-0.230546 0.123992,-0.431757 0.252602,-0.58877 0.256853,-0.313961 0.600445,-0.545104 1.018004,-0.940133 z m 8.704306,6.702486 c -0.190437,0.196857 -0.379409,0.37979 -0.562181,0.53749 -1.973198,1.504808 -2.39794,3.000557 -2.676057,5.363509 l -0.02088,0.186128 0.165235,0.09116 c 4.732448,2.626459 8.299619,3.342536 11.237919,3.014125 2.938278,-0.328746 5.221316,-1.694379 7.393817,-3.147072 l 0.151941,-0.102561 -0.03229,-0.180429 c -0.188638,-1.07906 -0.33955,-1.861636 -0.746408,-3.352194 l -0.0019,-0.0037 v -0.0037 c -0.180568,-0.606756 -0.328247,-1.168315 -0.46152,-1.722629 -0.680373,0.495389 -1.417185,0.885314 -2.189847,1.17944 0.193177,0.930917 0.445151,1.801118 0.793891,2.575396 l -1.12816,0.509002 C 36.118056,39.049466 35.841859,38.13584 35.629661,37.181874 34.361172,37.4963 33.030722,37.586148 31.719086,37.483856 29.125928,37.28162 26.574783,36.364267 24.574072,34.948344 Z"
     sodipodi:nodetypes="ccscsccssccccccccccccccccccccccccccccccccccsccccccccccccccccccccccccccccccssscsscccsssscsccssccscccsssccscccscccscccscccscsccssscssscsscssssscssccccccccccccsccsccsscccccccccccccccccccccccccccsc" />
</svg>
