<?xml version="1.0" encoding="UTF-8" standalone="no"?>
<svg
   width="52.157"
   height="52.157"
   version="1.1"
   id="svg1884"
   sodipodi:docname="1_NY.svg"
   inkscape:version="1.3 (0e150ed6c4, 2023-07-21)"
   xmlns:inkscape="http://www.inkscape.org/namespaces/inkscape"
   xmlns:sodipodi="http://sodipodi.sourceforge.net/DTD/sodipodi-0.dtd"
   xmlns="http://www.w3.org/2000/svg"
   xmlns:svg="http://www.w3.org/2000/svg"
   xmlns:rdf="http://www.w3.org/1999/02/22-rdf-syntax-ns#"
   xmlns:cc="http://creativecommons.org/ns#"
   xmlns:dc="http://purl.org/dc/elements/1.1/">
  <metadata
     id="metadata1890">
    <rdf:RDF>
      <cc:Work
         rdf:about="">
        <dc:format>image/svg+xml</dc:format>
        <dc:type
           rdf:resource="http://purl.org/dc/dcmitype/StillImage" />
      </cc:Work>
    </rdf:RDF>
  </metadata>
  <defs
     id="defs1888" />
  <sodipodi:namedview
     pagecolor="#ffffff"
     bordercolor="#666666"
     borderopacity="1"
     objecttolerance="10"
     gridtolerance="10"
     guidetolerance="10"
     inkscape:pageopacity="0"
     inkscape:pageshadow="2"
     inkscape:window-width="3840"
     inkscape:window-height="2054"
     id="namedview1886"
     showgrid="false"
     inkscape:zoom="19.326265"
     inkscape:cx="9.805309"
     inkscape:cy="40.411326"
     inkscape:window-x="3829"
     inkscape:window-y="-11"
     inkscape:window-maximized="1"
     inkscape:current-layer="svg1884"
     inkscape:showpageshadow="2"
     inkscape:pagecheckerboard="0"
     inkscape:deskcolor="#d1d1d1" />
  <path
     d="M 26.08,46.901435 14.845,43.172435 8.963,5.2324346 H 43.192 L 37.31,43.172435 Z"
     fill="#fee572"
     stroke="#000"
     stroke-width="0.87822"
     opacity="0.99"
     id="path1830"
     style="fill:#38362e;fill-opacity:0.972549;stroke:#38362e;stroke-opacity:0.972549" />
  <path
     id="path14"
     style="color:#000000;fill:#ea5858;fill-opacity:0.992157;stroke-width:0.141893;-inkscape-stroke:none"
     d="M 26.078502,37.279327 25.971338,37.149604 25.13847,36.141889 25.021906,32.218193 25.4468,32.020785 V 31.28944 a 7.7409618,7.7409618 0 0 1 -4.010179,-1.517213 l -0.806548,0.806549 0.150405,0.456855 -2.861458,2.699774 -1.483372,0.107163 0.163565,-1.47021 2.692253,-2.87462 0.460616,0.167326 0.738865,-0.738865 a 7.7409618,7.7409618 0 0 1 -2.107552,-4.687002 h -0.819708 l -0.218089,0.434294 -3.934975,-0.114683 -1.124279,-0.973874 1.15624,-0.923112 3.936856,-0.127845 0.203048,0.436176 h 0.800907 A 7.7409618,7.7409618 0 0 1 25.4468,15.916148 v -0.577179 l -0.424894,-0.195527 0.116564,-3.923696 0.940032,-1.13932 0.940032,1.13932 0.114684,3.923696 -0.419255,0.189886 v 0.58094 a 7.7409618,7.7409618 0 0 1 7.078445,7.055885 h 0.366613 0.415495 l 0.203046,-0.436176 3.936856,0.127845 1.15624,0.923112 -1.124279,0.973874 -3.934975,0.114683 -0.218088,-0.434294 h -0.434295 -0.366613 a 7.7409618,7.7409618 0 0 1 -2.088752,4.670081 l 0.755786,0.755786 0.454975,-0.150405 2.699775,2.863339 0.107162,1.481491 -1.47021,-0.163566 -2.87274,-2.692253 0.167327,-0.458735 -0.785868,-0.785868 a 7.7409618,7.7409618 0 0 1 -4.0459,1.532253 v 0.735106 l 0.419255,0.189887 -0.114684,3.925576 z M 25.4468,29.597382 v -1.951507 c -0.495856,-0.07977 -0.963832,-0.252716 -1.383728,-0.498218 l -1.41005,1.408168 a 6.0526349,6.0526349 0 0 0 2.793778,1.041557 z m 1.267163,0 a 6.0526349,6.0526349 0 0 0 2.827618,-1.058478 l -1.411929,-1.411927 c -0.427872,0.256017 -0.907331,0.434702 -1.415689,0.517018 z m -5.019773,-1.874425 1.381848,-1.381848 c -0.516521,-0.578213 -0.870905,-1.304256 -0.987035,-2.101912 h -2.01167 a 6.0526349,6.0526349 0 0 0 1.616857,3.48376 z m 8.802465,-0.02068 a 6.0526349,6.0526349 0 0 0 1.599935,-3.463079 h -2.028591 c -0.114259,0.784814 -0.459557,1.50016 -0.962593,2.073714 z m -4.418153,-1.449536 a 2.586319,2.586319 0 0 0 2.586969,-2.586969 2.586319,2.586319 0 0 0 -2.586969,-2.586969 2.586319,2.586319 0 0 0 -2.58697,2.586969 2.586319,2.586319 0 0 0 2.58697,2.586969 z m -6.003049,-3.282592 h 2.034231 c 0.08628,-0.48538 0.262158,-0.943048 0.507617,-1.353647 l -1.46833,-1.468331 a 6.0526349,6.0526349 0 0 0 -1.073518,2.821978 z m 9.971866,0 h 2.03423 a 6.0526349,6.0526349 0 0 0 -1.052837,-2.790017 l -1.468329,1.46833 c 0.235318,0.402113 0.402933,0.849131 0.486936,1.321687 z m -1.293485,-2.30684 1.455171,-1.455171 a 6.0526349,6.0526349 0 0 0 -3.495042,-1.598055 v 2.077472 c 0.773042,0.125175 1.476802,0.47276 2.039871,0.975754 z m -5.322464,-0.02444 c 0.559264,-0.4905 1.253603,-0.830632 2.01543,-0.953192 v -2.075592 a 6.0526349,6.0526349 0 0 0 -3.472481,1.571738 z" />
</svg>
