<?xml version="1.0" encoding="UTF-8" standalone="no"?>
<svg
   width="52.157"
   height="52.157"
   version="1.1"
   id="svg5847"
   sodipodi:docname="1_RY_1.svg"
   inkscape:version="1.3 (0e150ed6c4, 2023-07-21)"
   xmlns:inkscape="http://www.inkscape.org/namespaces/inkscape"
   xmlns:sodipodi="http://sodipodi.sourceforge.net/DTD/sodipodi-0.dtd"
   xmlns="http://www.w3.org/2000/svg"
   xmlns:svg="http://www.w3.org/2000/svg"
   xmlns:rdf="http://www.w3.org/1999/02/22-rdf-syntax-ns#"
   xmlns:cc="http://creativecommons.org/ns#"
   xmlns:dc="http://purl.org/dc/elements/1.1/">
  <metadata
     id="metadata5853">
    <rdf:RDF>
      <cc:Work
         rdf:about="">
        <dc:format>image/svg+xml</dc:format>
        <dc:type
           rdf:resource="http://purl.org/dc/dcmitype/StillImage" />
      </cc:Work>
    </rdf:RDF>
  </metadata>
  <defs
     id="defs5851" />
  <sodipodi:namedview
     pagecolor="#ffffff"
     bordercolor="#666666"
     borderopacity="1"
     objecttolerance="10"
     gridtolerance="10"
     guidetolerance="10"
     inkscape:pageopacity="0"
     inkscape:pageshadow="2"
     inkscape:window-width="3840"
     inkscape:window-height="2054"
     id="namedview5849"
     showgrid="false"
     inkscape:zoom="9.6631325"
     inkscape:cx="-7.7097153"
     inkscape:cy="39.531694"
     inkscape:window-x="-11"
     inkscape:window-y="-11"
     inkscape:window-maximized="1"
     inkscape:current-layer="g5845"
     inkscape:showpageshadow="2"
     inkscape:pagecheckerboard="0"
     inkscape:deskcolor="#d1d1d1" />
  <g
     opacity="0.99"
     id="g5845"
     transform="rotate(-180,26.078757,26.077878)">
    <g
       stroke-width="1.044"
       id="g5799"
       style="fill:#e2d9ba;fill-opacity:1;stroke:#393831;stroke-opacity:0.992157"
       transform="matrix(1,0,0,-1,5.4e-7,52.155756)">
      <path
         d="m -11.54,7.386 -13.14,4.634 -6.169,42.276 H 7.767 L 1.598,12.02 Z"
         fill="#fee572"
         fill-opacity=".992"
         stroke="#000000"
         transform="matrix(-1.04053,0,0,-0.96762,14.07,55.905)"
         id="path5797"
         style="fill:#e2d9ba;fill-opacity:1;stroke:#393831;stroke-opacity:0.992157" />
    </g>
    <path
       id="path2"
       style="fill:#ca100e;fill-opacity:0.992157;stroke-width:0.947582"
       d="m 31.07009,6.9302783 c -0.07929,0.754427 -1.742866,5.0807477 0.359589,4.5685447 0.02507,-0.0063 0.04544,-0.0072 0.06972,-0.01307 0.65993,-0.485518 0.903164,-1.6500657 0.93383,-1.7699147 0.0414,-0.162452 0.25793,-0.351182 0.539384,-0.522759 0.841464,-0.510512 2.407146,-0.609063 1.331946,0.489153 -0.876645,1.1589937 -1.668187,1.9796967 -2.027274,2.9274527 l -0.0073,-0.0037 c -0.156245,0.831997 -0.566781,2.052191 -0.77972,2.839705 l -0.313724,1.375978 c -0.111806,0.393313 -0.324662,1.06113 -0.623776,1.646692 -0.151941,0.297799 -0.326543,0.573624 -0.497187,0.767336 -0.169832,0.189742 -0.315822,0.287598 -0.456824,0.326725 -0.08476,-0.100448 -0.145808,-0.218962 -0.17796,-0.347262 -0.09384,-0.316816 -0.141111,-0.802362 -0.159614,-1.288228 -0.01849,-0.485871 -0.0094,-0.976203 -0.0019,-1.327436 0.0029,-0.173369 0.0054,-0.311821 0.0037,-0.408873 0.763844,-1.046416 1.052136,-1.953176 1.427348,-3.151492 -0.03816,-0.161499 -0.385116,-0.150552 -0.610934,-0.224041 -3.235407,-1.054604 -0.564738,-4.8019207 0.590753,-5.6794077 l -0.0019,-0.0037 c 0.06788,-0.0521 0.140951,-0.09658 0.216488,-0.136291 0.05766,-0.03229 0.120268,-0.0551 0.185297,-0.06535 z m -9.984094,0 c 0.06503,0.01025 0.127642,0.03306 0.185298,0.06535 0.07554,0.03971 0.148611,0.0842 0.216487,0.136291 l -0.0019,0.0037 c 1.155491,0.877486 3.82616,4.6248037 0.590753,5.6794077 -0.178488,0.05809 -0.454868,0.431956 -0.563233,0.3734 0.352431,1.122129 0.649332,2.001649 1.379647,3.002133 -0.0018,0.09705 7.57e-4,0.235503 0.0037,0.408873 0.0075,0.351233 0.01666,0.841564 -0.0019,1.327436 -0.0185,0.485866 -0.06577,0.971412 -0.159614,1.288228 -0.03215,0.128299 -0.0932,0.246813 -0.177959,0.347261 -0.141003,-0.03913 -0.286992,-0.136982 -0.456825,-0.326724 -0.170644,-0.193712 -0.345246,-0.469537 -0.497187,-0.767336 -0.299114,-0.585563 -0.51197,-1.253379 -0.623776,-1.646692 l -0.313723,-1.375978 c -0.21294,-0.787514 -0.623476,-2.007708 -0.779721,-2.839705 l -0.0073,0.0037 c -0.359086,-0.947757 -1.150629,-1.76846 -2.027273,-2.9274527 -1.075199,-1.098216 0.490481,-0.999665 1.331945,-0.489154 0.281454,0.171578 0.497987,0.360308 0.539384,0.52276 0.03067,0.119849 0.2739,1.2843967 0.93383,1.7699137 0.02428,0.0059 0.04465,0.0068 0.06972,0.01307 2.102455,0.512203 0.438878,-3.8141187 0.359589,-4.5685447 z m 4.992047,9.5160907 2.236422,0.548897 c -0.0039,0.295014 -0.006,0.619192 0.0073,0.968972 0.01964,0.515715 0.0569,1.017993 0.196306,1.501067 0.06893,0.264697 0.191661,0.511078 0.366927,0.718794 l 0.387109,0.459282 0.574241,-0.158696 c 0.367498,-0.101978 0.661436,-0.337289 0.902641,-0.606774 l 0.0037,-0.0019 0.0019,-0.0037 c 0.251415,-0.285406 0.453417,-0.611494 0.63295,-0.963372 0.183616,-0.359456 0.329665,-0.722535 0.445816,-1.051119 l 0.155945,0.03921 v 0.0019 c 0.464028,1.251274 0.295611,3.561446 0.08989,5.188387 l -0.03669,0.300587 0.275196,0.113887 c 0.356007,0.148165 0.814138,0.33131 1.185175,0.533962 0.370096,0.200739 0.601498,0.454561 0.61277,0.496621 l 0.456824,1.695234 c 0.05354,0.202651 0.03807,0.3104 0.01835,0.369666 -0.02161,0.05927 -0.05422,0.0941 -0.128424,0.141892 -0.119296,0.07838 -0.340526,0.134812 -0.566903,0.197902 -0.369158,-0.0038 -0.783334,-0.02334 -1.216364,0.0168 -0.530724,0.05066 -1.098481,0.21024 -1.509907,0.679588 l -0.04036,0.04854 -0.02568,0.05974 c -0.160624,0.38427 -0.260108,0.799048 -0.35592,1.198613 h 0.625612 c 0.294948,-0.0086 3.475086,-0.07187 5.38099,2.477506 0.71953,0.963548 1.408813,1.67543 2.19973,2.042496 0.344736,0.160592 0.498684,0.303425 0.78706,0.341661 0.178473,0.0239 0.494647,-0.09256 0.75954,-0.166163 l -0.247677,0.655316 c -0.861366,0.300154 -1.559429,0.153199 -2.225415,-0.289384 -0.693225,-0.458834 -1.334781,-1.2278 -1.957557,-2.053698 -0.811582,-1.085903 -2.119112,-1.588684 -3.210615,-1.833392 -0.92712,-0.208387 -1.475489,-0.193212 -1.691536,-0.194168 l -0.695328,-0.02801 c -0.04509,0.108335 -0.093,0.201075 -0.1431,0.278182 -0.06614,0.111999 -0.167542,0.199437 -0.288039,0.244577 -1.294915,-0.293856 -2.608094,-0.50061 -3.929793,-0.617976 l -0.03119,-0.0037 -0.03303,0.0037 c -1.023872,0.08603 -2.502991,0.292014 -3.927959,0.617976 -0.120496,-0.04514 -0.221897,-0.132578 -0.288037,-0.244577 -0.05496,-0.08828 -0.103034,-0.180096 -0.143102,-0.276315 l -0.693492,0.02613 c -0.216047,0 -0.768086,-0.01421 -1.695206,0.194168 -1.091503,0.244708 -2.399029,0.747489 -3.210613,1.833392 -0.622776,0.825898 -1.263437,1.59582 -1.955723,2.053698 -0.666925,0.441627 -1.365883,0.589538 -2.22725,0.289384 l -0.247675,-0.655316 c 0.264889,0.0736 0.581066,0.190061 0.759539,0.166164 0.287436,-0.03824 0.442324,-0.182025 0.78706,-0.341661 0.790916,-0.367067 1.480202,-1.078949 2.19973,-2.042496 1.905902,-2.549385 5.08604,-2.485154 5.380988,-2.477507 h 0.627446 c -0.09487,-0.399565 -0.194354,-0.813387 -0.355919,-1.198613 l -0.02568,-0.05974 -0.04219,-0.04854 c -0.413305,-0.474128 -0.998703,-0.647103 -1.557607,-0.718796 -0.516631,-0.06691 -1.024153,-0.05214 -1.436521,-0.05788 -0.10382,-0.02606 -0.204468,-0.06498 -0.299045,-0.115755 -0.07515,-0.0478 -0.105925,-0.08545 -0.126591,-0.143759 -0.02067,-0.06022 -0.0343,-0.167014 0.02018,-0.369666 l 0.453155,-1.695234 c 0.01033,-0.0411 0.244508,-0.295839 0.614603,-0.498488 0.370098,-0.200739 0.829171,-0.383019 1.185176,-0.530228 l 0.275196,-0.115754 -0.03669,-0.300586 c -0.204772,-1.626942 -0.373237,-3.938983 0.09174,-5.190255 l 0.152241,-0.03734 c 0.116023,0.327978 0.260807,0.690658 0.443982,1.049252 0.179533,0.351878 0.381534,0.677966 0.63295,0.963372 l 0.0019,0.0037 0.0037,0.0019 c 0.241206,0.269485 0.535142,0.504796 0.902641,0.606775 l 0.574241,0.158695 0.387109,-0.459282 c 0.175266,-0.207716 0.297999,-0.454096 0.366928,-0.718794 0.139401,-0.483074 0.176664,-0.985352 0.196305,-1.501067 0.01333,-0.349384 0.01124,-0.673801 0.0073,-0.968972 z m 9.514428,1.33677 c 0.670684,1.508412 0.953418,2.327361 -0.939334,4.551742 1.249311,-0.303977 2.604642,-2.858211 3.175757,-3.383001 0.977844,2.519754 -0.24705,3.625564 -1.761252,4.42852 1.476628,0.321183 2.357676,-0.400031 3.838061,-0.856953 -0.824733,1.534222 -1.843112,3.879067 -4.338917,2.787429 0.927122,1.296201 2.541636,1.89414 3.922454,2.727684 -1.419331,0.273386 -2.898791,0.990253 -4.109587,-0.276316 0.628412,1.168111 1.65241,2.166468 2.656555,3.170164 -0.410559,-0.05519 -0.818603,-0.127208 -1.223704,-0.214706 -0.642502,-0.72266 -1.386239,-1.203708 -2.122674,-1.544007 -0.0075,-0.399567 -0.114907,-0.814791 -0.221991,-1.179943 -0.06388,-0.217946 -0.08047,-0.251552 -0.13026,-0.39207 0.182231,-0.0478 0.331747,-0.05939 0.541218,-0.194167 0.200979,-0.126464 0.356859,-0.318326 0.440313,-0.543297 0.08736,-0.245667 0.08449,-0.53135 0.0019,-0.842016 l -0.456824,-1.697101 c -0.135264,-0.50567 -0.564161,-0.750623 -0.994374,-0.985775 -0.340979,-0.185446 -0.684349,-0.319033 -0.996208,-0.44808 0.05011,-0.384745 0.09333,-0.771252 0.130259,-1.157538 z m -19.02702,0 2.594176,3.954302 c 0.03583,0.385333 0.07726,0.770021 0.12659,1.153805 -0.311857,0.129047 -0.652502,0.262634 -0.992538,0.44808 -0.432094,0.235152 -0.862782,0.480105 -0.998043,0.985775 l -0.453154,1.697101 c -0.08454,0.310666 -0.0883,0.596349 0,0.842016 0.08736,0.246623 0.261882,0.428589 0.438477,0.543297 0.209469,0.13478 0.360822,0.147331 0.543053,0.194167 -0.04978,0.140518 -0.07006,0.174124 -0.13393,0.39207 -0.107081,0.365152 -0.210806,0.780376 -0.218321,1.179943 -0.737376,0.340299 -1.483841,0.821347 -2.126343,1.544007 -0.400157,0.0873 -0.808474,0.159263 -1.225538,0.214706 1.005085,-1.003696 2.029977,-2.002053 2.658389,-3.170164 -1.210796,1.266569 -2.692091,0.549702 -4.111422,0.276316 1.380819,-0.833544 2.998109,-1.431483 3.924289,-2.727684 -2.495805,1.091638 -3.513244,-1.252252 -4.338916,-2.787429 1.482263,0.456922 2.359598,1.17718 3.836225,0.856953 -1.514201,-0.802956 -2.738199,-1.908766 -1.759416,-4.42852 0.570173,0.523835 1.928324,3.078068 3.175755,3.383001 -1.891812,-2.225337 -1.609075,-3.04333 -0.939333,-4.551742 z m 5.472722,3.655583 c -0.05057,0.0012 -0.102399,0.0073 -0.152276,0.0168 -0.331582,0.05736 -0.640303,0.271163 -0.913649,0.729997 -0.724224,1.507453 0.424568,2.235874 1.605308,2.66794 1.258702,0.207431 1.970505,-0.152962 2.474925,-0.99511 -1.969778,-1.442455 -2.226063,-2.319439 -2.863868,-2.412162 -0.05028,-0.0071 -0.09986,-0.0088 -0.15044,-0.0075 z m 7.931135,0.0075 c -0.637805,0.09272 -0.89409,0.969707 -2.863868,2.412162 0.504419,0.843103 1.218055,1.20254 2.47676,0.995109 1.180737,-0.432065 2.329531,-1.15953 1.605307,-2.66794 -0.272407,-0.458833 -0.582064,-0.672642 -0.913649,-0.729996 -0.111781,-0.01912 -0.300793,0.08239 -0.30455,-0.0075 z m -1.999754,5.944522 c -0.619958,0.138606 -0.892605,1.044549 -1.320939,1.603752 l 0.787059,-0.593694 0.977862,-0.106419 c -0.06481,-0.430156 0.345056,-0.773625 -0.443982,-0.903628 z m -3.779353,0 c -0.789038,0.130003 -0.380063,0.472515 -0.445816,0.903627 l 0.977862,0.108286 0.787058,0.591839 C 25.080032,28.435293 24.810162,27.52935 24.190201,27.390744 Z m -5.568123,0.265114 c 0.237894,5.84e-4 0.475409,0.01428 0.711839,0.04107 0.449941,0.05735 0.803659,0.197815 1.034736,0.440611 0.03288,0.08507 0.05805,0.193705 0.08623,0.293119 -0.732613,0.04258 -1.456639,0.181645 -2.153865,0.414474 0.02999,-0.211784 0.07451,-0.421519 0.132094,-0.627311 0.09206,-0.313537 0.152334,-0.465421 0.188968,-0.561967 z m 14.533994,0.06348 c 0.134844,-0.0027 0.26878,-9.49e-4 0.403621,0.0037 0.04415,0.118532 0.08433,0.219455 0.165117,0.494755 0.06387,0.216034 0.08919,0.420926 0.119252,0.623577 -0.693474,-0.230475 -1.412694,-0.368337 -2.141022,-0.41074 0.02818,-0.09846 0.05429,-0.207132 0.08623,-0.291252 0.231076,-0.243752 0.544286,-0.361256 0.96135,-0.401404 0.134551,-0.01009 0.270611,-0.01596 0.405454,-0.01867 z M 21.078657,30.39097 c 0.0357,0.07265 0.0641,0.148703 0.108244,0.216572 0.16908,0.259047 0.413454,0.4886 0.737524,0.591838 -0.0357,3.771982 0.02318,3.384461 0.952177,6.9471 l 0.03853,0.147493 0.12659,0.08215 c 0.836005,0.546773 1.927282,0.815878 3.023482,0.815877 1.0962,0 2.200995,-0.271312 3.047333,-0.88309 l 0.113746,-0.08215 0.03486,-0.138157 c 0.927115,-3.57984 1.037563,-3.185236 0.955841,-6.883614 l 0.01101,-0.0019 c 0.309923,-0.104549 0.574434,-0.316347 0.748532,-0.597439 0.04321,-0.06691 0.06888,-0.142102 0.104574,-0.212839 0.562934,0.01098 1.124425,0.0809 1.673189,0.209104 0.213181,0.05019 0.423049,0.11031 0.631115,0.179232 -0.106145,0.185445 -0.208884,0.37228 -0.337573,0.539563 0.0066,-0.0096 -0.273992,0.189747 -0.521037,0.29872 -0.247042,0.10897 -0.469667,0.182966 -0.469667,0.182966 l -0.223826,0.07655 -0.03669,0.238976 c -0.520391,3.485211 -1.221798,4.765125 -2.085982,7.370908 -0.104243,0.159348 -0.226618,0.305449 -0.365093,0.435012 l -0.539384,7.350372 -0.763209,-5.522582 -1.021893,4.902738 -0.944838,-4.80192 -0.939334,4.792585 -1.029231,-4.975551 -0.763209,5.640202 -0.53388,-7.389579 C 22.674357,39.788192 22.548704,39.64751 22.449135,39.48883 21.58495,36.884003 20.885376,35.605 20.364987,32.119789 l -0.03853,-0.238976 -0.223826,-0.07655 c 0,0 -0.224459,-0.07586 -0.471501,-0.184833 -0.247045,-0.108973 -0.524882,-0.307323 -0.517367,-0.29872 -0.128689,-0.168239 -0.233264,-0.355985 -0.339409,-0.54143 0.207786,-0.06825 0.418283,-0.127777 0.631115,-0.177365 0.549037,-0.128593 1.109908,-0.199742 1.673189,-0.21097 z m 5.003055,0.196035 c 0.867942,0.07456 2.065144,0.231331 3.267489,0.477951 l -0.550392,2.996532 -0.761373,-1.501067 -1.023728,1.150072 -0.944839,-1.092194 -0.939334,1.086593 -1.029231,-1.191145 -0.763209,1.568278 -0.543052,-3.011467 c 1.086288,-0.222775 2.183858,-0.384118 3.287669,-0.483553 z m -0.01284,5.044629 0.939334,0.92043 0.8898,-0.871889 0.39995,2.160117 c -0.631229,0.352729 -1.416474,0.563834 -2.232753,0.563834 -0.810642,0 -1.593289,-0.205311 -2.223579,-0.526494 l 0.405454,-2.189988 0.88246,0.86442 z" />
  </g>
</svg>
