<?xml version="1.0" encoding="UTF-8" standalone="no"?>
<svg
   width="52.157"
   height="52.157"
   version="1.1"
   id="svg5847"
   sodipodi:docname="1_TA.svg"
   inkscape:version="1.3 (0e150ed6c4, 2023-07-21)"
   xmlns:inkscape="http://www.inkscape.org/namespaces/inkscape"
   xmlns:sodipodi="http://sodipodi.sourceforge.net/DTD/sodipodi-0.dtd"
   xmlns="http://www.w3.org/2000/svg"
   xmlns:svg="http://www.w3.org/2000/svg"
   xmlns:rdf="http://www.w3.org/1999/02/22-rdf-syntax-ns#"
   xmlns:cc="http://creativecommons.org/ns#"
   xmlns:dc="http://purl.org/dc/elements/1.1/">
  <metadata
     id="metadata5853">
    <rdf:RDF>
      <cc:Work
         rdf:about="">
        <dc:format>image/svg+xml</dc:format>
        <dc:type
           rdf:resource="http://purl.org/dc/dcmitype/StillImage" />
      </cc:Work>
    </rdf:RDF>
  </metadata>
  <defs
     id="defs5851" />
  <sodipodi:namedview
     pagecolor="#ffffff"
     bordercolor="#666666"
     borderopacity="1"
     objecttolerance="10"
     gridtolerance="10"
     guidetolerance="10"
     inkscape:pageopacity="0"
     inkscape:pageshadow="2"
     inkscape:window-width="1875"
     inkscape:window-height="1725"
     id="namedview5849"
     showgrid="false"
     inkscape:zoom="9.6631325"
     inkscape:cx="8.8998055"
     inkscape:cy="-6.3643958"
     inkscape:window-x="1327"
     inkscape:window-y="300"
     inkscape:window-maximized="0"
     inkscape:current-layer="svg5847"
     inkscape:showpageshadow="2"
     inkscape:pagecheckerboard="0"
     inkscape:deskcolor="#d1d1d1" />
  <g
     opacity="0.99"
     id="g5845">
    <g
       stroke-width="1.044"
       id="g5799"
       style="fill:#39372e;fill-opacity:0.941176;stroke:#393831;stroke-opacity:0.992157">
      <path
         d="m -11.54,7.386 -13.14,4.634 -6.169,42.276 H 7.767 L 1.598,12.02 Z"
         fill="#fee572"
         fill-opacity=".992"
         stroke="#000000"
         transform="matrix(-1.04053,0,0,-0.96762,14.07,55.905)"
         id="path5797"
         style="fill:#39372d;fill-opacity:0.94902;stroke:#393831;stroke-opacity:0.992157" />
    </g>
  </g>
  <g
     stroke-width="1.044"
     id="g5799-0"
     style="fill:#e2d9ba;fill-opacity:1;stroke:#393831;stroke-opacity:0.992157"
     transform="rotate(180,47.695487,16.753505)" />
  <path
     id="path26076-6"
     style="color:#000000;font-style:normal;font-variant:normal;font-weight:normal;font-stretch:normal;font-size:29.072px;line-height:1.25;font-family:MingLiU_HKSCS-ExtB;-inkscape-font-specification:MingLiU_HKSCS-ExtB;font-variant-ligatures:normal;font-variant-position:normal;font-variant-caps:normal;font-variant-numeric:normal;font-variant-alternates:normal;font-variant-east-asian:normal;font-feature-settings:normal;font-variation-settings:normal;text-indent:0;text-align:start;text-decoration:none;text-decoration-line:none;text-decoration-style:solid;text-decoration-color:#000000;letter-spacing:0px;word-spacing:0px;text-transform:none;writing-mode:lr-tb;direction:ltr;text-orientation:mixed;dominant-baseline:auto;baseline-shift:baseline;text-anchor:start;white-space:normal;shape-padding:0;shape-margin:0;inline-size:0;clip-rule:nonzero;display:inline;overflow:visible;visibility:visible;opacity:0.99;isolation:auto;mix-blend-mode:normal;color-interpolation:sRGB;color-interpolation-filters:linearRGB;solid-color:#000000;solid-opacity:1;vector-effect:none;fill:#e95757;fill-opacity:1;fill-rule:nonzero;stroke:none;stroke-width:0.536815;stroke-linecap:butt;stroke-linejoin:round;stroke-miterlimit:4;stroke-dasharray:none;stroke-dashoffset:0;stroke-opacity:1;color-rendering:auto;image-rendering:auto;shape-rendering:auto;text-rendering:auto;enable-background:accumulate;stop-color:#000000"
     d="m 33.296398,38.328507 c 0.422562,-0.013 0.707791,-0.44369 0.559894,-0.823995 L 32.799889,34.25924 c -0.09651,-0.242973 -0.348613,-0.390869 -0.612714,-0.380305 h -8.56004 l 4.192867,-3.222032 v -4.628105 h 9.593201 c 0.274666,0.0039 0.528203,-0.190152 0.612715,-0.454253 l 1.05746,-2.792075 c 0.147896,-0.411998 -0.169024,-0.845123 -0.612715,-0.823995 H 27.821168 v -8.9826 l 3.308657,0.0393 c 0.253537,-0.0262 0.591586,0.01869 0.908496,-0.01754 l -1.0659,-1.413468 c -1.065912,-1.368043 -1.713488,-2.0874543 -3.238935,-3.0477253 -1.290925,0.0263 -2.566004,0.538765 -4.397808,1.5159393 l 0.03401,2.924125 v 8.981543 h -9.688279 c -0.443689,-0.01649 -0.76061,0.411998 -0.60215,0.823995 l 1.056404,3.05512 c 0.07582,0.274664 1.86244,0.190152 2.143443,0.190152 h 7.090582 v 4.622823 l -4.022785,3.227312 c -1.949065,1.503263 -2.801583,1.820185 -2.965326,3.623465 -0.147896,0.411998 0.169025,0.845123 0.60215,0.823995 l 16.260793,-9.23e-4 c 0.011,8.45e-4 0.03401,10e-4 0.04457,9.23e-4 z"
     sodipodi:nodetypes="cccccccccccccccccccccccccccccccc" />
</svg>
