<svg height="45" width="45" xmlns="http://www.w3.org/2000/svg"><g style="fill:none;fill-rule:evenodd;stroke:#000;stroke-width:1.5;stroke-linecap:round;stroke-linejoin:round" transform="translate(0 5.125)"><path d="m13 32c2.5 2.5 16.5 2.5 19 0 .5-1.5-2-2-2-2 0-2.5-2.5-4-2.5-4 2.368277-.645894 9.075816-13.313705 7.5-16.125-1.102088-1.9661521-10.497582-3.5785088-12.5-10-2.096942 6.3096624-11.481316 8.1514004-12.5 10-1.265024 2.29563 5.144778 15.482667 7.5 16.125 0 0-2.5 1.5-2.5 4 0 0-2.5.5-2 2z" fill="#000" stroke-linecap="butt"/><g stroke="#ededed"><g stroke-width="2" transform="translate(0 -1.375)"><path d="m20 16.25h5"/><path d="m22.5 11.25v9.25"/></g><path d="m15 30h15"/><path d="m17.5 26h10"/></g></g></svg>