<svg height="45" width="45" xmlns="http://www.w3.org/2000/svg"><g style="fill:none;fill-rule:evenodd;stroke:#000;stroke-width:1.5;stroke-linecap:round;stroke-linejoin:round" transform="matrix(.75 0 0 .75 5.676659 9.9375)"><path d="m22 10c10.5 1 16.5 8 16 29h-23c0-9 10-6.5 8-21" fill="#000"/><path d="m24 18c.38 2.91-5.55 7.37-8 9-3 2-2.82 4.34-5 4-1.042-.94 1.41-3.04 0-3-1 0 .19 1.23-1 2-1 0-4.003 1-4-4 0-2 6-12 6-12s1.89-1.9 2-3.5c-.73-.994-.5-2-.5-3 1-1 3 2.5 3 2.5h2s.78-1.992 2.5-3c1 0 1 3 1 3" fill="#000"/><path d="m9.5 25.5a.5.5 0 1 1 -1 0 .5.5 0 1 1 1 0zm5.433-9.75a.5 1.5 30 1 1 -.866-.5.5 1.5 30 1 1 .866.5z" fill="#ececec" stroke="#ececec"/></g><path d="m23.731213 17.570471-.337496 1.087501.374999.112501c2.3625.75 4.237501 1.8675 5.925 5.0625 1.687501 3.195 2.437501 7.7325 2.062501 15.1875l-.0375.374999h1.687499l.0375-.375002c.375006-7.544999-.659994-12.637499-2.437495-16.004999-1.777499-3.3675-4.342499-4.979999-6.892499-5.37z" fill="#ececec"/><g transform="matrix(.75 0 0 .75 13.11075 23.35875)"><path d="m13.087878-18.196674s4.5-1.557497 3-4.557497c0 0-1-2.5-3-2.5s-3 2.5-3 2.5c-1.4999998 3 3 4.557497 3 4.557497"/><path d="m2.0878782-3.895c5.8630816-3.5800921 15.8094588-2.5344456 20.9999998 0v-3.4996738s9-4.5000002 6-10.5000002c-4-6.5-13.5-4.257-16.5-4.257-2.9999998 0-12.49999984-2.243-15.4999998 4.257-3 6 5 10.0000002 5 10.0000002z" stroke="#000" stroke-width="2"/><g stroke="#ececec" stroke-width="1.333333"><path d="m22.587878-7.8946738s8.5-4.0000002 6.03-9.6500002c-3.88-5.85-13.03-3.554632-15.53-3.554632s-12.59399984-2.295368-15.5029998 3.554632c-2.497 5.65 4.853 9.0000002 4.853 9.0000002"/><path d="m2.0878782-7.3946738c5.5-3.0000002 15.4999998-3.0000002 20.9999998 0"/><path d="m2.0878782-3.895c5.5-3.0000002 15.4999998-3.0000002 20.9999998 0"/></g></g><g stroke="#ececec" stroke-linecap="round" transform="translate(1.355684 -8.892856)"><path d="m12.178118 40.973213c3.493619-3.67615 6.270629-7.210837 7.410714-12.299107" fill="none"/><path d="m11.240618 33.763392c1.432124 1.235343 2.289772 1.882485 4.375 2.633927" fill="#000080"/></g></svg>