<?xml version="1.0" encoding="utf-8"?>
<!-- Generator: Adobe Illustrator 24.0.2, SVG Export Plug-In . SVG Version: 6.00 Build 0)  -->
<svg version="1.1" id="Capa_1" xmlns="http://www.w3.org/2000/svg" xmlns:xlink="http://www.w3.org/1999/xlink" x="0px" y="0px"
	 viewBox="0 0 45 45" style="enable-background:new 0 0 45 45;" xml:space="preserve">
<style type="text/css">
	.st0{stroke:#000000;stroke-linecap:round;stroke-linejoin:round;stroke-miterlimit:10;}
	.st1{fill:none;stroke:#FFFFFF;stroke-width:1.5;stroke-linecap:round;stroke-linejoin:round;stroke-miterlimit:10;}
	.st2{fill:none;stroke:#FFFFFF;stroke-width:0.75;stroke-linecap:round;stroke-linejoin:round;stroke-miterlimit:10;}
</style>
<path class="st0" d="M38.1,15.8l-2.4-0.2c0-0.3-0.4-0.7-0.5-0.8l1.3-1.4c-1.1-1.7-2.3-2.7-4.3-4l-1.8,1.4c-1.2-0.7-2.1-1.2-3.5-1.7
	l0.8-1.8c-2-0.8-4.4-1.2-6.7-1.4V8c-0.8-0.1-1.5-0.1-2.2-0.1c-0.6,0-1.2,0-1.9,0.1l-0.5-2c-2.6,0.2-5.1,0.7-7.3,1.6
	c0,0,2.1,5.9,3.4,7.5c0.4,0.5,2.3,1.7,2.3,1.7c-0.9,0.6-1.7,1.2-2.4,2.1l-2,0.1c0,0-3.6,3.4-3.1,12.4c0.1,1.3,0.7-2,2.3-3.4
	c0.7-0.7,6.7-1.6,8.8-1.5c0.9,0,0.3,3.4-0.6,3.6c-1.5,0.3-7.1,0.3-7.5,1.5c-0.9,2.8-1.4,8.1-1.4,8.1s9.3-0.6,11.2-2.6
	c1.3-1.5,1.8-7.6,3.9-7.6c2,0,1.8,5.8,3.3,6.7c0.7,0.4,4,1.4,4,1.4v-8.8c1.2-0.6,2.2-1.9,2.2-3.4c0-2,0-3.1-1.4-4.8
	c0,0,2.4-1.1,3.1-0.9c2.7,1,1.6,5,0.3,7.6c-0.6,1.3-1,2.5-1.3,3.9c-0.6,2.1,0.3,2.9,0.4,2.7c1.2-4.3,3.2-6.7,4.1-11
	C39.2,20.8,39.2,17.6,38.1,15.8z"/>
<path class="st1" d="M15,18.8c0,0,2.5-0.5,8.5,4.7c4.5,3.9,6.5,3.9,6.5,3.9"/>
<path class="st1" d="M14.1,13.6c0,0,10.4-4.3,18.8,4"/>
<path class="st2" d="M15.5,16c0,0,8.7-3.5,15.8,3.7"/>
</svg>
