<?xml version="1.0" encoding="utf-8"?>
<!-- Generator: Adobe Illustrator 24.0.2, SVG Export Plug-In . SVG Version: 6.00 Build 0)  -->
<svg version="1.1" id="Capa_1" xmlns="http://www.w3.org/2000/svg" xmlns:xlink="http://www.w3.org/1999/xlink" x="0px" y="0px"
	 viewBox="0 0 45 45" style="enable-background:new 0 0 45 45;" xml:space="preserve">
<style type="text/css">
	.st0{fill:none;stroke:#FFFFFF;stroke-width:1.5;stroke-linecap:round;stroke-linejoin:round;stroke-miterlimit:10;}
	.st1{fill:none;stroke:#FFFFFF;stroke-width:1.5;stroke-miterlimit:10;}
</style>
<g>
	<path d="M36.7,21.5c0.4,0.4,0.7,0.8,1,1.3l0.5,0.7l0.5,0.7c0.4,0.7,0.7,1.5,0.6,2.4c0,0.4-0.1,0.8-0.2,1.2l-0.3,0.8
		c-0.7,2.1-1.5,4.1-2.3,6.1C36.4,35,36,35.1,35.7,35c-0.2-0.1-0.4-0.3-0.3-0.6c0.2-2.2,0.5-4.3,0.9-6.5l0.1-0.8c0-0.2,0-0.3,0-0.4
		c-0.1-0.3-0.2-0.5-0.3-0.7l-0.4-0.6l-0.5-0.7c-0.3-0.4-0.6-0.9-0.9-1.4c-0.4-0.7-0.2-1.6,0.5-2.1C35.4,20.8,36.2,21,36.7,21.5z"/>
</g>
<g>
	<path d="M10.7,23.3c-0.3,0.5-0.6,0.9-0.9,1.4l-0.5,0.7L8.9,26c-0.2,0.2-0.3,0.4-0.3,0.7c0,0.1,0,0.3,0,0.4l0.1,0.8
		c0.4,2.1,0.7,4.3,0.9,6.5c0,0.3-0.2,0.6-0.5,0.6c-0.3,0-0.5-0.1-0.6-0.3c-0.9-2-1.6-4.1-2.3-6.1l-0.3-0.8c-0.1-0.4-0.2-0.8-0.2-1.2
		c0-0.8,0.2-1.6,0.6-2.4l0.5-0.8l0.5-0.7c0.3-0.4,0.7-0.9,1-1.3c0.6-0.6,1.5-0.7,2.1-0.1C11,21.9,11.1,22.7,10.7,23.3z"/>
</g>
<path d="M39.9,24c0.5,0,0.9-0.4,0.9-0.9c-0.5-9.7-8.5-17.9-18.3-17.9S4.7,13.3,4.2,23c0,0.5,0.4,0.9,0.9,0.9h34.8L39.9,24L39.9,24z"
	/>
<path d="M22.5,18c-5.7,0-10.3,0-10.3,11c0,0.4,0.3,0.8,0.7,1.1c0.9,0.6,1.4,1.7,1.4,2.8v3c0,0.6,0.3,1.1,0.7,1.4l5.5,3.3
	c0.4,0.2,0.8-0.1,0.8-0.6c-0.4-2.7-1-7-1.3-9.2c-0.1-0.7-0.6-1.3-1.3-1.5c-1.1-0.3-2.4-0.8-3.1-1.1c-0.3-0.1-0.5-0.4-0.6-0.8
	l-0.1-1.3c0-0.3,0.2-0.6,0.6-0.6c1.2,0.1,3.7,0.4,5.3,0.4c0.2,0,0.3,0.2,0.3,0.3L21,29.4c0,0.1,0,0.3,0.1,0.4
	c0.2,0.4,0.8,1.4,1.2,2.1c0.2,0.3,0.6,0.3,0.7,0c0.4-0.7,0.9-1.7,1.2-2.1c0.1-0.1,0.1-0.3,0.1-0.4l-0.2-3.2c0-0.2,0.1-0.3,0.3-0.3
	c1.6-0.1,4.3-0.3,5.4-0.4c0.3,0,0.6,0.2,0.6,0.6l-0.3,1.3c0,0.4-0.2,0.7-0.6,0.8c-0.7,0.3-2.1,0.7-3.1,1.1c-0.7,0.2-1.2,0.8-1.3,1.5
	c-0.3,2.1-0.9,6.5-1.3,9.2c-0.1,0.5,0.4,0.8,0.8,0.6c1.4-0.9,4.2-2.5,5.5-3.3c0.5-0.3,0.7-0.8,0.7-1.4v-3c0-1.1,0.5-2.2,1.4-2.8
	c0.4-0.3,0.7-0.7,0.7-1.1C32.8,18,28.2,18,22.5,18z"/>
<path class="st0" d="M14.5,21.6c1.2-3.2,4.3-5.6,8-5.6s6.8,2.3,8,5.6l-8-2.8L14.5,21.6z"/>
<line class="st1" x1="22.5" y1="16" x2="22.5" y2="18.8"/>
<line class="st0" x1="22.5" y1="11.6" x2="22.5" y2="7.9"/>
<line class="st0" x1="17.8" y1="12.8" x2="16.4" y2="9.8"/>
<line class="st0" x1="13.4" y1="15.5" x2="11" y2="13.4"/>
<line class="st0" x1="10.7" y1="19.6" x2="8.1" y2="18.9"/>
<line class="st0" x1="27.2" y1="12.8" x2="28.6" y2="9.8"/>
<line class="st0" x1="31.6" y1="15.5" x2="34" y2="13.4"/>
<line class="st0" x1="34.3" y1="19.6" x2="36.9" y2="18.9"/>
</svg>
