<?xml version="1.0" encoding="utf-8"?>
<!-- Generator: Adobe Illustrator 24.0.2, SVG Export Plug-In . SVG Version: 6.00 Build 0)  -->
<svg version="1.1" id="Capa_1" xmlns="http://www.w3.org/2000/svg" xmlns:xlink="http://www.w3.org/1999/xlink" x="0px" y="0px"
	 viewBox="0 0 45 45" style="enable-background:new 0 0 45 45;" xml:space="preserve">
<style type="text/css">
	.st0{fill:#FFFFFF;}
	.st1{fill:none;stroke:#FFFFFF;stroke-width:1.5;stroke-linecap:round;stroke-linejoin:round;stroke-miterlimit:10;}
	.st2{fill:none;stroke:#FFFFFF;stroke-width:1.5;stroke-miterlimit:10;}
</style>
<g>
	<path d="M36.7,21c0.4,0.4,0.7,0.8,1,1.3l0.5,0.7l0.5,0.7c0.4,0.7,0.7,1.5,0.6,2.4c0,0.4-0.1,0.8-0.2,1.2l-0.3,0.8
		c-0.7,2.1-1.5,4.1-2.3,6.1c-0.1,0.3-0.5,0.4-0.8,0.3c-0.2-0.1-0.4-0.3-0.3-0.6c0.2-2.2,0.5-4.3,0.9-6.5l0.1-0.8c0-0.2,0-0.3,0-0.4
		c-0.1-0.3-0.2-0.5-0.3-0.7l-0.4-0.6l-0.5-0.7c-0.3-0.4-0.6-0.9-0.9-1.4c-0.4-0.7-0.2-1.6,0.5-2.1C35.4,20.3,36.2,20.5,36.7,21z"/>
</g>
<g>
	<path d="M10.7,22.8c-0.3,0.5-0.6,0.9-0.9,1.4l-0.5,0.7l-0.4,0.6c-0.2,0.2-0.3,0.4-0.3,0.7c0,0.1,0,0.3,0,0.4l0.1,0.8
		c0.4,2.1,0.7,4.3,0.9,6.5c0,0.3-0.2,0.6-0.5,0.6s-0.5-0.1-0.6-0.3c-0.9-2-1.6-4.1-2.3-6.1l-0.3-0.8c-0.1-0.4-0.2-0.8-0.2-1.2
		c0-0.8,0.2-1.6,0.6-2.4l0.5-0.8l0.5-0.7c0.3-0.4,0.7-0.9,1-1.3c0.6-0.6,1.5-0.7,2.1-0.1C11,21.4,11.1,22.2,10.7,22.8z"/>
</g>
<path d="M39.9,23.5c0.5,0,0.9-0.4,0.9-0.9c-0.5-9.7-8.5-17.9-18.3-17.9S4.7,12.8,4.2,22.5c0,0.5,0.4,0.9,0.9,0.9h34.8L39.9,23.5
	L39.9,23.5z"/>
<path class="st0" d="M29.2,12.9c-0.7-0.4-1.4-0.7-2.2-1l1-3.4c0.3,0.1,0.6,0.2,0.8,0.3c1,0.4,1.9,0.9,2.8,1.5L29.2,12.9z"/>
<path class="st0" d="M35.1,21c-0.2-0.9-0.5-1.7-0.9-2.5l2.8-1.3c0.5,1.3,0.7,2.5,0.8,3.7L35.1,21L35.1,21z"/>
<path class="st0" d="M32.9,16.3c-0.5-0.7-1.1-1.4-1.7-1.8l2.2-2.5c0.1,0.1,0.2,0.1,0.2,0.2c0.9,0.8,1.6,1.8,2.2,2.9L32.9,16.3z"/>
<path class="st0" d="M13.5,10.2c0.9-0.6,1.8-1.1,2.8-1.5c0.3,0,0.6-0.1,0.9-0.2l1,3.4c-0.8,0.3-1.5,0.6-2.2,1L13.5,10.2z"/>
<path class="st0" d="M9,14.9c0.7-1.1,1.4-2,2.2-2.8c0.1-0.1,0.2-0.2,0.2-0.2l2.2,2.5c-0.6,0.5-1.2,1.2-1.7,1.8L9,14.9z"/>
<path class="st0" d="M7.1,21c0.1-1.3,0.4-2.4,0.8-3.7l2.8,1.3c-0.4,0.8-0.7,1.6-0.9,2.5L7.1,21L7.1,21z"/>
<path class="st0" d="M19.8,7.8c0.9-0.2,1.8-0.3,2.7-0.3s1.8,0.1,2.7,0.3l-1,3.4c-0.6-0.1-1.2-0.1-1.6-0.1h-0.1c-0.6,0-1.1,0-1.6,0.1
	L19.8,7.8z"/>
<path d="M22.5,17.5c-5.7,0-10.3,0-10.3,11c0,0.4,0.3,0.8,0.7,1.1c0.9,0.6,1.4,1.7,1.4,2.8v3c0,0.6,0.3,1.1,0.7,1.4l5.5,3.3
	c0.4,0.2,0.8-0.1,0.8-0.6c-0.4-2.7-1-7-1.3-9.2c-0.1-0.7-0.6-1.3-1.3-1.5c-1.1-0.3-2.4-0.8-3.1-1.1c-0.3-0.1-0.5-0.4-0.6-0.8
	l-0.1-1.3c0-0.3,0.2-0.6,0.6-0.6c1.2,0.1,3.7,0.4,5.3,0.4c0.2,0,0.3,0.2,0.3,0.3L21,28.9c0,0.1,0,0.3,0.1,0.4
	c0.2,0.4,0.8,1.4,1.2,2.1c0.2,0.3,0.6,0.3,0.7,0c0.4-0.7,0.9-1.7,1.2-2.1c0.1-0.1,0.1-0.3,0.1-0.4l-0.2-3.2c0-0.2,0.1-0.3,0.3-0.3
	c1.6-0.1,4.3-0.3,5.4-0.4c0.3,0,0.6,0.2,0.6,0.6l-0.3,1.3c0,0.4-0.2,0.7-0.6,0.8c-0.7,0.3-2.1,0.7-3.1,1.1c-0.7,0.2-1.2,0.8-1.3,1.5
	c-0.3,2.1-0.9,6.5-1.3,9.2c-0.1,0.5,0.4,0.8,0.8,0.6c1.4-0.9,4.2-2.5,5.5-3.3c0.5-0.3,0.7-0.8,0.7-1.4v-3c0-1.1,0.5-2.2,1.4-2.8
	c0.4-0.3,0.7-0.7,0.7-1.1C32.8,17.5,28.2,17.5,22.5,17.5z"/>
<path class="st1" d="M14.5,21.1c1.2-3.2,4.3-5.6,8-5.6s6.8,2.3,8,5.6l-8-2.8L14.5,21.1z"/>
<line class="st2" x1="22.5" y1="15.5" x2="22.5" y2="18.3"/>
</svg>
