<svg clip-rule="evenodd" fill-rule="evenodd" height="50mm" image-rendering="optimizeQuality" shape-rendering="geometricPrecision" text-rendering="geometricPrecision" viewBox="0 0 50 50" width="50mm" xmlns="http://www.w3.org/2000/svg" xmlns:xlink="http://www.w3.org/1999/xlink"><linearGradient id="a" gradientTransform="matrix(.80851 0 0 1.0928 532.83 -78.564)" gradientUnits="userSpaceOnUse" x1="-634.64" x2="-621.56" xlink:href="#b" y1="80.576" y2="80.576"/><linearGradient id="b"><stop offset="0" stop-color="#c23014"/><stop offset="1" stop-color="#171717"/></linearGradient><linearGradient id="c" gradientUnits="userSpaceOnUse" x1="9.37" x2="40.64" xlink:href="#b" y1="26.223" y2="26.223"/><linearGradient id="d" gradientUnits="userSpaceOnUse" x1="11.575" x2="38.426" xlink:href="#b" y1="40.43" y2="40.43"/><path d="m22.968 12.421h5.4717m-3.437-9.2288s-3.7622 4.1018-3.7895 6.0178c.0016 1.3179.66536 2.5231 1.7548 3.2109h-1.405c-.75576 0-1.364.79205-1.364 1.7755 0 .98344.60822 1.7749 1.364 1.7749h6.8767c.75574 0 1.364-.79146 1.364-1.7749 0-.98348-.60821-1.7755-1.364-1.7755h-1.4023c1.0894-.68787 1.753-1.8931 1.7548-3.2109-.02717-1.916-3.7895-6.0178-3.7895-6.0178z" fill="url(#a)" stroke="#000" stroke-linejoin="round" stroke-width="1.2"/><path clip-rule="evenodd" d="m25.003 3.192s.52373-.63263-.000016 0c.06565 3.2342 4.2151 6.9458.18595 9.943h1.4023c.75576 0 1.364.07792 1.364 1.0613.000024.98348-.60819 1.7749-1.364 1.7749h-1.5639c-.29732.10633-.61591.18914-.94872.2455.29761.05038.6064.07999.92436.07999.67347 0 1.3099-.1241 1.8731-.32536h1.5639c.75574 0 1.364-.7915 1.3639-1.7749 0-.98348-.61704-1.9257-1.3639-1.7755l-1.4023.28195c1.0894-.68788 1.753-2.175 1.7548-3.4929-.02717-1.916-3.7895-6.0178-3.7895-6.0178z" fill-rule="evenodd" image-rendering="optimizeQuality" opacity=".2" shape-rendering="geometricPrecision"/><path d="m39.886 20.265c-1.3821-3.1365-7.3803-5.3353-14.886-5.3353-7.5053 0-13.504 2.1988-14.886 5.3353-1.3819 3.1358 7.6143 17.25 7.6143 17.25h14.543s8.9963-14.114 7.6142-17.25z" style="clip-rule:evenodd;fill-rule:evenodd;image-rendering:optimizeQuality;shape-rendering:geometricPrecision;stroke-linejoin:round;stroke-width:1.2;stroke:#000;fill:url(#c)"/><path d="m27.739 14.984c14.749 4.2518 2.2698 21.326-4.1617 22.462l8.6934.0698s8.9969-15.193 7.6149-18.329c-1.0403-2.7002-6.2899-4.0308-12.147-4.2032z" opacity=".2"/><g clip-rule="evenodd" fill-rule="evenodd" image-rendering="optimizeQuality" shape-rendering="geometricPrecision"><path d="m25 36.457s-8.5779.0481-10.983 1.6192c-1.6227 1.0602-2.0055 3.6514-1.7848 6.3237h25.536c.22073-2.6723-.16211-5.2636-1.7848-6.3237-2.4047-1.5711-10.983-1.6192-10.983-1.6192z" fill="url(#d)" stroke="#000" stroke-linejoin="round" stroke-width="1.2"/><path d="m25 36.457s-8.5782.0479-10.983 1.619c-1.6227 1.0602-2.0054 2.593-1.7846 5.2653h.084c.22762-1.3799.75027-2.5278 1.7006-3.1486 2.4051-1.5711 10.983-1.619 10.983-1.619s8.5785.0479 10.983 1.619c.95033.62083 1.4729 1.7688 1.7006 3.1486h.08399c.22072-2.6723-.16186-4.2052-1.7846-5.2653-2.4047-1.5711-10.983-1.619-10.983-1.619z" opacity=".2"/><path d="m23.97 15.595c-3.8847-.25301-14.106 1.8423-13.321 6.2404.81724 3.7274 2.9181 7.0803 4.6722 10.341-5.1529-10.335-5.7637-14.834 8.6487-16.581z" fill="#fff" opacity=".25"/></g><path d="m25.106 4.0522c-1.7282 1.8382-2.5624 3.2391-3.052 4.2336-.40163.81579-.33025 1.1502-.23112 1.6103.17085.793.74237 1.4189.91315 1.5469-.8249-.74481-.85437-3.9774 2.3651-7.4144" fill="#fff" opacity=".25"/><path d="m20.761 14.555s-.19294-1.3739.76005-1.4324c.95298-.0585 2.9934 0 2.9934 0s-3.1279-.17539-3.7535 1.4324z" fill="#fff" opacity=".25"/></svg>