<svg clip-rule="evenodd" fill-rule="evenodd" height="50mm" image-rendering="optimizeQuality" shape-rendering="geometricPrecision" text-rendering="geometricPrecision" viewBox="0 0 50 50" width="50mm" xmlns="http://www.w3.org/2000/svg" xmlns:xlink="http://www.w3.org/1999/xlink"><linearGradient id="a" gradientTransform="matrix(1.1144 0 0 1.1133 595.36 -102.86)" gradientUnits="userSpaceOnUse" x1="-523.92" x2="-501.54" xlink:href="#b" y1="113.91" y2="113.91"/><linearGradient id="b"><stop offset="0" stop-color="#c23014"/><stop offset="1" stop-color="#171717"/></linearGradient><linearGradient id="c" gradientUnits="userSpaceOnUse" x1="11.651" x2="38.502" xlink:href="#b" y1="40.43" y2="40.43"/><path d="m14.978 8.7251s-.12623.00334-.30524.047202c-.47831.00668-.0033.87822-.48152.88704l-2.0921.30842s1.8273 3.836 1.8273 4.5458c0 .70985-1.2376 1.7339-1.2376 1.7339v12.094l2.5644 2.1631 4.1084-.92853-1.5814-2.3104 5.6229-4.8999c2.6667 12.989-10.494 4.9207-9.0575 17.005h21.461c.004457-.22661-1.7187-2.6898-.78782-7.1813 3.4136-21.949-3.8994-24.57-19.998-23.42-.0033-.00334-.04324-.042526-.04324-.042526z" fill="url(#a)" stroke="#000" stroke-linejoin="round" stroke-width="1.2"/><path d="m14.91 17.622a1.4642 1.3829 0 0 0 1.4642 1.3829 1.4642 1.3829 0 0 0 1.4642-1.3829 1.4642 1.3829 0 0 0 -1.4642-1.3829 1.4642 1.3829 0 0 0 -1.4642 1.3829zm4.7564-1.3828-3.2924-.000123" fill="none" opacity=".4" stroke="#000" stroke-linejoin="round" stroke-width=".8"/><ellipse cx="-14.309" cy="27.333" opacity=".4" rx=".78657" ry=".71467" transform="scale(-1 1)"/><ellipse cx="-16.346" cy="17.632" opacity=".4" rx=".41545" ry=".41786" transform="scale(-1 1)"/><path d="m35.807 38.823c.06541.01213-1.7082-1.8439-.78882-6.6337 2.5016-17.945-.14365-23.723-14.969-23.638v-.0002672c-1.6123-.011132-3.3044.049317-5.0691.17546.04112.042415 1.4973 1.2577 1.8594 1.7287.04168-.0033.08157-.0056.12293-.0078l2.4341 2.6303s-1.3354-2.1062.20882-2.4745c21.364-3.2031 15.787 28.429 2.519 28.154" opacity=".2"/><g stroke="#000" stroke-linejoin="round"><path d="m17.166 13.338c3.4013-3.2382-2.4886-6.1702-2.4886-6.1702l.08559 4.982" fill="#a32b15" stroke-width="1.2"/><path d="m16.645 30.19.02207-2.1514" style="clip-rule:evenodd;fill-rule:evenodd;fill:#f6f1a7;image-rendering:optimizeQuality;opacity:.4;shape-rendering:geometricPrecision;stroke-width:.8"/><path d="m25.076 36.457s-8.5779.0481-10.983 1.6192c-1.6227 1.0602-2.0055 3.6514-1.7848 6.3237h25.536c.22073-2.6723-.16211-5.2636-1.7848-6.3237-2.4047-1.5711-10.983-1.6192-10.983-1.6192z" style="clip-rule:evenodd;fill-rule:evenodd;image-rendering:optimizeQuality;shape-rendering:geometricPrecision;stroke-width:1.2;fill:url(#c)"/></g><path clip-rule="evenodd" d="m25.076 36.457s-8.5782.0479-10.983 1.619c-1.6227 1.0602-2.0054 2.593-1.7846 5.2653h.084c.22762-1.3799.75027-2.5278 1.7006-3.1486 2.4051-1.5711 10.983-1.619 10.983-1.619s8.5785.0479 10.983 1.619c.95033.62083 1.4729 1.7688 1.7006 3.1486h.08399c.22072-2.6723-.16186-4.2052-1.7846-5.2653-2.4047-1.5711-10.983-1.619-10.983-1.619z" fill-rule="evenodd" image-rendering="optimizeQuality" opacity=".2" shape-rendering="geometricPrecision"/><path d="m22.921 14.92c7.7385 3.8632-5.1216 12.364-5.1407 12.345l1.5814 2.3104-4.1084.92854.33875-2.8678c.01699-.003 12.535-8.5828 7.3289-12.716" opacity=".2" stroke="#000" stroke-width=".26458"/><path d="m13.301 28.081.0083-11.576c1.9328-1.653 1.3663-2.23-.30191-6.0406 2.8874 4.2691 3.0404 3.652 1.1039 6.4788z" fill="#fff" opacity=".25"/><path d="m14.919 37.016c-.20173-6.9632 10.544-3.1253 9.4119-12.978 2.1148 9.6448-8.7129 7.4913-9.4119 12.978z" fill="#fff" opacity=".25"/></svg>