<svg clip-rule="evenodd" fill-rule="evenodd" height="50mm" image-rendering="optimizeQuality" shape-rendering="geometricPrecision" text-rendering="geometricPrecision" viewBox="0 0 50 50" width="50mm" xmlns="http://www.w3.org/2000/svg" xmlns:xlink="http://www.w3.org/1999/xlink"><linearGradient id="a" gradientUnits="userSpaceOnUse" x1="13.1505966" x2="36.8543188" xlink:href="#b" y1="23.87837" y2="23.87837"/><linearGradient id="b"><stop offset="0" stop-color="#c23014"/><stop offset="1" stop-color="#171717"/></linearGradient><linearGradient id="c" gradientUnits="userSpaceOnUse" x1="11.58" x2="38.427" xlink:href="#b" y1="40.43" y2="40.43"/><path d="m14.371 8.6743c-1.0323 3.1689-1.1441 10.538 2.5895 10.565v2.7957h2.6737l-3.3812 16.01h17.494l-3.3812-16.01h2.6737v-2.7957c3.7336-.02699 3.6218-7.3958 2.5895-10.565h-4.0664v2.7352h-3.8706v-2.7352h-5.3837v2.7352h-3.8706v-2.7352z" fill="url(#a)" stroke="#000" stroke-width="1.2"/><path d="m19.634 22.035h10.732" fill="none" stroke="#000" stroke-width="1.2"/><path d="m16.961 19.239h16.079" fill="none" stroke="#000" stroke-width="1.2"/><path d="m33.217 8.6739c.91113 3.2222.57124 7.1348 0 9.921l-16.256.00001c4.3301.95181 11.559-.0206 12.303 3.4402l-12.303.00002c16.079-.00002 10.825 6.8012 12.059 16.01l4.7268-.00053-2.8516-16.01h2.1443v-3.4403h1.7464c2.6224-3.1495 1.1695-8.2321.76659-9.921z" fill="#070705" opacity=".2"/><path d="m25 36.457s-8.5779.0481-10.983 1.6192c-1.6227 1.0602-2.0055 3.6514-1.7848 6.3237h25.536c.22073-2.6723-.16211-5.2636-1.7848-6.3237-2.4047-1.5711-10.983-1.6192-10.983-1.6192z" style="clip-rule:evenodd;fill-rule:evenodd;image-rendering:optimizeQuality;shape-rendering:geometricPrecision;stroke-linejoin:round;stroke-width:1.2;stroke:#000;fill:url(#c)"/><path clip-rule="evenodd" d="m25 36.457s-8.5782.0479-10.983 1.619c-1.6227 1.0602-2.0054 2.593-1.7846 5.2653h.084c.22762-1.3799.75027-2.5278 1.7006-3.1486 2.4051-1.5711 10.983-1.619 10.983-1.619s8.5785.0479 10.983 1.619c.95033.62083 1.4729 1.7688 1.7006 3.1486h.084c.22072-2.6723-.16185-4.2052-1.7846-5.2653-2.4047-1.5711-10.983-1.619-10.983-1.619z" fill-rule="evenodd" image-rendering="optimizeQuality" opacity=".2" shape-rendering="geometricPrecision"/><g fill="#fff"><path d="m14.821 9.2702s-.7839 3.4082-.37464 5.5597c-.12277-2.7336 2.1281-5.5597 2.1281-5.5597z" opacity=".25"/><path d="m22.899 9.2454v2.7533l1.1824-2.7368z" opacity=".25"/><path d="m32.168 9.2756v2.7533l.7614-2.7456z" opacity=".25"/><path d="m17.575 21.433v-1.5958h5.7051s-5.5976-.15711-5.7051 1.5958z" opacity=".25"/></g></svg>