<svg clip-rule="evenodd" fill-rule="evenodd" height="50mm" image-rendering="optimizeQuality" shape-rendering="geometricPrecision" text-rendering="geometricPrecision" viewBox="0 0 50 50" width="50mm" xmlns="http://www.w3.org/2000/svg" xmlns:xlink="http://www.w3.org/1999/xlink"><linearGradient id="a"><stop offset="0" stop-color="#fbf6dc"/><stop offset="1" stop-color="#aa9445"/></linearGradient><linearGradient id="b" gradientTransform="matrix(.93894 0 0 .97636 148.33 -447.95)" gradientUnits="userSpaceOnUse" x1="-144.63" x2="-118.08" xlink:href="#a" y1="495" y2="495"/><linearGradient id="c" gradientTransform="matrix(.99908 0 0 1.0007 -1230.3 -1137)" gradientUnits="userSpaceOnUse" x1="1247.8" x2="1265.1" xlink:href="#a" y1="1156.6" y2="1156.6"/><path d="m22.106 26.305c-.93154 11.619-9.0064 8.663-9.0064 18.094h23.8c0-9.4312-8.0748-6.4754-9.0064-18.094h-2.8942z" fill="url(#b)" stroke="#323232" stroke-linejoin="round" stroke-width="1.2"/><path d="m23.919 26.305c.93164 11.619 9.0064 8.663 9.0064 18.094h3.9748c0-9.4312-8.0749-6.4755-9.0064-18.094h-2.8942z" opacity=".15"/><path clip-rule="evenodd" d="m13.748 43.78c.01998-7.2192 6.582-6.1295 8.6023-14.757.05994 8.3393-7.0559 7.4317-8.6023 14.757z" fill="#fff" fill-rule="evenodd" image-rendering="optimizeQuality" shape-rendering="geometricPrecision"/><path d="m25 12.599c-3.423.0004-6.198 2.6284-6.198 5.8705 0 1.9488 1.0229 3.7702 2.7275 4.8616l-4.5732 5.0405h16.088l-4.5728-5.0405c1.7046-1.0915 2.7271-2.9129 2.7271-4.8616 0-3.2422-2.7746-5.8701-6.1975-5.8705h-.0006z" fill="url(#c)" stroke="#323232" stroke-linejoin="round" stroke-width="1.2"/><path d="m22.907 13.556c-.84572.21725-5.4792 2.9414-2.5801 7.8204 0 0-1.146-4.1585 2.5801-7.8204z" fill="#fff"/><path d="m25 12.6c-.51852 0-1.0221.06104-1.5034.17452 2.6962.63675 4.6938 2.945 4.6938 5.6958 0 1.9488-1.0222 3.7704-2.7268 4.8619l4.573 5.0352h3.0082l-4.5734-5.0352c1.7045-1.0915 2.7268-2.9131 2.7268-4.8619 0-3.2421-2.7746-5.8701-6.1977-5.8704z" opacity=".15"/></svg>