<svg height="52.157" width="52.157" xmlns="http://www.w3.org/2000/svg"><path d="m26.078001 48.76 13.673-4.484 6.418-40.907h-40.1810002l6.4190002 40.907z" fill="#ede9dd" opacity=".9801" stroke="#393830" stroke-opacity=".992157" stroke-width="1.04769"/><path d="m31.115003 8.971702c-1.268933-.196324-.681181 1.770114-1.928004 1.963894-.593615 1.198338-2.32175 2.173879-3.591338 1.492399-1.315827-.256578-.915775-2.954854-2.346006-1.717605-.776224.358017-1.612709 1.893539-1.536461.265224-1.114059.650753-1.754862 2.108084-2.939278 2.782108-.774293.48914-1.530955-.8385-1.901756.461896-.66177.576634-.99254 2.623508-1.62494 2.444503-.6644-.359644-1.28356 1.784878-1.6415 2.477752-.79671 1.978707-.64877 4.189277-.33019 6.242841-1.34177-.339264-.66298 2.110252-.88594 3.018233-.0547 1.197621-.82505 2.567366.0268 3.555782-1.19956 1.257371 1.57617 1.006957 2.30713 1.478416 2.07802.522613 4.17869 1.09088 6.336254 1.109347.955601.868817 1.622149 2.8374 3.264686 2.501918 1.146505-.798927.891641-3.039753 2.715535-2.866268 2.946517-.583941 6.071507-1.507236 8.123792-3.838237.432144-1.446922 1.563055-2.368174 2.949229-2.901319 1.255604-.731586 3.124602-1.231492 3.525132-2.782868-.535511-1.279861-.775471-2.496103-1.004207-3.839649-.739356-1.23931-2.156523-1.801023-2.937082-3.036172-.378242-.565938-2.262456-1.300358-1.182559-.111079.658435.798139.398918 1.59215-.705133 1.286907-1.513916.06065-3.566531.240019-4.263028-1.468655.150353-1.328054 1.532755-3.040831 2.523607-3.644627 1.42371 1.452457 1.105028-.985442.541911-1.715578-.319596-1.349887-.889336-2.886901-2.475683-3.119928-.250588.01485-.884685-.38866-1.020993-.03924z" fill="#ca0c0c" stroke-width=".103901"/><path d="m32.372453 27.82963c1.00278-1.745764 1.87649-1.241312.866.5-1.00278 1.745764-1.87649 1.241312-.866-.5z" fill="#ede9dd" stroke="#ede9dd"/></svg>