<svg height="52.157" width="52.157" xmlns="http://www.w3.org/2000/svg"><path d="m26.078001 48.76 13.673-4.484 6.418-40.907h-40.1810002l6.4190002 40.907z" fill="#ede9dd" opacity=".9801" stroke="#393830" stroke-opacity=".992157" stroke-width="1.04769"/><g style="fill-rule:evenodd;stroke:#000;stroke-width:1.5;stroke-linecap:round;stroke-linejoin:round;fill:#3d3c33" transform="matrix(-1 0 0 -1 48.578494 46.161328)"><g stroke="#3d3c33" stroke-linecap="butt"><path d="m9 39h27v-3h-27zm3.5-7 1.5-2.5h17l1.5 2.5zm-.5 4v-4h21v4z"/><path d="m14 29.5v-13h17v13z" stroke-linejoin="miter"/><path d="m14 16.5-3-2.5h23l-3 2.5zm-3-2.5v-5h4v2h5v-2h5v2h5v-2h4v5z"/></g><path d="m12 35.5h21m-20-4h19m-18-2h17m-17-13h17m-20-2.5h23" stroke="#ede9dd" stroke-linejoin="miter" stroke-width="1"/></g></svg>