<svg height="52.157" width="52.157" xmlns="http://www.w3.org/2000/svg"><path d="m26.078986 3.396454-13.673 4.484-6.418 40.907h40.181l-6.419-40.907z" fill="#d6c99d" opacity=".9801" stroke="#393830" stroke-opacity=".992157" stroke-width="1.04769"/><path d="m31.214602 18.963729c-.06586.0047-.132367.02471-.198852.05967-.262359.137946-.605773.593283-.85611 1.135136l-.159501.34538-.102991-.258096c-.226487-.567935-.537707-.918899-.814872-.918899-.221638 0-.351503.0772-.609536.362329-.513907.567884-1.089895 2.144842-1.172391 3.209682-.02057.265636.0456.808819.121402.996566.01932.04787-.07157.126885-.366724.319003-.438083.285167-.645242.444903-1.112945.857995-.176202.155622-.383409.3295-.4605.386192-.493695.36304-1.730773 1.028846-2.803185 1.508767-1.354967.606361-1.557301.672908-1.902077.626696-.898934-.120486-2.329726-.994781-3.884524-2.373878l-.320466-.284251-.0488.188801c-.150256.582442-.164375 1.649293-.03098 2.331384.191109.977214.71886 2.108854 1.341936 2.877711.113572.140143.191336.268514.1729.2853-.08032.07314-.624812.257548-.974375.330094-.636434.132071-1.379496.03856-2.000459-.252017-.851597-.409223-1.677585-.791105-2.263357-1.557531-.426046-.572202-.787255-1.243733-1.164437-2.16456-.22885-.558717-.628261-1.750538-.776359-2.316944-.06547-.250406-.125915-.462338-.13459-.470966-.0087-.0086-.02722.241224-.04122.555323-.151195 3.387918-.156318 3.575023-.108628 4.02749.144053 1.366684.704202 2.561054 1.679148 3.580592l.442916.447312.0039-.0039c.102942.109568.532084.450496.798759.628167.143163.09538.266637.178618.27442.184829.0078.0062-.04271.152149-.112196.324229-.186862.46265-.26662.991066-.210578 1.394059.07587.545609.09452.632103.198227.921.340139.947609.998865 1.889617 2.018036 2.885873.762334.745188 1.063043.957249 1.751781 1.235187.480688.193982.721904.216125 2.102605.191944 1.268058-.02222 1.385213-.0068 2.252054.295975 1.353685.472839 2.416563.656462 3.799547.656422 1.119563-.000032 2.016283-.116952 3.067554-.399588 1.639523-.44079 3.185397-1.214522 4.460988-2.232797.33327-.266044 1.221371-1.123514 1.221371-1.179299 0-.0176.0158-.03199.03496-.03199s.04662.08933.06109.198642c.06031.454734.508869 1.501312.8425 1.965705.07841.109128.142544.206699.142544.216644 0 .02232.340044.470374.657889.866996.130515.16286.562896.621082.960985 1.018334.953897.951896 1.948194 1.777842 3.124913 2.596172.24131.167817.45052.291845.46489.275463.0144-.01638.0574-.300089.0957-.630466.0382-.330377.10377-.889064.14569-1.241466.29968-2.519356.61371-5.906487.74015-7.98256l.0276-.454008.005-.197601c.002-.07572.0408-.577302.0638-1.116918.23148-5.420956-.0965-8.523684-.99405-9.400482-.2208-.215694-.77994-.560611-1.168412-.720886-.666963-.275178-1.467772-.396416-2.162464-.32717-.209241.02088-.407578.03981-.440616.04208-.28634.01971-1.113439.268968-1.455603.438732-.128965.06398-.264087.116076-.300364.115755-.03629-.000321-.624631-.151281-1.307402-.335538l-1.241474-.334906-.0084-.315233c-.01181-.439021-.08093-.955642-.200104-1.496416-.270845-1.22895-.705705-1.918988-1.166532-1.884909zm-3.433448 8.586445c.649872-.03043 1.260167.262522 1.554813.861342.120769.24544.129991.293693.129991.66877 0 .39385-.0039.412936-.167034.741615-.265862.536394-.780246.978316-1.329593 1.142668-.30972.09266-.814154.109427-1.076943.03582-1.243921-.348531-1.543182-1.810305-.569761-2.783725.423541-.423542.953068-.642794 1.458527-.666471zm-8.752431 8.797016c.602504.0054 1.014461.284204.886669.758775-.09772.362915-.678555.813684-1.301748 1.010378-.132149.04169-.411386.08471-.620627.09544-.452545.02323-.751454-.0607-.930839-.261435-.313074-.350392.03121-.946936.751869-1.303006.423237-.209124.853176-.303674 1.214676-.300161z" fill="#ca0c0c" stroke-width=".040046"/></svg>