<?xml version="1.0" encoding="UTF-8" standalone="no"?>
<svg
   width="52.157"
   height="52.157"
   version="1.1"
   id="svg10503"
   sodipodi:docname="w+m.svg"
   inkscape:version="1.3 (0e150ed6c4, 2023-07-21)"
   xml:space="preserve"
   xmlns:inkscape="http://www.inkscape.org/namespaces/inkscape"
   xmlns:sodipodi="http://sodipodi.sourceforge.net/DTD/sodipodi-0.dtd"
   xmlns="http://www.w3.org/2000/svg"
   xmlns:svg="http://www.w3.org/2000/svg"
   xmlns:rdf="http://www.w3.org/1999/02/22-rdf-syntax-ns#"
   xmlns:cc="http://creativecommons.org/ns#"
   xmlns:dc="http://purl.org/dc/elements/1.1/"><metadata
     id="metadata10509"><rdf:RDF><cc:Work
         rdf:about=""><dc:format>image/svg+xml</dc:format><dc:type
           rdf:resource="http://purl.org/dc/dcmitype/StillImage" /></cc:Work></rdf:RDF></metadata><defs
     id="defs10507" /><sodipodi:namedview
     pagecolor="#ffffff"
     bordercolor="#666666"
     borderopacity="1"
     objecttolerance="10"
     gridtolerance="10"
     guidetolerance="10"
     inkscape:pageopacity="0"
     inkscape:pageshadow="2"
     inkscape:window-width="3840"
     inkscape:window-height="2036"
     id="namedview10505"
     showgrid="false"
     inkscape:zoom="9.663132"
     inkscape:cx="79.270365"
     inkscape:cy="22.766946"
     inkscape:window-x="-12"
     inkscape:window-y="-12"
     inkscape:window-maximized="1"
     inkscape:current-layer="svg10503"
     inkscape:showpageshadow="2"
     inkscape:pagecheckerboard="0"
     inkscape:deskcolor="#d1d1d1" /><path
     d="m 26.078986,3.396454 -13.673,4.484 -6.418,40.907 h 40.181 l -6.419,-40.907 z"
     opacity="0.9801"
     fill="#fee572"
     fill-opacity=".992"
     stroke="#000000"
     stroke-width="1.04769"
     id="path10471"
     style="fill:#d6c99d;fill-opacity:1;stroke:#393830;stroke-opacity:0.992157" /><path
     style="fill:#ca0c0c;fill-opacity:1;stroke-width:0.0198988"
     d="m 30.137518,44.430177 c 1.245944,-0.07115 2.457461,-0.497773 3.934786,-1.385616 0.686684,-0.41268 1.47229,-0.962846 2.222044,-1.556109 1.254922,-0.992981 3.010272,-2.67055 4.37564,-4.181737 0.323834,-0.358421 1.072656,-1.225984 1.083277,-1.255061 0.0038,-0.01092 -2.324605,-0.01815 -5.835333,-0.01815 h -5.841965 v -11.76644 -11.76644 l 0.06175,-0.05845 c 0.07476,-0.0707 0.190882,-0.238142 0.268269,-0.386774 0.05358,-0.102902 0.05747,-0.1266 0.06441,-0.397 0.0085,-0.329617 -0.0029,-0.387224 -0.120183,-0.586106 -0.122075,-0.207741 -0.295961,-0.370201 -0.50628,-0.473034 -0.17593,-0.08601 -0.17593,-0.08601 -0.476735,-0.08601 -0.300816,0 -0.300816,0 -0.477581,0.0894 -0.238116,0.120416 -0.431164,0.308568 -0.531027,0.517511 -0.0893,0.186868 -0.112251,0.286193 -0.112859,0.488324 -9.5e-4,0.284964 0.08464,0.506875 0.297167,0.771036 l 0.120212,0.149452 v 6.304954 c 0,3.46774 -0.0057,8.756254 -0.0132,11.752256 l -0.0132,5.447289 -9.951103,0.005 -9.9510845,0.005 0.2387808,0.180876 c 0.69511,0.526547 2.1664217,1.515385 3.3464847,2.249105 1.890762,1.175607 3.922019,2.262888 5.90113,3.158733 3.246127,1.469356 6.510921,2.430166 9.168774,2.698318 0.9645,0.09731 2.080552,0.1378 2.747894,0.09969 z M 41.832704,33.867629 c -0.506328,-0.488052 -1.117962,-1.018161 -2.772413,-2.402921 -2.277115,-1.905928 -3.236313,-2.797435 -4.23696,-3.937964 -1.666222,-1.899115 -2.811125,-3.936748 -3.492365,-6.215444 -0.115244,-0.38545 -0.364798,-1.361553 -0.391132,-1.529815 -0.0076,-0.04632 -0.02099,-0.07937 -0.03059,-0.07344 -0.0098,0.0062 -0.01739,3.118262 -0.01739,7.212965 v 7.20221 h 5.603022 5.603012 z m -21.367885,0.235397 c 4.011119,-0.006 7.294352,-0.01283 7.2961,-0.01524 0.0019,-0.0025 -0.09376,-0.194664 -0.212314,-0.427223 -0.69852,-1.370794 -1.104775,-2.787265 -1.351137,-4.711062 -0.113752,-0.88823 -0.149063,-1.599448 -0.148702,-2.994774 0,-2.119238 0.134576,-3.903699 0.486387,-6.477066 0.223847,-1.637344 0.680869,-4.359397 1.054074,-6.278089 0.05681,-0.291954 0.140476,-0.73792 0.169545,-0.90352 0.01187,-0.06776 0.01187,-0.06776 -0.09405,0.01977 -0.120421,0.09949 -0.339128,0.28663 -0.543719,0.465267 -0.07657,0.06689 -0.318381,0.277935 -0.537259,0.468981 -1.779708,1.553363 -3.62944,3.357768 -5.245312,5.11677 -3.265497,3.554752 -5.92582,7.3007 -8.116276,11.428372 -0.285359,0.537741 -0.99889,1.965323 -1.21336,2.427655 -0.458382,0.988102 -0.779185,1.712985 -0.806687,1.822822 -0.01225,0.0492 -0.0085,0.05248 0.08075,0.06467 0.05159,0.0071 0.497692,0.01078 0.991394,0.0082 0.493712,-0.0026 4.179458,-0.0096 8.190566,-0.01552 z"
     id="path6" /></svg>
