<?xml version="1.0" encoding="UTF-8" standalone="no"?>
<svg
   width="52.157"
   height="52.157"
   version="1.1"
   id="svg1526"
   sodipodi:docname="w+p.svg"
   inkscape:version="1.3 (0e150ed6c4, 2023-07-21)"
   xmlns:inkscape="http://www.inkscape.org/namespaces/inkscape"
   xmlns:sodipodi="http://sodipodi.sourceforge.net/DTD/sodipodi-0.dtd"
   xmlns="http://www.w3.org/2000/svg"
   xmlns:svg="http://www.w3.org/2000/svg"
   xmlns:rdf="http://www.w3.org/1999/02/22-rdf-syntax-ns#"
   xmlns:cc="http://creativecommons.org/ns#"
   xmlns:dc="http://purl.org/dc/elements/1.1/">
  <metadata
     id="metadata1532">
    <rdf:RDF>
      <cc:Work
         rdf:about="">
        <dc:format>image/svg+xml</dc:format>
        <dc:type
           rdf:resource="http://purl.org/dc/dcmitype/StillImage" />
      </cc:Work>
    </rdf:RDF>
  </metadata>
  <defs
     id="defs1530" />
  <sodipodi:namedview
     pagecolor="#ffffff"
     bordercolor="#666666"
     borderopacity="1"
     objecttolerance="10"
     gridtolerance="10"
     guidetolerance="10"
     inkscape:pageopacity="0"
     inkscape:pageshadow="2"
     inkscape:window-width="3840"
     inkscape:window-height="2036"
     id="namedview1528"
     showgrid="false"
     inkscape:zoom="19.326264"
     inkscape:cx="72.957712"
     inkscape:cy="10.477969"
     inkscape:window-x="-12"
     inkscape:window-y="-12"
     inkscape:window-maximized="1"
     inkscape:current-layer="g1524"
     inkscape:showpageshadow="2"
     inkscape:pagecheckerboard="0"
     inkscape:deskcolor="#d1d1d1" />
  <g
     opacity="0.99"
     stroke="#000000"
     id="g1524"
     transform="rotate(-180,26.078859,26.07811)">
    <path
       d="m -11.042,6.667 -12.954,4.22 -6.853,43.409 H 8.766 L 1.91,10.888 Z"
       fill="#fee572"
       transform="matrix(0.84528,0,0,-0.84362,35.412,51.782)"
       id="path1516"
       style="fill:#d6c99d;fill-opacity:1;stroke:#38362e;stroke-opacity:0.96470588" />
    <g
       id="g1"
       transform="translate(46.952567)">
      <path
         d="m -20.894752,25.939835 c 0,0 -3.046369,5.077283 -2.030912,7.108196 0,0 0.67697,1.692428 2.030912,1.692428 1.353942,0 2.030913,-1.692428 2.030913,-1.692428 1.015456,-2.030913 -2.030913,-7.108196 -2.030913,-7.108196"
         fill="#000000"
         stroke-linecap="butt"
         stroke-linejoin="miter"
         id="path4127"
         sodipodi:nodetypes="ccscc"
         style="fill:#c90c0c;fill-opacity:0.984314;stroke:#c90c0c;stroke-width:0.67697;stroke-opacity:0.984314" />
      <path
         d="m -13.44807,13.888397 c -3.723341,-2.369399 -10.493051,-2.369399 -14.216391,0 v 4.738798 c 0,0 -6.09274,3.04637 -4.061827,7.108195 2.707884,4.400312 9.139109,2.881866 11.170022,2.881866 2.030913,0 8.462137,1.518446 10.49305,-2.881866 2.0309144,-4.061825 -3.384854,-6.76971 -3.384854,-6.76971 z"
         fill="#000000"
         id="path4129"
         sodipodi:nodetypes="cccccccc"
         style="fill:#c90c0c;fill-opacity:0.984314;stroke:#c90c0c;stroke-width:0.67697;stroke-opacity:0.984314" />
      <path
         d="m -27.325976,18.96568 c 0,0 -5.754254,2.707885 -4.082135,6.53277 2.626647,3.960281 8.820932,2.406383 10.513359,2.406383 1.692428,0 8.525772,1.553898 10.495081,-2.406383 1.6903974,-3.824885 -3.28534,-6.092739 -3.28534,-6.092739"
         stroke="#ececec"
         id="path4133"
         sodipodi:nodetypes="ccccc"
         style="fill:#c90c0c;fill-opacity:0.984314;stroke:#d6c99d;stroke-width:0.67697;stroke-opacity:1" />
      <path
         d="m -13.44807,18.627195 c -3.723341,2.030912 -10.493051,2.030912 -14.216391,0 m 14.216391,-2.369399 c -3.723341,2.030913 -10.493051,2.030913 -14.216391,0 m 14.216391,-2.369399 c -3.723341,2.030912 -10.493051,2.030912 -14.216391,0"
         stroke="#ececec"
         id="path4135"
         style="fill:none;stroke:#d6c99d;stroke-width:0.67697;stroke-opacity:1" />
    </g>
  </g>
</svg>
