<svg height="52.157" width="52.157" xmlns="http://www.w3.org/2000/svg"><g opacity=".99" stroke="#000" transform="matrix(-1 0 0 -1 52.157718 52.15622)"><path d="m-11.042 6.667-12.954 4.22-6.853 43.409h39.615l-6.856-43.408z" fill="#d6c99d" stroke="#38362e" stroke-opacity=".964706" transform="matrix(.84528 0 0 -.84362 35.412 51.782)"/><g stroke-width=".67697" transform="translate(46.952567)"><g fill="#c90c0c" fill-opacity=".984314"><path d="m-20.894752 25.939835s-3.046369 5.077283-2.030912 7.108196c0 0 .67697 1.692428 2.030912 1.692428s2.030913-1.692428 2.030913-1.692428c1.015456-2.030913-2.030913-7.108196-2.030913-7.108196" stroke="#c90c0c" stroke-opacity=".984314"/><path d="m-13.44807 13.888397c-3.723341-2.369399-10.493051-2.369399-14.216391 0v4.738798s-6.09274 3.04637-4.061827 7.108195c2.707884 4.400312 9.139109 2.881866 11.170022 2.881866s8.462137 1.518446 10.49305-2.881866c2.0309144-4.061825-3.384854-6.76971-3.384854-6.76971z" stroke="#c90c0c" stroke-opacity=".984314"/><path d="m-27.325976 18.96568s-5.754254 2.707885-4.082135 6.53277c2.626647 3.960281 8.820932 2.406383 10.513359 2.406383 1.692428 0 8.525772 1.553898 10.495081-2.406383 1.6903974-3.824885-3.28534-6.092739-3.28534-6.092739" stroke="#d6c99d"/></g><path d="m-13.44807 18.627195c-3.723341 2.030912-10.493051 2.030912-14.216391 0m14.216391-2.369399c-3.723341 2.030913-10.493051 2.030913-14.216391 0m14.216391-2.369399c-3.723341 2.030912-10.493051 2.030912-14.216391 0" fill="none" stroke="#d6c99d"/></g></g></svg>