<?xml version="1.0" encoding="UTF-8" standalone="no"?>
<svg
   width="52.157"
   height="52.157"
   version="1.1"
   id="svg10503"
   sodipodi:docname="w+r.svg"
   inkscape:version="1.3 (0e150ed6c4, 2023-07-21)"
   xml:space="preserve"
   xmlns:inkscape="http://www.inkscape.org/namespaces/inkscape"
   xmlns:sodipodi="http://sodipodi.sourceforge.net/DTD/sodipodi-0.dtd"
   xmlns="http://www.w3.org/2000/svg"
   xmlns:svg="http://www.w3.org/2000/svg"
   xmlns:rdf="http://www.w3.org/1999/02/22-rdf-syntax-ns#"
   xmlns:cc="http://creativecommons.org/ns#"
   xmlns:dc="http://purl.org/dc/elements/1.1/"><metadata
     id="metadata10509"><rdf:RDF><cc:Work
         rdf:about=""><dc:format>image/svg+xml</dc:format><dc:type
           rdf:resource="http://purl.org/dc/dcmitype/StillImage" /></cc:Work></rdf:RDF></metadata><defs
     id="defs10507" /><sodipodi:namedview
     pagecolor="#ffffff"
     bordercolor="#666666"
     borderopacity="1"
     objecttolerance="10"
     gridtolerance="10"
     guidetolerance="10"
     inkscape:pageopacity="0"
     inkscape:pageshadow="2"
     inkscape:window-width="3840"
     inkscape:window-height="2036"
     id="namedview10505"
     showgrid="false"
     inkscape:zoom="19.326264"
     inkscape:cx="24.966026"
     inkscape:cy="37.151516"
     inkscape:window-x="3828"
     inkscape:window-y="-12"
     inkscape:window-maximized="1"
     inkscape:current-layer="svg10503"
     inkscape:showpageshadow="2"
     inkscape:pagecheckerboard="0"
     inkscape:deskcolor="#d1d1d1" /><path
     d="m 26.078986,3.396454 -13.673,4.484 -6.418,40.907 h 40.181 l -6.419,-40.907 z"
     opacity="0.9801"
     fill="#fee572"
     fill-opacity=".992"
     stroke="#000000"
     stroke-width="1.04769"
     id="path10471"
     style="fill:#d6c99d;fill-opacity:1;stroke:#393830;stroke-opacity:0.992157" /><path
     style="fill:#ca0c0c;fill-opacity:1;stroke-width:0.103901"
     d="m 21.041984,43.184752 c 1.268933,0.196324 0.681181,-1.770114 1.928004,-1.963894 0.593615,-1.198338 2.32175,-2.173879 3.591338,-1.492399 1.315827,0.256578 0.915775,2.954854 2.346006,1.717605 0.776224,-0.358017 1.612709,-1.893539 1.536461,-0.265224 1.114059,-0.650753 1.754862,-2.108084 2.939278,-2.782108 0.774293,-0.48914 1.530955,0.8385 1.901756,-0.461896 0.66177,-0.576634 0.99254,-2.623508 1.62494,-2.444503 0.6644,0.359644 1.28356,-1.784878 1.6415,-2.477752 0.79671,-1.978707 0.64877,-4.189277 0.33019,-6.242841 1.34177,0.339264 0.66298,-2.110252 0.88594,-3.018233 0.0547,-1.197621 0.82505,-2.567366 -0.0268,-3.555782 1.19956,-1.257371 -1.57617,-1.006957 -2.30713,-1.478416 -2.07802,-0.522613 -4.17869,-1.09088 -6.336254,-1.109347 -0.955601,-0.868817 -1.622149,-2.8374 -3.264686,-2.501918 -1.146505,0.798927 -0.891641,3.039753 -2.715535,2.866268 -2.946517,0.583941 -6.071507,1.507236 -8.123792,3.838237 -0.432144,1.446922 -1.563055,2.368174 -2.949229,2.901319 -1.255604,0.731586 -3.124602,1.231492 -3.525132,2.782868 0.535511,1.279861 0.775471,2.496103 1.004207,3.839649 0.739356,1.23931 2.156523,1.801023 2.937082,3.036172 0.378242,0.565938 2.262456,1.300358 1.182559,0.111079 -0.658435,-0.798139 -0.398918,-1.59215 0.705133,-1.286907 1.513916,-0.06065 3.566531,-0.240019 4.263028,1.468655 -0.150353,1.328054 -1.532755,3.040831 -2.523607,3.644627 -1.42371,-1.452457 -1.105028,0.985442 -0.541911,1.715578 0.319596,1.349887 0.889336,2.886901 2.475683,3.119928 0.250588,-0.01485 0.884685,0.38866 1.020993,0.03924 z"
     id="path1" /><path
     d="m 19.784534,24.326824 c -1.00278,1.745764 -1.87649,1.241312 -0.866,-0.5 1.00278,-1.745764 1.87649,-1.241312 0.866,0.5 z"
     fill="#ececec"
     stroke="#ececec"
     id="path3"
     sodipodi:nodetypes="ccc"
     style="fill:#d6c99d;fill-opacity:1;stroke:#d6c99d;stroke-opacity:1" /></svg>
