<?xml version="1.0" encoding="UTF-8" standalone="no"?>
<svg
   width="52.157"
   height="52.157"
   version="1.1"
   id="svg98222"
   sodipodi:docname="wa.svg"
   inkscape:version="1.3 (0e150ed6c4, 2023-07-21)"
   xml:space="preserve"
   xmlns:inkscape="http://www.inkscape.org/namespaces/inkscape"
   xmlns:sodipodi="http://sodipodi.sourceforge.net/DTD/sodipodi-0.dtd"
   xmlns="http://www.w3.org/2000/svg"
   xmlns:svg="http://www.w3.org/2000/svg"
   xmlns:rdf="http://www.w3.org/1999/02/22-rdf-syntax-ns#"
   xmlns:cc="http://creativecommons.org/ns#"
   xmlns:dc="http://purl.org/dc/elements/1.1/"><metadata
     id="metadata98228"><rdf:RDF><cc:Work
         rdf:about=""><dc:format>image/svg+xml</dc:format><dc:type
           rdf:resource="http://purl.org/dc/dcmitype/StillImage" /></cc:Work></rdf:RDF></metadata><defs
     id="defs98226" /><sodipodi:namedview
     pagecolor="#ffffff"
     bordercolor="#666666"
     borderopacity="1"
     objecttolerance="10"
     gridtolerance="10"
     guidetolerance="10"
     inkscape:pageopacity="0"
     inkscape:pageshadow="2"
     inkscape:window-width="3840"
     inkscape:window-height="2036"
     id="namedview98224"
     showgrid="false"
     inkscape:zoom="9.663132"
     inkscape:cx="19.869334"
     inkscape:cy="30.735376"
     inkscape:window-x="-12"
     inkscape:window-y="-12"
     inkscape:window-maximized="1"
     inkscape:current-layer="svg98222"
     inkscape:showpageshadow="2"
     inkscape:pagecheckerboard="0"
     inkscape:deskcolor="#d1d1d1" /><g
     transform="translate(-0.11215279,-1.6492177)"
     id="g4297"
     style="fill:#d6c99d;fill-opacity:1;stroke:#35342f;stroke-opacity:1"><g
       id="g3979"
       style="opacity:0.99;fill:#d6c99d;fill-opacity:1;stroke:#35342f;stroke-opacity:1"
       transform="matrix(0.6,0,0,0.6,2.7481337,3.0646604)"><path
         style="opacity:0.99;fill:#d6c99d;fill-opacity:1;stroke:#35342f;stroke-width:1.58228;stroke-opacity:1"
         inkscape:connector-curvature="0"
         id="path5763-7"
         d="M 39.071206,3.9201414 16.519858,11.313487 6,78.33148 72.141733,78.331207 61.621843,11.313254 Z"
         sodipodi:nodetypes="cccccc" /></g></g><path
     style="fill:#393831;fill-opacity:1;stroke-width:0.0261854"
     d="M 9.5112933,42.669773 C 9.1477205,42.490575 8.9294615,41.407532 8.9295245,39.782901 c 3.2e-5,-0.545605 0.01305,-0.844218 0.05326,-1.219959 0.0293,-0.273641 0.05929,-0.562335 0.06664,-0.641544 0.03503,-0.376281 0.4595368,-2.610763 0.8258168,-4.346771 1.5389537,-7.293723 3.2262477,-12.323842 4.8861607,-14.566421 0.108921,-0.147177 0.334853,-0.404639 0.502074,-0.57214 0.463707,-0.464539 0.830656,-0.676547 1.27351,-0.735798 0.186673,-0.02499 0.252804,-0.02143 0.525412,0.02825 0.171551,0.03127 0.429927,0.06809 0.574223,0.08186 0.755674,0.0721 1.673666,0.543146 2.906072,1.491166 0.251595,0.193531 0.89303,0.718432 0.929582,0.760687 0.0075,0.0083 0.136815,0.115726 0.288054,0.23867 0.949698,0.772098 1.782137,1.267804 2.571401,1.531195 0.337532,0.112644 0.429482,0.171121 0.512043,0.32571 0.05071,0.09502 0.0609,0.146752 0.05275,0.267139 -0.0096,0.139303 -0.02775,0.175263 -0.273207,0.536802 -0.814043,1.199288 -1.331584,2.462941 -1.708371,4.171281 -0.155951,0.707027 -0.31091,1.775673 -0.368348,2.539983 -0.04727,0.62875 -0.0819,0.716026 -0.456164,1.148951 -0.50583,0.585122 -0.748765,0.946594 -1.288029,1.916436 -0.857815,1.542692 -1.429013,2.388109 -1.999415,2.959239 -0.227556,0.227862 -0.344375,0.323759 -0.470554,0.386235 -0.266304,0.131863 -0.491599,0.108001 -0.632074,-0.06693 -0.032,-0.03989 -0.06282,-0.0598 -0.06846,-0.04422 -0.02961,0.08218 -0.440753,0.743456 -0.609629,0.980805 -0.232618,0.32698 -0.642836,0.744032 -0.830083,0.843908 -0.182089,0.09712 -0.344088,0.117054 -0.492077,0.06054 -0.194124,-0.07413 -0.299099,-0.218087 -0.496407,-0.680732 l -0.03261,-0.07643 -0.08762,0.220456 c -0.285503,0.71828 -0.690818,1.28949 -0.983549,1.386097 -0.32024,0.105693 -0.605934,-0.09268 -0.877938,-0.609631 -0.05874,-0.111597 -0.104401,-0.173095 -0.111405,-0.150001 -0.0066,0.02153 -0.05021,0.186438 -0.09708,0.366461 -0.265413,1.019473 -0.651657,1.734738 -1.033411,1.913661 -0.181738,0.08519 -0.457276,0.05176 -0.594089,-0.07205 -0.04263,-0.0386 -0.04789,-0.03706 -0.06986,0.02064 -0.106884,0.280859 -0.313775,0.740848 -0.509364,1.132571 -0.374177,0.749319 -0.72858,1.232433 -0.9916997,1.351843 -0.137419,0.06236 -0.192119,0.06396 -0.303779,0.0089 z m 32.8097087,-0.02426 c -0.362301,-0.180545 -0.878927,-1.017207 -1.392299,-2.25476 l -0.110744,-0.267009 -0.103669,0.0686 c -0.122294,0.08093 -0.334571,0.107601 -0.478443,0.06012 -0.117331,-0.03871 -0.310121,-0.20138 -0.43621,-0.368027 -0.256487,-0.339019 -0.511209,-0.984874 -0.732209,-1.856785 l -0.02961,-0.116321 -0.09644,0.183302 c -0.21772,0.41373 -0.429863,0.613032 -0.674036,0.633281 -0.105008,0.0087 -0.166044,-0.0022 -0.254776,-0.04504 -0.304996,-0.147633 -0.657457,-0.660294 -0.934077,-1.35856 -0.04734,-0.119572 -0.09405,-0.207945 -0.103731,-0.196391 -0.0096,0.01156 -0.0492,0.103497 -0.08777,0.20431 -0.09147,0.238878 -0.236185,0.429233 -0.384624,0.505937 -0.152347,0.07873 -0.335519,0.06512 -0.527574,-0.03919 -0.198712,-0.107935 -0.514072,-0.417149 -0.766437,-0.75145 -0.212178,-0.281096 -0.622041,-0.928813 -0.656589,-1.037631 -0.02101,-0.06601 -0.05585,-0.06693 -0.0904,-0.0022 -0.0492,0.09182 -0.193792,0.159451 -0.341087,0.159451 -0.387079,0 -0.977879,-0.57299 -1.687517,-1.636586 -0.335449,-0.502791 -0.664382,-1.046219 -0.982703,-1.623526 -0.422921,-0.766937 -0.496475,-0.893262 -0.670764,-1.152158 -0.232303,-0.345064 -0.435625,-0.610713 -0.739053,-0.965553 -0.366698,-0.428809 -0.360678,-0.41039 -0.45011,-1.378038 -0.246762,-2.669808 -0.962827,-4.906299 -2.075067,-6.480879 -0.101728,-0.144019 -0.200902,-0.299774 -0.220432,-0.346115 -0.08431,-0.200252 -0.0035,-0.483064 0.17076,-0.601405 0.04654,-0.03146 0.181098,-0.0888 0.299199,-0.127395 0.880257,-0.287757 1.779627,-0.836861 2.868818,-1.751552 0.981639,-0.824368 1.510516,-1.222185 2.118169,-1.593212 0.712218,-0.434878 1.273834,-0.657202 1.772952,-0.701834 0.158996,-0.01424 0.423169,-0.05093 0.58705,-0.08157 0.260352,-0.0487 0.324952,-0.05211 0.512362,-0.02703 0.455394,0.06094 0.812855,0.270796 1.297601,0.761822 0.530447,0.537302 0.958182,1.187226 1.493043,2.268722 1.126097,2.276806 2.182141,5.552138 3.262351,10.118072 0.454898,1.922824 1.091363,4.997209 1.317841,6.365622 0.02987,0.180026 0.07207,0.427475 0.09395,0.549894 0.08147,0.456013 0.121692,0.976465 0.135769,1.758095 0.03236,1.797872 -0.200653,3.010024 -0.608327,3.165021 -0.101922,0.03875 -0.146017,0.0325 -0.29528,-0.04188 z M 24.391952,17.414298 c -2.098531,-0.213525 -3.641437,-0.797613 -4.150007,-1.571061 -0.352461,-0.536026 -0.362936,-1.402662 -0.02387,-1.965191 1.261159,-2.091574 9.527699,-2.295102 11.508414,-0.283336 0.175352,0.178083 0.359287,0.518308 0.41793,0.772963 0.06055,0.263102 0.04796,0.736356 -0.0273,1.024707 -0.277364,1.062948 -1.792277,1.754512 -4.439076,2.026452 -0.641376,0.06592 -2.620859,0.06314 -3.286269,-0.0043 z m 2.775654,-1.408203 c 1.70016,-0.12135 3.064888,-0.444808 3.872876,-0.91792 0.340812,-0.199555 0.365617,-0.229335 0.26443,-0.317729 C 30.91332,14.428341 29.747606,14.01923 28.634,13.833068 c -1.438052,-0.240402 -3.676743,-0.240218 -5.10617,5.87e-4 -1.133289,0.190795 -2.275398,0.591445 -2.670908,0.936941 -0.101153,0.08838 -0.07638,0.118161 0.264426,0.317736 1.206073,0.706192 3.702603,1.085202 6.046258,0.91792 z"
     id="path1"
     sodipodi:nodetypes="cscccscssssccscccscscsscccssscssccsscccscccscsssccssccccsscccsscsssscccssccsscscccscccscsccscccssscsccc" /></svg>
