<svg height="52.157" width="52.157" xmlns="http://www.w3.org/2000/svg"><path d="m39.071206 3.9201414-22.551348 7.3933456-10.519858 67.017993 66.141733-.000273-10.51989-67.017953z" fill="#d6c99d" opacity=".9801" stroke="#35342f" stroke-width="1.58228" transform="matrix(.6 0 0 .6 2.635981 1.415442)"/><path d="m9.5112933 42.669773c-.3635728-.179198-.5818318-1.262241-.5817688-2.886872.000032-.545605.01305-.844218.05326-1.219959.0293-.273641.05929-.562335.06664-.641544.03503-.376281.4595368-2.610763.8258168-4.346771 1.5389537-7.293723 3.2262477-12.323842 4.8861607-14.566421.108921-.147177.334853-.404639.502074-.57214.463707-.464539.830656-.676547 1.27351-.735798.186673-.02499.252804-.02143.525412.02825.171551.03127.429927.06809.574223.08186.755674.0721 1.673666.543146 2.906072 1.491166.251595.193531.89303.718432.929582.760687.0075.0083.136815.115726.288054.23867.949698.772098 1.782137 1.267804 2.571401 1.531195.337532.112644.429482.171121.512043.32571.05071.09502.0609.146752.05275.267139-.0096.139303-.02775.175263-.273207.536802-.814043 1.199288-1.331584 2.462941-1.708371 4.171281-.155951.707027-.31091 1.775673-.368348 2.539983-.04727.62875-.0819.716026-.456164 1.148951-.50583.585122-.748765.946594-1.288029 1.916436-.857815 1.542692-1.429013 2.388109-1.999415 2.959239-.227556.227862-.344375.323759-.470554.386235-.266304.131863-.491599.108001-.632074-.06693-.032-.03989-.06282-.0598-.06846-.04422-.02961.08218-.440753.743456-.609629.980805-.232618.32698-.642836.744032-.830083.843908-.182089.09712-.344088.117054-.492077.06054-.194124-.07413-.299099-.218087-.496407-.680732l-.03261-.07643-.08762.220456c-.285503.71828-.690818 1.28949-.983549 1.386097-.32024.105693-.605934-.09268-.877938-.609631-.05874-.111597-.104401-.173095-.111405-.150001-.0066.02153-.05021.186438-.09708.366461-.265413 1.019473-.651657 1.734738-1.033411 1.913661-.181738.08519-.457276.05176-.594089-.07205-.04263-.0386-.04789-.03706-.06986.02064-.106884.280859-.313775.740848-.509364 1.132571-.374177.749319-.72858 1.232433-.9916997 1.351843-.137419.06236-.192119.06396-.303779.0089zm32.8097087-.02426c-.362301-.180545-.878927-1.017207-1.392299-2.25476l-.110744-.267009-.103669.0686c-.122294.08093-.334571.107601-.478443.06012-.117331-.03871-.310121-.20138-.43621-.368027-.256487-.339019-.511209-.984874-.732209-1.856785l-.02961-.116321-.09644.183302c-.21772.41373-.429863.613032-.674036.633281-.105008.0087-.166044-.0022-.254776-.04504-.304996-.147633-.657457-.660294-.934077-1.35856-.04734-.119572-.09405-.207945-.103731-.196391-.0096.01156-.0492.103497-.08777.20431-.09147.238878-.236185.429233-.384624.505937-.152347.07873-.335519.06512-.527574-.03919-.198712-.107935-.514072-.417149-.766437-.75145-.212178-.281096-.622041-.928813-.656589-1.037631-.02101-.06601-.05585-.06693-.0904-.0022-.0492.09182-.193792.159451-.341087.159451-.387079 0-.977879-.57299-1.687517-1.636586-.335449-.502791-.664382-1.046219-.982703-1.623526-.422921-.766937-.496475-.893262-.670764-1.152158-.232303-.345064-.435625-.610713-.739053-.965553-.366698-.428809-.360678-.41039-.45011-1.378038-.246762-2.669808-.962827-4.906299-2.075067-6.480879-.101728-.144019-.200902-.299774-.220432-.346115-.08431-.200252-.0035-.483064.17076-.601405.04654-.03146.181098-.0888.299199-.127395.880257-.287757 1.779627-.836861 2.868818-1.751552.981639-.824368 1.510516-1.222185 2.118169-1.593212.712218-.434878 1.273834-.657202 1.772952-.701834.158996-.01424.423169-.05093.58705-.08157.260352-.0487.324952-.05211.512362-.02703.455394.06094.812855.270796 1.297601.761822.530447.537302.958182 1.187226 1.493043 2.268722 1.126097 2.276806 2.182141 5.552138 3.262351 10.118072.454898 1.922824 1.091363 4.997209 1.317841 6.365622.02987.180026.07207.427475.09395.549894.08147.456013.121692.976465.135769 1.758095.03236 1.797872-.200653 3.010024-.608327 3.165021-.101922.03875-.146017.0325-.29528-.04188zm-17.92905-25.231215c-2.098531-.213525-3.641437-.797613-4.150007-1.571061-.352461-.536026-.362936-1.402662-.02387-1.965191 1.261159-2.091574 9.527699-2.295102 11.508414-.283336.175352.178083.359287.518308.41793.772963.06055.263102.04796.736356-.0273 1.024707-.277364 1.062948-1.792277 1.754512-4.439076 2.026452-.641376.06592-2.620859.06314-3.286269-.0043zm2.775654-1.408203c1.70016-.12135 3.064888-.444808 3.872876-.91792.340812-.199555.365617-.229335.26443-.317729-.391592-.342105-1.557306-.751216-2.670912-.937378-1.438052-.240402-3.676743-.240218-5.10617.000587-1.133289.190795-2.275398.591445-2.670908.936941-.101153.08838-.07638.118161.264426.317736 1.206073.706192 3.702603 1.085202 6.046258.91792z" fill="#393831" stroke-width=".026185"/></svg>