<svg height="52.157" width="52.157" xmlns="http://www.w3.org/2000/svg"><path d="m26.078986 3.396454-13.673 4.484-6.418 40.907h40.181l-6.419-40.907z" fill="#d6c99d" opacity=".9801" stroke="#393830" stroke-opacity=".992157" stroke-width="1.04769"/><g style="fill-rule:evenodd;stroke:#000;stroke-width:1.5;stroke-linecap:round;stroke-linejoin:round;fill:#3d3c33" transform="translate(3.578496 5.731471)"><g stroke="#3d3c33" stroke-linecap="butt"><path d="m9 36c3.39-.97 10.11.43 13.5-2 3.39 2.43 10.11 1.03 13.5 2 0 0 1.65.54 3 2-.68.97-1.65.99-3 .5-3.39-.97-10.11.46-13.5-1-3.39 1.46-10.11.03-13.5 1-1.354.49-2.323.47-3-.5 1.354-1.94 3-2 3-2z"/><path d="m15 32c2.5 2.5 12.5 2.5 15 0 .5-1.5 0-2 0-2 0-2.5-2.5-4-2.5-4 5.5-1.5 6-11.5-5-15.5-11 4-10.5 14-5 15.5 0 0-2.5 1.5-2.5 4 0 0-.5.5 0 2z"/><path d="m25 8a2.5 2.5 0 1 1 -5 0 2.5 2.5 0 1 1 5 0z"/></g><path d="m17.5 26h10m-12.5 4h15m-7.5-14.5v5m-2.5-2.5h5" stroke="#d6c99d" stroke-linejoin="miter"/></g></svg>