<?xml version="1.0" encoding="UTF-8" standalone="no"?>
<svg
   width="52.157"
   height="52.157"
   version="1.1"
   id="svg10503"
   sodipodi:docname="wN.svg"
   inkscape:version="1.3 (0e150ed6c4, 2023-07-21)"
   xml:space="preserve"
   xmlns:inkscape="http://www.inkscape.org/namespaces/inkscape"
   xmlns:sodipodi="http://sodipodi.sourceforge.net/DTD/sodipodi-0.dtd"
   xmlns="http://www.w3.org/2000/svg"
   xmlns:svg="http://www.w3.org/2000/svg"
   xmlns:rdf="http://www.w3.org/1999/02/22-rdf-syntax-ns#"
   xmlns:cc="http://creativecommons.org/ns#"
   xmlns:dc="http://purl.org/dc/elements/1.1/"><metadata
     id="metadata10509"><rdf:RDF><cc:Work
         rdf:about=""><dc:format>image/svg+xml</dc:format><dc:type
           rdf:resource="http://purl.org/dc/dcmitype/StillImage" /></cc:Work></rdf:RDF></metadata><defs
     id="defs10507" /><sodipodi:namedview
     pagecolor="#ffffff"
     bordercolor="#666666"
     borderopacity="1"
     objecttolerance="10"
     gridtolerance="10"
     guidetolerance="10"
     inkscape:pageopacity="0"
     inkscape:pageshadow="2"
     inkscape:window-width="3840"
     inkscape:window-height="2036"
     id="namedview10505"
     showgrid="false"
     inkscape:zoom="2.415783"
     inkscape:cx="106.79767"
     inkscape:cy="-23.387862"
     inkscape:window-x="-12"
     inkscape:window-y="-12"
     inkscape:window-maximized="1"
     inkscape:current-layer="svg10503"
     inkscape:showpageshadow="2"
     inkscape:pagecheckerboard="0"
     inkscape:deskcolor="#d1d1d1" /><path
     d="m 26.078986,3.396454 -13.673,4.484 -6.418,40.907 h 40.181 l -6.419,-40.907 z"
     opacity="0.9801"
     fill="#fee572"
     fill-opacity=".992"
     stroke="#000000"
     stroke-width="1.04769"
     id="path10471"
     style="fill:#d6c99d;fill-opacity:1;stroke:#393830;stroke-opacity:0.992157" /><g
     fill="none"
     fill-rule="evenodd"
     stroke="#000000"
     stroke-width="1.5"
     stroke-linecap="round"
     stroke-linejoin="round"
     id="g4"
     transform="matrix(0.95987625,0,0,0.95987625,5.3611212,6.8254787)"><path
       d="m 22,10 c 10.5,1 16.5,8 16,29 H 15 c 0,-9 10,-6.5 8,-21"
       fill="#000000"
       id="path1"
       style="fill:#3a3930;fill-opacity:1;stroke:#3a3930;stroke-opacity:1" /><path
       d="m 24,18 c 0.38,2.91 -5.55,7.37 -8,9 -3,2 -2.82,4.34 -5,4 -1.042,-0.94 1.41,-3.04 0,-3 -1,0 0.19,1.23 -1,2 -1,0 -4.003,1 -4,-4 0,-2 6,-12 6,-12 0,0 1.89,-1.9 2,-3.5 -0.73,-0.994 -0.5,-2 -0.5,-3 1,-1 3,2.5 3,2.5 h 2 c 0,0 0.78,-1.992 2.5,-3 1,0 1,3 1,3"
       fill="#000000"
       id="path2"
       style="fill:#3a3930;fill-opacity:1;stroke:#3a3930;stroke-opacity:1" /><path
       d="m 9.5,25.5 a 0.5,0.5 0 1 1 -1,0 0.5,0.5 0 1 1 1,0 z m 5.433,-9.75 a 0.5,1.5 30 1 1 -0.866,-0.5 0.5,1.5 30 1 1 0.866,0.5 z"
       fill="#ececec"
       stroke="#ececec"
       id="path3"
       style="fill:#d6c99d;fill-opacity:0.98039216;stroke:#d6c99d;stroke-opacity:0.98039216" /><path
       d="M 24.55,10.4 24.1,11.85 24.6,12 c 3.15,1 5.65,2.49 7.9,6.75 2.25,4.26 3.25,10.31 2.75,20.25 l -0.05,0.5 h 2.25 L 37.5,39 C 38,28.94 36.62,22.15 34.25,17.66 31.88,13.17 28.46,11.02 25.06,10.5 Z"
       fill="#ececec"
       stroke="none"
       id="path4"
       style="fill:#d6c99d;fill-opacity:0.98039216" /></g></svg>
