<svg height="52.157" width="52.157" xmlns="http://www.w3.org/2000/svg"><path d="m26.078986 3.396454-13.673 4.484-6.418 40.907h40.181l-6.419-40.907z" fill="#d6c99d" opacity=".9801" stroke="#393830" stroke-opacity=".992157" stroke-width="1.04769"/><g style="fill:none;fill-rule:evenodd;stroke:#000;stroke-width:1.5;stroke-linecap:round;stroke-linejoin:round" transform="matrix(.95987625 0 0 .95987625 5.361121 6.825479)"><path d="m22 10c10.5 1 16.5 8 16 29h-23c0-9 10-6.5 8-21" fill="#3a3930" stroke="#3a3930"/><path d="m24 18c.38 2.91-5.55 7.37-8 9-3 2-2.82 4.34-5 4-1.042-.94 1.41-3.04 0-3-1 0 .19 1.23-1 2-1 0-4.003 1-4-4 0-2 6-12 6-12s1.89-1.9 2-3.5c-.73-.994-.5-2-.5-3 1-1 3 2.5 3 2.5h2s.78-1.992 2.5-3c1 0 1 3 1 3" fill="#3a3930" stroke="#3a3930"/><g fill="#d6c99d" fill-opacity=".980392"><path d="m9.5 25.5a.5.5 0 1 1 -1 0 .5.5 0 1 1 1 0zm5.433-9.75a.5 1.5 30 1 1 -.866-.5.5 1.5 30 1 1 .866.5z" stroke="#d6c99d" stroke-opacity=".980392"/><path d="m24.55 10.4-.45 1.45.5.15c3.15 1 5.65 2.49 7.9 6.75s3.25 10.31 2.75 20.25l-.05.5h2.25l.05-.5c.5-10.06-.88-16.85-3.25-21.34s-5.79-6.64-9.19-7.16z" stroke="none"/></g></g></svg>