<svg height="45" width="45" xmlns="http://www.w3.org/2000/svg"><g style="fill:#fff;fill-rule:evenodd;stroke:#000;stroke-width:1.5;stroke-linecap:round;stroke-linejoin:round" transform="translate(0 3)"><path d="m8 12c0 2.666666-4 2.666666-4 0 0-2.6666655 4-2.6666655 4 0zm16.5-4.5c0 2.666666-4 2.666666-4 0 0-2.6666655 4-2.6666655 4 0zm16.5 4.5c0 2.666666-4 2.666666-4 0 0-2.6666655 4-2.6666655 4 0z"/><path d="m9 26c8.5-1.5 21-1.5 27 0l2-12-7 11-2-5-3.5 4.5-3-15-3 15-3.5-4.5-2 5-7-11z" stroke-linecap="butt"/><path d="m9 26c0 2 1.5 2 2.5 4 1 1.5 1 1 .5 3.5-1.5 1-1.5 2.5-1.5 2.5h23.5s.5-1.5-1-2.5c-.5-2.5-.5-2 .5-3.5 1-2 2.5-2 2.5-4-8.5-1.5-18.5-1.5-27 0z" stroke-linecap="butt"/><path d="m11.5 30c3.5-1 18.5-1 22 0m-21.5 3.5c6-1 15-1 21 0" fill="none"/></g></svg>