<?xml version="1.0" encoding="UTF-8" standalone="no"?>
<svg
   width="45"
   height="45"
   version="1.1"
   id="svg11729"
   sodipodi:docname="Mate.svg"
   inkscape:version="1.2.2 (b0a8486541, 2022-12-01)"
   xml:space="preserve"
   xmlns:inkscape="http://www.inkscape.org/namespaces/inkscape"
   xmlns:sodipodi="http://sodipodi.sourceforge.net/DTD/sodipodi-0.dtd"
   xmlns="http://www.w3.org/2000/svg"
   xmlns:svg="http://www.w3.org/2000/svg"><defs
     id="defs11733" /><sodipodi:namedview
     id="namedview11731"
     pagecolor="#ffffff"
     bordercolor="#666666"
     borderopacity="1.0"
     inkscape:showpageshadow="2"
     inkscape:pageopacity="0.0"
     inkscape:pagecheckerboard="0"
     inkscape:deskcolor="#d1d1d1"
     showgrid="false"
     inkscape:zoom="5.8964849"
     inkscape:cx="111.8463"
     inkscape:cy="8.9036097"
     inkscape:window-width="3840"
     inkscape:window-height="2036"
     inkscape:window-x="-12"
     inkscape:window-y="-12"
     inkscape:window-maximized="1"
     inkscape:current-layer="svg11729" /><g
     aria-label="#"
     id="text13563"
     style="font-size:53.8548px;font-family:Calibri;-inkscape-font-specification:Calibri;fill:#aa4400;stroke-width:0.63111"><path
       d="m 10.719262,37.094441 0.972963,-4.917406 q -3.6288881,-0.07889 -3.6288881,-2.892592 0,-1.314814 0.8940738,-2.129999 0.9203702,-0.841481 2.6822213,-0.841481 h 1.235926 l 1.498888,-7.652221 h -2.734814 q -1.7092586,0 -2.655925,-0.841481 -0.9203701,-0.867778 -0.9203701,-2.103703 0,-1.314815 0.8940738,-2.103703 0.9203702,-0.815185 2.6822213,-0.815185 h 3.918147 l 1.235926,-6.0218507 q 0.289259,-1.5251848 0.631111,-2.3929623 0.368148,-0.8677776 0.972963,-1.3148145 0.631111,-0.447037 1.63037,-0.447037 1.393703,0 2.129999,0.7362962 0.736296,0.7362961 0.736296,1.8933328 0,0.2629629 -0.447037,2.6559253 L 21.474445,12.79667 h 5.758887 L 28.495554,6.7748193 Q 28.758517,5.4074122 28.995183,4.565931 29.23185,3.7244497 29.836665,3.1459313 30.467776,2.567413 31.651109,2.567413 q 1.367407,0 2.103703,0.7099998 0.762592,0.7099998 0.762592,1.9196291 0,0.5522221 -0.07889,1.0781479 -0.05259,0.5259258 -0.157777,1.0255553 -0.105186,0.4733332 -0.131482,0.6048147 l -0.972963,4.9437022 q 3.76037,0.07889 3.76037,2.918888 0,1.314815 -0.894074,2.103704 -0.894074,0.788888 -2.655925,0.788888 h -1.341111 l -1.577777,7.652221 h 2.918888 q 1.761851,0 2.655925,0.841481 0.894074,0.841481 0.894074,2.129999 0,1.288518 -0.894074,2.103703 -0.867778,0.788889 -2.655925,0.788889 h -4.049629 l -1.235925,6.048147 q -0.28926,1.446296 -0.525926,2.235184 -0.210371,0.788889 -0.841481,1.367407 -0.631111,0.604815 -1.814444,0.604815 -1.314815,0 -2.077407,-0.736296 -0.762593,-0.736296 -0.762593,-1.919629 0,-1.078148 0.368148,-2.682222 l 0.972963,-4.917406 h -5.81148 l -1.235926,6.048147 q -0.473333,2.235184 -0.999259,3.234443 -0.499629,0.972963 -2.182592,0.972963 -1.34111,0 -2.103703,-0.736296 -0.762592,-0.736296 -0.762592,-1.919629 0,-0.604815 0.131481,-1.341111 0.157778,-0.762592 0.262963,-1.341111 z m 15.38333,-18.433699 h -5.81148 l -1.551482,7.652221 h 5.864073 z"
       style="-inkscape-font-specification:'Arial Rounded MT Bold, '"
       id="path13565" /></g></svg>
