<svg height="45" width="45" xmlns="http://www.w3.org/2000/svg"><g fill="#fff" fill-rule="evenodd" stroke="#000" stroke-linejoin="round" stroke-width="1.5"><path d="m11.739431 38.925066c3.066743.257181 17.281996.120613 21.371692.09885-.119953-.717942-.112275.161501 0 0 .0162-3.220827-3.52307-7.74646-3.52307-7.74646 7.846009-1.89625 8.623198-14.776264-7.023458-20.002078-15.698495 5.080831-15.0509049 17.967434-7.224337 19.936176 0 0-3.584627 4.492681-3.600827 7.71351.140343.188418.349906-.522656 0 0z" stroke-width="1.61939"/><g fill-rule="evenodd" stroke="#000"><path d="m19.219303-7.038477h4.99122v5.035205h-4.99122z" fill="#808080" stroke-width="1.63374" transform="matrix(.8577326 .51409608 -.85699733 .51532085 0 0)"/><path d="m14.166293 31.27269c1.828428.02827 3.6442.05634 6.406497.06709 2.762296.01075 6.528739.0043 10.2727-.0021" fill="#808080" stroke-width="1.61939"/><path d="m13.218483 35.061617c2.036231.02885 4.058338.0575 7.134517.06847s7.270625.0044 11.440032-.0022" fill="#808080" stroke-width="1.72638"/><path d="m10.667078 27.311819c2.595517.02245 5.172931.04474 9.093834.05327 3.920902.0085 9.267219.0034 14.581623-.0017" fill="#000" stroke-width="1.71916"/></g><path d="m21.089179 9.6961542c-.747505-.445403-1.3591-.8260757-1.3591-.8459392 0-.059974 2.692409-1.6609702 2.793269-1.6609702.100998 0 2.468434 1.3936356 2.650734 1.5604044.08426.077085-.215731.296532-1.269487.9286331-.758904.4552327-1.397036.8276957-1.418071.8276957-.02103 0-.64984-.364421-1.397345-.8098238z" fill="#fff" stroke="none"/></g></svg>