<?xml version="1.0" encoding="UTF-8" standalone="no"?>
<svg
   width="45"
   height="45"
   version="1.1"
   id="svg11729"
   sodipodi:docname="Trade.svg"
   inkscape:version="1.2.2 (b0a8486541, 2022-12-01)"
   xml:space="preserve"
   xmlns:inkscape="http://www.inkscape.org/namespaces/inkscape"
   xmlns:sodipodi="http://sodipodi.sourceforge.net/DTD/sodipodi-0.dtd"
   xmlns="http://www.w3.org/2000/svg"
   xmlns:svg="http://www.w3.org/2000/svg"><defs
     id="defs11733" /><sodipodi:namedview
     id="namedview11731"
     pagecolor="#ffffff"
     bordercolor="#666666"
     borderopacity="1.0"
     inkscape:showpageshadow="2"
     inkscape:pageopacity="0.0"
     inkscape:pagecheckerboard="0"
     inkscape:deskcolor="#d1d1d1"
     showgrid="false"
     inkscape:zoom="5.6568543"
     inkscape:cx="-5.9220193"
     inkscape:cy="-5.7452426"
     inkscape:window-width="3840"
     inkscape:window-height="2036"
     inkscape:window-x="-12"
     inkscape:window-y="-12"
     inkscape:window-maximized="1"
     inkscape:current-layer="svg11729" /><circle
     style="opacity:0.98;fill:#008000;fill-opacity:1;stroke:none;stroke-width:3;stroke-linecap:round;stroke-linejoin:round;stroke-dasharray:none;stroke-opacity:1;paint-order:fill markers stroke"
     id="path13548"
     cx="22.5"
     cy="22.5"
     r="18.994368" /><path
     style="fill:#000000;stroke-width:0.910587;stroke-dasharray:none"
     d="m 36.132981,33.272722 5.14065,-5.455305 -5.14065,-5.455306 c -2.82735,-3.000419 -5.14845,-5.455306 -5.15796,-5.455306 -0.01,0 -0.0173,1.398073 -0.0173,3.106833 v 3.106833 H 25.793978 14.302122 v 4.696946 4.696945 h 11.491856 5.163743 v 3.106831 c 0,1.708758 0.008,3.106834 0.0173,3.106834 0.01,0 2.33061,-2.454887 5.15796,-5.455305 z"
     id="path13697"
     sodipodi:nodetypes="scssscccccccsss" /><path
     style="fill:#ffffff;stroke:#000000;stroke-width:1.09164;stroke-dasharray:none"
     d="M 9.617216,23.983936 C 7.903668,22.1655 6.190119,20.347066 4.47657,18.52863 7.908868,14.890904 11.332509,11.239999 14.775173,7.6180184 c 0.03002,2.0708733 0.01267,4.1424686 0.01727,6.2136676 5.551872,0 11.103734,0 16.655608,0 0,3.131296 0,6.262593 0,9.393888 -5.551874,0 -11.103744,0 -16.655611,0 -0.0045,2.071199 0.01266,4.142789 -0.01727,6.213666 -1.725985,-1.808229 -3.439624,-3.63544 -5.157954,-5.455304 z"
     id="path13699"
     sodipodi:nodetypes="scssscccccccsss" /></svg>
