<svg viewBox="0 0 60 60" xmlns="http://www.w3.org/2000/svg" xmlns:xlink="http://www.w3.org/1999/xlink"><linearGradient id="a" gradientUnits="userSpaceOnUse" spreadMethod="repeat" x1="-29.351" x2="-11.018" y1="30.267" y2="30.267"><stop offset="0" stop-color="#dfb459"/><stop offset=".076" stop-color="#dead54"/><stop offset=".123" stop-color="#e1b85f"/><stop offset=".212" stop-color="#dba84d"/><stop offset=".305" stop-color="#dfb765"/><stop offset=".539" stop-color="#d8a94e"/><stop offset=".586" stop-color="#d5ab53"/><stop offset=".84" stop-color="#e0bf6e"/><stop offset=".924" stop-color="#daae52"/><stop offset=".962" stop-color="#d9af57"/><stop offset="1" stop-color="#e1b663"/></linearGradient><filter id="b"><feGaussianBlur in="SourceAlpha" result="blur" stdDeviation="2"/><feOffset dx="2" dy="2" result="offsetBlur"/><feBlend in="SourceGraphic" in2="offsetBlur"/></filter><g fill="url(#a)" filter="url(#b)" transform="matrix(.84306 0 0 .84306 38.888 4.483)"><path d="m-10.282 7.519-12.837 3.607-7.052 44.45h39.935l-6.79-44.163-.679-1.28.19 1.137c-4.255-1.25-8.514-2.504-12.767-3.751z" fill="#815e0c"/><path d="m-10.96 6.237-12.838 3.608-7.051 44.451h39.934l-6.79-44.163c-4.418-1.298-8.839-2.6-13.255-3.896z" fill="url(#a)"/></g><g stroke="#000" stroke-linejoin="round" stroke-width="1.313" transform="matrix(.42483 0 0 .5171 39.812 -3.465)"><path d="m-23.356 37.944c-2.134 9.081-4.332 14.438-13.39 20.588 8.914 3.135 18.701 2.896 26.78 0-9.058-6.15-11.255-11.507-13.39-20.588z"/><path d="m-26.818 58.55c-.101 8.756-.37 15.837-11.545 21.428-5.232 2.786-6.963 4.476-7.615 9.333 6.785 1.493 14.837 2.21 22.883 2.179 8.046.031 16.097-.686 22.882-2.18-.651-4.856-2.382-6.546-7.615-9.332-11.174-5.591-11.443-12.672-11.545-21.428-1.24.02-2.481.02-3.722.02s-2.482 0-3.723-.02z"/></g><path d="m12.88 50.258.571 1.08h33.669l-.571-1.08z" fill="#654b13"/></svg>