<svg viewBox="0 0 60 60" xmlns="http://www.w3.org/2000/svg" xmlns:xlink="http://www.w3.org/1999/xlink"><linearGradient id="a" gradientUnits="userSpaceOnUse" spreadMethod="repeat" x1="-30.849" x2="-14.721" y1="30.267" y2="30.267"><stop offset="0" stop-color="#dfb459"/><stop offset=".033" stop-color="#dead54"/><stop offset=".093" stop-color="#e1b85f"/><stop offset=".165" stop-color="#dba84d"/><stop offset=".305" stop-color="#dfb765"/><stop offset=".539" stop-color="#d8a94e"/><stop offset=".586" stop-color="#d5ab53"/><stop offset=".84" stop-color="#e0bf6e"/><stop offset=".924" stop-color="#daae52"/><stop offset=".962" stop-color="#d9af57"/><stop offset="1" stop-color="#e1b663"/></linearGradient><filter id="b"><feGaussianBlur in="SourceAlpha" result="blur" stdDeviation="2"/><feOffset dx="2" dy="2" result="offsetBlur"/><feBlend in="SourceGraphic" in2="offsetBlur"/></filter><g fill="#fecb00" filter="url(#b)" transform="matrix(.93934 0 0 .93934 39.935 1.558)"><path d="m-10.348 7.413-12.84 3.608-7.05 44.45h39.934l-6.789-44.161-.611-1.177.164 1.046z" fill="#83611c"/><path d="m-10.96 6.237-12.838 3.608-7.051 44.45h39.934l-6.79-44.163z" fill="url(#a)"/></g><path d="m11.531 53.665-.574-1.105h37.511l.575 1.105z" fill="#654b13"/><path d="m30.008 12.6-.303.423c-.88 1.231-1.746 2.732-3.103 3.324l-.569.246.483.392c.912.739 1.493 2.048 1.81 3.75.073.388.127.801.174 1.225-1.321.534-2.515 1.368-3.635 2.377.389.246.952.582 1.688.977 1.2.642 2.68.86 3.457.86.79.002 2.274-.218 3.472-.86.747-.4 1.28-.736 1.665-.98-1.118-1.008-2.308-1.841-3.627-2.374.046-.424.1-.837.171-1.225.318-1.702.897-3.011 1.81-3.75l.483-.392-.568-.246c-1.357-.592-2.225-2.093-3.105-3.324zm-10.025 2.212-.622.023c-.08 4.185.191 8.092 1.704 10.961a8.01 8.01 0 0 0 2.119 2.58c.39.142 1.18.421 2.334.764 1.506.447 3.34.884 4.48.885 1.143 0 2.984-.438 4.494-.885a41.6 41.6 0 0 0 2.309-.752 8.004 8.004 0 0 0 2.133-2.592c1.512-2.87 1.783-6.776 1.703-10.96l-.621-.024c-.319 4.498-1.059 7.261-2.559 8.966-.369.42-.806.762-1.285 1.069l.006.01s-.975.67-2.225 1.34-2.718.981-3.943.98c-1.215-.002-2.68-.314-3.93-.983-1.25-.668-2.258-1.335-2.258-1.335l.008-.012c-.48-.307-.92-.649-1.289-1.068-1.5-1.705-2.24-4.469-2.559-8.967zm2.85 14.539c-2.324 4.954-6.477 10.71-8.36 13.316l-.196.268.17.29c.873 1.49 2.602 3.547 4.418 3.987l.29.07.134-.31c.339-.778 1.224-4.756 2.197-7.471.004 0 .006.003.008.004l3.01-9.593c-.931-.296-1.416-.47-1.672-.561zm14.339.006c-.262.092-.735.26-1.658.552l3.06 9.756c.947 2.642 1.804 6.546 2.135 7.307l.137.31.289-.07c1.816-.44 3.544-2.496 4.416-3.986l.172-.291-.196-.268c-1.882-2.605-6.031-8.359-8.355-13.31zm-2.613.85c-1.5.436-3.236.863-4.56.862-1.32 0-3.046-.425-4.54-.86l-.61 1.943c.342.122.902.318 1.712.558 1.156.343 2.565.68 3.44.68.876 0 2.29-.336 3.45-.68.813-.24 1.374-.436 1.717-.558zm-9.95 2.71-2.189 6.983c2.073.887 5.395 2.16 7.58 2.164 2.176.003 5.486-1.241 7.607-2.135l-2.199-7.012c-.362.13-.924.324-1.728.563-1.189.352-2.611.71-3.68.71-1.066 0-2.483-.36-3.668-.712-.8-.238-1.36-.431-1.723-.56z"/></svg>