<svg viewBox="0 0 60 60" xmlns="http://www.w3.org/2000/svg" xmlns:xlink="http://www.w3.org/1999/xlink"><linearGradient id="a" gradientUnits="userSpaceOnUse" spreadMethod="repeat" x1="-30.849" x2="-15.094" y1="30.267" y2="30.267"><stop offset="0" stop-color="#dfb459"/><stop offset=".041" stop-color="#dead54"/><stop offset=".082" stop-color="#e1b85f"/><stop offset=".165" stop-color="#dba84d"/><stop offset=".305" stop-color="#dfb765"/><stop offset=".539" stop-color="#d8a94e"/><stop offset=".586" stop-color="#d5ab53"/><stop offset=".84" stop-color="#e0bf6e"/><stop offset=".924" stop-color="#daae52"/><stop offset=".962" stop-color="#d9af57"/><stop offset="1" stop-color="#e1b663"/></linearGradient><filter id="b"><feGaussianBlur in="SourceAlpha" result="blur" stdDeviation="2"/><feOffset dx="2" dy="2" result="offsetBlur"/><feBlend in="SourceGraphic" in2="offsetBlur"/></filter><g fill="#75581b" filter="url(#b)"><path d="m26.629 7.139-12.839 3.609-6.865 43.28-.815.001.63 1.168h39.933c-2.303-14.885-4.075-30.55-6.79-44.162l-.628-1.17.203 1.045z" fill="#84631f" transform="translate(3.607)"/></g><path d="m-10.96 6.237-12.838 3.608-7.051 44.45h39.934c-2.303-14.885-4.076-30.55-6.79-44.163z" fill="url(#a)" transform="translate(40.568 -.267)"/><path d="m9.719 54.029.629 1.168h39.932l-.628-1.168z" fill="#654b13"/><path d="m41.364 42.419v8.086h5.242l.837 2.478h-6.079v9.13h10.066l.836 2.869h-24.302l.836-2.87h9.952v-9.13h-6.237l.836-2.477h5.401v-8.086h-7.136l-.836-2.87h18.597l-.836 2.87z" opacity=".99" stroke="#000" stroke-linejoin="round" stroke-width=".453165" transform="matrix(1.19582 0 0 1.07583 -18.285 -24.036)"/></svg>