<svg viewBox="0 0 60 60" xmlns="http://www.w3.org/2000/svg" xmlns:xlink="http://www.w3.org/1999/xlink"><linearGradient id="a"><stop offset="0" stop-color="#dfb459"/><stop offset=".041" stop-color="#dead54"/><stop offset=".082" stop-color="#e1b85f"/><stop offset=".165" stop-color="#dba84d"/><stop offset=".305" stop-color="#dfb765"/><stop offset=".539" stop-color="#d8a94e"/><stop offset=".586" stop-color="#d5ab53"/><stop offset=".84" stop-color="#e0bf6e"/><stop offset=".924" stop-color="#daae52"/><stop offset=".962" stop-color="#d9af57"/><stop offset="1" stop-color="#e1b663"/></linearGradient><linearGradient id="b" gradientUnits="userSpaceOnUse" spreadMethod="repeat" x1="10.033" x2="25.788" xlink:href="#a" y1="30" y2="30"/><linearGradient id="c" gradientUnits="userSpaceOnUse" spreadMethod="repeat" x1="10.64153255" x2="27.06745445" xlink:href="#a" y1="23.97048065" y2="23.97048065"/><linearGradient id="d" gradientTransform="matrix(.67915 0 0 -.67915 -40.753 -23.17)" gradientUnits="userSpaceOnUse" spreadMethod="repeat" x1="75.312" x2="95.987" xlink:href="#a" y1="-90.081" y2="-90.081"/><linearGradient id="e" gradientUnits="userSpaceOnUse" x1="20.983999" x2="35.8071269" xlink:href="#a" y1="39.7665309" y2="39.7665309"/><linearGradient id="f" gradientUnits="userSpaceOnUse" spreadMethod="repeat" x1="-.3702924" x2="12.92271055" xlink:href="#a" y1="39.77807645" y2="39.77807645"/><linearGradient id="g" gradientTransform="matrix(.67915 0 0 -.67915 -40.733 -23.17)" gradientUnits="userSpaceOnUse" x1="95.613" x2="112.685" xlink:href="#a" y1="-93.112" y2="-93.112"/><linearGradient id="h" gradientUnits="userSpaceOnUse" x1="27.94721315" x2="32.05199575" xlink:href="#a" y1="42.09020265" y2="42.09020265"/><linearGradient id="i" gradientUnits="userSpaceOnUse" x1="27.90476705" x2="32.0958017" xlink:href="#a" y1="42.09020265" y2="42.09020265"/><linearGradient id="j" gradientUnits="userSpaceOnUse" x1="24.54550625" x2="35.4546927" xlink:href="#a" y1="40.5261202" y2="40.5261202"/><linearGradient id="k" gradientUnits="userSpaceOnUse" x1="24.50399415" x2="35.4973952" xlink:href="#a" y1="42.09020265" y2="42.09020265"/><linearGradient id="l" gradientUnits="userSpaceOnUse" x1="26.76099115" x2="33.24008215" xlink:href="#a" y1="40.64497145" y2="40.64497145"/><linearGradient id="m" gradientUnits="userSpaceOnUse" x1="26.8599813" x2="33.14143965" xlink:href="#a" y1="40.5655109" y2="40.5655109"/><linearGradient id="n" gradientUnits="userSpaceOnUse" x1="29.66026695" x2="30.33941695" xlink:href="#a" y1="39.70231125" y2="39.70231125"/><filter id="o"><feGaussianBlur in="SourceAlpha" result="blur" stdDeviation="2"/><feOffset dx="2" dy="2" result="offsetBlur"/><feBlend in="SourceGraphic" in2="offsetBlur"/></filter><g fill="#75581b" filter="url(#o)" transform="translate(41.197 .902)"><path d="m-10.96 6.237-12.84 3.61-6.865 43.278-.814.002.629 1.168h39.934c-2.303-14.885-4.074-30.55-6.789-44.162l-.629-1.17.203 1.045-12.83-3.771z" fill="#84631f"/></g><path d="m29.922 5.97-12.838 3.608-7.051 44.45h39.934c-2.303-14.885-4.076-30.55-6.79-44.163z" fill="url(#b)"/><path d="m30.15 43.44-.3-3.01" fill="none" stroke="#ffffe5" stroke-width=".679"/><path d="m24.462 40.64h11.076" fill="none" stroke="#fff" stroke-width=".679"/><g stroke="#000"><path d="m35.791 39.906a5.975 6.2 0 0 0 -.034-.158 5.975 6.2 0 0 0 -.188-.589 5.975 6.2 0 0 0 -.245-.565 5.975 6.2 0 0 0 -.296-.537 5.975 6.2 0 0 0 -.348-.506 5.975 6.2 0 0 0 -.394-.465 5.975 6.2 0 0 0 -.437-.422 5.975 6.2 0 0 0 -.475-.375 5.975 6.2 0 0 0 -.51-.324 5.975 6.2 0 0 0 -.537-.27 5.975 6.2 0 0 0 -.56-.212 5.975 6.2 0 0 0 -.58-.153 5.975 6.2 0 0 0 -.59-.093 5.975 6.2 0 0 0 -.598-.03 5.975 6.2 0 0 0 -.422.014 5.975 6.2 0 0 0 -.592.075 5.975 6.2 0 0 0 -.584.136 5.975 6.2 0 0 0 -.566.195 5.975 6.2 0 0 0 -.546.253 5.975 6.2 0 0 0 -.518.31 5.975 6.2 0 0 0 -.486.36 5.975 6.2 0 0 0 -.448.409 5.975 6.2 0 0 0 -.407.453 5.975 6.2 0 0 0 -.362.494 5.975 6.2 0 0 0 -.312.528 5.975 6.2 0 0 0 -.26.558 5.975 6.2 0 0 0 -.204.582 5.975 6.2 0 0 0 -.083.332z" stroke-linecap="round" stroke-linejoin="round" stroke-width=".679"/><path d="m18.534 23.367v17.29h2.657a9.064 9.064 0 0 1 .045-.302 9.064 9.064 0 0 1 .224-.877 9.064 9.064 0 0 1 .31-.851 9.064 9.064 0 0 1 .394-.816 9.064 9.064 0 0 1 .474-.772 9.064 9.064 0 0 1 .55-.722 9.064 9.064 0 0 1 .616-.663 9.064 9.064 0 0 1 .682-.598 9.064 9.064 0 0 1 .736-.527 9.064 9.064 0 0 1 .787-.45 9.064 9.064 0 0 1 .826-.37 9.064 9.064 0 0 1 .86-.286 9.064 9.064 0 0 1 .884-.199 9.064 9.064 0 0 1 .9-.109 9.064 9.064 0 0 1 .64-.022 9.064 9.064 0 0 1 .906.045 9.064 9.064 0 0 1 .896.135 9.064 9.064 0 0 1 .878.224 9.064 9.064 0 0 1 .85.31 9.064 9.064 0 0 1 .817.395 9.064 9.064 0 0 1 .772.473 9.064 9.064 0 0 1 .722.55 9.064 9.064 0 0 1 .662.616 9.064 9.064 0 0 1 .598.68 9.064 9.064 0 0 1 .528.738 9.064 9.064 0 0 1 .45.785 9.064 9.064 0 0 1 .37.828 9.064 9.064 0 0 1 .286.86 9.064 9.064 0 0 1 .198.884 9.064 9.064 0 0 1 .005.04h2.409v-17.289z" stroke-linecap="round" stroke-linejoin="round" stroke-width=".679"/><path d="m39.231 41.796h3.914l-.89-1.13-.729-.02-2.41.001c.05.288.085.578.107.869.005.093.007.186.01.28zm-17.98-1.144-2.6.002-.903-.006-.894 1.148h4.28a9.03 9.03 0 0 1 .027-.544 8.68 8.68 0 0 1 .09-.6z" stroke-linejoin="round" stroke-width=".679"/><path d="m27.968 43.59 4.062-.01-.006-1.556-3.946.002a9.157 7.96 0 0 1 .013.321 9.157 7.96 0 0 1 -.045.795 9.157 7.96 0 0 1 -.078.447z" stroke-width=".64"/><path d="m32.071 42.006-4.311.004.01 1.635 4.406-.01a9.106 8.144 0 0 1 -.1-.737 9.106 8.144 0 0 1 -.022-.576 9.106 8.144 0 0 1 .017-.316z" stroke-width=".645"/><path d="m24.135 40.536a5.882 10.226 0 0 0 -.017.584 5.882 10.226 0 0 0 .014.724 5.882 10.226 0 0 0 .07 1.015 5.882 10.226 0 0 0 .086.656l11.43-.05a5.882 10.226 0 0 0 .046-.313 5.882 10.226 0 0 0 .089-1.01 5.882 10.226 0 0 0 .029-1.022 5.882 10.226 0 0 0 -.012-.6z" stroke-width=".865"/><path d="m18.523 23.383c-1.812-1.328-1.658-1.655-2.585-3.66 9.525.986 19.13 1.089 28.123-.036-.649 2.129-.769 2.543-2.532 3.776z" stroke-linejoin="round" stroke-width=".679"/><path d="m29.999 32.402a9.064 9.064 0 0 0 -9.063 9.064 9.064 9.064 0 0 0 9.063 9.065 9.064 9.064 0 0 0 9.065-9.065 9.064 9.064 0 0 0 -9.065-9.064zm0 2.864a5.975 6.2 0 0 1 5.976 6.2 5.975 6.2 0 0 1 -5.976 6.2 5.975 6.2 0 0 1 -5.974-6.2 5.975 6.2 0 0 1 5.974-6.2z" stroke-linecap="round" stroke-linejoin="round" stroke-width=".566"/><path d="m30 42.007v6.393" fill="none" stroke-width=".679"/></g><path d="m18.104 24.091 23.792.12" fill="#fff" stroke="url(#c)"/><path d="m25.611 46.299 4.292-4.353 4.487 4.488" fill="none" stroke="#000" stroke-width=".679"/><path d="m27.905 42.09h4.19" fill="#fff" stroke="url(#i)" stroke-width=".867"/><path d="m24.503 42.09h10.994" fill="#fff" stroke="url(#k)" stroke-width=".681"/><path d="m27.948 42.09h4.104" fill="#fff" stroke="url(#h)" stroke-width=".867"/><path d="m30 43.715v-8.025" fill="none" stroke="url(#n)" stroke-width=".679"/><path d="m32.896 43.579-5.792-6.027" fill="#fff" stroke="url(#m)" stroke-width=".679"/><path d="m27.003 43.694 5.994-6.098" fill="none" stroke="url(#l)" stroke-width=".679"/><path d="m34.461 44.45a5.467 5.467 0 0 0 -.808-7.229 5.467 5.467 0 0 0 -7.274-.028 5.467 5.467 0 0 0 -.865 7.223" fill="none" stroke="url(#g)" stroke-linejoin="bevel" stroke-width=".661"/><path d="m24.545 40.526h10.91" fill="none" stroke="url(#j)" stroke-width=".679"/><path d="m39.43 44.34a9.794 9.794 0 0 0 -3.83-10.683 9.794 9.794 0 0 0 -11.347.104 9.794 9.794 0 0 0 -3.632 10.751" fill="none" stroke="url(#d)" stroke-linejoin="bevel" stroke-width="1.104"/><path d="m28.801 39.767h2.399" fill="#fff" stroke="url(#e)" stroke-width="1.083"/><path d="m29.026 39.778h1.948" fill="#fff" stroke="url(#f)" stroke-width="1.083"/><path d="m9.719 54.03.628 1.167h39.934l-.628-1.168z" fill="#654b13"/></svg>