<?xml version="1.0" encoding="UTF-8" standalone="no"?>
<svg
   viewBox="0 0 60 60"
   version="1.1"
   id="svg20"
   sodipodi:docname="0KE.svg"
   inkscape:version="1.3 (0e150ed6c4, 2023-07-21)"
   xmlns:inkscape="http://www.inkscape.org/namespaces/inkscape"
   xmlns:sodipodi="http://sodipodi.sourceforge.net/DTD/sodipodi-0.dtd"
   xmlns:xlink="http://www.w3.org/1999/xlink"
   xmlns="http://www.w3.org/2000/svg"
   xmlns:svg="http://www.w3.org/2000/svg">
  <sodipodi:namedview
     id="namedview20"
     pagecolor="#ffffff"
     bordercolor="#666666"
     borderopacity="1.0"
     inkscape:showpageshadow="2"
     inkscape:pageopacity="0.0"
     inkscape:pagecheckerboard="0"
     inkscape:deskcolor="#d1d1d1"
     inkscape:zoom="11.313708"
     inkscape:cx="27.53297"
     inkscape:cy="20.948038"
     inkscape:window-width="3840"
     inkscape:window-height="2054"
     inkscape:window-x="-11"
     inkscape:window-y="-11"
     inkscape:window-maximized="1"
     inkscape:current-layer="svg20" />
  <defs
     id="defs11">
    <linearGradient
       id="0KE_svg__a">
      <stop
         offset="0"
         stop-color="#dfb459"
         id="stop1" />
      <stop
         offset=".042"
         stop-color="#dead54"
         id="stop2" />
      <stop
         offset=".093"
         stop-color="#e1b85f"
         id="stop3" />
      <stop
         offset=".165"
         stop-color="#dba84d"
         id="stop4" />
      <stop
         offset=".305"
         stop-color="#dfb765"
         id="stop5" />
      <stop
         offset=".539"
         stop-color="#d8a94e"
         id="stop6" />
      <stop
         offset=".586"
         stop-color="#d5ab53"
         id="stop7" />
      <stop
         offset=".84"
         stop-color="#e0bf6e"
         id="stop8" />
      <stop
         offset=".924"
         stop-color="#daae52"
         id="stop9" />
      <stop
         offset=".962"
         stop-color="#d9af57"
         id="stop10" />
      <stop
         offset="1"
         stop-color="#e1b663"
         id="stop11" />
    </linearGradient>
    <linearGradient
       xlink:href="#0KE_svg__a"
       id="0KE_svg__b"
       x1="287.356"
       x2="301.335"
       y1="53.513"
       y2="53.513"
       gradientUnits="userSpaceOnUse"
       spreadMethod="repeat" />
    <linearGradient
       xlink:href="#0KE_svg__a"
       id="0KE_svg__f"
       x1="-134.375"
       x2="-104.096"
       y1="82.638"
       y2="82.638"
       gradientUnits="userSpaceOnUse" />
    <linearGradient
       xlink:href="#0KE_svg__a"
       id="0KE_svg__g"
       x1="-134.375"
       x2="-104.096"
       y1="82.638"
       y2="82.638"
       gradientUnits="userSpaceOnUse" />
    <linearGradient
       xlink:href="#0KE_svg__a"
       id="0KE_svg__i"
       x1="373.592"
       x2="376.533"
       y1="89.663"
       y2="89.663"
       gradientUnits="userSpaceOnUse" />
    <linearGradient
       xlink:href="#0KE_svg__a"
       id="0KE_svg__e"
       x1="-96.59"
       x2="-93.377"
       y1="92.733"
       y2="92.733"
       gradientUnits="userSpaceOnUse" />
    <linearGradient
       xlink:href="#0KE_svg__a"
       id="0KE_svg__h"
       x1="-136.475"
       x2="-99.186"
       y1="99.718"
       y2="99.718"
       gradientUnits="userSpaceOnUse"
       spreadMethod="repeat" />
    <linearGradient
       xlink:href="#1FU_svg__b"
       id="0KE_svg__d"
       x1="287.35599"
       x2="301.33499"
       y1="53.513"
       y2="53.513"
       gradientUnits="userSpaceOnUse"
       spreadMethod="repeat" />
    <filter
       id="0KE_svg__c"
       x="-0.1184454"
       y="-0.097087379"
       width="1.2862431"
       height="1.2346278">
      <feGaussianBlur
         in="SourceAlpha"
         result="blur"
         stdDeviation="2"
         id="feGaussianBlur11" />
      <feOffset
         dx="2"
         dy="2"
         result="offsetBlur"
         id="feOffset11" />
      <feBlend
         in="SourceGraphic"
         in2="offsetBlur"
         id="feBlend11" />
    </filter>
    <linearGradient
       xlink:href="#0FU_svg__a"
       id="0FU_svg__b"
       x1="-29.351"
       x2="-11.018"
       y1="30.267"
       y2="30.267"
       gradientUnits="userSpaceOnUse"
       spreadMethod="repeat" />
    <linearGradient
       id="0FU_svg__a">
      <stop
         offset="0"
         stop-color="#dfb459"
         id="stop1-4" />
      <stop
         offset=".076"
         stop-color="#dead54"
         id="stop2-5" />
      <stop
         offset=".123"
         stop-color="#e1b85f"
         id="stop3-4" />
      <stop
         offset=".212"
         stop-color="#dba84d"
         id="stop4-7" />
      <stop
         offset=".305"
         stop-color="#dfb765"
         id="stop5-5" />
      <stop
         offset=".539"
         stop-color="#d8a94e"
         id="stop6-2" />
      <stop
         offset=".586"
         stop-color="#d5ab53"
         id="stop7-3" />
      <stop
         offset=".84"
         stop-color="#e0bf6e"
         id="stop8-4" />
      <stop
         offset=".924"
         stop-color="#daae52"
         id="stop9-5" />
      <stop
         offset=".962"
         stop-color="#d9af57"
         id="stop10-0" />
      <stop
         offset="1"
         stop-color="#e1b663"
         id="stop11-3" />
    </linearGradient>
    <filter
       id="0FU_svg__c"
       x="-0.11818876"
       y="-0.097286123"
       width="1.2856228"
       height="1.2351081">
      <feGaussianBlur
         in="SourceAlpha"
         result="blur"
         stdDeviation="2"
         id="feGaussianBlur11-1" />
      <feOffset
         dx="2"
         dy="2"
         result="offsetBlur"
         id="feOffset11-2" />
      <feBlend
         in="SourceGraphic"
         in2="offsetBlur"
         id="feBlend11-5"
         mode="normal" />
    </filter>
    <linearGradient
       xlink:href="#1FU_svg__b"
       id="0FU_svg__d"
       x1="-29.351"
       x2="-11.018"
       y1="30.267"
       y2="30.267"
       gradientUnits="userSpaceOnUse"
       spreadMethod="repeat" />
    <linearGradient
       id="1FU_svg__b">
      <stop
         offset="0"
         stop-color="#e5c37b"
         id="stop23" />
      <stop
         offset=".042"
         stop-color="#e4bd76"
         id="stop24" />
      <stop
         offset=".093"
         stop-color="#e7c781"
         id="stop25" />
      <stop
         offset=".165"
         stop-color="#e2b86e"
         id="stop26" />
      <stop
         offset=".305"
         stop-color="#e6c686"
         id="stop27" />
      <stop
         offset=".539"
         stop-color="#dfb96f"
         id="stop28" />
      <stop
         offset=".586"
         stop-color="#ddbb73"
         id="stop29" />
      <stop
         offset=".84"
         stop-color="#e7ce8f"
         id="stop30" />
      <stop
         offset=".924"
         stop-color="#e1bd73"
         id="stop31" />
      <stop
         offset=".962"
         stop-color="#e0bf78"
         id="stop32" />
      <stop
         offset="1"
         stop-color="#e7c685"
         id="stop33" />
    </linearGradient>
    <filter
       style="color-interpolation-filters:sRGB;"
       inkscape:label="Matte Jelly"
       id="filter21"
       x="-0.027907066"
       y="-0.022216654"
       width="1.0558141"
       height="1.0444333">
      <feColorMatrix
         values="1 0 0 0 0 0 1 0 0 0 0 0 1 0 0 0 0 0 0.85 0"
         result="color"
         in="SourceGraphic"
         id="feColorMatrix20" />
      <feGaussianBlur
         in="SourceAlpha"
         stdDeviation="0.32"
         result="blur"
         id="feGaussianBlur20" />
      <feSpecularLighting
         in="blur"
         specularExponent="25"
         specularConstant="2.01863"
         surfaceScale="5"
         lighting-color="rgb(255,255,255)"
         result="specular"
         id="feSpecularLighting20">
        <feDistantLight
           elevation="25"
           azimuth="245"
           id="feDistantLight20" />
      </feSpecularLighting>
      <feComposite
         in="specular"
         in2="SourceGraphic"
         k3="1"
         k2="1"
         operator="arithmetic"
         result="composite1"
         id="feComposite20" />
      <feComposite
         in="composite1"
         in2="color"
         operator="atop"
         result="composite2"
         id="feComposite21" />
    </filter>
  </defs>
  <g
     fill="url(#0KE_svg__b)"
     filter="url(#0KE_svg__c)"
     transform="translate(39.641 2.874)scale(.91071)"
     id="g12">
    <path
       fill="#826015"
       d="M-10.368 7.62c-4.319 1-8.69 2.087-12.838 3.607l-7.05 44.45H9.676l-6.79-44.163c-4.418-1.297-8.838-2.6-13.255-3.895z"
       id="path11" />
    <path
       fill="url(#0KE_svg__d)"
       d="M-10.96 6.237c-4.319 1-8.69 2.088-12.838 3.608l-7.051 44.45H9.085l-6.79-44.162c-4.418-1.298-8.839-2.6-13.255-3.896"
       id="path12" />
  </g>
  <path
     fill="#815e0c"
     d="m 41.730598,12.102 0.27,0.629 0.27,0.629 -0.178,-0.03 -0.178,-0.03 -0.092,-0.599 z"
     id="path19"
     sodipodi:nodetypes="ccccccc" />
  <path
     fill="#654b13"
     d="m11.546 52.322.54 1.258h36.368l-.54-1.258z"
     id="path20" />
  <path
     id="path7388-6"
     style="color:#000000;font-style:normal;font-variant:normal;font-weight:normal;font-stretch:normal;font-size:medium;line-height:normal;font-family:sans-serif;font-variant-ligatures:normal;font-variant-position:normal;font-variant-caps:normal;font-variant-numeric:normal;font-variant-alternates:normal;font-variant-east-asian:normal;font-feature-settings:normal;font-variation-settings:normal;text-indent:0;text-align:start;text-decoration:none;text-decoration-line:none;text-decoration-style:solid;text-decoration-color:#000000;letter-spacing:normal;word-spacing:normal;text-transform:none;writing-mode:lr-tb;direction:ltr;text-orientation:mixed;dominant-baseline:auto;baseline-shift:baseline;text-anchor:start;white-space:normal;shape-padding:0;shape-margin:0;inline-size:0;clip-rule:nonzero;display:inline;overflow:visible;visibility:visible;opacity:0.99;isolation:auto;mix-blend-mode:normal;color-interpolation:sRGB;color-interpolation-filters:linearRGB;solid-color:#000000;solid-opacity:1;fill:#000000;fill-opacity:0.992157;fill-rule:nonzero;stroke:none;stroke-width:0.7;stroke-linecap:butt;stroke-linejoin:miter;stroke-miterlimit:4;stroke-dasharray:none;stroke-dashoffset:0;stroke-opacity:0.53725493;color-rendering:auto;image-rendering:auto;shape-rendering:auto;text-rendering:auto;enable-background:accumulate;stop-color:#000000;paint-order:stroke fill markers"
     d="m 27.527205,13.649339 -0.251953,0.22461 c -0.672893,0.598989 -0.963066,1.356766 -1.103516,2.126953 -0.122961,0.673955 -0.143948,1.360295 -0.21289,2.023437 l -0.535156,-0.07227 -2.648438,-3.121094 -0.199219,0.376953 c -0.765056,1.443241 -0.479621,3.030823 -0.472656,4.466797 -1.142022,2.358104 -1.940681,4.254735 -1.8125,6.464844 -1.516256,1.699596 -2.864837,3.517797 -3.742187,5.632812 l -0.0098,0.02148 -0.0039,0.02148 c -0.250574,1.049932 -0.490111,2.167742 -0.05273,3.304688 l 0.03711,0.09961 0.580078,0.320312 c 0.338456,0.701325 0.580622,1.189958 0.998047,1.484375 0.368039,0.259887 0.831009,0.309947 1.46289,0.25586 l 0.470704,-0.66211 c 0.383333,3.23e-4 0.761516,0.02403 1.134765,0.06641 l -0.720703,1.013671 0.152344,0.369141 0.253906,-0.08203 c 0.831847,-0.267863 1.410601,-0.611449 1.849609,-1.015625 1.672253,0.433253 3.207078,1.220324 4.539063,2.089844 -0.06403,0.059 -0.130567,0.127461 -0.19336,0.18164 -2.029175,1.547491 -2.465949,3.085641 -2.751953,5.515625 l -0.02148,0.191406 0.169922,0.09375 c 4.866691,2.700959 8.534992,3.437335 11.556641,3.09961 3.021631,-0.33807 5.369389,-1.742425 7.603515,-3.236328 l 0.15625,-0.105469 -0.0332,-0.185547 C 43.532436,43.504515 43.377233,42.699745 42.95883,41.166908 l -0.002,-0.0039 v -0.0039 C 41.895916,37.59375 41.702152,35.374003 41.540877,29.180589 v -0.0039 -0.0059 c -0.155909,-2.362288 -1.420817,-5.127034 -3.402344,-7.291016 -1.941121,-2.119761 -4.59649,-3.643065 -7.583984,-3.558594 z m 4.810547,7.123047 h 0.002 c 0.15768,0.01246 0.303031,0.05536 0.449219,0.09766 0.291527,0.08495 0.585675,0.212833 0.878906,0.363281 0.5866,0.300874 1.156547,0.678608 1.53711,1 2.196776,1.855275 3.433652,3.602222 3.957031,6.724609 l 0.002,0.01367 0.002,0.01172 c 0.602489,4.79427 0.213577,10.563947 1.880859,14.265625 l -1.160156,0.523437 c -0.286145,-0.634622 -0.517952,-1.3062 -0.707172,-2.005861 -1.061344,-3.924444 -0.788628,-8.715366 -1.275391,-12.607422 -0.486067,-2.888004 -1.433187,-4.189462 -3.521484,-5.953125 -0.266715,-0.225235 -0.805987,-0.588091 -1.296875,-0.839844 -0.245077,-0.125924 -0.482075,-0.225949 -0.652344,-0.27539 -0.170276,-0.04949 -0.269693,-0.0055 -0.148437,-0.05273 l -0.464844,-1.183599 c 0.192271,-0.07518 0.359651,-0.09425 0.517578,-0.08203 z m -8.169922,2.234375 c 0.09291,0 0.189195,0.0035 0.291016,0.0098 l 0.542969,0.0332 -0.152344,0.521484 c -0.181761,0.620502 -0.219228,1.138736 -0.5,1.611329 -0.140323,0.236656 -0.371685,0.447425 -0.664063,0.554687 -0.2925,0.106956 -0.626529,0.12778 -1.039062,0.0957 l -0.541016,-0.04102 0.160156,-0.517578 c 0.186772,-0.607299 0.231077,-1.122414 0.511719,-1.589843 0.140324,-0.2341 0.365707,-0.44325 0.654297,-0.554688 0.216352,-0.08325 0.457885,-0.120969 0.736328,-0.123047 z m 7.140625,3.904297 c 0.02566,0.260318 0.0011,0.58329 -0.04492,1.003906 -0.04522,0.420482 -0.117422,0.917393 -0.214843,1.431641 -0.181271,0.963015 -0.427252,1.960139 -0.789063,2.662109 l 0.04883,0.22461 c 0,0.01968 0.0161,0.298665 0.02344,0.634765 0.0077,0.347802 -0.0058,0.772191 -0.01953,0.837891 l -0.0039,0.01953 v 0.01758 c -0.09599,1.461778 -1.192355,3.266451 -2.333984,4.560547 3.39296,-0.350366 6.744415,1.017312 7.806641,7.703125 -4.21809,-1.289426 -7.351722,-2.278698 -8.597657,-7.59375 0.243588,-0.04288 0.488297,-0.0769 0.732422,-0.103515 -1.310335,-0.86937 -2.833917,-1.684724 -4.523437,-2.185547 0.432523,-0.679999 0.747571,-1.452585 1.316406,-2.347656 1.911278,-0.884984 2.780304,-1.351709 4.675781,-2.0625 l 0.02344,-0.0078 -0.05859,-0.0332 c 0.270015,-0.471233 0.567382,-1.525021 0.751953,-2.503906 0.09291,-0.489458 0.163278,-0.966691 0.205078,-1.357422 0.04155,-0.390904 0.04958,-0.717188 0.04102,-0.808594 z m -12.634765,4.884766 0.55664,0.58789 c -0.469126,0.443889 -0.841124,0.724689 -0.978515,0.892579 -0.06844,0.08409 -0.07567,0.114164 -0.07813,0.148437 -0.0023,0.03435 0.007,0.109267 0.08594,0.255859 l -0.714844,0.38086 c -0.12223,-0.227353 -0.194609,-0.456371 -0.177734,-0.69336 0.01711,-0.23709 0.127508,-0.443997 0.259766,-0.605468 0.264142,-0.322865 0.617474,-0.560559 1.046875,-0.966797 z m 2.839843,2.738281 0.785157,0.558594 -0.476563,0.671875 c -0.359577,-0.05782 -0.724532,-0.09948 -1.095703,-0.123047 z m 6.449219,4.501953 0.642578,0.830078 c 3.607725,2.128204 4.446896,3.32389 5.308594,4.617188 l 0.921875,0.625 -0.248047,-0.986328 C 33.66619,42.738849 32.660795,41.425724 28.960799,39.243089 Z" />
</svg>
