<?xml version="1.0" encoding="UTF-8" standalone="no"?>
<svg
   viewBox="0 0 60 60"
   version="1.1"
   id="svg23"
   sodipodi:docname="0NK.svg"
   inkscape:version="1.3 (0e150ed6c4, 2023-07-21)"
   xmlns:inkscape="http://www.inkscape.org/namespaces/inkscape"
   xmlns:sodipodi="http://sodipodi.sourceforge.net/DTD/sodipodi-0.dtd"
   xmlns:xlink="http://www.w3.org/1999/xlink"
   xmlns="http://www.w3.org/2000/svg"
   xmlns:svg="http://www.w3.org/2000/svg">
  <sodipodi:namedview
     id="namedview23"
     pagecolor="#ffffff"
     bordercolor="#666666"
     borderopacity="1.0"
     inkscape:showpageshadow="2"
     inkscape:pageopacity="0.0"
     inkscape:pagecheckerboard="0"
     inkscape:deskcolor="#d1d1d1"
     inkscape:zoom="10.759808"
     inkscape:cx="-10.362638"
     inkscape:cy="32.807276"
     inkscape:window-width="3840"
     inkscape:window-height="2054"
     inkscape:window-x="3829"
     inkscape:window-y="-11"
     inkscape:window-maximized="1"
     inkscape:current-layer="svg23" />
  <defs
     id="defs11">
    <linearGradient
       id="0NK_svg__a">
      <stop
         offset="0"
         stop-color="#dfb459"
         id="stop1" />
      <stop
         offset=".042"
         stop-color="#dead54"
         id="stop2" />
      <stop
         offset=".093"
         stop-color="#e1b85f"
         id="stop3" />
      <stop
         offset=".165"
         stop-color="#dba84d"
         id="stop4" />
      <stop
         offset=".305"
         stop-color="#dfb765"
         id="stop5" />
      <stop
         offset=".539"
         stop-color="#d8a94e"
         id="stop6" />
      <stop
         offset=".586"
         stop-color="#d5ab53"
         id="stop7" />
      <stop
         offset=".84"
         stop-color="#e0bf6e"
         id="stop8" />
      <stop
         offset=".924"
         stop-color="#daae52"
         id="stop9" />
      <stop
         offset=".962"
         stop-color="#d9af57"
         id="stop10" />
      <stop
         offset="1"
         stop-color="#e1b663"
         id="stop11" />
    </linearGradient>
    <linearGradient
       xlink:href="#0NK_svg__a"
       id="0NK_svg__b"
       x1="287.356"
       x2="301.335"
       y1="53.513"
       y2="53.513"
       gradientUnits="userSpaceOnUse"
       spreadMethod="repeat" />
    <linearGradient
       xlink:href="#0NK_svg__a"
       id="0NK_svg__f"
       x1="-135.705"
       x2="-100.814"
       y1="83.095"
       y2="83.095"
       gradientUnits="userSpaceOnUse" />
    <linearGradient
       xlink:href="#0NK_svg__a"
       id="0NK_svg__e"
       x1="-135.705"
       x2="-106.858"
       y1="83.095"
       y2="83.095"
       gradientUnits="userSpaceOnUse" />
    <linearGradient
       xlink:href="#0NK_svg__a"
       id="0NK_svg__i"
       x1="10.349"
       x2="22.561"
       y1="36.113"
       y2="36.113"
       gradientUnits="userSpaceOnUse" />
    <linearGradient
       xlink:href="#0NK_svg__a"
       id="0NK_svg__h"
       x1="363.308"
       x2="381.337"
       y1="90.022"
       y2="90.022"
       gradientUnits="userSpaceOnUse" />
    <linearGradient
       xlink:href="#0NK_svg__a"
       id="0NK_svg__g"
       x1="-136.085"
       x2="-100.553"
       y1="99.718"
       y2="99.718"
       gradientUnits="userSpaceOnUse"
       spreadMethod="repeat" />
    <linearGradient
       xlink:href="#0NK_svg__a"
       id="0NK_svg__j"
       x1="8.508"
       x2="24.751"
       y1="26.218"
       y2="26.218"
       gradientUnits="userSpaceOnUse" />
    <linearGradient
       xlink:href="#0NK_svg__a"
       id="0NK_svg__l"
       x1="8.317"
       x2="24.006"
       y1="36.147"
       y2="36.147"
       gradientUnits="userSpaceOnUse"
       spreadMethod="repeat" />
    <linearGradient
       xlink:href="#0NK_svg__a"
       id="0NK_svg__k"
       x1="8.569"
       x2="20.782"
       y1="44.674"
       y2="44.674"
       gradientUnits="userSpaceOnUse"
       spreadMethod="repeat" />
    <linearGradient
       xlink:href="#1FU_svg__b"
       id="0NK_svg__d"
       x1="287.35599"
       x2="301.33499"
       y1="53.513"
       y2="53.513"
       gradientUnits="userSpaceOnUse"
       spreadMethod="repeat" />
    <filter
       id="0NK_svg__c"
       x="-0.1184454"
       y="-0.097087379"
       width="1.2862431"
       height="1.2346278">
      <feGaussianBlur
         in="SourceAlpha"
         result="blur"
         stdDeviation="2"
         id="feGaussianBlur11" />
      <feOffset
         dx="2"
         dy="2"
         result="offsetBlur"
         id="feOffset11" />
      <feBlend
         in="SourceGraphic"
         in2="offsetBlur"
         id="feBlend11" />
    </filter>
    <filter
       id="0KE_svg__a"
       x="-0.13554818"
       y="-0.11123077"
       width="1.3210896"
       height="1.2636065">
      <feGaussianBlur
         in="SourceAlpha"
         result="blur"
         stdDeviation="2"
         id="feGaussianBlur1" />
      <feOffset
         dx="2"
         dy="2"
         result="offsetBlur"
         id="feOffset1" />
      <feBlend
         in="SourceGraphic"
         in2="offsetBlur"
         id="feBlend1"
         mode="normal" />
    </filter>
    <filter
       style="color-interpolation-filters:sRGB"
       inkscape:label="Matte Jelly"
       id="filter16"
       x="-0.053846267"
       y="-0.039992649"
       width="1.1076925"
       height="1.0799895">
      <feColorMatrix
         values="1 0 0 0 0 0 1 0 0 0 0 0 1 0 0 0 0 0 0.85 0"
         result="color"
         in="SourceGraphic"
         id="feColorMatrix15" />
      <feGaussianBlur
         in="SourceAlpha"
         stdDeviation="0.32"
         result="blur"
         id="feGaussianBlur15" />
      <feSpecularLighting
         in="blur"
         specularExponent="25"
         specularConstant="2.01863003"
         surfaceScale="5"
         lighting-color="#ffffff"
         result="specular"
         id="feSpecularLighting15">
        <feDistantLight
           elevation="25"
           azimuth="245"
           id="feDistantLight15" />
      </feSpecularLighting>
      <feComposite
         in="specular"
         in2="SourceGraphic"
         k3="1"
         k2="1"
         operator="arithmetic"
         result="composite1"
         id="feComposite15"
         k1="0"
         k4="0" />
      <feComposite
         in="composite1"
         in2="color"
         operator="atop"
         result="composite2"
         id="feComposite16" />
    </filter>
    <linearGradient
       xlink:href="#0FU_svg__a"
       id="0FU_svg__b"
       x1="-29.351"
       x2="-11.018"
       y1="30.267"
       y2="30.267"
       gradientUnits="userSpaceOnUse"
       spreadMethod="repeat" />
    <linearGradient
       id="0FU_svg__a">
      <stop
         offset="0"
         stop-color="#dfb459"
         id="stop1-1" />
      <stop
         offset=".076"
         stop-color="#dead54"
         id="stop2-8" />
      <stop
         offset=".123"
         stop-color="#e1b85f"
         id="stop3-4" />
      <stop
         offset=".212"
         stop-color="#dba84d"
         id="stop4-3" />
      <stop
         offset=".305"
         stop-color="#dfb765"
         id="stop5-0" />
      <stop
         offset=".539"
         stop-color="#d8a94e"
         id="stop6-3" />
      <stop
         offset=".586"
         stop-color="#d5ab53"
         id="stop7-1" />
      <stop
         offset=".84"
         stop-color="#e0bf6e"
         id="stop8-4" />
      <stop
         offset=".924"
         stop-color="#daae52"
         id="stop9-6" />
      <stop
         offset=".962"
         stop-color="#d9af57"
         id="stop10-2" />
      <stop
         offset="1"
         stop-color="#e1b663"
         id="stop11-4" />
    </linearGradient>
    <filter
       id="0FU_svg__c"
       x="-0.11818876"
       y="-0.097286123"
       width="1.2856228"
       height="1.2351081">
      <feGaussianBlur
         in="SourceAlpha"
         result="blur"
         stdDeviation="2"
         id="feGaussianBlur11-7" />
      <feOffset
         dx="2"
         dy="2"
         result="offsetBlur"
         id="feOffset11-0" />
      <feBlend
         in="SourceGraphic"
         in2="offsetBlur"
         id="feBlend11-0"
         mode="normal" />
    </filter>
    <linearGradient
       xlink:href="#1FU_svg__b"
       id="0FU_svg__d"
       x1="-29.351"
       x2="-11.018"
       y1="30.267"
       y2="30.267"
       gradientUnits="userSpaceOnUse"
       spreadMethod="repeat" />
    <linearGradient
       id="1FU_svg__b">
      <stop
         offset="0"
         stop-color="#e5c37b"
         id="stop23" />
      <stop
         offset=".042"
         stop-color="#e4bd76"
         id="stop24" />
      <stop
         offset=".093"
         stop-color="#e7c781"
         id="stop25" />
      <stop
         offset=".165"
         stop-color="#e2b86e"
         id="stop26" />
      <stop
         offset=".305"
         stop-color="#e6c686"
         id="stop27" />
      <stop
         offset=".539"
         stop-color="#dfb96f"
         id="stop28" />
      <stop
         offset=".586"
         stop-color="#ddbb73"
         id="stop29" />
      <stop
         offset=".84"
         stop-color="#e7ce8f"
         id="stop30" />
      <stop
         offset=".924"
         stop-color="#e1bd73"
         id="stop31" />
      <stop
         offset=".962"
         stop-color="#e0bf78"
         id="stop32" />
      <stop
         offset="1"
         stop-color="#e7c685"
         id="stop33" />
    </linearGradient>
    <filter
       style="color-interpolation-filters:sRGB;"
       inkscape:label="Matte Jelly"
       id="filter24"
       x="-0.027907038"
       y="-0.021525843"
       width="1.0558141"
       height="1.0430517">
      <feColorMatrix
         values="1 0 0 0 0 0 1 0 0 0 0 0 1 0 0 0 0 0 0.85 0"
         result="color"
         in="SourceGraphic"
         id="feColorMatrix23" />
      <feGaussianBlur
         in="SourceAlpha"
         stdDeviation="0.32"
         result="blur"
         id="feGaussianBlur23" />
      <feSpecularLighting
         in="blur"
         specularExponent="25"
         specularConstant="2.01863"
         surfaceScale="5"
         lighting-color="rgb(255,255,255)"
         result="specular"
         id="feSpecularLighting23">
        <feDistantLight
           elevation="25"
           azimuth="245"
           id="feDistantLight23" />
      </feSpecularLighting>
      <feComposite
         in="specular"
         in2="SourceGraphic"
         k3="1"
         k2="1"
         operator="arithmetic"
         result="composite1"
         id="feComposite23" />
      <feComposite
         in="composite1"
         in2="color"
         operator="atop"
         result="composite2"
         id="feComposite24" />
    </filter>
  </defs>
  <g
     fill="url(#0NK_svg__b)"
     filter="url(#0NK_svg__c)"
     transform="translate(39.641 2.874)scale(.91071)"
     id="g12">
    <path
       fill="#826015"
       d="M-10.368 7.62c-4.319 1-8.69 2.087-12.838 3.607l-7.05 44.45H9.676l-6.79-44.163c-4.418-1.297-8.838-2.6-13.255-3.895z"
       id="path11" />
    <path
       fill="url(#0NK_svg__d)"
       d="M-10.96 6.237c-4.319 1-8.69 2.088-12.838 3.608l-7.051 44.45H9.085l-6.79-44.162c-4.418-1.298-8.839-2.6-13.255-3.896"
       id="path12" />
  </g>
  <path
     fill="#654b13"
     d="m11.546 52.322.54 1.258h36.368l-.54-1.258z"
     id="path14" />
  <path
     id="path7388-6"
     style="color:#000000;font-style:normal;font-variant:normal;font-weight:normal;font-stretch:normal;font-size:medium;line-height:normal;font-family:sans-serif;font-variant-ligatures:normal;font-variant-position:normal;font-variant-caps:normal;font-variant-numeric:normal;font-variant-alternates:normal;font-variant-east-asian:normal;font-feature-settings:normal;font-variation-settings:normal;text-indent:0;text-align:start;text-decoration:none;text-decoration-line:none;text-decoration-style:solid;text-decoration-color:#000000;letter-spacing:normal;word-spacing:normal;text-transform:none;writing-mode:lr-tb;direction:ltr;text-orientation:mixed;dominant-baseline:auto;baseline-shift:baseline;text-anchor:start;white-space:normal;shape-padding:0;shape-margin:0;inline-size:0;clip-rule:nonzero;display:inline;overflow:visible;visibility:visible;opacity:0.99;isolation:auto;mix-blend-mode:normal;color-interpolation:sRGB;color-interpolation-filters:linearRGB;solid-color:#000000;solid-opacity:1;vector-effect:none;fill:#c80000;fill-opacity:1;fill-rule:nonzero;stroke:none;stroke-width:0.578432;stroke-linecap:butt;stroke-linejoin:miter;stroke-miterlimit:4;stroke-dasharray:none;stroke-dashoffset:0;stroke-opacity:1;color-rendering:auto;image-rendering:auto;shape-rendering:auto;text-rendering:auto;enable-background:accumulate;stop-color:#000000;filter:url(#filter24)"
     d="m 20.499564,13.085243 0.07617,0.669922 c 0,0 0.05988,0.552804 0.236328,1.164063 0.136441,0.472671 0.305717,1.02599 0.707031,1.40039 -0.283446,0.60303 -0.427734,1.309808 -0.427734,2.082032 0,0.720841 0.122427,1.386842 0.36914,1.96289 v 0.002 c -0.03828,0.08842 -0.06481,0.173314 -0.08203,0.261719 -0.01699,0.08723 -0.02742,0.177679 -0.03516,0.273438 -0.03255,0.402571 0.0026,0.902555 0.119141,1.427734 0.04748,0.213889 0.110036,0.430361 0.1875,0.644531 -0.442134,1.232794 -0.690181,2.418708 -0.615235,3.710938 -1.516246,1.699586 -2.864842,3.517807 -3.742187,5.632812 l -0.0098,0.02148 -0.0039,0.02148 c -0.250574,1.049927 -0.490101,2.167747 -0.05273,3.304688 l 0.03711,0.09961 0.580078,0.320312 c 0.338456,0.701325 0.580622,1.189963 0.998047,1.484375 0.368034,0.259887 0.831014,0.309947 1.46289,0.25586 l 1.953125,-2.746094 0.785157,0.558594 -1.853516,2.605468 0.152344,0.369141 0.253906,-0.08203 c 1.29138,-0.415838 1.979088,-1.010461 2.466797,-1.738281 0.474501,-0.708096 0.788283,-1.522913 1.390625,-2.470703 1.911268,-0.884984 2.780314,-1.351714 4.675781,-2.0625 l 0.02344,-0.0078 -0.05859,-0.0332 c 0.270015,-0.471233 0.567382,-1.525026 0.751953,-2.503906 0.09291,-0.489458 0.163278,-0.966696 0.205078,-1.357422 0.04155,-0.390904 0.04958,-0.717188 0.04102,-0.808594 l 0.960937,-0.0918 c 0.02566,0.260318 0.0011,0.583295 -0.04492,1.003906 -0.04522,0.420482 -0.117422,0.917398 -0.214843,1.431641 -0.181271,0.96301 -0.427252,1.960144 -0.789063,2.662109 l 0.04883,0.22461 c 0,0.01968 0.0161,0.29867 0.02344,0.634765 0.0077,0.347802 -0.0058,0.772191 -0.01953,0.837891 l -0.0039,0.01953 v 0.01758 c -0.07803,1.188289 -0.818005,2.607588 -1.705078,3.792969 1.805375,1.23476 4.149219,2.083359 6.486328,2.265625 1.243448,0.09697 2.473575,0.01035 3.626953,-0.285156 -0.522372,-3.412239 -0.415513,-7.183207 -0.8125,-10.357422 -0.486062,-2.887989 -1.433197,-4.189472 -3.521484,-5.953125 -0.266715,-0.225235 -0.805987,-0.588091 -1.296875,-0.839844 -0.245077,-0.125924 -0.482075,-0.225949 -0.652344,-0.27539 -0.170276,-0.04949 -0.269693,-0.0055 -0.148437,-0.05273 l -0.46484,-1.183653 c 0.192271,-0.07517 0.359651,-0.09425 0.517578,-0.08203 h 0.002 c 0.15768,0.01246 0.303031,0.05536 0.449219,0.09766 0.291527,0.08494 0.58568,0.212833 0.878906,0.363281 0.5866,0.300869 1.156547,0.678608 1.53711,1 2.196761,1.855265 3.433652,3.602237 3.957031,6.724609 l 0.002,0.01367 0.002,0.01172 c 0.407045,3.239022 0.364982,6.922328 0.806641,10.113281 0.783887,-0.330503 1.516487,-0.774579 2.169922,-1.349609 -0.370652,-2.146684 -0.495627,-4.498178 -0.601563,-8.566407 v -0.0039 -0.0059 c -0.155909,-2.362313 -1.420827,-5.127044 -3.402344,-7.291016 -1.941111,-2.119751 -4.596505,-3.643065 -7.583984,-3.558594 -0.11997,-0.937271 2.242775,-0.785051 3.431641,-0.955078 -0.880038,-0.677215 -2.930235,-1.658182 -4.212891,-1.998047 0.03396,-0.07828 0.02889,-0.06502 0.05859,-0.132812 0.143319,-0.32823 0.240234,-0.544922 0.240234,-0.544922 l 0.474609,-1.044922 -1.08789,0.363281 c -0.162458,0.05415 -0.319437,0.09957 -0.472656,0.140625 -0.121401,0.0325 -0.241256,0.06147 -0.357422,0.08398 -0.104112,0.02016 -0.208306,0.03786 -0.308594,0.04883 -0.118019,0.01291 -0.232438,0.01909 -0.345703,0.01758 -0.09934,-0.0013 -0.196863,-0.0097 -0.292969,-0.02344 -0.02538,-0.0036 -0.051,-0.0072 -0.07617,-0.01172 -0.0969,-0.01748 -0.193034,-0.04036 -0.287109,-0.07227 -0.105515,-0.03578 -0.208028,-0.08108 -0.310547,-0.136719 -0.102519,-0.05564 -0.204578,-0.121904 -0.304688,-0.199218 l -0.04297,-0.0332 -0.04883,-0.02344 c -0.136161,-0.06456 -0.271848,-0.114023 -0.40625,-0.150391 -0.0086,-0.0023 -0.01681,-0.0056 -0.02539,-0.0078 -0.05565,-0.0143 -0.111021,-0.02607 -0.166016,-0.03516 -0.0078,-0.0013 -0.01569,-0.0027 -0.02344,-0.0039 -0.0046,-7.07e-4 -0.0091,-0.0013 -0.01367,-0.002 -0.06317,-0.0091 -0.125538,-0.01574 -0.1875,-0.01758 -0.0706,-0.0021 -0.140357,0.002 -0.208984,0.0098 -0.01629,0.0019 -0.03267,0.0034 -0.04883,0.0059 -0.06945,0.01035 -0.138248,0.02572 -0.205079,0.04687 -0.09863,0.03122 -0.190345,0.07264 -0.27539,0.123047 -0.08505,0.05041 -0.162238,0.108684 -0.234375,0.173828 l -0.002,0.002 c -0.07134,0.06465 -0.137921,0.136223 -0.197266,0.210938 -0.05991,0.07543 -0.113746,0.155075 -0.162109,0.236328 l -0.150391,0.253906 0.150391,0.25586 c 0,0 0.08779,0.147947 0.214843,0.388671 0.06352,0.120363 0.13761,0.263978 0.214844,0.423829 0.07723,0.159848 0.157422,0.335943 0.236328,0.521484 0.0523,0.122978 0.100183,0.251932 0.146485,0.380859 0.01549,0.04303 0.03218,0.08564 0.04687,0.128907 0.04619,0.136527 0.08845,0.274277 0.125,0.408203 0.08293,0.303888 0.138428,0.59164 0.152343,0.822265 L 26.167614,18.497393 25.48402,17.690752 C 25.4184,17.150907 25.276517,16.651853 25.054332,16.21419 24.848966,15.809644 24.534812,15.406888 24.107067,15.171221 l 0.0332,-1.853516 -0.677734,0.234375 c -0.543973,0.189425 -0.790202,0.153358 -1.087891,0.06055 -0.297689,-0.09281 -0.662859,-0.303084 -1.212891,-0.404297 z m 1.234375,1.363282 c 0.1149,0.04527 0.206601,0.07443 0.34375,0.117187 0.265488,0.08277 0.676608,-0.01044 1.041016,-0.04102 l -0.0078,0.455079 c -0.389529,0.04617 -0.712705,0.222807 -0.974609,0.464843 -0.127718,-0.196999 -0.273345,-0.491169 -0.363282,-0.802734 -0.02882,-0.09983 -0.01698,-0.09931 -0.03906,-0.193359 z m 4.724609,0.677734 c 0.09449,-0.0076 0.232741,0.01745 0.439453,0.111328 0.823651,0.601254 1.740436,0.59581 2.640625,0.435547 -0.128734,0.294144 -0.162353,0.355142 -0.339843,0.787109 -0.369851,0.900116 -0.771697,1.937567 -0.919922,2.660157 -0.152323,0.742563 -0.198442,1.563754 -0.335938,2.257812 -0.136652,0.689806 -0.357077,1.196864 -0.720703,1.44336 -0.02271,0.0043 -0.284028,0.129161 -0.568359,0.230468 -0.324953,0.115781 -0.738988,0.250207 -1.158203,0.375 -0.419218,0.124794 -0.846174,0.240045 -1.189453,0.316406 -0.343281,0.07636 -0.670007,0.08756 -0.603516,0.09766 -0.317168,-0.04815 -0.561168,-0.230703 -0.78125,-0.544922 -0.220082,-0.314219 -0.386585,-0.751896 -0.482422,-1.183594 -0.04377,-0.197158 -0.02825,-0.334467 -0.04492,-0.515625 0.187576,0.128331 0.364836,0.269047 0.582031,0.355469 0.667811,0.265719 1.51116,0.320681 2.191407,-0.162109 0.497919,-0.353391 0.968518,-0.817942 1.349609,-1.298829 0.381091,-0.480884 0.677322,-0.958041 0.783203,-1.449218 0.190149,-0.882097 -0.170818,-1.841572 -0.515625,-2.652344 -0.263195,-0.618875 -0.433208,-0.897891 -0.552734,-1.109375 0.04582,-0.03904 0.09708,-0.122938 0.140625,-0.136719 0.0243,-0.0077 0.05282,-0.01491 0.08594,-0.01758 z m -3.15039,0.796875 a 1.2583932,2.4788358 0 0 1 1.259765,2.478516 1.2583932,2.4788358 0 0 1 -1.259765,2.478515 1.2583932,2.4788358 0 0 1 -1.257813,-2.478515 1.2583932,2.4788358 0 0 1 1.257813,-2.478516 z m 2.199218,8.541016 c -0.111192,0.464161 -0.189954,0.886455 -0.414062,1.263672 -0.140323,0.236651 -0.371685,0.447425 -0.664063,0.554687 -0.292495,0.106956 -0.626534,0.127777 -1.039062,0.0957 l -0.541016,-0.04102 0.160156,-0.517578 c 0.163606,-0.531968 0.379779,-0.650489 0.619141,-0.982422 0.0726,0.0073 0.141192,0.0089 0.208985,0.0059 0.0032,-1.36e-4 0.0066,1.55e-4 0.0098,0 0.0039,-2.02e-4 0.0078,-0.0017 0.01172,-0.002 0.06272,-0.0037 0.126578,-0.0093 0.189453,-0.01953 0.0038,-6.15e-4 0.0079,-0.0013 0.01172,-0.002 0.02156,-0.0035 0.04841,-0.0115 0.07031,-0.01563 0.121546,-0.0234 0.247292,-0.05123 0.394532,-0.08398 0.290115,-0.06454 0.618807,-0.15343 0.951171,-0.248047 0.01038,-0.003 0.02086,-0.0048 0.03125,-0.0078 z m -6.089843,7.876953 0.55664,0.58789 c -0.469121,0.443889 -0.841129,0.724689 -0.978515,0.892579 -0.06844,0.08408 -0.07567,0.114164 -0.07813,0.148437 -0.0023,0.03435 0.007,0.109272 0.08594,0.255859 l -0.714844,0.38086 c -0.12223,-0.227353 -0.194609,-0.456371 -0.177734,-0.69336 0.01711,-0.237085 0.127508,-0.444002 0.259766,-0.605468 0.264137,-0.322865 0.617474,-0.560564 1.046875,-0.966797 z m 8.951172,6.892578 c -0.195838,0.20244 -0.39017,0.390561 -0.578126,0.552734 -2.02916,1.547486 -2.465949,3.085656 -2.751953,5.515625 l -0.02148,0.191406 0.169922,0.09375 c 4.866666,2.700949 8.535007,3.437335 11.556641,3.09961 3.021611,-0.33807 5.369399,-1.742435 7.603519,-3.236328 l 0.15625,-0.105469 -0.0332,-0.185547 c -0.19399,-1.109663 -0.34918,-1.914434 -0.76758,-3.447266 l -0.002,-0.0039 v -0.0039 c -0.185691,-0.623963 -0.337558,-1.20145 -0.474612,-1.771484 -0.699669,0.509439 -1.457378,0.910423 -2.251953,1.21289 0.198655,0.95732 0.457775,1.8522 0.816406,2.648438 l -1.160156,0.523437 c -0.390332,-0.866549 -0.674362,-1.806087 -0.892578,-2.787109 -1.304465,0.323344 -2.672648,0.41574 -4.021484,0.310547 -2.666703,-0.207971 -5.290202,-1.151342 -7.347656,-2.607422 z" />
</svg>
