<svg viewBox="0 0 60 60" xmlns="http://www.w3.org/2000/svg" xmlns:xlink="http://www.w3.org/1999/xlink"><linearGradient id="a" gradientUnits="userSpaceOnUse" spreadMethod="repeat" x1="287.356" x2="301.335" y1="53.513" y2="53.513"><stop offset="0" stop-color="#dfb459"/><stop offset=".093" stop-color="#dead54"/><stop offset=".093" stop-color="#e1b85f"/><stop offset=".165" stop-color="#dba84d"/><stop offset=".305" stop-color="#dfb765"/><stop offset=".539" stop-color="#d8a94e"/><stop offset=".586" stop-color="#d5ab53"/><stop offset=".84" stop-color="#e0bf6e"/><stop offset=".924" stop-color="#daae52"/><stop offset=".962" stop-color="#d9af57"/><stop offset="1" stop-color="#e1b663"/></linearGradient><linearGradient id="b" gradientUnits="userSpaceOnUse" x1="369.67" x2="389.608" y1="1493.295" y2="1493.295"><stop offset="0" stop-color="#c80000"/><stop offset="1" stop-color="#c80000" stop-opacity="0"/></linearGradient><filter id="c"><feGaussianBlur in="SourceAlpha" result="blur" stdDeviation="2"/><feOffset dx="2" dy="2" result="offsetBlur"/><feBlend in="SourceGraphic" in2="offsetBlur"/></filter><g fill="url(#a)" filter="url(#c)" transform="matrix(.91071 0 0 .91071 39.64 2.874)"><path d="m-10.368 7.618c-4.319 1-8.69 2.09-12.837 3.61l-7.052 44.45h39.935l-6.79-44.163-.594-1.383.197 1.265c-4.285-1.259-8.575-2.522-12.859-3.779z" fill="#826015"/><path d="m-10.96 6.237c-4.319 1-8.69 2.088-12.838 3.608l-7.051 44.45h39.934l-6.79-44.162c-4.418-1.298-8.839-2.6-13.255-3.896z" fill="url(#a)"/></g><path d="m11.546 52.322.54 1.258h36.368l-.54-1.258z" fill="#654b13"/><g fill="#c80000"><path d="m372.14 1666.57v-346.55h15v346.55z" stroke="#c80000" stroke-width="4.938" transform="matrix(-.07194 0 0 .05254 57.358 -46.94)"/><path d="m373.444 1325.142-13.45-8.57 2.65-111.341 16.688-28.568 17.542 27.755 2.373 111.247-13.382 9.224z" stroke="#c80000" stroke-width="7.713" transform="matrix(-.05076 0 0 .03707 49.317 -25.798)"/><path d="m30.047 24.054a8.442 8.442 0 0 1 8.443 8.442 8.442 8.442 0 0 1 -8.443 8.443 8.442 8.442 0 0 1 -8.442-8.443 8.442 8.442 0 0 1 8.442-8.442zm0 1.84a6.6 6.6 0 0 0 -6.6 6.602 6.6 6.6 0 0 0 6.6 6.6 6.6 6.6 0 0 0 6.602-6.6 6.6 6.6 0 0 0 -6.601-6.601z"/><path d="m372.14 1666.57v-346.55h15v346.55z" stroke="url(#b)" stroke-width="4.938" transform="matrix(-.07194 0 0 -.05254 57.358 111.99)"/><g stroke="#c80000"><path d="m373.444 1325.142-13.45-8.57 2.65-111.341 16.688-28.568 17.542 27.755 2.373 111.247-13.382 9.224z" stroke-width="7.713" transform="matrix(-.05076 0 0 -.03707 49.315 90.848)"/><path d="m372.14 1666.57v-346.55h15v346.55z" stroke-width="4.938" transform="matrix(-.05087 .05087 .03715 .03715 -6.548 -42.988)"/><path d="m372.14 1666.57v-346.55h15v346.55z" stroke-width="4.938" transform="matrix(.05087015 .05086837 -.03715074 .03715204 66.918427 -42.983361)"/><path d="m372.14 1666.57v-346.55h15v346.55z" stroke-width="4.938" transform="matrix(0 -.07194 -.05254 0 108.957 59.806)"/><path d="m373.444 1325.142-13.45-8.57 2.65-111.341 16.688-28.568 17.542 27.755 2.373 111.247-13.382 9.224z" stroke-width="7.713" transform="matrix(0 -.05076 -.03707 0 88.396 51.764)"/><path d="m372.14 1666.57v-346.55h15v346.55z" stroke-width="4.938" transform="matrix(0 -.07194 .05254 0 -48.9 59.806)"/><path d="m373.444 1325.142-13.45-8.57 2.65-111.341 16.688-28.568 17.542 27.755 2.373 111.247-13.382 9.224z" stroke-width="7.713" transform="matrix(0 -.05076 .03707 0 -28.396 51.764)"/><path d="m373.444 1325.142-13.45-8.57 2.65-111.341 16.688-28.568 17.542 27.755 2.373 111.247-13.382 9.224z" stroke-width="7.713" transform="matrix(.03589981 -.03589981 .02621245 .02621245 -24.842897 4.603941)"/><path d="m373.444 1325.142-13.45-8.57 2.65-111.341 16.688-28.568 17.542 27.755 2.373 111.247-13.382 9.224z" stroke-width="7.713" transform="matrix(-.03589981 -.03589981 -.02621245 .02621245 85.223489 4.602725)"/></g></g></svg>