<?xml version="1.0" encoding="UTF-8" standalone="no"?>
<svg
   viewBox="0 0 60 60"
   version="1.1"
   id="svg28"
   sodipodi:docname="0NY.svg"
   inkscape:version="1.3 (0e150ed6c4, 2023-07-21)"
   xmlns:inkscape="http://www.inkscape.org/namespaces/inkscape"
   xmlns:sodipodi="http://sodipodi.sourceforge.net/DTD/sodipodi-0.dtd"
   xmlns:xlink="http://www.w3.org/1999/xlink"
   xmlns="http://www.w3.org/2000/svg"
   xmlns:svg="http://www.w3.org/2000/svg">
  <sodipodi:namedview
     id="namedview28"
     pagecolor="#ffffff"
     bordercolor="#666666"
     borderopacity="1.0"
     inkscape:showpageshadow="2"
     inkscape:pageopacity="0.0"
     inkscape:pagecheckerboard="0"
     inkscape:deskcolor="#d1d1d1"
     inkscape:zoom="10.759808"
     inkscape:cx="57.761254"
     inkscape:cy="34.758985"
     inkscape:window-width="3840"
     inkscape:window-height="2054"
     inkscape:window-x="-11"
     inkscape:window-y="-11"
     inkscape:window-maximized="1"
     inkscape:current-layer="svg28" />
  <defs
     id="defs13">
    <linearGradient
       id="0NY_svg__a">
      <stop
         offset="0"
         stop-color="#dfb459"
         id="stop3" />
      <stop
         offset=".093"
         stop-color="#dead54"
         id="stop4" />
      <stop
         offset=".093"
         stop-color="#e1b85f"
         id="stop5" />
      <stop
         offset=".165"
         stop-color="#dba84d"
         id="stop6" />
      <stop
         offset=".305"
         stop-color="#dfb765"
         id="stop7" />
      <stop
         offset=".539"
         stop-color="#d8a94e"
         id="stop8" />
      <stop
         offset=".586"
         stop-color="#d5ab53"
         id="stop9" />
      <stop
         offset=".84"
         stop-color="#e0bf6e"
         id="stop10" />
      <stop
         offset=".924"
         stop-color="#daae52"
         id="stop11" />
      <stop
         offset=".962"
         stop-color="#d9af57"
         id="stop12" />
      <stop
         offset="1"
         stop-color="#e1b663"
         id="stop13" />
    </linearGradient>
    <linearGradient
       xlink:href="#0NY_svg__a"
       id="0NY_svg__c"
       x1="287.356"
       x2="301.335"
       y1="53.513"
       y2="53.513"
       gradientUnits="userSpaceOnUse"
       spreadMethod="repeat" />
    <linearGradient
       xlink:href="#1FU_svg__b"
       id="0NY_svg__e"
       x1="287.35599"
       x2="301.33499"
       y1="53.513"
       y2="53.513"
       gradientUnits="userSpaceOnUse"
       spreadMethod="repeat" />
    <filter
       id="0NY_svg__d"
       x="-0.11843956"
       y="-0.097085415"
       width="1.2862289"
       height="1.2346231">
      <feGaussianBlur
         in="SourceAlpha"
         result="blur"
         stdDeviation="2"
         id="feGaussianBlur13" />
      <feOffset
         dx="2"
         dy="2"
         result="offsetBlur"
         id="feOffset13" />
      <feBlend
         in="SourceGraphic"
         in2="offsetBlur"
         id="feBlend13" />
    </filter>
    <linearGradient
       id="1FU_svg__b">
      <stop
         offset="0"
         stop-color="#e5c37b"
         id="stop23" />
      <stop
         offset=".042"
         stop-color="#e4bd76"
         id="stop24" />
      <stop
         offset=".093"
         stop-color="#e7c781"
         id="stop25" />
      <stop
         offset=".165"
         stop-color="#e2b86e"
         id="stop26" />
      <stop
         offset=".305"
         stop-color="#e6c686"
         id="stop27" />
      <stop
         offset=".539"
         stop-color="#dfb96f"
         id="stop28" />
      <stop
         offset=".586"
         stop-color="#ddbb73"
         id="stop29" />
      <stop
         offset=".84"
         stop-color="#e7ce8f"
         id="stop30" />
      <stop
         offset=".924"
         stop-color="#e1bd73"
         id="stop31" />
      <stop
         offset=".962"
         stop-color="#e0bf78"
         id="stop32" />
      <stop
         offset="1"
         stop-color="#e7c685"
         id="stop33" />
    </linearGradient>
    <filter
       style="color-interpolation-filters:sRGB;"
       inkscape:label="Matte Jelly"
       id="filter30"
       x="-0.026800432"
       y="-0.027180203"
       width="1.0536009"
       height="1.0543604">
      <feColorMatrix
         values="1 0 0 0 0 0 1 0 0 0 0 0 1 0 0 0 0 0 0.85 0"
         result="color"
         in="SourceGraphic"
         id="feColorMatrix29" />
      <feGaussianBlur
         in="SourceAlpha"
         stdDeviation="0.32"
         result="blur"
         id="feGaussianBlur29" />
      <feSpecularLighting
         in="blur"
         specularExponent="25"
         specularConstant="2.01863"
         surfaceScale="5"
         lighting-color="rgb(255,255,255)"
         result="specular"
         id="feSpecularLighting29">
        <feDistantLight
           elevation="25"
           azimuth="245"
           id="feDistantLight29" />
      </feSpecularLighting>
      <feComposite
         in="specular"
         in2="SourceGraphic"
         k3="1"
         k2="1"
         operator="arithmetic"
         result="composite1"
         id="feComposite29" />
      <feComposite
         in="composite1"
         in2="color"
         operator="atop"
         result="composite2"
         id="feComposite30" />
    </filter>
  </defs>
  <g
     fill="url(#0NY_svg__c)"
     filter="url(#0NY_svg__d)"
     transform="translate(39.64 2.874)scale(.91071)"
     id="g14">
    <path
       fill="#826015"
       d="M-10.368 7.618c-4.319 1-8.69 2.09-12.837 3.61l-7.052 44.45H9.678l-6.79-44.163-.594-1.383.197 1.265c-4.285-1.259-8.575-2.522-12.859-3.779"
       id="path13" />
    <path
       fill="url(#0NY_svg__e)"
       d="M-10.96 6.237c-4.319 1-8.69 2.088-12.838 3.608l-7.051 44.45H9.085l-6.79-44.162c-4.418-1.298-8.839-2.6-13.255-3.896"
       id="path14" />
  </g>
  <path
     fill="#654b13"
     d="m11.546 52.322.54 1.258h36.368l-.54-1.258z"
     id="path15" />
  <path
     id="path14-9"
     style="color:#000000;fill:#b70d0d;fill-opacity:1;stroke-width:0.147407;-inkscape-stroke:none"
     d="m 29.999998,18.496766 -0.111328,0.134765 -0.865234,1.046875 -0.121094,4.076172 0.441406,0.205078 v 0.759766 a 8.0417782,8.0417782 0 0 0 -4.166016,1.576172 l -0.83789,-0.837891 0.15625,-0.474609 -2.972656,-2.804688 -1.541016,-0.111328 0.169922,1.527344 2.796875,2.986328 0.478515,-0.173828 0.767578,0.767578 a 8.0417782,8.0417782 0 0 0 -2.189453,4.86914 h -0.851562 l -0.226563,-0.451171 -4.08789,0.11914 -1.167969,1.011719 1.201172,0.958984 4.089844,0.132813 0.210937,-0.453125 h 0.832031 a 8.0417782,8.0417782 0 0 0 7.337891,7.328125 v 0.599609 l -0.441406,0.203125 0.121094,4.076172 0.976562,1.183594 0.976562,-1.183594 0.119141,-4.076172 -0.435547,-0.197265 V 40.692078 A 8.0417782,8.0417782 0 0 0 38.01367,33.362 h 0.380859 0.431638 l 0.21094,0.453125 4.08984,-0.132813 1.20118,-0.958984 -1.16797,-1.011719 -4.08789,-0.11914 -0.22657,0.451171 H 38.394529 38.01367 a 8.0417782,8.0417782 0 0 0 -2.169922,-4.851562 l 0.785156,-0.785156 0.472656,0.15625 2.804687,-2.97461 0.11133,-1.539062 -1.527345,0.169922 -2.984375,2.796875 0.173829,0.476562 -0.816407,0.816407 a 8.0417782,8.0417782 0 0 0 -4.203125,-1.591797 v -0.763672 l 0.435547,-0.197266 -0.119141,-4.078125 z m -0.65625,7.980468 v 2.027344 c -0.515125,0.08287 -1.001286,0.262536 -1.4375,0.517578 l -1.464844,-1.46289 a 6.2878423,6.2878423 0 0 1 2.902344,-1.082032 z m 1.316406,0 a 6.2878423,6.2878423 0 0 1 2.9375,1.09961 l -1.466797,1.466796 c -0.444499,-0.265966 -0.94259,-0.451595 -1.470703,-0.537109 z m -5.214844,1.947266 1.435547,1.435547 c -0.536592,0.600682 -0.904748,1.354939 -1.02539,2.183593 H 23.765623 A 6.2878423,6.2878423 0 0 1 25.44531,28.4245 Z m 9.144532,0.02148 a 6.2878423,6.2878423 0 0 1 1.662109,3.597656 h -2.107422 c -0.118699,-0.815309 -0.477416,-1.558454 -1,-2.154296 z m -4.589844,1.505864 a 2.6868243,2.6868243 0 0 1 2.6875,2.6875 2.6868243,2.6868243 0 0 1 -2.6875,2.6875 2.6868243,2.6868243 0 0 1 -2.6875,-2.6875 2.6868243,2.6868243 0 0 1 2.6875,-2.6875 z M 23.76367,33.362 h 2.113281 c 0.08964,0.504241 0.272345,0.979695 0.527344,1.40625 l -1.525391,1.52539 A 6.2878423,6.2878423 0 0 1 23.76367,33.362 Z m 10.359375,0 h 2.113281 a 6.2878423,6.2878423 0 0 1 -1.09375,2.898437 l -1.52539,-1.52539 c 0.244463,-0.417739 0.418592,-0.882128 0.505859,-1.373047 z m -1.34375,2.396484 1.511719,1.511719 a 6.2878423,6.2878423 0 0 1 -3.63086,1.660156 v -2.158203 c 0.803082,-0.130039 1.534191,-0.491132 2.119141,-1.013672 z m -5.529297,0.02539 c 0.580997,0.509562 1.302318,0.862911 2.09375,0.990234 v 2.15625 a 6.2878423,6.2878423 0 0 1 -3.607422,-1.632812 z" />
</svg>
