<?xml version="1.0" encoding="UTF-8" standalone="no"?>
<svg
   xmlns:dc="http://purl.org/dc/elements/1.1/"
   xmlns:cc="http://creativecommons.org/ns#"
   xmlns:rdf="http://www.w3.org/1999/02/22-rdf-syntax-ns#"
   xmlns:svg="http://www.w3.org/2000/svg"
   xmlns="http://www.w3.org/2000/svg"
   xmlns:sodipodi="http://sodipodi.sourceforge.net/DTD/sodipodi-0.dtd"
   xmlns:inkscape="http://www.inkscape.org/namespaces/inkscape"
   width="52.157"
   height="60"
   version="1.1"
   id="svg1717"
   sodipodi:docname="0OU.svg"
   inkscape:version="0.92.4 (5da689c313, 2019-01-14)">
  <metadata
     id="metadata1723">
    <rdf:RDF>
      <cc:Work
         rdf:about="">
        <dc:format>image/svg+xml</dc:format>
        <dc:type
           rdf:resource="http://purl.org/dc/dcmitype/StillImage" />
        <dc:title />
      </cc:Work>
    </rdf:RDF>
  </metadata>
  <defs
     id="defs1721">
    <filter
       style="color-interpolation-filters:sRGB"
       inkscape:label="Drop Shadow"
       id="filter1552">
      <feFlood
         flood-opacity="0.498039"
         flood-color="rgb(0,0,0)"
         result="flood"
         id="feFlood1542" />
      <feComposite
         in="flood"
         in2="SourceGraphic"
         operator="in"
         result="composite1"
         id="feComposite1544" />
      <feGaussianBlur
         in="composite1"
         stdDeviation="2.5"
         result="blur"
         id="feGaussianBlur1546" />
      <feOffset
         dx="4.57967e-15"
         dy="4.41314e-15"
         result="offset"
         id="feOffset1548" />
      <feComposite
         in="SourceGraphic"
         in2="offset"
         operator="over"
         result="composite2"
         id="feComposite1550" />
    </filter>
    <filter
       id="drop-shadow-9">
      <feGaussianBlur
         in="SourceAlpha"
         result="blur"
         stdDeviation="2"
         id="feGaussianBlur5056" />
      <feOffset
         result="offsetBlur"
         dx="2"
         dy="2"
         id="feOffset5058" />
      <feBlend
         in="SourceGraphic"
         in2="offsetBlur"
         mode="normal"
         id="feBlend5060" />
    </filter>
    <filter
       id="drop-shadow-5">
      <feGaussianBlur
         in="SourceAlpha"
         result="blur"
         stdDeviation="2"
         id="feGaussianBlur5056-3" />
      <feOffset
         result="offsetBlur"
         dx="2"
         dy="2"
         id="feOffset5058-8" />
      <feBlend
         in="SourceGraphic"
         in2="offsetBlur"
         mode="normal"
         id="feBlend5060-7" />
    </filter>
  </defs>
  <sodipodi:namedview
     pagecolor="#ffffff"
     bordercolor="#666666"
     borderopacity="1"
     objecttolerance="10"
     gridtolerance="10"
     guidetolerance="10"
     inkscape:pageopacity="0"
     inkscape:pageshadow="2"
     inkscape:window-width="1920"
     inkscape:window-height="1017"
     id="namedview1719"
     showgrid="false"
     inkscape:zoom="3.9333333"
     inkscape:cx="-86.861764"
     inkscape:cy="19.830508"
     inkscape:window-x="-8"
     inkscape:window-y="-8"
     inkscape:window-maximized="1"
     inkscape:current-layer="svg1717" />
  <!--
Created by Hari Seldon and modified by orangain, licensed under Creative Commons Attribution-Share Alike 3.0 Unported.
See: https://creativecommons.org/licenses/by-sa/3.0/deed.en

Original file is available at: https://commons.wikimedia.org/wiki/File:Shogi_gyokusho(svg).svg
-->
  <filter
     id="drop-shadow">
    <feGaussianBlur
       in="SourceAlpha"
       result="blur"
       stdDeviation="2"
       id="feGaussianBlur1692" />
    <feOffset
       result="offsetBlur"
       dx="2"
       dy="2"
       id="feOffset1694" />
    <feBlend
       in="SourceGraphic"
       in2="offsetBlur"
       mode="normal"
       id="feBlend1696" />
  </filter>
  <g
     transform="translate(-16.214393,-80.64637)"
     style="display:inline;fill:#ffe680"
     id="g9468">
    <g
       style="display:inline;fill:#ffe680;fill-opacity:1;filter:url(#drop-shadow-5)"
       id="g5740"
       transform="translate(53.174891,80.367691)">
      <path
         style="fill:#ffe680;fill-opacity:1"
         inkscape:connector-curvature="0"
         id="path5738"
         d="m -10.959999,6.2374999 c -4.319,1 -8.69,2.088 -12.838,3.608 -1.492,6.3310001 -2.103,12.8800001 -3.191,19.3050001 -1.285,8.332 -2.439,16.689 -3.86,24.997 4.847,0.346 10,0.05 14.963,0.148 H 9.0850008 c -0.585,-5.657 -1.718,-11.523 -2.502,-17.26 -1.462,-8.96 -2.486,-18.012 -4.288,-26.903 -0.885,-1.0930001 -2.79899998,-0.9570001 -4.037,-1.5640001 -3.053,-0.81 -6.099,-1.875 -9.2179998,-2.332 z" />
    </g>
    <g
       id="g9457"
       style="fill:#ffe680">
      <g
         id="g9451"
         style="fill:#ffe680">
        <text
           transform="scale(1.0542925,0.94850339)"
           xml:space="preserve"
           style="font-style:normal;font-variant:normal;font-weight:normal;font-stretch:normal;font-size:29.07196045px;line-height:1.25;font-family:PMingLiU;-inkscape-font-specification:PMingLiU;letter-spacing:0px;word-spacing:0px;display:inline;fill:#ffe680;fill-opacity:1;stroke:none;stroke-width:4.34547663;stroke-miterlimit:4;stroke-dasharray:none"
           x="25.692533"
           y="127.10664"
           id="text4810-0"><tspan
             sodipodi:role="line"
             id="tspan4808-2"
             x="25.692533"
             y="127.10664"
             style="font-style:normal;font-variant:normal;font-weight:normal;font-stretch:normal;font-family:MingLiU_HKSCS-ExtB;-inkscape-font-specification:MingLiU_HKSCS-ExtB;fill:#ffe680;stroke-width:4.34547663;stroke-miterlimit:4;stroke-dasharray:none">王</tspan></text>
      </g>
      <path
         sodipodi:nodetypes="ccccc"
         inkscape:connector-curvature="0"
         id="path4858-5"
         d="m 24.884926,129.38922 34.75566,-0.001 0.40635,3.25236 -35.508086,-0.051 z"
         style="display:inline;opacity:1;fill:#ffe680;fill-opacity:1;stroke:none;stroke-width:0.44543669;stroke-linecap:butt;stroke-linejoin:miter;stroke-miterlimit:4;stroke-dasharray:none;stroke-opacity:1;paint-order:normal" />
    </g>
  </g>
  <g
     aria-label="王"
     style="font-style:normal;font-variant:normal;font-weight:normal;font-stretch:normal;font-size:19.77212906px;line-height:1.25;font-family:PMingLiU;-inkscape-font-specification:PMingLiU;letter-spacing:0px;word-spacing:0px;display:inline;fill:#000000;fill-opacity:1;stroke:none;stroke-width:2.2165513;stroke-miterlimit:4;stroke-dasharray:none"
     id="text10427">
    <path
       d="m 26.281907,23.121946 q 1.385344,0.831207 0.969741,1.800948 -0.277069,0.969742 -0.415603,5.402844 2.49362,-0.554138 3.463361,-0.831207 1.108276,-0.277068 2.355086,0.554138 1.385344,0.692673 -1.24681,1.385345 -2.632155,0.554138 -4.571637,0.831207 0,4.156033 -0.138535,7.619395 3.740431,-0.554138 5.818447,-0.831207 2.216552,-0.277069 3.324827,-0.277069 1.108276,-0.138534 2.355086,0.277069 1.385345,0.277069 2.355086,1.523879 0.969741,1.108276 -3.186293,0.692672 -4.017499,-0.415603 -8.034998,0 -3.878965,0.277069 -7.896464,0.969741 -4.017499,0.692673 -5.956982,1.108276 -1.800948,0.277069 -3.324827,-0.692672 -1.523879,-0.969741 0.138535,-0.969741 1.800948,-0.138535 4.710171,-0.415604 2.909224,-0.415603 7.896464,-1.24681 v -7.48086 q -2.216551,0.415603 -3.463361,0.554137 -1.24681,0.138535 -2.770689,-0.554137 -1.523879,-0.831207 0.831207,-1.108276 2.49362,-0.277069 5.402843,-0.831207 0.138535,-3.047758 0,-4.710171 -0.138534,-1.662414 -0.415603,-2.493621 -1.800948,0.277069 -3.186293,0.415604 -1.385344,0 -2.632154,-0.692673 -1.24681,-0.831206 0.138534,-0.969741 1.385345,-0.138534 5.818447,-0.969741 4.433103,-0.831207 6.234051,-1.24681 1.939482,-0.415603 2.909224,0.415603 0.969741,0.831207 -1.800948,1.662414 -2.632155,0.692672 -5.679913,1.108275 z"
       style="font-style:normal;font-variant:normal;font-weight:normal;font-stretch:normal;font-size:35.46482086px;font-family:KaiTi;-inkscape-font-specification:KaiTi;fill:#000000;stroke-width:2.2165513;stroke-miterlimit:4;stroke-dasharray:none"
       id="path4691" />
  </g>
</svg>
