<?xml version="1.0" encoding="UTF-8" standalone="no"?>
<svg
   viewBox="0 0 60 60"
   version="1.1"
   id="svg37"
   sodipodi:docname="0RY.svg"
   inkscape:version="1.3 (0e150ed6c4, 2023-07-21)"
   xmlns:inkscape="http://www.inkscape.org/namespaces/inkscape"
   xmlns:sodipodi="http://sodipodi.sourceforge.net/DTD/sodipodi-0.dtd"
   xmlns:xlink="http://www.w3.org/1999/xlink"
   xmlns="http://www.w3.org/2000/svg"
   xmlns:svg="http://www.w3.org/2000/svg">
  <sodipodi:namedview
     id="namedview37"
     pagecolor="#ffffff"
     bordercolor="#666666"
     borderopacity="1.0"
     inkscape:showpageshadow="2"
     inkscape:pageopacity="0.0"
     inkscape:pagecheckerboard="0"
     inkscape:deskcolor="#d1d1d1"
     inkscape:zoom="7.6083332"
     inkscape:cx="-19.58379"
     inkscape:cy="60.722893"
     inkscape:window-width="3840"
     inkscape:window-height="2054"
     inkscape:window-x="-11"
     inkscape:window-y="-11"
     inkscape:window-maximized="1"
     inkscape:current-layer="svg37"
     showgrid="false" />
  <defs
     id="defs11">
    <linearGradient
       xlink:href="#1FU_svg__b"
       id="0HI_svg__c"
       x1="-30.849001"
       x2="-15.094"
       y1="30.267"
       y2="30.267"
       gradientTransform="translate(40.882,-0.267)"
       gradientUnits="userSpaceOnUse"
       spreadMethod="repeat" />
    <filter
       id="0HI_svg__b"
       x="-0.11949807"
       y="-0.099879312"
       width="1.288787"
       height="1.241375">
      <feGaussianBlur
         in="SourceAlpha"
         result="blur"
         stdDeviation="2"
         id="feGaussianBlur11" />
      <feOffset
         dx="2"
         dy="2"
         result="offsetBlur"
         id="feOffset11" />
      <feBlend
         in="SourceGraphic"
         in2="offsetBlur"
         id="feBlend11" />
    </filter>
    <filter
       style="color-interpolation-filters:sRGB;"
       inkscape:label="Matte Jelly"
       id="filter79"
       x="-0.025012147"
       y="-0.01818089"
       width="1.0500243"
       height="1.0363618">
      <feColorMatrix
         values="1 0 0 0 0 0 1 0 0 0 0 0 1 0 0 0 0 0 0.85 0"
         result="color"
         in="SourceGraphic"
         id="feColorMatrix77" />
      <feGaussianBlur
         in="SourceAlpha"
         stdDeviation="0.32"
         result="blur"
         id="feGaussianBlur77" />
      <feSpecularLighting
         in="blur"
         specularExponent="25"
         specularConstant="2.01863"
         surfaceScale="5"
         lighting-color="rgb(255,255,255)"
         result="specular"
         id="feSpecularLighting77">
        <feDistantLight
           elevation="25"
           azimuth="245"
           id="feDistantLight77" />
      </feSpecularLighting>
      <feComposite
         in="specular"
         in2="SourceGraphic"
         k3="1"
         k2="1"
         operator="arithmetic"
         result="composite1"
         id="feComposite78" />
      <feComposite
         in="composite1"
         in2="color"
         operator="atop"
         result="composite2"
         id="feComposite79" />
    </filter>
    <linearGradient
       id="1FU_svg__b">
      <stop
         offset="0"
         stop-color="#e5c37b"
         id="stop23" />
      <stop
         offset=".042"
         stop-color="#e4bd76"
         id="stop24" />
      <stop
         offset=".093"
         stop-color="#e7c781"
         id="stop25" />
      <stop
         offset=".165"
         stop-color="#e2b86e"
         id="stop26" />
      <stop
         offset=".305"
         stop-color="#e6c686"
         id="stop27" />
      <stop
         offset=".539"
         stop-color="#dfb96f"
         id="stop28" />
      <stop
         offset=".586"
         stop-color="#ddbb73"
         id="stop29" />
      <stop
         offset=".84"
         stop-color="#e7ce8f"
         id="stop30" />
      <stop
         offset=".924"
         stop-color="#e1bd73"
         id="stop31" />
      <stop
         offset=".962"
         stop-color="#e0bf78"
         id="stop32" />
      <stop
         offset="1"
         stop-color="#e7c685"
         id="stop33" />
    </linearGradient>
  </defs>
  <g
     fill="#75581b"
     filter="url(#0HI_svg__b)"
     transform="translate(41.197 .902)"
     id="g11">
    <path
       fill="#84631f"
       d="m -10.96,6.237 -12.84,3.61 -6.865,43.278 -0.419012,0.02524 L -30.85,54.295 H 9.084 L 1.9992716,9.0815214 1.666,8.963 1.869,10.008 Z"
       id="path11"
       sodipodi:nodetypes="cccccccccc" />
  </g>
  <path
     fill="url(#0HI_svg__c)"
     d="M 29.922,5.97 17.084,9.578 10.033,54.028 H 49.967 L 43.177,9.865 Z"
     id="path12"
     sodipodi:nodetypes="cccccc" />
  <path
     fill="#654b13"
     d="M 10.044285,54.006765 10.347,55.197 h 39.934 l -0.315842,-1.135141 z"
     id="path37"
     sodipodi:nodetypes="ccccc" />
  <path
     id="path2"
     style="fill:#c80000;fill-opacity:1;filter:url(#filter79)"
     d="m 24.686552,9.6451264 c 0.08441,0.7892286 1.855427,5.3151286 -0.382813,4.7792966 -0.02669,-0.0066 -0.04837,-0.0075 -0.07422,-0.01367 -0.702551,-0.507915 -0.961494,-1.726185 -0.994141,-1.851563 -0.04407,-0.169946 -0.274588,-0.367382 -0.574219,-0.546875 -0.895809,-0.534062 -2.562608,-0.637159 -1.417968,0.511719 0.933262,1.212459 1.775925,2.071022 2.158203,3.0625 l 0.0078,-0.0039 c 0.166336,0.870378 0.603386,2.146861 0.830078,2.970704 l 0.333985,1.439453 c 0.119027,0.411457 0.34563,1.110081 0.664062,1.722656 0.161754,0.311537 0.347632,0.600086 0.529297,0.802734 0.180801,0.198495 0.336219,0.300865 0.486328,0.341797 0.09023,-0.105082 0.155225,-0.229063 0.189453,-0.363281 0.0999,-0.331431 0.150225,-0.839376 0.169922,-1.347656 0.01968,-0.508285 0.01,-1.021236 0.002,-1.388672 -0.0031,-0.181367 -0.0058,-0.326206 -0.0039,-0.427735 -0.813176,-1.094688 -1.120087,-2.043278 -1.519531,-3.296874 0.04062,-0.168949 0.409988,-0.157497 0.65039,-0.234376 3.444362,-1.103254 0.601211,-5.02344 -0.628906,-5.9414056 l 0.002,-0.0039 c -0.07226,-0.0545 -0.150054,-0.10104 -0.230469,-0.142578 -0.06138,-0.03378 -0.128036,-0.05764 -0.197265,-0.06836 z m 10.628906,0 c -0.06923,0.01072 -0.135886,0.03458 -0.197265,0.06836 -0.08042,0.04154 -0.158209,0.08808 -0.230469,0.142578 l 0.002,0.0039 c -1.230117,0.9179656 -4.073268,4.8381516 -0.628906,5.9414056 0.190016,0.06077 0.484245,0.451883 0.599609,0.390626 -0.375192,1.173894 -0.691268,2.093987 -1.46875,3.140624 0.0019,0.101529 -8.06e-4,0.246368 -0.0039,0.427735 -0.008,0.367436 -0.01773,0.880387 0.002,1.388672 0.0197,0.50828 0.07002,1.016225 0.169922,1.347656 0.03423,0.134218 0.09922,0.258199 0.189453,0.363281 0.150109,-0.04093 0.305527,-0.143302 0.486328,-0.341797 0.181665,-0.202648 0.367543,-0.491197 0.529297,-0.802734 0.318432,-0.612575 0.545035,-1.311199 0.664062,-1.722656 l 0.333985,-1.439453 c 0.226692,-0.823843 0.663742,-2.100326 0.830078,-2.970704 l 0.0078,0.0039 c 0.382278,-0.991478 1.224938,-1.850041 2.158198,-3.0625 1.14464,-1.148878 -0.52215,-1.045781 -1.417963,-0.511719 -0.299631,0.179493 -0.530149,0.376929 -0.574219,0.546875 -0.03265,0.125378 -0.29159,1.343648 -0.994141,1.851563 -0.02585,0.0062 -0.04753,0.0071 -0.07422,0.01367 -2.23824,0.535832 -0.467223,-3.990068 -0.382813,-4.7792966 z m -5.314453,9.9550786 -2.380859,0.574218 c 0.0042,0.308624 0.0064,0.647757 -0.0078,1.013672 -0.02091,0.539506 -0.06058,1.064954 -0.208984,1.570313 -0.07338,0.276908 -0.20404,0.534655 -0.390625,0.751953 l -0.41211,0.480469 -0.611328,-0.166016 c -0.391232,-0.106683 -0.704154,-0.352849 -0.960937,-0.634766 l -0.0039,-0.002 -0.002,-0.0039 c -0.267652,-0.298572 -0.4827,-0.639703 -0.673828,-1.007813 -0.195475,-0.376038 -0.350956,-0.755867 -0.474609,-1.099609 l -0.166016,0.04102 v 0.002 c -0.493997,1.308997 -0.314703,3.72574 -0.0957,5.427734 l 0.03906,0.314453 -0.292969,0.119141 c -0.379,0.155 -0.866719,0.346594 -1.261719,0.558594 -0.393997,0.21 -0.640344,0.475531 -0.652344,0.519531 l -0.486328,1.773437 c -0.057,0.212 -0.04053,0.324719 -0.01953,0.386719 0.023,0.062 0.05772,0.09844 0.136719,0.148438 0.127,0.082 0.362518,0.141031 0.603515,0.207031 0.393,-0.004 0.833925,-0.02442 1.294922,0.01758 0.565,0.053 1.169425,0.219938 1.607422,0.710938 l 0.04297,0.05078 0.02734,0.0625 c 0.170997,0.401997 0.276906,0.835909 0.378906,1.253906 h -0.666016 c -0.313997,-0.009 -3.699521,-0.07519 -5.728515,2.591797 -0.766,1.007997 -1.4998,1.752719 -2.341797,2.136719 -0.367,0.168 -0.530891,0.317422 -0.837891,0.357422 -0.19,0.025 -0.526594,-0.09683 -0.808594,-0.173829 l 0.263672,0.685547 c 0.916997,0.314 1.660144,0.160266 2.369141,-0.302734 0.737997,-0.48 1.420987,-1.28444 2.083984,-2.148437 0.863997,-1.135997 2.255972,-1.661972 3.417969,-1.917969 0.986997,-0.218 1.570781,-0.202125 1.800781,-0.203125 l 0.740235,-0.0293 c 0.048,0.113333 0.09901,0.210351 0.152343,0.291015 0.07041,0.117166 0.178362,0.208637 0.306641,0.25586 1.378546,-0.307412 2.776535,-0.523704 4.183594,-0.646484 l 0.0332,-0.0039 0.03516,0.0039 c 1.089997,0.09 2.664644,0.305484 4.181641,0.646484 0.128279,-0.04722 0.236228,-0.138694 0.30664,-0.25586 0.05851,-0.09235 0.109688,-0.188404 0.152344,-0.289062 l 0.738281,0.02734 c 0.23,0 0.817691,-0.01487 1.804688,0.203125 1.161996,0.255997 2.553966,0.781972 3.417966,1.917969 0.663,0.863997 1.34504,1.669437 2.08203,2.148437 0.71,0.462 1.4541,0.616734 2.3711,0.302734 l 0.26367,-0.685547 c -0.282,0.077 -0.61859,0.198829 -0.80859,0.173829 -0.306,-0.04 -0.4709,-0.190422 -0.8379,-0.357422 -0.84199,-0.384 -1.5758,-1.128722 -2.34179,-2.136719 -2.029,-2.666991 -5.41452,-2.599797 -5.728517,-2.591797 h -0.667969 c 0.101,-0.417997 0.206906,-0.850909 0.378906,-1.253906 l 0.02734,-0.0625 0.04492,-0.05078 c 0.439997,-0.496 1.063203,-0.676954 1.658203,-0.751954 0.549997,-0.07 1.090297,-0.05455 1.529297,-0.06055 0.11052,-0.02726 0.21767,-0.06798 0.31836,-0.121094 0.08,-0.05 0.11276,-0.08939 0.13476,-0.150391 0.022,-0.063 0.0365,-0.174719 -0.0215,-0.386719 L 38.55564,28.05919 c -0.011,-0.043 -0.2603,-0.309487 -0.65429,-0.521484 -0.394003,-0.21 -0.882725,-0.400688 -1.261722,-0.554688 l -0.292969,-0.121094 0.03906,-0.314453 c 0.217997,-1.701994 0.397343,-4.120693 -0.09766,-5.429687 l -0.162074,-0.03906 c -0.123516,0.343108 -0.27765,0.722519 -0.472656,1.097656 -0.191128,0.36811 -0.406175,0.709241 -0.673828,1.007813 l -0.002,0.0039 -0.0039,0.002 c -0.256784,0.281917 -0.569704,0.528083 -0.960937,0.634766 l -0.611328,0.166012 -0.41211,-0.480469 c -0.186585,-0.217298 -0.317245,-0.475044 -0.390625,-0.751953 -0.148404,-0.505359 -0.188074,-1.030807 -0.208984,-1.570313 -0.01419,-0.365501 -0.01197,-0.704884 -0.0078,-1.013672 z m -10.128906,1.398437 c -0.714,1.577997 -1.014994,2.434725 1,4.761719 -1.329997,-0.318 -2.77286,-2.990063 -3.38086,-3.539063 -1.040997,2.635994 0.263006,3.792816 1.875,4.632813 -1.571994,0.336 -2.509943,-0.418485 -4.085937,-0.896485 0.877997,1.604997 1.962147,4.058013 4.619141,2.916016 -0.987,1.355997 -2.705785,1.981519 -4.175782,2.853516 1.510997,0.285997 3.086006,1.035934 4.375,-0.289063 -0.668997,1.221997 -1.759128,2.26641 -2.828125,3.316407 0.437074,-0.05774 0.871471,-0.133076 1.302735,-0.22461 0.683997,-0.755997 1.475768,-1.259237 2.259765,-1.615234 0.008,-0.418 0.122328,-0.852378 0.236328,-1.234375 0.068,-0.228 0.08567,-0.263157 0.138672,-0.410157 -0.194,-0.05 -0.353172,-0.06213 -0.576172,-0.203124 -0.213959,-0.132298 -0.379906,-0.333011 -0.46875,-0.56836 -0.093,-0.257 -0.08995,-0.555862 -0.002,-0.880859 l 0.486328,-1.775391 c 0.144,-0.528997 0.600597,-0.78525 1.058594,-1.03125 0.363,-0.194 0.728547,-0.33375 1.060547,-0.46875 -0.05335,-0.402494 -0.09936,-0.806831 -0.138672,-1.210937 z m 20.255861,0 -2.761721,4.136719 c -0.03814,0.403108 -0.08225,0.805543 -0.134765,1.207031 0.331997,0.135 0.694646,0.27475 1.056636,0.46875 0.46,0.246 0.91851,0.502253 1.0625,1.03125 l 0.48243,1.775391 c 0.09,0.324997 0.094,0.623859 0,0.880859 -0.093,0.258 -0.2788,0.44836 -0.4668,0.56836 -0.223,0.140997 -0.38413,0.154127 -0.57813,0.203124 0.053,0.147 0.0746,0.182157 0.14258,0.410157 0.114,0.381997 0.22442,0.816375 0.23242,1.234375 0.785,0.355997 1.57968,0.859237 2.26368,1.615234 0.426,0.09133 0.86068,0.16661 1.30468,0.22461 -1.06999,-1.049997 -2.16108,-2.09441 -2.83007,-3.316407 1.28899,1.324997 2.86595,0.57506 4.37695,0.289063 -1.47,-0.871997 -3.19174,-1.497519 -4.17774,-2.853516 2.657,1.141997 3.74015,-1.310019 4.61914,-2.916016 -1.57799,0.478 -2.51199,1.231485 -4.08398,0.896485 1.61199,-0.839997 2.91504,-1.996819 1.87305,-4.632813 -0.607,0.548 -2.05287,3.220063 -3.38086,3.539063 2.01399,-2.327994 1.71299,-3.183722 1,-4.761719 z m -5.826174,3.824219 c 0.05384,0.0013 0.109012,0.0076 0.16211,0.01758 0.352997,0.06 0.681656,0.283672 0.972656,0.763672 0.770997,1.576994 -0.451988,2.339018 -1.708985,2.791015 -1.339994,0.217 -2.097768,-0.160018 -2.634765,-1.041015 2.096994,-1.508997 2.369831,-2.426438 3.048828,-2.523438 0.05353,-0.0074 0.106313,-0.0092 0.160156,-0.0078 z m -8.443359,0.0078 c 0.678997,0.097 0.951834,1.014441 3.048828,2.523438 -0.536997,0.881997 -1.296722,1.258015 -2.636719,1.041015 -1.256994,-0.451997 -2.479981,-1.213021 -1.708984,-2.791015 0.29,-0.48 0.619656,-0.703672 0.972656,-0.763672 0.119,-0.02 0.320219,0.08619 0.324219,-0.0078 z m 2.128906,6.21875 c 0.659997,0.145 0.950253,1.092735 1.40625,1.677735 l -0.83789,-0.621082 -1.041016,-0.111328 c 0.069,-0.45 -0.367341,-0.809313 0.472656,-0.945313 z m 4.023438,0 c 0.839997,0.136 0.404609,0.494313 0.474609,0.945313 l -1.041016,0.113281 -0.83789,0.619141 c 0.456997,-0.585 0.744297,-1.532735 1.404297,-1.677735 z m 5.927729,0.277344 c -0.253253,6.11e-4 -0.506107,0.01494 -0.757807,0.04297 -0.479,0.06 -0.855563,0.20694 -1.101563,0.460937 -0.035,0.089 -0.0618,0.202641 -0.0918,0.306641 0.779927,0.04454 1.550714,0.190024 2.29297,0.433594 -0.0319,-0.221554 -0.0793,-0.440964 -0.14063,-0.65625 -0.098,-0.328 -0.16217,-0.486891 -0.20117,-0.587892 z m -15.472651,0.06641 c -0.143552,-0.0028 -0.286139,-9.93e-4 -0.429688,0.0039 -0.047,0.124 -0.08978,0.229578 -0.175781,0.517578 -0.068,0.226 -0.09495,0.440344 -0.126953,0.652344 0.738261,-0.241107 1.50393,-0.385329 2.279297,-0.429688 -0.03,-0.103 -0.0578,-0.216688 -0.0918,-0.304688 -0.246,-0.254997 -0.579438,-0.377921 -1.023438,-0.419921 -0.143241,-0.01056 -0.288088,-0.0167 -0.43164,-0.01953 z m 12.857422,2.794922 c -0.038,0.076 -0.06824,0.155563 -0.115235,0.226563 -0.18,0.270997 -0.440156,0.51114 -0.785156,0.61914 0.038,3.945988 -0.02468,3.54059 -1.013672,7.267578 l -0.04102,0.154297 -0.134766,0.08594 c -0.889997,0.571997 -2.051753,0.853516 -3.21875,0.853515 -1.166997,0 -2.343144,-0.283828 -3.244141,-0.923828 l -0.121093,-0.08594 -0.03711,-0.144531 c -0.986992,-3.744982 -1.104573,-3.332175 -1.017573,-7.201163 l -0.01172,-0.002 c -0.329939,-0.109372 -0.611533,-0.330941 -0.796875,-0.625 -0.046,-0.07 -0.07333,-0.148657 -0.111328,-0.222657 -0.59929,0.01149 -1.197045,0.08463 -1.78125,0.21875 -0.226949,0.0525 -0.450371,0.115398 -0.671875,0.1875 0.113,0.194 0.222375,0.389454 0.359375,0.564454 -0.007,-0.01 0.291688,0.1985 0.554688,0.3125 0.262997,0.113997 0.5,0.191406 0.5,0.191406 l 0.238281,0.08008 0.03906,0.25 c 0.554,3.645988 1.300706,4.984946 2.220703,7.710937 0.110975,0.166699 0.241253,0.31954 0.388672,0.455079 l 0.574219,7.689453 0.8125,-5.777344 1.087891,5.128906 1.005859,-5.023437 1,5.013672 1.095703,-5.205079 0.8125,5.900391 0.56836,-7.730469 c 0.144997,-0.138 0.278765,-0.285172 0.384765,-0.451172 0.919997,-2.724991 1.664753,-4.062996 2.21875,-7.708984 l 0.04102,-0.25 0.238281,-0.08008 c 0,0 0.238956,-0.07936 0.501953,-0.193359 0.263,-0.114 0.558781,-0.3215 0.550781,-0.3125 0.137,-0.176 0.248329,-0.372407 0.361332,-0.566407 -0.221209,-0.0714 -0.4453,-0.133672 -0.671878,-0.185547 -0.584496,-0.134525 -1.18159,-0.208957 -1.78125,-0.220703 z m -5.326172,0.205078 c -0.923997,0.078 -2.198519,0.242003 -3.478516,0.5 l 0.585938,3.134766 0.810546,-1.570313 1.089844,1.203126 1.00586,-1.142579 1,1.136719 1.095703,-1.246094 0.8125,1.640625 0.578125,-3.15039 c -1.156445,-0.233052 -2.324901,-0.401837 -3.5,-0.50586 z m 0.01367,5.277344 -1,0.962891 -0.947266,-0.91211 -0.425781,2.259766 c 0.671997,0.369 1.507956,0.589844 2.376953,0.589844 0.862997,0 1.69619,-0.214782 2.367187,-0.550782 l -0.43164,-2.291015 -0.939453,0.904297 z" />
</svg>
