<?xml version="1.0" encoding="UTF-8" standalone="no"?>
<svg
   viewBox="0 0 60 60"
   version="1.1"
   id="svg37"
   sodipodi:docname="0SU.svg"
   inkscape:version="1.3 (0e150ed6c4, 2023-07-21)"
   xmlns:inkscape="http://www.inkscape.org/namespaces/inkscape"
   xmlns:sodipodi="http://sodipodi.sourceforge.net/DTD/sodipodi-0.dtd"
   xmlns:xlink="http://www.w3.org/1999/xlink"
   xmlns="http://www.w3.org/2000/svg"
   xmlns:svg="http://www.w3.org/2000/svg">
  <sodipodi:namedview
     id="namedview37"
     pagecolor="#ffffff"
     bordercolor="#666666"
     borderopacity="1.0"
     inkscape:showpageshadow="2"
     inkscape:pageopacity="0.0"
     inkscape:pagecheckerboard="0"
     inkscape:deskcolor="#d1d1d1"
     inkscape:zoom="7.6083332"
     inkscape:cx="-52.048194"
     inkscape:cy="57.568457"
     inkscape:window-width="3840"
     inkscape:window-height="2054"
     inkscape:window-x="-11"
     inkscape:window-y="-11"
     inkscape:window-maximized="1"
     inkscape:current-layer="svg37"
     showgrid="false" />
  <defs
     id="defs11">
    <linearGradient
       xlink:href="#1FU_svg__b"
       id="0HI_svg__c"
       x1="-30.849001"
       x2="-15.094"
       y1="30.267"
       y2="30.267"
       gradientTransform="translate(40.882,-0.267)"
       gradientUnits="userSpaceOnUse"
       spreadMethod="repeat" />
    <filter
       id="0HI_svg__b"
       x="-0.11949807"
       y="-0.099879312"
       width="1.288787"
       height="1.241375">
      <feGaussianBlur
         in="SourceAlpha"
         result="blur"
         stdDeviation="2"
         id="feGaussianBlur11" />
      <feOffset
         dx="2"
         dy="2"
         result="offsetBlur"
         id="feOffset11" />
      <feBlend
         in="SourceGraphic"
         in2="offsetBlur"
         id="feBlend11" />
    </filter>
    <filter
       style="color-interpolation-filters:sRGB;"
       inkscape:label="Matte Jelly"
       id="filter79"
       x="-0.025012147"
       y="-0.01818089"
       width="1.0500243"
       height="1.0363618">
      <feColorMatrix
         values="1 0 0 0 0 0 1 0 0 0 0 0 1 0 0 0 0 0 0.85 0"
         result="color"
         in="SourceGraphic"
         id="feColorMatrix77" />
      <feGaussianBlur
         in="SourceAlpha"
         stdDeviation="0.32"
         result="blur"
         id="feGaussianBlur77" />
      <feSpecularLighting
         in="blur"
         specularExponent="25"
         specularConstant="2.01863"
         surfaceScale="5"
         lighting-color="rgb(255,255,255)"
         result="specular"
         id="feSpecularLighting77">
        <feDistantLight
           elevation="25"
           azimuth="245"
           id="feDistantLight77" />
      </feSpecularLighting>
      <feComposite
         in="specular"
         in2="SourceGraphic"
         k3="1"
         k2="1"
         operator="arithmetic"
         result="composite1"
         id="feComposite78" />
      <feComposite
         in="composite1"
         in2="color"
         operator="atop"
         result="composite2"
         id="feComposite79" />
    </filter>
    <linearGradient
       id="1FU_svg__b">
      <stop
         offset="0"
         stop-color="#e5c37b"
         id="stop23" />
      <stop
         offset=".042"
         stop-color="#e4bd76"
         id="stop24" />
      <stop
         offset=".093"
         stop-color="#e7c781"
         id="stop25" />
      <stop
         offset=".165"
         stop-color="#e2b86e"
         id="stop26" />
      <stop
         offset=".305"
         stop-color="#e6c686"
         id="stop27" />
      <stop
         offset=".539"
         stop-color="#dfb96f"
         id="stop28" />
      <stop
         offset=".586"
         stop-color="#ddbb73"
         id="stop29" />
      <stop
         offset=".84"
         stop-color="#e7ce8f"
         id="stop30" />
      <stop
         offset=".924"
         stop-color="#e1bd73"
         id="stop31" />
      <stop
         offset=".962"
         stop-color="#e0bf78"
         id="stop32" />
      <stop
         offset="1"
         stop-color="#e7c685"
         id="stop33" />
    </linearGradient>
    <filter
       id="1KA_svg__a"
       x="-0.13338546"
       y="-0.1082508"
       width="1.3166419"
       height="1.257465">
      <feGaussianBlur
         in="SourceAlpha"
         result="blur"
         stdDeviation="2"
         id="feGaussianBlur1" />
      <feOffset
         dx="2"
         dy="2"
         result="offsetBlur"
         id="feOffset1" />
      <feBlend
         in="SourceGraphic"
         in2="offsetBlur"
         id="feBlend1"
         mode="normal" />
    </filter>
    <filter
       id="1KA_svg__a-0"
       x="-0.13338546"
       y="-0.1082508"
       width="1.3166419"
       height="1.257465">
      <feGaussianBlur
         in="SourceAlpha"
         result="blur"
         stdDeviation="2"
         id="feGaussianBlur1-5" />
      <feOffset
         dx="2"
         dy="2"
         result="offsetBlur"
         id="feOffset1-9" />
      <feBlend
         in="SourceGraphic"
         in2="offsetBlur"
         id="feBlend1-6"
         mode="normal" />
    </filter>
    <filter
       style="color-interpolation-filters:sRGB;"
       inkscape:label="Matte Jelly"
       id="filter3"
       x="-0.032402149"
       y="-0.028367379"
       width="1.0648043"
       height="1.0567348">
      <feColorMatrix
         values="1 0 0 0 0 0 1 0 0 0 0 0 1 0 0 0 0 0 0.85 0"
         result="color"
         in="SourceGraphic"
         id="feColorMatrix1" />
      <feGaussianBlur
         in="SourceAlpha"
         stdDeviation="0.32"
         result="blur"
         id="feGaussianBlur2" />
      <feSpecularLighting
         in="blur"
         specularExponent="25"
         specularConstant="2.01863"
         surfaceScale="5"
         lighting-color="rgb(255,255,255)"
         result="specular"
         id="feSpecularLighting2">
        <feDistantLight
           elevation="25"
           azimuth="245"
           id="feDistantLight2" />
      </feSpecularLighting>
      <feComposite
         in="specular"
         in2="SourceGraphic"
         k3="1"
         k2="1"
         operator="arithmetic"
         result="composite1"
         id="feComposite2" />
      <feComposite
         in="composite1"
         in2="color"
         operator="atop"
         result="composite2"
         id="feComposite3" />
    </filter>
    <filter
       id="0HI_svg__a"
       x="-0.1341634"
       y="-0.11018899"
       width="1.3183556"
       height="1.2615933">
      <feGaussianBlur
         in="SourceAlpha"
         result="blur"
         stdDeviation="2"
         id="feGaussianBlur1-59" />
      <feOffset
         dx="2"
         dy="2"
         result="offsetBlur"
         id="feOffset1-3" />
      <feBlend
         in="SourceGraphic"
         in2="offsetBlur"
         id="feBlend1-9"
         mode="normal" />
    </filter>
    <filter
       style="color-interpolation-filters:sRGB;"
       inkscape:label="Matte Jelly"
       id="filter5"
       x="-0.026687844"
       y="-0.022876324"
       width="1.0533757"
       height="1.0457526">
      <feColorMatrix
         values="1 0 0 0 0 0 1 0 0 0 0 0 1 0 0 0 0 0 0.85 0"
         result="color"
         in="SourceGraphic"
         id="feColorMatrix3" />
      <feGaussianBlur
         in="SourceAlpha"
         stdDeviation="0.32"
         result="blur"
         id="feGaussianBlur3" />
      <feSpecularLighting
         in="blur"
         specularExponent="25"
         specularConstant="2.01863"
         surfaceScale="5"
         lighting-color="rgb(255,255,255)"
         result="specular"
         id="feSpecularLighting3">
        <feDistantLight
           elevation="25"
           azimuth="245"
           id="feDistantLight3" />
      </feSpecularLighting>
      <feComposite
         in="specular"
         in2="SourceGraphic"
         k3="1"
         k2="1"
         operator="arithmetic"
         result="composite1"
         id="feComposite4" />
      <feComposite
         in="composite1"
         in2="color"
         operator="atop"
         result="composite2"
         id="feComposite5" />
    </filter>
  </defs>
  <g
     fill="#75581b"
     filter="url(#0HI_svg__b)"
     transform="translate(41.197 .902)"
     id="g11">
    <path
       fill="#84631f"
       d="m -10.96,6.237 -12.84,3.61 -6.865,43.278 -0.419012,0.02524 L -30.85,54.295 H 9.084 L 1.9992716,9.0815214 1.666,8.963 1.869,10.008 Z"
       id="path11"
       sodipodi:nodetypes="cccccccccc" />
  </g>
  <path
     fill="url(#0HI_svg__c)"
     d="M 29.922,5.97 17.084,9.578 10.033,54.028 H 49.967 L 43.177,9.865 Z"
     id="path12"
     sodipodi:nodetypes="cccccc" />
  <path
     fill="#654b13"
     d="M 10.044285,54.006765 10.347,55.197 h 39.934 l -0.315842,-1.135141 z"
     id="path37"
     sodipodi:nodetypes="ccccc" />
  <path
     id="path6781"
     style="fill:#040302;fill-opacity:1;stroke:none;stroke-width:0.73497px;stroke-linecap:butt;stroke-linejoin:miter;stroke-opacity:1;filter:url(#filter5)"
     d="m 26.860048,15.258103 a 1.0326144,0.95885664 0 0 0 -1.03296,0.96 1.0326144,0.95885664 0 0 0 1.03296,0.96 1.0326144,0.95885664 0 0 0 1.03296,-0.96 1.0326144,0.95885664 0 0 0 -1.03296,-0.96 z m 3.03264,2.50848 a 0.92197728,1.0326144 0 0 0 -0.8928,1.03296 0.92197728,1.0326144 0 0 0 0.9216,1.03296 0.92197728,1.0326144 0 0 0 0.9216,-1.03296 0.92197728,1.0326144 0 0 0 -0.9216,-1.03296 0.92197728,1.0326144 0 0 0 -0.03,0 z m -2.84928,1.69632 a 0.995736,1.0326144 0 0 0 -0.99552,1.03296 0.995736,1.0326144 0 0 0 0.99552,1.03296 0.995736,1.0326144 0 0 0 0.99552,-1.03296 0.995736,1.0326144 0 0 0 -0.99552,-1.03296 z m 5.01024,3.09312 c -2.5296,0.03514 -4.45056,1.42752 -6.0528,3.5328 -1.82016,2.03328 -3.08448,4.57536 -3.72,7.69824 -0.624,1.26912 -1.15392,1.49376 -1.68384,1.7712 -1.60704,-0.4896 -2.13216,-1.25088 -1.75392,-2.232 0.2496,-1.39296 2.44704,-2.57952 3.85824,-3.8496 1.12128,-2.03904 1.64736,-3.99936 -0.4224,-5.6208 -6.14496,-1.58016 -4.95264,3.624 -3.64896,4.77408 0.8736,-0.4224 1.40448,-0.9408 1.68384,-1.53984 -0.1824,-0.336 -0.6912,-0.624 0,-1.07712 0.3744,0.03514 0.576,0.2208 0.7008,0.4608 0,0.768 0.3552,0.8832 -2.52576,3.07968 -1.69728,0.8928 -1.8192,2.30208 -2.45568,3.54144 -1.17024,6.72672 1.368,8.74464 4.56,9.931488 0.6048,-0.5568 0.7872,-1.34112 1.05216,-2.07936 0.912,0.2208 1.76448,0.2976 3.01728,1.38624 0.3072,-0.3072 0.6048,-0.6144 0.912,-0.9216 l 1.06656,-0.8544 c 0.288,0.7296 -0.2976,1.05216 -0.5952,1.50816 -0.432,0.6624 -1.33536,1.3488 -2.08512,1.80384 l 1.68384,0.2304 c 0.7584,-0.3168 1.35648,-0.7872 1.89504,-1.30848 l 0.912,-0.3072 c 0.8544,-2.28768 1.67808,-4.58208 2.0352,-7.00608 -0.0602,-0.7584 -0.0702,-1.36224 -0.4896,-3.46464 l 0.4896,-1.7712 2.9472,-3.6192 -2.24544,3.8496 -0.4224,1.61664 c -0.0703,1.17792 0.1056,2.17824 0.4224,3.07968 l -0.144,1.61664 c -0.768,2.38464 -1.65504,4.67136 -1.824,7.31424 0.0902,0.5952 0.288,1.11168 0.912,1.30848 7.87968,-0.3264 11.80819,-4.03008 14.24332,-9.00864 l 0.144,-1.61568 c -1.4784,-6.84576 -5.71968,-10.355328 -11.36716,-12.164352 -0.336,-0.04416 -0.6624,-0.06826 -0.984,-0.06826 -0.04,-9.6e-5 -0.0802,-5.76e-4 -0.1248,0 z m -6.64608,8.67072 c 0.1344,-1.92e-4 0.2688,0.05213 0.4128,0.2112 l 1.2384,1.60224 c 0.2016,0.5184 0.2784,1.02624 0.0803,1.51584 -0.2208,-0.3936 -0.4224,-0.7872 -0.9408,-1.18368 -0.576,-0.1728 -1.1712,-0.336 -1.52352,-0.7104 -0.1632,-0.9024 0.0301,-0.9504 0.1248,-1.23744 0.192,-0.05616 0.384,-0.1824 0.5856,-0.192 0.009,-4.8e-4 0.0201,-7.68e-4 0.0301,-8.64e-4 z m -3.26592,10.567872 c -0.9312,3.13056 -2.8416,4.86624 -4.63104,6.77472 -0.144,0.24 0.096,0.3072 0.7008,0.2304 2.73984,-1.4352 4.81248,-3.35712 5.6832,-6.15936 -0.5472,-0.3168 -0.9216,-0.8352 -1.75392,-0.8448 z" />
</svg>
