<?xml version="1.0" encoding="UTF-8" standalone="no"?>
<svg
   viewBox="0 0 60 60"
   version="1.1"
   id="svg37"
   sodipodi:docname="0UM.svg"
   inkscape:version="1.3 (0e150ed6c4, 2023-07-21)"
   xmlns:inkscape="http://www.inkscape.org/namespaces/inkscape"
   xmlns:sodipodi="http://sodipodi.sourceforge.net/DTD/sodipodi-0.dtd"
   xmlns:xlink="http://www.w3.org/1999/xlink"
   xmlns="http://www.w3.org/2000/svg"
   xmlns:svg="http://www.w3.org/2000/svg">
  <sodipodi:namedview
     id="namedview37"
     pagecolor="#ffffff"
     bordercolor="#666666"
     borderopacity="1.0"
     inkscape:showpageshadow="2"
     inkscape:pageopacity="0.0"
     inkscape:pagecheckerboard="0"
     inkscape:deskcolor="#d1d1d1"
     inkscape:zoom="10.759808"
     inkscape:cx="25.418669"
     inkscape:cy="36.338937"
     inkscape:window-width="3840"
     inkscape:window-height="2054"
     inkscape:window-x="-11"
     inkscape:window-y="-11"
     inkscape:window-maximized="1"
     inkscape:current-layer="svg37" />
  <defs
     id="defs11">
    <linearGradient
       xlink:href="#1FU_svg__b"
       id="0HI_svg__c"
       x1="-30.849001"
       x2="-15.094"
       y1="30.267"
       y2="30.267"
       gradientTransform="translate(40.882,-0.267)"
       gradientUnits="userSpaceOnUse"
       spreadMethod="repeat" />
    <filter
       id="0HI_svg__b"
       x="-0.11949807"
       y="-0.099879312"
       width="1.288787"
       height="1.241375">
      <feGaussianBlur
         in="SourceAlpha"
         result="blur"
         stdDeviation="2"
         id="feGaussianBlur11" />
      <feOffset
         dx="2"
         dy="2"
         result="offsetBlur"
         id="feOffset11" />
      <feBlend
         in="SourceGraphic"
         in2="offsetBlur"
         id="feBlend11" />
    </filter>
    <linearGradient
       id="1FU_svg__b">
      <stop
         offset="0"
         stop-color="#e5c37b"
         id="stop23" />
      <stop
         offset=".042"
         stop-color="#e4bd76"
         id="stop24" />
      <stop
         offset=".093"
         stop-color="#e7c781"
         id="stop25" />
      <stop
         offset=".165"
         stop-color="#e2b86e"
         id="stop26" />
      <stop
         offset=".305"
         stop-color="#e6c686"
         id="stop27" />
      <stop
         offset=".539"
         stop-color="#dfb96f"
         id="stop28" />
      <stop
         offset=".586"
         stop-color="#ddbb73"
         id="stop29" />
      <stop
         offset=".84"
         stop-color="#e7ce8f"
         id="stop30" />
      <stop
         offset=".924"
         stop-color="#e1bd73"
         id="stop31" />
      <stop
         offset=".962"
         stop-color="#e0bf78"
         id="stop32" />
      <stop
         offset="1"
         stop-color="#e7c685"
         id="stop33" />
    </linearGradient>
    <filter
       style="color-interpolation-filters:sRGB;"
       inkscape:label="Matte Jelly"
       id="filter4"
       x="-0.023057241"
       y="-0.01759353"
       width="1.0461145"
       height="1.0351871">
      <feColorMatrix
         values="1 0 0 0 0 0 1 0 0 0 0 0 1 0 0 0 0 0 0.85 0"
         result="color"
         in="SourceGraphic"
         id="feColorMatrix3" />
      <feGaussianBlur
         in="SourceAlpha"
         stdDeviation="0.32"
         result="blur"
         id="feGaussianBlur3" />
      <feSpecularLighting
         in="blur"
         specularExponent="25"
         specularConstant="2.01863"
         surfaceScale="5"
         lighting-color="rgb(255,255,255)"
         result="specular"
         id="feSpecularLighting3">
        <feDistantLight
           elevation="25"
           azimuth="245"
           id="feDistantLight3" />
      </feSpecularLighting>
      <feComposite
         in="specular"
         in2="SourceGraphic"
         k3="1"
         k2="1"
         operator="arithmetic"
         result="composite1"
         id="feComposite3" />
      <feComposite
         in="composite1"
         in2="color"
         operator="atop"
         result="composite2"
         id="feComposite4" />
    </filter>
  </defs>
  <g
     fill="#75581b"
     filter="url(#0HI_svg__b)"
     transform="translate(41.197 .902)"
     id="g11">
    <path
       fill="#84631f"
       d="m -10.96,6.237 -12.84,3.61 -6.865,43.278 -0.419012,0.02524 L -30.85,54.295 H 9.084 L 1.9992716,9.0815214 1.666,8.963 1.869,10.008 Z"
       id="path11"
       sodipodi:nodetypes="cccccccccc" />
  </g>
  <path
     fill="url(#0HI_svg__c)"
     d="M 29.922,5.97 17.084,9.578 10.033,54.028 H 49.967 L 43.177,9.865 Z"
     id="path12"
     sodipodi:nodetypes="cccccc" />
  <path
     fill="#654b13"
     d="M 10.044285,54.006765 10.347,55.197 h 39.934 l -0.315842,-1.135141 z"
     id="path37"
     sodipodi:nodetypes="ccccc" />
  <path
     id="path6793-6-0-9"
     style="color:#000000;font-style:normal;font-variant:normal;font-weight:normal;font-stretch:normal;font-size:medium;line-height:normal;font-family:sans-serif;font-variant-ligatures:normal;font-variant-position:normal;font-variant-caps:normal;font-variant-numeric:normal;font-variant-alternates:normal;font-variant-east-asian:normal;font-feature-settings:normal;font-variation-settings:normal;text-indent:0;text-align:start;text-decoration:none;text-decoration-line:none;text-decoration-style:solid;text-decoration-color:#000000;letter-spacing:normal;word-spacing:normal;text-transform:none;writing-mode:lr-tb;direction:ltr;text-orientation:mixed;dominant-baseline:auto;baseline-shift:baseline;text-anchor:start;white-space:normal;shape-padding:0;shape-margin:0;inline-size:0;clip-rule:nonzero;display:inline;overflow:visible;visibility:visible;isolation:auto;mix-blend-mode:normal;color-interpolation:sRGB;color-interpolation-filters:linearRGB;solid-color:#000000;solid-opacity:1;fill:#c80000;fill-opacity:1;fill-rule:nonzero;stroke:none;stroke-width:1.22157;stroke-linecap:butt;stroke-linejoin:round;stroke-miterlimit:4;stroke-dasharray:none;stroke-dashoffset:0;stroke-opacity:1;filter:url(#filter4);color-rendering:auto;image-rendering:auto;shape-rendering:auto;text-rendering:auto;enable-background:accumulate;stop-color:#000000"
     d="m 26.306661,8.9684063 c -0.151641,0.00292 -0.303565,0.027831 -0.45615,0.081742 -0.07191,0.025398 -0.252427,0.074444 -0.446653,0.1463476 -0.194215,0.071914 -0.416826,0.161392 -0.6158,0.3706227 -0.198974,0.2092305 -0.305102,0.6215414 -0.17486,0.9465154 0.130242,0.324973 0.38376,0.587667 0.784958,0.89709 l 0.04943,0.0361 0.05508,0.02472 c 0.980798,0.424212 1.201638,0.809558 1.343743,1.294328 0.07542,1.312127 0.467273,1.889858 1.267723,2.786317 0.291022,0.264533 0.642338,0.51263 1.184083,0.908505 0.05158,0.03746 0.102383,0.07298 0.153958,0.110235 -1.352109,-0.688006 -2.260537,-1.235406 -3.058106,-2.022271 -0.103336,-0.08495 -0.145715,-0.319086 -0.150153,-0.328808 -0.427861,-0.959516 -0.517447,-1.369852 -1.115663,-2.271243 -0.350985,-0.528852 -0.881968,-0.996155 -1.448276,-1.326636 -0.283158,-0.165245 -0.576943,-0.309238 -0.876188,-0.383935 -0.299254,-0.07474 -0.604736,-0.07989 -0.910402,0.03036 -0.133182,0.04807 -0.601068,0.07512 -0.950311,0.503668 -0.174626,0.214262 -0.244642,0.570151 -0.153957,0.87429 0.09069,0.304139 0.284209,0.586247 0.594897,0.923706 l 0.07036,0.076 0.09498,0.04184 c 0.980798,0.424212 1.201638,0.809558 1.343743,1.294328 0.166773,0.568867 0.143613,1.510312 0.553083,2.048876 0.806337,0.902336 1.35868,1.11359 2.714101,1.797996 1.355323,0.681447 2.39265,1.579102 3.269071,1.989953 0.09634,0.08203 0.170851,0.141706 0.262286,0.218573 -0.28637,-0.112775 -0.579873,-0.216889 -0.883788,-0.290798 -1.813819,-0.526565 -3.067636,-0.278993 -3.130334,-0.26609 l -1.201191,0.518868 c 1.758399,1.140614 3.388386,2.32859 4.295412,3.789857 -0.630387,-0.441953 -1.292859,-0.941134 -1.912026,-1.256318 -0.846858,-0.431025 -1.473684,-0.670743 -1.858816,-0.710836 -0.100591,-0.01051 -0.221404,-0.01012 -0.344017,-0.0019 -0.36785,0.02462 -0.76389,0.119275 -0.765953,0.207168 -5.45e-4,0.02696 0.183657,0.155037 0.408642,0.285095 0.472567,0.273194 1.132547,0.773095 1.868314,1.412163 0.28381,0.246521 0.60641,0.523753 0.718435,0.617698 0.112026,0.0941 0.206292,0.188902 0.209065,0.209075 0.0088,0.06491 -0.564478,-0.166228 -1.180288,-0.475155 -1.199711,-0.601807 -2.065088,-0.797288 -3.020089,-0.680426 -0.785697,0.09614 -1.364879,0.411231 -1.813196,0.984526 -0.358001,0.457795 -0.345341,0.537931 0.04943,0.307895 1.09368,-0.637433 2.477049,-0.489985 3.014386,0.321208 0.392168,0.592017 0.186732,1.41264 -0.461852,1.845513 -0.436231,0.291119 -1.199994,0.430888 -2.611457,0.478951 -1.476048,0.05021 -2.97046,0.468255 -3.898184,1.089058 -0.495007,0.331318 -1.214241,1.046581 -1.123273,1.11757 0.01664,0.01304 0.202253,-0.07357 0.412437,-0.191958 1.251229,-0.705288 2.498186,-0.965501 3.81836,-0.794465 0.399826,0.05177 1.073537,0.238687 1.035838,0.286993 -0.01158,0.01489 -0.27513,0.0904 -0.58539,0.16726 -1.000913,0.247863 -1.703584,0.618856 -2.349172,1.243005 -0.589098,0.569509 -0.988301,1.262731 -1.419773,2.463212 -0.265448,0.738569 -0.566132,1.832269 -0.515063,1.872118 0.01693,0.01324 0.364901,-0.41526 0.773553,-0.952218 0.928717,-1.220254 1.241468,-1.518311 1.995656,-1.898723 0.24728,-0.124725 0.41526,-0.174296 0.727943,-0.21287 0.224168,-0.02773 0.389248,-0.0289 0.366818,-0.0039 -0.02229,0.0253 -0.188533,0.113223 -0.368725,0.193865 -0.710836,0.318142 -0.966338,0.641501 -1.769484,2.250341 -0.819601,1.642122 -1.097641,1.964234 -1.773278,2.048876 -0.523403,0.06559 -1.174294,-0.202117 -1.501496,-0.617698 -0.105262,-0.133687 -0.206447,-0.242822 -0.224275,-0.241382 -0.05537,0.0049 -0.02462,0.613669 0.04369,0.879993 0.156838,0.611187 0.438216,1.06218 0.870486,1.391251 0.831122,0.632684 2.15155,0.611898 3.016294,-0.04944 0.468976,-0.358614 0.0616,0.285591 -0.634806,1.003531 -0.583969,0.601933 -0.633433,0.660067 -0.826773,0.969325 -0.362594,0.580009 -0.387302,0.910179 -0.16725,2.332064 0.217376,1.404602 0.187112,1.718618 -0.209075,2.185716 -0.221054,0.260709 -0.459108,0.433116 -0.764045,0.551185 -0.11878,0.04593 -0.213922,0.103453 -0.210973,0.127343 0.01032,0.0832 0.478941,0.26645 0.796363,0.3117 0.576934,0.08223 1.25588,-0.14628 1.777083,-0.594888 0.143467,-0.123509 0.278537,-0.219614 0.300296,-0.214778 0.06919,0.01538 -0.147681,0.678139 -0.334511,1.022536 -0.269758,0.497303 -0.645714,0.913896 -1.075755,1.191693 -0.205543,0.13285 -0.428485,0.248253 -0.496058,0.256583 -0.234697,0.0289 -0.231593,0.134874 0.01139,0.366827 0.442156,0.421721 0.968887,0.859227 1.562315,1.262011 -1.801616,0.69654 -3.385184,1.450193 -3.936204,4.474077 0.663133,-0.431511 2.439954,-1.327453 3.099924,-1.600326 3.348099,-1.824056 5.291343,-1.146881 8.872124,-1.24681 1.537336,-0.06024 5.359598,-0.631069 6.617979,-0.860988 1.301266,-0.237753 1.390025,-0.482434 3.449634,-0.984526 0.01148,-3.342026 -7.856255,-5.468285 -6.473528,-12.125986 0.0078,-0.116911 -0.0019,-0.239086 -0.01333,-0.361125 -0.339551,-0.04184 -0.712713,-0.07474 -1.094761,-0.09692 -0.764104,-0.04467 -1.56614,-0.04817 -2.212331,-0.0097 -0.323085,0.01956 -0.607334,0.05128 -0.82107,0.08933 -0.213736,0.03795 -0.367382,0.103288 -0.351618,0.09313 l -1.054843,0.678518 0.323105,-1.212596 c 0.350742,-1.320874 1.029445,-2.043455 1.797986,-2.409991 0.44098,-0.210291 0.866039,-0.287294 1.301929,-0.391535 -0.41709,-0.299507 -0.776473,-0.61654 -1.319026,-0.85148 C 25.66426,30.958607 24.75448,30.717613 24.240594,30.68842 l -0.826773,-0.04749 0.444746,-0.69943 c 0.504271,-0.794134 1.330499,-1.116208 2.111593,-1.250606 0.461104,-0.07941 0.849787,-0.09361 1.273426,-0.119742 -0.175551,-0.20673 -0.28057,-0.377717 -0.488468,-0.587298 -0.431248,-0.434712 -0.862944,-0.824544 -1.106165,-1.075755 l -0.401023,-0.412428 0.475155,-0.32691 c 0.610691,-0.418685 1.310881,-0.637132 2.020363,-0.722241 0.709522,-0.08456 1.430994,-0.03581 2.083082,0.07795 0.652662,0.113807 1.241312,0.296131 1.706765,0.507463 0.232722,0.105671 0.433808,0.218281 0.604396,0.344018 0.170588,0.125727 0.323747,0.252194 0.41814,0.490365 l -1.425466,0.05128 c -0.37399,-0.169809 -0.896361,-0.335026 -1.471086,-0.435247 -0.928094,-0.16184 -1.927712,-0.05907 -2.771116,0.277495 0.195519,0.186819 0.325596,0.308537 0.55499,0.53978 0.453504,0.45726 0.912106,0.946506 1.178381,1.440676 l 0.332613,0.6158 -0.691831,0.09692 c -0.711263,0.100338 -1.478559,0.08534 -2.130598,0.19766 -0.307701,0.05304 -0.452589,0.269194 -0.686128,0.383925 0.489275,0.126311 0.934702,0.17452 1.457783,0.401033 0.936414,0.405499 1.844871,0.932201 2.425201,1.592726 l 0.478951,0.545482 -0.686128,0.23568 c -0.845496,0.290701 -1.610982,0.374593 -2.168609,0.640508 -0.371742,0.177274 -0.661576,0.504184 -0.916105,0.973121 0.17845,-0.02092 0.341643,-0.04846 0.545482,-0.06082 0.697319,-0.04204 1.528101,-0.03756 2.328269,0.0097 0.800168,0.04651 1.562919,0.132072 2.149604,0.269885 0.293337,0.0689 0.5405,0.143487 0.76025,0.271793 0.04194,0.02443 0.08427,0.05235 0.125445,0.08359 0.302446,0.152809 0.640664,0.45832 0.84388,0.893295 1.454592,2.143989 1.049112,4.739915 4.014122,7.661427 l 1.381754,0.08359 c 0.273271,-0.07805 1.148506,-0.474912 1.402656,-0.796363 0.03669,1.564904 0.653508,3.367882 2.176218,4.918813 0.22086,0.224965 0.268786,0.37143 0.286993,0.522672 0.0182,0.151252 -0.01285,0.329071 -0.05323,0.560693 -0.03834,0.219662 -0.359081,0.645393 -0.74505,1.087151 -0.385969,0.441757 -0.855392,0.904846 -0.900896,1.590828 l 1.634541,-0.950311 c 0.380957,-0.436026 0.853203,-0.89458 0.969316,-1.560418 0.03581,-0.205153 0.102849,-0.494715 0.06082,-0.84388 -0.04204,-0.349156 -0.213328,-0.739115 -0.556878,-1.089058 -1.53647,-1.565051 -1.996308,-3.366394 -1.885421,-4.787675 0.0039,-0.05411 0.01119,-0.106791 0.01713,-0.159651 0.15278,0.101906 0.344523,0.130895 0.530282,0.06462 0.37437,-0.134388 0.390815,-0.193749 0.841973,-0.39534 0.451168,-0.201475 0.942399,-0.48875 1.260114,-1.028238 0.03007,-0.07221 0.04875,-0.155087 0.05887,-0.231875 0.0019,-0.01304 0.03104,-0.09108 0.288891,-0.288891 0.20491,-0.151787 0.536033,-0.357923 1.01874,-0.598702 0.116872,0.06179 0.200142,0.143613 0.269885,0.245187 0.152936,0.222757 0.241509,0.617065 0.237578,1.134668 -0.0078,1.035206 -0.361777,2.469157 -0.526468,3.748032 -0.09776,0.759268 -0.058,1.32213 0.110235,1.775186 0.168272,0.453056 0.46484,0.761068 0.741245,0.995931 l 2.282649,1.455885 c -0.402317,-1.303816 -1.20231,-1.813682 -1.653546,-2.197131 -0.225627,-0.191724 -0.363917,-0.339551 -0.458047,-0.59299 -0.0941,-0.253449 -0.144431,-0.647388 -0.05887,-1.311436 0.152955,-1.187859 0.526575,-2.629761 0.535975,-3.865867 0.0049,-0.618097 -0.07649,-1.209647 -0.408633,-1.693463 -0.09001,-0.131079 -0.200521,-0.246521 -0.32691,-0.347813 0.03348,-0.205786 -0.03406,-0.42647 -0.22047,-0.573985 l -0.73744,-0.518878 c -1.453872,-2.117782 -2.367447,-3.024108 -2.541139,-4.628025 0.14263,-0.162569 0.278682,-0.341594 0.41054,-0.528375 0.350129,-0.49597 0.656253,-1.05749 0.868578,-1.562306 0.106168,-0.252408 0.188824,-0.489567 0.241383,-0.708938 0.05255,-0.21938 0.09794,-0.407757 0.02277,-0.66902 -0.262986,-0.915015 -0.884168,-1.867321 -1.471086,-2.643774 -0.293454,-0.388226 -0.578063,-0.727281 -0.811573,-0.982618 -0.03493,-0.03815 -0.06637,-0.07016 -0.09883,-0.104533 -0.0179,-0.201406 -0.07211,-0.400205 -0.153948,-0.598702 -0.08875,-0.215381 -0.206759,-0.430158 -0.332612,-0.650015 -0.32258,-0.553005 -0.753945,-1.121639 -1.199293,-1.708664 C 38.8698,22.529939 38.451163,21.903814 38.11894,21.356473 37.959922,21.098041 37.838487,20.861106 37.75402,20.645637 37.66965,20.430159 37.62114,20.23717 37.605765,20.06594 l 0.31171,-2.261737 c 0.03746,-0.04856 0.07658,-0.09903 0.112133,-0.146357 0.147758,-0.196872 0.276784,-0.381298 0.376325,-0.568283 0.09954,-0.186985 0.203966,-0.377979 0.150152,-0.674723 -0.05089,-0.280609 -0.164876,-0.453075 -0.315505,-0.71463 -0.150629,-0.261565 -0.34068,-0.556401 -0.541678,-0.841983 -0.200998,-0.285582 -0.410316,-0.560362 -0.606302,-0.781153 -0.09799,-0.110401 -0.192435,-0.206681 -0.290798,-0.290798 -0.09836,-0.08408 -0.177293,-0.171415 -0.39533,-0.216675 -0.02861,-0.0058 -0.05839,-0.0088 -0.08739,-0.0097 -0.2031,-0.0068 -0.406716,0.09802 -0.509371,0.203363 -0.117309,0.120365 -0.173137,0.238453 -0.224275,0.359218 -0.102255,0.241548 -0.16651,0.511384 -0.229977,0.794465 -0.06345,0.283081 -0.122691,0.574637 -0.18246,0.817265 -0.05975,0.242628 -0.138096,0.444823 -0.155846,0.473258 l -0.02851,0.04564 -0.01713,0.05128 c -0.09663,0.276317 -0.277291,0.573664 -0.505565,0.931305 -0.537698,-0.316186 -1.12084,-0.684931 -1.712459,-1.10996 -0.709794,-0.50793 -1.241147,-0.910938 -1.682058,-1.305733 -0.440902,-0.394805 -0.791488,-0.780764 -1.142278,-1.256318 -0.0616,-0.143351 -0.118945,-0.27155 -0.17485,-0.393423 -9.74e-4,-0.0029 -0.0029,-0.0058 -0.0039,-0.0097 -0.1258,-0.343231 -0.148843,-0.643215 -0.191962,-1.001722 -0.04973,-0.413615 -0.135332,-0.912465 -0.477053,-1.427363 C 28.730296,10.202469 28.199098,9.7364806 27.633112,9.4067387 27.350119,9.2418629 27.057521,9.0976659 26.758822,9.0228135 26.609477,8.9854456 26.458108,8.9652047 26.306476,8.9677348 Z m -0.0798,0.9902278 c 0.154561,-0.0088 0.531013,0.06452 0.916096,0.2888899 0.440103,0.256408 0.887301,0.661255 1.127068,1.022535 0.09128,0.13759 0.149063,0.26284 0.193865,0.387731 l 0.0039,-0.0039 c 0,0 0.0078,0.0326 0.0097,0.04184 0.01975,0.05965 0.03396,0.126954 0.04749,0.188163 0.06695,0.270206 0.181653,0.713531 0.286993,0.963613 0.117903,0.279753 0.195315,0.548314 0.2889,0.794465 l 0.02472,-0.01139 c 0.03211,0.132179 0.0762,0.28055 0.218573,0.473257 0.205104,0.277846 0.405791,0.519832 0.612005,0.743143 0.206214,0.223312 0.418704,0.426714 0.651913,0.629113 0.466426,0.404789 1.013154,0.801988 1.742868,1.324728 0.583552,0.41924 1.14693,0.792247 1.680161,1.125181 -0.08456,0.137404 -0.172671,0.284706 -0.262285,0.44094 -0.294788,-0.08593 -0.624646,-0.192639 -0.997838,-0.32691 -0.845609,-0.618986 -2.146136,-1.616639 -3.020066,-2.25412 -0.481763,-0.350236 -0.755015,-0.565101 -0.971223,-0.777358 -0.118954,-0.116804 -0.222922,-0.240351 -0.332613,-0.378223 l -0.0039,-0.0039 c -0.111821,-0.103073 -0.204511,-0.227419 -0.28129,-0.366818 -0.0049,-0.0058 -0.0068,-0.0088 -0.01139,-0.01518 v -0.0019 h 0.0019 c -0.303331,-0.564459 -0.353817,-1.337837 -0.381969,-1.77903 -0.204005,-0.667327 -0.713638,-1.359955 -1.815094,-1.85501 -0.267832,-0.212734 -0.35803,-0.349059 -0.391535,-0.408633 0.04136,-0.02618 0.07989,-0.05556 0.176768,-0.09118 0.135254,-0.05012 0.287615,-0.08846 0.435237,-0.1406449 0.01246,-0.0049 0.02919,-0.0078 0.05128,-0.0097 z m -3.951404,1.2144929 c 0.152945,-0.0088 0.529008,0.06413 0.914198,0.2889 0.44022,0.256894 0.887194,0.662997 1.127068,1.024433 0.307487,0.463312 0.45473,0.762868 0.604405,1.10997 0.211527,0.276055 0.521204,1.091501 0.881891,1.653546 1.079035,1.055768 2.138451,1.568641 3.947599,2.461304 1.575054,0.779645 3.076219,1.408543 4.116757,1.674458 l 0.05323,0.04369 0.325012,0.08174 c 0.376958,-0.84101 0.861163,-1.588493 1.391261,-2.318762 0.156721,-0.215848 0.180884,-0.376072 0.229968,-0.477062 0.09439,-0.194089 0.1133,-0.229589 0.165362,-0.442838 0.122312,-0.500622 0.259142,-1.532616 0.372521,-1.490091 0.467856,0.561851 0.968751,1.111878 1.16318,1.771381 0,0 -0.0761,0.159611 -0.09883,0.19766 -0.02277,0.03805 -1.832201,2.493622 -1.832201,2.493622 l -0.385832,1.24681 0.0019,0.0019 c 0.01401,0.08593 0.03455,0.170365 0.05887,0.254685 0.0361,0.196026 0.11149,0.384247 0.23568,0.551176 0.191111,0.357992 0.443626,0.704782 0.727942,1.043448 0.499172,0.59516 1.127828,1.150861 1.716264,1.716263 0.46774,0.443549 0.897694,0.880976 1.256308,1.282923 -0.01713,-0.0029 -0.03202,-0.0049 -0.04943,-0.0078 -0.541172,-0.07746 -1.180911,-0.136986 -1.832201,-0.171055 -0.279967,-0.01469 -0.55861,-0.02423 -0.832476,-0.03046 -0.544383,-0.272367 -0.978054,-0.729938 -1.355148,-1.003521 -0.08028,-0.06024 -0.92064,-0.984049 -1.035838,-1.032043 -1.33627,-1.599294 -2.551366,-3.060026 -4.329627,-4.139567 -0.911941,-0.431968 -1.894082,-1.267752 -3.210159,-1.931031 -0.621454,-0.311963 -0.989518,-0.541396 -1.294319,-0.779256 -1.210853,-0.594372 -1.432297,-1.637985 -1.415968,-2.231336 -0.02219,-0.103189 -0.03464,-0.1991 -0.06656,-0.307905 -0.189973,-0.64803 -0.710359,-1.310355 -1.733371,-1.807493 -0.239816,-0.263794 -0.342081,-0.452093 -0.36492,-0.524571 0.01625,9.15e-4 0.227233,-0.09683 0.496058,-0.193865 0.01216,-0.0049 0.02948,-0.0078 0.05128,-0.0097 z m 14.53409,8.073864 -0.04564,0.57779 -0.01713,0.155845 c 0.0088,0.311788 0.09147,0.623333 0.216675,0.931306 0.125222,0.307973 0.294457,0.612677 0.478961,0.916105 0.335979,0.553054 0.766157,1.089029 1.17838,1.626941 -0.0049,-0.0049 -0.0099,-0.01012 -0.01518,-0.01518 -0.585566,-0.566356 -1.148205,-1.176785 -1.600326,-1.716263 -0.431968,-0.508767 -0.672047,-0.947596 -0.748846,-1.313333 l 0.431443,-0.982628 0.0019,-0.0019 c 0.03805,-0.05897 0.07853,-0.118507 0.119743,-0.178656 z m -0.33452,6.866961 c 0.272824,-7.8e-5 0.555934,0.0058 0.841983,0.02092 0.625765,0.0327 1.239882,0.09147 1.742878,0.163455 0.462145,0.06617 0.838119,0.157597 0.982618,0.210973 0.01907,0.01265 0.04866,0.03309 0.076,0.05887 0.06423,0.06072 0.155358,0.15316 0.260378,0.267988 0.210057,0.229695 0.479904,0.548966 0.754547,0.9123 0.542846,0.718144 1.100201,1.625978 1.301929,2.303562 -0.0049,0.0039 9.73e-4,0.08943 -0.02472,0.197669 -0.03455,0.144373 -0.100805,0.342062 -0.191957,0.558786 -0.182314,0.433447 -0.463177,0.949055 -0.765953,1.377948 -0.302777,0.428893 -0.650959,0.765213 -0.840076,0.859081 -0.09459,0.0469 -0.116258,0.03484 -0.112142,0.0361 0.0029,8.86e-4 -0.03542,-0.04895 -0.06841,-0.09313 -9.74e-4,-0.02005 -0.0029,-0.03143 -0.0039,-0.06082 -0.0029,-0.106401 -0.0039,-0.264777 -0.0019,-0.450448 0.0029,-0.371343 0.01226,-0.859694 0.0039,-1.358943 -0.0088,-0.49926 -0.03435,-1.006353 -0.104532,-1.444481 -0.03513,-0.219069 -0.0798,-0.42032 -0.153958,-0.6082 -0.07415,-0.187881 -0.173303,-0.384957 -0.404828,-0.522673 -0.46845,-0.278624 -1.091452,-0.460091 -1.638345,-0.596795 -0.273437,-0.06831 -0.524074,-0.121913 -0.716528,-0.157753 -0.09624,-0.01791 -0.176534,-0.03056 -0.24328,-0.0399 -0.03338,-0.0049 -0.06179,-0.0088 -0.09313,-0.01139 -0.03133,-0.0029 -0.0182,-0.02326 -0.171055,0.0078 h -0.0019 c 0.01946,-0.0039 -0.330102,-0.04476 -0.699431,-0.222378 -0.369328,-0.177624 -0.79427,-0.445738 -1.146083,-0.720333 -0.265847,-0.207508 -0.408954,-0.384178 -0.535975,-0.53978 0.412029,-0.087 1.135379,-0.148031 1.953841,-0.148245 z m 1.433075,2.780614 c 0.453299,0.114147 0.972216,0.284978 1.271519,0.437145 9.73e-4,9.54e-4 0.0029,9.34e-4 0.0039,0.0019 0.02812,0.02637 0.05459,0.05693 0.08174,0.08554 6.62e-4,0.0019 9.73e-4,0.0019 0.0019,0.0039 0.03309,0.08379 0.07055,0.228518 0.09883,0.404828 0.05654,0.352639 0.0831,0.830325 0.09118,1.307631 0.0058,0.377823 0.0019,0.742782 -0.0019,1.07196 l -0.0798,0.04749 c -0.31679,0.191987 -0.767432,0.209163 -1.092853,0.07036 -0.31678,-0.143993 -0.537474,-0.364317 -0.767861,-0.613903 l -0.0097,-0.0097 -0.0078,-0.0078 c -0.163185,-0.191962 -0.299178,-0.345871 -0.414357,-0.537858 -0.115091,-0.191987 -0.211167,-0.451567 -0.191957,-0.720343 0.03367,-0.451489 0.191052,-0.698078 0.918002,-1.539506 0.03484,-0.0029 0.0653,-5.25e-4 0.09883,-0.0019 z m -15.275325,2.611456 1.242934,0.201465 c -1.302736,1.624304 -1.934729,3.152064 -2.016569,4.28972 -0.08184,1.137646 0.167795,2.343293 0.201465,3.985609 0.08194,3.995108 -0.101477,4.951072 -0.870485,8.32094 l -1.250534,0.224275 c 0.766926,-3.360847 1.002762,-4.573929 0.921798,-8.524302 -0.03172,-1.548332 -0.294242,-2.75759 -0.199567,-4.074942 0.09478,-1.31744 0.584524,-2.694084 1.970958,-4.422765 z m 14.878098,4.226992 c 1.487239,0.0507 1.982538,3.004111 2.480318,4.16047 0.05099,0.09673 0.1242,0.189019 0.199558,0.275597 -0.31968,0.562552 -0.526322,1.261787 -0.587288,2.043174 -0.01032,0.13286 -0.01547,0.269399 -0.01713,0.406735 -0.145316,-0.02637 -0.400205,-0.01781 -0.520775,-0.117845 l -0.06841,-0.619605 -0.629103,-0.076 c -0.270907,-0.314269 -0.389112,-0.539819 -0.497965,-0.819173 -0.597759,-1.940129 -2.854815,-3.719646 -1.060546,-5.084175 0.255785,-0.124997 0.488867,-0.176397 0.701328,-0.169157 z m 5.29324,1.535711 c 0.03163,-8.66e-4 0.06423,0.0078 0.09883,0.02851 0.678129,0.399651 0.720605,1.057812 0.994033,1.585126 3.02e-4,-0.0058 -0.07201,0.523247 -0.83628,0.115938 -0.308129,-0.687928 -0.09556,-0.666237 -0.632908,-1.305724 0.07804,-0.14083 0.205503,-0.419171 0.376325,-0.423842 z"
     sodipodi:nodetypes="cscsscccccccccssccsscccccccccccccccccscccsscccccccccccsccscccccsccccccscccccsccccccccscccccccccccscccccccccccssccscccccccscccscccccccccccccscccccccccccccccccccsccccccccssccsccccccccccsssssccsscccccccccccccssccccccccccccccscccccccccccccccccccccssccccccccccccccccccccccccccccccccccccccccccccccccccccccsccsscccccccscccccccsscccccccccccccccccccccccsccccccccccccccccccccccccc" />
</svg>
