<svg viewBox="0 0 60 60" xmlns="http://www.w3.org/2000/svg" xmlns:xlink="http://www.w3.org/1999/xlink"><linearGradient id="a"><stop offset="0" stop-color="#dfb459"/><stop offset=".033" stop-color="#dead54"/><stop offset=".093" stop-color="#e1b85f"/><stop offset=".165" stop-color="#dba84d"/><stop offset=".305" stop-color="#dfb765"/><stop offset=".539" stop-color="#d8a94e"/><stop offset=".586" stop-color="#d5ab53"/><stop offset=".84" stop-color="#e0bf6e"/><stop offset=".924" stop-color="#daae52"/><stop offset=".962" stop-color="#d9af57"/><stop offset="1" stop-color="#e1b663"/></linearGradient><linearGradient id="b" gradientUnits="userSpaceOnUse" spreadMethod="repeat" x1="-30.849" x2="-15.094" xlink:href="#a" y1="30.267" y2="30.267"/><linearGradient id="c" gradientUnits="userSpaceOnUse" x1="772.069" x2="775.33" xlink:href="#a" y1="122.778" y2="122.778"/><linearGradient id="d" gradientUnits="userSpaceOnUse" spreadMethod="repeat" x1="783.028" x2="802.729" xlink:href="#a" y1="132.601" y2="132.601"/><linearGradient id="e" gradientUnits="userSpaceOnUse" x1="774.952" x2="780.945" xlink:href="#a" y1="124.22" y2="124.22"/><linearGradient id="f" gradientUnits="userSpaceOnUse" x1="780.175" x2="790.378" xlink:href="#a" y1="138.561" y2="138.561"/><linearGradient id="g" gradientUnits="userSpaceOnUse" x1="788.776" x2="793.248" xlink:href="#a" y1="185.635" y2="185.635"/><linearGradient id="h" gradientUnits="userSpaceOnUse" x1="791.465" x2="796.89" xlink:href="#a" y1="191.648" y2="191.648"/><linearGradient id="i" gradientUnits="userSpaceOnUse" x1="792.212" x2="797.505" xlink:href="#a" y1="197.302" y2="197.302"/><linearGradient id="j" gradientUnits="userSpaceOnUse" x1="792.688" x2="797.134" xlink:href="#a" y1="204.616" y2="204.616"/><linearGradient id="k" gradientUnits="userSpaceOnUse" spreadMethod="repeat" x1="781.821" x2="800.338" xlink:href="#a" y1="116.355" y2="116.355"/><linearGradient id="l" gradientUnits="userSpaceOnUse" spreadMethod="repeat" x1="-89.495" x2="-55.296" xlink:href="#a" y1="86.53" y2="86.53"/><filter id="m"><feGaussianBlur in="SourceAlpha" result="blur" stdDeviation="2"/><feOffset dx="2" dy="2" result="offsetBlur"/><feBlend in="SourceGraphic" in2="offsetBlur"/></filter><g fill="#75581b" filter="url(#m)" transform="translate(41.197 .902)"><path d="m-10.96 6.237-12.84 3.61-6.865 43.278-.814.002.629 1.168h39.934c-2.303-14.885-4.074-30.55-6.789-44.162l-.629-1.17.203 1.045-12.83-3.771z" fill="#84631f"/></g><path d="m-10.96 6.237-12.838 3.608-7.051 44.45h39.934c-2.303-14.885-4.076-30.55-6.79-44.163z" fill="url(#b)" transform="translate(40.567 -.267)"/><path d="m9.72 54.03.627 1.167h39.934l-.628-1.168z" fill="#654b13"/><g stroke="#f00"><g stroke-width="2.599"><path d="m32.27 22.137c3.75.282 2.118.766 4.935 1.932l3.854 1.963-.446 2.894c.372 3.61 1.97 6.006 3.947 8.892l.92.668c-1.51.705-2.027 1.13-2.103 1.563-.484.834-1.4.946-2.26 1.26l.676-3.316-4.03-4.738c.516 2.85-1.046 3.338-.532 6.172l1.372 3.292-1.19.344-1.567-2.336c-.128-2.747-.7-5.018-1.257-7.774-2.382.462-2.925 2.026-5.356-1.43 1.17 2.588-.154 4.856.776 7.535 4.468 3.806 4.73 6.678 6.16 9.611-8.159 2.662-16.819-1.757-23.04.573.673-.925 2.693-4.248 6.652-5.962-2.13-.549-1.91-1.766-6.049-.678.955-1.458 5.774-6.909 7.125-5.56-2.11-.15-3.798-1.47-6.35-.406 2.94-3.662 5.01-3.274 7.42-4.283l-3.045-.147-3.083-.148c1.864-3.257 5.457-3.844 8.787-4.837-1.704-.582-4.264-.41-6.745-.16 3.028-2.444 6.755-3.816 10.964-4.883" fill="#c80000" stroke="#c80000" stroke-linejoin="round" stroke-width="1.253"/><path d="m-109.935 84.098c-.65 1.03-.28 1.823-2.024 4.698.796.47 1.453.057 2.315-.895 1.333-1.58 1.355-1.793-.29-3.803z" fill="#fff" stroke="url(#l)" transform="matrix(-.4821 0 0 .4821 -15.879 -12.87)"/></g><path d="m765.516 125.462c-.231-1.976 5.474-5.258 5.857-7.812l-2-2.875 3.625 1.187c2.198-.363 8.69-3.318 11.166-5.762.405-.399.878-1.577.897-1.988 1.092 1.6 1.312 1.543 1.916 3.045-1.765 1.977-6.346 3.785-8.541 4.814-3.835 2.456-5.71 5.991-8.986 8.936z" fill="url(#k)" stroke="#c80000" transform="matrix(-.83546 0 0 .83546 680.662 -78.81)"/><path d="m35.114 25.591c-1.237-.87-2.55-3.813-3.73-5.087-1.175-1.268-1.677-.477-3.476-1.388.108-.046 1.052 1.911 1.173 3.614.07.971-.658 2-.632 2.172.298 2.005 3.922 2.162 4.628 2.882" fill="#c80000" stroke="#c80000" stroke-width="1.253"/><path d="m41.131 40.882-1.628-.85 1.661-.707" fill="#c80000" stroke="#c80000" stroke-width=".835"/><g fill="none"><path d="m780.325 124.393c9.962 2.579 6.124 21.802 9.235 28.043.15.3.322.615.387 1.054" stroke="url(#f)" stroke-width="1.197" transform="matrix(-.83546 0 0 .83546 680.662 -78.81)"/><path d="m778.008 135.16c.56-.819 1.404-2.884 1.963-5.287" stroke="url(#d)" transform="matrix(-.83546 0 0 .83546 680.662 -78.81)"/><path d="m772.415 125.063c1.766-1.698 2.435-3.03 2.414-4.926" stroke="url(#c)" transform="matrix(-.83546 0 0 .83546 680.662 -78.81)"/><path d="m775.11 127.575c.32-.076 4.564-2.431 5.215-3.182-.947-1.51.094-2.669 0-3.978" stroke="url(#e)" transform="matrix(-.83546 0 0 .83546 680.662 -78.81)"/></g><path d="m37.94 42.5 1.628-.848-1.66-.708" fill="#c80000" stroke="#c80000" stroke-width=".835"/></g><g fill="none"><path d="m788.778 185.249c1.208-.004 3.012.144 4.22.84" stroke="url(#g)" transform="matrix(-.83546 0 0 .83546 684.105 -128.102)"/><path d="m791.518 191.083c2.838.3 3.641.495 5.17 1.17" stroke="url(#h)" transform="matrix(-.83546 0 0 .83546 684.105 -128.102)"/><path d="m792.225 196.828c1.054.026 2.295.058 5.126.972" stroke="url(#i)" transform="matrix(-.83546 0 0 .83546 684.105 -128.102)"/><path d="m792.755 204.252c1.62-.22 2.622.338 4.243.796" stroke="url(#j)" transform="matrix(-.83546 0 0 .83546 684.105 -128.102)"/></g></svg>