<svg viewBox="0 0 60 60" xmlns="http://www.w3.org/2000/svg" xmlns:xlink="http://www.w3.org/1999/xlink"><linearGradient id="a" gradientUnits="userSpaceOnUse" spreadMethod="repeat" x1="148.578" x2="130.323" xlink:href="#f" y1="49.826" y2="49.826"/><linearGradient id="b" gradientUnits="userSpaceOnUse" spreadMethod="repeat" x1="1112.353" x2="1167.429" xlink:href="#f" y1="159.01" y2="159.01"/><linearGradient id="c" gradientUnits="userSpaceOnUse" spreadMethod="repeat" x1="132.561" x2="148.24" xlink:href="#f" y1="231.857" y2="231.857"/><linearGradient id="d" gradientUnits="userSpaceOnUse" spreadMethod="repeat" x1="177.827" x2="197.093" xlink:href="#f" y1="92.855" y2="92.855"/><linearGradient id="e" gradientUnits="userSpaceOnUse" spreadMethod="repeat" x1="176.859" x2="196.381" xlink:href="#f" y1="80.264" y2="80.264"/><linearGradient id="f"><stop offset="0" stop-color="#e5c37b"/><stop offset=".042" stop-color="#e4bd76"/><stop offset=".093" stop-color="#e7c781"/><stop offset=".165" stop-color="#e2b86e"/><stop offset=".305" stop-color="#e6c686"/><stop offset=".539" stop-color="#dfb96f"/><stop offset=".586" stop-color="#ddbb73"/><stop offset=".84" stop-color="#e7ce8f"/><stop offset=".924" stop-color="#e1bd73"/><stop offset=".962" stop-color="#e0bf78"/><stop offset="1" stop-color="#e7c685"/></linearGradient><filter id="g"><feGaussianBlur in="SourceAlpha" result="blur" stdDeviation="2"/><feOffset dx="2" dy="2" result="offsetBlur"/><feBlend in="SourceGraphic" in2="offsetBlur"/></filter><g fill="url(#a)" filter="url(#g)" transform="matrix(.98185 0 0 .98185 -96.558 -23.219)"><path d="m148.702 29.817-.139.972.718.01zm.58.982h-40.192l6.41 44.002-.454-.121.578.98 13.14 3.935a.88.88 0 0 0 .27.022l13.41-4.26 6.836-44.558z" fill="#876419"/><path d="m128.456 78.635 13.41-4.26 6.836-44.558h-40.19l6.535 44.862 13.138 3.935c.09.017.18.032.271.021z" fill="url(#a)"/></g><path d="m29.566 53.989.303.943 13.431-4.162-.568-.964z" fill="#ac812a"/><g stroke-width=".6"><g stroke="#000"><path d="m18.198 31.618 2.776-.278" fill="none" stroke-width="1"/><path d="m13.545 18.257c6.961.49 13.485.07 22.964 0m-.715 5.078c-4.094 6.716-10.39 4.523-14.778 4.464-3.667-2.174-4.206-2.35-5.55-3.988-1.42-1.908-1.78-3.234-1.895-5.577 7.084-2.553 14.164-3.077 22.64-.488.13 2.08-.18 3.846-.417 5.589z" stroke-width=".623"/><g stroke-width="1.554"><path d="m1134.293 141.964c2.547 12.294 3.186 23.557 4.198 35.944 1.943 9.213 14.401 18.842 21.54 16.842-2.932-16.412-2.031-40.457-11.142-69.998-5.61-.793-11.376-1.122-17.492-1.757-2.038.106-3.543.516-4.955 1.456-1.895 2.68-6.003 11.52-7.692 15.867l.805 9.044c3.986 1.631 6.221 3.263 9.188 4.894z" fill="url(#b)" transform="matrix(.40052 0 0 -.40052 -418.578 87.841)"/><path d="m33.413 26.246c1.476 3.188 1.91 4.756 3.767 7.781.753.928 1.518 1.837 2.388 2.588.99.32 1.235.715 2.224.38" fill="none" stroke-width=".622"/></g><path d="m21.34 27.795-1.658 12.759c-.596 3.452.196 5.31 3.073 4.774 2.65-.753 4.33-3.278 5.684-6.396l1.347-10.938c-4.628.44-6.156.121-8.447-.199z" stroke-width=".623"/></g><path d="m114.546 230.804c.192-.076.282-.063.668.062 4.966 1.6 9.507 3.317 20.202.889.1-.023.345-.097.522-.078" fill="none" stroke="url(#c)" stroke-width=".964" transform="matrix(1.03765 0 0 1.03765 -104.876 -217.517)"/><path d="m26.193 30.908 5.886-.344" fill="none" stroke="#000" stroke-width="1"/></g><g fill="none" stroke-width="1.285"><path d="m151.095 93.551c.279.024.88-.147 1.001-.177 8.975-2.21 17.802-2.648 27.993.597.253.08.757.09 1.026.112" stroke="url(#d)" transform="matrix(.77824 0 0 -.77824 -104.308 91.327)"/><path d="m160.883 80.539c4.815-.641 7.67-.68 11.119-.268.44.052.574.106.702.091" stroke="url(#e)" transform="matrix(.77824 0 0 -.77824 -104.308 91.327)"/></g></svg>