<?xml version="1.0" encoding="UTF-8" standalone="no"?>
<svg
   viewBox="0 0 60 60"
   version="1.1"
   id="svg25"
   sodipodi:docname="1KI.svg"
   inkscape:version="1.3 (0e150ed6c4, 2023-07-21)"
   xmlns:inkscape="http://www.inkscape.org/namespaces/inkscape"
   xmlns:sodipodi="http://sodipodi.sourceforge.net/DTD/sodipodi-0.dtd"
   xmlns:xlink="http://www.w3.org/1999/xlink"
   xmlns="http://www.w3.org/2000/svg"
   xmlns:svg="http://www.w3.org/2000/svg">
  <sodipodi:namedview
     id="namedview25"
     pagecolor="#ffffff"
     bordercolor="#666666"
     borderopacity="1.0"
     inkscape:showpageshadow="2"
     inkscape:pageopacity="0.0"
     inkscape:pagecheckerboard="0"
     inkscape:deskcolor="#d1d1d1"
     inkscape:zoom="2.6899521"
     inkscape:cx="-248.51744"
     inkscape:cy="58.737105"
     inkscape:window-width="3840"
     inkscape:window-height="2054"
     inkscape:window-x="-11"
     inkscape:window-y="-11"
     inkscape:window-maximized="1"
     inkscape:current-layer="svg25" />
  <defs
     id="defs11">
    <linearGradient
       xlink:href="#1KI_svg__a"
       id="1KI_svg__b"
       x1="148.368"
       x2="129.504"
       y1="49.819"
       y2="49.819"
       gradientUnits="userSpaceOnUse"
       spreadMethod="repeat" />
    <linearGradient
       id="1KI_svg__a">
      <stop
         offset="0"
         stop-color="#e5c37b"
         id="stop1" />
      <stop
         offset=".042"
         stop-color="#e4bd76"
         id="stop2" />
      <stop
         offset=".093"
         stop-color="#e7c781"
         id="stop3" />
      <stop
         offset=".165"
         stop-color="#e2b86e"
         id="stop4" />
      <stop
         offset=".305"
         stop-color="#e6c686"
         id="stop5" />
      <stop
         offset=".539"
         stop-color="#dfb96f"
         id="stop6" />
      <stop
         offset=".586"
         stop-color="#ddbb73"
         id="stop7" />
      <stop
         offset=".84"
         stop-color="#e7ce8f"
         id="stop8" />
      <stop
         offset=".924"
         stop-color="#e1bd73"
         id="stop9" />
      <stop
         offset=".962"
         stop-color="#e0bf78"
         id="stop10" />
      <stop
         offset="1"
         stop-color="#e7c685"
         id="stop11" />
    </linearGradient>
    <linearGradient
       xlink:href="#1FU_svg__a"
       id="1KI_svg__d"
       x1="148.368"
       x2="129.504"
       y1="49.819"
       y2="49.819"
       gradientUnits="userSpaceOnUse"
       spreadMethod="repeat" />
    <filter
       id="1KI_svg__c"
       x="-0.11605135"
       y="-0.096016083"
       width="1.2804574"
       height="1.2320389">
      <feGaussianBlur
         in="SourceAlpha"
         result="blur"
         stdDeviation="2"
         id="feGaussianBlur11" />
      <feOffset
         dx="2"
         dy="2"
         result="offsetBlur"
         id="feOffset11" />
      <feBlend
         in="SourceGraphic"
         in2="offsetBlur"
         id="feBlend11" />
    </filter>
    <linearGradient
       id="1FU_svg__a">
      <stop
         offset="0"
         stop-color="#dfb459"
         id="stop12" />
      <stop
         offset=".042"
         stop-color="#dead54"
         id="stop13" />
      <stop
         offset=".093"
         stop-color="#e1b85f"
         id="stop14" />
      <stop
         offset=".165"
         stop-color="#dba84d"
         id="stop15" />
      <stop
         offset=".305"
         stop-color="#dfb765"
         id="stop16" />
      <stop
         offset=".539"
         stop-color="#d8a94e"
         id="stop17" />
      <stop
         offset=".586"
         stop-color="#d5ab53"
         id="stop18" />
      <stop
         offset=".84"
         stop-color="#e0bf6e"
         id="stop19" />
      <stop
         offset=".924"
         stop-color="#daae52"
         id="stop20" />
      <stop
         offset=".962"
         stop-color="#d9af57"
         id="stop21" />
      <stop
         offset="1"
         stop-color="#e1b663"
         id="stop22" />
    </linearGradient>
    <filter
       style="color-interpolation-filters:sRGB;"
       inkscape:label="Matte Jelly"
       id="filter30"
       x="-0.026444648"
       y="-0.021690455"
       width="1.0528893"
       height="1.0433809">
      <feColorMatrix
         values="1 0 0 0 0 0 1 0 0 0 0 0 1 0 0 0 0 0 0.85 0"
         result="color"
         in="SourceGraphic"
         id="feColorMatrix26" />
      <feGaussianBlur
         in="SourceAlpha"
         stdDeviation="0.32"
         result="blur"
         id="feGaussianBlur26" />
      <feSpecularLighting
         in="blur"
         specularExponent="25"
         specularConstant="2.01863"
         surfaceScale="5"
         lighting-color="rgb(255,255,255)"
         result="specular"
         id="feSpecularLighting26">
        <feDistantLight
           elevation="25"
           azimuth="245"
           id="feDistantLight26" />
      </feSpecularLighting>
      <feComposite
         in="specular"
         in2="SourceGraphic"
         k3="1"
         k2="1"
         operator="arithmetic"
         result="composite1"
         id="feComposite29" />
      <feComposite
         in="composite1"
         in2="color"
         operator="atop"
         result="composite2"
         id="feComposite30" />
    </filter>
  </defs>
  <g
     fill="url(#1KI_svg__b)"
     filter="url(#1KI_svg__c)"
     transform="translate(-88.747 -20.034)scale(.92309)"
     id="g12">
    <path
       fill="#876419"
       d="m148.703 29.817-.234 1.17h-39.89l6.924 43.53-.457-.142.62 1.17 13.14 4.24c.09.018.18.03.27.02l13.409-4.26 6.836-44.558z"
       id="path11" />
    <path
       fill="url(#1KI_svg__d)"
       d="m128.456 78.635 13.41-4.26 6.836-44.558H107.96l7.088 44.558 13.138 4.239c.09.017.18.032.271.021z"
       id="path12" />
  </g>
  <path
     fill="#a57a1b"
     d="m29.58 52.534.822 1.099L42.78 49.7l-.572-1.08z"
     id="path25" />
  <path
     id="path7739-8-5"
     style="color:#000000;font-style:normal;font-variant:normal;font-weight:normal;font-stretch:normal;font-size:medium;line-height:normal;font-family:sans-serif;font-variant-ligatures:normal;font-variant-position:normal;font-variant-caps:normal;font-variant-numeric:normal;font-variant-alternates:normal;font-variant-east-asian:normal;font-feature-settings:normal;font-variation-settings:normal;text-indent:0;text-align:start;text-decoration:none;text-decoration-line:none;text-decoration-style:solid;text-decoration-color:#000000;letter-spacing:normal;word-spacing:normal;text-transform:none;writing-mode:lr-tb;direction:ltr;text-orientation:mixed;dominant-baseline:auto;baseline-shift:baseline;text-anchor:start;white-space:normal;shape-padding:0;shape-margin:0;inline-size:0;clip-rule:nonzero;display:inline;overflow:visible;visibility:visible;opacity:0.99;isolation:auto;mix-blend-mode:normal;color-interpolation:sRGB;color-interpolation-filters:linearRGB;solid-color:#000000;solid-opacity:1;vector-effect:none;fill:#000000;fill-opacity:0.992157;fill-rule:nonzero;stroke:none;stroke-width:1.406;stroke-linecap:butt;stroke-linejoin:miter;stroke-miterlimit:4;stroke-dasharray:none;stroke-dashoffset:0;stroke-opacity:1;color-rendering:auto;image-rendering:auto;shape-rendering:auto;text-rendering:auto;enable-background:accumulate;stop-color:#000000"
     d="m 40.152982,46.583867 c 0.43682,-0.131074 1.87376,-0.410143 1.02269,-0.971783 -0.355276,-0.337592 -0.981233,-0.831104 -1.353123,-1.450357 -1.684324,-2.804815 -1.192624,-6.161959 -1.313794,-8.254446 1.030006,0.08839 3.357755,0.242945 3.720451,-0.629006 l 2.291691,-3.972053 C 42.570436,31.5891 40.119635,31.976837 38.725659,30.244061 37.779938,29.729515 37.137319,27.182535 36.51346,27.30861 l -1.345337,4.008357 c -1.28484,-0.193563 -1.13807,-0.900148 -0.693177,-1.817747 -0.826831,-0.945414 -3.150286,-1.019334 -4.620438,-1.072832 -1.384674,0.157595 -3.697474,0.215817 -4.400444,1.142333 0.41138,0.869665 0.60854,1.576128 -0.64684,1.749847 l -1.46733,-4.186648 c -0.96754,1.466817 -1.62448,3.328276 -3.33761,4.079366 -1.45001,0.568497 -3.02723,0.304366 -4.52318,0.09602 l 2.61196,4.526997 c 1.05608,0.463793 3.02934,-0.03809 3.45881,0.08535 -0.14297,2.5227 0.18927,5.241115 -1.16629,7.514989 -0.50788,0.961415 -1.2337,1.776 -1.93896,2.594255 0.79138,0.524454 1.79615,0.803827 2.5642,0.02134 1.04396,-0.997388 2.17973,-1.233779 3.50044,-0.845889 1.41744,-0.175885 2.11903,-1.547841 2.43139,-2.791863 -1.20357,0.02133 -1.78301,-1.201467 -1.89034,-2.257717 -0.15043,-1.008817 -0.10607,-3.891182 1.18565,-3.349949 -0.30178,2.477145 2.316274,4.681166 4.707668,3.965941 1.76046,-0.419136 3.0325,-2.237279 2.816564,-4.034587 1.25084,-0.435291 1.328415,2.391976 1.167167,3.418612 -0.10673,1.057743 -0.686313,2.276858 -1.88955,2.257716 0.314883,1.334524 1.167332,2.818672 2.719335,2.810412 1.811832,-0.951665 2.756909,0.993728 4.395814,1.360737 z m -1.838591,-2.739386 c -1.024071,-1.130138 -2.23168,0.216731 -3.250383,-0.395358 0.222523,-0.855033 1.269595,-2.174803 1.200248,-3.426339 0.399626,-2.844597 -1.331331,-5.930994 -4.198231,-6.657423 -3.127795,-1.080756 -7.145601,0.51241 -8.082301,3.834683 -0.5955,2.021645 -0.38481,4.492556 1.09298,6.091638 -0.93643,1.058047 -2.19409,-0.673056 -3.24651,0.452359 0.21416,-0.914476 1.07634,-3.173579 0.95405,-4.733916 0.029,-1.602205 -0.24659,-3.3865 0.89769,-4.704592 1.31291,-2.143773 4.02315,-2.603205 6.338642,-2.491578 2.297559,-0.106687 4.976222,0.369142 6.276114,2.491578 1.144619,1.318217 0.866459,3.101945 0.896179,4.703982 0.03356,1.666296 0.384845,3.334344 1.121454,4.835042 z M 29.999734,39.5297 c -1.93156,0.100586 -3.13864,-2.464754 -1.83398,-3.890999 1.144322,-1.544976 3.87217,-0.866009 4.16196,1.033659 0.331795,1.425669 -0.863571,2.895732 -2.32798,2.857445 z m -9.08652,-10.297582 c 0.53967,-1.283008 1.91529,-2.399795 1.81855,-3.834681 -0.24154,-0.309856 -0.23774,-1.612632 -0.70625,-1.003487 -0.7324,0.693935 -1.49164,1.359826 -2.19909,2.079426 0.36254,0.919656 0.72451,1.839116 1.08681,2.758712 z m 18.071919,-0.168111 1.028942,-2.611283 c -0.787061,-0.79468 -1.627968,-1.534093 -2.439909,-2.303272 -0.162628,0.671224 -0.676408,1.338029 -0.267336,2.02233 0.446724,1.021318 1.141876,1.917181 1.678064,2.892225 z m -4.077826,-0.815866 2.490837,-7.206228 c -4.784311,-1.534047 -10.07906,-1.532095 -14.84936,0.0564 l 2.44613,7.130661 c 3.19962,-1.144007 6.728617,-1.237437 9.912411,0.01982 z M 19.150244,25.721799 c 0.90829,-0.889326 1.85535,-1.739545 2.78106,-2.611268 -0.37981,-1.117333 -0.74007,-2.169622 -1.26897,-3.212549 -1.3193,0.422334 -2.47765,1.195829 -3.44256,2.184405 0.61985,1.2257 1.29215,2.423482 1.93047,3.639412 z m 21.540709,-0.0183 c 0.63586,-1.209698 1.303726,-2.40231 1.922771,-3.620878 -0.968884,-0.982758 -2.119274,-1.768335 -3.44257,-2.184408 -0.52216,1.039456 -0.893446,2.091175 -1.245826,3.206394 0.920273,0.867835 1.863586,1.712688 2.765644,2.598907 z M 34.098376,18.86315 c 0.129559,-0.558743 0.26002,-1.117793 0.389866,-1.676538 -2.880256,-0.714662 -5.970439,-0.778218 -8.857279,-0.06555 l 0.37896,1.731376 c 2.644147,-0.636324 5.441525,-0.578863 8.088489,0.0116 z m 1.211837,-2.666075 c 0.36076,-1.176929 0.72197,-2.354331 1.083036,-3.531305 -3.922111,-2.095931 -8.822745,-1.872068 -12.786115,0 l 1.15004,3.531332 c 1.68943,-0.650497 3.36192,-0.787058 5.29816,-0.827599 1.590909,0.01678 3.767624,0.236086 5.254918,0.827599 z"
     sodipodi:nodetypes="ccsccccccccccccccccccccccccccccccccccccccccccccccccccccccccccccccccccccscccsscccccccccccc" />
</svg>
