<?xml version="1.0" encoding="UTF-8" standalone="no"?>
<svg
   viewBox="0 0 60 60"
   version="1.1"
   id="svg36"
   sodipodi:docname="1NG.svg"
   inkscape:version="1.3 (0e150ed6c4, 2023-07-21)"
   xmlns:inkscape="http://www.inkscape.org/namespaces/inkscape"
   xmlns:sodipodi="http://sodipodi.sourceforge.net/DTD/sodipodi-0.dtd"
   xmlns:xlink="http://www.w3.org/1999/xlink"
   xmlns="http://www.w3.org/2000/svg"
   xmlns:svg="http://www.w3.org/2000/svg">
  <sodipodi:namedview
     id="namedview36"
     pagecolor="#ffffff"
     bordercolor="#666666"
     borderopacity="1.0"
     inkscape:showpageshadow="2"
     inkscape:pageopacity="0.0"
     inkscape:pagecheckerboard="0"
     inkscape:deskcolor="#d1d1d1"
     inkscape:zoom="10.759808"
     inkscape:cx="47.770369"
     inkscape:cy="9.1079692"
     inkscape:window-width="3840"
     inkscape:window-height="2054"
     inkscape:window-x="-11"
     inkscape:window-y="-11"
     inkscape:window-maximized="1"
     inkscape:current-layer="svg36" />
  <defs
     id="defs22">
    <linearGradient
       id="1NG_svg__a">
      <stop
         offset="0"
         stop-color="#dfb459"
         id="stop1" />
      <stop
         offset=".033"
         stop-color="#dead54"
         id="stop2" />
      <stop
         offset=".093"
         stop-color="#e1b85f"
         id="stop3" />
      <stop
         offset=".165"
         stop-color="#dba84d"
         id="stop4" />
      <stop
         offset=".305"
         stop-color="#dfb765"
         id="stop5" />
      <stop
         offset=".539"
         stop-color="#d8a94e"
         id="stop6" />
      <stop
         offset=".586"
         stop-color="#d5ab53"
         id="stop7" />
      <stop
         offset=".84"
         stop-color="#e0bf6e"
         id="stop8" />
      <stop
         offset=".924"
         stop-color="#daae52"
         id="stop9" />
      <stop
         offset=".962"
         stop-color="#d9af57"
         id="stop10" />
      <stop
         offset="1"
         stop-color="#e1b663"
         id="stop11" />
    </linearGradient>
    <linearGradient
       xlink:href="#1NG_svg__a"
       id="1NG_svg__c"
       x1="148.368"
       x2="129.504"
       y1="49.819"
       y2="49.819"
       gradientUnits="userSpaceOnUse"
       spreadMethod="repeat" />
    <linearGradient
       xlink:href="#1FU_svg__a"
       id="1NG_svg__e"
       x1="148.368"
       x2="129.504"
       y1="49.819"
       y2="49.819"
       gradientUnits="userSpaceOnUse"
       spreadMethod="repeat" />
    <filter
       id="1NG_svg__d"
       x="-0.11604574"
       y="-0.096016083"
       width="1.2804439"
       height="1.2320389">
      <feGaussianBlur
         in="SourceAlpha"
         result="blur"
         stdDeviation="2"
         id="feGaussianBlur22" />
      <feOffset
         dx="2"
         dy="2"
         result="offsetBlur"
         id="feOffset22" />
      <feBlend
         in="SourceGraphic"
         in2="offsetBlur"
         id="feBlend22" />
    </filter>
    <linearGradient
       id="1FU_svg__a">
      <stop
         offset="0"
         stop-color="#dfb459"
         id="stop12-5" />
      <stop
         offset=".042"
         stop-color="#dead54"
         id="stop13-1" />
      <stop
         offset=".093"
         stop-color="#e1b85f"
         id="stop14-8" />
      <stop
         offset=".165"
         stop-color="#dba84d"
         id="stop15-1" />
      <stop
         offset=".305"
         stop-color="#dfb765"
         id="stop16-6" />
      <stop
         offset=".539"
         stop-color="#d8a94e"
         id="stop17-6" />
      <stop
         offset=".586"
         stop-color="#d5ab53"
         id="stop18-0" />
      <stop
         offset=".84"
         stop-color="#e0bf6e"
         id="stop19-7" />
      <stop
         offset=".924"
         stop-color="#daae52"
         id="stop20-1" />
      <stop
         offset=".962"
         stop-color="#d9af57"
         id="stop21-4" />
      <stop
         offset="1"
         stop-color="#e1b663"
         id="stop22-9" />
    </linearGradient>
    <filter
       style="color-interpolation-filters:sRGB;"
       inkscape:label="Matte Jelly"
       id="filter37"
       x="-0.026082172"
       y="-0.021332618"
       width="1.0521643"
       height="1.0426652">
      <feColorMatrix
         values="1 0 0 0 0 0 1 0 0 0 0 0 1 0 0 0 0 0 0.85 0"
         result="color"
         in="SourceGraphic"
         id="feColorMatrix36" />
      <feGaussianBlur
         in="SourceAlpha"
         stdDeviation="0.32"
         result="blur"
         id="feGaussianBlur36" />
      <feSpecularLighting
         in="blur"
         specularExponent="25"
         specularConstant="2.01863"
         surfaceScale="5"
         lighting-color="rgb(255,255,255)"
         result="specular"
         id="feSpecularLighting36">
        <feDistantLight
           elevation="25"
           azimuth="245"
           id="feDistantLight36" />
      </feSpecularLighting>
      <feComposite
         in="specular"
         in2="SourceGraphic"
         k3="1"
         k2="1"
         operator="arithmetic"
         result="composite1"
         id="feComposite36" />
      <feComposite
         in="composite1"
         in2="color"
         operator="atop"
         result="composite2"
         id="feComposite37" />
    </filter>
  </defs>
  <g
     fill="url(#1NG_svg__c)"
     filter="url(#1NG_svg__d)"
     transform="translate(-88.746 -20.034)scale(.92309)"
     id="g23">
    <path
       fill="#876419"
       d="m148.703 29.817-.234 1.17h-39.89l6.924 43.53-.457-.142.62 1.17 13.14 4.24c.09.018.18.03.27.02l13.409-4.26 6.836-44.558z"
       id="path22" />
    <path
       fill="url(#1NG_svg__e)"
       d="m-37.3-31.01-13.408 4.26-6.837 44.558h40.743L-23.89-26.75l-13.138-4.239a.9.9 0 0 0-.271-.021z"
       transform="rotate(180 45.578 23.813)"
       id="path23" />
  </g>
  <path
     fill="#a57a1b"
     d="m29.58 52.534.823 1.099L42.78 49.7l-.572-1.08z"
     id="path24" />
  <path
     id="path2-8"
     style="fill:#9a0000;fill-opacity:1;stroke-width:1.00001"
     d="m 29.9925,45.677481 0.30274,-0.42188 c 0.881,-1.23199 1.74551,-2.73222 3.10351,-3.32422 l 0.56836,-0.24609 -0.48242,-0.39258 c -0.68781,-0.55597 -1.18195,-1.44168 -1.52148,-2.57031 1.15775,-0.69441 1.93554,-1.98059 1.93554,-3.43555 0,-0.0249 -0.002,-0.0494 -0.002,-0.0742 3e-4,-0.0198 0.004,-0.0388 0.004,-0.0586 3e-5,-0.0667 -0.004,-0.1319 -0.008,-0.19726 0.41539,-0.30515 0.82011,-0.63795 1.21485,-0.99219 0.23805,0.11706 0.44904,0.24287 0.62695,0.37891 0.0204,0.016 0.0448,0.0307 0.0644,0.0469 0.15388,0.12702 0.30631,0.28646 0.45899,0.4668 0.10001,0.11807 0.20019,0.24342 0.29882,0.38086 0.0114,0.0158 0.0219,0.0288 0.0332,0.0449 0.51839,0.73387 1.01267,1.71124 1.4336,2.73047 v 0.002 c 0.10503,0.25439 0.2056,0.51129 0.30078,0.76758 v 0.002 c 0.0952,0.25626 0.18574,0.51187 0.26953,0.76367 v 0.002 c 0.006,0.0186 0.0114,0.0361 0.0176,0.0547 0.41773,1.20866 0.71696,2.45041 1,3.69531 6e-5,3.1e-4 0.004,0.0215 0.004,0.0215 v 0.002 l 1.48437,1.01172 c 0,0 0.0429,-2.03674 0.0488,-3.32227 0.002,-0.31139 0.003,-0.60904 -0.002,-0.96289 -0.006,-0.45368 -0.0179,-0.93454 -0.039,-1.43359 -0.003,-0.0748 -0.002,-0.13941 -0.006,-0.21485 -0.0638,-1.35039 -0.17172,-2.78953 -0.42382,-4.10937 -0.0403,-0.21072 -0.0846,-0.41747 -0.13282,-0.62109 -0.021,-0.0887 -0.0418,-0.17659 -0.0645,-0.26367 -0.0591,-0.22763 -0.12428,-0.44903 -0.19531,-0.66407 -0.1989,-0.60206 -0.44427,-1.15403 -0.75586,-1.61914 -0.1446,-0.21585 -0.30383,-0.41874 -0.47265,-0.61328 -0.0842,-0.0971 -0.17216,-0.1912 -0.26172,-0.2832 -0.0895,-0.0919 -0.18105,-0.18249 -0.27539,-0.26953 -0.0854,-0.0788 -0.17273,-0.15557 -0.26172,-0.23047 -0.0169,-0.0143 -0.0337,-0.0288 -0.0508,-0.043 -0.066,-0.0546 -0.1334,-0.10756 -0.20117,-0.16016 -0.0474,-0.0368 -0.0944,-0.0735 -0.14258,-0.10937 -0.0412,-0.0306 -0.0832,-0.0599 -0.125,-0.0898 -0.18933,-0.13576 -0.38487,-0.2649 -0.58399,-0.38672 -0.0193,-0.0118 -0.0373,-0.0254 -0.0566,-0.0371 0.0172,0.006 0.0549,0.0199 0.0703,0.0254 2.32401,-4.95298 5.47637,-3.353 7.35938,-5.95899 l 0.19531,-0.26757 -0.16992,-0.29102 c -2.27685,-3.890452 -4.57159,-6.331372 -5.53906,-3.632812 -0.003,0 -0.006,-0.001 -0.008,-0.004 l -3.42578,9.363282 c -0.0242,-0.0104 -0.048,-0.0191 -0.0723,-0.0293 -0.24235,-0.10204 -0.48464,-0.19695 -0.72657,-0.28516 -0.0481,-0.0177 -0.0965,-0.0396 -0.14453,-0.0566 l 0.51367,-1.63867 c -0.342,-0.122 -0.90093,-0.31859 -1.71093,-0.55859 -1.15601,-0.344 -2.56445,-0.67969 -3.43946,-0.67969 -0.877,0 -2.29216,0.33569 -3.45117,0.67969 -0.57796,0.16927 -1.14966,0.35594 -1.7168,0.55859 l 0.51563,1.64649 c -0.0182,0.007 -0.0365,0.0149 -0.0547,0.0215 -0.28209,0.10141 -0.56488,0.21376 -0.84766,0.33398 -0.0135,0.006 -0.0275,0.01 -0.041,0.0156 l -3.47851,-9.531252 c -0.90246,-2.51408 -3.2047,-0.0806 -5.47656,3.796882 l -0.17175,0.28887 0.19531,0.26758 c 1.88201,2.60598 5.03246,1.00316 7.35547,5.95313 v 0.002 c 0.0239,-0.008 0.0779,-0.0274 0.10547,-0.0371 -0.0126,0.007 -0.0246,0.0159 -0.0371,0.0234 -0.21048,0.1271 -0.41739,0.26178 -0.61719,0.40429 -0.0433,0.0309 -0.0862,0.0621 -0.1289,0.0937 -0.0535,0.0396 -0.10567,0.0802 -0.15821,0.1211 -0.0578,0.0449 -0.11536,0.0904 -0.17187,0.13672 -0.0425,0.0349 -0.0833,0.0717 -0.125,0.10742 -0.0604,0.0516 -0.12103,0.10279 -0.17969,0.15625 -0.0327,0.0298 -0.0636,0.0614 -0.0957,0.0918 -0.0716,0.0676 -0.14228,0.13459 -0.21094,0.20507 l -0.004,0.004 c -0.004,0.005 -0.009,0.009 -0.0137,0.0137 -0.0822,0.085 -0.16254,0.17241 -0.24023,0.26171 -0.002,0.003 -0.005,0.005 -0.008,0.008 -0.0121,0.0139 -0.0232,0.0289 -0.0352,0.043 -0.0717,0.0841 -0.1416,0.16983 -0.20899,0.25782 -0.0782,0.10204 -0.15459,0.20513 -0.22656,0.3125 v 0.002 c -0.0732,0.10921 -0.14457,0.22188 -0.21094,0.33984 v 0.002 c -0.0663,0.11799 -0.12955,0.24118 -0.18945,0.36719 v 0.002 c -0.0599,0.12603 -0.11613,0.25536 -0.16992,0.38867 v 0.002 c -0.0538,0.13334 -0.10624,0.27027 -0.1543,0.41016 v 0.002 c -0.003,0.008 -0.005,0.0157 -0.008,0.0234 -0.0905,0.26605 -0.1722,0.5425 -0.24414,0.82813 -0.002,0.008 -0.004,0.0155 -0.006,0.0234 v 0.002 c -0.002,0.009 -0.004,0.0184 -0.006,0.0273 -0.0707,0.28573 -0.13273,0.57896 -0.1875,0.87891 -0.002,0.009 -0.004,0.0168 -0.006,0.0254 v 0.002 c -0.0576,0.31836 -0.10578,0.6442 -0.14844,0.97265 v 0.002 c -0.0426,0.32848 -0.0788,0.65951 -0.10937,0.99219 v 0.002 c -0.0306,0.33269 -0.0566,0.66705 -0.0781,0.99804 v 0.002 c -0.0215,0.33098 -0.0394,0.65903 -0.0547,0.98243 v 0.002 c -10e-5,0.002 9e-5,0.004 0,0.006 -0.0304,0.64378 -0.045,1.26442 -0.0508,1.83398 -10e-6,0.001 10e-6,0.003 0,0.004 v 0.002 c -0.0172,1.71858 0.0508,4.08594 0.0508,4.08594 l 1.48437,-1.01172 c 0,0 0,-0.004 0,-0.004 l 0.002,0.002 c 0,0 0.34997,-1.75451 1.02149,-3.77344 0.0837,-0.2516 0.1725,-0.50761 0.26758,-0.76367 l 0.002,-0.002 c 0.0951,-0.25606 0.19388,-0.5134 0.29883,-0.76758 0.0594,-0.14401 0.12338,-0.28395 0.18554,-0.42578 0.048,-0.10938 0.095,-0.22065 0.14453,-0.32812 v -0.002 c 0.11342,-0.24612 0.23132,-0.48528 0.35157,-0.7168 v -0.002 c 0.12025,-0.23147 0.24357,-0.45354 0.36914,-0.66406 v -0.002 c 0.12556,-0.21044 0.25344,-0.40866 0.38281,-0.5918 l 0.002,-0.002 c 0.12052,-0.17073 0.24265,-0.32512 0.36523,-0.4668 0.009,-0.0106 0.0182,-0.0228 0.0273,-0.0332 v -0.002 c 0.0657,-0.0745 0.13132,-0.14408 0.19727,-0.20899 0.0663,-0.0652 0.13285,-0.1249 0.19922,-0.17969 0.0202,-0.0167 0.0436,-0.0323 0.0644,-0.0488 0.17777,-0.13888 0.3781,-0.26817 0.59765,-0.38867 0.40491,0.36454 0.81915,0.70673 1.2461,1.01953 -0.003,0.0606 -0.006,0.11986 -0.006,0.18164 0,0.007 0.002,0.0129 0.002,0.0195 -0.001,0.0378 -0.004,0.0753 -0.004,0.11328 0,1.4489 0.7721,2.72937 1.92187,3.42578 -0.33949,1.13333 -0.83364,2.02251 -1.52343,2.58008 l -0.48438,0.39258 0.56836,0.24609 c 1.35801,0.592 2.22446,2.09223 3.10547,3.32422 z m 9.54297,-7.79493 c -0.66541,-1.77718 -1.49163,-3.58397 -2.78125,-4.64843 -1.95457,-1.61332 -5.25029,-2.25195 -6.93945,-2.25195 -1.68916,0 -4.65588,0.67336 -6.56836,2.25195 -1.28962,1.06446 -2.11584,2.87125 -2.78125,4.64843 0.15682,-2.35113 0.56102,-4.88565 1.25391,-5.91992 0.854,-1.27477 2.55547,-2.23233 4.25585,-2.82226 1.70039,-0.58993 3.42134,-0.82227 4.0254,-0.82227 0.60406,0 2.325,0.23234 4.02539,0.82227 1.70038,0.58993 3.40185,1.54749 4.25586,2.82226 0.69288,1.03427 1.09708,3.56879 1.2539,5.91992 z m -9.53515,-0.11523 c -1.32282,0 -2.39844,-1.09098 -2.39844,-2.48047 0,-1.38948 1.07562,-2.48242 2.39844,-2.48242 1.32281,0 2.39843,1.09294 2.39843,2.48242 0,1.38949 -1.07562,2.48047 -2.39843,2.48047 z m 5.39062,-12.40625 2.18945,-6.982422 c -2.07401,-0.88699 -5.39506,-2.16006 -7.58007,-2.16406 -2.17702,-0.003 -5.48642,1.23977 -7.60743,2.13476 l 2.19922,7.011722 c 0.36201,-0.129 0.92351,-0.3245 1.72852,-0.5625 1.188,-0.35199 2.60968,-0.71094 3.67969,-0.71094 1.065,0 2.48296,0.3609 3.66796,0.71289 0.80001,0.237 1.35966,0.43155 1.72266,0.56055 z m -0.7793,-9.332032 c 0.31334,-1.48897 0.62781,-2.97972 0.94141,-4.46875 -3.40653,-2.6516299 -7.6631,-2.3684199 -11.10547,0 l 0.99805,4.46875 c 1.46735,-0.82297 2.9218,-0.99559 4.60351,-1.04687 1.38178,0.0212 3.27072,0.29853 4.5625,1.04687 z" />
</svg>
