<svg viewBox="0 0 60 60" xmlns="http://www.w3.org/2000/svg" xmlns:xlink="http://www.w3.org/1999/xlink"><linearGradient id="a" gradientUnits="userSpaceOnUse" spreadMethod="repeat" x1="-57.446" x2="-39.653" y1="-2.331" y2="-2.331"><stop offset="0" stop-color="#e5c37b"/><stop offset=".042" stop-color="#e4bd76"/><stop offset=".093" stop-color="#e7c781"/><stop offset=".165" stop-color="#e2b86e"/><stop offset=".305" stop-color="#e6c686"/><stop offset=".539" stop-color="#dfb96f"/><stop offset=".586" stop-color="#ddbb73"/><stop offset=".84" stop-color="#e7ce8f"/><stop offset=".924" stop-color="#e1bd73"/><stop offset=".962" stop-color="#e0bf78"/><stop offset="1" stop-color="#e7c685"/></linearGradient><filter id="b"><feGaussianBlur in="SourceAlpha" result="blur" stdDeviation="2"/><feOffset dx="2" dy="2" result="offsetBlur"/><feBlend in="SourceGraphic" in2="offsetBlur"/></filter><g fill="#654b13" filter="url(#b)" transform="matrix(.89418 0 0 .89418 -84.656 -17.119)"><path d="m147.797 28.31-.236 1.177h-39.613l6.736 43.812-.542-.129.703 1.18 13.139 3.933c.093.026.192.016.27.022l13.41-4.261 6.837-44.557z" fill="#876419"/></g><path d="m-37.3-31.01-13.408 4.26-6.837 44.558h40.553l-6.898-44.862-13.138-3.935c-.094-.026-.193-.015-.271-.021z" fill="url(#a)" transform="matrix(-.89418 0 0 -.89418 -3.954 24.118)"/><path d="m29.4 51.847.627 1.053 11.99-3.81-.628-1.052z" fill="#a5780f"/><path d="m372.14 1666.57v-346.55h15v346.55z" fill="#c80000" stroke="#c80000" stroke-width="4.938" transform="matrix(.07194 0 0 -.05254 2.033 107.087)"/><g fill="#c80000" stroke="#c80000" stroke-width="4.938" transform="matrix(.05076 0 0 -.03707 10.075 85.945)"><path d="m373.444 1325.142-13.45-8.57 2.65-111.341 16.688-28.568 17.542 27.755 2.373 111.247-13.382 9.224z" stroke-width="7.713"/><path d="m379.551 1181.017v105.099l16.535 13.127m-16.535-13.127-16.317 14.496" stroke-width="4.516"/></g><path d="m29.343 36.094a8.442 8.442 0 0 1 -8.442-8.443 8.442 8.442 0 0 1 8.442-8.442 8.442 8.442 0 0 1 8.442 8.442 8.442 8.442 0 0 1 -8.442 8.443zm0-1.841a6.6 6.6 0 0 0 6.6-6.602 6.6 6.6 0 0 0 -6.6-6.6 6.6 6.6 0 0 0 -6.602 6.6 6.6 6.6 0 0 0 6.602 6.602z" fill="#c80000"/><g stroke="#c80000" stroke-width="4.938"><path d="m372.14 1666.57v-346.55h15v346.55z" fill="#c80000" transform="matrix(.07194 0 0 .05254 2.033 -51.842)"/><g transform="matrix(.05076 0 0 .03707 10.077 -30.7)"><path d="m373.444 1325.142-13.45-8.57 2.65-111.341 16.688-28.568 17.542 27.755 2.373 111.247-13.382 9.224z" fill="#c80000" stroke-width="7.713"/><g stroke-width="4.516"><path d="m379.551 1181.017v105.099l16.535 13.127" fill="#c80000"/><path d="m379.551 1286.116-16.317 14.496" fill="none"/></g></g><path d="m372.14 1666.57v-346.55h15v346.55z" fill="#c80000" transform="matrix(.05087 -.05087 -.03715 -.03715 65.94 103.134)"/><path d="m372.14 1666.57v-346.55h15v346.55z" fill="#c80000" transform="matrix(-.05087 -.05087 .03715 -.03715 -7.526 103.133)"/><path d="m372.14 1666.57v-346.55h15v346.55z" fill="#c80000" transform="matrix(0 .07194 .05254 0 -49.566 .342)"/><g transform="matrix(0 .05076 .03707 0 -29.005 8.383)"><path d="m373.444 1325.142-13.45-8.57 2.65-111.341 16.688-28.568 17.542 27.755 2.373 111.247-13.382 9.224z" fill="#c80000" stroke-width="7.713"/><g stroke-width="4.516"><path d="m379.551 1181.017v105.099l16.535 13.127" fill="#c80000"/><path d="m379.551 1286.116-16.317 14.496" fill="none"/></g></g><path d="m372.14 1666.57v-346.55h15v346.55z" fill="#c80000" transform="matrix(0 .07194 -.05254 0 108.291 .342)"/><g transform="matrix(0 .05076 -.03707 0 87.787 8.383)"><path d="m373.444 1325.142-13.45-8.57 2.65-111.341 16.688-28.568 17.542 27.755 2.373 111.247-13.382 9.224z" fill="#c80000" stroke-width="7.713"/><path d="m379.551 1181.017v105.099l16.535 13.127m-16.535-13.127-16.317 14.496" fill="none" stroke-width="4.516"/></g><g transform="matrix(-.03589 .0359 -.02621 -.02621 84.24 55.542)"><path d="m373.444 1325.142-13.45-8.57 2.65-111.341 16.688-28.568 17.542 27.755 2.373 111.247-13.382 9.224z" fill="#c80000" stroke-width="7.713"/><path d="m379.551 1181.017v105.099l16.535 13.127m-16.535-13.127-16.317 14.496" fill="none" stroke-width="4.516"/></g><g transform="matrix(.03589981 .03589981 .02621245 -.02621245 -25.832855 55.544028)"><path d="m373.444 1325.142-13.45-8.57 2.65-111.341 16.688-28.568 17.542 27.755 2.373 111.247-13.382 9.224z" fill="#c80000" stroke-width="7.713"/><path d="m379.551 1181.017v105.099l16.535 13.127m-16.535-13.127-16.317 14.496" fill="none" stroke-width="4.516"/></g></g></svg>