<?xml version="1.0" encoding="UTF-8" standalone="no"?>
<svg
   viewBox="0 0 60 60"
   version="1.1"
   id="svg34"
   sodipodi:docname="1NY.svg"
   inkscape:version="1.3 (0e150ed6c4, 2023-07-21)"
   xmlns:inkscape="http://www.inkscape.org/namespaces/inkscape"
   xmlns:sodipodi="http://sodipodi.sourceforge.net/DTD/sodipodi-0.dtd"
   xmlns:xlink="http://www.w3.org/1999/xlink"
   xmlns="http://www.w3.org/2000/svg"
   xmlns:svg="http://www.w3.org/2000/svg">
  <sodipodi:namedview
     id="namedview34"
     pagecolor="#ffffff"
     bordercolor="#666666"
     borderopacity="1.0"
     inkscape:showpageshadow="2"
     inkscape:pageopacity="0.0"
     inkscape:pagecheckerboard="0"
     inkscape:deskcolor="#d1d1d1"
     inkscape:zoom="7.6083333"
     inkscape:cx="-48.630887"
     inkscape:cy="6.4403067"
     inkscape:window-width="3840"
     inkscape:window-height="2054"
     inkscape:window-x="-11"
     inkscape:window-y="-11"
     inkscape:window-maximized="1"
     inkscape:current-layer="svg34" />
  <defs
     id="defs11">
    <linearGradient
       xlink:href="#1FU_svg__a"
       id="1NY_svg__c"
       x1="-57.445999"
       x2="-39.653"
       y1="-2.3310001"
       y2="-2.3310001"
       gradientUnits="userSpaceOnUse"
       spreadMethod="repeat" />
    <linearGradient
       id="1NY_svg__a">
      <stop
         offset="0"
         stop-color="#e5c37b"
         id="stop1" />
      <stop
         offset=".042"
         stop-color="#e4bd76"
         id="stop2" />
      <stop
         offset=".093"
         stop-color="#e7c781"
         id="stop3" />
      <stop
         offset=".165"
         stop-color="#e2b86e"
         id="stop4" />
      <stop
         offset=".305"
         stop-color="#e6c686"
         id="stop5" />
      <stop
         offset=".539"
         stop-color="#dfb96f"
         id="stop6" />
      <stop
         offset=".586"
         stop-color="#ddbb73"
         id="stop7" />
      <stop
         offset=".84"
         stop-color="#e7ce8f"
         id="stop8" />
      <stop
         offset=".924"
         stop-color="#e1bd73"
         id="stop9" />
      <stop
         offset=".962"
         stop-color="#e0bf78"
         id="stop10" />
      <stop
         offset="1"
         stop-color="#e7c685"
         id="stop11" />
    </linearGradient>
    <filter
       id="1NY_svg__b"
       x="-0.11836362"
       y="-0.096009601"
       width="1.2860454"
       height="1.2320232">
      <feGaussianBlur
         in="SourceAlpha"
         result="blur"
         stdDeviation="2"
         id="feGaussianBlur11" />
      <feOffset
         dx="2"
         dy="2"
         result="offsetBlur"
         id="feOffset11" />
      <feBlend
         in="SourceGraphic"
         in2="offsetBlur"
         id="feBlend11" />
    </filter>
    <filter
       style="color-interpolation-filters:sRGB"
       inkscape:label="Matte Jelly"
       id="filter37"
       x="-0.026082172"
       y="-0.021332618"
       width="1.0521643"
       height="1.0426652">
      <feColorMatrix
         values="1 0 0 0 0 0 1 0 0 0 0 0 1 0 0 0 0 0 0.85 0"
         result="color"
         in="SourceGraphic"
         id="feColorMatrix36" />
      <feGaussianBlur
         in="SourceAlpha"
         stdDeviation="0.32"
         result="blur"
         id="feGaussianBlur36" />
      <feSpecularLighting
         in="blur"
         specularExponent="25"
         specularConstant="2.01863003"
         surfaceScale="5"
         lighting-color="#ffffff"
         result="specular"
         id="feSpecularLighting36">
        <feDistantLight
           elevation="25"
           azimuth="245"
           id="feDistantLight36" />
      </feSpecularLighting>
      <feComposite
         in="specular"
         in2="SourceGraphic"
         k3="1"
         k2="1"
         operator="arithmetic"
         result="composite1"
         id="feComposite36"
         k1="0"
         k4="0" />
      <feComposite
         in="composite1"
         in2="color"
         operator="atop"
         result="composite2"
         id="feComposite37" />
    </filter>
    <linearGradient
       xlink:href="#1NG_svg__a"
       id="1NG_svg__c"
       x1="148.368"
       x2="129.504"
       y1="49.819"
       y2="49.819"
       gradientUnits="userSpaceOnUse"
       spreadMethod="repeat" />
    <linearGradient
       id="1NG_svg__a">
      <stop
         offset="0"
         stop-color="#dfb459"
         id="stop1-6" />
      <stop
         offset=".033"
         stop-color="#dead54"
         id="stop2-5" />
      <stop
         offset=".093"
         stop-color="#e1b85f"
         id="stop3-1" />
      <stop
         offset=".165"
         stop-color="#dba84d"
         id="stop4-1" />
      <stop
         offset=".305"
         stop-color="#dfb765"
         id="stop5-0" />
      <stop
         offset=".539"
         stop-color="#d8a94e"
         id="stop6-7" />
      <stop
         offset=".586"
         stop-color="#d5ab53"
         id="stop7-9" />
      <stop
         offset=".84"
         stop-color="#e0bf6e"
         id="stop8-0" />
      <stop
         offset=".924"
         stop-color="#daae52"
         id="stop9-0" />
      <stop
         offset=".962"
         stop-color="#d9af57"
         id="stop10-0" />
      <stop
         offset="1"
         stop-color="#e1b663"
         id="stop11-7" />
    </linearGradient>
    <filter
       id="1NG_svg__d"
       x="-0.11604574"
       y="-0.096016083"
       width="1.2804439"
       height="1.2320389">
      <feGaussianBlur
         in="SourceAlpha"
         result="blur"
         stdDeviation="2"
         id="feGaussianBlur22" />
      <feOffset
         dx="2"
         dy="2"
         result="offsetBlur"
         id="feOffset22" />
      <feBlend
         in="SourceGraphic"
         in2="offsetBlur"
         id="feBlend22"
         mode="normal" />
    </filter>
    <linearGradient
       xlink:href="#1FU_svg__a"
       id="1NG_svg__e"
       x1="148.368"
       x2="129.504"
       y1="49.819"
       y2="49.819"
       gradientUnits="userSpaceOnUse"
       spreadMethod="repeat" />
    <linearGradient
       id="1FU_svg__a">
      <stop
         offset="0"
         stop-color="#dfb459"
         id="stop12-5" />
      <stop
         offset=".042"
         stop-color="#dead54"
         id="stop13-1" />
      <stop
         offset=".093"
         stop-color="#e1b85f"
         id="stop14-8" />
      <stop
         offset=".165"
         stop-color="#dba84d"
         id="stop15-1" />
      <stop
         offset=".305"
         stop-color="#dfb765"
         id="stop16-6" />
      <stop
         offset=".539"
         stop-color="#d8a94e"
         id="stop17-6" />
      <stop
         offset=".586"
         stop-color="#d5ab53"
         id="stop18-0" />
      <stop
         offset=".84"
         stop-color="#e0bf6e"
         id="stop19-7" />
      <stop
         offset=".924"
         stop-color="#daae52"
         id="stop20-1" />
      <stop
         offset=".962"
         stop-color="#d9af57"
         id="stop21-4" />
      <stop
         offset="1"
         stop-color="#e1b663"
         id="stop22-9" />
    </linearGradient>
    <filter
       style="color-interpolation-filters:sRGB;"
       inkscape:label="Matte Jelly"
       id="filter39"
       x="-0.026800436"
       y="-0.027180202"
       width="1.0536009"
       height="1.0543604">
      <feColorMatrix
         values="1 0 0 0 0 0 1 0 0 0 0 0 1 0 0 0 0 0 0.85 0"
         result="color"
         in="SourceGraphic"
         id="feColorMatrix38" />
      <feGaussianBlur
         in="SourceAlpha"
         stdDeviation="0.32"
         result="blur"
         id="feGaussianBlur38" />
      <feSpecularLighting
         in="blur"
         specularExponent="25"
         specularConstant="2.01863"
         surfaceScale="5"
         lighting-color="rgb(255,255,255)"
         result="specular"
         id="feSpecularLighting38">
        <feDistantLight
           elevation="25"
           azimuth="245"
           id="feDistantLight38" />
      </feSpecularLighting>
      <feComposite
         in="specular"
         in2="SourceGraphic"
         k3="1"
         k2="1"
         operator="arithmetic"
         result="composite1"
         id="feComposite38" />
      <feComposite
         in="composite1"
         in2="color"
         operator="atop"
         result="composite2"
         id="feComposite39" />
    </filter>
  </defs>
  <g
     fill="#654b13"
     filter="url(#1NY_svg__b)"
     transform="translate(-84.656 -17.119)scale(.89418)"
     id="g11">
    <path
       fill="#876419"
       d="m147.797 28.31-.236 1.177h-39.613l6.736 43.812-.542-.129.703 1.18 13.139 3.933c.093.026.192.016.27.022l13.41-4.261 6.837-44.557z"
       id="path11" />
  </g>
  <path
     fill="url(#1NY_svg__c)"
     d="m-37.3-31.01-13.408 4.26-6.837 44.558h40.553l-6.898-44.862-13.138-3.935c-.094-.026-.193-.015-.271-.021z"
     id="path12"
     transform="translate(-3.954 24.118)scale(-.89418)" />
  <path
     fill="#a5780f"
     d="m29.4 51.847.627 1.053 11.99-3.81-.628-1.052z"
     id="path13" />
  <path
     id="path14-7"
     style="color:#000000;fill:#9a0000;fill-opacity:1;stroke-width:0.147407;-inkscape-stroke:none"
     d="m 29.605701,41.98861 0.11132,-0.134765 0.86524,-1.046875 0.12109,-4.076172 -0.4414,-0.205078 v -0.759766 a 8.0417782,8.0417782 0 0 0 4.16601,-1.576172 l 0.83789,0.837891 -0.15625,0.474609 2.97266,2.804688 1.54101,0.111328 -0.16992,-1.527344 -2.79687,-2.986328 -0.47852,0.173828 -0.76758,-0.767578 a 8.0417782,8.0417782 0 0 0 2.18946,-4.86914 h 0.85156 l 0.22656,0.451171 4.08789,-0.11914 1.16797,-1.011719 -1.20117,-0.958984 -4.08985,-0.132813 -0.21093,0.453125 h -0.83203 a 8.0417782,8.0417782 0 0 0 -7.33789,-7.328126 v -0.599609 l 0.4414,-0.203125 -0.12109,-4.076172 -0.97656,-1.183594 -0.97657,1.183594 -0.11914,4.076172 0.43555,0.197265 v 0.603516 a 8.0417782,8.0417782 0 0 0 -7.353517,7.330079 h -0.380859 -0.431641 l -0.210937,-0.453125 -4.089844,0.132813 -1.201172,0.958984 1.167969,1.011719 4.08789,0.11914 0.226563,-0.451171 h 0.451172 0.380859 a 8.0417782,8.0417782 0 0 0 2.169922,4.851562 l -0.785156,0.785156 -0.472656,-0.15625 -2.804688,2.97461 -0.111328,1.539062 1.527344,-0.169922 2.984375,-2.796875 -0.173829,-0.476562 0.816407,-0.816407 a 8.0417782,8.0417782 0 0 0 4.203126,1.591797 v 0.763672 l -0.43555,0.197266 0.11914,4.078125 z m 0.65625,-7.980468 v -2.027344 c 0.51512,-0.08287 1.00128,-0.262536 1.4375,-0.517578 l 1.46484,1.46289 a 6.2878423,6.2878423 0 0 1 -2.90234,1.082032 z m -1.31641,0 a 6.2878423,6.2878423 0 0 1 -2.937501,-1.09961 l 1.466801,-1.466796 c 0.44449,0.265966 0.94259,0.451595 1.4707,0.537109 z m 5.21484,-1.947266 -1.43554,-1.435547 c 0.53659,-0.600682 0.90474,-1.354939 1.02539,-2.183593 h 2.08984 a 6.2878423,6.2878423 0 0 1 -1.67969,3.61914 z m -9.144529,-0.02148 A 6.2878423,6.2878423 0 0 1 23.353743,28.44174 h 2.107422 c 0.118699,0.815309 0.477416,1.558454 1,2.154296 z m 4.589849,-1.505864 a 2.6868243,2.6868243 0 0 1 -2.687505,-2.6875 2.6868243,2.6868243 0 0 1 2.687505,-2.687501 2.6868243,2.6868243 0 0 1 2.6875,2.687501 2.6868243,2.6868243 0 0 1 -2.6875,2.6875 z m 6.23632,-3.410156 h -2.11328 c -0.0896,-0.504241 -0.27234,-0.979695 -0.52734,-1.40625 l 1.52539,-1.525391 a 6.2878423,6.2878423 0 0 1 1.11523,2.931641 z m -10.359372,0 h -2.113281 a 6.2878423,6.2878423 0 0 1 1.09375,-2.898438 l 1.52539,1.525391 c -0.244463,0.417739 -0.418592,0.882128 -0.505859,1.373047 z m 1.34375,-2.396485 -1.511719,-1.511719 a 6.2878423,6.2878423 0 0 1 3.630861,-1.660156 v 2.158203 c -0.80308,0.130039 -1.53419,0.491132 -2.119142,1.013672 z m 5.529302,-0.02539 c -0.581,-0.509562 -1.30232,-0.862911 -2.09375,-0.990234 v -2.15625 a 6.2878423,6.2878423 0 0 1 3.60742,1.632812 z" />
</svg>
