<svg viewBox="0 0 60 60" xmlns="http://www.w3.org/2000/svg" xmlns:xlink="http://www.w3.org/1999/xlink"><filter id="a"><feGaussianBlur in="SourceAlpha" result="blur" stdDeviation="2"/><feOffset dx="2" dy="2" result="offsetBlur"/><feBlend in="SourceGraphic" in2="offsetBlur" mode="normal"/></filter><linearGradient id="b" gradientUnits="userSpaceOnUse" spreadMethod="repeat" x1="148.57835" x2="130.3233" y1="49.825951" y2="49.825951"><stop offset="0" stop-color="#e5c37b"/><stop offset=".04234359" stop-color="#e4bd76"/><stop offset=".09289452" stop-color="#e7c781"/><stop offset=".16495684" stop-color="#e2b86e"/><stop offset=".3052367" stop-color="#e6c686"/><stop offset=".53886235" stop-color="#dfb96f"/><stop offset=".58579648" stop-color="#ddbb73"/><stop offset=".83974683" stop-color="#e7ce8f"/><stop offset=".92426348" stop-color="#e1bd73"/><stop offset=".96230692" stop-color="#e0bf78"/><stop offset="1" stop-color="#e7c685"/></linearGradient><linearGradient id="c" gradientUnits="userSpaceOnUse" spreadMethod="repeat" x1="148.57835" x2="130.3233" y1="49.825951" y2="49.825951"><stop offset="0" stop-color="#dfb459"/><stop offset=".04123921" stop-color="#dead54"/><stop offset=".08247842" stop-color="#e1b85f"/><stop offset=".16495684" stop-color="#dba84d"/><stop offset=".3052367" stop-color="#dfb765"/><stop offset=".53886235" stop-color="#d8a94e"/><stop offset=".58579648" stop-color="#d5ab53"/><stop offset=".83974683" stop-color="#e0bf6e"/><stop offset=".92426348" stop-color="#daae52"/><stop offset=".96230692" stop-color="#d9af57"/><stop offset="1" stop-color="#e1b663"/></linearGradient><g transform="translate(-55.273714 3.92418)"><g fill="url(#c)" filter="url(#a)" transform="matrix(.98185054 0 0 .98185054 -41.283633 -27.144831)"><g fill="url(#c)" transform="matrix(-1 0 0 -1 91.156998 47.625)"><path d="m46.001953 6.0566406-.136719.9550782.705078.00977zm.568359.9648438h-39.460937l6.292969 43.2031246-.445313-.11914.56836.96289 12.90039 3.863282c.08837.01669.176277.03228.265625.02148l13.166016-4.183594z" fill="#876419" stroke-width=".981851" transform="matrix(-1.018485 0 0 -1.018485 -10.693005 23.976851)"/><path d="m-37.299339-31.009999-13.408999 4.26-6.837 44.557887 40.189999.000113-6.535-44.862-13.138-3.935c-.09-.017-.18-.032-.271-.021z" fill="url(#b)"/></g></g><path d="m84.841291 50.062986.302339.942775 13.431641-4.16211-.568347-.963348z" fill="#ac812a"/><path d="m95.580574 37.763118a.76396898.68731139 0 0 0 .733314-.878965l-.965719-2.98199a.76396898.68731139 0 0 0 -.733312-.495307h-7.482058v-7.0297h5.476162a.76396898.68731139 0 0 0 .724289-.466888l.965717-2.576a.76396898.68731139 0 0 0 -.724288-.907385h-6.44188v-8.113692h10.733458a.76396898.68731139 0 0 0 .733313-.495306l.967975-2.98199a.76396898.68731139 0 0 0 -.733314-.8789663h-28.07577a.76396898.68731139 0 0 0 -.73331.8789663l.96572 2.98199a.76396898.68731139 0 0 0 .73331.495306h10.864328v8.113692h-6.259119a.76396898.68731139 0 0 0 -.72203.907385l.96572 2.576a.76396898.68731139 0 0 0 .72429.466888h5.291139v7.0297h-7.527189a.76396898.68731139 0 0 0 -.73331.495307l-.96572 2.98199a.76396898.68731139 0 0 0 .73332.878965zm-1.017614-1.374272h-19.44974l.52122-1.607716h7.718972a.76396898.68731139 0 0 0 .762646-.686122v-8.403973a.76396898.68731139 0 0 0 -.762646-.688153h-5.507752l-.45127-1.201727h5.959022a.76396898.68731139 0 0 0 .762646-.686121v-9.489994a.76396898.68731139 0 0 0 -.762646-.686122h-11.056122l-.521209-1.607716h26.03828l-.521217 1.607716h-10.922992a.76396898.68731139 0 0 0 -.764902.686122v9.489994a.76396898.68731139 0 0 0 .764902.686121h6.141786l-.45127 1.201727h-5.690516a.76396898.68731139 0 0 0 -.764902.688153v8.403973a.76396898.68731139 0 0 0 .764902.686122h7.671591z" opacity=".99"/></g></svg>