<?xml version="1.0" encoding="UTF-8" standalone="no"?>
<svg
   viewBox="0 0 60 60"
   version="1.1"
   id="svg25"
   sodipodi:docname="1OU.svg"
   inkscape:version="1.3 (0e150ed6c4, 2023-07-21)"
   xmlns:inkscape="http://www.inkscape.org/namespaces/inkscape"
   xmlns:sodipodi="http://sodipodi.sourceforge.net/DTD/sodipodi-0.dtd"
   xmlns:xlink="http://www.w3.org/1999/xlink"
   xmlns="http://www.w3.org/2000/svg"
   xmlns:svg="http://www.w3.org/2000/svg">
  <sodipodi:namedview
     id="namedview25"
     pagecolor="#ffffff"
     bordercolor="#666666"
     borderopacity="1.0"
     inkscape:showpageshadow="2"
     inkscape:pageopacity="0.0"
     inkscape:pagecheckerboard="0"
     inkscape:deskcolor="#d1d1d1"
     inkscape:zoom="10.759808"
     inkscape:cx="-32.807277"
     inkscape:cy="44.610461"
     inkscape:window-width="3840"
     inkscape:window-height="2054"
     inkscape:window-x="-11"
     inkscape:window-y="-11"
     inkscape:window-maximized="1"
     inkscape:current-layer="svg25" />
  <defs
     id="defs22">
    <linearGradient
       id="1OU_svg__b">
      <stop
         offset="0"
         stop-color="#dfb459"
         id="stop1" />
      <stop
         offset=".041"
         stop-color="#dead54"
         id="stop2" />
      <stop
         offset=".082"
         stop-color="#e1b85f"
         id="stop3" />
      <stop
         offset=".165"
         stop-color="#dba84d"
         id="stop4" />
      <stop
         offset=".305"
         stop-color="#dfb765"
         id="stop5" />
      <stop
         offset=".539"
         stop-color="#d8a94e"
         id="stop6" />
      <stop
         offset=".586"
         stop-color="#d5ab53"
         id="stop7" />
      <stop
         offset=".84"
         stop-color="#e0bf6e"
         id="stop8" />
      <stop
         offset=".924"
         stop-color="#daae52"
         id="stop9" />
      <stop
         offset=".962"
         stop-color="#d9af57"
         id="stop10" />
      <stop
         offset="1"
         stop-color="#e1b663"
         id="stop11" />
    </linearGradient>
    <linearGradient
       xlink:href="#1FU_svg__a"
       id="1OU_svg__f"
       x1="148.578"
       x2="130.323"
       y1="49.826"
       y2="49.826"
       gradientUnits="userSpaceOnUse"
       spreadMethod="repeat" />
    <linearGradient
       xlink:href="#1OU_svg__b"
       id="1OU_svg__e"
       x1="148.578"
       x2="130.323"
       y1="49.826"
       y2="49.826"
       gradientUnits="userSpaceOnUse"
       spreadMethod="repeat" />
    <linearGradient
       xlink:href="#1OU_svg__b"
       id="1OU_svg__c"
       x1="148.578"
       x2="130.323"
       y1="49.826"
       y2="49.826"
       gradientUnits="userSpaceOnUse"
       spreadMethod="repeat" />
    <filter
       id="1OU_svg__d"
       x="-0.11773363"
       y="-0.096381306"
       width="1.2845229"
       height="1.2329215">
      <feGaussianBlur
         in="SourceAlpha"
         result="blur"
         stdDeviation="2"
         id="feGaussianBlur22" />
      <feOffset
         dx="2"
         dy="2"
         result="offsetBlur"
         id="feOffset22" />
      <feBlend
         in="SourceGraphic"
         in2="offsetBlur"
         id="feBlend22" />
    </filter>
    <linearGradient
       id="1FU_svg__a">
      <stop
         offset="0"
         stop-color="#dfb459"
         id="stop12-4" />
      <stop
         offset=".042"
         stop-color="#dead54"
         id="stop13-1" />
      <stop
         offset=".093"
         stop-color="#e1b85f"
         id="stop14-0" />
      <stop
         offset=".165"
         stop-color="#dba84d"
         id="stop15-3" />
      <stop
         offset=".305"
         stop-color="#dfb765"
         id="stop16-3" />
      <stop
         offset=".539"
         stop-color="#d8a94e"
         id="stop17-5" />
      <stop
         offset=".586"
         stop-color="#d5ab53"
         id="stop18-6" />
      <stop
         offset=".84"
         stop-color="#e0bf6e"
         id="stop19-4" />
      <stop
         offset=".924"
         stop-color="#daae52"
         id="stop20-4" />
      <stop
         offset=".962"
         stop-color="#d9af57"
         id="stop21-9" />
      <stop
         offset="1"
         stop-color="#e1b663"
         id="stop22-4" />
    </linearGradient>
    <filter
       style="color-interpolation-filters:sRGB;"
       inkscape:label="Matte Jelly"
       id="filter2"
       x="-0.02594197"
       y="-0.02761795"
       width="1.0518839"
       height="1.0552359">
      <feColorMatrix
         values="1 0 0 0 0 0 1 0 0 0 0 0 1 0 0 0 0 0 0.85 0"
         result="color"
         in="SourceGraphic"
         id="feColorMatrix1" />
      <feGaussianBlur
         in="SourceAlpha"
         stdDeviation="0.32"
         result="blur"
         id="feGaussianBlur1" />
      <feSpecularLighting
         in="blur"
         specularExponent="25"
         specularConstant="2.01863"
         surfaceScale="5"
         lighting-color="rgb(255,255,255)"
         result="specular"
         id="feSpecularLighting1">
        <feDistantLight
           elevation="25"
           azimuth="245"
           id="feDistantLight1" />
      </feSpecularLighting>
      <feComposite
         in="specular"
         in2="SourceGraphic"
         k3="1"
         k2="1"
         operator="arithmetic"
         result="composite1"
         id="feComposite1" />
      <feComposite
         in="composite1"
         in2="color"
         operator="atop"
         result="composite2"
         id="feComposite2" />
    </filter>
  </defs>
  <g
     fill="url(#1OU_svg__c)"
     filter="url(#1OU_svg__d)"
     transform="translate(-96.557 -23.22)scale(.98185)"
     id="g24">
    <g
       fill="url(#1OU_svg__e)"
       transform="rotate(180 45.578 23.813)"
       id="g23">
      <path
         fill="#876419"
         d="M -57.545,17.808 -57.347434,16.727235 -58.124,16.826 Z m -0.58,-0.982 h 40.191 l -6.41,-44.002 0.454,0.121 -0.578,-0.98 -13.14,-3.935 c -0.08838,-0.02091 -0.179405,-0.02833 -0.27,-0.022 l -13.41,4.26 z"
         id="path22"
         sodipodi:nodetypes="ccccccccccccc" />
      <path
         fill="url(#1OU_svg__f)"
         d="m-37.3-31.01-13.408 4.26-6.837 44.558h40.19l-6.535-44.862-13.138-3.935a.9.9 0 0 0-.271-.021"
         id="path23" />
    </g>
  </g>
  <path
     fill="#ac812a"
     d="m29.568 53.987.302.943 13.432-4.162-.569-.964z"
     id="path24" />
  <path
     d="m 40.306,41.687 a 0.764,0.687 0 0 0 0.734,-0.879 l -0.966,-2.982 a 0.764,0.687 0 0 0 -0.733,-0.495 h -7.482 v -7.03 h 5.476 a 0.764,0.687 0 0 0 0.724,-0.467 l 0.966,-2.576 a 0.764,0.687 0 0 0 -0.724,-0.907 h -6.442 v -8.114 h 10.733 a 0.764,0.687 0 0 0 0.734,-0.495 L 44.294,14.76 A 0.764,0.687 0 0 0 43.56,13.88 H 15.484 a 0.764,0.687 0 0 0 -0.733,0.88 l 0.966,2.982 a 0.764,0.687 0 0 0 0.733,0.495 h 10.866 v 8.114 h -6.26 a 0.764,0.687 0 0 0 -0.722,0.907 l 0.966,2.576 a 0.764,0.687 0 0 0 0.724,0.467 h 5.292 v 7.03 h -7.53 a 0.764,0.687 0 0 0 -0.733,0.495 l -0.966,2.982 a 0.764,0.687 0 0 0 0.734,0.88 z m -1.017,-1.374 h -19.45 l 0.521,-1.608 h 7.72 a 0.764,0.687 0 0 0 0.762,-0.686 V 29.615 A 0.764,0.687 0 0 0 28.079,28.927 H 22.572 L 22.12,27.725 h 5.96 a 0.764,0.687 0 0 0 0.762,-0.686 v -9.49 A 0.764,0.687 0 0 0 28.079,16.863 H 17.023 l -0.52,-1.608 H 42.54 l -0.52,1.608 H 31.096 a 0.764,0.687 0 0 0 -0.765,0.686 v 9.49 a 0.764,0.687 0 0 0 0.765,0.686 h 6.142 l -0.451,1.202 h -5.69 a 0.764,0.687 0 0 0 -0.766,0.688 v 8.404 a 0.764,0.687 0 0 0 0.765,0.686 h 7.672 z"
     enable-background="accumulate"
     opacity="0.99"
     overflow="visible"
     id="path25"
     transform="matrix(-1,0,0,1,59.045,0)" />
</svg>
