<?xml version="1.0" encoding="UTF-8" standalone="no"?>
<svg
   xmlns:dc="http://purl.org/dc/elements/1.1/"
   xmlns:cc="http://creativecommons.org/ns#"
   xmlns:rdf="http://www.w3.org/1999/02/22-rdf-syntax-ns#"
   xmlns:svg="http://www.w3.org/2000/svg"
   xmlns="http://www.w3.org/2000/svg"
   xmlns:sodipodi="http://sodipodi.sourceforge.net/DTD/sodipodi-0.dtd"
   xmlns:inkscape="http://www.inkscape.org/namespaces/inkscape"
   width="52.157"
   height="60"
   version="1.1"
   id="svg1717"
   sodipodi:docname="1RY.svg"
   inkscape:version="0.92.4 (5da689c313, 2019-01-14)">
  <metadata
     id="metadata1723">
    <rdf:RDF>
      <cc:Work
         rdf:about="">
        <dc:format>image/svg+xml</dc:format>
        <dc:type
           rdf:resource="http://purl.org/dc/dcmitype/StillImage" />
        <dc:title></dc:title>
      </cc:Work>
    </rdf:RDF>
  </metadata>
  <defs
     id="defs1721">
    <filter
       style="color-interpolation-filters:sRGB"
       inkscape:label="Drop Shadow"
       id="filter1552">
      <feFlood
         flood-opacity="0.498039"
         flood-color="rgb(0,0,0)"
         result="flood"
         id="feFlood1542" />
      <feComposite
         in="flood"
         in2="SourceGraphic"
         operator="in"
         result="composite1"
         id="feComposite1544" />
      <feGaussianBlur
         in="composite1"
         stdDeviation="2.5"
         result="blur"
         id="feGaussianBlur1546" />
      <feOffset
         dx="4.57967e-15"
         dy="4.41314e-15"
         result="offset"
         id="feOffset1548" />
      <feComposite
         in="SourceGraphic"
         in2="offset"
         operator="over"
         result="composite2"
         id="feComposite1550" />
    </filter>
    <filter
       style="color-interpolation-filters:sRGB"
       inkscape:label="Drop Shadow"
       id="filter1540">
      <feFlood
         flood-opacity="0.498039"
         flood-color="rgb(0,0,0)"
         result="flood"
         id="feFlood1530" />
      <feComposite
         in="flood"
         in2="SourceGraphic"
         operator="in"
         result="composite1"
         id="feComposite1532" />
      <feGaussianBlur
         in="composite1"
         stdDeviation="2.5"
         result="blur"
         id="feGaussianBlur1534" />
      <feOffset
         dx="4.57967e-15"
         dy="4.41314e-15"
         result="offset"
         id="feOffset1536" />
      <feComposite
         in="SourceGraphic"
         in2="offset"
         operator="over"
         result="composite2"
         id="feComposite1538" />
    </filter>
    <filter
       id="drop-shadow-9">
      <feGaussianBlur
         in="SourceAlpha"
         result="blur"
         stdDeviation="2"
         id="feGaussianBlur5056" />
      <feOffset
         result="offsetBlur"
         dx="2"
         dy="2"
         id="feOffset5058" />
      <feBlend
         in="SourceGraphic"
         in2="offsetBlur"
         mode="normal"
         id="feBlend5060" />
    </filter>
    <filter
       id="drop-shadow-2">
      <feGaussianBlur
         in="SourceAlpha"
         result="blur"
         stdDeviation="2"
         id="feGaussianBlur6807" />
      <feOffset
         result="offsetBlur"
         dx="2"
         dy="2"
         id="feOffset6809" />
      <feBlend
         in="SourceGraphic"
         in2="offsetBlur"
         mode="normal"
         id="feBlend6811" />
    </filter>
  </defs>
  <sodipodi:namedview
     pagecolor="#ffffff"
     bordercolor="#666666"
     borderopacity="1"
     objecttolerance="10"
     gridtolerance="10"
     guidetolerance="10"
     inkscape:pageopacity="0"
     inkscape:pageshadow="2"
     inkscape:window-width="958"
     inkscape:window-height="1008"
     id="namedview1719"
     showgrid="false"
     inkscape:zoom="7.8666667"
     inkscape:cx="21.88598"
     inkscape:cy="33.692264"
     inkscape:window-x="953"
     inkscape:window-y="0"
     inkscape:window-maximized="0"
     inkscape:current-layer="g7756" />
  <!--
Created by Hari Seldon and modified by orangain, licensed under Creative Commons Attribution-Share Alike 3.0 Unported.
See: https://creativecommons.org/licenses/by-sa/3.0/deed.en

Original file is available at: https://commons.wikimedia.org/wiki/File:Shogi_gyokusho(svg).svg
-->
  <filter
     id="drop-shadow">
    <feGaussianBlur
       in="SourceAlpha"
       result="blur"
       stdDeviation="2"
       id="feGaussianBlur1692" />
    <feOffset
       result="offsetBlur"
       dx="2"
       dy="2"
       id="feOffset1694" />
    <feBlend
       in="SourceGraphic"
       in2="offsetBlur"
       mode="normal"
       id="feBlend1696" />
  </filter>
  <g
     style="display:inline;fill:#ffe680"
     id="g9324"
     transform="translate(-16.623209,-152.33062)">
    <g
       style="fill:#ffe680;fill-opacity:1;filter:url(#drop-shadow-2)"
       transform="matrix(0.98185054,0,0,0.98185054,-83.378266,128.6032)"
       id="g7758">
      <g
         style="fill:#ffe680;fill-opacity:1"
         transform="rotate(180,45.578499,23.8125)"
         id="g7756"
         sodipodi:insensitive="true">
        <path
           style="fill:#ffe680;fill-opacity:1"
           inkscape:connector-curvature="0"
           d="m -37.29934,-31.009999 c -4.096,1.034 -8.171,2.152 -12.207999,3.395 -0.467,0.163 -1.13,0.263 -1.201,0.865 -0.709,3.416 -1.178,6.885 -1.737,10.331 -1.73,11.2549998 -3.378,22.5279998 -5.1,33.78 0.155,0.682 1.013,0.424 1.51,0.48 12.893999,0.025 25.787999,0.03 38.679999,-0.033 0.672,-0.156 0.28,-0.952 0.279,-1.409 -2.011,-13.1200002 -3.876,-26.2630002 -5.998,-39.366 -0.277,-1.356 -0.348,-2.782 -0.816,-4.087 -0.347,-0.497 -1.073,-0.468 -1.588,-0.704 -3.832,-1.137 -7.673,-2.267 -11.55,-3.231 -0.09,-0.017 -0.18,-0.032 -0.271,-0.021 z"
           id="path7754"
           sodipodi:nodetypes="ccccccccccccc" />
        <g
           transform="matrix(0.70042377,0,0,0.70042377,-107.84314,-116.6721)"
           style="display:inline;stroke-width:1.5;stroke-miterlimit:4;stroke-dasharray:none"
           id="g13537">
          <path
             style="fill:none;stroke:#ff0000;stroke-width:1.5;stroke-linecap:butt;stroke-linejoin:miter;stroke-miterlimit:4;stroke-dasharray:none;stroke-opacity:1"
             d="m 99.938985,158.29805 c -5.049569,1.29768 -6.422852,9.83907 -10.660754,13.34408 -0.735784,-0.3683 -0.827866,-1.19226 -0.797743,-2.90089 l -2.828362,-1.52297 4.568891,-0.58017 -2.900881,-1.59549 3.843672,-0.6527 -1.595486,-2.24818 3.118448,0.50765 -0.145043,-3.26349 1.377919,-0.72522 V 156.485 l -0.725219,-1.08783 -1.160357,0.14505 0.07252,1.0153 -1.668009,0.14505 -0.145043,1.23287 -1.3054,-0.43513 -1.01531,0.29009 0.217567,2.46575 -2.103139,-0.0725 -0.07252,3.98871 c -0.474479,-0.38678 -1.149378,-0.77356 -2.393228,-1.16035 -0.385357,2.27236 -0.285839,4.32716 -0.290091,6.59952 l -3.408538,-4.78647 c 0.270013,-0.65709 1.00717,-0.59849 1.522962,-2.10313 -0.04517,-1.04998 -0.08546,-2.09753 -0.507653,-3.33602 2.560131,-1.26401 4.783339,-3.53879 6.962125,-5.94682 l 0.07252,-5.00402 c 1.30545,-2.4981 1.752736,-2.99382 2.538277,-4.27881 -0.510148,2.03312 -0.285649,3.33158 0.362609,4.20628 1.445697,-1.53827 0.08937,-6.90477 5.221591,-9.57292 -1.287354,2.87748 -3.690968,5.89449 -2.103138,8.41257 5.71244,-7.08218 11.658228,-12.49758 18.710708,-10.00805 -9.09982,0.74609 -15.174699,7.87062 -8.04996,12.69137 -1.80608,3.2415 -0.40311,5.06667 2.61079,5.80177 -2.62664,0.27718 -3.85934,2.86163 -3.19097,7.75987 -1.65605,-4.87067 -4.461578,-6.29292 -8.049949,-5.36664"
             id="path13517"
             inkscape:connector-curvature="0"
             sodipodi:nodetypes="cccccccccccccccccccccccccccccccccccccc" />
          <path
             style="fill:none;stroke:#ff0000;stroke-width:1.5;stroke-linecap:butt;stroke-linejoin:miter;stroke-miterlimit:4;stroke-dasharray:none;stroke-opacity:1"
             d="m 101.82456,146.62199 c 4.30283,-5.0893 9.66554,-3.95769 11.38597,-3.11845 -5.42728,0.56055 -7.60251,2.36452 -6.45447,5.43916 6.14453,-1.76511 10.84868,-1.49675 13.70668,1.37792 -3.44196,-0.37601 -8.44829,-1.44309 -8.58036,0.57138 24.08767,10.62873 -3.53199,26.36757 -3.96597,28.43747 -1.5017,3.71433 -0.64992,5.12274 -0.58017,7.61483 l -17.405309,0.0725 c -0.789902,-11.11852 9.080919,-15.02287 14.019159,-17.34785 5.40946,-2.54682 8.83182,-12.3675 0.84788,-12.60378"
             id="path13519"
             inkscape:connector-curvature="0"
             sodipodi:nodetypes="ccccccccsc" />
          <path
             style="fill:none;stroke:#ff0000;stroke-width:1.5;stroke-linecap:butt;stroke-linejoin:miter;stroke-miterlimit:4;stroke-dasharray:none;stroke-opacity:1"
             d="m 106.85537,157.38289 c 7.55631,-2.27747 12.29422,1.14184 14.61505,5.6409"
             id="path13521"
             inkscape:connector-curvature="0"
             sodipodi:nodetypes="cc" />
          <path
             style="fill:none;stroke:#ff0000;stroke-width:1.5;stroke-linecap:butt;stroke-linejoin:miter;stroke-miterlimit:4;stroke-dasharray:none;stroke-opacity:1"
             d="m 109.36814,159.69053 c 8.1436,0.28405 5.92715,9.6573 3.89734,14.71761"
             id="path13523"
             inkscape:connector-curvature="0"
             sodipodi:nodetypes="cc" />
          <path
             style="fill:none;stroke:#ff0000;stroke-width:1.5;stroke-linecap:butt;stroke-linejoin:miter;stroke-miterlimit:4;stroke-dasharray:none;stroke-opacity:1"
             d="m 114.0347,161.74176 c 2.8459,11.1054 -15.307351,14.10853 -12.66638,25.12764"
             id="path13525"
             inkscape:connector-curvature="0"
             sodipodi:nodetypes="cc" />
          <path
             style="fill:none;stroke:#ff0000;stroke-width:1.5;stroke-linecap:butt;stroke-linejoin:miter;stroke-miterlimit:4;stroke-dasharray:none;stroke-opacity:1"
             d="m 109.62454,160.92127 c 8.40172,9.23023 -15.847052,12.91191 -13.538155,26.10197"
             id="path13527"
             inkscape:connector-curvature="0"
             sodipodi:nodetypes="cc" />
          <path
             style="fill:none;stroke:#ff0000;stroke-width:1.5;stroke-linecap:butt;stroke-linejoin:miter;stroke-miterlimit:4;stroke-dasharray:none;stroke-opacity:1"
             d="m 96.650476,155.22909 c 2.546951,-0.30884 5.093904,-0.47217 7.640854,-0.10256"
             id="path13529"
             inkscape:connector-curvature="0"
             sodipodi:nodetypes="cc" />
          <path
             style="fill:none;stroke:#ff0000;stroke-width:1.5;stroke-linecap:butt;stroke-linejoin:miter;stroke-miterlimit:4;stroke-dasharray:none;stroke-opacity:1"
             d="m 96.137669,153.12657 c 1.402563,-1.75471 4.191461,-2.26173 6.922921,-2.82044"
             id="path13531"
             inkscape:connector-curvature="0"
             sodipodi:nodetypes="cc" />
          <path
             sodipodi:nodetypes="ccccc"
             style="fill:#ff0000;stroke:#ff0000;stroke-width:1.5;stroke-linecap:butt;stroke-linejoin:miter;stroke-miterlimit:4;stroke-dasharray:none;stroke-opacity:1"
             d="m 91.642469,149.9701 -1.27326,1.17945 -0.265168,1.61806 1.170703,-0.92847 z"
             id="path13533"
             inkscape:connector-curvature="0" />
          <path
             style="fill:none;stroke:#ff0000;stroke-width:1.5;stroke-linecap:butt;stroke-linejoin:miter;stroke-miterlimit:4;stroke-dasharray:none;stroke-opacity:1"
             d="m 84.445625,161.43408 c 6.80241,0.22864 16.721125,8.88531 19.076495,4.30759"
             id="path13535"
             inkscape:connector-curvature="0"
             sodipodi:nodetypes="cc" />
        </g>
      </g>
    </g>
  </g>
</svg>
