<?xml version="1.0" encoding="UTF-8" standalone="no"?>
<svg
   viewBox="0 0 60 60"
   version="1.1"
   id="svg38"
   sodipodi:docname="1UM.svg"
   inkscape:version="1.3 (0e150ed6c4, 2023-07-21)"
   xml:space="preserve"
   xmlns:inkscape="http://www.inkscape.org/namespaces/inkscape"
   xmlns:sodipodi="http://sodipodi.sourceforge.net/DTD/sodipodi-0.dtd"
   xmlns:xlink="http://www.w3.org/1999/xlink"
   xmlns="http://www.w3.org/2000/svg"
   xmlns:svg="http://www.w3.org/2000/svg"><sodipodi:namedview
     id="namedview38"
     pagecolor="#ffffff"
     bordercolor="#666666"
     borderopacity="1.0"
     inkscape:showpageshadow="2"
     inkscape:pageopacity="0.0"
     inkscape:pagecheckerboard="0"
     inkscape:deskcolor="#d1d1d1"
     inkscape:zoom="3.8041667"
     inkscape:cx="-142.86966"
     inkscape:cy="144.31544"
     inkscape:window-width="3840"
     inkscape:window-height="2054"
     inkscape:window-x="-11"
     inkscape:window-y="-11"
     inkscape:window-maximized="1"
     inkscape:current-layer="svg38" /><defs
     id="defs22"><linearGradient
       id="1UM_svg__a"><stop
         offset="0"
         stop-color="#dfb459"
         id="stop1" /><stop
         offset=".041"
         stop-color="#dead54"
         id="stop2" /><stop
         offset=".082"
         stop-color="#e1b85f"
         id="stop3" /><stop
         offset=".165"
         stop-color="#dba84d"
         id="stop4" /><stop
         offset=".305"
         stop-color="#dfb765"
         id="stop5" /><stop
         offset=".539"
         stop-color="#d8a94e"
         id="stop6" /><stop
         offset=".586"
         stop-color="#d5ab53"
         id="stop7" /><stop
         offset=".84"
         stop-color="#e0bf6e"
         id="stop8" /><stop
         offset=".924"
         stop-color="#daae52"
         id="stop9" /><stop
         offset=".962"
         stop-color="#d9af57"
         id="stop10" /><stop
         offset="1"
         stop-color="#e1b663"
         id="stop11" /></linearGradient><linearGradient
       xlink:href="#1UM_svg__a"
       id="1UM_svg__c"
       x1="148.578"
       x2="130.323"
       y1="49.826"
       y2="49.826"
       gradientUnits="userSpaceOnUse"
       spreadMethod="repeat" /><linearGradient
       xlink:href="#1FU_svg__a"
       id="1UM_svg__e"
       x1="148.578"
       x2="130.323"
       y1="49.826"
       y2="49.826"
       gradientUnits="userSpaceOnUse"
       spreadMethod="repeat" /><filter
       id="1UM_svg__d"
       x="-0.11773074"
       y="-0.096381306"
       width="1.284516"
       height="1.2329215"><feGaussianBlur
         in="SourceAlpha"
         result="blur"
         stdDeviation="2"
         id="feGaussianBlur22" /><feOffset
         dx="2"
         dy="2"
         result="offsetBlur"
         id="feOffset22" /><feBlend
         in="SourceGraphic"
         in2="offsetBlur"
         id="feBlend22" /></filter><linearGradient
       id="1FU_svg__a"><stop
         offset="0"
         stop-color="#dfb459"
         id="stop12-5" /><stop
         offset=".042"
         stop-color="#dead54"
         id="stop13-1" /><stop
         offset=".093"
         stop-color="#e1b85f"
         id="stop14-8" /><stop
         offset=".165"
         stop-color="#dba84d"
         id="stop15-1" /><stop
         offset=".305"
         stop-color="#dfb765"
         id="stop16-6" /><stop
         offset=".539"
         stop-color="#d8a94e"
         id="stop17-6" /><stop
         offset=".586"
         stop-color="#d5ab53"
         id="stop18-0" /><stop
         offset=".84"
         stop-color="#e0bf6e"
         id="stop19-7" /><stop
         offset=".924"
         stop-color="#daae52"
         id="stop20-1" /><stop
         offset=".962"
         stop-color="#d9af57"
         id="stop21-4" /><stop
         offset="1"
         stop-color="#e1b663"
         id="stop22-9" /></linearGradient><filter
       style="color-interpolation-filters:sRGB;"
       inkscape:label="Matte Jelly"
       id="filter39"
       x="-0.022437475"
       y="-0.017120635"
       width="1.0448749"
       height="1.0342413"><feColorMatrix
         values="1 0 0 0 0 0 1 0 0 0 0 0 1 0 0 0 0 0 0.85 0"
         result="color"
         in="SourceGraphic"
         id="feColorMatrix38" /><feGaussianBlur
         in="SourceAlpha"
         stdDeviation="0.32"
         result="blur"
         id="feGaussianBlur38" /><feSpecularLighting
         in="blur"
         specularExponent="25"
         specularConstant="2.01863"
         surfaceScale="5"
         lighting-color="rgb(255,255,255)"
         result="specular"
         id="feSpecularLighting38"><feDistantLight
           elevation="25"
           azimuth="245"
           id="feDistantLight38" /></feSpecularLighting><feComposite
         in="specular"
         in2="SourceGraphic"
         k3="1"
         k2="1"
         operator="arithmetic"
         result="composite1"
         id="feComposite38" /><feComposite
         in="composite1"
         in2="color"
         operator="atop"
         result="composite2"
         id="feComposite39" /></filter></defs><g
     fill="url(#1UM_svg__c)"
     filter="url(#1UM_svg__d)"
     transform="translate(-96.557 -23.219)scale(.98185)"
     id="g23"><path
       fill="#876419"
       d="m 148.702,29.817 -0.27142,1.20171 0.85042,-0.21971 z m 0.58,0.982 H 109.09 l 6.41,44.002 -0.454,-0.121 0.578,0.98 13.14,3.935 c 0.0884,0.02091 0.17941,0.02833 0.27,0.022 l 13.41,-4.26 6.836,-44.558 z"
       id="path22"
       sodipodi:nodetypes="cccccccccccccc" /><path
       fill="url(#1UM_svg__e)"
       d="m-37.3-31.01-13.408 4.26-6.837 44.558h40.19l-6.535-44.862-13.138-3.935a.9.9 0 0 0-.271-.021z"
       transform="rotate(180 45.578 23.813)"
       id="path23" /></g><path
     fill="#ac812a"
     d="m29.567 53.989.303.943 13.431-4.162-.568-.964z"
     id="path24" /><path
     id="path1"
     style="color:#000000;font-style:normal;font-variant:normal;font-weight:normal;font-stretch:normal;font-size:medium;line-height:normal;font-family:sans-serif;font-variant-ligatures:normal;font-variant-position:normal;font-variant-caps:normal;font-variant-numeric:normal;font-variant-alternates:normal;font-variant-east-asian:normal;font-feature-settings:normal;font-variation-settings:normal;text-indent:0;text-align:start;text-decoration:none;text-decoration-line:none;text-decoration-style:solid;text-decoration-color:#000000;letter-spacing:normal;word-spacing:normal;text-transform:none;writing-mode:lr-tb;direction:ltr;text-orientation:mixed;dominant-baseline:auto;baseline-shift:baseline;text-anchor:start;white-space:normal;shape-padding:0;shape-margin:0;inline-size:0;clip-rule:nonzero;display:inline;overflow:visible;visibility:visible;isolation:auto;mix-blend-mode:normal;color-interpolation:sRGB;color-interpolation-filters:linearRGB;solid-color:#000000;solid-opacity:1;fill:#9a0000;fill-opacity:1;fill-rule:nonzero;stroke:none;stroke-width:1.16022;stroke-linecap:butt;stroke-linejoin:round;stroke-miterlimit:4;stroke-dasharray:none;stroke-dashoffset:0;stroke-opacity:1;color-rendering:auto;image-rendering:auto;shape-rendering:auto;text-rendering:auto;enable-background:accumulate;stop-color:#000000"
     d="m 33.630981,50.039678 c 0.14402,-0.0028 0.28832,-0.02643 0.43324,-0.07764 0.0683,-0.02412 0.23975,-0.07071 0.42422,-0.138997 0.18446,-0.0683 0.39589,-0.153286 0.58487,-0.352009 0.18898,-0.198722 0.28978,-0.590324 0.16608,-0.898977 -0.12371,-0.308651 -0.36449,-0.558151 -0.74554,-0.852034 l -0.047,-0.03429 -0.0523,-0.02348 c -0.93154,-0.402906 -1.14128,-0.768899 -1.27625,-1.229321 -0.0716,-1.246227 -0.44381,-1.794942 -1.20405,-2.646377 -0.27641,-0.251247 -0.61008,-0.486883 -1.12462,-0.862876 -0.049,-0.03558 -0.0972,-0.06931 -0.14622,-0.104698 1.2842,0.653451 2.147,1.173359 2.90451,1.920704 0.0982,0.08068 0.1384,0.30306 0.14261,0.312294 0.40637,0.911325 0.49146,1.301052 1.05963,2.157171 0.33336,0.502291 0.83767,0.946124 1.37554,1.260007 0.26894,0.156945 0.54797,0.293706 0.83218,0.364652 0.28423,0.07099 0.57437,0.07588 0.86468,-0.02884 0.12649,-0.04565 0.57088,-0.07135 0.90258,-0.478371 0.16586,-0.203501 0.23236,-0.541516 0.14623,-0.83038 -0.0861,-0.288863 -0.26994,-0.556803 -0.56502,-0.877313 l -0.0668,-0.07218 -0.0902,-0.03974 c -0.93154,-0.402906 -1.14129,-0.768898 -1.27626,-1.229321 -0.15839,-0.540296 -0.1364,-1.434457 -0.5253,-1.945972 -0.76584,-0.857017 -1.29044,-1.057661 -2.57779,-1.707693 -1.28725,-0.647222 -2.27248,-1.499793 -3.10488,-1.890009 -0.0915,-0.07791 -0.16227,-0.134589 -0.24912,-0.207596 0.27199,0.107111 0.55075,0.205996 0.8394,0.276193 1.72273,0.500119 2.91357,0.264981 2.97312,0.252726 l 1.14086,-0.492808 c -1.67008,-1.083328 -3.2182,-2.211638 -4.07968,-3.599514 0.59873,0.419756 1.22793,0.893866 1.816,1.19322 0.80433,0.409377 1.39967,0.637056 1.76546,0.675135 0.0955,0.01 0.21028,0.0096 0.32674,0.0018 0.34937,-0.02338 0.72552,-0.113285 0.72748,-0.196764 5.2e-4,-0.02561 -0.17443,-0.14725 -0.38812,-0.270776 -0.44883,-0.259473 -1.07566,-0.734267 -1.77448,-1.341238 -0.26955,-0.23414 -0.57595,-0.497448 -0.68235,-0.586675 -0.1064,-0.08937 -0.19593,-0.179414 -0.19856,-0.198574 -0.008,-0.06165 0.53612,0.157879 1.121,0.451291 1.13946,0.571581 1.96138,0.757245 2.86841,0.646252 0.74624,-0.09131 1.29633,-0.390577 1.72213,-0.935079 0.34002,-0.434803 0.328,-0.510914 -0.047,-0.292431 -1.03875,0.605418 -2.35264,0.465376 -2.86299,-0.305076 -0.37247,-0.562283 -0.17735,-1.341691 0.43866,-1.752823 0.41432,-0.276498 1.13972,-0.409247 2.48029,-0.454896 1.40192,-0.04769 2.82128,-0.444737 3.70241,-1.034361 0.47014,-0.314678 1.15325,-0.994017 1.06685,-1.061441 -0.0158,-0.01238 -0.19209,0.06987 -0.39172,0.182317 -1.18839,0.669866 -2.37272,0.91701 -3.62659,0.754564 -0.37974,-0.04917 -1.01961,-0.226699 -0.98381,-0.272579 0.011,-0.01414 0.26131,-0.08586 0.55599,-0.15886 0.95064,-0.235414 1.61802,-0.587774 2.23119,-1.180575 0.55951,-0.540906 0.93866,-1.199312 1.34846,-2.339499 0.25212,-0.701475 0.5377,-1.740245 0.4892,-1.778092 -0.0161,-0.01257 -0.34658,0.394403 -0.73471,0.904393 -0.88207,1.158968 -1.17911,1.442055 -1.89542,1.803361 -0.23486,0.118461 -0.3944,0.165542 -0.69138,0.202179 -0.21291,0.02634 -0.3697,0.02745 -0.3484,0.0037 0.0212,-0.02403 0.17907,-0.107537 0.35021,-0.184128 0.67513,-0.302164 0.9178,-0.609282 1.68061,-2.13732 0.77844,-1.559647 1.04251,-1.865581 1.68422,-1.945972 0.49711,-0.0623 1.11531,0.191966 1.42608,0.586674 0.1,0.126973 0.19608,0.230627 0.21301,0.229259 0.0526,-0.0047 0.0234,-0.582848 -0.0415,-0.835796 -0.14896,-0.58049 -0.4162,-1.008833 -0.82676,-1.321376 -0.78938,-0.600908 -2.04349,-0.581166 -2.86481,0.04696 -0.44542,0.340603 -0.0585,-0.271248 0.60293,-0.95313 0.55464,-0.571701 0.60162,-0.626915 0.78525,-0.920641 0.34438,-0.550878 0.36785,-0.864466 0.15885,-2.214938 -0.20646,-1.334056 -0.17772,-1.632301 0.19857,-2.075939 0.20995,-0.247615 0.43605,-0.411363 0.72567,-0.523503 0.11282,-0.04362 0.20318,-0.09826 0.20038,-0.120947 -0.01,-0.07902 -0.45489,-0.253068 -0.75637,-0.296045 -0.54796,-0.0781 -1.1928,0.138933 -1.68783,0.56501 -0.13626,0.117306 -0.26455,0.208584 -0.28521,0.203991 -0.0657,-0.01461 0.14026,-0.64408 0.31771,-0.97118 0.25621,-0.472326 0.61328,-0.867996 1.02172,-1.131841 0.19522,-0.126177 0.40697,-0.235784 0.47115,-0.243696 0.22291,-0.02745 0.21996,-0.1281 -0.0108,-0.348403 -0.41995,-0.400541 -0.92023,-0.816073 -1.48385,-1.198628 1.71113,-0.661556 3.21517,-1.377358 3.73851,-4.2493693 -0.62983,0.409838 -2.31741,1.260782 -2.94423,1.5199513 -3.17994,1.732444 -5.02559,1.089279 -8.42653,1.184189 -1.46012,0.05721 -5.09042,0.599374 -6.28559,0.817746 -1.23592,0.225812 -1.32022,0.458204 -3.27638,0.935079 -0.0109,3.174175 7.46168,5.193644 6.1484,11.516966 -0.007,0.111039 0.002,0.227078 0.0127,0.342988 0.32249,0.03974 0.67691,0.07099 1.03977,0.09205 0.72573,0.04243 1.48749,0.04575 2.10122,0.0092 0.30686,-0.01858 0.57683,-0.0487 0.77983,-0.08484 0.20301,-0.03604 0.34893,-0.0981 0.33396,-0.08845 l 1.00187,-0.64444 -0.30688,1.151694 c -0.33313,1.254534 -0.97774,1.940824 -1.70768,2.288951 -0.41884,0.199729 -0.82255,0.272865 -1.23654,0.37187 0.39614,0.284465 0.73747,0.585575 1.25277,0.808715 0.81224,0.351722 1.67633,0.580613 2.1644,0.608339 l 0.78525,0.0451 -0.42241,0.664302 c -0.47894,0.754249 -1.26367,1.060147 -2.00554,1.187795 -0.43794,0.07542 -0.8071,0.08891 -1.20946,0.113728 0.16674,0.196377 0.26649,0.358776 0.46394,0.557831 0.40959,0.412879 0.81961,0.783132 1.05061,1.021726 l 0.38088,0.391714 -0.45129,0.310492 c -0.58002,0.397656 -1.24504,0.605132 -1.91889,0.685966 -0.67389,0.08031 -1.35912,0.03401 -1.97846,-0.07403 -0.61988,-0.108091 -1.17897,-0.281258 -1.62104,-0.481976 -0.22104,-0.100363 -0.41202,-0.207318 -0.57404,-0.326739 -0.16202,-0.119413 -0.30749,-0.239528 -0.39714,-0.465737 l 1.35387,-0.0487 c 0.35521,0.161281 0.85134,0.3182 1.3972,0.413387 0.88148,0.153712 1.83089,0.0561 2.63194,-0.263558 -0.1857,-0.177436 -0.30924,-0.293041 -0.52712,-0.51267 -0.43072,-0.434294 -0.86629,-0.898968 -1.11919,-1.368319 l -0.31591,-0.584871 0.65708,-0.09205 c 0.67554,-0.0953 1.4043,-0.08105 2.02359,-0.187732 0.29225,-0.05038 0.42986,-0.255674 0.65167,-0.364643 -0.4647,-0.119967 -0.88776,-0.165755 -1.38457,-0.380891 -0.88938,-0.385134 -1.75221,-0.885382 -2.30339,-1.512733 l -0.4549,-0.518085 0.65167,-0.223843 c 0.80303,-0.276101 1.53007,-0.35578 2.05969,-0.608339 0.35307,-0.168371 0.62835,-0.478862 0.87009,-0.924247 -0.16948,0.01987 -0.32448,0.04603 -0.51808,0.05777 -0.6623,0.03993 -1.45135,0.03567 -2.21133,-0.0092 -0.75998,-0.04417 -1.48443,-0.125438 -2.04165,-0.25633 -0.2786,-0.06544 -0.51335,-0.13628 -0.72206,-0.258142 -0.0398,-0.0232 -0.08,-0.04972 -0.11915,-0.07939 -0.28725,-0.145134 -0.60848,-0.435301 -0.80149,-0.84843 -1.38154,-2.036308 -0.99642,-4.501856 -3.81252,-7.276637 l -1.31236,-0.07939 c -0.25954,0.07413 -1.09082,0.451059 -1.3322,0.756366 -0.0349,-1.486308 -0.62069,-3.198733 -2.06692,-4.671769 -0.20977,-0.213667 -0.25529,-0.352775 -0.27258,-0.496421 -0.0173,-0.143656 0.0122,-0.312544 0.0506,-0.532533 0.0364,-0.20863 0.34105,-0.612979 0.70763,-1.03255 0.36658,-0.41957 0.81243,-0.8594 0.85565,-1.5109293 l -1.55245,0.9025823 c -0.36182,0.414127 -0.81035,0.84965 -0.92063,1.482047 -0.034,0.194849 -0.0977,0.469868 -0.0578,0.801497 0.0399,0.33162 0.20261,0.701993 0.52891,1.034361 1.4593,1.486447 1.89604,3.197319 1.79072,4.547217 -0.004,0.05139 -0.0106,0.101427 -0.0163,0.151632 -0.1451,-0.09679 -0.32722,-0.12432 -0.50364,-0.06137 -0.35557,0.127638 -0.37119,0.184018 -0.79969,0.375484 -0.42851,0.191356 -0.89507,0.464203 -1.19683,0.976596 -0.0286,0.06858 -0.0463,0.147298 -0.0559,0.220229 -0.002,0.01239 -0.0295,0.08651 -0.27438,0.274382 -0.19462,0.144163 -0.50911,0.339946 -0.96757,0.568632 -0.111,-0.05869 -0.19009,-0.1364 -0.25633,-0.232872 -0.14526,-0.21157 -0.22938,-0.586074 -0.22565,-1.077681 0.007,-0.983213 0.34361,-2.345145 0.50003,-3.559789 0.0928,-0.721134 0.0551,-1.255727 -0.1047,-1.686029 -0.15982,-0.430301 -0.44149,-0.722844 -0.70402,-0.945911 l -2.168,-1.382764 c 0.38211,1.238333 1.14192,1.722591 1.5705,2.086782 0.21429,0.182095 0.34564,0.322497 0.43504,0.563207 0.0894,0.24072 0.13718,0.614874 0.0559,1.24557 -0.14527,1.1282 -0.50013,2.497683 -0.50906,3.671707 -0.005,0.587053 0.0727,1.148893 0.38811,1.60841 0.0855,0.124495 0.19045,0.234139 0.31049,0.330344 -0.0318,0.195451 0.0324,0.405051 0.2094,0.545157 l 0.7004,0.49278 c 1.38086,2.011417 2.24855,2.872224 2.41352,4.395585 -0.13547,0.154404 -0.26469,0.324438 -0.38992,0.501838 -0.33255,0.47106 -0.6233,1.004378 -0.82496,1.48384 -0.10083,0.239731 -0.17934,0.464979 -0.22926,0.673332 -0.0499,0.208362 -0.093,0.387278 -0.0216,0.635419 0.24978,0.869059 0.83976,1.773536 1.3972,2.510992 0.27872,0.368728 0.54903,0.690754 0.77082,0.933267 0.0332,0.03623 0.063,0.06664 0.0939,0.09928 0.017,0.191291 0.0685,0.380105 0.14621,0.568633 0.0843,0.204566 0.19638,0.408556 0.31591,0.617371 0.30638,0.525231 0.71608,1.065305 1.13906,1.622848 0.42049,0.558854 0.8181,1.153532 1.13364,1.673384 0.15103,0.245452 0.26637,0.470487 0.34659,0.675134 0.0801,0.204656 0.12621,0.387952 0.14081,0.550583 l -0.29605,2.148142 c -0.0356,0.04612 -0.0727,0.09406 -0.1065,0.139007 -0.14034,0.186984 -0.26289,0.362147 -0.35743,0.539741 -0.0945,0.177594 -0.19372,0.358995 -0.14261,0.640835 0.0483,0.266516 0.1566,0.43032 0.29966,0.678739 0.14306,0.248428 0.32357,0.528456 0.51447,0.799695 0.19091,0.271238 0.38971,0.532218 0.57585,0.74192 0.0931,0.104856 0.18277,0.1963 0.2762,0.276193 0.0934,0.07986 0.16838,0.162805 0.37547,0.205792 0.0272,0.0055 0.0555,0.0084 0.083,0.0092 0.1929,0.0065 0.38629,-0.0931 0.48379,-0.193149 0.11142,-0.11432 0.16444,-0.226477 0.21301,-0.341177 0.0971,-0.229416 0.15815,-0.4857 0.21843,-0.754563 0.0603,-0.268864 0.11653,-0.545776 0.17329,-0.776219 0.0567,-0.230442 0.13116,-0.422482 0.14802,-0.449489 l 0.0271,-0.04335 0.0163,-0.0487 c 0.0918,-0.262439 0.26337,-0.544852 0.48018,-0.884531 0.51069,0.300306 1.06454,0.650531 1.62645,1.054213 0.67414,0.48242 1.17881,0.865187 1.59757,1.240154 0.41876,0.374976 0.75174,0.74155 1.08491,1.19322 0.0585,0.136151 0.11297,0.257912 0.16607,0.373664 9.3e-4,0.0028 0.003,0.0055 0.004,0.0092 0.11948,0.325992 0.14137,0.610909 0.18232,0.951411 0.0472,0.392865 0.12854,0.866661 0.4531,1.355698 0.33346,0.502438 0.83797,0.945023 1.37553,1.258204 0.26878,0.156595 0.54669,0.293549 0.83038,0.364642 0.14185,0.03549 0.28561,0.05472 0.42963,0.05231 z m 0.0758,-0.940494 c -0.1468,0.0084 -0.50435,-0.06128 -0.87009,-0.274381 -0.418,-0.24353 -0.84274,-0.628044 -1.07046,-0.971179 -0.0867,-0.130679 -0.14158,-0.249639 -0.18413,-0.368257 l -0.004,0.0037 c 0,0 -0.007,-0.03096 -0.009,-0.03974 -0.0188,-0.05665 -0.0323,-0.120577 -0.0451,-0.178712 -0.0636,-0.256635 -0.17253,-0.677695 -0.27258,-0.915216 -0.11198,-0.265703 -0.1855,-0.520776 -0.27439,-0.754564 l -0.0235,0.01082 c -0.0305,-0.12554 -0.0724,-0.26646 -0.20759,-0.449488 -0.19481,-0.263891 -0.38542,-0.493724 -0.58127,-0.705819 -0.19586,-0.212096 -0.39768,-0.405283 -0.61917,-0.597516 -0.443,-0.384459 -0.96227,-0.761709 -1.65534,-1.258195 -0.55424,-0.398184 -1.08932,-0.752457 -1.59577,-1.068669 0.0803,-0.130503 0.164,-0.270407 0.24911,-0.418794 0.27998,0.08161 0.59327,0.182963 0.94772,0.310491 0.80314,0.587898 2.03835,1.535444 2.86839,2.140908 0.45756,0.332646 0.71709,0.536719 0.92244,0.738316 0.11298,0.110937 0.21173,0.228279 0.31591,0.359227 l 0.004,0.0037 c 0.1062,0.0979 0.19424,0.215997 0.26716,0.348395 0.005,0.0055 0.007,0.0084 0.0108,0.01442 v 0.0018 h -0.002 c 0.2881,0.536109 0.33605,1.270645 0.36279,1.689679 0.19375,0.633811 0.67779,1.291652 1.72393,1.761844 0.25438,0.202049 0.34004,0.331527 0.37187,0.388109 -0.0393,0.02487 -0.0759,0.05277 -0.16789,0.0866 -0.12846,0.0476 -0.27317,0.08402 -0.41338,0.133581 -0.0118,0.0046 -0.0277,0.0074 -0.0487,0.0092 z m 3.75294,-1.153496 c -0.14526,0.0084 -0.50244,-0.06091 -0.86828,-0.27439 -0.41811,-0.243992 -0.84264,-0.629699 -1.07046,-0.972982 -0.29205,-0.440042 -0.43189,-0.724553 -0.57405,-1.054222 -0.2009,-0.262191 -0.49503,-1.036681 -0.8376,-1.570498 -1.02484,-1.002743 -2.03105,-1.489857 -3.74933,-2.337687 -1.49595,-0.740488 -2.92172,-1.3378 -3.91,-1.590359 l -0.0506,-0.0415 -0.30869,-0.07764 c -0.35802,0.798771 -0.81791,1.508712 -1.32138,2.202304 -0.14885,0.205007 -0.1718,0.357184 -0.21842,0.453102 -0.0897,0.184341 -0.10761,0.218058 -0.15706,0.420597 -0.11617,0.475478 -0.24612,1.455641 -0.35381,1.415252 -0.44436,-0.533632 -0.92009,-1.056035 -1.10476,-1.682415 0,0 0.0723,-0.151594 0.0939,-0.187732 0.0216,-0.03614 1.74018,-2.368382 1.74018,-2.368382 l 0.36646,-1.18419 -0.002,-0.0018 c -0.0133,-0.08161 -0.0328,-0.161809 -0.0559,-0.241894 -0.0343,-0.18618 -0.1059,-0.364948 -0.22385,-0.523493 -0.18151,-0.340012 -0.42134,-0.669385 -0.69138,-0.991042 -0.4741,-0.565268 -1.07118,-1.09306 -1.63007,-1.630065 -0.44424,-0.421272 -0.8526,-0.836729 -1.19321,-1.218489 0.0163,0.0028 0.0304,0.0047 0.047,0.0074 0.514,0.07357 1.1216,0.130105 1.74018,0.162463 0.26591,0.01395 0.53056,0.02301 0.79067,0.02893 0.51704,0.258687 0.92893,0.693277 1.28709,0.953119 0.0762,0.05721 0.8744,0.934626 0.98381,0.98021 1.26915,1.518985 2.42322,2.906353 4.11217,3.931675 0.86613,0.410272 1.79895,1.20408 3.04893,1.834046 0.59024,0.296295 0.93982,0.514205 1.22931,0.740118 1.15004,0.564521 1.36036,1.555719 1.34485,2.119269 0.0211,0.09801 0.0329,0.1891 0.0632,0.292441 0.18043,0.615483 0.67468,1.244543 1.64631,1.716713 0.22778,0.250545 0.3249,0.429387 0.3466,0.498224 -0.0154,-8.69e-4 -0.21582,0.09197 -0.47115,0.184129 -0.0115,0.0047 -0.028,0.0074 -0.0487,0.0092 z m -13.80412,-7.66836 0.0434,-0.548771 0.0163,-0.148017 c -0.008,-0.296129 -0.0869,-0.592027 -0.20579,-0.884532 -0.11894,-0.292505 -0.27967,-0.581906 -0.45491,-0.870094 -0.3191,-0.525278 -0.72768,-1.034334 -1.1192,-1.545229 0.005,0.0047 0.009,0.0096 0.0144,0.01442 0.55616,0.537911 1.09054,1.117682 1.51995,1.630065 0.41028,0.483215 0.6383,0.900004 0.71124,1.247372 l -0.40977,0.933276 -0.002,0.0018 c -0.0361,0.05601 -0.0746,0.112555 -0.11373,0.169683 z m 0.31772,-6.522072 c -0.25912,7.4e-5 -0.52801,-0.0055 -0.7997,-0.01987 -0.59433,-0.03106 -1.17761,-0.08688 -1.65534,-0.155246 -0.43893,-0.06285 -0.79603,-0.149682 -0.93327,-0.200377 -0.0181,-0.01202 -0.0462,-0.03143 -0.0722,-0.05591 -0.061,-0.05767 -0.14755,-0.145468 -0.2473,-0.254529 -0.19951,-0.218159 -0.4558,-0.521394 -0.71665,-0.86648 -0.51558,-0.682076 -1.04494,-1.544315 -1.23654,-2.187867 0.005,-0.0037 -9.2e-4,-0.08494 0.0235,-0.187742 0.0328,-0.137122 0.0957,-0.324882 0.18232,-0.530721 0.17315,-0.411677 0.43991,-0.901389 0.72748,-1.308741 0.28757,-0.407353 0.61827,-0.726781 0.79788,-0.815935 0.0898,-0.04454 0.11042,-0.03309 0.10651,-0.03429 -0.003,-8.41e-4 0.0336,0.04649 0.065,0.08845 9.3e-4,0.01904 0.003,0.02985 0.004,0.05776 0.003,0.101057 0.004,0.251479 0.002,0.427825 -0.003,0.352693 -0.0116,0.816516 -0.004,1.290691 0.008,0.474185 0.0326,0.95581 0.0993,1.371933 0.0334,0.208066 0.0758,0.39921 0.14623,0.577653 0.0704,0.178445 0.1646,0.365623 0.3845,0.496423 0.44492,0.26463 1.03663,0.436983 1.55606,0.566821 0.2597,0.06488 0.49775,0.11579 0.68054,0.14983 0.0914,0.01701 0.16766,0.02903 0.23106,0.0379 0.0317,0.0047 0.0587,0.0084 0.0884,0.01082 0.0298,0.0028 0.0173,0.02209 0.16246,-0.0074 h 0.002 c -0.0185,0.0037 0.31353,0.04251 0.66431,0.211209 0.35077,0.168703 0.75437,0.423351 1.08852,0.684155 0.25249,0.197086 0.38841,0.364883 0.50905,0.51267 -0.39133,0.08263 -1.07835,0.140596 -1.85571,0.140799 z m -1.3611,-2.64096 c -0.43053,-0.108414 -0.92339,-0.270665 -1.20766,-0.415189 -9.2e-4,-9.06e-4 -0.003,-8.87e-4 -0.004,-0.0018 -0.0267,-0.02505 -0.0519,-0.05407 -0.0776,-0.08124 -6.3e-4,-0.0018 -9.2e-4,-0.0018 -0.002,-0.0037 -0.0314,-0.07958 -0.067,-0.217041 -0.0939,-0.384496 -0.0537,-0.334928 -0.0789,-0.788622 -0.0866,-1.241956 -0.006,-0.358847 -0.002,-0.705476 0.002,-1.018121 l 0.0758,-0.0451 c 0.30088,-0.182345 0.72889,-0.198658 1.03796,-0.06683 0.30088,0.136761 0.51049,0.346019 0.7293,0.58307 l 0.009,0.0092 0.007,0.0074 c 0.15499,0.182321 0.28415,0.3285 0.39355,0.510844 0.10931,0.182345 0.20056,0.428888 0.18231,0.684165 -0.032,0.428813 -0.18145,0.663017 -0.87189,1.462185 -0.0331,0.0028 -0.062,4.98e-4 -0.0939,0.0018 z m 14.50813,-2.480297 -1.18051,-0.191347 c 1.23731,-1.542724 1.83756,-2.993753 1.91529,-4.074271 0.0777,-1.080509 -0.15937,-2.225603 -0.19135,-3.785435 -0.0778,-3.794456 0.0964,-4.702408 0.82677,-7.903026 l 1.18773,-0.213011 c -0.72841,3.192051 -0.9524,4.344206 -0.87551,8.096174 0.0301,1.470569 0.27947,2.619092 0.18955,3.870281 -0.09,1.251273 -0.55517,2.558776 -1.87197,4.200635 z m -14.13086,-4.014694 c -1.41254,-0.04815 -1.88296,-2.853232 -2.35574,-3.951513 -0.0484,-0.09187 -0.11796,-0.179526 -0.18954,-0.261756 0.30363,-0.534298 0.49989,-1.198414 0.5578,-1.940557 0.01,-0.126187 0.0147,-0.255868 0.0163,-0.386307 0.13801,0.02505 0.3801,0.01692 0.49462,0.111927 l 0.065,0.588485 0.5975,0.07218 c 0.2573,0.298485 0.36957,0.512707 0.47296,0.778031 0.56773,1.842687 2.71143,3.532829 1.00728,4.828826 -0.24294,0.118719 -0.46432,0.167537 -0.66611,0.160661 z m -5.02739,-1.458581 c -0.03,8.22e-4 -0.061,-0.0074 -0.0939,-0.02708 -0.64407,-0.379579 -0.68441,-1.004684 -0.94411,-1.505514 -2.8e-4,0.0055 0.0684,-0.496968 0.79428,-0.110116 0.29266,0.653378 0.0908,0.632776 0.60112,1.240145 -0.0741,0.133757 -0.19518,0.398119 -0.35742,0.402555 z"
     sodipodi:nodetypes="cscsscccccccccssccsscccccccccccccccccscccsscccccccccccsccscccccsccccccscccccsccccccccscccccccccccscccccccccccssccscccccccscccscccccccccccccscccccccccccccccccccsccccccccssccsccccccccccsssssccsscccccccccccccssccccccccccccccscccccccccccccccccccccssccccccccccccccccccccccccccccccccccccccccccccccccccccccsccsscccccccscccccccsscccccccccccccccccccccccsccccccccccccccccccccccccc" /></svg>
