<svg viewBox="0 0 60 60" xmlns="http://www.w3.org/2000/svg" xmlns:xlink="http://www.w3.org/1999/xlink"><linearGradient id="a" gradientUnits="userSpaceOnUse" spreadMethod="repeat" x1="148.578" x2="130.323" y1="49.826" y2="49.826"><stop offset="0" stop-color="#dfb459"/><stop offset=".041" stop-color="#dead54"/><stop offset=".082" stop-color="#e1b85f"/><stop offset=".165" stop-color="#dba84d"/><stop offset=".305" stop-color="#dfb765"/><stop offset=".539" stop-color="#d8a94e"/><stop offset=".586" stop-color="#d5ab53"/><stop offset=".84" stop-color="#e0bf6e"/><stop offset=".924" stop-color="#daae52"/><stop offset=".962" stop-color="#d9af57"/><stop offset="1" stop-color="#e1b663"/></linearGradient><linearGradient id="b" gradientUnits="userSpaceOnUse" spreadMethod="repeat" x1="-89.495" x2="-55.296" xlink:href="#l" y1="86.53" y2="86.53"/><linearGradient id="c" gradientUnits="userSpaceOnUse" spreadMethod="repeat" x1="781.821" x2="800.338" xlink:href="#l" y1="116.355" y2="116.355"/><linearGradient id="d" gradientUnits="userSpaceOnUse" x1="780.175" x2="790.378" xlink:href="#l" y1="138.561" y2="138.561"/><linearGradient id="e" gradientUnits="userSpaceOnUse" spreadMethod="repeat" x1="783.028" x2="802.729" xlink:href="#l" y1="132.601" y2="132.601"/><linearGradient id="f" gradientUnits="userSpaceOnUse" x1="772.069" x2="775.33" xlink:href="#l" y1="122.778" y2="122.778"/><linearGradient id="g" gradientUnits="userSpaceOnUse" x1="774.952" x2="780.945" xlink:href="#l" y1="124.22" y2="124.22"/><linearGradient id="h" gradientUnits="userSpaceOnUse" x1="788.776" x2="793.248" xlink:href="#l" y1="185.635" y2="185.635"/><linearGradient id="i" gradientUnits="userSpaceOnUse" x1="791.465" x2="796.89" xlink:href="#l" y1="191.648" y2="191.648"/><linearGradient id="j" gradientUnits="userSpaceOnUse" x1="792.212" x2="797.505" xlink:href="#l" y1="197.302" y2="197.302"/><linearGradient id="k" gradientUnits="userSpaceOnUse" x1="792.688" x2="797.134" xlink:href="#l" y1="204.616" y2="204.616"/><linearGradient id="l"><stop offset="0" stop-color="#e5c37b"/><stop offset=".042" stop-color="#e4bd76"/><stop offset=".093" stop-color="#e7c781"/><stop offset=".165" stop-color="#e2b86e"/><stop offset=".305" stop-color="#e6c686"/><stop offset=".539" stop-color="#dfb96f"/><stop offset=".586" stop-color="#ddbb73"/><stop offset=".84" stop-color="#e7ce8f"/><stop offset=".924" stop-color="#e1bd73"/><stop offset=".962" stop-color="#e0bf78"/><stop offset="1" stop-color="#e7c685"/></linearGradient><linearGradient id="m" gradientUnits="userSpaceOnUse" spreadMethod="repeat" x1="148.578" x2="130.323" xlink:href="#l" y1="49.826" y2="49.826"/><filter id="n"><feGaussianBlur in="SourceAlpha" result="blur" stdDeviation="2"/><feOffset dx="2" dy="2" result="offsetBlur"/><feBlend in="SourceGraphic" in2="offsetBlur"/></filter><g fill="url(#a)" filter="url(#n)" transform="matrix(.98185 0 0 .98185 -96.557 -23.219)"><path d="m148.702 29.817-.139.972.718.01zm.58.982h-40.192l6.41 44.002-.454-.121.578.98 13.14 3.935a.88.88 0 0 0 .27.022l13.41-4.26 6.836-44.558z" fill="#876419"/><path d="m-37.3-31.01-13.408 4.26-6.837 44.558h40.19l-6.535-44.862-13.138-3.935a.885.885 0 0 0 -.271-.021z" fill="url(#m)" transform="matrix(-1 0 0 -1 91.156 47.626)"/></g><path d="m29.567 53.989.303.943 13.431-4.162-.568-.964z" fill="#ac812a"/><g stroke="#f00"><g stroke-width="2.599"><path d="m27.288 37.823c-3.75-.283-2.12-.766-4.937-1.933l-3.854-1.963.446-2.893c-.372-3.61-1.97-6.006-3.947-8.892l-.919-.668c1.51-.705 2.026-1.13 2.102-1.563.485-.835 1.401-.946 2.261-1.26l-.677 3.316 4.03 4.738c-.516-2.85 1.046-3.338.533-6.173l-1.372-3.291 1.19-.344 1.566 2.336c.128 2.747.7 5.018 1.257 7.774 2.383-.463 2.925-2.027 5.357 1.43-1.17-2.588.154-4.856-.777-7.535-4.467-3.806-4.729-6.678-6.16-9.612 8.159-2.66 16.819 1.758 23.04-.572-.672.925-2.692 4.248-6.652 5.962 2.13.549 1.91 1.766 6.05.678-.956 1.458-5.775 6.909-7.126 5.56 2.112.15 3.798 1.47 6.351.406-2.94 3.662-5.012 3.274-7.421 4.283l3.045.146 3.084.15c-1.865 3.256-5.458 3.843-8.788 4.836 1.704.582 4.264.41 6.745.16-3.027 2.444-6.755 3.816-10.964 4.883" fill="#c80000" stroke="#c80000" stroke-linejoin="round" stroke-width="1.253"/><path d="m-109.935 84.098c-.65 1.03-.28 1.823-2.024 4.698.796.47 1.453.057 2.315-.895 1.333-1.58 1.355-1.793-.29-3.803z" fill="#fff" stroke="url(#b)" transform="matrix(.4821 0 0 -.4821 75.436 72.83)"/></g><path d="m765.516 125.462c-.231-1.976 5.474-5.258 5.857-7.812l-2-2.875 3.625 1.187c2.198-.363 8.69-3.318 11.166-5.762.405-.399.878-1.577.897-1.988 1.092 1.6 1.312 1.543 1.916 3.045-1.765 1.977-6.346 3.785-8.541 4.814-3.835 2.456-5.71 5.991-8.986 8.936z" fill="url(#c)" stroke="#c80000" transform="matrix(.83546 0 0 -.83546 -621.106 138.77)"/><path d="m24.443 34.369c1.236.87 2.55 3.813 3.73 5.087 1.175 1.267 1.676.476 3.476 1.387-.108.047-1.053-1.91-1.174-3.613-.07-.971.658-2 .632-2.172-.298-2.005-3.921-2.162-4.628-2.883" fill="#c80000" stroke="#c80000" stroke-width="1.253"/><path d="m18.425 19.078 1.628.849-1.661.708" fill="#c80000" stroke="#c80000" stroke-width=".835"/><g fill="none"><path d="m780.325 124.393c9.962 2.579 6.124 21.802 9.235 28.043.15.3.322.615.387 1.054" stroke="url(#d)" stroke-width="1.197" transform="matrix(.83546 0 0 -.83546 -621.106 138.77)"/><path d="m778.008 135.16c.56-.819 1.404-2.884 1.963-5.287" stroke="url(#e)" transform="matrix(.83546 0 0 -.83546 -621.106 138.77)"/><path d="m772.415 125.063c1.766-1.698 2.435-3.03 2.414-4.926" stroke="url(#f)" transform="matrix(.83546 0 0 -.83546 -621.106 138.77)"/><path d="m775.11 127.575c.32-.076 4.564-2.431 5.215-3.182-.947-1.51.094-2.669 0-3.978" stroke="url(#g)" transform="matrix(.83546 0 0 -.83546 -621.106 138.77)"/></g><path d="m21.616 17.459-1.628.85 1.661.707" fill="#c80000" stroke="#c80000" stroke-width=".835"/></g><g fill="none"><path d="m788.778 185.249c1.208-.004 3.012.144 4.22.84" stroke="url(#h)" transform="matrix(.83546 0 0 -.83546 -624.549 188.062)"/><path d="m791.518 191.083c2.838.3 3.641.495 5.17 1.17" stroke="url(#i)" transform="matrix(.83546 0 0 -.83546 -624.549 188.062)"/><path d="m792.225 196.828c1.054.026 2.295.058 5.126.972" stroke="url(#j)" transform="matrix(.83546 0 0 -.83546 -624.549 188.062)"/><path d="m792.755 204.252c1.62-.22 2.622.338 4.243.796" stroke="url(#k)" transform="matrix(.83546 0 0 -.83546 -624.549 188.062)"/></g></svg>