<svg version="0.92.3 (2405546, 2018-03-11)" id="svg2" x="0px" y="0px" viewBox="0 0 360 360" xmlns="http://www.w3.org/2000/svg">
<defs>

		</defs>
<g id="g3594">
</g>
<g>
	<g id="layer7">
		<g id="g4044" transform="translate(67.254185,82.3263)">

				<path id="path3985" fill="#5984BD" stroke="#000000" stroke-width="11.8327" stroke-linejoin="round" stroke-miterlimit="1.1953" d="M207.15,163.35l-1.29,30.8H44.95l-0.1-30.77C119.63,162.5,130.82,163.55,207.15,163.35z" />

				<ellipse id="path3989" fill="#5984BD" stroke="#000000" stroke-width="9.614" stroke-linecap="round" stroke-linejoin="round" stroke-miterlimit="1.1953" cx="39.77" cy="194.15" rx="28.88" ry="29.52" />

				<ellipse id="path3989-7" fill="#5984BD" stroke="#000000" stroke-width="9.614" stroke-linecap="round" stroke-linejoin="round" stroke-miterlimit="1.1953" cx="208.5" cy="193.24" rx="28.88" ry="29.52" />
		</g>

			<path id="path848" fill="#5984BD" stroke="#000000" stroke-width="0.148" stroke-miterlimit="1.1953" d="M105.04,245.75l-26.61-83.66l15.77-42.83l31.45-39.15l55.19-19.9l30.8-6.21l33.37,14.12l24.39,17.77l21.83,17.96l2.8,27.63    l-9.21,19.87l-28.24,17.97L105.04,245.75z" />
	</g>
	<g id="layer8">

			<path id="path3841" fill="none" stroke="#000000" stroke-width="11.0931" stroke-linecap="round" stroke-miterlimit="1.1953" d="M174.43,181.08c3.21,9.47,10.5,15.87,26.95,15.4c21.9-0.79,42.93-11.87,44.92-17.97c17.11-21.59,46.1-18.63,47.72-47.02" />
	</g>
	<g id="layer9">

			<path id="path3985-3" fill="#5984BD" stroke="#000000" stroke-width="11.0931" stroke-linecap="round" stroke-linejoin="round" stroke-miterlimit="1.1953" d="M172.93,102.79h21.17h37.96l41.07,142.29l-1.29,0.04H110.92 M135.71,164.79l1.46-1.83l10.34-31.57" />
	</g>
	<g id="layer4">

			<path id="path3839" fill="#5984BD" stroke="#000000" stroke-width="11.0931" stroke-linecap="round" stroke-linejoin="round" stroke-miterlimit="1.1953" d="M295.09,110.48C285.35,92,271.51,93.4,245.03,68.12c-4.66-3.24-19.55-14.02-33.37-14.12c-28.51,2.43-43.45,10.23-64.17,14.12     M147.47,68.12c-23.24,10.52-30.17,18.56-38.5,33.37c-13.85,17.67-18.66,25.11-25.67,47.49c-2.54,11.55-8.79,25.67-1.29,37.22    c3.15,27.12,19.04,45.13,20.54,61.61c-1.65,20.91-8.23,29.5-16.69,33.37l8.99,7.7c8.8-3.54,21.49-8.26,26.95-21.82    c5.78-12.21,7.85-28.09,0-53.91l12.13-41.67 M294.02,131.49c0.65-10.01,1.05-21,1.05-21" />
	</g>
	<g id="layer5">

			<path id="path3843" fill="#5984BD" stroke="#000000" stroke-width="8.8745" stroke-linecap="round" stroke-miterlimit="1.1953" d="M137.35,164.84c-22.26,30.7-51,34.9-89.99,35.49c35.98,21.6,96.48,5.15,103.97-12.84" />
	</g>
	<g id="layer6">
		<ellipse id="path824" cx="144.6" cy="107.5" rx="10.09" ry="9.63" />

			<path id="path3845" fill="none" stroke="#000000" stroke-width="12.8271" stroke-linecap="round" stroke-miterlimit="1.1953" d="M153.49,111.11c-15.48,0.99-9.88-2.23-9.88-2.23" />

			<path id="path2816-4" fill="none" stroke="#000000" stroke-width="11.0931" stroke-linecap="round" stroke-miterlimit="1.1953" d="M174.89,200.65c34.95-34.95,34.95-34.95,34.95-34.95" />

			<path id="path2816-4-4" fill="none" stroke="#000000" stroke-width="11.0931" stroke-linecap="round" stroke-miterlimit="1.1953" d="M211.19,199.29c-34.95-34.95-34.95-34.95-34.95-34.95" />
	</g>
</g>
</svg>
