<?xml version="1.0" encoding="UTF-8" standalone="no"?>
<svg
   xmlns:dc="http://purl.org/dc/elements/1.1/"
   xmlns:cc="http://creativecommons.org/ns#"
   xmlns:rdf="http://www.w3.org/1999/02/22-rdf-syntax-ns#"
   xmlns:svg="http://www.w3.org/2000/svg"
   xmlns="http://www.w3.org/2000/svg"
   xmlns:sodipodi="http://sodipodi.sourceforge.net/DTD/sodipodi-0.dtd"
   xmlns:inkscape="http://www.inkscape.org/namespaces/inkscape"
   width="177.17"
   height="177.17"
   shape-rendering="geometricPrecision"
   image-rendering="optimizeQuality"
   fill-rule="evenodd"
   clip-rule="evenodd"
   viewBox="0 0 50 50"
   version="1.1"
   id="svg6673"
   sodipodi:docname="BlackNuttyPawn.svg"
   inkscape:version="1.0.1 (3bc2e813f5, 2020-09-07)">
  <metadata
     id="metadata6679">
    <rdf:RDF>
      <cc:Work
         rdf:about="">
        <dc:format>image/svg+xml</dc:format>
        <dc:type
           rdf:resource="http://purl.org/dc/dcmitype/StillImage" />
        <dc:title></dc:title>
      </cc:Work>
    </rdf:RDF>
  </metadata>
  <defs
     id="defs6677" />
  <sodipodi:namedview
     pagecolor="#ffffff"
     bordercolor="#666666"
     borderopacity="1"
     objecttolerance="10"
     gridtolerance="10"
     guidetolerance="10"
     inkscape:pageopacity="0"
     inkscape:pageshadow="2"
     inkscape:window-width="3840"
     inkscape:window-height="2050"
     id="namedview6675"
     showgrid="false"
     inkscape:zoom="5.6894509"
     inkscape:cx="88.584999"
     inkscape:cy="88.584999"
     inkscape:window-x="-12"
     inkscape:window-y="-12"
     inkscape:window-maximized="1"
     inkscape:current-layer="svg6673" />
  <path
     d="m25 46.45h-13.394c-.66-1.651-.991-3.378-.991-5.182 0-3.056.864-5.8 2.599-8.238 1.736-2.43 3.971-4.166 6.697-5.207-1.168-.542-2.125-1.363-2.862-2.464-.737-1.101-1.101-2.345-1.101-3.734 0-1.736.576-3.243 1.736-4.513 1.152-1.278 2.574-2.02 4.267-2.21-1.346-1.01-2.02-2.345-2.02-3.996 0-1.389.491-2.582 1.482-3.573.982-.991 2.176-1.482 3.581-1.482 1.389 0 2.582.491 3.573 1.482.991.991 1.49 2.184 1.49 3.573 0 1.651-.669 2.989-2.02 3.996 1.693.195 3.116.931 4.267 2.21 1.16 1.27 1.736 2.777 1.736 4.513 0 1.389-.373 2.633-1.126 3.734-.753 1.101-1.71 1.922-2.862 2.464 2.726 1.041 4.961 2.777 6.697 5.207 1.736 2.438 2.599 5.182 2.599 8.238 0 1.786-.322 3.514-.965 5.182h-13.394"
     fill="#1f1a17"
     transform="matrix(1 0 0 .97324 0 1.243)"
     id="path6671"
     style="fill:#800000" />
</svg>
