<?xml version="1.0" encoding="UTF-8" standalone="no"?>
<svg
   xmlns:dc="http://purl.org/dc/elements/1.1/"
   xmlns:cc="http://creativecommons.org/ns#"
   xmlns:rdf="http://www.w3.org/1999/02/22-rdf-syntax-ns#"
   xmlns:svg="http://www.w3.org/2000/svg"
   xmlns="http://www.w3.org/2000/svg"
   xmlns:sodipodi="http://sodipodi.sourceforge.net/DTD/sodipodi-0.dtd"
   xmlns:inkscape="http://www.inkscape.org/namespaces/inkscape"
   width="177.17"
   height="177.17"
   shape-rendering="geometricPrecision"
   image-rendering="optimizeQuality"
   fill-rule="evenodd"
   clip-rule="evenodd"
   viewBox="0 0 50 50"
   version="1.1"
   id="svg8459"
   sodipodi:docname="BlackFibnif.svg"
   inkscape:version="1.0.1 (3bc2e813f5, 2020-09-07)">
  <metadata
     id="metadata8463">
    <rdf:RDF>
      <cc:Work
         rdf:about="">
        <dc:format>image/svg+xml</dc:format>
        <dc:type
           rdf:resource="http://purl.org/dc/dcmitype/StillImage" />
        <dc:title></dc:title>
      </cc:Work>
    </rdf:RDF>
  </metadata>
  <sodipodi:namedview
     pagecolor="#ffffff"
     bordercolor="#666666"
     borderopacity="1"
     objecttolerance="10"
     gridtolerance="10"
     guidetolerance="10"
     inkscape:pageopacity="0"
     inkscape:pageshadow="2"
     inkscape:window-width="3360"
     inkscape:window-height="1780"
     id="namedview8461"
     showgrid="false"
     inkscape:zoom="2.8447254"
     inkscape:cx="-90.89203"
     inkscape:cy="184.9327"
     inkscape:window-x="6708"
     inkscape:window-y="1085"
     inkscape:window-maximized="1"
     inkscape:current-layer="svg8459" />
  <defs
     id="defs8453">
    <linearGradient
       id="0"
       x1="21.253"
       y1="37.592"
       x2="77.64"
       y2="37.469"
       gradientUnits="userSpaceOnUse"
       gradientTransform="matrix(0.86073018,0,0,1,3.6207536,0)">
      <stop
         stop-color="#fff"
         id="stop8448" />
      <stop
         offset="1"
         stop-color="#fff"
         stop-opacity="0"
         id="stop8450" />
    </linearGradient>
  </defs>
  <path
     fill="#1f1a17"
     d="m 26.15467,9.395 c 2.237038,0.169 4.303651,0.838 6.216193,2.02 1.902214,1.168 3.527272,2.675 4.86829,4.513 0.939917,1.287 1.822166,2.845 2.65277,4.665 0.838352,1.812 1.501114,3.742 1.996894,5.774 0.568082,2.371 0.933032,4.851 1.078495,7.459 0.15321,2.599 0.226372,5.01 0.226372,7.23 v 5.402 H 39.870405 31.254496 16.934528 c -0.130831,0 -0.189361,-0.406 -0.182475,-1.211 0.0069,-0.813 0.05078,-1.465 0.138578,-1.964 0.05078,-0.398 0.18936,-0.957 0.4011,-1.685 0.218626,-0.728 0.568082,-1.609 1.071609,-2.65 0.225511,-0.533 0.765189,-1.304 1.618173,-2.32 0.859869,-1.016 1.836798,-2.201 2.951444,-3.539 0.641244,-0.762 1.137024,-1.719 1.501113,-2.879 0.364089,-1.151 0.517299,-2.201 0.458769,-3.15 -0.525045,0.5 -1.100874,0.906 -1.730067,1.219 -3.01686,1.253 -5.207418,3.073 -6.551018,5.452 -0.102427,0.152 -0.422618,0.821 -0.962296,2.02 -0.284041,0.627 -0.531931,1.058 -0.729039,1.287 -1.247361,-0.149954 -1.721001,-0.294005 -3.031491,-0.821 -0.597347,0.203 -1.129278,0.288 -1.603541,0.254 C 9.4909334,36.124 8.9151049,35.751 8.5553197,35.353 7.8262813,34.506 7.3597655,33.668 7.1342542,32.821 6.9156287,31.974 6.806316,31.068 6.806316,30.095 c 0,-1.389 0.7359243,-3.226 2.2224053,-5.512 1.7386747,-2.625 2.6596567,-4.631 2.7689687,-6 0,-0.593 0.05078,-1.262 0.15321,-2.01 0.08779,-0.517 0.262523,-1.01 0.531932,-1.49 0.18936,-0.33 0.313305,-0.559 0.371835,-0.677 0.06542,-0.127 0.182475,-0.313 0.357203,-0.559 0.123945,-0.203 0.233258,-0.356 0.321052,-0.457 0.08005,-0.11 0.189361,-0.254 0.321053,-0.44 0.15321,-0.212 0.349456,-0.457 0.597346,-0.745 -0.757442,-2.413 -1.063862,-4.902 -0.918399,-7.459 2.827499,1.168 5.207418,3.01 7.126846,5.529 0.473402,-1.871 1.399548,-3.387 2.776716,-4.538 1.137024,0.923 2.040791,2.151 2.7113,3.666"
     id="path8455"
     style="fill:#800000;stroke-width:0.927755"
     sodipodi:nodetypes="ccccccscccsccccccccccccccccsccccccccccccc" />
  <path
     fill="url(#0)"
     d="m 17.123889,17.786 c 0.313305,-0.186 0.466515,-0.279 0.466515,-0.279 0.429505,-0.195 0.561197,-0.559 0.407987,-1.092 -0.167843,-0.491 -0.495781,-0.66 -0.983815,-0.491 -1.675842,0.711 -2.835245,2.02 -3.47735,3.92 -0.101566,0.542 0.06542,0.914 0.510413,1.118 0.444137,0.161 0.743671,-0.017 0.89602,-0.55 0.117059,-0.279 0.197107,-0.466 0.254776,-0.542 0.160096,0.144 0.364089,0.245 0.619726,0.296 0.869337,0.161 1.377168,-0.279 1.515746,-1.338 0.0439,-0.364 -0.02927,-0.711 -0.21174,-1.041 m 9.051439,7.56 c 0.998447,-1.524 1.486481,-3.217 1.471848,-5.08 -0.05853,-0.55 -0.327938,-0.821 -0.809086,-0.821 -0.655876,0 -0.910652,0.279 -0.772936,0.838 0.0439,0.914 -0.02926,1.668 -0.233258,2.261 -0.327938,0.94 -0.692027,1.642 -1.08538,2.108 -0.218626,0.5 -0.08779,0.864 0.386468,1.092 0.451883,0.245 0.801339,0.119 1.042344,-0.398 m -5.57495,-12.11 c -0.06542,-0.593 -0.05078,-1.236 0.0439,-1.93 -0.852984,0.195 -1.654324,0.66 -2.411766,1.389 -0.451884,0.279 -0.561196,0.669 -0.321053,1.168 0.240144,0.508 0.575829,0.593 1.005333,0.246 0.298674,-0.186 0.575829,-0.356 0.823719,-0.508 0.24789,-0.161 0.531931,-0.279 0.859869,-0.364 m 20.011977,31.454 c -0.01463,0 0,-0.449 0.03615,-1.346 0.112755,-3.107 0.08177,-6.221 0.06542,-9.33 -0.01463,-2.21 -0.269408,-4.411 -0.765189,-6.613 -0.723013,-3.31 -1.828191,-6.485 -3.504893,-9.296 -2.267163,-3.845 -5.865016,-6.03 -9.714201,-6.976 0.108452,0.766 0.0284,1.54 0.06542,2.311 1.377168,0.542 2.682035,1.219 3.905993,2.032 3.650357,2.554 5.520724,7.275 6.194675,11.93 1.094849,6.154 0.389911,11.557 0.699774,17.289 h 3.016859 M 11.744325,30.139 c 0.407986,-0.339 0.451883,-0.728 0.123945,-1.194 -0.34257,-0.381 -0.714406,-0.415 -1.129278,-0.102 -0.8693373,0.66 -1.3332709,1.532 -1.3918005,2.608 0.014632,0.542 0.2986734,0.804 0.8383515,0.771 0.510413,-0.051 0.758303,-0.356 0.743671,-0.923 0.116198,-0.525 0.386467,-0.914 0.815972,-1.16"
     id="path8457"
     style="fill:#ffffff;stroke-width:0.927755"
     sodipodi:nodetypes="cccccccccccccscccccccccccccccccccccccccccccc" />
  <path
     style="fill:#ffffff;stroke:none;stroke-width:0.282215px;stroke-linecap:butt;stroke-linejoin:miter;stroke-opacity:1"
     d="m 14.484981,32.141686 -1.221112,3.117705 1.146374,0.555027 c 0.06789,0.03287 1.391988,-3.236608 1.342385,-3.236608 -0.464227,-0.253156 -0.740294,-0.245123 -1.267647,-0.436124 z"
     id="path8415"
     sodipodi:nodetypes="ccscc" />
  <path
     style="fill:#800000;fill-opacity:1;stroke:#800000;stroke-width:0.282215px;stroke-linecap:butt;stroke-linejoin:miter;stroke-opacity:1"
     d="m 13.735099,33.523279 -0.272818,0.595239 1.596693,0.793287 c 0,0 0.362632,-0.805687 0.313028,-0.793287 -0.0496,0.01239 -1.636903,-0.595239 -1.636903,-0.595239 z"
     id="path8417"
     sodipodi:nodetypes="ccccc" />
  <ellipse
     style="fill:none;fill-opacity:1;stroke:#ffffff;stroke-width:1.58633;stroke-linecap:square;stroke-linejoin:bevel"
     id="path8421"
     cx="17.074778"
     cy="18.839182"
     rx="4.9288702"
     ry="4.8631525" />
  <path
     style="fill:none;stroke:#ffffff;stroke-width:1.69329;stroke-linecap:butt;stroke-linejoin:miter;stroke-miterlimit:4;stroke-dasharray:none;stroke-opacity:1"
     d="m 21.880016,18.09818 c 4.376554,-0.982988 5.819367,-3.214824 7.521556,-5.858514"
     id="path8423"
     sodipodi:nodetypes="cc" />
  <path
     style="fill:#ffffff;stroke:#800000;stroke-width:1.69329;stroke-linecap:butt;stroke-linejoin:round;stroke-miterlimit:4;stroke-dasharray:none;stroke-opacity:1"
     d="m 22.471685,30.170386 2.525381,5.962706 2.665681,0.210451 3.1918,-7.050023 c 2.51623,4.453952 1.639665,11.023265 -0.385821,15.327662 -0.965818,-1.066458 -1.869477,-2.850393 -3.367177,-4.980615 l -2.595529,-0.07015 c -0.832358,1.363479 -1.891427,3.175558 -4.700016,4.700017 -0.775883,-5.05997 -0.348493,-10.490495 2.665681,-14.100048 z"
     id="path8425"
     sodipodi:nodetypes="ccccccccc" />
  <path
     style="fill:none;stroke:#ffffff;stroke-width:1.69329;stroke-linecap:butt;stroke-linejoin:miter;stroke-miterlimit:4;stroke-dasharray:none;stroke-opacity:1"
     d="m 30.940977,37.37096 c 3.167545,0.05851 6.632174,-1.620771 9.363143,-2.47268"
     id="path8429"
     sodipodi:nodetypes="cc" />
</svg>
