<?xml version="1.0" encoding="UTF-8" standalone="no"?>
<svg
   xmlns:dc="http://purl.org/dc/elements/1.1/"
   xmlns:cc="http://creativecommons.org/ns#"
   xmlns:rdf="http://www.w3.org/1999/02/22-rdf-syntax-ns#"
   xmlns:svg="http://www.w3.org/2000/svg"
   xmlns="http://www.w3.org/2000/svg"
   xmlns:sodipodi="http://sodipodi.sourceforge.net/DTD/sodipodi-0.dtd"
   xmlns:inkscape="http://www.inkscape.org/namespaces/inkscape"
   width="177.17"
   height="177.17"
   shape-rendering="geometricPrecision"
   image-rendering="optimizeQuality"
   fill-rule="evenodd"
   clip-rule="evenodd"
   viewBox="0 0 50 50"
   version="1.1"
   id="svg2766"
   sodipodi:docname="BlackChargingKnight.svg"
   inkscape:version="1.0.1 (3bc2e813f5, 2020-09-07)">
  <metadata
     id="metadata2770">
    <rdf:RDF>
      <cc:Work
         rdf:about="">
        <dc:format>image/svg+xml</dc:format>
        <dc:type
           rdf:resource="http://purl.org/dc/dcmitype/StillImage" />
        <dc:title></dc:title>
      </cc:Work>
    </rdf:RDF>
  </metadata>
  <sodipodi:namedview
     pagecolor="#ffffff"
     bordercolor="#666666"
     borderopacity="1"
     objecttolerance="10"
     gridtolerance="10"
     guidetolerance="10"
     inkscape:pageopacity="0"
     inkscape:pageshadow="2"
     inkscape:window-width="3360"
     inkscape:window-height="1780"
     id="namedview2768"
     showgrid="false"
     inkscape:zoom="1.4223627"
     inkscape:cx="446.38633"
     inkscape:cy="-29.675299"
     inkscape:window-x="6708"
     inkscape:window-y="1085"
     inkscape:window-maximized="1"
     inkscape:current-layer="svg2766" />
  <defs
     id="defs2760">
    <linearGradient
       id="0"
       x1="21.253"
       y1="37.592"
       x2="77.64"
       y2="37.469"
       gradientUnits="userSpaceOnUse">
      <stop
         stop-color="#fff"
         id="stop2755" />
      <stop
         offset="1"
         stop-color="#fff"
         stop-opacity="0"
         id="stop2757" />
    </linearGradient>
  </defs>
  <path
     fill="#1f1a17"
     d="m 22.510274,7.6960318 c 2.255515,0.146665 4.339199,0.72725 6.267539,1.753036 1.917926,1.0136372 3.556407,2.3214722 4.908502,3.9165612 0.947681,1.11691 1.837216,2.469004 2.674682,4.048473 0.845276,1.572525 1.513512,3.247456 2.013388,5.010907 0.572774,2.057648 0.940738,4.209891 1.087403,6.473217 0.154476,2.255515 0.228242,4.347877 0.228242,6.274481 v 4.688071 c 0,0 -1.11691,0 -3.350729,0 -2.226009,0 -5.121123,0 -8.687077,0 h -14.43825 c -0.131912,0 -0.190925,-0.352343 -0.183982,-1.050954 0.0069,-0.705554 0.0512,-1.271385 0.139722,-1.704437 0.0512,-0.345401 0.190925,-0.830523 0.404413,-1.46231 0.220432,-0.631788 0.572775,-1.396355 1.080461,-2.299776 0.227374,-0.462558 0.771509,-1.131663 1.631539,-2.013388 0.866972,-0.881725 1.85197,-1.910116 2.975822,-3.071285 0.646541,-0.661294 1.146417,-1.491817 1.513513,-2.498511 0.367096,-0.998884 0.521572,-1.910115 0.462559,-2.733695 -0.529383,0.43392 -1.109968,0.786263 -1.744358,1.057896 -3.041779,1.087404 -5.250431,2.666872 -6.605129,4.731463 -0.103273,0.131912 -0.426109,0.712496 -0.970245,1.753036 -0.286387,0.544136 -0.536325,0.918175 -0.73506,1.11691 -0.271634,0.271634 -0.669105,0.426109 -1.182866,0.455616 -0.8010156,0.03645 -1.4258603,-0.3454 -1.8736656,-1.168112 -0.6022808,0.176171 -1.1386058,0.249938 -1.6167856,0.220431 -0.8010161,-0.30114 -1.3816009,-0.624845 -1.7443579,-0.970245 -0.7350603,-0.73506 -1.2054295,-1.46231 -1.4328035,-2.19737 -0.2204313,-0.735061 -0.330647,-1.521323 -0.330647,-2.365732 0,-1.205429 0.742003,-2.799651 2.2407623,-4.783532 1.7530364,-2.27808 2.681625,-4.018967 2.7918407,-5.207039 0,-0.514629 0.051202,-1.095214 0.1544754,-1.744358 0.08852,-0.448673 0.2646912,-0.876518 0.536325,-1.293081 0.1909248,-0.286388 0.3158936,-0.485123 0.3749066,-0.587528 0.06596,-0.110216 0.183982,-0.271634 0.360154,-0.485122 0.124969,-0.176172 0.235184,-0.308951 0.323704,-0.396603 0.08071,-0.09546 0.190925,-0.220432 0.3237036,-0.38185 0.154476,-0.183982 0.352343,-0.396603 0.602281,-0.64654 C 9.9465574,8.0405638 9.6376064,5.8805108 9.7842714,3.6614448 c 2.8508536,1.013636 5.2504306,2.612197 7.1857126,4.798286 0.477312,-1.623728 1.411108,-2.939374 2.799652,-3.938257 1.146416,0.801016 2.057648,1.866723 2.733695,3.1815"
     id="path2762"
     style="fill:#800000;stroke-width:0.86784" />
  <path
     fill="url(#0)"
     d="m 13.404899,14.978075 c 0.315893,-0.161418 0.470369,-0.242127 0.470369,-0.242127 0.433052,-0.169229 0.565831,-0.485122 0.411356,-0.947681 -0.169229,-0.426109 -0.499876,-0.572774 -0.991941,-0.426109 -1.689684,0.617034 -2.858664,1.753036 -3.5060726,3.401932 -0.102405,0.470369 0.06596,0.793205 0.5146286,0.970245 0.447806,0.139722 0.749814,-0.01475 0.903421,-0.477312 0.118027,-0.242128 0.198736,-0.404414 0.256881,-0.470369 0.161418,0.124969 0.367096,0.21262 0.624845,0.25688 0.876518,0.139722 1.388543,-0.242127 1.528266,-1.161169 0.04426,-0.315894 -0.02951,-0.617035 -0.213489,-0.903422 M 9.8320024,29.52741 c 0.0512,-0.131912 0.146665,-0.323705 0.2794446,-0.580585 0.242127,-0.602281 0.360153,-0.962435 0.360153,-1.080461 -0.0217,-0.396603 -0.235184,-0.602281 -0.6248446,-0.602281 -0.286387,0 -0.617034,0.411356 -1.0066937,1.227126 -0.059013,0.118026 -0.1466649,0.220431 -0.2568806,0.30114 -0.3896601,0.404414 -0.330647,0.742003 0.1692288,1.013637 0.4625585,0.271634 0.8157695,0.183982 1.0804605,-0.279444 m 12.6964956,-7.98673 c 1.006694,-1.322588 1.498759,-2.79184 1.484006,-4.408626 -0.05901,-0.477312 -0.330647,-0.712496 -0.815769,-0.712496 -0.661294,0 -0.918175,0.242127 -0.77932,0.727249 0.04426,0.793206 -0.02951,1.447557 -0.235185,1.962186 -0.330647,0.815769 -0.697743,1.424993 -1.094346,1.829406 -0.220431,0.43392 -0.08852,0.749814 0.38966,0.947681 0.455616,0.212621 0.807959,0.103273 1.050954,-0.3454 m -5.620998,-10.50954 c -0.06596,-0.514629 -0.0512,-1.0726502 0.04426,-1.6749312 -0.86003,0.169229 -1.667988,0.572775 -2.431687,1.2054302 -0.455616,0.242127 -0.565832,0.580585 -0.323705,1.013637 0.242128,0.440862 0.580585,0.514629 1.013637,0.213488 0.301141,-0.161418 0.580585,-0.308951 0.830523,-0.440862 0.249938,-0.139722 0.536325,-0.242128 0.866972,-0.315894 m 20.177275,27.297033 c -0.01475,0 0,-0.38966 0.03645,-1.168112 0.113687,-2.696379 0.08244,-5.398832 0.06596,-8.096946 -0.01475,-1.917926 -0.271634,-3.828041 -0.771509,-5.739024 -0.728986,-2.87255 -1.843292,-5.627941 -3.533844,-8.067439 -2.28589,-3.336844 -5.91346,-5.233074 -9.79444,-6.0540502 0.109348,0.664765 0.02864,1.3364732 0.06596,2.0055772 1.388543,0.47037 2.704189,1.057897 3.938257,1.763451 3.680508,2.216463 5.566324,6.313534 6.245843,10.353329 1.103892,5.340686 0.393131,10.029624 0.705554,15.004082 h 3.041769 M 7.9809003,25.6985 C 8.3922564,25.404303 8.4365162,25.066713 8.1058692,24.6623 7.760469,24.331653 7.3855622,24.302146 6.9672634,24.57378 c -0.8765182,0.572774 -1.3442838,1.329531 -1.4032969,2.263326 0.014753,0.470369 0.3011404,0.697743 0.8452759,0.669105 0.514629,-0.04426 0.7645669,-0.308951 0.7498136,-0.801016 0.1171584,-0.455616 0.3896601,-0.793206 0.8227121,-1.006695"
     id="path2764"
     style="fill:#ffffff;stroke-width:0.86784" />
  <g
     id="g9682"
     style="fill:#00ffff;stroke-width:1.8921;stroke-miterlimit:4;stroke-dasharray:none"
     transform="matrix(0.89492646,0,0,0.89492646,5.426398,5.4855343)">
    <path
       id="path9675"
       style="fill:#800000;fill-opacity:1;stroke:#800000;stroke-width:1.8921;stroke-linecap:square;stroke-linejoin:round;stroke-miterlimit:4;stroke-dasharray:none;stroke-opacity:1"
       d="m 43.551586,38.26456 c 0.476854,2.898823 -1.417113,6.901923 -6.056494,8.523302 -3.161643,1.104937 -9.16592,-0.04229 -13.412753,-0.04229 -4.966457,0 -9.735242,0.794208 -13.11714,-0.669837 -3.7534916,-1.624911 -3.9215505,-3.937637 -3.9215505,-6.521494 -1e-6,-2.987553 0.4143039,-5.540035 5.2343415,-7.152796 1.245186,-0.416634 0.221375,-2.595501 1.665216,-2.862717 2.156194,-0.399055 8.176377,-0.167977 10.635165,-0.167977 5.003677,0 12.463567,-1.010539 14.780284,1.378326 4.89093,5.043245 3.647297,4.198537 4.192931,7.515481 z"
       sodipodi:nodetypes="sssssssssss" />
    <path
       style="fill:#ffffff;fill-opacity:1;stroke:#800000;stroke-width:1.8921;stroke-linecap:butt;stroke-linejoin:miter;stroke-miterlimit:4;stroke-dasharray:none;stroke-opacity:1"
       d="m 12.251983,27.531947 c -2.163509,-0.08714 -5.5363256,0.587497 -5.8035696,2.214071 -0.345543,2.103136 3.7519646,3.371308 6.3492036,4.165454 3.991492,1.220459 8.615205,0.185172 12.896825,0.525373 3.07928,0.244668 6.134629,1.524869 9.176587,1.088271 1.958609,-0.28111 3.39605,-1.584623 5.158732,-2.289122 1.778795,-0.710943 5.202391,-0.441585 5.456347,-1.951385 0.358638,-2.132149 -3.742019,-3.789538 -6.547618,-4.127927 -1.546358,-0.18651 -2.829399,1.08187 -4.365079,1.313431 -6.519334,0.983034 -13.550435,1.611401 -19.940475,0.22516 -0.908178,-0.197019 -1.437511,-1.125326 -2.380953,-1.163326 z"
       id="path9678"
       sodipodi:nodetypes="sssssssssss" />
  </g>
</svg>
