<?xml version="1.0" encoding="UTF-8" standalone="no"?>
<svg
   xmlns:dc="http://purl.org/dc/elements/1.1/"
   xmlns:cc="http://creativecommons.org/ns#"
   xmlns:rdf="http://www.w3.org/1999/02/22-rdf-syntax-ns#"
   xmlns:svg="http://www.w3.org/2000/svg"
   xmlns="http://www.w3.org/2000/svg"
   xmlns:sodipodi="http://sodipodi.sourceforge.net/DTD/sodipodi-0.dtd"
   xmlns:inkscape="http://www.inkscape.org/namespaces/inkscape"
   width="177.17"
   height="177.17"
   shape-rendering="geometricPrecision"
   image-rendering="optimizeQuality"
   fill-rule="evenodd"
   clip-rule="evenodd"
   viewBox="0 0 50 50"
   version="1.1"
   id="svg895"
   sodipodi:docname="BlackShortRook.svg"
   inkscape:version="1.0.1 (3bc2e813f5, 2020-09-07)">
  <metadata
     id="metadata899">
    <rdf:RDF>
      <cc:Work
         rdf:about="">
        <dc:format>image/svg+xml</dc:format>
        <dc:type
           rdf:resource="http://purl.org/dc/dcmitype/StillImage" />
        <dc:title></dc:title>
      </cc:Work>
    </rdf:RDF>
  </metadata>
  <sodipodi:namedview
     pagecolor="#ffffff"
     bordercolor="#666666"
     borderopacity="1"
     objecttolerance="10"
     gridtolerance="10"
     guidetolerance="10"
     inkscape:pageopacity="0"
     inkscape:pageshadow="2"
     inkscape:window-width="1918"
     inkscape:window-height="2037"
     id="namedview897"
     showgrid="false"
     inkscape:zoom="2.8447254"
     inkscape:cx="103.34574"
     inkscape:cy="101.66963"
     inkscape:window-x="1909"
     inkscape:window-y="0"
     inkscape:window-maximized="0"
     inkscape:current-layer="svg895" />
  <defs
     id="defs889">
    <linearGradient
       id="0"
       x1="21.19"
       y1="37.552"
       x2="77.74"
       y2="37.429"
       gradientUnits="userSpaceOnUse">
      <stop
         stop-color="#fff"
         id="stop884" />
      <stop
         offset="1"
         stop-color="#fff"
         stop-opacity="0"
         id="stop886" />
    </linearGradient>
  </defs>
  <path
     fill="#000080"
     d="m 28.408,15.271587 h 4.216 v -3.395 h 6.796 v 9.295 l -5.5,4.243 0,5.805413 4.22,4.221 v 5.08 h 3.789 V 46.45 H 8.07 v -5.929 h 3.794 v -5.08 l 4.246,-4.221 0,-5.805413 -5.508,-4.243 v -9.295 h 6.774 v 3.395 h 4.242 v -3.395 h 6.79 z"
     id="path891"
     sodipodi:nodetypes="ccccccccccccccccccccccccc" />
  <path
     fill="url(#0)"
     d="M 25.01,35.04 H 14.74 l -1.143,1.067 v 1.439 H 36.423 V 36.107 L 35.28,35.04 H 25.01 m -11.413,5.08 v 2.532 H 36.423 V 40.12 H 13.597 M 25.01,19.091587 h -12.7 v 1.143 l 1.812,1.363 h 21.802 l 1.761,-1.363 v -1.143 H 25.01 M 25.011,30.778 h -7.197 v 1.143 L 16.332,33.36 H 33.689 L 32.207,31.921 V 30.778 H 25.01"
     id="path893"
     sodipodi:nodetypes="ccccccccccccccccccccccccccccc"
     style="fill:#ffffff" />
</svg>
