<svg version="1.0.1 (3bc2e813f5, 2020-09-07)" id="svg2" x="0px" y="0px" viewBox="0 0 360 360" xmlns="http://www.w3.org/2000/svg">
<g>
	<g id="g3337-3">
		<g id="g4-6" transform="matrix(1,0,0,-1,0,2048)">
			<path id="path6-7" fill="#5984BD" d="M123.91,1940.73c0.69,4.5,10.35,12.2,22.98,20.1c12.63,7.9,24.97,15.42,37.77,24.07l15.01,18.38L214.4,1974     c39.44-19.83,64-50.66,74.44-78.97s7.17-46.97,2.21-88.25c-2.08-14.76-0.32-33.27,2.28-45.79s1.41-15.24,5.44-24.7l-195.32-1.88     c-1.04,20.53,1.59,32.66,7.12,46.9s11.58,20.81,27.15,33.95c8.99,1.84,20.5,10.44,24.77,16.78c4.27,6.34,9.69,15.37,11.77,18.83     c-27.21,4.84-62.62,4.23-65.52-8.88l-8.94-10.89l-18.77,11.17l12.01,12.31l-15.58,15.78l-15.1-8.5l-1.33,35.24l65.5,45.12     C184.72,1875,130.88,1880.7,123.91,1940.73L123.91,1940.73z" />
		</g>
	</g>
	<g id="g3337">
		<g id="g4" transform="matrix(1 0 0 -1 0 2048)">
			<path id="path6" d="M175.37,1857.94c3.57-1.96,6.69-4.38,9.34-7.26c2.42,1.73,4.53,2.51,6.31,2.34c1.79-0.17,3.72-0.09,5.79,0.26     c8.99,1.27,16.4,6.17,22.23,14.7c5.82,8.53,8.85,18.05,9.08,28.54l-3.29,11.59c-6.34-27.56-17.18-42.38-32.52-44.45     c-2.42-0.35-5.02-0.66-7.78-0.95C181.77,1862.41,178.71,1860.82,175.37,1857.94z M130.74,1935.6l-7.96,10.38     c0.69,4.5,7.35,10.7,19.98,18.59s25.34,16.17,38.14,24.82l19.89,26.64l16.61-37.54c39.44-19.83,64.37-43.91,74.81-72.22     c10.44-28.31,13.17-63.11,8.22-104.39c-2.08-14.76-1.82-28.4,0.78-40.91c2.59-12.51,5.91-23.5,9.95-32.95H96.32     c-1.04,20.53,1.21,37.91,6.75,52.15c5.54,14.24,16.09,27.94,31.65,41.08c8.99,1.85,15.63,5.94,19.89,12.28     c4.27,6.34,7.44,11.24,9.51,14.7c-27.21,4.84-44.05,1.38-50.51-10.38l-9.69-17.64l-37.54,20.93l19.89,14.18l-8.82,8.65     l-21.1-14.88l-2.08,51.37l68.5,45.49c1.38-2.08,2.71-3.86,3.98-5.36C128.03,1939.12,129.36,1937.45,130.74,1935.6l-63.31-41.69     l0.69-21.62l11.07,7.09l23.87-24.91l-13.49-11.24l8.13-4.84l6.66,7.78c0,0,6.26,4.21,18.77,12.63     c6.23,2.08,15.74,3.63,28.54,4.67s23.81-3.23,33.04-12.8c-6.46-7.26-11.7-14.9-15.74-22.92c-4.04-8.01-12.8-13.92-26.29-17.73     c-10.61-9.11-19.03-19.29-25.25-30.53s-8.99-24.13-8.3-38.66h176.26c-4.04,15.34-5.88,28.86-5.54,40.56s1.07,23.18,2.16,34.42     c1.1,11.24,1.61,23.06,1.56,35.46c-0.06,12.4-2.39,26.95-7.01,43.68c-5.88,14.53-13.61,28.02-23.18,40.48     c-9.57,12.45-24.68,23.29-45.32,32.52l-10.21,23.01l-8.48-11.94c-11.42-7.15-23.41-14.7-35.98-22.66     C140.83,1948.4,133.28,1941.48,130.74,1935.6z M181.25,1930.41l-36.67,0.35l20.06,17.3c3.46,2.88,8.07,0.66,13.84-6.66     C184.25,1934.07,185.17,1930.41,181.25,1930.41z M88.54,1896.68l6.4-5.36l-7.96-9.51l-9.86,4.5l5.71,9.69L88.54,1896.68z" />
		</g>
	</g>
	<ellipse id="path835" cx="126.39" cy="106.63" rx="4.41" ry="5.63" />
	<ellipse id="path837" cx="178.64" cy="193.03" rx="5.07" ry="3.85" />
</g>
</svg>
