<svg version="1.0.2-2 (e86c870879, 2021-01-15)" id="svg2" x="0px" y="0px" viewBox="0 0 360 360" xmlns="http://www.w3.org/2000/svg">
<defs>

		</defs>
<path fill="#5984BD" d="M130.09,112.31L104.66,92.5  l-1.96-45.49h33.75L136.94,70h32.77V47.01h34.73V70h33.75V47.01h33.26l-2.45,45l-26.9,20.3H130.09z" />
<path fill="#010101" d="M244.1,118.28H128.04L98.81,95.51l-2.08-48.25l5.97-6.23h33.75l5.98,5.85l0.36,17.14h20.94V47.01l5.98-5.98  h34.73l5.98,5.98v17.01h21.79V47.01l5.98-5.98h33.26l5.97,6.3l-2.6,47.77L244.1,118.28z M132.15,106.33H240.1l23.08-17.42  l1.95-35.92h-20.97V70l-5.98,5.98h-33.75L198.46,70V52.99h-22.77V70l-5.98,5.98h-32.77l-5.98-5.85l-0.36-17.14h-21.66l1.57,36.49  L132.15,106.33z" />
<path fill="#5984BD" d="M130.09,112.31l-2.73,27.81  c-2.75,8.63-5.59,14.45-9.26,16.57c-3.91,2.04,10.16,20.39,4.04,20.47c8.72,40.56,36.91,30.8,73.02,31.01  c34-0.08,54.09,5.55,64.56-35.85c-6.44-0.24,0.39-13.43-4.58-15.63c-5.3-2.2-4.04-8.8-7-17.96l-6.05-26.43H130.09z" />
<path fill="#010101" d="M163.74,215.02c-21.74,0-40.57-4.7-47.43-36.6c-0.34-1.58-0.02-3.22,0.86-4.55  c-0.57-1.42-1.42-3.25-2.02-4.52c-1.14-2.43-2.32-4.95-3.01-7.17c-2.13-6.82,1.25-9.69,3.02-10.68c0.88-0.53,3.15-2.82,6.33-12.6  l2.66-27.18c0.3-3.06,2.87-5.4,5.95-5.4H242.1c2.79,0,5.21,1.93,5.83,4.64l6,26.19c1.06,3.34,1.62,6.36,2.07,8.79  c0.36,1.95,0.86,4.62,1.35,5.18l0,0c0,0,0.04,0.02,0.1,0.05c0.04,0.02,0.08,0.04,0.13,0.05c6.22,2.76,5.66,9.72,5.33,13.88  c-0.05,0.61-0.11,1.38-0.14,2.06c0.68,0.4,1.28,0.93,1.76,1.57c1.08,1.44,1.45,3.3,1.01,5.05c-10.46,41.33-32.09,40.95-59.49,40.48  c-3.48-0.06-7.09-0.13-10.85-0.11c-6.11-0.03-11.99,0.22-17.66,0.47C172.86,214.82,168.24,215.02,163.74,215.02z M128.8,179.27  c6.62,25.21,21.71,24.56,48.21,23.4c5.82-0.25,11.84-0.52,18.2-0.48c3.85,0,7.5,0.05,11.04,0.12c25.95,0.45,38.43,0.67,46.58-27.35  c-2.46-3.2-2.12-7.4-1.84-10.81c0.06-0.79,0.16-1.94,0.16-2.79c-5.01-2.99-6.01-8.4-6.91-13.23c-0.44-2.38-0.9-4.84-1.77-7.56  c-0.05-0.16-0.1-0.33-0.14-0.5l-4.99-21.79H135.51l-2.2,22.42c-0.04,0.42-0.13,0.83-0.25,1.23c-2.83,8.88-5.66,14.46-9.12,17.79  c0.56,1.42,1.43,3.27,2.03,4.55C128.68,170.06,131.04,175.09,128.8,179.27z M122.08,171.19  C122.07,171.19,122.07,171.19,122.08,171.19C122.07,171.19,122.07,171.19,122.08,171.19z M120.88,161.99  C120.88,161.99,120.87,161.99,120.88,161.99C120.87,161.99,120.88,161.99,120.88,161.99z" />
<g>
	<path fill="#010101" d="M187.88,305.51c-9.4,0-17.05,7.96-17.05,17.74s7.65,17.74,17.05,17.74c9.4,0,17.05-7.96,17.05-17.74   S197.28,305.51,187.88,305.51z" />
	<path fill="#010101" d="M291.53,109.41c-9.4,0-17.05,7.96-17.05,17.74s7.65,17.74,17.05,17.74s17.05-7.96,17.05-17.74   S300.93,109.41,291.53,109.41z" />
	<path fill="#010101" d="M271.76,275.46c-9.4,0-17.05,7.96-17.05,17.74s7.65,17.74,17.05,17.74s17.05-7.96,17.05-17.74   S281.16,275.46,271.76,275.46z" />
	<path fill="#010101" d="M102.78,127.14c0-9.78-7.65-17.74-17.05-17.74s-17.05,7.96-17.05,17.74s7.65,17.74,17.05,17.74   S102.78,136.92,102.78,127.14z" />
	<path fill="#010101" d="M109.32,275.46c-9.4,0-17.05,7.96-17.05,17.74s7.65,17.74,17.05,17.74s17.05-7.96,17.05-17.74   S118.72,275.46,109.32,275.46z" />
</g>
<path fill="#5984BD" d="M266.32,179.93c-9.62-24.91-28.69-45.1-65.04-62.55l-13.35-26.17l-11.97,14.14  c-11.8,7.61-24.49,15.38-36.13,22.33c-11.64,6.95-26.82,14.6-27.46,18.56l1.88,0.49l-48.73,39.2l-4.33,27.18l14.07-6.24l14.49,13.97  l-10.51,11.01l16.99,9.61l9.42-10.63c5.95-10.35,33.7-11.92,58.78-7.66c-1.91,3.04-7.77,12.25-11.7,17.83  c-3.93,5.58-6.21,8.55-17.27,16.77c15.84,16.22,10.57,13.62,20.58,19.89c12.53,7.84,15.03,13.11,38.81,13.34  c25.36-3.59,33.11-9.36,50.45-18.09c18.5-13.67,17.73-10.07,26.05-23.23C275.17,222.81,275.94,204.84,266.32,179.93z" />
<g>
	<path fill="#010101" d="M272.68,175.04c-9.62-24.91-32.6-46.08-68.95-63.53l-15.3-33.02l-18.33,23.43   c-11.8,7.61-23.51,14.89-35.15,21.84c-11.64,6.95-17.78,12.4-18.41,16.36c0,0,0.07,0.11,0.17,0.24c-0.05-0.07-0.1-0.15-0.17-0.24   L53.4,180.14l1.91,45.2l19.45-13.09l8.13,7.61l-18.33,12.48l34.59,18.41l8.93-15.52c5.95-10.35,21.47-13.39,46.55-9.13   c-1.91,3.04-4.84,7.35-8.77,12.93c-3.93,5.58-8.66,10.5-19.72,18.73c15.84,16.22,17.41,19,27.43,25.27   c12.53,7.84,21.39,13.11,45.17,13.34c25.36-3.59,31.65-7.9,48-16.62c18.95-12.47,26.04-16.89,31.67-26.62   C282.25,226.26,282.3,199.95,272.68,175.04z M263.27,251.44c-14.09,14.76-29.8,28.11-63.47,34.37   c-27.57-1.2-38.86-9.47-56.64-27.07c11.76-8.14,12.75-11.15,16.42-15.59c5.94-7.19,8.07-12.79,14.02-19.18   c-0.93-0.92-0.89-0.92,0,0c2.23-1.52,4.17-2.21,5.82-2.05c1.65,0.15,3.43,0.08,5.34-0.23c8.29-1.12,15.12-5.43,20.49-12.93   c5.37-7.51,8.16-15.88,8.37-25.11l-3.03-10.2c-5.85,24.25-15.84,37.28-29.97,39.11c-2.23,0.3-4.62,0.58-7.17,0.84   c-2.5,0.25-5.27,1.61-8.28,4.06c1.51,0.87,1.46,0.98-0.16,0.13c0.06-0.05,0.11-0.08,0.16-0.13c-6.56-3.79-13.89-5.37-22.01-4.74   c-11.8,0.91-20.57,2.28-26.3,4.11l-23.43,17.96l-7.49-4.26l12.43-9.89l-22-21.91l-10.2,6.24l-0.64-19.02l58.35-36.67   c2.34-5.17,9.3-11.26,20.88-18.26c11.58-7,22.64-13.64,33.16-19.93l7.81-10.5l9.41,20.24c19.02,8.12,32.95,17.65,41.77,28.61   s15.94,22.83,21.36,35.61c4.25,14.71,6.4,27.52,6.46,38.42C264.76,234.34,264.28,241.55,263.27,251.44z" />
	<polygon fill="#010101" points="79.7,184.1 74.44,192.62 83.53,196.58 90.86,188.21 84.96,183.49" />
	<path fill="#010101" d="M155.11,138.29l-18.49,15.22l33.8,0.3c3.61,0,2.76-3.22-2.55-9.66S158.3,135.76,155.11,138.29z" />
</g>
</svg>
