<svg version="1.1" id="svg2" x="0px" y="0px" viewBox="0 0 360 360" xmlns="http://www.w3.org/2000/svg">
<g>
	<g id="g3594">
		<path id="path3839" fill="#5984BD" stroke="#000000" stroke-width="11.9005" stroke-linejoin="round" d="M151.27,292.25    c0,0,98.8,3.61,130.82,0c10.96-1.24,23.25-12.38,23.41-23.41c1.29-88.04,1.38-154.23,1.38-154.23    c-10.45-19.82-25.3-18.33-53.71-45.45c-4.99-3.47-20.97-15.04-35.81-15.15c-30.58,2.59-46.62,10.96-68.85,15.15    c-24.94,11.29-32.36,19.91-41.32,35.81c-14.87,18.96-20.02,26.95-27.54,50.95c-2.72,12.39-9.42,27.54-1.38,39.93    c3.39,29.09,20.42,48.42,22.03,66.09c-1.77,22.43-8.82,31.65-17.9,35.81l9.63,8.26c9.44-3.8,23.06-8.87,28.92-23.41    c6.18-13.09,8.43-30.13,0-57.84l10.1-52.49c4.9,27.64,8.88,56.25,16.76,69.7C150.18,263.22,144.81,278.35,151.27,292.25    L151.27,292.25L151.27,292.25z" />
		<path id="path3841" fill="none" stroke="#000000" stroke-width="9.5215" stroke-linecap="round" stroke-miterlimit="1.2" d="M177.44,190.34c3.44,10.16,11.26,17.03,28.92,16.53c23.5-0.84,46.06-12.74,48.2-19.28c18.36-23.15,47.84-17.73,49.57-48.2" />
		<path id="path3843" fill="#5984BD" stroke="#000000" stroke-width="9.5215" stroke-linecap="round" stroke-miterlimit="1.2" d="M138.63,175.35c-23.88,32.93-55.71,35-97.53,35.64c38.6,23.18,103.51,5.52,111.54-13.77" />
		<path id="path3845" fill="none" stroke="#000000" stroke-width="11.9005" stroke-linecap="round" stroke-miterlimit="1.2" d="M152.65,114.59c-13.65,0.97-8.71-2.19-8.71-2.19" />
	</g>
	<ellipse id="path824" cx="144.81" cy="111.09" rx="8.9" ry="9.39" />
	<ellipse id="path826" cx="133.97" cy="172.61" rx="9.9" ry="9.47" />
	<path id="path3892" fill="none" stroke="#000000" stroke-width="11.9005" stroke-linecap="round" stroke-miterlimit="1.2" d="M226.82,242.54l50.71,0.08" />
	<path id="path3892-1" fill="none" stroke="#000000" stroke-width="11.9005" stroke-linecap="round" stroke-miterlimit="1.2" d="M252.46,267.77l-0.41-49.25" />
</g>
</svg>
