<?xml version="1.0" encoding="UTF-8" standalone="no"?>
<svg
   xmlns:dc="http://purl.org/dc/elements/1.1/"
   xmlns:cc="http://creativecommons.org/ns#"
   xmlns:rdf="http://www.w3.org/1999/02/22-rdf-syntax-ns#"
   xmlns:svg="http://www.w3.org/2000/svg"
   xmlns="http://www.w3.org/2000/svg"
   xmlns:sodipodi="http://sodipodi.sourceforge.net/DTD/sodipodi-0.dtd"
   xmlns:inkscape="http://www.inkscape.org/namespaces/inkscape"
   width="177.17"
   height="177.17"
   shape-rendering="geometricPrecision"
   image-rendering="optimizeQuality"
   fill-rule="evenodd"
   clip-rule="evenodd"
   viewBox="0 0 50 50"
   version="1.1"
   id="svg7848"
   sodipodi:docname="WhiteFibnif.svg"
   inkscape:version="1.0.1 (3bc2e813f5, 2020-09-07)">
  <metadata
     id="metadata7852">
    <rdf:RDF>
      <cc:Work
         rdf:about="">
        <dc:format>image/svg+xml</dc:format>
        <dc:type
           rdf:resource="http://purl.org/dc/dcmitype/StillImage" />
        <dc:title></dc:title>
      </cc:Work>
    </rdf:RDF>
  </metadata>
  <sodipodi:namedview
     pagecolor="#ffffff"
     bordercolor="#666666"
     borderopacity="1"
     objecttolerance="10"
     gridtolerance="10"
     guidetolerance="10"
     inkscape:pageopacity="0"
     inkscape:pageshadow="2"
     inkscape:window-width="1918"
     inkscape:window-height="2037"
     id="namedview7850"
     showgrid="false"
     inkscape:zoom="2.8447254"
     inkscape:cx="-36.248457"
     inkscape:cy="261.16249"
     inkscape:window-x="1909"
     inkscape:window-y="0"
     inkscape:window-maximized="0"
     inkscape:current-layer="svg7848" />
  <defs
     id="defs7842">
    <linearGradient
       id="0"
       x1="21.405"
       x2="77.64"
       gradientUnits="userSpaceOnUse">
      <stop
         stop-color="#fff"
         id="stop7837" />
      <stop
         offset="1"
         stop-color="#fff"
         stop-opacity="0"
         id="stop7839" />
    </linearGradient>
  </defs>
  <path
     fill="#1f1a17"
     d="m 26.154666,9.395 c 2.237032,0.169 4.30364,0.838 6.216177,2.02 1.902209,1.168 3.527263,2.675 4.868277,4.513 0.939915,1.287 1.822161,2.845 2.652764,4.665 0.838349,1.812 1.501109,3.742 1.996889,5.774 0.56808,2.371 0.933029,4.851 1.078492,7.459 0.153209,2.599 0.226371,5.01 0.226371,7.23 v 5.402 h -3.32327 -8.615887 -14.31993 c -0.13083,0 -0.18936,-0.406 -0.182474,-1.211 0.0069,-0.813 0.05078,-1.465 0.138577,-1.964 0.05078,-0.398 0.18936,-0.957 0.401099,-1.685 0.218625,-0.728 0.568081,-1.609 1.071607,-2.65 0.22551,-0.533 0.765187,-1.304 1.618168,-2.32 0.859867,-1.016 1.836793,-2.201 2.951436,-3.539 0.641242,-0.762 1.137022,-1.719 1.501109,-2.879 0.364088,-1.151 0.517298,-2.201 0.458768,-3.15 -0.525044,0.5 -1.100871,0.906 -1.730063,1.219 -3.016851,1.253 -5.207404,3.073 -6.551,5.452 -0.102426,0.152 -0.422617,0.821 -0.962294,2.02 -0.28404,0.627 -0.531929,1.058 -0.729036,1.287 -1.542355,0.407672 -2.253976,-0.261209 -3.031484,-0.821 -0.597345,0.203 -1.129275,0.288 -1.603536,0.254 C 9.4909743,36.124 8.9151474,35.751 8.5553631,35.353 7.8263266,34.506 7.359812,33.668 7.1343013,32.821 6.9156764,31.974 6.806364,31.068 6.806364,30.095 c 0,-1.389 0.7359224,-3.226 2.2223994,-5.512 1.7386706,-2.625 2.6596496,-4.631 2.7689616,-6 0,-0.593 0.05078,-1.262 0.15321,-2.01 0.08779,-0.517 0.262522,-1.01 0.53193,-1.49 0.18936,-0.33 0.313305,-0.559 0.371834,-0.677 0.06541,-0.127 0.182474,-0.313 0.357202,-0.559 0.123945,-0.203 0.233257,-0.356 0.321052,-0.457 0.08005,-0.11 0.18936,-0.254 0.321051,-0.44 0.15321,-0.212 0.349456,-0.457 0.597345,-0.745 -0.75744,-2.413 -1.063859,-4.902 -0.918396,-7.459 2.827491,1.168 5.207403,3.01 7.126827,5.529 0.4734,-1.871 1.399543,-3.387 2.776708,-4.538 1.137021,0.923 2.040786,2.151 2.711293,3.666"
     id="path7844"
     style="fill:#000000;stroke-width:0.927754"
     sodipodi:nodetypes="ccccccscccsccccccccccccccccsccccccccccccc" />
  <path
     fill="url(#0)"
     d="m 40.611452,44.693 c -0.01463,0 0,-0.449 0.03615,-1.346 0.0439,-0.906 0.06541,-1.88 0.06541,-2.921 0.01463,-2.066 0.01463,-4.2 0,-6.409 -0.01463,-2.21 -0.269408,-4.411 -0.765187,-6.613 -0.488033,-2.117 -1.019962,-3.92 -1.603536,-5.419 -0.582713,-1.499 -1.217069,-2.786 -1.902209,-3.878 -1.019962,-1.786 -2.419506,-3.302 -4.183137,-4.538 -1.763632,-1.245 -3.607311,-2.057 -5.531038,-2.438 0.130831,0.813 0.18936,1.609 0.174728,2.388 -0.02926,0.593 -0.269408,0.889 -0.729037,0.889 -0.525044,0 -0.758301,-0.296 -0.706657,-0.889 0.0439,-2.184 -0.62661,-4.056 -2.003775,-5.605 -1.078492,1.321 -1.668951,2.853 -1.748999,4.606 -0.02926,0.584 -0.28404,0.838 -0.772073,0.771 -0.451882,-0.017 -0.677393,-0.322 -0.677393,-0.914 0,0 0.01463,-0.068 0.03615,-0.203 -0.582713,0.22 -1.195551,0.525 -1.836793,0.923 -0.407985,0.33 -0.743669,0.245 -0.998445,-0.246 -0.254775,-0.499 -0.145463,-0.889 0.34257,-1.168 0.611978,-0.364 1.071606,-0.635 1.384911,-0.821 -1.223948,-1.456 -2.616606,-2.625 -4.18313,-3.522 0.167842,2.303 0.714404,4.47 1.625054,6.528 0.240143,0.423 0.182474,0.804 -0.174728,1.135 -0.401099,0.364 -0.735922,0.313 -1.00533,-0.169 -0.09468,-0.169 -0.240143,-0.466 -0.422617,-0.897 -0.298673,0.347 -0.502666,0.61 -0.597346,0.77 -0.101566,0.152 -0.277154,0.483 -0.525044,0.991 -0.247889,0.516 -0.429503,0.94 -0.546562,1.27 -0.123945,0.415 -0.182474,0.745 -0.160095,1.01 0.02152,0.254 0.0439,0.533 0.05853,0.855 -0.13083,0.974 -0.422617,1.888 -0.869335,2.752 -0.451882,0.855 -1.019963,1.905 -1.719734,3.15 -0.670507,1.185 -1.180919,2.083 -1.5372603,2.675 -0.3572021,0.601 -0.6266099,1.355 -0.8090842,2.286 -0.1308307,0.559 -0.1308307,1.245 0,2.041 0.1239448,0.804 0.407985,1.431 0.8306024,1.88 0.6558747,0.77 1.2902311,1.126 1.9022091,1.067 0.197106,0 0.466514,-0.093 0.801337,-0.279 0.334823,-0.178 0.59046,-0.525 0.77982,-1.041 0.627149,-0.94 0.951105,-1.940121 1.006083,-2.361018 1.608371,0.430763 1.961193,0.658662 2.247741,0.88479 0.502665,-0.982 0.659045,-0.712772 1.227986,-1.330772 0.56808,-0.61 1.071606,-1.109 1.515742,-1.482 0.254775,-0.22 0.56808,-0.466 0.939915,-0.745 0.371834,-0.288 0.869335,-0.576 1.494223,-0.872 0.495779,-0.229 1.049228,-0.516 1.654319,-0.855 0.605092,-0.339 1.143908,-0.77 1.610422,-1.304 0.655875,-0.745 1.15854,-1.659 1.515742,-2.752 0.18936,-0.61 0.254775,-1.363 0.210878,-2.261 -0.123944,-0.559 0.117059,-0.838 0.729037,-0.838 0.458768,0 0.714404,0.271 0.772934,0.821 0,1.863 -0.458768,3.564 -1.370279,5.105 0.298672,1.058 0.37872,2.218 0.233257,3.471 -0.123945,1.01 -0.430364,2.091 -0.903764,3.243 -0.481147,1.143 -1.44258,2.422 -2.892907,3.827 -2.951436,2.845 -4.346676,5.774 -4.183137,8.78 h 3.636575 6.842787 11.681798 M 11.656566,29.615 c -0.415732,0.296 -0.662761,0.694 -0.750555,1.194 0.01463,0.542 -0.203992,0.838 -0.655875,0.889 -0.5026648,0.068 -0.758301,-0.178 -0.7729333,-0.745 0.05853,-1.092 0.4734003,-1.956 1.2609663,-2.599 0.371835,-0.347 0.714404,-0.322 1.027709,0.093 0.313305,0.449 0.277154,0.838 -0.109312,1.168 m 6.340121,-11.828 c 0.182475,0.33 0.254776,0.677 0.211739,1.041 -0.138577,1.058 -0.648988,1.499 -1.515741,1.338 -0.254776,-0.051 -0.458768,-0.152 -0.619724,-0.296 -0.05078,0.076 -0.138578,0.262 -0.254776,0.542 -0.153209,0.533 -0.451882,0.711 -0.896018,0.55 -0.437249,-0.203 -0.611977,-0.576 -0.510411,-1.118 0.641242,-1.905 1.799782,-3.209 3.47734,-3.92 0.488033,-0.169 0.809085,0 0.962294,0.491 0.174728,0.533 0.0439,0.898 -0.386467,1.092 -0.08005,0.051 -0.160095,0.102 -0.233257,0.136 -0.07316,0.042 -0.145463,0.093 -0.233257,0.144"
     id="path7846"
     style="fill:#80ffff;fill-opacity:1;stroke-width:0.927754"
     sodipodi:nodetypes="cccsccccccscccccccccccccccccccccccccccccccccccscccscccccccccccccccccccccccccccc" />
  <path
     style="fill:#ffffff;stroke:none;stroke-width:0.282215px;stroke-linecap:butt;stroke-linejoin:miter;stroke-opacity:1"
     d="m 14.105537,32.472572 -1.221112,3.117705 1.146374,0.555027 c 0.06789,0.03287 1.391989,-3.236608 1.342386,-3.236608 -0.464227,-0.253156 -0.740294,-0.245123 -1.267648,-0.436124 z"
     id="path8415"
     sodipodi:nodetypes="ccscc" />
  <path
     style="fill:#000000;stroke:none;stroke-width:0.282215px;stroke-linecap:butt;stroke-linejoin:miter;stroke-opacity:1"
     d="m 13.504465,33.556546 -0.421628,0.892858 1.596694,0.793287 c 0,0 0.455638,-0.966897 0.406034,-0.954497 -0.0496,0.01239 -1.5811,-0.731648 -1.5811,-0.731648 z"
     id="path8417"
     sodipodi:nodetypes="ccccc" />
  <ellipse
     style="fill:none;fill-opacity:1;stroke:#000000;stroke-width:1.58633;stroke-linecap:square;stroke-linejoin:bevel"
     id="path8421"
     cx="17.432146"
     cy="18.893135"
     rx="4.9288702"
     ry="4.863152" />
  <path
     style="fill:none;stroke:#000000;stroke-width:1.69329;stroke-linecap:butt;stroke-linejoin:miter;stroke-miterlimit:4;stroke-dasharray:none;stroke-opacity:1"
     d="m 22.237386,18.152135 c 4.376554,-0.982988 6.01778,-3.859665 8.067191,-6.453752"
     id="path8423"
     sodipodi:nodetypes="cc" />
  <path
     style="fill:#000000;stroke:#000000;stroke-width:1.69329;stroke-linecap:butt;stroke-linejoin:round;stroke-miterlimit:4;stroke-dasharray:none;stroke-opacity:1"
     d="m 22.693358,29.200678 2.525381,5.962705 2.665681,0.210451 2.946277,-5.962706 c 1.11324,4.489028 1.815039,8.953855 -0.210447,13.258252 l -3.297028,-3.998522 -2.595529,-0.07015 -4.840315,4.068672 c -0.775883,-5.05997 0.808973,-9.333028 2.80598,-13.468702 z"
     id="path8425"
     sodipodi:nodetypes="ccccccccc" />
  <path
     style="fill:none;stroke:#000000;stroke-width:1.69329;stroke-linecap:butt;stroke-linejoin:miter;stroke-miterlimit:4;stroke-dasharray:none;stroke-opacity:1"
     d="m 32.285042,35.87513 c 2.922021,0.09359 7.345099,-1.193855 9.48083,-2.541797"
     id="path8429"
     sodipodi:nodetypes="cc" />
</svg>
