<?xml version="1.0" encoding="UTF-8" standalone="no"?>
<svg
   xmlns:dc="http://purl.org/dc/elements/1.1/"
   xmlns:cc="http://creativecommons.org/ns#"
   xmlns:rdf="http://www.w3.org/1999/02/22-rdf-syntax-ns#"
   xmlns:svg="http://www.w3.org/2000/svg"
   xmlns="http://www.w3.org/2000/svg"
   xmlns:sodipodi="http://sodipodi.sourceforge.net/DTD/sodipodi-0.dtd"
   xmlns:inkscape="http://www.inkscape.org/namespaces/inkscape"
   width="177.17"
   height="177.17"
   shape-rendering="geometricPrecision"
   image-rendering="optimizeQuality"
   fill-rule="evenodd"
   clip-rule="evenodd"
   viewBox="0 0 50 50"
   version="1.1"
   id="svg10137"
   sodipodi:docname="WhiteWoodyRook.svg"
   inkscape:version="1.0.1 (3bc2e813f5, 2020-09-07)"
   inkscape:export-filename="D:\Pictures\Chess Variants\Chess\pieces\Shogun\WhiteMortar.png"
   inkscape:export-xdpi="198.53"
   inkscape:export-ydpi="198.53">
  <metadata
     id="metadata10141">
    <rdf:RDF>
      <cc:Work
         rdf:about="">
        <dc:format>image/svg+xml</dc:format>
        <dc:type
           rdf:resource="http://purl.org/dc/dcmitype/StillImage" />
        <dc:title></dc:title>
      </cc:Work>
    </rdf:RDF>
  </metadata>
  <sodipodi:namedview
     pagecolor="#ffffff"
     bordercolor="#666666"
     borderopacity="1"
     objecttolerance="10"
     gridtolerance="10"
     guidetolerance="10"
     inkscape:pageopacity="0"
     inkscape:pageshadow="2"
     inkscape:window-width="3360"
     inkscape:window-height="1780"
     id="namedview10139"
     showgrid="false"
     inkscape:zoom="5.3282158"
     inkscape:cx="61.078655"
     inkscape:cy="61.369678"
     inkscape:window-x="6708"
     inkscape:window-y="1085"
     inkscape:window-maximized="1"
     inkscape:current-layer="svg10137"
     inkscape:document-rotation="0" />
  <defs
     id="defs10131">
    <linearGradient
       id="0"
       x1="21.376"
       x2="77.64"
       gradientUnits="userSpaceOnUse"
       gradientTransform="translate(5.0935658,27.115748)">
      <stop
         stop-color="#fff"
         id="stop10126" />
      <stop
         offset="1"
         stop-color="#fff"
         stop-opacity="0"
         id="stop10128" />
    </linearGradient>
  </defs>
  <g
     id="g10710"
     transform="matrix(0.88963841,-0.16235103,0.16235103,0.88963841,-4.0197626,6.8524838)">
    <path
       sodipodi:nodetypes="cccsssc"
       inkscape:connector-curvature="0"
       id="path10688"
       d="m 20.598979,27.528386 -5.320088,-4.238309 9.423666,-11.909955 11.401835,7.009808 c 3.377366,2.076393 5.245889,8.165002 3.071121,11.01109 -2.01284,2.634176 -6.336052,4.927633 -9.812605,2.996215 z"
       style="fill:#ffff80;fill-opacity:1;stroke:#000000;stroke-width:1.87242;stroke-linecap:butt;stroke-linejoin:miter;stroke-miterlimit:4;stroke-dasharray:none;stroke-opacity:1" />
    <path
       sodipodi:nodetypes="ccsccsc"
       inkscape:connector-curvature="0"
       id="path10690"
       d="M 12.658898,22.245762 22.82839,9.5868642 c 0,0 1.215432,-0.7616529 1.747881,-0.4766949 0.639924,0.342477 0.688559,2.0656777 0.688559,2.0656777 l -10.169491,12.76483 c 0,0 -1.726503,0.81767 -2.330509,0.317797 -0.517574,-0.428342 -0.105932,-2.012712 -0.105932,-2.012712 z"
       style="fill:#ffff80;fill-opacity:1;stroke:#000000;stroke-width:1.56035;stroke-linecap:butt;stroke-linejoin:miter;stroke-miterlimit:4;stroke-dasharray:none;stroke-opacity:1" />
  </g>
  <path
     style="fill:#ffff80;fill-opacity:1;stroke:#000000;stroke-width:1.69329;stroke-linecap:butt;stroke-linejoin:round;stroke-miterlimit:4;stroke-dasharray:none;stroke-opacity:1"
     d="m 16.938415,33.741618 2.202811,-8.650492 c 0.995427,-3.909066 11.466536,-3.745608 12.470169,0 l 2.339932,8.732741 v 3.958562 H 16.880875 Z"
     id="path10686"
     inkscape:connector-curvature="0"
     sodipodi:nodetypes="csscccc" />
  <path
     d="m 28.849283,36.335748 h 4.216 v -3.395 h 6.796 v 9.295 l -5.5,4.243 h -17.81 l -5.508,-4.243 v -9.295 h 6.774 v 3.395 h 4.242 v -3.395 h 6.79 z"
     id="path10133"
     inkscape:connector-curvature="0"
     style="fill:#000000"
     sodipodi:nodetypes="ccccccccccccccc" />
  <path
     d="m 33.511283,44.793748 3.15,-2.557 h -22.42 l 3.175,2.557 h 16.1 m 4.64,-4.237 v -5.927 h -3.395 v 3.395 h -7.645 v -3.395 h -3.344 v 3.395 h -7.62 v -3.395 h -3.395 v 5.927 h 25.4"
     id="path10135"
     inkscape:connector-curvature="0"
     style="fill:#ffff80;fill-opacity:1"
     sodipodi:nodetypes="cccccccccccccccccc" />
</svg>
