<?xml version="1.0" encoding="UTF-8" standalone="no"?>
<svg
   xmlns:dc="http://purl.org/dc/elements/1.1/"
   xmlns:cc="http://creativecommons.org/ns#"
   xmlns:rdf="http://www.w3.org/1999/02/22-rdf-syntax-ns#"
   xmlns:svg="http://www.w3.org/2000/svg"
   xmlns="http://www.w3.org/2000/svg"
   xmlns:sodipodi="http://sodipodi.sourceforge.net/DTD/sodipodi-0.dtd"
   xmlns:inkscape="http://www.inkscape.org/namespaces/inkscape"
   width="177.17"
   height="177.17"
   shape-rendering="geometricPrecision"
   image-rendering="optimizeQuality"
   fill-rule="evenodd"
   clip-rule="evenodd"
   viewBox="0 0 50 50"
   version="1.1"
   id="svg9695"
   sodipodi:docname="WhiteChargingKnight.svg"
   inkscape:version="1.0.1 (3bc2e813f5, 2020-09-07)">
  <metadata
     id="metadata9699">
    <rdf:RDF>
      <cc:Work
         rdf:about="">
        <dc:format>image/svg+xml</dc:format>
        <dc:type
           rdf:resource="http://purl.org/dc/dcmitype/StillImage" />
        <dc:title></dc:title>
      </cc:Work>
    </rdf:RDF>
  </metadata>
  <sodipodi:namedview
     pagecolor="#ffffff"
     bordercolor="#666666"
     borderopacity="1"
     objecttolerance="10"
     gridtolerance="10"
     guidetolerance="10"
     inkscape:pageopacity="0"
     inkscape:pageshadow="2"
     inkscape:window-width="3360"
     inkscape:window-height="1780"
     id="namedview9697"
     showgrid="false"
     inkscape:zoom="2.8447254"
     inkscape:cx="5.0905814"
     inkscape:cy="104.27251"
     inkscape:window-x="6708"
     inkscape:window-y="1085"
     inkscape:window-maximized="1"
     inkscape:current-layer="svg9695"
     inkscape:document-rotation="0" />
  <defs
     id="defs9689" />
  <path
     fill="#1f1a17"
     d="m 22.276484,6.4684127 c 2.255515,0.169 4.339199,0.838 6.267539,2.02 1.917926,1.168 3.556407,2.6750003 4.908502,4.5130003 0.947681,1.287 1.837216,2.845 2.674682,4.665 0.845276,1.812 1.513512,3.742 2.013388,5.774 0.572774,2.371 0.940738,4.851 1.087403,7.459 0.154476,2.599 0.228242,5.01 0.228242,7.23 v 5.402 c 0,0 -1.11691,0 -3.350729,0 -2.226009,0 -5.121123,0 -8.687077,0 h -14.43825 c -0.131912,0 -0.190925,-0.406 -0.183982,-1.211 0.0069,-0.813 0.0512,-1.465 0.139722,-1.964 0.0512,-0.398 0.190925,-0.957 0.404413,-1.685 0.220432,-0.728 0.572775,-1.609 1.080461,-2.65 0.227374,-0.533 0.771509,-1.304 1.631539,-2.32 0.866972,-1.016 1.85197,-2.201 2.975822,-3.539 0.646541,-0.762 1.146417,-1.719 1.513513,-2.879 0.367096,-1.151 0.521572,-2.201 0.462559,-3.15 -0.529383,0.5 -1.109968,0.906 -1.744358,1.219 -3.041779,1.253 -5.250431,3.073 -6.605129,5.452 -0.103273,0.152 -0.426109,0.821 -0.970245,2.02 -0.286387,0.627 -0.536325,1.058 -0.735061,1.287 -0.271634,0.313 -0.669105,0.491 -1.1828657,0.525 -0.8010156,0.042 -1.4258596,-0.398 -1.8736656,-1.346 -0.60228,0.203 -1.138605,0.288 -1.616785,0.254 -0.8010162,-0.347 -1.381601,-0.72 -1.744358,-1.118 -0.7350603,-0.847 -1.2054295,-1.685 -1.4328035,-2.532 -0.2204313,-0.847 -0.330647,-1.753 -0.330647,-2.726 0,-1.389 0.742003,-3.226 2.2407623,-5.512 1.7530362,-2.625 2.6816252,-4.631 2.7918402,-6 0,-0.593 0.0512,-1.262 0.154476,-2.01 0.08852,-0.517 0.264691,-1.01 0.536325,-1.49 0.190925,-0.33 0.315894,-0.559 0.374907,-0.677 0.06596,-0.127 0.183982,-0.313 0.360153,-0.559 0.1249686,-0.203 0.2351836,-0.356 0.3237036,-0.457 0.08071,-0.11 0.190925,-0.254 0.323704,-0.44 0.1544767,-0.2120003 0.3523427,-0.4570003 0.6022807,-0.7450003 -0.7636987,-2.413 -1.0726497,-4.902 -0.9259847,-7.459 2.8508547,1.168 5.2504317,3.01 7.1857137,5.529 0.477312,-1.871 1.411108,-3.387 2.799652,-4.538 1.146416,0.923 2.057648,2.151 2.733695,3.666"
     id="path9691"
     style="fill:#000000;stroke-width:0.931579" />
  <path
     fill="url(#0)"
     d="m 36.951927,41.766413 c -0.01475,0 0,-0.449 0.03645,-1.346 0.04426,-0.906 0.06596,-1.88 0.06596,-2.921 0.01475,-2.066 0.01475,-4.2 0,-6.409 -0.01475,-2.21 -0.271634,-4.411 -0.77151,-6.613 -0.492065,-2.117 -1.02839,-3.92 -1.616785,-5.419 -0.587528,-1.499 -1.227126,-2.786 -1.917926,-3.878 -1.02839,-1.786 -2.439498,-3.302 -4.217701,-4.538 -1.778204,-1.2450003 -3.637117,-2.0570003 -5.576739,-2.4380003 0.131912,0.813 0.190925,1.609 0.176171,2.3880003 -0.02951,0.593 -0.271633,0.889 -0.73506,0.889 -0.529382,0 -0.764567,-0.296 -0.712496,-0.889 0.04426,-2.1840003 -0.631788,-4.0560003 -2.020331,-5.6050003 -1.087404,1.321 -1.682742,2.853 -1.763451,4.606 -0.02951,0.5840003 -0.286387,0.8380003 -0.778452,0.7710003 -0.455616,-0.017 -0.68299,-0.322 -0.68299,-0.9140003 0,0 0.01475,-0.068 0.03645,-0.203 -0.587527,0.22 -1.205429,0.525 -1.85197,0.9230003 -0.411356,0.33 -0.749813,0.245 -1.006694,-0.2460003 -0.256881,-0.499 -0.146665,-0.889 0.3454,-1.168 0.617034,-0.364 1.080461,-0.635 1.396354,-0.821 -1.234068,-1.456 -2.638233,-2.625 -4.217701,-3.522 0.169229,2.303 0.720307,4.47 1.638482,6.5280003 0.242127,0.423 0.183982,0.804 -0.176172,1.135 -0.404413,0.364 -0.742003,0.313 -1.013637,-0.169 -0.09546,-0.169 -0.242127,-0.466 -0.426109,-0.897 -0.301142,0.347 -0.50682,0.61 -0.602282,0.77 -0.102404,0.152 -0.279444,0.483 -0.529381,0.991 -0.2499383,0.516 -0.4330523,0.94 -0.5510783,1.27 -0.1249686,0.415 -0.1839816,0.745 -0.1614186,1.01 0.0217,0.254 0.04426,0.533 0.05901,0.855 -0.131911,0.974 -0.426108,1.888 -0.876517,2.752 -0.455616,0.855 -1.02839,1.905 -1.733944,3.15 -0.6760474,1.185 -1.1906763,2.083 -1.549962,2.675 -0.3601535,0.601 -0.6317874,1.355 -0.8157694,2.286 -0.1319117,0.559 -0.1319117,1.245 0,2.041 0.1249689,0.804 0.411356,1.431 0.8374654,1.88 0.6612939,0.77 1.300892,1.126 1.917926,1.067 0.198735,0 0.470369,-0.093 0.807959,-0.279 0.337589,-0.178 0.595338,-0.525 0.786263,-1.041 0.367096,-0.94 0.6760456,-1.414 0.9259836,-1.414 0.3523433,0 0.5510773,0.237 0.5805843,0.694 0,0.102 -0.118026,0.517 -0.3453993,1.245 -0.131912,0.33 -0.301141,0.677 -0.514629,1.041 -0.2794436,0.432 -0.3966026,0.61 -0.3670956,0.542 0.227374,0.948 0.6100906,1.109 1.1386039,0.499 0.154477,-0.178 0.337591,-0.525 0.536325,-1.016 0.205678,-0.499 0.521573,-1.168 0.947682,-2.01 0.506819,-0.982 1.043144,-1.77 1.616786,-2.388 0.572774,-0.61 1.08046,-1.109 1.528266,-1.482 0.25688,-0.22 0.572774,-0.466 0.947681,-0.745 0.374907,-0.288 0.876518,-0.576 1.50657,-0.872 0.499875,-0.229 1.057896,-0.516 1.667988,-0.855 0.610091,-0.339 1.153359,-0.77 1.623728,-1.304 0.661294,-0.745 1.168112,-1.659 1.528266,-2.752 0.190925,-0.61 0.256881,-1.363 0.212621,-2.261 -0.124969,-0.559 0.118026,-0.838 0.73506,-0.838 0.462559,0 0.720307,0.271 0.77932,0.821 0,1.863 -0.462558,3.564 -1.381601,5.105 0.301141,1.058 0.38185,2.218 0.235185,3.471 -0.124969,1.01 -0.43392,2.091 -0.911232,3.243 -0.485122,1.143 -1.4545,2.422 -2.91681,3.827 -2.975822,2.845 -4.382591,5.774 -4.217701,8.78 0,0 1.219315,0 3.666623,0 2.446441,0 4.747084,0 6.899327,0 h 11.778318 m -29.1923939,-15.08 c -0.419167,0.296 -0.668237,0.694 -0.756757,1.194 0.01475,0.542 -0.205678,0.838 -0.661294,0.889 -0.5068179,0.068 -0.7645663,-0.178 -0.7793196,-0.745 0.059013,-1.092 0.4773119,-1.956 1.2713856,-2.599 0.374907,-0.347 0.720307,-0.322 1.0362,0.093 0.315894,0.449 0.279445,0.838 -0.110215,1.168 m 6.3925069,-11.828 c 0.183982,0.33 0.256881,0.677 0.213489,1.041 -0.139722,1.058 -0.654351,1.499 -1.528266,1.338 -0.256881,-0.051 -0.462559,-0.152 -0.624845,-0.296 -0.0512,0.076 -0.139722,0.262 -0.25688,0.542 -0.154476,0.533 -0.455616,0.711 -0.903423,0.55 -0.440862,-0.203 -0.617034,-0.576 -0.514629,-1.118 0.646542,-1.905 1.814654,-3.209 3.506074,-3.92 0.492065,-0.169 0.81577,0 0.970245,0.491 0.176172,0.533 0.04426,0.898 -0.38966,1.092 -0.08071,0.051 -0.161418,0.102 -0.235185,0.136 -0.07377,0.042 -0.146665,0.093 -0.235184,0.144"
     id="path9693"
     style="fill:#80ffff;fill-opacity:1;stroke-width:0.931579" />
  <g
     id="g9682"
     style="fill:#00ffff;stroke-width:1.8921;stroke-miterlimit:4;stroke-dasharray:none"
     transform="matrix(0.89492646,0,0,0.89492646,5.6601889,5.4854391)">
    <path
       id="path9675"
       style="fill:#80ffff;fill-opacity:1;stroke:#000000;stroke-width:1.8921;stroke-linecap:square;stroke-linejoin:round;stroke-miterlimit:4;stroke-dasharray:none"
       d="m 43.551586,38.26456 c 0.476854,2.898823 -1.417113,6.901923 -6.056494,8.523302 -3.161643,1.104937 -9.16592,-0.04229 -13.412753,-0.04229 -4.966457,0 -9.735242,0.794208 -13.11714,-0.669837 -3.7534916,-1.624911 -3.9215505,-3.937637 -3.9215505,-6.521494 -1e-6,-2.987553 0.4143039,-5.540035 5.2343415,-7.152796 1.245186,-0.416634 0.221375,-2.595501 1.665216,-2.862717 2.156194,-0.399055 8.176377,-0.167977 10.635165,-0.167977 5.003677,0 12.463567,-1.010539 14.780284,1.378326 4.89093,5.043245 3.647297,4.198537 4.192931,7.515481 z"
       sodipodi:nodetypes="sssssssssss" />
    <path
       style="fill:#80ffff;fill-opacity:1;stroke:#000000;stroke-width:1.8921;stroke-linecap:butt;stroke-linejoin:miter;stroke-miterlimit:4;stroke-dasharray:none;stroke-opacity:1"
       d="m 12.251983,27.531947 c -2.163509,-0.08714 -5.5363256,0.587497 -5.8035696,2.214071 -0.345543,2.103136 3.7519646,3.371308 6.3492036,4.165454 3.991492,1.220459 8.615205,0.185172 12.896825,0.525373 3.07928,0.244668 6.134629,1.524869 9.176587,1.088271 1.958609,-0.28111 3.39605,-1.584623 5.158732,-2.289122 1.778795,-0.710943 5.202391,-0.441585 5.456347,-1.951385 0.358638,-2.132149 -3.742019,-3.789538 -6.547618,-4.127927 -1.546358,-0.18651 -2.829399,1.08187 -4.365079,1.313431 -6.519334,0.983034 -13.550435,1.611401 -19.940475,0.22516 -0.908178,-0.197019 -1.437511,-1.125326 -2.380953,-1.163326 z"
       id="path9678"
       sodipodi:nodetypes="sssssssssss" />
  </g>
</svg>
