<?xml version="1.0" encoding="UTF-8" standalone="no"?>
<svg
   xmlns:dc="http://purl.org/dc/elements/1.1/"
   xmlns:cc="http://creativecommons.org/ns#"
   xmlns:rdf="http://www.w3.org/1999/02/22-rdf-syntax-ns#"
   xmlns:svg="http://www.w3.org/2000/svg"
   xmlns="http://www.w3.org/2000/svg"
   xmlns:sodipodi="http://sodipodi.sourceforge.net/DTD/sodipodi-0.dtd"
   xmlns:inkscape="http://www.inkscape.org/namespaces/inkscape"
   width="177.17"
   height="177.17"
   shape-rendering="geometricPrecision"
   image-rendering="optimizeQuality"
   fill-rule="evenodd"
   clip-rule="evenodd"
   viewBox="0 0 50 50"
   version="1.1"
   id="svg861"
   sodipodi:docname="WhiteShortRook.svg"
   inkscape:version="1.0.1 (3bc2e813f5, 2020-09-07)">
  <metadata
     id="metadata865">
    <rdf:RDF>
      <cc:Work
         rdf:about="">
        <dc:format>image/svg+xml</dc:format>
        <dc:type
           rdf:resource="http://purl.org/dc/dcmitype/StillImage" />
        <dc:title></dc:title>
      </cc:Work>
    </rdf:RDF>
  </metadata>
  <sodipodi:namedview
     pagecolor="#ffffff"
     bordercolor="#666666"
     borderopacity="1"
     objecttolerance="10"
     gridtolerance="10"
     guidetolerance="10"
     inkscape:pageopacity="0"
     inkscape:pageshadow="2"
     inkscape:window-width="1650"
     inkscape:window-height="1393"
     id="namedview863"
     showgrid="false"
     inkscape:zoom="2.4637354"
     inkscape:cx="40.278587"
     inkscape:cy="156.6533"
     inkscape:window-x="0"
     inkscape:window-y="0"
     inkscape:window-maximized="0"
     inkscape:current-layer="svg861" />
  <defs
     id="defs855">
    <linearGradient
       id="0"
       x1="21.376"
       x2="77.64"
       gradientUnits="userSpaceOnUse">
      <stop
         stop-color="#fff"
         id="stop850" />
      <stop
         offset="1"
         stop-color="#fff"
         stop-opacity="0"
         id="stop852" />
    </linearGradient>
    <linearGradient
       id="0-7"
       x1="21.190001"
       y1="37.551998"
       x2="77.739998"
       y2="37.429001"
       gradientUnits="userSpaceOnUse"
       gradientTransform="translate(-36.987106,-0.70167688)">
      <stop
         stop-color="#fff"
         id="stop884" />
      <stop
         offset="1"
         stop-color="#fff"
         stop-opacity="0"
         id="stop886" />
    </linearGradient>
    <linearGradient
       id="0-5"
       x1="21.190001"
       y1="37.551998"
       x2="77.739998"
       y2="37.429001"
       gradientUnits="userSpaceOnUse"
       gradientTransform="translate(-38.748106,-0.477423)">
      <stop
         stop-color="#fff"
         id="stop884-3" />
      <stop
         offset="1"
         stop-color="#fff"
         stop-opacity="0"
         id="stop886-8" />
    </linearGradient>
  </defs>
  <path
     fill="#1f1a17"
     d="m 28.408,14.775556 h 4.216 v -3.395 h 6.796 v 9.295 l -5.5,4.243 0,6.301444 4.22,4.221 v 5.08 h 3.789 V 46.45 H 8.07 v -5.929 h 3.794 v -5.08 l 4.246,-4.221 0,-6.301444 -5.508,-4.243 v -9.295 h 6.774 v 3.395 h 4.242 v -3.395 h 6.79 z"
     id="path857"
     sodipodi:nodetypes="ccccccccccccccccccccccccc"
     style="fill:#000000" />
  <path
     fill="url(#0)"
     d="m 33.07,23.233556 3.15,-2.557 H 13.8 l 3.175,2.557 h 16.1 M 40.272,42.206 H 9.758 v 2.557 h 30.514 v -2.557 m -3.844,-5.05 H 13.602 v 3.37 h 22.826 v -3.37 M 32.212,24.923556 H 17.819 l 0,6.306444 h 14.393 l 0,-6.306444 m 5.503,-5.927 v -5.927 H 34.32 v 3.395 h -7.645 v -3.395 h -3.344 v 3.395 h -7.62 v -3.395 h -3.395 v 5.927 h 25.4 M 35.803,35.441 33.255,32.909 H 16.804 l -2.599,2.532 h 21.598"
     id="path859"
     style="fill:#ffff80;fill-opacity:1"
     sodipodi:nodetypes="cccccccccccccccccccccccccccccccccccccc" />
  <path
     fill="url(#0)"
     d="m -11.977106,34.338324 h -10.27 l -1.143,1.067 v 1.438999 h 22.82599999 v -1.438999 l -1.14299999,-1.067 h -10.27 m -11.413,5.079999 v 2.532 h 22.82599999 v -2.532 H -23.390106 m 11.413,-23.310159 h -12.7 v 1.143 l 1.812,1.363 h 21.802 l 1.76099999,-1.363 v -1.143 H -11.977106 m 0,4.191 h -8.678 l 1.482,1.168 v 1.414 h 14.393 v -1.414 l 1.482,-1.168 h -8.678 m 0,9.777159 h -7.197 v 1.143 l -1.482,1.439001 h 17.357 l -1.482,-1.439001 v -1.143 h -7.197"
     id="path893"
     sodipodi:nodetypes="ccccccccccccccccccccccccccccccccccccc"
     style="fill:url(#0-7);stroke-width:1" />
</svg>
