<svg version="0.92.3 (2405546, 2018-03-11)" id="svg2" x="0px" y="0px" viewBox="0 0 360 360" xmlns="http://www.w3.org/2000/svg">
<defs>

		</defs>
<g id="g4044">

		<path id="path3985" fill="#FFFFFF" stroke="#000000" stroke-width="16.0909" stroke-linejoin="round" stroke-miterlimit="1.1953" d="M139.42,43.01h90.76l55.85,205.96l-1.75,41.89H83.56l-1.75-45.38L139.42,43.01L139.42,43.01z" />
	<path id="path3987" fill="none" stroke="#000000" stroke-width="16.0909" stroke-miterlimit="1.1953" d="M80.07,248.97h204.22" />

		<path id="path3989" cx="542.37286" cy="1674.8474" rx="195.25424" ry="199.59322" fill="#FFFFFF" stroke="#000000" stroke-width="13.0739" stroke-linecap="round" stroke-linejoin="round" stroke-miterlimit="1.1953" d="M114.98,290.86c0,22.17-17.58,40.15-39.27,40.15s-39.27-17.97-39.27-40.15s17.58-40.15,39.27-40.15S114.98,268.69,114.98,290.86   L114.98,290.86z" />

		<path id="path3989-7" cx="542.37286" cy="1674.8474" rx="195.25424" ry="199.59322" fill="#FFFFFF" stroke="#000000" stroke-width="13.0739" stroke-linecap="round" stroke-linejoin="round" stroke-miterlimit="1.1953" d="M323.56,290.86c0,22.17-17.58,40.15-39.27,40.15s-39.27-17.97-39.27-40.15s17.58-40.15,39.27-40.15   C305.98,250.71,323.56,268.69,323.56,290.86L323.56,290.86z" />
</g>
<path id="path3892" fill="none" stroke="#000000" stroke-width="15.0852" stroke-linecap="round" stroke-miterlimit="1.1953" d="M151.84,163.18l64.8,0.22" />
<path id="path3892-1" fill="none" stroke="#000000" stroke-width="15.0852" stroke-linecap="round" stroke-miterlimit="1.1953" d="M184.13,195.47v-64.58" />
</svg>
