<?xml version="1.0" encoding="UTF-8" standalone="no"?>
<svg
   xmlns:dc="http://purl.org/dc/elements/1.1/"
   xmlns:cc="http://creativecommons.org/ns#"
   xmlns:rdf="http://www.w3.org/1999/02/22-rdf-syntax-ns#"
   xmlns:svg="http://www.w3.org/2000/svg"
   xmlns="http://www.w3.org/2000/svg"
   width="45"
   height="45"
   viewBox="0 0 45 45"
   version="1.1"
   id="svg4837">
  <defs
     id="defs4831" />
  <metadata
     id="metadata4834">
    <rdf:RDF>
      <cc:Work
         rdf:about="">
        <dc:format>image/svg+xml</dc:format>
        <dc:type
           rdf:resource="http://purl.org/dc/dcmitype/StillImage" />
        <dc:title></dc:title>
      </cc:Work>
    </rdf:RDF>
  </metadata>
  <g
     id="g11265"
     transform="matrix(1.0612913,0,0,1.0612913,-15.5615,-604.19784)"
     style="opacity:1">
    <rect
       ry="6.1945195"
       rx="6.581677"
       y="578.11938"
       x="23.364588"
       height="24.877172"
       width="24.877171"
       id="rect11253"
       style="fill:#2ea96e;fill-opacity:1;stroke:#000000;stroke-width:0.319257;stroke-miterlimit:4;stroke-dasharray:none;stroke-opacity:1;stop-color:#000000" />
    <g
       id="g11261"
       transform="matrix(0.9654038,0,0,1.0750654,193.5373,210.68038)"
       style="stroke-width:0.294476;stroke-miterlimit:4;stroke-dasharray:none">
      <path
         style="fill:none;fill-opacity:1;stroke:#000000;stroke-width:0.294476;stroke-miterlimit:4;stroke-dasharray:none;stroke-opacity:1;stop-color:#000000"
         d="m -176.766,345.48214 2.81391,0.72 1.20706,2.61933 2.69091,0.16224 0.96105,2.22058 h 2.30652 l 0.76883,2.69358 -0.96106,2.86635 h -2.49871 l -1.15324,2.18427 h -2.88314 l -0.96104,2.18426 -2.30651,0.39715"
         id="path11255" />
      <path
         id="path11257"
         d="m -149.8823,345.3528 -2.62572,0.54081 -1.39145,2.08661 -2.57525,0.46814 -1.08288,2.44096 h -2.26668 l -0.68635,2.9091 0.87525,2.71865 h 2.45556 l 1.13334,2.21091 h 2.83336 l 0.94445,2.2109 2.26668,0.40199"
         style="fill:none;fill-opacity:1;stroke:#000000;stroke-width:0.294476;stroke-miterlimit:4;stroke-dasharray:none;stroke-opacity:1;stop-color:#000000" />
      <path
         style="fill:none;fill-opacity:1;stroke:#000000;stroke-width:0.294476;stroke-miterlimit:4;stroke-dasharray:none;stroke-opacity:1;stop-color:#000000"
         d="m -166.10644,353.97624 5.57098,-0.19207"
         id="path11259" />
    </g>
    <path
       d="m 28.36457,574.76066 c -4.630814,0 -8.358663,3.50882 -8.358663,7.86722 v 15.86 c 0,4.35843 3.727849,7.86723 8.358663,7.86723 h 14.877127 c 4.630817,0 8.358663,-3.5088 8.358663,-7.86723 v -15.86 c 0,-4.3584 -3.727846,-7.86722 -8.358663,-7.86722 z m 1.581815,3.35846 h 11.713498 c 3.646246,0 6.582026,2.7632 6.582026,6.19495 v 12.48812 c 0,3.43178 -2.93578,6.19448 -6.582026,6.19448 H 29.946385 c -3.64625,0 -6.582027,-2.7627 -6.582027,-6.19448 v -12.48812 c 0,-3.43175 2.935777,-6.19495 6.582027,-6.19495 z"
       style="fill:#2ea96e;fill-opacity:1;stroke:#000000;stroke-width:0.7;stroke-miterlimit:4;stroke-dasharray:none;stroke-opacity:1;stop-color:#000000"
       id="path11263" />
  </g>
</svg>
