<svg height="45" viewBox="0 0 45 45" width="45" xmlns="http://www.w3.org/2000/svg"><g transform="matrix(1.0612913 0 0 1.0612913 -16.128802 -559.94827)"><g stroke="#000"><rect fill="#2ea96e" height="24.877172" rx="6.581677" ry="6.19452" stroke-width=".319257" width="24.877171" x="23.899126" y="536.42529"/><path d="m29.556805 562.75021c-2.253509-.46661-2.508189-1.60739-2.680059-2.77611v-1.63689c-.24843-1.77166 2.56129-2.87464 3.983869-2.72874.60166-2.96311 2.79136-3.7013 5.50498-3.70543 3.29532-.0488 5.80683.67648 5.64987 4.03519 1.57133.0441 3.60453-.33157 3.69414 2.56574-.17669 2.27672-.90988 3.51729-2.24547 3.6362z" fill="none" stroke-width=".378164"/><path d="m28.899109 533.06661c-4.630814 0-8.358663 3.50882-8.358663 7.86722v15.86c0 4.35843 3.727849 7.86723 8.358663 7.86723h14.877127c4.630817 0 8.358663-3.5088 8.358663-7.86723v-15.86c0-4.3584-3.727846-7.86722-8.358663-7.86722zm1.581815 3.35846h11.713498c3.646246 0 6.582026 2.7632 6.582026 6.19495v12.48812c0 3.43178-2.93578 6.19448-6.582026 6.19448h-11.713498c-3.64625 0-6.582027-2.7627-6.582027-6.19448v-12.48812c0-3.43175 2.935777-6.19495 6.582027-6.19495z" fill="#2ea96e" opacity=".999" stroke-width=".7"/></g><g stroke-width=".506303"><g fill="none" stroke="#000" stroke-width=".80000092244"><circle cx="35.85670261678" cy="541.20125786779" r="1.13392879864"/><circle cx="44.55015049137" cy="549.38044053333" r="1.13392879864"/><circle cx="28.10818262706" cy="549.30480744935" r="1.13392879864"/></g><g transform="matrix(.13816919324 0 0 .13816919324 57.19349712511 520.18329245229)"><path d="m-191.79938 137.07182-17.30084 15.63728-14.63917 21.29335 17.96626-16.30271z"/><path d="m-189.30407 171.50714-15.63728-17.30084-21.29335-14.63917 16.30271 17.96626z"/></g><g transform="matrix(.14328657371 0 0 .14328657371 73.84825212469 519.10387230083)"><path d="m-191.79938 137.07182-17.30084 15.63728-14.63917 21.29335 17.96626-16.30271z"/><path d="m-189.30407 171.50714-15.63728-17.30084-21.29335-14.63917 16.30271 17.96626z"/></g></g></g></svg>