<svg height="45" viewBox="0 0 45 45" width="45" xmlns="http://www.w3.org/2000/svg"><g transform="matrix(1.120252 0 0 1.120252 -64.366203 -640.78546)"><g stroke="#000"><rect fill="#2ea96e" height="24.877172" rx="6.581677" ry="6.19452" stroke-width=".319257" width="24.877171" x="65.058632" y="579.72296"/><path d="m63.411927 590.8868c3.87011 4.69031 23.16552 5.15484 28.8207 0" fill="none" stroke-width=".5"/><path d="m63.411927 587.57948c3.87011 4.69031 23.16552 5.15484 28.8207 0" fill="none" stroke-width=".5"/><path d="m70.058616 576.36428c-4.630814 0-8.358663 3.50882-8.358663 7.86722v15.86c0 4.35843 3.727849 7.86723 8.358663 7.86723h14.877127c4.630817 0 8.358663-3.5088 8.358663-7.86723v-15.86c0-4.3584-3.727846-7.86722-8.358663-7.86722zm1.581815 3.35846h11.713498c3.646246 0 6.582026 2.7632 6.582026 6.19495v12.48812c0 3.43178-2.93578 6.19448-6.582026 6.19448h-11.713498c-3.64625 0-6.582027-2.7627-6.582027-6.19448v-12.48812c0-3.43175 2.935777-6.19495 6.582027-6.19495z" fill="#2ea96e" stroke-width=".7"/></g><g stroke-width=".506303"><circle cx="77.48709764245" cy="584.44568748457" r="1.13392879864"/><circle cx="84.85369753943" cy="584.18792152752" r="1.13392879864"/><circle cx="84.93609017053" cy="600.76744333564" r="1.13392879864"/><circle cx="77.63022395241" cy="600.69866068345" r="1.13392879864"/><circle cx="69.65616798074" cy="600.56502614091" r="1.13392879864"/><circle cx="69.68715397197" cy="584.52003682263" r="1.13392879864"/></g></g></svg>