<?xml version="1.0" encoding="UTF-8" standalone="no"?>
<svg
   xmlns:dc="http://purl.org/dc/elements/1.1/"
   xmlns:cc="http://creativecommons.org/ns#"
   xmlns:rdf="http://www.w3.org/1999/02/22-rdf-syntax-ns#"
   xmlns:svg="http://www.w3.org/2000/svg"
   xmlns="http://www.w3.org/2000/svg"
   width="45"
   height="45"
   viewBox="0 0 45 45"
   version="1.1"
   id="svg4837">
  <defs
     id="defs4831" />
  <metadata
     id="metadata4834">
    <rdf:RDF>
      <cc:Work
         rdf:about="">
        <dc:format>image/svg+xml</dc:format>
        <dc:type
           rdf:resource="http://purl.org/dc/dcmitype/StillImage" />
        <dc:title></dc:title>
      </cc:Work>
    </rdf:RDF>
  </metadata>
  <g
     id="g11415"
     transform="matrix(1.120252,0,0,1.120252,-62.56975,-547.36975)"
     style="opacity:1">
    <rect
       ry="6.1945195"
       rx="6.581677"
       y="496.33487"
       x="63.455017"
       height="24.877172"
       width="24.877171"
       id="rect11355"
       style="fill:#2ea96e;fill-opacity:1;stroke:#000000;stroke-width:0.319257;stroke-miterlimit:4;stroke-dasharray:none;stroke-opacity:1;stop-color:#000000" />
    <g
       style="stroke-width:0.506303;stroke-miterlimit:4;stroke-dasharray:none"
       transform="matrix(0.56764769,0.02081485,-0.02081485,0.56764769,161.24713,412.59886)"
       id="g11405">
      <g
         id="g11367"
         transform="translate(-3.6555578,1.9984635)">
        <g
           id="g11361"
           transform="translate(0.47020476,-0.01724176)">
          <path
             d="m -117.49266,164.58525 c -0.99337,2.84829 -2.98761,4.31139 -4.94346,4.3855 -0.84424,-0.1001 -1.72027,0.32603 -2.27177,1.39752 -0.82214,1.44157 -0.92368,3.96678 -0.0645,5.538 0.88483,1.6048 2.23052,1.95325 3.42782,2.39371 0.95448,0.31448 1.90726,0.84527 2.69129,1.87129 0.62877,0.71013 1.18703,1.60896 1.61307,2.66024"
             style="fill:none;fill-opacity:1;stroke:#000000;stroke-width:0.528142;stroke-miterlimit:4;stroke-dasharray:none;stroke-opacity:1;stop-color:#000000"
             id="path11357" />
          <path
             id="path11359"
             d="m -117.63588,185.35705 c -0.45816,-1.32201 -0.55054,-2.53681 -2.82446,-4.39099 -2.54277,-2.02926 -3.48876,-0.72184 -5.49368,-2.99 -1.85065,-1.99358 -2.45619,-5.44532 -1.01366,-8.38362 1.8102,-2.08376 3.45772,-2.18405 5.33032,-2.56637 2.1525,-0.84718 2.34985,-2.01138 3.02066,-3.0988"
             style="fill:none;fill-opacity:1;stroke:#000000;stroke-width:0.528142;stroke-miterlimit:4;stroke-dasharray:none;stroke-opacity:1;stop-color:#000000" />
        </g>
        <path
           id="path11363"
           d="m -118.98168,167.81245 -1.94614,1.40312 -0.65805,-2.05671 2.12457,-1.07672 z"
           style="fill:#000000;fill-opacity:1;stroke:none;stroke-width:0.528143;stroke-miterlimit:4;stroke-dasharray:none;stroke-opacity:1;stop-color:#000000" />
        <path
           id="path11365"
           d="m -118.59929,182.78035 -1.5602,-1.69068 0.49956,-2.2656 2.05892,1.6724 z"
           style="fill:#000000;fill-opacity:1;stroke:none;stroke-width:0.528143;stroke-miterlimit:4;stroke-dasharray:none;stroke-opacity:1;stop-color:#000000" />
      </g>
      <g
         id="g11379"
         transform="translate(-0.93095792,0.03413693)">
        <g
           transform="rotate(90,-142.1086,172.71729)"
           id="g11373">
          <path
             d="m -117.49266,164.58525 c -0.99337,2.84829 -2.98761,4.31139 -4.94346,4.3855 -0.84424,-0.1001 -1.72027,0.32603 -2.27177,1.39752 -0.82214,1.44157 -0.92368,3.96678 -0.0645,5.538 0.88483,1.6048 2.23052,1.95325 3.42782,2.39371 0.95448,0.31448 1.90726,0.84527 2.69129,1.87129 0.62877,0.71013 1.18703,1.60896 1.61307,2.66024"
             style="fill:none;fill-opacity:1;stroke:#000000;stroke-width:0.528142;stroke-miterlimit:4;stroke-dasharray:none;stroke-opacity:1;stop-color:#000000"
             id="path11369" />
          <path
             id="path11371"
             d="m -117.63588,185.35705 c -0.45816,-1.32201 -0.55054,-2.53681 -2.82446,-4.39099 -2.54277,-2.02926 -3.48876,-0.72184 -5.49368,-2.99 -1.85065,-1.99358 -2.45619,-5.44532 -1.01366,-8.38362 1.8102,-2.08376 3.45772,-2.18405 5.33032,-2.56637 2.1525,-0.84718 2.34985,-2.01138 3.02066,-3.0988"
             style="fill:none;fill-opacity:1;stroke:#000000;stroke-width:0.528142;stroke-miterlimit:4;stroke-dasharray:none;stroke-opacity:1;stop-color:#000000" />
        </g>
        <path
           id="path11375"
           d="m -134.69542,195.52264 -1.73862,-2.01708 -1.65633,0.22718 1.32606,2.11546 z"
           style="fill:#000000;fill-opacity:1;stroke:none;stroke-width:0.528143;stroke-miterlimit:4;stroke-dasharray:none;stroke-opacity:1;stop-color:#000000" />
        <path
           id="path11377"
           d="m -149.97144,196.58218 1.9248,-1.98497 -2.17639,-0.33633 -2.00793,1.98796 z"
           style="fill:#000000;fill-opacity:1;stroke:none;stroke-width:0.528143;stroke-miterlimit:4;stroke-dasharray:none;stroke-opacity:1;stop-color:#000000" />
      </g>
      <g
         id="g11391"
         transform="translate(2.8270106,0.82854713)">
        <g
           transform="rotate(180,-143.37563,175.00624)"
           id="g11385">
          <path
             id="path11381"
             style="fill:none;fill-opacity:1;stroke:#000000;stroke-width:0.528142;stroke-miterlimit:4;stroke-dasharray:none;stroke-opacity:1;stop-color:#000000"
             d="m -117.49266,164.58525 c -0.99337,2.84829 -2.98761,4.31139 -4.94346,4.3855 -0.84424,-0.1001 -1.72027,0.32603 -2.27177,1.39752 -0.82214,1.44157 -0.92368,3.96678 -0.0645,5.538 0.88483,1.6048 2.23052,1.95325 3.42782,2.39371 0.95448,0.31448 1.90726,0.84527 2.69129,1.87129 0.62877,0.71013 1.18703,1.60896 1.61307,2.66024" />
          <path
             style="fill:none;fill-opacity:1;stroke:#000000;stroke-width:0.528142;stroke-miterlimit:4;stroke-dasharray:none;stroke-opacity:1;stop-color:#000000"
             d="m -117.63588,185.35705 c -0.45816,-1.32201 -0.55054,-2.53681 -2.82446,-4.39099 -2.54277,-2.02926 -3.48876,-0.72184 -5.49368,-2.99 -1.85065,-1.99358 -2.45619,-5.44532 -1.01366,-8.38362 1.8102,-2.08376 3.45772,-2.18405 5.33032,-2.56637 2.1525,-0.84718 2.34985,-2.01138 3.02066,-3.0988"
             id="path11383" />
        </g>
        <path
           id="path11387"
           d="m -167.94284,185.42206 3.07632,-2.36009 -0.23634,-1.90568 -3.01454,1.77518 z"
           style="fill:#000000;fill-opacity:1;stroke:none;stroke-width:0.528143;stroke-miterlimit:4;stroke-dasharray:none;stroke-opacity:1;stop-color:#000000" />
        <path
           id="path11389"
           d="m -168.53718,169.21341 2.33266,2.32824 0.0809,-2.33349 -2.68344,-2.81478 z"
           style="fill:#000000;fill-opacity:1;stroke:none;stroke-width:0.528143;stroke-miterlimit:4;stroke-dasharray:none;stroke-opacity:1;stop-color:#000000" />
      </g>
      <g
         id="g11403"
         transform="translate(-0.03413693,-0.93095792)">
        <g
           id="g11397"
           transform="rotate(-90,-142.01847,176.54285)">
          <path
             id="path11393"
             style="fill:none;fill-opacity:1;stroke:#000000;stroke-width:0.528142;stroke-miterlimit:4;stroke-dasharray:none;stroke-opacity:1;stop-color:#000000"
             d="m -117.49266,164.58525 c -0.99337,2.84829 -2.98761,4.31139 -4.94346,4.3855 -0.84424,-0.1001 -1.72027,0.32603 -2.27177,1.39752 -0.82214,1.44157 -0.92368,3.96678 -0.0645,5.538 0.88483,1.6048 2.23052,1.95325 3.42782,2.39371 0.95448,0.31448 1.90726,0.84527 2.69129,1.87129 0.62877,0.71013 1.18703,1.60896 1.61307,2.66024" />
          <path
             style="fill:none;fill-opacity:1;stroke:#000000;stroke-width:0.528142;stroke-miterlimit:4;stroke-dasharray:none;stroke-opacity:1;stop-color:#000000"
             d="m -117.63588,185.35705 c -0.45816,-1.32201 -0.55054,-2.53681 -2.82446,-4.39099 -2.54277,-2.02926 -3.48876,-0.72184 -5.49368,-2.99 -1.85065,-1.99358 -2.45619,-5.44532 -1.01366,-8.38362 1.8102,-2.08376 3.45772,-2.18405 5.33032,-2.56637 2.1525,-0.84718 2.34985,-2.01138 3.02066,-3.0988"
             id="path11395" />
        </g>
        <path
           id="path11399"
           d="m -136.63805,153.89413 -1.74027,2.47754 -2.33349,-0.0809 1.65715,-2.47454 z"
           style="fill:#000000;fill-opacity:1;stroke:none;stroke-width:0.528143;stroke-miterlimit:4;stroke-dasharray:none;stroke-opacity:1;stop-color:#000000" />
        <path
           id="path11401"
           d="m -152.5142,154.47629 1.17201,2.45399 1.81343,-0.48263 -1.3474,-2.69731 z"
           style="fill:#000000;fill-opacity:1;stroke:none;stroke-width:0.528143;stroke-miterlimit:4;stroke-dasharray:none;stroke-opacity:1;stop-color:#000000" />
      </g>
    </g>
    <path
       d="m 68.454999,492.97619 c -4.630814,0 -8.358663,3.50882 -8.358663,7.86722 v 15.86 c 0,4.35843 3.727849,7.86723 8.358663,7.86723 h 14.877127 c 4.630817,0 8.358663,-3.5088 8.358663,-7.86723 v -15.86 c 0,-4.3584 -3.727846,-7.86722 -8.358663,-7.86722 z m 1.581815,3.35846 h 11.713498 c 3.646246,0 6.582026,2.7632 6.582026,6.19495 v 12.48812 c 0,3.43178 -2.93578,6.19448 -6.582026,6.19448 H 70.036814 c -3.64625,0 -6.582027,-2.7627 -6.582027,-6.19448 V 502.5296 c 0,-3.43175 2.935777,-6.19495 6.582027,-6.19495 z"
       style="fill:#2ea96e;fill-opacity:1;stroke:#000000;stroke-width:0.7;stroke-miterlimit:4;stroke-dasharray:none;stroke-opacity:1;stop-color:#000000"
       id="path11407" />
    <g
       id="g11413"
       transform="matrix(1.6131188,0,0,1.6131188,286.99935,362.62867)">
      <path
         id="path11409"
         d="m -136.525,86.298669 c 1.06152,0.01969 2.25787,0.835359 3.24523,1.967281 0.71094,0.921193 1.35516,2.333869 2.37202,2.305194 1.11674,-0.09546 1.79771,-1.85563 2.26425,-2.61408 0.60005,-0.772368 1.86801,-1.473774 3.11455,-1.632758 -0.96254,0.485085 -2.70579,1.161476 -3.17383,2.609811 -0.64502,1.370997 -1.46816,2.166998 -2.17156,2.271777 -0.8909,0.0882 -1.7818,-1.373466 -2.50566,-2.204968 -0.62363,-0.969662 -2.12047,-2.349585 -3.145,-2.702257 z"
         style="fill:#000000;fill-opacity:1;stroke:none;stroke-width:0.4;stroke-miterlimit:4;stroke-dasharray:none;stroke-dashoffset:0;stroke-opacity:1;stop-color:#000000" />
      <path
         id="path11411"
         d="m -132.07706,90.270468 c 0.1058,1.063498 -0.096,2.43464 1.10249,2.405407 1.03926,-0.07436 0.92647,-1.300763 1.03566,-2.305183 -0.66851,0.806472 -1.38055,0.785991 -2.13815,-0.100224 z"
         style="fill:none;fill-opacity:1;stroke:#000000;stroke-width:0.4;stroke-miterlimit:4;stroke-dasharray:none;stroke-dashoffset:0;stroke-opacity:1;stop-color:#000000" />
    </g>
  </g>
</svg>
