<svg height="45" viewBox="0 0 45 45" width="45" xmlns="http://www.w3.org/2000/svg"><g transform="matrix(1.0612913 0 0 1.0612913 -13.859596 -515.69875)"><g stroke="#000"><rect fill="#2ea96e" height="24.877172" rx="6.581677" ry="6.19452" stroke-width=".319257" width="24.877171" x="21.760971" y="494.73126"/><path d="m24.842488 519.93794c-3.109181-.76585-3.460562-2.3536-3.69769-3.9754v-2.25843c-.34277-2.45782 3.533801-3.82738 5.496544-3.54905.830128-4.05561 3.851252-4.95548 7.595265-4.81419 4.546571.1111 8.011712 1.2479 7.795159 5.87341 2.167956.14601 4.97318-.2622 5.096815 3.74009-.243774 3.13164-1.255364 4.80352-3.098076 4.89524z" fill="none" stroke-width=".521756"/><path d="m26.760953 491.37257c-4.630814 0-8.358663 3.50882-8.358663 7.86722v15.86c0 4.35843 3.727849 7.86723 8.358663 7.86723h14.877127c4.630817 0 8.358663-3.5088 8.358663-7.86723v-15.86c0-4.3584-3.727846-7.86722-8.358663-7.86722zm1.581815 3.35846h11.713498c3.646246 0 6.582026 2.7632 6.582026 6.19495v12.48812c0 3.43178-2.93578 6.19448-6.582026 6.19448h-11.713498c-3.64625 0-6.582027-2.7627-6.582027-6.19448v-12.48812c0-3.43175 2.935777-6.19495 6.582027-6.19495z" fill="#2ea96e" stroke-width=".7"/></g><g stroke-width=".506303"><circle cx="34.15946764245" cy="499.16869748457" r="1.13392879864"/><circle cx="41.52606753943" cy="498.91093152752" r="1.13392879864"/><circle cx="41.60846017053" cy="515.49045333564" r="1.13392879864"/><circle cx="34.30259395241" cy="515.42167068345" r="1.13392879864"/><circle cx="26.32853798074" cy="515.28803614091" r="1.13392879864"/><circle cx="26.35952397197" cy="499.24304682263" r="1.13392879864"/></g></g></svg>