<svg height="45" viewBox="0 0 45 45" width="45" xmlns="http://www.w3.org/2000/svg"><g transform="matrix(1.1792126 0 0 1.1792126 -69.514474 -626.42348)"><rect fill="#bebebe" height="24.877172" rx="6.581677" ry="6.19452" stroke="#000" stroke-width=".319257" width="24.877171" x="65.59317" y="538.02893"/><g stroke-width=".506303" transform="matrix(.56764769 .02081485 -.02081485 .56764769 164.55443 453.79826)"><g transform="translate(-5.08968 .892887)"><g fill="none" stroke="#000" stroke-width=".528142" transform="translate(.504342 .913716)"><path d="m-117.49266 164.58525c-.99337 2.84829-2.98761 4.31139-4.94346 4.3855-.84424-.1001-1.72027.32603-2.27177 1.39752-.82214 1.44157-.92368 3.96678-.0645 5.538.88483 1.6048 2.23052 1.95325 3.42782 2.39371.95448.31448 1.90726.84527 2.69129 1.87129.62877.71013 1.18703 1.60896 1.61307 2.66024"/><path d="m-117.63588 185.35705c-.45816-1.32201-.55054-2.53681-2.82446-4.39099-2.54277-2.02926-3.48876-.72184-5.49368-2.99-1.85065-1.99358-2.45619-5.44532-1.01366-8.38362 1.8102-2.08376 3.45772-2.18405 5.33032-2.56637 2.1525-.84718 2.34985-2.01138 3.02066-3.0988"/></g><path d="m-118.94754 168.74341-1.94614 1.40312-.65805-2.05671 2.12457-1.07672z"/><path d="m-118.56515 183.71131-1.5602-1.69068.49956-2.2656 2.05892 1.6724z"/></g><g transform="translate(-1.827779 .999232)"><g fill="none" stroke="#000" stroke-width=".528142" transform="matrix(0 1 -1 0 30.60869 314.82589)"><path d="m-117.49266 164.58525c-.99337 2.84829-2.98761 4.31139-4.94346 4.3855-.84424-.1001-1.72027.32603-2.27177 1.39752-.82214 1.44157-.92368 3.96678-.0645 5.538.88483 1.6048 2.23052 1.95325 3.42782 2.39371.95448.31448 1.90726.84527 2.69129 1.87129.62877.71013 1.18703 1.60896 1.61307 2.66024"/><path d="m-117.63588 185.35705c-.45816-1.32201-.55054-2.53681-2.82446-4.39099-2.54277-2.02926-3.48876-.72184-5.49368-2.99-1.85065-1.99358-2.45619-5.44532-1.01366-8.38362 1.8102-2.08376 3.45772-2.18405 5.33032-2.56637 2.1525-.84718 2.34985-2.01138 3.02066-3.0988"/></g><path d="m-134.69542 195.52264-1.73862-2.01708-1.65633.22718 1.32606 2.11546z"/><path d="m-149.97144 196.58218 1.9248-1.98497-2.17639-.33633-2.00793 1.98796z"/></g><g transform="translate(-.018288 -.498727)"><g fill="none" stroke="#000" stroke-width=".528142" transform="matrix(-1 0 0 -1 -286.71712 350.94344)"><path d="m-117.49266 164.58525c-.99337 2.84829-2.98761 4.31139-4.94346 4.3855-.84424-.1001-1.72027.32603-2.27177 1.39752-.82214 1.44157-.92368 3.96678-.0645 5.538.88483 1.6048 2.23052 1.95325 3.42782 2.39371.95448.31448 1.90726.84527 2.69129 1.87129.62877.71013 1.18703 1.60896 1.61307 2.66024"/><path d="m-117.63588 185.35705c-.45816-1.32201-.55054-2.53681-2.82446-4.39099-2.54277-2.02926-3.48876-.72184-5.49368-2.99-1.85065-1.99358-2.45619-5.44532-1.01366-8.38362 1.8102-2.08376 3.45772-2.18405 5.33032-2.56637 2.1525-.84718 2.34985-2.01138 3.02066-3.0988"/></g><path d="m-166.87689 184.98346 2.04451-.99053-.23634-1.90568-2.44488 1.42136z"/><path d="m-168.23539 170.63395 2.06501 1.83866.0809-2.33349-2.07416-2.08802z"/></g><g transform="translate(-.930958 .034137)"><g fill="none" stroke="#000" stroke-width=".528142" transform="matrix(0 -1 1 0 -318.56132 34.52438)"><path d="m-117.49266 164.58525c-.99337 2.84829-2.98761 4.31139-4.94346 4.3855-.84424-.1001-1.72027.32603-2.27177 1.39752-.82214 1.44157-.92368 3.96678-.0645 5.538.88483 1.6048 2.23052 1.95325 3.42782 2.39371.95448.31448 1.90726.84527 2.69129 1.87129.62877.71013 1.18703 1.60896 1.61307 2.66024"/><path d="m-117.63588 185.35705c-.45816-1.32201-.55054-2.53681-2.82446-4.39099-2.54277-2.02926-3.48876-.72184-5.49368-2.99-1.85065-1.99358-2.45619-5.44532-1.01366-8.38362 1.8102-2.08376 3.45772-2.18405 5.33032-2.56637 2.1525-.84718 2.34985-2.01138 3.02066-3.0988"/></g><path d="m-136.63805 153.89413-1.74027 2.47754-2.33349-.0809 1.65715-2.47454z"/><path d="m-152.5142 154.47629 1.17201 2.45399 1.81343-.48263-1.3474-2.69731z"/></g><g transform="matrix(.99932838 -.03664398 .03664398 .99932838 0 0)"><circle cx="-151.88252" cy="155.46404" r="2.242189"/><circle cx="-137.21999" cy="170.36804" r="2.242189"/><circle cx="-151.85938" cy="183.05504" r="2.242189"/><circle cx="-166.83456" cy="171.07542" r="2.242189"/><circle cx="-167.00092" cy="156.93532" r="2.242189"/><circle cx="-138.05528" cy="156.43625" r="2.242189"/><circle cx="-138.0351" cy="182.55385" r="2.242189"/><circle cx="-166.33549" cy="182.7202" r="2.242189"/></g></g><g stroke="#000"><path d="m70.593155 534.67023c-4.630814 0-8.358663 3.50882-8.358663 7.86722v15.86c0 4.35843 3.727849 7.86723 8.358663 7.86723h14.877127c4.630817 0 8.358663-3.5088 8.358663-7.86723v-15.86c0-4.3584-3.727846-7.86722-8.358663-7.86722zm1.581815 3.35846h11.713498c3.646246 0 6.582026 2.7632 6.582026 6.19495v12.48812c0 3.43178-2.93578 6.19448-6.582026 6.19448h-11.713498c-3.64625 0-6.582027-2.7627-6.582027-6.19448v-12.48812c0-3.43175 2.935777-6.19495 6.582027-6.19495z" fill="#bebebe" stroke-width=".7"/><g fill="none" stroke-width=".234" transform="matrix(1.0789652 0 0 1.0789652 210.36266 208.92408)"><circle cx="-124.81487" cy="316.17447" r=".801809"/><ellipse cx="-120.20447" cy="316.2413" rx=".734991" ry=".868626"/><ellipse cx="-122.40945" cy="318.64673" rx=".801809" ry=".868626"/><path d="m-128.55664 312.9726c4.29221 1.60977 9.99197.91158 12.02713 0"/></g></g></g></svg>