<svg height="45" viewBox="0 0 45 45" width="45" xmlns="http://www.w3.org/2000/svg"><g stroke="#000" transform="matrix(1.0612913 0 0 1.0612913 -15.5615 -604.19784)"><rect fill="#bebebe" height="24.877172" rx="6.581677" ry="6.19452" stroke-width=".319257" width="24.877171" x="23.364588" y="578.11938"/><g fill="none" stroke-width=".294476" transform="matrix(.9654038 0 0 1.0750654 193.5373 210.68038)"><path d="m-176.766 345.48214 2.81391.72 1.20706 2.61933 2.69091.16224.96105 2.22058h2.30652l.76883 2.69358-.96106 2.86635h-2.49871l-1.15324 2.18427h-2.88314l-.96104 2.18426-2.30651.39715"/><path d="m-149.8823 345.3528-2.62572.54081-1.39145 2.08661-2.57525.46814-1.08288 2.44096h-2.26668l-.68635 2.9091.87525 2.71865h2.45556l1.13334 2.21091h2.83336l.94445 2.2109 2.26668.40199"/><path d="m-166.10644 353.97624 5.57098-.19207"/></g><path d="m28.36457 574.76066c-4.630814 0-8.358663 3.50882-8.358663 7.86722v15.86c0 4.35843 3.727849 7.86723 8.358663 7.86723h14.877127c4.630817 0 8.358663-3.5088 8.358663-7.86723v-15.86c0-4.3584-3.727846-7.86722-8.358663-7.86722zm1.581815 3.35846h11.713498c3.646246 0 6.582026 2.7632 6.582026 6.19495v12.48812c0 3.43178-2.93578 6.19448-6.582026 6.19448h-11.713498c-3.64625 0-6.582027-2.7627-6.582027-6.19448v-12.48812c0-3.43175 2.935777-6.19495 6.582027-6.19495z" fill="#bebebe" stroke-width=".7"/></g></svg>