<?xml version="1.0" encoding="UTF-8" standalone="no"?>
<svg
   xmlns:dc="http://purl.org/dc/elements/1.1/"
   xmlns:cc="http://creativecommons.org/ns#"
   xmlns:rdf="http://www.w3.org/1999/02/22-rdf-syntax-ns#"
   xmlns:svg="http://www.w3.org/2000/svg"
   xmlns="http://www.w3.org/2000/svg"
   width="45"
   height="45"
   viewBox="0 0 45 45"
   version="1.1"
   id="svg4837">
  <defs
     id="defs4831" />
  <metadata
     id="metadata4834">
    <rdf:RDF>
      <cc:Work
         rdf:about="">
        <dc:format>image/svg+xml</dc:format>
        <dc:type
           rdf:resource="http://purl.org/dc/dcmitype/StillImage" />
        <dc:title></dc:title>
      </cc:Work>
    </rdf:RDF>
  </metadata>
  <g
     style="opacity:1"
     id="g14332"
     transform="matrix(1.1792126,0,0,1.1792126,-85.272854,-468.83968)">
    <rect
       ry="6.1945195"
       rx="6.581677"
       y="404.39413"
       x="78.95665"
       height="24.877172"
       width="24.877171"
       id="rect14304"
       style="fill:#bebebe;fill-opacity:1;stroke:#000000;stroke-width:0.319257;stroke-miterlimit:4;stroke-dasharray:none;stroke-opacity:1;stop-color:#000000" />
    <g
       style="stroke-width:0.506303;stroke-miterlimit:4;stroke-dasharray:none"
       transform="matrix(0.56802917,0,0,0.56802917,173.36211,316.97399)"
       id="g14320">
      <path
         id="path14306"
         d="m -167.69194,179.21172 18.31505,0.37306 -18.0148,3.73223 z"
         style="fill:#000000;fill-opacity:1;stroke:none;stroke-width:0.655535;stroke-miterlimit:4;stroke-dasharray:none;stop-color:#000000" />
      <path
         id="path14308"
         d="m -167.99589,171.05009 18.73384,2.26127 -19.45444,1.75589 z"
         style="fill:#000000;fill-opacity:1;stroke:none;stroke-width:0.645046;stroke-miterlimit:4;stroke-dasharray:none;stop-color:#000000" />
      <path
         id="path14310"
         d="m -142.43837,198.61223 0.90061,-16.18761 3.3912,15.05162 z"
         style="fill:#000000;fill-opacity:1;stroke:none;stroke-width:0.637544;stroke-miterlimit:4;stroke-dasharray:none;stop-color:#000000" />
      <path
         style="fill:#000000;fill-opacity:1;stroke:none;stroke-width:0.637544;stroke-miterlimit:4;stroke-dasharray:none;stop-color:#000000"
         d="m -149.31613,154.26091 2.0853,16.09017 2.01999,-16.32543 z"
         id="path14312" />
      <path
         style="fill:#000000;fill-opacity:1;stroke:none;stroke-width:0.637544;stroke-miterlimit:4;stroke-dasharray:none;stop-color:#000000"
         d="m -141.81804,152.99902 2.07691,16.42287 1.97964,-15.05162 z"
         id="path14314" />
      <path
         style="fill:#000000;fill-opacity:1;stroke:none;stroke-width:0.629478;stroke-miterlimit:4;stroke-dasharray:none;stop-color:#000000"
         d="m -117.77894,176.19152 -16.84388,2.64604 17.35507,1.47472 z"
         id="path14316" />
      <path
         style="fill:#000000;fill-opacity:1;stroke:none;stroke-width:0.62293;stroke-miterlimit:4;stroke-dasharray:none;stop-color:#000000"
         d="m -118.53147,170.25013 -16.8394,2.48197 17.07235,1.29784 z"
         id="path14318" />
    </g>
    <g
       transform="translate(218.44926,252.4714)"
       id="g14328">
      <path
         style="fill:#bebebe;fill-opacity:1;stroke:none;stroke-width:0.3;stroke-miterlimit:4;stroke-dasharray:none;stroke-opacity:1;stop-color:#000000"
         d="m -127.81286,169.01829 c -3.0736,-1.9377 -3.00678,-2.53906 -3.00678,-2.53906 l 0.53454,-3.54132 1.80407,-1.67043 4.34312,-0.26727 2.47225,1.26953 0.53454,3.80859 -1.26953,2.67269 -3.34087,0.60136 z"
         id="path14322" />
      <path
         id="path14324"
         d="m -131.0201,177.23683 -0.20045,-12.62848 c 0.21097,-1.21487 0.4049,-2.45816 1.13589,-2.80633 1.31193,-1.1697 2.32177,-0.82897 3.4745,-1.20271 3.89716,-0.2004 3.5377,0.0722 4.47677,0.20045 0.53592,0.51227 0.80042,1.02453 0.80181,1.5368 0.62991,2.26532 0.27122,3.21251 0.4009,4.81085 -0.8909,1.90123 -1.71092,1.9021 -2.67269,2.13816 -2.15691,0.28836 -2.90726,0.10787 -4.07586,0.0668 -0.89692,-0.39988 -1.33752,-1.98119 -1.40317,-3.00678 0.007,-1.14969 1.02497,-2.22646 2.47224,-2.67269 0.90411,-0.20876 1.74594,-0.16839 2.47225,0.33408 0.80758,0.73499 0.65186,1.46999 0.60136,2.20498 -0.60136,0.8737 -1.46257,0.97551 -2.06393,0.9908 0.99591,-0.36454 1.84702,-1.15014 1.5962,-1.87088 -0.078,-0.79429 -0.80245,-0.96835 -1.40316,-1.06572 -1.19367,-0.0246 -1.73947,0.10917 -2.3231,0.86863 -0.6344,0.92532 -0.45588,1.76762 -0.3496,2.48034 0.53669,1.17669 1.70116,1.25474 2.93997,1.20272 1.40459,-0.1687 2.36297,-0.35524 2.8772,-0.88009 0.76382,-1.00497 0.64063,-2.10442 0.66412,-3.06214 -0.0766,-2.11967 -0.65265,-3.26995 -2.40543,-3.60814 -1.57524,0.004 -3.11065,-0.016 -4.07586,0.25917 -0.81611,0.20915 -1.87386,1.04728 -2.20497,1.94581 -0.35555,1.64693 -0.56344,10.73411 0.53452,14.03164 z"
         style="fill:#000000;fill-opacity:1;stroke:none;stroke-width:0.3;stroke-miterlimit:4;stroke-dasharray:none;stroke-opacity:1;stop-color:#000000" />
      <path
         id="path14326"
         d="m -130.85535,167.95239 1.79539,8.97692 -2.74032,-0.1166 z"
         style="fill:#040404;fill-opacity:1;stroke:none;stroke-width:0.333225;stroke-miterlimit:4;stroke-dasharray:none;stroke-opacity:1;stop-color:#000000" />
    </g>
    <path
       transform="scale(0.26458333)"
       d="m 317.31641,1515.7246 c -17.50229,0 -31.5918,13.2617 -31.5918,29.7344 v 59.9433 c 0,16.4728 14.08951,29.7344 31.5918,29.7344 h 56.22851 c 17.5023,0 31.5918,-13.2616 31.5918,-29.7344 v -59.9433 c 0,-16.4727 -14.0895,-29.7344 -31.5918,-29.7344 z m 5.97851,12.6934 h 44.27149 c 13.78109,0 24.87695,10.4436 24.87695,23.414 v 47.1992 c 0,12.9705 -11.09586,23.4122 -24.87695,23.4122 h -44.27149 c -13.7811,0 -24.87695,-10.4417 -24.87695,-23.4122 v -47.1992 c 0,-12.9704 11.09585,-23.414 24.87695,-23.414 z"
       style="fill:#bebebe;fill-opacity:1;stroke:#000000;stroke-width:2.64567;stroke-miterlimit:4;stroke-dasharray:none;stroke-opacity:1;stop-color:#000000"
       id="path14330" />
  </g>
</svg>
