<svg height="45" viewBox="0 0 45 45" width="45" xmlns="http://www.w3.org/2000/svg"><g transform="matrix(1.1792126 0 0 1.1792126 -85.272854 -468.83968)"><rect fill="#bebebe" height="24.877172" rx="6.581677" ry="6.19452" stroke="#000" stroke-width=".319257" width="24.877171" x="78.95665" y="404.39413"/><g stroke-width=".506303" transform="matrix(.56802917 0 0 .56802917 173.36211 316.97399)"><path d="m-167.69194 179.21172 18.31505.37306-18.0148 3.73223z"/><path d="m-167.99589 171.05009 18.73384 2.26127-19.45444 1.75589z"/><path d="m-142.43837 198.61223.90061-16.18761 3.3912 15.05162z"/><path d="m-149.31613 154.26091 2.0853 16.09017 2.01999-16.32543z"/><path d="m-141.81804 152.99902 2.07691 16.42287 1.97964-15.05162z"/><path d="m-117.77894 176.19152-16.84388 2.64604 17.35507 1.47472z"/><path d="m-118.53147 170.25013-16.8394 2.48197 17.07235 1.29784z"/></g><g transform="translate(218.44926 252.4714)"><path d="m-127.81286 169.01829c-3.0736-1.9377-3.00678-2.53906-3.00678-2.53906l.53454-3.54132 1.80407-1.67043 4.34312-.26727 2.47225 1.26953.53454 3.80859-1.26953 2.67269-3.34087.60136z" fill="#bebebe"/><path d="m-131.0201 177.23683-.20045-12.62848c.21097-1.21487.4049-2.45816 1.13589-2.80633 1.31193-1.1697 2.32177-.82897 3.4745-1.20271 3.89716-.2004 3.5377.0722 4.47677.20045.53592.51227.80042 1.02453.80181 1.5368.62991 2.26532.27122 3.21251.4009 4.81085-.8909 1.90123-1.71092 1.9021-2.67269 2.13816-2.15691.28836-2.90726.10787-4.07586.0668-.89692-.39988-1.33752-1.98119-1.40317-3.00678.007-1.14969 1.02497-2.22646 2.47224-2.67269.90411-.20876 1.74594-.16839 2.47225.33408.80758.73499.65186 1.46999.60136 2.20498-.60136.8737-1.46257.97551-2.06393.9908.99591-.36454 1.84702-1.15014 1.5962-1.87088-.078-.79429-.80245-.96835-1.40316-1.06572-1.19367-.0246-1.73947.10917-2.3231.86863-.6344.92532-.45588 1.76762-.3496 2.48034.53669 1.17669 1.70116 1.25474 2.93997 1.20272 1.40459-.1687 2.36297-.35524 2.8772-.88009.76382-1.00497.64063-2.10442.66412-3.06214-.0766-2.11967-.65265-3.26995-2.40543-3.60814-1.57524.004-3.11065-.016-4.07586.25917-.81611.20915-1.87386 1.04728-2.20497 1.94581-.35555 1.64693-.56344 10.73411.53452 14.03164z"/><path d="m-130.85535 167.95239 1.79539 8.97692-2.74032-.1166z" fill="#040404"/></g><path d="m317.31641 1515.7246c-17.50229 0-31.5918 13.2617-31.5918 29.7344v59.9433c0 16.4728 14.08951 29.7344 31.5918 29.7344h56.22851c17.5023 0 31.5918-13.2616 31.5918-29.7344v-59.9433c0-16.4727-14.0895-29.7344-31.5918-29.7344zm5.97851 12.6934h44.27149c13.78109 0 24.87695 10.4436 24.87695 23.414v47.1992c0 12.9705-11.09586 23.4122-24.87695 23.4122h-44.27149c-13.7811 0-24.87695-10.4417-24.87695-23.4122v-47.1992c0-12.9704 11.09585-23.414 24.87695-23.414z" fill="#bebebe" stroke="#000" stroke-width="2.64567" transform="scale(.26458333)"/></g></svg>