<?xml version="1.0" encoding="UTF-8" standalone="no"?>
<svg
   xmlns:dc="http://purl.org/dc/elements/1.1/"
   xmlns:cc="http://creativecommons.org/ns#"
   xmlns:rdf="http://www.w3.org/1999/02/22-rdf-syntax-ns#"
   xmlns:svg="http://www.w3.org/2000/svg"
   xmlns="http://www.w3.org/2000/svg"
   width="45"
   height="45"
   viewBox="0 0 45 45"
   version="1.1"
   id="svg4837">
  <defs
     id="defs4831" />
  <metadata
     id="metadata4834">
    <rdf:RDF>
      <cc:Work
         rdf:about="">
        <dc:format>image/svg+xml</dc:format>
        <dc:type
           rdf:resource="http://purl.org/dc/dcmitype/StillImage" />
        <dc:title></dc:title>
      </cc:Work>
    </rdf:RDF>
  </metadata>
  <g
     style="opacity:1"
     transform="matrix(1.120252,0,0,1.120252,-64.366203,-640.78546)"
     id="g14302">
    <rect
       ry="6.1945195"
       rx="6.581677"
       y="579.72296"
       x="65.058632"
       height="24.877172"
       width="24.877171"
       id="rect14280"
       style="fill:#bebebe;fill-opacity:1;stroke:#000000;stroke-width:0.319257;stroke-miterlimit:4;stroke-dasharray:none;stroke-opacity:1;stop-color:#000000" />
    <path
       style="fill:none;fill-opacity:1;stroke:#000000;stroke-width:0.5;stroke-miterlimit:4;stroke-dasharray:none;stroke-opacity:1;stop-color:#000000"
       d="m 63.411927,590.8868 c 3.87011,4.69031 23.16552,5.15484 28.8207,0"
       id="path14282" />
    <path
       id="path14284"
       d="m 63.411927,587.57948 c 3.87011,4.69031 23.16552,5.15484 28.8207,0"
       style="fill:none;fill-opacity:1;stroke:#000000;stroke-width:0.5;stroke-miterlimit:4;stroke-dasharray:none;stroke-opacity:1;stop-color:#000000" />
    <path
       d="m 70.058616,576.36428 c -4.630814,0 -8.358663,3.50882 -8.358663,7.86722 v 15.86 c 0,4.35843 3.727849,7.86723 8.358663,7.86723 h 14.877127 c 4.630817,0 8.358663,-3.5088 8.358663,-7.86723 v -15.86 c 0,-4.3584 -3.727846,-7.86722 -8.358663,-7.86722 z m 1.581815,3.35846 h 11.713498 c 3.646246,0 6.582026,2.7632 6.582026,6.19495 v 12.48812 c 0,3.43178 -2.93578,6.19448 -6.582026,6.19448 H 71.640431 c -3.64625,0 -6.582027,-2.7627 -6.582027,-6.19448 v -12.48812 c 0,-3.43175 2.935777,-6.19495 6.582027,-6.19495 z"
       style="fill:#bebebe;fill-opacity:1;stroke:#000000;stroke-width:0.7;stroke-miterlimit:4;stroke-dasharray:none;stroke-opacity:1;stop-color:#000000"
       id="path14286" />
    <g
       id="g14300"
       transform="matrix(0.56802917,0,0,0.56802917,158.57521,493.2221)"
       style="stroke-width:0.506303;stroke-miterlimit:4;stroke-dasharray:none">
      <circle
         r="1.9962505"
         cy="160.59666"
         cx="-142.75343"
         id="circle14288"
         style="fill:#000000;fill-opacity:1;stroke:none;stroke-width:1.40838;stroke-miterlimit:4;stroke-dasharray:none;stroke-opacity:1;stop-color:#000000" />
      <circle
         style="fill:#000000;fill-opacity:1;stroke:none;stroke-width:1.40838;stroke-miterlimit:4;stroke-dasharray:none;stroke-opacity:1;stop-color:#000000"
         id="circle14290"
         cx="-129.78473"
         cy="160.14287"
         r="1.9962505" />
      <circle
         r="1.9962505"
         style="fill:#000000;fill-opacity:1;stroke:none;stroke-width:1.40838;stroke-miterlimit:4;stroke-dasharray:none;stroke-opacity:1;stop-color:#000000"
         id="circle14292"
         cx="-129.63968"
         cy="189.33067" />
      <circle
         r="1.9962505"
         cy="189.20958"
         cx="-142.50146"
         id="circle14294"
         style="fill:#000000;fill-opacity:1;stroke:none;stroke-width:1.40838;stroke-miterlimit:4;stroke-dasharray:none;stroke-opacity:1;stop-color:#000000" />
      <circle
         style="fill:#000000;fill-opacity:1;stroke:none;stroke-width:1.40838;stroke-miterlimit:4;stroke-dasharray:none;stroke-opacity:1;stop-color:#000000"
         id="circle14296"
         cx="-156.53957"
         cy="188.97432"
         r="1.9962505" />
      <circle
         style="fill:#000000;fill-opacity:1;stroke:none;stroke-width:1.40838;stroke-miterlimit:4;stroke-dasharray:none;stroke-opacity:1;stop-color:#000000"
         id="circle14298"
         cx="-156.48502"
         cy="160.72755"
         r="1.9962505" />
    </g>
  </g>
</svg>
