<svg height="45" viewBox="0 0 45 45" width="45" xmlns="http://www.w3.org/2000/svg"><g transform="matrix(1.120252 0 0 1.120252 -62.56975 -547.36975)"><rect fill="#bebebe" height="24.877172" rx="6.581677" ry="6.19452" stroke="#000" stroke-width=".319257" width="24.877171" x="63.455017" y="496.33487"/><g stroke-width=".506303" transform="matrix(.56764769 .02081485 -.02081485 .56764769 161.24713 412.59886)"><g transform="translate(-3.655558 1.998464)"><g fill="none" stroke="#000" stroke-width=".528142" transform="translate(.470205 -.017242)"><path d="m-117.49266 164.58525c-.99337 2.84829-2.98761 4.31139-4.94346 4.3855-.84424-.1001-1.72027.32603-2.27177 1.39752-.82214 1.44157-.92368 3.96678-.0645 5.538.88483 1.6048 2.23052 1.95325 3.42782 2.39371.95448.31448 1.90726.84527 2.69129 1.87129.62877.71013 1.18703 1.60896 1.61307 2.66024"/><path d="m-117.63588 185.35705c-.45816-1.32201-.55054-2.53681-2.82446-4.39099-2.54277-2.02926-3.48876-.72184-5.49368-2.99-1.85065-1.99358-2.45619-5.44532-1.01366-8.38362 1.8102-2.08376 3.45772-2.18405 5.33032-2.56637 2.1525-.84718 2.34985-2.01138 3.02066-3.0988"/></g><path d="m-118.98168 167.81245-1.94614 1.40312-.65805-2.05671 2.12457-1.07672z"/><path d="m-118.59929 182.78035-1.5602-1.69068.49956-2.2656 2.05892 1.6724z"/></g><g transform="translate(-.930958 .034137)"><g fill="none" stroke="#000" stroke-width=".528142" transform="matrix(0 1 -1 0 30.60869 314.82589)"><path d="m-117.49266 164.58525c-.99337 2.84829-2.98761 4.31139-4.94346 4.3855-.84424-.1001-1.72027.32603-2.27177 1.39752-.82214 1.44157-.92368 3.96678-.0645 5.538.88483 1.6048 2.23052 1.95325 3.42782 2.39371.95448.31448 1.90726.84527 2.69129 1.87129.62877.71013 1.18703 1.60896 1.61307 2.66024"/><path d="m-117.63588 185.35705c-.45816-1.32201-.55054-2.53681-2.82446-4.39099-2.54277-2.02926-3.48876-.72184-5.49368-2.99-1.85065-1.99358-2.45619-5.44532-1.01366-8.38362 1.8102-2.08376 3.45772-2.18405 5.33032-2.56637 2.1525-.84718 2.34985-2.01138 3.02066-3.0988"/></g><path d="m-134.69542 195.52264-1.73862-2.01708-1.65633.22718 1.32606 2.11546z"/><path d="m-149.97144 196.58218 1.9248-1.98497-2.17639-.33633-2.00793 1.98796z"/></g><g transform="translate(2.827011 .828547)"><g fill="none" stroke="#000" stroke-width=".528142" transform="matrix(-1 0 0 -1 -286.75126 350.01248)"><path d="m-117.49266 164.58525c-.99337 2.84829-2.98761 4.31139-4.94346 4.3855-.84424-.1001-1.72027.32603-2.27177 1.39752-.82214 1.44157-.92368 3.96678-.0645 5.538.88483 1.6048 2.23052 1.95325 3.42782 2.39371.95448.31448 1.90726.84527 2.69129 1.87129.62877.71013 1.18703 1.60896 1.61307 2.66024"/><path d="m-117.63588 185.35705c-.45816-1.32201-.55054-2.53681-2.82446-4.39099-2.54277-2.02926-3.48876-.72184-5.49368-2.99-1.85065-1.99358-2.45619-5.44532-1.01366-8.38362 1.8102-2.08376 3.45772-2.18405 5.33032-2.56637 2.1525-.84718 2.34985-2.01138 3.02066-3.0988"/></g><path d="m-167.94284 185.42206 3.07632-2.36009-.23634-1.90568-3.01454 1.77518z"/><path d="m-168.53718 169.21341 2.33266 2.32824.0809-2.33349-2.68344-2.81478z"/></g><g transform="translate(-.034137 -.930958)"><g fill="none" stroke="#000" stroke-width=".528142" transform="matrix(0 -1 1 0 -318.56132 34.52438)"><path d="m-117.49266 164.58525c-.99337 2.84829-2.98761 4.31139-4.94346 4.3855-.84424-.1001-1.72027.32603-2.27177 1.39752-.82214 1.44157-.92368 3.96678-.0645 5.538.88483 1.6048 2.23052 1.95325 3.42782 2.39371.95448.31448 1.90726.84527 2.69129 1.87129.62877.71013 1.18703 1.60896 1.61307 2.66024"/><path d="m-117.63588 185.35705c-.45816-1.32201-.55054-2.53681-2.82446-4.39099-2.54277-2.02926-3.48876-.72184-5.49368-2.99-1.85065-1.99358-2.45619-5.44532-1.01366-8.38362 1.8102-2.08376 3.45772-2.18405 5.33032-2.56637 2.1525-.84718 2.34985-2.01138 3.02066-3.0988"/></g><path d="m-136.63805 153.89413-1.74027 2.47754-2.33349-.0809 1.65715-2.47454z"/><path d="m-152.5142 154.47629 1.17201 2.45399 1.81343-.48263-1.3474-2.69731z"/></g></g><path d="m68.454999 492.97619c-4.630814 0-8.358663 3.50882-8.358663 7.86722v15.86c0 4.35843 3.727849 7.86723 8.358663 7.86723h14.877127c4.630817 0 8.358663-3.5088 8.358663-7.86723v-15.86c0-4.3584-3.727846-7.86722-8.358663-7.86722zm1.581815 3.35846h11.713498c3.646246 0 6.582026 2.7632 6.582026 6.19495v12.48812c0 3.43178-2.93578 6.19448-6.582026 6.19448h-11.713498c-3.64625 0-6.582027-2.7627-6.582027-6.19448v-12.48812c0-3.43175 2.935777-6.19495 6.582027-6.19495z" fill="#bebebe" stroke="#000" stroke-width=".7"/><g transform="matrix(1.6131188 0 0 1.6131188 286.99935 362.62867)"><path d="m-136.525 86.298669c1.06152.01969 2.25787.835359 3.24523 1.967281.71094.921193 1.35516 2.333869 2.37202 2.305194 1.11674-.09546 1.79771-1.85563 2.26425-2.61408.60005-.772368 1.86801-1.473774 3.11455-1.632758-.96254.485085-2.70579 1.161476-3.17383 2.609811-.64502 1.370997-1.46816 2.166998-2.17156 2.271777-.8909.0882-1.7818-1.373466-2.50566-2.204968-.62363-.969662-2.12047-2.349585-3.145-2.702257z"/><path d="m-132.07706 90.270468c.1058 1.063498-.096 2.43464 1.10249 2.405407 1.03926-.07436.92647-1.300763 1.03566-2.305183-.66851.806472-1.38055.785991-2.13815-.100224z" fill="none" stroke="#000" stroke-width=".4"/></g></g></svg>