<svg height="31.358999mm" viewBox="0 0 27.117003 31.358999" width="27.117002mm" xmlns="http://www.w3.org/2000/svg" xmlns:xlink="http://www.w3.org/1999/xlink"><clipPath id="a"><path d="m0 2834.646h2834.646v-2834.646h-2834.646z" transform="translate(-101.8765 -1555.7911)"/></clipPath><linearGradient id="b" gradientUnits="userSpaceOnUse" x1="661.7894" x2="661.7894" y1="8.19215" y2="-67.2094"><stop offset="0" stop-color="#ffdba6"/><stop offset="1" stop-color="#f2c478"/></linearGradient><g clip-path="url(#a)" stroke-miterlimit="10" transform="matrix(.35277776 0 0 -.35277776 19.49824 6.831264)"><path d="m0 0-16.217 5.989c-.397.146-.844.146-1.241 0l-16.216-5.989c-.531-.196-.903-.627-.975-1.131l-7.687-53.534c-.122-.848.627-1.598 1.595-1.598h23.904 23.903c.969 0 1.717.75 1.596 1.598l-7.687 53.534c-.073.504-.444.935-.975 1.131" fill="url(#b)"/><path d="m-40.740234-57.113281c-1.406573 0-2.637944 1.165724-2.4375 2.568359l7.6875 53.5351564c.120395.84276505.731595 1.5150809 1.521484 1.8066406l16.216797 5.9902344c.591076.2173731 1.237049.2173731 1.828125 0l16.21874988-5.9902344c.79021412-.29167981 1.39975132-.96618242 1.52148432-1.8066406l7.6875001-53.5351564c.2001345-1.402596-1.0297011-2.568359-2.4375001-2.568359h-23.9042972zm0 1.701172h23.902343 23.9042972c.5301992 0 .7957715.333551.7539063.626953l-7.6875 53.5332029c-.0242668.1675408-.1559496.3547583-.42773438.4550781l-16.21679712 5.9882812c-.202585.07396-.450026.074404-.652343 0l-16.214844-5.9882812c-.27211-.1004399-.40413-.2898442-.427735-.4550781l-7.6875-53.5332029c-.04208-.292456.225161-.626953.753907-.626953z" fill="#4d3608"/></g><path d="m315.38848 14.395583q-.19762.131746-.23056.197619-.0659.06587-.29642.428173-1.41627-.625792-2.30555-1.28452l.49404-.592855q1.38333.988092 2.33849 1.251583zm-6.68609.691665q-.29643-.395237-.52698-.625792.95515-.428173 1.21864-.592855.19762-.09881 1.0869-.724601l.55992.494046q-1.0869.889283-2.33848 1.449202zm4.24879-2.766658v-1.943248h-2.66784v1.943248zm-2.66784-3.458323v.889283h4.7099v.625792h-1.31745v1.943248h1.77856v.658728h-7.34482v-.658728h1.41627v-4.1829239l.62579.1317456q.26349 0 1.54801-.1976184 1.35039-.1976184 2.50317-.4940461l.3623.6916645q-2.33849.4611097-4.28173.5928553z" stroke-width=".35424" transform="matrix(.99587063 0 0 1.0041465 -296.93601 0)"/><g stroke-miterlimit="10"><path d="m-.63867187 11.337891v11.339843h1.27734374v-11.339843z" transform="matrix(.35277776 0 0 -.35277776 13.55845 24.679473)"/><path d="m-22.677734-.63867187v1.27734374h22.677734v-1.27734374z" transform="matrix(.35277776 0 0 -.35277776 17.55846 20.679476)"/></g></svg>