<?xml version="1.0" encoding="UTF-8" standalone="no"?>
<!-- Created with Inkscape (http://www.inkscape.org/) -->

<svg
   width="26mm"
   height="30mm"
   viewBox="0 0 26 30"
   version="1.1"
   id="svg1"
   xmlns:xlink="http://www.w3.org/1999/xlink"
   xmlns="http://www.w3.org/2000/svg"
   xmlns:svg="http://www.w3.org/2000/svg">
  <defs
     id="defs1">
    <linearGradient
       id="linearGradient22">
      <stop
         style="stop-color:#ffdba6;stop-opacity:1;"
         offset="0"
         id="stop21" />
      <stop
         style="stop-color:#f2c478;stop-opacity:1;"
         offset="1"
         id="stop22" />
    </linearGradient>
    <clipPath
       clipPathUnits="userSpaceOnUse"
       id="clipPath1330-86-6-46-4">
      <path
         d="M 0,2834.646 H 2834.646 V 0 H 0 Z"
         transform="translate(-461.11531,-1560.2174)"
         id="path1330-98-2-4-3" />
    </clipPath>
    <linearGradient
       xlink:href="#linearGradient22"
       id="linearGradient11"
       gradientUnits="userSpaceOnUse"
       gradientTransform="translate(1310.3143,-721.93921)"
       x1="-343.52951"
       y1="740.87885"
       x2="-343.52951"
       y2="655.83948" />
  </defs>
  <g
     id="layer1"
     transform="translate(-360)">
    <g
       id="path3151"
       clip-path="url(#clipPath1330-86-6-46-4)"
       transform="matrix(0.35277776,0,0,-0.35277776,380.67115,4.5899251)">
      <path
         style="color:#000000;fill:url(#linearGradient11);stroke-miterlimit:10;-inkscape-stroke:none"
         d="m 0,0 -21.223,7.255 c -0.337,0.115 -0.707,0.115 -1.044,0 L -43.49,0 c -0.512,-0.175 -0.879,-0.593 -0.956,-1.088 L -54.328,-64.8 c -0.128,-0.823 0.569,-1.559 1.477,-1.559 h 31.106 31.106 c 0.907,0 1.605,0.736 1.477,1.559 L 0.955,-1.088 C 0.879,-0.593 0.512,-0.175 0,0"
         id="path157" />
      <path
         style="color:#000000;fill:#4d3608;stroke-miterlimit:10;-inkscape-stroke:none"
         d="m -52.851562,-67.208984 c -1.367537,0 -2.528283,1.176762 -2.316407,2.539062 l 9.88086,63.71289075 c 0.128904,0.82867416 0.735013,1.49290547 1.521484,1.76171875 l 21.224609,7.2558594 c 0.517057,0.1764437 1.07474,0.1764437 1.591797,0 h 0.002 L 0.27539063,0.8046875 C 1.0612847,0.53607135 1.6668921,-0.12796836 1.7949219,-0.95703125 v -0.001953 L 11.677734,-64.669922 c 0.21198,-1.362964 -0.949363,-2.539062 -2.3164059,-2.539062 H -21.744141 Z m 0,1.701172 h 31.107421 31.1054691 c 0.4469549,0 0.6807389,0.293137 0.6367188,0.576171 v 0.002 L 0.11523437,-1.2167969 c -0.02457878,0.1600856 -0.15309689,0.33092303 -0.390625,0.4121094 L -21.498047,6.4511719 v -0.00195 c -0.156942,0.053556 -0.337198,0.053556 -0.49414,0 v 0.00195 l -21.222657,-7.2558594 c -0.237528,-0.0811864 -0.36553,-0.2527376 -0.390625,-0.4140625 l -9.882812,-63.710937 v -0.002 c -0.04412,-0.283698 0.188257,-0.576171 0.636719,-0.576171 z"
         id="path158" />
    </g>
    <path
       style="stroke-width:0.352777"
       d="M 370.09307,9.9306722 V 9.3022866 h 5.58933 v 1.7197924 h -4.99401 l -0.1323,0.496094 h 5.49011 q -0.0331,0.926042 -0.13229,1.389063 -0.0992,0.23151 -0.29766,0.330729 -0.33073,0.165365 -1.19062,0.264584 -0.13229,-0.429948 -0.36381,-0.760678 h 0.82683 q 0.0992,0 0.13229,-0.03307 0.0331,-0.03307 0.0992,-0.23151 l 0.0331,-0.396875 h -4.69635 l -0.0992,0.396875 -0.76068,-0.198438 0.42995,-1.819011 h 4.86172 V 9.9306722 Z m 4.63021,-2.4143238 q 0.36381,-0.3638023 0.66146,-0.7606774 h -1.25677 q 0.29766,0.4299481 0.59531,0.7606774 z m -1.78593,-1.422136 h 2.84427 l 0.0992,-0.033073 0.49609,0.496094 q -0.62839,0.8598962 -0.66146,0.8929691 -0.0331,0.066146 -0.19844,0.2315105 -0.16536,0.1653646 -0.26458,0.2976564 0.79375,0.4960939 1.65365,0.6614586 -0.36381,0.3307293 -0.56224,0.6945315 -0.46302,-0.1322917 -0.82683,-0.3968752 -0.39687,-0.2315105 -0.82682,-0.5622398 -0.39687,0.2976564 -0.76068,0.4299481 -0.3638,0.1653647 -0.92604,0.3307293 -0.16536,-0.3968751 -0.39687,-0.6614586 0.7276,-0.1653646 0.92604,-0.2645834 0.3638,-0.1322917 0.62838,-0.2976564 -0.56224,-0.7606774 -0.82682,-1.1575525 h -0.39687 z m -2.21589,0.8268232 -0.23151,0.5291669 0.85989,0.2976564 q 0.26459,-0.6283857 0.33073,-0.8268233 z m 1.25677,1.0914067 0.59531,0.2976564 -0.39687,0.6283856 -0.66146,-0.3968751 q -0.66146,0.4299481 -0.99219,0.5622398 -0.69453,0.2315105 -1.19062,0.3307293 -0.1323,-0.2976564 -0.33073,-0.5953128 0.69453,-0.1322917 1.12448,-0.2976563 0.42994,-0.1322917 0.7276,-0.2976564 l -0.59531,-0.2645834 -0.13229,0.2315105 -0.66146,-0.2976564 0.42995,-0.9921879 H 369.2001 V 6.3257229 h 0.92605 q 0.0331,-0.066146 0.29765,-0.7276045 l 0.76068,0.2315105 -0.19844,0.496094 h 1.55443 q -0.13229,0.6283856 -0.26458,0.926042 -0.1323,0.3638022 -0.29766,0.7606774 z"
       id="text3152"
       aria-label="弩" />
    <path
       style="color:#000000;fill:#000000 icc-color(sRGB-IEC61966-2, 0.1, 0, 0, 0);stroke-miterlimit:10;-inkscape-stroke:none"
       d="M -0.63867187,0 V 23.693359 H 0.63867187 V 0 Z"
       id="path3589"
       transform="matrix(0.24945155,0.24945155,0.24945155,-0.24945155,369.999,24.243069)" />
    <path
       style="color:#000000;fill:#000000 icc-color(sRGB-IEC61966-2, 0.1, 0, 0, 0);stroke-miterlimit:10;-inkscape-stroke:none"
       d="M -23.693359,-0.63867187 V 0.63867187 H 0 v -1.27734374 z"
       id="path3591"
       transform="matrix(0.24945155,0.24945155,0.24945155,-0.24945155,375.90936,24.243087)" />
    <path
       style="color:#000000;fill:#000000;stroke-miterlimit:10;-inkscape-stroke:none"
       d="M -0.28515625,-0.28515625 -3.2910156,2.7226563 -2.7226563,3.2910156 0.28515625,0.28515625 Z"
       id="path3593"
       transform="matrix(0,-0.55928609,-0.55929249,0,377.33033,23.982512)" />
    <path
       style="color:#000000;fill:#000000;stroke-miterlimit:10;-inkscape-stroke:none"
       d="M -0.28515625,-0.28515625 -3.2910156,2.7226563 -2.7226563,3.2910156 0.28515625,0.28515625 Z"
       id="path3595"
       transform="matrix(0,-0.55928609,-0.55929249,0,370.25935,16.911512)" />
    <path
       style="color:#000000;fill:#000000;stroke-miterlimit:10;-inkscape-stroke:none"
       d="M -0.28515625,-0.28515625 -3.2910156,2.7226563 -2.7226563,3.2910156 0.28515625,0.28515625 Z"
       id="path3597"
       transform="matrix(0.55928609,0,0,-0.55929249,370.25903,25.664579)" />
    <path
       style="color:#000000;fill:#000000;stroke-miterlimit:10;-inkscape-stroke:none"
       d="M 0.28515625,-0.28515625 -0.28515625,0.28515625 2.7226563,3.2910156 3.2910156,2.7226563 Z"
       id="path3599"
       transform="matrix(0,0.55928609,0.55929249,0,375.64899,16.911356)" />
    <path
       style="color:#000000;fill:#000000;stroke-miterlimit:10;-inkscape-stroke:none"
       d="M 0.40429688,-0.40429688 -0.40429688,0.40429688 2.1484375,2.9570313 4.7011719,0.40429688 3.890625,-0.40429688 2.1484375,1.3398437 Z"
       id="path3601"
       transform="matrix(0.27796635,0.27796635,0.27796648,-0.27796648,374.71509,18.332695)" />
    <path
       style="color:#000000;fill:#000000;stroke-miterlimit:10;-inkscape-stroke:none"
       d="m -2.1484375,-2.9570313 -2.5527344,2.55273442 0.8105469,0.80859376 1.7421875,-1.74414058 1.74414062,1.74414058 0.80859376,-0.80859376 z"
       id="path3603"
       transform="matrix(0.27796635,0.27796635,0.27796648,-0.27796648,371.19282,24.243087)" />
    <path
       style="color:#000000;fill:#000000;stroke-miterlimit:10;-inkscape-stroke:none"
       d="M 0.40429688,-0.40429688 -0.40429688,0.40429688 2.1484375,2.9570313 4.7011719,0.40429688 3.890625,-0.40429688 2.1484375,1.3398437 Z"
       id="path3605"
       transform="matrix(-0.27796635,0.27796635,0.27796648,0.27796648,375.90915,23.049033)" />
    <path
       style="color:#000000;fill:#000000;stroke-miterlimit:10;-inkscape-stroke:none"
       d="m -2.1484375,-2.9570313 -2.5527344,2.55273442 0.8105469,0.80859376 1.7421875,-1.74414058 1.74414062,1.74414058 0.80859376,-0.80859376 z"
       id="path3607"
       transform="matrix(-0.27796635,0.27796635,0.27796648,0.27796648,369.99876,19.526752)" />
  </g>
</svg>
