<?xml version="1.0" encoding="UTF-8" standalone="no"?>
<!-- Created with Inkscape (http://www.inkscape.org/) -->

<svg
   width="27.117002mm"
   height="31.358999mm"
   viewBox="0 0 27.117003 31.358999"
   version="1.1"
   id="svg1"
   xmlns:xlink="http://www.w3.org/1999/xlink"
   xmlns="http://www.w3.org/2000/svg"
   xmlns:svg="http://www.w3.org/2000/svg">
  <defs
     id="defs1">
    <linearGradient
       id="linearGradient69">
      <stop
         style="stop-color:#ffdba6;stop-opacity:1;"
         offset="0"
         id="stop69" />
      <stop
         style="stop-color:#f2c478;stop-opacity:1;"
         offset="1"
         id="stop68" />
    </linearGradient>
    <clipPath
       clipPathUnits="userSpaceOnUse"
       id="clipPath1330-86-6-46-4">
      <path
         d="M 0,2834.646 H 2834.646 V 0 H 0 Z"
         transform="translate(-461.11531,-1560.2174)"
         id="path1330-98-2-4-3" />
    </clipPath>
    <linearGradient
       xlink:href="#linearGradient69"
       id="linearGradient2"
       gradientUnits="userSpaceOnUse"
       gradientTransform="translate(1943.6465,-721.51522)"
       x1="-1793.3979"
       y1="736.45245"
       x2="-1793.3979"
       y2="647.56079" />
  </defs>
  <g
     id="path1329-5-1-8-0"
     clip-path="url(#clipPath1330-86-6-46-4)"
     transform="matrix(0.35277776,0,0,-0.35277776,21.229644,5.2695153)">
    <path
       style="color:#000000;fill:url(#linearGradient2);stroke-miterlimit:10;-inkscape-stroke:none"
       d="m 0,0 -21.223,7.255 c -0.337,0.115 -0.707,0.115 -1.044,0 L -43.49,0 c -0.512,-0.175 -0.879,-0.593 -0.956,-1.088 L -54.328,-64.8 c -0.128,-0.823 0.569,-1.559 1.477,-1.559 h 31.106 31.106 c 0.907,0 1.605,0.736 1.477,1.559 L 0.955,-1.088 C 0.879,-0.593 0.512,-0.175 0,0"
       id="path127" />
    <path
       style="color:#000000;fill:#4d3608;stroke-miterlimit:10;-inkscape-stroke:none"
       d="m -52.851562,-67.208984 c -1.367537,0 -2.528283,1.176762 -2.316407,2.539062 l 9.88086,63.71289075 c 0.128904,0.82867416 0.735013,1.49290547 1.521484,1.76171875 l 21.224609,7.2558594 c 0.517057,0.1764437 1.07474,0.1764437 1.591797,0 h 0.002 L 0.27539063,0.8046875 C 1.0612847,0.53607135 1.6668921,-0.12796836 1.7949219,-0.95703125 v -0.001953 L 11.677734,-64.669922 c 0.21198,-1.362964 -0.949363,-2.539062 -2.3164059,-2.539062 H -21.744141 Z m 0,1.701172 h 31.107421 31.1054691 c 0.4469549,0 0.6807389,0.293137 0.6367188,0.576171 v 0.002 L 0.11523437,-1.2167969 c -0.02457878,0.1600856 -0.15309689,0.33092303 -0.390625,0.4121094 L -21.498047,6.4511719 v -0.00195 c -0.156942,0.053556 -0.337198,0.053556 -0.49414,0 v 0.00195 l -21.222657,-7.2558594 c -0.237528,-0.0811864 -0.36553,-0.2527376 -0.390625,-0.4140625 l -9.882812,-63.710937 v -0.002 c -0.04412,-0.283698 0.188257,-0.576171 0.636719,-0.576171 z"
       id="path128" />
  </g>
  <path
     style="fill:#000000 icc-color(sRGB-IEC61966-2, 0.1, 0, 0, 0);stroke-width:0.352777"
     d="M 10.651571,10.610245 V 9.9818596 h 5.589326 v 1.7197924 h -4.994013 l -0.132292,0.496094 h 5.490107 q -0.03307,0.926042 -0.132292,1.389063 -0.09922,0.23151 -0.297656,0.330729 -0.33073,0.165365 -1.190626,0.264584 -0.132291,-0.429948 -0.363802,-0.760678 h 0.826823 q 0.09922,0 0.132292,-0.03307 0.03307,-0.03307 0.09922,-0.23151 l 0.03307,-0.396875 h -4.696356 l -0.09922,0.396875 -0.760678,-0.198438 0.429949,-1.819011 h 4.86172 v -0.52917 z M 15.281782,8.1959214 Q 15.645584,7.8321192 15.94324,7.435244 h -1.256771 q 0.297656,0.4299481 0.595313,0.7606774 z m -1.785939,-1.422136 h 2.844272 l 0.09922,-0.033073 0.496094,0.4960939 Q 16.307043,8.0967025 16.27397,8.1297755 16.2409,8.1959215 16.075533,8.361286 15.910168,8.5266506 15.810949,8.6589423 16.6047,9.1550363 17.464596,9.3204009 17.100794,9.6511302 16.902356,10.014933 16.439334,9.8826408 16.075532,9.6180574 15.678657,9.3865469 15.248709,9.0558176 14.851834,9.353474 14.488031,9.4857657 14.124229,9.6511303 13.561989,9.816495 13.396625,9.4196198 13.165114,9.1550364 13.892719,8.9896717 14.091156,8.8904529 14.454958,8.7581612 14.719542,8.5927966 14.157302,7.8321192 13.892719,7.435244 h -0.396876 z m -2.215886,0.8268233 -0.23151,0.5291669 0.859896,0.2976563 q 0.264583,-0.6283856 0.330729,-0.8268232 z m 1.256771,1.0914067 0.595313,0.2976563 -0.396875,0.6283857 -0.661459,-0.3968752 Q 11.412249,9.6511303 11.08152,9.783422 10.386988,10.014933 9.8908943,10.114151 9.7586023,9.816495 9.5601653,9.5188386 10.254696,9.3865469 10.684644,9.2211822 11.114592,9.0888905 11.412249,8.9235259 L 10.816936,8.6589424 10.684644,8.8904529 10.023186,8.5927966 10.453134,7.6006087 H 9.7586023 V 7.0052959 h 0.9260417 q 0.03307,-0.066146 0.297657,-0.7276044 l 0.760677,0.2315105 -0.198437,0.4960939 h 1.554427 Q 12.966677,7.6336816 12.834385,7.931338 12.702093,8.2951402 12.536728,8.6920154 Z"
     id="text1330-1-8-2-2"
     aria-label="弩" />
  <path
     style="color:#000000;fill:#000000 icc-color(sRGB-IEC61966-2, 0.1, 0, 0, 0);stroke-width:0.352778;stroke-miterlimit:10;-inkscape-stroke:none"
     d="m 16.262238,23.793774 -5.910345,-5.910345 0.318635,-0.318636 5.910346,5.910345 z"
     id="path1317-1-0-34-9" />
  <path
     style="color:#000000;fill:#000000 icc-color(sRGB-IEC61966-2, 0.1, 0, 0, 0);stroke-width:0.352778;stroke-miterlimit:10;-inkscape-stroke:none"
     d="m 10.670554,23.79375 -0.318635,-0.318636 5.910345,-5.910345 0.318636,0.318636 z"
     id="path1323-3-0-7-7" />
  <path
     style="color:#000000;fill:#000000;stroke-width:0.559289;stroke-miterlimit:10;-inkscape-stroke:none"
     d="m 16.320505,16.143604 1.681135,1.682247 -0.317875,0.317879 -1.682228,-1.681154 z"
     id="path4451-7-08-5-0-09-7" />
  <path
     style="color:#000000;fill:#000000;stroke-width:0.559289;stroke-miterlimit:10;-inkscape-stroke:none"
     d="m 9.2494623,23.214646 1.6811347,1.682247 -0.317875,0.317879 -1.6822277,-1.681154 z"
     id="path4451-7-08-1-97-9" />
  <path
     style="color:#000000;fill:#000000;stroke-width:0.559289;stroke-miterlimit:10;-inkscape-stroke:none"
     d="m 18.002516,23.533854 -1.682247,1.681135 -0.317879,-0.317875 1.681154,-1.682228 z"
     id="path4451-7-08-5-4-29-82-5" />
  <path
     style="color:#000000;fill:#000000;stroke-width:0.559289;stroke-miterlimit:10;-inkscape-stroke:none"
     d="m 9.2493573,18.143976 -0.318968,-0.318972 1.6822277,-1.681154 0.317875,0.317879 z"
     id="path4449-0-4-3-4-95-3" />
  <path
     style="color:#000000;fill:#000000;stroke-width:0.393104;stroke-miterlimit:10;-inkscape-stroke:none"
     d="m 10.735923,18.918364 h -0.449524 v -1.419149 h 1.419149 l -5.43e-4,0.450067 -0.969082,-5.43e-4 z"
     id="path4671-0-44-2-3" />
  <path
     style="color:#000000;fill:#000000;stroke-width:0.393104;stroke-miterlimit:10;-inkscape-stroke:none"
     d="m 16.646318,23.859778 h -1.419149 l 5.43e-4,-0.450067 0.969082,5.43e-4 v -0.969625 h 0.449524 z"
     id="path4673-4-0-0-3" />
  <path
     style="color:#000000;fill:#000000;stroke-width:0.393104;stroke-miterlimit:10;-inkscape-stroke:none"
     d="m 15.227491,17.949061 v -0.449524 h 1.419149 l -1e-6,1.419149 -0.450066,-5.43e-4 5.43e-4,-0.969082 z"
     id="path4671-0-44-9-85-8" />
  <path
     style="color:#000000;fill:#000000;stroke-width:0.393104;stroke-miterlimit:10;-inkscape-stroke:none"
     d="m 10.286077,23.859456 v -1.419149 l 0.450067,5.43e-4 -5.43e-4,0.969082 h 0.969625 v 0.449524 z"
     id="path4673-4-0-6-7-5" />
</svg>
