<svg height="31.358999mm" viewBox="0 0 27.117003 31.358999" width="27.117002mm" xmlns="http://www.w3.org/2000/svg" xmlns:xlink="http://www.w3.org/1999/xlink"><linearGradient id="a" gradientUnits="userSpaceOnUse" x1="676.3163" x2="676.3163" y1="14.93723" y2="-73.95443"><stop offset="0" stop-color="#ffdba6"/><stop offset="1" stop-color="#f2c478"/></linearGradient><clipPath id="b"><path d="m0 2834.646h2834.646v-2834.646h-2834.646z" transform="translate(-461.11531 -1475.1781)"/></clipPath><clipPath id="c"><path d="m0 2834.646h2834.646v-2834.646h-2834.646z" transform="translate(-494.73181 -43.851026)"/></clipPath><clipPath id="d"><path d="m0 2834.646h2834.646v-2834.646h-2834.646z" transform="translate(-494.73181 -43.851026)"/></clipPath><clipPath id="e"><path d="m0 2834.646h2834.646v-2834.646h-2834.646z" transform="translate(-494.73181 -43.851026)"/></clipPath><clipPath id="f"><path d="m0 2834.646h2834.646v-2834.646h-2834.646z" transform="translate(-491.72521 -43.851026)"/></clipPath><clipPath id="g"><path d="m0 2834.646h2834.646v-2834.646h-2834.646z" transform="translate(-1148.7975 -1175.6119)"/></clipPath><clipPath id="h"><path d="m0 2834.646h2834.646v-2834.646h-2834.646z" transform="translate(-1148.7975 -1175.6119)"/></clipPath><clipPath id="i"><path d="m0 2834.646h2834.646v-2834.646h-2834.646z" transform="translate(-1148.7975 -1175.6119)"/></clipPath><clipPath id="j"><path d="m0 2834.646h2834.646v-2834.646h-2834.646z" transform="translate(-1148.7975 -1175.6119)"/></clipPath><g clip-path="url(#b)" stroke-miterlimit="10" transform="matrix(.35277776 0 0 -.35277776 21.229636 5.269515)"><path d="m0 0-21.223 7.255c-.337.115-.707.115-1.044 0l-21.223-7.255c-.512-.175-.879-.592-.956-1.088l-9.882-63.712c-.128-.823.569-1.559 1.477-1.559h31.106 31.106c.907 0 1.605.736 1.477 1.559l-9.883 63.712c-.076.496-.443.913-.955 1.088" fill="url(#a)"/><path d="m-52.851562-67.208984c-1.367537 0-2.528283 1.176762-2.316407 2.539062l9.88086 63.71289075c.128752.82936477.735951 1.49322613 1.521484 1.76171875l21.224609 7.2558594c.517057.1764437 1.07474.1764437 1.591797 0h.002l21.22260963-7.2558594c.78495737-.26829599 1.39165257-.93197308 1.51953127-1.76171875v-.001953l9.8828121-63.71093775c.21198-1.362964-.949363-2.539062-2.3164059-2.539062h-31.1054691zm0 1.701172h31.107421 31.1054691c.4469549 0 .6807389.293137.6367188.576171v.002l-9.88281253 63.7128441c-.02473099.1614023-.15215872.33060237-.390625.4121094l-21.22265637 7.2558594v-.00195c-.156942.053556-.337198.053556-.49414 0v.00195l-21.222657-7.2558594c-.238466-.081507-.365377-.2514283-.390625-.4140625l-9.882812-63.710937v-.002c-.04412-.283698.188257-.576171.636719-.576171z" fill="#4d3608"/></g><g fill="#f00"><g clip-path="url(#c)" stroke-miterlimit="10" transform="matrix(0 -.55928609 -.55929249 0 18.288666 23.727695)"><path d="m0 0-3.007 3.007"/><path d="m-.28515625-.28515625-3.00585935 3.00781255.5683593.5683593 3.00781255-3.00585935z"/></g><g clip-path="url(#d)" stroke-miterlimit="10" transform="matrix(0 -.55928609 -.55929249 0 10.510526 15.949554)"><path d="m0 0-3.007 3.007"/><path d="m-.28515625-.28515625-3.00585935 3.00781255.5683593.5683593 3.00781255-3.00585935z"/></g><g clip-path="url(#e)" stroke-miterlimit="10" transform="matrix(.55928609 0 0 -.55929249 10.510236 25.409757)"><path d="m0 0-3.007 3.007"/><path d="m-.28515625-.28515625-3.00585935 3.00781255.5683593.5683593 3.00781255-3.00585935z"/></g><g clip-path="url(#f)" stroke-miterlimit="10" transform="matrix(0 .55928609 .55929249 0 16.607286 15.949422)"><path d="m0 0 3.007 3.007"/><path d="m.28515625-.28515625-.5703125.5703125 3.00781255 3.00585935.5683593-.5683593z"/></g><path d="m10.217376 23.702416 6.36394-6.363937.31864.318635-6.36394 6.363938z" stroke-miterlimit="10" stroke-width=".352778"/><path d="m9.3764264 18.178861 1.6822396-1.681135.31788.317875-1.6811496 1.682228z" stroke-miterlimit="10" stroke-width=".559289"/><path d="m17.422006 22.86119.31896.318972-1.68222 1.681154-.31788-.317879z" stroke-miterlimit="10" stroke-width=".559289"/><path d="m11.058116 24.86188-1.6811396-1.682247.31788-.317879 1.6822196 1.681154z" stroke-miterlimit="10" stroke-width=".559289"/><path d="m15.740446 16.816269.31897-.318968 1.68115 1.682228-.31788.317875z" stroke-miterlimit="10" stroke-width=".559289"/><path d="m10.217426 17.656653.31863-.318635 6.36394 6.363938-.31863.318635z" stroke-miterlimit="10" stroke-width=".352778"/><path clip-path="url(#g)" d="m0 0c-.423-.423-1.109-.423-1.532 0s-.423 1.109 0 1.532 1.109.423 1.532 0 .423-1.109 0-1.532z" transform="matrix(0 .51095647 .50444971 0 11.050936 21.070935)"/><path clip-path="url(#h)" d="m0 0c-.423-.423-1.109-.423-1.532 0s-.423 1.109 0 1.532 1.109.423 1.532 0 .423-1.109 0-1.532z" transform="matrix(0 .51095647 .50444971 0 15.293606 21.070908)"/><path clip-path="url(#i)" d="m0 0c-.423-.423-1.109-.423-1.532 0s-.423 1.109 0 1.532 1.109.423 1.532 0 .423-1.109 0-1.532z" transform="matrix(.51095647 0 0 -.50444971 13.950076 23.187231)"/><path clip-path="url(#j)" d="m0 0c-.423-.423-1.109-.423-1.532 0s-.423 1.109 0 1.532 1.109.423 1.532 0 .423-1.109 0-1.532z" transform="matrix(.51095647 0 0 -.50444971 13.950076 18.944611)"/><path d="m9.6271964 6.5645801.5953096.23151-.2976496.562239h1.6619096l.0992-.066146.34726.4960932q-.0496.033073-.79375 1.0252591h1.73633v4.6632756q0 .330729-.19844.595312-.22324.264583-.96737.297656 0-.264584-.0249-.330729 0-.03307-.0496-.165364-.0496-.06614-.12403-.264583h.64492q.0496 0 .0744-.03307.0248-.03307.0248-.09922v-.992186h-3.1749896q-.0496.231509-.32247 1.025259-.14882.297656-.49609.760676-.17363-.330728-.44648-.595312.47129-.628384.59531-1.02526.12403-.496092.17363-.926039.0496-.859895.0496-2.5796852-.39688.4960932-.62012.6614576-.14883-.3307287-.39687-.5953117.5457-.4630204.94258-.9921863.44648-.6614576.96737-1.6536438zm-.64492 2.2489555h1.5874996l.5209-.793749h-1.5626896q-.19844.264583-.32247.4630203-.12402.1984372-.22324.3307287zm2.0835896 1.4882794h1.28985v-.8268218h-1.28985zm-.57051-.8268218h-1.1906196v.8268218h1.1906196zm.57051 2.3481748h1.28985v-.926041h-1.28985zm-1.7859296 0h1.2154196v-.926041h-1.1906196q-.0248.297656-.0248.926041zm5.3577996-3.9356728v-.7276034h4.46484v2.7450487h-.59531v-.1653643h-3.07578l-.17363 1.1575508h4.14237q-.0992 1.885154-.22323 2.64583-.0744.429948-.32247.628384-.24804.198438-.99218.198438-.0248-.165365-.0744-.297656-.0248-.132291-.0496-.264583-.0248-.09922-.0744-.23151h.59531q.27285 0 .29766-.09922.0496-.165363.17363-1.918226h-3.57187l-.12403.661457-.57051-.198437.24805-1.455207q.14883-1.1575501.19844-1.5213518h3.59667v-1.157546z" stroke-width=".352777"/></g></svg>