<?xml version="1.0" encoding="UTF-8" standalone="no"?>
<!-- Created with Inkscape (http://www.inkscape.org/) -->

<svg
   width="26mm"
   height="30mm"
   viewBox="0 0 26 30"
   version="1.1"
   id="svg1"
   xmlns:xlink="http://www.w3.org/1999/xlink"
   xmlns="http://www.w3.org/2000/svg"
   xmlns:svg="http://www.w3.org/2000/svg">
  <defs
     id="defs1">
    <linearGradient
       id="linearGradient22">
      <stop
         style="stop-color:#ffdba6;stop-opacity:1;"
         offset="0"
         id="stop21" />
      <stop
         style="stop-color:#f2c478;stop-opacity:1;"
         offset="1"
         id="stop22" />
    </linearGradient>
    <clipPath
       clipPathUnits="userSpaceOnUse"
       id="clipPath2004-1-8-2-55-5-4-2-28-4-2-8-8-50">
      <path
         d="M 0,2834.646 H 2834.646 V 0 H 0 Z"
         transform="translate(-1148.7975,-1175.6119)"
         id="path2004-0-0-7-1-8-7-0-6-1-8-7-4-4" />
    </clipPath>
    <clipPath
       clipPathUnits="userSpaceOnUse"
       id="clipPath1374-00-0-1-6-9">
      <path
         d="M 0,2834.646 H 2834.646 V 0 H 0 Z"
         transform="translate(-461.11531,-1475.1781)"
         id="path1374-9-6-4-7-0" />
    </clipPath>
    <linearGradient
       xlink:href="#linearGradient22"
       id="linearGradient17"
       gradientUnits="userSpaceOnUse"
       gradientTransform="translate(1922.5975,-721.93921)"
       x1="-343.52951"
       y1="740.87885"
       x2="-343.52951"
       y2="655.83948" />
  </defs>
  <g
     id="layer1"
     transform="translate(-576)">
    <g
       id="path3369"
       clip-path="url(#clipPath1374-00-0-1-6-9)"
       transform="matrix(0.35277776,0,0,-0.35277776,596.67115,4.5899251)">
      <path
         style="color:#000000;fill:url(#linearGradient17);stroke-miterlimit:10;-inkscape-stroke:none"
         d="m 0,0 -21.223,7.255 c -0.337,0.115 -0.707,0.115 -1.044,0 L -43.49,0 c -0.512,-0.175 -0.879,-0.592 -0.956,-1.088 L -54.328,-64.8 c -0.128,-0.823 0.569,-1.559 1.477,-1.559 h 31.106 31.106 c 0.907,0 1.605,0.736 1.477,1.559 L 0.955,-1.088 C 0.879,-0.592 0.512,-0.175 0,0"
         id="path169" />
      <path
         style="color:#000000;fill:#4d3608;stroke-miterlimit:10;-inkscape-stroke:none"
         d="m -52.851562,-67.208984 c -1.367537,0 -2.528283,1.176762 -2.316407,2.539062 l 9.88086,63.71289075 c 0.128752,0.82936477 0.735951,1.49322613 1.521484,1.76171875 l 21.224609,7.2558594 c 0.517057,0.1764437 1.07474,0.1764437 1.591797,0 h 0.002 L 0.27539063,0.8046875 C 1.060348,0.53639151 1.6670432,-0.12728558 1.7949219,-0.95703125 v -0.001953 L 11.677734,-64.669922 c 0.21198,-1.362964 -0.949363,-2.539062 -2.3164059,-2.539062 H -21.744141 Z m 0,1.701172 h 31.107421 31.1054691 c 0.4469549,0 0.6807389,0.293137 0.6367188,0.576171 v 0.002 L 0.11523437,-1.2167969 c -0.02473099,0.1614023 -0.15215872,0.33060237 -0.390625,0.4121094 L -21.498047,6.4511719 v -0.00195 c -0.156942,0.053556 -0.337198,0.053556 -0.49414,0 v 0.00195 l -21.222657,-7.2558594 c -0.238466,-0.081507 -0.365377,-0.2514283 -0.390625,-0.4140625 l -9.882812,-63.710937 v -0.002 c -0.04412,-0.283698 0.188257,-0.576171 0.636719,-0.576171 z"
         id="path170" />
    </g>
    <path
       id="path3561"
       d="m 0,0 c -0.423,-0.423 -1.109,-0.423 -1.532,0 -0.423,0.423 -0.423,1.109 0,1.532 0.423,0.423 1.109,0.423 1.532,0 C 0.423,1.109 0.423,0.423 0,0 Z"
       style="fill:#ff0000;fill-opacity:1;stroke:none;stroke-width:0.88636;stroke-linecap:butt;stroke-linejoin:miter;stroke-miterlimit:10;stroke-dasharray:none;stroke-opacity:1"
       transform="matrix(0.51095647,0,0,-0.50444971,589.39214,17.431659)"
       clip-path="url(#clipPath2004-1-8-2-55-5-4-2-28-4-2-8-8-50)" />
    <path
       style="color:#000000;fill:#ff0000;stroke-miterlimit:10;-inkscape-stroke:none"
       d="M -0.63867187,-1.4179687 V 25.109375 H 0.63867187 V -1.4179687 Z"
       id="path3563"
       transform="matrix(0.24945155,0.24945155,0.24945155,-0.24945155,586.04553,24.172562)" />
    <path
       style="color:#000000;fill:#ff0000;stroke-miterlimit:10;-inkscape-stroke:none"
       d="M -25.111328,-0.63867187 V 0.63867187 H 1.4160156 v -1.27734374 z"
       id="path3565"
       transform="matrix(0.24945155,0.24945155,0.24945155,-0.24945155,591.9559,24.172581)" />
    <path
       style="color:#000000;fill:#ff0000;stroke-miterlimit:10;-inkscape-stroke:none"
       d="M -0.28515625,-0.28515625 -3.2910156,2.7226563 -2.7226563,3.2910156 0.28515625,0.28515625 Z"
       id="path3567"
       transform="matrix(0,-0.55928609,-0.55929249,0,591.25565,21.790791)" />
    <path
       style="color:#000000;fill:#ff0000;stroke-miterlimit:10;-inkscape-stroke:none"
       d="M -0.28515625,-0.28515625 -3.2910156,2.7226563 -2.7226563,3.2910156 0.28515625,0.28515625 Z"
       id="path3569"
       transform="matrix(0,-0.55928609,-0.55929249,0,588.42742,18.962554)" />
    <path
       style="color:#000000;fill:#ff0000;stroke-miterlimit:10;-inkscape-stroke:none"
       d="M -0.28515625,-0.28515625 -3.2910156,2.7226563 -2.7226563,3.2910156 0.28515625,0.28515625 Z"
       id="path3571"
       transform="matrix(0.55928609,0,0,-0.55929249,588.42689,23.472758)" />
    <path
       style="color:#000000;fill:#ff0000;stroke-miterlimit:10;-inkscape-stroke:none"
       d="M 0.28515625,-0.28515625 -0.28515625,0.28515625 2.7226563,3.2910156 3.2910156,2.7226563 Z"
       id="path3573"
       transform="matrix(0,0.55928609,0.55929249,0,589.57423,18.962155)" />
    <path
       style="color:#000000;fill:#ff0000;stroke-miterlimit:10;-inkscape-stroke:none"
       d="M 0.40429688,-0.40429688 -0.40429688,0.40429688 2.1484375,2.9570313 4.7011719,0.40429688 3.890625,-0.40429688 2.1484375,1.3398437 Z"
       id="path3575"
       transform="matrix(0.27796635,0.27796635,0.27796648,-0.27796648,591.11519,17.908637)" />
    <path
       style="color:#000000;fill:#ff0000;stroke-miterlimit:10;-inkscape-stroke:none"
       d="m -2.1484375,-2.9570313 -2.5527344,2.55273442 0.8105469,0.80859376 1.7421875,-1.74414058 1.74414062,1.74414058 0.80859376,-0.80859376 z"
       id="path3577"
       transform="matrix(0.27796635,0.27796635,0.27796648,-0.27796648,586.8858,24.526133)" />
    <path
       style="color:#000000;fill:#ff0000;stroke-miterlimit:10;-inkscape-stroke:none"
       d="M 0.40429688,-0.40429688 -0.40429688,0.40429688 2.1484375,2.9570313 4.7011719,0.40429688 3.890625,-0.40429688 2.1484375,1.3398437 Z"
       id="path3579"
       transform="matrix(-0.27796635,0.27796635,0.27796648,0.27796648,592.30928,23.332121)" />
    <path
       style="color:#000000;fill:#ff0000;stroke-miterlimit:10;-inkscape-stroke:none"
       d="m -2.1484375,-2.9570313 -2.5527344,2.55273442 0.8105469,0.80859376 1.7421875,-1.74414058 1.74414062,1.74414058 0.80859376,-0.80859376 z"
       id="path3581"
       transform="matrix(-0.27796635,0.27796635,0.27796648,0.27796648,585.6917,19.102646)" />
    <path
       id="path3583"
       d="m 0,0 c -0.423,-0.423 -1.109,-0.423 -1.532,0 -0.423,0.423 -0.423,1.109 0,1.532 0.423,0.423 1.109,0.423 1.532,0 C 0.423,1.109 0.423,0.423 0,0 Z"
       style="fill:#ff0000;fill-opacity:1;stroke:none;stroke-width:0.88636;stroke-linecap:butt;stroke-linejoin:miter;stroke-miterlimit:10;stroke-dasharray:none;stroke-opacity:1"
       transform="matrix(0.51095647,0,0,-0.50444971,593.63479,21.674306)"
       clip-path="url(#clipPath2004-1-8-2-55-5-4-2-28-4-2-8-8-50)" />
    <path
       id="path3585"
       d="m 0,0 c -0.423,-0.423 -1.109,-0.423 -1.532,0 -0.423,0.423 -0.423,1.109 0,1.532 0.423,0.423 1.109,0.423 1.532,0 C 0.423,1.109 0.423,0.423 0,0 Z"
       style="fill:#ff0000;fill-opacity:1;stroke:none;stroke-width:0.88636;stroke-linecap:butt;stroke-linejoin:miter;stroke-miterlimit:10;stroke-dasharray:none;stroke-opacity:1"
       transform="matrix(0.51095647,0,0,-0.50444971,585.14952,21.674274)"
       clip-path="url(#clipPath2004-1-8-2-55-5-4-2-28-4-2-8-8-50)" />
    <path
       id="path3587"
       d="m 0,0 c -0.423,-0.423 -1.109,-0.423 -1.532,0 -0.423,0.423 -0.423,1.109 0,1.532 0.423,0.423 1.109,0.423 1.532,0 C 0.423,1.109 0.423,0.423 0,0 Z"
       style="fill:#ff0000;fill-opacity:1;stroke:none;stroke-width:0.88636;stroke-linecap:butt;stroke-linejoin:miter;stroke-miterlimit:10;stroke-dasharray:none;stroke-opacity:1"
       transform="matrix(0.51095647,0,0,-0.50444971,589.39217,25.916923)"
       clip-path="url(#clipPath2004-1-8-2-55-5-4-2-28-4-2-8-8-50)" />
    <path
       style="fill:#ff0000;stroke-width:0.352777"
       d="m 586.55257,7.4860097 v -0.582083 h 4.7625 v 2.1960406 h -0.635 V 8.9676757 h -3.28084 l -0.1852,0.9260413 h 4.41854 q -0.10584,1.508124 -0.23813,2.116666 -0.0794,0.343958 -0.34396,0.502708 -0.26458,0.15875 -1.05833,0.15875 -0.0265,-0.132292 -0.0794,-0.238125 -0.0265,-0.105833 -0.0529,-0.211667 -0.0265,-0.07938 -0.0794,-0.185208 h 0.635 q 0.29104,0 0.3175,-0.07938 0.0529,-0.132292 0.18521,-1.534583 h -3.81 l -0.13229,0.529167 -0.60854,-0.15875 0.26458,-1.1641663 q 0.15875,-0.9260412 0.21167,-1.2170827 h 3.83646 V 7.4860097 Z"
       id="text3684"
       aria-label="弓" />
    <path
       style="color:#000000;fill:#ff0000;-inkscape-stroke:none"
       d="m 589,5.0371094 c -2.62039,0 -4.75,2.1296115 -4.75,4.75 0,2.6203886 2.12961,4.7499996 4.75,4.7499996 2.62039,0 4.75,-2.129611 4.75,-4.7499996 0,-2.6203885 -2.12961,-4.75 -4.75,-4.75 z m 0,0.5 c 2.35017,0 4.25,1.8998307 4.25,4.25 0,2.3501696 -1.89983,4.2499996 -4.25,4.2499996 -2.35017,0 -4.25,-1.89983 -4.25,-4.2499996 0,-2.3501693 1.89983,-4.25 4.25,-4.25 z"
       id="circle3687" />
  </g>
</svg>
