<svg height="31.358999mm" viewBox="0 0 27.117001 31.358999" width="27.117001mm" xmlns="http://www.w3.org/2000/svg" xmlns:xlink="http://www.w3.org/1999/xlink"><clipPath id="a"><path d="m0 2834.646h2834.646v-2834.646h-2834.646z" transform="translate(-461.11531 -1475.1781)"/></clipPath><clipPath id="b"><path d="m0 2834.646h2834.646v-2834.646h-2834.646z" transform="translate(-494.73181 -43.851026)"/></clipPath><clipPath id="c"><path d="m0 2834.646h2834.646v-2834.646h-2834.646z" transform="translate(-494.73181 -43.851026)"/></clipPath><clipPath id="d"><path d="m0 2834.646h2834.646v-2834.646h-2834.646z" transform="translate(-494.73181 -43.851026)"/></clipPath><clipPath id="e"><path d="m0 2834.646h2834.646v-2834.646h-2834.646z" transform="translate(-491.72521 -43.851026)"/></clipPath><clipPath id="f"><path d="m0 2834.646h2834.646v-2834.646h-2834.646z" transform="translate(-1148.7975 -1175.6119)"/></clipPath><clipPath id="g"><path d="m0 2834.646h2834.646v-2834.646h-2834.646z" transform="translate(-1148.7975 -1175.6119)"/></clipPath><clipPath id="h"><path d="m0 2834.646h2834.646v-2834.646h-2834.646z" transform="translate(-1148.7975 -1175.6119)"/></clipPath><clipPath id="i"><path d="m0 2834.646h2834.646v-2834.646h-2834.646z" transform="translate(-1148.7975 -1175.6119)"/></clipPath><linearGradient id="j" gradientUnits="userSpaceOnUse" x1="-179.91902" x2="-179.91902" y1="8.19215" y2="-67.2094"><stop offset="0" stop-color="#ffdba6"/><stop offset="1" stop-color="#f2c478"/></linearGradient><g clip-path="url(#a)" stroke-miterlimit="10" transform="matrix(.35277776 0 0 -.35277776 21.229651 5.269515)"><path d="m0 0-21.223 7.255c-.337.115-.707.115-1.044 0l-21.223-7.255c-.512-.175-.879-.592-.956-1.088l-9.882-63.712c-.128-.823.569-1.559 1.477-1.559h31.106 31.106c.907 0 1.605.736 1.477 1.559l-9.883 63.712c-.076.496-.443.913-.955 1.088" fill="url(#j)"/><path d="m-52.851562-67.208984c-1.367537 0-2.528283 1.176762-2.316407 2.539062l9.88086 63.71289075c.128752.82936477.735951 1.49322613 1.521484 1.76171875l21.224609 7.2558594c.517057.1764437 1.07474.1764437 1.591797 0h.002l21.22260963-7.2558594c.78495737-.26829599 1.39165257-.93197308 1.51953127-1.76171875v-.001953l9.8828121-63.71093775c.21198-1.362964-.949363-2.539062-2.3164059-2.539062h-31.1054691zm0 1.701172h31.107421 31.1054691c.4469549 0 .6807389.293137.6367188.576171v.002l-9.88281253 63.7128441c-.02473099.1614023-.15215872.33060237-.390625.4121094l-21.22265637 7.2558594v-.00195c-.156942.053556-.337198.053556-.49414 0v.00195l-21.222657-7.2558594c-.238466-.081507-.365377-.2514283-.390625-.4140625l-9.882812-63.710937v-.002c-.04412-.283698.188257-.576171.636719-.576171z" fill="#4d3608"/></g><g fill="#f00"><path d="m7.596969 17.597417v-.444335h3.952243v1.216075h-3.531294l-.093544.350791h3.882085q-.02339.65481-.09354.982214-.07016.163703-.210475.233861-.23386.11693-.841898.187088-.09354-.304018-.257246-.537879h.584651q.07016 0 .09354-.02339.02339-.02339.07016-.163702l.02339-.280633h-3.3208254l-.070158.280633-.5378793-.140317.3040187-1.286233h3.43775v-.374177zm3.274048-1.707182q.257246-.257246.467721-.537879h-.88867q.210474.304019.420949.537879zm-1.2628472-1.0056h2.0112012l.07016-.02339.350791.350791q-.444335.608037-.467722.631423-.02339.04677-.140316.163703-.11693.11693-.187088.210474.561265.350791 1.169302.467721-.257246.233861-.397562.491107-.327405-.09354-.584652-.280632-.280633-.163703-.584651-.397563-.280633.210474-.53788.304018-.257246.116931-.6548091.233861-.1169303-.280633-.2806327-.467721.5144933-.11693.6548098-.187089.257246-.09354.444335-.210474-.397563-.537879-.5846515-.818512h-.2806347zm-1.5668657.584651-.1637024.374177.6080374.210475q.1870885-.444335.2338606-.584652zm.8886701.77174.420949.210475-.2806327.444335-.4677211-.280633q-.4677211.304019-.7015817.397563-.4911071.163702-.841898.23386-.093544-.210474-.2338605-.420949.4911071-.09354.7951259-.210474.3040187-.09354.5144932-.210475l-.420949-.187088-.0935442.163702-.4677211-.210474.3040187-.701582h-.4911072v-.420949h.6548096q.023386-.04677.2104745-.514493l.5378792.163702-.1403163.350791h1.0991446q-.093544.444335-.1870884.65481-.093544.257246-.2104745.537879z" stroke-width=".352777" transform="scale(1.4142136 .70710676)"/><path d="m9.1663936 11.550353v-1.6136375h.5144932v1.6136375h1.1225312q0 .584652.02339.912056l.608037-.561265.374177.350791-.491107.420949.608037.233861-.23386.444335q-.04677-.02339-.304019-.116931-.233861-.11693-.467721-.210474.187088.444335.420949.701581.187088.187089.257246.187089.02339 0 .07016-.04677.07016-.11693.140316-.397563.11693.09354.444335.280633-.11693.420949-.257247.537879-.140316.140316-.304018.140316-.257247 0-.631424-.257246-.32741-.233863-.514498-.701584-.210475-.514493-.233861-1.42655h-.6314232v2.408764h-.5144932v-2.408764h-.7951259q-.0467721.724968-.1169303.982215-.1169302.374177-.2338605.584651-.2806327.374177-.3040187.420949-.0467722.070158-.4911072.444335-.2338606-.327405-.3741769-.444335.3975629-.304019.5612653-.514493.2104745-.304019.3040188-.584651.0935442-.304019.1403163-.888671h-.9120562v-.491107h.9120562v-.748353q-.1403163.046772-.7951259.210474-.1403163-.327405-.2338606-.491107.4911072-.070158.7717399-.140316.2338605-.070159 1.0757585-.350791l.2572467.420949q-.2806327.11693-.5378793.210474v.88867zm1.1693024-1.7539539h-3.2506613v-.4911071h3.7417693q-.02339.2104745.02339.701582.140316-.1637027.304018-.3274051.163703-.1870885.327405-.3507909l.374177.3741769q-.163702.1403164-.327405.2806327-.140316.1169304-.280632.2338604.07016.02339.23386.09354.187089.04677.491107.140317l-.210474.420949-.818512-.304019q.187088.350791.467721.631423.163702.163703.280633.163703.02339 0 .07016-.04677 0 0 .11693-.327405.163702.163702.467721.280633-.187088.444335-.257246.514493-.116931.11693-.233861.11693-.257247 0-.65481-.257246-.420949-.257247-.584651-.631424-.210474-.374177-.280633-1.2160749z" stroke-width=".352777" transform="scale(1.4142136 .70710676)"/><g clip-path="url(#b)" stroke-miterlimit="10" transform="matrix(0 -.55928609 -.55929249 0 18.288595 23.72796)"><path d="m0 0-3.007 3.007"/><path d="m-.28515625-.28515625-3.00585935 3.00781255.5683593.5683593 3.00781255-3.00585935z"/></g><g clip-path="url(#c)" stroke-miterlimit="10" transform="matrix(0 -.55928609 -.55929249 0 10.510454 15.949819)"><path d="m0 0-3.007 3.007"/><path d="m-.28515625-.28515625-3.00585935 3.00781255.5683593.5683593 3.00781255-3.00585935z"/></g><g clip-path="url(#d)" stroke-miterlimit="10" transform="matrix(.55928609 0 0 -.55929249 10.510189 25.410022)"><path d="m0 0-3.007 3.007"/><path d="m-.28515625-.28515625-3.00585935 3.00781255.5683593.5683593 3.00781255-3.00585935z"/></g><g clip-path="url(#e)" stroke-miterlimit="10" transform="matrix(0 .55928609 .55929249 0 16.607248 15.949686)"><path d="m0 0 3.007 3.007"/><path d="m.28515625-.28515625-.5703125.5703125 3.00781255 3.00585935.5683593-.5683593z"/></g><path d="m-.63867187-.91015625v25.51171825h1.27734374v-25.51171825z" stroke-miterlimit="10" transform="matrix(.24945155 .24945155 .24945155 -.24945155 10.603667 23.634959)"/><path d="m-.28515625-.28515625-3.00585935 3.00781255.5683593.5683593 3.00781255-3.00585935z" stroke-miterlimit="10" transform="matrix(0 .55928609 .55929249 0 9.535835 18.338609)"/><path d="m.28515625-.28515625-.5703125.5703125 3.00781255 3.00585935.5683593-.5683593z" stroke-miterlimit="10" transform="matrix(-.55928609 0 0 .55929249 17.581417 23.02094)"/><path d="m-.28515625-.28515625-3.00585935 3.00781255.5683593.5683593 3.00781255-3.00585935z" stroke-miterlimit="10" transform="matrix(.55928609 0 0 -.55929249 11.217553 24.702659)"/><path d="m.28515625-.28515625-.5703125.5703125 3.00781255 3.00585935.5683593-.5683593z" stroke-miterlimit="10" transform="matrix(0 .55928609 .55929249 0 15.899858 16.65705)"/><path d="m-24.603516-.63867187v1.27734374h25.51171913v-1.27734374z" stroke-miterlimit="10" transform="matrix(.24945155 .24945155 .24945155 -.24945155 16.514061 23.634985)"/><path clip-path="url(#f)" d="m0 0c-.423-.423-1.109-.423-1.532 0s-.423 1.109 0 1.532 1.109.423 1.532 0 .423-1.109 0-1.532z" transform="matrix(0 .51095647 .50444971 0 11.050865 21.071199)"/><path clip-path="url(#g)" d="m0 0c-.423-.423-1.109-.423-1.532 0s-.423 1.109 0 1.532 1.109.423 1.532 0 .423-1.109 0-1.532z" transform="matrix(0 .51095647 .50444971 0 15.293539 21.071173)"/><path clip-path="url(#h)" d="m0 0c-.423-.423-1.109-.423-1.532 0s-.423 1.109 0 1.532 1.109.423 1.532 0 .423-1.109 0-1.532z" transform="matrix(.51095647 0 0 -.50444971 13.950011 23.187496)"/><path clip-path="url(#i)" d="m0 0c-.423-.423-1.109-.423-1.532 0s-.423 1.109 0 1.532 1.109.423 1.532 0 .423-1.109 0-1.532z" transform="matrix(.51095647 0 0 -.50444971 13.950037 18.944875)"/></g></svg>