<?xml version="1.0" encoding="UTF-8" standalone="no"?>
<!-- Created with Inkscape (http://www.inkscape.org/) -->

<svg
   width="26mm"
   height="30mm"
   viewBox="0 0 26 30"
   version="1.1"
   id="svg1"
   xmlns:xlink="http://www.w3.org/1999/xlink"
   xmlns="http://www.w3.org/2000/svg"
   xmlns:svg="http://www.w3.org/2000/svg">
  <defs
     id="defs1">
    <linearGradient
       id="linearGradient22">
      <stop
         style="stop-color:#ffdba6;stop-opacity:1;"
         offset="0"
         id="stop21" />
      <stop
         style="stop-color:#f2c478;stop-opacity:1;"
         offset="1"
         id="stop22" />
    </linearGradient>
    <clipPath
       clipPathUnits="userSpaceOnUse"
       id="clipPath1360-9-0-1-9">
      <path
         d="M 0,2834.646 H 2834.646 V 0 H 0 Z"
         transform="translate(-531.98141,-1475.1781)"
         id="path1360-2-7-7-5" />
    </clipPath>
    <clipPath
       clipPathUnits="userSpaceOnUse"
       id="clipPath2004-1-8-2-55-5-4-2-28-4-2-8-8-6">
      <path
         d="M 0,2834.646 H 2834.646 V 0 H 0 Z"
         transform="translate(-1148.7975,-1175.6119)"
         id="path2004-0-0-7-1-8-7-0-6-1-8-7-4-2" />
    </clipPath>
    <linearGradient
       xlink:href="#linearGradient22"
       id="linearGradient5"
       gradientUnits="userSpaceOnUse"
       gradientTransform="translate(698.03097,-721.93921)"
       x1="-343.52951"
       y1="740.87885"
       x2="-343.52951"
       y2="655.83948" />
  </defs>
  <g
     id="layer1"
     transform="translate(-144)">
    <g
       id="path3153"
       clip-path="url(#clipPath1360-9-0-1-9)"
       transform="matrix(0.35277776,0,0,-0.35277776,164.67115,4.5899251)">
      <path
         style="color:#000000;fill:url(#linearGradient5);stroke-miterlimit:10;-inkscape-stroke:none"
         d="m 0,0 -21.223,7.255 c -0.337,0.115 -0.707,0.115 -1.044,0 L -43.49,0 c -0.512,-0.175 -0.879,-0.592 -0.956,-1.088 L -54.328,-64.8 c -0.128,-0.823 0.569,-1.559 1.477,-1.559 h 31.106 31.106 c 0.907,0 1.605,0.736 1.477,1.559 L 0.955,-1.088 C 0.879,-0.592 0.512,-0.175 0,0"
         id="path145" />
      <path
         style="color:#000000;fill:#4d3608;stroke-miterlimit:10;-inkscape-stroke:none"
         d="m -52.851562,-67.208984 c -1.367537,0 -2.528283,1.176762 -2.316407,2.539062 l 9.88086,63.71289075 c 0.128752,0.82936477 0.735951,1.49322613 1.521484,1.76171875 l 21.224609,7.2558594 c 0.517057,0.1764437 1.07474,0.1764437 1.591797,0 h 0.002 L 0.27539063,0.8046875 C 1.060348,0.53639151 1.6670432,-0.12728558 1.7949219,-0.95703125 v -0.001953 L 11.677734,-64.669922 c 0.21198,-1.362964 -0.949363,-2.539062 -2.3164059,-2.539062 H -21.744141 Z m 0,1.701172 h 31.107421 31.1054691 c 0.4469549,0 0.6807389,0.293137 0.6367188,0.576171 v 0.002 L 0.11523437,-1.2167969 c -0.02473099,0.1614023 -0.15215872,0.33060237 -0.390625,0.4121094 L -21.498047,6.4511719 v -0.00195 c -0.156942,0.053556 -0.337198,0.053556 -0.49414,0 v 0.00195 l -21.222657,-7.2558594 c -0.238466,-0.081507 -0.365377,-0.2514283 -0.390625,-0.4140625 l -9.882812,-63.710937 v -0.002 c -0.04412,-0.283698 0.188257,-0.576171 0.636719,-0.576171 z"
         id="path146" />
    </g>
    <path
       id="path3629"
       d="m 0,0 c -0.423,-0.423 -1.109,-0.423 -1.532,0 -0.423,0.423 -0.423,1.109 0,1.532 0.423,0.423 1.109,0.423 1.532,0 C 0.423,1.109 0.423,0.423 0,0 Z"
       style="fill:#ff0000;fill-opacity:1;stroke:none;stroke-width:0.88636;stroke-linecap:butt;stroke-linejoin:miter;stroke-miterlimit:10;stroke-dasharray:none;stroke-opacity:1"
       transform="matrix(0.36130079,-0.36130079,-0.35669982,-0.35669982,154.6005,18.334703)"
       clip-path="url(#clipPath2004-1-8-2-55-5-4-2-28-4-2-8-8-6)" />
    <path
       style="color:#000000;fill:#ff0000;stroke-miterlimit:10;-inkscape-stroke:none"
       d="M -0.63867187,-1.4179687 V 25.109375 H 0.63867187 V -1.4179687 Z"
       id="path3631"
       transform="matrix(0.35277776,0,0,-0.35277776,157.00062,25.467666)" />
    <path
       style="color:#000000;fill:#ff0000;stroke-miterlimit:10;-inkscape-stroke:none"
       d="M -25.111328,-0.63867187 V 0.63867187 H 1.4160156 v -1.27734374 z"
       id="path3633"
       transform="matrix(0.35277776,0,0,-0.35277776,161.1799,21.288414)" />
    <path
       style="color:#000000;fill:#ff0000;stroke-miterlimit:10;-inkscape-stroke:none"
       d="M -0.28515625,-0.28515625 -3.2910156,2.7226563 -2.7226563,3.2910156 0.28515625,0.28515625 Z"
       id="path3635"
       transform="matrix(-0.39547498,-0.39547498,-0.3954795,0.3954795,159.00058,20.099376)" />
    <path
       style="color:#000000;fill:#ff0000;stroke-miterlimit:10;-inkscape-stroke:none"
       d="M -0.28515625,-0.28515625 -3.2910156,2.7226563 -2.7226563,3.2910156 0.28515625,0.28515625 Z"
       id="path3637"
       transform="matrix(-0.39547498,-0.39547498,-0.3954795,0.3954795,155.00084,20.099376)" />
    <path
       style="color:#000000;fill:#ff0000;stroke-miterlimit:10;-inkscape-stroke:none"
       d="M -0.28515625,-0.28515625 -3.2910156,2.7226563 -2.7226563,3.2910156 0.28515625,0.28515625 Z"
       id="path3639"
       transform="matrix(0.39547498,-0.39547498,-0.3954795,-0.3954795,158.18966,23.288957)" />
    <path
       style="color:#000000;fill:#ff0000;stroke-miterlimit:10;-inkscape-stroke:none"
       d="M 0.28515625,-0.28515625 -0.28515625,0.28515625 2.7226563,3.2910156 3.2910156,2.7226563 Z"
       id="path3641"
       transform="matrix(0.39547498,0.39547498,0.3954795,-0.3954795,155.81147,19.288182)" />
    <path
       style="color:#000000;fill:#ff0000;stroke-miterlimit:10;-inkscape-stroke:none"
       d="M 0.40429688,-0.40429688 -0.40429688,0.40429688 2.1484375,2.9570313 4.7011719,0.40429688 3.890625,-0.40429688 2.1484375,1.3398437 Z"
       id="path3643"
       transform="matrix(0.39310378,0,0,-0.39310397,156.15615,17.453609)" />
    <path
       style="color:#000000;fill:#ff0000;stroke-miterlimit:10;-inkscape-stroke:none"
       d="m -2.1484375,-2.9570313 -2.5527344,2.55273442 0.8105469,0.80859376 1.7421875,-1.74414058 1.74414062,1.74414058 0.80859376,-0.80859376 z"
       id="path3645"
       transform="matrix(0.39310378,0,0,-0.39310397,157.8448,25.123512)" />
    <path
       style="color:#000000;fill:#ff0000;stroke-miterlimit:10;-inkscape-stroke:none"
       d="M 0.40429688,-0.40429688 -0.40429688,0.40429688 2.1484375,2.9570313 4.7011719,0.40429688 3.890625,-0.40429688 2.1484375,1.3398437 Z"
       id="path3647"
       transform="matrix(0,0.39310378,0.39310397,0,160.83549,20.444234)" />
    <path
       style="color:#000000;fill:#ff0000;stroke-miterlimit:10;-inkscape-stroke:none"
       d="m -2.1484375,-2.9570313 -2.5527344,2.55273442 0.8105469,0.80859376 1.7421875,-1.74414058 1.74414062,1.74414058 0.80859376,-0.80859376 z"
       id="path3649"
       transform="matrix(0,0.39310378,0.39310397,0,153.16546,22.132884)" />
    <path
       id="path3651"
       d="m 0,0 c -0.423,-0.423 -1.109,-0.423 -1.532,0 -0.423,0.423 -0.423,1.109 0,1.532 0.423,0.423 1.109,0.423 1.532,0 C 0.423,1.109 0.423,0.423 0,0 Z"
       style="fill:#ff0000;fill-opacity:1;stroke:none;stroke-width:0.88636;stroke-linecap:butt;stroke-linejoin:miter;stroke-miterlimit:10;stroke-dasharray:none;stroke-opacity:1"
       transform="matrix(0.36130079,-0.36130079,-0.35669982,-0.35669982,160.60051,18.334703)"
       clip-path="url(#clipPath2004-1-8-2-55-5-4-2-28-4-2-8-8-6)" />
    <path
       id="path3653"
       d="m 0,0 c -0.423,-0.423 -1.109,-0.423 -1.532,0 -0.423,0.423 -0.423,1.109 0,1.532 0.423,0.423 1.109,0.423 1.532,0 C 0.423,1.109 0.423,0.423 0,0 Z"
       style="fill:#ff0000;fill-opacity:1;stroke:none;stroke-width:0.88636;stroke-linecap:butt;stroke-linejoin:miter;stroke-miterlimit:10;stroke-dasharray:none;stroke-opacity:1"
       transform="matrix(0.36130079,-0.36130079,-0.35669982,-0.35669982,154.6005,24.33467)"
       clip-path="url(#clipPath2004-1-8-2-55-5-4-2-28-4-2-8-8-6)" />
    <path
       id="path3655"
       d="m 0,0 c -0.423,-0.423 -1.109,-0.423 -1.532,0 -0.423,0.423 -0.423,1.109 0,1.532 0.423,0.423 1.109,0.423 1.532,0 C 0.423,1.109 0.423,0.423 0,0 Z"
       style="fill:#ff0000;fill-opacity:1;stroke:none;stroke-width:0.88636;stroke-linecap:butt;stroke-linejoin:miter;stroke-miterlimit:10;stroke-dasharray:none;stroke-opacity:1"
       transform="matrix(0.36130079,-0.36130079,-0.35669982,-0.35669982,160.60051,24.33467)"
       clip-path="url(#clipPath2004-1-8-2-55-5-4-2-28-4-2-8-8-6)" />
    <path
       style="fill:#ff0000;stroke-width:0.352777"
       d="m 154.08947,8.0419682 0.55562,0.052917 q -0.0265,0.2645832 -0.0265,0.5027081 0,0.2381249 -0.0265,0.3439581 -0.0265,0.15875 -0.0529,0.3439582 0,0.1587499 -0.0794,0.5291664 l -0.52917,-0.079375 q 0.15875,-0.8731246 0.15875,-1.6933326 z m 3.81,2.3018738 V 9.4442592 h -0.71438 v 0.8995828 z m -0.87313,-1.9579156 -0.21166,0.5556247 h 1.66687 v 1.9314579 h -1.29646 v 1.164166 q 0,0.132291 0.10584,0.15875 0.10583,0.05292 0.5027,0.05292 h 1.29646 q 0.18521,0 0.26459,-0.07938 0.0794,-0.05292 0.21166,-0.529166 0.18521,0.185208 0.55563,0.343958 -0.15875,0.449792 -0.26459,0.582083 -0.15875,0.15875 -0.26458,0.185208 -0.0794,0.02646 -0.55562,0.02646 h -1.40229 q -0.50271,0 -0.58209,-0.02646 -0.18521,-0.07938 -0.3175,-0.211666 -0.13229,-0.132292 -0.13229,-0.3175 V 9.3648843 q -0.23812,0.4233331 -0.3175,0.5027081 -0.13229,-0.1852083 -0.44979,-0.5027081 0.42333,-0.6085414 0.635,-1.1377078 0.26458,-0.6349997 0.44979,-1.4552077 l 0.58208,0.1322916 -0.26458,0.9524996 h 2.51354 q 0,2.222499 -0.10583,2.963332 -0.0529,0.449791 -0.21167,0.582083 -0.13229,0.132292 -0.635,0.185208 -0.0794,-0.264583 -0.21167,-0.582083 h 0.29105 q 0.10583,0 0.13229,-0.02646 0.0265,-0.02646 0.0794,-0.423333 0,0 0.0529,-2.1695826 z m -2.14312,-1.6139576 h 0.58208 v 1.5081243 q 0.0794,-0.079375 0.13229,-0.1322916 0.0529,-0.079375 0.1323,-0.1322916 0.0794,-0.079375 0.13229,-0.1587499 0.0794,-0.079375 0.18521,-0.1852083 l 0.39687,0.4497915 -1.00542,0.8995829 q -0.0529,0.9524996 -0.10583,1.3758329 0.50271,0.873124 0.87313,1.375833 l -0.4498,0.423333 q -0.34395,-0.47625 -0.60854,-1.031875 -0.29104,0.926041 -0.84666,1.640416 -0.26459,-0.370416 -0.42334,-0.502708 0.50271,-0.635 0.66146,-1.137708 0.15875,-0.423333 0.29104,-1.4287492 0.0529,-0.740833 0.0529,-2.963332 z"
       id="text3685"
       aria-label="炮" />
    <path
       style="color:#000000;fill:#ff0000;-inkscape-stroke:none"
       d="m 157,5.0390625 c -2.62039,0 -4.75,2.1296115 -4.75,4.75 0,2.6203885 2.12961,4.7499995 4.75,4.7500005 2.62039,0 4.75,-2.129612 4.75,-4.7500005 0,-2.6203885 -2.12961,-4.75 -4.75,-4.75 z m 0,0.5 c 2.35017,0 4.25,1.8998307 4.25,4.25 0,2.3501695 -1.89983,4.2500005 -4.25,4.2500005 -2.35017,0 -4.25,-1.899831 -4.25,-4.2500005 0,-2.3501693 1.89983,-4.25 4.25,-4.25 z"
       id="circle3688" />
  </g>
</svg>
