<svg height="31.358999mm" viewBox="0 0 27.117003 31.358999" width="27.117002mm" xmlns="http://www.w3.org/2000/svg" xmlns:xlink="http://www.w3.org/1999/xlink"><clipPath id="a"><path d="m0 2834.646h2834.646v-2834.646h-2834.646z" transform="translate(-531.98141 -1475.1781)"/></clipPath><clipPath id="b"><path d="m0 2834.646h2834.646v-2834.646h-2834.646z" transform="translate(-494.73181 -43.851026)"/></clipPath><clipPath id="c"><path d="m0 2834.646h2834.646v-2834.646h-2834.646z" transform="translate(-494.73181 -43.851026)"/></clipPath><clipPath id="d"><path d="m0 2834.646h2834.646v-2834.646h-2834.646z" transform="translate(-494.73181 -43.851026)"/></clipPath><clipPath id="e"><path d="m0 2834.646h2834.646v-2834.646h-2834.646z" transform="translate(-491.72521 -43.851026)"/></clipPath><clipPath id="f"><path d="m0 2834.646h2834.646v-2834.646h-2834.646z" transform="translate(-1148.7975 -1175.6119)"/></clipPath><clipPath id="g"><path d="m0 2834.646h2834.646v-2834.646h-2834.646z" transform="translate(-1148.7975 -1175.6119)"/></clipPath><clipPath id="h"><path d="m0 2834.646h2834.646v-2834.646h-2834.646z" transform="translate(-1148.7975 -1175.6119)"/></clipPath><clipPath id="i"><path d="m0 2834.646h2834.646v-2834.646h-2834.646z" transform="translate(-1148.7975 -1175.6119)"/></clipPath><linearGradient id="j" gradientUnits="userSpaceOnUse" x1="556.57583" x2="556.57583" y1="8.19215" y2="-67.2094"><stop offset="0" stop-color="#ffdba6"/><stop offset="1" stop-color="#f2c478"/></linearGradient><g clip-path="url(#a)" stroke-miterlimit="10" transform="matrix(.35277776 0 0 -.35277776 21.22964 5.269515)"><path d="m0 0-21.223 7.255c-.337.115-.707.115-1.044 0l-21.223-7.255c-.512-.175-.879-.592-.956-1.088l-9.882-63.712c-.128-.823.569-1.559 1.477-1.559h31.106 31.106c.907 0 1.605.736 1.477 1.559l-9.883 63.712c-.076.496-.443.913-.955 1.088" fill="url(#j)"/><path d="m-52.851562-67.208984c-1.367537 0-2.528283 1.176762-2.316407 2.539062l9.88086 63.71289075c.128752.82936477.735951 1.49322613 1.521484 1.76171875l21.224609 7.2558594c.517057.1764437 1.07474.1764437 1.591797 0h.002l21.22260963-7.2558594c.78495737-.26829599 1.39165257-.93197308 1.51953127-1.76171875v-.001953l9.8828121-63.71093775c.21198-1.362964-.949363-2.539062-2.3164059-2.539062h-31.1054691zm0 1.701172h31.107421 31.1054691c.4469549 0 .6807389.293137.6367188.576171v.002l-9.88281253 63.7128441c-.02473099.1614023-.15215872.33060237-.390625.4121094l-21.22265637 7.2558594v-.00195c-.156942.053556-.337198.053556-.49414 0v.00195l-21.222657-7.2558594c-.238466-.081507-.365377-.2514283-.390625-.4140625l-9.882812-63.710937v-.002c-.04412-.283698.188257-.576171.636719-.576171z" fill="#4d3608"/></g><g fill="#f00"><path d="m191.60571 16.439257h2.45554v1.77734h-1.89427v1.145917q0 .09354.0468.140316.0468.04677.1637.04677.0702.02339.77174.02339h1.82412q.25724 0 .35079-.07016.0935-.09354.18709-.537879.3274.210474.53787.280633-.23386.584651-.37417.678195-.1637.116931-.49111.116931h-2.22168q-.74835 0-.81851-.02339-.28063-.04677-.37417-.163702-.14032-.09354-.14032-.327405v-1.800723h1.89427v-.77174h-2.0112v-.374177q-.1637.187089-.51449.53788-.30402-.350791-.37418-.397563.39756-.444335.72497-.865284.23386-.304019.65481-1.169303l.53788.187088q-.0468.116931-.11693.233861-.0468.11693-.11693.257246h3.27404q0 1.683796-.0234 2.174904-.0468.771739-.14032.935442-.0702.11693-.21047.23386-.16371.09354-.70159.210475-.0935-.327405-.23386-.584652h.49111.0935q.0234-.02339.0234-.04677 0-.02339.0234-.04677.0935-.210474.0935-2.385377h-2.97003q-.37417.537879-.42095.584651z" stroke-width=".352777" transform="matrix(1.4142136 0 0 .70710676 -259.819 0)"/><path d="m192.88611 11.549491v-1.6136376h.5145v1.6136376h1.12253q0 .584652.0234.912056l.60804-.561265.37418.350791-.49111.420949.60804.23386-.23386.444335q-.0468-.02339-.30402-.11693-.23386-.11693-.46772-.210474.18709.444335.42095.701581.18709.187089.25724.187089.0234 0 .0702-.04677.0702-.116931.14032-.397563.11693.09354.44433.280632-.11693.420949-.25724.53788-.14032.140316-.30402.140316-.25725 0-.63143-.257247-.3274-.23386-.51449-.701581-.21047-.514493-.23386-1.42655h-.63142v2.408764h-.5145v-2.408764h-.79512q-.0468.724968-.11693.982215-.11693.374177-.23386.584651-.28063.374177-.30402.420949-.0468.07016-.49111.444335-.23386-.327405-.37418-.444335.39757-.304019.56127-.514493.21047-.304019.30402-.584652.0935-.304018.14032-.88867h-.91206v-.491107h.91206v-.748354q-.14032.04677-.79513.210475-.14032-.327405-.23386-.491107.49111-.07016.77174-.140317.23386-.07016 1.07576-.35079l.25724.420949q-.28063.11693-.53788.210474v.88867zm1.16931-1.753954h-3.25066v-.4911071h3.74176q-.0234.2104745.0234.7015821.14032-.1637029.30402-.3274053.1637-.1870884.3274-.3507908l.37418.3741769q-.1637.1403163-.3274.2806327-.14032.1169305-.28064.2338605.0702.02339.23386.09354.18709.04677.49111.140317l-.21047.420949-.81852-.304019q.18709.350791.46773.631423.1637.163703.28063.163703.0234 0 .0702-.04677 0 0 .11693-.327405.1637.163702.46772.280633-.18709.444335-.25725.514493-.11693.11693-.23386.11693-.25725 0-.65481-.257247-.42095-.257246-.58465-.631423-.21047-.374177-.28063-1.216075z" stroke-width=".352777" transform="matrix(1.4142136 0 0 .70710676 -259.819 0)"/><g clip-path="url(#b)" stroke-miterlimit="10" transform="matrix(-.39547498 -.39547498 -.3954795 .3954795 19.05869 19.490313)"><path d="m0 0-3.007 3.007"/><path d="m-.28515625-.28515625-3.00585935 3.00781255.5683593.5683593 3.00781255-3.00585935z"/></g><g clip-path="url(#c)" stroke-miterlimit="10" transform="matrix(-.39547498 -.39547498 -.3954795 .3954795 8.05873 19.490313)"><path d="m0 0-3.007 3.007"/><path d="m-.28515625-.28515625-3.00585935 3.00781255.5683593.5683593 3.00781255-3.00585935z"/></g><g clip-path="url(#d)" stroke-miterlimit="10" transform="matrix(.39547498 -.39547498 -.3954795 -.3954795 14.7479 26.179879)"><path d="m0 0-3.007 3.007"/><path d="m-.28515625-.28515625-3.00585935 3.00781255.5683593.5683593 3.00781255-3.00585935z"/></g><g clip-path="url(#e)" stroke-miterlimit="10" transform="matrix(.39547498 .39547498 .3954795 -.3954795 12.36971 15.17914)"><path d="m0 0 3.007 3.007"/><path d="m.28515625-.28515625-.5703125.5703125 3.00781255 3.00585935.5683593-.5683593z"/></g><path d="m-.63867187-.91015625v25.51171825h1.27734374v-25.51171825z" stroke-miterlimit="10" transform="matrix(.35277776 0 0 -.35277776 13.55886 24.858603)"/><path d="m-.28515625-.28515625-3.00585935 3.00781255.5683593.5683593 3.00781255-3.00585935z" stroke-miterlimit="10" transform="matrix(.39547498 .39547498 .3954795 -.3954795 9.05869 21.8686)"/><path d="m.28515625-.28515625-.5703125.5703125 3.00781255 3.00585935.5683593-.5683593z" stroke-miterlimit="10" transform="matrix(-.39547498 .39547498 .3954795 .3954795 18.05869 19.490419)"/><path d="m-.28515625-.28515625-3.00585935 3.00781255.5683593.5683593 3.00781255-3.00585935z" stroke-miterlimit="10" transform="matrix(.39547498 -.39547498 -.3954795 -.3954795 14.7479 25.179516)"/><path d="m.28515625-.28515625-.5703125.5703125 3.00781255 3.00585935.5683593-.5683593z" stroke-miterlimit="10" transform="matrix(.39547498 .39547498 .3954795 -.3954795 12.36971 16.179529)"/><path d="m-24.603516-.63867187v1.27734374h25.51171913v-1.27734374z" stroke-miterlimit="10" transform="matrix(.35277776 0 0 -.35277776 17.73815 20.679351)"/><path clip-path="url(#f)" d="m0 0c-.423-.423-1.109-.423-1.532 0s-.423 1.109 0 1.532 1.109.423 1.532 0 .423-1.109 0-1.532z" transform="matrix(.36130079 .36130079 .35669982 -.35669982 12.06222 22.729554)"/><path clip-path="url(#g)" d="m0 0c-.423-.423-1.109-.423-1.532 0s-.423 1.109 0 1.532 1.109.423 1.532 0 .423-1.109 0-1.532z" transform="matrix(.36130079 .36130079 .35669982 -.35669982 15.06223 19.729497)"/><path clip-path="url(#h)" d="m0 0c-.423-.423-1.109-.423-1.532 0s-.423 1.109 0 1.532 1.109.423 1.532 0 .423-1.109 0-1.532z" transform="matrix(.36130079 -.36130079 -.35669982 -.35669982 15.60869 22.175993)"/><path clip-path="url(#i)" d="m0 0c-.423-.423-1.109-.423-1.532 0s-.423 1.109 0 1.532 1.109.423 1.532 0 .423-1.109 0-1.532z" transform="matrix(.36130079 -.36130079 -.35669982 -.35669982 12.60869 19.175988)"/></g></svg>