<?xml version="1.0" encoding="UTF-8" standalone="no"?>
<!-- Created with Inkscape (http://www.inkscape.org/) -->

<svg
   width="30mm"
   height="34mm"
   viewBox="0 0 30 34"
   version="1.1"
   id="svg1"
   xmlns:xlink="http://www.w3.org/1999/xlink"
   xmlns="http://www.w3.org/2000/svg"
   xmlns:svg="http://www.w3.org/2000/svg">
  <defs
     id="defs1">
    <linearGradient
       id="linearGradient22">
      <stop
         style="stop-color:#ffdba6;stop-opacity:1;"
         offset="0"
         id="stop21" />
      <stop
         style="stop-color:#f2c478;stop-opacity:1;"
         offset="1"
         id="stop22" />
    </linearGradient>
    <clipPath
       clipPathUnits="userSpaceOnUse"
       id="clipPath1316-8-5-2-3">
      <path
         d="M 0,2834.646 H 2834.646 V 0 H 0 Z"
         transform="translate(-531.98141,-1560.2174)"
         id="path1316-8-2-8-8" />
    </clipPath>
    <linearGradient
       xlink:href="#linearGradient22"
       id="linearGradient149"
       gradientUnits="userSpaceOnUse"
       gradientTransform="translate(289.84197,-721.93921)"
       x1="-343.52951"
       y1="740.87885"
       x2="-343.52951"
       y2="655.83948" />
  </defs>
  <g
     id="layer1"
     transform="translate(-72)">
    <g
       id="path3103"
       clip-path="url(#clipPath1316-8-5-2-3)"
       transform="matrix(0.35277776,0,0,-0.35277776,94.671155,6.5899251)">
      <path
         style="color:#000000;fill:url(#linearGradient149);stroke-miterlimit:10;-inkscape-stroke:none"
         d="m 0,0 -21.223,7.255 c -0.337,0.115 -0.707,0.115 -1.044,0 L -43.49,0 c -0.512,-0.175 -0.879,-0.593 -0.956,-1.088 L -54.328,-64.8 c -0.128,-0.823 0.569,-1.559 1.477,-1.559 h 31.106 31.106 c 0.907,0 1.605,0.736 1.477,1.559 L 0.955,-1.088 C 0.879,-0.593 0.512,-0.175 0,0"
         id="path27" />
      <path
         style="color:#000000;fill:#4d3608;stroke-miterlimit:10;-inkscape-stroke:none"
         d="m -52.851562,-67.208984 c -1.367537,0 -2.528283,1.176762 -2.316407,2.539062 l 9.88086,63.71289075 c 0.128904,0.82867416 0.735013,1.49290547 1.521484,1.76171875 l 21.224609,7.2558594 c 0.517057,0.1764437 1.07474,0.1764437 1.591797,0 h 0.002 L 0.27539063,0.8046875 C 1.0612847,0.53607135 1.6668921,-0.12796836 1.7949219,-0.95703125 v -0.001953 L 11.677734,-64.669922 c 0.21198,-1.362964 -0.949363,-2.539062 -2.3164059,-2.539062 H -21.744141 Z m 0,1.701172 h 31.107421 31.1054691 c 0.4469549,0 0.6807389,0.293137 0.6367188,0.576171 v 0.002 L 0.11523437,-1.2167969 c -0.02457878,0.1600856 -0.15309689,0.33092303 -0.390625,0.4121094 L -21.498047,6.4511719 v -0.00195 c -0.156942,0.053556 -0.337198,0.053556 -0.49414,0 v 0.00195 l -21.222657,-7.2558594 c -0.237528,-0.0811864 -0.36553,-0.2527376 -0.390625,-0.4140625 l -9.882812,-63.710937 v -0.002 c -0.04412,-0.283698 0.188257,-0.576171 0.636719,-0.576171 z"
         id="path28" />
    </g>
    <path
       style="stroke-width:0.352777"
       d="m 83.361876,9.4171291 0.694532,0.066146 q -0.03307,0.3307293 -0.03307,0.6283859 0,0.297656 -0.03307,0.429948 -0.03307,0.198437 -0.06615,0.429948 0,0.198438 -0.09922,0.661459 l -0.661459,-0.09922 q 0.198437,-1.091407 0.198437,-2.1166679 z m 4.762502,2.8773449 v -1.12448 h -0.892969 v 1.12448 z M 87.032971,9.8470772 86.768388,10.541609 h 2.083595 v 2.414324 h -1.620574 v 1.455209 q 0,0.165364 0.132292,0.198437 0.132291,0.06615 0.628385,0.06615 h 1.620574 q 0.23151,0 0.330729,-0.09922 0.09922,-0.06615 0.264584,-0.661458 0.23151,0.23151 0.694531,0.429948 -0.198437,0.562239 -0.330729,0.727604 -0.198438,0.198438 -0.330729,0.231511 -0.09922,0.03307 -0.694532,0.03307 h -1.752865 q -0.628386,0 -0.727605,-0.03307 -0.23151,-0.09922 -0.396875,-0.264584 -0.165365,-0.165364 -0.165365,-0.396875 v -3.571879 q -0.297656,0.529167 -0.396875,0.628385 -0.165364,-0.23151 -0.562239,-0.628385 0.529166,-0.760678 0.79375,-1.4221364 0.330729,-0.7937503 0.56224,-1.8190111 l 0.727604,0.1653647 -0.330729,1.1906254 h 3.141928 q 0,2.7781264 -0.132292,3.7041684 -0.06615,0.56224 -0.264583,0.727604 -0.165365,0.165365 -0.79375,0.231511 -0.09922,-0.33073 -0.264584,-0.727605 h 0.363802 q 0.132292,0 0.165365,-0.03307 0.03307,-0.03307 0.09922,-0.529167 0,0 0.06615,-2.7119798 z M 84.354064,7.8296285 h 0.727605 v 1.885157 q 0.09922,-0.099219 0.165364,-0.1653646 0.06615,-0.099219 0.165365,-0.1653647 0.09922,-0.099219 0.165364,-0.1984376 0.09922,-0.099219 0.231511,-0.2315105 l 0.496094,0.5622398 -1.256771,1.1244801 q -0.06615,1.190625 -0.132292,1.719792 0.628386,1.091407 1.091407,1.719792 l -0.56224,0.529167 q -0.429948,-0.595313 -0.760678,-1.289844 -0.363802,1.157552 -1.058333,2.050522 -0.33073,-0.463022 -0.529167,-0.628386 0.628385,-0.79375 0.826823,-1.422136 0.198438,-0.529167 0.363802,-1.785938 0.06615,-0.926042 0.06615,-3.7041685 z"
       id="text3106"
       aria-label="炮" />
    <path
       style="color:#000000;fill:#000000 icc-color(sRGB-IEC61966-2, 0.1, 0, 0, 0);stroke-width:0.352778;stroke-miterlimit:10;-inkscape-stroke:none"
       d="m 86.774861,27.466994 v -8.35849 h 0.450618 v 8.35849 z"
       id="path3191" />
    <path
       style="color:#000000;fill:#000000 icc-color(sRGB-IEC61966-2, 0.1, 0, 0, 0);stroke-width:0.352778;stroke-miterlimit:10;-inkscape-stroke:none"
       d="m 82.820959,23.513051 v -0.450618 h 8.35849 v 0.450618 z"
       id="path3193" />
    <path
       style="color:#000000;fill:#000000;stroke-width:0.559289;stroke-miterlimit:10;-inkscape-stroke:none"
       d="m 92.225521,22.098703 -7.86e-4,2.37827 -0.449547,3e-6 -7.59e-4,-2.378271 z"
       id="path3195" />
    <path
       style="color:#000000;fill:#000000;stroke-width:0.559289;stroke-miterlimit:10;-inkscape-stroke:none"
       d="m 82.22562,22.098703 -7.86e-4,2.37827 -0.449547,3e-6 -7.59e-4,-2.378271 z"
       id="path3197" />
    <path
       style="color:#000000;fill:#000000;stroke-width:0.559289;stroke-miterlimit:10;-inkscape-stroke:none"
       d="m 88.189208,28.51382 -2.37827,-7.86e-4 -3e-6,-0.449547 2.378271,-7.59e-4 z"
       id="path3199" />
    <path
       style="color:#000000;fill:#000000;stroke-width:0.559289;stroke-miterlimit:10;-inkscape-stroke:none"
       d="m 85.811026,18.513075 2e-6,-0.451092 2.378271,7.59e-4 -3e-6,0.449547 z"
       id="path3203" />
    <path
       style="color:#000000;fill:#000000;stroke-width:0.393104;stroke-miterlimit:10;-inkscape-stroke:none"
       d="m 86.31463,20.111864 -0.317862,-0.317862 1.00349,-1.00349 1.003489,1.00349 -0.318629,0.317862 -0.68486,-0.685629 z"
       id="path3223" />
    <path
       style="color:#000000;fill:#000000;stroke-width:0.393104;stroke-miterlimit:10;-inkscape-stroke:none"
       d="m 86.99979,27.785262 -1.003489,-1.00349 0.318629,-0.317862 0.68486,0.685629 0.685628,-0.685629 0.317862,0.317862 z"
       id="path3225" />
    <path
       style="color:#000000;fill:#000000;stroke-width:0.393104;stroke-miterlimit:10;-inkscape-stroke:none"
       d="m 90.176047,22.602493 0.317862,-0.317862 1.00349,1.00349 -1.00349,1.003489 -0.317862,-0.318629 0.685629,-0.68486 z"
       id="path3227" />
    <path
       style="color:#000000;fill:#000000;stroke-width:0.393104;stroke-miterlimit:10;-inkscape-stroke:none"
       d="m 82.50265,23.287653 1.00349,-1.003489 0.317862,0.318629 -0.685629,0.68486 0.685629,0.685628 -0.317862,0.317862 z"
       id="path3229" />
  </g>
</svg>
