<?xml version="1.0" encoding="UTF-8" standalone="no"?>
<!-- Created with Inkscape (http://www.inkscape.org/) -->

<svg
   width="26mm"
   height="30mm"
   viewBox="0 0 26 30"
   version="1.1"
   id="svg1"
   xmlns:xlink="http://www.w3.org/1999/xlink"
   xmlns="http://www.w3.org/2000/svg"
   xmlns:svg="http://www.w3.org/2000/svg">
  <defs
     id="defs1">
    <linearGradient
       id="linearGradient22">
      <stop
         style="stop-color:#ffdba6;stop-opacity:1;"
         offset="0"
         id="stop21" />
      <stop
         style="stop-color:#f2c478;stop-opacity:1;"
         offset="1"
         id="stop22" />
    </linearGradient>
    <clipPath
       clipPathUnits="userSpaceOnUse"
       id="clipPath1316-8-5-2-3">
      <path
         d="M 0,2834.646 H 2834.646 V 0 H 0 Z"
         transform="translate(-531.98141,-1560.2174)"
         id="path1316-8-2-8-8" />
    </clipPath>
    <linearGradient
       xlink:href="#linearGradient22"
       id="linearGradient3"
       gradientUnits="userSpaceOnUse"
       gradientTransform="translate(493.93647,-721.93921)"
       x1="-343.52951"
       y1="740.87885"
       x2="-343.52951"
       y2="655.83948" />
  </defs>
  <g
     id="layer1"
     transform="translate(-72)">
    <g
       id="path3103"
       clip-path="url(#clipPath1316-8-5-2-3)"
       transform="matrix(0.35277776,0,0,-0.35277776,92.671155,4.5899251)">
      <path
         style="color:#000000;fill:url(#linearGradient3);stroke-miterlimit:10;-inkscape-stroke:none"
         d="m 0,0 -21.223,7.255 c -0.337,0.115 -0.707,0.115 -1.044,0 L -43.49,0 c -0.512,-0.175 -0.879,-0.593 -0.956,-1.088 L -54.328,-64.8 c -0.128,-0.823 0.569,-1.559 1.477,-1.559 h 31.106 31.106 c 0.907,0 1.605,0.736 1.477,1.559 L 0.955,-1.088 C 0.879,-0.593 0.512,-0.175 0,0"
         id="path141" />
      <path
         style="color:#000000;fill:#4d3608;stroke-miterlimit:10;-inkscape-stroke:none"
         d="m -52.851562,-67.208984 c -1.367537,0 -2.528283,1.176762 -2.316407,2.539062 l 9.88086,63.71289075 c 0.128904,0.82867416 0.735013,1.49290547 1.521484,1.76171875 l 21.224609,7.2558594 c 0.517057,0.1764437 1.07474,0.1764437 1.591797,0 h 0.002 L 0.27539063,0.8046875 C 1.0612847,0.53607135 1.6668921,-0.12796836 1.7949219,-0.95703125 v -0.001953 L 11.677734,-64.669922 c 0.21198,-1.362964 -0.949363,-2.539062 -2.3164059,-2.539062 H -21.744141 Z m 0,1.701172 h 31.107421 31.1054691 c 0.4469549,0 0.6807389,0.293137 0.6367188,0.576171 v 0.002 L 0.11523437,-1.2167969 c -0.02457878,0.1600856 -0.15309689,0.33092303 -0.390625,0.4121094 L -21.498047,6.4511719 v -0.00195 c -0.156942,0.053556 -0.337198,0.053556 -0.49414,0 v 0.00195 l -21.222657,-7.2558594 c -0.237528,-0.0811864 -0.36553,-0.2527376 -0.390625,-0.4140625 l -9.882812,-63.710937 v -0.002 c -0.04412,-0.283698 0.188257,-0.576171 0.636719,-0.576171 z"
         id="path142" />
    </g>
    <path
       style="stroke-width:0.352777"
       d="m 81.361876,7.4171291 0.694532,0.066146 q -0.03307,0.3307293 -0.03307,0.6283857 0,0.2976563 -0.03307,0.4299481 -0.03307,0.1984375 -0.06615,0.429948 0,0.1984376 -0.09922,0.6614586 L 81.163439,9.5337966 Q 81.361876,8.44239 81.361876,7.4171291 Z m 4.762502,2.8773449 V 9.1699944 H 85.231409 V 10.294474 Z M 85.032971,7.8470772 84.768388,8.5416088 h 2.083595 v 2.4143242 h -1.620574 v 1.455209 q 0,0.165364 0.132292,0.198437 0.132291,0.06615 0.628385,0.06615 h 1.620574 q 0.23151,0 0.330729,-0.09922 0.09922,-0.06615 0.264584,-0.661458 0.23151,0.23151 0.694531,0.429948 -0.198437,0.562239 -0.330729,0.727604 -0.198438,0.198438 -0.330729,0.231511 -0.09922,0.03307 -0.694532,0.03307 h -1.752865 q -0.628386,0 -0.727605,-0.03307 -0.23151,-0.09922 -0.396875,-0.264584 -0.165365,-0.165364 -0.165365,-0.396875 V 9.0707756 Q 84.206148,9.5999425 84.106929,9.6991613 83.941565,9.4676508 83.54469,9.0707756 84.073856,8.3100982 84.33844,7.6486396 84.669169,6.8548893 84.90068,5.8296285 l 0.727604,0.1653647 -0.330729,1.1906254 h 3.141928 q 0,2.7781261 -0.132292,3.7041684 -0.06615,0.56224 -0.264583,0.727604 -0.165365,0.165365 -0.79375,0.231511 -0.09922,-0.33073 -0.264584,-0.727605 h 0.363802 q 0.132292,0 0.165365,-0.03307 0.03307,-0.03307 0.09922,-0.529167 0,0 0.06615,-2.7119798 z M 82.354064,5.8296285 h 0.727605 v 1.885157 q 0.09922,-0.099219 0.165364,-0.1653646 0.06615,-0.099219 0.165365,-0.1653647 0.09922,-0.099219 0.165364,-0.1984376 0.09922,-0.099219 0.231511,-0.2315105 l 0.496094,0.5622398 -1.256771,1.1244796 q -0.06615,1.1906255 -0.132292,1.7197925 0.628386,1.091407 1.091407,1.719792 l -0.56224,0.529167 q -0.429948,-0.595313 -0.760678,-1.289844 -0.363802,1.157552 -1.058333,2.050522 -0.33073,-0.463022 -0.529167,-0.628386 0.628385,-0.79375 0.826823,-1.422136 0.198438,-0.529167 0.363802,-1.7859384 0.06615,-0.926042 0.06615,-3.7041681 z"
       id="text3106"
       aria-label="炮" />
    <path
       style="color:#000000;fill:#000000 icc-color(sRGB-IEC61966-2, 0.1, 0, 0, 0);stroke-miterlimit:10;-inkscape-stroke:none"
       d="M -0.63867187,0 V 23.693359 H 0.63867187 V 0 Z"
       id="path3191"
       transform="matrix(0.35277776,0,0,-0.35277776,85.00017,25.466994)" />
    <path
       style="color:#000000;fill:#000000 icc-color(sRGB-IEC61966-2, 0.1, 0, 0, 0);stroke-miterlimit:10;-inkscape-stroke:none"
       d="M -23.693359,-0.63867187 V 0.63867187 H 0 v -1.27734374 z"
       id="path3193"
       transform="matrix(0.35277776,0,0,-0.35277776,89.179449,21.287742)" />
    <path
       style="color:#000000;fill:#000000;stroke-miterlimit:10;-inkscape-stroke:none"
       d="M -0.28515625,-0.28515625 -3.2910156,2.7226563 -2.7226563,3.2910156 0.28515625,0.28515625 Z"
       id="path3195"
       transform="matrix(-0.39547498,-0.39547498,-0.3954795,0.3954795,89.999975,20.098704)" />
    <path
       style="color:#000000;fill:#000000;stroke-miterlimit:10;-inkscape-stroke:none"
       d="M -0.28515625,-0.28515625 -3.2910156,2.7226563 -2.7226563,3.2910156 0.28515625,0.28515625 Z"
       id="path3197"
       transform="matrix(-0.39547498,-0.39547498,-0.3954795,0.3954795,80.000074,20.098704)" />
    <path
       style="color:#000000;fill:#000000;stroke-miterlimit:10;-inkscape-stroke:none"
       d="M -0.28515625,-0.28515625 -3.2910156,2.7226563 -2.7226563,3.2910156 0.28515625,0.28515625 Z"
       id="path3199"
       transform="matrix(0.39547498,-0.39547498,-0.3954795,-0.3954795,86.189207,26.288274)" />
    <path
       style="color:#000000;fill:#000000;stroke-miterlimit:10;-inkscape-stroke:none"
       d="M 0.28515625,-0.28515625 -0.28515625,0.28515625 2.7226563,3.2910156 3.2910156,2.7226563 Z"
       id="path3203"
       transform="matrix(0.39547498,0.39547498,0.3954795,-0.3954795,83.811027,16.287529)" />
    <path
       style="color:#000000;fill:#000000;stroke-miterlimit:10;-inkscape-stroke:none"
       d="M 0.40429688,-0.40429688 -0.40429688,0.40429688 2.1484375,2.9570313 4.7011719,0.40429688 3.890625,-0.40429688 2.1484375,1.3398437 Z"
       id="path3223"
       transform="matrix(0.39310378,0,0,-0.39310397,84.155699,17.952933)" />
    <path
       style="color:#000000;fill:#000000;stroke-miterlimit:10;-inkscape-stroke:none"
       d="m -2.1484375,-2.9570313 -2.5527344,2.55273442 0.8105469,0.80859376 1.7421875,-1.74414058 1.74414062,1.74414058 0.80859376,-0.80859376 z"
       id="path3225"
       transform="matrix(0.39310378,0,0,-0.39310397,85.844349,24.622841)" />
    <path
       style="color:#000000;fill:#000000;stroke-miterlimit:10;-inkscape-stroke:none"
       d="M 0.40429688,-0.40429688 -0.40429688,0.40429688 2.1484375,2.9570313 4.7011719,0.40429688 3.890625,-0.40429688 2.1484375,1.3398437 Z"
       id="path3227"
       transform="matrix(0,0.39310378,0.39310397,0,88.334978,20.443562)" />
    <path
       style="color:#000000;fill:#000000;stroke-miterlimit:10;-inkscape-stroke:none"
       d="m -2.1484375,-2.9570313 -2.5527344,2.55273442 0.8105469,0.80859376 1.7421875,-1.74414058 1.74414062,1.74414058 0.80859376,-0.80859376 z"
       id="path3229"
       transform="matrix(0,0.39310378,0.39310397,0,81.665071,22.132212)" />
  </g>
</svg>
