<?xml version="1.0" encoding="UTF-8" standalone="no"?>
<!-- Created with Inkscape (http://www.inkscape.org/) -->

<svg
   width="27.117002mm"
   height="31.358999mm"
   viewBox="0 0 27.117003 31.358999"
   version="1.1"
   id="svg1"
   xmlns:xlink="http://www.w3.org/1999/xlink"
   xmlns="http://www.w3.org/2000/svg"
   xmlns:svg="http://www.w3.org/2000/svg">
  <defs
     id="defs1">
    <linearGradient
       id="linearGradient69">
      <stop
         style="stop-color:#ffdba6;stop-opacity:1;"
         offset="0"
         id="stop69" />
      <stop
         style="stop-color:#f2c478;stop-opacity:1;"
         offset="1"
         id="stop68" />
    </linearGradient>
    <clipPath
       clipPathUnits="userSpaceOnUse"
       id="clipPath1316-8-5-2-3">
      <path
         d="M 0,2834.646 H 2834.646 V 0 H 0 Z"
         transform="translate(-531.98141,-1560.2174)"
         id="path1316-8-2-8-8" />
    </clipPath>
    <linearGradient
       xlink:href="#linearGradient69"
       id="linearGradient3"
       gradientUnits="userSpaceOnUse"
       gradientTransform="translate(-191.81027,-223.09125)"
       x1="222.31836"
       y1="231.2834"
       x2="222.31836"
       y2="155.88185" />
  </defs>
  <g
     id="layer1"
     transform="translate(-74.234005)">
    <g
       id="path1315-1-0-4-7"
       clip-path="url(#clipPath1316-8-5-2-3)"
       transform="matrix(0.35277776,0,0,-0.35277776,95.463649,5.2695153)">
      <path
         style="color:#000000;font-variation-settings:normal;opacity:1;vector-effect:none;fill:url(#linearGradient3);fill-opacity:1;stroke-width:1;stroke-linecap:butt;stroke-linejoin:miter;stroke-miterlimit:10;stroke-dasharray:none;stroke-dashoffset:0;stroke-opacity:1;-inkscape-stroke:none;stop-color:#000000;stop-opacity:1"
         d="m 0,0 -21.223,7.255 c -0.337,0.115 -0.707,0.115 -1.044,0 L -43.49,0 c -0.512,-0.175 -0.879,-0.593 -0.956,-1.088 L -54.328,-64.8 c -0.128,-0.823 0.569,-1.559 1.477,-1.559 h 31.106 31.106 c 0.907,0 1.605,0.736 1.477,1.559 L 0.955,-1.088 C 0.879,-0.593 0.512,-0.175 0,0"
         id="path71" />
      <path
         style="color:#000000;fill:#4d3608;stroke-miterlimit:10;-inkscape-stroke:none"
         d="m -52.851562,-67.208984 c -1.367537,0 -2.528283,1.176762 -2.316407,2.539062 l 9.88086,63.71289075 c 0.128904,0.82867416 0.735013,1.49290547 1.521484,1.76171875 l 21.224609,7.2558594 c 0.517057,0.1764437 1.07474,0.1764437 1.591797,0 h 0.002 L 0.27539063,0.8046875 C 1.0612847,0.53607135 1.6668921,-0.12796836 1.7949219,-0.95703125 v -0.001953 L 11.677734,-64.669922 c 0.21198,-1.362964 -0.949363,-2.539062 -2.3164059,-2.539062 H -21.744141 Z m 0,1.701172 h 31.107421 31.1054691 c 0.4469549,0 0.6807389,0.293137 0.6367188,0.576171 v 0.002 L 0.11523437,-1.2167969 c -0.02457878,0.1600856 -0.15309689,0.33092303 -0.390625,0.4121094 L -21.498047,6.4511719 v -0.00195 c -0.156942,0.053556 -0.337198,0.053556 -0.49414,0 v 0.00195 l -21.222657,-7.2558594 c -0.237528,-0.0811864 -0.36553,-0.2527376 -0.390625,-0.4140625 l -9.882812,-63.710937 v -0.002 c -0.04412,-0.283698 0.188257,-0.576171 0.636719,-0.576171 z"
         id="path72" />
    </g>
    <path
       style="fill:#000000 icc-color(sRGB-IEC61966-2, 0.1, 0, 0, 0);stroke-width:0.352777"
       d="m 84.154479,8.0966831 0.694531,0.066146 q -0.03307,0.3307293 -0.03307,0.6283857 0,0.2976563 -0.03307,0.429948 -0.03307,0.1984376 -0.06615,0.4299481 0,0.1984376 -0.09922,0.6614581 l -0.661459,-0.09922 q 0.198438,-1.0914069 0.198438,-2.1166678 z m 4.762502,2.8773449 V 9.8495484 h -0.89297 V 10.974028 Z M 87.825574,8.5266312 87.56099,9.2211627 h 2.083595 v 2.4143243 h -1.620574 v 1.455209 q 0,0.165364 0.132292,0.198437 0.132292,0.06615 0.628386,0.06615 h 1.620573 q 0.231511,0 0.33073,-0.09922 0.09922,-0.06615 0.264583,-0.661458 0.231511,0.23151 0.694532,0.429948 -0.198438,0.562239 -0.33073,0.727604 -0.198437,0.198438 -0.330729,0.231511 -0.09922,0.03307 -0.694531,0.03307 h -1.752866 q -0.628385,0 -0.727604,-0.03307 -0.231511,-0.09922 -0.396875,-0.264584 -0.165365,-0.165364 -0.165365,-0.396875 V 9.7503296 q -0.297656,0.5291664 -0.396875,0.6283854 -0.165365,-0.23151 -0.56224,-0.6283854 0.529167,-0.7606774 0.79375,-1.422136 0.33073,-0.7937503 0.56224,-1.8190111 l 0.727605,0.1653646 -0.33073,1.1906255 h 3.141929 q 0,2.7781264 -0.132292,3.7041684 -0.06615,0.56224 -0.264583,0.727604 -0.165365,0.165365 -0.793751,0.231511 -0.09922,-0.33073 -0.264583,-0.727605 h 0.363802 q 0.132292,0 0.165365,-0.03307 0.03307,-0.03307 0.09922,-0.529167 0,0 0.06615,-2.7119798 z M 85.146667,6.5091825 h 0.727604 v 1.885157 q 0.09922,-0.099219 0.165365,-0.1653647 0.06615,-0.099219 0.165364,-0.1653646 0.09922,-0.099219 0.165365,-0.1984376 0.09922,-0.099219 0.23151,-0.2315105 l 0.496094,0.5622398 -1.256771,1.1244796 q -0.06615,1.1906255 -0.132292,1.7197925 0.628386,1.091407 1.091407,1.719792 l -0.56224,0.529167 q -0.429948,-0.595313 -0.760677,-1.289844 -0.363802,1.157552 -1.058334,2.050521 -0.330729,-0.463021 -0.529167,-0.628385 0.628386,-0.79375 0.826823,-1.422136 0.198438,-0.529167 0.363803,-1.785938 0.06615,-0.9260424 0.06615,-3.7041685 z"
       id="text1328-5-0-9-3"
       aria-label="炮" />
    <path
       style="color:#000000;fill:#000000 icc-color(sRGB-IEC61966-2, 0.1, 0, 0, 0);stroke-miterlimit:10;-inkscape-stroke:none"
       d="M -0.63867187,0 V 23.693359 H 0.63867187 V 0 Z"
       id="path1317-1-0-8"
       transform="matrix(0.35277776,0,0,-0.35277776,87.792654,24.858603)" />
    <path
       style="color:#000000;fill:#000000 icc-color(sRGB-IEC61966-2, 0.1, 0, 0, 0);stroke-miterlimit:10;-inkscape-stroke:none"
       d="M -23.693359,-0.63867187 V 0.63867187 H 0 v -1.27734374 z"
       id="path1323-3-0-0"
       transform="matrix(0.35277776,0,0,-0.35277776,91.971943,20.679351)" />
    <path
       style="color:#000000;fill:#000000;stroke-miterlimit:10;-inkscape-stroke:none"
       d="M -0.28515625,-0.28515625 -3.2910156,2.7226563 -2.7226563,3.2910156 0.28515625,0.28515625 Z"
       id="path4451-7-08-5-0-4"
       transform="matrix(-0.39547498,-0.39547498,-0.3954795,0.3954795,93.292484,19.490313)" />
    <path
       style="color:#000000;fill:#000000;stroke-miterlimit:10;-inkscape-stroke:none"
       d="M -0.28515625,-0.28515625 -3.2910156,2.7226563 -2.7226563,3.2910156 0.28515625,0.28515625 Z"
       id="path4451-7-08-1-0"
       transform="matrix(-0.39547498,-0.39547498,-0.3954795,0.3954795,82.292527,19.490313)" />
    <path
       style="color:#000000;fill:#000000;stroke-miterlimit:10;-inkscape-stroke:none"
       d="M -0.28515625,-0.28515625 -3.2910156,2.7226563 -2.7226563,3.2910156 0.28515625,0.28515625 Z"
       id="path4451-7-08-5-4-29-5"
       transform="matrix(0.39547498,-0.39547498,-0.3954795,-0.3954795,88.981699,26.179879)" />
    <path
       style="color:#000000;fill:#000000;stroke-miterlimit:10;-inkscape-stroke:none"
       d="M 0.28515625,-0.28515625 -0.28515625,0.28515625 2.7226563,3.2910156 3.2910156,2.7226563 Z"
       id="path4449-0-4-3-4-70"
       transform="matrix(0.39547498,0.39547498,0.3954795,-0.3954795,86.603508,15.17914)" />
    <path
       style="color:#000000;fill:#000000;stroke-miterlimit:10;-inkscape-stroke:none"
       d="M 0.40429688,-0.40429688 -0.40429688,0.40429688 2.1484375,2.9570313 4.7011719,0.40429688 3.890625,-0.40429688 2.1484375,1.3398437 Z"
       id="path4671-0-44-0"
       transform="matrix(0.39310378,0,0,-0.39310397,86.94817,17.344542)" />
    <path
       style="color:#000000;fill:#000000;stroke-miterlimit:10;-inkscape-stroke:none"
       d="m -2.1484375,-2.9570313 -2.5527344,2.55273442 0.8105469,0.80859376 1.7421875,-1.74414058 1.74414062,1.74414058 0.80859376,-0.80859376 z"
       id="path4673-4-0-5"
       transform="matrix(0.39310378,0,0,-0.39310397,88.636825,24.01445)" />
    <path
       style="color:#000000;fill:#000000;stroke-miterlimit:10;-inkscape-stroke:none"
       d="M 0.40429688,-0.40429688 -0.40429688,0.40429688 2.1484375,2.9570313 4.7011719,0.40429688 3.890625,-0.40429688 2.1484375,1.3398437 Z"
       id="path4671-0-44-9-6"
       transform="matrix(0,0.39310378,0.39310397,0,91.127452,19.835171)" />
    <path
       style="color:#000000;fill:#000000;stroke-miterlimit:10;-inkscape-stroke:none"
       d="m -2.1484375,-2.9570313 -2.5527344,2.55273442 0.8105469,0.80859376 1.7421875,-1.74414058 1.74414062,1.74414058 0.80859376,-0.80859376 z"
       id="path4673-4-0-6-78"
       transform="matrix(0,0.39310378,0.39310397,0,84.457544,21.523821)" />
  </g>
</svg>
