<?xml version="1.0" encoding="UTF-8" standalone="no"?>
<!-- Created with Inkscape (http://www.inkscape.org/) -->

<svg
   width="30mm"
   height="34mm"
   viewBox="0 0 30 34"
   version="1.1"
   id="svg1"
   xmlns:xlink="http://www.w3.org/1999/xlink"
   xmlns="http://www.w3.org/2000/svg"
   xmlns:svg="http://www.w3.org/2000/svg">
  <defs
     id="defs1">
    <linearGradient
       id="linearGradient22">
      <stop
         style="stop-color:#ffdba6;stop-opacity:1;"
         offset="0"
         id="stop21" />
      <stop
         style="stop-color:#f2c478;stop-opacity:1;"
         offset="1"
         id="stop22" />
    </linearGradient>
    <clipPath
       clipPathUnits="userSpaceOnUse"
       id="clipPath1330-86-4">
      <path
         d="M 0,2834.646 H 2834.646 V 0 H 0 Z"
         transform="translate(-461.11531,-1560.2174)"
         id="path1330-98-1" />
    </clipPath>
    <linearGradient
       xlink:href="#linearGradient22"
       id="linearGradient161"
       gradientUnits="userSpaceOnUse"
       gradientTransform="translate(289.84197,-721.93921)"
       x1="-343.52951"
       y1="740.87885"
       x2="-343.52951"
       y2="655.83948" />
  </defs>
  <g
     id="layer1"
     transform="translate(-504)">
    <g
       id="path3097"
       clip-path="url(#clipPath1330-86-4)"
       transform="matrix(0.35277776,0,0,-0.35277776,526.67119,6.5902154)">
      <path
         style="color:#000000;fill:url(#linearGradient161);stroke-miterlimit:10;-inkscape-stroke:none"
         d="m 0,0 -21.223,7.255 c -0.337,0.115 -0.707,0.115 -1.044,0 L -43.49,0 c -0.512,-0.175 -0.879,-0.593 -0.956,-1.088 L -54.328,-64.8 c -0.128,-0.823 0.569,-1.559 1.477,-1.559 h 31.106 31.106 c 0.907,0 1.605,0.736 1.477,1.559 L 0.955,-1.088 C 0.879,-0.593 0.512,-0.175 0,0"
         id="path139" />
      <path
         style="color:#000000;fill:#4d3608;stroke-miterlimit:10;-inkscape-stroke:none"
         d="m -52.851562,-67.208984 c -1.367537,0 -2.528283,1.176762 -2.316407,2.539062 l 9.88086,63.71289075 c 0.128904,0.82867416 0.735013,1.49290547 1.521484,1.76171875 l 21.224609,7.2558594 c 0.517057,0.1764437 1.07474,0.1764437 1.591797,0 h 0.002 L 0.27539063,0.8046875 C 1.0612847,0.53607135 1.6668921,-0.12796836 1.7949219,-0.95703125 v -0.001953 L 11.677734,-64.669922 c 0.21198,-1.362964 -0.949363,-2.539062 -2.3164059,-2.539062 H -21.744141 Z m 0,1.701172 h 31.107421 31.1054691 c 0.4469549,0 0.6807389,0.293137 0.6367188,0.576171 v 0.002 L 0.11523437,-1.2167969 c -0.02457878,0.1600856 -0.15309689,0.33092303 -0.390625,0.4121094 L -21.498047,6.4511719 v -0.00195 c -0.156942,0.053556 -0.337198,0.053556 -0.49414,0 v 0.00195 l -21.222657,-7.2558594 c -0.237528,-0.0811864 -0.36553,-0.2527376 -0.390625,-0.4140625 l -9.882812,-63.710937 v -0.002 c -0.04412,-0.283698 0.188257,-0.576171 0.636719,-0.576171 z"
         id="path140" />
    </g>
    <path
       style="stroke-width:0.352777"
       d="M 515.94069,8.8219483 V 8.0943438 h 5.95313 v 2.7450532 h -0.79375 v -0.165365 h -4.10105 l -0.23151,1.157553 h 5.52318 q -0.13229,1.885157 -0.29765,2.645834 -0.0992,0.429948 -0.42995,0.628386 -0.33073,0.198437 -1.32292,0.198437 -0.0331,-0.165364 -0.0992,-0.297656 -0.0331,-0.132292 -0.0661,-0.264584 -0.0331,-0.09922 -0.0992,-0.23151 h 0.79375 q 0.3638,0 0.39687,-0.09922 0.0661,-0.165365 0.23151,-1.91823 h -4.7625 l -0.16536,0.661459 -0.76068,-0.198438 0.33073,-1.455208 q 0.19844,-1.157553 0.26458,-1.5213552 h 4.79558 V 8.8219483 Z"
       id="text3097"
       aria-label="弓" />
    <path
       style="color:#000000;fill:#000000 icc-color(sRGB-IEC61966-2, 0.1, 0, 0, 0);stroke-width:0.352778;stroke-miterlimit:10;-inkscape-stroke:none"
       d="m 515.53254,26.437595 1.89476,-1.89476 0.31863,0.318636 -1.89476,1.89476 z m 4.72301,-4.723014 1.89427,-1.894273 0.31864,0.318635 -1.89427,1.894273 z"
       id="path3609" />
    <path
       style="color:#000000;fill:#000000 icc-color(sRGB-IEC61966-2, 0.1, 0, 0, 0);stroke-width:0.352778;stroke-miterlimit:10;-inkscape-stroke:none"
       d="m 515.53256,20.138474 0.31864,-0.318635 1.89476,1.89476 -0.31864,0.318635 z m 4.72302,4.723015 0.31863,-0.318636 1.89427,1.894273 -0.31863,0.318635 z"
       id="path3611" />
    <path
       style="color:#000000;fill:#000000;stroke-width:0.559289;stroke-miterlimit:10;-inkscape-stroke:none"
       d="m 521.41517,24.020911 -1.68224,1.681136 -0.31788,-0.317876 1.68115,-1.682228 z"
       id="path3613" />
    <path
       style="color:#000000;fill:#000000;stroke-width:0.559289;stroke-miterlimit:10;-inkscape-stroke:none"
       d="m 518.58694,21.192674 -1.68224,1.681136 -0.31788,-0.317876 1.68115,-1.682228 z"
       id="path3615" />
    <path
       style="color:#000000;fill:#000000;stroke-width:0.559289;stroke-miterlimit:10;-inkscape-stroke:none"
       d="m 518.26744,25.702879 -1.68113,-1.682247 0.31787,-0.317879 1.68223,1.681155 z"
       id="path3617" />
    <path
       style="color:#000000;fill:#000000;stroke-width:0.559289;stroke-miterlimit:10;-inkscape-stroke:none"
       d="m 519.41478,21.192274 0.31897,-0.318968 1.68116,1.682228 -0.31788,0.317876 z"
       id="path3619" />
    <path
       style="color:#000000;fill:#000000;stroke-width:0.393104;stroke-miterlimit:10;-inkscape-stroke:none"
       d="M 521.11523,20.204034 V 19.75451 h 1.41915 v 1.419149 l -0.45007,-5.43e-4 5.4e-4,-0.969082 z"
       id="path3621" />
    <path
       style="color:#000000;fill:#000000;stroke-width:0.393104;stroke-miterlimit:10;-inkscape-stroke:none"
       d="m 515.46669,26.821532 v -1.419149 l 0.45007,5.43e-4 -5.5e-4,0.969082 0.96963,-1e-6 v 0.449524 z"
       id="path3623" />
    <path
       style="color:#000000;fill:#000000;stroke-width:0.393104;stroke-miterlimit:10;-inkscape-stroke:none"
       d="m 522.08456,25.402757 h 0.44952 v 1.419149 h -1.41915 l 5.4e-4,-0.450067 0.96909,5.43e-4 z"
       id="path3625" />
    <path
       style="color:#000000;fill:#000000;stroke-width:0.393104;stroke-miterlimit:10;-inkscape-stroke:none"
       d="m 515.46698,19.754132 1.41915,1e-6 -5.5e-4,0.450066 -0.96908,-5.43e-4 v 0.969625 h -0.44952 z"
       id="path3627" />
  </g>
</svg>
