<?xml version="1.0" encoding="UTF-8" standalone="no"?>
<!-- Created with Inkscape (http://www.inkscape.org/) -->

<svg
   width="27.117002mm"
   height="31.358999mm"
   viewBox="0 0 27.117003 31.358999"
   version="1.1"
   id="svg1"
   xmlns:xlink="http://www.w3.org/1999/xlink"
   xmlns="http://www.w3.org/2000/svg"
   xmlns:svg="http://www.w3.org/2000/svg">
  <defs
     id="defs1">
    <linearGradient
       id="linearGradient69">
      <stop
         style="stop-color:#ffdba6;stop-opacity:1;"
         offset="0"
         id="stop69" />
      <stop
         style="stop-color:#f2c478;stop-opacity:1;"
         offset="1"
         id="stop68" />
    </linearGradient>
    <clipPath
       clipPathUnits="userSpaceOnUse"
       id="clipPath1330-86-4-1">
      <path
         d="M 0,2834.646 H 2834.646 V 0 H 0 Z"
         transform="translate(-461.11531,-1560.2174)"
         id="path1330-98-1-5" />
    </clipPath>
    <linearGradient
       xlink:href="#linearGradient69"
       id="linearGradient8"
       gradientUnits="userSpaceOnUse"
       gradientTransform="translate(-191.81027,-223.09125)"
       x1="222.31836"
       y1="231.2834"
       x2="222.31836"
       y2="155.88185" />
  </defs>
  <g
     id="layer1"
     transform="translate(-74.234005)">
    <g
       id="path1329-5-18"
       clip-path="url(#clipPath1330-86-4-1)"
       transform="matrix(0.35277776,0,0,-0.35277776,95.463649,5.2695153)">
      <path
         style="color:#000000;font-variation-settings:normal;opacity:1;vector-effect:none;fill:url(#linearGradient8);fill-opacity:1;stroke-width:1;stroke-linecap:butt;stroke-linejoin:miter;stroke-miterlimit:10;stroke-dasharray:none;stroke-dashoffset:0;stroke-opacity:1;-inkscape-stroke:none;stop-color:#000000;stop-opacity:1"
         d="m 0,0 -21.223,7.255 c -0.337,0.115 -0.707,0.115 -1.044,0 L -43.49,0 c -0.512,-0.175 -0.879,-0.593 -0.956,-1.088 L -54.328,-64.8 c -0.128,-0.823 0.569,-1.559 1.477,-1.559 h 31.106 31.106 c 0.907,0 1.605,0.736 1.477,1.559 L 0.955,-1.088 C 0.879,-0.593 0.512,-0.175 0,0"
         id="path24" />
      <path
         style="color:#000000;fill:#4d3608;stroke-miterlimit:10;-inkscape-stroke:none"
         d="m -52.851562,-67.208984 c -1.367537,0 -2.528283,1.176762 -2.316407,2.539062 l 9.88086,63.71289075 c 0.128904,0.82867416 0.735013,1.49290547 1.521484,1.76171875 l 21.224609,7.2558594 c 0.517057,0.1764437 1.07474,0.1764437 1.591797,0 h 0.002 L 0.27539063,0.8046875 C 1.0612847,0.53607135 1.6668921,-0.12796836 1.7949219,-0.95703125 v -0.001953 L 11.677734,-64.669922 c 0.21198,-1.362964 -0.949363,-2.539062 -2.3164059,-2.539062 H -21.744141 Z m 0,1.701172 h 31.107421 31.1054691 c 0.4469549,0 0.6807389,0.293137 0.6367188,0.576171 v 0.002 L 0.11523437,-1.2167969 c -0.02457878,0.1600856 -0.15309689,0.33092303 -0.390625,0.4121094 L -21.498047,6.4511719 v -0.00195 c -0.156942,0.053556 -0.337198,0.053556 -0.49414,0 v 0.00195 l -21.222657,-7.2558594 c -0.237528,-0.0811864 -0.36553,-0.2527376 -0.390625,-0.4140625 l -9.882812,-63.710937 v -0.002 c -0.04412,-0.283698 0.188257,-0.576171 0.636719,-0.576171 z"
         id="path25" />
    </g>
    <path
       style="fill:#000000 icc-color(sRGB-IEC61966-2, 0.1, 0, 0, 0);stroke-width:0.352777"
       d="M 84.733268,7.501231 V 6.7736266 h 5.953127 v 2.7450532 h -0.79375 V 9.3533151 h -4.101044 l -0.23151,1.1575529 h 5.523179 q -0.132292,1.885157 -0.297656,2.645834 -0.09922,0.429948 -0.429948,0.628386 -0.33073,0.198437 -1.322917,0.198437 -0.03307,-0.165364 -0.09922,-0.297656 -0.03307,-0.132292 -0.06615,-0.264584 -0.03307,-0.09922 -0.09922,-0.23151 h 0.79375 q 0.363803,0 0.396876,-0.09922 0.06614,-0.165364 0.23151,-1.91823 h -4.762502 l -0.165364,0.661459 -0.760678,-0.198438 0.330729,-1.455209 q 0.198444,-1.1575512 0.26459,-1.5213534 h 4.795575 V 7.501231 Z"
       id="text1330-1-4"
       aria-label="弓" />
    <path
       style="color:#000000;fill:#000000 icc-color(sRGB-IEC61966-2, 0.1, 0, 0, 0);stroke-miterlimit:10;-inkscape-stroke:none"
       d="M -0.63867187,0 V 23.693359 H 0.63867187 V 0 Z"
       id="path1317-1-0-0-4-2"
       transform="matrix(0.24945155,0.24945155,0.24945155,-0.24945155,84.837691,23.634535)" />
    <path
       style="color:#000000;fill:#000000 icc-color(sRGB-IEC61966-2, 0.1, 0, 0, 0);stroke-miterlimit:10;-inkscape-stroke:none"
       d="M -23.693359,-0.63867187 V 0.63867187 H 0 v -1.27734374 z"
       id="path1323-3-0-9-5-9"
       transform="matrix(0.24945155,0.24945155,0.24945155,-0.24945155,90.748086,23.634561)" />
    <path
       style="color:#000000;fill:#000000;stroke-miterlimit:10;-inkscape-stroke:none"
       d="M -0.28515625,-0.28515625 -3.2910156,2.7226563 -2.7226563,3.2910156 0.28515625,0.28515625 Z"
       id="path4451-7-08-5-4-29-3-5-2-1"
       transform="matrix(0,0.55928609,0.55929249,0,83.996845,18.565171)" />
    <path
       style="color:#000000;fill:#000000;stroke-miterlimit:10;-inkscape-stroke:none"
       d="M 0.28515625,-0.28515625 -0.28515625,0.28515625 2.7226563,3.2910156 3.2910156,2.7226563 Z"
       id="path4449-0-4-3-4-8-3-8-0"
       transform="matrix(-0.55928609,0,0,0.55929249,91.588456,22.79353)" />
    <path
       style="color:#000000;fill:#000000;stroke-miterlimit:10;-inkscape-stroke:none"
       d="M -0.28515625,-0.28515625 -3.2910156,2.7226563 -2.7226563,3.2910156 0.28515625,0.28515625 Z"
       id="path4451-7-08-5-4-29-3-6-9"
       transform="matrix(0.55928609,0,0,-0.55929249,85.678537,24.475248)" />
    <path
       style="color:#000000;fill:#000000;stroke-miterlimit:10;-inkscape-stroke:none"
       d="M 0.28515625,-0.28515625 -0.28515625,0.28515625 2.7226563,3.2910156 3.2910156,2.7226563 Z"
       id="path4449-0-4-3-4-8-4-3"
       transform="matrix(0,0.55928609,0.55929249,0,89.906896,16.883612)" />
  </g>
</svg>
