<?xml version="1.0" encoding="UTF-8" standalone="no"?>
<!-- Created with Inkscape (http://www.inkscape.org/) -->

<svg
   width="27.117002mm"
   height="31.358999mm"
   viewBox="0 0 27.117003 31.358999"
   version="1.1"
   id="svg1"
   xmlns:xlink="http://www.w3.org/1999/xlink"
   xmlns="http://www.w3.org/2000/svg"
   xmlns:svg="http://www.w3.org/2000/svg">
  <defs
     id="defs1">
    <linearGradient
       id="linearGradient69">
      <stop
         style="stop-color:#ffdba6;stop-opacity:1;"
         offset="0"
         id="stop69" />
      <stop
         style="stop-color:#f2c478;stop-opacity:1;"
         offset="1"
         id="stop68" />
    </linearGradient>
    <clipPath
       clipPathUnits="userSpaceOnUse"
       id="clipPath1316-8-6">
      <path
         d="M 0,2834.646 H 2834.646 V 0 H 0 Z"
         transform="translate(-531.98141,-1560.2174)"
         id="path1316-8-0" />
    </clipPath>
    <linearGradient
       xlink:href="#linearGradient69"
       id="linearGradient8"
       gradientUnits="userSpaceOnUse"
       gradientTransform="translate(229.04395,-223.09125)"
       x1="222.31836"
       y1="231.2834"
       x2="222.31836"
       y2="155.88185" />
  </defs>
  <g
     id="layer1"
     transform="translate(-222.70201)">
    <g
       id="path1315-1-8"
       clip-path="url(#clipPath1316-8-6)"
       transform="matrix(0.35277776,0,0,-0.35277776,243.93165,5.2695153)">
      <path
         style="color:#000000;font-variation-settings:normal;opacity:1;vector-effect:none;fill:url(#linearGradient8);fill-opacity:1;stroke-width:1;stroke-linecap:butt;stroke-linejoin:miter;stroke-miterlimit:10;stroke-dasharray:none;stroke-dashoffset:0;stroke-opacity:1;-inkscape-stroke:none;stop-color:#000000;stop-opacity:1"
         d="m 0,0 -21.223,7.255 c -0.337,0.115 -0.707,0.115 -1.044,0 L -43.49,0 c -0.512,-0.175 -0.879,-0.593 -0.956,-1.088 L -54.328,-64.8 c -0.128,-0.823 0.569,-1.559 1.477,-1.559 h 31.106 31.106 c 0.907,0 1.605,0.736 1.477,1.559 L 0.955,-1.088 C 0.879,-0.593 0.512,-0.175 0,0"
         id="path105" />
      <path
         style="color:#000000;fill:#4d3608;stroke-miterlimit:10;-inkscape-stroke:none"
         d="m -52.851562,-67.208984 c -1.367537,0 -2.528283,1.176762 -2.316407,2.539062 l 9.88086,63.71289075 c 0.128904,0.82867416 0.735013,1.49290547 1.521484,1.76171875 l 21.224609,7.2558594 c 0.517057,0.1764437 1.07474,0.1764437 1.591797,0 h 0.002 L 0.27539063,0.8046875 C 1.0612847,0.53607135 1.6668921,-0.12796836 1.7949219,-0.95703125 v -0.001953 L 11.677734,-64.669922 c 0.21198,-1.362964 -0.949363,-2.539062 -2.3164059,-2.539062 H -21.744141 Z m 0,1.701172 h 31.107421 31.1054691 c 0.4469549,0 0.6807389,0.293137 0.6367188,0.576171 v 0.002 L 0.11523437,-1.2167969 c -0.02457878,0.1600856 -0.15309689,0.33092303 -0.390625,0.4121094 L -21.498047,6.4511719 v -0.00195 c -0.156942,0.053556 -0.337198,0.053556 -0.49414,0 v 0.00195 l -21.222657,-7.2558594 c -0.237528,-0.0811864 -0.36553,-0.2527376 -0.390625,-0.4140625 l -9.882812,-63.710937 v -0.002 c -0.04412,-0.283698 0.188257,-0.576171 0.636719,-0.576171 z"
         id="path106" />
    </g>
    <path
       style="fill:#000000 icc-color(sRGB-IEC61966-2, 0.1, 0, 0, 0);stroke-width:0.352777"
       d="m 233.81328,8.9729563 h 3.47265 v 2.5135427 h -2.6789 v 1.620574 q 0,0.132291 0.0661,0.198437 0.0661,0.06615 0.23151,0.06615 0.0992,0.03307 1.09141,0.03307 h 2.57969 q 0.3638,0 0.49609,-0.09922 0.13229,-0.132292 0.26459,-0.760677 0.46302,0.297656 0.76067,0.396875 -0.33073,0.826823 -0.52916,0.959115 -0.23151,0.165365 -0.69454,0.165365 h -3.14192 q -1.05834,0 -1.15756,-0.03307 -0.39687,-0.06615 -0.52916,-0.231511 -0.19844,-0.132292 -0.19844,-0.463021 V 10.79197 h 2.67891 V 9.7005608 h -2.84428 V 9.1713939 q -0.23151,0.2645834 -0.7276,0.7606774 -0.42995,-0.496094 -0.52917,-0.5622398 0.56224,-0.6283857 1.02526,-1.2236984 0.33073,-0.4299481 0.92605,-1.6536465 l 0.76067,0.2645834 q -0.0661,0.1653647 -0.16536,0.3307293 -0.0661,0.1653647 -0.16537,0.3638023 h 4.63021 q 0,2.3812509 -0.0331,3.0757824 -0.0661,1.091407 -0.19844,1.322917 -0.0992,0.165365 -0.29765,0.33073 -0.23151,0.132291 -0.99219,0.297656 -0.13229,-0.463021 -0.33073,-0.826823 h 0.69453 0.13229 q 0.0331,-0.03307 0.0331,-0.06615 0,-0.03307 0.0331,-0.06615 0.13229,-0.297656 0.13229,-3.3734389 h -4.20026 q -0.52917,0.7606774 -0.59531,0.8268232 z"
       id="text1328-5-6"
       aria-label="包" />
    <path
       style="color:#000000;fill:#000000 icc-color(sRGB-IEC61966-2, 0.1, 0, 0, 0);stroke-miterlimit:10;-inkscape-stroke:none"
       d="M -0.63867187,0 V 23.693359 H 0.63867187 V 0 Z"
       id="path1317-1-0-0-0"
       transform="matrix(0.35277776,0,0,-0.35277776,236.26081,24.858445)" />
    <path
       style="color:#000000;fill:#000000 icc-color(sRGB-IEC61966-2, 0.1, 0, 0, 0);stroke-miterlimit:10;-inkscape-stroke:none"
       d="M -23.693359,-0.63867187 V 0.63867187 H 0 v -1.27734374 z"
       id="path1323-3-0-9-6"
       transform="matrix(0.35277776,0,0,-0.35277776,240.4401,20.679193)" />
    <path
       style="color:#000000;fill:#000000;stroke-miterlimit:10;-inkscape-stroke:none"
       d="M -0.28515625,-0.28515625 -3.2910156,2.7226563 -2.7226563,3.2910156 0.28515625,0.28515625 Z"
       id="path4451-7-08-5-4-29-3-5-5"
       transform="matrix(0.39547498,0.39547498,0.3954795,-0.3954795,232.08165,21.868442)" />
    <path
       style="color:#000000;fill:#000000;stroke-miterlimit:10;-inkscape-stroke:none"
       d="M 0.28515625,-0.28515625 -0.28515625,0.28515625 2.7226563,3.2910156 3.2910156,2.7226563 Z"
       id="path4449-0-4-3-4-8-3-73"
       transform="matrix(-0.39547498,0.39547498,0.3954795,0.3954795,240.43965,19.490261)" />
    <path
       style="color:#000000;fill:#000000;stroke-miterlimit:10;-inkscape-stroke:none"
       d="M -0.28515625,-0.28515625 -3.2910156,2.7226563 -2.7226563,3.2910156 0.28515625,0.28515625 Z"
       id="path4451-7-08-5-4-29-3-4"
       transform="matrix(0.39547498,-0.39547498,-0.3954795,-0.3954795,237.44986,24.858366)" />
    <path
       style="color:#000000;fill:#000000;stroke-miterlimit:10;-inkscape-stroke:none"
       d="M 0.28515625,-0.28515625 -0.28515625,0.28515625 2.7226563,3.2910156 3.2910156,2.7226563 Z"
       id="path4449-0-4-3-4-8-30"
       transform="matrix(0.39547498,0.39547498,0.3954795,-0.3954795,235.07167,16.500364)" />
  </g>
</svg>
