<?xml version="1.0" encoding="UTF-8" standalone="no"?>
<!-- Created with Inkscape (http://www.inkscape.org/) -->

<svg
   width="26mm"
   height="30mm"
   viewBox="0 0 26 30"
   version="1.1"
   id="svg1"
   xmlns:xlink="http://www.w3.org/1999/xlink"
   xmlns="http://www.w3.org/2000/svg"
   xmlns:svg="http://www.w3.org/2000/svg">
  <defs
     id="defs1">
    <linearGradient
       id="linearGradient22">
      <stop
         style="stop-color:#ffdba6;stop-opacity:1;"
         offset="0"
         id="stop21" />
      <stop
         style="stop-color:#f2c478;stop-opacity:1;"
         offset="1"
         id="stop22" />
    </linearGradient>
    <clipPath
       clipPathUnits="userSpaceOnUse"
       id="clipPath1278-4-0">
      <path
         d="M 0,2834.646 H 2834.646 V 0 H 0 Z"
         transform="translate(-101.8765,-1555.7911)"
         id="path1278-7-2" />
    </clipPath>
    <linearGradient
       xlink:href="#linearGradient22"
       id="linearGradient2"
       gradientUnits="userSpaceOnUse"
       gradientTransform="translate(187.79472,-721.93921)"
       x1="-343.52951"
       y1="740.87885"
       x2="-343.52951"
       y2="655.83948" />
  </defs>
  <g
     id="layer1"
     transform="translate(-36)">
    <g
       id="path4"
       clip-path="url(#clipPath1278-4-0)"
       transform="matrix(-0.35277776,0,0,0.35277776,43.060271,24.378398)">
      <path
         style="color:#000000;fill:url(#linearGradient2);stroke-miterlimit:10;-inkscape-stroke:none"
         d="m 0,0 -16.217,5.989 c -0.397,0.146 -0.844,0.146 -1.241,0 L -33.674,0 c -0.531,-0.196 -0.903,-0.627 -0.975,-1.131 l -7.687,-53.534 c -0.122,-0.848 0.627,-1.598 1.595,-1.598 h 23.904 23.903 c 0.969,0 1.717,0.75 1.596,1.598 L 0.975,-1.131 C 0.902,-0.627 0.531,-0.196 0,0"
         id="path139" />
      <path
         style="color:#000000;fill:#4d3608;stroke-miterlimit:10;-inkscape-stroke:none"
         d="m -40.740234,-57.113281 c -1.406573,0 -2.637944,1.165724 -2.4375,2.568359 l 7.6875,53.5351564 c 0.120395,0.84276505 0.731595,1.5150809 1.521484,1.8066406 l 16.216797,5.9902344 c 0.591076,0.2173731 1.237049,0.2173731 1.828125,0 L 0.29492188,0.796875 C 1.085136,0.50519519 1.6946732,-0.16930742 1.8164062,-1.0097656 L 9.5039063,-54.544922 c 0.2001345,-1.402596 -1.0297011,-2.568359 -2.4375001,-2.568359 H -16.837891 Z m 0,1.701172 h 23.902343 23.9042972 c 0.5301992,0 0.7957715,0.333551 0.7539063,0.626953 l -7.6875,53.5332029 c -0.0242668,0.1675408 -0.1559496,0.3547583 -0.42773438,0.4550781 L -16.511719,5.1914062 c -0.202585,0.07396 -0.450026,0.074404 -0.652343,0 L -33.378906,-0.796875 c -0.27211,-0.1004399 -0.40413,-0.2898442 -0.427735,-0.4550781 l -7.6875,-53.5332029 c -0.04208,-0.292456 0.225161,-0.626953 0.753907,-0.626953 z"
         id="path140" />
    </g>
    <path
       style="stroke-width:0.35424"
       d="m -45.59669,-16.685222 q -0.197619,0.131746 -0.230555,0.197619 -0.06587,0.06587 -0.296428,0.428173 -1.416265,-0.625792 -2.305548,-1.28452 l 0.494046,-0.592855 q 1.383329,0.988092 2.338485,1.251583 z m -6.686091,0.691665 q -0.296427,-0.395237 -0.526982,-0.625792 0.955156,-0.428173 1.218647,-0.592855 0.197618,-0.09881 1.086901,-0.724601 l 0.559919,0.494046 q -1.086901,0.889283 -2.338485,1.449202 z m 4.248797,-2.766658 v -1.943248 h -2.667849 v 1.943248 z m -2.667849,-3.458323 v 0.889283 h 4.709906 v 0.625792 h -1.317456 v 1.943248 h 1.778565 v 0.658728 h -7.344818 v -0.658728 h 1.416266 v -4.182924 l 0.625791,0.131746 q 0.263491,0 1.548011,-0.197619 1.350393,-0.197618 2.503167,-0.494046 l 0.362301,0.691665 q -2.338485,0.46111 -4.281733,0.592855 z"
       id="text4"
       transform="scale(-0.99587063,-1.0041465)"
       aria-label="兵" />
    <path
       style="color:#000000;fill:#000000;stroke-miterlimit:10;-inkscape-stroke:none"
       d="M -0.63867187,11.337891 V 22.677734 H 0.63867187 V 11.337891 Z"
       id="path5"
       transform="matrix(-0.35277776,0,0,0.35277776,49.000061,6.5301883)" />
    <path
       style="color:#000000;fill:#000000;stroke-miterlimit:10;-inkscape-stroke:none"
       d="M -22.677734,-0.63867187 V 0.63867187 H 0 v -1.27734374 z"
       id="path6"
       transform="matrix(-0.35277776,0,0,0.35277776,45.000037,10.530185)" />
  </g>
</svg>
