<?xml version="1.0" encoding="UTF-8" standalone="no"?>
<!-- Created with Inkscape (http://www.inkscape.org/) -->

<svg
   width="27.117001mm"
   height="31.358999mm"
   viewBox="0 0 27.117001 31.358999"
   version="1.1"
   id="svg1"
   xmlns:xlink="http://www.w3.org/1999/xlink"
   xmlns="http://www.w3.org/2000/svg"
   xmlns:svg="http://www.w3.org/2000/svg">
  <defs
     id="defs1">
    <linearGradient
       id="linearGradient129">
      <stop
         style="stop-color:#f2c478;stop-opacity:1;"
         offset="0"
         id="stop129" />
      <stop
         style="stop-color:#ffdba6;stop-opacity:1;"
         offset="1"
         id="stop128" />
    </linearGradient>
    <clipPath
       clipPathUnits="userSpaceOnUse"
       id="clipPath1330-86-6-46-4">
      <path
         d="M 0,2834.646 H 2834.646 V 0 H 0 Z"
         transform="translate(-461.11531,-1560.2174)"
         id="path1330-98-2-4-3" />
    </clipPath>
    <linearGradient
       xlink:href="#linearGradient129"
       id="linearGradient1"
       gradientUnits="userSpaceOnUse"
       gradientTransform="rotate(180,179.37358,82.037573)"
       x1="222.31836"
       y1="231.2834"
       x2="222.31836"
       y2="155.88185" />
  </defs>
  <g
     id="layer1">
    <g
       id="path1329-5-1-8-0"
       clip-path="url(#clipPath1330-86-6-46-4)"
       transform="matrix(-0.35277776,0,0,0.35277776,5.8872677,26.089084)">
      <path
         style="color:#000000;font-variation-settings:normal;opacity:1;vector-effect:none;fill:url(#linearGradient1);fill-opacity:1;stroke-width:1;stroke-linecap:butt;stroke-linejoin:miter;stroke-miterlimit:10;stroke-dasharray:none;stroke-dashoffset:0;stroke-opacity:1;-inkscape-stroke:none;stop-color:#000000;stop-opacity:1"
         d="m 0,0 -21.223,7.255 c -0.337,0.115 -0.707,0.115 -1.044,0 L -43.49,0 c -0.512,-0.175 -0.879,-0.593 -0.956,-1.088 L -54.328,-64.8 c -0.128,-0.823 0.569,-1.559 1.477,-1.559 h 31.106 31.106 c 0.907,0 1.605,0.736 1.477,1.559 L 0.955,-1.088 C 0.879,-0.593 0.512,-0.175 0,0"
         id="path69" />
      <path
         style="color:#000000;fill:#4d3608;stroke-miterlimit:10;-inkscape-stroke:none"
         d="m -52.851562,-67.208984 c -1.367537,0 -2.528283,1.176762 -2.316407,2.539062 l 9.88086,63.71289075 c 0.128904,0.82867416 0.735013,1.49290547 1.521484,1.76171875 l 21.224609,7.2558594 c 0.517057,0.1764437 1.07474,0.1764437 1.591797,0 h 0.002 L 0.27539063,0.8046875 C 1.0612847,0.53607135 1.6668921,-0.12796836 1.7949219,-0.95703125 v -0.001953 L 11.677734,-64.669922 c 0.21198,-1.362964 -0.949363,-2.539062 -2.3164059,-2.539062 H -21.744141 Z m 0,1.701172 h 31.107421 31.1054691 c 0.4469549,0 0.6807389,0.293137 0.6367188,0.576171 v 0.002 L 0.11523437,-1.2167969 c -0.02457878,0.1600856 -0.15309689,0.33092303 -0.390625,0.4121094 L -21.498047,6.4511719 v -0.00195 c -0.156942,0.053556 -0.337198,0.053556 -0.49414,0 v 0.00195 l -21.222657,-7.2558594 c -0.237528,-0.0811864 -0.36553,-0.2527376 -0.390625,-0.4140625 l -9.882812,-63.710937 v -0.002 c -0.04412,-0.283698 0.188257,-0.576171 0.636719,-0.576171 z"
         id="path70" />
    </g>
    <path
       style="fill:#000000 icc-color(sRGB-IEC61966-2, 0.1, 0, 0, 0);stroke-width:0.352777"
       d="m 12.410312,19.359311 q -0.628386,0.529167 -0.926042,1.190625 h 1.686719 q -0.198437,-0.496094 -0.760677,-1.190625 z m 2.083594,1.885157 h -3.406511 l -0.132292,0.03307 -0.463021,-0.463021 q 0.496094,-0.859897 0.694531,-1.157553 0.297657,-0.396875 0.661459,-0.760677 -0.595313,-0.363803 -0.959115,-0.496094 -0.363802,-0.132292 -1.0583343,-0.297657 0.2645843,-0.297656 0.3968763,-0.727604 0.826823,0.264583 1.223698,0.496094 0.496094,0.264583 0.992188,0.595313 0.694531,-0.429948 1.223698,-0.628386 0.06615,-0.03307 0.231511,-0.09922 0.165364,-0.06615 0.330729,-0.09922 0.132292,-0.06615 0.330729,-0.132291 0.165365,-0.06615 0.297657,-0.132292 0.09922,0.23151 0.429948,0.694531 -1.058334,0.264584 -1.422136,0.463021 -0.396875,0.198438 -0.859896,0.463022 0.595312,0.661458 0.926042,1.554427 h 0.562239 z m -0.562239,3.439584 h -2.711981 v -2.017449 q 0,-0.06615 -0.03307,-0.09922 -0.03307,0 -0.03307,-0.03307 -0.03307,0 -0.03307,-0.03307 h -0.363803 q -0.09922,0 -0.132291,0.09922 -0.09922,0.09922 -0.198438,0.56224 -0.23151,-0.132292 -0.6945313,-0.330729 0.165364,-0.595313 0.23151,-0.727605 0.09922,-0.132291 0.2645843,-0.198437 0.132291,-0.06615 0.396875,-0.06615 h 0.595312 q 0.429948,0 0.56224,0.132291 0.165357,0.09922 0.165357,0.363803 v 1.653647 h 1.289844 q 0.06615,-1.12448 0.264584,-1.554428 0.264583,-0.529167 0.992187,-0.959115 0,0 0.132292,0.264583 0.03307,0.06615 0.330729,0.363803 -0.727604,0.463021 -0.859896,0.826823 -0.165364,0.429948 -0.165364,1.752865 z m 2.447396,-1.455209 v 1.653647 h -0.727604 v -1.653647 h -0.826823 v -0.661458 h 0.826823 v -1.190626 l -0.826823,0.297656 v -0.694531 l 0.826823,-0.330729 v -2.645834 q 0,-0.264584 0.09922,-0.396876 0.06615,-0.132291 0.23151,-0.165364 0.264584,-0.09922 0.992188,-0.165365 0.165364,0.661459 0.264583,0.79375 h -0.760677 q -0.06615,0 -0.06615,0.03307 -0.03307,0.03307 -0.03307,0.06615 v 2.215886 q 0.297657,-0.132292 1.025261,-0.396876 l 0.165365,0.727605 q -0.694532,0.198437 -1.190626,0.396875 v 1.455209 h 1.091407 v 0.661458 z"
       id="text1330-1-8-2-2"
       aria-label="投" />
    <path
       style="color:#000000;fill:#000000 icc-color(sRGB-IEC61966-2, 0.1, 0, 0, 0);stroke-width:0.352778;stroke-miterlimit:10;-inkscape-stroke:none"
       d="m 10.854686,7.564826 5.910346,5.910345 -0.318636,0.318636 -5.910345,-5.9103456 z"
       id="path1317-1-0-34-9" />
    <path
       style="color:#000000;fill:#000000 icc-color(sRGB-IEC61966-2, 0.1, 0, 0, 0);stroke-width:0.352778;stroke-miterlimit:10;-inkscape-stroke:none"
       d="M 16.44637,7.5648499 16.765006,7.8834852 10.85466,13.79383 10.536025,13.475195 Z"
       id="path1323-3-0-7-7" />
    <path
       style="color:#000000;fill:#000000;stroke-width:0.559289;stroke-miterlimit:10;-inkscape-stroke:none"
       d="M 10.796423,15.214995 9.1152874,13.532748 9.4331629,13.214869 11.115391,14.896024 Z"
       id="path4451-7-08-5-0-09-7" />
    <path
       style="color:#000000;fill:#000000;stroke-width:0.559289;stroke-miterlimit:10;-inkscape-stroke:none"
       d="M 17.867465,8.1439534 16.18633,6.4617065 16.504206,6.1438274 18.186433,7.8249819 Z"
       id="path4451-7-08-1-97-9" />
    <path
       style="color:#000000;fill:#000000;stroke-width:0.559289;stroke-miterlimit:10;-inkscape-stroke:none"
       d="M 9.1144149,7.8247458 10.796662,6.1436104 11.114541,6.4614859 9.4333864,8.1437136 Z"
       id="path4451-7-08-5-4-29-82-5" />
    <path
       style="color:#000000;fill:#000000;stroke-width:0.559289;stroke-miterlimit:10;-inkscape-stroke:none"
       d="m 17.867555,13.214624 0.318968,0.318971 -1.682228,1.681155 -0.317875,-0.317879 z"
       id="path4449-0-4-3-4-95-3" />
    <path
       style="color:#000000;fill:#000000;stroke-width:0.393104;stroke-miterlimit:10;-inkscape-stroke:none"
       d="m 16.380991,12.440237 h 0.449524 v 1.419149 l -1.419149,-1e-6 5.43e-4,-0.450066 0.969082,5.43e-4 z"
       id="path4671-0-44-2-3" />
    <path
       style="color:#000000;fill:#000000;stroke-width:0.393104;stroke-miterlimit:10;-inkscape-stroke:none"
       d="m 10.470593,7.4988218 1.419149,3e-7 -5.42e-4,0.4500667 -0.969083,-5.431e-4 1e-6,0.969625 -0.449524,-10e-8 z"
       id="path4673-4-0-0-3" />
    <path
       style="color:#000000;fill:#000000;stroke-width:0.393104;stroke-miterlimit:10;-inkscape-stroke:none"
       d="m 11.889415,13.409539 v 0.449524 h -1.419149 v -1.419149 l 0.450067,5.43e-4 -5.43e-4,0.969082 z"
       id="path4671-0-44-9-85-8" />
    <path
       style="color:#000000;fill:#000000;stroke-width:0.393104;stroke-miterlimit:10;-inkscape-stroke:none"
       d="m 16.830843,7.4991434 -1e-6,1.4191489 -0.450066,-5.428e-4 5.43e-4,-0.9690821 -0.969625,2e-7 V 7.4991438 Z"
       id="path4673-4-0-6-7-5" />
  </g>
</svg>
