<?xml version="1.0" encoding="UTF-8" standalone="no"?>
<!-- Created with Inkscape (http://www.inkscape.org/) -->

<svg
   width="30mm"
   height="34mm"
   viewBox="0 0 30 34"
   version="1.1"
   id="svg1"
   xmlns:xlink="http://www.w3.org/1999/xlink"
   xmlns="http://www.w3.org/2000/svg"
   xmlns:svg="http://www.w3.org/2000/svg">
  <defs
     id="defs1">
    <linearGradient
       id="linearGradient22">
      <stop
         style="stop-color:#ffdba6;stop-opacity:1;"
         offset="0"
         id="stop21" />
      <stop
         style="stop-color:#f2c478;stop-opacity:1;"
         offset="1"
         id="stop22" />
    </linearGradient>
    <clipPath
       clipPathUnits="userSpaceOnUse"
       id="clipPath2004-1-8-2-55-5-4-2-28-4-2-8-8-5">
      <path
         d="M 0,2834.646 H 2834.646 V 0 H 0 Z"
         transform="translate(-1148.7975,-1175.6119)"
         id="path2004-0-0-7-1-8-7-0-6-1-8-7-4-1" />
    </clipPath>
    <clipPath
       clipPathUnits="userSpaceOnUse"
       id="clipPath1374-00-0-1-1">
      <path
         d="M 0,2834.646 H 2834.646 V 0 H 0 Z"
         transform="translate(-461.11531,-1475.1781)"
         id="path1374-9-6-4-75" />
    </clipPath>
    <linearGradient
       xlink:href="#linearGradient22"
       id="linearGradient160"
       gradientUnits="userSpaceOnUse"
       gradientTransform="translate(289.84197,-721.93921)"
       x1="-343.52951"
       y1="740.87885"
       x2="-343.52951"
       y2="655.83948" />
  </defs>
  <g
     id="layer1"
     transform="translate(-468)">
    <g
       id="path96"
       clip-path="url(#clipPath1374-00-0-1-1)"
       transform="matrix(-0.35277776,0,0,0.35277776,475.32881,27.409785)">
      <path
         style="color:#000000;fill:url(#linearGradient160);stroke-miterlimit:10;-inkscape-stroke:none"
         d="m 0,0 -21.223,7.255 c -0.337,0.115 -0.707,0.115 -1.044,0 L -43.49,0 c -0.512,-0.175 -0.879,-0.592 -0.956,-1.088 L -54.328,-64.8 c -0.128,-0.823 0.569,-1.559 1.477,-1.559 h 31.106 31.106 c 0.907,0 1.605,0.736 1.477,1.559 L 0.955,-1.088 C 0.879,-0.592 0.512,-0.175 0,0"
         id="path137" />
      <path
         style="color:#000000;fill:#4d3608;stroke-miterlimit:10;-inkscape-stroke:none"
         d="m -52.851562,-67.208984 c -1.367537,0 -2.528283,1.176762 -2.316407,2.539062 l 9.88086,63.71289075 c 0.128752,0.82936477 0.735951,1.49322613 1.521484,1.76171875 l 21.224609,7.2558594 c 0.517057,0.1764437 1.07474,0.1764437 1.591797,0 h 0.002 L 0.27539063,0.8046875 C 1.060348,0.53639151 1.6670432,-0.12728558 1.7949219,-0.95703125 v -0.001953 L 11.677734,-64.669922 c 0.21198,-1.362964 -0.949363,-2.539062 -2.3164059,-2.539062 H -21.744141 Z m 0,1.701172 h 31.107421 31.1054691 c 0.4469549,0 0.6807389,0.293137 0.6367188,0.576171 v 0.002 L 0.11523437,-1.2167969 c -0.02473099,0.1614023 -0.15215872,0.33060237 -0.390625,0.4121094 L -21.498047,6.4511719 v -0.00195 c -0.156942,0.053556 -0.337198,0.053556 -0.49414,0 v 0.00195 l -21.222657,-7.2558594 c -0.238466,-0.081507 -0.365377,-0.2514283 -0.390625,-0.4140625 l -9.882812,-63.710937 v -0.002 c -0.04412,-0.283698 0.188257,-0.576171 0.636719,-0.576171 z"
         id="path138" />
    </g>
    <path
       id="path97"
       d="m 0,0 c -0.423,-0.423 -1.109,-0.423 -1.532,0 -0.423,0.423 -0.423,1.109 0,1.532 0.423,0.423 1.109,0.423 1.532,0 C 0.423,1.109 0.423,0.423 0,0 Z"
       style="fill:#ff0000;fill-opacity:1;stroke:none;stroke-width:0.88636;stroke-linecap:butt;stroke-linejoin:miter;stroke-miterlimit:10;stroke-dasharray:none;stroke-opacity:1"
       transform="matrix(-0.51095647,0,0,0.50444971,482.56133,14.567707)"
       clip-path="url(#clipPath2004-1-8-2-55-5-4-2-28-4-2-8-8-5)" />
    <path
       style="color:#000000;fill:#ff0000;stroke-width:0.352778;stroke-miterlimit:10;-inkscape-stroke:none"
       d="m 486.42097,7.6324065 -6.61729,6.6172875 -0.31863,-0.318636 6.61728,-6.6172869 z"
       id="path98" />
    <path
       style="color:#000000;fill:#ff0000;stroke-width:0.352778;stroke-miterlimit:10;-inkscape-stroke:none"
       d="m 486.42094,13.931526 -0.31863,0.318636 -6.61729,-6.6172873 0.31864,-0.3186354 z"
       id="path99" />
    <path
       style="color:#000000;fill:#ff0000;stroke-width:0.559289;stroke-miterlimit:10;-inkscape-stroke:none"
       d="m 480.53832,10.04909 1.68225,-1.6811349 0.31788,0.3178754 -1.68116,1.6822275 z"
       id="path100" />
    <path
       style="color:#000000;fill:#ff0000;stroke-width:0.559289;stroke-miterlimit:10;-inkscape-stroke:none"
       d="m 483.36656,12.877328 1.68225,-1.681136 0.31788,0.317876 -1.68116,1.682227 z"
       id="path101" />
    <path
       style="color:#000000;fill:#ff0000;stroke-width:0.559289;stroke-miterlimit:10;-inkscape-stroke:none"
       d="m 483.68606,8.3671216 1.68113,1.6822474 -0.31787,0.317879 -1.68223,-1.6811549 z"
       id="path102" />
    <path
       style="color:#000000;fill:#ff0000;stroke-width:0.559289;stroke-miterlimit:10;-inkscape-stroke:none"
       d="m 482.53872,12.877727 -0.31897,0.318967 -1.68115,-1.682227 0.31787,-0.317876 z"
       id="path103" />
    <path
       style="color:#000000;fill:#ff0000;stroke-width:0.393104;stroke-miterlimit:10;-inkscape-stroke:none"
       d="m 480.83828,13.865967 v 0.449523 l -1.41915,10e-7 v -1.419149 l 0.45006,5.43e-4 -5.4e-4,0.969082 z"
       id="path104" />
    <path
       style="color:#000000;fill:#ff0000;stroke-width:0.393104;stroke-miterlimit:10;-inkscape-stroke:none"
       d="m 486.48681,7.2484701 v 1.4191488 l -0.45006,-5.428e-4 5.4e-4,-0.9690821 -0.96962,2e-7 V 7.2484704 Z"
       id="path105" />
    <path
       style="color:#000000;fill:#ff0000;stroke-width:0.393104;stroke-miterlimit:10;-inkscape-stroke:none"
       d="m 479.86895,8.6672444 -0.44953,-10e-8 V 7.2480954 l 1.41915,3e-7 -5.4e-4,0.4500668 -0.96908,-5.432e-4 z"
       id="path106" />
    <path
       style="color:#000000;fill:#ff0000;stroke-width:0.393104;stroke-miterlimit:10;-inkscape-stroke:none"
       d="m 486.48652,14.315868 h -1.41915 l 5.4e-4,-0.450067 0.96908,5.43e-4 v -0.969625 l 0.44953,1e-6 z"
       id="path107" />
    <path
       id="path108"
       d="m 0,0 c -0.423,-0.423 -1.109,-0.423 -1.532,0 -0.423,0.423 -0.423,1.109 0,1.532 0.423,0.423 1.109,0.423 1.532,0 C 0.423,1.109 0.423,0.423 0,0 Z"
       style="fill:#ff0000;fill-opacity:1;stroke:none;stroke-width:0.88636;stroke-linecap:butt;stroke-linejoin:miter;stroke-miterlimit:10;stroke-dasharray:none;stroke-opacity:1"
       transform="matrix(-0.51095647,0,0,0.50444971,478.31868,10.325059)"
       clip-path="url(#clipPath2004-1-8-2-55-5-4-2-28-4-2-8-8-5)" />
    <path
       id="path109"
       d="m 0,0 c -0.423,-0.423 -1.109,-0.423 -1.532,0 -0.423,0.423 -0.423,1.109 0,1.532 0.423,0.423 1.109,0.423 1.532,0 C 0.423,1.109 0.423,0.423 0,0 Z"
       style="fill:#ff0000;fill-opacity:1;stroke:none;stroke-width:0.88636;stroke-linecap:butt;stroke-linejoin:miter;stroke-miterlimit:10;stroke-dasharray:none;stroke-opacity:1"
       transform="matrix(-0.51095647,0,0,0.50444971,486.80395,10.325091)"
       clip-path="url(#clipPath2004-1-8-2-55-5-4-2-28-4-2-8-8-5)" />
    <path
       id="path110"
       d="m 0,0 c -0.423,-0.423 -1.109,-0.423 -1.532,0 -0.423,0.423 -0.423,1.109 0,1.532 0.423,0.423 1.109,0.423 1.532,0 C 0.423,1.109 0.423,0.423 0,0 Z"
       style="fill:#ff0000;fill-opacity:1;stroke:none;stroke-width:0.88636;stroke-linecap:butt;stroke-linejoin:miter;stroke-miterlimit:10;stroke-dasharray:none;stroke-opacity:1"
       transform="matrix(-0.51095647,0,0,0.50444971,482.5613,6.0824423)"
       clip-path="url(#clipPath2004-1-8-2-55-5-4-2-28-4-2-8-8-5)" />
    <path
       style="fill:#ff0000;stroke-width:0.352777"
       d="m 485.24257,21.907212 v 0.502708 h -4.47145 v -1.375833 h 3.9952 l 0.10584,-0.396874 h -4.39209 q 0.0265,-0.740833 0.10584,-1.11125 0.0794,-0.185208 0.23812,-0.264583 0.26459,-0.132292 0.9525,-0.211667 0.10584,0.343959 0.29104,0.608542 h -0.66145 q -0.0794,0 -0.10584,0.02646 -0.0265,0.02646 -0.0794,0.185208 l -0.0265,0.3175 h 3.75708 l 0.0794,-0.3175 0.60854,0.15875 -0.34396,1.455208 h -3.88937 v 0.423333 z m -3.70416,1.931457 q -0.29104,0.291042 -0.52917,0.608542 h 1.00542 q -0.23813,-0.343958 -0.47625,-0.608542 z m 1.42875,1.137708 h -2.27542 l -0.0794,0.02646 -0.39688,-0.396875 q 0.50271,-0.687917 0.52917,-0.714375 0.0265,-0.05292 0.15875,-0.185208 0.13229,-0.132292 0.21166,-0.238125 -0.635,-0.396875 -1.32291,-0.529166 0.29104,-0.264584 0.44979,-0.555625 0.37042,0.105833 0.66146,0.3175 0.3175,0.185208 0.66146,0.449791 0.3175,-0.238125 0.60854,-0.343958 0.29104,-0.132292 0.74083,-0.264583 0.13229,0.3175 0.3175,0.529166 -0.58208,0.132292 -0.74083,0.211667 -0.29105,0.105833 -0.50271,0.238125 0.44979,0.608541 0.66146,0.926041 h 0.3175 z m 1.7727,-0.661458 0.18521,-0.423333 -0.68791,-0.238125 q -0.21167,0.502708 -0.26459,0.661458 z m -1.00541,-0.873124 -0.47625,-0.238125 0.3175,-0.502708 0.52916,0.3175 q 0.52917,-0.343959 0.79375,-0.449792 0.55563,-0.185208 0.9525,-0.264583 0.10584,0.238125 0.26459,0.47625 -0.55563,0.105833 -0.89959,0.238125 -0.34395,0.105833 -0.58208,0.238124 l 0.47625,0.211667 0.10583,-0.185208 0.52917,0.238125 -0.34396,0.793749 h 0.55563 v 0.47625 h -0.74084 q -0.0265,0.05292 -0.23812,0.582083 l -0.60854,-0.185208 0.15875,-0.396875 h -1.24354 q 0.10583,-0.502708 0.21166,-0.740833 0.10584,-0.291041 0.23813,-0.608541 z"
       id="text110"
       aria-label="弩" />
    <path
       style="color:#000000;fill:#ff0000;-inkscape-stroke:none"
       d="m 482.95309,26.960647 c 2.62039,0 4.75001,-2.129611 4.75,-4.75 0,-2.620388 -2.12961,-4.75 -4.75,-4.749999 -2.62038,-10e-7 -4.75,2.129611 -4.75,4.749999 0,2.620389 2.12962,4.75 4.75,4.75 z m 0,-0.5 c -2.35016,0 -4.24999,-1.89983 -4.25,-4.25 0,-2.350169 1.89984,-4.25 4.25,-4.249999 2.35017,0 4.25,1.89983 4.25,4.249999 0,2.35017 -1.89983,4.25 -4.25,4.25 z"
       id="circle110" />
  </g>
</svg>
