<?xml version="1.0" encoding="UTF-8" standalone="no"?>
<!-- Created with Inkscape (http://www.inkscape.org/) -->

<svg
   width="30mm"
   height="34mm"
   viewBox="0 0 30 34"
   version="1.1"
   id="svg1"
   xmlns:xlink="http://www.w3.org/1999/xlink"
   xmlns="http://www.w3.org/2000/svg"
   xmlns:svg="http://www.w3.org/2000/svg">
  <defs
     id="defs1">
    <linearGradient
       id="linearGradient22">
      <stop
         style="stop-color:#ffdba6;stop-opacity:1;"
         offset="0"
         id="stop21" />
      <stop
         style="stop-color:#f2c478;stop-opacity:1;"
         offset="1"
         id="stop22" />
    </linearGradient>
    <clipPath
       clipPathUnits="userSpaceOnUse"
       id="clipPath1360-9-0-1-3-9">
      <path
         d="M 0,2834.646 H 2834.646 V 0 H 0 Z"
         transform="translate(-531.98141,-1475.1781)"
         id="path1360-2-7-7-6-7" />
    </clipPath>
    <clipPath
       clipPathUnits="userSpaceOnUse"
       id="clipPath2004-1-8-2-55-5-4-2-28-4-2-8-8-8">
      <path
         d="M 0,2834.646 H 2834.646 V 0 H 0 Z"
         transform="translate(-1148.7975,-1175.6119)"
         id="path2004-0-0-7-1-8-7-0-6-1-8-7-4-5" />
    </clipPath>
    <linearGradient
       xlink:href="#linearGradient22"
       id="linearGradient156"
       gradientUnits="userSpaceOnUse"
       gradientTransform="translate(289.84197,-721.93921)"
       x1="-343.52951"
       y1="740.87885"
       x2="-343.52951"
       y2="655.83948" />
  </defs>
  <g
     id="layer1"
     transform="translate(-324)">
    <g
       id="path70"
       clip-path="url(#clipPath1360-9-0-1-3-9)"
       transform="matrix(-0.35277776,0,0,0.35277776,331.32881,27.409785)">
      <path
         style="color:#000000;fill:url(#linearGradient156);stroke-miterlimit:10;-inkscape-stroke:none"
         d="m 0,0 -21.223,7.255 c -0.337,0.115 -0.707,0.115 -1.044,0 L -43.49,0 c -0.512,-0.175 -0.879,-0.592 -0.956,-1.088 L -54.328,-64.8 c -0.128,-0.823 0.569,-1.559 1.477,-1.559 h 31.106 31.106 c 0.907,0 1.605,0.736 1.477,1.559 L 0.955,-1.088 C 0.879,-0.592 0.512,-0.175 0,0"
         id="path41" />
      <path
         style="color:#000000;fill:#4d3608;stroke-miterlimit:10;-inkscape-stroke:none"
         d="m -52.851562,-67.208984 c -1.367537,0 -2.528283,1.176762 -2.316407,2.539062 l 9.88086,63.71289075 c 0.128752,0.82936477 0.735951,1.49322613 1.521484,1.76171875 l 21.224609,7.2558594 c 0.517057,0.1764437 1.07474,0.1764437 1.591797,0 h 0.002 L 0.27539063,0.8046875 C 1.060348,0.53639151 1.6670432,-0.12728558 1.7949219,-0.95703125 v -0.001953 L 11.677734,-64.669922 c 0.21198,-1.362964 -0.949363,-2.539062 -2.3164059,-2.539062 H -21.744141 Z m 0,1.701172 h 31.107421 31.1054691 c 0.4469549,0 0.6807389,0.293137 0.6367188,0.576171 v 0.002 L 0.11523437,-1.2167969 c -0.02473099,0.1614023 -0.15215872,0.33060237 -0.390625,0.4121094 L -21.498047,6.4511719 v -0.00195 c -0.156942,0.053556 -0.337198,0.053556 -0.49414,0 v 0.00195 l -21.222657,-7.2558594 c -0.238466,-0.081507 -0.365377,-0.2514283 -0.390625,-0.4140625 l -9.882812,-63.710937 v -0.002 c -0.04412,-0.283698 0.188257,-0.576171 0.636719,-0.576171 z"
         id="path42" />
    </g>
    <path
       id="path71"
       d="m 0,0 c -0.423,-0.423 -1.109,-0.423 -1.532,0 -0.423,0.423 -0.423,1.109 0,1.532 0.423,0.423 1.109,0.423 1.532,0 C 0.423,1.109 0.423,0.423 0,0 Z"
       style="fill:#ff0000;fill-opacity:1;stroke:none;stroke-width:0.88636;stroke-linecap:butt;stroke-linejoin:miter;stroke-miterlimit:10;stroke-dasharray:none;stroke-opacity:1"
       transform="matrix(-0.36130079,0.36130079,0.35669982,0.35669982,341.39996,13.665353)"
       clip-path="url(#clipPath2004-1-8-2-55-5-4-2-28-4-2-8-8-8)" />
    <path
       style="color:#000000;fill:#ff0000;stroke-width:0.352778;stroke-miterlimit:10;-inkscape-stroke:none"
       d="m 339.22516,6.0321625 v 9.3582565 h -0.45062 V 6.0321625 Z"
       id="path72" />
    <path
       style="color:#000000;fill:#ff0000;stroke-width:0.352778;stroke-miterlimit:10;-inkscape-stroke:none"
       d="m 343.67928,10.486333 v 0.450619 h -9.35825 v -0.450619 z"
       id="path73" />
    <path
       style="color:#000000;fill:#ff0000;stroke-width:0.559289;stroke-miterlimit:10;-inkscape-stroke:none"
       d="m 336.77434,11.900682 7.9e-4,-2.3782708 0.44954,-2.5e-6 7.6e-4,2.3782703 z"
       id="path74" />
    <path
       style="color:#000000;fill:#ff0000;stroke-width:0.559289;stroke-miterlimit:10;-inkscape-stroke:none"
       d="m 340.77407,11.900682 7.9e-4,-2.3782708 0.44954,-2.5e-6 7.6e-4,2.3782703 z"
       id="path75" />
    <path
       style="color:#000000;fill:#ff0000;stroke-width:0.559289;stroke-miterlimit:10;-inkscape-stroke:none"
       d="m 337.81081,8.4855527 2.37827,7.86e-4 v 0.4495464 l -2.37827,7.588e-4 z"
       id="path76" />
    <path
       style="color:#000000;fill:#ff0000;stroke-width:0.559289;stroke-miterlimit:10;-inkscape-stroke:none"
       d="m 340.18899,12.486329 v 0.451091 l -2.37828,-7.59e-4 1e-5,-0.449546 z"
       id="path77" />
    <path
       style="color:#000000;fill:#ff0000;stroke-width:0.393104;stroke-miterlimit:10;-inkscape-stroke:none"
       d="m 339.68539,14.387517 0.31786,0.317861 -1.00349,1.00349 -1.00349,-1.00349 0.31863,-0.317861 0.68486,0.685628 z"
       id="path78" />
    <path
       style="color:#000000;fill:#ff0000;stroke-width:0.393104;stroke-miterlimit:10;-inkscape-stroke:none"
       d="m 339.00023,5.7141236 1.00348,1.00349 -0.31862,0.3178614 -0.68486,-0.6856286 -0.68563,0.6856286 -0.31786,-0.3178614 z"
       id="path79" />
    <path
       style="color:#000000;fill:#ff0000;stroke-width:0.393104;stroke-miterlimit:10;-inkscape-stroke:none"
       d="m 335.32391,11.396892 -0.31786,0.317861 -1.00349,-1.00349 1.00349,-1.0034891 0.31786,0.3186291 -0.68563,0.68486 z"
       id="path80" />
    <path
       style="color:#000000;fill:#ff0000;stroke-width:0.393104;stroke-miterlimit:10;-inkscape-stroke:none"
       d="m 343.99743,10.71173 -1.00349,1.00349 -0.31786,-0.318629 0.68562,-0.684861 -0.68562,-0.685628 0.31786,-0.3178613 z"
       id="path81" />
    <path
       id="path82"
       d="m 0,0 c -0.423,-0.423 -1.109,-0.423 -1.532,0 -0.423,0.423 -0.423,1.109 0,1.532 0.423,0.423 1.109,0.423 1.532,0 C 0.423,1.109 0.423,0.423 0,0 Z"
       style="fill:#ff0000;fill-opacity:1;stroke:none;stroke-width:0.88636;stroke-linecap:butt;stroke-linejoin:miter;stroke-miterlimit:10;stroke-dasharray:none;stroke-opacity:1"
       transform="matrix(-0.36130079,0.36130079,0.35669982,0.35669982,335.39995,13.665353)"
       clip-path="url(#clipPath2004-1-8-2-55-5-4-2-28-4-2-8-8-8)" />
    <path
       id="path83"
       d="m 0,0 c -0.423,-0.423 -1.109,-0.423 -1.532,0 -0.423,0.423 -0.423,1.109 0,1.532 0.423,0.423 1.109,0.423 1.532,0 C 0.423,1.109 0.423,0.423 0,0 Z"
       style="fill:#ff0000;fill-opacity:1;stroke:none;stroke-width:0.88636;stroke-linecap:butt;stroke-linejoin:miter;stroke-miterlimit:10;stroke-dasharray:none;stroke-opacity:1"
       transform="matrix(-0.36130079,0.36130079,0.35669982,0.35669982,341.39996,7.6653863)"
       clip-path="url(#clipPath2004-1-8-2-55-5-4-2-28-4-2-8-8-8)" />
    <path
       id="path84"
       d="m 0,0 c -0.423,-0.423 -1.109,-0.423 -1.532,0 -0.423,0.423 -0.423,1.109 0,1.532 0.423,0.423 1.109,0.423 1.532,0 C 0.423,1.109 0.423,0.423 0,0 Z"
       style="fill:#ff0000;fill-opacity:1;stroke:none;stroke-width:0.88636;stroke-linecap:butt;stroke-linejoin:miter;stroke-miterlimit:10;stroke-dasharray:none;stroke-opacity:1"
       transform="matrix(-0.36130079,0.36130079,0.35669982,0.35669982,335.39995,7.6653863)"
       clip-path="url(#clipPath2004-1-8-2-55-5-4-2-28-4-2-8-8-8)" />
    <path
       style="fill:#ff0000;stroke-width:0.352777"
       d="m 340.95791,23.256931 h -2.77813 v -2.010832 h 2.14313 v -1.296458 q 0,-0.105833 -0.0529,-0.15875 -0.0529,-0.05292 -0.18521,-0.05292 -0.0794,-0.02646 -0.87312,-0.02646 h -2.06375 q -0.29104,0 -0.39688,0.07938 -0.10583,0.105834 -0.21166,0.608542 -0.37042,-0.238125 -0.60854,-0.3175 0.26458,-0.661458 0.42333,-0.767291 0.18521,-0.132292 0.55562,-0.132292 h 2.51355 q 0.84666,0 0.92604,0.02646 0.3175,0.05292 0.42333,0.185209 0.15875,0.105833 0.15875,0.370416 v 2.037291 h -2.14312 v 0.873124 h 2.27541 v 0.423334 q 0.18521,-0.211667 0.58208,-0.608542 0.34396,0.396875 0.42334,0.449792 -0.44979,0.502708 -0.82021,0.978957 -0.26458,0.343959 -0.74083,1.322917 l -0.60855,-0.211667 q 0.0529,-0.132292 0.1323,-0.264583 0.0529,-0.132292 0.13229,-0.291042 h -3.70417 q 0,-1.904999 0.0265,-2.460624 0.0529,-0.873124 0.15875,-1.058332 0.0794,-0.132292 0.23813,-0.264584 0.1852,-0.105833 0.79375,-0.238125 0.10583,0.370417 0.26458,0.661458 h -0.55563 -0.10583 q -0.0265,0.02646 -0.0265,0.05292 0,0.02646 -0.0265,0.05292 -0.10583,0.238125 -0.10583,2.698748 h 3.36021 q 0.42333,-0.608541 0.47625,-0.661458 z"
       id="text84"
       aria-label="包" />
    <path
       style="color:#000000;fill:#ff0000;-inkscape-stroke:none"
       d="m 338.99997,26.962601 c 2.62039,0 4.75,-2.129612 4.75,-4.75 0,-2.620389 -2.12961,-4.75 -4.75,-4.75 -2.62039,0 -4.75,2.129611 -4.75,4.75 0,2.620388 2.12961,4.75 4.75,4.75 z m 0,-0.5 c -2.35017,0 -4.25,-1.899831 -4.25,-4.25 0,-2.35017 1.89983,-4.25 4.25,-4.25 2.35017,0 4.25,1.89983 4.25,4.25 0,2.350169 -1.89983,4.25 -4.25,4.25 z"
       id="circle84" />
  </g>
</svg>
