<svg height="31.358999mm" viewBox="0 0 27.117003 31.358999" width="27.117002mm" xmlns="http://www.w3.org/2000/svg" xmlns:xlink="http://www.w3.org/1999/xlink"><clipPath id="a"><path d="m0 2834.646h2834.646v-2834.646h-2834.646z" transform="translate(-461.11531 -1475.1781)"/></clipPath><clipPath id="b"><path d="m0 2834.646h2834.646v-2834.646h-2834.646z" transform="translate(-494.73181 -43.851026)"/></clipPath><clipPath id="c"><path d="m0 2834.646h2834.646v-2834.646h-2834.646z" transform="translate(-494.73181 -43.851026)"/></clipPath><clipPath id="d"><path d="m0 2834.646h2834.646v-2834.646h-2834.646z" transform="translate(-494.73181 -43.851026)"/></clipPath><clipPath id="e"><path d="m0 2834.646h2834.646v-2834.646h-2834.646z" transform="translate(-491.72521 -43.851026)"/></clipPath><clipPath id="f"><path d="m0 2834.646h2834.646v-2834.646h-2834.646z" transform="translate(-1148.7975 -1175.6119)"/></clipPath><clipPath id="g"><path d="m0 2834.646h2834.646v-2834.646h-2834.646z" transform="translate(-1148.7975 -1175.6119)"/></clipPath><clipPath id="h"><path d="m0 2834.646h2834.646v-2834.646h-2834.646z" transform="translate(-1148.7975 -1175.6119)"/></clipPath><clipPath id="i"><path d="m0 2834.646h2834.646v-2834.646h-2834.646z" transform="translate(-1148.7975 -1175.6119)"/></clipPath><linearGradient id="j" gradientTransform="matrix(-1 0 0 -1 253.53362 164.075146)" gradientUnits="userSpaceOnUse" x1="222.31836" x2="222.31836" y1="231.2834" y2="155.88185"><stop offset="0" stop-color="#f2c478"/><stop offset="1" stop-color="#ffdba6"/></linearGradient><g transform="translate(-37.117002)"><g clip-path="url(#a)" stroke-miterlimit="10" transform="matrix(-.35277776 0 0 .35277776 43.004267 26.089084)"><path d="m0 0-21.223 7.255c-.337.115-.707.115-1.044 0l-21.223-7.255c-.512-.175-.879-.592-.956-1.088l-9.882-63.712c-.128-.823.569-1.559 1.477-1.559h31.106 31.106c.907 0 1.605.736 1.477 1.559l-9.883 63.712c-.076.496-.443.913-.955 1.088" fill="url(#j)"/><path d="m-52.851562-67.208984c-1.367537 0-2.528283 1.176762-2.316407 2.539062l9.88086 63.71289075c.128752.82936477.735951 1.49322613 1.521484 1.76171875l21.224609 7.2558594c.517057.1764437 1.07474.1764437 1.591797 0h.002l21.22260963-7.2558594c.78495737-.26829599 1.39165257-.93197308 1.51953127-1.76171875v-.001953l9.8828121-63.71093775c.21198-1.362964-.949363-2.539062-2.3164059-2.539062h-31.1054691zm0 1.701172h31.107421 31.1054691c.4469549 0 .6807389.293137.6367188.576171v.002l-9.88281253 63.7128441c-.02473099.1614023-.15215872.33060237-.390625.4121094l-21.22265637 7.2558594v-.00195c-.156942.053556-.337198.053556-.49414 0v.00195l-21.222657-7.2558594c-.238466-.081507-.365377-.2514283-.390625-.4140625l-9.882812-63.710937v-.002c-.04412-.283698.188257-.576171.636719-.576171z" fill="#4d3608"/></g><g fill="#f00"><path d="m49.435181 18.220669q-.628385.264582-.92604.595311h1.686715q-.198436-.248046-.760675-.595311zm2.083592.942576h-3.406507l-.132286.01654-.46302-.231511q.496093-.429947.69453-.578775.297657-.198438.661457-.380338-.595311-.181901-.959114-.248047-.3638-.06614-1.058331-.148828.264583-.148828.396874-.363801.826823.132291 1.223696.248046.496094.132291.992187.297656.69453-.214974 1.223697-.314192.06614-.01654.231511-.04961.165364-.03307.330728-.04961.132285-.03307.330729-.06615.165364-.03307.297655-.06614.09922.115756.429948.347265-1.058332.132292-1.422133.23151-.396875.09922-.859896.231511.595312.330728.926041.777213h.562239zm-.562239 1.719789h-2.711977v-1.008722q0-.03307-.03308-.04961-.03308 0-.03308-.01654-.03308 0-.03308-.01654h-.363797q-.09922 0-.132286.04961-.09922.04961-.198437.28112-.231511-.06614-.69453-.165365.165364-.297656.23151-.363801.09922-.06614.264582-.09922.132286-.03307.396875-.03307h.595312q.429948 0 .562239.06614.165364.04961.165364.181901v.826821h1.289842q.06614-.562239.264584-.777212.264582-.264583.992186-.479557 0 0 .132286.132292.03308.03307.330728.1819-.727603.231511-.859894.413412-.165364.214973-.165364.87643zm2.447393-.727603v.826822h-.727603v-.826822h-.826823v-.330728h.826823v-.595312l-.826823.148828v-.347266l.826823-.165364v-1.322915q0-.132291.09922-.198437.06614-.06614.231509-.08268.264584-.04961.992187-.08268.165364.330728.264583.396874h-.760676q-.06614 0-.06614.01654-.03308.01654-.03308.03307v1.107941q.297655-.06614 1.025258-.198436l.165365.363801q-.69453.09922-1.190623.198437v.727603h1.091405v.330729z" stroke-width=".352777"/><path d="m51.27073 23.191121v1.141014h-.727603v-1.141014h-1.587499q0-.413412-.03308-.644921l-.859895.396874-.529165-.248047.69453-.297656-.859895-.165364.330729-.314193q.06614.01654.429948.08268.330728.08268.661457.148828-.264584-.314193-.595312-.496093-.264583-.132292-.363802-.132292-.03308 0-.09922.03307-.09922.08268-.198437.281119-.165365-.06614-.628384-.198437.165364-.297656.3638-.380338.198437-.09922.429948-.09922.363801 0 .892967.181901.463021.165364.727605.496093.297655.363801.330728 1.008723h.892968v-1.703253h.727603v1.703253h1.124478q.06614-.51263.165364-.694531.165364-.264583.330729-.41341.396874-.264583.429947-.297656.06614-.04961.69453-.314193.330729.231511.529166.314193-.562239.214974-.793748.363801-.297656.214974-.429948.413411-.132286.214974-.198437.628385h1.289851v.347267h-1.289842v.529166q.198436-.03307 1.124478-.148828.198436.23151.330728.347265-.694531.04961-1.091404.09922-.33073.04961-1.521353.248046l-.363802-.297656q.396875-.08268.760677-.148828v-.628384zm-1.653645 1.240232h4.597131v.347266h-5.291661q.03308-.148828-.03308-.496094-.198437.115755-.429948.23151-.23151.132292-.463021.248047l-.529166-.264583q.231511-.09922.463021-.198437.198438-.08268.396875-.165365-.09922-.01654-.33073-.06614-.264582-.03307-.69453-.09922l.297657-.297656 1.15755.214974q-.264583-.248047-.661457-.446484-.231511-.115755-.396875-.115755-.03308 0-.09922.03307 0 0-.165366.23151-.231509-.115754-.661457-.198437.264584-.314192.363802-.363802.165364-.08268.330728-.08268.363802 0 .926041.181901.595321.181899.82683.446483.297657.264583.396875.859894z" stroke-width=".352777"/><g clip-path="url(#b)" stroke-miterlimit="10" transform="matrix(0 .55928609 .55929249 0 45.945322 7.630641)"><path d="m0 0-3.007 3.007"/><path d="m-.28515625-.28515625-3.00585935 3.00781255.5683593.5683593 3.00781255-3.00585935z"/></g><g clip-path="url(#c)" stroke-miterlimit="10" transform="matrix(0 .55928609 .55929249 0 53.723466 15.408782)"><path d="m0 0-3.007 3.007"/><path d="m-.28515625-.28515625-3.00585935 3.00781255.5683593.5683593 3.00781255-3.00585935z"/></g><g clip-path="url(#d)" stroke-miterlimit="10" transform="matrix(-.55928609 0 0 .55929249 53.723744 5.948579)"><path d="m0 0-3.007 3.007"/><path d="m-.28515625-.28515625-3.00585935 3.00781255.5683593.5683593 3.00781255-3.00585935z"/></g><g clip-path="url(#e)" stroke-miterlimit="10" transform="matrix(0 -.55928609 -.55929249 0 47.626683 15.408914)"><path d="m0 0 3.007 3.007"/><path d="m.28515625-.28515625-.5703125.5703125 3.00781255 3.00585935.5683593-.5683593z"/></g><path d="m54.0166 7.6559195-6.363937 6.3639375-.318636-.318635 6.363938-6.3639379z" stroke-miterlimit="10" stroke-width=".352778"/><path d="m54.857573 13.179475-1.682247 1.681135-.317879-.317876 1.681155-1.682227z" stroke-miterlimit="10" stroke-width=".559289"/><path d="m46.811982 8.4971454-.318968-.3189715 1.682227-1.6811545.317876.3178791z" stroke-miterlimit="10" stroke-width=".559289"/><path d="m53.175865 6.4964559 1.681135 1.682247-.317876.3178791-1.682227-1.6811546z" stroke-miterlimit="10" stroke-width=".559289"/><path d="m48.49355 14.542067-.318971.318968-1.681155-1.682228.317879-.317876z" stroke-miterlimit="10" stroke-width=".559289"/><path d="m54.016565 13.701682-.318636.318636-6.363938-6.3639383.318636-.3186354z" stroke-miterlimit="10" stroke-width=".352778"/><path clip-path="url(#f)" d="m0 0c-.423-.423-1.109-.423-1.532 0s-.423 1.109 0 1.532 1.109.423 1.532 0 .423-1.109 0-1.532z" transform="matrix(0 -.51095647 -.50444971 0 53.183058 10.287401)"/><path clip-path="url(#g)" d="m0 0c-.423-.423-1.109-.423-1.532 0s-.423 1.109 0 1.532 1.109.423 1.532 0 .423-1.109 0-1.532z" transform="matrix(0 -.51095647 -.50444971 0 48.940374 10.287428)"/><path clip-path="url(#h)" d="m0 0c-.423-.423-1.109-.423-1.532 0s-.423 1.109 0 1.532 1.109.423 1.532 0 .423-1.109 0-1.532z" transform="matrix(-.51095647 0 0 .50444971 50.283902 8.171105)"/><path clip-path="url(#i)" d="m0 0c-.423-.423-1.109-.423-1.532 0s-.423 1.109 0 1.532 1.109.423 1.532 0 .423-1.109 0-1.532z" transform="matrix(-.51095647 0 0 .50444971 50.283896 12.413725)"/></g></g></svg>