<?xml version="1.0" encoding="UTF-8" standalone="no"?>
<!-- Created with Inkscape (http://www.inkscape.org/) -->

<svg
   width="26mm"
   height="30mm"
   viewBox="0 0 26 30"
   version="1.1"
   id="svg1"
   xmlns:xlink="http://www.w3.org/1999/xlink"
   xmlns="http://www.w3.org/2000/svg"
   xmlns:svg="http://www.w3.org/2000/svg">
  <defs
     id="defs1">
    <linearGradient
       id="linearGradient22">
      <stop
         style="stop-color:#ffdba6;stop-opacity:1;"
         offset="0"
         id="stop21" />
      <stop
         style="stop-color:#f2c478;stop-opacity:1;"
         offset="1"
         id="stop22" />
    </linearGradient>
    <linearGradient
       xlink:href="#linearGradient22"
       id="linearGradient5341"
       gradientUnits="userSpaceOnUse"
       gradientTransform="translate(-1444.9611,-721.93921)"
       x1="-343.52951"
       y1="740.87885"
       x2="-343.52951"
       y2="655.83948" />
    <clipPath
       clipPathUnits="userSpaceOnUse"
       id="clipPath2004-1-8-2-55-5-4-2-28-4-2-8-8-50">
      <path
         d="M 0,2834.646 H 2834.646 V 0 H 0 Z"
         transform="translate(-1148.7975,-1175.6119)"
         id="path2004-0-0-7-1-8-7-0-6-1-8-7-4-4" />
    </clipPath>
    <clipPath
       clipPathUnits="userSpaceOnUse"
       id="clipPath1374-00-0-1-6-9">
      <path
         d="M 0,2834.646 H 2834.646 V 0 H 0 Z"
         transform="translate(-461.11531,-1475.1781)"
         id="path1374-9-6-4-7-0" />
    </clipPath>
  </defs>
  <g
     id="layer1"
     transform="translate(-612)">
    <g
       id="path122"
       clip-path="url(#clipPath1374-00-0-1-6-9)"
       transform="matrix(-0.35277776,0,0,0.35277776,617.32884,25.410075)">
      <path
         style="color:#000000;fill:url(#linearGradient5341);stroke-miterlimit:10;-inkscape-stroke:none"
         d="m 0,0 -21.223,7.255 c -0.337,0.115 -0.707,0.115 -1.044,0 L -43.49,0 c -0.512,-0.175 -0.879,-0.592 -0.956,-1.088 L -54.328,-64.8 c -0.128,-0.823 0.569,-1.559 1.477,-1.559 h 31.106 31.106 c 0.907,0 1.605,0.736 1.477,1.559 L 0.955,-1.088 C 0.879,-0.592 0.512,-0.175 0,0"
         id="path171" />
      <path
         style="color:#000000;fill:#4d3608;stroke-miterlimit:10;-inkscape-stroke:none"
         d="m -52.851562,-67.208984 c -1.367537,0 -2.528283,1.176762 -2.316407,2.539062 l 9.88086,63.71289075 c 0.128752,0.82936477 0.735951,1.49322613 1.521484,1.76171875 l 21.224609,7.2558594 c 0.517057,0.1764437 1.07474,0.1764437 1.591797,0 h 0.002 L 0.27539063,0.8046875 C 1.060348,0.53639151 1.6670432,-0.12728558 1.7949219,-0.95703125 v -0.001953 L 11.677734,-64.669922 c 0.21198,-1.362964 -0.949363,-2.539062 -2.3164059,-2.539062 H -21.744141 Z m 0,1.701172 h 31.107421 31.1054691 c 0.4469549,0 0.6807389,0.293137 0.6367188,0.576171 v 0.002 L 0.11523437,-1.2167969 c -0.02473099,0.1614023 -0.15215872,0.33060237 -0.390625,0.4121094 L -21.498047,6.4511719 v -0.00195 c -0.156942,0.053556 -0.337198,0.053556 -0.49414,0 v 0.00195 l -21.222657,-7.2558594 c -0.238466,-0.081507 -0.365377,-0.2514283 -0.390625,-0.4140625 l -9.882812,-63.710937 v -0.002 c -0.04412,-0.283698 0.188257,-0.576171 0.636719,-0.576171 z"
         id="path172" />
    </g>
    <path
       id="path123"
       d="m 0,0 c -0.423,-0.423 -1.109,-0.423 -1.532,0 -0.423,0.423 -0.423,1.109 0,1.532 0.423,0.423 1.109,0.423 1.532,0 C 0.423,1.109 0.423,0.423 0,0 Z"
       style="fill:#ff0000;fill-opacity:1;stroke:none;stroke-width:0.88636;stroke-linecap:butt;stroke-linejoin:miter;stroke-miterlimit:10;stroke-dasharray:none;stroke-opacity:1"
       transform="matrix(-0.51095647,0,0,0.50444971,624.60785,12.568341)"
       clip-path="url(#clipPath2004-1-8-2-55-5-4-2-28-4-2-8-8-50)" />
    <path
       style="color:#000000;fill:#ff0000;stroke-miterlimit:10;-inkscape-stroke:none"
       d="M -0.63867187,-1.4179687 V 25.109375 H 0.63867187 V -1.4179687 Z"
       id="path124"
       transform="matrix(-0.24945155,-0.24945155,-0.24945155,0.24945155,627.95446,5.8274379)" />
    <path
       style="color:#000000;fill:#ff0000;stroke-miterlimit:10;-inkscape-stroke:none"
       d="M -25.111328,-0.63867187 V 0.63867187 H 1.4160156 v -1.27734374 z"
       id="path125"
       transform="matrix(-0.24945155,-0.24945155,-0.24945155,0.24945155,622.04409,5.8274189)" />
    <path
       style="color:#000000;fill:#ff0000;stroke-miterlimit:10;-inkscape-stroke:none"
       d="M -0.28515625,-0.28515625 -3.2910156,2.7226563 -2.7226563,3.2910156 0.28515625,0.28515625 Z"
       id="path126"
       transform="matrix(0,0.55928609,0.55929249,0,622.74434,8.2092089)" />
    <path
       style="color:#000000;fill:#ff0000;stroke-miterlimit:10;-inkscape-stroke:none"
       d="M -0.28515625,-0.28515625 -3.2910156,2.7226563 -2.7226563,3.2910156 0.28515625,0.28515625 Z"
       id="path127"
       transform="matrix(0,0.55928609,0.55929249,0,625.57257,11.037446)" />
    <path
       style="color:#000000;fill:#ff0000;stroke-miterlimit:10;-inkscape-stroke:none"
       d="M -0.28515625,-0.28515625 -3.2910156,2.7226563 -2.7226563,3.2910156 0.28515625,0.28515625 Z"
       id="path128"
       transform="matrix(-0.55928609,0,0,0.55929249,625.5731,6.5272419)" />
    <path
       style="color:#000000;fill:#ff0000;stroke-miterlimit:10;-inkscape-stroke:none"
       d="M 0.28515625,-0.28515625 -0.28515625,0.28515625 2.7226563,3.2910156 3.2910156,2.7226563 Z"
       id="path129"
       transform="matrix(0,-0.55928609,-0.55929249,0,624.42576,11.037845)" />
    <path
       style="color:#000000;fill:#ff0000;stroke-miterlimit:10;-inkscape-stroke:none"
       d="M 0.40429688,-0.40429688 -0.40429688,0.40429688 2.1484375,2.9570313 4.7011719,0.40429688 3.890625,-0.40429688 2.1484375,1.3398437 Z"
       id="path130"
       transform="matrix(-0.27796635,-0.27796635,-0.27796648,0.27796648,622.8848,12.091363)" />
    <path
       style="color:#000000;fill:#ff0000;stroke-miterlimit:10;-inkscape-stroke:none"
       d="m -2.1484375,-2.9570313 -2.5527344,2.55273442 0.8105469,0.80859376 1.7421875,-1.74414058 1.74414062,1.74414058 0.80859376,-0.80859376 z"
       id="path131"
       transform="matrix(-0.27796635,-0.27796635,-0.27796648,0.27796648,627.11419,5.4738669)" />
    <path
       style="color:#000000;fill:#ff0000;stroke-miterlimit:10;-inkscape-stroke:none"
       d="M 0.40429688,-0.40429688 -0.40429688,0.40429688 2.1484375,2.9570313 4.7011719,0.40429688 3.890625,-0.40429688 2.1484375,1.3398437 Z"
       id="path132"
       transform="matrix(0.27796635,-0.27796635,-0.27796648,-0.27796648,621.69071,6.6678789)" />
    <path
       style="color:#000000;fill:#ff0000;stroke-miterlimit:10;-inkscape-stroke:none"
       d="m -2.1484375,-2.9570313 -2.5527344,2.55273442 0.8105469,0.80859376 1.7421875,-1.74414058 1.74414062,1.74414058 0.80859376,-0.80859376 z"
       id="path133"
       transform="matrix(0.27796635,-0.27796635,-0.27796648,-0.27796648,628.30829,10.897354)" />
    <path
       id="path134"
       d="m 0,0 c -0.423,-0.423 -1.109,-0.423 -1.532,0 -0.423,0.423 -0.423,1.109 0,1.532 0.423,0.423 1.109,0.423 1.532,0 C 0.423,1.109 0.423,0.423 0,0 Z"
       style="fill:#ff0000;fill-opacity:1;stroke:none;stroke-width:0.88636;stroke-linecap:butt;stroke-linejoin:miter;stroke-miterlimit:10;stroke-dasharray:none;stroke-opacity:1"
       transform="matrix(-0.51095647,0,0,0.50444971,620.3652,8.3256939)"
       clip-path="url(#clipPath2004-1-8-2-55-5-4-2-28-4-2-8-8-50)" />
    <path
       id="path135"
       d="m 0,0 c -0.423,-0.423 -1.109,-0.423 -1.532,0 -0.423,0.423 -0.423,1.109 0,1.532 0.423,0.423 1.109,0.423 1.532,0 C 0.423,1.109 0.423,0.423 0,0 Z"
       style="fill:#ff0000;fill-opacity:1;stroke:none;stroke-width:0.88636;stroke-linecap:butt;stroke-linejoin:miter;stroke-miterlimit:10;stroke-dasharray:none;stroke-opacity:1"
       transform="matrix(-0.51095647,0,0,0.50444971,628.85047,8.3257259)"
       clip-path="url(#clipPath2004-1-8-2-55-5-4-2-28-4-2-8-8-50)" />
    <path
       id="path136"
       d="m 0,0 c -0.423,-0.423 -1.109,-0.423 -1.532,0 -0.423,0.423 -0.423,1.109 0,1.532 0.423,0.423 1.109,0.423 1.532,0 C 0.423,1.109 0.423,0.423 0,0 Z"
       style="fill:#ff0000;fill-opacity:1;stroke:none;stroke-width:0.88636;stroke-linecap:butt;stroke-linejoin:miter;stroke-miterlimit:10;stroke-dasharray:none;stroke-opacity:1"
       transform="matrix(-0.51095647,0,0,0.50444971,624.60782,4.0830769)"
       clip-path="url(#clipPath2004-1-8-2-55-5-4-2-28-4-2-8-8-50)" />
    <path
       style="fill:#ff0000;stroke-width:0.352777"
       d="m -627.44743,-22.513991 v -0.582083 h 4.7625 v 2.19604 h -0.635 v -0.132291 h -3.28084 l -0.1852,0.926041 h 4.41854 q -0.10584,1.508124 -0.23813,2.116666 -0.0794,0.343958 -0.34396,0.502708 -0.26458,0.15875 -1.05833,0.15875 -0.0265,-0.132292 -0.0794,-0.238125 -0.0265,-0.105833 -0.0529,-0.211667 -0.0265,-0.07938 -0.0794,-0.185208 h 0.635 q 0.29104,0 0.3175,-0.07938 0.0529,-0.132292 0.18521,-1.534583 h -3.81 l -0.13229,0.529167 -0.60854,-0.15875 0.26458,-1.164166 q 0.15875,-0.926041 0.21167,-1.217083 h 3.83646 v -0.926041 z"
       id="text136"
       transform="scale(-1)"
       aria-label="弓" />
    <path
       style="color:#000000;fill:#ff0000;-inkscape-stroke:none"
       d="m -625,-24.962891 c -2.62039,0 -4.75,2.129612 -4.75,4.75 0,2.620389 2.12961,4.75 4.75,4.75 2.62039,0 4.75,-2.129611 4.75,-4.75 0,-2.620388 -2.12961,-4.75 -4.75,-4.75 z m 0,0.5 c 2.35017,0 4.25,1.899831 4.25,4.25 0,2.35017 -1.89983,4.25 -4.25,4.25 -2.35017,0 -4.25,-1.89983 -4.25,-4.25 0,-2.350169 1.89983,-4.25 4.25,-4.25 z"
       id="circle136"
       transform="scale(-1)" />
  </g>
</svg>
