<svg height="31.358999mm" viewBox="0 0 27.117003 31.358999" width="27.117002mm" xmlns="http://www.w3.org/2000/svg" xmlns:xlink="http://www.w3.org/1999/xlink"><clipPath id="a"><path d="m0 2834.646h2834.646v-2834.646h-2834.646z" transform="translate(-461.11531 -1475.1781)"/></clipPath><clipPath id="b"><path d="m0 2834.646h2834.646v-2834.646h-2834.646z" transform="translate(-494.73181 -43.851026)"/></clipPath><clipPath id="c"><path d="m0 2834.646h2834.646v-2834.646h-2834.646z" transform="translate(-494.73181 -43.851026)"/></clipPath><clipPath id="d"><path d="m0 2834.646h2834.646v-2834.646h-2834.646z" transform="translate(-494.73181 -43.851026)"/></clipPath><clipPath id="e"><path d="m0 2834.646h2834.646v-2834.646h-2834.646z" transform="translate(-491.72521 -43.851026)"/></clipPath><clipPath id="f"><path d="m0 2834.646h2834.646v-2834.646h-2834.646z" transform="translate(-1148.7975 -1175.6119)"/></clipPath><clipPath id="g"><path d="m0 2834.646h2834.646v-2834.646h-2834.646z" transform="translate(-1148.7975 -1175.6119)"/></clipPath><clipPath id="h"><path d="m0 2834.646h2834.646v-2834.646h-2834.646z" transform="translate(-1148.7975 -1175.6119)"/></clipPath><clipPath id="i"><path d="m0 2834.646h2834.646v-2834.646h-2834.646z" transform="translate(-1148.7975 -1175.6119)"/></clipPath><linearGradient id="j" gradientTransform="matrix(-1 0 0 -1 -2398.1746 671.35208)" gradientUnits="userSpaceOnUse" x1="-1783.5815" x2="-1783.5815" y1="745.30542" y2="656.41376"><stop offset="0" stop-color="#f2c478"/><stop offset="1" stop-color="#ffdba6"/></linearGradient><g clip-path="url(#a)" stroke-miterlimit="10" transform="matrix(-.35277776 0 0 .35277776 5.887257 26.089084)"><path d="m0 0-21.223 7.255c-.337.115-.707.115-1.044 0l-21.223-7.255c-.512-.175-.879-.592-.956-1.088l-9.882-63.712c-.128-.823.569-1.559 1.477-1.559h31.106 31.106c.907 0 1.605.736 1.477 1.559l-9.883 63.712c-.076.496-.443.913-.955 1.088" fill="url(#j)"/><path d="m-52.851562-67.208984c-1.367537 0-2.528283 1.176762-2.316407 2.539062l9.88086 63.71289075c.128752.82936477.735951 1.49322613 1.521484 1.76171875l21.224609 7.2558594c.517057.1764437 1.07474.1764437 1.591797 0h.002l21.22260963-7.2558594c.78495737-.26829599 1.39165257-.93197308 1.51953127-1.76171875v-.001953l9.8828121-63.71093775c.21198-1.362964-.949363-2.539062-2.3164059-2.539062h-31.1054691zm0 1.701172h31.107421 31.1054691c.4469549 0 .6807389.293137.6367188.576171v.002l-9.88281253 63.7128441c-.02473099.1614023-.15215872.33060237-.390625.4121094l-21.22265637 7.2558594v-.00195c-.156942.053556-.337198.053556-.49414 0v.00195l-21.222657-7.2558594c-.238466-.081507-.365377-.2514283-.390625-.4140625l-9.882812-63.710937v-.002c-.04412-.283698.188257-.576171.636719-.576171z" fill="#4d3608"/></g><g fill="#f00"><g clip-path="url(#b)" stroke-miterlimit="10" transform="matrix(0 .55928609 .55929249 0 8.828317 7.63064)"><path d="m0 0-3.007 3.007"/><path d="m-.28515625-.28515625-3.00585935 3.00781255.5683593.5683593 3.00781255-3.00585935z"/></g><g clip-path="url(#c)" stroke-miterlimit="10" transform="matrix(0 .55928609 .55929249 0 16.606457 15.408781)"><path d="m0 0-3.007 3.007"/><path d="m-.28515625-.28515625-3.00585935 3.00781255.5683593.5683593 3.00781255-3.00585935z"/></g><g clip-path="url(#d)" stroke-miterlimit="10" transform="matrix(-.55928609 0 0 .55929249 16.606727 5.948578)"><path d="m0 0-3.007 3.007"/><path d="m-.28515625-.28515625-3.00585935 3.00781255.5683593.5683593 3.00781255-3.00585935z"/></g><g clip-path="url(#e)" stroke-miterlimit="10" transform="matrix(0 -.55928609 -.55929249 0 10.509667 15.408914)"><path d="m0 0 3.007 3.007"/><path d="m.28515625-.28515625-.5703125.5703125 3.00781255 3.00585935.5683593-.5683593z"/></g><path d="m16.899597 7.6559185-6.36393 6.3639375-.31864-.318635 6.36394-6.3639379z" stroke-miterlimit="10" stroke-width=".352778"/><path d="m17.740557 13.179475-1.68224 1.681135-.31788-.317876 1.68115-1.682227z" stroke-miterlimit="10" stroke-width=".559289"/><path d="m9.6949768 8.4971454-.31897-.3189715 1.6822302-1.6811545.31788.3178791z" stroke-miterlimit="10" stroke-width=".559289"/><path d="m16.058837 6.4964549 1.68114 1.682247-.31788.3178791-1.68223-1.6811546z" stroke-miterlimit="10" stroke-width=".559289"/><path d="m11.376537 14.542066-.31897.318968-1.6811502-1.682228.31788-.317876z" stroke-miterlimit="10" stroke-width=".559289"/><path d="m16.899547 13.701682-.31864.318636-6.36393-6.3639383.31863-.3186354z" stroke-miterlimit="10" stroke-width=".352778"/><path clip-path="url(#f)" d="m0 0c-.423-.423-1.109-.423-1.532 0s-.423 1.109 0 1.532 1.109.423 1.532 0 .423-1.109 0-1.532z" transform="matrix(0 -.51095647 -.50444971 0 16.066047 10.287401)"/><path clip-path="url(#g)" d="m0 0c-.423-.423-1.109-.423-1.532 0s-.423 1.109 0 1.532 1.109.423 1.532 0 .423-1.109 0-1.532z" transform="matrix(0 -.51095647 -.50444971 0 11.823377 10.287427)"/><path clip-path="url(#h)" d="m0 0c-.423-.423-1.109-.423-1.532 0s-.423 1.109 0 1.532 1.109.423 1.532 0 .423-1.109 0-1.532z" transform="matrix(-.51095647 0 0 .50444971 13.166897 8.171104)"/><path clip-path="url(#i)" d="m0 0c-.423-.423-1.109-.423-1.532 0s-.423 1.109 0 1.532 1.109.423 1.532 0 .423-1.109 0-1.532z" transform="matrix(-.51095647 0 0 .50444971 13.166877 12.413725)"/><path d="m17.728927 24.843296-.59531-.23151.29766-.562239h-1.66191l-.0992.06615-.34727-.496093q.0496-.03307.79375-1.025259h-1.73632v-4.663275q0-.33073.19843-.595312.22324-.264583.96738-.297656 0 .264583.0248.330729 0 .03307.0496.165364.0496.06614.12402.264583h-.64492q-.0496 0-.0744.03307-.0248.03307-.0248.09922v.992186h3.175q.0496-.23151.32245-1.025259.14883-.297656.4961-.760676.17362.330728.44647.595311-.47128.628385-.5953 1.02526-.12402.496093-.17364.92604-.0496.859895-.0496 2.579685.39687-.496094.62011-.661458.14883.330729.39688.595312-.5457.46302-.94258.992186-.44648.661458-.96738 1.653644zm.64492-2.248955h-1.58749l-.52091.793749h1.5627q.19844-.264583.32246-.46302.12402-.198438.22324-.330729zm-2.08358-1.48828h-1.28985v.826822h1.28985zm.5705.826822h1.19063v-.826822h-1.19063zm-.5705-2.348174h-1.28985v.926041h1.28985zm1.78593 0h-1.21543v.926041h1.19063q.0248-.297656.0248-.926041zm-5.58105.926041v.628384h-4.1919902v-1.719789h3.7455002l.0992-.496094h-4.1175702q.0248-.92604.0992-1.389061.0744-.231509.22324-.330728.24805-.165364.89297-.264583.0992.429948.27285.760676h-.62011q-.0744 0-.0992.03307-.0248.03307-.0744.23151l-.0248.396874h3.5222602l.0744-.396874.57051.198437-.32246 1.819008h-3.6462802v.529169zm-3.4726602 2.41432q-.27285.363801-.49608.760676h.94257q-.22324-.429948-.44649-.760676zm1.3394602 1.422133h-2.1332002l-.0744.03307-.37207-.496093q.47129-.859895.4961-.892967.0248-.06615.14882-.231511.12403-.165364.19844-.297655-.59531-.496094-1.24023-.661458.27285-.330729.42168-.69453.34726.132291.62011.396874.29766.23151.62012.562239.29765-.297656.5705-.429947.27285-.165365.6945402-.330729.12402.396874.29765.661457-.5457.165365-.6945202.264583-.27286.132292-.47129.297656.42167.760676.6201102 1.157551h.29766zm1.66191-.826822.17363-.529166-.64492-.297655q-.19843.628384-.24805.826821zm-.94257-1.091405-.44649-.297655.29766-.628385.49609.396874q.49609-.429947.74414-.562238.52089-.231511.89296-.330729.0992.297656.24805.595312-.5209.132291-.84335.297655-.32247.132292-.54571.297656l.44649.264583.0992-.23151.49609.297656-.32246.992186h.52089v.595312h-.69452q-.0248.06615-.22325.727603l-.57051-.23151.14884-.496093h-1.16583q.0992-.628384.19844-.92604.0992-.363802.22325-.760677z" stroke-width=".352777"/></g></svg>