<svg height="31.358999mm" viewBox="0 0 27.117003 31.358999" width="27.117002mm" xmlns="http://www.w3.org/2000/svg" xmlns:xlink="http://www.w3.org/1999/xlink"><clipPath id="a"><path d="m0 2834.646h2834.646v-2834.646h-2834.646z" transform="translate(-531.98141 -1475.1781)"/></clipPath><clipPath id="b"><path d="m0 2834.646h2834.646v-2834.646h-2834.646z" transform="translate(-494.73181 -43.851026)"/></clipPath><clipPath id="c"><path d="m0 2834.646h2834.646v-2834.646h-2834.646z" transform="translate(-494.73181 -43.851026)"/></clipPath><clipPath id="d"><path d="m0 2834.646h2834.646v-2834.646h-2834.646z" transform="translate(-494.73181 -43.851026)"/></clipPath><clipPath id="e"><path d="m0 2834.646h2834.646v-2834.646h-2834.646z" transform="translate(-491.72521 -43.851026)"/></clipPath><clipPath id="f"><path d="m0 2834.646h2834.646v-2834.646h-2834.646z" transform="translate(-1148.7975 -1175.6119)"/></clipPath><clipPath id="g"><path d="m0 2834.646h2834.646v-2834.646h-2834.646z" transform="translate(-1148.7975 -1175.6119)"/></clipPath><clipPath id="h"><path d="m0 2834.646h2834.646v-2834.646h-2834.646z" transform="translate(-1148.7975 -1175.6119)"/></clipPath><clipPath id="i"><path d="m0 2834.646h2834.646v-2834.646h-2834.646z" transform="translate(-1148.7975 -1175.6119)"/></clipPath><linearGradient id="j" gradientTransform="matrix(-1 0 0 -1 43.106512 164.075146)" gradientUnits="userSpaceOnUse" x1="222.31836" x2="222.31836" y1="231.2834" y2="155.88185"><stop offset="0" stop-color="#f2c478"/><stop offset="1" stop-color="#ffdba6"/></linearGradient><g transform="translate(-111.351)"><g clip-path="url(#a)" stroke-miterlimit="10" transform="matrix(-.35277776 0 0 .35277776 117.23826 26.089084)"><path d="m0 0-21.223 7.255c-.337.115-.707.115-1.044 0l-21.223-7.255c-.512-.175-.879-.592-.956-1.088l-9.882-63.712c-.128-.823.569-1.559 1.477-1.559h31.106 31.106c.907 0 1.605.736 1.477 1.559l-9.883 63.712c-.076.496-.443.913-.955 1.088" fill="url(#j)"/><path d="m-52.851562-67.208984c-1.367537 0-2.528283 1.176762-2.316407 2.539062l9.88086 63.71289075c.128752.82936477.735951 1.49322613 1.521484 1.76171875l21.224609 7.2558594c.517057.1764437 1.07474.1764437 1.591797 0h.002l21.22260963-7.2558594c.78495737-.26829599 1.39165257-.93197308 1.51953127-1.76171875v-.001953l9.8828121-63.71093775c.21198-1.362964-.949363-2.539062-2.3164059-2.539062h-31.1054691zm0 1.701172h31.107421 31.1054691c.4469549 0 .6807389.293137.6367188.576171v.002l-9.88281253 63.7128441c-.02473099.1614023-.15215872.33060237-.390625.4121094l-21.22265637 7.2558594v-.00195c-.156942.053556-.337198.053556-.49414 0v.00195l-21.222657-7.2558594c-.238466-.081507-.365377-.2514283-.390625-.4140625l-9.882812-63.710937v-.002c-.04412-.283698.188257-.576171.636719-.576171z" fill="#4d3608"/></g><g fill="#f00"><path d="m128.50604 20.172157-.69453-.03307q.0331-.165364.0331-.314192 0-.148828.0331-.214974.0331-.09922.0661-.214973 0-.09922.0992-.330729l.66146.04961q-.19844.545702-.19844 1.058331zm-4.76249-1.438671v.562239h.89296v-.562239zm1.0914 1.223697.26459-.347265h-2.0836v-1.20716h1.62057v-.727603q0-.08268-.13228-.09922-.13229-.03307-.62839-.03307h-1.62057q-.23151 0-.33073.04961-.0992.03307-.26458.330728-.23151-.115755-.69453-.214974.19844-.281119.33073-.363801.19844-.09922.33073-.115756.0992-.01654.69453-.01654h1.75286q.62839 0 .7276.01654.23152.04961.39688.132292.16536.08268.16536.198437v1.785936q.29766-.264583.39688-.314193.16536.115756.56224.314193-.52917.380338-.79375.711067-.33073.396874-.56224.909504l-.7276-.08268.33072-.595312h-3.14192q0-1.389061.13229-1.852082.0661-.281119.26458-.363801.16536-.08268.79375-.115755.0992.165364.26458.363802h-.3638q-.1323 0-.16536.01654-.0331.01654-.0992.264583 0 0-.0661 1.355988zm2.67891 1.008723h-.72761v-.942577q-.0992.04961-.16536.08268-.0662.04961-.16537.08268-.0992.04961-.16536.09922-.0992.04961-.23151.115755l-.49609-.28112 1.25676-.562239q.0661-.595311.13229-.859894-.62838-.545703-1.0914-.859895l.56223-.264583q.42995.297656.76068.644921.3638-.578775 1.05833-1.025259.33073.23151.52917.314192-.62839.396875-.82682.711067-.19844.264583-.3638.892968-.0661.46302-.0661 1.852081z" stroke-width=".352777"/><path d="m125.50471 23.191531v1.141014h-.7276v-1.141014h-1.5875q0-.413411-.0331-.644921l-.8599.396875-.52916-.248047.69453-.297656-.8599-.165364.33073-.314193q.0661.01654.42995.08268.33073.08268.66146.148828-.26458-.314193-.59531-.496094-.26459-.132291-.36381-.132291-.0331 0-.0992.03307-.0992.08268-.19843.28112-.16537-.06614-.62839-.198438.16537-.297656.3638-.380338.19844-.09922.42995-.09922.3638 0 .89297.1819.46302.165365.7276.496094.29766.363801.33073 1.008722h.89297v-1.703252h.7276v1.703252h1.12448q.0661-.512629.16537-.69453.16536-.264583.33072-.413411.39688-.264583.42995-.297655.0661-.04961.69453-.314193.33073.23151.52917.314193-.56224.214973-.79375.363801-.29766.214974-.42995.413411-.13228.214974-.19844.628384h1.28985v.347266h-1.28985v.529166q.19844-.03307 1.12448-.148828.19844.23151.33073.347265-.69453.04961-1.09141.09922-.33072.04961-1.52135.248047l-.3638-.297656q.39688-.08268.76068-.148827v-.628381zm-1.65364 1.240233h4.59712v.347265h-5.29166q.0331-.148828-.0331-.496093-.19844.115755-.42995.23151-.23151.132292-.46302.248047l-.52917-.264583q.23151-.09922.46302-.198438.19844-.08268.39688-.165364-.0992-.01654-.33073-.06614-.26458-.03307-.69453-.09922l.29765-.297656 1.15755.214974q-.26458-.248047-.66145-.446484-.23151-.115755-.39688-.115755-.0331 0-.0992.03307 0 0-.16536.23151-.23151-.115756-.66146-.198438.26458-.314192.3638-.363801.16537-.08268.33073-.08268.3638 0 .92604.1819.59532.181899.82683.446482.29766.264583.39688.859895z" stroke-width=".352777"/><g stroke-miterlimit="10"><g clip-path="url(#b)" transform="matrix(.39547498 .39547498 .3954795 -.3954795 119.40921 11.867943)"><path d="m0 0-3.007 3.007"/><path d="m-.28515625-.28515625-3.00585935 3.00781255.5683593.5683593 3.00781255-3.00585935z"/></g><g clip-path="url(#c)" transform="matrix(.39547498 .39547498 .3954795 -.3954795 130.40917 11.867943)"><path d="m0 0-3.007 3.007"/><path d="m-.28515625-.28515625-3.00585935 3.00781255.5683593.5683593 3.00781255-3.00585935z"/></g><g clip-path="url(#d)" transform="matrix(-.39547498 .39547498 .3954795 .3954795 123.72 5.178377)"><path d="m0 0-3.007 3.007"/><path d="m-.28515625-.28515625-3.00585935 3.00781255.5683593.5683593 3.00781255-3.00585935z"/></g><g clip-path="url(#e)" transform="matrix(-.39547498 -.39547498 -.3954795 .3954795 126.09819 16.179116)"><path d="m0 0 3.007 3.007"/><path d="m.28515625-.28515625-.5703125.5703125 3.00781255 3.00585935.5683593-.5683593z"/></g><path d="m125.13435 6.1785698v8.9999672h-.45062v-8.9999672z" stroke-width=".352778"/><path d="m129.63474 9.4896544-.00078 2.3782706-.44955.000002-.00076-2.37827z" stroke-width=".559289"/><path d="m120.63474 11.867838-.45109-.000003.00076-2.37827.44955.0000026z" stroke-width=".559289"/><path d="m123.72 5.9531941 2.37827.000786v.4495463l-2.37827.0007589z" stroke-width=".559289"/><path d="m126.09819 14.953181v.451091l-2.37827-.000759v-.449546z" stroke-width=".559289"/><path d="m129.40932 10.453595v.450619h-8.99997v-.450619z" stroke-width=".352778"/></g><path clip-path="url(#f)" d="m0 0c-.423-.423-1.109-.423-1.532 0s-.423 1.109 0 1.532 1.109.423 1.532 0 .423-1.109 0-1.532z" transform="matrix(-.36130079 -.36130079 -.35669982 .35669982 126.40567 8.628702)"/><path clip-path="url(#g)" d="m0 0c-.423-.423-1.109-.423-1.532 0s-.423 1.109 0 1.532 1.109.423 1.532 0 .423-1.109 0-1.532z" transform="matrix(-.36130079 -.36130079 -.35669982 .35669982 123.40567 11.628759)"/><path clip-path="url(#h)" d="m0 0c-.423-.423-1.109-.423-1.532 0s-.423 1.109 0 1.532 1.109.423 1.532 0 .423-1.109 0-1.532z" transform="matrix(-.36130079 .36130079 .35669982 .35669982 122.85921 9.182263)"/><path clip-path="url(#i)" d="m0 0c-.423-.423-1.109-.423-1.532 0s-.423 1.109 0 1.532 1.109.423 1.532 0 .423-1.109 0-1.532z" transform="matrix(-.36130079 .36130079 .35669982 .35669982 125.85921 12.182268)"/></g></g></svg>