<svg height="31.358999mm" viewBox="0 0 27.117003 31.358999" width="27.117002mm" xmlns="http://www.w3.org/2000/svg" xmlns:xlink="http://www.w3.org/1999/xlink"><clipPath id="a"><path d="m0 2834.646h2834.646v-2834.646h-2834.646z" transform="translate(-531.98141 -1475.1781)"/></clipPath><clipPath id="b"><path d="m0 2834.646h2834.646v-2834.646h-2834.646z" transform="translate(-494.73181 -43.851026)"/></clipPath><clipPath id="c"><path d="m0 2834.646h2834.646v-2834.646h-2834.646z" transform="translate(-494.73181 -43.851026)"/></clipPath><clipPath id="d"><path d="m0 2834.646h2834.646v-2834.646h-2834.646z" transform="translate(-494.73181 -43.851026)"/></clipPath><clipPath id="e"><path d="m0 2834.646h2834.646v-2834.646h-2834.646z" transform="translate(-491.72521 -43.851026)"/></clipPath><clipPath id="f"><path d="m0 2834.646h2834.646v-2834.646h-2834.646z" transform="translate(-1148.7975 -1175.6119)"/></clipPath><clipPath id="g"><path d="m0 2834.646h2834.646v-2834.646h-2834.646z" transform="translate(-1148.7975 -1175.6119)"/></clipPath><clipPath id="h"><path d="m0 2834.646h2834.646v-2834.646h-2834.646z" transform="translate(-1148.7975 -1175.6119)"/></clipPath><clipPath id="i"><path d="m0 2834.646h2834.646v-2834.646h-2834.646z" transform="translate(-1148.7975 -1175.6119)"/></clipPath><linearGradient id="j" gradientTransform="matrix(-1 0 0 -1 -377.74768 164.075146)" gradientUnits="userSpaceOnUse" x1="222.31836" x2="222.31836" y1="231.2834" y2="155.88185"><stop offset="0" stop-color="#f2c478"/><stop offset="1" stop-color="#ffdba6"/></linearGradient><g transform="translate(-259.819)"><g clip-path="url(#a)" stroke-miterlimit="10" transform="matrix(-.35277776 0 0 .35277776 265.70626 26.089084)"><path d="m0 0-21.223 7.255c-.337.115-.707.115-1.044 0l-21.223-7.255c-.512-.175-.879-.592-.956-1.088l-9.882-63.712c-.128-.823.569-1.559 1.477-1.559h31.106 31.106c.907 0 1.605.736 1.477 1.559l-9.883 63.712c-.076.496-.443.913-.955 1.088" fill="url(#j)"/><path d="m-52.851562-67.208984c-1.367537 0-2.528283 1.176762-2.316407 2.539062l9.88086 63.71289075c.128752.82936477.735951 1.49322613 1.521484 1.76171875l21.224609 7.2558594c.517057.1764437 1.07474.1764437 1.591797 0h.002l21.22260963-7.2558594c.78495737-.26829599 1.39165257-.93197308 1.51953127-1.76171875v-.001953l9.8828121-63.71093775c.21198-1.362964-.949363-2.539062-2.3164059-2.539062h-31.1054691zm0 1.701172h31.107421 31.1054691c.4469549 0 .6807389.293137.6367188.576171v.002l-9.88281253 63.7128441c-.02473099.1614023-.15215872.33060237-.390625.4121094l-21.22265637 7.2558594v-.00195c-.156942.053556-.337198.053556-.49414 0v.00195l-21.222657-7.2558594c-.238466-.081507-.365377-.2514283-.390625-.4140625l-9.882812-63.710937v-.002c-.04412-.283698.188257-.576171.636719-.576171z" fill="#4d3608"/></g><g fill="#f00"><path d="m275.7835 19.73429h-3.47266v-1.256769h2.6789v-.810286q0-.06614-.0662-.09922-.0662-.03307-.2315-.03307-.0993-.01654-1.09141-.01654h-2.57969q-.36379 0-.49609.04961-.13223.06614-.26459.380338-.46301-.148828-.76066-.198438.33073-.413411.52915-.479556.23151-.08268.69454-.08268h3.14193q1.05832 0 1.15755.01654.39687.03307.52915.115755.19844.06614.19844.23151v1.273304h-2.6789v.545702h2.84427v.264584q.23151-.132292.7276-.380339.42995.248047.52917.281119-.56224.314193-1.02526.611849-.33073.214973-.92605.826822l-.76067-.132292q.0662-.08268.16536-.165364.0662-.08268.16537-.181901h-4.6302q0-1.190623.0331-1.537889.0662-.545702.19844-.661457.0993-.08268.29765-.165364.23152-.06614.9922-.148829.13223.231511.33072.413412h-.69453-.13223q-.0331.01654-.0331.03307 0 .01654-.0331.03307-.13223.148827-.13223 1.686716h4.20025q.52916-.380338.59532-.413411z" stroke-width=".352777"/><path d="m273.97274 23.191877v1.141014h-.72762v-1.141014h-1.58749q0-.413412-.0331-.644921l-.85989.396874-.52917-.248047.69453-.297656-.8599-.165364.33073-.314192q.0662.01654.42995.08268.33073.08268.66145.148828-.26458-.314193-.59531-.496093-.26458-.132292-.36379-.132292-.0331 0-.0993.03307-.0993.08268-.19844.28112-.16537-.06614-.62838-.198437.16537-.297656.36379-.380338.19845-.09922.42995-.09922.36381 0 .89298.181901.46301.165364.7276.496093.29765.363801.33073 1.008723h.89296v-1.703253h.72761v1.703253h1.12447q.0662-.51263.16537-.694531.16536-.264583.33072-.413411.39687-.264583.42995-.297655.0662-.04961.69454-.314193.33072.231511.52917.314193-.56225.214973-.79376.363801-.29765.214974-.42995.413411-.13223.214974-.19844.628385h1.28985v.347265h-1.28985v.529166q.19844-.03307 1.12448-.148828.19845.23151.33073.347265-.69453.04961-1.0914.09922-.33073.04961-1.52136.248046l-.36379-.297656q.39687-.08268.76068-.148827v-.628385zm-1.65366 1.240232h4.59713v.347265h-5.29165q.0331-.148828-.0331-.496093-.19844.115755-.42995.23151-.23151.132292-.46301.248047l-.52917-.264583q.2315-.09922.46301-.198437.19844-.08268.39688-.165365-.0993-.01654-.33072-.06614-.26459-.03307-.69454-.09922l.29765-.297656 1.15756.214974q-.26458-.248047-.66147-.446484-.2315-.115755-.39687-.115755-.0331 0-.0993.03307 0 0-.16537.23151-.23151-.115755-.66145-.198437.26458-.314193.3638-.363802.16537-.08268.33073-.08268.36381 0 .92604.181901.59531.181901.82682.446484.29765.264583.39687.859895z" stroke-width=".352777"/><g clip-path="url(#b)" stroke-miterlimit="10" transform="matrix(.39547498 .39547498 .3954795 -.3954795 267.87721 11.868287)"><path d="m0 0-3.007 3.007"/><path d="m-.28515625-.28515625-3.00585935 3.00781255.5683593.5683593 3.00781255-3.00585935z"/></g><g clip-path="url(#c)" stroke-miterlimit="10" transform="matrix(.39547498 .39547498 .3954795 -.3954795 278.87717 11.868287)"><path d="m0 0-3.007 3.007"/><path d="m-.28515625-.28515625-3.00585935 3.00781255.5683593.5683593 3.00781255-3.00585935z"/></g><g clip-path="url(#d)" stroke-miterlimit="10" transform="matrix(-.39547498 .39547498 .3954795 .3954795 272.188 5.178721)"><path d="m0 0-3.007 3.007"/><path d="m-.28515625-.28515625-3.00585935 3.00781255.5683593.5683593 3.00781255-3.00585935z"/></g><g clip-path="url(#e)" stroke-miterlimit="10" transform="matrix(-.39547498 -.39547498 -.3954795 .3954795 274.56619 16.17946)"><path d="m0 0 3.007 3.007"/><path d="m.28515625-.28515625-.5703125.5703125 3.00781255 3.00585935.5683593-.5683593z"/></g><path d="m273.60235 6.1789138v8.9999672h-.45062v-8.9999672z" stroke-miterlimit="10" stroke-width=".352778"/><path d="m278.10275 9.4899984-.00078 2.3782706-.44955.000002-.00076-2.37827z" stroke-miterlimit="10" stroke-width=".559289"/><path d="m269.10275 11.868182-.45109-.000003.00076-2.37827.44955.0000026z" stroke-miterlimit="10" stroke-width=".559289"/><path d="m272.188 5.9535381 2.37827.000786v.4495463l-2.37827.0007589z" stroke-miterlimit="10" stroke-width=".559289"/><path d="m274.56619 14.953525v.451091l-2.37827-.000759v-.449546z" stroke-miterlimit="10" stroke-width=".559289"/><path d="m277.87732 10.453939v.450619h-8.99997v-.450619z" stroke-miterlimit="10" stroke-width=".352778"/><path clip-path="url(#f)" d="m0 0c-.423-.423-1.109-.423-1.532 0s-.423 1.109 0 1.532 1.109.423 1.532 0 .423-1.109 0-1.532z" transform="matrix(-.36130079 -.36130079 -.35669982 .35669982 274.87368 8.629046)"/><path clip-path="url(#g)" d="m0 0c-.423-.423-1.109-.423-1.532 0s-.423 1.109 0 1.532 1.109.423 1.532 0 .423-1.109 0-1.532z" transform="matrix(-.36130079 -.36130079 -.35669982 .35669982 271.87367 11.629103)"/><path clip-path="url(#h)" d="m0 0c-.423-.423-1.109-.423-1.532 0s-.423 1.109 0 1.532 1.109.423 1.532 0 .423-1.109 0-1.532z" transform="matrix(-.36130079 .36130079 .35669982 .35669982 271.32721 9.182607)"/><path clip-path="url(#i)" d="m0 0c-.423-.423-1.109-.423-1.532 0s-.423 1.109 0 1.532 1.109.423 1.532 0 .423-1.109 0-1.532z" transform="matrix(-.36130079 .36130079 .35669982 .35669982 274.32721 12.182612)"/></g></g></svg>