<?xml version="1.0" encoding="UTF-8" standalone="no"?>
<!-- Created with Inkscape (http://www.inkscape.org/) -->

<svg
   width="26mm"
   height="30mm"
   viewBox="0 0 26 30"
   version="1.1"
   id="svg1"
   xmlns:xlink="http://www.w3.org/1999/xlink"
   xmlns="http://www.w3.org/2000/svg"
   xmlns:svg="http://www.w3.org/2000/svg">
  <defs
     id="defs1">
    <linearGradient
       id="linearGradient22">
      <stop
         style="stop-color:#ffdba6;stop-opacity:1;"
         offset="0"
         id="stop21" />
      <stop
         style="stop-color:#f2c478;stop-opacity:1;"
         offset="1"
         id="stop22" />
    </linearGradient>
    <clipPath
       clipPathUnits="userSpaceOnUse"
       id="clipPath1316-8-6">
      <path
         d="M 0,2834.646 H 2834.646 V 0 H 0 Z"
         transform="translate(-531.98141,-1560.2174)"
         id="path1316-8-0" />
    </clipPath>
    <linearGradient
       xlink:href="#linearGradient22"
       id="linearGradient8"
       gradientUnits="userSpaceOnUse"
       gradientTransform="translate(-424.48877,-721.93921)"
       x1="-343.52951"
       y1="740.87885"
       x2="-343.52951"
       y2="655.83948" />
  </defs>
  <g
     id="layer1"
     transform="translate(-252)">
    <g
       id="path59"
       clip-path="url(#clipPath1316-8-6)"
       transform="matrix(-0.35277776,0,0,0.35277776,257.32884,25.410075)">
      <path
         style="color:#000000;fill:url(#linearGradient8);stroke-miterlimit:10;-inkscape-stroke:none"
         d="m 0,0 -21.223,7.255 c -0.337,0.115 -0.707,0.115 -1.044,0 L -43.49,0 c -0.512,-0.175 -0.879,-0.593 -0.956,-1.088 L -54.328,-64.8 c -0.128,-0.823 0.569,-1.559 1.477,-1.559 h 31.106 31.106 c 0.907,0 1.605,0.736 1.477,1.559 L 0.955,-1.088 C 0.879,-0.593 0.512,-0.175 0,0"
         id="path151" />
      <path
         style="color:#000000;fill:#4d3608;stroke-miterlimit:10;-inkscape-stroke:none"
         d="m -52.851562,-67.208984 c -1.367537,0 -2.528283,1.176762 -2.316407,2.539062 l 9.88086,63.71289075 c 0.128904,0.82867416 0.735013,1.49290547 1.521484,1.76171875 l 21.224609,7.2558594 c 0.517057,0.1764437 1.07474,0.1764437 1.591797,0 h 0.002 L 0.27539063,0.8046875 C 1.0612847,0.53607135 1.6668921,-0.12796836 1.7949219,-0.95703125 v -0.001953 L 11.677734,-64.669922 c 0.21198,-1.362964 -0.949363,-2.539062 -2.3164059,-2.539062 H -21.744141 Z m 0,1.701172 h 31.107421 31.1054691 c 0.4469549,0 0.6807389,0.293137 0.6367188,0.576171 v 0.002 L 0.11523437,-1.2167969 c -0.02457878,0.1600856 -0.15309689,0.33092303 -0.390625,0.4121094 L -21.498047,6.4511719 v -0.00195 c -0.156942,0.053556 -0.337198,0.053556 -0.49414,0 v 0.00195 l -21.222657,-7.2558594 c -0.237528,-0.0811864 -0.36553,-0.2527376 -0.390625,-0.4140625 l -9.882812,-63.710937 v -0.002 c -0.04412,-0.283698 0.188257,-0.576171 0.636719,-0.576171 z"
         id="path152" />
    </g>
    <path
       style="stroke-width:0.352777"
       d="m -267.44725,-21.706596 h 3.47265 v 2.513543 h -2.6789 v 1.620573 q 0,0.132292 0.0661,0.198438 0.0661,0.06615 0.23151,0.06615 0.0992,0.03307 1.09141,0.03307 h 2.57969 q 0.3638,0 0.49609,-0.09922 0.13229,-0.132292 0.26459,-0.760677 0.46302,0.297656 0.76067,0.396875 -0.33073,0.826823 -0.52916,0.959115 -0.23151,0.165364 -0.69453,0.165364 h -3.14193 q -1.05834,0 -1.15756,-0.03307 -0.39687,-0.06615 -0.52916,-0.231511 -0.19844,-0.132292 -0.19844,-0.463021 v -2.546616 h 2.67891 v -1.091406 h -2.84427 v -0.529167 q -0.23151,0.264583 -0.72761,0.760677 -0.42995,-0.496094 -0.52917,-0.56224 0.56224,-0.628385 1.02527,-1.223698 0.33072,-0.429948 0.92604,-1.653646 l 0.76067,0.264583 q -0.0661,0.165365 -0.16536,0.330729 -0.0661,0.165365 -0.16536,0.363802 h 4.63021 q 0,2.381251 -0.0331,3.075783 -0.0661,1.091407 -0.19844,1.322917 -0.0992,0.165365 -0.29765,0.330729 -0.23151,0.132292 -0.99219,0.297657 -0.13229,-0.463021 -0.33073,-0.826823 h 0.69453 0.13229 q 0.0331,-0.03307 0.0331,-0.06615 0,-0.03307 0.0331,-0.06615 0.13229,-0.297657 0.13229,-3.373439 h -4.20026 q -0.52917,0.760677 -0.59531,0.826823 z"
       id="text59"
       transform="scale(-1)"
       aria-label="包" />
    <path
       style="color:#000000;fill:#000000 icc-color(sRGB-IEC61966-2, 0.1, 0, 0, 0);stroke-miterlimit:10;-inkscape-stroke:none"
       d="m -0.63867187,-1.4179687 v 7.5957031 h 1.27734374 v -7.5957031 z m 0,18.9335937 v 7.59375 h 1.27734374 v -7.59375 z"
       id="path60"
       transform="matrix(-0.35277776,0,0,0.35277776,264.99972,4.5331638)" />
    <path
       style="color:#000000;fill:#000000 icc-color(sRGB-IEC61966-2, 0.1, 0, 0, 0);stroke-miterlimit:10;-inkscape-stroke:none"
       d="m -25.111328,-0.63867187 v 1.27734374 h 7.595703 v -1.27734374 z m 18.9335936,0 v 1.27734374 h 7.59375 v -1.27734374 z"
       id="path61"
       transform="matrix(-0.35277776,0,0,0.35277776,260.82044,8.7124158)" />
    <path
       style="color:#000000;fill:#000000;stroke-miterlimit:10;-inkscape-stroke:none"
       d="M -0.28515625,-0.28515625 -3.2910156,2.7226563 -2.7226563,3.2910156 0.28515625,0.28515625 Z"
       id="path62"
       transform="matrix(0.39547498,0.39547498,0.3954795,-0.3954795,262.99976,9.9014538)" />
    <path
       style="color:#000000;fill:#000000;stroke-miterlimit:10;-inkscape-stroke:none"
       d="M -0.28515625,-0.28515625 -3.2910156,2.7226563 -2.7226563,3.2910156 0.28515625,0.28515625 Z"
       id="path63"
       transform="matrix(0.39547498,0.39547498,0.3954795,-0.3954795,266.99949,9.9014538)" />
    <path
       style="color:#000000;fill:#000000;stroke-miterlimit:10;-inkscape-stroke:none"
       d="M -0.28515625,-0.28515625 -3.2910156,2.7226563 -2.7226563,3.2910156 0.28515625,0.28515625 Z"
       id="path64"
       transform="matrix(-0.39547498,0.39547498,0.3954795,0.3954795,263.81068,6.7118728)" />
    <path
       style="color:#000000;fill:#000000;stroke-miterlimit:10;-inkscape-stroke:none"
       d="M 0.28515625,-0.28515625 -0.28515625,0.28515625 2.7226563,3.2910156 3.2910156,2.7226563 Z"
       id="path65"
       transform="matrix(-0.39547498,-0.39547498,-0.3954795,0.3954795,266.18886,10.712648)" />
    <path
       style="color:#000000;fill:#000000;stroke-miterlimit:10;-inkscape-stroke:none"
       d="M 0.40429688,-0.40429688 -0.40429688,0.40429688 2.1484375,2.9570313 4.7011719,0.40429688 3.890625,-0.40429688 2.1484375,1.3398437 Z"
       id="path66"
       transform="matrix(-0.39310378,0,0,0.39310397,265.84419,12.547221)" />
    <path
       style="color:#000000;fill:#000000;stroke-miterlimit:10;-inkscape-stroke:none"
       d="m -2.1484375,-2.9570313 -2.5527344,2.55273442 0.8105469,0.80859376 1.7421875,-1.74414058 1.74414062,1.74414058 0.80859376,-0.80859376 z"
       id="path67"
       transform="matrix(-0.39310378,0,0,0.39310397,264.15554,4.8773178)" />
    <path
       style="color:#000000;fill:#000000;stroke-miterlimit:10;-inkscape-stroke:none"
       d="M 0.40429688,-0.40429688 -0.40429688,0.40429688 2.1484375,2.9570313 4.7011719,0.40429688 3.890625,-0.40429688 2.1484375,1.3398437 Z"
       id="path68"
       transform="matrix(0,-0.39310378,-0.39310397,0,261.16485,9.5565958)" />
    <path
       style="color:#000000;fill:#000000;stroke-miterlimit:10;-inkscape-stroke:none"
       d="m -2.1484375,-2.9570313 -2.5527344,2.55273442 0.8105469,0.80859376 1.7421875,-1.74414058 1.74414062,1.74414058 0.80859376,-0.80859376 z"
       id="path69"
       transform="matrix(0,-0.39310378,-0.39310397,0,268.83488,7.8679458)" />
  </g>
</svg>
