<?xml version="1.0" encoding="UTF-8" standalone="no"?>
<!-- Created with Inkscape (http://www.inkscape.org/) -->

<svg
   width="27.117002mm"
   height="31.358999mm"
   viewBox="0 0 27.117003 31.358999"
   version="1.1"
   id="svg1"
   xmlns:xlink="http://www.w3.org/1999/xlink"
   xmlns="http://www.w3.org/2000/svg"
   xmlns:svg="http://www.w3.org/2000/svg">
  <defs
     id="defs1">
    <linearGradient
       id="linearGradient183">
      <stop
         style="stop-color:#f2c478;stop-opacity:1;"
         offset="0"
         id="stop183" />
      <stop
         style="stop-color:#ffdba6;stop-opacity:1;"
         offset="1"
         id="stop182" />
    </linearGradient>
    <clipPath
       clipPathUnits="userSpaceOnUse"
       id="clipPath1316-8-6">
      <path
         d="M 0,2834.646 H 2834.646 V 0 H 0 Z"
         transform="translate(-531.98141,-1560.2174)"
         id="path1316-8-0" />
    </clipPath>
    <linearGradient
       xlink:href="#linearGradient183"
       id="linearGradient5"
       gradientUnits="userSpaceOnUse"
       gradientTransform="rotate(180,-936.0534,335.67604)"
       x1="-1783.5815"
       y1="745.30542"
       x2="-1783.5815"
       y2="656.41376" />
  </defs>
  <g
     id="path1315-1-8"
     clip-path="url(#clipPath1316-8-6)"
     transform="matrix(-0.35277776,0,0,0.35277776,5.8872651,26.089084)">
    <path
       style="color:#000000;font-variation-settings:normal;opacity:1;vector-effect:none;fill:url(#linearGradient5);fill-opacity:1;stroke-width:1;stroke-linecap:butt;stroke-linejoin:miter;stroke-miterlimit:10;stroke-dasharray:none;stroke-dashoffset:0;stroke-opacity:1;-inkscape-stroke:none;stop-color:#000000;stop-opacity:1"
       d="m 0,0 -21.223,7.255 c -0.337,0.115 -0.707,0.115 -1.044,0 L -43.49,0 c -0.512,-0.175 -0.879,-0.593 -0.956,-1.088 L -54.328,-64.8 c -0.128,-0.823 0.569,-1.559 1.477,-1.559 h 31.106 31.106 c 0.907,0 1.605,0.736 1.477,1.559 L 0.955,-1.088 C 0.879,-0.593 0.512,-0.175 0,0"
       id="path133" />
    <path
       style="color:#000000;fill:#4d3608;stroke-miterlimit:10;-inkscape-stroke:none"
       d="m -52.851562,-67.208984 c -1.367537,0 -2.528283,1.176762 -2.316407,2.539062 l 9.88086,63.71289075 c 0.128904,0.82867416 0.735013,1.49290547 1.521484,1.76171875 l 21.224609,7.2558594 c 0.517057,0.1764437 1.07474,0.1764437 1.591797,0 h 0.002 L 0.27539063,0.8046875 C 1.0612847,0.53607135 1.6668921,-0.12796836 1.7949219,-0.95703125 v -0.001953 L 11.677734,-64.669922 c 0.21198,-1.362964 -0.949363,-2.539062 -2.3164059,-2.539062 H -21.744141 Z m 0,1.701172 h 31.107421 31.1054691 c 0.4469549,0 0.6807389,0.293137 0.6367188,0.576171 v 0.002 L 0.11523437,-1.2167969 c -0.02457878,0.1600856 -0.15309689,0.33092303 -0.390625,0.4121094 L -21.498047,6.4511719 v -0.00195 c -0.156942,0.053556 -0.337198,0.053556 -0.49414,0 v 0.00195 l -21.222657,-7.2558594 c -0.237528,-0.0811864 -0.36553,-0.2527376 -0.390625,-0.4140625 l -9.882812,-63.710937 v -0.002 c -0.04412,-0.283698 0.188257,-0.576171 0.636719,-0.576171 z"
       id="path134" />
  </g>
  <path
     style="fill:#000000 icc-color(sRGB-IEC61966-2, 0.1, 0, 0, 0);stroke-width:0.352777"
     d="m 16.005634,22.385624 h -3.472657 v -2.513542 h 2.678907 v -1.620574 q 0,-0.132291 -0.06615,-0.198437 -0.06615,-0.06615 -0.23151,-0.06615 -0.09922,-0.03307 -1.091407,-0.03307 h -2.579688 q -0.363803,0 -0.496094,0.09922 -0.132292,0.132292 -0.264584,0.760677 -0.463021,-0.297656 -0.7606769,-0.396875 0.3307289,-0.826823 0.5291669,-0.959115 0.23151,-0.165365 0.694531,-0.165365 h 3.141933 q 1.058333,0 1.157552,0.03307 0.396875,0.06615 0.529167,0.231511 0.198438,0.132292 0.198438,0.463021 v 2.546615 h -2.678908 v 1.09141 h 2.844272 v 0.529167 q 0.231511,-0.264584 0.727605,-0.760678 0.429948,0.496094 0.529167,0.56224 -0.56224,0.628386 -1.025261,1.223698 -0.33073,0.429949 -0.926042,1.653647 l -0.760678,-0.264583 q 0.06615,-0.165365 0.165365,-0.33073 0.06615,-0.165364 0.165365,-0.363802 h -4.630211 q 0,-2.381251 0.03307,-3.075782 0.06615,-1.091407 0.198438,-1.322917 0.09922,-0.165365 0.297656,-0.33073 0.231511,-0.132291 0.992188,-0.297656 0.132292,0.463021 0.330729,0.826823 h -0.694531 -0.132292 q -0.03307,0.03307 -0.03307,0.06615 0,0.03307 -0.03307,0.06615 -0.132291,0.297656 -0.132291,3.373438 h 4.200262 q 0.529167,-0.760677 0.595312,-0.826823 z"
     id="text1328-5-6"
     aria-label="包" />
  <path
     style="color:#000000;fill:#000000 icc-color(sRGB-IEC61966-2, 0.1, 0, 0, 0);stroke-width:0.352778;stroke-miterlimit:10;-inkscape-stroke:none"
     d="M 13.7834,6.5001557 V 14.858646 H 13.332781 V 6.5001557 Z"
     id="path1317-1-0-0-0" />
  <path
     style="color:#000000;fill:#000000 icc-color(sRGB-IEC61966-2, 0.1, 0, 0, 0);stroke-width:0.352778;stroke-miterlimit:10;-inkscape-stroke:none"
     d="m 17.737303,10.454098 v 0.450619 H 9.3788131 v -0.450619 z"
     id="path1323-3-0-9-6" />
  <path
     style="color:#000000;fill:#000000;stroke-width:0.559289;stroke-miterlimit:10;-inkscape-stroke:none"
     d="m 17.96281,9.4901574 -7.86e-4,2.3782706 -0.449546,2e-6 -7.59e-4,-2.37827 z"
     id="path4451-7-08-5-4-29-3-5-5" />
  <path
     style="color:#000000;fill:#000000;stroke-width:0.559289;stroke-miterlimit:10;-inkscape-stroke:none"
     d="m 9.6048071,11.868341 -0.451091,-3e-6 7.59e-4,-2.37827 0.449546,2.6e-6 z"
     id="path4449-0-4-3-4-8-3-73" />
  <path
     style="color:#000000;fill:#000000;stroke-width:0.559289;stroke-miterlimit:10;-inkscape-stroke:none"
     d="m 12.369052,6.2746891 2.378271,7.86e-4 2e-6,0.4495463 -2.37827,7.589e-4 z"
     id="path4451-7-08-5-4-29-3-4" />
  <path
     style="color:#000000;fill:#000000;stroke-width:0.559289;stroke-miterlimit:10;-inkscape-stroke:none"
     d="m 14.747262,14.632691 -3e-6,0.451091 -2.37827,-7.59e-4 3e-6,-0.449546 z"
     id="path4449-0-4-3-4-8-30" />
</svg>
