<svg height="60" width="52.157" xmlns="http://www.w3.org/2000/svg" xmlns:xlink="http://www.w3.org/1999/xlink"><filter id="a"><feGaussianBlur in="SourceAlpha" result="blur" stdDeviation="2"/><feOffset dx="2" dy="2" result="offsetBlur"/><feBlend in="SourceGraphic" in2="offsetBlur" mode="normal"/></filter><g fill="#ffd5e5" filter="url(#a)" transform="matrix(1.00000000167 0 0 1.00000000167 36.96049865162 -.27867726343)"><path d="m-10.959999 6.2374999c-4.319 1-8.69 2.088-12.838 3.608-1.492 6.3310001-2.103 12.8800001-3.191 19.3050001-1.285 8.332-2.439 16.689-3.86 24.997 4.847.346 10 .05 14.963.148h24.9709998c-.585-5.657-1.718-11.523-2.502-17.26-1.462-8.96-2.486-18.012-4.288-26.903-.885-1.0930001-2.79899998-.9570001-4.037-1.5640001-3.053-.81-6.099-1.875-9.2179998-2.332z" fill="#feec99"/></g><path d="m26.478477 21.406204c1.333333-.25 2.375-.541667 3.125-.875s1.458333-.291667 2.125.125.458333.875-.625 1.375c-1.083333.416667-2.625.583333-4.625.5l-.125 3.875c2.666667-.416667 4.666667-.75 6-1 1.416667-.25 2.375-.166667 2.875.25s.75.75.75 1c.08333.25-.5.375-1.75.375s-2.666667.08333-4.25.25c-1.5.166667-3.416667.416667-5.75.75.583333.166667 1.083333.416667 1.5.75s.5.75.25 1.25-.333333 1.375-.25 2.625c.08333 1.25.08333 2.291667 0 3.125s-.25 1.416667-.5 1.75c-.166667.25-.458333.08333-.875-.5-.416667-.583333-.541667-1.208333-.375-1.875.166667-.75.208333-1.75.125-3 0-1.25-.08333-2.125-.25-2.625-.166667-.5-.333333-.958333-.5-1.375-4.416667.916667-6.916667 1.458333-7.5 1.625s-1.291667 0-2.125-.5c-.75-.583333-.708333-.875.125-.875.916667 0 2.708333-.25 5.375-.75-.166667-2.666667-.458333-4.25-.875-4.75s-.541667-.833333-.375-1 .708333-.125 1.625.125c1 .166667 1.416667.583333 1.25 1.25s-.208333 2.041667-.125 4.125c1.25-.25 2.625-.5 4.125-.75 0-3-.08333-5.166667-.25-6.5-.08333-1.416667-.291667-2.375-.625-2.875s-.25-.708333.25-.625c.5 0 1.125.166667 1.875.5.75.25 1 .583333.75 1-.25.333333-.375 1.416667-.375 3.25zm6.088467 9.516873c.666667.583333.75 1 .25 1.25-.416667.25-2.213467 2.399794-2.963467 3.483127-.666667 1-1.708333 2.166667-3.125 3.5-1.333333 1.333333-1.992333 1.759594-4.925847 3.622881-2.445691 1.070227-2.155656 1.003538-4.6079 1.792857-.902589.133717-1.524769.224717-1.779502.226578-.380272.0028.05833-.193088 1.605353-.742033 2.666667-.833333 3.603484-1.733616 5.686817-3.150283 2.166667-1.416667 3.062746-3.041667 4.396079-4.875 1.416667-1.916667 3.2968-4.69146 3.213467-5.358127-.712535-.974716-.594091-1.221439.625-.875.506973.144071 1.041667.541667 1.625 1.125zm-.90165 5.973192c1.333333.333333 2.25.75 2.75 1.25.583333.5.75676 1.202668.625 2.125-.118437.829072-.541667.916667-1.375.25-.75-.666667-1.5-1.25-2.25-1.75-.75-.583333-1.375-1.083333-1.875-1.5-.5-.5-.625-.791667-.375-.875.333333-.08333 1.166667.08333 2.5.5zm-12.686817-4.740065c.416667-.833333.708333-1.25.875-1.25.25-.08333.333333.5.25 1.75 0 1.25-.458333 2.541667-1.375 3.875-.916667 1.25-1.5 1.375-1.75.375-.166667-1 .04167-1.833333.625-2.5.583333-.75 1.041667-1.5 1.375-2.25z" stroke="#000" transform="matrix(.75439191 0 0 .75439191 7.528695 18.434402)"/><path d="m31.90096 22.252911q.473958 0 .984375-1.348958.510416-1.348958.510416-2.223958.255209-.109375.546875-.109375.65625 0 1.276042.619791l.473958.546875v.182292q-1.020833.619792-3.0625 2.442708l1.895834.473959q.802083.328125 1.166666.984375.401042.619791.401042 1.09375 0 .291666-.21875.401041h-.145833l-.473959-.145833q-1.53125-1.020833-2.807291-1.713542l-1.276042-.619791q-.364583-.364584-.364583-.65625l1.057292.07292zm5.140625 3.864584q0 .291666.07292.984375.109375.692708.255209 1.859374.145833 1.166667.255208 2.005209-.21875.291666-.984375.291666h-.255212q-2.078125-.182291-4.119792-1.932291-2.041666-1.786458-2.770833-3.864583-.583333-1.677084-.765625-4.192709l-.145833-1.859375q-.145834-.4375-1.020834-.510416-1.786458.401041-3.609375 1.130208-1.822916.692708-2.369791.692708-.802083 0-1.567708-.619791l-.583334-.583334q.21875-.182291.583334-.21875.364583-.03646 2.005208-.291666 1.640625-.291667 4.192708-.947917l2.515625-.802083q.21875-.03646.401042-.03646.21875-.03646.291666-.03646.838542 0 1.713542.838542l.473958.473958q0 .255208-.21875.510417-.182291.21875-.4375.473958-.21875.255208-.4375 1.166667-.182291.875-.182291 2.296875v.291666l.03646.65625q.182292 1.604167 1.677083 3.244792 1.494792 1.640625 2.953125 1.640625.692708 0 1.057292-.802083.401041-.802084.729166-2.151042zm-1.859375 12.468749q-.364584-.109375-1.057292-.510417-.692708-.437499-1.932291-1.203124-1.239584-.765625-2.223959-1.348959-.21875-.364583-.21875-.619791.765625 0 1.75.328125 1.057292-2.1875 1.130208-3.682292h.984375q.947917.583333 1.09375.729167l.21875.328125v.21875q-.911458.65625-2.807291 2.515625 1.677083.510416 2.515625 1.09375.838541.546875.911458 1.348958.07292.510416-.364583.802083zm5.760416 7.21875q0 .875-1.057291.875-.984375 0-3.390625-.729167-9.041667-2.661458-9.223958-15.421874-.21875-.291667-.65625-.291667-.364584 0-.911459.21875-.546875.21875-.765625.255208v9.515625l.109375 3.5q-.109375 2.114583-.838541 2.114583-1.713542-2.041666-1.713542-3.427083 0-.255208.109375-.65625.109375-.4375.255208-1.09375.145834-.692708.291667-2.661458.182292-2.005208.255208-4.958333 0-.328125 0-.984375.03646-.65625.07292-.911459-2.151041.4375-3.609375.947917-.510416 4.520833-1.96875 7.692708-1.458333 3.171875-4.484375 4.848958-.473958.255209-.911458.255209-.145833 0-.255208-.03646-.109375-.03646-.182292-.03646v-.21875q5.395833-4.010417 5.90625-11.8125-.510417.07292-3.28125.984375-.109375 0-.145833.03646-.947917-.145834-1.458334-.291667-.510416-.182292-.619791-.255208-.109375-.109375-.291667-.364584 0-.145833.03646-.21875.07292-.109375.255208-.182291.21875-.07292.473958-.109375.255208-.07292.729167-.145834.510416-.109375 1.057291-.182291.546875-.109375 1.421875-.291667.911459-.21875 1.859375-.4375 0-1.96875-.109375-2.661458-.109375-.692708-.473958-1.166667l-2.989583 1.276042-.291667-.145834v-.03646q.145833-.328125 1.09375-1.057291.984375-.729167 2.114583-1.713542 1.130209-.984375 1.640625-1.895833v-.401042q.65625 0 1.203125.364583.583334.364584.729167.583334.145833.21875.473958.765625 0 .255208-.145833.364583-.109375.109375-.875.4375-1.057292.473958-1.96875.911458 1.604167.692709 1.786458.875l.145834.364583-.145834 1.239584-.21875 1.348958h.182292q.291667-.145833 1.677083-.510417 1.385417-.364583 1.567708-.4375.109375-1.3125.109375-2.442708 0-1.96875-.364583-3.572916l-.401042-.947917q0-.328125.473959-.328125.875 0 2.041666 1.348958-.255208 2.734375-.328125 5.432292h.03646q.291666 0 1.421875-.4375 1.130208-.473959 1.677083-.473959 1.567708.765625 2.078125 1.3125 0 .291667-.255208.583334-.21875.291666-.473959 1.09375-.21875.765625-.21875 2.1875 0 3.208333 1.604167 6.052083.875 1.53125 2.84375 2.84375 1.96875 1.276041 2.989583 1.276041 1.020833 0 1.567708-1.567708l.838542-2.953125.03646-.03646q.182292 0 .291667.182291.145833.145834.21875.583334.109375.401041.182292.692708.07292.291667.145833.947917.109375.619791.145833.875l.802084 2.697916q0 .109375 0 .291667.03646.21875.07292.328125z" fill="#f00" opacity=".5" stroke="#f00" transform="matrix(.59026469 0 0 .59026469 10.401993 .024316)"/></svg>