<?xml version="1.0" encoding="UTF-8" standalone="no"?>
<svg
   xmlns:dc="http://purl.org/dc/elements/1.1/"
   xmlns:cc="http://creativecommons.org/ns#"
   xmlns:rdf="http://www.w3.org/1999/02/22-rdf-syntax-ns#"
   xmlns:svg="http://www.w3.org/2000/svg"
   xmlns="http://www.w3.org/2000/svg"
   xmlns:sodipodi="http://sodipodi.sourceforge.net/DTD/sodipodi-0.dtd"
   xmlns:inkscape="http://www.inkscape.org/namespaces/inkscape"
   width="52.157"
   height="60"
   version="1.1"
   id="svg1717"
   sodipodi:docname="0KI.svg"
   inkscape:version="0.92.4 (5da689c313, 2019-01-14)">
  <metadata
     id="metadata1723">
    <rdf:RDF>
      <cc:Work
         rdf:about="">
        <dc:format>image/svg+xml</dc:format>
        <dc:type
           rdf:resource="http://purl.org/dc/dcmitype/StillImage" />
        <dc:title />
      </cc:Work>
    </rdf:RDF>
  </metadata>
  <defs
     id="defs1721">
    <filter
       style="color-interpolation-filters:sRGB"
       inkscape:label="Drop Shadow"
       id="filter1552">
      <feFlood
         flood-opacity="0.498039"
         flood-color="rgb(0,0,0)"
         result="flood"
         id="feFlood1542" />
      <feComposite
         in="flood"
         in2="SourceGraphic"
         operator="in"
         result="composite1"
         id="feComposite1544" />
      <feGaussianBlur
         in="composite1"
         stdDeviation="2.5"
         result="blur"
         id="feGaussianBlur1546" />
      <feOffset
         dx="4.57967e-15"
         dy="4.41314e-15"
         result="offset"
         id="feOffset1548" />
      <feComposite
         in="SourceGraphic"
         in2="offset"
         operator="over"
         result="composite2"
         id="feComposite1550" />
    </filter>
    <filter
       style="color-interpolation-filters:sRGB"
       inkscape:label="Drop Shadow"
       id="filter1540">
      <feFlood
         flood-opacity="0.498039"
         flood-color="rgb(0,0,0)"
         result="flood"
         id="feFlood1530" />
      <feComposite
         in="flood"
         in2="SourceGraphic"
         operator="in"
         result="composite1"
         id="feComposite1532" />
      <feGaussianBlur
         in="composite1"
         stdDeviation="2.5"
         result="blur"
         id="feGaussianBlur1534" />
      <feOffset
         dx="4.57967e-15"
         dy="4.41314e-15"
         result="offset"
         id="feOffset1536" />
      <feComposite
         in="SourceGraphic"
         in2="offset"
         operator="over"
         result="composite2"
         id="feComposite1538" />
    </filter>
    <filter
       id="drop-shadow-9">
      <feGaussianBlur
         in="SourceAlpha"
         result="blur"
         stdDeviation="2"
         id="feGaussianBlur5056" />
      <feOffset
         result="offsetBlur"
         dx="2"
         dy="2"
         id="feOffset5058" />
      <feBlend
         in="SourceGraphic"
         in2="offsetBlur"
         mode="normal"
         id="feBlend5060" />
    </filter>
    <filter
       id="drop-shadow-2">
      <feGaussianBlur
         in="SourceAlpha"
         result="blur"
         stdDeviation="2"
         id="feGaussianBlur6807" />
      <feOffset
         result="offsetBlur"
         dx="2"
         dy="2"
         id="feOffset6809" />
      <feBlend
         in="SourceGraphic"
         in2="offsetBlur"
         mode="normal"
         id="feBlend6811" />
    </filter>
    <filter
       id="drop-shadow-2-8">
      <feGaussianBlur
         in="SourceAlpha"
         result="blur"
         stdDeviation="2"
         id="feGaussianBlur6807-2" />
      <feOffset
         result="offsetBlur"
         dx="2"
         dy="2"
         id="feOffset6809-8" />
      <feBlend
         in="SourceGraphic"
         in2="offsetBlur"
         mode="normal"
         id="feBlend6811-0" />
    </filter>
    <filter
       id="drop-shadow-6">
      <feGaussianBlur
         in="SourceAlpha"
         result="blur"
         stdDeviation="2"
         id="feGaussianBlur5056-9" />
      <feOffset
         result="offsetBlur"
         dx="2"
         dy="2"
         id="feOffset5058-0" />
      <feBlend
         in="SourceGraphic"
         in2="offsetBlur"
         mode="normal"
         id="feBlend5060-9" />
    </filter>
  </defs>
  <sodipodi:namedview
     pagecolor="#ffffff"
     bordercolor="#666666"
     borderopacity="1"
     objecttolerance="10"
     gridtolerance="10"
     guidetolerance="10"
     inkscape:pageopacity="0"
     inkscape:pageshadow="2"
     inkscape:window-width="1920"
     inkscape:window-height="1017"
     id="namedview1719"
     showgrid="false"
     inkscape:zoom="8"
     inkscape:cx="-13.684001"
     inkscape:cy="30.005087"
     inkscape:window-x="1912"
     inkscape:window-y="-8"
     inkscape:window-maximized="1"
     inkscape:current-layer="layer3"
     inkscape:snap-nodes="false" />
  <!--
Created by Hari Seldon and modified by orangain, licensed under Creative Commons Attribution-Share Alike 3.0 Unported.
See: https://creativecommons.org/licenses/by-sa/3.0/deed.en

Original file is available at: https://commons.wikimedia.org/wiki/File:Shogi_gyokusho(svg).svg
-->
  <filter
     id="drop-shadow">
    <feGaussianBlur
       in="SourceAlpha"
       result="blur"
       stdDeviation="2"
       id="feGaussianBlur1692" />
    <feOffset
       result="offsetBlur"
       dx="2"
       dy="2"
       id="feOffset1694" />
    <feBlend
       in="SourceGraphic"
       in2="offsetBlur"
       mode="normal"
       id="feBlend1696" />
  </filter>
  <g
     inkscape:groupmode="layer"
     id="layer3"
     inkscape:label="Koma">
    <g
       transform="matrix(1.3333333,0,0,-1.3333333,-70.30806,375.85074)"
       style="display:inline"
       id="g9438">
      <g
         style="fill:#ffd5e5;fill-opacity:1;filter:url(#drop-shadow-6)"
         id="g5765"
         transform="matrix(0.75000002,0,0,-0.75000002,80.451421,282.09707)">
        <path
           style="fill:#feec99;fill-opacity:1"
           inkscape:connector-curvature="0"
           id="path5763"
           d="m -10.959999,6.2374999 c -4.319,1 -8.69,2.088 -12.838,3.608 -1.492,6.3310001 -2.103,12.8800001 -3.191,19.3050001 -1.285,8.332 -2.439,16.689 -3.86,24.997 4.847,0.346 10,0.05 14.963,0.148 H 9.0850008 c -0.585,-5.657 -1.718,-11.523 -2.502,-17.26 -1.462,-8.96 -2.486,-18.012 -4.288,-26.903 -0.885,-1.0930001 -2.79899998,-0.9570001 -4.037,-1.5640001 -3.053,-0.81 -6.099,-1.875 -9.2179998,-2.332 z" />
      </g>
    </g>
    <g
       aria-label="桂"
       style="font-style:normal;font-variant:normal;font-weight:normal;font-stretch:normal;font-size:26.66666603px;line-height:1.25;font-family:KaiTi;-inkscape-font-specification:KaiTi;letter-spacing:0px;word-spacing:0px;opacity:0.503;fill:#ff0000;fill-opacity:1;stroke:#ff0000;stroke-width:0.57707733;stroke-miterlimit:4;stroke-dasharray:none"
       id="text2778"
       transform="matrix(0.69314802,0,0,0.69314802,7.2960609,-2.913128)">
      <path
         d="m 31.617189,31.573382 q 0.338542,-0.03385 2.098958,-0.473959 1.760417,-0.440104 2.640625,-0.440104 1.45573,0 2.369792,0.914063 0.101563,0.101562 0.03385,0.203125 -0.03385,0.101562 -0.06771,0.16927 -0.03385,0.03385 -0.169271,0.101563 -0.135417,0.06771 -0.169271,0.101562 -0.135416,0.03386 -1.794271,0.03386 h -0.270833 q -3.859375,0.16927 -8.361979,1.320312 L 26.09896,34.07859 h -0.06771 -0.203125 q -0.575521,0 -1.21875,-0.440104 l -0.40625,-0.338542 q 0.440104,-0.507812 6.026042,-1.354167 l 0.101563,-0.101562 v -3.317709 l -2.4375,0.270834 q -0.947916,-0.06771 -1.726562,-0.744792 0,-0.236979 0.338542,-0.338542 0.372395,-0.101562 1.591145,-0.304687 1.286459,-0.203125 2.166667,-0.372396 l -0.06771,-3.65625 Q 30.093751,21.89109 29.585939,20.977027 29.11198,20.02911 29.11198,19.825985 q 0.135417,-0.236979 0.677084,-0.236979 0.169271,0 0.40625,0.03385 0.270833,0.03385 0.338542,0.03385 l 1.38802,0.609376 q 0.338542,0.236979 0.541667,0.541666 -0.507812,2.708334 -0.575521,5.721355 l 2.572917,-0.710938 q 0.169271,-0.03385 0.507813,-0.03385 0.947916,0 1.455729,0.643229 0,0.440104 -0.778646,0.744792 -0.744792,0.304687 -3.013021,0.710937 l -0.744792,0.169271 -0.101562,0.101563 z m 6.195313,9.682292 q 1.658854,0 3.013021,1.38802 0,0.744792 -1.320313,0.744792 -0.169271,0 -0.609375,-0.03385 -0.440104,-0.03385 -0.541667,-0.03385 -6.838542,0.03385 -11.239583,0.846354 l -2.335938,0.541667 h -0.03385 q -0.03385,0 -0.135417,0 -0.101562,0.03385 -0.135417,0.03385 -0.541666,0 -1.117187,-0.304688 -0.575521,-0.338541 -0.778646,-0.744791 0,-0.203125 0.473958,-0.270834 l 7.210938,-0.880208 0.06771,-3.960938 q -1.117188,0.203125 -2.031251,0.203125 -2.369791,0 -2.369791,-0.846354 0.338541,-0.101562 2.098958,-0.372396 1.760417,-0.304687 2.302084,-0.473958 -0.304688,-2.369792 -0.304688,-2.4375 L 29.72136,33.604636 q 0,-0.203125 0.338542,-0.338542 0.947917,0 2.098959,1.21875 l -0.135417,1.963542 v 0.03385 q 0.135417,0 0.914062,-0.270833 0.778646,-0.270834 1.489584,-0.270834 1.252604,0 1.794271,0.744792 0,0.270833 -0.203125,0.40625 l -4.096355,1.049479 -0.203125,4.130209 h 0.101563 q 1.083333,0 3.046875,-0.507813 1.997396,-0.507812 2.945313,-0.507812 z M 17.669272,19.758277 q 0,-0.40625 0.981771,-0.40625 h 0.203125 l 1.658854,0.981771 q 0.677083,0.575521 0.8125,1.083333 -0.778646,2.539063 -0.778646,6.533855 l 2.098958,-0.575521 q 0.169271,-0.03385 0.473959,-0.03385 0.541666,0 1.015625,0.203125 0.507812,0.203125 0.575521,0.507812 -0.270834,0.338542 -1.21875,0.710938 -0.914063,0.338541 -1.895834,0.609375 -0.981771,0.270833 -1.015625,0.270833 l -0.101562,3.25 1.963541,0.609375 q 0.64323,0.304688 1.015625,0.778646 l 0.203125,1.117188 q -0.06771,0.372395 -0.609375,0.372395 -0.03385,0 -0.135416,0 -0.101563,-0.03385 -0.169271,-0.03385 l -2.200521,-1.760416 q -0.169271,7.007812 -0.169271,11.307292 0,1.049479 -1.049479,1.895833 -0.473958,-0.06771 -0.914063,-0.947917 -0.40625,-0.880208 -0.40625,-2.132812 0,-0.846354 0.203125,-1.794271 l 0.23698,-0.981771 q 0.440104,-1.523438 0.440104,-5.044271 0,-0.8125 -0.03385,-1.658854 0,-0.846355 0,-1.354167 -1.083334,2.234375 -3.351563,4.841146 -2.268229,2.606771 -3.25,2.640625 V 40.51089 q 4.638021,-5.890625 6.466146,-10.291667 l -3.385417,0.609375 q -0.270833,0.03385 -0.710937,0.03385 -1.286459,0 -1.794271,-0.609375 l 0.304687,-0.270833 5.890625,-1.421875 v -1.083334 -2.471354 q 0,-2.505208 -0.677083,-3.960938 L 17.770834,20.02911 q -0.101562,-0.135416 -0.101562,-0.270833 z"
         style="font-style:normal;font-variant:normal;font-weight:normal;font-stretch:normal;font-size:34.66666794px;font-family:'cwTeX Q Kai';-inkscape-font-specification:'cwTeX Q Kai';fill:#ff0000;stroke:#ff0000;stroke-width:0.57707733;stroke-miterlimit:4;stroke-dasharray:none;stroke-opacity:1"
         id="path3403"
         inkscape:connector-curvature="0" />
    </g>
  </g>
  <g
     inkscape:groupmode="layer"
     id="layer2"
     inkscape:label="Rook"
     style="display:inline">
    <g
       aria-label="金"
       style="font-style:normal;font-variant:normal;font-weight:normal;font-stretch:normal;font-size:26.66666603px;line-height:1.25;font-family:KaiTi;-inkscape-font-specification:KaiTi;letter-spacing:0px;word-spacing:0px;fill:#000000;fill-opacity:1;stroke:#000000;stroke-width:0.63364104;stroke-miterlimit:4;stroke-dasharray:none;stroke-opacity:1"
       id="text883"
       transform="matrix(0.7890903,0,0,0.7890903,5.6171183,14.833349)">
      <path
         d="m 26.885354,21.514692 q 0,0.372396 -0.304688,0.609375 -0.304687,0.203125 -0.473958,0.541667 l 4.604167,4.401042 q 1.861979,1.658854 3.351563,2.471354 1.523437,0.8125 3.419271,1.455729 1.929687,0.643229 3.114583,1.21875 l 0.135417,0.203125 q -0.744792,0.440104 -2.640625,0.473959 l -3.385417,0.16927 Q 34.434833,33.092818 34.096292,32.957401 33.75775,32.78813 33.486917,32.618859 33.249938,32.415734 32.877542,32.077192 32.539,31.704797 32.369729,31.535526 32.200458,31.332401 31.861917,30.960005 31.557229,30.553755 31.523375,30.519901 28.239521,26.965213 25.63275,23.44438 q -0.135417,0.203125 -0.880209,1.252604 -0.744791,1.015625 -1.184895,1.591146 -0.40625,0.541666 -1.252605,1.625 -0.846354,1.083333 -1.591146,1.861979 -0.710937,0.744792 -1.625,1.692708 -0.914062,0.914063 -1.895833,1.692709 -0.981771,0.744792 -1.997396,1.354167 -1.828125,1.117187 -2.471354,1.38802 -0.643229,0.270834 -1.320313,0.304688 l -0.06771,-0.03385 q 5.382813,-4.265625 8.091146,-7.380209 2.708334,-3.114583 3.893229,-5.856771 0.473959,-1.21875 0.473959,-3.114583 0.236979,-0.101563 0.541666,-0.101563 0.64323,0 1.591146,0.507813 0.947917,0.507812 0.947917,1.286458 z m 3.994792,15.776042 q 0.744792,0.03386 1.354167,0.575521 0.643229,0.541667 0.947916,1.252604 0,0.304688 -0.270833,0.473959 -0.270833,0.169271 -0.8125,0.338541 -0.541667,0.135417 -0.643229,0.169271 -2.945313,1.45573 -4.570313,1.794271 l -0.06771,-0.270833 q 3.419271,-2.674479 3.825521,-3.419271 l 0.16927,-0.846354 z m -5.247396,6.838542 q 2.471354,-0.236979 4.705729,-0.609375 2.268229,-0.40625 2.84375,-0.40625 h 0.06771 q 0.846354,0 1.692708,0.507813 0.880208,0.507812 1.388021,1.252604 -0.135417,0.541667 -0.778646,0.541667 l -5.28125,-0.169271 h -0.03385 q -4.841146,0 -8.971355,0.609375 l -4.0625,0.744792 h -0.169271 q -0.609375,0 -1.21875,-0.338542 -0.609375,-0.338542 -0.744792,-0.8125 0,-0.270834 0.372396,-0.270834 l 8.666667,-0.846354 0.06771,-7.075521 -2.708334,0.203125 q -0.846354,-0.06771 -1.625,-0.304687 l -0.40625,-0.440105 0.270833,-0.236979 4.367188,-0.643229 q 0,-1.286458 -0.270833,-2.84375 -0.270834,0.03385 -0.8125,0.03385 -2.335938,0 -2.369792,-0.8125 0.304687,-0.135417 0.914062,-0.270833 0.64323,-0.135417 1.388021,-0.236979 0.778646,-0.101563 1.015625,-0.169271 l 3.927084,-0.981771 q 0.677083,-0.135417 1.455729,-0.135417 1.049479,0.40625 1.049479,0.744792 0,0.203125 -1.726562,0.710937 -1.726563,0.473959 -3.182292,0.710938 0.575521,0.338542 0.575521,1.286458 0,0.338542 -0.03385,0.541667 l -0.101563,0.914063 2.708334,-0.677084 q 0.473958,-0.101562 0.846354,-0.101562 1.151041,0 1.523437,0.778646 0,0.372395 -0.947916,0.643229 -0.947917,0.270833 -3.419271,0.744791 -0.440105,0.101563 -0.677084,0.135417 -0.169271,0.372396 -0.304687,7.14323 z m -4.265625,-1.015625 q -1.354167,0 -3.48698,-3.317708 0,-0.338542 0.135417,-0.473959 2.572917,0.507813 3.65625,1.794271 0.06771,0.473959 0.06771,1.151042 0,0.609375 -0.372395,0.846354 z"
         style="font-style:normal;font-variant:normal;font-weight:normal;font-stretch:normal;font-size:34.66666794px;font-family:'cwTeX Q Kai';-inkscape-font-specification:'cwTeX Q Kai';stroke:#000000;stroke-width:0.63364104;stroke-miterlimit:4;stroke-dasharray:none;stroke-opacity:1"
         id="path1508"
         inkscape:connector-curvature="0" />
    </g>
  </g>
  <g
     inkscape:groupmode="layer"
     id="layer1"
     inkscape:label="Pawn"
     style="display:inline" />
</svg>
