<svg height="60" width="52.157" xmlns="http://www.w3.org/2000/svg" xmlns:xlink="http://www.w3.org/1999/xlink"><filter id="a"><feGaussianBlur in="SourceAlpha" result="blur" stdDeviation="2"/><feOffset dx="2" dy="2" result="offsetBlur"/><feBlend in="SourceGraphic" in2="offsetBlur" mode="normal"/></filter><g fill="#ffd5e5" filter="url(#a)" transform="matrix(1.00000000167 0 0 1.00000000167 36.96049865162 -.27867726343)"><path d="m-10.959999 6.2374999c-4.319 1-8.69 2.088-12.838 3.608-1.492 6.3310001-2.103 12.8800001-3.191 19.3050001-1.285 8.332-2.439 16.689-3.86 24.997 4.847.346 10 .05 14.963.148h24.9709998c-.585-5.657-1.718-11.523-2.502-17.26-1.462-8.96-2.486-18.012-4.288-26.903-.885-1.0930001-2.79899998-.9570001-4.037-1.5640001-3.053-.81-6.099-1.875-9.2179998-2.332z" fill="#feec99"/></g><path d="m31.617189 31.573382q.338542-.03385 2.098958-.473959 1.760417-.440104 2.640625-.440104 1.45573 0 2.369792.914063.101563.101562.03385.203125-.03385.101562-.06771.16927-.03385.03385-.169271.101563-.135417.06771-.169271.101562-.135416.03386-1.794271.03386h-.270833q-3.859375.16927-8.361979 1.320312l-1.828119.575516h-.06771-.203125q-.575521 0-1.21875-.440104l-.40625-.338542q.440104-.507812 6.026042-1.354167l.101563-.101562v-3.317709l-2.4375.270834q-.947916-.06771-1.726562-.744792 0-.236979.338542-.338542.372395-.101562 1.591145-.304687 1.286459-.203125 2.166667-.372396l-.06771-3.65625q-.101561-1.489583-.609373-2.403646-.473959-.947917-.473959-1.151042.135417-.236979.677084-.236979.169271 0 .40625.03385.270833.03385.338542.03385l1.38802.609376q.338542.236979.541667.541666-.507812 2.708334-.575521 5.721355l2.572917-.710938q.169271-.03385.507813-.03385.947916 0 1.455729.643229 0 .440104-.778646.744792-.744792.304687-3.013021.710937l-.744792.169271-.101562.101563zm6.195313 9.682292q1.658854 0 3.013021 1.38802 0 .744792-1.320313.744792-.169271 0-.609375-.03385-.440104-.03385-.541667-.03385-6.838542.03385-11.239583.846354l-2.335938.541667h-.03385q-.03385 0-.135417 0-.101562.03385-.135417.03385-.541666 0-1.117187-.304688-.575521-.338541-.778646-.744791 0-.203125.473958-.270834l7.210938-.880208.06771-3.960938q-1.117188.203125-2.031251.203125-2.369791 0-2.369791-.846354.338541-.101562 2.098958-.372396 1.760417-.304687 2.302084-.473958-.304688-2.369792-.304688-2.4375l-.304688-1.049479q0-.203125.338542-.338542.947917 0 2.098959 1.21875l-.135417 1.963542v.03385q.135417 0 .914062-.270833.778646-.270834 1.489584-.270834 1.252604 0 1.794271.744792 0 .270833-.203125.40625l-4.096355 1.049479-.203125 4.130209h.101563q1.083333 0 3.046875-.507813 1.997396-.507812 2.945313-.507812zm-20.14323-21.497397q0-.40625.981771-.40625h.203125l1.658854.981771q.677083.575521.8125 1.083333-.778646 2.539063-.778646 6.533855l2.098958-.575521q.169271-.03385.473959-.03385.541666 0 1.015625.203125.507812.203125.575521.507812-.270834.338542-1.21875.710938-.914063.338541-1.895834.609375-.981771.270833-1.015625.270833l-.101562 3.25 1.963541.609375q.64323.304688 1.015625.778646l.203125 1.117188q-.06771.372395-.609375.372395-.03385 0-.135416 0-.101563-.03385-.169271-.03385l-2.200521-1.760416q-.169271 7.007812-.169271 11.307292 0 1.049479-1.049479 1.895833-.473958-.06771-.914063-.947917-.40625-.880208-.40625-2.132812 0-.846354.203125-1.794271l.23698-.981771q.440104-1.523438.440104-5.044271 0-.8125-.03385-1.658854 0-.846355 0-1.354167-1.083334 2.234375-3.351563 4.841146-2.268229 2.606771-3.25 2.640625v-.236979q4.638021-5.890625 6.466146-10.291667l-3.385417.609375q-.270833.03385-.710937.03385-1.286459 0-1.794271-.609375l.304687-.270833 5.890625-1.421875v-1.083334-2.471354q0-2.505208-.677083-3.960938l-.575525-1.015629q-.101562-.135416-.101562-.270833z" fill="#f00" opacity=".503" stroke="#f00" stroke-width=".577077" transform="matrix(.69314802 0 0 .69314802 7.296061 -2.913128)"/><path d="m26.885354 21.514692q0 .372396-.304688.609375-.304687.203125-.473958.541667l4.604167 4.401042q1.861979 1.658854 3.351563 2.471354 1.523437.8125 3.419271 1.455729 1.929687.643229 3.114583 1.21875l.135417.203125q-.744792.440104-2.640625.473959l-3.385417.16927q-.270834.033855-.609375-.101562-.338542-.169271-.609375-.338542-.236979-.203125-.609375-.541667-.338542-.372395-.507813-.541666-.169271-.203125-.507812-.575521-.304688-.40625-.338542-.440104-3.283854-3.554688-5.890625-7.075521-.135417.203125-.880209 1.252604-.744791 1.015625-1.184895 1.591146-.40625.541666-1.252605 1.625-.846354 1.083333-1.591146 1.861979-.710937.744792-1.625 1.692708-.914062.914063-1.895833 1.692709-.981771.744792-1.997396 1.354167-1.828125 1.117187-2.471354 1.38802-.643229.270834-1.320313.304688l-.06771-.03385q5.382813-4.265625 8.091146-7.380209 2.708334-3.114583 3.893229-5.856771.473959-1.21875.473959-3.114583.236979-.101563.541666-.101563.64323 0 1.591146.507813.947917.507812.947917 1.286458zm3.994792 15.776042q.744792.03386 1.354167.575521.643229.541667.947916 1.252604 0 .304688-.270833.473959-.270833.169271-.8125.338541-.541667.135417-.643229.169271-2.945313 1.45573-4.570313 1.794271l-.06771-.270833q3.419271-2.674479 3.825521-3.419271l.16927-.846354zm-5.247396 6.838542q2.471354-.236979 4.705729-.609375 2.268229-.40625 2.84375-.40625h.06771q.846354 0 1.692708.507813.880208.507812 1.388021 1.252604-.135417.541667-.778646.541667l-5.28125-.169271h-.03385q-4.841146 0-8.971355.609375l-4.0625.744792h-.169271q-.609375 0-1.21875-.338542-.609375-.338542-.744792-.8125 0-.270834.372396-.270834l8.666667-.846354.06771-7.075521-2.708334.203125q-.846354-.06771-1.625-.304687l-.40625-.440105.270833-.236979 4.367188-.643229q0-1.286458-.270833-2.84375-.270834.03385-.8125.03385-2.335938 0-2.369792-.8125.304687-.135417.914062-.270833.64323-.135417 1.388021-.236979.778646-.101563 1.015625-.169271l3.927084-.981771q.677083-.135417 1.455729-.135417 1.049479.40625 1.049479.744792 0 .203125-1.726562.710937-1.726563.473959-3.182292.710938.575521.338542.575521 1.286458 0 .338542-.03385.541667l-.101563.914063 2.708334-.677084q.473958-.101562.846354-.101562 1.151041 0 1.523437.778646 0 .372395-.947916.643229-.947917.270833-3.419271.744791-.440105.101563-.677084.135417-.169271.372396-.304687 7.14323zm-4.265625-1.015625q-1.354167 0-3.48698-3.317708 0-.338542.135417-.473959 2.572917.507813 3.65625 1.794271.06771.473959.06771 1.151042 0 .609375-.372395.846354z" stroke="#000" stroke-width=".633641" transform="matrix(.7890903 0 0 .7890903 5.617118 14.833349)"/></svg>