<svg height="60" width="52.157" xmlns="http://www.w3.org/2000/svg" xmlns:xlink="http://www.w3.org/1999/xlink"><filter id="a"><feGaussianBlur in="SourceAlpha" result="blur" stdDeviation="2"/><feOffset dx="2" dy="2" result="offsetBlur"/><feBlend in="SourceGraphic" in2="offsetBlur" mode="normal"/></filter><g transform="matrix(1 0 0 -1 -95.640972 81.118732)"><g fill="#feec99" filter="url(#a)" transform="matrix(.98185054 0 0 -.98185054 -4.360504 104.33768)"><path d="m-37.299339-31.009999c-4.096 1.034-8.171 2.152-12.207999 3.395-.467.163-1.13.263-1.201.865-.709 3.416-1.178 6.885-1.737 10.331-1.73 11.2549998-3.378 22.5279998-5.1 33.78.155.682 1.013.424 1.51.48 12.893999.025 25.787999.03 38.679999-.033.672-.156.28-.952.279-1.409-2.011-13.1200002-3.876-26.2630002-5.998-39.366-.277-1.356-.348-2.782-.816-4.087-.347-.497-1.073-.468-1.588-.704-3.832-1.137-7.673-2.267-11.55-3.231-.09-.017-.18-.032-.271-.021z" fill="#feec99" transform="matrix(-1 0 0 -1 91.156998 47.625)"/></g><path d="m.64971757 9.6844091q.57291663 0 .93749993.2864584.3645834.2864585.3645834.7031245 0 .416667-.46875.651042-.46875.234375-2.2395833.755208l-.3645833.104167q-2.0833333.703125-3.6979166 1.536458-1.6145833.833334-2.5260416 1.588542-.9114583.755208-1.484375 1.5625-.5729166.78125-.7552083 1.354167-.1822916.546875-.1822916 1.041666 0 2.578125 5.2343748 2.578125.7291667 0 1.1197917-.02604-.390625.02604-.625.02604.15625-.07813.3385416 0 .1822917.07813 1.2239583-.05208 1.0677084-.130208 2.39583332-.546875.83333331-.234375 1.35416668-.234375.9114583 0 1.4583333.859375 0 .520833-.46875.833333-.46875.3125-1.84895833.494792-1.3802083.208333-3.93229157.234375h-2.3958333q-.5208333 0-1.2499999-.208334-.7291667-.182291-1.6145833-.598958-.859375-.442708-1.4583335-1.302083-.572916-.885417-.572916-2.057292 0-1.796875 1.1718745-3.203125 1.1979166-1.40625 3.4114582-3.020833-1.4322916-1.09375-1.4322916-3.4114582v-.078125l.1302083-2.9166666q-.026042-.859375-.3125-1.3802083-.2604166-.546875-.5729166-.703125-.3125-.1822916-.703125-.3645833-.390625-.1822917-.546875-.3645833-.026042-.2604167.2864583-.390625.3125-.1302083.4947917-.1302083 2.2656249.3645833 2.9166666 1.7968749-.3645833 2.1354166-.3645833 4.0624999 0 3.0208332 1.1979166 3.0208332.2083333 0 2.5520833-1.015625 2.36979159-1.041667 3.22916657-1.4843749z" stroke="#000" stroke-width=".457505" transform="matrix(-1.0928849 0 0 1.0928849 116.30189 47.56948)"/><path d="m33.416421 25.459874q.778646 0 1.523437.440104.778646.40625 1.117188.981771 0 .236979-.473958.40625l-6.33073.236979q-.880208.06771-1.997396.270833 3.48698 2.708334 5.450521 3.588542 1.963542.880209 7.684896 2.606771.203125.101563.304688.203125.101562.101563.135417.101563-.135417.203125-2.065105.57552-1.895833.338542-2.776041.338542-1.151042 0-2.843751-1.21875-1.658854-1.21875-3.791666-3.25-2.098959-2.065104-2.776042-2.606771-.06771.541667-.06771 1.658854 0 1.184896.03385 1.963542 0 2.809896-.643229 2.809896-.473959 0-.710938-.846354l-.236979-.744792q.236979-1.388021.236979-4.367188-4.299479 5.789063-9.546875 7.820313-1.388021.507813-2.132813.507813-.440104 0-.643229-.203125.06771-.03385.744792-.440105.710937-.40625.98177-.541666.270834-.169271 1.015625-.609375.778646-.473959 1.184896-.744792.440105-.304687 1.184896-.8125.744792-.507812 1.21875-.880208.473959-.40625 1.117188-.981771.677083-.575521 1.151042-1.083334.473958-.507812.98177-1.117187.507813-.609375.880209-1.21875-1.861979.169271-3.48698.643229-1.591145.440104-1.929687.440104h-.101563q-1.083333 0-1.794271-.880208 0-.236979.406251-.304688l8.700521-1.21875q0-2.505208-.575521-3.588541-.507813.06771-2.369792.541666l-.8125.169271-1.151042.169271v-.372396q3.013021-1.117188 4.671875-1.963542 1.692709-.846354 2.166667-1.320312.473959-.507813.507813-1.015625l.101562-.135417q.880209 0 2.03125.744792 1.184896.710937 1.184896 1.049479 0 .304687-.440104.40625-.40625.06771-1.726563.372396-1.320312.270833-2.809895.947916 1.049479.541667 1.184895.744792l.203125.40625.03385.236979q-.609375 1.117188-.64323 2.26823 1.997396-.304688 4.401042-.744792l2.065104-.440104h.169271zm-13.135417 10.190104q.236979 0 .710937.236979.507813.23698.643229.372396 4.604167-.507812 7.651042-1.929687 1.963542.575521 2.911459 1.861979-.03385.135417-.372396.710938-.304688.541666-.304688.846354l.304688 5.315104q0 3.690104-1.557292 4.841146l-.473958-.06771-1.895834-2.911459q-3.486979.03385-6.026041.541667-.203125.778646-.677084 1.151042-.473958-.203125-.778646-.880209-.304687-.643229-.304687-1.286458 0-.135417.338541-1.184896.338542-1.083333.338542-2.572917 0-3.182291-.914062-4.773437.101562-.270834.40625-.270834zm9.377604 3.927084q0-1.929688-.101562-2.640625-.06771-.710938-.304688-.880209-.203125-.203125-.8125-.203125-.372396.03385-2.505208.575521-2.132813.507813-3.622396.778646l-.101563.236979v2.809896l3.182292-.914062q.575521-.169271.981771-.169271.947917 0 1.591146.677083 0 .372396-.135417.507813l-5.28125.744791q-.270833 0-.40625.03385 0 2.505209-.03385 3.216146l4.130208-.846354q.744792-.06771.981771-.06771 1.015625 0 1.726563.914062.710937-.06771.710937-4.773437z" fill="#f00" opacity=".51" stroke="#f00" stroke-width=".736537" transform="matrix(-.67885261 0 0 .67885261 139.60878 16.398046)"/></g></svg>