<svg clip-rule="evenodd" fill-rule="evenodd" height="177.17" image-rendering="optimizeQuality" shape-rendering="geometricPrecision" viewBox="0 0 50 50" width="177.17" xmlns="http://www.w3.org/2000/svg" xmlns:xlink="http://www.w3.org/1999/xlink"><linearGradient id="a" gradientUnits="userSpaceOnUse" x1="62.930347" x2="131.59767" y1="26.730312" y2="26.730312"><stop offset="0" stop-color="#fff"/><stop offset="1" stop-color="#500"/></linearGradient><linearGradient id="b" gradientUnits="userSpaceOnUse" x1="70.12944" x2="89.779778" y1="39.452381" y2="39.452381"><stop offset="0" stop-color="#f9f9f9"/><stop offset="1" stop-color="#808080"/></linearGradient><g stroke="#500" stroke-width="1.693289" transform="translate(-47.90079 .304262)"><path d="m59.323542 36.845189c-4.923955-4.423162-7.488294-6.501829-7.488294-10.697558 0-9.536991 12.337066-10.822594 21.466437-10.554927 5.225494.153208 11.124384.559374 15.29758 2.774372 2.841632 1.508247 5.367066 3.823463 5.367066 7.531995 0 4.979028-4.86475 7.93099-8.255477 11.017435-9.050136-4.451366-17.738141-4.590077-26.387312-.07133z" fill="url(#a)"/><path d="m59.323542 36.845189v4.984114c8.612444 4.713783 17.405516 4.682783 26.375269 0l.01211-4.912797c-9.526222-4.844302-18.203811-4.088076-26.387379-.071324z" fill="url(#b)"/><path d="m59.323542 41.829303c8.60722-4.521092 17.387757-4.795999 26.375269 0" fill="none"/><path d="m69.664515 15.521388c.403124-1.901498 1.356191-3.235945 3.280585-3.244926 1.682343-.0078 3.026638 1.263387 3.423218 3.351902z" fill="#f0f0f0"/></g></svg>