<svg height="45" width="45" xmlns="http://www.w3.org/2000/svg"><g style="fill:none;fill-rule:evenodd;stroke-width:1.5;stroke-linecap:round;stroke-linejoin:round;stroke:#800000"><path d="m22.5 11.63v-5.63m-2.5 2h5" stroke-linejoin="miter"/><path d="m22.5 25s4.5-7.5 3-10.5c0 0-1-2.5-3-2.5s-3 2.5-3 2.5c-1.5 3 3 10.5 3 10.5" fill="#fff" stroke-linecap="butt" stroke-linejoin="miter"/><path d="m11.5 37c5.5 3.5 15.5 3.5 21 0v-7s9-4.5 6-10.5c-4-6.5-13.5-3.5-16 4v3.5-3.5c-3.5-7.5-13-10.5-16-4-3 6 5 10 5 10z" fill="#fff"/><path d="m11.5 30c5.5-3 15.5-3 21 0m-21 3.5c5.5-3 15.5-3 21 0m-21 3.5c5.5-3 15.5-3 21 0"/></g></svg>