<svg xmlns="http://www.w3.org/2000/svg" width="120" height="120" viewBox="0 0 120 136">
    <path stroke="red" stroke-width=".004" d="m48.382-56.772-1.241 7.62-.141.86-2.003 12.294h22.006L66.677-38 65-48.291l-.14-.861-1.242-7.62v-.03h-.007L63-57.22l-2-1.367-5-3.416-5 3.416-2 1.367-.61.417h-.008v.031M43-34l2.525-15.152L47-58l1.382-.921.618-.413 5.52-3.68h.001L56-64l7 4.666.618.413L65-58l1.475 8.848L68.333-38l.334 2.002L69-34H43m15.11-15.356-.158.204-.03.038-.192.243h3.622v3.667H56.06l-.065.037-.066.038-.065.038-.062.035-.004.002-.04.023-.025.015-.025.014-.027.016-.014.008.302.226.283.23.264.233.243.238.215.234.008.01.202.248.16-.068.41-.176.578-.263.57-.275.546-.281.51-.28.26-.154.196-.116.154.116.872.66.425.32-.323.163-.102.05-.233.112-.343.16-.35.156-.35.151-.35.144.076.132.272.472.422.595.496.566.36.327.097.088.111.1.64.448.498.25.173.087.026.014.015.007-.203.199-.22.242-.222.269-.213.28-.19.274-.152.252-.36-.225-.421-.264-.696-.601-.612-.684-.118-.166-.344-.482-.064-.089-.442-.762-.36-.76-.48.162.286.814.087.635.02.146-.059.723-.216.64-.361.533-.316.255-.182.147-.29.171-.282.13-.283.094-.297.064-.322.038-.36.019h-.032l-.16-.002-.207-.005-.218-.008-.226-.01-.231-.014-.111-.007-.067-.005-.038-.001-.019-.002-.028-.246-.051-.27-.073-.278-.022-.064-.074-.215-.116-.266-.037-.065-.04-.071-.025-.044-.012-.021-.008-.015-.007-.01-.005-.01-.003-.005.277.024.273.019.265.014.252.01.235.006.214.002.193-.004.07-.005.114-.007.173-.027.162-.045.148-.066.133-.093.212-.168.162-.221.11-.27.052-.312-.004-.183-.003-.17-.07-.386-.877.556-.068.043-.245.132-.79.424-1.093.505-.165.066-.96.38-1.124.382-.947.267-.058.016-.033.01-.027.007-.016.004-.014.004-.127-.204-.157-.224-.175-.234-.184-.23-.18-.214-.016-.016-.078-.086-.076-.083.076-.018 1.157-.273 1.256-.37.815-.288.417-.148.45-.19.714-.3 1.048-.53.886-.56h.001l-.048-.065-.048-.067-.048-.066-.05-.065-.003-.003-.046-.054-.005-.006-.057-.06-.125.066-.68.365-.87.4-.668.266-.245.098-.931.323-.928.276-.777.196-.058.013-.033.009-.02.005-.012.003-.123-.2-.148-.216-.164-.22-.174-.217-.152-.17-.026-.03-.072-.072-.067-.067-.034-.034.936-.175.958-.222.951-.264.206-.067.71-.232.203-.079.652-.251.763-.355-.078-.06-.081-.06-.084-.063-.085-.06-.086-.062-.063-.043-.025-.017-.605.248-.308.113-.312.115-.624.206-.617.186-.495.135-.103.028-.37.092-.11.027-.049.012-.023.006-.012.003-.005.001-.127-.188-.148-.21-.162-.22-.17-.214-.168-.197-.125-.126-.026-.026-.013-.013.592-.102.614-.122.405-.091.22-.05.626-.16.619-.176.135-.043.448-.142.019-.006h-2.543v-2.248l-.082.053-.082.052-.07.042-.014.01-.086.05-.029.017-.059.035-.007.004-.045.026-.024.015-.015.008-.153-.213-.19-.232-.213-.235-.225-.222-.222-.194-.056-.04-.152-.11.152-.089.78-.45.328-.227.514-.356.748-.613.65-.629.55-.631.446-.62.08.016 1.787.35h.008l.002.001-.076.102-.153.205-.076.104-.077.106-.076.106h2.673l.084-.023.19-.052 1.22.796-.142.224-.157.232-.168.237-.178.241m-4.804-.193-.057.057-.081.08-.14.136-.128.124-.013.012-.146.135-.15.134h3.077l.1-.13.1-.132.013-.02.087-.114.101-.138.1-.14.1-.143H53.44l-.136.139m3.366 3.065h2.892v-1.107H56.67v1.107m-3.423-1.107h-.822v1.107h2.63v-1.107Zm0 0" transform="matrix(4.29492 0 0 4.26451 -180.387 277.193)"/>
    <path fill="#f9f9f9" d="M13.02 123.414c.011-.344 14.5-88.355 14.554-88.406.293-.27 32.395-21.969 32.524-21.98.218-.024 32.562 21.91 32.644 22.136.094.262 14.434 87.797 14.434 88.106 0 .246-3.864.27-47.078.27-25.895 0-47.078-.056-47.078-.126m48.41-8.676c2.597-.742 5.261-2.558 6.66-4.543 2.137-3.03 2.508-7.687.957-12.054-.32-.903-.582-1.672-.582-1.704 0-.07 1.523-.593 1.73-.593.086 0 .493.719.903 1.597 2.879 6.118 7.37 11.438 12.191 14.442.977.61 1.79 1.082 1.809 1.05 1.062-1.777 2.566-3.738 4.058-5.3.64-.672 1.137-1.246 1.098-1.281-.035-.032-.711-.383-1.504-.782-3.398-1.71-7.05-4.87-9.484-8.215-1.227-1.683-2.625-3.984-2.496-4.101.035-.031.75-.336 1.585-.68 1.817-.742 7.016-3.215 7.016-3.34 0-.046-1.387-1.129-3.078-2.402l-3.074-2.316 1.976-.051 1.977-.047V68.652H67.773l.918-1.132c1.008-1.247 3.325-4.56 3.325-4.754 0-.067-1.188-.891-2.637-1.836l-2.637-1.711-.703.191c-.477.13-2.473.176-6.23.14l-5.528-.046.938-1.23c.515-.676.902-1.262.86-1.305-.083-.082-7.673-1.574-8.013-1.574-.109-.004-.597.542-1.086 1.214-3.52 4.836-8.738 9.403-14.609 12.786-.93.535-1.86 1.082-2.07 1.21-.38.239-.367.254.844 1.223 1.054.844 1.843 1.68 3.785 4.012l.355.43 1.04-.614 1.034-.613v9.387l5.286.011 5.28.008-1.859.578c-2.71.848-7.496 2.016-10.597 2.594-1.489.277-2.778.5-2.867.5-.086 0 .28.512.82 1.133a49 49 0 0 1 2.062 2.621c1.07 1.473 1.086 1.484 1.688 1.39 2.09-.335 9.766-2.706 13.133-4.058l1.941-.781.961.719.961.722-1.598.738c-4.925 2.266-13.187 4.754-19.351 5.825-.93.164-1.758.355-1.844.433-.082.078.34.664.965 1.336a26 26 0 0 1 2.086 2.61c.664.972 1.05 1.394 1.234 1.343.145-.043 1.457-.382 2.918-.754 5.719-1.46 11.602-3.636 16.637-6.152l3.191-1.594.39.465c.825.996.852.938-1.023 2.102-6.308 3.91-15.691 7.539-25.062 9.703-1.3.297-2.398.574-2.441.61-.04.034.23.382.605.773q1.347 1.412 2.852 3.562c.453.645.843 1.203.87 1.238.087.122 5.239-1.37 7.75-2.246 6.895-2.406 13.016-5.261 17.895-8.34 1.012-.64 1.883-1.117 1.938-1.058.058.055.133.848.172 1.758.09 2.215-.23 3.254-1.352 4.394-1.656 1.688-3.426 2.028-8.75 1.672-1.527-.101-2.797-.168-2.82-.144-.02.023.254.636.61 1.363.581 1.183 1.16 3.129 1.433 4.836.125.789.086.785 5.074.726 3.035-.035 4.105-.109 4.883-.328m0 0"/>
    <path fill="#f9f9f9" d="m47.496 67.055 1.637-1.598 5.937.047 5.942.043-1.18 1.55-1.18 1.555H45.86Zm-2.699 9.57v-2.266h11.16v4.532h-11.16Zm18.258 0v-2.266h12.34v4.532h-12.34ZM63.7 89.57c-.891-.933-2.31-2.226-3.153-2.875-.84-.644-1.531-1.218-1.535-1.273-.008-.055.36-.3.812-.547l.824-.445 18.383.007-.761.47c-2.356 1.464-7.98 4.265-11.754 5.859l-1.188.5Zm0 0"/>
</svg>
