<svg xmlns="http://www.w3.org/2000/svg" width="120" height="120" viewBox="0 0 120 136">
    <path fill="red" stroke="red" stroke-width=".004" d="m56.854 15.807-.023.577-.002.053-.035.64-.05.65h5.852v1.836h-5.14l.554 1.472.7 1.365.844 1.236.863.94.103.112.03.032 1.147.912 1.034.568.098.053.07.04.044.022.036.02.02.012-.233.215-.247.264-.245.295-.231.306-.201.3-.16.273-1.27-.762-1.118-.928-.39-.434-.583-.65-.444-.65-.398-.583-.135-.255-.59-1.113-.392-.952-.075-.181-.061-.15-.045-.108-.03-.07-.013-.034-.18.568-.203.558-.229.55-.258.539-.291.53-.055.086-.008.012-.263.419.414-.28.461.42.047.044.438.415.48.477.451.475.394.451.008.01.302.397-.302.222-1.104.812-.038.027-.071.053-.035.025-.022.017-.253-.371-.321-.413-.374-.44-.407-.452-.422-.45-.388-.4-.033-.034-.47.493-.158.144-.36.328-.566.45-.618.424-.67.397-.634.32-.048.025-.03.014-.015.008-.158-.246-.193-.266-.219-.271-.06-.066-.178-.198-.248-.244-.002-.002-.097-.081-.152-.128.152-.082 1.482-.797 1.304-1.024.017-.02.994-1.123.754-1.236.534-1.305.112-.43.238-.918h-5.15v-1.836h5.405l.048-.651.03-.642.001-.05.011-.431.004-.15.009-.618.006-.602.008-.583h1.933l-.01.587-.012.602-.016.618m-8.465-6.61h-.007v.031l-1.166 7.156L47 17.71l-2.003 12.293h22.006L66.677 28 65 17.709l-.216-1.325-1.166-7.156v-.03h-.007L61 7.412l-5-3.416-5 3.416-2.61 1.784M56 2l7.618 5.079L65 8l1.397 8.384 2.27 13.618L69 32H43l2.603-15.616L47 8l1.382-.921 6.138-4.093h.001Zm0 0" transform="matrix(4.29492 0 0 4.26451 -180.387 -4.265)"/>
    <path fill="#f9f9f9" d="M13.02 123.414c.011-.344 14.5-88.355 14.554-88.406.293-.27 32.395-21.969 32.524-21.98.218-.024 32.562 21.91 32.644 22.136.094.262 14.434 87.797 14.434 88.106 0 .246-3.864.27-47.078.27-25.895 0-47.078-.056-47.078-.126m24.468-9.09c4.543-2.265 8.543-5.117 11.89-8.476l1.618-1.63 1.93 1.989c2.886 2.973 4.969 5.402 6.988 8.152.258.356.566.606.684.563.246-.094 6.136-4.383 6.5-4.73.207-.2.078-.43-.899-1.626-.625-.765-1.984-2.289-3.02-3.386-2.081-2.203-6.816-6.649-7.085-6.649-.094 0-.39.156-.66.344-.274.191-.493.3-.493.242s.336-.656.743-1.324c1.617-2.64 3.421-6.645 4.578-10.14.254-.77.484-1.376.515-1.344.028.027.598 1.375 1.266 2.988 4.55 11.008 11.207 19.238 19.61 24.254 1.468.879 2.738 1.597 2.824 1.597.09 0 .511-.554.945-1.234 1.035-1.621 2.226-3.105 3.7-4.602.66-.671 1.171-1.25 1.132-1.285-.035-.03-1.281-.722-2.77-1.535-7.132-3.89-12.824-9.937-17.129-18.203-1.218-2.34-3.75-8.379-3.75-8.95 0-.062 4.946-.112 10.989-.112h10.988v-8.059H63.355l.098-.543c.133-.758.41-6.469.54-11.246l.112-3.988H59.86c-2.332 0-4.246.058-4.25.125-.004.07-.078 3.074-.164 6.675-.086 3.598-.207 7.09-.27 7.762l-.112 1.215-23.196.086-.047 3.984-.047 3.989h11.09c10.477 0 11.082.015 11 .293-.047.164-.394 1.464-.77 2.894-1.577 6.016-4.386 11.293-8.355 15.719-1.808 2.015-2.742 2.883-5.035 4.668-2.414 1.875-3.316 2.457-6.297 4.039l-3.48 1.844 1.25 1.175c1.39 1.301 2.816 2.961 3.758 4.368.336.503.68.921.761.921.082 0 .89-.37 1.793-.824m0 0"/>
</svg>
