<svg xmlns="http://www.w3.org/2000/svg" width="120" height="120" viewBox="0 0 120 120">
    <path stroke="red" stroke-width=".004" d="m-50.069 72.72.127.204.156.224.177.233.183.23.098.117.083.098.092.101.077.084-.077.018-1.156.273-.336.099-.05.015-.05.014-.064.019-.757.223-1.23.437-.452.188-.713.3-.354.18-.693.351-.288.18-.599.38h-.001l.047.064.049.069.048.065.035.045.016.02.053.063.057.061.295-.159.51-.273.87-.4.668-.266.244-.098.298-.103.634-.22.928-.276.835-.21.034-.008.02-.005.012-.002.122.2.148.215.164.221.068.085.106.131.178.2.14.139.032.034-.936.175-.653.152-.018.004-.026.006-.045.01-.215.05-.022.006-.93.258-.915.299-.203.079-.652.25-.546.256-.217.1.078.06.082.06.083.063.171.122.063.043.025.017.605-.247.308-.115.285-.103.027-.01.624-.206.616-.187.496-.134.103-.03.53-.13.022-.006.016-.004.128.187.148.21.162.22.07.09.1.125.168.196.164.165-.592.103-.543.108-.07.014-.625.14-.627.162-.619.175-.583.185-.018.006h2.542v2.248l.163-.105.086-.051.084-.052.089-.05.007-.005.045-.026.024-.014.015-.009.153.213.19.233.212.234.102.1.124.122.031.027.183.161.009.005.054.042.153.11-.153.087-.779.452-.842.582-.747.613-.652.629-.55.631-.445.62-.08-.016-1.787-.35h-.009l.076-.102.152-.206.076-.104.077-.106.076-.106h-2.673l-.084.023-.19.052-1.221-.796.143-.224.158-.232.167-.238.178-.24.187-.242.192-.242h-3.623v-3.668h5.293l.065-.037.066-.039.065-.037.04-.022.026-.014.04-.024.026-.015.024-.014.027-.016.014-.007-.302-.226-.283-.23-.263-.234-.245-.237-.208-.227-.006-.008-.008-.01-.202-.248-.16.068-.41.176-.046.022-.532.241-.57.274-.546.282-.51.28-.456.27-.014-.01-1.437-1.086.323-.163.184-.088.151-.074.343-.16.35-.156.35-.151.35-.144-.043-.076-.305-.528-.422-.595-.144-.165-.352-.401-.36-.327-.208-.188-.64-.448-.697-.35-.015-.008.203-.198.115-.128.106-.114.221-.27.214-.28.188-.274.153-.252.781.49.696.6.09.1.522.585.526.736.395.68.027.047.02.035.359.76.48-.161-.222-.634-.063-.181-.107-.781.06-.724.122-.362.094-.277.36-.533.316-.255.181-.146.292-.172.28-.13.284-.094.297-.064.322-.039.359-.017h.033l.16.002.208.004.216.008.227.01.214.013.017.001.008.001.103.006.067.004.037.003.02.002.028.245.051.27.073.278.096.279.116.266.129.227.008.014-.277-.024-.273-.019-.203-.01-.062-.004-.252-.01-.235-.006-.214-.001-.193.003-.07.004-.113.008-.175.026-.162.046-.147.067-.022.014-.11.078-.213.168-.162.221-.11.27-.052.312.006.328.001.025.03.164.025.14.015.082.946-.6 1.033-.555 1.094-.505.165-.066.158-.062.802-.319 1.124-.38 1.005-.284.032-.01.028-.007.017-.004.013-.004m-3.236 10.829.057-.056.081-.081.14-.135.14-.137.146-.135.15-.133h-3.076l-.1.13-.1.131-.1.134-.101.138-.1.14-.1.144h2.827l.136-.14M-43 68l-3.8 22.802L-47 92l-7.52 5.013L-56 98l-7.225-4.815L-65 92l-.199-1.197-3.8-22.802h26m-24.004 1.997L-65 82.291l1.383 8.481v.031h.008l7.61 5.2 7.611-5.2h.007v-.031l.778-4.771.604-3.71 2.003-12.293h-22.007m14.579 11.593v-1.107h-2.63v1.107h2.63m-4.246-1.107h-2.892v1.107h2.892Zm0 0" transform="matrix(3.78963 0 0 3.7628 272.333 -252.108)"/>
    <path fill="#f9f9f9" d="M45.766 99.285A8288 8288 0 0 1 31.39 89.52c-.051-.047-12.832-77.7-12.844-78.004 0-.063 18.691-.11 41.539-.11 38.309 0 41.539.016 41.539.239 0 .273-12.652 77.503-12.734 77.738-.043.117-28.387 19.445-28.723 19.586-.043.015-6.527-4.336-14.402-9.684m25.953-28.82c2.883-4.09 7.91-8.45 13.277-11.516.902-.515 1.676-.965 1.715-1 .043-.035-.125-.207-.375-.379-.781-.55-2.813-2.574-3.504-3.5-.371-.488-.738-.89-.816-.89-.086 0-.524.222-.973.504l-.82.507-.04-4.136-.042-4.14-4.582-.017-4.586-.015 1.086-.352c2.304-.75 5.617-1.582 8.91-2.234 1.886-.375 3.453-.703 3.484-.73s-.344-.481-.832-1.012a26 26 0 0 1-1.773-2.227c-.63-.906-.97-1.262-1.196-1.262-.453-.004-5.906 1.524-8.187 2.29a83 83 0 0 0-3.633 1.324c-.93.375-1.766.636-1.863.582a17 17 0 0 1-.89-.617l-.724-.512 1.247-.586c4.265-2.008 11.687-4.254 17.277-5.223.777-.133 1.508-.273 1.613-.308.13-.043-.11-.403-.683-1.02-.82-.89-2.633-3.289-2.75-3.648-.036-.098-.707.007-1.84.293-6.172 1.554-12.14 3.77-16.95 6.3l-1.585.836-1.059-1.27 1.445-.925c5.035-3.234 13.793-6.652 21.957-8.566 1.27-.297 2.332-.563 2.36-.586.027-.024-.446-.637-1.055-1.367a43 43 0 0 1-1.828-2.344 45 45 0 0 0-.828-1.145c-.239-.273-6.528 1.68-10.656 3.313-4.551 1.793-8.918 3.965-12.153 6.039-.96.613-1.465.855-1.57.758-.082-.086-.149-.883-.149-1.813.004-1.441.051-1.75.364-2.375.191-.398.593-.953.886-1.238 1.465-1.41 2.727-1.66 7.118-1.414 1.629.093 2.984.144 3.011.117s-.12-.39-.336-.805c-.754-1.48-1.414-3.668-1.421-4.703v-.469l-1.106-.101c-1.848-.176-6.602 0-7.621.277-2.305.63-4.703 2.242-5.941 4.004-1.907 2.711-2.227 6.703-.856 10.668.25.727.457 1.371.457 1.434 0 .113-1.476.64-1.562.55-.028-.027-.383-.714-.786-1.527-1.562-3.16-3.144-5.562-5.261-7.992-1.778-2.031-3.637-3.547-6.438-5.242l-.55-.328-.704 1.078c-.773 1.195-1.422 2.008-2.918 3.683l-1.004 1.125 1.07.5c3.825 1.809 7.696 5.48 10.22 9.7.343.574.625 1.113.625 1.199 0 .082-.692.437-1.528.789-1.812.758-6.082 2.765-6.082 2.86 0 .038 1.242.991 2.754 2.124l2.754 2.05-1.785.044-1.781.043v13.914h13.582l-1.098 1.441c-1.395 1.836-2.688 3.746-2.598 3.836.04.035 1.102.735 2.36 1.551 1.773 1.145 2.359 1.457 2.593 1.371.164-.062 2.637-.137 5.493-.164 5.921-.062 5.43-.219 4.226 1.371-.375.485-.625.906-.562.926.297.105 6.691 1.348 6.957 1.352.199.003.53-.336 1.039-1.055m0 0"/>
    <path fill="#f9f9f9" d="M59.414 62.566c0-.039.441-.675.98-1.406l.985-1.324h11.36l-2.958 2.797-5.183.008c-2.852.007-5.184-.028-5.184-.075m4.324-9.766v-2h9.844v4h-9.844Zm-17 0v-2h10.739v4H46.738Zm-2.09-7.628c1.891-1.098 6.192-3.25 8.711-4.36l2.22-.98.523.637c.867 1.039 2.609 2.683 3.894 3.672l1.211.933-1.484.84-16.344-.008Zm0 0"/>
</svg>
