<svg xmlns="http://www.w3.org/2000/svg" width="120" height="120" viewBox="0 0 120 120">
    <path fill="red" stroke="red" stroke-width=".004" d="m-49 7.502-.153.082-1.13.608-.35.189-1.305 1.024-1.011 1.144-.299.49-.455.745-.206.504-.328.8-.35 1.348h5.15v1.837h-5.406l-.008.11-.039.54-.03.642-.012.482-.004.15-.009.618-.007.602-.007.584h-1.933l.01-.588.012-.602.016-.618.025-.63.035-.64.041-.54.009-.11h-5.852v-1.837h5.14l-.554-1.472-.699-1.364-.845-1.236-.996-1.084-1.147-.911-.32-.177-.714-.391-.098-.054-.07-.04-.044-.023-.035-.02-.022-.01.234-.217.246-.263.247-.295.23-.306.202-.3.158-.272 1.272.76 1.117.93.39.434.06.067.523.582.842 1.233.135.255.59 1.113.376.913.226.548.014.034.18-.568.005-.014.197-.544.23-.549.258-.54.229-.416.062-.113.063-.1.263-.419-.414.281-.02-.016-.44-.404-.485-.459-.48-.476-.324-.34-.128-.136-.394-.45-.008-.012-.302-.395.302-.224 1.104-.81.038-.03.036-.024.035-.027.035-.025.023-.017.252.372.32.412.375.44.406.452.423.45.022.023.398.411.393-.41.078-.083.158-.144.36-.328.566-.45.617-.423.672-.398.426-.216.13-.065.077-.039.049-.025.03-.014.014-.007.158.245.192.266.22.27.238.265.248.244.098.083.153.128M-43 2l-3.8 22.802L-47 26l-7.52 5.013L-56 32l-7.225-4.815L-65 26l-.199-1.197L-69 2.001h26m-24.004 1.997L-65 16.291l1.383 8.481v.031h.008l7.61 5.2 7.611-5.2h.007v-.031l.778-4.771.604-3.71 2.003-12.293Zm0 0" transform="matrix(3.78963 0 0 3.7628 272.333 -3.763)"/>
    <path fill="#f9f9f9" d="M45.766 99.285A8288 8288 0 0 1 31.39 89.52c-.051-.047-12.832-77.7-12.844-78.004 0-.063 18.691-.11 41.539-.11 38.133 0 41.539.016 41.539.239 0 .27-12.656 77.507-12.738 77.742-.043.117-28.38 19.441-28.715 19.582-.047.015-6.531-4.336-14.406-9.684m18.488-33.488c.066-3.156.156-6.274.21-6.926l.095-1.184 10.254-.039 10.257-.035v-7.11H65.578l.645-2.48c1.422-5.468 3.867-10.14 7.402-14.136 1.605-1.813 2.34-2.496 4.43-4.121 2.12-1.657 2.96-2.192 5.523-3.559 1.66-.883 3.043-1.633 3.074-1.664.032-.031-.668-.781-1.558-1.672-.883-.89-1.996-2.168-2.469-2.84s-.926-1.222-1-1.222c-.238 0-2.719 1.277-4.184 2.156-3.035 1.824-5.097 3.406-7.68 5.883l-1.66 1.593-1.855-1.964c-2.691-2.848-4.332-4.747-5.383-6.22-.504-.714-.976-1.3-1.047-1.3s-1.46.977-3.093 2.168l-2.97 2.168.485.668c1.172 1.633 5.121 5.742 8.07 8.394l1.31 1.18.456-.258c.246-.144.48-.23.516-.195.035.035-.176.43-.465.883-.61.941-2.105 3.875-2.695 5.281-.223.531-.73 1.89-1.13 3.024l-.726 2.058-.316-.723c-.172-.402-.676-1.601-1.113-2.664-1.165-2.824-3.407-6.91-5.25-9.566-3.243-4.672-7.313-8.523-11.836-11.195-1.274-.754-2.38-1.367-2.461-1.367-.078.003-.36.367-.633.812-.836 1.371-2.27 3.207-3.41 4.36-.598.609-1.07 1.109-1.055 1.12l2.543 1.383c7.621 4.137 13.68 11.52 17.336 21.13l1.07 2.812-9.672.035-9.675.043v7.105h11.035c10.418 0 11.039.016 11.039.262 0 .14-.07 1.191-.156 2.328-.09 1.14-.208 4.156-.262 6.703l-.102 4.63h7.485Zm0 0"/>
</svg>
