<?xml version="1.0" encoding="UTF-8" standalone="no"?>
<svg
   width="177.17"
   height="177.17"
   shape-rendering="geometricPrecision"
   image-rendering="optimizeQuality"
   fill-rule="evenodd"
   clip-rule="evenodd"
   viewBox="0 0 50 50"
   version="1.1"
   id="svg3"
   sodipodi:docname="bR.svg"
   inkscape:version="1.4.3 (0d15f75, 2025-12-25)"
   xml:space="preserve"
   xmlns:inkscape="http://www.inkscape.org/namespaces/inkscape"
   xmlns:sodipodi="http://sodipodi.sourceforge.net/DTD/sodipodi-0.dtd"
   xmlns:xlink="http://www.w3.org/1999/xlink"
   xmlns="http://www.w3.org/2000/svg"
   xmlns:svg="http://www.w3.org/2000/svg"><sodipodi:namedview
     id="namedview3"
     pagecolor="#ffffff"
     bordercolor="#666666"
     borderopacity="1.0"
     inkscape:showpageshadow="2"
     inkscape:pageopacity="0.0"
     inkscape:pagecheckerboard="0"
     inkscape:deskcolor="#d1d1d1"
     inkscape:zoom="1.9571908"
     inkscape:cx="105.2529"
     inkscape:cy="85.326378"
     inkscape:window-width="1015"
     inkscape:window-height="775"
     inkscape:window-x="44"
     inkscape:window-y="29"
     inkscape:window-maximized="0"
     inkscape:current-layer="g4" /><defs
     id="defs2"><linearGradient
       id="linearGradient19"
       inkscape:collect="always"><stop
         style="stop-color:#ffffff;stop-opacity:1;"
         offset="0"
         id="stop18" /><stop
         style="stop-color:#040303;stop-opacity:1;"
         offset="1"
         id="stop19" /></linearGradient><linearGradient
       id="linearGradient9"
       inkscape:collect="always"><stop
         style="stop-color:#ffffff;stop-opacity:1;"
         offset="0"
         id="stop10" /><stop
         style="stop-color:#000080;stop-opacity:1;"
         offset="1"
         id="stop9" /></linearGradient><linearGradient
       inkscape:collect="always"
       xlink:href="#linearGradient9"
       id="linearGradient10"
       x1="23.010502"
       y1="27.258595"
       x2="65.668434"
       y2="28.320618"
       gradientUnits="userSpaceOnUse" /><linearGradient
       inkscape:collect="always"
       xlink:href="#linearGradient19"
       id="linearGradient23"
       gradientUnits="userSpaceOnUse"
       gradientTransform="matrix(1.0934474,0,0,-0.93009218,-3.8553621,61.906685)"
       x1="-23.369852"
       y1="29.541935"
       x2="42.821426"
       y2="29.541935" /><linearGradient
       inkscape:collect="always"
       xlink:href="#linearGradient19"
       id="linearGradient36"
       x1="14.366383"
       y1="23.132843"
       x2="55.771317"
       y2="23.132843"
       gradientUnits="userSpaceOnUse" /><linearGradient
       inkscape:collect="always"
       xlink:href="#linearGradient19"
       id="linearGradient37"
       x1="12.075669"
       y1="19.553223"
       x2="55.373241"
       y2="19.553223"
       gradientUnits="userSpaceOnUse" /><linearGradient
       inkscape:collect="always"
       xlink:href="#linearGradient19"
       id="linearGradient38"
       x1="19.94202"
       y1="31.404026"
       x2="55.05146"
       y2="31.404026"
       gradientUnits="userSpaceOnUse" /><linearGradient
       inkscape:collect="always"
       xlink:href="#linearGradient19"
       id="linearGradient39"
       x1="11.279559"
       y1="41.959534"
       x2="56.584515"
       y2="41.634731"
       gradientUnits="userSpaceOnUse" /><linearGradient
       inkscape:collect="always"
       xlink:href="#linearGradient19"
       id="linearGradient40"
       x1="10.686324"
       y1="46.046471"
       x2="56.528164"
       y2="46.046471"
       gradientUnits="userSpaceOnUse" /></defs><g
     id="g1"><path
       id="path22"
       style="display:inline;fill:url(#linearGradient23);fill-opacity:1;stroke:none;stroke-width:1.70763;stroke-linejoin:round;stroke-dasharray:none;stroke-opacity:1;paint-order:normal"
       d="m 25.000265,4.3699205 -3.981324,0.095358 0.52805,6.1238405 c -1.753996,0.316751 -4.565045,0.95027 -4.565045,0.95027 L 14.878564,5.8377677 C 12.401965,6.740602 10.458762,7.8567191 9.3880525,9.3219088 l 3.8275385,8.5447152 1.910461,1.917627 c 0.583614,6.036221 -0.250618,11.609351 -2.903724,16.567443 l -0.0088,0.383085 -0.330132,2.760965 c 0.01233,0.0058 0.02449,0.01186 0.03694,0.01763 l -1.637623,1.022481 -0.3797766,3.239408 c 2.5918016,1.0389 7.8455136,1.836812 15.0973906,1.871327 7.251874,-0.03451 12.505038,-0.832427 15.096839,-1.871327 l -0.3798,-3.239405 -1.637618,-1.022477 c 0.01244,-0.0058 0.0246,-0.01182 0.03693,-0.01763 l -0.33017,-2.760965 H 35.63076 c 0.722815,-0.14319 1.313822,-0.188416 2.146929,-0.383085 -2.653107,-4.958093 -3.48734,-10.531222 -2.903726,-16.567443 l 1.910461,-1.917627 3.827539,-8.5447155 C 39.541211,7.8567229 37.598008,6.7406059 35.121409,5.8377715 l -2.103383,5.7016215 c 0,0 -2.811048,-0.633519 -4.565045,-0.95027 l 0.52805,-6.1238412 z"
       sodipodi:nodetypes="cccccccccccccccccccccccccccccc"
       inkscape:label="background" /><g
       id="g4"
       style="fill:url(#linearGradient10);fill-opacity:1"
       transform="matrix(0.95,0,0,0.95,1.2499998,-2.8202521)"
       inkscape:label="white lines"><path
         style="opacity:1;fill:none;fill-opacity:1;stroke:url(#linearGradient37);stroke-width:2.37655;stroke-linecap:butt;stroke-linejoin:round;stroke-dasharray:none;stroke-opacity:1;paint-order:normal"
         d="m 12.582208,21.028018 c 2.423477,-1.142044 6.112785,-2.836217 12.535004,-2.836217 6.422219,0 10.111527,1.694173 12.535004,2.836217"
         id="path4"
         sodipodi:nodetypes="cc"
         inkscape:label="topmost" /><path
         style="opacity:1;fill:none;fill-opacity:1;stroke:url(#linearGradient36);stroke-width:2.37655;stroke-linecap:butt;stroke-linejoin:round;stroke-dasharray:none;stroke-opacity:1;paint-order:normal"
         d="M 14.849523,24.180976 C 17.02975,23.210697 19.87051,22.312536 25,22.187363 c 5.12949,0.125173 7.97025,1.023334 10.150477,1.993613"
         id="path13"
         sodipodi:nodetypes="cc"
         inkscape:label="upper" /><path
         style="opacity:1;fill:none;fill-opacity:1;stroke:url(#linearGradient40);stroke-width:2.37655;stroke-linejoin:round;stroke-dasharray:none;stroke-opacity:1;paint-order:normal"
         d="M 38.807138,45.137567 C 36.484291,46.23219 32.435659,46.796984 25,46.842 17.564342,46.79698 13.51571,46.23219 11.192863,45.137567"
         id="path2"
         sodipodi:nodetypes="ccc"
         inkscape:label="lowest" /><path
         id="rect9"
         style="fill:none;stroke:url(#linearGradient38);stroke-width:2.25772;stroke-linejoin:round;stroke-dasharray:none;stroke-opacity:1"
         d="m 21.07088,36.958766 v -5.95906 c 0,-2.227945 1.752388,-4.021561 3.92912,-4.021561 2.176732,0 3.92912,1.793616 3.92912,4.021561 v 5.95906"
         sodipodi:nodetypes="csssc"
         inkscape:label="door"
         transform="matrix(1.0526316,0,0,1.0526316,-1.3157893,2.9686864)" /><path
         style="opacity:1;fill:none;fill-opacity:1;stroke:url(#linearGradient39);stroke-width:2.37655;stroke-linejoin:round;stroke-dasharray:none;stroke-opacity:1;paint-order:normal"
         d="m 11.549948,41.233342 c 0.350868,0.08199 0.689947,0.159384 1.019266,0.23244 4.301968,0.954347 6.938323,1.167751 12.430786,1.188776 5.912915,-0.02263 8.515711,-0.268229 13.450052,-1.421216"
         id="path3"
         sodipodi:nodetypes="cscc"
         inkscape:label="lower" /></g><path
       id="path5"
       style="display:inline;fill:none;fill-opacity:1;stroke:#1f1a17;stroke-width:1.70763;stroke-linejoin:round;stroke-dasharray:none;stroke-opacity:1;paint-order:normal"
       d="m 25.000265,4.3699205 -3.981323,0.095358 0.528049,6.1238405 c -1.753996,0.316751 -4.565045,0.95027 -4.565045,0.95027 L 14.878564,5.8377677 C 12.401966,6.740602 10.458762,7.8567191 9.3880525,9.3219088 l 3.8275385,8.5447152 1.910462,1.917627 c 0.583613,6.036221 -0.250619,11.609351 -2.903725,16.567443 l -0.0088,0.383085 -0.330133,2.760965 c 0.01233,0.0058 0.02449,0.01186 0.03694,0.01763 l -1.637623,1.022481 -0.3797765,3.239408 c 2.5918015,1.0389 7.8455145,1.836812 15.0973905,1.871327 7.251874,-0.03451 12.505039,-0.832427 15.096839,-1.871327 L 39.717348,40.535857 38.079731,39.51338 c 0.01244,-0.0058 0.02459,-0.01182 0.03693,-0.01763 L 37.786492,36.734785 37.777692,36.3517 C 35.124501,31.393606 34.290268,25.820476 34.873882,19.784255 l 1.910461,-1.917627 3.827539,-8.5447154 C 39.541173,7.8567228 37.59797,6.7406059 35.12137,5.8377714 l -2.103343,5.7016216 c 0,0 -2.811049,-0.633519 -4.565046,-0.95027 l 0.52805,-6.1238412 z"
       sodipodi:nodetypes="ccccccccccccccccccccccccccccc"
       inkscape:label="outline" /></g></svg>
