<svg enable-background="new" height="360" viewBox="0 0 95.249998 95.250003" width="360" xmlns="http://www.w3.org/2000/svg" xmlns:xlink="http://www.w3.org/1999/xlink"><radialGradient id="a" cx="47.625" cy="249.37497" gradientTransform="matrix(.00005254 -3.0232565 3.0232563 .00000043 -706.30195 393.35746)" gradientUnits="userSpaceOnUse" r="11.377083"><stop offset="0" stop-color="#4d4d4d"/><stop offset="1" stop-color="#1a1a1a"/></radialGradient><radialGradient id="b" cx="47.625" cy="249.37497" gradientTransform="matrix(-.00000399 -1.1111107 1.1111111 .00000003 -229.45811 302.29161)" gradientUnits="userSpaceOnUse" r="16.66875"><stop offset="0" stop-color="#1a1a1a"/><stop offset=".71428567" stop-color="#4d4d4d"/><stop offset="1" stop-color="#1a1a1a"/></radialGradient><radialGradient id="c" cx="47.625" cy="249.37497" gradientTransform="matrix(-.00000152 -1.1445779 1.1445783 -.00000007 -237.80411 303.8855)" gradientUnits="userSpaceOnUse" r="21.960416"><stop offset="0" stop-color="#1a1a1a"/><stop offset=".73684192" stop-color="#4d4d4d"/><stop offset="1" stop-color="#1a1a1a"/></radialGradient><radialGradient id="d" cx="47.625" cy="249.37497" gradientTransform="matrix(-.00000648 -1.1165049 1.1165049 -.0000002 -230.80306 302.54857)" gradientUnits="userSpaceOnUse" r="27.252082"><stop offset="0" stop-color="#1a1a1a"/><stop offset=".78260881" stop-color="#4d4d4d"/><stop offset="1" stop-color="#1a1a1a"/></radialGradient><filter id="e" color-interpolation-filters="sRGB"><feFlood flood-opacity=".498039" result="flood"/><feComposite in="flood" in2="SourceGraphic" operator="in" result="composite1"/><feGaussianBlur in="composite1" result="blur" stdDeviation="1"/><feOffset dx="1.5" dy="1.5" result="offset"/><feComposite in="SourceGraphic" in2="offset" operator="over" result="composite2"/></filter><g stroke="#000" stroke-width="2.116667" transform="translate(0 -201.74997)"><path d="m21.166668 249.37497a26.458332 26.458332 0 0 1 26.456602-26.45833 26.458332 26.458332 0 0 1 26.460062 26.45487 26.458332 26.458332 0 0 1 -26.453138 26.46179 26.458332 26.458332 0 0 1 -26.463525-26.4514" fill="url(#d)" filter="url(#e)"/><path d="m26.458334 249.37497a21.166666 21.166666 0 0 1 21.165282-21.16667 21.166666 21.166666 0 0 1 21.16805 21.1639 21.166666 21.166666 0 0 1 -21.162511 21.16944 21.166666 21.166666 0 0 1 -21.17082-21.16113" fill="url(#c)"/><path d="m31.75 249.37497a15.875 15.875 0 0 1 15.873962-15.875 15.875 15.875 0 0 1 15.876038 15.87292 15.875 15.875 0 0 1 -15.871884 15.87708 15.875 15.875 0 0 1 -15.878115-15.87085" fill="url(#b)"/><path d="m37.041667 249.37497a10.583333 10.583333 0 0 1 10.582641-10.58333 10.583333 10.583333 0 0 1 10.584025 10.58194 10.583333 10.583333 0 0 1 -10.581255 10.58472 10.583333 10.583333 0 0 1 -10.585411-10.58056" fill="url(#a)"/></g></svg>