<svg height="360" viewBox="0 0 95.249998 95.250003" width="360" xmlns="http://www.w3.org/2000/svg" xmlns:xlink="http://www.w3.org/1999/xlink"><radialGradient id="a" cx="47.625" cy="249.37497" gradientTransform="matrix(-.00020025 -3.5135125 3.5135141 -.00000048 -828.54793 416.70611)" gradientUnits="userSpaceOnUse" r="19.579167"><stop offset="0" stop-color="#fff6d5"/><stop offset="1" stop-color="#540"/></radialGradient><radialGradient id="b" cx="47.625" cy="249.37497" gradientTransform="matrix(.00000164 -1.5384617 1.5384618 -.00000004 -336.02894 322.64422)" gradientUnits="userSpaceOnUse" r="27.516665"><stop offset="0" stop-color="#fff"/><stop offset=".53125006" stop-color="#fff6d5"/><stop offset="1" stop-color="#fff"/></radialGradient><filter id="c" color-interpolation-filters="sRGB"><feFlood flood-opacity=".498039" result="flood"/><feComposite in="flood" in2="SourceGraphic" operator="in" result="composite1"/><feGaussianBlur in="composite1" result="blur" stdDeviation="1"/><feOffset dx="1.5" dy="1.5" result="offset"/><feComposite in="SourceGraphic" in2="offset" operator="over" result="composite2"/></filter><filter id="d" color-interpolation-filters="sRGB"><feFlood flood-opacity=".498039" result="flood"/><feComposite in="flood" in2="SourceGraphic" operator="out" result="composite1"/><feGaussianBlur in="composite1" result="blur" stdDeviation="3"/><feOffset dx="1.5" dy="1.5" result="offset"/><feComposite in="offset" in2="SourceGraphic" operator="atop" result="composite2"/></filter><g stroke="#000" stroke-width="2.116667" transform="translate(0 -201.74997)"><path d="m21.166668 249.37497a26.458332 26.458332 0 0 1 26.456602-26.45833 26.458332 26.458332 0 0 1 26.460062 26.45487 26.458332 26.458332 0 0 1 -26.453138 26.46179 26.458332 26.458332 0 0 1 -26.463525-26.4514" fill="url(#b)" filter="url(#c)"/><path d="m29.104166 249.37497a18.520834 18.520834 0 0 1 18.519623-18.52083 18.520834 18.520834 0 0 1 18.522045 18.51841 18.520834 18.520834 0 0 1 -18.517198 18.52325 18.520834 18.520834 0 0 1 -18.524469-18.51598" fill="url(#a)" filter="url(#d)"/></g></svg>