<svg height="92" width="92" xmlns="http://www.w3.org/2000/svg"><g><circle cx="46" cy="45.999999" fill="#ffe6d5" r="40.79224" stroke="#df4a4a" stroke-linecap="round" stroke-miterlimit="10" stroke-width="3"/><path d="m27.04672 60.40327c.184857-11.52873.15137-11.9762-.807031-10.79168l-.99981 1.23575-1.130018-1.3488c-.621532-.74181-1.820251-2.32268-2.66383-3.51308l-1.533751-2.16452 1.329331-2.40618c1.413778-2.55905 8.962251-15.1425 11.04121-18.40597.68262-1.07155 1.385061-1.95917 1.56096-1.97248.175975-.0129 1.632042 1.09594 3.235911 2.46498l2.916121 2.48914-1.46143 2.4507c-1.05631 1.77136-1.539772 3.54609-1.74415 6.40248l-.282747 3.95179 5.078381-.40189c8.077763-.63926 7.587443-.0939 7.774873-8.64812l.16003-7.30496 4.42768-.16691 4.4277-.1669-.00002 7.30829v7.30831l6.85578-.20296 6.85581-.20296v3.77373 3.77373l-5.57032.009c-8.84241.0129-8.14127-.78734-8.14127 9.28543v8.58871l6.28448-.33147 6.28448-.33146v3.90587 3.90588l-2.71377.31635c-1.49255.17423-7.46994.46276-13.28307.64161-5.81313.17877-12.176159.47618-14.14007.66074l-3.570708.33562v-3.43333c0-4.06933-.01512-4.05936 6.712947-4.53482l4.713351-.33298v-8.81636-8.81631l-5.855978.40882c-3.220792.22488-6.04487.69538-6.27572 1.0456-.230853.35021-.423681 6.35707-.428493 13.34851l-.0091 12.7118h-4.620462-4.620419z" fill="#df4a4a" stroke-width=".571313"/></g></svg>