<svg height="92" width="92" xmlns="http://www.w3.org/2000/svg"><g><circle cx="46" cy="45.999999" fill="#ffe6d5" r="40.79224" stroke="#df4a4a" stroke-linecap="round" stroke-miterlimit="10" stroke-width="3"/><path d="m25.15224 69.852635c.00057-.39277.76978-10.99782 1.70929-23.56675.93952-12.56894 1.71027-23.30257 1.71284-23.85242.004-.85043.56633-.99983 3.7637-.99983h3.75904l-.36057 3.8564c-.19805 2.121-.48064 4.43482-.6277 5.14186-.2914 1.40054.35603 1.61526 2.08293.69101.94836-.50755 1.2889-.29253 2.3297 1.47164l1.21901 2.06607 3.4887-5.45374c1.91883-2.99951 3.76048-5.89013 4.09258-6.4235.55359-.88905.84926-.83622 3.55219.63489l2.9483 1.60467-1.13137 1.58884-1.13136 1.58884 7.70128.18708c6.46968.15723 7.86418.35037 8.71986 1.20737.89307.89439 1.04001 2.37279 1.19263 11.99763.15383 9.69029.0533 11.2072-.85697 12.93653-1.45372 2.76207-3.62642 4.15498-6.98434 4.4776-3.40225.32693-4.14826-.14589-5.18468-3.28622-.7087-2.14745-.89654-2.29342-2.95068-2.29342h-2.19386v4.85616 4.85617h6.8558c7.3101 0 7.19115.0499 6.96782-2.91606-.0711-.94375.0113-.94787 4.60135-.22601 2.06105.32428 2.14242.42361 2.14242 2.61482 0 2.9802-1.2641 5.91912-3.0489 7.08858-1.22347.80164-2.96425.9114-12.03379.75859l-10.60335-.17877-1.58272-1.58252c-1.57912-1.57898-1.58309-1.60309-1.76485-10.71217l-.18217-9.1296h4.32419 4.3242v-3.71357-3.71354h-3.61705c-3.26411 0-3.69086.13795-4.37408 1.41468l-.75715 1.41467-2.05316-1.16371c-3.81978-2.16495-4.30579-2.67202-3.49629-3.6474 1.10574-1.33232-.059-1.0385-1.98478.50075-1.64878 1.31777-1.72479 1.58238-1.9996 6.95947-.33902 6.63243-.0915 7.11171 5.10543 9.88154 1.90537 1.01556 3.46431 2.02197 3.46431 2.2365 0 .21467-.92145 1.72792-2.04767 3.36313l-2.04767 2.97313-2.33908-1.6944c-2.8552-2.06831-3.25697-1.65929-3.26921 3.32799l-.008 3.57075h-3.71354c-2.59056 0-3.71323-.21582-3.71244-.71415zm37.13442-26.70898v-9.71236h-1.91342c-1.05237 0-3.82409-.16139-6.15938-.35906l-4.24596-.35906-.82091 1.64436c-.45151.90445-.92149 1.85719-1.04444 2.11726-.12283.26003.93075.29971 2.34161.0881 3.41136-.51156 8.81711.62695 9.55903 2.0132.31332.58534.5695 4.03768.5695 7.67192 0 5.4926.14475 6.60767.857 6.60767.72813 0 .85697-1.46003.85697-9.71236zm-42.54311-.71414c.17234-2.27815.44987-5.49177.61644-7.14146l.30274-2.99939h2.81945 2.81945l-.3137 4.14202c-.17272 2.27811-.44984 5.49177-.6164 7.14142l-.30274 2.99943h-2.81949-2.81945z" fill="#df4a4a" stroke-width=".571313"/></g></svg>