<svg height="92" width="92" xmlns="http://www.w3.org/2000/svg"><g><circle cx="46" cy="45.999999" fill="#ffe6d5" r="40.79224" stroke="#df4a4a" stroke-linecap="round" stroke-miterlimit="10" stroke-width="3"/><path d="m45.097888 57.569175c.39065-13.94879.38158-13.99048-2.04106-9.40422l-1.14361 2.16488-1.77025-1.26051-1.77022-1.26051.41911 11.23604.41915 11.23608h-4.910289-4.91028l-.004-8.42691-.004-8.42687-1.78545 3.11373-1.78545 3.11376-1.28481-1.61133c-.70613-.88622-1.8141-2.55394-2.46161-3.70605l-1.17728-2.09473 3.96725-6.70598c2.18159-3.68831 3.96684-6.99275 3.96684-7.34323 0-.43082-1.01775-.53218-3.14222-.31291l-3.14222.32432v-2.52962c0-1.99787.21014-2.54644.9998-2.60956.54988-.0441 1.93776-.13496 3.08417-.20232 3.71059-.21777 3.76573-.2996 4.21175-6.24844l.40985-5.46701h3.93627 3.936299l-.36321 3.09068c-.19994 1.69987-.1818 4.30042.0401 5.77901l.40312 2.68831 2.24039-.35826 2.2404-.35826v2.86332 2.86332h-2.57095c-1.414 0-2.57088.24752-2.57088.55004 0 .30251 1.50838 1.57434 3.35192 2.82629l3.35195 2.27627.36963-6.11137c.20334-3.36123.52774-8.3609.72095-11.11037l.35152-4.999h4.49684c2.47329 0 4.49685.1954 4.49685.43434 0 .23887 2.97864.43169 6.6192.42847 9.6136-.009 8.80807-2.24981 8.79851 24.48119-.004 11.98426-.1629 22.36798-.35225 23.07501-.31975 1.19313-.66308 1.28546-4.78175 1.28546-3.95679 0-4.46963-.12359-4.73609-1.14266-.23622-.90309-.77926-1.14263-2.59079-1.14263-2.84277 0-4.09942.45657-4.09942 1.48943 0 .61841-1.09278.79586-4.90122.79586h-4.90125zm16.28621.9998v-4.28485h-3.42792-3.42792v4.28485 4.28485h3.42792 3.42792zm-.18709-10.19947c.0541-.0499.28045-1.69642.50227-3.65841l.40357-3.56725h-3.10174c-1.706 0-3.41027.30852-3.78735.68557-.37867.3787-.68561 2.19833-.68561 4.06504v3.37945l3.28509-.4066c1.80677-.22375 3.32946-.44765 3.38377-.4978zm-1.95549-12.16289 2.14243-.3541v-4.24017-4.23997l-2.9994.17273-2.99939.17272-.16706 4.42769c-.18519 4.91589-.32088 4.77902 4.02324 4.06098z" fill="#df4a4a" stroke-width=".571313"/></g></svg>