<svg height="92" width="92" xmlns="http://www.w3.org/2000/svg"><g><circle cx="46" cy="45.999999" fill="#ffe6d5" r="40.79224" stroke="#df4a4a" stroke-linecap="round" stroke-miterlimit="10" stroke-width="3"/><path d="m21.750935 67.366291c-.18894-.19049 1.77018-1.99034 4.35337-3.9992 2.5832-2.00889 5.09589-3.97685 5.58377-4.37329.7249-.58904-.18376-.69347-4.97018-.57131l-5.85723.14929.00075-2.67262.002-2.67265 3.28507-.3583c1.80678-.19692 3.79925-.40827 4.4277-.46961 1.08462-.10583 1.15062-.58787 1.30009-9.49584l.15742-9.38443-1.82294-1.8808c-1.34123-1.38401-1.60918-1.95322-1.01423-2.15498 2.37737-.80625 14.97371-4.58656 21.94717-6.58662l7.99842-2.29399 2.52197 2.51805 2.52193 2.51807-11.23454 3.59679c-10.44064 3.34265-11.23449 3.6928-11.23449 4.95541v1.35863l13.99725-.41852 13.99722-.41851v2.64601 2.64599h-3.0723c-1.76085 0-3.32523.30485-3.6649.71414-.4893.58958-2.97517 9.26163-2.97517 10.37889 0 .18331 2.95654.33336 6.57015.33336h6.5701v3.12223 3.12227l-5.83087.16289-5.8309.1629 5.40242 3.96937c2.97131 2.18313 5.53092 4.07214 5.68804 4.19777-6.583998 7.61203-6.166539 6.21402-14.03263.2981l-7.32186-5.50655 1.9431-1.62217 1.94309-1.62218h-7.29638c-7.67949 0-8.27169.28725-4.53929 2.20215l2.04431 1.04878-7.08034 5.51501c-8.080864 6.80403-7.504191 5.94052-14.47709.88547zm26.45438-16.36426c.69672-1.31309 2.0505-9.79004 1.63056-10.21001-.17915-.17922-2.52933-.1423-5.22255.082l-4.89676.40789v5.35993 5.35992h3.97913c3.20662 0 4.08208-.19426 4.50962-.99979z" fill="#df4a4a" stroke-width=".571313"/></g></svg>