<svg height="92" width="92" xmlns="http://www.w3.org/2000/svg"><g><circle cx="46" cy="45.999999" fill="#ffe6d5" r="40.79224" stroke="#df4a4a" stroke-linecap="round" stroke-miterlimit="10" stroke-width="3"/><path d="m20.29128 49.14223v-21.42433h3.71355 3.71355v-3.14222-3.14223h4.34844 4.34845l-.37969 2.14243c-.20882 1.17834-.50109 2.55832-.64944 3.06671-.21396.73311.32186 1.00271 2.59108 1.30374 1.9626.26041 3.04343.72072 3.44243 1.46627.3199.5977.58161 4.70298.58161 9.12276v8.03596h-3.99921c-3.17398 0-3.9992-.17688-3.9992-.85697 0-.64751-.69827-.85697-2.85658-.85697h-2.85658v2.35348 2.35351l6.01548-.41001c4.46123-.30387 6.23619-.22677 6.86961.29896.46976.38986.95953.60341 1.0884.47456.12892-.12888.4177-4.40753.64186-9.50812l.40754-9.27383h3.6292c2.19596 0 3.62922.24151 3.62922.61104 0 .336.57847.52891 1.28547.42852 1.2046-.17121 1.29577-.49274 1.44954-5.11446l.16411-4.93183 1.76411-.353c.97026-.19427 2.49283-.35263 3.38352-.35263h1.61943l.16607 4.71337.16603 4.71334 3.73059-.19352c4.4876-.23282 6.04935.72272 6.85332 4.19267.29121 1.25688.5356 7.72978.54311 14.38421l.0129 12.09902-1.50533 1.18409c-1.04785.8242-2.33845 1.18409-4.24638 1.18409-2.94113 0-2.93106.0113-3.675-3.99924-.20406-1.09976-.49766-2.44951-.65248-2.99939-.20644-.73342.0519-.9998.96909-.9998 1.2429 0 1.24914-.0544 1.01327-8.83279-.13062-4.85802-.38206-8.97756-.55899-9.15451-.17684-.17689-.74414-.1595-1.26046.0385-.84026.32239-.93873 2.06162-.93873 16.58158v16.22136h-3.99918-3.99921v-16.03873c0-14.96663-.0669-16.026-.99979-15.84828-.83662.15949-1.05931 1.07543-1.36435 5.61226-.20039 2.98197-.39332 8.5711-.42847 12.42036l-.0639 6.99863h-3.14224c-3.44153 0-3.42376-.0227-3.17297 4.14202l.12892 2.14242h-4.55302c-4.07256 0-4.58457-.12056-4.85183-1.14262-.24949-.95399-.77929-1.14263-3.20888-1.14263-2.72318 0-2.91007.0918-2.91007 1.42828 0 1.38751-.11422 1.42829-3.9992 1.42829h-3.9992zm13.71157 9.42671v-3.42788h-2.85658-2.85658v3.42788 3.42792h2.85658 2.85658zm-.57133-21.99564v-3.71354h-2.57091-2.57092v3.71354 3.71354h2.57092 2.57091z" fill="#df4a4a" stroke-width=".571313"/></g></svg>