<svg enable-background="new 0 0 590 595" height="4.263292cm" viewBox="-8.392 -8.392 167.847 167.847" width="4.263292cm" xmlns="http://www.w3.org/2000/svg"><circle cx="75.53074" cy="75.53077" fill="#b3b3b3" r="73.805771" stroke="#1a1a1a" stroke-linecap="round" stroke-miterlimit="10" stroke-width="3.45"/><g transform="translate(-293.847213 -160.928822)"><path d="m363.70732 211.82538 5.8 5.8 5.1-5.9v-9.3h6.2v-10.7h-6.2v-7.5h-5.5-.1-5.5v7.5h-6.2v10.7h6.2v9.4z" fill="#f2f2f2" stroke="#1a1a1a" stroke-miterlimit="10" stroke-width="3"/><path d="m343.8 274.8h-35.6v-10.7h5.1 61.1 5.1v10.7h-35.6z" fill="#f2f2f2" stroke="#1a1a1a" stroke-miterlimit="10" stroke-width="3" transform="translate(25.607323 7.425387)"/><g fill="#1a1a1a"><path d="m404.91525 271.42143 6.72937-13.15645c.58011-1.09638 1.16024-2.29243 1.74035-3.38879l.81217-1.79406c.46409-.99671.81216-2.09308 1.16024-3.08978 6.96141-20.03369.11602-39.46937-15.1991-43.45616-8.00563-2.09308-16.82343.49834-24.36496 6.17955l-5.9172 5.88052-6.8454-5.88052c-7.54153-5.68121-16.35933-8.27263-24.36496-6.17955-15.43113 3.98679-22.27653 23.42247-15.19909 43.45616.34807 1.09638.81216 2.09307 1.16024 3.08978l.81216 1.79406c.58012 1.19604 1.16024 2.29241 1.74036 3.38879l6.72936 13.15645z" stroke="#1a1a1a" stroke-miterlimit="10" stroke-width="3.22609"/><path d="m396.90961 274.21219 5.22108-10.16635c.46409-.89703.92818-1.79406 1.39228-2.69109l.58011-1.39539c.34808-.79736.69614-1.59472.92819-2.39208 5.45312-15.44887.11602-30.49905-11.83441-33.58883-6.14925-1.59472-12.99464.39868-18.79583 4.78417l-4.64094 4.58483-5.33707-4.58483c-5.80119-4.38549-12.64659-6.37889-18.79584-4.78417-11.95044 3.08978-17.17149 18.13996-11.83441 33.58883.23205.79736.58012 1.59472.92819 2.39208l.58012 1.39539c.46409.89703.92818 1.79406 1.39228 2.69109l5.22107 10.16635z" stroke="#f2f2f2" stroke-miterlimit="10" stroke-width="3.22609"/><path d="m53.240402 444.45612h5.299949v5.299949h-5.299949z" transform="matrix(.70710678 -.70710678 .70710678 .70710678 0 0)"/><path d="m62.907513 454.19199h5.299949v5.299949h-5.299949z" transform="matrix(.70710678 -.70710678 .70710678 .70710678 0 0)"/><path d="m72.67099 463.93259h5.299949v5.299949h-5.299949z" transform="matrix(.70710678 -.70710678 .70710678 .70710678 0 0)"/></g></g></svg>