<?xml version="1.0" encoding="UTF-8" standalone="no"?>
<!-- Generator: Adobe Illustrator 18.0.0, SVG Export Plug-In . SVG Version: 6.00 Build 0)  -->

<svg
   xmlns:dc="http://purl.org/dc/elements/1.1/"
   xmlns:cc="http://creativecommons.org/ns#"
   xmlns:rdf="http://www.w3.org/1999/02/22-rdf-syntax-ns#"
   xmlns:svg="http://www.w3.org/2000/svg"
   xmlns="http://www.w3.org/2000/svg"
   xmlns:sodipodi="http://sodipodi.sourceforge.net/DTD/sodipodi-0.dtd"
   xmlns:inkscape="http://www.inkscape.org/namespaces/inkscape"
   version="1.1"
   id="Ebene_1"
   x="0px"
   y="0px"
   viewBox="0 0 151.06153 151.06154"
   enable-background="new 0 0 590 595"
   xml:space="preserve"
   inkscape:version="0.91 r13725"
   sodipodi:docname="black_king.svg"
   width="4.2632923cm"
   height="4.2632923cm"><metadata
     id="metadata223"><rdf:RDF><cc:Work
         rdf:about=""><dc:format>image/svg+xml</dc:format><dc:type
           rdf:resource="http://purl.org/dc/dcmitype/StillImage" /><dc:date>2015-05-20</dc:date><dc:creator><cc:Agent><dc:title>Jasmin Scharrer (original artwork, http://jasminscharrer.com/), Sebastian Pipping (post-processing, https://blog.hartwork.org/)</dc:title></cc:Agent></dc:creator><dc:subject><rdf:Bag><rdf:li>Chinese chess</rdf:li><rdf:li>Xiangqi</rdf:li><rdf:li>chess</rdf:li><rdf:li>board game</rdf:li><rdf:li>game</rdf:li></rdf:Bag></dc:subject><cc:license
           rdf:resource="http://creativecommons.org/licenses/by/4.0/" /><dc:title></dc:title></cc:Work></rdf:RDF></metadata><defs
     id="defs221" /><sodipodi:namedview
     pagecolor="#ffffff"
     bordercolor="#666666"
     borderopacity="1"
     objecttolerance="10"
     gridtolerance="10"
     guidetolerance="10"
     inkscape:pageopacity="0"
     inkscape:pageshadow="2"
     inkscape:window-width="1920"
     inkscape:window-height="1023"
     id="namedview219"
     showgrid="false"
     inkscape:zoom="5.4944495"
     inkscape:cx="75.530769"
     inkscape:cy="75.530769"
     inkscape:window-x="0"
     inkscape:window-y="0"
     inkscape:window-maximized="1"
     inkscape:current-layer="Ebene_1"
     inkscape:snap-bbox="false"
     fit-margin-top="0"
     fit-margin-left="0"
     fit-margin-right="0"
     fit-margin-bottom="0"
     units="cm"
     showguides="true" /><g
     id="black_king"
     transform="translate(-409.52801,-134.16509)"><circle
       r="73.805771"
       cy="209.69586"
       cx="485.05875"
       id="path4358"
       style="color:#000000;display:inline;overflow:visible;visibility:visible;opacity:1;fill:#000000;fill-opacity:1;fill-rule:nonzero;stroke:#000000;stroke-width:3.45000005;stroke-linecap:round;stroke-linejoin:miter;stroke-miterlimit:10;stroke-dasharray:none;stroke-dashoffset:0;stroke-opacity:1;marker:none;enable-background:accumulate" /><g
       transform="translate(-24.070133,-16.154256)"
       id="g4807"><path
         style="stroke:#ffffff;stroke-width:3;stroke-miterlimit:10;stroke-dasharray:none;stroke-opacity:1"
         d="m 501.96226,172.10212 0,7.5 -6.73687,0 0,13.69922 6.73687,0 0,24.3096 c 6.99797,0 7.23674,0.0202 14.09961,0.0202 l 0,-24.32981 6.38039,0 0,-13.69922 -6.48,0 0,-7.5 z"
         id="path7"
         inkscape:connector-curvature="0"
         sodipodi:nodetypes="ccccccccccccc" /><g
         id="g203"
         transform="translate(36.95825,0.73587757)"><path
           stroke-miterlimit="10"
           d="m 507.77382,260.07597 6.73049,-13.1564 c 0.58021,-1.09637 1.16042,-2.29241 1.74063,-3.38878 l 0.81231,-1.79406 c 0.46416,-0.99669 0.81229,-2.09306 1.16043,-3.08975 6.96256,-20.03362 0.11604,-39.46923 -15.20162,-43.45601 -8.00695,-2.09307 -16.82621,0.49835 -24.36899,6.17952 l -5.91819,5.88052 -6.84653,-5.88052 c -7.54279,-5.68117 -16.36204,-8.27259 -24.369,-6.17952 -15.4337,3.98678 -22.28023,23.42239 -15.20161,43.45601 0.34813,1.09636 0.8123,2.09306 1.16043,3.08975 l 0.81229,1.79406 c 0.58022,1.19604 1.16044,2.29241 1.74065,3.38878 l 6.73048,13.1564 71.01823,0 z"
           id="path205"
           inkscape:connector-curvature="0"
           style="fill:#ffffff;stroke:#000000;stroke-width:3.2263546;stroke-miterlimit:10" /><path
           stroke-miterlimit="10"
           d="m 499.76686,262.86672 5.22193,-10.16631 c 0.46417,-0.89703 0.92834,-1.79405 1.39251,-2.69109 l 0.58021,-1.39537 c 0.34814,-0.79736 0.69627,-1.59471 0.92835,-2.39207 5.45402,-15.44881 0.11604,-30.49895 -11.83637,-33.5887 -6.15027,-1.59472 -12.9968,0.39868 -18.79894,4.78414 l -4.64172,4.58481 -5.33797,-4.58481 c -5.80214,-4.38546 -12.64867,-6.37886 -18.79893,-4.78414 -11.95242,3.08975 -17.17435,18.13989 -11.83638,33.5887 0.23209,0.79736 0.58021,1.59471 0.92835,2.39207 l 0.58021,1.39537 c 0.46417,0.89704 0.92834,1.79406 1.39252,2.69109 l 5.22193,10.16631 55.0043,0 z"
           id="path207"
           inkscape:connector-curvature="0"
           style="fill:#ffffff;stroke:#000000;stroke-width:3.2263546;stroke-miterlimit:10" /><polygon
           stroke-miterlimit="10"
           points="508,264.1 508,274.8 472.3,274.8 472.2,274.8 436.6,274.8 436.6,264.1 441.7,264.1 502.8,264.1 "
           id="polygon211"
           style="fill:#ffffff;stroke:#000000;stroke-width:3;stroke-miterlimit:10"
           transform="translate(0,-3.9199524)" /><rect
           x="133.94241"
           y="509.12762"
           transform="matrix(0.70710678,-0.70710678,0.70710678,0.70710678,0,0)"
           width="5.2999492"
           height="5.2999492"
           id="rect213" /><rect
           x="143.61272"
           y="518.85803"
           transform="matrix(0.70710678,-0.70710678,0.70710678,0.70710678,0,0)"
           width="5.2999492"
           height="5.2999492"
           id="rect215" /><rect
           x="153.37994"
           y="528.59393"
           transform="matrix(0.70710678,-0.70710678,0.70710678,0.70710678,0,0)"
           width="5.2999492"
           height="5.2999492"
           id="rect217" /></g></g></g></svg>