<?xml version="1.0" encoding="UTF-8" standalone="no"?>
<!-- Generator: Adobe Illustrator 18.0.0, SVG Export Plug-In . SVG Version: 6.00 Build 0)  -->

<svg
   xmlns:dc="http://purl.org/dc/elements/1.1/"
   xmlns:cc="http://creativecommons.org/ns#"
   xmlns:rdf="http://www.w3.org/1999/02/22-rdf-syntax-ns#"
   xmlns:svg="http://www.w3.org/2000/svg"
   xmlns="http://www.w3.org/2000/svg"
   xmlns:sodipodi="http://sodipodi.sourceforge.net/DTD/sodipodi-0.dtd"
   xmlns:inkscape="http://www.inkscape.org/namespaces/inkscape"
   version="1.1"
   id="Ebene_1"
   x="0px"
   y="0px"
   viewBox="0 0 151.06153 151.06154"
   enable-background="new 0 0 590 595"
   xml:space="preserve"
   inkscape:version="0.91 r13725"
   sodipodi:docname="black_horse.svg"
   width="4.2632923cm"
   height="4.2632923cm"><metadata
     id="metadata223"><rdf:RDF><cc:Work
         rdf:about=""><dc:format>image/svg+xml</dc:format><dc:type
           rdf:resource="http://purl.org/dc/dcmitype/StillImage" /><dc:date>2015-05-20</dc:date><dc:creator><cc:Agent><dc:title>Jasmin Scharrer (original artwork, http://jasminscharrer.com/), Sebastian Pipping (post-processing, https://blog.hartwork.org/)</dc:title></cc:Agent></dc:creator><dc:subject><rdf:Bag><rdf:li>Chinese chess</rdf:li><rdf:li>Xiangqi</rdf:li><rdf:li>chess</rdf:li><rdf:li>board game</rdf:li><rdf:li>game</rdf:li></rdf:Bag></dc:subject><cc:license
           rdf:resource="http://creativecommons.org/licenses/by/4.0/" /><dc:title></dc:title></cc:Work></rdf:RDF></metadata><defs
     id="defs221" /><sodipodi:namedview
     pagecolor="#ffffff"
     bordercolor="#666666"
     borderopacity="1"
     objecttolerance="10"
     gridtolerance="10"
     guidetolerance="10"
     inkscape:pageopacity="0"
     inkscape:pageshadow="2"
     inkscape:window-width="1920"
     inkscape:window-height="1023"
     id="namedview219"
     showgrid="false"
     inkscape:zoom="5.4944495"
     inkscape:cx="75.530769"
     inkscape:cy="75.530769"
     inkscape:window-x="0"
     inkscape:window-y="0"
     inkscape:window-maximized="1"
     inkscape:current-layer="Ebene_1"
     inkscape:snap-bbox="false"
     fit-margin-top="0"
     fit-margin-left="0"
     fit-margin-right="0"
     fit-margin-bottom="0"
     units="cm"
     showguides="true" /><g
     id="black_horse"
     transform="translate(-154.01157,-7.5544189)"><circle
       style="color:#000000;display:inline;overflow:visible;visibility:visible;opacity:1;fill:#000000;fill-opacity:1;fill-rule:nonzero;stroke:#000000;stroke-width:3.45000005;stroke-linecap:round;stroke-linejoin:miter;stroke-miterlimit:10;stroke-dasharray:none;stroke-dashoffset:0;stroke-opacity:1;marker:none;enable-background:accumulate"
       id="circle4364"
       cx="229.54231"
       cy="83.08519"
       r="73.805771" /><g
       transform="translate(-0.26573963,-6.4568462)"
       id="g4681"><g
         id="g109"
         transform="translate(5.942307,-25.3648)"><path
           inkscape:connector-curvature="0"
           id="path111"
           d="m 218.9,66.4 -8.4,2.4 5.1,17.4 -10,-14.5 -7.2,5 11.1,16.1 1.3,-1.2 c 1.3,-1.3 2.8,-2.5 4.3,-3.6 l 1.2,-0.9 -0.2,-0.3 1.5,-0.9 c 1.6,-1 3.3,-1.8 5,-2.6 l 1.2,-0.5 -4.9,-16.4 z" /><path
           inkscape:connector-curvature="0"
           id="path113"
           d="m 189.2,86.9 14.7,14 1,-1.6 c 0.9,-1.6 2,-3.1 3.2,-4.6 l 0.9,-1.1 -13.7,-13 -6.1,6.3 z" /><path
           inkscape:connector-curvature="0"
           id="path115"
           d="m 181.9,99.4 17.9,9.7 -19.1,-2.5 -1.1,8.7 19.6,2.5 0.2,-1.5 c 0.3,-1.9 0.7,-3.8 1.1,-5.5 l 0.4,-1.6 -0.2,0 0.4,-1.4 c 0.6,-1.8 1.3,-3.5 2,-5.2 l 0.6,-1.3 -17.8,-9.6 -4,7.7 z" /><polygon
           id="polygon117"
           points="199.3,119.1 179,119.1 179,127.8 198.4,127.8 " /><polygon
           id="polygon119"
           points="198.4,130.1 179.3,130.1 179.3,138.8 197.5,138.8 " /><polygon
           id="polygon121"
           points="198.1,140.9 179,140.9 179,149.6 197.2,149.6 " /></g><g
         transform="translate(5.942307,-25.3648)"
         id="g4639"
         style="stroke:#ffffff;stroke-width:1.5;stroke-miterlimit:4;stroke-dasharray:none;stroke-opacity:1"><path
           d="m 218.9,66.4 -8.4,2.4 5.1,17.4 -10,-14.5 -7.2,5 11.1,16.1 1.3,-1.2 c 1.3,-1.3 2.8,-2.5 4.3,-3.6 l 1.2,-0.9 -0.2,-0.3 1.5,-0.9 c 1.6,-1 3.3,-1.8 5,-2.6 l 1.2,-0.5 -4.9,-16.4 z"
           id="path4641"
           inkscape:connector-curvature="0"
           style="stroke:#ffffff;stroke-width:1.5;stroke-miterlimit:4;stroke-dasharray:none;stroke-opacity:1" /><path
           d="m 189.2,86.9 14.7,14 1,-1.6 c 0.9,-1.6 2,-3.1 3.2,-4.6 l 0.9,-1.1 -13.7,-13 -6.1,6.3 z"
           id="path4643"
           inkscape:connector-curvature="0"
           style="stroke:#ffffff;stroke-width:1.5;stroke-miterlimit:4;stroke-dasharray:none;stroke-opacity:1" /><path
           d="m 181.9,99.4 17.9,9.7 -19.1,-2.5 -1.1,8.7 19.6,2.5 0.2,-1.5 c 0.3,-1.9 0.7,-3.8 1.1,-5.5 l 0.4,-1.6 -0.2,0 0.4,-1.4 c 0.6,-1.8 1.3,-3.5 2,-5.2 l 0.6,-1.3 -17.8,-9.6 -4,7.7 z"
           id="path4645"
           inkscape:connector-curvature="0"
           style="stroke:#ffffff;stroke-width:1.5;stroke-miterlimit:4;stroke-dasharray:none;stroke-opacity:1" /><polygon
           points="199.3,119.1 179,119.1 179,127.8 198.4,127.8 "
           id="polygon4647"
           style="stroke:#ffffff;stroke-width:1.5;stroke-miterlimit:4;stroke-dasharray:none;stroke-opacity:1" /><polygon
           points="198.4,130.1 179.3,130.1 179.3,138.8 197.5,138.8 "
           id="polygon4649"
           style="stroke:#ffffff;stroke-width:1.5;stroke-miterlimit:4;stroke-dasharray:none;stroke-opacity:1" /><polygon
           points="198.1,140.9 179,140.9 179,149.6 197.2,149.6 "
           id="polygon4651"
           style="stroke:#ffffff;stroke-width:1.5;stroke-miterlimit:4;stroke-dasharray:none;stroke-opacity:1" /></g><path
         d="m 250.04231,56.9352 -3,-18.5 -6.5,14.5 c 0,0 -32,2.5 -36.5,38 l -0.2,0.2 -2.3,40.1 45.9,0 0,-8.9 c 0,0 -15.3,-19.3 -15.3,-35.8 0,0 4.5,7.5 14.8,7.3 0,0 4.7,15.9 18.5,10 6.7,-2.8 7,-8.5 7,-8.5 l -22.4,-38.4 z"
         id="path105"
         inkscape:connector-curvature="0"
         style="fill:#ffffff" /><path
         style="fill:#000000"
         d="m 249.04231,132.8352 -49,0 2.4,-42.1 0.2,-0.3 c 4.3,-32.6 31.6,-38.1 36.9,-38.8 l 8.2,-18.3 3.8,23.2 22.6,38.7 0,0.5 c 0,0.3 -0.5,6.6 -7.9,9.8 -2.2,0.9 -4.4,1.4 -6.4,1.4 0,0 0,0 0,0 -8.6,0 -12.6,-8.3 -13.7,-11.3 -5.6,-0.1 -9.4,-2.4 -11.9,-4.5 2.2,14.7 14.5,30.4 14.6,30.5 l 0.3,0.4 0,10.8 z m -45.9,-3 42.8,0 0,-6.8 c -2.3,-3 -15.3,-20.6 -15.3,-36.3 l 0,-5.4 2.8,4.6 c 0.2,0.3 4.3,6.7 13.4,6.5 l 1.1,0 0.3,1.1 c 0,0.1 3.2,10.2 11.2,10.2 0,0 0,0 0,0 1.6,0 3.4,-0.4 5.2,-1.2 4.8,-2 5.8,-5.6 6,-6.8 l -22.4,-38.3 -1.9,-13.8 -4.8,10.7 -0.9,0.1 c -1.3,0.1 -30.8,2.9 -35.1,36.7 l 0,0.4 -0.1,0.2 -2.3,38.1 z"
         id="path107"
         inkscape:connector-curvature="0" /><path
         style="fill:#ffffff;stroke:#000000;stroke-width:2;stroke-miterlimit:4;stroke-dasharray:none;stroke-opacity:1"
         inkscape:connector-curvature="0"
         id="path4677"
         d="m 250.042,56.9352 -3,-18.5 -6.5,14.5 c 0,0 -32,2.5 -36.5,38 l -0.2,0.2 -2.3,40.1 45.9,0 0,-8.9 c 0,0 -15.3,-19.3 -15.3,-35.8 0,0 4.5,7.5 14.8,7.3 0,0 4.7,15.9 18.5,10 6.7,-2.8 7,-8.5 7,-8.5 l -22.4,-38.4 z" /><path
         inkscape:connector-curvature="0"
         id="path123"
         d="m 266.74231,91.1352 c -0.74957,0.39932 -1.06904,1.3214 -0.9742,2.1307 0.13043,1.3488 1.05895,2.6594 2.39169,3.03607 0.50195,0.12673 1.06932,0.0704 1.49773,-0.23595 0.35642,-0.1227 -0.0893,-0.48047 -0.17153,-0.68241 -0.91455,-1.41614 -1.82926,-2.83223 -2.74369,-4.24841 z"
         style="fill:#000000;stroke:#000000;stroke-width:1;stroke-miterlimit:10;stroke-dasharray:none" /><circle
         id="circle125"
         r="3.8"
         cy="70.735199"
         cx="248.74231" /></g></g></svg>