<?xml version="1.0" encoding="UTF-8" standalone="no"?>
<!-- Generator: Adobe Illustrator 18.0.0, SVG Export Plug-In . SVG Version: 6.00 Build 0)  -->

<svg
   version="1.1"
   id="Ebene_1"
   x="0px"
   y="0px"
   viewBox="0 0 151.06153 151.06154"
   enable-background="new 0 0 590 595"
   xml:space="preserve"
   inkscape:version="1.2.2 (b0a8486541, 2022-12-01)"
   sodipodi:docname="black_horse.svg"
   width="4.2632923cm"
   height="4.2632923cm"
   xmlns:inkscape="http://www.inkscape.org/namespaces/inkscape"
   xmlns:sodipodi="http://sodipodi.sourceforge.net/DTD/sodipodi-0.dtd"
   xmlns="http://www.w3.org/2000/svg"
   xmlns:svg="http://www.w3.org/2000/svg"
   xmlns:rdf="http://www.w3.org/1999/02/22-rdf-syntax-ns#"
   xmlns:cc="http://creativecommons.org/ns#"
   xmlns:dc="http://purl.org/dc/elements/1.1/"><metadata
     id="metadata223"><rdf:RDF><cc:Work
         rdf:about=""><dc:format>image/svg+xml</dc:format><dc:type
           rdf:resource="http://purl.org/dc/dcmitype/StillImage" /><dc:date>2015-05-20, 2023-03-16</dc:date><dc:creator><cc:Agent><dc:title>Jasmin Scharrer (original artwork, http://jasminscharrer.com/), Sebastian Pipping (post-processing, https://blog.hartwork.org/)</dc:title></cc:Agent></dc:creator><dc:subject><rdf:Bag><rdf:li>Chinese chess</rdf:li><rdf:li>Xiangqi</rdf:li><rdf:li>chess</rdf:li><rdf:li>board game</rdf:li><rdf:li>game</rdf:li></rdf:Bag></dc:subject><cc:license
           rdf:resource="http://creativecommons.org/licenses/by/4.0/" /><dc:title /></cc:Work></rdf:RDF></metadata><defs
     id="defs221" /><sodipodi:namedview
     pagecolor="#ffffff"
     bordercolor="#666666"
     borderopacity="1"
     objecttolerance="10"
     gridtolerance="10"
     guidetolerance="10"
     inkscape:pageopacity="0"
     inkscape:pageshadow="2"
     inkscape:window-width="1920"
     inkscape:window-height="1022"
     id="namedview219"
     showgrid="false"
     inkscape:zoom="5.1262218"
     inkscape:cx="80.46862"
     inkscape:cy="80.566158"
     inkscape:window-x="0"
     inkscape:window-y="0"
     inkscape:window-maximized="1"
     inkscape:current-layer="Ebene_1"
     inkscape:snap-bbox="false"
     fit-margin-top="0"
     fit-margin-left="0"
     fit-margin-right="0"
     fit-margin-bottom="0"
     units="cm"
     showguides="true"
     inkscape:showpageshadow="2"
     inkscape:pagecheckerboard="0"
     inkscape:deskcolor="#d1d1d1"
     inkscape:document-units="cm" /><g
     id="black_horse"
     transform="translate(-14.218329,-7.5544189)"><circle
       r="73.805771"
       cy="83.08519"
       cx="89.749069"
       id="circle4372"
       style="color:#000000;display:inline;overflow:visible;visibility:visible;opacity:1;fill:#b3b3b3;fill-opacity:1;fill-rule:nonzero;stroke:#1a1a1a;stroke-width:3.45000005;stroke-linecap:round;stroke-linejoin:miter;stroke-miterlimit:10;stroke-dasharray:none;stroke-dashoffset:0;stroke-opacity:1;marker:none;enable-background:accumulate" /><g
       transform="translate(-2.3937922,-30.364035)"
       id="g75"><path
         style="stroke:#1a1a1a;stroke-width:3;stroke-miterlimit:10;stroke-opacity:1;fill:#1a1a1a;fill-opacity:1"
         inkscape:connector-curvature="0"
         id="path77"
         d="m 112.6,82.3 -3,-18.5 -6.5,14.5 c 0,0 -32,2.5 -36.5,38 l -0.2,0.2 -2.3,40.1 45.9,0 0,-8.9 c 0,0 -15.2,-19.3 -15.2,-35.8 0,0 4.5,7.5 14.7,7.3 0,0 4.7,15.9 18.5,10 6.7,-2.8 7,-8.5 7,-8.5 L 112.6,82.3 Z"
         stroke-miterlimit="10" /><path
         style="fill:#f2f2f2;stroke:#1a1a1a;stroke-width:3;stroke-miterlimit:10;fill-opacity:1;stroke-opacity:1"
         inkscape:connector-curvature="0"
         id="path79"
         d="m 86.4,68.2 -5.5,1.6 4.3,14.8 c 1.8,-1.1 3.5,-1.9 5.2,-2.7 l -4,-13.7 z"
         stroke-miterlimit="10" /><path
         style="fill:#f2f2f2;stroke:#1a1a1a;stroke-width:3;stroke-miterlimit:10;fill-opacity:1;stroke-opacity:1"
         inkscape:connector-curvature="0"
         id="path81"
         d="m 73.7,73.8 -4.7,3.3 9.2,13.4 c 1.4,-1.4 2.9,-2.6 4.4,-3.7 l -8.9,-13 z"
         stroke-miterlimit="10" /><path
         style="fill:#f2f2f2;stroke:#1a1a1a;stroke-width:3;stroke-miterlimit:10;fill-opacity:1;stroke-opacity:1"
         inkscape:connector-curvature="0"
         id="path83"
         d="m 63.8,82.7 -4,4.2 12.3,11.6 c 1,-1.7 2.2,-3.3 3.3,-4.8 l -11.6,-11 z"
         stroke-miterlimit="10" /><path
         style="fill:#f2f2f2;stroke:#1a1a1a;stroke-width:3;stroke-miterlimit:10;fill-opacity:1;stroke-opacity:1"
         inkscape:connector-curvature="0"
         id="path85"
         d="m 55.2,93.7 -2.7,5.1 15.8,8.5 c 0.6,-1.9 1.3,-3.7 2.1,-5.4 L 55.2,93.7 Z"
         stroke-miterlimit="10" /><path
         style="fill:#f2f2f2;stroke:#1a1a1a;stroke-width:3;stroke-miterlimit:10;fill-opacity:1;stroke-opacity:1"
         inkscape:connector-curvature="0"
         id="path87"
         d="m 50.6,108.3 -0.7,5.7 16.6,2.1 c 0.3,-2 0.7,-3.9 1.1,-5.7 l -17,-2.1 z"
         stroke-miterlimit="10" /><polygon
         style="fill:#f2f2f2;stroke:#1a1a1a;stroke-width:3;stroke-miterlimit:10;fill-opacity:1;stroke-opacity:1"
         id="polygon89"
         points="66.2,120.6 49.1,120.6 49.1,126.3 65.6,126.3 "
         stroke-miterlimit="10" /><polygon
         style="fill:#f2f2f2;stroke:#1a1a1a;stroke-width:3;stroke-miterlimit:10;fill-opacity:1;stroke-opacity:1"
         id="polygon91"
         points="64.8,131.6 48.8,131.6 48.8,137.3 64.2,137.3 "
         stroke-miterlimit="10" /><polygon
         style="fill:#f2f2f2;stroke:#1a1a1a;stroke-width:3;stroke-miterlimit:10;fill-opacity:1;stroke-opacity:1"
         id="polygon93"
         points="65,142.4 49.1,142.4 49.1,148.1 64.4,148.1 "
         stroke-miterlimit="10" /><path
         style="fill:#f2f2f2;stroke:#f2f2f2;stroke-width:0.5;stroke-miterlimit:10;fill-opacity:1;stroke-opacity:1"
         inkscape:connector-curvature="0"
         id="path95"
         d="m 129.4,116.5 c 0,0 0,0 0,0 -1.1,0.6 -1.3,2.2 -0.5,3.6 0.8,1.4 2.3,2 3.3,1.4 0.1,-0.1 0.2,-0.2 0.3,-0.2 l -3.1,-4.8 z"
         stroke-miterlimit="10" /><circle
         style="fill:#f2f2f2;stroke:#1a1a1a;stroke-width:1.5;stroke-miterlimit:10;fill-opacity:1;stroke-opacity:1"
         id="circle97"
         r="3.8"
         cy="96.099998"
         cx="111.3"
         stroke-miterlimit="10" /></g></g></svg>
