<?xml version="1.0" encoding="UTF-8" standalone="no"?>
<!-- Generator: Adobe Illustrator 18.0.0, SVG Export Plug-In . SVG Version: 6.00 Build 0)  -->

<svg
   xmlns:dc="http://purl.org/dc/elements/1.1/"
   xmlns:cc="http://creativecommons.org/ns#"
   xmlns:rdf="http://www.w3.org/1999/02/22-rdf-syntax-ns#"
   xmlns:svg="http://www.w3.org/2000/svg"
   xmlns="http://www.w3.org/2000/svg"
   xmlns:sodipodi="http://sodipodi.sourceforge.net/DTD/sodipodi-0.dtd"
   xmlns:inkscape="http://www.inkscape.org/namespaces/inkscape"
   version="1.1"
   id="Ebene_1"
   x="0px"
   y="0px"
   viewBox="0 0 151.06153 151.06154"
   enable-background="new 0 0 590 595"
   xml:space="preserve"
   inkscape:version="0.91 r13725"
   sodipodi:docname="red_chariot.svg"
   width="4.2632923cm"
   height="4.2632923cm"><metadata
     id="metadata223"><rdf:RDF><cc:Work
         rdf:about=""><dc:format>image/svg+xml</dc:format><dc:type
           rdf:resource="http://purl.org/dc/dcmitype/StillImage" /><dc:date>2015-05-20</dc:date><dc:creator><cc:Agent><dc:title>Jasmin Scharrer (original artwork, http://jasminscharrer.com/), Sebastian Pipping (post-processing, https://blog.hartwork.org/)</dc:title></cc:Agent></dc:creator><dc:subject><rdf:Bag><rdf:li>Chinese chess</rdf:li><rdf:li>Xiangqi</rdf:li><rdf:li>chess</rdf:li><rdf:li>board game</rdf:li><rdf:li>game</rdf:li></rdf:Bag></dc:subject><cc:license
           rdf:resource="http://creativecommons.org/licenses/by/4.0/" /><dc:title></dc:title></cc:Work></rdf:RDF></metadata><defs
     id="defs221" /><sodipodi:namedview
     pagecolor="#ffffff"
     bordercolor="#666666"
     borderopacity="1"
     objecttolerance="10"
     gridtolerance="10"
     guidetolerance="10"
     inkscape:pageopacity="0"
     inkscape:pageshadow="2"
     inkscape:window-width="1920"
     inkscape:window-height="1023"
     id="namedview219"
     showgrid="false"
     inkscape:zoom="5.4944495"
     inkscape:cx="75.530769"
     inkscape:cy="75.530769"
     inkscape:window-x="0"
     inkscape:window-y="0"
     inkscape:window-maximized="1"
     inkscape:current-layer="Ebene_1"
     inkscape:snap-bbox="false"
     fit-margin-top="0"
     fit-margin-left="0"
     fit-margin-right="0"
     fit-margin-bottom="0"
     units="cm"
     showguides="true" /><g
     id="red_chariot"
     transform="translate(-14.218329,-439.60522)"><circle
       style="color:#000000;display:inline;overflow:visible;visibility:visible;opacity:1;fill:#ffffff;fill-opacity:1;fill-rule:nonzero;stroke:#000000;stroke-width:3.45000005;stroke-linecap:round;stroke-linejoin:miter;stroke-miterlimit:10;stroke-dasharray:none;stroke-dashoffset:0;stroke-opacity:1;marker:none;enable-background:accumulate"
       id="circle4378"
       cx="89.749069"
       cy="515.13599"
       r="73.805771" /><g
       id="g3578"><polygon
         style="stroke:#000000;stroke-width:3;stroke-miterlimit:10"
         id="polygon175"
         points="81.5,449.1 81.5,449.1 76.7,449.1 76.7,441 65.7,441 65.7,449.1 56.8,449.1 56.8,441 46.1,441 46.1,461.8 46.1,461.8 53.2,475.9 53.2,523.7 46.1,523.7 46.1,533.5 81.9,533.5 81.9,533.5 117.3,533.5 117.3,523.7 110.2,523.7 110.2,475.9 117.3,461.7 117.3,461.7 117.3,441 106.6,441 106.6,449.1 97.6,449.1 97.6,441 86.7,441 86.7,449.1 "
         stroke-miterlimit="10"
         transform="translate(8.1490657,27.885986)" /><polygon
         style="fill:#ffffff;stroke:none"
         id="polygon179"
         points="45.1,463.3 118.2,463.3 118.8,462.1 118.8,460.3 44.6,460.3 44.6,462.1 "
         transform="translate(8.1490657,27.885986)" /><path
         transform="translate(8.1490657,27.885986)"
         style="fill:#ffffff;stroke:none"
         d="M 51.692188,476.24687 51.7,477.4 l 60,0 0.004,-1.15312 0.92734,-1.84688 -61.86875,0 z"
         id="polygon177"
         inkscape:connector-curvature="0"
         sodipodi:nodetypes="ccccccc" /><polygon
         style="fill:#ffffff;stroke:none"
         id="polygon185"
         points="118.8,522.2 51.7,522.2 51.7,522.2 44.6,522.2 44.6,525.2 118.8,525.2 "
         transform="translate(8.1490657,27.885986)" /><g
         id="edgekiller"
         style="fill:#ffffff;stroke:none"><path
           style="fill:#ffffff;stroke:none"
           d="m 131.02897,488.18599 -85.239731,0 0.260006,3 84.379725,0 c 0.6,-3 0,0 0.6,-3 z"
           id="polygon3556"
           inkscape:connector-curvature="0"
           sodipodi:nodetypes="ccccc" /><path
           style="fill:#ffffff;stroke:none"
           d="m 45.149138,549.84099 0,3.245 86.269182,0 0.73074,-3.245 c -28.99998,0 -57.99995,0 -86.999922,0 z"
           id="polygon3558"
           inkscape:connector-curvature="0"
           sodipodi:nodetypes="ccccc" /><path
           sodipodi:nodetypes="ccccc"
           inkscape:connector-curvature="0"
           id="path3569"
           d="m 43.060215,477.4 77.399565,0 c 0.81134,-3 0,0 0.81134,-3 l -78.668327,0 c 0.457422,3 0,0 0.457422,3 z"
           style="fill:#ffffff;stroke:none"
           transform="translate(8.1490657,27.885986)" /></g></g></g></svg>