<svg height="92" width="92" xmlns="http://www.w3.org/2000/svg" xmlns:xlink="http://www.w3.org/1999/xlink"><filter id="a" color-interpolation-filters="sRGB"><feFlood result="flood"/><feComposite in="flood" in2="SourceGraphic" operator="in" result="composite1"/><feGaussianBlur in="composite1" result="blur" stdDeviation="0"/><feOffset dx="0" dy="4" result="offset"/><feComposite in="SourceGraphic" in2="offset" operator="over" result="composite2"/></filter><g><text stroke="#000" x="22.041668" y="63.395832"/><g filter="url(#a)" stroke-linecap="round" stroke-miterlimit="10" transform="translate(.618638 -2.334746)"><circle cx="45.381359" cy="48.334743" fill="#1a1a1a" r="40.79224" stroke="#000" stroke-opacity=".487437" stroke-width=".325698"/><circle cx="45.381359" cy="48.334743" fill="none" r="32.643799" stroke="#fff" stroke-width="3"/></g><path d="m60.192709 34.385417q.625 0 1.770834.572917 1.197916.572917 1.822916 1.197917 0 .208333-.3125.625-.3125.364583-.833333 2.083333-.46875 1.666667-.78125 4.84375-.364583 3.802083-1.510417 5.833333-1.145833 2.03125-2.447916 2.708333-.989584-.104166-1.875-1.5625-.885417-1.458333-1.09375-1.614583-.46875-.729167-.572917-1.041667.625.104167 1.5625.104167 1.458333 0 2.135417-1.041667.729166-1.09375 1.302083-4.583333.3125-1.875.3125-3.125 0-1.822916-.677083-2.291666-3.020834.05208-6.145834 1.041666-3.124999.989584-3.697916.989584-.729167 0-2.5-.885417l-2.65625 2.8125q-1.354167 1.354167-2.291667 1.354167h-.15625v-.520834q4.53125-5.78125 6.770834-11.40625l.677083-1.614583q.05208-.05208.05208-.208333 0-.15625-.208333-.833333-.208333-.677084-.208333-1.197917.05208-.520833.520833-.729167 1.25.15625 2.135417.78125.9375.572917 1.197916.989584.3125.364583.729167 1.093749 0 .260417-2.395833 3.802084-2.395834 3.541666-3.4375 4.791666 5.833333-.260416 10.729166-2.1875l1.614583-.729166q.15625-.05208.46875-.05208zm5.625 21.302083q.208334.260417.9375 2.604167.729167 2.291666 1.25 3.072916 0 1.40625-1.5625 2.395834-1.5625 1.041666-3.854166 1.510416-2.291667.46875-4.114584.625-1.770833.208334-3.020833.208334-3.229166 0-5.520833-.46875-2.239583-.46875-3.385417-1.302084-1.145833-.833333-1.666666-1.458333-.46875-.625-.833334-1.510417-.46875-1.5625-.46875-4.635416 0-1.666667.15625-4.375.208334-2.708333.208334-4.166667 0-.208333-.05208-.520833 0-.364583 0-.520833l-.572916-3.125q.364583-.260417.729166-.260417.885417 0 1.666667.78125 3.697917-.989583 5.677083-2.135416.625 0 1.71875.729166 1.145833.677083 1.40625.78125.3125.3125.3125.677083 0 .3125-.364583.729167-.3125.364583-.9375 1.510417-.572917 1.09375-1.09375 2.916666l.9375.885417.05208.3125q-.260417.260417-1.041666.364583-.78125.104167-1.927084.15625-1.145833.05208-1.822916.208334l-2.083335.416666-.885416-.104166q-.260417.15625-.260417 2.916666 0 4.739583 1.40625 6.145833 2.1875 2.239584 7.135416 2.239584 3.541667 0 6.822917-.885417 2.552083-.677083 4.114583-4.739583.729167-1.927083.9375-1.979167zm-14.531249-10.729166-.208334-.15625q-1.822916.104166-4.53125.833333-.572916 2.552083-.78125 5l3.697917-.9375q.520833-.15625.833333-.364583l.885417-3.489584q.104167-.625.104167-.885416zm-11.302084-10.885417q1.5625 0 2.65625.9375 0 .78125-1.40625 1.145834l-6.822916 1.927083q.78125.260417 1.354167 1.041667-1.875 4.999999-3.697917 8.749999.416667-.05208 3.072917-.989583 2.65625-.989583 3.541666-.989583.260417 0 .364583.05208l2.03125 1.302086q.520834.520834.520834 1.197917-1.354167 1.5625-2.395834 5.052083.677084.260417 1.302084.78125 0 .520834-.729167.729167-.729167.208333-2.916666.520833-2.135417.3125-3.958334.78125l.05208 2.083333q-.05208.416667-.3125.833334-.260417-.05208-.572917-.3125-.260417-.3125-.46875-.625l-.208329-.364584-1.354167-6.406249v-.05208q-3.177083 4.479167-5.364583 6.09375-.833333.677083-1.666667 1.041667l-.3125-.104171q3.854167-5.260416 6.5625-9.479166l-.416667-1.197917q-.05208-.364583.260417-.520833l.885417.104166q1.822916-4.739583 1.822916-6.927083v-.416666q0-1.145834-.260416-1.302084-.260417-.15625-1.041667.05208-.729167.15625-2.03125-.416667-.625-.260417-.989583-.625 0-.46875.572916-.572917l6.25-1.40625.46875-.15625 4.114583-1.40625q.3125-.104166.520834-.104166.15625-.05208.572916-.05208zm-3.020833 14.0625-5 1.302083.78125 5.15625q.416667-.104166 4.166667-1.354166.989583-3.645834.989583-4.479167 0-.364583-.9375-.625z" fill="#fff" stroke="#fff" transform="translate(0 -2.669492)"/></g></svg>