<?xml version="1.0" encoding="UTF-8" standalone="no"?>
<svg
   xmlns:dc="http://purl.org/dc/elements/1.1/"
   xmlns:cc="http://creativecommons.org/ns#"
   xmlns:rdf="http://www.w3.org/1999/02/22-rdf-syntax-ns#"
   xmlns:svg="http://www.w3.org/2000/svg"
   xmlns="http://www.w3.org/2000/svg"
   xmlns:sodipodi="http://sodipodi.sourceforge.net/DTD/sodipodi-0.dtd"
   xmlns:inkscape="http://www.inkscape.org/namespaces/inkscape"
   width="92"
   height="92"
   id="svg2"
   version="1.1"
   inkscape:version="1.0 (4035a4fb49, 2020-05-01)"
   sodipodi:docname="bC.svg">
  <metadata
     id="metadata12">
    <rdf:RDF>
      <cc:Work
         rdf:about="">
        <dc:format>image/svg+xml</dc:format>
        <dc:type
           rdf:resource="http://purl.org/dc/dcmitype/StillImage" />
        <dc:title />
      </cc:Work>
    </rdf:RDF>
  </metadata>
  <defs
     id="defs10">
    <filter
       id="filter18479"
       inkscape:label="Drop Shadow"
       style="color-interpolation-filters:sRGB">
      <feFlood
         id="feFlood18469"
         result="flood"
         flood-color="rgb(0,0,0)"
         flood-opacity="1" />
      <feComposite
         id="feComposite18471"
         result="composite1"
         operator="in"
         in2="SourceGraphic"
         in="flood" />
      <feGaussianBlur
         id="feGaussianBlur18473"
         result="blur"
         stdDeviation="0"
         in="composite1" />
      <feOffset
         id="feOffset18475"
         result="offset"
         dy="4"
         dx="0" />
      <feComposite
         id="feComposite18477"
         result="composite2"
         operator="over"
         in2="offset"
         in="SourceGraphic" />
    </filter>
  </defs>
  <sodipodi:namedview
     pagecolor="#ffffff"
     bordercolor="#666666"
     borderopacity="1"
     objecttolerance="10"
     gridtolerance="10"
     guidetolerance="10"
     inkscape:pageopacity="0"
     inkscape:pageshadow="2"
     inkscape:window-width="1366"
     inkscape:window-height="705"
     id="namedview8"
     showgrid="false"
     inkscape:zoom="5.5978261"
     inkscape:cx="46"
     inkscape:cy="46"
     inkscape:window-x="-8"
     inkscape:window-y="-8"
     inkscape:window-maximized="1"
     inkscape:current-layer="layer2"
     fit-margin-top="0"
     fit-margin-left="0"
     fit-margin-right="0"
     fit-margin-bottom="0"
     inkscape:pagecheckerboard="false"
     inkscape:document-rotation="0" />
  <g
     inkscape:groupmode="layer"
     id="layer1"
     inkscape:label="Background"
     style="display:inline" />
  <g
     inkscape:groupmode="layer"
     id="layer2"
     inkscape:label="Symbol"
     style="display:inline">
    <text
       xml:space="preserve"
       style="font-style:normal;font-variant:normal;font-weight:normal;font-stretch:normal;font-size:26.6667px;line-height:1.25;font-family:'cwTeX Q Kai';-inkscape-font-specification:'cwTeX Q Kai';letter-spacing:0px;word-spacing:0px;display:inline;fill:#000000;fill-opacity:1;stroke:#000000;stroke-width:1;stroke-miterlimit:4;stroke-dasharray:none;stroke-opacity:1"
       x="22.041668"
       y="63.395832"
       id="text32186" />
    <g
       style="display:inline;filter:url(#filter18479)"
       transform="translate(0.61863804,-2.3347464)"
       id="g24262">
      <g
         id="g25621">
        <circle
           r="40.79224"
           cy="48.334743"
           cx="45.381359"
           id="circle4376-8-9"
           style="color:#000000;display:inline;overflow:visible;visibility:visible;opacity:1;fill:#1a1a1a;fill-opacity:1;fill-rule:nonzero;stroke:#000000;stroke-width:0.325698;stroke-linecap:round;stroke-linejoin:miter;stroke-miterlimit:10;stroke-dasharray:none;stroke-dashoffset:0;stroke-opacity:0.487437;marker:none;enable-background:accumulate" />
        <circle
           style="color:#000000;display:inline;overflow:visible;visibility:visible;opacity:1;fill:none;fill-opacity:1;fill-rule:nonzero;stroke:#ffffff;stroke-width:3;stroke-linecap:round;stroke-linejoin:miter;stroke-miterlimit:10;stroke-dasharray:none;stroke-dashoffset:0;stroke-opacity:1;marker:none;enable-background:accumulate"
           id="circle24066-6"
           cx="45.381359"
           cy="48.334743"
           r="32.643799" />
      </g>
    </g>
    <g
       aria-label="砲 "
       style="font-style:normal;font-variant:normal;font-weight:normal;font-stretch:normal;font-size:26.6667px;line-height:1.25;font-family:KaiTi;-inkscape-font-specification:KaiTi;letter-spacing:0px;word-spacing:0px;fill:#ffffff;fill-opacity:1;stroke:#ffffff;stroke-width:1;stroke-miterlimit:4;stroke-dasharray:none"
       id="text33472"
       transform="translate(0,-2.6694915)">
      <path
         d="m 60.192709,34.385417 q 0.625,0 1.770834,0.572917 1.197916,0.572917 1.822916,1.197917 0,0.208333 -0.3125,0.625 -0.3125,0.364583 -0.833333,2.083333 -0.46875,1.666667 -0.78125,4.84375 -0.364583,3.802083 -1.510417,5.833333 -1.145833,2.03125 -2.447916,2.708333 -0.989584,-0.104166 -1.875,-1.5625 -0.885417,-1.458333 -1.09375,-1.614583 -0.46875,-0.729167 -0.572917,-1.041667 0.625,0.104167 1.5625,0.104167 1.458333,0 2.135417,-1.041667 0.729166,-1.09375 1.302083,-4.583333 0.3125,-1.875 0.3125,-3.125 0,-1.822916 -0.677083,-2.291666 -3.020834,0.05208 -6.145834,1.041666 -3.124999,0.989584 -3.697916,0.989584 -0.729167,0 -2.5,-0.885417 l -2.65625,2.8125 q -1.354167,1.354167 -2.291667,1.354167 h -0.15625 v -0.520834 q 4.53125,-5.78125 6.770834,-11.40625 l 0.677083,-1.614583 q 0.05208,-0.05208 0.05208,-0.208333 0,-0.15625 -0.208333,-0.833333 -0.208333,-0.677084 -0.208333,-1.197917 0.05208,-0.520833 0.520833,-0.729167 1.25,0.15625 2.135417,0.78125 0.9375,0.572917 1.197916,0.989584 0.3125,0.364583 0.729167,1.093749 0,0.260417 -2.395833,3.802084 -2.395834,3.541666 -3.4375,4.791666 5.833333,-0.260416 10.729166,-2.1875 l 1.614583,-0.729166 q 0.15625,-0.05208 0.46875,-0.05208 z m 5.625,21.302083 q 0.208334,0.260417 0.9375,2.604167 0.729167,2.291666 1.25,3.072916 0,1.40625 -1.5625,2.395834 -1.5625,1.041666 -3.854166,1.510416 -2.291667,0.46875 -4.114584,0.625 -1.770833,0.208334 -3.020833,0.208334 -3.229166,0 -5.520833,-0.46875 Q 47.69271,65.166667 46.546876,64.333333 45.401043,63.5 44.88021,62.875 44.41146,62.25 44.046876,61.364583 q -0.46875,-1.5625 -0.46875,-4.635416 0,-1.666667 0.15625,-4.375 0.208334,-2.708333 0.208334,-4.166667 0,-0.208333 -0.05208,-0.520833 0,-0.364583 0,-0.520833 l -0.572916,-3.125 q 0.364583,-0.260417 0.729166,-0.260417 0.885417,0 1.666667,0.78125 3.697917,-0.989583 5.677083,-2.135416 0.625,0 1.71875,0.729166 1.145833,0.677083 1.40625,0.78125 0.3125,0.3125 0.3125,0.677083 0,0.3125 -0.364583,0.729167 -0.3125,0.364583 -0.9375,1.510417 -0.572917,1.09375 -1.09375,2.916666 l 0.9375,0.885417 0.05208,0.3125 q -0.260417,0.260417 -1.041666,0.364583 -0.78125,0.104167 -1.927084,0.15625 -1.145833,0.05208 -1.822916,0.208334 L 46.546876,52.09375 45.66146,51.989584 q -0.260417,0.15625 -0.260417,2.916666 0,4.739583 1.40625,6.145833 2.1875,2.239584 7.135416,2.239584 3.541667,0 6.822917,-0.885417 2.552083,-0.677083 4.114583,-4.739583 0.729167,-1.927083 0.9375,-1.979167 z M 51.28646,44.958334 51.078126,44.802084 q -1.822916,0.104166 -4.53125,0.833333 -0.572916,2.552083 -0.78125,5 l 3.697917,-0.9375 q 0.520833,-0.15625 0.833333,-0.364583 l 0.885417,-3.489584 q 0.104167,-0.625 0.104167,-0.885416 z M 39.984376,34.072917 q 1.5625,0 2.65625,0.9375 0,0.78125 -1.40625,1.145834 l -6.822916,1.927083 q 0.78125,0.260417 1.354167,1.041667 -1.875,4.999999 -3.697917,8.749999 0.416667,-0.05208 3.072917,-0.989583 2.65625,-0.989583 3.541666,-0.989583 0.260417,0 0.364583,0.05208 L 41.078126,47.25 q 0.520834,0.520834 0.520834,1.197917 -1.354167,1.5625 -2.395834,5.052083 0.677084,0.260417 1.302084,0.78125 0,0.520834 -0.729167,0.729167 -0.729167,0.208333 -2.916666,0.520833 -2.135417,0.3125 -3.958334,0.78125 l 0.05208,2.083333 q -0.05208,0.416667 -0.3125,0.833334 -0.260417,-0.05208 -0.572917,-0.3125 -0.260417,-0.3125 -0.46875,-0.625 L 31.390627,57.927083 30.03646,51.520834 v -0.05208 q -3.177083,4.479167 -5.364583,6.09375 -0.833333,0.677083 -1.666667,1.041667 L 22.69271,58.5 q 3.854167,-5.260416 6.5625,-9.479166 l -0.416667,-1.197917 q -0.05208,-0.364583 0.260417,-0.520833 l 0.885417,0.104166 q 1.822916,-4.739583 1.822916,-6.927083 v -0.416666 q 0,-1.145834 -0.260416,-1.302084 -0.260417,-0.15625 -1.041667,0.05208 -0.729167,0.15625 -2.03125,-0.416667 -0.625,-0.260417 -0.989583,-0.625 0,-0.46875 0.572916,-0.572917 l 6.25,-1.40625 0.46875,-0.15625 4.114583,-1.40625 q 0.3125,-0.104166 0.520834,-0.104166 0.15625,-0.05208 0.572916,-0.05208 z m -3.020833,14.0625 -5,1.302083 0.78125,5.15625 q 0.416667,-0.104166 4.166667,-1.354166 0.989583,-3.645834 0.989583,-4.479167 0,-0.364583 -0.9375,-0.625 z"
         style="font-style:normal;font-variant:normal;font-weight:normal;font-stretch:normal;font-size:53.3333px;font-family:'cwTeX Q Kai';-inkscape-font-specification:'cwTeX Q Kai';fill:#ffffff;stroke:#ffffff;stroke-width:1;stroke-miterlimit:4;stroke-dasharray:none;stroke-opacity:1"
         id="path33486" />
    </g>
  </g>
</svg>
