<?xml version="1.0" encoding="UTF-8" standalone="no"?>
<svg
   xmlns:dc="http://purl.org/dc/elements/1.1/"
   xmlns:cc="http://creativecommons.org/ns#"
   xmlns:rdf="http://www.w3.org/1999/02/22-rdf-syntax-ns#"
   xmlns:svg="http://www.w3.org/2000/svg"
   xmlns="http://www.w3.org/2000/svg"
   xmlns:sodipodi="http://sodipodi.sourceforge.net/DTD/sodipodi-0.dtd"
   xmlns:inkscape="http://www.inkscape.org/namespaces/inkscape"
   sodipodi:docname="black_elephant.svg"
   inkscape:version="1.0 (4035a4fb49, 2020-05-01)"
   version="1.1"
   id="svg2"
   height="92"
   width="92">
  <metadata
     id="metadata12">
    <rdf:RDF>
      <cc:Work
         rdf:about="">
        <dc:format>image/svg+xml</dc:format>
        <dc:type
           rdf:resource="http://purl.org/dc/dcmitype/StillImage" />
        <dc:title></dc:title>
      </cc:Work>
    </rdf:RDF>
  </metadata>
  <defs
     id="defs10">
    <filter
       color-interpolation-filters="sRGB"
       id="f1"
       x="0"
       y="0"
       width="1.5"
       height="1.5">
      <feOffset
         result="offOut"
         in="SourceAlpha"
         dx="1"
         dy="0"
         id="feOffset3039" />
      <feGaussianBlur
         result="blurOut"
         in="offOut"
         stdDeviation="1"
         id="feGaussianBlur3041" />
      <!--
      <feBlend in="SourceGraphic" in2="blurOut" mode="normal" />
-->
    </filter>
    <linearGradient
       id="grad1"
       x1="0"
       y1="0"
       x2="0"
       y2="1">
      <stop
         offset="20%"
         style="stop-color:rgb(255,255,255);stop-opacity:0.6"
         id="stop3034" />
      <stop
         offset="50%"
         style="stop-color:rgb(220,0,0);stop-opacity:0.5"
         id="stop3036" />
    </linearGradient>
    <linearGradient
       id="grad0"
       x1="0"
       y1="0"
       x2="0"
       y2="1">
      <stop
         offset="20%"
         style="stop-color:rgb(0,0,0);stop-opacity:0.3"
         id="stop3029" />
      <stop
         offset="100%"
         style="stop-color:rgb(0,0,0);stop-opacity:0.6"
         id="stop3031" />
    </linearGradient>
    <inkscape:path-effect
       oposite_fuse="false"
       fuse_paths="true"
       discard_orig_path="false"
       mode="free"
       is_visible="true"
       id="path-effect4557-0-4"
       center_point="273.85776,413.92646"
       end_point="273.50284,477.30227"
       start_point="274.21267,350.55066"
       effect="mirror_symmetry" />
    <filter
       id="filter20342"
       inkscape:label="Drop Shadow"
       style="color-interpolation-filters:sRGB;">
      <feFlood
         id="feFlood20332"
         result="flood"
         flood-color="rgb(91,93,90)"
         flood-opacity="1" />
      <feComposite
         id="feComposite20334"
         result="composite1"
         operator="in"
         in2="SourceGraphic"
         in="flood" />
      <feGaussianBlur
         id="feGaussianBlur20336"
         result="blur"
         stdDeviation="0"
         in="composite1" />
      <feOffset
         id="feOffset20338"
         result="offset"
         dy="4"
         dx="0" />
      <feComposite
         id="feComposite20340"
         result="composite2"
         operator="over"
         in2="offset"
         in="SourceGraphic" />
    </filter>
    <filter
       style="color-interpolation-filters:sRGB"
       inkscape:label="Drop Shadow"
       id="filter18479">
      <feFlood
         flood-opacity="1"
         flood-color="rgb(0,0,0)"
         result="flood"
         id="feFlood18469" />
      <feComposite
         in="flood"
         in2="SourceGraphic"
         operator="in"
         result="composite1"
         id="feComposite18471" />
      <feGaussianBlur
         in="composite1"
         stdDeviation="0"
         result="blur"
         id="feGaussianBlur18473" />
      <feOffset
         dx="0"
         dy="4"
         result="offset"
         id="feOffset18475" />
      <feComposite
         in="SourceGraphic"
         in2="offset"
         operator="over"
         result="composite2"
         id="feComposite18477" />
    </filter>
  </defs>
  <sodipodi:namedview
     inkscape:document-rotation="0"
     inkscape:pagecheckerboard="false"
     fit-margin-bottom="0"
     fit-margin-right="0"
     fit-margin-left="0"
     fit-margin-top="0"
     inkscape:current-layer="layer1"
     inkscape:window-maximized="1"
     inkscape:window-y="-8"
     inkscape:window-x="-8"
     inkscape:cy="52.455433"
     inkscape:cx="-27.554166"
     inkscape:zoom="5.2444445"
     showgrid="false"
     id="namedview8"
     inkscape:window-height="1017"
     inkscape:window-width="1920"
     inkscape:pageshadow="2"
     inkscape:pageopacity="0"
     guidetolerance="10"
     gridtolerance="10"
     objecttolerance="10"
     borderopacity="1"
     bordercolor="#666666"
     pagecolor="#ffffff" />
  <g
     style="display:inline"
     inkscape:label="Background"
     id="layer1"
     inkscape:groupmode="layer">
    <g
       id="g24262"
       transform="translate(0.61863804,-2.3347464)"
       style="display:inline;filter:url(#filter18479)">
      <g
         id="g25621">
        <circle
           style="color:#000000;display:inline;overflow:visible;visibility:visible;opacity:1;fill:#1a1a1a;fill-opacity:1;fill-rule:nonzero;stroke:#000000;stroke-width:0.325698;stroke-linecap:round;stroke-linejoin:miter;stroke-miterlimit:10;stroke-dasharray:none;stroke-dashoffset:0;stroke-opacity:0.487437;marker:none;enable-background:accumulate"
           id="circle4376-8-9"
           cx="45.381359"
           cy="48.334743"
           r="40.79224" />
        <circle
           r="32.643799"
           cy="48.334743"
           cx="45.381359"
           id="circle24066-6"
           style="color:#000000;display:inline;overflow:visible;visibility:visible;opacity:1;fill:none;fill-opacity:1;fill-rule:nonzero;stroke:#ffffff;stroke-width:3;stroke-linecap:round;stroke-linejoin:miter;stroke-miterlimit:10;stroke-dasharray:none;stroke-dashoffset:0;stroke-opacity:1;marker:none;enable-background:accumulate" />
      </g>
    </g>
    <g
       id="text32186"
       style="font-style:normal;font-variant:normal;font-weight:500;font-stretch:normal;font-size:53.33333206px;line-height:1.25;font-family:'cwTeX Q Kai';-inkscape-font-specification:'cwTeX Q Kai, Medium';font-variant-ligatures:normal;font-variant-caps:normal;font-variant-numeric:normal;font-feature-settings:normal;text-align:start;letter-spacing:0px;word-spacing:0px;writing-mode:lr-tb;text-anchor:start;display:inline;fill:#ffffff;fill-opacity:1;stroke:#ffffff;stroke-width:1;stroke-miterlimit:4;stroke-dasharray:none;stroke-opacity:1"
       aria-label="象">
      <path
         id="path34774"
         style="fill:#ffffff;stroke:#ffffff"
         d="m 53.791314,31.677083 q 1.5625,0.572916 2.864583,1.666666 1.354167,1.041667 1.5625,1.770834 l -0.15625,0.416666 q -2.708333,1.770834 -3.4375,4.114584 -0.05208,0.05208 -0.3125,0.3125 -0.208333,0.208333 -0.260417,0.260416 -0.05208,0.05208 -0.260416,0.260417 -0.208334,0.208333 -0.3125,0.260417 -0.05208,0.05208 -0.260417,0.208333 -0.15625,0.15625 -0.260417,0.208333 -0.104166,0.05208 -0.3125,0.15625 -0.15625,0.104167 -0.3125,0.15625 -0.104166,0 -0.3125,0.05208 -0.15625,0 -0.3125,0 0.05208,-0.677084 -0.677083,-0.729167 -0.520833,0 -1.197916,0.05208 l -7.291667,0.78125 q 0.3125,0.989584 0.520833,1.822917 -0.729166,0.208333 -2.239583,1.5625 3.4375,0.9375 6.458333,4.010416 l 3.020833,-2.96875 q 1.5625,-1.718749 1.822917,-3.385416 0.3125,-0.3125 0.729167,-0.3125 0.78125,0 1.71875,1.197917 0.9375,1.145833 1.25,2.343749 -2.239584,1.40625 -7.864583,3.854167 2.239583,4.479167 19.895832,9.166667 l 0.15625,0.260416 q -0.833333,0.520833 -3.854166,1.09375 l -0.625,0.104167 q -2.135417,0.364583 -3.854167,0.364583 -1.302083,0 -2.03125,-0.208333 -0.729166,-0.208334 -2.395833,-1.5625 -1.614583,-1.354167 -4.21875,-4.21875 l -1.197916,-1.197917 0.312499,2.1875 v 0.05208 q 0,11.406249 -3.489583,12.239583 l -0.677083,-0.104167 q -1.041667,-1.041667 -5.052083,-4.166667 l -0.989584,-0.78125 -0.260416,-0.572916 0.208333,-0.15625 5.052083,0.364583 q 0.520834,0 0.78125,-0.05208 1.71875,-1.458334 1.71875,-5.989583 v -0.260417 q 0,-3.125 -0.9375,-4.791667 -7.96875,9.739583 -16.197916,11.71875 -0.625,-0.05208 -0.78125,-0.3125 0.520833,-0.572917 2.395833,-1.770833 1.875,-1.197917 3.802084,-2.5 1.979166,-1.354167 4.531249,-3.854167 2.552084,-2.5 4.53125,-5.46875 -0.104166,-0.208333 -0.78125,-0.729166 -0.625,-0.572917 -0.677083,-0.625 l -4.947917,4.0625 q -4.895833,3.75 -8.385416,3.75 h -0.416667 l 6.666667,-4.427084 q 3.333333,-2.447916 4.375,-4.947916 l -0.9375,-0.677084 q -6.302083,3.90625 -10.572917,4.0625 l -0.15625,-0.15625 q 2.447917,-1.145833 3.59375,-1.71875 1.197917,-0.625 3.59375,-2.34375 2.447917,-1.718749 3.802083,-3.541666 -1.666666,0.104167 -3.75,0.364583 -0.208333,0.677084 -0.520833,0.885417 -0.677083,-0.208333 -1.302083,-1.354167 -0.625,-1.145833 -1.145833,-2.552083 -0.46875,-1.40625 -0.729167,-1.770833 l -1.458333,-2.34375 q 0,-0.3125 0.260416,-0.572917 1.822917,0 7.135417,-0.78125 5.364583,-0.78125 6.145833,-0.833333 l 3.541667,-5.364583 q 0,-0.3125 -0.260417,-0.416667 -1.875,0.46875 -3.4375,0.46875 -0.833333,0 -1.197917,-0.05208 -0.260416,0 -0.572916,-0.104167 -1.197917,0.364583 -4.010417,2.604167 -2.760416,2.187499 -4.635416,2.187499 -0.572917,0 -0.885417,-0.15625 0.208333,-0.364583 1.770833,-1.406249 1.5625,-1.041667 3.229167,-2.447917 1.71875,-1.458333 2.291666,-2.864583 l 0.3125,-1.354167 q 0.05208,-0.05208 0.104167,-0.104167 0.05208,-0.05208 0.05208,-0.104166 1.09375,0.15625 1.666667,1.09375 0.625,0.885416 0.78125,1.614583 1.458333,-0.104167 6.197917,-1.71875 1.562499,0.104167 3.385416,1.927083 l 0.208333,0.46875 q -0.05208,0.15625 -0.416666,0.364584 -0.3125,0.208333 -2.03125,1.5625 -1.71875,1.302083 -4.375,3.489583 1.354167,-0.15625 7.5,-1.09375 z m -8.958333,7.96875 q 0.364583,0 2.1875,-0.416667 1.875,-0.416667 2.447916,-0.416667 1.302083,0 2.03125,0.677084 1.5625,-3.645834 1.666667,-5.520834 -0.78125,-0.15625 -1.875,-0.15625 -1.5625,0 -4.114583,0.364584 -2.552084,0.364583 -2.916667,0.364583 l 0.9375,0.885417 z m -1.979167,0.416666 -0.677083,-5.208333 q -3.802084,0.572917 -7.34375,1.614583 0.416667,2.5 1.197917,4.53125 z" />
    </g>
  </g>
  <g
     style="display:inline"
     inkscape:label="Symbol"
     id="layer2"
     inkscape:groupmode="layer" />
</svg>
