<svg height="92" width="92" xmlns="http://www.w3.org/2000/svg" xmlns:xlink="http://www.w3.org/1999/xlink"><filter id="a" color-interpolation-filters="sRGB"><feFlood result="flood"/><feComposite in="flood" in2="SourceGraphic" operator="in" result="composite1"/><feGaussianBlur in="composite1" result="blur" stdDeviation="0"/><feOffset dx="0" dy="4" result="offset"/><feComposite in="SourceGraphic" in2="offset" operator="over" result="composite2"/></filter><g filter="url(#a)" stroke-linecap="round" stroke-miterlimit="10" transform="translate(.618638 -2.334746)"><circle cx="45.381359" cy="48.334743" fill="#1a1a1a" r="40.79224" stroke="#000" stroke-opacity=".487437" stroke-width=".325698"/><circle cx="45.381359" cy="48.334743" fill="none" r="32.643799" stroke="#fff" stroke-width="3"/></g><path d="m48.291667 28.083333q-.989583 0-3.125-1.614583-2.083333-1.614584-2.083333-2.708334 0-.15625.208333-.260416l.260417-.104167q2.1875.208333 3.4375.729167 1.302083.520833 2.291667 1.822916 0 1.25-.260417 1.71875-.208333.416667-.729167.416667zm8.177083.05208q2.1875 0 2.96875 1.302084-.104166 1.09375-3.177083 1.458333-8.333333 1.354166-12.864583 1.875l-4.479166.677083q-.3125.05208-.9375.05208-3.697917 0-3.90625-1.5625l.46875-.3125q6.822916-.3125 14.687499-1.979166l5.677083-1.354167q.885417-.15625 1.5625-.15625zm-15.104166 8.385417q-.208333.416666-1.302083 1.875-1.041667 1.40625-1.40625 2.03125l3.125 1.510416q1.145833.78125 1.145833 1.979167.05208 1.145833-.625 1.458333-1.041667 0-3.489583-3.072916l-.78125-.9375q-4.322917 4.322916-5.885417 4.322916h-.15625l.104167-.46875q2.708333-2.65625 4.0625-4.739583 1.40625-2.135417 1.40625-4.53125 0-.9375.15625-1.197917.15625-.3125.572917-.3125.885416 0 1.770833.729167.885416.729167 1.302083 1.354167zm20.572916 9.739586q1.354167 0 3.333334 1.197916 2.03125 1.197917 2.03125 2.03125v.208334q0 .15625-.05208.208333l-.46875.3125-18.749999.260417q-.104167 1.354166-.104167 8.593749 0 9.53125-1.927083 9.53125-.46875-.364583-.677084-1.041666-.15625-.625-.208333-2.03125-.05208-1.40625-.05208-3.020834.05208-1.666666 0-4.947916-.05208-3.333333-.260417-6.875-5.625.364583-11.25 1.458333l-4.84375 1.09375q-.104166 0-.208333.05208-.104167 0-.416667 0-1.041666 0-2.031249-.572917-.9375-.625-1.40625-1.458333 0-.46875.625-.46875l19.531249-1.979167q0-3.59375-1.09375-5.46875v-.05208q0-1.041667.9375-1.041667.677083 0 1.510417.416667 5.520833-5 5.520833-10.46875.260417-.208333.729167-.208333.729166 0 1.666666.677083.989583.677083 1.302083 1.145833l-.104166.677084q-1.770833 2.083333-3.072917 4.21875l3.489583 1.354166q2.552084 1.25 2.552084 3.020834 0 .572916-.208334 1.041666-.3125.104167-1.041666.104167l-5.364583-4.583333-.15625-.15625q-1.875 2.135416-4.635417 3.541666l1.354167.885417q.260416.260417.260416.625 0 .364583-.208333 1.875-.208333 1.458333-.208333 1.927083h.260416q.885417 0 3.4375-.364583 2.552084-.364584 5.625-.885417 3.125-.572917 3.4375-.625z" fill="#fff" stroke="#fff"/></svg>