<svg xmlns="http://www.w3.org/2000/svg" width="52.172" height="60">
<!--
Created by Hari Seldon and modified by orangain, licensed under Creative Commons Attribution-Share Alike 3.0 Unported.
See: https://creativecommons.org/licenses/by-sa/3.0/deed.en

Original file is available at: https://commons.wikimedia.org/wiki/File:Shogi_keima(svg).svg
-->
<filter id="drop-shadow">
    <feGaussianBlur in="SourceAlpha" result="blur" stdDeviation="2" />
    <feOffset result="offsetBlur" dx="2" dy="2" />
    <feBlend in="SourceGraphic" in2="offsetBlur" mode="normal" />
</filter>
<g filter="url(#drop-shadow)" transform="translate(5 5)">
    <path d="M7.635 4.498l-6.729 44.856 40.488 -0.236 -6.846 -44.502 -14.047 -3.895z" fill="#FEEC99"/>
    <path d="M25.831 44.746C24.749 43.953 23.956 43.156 24.068 42.974 24.181 42.792 25.172 42.809 26.27 43.011 28.628 43.446 29.574 42.828 30.405 40.311 30.88 38.871 30.83 38.568 29.98 37.717 29.018 36.755 29.003 36.755 23.625 37.598 19.265 38.282 18.098 38.331 17.525 37.854 16.321 36.855 16.726 36.444 18.918 36.444 20.075 36.444 21.021 36.234 21.021 35.977 21.021 35.72 20.443 35.507 19.736 35.504 19.029 35.5 17.977 35.37 17.399 35.215 16.45 34.961 16.347 35.099 16.347 36.625 16.347 37.554 16.127 38.315 15.856 38.315 14.885 38.315 14.032 35.231 14.323 32.773 14.533 30.996 14.412 30.104 13.84 29.231 12.405 27.041 13.355 26.312 15.472 27.978 16.439 28.738 16.957 28.802 19.252 28.443 20.714 28.213 22.46 27.817 23.132 27.561 24.944 26.872 26.622 26.997 26.947 27.845 27.298 28.76 26.354 29.417 24.671 29.426 23.98 29.43 23.284 29.644 23.125 29.901 22.953 30.179 23.5 30.368 24.472 30.368 26.246 30.368 27.14 31.161 26.106 31.816 25.752 32.04 24.883 32.227 24.176 32.231 22.244 32.241 22.631 33.095 24.644 33.261 25.826 33.359 26.397 33.635 26.397 34.108 26.397 34.581 25.826 34.856 24.644 34.954 23.68 35.034 22.891 35.316 22.891 35.582 22.891 36.14 27.301 35.664 28.635 34.962 29.858 34.32 31.145 34.895 32.522 36.701L33.739 38.296 32.639 40.952C31.466 43.782 29.467 46.285 28.429 46.222 28.083 46.202 26.913 45.537 25.831 44.745ZM19.822 33.64C20.482 33.64 21.022 33.43 21.022 33.173 21.022 32.916 20.512 32.706 19.891 32.706 19.269 32.706 18.428 32.578 18.021 32.422 16.735 31.928 17.221 31.303 18.891 31.303 19.775 31.303 20.629 31.093 20.788 30.836 20.948 30.576 20.597 30.366 19.998 30.362 19.404 30.358 18.445 30.229 17.866 30.074 16.876 29.808 16.815 29.931 16.815 32.2 16.815 34.436 16.879 34.574 17.719 34.124 18.216 33.858 19.162 33.64 19.822 33.64ZM11.496 45.418C11.177 44.902 9.818 40.967 9.81 40.535 9.795 39.752 10.91 40.268 12.187 41.635 13.82 43.385 14.08 45.793 12.635 45.793 12.136 45.793 11.624 45.625 11.496 45.418ZM14.961 41.748C14.431 40.551 14.094 39.477 14.211 39.36 14.328 39.243 15.054 39.596 15.825 40.145 17.279 41.18 18.023 42.635 17.518 43.452 16.88 44.485 15.876 43.816 14.961 41.748ZM19.183 41.088C17.572 39.083 17.543 38.505 19.078 38.992 20.643 39.489 22.424 41.136 22.424 42.088 22.424 43.615 20.814 43.118 19.183 41.088ZM24.071 40.428C23.048 39.554 22.343 38.706 22.504 38.546 22.951 38.098 26.446 39.166 27.096 39.948 27.761 40.75 27.404 42.062 26.528 42.036 26.198 42.026 25.093 41.303 24.071 40.428ZM15.465 24.588C15.08 24.125 15.009 22.942 15.235 20.735L15.562 17.551 13.667 19.052C10.019 21.942 8.567 20.391 11.743 16.998 15.54 12.944 15.88 12.564 15.88 12.381 15.88 12.281 15.164 12.314 14.289 12.456 12.995 12.666 12.599 12.53 12.169 11.726 11.686 10.823 11.759 10.736 13.021 10.736 13.78 10.736 14.734 10.609 15.141 10.453 16.076 10.094 16.097 8.694 15.179 7.933 14.166 7.093 14.316 6.53 15.553 6.53 16.913 6.53 17.749 7.355 17.749 8.694 17.749 9.418 18.069 9.783 18.796 9.886 19.372 9.969 19.913 10.404 19.999 10.854 20.12 11.489 19.834 11.672 18.719 11.672 17.475 11.672 17.282 11.839 17.282 12.912 17.282 14.11 17.314 14.125 18.185 13.336 18.839 12.745 19.483 12.605 20.512 12.831 21.295 13.003 22.361 13.009 22.881 12.844 24.143 12.443 24.131 10.316 22.857 8.697 22.172 7.826 22.069 7.449 22.507 7.41 24.677 7.215 26.163 8.46 26.163 10.471 26.163 11.897 26.206 11.926 28.077 11.748 29.742 11.588 29.97 11.678 29.825 12.436 29.718 12.996 29.033 13.463 27.911 13.741 25.839 14.254 25.403 15.645 27.448 15.215 29.021 14.885 30.138 15.524 29.751 16.532 29.563 17.023 28.896 17.281 27.814 17.281 26.544 17.281 26.163 17.472 26.163 18.111 26.163 18.798 26.486 18.911 28.033 18.763 29.193 18.653 29.903 18.781 29.903 19.101 29.903 19.385 29.909 19.776 29.918 19.968 29.926 20.161 29.154 20.424 28.201 20.553 27.249 20.681 26.373 21.079 26.256 21.436 26.085 21.954 26.539 22.038 28.502 21.849 30.502 21.657 31.128 21.779 31.852 22.502 33.227 23.877 32.466 24.316 28.817 24.25 26.972 24.217 24.462 24.342 23.241 24.528 21.541 24.787 20.746 24.686 19.851 24.101 18.128 22.971 18.406 22.656 21.128 22.656 23.156 22.656 23.603 22.505 23.748 21.77 23.878 21.104 23.727 20.958 23.143 21.182 22.26 21.521 19.619 20.316 19.619 19.574 19.619 19.307 20.022 19.215 20.514 19.372 21.592 19.714 23.826 19.215 23.826 18.632 23.826 18.403 23.242 18.216 22.528 18.216 21.098 18.216 18.996 16.976 19.378 16.358 19.511 16.142 20.038 16.075 20.547 16.208 21.944 16.574 23.826 15.956 23.826 15.131 23.826 14.561 23.514 14.471 22.405 14.714 21.47 14.919 20.618 14.787 19.917 14.327 18.906 13.665 18.809 13.706 18.073 15.104 17.554 16.088 17.253 17.97 17.172 20.749 17.048 24.918 16.592 25.946 15.465 24.589ZM15.322 15.165C15.178 15.021 14.917 15.281 14.742 15.741 14.488 16.408 14.542 16.461 15.002 16.003 15.322 15.686 15.466 15.309 15.322 15.165Z" fill="#d0d0d0"/>
    <path d="M27.237 45.623C27.032 45.273 26.18 44.636 25.345 44.209 24.509 43.782 23.825 43.317 23.825 43.177 23.825 43.037 24.916 42.99 26.249 43.072 28.55 43.215 28.728 43.142 29.755 41.634 31.003 39.802 31.102 38.856 30.178 37.592 29.534 36.712 29.394 36.709 24.042 37.487 20.235 38.04 18.297 38.14 17.689 37.815 16.203 37.019 16.718 36.445 18.918 36.445 20.075 36.445 21.021 36.235 21.021 35.977 21.021 35.72 20.513 35.51 19.891 35.51 16.954 35.51 16.406 34.259 19.151 33.82 21.189 33.494 21.712 32.706 19.891 32.706 19.269 32.706 18.428 32.578 18.021 32.422 16.735 31.928 17.221 31.303 18.891 31.303 19.775 31.303 20.629 31.093 20.788 30.836 20.947 30.579 20.658 30.368 20.145 30.368 19.632 30.368 18.628 30.146 17.913 29.874 16.872 29.479 16.749 29.294 17.298 28.947 17.675 28.708 18.554 28.51 19.252 28.506 19.95 28.502 21.5 28.166 22.695 27.761 25.052 26.961 27.098 27.186 27.098 28.246 27.098 28.653 26.341 29.061 25.148 29.296 22.723 29.776 22.208 30.728 24.519 30.458 25.755 30.314 26.163 30.44 26.163 30.968 26.163 31.729 25.211 32.238 23.788 32.238 23.294 32.238 22.891 32.448 22.891 32.706 22.891 32.963 23.615 33.173 24.499 33.173 26.25 33.173 27.134 33.969 26.106 34.62 25.752 34.845 24.883 35.032 24.176 35.035 23.469 35.039 22.891 35.253 22.891 35.51 22.891 36.161 24.579 36.093 27.55 35.322 30.441 34.572 31.422 34.936 32.8 37.266 33.563 38.56 33.542 38.683 31.997 41.876 30.94 44.062 30.006 45.342 29.199 45.709 27.691 46.396 27.691 46.396 27.238 45.623ZM11.455 45.243C10.293 41.91 9.879 40.42 10.065 40.234 10.185 40.114 11.027 40.734 11.934 41.613 13.109 42.753 13.544 43.548 13.446 44.382 13.298 45.642 11.816 46.283 11.455 45.244ZM15.705 42.872C14.805 41.442 14.323 39.717 14.826 39.717 15.676 39.717 17.868 42.474 17.591 43.195 17.197 44.223 16.48 44.1 15.705 42.872ZM19.255 41.038C18.43 39.965 17.837 39.006 17.935 38.908 18.257 38.586 21.237 40.018 21.892 40.807 22.612 41.677 22.298 42.989 21.37 42.989 21.031 42.989 20.08 42.111 19.255 41.039ZM24.099 40.398L22.268 38.782 23.93 38.782C25.927 38.782 27.854 40.16 27.424 41.28 26.984 42.426 26.141 42.202 24.099 40.398ZM14.961 37.41C14.695 36.913 14.477 35.105 14.477 33.393 14.477 31.303 14.217 29.837 13.684 28.936 12.725 27.312 13.002 26.914 14.652 27.541 16.553 28.264 16.978 29.74 16.597 34.305 16.262 38.329 15.861 39.091 14.961 37.41ZM15.481 24.42C15.225 23.942 15.134 22.246 15.279 20.65 15.424 19.054 15.437 17.748 15.308 17.748 15.178 17.748 14.279 18.379 13.308 19.15 12.338 19.922 11.28 20.553 10.958 20.553 9.447 20.553 10.09 19.036 12.868 16.053 14.512 14.286 15.862 12.66 15.868 12.439 15.875 12.219 15.334 12.175 14.666 12.342 13.488 12.638 12.14 12.001 12.14 11.147 12.14 10.921 12.883 10.737 13.791 10.737 15.82 10.737 16.348 9.714 15.281 7.854 14.542 6.567 14.551 6.53 15.574 6.53 16.914 6.53 17.749 7.362 17.749 8.694 17.749 9.418 18.069 9.783 18.796 9.886 19.372 9.969 19.913 10.404 19.999 10.854 20.12 11.489 19.834 11.672 18.719 11.672 17.479 11.672 17.282 11.841 17.282 12.898 17.282 13.985 17.369 14.051 18.055 13.482 18.488 13.123 19.879 12.84 21.21 12.84 23.572 12.84 23.593 12.827 23.742 11.27 23.85 10.143 23.597 9.385 22.843 8.582L21.793 7.465 23.205 7.465C25.128 7.465 26.368 8.893 26.008 10.695 25.734 12.063 25.753 12.078 27.7 11.992 30.437 11.872 30.424 13.129 27.682 13.671 25.149 14.171 24.868 15.496 27.33 15.331 28.923 15.223 30.388 16.016 29.76 16.645 29.587 16.817 28.656 17.087 27.692 17.244 26.519 17.434 25.886 17.807 25.778 18.368 25.638 19.095 25.843 19.165 27.297 18.892 28.372 18.691 29.227 18.784 29.669 19.15 30.709 20.014 30.064 20.553 27.99 20.553 26.748 20.553 26.042 20.791 25.857 21.274 25.422 22.407 26.005 22.616 28.197 22.114 30.668 21.549 32.239 22.037 32.239 23.369 32.239 24.281 32.016 24.337 28.851 24.22 26.987 24.152 24.411 24.252 23.125 24.444 21.153 24.738 20.605 24.645 19.619 23.852L18.451 22.911 21.138 22.901C23.511 22.891 23.826 22.781 23.826 21.955 23.826 21.237 23.514 21.02 22.481 21.02 21.741 21.02 20.874 20.705 20.554 20.319 20.063 19.727 20.157 19.618 21.16 19.618 22.783 19.618 23.826 19.166 23.826 18.464 23.826 18.098 23.406 17.958 22.709 18.091 22.083 18.211 21.01 17.926 20.268 17.442L18.944 16.58 21.264 16.346C23.058 16.166 23.622 15.913 23.751 15.232 23.893 14.488 23.723 14.401 22.654 14.669 21.818 14.879 20.997 14.729 20.23 14.227 19.592 13.809 19.02 13.537 18.956 13.621 17.462 15.634 17.282 16.335 17.282 20.132 17.282 23.07 17.099 24.329 16.613 24.732 16.082 25.174 15.85 25.11 15.48 24.419ZM15.306 15.148C15.149 14.992 14.769 15.355 14.461 15.955 13.926 16.999 13.938 17.012 14.746 16.24 15.21 15.796 15.462 15.305 15.306 15.148Z" fill="#afafaf"/>
    <path d="M27.284 45.545C26.796 45.175 25.871 44.446 25.228 43.926L24.06 42.981 26.476 43.274 28.892 43.567 29.865 41.66C31.115 39.21 31.094 38.032 29.785 37.201 28.864 36.616 28.109 36.645 23.692 37.431 20 38.089 18.404 38.198 17.732 37.838 16.205 37.021 16.695 36.445 18.918 36.445 20.516 36.445 21.021 36.269 21.021 35.712 21.021 35.192 20.75 35.066 20.087 35.276 19.044 35.607 17.282 35.185 17.282 34.603 17.282 34.397 18.123 34.093 19.152 33.928 21.572 33.541 21.538 32.908 19.076 32.514 16.858 32.159 17.136 31.449 19.583 31.22 21.851 31.007 21.893 30.113 19.635 30.113 16.968 30.113 16.142 29.117 18.507 28.751 19.504 28.596 21.43 28.148 22.787 27.755 25.393 27 27.097 27.203 27.097 28.268 27.097 28.669 26.311 29.027 24.994 29.224 22.601 29.584 22.133 30.614 24.366 30.607 26.456 30.6 26.596 31.647 24.557 32.03 22.387 32.437 22.313 33.52 24.472 33.268 25.39 33.161 26.199 33.32 26.402 33.648 26.792 34.282 25.832 35.066 24.761 34.987 23.405 34.887 22.891 35.047 22.891 35.574 22.891 36.178 27.631 35.781 28.901 35.071 29.774 34.582 31.124 35.198 32.321 36.631 33.394 37.913 33.375 38.704 32.206 41.431 30.603 45.171 28.789 46.688 27.284 45.545ZM11.78 45.221C11.09 44.389 9.788 40.511 10.095 40.204 10.611 39.688 13.601 43.508 13.455 44.496 13.278 45.694 12.465 46.046 11.78 45.221ZM16.16 43.583C15.53 42.956 14.453 40.053 14.744 39.763 15.142 39.363 17.837 42.493 17.63 43.113 17.405 43.789 16.62 44.04 16.16 43.583ZM20.09 41.963C17.61 39.33 18.04 38.433 20.936 40.198 21.872 40.769 22.428 41.448 22.339 41.911 22.105 43.115 21.196 43.136 20.089 41.962ZM24.358 40.543C22.429 39.066 22.402 39.011 23.552 38.869 25.212 38.664 27.332 39.776 27.332 40.853 27.332 42.268 26.499 42.181 24.358 40.543ZM15.058 37.386C14.736 36.871 14.478 34.962 14.478 33.099 14.478 30.626 14.273 29.515 13.701 28.883 12.737 27.818 13.131 27.359 14.676 27.747 16.56 28.22 16.944 29.517 16.576 34.162 16.396 36.446 16.111 38.315 15.943 38.315 15.775 38.315 15.376 37.897 15.057 37.386ZM15.345 24.209C15.309 23.869 15.333 22.125 15.4 20.332L15.52 17.074 13.596 18.814C11.496 20.709 10.851 20.922 10.44 19.853 10.273 19.416 11.242 17.946 13.026 15.934 14.596 14.164 15.88 12.559 15.88 12.369 15.88 12.179 15.28 12.142 14.546 12.289 13.314 12.535 12.14 11.974 12.14 11.139 12.14 10.949 12.93 10.728 13.893 10.649 15.427 10.521 15.64 10.357 15.601 9.335 15.576 8.692 15.395 7.798 15.2 7.348 14.926 6.718 15.067 6.53 15.813 6.53 16.851 6.53 17.749 7.78 17.749 9.224 17.749 9.842 18.067 10.099 18.801 10.073 20.357 10.018 20.143 11.405 18.567 11.586 17.539 11.704 17.282 11.973 17.282 12.929 17.282 13.969 17.378 14.043 18.027 13.505 18.437 13.165 19.857 12.876 21.182 12.863 23.57 12.84 23.593 12.826 23.742 11.27 23.85 10.143 23.597 9.385 22.843 8.582L21.793 7.465 23.266 7.465C25.09 7.465 26.355 9.109 25.906 10.897 25.616 12.05 25.676 12.088 27.637 11.998 29.165 11.928 29.669 12.078 29.669 12.6 29.669 12.982 29.248 13.359 28.734 13.436 26.221 13.816 25.696 14.071 25.696 14.908 25.696 15.662 25.958 15.754 27.505 15.547 28.635 15.395 29.442 15.511 29.655 15.857 30.129 16.624 29.719 16.914 27.692 17.244 26.491 17.439 25.886 17.803 25.772 18.4 25.624 19.167 25.81 19.233 27.321 18.95 28.404 18.746 29.282 18.83 29.699 19.176 30.741 20.04 30.024 20.553 27.771 20.553 25.969 20.553 25.696 20.683 25.696 21.541 25.696 22.468 25.858 22.51 28.291 22.206 31.005 21.866 32.239 22.335 32.239 23.703 32.239 24.283 31.731 24.346 29.212 24.077 27.305 23.873 25.221 23.968 23.579 24.336 21.121 24.886 20.915 24.861 19.959 23.904L18.944 22.89 21.384 22.89C23.514 22.89 23.826 22.77 23.826 21.955 23.826 21.237 23.514 21.02 22.481 21.02 21.741 21.02 20.885 20.718 20.579 20.35 20.114 19.789 20.316 19.654 21.803 19.531 23.094 19.425 23.629 19.147 23.748 18.521 23.878 17.839 23.711 17.721 22.958 17.961 22.395 18.139 21.368 17.918 20.46 17.421L18.918 16.58 21.485 16.346C23.528 16.16 24.085 15.931 24.22 15.226 24.366 14.454 24.176 14.373 22.755 14.604 21.675 14.779 20.775 14.626 20.1 14.153 18.406 12.966 17.564 14.737 17.282 20.08 17.085 23.823 16.92 24.54 16.23 24.672 15.78 24.758 15.382 24.55 15.345 24.209ZM15.305 15.149C15.149 14.992 14.769 15.355 14.461 15.955 13.925 16.999 13.938 17.012 14.746 16.24 15.21 15.796 15.462 15.305 15.306 15.148Z" fill="#8f8f8f"/>
    <path d="M11.81 45.225C11.55 44.895 11.005 43.625 10.599 42.403 9.886 40.263 9.891 40.198 10.729 40.647 12.096 41.378 13.598 43.542 13.447 44.561 13.277 45.696 12.445 46.033 11.809 45.225ZM26.864 45.3C26.607 45.054 25.871 44.443 25.228 43.941L24.06 43.031 26.424 43.298C28.974 43.586 29.312 43.333 30.724 40.077 31.204 38.967 31.14 38.642 30.228 37.583 29.192 36.379 29.145 36.371 26.152 36.924 24.487 37.233 22.197 37.654 21.062 37.859 18.882 38.255 16.557 37.707 17.048 36.913 17.207 36.656 18.166 36.445 19.179 36.445 20.525 36.445 21.021 36.251 21.021 35.726 21.021 35.266 20.644 35.04 19.97 35.098 18.215 35.248 17.282 35.068 17.282 34.575 17.282 34.318 17.755 34.105 18.334 34.101 20.08 34.091 21.539 33.553 21.333 32.997 21.226 32.708 20.863 32.537 20.526 32.617 19.609 32.836 17.749 32.282 17.749 31.79 17.749 31.553 18.522 31.294 19.466 31.215 21.893 31.01 22.009 30.029 19.607 30.029 16.745 30.029 16.273 29.154 18.922 28.756 20.119 28.576 21.976 28.12 23.047 27.742 25.135 27.005 27.284 27.237 26.977 28.165 26.873 28.477 25.912 28.92 24.84 29.149 22.534 29.643 22.178 30.773 24.36 30.671 26.42 30.574 26.566 31.591 24.547 31.97 22.31 32.39 22.347 33.53 24.595 33.46 25.581 33.43 26.385 33.653 26.504 33.99 26.642 34.386 26.176 34.575 25.061 34.575 23.488 34.575 22.468 35.242 23.089 35.865 23.249 36.025 24.976 35.888 26.926 35.56L30.471 34.965 31.823 36.26C33.42 37.79 33.477 38.445 32.253 41.213 30.499 45.179 28.401 46.769 26.864 45.3ZM16.15 43.573C15.527 42.954 14.456 40.05 14.744 39.763 15.234 39.273 17.74 42.468 17.454 43.216 17.156 43.991 16.697 44.116 16.15 43.573ZM19.62 41.119C18.06 39.15 18.327 38.799 20.52 39.933 21.886 40.639 22.624 41.82 22.164 42.563 21.687 43.335 21.118 43.011 19.619 41.119ZM24.307 40.503C22.42 39.059 22.397 39.011 23.552 38.869 25.062 38.682 27.275 39.726 27.466 40.713 27.733 42.103 26.27 42.006 24.307 40.503ZM15.295 37.393C14.71 36.565 14.477 35.333 14.477 33.053 14.477 30.861 14.233 29.496 13.694 28.673 12.928 27.503 12.935 27.481 13.998 27.638 14.596 27.726 15.494 28.348 15.994 29.02 16.814 30.122 16.864 30.648 16.508 34.395 16.116 38.519 16.108 38.54 15.295 37.393ZM15.36 24.209C15.332 23.869 15.352 22.137 15.406 20.361L15.503 17.131 13.503 18.841C11.298 20.729 10.836 20.884 10.444 19.863 10.281 19.439 11.275 17.941 13.03 15.967 14.597 14.203 15.88 12.617 15.88 12.442 15.88 12.267 15.295 12.169 14.581 12.223 13.867 12.278 13.025 12.163 12.711 11.969 11.595 11.279 12.167 10.737 14.011 10.737 15.768 10.737 15.88 10.654 15.88 9.362 15.88 8.606 15.67 7.858 15.412 7.699 14.627 7.214 14.892 6.53 15.863 6.53 17.013 6.53 17.903 8.115 17.488 9.423 17.232 10.228 17.325 10.353 17.988 10.098 18.887 9.754 20.226 10.601 19.82 11.258 19.68 11.485 19.05 11.672 18.423 11.672 17.513 11.672 17.282 11.912 17.282 12.857 17.282 13.945 17.368 13.995 18.334 13.465 18.912 13.148 20.437 12.877 21.722 12.865L24.06 12.84 23.928 11.225C23.855 10.336 23.454 9.231 23.035 8.768 22.038 7.666 22.584 7.178 24.185 7.738 25.266 8.115 25.484 8.488 25.605 10.162L25.749 12.142 27.533 11.856C29.395 11.559 30.323 12.144 29.313 12.98 28.994 13.243 28.103 13.53 27.331 13.617 26.313 13.732 25.89 14.051 25.785 14.786 25.654 15.709 25.801 15.776 27.477 15.551 28.631 15.396 29.44 15.509 29.655 15.856 30.135 16.633 29.781 16.856 27.604 17.148 26.116 17.348 25.696 17.603 25.696 18.308 25.696 19.085 25.978 19.192 27.682 19.065 29.202 18.952 29.669 19.081 29.669 19.618 29.669 20.108 29.072 20.362 27.682 20.463 26.028 20.583 25.696 20.769 25.696 21.579 25.696 22.485 25.874 22.53 28.322 22.242 31.045 21.922 32.239 22.362 32.239 23.685 32.239 24.245 31.701 24.309 29.224 24.043 27.338 23.841 25.321 23.933 23.84 24.288 21.731 24.794 21.333 24.762 20.195 23.99L18.918 23.123 21.646 22.983C23.869 22.867 24.324 22.708 24.1 22.126 23.95 21.733 23.826 21.323 23.826 21.216 23.826 21.108 23.391 21.02 22.86 21.02 22.33 21.02 21.435 20.759 20.874 20.439 19.925 19.899 20.002 19.841 21.952 19.621 23.462 19.451 24.095 19.155 24.207 18.566 24.332 17.905 24.02 17.746 22.575 17.733 21.592 17.725 20.395 17.421 19.916 17.058 19.126 16.46 19.279 16.385 21.548 16.255 23.491 16.145 24.086 15.929 24.206 15.295 24.336 14.616 24.012 14.476 22.318 14.476 21.193 14.476 20.019 14.222 19.708 13.911 19.266 13.469 18.966 13.596 18.329 14.495 17.748 15.317 17.449 16.911 17.282 20.08 17.085 23.823 16.92 24.54 16.23 24.672 15.78 24.758 15.389 24.55 15.36 24.209ZM15.88 14.871C15.88 14.017 15.064 14.543 14.513 15.753 13.933 17.026 13.934 17.027 14.906 16.148 15.441 15.663 15.88 15.088 15.88 14.871Z" fill="#6e6e6e"/>
    <path d="M11.804 45.225C11.072 44.304 10.138 41.096 10.496 40.738 11.045 40.189 13.608 43.46 13.453 44.509 13.279 45.69 12.457 46.046 11.804 45.225ZM26.184 44.567C25.295 43.936 24.502 43.353 24.421 43.272 24.339 43.191 25.285 43.222 26.521 43.34 29.021 43.58 29.431 43.297 30.591 40.521 31.266 38.904 31.249 38.769 30.197 37.547 29.121 36.295 29.042 36.279 26.578 36.811 22.598 37.671 19.308 37.988 17.94 37.644 16.276 37.227 17.021 36.547 19.35 36.359 21.9 36.153 22.16 35.043 19.658 35.043 18.608 35.043 17.749 34.833 17.749 34.575 17.749 34.318 18.259 34.108 18.879 34.108 20.493 34.108 21.489 33.643 21.489 32.889 21.489 32.436 20.892 32.239 19.526 32.239 17.343 32.239 17.562 31.475 19.816 31.222 21.809 31 21.892 29.995 19.918 29.995 19.028 29.995 17.942 29.794 17.503 29.548 16.883 29.201 17.251 29.028 19.143 28.778 20.483 28.6 22.385 28.133 23.368 27.739 24.748 27.187 25.378 27.144 26.139 27.551 27.471 28.264 27.025 28.784 24.771 29.144 22.466 29.513 22.126 30.776 24.361 30.671 25.171 30.633 25.921 30.864 26.035 31.186 26.155 31.528 25.852 31.771 25.305 31.771 23.857 31.771 22.891 32.271 22.891 33.021 22.891 33.491 23.182 33.611 23.826 33.407 24.916 33.06 26.63 33.508 26.63 34.139 26.63 34.379 25.812 34.575 24.81 34.575 23.642 34.575 22.897 34.821 22.728 35.261 22.304 36.364 22.956 36.427 26.798 35.653L30.428 34.923 31.801 36.239C32.556 36.962 33.174 37.909 33.174 38.343 33.174 39.436 31.533 43.04 30.35 44.544 29.157 46.061 28.295 46.065 26.184 44.567ZM15.398 42.025C14.856 40.963 14.5 40.005 14.608 39.899 15.024 39.482 17.282 41.702 17.282 42.528 17.282 44.189 16.379 43.948 15.398 42.025ZM19.619 41.119C18.06 39.15 18.327 38.799 20.52 39.933 21.886 40.639 22.624 41.82 22.164 42.563 21.687 43.335 21.118 43.011 19.619 41.119ZM23.935 40.171C22.653 39.004 22.555 38.782 23.321 38.782 25.283 38.782 27.535 40.086 27.558 41.236 27.576 42.096 25.323 41.433 23.935 40.171ZM14.961 36.943C14.695 36.446 14.477 34.6 14.477 32.84 14.477 30.651 14.239 29.301 13.722 28.563 12.997 27.527 13.009 27.491 14.026 27.641 14.608 27.727 15.483 28.333 15.969 28.986 16.739 30.022 16.811 30.668 16.533 34.011 16.209 37.894 15.839 38.583 14.961 36.943ZM15.494 21.019C15.577 18.962 15.521 17.279 15.368 17.279 15.215 17.28 14.69 17.723 14.2 18.263 13.711 18.803 12.728 19.547 12.016 19.916 10.88 20.503 10.688 20.499 10.45 19.879 10.28 19.434 11.231 17.99 13.03 15.967 14.597 14.203 15.88 12.633 15.88 12.477 15.88 12.323 15.107 12.13 14.163 12.051 13.219 11.971 12.355 11.628 12.243 11.289 12.133 10.95 12.326 10.712 12.675 10.76 13.024 10.808 13.887 10.823 14.595 10.792 15.693 10.745 15.88 10.537 15.88 9.362 15.88 8.606 15.67 7.858 15.412 7.699 14.552 7.168 14.932 6.463 15.997 6.615 16.844 6.735 17.077 7.108 17.195 8.539 17.315 10.003 17.488 10.267 18.18 10.047 18.642 9.901 19.263 10.074 19.56 10.433 19.998 10.96 19.832 11.138 18.692 11.366 17.552 11.594 17.282 11.884 17.282 12.879 17.282 13.765 17.472 14.036 17.964 13.847 18.48 13.649 18.412 14.034 17.684 15.431 16.884 16.965 16.777 17.746 17.044 20.05 17.409 23.193 17.077 24.76 16.046 24.76 15.464 24.76 15.368 24.11 15.494 21.019ZM15.88 14.862C15.88 14.01 15.098 14.561 14.271 15.995L13.397 17.515 14.638 16.381C15.321 15.758 15.88 15.074 15.88 14.862ZM20.057 23.869L18.918 22.921 21.606 22.905C23.976 22.892 24.293 22.78 24.293 21.955 24.293 21.263 23.982 21.02 23.094 21.02 22.434 21.02 21.435 20.759 20.874 20.439 19.925 19.899 20.002 19.841 21.952 19.621 23.462 19.451 24.095 19.155 24.207 18.566 24.333 17.899 24.021 17.748 22.515 17.748 21.477 17.748 20.424 17.453 20.109 17.074 19.637 16.505 19.901 16.378 21.805 16.256 23.695 16.136 24.083 15.951 24.202 15.116 24.332 14.2 24.177 14.136 22.314 14.346 20.812 14.516 20.121 14.38 19.66 13.825 19.102 13.152 19.284 13.074 21.404 13.074 22.706 13.074 23.904 12.859 24.067 12.595 24.5 11.894 23.862 9.438 23.031 8.606 22.054 7.63 22.633 7.194 24.186 7.737 25.273 8.117 25.483 8.484 25.608 10.207 25.752 12.207 25.772 12.229 27.244 11.96 29.067 11.626 30.262 12.194 29.34 12.957 29.007 13.233 28.103 13.53 27.331 13.617 26.305 13.733 25.891 14.05 25.783 14.801 25.651 15.73 25.823 15.819 27.603 15.736 30.372 15.607 30.549 16.659 27.827 17.067 26.133 17.321 25.696 17.574 25.696 18.3 25.696 19.086 25.972 19.193 27.682 19.065 29.202 18.952 29.669 19.081 29.669 19.618 29.669 20.108 29.072 20.362 27.682 20.463 26.03 20.583 25.696 20.77 25.696 21.575 25.696 22.479 25.876 22.523 28.43 22.234 30.606 21.988 31.288 22.074 31.769 22.652 32.718 23.796 32.002 24.04 27.651 24.059 25.419 24.069 23.053 24.243 22.394 24.447 21.495 24.724 20.911 24.58 20.057 23.869Z" fill="#4e4e4e"/>
    <path d="M26.183 44.567C25.295 43.936 24.516 43.367 24.451 43.302 24.386 43.238 25.429 43.193 26.767 43.204 29.199 43.222 29.202 43.221 30.369 41.012L31.536 38.802 30.312 37.577 29.088 36.353 24.738 37.1C19.808 37.947 17.92 38.033 17.546 37.429 17.214 36.891 18.384 36.445 20.125 36.445 21.025 36.445 21.489 36.207 21.489 35.744 21.489 35.237 20.969 35.043 19.619 35.043 17.255 35.043 17.158 34.213 19.499 34.019 20.721 33.918 21.294 33.628 21.402 33.056 21.529 32.386 21.192 32.228 19.537 32.182L17.516 32.126 19.502 31.648C22.083 31.028 22.176 29.901 19.647 29.901 17.032 29.901 16.887 29.131 19.429 28.751 20.605 28.574 22.409 28.133 23.439 27.769 24.792 27.292 25.563 27.243 26.218 27.593 27.474 28.266 26.985 28.79 24.771 29.144 22.424 29.519 22.062 30.906 24.359 30.721 25.207 30.652 25.915 30.849 26.034 31.186 26.168 31.564 25.773 31.773 24.916 31.778 24.188 31.782 23.302 31.968 22.948 32.193 21.976 32.809 22.829 33.757 24.073 33.445 24.668 33.295 25.486 33.301 25.893 33.457 27.256 33.981 26.647 34.575 24.746 34.575 23.479 34.575 22.771 34.811 22.585 35.297 22.12 36.509 22.684 36.572 26.711 35.756L30.59 34.97 31.882 36.416C32.592 37.211 33.174 38.136 33.174 38.473 33.174 39.663 30.387 44.816 29.481 45.301 28.266 45.951 28.074 45.909 26.184 44.567ZM11.466 44.742C11.368 44.42 11.058 43.44 10.777 42.562 10.497 41.685 10.367 40.866 10.491 40.743 11.064 40.17 13.543 43.494 13.543 44.835 13.543 45.531 11.68 45.447 11.466 44.742ZM15.285 41.581C14.536 39.676 14.765 39.569 16.464 41.029 17.43 41.859 17.554 43.456 16.652 43.456 16.305 43.456 15.69 42.612 15.285 41.581ZM19.631 41.134C18.045 39.132 18.384 38.744 20.584 40.043 22.201 40.998 22.584 41.807 21.746 42.502 21.264 42.902 20.787 42.594 19.631 41.134ZM24.293 40.184C22.545 38.713 23.063 38.337 25.539 39.279 26.934 39.809 27.649 40.606 27.273 41.214 26.854 41.891 25.95 41.579 24.293 40.184ZM14.955 36.932C14.685 36.428 14.495 34.645 14.531 32.968 14.579 30.796 14.369 29.571 13.801 28.705 13.023 27.518 13.029 27.493 14.045 27.644 14.617 27.728 15.465 28.324 15.929 28.966 16.645 29.956 16.731 30.723 16.494 33.991 16.21 37.894 15.844 38.593 14.955 36.931ZM15.57 24.028C15.415 23.626 15.398 21.943 15.53 20.288 15.663 18.634 15.639 17.289 15.475 17.3 15.312 17.31 14.45 17.941 13.56 18.702 11.89 20.13 10.262 20.527 10.282 19.501 10.289 19.18 11.551 17.586 13.087 15.959 14.623 14.332 15.88 12.755 15.88 12.453 15.88 12.134 15.167 11.905 14.17 11.905 11.931 11.905 11.64 10.997 13.843 10.882 16.198 10.76 16.613 10.197 15.698 8.363 14.85 6.664 15.061 6.081 16.253 6.828 16.69 7.101 17.116 8.008 17.198 8.843 17.319 10.07 17.518 10.317 18.233 10.13 18.719 10.003 19.361 10.192 19.659 10.551 20.099 11.081 19.975 11.204 19.003 11.204 17.673 11.204 17.547 11.336 17.098 13.215 16.806 14.435 16.853 14.489 17.77 13.998 18.669 13.517 18.71 13.553 18.25 14.415 17.972 14.935 17.515 15.501 17.234 15.675 16.919 15.869 16.764 17.438 16.83 19.79 16.888 21.88 16.909 23.854 16.875 24.175 16.789 25.001 15.905 24.902 15.57 24.028ZM15.88 15.124C15.88 14.047 15.196 14.392 14.291 15.924L13.436 17.372 14.658 16.572C15.33 16.132 15.88 15.48 15.88 15.124ZM20.06 23.841L18.918 22.861 20.087 22.927C23.37 23.113 24.293 22.9 24.293 21.955 24.293 21.25 23.977 21.016 23.008 21.005 22.301 20.997 21.314 20.682 20.815 20.305 19.975 19.669 20.072 19.618 22.101 19.618 23.981 19.618 24.293 19.485 24.293 18.683 24.293 17.909 23.982 17.748 22.481 17.748 21.44 17.748 20.421 17.45 20.087 17.047 19.582 16.439 19.824 16.346 21.899 16.346 24.125 16.346 24.293 16.266 24.293 15.206 24.293 14.175 24.145 14.092 22.721 14.323 21.797 14.473 20.69 14.316 20.034 13.943 18.973 13.339 19.044 13.296 21.489 13.074L24.059 12.84 24.005 11.077C23.975 10.105 23.575 8.897 23.115 8.389 22.31 7.499 22.312 7.466 23.169 7.479 24.747 7.506 25.696 8.624 25.696 10.459 25.696 12.16 25.716 12.179 27.448 12.043 28.756 11.94 29.201 12.083 29.201 12.607 29.201 13.079 28.631 13.355 27.448 13.453 25.955 13.576 25.696 13.763 25.696 14.71 25.696 15.716 25.88 15.813 27.632 15.733 28.829 15.679 29.647 15.868 29.774 16.229 29.901 16.587 29.559 16.816 28.89 16.819 26.82 16.832 25.696 17.363 25.696 18.329 25.696 19.162 25.906 19.236 27.537 18.975 28.691 18.791 29.499 18.875 29.7 19.202 30.148 19.927 29.02 20.537 27.215 20.546 25.975 20.551 25.695 20.737 25.695 21.554 25.695 22.496 25.858 22.539 28.422 22.271 30.965 22.005 32.239 22.381 32.239 23.396 32.239 23.572 30.189 23.824 27.682 23.956 25.176 24.088 22.692 24.337 22.163 24.509 21.52 24.718 20.823 24.497 20.06 23.841Z" fill="#2f2f2f"/>
    <path d="M26.183 44.567C25.295 43.936 24.523 43.375 24.468 43.321 24.413 43.267 25.45 43.222 26.772 43.222 29.123 43.222 29.2 43.178 30.297 41.195 31.274 39.43 31.342 39.024 30.82 38.048 29.945 36.413 29.068 36.308 23.66 37.189 20.804 37.655 18.422 37.825 17.915 37.599 17.148 37.259 17.182 37.196 18.217 37.049 20.766 36.689 21.489 36.399 21.489 35.735 21.489 35.233 20.948 35.043 19.526 35.043 17.326 35.043 17.57 34.276 19.849 34.027 20.731 33.93 21.304 33.572 21.402 33.057 21.527 32.399 21.206 32.229 19.77 32.19L17.983 32.142 19.736 31.676C21.846 31.116 22.113 29.901 20.125 29.901 17.057 29.901 17.039 29.25 20.09 28.609 25.03 27.572 26.497 27.438 26.839 27.991 27.189 28.558 26.751 28.758 24.254 29.171 21.955 29.55 21.912 30.909 24.205 30.73 25.143 30.656 25.913 30.837 26.025 31.156 26.149 31.506 25.565 31.765 24.443 31.858 23.158 31.964 22.62 32.243 22.503 32.864 22.363 33.595 22.6 33.7 24.09 33.564 25.15 33.469 25.916 33.625 26.03 33.961 26.15 34.31 25.562 34.57 24.443 34.662 23.143 34.769 22.62 35.045 22.499 35.687 22.348 36.482 22.546 36.535 24.598 36.246 25.844 36.071 27.556 35.709 28.401 35.443 30.167 34.886 31.935 35.733 32.752 37.526 33.588 39.36 30.129 45.873 28.383 45.753 28.062 45.731 27.073 45.197 26.183 44.567ZM11.017 43.143C10.608 41.943 10.326 40.908 10.39 40.844 10.984 40.25 13.731 44.175 13.257 44.942 12.659 45.91 11.697 45.138 11.017 43.143ZM15.272 41.548C14.569 39.758 14.572 39.677 15.318 40.24 17.194 41.654 17.941 43.456 16.652 43.456 16.305 43.456 15.684 42.597 15.272 41.548ZM19.482 40.885C18.764 39.985 18.344 39.25 18.547 39.251 19.416 39.255 21.957 41.165 21.957 41.813 21.957 43.015 20.85 42.6 19.482 40.885ZM24.293 40.121L22.657 38.693 24.293 39.025C26.188 39.41 27.098 40.032 27.098 40.943 27.098 41.967 26.06 41.663 24.293 40.121ZM14.981 36.774C14.725 36.1 14.559 34.196 14.613 32.544 14.691 30.152 14.529 29.336 13.821 28.551 13.084 27.734 13.055 27.564 13.652 27.564 14.049 27.564 14.844 27.944 15.419 28.41 16.363 29.174 16.457 29.636 16.392 33.191 16.315 37.401 15.758 38.817 14.982 36.774ZM15.622 24.254C15.45 23.975 15.459 22.156 15.642 20.211L15.972 16.675 13.892 18.38C10.745 20.958 8.814 20.48 11.556 17.803 13.75 15.661 15.88 13.01 15.88 12.422 15.88 12.054 15.313 11.926 14.244 12.05 11.964 12.317 12.171 11.36 14.477 10.97 16.539 10.622 16.863 9.812 15.641 8.067 15.171 7.397 15.1 6.957 15.428 6.754 16.235 6.256 17.282 7.481 17.282 8.924 17.282 10.048 17.475 10.269 18.451 10.269 19.093 10.269 19.619 10.479 19.619 10.737 19.619 10.994 19.116 11.204 18.501 11.204 17.361 11.204 16.815 11.974 16.815 13.58 16.815 14.616 17.293 14.724 18.199 13.892 18.549 13.571 18.381 13.972 17.825 14.782 16.971 16.028 16.815 16.917 16.815 20.508 16.815 24.402 16.44 25.578 15.622 24.254ZM15.802 14.955C16.01 13.558 15.159 14.109 14.177 16.007L13.417 17.479 14.531 16.742C15.144 16.337 15.716 15.532 15.802 14.955ZM19.79 23.541C18.963 22.877 18.974 22.857 20.01 23.144 21.873 23.659 24.293 22.976 24.293 21.934 24.293 21.239 23.971 21.02 22.948 21.02 22.208 21.02 21.341 20.705 21.021 20.319 20.521 19.715 20.707 19.618 22.366 19.618 23.982 19.618 24.293 19.467 24.293 18.683 24.293 17.937 23.982 17.748 22.747 17.748 21.896 17.748 20.792 17.415 20.293 17.008 19.429 16.305 19.428 16.283 20.266 16.551 20.75 16.706 21.855 16.699 22.72 16.537 23.987 16.299 24.293 16.024 24.293 15.12 24.293 14.086 24.155 14.02 22.54 14.27 21.334 14.457 20.496 14.317 19.853 13.823 18.979 13.15 19.093 13.103 21.606 13.089L24.293 13.074 24.293 11.501C24.293 10.618 23.869 9.388 23.324 8.697 22.21 7.28 22.953 6.999 24.657 8.193 25.427 8.732 25.696 9.39 25.696 10.731 25.696 12.501 25.725 12.533 27.036 12.157 28.672 11.687 30.068 12.344 28.967 13.067 28.582 13.32 27.687 13.53 26.981 13.534 25.909 13.54 25.696 13.744 25.696 14.761 25.696 15.838 25.836 15.945 26.904 15.677 28.324 15.32 30.032 15.757 29.648 16.38 29.5 16.618 28.883 16.813 28.277 16.813 26.545 16.813 25.696 17.303 25.696 18.301 25.696 19.056 25.97 19.198 27.221 19.091 29.187 18.921 30.487 19.617 29.171 20.133 28.673 20.328 27.688 20.502 26.981 20.52 25.989 20.545 25.696 20.781 25.696 21.553 25.696 22.484 25.87 22.535 28.228 22.292 29.968 22.112 31.03 22.226 31.617 22.655 32.087 22.999 32.367 23.375 32.239 23.488 32.11 23.602 29.453 23.818 26.334 23.968 21.701 24.191 20.502 24.112 19.79 23.541Z" fill="#030303"/>
</g>
</svg>
