<svg xmlns="http://www.w3.org/2000/svg" width="52.078" height="60">
<!--
Created by Hari Seldon and modified by orangain, licensed under Creative Commons Attribution-Share Alike 3.0 Unported.
See: https://creativecommons.org/licenses/by-sa/3.0/deed.en

Original file is available at: https://commons.wikimedia.org/wiki/File:Shogi_kinsho(svg).svg
-->
<filter id="drop-shadow">
    <feGaussianBlur in="SourceAlpha" result="blur" stdDeviation="2" />
    <feOffset result="offsetBlur" dx="2" dy="2" />
    <feBlend in="SourceGraphic" in2="offsetBlur" mode="normal" />
</filter>
<g filter="url(#drop-shadow)" transform="translate(5 5)">
    <path d="M20.942 0.777l13.51 3.76 6.878 45.133 -40.296 -0.48 6.358 -44.815z" fill="#FEEC99"/>
    <path d="M27.795 44.895C26.905 43.951 25.728 43.239 24.759 43.057 22.551 42.643 23.731 42.001 26.716 41.992 28.969 41.985 29.054 41.941 29.048 40.761 29.035 38.106 28.631 37.532 26.776 37.532 24.826 37.532 24.779 37.601 25.733 39.056 26.352 40.002 26.351 40.172 25.718 40.804 24.839 41.684 22.337 42.175 20.966 41.738 19.996 41.428 20.05 41.353 21.785 40.615 23.326 39.959 23.601 39.66 23.395 38.868 23.199 38.121 22.914 37.969 22.091 38.176 18.735 39.018 17.142 38.979 16.194 38.031 15.675 37.511 15.15 37.087 15.028 37.087 14.905 37.087 14.802 38.54 14.798 40.315 14.792 43.474 14.195 45.534 13.189 45.865 12.662 46.039 10.109 42.08 10.498 41.692 10.621 41.568 11.157 41.701 11.688 41.985 12.22 42.27 12.71 42.436 12.778 42.355 12.844 42.275 13.024 40.96 13.176 39.435L13.453 36.664 11.903 37.404C10.811 37.924 10.353 38.439 10.353 39.144 10.353 40.92 9.539 42.43 8.583 42.43 7.537 42.43 7.445 41.52 8.29 39.538 8.805 38.328 8.772 38.161 7.936 37.746 7.428 37.494 6.946 36.814 6.862 36.234 6.738 35.364 6.854 35.239 7.53 35.517 7.98 35.701 8.714 35.957 9.16 36.085 10.277 36.405 13.47 35.295 13.47 34.588 13.47 34.155 13.147 34.197 12.173 34.756 11.053 35.398 10.724 35.417 9.748 34.895 8.028 33.975 7.894 33.08 9.476 33.08 10.579 33.08 10.798 32.9 10.798 31.998 10.798 31.404 10.473 30.593 10.077 30.196 9.157 29.276 9.546 28.886 11.013 29.253 11.829 29.458 12.237 29.923 12.425 30.865 12.571 31.593 12.965 32.189 13.302 32.189 14.222 32.189 14.05 30.053 13.024 28.749 12.534 28.126 12.134 27.443 12.134 27.231 12.134 26.583 14.1 26.803 15.202 27.575 16.301 28.345 16.319 28.867 15.444 34.269L15.143 36.126 17.243 36.441C20.386 36.912 28.597 36.007 27.86 35.271 27.657 35.067 26.645 35.115 25.61 35.377 23.63 35.88 20.398 35.537 20.812 34.868 20.945 34.652 22.203 34.238 23.607 33.949 26.427 33.369 28.608 32.401 28.608 31.733 28.608 31.153 28.537 31.164 25.963 32.179 24.735 32.663 23.439 32.948 23.083 32.811 22.727 32.674 21.818 33.02 21.063 33.578 19.833 34.487 19.619 34.522 19.013 33.915 18.388 33.291 18.517 31.747 19.194 31.742 19.352 31.74 20.082 31.252 20.816 30.657L22.152 29.574 20.594 28.228 19.035 26.882 21.387 26.864C22.681 26.854 24.465 26.543 25.352 26.172 26.802 25.566 27.073 25.569 28.037 26.2 29.621 27.238 29.067 27.913 26.279 28.337 24.076 28.673 23.772 28.847 23.571 29.896 23.265 31.488 23.463 31.582 25.29 30.711 27.243 29.779 28.57 29.763 29.845 30.656 31.095 31.531 31.099 32.354 29.86 33.508 29.04 34.272 29.005 34.416 29.638 34.416 30.051 34.416 30.39 34.642 30.39 34.919 30.39 35.251 31.064 35.346 32.375 35.199 34.491 34.959 36.178 35.71 36.178 36.889 36.178 37.369 35.575 37.532 33.796 37.532L31.414 37.532 31.626 40.839C31.743 42.659 31.709 44.662 31.551 45.292 31.136 46.944 29.571 46.779 27.795 44.896ZM15.807 24.569C14.853 23.587 15.157 23.42 18.463 23.113 20.856 22.891 21.934 22.571 22.693 21.858 23.971 20.658 24.039 19.276 22.82 19.276 22.125 19.276 21.93 19.573 21.93 20.626 21.93 21.42 21.652 22.082 21.256 22.235 20.389 22.567 19.146 21.545 19.452 20.749 19.581 20.414 18.878 20.789 17.889 21.583 16.442 22.746 15.946 22.931 15.338 22.536 14.342 21.889 14.515 19.814 15.661 18.668 16.412 17.917 16.721 17.859 17.675 18.294 18.78 18.797 20.148 18.613 20.148 17.961 20.148 17.779 19.297 17.272 18.256 16.834L16.364 16.037 18.256 15.59C20.419 15.078 20.716 14.503 18.924 14.297 18.194 14.213 17.699 13.886 17.699 13.488 17.699 12.635 23.929 11.748 24.676 12.494 25.402 13.22 24.691 13.934 23.239 13.934 22.519 13.934 21.929 14.159 21.929 14.434 21.929 14.748 22.405 14.84 23.2 14.681 24.72 14.377 25.72 15.126 24.981 16.015 24.712 16.34 24.027 16.605 23.46 16.605 22.892 16.605 22.303 16.805 22.152 17.05 21.989 17.314 22.508 17.495 23.43 17.495 24.822 17.495 26.387 18.398 26.38 19.197 26.378 19.363 26.09 20.05 25.738 20.724 25.155 21.841 25.168 21.948 25.894 21.948 26.615 21.948 28.164 23.225 28.164 23.82 28.164 23.953 26.51 24.181 24.49 24.325 22.47 24.47 19.814 24.713 18.59 24.865 17.046 25.056 16.193 24.965 15.807 24.569ZM17.519 19.893C18.036 19.271 18.003 19.196 17.277 19.336 16.815 19.426 16.354 19.75 16.252 20.056 15.988 20.85 16.813 20.744 17.519 19.893ZM12.865 14.267C17.465 9.523 19.525 6.553 18.811 5.693 18.176 4.929 18.593 4.137 19.631 4.137 20.807 4.137 22.441 5.471 22.274 6.295 22.171 6.803 23.303 7.802 25.924 9.515 30.591 12.568 32.736 14.54 32.534 15.592 32.216 17.24 30.418 16.387 25.988 12.486 23.555 10.343 21.43 8.59 21.266 8.59 21.103 8.59 19.449 10.207 17.59 12.183 14.73 15.223 10.968 17.941 9.62 17.941 9.446 17.941 10.907 16.288 12.865 14.267Z" fill="#cfcfcf"/>
    <path d="M28.188 45.137C27.67 44.409 26.432 43.543 25.375 43.169 23.367 42.458 23.502 42.393 27.273 42.262 28.643 42.214 28.849 42.053 28.977 40.93 29.057 40.226 29.004 39.175 28.857 38.592 28.619 37.641 28.353 37.535 26.262 37.556 24.015 37.578 23.968 37.604 24.935 38.278 26.925 39.667 25.909 41.449 22.895 41.853 20.62 42.159 20.115 41.322 22.165 40.645 23.495 40.205 23.698 39.972 23.45 39.162 23.04 37.825 23.196 37.859 20.195 38.449 17.347 39.009 16.607 38.791 15.715 37.124 15.383 36.502 15.897 36.418 20.081 36.407 25.418 36.394 28.521 35.932 27.842 35.252 27.556 34.966 26.717 34.988 25.414 35.316 24.105 35.646 22.899 35.676 21.897 35.406L20.371 34.996 22.375 34.438C25.751 33.5 28.141 32.586 28.425 32.125 28.956 31.266 28.191 31.215 26.2 31.975 25.09 32.399 23.787 32.642 23.304 32.515 22.774 32.377 22.122 32.621 21.664 33.128 20.821 34.058 19.04 34.253 18.554 33.467 18.374 33.176 19.162 32.105 20.42 30.931 22.299 29.178 22.475 28.874 21.707 28.715 20.692 28.505 19.703 27.795 19.703 27.276 19.703 27.083 20.955 26.806 22.486 26.662 28.396 26.105 28.386 26.104 28.386 27.063 28.386 27.783 27.981 28.006 26.227 28.257 23.733 28.614 23.924 28.481 23.527 30.132 23.263 31.234 23.332 31.378 24.021 31.153 28.068 29.836 28.501 29.79 29.677 30.561 31.054 31.463 31.139 32.221 29.981 33.27 29.139 34.032 29.139 34.055 29.997 34.913 30.737 35.653 31.108 35.718 32.473 35.341 33.887 34.951 35.733 35.297 35.733 35.953 35.733 36.047 35.866 36.472 36.029 36.897 36.297 37.593 36.059 37.645 33.625 37.425L30.924 37.18 31.324 38.578C31.904 40.598 31.819 45.276 31.191 45.904 30.298 46.796 29.164 46.507 28.188 45.137ZM12.69 45.679C12.384 45.566 12.134 45.271 12.134 45.024 12.134 44.777 11.733 44.065 11.243 43.442 10.236 42.162 10.079 41.332 10.909 41.672L12.185 42.19C12.783 42.43 12.955 42.019 13.214 39.737 13.384 38.227 13.43 36.9 13.316 36.785 13.201 36.67 12.487 36.897 11.73 37.288 10.764 37.788 10.352 38.324 10.352 39.081 10.352 40.733 9.414 42.431 8.5 42.431 7.541 42.431 7.47 41.459 8.29 39.538 8.805 38.328 8.772 38.161 7.936 37.746 7.428 37.494 6.95 36.848 6.872 36.31 6.742 35.4 6.827 35.365 8.108 35.812 9.735 36.379 12.273 35.994 13.232 35.034 14.438 33.828 13.962 33.528 12.35 34.478 10.882 35.344 10.718 35.356 9.679 34.675 8.211 33.714 8.277 33.08 9.845 33.08 10.992 33.08 11.098 32.957 10.901 31.855 10.78 31.182 10.376 30.28 10.003 29.852 9.385 29.143 9.405 29.072 10.214 29.072 11.266 29.072 12.579 30.39 12.579 31.445 12.579 32.614 13.787 32.315 14.021 31.087 14.155 30.388 13.946 29.727 13.45 29.277 13.02 28.888 12.566 28.182 12.442 27.707 12.131 26.517 14.05 26.537 15.25 27.737 16.25 28.735 16.36 29.906 15.674 32.192 15.417 33.048 15.054 36.207 14.868 39.212 14.529 44.692 14.028 46.176 12.69 45.679ZM15.807 24.569C14.859 23.594 15.179 23.284 17.143 23.273 19.883 23.258 22.488 22.56 23.142 21.665 24.012 20.475 23.851 19.276 22.82 19.276 22.125 19.276 21.93 19.573 21.93 20.626 21.93 22.251 20.84 22.831 19.78 21.77 19.126 21.116 19.116 20.974 19.703 20.603 20.07 20.371 20.148 20.178 19.876 20.173 19.603 20.17 18.63 20.763 17.712 21.493 16.354 22.572 15.882 22.731 15.168 22.349 14.645 22.069 14.395 21.609 14.548 21.209 14.689 20.841 14.805 20.259 14.805 19.919 14.805 18.846 16.837 17.805 17.86 18.353 18.348 18.614 19.063 18.707 19.448 18.559 20.525 18.146 20.286 17.05 19.12 17.05 18.555 17.05 17.723 16.78 17.272 16.45 16.524 15.903 16.615 15.823 18.3 15.554 20.142 15.26 20.901 14.379 19.312 14.379 18.852 14.379 18.229 14.08 17.926 13.716 17.19 12.829 17.762 12.644 21.706 12.494 24.233 12.397 24.824 12.501 24.824 13.043 24.824 13.471 24.304 13.761 23.377 13.85 22.581 13.927 21.929 14.202 21.929 14.462 21.929 14.752 22.455 14.83 23.282 14.665 24.282 14.465 24.706 14.578 24.906 15.099 25.223 15.925 24.349 16.589 22.931 16.598 22.381 16.602 21.929 16.805 21.929 17.05 21.929 17.295 22.444 17.495 23.072 17.495 25.572 17.495 26.587 19.011 25.476 21.087 25.096 21.797 25.162 21.948 25.852 21.948 26.312 21.948 27.048 22.345 27.487 22.829 28.478 23.925 28.23 24.024 23.711 24.349 21.874 24.479 19.469 24.712 18.367 24.864 17.003 25.052 16.187 24.958 15.807 24.568ZM17.825 19.791C17.953 19.407 17.739 19.247 17.231 19.345 16.795 19.43 16.348 19.769 16.238 20.098 16.11 20.481 16.324 20.642 16.832 20.543 17.269 20.459 17.715 20.12 17.825 19.791ZM13.067 14.089C17.857 9.159 19.593 6.636 18.831 5.719 18.179 4.932 18.581 4.137 19.631 4.137 20.838 4.137 22.431 5.472 22.285 6.362 22.188 6.949 23.247 7.895 26.16 9.824 30.76 12.87 32.856 14.893 32.465 15.91 31.996 17.132 30.934 16.67 27.652 13.822 25.889 12.292 23.702 10.391 22.791 9.599L21.136 8.159 18.623 11.021C15.633 14.426 13.276 16.361 10.948 17.324 9.343 17.987 9.472 17.79 13.067 14.089Z" fill="#b0b0b0"/>
    <path d="M27.893 44.856C27.106 43.983 25.861 43.18 25 42.989 23.61 42.68 23.702 42.635 26.16 42.43 28.71 42.218 28.838 42.15 28.977 40.93 29.057 40.226 29.004 39.175 28.857 38.592 28.616 37.628 28.36 37.534 26.04 37.544L23.488 37.556 24.712 38.316C25.386 38.733 25.937 39.439 25.937 39.885 25.937 40.967 23.092 42.159 21.532 41.731 20.378 41.415 20.382 41.409 22.041 40.748 23.743 40.07 24.009 39.584 23.295 38.455 22.955 37.919 22.507 37.906 20.429 38.371 17.699 38.982 16.533 38.651 15.658 37.017 15.186 36.135 15.235 36.097 16.427 36.418 18.402 36.949 26.545 36.476 27.698 35.764 28.558 35.233 27.824 34.332 26.912 34.797 25.595 35.469 23.537 35.695 21.929 35.345L20.371 35.006 22.152 34.494C23.132 34.212 24.762 33.777 25.774 33.527 27.562 33.087 29.001 31.987 28.476 31.463 28.334 31.321 27.309 31.551 26.2 31.975 25.09 32.399 23.787 32.642 23.304 32.515 22.774 32.377 22.122 32.621 21.664 33.128 20.704 34.188 18.813 34.258 18.813 33.234 18.813 32.829 19.664 31.691 20.705 30.705 22.371 29.127 22.491 28.89 21.707 28.722 20.638 28.493 19.703 27.786 19.703 27.207 19.703 26.975 20.081 26.906 20.543 27.052 21.004 27.199 22.256 27.089 23.325 26.808 24.395 26.527 25.97 26.27 26.827 26.238 28.109 26.188 28.386 26.336 28.386 27.068 28.386 27.734 28.048 27.99 27.05 28.081 24.506 28.314 23.71 28.637 23.71 29.437 23.71 29.873 23.47 30.471 23.176 30.764 22.363 31.578 24.242 31.456 26.088 30.575 27.797 29.76 29.757 30.135 30.574 31.43 30.939 32.009 30.832 32.39 30.099 33.123 29.169 34.053 29.168 34.084 29.999 34.915 30.669 35.585 31.214 35.701 32.632 35.475 34.008 35.255 34.622 35.372 35.299 35.985 36.79 37.334 36.362 37.679 33.556 37.385L30.934 37.111 31.319 38.769C31.849 41.049 31.821 44.538 31.264 45.577 30.591 46.835 29.461 46.594 27.894 44.857ZM12.133 45.059C12.133 44.791 11.711 43.979 11.194 43.253 10.061 41.661 10.325 41.21 11.819 42.188L12.917 42.908 13.232 39.963C13.406 38.343 13.449 36.918 13.327 36.797 13.207 36.675 12.487 36.897 11.73 37.288 10.677 37.833 10.352 38.301 10.352 39.276 10.352 41 8.849 42.864 8.073 42.101 7.622 41.657 7.659 41.239 8.264 39.971 9.179 38.051 9.184 37.978 8.364 37.978 7.798 37.978 6.79 36.719 6.79 36.012 6.79 35.878 7.648 35.886 8.696 36.03 10.943 36.338 13.915 35.29 13.915 34.19 13.915 33.54 13.825 33.538 12.925 34.168 11.747 34.993 9.851 35.072 9.105 34.327 8.237 33.458 8.489 33.037 9.795 33.174 10.915 33.291 11.007 33.188 10.868 31.967 10.784 31.232 10.402 30.28 10.02 29.852 9.44 29.202 9.43 29.072 9.962 29.072 11.128 29.072 12.579 30.437 12.579 31.532 12.579 32.271 12.774 32.532 13.203 32.367 14.273 31.957 14.408 30.294 13.453 29.278 11.567 27.27 13.142 25.868 15.166 27.754 16.299 28.809 16.345 29.656 15.464 33.302 15.109 34.772 14.816 37.618 14.812 39.627 14.804 43.644 14.207 45.547 12.952 45.547 12.502 45.547 12.134 45.327 12.134 45.059ZM15.909 24.326C15.111 23.53 15.189 23.497 18.62 23.187 21.454 22.931 22.306 22.679 22.931 21.913 23.87 20.764 23.942 19.461 23.086 19.133 22.226 18.803 21.929 19.205 21.929 20.7 21.929 22.253 20.816 22.807 19.779 21.77 19.134 21.124 19.122 20.972 19.69 20.62 20.05 20.398 20.222 20.092 20.07 19.941 19.92 19.791 19.098 20.281 18.244 21.031 16.174 22.848 14.805 22.859 14.805 21.058 14.805 20.318 15.2 19.327 15.689 18.838 16.426 18.1 16.754 18.036 17.664 18.451 18.953 19.038 20.148 18.691 20.148 17.732 20.148 17.317 19.747 17.05 19.12 17.05 18.555 17.05 17.723 16.78 17.272 16.45 16.524 15.903 16.615 15.823 18.3 15.554 20.142 15.26 20.901 14.378 19.312 14.378 18.852 14.378 18.241 14.095 17.953 13.748 17.538 13.248 17.596 13.071 18.233 12.894 20.043 12.39 23.974 12.172 24.547 12.544 25.467 13.143 24.724 13.934 23.239 13.934 22.4 13.934 21.929 14.162 21.929 14.57 21.929 15.068 22.225 15.122 23.289 14.817 24.354 14.511 24.705 14.576 24.912 15.116 25.223 15.926 24.339 16.588 22.932 16.598 22.38 16.602 21.929 16.805 21.929 17.05 21.929 17.295 22.444 17.495 23.072 17.495 25.811 17.495 26.875 19.675 25.035 21.515L24.133 22.416 25.263 22.132C26.452 21.834 27.718 22.539 27.718 23.499 27.718 23.874 26.467 24.144 23.822 24.342 21.679 24.502 19.207 24.748 18.328 24.889 17.128 25.082 16.526 24.941 15.909 24.326ZM17.825 19.791C17.953 19.407 17.739 19.247 17.231 19.345 16.795 19.43 16.348 19.769 16.238 20.098 16.11 20.481 16.324 20.642 16.832 20.543 17.269 20.459 17.715 20.12 17.825 19.791ZM12.908 14.401C14.665 12.698 16.852 10.178 17.766 8.801 19.19 6.655 19.352 6.171 18.888 5.429 18.448 4.725 18.469 4.516 18.998 4.313 20.084 3.896 22.152 5.157 22.152 6.237 22.152 6.966 23.161 7.871 26.22 9.888 28.457 11.363 30.803 13.183 31.433 13.932 32.561 15.272 32.606 16.605 31.523 16.605 31.219 16.605 28.786 14.704 26.116 12.38L21.262 8.156 18.145 11.51C15.04 14.851 11.61 17.49 10.367 17.493 10.007 17.494 11.151 16.103 12.908 14.4Z" fill="#909090"/>
    <path d="M28.494 45.265C27.944 44.62 26.694 43.723 25.714 43.271L23.934 42.45 26.494 42.44 29.054 42.43 29.047 40.315C29.043 39.152 28.893 37.977 28.713 37.705 28.367 37.181 24.218 37.522 19.973 38.424 18.193 38.802 17.601 38.76 16.745 38.199 15.253 37.222 15.32 36.076 16.835 36.652 17.581 36.936 19.465 36.924 22.29 36.619 27.412 36.066 28.275 35.846 28.02 35.157 27.915 34.872 27.554 34.719 27.217 34.818 26.88 34.918 25.325 35.093 23.761 35.208 20.198 35.471 20.414 34.742 24.116 34.014 26.741 33.497 29.134 32.124 28.507 31.495 28.329 31.317 27.267 31.52 26.146 31.948 25.026 32.376 23.704 32.62 23.209 32.491 22.662 32.348 21.972 32.591 21.451 33.113 20.98 33.584 20.193 33.97 19.703 33.97 18.224 33.97 18.663 32.458 20.593 30.907 22.522 29.357 22.836 28.627 21.573 28.627 21.133 28.627 20.525 28.381 20.224 28.079 19.79 27.646 20.306 27.411 22.695 26.955 24.355 26.638 26.263 26.261 26.934 26.117 27.835 25.924 28.229 26.055 28.446 26.619 28.83 27.621 27.912 28.167 25.826 28.175 24.366 28.181 24.084 28.362 23.562 29.629 22.806 31.462 23.36 31.676 26.125 30.62 27.808 29.978 28.251 29.958 29.313 30.475 30.993 31.294 31.103 31.962 29.775 33.29 28.987 34.078 28.848 34.416 29.311 34.416 29.675 34.416 30.091 34.725 30.236 35.103 30.444 35.644 30.916 35.727 32.466 35.495 34.006 35.264 34.619 35.369 35.295 35.98 36.637 37.195 35.901 37.656 33.167 37.315 30.897 37.031 30.734 37.07 31.04 37.827 31.636 39.3 31.82 43.961 31.333 45.213 30.734 46.753 29.777 46.771 28.494 45.265ZM11.491 43.725C10.114 41.645 10.226 41.145 11.834 42.198L12.948 42.928 13.263 39.988C13.436 38.37 13.472 36.941 13.343 36.812 13.213 36.682 12.514 36.882 11.79 37.257 10.78 37.78 10.408 38.345 10.194 39.681 9.883 41.626 8.815 42.852 8.077 42.114 7.765 41.802 7.847 41.112 8.339 39.936 8.81 38.808 8.895 38.16 8.584 38.056 7.92 37.835 6.79 36.656 6.79 36.186 6.79 35.97 7.756 35.908 8.937 36.048 11.329 36.331 13.915 35.348 13.915 34.156 13.915 33.548 13.809 33.549 12.925 34.168 11.747 34.993 9.851 35.072 9.105 34.327 8.258 33.479 8.476 33.128 9.795 33.219 10.908 33.295 11.006 33.179 10.868 31.967 10.784 31.232 10.402 30.28 10.02 29.852 9.44 29.202 9.43 29.072 9.962 29.072 11.145 29.072 12.579 30.436 12.579 31.562 12.579 32.528 12.69 32.606 13.469 32.189 14.609 31.579 14.609 30.211 13.469 29.072 11.49 27.093 12.932 26.044 15.086 27.896L16.306 28.946 15.556 32.361C15.143 34.24 14.806 37.344 14.806 39.26 14.806 42.992 14.178 45.547 13.262 45.547 12.952 45.547 12.155 44.727 11.492 43.725ZM21.097 41.591C20.649 41.303 20.927 41.054 22.138 40.654 23.426 40.229 23.741 39.924 23.569 39.266 23.267 38.111 23.822 37.883 24.974 38.689 26.75 39.934 26.004 41.101 23.043 41.709 22.308 41.86 21.433 41.807 21.097 41.591ZM16.005 24.27C15.235 23.42 15.285 23.399 18.577 23.187 22.405 22.942 23.842 22.089 23.62 20.194 23.425 18.527 21.932 18.377 21.923 20.023 21.913 21.948 21.348 22.59 20.205 21.978 19.142 21.41 18.979 20.786 19.815 20.488 20.121 20.378 20.242 20.149 20.084 19.978 19.926 19.807 19.098 20.28 18.244 21.03 16.276 22.758 14.805 22.853 14.805 21.25 14.805 19.012 15.543 18.334 17.821 18.478 19.502 18.584 19.925 18.461 20.054 17.829 20.151 17.358 19.945 17.05 19.534 17.05 19.16 17.05 18.3 16.8 17.622 16.494L16.39 15.937 18.154 15.714C19.331 15.566 19.964 15.244 20.059 14.747 20.161 14.211 19.967 14.064 19.364 14.222 18.904 14.342 18.282 14.144 17.981 13.782 17.524 13.232 17.64 13.083 18.68 12.884 22.486 12.154 23.775 12.097 24.415 12.628 25.228 13.302 24.527 13.916 22.931 13.926 22.361 13.93 21.929 14.208 21.929 14.573 21.929 15.056 22.312 15.151 23.488 14.96 24.72 14.76 25.046 14.855 25.046 15.413 25.046 15.868 24.491 16.223 23.488 16.412 22.554 16.587 21.929 16.964 21.929 17.352 21.929 17.782 22.209 17.912 22.761 17.737 23.219 17.592 24.121 17.673 24.765 17.918 26.239 18.478 26.31 19.935 24.935 21.399L23.933 22.466 25.163 22.157C26.453 21.834 27.718 22.498 27.718 23.5 27.718 23.88 26.432 24.14 23.599 24.332 21.334 24.486 18.875 24.73 18.135 24.874 17.136 25.069 16.586 24.913 16.005 24.27ZM17.922 19.706C17.922 19.47 17.522 19.276 17.032 19.276 16.432 19.276 16.141 19.573 16.141 20.183 16.141 20.951 16.277 21.016 17.031 20.613 17.521 20.35 17.922 19.943 17.922 19.706ZM12.64 14.709C17.447 10.189 19.873 6.529 18.867 5.316 18.048 4.33 19.505 4.012 21.09 4.832 22.049 5.328 22.349 5.744 22.165 6.322 21.965 6.952 22.705 7.642 25.555 9.495 30.484 12.697 32.171 14.238 32.171 15.538 32.171 16.132 31.907 16.605 31.575 16.605 31.248 16.605 28.795 14.702 26.125 12.375L21.271 8.146 17.704 11.872C14.656 15.056 11.314 17.506 10.036 17.492 9.843 17.489 11.015 16.237 12.64 14.709Z" fill="#6f6f6f"/>
    <path d="M28.163 44.88C27.318 44.008 26.021 43.118 25.28 42.903 24.11 42.563 24.271 42.505 26.516 42.471L29.098 42.431 28.965 39.871 28.831 37.31 26.382 37.468C25.035 37.555 22.483 37.876 20.711 38.182 18.004 38.649 17.345 38.637 16.592 38.11 15.025 37.012 15.454 36.258 17.365 36.749 19.745 37.359 27.941 36.242 27.941 35.306 27.941 34.929 27.65 34.716 27.273 34.818 26.905 34.918 25.303 35.068 23.711 35.154 20.484 35.328 20.871 34.94 25.079 33.783 27.77 33.043 30.022 31.299 28.287 31.299 27.789 31.299 26.625 31.615 25.701 32.001 24.777 32.387 23.635 32.602 23.165 32.479 22.667 32.349 21.949 32.615 21.451 33.113 20.389 34.175 18.813 34.247 18.813 33.233 18.813 32.829 19.614 31.811 20.593 30.973 21.573 30.134 22.375 29.307 22.375 29.135 22.375 28.963 21.724 28.551 20.928 28.22L19.48 27.618 22.04 27.248C23.448 27.045 25.02 26.654 25.532 26.379 26.681 25.764 28.609 26.189 28.609 27.057 28.609 27.652 27.706 27.931 24.601 28.295 23.985 28.367 23.541 28.678 23.605 28.99 23.67 29.3 23.519 29.934 23.27 30.4 22.625 31.605 23.414 31.92 25.011 31.094 26.378 30.387 28.447 30.204 29.685 30.678 30.739 31.083 30.557 32.959 29.405 33.576L28.419 34.103 29.404 34.468C29.946 34.668 30.39 35.062 30.39 35.342 30.39 35.696 31.014 35.759 32.421 35.548 34.551 35.228 35.733 35.729 35.733 36.951 35.733 37.476 35.262 37.538 33.213 37.281 31.031 37.009 30.729 37.061 30.961 37.665 31.493 39.051 31.755 43.573 31.378 44.879 30.845 46.732 29.958 46.732 28.163 44.879ZM12.08 44.545C11.788 43.995 11.24 43.067 10.862 42.485L10.175 41.425 11.545 42.133 12.913 42.841 13.186 41.189C13.336 40.279 13.462 38.801 13.464 37.903L13.469 36.271 11.739 37.219C10.787 37.74 10.098 38.401 10.208 38.689 10.474 39.383 9.181 42.43 8.62 42.43 7.757 42.43 7.662 41.556 8.348 39.915 8.968 38.43 8.97 38.21 8.368 37.873 7.996 37.665 7.487 37.111 7.236 36.643 6.81 35.846 6.917 35.808 8.932 36.047 11.329 36.331 13.915 35.35 13.915 34.157 13.915 33.567 13.735 33.581 12.59 34.257 11.579 34.855 10.98 34.94 10.066 34.617 8.44 34.042 8.278 33.262 9.79 33.284 10.898 33.301 11.005 33.169 10.866 31.967 10.781 31.232 10.502 30.376 10.246 30.063 9.569 29.238 10.126 28.92 11.221 29.506 11.741 29.784 12.279 30.578 12.417 31.269 12.61 32.235 12.865 32.476 13.514 32.307 14.656 32.007 14.628 29.946 13.469 28.953 12.412 28.048 12.297 26.846 13.267 26.846 14.11 26.846 16.147 28.816 16.125 29.609 16.116 29.926 15.819 31.388 15.465 32.857 15.109 34.327 14.815 37.032 14.81 38.868 14.794 44.466 13.482 47.194 12.08 44.545ZM21.93 40.902C23.087 40.478 23.478 40.081 23.45 39.356 23.404 38.153 24.917 38.218 25.669 39.451 26.385 40.627 24.92 41.548 22.401 41.506L20.371 41.472 21.929 40.902ZM16.002 24.267C15.236 23.42 15.288 23.399 18.559 23.189 20.424 23.069 22.221 22.706 22.631 22.365 23.66 21.512 24.138 20.049 23.605 19.388 22.797 18.386 21.929 18.761 21.929 20.112 21.929 21.879 20.929 22.665 19.94 21.676 19.349 21.085 19.313 20.854 19.769 20.572 20.086 20.376 20.232 20.102 20.093 19.962 19.953 19.824 19.08 20.314 18.152 21.052 16.022 22.745 14.805 22.817 14.805 21.251 14.805 19.524 15.597 18.386 16.798 18.386 17.388 18.386 17.994 18.586 18.145 18.832 18.53 19.454 20.148 18.541 20.148 17.702 20.148 17.344 19.786 17.05 19.343 17.05 18.9 17.05 18.149 16.756 17.673 16.396 16.863 15.784 16.913 15.742 18.479 15.728 19.875 15.717 20.149 15.561 20.149 14.776 20.149 14.154 19.938 13.919 19.524 14.078 19.18 14.209 18.529 14.037 18.077 13.694 17.624 13.351 17.455 13.064 17.699 13.054 17.944 13.044 19.417 12.829 20.973 12.577 23.095 12.233 23.962 12.252 24.445 12.652 25.23 13.304 24.505 13.916 22.931 13.926 22.361 13.93 21.929 14.208 21.929 14.573 21.929 15.056 22.312 15.151 23.488 14.96 25.679 14.605 25.679 15.942 23.488 16.353 21.238 16.775 21.454 17.855 23.822 18.026 25.421 18.142 25.737 18.326 25.862 19.209 25.952 19.842 25.602 20.701 24.972 21.389L23.933 22.525 25.007 22.26C26.251 21.952 27.718 22.602 27.718 23.463 27.718 23.897 26.561 24.126 23.377 24.32 20.989 24.466 18.529 24.708 17.91 24.858 17.113 25.051 16.556 24.878 16.002 24.267ZM17.388 20.523C18.173 19.738 18.041 19.276 17.032 19.276 16.438 19.276 16.141 19.573 16.141 20.167 16.141 21.177 16.603 21.308 17.388 20.523ZM13.144 14.267C16.494 10.982 19.258 7.363 19.258 6.261 19.258 5.926 19.018 5.411 18.724 5.117 18.308 4.701 18.499 4.583 19.582 4.583 21.202 4.583 22.376 5.562 22.108 6.69 21.971 7.269 22.611 7.87 24.533 8.962 28.927 11.46 32.171 14.236 32.171 15.498 32.171 16.107 31.918 16.605 31.611 16.605 31.301 16.605 28.851 14.69 26.165 12.349L21.28 8.093 17.692 11.846C14.708 14.968 11.32 17.496 10.12 17.496 9.973 17.496 11.333 16.043 13.144 14.267Z" fill="#4f4f4f"/>
    <path d="M28.358 45.048C27.638 44.283 26.449 43.389 25.714 43.062 24.382 42.467 24.384 42.465 26.679 42.448 27.946 42.438 29.053 42.21 29.143 41.939 29.233 41.669 29.199 40.517 29.068 39.379 28.832 37.341 28.805 37.311 27.271 37.376 26.415 37.412 23.769 37.694 21.391 38.002 16.898 38.584 15.696 38.335 15.696 36.82 15.696 36.337 15.919 36.318 16.81 36.724 17.653 37.107 19.177 37.092 23.051 36.66 25.871 36.346 28.272 35.935 28.388 35.748 28.858 34.988 27.392 34.392 26.185 34.851 25.527 35.101 24.05 35.293 22.902 35.276 20.504 35.241 21.002 34.905 25.13 33.768 27.693 33.063 29.265 32.001 28.817 31.276 28.683 31.059 27.541 31.287 26.279 31.785 25.018 32.282 23.563 32.582 23.045 32.452 22.441 32.301 21.835 32.53 21.353 33.093 20.94 33.576 20.2 33.97 19.707 33.97 18.453 33.97 18.552 32.462 19.863 31.603 22.1 30.137 23.063 28.627 21.761 28.627 21.424 28.627 20.899 28.327 20.594 27.959 20.122 27.391 20.239 27.291 21.379 27.291 22.115 27.291 23.752 26.957 25.016 26.549 27.148 25.86 27.368 25.859 28.046 26.539 29.004 27.496 28.785 27.654 25.926 28.066 23.632 28.396 23.509 28.482 23.206 29.964 23.031 30.817 22.976 31.603 23.082 31.709 23.189 31.816 23.982 31.567 24.844 31.156 26.447 30.391 28.428 30.196 29.685 30.678 30.742 31.084 30.556 32.959 29.397 33.58L28.404 34.111 29.397 34.554C29.943 34.798 30.39 35.189 30.39 35.424 30.39 35.68 31.208 35.73 32.421 35.548 34.512 35.234 35.733 35.728 35.733 36.887 35.733 37.326 35.129 37.406 33.268 37.214L30.804 36.959 31.154 38.916C31.668 41.796 31.458 45.606 30.761 46.048 29.884 46.604 29.782 46.562 28.358 45.048ZM11.725 43.952C10.695 42.206 10.782 41.494 11.911 42.43 12.291 42.745 12.705 42.898 12.834 42.77 13.101 42.502 13.826 36.197 13.589 36.197 12.882 36.197 9.891 38.129 9.944 38.551 10.2 40.567 9.144 42.837 8.218 42.264 7.869 42.049 7.908 41.452 8.353 40.193 8.953 38.493 8.933 38.379 7.836 37.283 6.456 35.903 6.616 35.636 8.496 36.175 10.446 36.735 13.915 35.582 13.915 34.374 13.915 33.341 13.742 33.326 12.344 34.242 11.146 35.027 9.261 34.805 8.889 33.835 8.724 33.405 9.022 33.3 10.001 33.444 11.311 33.636 11.332 33.609 11.017 32.136 10.84 31.308 10.489 30.376 10.237 30.063 9.611 29.286 9.937 29.103 11.141 29.559 11.757 29.792 12.252 30.445 12.411 31.234 12.61 32.233 12.861 32.477 13.514 32.307 14.656 32.007 14.628 29.946 13.469 28.953 12.387 28.026 12.252 26.625 13.283 27.021 13.671 27.17 14.167 27.291 14.386 27.291 14.606 27.291 15.094 27.764 15.472 28.341 16.089 29.283 16.092 29.684 15.489 32.237 15.12 33.803 14.804 36.687 14.787 38.646 14.754 42.289 14.085 45.13 13.19 45.421 12.915 45.511 12.255 44.85 11.725 43.951ZM21.929 40.947C22.963 40.552 23.537 40.018 23.634 39.361 23.803 38.213 24.919 38.241 25.657 39.413 26.387 40.573 25.464 41.195 22.735 41.381L20.371 41.542 21.929 40.947ZM16.115 24.219L15.028 23.314 17.782 23.299C21.131 23.281 22.54 22.789 23.517 21.298 24.117 20.382 24.154 20.034 23.709 19.497 22.799 18.401 21.929 18.702 21.929 20.112 21.929 21.582 21.064 22.514 20.197 21.978 19.831 21.752 19.722 21.256 19.908 20.668 20.316 19.384 19.876 19.478 18.077 21.058 16.218 22.689 14.805 22.828 14.805 21.379 14.805 19.128 16.969 17.624 18.31 18.943 18.764 19.389 19.055 19.28 19.78 18.391L20.686 17.283 19.376 17.015C16.988 16.526 16.643 15.958 18.586 15.715 19.812 15.561 20.408 15.25 20.511 14.712 20.626 14.107 20.353 13.933 19.291 13.933 18.538 13.933 17.922 13.763 17.922 13.553 17.922 13.113 23.677 12.079 24.23 12.42 24.975 12.881 24.57 13.424 23.265 13.71 22.522 13.874 21.929 14.294 21.929 14.657 21.929 15.161 22.283 15.243 23.488 15.017 24.706 14.788 25.046 14.87 25.046 15.393 25.046 15.803 24.446 16.173 23.488 16.353 21.241 16.774 21.454 17.855 23.818 18.026 26.119 18.193 26.501 19.186 25.029 21.176L24.035 22.52 25.137 22.244C26.351 21.939 28.026 22.871 27.575 23.6 27.421 23.849 25.437 24.167 23.165 24.307 20.894 24.447 18.623 24.688 18.119 24.843 17.527 25.024 16.819 24.803 16.115 24.219ZM17.65 20.222C18.344 19.454 18.347 19.364 17.678 19.107 16.71 18.736 16.141 19.137 16.141 20.193 16.141 21.284 16.679 21.294 17.65 20.222ZM13.535 14.045C16.637 10.811 19.258 7.247 19.258 6.261 19.258 5.926 19.018 5.411 18.724 5.117 18.308 4.701 18.494 4.583 19.56 4.583 21.069 4.583 22.166 5.551 21.784 6.546 21.617 6.981 22.491 7.752 24.517 8.956 29.239 11.765 32.171 14.282 32.171 15.53 32.171 16.121 32.006 16.605 31.805 16.605 31.329 16.605 29.118 14.879 24.816 11.15 22.909 9.497 21.19 8.145 20.996 8.145 20.803 8.145 20.342 8.575 19.973 9.103 18.023 11.886 12.26 17.05 11.103 17.05 10.855 17.05 11.949 15.698 13.535 14.045Z" fill="#2f2f2f"/>
    <path d="M28.399 44.922C27.525 44.049 26.263 43.181 25.594 42.993 24.56 42.703 24.744 42.62 26.827 42.43L29.277 42.208 29.124 39.758C29.041 38.412 28.896 37.232 28.804 37.138 28.711 37.043 26.876 37.21 24.726 37.508 16.683 38.628 16.726 38.627 16.156 37.559 15.656 36.627 15.699 36.602 17.257 36.895 18.948 37.212 28.614 36.282 28.602 35.803 28.598 35.653 28.419 35.251 28.204 34.912 27.891 34.417 27.527 34.395 26.364 34.801 24.68 35.387 21.1 35.488 21.729 34.931 21.962 34.725 23.299 34.311 24.699 34.011 27.595 33.393 29.561 32.097 28.793 31.315 28.441 30.955 27.738 31.068 26.197 31.728 25.035 32.226 23.641 32.522 23.099 32.386 22.44 32.221 21.838 32.443 21.284 33.055 20.829 33.558 20.198 33.97 19.883 33.97 18.511 33.97 18.873 32.868 20.881 30.933 22.818 29.066 22.942 28.835 22.073 28.712 21.54 28.636 20.864 28.285 20.571 27.932 20.123 27.392 20.327 27.292 21.866 27.292 22.871 27.292 24.5 26.968 25.488 26.573 26.925 25.998 27.415 25.964 27.946 26.405 29.092 27.356 28.687 27.683 25.986 27.989 23.396 28.282 23.362 28.304 23.106 29.88 22.964 30.757 22.937 31.564 23.046 31.674 23.156 31.783 24.108 31.544 25.163 31.14 28.134 30.006 30.39 30.257 30.39 31.723 30.39 32.148 29.995 32.853 29.512 33.291 28.642 34.078 28.644 34.093 29.761 34.971 30.649 35.67 31.268 35.796 32.691 35.568 34.526 35.275 35.733 35.781 35.733 36.844 35.733 37.223 35.03 37.324 33.373 37.187L31.013 36.992 31.195 41.174C31.344 44.579 31.249 45.464 30.683 45.934 30.093 46.424 29.748 46.271 28.399 44.922ZM11.767 43.73C10.737 41.925 10.737 41.921 11.694 42.434 12.223 42.716 12.756 42.847 12.878 42.724 13.15 42.453 13.915 36.494 13.705 36.284 13.623 36.202 12.735 36.554 11.731 37.065 10.199 37.847 9.907 38.213 9.907 39.352 9.907 40.858 9.217 42.43 8.556 42.43 7.919 42.43 8.036 40.781 8.773 39.354 9.387 38.167 9.363 38.076 8.328 37.604 7.728 37.33 7.236 36.812 7.236 36.452 7.236 35.916 7.481 35.883 8.595 36.272 10.637 36.983 13.915 35.66 13.915 34.124L13.915 33.015 12.741 33.938C11.355 35.028 10.228 35.116 9.462 34.193 8.993 33.628 9.088 33.525 10.075 33.525 11.376 33.525 11.377 33.523 10.834 31.187 10.614 30.238 10.614 29.517 10.834 29.517 11.449 29.517 12.686 31.656 12.368 32.17 12.047 32.69 12.593 32.772 13.656 32.364 14.656 31.98 14.527 30.153 13.39 28.614 12.213 27.024 12.523 26.556 14.215 27.371 15.361 27.924 15.468 28.176 15.415 30.195 15.307 34.228 14.33 43.526 13.905 44.545 13.322 45.946 12.953 45.805 11.767 43.73ZM22.263 40.876C23.22 40.46 23.711 39.938 23.711 39.336 23.711 38.244 24.702 38.14 25.534 39.142 26.046 39.758 25.983 39.981 25.094 40.7 24.488 41.19 23.384 41.533 22.437 41.522L20.817 41.505 22.263 40.876ZM16.093 24.225L15.03 23.364 17.255 23.42C20.904 23.512 22.533 23 23.432 21.477 24.363 19.901 24.122 18.831 22.834 18.831 22.194 18.831 21.927 19.125 21.923 19.833 21.913 21.235 21.253 22.125 20.451 21.818 20.021 21.653 19.861 21.22 20.012 20.64 20.338 19.393 19.95 19.481 17.919 21.114 15.297 23.221 13.569 21.791 15.643 19.23 16.388 18.31 16.613 18.256 17.668 18.736 19.145 19.409 19.055 19.416 19.894 18.576 20.767 17.704 20.793 17.05 19.954 17.05 19.604 17.05 18.752 16.813 18.062 16.523L16.809 15.995 18.586 15.743C19.797 15.572 20.41 15.243 20.511 14.713 20.626 14.107 20.353 13.933 19.291 13.933 18.538 13.933 17.922 13.771 17.922 13.573 17.922 13.139 23.254 12.193 24.045 12.486 25.085 12.872 24.606 13.488 23.265 13.488 22.531 13.488 21.929 13.572 21.929 13.674 21.929 13.777 21.803 14.189 21.649 14.591 21.415 15.202 21.644 15.299 23.049 15.184 24.1 15.098 24.803 15.254 24.925 15.603 25.042 15.936 24.737 16.16 24.164 16.16 22.999 16.16 21.484 16.923 21.484 17.511 21.484 17.747 22.246 17.941 23.176 17.941 26.043 17.941 26.734 19.411 24.785 21.36L23.632 22.512 24.806 22.288C25.561 22.144 26.331 22.356 26.961 22.881 27.941 23.699 27.94 23.7 25.907 23.714 24.05 23.728 19.628 24.368 17.873 24.877 17.478 24.992 16.677 24.698 16.093 24.225ZM17.65 20.222C18.362 19.435 18.36 19.369 17.62 19.085 16.789 18.765 15.526 19.978 15.959 20.678 16.323 21.268 16.826 21.132 17.649 20.222ZM13.78 13.819C17.466 10.019 19.919 6.401 19.259 5.741 18.524 5.007 18.749 4.583 19.871 4.583 21.109 4.583 22.135 5.632 21.786 6.541 21.62 6.972 22.781 7.964 25.409 9.638 29.805 12.437 32.171 14.468 32.171 15.44 32.171 17.254 30.982 16.523 24.473 10.705 22.897 9.297 21.445 8.145 21.247 8.145 21.047 8.145 19.483 9.667 17.769 11.527 15.035 14.494 11.881 17.05 10.954 17.05 10.785 17.05 12.057 15.596 13.781 13.819Z" fill="#030303"/>
</g>
</svg>
