<?xml version="1.0" encoding="utf-8"?>
<!-- Generator: Adobe Illustrator 25.2.0, SVG Export Plug-In . SVG Version: 6.00 Build 0)  -->
<svg version="1.1"
	 id="svg4905" inkscape:version="1.0 (4035a4fb49, 2020-05-01)" sodipodi:docname="0GI.svg" xmlns:cc="http://creativecommons.org/ns#" xmlns:dc="http://purl.org/dc/elements/1.1/" xmlns:inkscape="http://www.inkscape.org/namespaces/inkscape" xmlns:rdf="http://www.w3.org/1999/02/22-rdf-syntax-ns#" xmlns:sodipodi="http://sodipodi.sourceforge.net/DTD/sodipodi-0.dtd" xmlns:svg="http://www.w3.org/2000/svg"
	 xmlns="http://www.w3.org/2000/svg" xmlns:xlink="http://www.w3.org/1999/xlink" x="0px" y="0px" width="52.2px" height="60px"
	 viewBox="0 0 52.2 60" style="enable-background:new 0 0 52.2 60;" xml:space="preserve">
<style type="text/css">
	.st0{fill:#A3D6A6;}
	.st1{fill:none;stroke:#000000;stroke-width:0.722;stroke-linecap:square;stroke-miterlimit:5.2063;}
	.st2{fill:#E95C35;}
	.st3{fill:none;stroke:#000000;stroke-width:0.4434;stroke-linecap:square;stroke-miterlimit:5.2063;}
	.st4{fill:#FFF1A6;}
</style>
<sodipodi:namedview  bordercolor="#666666" borderopacity="1" gridtolerance="10" guidetolerance="10" id="namedview4907" inkscape:current-layer="svg4905" inkscape:cx="43.514924" inkscape:cy="29.422532" inkscape:document-rotation="0" inkscape:pageopacity="0" inkscape:pageshadow="2" inkscape:window-height="720" inkscape:window-maximized="0" inkscape:window-width="687" inkscape:window-x="0" inkscape:window-y="0" inkscape:zoom="2.3306093" objecttolerance="10" pagecolor="#ffffff" showgrid="false">
	</sodipodi:namedview>
<g>
	<path class="st0" d="M6.2,7.4H46c1.5,0,2.8,1.2,2.8,2.8v39.8c0,1.5-1.2,2.8-2.8,2.8H6.2c-1.5,0-2.8-1.2-2.8-2.8V10.1
		C3.4,8.6,4.7,7.4,6.2,7.4z"/>
	<path class="st1" d="M6.2,7.4H46c1.5,0,2.8,1.2,2.8,2.8v39.8c0,1.5-1.2,2.8-2.8,2.8H6.2c-1.5,0-2.8-1.2-2.8-2.8V10.1
		C3.4,8.6,4.7,7.4,6.2,7.4z"/>
	<path class="st2" d="M7.1,9.8c0.9,0,1.7,0.7,1.7,1.7c0,0.9-0.7,1.7-1.7,1.7c-0.9,0-1.7-0.7-1.7-1.7C5.4,10.5,6.2,9.8,7.1,9.8z"/>
	<path class="st3" d="M7.1,9.8c0.9,0,1.7,0.7,1.7,1.7c0,0.9-0.7,1.7-1.7,1.7c-0.9,0-1.7-0.7-1.7-1.7C5.4,10.5,6.2,9.8,7.1,9.8z"/>
	<path class="st2" d="M25.8,9.7c0.9,0,1.7,0.7,1.7,1.7c0,0.9-0.7,1.7-1.7,1.7c-0.9,0-1.7-0.7-1.7-1.7C24.1,10.4,24.9,9.7,25.8,9.7z"
		/>
	<path class="st3" d="M25.8,9.7c0.9,0,1.7,0.7,1.7,1.7c0,0.9-0.7,1.7-1.7,1.7c-0.9,0-1.7-0.7-1.7-1.7C24.1,10.4,24.9,9.7,25.8,9.7z"
		/>
	<path class="st2" d="M44.1,9.7c0.9,0,1.7,0.7,1.7,1.7S45.1,13,44.1,13s-1.7-0.7-1.7-1.7S43.2,9.7,44.1,9.7z"/>
	<path class="st3" d="M44.1,9.7c0.9,0,1.7,0.7,1.7,1.7S45.1,13,44.1,13s-1.7-0.7-1.7-1.7S43.2,9.7,44.1,9.7z"/>
	<path class="st2" d="M7.1,47.1c0.9,0,1.7,0.7,1.7,1.7S8,50.4,7.1,50.4c-0.9,0-1.7-0.7-1.7-1.7S6.2,47.1,7.1,47.1z"/>
	<path class="st3" d="M7.1,47.1c0.9,0,1.7,0.7,1.7,1.7S8,50.4,7.1,50.4c-0.9,0-1.7-0.7-1.7-1.7S6.2,47.1,7.1,47.1z"/>
	<circle class="st2" cx="44" cy="48.7" r="1.7"/>
	<circle class="st3" cx="44" cy="48.7" r="1.7"/>
	<path d="M14.3,39.8c-2.2-2.4-2.9-5.5-2.2-9.9c0.4-2.6,0.8-3.6,2.9-7.8c1.3-2.7,2.5-4.9,2.7-4.9c0.1,0,1.1,0.9,2.1,2.2
		c2.1,2.5,2.8,3,4.4,3c2.4,0,3.1-0.6,4.7-3.7l1.5-2.9l1.5,1c3.3,2.1,7.6,9.4,8.2,14c0.8,5.9-2.9,11.4-8.8,12.9
		C25.5,45.2,17.6,43.4,14.3,39.8z M24.8,43c4.5,0.3,7.3-0.3,10-2.2c1.7-1.2,2.4-2,3.1-3.4c0.5-1,0.8-1.9,0.7-1.9
		c-0.1-0.1-1.2-0.1-2.5-0.1c-2.2,0-3-0.4-2.1-0.9c0.2-0.1,1.4-0.2,2.6-0.2c1.2,0,2.3,0,2.4,0c0.3-0.1,0.2-2.7-0.1-2.8
		c-0.1-0.1-1.2-0.1-2.5,0c-1.2,0.1-2.4,0-2.6-0.1c-0.9-0.4,0-0.8,2.5-0.9l2.6-0.1l-0.6-1.9c-0.8-2.7-3.3-7-5.2-8.9
		c-0.9-0.9-1.7-1.7-1.8-1.8c-0.1-0.1-0.9,1-1.8,2.4c-1.8,2.9-2.8,3.6-5.2,3.5c-2.3-0.1-3.3-0.7-5-2.8l-1.4-1.8L16,22.6
		c-2,3.8-3,6.8-3,8.9l0,1.2l3.3-0.1c1.8,0,3.4,0.1,3.5,0.3c0.4,0.6-0.3,0.8-3.4,0.9c-1.6,0-3,0.1-3.1,0.1c-0.1,0-0.1,0.5-0.1,1.2
		l0.1,1.1l2.1,0c2.3,0,3.3,0.3,2.9,1c-0.1,0.2-1,0.3-1.9,0.2c-2.2-0.3-2.6,0.2-1.5,1.5C16.5,40.8,21.1,42.7,24.8,43z M23.5,36.3
		c0.1-0.2,0.6-0.4,1.1-0.6c0.8-0.2,1.1-0.5,1.4-1.5c0.4-1.5,1-1.4,1.2,0.3c0.1,1,0.3,1.2,1.4,1.6c0.9,0.3,1.2,0.5,1,0.9
		c-1.6,1.1-2.4-2-4.3-0.3C24.3,37.1,23.3,36.8,23.5,36.3z"/>
	<path d="M22.3,28.7c0.8,0,1.5,0.7,1.4,1.5c0,0.8-0.7,1.5-1.5,1.4s-1.5-0.7-1.4-1.5C20.8,29.3,21.4,28.7,22.3,28.7z"/>
	<path d="M29.7,28.6c0.8,0,1.5,0.7,1.4,1.5c0,0.8-0.7,1.5-1.5,1.4c-0.8,0-1.5-0.7-1.4-1.5C28.2,29.2,28.9,28.6,29.7,28.6z"/>
	<path class="st4" d="M31.4,17.6c-1.7,1.8-2.5,4.5-4.8,5.6c-1.5,0.5-3.3,0.3-4.8-0.3c-1.6-0.8-2.5-2.6-3.8-3.7
		c-1.2,1.8-2.1,3.9-3.1,5.9c-0.9,2.2-1.9,4.5-1.8,7c-0.2,1.1,1.3,0.5,2,0.7c1.5,0.1,3.1-0.1,4.6,0.2c0.6,0.3-0.2,0.6-0.5,0.6
		c-1.9,0.4-3.8,0.1-5.7,0.5c-0.5,0.5,0,1.4-0.1,2c0.6,0.4,1.6,0.1,2.3,0.2c0.9,0.1,2.1-0.1,2.8,0.7c0.2,0.5-0.8,0.4-1.1,0.5
		c-0.9,0.1-2-0.1-2.9,0.2c-0.2,0.8,0.6,1.4,1.1,1.9c2.5,2,5.7,3,8.9,3.4C25,43,26,43,26.7,43c3.3,0.1,6.7-0.8,9.2-3.1
		c1.4-1.1,2.3-2.8,2.8-4.5c-1.5-0.3-3.3,0.1-4.8-0.5c-0.3-0.4,0.5-0.6,0.8-0.7c1.5-0.2,3,0,4.4-0.2c0.2-0.9,0.2-1.8-0.1-2.7
		c-1.4-0.3-2.9,0-4.4-0.1c-0.3,0-1.1-0.1-0.9-0.5c1.6-0.6,3.5-0.4,5.2-0.6c-0.1-0.9-0.5-1.9-0.8-2.8C36.6,23.7,34.3,20.2,31.4,17.6z
		 M29.7,28.7c0.9,0,1.7,1,1.4,1.8c-0.3,1.2-2.2,1.5-2.7,0.2C28,29.8,28.7,28.6,29.7,28.7z M22.2,28.7c0.9,0,1.8,1,1.4,1.8
		c-0.2,1.1-1.9,1.5-2.5,0.4C20.3,30.2,21,28.6,22.2,28.7z M26.7,33.3c0.8,0.5,0.3,1.9,1.1,2.4c0.5,0.5,1.5,0.5,1.8,1.1
		c-0.4,0.7-1.4,0.2-1.9-0.1c-0.7-0.5-1.7-0.6-2.4-0.1c-0.5,0.2-1.5,0.5-1.8-0.2c0.4-0.7,1.6-0.5,2.1-1.3
		C26.1,34.6,26,33.6,26.7,33.3z"/>
	<path class="st4" d="M31.3,17.6c-0.4,0.3-0.7,0.8-1,1.2c-0.9,1.3-1.7,2.8-2.9,3.8c-0.7,0.6-1.6,0.8-2.4,0.9c-1.3,0-2.6-0.2-3.7-0.9
		c-1.2-0.9-2.1-2.2-3.2-3.3c0-0.2-0.3,0-0.4,0.1c-0.8,1.2-1.4,2.5-2,3.8c-1.1,2.2-2.1,4.5-2.6,6.9c-0.1,0.9-0.2,1.7-0.1,2.6
		c0.4,0.2,0.9,0.1,1.3,0.2c1.3,0,2.6,0,3.9,0c0.5,0.1,1,0,1.4,0.3c0.2,0.2-0.1,0.4-0.2,0.4c-1.1,0.3-2.2,0.2-3.3,0.3
		c-0.9,0.1-1.8,0-2.7,0.2c-0.4,0.1-0.3,0.7-0.3,1c0.1,0.4,0.1,0.8,0.1,1.2c0.2,0.3,0.6,0.2,0.9,0.2c1.2,0.1,2.3,0,3.5,0.2
		c0.3,0.1,0.6,0.2,0.7,0.6c-0.1,0.3-0.5,0.2-0.8,0.3c-0.9,0.1-1.8,0-2.7,0c-0.2,0.1-0.5,0.1-0.5,0.3c-0.1,0.7,0.5,1.2,0.9,1.6
		c1.5,1.4,3.5,2.3,5.5,2.9c1.8,0.6,3.7,0.8,5.5,0.8c2.7,0.1,5.5-0.3,7.8-1.8c1.5-0.9,2.9-2.1,3.8-3.7c0.3-0.7,0.7-1.3,0.8-2
		c-0.1-0.2-0.4-0.1-0.5-0.1c-1.2-0.1-2.4,0-3.6-0.2c-0.2-0.1-0.6-0.1-0.7-0.4c0.1-0.3,0.5-0.3,0.7-0.4c1.5-0.2,3-0.1,4.5-0.2
		c0.2-0.1,0.1-0.4,0.2-0.7c0-0.7,0.1-1.4-0.2-2.1c-0.1-0.2-0.4-0.1-0.6-0.1c-1.5-0.1-3,0.1-4.5-0.1c-0.1,0-0.4-0.3-0.1-0.4
		c1-0.4,2.1-0.4,3.2-0.4c0.6-0.1,1.3,0,1.9-0.1c0.1-0.2,0-0.5-0.1-0.7c-0.9-3.2-2.5-6.2-4.4-8.8C33.5,19.6,32.5,18.5,31.3,17.6
		L31.3,17.6z M29.7,28.7c0.8,0,1.5,0.9,1.3,1.7c-0.1,0.7-0.9,1.2-1.7,1.1c-0.7-0.1-1.2-0.9-1.1-1.6C28.4,29.2,29,28.6,29.7,28.7z
		 M22.2,28.8c0.9,0,1.6,0.9,1.4,1.7c-0.2,0.9-1.4,1.4-2.2,0.8c-0.4-0.4-0.7-0.9-0.5-1.5C21,29.2,21.5,28.7,22.2,28.8z M26.6,33.3
		c0.4,0.2,0.4,0.8,0.5,1.2c0.1,0.6,0.2,1.2,0.8,1.4c0.5,0.3,1.2,0.4,1.5,0.8c0,0.2-0.3,0.3-0.5,0.3c-0.7,0-1.3-0.5-1.9-0.8
		c-0.5-0.2-1.1-0.2-1.6,0.1c-0.5,0.3-1.2,0.6-1.8,0.2c-0.1-0.1-0.3-0.2-0.1-0.3c0.6-0.5,1.5-0.5,2-1.2
		C26.1,34.6,26.1,33.8,26.6,33.3L26.6,33.3z"/>
</g>
</svg>
