<?xml version="1.0" encoding="UTF-8" standalone="no"?>
<svg
   xmlns:dc="http://purl.org/dc/elements/1.1/"
   xmlns:cc="http://creativecommons.org/ns#"
   xmlns:rdf="http://www.w3.org/1999/02/22-rdf-syntax-ns#"
   xmlns:svg="http://www.w3.org/2000/svg"
   xmlns="http://www.w3.org/2000/svg"
   xmlns:sodipodi="http://sodipodi.sourceforge.net/DTD/sodipodi-0.dtd"
   xmlns:inkscape="http://www.inkscape.org/namespaces/inkscape"
   inkscape:version="1.0 (4035a4fb49, 2020-05-01)"
   sodipodi:docname="1GI.svg"
   id="svg4905"
   version="1.1"
   height="60"
   width="52.157">
  <metadata
     id="metadata4911">
    <rdf:RDF>
      <cc:Work
         rdf:about="">
        <dc:format>image/svg+xml</dc:format>
        <dc:type
           rdf:resource="http://purl.org/dc/dcmitype/StillImage" />
        <dc:title />
      </cc:Work>
    </rdf:RDF>
  </metadata>
  <defs
     id="defs4909" />
  <sodipodi:namedview
     inkscape:document-rotation="0"
     inkscape:current-layer="svg4905"
     inkscape:window-maximized="0"
     inkscape:window-y="0"
     inkscape:window-x="0"
     inkscape:cy="29.422532"
     inkscape:cx="43.514924"
     inkscape:zoom="2.3306093"
     showgrid="false"
     id="namedview4907"
     inkscape:window-height="720"
     inkscape:window-width="687"
     inkscape:pageshadow="2"
     inkscape:pageopacity="0"
     guidetolerance="10"
     gridtolerance="10"
     objecttolerance="10"
     borderopacity="1"
     bordercolor="#666666"
     pagecolor="#ffffff" />
  <!--
Created by Hari Seldon and modified by orangain, licensed under Creative Commons Attribution-Share Alike 3.0 Unported.
See: https://creativecommons.org/licenses/by-sa/3.0/deed.en

Original file is available at: https://commons.wikimedia.org/wiki/File:Shogi_osho(svg).svg
-->
  <filter
     id="drop-shadow">
    <feGaussianBlur
       id="feGaussianBlur4880"
       stdDeviation="2"
       result="blur"
       in="SourceAlpha" />
    <feOffset
       id="feOffset4882"
       dy="2"
       dx="2"
       result="offsetBlur" />
    <feBlend
       id="feBlend4884"
       mode="normal"
       in2="offsetBlur"
       in="SourceGraphic" />
  </filter>
  <g
     inkscape:label="Layer 1"
     id="layer1-7"
     transform="matrix(-1.3015765,0,0,-1.3015765,-13.816621,404.97829)">
    <rect
       style="opacity:1;fill:#f9c476;fill-opacity:1;stroke:#000000;stroke-width:0.55474907;stroke-linecap:square;stroke-linejoin:miter;stroke-miterlimit:4;stroke-dasharray:none;stroke-opacity:1;paint-order:fill markers stroke"
       id="rect5497"
       width="34.787006"
       height="34.787006"
       x="-48.044888"
       y="270.70197"
       ry="2.1199546" />
    <circle
       style="opacity:1;fill:#e95c35;fill-opacity:1;stroke:#000000;stroke-width:0.34063438;stroke-linecap:square;stroke-linejoin:miter;stroke-miterlimit:4;stroke-dasharray:none;stroke-opacity:1;paint-order:fill markers stroke"
       id="path5973"
       cx="-45.230762"
       cy="273.83298"
       r="1.2745767" />
    <circle
       style="opacity:1;fill:#e95c35;fill-opacity:1;stroke:#000000;stroke-width:0.34063438;stroke-linecap:square;stroke-linejoin:miter;stroke-miterlimit:4;stroke-dasharray:none;stroke-opacity:1;paint-order:fill markers stroke"
       id="path5973-1"
       cx="-30.870708"
       cy="273.73923"
       r="1.2745767" />
    <circle
       style="opacity:1;fill:#e95c35;fill-opacity:1;stroke:#000000;stroke-width:0.34063438;stroke-linecap:square;stroke-linejoin:miter;stroke-miterlimit:4;stroke-dasharray:none;stroke-opacity:1;paint-order:fill markers stroke"
       id="path5973-1-8"
       cx="-16.774204"
       cy="273.77951"
       r="1.2745767" />
    <circle
       style="opacity:1;fill:#e95c35;fill-opacity:1;stroke:#000000;stroke-width:0.34063438;stroke-linecap:square;stroke-linejoin:miter;stroke-miterlimit:4;stroke-dasharray:none;stroke-opacity:1;paint-order:fill markers stroke"
       id="path5973-1-2"
       cx="-45.242119"
       cy="302.51541"
       r="1.2745767" />
    <circle
       style="opacity:1;fill:#e95c35;fill-opacity:1;stroke:#000000;stroke-width:0.34063438;stroke-linecap:square;stroke-linejoin:miter;stroke-miterlimit:4;stroke-dasharray:none;stroke-opacity:1;paint-order:fill markers stroke"
       id="path5973-1-23"
       cx="-16.854723"
       cy="302.46823"
       r="1.2745767" />
    <g
       id="g11901"
       transform="matrix(0.82787604,0.02247313,-0.02247313,0.82787604,65.687101,52.838689)">
      <path
         sodipodi:nodetypes="cccccccccscccccccccsccscscccccccccccccccccccccccccccccccc"
         inkscape:connector-curvature="0"
         id="path11864"
         d="m -119.23294,296.54607 c -2.10487,-2.16042 -2.82005,-4.99342 -2.30793,-9.14234 0.29466,-2.38715 0.62964,-3.38152 2.46929,-7.32983 1.17064,-2.51238 2.23684,-4.60622 2.36941,-4.65292 0.13258,-0.0467 1.03349,0.8361 2.00207,1.96177 1.96837,2.28763 2.63483,2.71124 4.19062,2.66367 2.25318,-0.0689 2.89253,-0.59307 4.30492,-3.52941 l 1.30184,-2.70643 1.45451,0.87651 c 3.11981,1.88009 7.238523,8.49401 7.978335,12.8118 0.932065,5.43984 -2.413263,10.65806 -7.809155,12.18111 -5.46801,1.54342 -12.80002,0.10314 -15.95388,-3.13392 z m 9.80956,2.62767 c 4.16917,0.1949 6.79427,-0.45087 9.19402,-2.26171 1.535877,-1.15895 2.191105,-1.90847 2.824605,-3.23111 0.453661,-0.94716 0.73176,-1.76668 0.618001,-1.82117 -0.113759,-0.0545 -1.153581,-0.0782 -2.310717,-0.0527 -2.005849,0.0442 -2.754519,-0.26096 -1.933269,-0.78798 0.20839,-0.13372 1.298806,-0.26041 2.423151,-0.28151 1.124343,-0.0211 2.110279,-0.0572 2.190965,-0.0803 0.241195,-0.0689 0.09108,-2.48874 -0.161432,-2.60247 -0.128045,-0.058 -1.152316,-0.0232 -2.275855,0.0767 -1.123542,0.0999 -2.222939,0.0984 -2.443109,-0.003 -0.85109,-0.39346 -0.0594,-0.70291 2.264124,-0.88498 l 2.420018,-0.18963 -0.59619,-1.7807 c -0.844079,-2.52108 -3.221902,-6.39047 -5.009682,-8.15217 -0.83718,-0.82496 -1.6219,-1.5477 -1.74381,-1.60609 -0.12192,-0.0584 -0.84122,0.94877 -1.59844,2.23815 -1.61899,2.75676 -2.53249,3.40613 -4.7283,3.36115 -2.14699,-0.044 -3.08332,-0.5316 -4.74091,-2.46898 l -1.38639,-1.62042 -1.66042,3.46665 c -1.7301,3.61214 -2.58172,6.39953 -2.53347,8.29214 l 0.0284,1.11158 3.01536,-0.14479 c 1.65845,-0.0796 3.10906,10e-4 3.22357,0.17965 0.3467,0.54025 -0.30029,0.72348 -3.12114,0.88381 -1.48308,0.0843 -2.77224,0.16971 -2.86479,0.18979 -0.0926,0.0201 -0.10429,0.51339 -0.0261,1.09623 l 0.14216,1.0597 1.95368,-0.0437 c 2.1679,-0.0484 3.02932,0.21487 2.73223,0.83515 -0.10841,0.22633 -0.90183,0.34288 -1.76317,0.25903 -2.00227,-0.19494 -2.3935,0.23199 -1.34953,1.47269 1.42166,1.68956 5.7501,3.32919 9.21649,3.49125 z m -1.36377,-6.13601 c 0.0708,-0.14787 0.5421,-0.39169 1.04727,-0.54182 0.71426,-0.21227 0.98718,-0.52991 1.22741,-1.42851 0.37358,-1.39738 0.8849,-1.28419 1.08953,0.24117 0.12421,0.9259 0.32503,1.14548 1.31306,1.43582 0.83688,0.24591 1.10916,0.46229 0.96371,0.76596 -1.46432,1.07217 -2.29846,-1.82335 -3.99107,-0.1283 -0.95152,0.33522 -1.88688,0.15039 -1.64991,-0.34437 z"
         style="fill:#000000;stroke-width:0.35277778" />
      <g
         transform="translate(0,-1.5875)"
         id="g11885">
        <circle
           style="opacity:1;fill:#000000;fill-opacity:1;stroke:none;stroke-width:0.31123859;stroke-linecap:square;stroke-linejoin:miter;stroke-miterlimit:4;stroke-dasharray:none;stroke-opacity:1;paint-order:fill markers stroke"
           id="path11866"
           cx="-112.15524"
           cy="288.95554"
           r="1.3725456" />
        <circle
           style="opacity:1;fill:#000000;fill-opacity:1;stroke:none;stroke-width:0.31123859;stroke-linecap:square;stroke-linejoin:miter;stroke-miterlimit:4;stroke-dasharray:none;stroke-opacity:1;paint-order:fill markers stroke"
           id="path11866-2"
           cx="-105.21054"
           cy="288.69977"
           r="1.3725456" />
      </g>
      <path
         transform="matrix(0.26458333,0,0,0.26458333,-51.389145,267.35772)"
         inkscape:connector-curvature="0"
         id="path11889"
         d="m -198.78627,30.649038 c -5.80165,6.379181 -8.39616,15.864729 -16.3331,20.121174 -5.25359,1.994362 -11.50387,1.395202 -16.70796,-0.712237 -5.82724,-2.729739 -8.96169,-8.869541 -13.82646,-12.682149 -4.14574,6.454314 -7.00078,13.792254 -10.17251,20.800629 -3.00929,7.839212 -6.22335,16.103701 -5.7443,24.640453 -0.4303,4.029044 4.72409,1.463161 7.07304,2.098052 5.32295,0.207763 10.84567,-0.798288 16.05689,0.36518 1.95648,0.888399 -0.74137,2.247372 -1.74607,2.275803 -6.55402,1.478929 -13.45008,0.681797 -19.97419,2.122896 -1.78249,1.863201 0.0957,4.948662 -0.0861,7.17178 1.98445,1.196935 5.52798,0.215516 8.13083,0.552796 3.17603,0.371332 7.43913,-0.56867 9.76419,2.148089 0.64926,1.892016 -2.65238,1.492716 -3.73677,1.780596 -3.28671,0.42031 -6.88639,-0.089 -10.01176,0.95589 -0.67294,2.73447 2.3182,4.96843 4.03272,6.70903 9.00065,6.88736 20.40815,10.05 31.56135,11.07123 1.80446,0.11731 5.32282,0.28832 7.81578,0.21287 11.56704,0.0395 23.41001,-3.53461 31.86485,-11.69472 4.81683,-4.02602 7.73844,-9.964059 9.37885,-15.920504 -5.3415,-0.882995 -11.45888,0.64234 -16.79971,-1.270585 -1.23211,-1.422881 1.52093,-2.30778 2.62995,-2.384314 5.12679,-0.841073 10.46069,-0.422456 15.52912,-1.045664 0.72063,-3.010356 0.53595,-6.48175 -0.65995,-9.295576 -4.99957,-0.95658 -10.27015,0.277037 -15.36734,-9.87e-4 -1.00224,0.08088 -3.97797,-0.123029 -3.3333,-1.674051 5.69226,-2.291973 12.14524,-1.568274 18.14131,-2.610219 -0.28655,-3.260368 -2.05953,-6.658729 -3.17551,-9.854137 -5.45014,-12.888884 -13.75684,-24.848047 -24.3038,-33.881325 z m -4.71141,38.956967 c 3.23094,0.01104 5.87501,3.183567 4.97283,6.337129 -0.831,4.265531 -7.72354,5.310275 -9.3962,1.027909 -1.55961,-3.183282 0.68775,-7.511982 4.42337,-7.365038 z m -26.32513,0.990423 c 3.06847,-0.09203 6.33886,3.244219 4.99848,6.335156 -0.76508,3.766793 -6.61903,5.356065 -8.63168,1.763822 -2.91964,-2.868762 -0.48919,-8.395601 3.6332,-8.098978 z m 16.0194,15.448231 c 2.89725,1.735917 1.05916,6.547152 3.99622,8.461017 1.88666,1.653822 5.36838,1.544766 6.5285,3.823584 -1.34129,2.32908 -4.80706,0.682767 -6.61728,-0.334416 -2.46965,-1.737937 -5.92246,-2.056943 -8.28345,0.03255 -1.78928,0.788525 -5.37054,1.77996 -6.31543,-0.605697 1.48803,-2.505406 5.50724,-1.992991 7.08981,-4.645318 1.75851,-1.830806 1.3432,-5.521398 3.60163,-6.731722 z"
         style="opacity:1;fill:#fff1a6;fill-opacity:1;stroke:none;stroke-width:0.47723743;stroke-linecap:square;stroke-linejoin:miter;stroke-miterlimit:4;stroke-dasharray:none;stroke-opacity:1;paint-order:fill markers stroke" />
      <path
         transform="matrix(0.26458333,0,0,0.26458333,-51.389145,267.35772)"
         inkscape:connector-curvature="0"
         id="path11893"
         d="m -198.84628,30.623238 c -1.38907,1.094867 -2.23938,2.781349 -3.30148,4.185617 -3.16185,4.663697 -5.68679,9.90475 -9.92965,13.715541 -2.29897,2.112089 -5.35943,3.077561 -8.41682,3.215263 -4.51939,0.211493 -9.27291,-0.485949 -13.15674,-2.891672 -4.41462,-3.115374 -7.5224,-7.654398 -11.35812,-11.387416 -0.12546,-0.744922 -1.07219,-0.125562 -1.22105,0.314941 -2.64549,4.220022 -4.54227,8.859806 -6.69407,13.340677 -3.54711,7.91155 -7.07476,15.989764 -8.48664,24.599207 -0.19879,3.007891 -0.47804,6.054704 -0.227,9.059629 1.36379,0.772795 3.15658,0.31277 4.68331,0.423061 4.54852,-0.01711 9.09481,-0.361107 13.64086,-0.30814 1.69257,0.200783 3.54983,-0.03813 5.10251,0.768518 0.73837,0.539111 -0.29925,1.263473 -0.81577,1.402415 -3.66844,1.136294 -7.57438,1.067053 -11.36754,1.410435 -3.17,0.28604 -6.40541,0.199938 -9.52323,0.887277 -1.42488,0.494136 -1.07828,2.351221 -1.03202,3.51702 0.21429,1.344578 0.35653,2.711035 0.56641,4.031807 0.78594,0.904939 2.22656,0.54595 3.29133,0.694589 4.06141,0.166961 8.2157,-0.294828 12.20602,0.545647 0.9254,0.347937 2.292,0.793873 2.41106,1.923126 -0.43204,1.05685 -1.8807,0.82412 -2.77633,1.03322 -3.11009,0.39517 -6.27354,0.11397 -9.38257,0.40477 -0.54517,0.4054 -1.66087,0.30139 -1.72258,1.22873 -0.18339,2.30751 1.74619,4.03511 3.22056,5.5399 5.56707,4.92391 12.65807,7.71895 19.71505,9.75237 6.31196,1.77619 12.87467,2.59208 19.42941,2.42136 9.46207,0.21144 19.23347,-1.69798 27.20666,-7.00827 5.22236,-3.42689 10.09141,-7.75757 12.81107,-13.490462 1.06815,-2.326955 2.2602,-4.698648 2.64096,-7.249082 -0.19962,-0.70812 -1.3465,-0.161107 -1.86668,-0.370137 -4.2627,-0.189149 -8.56076,0.05804 -12.79904,-0.478749 -0.7831,-0.3051 -2.21797,-0.158223 -2.38959,-1.2148 0.29596,-1.025026 1.68605,-1.181437 2.56871,-1.415666 5.15343,-0.780973 10.43935,-0.501119 15.62116,-1.112932 0.79317,-0.400995 0.4104,-1.583853 0.56134,-2.304286 -0.0594,-2.40273 0.14646,-4.964623 -0.8428,-7.212664 -0.39495,-0.73038 -1.54849,-0.283218 -2.24433,-0.437193 -5.24794,-0.183411 -10.49871,0.697679 -15.73244,0.103766 -0.51518,-0.07194 -1.32183,-0.942869 -0.53362,-1.261509 3.49459,-1.358512 7.3294,-1.436741 11.03086,-1.778055 2.23062,-0.247075 4.53553,-0.191577 6.71816,-0.699973 0.50124,-0.70819 -0.21862,-1.663509 -0.3149,-2.42599 -3.35164,-11.115121 -9.18854,-21.358739 -16.28527,-30.497071 -3.17398,-4.050446 -6.8545,-7.710474 -10.84228,-10.950405 -0.0502,-0.02389 -0.10765,-0.03468 -0.16288,-0.02441 z m -4.5724,39.170271 c 2.84486,-0.0025 5.43102,2.902777 4.78759,5.774973 -0.3671,2.633146 -3.15727,4.315109 -5.68847,3.879743 -2.59709,-0.215257 -4.29886,-2.955739 -3.89754,-5.419573 0.25577,-2.374706 2.36084,-4.365293 4.79842,-4.235143 z m -26.43137,0.993653 c 2.98484,-0.160367 5.71489,2.845258 4.95641,5.812988 -0.55686,3.246503 -4.79147,5.099893 -7.47768,3.113839 -1.36746,-1.267461 -2.6376,-3.115203 -2.06299,-5.069405 0.40232,-2.150106 2.282,-4.078229 4.58426,-3.857422 z m 16.02295,15.46282 c 1.49641,0.746018 1.41861,2.724534 1.83469,4.106793 0.24746,1.967555 0.97626,4.183245 2.99058,4.97768 1.81659,0.847174 4.08189,1.151622 5.40213,2.788434 0.16016,0.790916 -1.04061,1.183981 -1.64725,1.205357 -2.4884,0.08661 -4.44126,-1.629733 -6.60191,-2.560685 -1.77991,-0.683981 -3.90003,-0.708372 -5.47051,0.497359 -1.82723,1.141848 -4.3177,2.074146 -6.36613,0.962601 -0.35191,-0.248764 -0.9647,-0.815737 -0.34772,-1.143275 1.99615,-1.949594 5.3375,-1.771212 6.95417,-4.234444 1.42691,-1.9988 1.25449,-4.90385 3.1686,-6.573661 0.0249,-0.01407 0.053,-0.03364 0.0833,-0.02616 z"
         style="opacity:1;fill:#fff1a6;fill-opacity:1;stroke:none;stroke-width:0.16872892;stroke-linecap:square;stroke-linejoin:miter;stroke-miterlimit:4;stroke-dasharray:none;stroke-opacity:1;paint-order:fill markers stroke" />
    </g>
  </g>
</svg>
