<svg viewBox="0 0 60 60" xmlns="http://www.w3.org/2000/svg"><g transform="matrix(-1.30158 0 0 -1.30158 -10.408 404.118)"><rect fill="#f7c1c1" height="34.78653864" ry="2.12004968" stroke="#000" stroke-linecap="square" stroke-width=".55472361" width="34.78653864" x="-48.43846109" y="270.03898382"/><g transform="matrix(.85211 0 0 .85211 -9.36751337 -13.05581726)"><path d="m-37.302 366.138c.002-.119.523-1.64 1.157-3.38.634-1.741 1.152-3.267 1.152-3.392 0-.323-2.195-1.41-3.974-1.966l-1.518-.474 1.567-1.353c1.954-1.687 3.212-4.055 2.965-5.581-.184-1.132-1.424-3.214-3.268-5.485-.881-1.087-1.07-1.476-.722-1.493 1.098-.055 4.031.586 5.173 1.13 1.996.952 2.17.72 1.992-2.65-.084-1.589-.051-2.89.073-2.89.274 0 4.946 2.917 5.998 3.745.414.325.942.592 1.172.592s1.846-1.12 3.59-2.489c1.745-1.369 3.257-2.404 3.36-2.301s.259 1.342.345 2.754c.087 1.411.254 2.663.372 2.781.119.118.72.064 1.335-.12.615-.185 2.2-.336 3.522-.336h2.402l-2.364 2.422c-1.3 1.332-2.362 2.665-2.36 2.963.004.866 1.3 3.413 2.639 5.186 1.235 1.636 1.591 2.437 1.084 2.437-.421 0-5.138 2.312-5.32 2.609-.091.146.029.561.265.924.399.61 2.196 5.418 2.196 5.874 0 .111-.163.074-.361-.083-.683-.54-3.543-1.45-5.683-1.807-2.966-.496-8.442-.428-10.53.13-.928.25-2.67.906-3.871 1.461-2.39 1.105-2.393 1.105-2.388.792z" fill="#e4ac19" stroke="#000" stroke-width=".819"/><ellipse cx="-25.471" cy="-353.742" fill="#fce377" rx="7.398" ry="7.726" stroke="#000" stroke-linecap="square" stroke-width=".576" transform="scale(1 -1)"/><circle cx="-27.963" cy="352.091" r=".902"/><g fill="none" stroke="#000"><path d="m-25.725 355.398c.64 1.147 1.41 1.836 2.406 1.738m-4.544-.401c2.21-.323 2.295-1.182 2.229-2.437"/><path d="m-27.288 356.556c.906.936 2.166 1.151 3.071.449" stroke-width=".5"/></g><circle cx="-23.252" cy="352.124" r=".902"/></g><g fill="#e95c35" stroke="#000" stroke-linecap="square" stroke-width=".341"><circle cx="-45.625" cy="273.172" r="1.275"/><circle cx="-31.265" cy="273.078" r="1.275"/><circle cx="-17.168" cy="273.118" r="1.275"/><circle cx="-45.579" cy="287.392" r="1.275"/><circle cx="-17.225" cy="287.335" r="1.275"/><circle cx="-45.636" cy="301.854" r="1.275"/><circle cx="-31.329" cy="301.83" r="1.275"/><circle cx="-17.249" cy="301.807" r="1.275"/></g></g></svg>