<svg height="30mm" viewBox="0 0 30 30" width="30mm" xmlns="http://www.w3.org/2000/svg" xmlns:xlink="http://www.w3.org/1999/xlink"><clipPath id="a"><path d="m0 2834.646h2834.646v-2834.646h-2834.646z" transform="translate(-91.9855 -311.81193)"/></clipPath><g clip-path="url(#a)" stroke-miterlimit="10" transform="matrix(.37968369 0 0 -.37968364 28.400002 14.999999)"><path d="m0 0c0-19.491-15.801-35.292-35.293-35.292-19.491 0-35.292 15.801-35.292 35.292s15.801 35.292 35.292 35.292c19.492 0 35.293-15.801 35.293-35.292" fill="#f9d08f"/><path d="m-35.292969-36.082031c-19.918009 0-36.082031 16.164022-36.082031 36.082031s16.164022 36.082031 36.082031 36.082031c19.918988 0 36.08398462-16.164022 36.08398462-36.082031.00000001-19.918009-16.16499662-36.082031-36.08398462-36.082031zm0 1.580078c19.064974 0 34.50195338 15.438001 34.50195338 34.501953s-15.43697938 34.501953-34.50195338 34.501953c-19.063951 0-34.501953-15.438001-34.501953-34.501953s15.438002-34.501953 34.501953-34.501953z" fill="#4d3608"/></g><path d="m14.310985 16.76389v-1.102429h1.267794v1.102429h5.56727v1.212673h-5.56727v3.362411h-1.267794v-3.362411h-5.4019057v-1.212673zm0-6.614578v-1.48828h1.267794v1.48828h4.960934v1.157551h-2.480467l.716579.440972-.661458 1.047308q1.212673 1.212673 2.866318 1.874131-.110243.165364-.275608.330729-.110243.165364-.220486.275607 0 0-.275607.440972-1.322916-.716579-1.598523-.937065-.496094-.330729-1.212673-1.047308-.937065 1.047308-1.047308 1.102429-.385851.385851-.661458.551215-.110243-.110243-.38585-.330729-.275608-.220486-.551215-.38585 1.157551-1.047308 1.48828-1.433159.606336-.716579 1.322915-1.929252h-4.795569l.771701.496094q-.220486.496093-.826822 1.157551.937065.716579 1.984373 1.322916l-.771701 1.047308q-1.047308-.606337-1.929252-1.48828-1.433158 1.322915-2.2599805 1.87413-.5512148-.661458-.8819437-.937065 1.2126722-.771701 1.7638872-1.322916 1.047309-1.047308 1.763888-2.149738h-2.8663174v-1.157551z" stroke-width=".352777"/><path d="m15 3.5c-6.3394237 0-11.5 5.1605759-11.5 11.5 0 6.339424 5.1605763 11.5 11.5 11.5 6.339424 0 11.5-5.160576 11.5-11.5 0-6.3394241-5.160576-11.5-11.5-11.5zm0 2c5.258544 0 9.5 4.2414549 9.5 9.5 0 5.258545-4.241456 9.5-9.5 9.5-5.2585444 0-9.5-4.241455-9.5-9.5 0-5.2585451 4.2414556-9.5 9.5-9.5z" stroke-miterlimit="10"/></svg>