<svg height="30mm" viewBox="0 0 30 30" width="30mm" xmlns="http://www.w3.org/2000/svg" xmlns:xlink="http://www.w3.org/1999/xlink"><clipPath id="a"><path d="m0 2834.646h2834.646v-2834.646h-2834.646z" transform="translate(-91.9855 -311.81193)"/></clipPath><g transform="translate(-480)"><g clip-path="url(#a)" stroke-miterlimit="10" transform="matrix(.37968369 0 0 -.37968364 508.39998 15)"><path d="m0 0c0-19.491-15.801-35.292-35.293-35.292-19.491 0-35.292 15.801-35.292 35.292s15.801 35.292 35.292 35.292c19.492 0 35.293-15.801 35.293-35.292" fill="#f9d08f"/><path d="m-35.292969-36.082031c-19.918009 0-36.082031 16.164022-36.082031 36.082031s16.164022 36.082031 36.082031 36.082031c19.918988 0 36.08398462-16.164022 36.08398462-36.082031.00000001-19.918009-16.16499662-36.082031-36.08398462-36.082031zm0 1.580078c19.064974 0 34.50195338 15.438001 34.50195338 34.501953s-15.43697938 34.501953-34.50195338 34.501953c-19.063951 0-34.501953-15.438001-34.501953-34.501953s15.438002-34.501953 34.501953-34.501953z" fill="#4d3608"/></g><path d="m494.366 17.933637.88195-.716579q.93706.937065 1.43315 1.598523l-.93706.7717q-.49609-.716579-1.37804-1.653644zm4.29948-2.20486v-1.48828h1.32291v1.48828h1.43316v1.10243h-1.43316v3.417532q0 .661458-.49609.992187-.33073.220486-1.92925.330729-.16537-.606336-.60634-1.322916h1.43316q.16536 0 .22049-.05512.0551 0 .0551-.165365v-3.197046h-5.29167v-1.10243zm-6.89019-3.307289v-3.4726532h1.21267v12.5676982h-1.21267v-4.685326h-1.10243q0 1.763888-.22048 2.59071-.22049.826822-.88195 1.763887-.55121-.496093-.99218-.826822.49609-.551215.7717-1.378037.22048-.661458.22048-2.149738h-.82682v-1.157551h3.03168v-2.094616h-1.37804v.275607h-1.15755v-4.1341114h1.15755v2.7009524zm5.56727-2.370224h2.75608l.16536-.1102425.82682.8268225q-1.10243 1.322915-1.59852 1.819009-.7717.771701-1.37804 1.10243-.99218.551214-1.5434.826822-1.21267.496093-2.48047.826822-.44097-.771701-.66145-1.047308.71658-.165365 1.92925-.496094l-.88195-.881943.77171-.661458 1.15755 1.10243q.0551 0 .66145-.385851l-1.15755-.992187.71658-.661457q1.10243.826822 1.37804 1.047308.7717-.606336 1.32291-1.322916h-3.03168q-1.0473.881944-2.3151 1.48828-.0551-.05512-.71658-.881943 1.2678-.606337 2.0395-1.212673.88194-.7717009 1.59852-1.7087662l1.21267.4960934q-.33073.3858504-.7717.8268218z" stroke-width=".352777"/><path d="m495 3.5c-6.33942 0-11.5 5.1605759-11.5 11.5 0 6.339424 5.16058 11.5 11.5 11.5s11.5-5.160576 11.5-11.5c0-6.3394241-5.16058-11.5-11.5-11.5zm0 2c5.25854 0 9.5 4.2414549 9.5 9.5 0 5.258545-4.24146 9.5-9.5 9.5s-9.5-4.241455-9.5-9.5c0-5.2585451 4.24146-9.5 9.5-9.5z" stroke-miterlimit="10"/></g></svg>