<svg height="30mm" viewBox="0 0 30 30" width="30mm" xmlns="http://www.w3.org/2000/svg" xmlns:xlink="http://www.w3.org/1999/xlink"><clipPath id="a"><path d="m0 2834.646h2834.646v-2834.646h-2834.646z" transform="translate(-91.9855 -311.81193)"/></clipPath><g transform="translate(-360)"><g clip-path="url(#a)" stroke-miterlimit="10" transform="matrix(.37968369 0 0 -.37968364 388.39998 15)"><path d="m0 0c0-19.491-15.801-35.292-35.293-35.292-19.491 0-35.292 15.801-35.292 35.292s15.801 35.292 35.292 35.292c19.492 0 35.293-15.801 35.293-35.292" fill="#f9d08f"/><path d="m-35.292969-36.082031c-19.918009 0-36.082031 16.164022-36.082031 36.082031s16.164022 36.082031 36.082031 36.082031c19.918988 0 36.08398462-16.164022 36.08398462-36.082031.00000001-19.918009-16.16499662-36.082031-36.08398462-36.082031zm0 1.580078c19.064974 0 34.50195338 15.438001 34.50195338 34.501953s-15.43697938 34.501953-34.50195338 34.501953c-19.063951 0-34.501953-15.438001-34.501953-34.501953s15.438002-34.501953 34.501953-34.501953z" fill="#4d3608"/></g><g fill="#d20000"><path d="m379.79563 19.106552v-2.204859h-3.5829v2.204859zm0-3.362411v-2.094616h-3.5829v2.094616zm0-3.141924v-2.094617h-3.5829v2.094617zm-4.85069 8.488708v-11.6857544h6.11848v11.5755114h-1.26779v-.716579h-3.5829v.826822zm-3.41753-9.701381v-2.5907097h1.26779v2.5907097h1.59853v1.10243h-1.59853v1.433158q.88195.771701 1.76389 1.322916-.22049.330729-.71658 1.157551-.22049-.220486-.55121-.496093-.33073-.330729-.4961-.385851v5.677513h-1.26779v-5.842877q-.44097.826822-.93707 1.653645-.2756.496093-.88194 1.267794-.22049-.440972-.7717-1.212673.93706-1.212673 1.5434-2.204859.55121-.937066 1.04731-2.370224h-2.0395v-1.10243z" stroke-width=".352777"/><path d="m375 3.5c-6.33942 0-11.5 5.1605759-11.5 11.5 0 6.339424 5.16058 11.5 11.5 11.5s11.5-5.160576 11.5-11.5c0-6.3394241-5.16058-11.5-11.5-11.5zm0 2c5.25854 0 9.5 4.2414549 9.5 9.5 0 5.258545-4.24146 9.5-9.5 9.5s-9.5-4.241455-9.5-9.5c0-5.2585451 4.24146-9.5 9.5-9.5z" stroke-miterlimit="10"/></g></g></svg>