<svg height="30mm" viewBox="0 0 30 30" width="30mm" xmlns="http://www.w3.org/2000/svg" xmlns:xlink="http://www.w3.org/1999/xlink"><clipPath id="a"><path d="m0 2834.646h2834.646v-2834.646h-2834.646z" transform="translate(-91.9855 -311.81193)"/></clipPath><g transform="translate(-520)"><g clip-path="url(#a)" stroke-miterlimit="10" transform="matrix(.37968369 0 0 -.37968364 548.39998 15)"><path d="m0 0c0-19.491-15.801-35.292-35.293-35.292-19.491 0-35.292 15.801-35.292 35.292s15.801 35.292 35.292 35.292c19.492 0 35.293-15.801 35.293-35.292" fill="#f9d08f"/><path d="m-35.292969-36.082031c-19.918009 0-36.082031 16.164022-36.082031 36.082031s16.164022 36.082031 36.082031 36.082031c19.918988 0 36.08398462-16.164022 36.08398462-36.082031.00000001-19.918009-16.16499662-36.082031-36.08398462-36.082031zm0 1.580078c19.064974 0 34.50195338 15.438001 34.50195338 34.501953s-15.43697938 34.501953-34.50195338 34.501953c-19.063951 0-34.501953-15.438001-34.501953-34.501953s15.438002-34.501953 34.501953-34.501953z" fill="#4d3608"/></g><g fill="#d20000"><path d="m537.09461 11.113937v-2.4804672h1.15755v2.4804672h2.53559v7.000428q0 .440972-.33073.71658-.44097.330728-1.37804.496093-.0551-.220486-.44097-1.378037h.71658q.11024 0 .16537-.05512.0551-.05512.0551-.220486v-5.401905h-1.32292v9.095045h-1.15755v-9.095045h-1.26779v6.890185h-1.15756v-8.047736zm-4.63021 7.661886v-1.929252h-1.98437v1.929252zm-.0551-5.401905v-1.708766h-1.92925v1.708766zm-.0551-4.6302052-.38585 1.8190092h1.70877v3.968747h-3.19705v1.157551h3.25217v4.850691h-1.2678v-.661458h-1.98437v1.157551h-1.26779v-10.473082h1.48828l.33073-1.9292522z" stroke-width=".352777"/><path d="m535 3.5c-6.33942 0-11.5 5.1605759-11.5 11.5 0 6.339424 5.16058 11.5 11.5 11.5s11.5-5.160576 11.5-11.5c0-6.3394241-5.16058-11.5-11.5-11.5zm0 2c5.25854 0 9.5 4.2414549 9.5 9.5 0 5.258545-4.24146 9.5-9.5 9.5s-9.5-4.241455-9.5-9.5c0-5.2585451 4.24146-9.5 9.5-9.5z" stroke-miterlimit="10"/></g></g></svg>