<svg height="30mm" viewBox="0 0 30 30" width="30mm" xmlns="http://www.w3.org/2000/svg" xmlns:xlink="http://www.w3.org/1999/xlink"><clipPath id="a"><path d="m0 2834.646h2834.646v-2834.646h-2834.646z" transform="translate(-91.9855 -311.81193)"/></clipPath><g transform="translate(-40)"><g clip-path="url(#a)" stroke-miterlimit="10" transform="matrix(.37968369 0 0 -.37968364 68.399899 15)"><path d="m0 0c0-19.491-15.801-35.292-35.293-35.292-19.491 0-35.292 15.801-35.292 35.292s15.801 35.292 35.292 35.292c19.492 0 35.293-15.801 35.293-35.292" fill="#f9d08f"/><path d="m-35.292969-36.082031c-19.918009 0-36.082031 16.164022-36.082031 36.082031s16.164022 36.082031 36.082031 36.082031c19.918988 0 36.08398462-16.164022 36.08398462-36.082031.00000001-19.918009-16.16499662-36.082031-36.08398462-36.082031zm0 1.580078c19.064974 0 34.50195338 15.438001 34.50195338 34.501953s-15.43697938 34.501953-34.50195338 34.501953c-19.063951 0-34.501953-15.438001-34.501953-34.501953s15.438002-34.501953 34.501953-34.501953z" fill="#4d3608"/></g><g fill="#d20000"><path d="m61.035799 20.126298q-.330729.220486-.38585.330729-.110243.110243-.496094.716579-2.370223-1.047308-3.858503-2.149738l.826822-.992186q2.315102 1.653644 3.913625 2.094616zm-11.189661 1.157551q-.496094-.661457-.881944-1.047308 1.598523-.716579 2.039495-.992187.330729-.165364 1.819009-1.212672l.937065.826822q-1.819009 1.48828-3.913625 2.425345zm7.110671-4.630204v-3.252168h-4.46484v3.252168zm-4.46484-5.787756v1.48828h7.882372v1.047308h-2.204859v3.252168h2.97656v1.102429h-12.292091v-1.102429h2.370224v-7.000429l1.047308.2204859q.440972 0 2.59071-.3307289 2.259981-.3307289 4.189233-.8268223l.606336 1.1575512q-3.913625.7717011-7.165793.9921871z" stroke-width=".352777"/><path d="m55 3.5c-6.339424 0-11.5 5.1605759-11.5 11.5 0 6.339424 5.160576 11.5 11.5 11.5s11.5-5.160576 11.5-11.5c0-6.3394241-5.160576-11.5-11.5-11.5zm0 2c5.258544 0 9.5 4.2414549 9.5 9.5 0 5.258545-4.241456 9.5-9.5 9.5s-9.5-4.241455-9.5-9.5c0-5.2585451 4.241456-9.5 9.5-9.5z" stroke-miterlimit="10"/></g></g></svg>