<svg height="30mm" viewBox="0 0 30 30" width="30mm" xmlns="http://www.w3.org/2000/svg" xmlns:xlink="http://www.w3.org/1999/xlink"><clipPath id="a"><path d="m0 2834.646h2834.646v-2834.646h-2834.646z" transform="translate(-91.9855 -311.81193)"/></clipPath><g transform="translate(-200)"><g clip-path="url(#a)" stroke-miterlimit="10" transform="matrix(.37968369 0 0 -.37968364 228.39999 15)"><path d="m0 0c0-19.491-15.801-35.292-35.293-35.292-19.491 0-35.292 15.801-35.292 35.292s15.801 35.292 35.292 35.292c19.492 0 35.293-15.801 35.293-35.292" fill="#f9d08f"/><path d="m-35.292969-36.082031c-19.918009 0-36.082031 16.164022-36.082031 36.082031s16.164022 36.082031 36.082031 36.082031c19.918988 0 36.08398462-16.164022 36.08398462-36.082031.00000001-19.918009-16.16499662-36.082031-36.08398462-36.082031zm0 1.580078c19.064974 0 34.50195338 15.438001 34.50195338 34.501953s-15.43697938 34.501953-34.50195338 34.501953c-19.063951 0-34.501953-15.438001-34.501953-34.501953s15.438002-34.501953 34.501953-34.501953z" fill="#4d3608"/></g><g fill="#d20000"><path d="m216.07495 16.157552v-1.047308h-1.81901v1.047308zm3.14193 0v-1.047308h-1.87413v1.047308zm-3.14193-1.984373v-.992187h-1.81901v.992187zm3.14193 0v-.992187h-1.87413v.992187zm-3.14193-4.023869v-1.378037h1.2678v1.378037h3.63801v1.047308h-3.63801v.937066h3.14192v5.126298h-3.14192v1.047308h4.13411v1.047308h-4.13411v2.039495h-1.2678v-2.039495h-3.8585v-1.047308h3.8585v-1.047308h-3.03168v-5.126298h3.03168v-.937066h-3.47265v-1.047308zm-4.51996 1.763888v9.536017h-1.32292v-7.055551q-.66145 1.267795-.99218 1.763888-.0551-.330729-.27561-.606336-.16536-.330729-.44097-.71658.82682-1.267794 1.5434-2.811195.71658-1.543402 1.26779-3.472654l1.37804.4960934q-.60633 1.7087656-1.15755 2.8663176z" stroke-width=".352777"/><path d="m215 3.5c-6.33942 0-11.5 5.1605759-11.5 11.5 0 6.339424 5.16058 11.5 11.5 11.5s11.5-5.160576 11.5-11.5c0-6.3394241-5.16058-11.5-11.5-11.5zm0 2c5.25854 0 9.5 4.2414549 9.5 9.5 0 5.258545-4.24146 9.5-9.5 9.5s-9.5-4.241455-9.5-9.5c0-5.2585451 4.24146-9.5 9.5-9.5z" stroke-miterlimit="10"/></g></g></svg>