<svg height="92" width="92" xmlns="http://www.w3.org/2000/svg" xmlns:xlink="http://www.w3.org/1999/xlink"><linearGradient id="a"><stop offset="0" stop-color="#dca682"/><stop offset=".18120606" stop-color="#dcae90" stop-opacity=".980392"/><stop offset=".36145115" stop-color="#d5a17e" stop-opacity=".972549"/><stop offset=".55711311" stop-color="#d5a17f" stop-opacity=".968627"/><stop offset=".7371344" stop-color="#d29b78" stop-opacity=".964706"/><stop offset=".88531494" stop-color="#dcaa88" stop-opacity=".964706"/><stop offset="1" stop-color="#dba37e" stop-opacity=".964706"/></linearGradient><radialGradient cx="45.381359" cy="48.334743" gradientTransform="matrix(.29888985 0 0 .28666316 31.817329 34.478952)" gradientUnits="userSpaceOnUse" r="40.95509" spreadMethod="repeat" xlink:href="#a"/><radialGradient id="b" cx="45.381359" cy="48.334743" gradientTransform="matrix(.48654155 0 0 .51052834 23.30144 23.658486)" gradientUnits="userSpaceOnUse" r="40.95509" spreadMethod="repeat" xlink:href="#a"/><filter id="c" color-interpolation-filters="sRGB" height="1.172582" width="1.123553" x="-.061776" y="-.061776"><feFlood flood-opacity=".498039" result="flood"/><feComposite in="flood" in2="SourceGraphic" operator="in" result="composite1"/><feGaussianBlur in="composite1" result="blur" stdDeviation="2.1"/><feOffset dx="0" dy="4" result="offset"/><feComposite in="SourceGraphic" in2="offset" operator="over" result="composite2"/></filter><filter id="d" color-interpolation-filters="sRGB" height="1.453125" width="1.289263" x="-.155757" y="-.247936"><feFlood flood-opacity=".498039" in="SourceGraphic" result="flood"/><feGaussianBlur in="SourceGraphic" result="blur" stdDeviation="3"/><feOffset dx="-1.2" dy="-1.5" in="blur" result="offset"/><feComposite in="flood" in2="offset" operator="out" result="comp1"/><feComposite in="comp1" in2="SourceGraphic" operator="atop" result="comp2"/></filter><circle cx="45.381359" cy="48.334743" fill="url(#b)" filter="url(#c)" r="40.79224" transform="translate(.618638 -2.334746)"/><path d="m35.58523 64.173827c-.96842-.39516-1.02188-.84387-.86679-7.27859l.14816-6.14696h-1.11677-1.11687l-.01 1.01883c-.0202 4.30831-2.25297 9.71871-4.60843 11.16653-1.65156 1.01511-3.79781.78826-5.63503-.59559-.95246-.71746-.98976-1.20484-.1198-1.56434 2.43075-1.00452 3.19264-1.43463 4.00509-2.26093 1.34946-1.37243 2.0702-3.1135 2.2252-5.37486.1596-2.32871-.0423-2.48589-2.19827-1.71267-2.74333.98373-3.22985.47006-1.70261-1.79765 1.00957-1.4991 1.90751-1.87024 4.04702-1.67267 5.10101.47103 5.15918.47159 5.79511.0549.56738-.37173.61036-.52077.54488-1.88904l-.0712-1.48547-3.1164-.0642c-2.29095-.0472-3.4656.0364-4.43489.31579-2.27508.65583-2.4918.66582-2.97043.13693-.63372-.70024-.32691-1.61569.95188-2.84104 1.00091-.95902 1.11668-1.00643 2.12105-.86876l1.06236.14561.0769-3.84142c.0894-4.48185.24076-4.84919 1.99462-4.84919 1.74174 0 1.90482.38414 1.99461 4.69725.0721 3.45969.10894 3.71202.59267 4.05089.28384.19876.86948.36138 1.30167.36138h.78564v-5.214c0-5.98188.0933-6.36978 1.49416-6.48666 1.21918-.10171 2.45902.53857 2.91861 1.50722.3221.67868.37816 2.04655.37816 9.22717v8.43036l.73977-.52675c.40681-.28972 1.22129-.70953 1.80972-.93293l1.07005-.40618-.99736-.32917c-1.09956-.3629-1.56954-1.05892-1.33801-1.9816.13037-.51935.35104-.61638 2.00817-.88285 2.00712-.32275 5.12245-1.17228 6.63739-1.80996 1.19532-.50316.79755-.82-1.05996-.84424-.72515-.01-1.69607-.14853-2.15749-.30905-.78794-.27407-.8365-.35207-.79612-1.27986l.0432-.98799-.88198.11346c-1.15668.14881-3.15927-.7109-3.15927-1.35627 0-.32695.3619-.58641 1.3157-.9433 3.33543-1.24795 7.391-3.69413 10.1452-6.1193 2.10336-1.85209 3.00592-1.98737 4.42075-.66265.73334.68653.83756 1.39882.3073 2.09984-.55315.7314-.43537 1.05944.5318 1.48039.71304.31035 1.57522.3792 4.16818.33287 3.52041-.0628 4.72102.19766 5.22167 1.13312.39758.74296.30951 1.68912-.22758 2.44341-.57026.80078-3.15332 2.27819-5.86607 3.35513-1.05476.41876-3.37418 1.4382-5.15409 2.26544-1.77992.82724-4.74651 2.06801-6.59238 2.75726-1.84588.68923-3.41014 1.3069-3.476 1.37257-.0664.0657 2.0376.0419 4.67459-.0528 3.39917-.12209 5.14207-.28653 5.98866-.565l1.19418-.39277.0192-1.35195c.024-1.69153.52719-2.52526 1.65002-2.73591 1.9227-.36068 3.73319 1.03522 3.73319 2.87828 0 .6141.1423 1.14913.352 1.32312.34672.28782 6.28596.92156 9.11708.97285 2.28086.0413 2.37239.12446 1.7104 1.55344-.91303 1.97059-2.74757 3.22775-4.71641 3.23206-.3349.00072-1.66454-.32862-2.95477-.73192s-2.49892-.69996-2.68603-.65925c-.27335.0594-.36085.90618-.44478 4.30168-.11509 4.65734-.32499 5.81627-1.25293 6.91913-2.81765 3.34848-11.04006 2.58945-16.3-1.50468-1.03727-.80737-1.28639-1.13322-1.23187-1.61135.10096-.88475 1.08332-.8903 3.17879-.018 2.44566 1.01815 5.51052 1.72058 6.71008 1.53788 1.18686-.18077 1.7354-.44186 2.57718-1.22672.87477-.81559 1.45522-3.46172 1.48426-6.76574l.0221-2.51711-4.50008-.0652c-4.29431-.0623-4.48258-.0458-4.11539.35958.21163.23366.68421.91699 1.05025 1.51853.5768.94801 1.32945 1.58371 3.28369 2.77375.42652.25974.42094.29862-.12865.892-.83775.90453-1.92221 1.2006-3.18543.86963-3.27465-.858-4.78419-3.64244-3.04726-5.62074.40921-.46606.62315-.84737.47527-.84737-1.401 0-6.86651 1.59443-8.67979 2.53214l-.69006.35686-.01 2.45101c-.01 3.4553-.3996 7.09729-.83255 7.75813-.65661 1.00217-2.62892 1.69904-3.64041 1.2863zm19.25487-23.6252c3.08966-1.2933 5.24129-2.66085 5.24129-3.33131 0-.62096-1.16898-1.27625-2.82179-1.58179-1.76271-.32586-3.74079.004-6.11116 1.0178-1.54925.66285-1.86626.89323-1.92548 1.3991-.0789.67328.5118 1.33402 1.86875 2.0909.56959.31768.83295.63297.82006.98171-.0106.28255.0577.51373.1524.51373.0942 0 1.34349-.49056 2.77593-1.09014zm-1.2313-1.22362c-1.68848-.22325-1.79789-.29146-1.79789-1.12099 0-.43375.14384-.98537.3197-1.22582.27681-.37855.4294-.40053 1.13869-.16395 1.53493.51207 3.37128 1.70748 3.28898 2.14103-.0798.42017-1.35696.58028-2.94948.36973z" fill="#050" filter="url(#d)" stroke-width=".239724"/></svg>