<svg height="92" width="92" xmlns="http://www.w3.org/2000/svg" xmlns:xlink="http://www.w3.org/1999/xlink"><linearGradient id="a"><stop offset="0" stop-color="#dca682"/><stop offset=".18120606" stop-color="#dcae90" stop-opacity=".980392"/><stop offset=".36145115" stop-color="#d5a17e" stop-opacity=".972549"/><stop offset=".55711311" stop-color="#d5a17f" stop-opacity=".968627"/><stop offset=".7371344" stop-color="#d29b78" stop-opacity=".964706"/><stop offset=".88531494" stop-color="#dcaa88" stop-opacity=".964706"/><stop offset="1" stop-color="#dba37e" stop-opacity=".964706"/></linearGradient><radialGradient cx="45.381359" cy="48.334743" gradientTransform="matrix(.29888985 0 0 .28666316 31.817329 34.478952)" gradientUnits="userSpaceOnUse" r="40.95509" spreadMethod="repeat" xlink:href="#a"/><radialGradient id="b" cx="45.381359" cy="48.334743" gradientTransform="matrix(.48654155 0 0 .51052834 23.30144 23.658486)" gradientUnits="userSpaceOnUse" r="40.95509" spreadMethod="repeat" xlink:href="#a"/><filter id="c" color-interpolation-filters="sRGB" height="1.172582" width="1.123553" x="-.061776" y="-.061776"><feFlood flood-opacity=".498039" result="flood"/><feComposite in="flood" in2="SourceGraphic" operator="in" result="composite1"/><feGaussianBlur in="composite1" result="blur" stdDeviation="2.1"/><feOffset dx="0" dy="4" result="offset"/><feComposite in="SourceGraphic" in2="offset" operator="over" result="composite2"/></filter><filter id="d" color-interpolation-filters="sRGB" height="1.299324" width="1.21482" x="-.115672" y="-.161175"><feFlood flood-opacity=".498039" in="SourceGraphic" result="flood"/><feGaussianBlur in="SourceGraphic" result="blur" stdDeviation="2"/><feOffset dx="-.8" dy="-.8" in="blur" result="offset"/><feComposite in="flood" in2="offset" operator="out" result="comp1"/><feComposite in="comp1" in2="SourceGraphic" operator="atop" result="comp2"/></filter><circle cx="45.381359" cy="48.334743" fill="url(#b)" filter="url(#c)" r="40.79224" transform="translate(.618638 -2.334746)"/><g fill="#ff0101" filter="url(#d)" stroke-width=".239724" transform="translate(340.0475 -502.00171)"><path d="m-289.9032 563.62276c-.42767-.10154-.95678-.33322-1.17581-.51484-.97475-.80838-1.04312-1.51239-1.04312-10.74204 0-7.76634-.0577-9.16464-.46094-11.24704-.56824-2.93114-.36931-4.14423.79612-4.85491.86668-.52846 2.46854-.59583 3.14744-.13236.66545.45433 11.46255 1.02627 12.41472.65761.37113-.14369 1.25282-.26128 1.95932-.26128 1.04602 0 1.42744.12027 2.05443.64782l.76987.64782-.17807 2.2888c-.0979 1.25884-.24729 6.38807-.33201 11.39831-.14537 8.60608-.18153 9.16251-.65419 10.0684-.96179 1.84332-2.74892 2.50628-4.26586 1.58248-.99131-.60364-4.69767-1.08664-7.04131-.91761-1.36167.0982-2.28691.33109-3.46974.87321-.88708.40662-1.64213.72826-1.678.71477-.0356-.0135-.41517-.10762-.84285-.20914zm11.84733-4.94493c.59517-.44321.68536-.681.74805-1.97237.12326-2.54163.30393-2.45846-5.17659-2.38308l-4.72333.065-.0693 2.10151c-.0548 1.65397 0 2.1297.27566 2.23388.93265.35793 2.93669.5421 5.46955.50267 2.42921-.0378 2.88871-.11021 3.47599-.54756zm1.22562-9.37112c.0625-1.76242.0202-1.99076-.41325-2.22254-.31084-.16638-2.16989-.23518-5.2235-.1933l-4.74074.065-.19836 1.64786c-.10913.90631-.13345 1.90627-.0539 2.2221l.14413.57426 5.20832-.0646 5.20822-.0646zm0-6.92748c.05-1.02613-.0288-1.54263-.26345-1.73735-.39343-.32651-8.69565-.89532-9.6332-.66-.62699.15735-.62853.16394-.4617 1.88789.0923.95149.287 1.81049.43324 1.90888.14615.0984 2.42335.15233 5.06025.11986l4.79448-.059z"/><path d="m-304.3481 565.29478c-.45805-.45814-.4794-.79908-.4794-7.67116 0-3.9709-.0942-7.19173-.21057-7.19173-.11586 0-.67381.60047-1.24003 1.33439-2.41528 3.13061-6.14289 5.89475-8.37807 6.21252-2.11923.30129-4.54123-1.16125-5.04957-3.04919-.13519-.50211-.1875-1.00736-.11615-1.12278.0712-.11542 1.02014-.49305 2.10836-.83918 4.64652-1.47788 10.72623-5.21705 12.16078-7.47915.91361-1.44057 1.13043-2.42531.6417-2.91402-.40085-.4009-1.49368-.24426-6.60825.94716-1.10937.25844-2.2823.40334-2.60641.32198-.52556-.13191-.57421-.24099-.4496-1.00859.2321-1.43081 1.23667-2.68252 2.68497-3.34556 1.19341-.54635 1.39907-.57106 2.67949-.3218.76275.14847 2.03404.23556 2.82516.19351l1.43829-.0765-.0875-3.26014c-.0962-3.57511.025-4.06061 1.16158-4.64827 1.02697-.53108 2.12221-.44955 3.00496.22371 1.23629.94301 1.63751 2.07905 1.61319 4.56829-.0317 3.21116-.01 3.23627 2.93053 3.23627 2.74276 0 3.06323.1498 2.74391 1.2828-.36699 1.3022-.96899 1.59341-3.30244 1.59756-2.55497.005-2.78843.1274-2.5619 1.34849.40643 2.19163 1.96481 3.97388 5.70493 6.5244.62622.4271 1.1386.86963 1.1386.98343s-.33181.48618-.73747.82751c-1.2332 1.03766-2.2497.87093-4.2547-.69785-.92678-.72517-1.74685-1.31848-1.82241-1.31848-.076 0-.13903 3.2093-.14106 7.13179 0 3.92248-.0913 7.26995-.19845 7.43881-.26739.4214-2.51978 1.25118-3.39628 1.25118-.397 0-.93044-.21384-1.1961-.47944z"/></g></svg>