<svg xmlns="http://www.w3.org/2000/svg" width="51.988" height="60">
<!--
Created by Hari Seldon and modified by orangain, licensed under Creative Commons Attribution-Share Alike 3.0 Unported.
See: https://creativecommons.org/licenses/by-sa/3.0/deed.en

Original file is available at: https://commons.wikimedia.org/wiki/File:Shogi_fuhyo(svg).svg
-->
<filter id="drop-shadow">
    <feGaussianBlur in="SourceAlpha" result="blur" stdDeviation="2" />
    <feOffset result="offsetBlur" dx="2" dy="2" />
    <feBlend in="SourceGraphic" in2="offsetBlur" mode="normal" />
</filter>
<g filter="url(#drop-shadow)" transform="translate(7 8) scale(0.86)">
    <path d="M7.507 4.392l-6.744 44.72 40.64 0.178 -7.454 -44.898 -12.6 -3.727z" fill="#FEEC99"/>
    <path d="M24.98 43.02C22.097 40.371 21.892 40.062 23.019 40.062 24.838 40.062 29.341 42.442 29.708 43.597 29.998 44.509 29.228 46.055 28.511 46.001 28.339 45.988 26.751 44.647 24.98 43.02ZM10.707 45.243C10.925 45.009 12.155 44.251 13.44 43.558 14.992 42.721 15.83 41.923 15.935 41.18 16.115 39.914 16.906 39.755 18.227 40.721 19.46 41.623 18.855 43.336 16.957 44.318 15.344 45.152 10.062 45.933 10.707 45.243ZM10.311 39.477C8.011 37.667 8.666 37.127 12.784 37.438 16.989 37.756 17.407 37.441 16.633 34.532 16.181 32.838 15.733 32.653 13.665 33.312 11.86 33.888 12.369 32.978 15.031 30.869 16.398 29.787 17.516 28.506 17.516 28.022 17.516 27.013 18.526 26.862 19.404 27.739 20.23 28.565 20.149 29.633 19.178 30.706 18.398 31.568 18.436 31.615 19.913 31.615 20.77 31.615 22.383 31.25 23.499 30.803 25.113 30.157 25.781 30.108 26.778 30.562 28.211 31.215 28.112 32.288 26.598 32.512 26.016 32.598 25.468 33.136 25.334 33.754 25.204 34.354 24.92 35.269 24.704 35.788 24.334 36.673 24.494 36.71 27.297 36.392 29.806 36.109 30.47 36.204 31.437 36.987 33.04 38.285 32.466 39.816 30.553 39.341 29.805 39.156 27.156 38.881 24.667 38.731 20.487 38.48 19.11 38.636 13.417 40.006 11.876 40.376 11.339 40.285 10.311 39.476ZM22.659 36.704C23.186 35.852 23.596 32.477 23.139 32.76 22.876 32.922 21.713 33.11 20.554 33.18 18.696 33.289 18.478 33.424 18.719 34.322 18.869 34.882 18.996 35.732 18.999 36.211 19.005 36.869 19.422 37.081 20.716 37.081 21.656 37.081 22.531 36.911 22.659 36.704ZM15.031 26.484C15.031 26.352 16.265 25.547 17.773 24.696 22.179 22.21 24.473 19.881 24.473 17.892 24.473 16.967 24.267 16.211 24.016 16.211 22.811 16.211 21.988 16.921 21.988 17.962 21.988 18.594 21.852 19.465 21.686 19.897 21.309 20.88 19.503 20.937 19.503 19.967 19.503 18.57 18.457 18.638 16.738 20.147 14.923 21.742 13.168 22.098 12.149 21.08 11.317 20.248 11.406 18.63 12.359 17.268 13.169 16.112 14.345 16.024 17.267 16.903 18.712 17.337 20.173 16.047 19.749 14.711 19.487 13.887 19.157 13.711 18.337 13.961 16.184 14.616 15.802 14.471 15.243 12.781 14.935 11.85 14.28 10.794 13.787 10.434 12.991 9.851 12.979 9.744 13.684 9.474 15.122 8.922 16.266 9.494 16.77 11.014 17.226 12.39 17.381 12.474 18.634 12.031 19.724 11.645 19.999 11.24 19.993 10.028 19.983 8.268 19.598 7.569 18.385 7.122 16.7 6.5 17.479 5.716 19.628 5.872 21.306 5.993 21.768 6.23 21.883 7.029 22.005 7.877 22.326 8.006 23.937 7.852 25.075 7.744 25.997 7.912 26.217 8.269 26.719 9.082 25.562 9.734 23.603 9.743 22.641 9.748 21.988 10.003 21.988 10.376 21.988 10.807 22.65 10.948 24.128 10.83 25.613 10.712 26.462 10.894 26.904 11.426 27.826 12.537 27.141 13.241 25.465 12.906 23.227 12.459 21.535 13.041 21.827 14.159 22.037 14.961 22.329 15.035 23.893 14.678 26.063 14.182 29.213 14.901 29.63 15.987 29.97 16.873 28.862 17.429 27.475 17.067 26.642 16.848 26.527 17.067 26.594 18.741 26.725 22.045 22.816 25.045 16.646 26.376 15.758 26.568 15.031 26.616 15.031 26.484ZM15.064 19.174C16.406 18.456 16.262 17.701 14.783 17.701 14.1 17.701 13.541 17.795 13.541 17.909 13.541 18.024 13.405 18.471 13.239 18.903 12.891 19.808 13.665 19.923 15.064 19.175Z" fill="#d0d0d0"/>
    <path d="M25.342 43.343C23.77 41.892 22.485 40.543 22.485 40.344 22.485 40.146 23.211 40.14 24.1 40.331 27.86 41.141 30.695 43.769 29.44 45.281 29.1 45.691 28.682 46.015 28.51 46.002 28.34 45.99 26.913 44.793 25.342 43.342ZM11.275 44.767C11.805 44.365 12.455 44.037 12.719 44.037 13.722 44.037 16.582 41.433 16.323 40.757 15.961 39.813 17.255 39.872 18.226 40.843 19.234 41.851 19.211 42.14 18.016 43.423 16.929 44.589 14.128 45.53 11.801 45.509 10.383 45.497 10.358 45.461 11.275 44.767ZM9.842 38.957C9.417 38.35 9.068 37.717 9.068 37.549 9.068 37.382 10.858 37.349 13.044 37.475 17.448 37.73 17.426 37.75 16.709 34.165 16.411 32.674 16.324 32.626 14.349 32.883L12.299 33.15 13.529 32.258C16.409 30.171 17.947 28.543 17.685 27.86 17.349 26.985 18.565 26.9 19.404 27.739 20.381 28.716 20.087 29.977 18.634 31.042L17.267 32.043 19.503 31.793C20.733 31.656 22.58 31.189 23.607 30.756 25.082 30.135 25.737 30.088 26.713 30.533 28.28 31.246 28.296 32.006 26.751 32.393 26.055 32.568 25.431 33.178 25.263 33.848 25.103 34.482 24.823 35.393 24.639 35.872 24.336 36.662 24.582 36.714 27.283 36.432 29.539 36.196 30.523 36.304 31.343 36.877 33.624 38.475 32.294 39.776 29.129 39.041 26.16 38.353 19.061 38.501 16.025 39.317 12.187 40.347 10.757 40.264 9.842 38.957ZM23.236 35.06C23.424 33.948 23.499 32.984 23.404 32.917 23.308 32.851 22.06 32.887 20.629 32.998 18.285 33.18 18.077 33.29 18.517 34.114 18.787 34.616 19.007 35.49 19.007 36.054 19.007 36.917 19.317 37.081 20.95 37.081 22.836 37.081 22.904 37.021 23.236 35.06ZM15.528 26.406C15.528 26.304 16.814 25.434 18.385 24.473 22.949 21.683 24.472 20.048 24.472 17.943 24.472 16.365 24.335 16.161 23.368 16.3 22.508 16.424 22.172 16.926 21.848 18.571 21.385 20.925 20.518 21.273 19.37 19.565L18.618 18.447 17.446 19.503C16.004 20.801 14.352 21.677 13.342 21.677 12.293 21.677 11.407 19.843 11.765 18.415 12.216 16.617 13.795 15.981 16.095 16.67 18.485 17.386 20.138 16.687 19.906 15.06 19.754 13.99 19.354 13.894 16.824 14.315 16.106 14.435 15.714 13.971 15.168 12.36 14.774 11.198 14.247 10.248 13.996 10.248 13.746 10.248 13.541 10.01 13.541 9.718 13.541 9.427 14.155 9.258 14.907 9.345 15.923 9.462 16.401 9.889 16.77 11.009 17.226 12.39 17.38 12.475 18.634 12.031 19.724 11.645 19.999 11.24 19.993 10.028 19.983 8.268 19.598 7.569 18.385 7.122 16.797 6.536 17.445 5.71 19.368 5.87 20.615 5.974 21.385 6.349 21.728 7.018 22.115 7.775 22.637 7.974 23.914 7.852 25.887 7.663 27.11 8.525 25.959 9.292 25.551 9.565 24.491 9.682 23.603 9.552 22.26 9.356 21.988 9.477 21.988 10.27 21.988 11.106 22.248 11.187 24.118 10.93 25.741 10.708 26.411 10.832 26.923 11.45 27.868 12.588 27.271 12.952 24.717 12.795 22.109 12.635 21.502 12.915 21.819 14.129 22.021 14.9 22.471 14.997 25.004 14.814 28.04 14.594 29.441 15.143 29.441 16.552 29.441 17.06 28.975 17.222 27.836 17.112 26.277 16.961 26.235 17.007 26.374 18.715 26.627 21.808 23.988 24.085 18.137 25.819 16.702 26.244 15.528 26.509 15.528 26.406ZM15.813 18.656C16.745 17.626 16.741 17.622 15.024 17.786 13.859 17.896 13.247 18.232 13.135 18.82 12.902 20.053 14.645 19.946 15.813 18.655Z" fill="#b0b0b0"/>
    <path d="M11.737 44.925C12.248 44.573 13.367 43.833 14.222 43.28 15.077 42.726 15.998 41.775 16.268 41.166 16.814 39.934 17.428 39.948 18.223 41.21 19.319 42.947 17.006 44.755 13.023 45.275 11.115 45.525 10.937 45.476 11.737 44.925ZM25.034 43.013C23.566 41.638 22.466 40.413 22.589 40.289 22.712 40.166 23.956 40.405 25.354 40.82 28.991 41.9 31.282 45.075 28.657 45.396 28.087 45.466 26.625 44.503 25.034 43.013ZM9.758 38.804C8.716 37.214 9.043 36.893 11.134 37.454 12.047 37.699 13.746 37.804 14.907 37.687 17.183 37.457 17.315 37.194 16.702 34.129 16.395 32.593 16.322 32.553 14.342 32.832 12.576 33.082 12.428 33.035 13.252 32.492 15.562 30.972 18.038 28.422 17.802 27.809 17.317 26.544 19.027 27.142 19.622 28.445 20.158 29.624 20.08 29.855 18.8 30.876L17.386 32.004 19.811 31.75C21.145 31.61 22.927 31.18 23.771 30.792 24.904 30.272 25.651 30.219 26.628 30.59 28.372 31.253 28.304 31.955 26.456 32.361 25.633 32.541 25.067 32.862 25.198 33.073 25.328 33.284 25.172 34.152 24.852 35.001 24.532 35.851 24.37 36.642 24.495 36.76 24.619 36.877 25.839 36.8 27.205 36.586 29.98 36.154 32.423 37.003 32.423 38.4 32.423 39.096 31.966 39.144 28.82 38.784 24.085 38.241 18.93 38.458 15.456 39.345 11.579 40.336 10.707 40.253 9.758 38.805ZM23.165 35.963C23.33 35.348 23.468 34.315 23.472 33.669 23.477 32.69 23.29 32.543 22.361 32.792 21.746 32.957 20.521 33.095 19.64 33.099 18.109 33.105 18.06 33.165 18.542 34.433 18.82 35.163 18.933 36.058 18.794 36.421 18.607 36.907 19.11 37.081 20.704 37.081 22.526 37.081 22.913 36.905 23.165 35.963ZM15.528 26.407C15.528 26.305 16.704 25.549 18.141 24.727 22.262 22.369 24.341 20.235 24.649 18.044 24.904 16.237 24.857 16.157 23.619 16.304 22.581 16.428 22.211 16.851 21.776 18.407 21.144 20.675 20.295 21.168 19.519 19.719 18.783 18.344 18.203 18.426 16.198 20.186 14.28 21.87 13.458 22.021 12.334 20.896 11.216 19.778 11.368 18.546 12.79 17.21 13.938 16.131 14.164 16.093 15.948 16.682 18.903 17.658 20.628 16.438 19.703 14.028 19.437 13.333 19.258 13.331 17.95 14.008 16.14 14.943 15.655 14.661 15.236 12.427 15.054 11.458 14.599 10.547 14.223 10.404 13.121 9.981 13.441 9.171 14.642 9.344 15.56 9.476 16.169 10.22 17.345 12.644 17.575 13.117 20.433 11.137 20.273 10.617 20.169 10.277 19.953 9.4 19.793 8.667 19.627 7.912 19.048 7.189 18.458 7.002 16.983 6.534 18.026 5.657 19.815 5.862 20.678 5.96 21.422 6.432 21.695 7.055 22.05 7.861 22.581 8.078 24.13 8.049 25.297 8.027 26.2 8.267 26.327 8.633 26.479 9.071 25.871 9.254 24.265 9.254 22.272 9.254 21.988 9.387 21.988 10.313 21.988 11.253 22.19 11.339 23.797 11.078 25.623 10.782 27.454 11.37 27.454 12.253 27.454 12.517 26.149 12.733 24.555 12.733 21.295 12.733 20.821 12.965 21.585 14.188 22.008 14.867 22.643 14.996 24.714 14.824 27.508 14.593 29.441 15.281 29.441 16.509 29.441 17.066 29.012 17.227 27.827 17.112 26.272 16.962 26.218 17.017 26.377 18.597 26.587 20.71 25.514 22.314 22.861 23.847 20.933 24.962 15.528 26.848 15.528 26.407ZM15.652 18.997C16.952 18.011 16.71 17.62 14.912 17.794 13.85 17.897 13.244 18.247 13.135 18.82 12.936 19.87 14.369 19.971 15.652 18.997ZM20 17.701C20 17.428 19.902 17.205 19.781 17.205 19.661 17.205 19.424 17.428 19.255 17.701 19.086 17.975 19.185 18.198 19.474 18.198 19.764 18.198 20 17.975 20 17.701Z" fill="#8e8e8e"/>
    <path d="M11.056 45.31C11.056 45.19 12.179 44.482 13.553 43.734 15.111 42.886 16.157 41.944 16.337 41.229 16.575 40.28 16.787 40.169 17.567 40.586 18.749 41.219 18.78 42.645 17.633 43.683 16.537 44.674 11.056 46.031 11.056 45.31ZM25.942 43.665C24.994 42.64 23.772 41.548 23.228 41.238 21.484 40.248 22.766 40.001 25.276 40.843 28.26 41.843 29.441 42.842 29.441 44.363 29.441 46.123 27.937 45.823 25.941 43.665ZM10.082 38.975C8.675 37.465 8.802 36.893 10.435 37.38 11.643 37.74 16.998 37.764 17.351 37.41 17.426 37.336 17.204 36.17 16.859 34.818 16.418 33.091 16.016 32.418 15.507 32.552 12.467 33.359 12.287 33.241 14.286 31.751 16.926 29.784 18.183 28.317 17.784 27.671 17.282 26.859 18.341 27.045 19.219 27.923 20.294 28.998 20.207 29.483 18.685 30.893L17.37 32.113 19.803 31.797C21.141 31.624 22.97 31.185 23.868 30.822 24.992 30.366 25.88 30.306 26.725 30.627 28.345 31.243 28.279 31.922 26.566 32.264 25.705 32.437 25.154 32.882 25.108 33.444 25.067 33.941 24.882 34.956 24.698 35.701L24.362 37.054 27.549 36.756C30.154 36.513 30.889 36.612 31.579 37.302 33.16 38.882 32.619 39.237 29.317 38.781 25.009 38.186 18.998 38.418 15.551 39.311 11.757 40.294 11.284 40.265 10.081 38.975ZM22.899 36.805C22.99 36.728 23.192 35.718 23.348 34.559 23.62 32.527 23.588 32.464 22.436 32.772 21.78 32.948 20.531 33.095 19.662 33.099 18.137 33.105 18.097 33.159 18.518 34.625 18.758 35.46 18.837 36.447 18.695 36.818 18.492 37.346 18.902 37.433 20.585 37.218 21.766 37.068 22.808 36.881 22.899 36.805ZM18.758 24.443C22.77 22.025 24.969 19.629 24.969 17.676 24.969 16.302 24.83 16.161 23.616 16.302 22.514 16.43 22.161 16.822 21.716 18.418 21.079 20.698 20.293 21.164 19.519 19.719 18.783 18.344 18.203 18.426 16.198 20.186 14.28 21.87 13.458 22.021 12.334 20.896 11.216 19.778 11.368 18.546 12.79 17.21 13.946 16.123 14.154 16.09 15.997 16.698 17.713 17.265 18.129 17.243 19.22 16.528 20.31 15.813 20.402 15.552 19.926 14.508 19.456 13.474 19.22 13.38 18.231 13.831 16.623 14.563 15.679 14.053 15.28 12.236 15.091 11.379 14.623 10.557 14.239 10.41 13.125 9.982 13.432 9.17 14.642 9.344 15.495 9.467 16.9 11.187 17.3 12.6 17.318 12.663 18.06 12.44 18.948 12.106 20.454 11.537 20.54 11.379 20.237 9.754 19.854 7.704 19.185 6.77 18.101 6.77 17.541 6.77 17.47 6.617 17.853 6.234 18.734 5.352 21.19 5.904 21.716 7.102 22.092 7.959 22.571 8.162 24.054 8.096 26.651 7.979 26.694 8.971 24.1 9.159 22.343 9.286 21.988 9.485 21.988 10.342 21.988 11.25 22.214 11.342 23.893 11.117 25.813 10.86 27.453 11.387 27.453 12.26 27.453 12.52 26 12.732 24.223 12.732 22.447 12.732 20.994 12.847 20.994 12.988 20.994 13.128 21.259 13.667 21.582 14.185 22.076 14.975 22.582 15.084 24.73 14.862 27.492 14.577 29.441 15.255 29.441 16.499 29.441 17.084 29.067 17.179 27.743 16.931L26.045 16.612 26.3 18.523C26.494 19.983 26.306 20.75 25.501 21.771 24.351 23.229 20.269 25.335 17.516 25.889 15.941 26.206 16.059 26.069 18.758 24.443ZM16.522 18.243C16.522 18.009 16.085 17.703 15.552 17.563 14.232 17.218 12.798 18.331 13.202 19.386 13.497 20.153 13.645 20.157 15.022 19.446 15.847 19.019 16.522 18.478 16.522 18.244ZM20 17.921C20 17.495 19.773 17.286 19.495 17.458 19.217 17.63 19.119 17.978 19.276 18.233 19.702 18.922 20 18.793 20 17.921Z" fill="#6f6f6f"/>
    <path d="M11.554 45.142C11.555 44.945 12.617 44.224 13.914 43.54 15.497 42.707 16.326 41.93 16.432 41.181 16.567 40.231 16.739 40.143 17.58 40.593 19.096 41.405 18.571 43.147 16.522 44.106 14.502 45.051 11.552 45.666 11.554 45.143ZM25.051 42.769L22.4 40.084 24.702 40.777C27.992 41.767 29.442 42.844 29.442 44.297 29.442 46.254 27.995 45.75 25.051 42.769ZM10.064 38.822C8.619 37.283 8.89 36.956 11.088 37.587 12.026 37.856 13.862 37.934 15.168 37.761 17.04 37.513 17.491 37.276 17.306 36.642 17.177 36.2 16.921 34.986 16.736 33.945 16.47 32.448 16.231 32.124 15.591 32.395 12.653 33.637 12.487 33.099 15.186 31.079 17.256 29.53 18.007 28.667 17.841 28.031 17.541 26.883 18.134 26.898 19.19 28.065 20.213 29.195 19.901 30.135 18.125 31.275 16.772 32.143 16.774 32.143 19.752 31.815 21.392 31.635 23.292 31.217 23.975 30.885 25.354 30.215 27.517 30.563 27.831 31.505 27.962 31.898 27.479 32.112 26.46 32.112 25.417 32.112 24.96 32.322 25.102 32.732 25.22 33.074 25.021 34.205 24.658 35.246L23.999 37.138 27.342 36.809C30.334 36.514 30.782 36.589 31.621 37.515 32.484 38.468 32.491 38.576 31.721 38.872 31.26 39.049 29.566 38.914 27.957 38.572 24.697 37.881 19.218 38.208 14.922 39.352 11.472 40.27 11.419 40.264 10.064 38.822ZM23.098 36.384C23.299 36.084 23.467 35.104 23.471 34.206L23.479 32.574 20.869 32.907C19.435 33.09 18.241 33.266 18.217 33.297 18.192 33.328 18.272 34.303 18.393 35.463L18.613 37.573 20.673 37.251C21.806 37.074 22.897 36.684 23.098 36.384ZM18.758 24.453C22.747 22.036 24.969 19.623 24.969 17.709 24.969 16.377 24.805 16.211 23.484 16.211 22.135 16.211 21.97 16.393 21.68 18.209 21.29 20.652 20.553 21.207 19.601 19.774 18.679 18.385 17.955 18.413 16.569 19.887 15.089 21.462 13.291 21.78 12.266 20.647 11.28 19.557 11.695 17.957 13.222 16.957 14.108 16.377 14.675 16.347 16.166 16.805 17.62 17.251 18.279 17.23 19.256 16.707 20.656 15.957 20.772 15.373 19.776 14.06 19.207 13.308 18.902 13.25 18.015 13.725 16.533 14.518 15.681 14.065 15.288 12.272 15.104 11.435 14.58 10.541 14.123 10.284 13.354 9.853 13.358 9.793 14.168 9.48 15.33 9.033 16.522 10.081 16.522 11.551 16.522 12.912 16.627 12.939 18.847 12.136 19.852 11.772 20.497 11.202 20.497 10.677 20.497 9.041 19.488 7.17 18.462 6.901 17.678 6.696 17.59 6.531 18.095 6.211 19.423 5.369 21.002 5.746 21.595 7.046 22.113 8.184 22.37 8.283 24.068 7.996 25.602 7.737 25.963 7.826 25.963 8.466 25.963 9.05 25.465 9.254 24.033 9.254 22.537 9.254 22.047 9.472 21.85 10.224 21.624 11.09 21.896 11.211 24.361 11.343 26.019 11.431 27.209 11.739 27.331 12.111 27.483 12.569 26.611 12.732 24.017 12.732 22.081 12.732 20.497 12.844 20.497 12.981 20.497 13.118 20.92 13.651 21.437 14.168 22.163 14.895 22.864 15.054 24.542 14.87 27.083 14.593 29.442 15.362 29.442 16.47 29.442 17.096 29.089 17.184 27.648 16.913 25.858 16.577 25.856 16.58 26.189 18.097 26.744 20.622 25.369 22.537 21.829 24.177 20.139 24.958 18.087 25.747 17.267 25.929 16.138 26.179 16.499 25.822 18.758 24.453ZM15.665 19.094L17.198 18.003 15.772 17.621C14.14 17.185 13.044 17.841 13.044 19.253 13.044 20.476 13.788 20.431 15.665 19.094ZM20.255 17.294C19.86 16.899 19.005 17.794 19.309 18.286 19.515 18.62 19.771 18.569 20.035 18.142 20.26 17.779 20.358 17.397 20.255 17.293Z" fill="#4f4f4f"/>
    <path d="M25.051 42.768L22.4 40.084 24.701 40.777C27.906 41.741 29.419 42.982 29.434 44.658 29.448 46.238 27.757 45.51 25.051 42.768ZM13.587 43.883C14.791 43.252 16 42.24 16.273 41.634 16.925 40.186 18.261 40.469 18.261 42.056 18.261 43.55 15.689 45.029 13.09 45.03L11.397 45.031 13.587 43.883ZM10.499 39.232C8.894 37.368 8.949 37.128 10.859 37.655 12.41 38.083 17.516 37.816 17.516 37.307 17.516 37.209 17.27 35.985 16.97 34.586 16.556 32.656 16.246 32.111 15.682 32.328 15.273 32.484 14.345 32.736 13.619 32.888 12.361 33.149 12.347 33.131 13.336 32.513 16.004 30.843 18.136 28.675 17.847 27.926 17.492 26.998 18.066 26.897 18.907 27.739 19.88 28.712 19.593 29.971 18.137 31.109L16.77 32.176 19.503 31.872C21.006 31.704 22.929 31.322 23.776 31.022 25.411 30.442 27.951 30.809 27.951 31.624 27.951 31.892 27.324 32.112 26.558 32.112 25.284 32.112 25.122 32.326 24.652 34.618L24.139 37.125 27.411 36.802C30.329 36.515 30.786 36.592 31.621 37.515 32.454 38.435 32.47 38.585 31.765 38.855 31.329 39.022 29.835 38.915 28.443 38.617 24.986 37.875 21.401 37.949 17.267 38.847 15.354 39.263 13.225 39.724 12.535 39.872 11.687 40.054 11.029 39.847 10.499 39.232ZM23.083 36.436C23.293 36.107 23.467 35.091 23.471 34.176L23.479 32.516 20.869 32.866C19.435 33.06 18.241 33.248 18.217 33.286 18.192 33.323 18.274 34.329 18.398 35.52L18.624 37.686 20.664 37.36C21.786 37.18 22.874 36.765 23.084 36.436ZM17.516 25.487C17.516 25.397 18.62 24.607 19.969 23.733 23.205 21.636 24.969 19.483 24.969 17.632 24.969 16.257 24.851 16.159 23.354 16.304 21.884 16.445 21.717 16.634 21.491 18.408 21.354 19.48 20.991 20.44 20.683 20.541 19.859 20.811 19.393 19.179 20.063 18.371 20.716 17.584 20.343 16.934 19.528 17.438 19.232 17.621 19.137 18.008 19.316 18.298 19.504 18.602 19.35 18.723 18.951 18.584 18.571 18.452 17.527 18.982 16.629 19.762 13.946 22.092 11.012 21.184 12.081 18.355 12.735 16.623 14.176 16.108 16.103 16.918 17.56 17.531 17.923 17.518 19.128 16.805 20.658 15.901 20.781 15.385 19.777 14.06 19.207 13.308 18.902 13.25 18.015 13.725 16.675 14.442 15.528 14.042 15.528 12.859 15.528 12.364 15.17 11.449 14.732 10.823 13.809 9.505 14.199 8.801 15.428 9.57 15.893 9.862 16.342 10.781 16.425 11.614L16.577 13.128 18.537 12.358C20.127 11.734 20.497 11.341 20.497 10.283 20.497 8.662 19.229 6.78 18.109 6.738 17.532 6.717 17.641 6.558 18.457 6.231 20 5.614 21.357 6.064 21.758 7.326 22.013 8.129 22.428 8.296 23.848 8.17 24.945 8.072 25.702 8.249 25.833 8.633 25.98 9.061 25.433 9.254 24.07 9.254 22.313 9.254 21.49 9.821 21.49 11.034 21.49 11.148 22.72 11.242 24.224 11.242 26.176 11.242 26.957 11.432 26.957 11.907 26.957 12.387 26.113 12.58 23.927 12.601 22.262 12.616 20.652 12.876 20.35 13.178 19.95 13.578 20.014 13.726 20.588 13.726 21.021 13.726 21.486 14.15 21.621 14.667 21.841 15.51 22.074 15.553 23.859 15.077 26.242 14.44 29.108 15.094 29.345 16.327 29.478 17.017 29.203 17.103 27.678 16.856L25.852 16.56 26.192 18.11C26.709 20.461 25.272 22.441 21.789 24.182 19.194 25.479 17.516 25.992 17.516 25.487ZM15.836 19.019L17.192 17.853 15.815 17.507C14.232 17.11 13.044 17.859 13.044 19.253 13.044 20.523 14.2 20.426 15.835 19.019Z" fill="#2f2f2f"/>
    <path d="M25.556 43.024C22.742 40.4 22.739 40.29 25.503 41.058 27.629 41.648 29.688 43.67 29.271 44.758 28.832 45.902 28.45 45.724 25.556 43.024ZM13.789 43.942C14.882 43.301 15.997 42.277 16.267 41.667 17.079 39.832 18.906 40.516 18.299 42.427 17.911 43.65 16.416 44.467 13.935 44.812L11.801 45.108 13.789 43.942ZM10.413 39.182C9.947 38.666 9.565 38.137 9.565 38.005 9.565 37.873 11.223 37.778 13.248 37.795 15.274 37.812 17.088 37.67 17.279 37.48 17.758 37.005 16.539 32.112 15.943 32.112 15.679 32.112 15.011 32.353 14.459 32.649 12.534 33.679 13.076 32.777 15.341 31.18 16.596 30.296 17.739 29.128 17.881 28.585 18.206 27.343 19.204 27.623 19.41 29.013 19.51 29.698 19.124 30.349 18.296 30.893 16.272 32.218 17.237 32.547 20.863 31.766 25.301 30.811 27.065 30.736 27.323 31.49 27.456 31.876 27.075 32.112 26.318 32.112 25.33 32.112 25.048 32.417 24.828 33.727 24.678 34.615 24.392 35.759 24.191 36.269 23.847 37.139 24.037 37.175 27.266 36.851 30.356 36.541 30.801 36.61 31.633 37.528 32.476 38.46 32.485 38.578 31.736 38.866 31.284 39.04 29.924 38.932 28.716 38.628 24.764 37.633 19.503 38.013 12.525 39.795 11.622 40.025 11.019 39.85 10.413 39.181ZM22.149 37.114C23.119 36.744 23.409 36.227 23.566 34.574L23.764 32.497 21.038 32.817C19.538 32.993 18.281 33.186 18.242 33.246 18.204 33.306 18.272 34.304 18.393 35.466 18.583 37.283 18.776 37.577 19.772 37.577 20.408 37.577 21.478 37.369 22.149 37.114ZM19.759 23.968C23.161 21.655 24.813 19.74 25.078 17.801 25.298 16.187 25.272 16.163 23.52 16.31 21.852 16.45 21.73 16.578 21.585 18.323 21.41 20.439 20.938 20.627 19.475 19.165L18.455 18.144 16.725 19.662C13.898 22.144 11.493 21.478 12.259 18.424 12.666 16.806 13.725 16.419 16.049 17.039 17.449 17.413 18.229 17.368 19.203 16.857 20.647 16.1 20.815 15.345 19.837 14.007 19.281 13.247 19 13.198 18.059 13.702 16.561 14.503 15.529 14.027 15.529 12.535 15.529 11.863 15.203 10.988 14.806 10.591 13.878 9.663 14.388 9.141 15.593 9.786 16.18 10.1 16.522 10.826 16.522 11.756 16.522 13.483 16.479 13.471 18.742 12.392 19.989 11.797 20.497 11.228 20.497 10.428 20.497 8.821 19.503 6.853 18.565 6.602 18.125 6.484 18.603 6.362 19.628 6.33 21.204 6.282 21.491 6.433 21.491 7.31 21.491 8.22 21.741 8.326 23.558 8.179 24.979 8.064 25.696 8.224 25.854 8.691 26.031 9.211 25.607 9.325 24.036 9.175 22.91 9.067 21.988 9.135 21.988 9.325 21.988 9.515 21.857 10.011 21.697 10.428 21.462 11.038 21.915 11.216 24.018 11.338 25.701 11.436 26.711 11.736 26.858 12.181 27.029 12.7 26.771 12.794 25.828 12.557 24.276 12.167 20 12.71 20 13.297 20 13.533 20.31 13.727 20.688 13.727 21.066 13.727 21.486 14.149 21.621 14.665 21.841 15.509 22.091 15.553 24.083 15.097 25.79 14.706 26.625 14.747 27.71 15.276 29.826 16.306 29.875 17.213 27.797 16.876L26.087 16.598 26.14 18.618C26.209 21.22 24.34 23.271 20.635 24.657 17.005 26.015 16.885 25.921 19.758 23.967ZM15.781 19.1C17.057 18.096 17.091 17.985 16.221 17.644 14.579 16.999 13.591 17.174 13.038 18.209 11.928 20.282 13.592 20.822 15.781 19.099ZM20.497 17.95C20.497 17.54 20.162 17.205 19.752 17.205 18.976 17.205 18.766 17.792 19.338 18.364 19.909 18.936 20.498 18.726 20.498 17.95Z" fill="#040404"/>
</g>
</svg>
