<svg xmlns="http://www.w3.org/2000/svg" width="52.324" height="60">
<!--
Created by Hari Seldon and modified by orangain, licensed under Creative Commons Attribution-Share Alike 3.0 Unported.
See: https://creativecommons.org/licenses/by-sa/3.0/deed.en

Original file is available at: https://commons.wikimedia.org/wiki/File:Shogi_kakugyo(svg).svg
-->
<filter id="drop-shadow">
    <feGaussianBlur in="SourceAlpha" result="blur" stdDeviation="2" />
    <feOffset result="offsetBlur" dx="2" dy="2" />
    <feBlend in="SourceGraphic" in2="offsetBlur" mode="normal" />
</filter>
<g filter="url(#drop-shadow)" transform="translate(5 5)">
    <path d="M0.895 49.6l6.781 -44.774 13.255 -4.238 13.64 4.007 6.781 44.619z" fill="#FEEC99"/>
    <path d="M28.483 46.401C28.135 46.083 26.926 45.483 25.796 45.069 24.009 44.413 22.462 42.946 22.996 42.412 23.094 42.314 24.276 42.438 25.625 42.688 26.973 42.937 28.29 43.008 28.551 42.848 29.257 42.411 28.805 37.484 28.004 36.888 27.648 36.623 27.177 36.098 26.957 35.719 26.595 35.099 26.253 35.093 23.401 35.661 20.298 36.281 20.228 36.274 19.207 35.315 18.635 34.778 18.252 34.203 18.355 34.036 18.458 33.87 20.458 33.616 22.8 33.474 25.353 33.319 27.907 32.888 29.18 32.399 31.449 31.527 32.702 31.639 34.099 32.842 35.444 34 35.149 34.464 33.065 34.464 30.23 34.464 29.689 34.757 30.405 35.907 30.725 36.419 31.098 38.699 31.236 40.973 31.436 44.273 31.354 45.296 30.831 46.043 30.078 47.119 29.383 47.225 28.483 46.401ZM12.796 45.577C12.328 44.841 12.266 44.083 12.545 42.448 12.746 41.261 12.923 39.838 12.937 39.284L12.963 38.278 11.509 39.176C10.051 40.078 8.407 40.287 6.598 39.802 5.145 39.413 5.403 39.062 7.755 38.227 10.199 37.358 14.257 34.324 14.257 33.364 14.257 32.788 14.118 32.788 13.008 33.362 11.427 34.18 8.399 34.679 8.087 34.173 7.957 33.962 8.904 33.237 10.194 32.562 12.946 31.121 15.121 28.821 15.121 27.352 15.121 26.38 15.208 26.34 16.424 26.764 17.646 27.19 18.573 28.251 18.573 29.222 18.573 29.456 17.881 30.074 17.036 30.597L15.499 31.547 16.389 32.494C17.641 33.827 17.502 34.649 15.786 36.064L14.293 37.294 14.903 39.008C16.533 43.584 14.856 48.813 12.796 45.577ZM20.972 30.377C20.512 30.015 20.22 29.697 20.324 29.672 20.429 29.647 21.971 29.382 23.751 29.084 25.531 28.784 27.627 28.274 28.407 27.949 29.631 27.439 29.987 27.448 30.993 28.013 31.635 28.373 32.22 28.979 32.293 29.359 32.401 29.919 31.871 30.096 29.491 30.296 27.877 30.432 25.488 30.655 24.183 30.791 22.413 30.975 21.596 30.871 20.972 30.378ZM24.939 23.961C23.105 22.903 22.823 21.95 24.344 21.95 25.257 21.95 25.39 21.717 25.575 19.792 25.689 18.605 25.689 16.663 25.575 15.476L25.368 13.319 23.697 13.319C22.499 13.319 22.025 13.502 22.025 13.966 22.025 14.322 22.375 14.613 22.802 14.613 23.711 14.613 24.615 15.409 24.615 16.21 24.615 16.546 24.095 16.771 23.32 16.771 22.336 16.771 22.025 16.968 22.025 17.59 22.025 18.239 22.315 18.395 23.428 18.345 24.578 18.293 24.855 18.457 24.968 19.252 25.089 20.104 24.916 20.223 23.566 20.223 22.07 20.223 22.026 20.271 22.026 21.863 22.026 23.399 21.436 24.539 20.644 24.539 20.454 24.539 20.299 23.644 20.299 22.55 20.299 20.625 20.263 20.57 19.179 20.842 18.563 20.997 17.803 20.912 17.491 20.652 16.811 20.088 16.619 20.368 16.239 22.474 15.893 24.392 15.448 24.744 14.209 24.081 13.332 23.612 13.3 23.407 13.648 20.501 13.85 18.806 14.013 16.205 14.008 14.721 14.001 11.901 14.302 11.54 15.645 12.755 16.404 13.442 16.435 13.442 16.172 12.755 15.93 12.125 16.212 12.021 18.203 12.005 19.475 11.995 21.389 11.789 22.457 11.547 26.657 10.597 26.604 10.595 27.465 11.694 28.178 12.604 28.283 13.503 28.283 18.746 28.283 24.444 28.238 24.758 27.42 24.824 26.945 24.862 25.829 24.474 24.94 23.961ZM19.868 17.991C19.868 17.411 19.62 17.191 19.071 17.283 18.632 17.358 17.953 17.152 17.561 16.826 16.921 16.295 16.847 16.386 16.847 17.71 16.847 19.144 16.891 19.182 18.357 19.01 19.507 18.876 19.867 18.633 19.867 17.991ZM19.855 15.061C20.588 14.598 20.28 14.44 17.818 14.014 16.477 13.782 15.902 14.388 16.703 15.189 17.123 15.609 19.118 15.528 19.855 15.061ZM19.005 10.893C19.005 10.683 19.865 10.055 20.917 9.497 23.146 8.315 23.628 7.472 22.441 6.837 21.224 6.186 21.398 5.551 22.792 5.551 24.318 5.551 25.909 6.653 25.909 7.711 25.909 8.96 23.171 10.804 20.944 11.055 19.877 11.175 19.004 11.102 19.004 10.893ZM14.257 9.923C14.257 9.655 14.422 9.435 14.623 9.435 14.823 9.435 15.713 8.731 16.598 7.871 17.823 6.681 18.149 6.073 17.962 5.327 17.672 4.174 18.362 3.78 19.76 4.299 21.16 4.819 20.99 6.402 19.328 8.315 18.242 9.563 17.511 9.982 16.092 10.17 14.872 10.33 14.257 10.248 14.257 9.923Z" fill="#cfcfcf"/>
    <path d="M28.513 46.349C28.224 46.002 27.57 45.592 27.057 45.437 24.865 44.778 23.32 43.815 23.32 43.108 23.32 42.438 23.551 42.402 25.459 42.779 28.545 43.389 28.93 43.122 28.93 40.373 28.93 38.508 28.698 37.753 27.743 36.506 26.473 34.846 26.487 34.848 22.537 35.847 20.903 36.261 20.534 36.212 19.517 35.453 18.034 34.346 18.343 33.827 20.515 33.778 23.74 33.706 27.809 33.108 29.288 32.491 31.42 31.601 32.954 31.725 34.038 32.878 35.211 34.127 34.897 34.464 32.561 34.464 31.552 34.464 30.414 34.584 30.031 34.731 29.398 34.974 29.401 35.045 30.06 35.527 31.13 36.31 31.75 44.621 30.842 46.007 30.107 47.127 29.262 47.252 28.512 46.349ZM12.96 45.897C12.567 45.424 12.503 44.301 12.723 41.772L13.026 38.298 11.208 39.226C9.789 39.95 8.974 40.092 7.508 39.872 6.473 39.717 5.627 39.453 5.627 39.286 5.627 39.119 6.571 38.646 7.726 38.236 10.204 37.356 14.689 34.156 14.689 33.266 14.689 32.844 14.449 32.746 13.934 32.96 11.735 33.873 9.25 34.44 8.494 34.2 7.794 33.978 8.034 33.741 9.834 32.886 12.294 31.716 15.121 28.869 15.121 27.558 15.121 26.33 16.478 26.463 17.742 27.815L18.789 28.934 17.112 30.346 15.435 31.758 16.356 32.68C17.642 33.965 17.516 34.621 15.71 36.07 14.316 37.189 14.199 37.432 14.648 38.272 15.416 39.707 15.751 44.506 15.161 45.609 14.575 46.704 13.723 46.816 12.961 45.897ZM21.27 30.525C20.352 29.591 20.639 29.419 23.574 29.145 25.137 28.999 27.024 28.577 27.767 28.206 29.242 27.47 31.147 27.671 31.958 28.647 32.794 29.655 32.108 30.022 28.832 30.319 27.106 30.476 24.82 30.71 23.752 30.839 22.474 30.993 21.625 30.885 21.27 30.525ZM25.91 24.323C25.614 23.967 25.128 23.676 24.83 23.676 24.532 23.676 24.065 23.406 23.793 23.078 23.397 22.601 23.516 22.425 24.381 22.208 25.056 22.039 25.567 21.53 25.735 20.858 26.113 19.352 25.755 13.847 25.248 13.383 24.561 12.753 21.614 13.302 21.886 14.01 22.013 14.342 22.446 14.613 22.848 14.613 23.717 14.613 24.615 15.425 24.615 16.21 24.615 16.546 24.095 16.771 23.32 16.771 22.309 16.771 22.025 16.961 22.025 17.642 22.025 18.339 22.227 18.463 23.028 18.262 23.658 18.104 24.234 18.255 24.576 18.666 25.332 19.577 24.8 20.223 23.294 20.223 22.166 20.223 22.025 20.37 22.025 21.546 22.025 23.116 21.287 24.666 20.709 24.31 20.484 24.17 20.299 23.27 20.299 22.309 20.299 20.683 20.228 20.579 19.269 20.819 18.619 20.983 18.044 20.842 17.706 20.435 16.859 19.414 16.546 19.666 16.289 21.577 16.158 22.559 15.771 23.641 15.431 23.982 14.894 24.519 14.713 24.501 14.056 23.845 13.411 23.199 13.354 22.705 13.667 20.469 13.869 19.029 14.037 16.539 14.038 14.937 14.041 12.969 14.208 12.023 14.557 12.024 15.298 12.024 16.415 13.773 16.415 14.934 16.415 15.955 16.657 15.974 19.55 15.189 20.666 14.886 20.012 14.182 18.614 14.182 17.54 14.182 15.984 13.076 15.984 12.314 15.984 12.154 17.088 12.024 18.437 12.024 19.787 12.024 22.129 11.714 23.643 11.334 27.702 10.316 27.865 10.544 28.24 17.775 28.403 20.927 28.41 23.835 28.256 24.238 27.908 25.144 26.629 25.191 25.909 24.323ZM20.083 18.058C20.083 17.697 19.683 17.412 19.162 17.404 18.655 17.397 17.927 17.13 17.544 16.812 16.924 16.299 16.847 16.402 16.847 17.729 16.847 19.216 16.856 19.223 18.465 18.961 19.489 18.795 20.083 18.463 20.083 18.058ZM19.004 11.01C19.004 10.926 19.975 10.255 21.162 9.517 23.517 8.053 23.847 7.223 22.349 6.526 21.479 6.121 21.457 6.042 22.134 5.766 24.185 4.93 26.741 7.266 25.462 8.806 24.572 9.878 21.77 11.161 20.316 11.161 19.595 11.161 19.004 11.093 19.004 11.01ZM14.604 10.07C14.442 9.907 15.124 9.151 16.118 8.389 17.574 7.272 17.925 6.736 17.921 5.629 17.918 4.425 18.061 4.256 19.079 4.256 19.852 4.256 20.33 4.538 20.508 5.098 20.843 6.154 19.731 8.358 18.433 9.208 17.258 9.978 15.017 10.482 14.604 10.069Z" fill="#afafaf"/>
    <path d="M28.798 46.394C28.665 46.048 28.002 45.644 27.323 45.495 25.597 45.115 23.32 43.658 23.32 42.931 23.32 42.449 23.656 42.401 24.938 42.699 25.828 42.906 27.091 43.079 27.743 43.085 28.914 43.095 28.93 43.059 28.93 40.355 28.93 37.893 28.797 37.474 27.625 36.248L26.32 34.882 23.497 35.536C20.612 36.206 19.717 36.059 18.623 34.74 17.953 33.934 18.603 33.752 22.496 33.657 24.061 33.619 26.391 33.287 27.675 32.918 31.623 31.785 32.317 31.733 33.462 32.483 35.395 33.75 34.85 34.464 31.951 34.464 29.239 34.464 28.886 34.669 30.086 35.546 31.03 36.236 31.674 44.032 30.923 45.679 30.361 46.912 29.153 47.319 28.798 46.394ZM12.97 45.909C12.588 45.449 12.525 44.304 12.746 41.809 12.915 39.906 12.946 38.349 12.816 38.349 12.686 38.349 11.893 38.754 11.052 39.25 9.86 39.953 9.141 40.088 7.79 39.86 6.838 39.699 6.058 39.421 6.058 39.243 6.058 39.064 6.874 38.649 7.872 38.319 10.037 37.605 14.689 34.213 14.689 33.349 14.689 32.595 14.705 32.595 12.814 33.386 11.962 33.742 10.53 34.031 9.632 34.028L8 34.022 9.942 32.92C12.648 31.384 15.121 28.886 15.121 27.688 15.121 26.29 16.548 26.396 17.715 27.879L18.645 29.062 17 30.444 15.355 31.825 16.316 32.849C17.586 34.2 17.543 34.451 15.783 35.975L14.287 37.269 14.92 39.629C15.658 42.386 15.714 43.908 15.131 45.441 14.661 46.679 13.769 46.871 12.97 45.909ZM21.486 30.571C20.144 29.745 20.671 29.416 23.75 29.158 25.41 29.018 27.334 28.571 28.025 28.163 29.103 27.526 29.469 27.5 30.615 27.974 31.35 28.279 31.951 28.698 31.951 28.907 31.951 29.115 31.999 29.431 32.059 29.609 32.118 29.787 30.807 30.059 29.146 30.214 27.484 30.369 25.251 30.617 24.183 30.765 23.055 30.922 21.925 30.841 21.486 30.571ZM24.881 23.741C23.524 22.814 23.36 22.568 24.018 22.443 25.684 22.126 25.909 21.526 25.909 17.391 25.909 15.179 25.727 13.257 25.504 13.119 25.281 12.981 24.324 12.992 23.379 13.144 22.158 13.339 21.726 13.592 21.889 14.016 22.014 14.344 22.461 14.613 22.882 14.613 23.816 14.613 24.792 15.703 24.41 16.321 24.257 16.568 23.658 16.771 23.079 16.771 22.294 16.771 22.025 17.004 22.025 17.684 22.025 18.413 22.217 18.548 22.974 18.35 23.914 18.104 25.046 18.685 25.046 19.413 25.046 19.621 24.674 19.792 24.218 19.792 22.745 19.792 22.025 20.294 22.025 21.32 22.025 22.791 21.232 24.633 20.731 24.324 20.494 24.177 20.299 23.291 20.299 22.356 20.299 20.761 20.219 20.655 19.029 20.655 18.332 20.655 17.641 20.461 17.494 20.223 16.955 19.352 16.523 19.836 16.29 21.57 15.994 23.777 15.385 24.488 14.353 23.83 13.827 23.493 13.637 22.868 13.703 21.681 13.755 20.761 13.853 18.212 13.92 16.017 14.005 13.22 14.2 12.027 14.571 12.026 15.511 12.023 16.351 13.898 16.661 16.686 16.897 18.808 17.101 19.355 17.588 19.168 17.931 19.037 18.682 18.928 19.256 18.928 20 18.928 20.299 18.689 20.299 18.093 20.299 17.466 19.949 17.223 18.897 17.122 17.093 16.948 17 15.786 18.764 15.481 19.463 15.36 19.997 15.115 19.951 14.937 19.905 14.759 19.868 14.446 19.868 14.242 19.868 14.037 19.401 13.959 18.831 14.068 18.131 14.202 17.465 13.936 16.781 13.253L15.768 12.24 19.22 12C21.119 11.869 23.391 11.517 24.27 11.219 26.166 10.575 27.517 11.091 27.822 12.576 28.203 14.433 28.545 23.484 28.262 24.223 27.87 25.242 26.871 25.099 24.881 23.741ZM19.436 10.758C19.436 10.538 19.808 10.238 20.263 10.093 21.509 9.698 23.32 8.156 23.32 7.491 23.32 7.168 22.929 6.779 22.45 6.628 21.436 6.306 21.72 5.551 22.856 5.551 23.871 5.551 25.909 7.162 25.909 7.965 25.909 8.847 22.099 11.161 20.646 11.161 19.981 11.161 19.436 10.98 19.436 10.758ZM14.916 9.883C14.805 9.705 15.504 8.924 16.469 8.149 17.933 6.972 18.193 6.533 18.041 5.497 17.888 4.45 18.008 4.257 18.811 4.257 19.334 4.257 20.016 4.562 20.327 4.937 20.797 5.504 20.758 5.864 20.092 7.101 19.652 7.917 19.039 8.795 18.729 9.052 17.974 9.68 15.167 10.291 14.915 9.883Z" fill="#8f8f8f"/>
    <path d="M28.79 46.373C28.662 46.039 28.002 45.644 27.323 45.495 25.766 45.153 23.32 43.683 23.32 43.09 23.32 42.794 24.283 42.738 26.125 42.927L28.93 43.214 28.93 40.414C28.93 37.876 28.806 37.483 27.604 36.226 26.322 34.884 26.211 34.852 24.258 35.271 23.148 35.509 21.948 35.814 21.593 35.948 21.237 36.082 20.267 35.776 19.436 35.266 18.068 34.427 18.006 34.311 18.789 34.03 19.263 33.86 19.893 33.811 20.189 33.922 21.041 34.242 28.164 33.124 29.448 32.469 30.975 31.69 32.396 31.717 33.581 32.547 35.43 33.842 34.799 34.464 31.627 34.474 28.788 34.484 28.738 34.503 29.663 35.229 30.498 35.886 30.646 36.539 30.905 40.743 31.162 44.907 31.107 45.604 30.465 46.245 29.573 47.138 29.097 47.175 28.79 46.373ZM13 45.944C12.614 45.48 12.553 44.328 12.776 41.77 12.953 39.734 12.921 38.315 12.7 38.423 9.918 39.775 9.033 40.013 7.625 39.784 5.605 39.456 5.641 39.041 7.744 38.411 9.826 37.788 14.689 34.269 14.689 33.386 14.689 32.582 13.939 32.581 12.531 33.386 11.938 33.725 10.676 34.001 9.726 33.998L8 33.995 9.726 33.105C12.176 31.841 15.121 28.883 15.121 27.685 15.121 26.533 15.833 26.423 17.182 27.368 18.542 28.321 18.374 29.316 16.614 30.721L15.086 31.939 16.182 32.802C16.785 33.276 17.278 33.854 17.278 34.086 17.278 34.318 16.573 35.155 15.71 35.945 14.839 36.743 14.274 37.595 14.44 37.862 15.017 38.797 15.507 43.332 15.191 44.819 14.843 46.455 13.847 46.966 12.999 45.944ZM21.486 30.546C20.119 29.75 20.69 29.405 23.738 29.186 25.53 29.058 27.203 28.671 27.878 28.229 29.128 27.409 30.618 27.583 31.708 28.674 32.749 29.714 32.18 30.077 29.465 30.102 28.103 30.114 26.31 30.324 25.48 30.568 23.606 31.12 22.46 31.114 21.486 30.546ZM24.881 23.741C23.524 22.814 23.36 22.568 24.018 22.443 25.684 22.126 25.909 21.526 25.909 17.391 25.909 15.179 25.727 13.257 25.504 13.119 25.281 12.981 24.324 12.992 23.379 13.144 22.158 13.339 21.726 13.592 21.889 14.016 22.014 14.344 22.461 14.613 22.882 14.613 23.816 14.613 24.792 15.703 24.41 16.321 24.257 16.568 23.658 16.771 23.079 16.771 22.294 16.771 22.025 17.004 22.025 17.684 22.025 18.413 22.217 18.548 22.974 18.35 23.899 18.108 25.046 18.682 25.046 19.386 25.046 19.579 24.417 19.798 23.649 19.872 22.419 19.992 22.222 20.19 22.005 21.532 21.525 24.512 20.299 25.122 20.299 22.382 20.299 20.767 20.219 20.655 19.057 20.655 18.374 20.655 17.578 20.369 17.288 20.02 16.842 19.482 17.038 19.34 18.552 19.098 20.05 18.858 20.322 18.664 20.214 17.913 20.115 17.236 19.765 17.011 18.789 17.001 16.948 16.981 17.041 15.736 18.897 15.557 20.414 15.411 20.413 15.412 20.062 14.497 19.915 14.115 19.436 13.952 18.809 14.072 18.135 14.202 17.454 13.926 16.781 13.253L15.768 12.24 19.652 11.977C21.788 11.832 24.072 11.46 24.727 11.15 25.793 10.646 26.023 10.686 26.927 11.535 27.845 12.397 27.96 12.967 28.21 17.905 28.58 25.221 28.152 25.973 24.88 23.741ZM13.819 23.451C13.382 22.926 13.381 22.176 13.813 19.649 14.109 17.919 14.282 15.494 14.197 14.263 14.039 11.981 14.112 11.796 14.948 12.354 16.053 13.092 16.523 14.899 16.48 18.243 16.416 23.199 15.347 25.293 13.82 23.452ZM19.753 10.903C19.575 10.725 20.141 10.176 21.01 9.683 23.122 8.486 23.797 7.379 22.771 6.796 22.351 6.556 22.125 6.171 22.268 5.938 22.822 5.043 25.909 6.778 25.909 7.985 25.909 9.265 20.622 11.772 19.753 10.903ZM16.607 8.014C18.1 6.584 18.483 5.946 18.29 5.209 18.094 4.461 18.226 4.256 18.901 4.256 20.233 4.256 20.827 5.241 20.313 6.594 19.615 8.428 17.777 9.866 16.129 9.866L14.674 9.866 16.607 8.014Z" fill="#6f6f6f"/>
    <path d="M28.927 46.328C28.653 45.998 27.717 45.503 26.846 45.227 24.923 44.618 23.32 43.651 23.32 43.102 23.32 42.863 24.477 42.804 26.125 42.958L28.93 43.22 28.93 40.43C28.93 37.942 28.79 37.484 27.638 36.194L26.346 34.746 24.153 35.253C21.108 35.955 20.121 35.891 18.944 34.91L17.926 34.062 20.001 34.047C22.976 34.027 28.085 33.177 29.448 32.475 30.972 31.691 32.394 31.715 33.581 32.547 35.464 33.866 34.802 34.464 31.461 34.464L28.382 34.464 29.472 35.322C30.46 36.099 30.591 36.58 30.868 40.455 31.037 42.807 31.05 45.122 30.898 45.6 30.541 46.726 29.558 47.09 28.927 46.328ZM13.267 46.07C12.578 45.67 12.525 45.213 12.787 41.984 12.959 39.858 12.917 38.348 12.687 38.348 12.469 38.348 11.861 38.65 11.335 39.018 10.69 39.47 9.641 39.646 8.111 39.558L5.842 39.428 8.647 38.043C12.087 36.345 14.689 34.243 14.689 33.159 14.689 32.369 14.642 32.37 12.855 33.181 11.846 33.639 10.341 34.01 9.51 34.004L8 33.994 9.726 33.091C12.953 31.401 15.799 28.438 15.349 27.236 15.071 26.491 16.029 26.56 17.182 27.368 18.332 28.173 18.431 29.518 17.386 30.126 16.971 30.368 16.281 30.841 15.852 31.177 15.112 31.759 15.127 31.843 16.172 32.887 17.474 34.19 17.328 34.774 15.365 36.114 13.904 37.112 13.899 37.124 14.527 38.626 15.233 40.316 15.193 46.177 14.473 46.391 14.236 46.462 13.693 46.317 13.267 46.07ZM21.486 30.57C20.111 29.726 20.699 29.286 23.212 29.276 24.745 29.27 26.412 28.94 27.576 28.413 29.18 27.685 29.625 27.639 30.591 28.102 31.214 28.401 31.793 29.002 31.878 29.44 32.006 30.108 31.835 30.192 30.804 29.967 30.129 29.82 28.606 29.903 27.42 30.15 23.6 30.948 22.257 31.043 21.486 30.57ZM25.06 23.764L23.132 22.644 24.536 22.281 25.939 21.917 25.816 17.51 25.693 13.103 23.809 13.19C21.647 13.29 21.479 13.382 21.827 14.288 21.977 14.678 22.41 14.863 22.879 14.741 23.386 14.608 23.849 14.851 24.146 15.407 24.559 16.179 24.474 16.298 23.428 16.419 22.591 16.515 22.202 16.833 22.107 17.497 21.996 18.277 22.213 18.462 23.368 18.576 25.366 18.772 25.536 19.792 23.572 19.792 22.221 19.792 22.025 19.925 22.025 20.842 22.025 22.243 21.292 24.107 20.741 24.107 20.498 24.107 20.299 23.267 20.299 22.24 20.299 20.44 20.256 20.38 19.088 20.55 18.354 20.658 17.666 20.475 17.343 20.085 16.889 19.539 17.071 19.398 18.554 19.148 20.044 18.896 20.299 18.697 20.299 17.783 20.299 16.901 20.144 16.763 19.415 16.993 18.305 17.346 16.949 16.383 17.797 15.845 18.105 15.649 18.808 15.487 19.36 15.483 20.085 15.478 20.32 15.267 20.206 14.721 20.117 14.291 19.703 13.997 19.243 14.037 18.051 14.143 16.415 13.421 16.415 12.79 16.415 12.405 17.312 12.212 19.383 12.15 21.015 12.1 23.16 11.736 24.151 11.34 25.902 10.638 25.979 10.644 26.947 11.554 27.857 12.408 27.963 12.966 28.18 17.972 28.397 23.001 28.137 25.045 27.297 24.927 27.127 24.903 26.12 24.38 25.06 23.764ZM13.837 23.474C13.424 22.976 13.423 22.21 13.832 19.914 14.119 18.304 14.283 15.87 14.198 14.504 14.039 11.982 14.106 11.792 14.948 12.354 15.981 13.044 16.415 14.707 16.415 17.973 16.415 23.04 15.355 25.303 13.837 23.473ZM19.873 10.837C19.876 10.659 20.565 10.069 21.403 9.525 23.303 8.295 23.669 7.418 22.619 6.623 21.863 6.051 21.899 6.009 23.145 5.996 24.707 5.98 26.064 7.236 25.65 8.313 25.164 9.58 19.855 11.899 19.873 10.837ZM16.607 8.014C18.1 6.584 18.483 5.946 18.29 5.209 18.092 4.453 18.225 4.256 18.933 4.256 19.423 4.256 20.011 4.59 20.24 4.998 21.134 6.596 18.23 9.866 15.918 9.866L14.674 9.866 16.607 8.014Z" fill="#4f4f4f"/>
    <path d="M28.957 46.365C28.667 46.015 27.717 45.503 26.846 45.227 24.923 44.618 23.32 43.651 23.32 43.102 23.32 42.863 24.477 42.804 26.125 42.958L28.93 43.22 28.93 40.243C28.93 37.49 28.832 37.174 27.624 36.034L26.319 34.802 23.492 35.336C21.204 35.767 20.465 35.762 19.619 35.31 19.043 35.002 18.573 34.618 18.573 34.456 18.573 34.294 20.307 34.039 22.427 33.888 24.547 33.738 27.576 33.19 29.157 32.671 31.843 31.789 32.111 31.772 33.18 32.418 33.81 32.799 34.387 33.415 34.464 33.788 34.58 34.353 34.084 34.465 31.443 34.467L28.283 34.469 29.433 35.438C30.503 36.338 30.605 36.726 30.871 40.948 31.133 45.098 31.086 45.553 30.321 46.244 29.59 46.906 29.419 46.921 28.957 46.364ZM13.213 45.873C12.704 45.365 12.628 44.483 12.835 41.542L13.095 37.849 11.627 38.744C10.211 39.607 6.481 40.025 6.497 39.319 6.501 39.141 7.555 38.541 8.839 37.985 11.684 36.754 14.689 34.263 14.689 33.136 14.689 32.124 14.803 32.122 12.747 33.17 11.816 33.644 10.367 34.033 9.527 34.032L8 34.032 9.726 33.178C12.379 31.864 14.586 29.85 15.184 28.195 15.81 26.463 16.095 26.376 17.278 27.56 18.509 28.79 18.354 29.516 16.631 30.58 14.883 31.66 14.807 31.903 15.984 32.638 17.255 33.432 17.037 34.708 15.405 36.009 13.998 37.132 13.977 37.196 14.523 38.725 15.327 40.975 15.303 45.954 14.486 46.267 14.136 46.401 13.564 46.224 13.213 45.873ZM21.593 30.381C20.267 29.641 20.743 29.438 24.48 29.148 25.948 29.034 27.554 28.658 28.048 28.312 29.054 27.607 30.812 27.786 31.543 28.667 32.217 29.479 31.725 30.068 30.559 29.847 30.019 29.744 28.121 29.964 26.341 30.335 22.522 31.133 22.937 31.129 21.594 30.381ZM26.553 24.532C26.403 24.292 25.567 23.776 24.693 23.387L23.104 22.681 24.399 22.42 25.693 22.159 25.816 17.731C25.954 12.777 25.828 12.563 23.074 13.081 21.945 13.291 21.577 13.561 21.68 14.098 21.761 14.518 22.253 14.851 22.834 14.88 23.391 14.908 24.014 15.2 24.219 15.528 24.499 15.977 24.275 16.157 23.309 16.258 22.273 16.368 22.025 16.598 22.025 17.446 22.025 18.318 22.238 18.497 23.274 18.497 23.985 18.497 24.629 18.776 24.771 19.145 24.961 19.642 24.678 19.792 23.541 19.792 22.171 19.792 22.045 19.908 21.795 21.41 21.354 24.069 21.188 24.413 20.714 23.664 20.494 23.314 20.309 22.431 20.306 21.701 20.3 20.492 20.19 20.389 19.088 20.551 18.364 20.657 17.667 20.476 17.355 20.101 16.918 19.574 17.113 19.428 18.567 19.196 20.073 18.955 20.299 18.772 20.299 17.798 20.299 16.833 20.157 16.713 19.269 16.936 18.629 17.096 18.046 16.96 17.727 16.576 17.303 16.066 17.484 15.908 18.779 15.666 20.654 15.314 20.776 13.993 18.94 13.923 17.356 13.863 16.415 13.442 16.417 12.793 16.418 12.406 17.295 12.215 19.33 12.156 20.931 12.11 23.1 11.768 24.148 11.394 25.986 10.741 26.091 10.75 27.053 11.654 27.843 12.395 28.035 13.003 27.979 14.573 27.94 15.663 27.967 18.236 28.038 20.291 28.109 22.346 28.036 24.239 27.876 24.499 27.51 25.09 26.906 25.105 26.552 24.532ZM13.825 23.242C13.485 22.607 13.538 21.451 14.024 18.886 14.388 16.966 14.575 14.588 14.44 13.602L14.194 11.808 15.304 13.019C16.311 14.116 16.415 14.565 16.415 17.809 16.415 23.08 15.154 25.726 13.825 23.242ZM19.885 10.837C19.893 10.659 20.508 10.125 21.25 9.651 23.257 8.366 23.73 7.371 22.698 6.604 21.907 6.017 21.935 5.982 23.213 5.982 24.116 5.982 24.786 6.297 25.229 6.929 25.83 7.789 25.823 7.952 25.145 8.701 23.761 10.231 19.833 11.826 19.885 10.837ZM16.667 8.06C18.252 6.6 18.577 6.057 18.367 5.223 18.145 4.338 18.248 4.212 19.096 4.332 19.812 4.433 20.121 4.802 20.221 5.672 20.413 7.346 17.899 9.866 16.036 9.866L14.708 9.866 16.668 8.06Z" fill="#2f2f2f"/>
    <path d="M28.692 46.173C28.229 45.742 26.946 45.057 25.839 44.653 22.696 43.503 22.864 42.809 26.275 42.847L29.145 42.879 29.111 40.231C29.083 38.114 28.866 37.317 28.031 36.263 26.851 34.771 26.329 34.686 22.799 35.415 20.46 35.898 20.221 35.873 19.399 35.051L18.515 34.167 22.595 33.899C24.838 33.751 27.522 33.317 28.557 32.933 31.687 31.774 32.119 31.759 33.399 32.767 34.979 34.01 34.325 34.448 30.872 34.46L28.282 34.469 29.429 35.437C30.493 36.337 30.594 36.729 30.854 40.957 31.106 45.053 31.054 45.582 30.334 46.234 29.582 46.914 29.48 46.909 28.692 46.174ZM13.112 45.661C12.796 45.345 12.71 43.924 12.86 41.517L13.088 37.853 11.623 38.746C10.75 39.279 9.416 39.64 8.323 39.641 6.255 39.643 5.88 39.026 7.676 38.577 10.243 37.937 14.689 34.48 14.689 33.125 14.689 32.202 15.549 32.045 16.329 32.825 17.225 33.72 16.898 34.813 15.39 35.963L13.934 37.073 14.546 38.851C15.354 41.196 15.161 45.843 14.248 46.016 13.888 46.086 13.376 45.926 13.112 45.661ZM9.785 33.203C12.243 32.087 15.007 29.492 15.337 27.99 15.587 26.85 15.701 26.783 16.652 27.216 17.542 27.621 18.524 29.161 18.072 29.443 17.992 29.493 16.857 30.326 15.552 31.293 13.034 33.158 10.96 34.039 9.122 34.023 8.142 34.015 8.227 33.911 9.785 33.203ZM21.908 30.541C20.697 29.835 21.47 29.286 23.669 29.288 24.782 29.289 26.607 28.963 27.724 28.562 29.351 27.979 29.972 27.934 30.852 28.335 32.445 29.061 32.2 29.716 30.332 29.725 29.442 29.729 27.355 30.02 25.694 30.372 24.032 30.724 22.673 31.006 22.673 30.999 22.673 30.992 22.329 30.786 21.908 30.541ZM25.323 23.743C23.725 22.653 23.699 22.597 24.675 22.368 25.657 22.137 25.698 21.962 25.815 17.508L25.938 12.888 24.521 12.893C23.741 12.896 22.671 13.015 22.143 13.156 21.341 13.372 21.257 13.553 21.637 14.263 21.887 14.73 22.35 15.013 22.665 14.892 22.981 14.771 23.578 15.047 23.994 15.505 24.724 16.313 24.705 16.339 23.387 16.339 22.171 16.339 22.025 16.474 22.025 17.594 22.025 18.637 22.171 18.81 22.891 18.622 23.367 18.497 24.078 18.661 24.472 18.986 25.109 19.51 25.002 19.6 23.499 19.792 21.881 19.998 21.804 20.08 21.673 21.734 21.476 24.22 20.886 24.488 20.549 22.244 20.276 20.42 20.189 20.319 18.923 20.378 18.188 20.411 17.501 20.196 17.396 19.9 17.286 19.585 17.566 19.36 18.07 19.36 19.604 19.36 20.3 18.86 20.3 17.757 20.3 16.835 20.149 16.715 19.27 16.936 18.63 17.096 18.046 16.96 17.727 16.576 17.303 16.066 17.481 15.909 18.757 15.67 19.879 15.46 20.299 15.158 20.299 14.565 20.299 13.952 19.987 13.75 19.039 13.75 17.424 13.75 16.414 13.358 16.419 12.733 16.422 12.416 17.563 12.209 19.619 12.153 21.376 12.106 23.523 11.77 24.391 11.408 25.895 10.78 26.011 10.794 26.91 11.71 27.786 12.605 27.851 13.086 27.851 18.675 27.851 22.322 27.681 24.717 27.42 24.779 27.182 24.834 26.239 24.368 25.323 23.743ZM13.853 23.293C13.547 22.723 13.615 21.464 14.079 19.086 14.443 17.219 14.627 14.946 14.487 14.034 14.299 12.799 14.375 12.422 14.785 12.558 15.808 12.895 16.402 14.814 16.409 17.8 16.419 22.71 15.08 25.587 13.852 23.294ZM20.135 10.813C20.017 10.623 20.602 10.099 21.435 9.65 23.558 8.507 24.011 7.508 22.794 6.655L21.834 5.982 22.821 5.982C24.251 5.982 25.478 6.756 25.478 7.657 25.478 8.648 24.373 9.651 22.347 10.497 20.509 11.265 20.422 11.277 20.135 10.813ZM16.832 8.104C18.31 6.67 18.598 6.142 18.379 5.267 18.144 4.333 18.239 4.21 19.096 4.332 19.812 4.433 20.121 4.802 20.221 5.672 20.404 7.26 17.899 9.866 16.191 9.866 15.018 9.866 15.018 9.865 16.832 8.104Z" fill="#030303"/>
</g>
</svg>
