<svg xmlns="http://www.w3.org/2000/svg" width="52.078" height="60">
<!--
Created by Hari Seldon and modified by orangain, licensed under Creative Commons Attribution-Share Alike 3.0 Unported.
See: https://creativecommons.org/licenses/by-sa/3.0/deed.en

Original file is available at: https://commons.wikimedia.org/wiki/File:Shogi_ginsho(svg).svg
-->
<filter id="drop-shadow">
    <feGaussianBlur in="SourceAlpha" result="blur" stdDeviation="2" />
    <feOffset result="offsetBlur" dx="2" dy="2" />
    <feBlend in="SourceGraphic" in2="offsetBlur" mode="normal" />
</filter>
<g filter="url(#drop-shadow)" transform="translate(5 5)">
<g transform="rotate(180 21.039 25)">
    <path d="M7.55 4.66l-7.197 44.979 41.184 0.169 -7.113 -45.485 -13.606 -3.823z" fill="#FEEC99"/>
    <path d="M13.546 45.456C13.254 44.894 12.323 43.576 11.476 42.526L9.937 40.619 8.786 42.444C8.047 43.614 7.365 44.216 6.883 44.124 5.619 43.88 5.747 42.433 7.215 40.389 8.347 38.813 8.525 38.276 8.147 37.571 6.964 35.361 8.441 32.502 10.263 33.477 10.744 33.735 11.26 34.263 11.409 34.65 11.634 35.236 11.981 35.113 13.465 33.92 15.937 31.934 15.763 29.82 13.011 28.398 10.996 27.356 11.289 26.401 13.623 26.401 15.663 26.401 17.032 27.354 17.032 28.773 17.032 29.751 17.554 29.713 18.922 28.636 20.917 27.067 22.356 26.732 23.599 27.546 24.549 28.169 24.978 28.192 26.684 27.714 28.483 27.211 28.775 27.244 29.861 28.068 31.296 29.158 31.346 31.128 29.967 32.254 29.075 32.984 29.075 32.989 30.122 33.251 30.7 33.396 31.273 33.895 31.394 34.36 31.562 34.999 31.899 35.15 32.783 34.98 34.144 34.72 36.178 35.882 36.178 36.92 36.178 37.475 35.775 37.59 34.248 37.466L32.318 37.31 32.509 40.427C32.813 45.382 31.229 47.911 29.398 45.397 28.923 44.745 28.238 44.212 27.874 44.212 27.511 44.212 26.776 43.961 26.242 43.655 25.357 43.149 25.491 43.078 27.718 42.875L30.167 42.653 30.157 40.12C30.152 38.727 30.017 37.457 29.858 37.298 29.7 37.139 28.434 37.245 27.045 37.533L24.521 38.058 25.466 39.064C27.482 41.209 24.634 43.648 20.594 43.236L19.035 43.076 21.072 42.036C22.407 41.352 23.277 40.547 23.597 39.698L24.087 38.402 21.903 38.692C20.251 38.91 19.446 38.802 18.598 38.246 16.805 37.072 17.273 36.673 20.418 36.698 23.925 36.724 29.06 35.781 29.04 35.113 29.014 34.241 27.852 33.08 27.001 33.075 26.331 33.071 26.455 32.837 27.607 31.929 28.927 30.889 29.541 29.546 28.72 29.499 28.536 29.488 27.534 29.314 26.493 29.113 25.453 28.911 24.601 28.913 24.601 29.117 24.601 29.765 21.861 32.635 21.241 32.635 20.093 32.635 20.095 31.713 21.248 30.343 23.39 27.797 21.473 28.287 18.958 30.928 17.615 32.34 17.521 32.671 17.041 37.755 16.334 45.221 16.104 46.189 14.997 46.347 14.402 46.432 13.888 46.117 13.546 45.457ZM14.998 37.723L15.309 34.193 13.516 36.197C10.991 39.017 10.911 39.503 12.655 41.451 14.033 42.991 14.157 43.041 14.411 42.181 14.562 41.671 14.826 39.665 14.998 37.723ZM10.602 36.599C10.767 36.331 10.579 35.787 10.182 35.391 9.519 34.727 9.462 34.765 9.462 35.879 9.462 37.109 10.055 37.483 10.602 36.599ZM21.262 35.484C21.752 35.108 22.447 34.631 22.806 34.424 23.203 34.196 23.419 33.507 23.356 32.674 23.272 31.572 23.424 31.299 24.119 31.299 25.122 31.299 25.691 32.672 25.312 34.181 25.045 35.243 23.111 36.21 21.306 36.183 20.376 36.168 20.376 36.165 21.262 35.484ZM11.577 24.139C10.434 23.473 10.607 22.393 11.855 22.393 14.412 22.393 15.695 21.863 15.695 20.807 15.695 19.891 15.534 19.804 14.228 20.016 12.132 20.356 11.265 19.261 12.626 17.992 13.496 17.182 13.524 17.043 12.872 16.792 11.528 16.277 12.057 15.329 13.769 15.185 15.623 15.028 16.415 13.933 14.674 13.933 14.072 13.933 13.341 13.647 13.051 13.298 12.685 12.857 12.026 12.743 10.898 12.926L9.272 13.19 12.287 10.37C14.179 8.6 15.397 7.078 15.555 6.288 15.931 4.408 18.362 4.838 18.37 6.787 18.371 7.167 18.973 7.818 19.706 8.235 21.148 9.055 21.459 10.238 20.344 10.665 19.932 10.824 19.164 10.47 18.452 9.795L17.254 8.657 15.028 10.456 12.801 12.255 14.805 12.01C15.907 11.875 17.436 11.632 18.203 11.47 19.068 11.288 19.717 11.369 19.911 11.684 20.336 12.37 19.345 13.488 18.313 13.488 17.853 13.488 17.477 13.701 17.477 13.961 17.477 14.221 17.827 14.399 18.256 14.355 20.519 14.125 21 15.433 18.813 15.87 17.148 16.203 17.04 17.384 18.656 17.577 19.751 17.707 21.05 18.969 20.577 19.442 20.463 19.556 19.789 19.795 19.079 19.973 18.159 20.204 17.879 20.151 18.105 19.787 18.278 19.507 18.208 19.277 17.948 19.277 17.689 19.277 17.477 19.665 17.477 20.139 17.477 20.786 17.837 21.036 18.924 21.141 21.149 21.355 20.72 22.424 18.144 23.087 16.92 23.402 15.354 23.876 14.664 24.14 13.135 24.725 12.584 24.725 11.577 24.139ZM15.696 17.702C15.696 17.157 15.516 17.115 14.806 17.495 13.675 18.1 13.675 18.385 14.806 18.385 15.309 18.385 15.696 18.089 15.696 17.702ZM22.001 23.486C21.339 22.032 21.343 19.03 22.013 15.394 22.433 13.121 22.426 12.336 21.983 11.626 21.276 10.495 21.709 10.019 22.816 10.711 23.482 11.126 24.06 11.099 25.524 10.582 26.547 10.222 27.8 9.926 28.308 9.926 28.938 9.926 29.087 9.781 28.776 9.47 28.466 9.16 27.594 9.182 26.036 9.542 24.216 9.962 23.612 9.953 23.063 9.498 22.685 9.183 22.375 8.798 22.375 8.641 22.375 8.396 24.431 7.776 27.982 6.949 28.569 6.812 29.392 7.142 30.204 7.841L31.494 8.951 30.644 11.449C30.177 12.824 29.578 14.117 29.313 14.323 29.048 14.529 27.75 14.715 26.428 14.737 25.107 14.758 23.85 14.951 23.636 15.166 23.099 15.702 22.574 21.673 23.084 21.438 23.306 21.335 24.044 20.973 24.723 20.633L25.958 20.015 24.723 18.705 23.488 17.396 24.862 17.688C26.049 17.94 26.482 17.74 28.053 16.215 29.817 14.503 29.894 14.475 30.63 15.288 31.696 16.467 31.228 17.237 29.047 17.89L27.166 18.454 28.889 19.591C30.976 20.968 31.725 21.853 31.725 22.938 31.725 24.496 30.393 24.358 28.608 22.616 26.633 20.687 25.985 20.754 24.508 23.035 23.295 24.906 22.698 25.014 22.001 23.485ZM28.112 12.721C28.617 11.751 28.579 11.732 26.172 11.83 24.227 11.909 23.717 12.082 23.714 12.666 23.711 13.269 24.034 13.36 25.492 13.164 26.778 12.992 27.272 13.086 27.272 13.504 27.272 14.187 27.422 14.048 28.112 12.721Z" fill="#cfcfcf"/>
    <path d="M13.915 46.017C13.915 45.752 13.017 44.433 11.921 43.087L9.927 40.639 8.745 42.425C7.535 44.253 6.505 44.7 6.076 43.584 5.78 42.812 6.826 40.714 8.066 39.59 8.899 38.836 8.926 38.666 8.335 37.822 7.434 36.536 7.516 35.154 8.568 33.908L9.456 32.858 10.748 34.259 12.041 35.661 13.646 34.018C15.749 31.864 15.711 30.697 13.472 28.63 12.494 27.727 11.827 26.856 11.988 26.695 12.15 26.533 13.019 26.401 13.92 26.401 15.757 26.401 17.032 27.464 17.032 28.996 17.032 30.266 17.29 30.22 19.103 28.627 20.168 27.693 21.088 27.291 22.168 27.291 23.016 27.291 23.711 27.491 23.711 27.737 23.711 28.305 25.539 28.311 27.021 27.747 28.427 27.213 30.151 27.794 30.81 29.026 31.412 30.15 30.678 31.91 29.337 32.559L28.386 33.019 29.377 33.049C29.923 33.066 30.679 33.552 31.057 34.129 31.562 34.899 32.037 35.123 32.847 34.969 34.152 34.719 36.178 35.914 36.178 36.933 36.178 37.513 35.815 37.607 34.259 37.432L32.341 37.216 32.367 41.142C32.388 44.321 32.244 45.217 31.609 45.854 30.859 46.604 30.774 46.586 29.699 45.426 29.079 44.758 28.219 44.211 27.785 44.211 27.352 44.211 26.609 43.917 26.133 43.558 25.341 42.958 25.481 42.903 27.829 42.89L30.389 42.876 30.383 40.538C30.373 37.079 30.086 36.814 27.08 37.487L24.589 38.044 25.493 39.194C26.286 40.202 26.323 40.459 25.788 41.276 24.911 42.616 23.065 43.396 21.145 43.236L19.48 43.098 21.541 41.887C22.947 41.06 23.672 40.307 23.824 39.515 24.044 38.361 24.034 38.356 21.848 38.657 20.085 38.899 19.48 38.804 18.786 38.177 17.416 36.937 17.734 36.498 19.766 36.823 20.888 37.003 23.148 36.822 25.537 36.363L29.464 35.607 28.718 34.343C28.294 33.625 27.58 33.075 27.065 33.068 26.275 33.058 26.317 32.958 27.387 32.295 28.597 31.545 29.382 30.143 28.876 29.637 28.734 29.494 27.709 29.24 26.6 29.072 24.747 28.79 24.539 28.856 24.036 29.881 23.278 31.424 21.166 32.939 20.583 32.357 20.276 32.05 20.491 31.484 21.252 30.599 22.474 29.179 22.782 27.901 21.761 28.494 21.423 28.689 20.293 29.626 19.25 30.574L17.352 32.299 16.938 37.922C16.408 45.132 16.156 46.177 14.902 46.357 14.359 46.436 13.915 46.283 13.915 46.017ZM14.99 37.977L15.287 34.193 13.274 36.419C12.167 37.644 11.257 38.917 11.252 39.249 11.247 39.582 11.881 40.659 12.66 41.642 14.382 43.817 14.553 43.548 14.99 37.978ZM10.514 36.865C10.992 35.618 9.926 34.195 9.287 35.229 8.983 35.72 9.474 37.532 9.912 37.532 10.102 37.532 10.372 37.232 10.514 36.865ZM21.042 35.898C21.043 35.695 21.66 35.178 22.413 34.75 23.608 34.07 23.744 33.801 23.488 32.635 23.273 31.655 23.358 31.299 23.808 31.299 25.458 31.299 26.068 33.769 24.712 34.965 23.824 35.748 21.037 36.457 21.042 35.898ZM11.577 24.138C10.434 23.473 10.607 22.393 11.855 22.393 12.437 22.393 13.539 22.268 14.305 22.115 15.403 21.895 15.695 21.61 15.695 20.759 15.695 19.769 15.569 19.705 14.142 19.973 12.224 20.333 11.579 19.292 12.85 17.888 13.63 17.025 13.632 16.954 12.894 16.541 11.76 15.906 12.396 15.269 14.164 15.269 15.229 15.269 15.696 15.065 15.696 14.601 15.696 14.195 15.281 13.933 14.637 13.933 14.055 13.933 13.339 13.645 13.046 13.292 12.602 12.757 12.798 12.602 14.216 12.359 15.152 12.199 16.544 11.855 17.309 11.595 19.887 10.721 21.321 12.232 18.813 13.179 17.063 13.839 17.063 14.73 18.813 14.473 20.647 14.204 20.647 15.503 18.813 15.87 17.895 16.054 17.477 16.4 17.477 16.977 17.477 17.615 17.725 17.77 18.506 17.62 19.126 17.502 19.783 17.723 20.159 18.176 20.702 18.831 20.673 19.008 19.935 19.547 18.958 20.262 17.737 20.381 18.145 19.722 18.296 19.477 18.208 19.276 17.948 19.276 17.689 19.276 17.477 19.677 17.477 20.167 17.477 20.852 17.774 21.057 18.765 21.057 19.473 21.057 20.161 21.339 20.293 21.682 20.608 22.503 20.227 22.839 18.978 22.839 18.415 22.839 16.938 23.239 15.696 23.729 13.146 24.734 12.679 24.78 11.577 24.139ZM15.696 17.718C15.696 17.351 15.52 17.05 15.305 17.05 15.09 17.05 14.665 17.35 14.36 17.718 13.897 18.276 13.961 18.386 14.75 18.386 15.294 18.386 15.696 18.102 15.696 17.718ZM22.408 23.992C21.498 22.896 21.336 20.2 21.943 16.294 22.415 13.262 22.422 12.33 21.977 11.618 21.266 10.478 21.717 10.024 22.855 10.735 23.571 11.182 24.121 11.157 25.745 10.606 26.847 10.232 28.083 9.926 28.49 9.926 28.996 9.926 29.087 9.781 28.776 9.47 28.466 9.16 27.594 9.182 26.036 9.542 24.216 9.962 23.612 9.953 23.063 9.498 22.133 8.726 22.196 8.145 23.209 8.145 23.669 8.145 24.892 7.845 25.928 7.48 29.398 6.255 31.662 7.836 30.818 10.894 30.29 12.808 28.794 14.824 27.902 14.824 27.344 14.824 27.344 14.624 27.901 13.292L28.541 11.762 26.126 11.845C24.15 11.915 23.712 12.072 23.711 12.714 23.711 13.38 23.98 13.455 25.491 13.214 26.657 13.027 27.273 13.097 27.273 13.415 27.273 14.125 25.536 14.939 24.564 14.685 23.908 14.514 23.631 14.816 23.276 16.092 22.797 17.817 22.653 21.502 23.065 21.502 23.199 21.502 23.922 21.186 24.672 20.798L26.034 20.094 24.761 18.745 23.488 17.396 24.89 17.694C26.108 17.953 26.532 17.762 28.14 16.234L29.987 14.476 30.694 15.554C31.529 16.828 31.565 16.777 29.08 17.832L27.131 18.66 28.727 19.602C30.592 20.702 31.933 22.546 31.566 23.503 31.156 24.57 30.235 24.293 28.608 22.616 27.778 21.759 26.835 21.058 26.513 21.058 26.192 21.058 25.379 21.851 24.708 22.822 23.346 24.791 23.153 24.889 22.408 23.992ZM12.728 9.969C14.468 8.168 15.696 6.509 15.696 5.962 15.696 5.359 15.98 5.028 16.497 5.028 17.514 5.028 18.367 5.87 18.367 6.874 18.367 7.301 18.918 7.915 19.592 8.238 20.822 8.827 21.276 10.366 20.316 10.686 20.04 10.778 19.209 10.343 18.468 9.72L17.121 8.586 15.221 10.174C13.188 11.872 11.181 13.043 10.301 13.043 10.004 13.043 11.096 11.66 12.728 9.969Z" fill="#afafaf"/>
    <path d="M12.376 43.547C10.323 40.829 10.144 40.7 9.393 41.379 8.953 41.777 8.481 42.459 8.343 42.893 8.035 43.866 6.795 44.395 6.206 43.806 5.626 43.226 6.548 41.032 7.909 39.754 8.919 38.804 8.931 38.719 8.241 37.273 6.861 34.376 9.374 32.063 11.077 34.663L11.823 35.801 13.537 34.127C16.037 31.685 15.845 29.846 12.899 28.02 11.363 27.068 11.7 26.4 13.719 26.4 15.581 26.4 17.032 27.705 17.032 29.378L17.032 30.575 18.256 29.433C20.545 27.298 22.668 26.703 23.673 27.914 24.108 28.438 24.537 28.446 26.36 27.965 29.16 27.227 30.552 27.812 30.748 29.81 30.852 30.878 30.608 31.412 29.686 32.138 29.027 32.656 28.086 33.08 27.593 33.08 26.773 33.08 26.796 32.988 27.876 31.988 29.129 30.826 29.415 29.6 28.497 29.319 28.191 29.225 27.18 29.042 26.25 28.912 24.806 28.711 24.506 28.818 24.187 29.654 23.772 30.737 22.545 31.915 21.417 32.314 20.176 32.751 20.119 32.13 21.274 30.757 22.472 29.334 22.789 27.893 21.772 28.494 21.44 28.69 20.263 29.654 19.156 30.638L17.142 32.427 16.834 37.985C16.509 43.849 15.975 46.438 15.093 46.438 14.8 46.438 13.577 45.137 12.376 43.548ZM15.024 38.184L15.304 34.193 13.458 36.185C10.678 39.187 10.655 39.307 12.463 41.485 14.428 43.85 14.645 43.569 15.023 38.184ZM10.589 36.597C10.934 35.511 10.139 34.451 9.477 35.113 8.997 35.593 9.36 37.533 9.929 37.533 10.129 37.533 10.426 37.112 10.589 36.597ZM29.669 45.347C29.532 44.991 28.687 44.466 27.789 44.179 25.102 43.321 25.123 42.876 27.852 42.876L30.39 42.876 30.383 40.538C30.373 37.318 30.031 36.906 27.656 37.265 26.588 37.426 25.414 37.757 25.046 37.999 24.464 38.383 24.479 38.499 25.158 38.899 26.179 39.501 26.153 41.207 25.108 42.153 24.65 42.566 23.202 43.011 21.879 43.143 19.292 43.402 19.366 43.096 22.279 41.485 23.069 41.048 23.676 40.285 23.817 39.55 24.047 38.345 24.037 38.34 22.069 38.635 20.612 38.853 19.803 38.745 19.006 38.222 17.35 37.137 17.646 36.517 19.656 36.857 21.336 37.141 29.499 35.938 29.499 35.407 29.499 35.267 29.171 34.791 28.771 34.349 28.117 33.627 28.113 33.516 28.736 33.277 29.663 32.922 31.28 33.827 31.28 34.702 31.28 35.222 31.56 35.332 32.368 35.13 33.61 34.818 35.568 35.57 35.923 36.496 36.239 37.319 35.146 37.705 33.458 37.366L32.101 37.096 32.406 39.946C32.778 43.422 32.09 45.993 30.786 45.993 30.308 45.993 29.805 45.702 29.668 45.346ZM22.288 35.073C23.528 34.056 23.715 33.667 23.477 32.583 23.173 31.199 23.937 30.813 24.957 31.833 26.427 33.303 25.046 35.349 22.152 35.985L20.816 36.278 22.288 35.073ZM22.318 23.884C21.624 23.049 21.541 19.238 22.124 14.944 22.392 12.965 22.348 11.989 21.97 11.534 21.266 10.684 22.17 10.092 23.053 10.824 23.533 11.223 24.045 11.232 25.103 10.864 25.88 10.593 27.086 10.371 27.784 10.371 28.483 10.371 29.054 10.164 29.054 9.911 29.054 9.125 27.886 8.956 25.985 9.467 24.681 9.819 23.905 9.823 23.267 9.482 21.975 8.79 22.169 8.276 23.822 8.006 24.618 7.876 25.97 7.586 26.827 7.362 27.968 7.062 28.728 7.122 29.664 7.588 30.852 8.178 30.926 8.365 30.714 10.238 30.471 12.402 29.199 14.51 27.996 14.747 27.308 14.882 27.309 14.777 28.011 13.305 28.916 11.408 28.708 11.077 27.018 11.719 26.32 11.984 25.29 12.086 24.73 11.946 23.918 11.742 23.71 11.874 23.71 12.594 23.71 13.4 23.905 13.467 25.492 13.214 26.657 13.027 27.272 13.097 27.272 13.415 27.272 14.113 25.624 14.898 24.497 14.737 23.794 14.637 23.453 14.899 23.223 15.714 22.793 17.241 22.744 21.404 23.154 21.657 23.338 21.77 24.089 21.385 24.822 20.8L26.156 19.736 25.156 19.036C23.926 18.174 23.853 17.5 25.024 17.806 25.895 18.034 28.3 16.668 29.415 15.311 29.945 14.668 30.062 14.685 30.66 15.491 31.26 16.299 31.231 16.455 30.36 17.161 29.832 17.59 29.034 17.941 28.585 17.941 27.119 17.941 27.237 18.736 28.851 19.734 30.764 20.916 31.846 22.452 31.465 23.444 31.013 24.623 30.083 24.294 28.581 22.425 27.341 20.882 27.055 20.731 26.152 21.142 25.59 21.398 24.765 22.285 24.319 23.114 23.397 24.825 23.172 24.912 22.318 23.884ZM11.332 23.64C10.575 22.883 10.67 22.44 11.577 22.5 12.006 22.527 13.107 22.406 14.026 22.23 15.439 21.957 15.696 21.732 15.696 20.763 15.696 19.76 15.546 19.646 14.499 19.847 12.225 20.281 11.494 19.385 12.877 17.857 13.573 17.088 13.567 16.997 12.79 16.429 12.03 15.873 12.116 15.796 13.828 15.506 15.86 15.163 16.493 13.933 14.638 13.933 14.055 13.933 13.348 13.656 13.068 13.318 12.649 12.814 12.933 12.646 14.629 12.391 15.769 12.221 17.185 11.861 17.774 11.591 18.634 11.201 18.991 11.25 19.584 11.843 20.274 12.533 20.227 12.616 18.901 13.079 17.265 13.649 16.992 14.645 18.479 14.619 19.899 14.594 20.145 15.4 18.813 15.712 18.125 15.874 17.647 16.336 17.562 16.922 17.456 17.648 17.613 17.822 18.23 17.662 19.276 17.39 20.982 18.613 20.371 19.196 19.668 19.868 17.754 20.354 18.115 19.769 18.283 19.499 18.208 19.276 17.948 19.276 17.689 19.276 17.477 19.743 17.477 20.313 17.477 21.21 17.655 21.323 18.813 21.153 19.937 20.987 20.148 21.105 20.148 21.898 20.148 22.591 19.87 22.838 19.091 22.838 18.51 22.838 17.182 23.139 16.141 23.507 13.857 24.312 12.054 24.362 11.332 23.64ZM15.696 17.426C15.696 16.478 15.684 16.476 14.694 17.31 14.143 17.774 13.609 18.206 13.506 18.27 13.404 18.334 13.856 18.386 14.508 18.386 15.428 18.386 15.696 18.169 15.696 17.426ZM12.69 10.079C14.704 8.094 15.696 6.772 15.696 6.072 15.696 5.498 15.909 5.028 16.17 5.028 17.183 5.028 18.367 5.99 18.367 6.813 18.367 7.323 18.916 7.96 19.703 8.367 20.438 8.747 21.039 9.354 21.039 9.715 21.039 10.701 19.242 10.512 18.059 9.4L17.026 8.43 15.804 9.577C14.025 11.25 11.229 13.043 10.402 13.042 9.972 13.042 10.887 11.857 12.69 10.079Z" fill="#8f8f8f"/>
    <path d="M13.322 44.768C12.686 43.85 11.651 42.498 11.022 41.763 9.983 40.55 9.836 40.499 9.424 41.208 9.174 41.638 8.494 42.54 7.911 43.212 7.087 44.162 6.732 44.316 6.311 43.902 5.617 43.218 6.407 41.164 7.909 39.754 8.919 38.804 8.931 38.719 8.241 37.273 6.861 34.376 9.374 32.063 11.077 34.663L11.823 35.801 13.537 34.127C16.051 31.672 15.848 29.85 12.854 27.991 11.856 27.371 11.708 27.107 12.186 26.804 14.119 25.58 17.032 27.127 17.032 29.378L17.032 30.575 18.256 29.433C20.682 27.17 22.606 26.716 23.868 28.11 24.563 28.877 24.545 29.024 23.588 30.448 23.026 31.283 22.123 32.031 21.58 32.108 20.363 32.285 20.344 31.979 21.484 30.53 22.374 29.397 22.67 28.164 22.041 28.202 21.857 28.213 20.687 29.165 19.441 30.317L17.176 32.412 16.682 38.659C16.41 42.095 16.056 45.251 15.894 45.672 15.431 46.878 14.574 46.577 13.322 44.768ZM14.96 40.315C15.116 38.662 15.236 36.609 15.227 35.751L15.21 34.193 13.004 36.615C11.791 37.948 10.798 39.164 10.798 39.318 10.798 39.757 13.943 43.321 14.33 43.321 14.52 43.321 14.804 41.968 14.96 40.315ZM10.718 36.271C10.803 35.691 10.572 35.191 10.142 35.027 9.143 34.643 8.86 35.067 9.202 36.43 9.542 37.785 10.51 37.684 10.718 36.271ZM29.637 45.157C29.35 44.698 28.407 44.189 27.542 44.027 24.975 43.545 25.192 42.876 27.914 42.876L30.39 42.876 30.39 40.23C30.39 38.775 30.175 37.452 29.913 37.29 29.313 36.92 25.938 37.411 25.046 37.999 24.464 38.383 24.479 38.499 25.158 38.899 26.276 39.558 26.136 41.389 24.906 42.195 23.851 42.886 19.703 43.662 19.703 43.168 19.703 43.018 20.491 42.492 21.454 42.001 23.392 41.012 23.469 40.925 23.864 39.266L24.141 38.105 22.171 38.555C20.543 38.928 20.002 38.875 19.048 38.25 17.498 37.234 18.03 36.577 20.13 36.913 21.553 37.141 28.906 36.047 29.423 35.531 29.504 35.449 29.338 34.947 29.053 34.416 28.769 33.884 28.652 33.333 28.793 33.192 29.253 32.732 31.28 33.932 31.28 34.664 31.28 35.214 31.566 35.314 32.534 35.102 33.438 34.903 34.122 35.089 34.987 35.77 36.579 37.022 36.081 37.702 33.837 37.343L32.052 37.058 32.355 39.731C32.885 44.418 31.234 47.715 29.637 45.157ZM22.562 34.809C23.423 34.132 23.722 33.536 23.624 32.694 23.435 31.07 24.67 31.145 25.249 32.792 25.634 33.886 25.551 34.182 24.654 34.907 24.081 35.372 23.106 35.751 22.488 35.751L21.364 35.751 22.562 34.809ZM27.879 32.055C29.536 30.73 29.349 29.347 27.492 29.165 26.759 29.093 25.859 28.921 25.492 28.783 24.529 28.421 26.155 27.808 28.186 27.768 30.073 27.731 30.835 28.378 30.835 30.02 30.835 31.409 29.036 33.081 27.547 33.078 26.684 33.075 26.712 32.99 27.879 32.055ZM22.071 22.95C21.457 21.495 21.438 20.758 21.919 17.22 22.223 14.987 22.333 12.532 22.165 11.765 21.852 10.34 22.249 9.978 23.142 10.872 23.513 11.242 24.016 11.242 25.079 10.872 25.869 10.596 27.086 10.372 27.784 10.372 28.616 10.372 29.054 10.141 29.054 9.703 29.054 8.92 28.134 8.863 25.832 9.503 24.664 9.827 23.902 9.821 23.272 9.484 21.975 8.79 22.167 8.276 23.822 8.008 24.618 7.88 26.092 7.635 27.097 7.464 29.5 7.057 30.835 7.763 30.835 9.442 30.835 11 29.793 13.58 28.846 14.366 27.823 15.215 27.513 14.613 28.163 13.043 28.865 11.348 28.578 11.03 26.881 11.622 26.15 11.876 25.138 11.976 24.631 11.844 23.906 11.654 23.711 11.811 23.711 12.584 23.711 13.484 23.861 13.541 25.491 13.265 26.688 13.063 27.273 13.128 27.273 13.463 27.273 14.063 26.247 14.497 24.681 14.557 23.309 14.609 22.93 15.617 22.864 19.387 22.824 21.767 23.256 22.599 23.95 21.475 24.11 21.215 24.774 20.798 25.424 20.549L26.604 20.095 25.38 19.113C23.963 17.975 23.748 17.246 25.033 17.933 25.922 18.409 26.617 18.011 29.166 15.567 29.989 14.777 30.035 14.777 30.611 15.566 31.385 16.623 30.872 17.21 28.574 17.898L26.747 18.446 28.748 19.715C30.99 21.136 31.712 22.127 31.393 23.347 31.054 24.641 30.142 24.329 28.613 22.399 27.246 20.674 27.172 20.642 25.967 21.265 25.285 21.617 24.474 22.517 24.165 23.263 23.425 25.049 22.925 24.974 22.071 22.95ZM11.301 23.577C10.903 23.097 11.286 22.871 13.251 22.431 15.416 21.947 15.696 21.757 15.696 20.771 15.696 19.89 15.487 19.675 14.694 19.739 11.809 19.973 11.277 19.099 13.358 17.547 14.52 16.68 14.533 16.632 13.607 16.619 11.874 16.594 12.097 15.834 13.923 15.542 15.725 15.254 16.52 13.933 14.89 13.933 14.447 13.933 13.696 13.639 13.22 13.279 12.392 12.653 12.406 12.625 13.565 12.612 14.23 12.604 15.709 12.28 16.851 11.892 18.737 11.252 18.993 11.252 19.626 11.885 20.26 12.518 20.193 12.628 18.901 13.079 17.265 13.649 16.96 14.812 18.479 14.685 19.889 14.567 20.159 15.397 18.813 15.713 18.092 15.882 17.647 16.335 17.552 16.999 17.432 17.828 17.564 17.973 18.243 17.758 19.223 17.446 20.86 18.485 20.446 19.155 19.978 19.913 18.394 20.17 18.673 19.444 18.838 19.014 18.689 18.907 18.194 19.096 17.8 19.248 17.477 19.839 17.477 20.41 17.477 21.266 17.692 21.433 18.701 21.364 20.571 21.236 20.285 22.536 18.367 22.881 17.51 23.035 16.245 23.389 15.555 23.668 13.868 24.35 11.908 24.308 11.301 23.577ZM15.696 17.427C15.696 16.478 15.684 16.477 14.694 17.31 14.143 17.774 13.609 18.206 13.506 18.27 13.404 18.334 13.856 18.386 14.508 18.386 15.428 18.386 15.696 18.169 15.696 17.426ZM12.69 10.257C14.901 8.129 15.696 7.055 15.696 6.196 15.696 5.553 15.909 5.028 16.17 5.028 17.181 5.028 18.367 5.989 18.367 6.808 18.367 7.282 18.818 7.906 19.369 8.196 20.387 8.732 21.019 9.433 21.032 10.037 21.046 10.72 19.227 10.34 18.367 9.481 17.292 8.405 16.877 8.371 16.11 9.295 15.257 10.323 12.09 12.421 10.798 12.814 9.98 13.062 10.482 12.384 12.69 10.258Z" fill="#707070"/>
    <path d="M13.708 45.213C12.944 43.823 9.975 40.404 9.778 40.686 7.705 43.661 7.116 44.221 6.555 43.756 5.808 43.136 6.102 42.229 7.727 40.136 8.93 38.586 8.958 38.443 8.325 37.174 6.973 34.463 9.46 32.194 11.077 34.663L11.823 35.801 13.537 34.127C16.062 31.662 15.851 29.853 12.818 27.967 11.598 27.208 11.565 27.121 12.373 26.805 14.695 25.897 17.032 27.187 17.032 29.376 17.032 30.37 17.095 30.354 19.069 28.846 21.267 27.169 22.817 26.883 23.733 27.986 24.537 28.956 23.793 30.87 22.283 31.718 20.686 32.614 20.273 32.068 21.433 30.594 22.367 29.407 22.683 28.164 22.041 28.202 21.857 28.213 20.687 29.165 19.441 30.317L17.176 32.412 16.61 38.868C15.942 46.485 15.246 48.006 13.709 45.213ZM14.96 40.761C15.116 39.108 15.246 36.887 15.247 35.827L15.25 33.898 13.028 36.495C11.806 37.923 10.854 39.24 10.913 39.423 11.094 39.984 14.12 43.731 14.407 43.749 14.555 43.759 14.804 42.414 14.96 40.761ZM10.723 36.472C10.805 36.052 10.623 35.409 10.319 35.043 9.537 34.101 8.834 34.965 9.199 36.418 9.518 37.686 10.481 37.721 10.723 36.472ZM29.656 45.187C29.379 44.744 28.279 44.093 27.211 43.74L25.269 43.098 27.849 42.964 30.431 42.83 30.299 40.07C30.177 37.521 30.083 37.298 29.073 37.156 27.783 36.974 24.601 37.849 24.601 38.386 24.601 38.591 24.901 39.009 25.269 39.314 27.002 40.752 25.393 42.593 22.041 43.004 19.717 43.289 19.644 42.928 21.789 41.763 23.212 40.989 24.641 38.76 24.077 38.195 23.982 38.101 23.061 38.237 22.03 38.499 20.466 38.896 19.963 38.849 19 38.219 17.492 37.23 17.897 36.907 20.489 37.025 22.341 37.109 28.932 36.022 29.399 35.555 29.494 35.46 29.348 34.965 29.074 34.454 28.629 33.622 28.699 33.525 29.748 33.525 30.562 33.525 30.993 33.809 31.162 34.459 31.359 35.209 31.649 35.344 32.642 35.145 33.495 34.975 34.236 35.179 35.032 35.805 36.564 37.01 36.072 37.668 33.913 37.303L32.185 37.011 32.251 40.501C32.288 42.419 32.171 44.44 31.991 44.991 31.599 46.196 30.351 46.301 29.656 45.187ZM22.537 34.829C23.327 34.207 23.711 33.48 23.711 32.602 23.711 31.885 23.904 31.299 24.141 31.299 24.608 31.299 25.491 32.734 25.491 33.496 25.491 34.391 23.711 35.751 22.537 35.751L21.364 35.751 22.537 34.829ZM27.273 32.772C27.273 32.569 27.686 32.145 28.191 31.83 28.768 31.47 29.058 30.89 28.971 30.275 28.86 29.495 28.491 29.267 27.161 29.157 26.243 29.081 25.491 28.839 25.491 28.62 25.491 27.955 28.596 27.588 29.756 28.116 31.068 28.714 31.236 30.808 30.056 31.845 29.115 32.671 27.273 33.285 27.273 32.772ZM22.289 23.618C21.933 22.984 21.787 21.472 21.89 19.499 21.98 17.785 22.075 15.055 22.102 13.433 22.137 11.353 22.308 10.543 22.682 10.687 22.972 10.799 23.341 11.482 23.499 12.204 23.753 13.358 23.958 13.502 25.196 13.391 25.971 13.321 26.705 13.466 26.827 13.711 26.953 13.962 26.25 14.214 25.209 14.291 23.55 14.411 23.34 14.561 23.094 15.793 22.387 19.325 22.954 23.087 23.95 21.475 24.11 21.215 24.753 20.808 25.377 20.571L26.512 20.14 25.445 18.985C24.472 17.932 24.457 17.855 25.273 18.105 25.921 18.302 26.689 17.902 28.05 16.659 29.581 15.259 30.024 15.051 30.433 15.544 31.233 16.507 30.626 17.284 28.601 17.89L26.719 18.454 28.889 19.87C30.647 21.018 31.084 21.56 31.197 22.73 31.39 24.73 30.522 24.6 28.576 22.339 26.99 20.496 26.98 20.492 25.813 21.256 25.169 21.678 24.383 22.608 24.068 23.322 23.378 24.882 23.031 24.94 22.289 23.618ZM11.243 23.507C10.783 22.953 10.832 22.838 11.523 22.837 11.981 22.835 13.108 22.625 14.026 22.37 15.376 21.995 15.696 21.697 15.696 20.814 15.696 19.837 15.509 19.722 13.915 19.722 11.768 19.722 11.555 18.892 13.358 17.547 14.542 16.663 14.55 16.633 13.581 16.619 12.021 16.597 12.402 15.847 14.137 15.521 15.759 15.217 16.367 13.933 14.89 13.933 14.447 13.933 13.696 13.639 13.22 13.279 12.404 12.662 12.436 12.625 13.818 12.612 14.621 12.604 16.013 12.291 16.911 11.916 17.809 11.541 18.804 11.334 19.123 11.456 20.034 11.806 19.805 13.043 18.828 13.043 18.348 13.043 17.738 13.445 17.475 13.937 17.044 14.742 17.12 14.82 18.238 14.717 19.795 14.572 20.328 15.435 18.813 15.647 17.647 15.811 17.05 16.412 17.038 17.432 17.034 17.852 17.364 17.954 18.112 17.766 19.256 17.479 20.816 18.557 20.349 19.312 19.989 19.895 18.919 19.82 18.712 19.198 18.424 18.334 17.477 19.248 17.477 20.388 17.477 21.268 17.685 21.434 18.701 21.364 20.773 21.222 20.221 22.541 18.054 22.911 17.024 23.087 15.786 23.443 15.3 23.702 14.025 24.385 11.886 24.282 11.243 23.507ZM15.623 18.136C15.707 18.066 15.707 17.695 15.623 17.309 15.5 16.732 15.236 16.805 14.137 17.725L12.801 18.842 14.137 18.552C14.872 18.392 15.541 18.204 15.624 18.136ZM27.918 13.822C28.085 13.271 28.328 12.482 28.46 12.068 28.67 11.406 28.39 11.342 26.093 11.534L23.488 11.751 24.986 11.061C25.81 10.681 27.063 10.371 27.769 10.371 28.636 10.371 29.054 10.145 29.054 9.676 29.054 9.085 28.599 9.026 26.004 9.282 23.501 9.529 22.908 9.462 22.696 8.909 22.507 8.417 22.82 8.173 23.853 8.005 24.632 7.878 26.125 7.631 27.171 7.455 30.297 6.928 31.641 8.886 30.303 12.02 29.263 14.46 27.268 15.966 27.918 13.822ZM12.692 10.27C14.902 8.135 15.696 7.06 15.696 6.198 15.696 5.481 15.942 5.028 16.332 5.028 17.26 5.028 18.458 6.376 18.178 7.106 18.043 7.457 18.276 7.853 18.708 8.006 19.692 8.355 21.038 9.504 21.038 9.995 21.038 10.805 19.2 10.312 18.281 9.255L17.311 8.138 16.169 9.185C14.304 10.896 11.986 12.471 10.799 12.833 9.984 13.082 10.488 12.4 12.692 10.27Z" fill="#4f4f4f"/>
    <path d="M13.52 44.991C13.01 44.195 12 42.779 11.276 41.844L9.96 40.144 8.761 41.955C8.101 42.951 7.289 43.766 6.954 43.766 5.9 43.766 6.291 41.959 7.741 40.128 8.783 38.813 9.009 38.237 8.631 37.86 8.086 37.314 7.96 35.368 8.396 34.23 8.813 33.144 10.31 33.39 10.879 34.638 11.158 35.25 11.512 35.751 11.667 35.751 11.822 35.751 12.757 34.9 13.747 33.859 15.263 32.263 15.503 31.759 15.283 30.638 15.117 29.796 14.499 28.981 13.595 28.412 11.853 27.316 11.791 26.949 13.285 26.574 14.777 26.199 16.758 27.622 16.947 29.204L17.087 30.361 19.127 28.803C21.321 27.128 23.035 26.933 23.867 28.264 24.472 29.23 23.463 31.228 22.044 31.874 20.607 32.529 20.274 31.919 21.408 30.712 22.297 29.766 22.736 28.182 22.109 28.182 21.963 28.182 20.933 28.983 19.82 29.962 18.707 30.942 17.653 31.744 17.478 31.744 17.178 31.744 17.017 33.133 16.312 41.763 15.912 46.675 15.158 47.546 13.52 44.991ZM15.03 40.093C15.197 38.073 15.265 35.869 15.181 35.197 15.031 34.003 14.981 34.032 13.024 36.431 11.922 37.781 11.048 39.184 11.083 39.548 11.146 40.224 13.899 43.66 14.431 43.728 14.593 43.749 14.862 42.113 15.03 40.093ZM10.73 36.946C11.09 36.512 11.033 36.095 10.51 35.35 9.626 34.086 8.78 34.75 9.191 36.387 9.51 37.657 9.995 37.832 10.731 36.946ZM29.627 45.142C29.335 44.674 28.487 44.158 27.744 43.995 25.582 43.52 25.486 42.698 27.627 42.985 30.429 43.361 30.99 42.715 30.597 39.565L30.273 36.975 27.819 37.228C24.824 37.537 24.146 38.072 25.229 39.27 26.802 41.008 25.132 42.855 21.975 42.87L20.462 42.876 21.941 41.874C23.311 40.946 24.561 38.68 24.009 38.128 23.878 37.997 23.068 38.121 22.209 38.404 20.892 38.839 20.418 38.794 19.174 38.114L17.699 37.31 19.926 37.206C22.786 37.071 28.35 36.186 29.05 35.753 29.462 35.499 29.47 35.193 29.084 34.473 28.627 33.618 28.692 33.525 29.748 33.525 30.544 33.525 30.993 33.81 31.151 34.415 31.331 35.103 31.758 35.306 33.024 35.306 34.728 35.306 35.733 35.932 35.733 36.993 35.733 37.467 35.319 37.541 33.952 37.31L32.171 37.009 32.171 40.639C32.171 44.299 31.707 45.993 30.704 45.993 30.404 45.993 29.92 45.61 29.627 45.143ZM22.537 34.829C23.327 34.207 23.711 33.48 23.711 32.602 23.711 31.09 24.356 30.9 25.055 32.206 25.72 33.447 25.195 34.826 23.866 35.332 21.898 36.08 21.256 35.837 22.537 34.829ZM28.547 31.498C29.699 30.034 29.182 29.072 27.244 29.072 25.341 29.072 25.247 28.268 27.11 27.919 28.83 27.596 29.785 27.953 30.582 29.217 31.241 30.261 30.02 32.365 28.642 32.562L27.592 32.713 28.548 31.498ZM22.343 23.671C21.743 22.549 21.749 18.763 22.357 15.101 22.645 13.37 22.641 12.204 22.345 11.651 21.998 11.003 22.051 10.816 22.582 10.816 23.211 10.816 23.447 11.452 23.379 12.966 23.361 13.378 23.843 13.512 24.979 13.411 25.873 13.331 26.705 13.466 26.827 13.711 26.953 13.962 26.251 14.214 25.211 14.291L23.372 14.424 22.857 17.042C22.422 19.252 22.537 21.948 23.065 21.948 23.147 21.948 23.938 21.521 24.822 21L26.429 20.051 25.404 18.941C24.449 17.907 24.44 17.849 25.274 18.104 25.92 18.302 26.686 17.904 28.037 16.67 29.335 15.484 30.047 15.104 30.37 15.428 31.245 16.302 30.834 16.886 28.731 17.758L26.627 18.629 28.727 19.859C30.914 21.142 31.854 22.889 30.879 23.863 30.491 24.251 29.949 23.893 28.663 22.4 26.98 20.445 26.947 20.431 25.827 21.165 25.203 21.574 24.423 22.518 24.093 23.264 23.383 24.867 23.028 24.95 22.343 23.671ZM11.243 23.507C10.778 22.947 10.851 22.839 11.693 22.839 12.246 22.839 13.483 22.604 14.44 22.317 15.823 21.902 16.155 21.603 16.05 20.869 15.95 20.169 15.54 19.909 14.36 19.801 12.037 19.588 11.715 18.981 13.256 17.721 14.518 16.69 14.534 16.636 13.581 16.621 12.271 16.6 12.271 15.716 13.581 15.707 14.792 15.699 15.449 15.289 15.806 14.317 16.007 13.771 15.867 13.643 15.245 13.806 14.789 13.925 13.958 13.702 13.398 13.31 12.392 12.606 12.401 12.597 14.15 12.595 15.122 12.593 16.506 12.285 17.225 11.911 18.546 11.221 19.703 11.316 19.703 12.114 19.703 12.354 19.167 12.81 18.512 13.13 16.735 13.996 16.575 14.995 18.272 14.622 20.134 14.213 20.551 15.14 18.717 15.612 17.702 15.874 17.211 16.288 17.112 16.965 16.992 17.785 17.184 17.941 18.31 17.941 19.822 17.941 20.506 18.652 19.735 19.423 19.346 19.811 19.135 19.798 18.87 19.369 18.272 18.402 17.14 19.198 17.374 20.42 17.542 21.3 17.819 21.496 18.754 21.4 20.746 21.196 20.198 22.544 18.144 22.9 17.165 23.07 15.8 23.427 15.11 23.692 13.364 24.364 11.896 24.294 11.243 23.507ZM14.999 18.397C15.627 18.158 16.141 17.657 16.141 17.284 16.141 16.339 15.686 16.435 14.137 17.704 12.735 18.854 13.076 19.128 14.999 18.397ZM27.875 14.167C28.035 13.747 28.291 12.913 28.442 12.311 28.713 11.23 28.688 11.22 26.325 11.464 23.982 11.706 23.96 11.698 25.269 11.061 26.004 10.704 27.156 10.402 27.829 10.391 28.633 10.378 29.054 10.133 29.054 9.676 29.054 9.084 28.596 9.026 25.937 9.288 23.925 9.487 22.82 9.436 22.82 9.144 22.82 8.611 26.747 7.254 28.29 7.254 29.492 7.254 30.835 8.502 30.835 9.618 30.835 10.997 29.395 13.958 28.487 14.443 27.718 14.855 27.627 14.813 27.875 14.166ZM12.82 10.314C14.148 9.059 15.478 7.356 15.777 6.53 16.076 5.704 16.466 5.028 16.644 5.028 17.317 5.028 18.409 6.504 18.179 7.103 18.034 7.48 18.34 7.881 18.951 8.113 19.507 8.324 20.227 8.816 20.551 9.206 21.047 9.804 21.021 9.961 20.382 10.206 19.889 10.395 19.224 10.095 18.474 9.344L17.321 8.192 15.284 9.884C11.202 13.274 9.347 13.599 12.82 10.314Z" fill="#2f2f2f"/>
    <path d="M14.36 46.072C14.36 45.83 13.709 44.852 12.913 43.897 12.117 42.943 11.146 41.68 10.755 41.09L10.045 40.016 8.803 41.891C8.121 42.922 7.289 43.766 6.953 43.766 5.927 43.766 6.275 42.196 7.697 40.406 8.557 39.326 8.937 38.451 8.742 38.007 8.079 36.498 8.058 34.581 8.699 34.049 9.519 33.369 10.682 33.793 11.033 34.902 11.403 36.064 11.623 35.998 13.889 34.043 15.78 32.413 15.848 32.271 15.431 30.816 15.163 29.879 14.453 28.953 13.581 28.404 11.896 27.343 11.811 27.034 13.113 26.694 14.558 26.316 16.282 27.33 16.781 28.851 17.389 30.707 17.348 30.694 18.706 29.428 21.218 27.086 23.349 26.787 23.954 28.692 24.266 29.677 22.274 32.189 21.178 32.189 20.343 32.189 20.446 31.826 21.707 30.327 24.042 27.552 22.433 27.379 19.357 30.074L17.197 31.967 16.65 37.977C16.35 41.284 15.962 44.473 15.788 45.066 15.476 46.133 14.36 46.919 14.36 46.072ZM15.028 40.538C15.192 38.763 15.258 36.525 15.177 35.565L15.027 33.82 12.913 36.395C11.75 37.812 10.798 39.115 10.798 39.292 10.798 39.784 13.987 43.766 14.381 43.766 14.573 43.766 14.863 42.314 15.028 40.538ZM10.731 37.028C11.249 36.2 11.208 35.964 10.411 35.166 9.582 34.338 9.47 34.323 9.209 35.003 8.881 35.856 9.309 37.978 9.809 37.978 9.989 37.978 10.405 37.551 10.731 37.028ZM29.594 45.088C29.284 44.591 28.429 44.064 27.696 43.918 25.516 43.482 25.519 42.695 27.7 43.044 30.638 43.514 31.34 42.392 30.557 38.479 30.308 37.237 30.11 37.087 28.716 37.087 27.856 37.087 26.329 37.302 25.321 37.564 24.313 37.827 22.818 38.214 21.999 38.426 20.507 38.812 18.367 38.243 18.367 37.461 18.367 37.255 19.545 37.087 20.984 37.087 22.424 37.087 25.036 36.763 26.79 36.367L29.978 35.647 29.283 34.587C28.63 33.589 28.643 33.525 29.485 33.525 29.978 33.525 30.632 33.925 30.938 34.415 31.298 34.992 31.977 35.306 32.861 35.306 34.425 35.306 36.009 36.28 35.578 36.977 35.414 37.243 34.558 37.35 33.612 37.223L31.937 36.998 32.099 40.551C32.314 45.3 31.1 47.5 29.594 45.088ZM21.998 41.912C23.131 41.255 23.708 40.555 23.898 39.604L24.17 38.24 25.1 39.17C26.824 40.894 25.042 42.889 21.797 42.865L20.371 42.855 21.998 41.912ZM22.681 34.962C23.276 34.493 23.71 33.585 23.794 32.635L23.934 31.076 24.801 32.358 25.67 33.641 24.443 34.696C23.768 35.276 22.876 35.746 22.461 35.741 21.835 35.733 21.871 35.601 22.681 34.962ZM28.648 31.341C29.781 29.808 29.479 29.072 27.718 29.072 26.258 29.072 25.591 28.41 26.644 28.006 28.624 27.246 30.834 28.356 30.834 30.109 30.834 31.041 29.281 32.635 28.373 32.635 27.824 32.635 27.878 32.382 28.648 31.341ZM11.54 23.878C11 23.338 11.231 22.838 12.022 22.836 12.451 22.835 13.552 22.625 14.472 22.37 15.821 21.995 16.141 21.697 16.141 20.814 16.141 19.839 15.952 19.722 14.386 19.722 12.137 19.722 11.861 19.226 13.369 17.894 14.482 16.91 14.51 16.905 13.731 17.829 13.095 18.584 13.041 18.829 13.511 18.825 16.179 18.799 17.353 16.775 14.744 16.701 12.545 16.638 12.273 15.877 14.332 15.548 15.767 15.318 16.141 15.069 16.141 14.343 16.141 13.664 15.934 13.493 15.338 13.683 14.897 13.823 14.146 13.643 13.668 13.282 12.848 12.661 12.879 12.625 14.263 12.612 15.067 12.604 16.393 12.318 17.208 11.977 18.094 11.607 18.939 11.51 19.305 11.737 20.038 12.189 19.46 12.88 18.15 13.116 17.663 13.204 17.192 13.653 17.103 14.114 16.964 14.834 17.137 14.914 18.323 14.677 19.13 14.515 19.703 14.586 19.703 14.846 19.703 15.091 19.102 15.412 18.367 15.558 17.345 15.763 17.032 16.068 17.032 16.855 17.032 17.691 17.304 17.91 18.479 18.024 19.955 18.166 20.504 19.232 19.307 19.631 18.911 19.763 18.808 19.643 19.023 19.297 19.256 18.919 19.04 18.801 18.305 18.905 17.521 19.016 17.255 19.335 17.255 20.167 17.255 21.1 17.465 21.28 18.551 21.28 19.264 21.28 19.932 21.53 20.035 21.837 20.138 22.143 19.9 22.393 19.506 22.393 19.113 22.393 17.65 22.794 16.256 23.283 13.653 24.199 12.062 24.399 11.54 23.878ZM22.39 23.313C21.786 22.184 21.802 18.131 22.423 15.239 22.779 13.579 22.781 12.644 22.433 11.878 22.117 11.186 22.105 10.816 22.398 10.816 22.876 10.816 23.258 11.568 23.452 12.885 23.548 13.54 23.929 13.665 25.532 13.57 26.984 13.483 27.322 13.572 26.827 13.909 26.46 14.159 25.523 14.368 24.744 14.372 23.384 14.378 23.308 14.478 22.811 16.873 22.526 18.245 22.421 20.055 22.579 20.895L22.866 22.422 24.016 21.517C24.649 21.019 25.44 20.612 25.774 20.612 26.626 20.612 26.534 20.162 25.441 19 24.574 18.078 24.566 18.015 25.339 18.217 25.894 18.362 26.814 17.85 28.051 16.709 29.328 15.529 30.068 15.125 30.379 15.436 31.236 16.294 30.835 16.981 29.165 17.515 26.653 18.317 26.619 18.57 28.833 19.969 30.815 21.223 31.688 22.709 31.047 23.745 30.84 24.081 30.067 23.605 28.804 22.367 26.896 20.494 26.867 20.484 25.719 21.236 25.082 21.654 24.337 22.486 24.064 23.085 23.465 24.399 23.005 24.461 22.39 23.313ZM27.948 14.05C28.129 13.618 28.378 12.804 28.499 12.24 28.715 11.246 28.652 11.224 26.327 11.496 23.435 11.834 24.168 11.009 27.161 10.556 28.294 10.385 29.054 10.033 29.054 9.679 29.054 8.742 28.543 8.656 26.047 9.173 24.443 9.505 23.565 9.513 23.25 9.198 22.936 8.884 23.65 8.48 25.527 7.911 27.979 7.169 28.385 7.151 29.437 7.741 30.084 8.101 30.673 8.82 30.748 9.336 30.923 10.54 29.201 14.226 28.304 14.571 27.786 14.77 27.699 14.642 27.948 14.05ZM13.398 9.742C14.907 8.172 16.141 6.568 16.141 6.18 16.141 5.791 16.434 5.473 16.793 5.473 17.49 5.473 18.503 6.97 18.088 7.385 17.951 7.522 18.459 7.955 19.216 8.346 19.974 8.738 20.594 9.354 20.594 9.715 20.594 10.708 19.536 10.502 18.394 9.285L17.373 8.2 14.504 10.398C12.926 11.608 11.414 12.598 11.146 12.598 10.876 12.598 11.891 11.312 13.399 9.742Z" fill="#030303"/>
</g>
</g>
</svg>
