<svg xmlns="http://www.w3.org/2000/svg" width="52.101" height="60">
<!--
Created by Hari Seldon and modified by orangain, licensed under Creative Commons Attribution-Share Alike 3.0 Unported.
See: https://creativecommons.org/licenses/by-sa/3.0/deed.en

Original file is available at: https://commons.wikimedia.org/wiki/File:Shogi_hisha(svg).svg
-->
<filter id="drop-shadow">
    <feGaussianBlur in="SourceAlpha" result="blur" stdDeviation="2" />
    <feOffset result="offsetBlur" dx="2" dy="2" />
    <feBlend in="SourceGraphic" in2="offsetBlur" mode="normal" />
</filter>
<g filter="url(#drop-shadow)" transform="translate(5 5)">
<g transform="rotate(180 21.0505 25)">
    <path d="M18.495 1.628c-3.456 0.929 -6.977 1.698 -10.327 2.948 -0.609 0.259 -0.384 1.123 -0.596 1.636 -2.415 14.123 -4.33 28.348 -6.626 42.488 -0.206 0.557 0.615 0.452 0.937 0.48 8.671 0.116 17.344 0.02 26.016 0.01 4.197 -0.052 8.399 0.036 12.592 -0.132 0.81 0.018 0.103 -1.093 0.187 -1.573 -2.01 -13.24 -3.891 -26.51 -6.066 -39.72 -0.253 -1.05 -0.266 -2.217 -0.749 -3.182 -1.952 -0.847 -4.093 -1.218 -6.133 -1.84 -2.23 -0.596 -4.46 -1.222 -6.702 -1.76l-2.533 0.645z" fill="#FEEC99"/>
    <path d="M19.904 45.79C19.757 44.898 19.634 43.608 19.632 42.922L19.627 41.675 17.22 41.958C15.896 42.114 14.123 42.529 13.28 42.882 10.848 43.898 8.125 43.719 6.867 42.462 5.139 40.734 5.475 40.417 8.722 40.708 12.722 41.067 12.978 40.831 12.312 37.41 12.018 35.902 11.379 34.02 10.894 33.228L10.01 31.788 12.12 31.908C16.48 32.155 19.21 31.891 19.478 31.195 19.873 30.165 19.474 30.062 17.33 30.635 15.713 31.068 15.148 31.057 14.25 30.576 12.305 29.536 12.921 28.948 16.149 28.766 17.799 28.673 19.288 28.457 19.458 28.287 19.628 28.117 19.499 27.443 19.171 26.788 18.843 26.134 18.504 25.453 18.417 25.275 18.228 24.887 20.566 24.841 21.535 25.213 21.94 25.369 22.218 25.983 22.218 26.725 22.218 28.036 23.077 28.374 24.354 27.565 25.273 26.985 27.371 28.235 27.394 29.378 27.398 29.556 26.138 29.702 24.594 29.702 22.026 29.702 21.786 29.779 21.786 30.612 21.786 31.337 21.985 31.476 22.758 31.292 24.891 30.786 28.654 30.494 29.518 30.768 30.022 30.928 30.743 31.656 31.12 32.387 31.763 33.629 31.752 33.816 30.947 35.272 30.473 36.127 29.955 37.449 29.794 38.208L29.502 39.588 31.784 39.719C33.767 39.834 34.154 40.009 34.729 41.049 35.727 42.856 34.866 43.084 30.506 42.167 28.442 41.733 25.636 41.374 24.27 41.37L21.786 41.362 21.786 42.716C21.786 44.306 20.922 47.409 20.479 47.409 20.31 47.409 20.051 46.679 19.904 45.789ZM18.764 39.635C19.257 39.316 19.085 39.215 18.043 39.21 16.238 39.2 15.308 38.816 15.308 38.077 15.308 37.7 15.779 37.475 16.568 37.475 17.992 37.475 19.195 37.098 19.195 36.652 19.195 36.488 18.56 36.427 17.783 36.518 16.766 36.637 16.148 36.438 15.576 35.805 14.788 34.935 14.801 34.924 16.988 34.634 18.202 34.473 19.195 34.149 19.195 33.915 19.195 33.552 14.513 33.832 14.107 34.219 14.041 34.283 14.231 35.625 14.53 37.201L15.073 40.067 16.594 40.06C17.431 40.057 18.407 39.865 18.764 39.635ZM27.83 36.629C28.109 34.976 28.212 33.421 28.06 33.174 27.761 32.692 23.6 32.553 22.47 32.987 21.066 33.526 21.804 34.093 23.529 33.802 25.409 33.484 26.536 34.031 26.538 35.261 26.538 35.82 26.081 35.964 24.309 35.964 22.819 35.964 22.014 36.158 21.882 36.549 21.736 36.982 21.951 37.057 22.707 36.839 23.27 36.676 24.055 36.453 24.452 36.343 25.236 36.126 27.082 37.808 26.712 38.405 26.588 38.606 25.429 38.771 24.136 38.771 22.844 38.771 21.786 38.965 21.786 39.203 21.786 39.446 22.997 39.635 24.555 39.635L27.323 39.635 27.83 36.629ZM18.133 23.336C16.813 21.913 16.731 21.341 17.899 21.712 18.713 21.97 18.763 21.789 18.763 18.632 18.763 15.046 18.47 14.934 17.315 18.075 16.553 20.15 15.145 21.715 12.873 23.011 11.018 24.07 10.136 23.646 10.208 21.731 10.269 20.101 10.505 19.889 11.334 20.717 12.004 21.389 13.889 20.042 15.048 18.062L15.868 16.662 14.094 17.568C12.092 18.588 11.149 18.678 9.398 18.008 8.225 17.561 8.212 17.523 9.02 16.928 9.482 16.59 10.272 16.313 10.778 16.313 11.283 16.313 12.703 16.014 13.934 15.649 16.174 14.984 16.656 14.29 15.808 12.953 15.527 12.511 15.205 12.532 14.195 13.059 13.501 13.421 12.35 13.717 11.637 13.718L10.342 13.718 11.637 12.918C13.752 11.612 14.582 10.442 14.271 9.205 14.048 8.312 14.152 8.107 14.833 8.107 16.846 8.107 17.673 9.457 16.648 11.074 16.404 11.459 16.538 11.929 17.033 12.424 17.45 12.841 17.886 13.449 18.003 13.776 18.336 14.716 18.815 13.946 19.068 12.066 19.313 10.234 18.479 7.676 17.636 7.676 17.036 7.676 14.876 6.009 14.876 5.545 14.876 5.358 16.011 5.101 17.398 4.975 18.784 4.85 20.535 4.428 21.288 4.039 22.961 3.174 24.596 3.769 24.244 5.117 24.046 5.874 24.101 5.888 24.947 5.296 26.03 4.537 27.658 4.453 28.078 5.133 28.51 5.83 27.425 6.366 25.565 6.373 24.065 6.379 23.945 6.473 23.945 7.64 23.945 9.812 24.328 10.267 26.151 10.267 27.545 10.267 27.833 10.119 27.833 9.403 27.833 8.403 27.823 8.4 26.313 8.974 24.773 9.56 24.134 9.092 25.066 8.063 25.949 7.087 28.251 7.108 28.596 8.095 28.722 8.458 29.223 9.197 29.708 9.735 30.516 10.634 30.533 10.775 29.902 11.405 28.882 12.425 25.032 12.328 23.576 11.245 22.642 10.55 22.41 9.991 22.304 8.172 22.232 6.949 22.093 5.948 21.994 5.948 21.896 5.948 21.128 6.276 20.287 6.678L18.758 7.406 20.106 7.973C21.438 8.533 21.451 8.567 21.164 10.858L20.874 13.177 22.518 13.126 24.162 13.074 24.024 15.068C23.76 18.88 25.402 20.974 28.329 20.56 29.269 20.427 29.335 20.245 29.219 18.113 29.139 16.603 29.25 15.906 29.544 16.087 29.79 16.24 29.992 16.629 29.992 16.953 29.992 17.277 30.492 18.138 31.105 18.865 31.717 19.592 32.152 20.525 32.073 20.939 31.742 22.656 27.833 23.345 25.04 22.178 23.18 21.4 22.218 19.557 22.218 16.767 22.218 15.049 22.07 14.586 21.522 14.586 20.929 14.586 20.844 15.112 20.942 18.149 21.129 23.885 21.043 24.519 20.076 24.519 19.611 24.519 18.736 23.986 18.133 23.336ZM25.997 17.751C24.986 17.476 25.04 16.867 26.105 16.529 27.226 16.174 28.791 16.675 28.578 17.322 28.398 17.872 27.186 18.073 25.998 17.751ZM24.81 15.081C24.81 14.457 26.57 13.291 27.51 13.291 28.208 13.291 29.052 14.395 28.642 14.771 28.169 15.205 24.81 15.476 24.81 15.081Z" fill="#cfcfcf"/>
    <path d="M20.365 47.122C20.194 46.845 19.933 45.469 19.786 44.064L19.519 41.51 17.265 41.864C16.025 42.058 14.179 42.511 13.162 42.869 10.322 43.871 8.127 43.722 6.844 42.439 6.248 41.843 5.872 41.174 6.009 40.953 6.149 40.726 7.572 40.661 9.261 40.803 11.805 41.016 12.307 40.945 12.539 40.34 12.929 39.323 11.877 34.146 11.159 33.55 10.829 33.276 10.557 32.783 10.557 32.456 10.557 31.746 12.341 31.658 13.016 32.333 13.357 32.674 13.732 32.674 14.37 32.333 14.855 32.073 16.236 31.861 17.44 31.861 19.339 31.861 19.627 31.747 19.627 30.997 19.627 30 19.264 29.949 16.997 30.627 15.61 31.044 15.17 31.007 14.234 30.393 12.668 29.367 13.25 28.838 15.946 28.838 17.219 28.838 18.568 28.72 18.944 28.576 19.808 28.244 19.828 26.951 18.979 26.246 17.946 25.389 18.22 24.951 19.79 24.951 21.488 24.951 22.422 25.854 22.08 27.163 21.852 28.032 21.952 28.069 23.828 27.812 25.355 27.602 26.002 27.705 26.609 28.255 27.913 29.435 27.541 29.702 24.594 29.702 22.074 29.702 21.786 29.79 21.786 30.565 21.786 31.57 21.911 31.583 25.536 30.952 29.11 30.33 30.081 30.613 31.004 32.549 31.653 33.909 31.674 34.224 31.151 34.829 30.505 35.579 29.561 38.087 29.561 39.052 29.561 39.454 30.154 39.635 31.472 39.635 33.024 39.635 33.553 39.85 34.28 40.773 34.772 41.399 35.175 42.079 35.175 42.284 35.175 42.854 32.905 42.731 30.138 42.01 28.77 41.654 26.332 41.362 24.718 41.362L21.786 41.362 21.753 42.766C21.707 44.735 20.749 47.74 20.365 47.122ZM19.195 39.635C19.195 39.397 18.539 39.203 17.736 39.203 16.167 39.203 14.716 38.088 15.799 37.715 16.123 37.604 16.956 37.455 17.65 37.386 18.344 37.316 18.992 37.018 19.089 36.724 19.215 36.339 18.889 36.263 17.935 36.454 16.665 36.707 15.308 36.106 15.308 35.29 15.308 35.096 16.183 34.806 17.252 34.646 18.557 34.45 19.195 34.143 19.195 33.709 19.195 33.34 18.942 33.162 18.602 33.292 18.277 33.417 17.11 33.654 16.012 33.819 13.782 34.153 13.812 34.079 14.531 37.557L15.049 40.067 17.122 40.067C18.262 40.067 19.195 39.872 19.195 39.635ZM27.671 38.015C27.841 37.125 27.995 35.618 28.014 34.668L28.049 32.941 25.061 32.941C22.929 32.941 22.018 33.109 21.879 33.527 21.725 33.989 22.064 34.049 23.477 33.811 25.353 33.494 26.537 34.013 26.537 35.153 26.537 35.586 25.891 35.748 24.162 35.748 22.33 35.748 21.786 35.898 21.786 36.401 21.786 36.921 22.138 36.998 23.512 36.778 25.346 36.485 26.537 37.056 26.537 38.23 26.537 38.707 26.222 38.817 25.349 38.645 23.914 38.362 21.786 38.725 21.786 39.253 21.786 39.463 23.041 39.635 24.574 39.635L27.362 39.635 27.671 38.015ZM18.717 23.779C17.037 21.755 17 21.643 18.017 21.679 18.917 21.709 18.987 21.506 19.107 18.539 19.202 16.182 19.098 15.409 18.706 15.541 18.059 15.756 17.596 16.59 17.277 18.116 16.933 19.762 15.232 21.619 12.968 22.82 11.563 23.565 10.885 23.724 10.548 23.386 9.883 22.722 10.496 20.516 11.264 20.811 12.251 21.189 13.974 20.148 14.936 18.591 15.432 17.789 15.766 17.06 15.679 16.972 15.591 16.884 14.743 17.179 13.794 17.628 11.711 18.613 10.566 18.674 9.453 17.86 8.357 17.06 8.643 16.839 11.454 16.315 15.784 15.509 16.884 14.649 15.791 12.925 15.487 12.445 15.191 12.465 14.091 13.034 13.359 13.412 12.326 13.722 11.797 13.722 10.962 13.722 11.079 13.512 12.679 12.142 14.273 10.778 14.491 10.391 14.274 9.307 14.044 8.153 14.114 8.062 15.162 8.187 16.722 8.374 17.42 9.553 16.676 10.743 16.183 11.533 16.221 11.76 16.959 12.448 17.428 12.885 17.891 13.481 17.989 13.774 18.086 14.067 18.398 14.164 18.681 13.989 19.303 13.604 19.373 9.564 18.763 9.187 18.031 8.735 18.286 7.676 19.128 7.676 20.634 7.676 21.385 9.061 21.081 11.276L20.805 13.292 22.107 13.032C23.759 12.702 24.006 13.116 24.092 16.372 24.177 19.542 25.258 20.759 27.799 20.546 29.341 20.416 29.344 20.411 29.317 18.365 29.302 17.237 29.347 16.313 29.417 16.313 29.486 16.313 29.939 17.091 30.424 18.041 30.909 18.991 31.496 19.768 31.728 19.768 31.961 19.768 32.151 20.167 32.151 20.654 32.151 21.671 29.895 22.807 27.955 22.767 24.297 22.693 22.218 20.474 22.218 16.644 22.218 15.123 22.053 14.586 21.585 14.586 21.072 14.586 20.927 15.516 20.829 19.439 20.729 23.431 20.587 24.316 20.032 24.422 19.662 24.493 19.07 24.204 18.717 23.779ZM25.997 17.751C24.921 17.459 25.063 16.884 26.287 16.577 27.554 16.258 28.792 16.671 28.573 17.338 28.397 17.874 27.173 18.07 25.997 17.751ZM24.81 15.048C24.81 14.39 27.245 13.258 28.021 13.555 28.737 13.83 28.912 14.412 28.373 14.72 27.527 15.202 24.81 15.452 24.81 15.048ZM23.361 10.935C22.448 10.089 22.218 9.482 22.218 7.912 22.218 6.832 22.023 5.948 21.785 5.948 21.546 5.948 20.626 6.337 19.74 6.812 17.728 7.89 17.421 7.888 16.014 6.781 14.42 5.527 14.584 5.2 16.83 5.155 17.905 5.133 19.685 4.717 20.785 4.231 22.672 3.396 22.832 3.387 23.597 4.08 24.043 4.484 24.317 5.05 24.207 5.34 24.06 5.72 24.326 5.699 25.163 5.262 26.793 4.412 27.929 4.476 27.753 5.408 27.649 5.957 27.116 6.2 25.815 6.295 23.824 6.441 23.406 6.99 23.895 8.827 24.175 9.887 24.457 10.069 25.987 10.182 27.673 10.307 27.768 10.247 28.067 8.886 28.38 7.466 28.383 7.465 28.771 8.54 28.986 9.133 29.494 9.874 29.901 10.186 30.593 10.716 30.587 10.792 29.801 11.373 29.327 11.725 27.996 11.995 26.733 11.995 24.965 11.995 24.267 11.775 23.361 10.935ZM25.181 8.093C26.325 7.14 27.204 7.009 27.647 7.724 28.053 8.381 27.02 8.96 25.457 8.95L24.162 8.943 25.182 8.093Z" fill="#b0b0b0"/>
    <path d="M19.904 45.357C19.757 44.467 19.634 43.216 19.632 42.577 19.627 41.48 19.539 41.43 18.007 41.669 17.117 41.808 15.417 42.204 14.228 42.549 10.388 43.669 8.311 43.704 7.21 42.672 5.52 41.087 5.928 40.529 8.576 40.802 9.861 40.935 11.391 40.923 11.976 40.777L13.038 40.51 12.401 37.373C12.051 35.648 11.492 33.93 11.161 33.555 10.143 32.405 10.409 31.723 11.745 32.055 12.974 32.359 13.745 32.369 15.956 32.113 16.669 32.03 17.786 31.94 18.439 31.912 19.322 31.874 19.627 31.639 19.627 30.997 19.627 30 19.264 29.949 16.997 30.627 15.61 31.044 15.17 31.007 14.234 30.393 12.646 29.353 13.201 28.924 16.142 28.924 17.552 28.924 18.913 28.796 19.166 28.64 19.826 28.232 19.734 26.848 19 26.113 18.216 25.329 18.567 24.951 20.078 24.951 21.613 24.951 22.332 25.859 21.962 27.333 21.71 28.338 21.782 28.468 22.483 28.258 25.121 27.471 25.732 27.462 26.544 28.197 27.78 29.315 27.218 29.702 24.352 29.702 22.074 29.702 21.786 29.799 21.786 30.565 21.786 31.575 22.08 31.598 26.062 30.915 29.399 30.343 29.946 30.548 31.112 32.803 31.687 33.914 31.667 34.13 30.891 35.21 30.422 35.862 29.909 37.125 29.751 38.015L29.464 39.635 31.424 39.635C33.034 39.635 33.547 39.841 34.292 40.789 35.645 42.509 34.872 42.968 31.825 42.255 30.461 41.935 27.669 41.585 25.62 41.477L21.897 41.281 21.601 43.373C21.033 47.393 20.369 48.17 19.904 45.357ZM19.114 39.818C20.089 39.514 19.271 38.876 18.174 39.086 16.972 39.316 15.163 38.492 15.537 37.886 15.677 37.66 16.557 37.476 17.493 37.476 18.705 37.476 19.195 37.292 19.195 36.838 19.195 36.361 18.871 36.266 17.901 36.46 16.679 36.705 15.308 36.096 15.308 35.31 15.308 35.127 16.215 34.81 17.324 34.607 18.433 34.403 19.428 33.972 19.535 33.65 19.691 33.182 19.348 33.133 17.843 33.408 16.805 33.598 15.519 33.765 14.984 33.779 13.859 33.809 13.838 33.986 14.533 37.649L15.053 40.393 16.8 40.194C17.761 40.085 18.803 39.916 19.114 39.818ZM27.589 38.663C28.596 33.881 28.61 33.577 27.843 33.038 26.715 32.247 21.786 32.596 21.786 33.468 21.786 33.992 22.12 34.079 23.359 33.878 25.109 33.594 26.537 34.15 26.537 35.115 26.537 35.595 25.96 35.748 24.162 35.748 22.28 35.748 21.786 35.89 21.786 36.434 21.786 36.996 22.101 37.066 23.529 36.825 25.362 36.515 26.537 37.051 26.537 38.195 26.537 38.661 26.179 38.743 25.063 38.534 23.461 38.234 21.786 38.59 21.786 39.232 21.786 39.454 23.046 39.635 24.586 39.635 27.139 39.635 27.402 39.55 27.589 38.663ZM18.337 23.353L17.381 22.143 18.288 22.006C19.117 21.88 19.195 21.587 19.195 18.627 19.195 15.784 19.103 15.404 18.445 15.531 17.965 15.623 17.607 16.227 17.445 17.22 17.1 19.348 15.674 21.2 13.318 22.58 11.638 23.564 11.236 23.655 10.739 23.159 9.909 22.329 10.412 20.675 11.414 20.937 11.844 21.05 12.712 20.804 13.343 20.391 14.476 19.649 15.996 17.289 15.598 16.891 15.485 16.778 14.565 17.107 13.555 17.622 12.133 18.347 11.425 18.475 10.416 18.186 8.242 17.562 8.614 16.9 11.453 16.342 15.35 15.575 16.231 15.082 16.081 13.752 15.918 12.305 16.698 11.932 17.251 13.193 17.488 13.733 17.974 14.121 18.331 14.053 19.177 13.893 19.447 10.465 18.719 9.106 18.001 7.763 18.557 7.338 19.975 8.146 21.038 8.751 21.127 9.001 21 11.044L20.862 13.281 22.135 13.026C23.756 12.702 24.006 13.129 24.092 16.373 24.177 19.542 25.258 20.759 27.799 20.546 29.279 20.422 29.355 20.333 29.603 18.473 29.746 17.403 29.892 16.841 29.927 17.222 29.963 17.603 30.488 18.45 31.094 19.104 31.701 19.758 32.135 20.613 32.06 21.003 31.865 22.019 28.898 22.875 26.709 22.546 23.606 22.081 22.219 20.15 22.219 16.299 22.219 14.614 22.089 14.231 21.584 14.424 21.09 14.614 20.924 15.728 20.828 19.48 20.726 23.533 20.595 24.314 20 24.428 19.61 24.503 18.863 24.019 18.337 23.354ZM26.213 17.736C24.91 17.486 24.983 16.904 26.363 16.558 27.525 16.266 28.872 16.976 28.45 17.658 28.208 18.051 27.901 18.061 26.213 17.736ZM24.998 14.974C24.693 14.479 26.281 13.722 27.624 13.722 29.334 13.722 28.708 14.75 26.81 15.059 25.931 15.202 25.116 15.163 24.998 14.974ZM12.193 12.798C13.778 11.784 15.131 9.612 14.443 9.186 13.673 8.711 13.988 8.108 15.006 8.108 16.165 8.108 17.036 8.851 17.036 9.841 17.036 11.278 13.526 13.735 11.501 13.715 11.032 13.71 11.279 13.384 12.193 12.798ZM24.162 11.496C22.718 10.706 22.218 9.758 22.218 7.809 22.218 6.786 22.029 5.949 21.798 5.949 21.567 5.949 20.498 6.375 19.424 6.897L17.47 7.847 16.309 6.979C14.529 5.65 14.686 5.31 17.136 5.189 18.376 5.129 20.118 4.718 21.009 4.277 22.402 3.588 22.746 3.559 23.469 4.064 24.193 4.572 24.249 4.867 23.877 6.214 23.074 9.121 24.227 10.856 26.654 10.392 27.464 10.237 27.928 9.82 28.114 9.082 28.364 8.082 28.418 8.062 28.811 8.809 29.044 9.255 29.551 9.874 29.938 10.186 30.58 10.704 30.568 10.806 29.802 11.373 28.819 12.101 25.404 12.176 24.162 11.496ZM24.378 8.766C24.378 8.652 24.836 8.259 25.396 7.892 26.632 7.082 28.126 7.449 27.359 8.374 26.907 8.918 24.378 9.25 24.378 8.765ZM24.378 6.001C24.378 5.791 24.971 5.375 25.698 5.075 26.715 4.653 27.134 4.645 27.529 5.04 27.924 5.435 27.894 5.646 27.397 5.96 26.582 6.475 24.377 6.505 24.377 6Z" fill="#8f8f8f"/>
    <path d="M20.398 46.742C20.228 46.571 19.96 45.292 19.803 43.9L19.516 41.37 17.736 41.642C16.757 41.791 14.79 42.272 13.365 42.712 11.939 43.152 10.265 43.513 9.644 43.516 8.502 43.522 6.239 42.069 6.239 41.331 6.239 41.111 7.685 40.931 9.452 40.931 11.22 40.931 12.76 40.779 12.874 40.593 13.23 40.017 11.865 34.318 11.194 33.576 10.14 32.412 10.394 31.718 11.745 32.063 13.137 32.419 15.227 32.418 17.791 32.063 19.278 31.856 19.627 31.638 19.627 30.914 19.627 30.112 19.461 30.054 18.007 30.342 15.572 30.825 14.417 30.724 13.654 29.96 13.274 29.58 13.151 29.256 13.38 29.238 13.61 29.221 14.9 29.144 16.249 29.068 17.597 28.99 18.909 28.798 19.164 28.641 19.825 28.232 19.736 26.849 19 26.113 18.216 25.329 18.567 24.951 20.078 24.951 21.591 24.951 22.331 25.861 21.974 27.285 21.654 28.563 21.731 28.587 23.99 27.91 25.781 27.373 26.969 27.87 26.969 29.155 26.969 29.654 26.636 29.735 25.483 29.519 23.408 29.129 21.786 29.609 21.786 30.612 21.786 31.58 22.824 31.661 26.134 30.951 28.835 30.371 30.085 30.817 31.063 32.708 31.701 33.942 31.688 34.098 30.856 35.224 30.368 35.884 29.851 37.147 29.708 38.03L29.448 39.635 31.416 39.635C33.025 39.635 33.546 39.841 34.274 40.765 35.838 42.755 34.785 43.108 30.57 42.01 29.202 41.654 26.675 41.362 24.954 41.362L21.826 41.362 21.57 42.982C21.138 45.728 20.72 47.067 20.398 46.742ZM19.088 39.828C20.259 39.468 19.604 38.708 18.357 38.982 17.115 39.254 14.977 38.527 15.495 38.008 15.639 37.865 16.563 37.638 17.548 37.503 18.534 37.369 19.431 36.987 19.542 36.654 19.698 36.184 19.434 36.111 18.354 36.327 16.975 36.602 15.308 36.063 15.308 35.341 15.308 35.135 16.28 34.831 17.468 34.668 18.943 34.465 19.627 34.171 19.627 33.738 19.627 33.225 19.235 33.164 17.576 33.421 16.447 33.595 15.184 33.716 14.768 33.69 13.858 33.633 13.81 34.5 14.529 37.98L15.046 40.482 16.796 40.238C17.759 40.104 18.79 39.92 19.087 39.828ZM28.09 36.612C28.538 34.169 28.515 33.703 27.915 33.025 27.405 32.449 26.825 32.305 25.693 32.469 24.851 32.592 23.627 32.699 22.974 32.709 22.171 32.719 21.786 32.953 21.786 33.428 21.786 34.004 22.092 34.082 23.483 33.86 24.727 33.66 25.36 33.77 25.858 34.267 27.008 35.417 26.63 35.748 24.162 35.748 22.28 35.748 21.786 35.89 21.786 36.434 21.786 36.996 22.101 37.066 23.529 36.825 25.333 36.52 26.537 37.048 26.537 38.145 26.537 38.57 25.953 38.648 24.162 38.464 22.125 38.254 21.786 38.322 21.786 38.946 21.786 39.569 22.204 39.656 24.681 39.546L27.576 39.419 28.09 36.612ZM18.51 23.364C17.406 22.176 17.4 22.14 18.285 22.006 19.123 21.879 19.195 21.594 19.195 18.428 19.195 15.121 19.161 15.005 18.331 15.45 17.856 15.704 17.468 16.301 17.468 16.778 17.468 18.442 15.799 20.852 13.645 22.298 11.245 23.908 10.557 23.808 10.557 21.849 10.557 20.811 10.679 20.627 11.12 20.993 11.534 21.337 12.042 21.243 13.043 20.633 14.327 19.853 16.044 17.337 15.598 16.891 15.485 16.778 14.565 17.107 13.555 17.622 12.133 18.347 11.425 18.475 10.416 18.186 8.306 17.58 8.633 16.935 11.303 16.43 15.566 15.624 16.298 15.206 16.076 13.697 15.926 12.678 16.035 12.42 16.568 12.521 16.944 12.593 17.314 13.086 17.39 13.618 17.505 14.428 17.662 14.512 18.361 14.138 18.997 13.798 19.195 13.226 19.195 11.735 19.195 10.659 18.985 9.385 18.728 8.906 18.076 7.686 18.602 7.364 19.975 8.142 21.048 8.749 21.127 8.98 20.985 11.103 20.838 13.338 20.863 13.399 21.853 13.15 23.434 12.754 23.819 13.293 24.024 16.19 24.268 19.629 25.094 20.632 27.684 20.632L29.56 20.632 29.577 18.581 29.594 16.529 30.207 17.939C30.544 18.715 31.119 19.465 31.486 19.605 32.465 19.981 32.296 21.388 31.201 21.975 29.761 22.745 25.901 22.609 24.576 21.74 23.135 20.796 22.218 18.613 22.218 16.125 22.218 14.593 22.084 14.233 21.584 14.425 21.09 14.614 20.924 15.725 20.828 19.45 20.693 24.775 20.355 25.346 18.511 23.364ZM26.645 17.706C25.397 17.504 25.396 16.918 26.642 16.593 27.737 16.306 29.217 17.343 28.19 17.677 27.875 17.78 27.18 17.793 26.645 17.707ZM25.457 14.356C26.378 13.641 28.48 13.65 28.48 14.37 28.48 14.607 27.606 14.852 26.537 14.914 24.706 15.02 24.643 14.988 25.457 14.356ZM12.382 12.68C14.332 11.306 15.166 9.952 14.484 9.27 13.734 8.52 13.931 8.108 15.039 8.108 15.604 8.108 16.323 8.418 16.638 8.797 17.787 10.181 15.17 13.037 12.285 13.547L10.773 13.815 12.383 12.68ZM24.162 11.473C22.737 10.656 22.246 9.717 22.232 7.783 22.224 6.774 22.045 5.948 21.834 5.948 21.622 5.948 20.632 6.314 19.634 6.761 17.617 7.664 16.591 7.559 15.485 6.337 14.77 5.547 14.794 5.517 16.119 5.517 16.876 5.517 18.681 5.117 20.13 4.629 23.7 3.426 24.117 3.644 23.757 6.527 23.52 8.422 23.614 8.999 24.295 9.84 25.019 10.734 25.297 10.808 26.567 10.444 27.552 10.161 28.11 9.687 28.313 8.96 28.476 8.372 28.63 8.135 28.653 8.432 28.677 8.728 29.078 9.353 29.545 9.82 30.308 10.583 30.326 10.735 29.73 11.331 28.942 12.119 25.444 12.208 24.162 11.473ZM24.592 8.542C25.095 7.728 26.348 7.292 26.992 7.706 27.534 8.055 27.532 8.164 26.969 8.533 26.121 9.09 24.249 9.097 24.592 8.542ZM24.378 6.057C24.378 5.308 26.942 4.453 27.504 5.015 28.155 5.666 27.811 5.936 25.943 6.239 25.01 6.391 24.378 6.317 24.378 6.057Z" fill="#6f6f6f"/>
    <path d="M20.362 46.682C20.242 46.488 20.005 45.203 19.834 43.827L19.523 41.325 17.523 41.61C16.423 41.767 14.462 42.261 13.163 42.708 11.866 43.156 10.288 43.522 9.659 43.522 8.503 43.522 6.239 42.072 6.239 41.332 6.239 41.111 7.685 40.931 9.452 40.931 11.22 40.931 12.765 40.771 12.885 40.575 13.248 39.988 11.965 34.592 11.175 33.387 10.279 32.02 10.564 31.647 12.157 32.102 13.412 32.46 16.384 32.423 18.439 32.023 19.274 31.861 19.627 31.529 19.627 30.906 19.627 30.116 19.454 30.054 18.007 30.331 15.68 30.778 14.345 30.651 13.608 29.915 13.037 29.343 13.158 29.269 14.676 29.265 15.617 29.262 17.135 29.137 18.047 28.986 19.547 28.738 19.687 28.604 19.512 27.587 19.405 26.969 19.172 26.122 18.994 25.707 18.743 25.12 18.88 24.951 19.609 24.951 21.4 24.951 22.217 25.712 21.936 27.119 21.65 28.547 22.361 28.822 24.029 27.929 25.127 27.342 26.969 28.053 26.969 29.064 26.969 29.604 26.662 29.684 25.46 29.458 23.331 29.058 21.786 29.528 21.786 30.574 21.786 31.594 23.146 31.698 26.476 30.929 28.333 30.501 28.798 30.532 29.742 31.151 31.319 32.184 31.544 33.65 30.468 35.873 29.18 38.533 29.272 39.503 30.845 39.849 31.552 40.004 32.298 40.027 32.502 39.901 33.115 39.522 34.742 40.916 34.742 41.819 34.742 42.837 34.146 42.863 30.787 41.992 29.239 41.592 26.899 41.377 24.895 41.452L21.57 41.578 21.302 44.078C21.032 46.59 20.762 47.336 20.362 46.682ZM18.602 40.067C19.222 40.067 19.627 39.813 19.627 39.422 19.627 38.946 19.172 38.795 17.884 38.846 15.444 38.941 14.668 38.056 16.871 37.688 19.24 37.293 19.627 37.136 19.627 36.576 19.627 36.263 19.114 36.16 18.223 36.296 16.81 36.51 15.308 36.026 15.308 35.356 15.308 35.158 16.28 34.866 17.468 34.709 19.038 34.501 19.627 34.234 19.627 33.733 19.627 33.177 19.314 33.095 18.007 33.311 17.117 33.459 15.853 33.581 15.2 33.584 13.808 33.589 13.73 34.113 14.538 38.024 15.054 40.52 15.088 40.564 16.32 40.318 17.01 40.18 18.037 40.067 18.601 40.067ZM28.152 36.75C28.692 33.594 28.558 32.876 27.356 32.495 25.879 32.026 21.786 32.749 21.786 33.479 21.786 33.992 22.155 34.085 23.487 33.906 24.759 33.736 25.359 33.866 25.863 34.423 26.893 35.563 26.727 35.695 24.088 35.834 22.458 35.921 21.572 36.167 21.438 36.57 21.277 37.06 21.638 37.122 23.303 36.894 25.388 36.608 26.537 37.038 26.537 38.104 26.537 38.472 25.85 38.569 24.217 38.434 22.78 38.314 21.785 38.424 21.601 38.722 21.037 39.634 21.711 39.85 24.685 39.711L27.668 39.571 28.151 36.751ZM18.511 23.364C17.406 22.176 17.4 22.14 18.285 22.006 19.123 21.879 19.195 21.594 19.195 18.428 19.195 15.121 19.161 15.005 18.331 15.45 17.856 15.704 17.468 16.307 17.468 16.789 17.468 19.204 13.569 23.223 11.227 23.223 10.765 23.223 10.557 22.805 10.557 21.875 10.557 20.815 10.678 20.627 11.12 20.993 11.912 21.65 14.206 20.186 15.103 18.452 15.488 17.707 15.723 17.015 15.623 16.916 15.523 16.816 14.573 17.119 13.513 17.588 12.127 18.201 11.226 18.346 10.315 18.102 8.355 17.578 8.8 17.01 11.605 16.456 15.592 15.669 16.301 15.231 16.075 13.692 15.927 12.678 16.035 12.42 16.568 12.522 16.944 12.592 17.314 13.087 17.39 13.619 17.543 14.691 17.547 14.694 18.512 14.324 19.027 14.126 19.195 13.441 19.195 11.542 19.195 10.156 18.998 8.9 18.756 8.752 18.068 8.326 18.706 7.684 19.533 7.971 20.871 8.435 21.235 9.327 21.016 11.606 20.812 13.732 20.838 13.798 21.696 13.339 23.336 12.46 23.946 13.145 23.946 15.869 23.946 18.715 24.921 20.388 26.786 20.744 28.926 21.154 29.559 20.7 29.573 18.746 29.585 17.206 29.652 17.08 30.064 17.825 30.327 18.3 30.91 19.095 31.359 19.593 32.96 21.366 31.619 22.343 27.567 22.353 23.942 22.363 22.227 20.241 22.221 15.738 22.219 14.606 22.047 14.138 21.678 14.261 21.307 14.384 21.071 15.963 20.923 19.337 20.683 24.773 20.346 25.336 18.511 23.364ZM25.673 17.228C25.673 16.763 26.981 16.386 27.725 16.636 28.749 16.98 28.261 17.609 26.969 17.609 26.256 17.609 25.673 17.437 25.673 17.228ZM25.483 14.384C26.423 13.674 28.088 13.519 28.453 14.109 28.765 14.614 27.67 15.018 25.987 15.018 24.714 15.018 24.687 14.985 25.483 14.384ZM12.153 12.877C14.123 11.677 15.14 10.025 14.433 9.175 14.134 8.814 14.005 8.403 14.147 8.261 14.583 7.825 16.627 8.528 16.886 9.204 17.277 10.224 15.824 11.998 13.871 12.885 11.511 13.956 10.392 13.951 12.154 12.877ZM24.81 11.69C23.155 11.085 22.218 9.684 22.218 7.816 22.218 5.781 21.85 5.572 20.058 6.596 18.539 7.465 16.872 7.388 15.68 6.395L14.66 5.545 16.078 5.531C16.858 5.523 18.681 5.117 20.13 4.629 23.666 3.437 24.105 3.653 23.728 6.394 23.254 9.836 24.934 11.587 27.429 10.252 27.889 10.006 28.265 9.494 28.265 9.114 28.265 8.616 28.506 8.73 29.128 9.521 29.603 10.125 29.992 10.809 29.992 11.041 29.992 11.836 26.43 12.282 24.81 11.69ZM25 8.31C25.926 7.61 27.4 7.457 27.4 8.061 27.4 8.551 26.31 8.975 25.098 8.958 24.182 8.944 24.18 8.93 25 8.31ZM24.573 5.981C25.083 5.156 27.04 4.551 27.55 5.061 28.143 5.654 27.91 5.817 25.935 6.185 24.675 6.421 24.333 6.369 24.573 5.981Z" fill="#4f4f4f"/>
    <path d="M20.353 46.113C20.227 45.757 19.997 44.523 19.843 43.37L19.561 41.274 17.601 41.568C16.522 41.73 14.471 42.236 13.042 42.692 11.614 43.148 10.011 43.522 9.48 43.522 8.487 43.522 6.239 42.022 6.239 41.359 6.239 41.155 7.689 41.015 9.459 41.049 11.231 41.083 12.799 40.992 12.945 40.847 13.386 40.405 12.234 35.196 11.351 33.642 10.369 31.913 10.531 31.619 12.155 32.176 13.304 32.569 15.093 32.529 18.223 32.041 19.34 31.867 19.627 31.617 19.627 30.821 19.627 29.863 19.549 29.839 17.737 30.254 15.755 30.707 13.581 30.414 13.581 29.694 13.581 29.46 14.334 29.27 15.254 29.27 16.174 29.27 17.535 29.148 18.277 29 19.405 28.774 19.627 28.53 19.627 27.514 19.627 26.844 19.429 26.176 19.188 26.026 18.556 25.636 19.106 24.951 20.053 24.951 21.277 24.951 22.136 26.048 21.897 27.301 21.661 28.537 22.456 28.771 24.029 27.93 25.076 27.37 26.969 28.035 26.969 28.964 26.969 29.402 26.345 29.496 24.378 29.354 21.791 29.166 21.786 29.168 21.786 30.359L21.786 31.552 24.486 31.212C28.543 30.698 29.636 30.789 30.298 31.695 31.306 33.073 31.448 34.424 30.673 35.28 30.278 35.716 29.838 36.796 29.694 37.681 29.384 39.587 29.886 40.051 32.269 40.061 33.584 40.066 33.992 40.275 34.39 41.148 34.661 41.743 34.761 42.352 34.613 42.5 34.463 42.65 33.08 42.454 31.538 42.067 29.996 41.679 27.074 41.362 25.045 41.362L21.355 41.362 21.325 43.198C21.288 45.39 20.711 47.121 20.353 46.113ZM18.871 40.072C19.287 40.069 19.627 39.775 19.627 39.419 19.627 38.939 19.123 38.771 17.684 38.771 15.171 38.771 15.171 38.046 17.684 37.669 20.213 37.289 20.304 36.279 17.825 36.097 15.917 35.957 14.91 34.889 16.675 34.878 18.405 34.868 19.627 34.378 19.627 33.695 19.627 33.163 19.248 33.091 17.623 33.314 16.521 33.465 15.148 33.589 14.571 33.589 13.784 33.589 13.572 33.777 13.723 34.344 13.833 34.76 14.169 36.335 14.468 37.844L15.014 40.589 16.564 40.333C17.417 40.192 18.455 40.074 18.871 40.072ZM26.071 39.635L27.657 39.635 28.151 36.751C28.87 32.555 28.53 32.103 24.902 32.441 22.319 32.683 21.11 33.276 21.597 34.063 21.698 34.228 22.452 34.211 23.272 34.026 24.326 33.789 25.022 33.872 25.65 34.312 26.838 35.144 26.787 35.914 25.565 35.595 24.012 35.188 21.355 35.766 21.355 36.51 21.355 37.032 21.735 37.109 23.278 36.897 24.772 36.693 25.369 36.8 25.95 37.379 26.66 38.084 26.575 38.13 24.35 38.256 21.864 38.396 21.055 38.8 21.574 39.641 21.769 39.956 22.392 40.054 23.188 39.894 23.902 39.752 25.199 39.634 26.071 39.634ZM18.517 23.371C17.407 22.178 17.4 22.14 18.285 22.006 19.121 21.879 19.195 21.593 19.195 18.483 19.195 15.379 19.128 15.116 18.381 15.312 17.827 15.456 17.48 16.062 17.298 17.203 17 19.061 15.023 21.607 13.106 22.598 11.19 23.588 10.557 23.408 10.557 21.875 10.557 20.791 10.672 20.621 11.142 21.011 12.276 21.952 16.627 17.92 15.592 16.886 15.406 16.699 14.666 16.882 13.95 17.293 12.561 18.09 10.29 18.268 9.324 17.656 8.562 17.173 9.043 16.916 11.421 16.531 12.491 16.358 14.018 15.948 14.818 15.619 16.1 15.091 16.248 14.866 16.078 13.706 15.927 12.679 16.034 12.419 16.568 12.521 16.944 12.593 17.314 13.087 17.39 13.619 17.543 14.691 17.547 14.694 18.512 14.324 19.352 14.001 19.484 9.434 18.677 8.626 18.274 8.223 18.414 8.108 19.309 8.108 20.842 8.108 21.4 9.23 20.922 11.351 20.469 13.356 20.698 13.873 21.782 13.293 23.252 12.505 23.916 13.183 23.825 15.381 23.705 18.251 24.575 20.056 26.359 20.645 28.68 21.411 29.558 20.898 29.573 18.768 29.585 17.212 29.653 17.081 30.064 17.825 30.327 18.3 30.953 19.143 31.454 19.697L32.367 20.706 31.347 21.533C30.657 22.093 29.655 22.36 28.245 22.36 24.04 22.36 22.605 20.958 22.508 16.758 22.448 14.121 22.36 13.961 21.222 14.398 20.699 14.598 20.626 15.422 20.812 19.048 21 22.741 20.925 23.548 20.348 24.027 19.758 24.516 19.494 24.421 18.518 23.371ZM25.673 17.177C25.673 16.94 26.256 16.745 26.969 16.745 27.682 16.745 28.265 16.94 28.265 17.177 28.265 17.415 27.682 17.609 26.969 17.609 26.256 17.609 25.673 17.415 25.673 17.177ZM25.863 14.377C26.879 13.584 28.407 13.507 28.159 14.262 28.062 14.559 27.317 14.854 26.504 14.917 25.109 15.027 25.073 14.997 25.864 14.377ZM12.612 12.642C14.461 11.135 15.088 9.962 14.453 9.198 13.837 8.456 14.555 7.948 15.704 8.312 18.274 9.128 16.074 12.462 12.285 13.493 11.29 13.764 11.315 13.697 12.612 12.642ZM24.511 11.559C23.057 10.973 22.131 9.236 22.28 7.374 22.426 5.552 22.019 5.428 19.758 6.607 18.326 7.354 17.287 7.409 16.144 6.797 14.784 6.069 15.174 5.653 17.467 5.381 18.655 5.241 20.305 4.803 21.135 4.41 23.495 3.29 23.983 3.734 23.672 6.713 23.459 8.751 23.549 9.377 24.14 9.967 25.378 11.205 28.265 10.607 28.265 9.114 28.265 8.635 28.553 8.79 29.205 9.619 30.117 10.779 30.121 10.832 29.338 11.404 28.438 12.063 25.958 12.142 24.511 11.559ZM25.051 8.337C25.981 7.634 27.401 7.464 27.401 8.057 27.401 8.446 25.962 8.955 24.835 8.966 24.393 8.97 24.455 8.787 25.051 8.337ZM25 5.719C25.913 5.028 27.833 4.854 27.833 5.462 27.833 5.67 27.225 5.962 26.483 6.11 24.449 6.517 24.075 6.418 25 5.719Z" fill="#2e2e2e"/>
    <path d="M20.328 45.88C20.18 45.494 20.056 44.563 20.052 43.81 20.038 40.954 19.092 40.816 12.551 42.715 9.18 43.695 7.56 43.456 6.704 41.855 6.274 41.052 6.402 41.015 9.448 41.079 11.205 41.116 12.781 41.009 12.948 40.842 13.448 40.344 12.268 34.762 11.403 33.529 10.459 32.184 10.692 31.769 12.094 32.302 12.653 32.515 14.139 32.587 15.397 32.463 19.331 32.075 19.627 31.953 19.627 30.727 19.627 29.851 19.467 29.67 18.891 29.892 17.003 30.616 14.621 30.652 14.051 29.964 13.535 29.343 13.696 29.269 15.579 29.264 18.826 29.254 19.627 28.921 19.627 27.578 19.627 26.941 19.416 26.208 19.157 25.95 18.484 25.277 19.333 24.86 20.687 25.2 21.595 25.428 21.787 25.732 21.787 26.941 21.787 28.134 21.952 28.406 22.679 28.406 23.169 28.406 23.963 28.196 24.442 27.94 25.125 27.574 25.492 27.635 26.142 28.223 26.596 28.635 26.969 29.087 26.97 29.229 26.97 29.37 25.755 29.486 24.27 29.486 21.678 29.486 21.57 29.529 21.57 30.566 21.57 31.388 21.776 31.623 22.434 31.553 22.909 31.502 24.785 31.329 26.604 31.17L29.909 30.88 30.648 32.308C31.324 33.616 31.329 33.834 30.708 34.886 30.334 35.518 29.85 36.833 29.631 37.808 29.173 39.845 29.425 40.067 32.196 40.067 33.593 40.067 33.986 40.261 34.39 41.148 34.661 41.743 34.757 42.356 34.603 42.51 34.449 42.664 33.106 42.463 31.618 42.064 30.13 41.664 27.261 41.295 25.244 41.242L21.574 41.146 21.304 43.646C21.009 46.366 20.746 46.969 20.328 45.88ZM18.008 40.221C20.384 39.829 20.148 38.771 17.684 38.771 15.173 38.771 15.173 38.091 17.684 37.714 19.104 37.501 19.627 37.226 19.628 36.694 19.628 36.138 19.241 35.964 18.008 35.964 16.286 35.964 15.364 35.201 16.82 34.981 19.035 34.646 19.627 34.386 19.627 33.746 19.627 33.152 19.223 33.099 16.712 33.365 15.108 33.535 13.726 33.741 13.64 33.824 13.554 33.906 13.81 35.442 14.21 37.236 14.993 40.759 14.952 40.726 18.007 40.221ZM25.506 39.794L27.713 39.529 28.247 36.545C28.911 32.825 28.586 32.293 25.649 32.293 23.125 32.293 21.354 32.908 21.354 33.786 21.354 34.307 21.737 34.383 23.292 34.17 24.569 33.995 25.452 34.09 25.883 34.447 26.822 35.227 26.689 35.854 25.655 35.527 24.24 35.077 21.355 35.724 21.355 36.49 21.355 37.023 21.739 37.113 23.281 36.939 24.799 36.768 25.362 36.893 25.939 37.53 26.647 38.313 26.583 38.34 24.013 38.34 21.643 38.34 21.354 38.433 21.354 39.203 21.354 40.161 21.857 40.233 25.506 39.794ZM18.614 23.297C17.763 22.357 17.698 21.887 18.439 22.036 18.829 22.114 19.014 21.138 19.105 18.528 19.217 15.338 19.149 14.943 18.53 15.18 18.144 15.328 17.748 15.45 17.648 15.45 17.548 15.45 17.468 15.846 17.468 16.33 17.468 17.903 15.759 20.613 13.936 21.934 11.543 23.667 10.557 23.64 10.557 21.841 10.557 20.767 10.673 20.575 11.076 20.978 11.802 21.704 12.042 21.645 13.563 20.365 14.91 19.232 16.416 16.845 16.03 16.459 15.916 16.346 15.035 16.655 14.072 17.147 12.209 18.097 10.318 18.286 9.274 17.626 8.539 17.161 8.274 17.268 12.914 16.15 16.172 15.365 16.705 14.925 16.309 13.345 16.118 12.585 16.207 12.365 16.651 12.512 16.981 12.621 17.314 13.132 17.39 13.648 17.543 14.689 17.55 14.693 18.512 14.324 19.352 14.001 19.484 9.434 18.677 8.626 18.274 8.223 18.346 8.109 19.001 8.114 20.731 8.128 21.053 8.721 20.731 11.299 20.481 13.308 20.541 13.722 21.082 13.722 21.442 13.722 21.844 13.546 21.977 13.331 22.11 13.116 22.624 13.045 23.119 13.175 23.881 13.374 23.978 13.633 23.749 14.855 23.292 17.285 24.199 19.697 25.865 20.492 26.745 20.912 27.75 21.07 28.435 20.898 29.425 20.65 29.561 20.396 29.563 18.788L29.565 16.961 30.22 18.216C30.58 18.906 31.21 19.72 31.62 20.025 32.308 20.535 32.312 20.635 31.671 21.287 30.828 22.143 28.026 22.573 25.896 22.174 23.731 21.767 22.654 19.92 22.652 16.607 22.65 14.248 22.59 14.102 21.678 14.232 20.741 14.365 20.712 14.507 20.848 18.199 21.058 23.846 20.423 25.296 18.614 23.297ZM26.105 17.177C26.105 16.94 26.591 16.745 27.185 16.745 27.779 16.745 28.265 16.94 28.265 17.177 28.265 17.415 27.779 17.609 27.185 17.609 26.591 17.609 26.105 17.415 26.105 17.177ZM25.864 14.357C26.787 13.658 28.264 13.503 28.264 14.104 28.264 14.502 26.788 15.012 25.674 14.998 25.182 14.992 25.227 14.838 25.864 14.356ZM13.551 11.81C14.692 10.632 14.929 10.102 14.707 9.218 14.397 7.986 14.755 7.824 15.914 8.672 17.071 9.517 16.621 11.161 14.92 12.304 12.642 13.835 11.86 13.554 13.55 11.81ZM24.482 11.372C22.815 10.621 22.091 9.012 22.482 6.927 22.75 5.495 22.714 5.437 21.735 5.74 21.17 5.915 20.182 6.325 19.54 6.65 17.949 7.46 16.875 7.395 16.007 6.437 15.304 5.66 15.357 5.622 17.373 5.427 18.526 5.317 20.122 4.901 20.92 4.503 21.718 4.105 22.72 3.89 23.149 4.026 23.822 4.24 23.892 4.609 23.668 6.755 23.459 8.75 23.552 9.379 24.14 9.967 25.455 11.282 28.256 10.797 28.278 9.249 28.291 8.339 28.298 8.338 28.781 9.187 29.05 9.662 29.48 10.189 29.736 10.357 30.511 10.867 29.402 11.612 27.561 11.818 26.614 11.925 25.279 11.731 24.482 11.372ZM25.186 8.398C25.83 7.614 27.401 7.408 27.401 8.108 27.401 8.345 27.255 8.542 27.077 8.545 26.899 8.548 26.267 8.68 25.673 8.836 24.703 9.092 24.654 9.047 25.186 8.398ZM25 5.764C25.931 5.009 27.833 4.843 27.833 5.516 27.833 5.754 27.493 5.951 27.077 5.954 26.661 5.957 25.835 6.069 25.241 6.202 24.199 6.436 24.191 6.421 25 5.764Z" fill="#010101"/>
</g>
</g>
</svg>
