<svg viewBox="0 0 60 60" xmlns="http://www.w3.org/2000/svg"><rect fill="#c9e7f1" height="40.824493" ry="2.487885" stroke="#000" stroke-linecap="square" stroke-width=".651029" transform="matrix(-1.10908789439 0 0 -1.10908789439 1.48878663933 421.25815944861)" width="40.824493" x="-46.119144" y="332.36246"/><g transform="matrix(-1.3015766 0 0 -1.3015766 -64.65841257652 383.27354667944)"><g transform="matrix(.7995724 0 0 .7995724 -14.704509 43.12269)"><path d="m-82.029658 291.05478c0-.63574.171155-1.27991-.216235-1.77241-.95346-1.21212-1.49173-3.37264-1.21189-4.86431.12674-.67556.84786-2.25201 1.6025-3.50323 1.56174-2.58939 1.64104-3.36681.66197-6.49014-.87835-2.80205-.89637-4.67622-.055-5.71531.50289-.62104.85708-.74486 1.59845-.55878 1.3189.33102 2.20038 1.95937 2.6309 4.86005.55144 3.71535 1.841 5.26657 3.2901 3.9577.40198-.36308 1.38325-1.85077 2.18061-3.30598 2.29234-4.18362 3.38411-4.96702 4.86222-3.48891.99837.99837.69678 2.866-.93357 5.78135-1.35599 2.42474-1.58989 4.43361-.66926 5.748.30399.434.77321 1.21411 1.04271 1.73358 6.819024 2.37044 9.535658 10.12196 1.592381 13.94895-5.176607 3.19665-15.624506.64954-16.375886-6.33056zm19.76857-2.71191c-.664696-1.74051-2.718667-3.19075-4.396549-3.67222-.629419-.18061-.0069 1.2288-.166986 2.4225-.2802 2.08905-1.67985 3.97993-3.66933 4.95715-2.35968 1.15907-6.475284 1.00832-8.629414-.12393-2.016156-1.51969-2.330703-1.40798-1.231157.97833 4.568974 8.91486 21.581789 4.30568 18.093436-4.56183zm-6.812015-5.94067c-1.34715-1.94394-1.22442-3.47741.56625-7.07516 1.44051-2.89423 1.71322-4.45647.82874-4.74761-.60057-.19769-1.45137.8879-3.31527 4.23016-.89248 1.60035-2.01472 3.13257-2.49389 3.40494-1.96046 1.11437-3.95437-.64222-4.35323-3.83512-.29834-2.38817-.83168-4.14729-1.44262-4.75823-1.52539-1.5254-1.90913.47237-.8618 4.48667.94933 3.63866.84344 4.76727-.67947 7.24232-2.11504 3.43738-2.09148 5.58805.0884 8.07082 6.394014 6.08156 16.369056-.64526 11.66289-7.01879z" stroke-width=".352778"/><g stroke="#000" stroke-linecap="square" stroke-width=".25"><circle cx="-72.471878" cy="284.83301" r=".818077"/><circle cx="-77.784454" cy="284.36978" r=".818077"/></g></g><g stroke="#000" stroke-linecap="square"><path d="m-74.19788 273.82254c0 .23389-.27335.56283-.741156.56283-.467805 0-.685385-.32336-.685385-.55726s.238787.21741.706593.21741c.330575.0457.715781-.45547.719948-.22293z" stroke-width=".3"/><circle cx="-63.596672" cy="271.77252" fill="#fbe3f0" r="1.261613" stroke-width=".75"/><path d="m-63.169632 12.589062c-.787232.143401-.596085 1.189048-.582803 1.766931.342487 2.908929.65789 5.932088-.367719 8.725869-5.964298 15.059954-28.134991 17.455297-37.740786 10.457994-1.1179-.752079-2.22465-1.635248-3.53867-2.003722-.70011-.07213-.90396.778844-.73344 1.310278.53734 2.267021 1.56652 4.398925 2.70719 6.420096 3.559124 5.975678 9.705603 10.14758 16.385749 11.874105 3.47659.939839 7.093487 1.318685 10.689856 1.131355 6.731944-.141281 13.442376-2.161502 19.089532-5.839163 4.595119-2.992382 8.364444-7.715065 9.145608-13.256735.507786-3.818381-.306274-7.800057-2.176048-11.158644-2.628137-4.472833-7.187746-7.50189-11.987184-9.236977-.289507-.08731-.585255-.192598-.891285-.191387z" fill="#fbe3f0" stroke-width=".11947" transform="matrix(.26458333 0 0 .26458333 -51.389145 267.35772)"/></g><path d="m-103.59734-34.177188c-1.80311.386738-1.5744 2.862897-1.66937 4.289841-.0465 8.274159 4.49411 16.105222 3.21301 24.4037789-1.343 6.36322408-6.333 11.2152736-7.75591 17.5738321-1.77234 5.945433 1.22447 12.189781 5.7373 16.042917 6.411411 5.90241 16.102161 7.877163 24.265313 4.729218 7.205921-2.509512 13.709021-9.216982 13.372364-17.24775-.07415-4.755775-3.108631-8.6324269-5.287505-12.5930397-1.245477-3.0154374-.947366-6.4678627-.288706-9.6268223 1.977241-6.957951 6.672527-13.040709 7.660996-20.312538.317932-1.507215-1.171858-3.722248-2.80073-2.676234-3.453802 2.767011-5.301534 7.012046-7.662781 10.658371-2.618742 4.107436-4.69922 8.769297-8.491931 11.9584596-2.782578 1.940326-6.996298 1.2415316-9.107617-1.4150072-4.120743-4.2489394-3.845711-10.6279194-5.230713-16.0487464-.899349-3.526612-1.692128-8.062749-5.43335-9.673999-.16892-.0461-.34488-.07385-.52037-.06228zm7.451632 43.2918834c2.773809.059231 3.511218 4.4645566.813148 5.2968186-1.957914.806329-4.39451-.934423-3.772964-3.111736.184818-1.4219101 1.581067-2.3317614 2.959816-2.1850826zm15.947496 1.4889286c2.427306-.09401 3.611492 3.264554 1.611748 4.68099-1.700001 1.872759-5.036667.01582-4.466791-2.421403.231681-1.349423 1.420746-2.573717 2.855043-2.259587zm-5.906825 13.142512c1.07836.868295-.291038 2.765557-1.406276 3.002887-1.718886.790886-4.062103.155018-4.513354-1.850392-.31061-.859164.579604-1.461866 1.31198-.887655 1.018106.67394 2.284417 1.000112 3.309057.129802.40904-.181619.83702-.419384 1.298593-.394642z" fill="#fbe3f0" transform="matrix(.26458333 0 0 .26458333 -51.389145 267.35772)"/></g><g stroke="#000"><g transform="matrix(-1.3015766 0 0 -1.3015766 -11.28147207765 404.83397953614)"><g transform="translate(35.367471 -9.150952)"><path d="m-55.140792 282.06198c-5.218697-.42975-3.884325 4.32087-3.965634 6.82707" fill="none" stroke-width=".5"/><circle cx="-55.140789" cy="282.06198" fill="#e95c35" r="1.274577" stroke-linecap="square" stroke-width=".340634"/></g><g transform="matrix(0 -1.0000005 -.99998664 0 265.41514 220.90055)"><path d="m-55.140792 282.06198c-5.218697-.42975-3.884325 4.32087-3.965634 6.82707" fill="none" stroke-width=".5"/><circle cx="-55.140789" cy="282.06198" fill="#e95c35" r="1.274577" stroke-linecap="square" stroke-width=".340634"/></g></g><g transform="matrix(0 -1.3015766 1.3015766 0 -356.7446290699 -57.31542723417)"><path d="m-55.140792 282.06198c-5.218697-.42975-3.884325 4.32087-3.965634 6.82707" fill="none" stroke-width=".5"/><circle cx="-55.140789" cy="282.06198" fill="#e95c35" r="1.274577" stroke-linecap="square" stroke-width=".340634"/></g><g transform="matrix(-1.30157725079 0 0 1.30155921094 -57.31497727185 -356.74009008911)"><path d="m-55.140792 282.06198c-5.218697-.42975-3.884325 4.32087-3.965634 6.82707" fill="none" stroke-width=".5"/><circle cx="-55.140789" cy="282.06198" fill="#e95c35" r="1.274577" stroke-linecap="square" stroke-width=".340634"/></g><g transform="matrix(1.3015766 0 0 1.3015766 117.31458885708 -356.7451193811)"><path d="m-55.140792 282.06198c-5.218697-.42975-3.884325 4.32087-3.965634 6.82707" fill="none" stroke-width=".5"/><circle cx="-55.140789" cy="282.06198" fill="#e95c35" r="1.274577" stroke-linecap="square" stroke-width=".340634"/></g><g transform="matrix(0 -1.30157725079 -1.30155921094 0 416.73925171203 -57.31546758304)"><path d="m-55.140792 282.06198c-5.218697-.42975-3.884325 4.32087-3.965634 6.82707" fill="none" stroke-width=".5"/><circle cx="-55.140789" cy="282.06198" fill="#e95c35" r="1.274577" stroke-linecap="square" stroke-width=".340634"/></g><g transform="matrix(0 1.3015766 -1.3015766 0 404.83347023651 71.28162550194)"><g transform="translate(35.367471 -9.150952)"><path d="m-55.140792 282.06198c-5.218697-.42975-3.884325 4.32087-3.965634 6.82707" fill="none" stroke-width=".5"/><circle cx="-55.140789" cy="282.06198" fill="#e95c35" r="1.274577" stroke-linecap="square" stroke-width=".340634"/></g><g transform="matrix(0 -1.0000005 -.99998664 0 265.41514 220.90055)"><path d="m-55.140792 282.06198c-5.218697-.42975-3.884325 4.32087-3.965634 6.82707" fill="none" stroke-width=".5"/><circle cx="-55.140789" cy="282.06198" fill="#e95c35" r="1.274577" stroke-linecap="square" stroke-width=".340634"/></g></g></g></svg>