<svg viewBox="0 0 60 60" xmlns="http://www.w3.org/2000/svg"><g transform="matrix(-1.0330559 0 0 -1.0330559 57.516177 59.897665)"><rect fill="#d7b5d6" height="43.82914" ry="2.670991" stroke="#000" stroke-linecap="square" stroke-width=".698944" width="43.82914" x="4.721139" y="7.026424"/><g transform="matrix(.18596187 0 0 .18596187 77.676057 -20.807683)"><path d="m-312.65013 373.40136c-1.85093-.1579-2.91447-.42442-3.32156-.83239-.50864-.50975-.66598-2.02398-1.04469-10.05417-1.58267-33.55938-3.31088-95.28498-3.31521-118.40819-.002-12.81813.0951-15.58274.74052-20.99028.81944-6.86597.82798-15.76085.0166-17.2521-.63664-1.17003-1.87618-.99627-4.57154.64086-3.90181 2.36992-8.00372 4.22203-9.82126 4.43454-2.15904.25243-3.50338-.65506-3.87067-2.61286-.9049-4.82351 3.38328-21.29494 7.14443-27.44269.70513-1.15255 1.80887-2.96867 2.45276-4.03582 1.63352-2.70733 2.74987-7.77018 2.47391-11.21963-.19215-2.40177-.14758-2.63512.65688-3.43958 1.09977-1.09977 1.97452-1.08757 4.07727.0569 1.59784.86965 1.74981 1.08361 2.78177 3.91643.60038 1.64809 1.0916 3.31836 1.0916 3.71171 0 .68408.14191.70479 3.26319.47609 4.50202-.32987 5.55625-.54682 5.55625-1.14341 0-1.43638 4.16187-7.05525 5.46873-7.38325 2.08607-.52357 3.72085 2.1852 3.98227 6.59846l.15912 2.68622 4.91114.17662c4.51602.16241 4.9809.24216 5.77827.99125.49302.46317.8638 1.20665.85939 1.72328-.02 2.33989-3.02181 6.55139-6.05387 8.49336l-1.92782 1.23472-.0213 4.05695c-.0154 2.92974-.34062 5.87027-1.17049 10.58333-1.13393 6.43989-1.14843 6.66199-1.09446 16.75695.0668 12.49427.86399 33.04778 2.03752 52.53156l.23178 3.84822 12.91084-.32044c16.92717-.42014 27.99848-.35267 32.13723.19583 10.71002 1.41938 17.71182 5.09252 21.86824 11.47205.82389 1.26454 1.57955 2.29917 1.67925 2.29917s1.46272-.67469 3.02891-1.49931c3.76743-1.98359 7.13819-5.21592 7.46828-7.16156.50888-2.99948 1.02895-3.68635 2.79113-3.68635 1.52437 0 2.32253.92752 2.32253 2.69896 0 4.67767-3.81137 9.15295-10.85336 12.74395-3.23267 1.64847-3.26567 1.67845-2.99861 2.72514.36046 1.41281.17194 16.72296-.26064 21.16667-.18888 1.94028-.51211 6.22653-.71828 9.525-.94344 15.09368-2.75484 36.44507-3.73908 44.07347-.92172 7.14377-1.37218 7.42945-12.36259 7.84003-6.80759.25431-7.88037.0429-8.60018-1.69487-.5464-1.31914-.24558-15.84814.51981-25.1057.28577-3.45636.63065-8.95472.76641-12.21857l.24684-5.93427-2.07864-.2311c-5.6162-.6244-13.66945-.95825-27.68744-1.1478l-15.37826-.20794-.23619 2.78143c-.12991 1.52979-.13736 6.43268-.0165 10.89532.25003 9.23665-.36761 30.19407-.92029 31.22675-.20118.37591-.66492.84357-1.03054 1.03924-.81597.43669-12.58976.74084-16.32929.42183zm74.48702-4.98909c1.63495-.18796 3.08352-.52117 3.21906-.74047.57509-.93053 2.70657-24.25893 3.84912-42.12771.21091-3.29847.4466-6.49853.52374-7.11125.13832-1.09859.1248-1.10959-.97648-.79375-2.14933.61642-5.57393.37673-7.4714-.52294-2.08205-.98718-4.15786-3.04462-4.92166-4.87809-.74078-1.7782-.68618-5.04937.11368-6.81013 1.50854-3.32083 5.22075-5.56732 9.18634-5.55925 1.2793.002 2.89697.24646 3.59781.54235l1.27339.53762.19928-3.34015c.1096-1.83709.10836-3.90038-.003-4.5851-.22793-1.40454.0427-1.38716-4.85998-.31218-5.13257 1.12538-7.70231.50609-7.70231-1.85621 0-1.75748.87077-2.40774 3.582-2.67489 2.46925-.24332 6.30242-1.03665 6.64002-1.37426.34074-.34074-1.92227-3.3053-3.66154-4.79665-3.35344-2.87545-8.62518-4.8202-15.26234-5.63028-4.66409-.56926-14.81667-.90787-14.81667-.49415 0 .19418.61545.76034 1.36767 1.25813 1.62689 1.07663 2.66143 2.64494 3.22589 4.89027 1.26309 5.02435-3.50701 9.89903-9.68667 9.89903-5.5211 0-9.70806-3.6093-9.70806-8.36867 0-2.33696.94374-4.3049 2.88257-6.01088l1.58819-1.39746-10.9581.1074-10.95811.1074-1.25099 1.34381c-1.60924 1.72863-3.16654 2.51035-5.47578 2.74869-2.50441.25848-5.17435-.65365-6.8665-2.34579-5.40418-5.40426 1.21785-13.63501 8.88704-11.04591l2.02792.68462v-1.53043c0-.84173-.31928-7.68303-.70951-15.20288-.39024-7.51985-.83405-18.38929-.98626-24.15432-.1522-5.76502-.36378-10.5689-.47017-10.67529s-.87316.0464-1.70394.33949c-.83077.29312-1.94682.53294-2.48012.53294-1.65051 0-3.99757-1.03063-5.3475-2.34818l-1.29055-1.25959-.23147 2.42124c-.12731 1.33169-.53875 5.13792-.91431 8.45828-.37556 3.32037-.68283 7.48363-.68283 9.25169v3.21465l.95421-.36279c.52482-.19954 1.88592-.36725 3.02467-.3727 5.10003-.0244 8.71073 3.81592 7.85857 8.35832-.34758 1.8528-3.0343 4.45718-5.23321 5.07283-1.64004.45919-4.63074.37047-6.02734-.1788-.63663-.25038-.65011.10935-.41859 11.17164.13157 6.28669.38594 16.58973.56526 22.89563s.328 12.80264.3304 14.43719l.004 2.97191.79814-.74982c2.28294-2.1447 7.14035-2.9437 10.43442-1.71637 6.28856 2.34305 8.14263 10.01828 3.54031 14.65571-3.34439 3.36989-9.47925 3.85764-13.40059 1.0654l-1.05055-.74806.17135.82882c.0942.45586.26803 4.71821.38617 9.47189.19469 7.83315.84736 25.44802 1.46071 39.42291l.23612 5.37987h5.9439c3.26915 0 5.97148-.0397 6.00518-.0882s.15276-10.04552.26458-22.21558l.20332-22.1274.7933-.79292c.71479-.71444 1.27342-.8184 5.64444-1.05048 2.66813-.14166 6.97-.16207 9.5597-.0453l4.70856.21221-.79977-1.55239c-1.80318-3.50009-.54368-8.34406 2.783-10.70321 2.10677-1.49403 3.39564-1.90369 6.08751-1.93485 3.22516-.0373 5.41203.79084 7.43798 2.81679 2.78918 2.78918 3.43986 6.63757 1.69944 10.05128-.37699.73946-.62213 1.40777-.54476 1.48514.0774.0774 2.33716.28129 5.02175.45315 10.079.64523 11.01501.85269 12.15278 2.69365.75551 1.22243.76929 1.44293.54436 8.70881-.12692 4.10004-.46859 10.23275-.75926 13.62823-.29068 3.39549-.63349 9.46768-.76182 13.49375l-.23333 7.32014 2.43723-.003c1.34047-.001 3.77491-.15646 5.40985-.34442zm-73.55005-165.34849c2.34246-1.93086 4.72369-2.29617 7.66997-1.17667 1.00916.38345 1.85967.66126 1.89001.61736.3683-.53286 1.93095-12.09821 1.92933-14.27913l-.002-2.91041h-1.23472c-1.59788 0-2.64583-1.0263-2.64583-2.59116 0-1.5785.8489-2.26776 3.3661-2.73309 2.43486-.45011 4.93076-1.64312 6.13219-2.93111l.85525-.91687h-1.92489c-1.05869 0-2.79293.24412-3.85386.54248-3.61979 1.018-4.73548 1.04531-5.58201.13668-.41617-.44671-.75667-1.10805-.75667-1.46964 0-.60884-.22816-.64042-3.08681-.42728-1.69774.12658-4.7444.43687-6.77036.68953-3.82982.47762-5.14983.30371-5.54681-.7308-.14619-.38096-.64837.35484-1.54706 2.26675-.73183 1.55695-1.79988 3.51496-2.37344 4.35113-1.71104 2.49448-3.13907 5.59931-4.61479 10.03354-1.4857 4.46423-2.87185 10.56427-2.87185 12.63817v1.26016l2.02848-1.02918c1.11566-.56604 3.13972-1.68277 4.49791-2.48161 3.2437-1.90784 4.57335-2.25259 6.8252-1.76966 2.15283.46171 4.0366 2.32358 4.64794 4.59393l.39861 1.4803.63699-1.04746c.35035-.5761 1.22033-1.52828 1.93329-2.11596zm-10.95718-15.78632c-1.46782-.63883-2.25012-1.83328-2.25012-3.43554 0-2.63394 1.42463-4.20124 3.8492-4.23471.7349-.0101 1.68609.16883 2.11375.39771 1.00784.53938 2.1483 2.4219 2.1483 3.54612 0 1.88554-2.32007 4.25878-4.12499 4.21952-.34918-.008-1.13045-.22949-1.73614-.4931z" stroke-width=".352778"/><g fill="#fee51f" stroke="#000" stroke-linecap="square" transform="matrix(.26458333 0 0 .26458333 -51.389145 267.35772)"><path d="m-990.69336-203.23047c-.72413 2.18092-.65023 4.67577-1.01562 6.97266-1.93273 20.6186-4.88178 41.15125-5.92383 61.8457-.23039 6.29307-.41988 12.64031-.35157 18.90625 3.13928-1.05371 6.3769-2.16228 9.73633-2.35156 6.42628-.53113 13.06825-.36343 19.03321 2.30273 8.62723 3.61737 15.75805 11.84487 16.30078 21.447268.3795 4.041166.12234 8.324624-2.05274 11.882813-2.83441 5.11813-7.5459 8.968176-12.35156 12.1875-6.47515 4.81064-17.97607 2.176862-30.11969 1.77566-1.52317 14.107494.51261 28.73156.4068 42.894252 1.24784 49.625432 1.43349 102.141435 3.21004 151.749037.0823 2.54007 3.42531-3.90455 4.33683-4.26466 11.10869-7.58519 26.23202-9.56755 38.8711-4.85157 14.06439 5.30782 24.03343 20.24572 22.08008 35.38477-1.27083 18.30956-19.78045 31.47459-37.40235 30.65234-9.40147.22321-19.14303-4.07717-26.66967-9.65085 1.6132 27.18186 2.6314 56.31648 3.71069 83.86765 1.4261 41.32999 3.16015 83.07612 4.80969 124.39751 14.87742.31066 30.37549-.0986 45.24304-.43676.30753-55.80769 1.06035-111.61358 1.57422-167.41992 2.96487-4.24355 7.69893-6.36297 12.81641-6.32227 21.48631-1.73532 44.03095-.21664 65.55554-.0863-3.13102-6.67281-7.13373-14.93705-6.02625-22.72233 1.14529-15.11029 13.63019-27.78487 28.36915-30.37305 11.81642-1.62252 25.19896-.51829 34.23046 8.08398 11.2328 9.05062 15.1926 25.50905 8.93165 38.66323-.47321 2.07749-2.86753 5.04567-2.41156 7.02372 18.55812 2.99631 38.12219 1.6026 56.55023 5.46149 6.47343 2.06521 10.78238 9.16068 10.61718 15.59961-.23089 55.6971-7.02662 104.15812-6.84765 153.71875 13.89385.0363 28.85623.14546 42.31034-3.43173 4.04169-22.89354 5.14987-46.56784 7.49874-69.67764 3.31107-39.86433 6.94783-80.6375 8.90097-120.58896-17.12596 1.72351-29.91805 2.01087-41.95615-7.8505-5.98029-5.48025-11.50667-12.71191-10.46289-21.34765-.15026-6.82521-.61902-14.18573 3.75586-19.96485 7.71659-12.26984 22.7261-18.9267 37.00586-17.10156 4.51627.0293 10.00104 2.70204 14.23618 3.81356 1.26505-8.06843 1.83637-26.69624.30084-33.282695-7.56999-4.370724-29.88311 6.098215-42.08194 2.922261-6.93337-2.594022-6.85169-14.730865.73242-16.353515 10.6579-3.024928 23.08991-2.424899 33.41972-6.694728-21.69443-45.280364-87.37221-42.327471-125.90711-41.919039-5.65433-.395057.25067 3.521325 1.46913 4.269818 9.77376 6.649335 16.22057 17.796964 14.36397 29.759964-3.12905 16.780114-20.7238 27.921319-37.22071 27.011719-16.06949 1.028843-33.30735-9.558106-36.23828-26.035156-2.09789-10.508207 2.20539-20.742063 10.3874-27.513871 6.66855-3.867358 12.07068-7.043155-.86201-5.78691-25.25652.373292-50.63308.249638-75.86703.726423-7.67181 10.045393-20.11056 17.620113-33.03922 15.470842-12.71644-1.463772-25.60169-11.404223-25.8164-24.996094-.36023-12.988892 10.38533-24.01921554 22.6875-26.6367184 8.67936-2.9020934 17.65989 1.69540393 26.04537 3.6029275.66328-7.6371427-.87874-16.5424901-.96139-24.3587871-.33743-17.637058-.70948-33.185841-2.15815-49.177722-1.71463-34.360239-2.83058-68.745339-3.94532-103.128909-.34129-6.02647-.28657-12.11309-1.15429-18.08984-.78671-.7879-2.17859.066-3.13282.13281-5.47609 1.54506-11.16025 3.94805-16.91601 2.42578-7.34487-1.44008-13.72498-5.87138-18.8457-11.1875-.58384-.38256-1.04918-1.24314-1.75977-1.34961z" stroke-width=".377953"/><path d="m-1021.1418-349.43123c-2.5149 3.24383-3.9482 7.19131-5.9322 10.76386-3.3983 7.07103-7.5582 13.71971-11.6846 20.37954-8.1977 14.58673-13.5773 30.5648-18.0463 46.63045-2.5018 9.65052-4.9876 19.36588-6.1255 29.28794-.2304 2.70972-.3048 5.48435-.1283 8.17057 6.0148-2.69029 11.8854-5.97973 17.6982-9.18021 6.8025-3.64409 13.289-8.09696 20.6905-10.46795 5.5501-1.45039 11.6856-.78169 16.857 1.68323 6.3343 3.1904 11.05127 9.28721 12.78816 16.15228.52888 1.41832.57416 3.71002 1.40924 4.96703 1.03114-.56986 1.49065-2.64523 2.24122-3.56327 4.35521-6.33437 10.49651-11.82188 17.92133-14.14904 4.41827-1.17657 9.19378-1.20618 13.65728-.14107 4.00817.9669 7.76655 2.84108 11.78544 3.70767.93543-.22946.64198-1.68326.99141-2.37198 2.62066-14.41005 4.4583-28.95783 6.02347-43.51699.63543-6.24472.45511-12.52834.48185-18.79433-1.64946-.47193-3.67212-.0292-5.4397-.33399-4.13679-.13045-8.34258-3.10335-8.87834-7.40069-.83536-3.67416.27128-8.18867 3.94326-9.89514 5.36335-2.6521 11.54823-2.84317 17.08929-5.06083 6.66822-2.33168 12.93973-6.2173 17.35243-11.79921.54795-1.36058-2.5541-.24437-3.47228-.53811-7.17681-.0293-14.30014 1.08908-21.20627 3.00401-4.8507 1.13232-9.94445 2.8009-14.94267 1.60298-2.84036-1.23548-4.87524-4.07723-5.6313-7.02421.239-1.60086-1.35257-2.66529-2.81491-2.54906-9.94599.20448-19.83546 1.51103-29.72257 2.5295-6.81544.64103-13.66764 1.81197-20.52414 1.17078-2.2897-.15271-4.4487-1.45957-5.4596-3.58199-.2964-.56815-.677.13363-.9214.31823zm1.7899 17.87398c3.8288.0605 8.1973.60002 10.7877 3.77229 2.6857 2.91607 4.8339 6.61345 5.2534 10.58391.099 5.93406-4.2282 10.95026-8.8669 14.11402-2.848 2.06997-6.5807 2.66444-9.9062 1.50536-4.7884-1.22144-9.4371-4.3749-10.9208-9.30001-1.0236-3.4725-.7643-7.27869.038-10.78121 1.2645-4.93689 5.5433-8.88754 10.6133-9.62292.9985-.17858 1.9882-.26085 3.0015-.27144z" stroke-width=".477237"/></g></g><g fill="#e95c35" stroke="#000" stroke-linecap="square" stroke-width=".25"><path d="m-29.108426 270.30177v-2.71701l2.352999 1.35851z" transform="matrix(0 -1.2599284 1.2599284 0 -312.21356 -24.831062)"/><path d="m-29.108426 270.30177v-2.71701l2.352999 1.35851z" transform="matrix(1.2599284 0 0 1.2599284 80.407767 -309.90826)"/><path d="m-29.108426 270.30177v-2.71701l2.352999 1.35851z" transform="matrix(0 1.2599284 -1.2599284 0 365.48498 82.71306)"/><path d="m-29.108426 270.30177v-2.71701l2.352999 1.35851z" transform="matrix(-1.2599284 0 0 -1.2599284 -27.136351 367.79026)"/></g></g></svg>