<svg viewBox="0 0 60 60" xmlns="http://www.w3.org/2000/svg"><g transform="matrix(1.3015765 0 0 1.3015765 69.895125 -344.9783)"><rect fill="#c9e7f1" height="34.787006" ry="2.119955" stroke="#000" stroke-linecap="square" stroke-width=".554749" width="34.787006" x="-48.044891" y="270.70197"/><path d="m-42.05975 294.68838c-.655228-2.16243-1.244348-4.61279-1.309152-5.44524-.367419-4.71987 3.16581-9.76983 7.783629-11.12498 5.629613-1.65207 12.311481.36775 15.829631 4.78504 2.273079 2.85402 2.446623 6.83501.535117 12.27526l-.935186 2.6616-1.451672-.24393c-.960786-.16144-1.51548-.39221-1.640361-.68249-.141092-.32796-.220553-.24509-.315019.32851-.155162.94231-1.227567 1.27136-3.76952 1.15664-1.653294-.0747-1.719125-.10284-1.748069-.74935-.101285-2.26248-.08825-2.22673-.857457-2.35101-.411579-.0662-1.870167-.0855-3.241383-.0422l-2.493123.0787.02131 1.00535c.01172.55293.04219 1.27545.06771 1.60559.04274.55282-.153423.60488-2.482836.65891-1.391074.0323-2.590672.0489-2.665767.037-.07505-.012-.672622-1.79099-1.327858-3.95343zm5.506804 1.44925c.147999-1.49119.189142-1.56466.911829-1.62852 1.741679-.15393 6.518475-.10269 6.923877.0743.301093.13142.429505.62638.409438 1.57814l-.02923 1.38668 1.304265.0156c2.627653.0315 2.459231.24991 2.958805-3.83598.378092-3.09232.500212-3.59796.855341-3.54147.592728.0943.778832 1.35504.549076 3.71971-.213583 2.19822.05928 2.84088 1.289275 3.03655.447028.0711.684105-.0986.88309-.63236 2.289301-6.14032 2.327866-10.28027.120553-12.94111-3.71097-4.47344-11.291131-6.30596-16.280036-3.93575-1.961434.93188-3.707884 2.6511-4.748146 4.67413-1.542469 2.9997-1.508925 5.14439.162065 10.36195l1.060525 3.31142 1.737141-.0408 1.737145-.0408zm3.193032-7.11813c-.420287-.27295-1.019383-.87935-1.331324-1.34756-.497753-.7471-.527964-1.09773-.246849-2.86485.342917-2.15563.827981-2.89419 2.465647-3.75422 1.650064-.86654 4.886825-.0754 5.920428 1.44699.650651.95838.202426 1.55091-.494453.65365-.664132-.85511-1.724836-1.43931-2.961112-1.63091-1.337422-.20718-2.305761.13311-3.24618 1.14106-.948526 1.01664-1.401094 3.26781-.874358 4.34924.774569 1.59024 3.414574 2.39181 6.061061 1.84028 1.818369-.37894 1.68035-.38584 1.606204.0802-.03302.20757-.710447.54243-1.505396.74415-1.667201.42304-4.205956.1133-5.393668-.65808zm9.090802-3.19539c-.25179-.72646.09528-1.33861.820968-1.44797 1.075702-.16211 1.616977 1.25253.726457 1.89861-.571824.41486-1.323296.19602-1.547425-.45064z" stroke-width=".277546"/><path d="m-31.773031 278.36464c-2.084718.009-4.209595.487-5.968951 1.64028-1.669312 1.10257-3.042788 2.66237-3.888636 4.47847-.585595 1.20887-.972147 2.5407-.920174 3.89407-.02018 1.38393.311394 2.73831.656824 4.06843.473643 1.71195 1.058092 3.39083 1.586853 5.08612.04348.12656.05898.33818.24651.28752 1.115185-.0209 2.232346-.0368 3.345894-.0916.100386-.13917.05078-.35007.09435-.5146.09872-.75132.115753-1.52088.288479-2.25754.04645-.2375.27614-.35678.499649-.36877 1.098501-.12498 2.219685-.0903 3.329627-.11183 1.206924.009 2.41872-.0139 3.618252.12628.337269.0291.4658.43007.493035.72049.04606.75094-.007 1.51632.03365 2.26463.306387.0542.652782.006.9741.0224.703799-.0178 1.414659.0406 2.113687-.0584.413991-.0716.68413-.44348.779753-.83012.249055-.924.302036-1.88695.4395-2.83114.15218-1.08843.238604-2.18994.502563-3.25736.05134-.15028.12039-.40632.319246-.39423.364278.0905.448958.51096.523967.82165.135618.80891.06617 1.63845.02775 2.45356-.04713.85081-.210161 1.73412.03678 2.56955.122849.45716.544489.75902.991756.85199.334772.10049.780622.11864.990971-.2184.281469-.48546.419981-1.04004.617204-1.56264.787035-2.36014 1.422228-4.83003 1.308986-7.33759-.0708-1.61832-.583483-3.25038-1.643129-4.49763-1.782844-2.12173-4.287816-3.54875-6.928434-4.31767-1.449677-.42252-2.958647-.65322-4.470063-.63589zm1.045326 2.38129c1.244623.0339 2.517728.38535 3.519658 1.14764.431268.35225.852273.81593.923437 1.38953.03169.16783-.140921.36599-.305767.23431-.419928-.29382-.681801-.76117-1.104329-1.05597-.916683-.71765-2.107467-1.06921-3.266337-1.01484-1.328225.0725-2.478756 1.05464-2.974975 2.25545-.382869.92808-.577755 1.97606-.361588 2.96903.21841.83512.948812 1.42285 1.688235 1.79788 1.235175.60102 2.661003.68458 4.006025.51805.683161-.0914 1.352519-.28247 2.033718-.36166.121002.007.116463.10829.08692.19158-.02405.2442-.309441.34404-.489255.458-.776273.38129-1.645886.55187-2.515358.52739-.599447.017-1.201055.0116-1.790382-.11337-.961333-.16515-1.958451-.46606-2.650161-1.1936-.440938-.45442-.887978-.9474-1.07928-1.56405-.148953-.74085.0332-1.49829.136701-2.23917.166242-.96512.382072-2.009 1.12389-2.70284.55376-.50328 1.212842-.91273 1.932661-1.12729.355263-.0854.72045-.11588 1.086192-.11607zm7.436566 3.68409c.554905-.0524 1.004986.50556.962914 1.03528.0013.5324-.509235.99915-1.036518.97054-.540835.026-.959255-.50586-.923827-1.02314-.06169-.40338.224993-.79448.605337-.92546.12264-.0568.259765-.0573.392094-.0572z" fill="#ececec"/><g fill="#e95c35" stroke="#000" stroke-linecap="square" stroke-width=".25"><path d="m-29.108426 270.30177v-2.71701l2.352999 1.35851z" transform="matrix(-.70710678 -.70710678 .70710678 -.70710678 -253.853509 445.236574)"/><path d="m-29.108426 270.30177v-2.71701l2.352999 1.35851z" transform="matrix(.70710678 -.70710678 .70710678 .70710678 -187.792479 64.893351)"/><path d="m-29.108426 270.30177v-2.71701l2.352999 1.35851z" transform="matrix(.70710678 .70710678 -.70710678 .70710678 192.550735 130.954384)"/><path d="m-29.108426 270.30177v-2.71701l2.352999 1.35851z" transform="matrix(-.70710678 .70710678 -.70710678 -.70710678 126.489699 511.297591)"/></g></g></svg>