<svg viewBox="0 0 60 60" xmlns="http://www.w3.org/2000/svg"><g stroke="#000"><g><rect fill="#f7c1c1" height="45.27795151234" ry="2.75928316852" stroke-linecap="square" stroke-width=".72204839127" width="45.27795151234" x="7.36102445029" y="7.36102321047"/><g transform="matrix(1.10908790741 0 0 1.10908790741 58.21478454475 -361.10995019834)"><g stroke="#000"><path d="m-34.992719 359.36645c0-.32365-2.195217-1.40951-3.974473-1.96596l-1.517424-.47457 1.566993-1.35283c1.954106-1.68705 3.211789-4.05509 2.964154-5.58109-.183744-1.13229-1.423763-3.2143-3.267038-5.48538-.88153-1.08614-1.070029-1.47555-.722662-1.49293 1.098081-.055 4.031467.58601 5.173172 1.13032 1.995908.95155 2.170218.71969 1.992058-2.64997-.08402-1.58904-.0512-2.88917.0729-2.88917.273899 0 4.946292 2.91618 5.998452 3.74381.414055.32569.941179.59217 1.171389.59217s1.846068-1.11994 3.590793-2.48876 3.25661-2.40439 3.359742-2.30126c.103132.10314.258321 1.34246.344862 2.75405.08655 1.41159.254071 2.6631.372286 2.78116.118214.11804.718661.0636 1.334328-.12074.615665-.18447 2.200527-.33539 3.521914-.33539h2.402519l-2.363791 2.42173c-1.300086 1.33196-2.36252 2.66527-2.360967 2.96292.0045.86651 1.300484 3.41307 2.639495 5.18657 1.235324 1.63617 1.591495 2.4367 1.084151 2.4367-.42153 0-5.13769 2.31254-5.320982 2.6091-.09015.14587.02946.56156.265771.92377.398788.61121 2.195934 5.41847 2.195934 5.87398 0 .11169-.162598.0745-.36133-.083-.682067-.53989-3.542695-1.44967-5.682151-1.80711-2.96605-.49556-8.442689-.42722-10.530672.13138-.928028.24827-2.669895.90539-3.870816 1.46024-1.710834.79046-2.241551 1.0327-2.36011.94724-.329515-.23751 2.281503-6.25043 2.281503-6.92698z" fill="#e4ac19" stroke-width=".819396"/><ellipse cx="-25.470678" cy="-353.74197" fill="#fce377" rx="7.398063" ry="7.726116" stroke-linecap="square" stroke-width=".575783" transform="scale(.99999999 -.99999999)"/><g fill="none" transform="translate(-.734992 1.5368)"><path d="m-24.989701 353.86158c.639558 1.14696 1.410085 1.83553 2.405426 1.73725"/><g><path d="m-27.127856 355.19792c2.20977-.3229 2.294654-1.1816 2.228597-2.43715"/><path d="m-26.552828 355.01933c.905568.93577 2.165489 1.15095 3.071057.44884" stroke-width=".5"/></g></g></g><circle cx="-27.963072" cy="352.09091" r=".902035" stroke="none"/><circle cx="-23.252451" cy="352.12433" r=".902035" stroke="none"/></g></g><g fill="#e95c35" stroke-linecap="square" stroke-width=".44336124356"><circle cx="11.0000021257" cy="10.99998361571" r="1.6589595981"/><circle cx="29.99999952641" cy="10.99998361571" r="1.6589595981"/><circle cx="49.00000213343" cy="10.99998361571" r="1.6589595981"/><circle cx="11.0000021257" cy="29.99999533377" r="1.6589595981"/><circle cx="49.00000213343" cy="29.99999533377" r="1.6589595981"/><circle cx="11.0000021257" cy="49.00000705182" r="1.6589595981"/><circle cx="29.99999952641" cy="49.00000705182" r="1.6589595981"/><circle cx="49.00000213343" cy="49.00000705182" r="1.6589595981"/></g></g></svg>