<?xml version="1.0" encoding="UTF-8" standalone="no"?>
<svg
   xmlns:dc="http://purl.org/dc/elements/1.1/"
   xmlns:cc="http://creativecommons.org/ns#"
   xmlns:rdf="http://www.w3.org/1999/02/22-rdf-syntax-ns#"
   xmlns:svg="http://www.w3.org/2000/svg"
   xmlns="http://www.w3.org/2000/svg"
   xmlns:xlink="http://www.w3.org/1999/xlink"
   xmlns:sodipodi="http://sodipodi.sourceforge.net/DTD/sodipodi-0.dtd"
   xmlns:inkscape="http://www.inkscape.org/namespaces/inkscape"
   inkscape:export-ydpi="365.15302"
   inkscape:export-xdpi="365.15302"
   inkscape:export-filename="D:\Pictures\Chess Variants\Xiangqi\pieces\Internationalized\Wood\Red Cannon.png"
   sodipodi:docname="black_pawn.svg"
   inkscape:version="1.0 (4035a4fb49, 2020-05-01)"
   version="1.1"
   id="svg2"
   height="92"
   width="92">
  <metadata
     id="metadata12">
    <rdf:RDF>
      <cc:Work
         rdf:about="">
        <dc:format>image/svg+xml</dc:format>
        <dc:type
           rdf:resource="http://purl.org/dc/dcmitype/StillImage" />
        <dc:title />
      </cc:Work>
    </rdf:RDF>
  </metadata>
  <defs
     id="defs10">
    <linearGradient
       id="linearGradient855"
       inkscape:collect="always">
      <stop
         id="stop851"
         offset="0"
         style="stop-color:#dca682;stop-opacity:1" />
      <stop
         style="stop-color:#dcae90;stop-opacity:0.98039216"
         offset="0.18120606"
         id="stop861" />
      <stop
         id="stop863"
         offset="0.36145115"
         style="stop-color:#d5a17e;stop-opacity:0.97254902" />
      <stop
         style="stop-color:#d5a17f;stop-opacity:0.96862745"
         offset="0.55711311"
         id="stop865" />
      <stop
         id="stop867"
         offset="0.7371344"
         style="stop-color:#d29b78;stop-opacity:0.96470588" />
      <stop
         style="stop-color:#dcaa88;stop-opacity:0.96470588"
         offset="0.88531494"
         id="stop869" />
      <stop
         id="stop853"
         offset="1"
         style="stop-color:#dba37e;stop-opacity:0.96470588" />
    </linearGradient>
    <radialGradient
       gradientTransform="matrix(0.29888985,0,0,0.28666316,31.817329,34.478952)"
       spreadMethod="repeat"
       gradientUnits="userSpaceOnUse"
       r="40.95509"
       fy="48.334743"
       fx="45.381359"
       cy="48.334743"
       cx="45.381359"
       id="radialGradient859"
       xlink:href="#linearGradient855"
       inkscape:collect="always" />
    <radialGradient
       spreadMethod="repeat"
       r="40.95509"
       fy="48.334743"
       fx="45.381359"
       cy="48.334743"
       cx="45.381359"
       gradientTransform="matrix(0.48654155,0,0,0.51052834,23.30144,23.658486)"
       gradientUnits="userSpaceOnUse"
       id="radialGradient871"
       xlink:href="#linearGradient855"
       inkscape:collect="always" />
    <filter
       id="filter1043"
       inkscape:label="Drop Shadow"
       style="color-interpolation-filters:sRGB;">
      <feFlood
         id="feFlood1033"
         result="flood"
         flood-color="rgb(0,0,0)"
         flood-opacity="0.498039" />
      <feComposite
         id="feComposite1035"
         result="composite1"
         operator="in"
         in2="SourceGraphic"
         in="flood" />
      <feGaussianBlur
         id="feGaussianBlur1037"
         result="blur"
         stdDeviation="2.1"
         in="composite1" />
      <feOffset
         id="feOffset1039"
         result="offset"
         dy="4"
         dx="0" />
      <feComposite
         id="feComposite1041"
         result="composite2"
         operator="over"
         in2="offset"
         in="SourceGraphic" />
    </filter>
    <filter
       id="filter16605"
       inkscape:label="Drop Shadow"
       style="color-interpolation-filters:sRGB;">
      <feFlood
         id="feFlood16595"
         result="flood"
         flood-color="rgb(0,0,0)"
         flood-opacity="0.498039" />
      <feComposite
         id="feComposite16597"
         result="composite1"
         operator="out"
         in2="SourceGraphic"
         in="flood" />
      <feGaussianBlur
         id="feGaussianBlur16599"
         result="blur"
         stdDeviation="1"
         in="composite1" />
      <feOffset
         id="feOffset16601"
         result="offset"
         dy="1"
         dx="0" />
      <feComposite
         id="feComposite16603"
         result="composite2"
         operator="atop"
         in2="SourceGraphic"
         in="offset" />
    </filter>
  </defs>
  <sodipodi:namedview
     inkscape:document-rotation="0"
     showguides="false"
     inkscape:pagecheckerboard="false"
     fit-margin-bottom="0"
     fit-margin-right="0"
     fit-margin-left="0"
     fit-margin-top="0"
     inkscape:current-layer="layer2"
     inkscape:window-maximized="1"
     inkscape:window-y="-8"
     inkscape:window-x="-8"
     inkscape:cy="65.397185"
     inkscape:cx="-156.91108"
     inkscape:zoom="1.9175627"
     showgrid="false"
     id="namedview8"
     inkscape:window-height="705"
     inkscape:window-width="1366"
     inkscape:pageshadow="2"
     inkscape:pageopacity="0"
     guidetolerance="10"
     gridtolerance="10"
     objecttolerance="10"
     borderopacity="1"
     bordercolor="#666666"
     pagecolor="#ffffff" />
  <g
     style="display:inline"
     inkscape:label="Background"
     id="layer1"
     inkscape:groupmode="layer">
    <g
       transform="translate(0.61863804,-2.3347464)"
       id="g25621"
       style="fill:url(#radialGradient859);fill-opacity:1">
      <circle
         style="color:#000000;display:inline;overflow:visible;visibility:visible;opacity:1;fill:url(#radialGradient871);fill-opacity:1;fill-rule:nonzero;stroke:none;stroke-width:0.32569826;stroke-linecap:round;stroke-linejoin:miter;stroke-miterlimit:10;stroke-dasharray:none;stroke-dashoffset:0;stroke-opacity:1;marker:none;filter:url(#filter1043);enable-background:accumulate"
         id="circle4376-8-9"
         cx="45.381359"
         cy="48.334743"
         r="40.79224" />
    </g>
  </g>
  <g
     style="display:inline"
     inkscape:label="Symbol"
     id="layer2"
     inkscape:groupmode="layer">
    <g
       id="text32186"
       style="font-style:normal;font-variant:normal;font-weight:500;font-stretch:normal;font-size:53.33333206px;line-height:1.25;font-family:'cwTeX Q Kai';-inkscape-font-specification:'cwTeX Q Kai, Medium';font-variant-ligatures:normal;font-variant-caps:normal;font-variant-numeric:normal;font-feature-settings:normal;text-align:start;letter-spacing:0px;word-spacing:0px;writing-mode:lr-tb;text-anchor:start;display:inline;fill:#005500;fill-opacity:1;stroke:#005500;stroke-width:1;stroke-miterlimit:4;stroke-dasharray:none;stroke-opacity:1;filter:url(#filter16605)"
       aria-label="å’"
       transform="matrix(1.2534562,0,0,1.2534562,-11.62635,-11.658985)">
      <path
         style="fill:#005500;stroke:#005500;fill-opacity:1;stroke-opacity:1"
         id="path36662"
         d="m 48.291667,28.083333 q -0.989583,0 -3.125,-1.614583 -2.083333,-1.614584 -2.083333,-2.708334 0,-0.15625 0.208333,-0.260416 l 0.260417,-0.104167 q 2.1875,0.208333 3.4375,0.729167 1.302083,0.520833 2.291667,1.822916 0,1.25 -0.260417,1.71875 -0.208333,0.416667 -0.729167,0.416667 z m 8.177083,0.05208 q 2.1875,0 2.96875,1.302084 -0.104166,1.09375 -3.177083,1.458333 -8.333333,1.354166 -12.864583,1.875 l -4.479166,0.677083 q -0.3125,0.05208 -0.9375,0.05208 -3.697917,0 -3.90625,-1.5625 l 0.46875,-0.3125 q 6.822916,-0.3125 14.687499,-1.979166 L 54.90625,28.29166 q 0.885417,-0.15625 1.5625,-0.15625 z M 41.364584,36.52083 q -0.208333,0.416666 -1.302083,1.875 -1.041667,1.40625 -1.40625,2.03125 l 3.125,1.510416 q 1.145833,0.78125 1.145833,1.979167 0.05208,1.145833 -0.625,1.458333 -1.041667,0 -3.489583,-3.072916 l -0.78125,-0.9375 q -4.322917,4.322916 -5.885417,4.322916 h -0.15625 l 0.104167,-0.46875 q 2.708333,-2.65625 4.0625,-4.739583 1.40625,-2.135417 1.40625,-4.53125 0,-0.9375 0.15625,-1.197917 0.15625,-0.3125 0.572917,-0.3125 0.885416,0 1.770833,0.729167 0.885416,0.729167 1.302083,1.354167 z M 61.9375,46.260416 q 1.354167,0 3.333334,1.197916 2.03125,1.197917 2.03125,2.03125 v 0.208334 q 0,0.15625 -0.05208,0.208333 l -0.46875,0.3125 -18.749999,0.260417 q -0.104167,1.354166 -0.104167,8.593749 0,9.53125 -1.927083,9.53125 -0.46875,-0.364583 -0.677084,-1.041666 -0.15625,-0.625 -0.208333,-2.03125 -0.05208,-1.40625 -0.05208,-3.020834 0.05208,-1.666666 0,-4.947916 -0.05208,-3.333333 -0.260417,-6.875 -5.625,0.364583 -11.25,1.458333 l -4.84375,1.09375 q -0.104166,0 -0.208333,0.05208 -0.104167,0 -0.416667,0 -1.041666,0 -2.031249,-0.572917 -0.9375,-0.625 -1.40625,-1.458333 0,-0.46875 0.625,-0.46875 l 19.531249,-1.979167 q 0,-3.59375 -1.09375,-5.46875 v -0.05208 q 0,-1.041667 0.9375,-1.041667 0.677083,0 1.510417,0.416667 5.520833,-5 5.520833,-10.46875 0.260417,-0.208333 0.729167,-0.208333 0.729166,0 1.666666,0.677083 0.989583,0.677083 1.302083,1.145833 l -0.104166,0.677084 q -1.770833,2.083333 -3.072917,4.21875 l 3.489583,1.354166 q 2.552084,1.25 2.552084,3.020834 0,0.572916 -0.208334,1.041666 -0.3125,0.104167 -1.041666,0.104167 l -5.364583,-4.583333 -0.15625,-0.15625 q -1.875,2.135416 -4.635417,3.541666 l 1.354167,0.885417 q 0.260416,0.260417 0.260416,0.625 0,0.364583 -0.208333,1.875 -0.208333,1.458333 -0.208333,1.927083 h 0.260416 q 0.885417,0 3.4375,-0.364583 2.552084,-0.364584 5.625,-0.885417 3.125,-0.572917 3.4375,-0.625 z"
         inkscape:connector-curvature="0" />
    </g>
  </g>
</svg>
