<?xml version="1.0" encoding="UTF-8" standalone="no"?>
<svg
   xmlns:dc="http://purl.org/dc/elements/1.1/"
   xmlns:cc="http://creativecommons.org/ns#"
   xmlns:rdf="http://www.w3.org/1999/02/22-rdf-syntax-ns#"
   xmlns:svg="http://www.w3.org/2000/svg"
   xmlns="http://www.w3.org/2000/svg"
   xmlns:xlink="http://www.w3.org/1999/xlink"
   xmlns:sodipodi="http://sodipodi.sourceforge.net/DTD/sodipodi-0.dtd"
   xmlns:inkscape="http://www.inkscape.org/namespaces/inkscape"
   inkscape:export-ydpi="365.15302"
   inkscape:export-xdpi="365.15302"
   inkscape:export-filename="D:\Pictures\Chess Variants\Xiangqi\pieces\Internationalized\Wood\Red Cannon.png"
   sodipodi:docname="black_chariot.svg"
   inkscape:version="1.0 (4035a4fb49, 2020-05-01)"
   version="1.1"
   id="svg2"
   height="92"
   width="92">
  <metadata
     id="metadata12">
    <rdf:RDF>
      <cc:Work
         rdf:about="">
        <dc:format>image/svg+xml</dc:format>
        <dc:type
           rdf:resource="http://purl.org/dc/dcmitype/StillImage" />
        <dc:title />
      </cc:Work>
    </rdf:RDF>
  </metadata>
  <defs
     id="defs10">
    <linearGradient
       id="linearGradient855"
       inkscape:collect="always">
      <stop
         id="stop851"
         offset="0"
         style="stop-color:#dca682;stop-opacity:1" />
      <stop
         style="stop-color:#dcae90;stop-opacity:0.98039216"
         offset="0.18120606"
         id="stop861" />
      <stop
         id="stop863"
         offset="0.36145115"
         style="stop-color:#d5a17e;stop-opacity:0.97254902" />
      <stop
         style="stop-color:#d5a17f;stop-opacity:0.96862745"
         offset="0.55711311"
         id="stop865" />
      <stop
         id="stop867"
         offset="0.7371344"
         style="stop-color:#d29b78;stop-opacity:0.96470588" />
      <stop
         style="stop-color:#dcaa88;stop-opacity:0.96470588"
         offset="0.88531494"
         id="stop869" />
      <stop
         id="stop853"
         offset="1"
         style="stop-color:#dba37e;stop-opacity:0.96470588" />
    </linearGradient>
    <radialGradient
       gradientTransform="matrix(0.29888985,0,0,0.28666316,31.817329,34.478952)"
       spreadMethod="repeat"
       gradientUnits="userSpaceOnUse"
       r="40.95509"
       fy="48.334743"
       fx="45.381359"
       cy="48.334743"
       cx="45.381359"
       id="radialGradient859"
       xlink:href="#linearGradient855"
       inkscape:collect="always" />
    <radialGradient
       spreadMethod="repeat"
       r="40.95509"
       fy="48.334743"
       fx="45.381359"
       cy="48.334743"
       cx="45.381359"
       gradientTransform="matrix(0.48654155,0,0,0.51052834,23.30144,23.658486)"
       gradientUnits="userSpaceOnUse"
       id="radialGradient871"
       xlink:href="#linearGradient855"
       inkscape:collect="always" />
    <filter
       id="filter1043"
       inkscape:label="Drop Shadow"
       style="color-interpolation-filters:sRGB;">
      <feFlood
         id="feFlood1033"
         result="flood"
         flood-color="rgb(0,0,0)"
         flood-opacity="0.498039" />
      <feComposite
         id="feComposite1035"
         result="composite1"
         operator="in"
         in2="SourceGraphic"
         in="flood" />
      <feGaussianBlur
         id="feGaussianBlur1037"
         result="blur"
         stdDeviation="2.1"
         in="composite1" />
      <feOffset
         id="feOffset1039"
         result="offset"
         dy="4"
         dx="0" />
      <feComposite
         id="feComposite1041"
         result="composite2"
         operator="over"
         in2="offset"
         in="SourceGraphic" />
    </filter>
    <filter
       id="filter14089"
       inkscape:label="Drop Shadow"
       style="color-interpolation-filters:sRGB;">
      <feFlood
         id="feFlood14079"
         result="flood"
         flood-color="rgb(0,0,0)"
         flood-opacity="0.498039" />
      <feComposite
         id="feComposite14081"
         result="composite1"
         operator="out"
         in2="SourceGraphic"
         in="flood" />
      <feGaussianBlur
         id="feGaussianBlur14083"
         result="blur"
         stdDeviation="1"
         in="composite1" />
      <feOffset
         id="feOffset14085"
         result="offset"
         dy="1"
         dx="0" />
      <feComposite
         id="feComposite14087"
         result="composite2"
         operator="atop"
         in2="SourceGraphic"
         in="offset" />
    </filter>
  </defs>
  <sodipodi:namedview
     inkscape:document-rotation="0"
     showguides="false"
     inkscape:pagecheckerboard="false"
     fit-margin-bottom="0"
     fit-margin-right="0"
     fit-margin-left="0"
     fit-margin-top="0"
     inkscape:current-layer="layer2"
     inkscape:window-maximized="0"
     inkscape:window-y="57"
     inkscape:window-x="-4"
     inkscape:cy="77.46838"
     inkscape:cx="-174.69645"
     inkscape:zoom="1.9569892"
     showgrid="false"
     id="namedview8"
     inkscape:window-height="728"
     inkscape:window-width="725"
     inkscape:pageshadow="2"
     inkscape:pageopacity="0"
     guidetolerance="10"
     gridtolerance="10"
     objecttolerance="10"
     borderopacity="1"
     bordercolor="#666666"
     pagecolor="#ffffff" />
  <g
     style="display:inline"
     inkscape:label="Background"
     id="layer1"
     inkscape:groupmode="layer">
    <g
       transform="translate(0.61863804,-2.3347464)"
       id="g25621"
       style="fill:url(#radialGradient859);fill-opacity:1">
      <circle
         style="color:#000000;display:inline;overflow:visible;visibility:visible;opacity:1;fill:url(#radialGradient871);fill-opacity:1;fill-rule:nonzero;stroke:none;stroke-width:0.32569826;stroke-linecap:round;stroke-linejoin:miter;stroke-miterlimit:10;stroke-dasharray:none;stroke-dashoffset:0;stroke-opacity:1;marker:none;filter:url(#filter1043);enable-background:accumulate"
         id="circle4376-8-9"
         cx="45.381359"
         cy="48.334743"
         r="40.79224" />
    </g>
  </g>
  <g
     style="display:inline"
     inkscape:label="Symbol"
     id="layer2"
     inkscape:groupmode="layer">
    <g
       id="text32186"
       style="font-style:normal;font-variant:normal;font-weight:500;font-stretch:normal;font-size:53.33333206px;line-height:1.25;font-family:'cwTeX Q Kai';-inkscape-font-specification:'cwTeX Q Kai, Medium';font-variant-ligatures:normal;font-variant-caps:normal;font-variant-numeric:normal;font-feature-settings:normal;text-align:start;letter-spacing:0px;word-spacing:0px;writing-mode:lr-tb;text-anchor:start;display:inline;fill:#005500;fill-opacity:1;stroke:#005500;stroke-width:1;stroke-miterlimit:4;stroke-dasharray:none;stroke-opacity:1;filter:url(#filter14089)"
       aria-label="車"
       transform="matrix(1.2785388,0,0,1.2785388,-12.812791,-12.746193)">
      <path
         style="fill:#005500;stroke:#005500;fill-opacity:1;stroke-opacity:1"
         id="path34148"
         d="m 60.84375,50.062499 q 1.40625,0 3.333334,1.197917 1.927083,1.197916 1.927083,2.135416 0,0.208334 -0.05208,0.3125 l -0.625,0.364584 q -15,0.15625 -16.09375,0.208333 l -1.71875,0.104167 -0.15625,0.208333 q 0,10.625 -0.625,13.072916 l -0.416667,0.989584 -0.05208,0.104166 q -1.927083,-0.05208 -1.927083,-8.385416 0,-3.28125 0.208333,-5.572917 l -0.208333,-0.15625 q -4.947917,0.260417 -9.947917,1.354167 l -4.479166,1.09375 h -0.104167 q -0.05208,0 -0.208333,0.05208 -0.15625,0 -0.260417,0 -2.083333,0 -3.541666,-2.135416 l 0.3125,-0.364584 18.385416,-1.979166 q 0.15625,-0.625 0.15625,-2.1875 0,-0.208334 -0.05208,-0.78125 0,-0.625 0,-0.9375 -0.9375,0.05208 -5.052083,0.625 l -0.46875,0.833333 -0.05208,0.05208 q -2.083333,-0.208333 -2.8125,-3.489583 l -1.145833,-5.15625 q -0.78125,-2.552083 -2.135417,-4.322916 0.104167,-0.260417 0.416667,-0.46875 0.625,0 2.65625,0.677083 4.322916,-0.520833 8.385416,-1.40625 l 0.104167,-3.541667 -3.958334,0.3125 q -2.552083,-0.05208 -3.333333,-1.25 0.05208,-0.364583 0.729167,-0.46875 L 40.114584,31 l 4.375,-0.625 q 0,-2.083334 -0.364583,-3.385417 -0.3125,-1.354167 -0.677084,-1.770833 -0.364583,-0.46875 -0.9375,-0.885417 v -0.46875 q 0.208334,-0.3125 1.09375,-0.729167 3.802084,0.520834 5.052084,2.5 0,0.364584 -0.364584,1.145834 -0.3125,0.729166 -0.364583,0.885416 l -0.3125,1.875 q 0.885417,-0.05208 2.864583,-0.677083 1.979167,-0.625 3.28125,-0.625 1.510417,0 2.760417,1.041667 0,0.677083 -1.302084,1.145833 -1.249999,0.46875 -4.999999,1.041666 l -2.604167,0.46875 -0.208333,3.59375 7.135416,-0.9375 q 0.572917,-0.05208 1.666667,-0.05208 l 2.916666,1.61458 q 1.041667,0.677084 1.5625,1.5625 0,0.46875 -0.364583,0.78125 -0.3125,0.260417 -1.145833,1.145834 -0.78125,0.885416 -1.614584,2.5 l -2.1875,5.364583 -0.677083,1.09375 q -0.364583,0.364583 -1.5625,0.364583 -0.364583,-0.364583 -0.46875,-0.9375 -1.5625,0 -5.104166,0.3125 l -0.104167,3.802083 h 0.364583 q 1.458334,0 11.5625,-1.770833 1.302083,-0.3125 1.458333,-0.3125 z m -8.124999,-13.125 q -1.458334,0 -5.260417,0.572917 v 3.28125 l 2.604167,-0.15625 q 0.9375,0.05208 1.71875,1.041667 0,0.572916 -0.15625,0.625 l -4.166667,0.625 v 3.541666 q 2.96875,-0.46875 3.385417,-0.46875 1.25,0 1.979166,0.520833 Q 54.75,40.843749 55.0625,37.302083 54.854167,36.937499 52.718751,36.937499 Z m -8.125,10.104167 v -3.697917 l -2.708334,0.3125 q -0.989583,-0.05208 -1.510416,-0.729166 0,-0.520834 0.208333,-0.572917 l 0.625,-0.104167 q 0.3125,-0.05208 3.385417,-0.729166 v -3.541667 q -4.322917,0.572917 -6.927083,1.458333 l 1.041666,5.3125 q 0.260417,1.5625 0.729167,3.020833 z"
         inkscape:connector-curvature="0" />
    </g>
  </g>
</svg>
