<svg height="92" width="92" xmlns="http://www.w3.org/2000/svg" xmlns:xlink="http://www.w3.org/1999/xlink"><linearGradient id="a"><stop offset="0" stop-color="#dca682"/><stop offset=".18120606" stop-color="#dcae90" stop-opacity=".980392"/><stop offset=".36145115" stop-color="#d5a17e" stop-opacity=".972549"/><stop offset=".55711311" stop-color="#d5a17f" stop-opacity=".968627"/><stop offset=".7371344" stop-color="#d29b78" stop-opacity=".964706"/><stop offset=".88531494" stop-color="#dcaa88" stop-opacity=".964706"/><stop offset="1" stop-color="#dba37e" stop-opacity=".964706"/></linearGradient><radialGradient cx="45.381359" cy="48.334743" gradientTransform="matrix(.29888985 0 0 .28666316 31.817329 34.478952)" gradientUnits="userSpaceOnUse" r="40.95509" spreadMethod="repeat" xlink:href="#a"/><radialGradient id="b" cx="45.381359" cy="48.334743" gradientTransform="matrix(.48654155 0 0 .51052834 23.30144 23.658486)" gradientUnits="userSpaceOnUse" r="40.95509" spreadMethod="repeat" xlink:href="#a"/><filter id="c" color-interpolation-filters="sRGB"><feFlood flood-opacity=".498039" result="flood"/><feComposite in="flood" in2="SourceGraphic" operator="in" result="composite1"/><feGaussianBlur in="composite1" result="blur" stdDeviation="2.1"/><feOffset dx="0" dy="4" result="offset"/><feComposite in="SourceGraphic" in2="offset" operator="over" result="composite2"/></filter><filter id="d" color-interpolation-filters="sRGB"><feFlood flood-opacity=".498039" result="flood"/><feComposite in="flood" in2="SourceGraphic" operator="out" result="composite1"/><feGaussianBlur in="composite1" result="blur" stdDeviation="1"/><feOffset dx="0" dy="1" result="offset"/><feComposite in="offset" in2="SourceGraphic" operator="atop" result="composite2"/></filter><circle cx="45.381359" cy="48.334743" fill="url(#b)" filter="url(#c)" r="40.79224" transform="translate(.618638 -2.334746)"/><g fill="#050" filter="url(#d)" stroke="#050" transform="matrix(1.3155985 0 0 1.3155985 -11.517528 -14.414751)"><path d="m52.562501 30.739583q5.052083-.3125 7.291666-1.40625 1.458333 0 3.854167 1.979166l-.05208.625q-1.25.78125-4.322916 3.541667-3.072917 2.760417-6.5625 5.46875-3.489583 2.65625-6.614583 3.958333-2.1875.9375-3.854167.9375h-.3125l8.177083-5.416666q5.625-4.0625 8.177083-8.125.05208-.520834-.625-.520834h-.208333q-.46875 0-1.979167.15625-1.510416.104167-1.822916.104167-1.354167 0-2.03125-.572917-3.4375 2.65625-5.364583 3.489584l-.729167-.05208q.208333-.520833 1.979167-2.1875 1.770829-1.718753 3.385412-3.593753 1.666667-1.927084 1.71875-3.229167l-.052083-1.145833q.104167-.364584.572917-.364584.885416 0 2.708333 2.447917v.833333zm.3125 6.145833q-.520834 0-1.40625-.729167-.833334-.78125-1.458334-1.666666 0-.625.260417-.729167 1.145833.05208 1.875.364583.729167.3125.833333.46875.104167.104167.416667.572917l.208333.833333q-.15625.885417-.729166.885417zm-3.854167 2.083333q0 1.197917-.833333 1.197917-.520834 0-1.197917-.46875l-.572917-.364583-1.5625-1.510417q-.46875-.572917-.46875-1.302083.520834-.104167.833334-.104167 1.197916 0 2.5.833333 1.302083.78125 1.302083 1.71875zm5.3125 23.072916q1.145833-.833333 1.145833-3.697916.05208-.677083.05208-2.5 0-3.645833-.208333-8.072917-3.072916.208334-7.239583 1.25l-2.916667.833334q-.15625.05208-.3125.05208h-.364583q-1.041667 0-1.71875-.416667l-.677083-.572916q-.208334-.208334-.260417-.3125l.15625-.260417 13.229166-2.03125q0-2.604166-1.458333-4.6875 0-.520833.416667-.677083 2.8125.416667 4.427083 2.395833 0 .05208-.416667 1.5625l-.104166.677083 5.260416-.937499q.3125-.05208.885417-.05208 1.614583 0 2.65625.625 1.041667.625 1.145833 1.40625-.677083.625-9.114583.833333h-.989583l.15625 9.895834.260416 4.583333q0 2.1875-.677083 3.697916-.625 1.510417-1.302083 1.822917-.416667 0-.729167-.208333-.260417-.15625-.572917-.520834-.3125-.3125-1.197916-1.25-.885417-.9375-2.083333-1.979166-1.041667-.9375-1.770834-1.71875l.15625-.208334zm-5.625-4.218749q-2.864583-2.447917-4.166667-4.53125-.208333-.260417-.05208-1.25.208333-.104167.46875-.104167.989583 0 2.916667 1.197917 1.979166 1.197916 2.239583 1.875.15625.364583.15625 1.354166 0 .833334-.364583 1.145834-.3125.3125-1.197917.3125zm-10.885416-20.260417q0-1.041666 0-2.65625.05208-1.614583.05208-1.875 0-4.010416-1.666667-5.989583-.364583-.833333.885417-.9375h.572917q2.239583 1.302084 3.541666 2.395834 0 .572916-.3125 1.302083-.3125.677083-.677083 2.8125-.3125 2.135416-.3125 6.197916v.729167.572917q0 11.354166-.260417 17.447916-.260416 6.09375-.260416 6.302083-.260417 1.041667-1.09375 1.510417-1.71875-.9375-1.71875-3.958334 0-.9375.15625-2.03125l.520833-3.489583.520833-8.854166h-.05208q-1.041667 0-4.739583 1.458333l-1.09375.46875 1.25 1.197917.364583.78125q.05208.15625.05208.46875-2.96875 6.354166-4.947916 9.166666-1.979167 2.760417-3.90625 3.385417v-.46875q5.677083-8.072917 5.677083-13.59375-.104167-.104167-.260417-.104167-.46875 0-1.875.625-1.354166.625-1.614583.677084l-1.927083-1.354167q-.46875-.3125-.729167-.9375.05208-.3125.104167-.416667.05208-.15625.260417-.208333.260416-.05208.520833-.05208.260417-.05208.833333-.104167.625-.05208 1.25-.15625l10.729167-2.135417q.208333-2.447916.208333-4.479166 0-1.145833-.05208-1.5625-4.21875 1.614583-6.875 2.8125-1.354167 0-1.354167-1.71875 0-.78125.3125-2.239583.364583-1.510417.364583-1.822917 0-3.177083-1.354166-5.260417 0-.416666.364583-.572916 1.822917.104167 3.4375 1.822916l-.364583 5.989584v.46875l.208333.15625 5.260417-.9375z" fill="#050" stroke="#050"/></g></svg>