<?xml version="1.0" encoding="UTF-8" standalone="no"?>
<svg
   xmlns:dc="http://purl.org/dc/elements/1.1/"
   xmlns:cc="http://creativecommons.org/ns#"
   xmlns:rdf="http://www.w3.org/1999/02/22-rdf-syntax-ns#"
   xmlns:svg="http://www.w3.org/2000/svg"
   xmlns="http://www.w3.org/2000/svg"
   xmlns:xlink="http://www.w3.org/1999/xlink"
   xmlns:sodipodi="http://sodipodi.sourceforge.net/DTD/sodipodi-0.dtd"
   xmlns:inkscape="http://www.inkscape.org/namespaces/inkscape"
   inkscape:export-ydpi="365.15302"
   inkscape:export-xdpi="365.15302"
   inkscape:export-filename="D:\Pictures\Chess Variants\Xiangqi\pieces\Internationalized\Wood\Red Cannon.png"
   sodipodi:docname="red_elephant.svg"
   inkscape:version="1.0 (4035a4fb49, 2020-05-01)"
   version="1.1"
   id="svg2"
   height="92"
   width="92">
  <metadata
     id="metadata12">
    <rdf:RDF>
      <cc:Work
         rdf:about="">
        <dc:format>image/svg+xml</dc:format>
        <dc:type
           rdf:resource="http://purl.org/dc/dcmitype/StillImage" />
        <dc:title />
      </cc:Work>
    </rdf:RDF>
  </metadata>
  <defs
     id="defs10">
    <linearGradient
       id="linearGradient855"
       inkscape:collect="always">
      <stop
         id="stop851"
         offset="0"
         style="stop-color:#dca682;stop-opacity:1" />
      <stop
         style="stop-color:#dcae90;stop-opacity:0.98039216"
         offset="0.18120606"
         id="stop861" />
      <stop
         id="stop863"
         offset="0.36145115"
         style="stop-color:#d5a17e;stop-opacity:0.97254902" />
      <stop
         style="stop-color:#d5a17f;stop-opacity:0.96862745"
         offset="0.55711311"
         id="stop865" />
      <stop
         id="stop867"
         offset="0.7371344"
         style="stop-color:#d29b78;stop-opacity:0.96470588" />
      <stop
         style="stop-color:#dcaa88;stop-opacity:0.96470588"
         offset="0.88531494"
         id="stop869" />
      <stop
         id="stop853"
         offset="1"
         style="stop-color:#dba37e;stop-opacity:0.96470588" />
    </linearGradient>
    <radialGradient
       gradientTransform="matrix(0.29888985,0,0,0.28666316,31.817329,34.478952)"
       spreadMethod="repeat"
       gradientUnits="userSpaceOnUse"
       r="40.95509"
       fy="48.334743"
       fx="45.381359"
       cy="48.334743"
       cx="45.381359"
       id="radialGradient859"
       xlink:href="#linearGradient855"
       inkscape:collect="always" />
    <radialGradient
       spreadMethod="repeat"
       r="40.95509"
       fy="48.334743"
       fx="45.381359"
       cy="48.334743"
       cx="45.381359"
       gradientTransform="matrix(0.48654155,0,0,0.51052834,23.30144,23.658486)"
       gradientUnits="userSpaceOnUse"
       id="radialGradient871"
       xlink:href="#linearGradient855"
       inkscape:collect="always" />
    <filter
       id="filter1043"
       inkscape:label="Drop Shadow"
       style="color-interpolation-filters:sRGB;">
      <feFlood
         id="feFlood1033"
         result="flood"
         flood-color="rgb(0,0,0)"
         flood-opacity="0.498039" />
      <feComposite
         id="feComposite1035"
         result="composite1"
         operator="in"
         in2="SourceGraphic"
         in="flood" />
      <feGaussianBlur
         id="feGaussianBlur1037"
         result="blur"
         stdDeviation="2.1"
         in="composite1" />
      <feOffset
         id="feOffset1039"
         result="offset"
         dy="4"
         dx="0" />
      <feComposite
         id="feComposite1041"
         result="composite2"
         operator="over"
         in2="offset"
         in="SourceGraphic" />
    </filter>
    <filter
       id="filter19940"
       inkscape:label="Drop Shadow"
       style="color-interpolation-filters:sRGB;">
      <feFlood
         id="feFlood19930"
         result="flood"
         flood-color="rgb(0,0,0)"
         flood-opacity="0.498039" />
      <feComposite
         id="feComposite19932"
         result="composite1"
         operator="out"
         in2="SourceGraphic"
         in="flood" />
      <feGaussianBlur
         id="feGaussianBlur19934"
         result="blur"
         stdDeviation="1"
         in="composite1" />
      <feOffset
         id="feOffset19936"
         result="offset"
         dy="1"
         dx="0" />
      <feComposite
         id="feComposite19938"
         result="composite2"
         operator="atop"
         in2="SourceGraphic"
         in="offset" />
    </filter>
  </defs>
  <sodipodi:namedview
     inkscape:document-rotation="0"
     showguides="false"
     inkscape:pagecheckerboard="false"
     fit-margin-bottom="0"
     fit-margin-right="0"
     fit-margin-left="0"
     fit-margin-top="0"
     inkscape:current-layer="layer2"
     inkscape:window-maximized="1"
     inkscape:window-y="-8"
     inkscape:window-x="-8"
     inkscape:cy="103.25452"
     inkscape:cx="-299.85225"
     inkscape:zoom="1.3559216"
     showgrid="false"
     id="namedview8"
     inkscape:window-height="705"
     inkscape:window-width="1366"
     inkscape:pageshadow="2"
     inkscape:pageopacity="0"
     guidetolerance="10"
     gridtolerance="10"
     objecttolerance="10"
     borderopacity="1"
     bordercolor="#666666"
     pagecolor="#ffffff" />
  <g
     style="display:inline"
     inkscape:label="Background"
     id="layer1"
     inkscape:groupmode="layer">
    <g
       transform="translate(0.61863804,-2.3347464)"
       id="g25621"
       style="fill:url(#radialGradient859);fill-opacity:1">
      <circle
         style="color:#000000;display:inline;overflow:visible;visibility:visible;opacity:1;fill:url(#radialGradient871);fill-opacity:1;fill-rule:nonzero;stroke:none;stroke-width:0.32569826;stroke-linecap:round;stroke-linejoin:miter;stroke-miterlimit:10;stroke-dasharray:none;stroke-dashoffset:0;stroke-opacity:1;marker:none;filter:url(#filter1043);enable-background:accumulate"
         id="circle4376-8-9"
         cx="45.381359"
         cy="48.334743"
         r="40.79224" />
    </g>
  </g>
  <g
     style="display:inline"
     inkscape:label="Symbol"
     id="layer2"
     inkscape:groupmode="layer">
    <g
       id="text32186"
       style="font-style:normal;font-variant:normal;font-weight:500;font-stretch:normal;font-size:53.33333206px;line-height:1.25;font-family:'cwTeX Q Kai';-inkscape-font-specification:'cwTeX Q Kai, Medium';font-variant-ligatures:normal;font-variant-caps:normal;font-variant-numeric:normal;font-feature-settings:normal;text-align:start;letter-spacing:0px;word-spacing:0px;writing-mode:lr-tb;text-anchor:start;display:inline;fill:#ff0000;fill-opacity:1;stroke:#ff0000;stroke-width:1;stroke-miterlimit:4;stroke-dasharray:none;stroke-opacity:1;filter:url(#filter19940)"
       aria-label="相"
       transform="matrix(1.2935325,0,0,1.2935325,-13.502495,-13.63724)">
      <path
         style="fill:#ff0000;stroke:#ff0000"
         id="path37321"
         d="m 48.344205,35.479166 q 0.572916,0 1.145833,0.364583 0.625,0.364584 0.833333,0.677084 l 8.020833,-2.135417 q 0.520834,-0.15625 1.458334,-0.46875 4.84375,1.458333 4.84375,3.229167 -1.041667,1.354166 -1.041667,2.5 l 0.520833,12.083333 0.46875,5.729166 v 0.208334 q 0,3.906249 -1.979166,5.572916 h -0.78125 q -1.40625,-2.083333 -3.177084,-4.21875 l -7.968749,0.677083 q -0.260417,1.614584 -0.416667,2.03125 -0.15625,0.364584 -0.729167,0.677084 -0.833333,-0.104167 -1.354166,-1.458334 -0.520834,-1.354166 -0.520834,-2.187499 0,-0.78125 0.3125,-2.083334 0.364584,-1.302083 0.677084,-4.21875 0.364583,-2.96875 0.364583,-7.760416 0,-2.708333 -0.260417,-4.791667 l -1.197916,-3.90625 v -0.208333 q 0.3125,-0.3125 0.78125,-0.3125 z m 13.020833,10.729166 q 0,-5.781249 -0.46875,-7.604166 -0.46875,-1.875 -1.927084,-1.875 h -0.15625 -0.208333 l -2.291667,0.46875 q -0.104166,0 -0.729166,0.104167 -0.625,0.104166 -1.822917,0.3125 -1.197916,0.208333 -2.5,0.416666 l -0.208333,5.9375 q 3.4375,-1.354166 5.260416,-1.354166 1.302084,0 2.291667,0.989583 0.625,0.677083 -0.3125,0.833333 l -7.291666,0.989583 -0.104167,5.260417 q 2.96875,-1.145833 5.052083,-1.145833 2.03125,0 2.96875,1.145833 0,0.625 -0.885417,0.833333 -0.833333,0.15625 -4.375,0.416667 -1.249999,0.104167 -2.031249,0.15625 -0.3125,0.05208 -0.729167,0.05208 v 5.833334 q 3.59375,-1.145834 6.041666,-1.145834 2.239584,0 3.28125,0.989584 0.208334,0 0.364584,-0.260417 0.15625,-0.260417 0.260416,-0.625 0.104167,-0.364583 0.15625,-0.416667 z M 42.562955,37.718749 q 2.135416,0 3.28125,1.302084 -0.104167,1.197916 -4.739584,2.03125 l -0.989583,0.208333 q -0.104167,0.677083 -0.15625,2.239583 0,1.5625 -0.15625,2.552083 l 3.385417,0.9375 q 1.197916,0.46875 2.03125,1.354167 0.15625,0.677083 0.15625,2.135417 -0.208334,0.260416 -0.46875,0.364583 -0.208334,0.05208 -0.364584,0.05208 -0.15625,-0.05208 -0.364583,-0.104166 -0.15625,-0.104167 -0.208333,-0.104167 l -4.166667,-3.4375 -0.364583,17.135416 q 0,0.416667 -0.104167,0.78125 -0.104166,0.416667 -0.364583,0.677084 -0.208333,0.3125 -0.364583,0.46875 -0.15625,0.208333 -0.416667,0.416666 -0.260417,0.260417 -0.3125,0.3125 -0.885417,-0.3125 -1.40625,-1.666666 -0.46875,-1.354167 -0.46875,-2.760417 0,-1.71875 0.677083,-4.84375 0.729167,-3.177083 0.729167,-4.791666 l 0.05208,-7.03125 v -0.05208 q -3.489583,6.71875 -11.197916,11.927084 l -0.46875,0.3125 -0.625,-0.05208 v -0.416666 q 8.020833,-8.697917 11.458333,-15.520833 -0.3125,0 -2.96875,0.46875 -2.604167,0.416666 -3.75,0.416666 -2.447917,0 -3.541667,-1.197916 0.625,-0.625 11.25,-2.552084 l 0.3125,-0.364583 -0.05208,-8.59375 q 0,-1.09375 -1.770833,-4.270833 0,-0.572917 0.520833,-0.885417 1.25,0 3.020833,1.145834 1.770833,1.09375 1.770833,1.927083 0,0.104167 -0.364583,1.302083 -0.3125,1.145834 -0.625,3.489583 -0.3125,2.291667 -0.3125,5.260417 2.083333,-0.572917 2.447917,-0.572917 z"
         inkscape:connector-curvature="0" />
    </g>
  </g>
</svg>
