<svg height="92" width="92" xmlns="http://www.w3.org/2000/svg" xmlns:xlink="http://www.w3.org/1999/xlink"><linearGradient id="a"><stop offset="0" stop-color="#dca682"/><stop offset=".18120606" stop-color="#dcae90" stop-opacity=".980392"/><stop offset=".36145115" stop-color="#d5a17e" stop-opacity=".972549"/><stop offset=".55711311" stop-color="#d5a17f" stop-opacity=".968627"/><stop offset=".7371344" stop-color="#d29b78" stop-opacity=".964706"/><stop offset=".88531494" stop-color="#dcaa88" stop-opacity=".964706"/><stop offset="1" stop-color="#dba37e" stop-opacity=".964706"/></linearGradient><radialGradient cx="45.381359" cy="48.334743" gradientTransform="matrix(.29888985 0 0 .28666316 31.817329 34.478952)" gradientUnits="userSpaceOnUse" r="40.95509" spreadMethod="repeat" xlink:href="#a"/><radialGradient id="b" cx="45.381359" cy="48.334743" gradientTransform="matrix(.48654155 0 0 .51052834 23.30144 23.658486)" gradientUnits="userSpaceOnUse" r="40.95509" spreadMethod="repeat" xlink:href="#a"/><filter id="c" color-interpolation-filters="sRGB"><feFlood flood-opacity=".498039" result="flood"/><feComposite in="flood" in2="SourceGraphic" operator="in" result="composite1"/><feGaussianBlur in="composite1" result="blur" stdDeviation="2.1"/><feOffset dx="0" dy="4" result="offset"/><feComposite in="SourceGraphic" in2="offset" operator="over" result="composite2"/></filter><filter id="d" color-interpolation-filters="sRGB"><feFlood flood-opacity=".498039" result="flood"/><feComposite in="flood" in2="SourceGraphic" operator="out" result="composite1"/><feGaussianBlur in="composite1" result="blur" stdDeviation="1"/><feOffset dx="0" dy="1" result="offset"/><feComposite in="offset" in2="SourceGraphic" operator="atop" result="composite2"/></filter><circle cx="45.381359" cy="48.334743" fill="url(#b)" filter="url(#c)" r="40.79224" transform="translate(.618638 -2.334746)"/><g fill="#f00" filter="url(#d)" stroke="#f00" transform="matrix(1.2732095 0 0 1.2732095 -12.567639 -13.915538)"><path d="m50.791667 40.583333q.572917.416666.885417.729166.364583.260417.416667.364584.05208.05208.104166.208333.05208.104167.104167.15625-.05208.260417-.885417 2.5-.833333 2.239583-1.354166 4.6875h.729166l10.572917-1.71875q.05208 0 .208333 0 .15625-.05208.208333-.05208 1.40625 0 2.96875 1.041667 1.614584.989583 1.614584 2.03125l-.677084.416663q-20.833333 0-33.802082 2.5-2.65625.677083-3.125.677083h-.208334q-1.770833 0-2.916666-1.71875 0-.416667.208333-.416667l12.34375-1.25v-.46875q0-2.291666-1.40625-11.458333-.260417-1.510416-2.447917-6.09375 0-.677083.833334-.677083 1.197916 0 4.010416 1.40625 2.96875-1.354167 4.635417-2.135417 1.71875-.781249 3.697916-1.979166 1.979167-1.25 2.395834-2.135417l.260416-.729166.15625-.15625 1.09375.05208 3.072917 1.614583q1.354166.989584 1.354166 1.302084 0 .833333-1.822916 1.09375-2.395833.520833-6.71875 1.979166-4.322917 1.40625-7.5 2.083333v5.260417q3.125-.15625 8.958333-1.458333 5.885417-1.354167 6.927083-1.354167 1.510417 0 2.239584.572917.729166.572916.572916 1.197916-.9375.572917-5.989583 1.510417zm-2.65625.46875q-5.052083.78125-6.302083.78125h-.625q-.833333 0-1.25-.05208.625 7.552083.833333 8.59375.572917-.104167 3.4375-.416667 2.916667-.364583 3.75-.46875l.416667-5.677083q0-1.354166-.260417-2.760416zm12.760417 22.447916q0 1.197916-.885417 2.083333-.885417 0-1.71875-.677083-.833333-.677084-1.666667-1.770834-.833333-1.145833-1.041666-1.354166-1.770833-1.979167-6.25-6.510417-.15625-.78125.104167-1.302083 5.989583 2.8125 8.697916 4.84375 2.760417 2.03125 2.760417 4.6875zm-21.40625-9.53125q.625 0 1.927083 1.25 1.302084 1.25 1.302084 2.239583 0 .15625-.05208.260417-.05208.104167-.520833.364583-.416667.208334-1.302083.572917l-6.770833 4.166666q-3.541667 1.979167-5.104167 1.979167-.520833 0-.78125-.208333l.05208-.416667q7.916667-5.677083 10.520834-8.59375-.208334-1.614583.729165-1.614583z" fill="#f00" stroke="#f00"/></g></svg>