<svg height="92" width="92" xmlns="http://www.w3.org/2000/svg" xmlns:xlink="http://www.w3.org/1999/xlink"><linearGradient id="a"><stop offset="0" stop-color="#dca682"/><stop offset=".18120606" stop-color="#dcae90" stop-opacity=".980392"/><stop offset=".36145115" stop-color="#d5a17e" stop-opacity=".972549"/><stop offset=".55711311" stop-color="#d5a17f" stop-opacity=".968627"/><stop offset=".7371344" stop-color="#d29b78" stop-opacity=".964706"/><stop offset=".88531494" stop-color="#dcaa88" stop-opacity=".964706"/><stop offset="1" stop-color="#dba37e" stop-opacity=".964706"/></linearGradient><radialGradient cx="45.381359" cy="48.334743" gradientTransform="matrix(.29888985 0 0 .28666316 31.817329 34.478952)" gradientUnits="userSpaceOnUse" r="40.95509" spreadMethod="repeat" xlink:href="#a"/><radialGradient id="b" cx="45.381359" cy="48.334743" gradientTransform="matrix(.48654155 0 0 .51052834 23.30144 23.658486)" gradientUnits="userSpaceOnUse" r="40.95509" spreadMethod="repeat" xlink:href="#a"/><filter id="c" color-interpolation-filters="sRGB"><feFlood flood-opacity=".498039" result="flood"/><feComposite in="flood" in2="SourceGraphic" operator="in" result="composite1"/><feGaussianBlur in="composite1" result="blur" stdDeviation="2.1"/><feOffset dx="0" dy="4" result="offset"/><feComposite in="SourceGraphic" in2="offset" operator="over" result="composite2"/></filter><filter id="d" color-interpolation-filters="sRGB"><feFlood flood-opacity=".498039" result="flood"/><feComposite in="flood" in2="SourceGraphic" operator="out" result="composite1"/><feGaussianBlur in="composite1" result="blur" stdDeviation="1"/><feOffset dx="0" dy="1" result="offset"/><feComposite in="offset" in2="SourceGraphic" operator="atop" result="composite2"/></filter><circle cx="45.381359" cy="48.334743" fill="url(#b)" filter="url(#c)" r="40.79224" transform="translate(.618638 -2.334746)"/><g fill="#f00" filter="url(#d)" stroke="#f00" transform="matrix(1.2935325 0 0 1.2935325 -13.502495 -13.63724)"><path d="m48.344205 35.479166q.572916 0 1.145833.364583.625.364584.833333.677084l8.020833-2.135417q.520834-.15625 1.458334-.46875 4.84375 1.458333 4.84375 3.229167-1.041667 1.354166-1.041667 2.5l.520833 12.083333.46875 5.729166v.208334q0 3.906249-1.979166 5.572916h-.78125q-1.40625-2.083333-3.177084-4.21875l-7.968749.677083q-.260417 1.614584-.416667 2.03125-.15625.364584-.729167.677084-.833333-.104167-1.354166-1.458334-.520834-1.354166-.520834-2.187499 0-.78125.3125-2.083334.364584-1.302083.677084-4.21875.364583-2.96875.364583-7.760416 0-2.708333-.260417-4.791667l-1.197916-3.90625v-.208333q.3125-.3125.78125-.3125zm13.020833 10.729166q0-5.781249-.46875-7.604166-.46875-1.875-1.927084-1.875h-.15625-.208333l-2.291667.46875q-.104166 0-.729166.104167-.625.104166-1.822917.3125-1.197916.208333-2.5.416666l-.208333 5.9375q3.4375-1.354166 5.260416-1.354166 1.302084 0 2.291667.989583.625.677083-.3125.833333l-7.291666.989583-.104167 5.260417q2.96875-1.145833 5.052083-1.145833 2.03125 0 2.96875 1.145833 0 .625-.885417.833333-.833333.15625-4.375.416667-1.249999.104167-2.031249.15625-.3125.05208-.729167.05208v5.833334q3.59375-1.145834 6.041666-1.145834 2.239584 0 3.28125.989584.208334 0 .364584-.260417.15625-.260417.260416-.625.104167-.364583.15625-.416667zm-18.802083-8.489583q2.135416 0 3.28125 1.302084-.104167 1.197916-4.739584 2.03125l-.989583.208333q-.104167.677083-.15625 2.239583 0 1.5625-.15625 2.552083l3.385417.9375q1.197916.46875 2.03125 1.354167.15625.677083.15625 2.135417-.208334.260416-.46875.364583-.208334.05208-.364584.05208-.15625-.05208-.364583-.104166-.15625-.104167-.208333-.104167l-4.166667-3.4375-.364583 17.135416q0 .416667-.104167.78125-.104166.416667-.364583.677084-.208333.3125-.364583.46875-.15625.208333-.416667.416666-.260417.260417-.3125.3125-.885417-.3125-1.40625-1.666666-.46875-1.354167-.46875-2.760417 0-1.71875.677083-4.84375.729167-3.177083.729167-4.791666l.05208-7.03125v-.05208q-3.489583 6.71875-11.197916 11.927084l-.46875.3125-.625-.05208v-.416666q8.020833-8.697917 11.458333-15.520833-.3125 0-2.96875.46875-2.604167.416666-3.75.416666-2.447917 0-3.541667-1.197916.625-.625 11.25-2.552084l.3125-.364583-.05208-8.59375q0-1.09375-1.770833-4.270833 0-.572917.520833-.885417 1.25 0 3.020833 1.145834 1.770833 1.09375 1.770833 1.927083 0 .104167-.364583 1.302083-.3125 1.145834-.625 3.489583-.3125 2.291667-.3125 5.260417 2.083333-.572917 2.447917-.572917z" fill="#f00" stroke="#f00"/></g></svg>