<svg clip-rule="evenodd" fill-rule="evenodd" height="150" image-rendering="optimizeQuality" shape-rendering="geometricPrecision" viewBox="0 0 42.332224 42.332224" width="150" xmlns="http://www.w3.org/2000/svg"><g fill-rule="nonzero" stroke-width="1.17165" transform="matrix(.24086874 0 0 .24086874 1135.2781 -341.86658)"><path d="m-4566.8077 1448.5979h-117.1654v117.1654h117.1654z" fill="#333"/><g stroke-width="1.17165"><path d="m4581.9258 1463.7159h86.929138v86.929138h-86.929138z" fill="#f7e6ae" transform="scale(-1 1)"/><path d="m-4578.1463 1459.9365v94.4882h-94.4882v-94.4882zm-3.7675 3.7995h-86.9531v86.9225h86.9531z" fill="#9b8028"/><circle cx="4625.3906" cy="1507.1805" r="5.669292" transform="scale(-1 1)"/><g stroke-width="1.17165" transform="matrix(-1.0666667 0 0 1.0666667 -3858.996 807.31931)"><circle cx="704.32172" cy="641.94666" fill="#e32323" r="5.314961"/><circle cx="732.66821" cy="641.94666" fill="#e32323" r="5.314961"/><circle cx="732.66821" cy="670.29309" fill="#771d1d" r="5.314961"/><circle cx="704.32172" cy="670.29309" fill="#771d1d" r="5.314961"/><circle cx="718.49493" cy="641.94666" fill="#771d1d" r="5.314961"/><g fill="#e32323"><circle cx="732.66821" cy="656.11987" r="5.314961"/><circle cx="718.49493" cy="670.29309" r="5.314961"/><circle cx="704.32172" cy="656.11987" r="5.314961"/></g></g></g></g></svg>