<?xml version="1.0" encoding="UTF-8" standalone="no"?>
<!-- Created with Inkscape (http://www.inkscape.org/) -->

<svg
   xmlns:dc="http://purl.org/dc/elements/1.1/"
   xmlns:cc="http://creativecommons.org/ns#"
   xmlns:rdf="http://www.w3.org/1999/02/22-rdf-syntax-ns#"
   xmlns:svg="http://www.w3.org/2000/svg"
   xmlns="http://www.w3.org/2000/svg"
   xmlns:sodipodi="http://sodipodi.sourceforge.net/DTD/sodipodi-0.dtd"
   xmlns:inkscape="http://www.inkscape.org/namespaces/inkscape"
   width="353"
   height="353"
   viewBox="0 0 93.397917 93.397917"
   version="1.1"
   id="svg8022"
   sodipodi:docname="bK.svg"
   inkscape:version="0.92.4 5da689c313, 2019-01-14">
  <defs
     id="defs8016" />
  <sodipodi:namedview
     id="base"
     pagecolor="#ffffff"
     bordercolor="#666666"
     borderopacity="1.0"
     inkscape:pageopacity="0.0"
     inkscape:pageshadow="2"
     inkscape:zoom="0.98994949"
     inkscape:cx="243.35586"
     inkscape:cy="207.40359"
     inkscape:document-units="mm"
     inkscape:current-layer="layer1"
     showgrid="false"
     units="px"
     inkscape:window-width="1362"
     inkscape:window-height="720"
     inkscape:window-x="0"
     inkscape:window-y="46"
     inkscape:window-maximized="0"
     showguides="false"
     inkscape:snap-nodes="false" />
  <metadata
     id="metadata8019">
    <rdf:RDF>
      <cc:Work
         rdf:about="">
        <dc:format>image/svg+xml</dc:format>
        <dc:type
           rdf:resource="http://purl.org/dc/dcmitype/StillImage" />
        <dc:title></dc:title>
      </cc:Work>
    </rdf:RDF>
  </metadata>
  <g
     inkscape:groupmode="layer"
     id="layer2"
     inkscape:label="Outer"
     style="display:inline" />
  <g
     inkscape:label="Inner"
     inkscape:groupmode="layer"
     id="layer1"
     transform="translate(0,-203.60208)"
     style="display:inline">
    <g
       transform="matrix(1.1072866,0,0,1.0799418,-5.663627,-22.040776)"
       style="display:inline"
       id="g10245">
      <g
         transform="matrix(0.85014711,0,0,0.85014711,7.679947,215.7698)"
         style="display:inline"
         inkscape:label="Outer"
         id="layer2-8">
        <path
           sodipodi:nodetypes="ccccccccccccccccccccccccccc"
           inkscape:connector-curvature="0"
           id="path861-9-0"
           d="m 47.363328,6.2760721 c -2.478718,0.297824 -3.971526,0.810079 -6.547886,4.3652529 -2.65695,1.811004 -3.425889,4.502429 -4.817519,7.036473 -3.132006,1.749422 -2.619301,2.889425 -0.21124,3.942811 -0.78759,6.147315 0.748229,7.584416 2.705329,9.157212 -3.41608,1.507239 -7.30431,2.672777 -8.5193,5.280552 -3.37414,-0.622231 -4.15938,0.199835 -4.7173,2.041812 l -6.266248,3.027513 -0.281618,32.739407 1.971406,2.182629 c -0.979751,0.73582 -2.599027,1.087906 -2.745902,2.323444 l -0.07041,5.139732 c 0.528209,0.797358 1.262864,0.768951 1.971407,0.844883 17.408628,0.09123 36.810344,0.25486 52.383071,0.211234 0.93855,-0.25838 2.30771,-0.08611 2.74588,-0.844883 l 0.35203,-6.26626 -2.67546,-1.478552 2.1122,-1.971404 -0.28162,-33.16185 c -2.30761,-1.087214 -4.25546,-1.814676 -6.19584,-2.534664 -1.62989,-2.887631 -3.11515,-2.481099 -5.56219,-2.534664 -1.32785,-3.158042 -5.24164,-4.041612 -8.16724,-5.069326 2.3831,-1.968468 3.30577,-4.629824 3.72806,-9.236907 1.37514,-1.294025 2.77186,-2.082863 -0.0669,-3.718042 -0.56521,-1.619377 -0.48437,-3.238744 -3.16834,-4.858113 -1.24012,-4.9619382 -4.95342,-6.6510909 -7.6744,-6.6182889 z"
           style="fill:#3f7551;stroke:#000000;stroke-width:2.11666656;stroke-linecap:butt;stroke-linejoin:miter;stroke-miterlimit:4;stroke-dasharray:none;stroke-opacity:1" />
      </g>
      <g
         style="display:inline"
         transform="matrix(0.85014711,0,0,0.85014711,7.679947,42.678084)"
         id="layer1-5"
         inkscape:label="Inner">
        <path
           sodipodi:nodetypes="cc"
           inkscape:connector-curvature="0"
           id="path873-2"
           d="m 38.735941,234.52356 c 4.318698,2.44406 8.896955,4.20215 15.756581,-0.0691"
           style="fill:none;stroke:#000000;stroke-width:2.11666656;stroke-linecap:butt;stroke-linejoin:miter;stroke-miterlimit:4;stroke-dasharray:none;stroke-opacity:1" />
        <path
           inkscape:connector-curvature="0"
           id="path883-1"
           d="m 25.74367,241.71078 21.008776,17.89891 21.216103,-17.6916"
           style="fill:none;stroke:#000000;stroke-width:2.11666656;stroke-linecap:butt;stroke-linejoin:miter;stroke-miterlimit:4;stroke-dasharray:none;stroke-opacity:1;filter:url(#filter2848)" />
        <path
           sodipodi:nodetypes="cc"
           inkscape:connector-curvature="0"
           id="path875-0"
           d="m 32.930882,237.14965 c 8.038091,5.56901 16.279611,10.14346 27.574021,-0.20734"
           style="fill:none;stroke:#000000;stroke-width:1.32291663;stroke-linecap:butt;stroke-linejoin:miter;stroke-miterlimit:4;stroke-dasharray:none;stroke-opacity:1" />
        <path
           sodipodi:nodetypes="cc"
           inkscape:connector-curvature="0"
           id="path877-5"
           d="m 30.373894,239.70665 c 12.479214,8.43345 22.777161,6.34549 32.135136,-0.27643"
           style="fill:none;stroke:#000000;stroke-width:2.11666656;stroke-linecap:butt;stroke-linejoin:miter;stroke-miterlimit:4;stroke-dasharray:none;stroke-opacity:1" />
        <path
           inkscape:connector-curvature="0"
           id="path881-1"
           d="M 30.373894,239.70665 46.890664,249.8655 62.50903,239.43022"
           style="fill:none;stroke:#000000;stroke-width:1.32291663;stroke-linecap:butt;stroke-linejoin:miter;stroke-miterlimit:4;stroke-dasharray:none;stroke-opacity:1" />
        <path
           sodipodi:nodetypes="ccccc"
           inkscape:connector-curvature="0"
           id="path887-1"
           d="m 72.736989,243.78402 c -3.149768,0.86349 -6.0176,2.50231 -8.431154,5.39039 l -0.207334,26.95207 c 0.530741,1.08293 0.521573,1.74506 2.280558,3.17894 2.058275,0.66354 5.002131,0.86137 6.876425,0.0531"
           style="fill:none;stroke:#000000;stroke-width:2.11666656;stroke-linecap:butt;stroke-linejoin:miter;stroke-miterlimit:4;stroke-dasharray:none;stroke-opacity:1" />
        <path
           sodipodi:nodetypes="csssc"
           inkscape:connector-curvature="0"
           id="path889-0"
           d="m 29.613705,252.76803 c 3.79726,0.19839 1.680415,9.93253 3.524502,11.33368 5.006008,3.80356 9.246825,3.49423 13.060853,3.61079 4.913211,0.15016 9.118188,-0.22324 13.338336,-3.12704 3.328905,-2.29049 -0.151375,-10.71803 4.768439,-12.43941"
           style="fill:none;stroke:#000000;stroke-width:2.11666656;stroke-linecap:butt;stroke-linejoin:miter;stroke-miterlimit:4;stroke-dasharray:none;stroke-opacity:1" />
        <path
           inkscape:connector-curvature="0"
           id="path891-8"
           d="m 23.117573,263.54885 h 6.565241"
           style="fill:none;stroke:#000000;stroke-width:1.05833328;stroke-linecap:butt;stroke-linejoin:miter;stroke-miterlimit:4;stroke-dasharray:none;stroke-opacity:1" />
        <path
           inkscape:connector-curvature="0"
           id="path893-5"
           d="M 70.318215,263.68706 H 64.098511"
           style="fill:none;stroke:#000000;stroke-width:1.05833328;stroke-linecap:butt;stroke-linejoin:miter;stroke-miterlimit:4;stroke-dasharray:none;stroke-opacity:1" />
        <path
           sodipodi:nodetypes="cc"
           inkscape:connector-curvature="0"
           id="path895-0"
           d="m 19.523964,273.43126 c 3.754859,-2.03283 6.334883,-2.27591 10.089741,-0.27643"
           style="fill:none;stroke:#000000;stroke-width:1.58749998;stroke-linecap:butt;stroke-linejoin:miter;stroke-miterlimit:4;stroke-dasharray:none;stroke-opacity:1" />
        <path
           inkscape:connector-curvature="0"
           id="path899-6"
           d="m 25.39813,275.36628 v 4.4714"
           style="fill:none;stroke:#000000;stroke-width:1.13759148;stroke-linecap:butt;stroke-linejoin:miter;stroke-miterlimit:4;stroke-dasharray:none;stroke-opacity:1" />
        <path
           inkscape:connector-curvature="0"
           id="path901-4"
           d="m 22.184615,275.69456 v 3.48992"
           style="fill:none;stroke:#000000;stroke-width:1.05833328;stroke-linecap:butt;stroke-linejoin:miter;stroke-miterlimit:4;stroke-dasharray:none;stroke-opacity:1" />
        <path
           sodipodi:nodetypes="cc"
           inkscape:connector-curvature="0"
           id="path895-3-6"
           d="m 74.013487,273.27577 c -3.754859,-2.03284 -6.334886,-2.27593 -10.089744,-0.27644"
           style="fill:none;stroke:#000000;stroke-width:1.58749998;stroke-linecap:butt;stroke-linejoin:miter;stroke-miterlimit:4;stroke-dasharray:none;stroke-opacity:1" />
        <path
           sodipodi:nodetypes="cc"
           inkscape:connector-curvature="0"
           id="path899-9-2"
           d="m 68.139321,275.2108 v 4.35377"
           style="fill:none;stroke:#000000;stroke-width:1.05833328;stroke-linecap:butt;stroke-linejoin:miter;stroke-miterlimit:4;stroke-dasharray:none;stroke-opacity:1" />
        <path
           inkscape:connector-curvature="0"
           id="path901-6-5"
           d="m 71.352834,275.53905 v 3.48996"
           style="fill:none;stroke:#000000;stroke-width:1.05833328;stroke-linecap:butt;stroke-linejoin:miter;stroke-miterlimit:4;stroke-dasharray:none;stroke-opacity:1" />
        <path
           sodipodi:nodetypes="cssc"
           inkscape:connector-curvature="0"
           id="path924-8"
           d="m 29.613705,273.15483 c 2.158674,-1.82705 4.809216,-4.43034 8.214843,-4.95253 6.016828,-0.92259 11.739639,-0.46431 17.503899,0.35453 4.413926,0.62702 6.471649,2.64469 8.772704,4.46843"
           style="fill:none;stroke:#000000;stroke-width:1.58749998;stroke-linecap:butt;stroke-linejoin:miter;stroke-miterlimit:4;stroke-dasharray:none;stroke-opacity:1" />
        <path
           sodipodi:nodetypes="cccc"
           inkscape:connector-curvature="0"
           id="path926-6"
           d="m 27.333148,278.9599 c 1.407134,1.24236 2.72115,2.37608 3.040746,2.34965 l 32.480676,-0.0691 c 0.931177,-0.12828 2.05998,-1.71771 2.971637,-2.48788"
           style="fill:none;stroke:#000000;stroke-width:1.58749998;stroke-linecap:butt;stroke-linejoin:miter;stroke-miterlimit:4;stroke-dasharray:none;stroke-opacity:1" />
        <path
           inkscape:connector-curvature="0"
           id="path928-2"
           d="m 29.613705,273.15483 4.284687,0.0691"
           style="fill:none;stroke:#000000;stroke-width:1.32291663;stroke-linecap:butt;stroke-linejoin:miter;stroke-miterlimit:4;stroke-dasharray:none;stroke-opacity:1" />
        <path
           sodipodi:nodetypes="cc"
           inkscape:connector-curvature="0"
           id="path930-8"
           d="m 29.682814,276.67934 4.154854,0.0199"
           style="fill:none;stroke:#000000;stroke-width:1.32291663;stroke-linecap:butt;stroke-linejoin:miter;stroke-miterlimit:4;stroke-dasharray:none;stroke-opacity:1" />
        <path
           sodipodi:nodetypes="ccccccc"
           inkscape:connector-curvature="0"
           id="path934-4"
           d="m 35.90252,272.32554 c -0.689857,0.16856 -1.434192,0.0103 -2.004128,0.89841 l -0.06073,3.47563 c 0.547927,1.05861 1.333743,1.48286 2.272175,1.50011 1.164624,-0.14295 1.548203,-0.59838 2.096947,-0.98774 l 0.0454,-3.84979 c -0.874749,-1.16929 -1.599022,-0.98429 -2.349664,-1.03662 z"
           style="fill:none;stroke:#000000;stroke-width:1.32291663;stroke-linecap:butt;stroke-linejoin:miter;stroke-miterlimit:4;stroke-dasharray:none;stroke-opacity:1" />
        <path
           inkscape:connector-curvature="0"
           id="path936-7"
           d="m 38.252183,273.36216 9.039523,-1.3956 16.761249,1.71033"
           style="fill:none;stroke:#000000;stroke-width:1.32291663;stroke-linecap:butt;stroke-linejoin:miter;stroke-miterlimit:4;stroke-dasharray:none;stroke-opacity:1" />
        <path
           sodipodi:nodetypes="ccc"
           inkscape:connector-curvature="0"
           id="path938-2"
           d="m 38.202518,276.56001 9.528988,1.6126 16.367005,-2.04613"
           style="fill:none;stroke:#000000;stroke-width:1.32291663;stroke-linecap:butt;stroke-linejoin:miter;stroke-miterlimit:4;stroke-dasharray:none;stroke-opacity:1" />
        <path
           sodipodi:nodetypes="cc"
           inkscape:connector-curvature="0"
           id="path868-4"
           d="m 35.626088,225.09245 22.525678,-0.0826"
           style="fill:none;stroke:#000000;stroke-width:1.32291663;stroke-linecap:butt;stroke-linejoin:miter;stroke-miterlimit:4;stroke-dasharray:none;stroke-opacity:1" />
        <path
           sodipodi:nodetypes="ccccc"
           inkscape:connector-curvature="0"
           id="path835-0"
           d="m 38.984384,227.44909 5.76626,0.8796 c -0.04221,4.50435 0.927625,4.61935 2.184689,4.44631 2.007625,-0.4357 1.385574,-2.14658 1.72464,-4.25085 l 5.47306,-0.78186"
           style="display:inline;fill:none;stroke:#000000;stroke-width:1.32291675;stroke-linecap:butt;stroke-linejoin:miter;stroke-miterlimit:4;stroke-dasharray:none;stroke-opacity:1" />
        <path
           inkscape:connector-curvature="0"
           id="path837-6"
           d="m 38.558646,229.55717 5.052911,0.54414"
           style="display:inline;fill:none;stroke:#000000;stroke-width:1.32291675;stroke-linecap:butt;stroke-linejoin:miter;stroke-miterlimit:4;stroke-dasharray:none;stroke-opacity:1" />
        <path
           inkscape:connector-curvature="0"
           id="path839-2"
           d="m 53.998173,229.4822 -4.155796,0.62498"
           style="display:inline;fill:none;stroke:#000000;stroke-width:1.32291675;stroke-linecap:butt;stroke-linejoin:miter;stroke-miterlimit:4;stroke-dasharray:none;stroke-opacity:1" />
        <path
           style="fill:none;stroke:#000000;stroke-width:2.11666656;stroke-linecap:butt;stroke-linejoin:miter;stroke-miterlimit:4;stroke-dasharray:none;stroke-opacity:1"
           d="m 20.028352,244.31184 c 3.149768,0.86349 6.418504,2.8364 8.832058,5.72448 l 0.207334,26.95207 c -0.530741,1.08293 -0.521573,1.74506 -2.280558,3.17894 -2.058275,0.66354 -3.99987,0.39365 -5.874164,-0.41464"
           id="path2065-9"
           inkscape:connector-curvature="0"
           sodipodi:nodetypes="ccccc" />
        <path
           inkscape:connector-curvature="0"
           id="path837-8"
           d="m 43.799324,234.58901 5.081106,0.10176"
           style="display:inline;fill:none;stroke:#000000;stroke-width:1.32291675;stroke-linecap:butt;stroke-linejoin:miter;stroke-miterlimit:4;stroke-dasharray:none;stroke-opacity:1" />
      </g>
    </g>
    <g
       style="display:inline"
       id="g10379"
       transform="matrix(1.1072866,0,0,1.0799418,-34.96059,16.020155)">
      <path
         sodipodi:nodetypes="ccc"
         inkscape:connector-curvature="0"
         id="path4601"
         d="m 61.826756,199.04571 c 11.709731,-0.0464 18.792773,0.003 23.877732,0 -4.332758,-21.04609 -20.092622,-19.44988 -23.877732,0 z"
         style="fill:#3f7551;fill-opacity:1;stroke:#000000;stroke-width:1.27522063" />
      <path
         sodipodi:nodetypes="cc"
         inkscape:connector-curvature="0"
         id="path4688-7-9"
         d="m 62.814179,195.75735 c 15.079512,-0.0486 16.978963,-0.0702 21.935801,-0.0736"
         style="fill:none;fill-rule:evenodd;stroke:#000000;stroke-width:1;stroke-linecap:butt;stroke-linejoin:miter;stroke-opacity:1" />
      <path
         sodipodi:nodetypes="ccc"
         inkscape:connector-curvature="0"
         id="path5368"
         d="m 70.958732,184.63017 c 3.031254,-10.28684 3.332846,-9.55457 5.857155,0.0408 -2.677547,-1.26413 -4.280538,-0.4252 -5.857155,-0.0408 z"
         style="fill:#3f7551;fill-opacity:1;fill-rule:evenodd;stroke:#000000;stroke-width:0.98248667;stroke-linecap:butt;stroke-linejoin:miter;stroke-opacity:1" />
      <g
         transform="matrix(1.2500896,0,0,0.84174843,-191.94821,31.754426)"
         id="g10090">
        <ellipse
           ry="1.6309525"
           rx="1.0038624"
           cy="190.63014"
           cx="205.81245"
           style="opacity:1;fill:none;fill-opacity:1;stroke:#000000;stroke-width:0.71900314;stroke-linecap:square;stroke-linejoin:miter;stroke-miterlimit:4;stroke-dasharray:none;stroke-dashoffset:0;stroke-opacity:1;paint-order:fill markers stroke"
           id="path3703-2-4-7-4" />
        <path
           style="opacity:1;fill:none;fill-opacity:1;stroke:#000000;stroke-width:0.6696654;stroke-linecap:square;stroke-linejoin:miter;stroke-miterlimit:4;stroke-dasharray:none;stroke-dashoffset:0;stroke-opacity:1;paint-order:fill markers stroke"
           id="path3703-7-6-9-3-8"
           sodipodi:type="arc"
           sodipodi:cx="208.08574"
           sodipodi:cy="190.45132"
           sodipodi:rx="0.97523481"
           sodipodi:ry="1.4563321"
           sodipodi:start="0.27237434"
           sodipodi:end="0.25150893"
           sodipodi:open="true"
           d="m 209.02502,190.84311 a 0.97523481,1.4563321 0 0 1 -1.19673,1.01288 0.97523481,1.4563321 0 0 1 -0.68452,-1.78179 0.97523481,1.4563321 0 0 1 1.1896,-1.03148 0.97523481,1.4563321 0 0 1 0.69692,1.77104" />
        <path
           style="opacity:1;fill:none;fill-opacity:1;stroke:#000000;stroke-width:0.6696654;stroke-linecap:square;stroke-linejoin:miter;stroke-miterlimit:4;stroke-dasharray:none;stroke-dashoffset:0;stroke-opacity:1;paint-order:fill markers stroke"
           id="path3703-0-1-0-6-1"
           sodipodi:type="arc"
           sodipodi:cx="210.55338"
           sodipodi:cy="190.50529"
           sodipodi:rx="0.97523481"
           sodipodi:ry="1.4563321"
           sodipodi:start="0.27237434"
           sodipodi:end="0.25150893"
           sodipodi:open="true"
           d="m 211.49266,190.89708 a 0.97523481,1.4563321 0 0 1 -1.19674,1.01288 0.97523481,1.4563321 0 0 1 -0.68451,-1.78179 0.97523481,1.4563321 0 0 1 1.18959,-1.03148 0.97523481,1.4563321 0 0 1 0.69693,1.77104" />
        <path
           style="opacity:1;fill:none;fill-opacity:1;stroke:#000000;stroke-width:0.64943737;stroke-linecap:square;stroke-linejoin:miter;stroke-miterlimit:4;stroke-dasharray:none;stroke-dashoffset:0;stroke-opacity:1;paint-order:fill markers stroke"
           id="path3703-9-0-9-5-2"
           sodipodi:type="arc"
           sodipodi:cx="212.78687"
           sodipodi:cy="190.47507"
           sodipodi:rx="0.97395992"
           sodipodi:ry="1.5652037"
           sodipodi:start="0.27237434"
           sodipodi:end="0.25150893"
           sodipodi:open="true"
           d="m 213.72492,190.89614 a 0.97395992,1.5652037 0 0 1 -1.19517,1.08861 0.97395992,1.5652037 0 0 1 -0.68362,-1.915 0.97395992,1.5652037 0 0 1 1.18804,-1.10859 0.97395992,1.5652037 0 0 1 0.69601,1.90343" />
        <path
           style="opacity:1;fill:none;fill-opacity:1;stroke:#000000;stroke-width:0.6696654;stroke-linecap:square;stroke-linejoin:miter;stroke-miterlimit:4;stroke-dasharray:none;stroke-dashoffset:0;stroke-opacity:1;paint-order:fill markers stroke"
           id="path3703-9-3-6-1-6-9"
           sodipodi:type="arc"
           sodipodi:cx="215.14844"
           sodipodi:cy="190.36502"
           sodipodi:rx="0.9682278"
           sodipodi:ry="1.6224339"
           sodipodi:start="0.27237434"
           sodipodi:end="0.25150893"
           sodipodi:open="true"
           d="m 216.08097,190.80149 a 0.9682278,1.6224339 0 0 1 -1.18814,1.12841 0.9682278,1.6224339 0 0 1 -0.67959,-1.98502 0.9682278,1.6224339 0 0 1 1.18104,-1.14912 0.9682278,1.6224339 0 0 1 0.69192,1.97303" />
        <path
           style="opacity:1;fill:none;fill-opacity:1;stroke:#000000;stroke-width:0.6696654;stroke-linecap:square;stroke-linejoin:miter;stroke-miterlimit:4;stroke-dasharray:none;stroke-dashoffset:0;stroke-opacity:1;paint-order:fill markers stroke"
           id="path3703-9-6-1-7-3-3"
           sodipodi:type="arc"
           sodipodi:cx="217.50815"
           sodipodi:cy="190.35733"
           sodipodi:rx="0.96376652"
           sodipodi:ry="1.7335483"
           sodipodi:start="0.27237434"
           sodipodi:end="0.25150893"
           sodipodi:open="true"
           d="m 218.43639,190.82369 a 0.96376652,1.7335483 0 0 1 -1.18267,1.20569 0.96376652,1.7335483 0 0 1 -0.67646,-2.12096 0.96376652,1.7335483 0 0 1 1.1756,-1.22782 0.96376652,1.7335483 0 0 1 0.68873,2.10815" />
        <path
           style="opacity:1;fill:none;fill-opacity:1;stroke:#000000;stroke-width:0.6696654;stroke-linecap:square;stroke-linejoin:miter;stroke-miterlimit:4;stroke-dasharray:none;stroke-dashoffset:0;stroke-opacity:1;paint-order:fill markers stroke"
           id="path3703-9-6-0-59-7-9-9"
           sodipodi:type="arc"
           sodipodi:cx="219.2899"
           sodipodi:cy="190.08116"
           sodipodi:rx="0.64361709"
           sodipodi:ry="1.8885427"
           sodipodi:start="0.27237434"
           sodipodi:end="0.25150893"
           sodipodi:open="true"
           d="m 219.90979,190.58922 a 0.64361709,1.8885427 0 0 1 -0.7898,1.31349 0.64361709,1.8885427 0 0 1 -0.45175,-2.3106 0.64361709,1.8885427 0 0 1 0.78509,-1.3376 0.64361709,1.8885427 0 0 1 0.45994,2.29664" />
        <path
           style="opacity:1;fill:none;fill-opacity:1;stroke:#000000;stroke-width:0.64280713;stroke-linecap:square;stroke-linejoin:miter;stroke-miterlimit:4;stroke-dasharray:none;stroke-dashoffset:0;stroke-opacity:1;paint-order:fill markers stroke"
           id="path3703-0-1-0-6-1-8"
           sodipodi:type="arc"
           sodipodi:cx="210.78079"
           sodipodi:cy="186.68831"
           sodipodi:rx="0.89278817"
           sodipodi:ry="1.4657735"
           sodipodi:start="0.27237434"
           sodipodi:end="0.25150893"
           sodipodi:open="true"
           d="m 211.64067,187.08263 a 0.89278817,1.4657735 0 0 1 -1.09557,1.01945 0.89278817,1.4657735 0 0 1 -0.62664,-1.79334 0.89278817,1.4657735 0 0 1 1.08902,-1.03817 0.89278817,1.4657735 0 0 1 0.63801,1.78252" />
        <path
           style="opacity:1;fill:none;fill-opacity:1;stroke:#000000;stroke-width:0.62339038;stroke-linecap:square;stroke-linejoin:miter;stroke-miterlimit:4;stroke-dasharray:none;stroke-dashoffset:0;stroke-opacity:1;paint-order:fill markers stroke"
           id="path3703-9-0-9-5-2-8"
           sodipodi:type="arc"
           sodipodi:cx="213.03926"
           sodipodi:cy="186.81664"
           sodipodi:rx="0.73127085"
           sodipodi:ry="1.5753508"
           sodipodi:start="0.27237434"
           sodipodi:end="0.25150893"
           sodipodi:open="true"
           d="m 213.74357,187.24043 a 0.73127085,1.5753508 0 0 1 -0.89736,1.09567 0.73127085,1.5753508 0 0 1 -0.51328,-1.92741 0.73127085,1.5753508 0 0 1 0.89201,-1.11578 0.73127085,1.5753508 0 0 1 0.52258,1.91578" />
        <path
           style="opacity:1;fill:none;fill-opacity:1;stroke:#000000;stroke-width:0.64280713;stroke-linecap:square;stroke-linejoin:miter;stroke-miterlimit:4;stroke-dasharray:none;stroke-dashoffset:0;stroke-opacity:1;paint-order:fill markers stroke"
           id="path3703-9-3-6-1-6-9-5"
           sodipodi:type="arc"
           sodipodi:cx="215.20119"
           sodipodi:cy="186.70589"
           sodipodi:rx="0.88637358"
           sodipodi:ry="1.6329521"
           sodipodi:start="0.27237434"
           sodipodi:end="0.25150893"
           sodipodi:open="true"
           d="m 216.05488,187.14518 a 0.88637358,1.6329521 0 0 1 -1.08769,1.13573 0.88637358,1.6329521 0 0 1 -0.62214,-1.99789 0.88637358,1.6329521 0 0 1 1.0812,-1.15657 0.88637358,1.6329521 0 0 1 0.63342,1.98582" />
        <path
           style="opacity:1;fill:none;fill-opacity:1;stroke:#000000;stroke-width:0.57712573;stroke-linecap:square;stroke-linejoin:miter;stroke-miterlimit:4;stroke-dasharray:none;stroke-dashoffset:0;stroke-opacity:1;paint-order:fill markers stroke"
           id="path3703-9-6-1-7-3-3-0"
           sodipodi:type="arc"
           sodipodi:cx="217.32132"
           sodipodi:cy="187.06061"
           sodipodi:rx="0.87988865"
           sodipodi:ry="1.4102795"
           sodipodi:start="0.27237434"
           sodipodi:end="0.25150893"
           sodipodi:open="true"
           d="m 218.16877,187.44 a 0.87988865,1.4102795 0 0 1 -1.07973,0.98086 0.87988865,1.4102795 0 0 1 -0.6176,-1.72545 0.87988865,1.4102795 0 0 1 1.0733,-0.99886 0.87988865,1.4102795 0 0 1 0.62879,1.71503" />
      </g>
      <path
         sodipodi:nodetypes="cc"
         inkscape:connector-curvature="0"
         id="path4688-7-9-3"
         d="m 63.267565,194.07123 c 14.619557,-0.0486 16.461071,-0.0702 21.266716,-0.0736"
         style="display:inline;fill:none;fill-rule:evenodd;stroke:#000000;stroke-width:1;stroke-linecap:butt;stroke-linejoin:miter;stroke-opacity:1" />
      <path
         style="display:inline;opacity:1;fill:none;fill-opacity:1;stroke:#000000;stroke-width:0.65939009;stroke-linecap:square;stroke-linejoin:miter;stroke-miterlimit:4;stroke-dasharray:none;stroke-dashoffset:0;stroke-opacity:1;paint-order:fill markers stroke"
         id="path3703-0-1-0-6-1-8-1"
         sodipodi:type="arc"
         sodipodi:cx="68.673721"
         sodipodi:cy="189.08998"
         sodipodi:rx="1.1160653"
         sodipodi:ry="1.2338126"
         sodipodi:start="0.27237434"
         sodipodi:end="0.25150893"
         sodipodi:open="true"
         d="m 69.748643,189.4219 a 1.1160653,1.2338126 0 0 1 -1.369553,0.85812 1.1160653,1.2338126 0 0 1 -0.783364,-1.50954 1.1160653,1.2338126 0 0 1 1.36138,-0.87388 1.1160653,1.2338126 0 0 1 0.797567,1.50043" />
      <path
         style="display:inline;opacity:1;fill:none;fill-opacity:1;stroke:#000000;stroke-width:0.5155707;stroke-linecap:square;stroke-linejoin:miter;stroke-miterlimit:4;stroke-dasharray:none;stroke-dashoffset:0;stroke-opacity:1;paint-order:fill markers stroke"
         id="path3703-0-1-0-6-1-8-1-1"
         sodipodi:type="arc"
         sodipodi:cx="66.340576"
         sodipodi:cy="189.19565"
         sodipodi:rx="0.65812379"
         sodipodi:ry="1.2791543"
         sodipodi:start="0.27237434"
         sodipodi:end="0.25150893"
         sodipodi:open="true"
         d="m 66.974438,189.53977 a 0.65812379,1.2791543 0 0 1 -0.807601,0.88965 0.65812379,1.2791543 0 0 1 -0.461935,-1.56502 0.65812379,1.2791543 0 0 1 0.802781,-0.90598 0.65812379,1.2791543 0 0 1 0.470311,1.55557" />
      <path
         style="display:inline;opacity:1;fill:none;fill-opacity:1;stroke:#000000;stroke-width:0.52028906;stroke-linecap:square;stroke-linejoin:miter;stroke-miterlimit:4;stroke-dasharray:none;stroke-dashoffset:0;stroke-opacity:1;paint-order:fill markers stroke"
         id="path3703-0-1-0-6-1-8-0"
         sodipodi:type="arc"
         sodipodi:cx="71.753448"
         sodipodi:cy="186.07408"
         sodipodi:rx="0.88062674"
         sodipodi:ry="0.97353476"
         sodipodi:start="0.27237434"
         sodipodi:end="0.25150893"
         sodipodi:open="true"
         d="m 72.601611,186.33598 a 0.88062674,0.97353476 0 0 1 -1.08064,0.6771 0.88062674,0.97353476 0 0 1 -0.61811,-1.1911 0.88062674,0.97353476 0 0 1 1.074191,-0.68953 0.88062674,0.97353476 0 0 1 0.629317,1.18391" />
      <path
         style="display:inline;opacity:1;fill:none;fill-opacity:1;stroke:#000000;stroke-width:0.5501017;stroke-linecap:square;stroke-linejoin:miter;stroke-miterlimit:4;stroke-dasharray:none;stroke-dashoffset:0;stroke-opacity:1;paint-order:fill markers stroke"
         id="path3703-9-0-9-5-2-8-3"
         sodipodi:type="arc"
         sodipodi:cx="73.9814"
         sodipodi:cy="185.89949"
         sodipodi:rx="0.69844669"
         sodipodi:ry="1.2843636"
         sodipodi:start="0.27237434"
         sodipodi:end="0.25150893"
         sodipodi:open="true"
         d="m 74.654098,186.24501 a 0.69844669,1.2843636 0 0 1 -0.857082,0.89328 0.69844669,1.2843636 0 0 1 -0.490238,-1.57139 0.69844669,1.2843636 0 0 1 0.851967,-0.90968 0.69844669,1.2843636 0 0 1 0.499127,1.5619" />
      <path
         style="display:inline;opacity:1;fill:none;fill-opacity:1;stroke:#000000;stroke-width:0.52028906;stroke-linecap:square;stroke-linejoin:miter;stroke-miterlimit:4;stroke-dasharray:none;stroke-dashoffset:0;stroke-opacity:1;paint-order:fill markers stroke"
         id="path3703-9-3-6-1-6-9-5-4"
         sodipodi:type="arc"
         sodipodi:cx="76.113625"
         sodipodi:cy="186.08575"
         sodipodi:rx="0.87429947"
         sodipodi:ry="1.0845711"
         sodipodi:start="0.27237434"
         sodipodi:end="0.25150893"
         sodipodi:open="true"
         d="m 76.955693,186.37752 a 0.87429947,1.0845711 0 0 1 -1.072876,0.75433 0.87429947,1.0845711 0 0 1 -0.613669,-1.32695 0.87429947,1.0845711 0 0 1 1.066474,-0.76817 0.87429947,1.0845711 0 0 1 0.624795,1.31894" />
      <path
         style="display:inline;opacity:1;fill:none;fill-opacity:1;stroke:#000000;stroke-width:0.46712643;stroke-linecap:square;stroke-linejoin:miter;stroke-miterlimit:4;stroke-dasharray:none;stroke-dashoffset:0;stroke-opacity:1;paint-order:fill markers stroke"
         id="path3703-9-6-1-7-3-3-0-0"
         sodipodi:type="arc"
         sodipodi:cx="78.20488"
         sodipodi:cy="186.32135"
         sodipodi:rx="0.86790293"
         sodipodi:ry="0.93667692"
         sodipodi:start="0.27237434"
         sodipodi:end="0.25150893"
         sodipodi:open="true"
         d="m 79.040787,186.57333 a 0.86790293,0.93667692 0 0 1 -1.065026,0.65147 0.86790293,0.93667692 0 0 1 -0.609179,-1.14601 0.86790293,0.93667692 0 0 1 1.058671,-0.66342 0.86790293,0.93667692 0 0 1 0.620224,1.13909" />
      <path
         style="display:inline;opacity:1;fill:none;fill-opacity:1;stroke:#000000;stroke-width:0.52028906;stroke-linecap:square;stroke-linejoin:miter;stroke-miterlimit:4;stroke-dasharray:none;stroke-dashoffset:0;stroke-opacity:1;paint-order:fill markers stroke"
         id="path3703-0-1-0-6-1-8-1-3"
         sodipodi:type="arc"
         sodipodi:cx="69.486557"
         sodipodi:cy="186.22478"
         sodipodi:rx="0.88062674"
         sodipodi:ry="0.97353476"
         sodipodi:start="0.27237434"
         sodipodi:end="0.25150893"
         sodipodi:open="true"
         d="m 70.334719,186.48668 a 0.88062674,0.97353476 0 0 1 -1.08064,0.6771 0.88062674,0.97353476 0 0 1 -0.61811,-1.19111 0.88062674,0.97353476 0 0 1 1.074192,-0.68952 0.88062674,0.97353476 0 0 1 0.629316,1.18391" />
      <path
         inkscape:connector-curvature="0"
         id="path10321"
         d="m 64.679739,190.69372 18.098482,-0.32979"
         style="fill:none;fill-rule:evenodd;stroke:#000000;stroke-width:0.75;stroke-linecap:butt;stroke-linejoin:miter;stroke-opacity:1" />
      <path
         inkscape:connector-curvature="0"
         id="path10321-9"
         d="M 66.881157,187.55396 80.48231,187.21983"
         style="display:inline;fill:none;fill-rule:evenodd;stroke:#000000;stroke-width:0.65444267;stroke-linecap:butt;stroke-linejoin:miter;stroke-opacity:1" />
      <path
         sodipodi:nodetypes="cc"
         inkscape:connector-curvature="0"
         id="path4688-7-9-1"
         d="m 62.264045,197.47886 c 15.907092,-0.0486 17.910787,-0.0701 23.139662,-0.0735"
         style="display:inline;fill:none;fill-rule:evenodd;stroke:#000000;stroke-width:1.02648962;stroke-linecap:butt;stroke-linejoin:miter;stroke-opacity:1" />
    </g>
  </g>
</svg>
