<svg xmlns="http://www.w3.org/2000/svg" xmlns:xlink="http://www.w3.org/1999/xlink" width="182.541" height="192.648" viewBox="0 0 48.297 50.971">
    <defs>
        <filter style="color-interpolation-filters:sRGB" id="c" x="-.025" width="1.051" y="-.411" height="1.821">
            <feGaussianBlur stdDeviation="1.323"/>
        </filter>
        <filter style="color-interpolation-filters:sRGB" id="d" x="-.037" width="1.074" y="-.035" height="1.07">
            <feGaussianBlur stdDeviation="2.306"/>
        </filter>
        <filter style="color-interpolation-filters:sRGB" id="h" x="-.164" width="1.328" y="-.172" height="1.344">
            <feGaussianBlur stdDeviation=".257"/>
        </filter>
        <filter style="color-interpolation-filters:sRGB" id="j" x="-.044" width="1.089" y="-.092" height="1.185">
            <feGaussianBlur stdDeviation="1.157"/>
        </filter>
        <filter style="color-interpolation-filters:sRGB" id="k" x="-.253" width="1.505" y="-.627" height="2.253">
            <feGaussianBlur stdDeviation="1.251"/>
        </filter>
        <filter style="color-interpolation-filters:sRGB" id="l" x="-.413" width="1.827" y="-.319" height="1.638">
            <feGaussianBlur stdDeviation=".989"/>
        </filter>
        <filter style="color-interpolation-filters:sRGB" id="m" x="-.158" width="1.315" y="-.503" height="2.005">
            <feGaussianBlur stdDeviation="2.353"/>
        </filter>
        <radialGradient xlink:href="#a" id="e" cx="-76.951" cy="874.143" fx="-76.951" fy="874.143" r="35.022" gradientTransform="matrix(1.45883 .10635 -.08187 1.12303 577.431 -392.768)" gradientUnits="userSpaceOnUse"/>
        <radialGradient xlink:href="#b" id="f" cx="-79.461" cy="821.57" fx="-79.461" fy="821.57" r="11.84" gradientUnits="userSpaceOnUse" gradientTransform="translate(468.253 -278.922)"/>
        <radialGradient xlink:href="#b" id="g" gradientUnits="userSpaceOnUse" gradientTransform="translate(463.994 -222.252)" cx="-79.461" cy="821.57" fx="-79.461" fy="821.57" r="11.84"/>
        <linearGradient id="a">
            <stop offset="0" style="stop-color:#fed70c;stop-opacity:1"/>
            <stop offset="1" style="stop-color:#fcc310;stop-opacity:1"/>
        </linearGradient>
        <linearGradient id="b">
            <stop style="stop-color:#fff;stop-opacity:1" offset="0"/>
            <stop style="stop-color:#fff;stop-opacity:0" offset="1"/>
        </linearGradient>
        <linearGradient xlink:href="#b" id="i" x1="390.805" y1="586.896" x2="400.03" y2="592.101" gradientUnits="userSpaceOnUse"/>
    </defs>
    <g transform="matrix(.26458 0 0 .26458 -222.526 -67.609)">
        <ellipse transform="matrix(1.03328 0 0 .76491 -30.675 101.24)" ry="3.867" rx="62.283" cy="431.701" cx="931.426" style="opacity:.3;fill:#b3b3b3;fill-opacity:.99627775;stroke-width:26.07906342;stroke-linecap:round;stroke-linejoin:round;filter:url(#c)"/>
        <g transform="translate(525.683 -207.689)">
            <path style="opacity:.3;fill:#000;fill-opacity:1;stroke:none;stroke-width:1.1485883px;stroke-linecap:butt;stroke-linejoin:miter;stroke-opacity:1;filter:url(#d)" d="M393.988 480.092c-10.686.803-21.576 7.186-28.605 16.533-1.003.622-3.563 2.192-5.328 2.977-2.563 1.138-5.178 2.742-7.98 2.66-1.91-.056-3.536-1.448-5.321-2.13-4.54-1.724-9.586-5.017-13.836-1.064-1.068 1.529-.663 3.767-.266 5.588.618 2.83 2.184 5.452 3.99 7.715 2.317 2.902 8.514 7.184 8.514 7.184s-5.9 1.569-7.181 3.99c-.458.866-.24 2.087.265 2.926 1.092 1.811 3.308 2.808 5.32 3.459 4.027 1.302 8.518-.139 12.68.625 1.315.24 2.496 1.019 3.815 1.238.606.1 1.454.087 2.074.066 1.723 3.337 4.08 6.37 7.156 8.805 0 0-2.224 5.11-3.723 7.445-8.94 13.59-24.406 25.328-26.734 43.993.05 12.914 6.573 25.374 16.244 32.824 16.964 13.068 41.704 15.602 62.942 12.86 19.211-2.482 39.65-10.89 52.113-25.72 8.245-9.809 10.467-24.075 10.828-36.884.294-10.42.046-22.87-7.105-30.455-2.18-2.312-6.15-3.789-9.137-2.707-3.824 1.384-4.006 7.164-6.768 10.15-2.727 2.949-5.623 6.306-9.474 7.445-2.39.707-5.035-.045-7.446-.678-7.178-1.884-13.033-7.651-20.304-9.136-5.527-1.129-16.92.34-16.92.34l6.092-3.385s10.288-6.554 13.535-11.506c4.265-6.506 7.12-14.563 6.767-22.334-.86-19.17-13.627-32.464-36.207-32.824z"/>
            <path style="fill:#fed70c;fill-opacity:1;stroke:none;stroke-width:1.1485883px;stroke-linecap:butt;stroke-linejoin:miter;stroke-opacity:1" d="M338.829 592.101c2.327-18.665 17.793-30.402 26.733-43.991 1.499-2.335 3.723-7.445 3.723-7.445-9.722-7.7-12.308-21.345-10.152-31.81 4.688-15.702 19.97-27.644 34.855-28.763 22.58.36 35.347 13.655 36.208 32.824.354 7.771-2.503 15.829-6.768 22.335-3.246 4.952-13.536 11.505-13.536 11.505l-6.09 3.384s11.392-1.467 16.92-.338c7.27 1.485 13.125 7.252 20.303 9.136 2.41.633 5.055 1.384 7.445.677 3.851-1.14 6.748-4.496 9.475-7.444 2.761-2.986 2.944-8.768 6.768-10.152 2.987-1.082 6.958.396 9.137 2.707 7.151 7.585 7.4 20.035 7.106 30.456-.36 12.809-2.584 27.076-10.829 36.885-12.464 14.829-32.901 23.237-52.113 25.718-21.238 2.743-45.978.21-62.942-12.859-9.671-7.45-16.193-19.91-16.243-32.825z"/>
            <path style="fill:#fcc310;fill-opacity:1;stroke:none;stroke-width:1.1485883px;stroke-linecap:butt;stroke-linejoin:miter;stroke-opacity:1" d="M338.83 592.101c.05 12.915 6.57 25.375 16.241 32.825 16.964 13.068 41.706 15.602 62.944 12.859 16.496-2.131 33.88-8.646 46.36-19.83-11.142 7.015-24.42 11.291-37.172 12.938-21.237 2.743-45.98.21-62.943-12.859-9.671-7.45-16.192-13.137-16.242-26.052 1.29-12.227 20.917-42.265 18.159-41.255-2.759 1.009-27.164 24.82-27.348 41.374z"/>
            <path style="fill:url(#e);fill-opacity:1;stroke:none;stroke-width:1.1485883px;stroke-linecap:butt;stroke-linejoin:miter;stroke-opacity:1" d="M377.395 569.598c5.204-4.305 12.07-7.936 18.812-7.525 10.14.618 16.824 12.346 26.713 14.673 9.163 2.157 28.218-1.129 28.218-1.129s-5.267 15.747-10.91 21.446c-7.066 7.135-16.81 12.272-26.714 13.921-8.258 1.375-17.247-.219-24.832-3.762-6.52-3.046-12.958-7.861-16.179-14.297-2.083-4.164-2.254-9.404-1.128-13.921.9-3.612 3.15-7.034 6.02-9.406z"/>
            <circle style="opacity:.8;fill:url(#f);fill-opacity:1;stroke:none;stroke-width:6.10556793;stroke-miterlimit:4;stroke-dasharray:none;stroke-opacity:1;filter:url(#filter7113)" cx="388.791" cy="542.648" r="8" transform="translate(-10.129 -52.066) scale(1.04166)"/>
            <circle r="8" cy="599.318" cx="384.533" style="opacity:.8;fill:url(#g);fill-opacity:1;stroke:none;stroke-width:6.10556793;stroke-miterlimit:4;stroke-dasharray:none;stroke-opacity:1;filter:url(#filter7113)" transform="matrix(1.14859 0 0 1.14859 -51.7 -110.089)"/>
            <path style="fill:#ff6d0b;fill-opacity:1;stroke:none;stroke-width:1.1485883px;stroke-linecap:butt;stroke-linejoin:miter;stroke-opacity:1" d="M362.831 531.836s-1.863.108-2.776-.044c-1.318-.219-2.5-.995-3.815-1.237-4.162-.763-8.653.677-12.68-.625-2.012-.651-4.228-1.647-5.32-3.459-.506-.839-.724-2.06-.266-2.926 1.28-2.421 7.183-3.99 7.183-3.99s-6.197-4.282-8.514-7.184c-1.806-2.263-3.373-4.886-3.99-7.715-.398-1.822-.802-4.059.266-5.587 4.25-3.954 9.294-.66 13.834 1.064 1.785.681 3.412 2.072 5.321 2.128 2.803.083 5.419-1.522 7.981-2.66 2.141-.951 6.12-3.459 6.12-3.459s-2.518 3.366-3.193 5.321c-.7 2.028-.775 4.24-.798 6.385-.028 2.586.368 5.166.798 7.715.515 3.055 2.243 5.95 2.128 9.046-.094 2.524-2.279 7.227-2.279 7.227z"/>
            <ellipse style="opacity:1;fill:#fff;fill-opacity:1;stroke:none;stroke-width:.4775041;stroke-miterlimit:4;stroke-dasharray:none;stroke-opacity:1" cx="-351.695" cy="523.046" rx="11.293" ry="8.877" transform="rotate(-70.918)"/>
            <ellipse transform="matrix(.37279 -.92792 .95839 .28547 0 0)" ry="5.692" rx="6.44" cy="539.634" cx="-371.659" style="opacity:1;fill:#2b1100;fill-opacity:1;stroke:none;stroke-width:.28876039;stroke-miterlimit:4;stroke-dasharray:none;stroke-opacity:1"/>
            <ellipse style="opacity:1;fill:#fff;fill-opacity:1;stroke:none;stroke-width:1.07062852;stroke-miterlimit:4;stroke-dasharray:none;stroke-opacity:1;filter:url(#h)" cx="-89.048" cy="810.783" rx="1.878" ry="1.791" transform="matrix(1.2859 0 0 1.2859 493.875 -538.729)"/>
            <path style="opacity:.8;fill:url(#i);fill-opacity:1;stroke:none;stroke-width:1px;stroke-linecap:butt;stroke-linejoin:miter;stroke-opacity:1;filter:url(#filter7634)" d="M383.888 586.819s4.756 1.202 7.037 2.086c2.913 1.127 8.434 4.08 8.434 4.08l2.176-1.088s-6.138-5.828-10.066-6.257c-5.466-.597-7.581 1.179-7.581 1.179z" transform="matrix(1.14859 0 0 1.14859 -51.7 -110.089)"/>
            <path style="fill:#fff;fill-opacity:1;stroke:none;stroke-width:1px;stroke-linecap:butt;stroke-linejoin:miter;stroke-opacity:1;filter:url(#j)" d="M397.879 516.42v2c11.547 4.142 17.995 13.81 18.56 26.38l.002.06c.025-.688.03-1.375-.002-2.06-.565-12.57-7.013-22.238-18.56-26.38zm-43.766 25.927a31.856 31.856 0 0 0-.147 4.16c.043-1.423.181-2.816.405-4.16z" transform="matrix(1.14859 0 0 1.14859 -51.7 -110.089)"/>
            <ellipse style="opacity:.8;fill:#fff;fill-opacity:1;stroke:none;stroke-width:.41046104;stroke-miterlimit:4;stroke-dasharray:none;stroke-opacity:1;filter:url(#k)" cx="484.718" cy="433.623" rx="6.04" ry="2.143" transform="matrix(1.17964 .18084 -.22761 .93724 -70.599 -9.484)"/>
            <path style="fill:#fff;stroke:none;stroke-width:.6585381px;stroke-linecap:butt;stroke-linejoin:miter;stroke-opacity:1;filter:url(#l)" d="M450.562 570.211c.314-.517.847-1.084 1.451-1.088.823-.006 1.52.78 1.997 1.451 1.208 1.7 1.814 5.989 1.814 5.989s-4.751-2.009-5.625-4.174c-.276-.682-.02-1.549.363-2.178z" transform="matrix(1.14859 0 0 1.14859 -51.7 -110.089)"/>
            <path style="fill:#fff;stroke:none;stroke-width:1px;stroke-linecap:butt;stroke-linejoin:miter;stroke-opacity:1;filter:url(#m)" d="M399.556 576.287s5.771-.385 8.543.276c7.195 1.715 13.036 7.223 20.115 9.368 2.313.701 7.165 1.103 7.165 1.103s-9.188 1.01-13.503-.276c-4.982-1.484-8.434-6.25-13.226-8.267-2.875-1.209-9.094-2.204-9.094-2.204z" transform="matrix(1.14859 0 0 1.14859 -51.7 -110.089)"/>
        </g>
    </g>
</svg>
