<?xml version="1.0" encoding="UTF-8" standalone="no"?>
<svg
   xmlns:dc="http://purl.org/dc/elements/1.1/"
   xmlns:cc="http://creativecommons.org/ns#"
   xmlns:rdf="http://www.w3.org/1999/02/22-rdf-syntax-ns#"
   xmlns:svg="http://www.w3.org/2000/svg"
   xmlns="http://www.w3.org/2000/svg"
   xmlns:sodipodi="http://sodipodi.sourceforge.net/DTD/sodipodi-0.dtd"
   xmlns:inkscape="http://www.inkscape.org/namespaces/inkscape"
   width="177.17"
   height="177.17"
   shape-rendering="geometricPrecision"
   image-rendering="optimizeQuality"
   fill-rule="evenodd"
   clip-rule="evenodd"
   viewBox="0 0 50 50"
   version="1.1"
   id="svg15290"
   sodipodi:docname="wD.svg"
   inkscape:version="0.92.4 (5da689c313, 2019-01-14)">
  <metadata
     id="metadata15294">
    <rdf:RDF>
      <cc:Work
         rdf:about="">
        <dc:format>image/svg+xml</dc:format>
        <dc:type
           rdf:resource="http://purl.org/dc/dcmitype/StillImage" />
        <dc:title />
      </cc:Work>
    </rdf:RDF>
  </metadata>
  <sodipodi:namedview
     pagecolor="#ffffff"
     bordercolor="#666666"
     borderopacity="1"
     objecttolerance="10"
     gridtolerance="10"
     guidetolerance="10"
     inkscape:pageopacity="0"
     inkscape:pageshadow="2"
     inkscape:window-width="1920"
     inkscape:window-height="1017"
     id="namedview15292"
     showgrid="false"
     inkscape:zoom="3.7676176"
     inkscape:cx="160.04359"
     inkscape:cy="69.271751"
     inkscape:window-x="-8"
     inkscape:window-y="-8"
     inkscape:window-maximized="1"
     inkscape:current-layer="svg15290" />
  <defs
     id="defs15282">
    <linearGradient
       id="0"
       x1="21.253"
       y1="37.22"
       x2="77.64"
       y2="37.35"
       gradientUnits="userSpaceOnUse">
      <stop
         stop-color="#fff"
         id="stop15277" />
      <stop
         offset="1"
         stop-color="#fff"
         stop-opacity="0"
         id="stop15279" />
    </linearGradient>
  </defs>
  <g
     id="g15288"
     transform="translate(0,4.1946909)"
     style="stroke:#1f1a17;stroke-width:0.076">
    <path
       d="m 44.541,14.723 c -0.94,0 -1.744,-0.33 -2.405,-0.982 -0.66,-0.652 -0.991,-1.448 -0.991,-2.396 0,-0.923 0.33,-1.719 0.991,-2.388 0.66,-0.677 1.465,-1.01 2.405,-1.01 0.931,0 1.727,0.33 2.388,1.01 0.66,0.669 0.991,1.465 0.991,2.388 0,0.948 -0.33,1.744 -0.991,2.396 -0.66,0.652 -1.456,0.982 -2.388,0.982 z m -4.31,25.025299 c -0.813,0.711 -2.633,1.304 -5.461,1.786 -2.828,0.474 -6.087,0.72 -9.77,0.72 -3.751,0 -7.05,-0.254 -9.898,-0.745 -2.845,-0.499 -4.64,-1.118 -5.385,-1.863 L 11.058284,34.892785 8.4424527,30.275905 6.297,14.775 7.508,14.301 15.101492,27.186085 c 1.19031,-0.566072 1.257078,-0.777346 2.482201,-2.007822 L 20.955237,26.966085 24.103,10.779 h 1.719 l 3.204493,16.121895 c 1.789358,-0.214964 2.443666,-1.258275 3.470757,-1.74485 0.644572,0.762385 1.463556,1.875269 2.108128,2.261725 L 42.416,14.276 l 1.16,0.542 -2.057,15.359 -2.604378,3.993731 1.317378,5.580568 z M 5.399,14.725 c -0.94,0 -1.736,-0.33 -2.388,-0.982 -0.652,-0.652 -0.982,-1.448 -0.982,-2.396 0,-0.923 0.33,-1.719 0.982,-2.388 0.652,-0.677 1.448,-1.01 2.388,-1.01 0.948,0 1.744,0.33 2.413,1.01 0.66,0.669 0.991,1.465 0.991,2.388 0,0.948 -0.33,1.744 -0.991,2.396 -0.669,0.652 -1.465,0.982 -2.413,0.982 z m 19.55,-3.971 c -0.94,0 -1.744,-0.33 -2.396,-0.991 -0.652,-0.66 -0.974,-1.465 -0.974,-2.405 0,-0.931 0.322,-1.727 0.974,-2.388 0.652,-0.66 1.456,-0.991 2.396,-0.991 0.923,0 1.727,0.33 2.396,0.991 0.669,0.66 0.999,1.456 0.999,2.388 0,0.94 -0.33,1.744 -0.999,2.405 -0.669,0.66 -1.473,0.991 -2.396,0.991 z"
       id="path15284"
       inkscape:connector-curvature="0"
       style="fill:#1f1a17"
       sodipodi:nodetypes="scscscscsccsccccccccccccccccccccssscscscsscscscscs" />
    <path
       d="m 38.22,38.732941 c -3.02,-1.253 -7.417,-1.88 -13.166,-1.88 -5.876,0 -10.312,0.643 -13.327,1.93 2.896,1.143 7.315,1.71 13.25,1.71 2.845,0 5.444,-0.152 7.798,-0.466 2.362,-0.313 4.174,-0.745 5.444,-1.295 z M 24.953,9.01 c 1.109,0 1.66,-0.559 1.66,-1.659 0,-1.092 -0.55,-1.643 -1.66,-1.643 -1.092,0 -1.634,0.55 -1.634,1.643 0,1.101 0.542,1.659 1.634,1.659 z m 13.242,23.487 1.617,-2.853 c -0.796,0.322 -1.609,0.474 -2.43,0.474 -2.218,0 -3.988,-0.897 -5.309,-2.701 -0.991,0.821 -2.1,1.236 -3.327,1.236 -1.583,0 -2.853,-0.618 -3.793,-1.863 -1.058,1.16 -2.32,1.744 -3.793,1.744 -1.194,0 -2.286,-0.406 -3.277,-1.219 -1.389,1.77 -3.183,2.65 -5.385,2.65 -0.838,0 -1.676,-0.152 -2.506,-0.466 l 1.736,2.972 c 3.209,-0.923 7.62,-1.389 13.225,-1.389 5.706,0 10.118,0.474 13.242,1.414 z M 27.085,26.57 24.977,14.437 22.869,26.426 c 0.051,-0.034 0.161,-0.119 0.347,-0.254 0.381,-0.745 0.957,-1.118 1.736,-1.118 0.847,0 1.389,0.372 1.634,1.118 0.102,0.102 0.271,0.237 0.5,0.398 z m -13.368,1.516 -5.334,-9.203 1.363,8.382 c 0.94,0.66 1.863,0.991 2.752,0.991 0.347,0 0.754,-0.059 1.219,-0.169 z m 22.394,0.119 c 0.381,0.119 0.804,0.178 1.27,0.178 1.01,0 1.947,-0.313 2.828,-0.94 l 1.363,-8.585 z m 1.49,8.248941 -0.745,-2.802 c -8.142764,-1.270858 -15.89594,-1.669692 -23.783,0 l -0.771,2.828 c 3.073,-0.931 7.298,-1.389 12.675,-1.389 5.241,0 9.449,0.449 12.624,1.363 z M 5.405,12.982 c 1.109,0 1.668,-0.55 1.668,-1.643 0,-1.109 -0.559,-1.659 -1.668,-1.659 -1.084,0 -1.634,0.55 -1.634,1.659 0,1.092 0.55,1.643 1.634,1.643 z m 39.14,0 c 1.092,0 1.642,-0.55 1.642,-1.643 0,-1.109 -0.55,-1.659 -1.642,-1.659 -1.101,0 -1.66,0.55 -1.66,1.659 0,1.092 0.559,1.643 1.66,1.643 z"
       id="path15286"
       inkscape:connector-curvature="0"
       style="fill:url(#0)"
       sodipodi:nodetypes="cscscccsssssccscscscsccsccccccsccccccscccscccccccscssssssssss" />
  </g>
</svg>
