<svg clip-rule="evenodd" fill-rule="evenodd" height="177.17" image-rendering="optimizeQuality" shape-rendering="geometricPrecision" viewBox="0 0 50 50" width="177.17" xmlns="http://www.w3.org/2000/svg" xmlns:xlink="http://www.w3.org/1999/xlink"><linearGradient id="a"><stop offset="0" stop-color="#fff"/><stop offset="1" stop-color="#b3b3b3"/></linearGradient><linearGradient id="b" gradientUnits="userSpaceOnUse" x1="18.65144" x2="30.711206" xlink:href="#a" y1="39.691229" y2="39.691229"/><linearGradient id="c" gradientUnits="userSpaceOnUse" x1="17.20063289067" x2="44.75805692827" xlink:href="#a" y1="26.34391148178" y2="26.34391148178"/><linearGradient id="d" gradientUnits="userSpaceOnUse" x1="22.87935980996" x2="37.2869268316" xlink:href="#a" y1="13.99837065949" y2="13.99837065949"/><g fill="#1f1a17" stroke="#1f1a17" stroke-width="1.69329" transform="translate(-47.90079 .304262)"><path d="m59.323542 36.845189c-4.923955-4.423162-7.488294-6.501829-7.488294-10.697558 0-9.536991 12.337066-10.822594 21.466437-10.554927 5.225494.153208 11.124384.559374 15.29758 2.774372 2.841632 1.508247 5.367066 3.823463 5.367066 7.531995 0 4.979028-4.86475 7.93099-8.255477 11.017435-9.050136-4.451366-17.738141-4.590077-26.387312-.07133z"/><path d="m59.323542 36.845189v4.984114c8.612444 4.713783 17.405516 4.682783 26.375269 0l.01211-4.912797c-9.526222-4.844302-18.203811-4.088076-26.387379-.071324z"/><path d="m69.58961 15.521388c.403124-1.901498 1.356191-3.235945 3.280585-3.244926 1.682343-.0078 3.026638 1.263387 3.423218 3.351902z"/></g><path d="m12.584104 37.556428v4.269606c8.669742-3.392157 16.447722-2.994618 24.119531 0v-4.269604c-8.355558-3.453444-16.162906-2.929477-24.119531-.000002z" fill="url(#b)"/><path d="m23.761165 16.579783c-8.318037-.04159-18.4779047 1.540534-18.4779047 9.917756 0 3.931199 4.6874857 7.751611 7.2036437 8.450254 8.923258-2.85791 15.181568-3.005271 24.274334-.120162 2.877327-.869405 7.996819-3.897588 7.996819-8.562698 0-3.474716-2.366131-5.64387-5.028605-7.057024-3.910081-2.075346-9.436837-2.455915-14.332874-2.599464-.534611-.01567-1.080877-.02589-1.635413-.02866zm.266782 1.394538c.484161.0022.960686.01026 1.425956.0226 4.261001.112989 9.070746.412539 12.473675 2.046057 2.317142 1.112303 4.853322 2.925312 4.853322 5.660282 0 3.671938-2.987791 5.818131-6.202111 6.895837-7.74358-2.948395-16.22963-2.95732-23.688406.000564-3.4340339-1.713461-4.9368111-3.532577-5.1526253-6.818683-.4321127-6.579588 9.0277593-7.839389 16.2901893-7.806657z" fill="url(#c)"/><path d="m22.879359 14.914829h4.241281c-.190722-1.337943-1.365259-1.720883-2.15261-1.712351-.810419.0088-1.851236.433645-2.088671 1.712351z" fill="url(#d)"/></svg>