<?xml version="1.0" encoding="UTF-8" standalone="no"?>
<svg
   xmlns:dc="http://purl.org/dc/elements/1.1/"
   xmlns:cc="http://creativecommons.org/ns#"
   xmlns:rdf="http://www.w3.org/1999/02/22-rdf-syntax-ns#"
   xmlns:svg="http://www.w3.org/2000/svg"
   xmlns="http://www.w3.org/2000/svg"
   xmlns:sodipodi="http://sodipodi.sourceforge.net/DTD/sodipodi-0.dtd"
   xmlns:inkscape="http://www.inkscape.org/namespaces/inkscape"
   width="45"
   height="45"
   version="1.1"
   id="svg11575"
   sodipodi:docname="wJ.svg"
   inkscape:version="1.0.1 (3bc2e813f5, 2020-09-07)">
  <metadata
     id="metadata11581">
    <rdf:RDF>
      <cc:Work
         rdf:about="">
        <dc:format>image/svg+xml</dc:format>
        <dc:type
           rdf:resource="http://purl.org/dc/dcmitype/StillImage" />
        <dc:title></dc:title>
      </cc:Work>
    </rdf:RDF>
  </metadata>
  <defs
     id="defs11579" />
  <sodipodi:namedview
     pagecolor="#ffffff"
     bordercolor="#666666"
     borderopacity="1"
     objecttolerance="10"
     gridtolerance="10"
     guidetolerance="10"
     inkscape:pageopacity="0"
     inkscape:pageshadow="2"
     inkscape:window-width="3840"
     inkscape:window-height="2050"
     id="namedview11577"
     showgrid="false"
     inkscape:zoom="15.839192"
     inkscape:cx="11.285984"
     inkscape:cy="44.958126"
     inkscape:window-x="3828"
     inkscape:window-y="-12"
     inkscape:window-maximized="1"
     inkscape:current-layer="g11573"
     inkscape:document-rotation="0" />
  <g
     fill="none"
     fill-rule="evenodd"
     stroke="#000"
     stroke-width="1.5"
     stroke-linecap="round"
     stroke-linejoin="round"
     id="g11573">
    <g
       id="g3486"
       transform="translate(40.964534,-0.08782879)">
      <g
         id="g5357"
         transform="matrix(0.55709447,0,0,0.55709447,0.29952265,-16.249729)">
        <path
           style="fill:#fae4ed;fill-opacity:1;stroke:#000000;stroke-width:2.69254;stroke-linecap:butt;stroke-linejoin:miter;stroke-miterlimit:4;stroke-dasharray:none;stroke-opacity:1"
           d="m -33.333332,51.091268 c -4.339131,0.02427 -9.346989,0.401228 -12.599207,3.27381 -5.573586,4.922974 -9.340661,13.38048 -8.234125,20.734126 1.540018,10.234413 9.117466,23.521944 19.444443,24.206349 9.848858,0.652718 19.006843,-10.867741 21.42857,-20.436507 2.132172,-8.424672 -1.889057,-18.245 -8.246162,-24.170241 -3.015661,-2.810794 -7.671112,-3.630597 -11.793519,-3.607537 z"
           id="path5326"
           sodipodi:nodetypes="sssssss" />
        <path
           style="fill:#000000;fill-opacity:1;stroke:none;stroke-width:1.41107;stroke-linecap:butt;stroke-linejoin:miter;stroke-miterlimit:4;stroke-dasharray:none;stroke-opacity:1"
           d="m -47.042036,68.822255 c -2.833833,1.221752 -2.568581,3.999682 -1.753736,6.383603 0.58027,1.243751 1.629813,2.48812 2.946277,2.876128 7.423754,2.188045 16.386619,2.180677 23.429926,0.631345 1.860494,-0.409256 3.496963,-2.051073 4.279118,-3.788071 0.774534,-2.935695 0.660813,-4.792441 -2.034334,-5.892558 -8.372836,-5.00229 -19.125545,-4.779457 -26.867251,-0.210447 z"
           id="path5328"
           sodipodi:nodetypes="ccssccc" />
        <g
           id="g3464">
          <path
             style="fill:#1f1a17;fill-opacity:1;stroke:none;stroke-width:0.282215px;stroke-linecap:butt;stroke-linejoin:miter;stroke-opacity:1"
             d="M -52.930113,52.728903 -64.732141,40.600197 c 0,0 -0.899577,-0.127799 -1.496608,0.229233 -0.939182,0.561644 -1.939501,1.457064 -2.579363,2.65377 -0.272311,0.509291 -0.214703,1.38287 -0.214703,1.38287 l 11.863667,12.0295 -1.819027,1.884192 c 0,0 -0.197635,0.848701 0.12401,1.314483 0.309904,0.448779 1.215276,0.520833 1.215276,0.520833 l 8.531746,-8.531746 c 0,0 -0.02226,-0.845175 -0.322421,-1.24008 -0.373832,-0.491829 -1.240079,-0.223212 -1.240079,-0.223212 z"
             id="path5330"
             sodipodi:nodetypes="ccsscccsccscc" />
          <path
             style="fill:none;stroke:#1f1a17;stroke-width:2.04132;stroke-linecap:butt;stroke-linejoin:miter;stroke-miterlimit:4;stroke-dasharray:none;stroke-opacity:1"
             d="m -55.453165,58.172416 2.665682,2.420156"
             id="path5338"
             sodipodi:nodetypes="cc" />
          <path
             style="fill:none;stroke:#1f1a17;stroke-width:2.04132;stroke-linecap:butt;stroke-linejoin:miter;stroke-miterlimit:4;stroke-dasharray:none;stroke-opacity:1"
             d="m -51.910616,54.454492 2.06941,1.858961"
             id="path5342"
             sodipodi:nodetypes="cc" />
        </g>
        <path
           style="fill:#000000;fill-opacity:1;stroke:none;stroke-width:0.282215;stroke-linecap:butt;stroke-linejoin:miter;stroke-miterlimit:4;stroke-dasharray:none;stroke-opacity:1"
           d="m -13.408418,67.166223 c 0,0 2.182294,-1.858852 3.28937,-2.136462 1.1576173,-0.290283 2.6021652,-0.478932 3.9682544,0.545635 2.0890118,1.566759 1.7896771,2.346199 3.125,3.42262 0.9142346,0.736976 2.97619043,1.884919 2.97619043,1.884919 0.12599288,1.274357 -6.18637593,1.406447 -6.49801593,0.44643 0.538889,0.350042 0.8522595,1.932722 1.0912699,1.88492 -0.096451,0 -0.7714283,3.869047 -0.6448411,4.067461 0.1193125,0.187011 1.190476,3.720237 1.190476,3.720237 -1.4925689,-0.366478 -2.9637724,-0.562033 -4.7123014,-2.976192 -0.2487549,-3.506493 -0.7901093,-6.01817 -2.4801583,-6.101188 z"
           id="path5344"
           sodipodi:nodetypes="cssscccscccc" />
        <g
           id="g3472"
           transform="matrix(-1,0,0,1,-67.364001,0)">
          <path
             style="fill:#1f1a17;fill-opacity:1;stroke:none;stroke-width:0.282215px;stroke-linecap:butt;stroke-linejoin:miter;stroke-opacity:1"
             d="M -52.930113,52.728903 -64.732141,40.600197 c 0,0 -0.899577,-0.127799 -1.496608,0.229233 -0.939182,0.561644 -1.939501,1.457064 -2.579363,2.65377 -0.272311,0.509291 -0.214703,1.38287 -0.214703,1.38287 l 11.863667,12.0295 -1.819027,1.884192 c 0,0 -0.197635,0.848701 0.12401,1.314483 0.309904,0.448779 1.215276,0.520833 1.215276,0.520833 l 8.531746,-8.531746 c 0,0 -0.02226,-0.845175 -0.322421,-1.24008 -0.373832,-0.491829 -1.240079,-0.223212 -1.240079,-0.223212 z"
             id="path3466"
             sodipodi:nodetypes="ccsscccsccscc" />
          <path
             style="fill:none;stroke:#1f1a17;stroke-width:2.04132;stroke-linecap:butt;stroke-linejoin:miter;stroke-miterlimit:4;stroke-dasharray:none;stroke-opacity:1"
             d="m -55.453165,58.172416 2.665682,2.420156"
             id="path3468"
             sodipodi:nodetypes="cc" />
          <path
             style="fill:none;stroke:#1f1a17;stroke-width:2.04132;stroke-linecap:butt;stroke-linejoin:miter;stroke-miterlimit:4;stroke-dasharray:none;stroke-opacity:1"
             d="m -51.910616,54.454492 2.06941,1.858961"
             id="path3470"
             sodipodi:nodetypes="cc" />
        </g>
      </g>
    </g>
  </g>
</svg>
