<svg height="92" width="92" xmlns="http://www.w3.org/2000/svg" xmlns:xlink="http://www.w3.org/1999/xlink"><radialGradient id="a" cx="-638.67987" cy="63.566608" gradientTransform="matrix(1.0751961 .02369973 -.02469788 1.1204806 875.45216 -171.12662)" gradientUnits="userSpaceOnUse" r="57.869461"><stop offset="0" stop-color="#f8d7a6"/><stop offset=".76315546" stop-color="#fac886"/><stop offset=".89982331" stop-color="#dfa35b"/><stop offset="1" stop-color="#a17e53"/></radialGradient><filter id="b" color-interpolation-filters="sRGB" height="1.402433" width="1.414727" x="-.207363" y="-.201217"><feTurbulence baseFrequency=".1 .015" numOctaves="2" result="result0" seed="57" type="turbulence"/><feComposite in="result0" in2="result0" operator="over" result="result1"/><feComposite in="SourceGraphic" in2="result1" k1="1" k2="0" k3="0" k4="0" operator="arithmetic" result="fbSourceGraphic"/><feGaussianBlur in="fbSourceGraphic" result="result8" stdDeviation="9.9999995"/><feComposite in="result8" in2="result8" operator="xor" result="result6"/><feDisplacementMap in="result1" in2="result6" result="result4" scale="100" xChannelSelector="A" yChannelSelector="A"/><feComposite in="SourceGraphic" in2="result4" k1="1" k2="0" k3="0" k4="0" operator="arithmetic" result="result2"/><feComposite in="SourceGraphic" in2="result2" operator="out"/></filter><filter id="c" color-interpolation-filters="sRGB" height="1.329215" width="1.203339" x="-.101669" y="-.164608"><feGaussianBlur stdDeviation="1.2730718"/></filter><filter id="d" color-interpolation-filters="sRGB" height="1.211246" width="1.211246" x="-.105623" y="-.105623"><feGaussianBlur stdDeviation="3.0476689"/></filter><filter id="e" color-interpolation-filters="sRGB" height="1.098093" width="1.10109" x="-.031104" y="-.030182"><feFlood flood-opacity=".498039" result="flood"/><feComposite in="flood" in2="SourceGraphic" operator="in" result="composite1"/><feGaussianBlur in="composite1" result="blur" stdDeviation="1.5"/><feOffset dx="4.5" dy="4.5" result="offset"/><feComposite in="SourceGraphic" in2="offset" operator="over" result="composite2"/></filter><filter id="f" color-interpolation-filters="sRGB" height="1.026874" width="1.021104" x="-.010552" y="-.013437"><feGaussianBlur stdDeviation=".20755854"/></filter><g><g transform="matrix(.68586115 0 0 .68586115 -231.77377 9.230463)"><g filter="url(#e)" transform="translate(216.73288 159.42387)"><ellipse cx="188.26712" cy="-105.81311" fill="url(#a)" rx="57.869461" ry="59.637218"/><ellipse cx="188.26712" cy="-116.5965" rx="42.80352" ry="42.449966" style="opacity:.825726;fill:#fecb8b;stroke:#3b332c;stroke-width:3;stroke-linecap:round;stroke-linejoin:round"/></g><g filter="url(#b)" opacity=".288382" transform="translate(56.926756 154.47412)"><ellipse cx="348.07324" cy="-100.86336" fill="#fecb8b" opacity="1" rx="57.869461" ry="59.637218"/></g><path d="m363.1022 76.23295s7.02475 11.74977 12.9047 14.84925c4.48776 2.36562 17.14735 3.7123 17.14735 3.7123-11.1995-3.41404-23.09518-10.90487-30.05205-18.56155z" fill="#f7ce8d" filter="url(#c)"/><circle cx="-402.375" cy="-180.875" fill="#efd49c" filter="url(#d)" opacity=".321577" r="34.625" transform="matrix(1.1102782 0 0 1.1102782 850.68122 243.85686)"/></g><path d="m45.502332 56.166037c-.67104-.71796-.84037-1.93842-.98909-7.12926l-.14088-4.91671-2.75336.062c-3.82125.086-6.52837.3694-8.948415.93664-2.65128.62143-5.65575 1.54997-6.98999 2.16026-1.29543.59254-2.12044.61248-2.66845.0644-.34248-.34249-.39257-.55728-.28665-1.22918.16596-1.05266.94321-2.00253 2.23649-2.73318.93129-.52614 1.37772-.61978 4.51849-.94784 5.008465-.52314 9.618675-.93889 12.335185-1.11243 2.19951-.1405 2.35713-.17753 2.31725-.54411-.0236-.21632-.0678-.90994-.0983-1.54135-.0486-1.005464.003-1.194744.40874-1.524194.52176-.42271 1.7063-.49883 2.45488-.15775.76205.3472.98916.98254.85702 2.397504l-.11714 1.25444 6.03723.12951c8.72832.18722 12.09512.16129 13.95423-.10754 2.43541-.35214 2.78144.0266 1.59698 1.74823-1.02378 1.48799-2.72144 3.17081-3.65447 3.62247-.82713.40041-1.0051.41921-2.00688.21198-.60461-.12507-1.8073-.50043-2.67264-.83412-3.70197-1.4276-6.15608-1.8691-11.06503-1.99062l-2.21493-.0548-.0467 5.86455-.0467 5.86455-.55181.47448c-.68408.58822-.93978.5938-1.46491.032zm-14.777315-17.0836c-.52117-.559424-.69252-1.725094-.39806-2.707924.25638-.85571.64522-1.20223 1.75828-1.56691 1.0329-.33841 4.940365-4.41832 5.375445-5.61266.12727-.34937.0495-.36448-1.29484-.25135-.78663.0661-2.506335.17914-3.821565.25101-2.38822.13048-2.39197.12999-2.90086-.37889-.67379-.67379-.64745-1.34262.0816-2.07163.45755-.45757.82416-.61597 1.62252-.70105.97023-.10342 10.854785-.50812 12.409805-.50812.99311 0 1.50338-.55052 1.50338-1.62198 0-.74978-.0999-.92711-.97497-1.73165-1.08414-.9967-1.13077-1.37618-.26848-2.18536.72856-.6837 2.72368-.64155 4.13062.0873 1.98577 1.02867 2.00547 1.77622.0899 3.41036-2.39642 2.04434-2.92724 1.87347 5.60902 1.80557 7.26475-.0578 7.46425-.0491 8.35709.36362 1.04602.48353 1.33212 1.04051.88498 1.72291-.39142.5974-1.03397.70597-4.17763.70597h-2.6238l.40049.67876c.37943.64308.38366.71417.0805 1.3528-.17591.37073-.53611.87723-.80044 1.12554-.26433.24832-.48059.52922-.48059.62422 0 .28629 2.33772 1.28158 4.3267 1.84209 1.02761.2896 2.02324.60617 2.21253.7035.39706.20418.46115 1.14191.12291 1.7986-1.00153 1.94462-2.20938 1.75631-5.60139-.8733l-2.29561-1.77966-1.45015 1.57598c-2.13157 2.31649-3.1458 2.83535-3.90424 1.99729-.64933-.71751-.67422-2.70376-.0459-3.67157.0825-.12695.6134-.38186 1.18001-.56649.83831-.27318 1.34745-.65807 2.73346-2.06639 1.5638-1.58898 2.13577-2.40961 1.86689-2.67849-.098-.0978-7.92628.18511-12.55144.45375l-2.09789.12186.10621.65451c.0808.49811-.0383.91062-.49856 1.72614l-.60478 1.07163 1.41643.7269c2.58443 1.3263 3.47039 2.34639 3.18124 3.66286-.12899.58729-.92376 1.158-1.60752 1.15432-.19466-.00078-.91497-.62278-1.60068-1.38166-.68572-.75885-1.61404-1.5671-2.06296-1.79614l-.81621-.4164-.88707 1.05413c-.48789.57976-1.46232 1.66307-2.16541 2.40733-1.831505 1.938794-2.741085 2.323594-3.518925 1.488704z" fill="#3b332c" filter="url(#f)" opacity=".83" stroke-width=".197"/></g></svg>