<?xml version="1.0" encoding="UTF-8" standalone="no"?>
<svg
   width="92"
   height="92"
   id="svg2"
   version="1.1"
   inkscape:version="1.2 (dc2aedaf03, 2022-05-15)"
   sodipodi:docname="red_pawn.svg"
   inkscape:export-filename="D:\Pictures\Chess Variants\Xiangqi\pieces\Internationalized\Wood\Red Cannon.png"
   inkscape:export-xdpi="365.15302"
   inkscape:export-ydpi="365.15302"
   xml:space="preserve"
   xmlns:inkscape="http://www.inkscape.org/namespaces/inkscape"
   xmlns:sodipodi="http://sodipodi.sourceforge.net/DTD/sodipodi-0.dtd"
   xmlns:xlink="http://www.w3.org/1999/xlink"
   xmlns="http://www.w3.org/2000/svg"
   xmlns:svg="http://www.w3.org/2000/svg"
   xmlns:rdf="http://www.w3.org/1999/02/22-rdf-syntax-ns#"
   xmlns:cc="http://creativecommons.org/ns#"
   xmlns:dc="http://purl.org/dc/elements/1.1/"><metadata
     id="metadata12"><rdf:RDF><cc:Work
         rdf:about=""><dc:format>image/svg+xml</dc:format><dc:type
           rdf:resource="http://purl.org/dc/dcmitype/StillImage" /></cc:Work></rdf:RDF></metadata><defs
     id="defs10"><radialGradient
       inkscape:collect="always"
       xlink:href="#linearGradient22489"
       id="radialGradient22491"
       cx="-638.67987"
       cy="63.566608"
       fx="-638.67987"
       fy="63.566608"
       r="57.869461"
       gradientTransform="matrix(1.0751961,0.02369973,-0.02469788,1.1204806,875.45216,-171.12662)"
       gradientUnits="userSpaceOnUse" /><linearGradient
       inkscape:collect="always"
       id="linearGradient22489"><stop
         style="stop-color:#f8d7a6;stop-opacity:1"
         offset="0"
         id="stop22485" /><stop
         style="stop-color:#fac886;stop-opacity:1"
         offset="0.76315546"
         id="stop40210" /><stop
         style="stop-color:#dfa35b;stop-opacity:1"
         offset="0.89982331"
         id="stop26749" /><stop
         style="stop-color:#a17e53;stop-opacity:1"
         offset="1"
         id="stop22487" /></linearGradient><filter
       inkscape:label="Tiger Fur"
       inkscape:menu="Overlays"
       inkscape:menu-tooltip="Tiger fur pattern with folds and bevel around the edges"
       height="1.4024332"
       y="-0.20121661"
       width="1.4147265"
       x="-0.20736324"
       style="color-interpolation-filters:sRGB"
       id="filter77257"><feTurbulence
         type="turbulence"
         result="result0"
         seed="57"
         numOctaves="2"
         baseFrequency="0.1 0.015"
         id="feTurbulence77241" /><feComposite
         result="result1"
         operator="over"
         in2="result0"
         in="result0"
         id="feComposite77243" /><feComposite
         result="fbSourceGraphic"
         in="SourceGraphic"
         operator="arithmetic"
         in2="result1"
         k1="1"
         id="feComposite77245"
         k2="0"
         k3="0"
         k4="0" /><feGaussianBlur
         stdDeviation="9.9999995"
         result="result8"
         in="fbSourceGraphic"
         id="feGaussianBlur77247" /><feComposite
         in2="result8"
         result="result6"
         operator="xor"
         in="result8"
         id="feComposite77249" /><feDisplacementMap
         xChannelSelector="A"
         yChannelSelector="A"
         scale="100"
         result="result4"
         in="result1"
         in2="result6"
         id="feDisplacementMap77251" /><feComposite
         in2="result4"
         result="result2"
         operator="arithmetic"
         k1="1"
         in="SourceGraphic"
         id="feComposite77253"
         k2="0"
         k3="0"
         k4="0" /><feComposite
         operator="out"
         in="SourceGraphic"
         in2="result2"
         id="feComposite77255" /></filter><filter
       inkscape:collect="always"
       style="color-interpolation-filters:sRGB"
       id="filter82197"
       x="-0.10166934"
       y="-0.1646076"
       width="1.2033387"
       height="1.3292152"><feGaussianBlur
         inkscape:collect="always"
         stdDeviation="1.2730718"
         id="feGaussianBlur82199" /></filter><filter
       inkscape:collect="always"
       style="color-interpolation-filters:sRGB"
       id="filter87124"
       x="-0.10562318"
       y="-0.10562318"
       width="1.2112464"
       height="1.2112464"><feGaussianBlur
         inkscape:collect="always"
         stdDeviation="3.0476689"
         id="feGaussianBlur87126" /></filter><filter
       style="color-interpolation-filters:sRGB;"
       inkscape:label="Drop Shadow"
       id="filter156792"
       x="-0.031104489"
       y="-0.030182494"
       width="1.1010896"
       height="1.0980931"><feFlood
         flood-opacity="0.498039"
         flood-color="rgb(0,0,0)"
         result="flood"
         id="feFlood156782" /><feComposite
         in="flood"
         in2="SourceGraphic"
         operator="in"
         result="composite1"
         id="feComposite156784" /><feGaussianBlur
         in="composite1"
         stdDeviation="1.5"
         result="blur"
         id="feGaussianBlur156786" /><feOffset
         dx="4.5"
         dy="4.5"
         result="offset"
         id="feOffset156788" /><feComposite
         in="SourceGraphic"
         in2="offset"
         operator="over"
         result="composite2"
         id="feComposite156790" /></filter><filter
       inkscape:collect="always"
       style="color-interpolation-filters:sRGB"
       id="filter4287"
       x="-0.011172816"
       y="-0.014670565"
       width="1.0223456"
       height="1.0293411"><feGaussianBlur
         inkscape:collect="always"
         stdDeviation="0.20755854"
         id="feGaussianBlur4289" /></filter></defs><sodipodi:namedview
     pagecolor="#ffffff"
     bordercolor="#666666"
     borderopacity="1"
     objecttolerance="10"
     gridtolerance="10"
     guidetolerance="10"
     inkscape:pageopacity="0"
     inkscape:pageshadow="2"
     inkscape:window-width="3840"
     inkscape:window-height="2050"
     id="namedview8"
     showgrid="false"
     inkscape:zoom="4"
     inkscape:cx="-99.000001"
     inkscape:cy="51.125001"
     inkscape:window-x="-12"
     inkscape:window-y="-12"
     inkscape:window-maximized="1"
     inkscape:current-layer="layer2"
     fit-margin-top="0"
     fit-margin-left="0"
     fit-margin-right="0"
     fit-margin-bottom="0"
     inkscape:pagecheckerboard="false"
     showguides="false"
     inkscape:showpageshadow="2"
     inkscape:deskcolor="#d1d1d1" /><g
     inkscape:groupmode="layer"
     id="layer1"
     inkscape:label="Background"
     style="display:inline" /><g
     inkscape:groupmode="layer"
     id="layer2"
     inkscape:label="Symbol"
     style="display:inline"><g
       id="g156600"
       transform="matrix(0.68586115,0,0,0.68586115,-231.77377,9.2304632)"><g
         id="g38345"
         transform="translate(216.73288,159.42387)"
         style="display:inline;filter:url(#filter156792)"><ellipse
           style="opacity:1;fill:url(#radialGradient22491);fill-opacity:1;stroke:none;stroke-width:1.94393;stroke-linecap:round;stroke-linejoin:round;paint-order:stroke fill markers"
           id="path1193"
           cx="188.26712"
           cy="-105.81311"
           rx="57.869461"
           ry="59.637218" /><ellipse
           style="opacity:0.825726;fill:#fecb8b;fill-opacity:1;stroke:#85391b;stroke-width:3;stroke-linecap:round;stroke-linejoin:round;stroke-dasharray:none;stroke-opacity:1;paint-order:markers fill stroke"
           id="path1750"
           cx="188.26712"
           cy="-116.5965"
           rx="42.80352"
           ry="42.449966" /></g><g
         id="g55586"
         transform="translate(56.926756,154.47412)"
         style="display:inline;opacity:0.288382;mix-blend-mode:multiply;filter:url(#filter77257)"><ellipse
           style="opacity:1;fill:#fecb8b;fill-opacity:1;stroke:none;stroke-width:1.94393;stroke-linecap:round;stroke-linejoin:round;paint-order:stroke fill markers"
           id="ellipse55582"
           cx="348.07324"
           cy="-100.86336"
           rx="57.869461"
           ry="59.637218" /></g><path
         style="display:inline;mix-blend-mode:normal;fill:#f7ce8d;fill-opacity:1;stroke:none;stroke-width:1px;stroke-linecap:butt;stroke-linejoin:miter;stroke-opacity:1;filter:url(#filter82197)"
         d="m 363.1022,76.23295 c 0,0 7.02475,11.74977 12.9047,14.84925 4.48776,2.36562 17.14735,3.7123 17.14735,3.7123 -11.1995,-3.41404 -23.09518,-10.90487 -30.05205,-18.56155 z"
         id="path78765"
         sodipodi:nodetypes="cscc" /><circle
         style="display:inline;opacity:0.321577;mix-blend-mode:normal;fill:#efd49c;fill-opacity:1;stroke:none;stroke-width:3;stroke-linecap:round;stroke-linejoin:round;stroke-dasharray:none;stroke-opacity:1;paint-order:markers fill stroke;filter:url(#filter87124)"
         id="path84638"
         cx="-402.375"
         cy="-180.875"
         r="34.625"
         transform="matrix(1.1102782,0,0,1.1102782,850.68122,243.85686)" /></g><path
       style="display:inline;opacity:0.83;mix-blend-mode:normal;fill:#85391b;fill-opacity:1;stroke-width:0.196668;filter:url(#filter4287)"
       d="m 29.60959,54.568993 c -0.77952,-0.67775 -0.46252,-1.07066 1.36354,-1.69014 1.53258,-0.5199 3.43358,-1.77977 4.00778,-2.65611 0.17574,-0.2682 0.41943,-0.77446 0.54156,-1.12501 0.4867,-1.39711 0.79145,-1.62073 2.20865,-1.62073 1.20918,0 1.32694,0.0406 1.86456,0.64228 1.03008,1.15285 0.68803,2.73617 -0.89145,4.12647 -1.24318,1.09431 -2.13428,1.4961 -4.89052,2.20512 -2.84575,0.73204 -3.47758,0.7498 -4.20412,0.11812 z m 26.29346,-0.04 c -1.52402,-0.76903 -3.68457,-2.99768 -4.4766,-4.61769 -0.74149,-1.51665 -0.76961,-1.76138 -0.25577,-2.22639 0.52929,-0.47901 1.31286,-0.19335 3.60495,1.31419 2.13123,1.40175 3.46534,1.91968 4.94475,1.91968 1.23868,0 2.08273,0.26503 2.08273,0.65397 0,0.5131 -1.11897,1.81278 -2.20433,2.5603 -1.46729,1.01056 -2.30075,1.09986 -3.69573,0.39594 z m -31.72961,-6.83144 c 0,-0.596183 -0.44808,-0.54581 -0.26792,-1.25553 0.28043,-1.10477 1.12189,-2.03979 2.45978,-2.73322 1.08361,-0.56164 1.3787,-0.61241 5.45478,-0.93858 2.37006,-0.18965 2.04122,-0.39031 2.18607,-0.44588 0.31111,-0.11939 0.34345,-4.30946 0.0764,-9.89242 -0.13233,-2.76614 -0.24258,-3.62038 -0.56164,-4.35206 -0.6562,-1.5048 -0.59855,-2.37944 0.21552,-3.26884 0.56655,-0.619 1.69143,-0.5926 2.68201,0.063 0.63715,0.42164 0.98704,0.50438 2.10998,0.49908 1.50809,-0.007 3.6639,-0.38461 6.18026,-1.08212 2.22383,-0.61642 2.72609,-0.89748 3.71537,-2.07906 0.92272,-1.10209 1.5034,-1.34722 2.35533,-0.99433 0.60305,0.24979 1.19034,1.36341 1.19034,2.25714 0,0.66293 -0.34609,1.5022 -0.74525,1.80719 -0.94157,0.71948 -8.26757,2.47912 -11.86499,2.84986 l -2.33659,0.24081 v 1.21557 c 0,0.66857 0.0532,1.60404 0.11831,2.07885 l 0.11828,0.86331 3.47092,-0.22302 c 11.74523,-0.75459 16.86281,-0.8377 17.88535,-0.29044 0.96814,0.51813 1.04433,1.73688 0.1345,2.15142 -0.29633,0.13501 -1.47875,0.23039 -2.8564,0.23039 -1.29293,0 -2.35251,0.0665 -2.35462,0.14749 -0.003,0.0811 -0.13397,1.29802 -0.29303,2.70419 -0.15907,1.40619 -0.29009,2.96498 -0.29117,3.46399 l -0.002,0.90729 4.17921,0.17439 c 5.15219,0.21498 8.13053,0.22598 9.71032,0.0221 1.66803,-0.21531 1.90401,-0.0147 1.30919,1.11303 -0.61674,1.16928 -2.99568,3.72655 -3.83893,4.12669 -1.05076,0.49861 -1.97394,0.39413 -3.83601,-0.43423 -0.93372,-0.41537 -2.22866,-0.89943 -2.87767,-1.07569 -4.56885,-1.24081 -8.56316,-1.48758 -18.80625,-0.72104 -5.25229,0.39304 -6.18164,1.0462 -11.03354,2.64348 -2.49217,0.82043 -3.58591,1.108332 -3.58591,0.22727 z m 22.09284,-5.99257 3.83505,-0.12795 0.0624,-2.45837 c 0.035,-1.37645 -0.0373,-2.91729 -0.16391,-3.50116 l -0.22628,-1.0428 -1.31111,0.11405 c -6.01597,0.52335 -10.16165,0.91947 -10.65466,1.01807 l -0.58821,0.11764 v 3.11346 3.11345 l 2.60586,-0.10921 c 1.43322,-0.0601 4.33162,-0.16681 6.44089,-0.23718 z"
       id="path156977"
       sodipodi:nodetypes="sssssssssssssssssssssssssscsssssscsccsssscsscsssssssssscccccssccccsc"
       transform="matrix(1.04662,0,0,1.04662,-1.9642602,-2.4589429)" /></g></svg>
