<?xml version="1.0" encoding="UTF-8" standalone="no"?>
<svg
   width="92"
   height="92"
   id="svg2"
   version="1.1"
   inkscape:version="1.2 (dc2aedaf03, 2022-05-15)"
   sodipodi:docname="red_elephant.svg"
   inkscape:export-filename="D:\Pictures\Chess Variants\Xiangqi\pieces\Internationalized\Wood\Red Cannon.png"
   inkscape:export-xdpi="365.15302"
   inkscape:export-ydpi="365.15302"
   xml:space="preserve"
   xmlns:inkscape="http://www.inkscape.org/namespaces/inkscape"
   xmlns:sodipodi="http://sodipodi.sourceforge.net/DTD/sodipodi-0.dtd"
   xmlns:xlink="http://www.w3.org/1999/xlink"
   xmlns="http://www.w3.org/2000/svg"
   xmlns:svg="http://www.w3.org/2000/svg"
   xmlns:rdf="http://www.w3.org/1999/02/22-rdf-syntax-ns#"
   xmlns:cc="http://creativecommons.org/ns#"
   xmlns:dc="http://purl.org/dc/elements/1.1/"><metadata
     id="metadata12"><rdf:RDF><cc:Work
         rdf:about=""><dc:format>image/svg+xml</dc:format><dc:type
           rdf:resource="http://purl.org/dc/dcmitype/StillImage" /></cc:Work></rdf:RDF></metadata><defs
     id="defs10"><radialGradient
       inkscape:collect="always"
       xlink:href="#linearGradient22489"
       id="radialGradient22491"
       cx="-638.67987"
       cy="63.566608"
       fx="-638.67987"
       fy="63.566608"
       r="57.869461"
       gradientTransform="matrix(1.0751961,0.02369973,-0.02469788,1.1204806,875.45216,-171.12662)"
       gradientUnits="userSpaceOnUse" /><linearGradient
       inkscape:collect="always"
       id="linearGradient22489"><stop
         style="stop-color:#f8d7a6;stop-opacity:1"
         offset="0"
         id="stop22485" /><stop
         style="stop-color:#fac886;stop-opacity:1"
         offset="0.76315546"
         id="stop40210" /><stop
         style="stop-color:#dfa35b;stop-opacity:1"
         offset="0.89982331"
         id="stop26749" /><stop
         style="stop-color:#a17e53;stop-opacity:1"
         offset="1"
         id="stop22487" /></linearGradient><filter
       inkscape:label="Tiger Fur"
       inkscape:menu="Overlays"
       inkscape:menu-tooltip="Tiger fur pattern with folds and bevel around the edges"
       height="1.4024332"
       y="-0.20121661"
       width="1.4147265"
       x="-0.20736324"
       style="color-interpolation-filters:sRGB"
       id="filter77257"><feTurbulence
         type="turbulence"
         result="result0"
         seed="57"
         numOctaves="2"
         baseFrequency="0.1 0.015"
         id="feTurbulence77241" /><feComposite
         result="result1"
         operator="over"
         in2="result0"
         in="result0"
         id="feComposite77243" /><feComposite
         result="fbSourceGraphic"
         in="SourceGraphic"
         operator="arithmetic"
         in2="result1"
         k1="1"
         id="feComposite77245"
         k2="0"
         k3="0"
         k4="0" /><feGaussianBlur
         stdDeviation="9.9999995"
         result="result8"
         in="fbSourceGraphic"
         id="feGaussianBlur77247" /><feComposite
         in2="result8"
         result="result6"
         operator="xor"
         in="result8"
         id="feComposite77249" /><feDisplacementMap
         xChannelSelector="A"
         yChannelSelector="A"
         scale="100"
         result="result4"
         in="result1"
         in2="result6"
         id="feDisplacementMap77251" /><feComposite
         in2="result4"
         result="result2"
         operator="arithmetic"
         k1="1"
         in="SourceGraphic"
         id="feComposite77253"
         k2="0"
         k3="0"
         k4="0" /><feComposite
         operator="out"
         in="SourceGraphic"
         in2="result2"
         id="feComposite77255" /></filter><filter
       inkscape:collect="always"
       style="color-interpolation-filters:sRGB"
       id="filter82197"
       x="-0.10166934"
       y="-0.1646076"
       width="1.2033387"
       height="1.3292152"><feGaussianBlur
         inkscape:collect="always"
         stdDeviation="1.2730718"
         id="feGaussianBlur82199" /></filter><filter
       inkscape:collect="always"
       style="color-interpolation-filters:sRGB"
       id="filter87124"
       x="-0.10562318"
       y="-0.10562318"
       width="1.2112464"
       height="1.2112464"><feGaussianBlur
         inkscape:collect="always"
         stdDeviation="3.0476689"
         id="feGaussianBlur87126" /></filter><filter
       style="color-interpolation-filters:sRGB;"
       inkscape:label="Drop Shadow"
       id="filter156792"
       x="-0.031104489"
       y="-0.030182494"
       width="1.1010896"
       height="1.0980931"><feFlood
         flood-opacity="0.498039"
         flood-color="rgb(0,0,0)"
         result="flood"
         id="feFlood156782" /><feComposite
         in="flood"
         in2="SourceGraphic"
         operator="in"
         result="composite1"
         id="feComposite156784" /><feGaussianBlur
         in="composite1"
         stdDeviation="1.5"
         result="blur"
         id="feGaussianBlur156786" /><feOffset
         dx="4.5"
         dy="4.5"
         result="offset"
         id="feOffset156788" /><feComposite
         in="SourceGraphic"
         in2="offset"
         operator="over"
         result="composite2"
         id="feComposite156790" /></filter><filter
       inkscape:collect="always"
       style="color-interpolation-filters:sRGB"
       id="filter4303"
       x="-0.010551253"
       y="-0.015466907"
       width="1.0211025"
       height="1.0309338"><feGaussianBlur
         inkscape:collect="always"
         stdDeviation="0.20755854"
         id="feGaussianBlur4305" /></filter></defs><sodipodi:namedview
     pagecolor="#ffffff"
     bordercolor="#666666"
     borderopacity="1"
     objecttolerance="10"
     gridtolerance="10"
     guidetolerance="10"
     inkscape:pageopacity="0"
     inkscape:pageshadow="2"
     inkscape:window-width="3840"
     inkscape:window-height="2050"
     id="namedview8"
     showgrid="false"
     inkscape:zoom="4"
     inkscape:cx="-99.000001"
     inkscape:cy="51.125001"
     inkscape:window-x="-12"
     inkscape:window-y="-12"
     inkscape:window-maximized="1"
     inkscape:current-layer="layer2"
     fit-margin-top="0"
     fit-margin-left="0"
     fit-margin-right="0"
     fit-margin-bottom="0"
     inkscape:pagecheckerboard="false"
     showguides="false"
     inkscape:showpageshadow="2"
     inkscape:deskcolor="#d1d1d1" /><g
     inkscape:groupmode="layer"
     id="layer1"
     inkscape:label="Background"
     style="display:inline" /><g
     inkscape:groupmode="layer"
     id="layer2"
     inkscape:label="Symbol"
     style="display:inline"><g
       id="g156600"
       transform="matrix(0.68586115,0,0,0.68586115,-231.77377,9.2304632)"><g
         id="g38345"
         transform="translate(216.73288,159.42387)"
         style="display:inline;filter:url(#filter156792)"><ellipse
           style="opacity:1;fill:url(#radialGradient22491);fill-opacity:1;stroke:none;stroke-width:1.94393;stroke-linecap:round;stroke-linejoin:round;paint-order:stroke fill markers"
           id="path1193"
           cx="188.26712"
           cy="-105.81311"
           rx="57.869461"
           ry="59.637218" /><ellipse
           style="opacity:0.825726;fill:#fecb8b;fill-opacity:1;stroke:#85391b;stroke-width:3;stroke-linecap:round;stroke-linejoin:round;stroke-dasharray:none;stroke-opacity:1;paint-order:markers fill stroke"
           id="path1750"
           cx="188.26712"
           cy="-116.5965"
           rx="42.80352"
           ry="42.449966" /></g><g
         id="g55586"
         transform="translate(56.926756,154.47412)"
         style="display:inline;opacity:0.288382;mix-blend-mode:multiply;filter:url(#filter77257)"><ellipse
           style="opacity:1;fill:#fecb8b;fill-opacity:1;stroke:none;stroke-width:1.94393;stroke-linecap:round;stroke-linejoin:round;paint-order:stroke fill markers"
           id="ellipse55582"
           cx="348.07324"
           cy="-100.86336"
           rx="57.869461"
           ry="59.637218" /></g><path
         style="display:inline;mix-blend-mode:normal;fill:#f7ce8d;fill-opacity:1;stroke:none;stroke-width:1px;stroke-linecap:butt;stroke-linejoin:miter;stroke-opacity:1;filter:url(#filter82197)"
         d="m 363.1022,76.23295 c 0,0 7.02475,11.74977 12.9047,14.84925 4.48776,2.36562 17.14735,3.7123 17.14735,3.7123 -11.1995,-3.41404 -23.09518,-10.90487 -30.05205,-18.56155 z"
         id="path78765"
         sodipodi:nodetypes="cscc" /><circle
         style="display:inline;opacity:0.321577;mix-blend-mode:normal;fill:#efd49c;fill-opacity:1;stroke:none;stroke-width:3;stroke-linecap:round;stroke-linejoin:round;stroke-dasharray:none;stroke-opacity:1;paint-order:markers fill stroke;filter:url(#filter87124)"
         id="path84638"
         cx="-402.375"
         cy="-180.875"
         r="34.625"
         transform="matrix(1.1102782,0,0,1.1102782,850.68122,243.85686)" /></g><path
       d="m 35.530824,54.6953 c -0.2275,-0.15934 -0.57693,-0.66822 -0.77651,-1.13084 -0.3324,-0.77045 -0.35752,-1.36591 -0.29896,-7.085357 0.0352,-3.43432 -0.002,-6.24425 -0.0812,-6.24425 -0.0799,0 -0.68603,0.47084 -1.34703,1.04629 -1.53096,1.33283 -4.778,3.78735 -6.3484,4.79892 -2.60938,1.68083 -4.46854,1.5963 -4.44135,-0.20196 0.0164,-1.08503 0.56579,-2.37157 1.43597,-3.36265 0.63208,-0.71991 0.69164,-0.74314 1.5974,-0.62298 1.15633,0.1534 1.53759,-0.0269 5.47027,-2.58964 4.00929,-2.61246 3.73931,-2.27093 3.73931,-4.7304 v -2.05385 l -1.42583,0.11529 c -0.78423,0.0635 -2.6855,0.22165 -4.22505,0.35163 -2.62365,0.22149 -2.82406,0.2138 -3.19586,-0.12268 -0.21817,-0.19744 -0.39668,-0.50258 -0.39668,-0.67809 0,-0.4911 0.5724,-1.19619 1.15068,-1.41745 0.43936,-0.16809 6.25586,-0.74219 7.65025,-0.75509 0.43189,-0.004 0.44249,-0.0562 0.44249,-2.17378 0,-1.48368 -0.0933,-2.39289 -0.295,-2.87569 -0.41792,-1.00026 -0.37039,-1.35662 0.24585,-1.84311 0.43578,-0.34402 0.72513,-0.40943 1.48964,-0.33673 0.52642,0.05 1.18309,0.26767 1.47502,0.48881 0.50752,0.38446 0.52314,0.45346 0.44025,1.94499 -0.0472,0.85051 -0.0915,2.24829 -0.0983,3.1062 l -0.0124,1.55981 1.27833,-0.0848 c 0.7031,-0.0466 1.97219,-0.0676 2.82022,-0.0466 1.68233,0.0416 2.35033,0.32551 2.73083,1.16061 0.19013,0.4173 0.15902,0.55374 -0.21055,0.92378 -0.40499,0.4055 -0.64116,0.4383 -3.5754,0.49686 l -3.14176,0.0628 v 1.72964 1.72962 l 1.14009,0.51165 c 0.62705,0.28141 1.97003,0.73374 2.98437,1.0052 1.01435,0.27146 1.92841,0.57769 2.03124,0.68052 0.27067,0.27069 -0.003,1.46899 -0.47176,2.06477 -0.3264,0.41493 -0.56883,0.51161 -1.28294,0.51161 -1.00054,0 -1.49984,-0.22568 -3.01068,-1.36088 -0.58742,-0.44135 -1.1376,-0.80246 -1.22264,-0.80246 -0.085,0 -0.17968,3.50352 -0.21032,7.78558 l -0.0557,7.785617 -0.5518,0.47448 c -0.641,0.55119 -0.87936,0.581641 -1.44599,0.18476 z m 13.34886,-3.16393 c -0.51931,-0.363737 -1.02597,-1.278727 -1.02597,-1.852847 0,-0.22511 0.17423,-0.92647 0.38715,-1.55856 0.57256,-1.69957 0.84802,-5.24319 0.75587,-9.72345 -0.0888,-4.31831 -0.0522,-4.16326 -1.44082,-6.09903 -0.79037,-1.10176 -0.87326,-1.88077 -0.30018,-2.82068 0.60263,-0.98831 1.19359,-1.17127 4.23636,-1.31161 1.51434,-0.0699 3.72687,-0.2119 4.91671,-0.31569 1.18985,-0.10374 4.12235,-0.24928 6.51668,-0.32335 4.31186,-0.13341 4.3603,-0.1304 5.08448,0.31718 1.46521,0.90555 1.77703,2.07221 1.09085,4.0815 -0.55161,1.61528 -0.74778,3.21309 -0.8754,7.13001 -0.10513,3.22712 0.0982,8.66676 0.38265,10.23766 0.11546,0.63759 0.0558,0.76327 -0.67767,1.42586 -0.9292,0.839477 -1.05849,0.855287 -2.76186,0.33732 -1.68697,-0.51294 -4.8005,-0.66376 -9.05473,-0.43862 -2.92781,0.15494 -3.65972,0.25972 -4.90184,0.701697 -1.71106,0.60884 -1.76017,0.61331 -2.33228,0.21261 z m 13.52751,-3.973917 2.65503,-0.14418 0.0562,-1.91753 0.0563,-1.91751 -2.61298,0.002 c -2.71707,0.002 -6.04412,0.23676 -8.66055,0.61177 l -1.52417,0.21847 v 1.6554 c 0,1.45397 0.0461,1.67257 0.37862,1.79655 0.35396,0.13195 3.357,0.0371 9.65147,-0.30467 z m -2.65502,-6.34507 c 2.27152,-0.10458 4.41767,-0.19039 4.76921,-0.19053 h 0.63917 v -2.26171 -2.26168 h -1.29021 c -0.70962,0 -2.72301,0.13277 -4.4742,0.29504 -1.75121,0.16227 -4.02477,0.3614 -5.05236,0.4425 l -1.86836,0.14746 -0.0569,1.85361 c -0.0313,1.01947 -0.01,1.97697 0.0482,2.12778 0.0831,0.21643 0.42647,0.24933 1.63036,0.15613 0.83882,-0.065 3.38365,-0.20367 5.65517,-0.30829 z m -0.24854,-6.86416 c 3.00018,-0.1009 5.54457,-0.23898 5.65422,-0.30675 0.11061,-0.0684 0.19937,-0.9044 0.19937,-1.87788 0,-1.72801 -0.008,-1.75663 -0.51407,-1.88368 -0.75302,-0.189 -10.85569,0.0653 -11.77245,0.29632 -0.42978,0.10831 -0.88409,0.33734 -1.00958,0.50898 -0.21844,0.29872 -0.20258,1.53775 0.0387,3.02783 l 0.10741,0.66324 0.92075,-0.12226 c 0.50641,-0.0673 3.37543,-0.20485 6.3756,-0.3058 z"
       style="display:inline;opacity:0.83;fill:#85391b;fill-opacity:1;stroke-width:0.196668;filter:url(#filter4303)"
       id="path157056"
       sodipodi:nodetypes="csssssssscsccsssssssssscsccsssccccsssssssscsccsssssssssssssssssscccccscsscccccccssscscsccsssssssccss" /></g></svg>
