<?xml version="1.0" encoding="UTF-8" standalone="no"?>
<svg
   width="92"
   height="92"
   id="svg2"
   version="1.1"
   inkscape:version="1.2 (dc2aedaf03, 2022-05-15)"
   sodipodi:docname="red_chariot.svg"
   inkscape:export-filename="D:\Pictures\Chess Variants\Xiangqi\pieces\Internationalized\Wood\Red Cannon.png"
   inkscape:export-xdpi="365.15302"
   inkscape:export-ydpi="365.15302"
   xml:space="preserve"
   xmlns:inkscape="http://www.inkscape.org/namespaces/inkscape"
   xmlns:sodipodi="http://sodipodi.sourceforge.net/DTD/sodipodi-0.dtd"
   xmlns:xlink="http://www.w3.org/1999/xlink"
   xmlns="http://www.w3.org/2000/svg"
   xmlns:svg="http://www.w3.org/2000/svg"
   xmlns:rdf="http://www.w3.org/1999/02/22-rdf-syntax-ns#"
   xmlns:cc="http://creativecommons.org/ns#"
   xmlns:dc="http://purl.org/dc/elements/1.1/"><metadata
     id="metadata12"><rdf:RDF><cc:Work
         rdf:about=""><dc:format>image/svg+xml</dc:format><dc:type
           rdf:resource="http://purl.org/dc/dcmitype/StillImage" /></cc:Work></rdf:RDF></metadata><defs
     id="defs10"><radialGradient
       inkscape:collect="always"
       xlink:href="#linearGradient22489"
       id="radialGradient22491"
       cx="-638.67987"
       cy="63.566608"
       fx="-638.67987"
       fy="63.566608"
       r="57.869461"
       gradientTransform="matrix(1.0751961,0.02369973,-0.02469788,1.1204806,875.45216,-171.12662)"
       gradientUnits="userSpaceOnUse" /><linearGradient
       inkscape:collect="always"
       id="linearGradient22489"><stop
         style="stop-color:#f8d7a6;stop-opacity:1"
         offset="0"
         id="stop22485" /><stop
         style="stop-color:#fac886;stop-opacity:1"
         offset="0.76315546"
         id="stop40210" /><stop
         style="stop-color:#dfa35b;stop-opacity:1"
         offset="0.89982331"
         id="stop26749" /><stop
         style="stop-color:#a17e53;stop-opacity:1"
         offset="1"
         id="stop22487" /></linearGradient><filter
       inkscape:label="Tiger Fur"
       inkscape:menu="Overlays"
       inkscape:menu-tooltip="Tiger fur pattern with folds and bevel around the edges"
       height="1.4024332"
       y="-0.20121661"
       width="1.4147265"
       x="-0.20736324"
       style="color-interpolation-filters:sRGB"
       id="filter77257"><feTurbulence
         type="turbulence"
         result="result0"
         seed="57"
         numOctaves="2"
         baseFrequency="0.1 0.015"
         id="feTurbulence77241" /><feComposite
         result="result1"
         operator="over"
         in2="result0"
         in="result0"
         id="feComposite77243" /><feComposite
         result="fbSourceGraphic"
         in="SourceGraphic"
         operator="arithmetic"
         in2="result1"
         k1="1"
         id="feComposite77245"
         k2="0"
         k3="0"
         k4="0" /><feGaussianBlur
         stdDeviation="9.9999995"
         result="result8"
         in="fbSourceGraphic"
         id="feGaussianBlur77247" /><feComposite
         in2="result8"
         result="result6"
         operator="xor"
         in="result8"
         id="feComposite77249" /><feDisplacementMap
         xChannelSelector="A"
         yChannelSelector="A"
         scale="100"
         result="result4"
         in="result1"
         in2="result6"
         id="feDisplacementMap77251" /><feComposite
         in2="result4"
         result="result2"
         operator="arithmetic"
         k1="1"
         in="SourceGraphic"
         id="feComposite77253"
         k2="0"
         k3="0"
         k4="0" /><feComposite
         operator="out"
         in="SourceGraphic"
         in2="result2"
         id="feComposite77255" /></filter><filter
       inkscape:collect="always"
       style="color-interpolation-filters:sRGB"
       id="filter82197"
       x="-0.10166934"
       y="-0.1646076"
       width="1.2033387"
       height="1.3292152"><feGaussianBlur
         inkscape:collect="always"
         stdDeviation="1.2730718"
         id="feGaussianBlur82199" /></filter><filter
       inkscape:collect="always"
       style="color-interpolation-filters:sRGB"
       id="filter87124"
       x="-0.10562318"
       y="-0.10562318"
       width="1.2112464"
       height="1.2112464"><feGaussianBlur
         inkscape:collect="always"
         stdDeviation="3.0476689"
         id="feGaussianBlur87126" /></filter><filter
       style="color-interpolation-filters:sRGB;"
       inkscape:label="Drop Shadow"
       id="filter156792"
       x="-0.031104489"
       y="-0.030182494"
       width="1.1010896"
       height="1.0980931"><feFlood
         flood-opacity="0.498039"
         flood-color="rgb(0,0,0)"
         result="flood"
         id="feFlood156782" /><feComposite
         in="flood"
         in2="SourceGraphic"
         operator="in"
         result="composite1"
         id="feComposite156784" /><feGaussianBlur
         in="composite1"
         stdDeviation="1.5"
         result="blur"
         id="feGaussianBlur156786" /><feOffset
         dx="4.5"
         dy="4.5"
         result="offset"
         id="feOffset156788" /><feComposite
         in="SourceGraphic"
         in2="offset"
         operator="over"
         result="composite2"
         id="feComposite156790" /></filter><filter
       inkscape:collect="always"
       style="color-interpolation-filters:sRGB"
       id="filter4315"
       x="-0.015438469"
       y="-0.014689154"
       width="1.0308769"
       height="1.0293783"><feGaussianBlur
         inkscape:collect="always"
         stdDeviation="0.20755854"
         id="feGaussianBlur4317" /></filter></defs><sodipodi:namedview
     pagecolor="#ffffff"
     bordercolor="#666666"
     borderopacity="1"
     objecttolerance="10"
     gridtolerance="10"
     guidetolerance="10"
     inkscape:pageopacity="0"
     inkscape:pageshadow="2"
     inkscape:window-width="3840"
     inkscape:window-height="2050"
     id="namedview8"
     showgrid="false"
     inkscape:zoom="1.4142136"
     inkscape:cx="-99.348504"
     inkscape:cy="-116.31907"
     inkscape:window-x="-12"
     inkscape:window-y="-12"
     inkscape:window-maximized="1"
     inkscape:current-layer="layer2"
     fit-margin-top="0"
     fit-margin-left="0"
     fit-margin-right="0"
     fit-margin-bottom="0"
     inkscape:pagecheckerboard="false"
     showguides="false"
     inkscape:showpageshadow="2"
     inkscape:deskcolor="#d1d1d1" /><g
     inkscape:groupmode="layer"
     id="layer1"
     inkscape:label="Background"
     style="display:inline" /><g
     inkscape:groupmode="layer"
     id="layer2"
     inkscape:label="Symbol"
     style="display:inline"><g
       id="g156600"
       transform="matrix(0.68586115,0,0,0.68586115,-231.77377,9.2304632)"><g
         id="g38345"
         transform="translate(216.73288,159.42387)"
         style="display:inline;filter:url(#filter156792)"><ellipse
           style="opacity:1;fill:url(#radialGradient22491);fill-opacity:1;stroke:none;stroke-width:1.94393;stroke-linecap:round;stroke-linejoin:round;paint-order:stroke fill markers"
           id="path1193"
           cx="188.26712"
           cy="-105.81311"
           rx="57.869461"
           ry="59.637218" /><ellipse
           style="opacity:0.825726;fill:#fecb8b;fill-opacity:1;stroke:#85391b;stroke-width:3;stroke-linecap:round;stroke-linejoin:round;stroke-dasharray:none;stroke-opacity:1;paint-order:markers fill stroke"
           id="path1750"
           cx="188.26712"
           cy="-116.5965"
           rx="42.80352"
           ry="42.449966" /></g><g
         id="g55586"
         transform="translate(56.926756,154.47412)"
         style="display:inline;opacity:0.288382;mix-blend-mode:multiply;filter:url(#filter77257)"><ellipse
           style="opacity:1;fill:#fecb8b;fill-opacity:1;stroke:none;stroke-width:1.94393;stroke-linecap:round;stroke-linejoin:round;paint-order:stroke fill markers"
           id="ellipse55582"
           cx="348.07324"
           cy="-100.86336"
           rx="57.869461"
           ry="59.637218" /></g><path
         style="display:inline;mix-blend-mode:normal;fill:#f7ce8d;fill-opacity:1;stroke:none;stroke-width:1px;stroke-linecap:butt;stroke-linejoin:miter;stroke-opacity:1;filter:url(#filter82197)"
         d="m 363.1022,76.23295 c 0,0 7.02475,11.74977 12.9047,14.84925 4.48776,2.36562 17.14735,3.7123 17.14735,3.7123 -11.1995,-3.41404 -23.09518,-10.90487 -30.05205,-18.56155 z"
         id="path78765"
         sodipodi:nodetypes="cscc" /><circle
         style="display:inline;opacity:0.321577;mix-blend-mode:normal;fill:#efd49c;fill-opacity:1;stroke:none;stroke-width:3;stroke-linecap:round;stroke-linejoin:round;stroke-dasharray:none;stroke-opacity:1;paint-order:markers fill stroke;filter:url(#filter87124)"
         id="path84638"
         cx="-402.375"
         cy="-180.875"
         r="34.625"
         transform="matrix(1.1102782,0,0,1.1102782,850.68122,243.85686)" /><path
         d="m 288.7942,-29.744615 c -0.1381,-0.0555 -0.44639,-0.46891 -0.68504,-0.91864 -0.38158,-0.719 -0.44248,-1.183231 -0.50462,-3.845831 l -0.0706,-2.40313 -2.24254,0.12807 c -4.91045,0.280433 -4.21565,0.48563 -8.71191,2.14164 -1.34376,0.49492 -2.55562,0.89984 -2.69304,0.89984 -0.41048,0 -0.86247,-0.82611 -0.85785,-1.56792 0.005,-0.96379 0.59221,-2.15776 1.41342,-2.8788 0.62442,-0.54824 0.8653,-0.62193 2.44007,-0.74653 3.17473,-0.661318 6.02784,-1.139857 8.72158,-1.2985 2.09432,-0.005 2.16335,-0.0505 2.16335,-1.39051 v -1.14968 l -1.32751,0.10776 c -1.29653,0.10522 -4.06121,0.6374 -5.67328,1.09207 -0.9368,0.26422 -1.32059,0.16048 -1.72596,-0.46652 -0.24303,-0.37588 -0.2596,-0.7379 -0.0972,-2.12477 0.30542,-2.60823 -0.003,-5.23255 -0.82458,-7.02875 -0.50749,-1.10884 -0.4829,-1.87825 0.0809,-2.53375 0.45905,-0.53371 0.48295,-0.53801 3.19586,-0.57713 1.50336,-0.0218 3.55201,-0.1058 4.55256,-0.18699 l 1.81918,-0.14756 v -0.95797 -0.95796 l -1.22917,-0.002 c -0.67605,0 -3.3313,0.14204 -5.90056,0.31731 -4.3122,0.29415 -4.7089,0.29407 -5.15943,-0.002 -0.58613,-0.38405 -0.80557,-1.1099 -0.50519,-1.67114 0.52695,-0.98463 2.48506,-1.38637 6.79595,-1.39431 1.51436,-0.003 3.48349,-0.062 4.37588,-0.13137 1.60513,-0.12496 1.62252,-0.13207 1.62252,-0.66314 0,-0.29527 -0.13275,-0.85458 -0.295,-1.24289 -0.39216,-0.93857 -0.37273,-1.22095 0.11535,-1.67566 0.64523,-0.60113 1.61878,-0.69414 2.62166,-0.25051 1.10463,0.48861 1.29371,0.85229 1.08793,2.0925 -0.0897,0.54085 -0.1684,1.12147 -0.17485,1.29029 -0.0109,0.27066 0.57541,0.30553 4.95416,0.29501 5.2996,-0.0128 5.54461,0.0261 6.16852,0.97833 0.28857,0.4404 0.28955,0.52756 0.0109,0.95303 -0.30436,0.4645 -0.34398,0.46932 -4.89016,0.59664 -2.52084,0.0706 -5.00374,0.1779 -5.51753,0.23849 l -0.93417,0.11018 v 1.09081 1.09083 l 2.76369,-0.14028 c 1.63423,-0.0829 3.0382,-0.25498 3.43538,-0.42095 0.36945,-0.15435 0.87859,-0.28064 1.13148,-0.28064 0.55241,0 1.64027,0.76792 2.15347,1.52016 0.47465,0.69569 0.35809,2.01747 -0.34183,3.87698 -0.31958,0.84908 -0.59392,2.19629 -0.76696,3.76629 -0.16738,1.51869 -0.39009,2.62852 -0.58811,2.93072 -0.41309,0.63049 -1.16232,0.80692 -2.22245,0.52338 -0.46765,-0.12355 -1.911,-0.2259 -3.20748,-0.2259 h -2.35723 v 1.25082 1.2508 l 4.3759,0.13137 c 8.26149,0.24801 4.81109,0.19949 7.19811,-0.17174 1.21444,-0.18886 2.34282,-0.29167 2.50753,-0.22849 0.17435,0.067 0.29945,0.35687 0.29945,0.69408 0,1.14128 -4.23559,4.54657 -5.65518,4.54657 -0.2555,0 -1.54353,-0.2743 -2.86224,-0.6096 -2.48182,-0.625374 -1.3604,-0.362764 -4.56852,-0.666 l -1.29505,-0.12241 v 2.76166 3.386661 l -0.57486,0.57487 c -0.54523,0.54523 -0.97995,0.66988 -1.54457,0.44288 z m -5.67622,-14.804441 c 0.26952,-0.10257 1.42579,-0.29163 2.5695,-0.42033 l 2.07946,-0.23398 v -1.15305 -1.15305 l -0.83584,0.002 c -0.93546,0.002 -4.12044,0.34481 -4.81085,0.51809 -0.40028,0.10046 -0.43629,0.19913 -0.33827,0.92721 0.24733,1.83754 0.30671,1.90481 1.336,1.51349 z m 13.18837,-1.23955 c 0.14258,-0.35154 0.30607,-1.011 0.36331,-1.46545 l 0.10405,-0.8263 -2.68419,0.10512 c -1.47632,0.0578 -2.79483,0.13924 -2.93003,0.18095 -0.16385,0.0505 -0.24583,0.50423 -0.24583,1.3603 v 1.28452 h 2.56672 2.56671 z m -11.04693,-3.99611 2.50752,-0.12437 v -1.25856 -1.25853 h -1.24709 c -1.6097,0 -4.48382,0.38111 -4.80047,0.63654 -0.24865,0.20054 -0.34862,1.94849 -0.12429,2.17281 0.0668,0.0669 0.35448,0.0845 0.63919,0.039 0.28467,-0.0454 1.64599,-0.1385 3.02514,-0.20692 z m 11.63157,-0.59252 c 0.22418,-0.58422 0.11986,-1.60705 -0.19016,-1.86432 -0.20919,-0.1736 -1.19741,-0.28523 -3.04836,-0.34428 l -2.73883,-0.0874 v 1.30353 1.30357 h 2.92898 c 2.48944,0 2.9469,-0.0467 3.04837,-0.31108 z"
         style="display:inline;opacity:0.83;fill:#85391b;fill-opacity:1;stroke-width:0.196668;filter:url(#filter4315)"
         id="path157117"
         sodipodi:nodetypes="ssccssscsccscsssscscsccccscsccsssssccscssccccsssssscscccsscsscscccssscsccccssccsscssscccsccccssccscssscccsss"
         transform="matrix(1.9668554,0,0,1.9668554,-162.05466,133.65381)" /></g></g></svg>
