<?xml version="1.0" encoding="UTF-8" standalone="no"?>
<svg
   viewBox="0 0 60 60"
   version="1.1"
   id="svg3"
   sodipodi:docname="0FU.svg"
   inkscape:version="1.3 (0e150ed6c4, 2023-07-21)"
   xmlns:inkscape="http://www.inkscape.org/namespaces/inkscape"
   xmlns:sodipodi="http://sodipodi.sourceforge.net/DTD/sodipodi-0.dtd"
   xmlns="http://www.w3.org/2000/svg"
   xmlns:svg="http://www.w3.org/2000/svg">
  <sodipodi:namedview
     id="namedview3"
     pagecolor="#ffffff"
     bordercolor="#666666"
     borderopacity="1.0"
     inkscape:showpageshadow="2"
     inkscape:pageopacity="0.0"
     inkscape:pagecheckerboard="0"
     inkscape:deskcolor="#d1d1d1"
     inkscape:zoom="5.6568543"
     inkscape:cx="31.819805"
     inkscape:cy="48.083261"
     inkscape:window-width="3840"
     inkscape:window-height="2054"
     inkscape:window-x="-11"
     inkscape:window-y="-11"
     inkscape:window-maximized="1"
     inkscape:current-layer="svg3" />
  <defs
     id="defs1">
    <filter
       id="0FU_svg__a"
       x="-0.13676314"
       y="-0.11210537"
       width="1.3235293"
       height="1.2653512">
      <feGaussianBlur
         in="SourceAlpha"
         result="blur"
         stdDeviation="2"
         id="feGaussianBlur1" />
      <feOffset
         dx="2"
         dy="2"
         result="offsetBlur"
         id="feOffset1" />
      <feBlend
         in="SourceGraphic"
         in2="offsetBlur"
         id="feBlend1" />
    </filter>
    <filter
       id="a"
       x="-0.11811024"
       y="-0.098714653"
       width="1.2854331"
       height="1.2385604">
      <feGaussianBlur
         in="SourceAlpha"
         result="blur"
         stdDeviation="2"
         id="feGaussianBlur1-8" />
      <feOffset
         result="offsetBlur"
         dx="2"
         dy="2"
         id="feOffset1-7" />
      <feBlend
         in="SourceGraphic"
         in2="offsetBlur"
         id="feBlend1-9"
         mode="normal" />
    </filter>
  </defs>
  <g
     filter="url(#0FU_svg__a)"
     transform="translate(39.633 3.208)scale(.88521)"
     id="g1">
    <path
       fill="#cebd6a"
       d="m -23.798,14.316976 -7.051,44.451 H 9.085 l -6.79,-44.163 c -4.418,-1.298 -8.8391112,-2.6 -13.255111,-3.896 z"
       id="path1"
       style="fill:#feeca4;fill-opacity:1;stroke:#333333;stroke-width:1.12968;stroke-dasharray:none"
       sodipodi:nodetypes="cccccc" />
  </g>
  <path
     d="m 21.376038,49.57317 c -0.445962,-0.220733 -0.692677,-0.579099 -0.902648,-1.310999 -0.100859,-0.351335 0.180998,-1.485553 0.554513,-2.232007 0.307991,-0.61622 0.400965,-2.349354 0.423473,-3.65583 0.01559,-0.917795 0.144805,-1.641938 0.311031,-1.744591 0.263186,-0.162719 0.762451,0.454197 0.962137,1.188994 0.06185,0.228449 0.204776,0.586226 0.317321,0.795011 0.112485,0.208779 0.29004,0.691357 0.394192,1.07238 0.210199,0.767964 0.438218,1.282606 0.568533,1.282606 1.715897,-0.831519 3.215296,-2.080007 4.795982,-3.148778 1.146603,-0.764944 1.63539,-1.355272 1.122265,-1.355272 -0.116392,0 -0.378028,-0.14689 -0.582584,-0.32643 -0.800756,-0.703072 -1.602028,-2.190285 -2.51646,-3.258916 l -0.231664,0.209673 c -0.127317,0.115299 -0.318872,0.389625 -0.424874,0.609646 -0.261627,0.541431 -1.164774,1.620758 -1.538395,1.838516 -0.395717,0.230634 -0.769925,0.220368 -1.335855,-0.03653 -0.330928,-0.150169 -0.472246,-0.32941 -0.616604,-0.584011 -0.448152,-0.790342 -0.30057,-1.170368 1.136668,-2.955949 0.396559,-0.492625 0.636589,-1.034042 0.637044,-1.43692 1.94e-4,-0.215799 -0.04363,-0.223845 -1.039296,-0.190633 -1.410982,0.04695 -2.40726,-0.205069 -2.891422,-0.731583 -1.539937,-1.674817 -2.13201,-2.514776 -2.005332,-2.845007 0.05879,-0.153447 0.171325,-0.168911 0.777092,-0.106824 0.389558,0.04 0.961321,0.144639 1.270557,0.232654 0.720757,0.205202 3.906503,0.170466 4.121414,-0.04486 0.182952,-0.183347 0.158447,-1.630658 -0.03487,-1.982313 -1.190164,-2.179002 -1.593617,-2.990967 -1.593617,-3.207266 0,-0.190268 0.05291,-0.21315 0.402174,-0.172288 0.614975,0.07189 2.042427,0.504532 2.770421,0.839687 1.657276,0.816289 1.576287,1.776519 1.346359,3.371789 -0.05178,0.353896 -0.06466,0.675217 -0.02681,0.714098 0.08332,0.08821 1.250073,-0.08705 1.652405,-0.248381 0.164666,-0.06586 0.33678,-0.197587 0.383083,-0.292687 0.04634,-0.09501 0.06773,-1.205641 0.04827,-2.467879 l -0.03496,-2.294978 -0.467383,-0.975869 c -0.06185,-0.12977 -1.544371,-3.230586 -1.420216,-3.554033 0.09034,-0.235667 0.304443,-0.192256 1.004917,0.203679 0.350414,0.198149 1.066825,0.564113 1.592102,0.813432 1.159176,0.550244 1.987381,0.972421 2.143339,1.092641 0.06386,0.04923 0.244446,0.325502 0.401587,0.614051 0.31146,0.57215 0.37921,1.180992 0.239075,2.148837 l -0.08367,0.578676 0.452708,-0.07235 c 0.248739,-0.03977 0.724989,-0.17007 1.057783,-0.289443 1.673125,-0.600188 3.18649,-0.603146 3.741984,-0.0067 0.711988,0.763772 0.579703,1.862812 -0.293947,2.440921 l -0.444683,0.294244 -2.174133,0.0076 c -1.575359,0.0047 -2.218133,-0.0288 -2.333956,-0.124605 -0.24838,-0.205567 -0.463108,0.04304 -0.607309,0.70342 -0.06851,0.31421 -0.124601,0.627832 -0.124601,0.697074 -7.9e-5,0.09381 0.870407,0.125864 3.404792,0.125864 2.396634,0 3.533608,0.03937 3.839541,0.132452 1.438544,0.438522 2.432019,2.610703 1.769043,3.867753 -0.115237,0.218116 -0.236334,0.486425 -0.268977,0.596245 -0.04556,0.151692 -0.130797,0.186196 -0.353891,0.143711 -0.565693,-0.107817 -1.799996,-0.470976 -2.171139,-0.638772 -0.206001,-0.09312 -0.543465,-0.219475 -0.749922,-0.280701 -0.206327,-0.06136 -0.640742,-0.192785 -0.965169,-0.29239 -0.57448,-0.176361 -1.921969,-0.495807 -2.895434,-0.686426 -0.26514,-0.05205 -0.856582,-0.09732 -1.313689,-0.100962 -0.731191,-0.0047 -0.831087,0.01656 -0.831087,0.186626 0,0.10616 0.04433,0.238912 0.09887,0.294906 0.05415,0.0561 0.141729,0.270799 0.194279,0.47721 0.09069,0.35698 0.119967,0.37648 0.598276,0.398806 0.27646,0.01291 0.780281,0.101656 1.119418,0.197156 0.72052,0.202983 1.409974,0.321462 2.812474,0.483478 1.407363,0.162586 2.07112,0.49329 2.436383,1.213976 0.219976,0.4346 0.261232,0.642865 0.221465,1.121711 -0.04205,0.506698 -0.101988,0.636412 -0.430524,0.937869 -0.377634,0.346241 -0.964468,0.578221 -1.465293,0.579384 -0.182583,4.08e-4 -0.492449,0.244872 -1.053121,0.831687 -1.047629,1.09655 -1.163872,1.269254 -0.993038,1.475076 0.07281,0.08817 0.191195,0.160334 0.262818,0.160334 0.384258,0 1.668596,0.771951 2.080662,1.250738 0.56288,0.653985 0.696655,1.138522 0.632215,2.290053 -0.138207,2.469707 -1.750976,3.038793 -2.860818,1.404357 -0.489032,-0.874827 -0.99543,-1.656768 -1.503649,-2.534055 -0.253811,-0.443343 -0.501254,-0.830829 -0.550229,-0.861099 -0.103242,-0.06381 -0.66041,0.349196 -1.974449,1.463338 -0.514887,0.436514 -1.07753,0.896174 -1.250398,1.021487 -0.173217,0.125269 -0.473367,0.372596 -0.667839,0.549548 -0.194271,0.176956 -0.544272,0.460481 -0.777363,0.630083 -0.233215,0.169573 -0.494368,0.368726 -0.580631,0.442545 -0.509744,0.436193 -2.948387,2.10245 -3.876495,2.648742 -1.069242,0.629347 -2.05995,0.759762 -2.839722,0.373785 z M 32.778259,38.409229 c 0.344569,-0.363731 0.706038,-0.745034 0.803419,-0.847313 0.416455,-0.437348 0.363616,-0.591281 -0.480674,-1.397383 -0.439803,-0.420093 -0.841048,-0.759334 -0.891504,-0.753904 -0.09619,0.0099 -0.351149,3.292566 -0.274077,3.525918 0.07587,0.230005 0.19739,0.154076 0.842652,-0.527318 z m -3.517295,-2.476756 c 0.01953,-0.482094 -0.02348,-1.376793 -0.101656,-1.988234 l -0.141362,-1.111679 -0.309542,0.06195 c -0.170536,0.03371 -0.666245,0.219143 -1.102377,0.411229 -0.852097,0.375431 -0.93538,0.510565 -0.65086,1.055877 0.08411,0.160334 0.137814,0.55986 0.127711,0.94606 -0.01559,0.612954 0.0079,0.685608 0.271764,0.87437 0.563073,0.400924 1.639903,0.853054 1.75577,0.737191 0.06072,-0.06054 0.12772,-0.504617 0.149868,-0.986697 z"
     style="fill:#000000;stroke-width:0.405319"
     id="path1-10"
     sodipodi:nodetypes="cssssssssssscsssssssssssssssssssssscssssssscccsscccssscssssssssssssssssssssssssssssssssccsssssssscsssssss" />
  <path
     d="m 29.931,13.187961 -2.500354,0.718622 2.500354,4.147722 2.217646,-4.187 z"
     opacity="0.944"
     fill="#d38d5f"
     id="path3"
     sodipodi:nodetypes="ccccc"
     style="fill:#d59263;fill-opacity:1" />
</svg>
