<?xml version="1.0" encoding="UTF-8" standalone="no"?>
<svg
   viewBox="0 0 60 60"
   version="1.1"
   id="svg12"
   sodipodi:docname="0KI.svg"
   inkscape:version="1.3 (0e150ed6c4, 2023-07-21)"
   xmlns:inkscape="http://www.inkscape.org/namespaces/inkscape"
   xmlns:sodipodi="http://sodipodi.sourceforge.net/DTD/sodipodi-0.dtd"
   xmlns="http://www.w3.org/2000/svg"
   xmlns:svg="http://www.w3.org/2000/svg">
  <sodipodi:namedview
     id="namedview12"
     pagecolor="#ffffff"
     bordercolor="#666666"
     borderopacity="1.0"
     inkscape:showpageshadow="2"
     inkscape:pageopacity="0.0"
     inkscape:pagecheckerboard="0"
     inkscape:deskcolor="#d1d1d1"
     inkscape:zoom="3.8041666"
     inkscape:cx="-132.48631"
     inkscape:cy="-18.663746"
     inkscape:window-width="3840"
     inkscape:window-height="2054"
     inkscape:window-x="-11"
     inkscape:window-y="-11"
     inkscape:window-maximized="1"
     inkscape:current-layer="svg12" />
  <defs
     id="defs1">
    <filter
       id="0KI_svg__a"
       x="-0.13506518"
       y="-0.11085473"
       width="1.3201415"
       height="1.2628989">
      <feGaussianBlur
         in="SourceAlpha"
         result="blur"
         stdDeviation="2"
         id="feGaussianBlur1" />
      <feOffset
         dx="2"
         dy="2"
         result="offsetBlur"
         id="feOffset1" />
      <feBlend
         in="SourceGraphic"
         in2="offsetBlur"
         id="feBlend1" />
    </filter>
    <filter
       id="a"
       x="-0.11911852"
       y="-0.098173563"
       width="1.2878698"
       height="1.2372528">
      <feGaussianBlur
         in="SourceAlpha"
         result="blur"
         stdDeviation="2"
         id="feGaussianBlur1048" />
      <feOffset
         result="offsetBlur"
         dx="2"
         dy="2"
         id="feOffset1050" />
      <feBlend
         in="SourceGraphic"
         in2="offsetBlur"
         id="feBlend1052"
         mode="normal" />
    </filter>
    <filter
       id="a-5"
       x="-0.11911852"
       y="-0.098173563"
       width="1.2878698"
       height="1.2372528">
      <feGaussianBlur
         in="SourceAlpha"
         result="blur"
         stdDeviation="2"
         id="feGaussianBlur1048-2" />
      <feOffset
         result="offsetBlur"
         dx="2"
         dy="2"
         id="feOffset1050-9" />
      <feBlend
         in="SourceGraphic"
         in2="offsetBlur"
         id="feBlend1052-2"
         mode="normal" />
    </filter>
  </defs>
  <g
     fill="#f0c000"
     filter="url(#0KI_svg__a)"
     transform="translate(40.733 .148)scale(.98631)"
     id="g1"
     style="fill:#e9dbc9;fill-opacity:1">
    <path
       fill="#cdbc68"
       d="m -10.96,7.7885391 -12.838,3.6079999 -7.051,44.45 H 9.085 l -6.79,-44.163 z"
       id="path1"
       style="fill:#fed700;fill-opacity:1;stroke:#333333;stroke-width:1.01388;stroke-dasharray:none" />
  </g>
  <g
     id="g5"
     style="fill:#8f6224;fill-opacity:1;stroke:#313131;paint-order:stroke fill markers;stroke-opacity:1">
    <path
       d="m 45.127786,28.876369 0.799005,5.123859 -5.65,-2.122 z"
       fill="#d38d5f"
       id="path1059"
       sodipodi:nodetypes="cccc"
       style="fill:#8f6224;fill-opacity:1;stroke:none;paint-order:stroke fill markers;stroke-opacity:1" />
    <path
       d="m 27.750688,54.746688 5.137,0.0071 -2.81,-5.341 z"
       id="path5"
       sodipodi:nodetypes="cccc"
       style="fill:#8f6224;fill-opacity:1;stroke:none;paint-order:stroke fill markers;stroke-opacity:1" />
    <path
       d="m 15.03322,28.622799 -0.831864,5.109429 5.651,-2.122 z"
       id="path4"
       sodipodi:nodetypes="cccc"
       style="fill:#8f6224;fill-opacity:1;stroke:none;paint-order:stroke fill markers;stroke-opacity:1" />
    <path
       d="m 42.557773,11.95182 0.448,2.92 -4.566,1.536 1.642,-5.156 z"
       id="path3"
       style="fill:#8f6224;fill-opacity:1;stroke:none;paint-order:stroke fill markers;stroke-opacity:1" />
    <path
       d="m 17.681826,11.743351 -0.449,2.92 4.567,1.536 -1.618,-5.08 z"
       id="path2"
       style="fill:#8f6224;fill-opacity:1;stroke:none;paint-order:stroke fill markers;stroke-opacity:1" />
    <path
       d="m 29.894688,8.367228 -2.698,0.699 2.726,4.74 2.534,-4.747 z"
       id="path1065"
       style="fill:#8f6224;fill-opacity:1;stroke:none;paint-order:stroke fill markers;stroke-opacity:1" />
  </g>
  <path
     d="m 36.529639,43.938709 c -0.689337,-0.205992 -1.45264,-0.395614 -2.759531,-0.685592 -0.700621,-0.155503 -5.707778,-0.155217 -6.645361,3.96e-4 -3.961914,0.657315 -4.828055,0.70464 -5.407467,0.295443 -0.170521,-0.120434 -0.392143,-0.271546 -0.492407,-0.33572 -0.316103,-0.202303 -0.972829,-0.873274 -1.516296,-1.549076 -0.500504,-0.622266 -0.660185,-1.10919 -0.413646,-1.261554 0.06132,-0.03764 0.840822,0.01978 1.733258,0.126902 1.534864,0.184783 1.700876,0.184957 3.071122,0.0037 2.464217,-0.327955 3.205277,-0.472865 3.313553,-0.648086 0.177058,-0.286261 0.329565,-5.46366 0.168467,-5.723918 -0.03303,-0.05227 -0.835877,-0.06885 -1.78585,-0.03662 -1.941351,0.06528 -2.335213,-0.0104 -2.977191,-0.574432 -0.449792,-0.394918 -0.705648,-0.911375 -0.705648,-1.424425 0,-0.296487 0.03663,-0.336622 0.253502,-0.292278 0.910184,0.184464 1.443233,0.17038 3.745037,-0.09925 0.463163,-0.05429 1.208027,-0.333493 1.261507,-0.472857 0.03304,-0.07948 -0.01182,-0.297985 -0.09527,-0.485509 -0.1476,-0.333249 -0.169303,-0.341075 -0.946364,-0.341075 -0.667702,0 -0.855558,-0.04441 -1.170204,-0.276526 -0.206098,-0.152085 -0.468696,-0.430888 -0.583387,-0.619458 -0.114491,-0.188605 -0.242094,-0.342919 -0.282508,-0.342919 -0.04086,0 -0.510275,0.444094 -1.043487,0.986905 -1.545942,1.573714 -3.422034,2.779678 -4.519368,2.905054 -0.617814,0.0706 -1.236978,-0.06872 -1.236978,-0.278298 0,-0.0598 0.287445,-0.327198 0.63801,-0.59412 0.350889,-0.266926 1.098567,-0.941558 1.66134,-1.499139 0.894155,-0.885832 1.282612,-1.307438 2.438298,-2.646741 0.386415,-0.447789 1.262493,-1.589467 1.569783,-2.045722 0.154973,-0.229887 0.528875,-0.788691 0.831179,-1.241721 1.733098,-2.597279 1.432558,-2.25722 2.163146,-3.245274 0.56494,-0.763993 1.173276,-2.035033 1.172568,-2.450058 -2.86e-4,-0.170136 -0.125476,-0.613511 -0.278853,-0.98518 -0.364739,-0.885552 -0.373712,-1.229558 -0.03303,-1.150884 0.440797,0.1009 1.013133,0.333456 1.983099,0.80541 0.712058,0.346569 1.006839,0.560353 1.210807,0.878219 0.358605,0.558729 0.365147,1.39143 0.01638,2.089581 -0.24452,0.489004 -0.245706,0.511478 -0.04417,0.631833 0.302612,0.180849 1.345585,1.025448 3.612267,2.926153 2.852111,2.391561 3.553871,2.921039 3.875062,3.114412 1.800447,1.443286 1.252874,1.107935 4.271009,2.853036 0.577178,0.315409 0.951029,0.690851 1.057504,1.061937 0.09408,0.327373 0.07112,0.3816 -0.254752,0.614195 -0.382338,0.272769 -0.48169,0.256773 -2.351974,0.209437 -2.574343,-0.06515 -3.692406,-0.593205 -5.41087,-2.556012 -0.564865,-0.645245 -1.124447,-1.225241 -1.243398,-1.288943 -0.198347,-0.106178 -0.216363,-0.074 -0.216363,0.389267 0,0.446353 -0.04665,0.54061 -0.400309,0.810464 -0.34633,0.26404 -0.578575,0.324172 -1.717653,0.444669 -1.776077,0.187805 -2.086234,0.340935 -1.593705,0.786655 0.199138,0.180223 0.315301,0.188257 1.150047,0.08035 0.510639,-0.06618 1.232559,-0.200151 1.604296,-0.297949 0.969102,-0.254893 1.600734,-0.230096 2.198026,0.08632 0.761582,0.403551 1.116304,0.981544 1.120886,1.826766 0.0083,0.799456 -0.143153,0.996164 -0.840992,1.120526 -0.745599,0.132855 -0.792252,0.204079 -0.353306,0.538925 0.217089,0.165408 0.439084,0.300871 0.49355,0.300871 0.194619,0 0.710796,0.643411 0.819241,1.021477 0.242863,0.847381 0.0961,1.717984 -0.375803,2.230055 -0.390914,0.423963 -1.810952,1.368941 -3.018371,1.699418 -0.686431,0.187949 -0.982639,0.399711 -0.579709,0.414414 0.109172,0.0037 1.083444,0.107569 2.169529,0.142841 2.303977,0.07473 3.272296,0.111848 4.160928,1.687628 0.437575,0.857751 0.437696,1.946779 1.65e-4,2.384254 -0.292001,0.291927 -1.464612,0.283896 -2.471624,-0.01702 z m -4.912423,-5.761736 c 0.720246,-0.696065 1.636806,-2.078645 1.71953,-2.593923 0.04289,-0.267446 -0.03663,-0.53939 -0.296833,-1.035876 -0.532768,-1.010651 -0.505006,-0.991931 -1.348199,-0.907476 -1.27464,0.12781 -1.171184,-0.05832 -1.088137,1.958903 0.09365,2.274881 0.191418,3.169707 0.344305,3.169707 0.03303,0 0.332869,-0.266161 0.669058,-0.591335 z m -5.17623,-9.990588 c 0.1901,-0.05892 0.925059,-0.19257 1.63295,-0.29708 0.707896,-0.104472 1.558662,-0.285531 1.890573,-0.402158 0.810573,-0.284907 2.021094,-0.530387 2.534997,-0.514077 0.230241,0.007 0.451269,-0.01948 0.490772,-0.05864 0.07444,-0.07467 -1.907128,-2.463352 -3.004587,-3.621363 -0.380266,-0.401339 -0.682785,-0.63336 -0.761875,-0.584492 -0.338565,0.587469 -0.762152,1.109803 -1.170935,1.651107 -1.262495,1.739823 -1.679414,2.29081 -2.18944,2.893349 -0.597901,0.706393 -0.662098,0.825173 -0.522044,0.96526 0.109205,0.109137 0.699224,0.09202 1.099589,-0.03165 z m -2.188337,11.346086 c -1.489402,-0.756143 -2.427343,-4.413586 -2.283204,-4.789181 0.101836,-0.265744 0.504351,-0.14388 1.059426,0.320834 0.304627,0.254787 0.894236,0.682014 1.310911,0.94935 1.294632,0.830628 1.76111,1.389449 1.892775,2.26778 0.0564,0.376267 0.02052,0.559929 -0.168015,0.86541 -0.394181,0.637431 -1.04385,0.775818 -1.811938,0.385788 z"
     style="fill:#000000;stroke-width:0.425704"
     id="path1-0"
     sodipodi:nodetypes="cssssscccsscsssssssssssssssssssssssssssscssssssssssssssssssscsssccssssssssssscsscssssssssssscs" />
</svg>
