<?xml version="1.0" encoding="UTF-8" standalone="no"?>
<svg
   viewBox="0 0 60 60"
   version="1.1"
   id="svg8"
   sodipodi:docname="0KY.svg"
   inkscape:version="1.3 (0e150ed6c4, 2023-07-21)"
   xmlns:inkscape="http://www.inkscape.org/namespaces/inkscape"
   xmlns:sodipodi="http://sodipodi.sourceforge.net/DTD/sodipodi-0.dtd"
   xmlns="http://www.w3.org/2000/svg"
   xmlns:svg="http://www.w3.org/2000/svg">
  <sodipodi:namedview
     id="namedview8"
     pagecolor="#ffffff"
     bordercolor="#666666"
     borderopacity="1.0"
     inkscape:showpageshadow="2"
     inkscape:pageopacity="0.0"
     inkscape:pagecheckerboard="0"
     inkscape:deskcolor="#d1d1d1"
     inkscape:zoom="10.759808"
     inkscape:cx="57.157154"
     inkscape:cy="42.844631"
     inkscape:window-width="3840"
     inkscape:window-height="2054"
     inkscape:window-x="-11"
     inkscape:window-y="-11"
     inkscape:window-maximized="1"
     inkscape:current-layer="svg8"
     showgrid="false" />
  <defs
     id="defs1">
    <filter
       id="0KY_svg__a"
       x="-0.14731479"
       y="-0.1209949"
       width="1.3495476"
       height="1.287247">
      <feGaussianBlur
         in="SourceAlpha"
         result="blur"
         stdDeviation="2"
         id="feGaussianBlur1" />
      <feOffset
         dx="2"
         dy="2"
         result="offsetBlur"
         id="feOffset1" />
      <feBlend
         in="SourceGraphic"
         in2="offsetBlur"
         id="feBlend1" />
    </filter>
    <filter
       id="a"
       x="-0.11811024"
       y="-0.098714653"
       width="1.2854331"
       height="1.2385604">
      <feGaussianBlur
         in="SourceAlpha"
         result="blur"
         stdDeviation="2"
         id="feGaussianBlur1-2" />
      <feOffset
         result="offsetBlur"
         dx="2"
         dy="2"
         id="feOffset1-0" />
      <feBlend
         in="SourceGraphic"
         in2="offsetBlur"
         id="feBlend1-4"
         mode="normal" />
    </filter>
  </defs>
  <path
     fill="#cdbc68"
     d="M 26.007,8.117 14.316,11.403 7.894,51.883 H 44.263 L 38.079,11.664 Z"
     filter="url(#0KY_svg__a)"
     transform="matrix(1.05,0,0,1.05,2.618,0.83296814)"
     id="path1"
     style="fill:#feeca4;fill-opacity:1;stroke:#333333;stroke-width:0.952381;stroke-dasharray:none"
     sodipodi:nodetypes="cccccc" />
  <path
     d="m 29.936,9.8732697 -2.849647,0.8202833 -0.09,13.980479 5.843,-2.516 V 10.735987 Z"
     fill="#ffffff"
     id="path2"
     sodipodi:nodetypes="cccccc"
     style="stroke:#313131;stroke-opacity:0.778;stroke-width:1.0015748;stroke-dasharray:none;paint-order:stroke fill markers" />
  <path
     d="m 33.488719,48.961225 c -2.656768,-1.27651 -4.484317,-0.429679 -7.060353,-0.369982 -0.578534,0 -1.162009,-0.348679 -1.395502,-0.833943 -0.21571,-0.448241 -0.525717,-2.128044 -0.724305,-3.92364 -0.09074,-0.821522 -0.19962,-1.667925 -0.241368,-1.88092 -0.04219,-0.212978 -0.08674,-0.511724 -0.09921,-0.663852 -0.0646,-0.781007 -0.49885,-2.450398 -0.70201,-2.69867 -0.055,-0.06744 -0.159066,-0.3418 -0.230606,-0.609573 -0.225755,-0.843598 -0.339828,-0.881643 -1.255837,-0.418204 -1.096698,0.554853 -1.938937,0.727448 -2.956504,0.605917 -0.715068,-0.08547 -0.852919,-0.140994 -1.176516,-0.474167 -0.408299,-0.420421 -0.440594,-0.499048 -0.204881,-0.499048 0.08876,0 0.250695,-0.09334 0.359507,-0.207547 0.108846,-0.114243 0.322541,-0.244202 0.474584,-0.288889 1.25295,-0.278812 2.196088,-0.968317 3.277358,-1.566616 0.524914,-0.28947 2.339488,-2.072918 2.793543,-2.745656 0.181582,-0.268801 0.442689,-0.641406 0.580701,-0.828071 0.319364,-0.432153 0.186774,-0.601543 -0.349486,-0.445828 -1.02765,0.29849 -2.218866,0.108129 -3.220448,-0.514631 -0.739406,-0.459798 -1.975243,-2.111117 -1.975243,-2.639345 0,-0.143351 0.09279,-0.162346 0.525553,-0.10724 0.288787,0.0369 0.845854,0.164021 1.237409,0.282365 0.804996,0.243519 3.022772,0.300642 4.101036,0.105429 1.266127,-0.229069 2.383553,-0.450792 2.51068,-0.498308 0.07232,-0.02699 0.212533,-0.172117 0.310857,-0.322472 0.169077,-0.257904 0.163098,-0.3044 -0.104405,-0.832079 -0.407387,-0.803886 -0.218512,-0.858583 -0.448961,-1.163099 -0.144206,-0.1906 -0.215301,-0.198253 -0.783426,-0.08411 -0.851835,0.171059 -3.213698,-0.0671 -4.339678,-2.397597 -0.292442,-0.604933 -0.205632,-0.645329 0.988973,-0.459532 1.020862,0.158829 3.673848,0.07321 5.129728,-0.165524 1.28597,-0.210859 3.063107,-0.599398 3.319257,-0.725657 0.121692,-0.06006 0.669352,-0.210245 1.217041,-0.333953 0.547684,-0.123639 1.045558,-0.238839 1.106414,-0.256024 1.374778,-0.388381 2.607527,-0.370807 3.122921,0.04458 0.594438,0.478978 0.915455,1.079351 0.915455,1.711707 0,0.547104 -0.01605,0.570847 -0.414889,0.745859 -0.228147,0.09945 -1.151727,0.257015 -2.052331,0.350088 -0.900631,0.09303 -1.693022,0.203616 -1.760946,0.245569 -0.06748,0.04185 -0.749966,0.186604 -1.515767,0.321414 -0.765835,0.134982 -1.601001,0.302248 -1.856021,0.371922 l -0.463621,0.126748 0.649391,0.633706 c 0.389225,0.379964 0.678354,0.766634 0.721766,0.965646 0.146222,0.66915 0.102048,0.644737 1.015887,0.561889 1.290349,-0.265078 2.609294,-0.381467 3.906339,-0.628759 0.707678,-0.142531 1.981478,-0.133443 2.559293,0.01879 0.978562,0.256844 2.000185,1.951872 1.794932,2.978161 -0.116499,0.58176 -0.544678,0.697583 -1.824457,0.493446 -1.237685,-0.197399 -5.432273,-0.327085 -6.291628,-0.194563 -0.65031,0.100305 -0.858179,0.388659 -0.332244,0.460523 0.152235,0.02118 0.351075,0.09966 0.442607,0.175226 0.09118,0.07557 0.601555,0.353077 1.134054,0.616555 0.873929,0.517901 1.735245,1.007271 2.594551,1.574225 1.009328,0.671326 1.629362,1.050843 2.743934,1.679629 0.907547,0.511987 1.856749,1.294005 2.153511,1.774158 0.386813,0.625797 0.480088,1.457736 0.275155,2.450877 -0.287215,1.39145 -0.723744,2.036577 -1.377385,2.036577 -0.408391,0 -0.700202,-0.243622 -1.366271,-1.14076 -0.324558,-0.437509 -0.887786,-1.09419 -1.251062,-1.459313 -0.363103,-0.365127 -1.062353,-1.136841 -1.553562,-1.714955 -0.491215,-0.578095 -1.135337,-1.275684 -1.431411,-1.550162 -0.29603,-0.274507 -1.077864,-1.083577 -1.737251,-1.79794 -0.659442,-0.714367 -1.235202,-1.29884 -1.279509,-1.29884 -0.08716,0 -0.373541,2.689375 -0.352633,3.312746 0.0079,0.209391 -0.03598,0.533036 -0.08998,0.719171 -0.05658,0.186091 -0.133752,0.522082 -0.171128,0.746552 l -0.06829,0.408122 2.133594,-0.02118 2.133585,-0.02118 0.732381,0.354953 c 0.581501,0.281885 0.802469,0.464317 1.07316,0.886128 0.187594,0.292136 0.372742,0.730055 0.411514,0.973132 0.06949,0.432357 -0.20126,2.375138 -0.405293,2.911726 -0.08637,0.227292 -0.384005,1.830477 -0.496391,2.674274 -0.360681,2.707085 -0.962741,4.045287 -2.020398,4.490057 -0.478389,0.20119 -0.657979,0.196749 -1.065205,-0.02596 z m -4.959017,-3.167532 c 0.24902,-0.157837 2.640461,-0.422033 3.520574,-0.389024 l 0.885016,0.03348 0.132146,-0.387254 c 0.07232,-0.212977 0.134981,-0.62374 0.138602,-0.912801 l 0.0079,-0.525547 -0.52559,-0.02221 c -0.289232,-0.01127 -0.898955,-0.0013 -1.355381,0.0246 -1.151883,0.06372 -2.350646,0.06286 -3.259081,-0.0017 l -0.769654,-0.05538 0.03245,0.553212 c 0.04657,0.807532 0.219742,1.636966 0.359104,1.723308 0.152269,0.09426 0.662765,0.06996 0.836089,-0.03974 z m 1.141887,-4.573249 c 0.699799,-0.14752 1.645786,-0.296782 2.102212,-0.331663 0.771783,-0.059 0.856417,-0.04339 1.210898,0.223568 0.209288,0.157803 0.439556,0.287045 0.511085,0.287045 0.140551,0 0.266342,-0.581916 0.268323,-1.240825 0.0016,-0.703858 -0.122888,-0.717466 -4.203227,-0.457792 -0.578093,0.03693 -1.374703,0.07403 -1.770228,0.08281 -0.999974,0.02221 -1.038419,0.05975 -0.949244,0.930351 0.04062,0.397541 0.09398,0.755131 0.11848,0.794614 0.07912,0.127909 1.407477,-0.01332 2.711639,-0.288001 z m -1.991516,-3.948423 0.71916,-0.133922 0.01605,-2.034156 c 0.01605,-2.102332 -0.03245,-2.777113 -0.202454,-2.777113 -0.05508,0 -0.409428,0.335489 -0.787649,0.745613 -1.099752,1.192275 -2.413234,2.458556 -3.011328,2.903144 -0.722976,0.537347 -0.908561,0.755415 -0.703865,0.827053 1.88913,0.661112 2.531049,0.737066 3.967886,0.469429 z"
     style="fill:#000000;stroke-width:0.418179"
     id="path1-83"
     sodipodi:nodetypes="csssssssssssssssssssssssssssssssscssssssscsssscssscsssssssssssssssscccsssssscccscsscscccssccssssssssssccssssssc" />
</svg>
