<?xml version="1.0" encoding="UTF-8" standalone="no"?>
<svg
   viewBox="0 0 60 60"
   version="1.1"
   id="svg12"
   sodipodi:docname="0NG.svg"
   inkscape:version="1.3 (0e150ed6c4, 2023-07-21)"
   xmlns:inkscape="http://www.inkscape.org/namespaces/inkscape"
   xmlns:sodipodi="http://sodipodi.sourceforge.net/DTD/sodipodi-0.dtd"
   xmlns="http://www.w3.org/2000/svg"
   xmlns:svg="http://www.w3.org/2000/svg">
  <sodipodi:namedview
     id="namedview12"
     pagecolor="#ffffff"
     bordercolor="#666666"
     borderopacity="1.0"
     inkscape:showpageshadow="2"
     inkscape:pageopacity="0.0"
     inkscape:pagecheckerboard="0"
     inkscape:deskcolor="#d1d1d1"
     inkscape:zoom="3.8041666"
     inkscape:cx="-102.2563"
     inkscape:cy="4.2059146"
     inkscape:window-width="3840"
     inkscape:window-height="2054"
     inkscape:window-x="-11"
     inkscape:window-y="-11"
     inkscape:window-maximized="1"
     inkscape:current-layer="svg12" />
  <defs
     id="defs1">
    <filter
       id="0KI_svg__a"
       x="-0.13506518"
       y="-0.11085473"
       width="1.3201415"
       height="1.2628989">
      <feGaussianBlur
         in="SourceAlpha"
         result="blur"
         stdDeviation="2"
         id="feGaussianBlur1" />
      <feOffset
         dx="2"
         dy="2"
         result="offsetBlur"
         id="feOffset1" />
      <feBlend
         in="SourceGraphic"
         in2="offsetBlur"
         id="feBlend1" />
    </filter>
    <filter
       id="a"
       x="-0.11911852"
       y="-0.098173563"
       width="1.2878698"
       height="1.2372528">
      <feGaussianBlur
         in="SourceAlpha"
         result="blur"
         stdDeviation="2"
         id="feGaussianBlur1048" />
      <feOffset
         result="offsetBlur"
         dx="2"
         dy="2"
         id="feOffset1050" />
      <feBlend
         in="SourceGraphic"
         in2="offsetBlur"
         id="feBlend1052"
         mode="normal" />
    </filter>
    <filter
       id="a-5"
       x="-0.11911852"
       y="-0.098173563"
       width="1.2878698"
       height="1.2372528">
      <feGaussianBlur
         in="SourceAlpha"
         result="blur"
         stdDeviation="2"
         id="feGaussianBlur1048-2" />
      <feOffset
         result="offsetBlur"
         dx="2"
         dy="2"
         id="feOffset1050-9" />
      <feBlend
         in="SourceGraphic"
         in2="offsetBlur"
         id="feBlend1052-2"
         mode="normal" />
    </filter>
    <filter
       id="0KI_svg__a-4"
       x="-0.13506518"
       y="-0.11085473"
       width="1.3201415"
       height="1.2628989">
      <feGaussianBlur
         in="SourceAlpha"
         result="blur"
         stdDeviation="2"
         id="feGaussianBlur1-0" />
      <feOffset
         dx="2"
         dy="2"
         result="offsetBlur"
         id="feOffset1-7" />
      <feBlend
         in="SourceGraphic"
         in2="offsetBlur"
         id="feBlend1-9"
         mode="normal" />
    </filter>
  </defs>
  <g
     fill="#f0c000"
     filter="url(#0KI_svg__a)"
     transform="translate(40.733 .148)scale(.98631)"
     id="g1"
     style="fill:#e9dbc9;fill-opacity:1">
    <path
       fill="#cdbc68"
       d="m -10.96,7.7885391 -12.838,3.6079999 -7.051,44.45 H 9.085 l -6.79,-44.163 z"
       id="path1"
       style="fill:#f7f6f5;fill-opacity:1;stroke:#333333;stroke-width:1.01388;stroke-dasharray:none" />
  </g>
  <g
     id="g5"
     style="fill:#8f6224;fill-opacity:1;stroke:#313131;paint-order:stroke fill markers;stroke-opacity:1">
    <path
       d="m 45.127786,28.876369 0.799005,5.123859 -5.65,-2.122 z"
       fill="#d38d5f"
       id="path1059"
       sodipodi:nodetypes="cccc"
       style="fill:#909090;fill-opacity:1;stroke:none;paint-order:stroke fill markers;stroke-opacity:1" />
    <path
       d="m 27.750688,54.746688 5.137,0.0071 -2.81,-5.341 z"
       id="path5"
       sodipodi:nodetypes="cccc"
       style="fill:#909090;fill-opacity:1;stroke:none;paint-order:stroke fill markers;stroke-opacity:1" />
    <path
       d="m 15.03322,28.622799 -0.831864,5.109429 5.651,-2.122 z"
       id="path4"
       sodipodi:nodetypes="cccc"
       style="fill:#909090;fill-opacity:1;stroke:none;paint-order:stroke fill markers;stroke-opacity:1" />
    <path
       d="m 42.557773,11.95182 0.448,2.92 -4.566,1.536 1.642,-5.156 z"
       id="path3"
       style="fill:#909090;fill-opacity:1;stroke:none;paint-order:stroke fill markers;stroke-opacity:1" />
    <path
       d="m 17.681826,11.743351 -0.449,2.92 4.567,1.536 -1.618,-5.08 z"
       id="path2"
       style="fill:#909090;fill-opacity:1;stroke:none;paint-order:stroke fill markers;stroke-opacity:1" />
    <path
       d="m 29.894688,8.367228 -2.698,0.699 2.726,4.74 2.534,-4.747 z"
       id="path1065"
       style="fill:#909090;fill-opacity:1;stroke:none;paint-order:stroke fill markers;stroke-opacity:1" />
  </g>
  <path
     d="m 37.646611,42.889293 c -1.128467,-0.363431 -2.157558,-0.826932 -3.295573,-1.168535 -0.553229,-0.167622 -1.051782,-0.223507 -2.087076,-0.234082 -1.392452,-0.01487 -3.183488,0.07278 -3.661346,0.177767 -0.147165,0.03272 -0.964903,0.137713 -1.817188,0.234082 -0.852281,0.09634 -1.580884,0.194624 -1.619117,0.218187 -0.116199,0.07174 -1.719672,0.204306 -2.289765,0.189235 -0.88986,-0.02379 -1.827059,-0.473723 -2.642448,-1.269323 -0.637131,-0.621671 -1.074142,-1.346722 -0.910387,-1.510474 0.112663,-0.112662 1.241011,-0.04749 1.848918,0.106779 0.476615,0.120892 1.018167,0.148124 2.185552,0.109722 2.217841,-0.07291 2.392287,-0.102648 3.237638,-0.553348 0.549126,-0.29271 0.593462,-0.404159 0.348799,-0.877255 -0.141281,-0.273245 -0.194986,-0.298395 -0.469499,-0.21974 -0.466949,0.134012 -2.885275,-0.04851 -3.357765,-0.25325 -0.04296,-0.01884 -1.066171,-0.471572 -1.314878,-1.480589 -0.112927,-0.458035 0.240625,-0.535124 1.782645,-0.388717 0.995587,0.09459 1.501804,0.09168 2.26506,-0.01289 1.094614,-0.149544 1.463001,-0.371505 1.46622,-0.883274 l 0.0017,-0.293008 -0.803752,0.06788 c -0.607137,0.05126 -0.901662,0.02676 -1.204068,-0.09829 -0.220137,-0.09145 -0.568908,-0.229555 -0.774942,-0.307021 -0.370499,-0.139332 -1.233941,-0.921325 -1.449152,-1.312583 -0.100765,-0.183221 -0.243601,-0.09177 -1.511705,0.966962 -1.356964,1.133008 -2.210695,1.651 -3.929392,2.384102 -0.520185,0.221889 -1.136989,0.29757 -1.136989,0.139466 0,-0.146339 0.57043,-0.713421 1.177329,-1.170514 1.014271,-0.763922 4.55078,-4.328037 5.003322,-5.042386 0.190823,-0.301237 0.788022,-1.104706 0.888932,-1.195985 0.08999,-0.08136 0.828298,-1.178794 1.872151,-2.782772 0.517196,-0.794678 1.025762,-1.541226 1.130193,-1.658942 0.308805,-0.348123 1.35859,-2.451616 1.439922,-2.885096 0.07975,-0.425192 -0.178693,-1.501215 -0.471817,-1.964865 -0.08983,-0.141944 -0.160781,-0.528902 -0.166565,-0.906579 -0.0076,-0.556196 0.02082,-0.665036 0.18494,-0.69814 0.226746,-0.04554 0.901176,0.385379 1.528951,0.977075 0.241717,0.227803 0.627026,0.501035 0.856235,0.607154 0.535507,0.247864 0.989732,0.68614 1.177841,1.136309 0.191285,0.457708 0.184774,1.410043 -0.0109,1.754078 -0.212568,0.371729 -0.196969,0.715599 0.04234,0.936518 0.993642,1.107858 2.128854,2.038025 3.168508,3.057613 0.353208,0.351534 0.979319,0.938171 1.391393,1.303641 1.391576,1.234261 1.790176,1.602422 2.983811,2.755943 0.792704,0.766054 1.386961,1.244024 1.778976,1.43087 0.323749,0.154337 0.853578,0.413767 1.177336,0.576578 0.323776,0.162796 1.009269,0.45401 1.523341,0.647139 0.790369,0.296973 1.001058,0.429861 1.364627,0.861048 0.236493,0.280483 0.429947,0.557948 0.429947,0.616682 0,0.05876 -0.132358,0.210916 -0.294002,0.338112 -0.223114,0.175421 -0.384478,0.216798 -0.669019,0.171291 -0.206185,-0.03305 -1.284435,-0.06494 -2.395965,-0.07083 -2.573295,-0.01487 -3.084272,-0.14505 -4.032139,-1.034933 -4.348256,-4.914713 -2.71961,-3.170325 -2.811169,-3.27102 -0.128258,-0.130873 -0.410535,-0.453951 -0.627458,-0.717979 l -0.394419,-0.480052 -0.247763,0.2321 c -0.345103,0.323313 -0.75942,0.460428 -1.390937,0.460428 -0.297304,0 -0.763757,0.06907 -1.036556,0.153312 -0.272782,0.08431 -0.64002,0.193697 -0.816059,0.243005 -0.380246,0.106581 -0.45873,0.370692 -0.218914,0.736664 0.150569,0.229687 0.228729,0.257217 0.570764,0.200439 0.217988,-0.03609 0.468578,-0.09227 0.556871,-0.124625 0.262735,-0.09653 0.549609,-0.141448 1.297823,-0.203612 0.615344,-0.05109 0.779486,-0.02347 1.240937,0.210552 0.62473,0.316571 0.869503,0.646025 0.945078,1.271976 0.04494,0.372281 0.0099,0.504634 -0.189467,0.72325 -0.388377,0.425013 -0.759782,0.532041 -2.260479,0.651346 -0.774667,0.06151 -1.513601,0.154468 -1.6421,0.206355 -0.21075,0.0851 -0.22159,0.126278 -0.110382,0.421044 0.140456,0.372212 0.327907,0.402408 0.986124,0.158864 0.235437,-0.08715 0.837504,-0.247137 1.337872,-0.355635 0.500356,-0.108398 0.957916,-0.21498 1.016781,-0.236594 0.05893,-0.02182 0.384408,0.0281 0.723398,0.109953 0.432334,0.104862 0.74392,0.267229 1.043536,0.543796 0.406005,0.37481 0.427087,0.425661 0.425522,1.026212 -8.13e-4,0.347554 -0.04407,0.698992 -0.096,0.781045 -0.201594,0.318388 -0.886308,0.423555 -2.9723,0.456541 -2.412229,0.03804 -2.465695,0.05826 -2.34283,0.877537 0.09445,0.629206 0.407224,0.77647 1.299256,0.611585 0.341513,-0.06316 1.565173,-0.114811 2.719242,-0.114811 1.779079,0 2.185128,0.0304 2.669183,0.201035 0.793515,0.279391 1.308139,0.762954 1.72149,1.617389 0.301505,0.623215 0.343433,0.806224 0.296643,1.293683 -0.09396,0.977819 -0.73661,1.302216 -1.633962,0.824762 z M 27.024558,32.367094 c 0.416986,-0.283325 0.57535,-0.632217 0.456693,-1.006062 -0.05902,-0.18636 -0.15893,-0.222185 -0.625073,-0.224101 -0.392797,-0.0017 -0.721603,-0.0885 -1.126593,-0.297801 l -0.5719,-0.295453 -0.866429,0.887649 c -0.536011,0.54915 -0.828099,0.925431 -0.765961,0.986713 0.120494,0.118577 0.711827,0.175785 2.082418,0.200868 0.929739,0.01718 1.05345,-0.0046 1.416845,-0.251895 z m 1.251073,-3.370383 c 0.438266,-0.06249 0.847651,-0.152817 0.909756,-0.200869 0.06213,-0.04795 0.34212,-0.143266 0.622319,-0.211609 0.280185,-0.06834 0.779829,-0.243833 1.110373,-0.390052 0.330541,-0.146141 0.691298,-0.265809 0.80172,-0.265809 0.397256,0 0.19373,-0.447619 -0.768499,-1.690024 -0.533069,-0.688304 -1.033847,-1.287628 -1.112832,-1.331821 -0.13507,-0.07551 -1.070431,0.994247 -2.038563,2.331534 -0.176611,0.243898 -0.525792,0.713729 -0.775969,1.043986 -0.504045,0.665349 -0.542263,0.787096 -0.267561,0.852641 0.19773,0.04723 0.257944,0.04167 1.519272,-0.138044 z"
     style="fill:#f30d16;fill-opacity:0.984314;stroke-width:0.404526"
     id="path1-4"
     sodipodi:nodetypes="ssssssssssssssssssccsssssssssssssssssssssssssssssssscsscssssssssssssssssssscsssssssssssssscsssssssssssssss" />
</svg>
