<?xml version="1.0" encoding="UTF-8" standalone="no"?>
<svg
   viewBox="0 0 60 60"
   version="1.1"
   id="svg3"
   sodipodi:docname="1FU.svg"
   inkscape:version="1.3 (0e150ed6c4, 2023-07-21)"
   xmlns:inkscape="http://www.inkscape.org/namespaces/inkscape"
   xmlns:sodipodi="http://sodipodi.sourceforge.net/DTD/sodipodi-0.dtd"
   xmlns="http://www.w3.org/2000/svg"
   xmlns:svg="http://www.w3.org/2000/svg">
  <sodipodi:namedview
     id="namedview3"
     pagecolor="#ffffff"
     bordercolor="#666666"
     borderopacity="1.0"
     inkscape:showpageshadow="2"
     inkscape:pageopacity="0.0"
     inkscape:pagecheckerboard="0"
     inkscape:deskcolor="#d1d1d1"
     inkscape:zoom="10.759808"
     inkscape:cx="72.956692"
     inkscape:cy="29.647369"
     inkscape:window-width="3840"
     inkscape:window-height="2054"
     inkscape:window-x="-11"
     inkscape:window-y="-11"
     inkscape:window-maximized="1"
     inkscape:current-layer="svg3"
     showgrid="false" />
  <defs
     id="defs1">
    <filter
       id="1FU_svg__a"
       x="-0.13599486"
       y="-0.11066395"
       width="1.3218818"
       height="1.2630402">
      <feGaussianBlur
         in="SourceAlpha"
         result="blur"
         stdDeviation="2"
         id="feGaussianBlur1" />
      <feOffset
         dx="2"
         dy="2"
         result="offsetBlur"
         id="feOffset1" />
      <feBlend
         in="SourceGraphic"
         in2="offsetBlur"
         id="feBlend1" />
    </filter>
    <filter
       id="1OU_svg__a"
       x="-0.13338546"
       y="-0.10825364"
       width="1.3166422"
       height="1.2574737">
      <feGaussianBlur
         in="SourceAlpha"
         result="blur"
         stdDeviation="2"
         id="feGaussianBlur1-5" />
      <feOffset
         dx="2"
         dy="2"
         result="offsetBlur"
         id="feOffset1-2" />
      <feBlend
         in="SourceGraphic"
         in2="offsetBlur"
         id="feBlend1-1"
         mode="normal" />
    </filter>
    <filter
       id="0UM_svg__a-01-9-7"
       x="-0.13416397"
       y="-0.10998295"
       width="1.318338"
       height="1.2611304">
      <feGaussianBlur
         in="SourceAlpha"
         result="blur"
         stdDeviation="2"
         id="feGaussianBlur1-8-9-9" />
      <feOffset
         dx="2"
         dy="2"
         result="offsetBlur"
         id="feOffset1-5-8-7" />
      <feBlend
         in="SourceGraphic"
         in2="offsetBlur"
         id="feBlend1-6-2-0"
         mode="normal" />
    </filter>
    <filter
       id="0UM_svg__a-01-9-9"
       x="-0.13416397"
       y="-0.10998295"
       width="1.318338"
       height="1.2611304">
      <feGaussianBlur
         in="SourceAlpha"
         result="blur"
         stdDeviation="2"
         id="feGaussianBlur1-8-9-1" />
      <feOffset
         dx="2"
         dy="2"
         result="offsetBlur"
         id="feOffset1-5-8-73" />
      <feBlend
         in="SourceGraphic"
         in2="offsetBlur"
         id="feBlend1-6-2-4"
         mode="normal" />
    </filter>
    <filter
       id="0FU_svg__a"
       x="-0.13676314"
       y="-0.11210537"
       width="1.3235293"
       height="1.2653512">
      <feGaussianBlur
         in="SourceAlpha"
         result="blur"
         stdDeviation="2"
         id="feGaussianBlur1-3" />
      <feOffset
         dx="2"
         dy="2"
         result="offsetBlur"
         id="feOffset1-0" />
      <feBlend
         in="SourceGraphic"
         in2="offsetBlur"
         id="feBlend1-6"
         mode="normal" />
    </filter>
    <filter
       id="a"
       x="-0.11811024"
       y="-0.098714653"
       width="1.2854331"
       height="1.2385604">
      <feGaussianBlur
         in="SourceAlpha"
         result="blur"
         stdDeviation="2"
         id="feGaussianBlur7154" />
      <feOffset
         result="offsetBlur"
         dx="2"
         dy="2"
         id="feOffset7156" />
      <feBlend
         in="SourceGraphic"
         in2="offsetBlur"
         id="feBlend7158"
         mode="normal" />
    </filter>
  </defs>
  <g
     filter="url(#1FU_svg__a)"
     transform="matrix(0.86914,0,0,0.86914,-81.778,-21.260823)"
     id="g1"
     style="stroke:#333333;stroke-width:1.15056;stroke-dasharray:none">
    <path
       fill="#feec99"
       d="m 141.865,74.375 6.837,-44.334 h -40.19 l 6.535,44.638 13.56059,3.935 z"
       id="path1"
       style="stroke:#333333;stroke-width:1.15056;stroke-dasharray:none;fill:#fde470;fill-opacity:1"
       sodipodi:nodetypes="cccccc" />
  </g>
  <path
     d="m 38.995681,10.482974 c 0.44596,0.220733 0.69268,0.579099 0.90265,1.310999 0.10086,0.351335 -0.181,1.485553 -0.55451,2.232007 -0.30799,0.61622 -0.40097,2.349354 -0.42348,3.65583 -0.0156,0.917795 -0.1448,1.641938 -0.31103,1.744591 -0.26318,0.162719 -0.76245,-0.454197 -0.96213,-1.188994 -0.0618,-0.228449 -0.20478,-0.586226 -0.31732,-0.795011 -0.11249,-0.208779 -0.29004,-0.691357 -0.3942,-1.07238 -0.2102,-0.767964 -0.43822,-1.282606 -0.56853,-1.282606 -1.7159,0.831519 -3.2153,2.080007 -4.79598,3.148778 -1.1466,0.764944 -1.63539,1.355272 -1.12227,1.355272 0.1164,0 0.37803,0.14689 0.58259,0.32643 0.80075,0.703072 1.60203,2.190285 2.51646,3.258916 l 0.23166,-0.209673 c 0.12732,-0.115299 0.31887,-0.389625 0.42487,-0.609646 0.26163,-0.541431 1.16478,-1.620758 1.5384,-1.838516 0.39572,-0.230634 0.76993,-0.220368 1.33586,0.03653 0.33092,0.150169 0.47224,0.32941 0.6166,0.584011 0.44815,0.790342 0.30057,1.170368 -1.13667,2.955949 -0.39656,0.492625 -0.63659,1.034042 -0.63704,1.43692 -2e-4,0.215799 0.0436,0.223845 1.03929,0.190633 1.41099,-0.04695 2.40726,0.205069 2.89143,0.731583 1.53993,1.674817 2.13201,2.514776 2.00533,2.845007 -0.0588,0.153447 -0.17133,0.168911 -0.77709,0.106824 -0.38956,-0.04 -0.96133,-0.144639 -1.27056,-0.232654 -0.72076,-0.205202 -3.90651,-0.170466 -4.12142,0.04486 -0.18295,0.183347 -0.15844,1.630658 0.0349,1.982313 1.19017,2.179002 1.59362,2.990967 1.59362,3.207266 0,0.190268 -0.0529,0.21315 -0.40217,0.172288 -0.61498,-0.07189 -2.04243,-0.504532 -2.77042,-0.839687 -1.65728,-0.816289 -1.57629,-1.776519 -1.34636,-3.371789 0.0518,-0.353896 0.0647,-0.675217 0.0268,-0.714098 -0.0833,-0.08821 -1.25008,0.08705 -1.65241,0.248381 -0.16466,0.06586 -0.33678,0.197587 -0.38308,0.292687 -0.0463,0.09501 -0.0677,1.205641 -0.0483,2.467879 l 0.035,2.294978 0.46738,0.975869 c 0.0618,0.12977 1.54437,3.230586 1.42022,3.554033 -0.0903,0.235667 -0.30445,0.192256 -1.00492,-0.203679 -0.35041,-0.198149 -1.06682,-0.564113 -1.5921,-0.813432 -1.15918,-0.550244 -1.98738,-0.972421 -2.14334,-1.092641 -0.0639,-0.04923 -0.24445,-0.325502 -0.40159,-0.614051 -0.31146,-0.57215 -0.37921,-1.180992 -0.23907,-2.148837 l 0.0837,-0.578676 -0.45271,0.07235 c -0.24874,0.03977 -0.72499,0.17007 -1.05778,0.289443 -1.67313,0.600188 -3.18649,0.603146 -3.74199,0.0067 -0.71198,-0.763772 -0.5797,-1.862812 0.29395,-2.440921 l 0.44468,-0.294244 2.17414,-0.0076 c 1.57535,-0.0047 2.21813,0.0288 2.33395,0.124605 0.24838,0.205567 0.46311,-0.04304 0.60731,-0.70342 0.0685,-0.31421 0.1246,-0.627832 0.1246,-0.697074 8e-5,-0.09381 -0.8704,-0.125864 -3.40479,-0.125864 -2.39663,0 -3.53361,-0.03937 -3.83954,-0.132452 -1.43854,-0.438522 -2.43202,-2.610703 -1.76904,-3.867753 0.11523,-0.218116 0.23633,-0.486425 0.26897,-0.596245 0.0456,-0.151692 0.1308,-0.186196 0.35389,-0.143711 0.5657,0.107817 1.8,0.470976 2.17114,0.638772 0.206,0.09312 0.54347,0.219475 0.74992,0.280701 0.20633,0.06136 0.64075,0.192785 0.96517,0.29239 0.57448,0.176361 1.92197,0.495807 2.89544,0.686426 0.26514,0.05205 0.85658,0.09732 1.31369,0.100962 0.73119,0.0047 0.83108,-0.01656 0.83108,-0.186626 0,-0.10616 -0.0443,-0.238912 -0.0989,-0.294906 -0.0541,-0.0561 -0.14172,-0.270799 -0.19427,-0.47721 -0.0907,-0.35698 -0.11997,-0.37648 -0.59828,-0.398806 -0.27646,-0.01291 -0.78028,-0.101656 -1.11942,-0.197156 -0.72052,-0.202983 -1.40997,-0.321462 -2.81247,-0.483478 -1.40737,-0.162586 -2.07112,-0.49329 -2.43639,-1.213976 -0.21997,-0.4346 -0.26123,-0.642865 -0.22146,-1.121711 0.0421,-0.506698 0.10199,-0.636412 0.43052,-0.937869 0.37764,-0.346241 0.96447,-0.578221 1.4653,-0.579384 0.18258,-4.08e-4 0.49244,-0.244872 1.05312,-0.831687 1.04763,-1.09655 1.16387,-1.269254 0.99303,-1.475076 -0.0728,-0.08817 -0.19119,-0.160334 -0.26281,-0.160334 -0.38426,0 -1.6686,-0.771951 -2.08067,-1.250738 -0.56288,-0.653985 -0.69665,-1.138522 -0.63221,-2.290053 0.13821,-2.469707 1.75098,-3.038793 2.86082,-1.404357 0.48903,0.874827 0.99543,1.656768 1.50365,2.534055 0.25381,0.443343 0.50125,0.830829 0.55023,0.861099 0.10324,0.06381 0.66041,-0.349196 1.97444,-1.463338 0.51489,-0.436514 1.07753,-0.896174 1.2504,-1.021487 0.17322,-0.125269 0.47337,-0.372596 0.66784,-0.549548 0.19427,-0.176956 0.54427,-0.460481 0.77736,-0.630083 0.23322,-0.169573 0.49437,-0.368726 0.58064,-0.442545 0.50974,-0.436193 2.94838,-2.10245 3.87649,-2.648742 1.06924,-0.629347 2.05995,-0.759762 2.83972,-0.373785 z m -11.40222,11.163941 c -0.34457,0.363731 -0.70604,0.745034 -0.80342,0.847313 -0.41645,0.437348 -0.36361,0.591281 0.48068,1.397383 0.4398,0.420093 0.84104,0.759334 0.8915,0.753904 0.0962,-0.0099 0.35115,-3.292566 0.27408,-3.525918 -0.0759,-0.230005 -0.19739,-0.154076 -0.84265,0.527318 z m 3.5173,2.476756 c -0.0195,0.482094 0.0235,1.376793 0.10165,1.988234 l 0.14136,1.111679 0.30955,-0.06195 c 0.17053,-0.03371 0.66624,-0.219143 1.10237,-0.411229 0.8521,-0.375431 0.93538,-0.510565 0.65086,-1.055877 -0.0841,-0.160334 -0.13781,-0.55986 -0.12771,-0.94606 0.0156,-0.612954 -0.008,-0.685608 -0.27176,-0.87437 -0.56307,-0.400924 -1.6399,-0.853054 -1.75577,-0.737191 -0.0607,0.06054 -0.12772,0.504617 -0.14987,0.986697 z"
     style="fill:#000000;stroke-width:0.405319"
     id="path1-10"
     sodipodi:nodetypes="cssssssssssscsssssssssssssssssssssscssssssscccsscccssscssssssssssssssssssssssssssssssssccsssssssscsssssss" />
  <path
     d="m 29.963205,46.542899 2.50035,-0.788324 -2.50035,-4.078021 -2.21765,4.233464 z"
     opacity="0.944"
     fill="#d38d5f"
     id="path3-5"
     sodipodi:nodetypes="ccccc"
     style="fill:#d59263;fill-opacity:1" />
</svg>
