<?xml version="1.0" encoding="UTF-8" standalone="no"?>
<svg
   width="60"
   height="60"
   version="1.1"
   id="svg2"
   sodipodi:docname="1NG.svg"
   inkscape:version="1.3 (0e150ed6c4, 2023-07-21)"
   xmlns:inkscape="http://www.inkscape.org/namespaces/inkscape"
   xmlns:sodipodi="http://sodipodi.sourceforge.net/DTD/sodipodi-0.dtd"
   xmlns="http://www.w3.org/2000/svg"
   xmlns:svg="http://www.w3.org/2000/svg">
  <sodipodi:namedview
     id="namedview2"
     pagecolor="#ffffff"
     bordercolor="#666666"
     borderopacity="1.0"
     inkscape:showpageshadow="2"
     inkscape:pageopacity="0.0"
     inkscape:pagecheckerboard="0"
     inkscape:deskcolor="#d1d1d1"
     inkscape:zoom="7.6083332"
     inkscape:cx="149.70427"
     inkscape:cy="17.086528"
     inkscape:window-width="3840"
     inkscape:window-height="2054"
     inkscape:window-x="-11"
     inkscape:window-y="-11"
     inkscape:window-maximized="1"
     inkscape:current-layer="svg2" />
  <defs
     id="defs1">
    <filter
       id="1GI_svg__a"
       x="-0.13806315"
       y="-0.11203653"
       width="1.3275835"
       height="1.2668328">
      <feGaussianBlur
         in="SourceAlpha"
         result="blur"
         stdDeviation="2"
         id="feGaussianBlur1" />
      <feOffset
         dx="2"
         dy="2"
         result="offsetBlur"
         id="feOffset1" />
      <feBlend
         in="SourceGraphic"
         in2="offsetBlur"
         id="feBlend1" />
    </filter>
    <filter
       id="1OU_svg__a"
       x="-0.13338546"
       y="-0.10825364"
       width="1.3166422"
       height="1.2574737">
      <feGaussianBlur
         in="SourceAlpha"
         result="blur"
         stdDeviation="2"
         id="feGaussianBlur1-9" />
      <feOffset
         dx="2"
         dy="2"
         result="offsetBlur"
         id="feOffset1-2" />
      <feBlend
         in="SourceGraphic"
         in2="offsetBlur"
         id="feBlend1-4"
         mode="normal" />
    </filter>
    <filter
       id="0KI_svg__a"
       x="-0.13506518"
       y="-0.11085473"
       width="1.3201415"
       height="1.2628989">
      <feGaussianBlur
         in="SourceAlpha"
         result="blur"
         stdDeviation="2"
         id="feGaussianBlur1-8" />
      <feOffset
         dx="2"
         dy="2"
         result="offsetBlur"
         id="feOffset1-6" />
      <feBlend
         in="SourceGraphic"
         in2="offsetBlur"
         id="feBlend1-43"
         mode="normal" />
    </filter>
    <filter
       id="0KI_svg__a-2"
       x="-0.13506518"
       y="-0.11085473"
       width="1.3201415"
       height="1.2628989">
      <feGaussianBlur
         in="SourceAlpha"
         result="blur"
         stdDeviation="2"
         id="feGaussianBlur1-2" />
      <feOffset
         dx="2"
         dy="2"
         result="offsetBlur"
         id="feOffset1-4" />
      <feBlend
         in="SourceGraphic"
         in2="offsetBlur"
         id="feBlend1-6"
         mode="normal" />
    </filter>
    <filter
       id="0KI_svg__a-8"
       x="-0.13506518"
       y="-0.11085473"
       width="1.3201415"
       height="1.2628989">
      <feGaussianBlur
         in="SourceAlpha"
         result="blur"
         stdDeviation="2"
         id="feGaussianBlur1-29" />
      <feOffset
         dx="2"
         dy="2"
         result="offsetBlur"
         id="feOffset1-48" />
      <feBlend
         in="SourceGraphic"
         in2="offsetBlur"
         id="feBlend1-1"
         mode="normal" />
    </filter>
  </defs>
  <g
     fill="#ececec"
     filter="url(#1GI_svg__a)"
     id="g1">
    <path
       fill="#fdeb98"
       d="M 42.848,48.016499 49.475,4.8294995 H 10.521 l 6.334,43.4819995 13.145,3.824 z"
       id="path1"
       sodipodi:nodetypes="cccccc"
       style="stroke:#333333;fill:#dfdede;fill-opacity:1" />
  </g>
  <path
     d="m 29.97425,51.620457 2.681571,-0.850025 -2.709571,-4.588975 -2.534,4.677296 z m 12.428417,-3.957694 0.448,-2.92 -4.566,-1.536 1.642644,5.212434 z m -25.115468,0.262003 -0.407339,-2.92 4.525339,-1.536 -1.617359,5.173838 z"
     opacity="0.951"
     fill="#d38d5f"
     id="path2181"
     style="fill:#8b8b8b;fill-opacity:1;stroke:none;stroke-opacity:1;paint-order:stroke fill markers"
     sodipodi:nodetypes="ccccccccccccccc" />
  <g
     id="g5"
     style="fill:#8f6224;fill-opacity:1;stroke:#313131;stroke-opacity:1;paint-order:stroke fill markers"
     transform="rotate(180,29.997185,29.99887)">
    <path
       d="m 45.127786,28.876369 0.749717,5.123859 -5.600712,-2.122 z"
       fill="#d38d5f"
       id="path1059"
       sodipodi:nodetypes="cccc"
       style="fill:#909090;fill-opacity:1;stroke:none;stroke-opacity:1;paint-order:stroke fill markers" />
    <path
       d="m 27.45496,54.665367 5.432728,0.0071 -2.893318,-5.259679 z"
       id="path5"
       sodipodi:nodetypes="cccc"
       style="fill:#909090;fill-opacity:1;stroke:none;stroke-opacity:1;paint-order:stroke fill markers" />
    <path
       d="m 15.098937,28.622799 -0.799005,5.158717 5.618141,-2.171288 z"
       id="path4"
       sodipodi:nodetypes="cccc"
       style="fill:#909090;fill-opacity:1;stroke:none;stroke-opacity:1;paint-order:stroke fill markers" />
  </g>
  <path
     d="m 22.417461,17.108446 c 1.12846,0.363431 2.15756,0.826932 3.29557,1.168535 0.55323,0.167622 1.05178,0.223507 2.08708,0.234082 1.39245,0.01487 3.18349,-0.07278 3.66134,-0.177767 0.14717,-0.03272 0.96491,-0.137713 1.81719,-0.234082 0.85228,-0.09634 1.58088,-0.194624 1.61912,-0.218187 0.1162,-0.07174 1.719669,-0.204306 2.28976,-0.189235 0.88986,0.02379 1.82706,0.473723 2.64245,1.269323 0.637129,0.621671 1.07414,1.346722 0.91039,1.510474 -0.11267,0.112662 -1.24101,0.04749 -1.84892,-0.106779 -0.47661,-0.120892 -1.01817,-0.148124 -2.185551,-0.109722 -2.21784,0.07291 -2.39229,0.102648 -3.23764,0.553348 -0.54913,0.29271 -0.593459,0.404159 -0.3488,0.877255 0.14128,0.273245 0.194991,0.298395 0.4695,0.21974 0.46695,-0.134012 2.885271,0.04851 3.35776,0.25325 0.043,0.01884 1.06618,0.471572 1.31488,1.480589 0.112931,0.458035 -0.24062,0.535124 -1.78264,0.388717 -0.995589,-0.09459 -1.50181,-0.09168 -2.26506,0.01289 -1.09462,0.149544 -1.463,0.371505 -1.46622,0.883274 l -0.002,0.293008 0.80375,-0.06788 c 0.60714,-0.05126 0.90166,-0.02676 1.20407,0.09829 0.22014,0.09145 0.56891,0.229555 0.77494,0.307021 0.3705,0.139332 1.23394,0.921325 1.44915,1.312583 0.10077,0.183221 0.2436,0.09177 1.51171,-0.966962 1.35696,-1.133008 2.21069,-1.651 3.92939,-2.384102 0.52019,-0.221889 1.13699,-0.29757 1.13699,-0.139466 0,0.146339 -0.57043,0.713421 -1.17733,1.170514 -1.01427,0.763922 -4.55078,4.328037 -5.00332,5.042386 -0.19083,0.301237 -0.78803,1.104706 -0.88894,1.195985 -0.09,0.08136 -0.82829,1.178794 -1.87215,2.782772 -0.51719,0.794678 -1.02576,1.541226 -1.13019,1.658942 -0.3088,0.348123 -1.35859,2.451616 -1.43992,2.885096 -0.0798,0.425192 0.17869,1.501215 0.47182,1.964865 0.0898,0.141944 0.16078,0.528902 0.16656,0.906579 0.008,0.556196 -0.0208,0.665036 -0.18494,0.69814 -0.22674,0.04554 -0.90117,-0.385379 -1.52895,-0.977075 -0.24172,-0.227803 -0.62703,-0.501035 -0.85624,-0.607154 -0.5355,-0.247864 -0.98973,-0.68614 -1.17784,-1.136309 -0.19128,-0.457708 -0.18477,-1.410043 0.0109,-1.754078 0.21257,-0.371729 0.19697,-0.715599 -0.0423,-0.936518 -0.99364,-1.107858 -2.12885,-2.038025 -3.1685,-3.057613 -0.35321,-0.351534 -0.97932,-0.938171 -1.3914,-1.303641 -1.39157,-1.234261 -1.79017,-1.602422 -2.98381,-2.755943 -0.7927,-0.766054 -1.38696,-1.244024 -1.77897,-1.43087 -0.32375,-0.154337 -0.85358,-0.413767 -1.17734,-0.576578 -0.32378,-0.162796 -1.00927,-0.45401 -1.52334,-0.647139 -0.79037,-0.296973 -1.001055,-0.429861 -1.364625,-0.861048 -0.23649,-0.280483 -0.42995,-0.557948 -0.42995,-0.616682 0,-0.05876 0.13236,-0.210916 0.29401,-0.338112 0.22311,-0.175421 0.38448,-0.216798 0.66902,-0.171291 0.206175,0.03305 1.284425,0.06494 2.395955,0.07083 2.5733,0.01487 3.08427,0.14505 4.03214,1.034933 4.34826,4.914713 2.71961,3.170325 2.81117,3.27102 0.12826,0.130873 0.41053,0.453951 0.62746,0.717979 l 0.39442,0.480052 0.24776,-0.2321 c 0.3451,-0.323313 0.75942,-0.460428 1.39094,-0.460428 0.2973,0 0.76375,-0.06907 1.03655,-0.153312 0.27278,-0.08431 0.640021,-0.193697 0.81606,-0.243005 0.38025,-0.106581 0.45873,-0.370692 0.21891,-0.736664 -0.15056,-0.229687 -0.22872,-0.257217 -0.57076,-0.200439 -0.21799,0.03609 -0.46858,0.09227 -0.55687,0.124625 -0.26274,0.09653 -0.54961,0.141448 -1.29782,0.203612 -0.61535,0.05109 -0.77949,0.02347 -1.24094,-0.210552 -0.62473,-0.316571 -0.8695,-0.646025 -0.94508,-1.271976 -0.0449,-0.372281 -0.01,-0.504634 0.18947,-0.72325 0.38838,-0.425013 0.75978,-0.532041 2.26048,-0.651346 0.77466,-0.06151 1.5136,-0.154468 1.6421,-0.206355 0.21075,-0.0851 0.22159,-0.126278 0.11038,-0.421044 -0.14046,-0.372212 -0.32791,-0.402408 -0.98612,-0.158864 -0.23544,0.08715 -0.83751,0.247137 -1.33788,0.355635 -0.50035,0.108398 -0.95791,0.21498 -1.01678,0.236594 -0.0589,0.02182 -0.38441,-0.0281 -0.7234,-0.109953 -0.43233,-0.104862 -0.74392,-0.267229 -1.04353,-0.543796 -0.40601,-0.37481 -0.42709,-0.425661 -0.42552,-1.026212 8.1e-4,-0.347554 0.0441,-0.698992 0.096,-0.781045 0.20159,-0.318388 0.8863,-0.423555 2.9723,-0.456541 2.41223,-0.03804 2.46569,-0.05826 2.34283,-0.877537 -0.0944,-0.629206 -0.40723,-0.77647 -1.29926,-0.611585 -0.34151,0.06316 -1.56517,0.114811 -2.71924,0.114811 -1.77908,0 -2.18513,-0.0304 -2.66918,-0.201035 -0.79352,-0.279391 -1.30814,-0.762954 -1.72149,-1.617389 -0.30151,-0.623215 -0.34344,-0.806224 -0.29665,-1.293683 0.094,-0.977819 0.73661,-1.302216 1.63396,-0.824762 z m 10.62205,10.522199 c -0.41698,0.283325 -0.57535,0.632217 -0.45669,1.006062 0.059,0.18636 0.15893,0.222185 0.62507,0.224101 0.392799,0.0017 0.721599,0.0885 1.126589,0.297801 l 0.5719,0.295453 0.86643,-0.887649 c 0.53601,-0.54915 0.8281,-0.925431 0.76596,-0.986713 -0.12049,-0.118577 -0.71182,-0.175785 -2.082409,-0.200868 -0.92974,-0.01718 -1.05345,0.0046 -1.41685,0.251895 z m -1.25107,3.370383 c -0.43827,0.06249 -0.84765,0.152817 -0.90976,0.200869 -0.0621,0.04795 -0.34212,0.143266 -0.622321,0.211609 -0.28018,0.06834 -0.77983,0.243833 -1.11037,0.390052 -0.33054,0.146141 -0.6913,0.265809 -0.80172,0.265809 -0.39726,0 -0.19373,0.447619 0.7685,1.690024 0.53307,0.688304 1.03385,1.287628 1.11283,1.331821 0.13507,0.07551 1.07043,-0.994247 2.038561,-2.331534 0.176609,-0.243898 0.5258,-0.713729 0.77597,-1.043986 0.50405,-0.665349 0.54227,-0.787096 0.26756,-0.852641 -0.197731,-0.04723 -0.25794,-0.04167 -1.519271,0.138044 z"
     style="fill:#f30d16;fill-opacity:0.984314;stroke-width:0.404526"
     id="path1-4"
     sodipodi:nodetypes="ssssssssssssssssssccsssssssssssssssssssssssssssssssscsscssssssssssssssssssscsssssssssssssscsssssssssssssss" />
</svg>
