<?xml version="1.0" encoding="UTF-8" standalone="no"?>
<svg
   viewBox="0 0 60 60"
   version="1.1"
   id="svg6"
   sodipodi:docname="1NK.svg"
   inkscape:version="1.3 (0e150ed6c4, 2023-07-21)"
   xmlns:inkscape="http://www.inkscape.org/namespaces/inkscape"
   xmlns:sodipodi="http://sodipodi.sourceforge.net/DTD/sodipodi-0.dtd"
   xmlns="http://www.w3.org/2000/svg"
   xmlns:svg="http://www.w3.org/2000/svg">
  <sodipodi:namedview
     id="namedview6"
     pagecolor="#ffffff"
     bordercolor="#666666"
     borderopacity="1.0"
     inkscape:showpageshadow="2"
     inkscape:pageopacity="0.0"
     inkscape:pagecheckerboard="0"
     inkscape:deskcolor="#d1d1d1"
     inkscape:zoom="10.759808"
     inkscape:cx="-3.9963538"
     inkscape:cy="43.216385"
     inkscape:window-width="3840"
     inkscape:window-height="2054"
     inkscape:window-x="-11"
     inkscape:window-y="-11"
     inkscape:window-maximized="1"
     inkscape:current-layer="svg6" />
  <defs
     id="defs1">
    <filter
       id="1KE_svg__a"
       x="-0.13367232"
       y="-0.10923303"
       width="1.3166588"
       height="1.2594346">
      <feGaussianBlur
         in="SourceAlpha"
         result="blur"
         stdDeviation="2"
         id="feGaussianBlur1" />
      <feOffset
         dx="2"
         dy="2"
         result="offsetBlur"
         id="feOffset1" />
      <feBlend
         in="SourceGraphic"
         in2="offsetBlur"
         id="feBlend1" />
    </filter>
    <filter
       id="1OU_svg__a"
       x="-0.13338546"
       y="-0.10825364"
       width="1.3166422"
       height="1.2574737">
      <feGaussianBlur
         in="SourceAlpha"
         result="blur"
         stdDeviation="2"
         id="feGaussianBlur1-1" />
      <feOffset
         dx="2"
         dy="2"
         result="offsetBlur"
         id="feOffset1-1" />
      <feBlend
         in="SourceGraphic"
         in2="offsetBlur"
         id="feBlend1-0"
         mode="normal" />
    </filter>
    <filter
       id="0KE_svg__a"
       x="-0.13554818"
       y="-0.11123077"
       width="1.3210896"
       height="1.2636065">
      <feGaussianBlur
         in="SourceAlpha"
         result="blur"
         stdDeviation="2"
         id="feGaussianBlur1-9" />
      <feOffset
         dx="2"
         dy="2"
         result="offsetBlur"
         id="feOffset1-8" />
      <feBlend
         in="SourceGraphic"
         in2="offsetBlur"
         id="feBlend1-5"
         mode="normal" />
    </filter>
    <filter
       id="1FU_svg__a"
       x="-0.13599486"
       y="-0.11066395"
       width="1.3218818"
       height="1.2630402">
      <feGaussianBlur
         in="SourceAlpha"
         result="blur"
         stdDeviation="2"
         id="feGaussianBlur1-8" />
      <feOffset
         dx="2"
         dy="2"
         result="offsetBlur"
         id="feOffset1-7" />
      <feBlend
         in="SourceGraphic"
         in2="offsetBlur"
         id="feBlend1-03"
         mode="normal" />
    </filter>
    <filter
       id="0KE_svg__a-4"
       x="-0.13554818"
       y="-0.11123077"
       width="1.3210896"
       height="1.2636065">
      <feGaussianBlur
         in="SourceAlpha"
         result="blur"
         stdDeviation="2"
         id="feGaussianBlur1-98" />
      <feOffset
         dx="2"
         dy="2"
         result="offsetBlur"
         id="feOffset1-2" />
      <feBlend
         in="SourceGraphic"
         in2="offsetBlur"
         id="feBlend1-57"
         mode="normal" />
    </filter>
  </defs>
  <g
     filter="url(#1KE_svg__a)"
     transform="matrix(0.9389,0,0,0.9389,-90.610859,-23.204921)"
     id="g1">
    <path
       fill="#feec99"
       d="m 141.866,74.375 6.836,-44.558 H 108.15 l 6.898,44.862 13.41175,3.9455 z"
       id="path1"
       sodipodi:nodetypes="cccccc"
       style="fill:#fce36f;fill-opacity:1;stroke:#333333;stroke-width:1.06508;stroke-dasharray:none" />
  </g>
  <path
     d="m 30.469868,13.99451 c 0.547835,0.04884 1.996902,0.332805 2.250861,0.441162 0.979248,0.417692 1.353203,0.812581 1.498953,1.582859 0.154694,0.817443 0.391,1.20844 0.951962,1.574975 0.433755,0.286161 2.050765,1.706639 2.050765,2.690363 0,0.971696 -0.580467,1.541479 -2.14552,2.106063 -0.815432,0.29413 -1.958915,0.52284 -2.637851,0.527529 -0.292494,0.0015 -0.61191,0.04652 -0.70988,0.099 -0.197354,0.105549 -0.542878,0.915856 -0.491644,1.152958 0.02904,0.132763 0.06607,0.133721 0.307752,0.0071 0.407196,-0.12291 0.807957,-0.292802 1.259754,-0.404907 0.945205,-0.227501 1.715224,-0.161861 2.519541,0.214714 0.487137,0.228058 0.66832,0.381844 0.90921,0.771655 0.370597,0.599709 0.322992,0.811694 -0.164395,0.732587 -0.531723,-0.08624 -2.119086,0.105147 -2.8485,0.343376 -0.640466,0.209216 -2.012152,0.777766 -2.500939,1.036559 -0.404774,0.214342 -1.426208,0.487199 -1.75065,0.467711 -0.718914,-0.04322 -1.094986,-0.384136 -1.208807,-1.095946 -0.07056,-0.441702 0.02626,-0.681847 0.49797,-1.234959 0.8075,-0.946743 1.235369,-1.54373 1.64486,-2.295014 0.270438,-0.496096 0.296447,-0.630753 0.308216,-1.592329 0.0071,-0.577712 0.04031,-1.207943 0.07374,-1.400508 0.08881,-0.510317 0.577527,-1.549032 0.929701,-1.976258 0.401494,-0.487098 0.396023,-0.699616 -0.02008,-0.773287 -0.29132,-0.05155 -1.507417,0.150896 -2.643526,0.440034 -1.51247,0.385005 -3.114414,-1.158639 -2.400387,-2.313028 0.366724,-0.592901 0.677726,-0.774448 1.588947,-0.927515 0.831046,-0.13959 2.167656,-0.225463 2.729701,-0.175391 z m 2.773629,5.650396 c -0.127203,0.155838 -0.370875,0.960545 -0.309575,1.021849 0.06705,0.06705 1.189829,-0.20903 1.300707,-0.319939 0.06058,-0.06054 -0.05233,-0.229015 -0.309387,-0.461215 -0.441072,-0.398487 -0.528085,-0.429204 -0.681776,-0.240753 z m 9.128638,3.472717 c 0.03252,0.0531 -0.110832,0.212519 -0.319203,0.354463 -1.254296,0.85426 -1.939491,1.378086 -2.629669,2.01033 -0.192566,0.17641 -0.576026,0.51699 -0.852101,0.756847 -0.703587,0.611285 -2.41131,2.445279 -2.778764,2.984262 -0.168811,0.24758 -0.563202,0.765276 -0.876416,1.150435 -0.556769,0.684627 -1.604809,2.203328 -1.932977,2.801048 -0.09069,0.165073 -0.20869,0.367644 -0.262252,0.450167 -0.05357,0.08263 -0.261511,0.503937 -0.461978,0.936461 -0.327013,0.705484 -0.35838,0.844883 -0.305127,1.354335 0.03252,0.312342 0.157042,0.78865 0.276307,1.058462 0.229602,0.519084 0.409126,1.629433 0.276677,1.711296 -0.182928,0.112995 -2.538006,-1.281706 -3.019049,-1.787967 -0.449604,-0.473176 -0.660196,-1.185116 -0.56282,-1.902658 0.0434,-0.319374 0.149845,-0.689178 0.236737,-0.821737 0.08689,-0.13267 0.157939,-0.306085 0.157939,-0.385643 0,-0.07954 -0.368123,-0.449165 -0.818088,-0.821415 -0.449957,-0.372273 -1.113962,-0.965306 -1.475556,-1.317885 -0.361586,-0.35258 -0.837526,-0.80119 -1.057608,-0.99688 -0.219995,-0.195717 -0.852193,-0.775311 -1.404688,-1.28801 -0.552494,-0.512698 -1.146747,-1.035275 -1.320529,-1.161332 -0.173907,-0.126092 -0.648133,-0.486175 -1.05408,-0.800315 -0.405951,-0.314138 -1.207242,-0.801597 -1.780642,-1.083263 -1.567392,-0.769894 -1.692795,-0.836826 -1.692795,-0.903538 0,-0.03376 -0.159791,-0.147436 -0.355189,-0.252306 -0.364707,-0.195994 -0.668108,-0.642676 -0.557517,-0.820767 0.03252,-0.05507 0.289806,-0.174495 0.56743,-0.26531 0.409342,-0.13369 0.807858,-0.157351 2.100786,-0.124731 1.789562,0.04516 1.984611,0.07176 2.577104,0.350577 1.847699,1.658581 3.122984,3.236654 4.909089,5.121081 0.393502,0.412658 0.879973,0.95324 1.081058,1.201293 0.604978,0.746285 1.435812,1.599761 1.557328,1.599761 0.0627,0 0.239271,-0.168811 0.392248,-0.375145 0.152996,-0.20628 0.596783,-0.757792 0.986211,-1.225469 0.712181,-0.855263 1.091097,-1.389452 1.029364,-1.451173 -0.01823,-0.01823 -0.348293,0.0821 -0.733263,0.2233 -0.816507,0.29929 -2.405113,0.724185 -2.715377,0.72628 -0.121798,7.53e-4 -0.349086,-0.151545 -0.525186,-0.35217 -0.245694,-0.279891 -0.310454,-0.444574 -0.310454,-0.789712 0,-0.851209 0.875567,-1.357625 2.347242,-1.357625 0.680556,0 0.978973,0.05965 2.293949,0.457758 l 0.589635,0.178511 0.297559,-0.343168 c 0.52708,-0.607894 2.217895,-2.33917 2.435695,-2.49397 0.513319,-0.36483 2.02485,-1.383859 2.572346,-1.734208 0.378184,-0.241989 0.843124,-0.435305 1.258966,-0.523461 0.762876,-0.161676 1.770855,-0.187097 1.857565,-0.04671 z"
     style="fill:#f30d16;fill-opacity:0.984314;stroke-width:0.3781"
     id="path1-50"
     sodipodi:nodetypes="ssscsscssccsssssssssssssssssssssssssssssssssssssssssssssssssssccssssssssssscssssss" />
  <path
     d="M 30,50.097953 32.391859,49.338258 30,45.231609 l -2.326141,4.187 z"
     opacity="0.944"
     fill="#d38d5f"
     id="path3-1"
     sodipodi:nodetypes="ccccc"
     style="fill:#d76767;fill-opacity:1" />
  <g
     id="g3"
     style="fill:#d76767;fill-opacity:1"
     transform="rotate(180,30.039101,29.993029)">
    <g
       id="g5"
       style="fill:#d76767;fill-opacity:1;stroke:#313131;stroke-opacity:1;paint-order:stroke fill markers"
       transform="translate(0.37883612,1.6325133)">
      <path
         d="m 44.503954,28.872463 0.791997,5.152409 -5.666429,-2.146644 z"
         fill="#d38d5f"
         id="path1059"
         sodipodi:nodetypes="cccc"
         style="fill:#d76767;fill-opacity:1;stroke:none;stroke-opacity:1;paint-order:stroke fill markers" />
      <path
         d="m 27.052664,53.089406 5.137,0.0071 -2.5825,-5.341 z"
         id="path5"
         sodipodi:nodetypes="cccc"
         style="fill:#d76767;fill-opacity:1;stroke:none;stroke-opacity:1;paint-order:stroke fill markers" />
      <path
         d="m 15.03322,28.591549 -0.831864,5.140679 5.651,-2.122 z"
         id="path4"
         sodipodi:nodetypes="cccc"
         style="fill:#d76767;fill-opacity:1;stroke:none;stroke-opacity:1;paint-order:stroke fill markers" />
      <path
         d="m 41.853001,11.787527 0.431427,2.914476 -4.549427,1.541524 1.66584,-5.144281 z"
         id="path3-8"
         style="fill:#d76767;fill-opacity:1;stroke:none;stroke-opacity:1;paint-order:stroke fill markers"
         sodipodi:nodetypes="ccccc" />
      <path
         d="m 17.554287,12.097778 -0.437474,2.942542 4.518719,1.504047 -1.628914,-5.208409 z"
         id="path2"
         style="fill:#d76767;fill-opacity:1;stroke:none;stroke-opacity:1;paint-order:stroke fill markers"
         sodipodi:nodetypes="ccccc" />
    </g>
  </g>
</svg>
