<?xml version="1.0" encoding="UTF-8" standalone="no"?>
<svg
   viewBox="0 0 60 60"
   version="1.1"
   id="svg23"
   sodipodi:docname="1RY.svg"
   inkscape:version="1.3 (0e150ed6c4, 2023-07-21)"
   xmlns:inkscape="http://www.inkscape.org/namespaces/inkscape"
   xmlns:sodipodi="http://sodipodi.sourceforge.net/DTD/sodipodi-0.dtd"
   xmlns="http://www.w3.org/2000/svg"
   xmlns:svg="http://www.w3.org/2000/svg">
  <sodipodi:namedview
     id="namedview23"
     pagecolor="#ffffff"
     bordercolor="#666666"
     borderopacity="1.0"
     inkscape:showpageshadow="2"
     inkscape:pageopacity="0.0"
     inkscape:pagecheckerboard="0"
     inkscape:deskcolor="#d1d1d1"
     inkscape:zoom="7.6083332"
     inkscape:cx="88.192773"
     inkscape:cy="56.385543"
     inkscape:window-width="3840"
     inkscape:window-height="2054"
     inkscape:window-x="-11"
     inkscape:window-y="-11"
     inkscape:window-maximized="1"
     inkscape:current-layer="svg23" />
  <defs
     id="defs1">
    <filter
       id="1HI_svg__a"
       x="-0.13338546"
       y="-0.10828243"
       width="1.3166419"
       height="1.2579951">
      <feGaussianBlur
         in="SourceAlpha"
         result="blur"
         stdDeviation="2"
         id="feGaussianBlur1" />
      <feOffset
         dx="2"
         dy="2"
         result="offsetBlur"
         id="feOffset1" />
      <feBlend
         in="SourceGraphic"
         in2="offsetBlur"
         id="feBlend1" />
    </filter>
    <filter
       id="0HI_svg__a"
       x="-0.12019833"
       y="-0.099879312"
       width="1.2904793"
       height="1.241375">
      <feGaussianBlur
         in="SourceAlpha"
         result="blur"
         stdDeviation="2"
         id="feGaussianBlur1-5" />
      <feOffset
         dx="2"
         dy="2"
         result="offsetBlur"
         id="feOffset1-0" />
      <feBlend
         in="SourceGraphic"
         in2="offsetBlur"
         id="feBlend1-2"
         mode="normal" />
    </filter>
    <filter
       id="0HI_svg__a-8"
       x="-0.1341634"
       y="-0.11018899"
       width="1.3183423"
       height="1.2615933">
      <feGaussianBlur
         in="SourceAlpha"
         result="blur"
         stdDeviation="2"
         id="feGaussianBlur1-8" />
      <feOffset
         dx="2"
         dy="2"
         result="offsetBlur"
         id="feOffset1-4" />
      <feBlend
         in="SourceGraphic"
         in2="offsetBlur"
         id="feBlend1-1"
         mode="normal" />
    </filter>
    <filter
       id="a"
       x="-0.12152514"
       y="-0.099843994"
       width="1.2936858"
       height="1.2412897">
      <feGaussianBlur
         in="SourceAlpha"
         result="blur"
         stdDeviation="2"
         id="feGaussianBlur6660" />
      <feOffset
         result="offsetBlur"
         dx="2"
         dy="2"
         id="feOffset6662" />
      <feBlend
         in="SourceGraphic"
         in2="offsetBlur"
         id="feBlend6664"
         mode="normal" />
    </filter>
    <filter
       id="0HI_svg__a-2"
       x="-0.1341634"
       y="-0.11018899"
       width="1.3183423"
       height="1.2615933">
      <feGaussianBlur
         in="SourceAlpha"
         result="blur"
         stdDeviation="2"
         id="feGaussianBlur1-3" />
      <feOffset
         dx="2"
         dy="2"
         result="offsetBlur"
         id="feOffset1-3" />
      <feBlend
         in="SourceGraphic"
         in2="offsetBlur"
         id="feBlend1-0"
         mode="normal" />
    </filter>
  </defs>
  <g
     fill="#fdd3e3"
     filter="url(#1HI_svg__a)"
     transform="translate(-102.587 -25.906)scale(1.03094)"
     id="g1">
    <path
       fill="#fdeb98"
       d="m 141.866,74.375 6.836,-44.558 h -40.19 l 6.535,44.862 13.56087,3.9455 z"
       id="path1"
       style="fill:#fbc7dc;fill-opacity:1;stroke:#333333;stroke-width:0.969989;stroke-dasharray:none"
       sodipodi:nodetypes="cccccc" />
  </g>
  <path
     id="path6056"
     style="fill:#fffbfd;fill-opacity:1;stroke:#313131;stroke-width:1;stroke-opacity:0.504;paint-order:stroke fill markers"
     d="M 30,54.659679 32.702891,53.76081 V 32.65486 l 13.214314,-0.05664 0.75586,-4.765625 -13.970174,0.01953 V 5.330641 h -4.980469 l 0.0078,22.527343 -14.572263,0.01953 0.71875,4.855469 13.855466,-0.05859 0.0078,21.288022 z"
     sodipodi:nodetypes="cccccccccccccc" />
  <path
     d="m 33.399779,13.901865 c 0.362079,0.157682 1.088617,1.019576 2.464585,2.92374 1.65636,2.292182 2.14662,2.911518 2.27182,2.869784 0.11297,-0.03779 0.30625,-0.501018 0.62704,-1.50381 0.31974,-0.999579 1.41648,-2.322633 1.97602,-2.383801 0.72082,-0.07869 0.96735,0.01247 1.48624,0.554775 0.2914,0.3041 0.52987,0.62084 0.52991,0.703838 6e-5,0.083 0.16864,0.506907 0.37444,0.942093 0.34858,0.736815 0.72712,2.149531 0.72712,2.713557 0,0.238753 -0.0113,0.237884 -0.3978,-0.03213 -0.21879,-0.152239 -0.66539,-0.514069 -0.99246,-0.803936 -0.32704,-0.289814 -0.66462,-0.527024 -0.75016,-0.527024 -0.0856,0 -0.18758,0.187048 -0.30954,0.371829 -1.00578,1.524019 -1.12093,2.744508 -1.36357,4.132634 -0.30425,1.699393 -0.30165,3.396767 0.005,4.021493 0.12744,0.258747 0.30108,0.70323 0.38578,0.987602 0.20856,0.700554 0.52357,1.012966 1.02136,1.012966 0.74766,0 1.81561,0.525718 2.31272,1.138455 0.43846,0.540487 0.72067,1.20912 0.64226,1.521569 l -0.0769,0.305991 -1.30993,-0.08561 c -0.72046,-0.04709 -1.53024,-0.131717 -1.79952,-0.188372 -0.5095,-0.10681 -0.66423,-0.09751 -2.08084,0.126387 -0.47126,0.07438 -1.11845,0.166224 -1.43824,0.204095 -0.31978,0.0378 -0.58139,0.110627 -0.58139,0.161575 0,0.05121 -0.25489,0.131263 -0.56647,0.177902 -0.78517,0.117883 -0.90237,0.177789 -0.90237,0.461688 0,0.147629 -0.495427,0.762165 -1.225027,1.519669 l -1.225036,1.271898 0.203074,0.309883 c 0.111685,0.170495 0.19869,0.461749 0.193512,0.647362 -0.0087,0.333845 -0.0037,0.336642 0.591802,0.260258 0.330784,-0.04263 0.626517,-0.102161 0.657222,-0.132888 0.153033,-0.152996 1.389483,-2.308536 1.538173,-2.681367 0.094,-0.235654 0.26241,-0.566102 0.37425,-0.734408 0.11187,-0.168264 0.29522,-0.457481 0.40741,-0.642633 0.2694,-0.44459 0.89453,-0.46309 1.38494,-0.04127 0.29466,0.253606 0.34213,0.382904 0.33464,0.910544 -0.009,0.70424 -0.36457,1.31034 -1.26488,2.162246 -0.29658,0.280629 -0.50523,0.56533 -0.46367,0.632602 0.0431,0.06985 0.41691,0.101027 0.87074,0.07298 0.68894,-0.04271 0.90275,4.77e-4 1.6012,0.323755 1.4118,0.653495 2.44607,1.71897 2.36338,2.434787 -0.0336,0.291212 -0.0862,0.325719 -0.46632,0.306519 -0.23562,-0.01134 -0.92414,-0.113386 -1.53004,-0.225449 -0.79601,-0.147288 -1.53466,-0.189316 -2.66269,-0.151332 -0.85856,0.02835 -1.59298,0.08451 -1.63201,0.12344 -0.039,0.03847 0.15934,0.301303 0.44095,0.582852 0.39296,0.392961 1.56137,2.795437 1.70804,3.19765 0.24759,0.679136 0.24759,1.20717 -5e-5,1.20717 -0.25164,0 -1.42302,-0.525819 -1.6566,-0.743573 -0.13905,-0.129524 -0.29828,-0.235616 -0.35407,-0.235616 -0.19578,0 -1.421217,-1.129859 -1.599659,-1.474941 -0.233046,-0.450728 -0.230211,-1.425702 0.0053,-1.877787 l 0.184479,-0.353839 -0.583083,0.06924 c -0.320769,0.03779 -1.155908,0.2112 -1.85596,0.384483 -0.700074,0.173254 -1.397798,0.315213 -1.550487,0.315213 -0.41212,0 -1.299133,-0.417713 -1.616666,-0.761272 -0.588692,-0.636938 -0.575811,-1.684199 0.02797,-2.287495 0.291704,-0.291402 0.396257,-0.315893 1.280542,-0.300397 l 0.962842,0.01701 -0.323376,-0.531829 c -0.242646,-0.39902 -0.379669,-0.514945 -0.548708,-0.464156 -0.123969,0.03779 -0.737023,0.06463 -1.362418,0.0607 -1.596431,-0.0087 -1.539046,-0.110022 -1.502014,2.623718 0.03326,2.477435 0.04668,2.523923 1.219373,4.3257 1.025991,1.576342 0.949323,1.90405 -0.364346,1.557558 -0.453948,-0.11966 -1.007494,-0.323981 -1.230149,-0.4538 -0.222652,-0.129941 -0.470499,-0.236561 -0.550798,-0.237241 -0.284448,0 -1.251554,-0.880271 -1.523034,-1.382631 -0.17998,-0.332976 -0.27606,-0.722426 -0.27727,-1.123536 -0.002,-0.891787 -0.0696,-0.952774 -0.8639,-0.786868 -0.36529,0.07627 -0.77441,0.184479 -0.90907,0.240378 -0.412776,0.171402 -1.512236,0.360945 -2.092896,0.360945 -1.0348,0 -1.64035,-0.557144 -1.64035,-1.509222 0,-0.920338 0.43633,-1.280908 1.89723,-1.567729 0.72027,-0.141468 2.881796,-0.207647 3.243676,-0.09925 0.14559,0.0435 0.19124,-0.09086 0.22031,-0.648847 l 0.037,-0.703831 h -0.53652 c -0.29507,0 -0.57364,0.03742 -0.61899,0.08243 -0.0454,0.04539 -0.20617,0.09808 -0.35716,0.117241 -0.15103,0.0189 -0.577456,0.08821 -0.947726,0.153373 -1.79418,0.316007 -2.5545,0.08205 -3.06666,-0.943475 -0.3846,-0.770264 -0.28482,-1.262593 0.68633,-3.387833 0.93736,-2.050866 1.39877,-2.631594 2.09102,-2.631594 0.21831,0 0.43131,0.05514 0.47291,0.122494 0.0971,0.157266 0.858516,0.157493 1.405736,4.65e-4 0.23373,-0.06701 0.86679,-0.157115 1.40682,-0.200126 1.042877,-0.083 1.287907,-0.185915 1.287907,-0.541088 0,-0.483893 -0.340762,-0.62967 -1.263967,-0.540703 -0.47372,0.04581 -0.94769,0.13028 -1.05328,0.187918 -0.28823,0.157455 -2.081446,0.622541 -2.640036,0.684737 -0.35252,0.039 -0.64202,-0.02457 -1.03333,-0.227377 -1.12518,-0.583374 -1.26485,-1.795668 -0.28248,-2.452909 0.38578,-0.258029 0.74279,-0.3391 2.23394,-0.506907 2.193346,-0.246841 2.835696,-0.260182 3.592266,-0.07449 0.437571,0.107414 0.629374,0.109644 0.730333,0.0087 0.135156,-0.135156 0.146419,-1.27883 0.01474,-1.491863 -0.103937,-0.168076 -1.022842,-0.130885 -1.805153,0.07298 -0.3859,0.100459 -0.74169,0.174425 -0.79074,0.164182 -0.049,-0.0087 -0.17177,0.01247 -0.2728,0.05095 -0.21721,0.08228 -1.16899,0.329613 -1.560646,0.405563 -0.15141,0.0291 -0.3993,0.08115 -0.55078,0.115086 -0.89149,0.19937 -1.23676,0.199937 -1.75283,0.0037 -0.72542,-0.277001 -1.15425,-0.843953 -1.15425,-1.525916 0,-0.493614 0.30902,-1.231363 0.516,-1.231363 0.0528,0 0.0963,-0.05662 0.0963,-0.125593 0,-0.119131 -1.44639,-2.682101 -1.58688,-2.811912 -0.0352,-0.03364 -0.21638,-0.281499 -0.39999,-0.550795 -0.1835,-0.269329 -0.69151,-0.838061 -1.12866,-1.26384 -0.81169,-0.790635 -1.04401,-1.250422 -1.04546,-2.069181 -9e-4,-0.573612 0.32708,-1.304323 0.71411,-1.590399 0.44883,-0.331843 1.71955,-0.859143 2.77368,-1.150964 0.47124,-0.130508 0.93943,-0.27292 1.0404,-0.31646 0.32236,-0.139049 0.63548,-0.16029 2.44806,-0.16664 1.553446,-0.0053 1.900296,0.03213 2.780586,0.299679 0.55315,0.168076 1.206232,0.400849 1.451273,0.517164 0.508317,0.24121 1.579733,1.284091 1.843748,1.794645 0.745195,1.441024 0.985403,3.79745 0.901323,8.841887 -0.03364,2.019621 -0.04312,4.102983 -0.02116,4.629736 l 0.04063,0.957679 0.449023,-0.06701 c 0.246916,-0.03742 0.710661,-0.102236 1.03042,-0.145398 0.319824,-0.04312 0.58142,-0.125556 0.58142,-0.183383 0,-0.05771 -0.177411,-0.356447 -0.394061,-0.663995 -0.540851,-0.767308 -0.613852,-1.844383 -0.20315,-2.997732 0.341669,-0.959679 0.369109,-2.187428 0.142413,-6.364906 -0.173443,-3.196263 -0.143811,-3.952516 0.20005,-5.107166 0.415586,-1.395368 1.303748,-1.93155 2.405129,-1.451902 z m -12.221553,3.202272 c -1.09632,0.283465 -1.34088,0.423379 -1.25484,0.71791 0.0402,0.138633 0.15299,0.637588 0.2496,1.108812 0.0966,0.471273 0.21324,0.994533 0.25863,1.162843 0.0454,0.168303 0.11581,0.9945 0.15647,1.836004 l 0.0735,1.530036 0.48963,0.03213 c 0.77206,0.05042 0.86737,-0.0793 0.56341,-0.766337 -0.34465,-0.779282 -0.32549,-1.155213 0.11622,-2.261749 0.28755,-0.720775 0.6115,-1.21508 1.407646,-2.148605 0.56872,-0.666833 1.03406,-1.251439 1.03406,-1.299133 0,-0.271181 -1.915146,-0.216567 -3.094356,0.08821 z m 4.348336,1.809967 c -0.38425,0.546399 -1.3764,2.796374 -1.3764,3.121455 0,0.0765 0.0484,0.139049 0.10757,0.139049 0.0592,0 0.17389,0.159874 0.25466,0.355276 0.11554,0.278853 0.24374,0.368315 0.59627,0.41602 0.24703,0.03326 0.641863,0.09887 0.877498,0.145587 0.235616,0.04668 0.483485,0.09336 0.550809,0.104013 0.155981,0.02457 0.08886,-3.831538 -0.0782,-4.486564 -0.156359,-0.613073 -0.393574,-0.560833 -0.932257,0.205191 z m 8.191207,1.0689 c -0.02759,0.67759 -0.0014,1.279426 0.05692,1.337442 0.05953,0.059 0.510762,0.04985 1.024452,-0.02117 0.504911,-0.06943 1.246213,-0.162633 1.647323,-0.207118 l 0.72932,-0.08084 -0.66812,-0.562693 c -1.421074,-1.196814 -2.495099,-1.943353 -2.618429,-1.820016 -0.0672,0.06697 -0.144227,0.676399 -0.171401,1.354012 z m -0.03742,4.31537 c -0.0053,0.262412 -0.0053,0.47373 0.06066,0.524746 1.292523,-0.210633 2.572275,-0.426599 3.873005,-0.47542 v -0.36359 -0.363629 l -0.64262,0.081 c -1.0414,0.206286 -2.524055,0.361663 -3.291046,0.596806 z m -0.08209,3.145205 c -0.02117,0.05193 -0.02381,0.127673 -0.02381,0.237506 0,0.194797 0.03477,0.418182 0.0918,0.40659 1.295241,-0.265096 2.536745,-0.414863 3.913225,-0.655774 0.067,-0.01134 0.0344,-0.134589 0.0344,-0.222652 0,-0.210066 -0.0619,-0.381287 -0.15954,-0.483107 -1.28891,0.218683 -2.571589,0.475128 -3.856322,0.717434 z m 0.656443,3.046629 c -0.0037,0.2321 0.0053,0.276434 0.106621,0.240869 1.308481,-0.145777 2.621121,-0.424732 3.920811,-0.63411 0.008,-0.01134 -0.0733,-0.321752 -0.131,-0.32383 -1.01012,0.06247 -3.772289,0.6626 -3.896466,0.717029 z m -9.00323,2.63746 c -0.51077,0.06527 -1.78588,0.28354 -2.1719,0.371792 -0.24336,0.05564 -0.667366,0.721081 -0.700336,1.098901 -0.004,0.06735 -0.054,0.19166 -0.10723,0.276284 -0.0595,0.09536 -0.0193,0.183118 0.10447,0.230891 0.270686,0.103899 1.788026,-0.0449 2.624696,-0.25765 1.079905,-0.274432 2.558139,-0.35709 3.370805,-0.188448 0.62812,0.13047 0.803403,0.235427 1.360486,0.815237 0.567213,0.590309 0.648235,0.637871 0.71709,0.420907 0.07344,-0.231496 1.166918,-1.236026 1.345368,-1.236026 0.108662,0 0.433267,-0.324964 0.433267,-0.433932 0,-0.0463 -0.112668,-0.05477 -0.250205,-0.0189 -0.391911,0.1025 -1.686917,-0.120454 -1.892202,-0.325682 -0.162142,-0.162142 -0.227112,-0.163427 -0.520845,-0.0087 -0.184706,0.09623 -0.414308,0.175332 -0.51055,0.175937 -0.407206,0 -1.755443,-0.530646 -2.181827,-0.861555 -0.271143,-0.210482 -0.391215,-0.214753 -1.621337,-0.05752 z"
     style="fill:#f30d16;fill-opacity:0.984314;stroke-width:0.462629"
     id="path1-8"
     sodipodi:nodetypes="cscsssssssssssssssscssscsssscssccsssssssccscsccsssssssccssssccscssssscssssssssscsscsssssssscssssssssssccccsssssssssscsssssccssssssccssssscsssssssssscscssscsscssssccccccccssssccsccccsssscssssscsscsccss" />
  <path
     d="m 10.414713,9.3412022 -0.6110001,-3.998 3.3851231,-0.039939 1.342,5.3180003 z"
     id="path8506"
     style="fill:#d35f8c;fill-opacity:1"
     sodipodi:nodetypes="ccccc" />
  <path
     d="m 49.533522,9.6360209 0.686,-4.29 -3.758358,-0.051469 -1.063,5.5720003 z"
     id="path8504"
     style="fill:#d35f8c;fill-opacity:1"
     sodipodi:nodetypes="ccccc" />
  <path
     d="m 16.448194,50.686898 -0.413148,-2.943234 3.91579,-0.84221 -1.068362,4.519015 z"
     id="path8502"
     style="fill:#d35f8c;fill-opacity:1"
     sodipodi:nodetypes="ccccc" />
  <path
     d="m 43.213432,50.425774 0.445356,-2.887141 -4.022,-1.04 1.135789,4.67321 z"
     id="path8500"
     style="fill:#d35f8c;fill-opacity:1"
     sodipodi:nodetypes="ccccc" />
</svg>
