<?xml version="1.0" encoding="UTF-8" standalone="no"?>
<!-- Created with Inkscape (http://www.inkscape.org/) -->

<svg
   width="30mm"
   height="30mm"
   viewBox="0 0 30 30"
   version="1.1"
   id="svg1"
   xmlns="http://www.w3.org/2000/svg"
   xmlns:svg="http://www.w3.org/2000/svg">
  <defs
     id="defs1">
    <clipPath
       clipPathUnits="userSpaceOnUse"
       id="clipPath182-4-0-0-0-5-6-4-0-2-8">
      <path
         d="M 0,2834.646 H 2834.646 V 0 H 0 Z"
         transform="translate(-91.9855,-311.81193)"
         id="path182-0-3-0-8-1-8-6-2-1-1" />
    </clipPath>
  </defs>
  <g
     id="layer1"
     transform="translate(-640)">
    <path
       id="path553"
       d="m 0,0 c 0,-19.491 -15.801,-35.292 -35.293,-35.292 -19.491,0 -35.292,15.801 -35.292,35.292 0,19.491 15.801,35.292 35.292,35.292 C -15.801,35.292 0,19.491 0,0"
       style="font-variation-settings:normal;vector-effect:none;fill:#f9d08f;fill-opacity:1;fill-rule:nonzero;stroke:#4d3608;stroke-width:1.58026;stroke-linecap:butt;stroke-linejoin:miter;stroke-miterlimit:10;stroke-dasharray:none;stroke-dashoffset:0;stroke-opacity:1;-inkscape-stroke:none;stop-color:#000000"
       transform="matrix(-0.37968369,0,0,0.37968364,641.6,15.000215)"
       clip-path="url(#clipPath182-4-0-0-0-5-6-4-0-2-8)" />
    <text
       id="text554"
       xml:space="preserve"
       x="654.9751"
       y="19.514681"
       style="font-style:normal;font-variant:normal;font-weight:normal;font-stretch:normal;font-size:12.7px;font-family:Osaka;-inkscape-font-specification:'Osaka, Normal';font-variant-ligatures:normal;font-variant-caps:normal;font-variant-numeric:normal;font-variant-east-asian:normal;text-align:center;text-anchor:middle;fill:#000000;fill-opacity:1;stroke-width:0.352777"><tspan
         id="tspan554"
         x="654.9751"
         y="19.514681"
         style="font-size:12.7px;stroke-width:0.352777">卒</tspan></text>
    <path
       id="path554"
       style="fill:none;stroke:#000000;stroke-width:1.5;stroke-miterlimit:10"
       d="m 645.25,15.000005 a 9.75,9.7499971 0 0 1 9.75,-9.7500001 9.75,9.7499971 0 0 1 9.75,9.7500001 9.75,9.7499971 0 0 1 -9.75,9.74999 9.75,9.7499971 0 0 1 -9.75,-9.74999 z" />
    <path
       style="fill:none;fill-opacity:1;stroke:#000000;stroke-width:0.799999;stroke-miterlimit:10;stroke-dasharray:none;stroke-opacity:1"
       d="m 664.75,15.000205 h 1.75"
       id="path555" />
    <path
       style="fill:none;fill-opacity:1;stroke:#000000;stroke-width:0.799999;stroke-miterlimit:10;stroke-dasharray:none;stroke-opacity:1"
       d="M 645.24997,15.000225 H 643.5"
       id="path556" />
    <path
       style="fill:none;fill-opacity:1;stroke:#000000;stroke-width:0.799999;stroke-miterlimit:10;stroke-dasharray:none;stroke-opacity:1"
       d="m 655,24.750225 v 2.74999"
       id="path557" />
  </g>
</svg>
