<svg height="30mm" viewBox="0 0 30 30" width="30mm" xmlns="http://www.w3.org/2000/svg" xmlns:xlink="http://www.w3.org/1999/xlink"><clipPath id="a"><path d="m0 2834.646h2834.646v-2834.646h-2834.646z" transform="translate(-91.9855 -311.81193)"/></clipPath><g clip-path="url(#a)" stroke-miterlimit="10" transform="matrix(.37968369 0 0 -.37968364 28.400021 14.999988)"><path d="m0 0c0-19.491-15.801-35.292-35.293-35.292-19.491 0-35.292 15.801-35.292 35.292s15.801 35.292 35.292 35.292c19.492 0 35.293-15.801 35.293-35.292" fill="#f9d08f"/><path d="m-35.292969-36.082031c-19.918009 0-36.082031 16.164022-36.082031 36.082031s16.164022 36.082031 36.082031 36.082031c19.918988 0 36.08398462-16.164022 36.08398462-36.082031.00000001-19.918009-16.16499662-36.082031-36.08398462-36.082031zm0 1.580078c19.064974 0 34.50195338 15.438001 34.50195338 34.501953s-15.43697938 34.501953-34.50195338 34.501953c-19.063951 0-34.501953-15.438001-34.501953-34.501953s15.438002-34.501953 34.501953-34.501953z" fill="#4d3608"/></g><path d="m14.379882 16.587501v-.992188h1.141016v.992188h5.010547v1.091406h-5.010547v3.026172h-1.141016v-3.026172h-4.8617182v-1.091406zm0-5.953125v-1.3394532h1.141016v1.3394532h4.464844v1.041797h-2.232422l.644922.396875-.595313.942578q1.091406 1.091406 2.579688 1.686719-.09922.148828-.248047.297656-.09922.148828-.198438.248047 0 0-.248047.396875-1.190624-.644922-1.438671-.84336-.446485-.297656-1.091407-.942578-.843359.942578-.942578.992188-.347265.347265-.595312.496093-.09922-.09922-.347266-.297656-.248047-.198437-.496094-.347265 1.041797-.942579 1.339454-1.289844.545703-.644922 1.190625-1.736328h-4.316016l.694531.446484q-.198437.446484-.74414 1.041797.843359.644922 1.785937 1.190625l-.694531.942578q-.942578-.545703-1.736328-1.339453-1.289844 1.190625-2.033985 1.686719-.4960934-.595313-.7937496-.84336 1.0914066-.694531 1.5874996-1.190625.942578-.942578 1.5875-1.934765h-2.579687v-1.041797z" stroke-width=".352777"/><g stroke-miterlimit="10"><path d="m15 4.5c-5.7900974.0000002-10.4999958 4.709904-10.5 10.5-.0000017 5.7901 4.7098984 10.5 10.5 10.5 5.790102 0 10.500002-4.7099 10.5-10.5-.000004-5.7900962-4.709902-10.5-10.5-10.5zm0 1.5c4.979439 0 8.999996 4.020563 9 9 .000001 4.979441-4.020558 9-9 9s-9.0000015-4.02056-9-9c.0000036-4.979437 4.020561-8.9999998 9-9z"/><path d="m3.5 14.599609v.800782h1.75v-.800782z"/><path d="m24.75 14.599609v.800782h1.75v-.800782z"/><path d="m14.599609 2.5v2.75h.800782v-2.75z"/></g></svg>