<svg height="30mm" viewBox="0 0 30 30" width="30mm" xmlns="http://www.w3.org/2000/svg" xmlns:xlink="http://www.w3.org/1999/xlink"><clipPath id="a"><path d="m0 2834.646h2834.646v-2834.646h-2834.646z" transform="translate(-91.9855 -311.81193)"/></clipPath><g transform="translate(-160)"><g clip-path="url(#a)" stroke-miterlimit="10" transform="matrix(.37968369 0 0 -.37968364 188.40002 14.999785)"><path d="m0 0c0-19.491-15.801-35.292-35.293-35.292-19.491 0-35.292 15.801-35.292 35.292s15.801 35.292 35.292 35.292c19.492 0 35.293-15.801 35.293-35.292" fill="#f9d08f"/><path d="m-35.292969-36.082031c-19.918009 0-36.082031 16.164022-36.082031 36.082031s16.164022 36.082031 36.082031 36.082031c19.918988 0 36.08398462-16.164022 36.08398462-36.082031.00000001-19.918009-16.16499662-36.082031-36.08398462-36.082031zm0 1.580078c19.064974 0 34.50195338 15.438001 34.50195338 34.501953s-15.43697938 34.501953-34.50195338 34.501953c-19.063951 0-34.501953-15.438001-34.501953-34.501953s15.438002-34.501953 34.501953-34.501953z" fill="#4d3608"/></g><path d="m184.60047 13.299755 2.19957 1.69999-2.19957 1.70001" stroke-miterlimit="10"/><path d="m184.90625 12.904297-.61133.791016 1.6875 1.304687-1.6875 1.304687.61133.791016 2.71094-2.095703z" stroke-miterlimit="10"/><path d="m174.41018 16.26483v-.942578h-2.33164v.942578zm3.52226 0v-.942578h-2.33164v.942578zm0-1.934766v-.942578h-2.33164v.942578zm-3.52226 0v-.942578h-2.33164v.942578zm0-3.819922v-1.1906247h1.19062v1.1906247h4.61367v.992188h-4.61367v.942578h3.57188v4.7625h-3.57188v.79375h4.96094v1.041797h-4.96094v1.637109h-1.19062v-1.637109h-4.96094v-1.041797h4.96094v-.79375h-3.47266v-4.7625h3.47266v-.942578h-4.61367v-.992188z" stroke-width=".352777"/><g stroke-miterlimit="10"><path d="m173.3 5.3993549 1.7-2.19957 1.7 2.19957"/><path d="m175 2.3828125-2.0957 2.7109375.79101.6113281 1.30469-1.6875 1.30469 1.6875.79101-.6113281z"/><path d="m165.39961 16.699825-2.19957-1.7 2.19957-1.7"/><path d="m165.09375 12.904297-2.71094 2.095703 2.71094 2.095703.61133-.791016-1.6875-1.304687 1.6875-1.304687z"/><path d="m176.70007 24.600215-1.7 2.19957-1.7-2.19957"/><path d="m173.69531 24.294922-.79101.611328 2.0957 2.710937 2.0957-2.710937-.79101-.611328-1.30469 1.6875z"/><path d="m175 4.5c-5.7901 0-10.5 4.7099038-10.5 10.5 0 5.7901 4.7099 10.5 10.5 10.5s10.5-4.7099 10.5-10.5c0-5.7900962-4.7099-10.5-10.5-10.5zm0 1.5c4.97944 0 9 4.020563 9 9 0 4.979441-4.02056 9-9 9s-9-4.020559-9-9c0-4.979437 4.02056-9 9-9z"/></g></g></svg>