<svg xmlns="http://www.w3.org/2000/svg" height="30mm" viewBox="0 0 30 30" width="30mm"><clipPath id="a"><path d="m0 2834.646h2834.646v-2834.646h-2834.646z" transform="translate(-91.9855 -311.81193)" /></clipPath><g transform="translate(-440)"><g clip-path="url(#a)" stroke-miterlimit="10" transform="matrix(.37968369 0 0 -.37968364 468.39998 15)"><path d="m0 0c0-19.491-15.801-35.292-35.293-35.292-19.491 0-35.292 15.801-35.292 35.292s15.801 35.292 35.292 35.292c19.492 0 35.293-15.801 35.293-35.292" fill="#f9d08f" /><path d="m-35.292969-36.082031c-19.918009 0-36.082031 16.164022-36.082031 36.082031s16.164022 36.082031 36.082031 36.082031c19.918988 0 36.08398462-16.164022 36.08398462-36.082031.00000001-19.918009-16.16499662-36.082031-36.08398462-36.082031zm0 1.580078c19.064974 0 34.50195338 15.438001 34.50195338 34.501953s-15.43697938 34.501953-34.50195338 34.501953c-19.063951 0-34.501953-15.438001-34.501953-34.501953s15.438002-34.501953 34.501953-34.501953z" fill="#4d3608" /></g><g fill="#d20000"><path d="m455 4.5c-5.7901 0-10.5 4.7099038-10.5 10.5 0 5.7901 4.7099 10.5 10.5 10.5s10.5-4.7099 10.5-10.5c0-5.7900962-4.7099-10.5-10.5-10.5zm0 1.5c4.97944 0 9 4.020563 9 9 0 4.979441-4.02056 9-9 9s-9-4.020559-9-9c0-4.979437 4.02056-9 9-9z" stroke-miterlimit="10" /><path d="m463.55664 5.8789062-1.94531 1.9433594.5664.5664063 1.94336-1.9453125z" stroke-miterlimit="10" /><path d="m447.82227 21.611328-1.94336 1.945313.56445.564453 1.94531-1.94336z" stroke-miterlimit="10" /><path d="m462.17773 21.611328-.5664.566406 1.94531 1.94336.56445-.564453z" stroke-miterlimit="10" /><path d="m446.44336 5.8789062-.56445.5644532 1.94336 1.9453125.5664-.5664063z" stroke-miterlimit="10" /></g></g></svg>