<svg height="30mm" viewBox="0 0 30 30" width="30mm" xmlns="http://www.w3.org/2000/svg" xmlns:xlink="http://www.w3.org/1999/xlink"><clipPath id="a"><path d="m0 2834.646h2834.646v-2834.646h-2834.646z" transform="translate(-91.9855 -311.81193)"/></clipPath><g transform="translate(-600)"><g clip-path="url(#a)" stroke-miterlimit="10" transform="matrix(.37968369 0 0 -.37968364 628.39991 14.999994)"><path d="m0 0c0-19.491-15.801-35.292-35.293-35.292-19.491 0-35.292 15.801-35.292 35.292s15.801 35.292 35.292 35.292c19.492 0 35.293-15.801 35.293-35.292" fill="#f9d08f"/><path d="m-35.292969-36.082031c-19.918009 0-36.082031 16.164022-36.082031 36.082031s16.164022 36.082031 36.082031 36.082031c19.918988 0 36.08398462-16.164022 36.08398462-36.082031.00000001-19.918009-16.16499662-36.082031-36.08398462-36.082031zm0 1.580078c19.064974 0 34.50195338 15.438001 34.50195338 34.501953s-15.43697938 34.501953-34.50195338 34.501953c-19.063951 0-34.501953-15.438001-34.501953-34.501953s15.438002-34.501953 34.501953-34.501953z" fill="#4d3608"/></g><g fill="#d20000"><path d="m615.9674 16.041797v-.942578h-1.63711v.942578zm2.82773 0v-.942578h-1.68672v.942578zm-2.82773-1.785937v-.892969h-1.63711v.892969zm2.82773 0v-.892969h-1.68672v.892969zm-2.82773-3.621484v-1.2402348h1.14101v1.2402348h3.27422v.942578h-3.27422v.843359h2.82773v4.613672h-2.82773v.942578h3.7207v.942578h-3.7207v1.835547h-1.14101v-1.835547h-3.47266v-.942578h3.47266v-.942578h-2.72852v-4.613672h2.72852v-.843359h-3.1254v-.942578zm-4.06797 1.587499v8.582422h-1.19063v-6.35q-.59531 1.141016-.89297 1.5875-.0496-.297656-.24804-.545703-.14883-.297656-.39688-.644922.74414-1.141015 1.38906-2.530078.64493-1.389062 1.14102-3.1253903l1.24023.4464843q-.5457 1.537891-1.04179 2.579687z" stroke-width=".352777"/><path d="m613.83319 5.320284-.18325-1.52029 1.35006-.6 1.34994.6-.18324 1.52028" stroke-miterlimit="10"/><path d="m615 2.6523438-1.89063.8398437.22657 1.8886719.99414-.1210938-.13867-1.1523437.80859-.359375.80859.359375-.13867 1.1523437.99414.1210938.22656-1.8886719z" stroke-miterlimit="10"/><path d="m615 4.5c-5.7901 0-10.5 4.7099038-10.5 10.5 0 5.7901 4.7099 10.5 10.5 10.5s10.5-4.7099 10.5-10.5c0-5.7900962-4.7099-10.5-10.5-10.5zm0 1.5c4.97944 0 9 4.020563 9 9 0 4.979441-4.02056 9-9 9s-9-4.020559-9-9c0-4.979437 4.02056-9 9-9z" stroke-miterlimit="10"/><path d="m616.16666 24.679704.18325 1.52029-1.35006.6-1.34994-.6.18324-1.52028" stroke-miterlimit="10"/><path d="m613.33594 24.619141-.22657 1.888671 1.89063.839844 1.89062-.839844-.22851-1.888671-.99219.121093.13867 1.152344-.80859.359375-.80859-.359375.13867-1.152344z" stroke-miterlimit="10"/><path d="m624.67963 13.833254 1.52029-.18325.6 1.35006-.6 1.34995-1.52028-.18325" stroke-miterlimit="10"/><path d="m626.50586 13.109375-1.88672.226563.12109.99414 1.15235-.138672.35937.808594-.35937.808594-1.15235-.138672-.12109.99414 1.88672.226563.8418-1.890625z" stroke-miterlimit="10"/><path d="m605.32021 16.166724-1.52029.18325-.6-1.35006.6-1.34994 1.52028.18324" stroke-miterlimit="10"/><path d="m603.49219 13.109375-.83985 1.890625.83985 1.890625 1.88867-.226563-.12109-.99414-1.15235.138672-.35937-.808594.35937-.808594 1.15235.138672.12109-.99414z" stroke-miterlimit="10"/></g></g></svg>